<svg version="1.1" xmlns="http://www.w3.org/2000/svg" xmlns:xlink="http://www.w3.org/1999/xlink" width="234.9821" height="309.09048" viewBox="0,0,234.9821,309.09048"><defs><linearGradient x1="319.88833" y1="276.38015" x2="320.75579" y2="278.72733" gradientUnits="userSpaceOnUse" id="color-1"><stop offset="0" stop-color="#a4a4a4"/><stop offset="1" stop-color="#d8d8d8"/></linearGradient><linearGradient x1="322.96925" y1="267.07394" x2="322.96925" y2="312.59228" gradientUnits="userSpaceOnUse" id="color-2"><stop offset="0" stop-color="#0b2a00"/><stop offset="1" stop-color="#101800"/></linearGradient><linearGradient x1="300.5284" y1="250.9876" x2="297.67843" y2="254.3124" gradientUnits="userSpaceOnUse" id="color-3"><stop offset="0" stop-color="#a4a4a4"/><stop offset="1" stop-color="#d8d8d8"/></linearGradient><linearGradient x1="288.65402" y1="243.69293" x2="290.55392" y2="245.32147" gradientUnits="userSpaceOnUse" id="color-4"><stop offset="0" stop-color="#a4a4a4"/><stop offset="1" stop-color="#d8d8d8"/></linearGradient><linearGradient x1="308.10528" y1="260.09162" x2="306.20538" y2="258.46306" gradientUnits="userSpaceOnUse" id="color-5"><stop offset="0" stop-color="#a4a4a4"/><stop offset="1" stop-color="#d8d8d8"/></linearGradient><linearGradient x1="306.13792" y1="243.16183" x2="303.9665" y2="245.69503" gradientUnits="userSpaceOnUse" id="color-6"><stop offset="0" stop-color="#a4a4a4"/><stop offset="1" stop-color="#d8d8d8"/></linearGradient><linearGradient x1="290.82494" y1="261.34651" x2="292.99635" y2="258.81331" gradientUnits="userSpaceOnUse" id="color-7"><stop offset="0" stop-color="#a4a4a4"/><stop offset="1" stop-color="#d8d8d8"/></linearGradient><linearGradient x1="298.92226" y1="229.66959" x2="298.92226" y2="276.98363" gradientUnits="userSpaceOnUse" id="color-8"><stop offset="0" stop-color="#0b2a00"/><stop offset="1" stop-color="#101800"/></linearGradient><linearGradient x1="287.41534" y1="396.56411" x2="287.46919" y2="399.55677" gradientUnits="userSpaceOnUse" id="color-9"><stop offset="0" stop-color="#6a6a6a"/><stop offset="1" stop-color="#9f9f9f"/></linearGradient><linearGradient x1="287.29079" y1="389.64769" x2="287.34469" y2="392.64035" gradientUnits="userSpaceOnUse" id="color-10"><stop offset="0" stop-color="#6a6a6a"/><stop offset="1" stop-color="#9f9f9f"/></linearGradient><linearGradient x1="287.16628" y1="382.7313" x2="287.22015" y2="385.72396" gradientUnits="userSpaceOnUse" id="color-11"><stop offset="0" stop-color="#6a6a6a"/><stop offset="1" stop-color="#9f9f9f"/></linearGradient><linearGradient x1="287.58642" y1="376.40529" x2="287.58642" y2="402.43303" gradientUnits="userSpaceOnUse" id="color-12"><stop offset="0" stop-color="#0b2a00"/><stop offset="1" stop-color="#101800"/></linearGradient><linearGradient x1="284.14008" y1="354.21402" x2="278.80739" y2="355.68099" gradientUnits="userSpaceOnUse" id="color-13"><stop offset="0" stop-color="#a4a4a4"/><stop offset="1" stop-color="#d8d8d8"/></linearGradient><linearGradient x1="284.32103" y1="365.07681" x2="285.15371" y2="367.95181" gradientUnits="userSpaceOnUse" id="color-14"><stop offset="0" stop-color="#6a6a6a"/><stop offset="1" stop-color="#9f9f9f"/></linearGradient><linearGradient x1="282.39662" y1="358.43238" x2="283.22929" y2="361.30736" gradientUnits="userSpaceOnUse" id="color-15"><stop offset="0" stop-color="#6a6a6a"/><stop offset="1" stop-color="#9f9f9f"/></linearGradient><linearGradient x1="280.47216" y1="351.78793" x2="281.30487" y2="354.66293" gradientUnits="userSpaceOnUse" id="color-16"><stop offset="0" stop-color="#6a6a6a"/><stop offset="1" stop-color="#9f9f9f"/></linearGradient><linearGradient x1="278.54775" y1="345.14348" x2="279.38043" y2="348.01848" gradientUnits="userSpaceOnUse" id="color-17"><stop offset="0" stop-color="#6a6a6a"/><stop offset="1" stop-color="#9f9f9f"/></linearGradient><linearGradient x1="281.50319" y1="336.26427" x2="281.50319" y2="373.96829" gradientUnits="userSpaceOnUse" id="color-18"><stop offset="0" stop-color="#0b2a00"/><stop offset="1" stop-color="#101800"/></linearGradient><linearGradient x1="198.60534" y1="355.21401" x2="203.93803" y2="356.68099" gradientUnits="userSpaceOnUse" id="color-19"><stop offset="0" stop-color="#a4a4a4"/><stop offset="1" stop-color="#d8d8d8"/></linearGradient><linearGradient x1="198.42439" y1="366.07681" x2="197.59171" y2="368.95181" gradientUnits="userSpaceOnUse" id="color-20"><stop offset="0" stop-color="#6a6a6a"/><stop offset="1" stop-color="#9f9f9f"/></linearGradient><linearGradient x1="200.3488" y1="359.43238" x2="199.51612" y2="362.30736" gradientUnits="userSpaceOnUse" id="color-21"><stop offset="0" stop-color="#6a6a6a"/><stop offset="1" stop-color="#9f9f9f"/></linearGradient><linearGradient x1="202.27324" y1="352.78793" x2="201.44055" y2="355.66293" gradientUnits="userSpaceOnUse" id="color-22"><stop offset="0" stop-color="#6a6a6a"/><stop offset="1" stop-color="#9f9f9f"/></linearGradient><linearGradient x1="204.19766" y1="346.14348" x2="203.36498" y2="349.01848" gradientUnits="userSpaceOnUse" id="color-23"><stop offset="0" stop-color="#6a6a6a"/><stop offset="1" stop-color="#9f9f9f"/></linearGradient><linearGradient x1="201.27788" y1="337.26427" x2="201.27788" y2="374.96829" gradientUnits="userSpaceOnUse" id="color-24"><stop offset="0" stop-color="#0b2a00"/><stop offset="1" stop-color="#101800"/></linearGradient><linearGradient x1="205.38541" y1="417.29489" x2="184.59513" y2="417.29489" gradientUnits="userSpaceOnUse" id="color-25"><stop offset="0" stop-color="#a4a4a4"/><stop offset="1" stop-color="#d8d8d8"/></linearGradient><linearGradient x1="206.87043" y1="424.17997" x2="177.98005" y2="424.17997" gradientUnits="userSpaceOnUse" id="color-26"><stop offset="0" stop-color="#a4a4a4"/><stop offset="1" stop-color="#d8d8d8"/></linearGradient><linearGradient x1="209.21046" y1="430.95357" x2="167.25188" y2="430.95357" gradientUnits="userSpaceOnUse" id="color-27"><stop offset="0" stop-color="#a4a4a4"/><stop offset="1" stop-color="#d8d8d8"/></linearGradient><linearGradient x1="174.092" y1="430.93006" x2="162.56285" y2="430.93006" gradientUnits="userSpaceOnUse" id="color-28"><stop offset="0" stop-color="#787878"/><stop offset="1" stop-color="#a4a4a4"/></linearGradient><linearGradient x1="178.00705" y1="430.93006" x2="166.47788" y2="430.93006" gradientUnits="userSpaceOnUse" id="color-29"><stop offset="0" stop-color="#787878"/><stop offset="1" stop-color="#a4a4a4"/></linearGradient><linearGradient x1="183.00212" y1="430.93006" x2="171.47296" y2="430.93006" gradientUnits="userSpaceOnUse" id="color-30"><stop offset="0" stop-color="#787878"/><stop offset="1" stop-color="#a4a4a4"/></linearGradient><linearGradient x1="136.27922" y1="423.09623" x2="216.88747" y2="423.09623" gradientUnits="userSpaceOnUse" id="color-31"><stop offset="0" stop-color="#0b2a00"/><stop offset="1" stop-color="#101800"/></linearGradient><linearGradient x1="189.23652" y1="241.32037" x2="187.2257" y2="242.80976" gradientUnits="userSpaceOnUse" id="color-32"><stop offset="0" stop-color="#a4a4a4"/><stop offset="1" stop-color="#d8d8d8"/></linearGradient><linearGradient x1="168.66894" y1="256.29509" x2="170.67978" y2="254.80567" gradientUnits="userSpaceOnUse" id="color-33"><stop offset="0" stop-color="#a4a4a4"/><stop offset="1" stop-color="#d8d8d8"/></linearGradient><linearGradient x1="171.8346" y1="239.54797" x2="173.82048" y2="242.22908" gradientUnits="userSpaceOnUse" id="color-34"><stop offset="0" stop-color="#a4a4a4"/><stop offset="1" stop-color="#d8d8d8"/></linearGradient><linearGradient x1="185.8164" y1="258.77498" x2="183.83052" y2="256.09388" gradientUnits="userSpaceOnUse" id="color-35"><stop offset="0" stop-color="#a4a4a4"/><stop offset="1" stop-color="#d8d8d8"/></linearGradient><linearGradient x1="178.28181" y1="226.67074" x2="178.28181" y2="273.71124" gradientUnits="userSpaceOnUse" id="color-36"><stop offset="0" stop-color="#0b2a00"/><stop offset="1" stop-color="#101800"/></linearGradient><linearGradient x1="128.13887" y1="298.87424" x2="128.13887" y2="333.99599" gradientUnits="userSpaceOnUse" id="color-37"><stop offset="0" stop-color="#0b2a00"/><stop offset="1" stop-color="#101800"/></linearGradient><linearGradient x1="234.52813" y1="307.0577" x2="246.14785" y2="307.0577" gradientUnits="userSpaceOnUse" id="color-38"><stop offset="0" stop-color="#a4a4a4"/><stop offset="1" stop-color="#d8d8d8"/></linearGradient><radialGradient cx="240.06135" cy="272.72498" r="9.40642" gradientUnits="userSpaceOnUse" id="color-39"><stop offset="0" stop-color="#d8d8d8"/><stop offset="1" stop-color="#a4a4a4"/></radialGradient><linearGradient x1="255.83458" y1="258.12809" x2="250.82992" y2="258.12809" gradientUnits="userSpaceOnUse" id="color-40"><stop offset="0" stop-color="#a4a4a4"/><stop offset="1" stop-color="#d8d8d8"/></linearGradient><linearGradient x1="224.29126" y1="258.97872" x2="229.29588" y2="258.97872" gradientUnits="userSpaceOnUse" id="color-41"><stop offset="0" stop-color="#a4a4a4"/><stop offset="1" stop-color="#d8d8d8"/></linearGradient><linearGradient x1="240.02105" y1="278.13379" x2="240.02105" y2="283.55549" gradientUnits="userSpaceOnUse" id="color-42"><stop offset="0" stop-color="#a4a4a4"/><stop offset="1" stop-color="#d8d8d8"/></linearGradient><linearGradient x1="257.67969" y1="257.92823" x2="263.58529" y2="260.09895" gradientUnits="userSpaceOnUse" id="color-43"><stop offset="0" stop-color="#a4a4a4"/><stop offset="1" stop-color="#d8d8d8"/></linearGradient><linearGradient x1="221.72457" y1="257.17298" x2="215.69046" y2="259.39093" gradientUnits="userSpaceOnUse" id="color-44"><stop offset="0" stop-color="#a4a4a4"/><stop offset="1" stop-color="#d8d8d8"/></linearGradient><linearGradient x1="240.40934" y1="233.19723" x2="240.40934" y2="237.74269" gradientUnits="userSpaceOnUse" id="color-45"><stop offset="0" stop-color="#a4a4a4"/><stop offset="1" stop-color="#d8d8d8"/></linearGradient><linearGradient x1="238.89362" y1="219.84331" x2="238.89362" y2="346.04163" gradientUnits="userSpaceOnUse" id="color-46"><stop offset="0" stop-color="#0b2a00"/><stop offset="1" stop-color="#101800"/></linearGradient><linearGradient x1="239.523" y1="172.61031" x2="239.523" y2="215.15882" gradientUnits="userSpaceOnUse" id="color-47"><stop offset="0" stop-color="#0b2a00"/><stop offset="1" stop-color="#101800"/></linearGradient><linearGradient x1="191.42415" y1="162.93697" x2="288.70932" y2="162.93697" gradientUnits="userSpaceOnUse" id="color-48"><stop offset="0" stop-color="#0b2a00"/><stop offset="1" stop-color="#101800"/></linearGradient><radialGradient cx="224.36667" cy="141.46727" r="2.94517" gradientUnits="userSpaceOnUse" id="color-49"><stop offset="0" stop-color="#ffffff"/><stop offset="1" stop-color="#ffffff" stop-opacity="0"/></radialGradient><radialGradient cx="254.76666" cy="141.46727" r="2.94517" gradientUnits="userSpaceOnUse" id="color-50"><stop offset="0" stop-color="#ffffff"/><stop offset="1" stop-color="#ffffff" stop-opacity="0"/></radialGradient></defs><g transform="translate(-109.36158,-126.18036)"><g data-paper-data="{&quot;isPaintingLayer&quot;:true}" fill-rule="nonzero" stroke-linejoin="miter" stroke-miterlimit="10" stroke-dasharray="" stroke-dashoffset="0" style="mix-blend-mode: normal"><path d="M288.37769,173.41388c0,9.32479 -96.5038,8.48932 -97.2031,0c-0.965,-11.71487 7.50323,-22.09243 20.41772,-28.34006c8.06537,-3.90178 48.48041,-3.80882 56.44345,0.24162c12.31598,6.26458 20.34193,16.51555 20.34193,28.09845z" fill="#000000" stroke="#000000" stroke-width="0" stroke-linecap="butt"/><g data-paper-data="{&quot;index&quot;:null}" stroke-linecap="butt"><path d="M316.59609,269.79115c18.71869,-8.02353 22.41302,1.25056 26.66125,12.16856c0.01704,0.04378 0.03405,0.08754 0.05106,0.13127c-3.4853,0.36714 -7.81633,1.63318 -10.69261,3.40817c-0.8803,0.54324 -1.41644,1.61418 -2.37925,1.99232c-1.79311,0.70421 -4.34154,0.92102 -5.74012,2.44348c-3.00342,3.26945 -1.16296,7.19945 1.90497,9.09368c4.04975,2.0962 0.85563,5.724 1.71983,8.97971c0.22373,0.84285 0.62016,1.61881 1.12787,2.34699c-17.09067,5.94186 -19.8881,-2.80745 -23.93,-13.19516c-4.24826,-10.918 -9.37958,-18.51484 11.277,-27.36901z" fill="#000000" stroke="#000000" stroke-width="0"/><path d="M318.55908,267.79628c1.24375,-0.13615 1.3799,1.1076 1.3799,1.1076l0.02341,0.5571c0.59814,1.68875 0.7003,3.58492 0.66089,5.49438c0.16961,0.03798 0.34841,0.07979 0.53748,0.12797c0.85661,0.21829 1.66835,0.58516 2.50251,0.87774c0,0 0.89853,0.31858 0.84885,1.18391c0.13578,0.18164 0.19579,0.34401 0.19579,0.34401l0.21688,0.58681c0.59104,1.61833 1.05056,2.82392 0.63584,4.09945c1.14178,0.47518 2.28358,0.95034 3.42533,1.42551c0,0 1.06812,0.44451 0.72274,1.50572c0.05465,0.08116 0.10056,0.1701 0.13599,0.26596c0.03373,0.09124 0.05614,0.18388 0.06794,0.27642c0.21386,0.33168 0.22588,0.70374 0.22588,0.70374l0.04254,1.31818c0.04433,1.41191 0.57844,2.84613 0.28599,4.22814c-0.10846,0.51258 -0.42031,1.09319 -0.81714,1.6889c0.51999,0.29162 0.99131,0.6565 1.35444,1.14103c1.43798,1.9188 1.37973,4.67093 1.02384,7.29454c2.05106,0.96398 4.11406,3.07127 3.22947,5.61415c-0.31334,0.90077 -1.21897,1.42423 -1.98788,2.04194c0.07467,0.30885 0.03542,0.693 -0.33474,1.08787c-0.85574,0.91278 -1.7685,0.05707 -1.7685,0.05707c-0.40247,-0.39257 -0.80491,-0.78517 -1.20737,-1.17774l-0.5648,-1.43161c0,0 -0.01168,-0.03162 -0.02602,-0.08642c-0.01695,-0.03531 -0.03241,-0.07173 -0.04626,-0.1092c-0.07508,-0.20315 -0.09409,-0.41332 -0.06483,-0.61354c-0.52862,-0.40837 -0.43698,-1.1477 -0.43698,-1.1477c0.11656,-0.94033 0.29822,-1.92746 0.46383,-2.92743c-1.01604,-0.90804 -2.04738,-1.80007 -3.01065,-2.76326c-0.7707,-0.77063 -1.94912,-1.33649 -2.23248,-2.3889c-0.22424,-0.83284 0.60527,-1.61583 0.9402,-2.41067c0.16447,-0.39031 0.35368,-0.75371 0.55986,-1.10145c-2.4026,-1.211 -5.14665,-5.43646 -4.95819,-8.14009c0.12163,-1.74498 0.86871,-2.15777 1.47636,-3.098c-0.47557,-0.19792 -0.94131,-0.39174 -1.39092,-0.57885c0,0 -0.13202,-0.05495 -0.28822,-0.17232c-0.30581,-0.05829 -0.58432,-0.22969 -0.77324,-0.48554c-0.34628,-0.11653 -0.63873,-0.38299 -0.77525,-0.75237c-0.03251,-0.08792 -0.05449,-0.17715 -0.06661,-0.26632c-0.84048,-0.24184 -0.83591,-1.20238 -0.83591,-1.20238c0.0045,-0.94999 0.08609,-2.00023 0.15848,-3.08014c-1.33477,-0.56863 -2.44331,-1.45096 -3.00226,-3.18153c-0.19652,-0.60841 -0.6026,-1.22663 -0.4865,-1.85536c0.17234,-0.93325 1.12742,-1.59499 1.31463,-2.52535l0.50243,-0.43977c0.13893,-0.26271 0.37142,-0.47715 0.6721,-0.58829c0.14835,-0.05482 0.30042,-0.07975 0.44961,-0.07782c0.05449,-0.00145 0.11193,-0.00002 0.17108,0.00557c0.16337,-0.21044 0.42688,-0.3853 0.8505,-0.43166zM317.43242,272.8415c0.25257,0.52437 0.50008,0.89269 0.76581,1.16106c-0.00921,-0.86366 -0.07339,-1.70625 -0.23704,-2.49138c-0.02352,0.05515 -0.04925,0.10941 -0.07752,0.16269c-0.16757,0.31563 -0.7034,0.34247 -0.83223,0.6758c-0.07476,0.19344 0.29099,0.30499 0.38098,0.49183zM322.30744,278.14526c-0.59208,-0.18624 -1.19829,-0.33944 -1.79745,-0.49446c-0.03717,0.74253 -0.0703,1.4728 -0.07752,2.17886c0.22804,0.08301 0.43103,0.23162 0.57905,0.43205c0.13952,0.04695 0.27027,0.11824 0.38563,0.21079c0.14151,0.02894 0.2325,0.06679 0.2325,0.06679l0.42546,0.17707c0.4065,0.16918 0.81299,0.33835 1.21949,0.50751c0.09098,-0.65766 -0.33552,-1.31613 -0.69698,-2.28061l-0.21687,-0.58679c0,0 -0.03038,-0.08224 -0.05331,-0.21123zM327.49752,286.2399c-0.07057,-0.19088 -0.09161,-0.38797 -0.06962,-0.57718c-0.94314,-0.39251 -1.94193,-0.80816 -2.94319,-1.22484c-0.05872,0.19315 -0.13226,0.37873 -0.24638,0.54368c-0.37436,0.54103 -1.16844,0.94359 -1.15386,1.60133c0.03822,1.7225 1.93067,5.2613 3.58476,5.85493c0.11077,0.03977 0.22453,0.07894 0.34061,0.11805c0.10566,-0.14407 0.21142,-0.28966 0.31662,-0.43769c0.21146,-0.29756 0.64893,-0.47117 0.71399,-0.83038c0.21114,-1.1659 -0.32129,-2.35207 -0.36047,-3.53629l-0.0399,-1.23596c-0.05755,-0.08377 -0.10575,-0.17597 -0.14259,-0.27564zM327.96272,298.7215c0.58539,0.47442 1.14413,0.97978 1.69428,1.49514c0.02689,-0.59083 0.01811,-1.1737 -0.04362,-1.74132c-0.03304,-0.30376 -0.35408,-1.9202 -0.53679,-2.15096c-0.25948,-0.32773 -0.57877,-0.55873 -0.92698,-0.73514c-0.36083,0.46352 -0.6884,0.89655 -0.91631,1.26943c-0.19789,0.32372 -0.86858,0.5198 -0.73024,0.8731c0.21434,0.5474 1.00295,0.61962 1.45967,0.98975zM332.96233,306.64085c0.3767,-0.69912 -0.53259,-1.50274 -1.35544,-2.01143c-0.11941,0.69003 -0.22973,1.34294 -0.30331,1.93663c0,0 -0.00254,0.02055 -0.00963,0.05601c0.16432,0.13586 0.29605,0.31556 0.37528,0.52993c0.01385,0.03747 0.02581,0.07517 0.03588,0.11302c0.02473,0.05095 0.03642,0.08257 0.03642,0.08257l0.11836,0.35798c0.43517,-0.30173 0.85771,-0.61048 1.10246,-1.06472z" fill="#000000" stroke="none" stroke-width="0.5"/><g stroke="none" stroke-width="0"><path d="M330.70216,311.95575l-16.19297,-43.81406l4.10758,-1.5181l16.19295,43.81405z" fill="#000000"/><path d="M312.83408,281.65505l-0.86748,-2.34716l15.84347,-5.8555l0.86748,2.34719z" fill="url(#color-1)"/><path d="M335.95754,294.89597l0.86748,2.34717l-15.84347,5.85548l-0.86748,-2.34719z" data-paper-data="{&quot;index&quot;:null}" fill="#000000"/><path d="M335.46019,301.97155l-3.09584,-16.19645l-8.32598,-14.7081l3.12957,-1.15664l8.25369,14.51251l3.16812,16.39203z" fill="#000000"/><path d="M321.44937,307.37207l-8.25369,-14.51251l-3.16814,-16.39206l3.12957,-1.15663l3.24044,16.58764l8.18139,14.31691z" data-paper-data="{&quot;index&quot;:null}" fill="#000000"/><path d="M329.38344,311.2827c-0.63563,-1.71988 0.24332,-3.62938 1.96317,-4.26501c1.71989,-0.63563 3.62938,0.24332 4.26501,1.96317c0.63563,1.71988 -0.24329,3.62938 -1.96317,4.26501c-1.71988,0.63563 -3.62938,-0.24332 -4.26501,-1.96317z" fill="#000000"/></g><path d="M305.4448,297.46889c-4.24826,-10.918 -9.37958,-18.51484 11.277,-27.36901c18.7187,-8.02351 22.41301,1.25058 26.66124,12.16856c0.33064,0.84972 0.65405,1.68767 0.96064,2.51409c-1.41252,1.26271 -2.85466,2.54507 -4.00824,4.00903c-0.66793,0.84766 -0.91751,2.03083 -1.73864,2.73112c-1.15652,0.98633 -4.14075,0.70191 -5.57488,1.44253c-2.80977,1.45106 -5.05527,2.57243 -7.60362,4.54545c-0.75157,0.5819 -2.01461,0.39625 -2.61765,1.13095c-0.6224,0.75827 -0.71328,1.82774 -1.06991,2.74163c-1.65934,3.95573 -0.04928,7.5934 2.40813,10.74466c-12.49831,2.49359 -15.10576,-5.43704 -18.69406,-14.65899z" fill="url(#color-2)" stroke="#000000" stroke-width="0"/></g><g data-paper-data="{&quot;index&quot;:null}" stroke-linecap="butt"><path d="M282.57191,239.53824c12.44987,-16.11729 20.18971,-9.81239 29.2133,-2.34079c9.0236,7.47159 16.06465,13.82611 3.46406,29.39786c-13.24783,16.37161 -20.18971,9.81239 -29.2133,2.34079c-9.02362,-7.47159 -17.20284,-11.61201 -3.46406,-29.39786z" fill="#525252" stroke="#000000" stroke-width="0"/><path d="M283.31628,236.84032c1.02036,-0.72409 1.74446,0.29628 1.74446,0.29628l0.2915,0.47533c1.34423,1.18437 2.35604,2.79126 3.25067,4.47865c0.16666,-0.04934 0.34322,-0.09981 0.53185,-0.14972c0.8546,-0.22605 1.74226,-0.30048 2.6134,-0.45073c0,0 0.94001,-0.15884 1.31761,0.62132c0.207,0.09262 0.33843,0.20529 0.33843,0.20529l0.47498,0.40715c1.30377,1.12628 2.29181,1.95599 2.55008,3.27215c1.22871,-0.14039 2.45744,-0.28078 3.68615,-0.42117c0,0 1.14942,-0.13135 1.36401,0.96385c0.08722,0.04432 0.17062,0.09968 0.2482,0.16619c0.07386,0.0633 0.1385,0.13334 0.19385,0.20845c0.34822,0.18573 0.53974,0.50493 0.53974,0.50493l0.67853,1.13094c0.72569,1.21194 1.89015,2.2051 2.30705,3.55479c0.15463,0.50058 0.16467,1.15956 0.10782,1.8731c0.59618,0.00179 1.18548,0.09123 1.73846,0.33787c2.18988,0.97672 3.47802,3.40949 4.44361,5.87477c2.26095,-0.15575 5.0886,0.68155 5.55298,3.33355c0.16449,0.93941 -0.37202,1.83737 -0.74321,2.75115c0.21548,0.23349 0.36814,0.58821 0.23685,1.11328c-0.3035,1.2138 -1.5173,0.91032 -1.5173,0.91032c-0.54262,-0.14717 -1.08524,-0.29435 -1.62786,-0.4415l-1.18999,-0.97594c0,0 -0.02559,-0.02196 -0.06479,-0.06284c-0.03199,-0.0226 -0.06321,-0.0469 -0.09355,-0.07288c-0.16444,-0.14095 -0.28329,-0.31534 -0.35515,-0.50447c-0.66052,-0.09958 -0.94017,-0.79008 -0.94017,-0.79008c-0.35568,-0.8782 -0.67725,-1.82901 -1.01908,-2.78323c-1.32947,-0.29897 -2.66452,-0.57649 -3.97472,-0.94931c-1.04828,-0.29829 -2.35313,-0.21928 -3.11272,-1.00086c-0.60112,-0.61851 -0.25738,-1.70618 -0.35149,-2.56354c-0.04621,-0.42102 -0.05772,-0.83056 -0.0468,-1.23468c-2.68824,0.11097 -7.14148,-2.24551 -8.29229,-4.69924c-0.74276,-1.58369 -0.2909,-2.30779 -0.21748,-3.4249c-0.51179,0.05847 -1.01297,0.11574 -1.49682,0.17102c0,0 -0.14208,0.01623 -0.33565,-0.01031c-0.29554,0.09787 -0.62225,0.08363 -0.91179,-0.04798c-0.35923,0.06667 -0.74437,-0.02382 -1.04337,-0.28012c-0.07118,-0.06099 -0.13379,-0.12826 -0.18778,-0.20026c-0.85195,0.19765 -1.3153,-0.64375 -1.3153,-0.64375c-0.45827,-0.83216 -0.89798,-1.7894 -1.36017,-2.76809c-1.4428,0.15264 -2.84057,-0.07886 -4.17088,-1.31883c-0.4677,-0.43593 -1.12327,-0.77846 -1.32776,-1.38423c-0.3035,-0.89917 0.20897,-1.94201 -0.08016,-2.84591l0.22499,-0.62867c-0.00645,-0.29711 0.09232,-0.59759 0.30096,-0.84098c0.10293,-0.12006 0.22367,-0.21582 0.35494,-0.28675c0.04691,-0.02777 0.0978,-0.05446 0.15218,-0.07836c0.04034,-0.26334 0.18551,-0.54432 0.53302,-0.79093zM284.78667,241.79627c0.47578,0.33524 0.87124,0.5366 1.23398,0.64178c-0.42825,-0.75007 -0.89427,-1.45497 -1.41926,-2.06128c0.00629,0.05962 0.01021,0.11955 0.01142,0.17987c0.00717,0.35728 -0.4479,0.64144 -0.39827,0.99534c0.02882,0.20537 0.40263,0.12488 0.57214,0.24432zM291.6263,244.05804c-0.6079,0.12536 -1.21204,0.28648 -1.81091,0.44255c0.32878,0.6668 0.65516,1.32093 0.99239,1.94129c0.2396,-0.03843 0.48926,-0.00736 0.71609,0.09573c0.14473,-0.02688 0.29366,-0.0282 0.43948,-0.00348c0.13772,-0.04357 0.23562,-0.05477 0.23562,-0.05477l0.45787,-0.05232c0.43745,-0.04998 0.87489,-0.09995 1.31234,-0.14994c-0.24051,-0.61884 -0.9335,-0.98661 -1.71855,-1.65336l-0.47496,-0.40714c0,0 -0.06656,-0.05707 -0.14934,-0.15859zM300.09904,248.60475c-0.15453,-0.13244 -0.26879,-0.29438 -0.34164,-0.47037c-1.01495,0.11597 -2.08979,0.23878 -3.16727,0.36189c0.04267,0.19731 0.06873,0.39523 0.04927,0.59486c-0.06383,0.6548 -0.56172,1.39288 -0.22894,1.96041c0.87147,1.48627 4.24661,3.65721 5.98054,3.37104c0.11613,-0.01916 0.23456,-0.04029 0.35501,-0.0626c0.02221,-0.17728 0.04378,-0.35593 0.06366,-0.53644c0.03997,-0.36284 0.33771,-0.72738 0.21976,-1.07285c-0.3828,-1.12132 -1.42508,-1.89857 -2.0355,-2.91411l-0.63621,-1.06039c-0.09103,-0.04518 -0.178,-0.10229 -0.25868,-0.17145zM306.57835,259.28298c0.74225,0.12965 1.47628,0.29933 2.20766,0.4819c-0.26395,-0.52928 -0.55524,-1.03422 -0.88534,-1.50008c-0.17666,-0.2493 -1.24358,-1.50531 -1.5155,-1.61803c-0.38615,-0.16007 -0.7775,-0.20653 -1.16756,-0.19123c-0.08971,0.58052 -0.16519,1.11822 -0.1829,1.55486c-0.01536,0.3791 -0.50593,0.87676 -0.21318,1.11808c0.45359,0.37396 1.17771,0.05335 1.7568,0.1545zM314.7994,263.76925c-0.01104,-0.79407 -1.19645,-1.05374 -2.16284,-1.09782c0.23142,0.66094 0.4527,1.28503 0.67727,1.83952c0,0 0.00778,0.01918 0.01885,0.05361c0.20966,0.03875 0.41218,0.13165 0.5857,0.28039c0.03033,0.026 0.05913,0.05313 0.08633,0.0813c0.04639,0.03249 0.07199,0.05443 0.07199,0.05443l0.27758,0.25518c0.23338,-0.47535 0.45231,-0.95068 0.44512,-1.4666z" fill="#000000" stroke="none" stroke-width="0.5"/><g stroke="none" stroke-width="0"><path d="M315.41073,269.5123l-35.46459,-30.39977l2.84998,-3.32481l35.4646,30.39975z" fill="url(#color-3)"/><path d="M285.05752,251.73361l-1.89989,-1.62855l10.99278,-12.82426l1.8999,1.62856z" fill="url(#color-4)"/><path d="M311.70178,252.05094l1.89989,1.62856l-10.99277,12.82425l-1.89989,-1.62857z" data-paper-data="{&quot;index&quot;:null}" fill="url(#color-5)"/><path d="M314.70983,258.47459l-10.585,-12.64384l-14.43019,-8.79885l2.17141,-2.53318l14.27188,8.66313l10.74332,12.77955z" fill="url(#color-6)"/><path d="M305.09681,270.00964l-14.27188,-8.66313l-10.74334,-12.77956l2.17141,-2.53318l10.90165,12.91526l14.11354,8.52742z" data-paper-data="{&quot;index&quot;:null}" fill="url(#color-7)"/><path d="M313.57118,264.88458c1.19332,-1.39212 3.2892,-1.55329 4.68131,-0.35998c1.39212,1.19332 1.5533,3.28921 0.36,4.68132c-1.19332,1.39212 -3.28921,1.55329 -4.68132,0.35998c-1.39212,-1.19331 -1.55329,-3.2892 -0.35998,-4.68131z" fill="#000000"/></g><path d="M286.296,269.14464c-9.02362,-7.47159 -17.20284,-11.61201 -3.46406,-29.39786c12.44987,-16.11729 20.18972,-9.81239 29.2133,-2.34079c9.0236,7.47159 16.06465,13.8261 3.46407,29.39785c-13.24782,16.37162 -20.18971,9.81241 -29.2133,2.3408z" fill="url(#color-8)" stroke="#000000" stroke-width="0"/></g><g data-paper-data="{&quot;index&quot;:null}" stroke-linecap="butt"><path d="M287.26701,376.22527c25.20457,-0.47049 25.48533,7.43325 25.69865,16.7087c0.12114,5.2675 0.06773,9.96269 -4.5453,13.0559c-0.57377,-0.32903 -1.14315,-0.67092 -1.7777,-0.82344c-1.93302,-0.46463 -4.37501,0.37424 -6.3136,0.47602c-2.1259,0.11162 -4.3074,-0.00155 -6.43773,-0.00155c-3.49795,0 -7.49808,-0.79063 -10.95023,-0.23386c-1.46185,0.23577 -2.50273,0.77098 -4.06339,0.50641c-1.8333,-0.31078 -3.78156,-1.37061 -5.65871,-1.52014c-1.64648,-0.13115 -3.89409,0.74159 -5.53317,1.01459c0,0 -0.63108,0.10518 -0.91502,0.61653c-4.44639,-3.0679 -4.31037,-7.72123 -4.42991,-12.9185c-0.21334,-9.27545 -2.88781,-16.36146 24.9261,-16.88067z" fill="#000000" stroke="#000000" stroke-width="0"/><g stroke="none"><path d="M290.2584,412.39967c-0.5181,0.14575 -0.90938,0.06538 -1.20012,-0.10395c-0.06665,0.03448 -0.13325,0.06329 -0.19776,0.08734c-0.17386,0.07271 -0.36377,0.11534 -0.56342,0.12118c-0.40472,0.01184 -0.77833,-0.12957 -1.06514,-0.37169l-0.79622,-0.27783c-0.65868,-1.0014 -2.09002,-1.32547 -2.73264,-2.33723c-0.43294,-0.68165 -0.24923,-1.5976 -0.30641,-2.40308c-0.16261,-2.29114 0.7192,-3.84821 2.01415,-5.14471c-0.59483,-1.23081 -1.1864,-2.42249 -1.64038,-3.53314c0,0 -0.459,-1.12299 0.41127,-1.80323c-0.02793,-0.11018 -0.04429,-0.2251 -0.04775,-0.34343c-0.01456,-0.49716 0.20216,-0.94739 0.55275,-1.24746c0.10046,-0.38892 0.34574,-0.72122 0.67642,-0.93394c0.12754,-0.21125 0.25623,-0.33796 0.25623,-0.33796c0.43829,-0.43154 0.8923,-0.87854 1.3559,-1.33497c-1.15584,-0.81438 -2.22593,-0.94504 -3.19254,-2.93162c-1.49764,-3.07797 -0.279,-9.32355 1.96339,-11.8768c-0.40575,-0.30995 -0.79902,-0.64629 -1.176,-1.02582c-0.27562,-0.27746 -0.62519,-0.52304 -0.96614,-0.7739c1.43017,-0.27398 2.63694,-0.85023 3.94696,-0.99724c0.2558,0.15722 0.53017,0.3187 0.81504,0.48411c0.13328,-0.1524 0.2565,-0.31328 0.36578,-0.48504c0.59223,0.07017 1.22009,0.25567 1.90841,0.61208c0,0 0.15917,0.07958 0.38741,0.11863c0.10348,0.27754 0.30276,0.5084 0.55761,0.6524c-0.15356,0.25712 -0.32771,0.50246 -0.51657,0.73773c0.74617,0.51038 1.3857,1.04322 1.75485,1.5924c0.99528,1.48069 1.04702,3.41299 1.66192,5.0878l0.57272,1.56416c0,0 0.16165,0.44149 0.06779,0.93102c0.02987,0.11396 0.0474,0.23307 0.05098,0.35588c0.00378,0.12901 -0.00802,0.25487 -0.03368,0.37575c0.90579,1.07996 -0.13542,2.10511 -0.13542,2.10511c-1.11302,1.09585 -2.22606,2.19172 -3.33908,3.28757c1.08822,1.29826 1.11935,2.92747 1.19135,5.10227l0.0231,0.7898c0,0 0.00638,0.21856 -0.06687,0.49542c0.46688,0.99016 -0.43517,1.78769 -0.43517,1.78769c-0.83895,0.7367 -1.61651,1.54982 -2.51683,2.21009c-0.19872,0.14573 -0.38843,0.27915 -0.56915,0.40374c0.94798,2.21809 1.72386,4.48746 1.8208,6.74812l0.23569,0.66362c0,0 0.42792,1.52119 -1.09327,1.94912zM292.01773,386.57379c-0.00392,-0.13417 0.00898,-0.26492 0.03683,-0.39022l-0.537,-1.46659c-0.5134,-1.40568 -0.44995,-3.04658 -1.24794,-4.31256c-0.24582,-0.39004 -0.84028,-0.38678 -1.22851,-0.63547c-0.19314,-0.12373 -0.38577,-0.24433 -0.57758,-0.36316c-0.11751,0.10064 -0.23226,0.20026 -0.34323,0.29913c-1.65718,1.47657 -2.20261,6.51561 -1.43384,8.55134c0.29356,0.77736 1.41383,0.87389 2.10787,1.3308c0.21159,0.13931 0.38538,0.32197 0.54539,0.52049c0.97604,-0.96097 1.94967,-1.9196 2.86907,-2.82481c-0.11511,-0.21124 -0.18354,-0.45203 -0.19105,-0.70896zM289.76128,398.50688c-0.03407,-0.16193 -0.03731,-0.27261 -0.03731,-0.27261l-0.0231,-0.78978c-0.03212,-1.30048 0.15648,-2.27322 -0.26068,-3.00062c-0.39625,0.39014 -0.79252,0.78029 -1.18877,1.17043l-0.41475,0.40836c0,0 -0.08868,0.08732 -0.24079,0.18807c-0.09144,0.16291 -0.21094,0.30815 -0.3522,0.42905c-0.07872,0.30469 -0.24631,0.57464 -0.47421,0.77957c0.34191,0.82364 0.72562,1.66342 1.11986,2.51564c0.62861,-0.46458 1.26638,-0.93028 1.87196,-1.4281zM286.55572,407.02197c-0.01717,0.26135 -0.39289,0.56477 -0.21397,0.75604c0.30832,0.32961 0.94865,0.10801 1.29401,0.39857c0.05829,0.04905 0.11406,0.10048 0.16767,0.15395c-0.17913,-0.99699 -0.50189,-2.0143 -0.89901,-3.0303c-0.18453,0.43987 -0.30049,0.98824 -0.34869,1.72175z" data-paper-data="{&quot;index&quot;:null}" fill="#000000" stroke-width="0.5"/><path d="M284.86752,412.77494l-0.39877,-39.60654l5.53071,-0.0251l0.39874,39.60655z" fill="#000000" stroke-width="0"/><path d="M287.75534,407.18749c2.31575,-0.01565 4.20572,1.84892 4.22137,4.16467c0.01565,2.31575 -1.84894,4.20572 -4.16468,4.22137c-2.31575,0.01565 -4.20572,-1.84894 -4.22137,-4.16469c-0.01566,-2.31574 1.84894,-4.20569 4.16468,-4.22135z" fill="#000000" stroke-width="0"/><path d="M282.70568,406.56119l-0.05388,-2.99268l9.77606,-0.17601l0.05388,2.99265z" fill="#000000" stroke-width="0"/><path d="M282.58117,399.64471l-0.05388,-2.99266l9.77607,-0.17601l0.05388,2.99266z" fill="url(#color-9)" stroke-width="0"/><path d="M282.45666,392.72838l-0.05388,-2.99266l9.77605,-0.17602l0.05388,2.99266z" fill="url(#color-10)" stroke-width="0"/><path d="M282.33212,385.81195l-0.05388,-2.99267l9.77605,-0.17601l0.05388,2.99267z" fill="url(#color-11)" stroke-width="0"/></g><path d="M287.26701,376.42528c25.20457,-0.4705 25.48533,7.43324 25.69865,16.70869c0.07646,3.32445 0.08338,6.42093 -1.08157,9.03061c-0.97277,-0.58779 -1.96383,-1.0841 -3.00638,-1.25113c-2.46167,-0.39438 -3.1914,1.82001 -5.59999,1.48491c-2.37256,-0.33009 -3.98457,-1.77227 -6.2833,-2.0032c-2.85804,-0.28713 -5.52264,0.49574 -8.3531,0.49574c-1.61573,0 -5.21169,0.74502 -6.53504,-0.27534c-0.99991,-0.77098 -2.12931,-1.90163 -3.37792,-1.71399c-3.0836,0.46342 -4.69512,2.65221 -7.99843,2.49248c-2.80342,-0.13556 -1.95394,-3.90839 -5.3801,-2.62977c-0.61634,0.23001 -0.8325,1.02506 -1.31799,1.46899c-0.29983,0.27417 -0.64898,0.46858 -1.0233,0.62334c-0.61249,-2.26952 -0.60521,-4.83589 -0.66764,-7.55067c-0.21334,-9.27545 -2.88781,-16.36145 24.9261,-16.88066z" fill="url(#color-12)" stroke="#000000" stroke-width="0"/></g><g data-paper-data="{&quot;index&quot;:null}" stroke-linecap="butt"><path d="M257.28821,361.63486c-2.62554,-8.89865 -7.05588,-15.04165 19.65958,-22.79843c24.20916,-7.02908 26.54198,0.52777 29.16751,9.42642c2.62554,8.89865 4.26564,16.22537 -19.65954,22.79843c-25.15417,6.91071 -26.54199,-0.52777 -29.16753,-9.42642z" fill="#000000" stroke="#000000" stroke-width="0"/><g stroke="none"><path d="M289.27207,372.97805c-0.46214,0.27585 -0.86083,0.30034 -1.18568,0.21271c-0.05536,0.05066 -0.11213,0.09585 -0.16813,0.1359c-0.14886,0.11556 -0.32108,0.20624 -0.51229,0.26396c-0.38762,0.11701 -0.78518,0.07796 -1.12522,-0.08096l-0.84113,-0.06051c-0.8971,-0.79491 -2.36342,-0.73437 -3.24772,-1.54347c-0.59576,-0.5451 -0.65734,-1.47726 -0.92266,-2.23994c-0.75464,-2.16939 -0.30955,-3.90259 0.60236,-5.492c-0.89531,-1.03303 -1.77725,-2.02912 -2.50524,-2.9829c0,0 -0.73605,-0.96438 -0.07336,-1.84808c-0.0557,-0.09908 -0.10147,-0.20576 -0.13568,-0.31909c-0.14375,-0.47615 -0.05198,-0.96732 0.2082,-1.34846c-0.00447,-0.40166 0.14563,-0.78643 0.40937,-1.07805c0.06802,-0.23721 0.1592,-0.3931 0.1592,-0.3931c0.31054,-0.53092 0.63222,-1.08089 0.96071,-1.64245c-1.32826,-0.48466 -2.39538,-0.33166 -3.84675,-1.99731c-2.2487,-2.58073 -2.70147,-8.92796 -1.20276,-11.97776c-0.47255,-0.19337 -0.93995,-0.41548 -1.40288,-0.68353c-0.33846,-0.19596 -0.73997,-0.34184 -1.13456,-0.49507c1.30917,-0.63757 2.32384,-1.50867 3.55015,-1.99232c0.28797,0.08506 0.59496,0.16937 0.91312,0.25474c0.08891,-0.18189 0.1659,-0.36934 0.22659,-0.56366c0.59003,-0.08675 1.24453,-0.07146 2.00199,0.09305c0,0 0.1744,0.03531 0.40494,0.01347c0.17229,0.24092 0.4249,0.41182 0.70849,0.48434c-0.08116,0.28827 -0.18529,0.57056 -0.30624,0.84694c0.85347,0.29806 1.60985,0.64562 2.10948,1.07949c1.34708,1.1698 1.90109,3.0217 2.93159,4.47812l0.96092,1.3606c0,0 0.27122,0.38404 0.30831,0.8811c0.05857,0.10222 0.10656,0.21263 0.14205,0.33026c0.03731,0.12355 0.05875,0.24813 0.06551,0.37152c1.15614,0.80628 0.41841,2.06755 0.41841,2.06755c-0.78862,1.34825 -1.57725,2.69653 -2.36587,4.04478c1.38922,0.96942 1.84427,2.53411 2.48109,4.61483l0.22831,0.75643c0,0 0.06317,0.20934 0.06469,0.49572c0.70901,0.83409 0.04623,1.83931 0.04623,1.83931c-0.61773,0.93003 -1.15625,1.91784 -1.85316,2.7901c-0.15383,0.19252 -0.30217,0.37081 -0.44413,0.53823c1.49378,1.894 2.83478,3.8824 3.51808,6.0395l0.40064,0.57916c0,0 0.80992,1.3569 -0.54697,2.16683zM284.23357,347.58739c-0.03879,-0.1285 -0.06044,-0.25809 -0.06624,-0.38631l-0.90098,-1.27573c-0.86231,-1.22307 -1.22909,-2.82372 -2.3297,-3.8377c-0.33906,-0.31241 -0.91209,-0.1542 -1.35175,-0.293c-0.21872,-0.06905 -0.43615,-0.13524 -0.65231,-0.19992c-0.08719,0.12781 -0.17199,0.25392 -0.25332,0.37831c-1.21463,1.85774 -0.42668,6.8646 0.84651,8.6293c0.48619,0.67388 1.59285,0.47482 2.38205,0.73486c0.2406,0.07929 0.45603,0.2103 0.66228,0.3602c0.69156,-1.18229 1.38141,-2.36172 2.03284,-3.47543c-0.16622,-0.1739 -0.29508,-0.38851 -0.36936,-0.63458zM285.16814,359.69592c-0.07513,-0.14744 -0.10713,-0.25344 -0.10713,-0.25344l-0.22832,-0.75641c-0.37025,-1.24707 -0.44193,-2.23533 -1.0344,-2.82872c-0.28076,0.48 -0.56154,0.96 -0.84229,1.44001l-0.29387,0.50241c0,0 -0.06283,0.10743 -0.18339,0.24437c-0.04577,0.18113 -0.12325,0.35251 -0.22808,0.50607c0.00349,0.31468 -0.08788,0.61901 -0.25443,0.87629c0.54491,0.70592 1.13441,1.41653 1.73731,2.1364c0.48564,-0.61247 0.97985,-1.22842 1.4346,-1.86697zM284.29483,368.75242c0.0516,0.25678 -0.23195,0.6477 -0.00934,0.78567c0.38362,0.23777 0.94398,-0.1432 1.35318,0.04721c0.06906,0.03215 0.13632,0.06725 0.20202,0.10489c-0.43301,-0.91575 -1.00997,-1.81365 -1.65837,-2.69087c-0.0634,0.47278 -0.03229,1.03241 0.11252,1.7531z" data-paper-data="{&quot;index&quot;:null}" fill="#000000" stroke-width="0.5"/><path d="M284.16579,374.7466l-10.71675,-38.13121l5.33267,-1.46697l10.71671,38.13121z" fill="url(#color-13)" stroke-width="0"/><path d="M282.57678,373.76084c-0.6192,-2.23147 0.68782,-4.5424 2.9193,-5.16159c2.23149,-0.61919 4.54242,0.6878 5.16161,2.91929c0.6192,2.23148 -0.68782,4.54241 -2.9193,5.1616c-2.23149,0.61919 -4.54242,-0.68782 -5.16161,-2.91931z" fill="#000000" stroke-width="0"/><path d="M280.45788,369.31186l-0.83268,-2.87499l9.39166,-2.72011l0.83268,2.87499z" fill="url(#color-14)" stroke-width="0"/><path d="M278.53344,362.6674l-0.83268,-2.87499l9.39167,-2.7201l0.83268,2.87499z" fill="url(#color-15)" stroke-width="0"/><path d="M276.60904,356.02299l-0.83268,-2.87499l9.39165,-2.72011l0.83268,2.87499z" fill="url(#color-16)" stroke-width="0"/><path d="M274.6846,349.37854l-0.83268,-2.875l9.39166,-2.7201l0.83268,2.875z" fill="url(#color-17)" stroke-width="0"/></g><path d="M276.99998,339.02952c24.20916,-7.02909 26.54198,0.52777 29.16751,9.42642c2.62553,8.89865 4.26562,16.22537 -19.65956,22.79843c-14.53249,3.99257 -21.13225,3.19567 -24.621,0.09478c0.41218,-0.81742 0.88509,-1.5855 1.40196,-2.08828c1.2209,-1.18762 2.83079,-1.72996 3.53195,-3.45621c1.29516,-3.18863 -1.77222,-4.02295 -2.47489,-6.49743c-0.85001,-2.99332 -1.94701,-6.09364 -5.34193,-6.60424c-0.36708,-0.31209 -0.86271,-0.31209 -0.86271,-0.31209c-0.62956,0 -1.82986,0 -2.73854,0c0.61028,-4.51312 5.32942,-8.63806 21.59721,-13.36138zM288.11045,341.16482c-2.1436,1.72142 -4.33242,3.95034 -6.64282,5.42317c-2.23923,1.42745 -4.54727,0.62207 -5.50865,3.64725c-1.22267,3.84739 4.91809,3.3584 3.74649,6.76039c-0.2919,0.8476 -1.17619,1.3532 -1.76051,2.03305c0.46346,2.33808 1.74047,4.38093 4.65971,3.84389c0.33771,-0.06213 2.39276,-1.27683 2.78666,-1.73166c0.11299,-0.13046 -0.03986,-0.64295 0.07322,-0.51256c0.5278,0.60856 0.88053,1.63387 1.67935,1.73783c2.30146,0.2995 6.39052,-2.12122 8.19492,-3.43796c0.50566,-0.369 1.18312,-0.64909 1.42055,-1.22829c1.82178,-4.44418 -1.97921,-7.70698 -5.12589,-9.81938c-0.77349,-2.22553 -0.46832,-4.23498 -0.01642,-6.4945l-0.35769,-1.30416c0,0 -0.55902,-1.11803 -1.67705,-0.55902c-0.73229,0.36615 -0.74513,0.97211 -0.66681,1.34667c-0.45163,0.01256 -0.80504,0.29528 -0.80504,0.29528z" fill="url(#color-18)" stroke="#000000" stroke-width="0"/><path d="M288.11834,341.11544c0,0 0.35689,-0.28204 0.80852,-0.2946c-0.07832,-0.37456 -0.06409,-0.98018 0.6682,-1.34633c1.11803,-0.55901 1.68399,0.56141 1.68399,0.56141l0.36114,1.3058c-0.4519,2.25952 -0.73811,4.28631 0.03538,6.51184c3.14668,2.1124 6.94773,5.42909 5.12595,9.87327c-0.23743,0.5792 -0.9195,0.86543 -1.42516,1.23443c-1.8044,1.31674 -5.92819,3.75435 -8.22965,3.45485c-0.79882,-0.10396 -1.15987,-1.1295 -1.68767,-1.73806c-0.11308,-0.13039 0.03969,0.38209 -0.0733,0.51255c-0.3939,0.45483 -2.45919,1.66727 -2.7969,1.7294c-2.91924,0.53704 -4.21725,-1.51943 -4.68071,-3.85751c0.58432,-0.67985 1.46747,-1.18673 1.75937,-2.03433c1.1716,-3.40199 -4.98099,-2.9499 -3.75832,-6.79729c0.96138,-3.02518 3.28218,-2.249 5.52141,-3.67645c2.3104,-1.47283 4.54415,-3.71755 6.68775,-5.43897z" data-paper-data="{&quot;noHover&quot;:false,&quot;origItem&quot;:[&quot;Path&quot;,{&quot;applyMatrix&quot;:true,&quot;segments&quot;:[[[288.11045,240.56422],[0,0],[-2.1436,1.72142]],[[281.46763,245.98739],[2.3104,-1.47283],[-2.23923,1.42745]],[[275.95898,249.63464],[0.96138,-3.02518],[-1.22267,3.84739]],[[279.70547,256.39503],[1.1716,-3.40199],[-0.2919,0.8476]],[[277.94496,258.42808],[0.58432,-0.67985],[0.46346,2.33808]],[[282.60467,262.27197],[-2.91924,0.53704],[0.33771,-0.06213]],[[285.39133,260.54031],[-0.3939,0.45483],[0.11299,-0.13046]],[[285.46455,260.02775],[-0.11308,-0.13039],[0.5278,0.60856]],[[287.1439,261.76558],[-0.79882,-0.10396],[2.30146,0.2995]],[[295.33882,258.32762],[-1.8044,1.31674],[0.50566,-0.369]],[[296.75937,257.09933],[-0.23743,0.5792],[1.82178,-4.44418]],[[291.63347,247.27995],[3.14668,2.1124],[-0.77349,-2.22553]],[[291.61706,240.78545],[-0.4519,2.25952],[0,0]],[291.25937,239.48129],[[289.58232,238.92227],[1.11803,-0.55901],[-0.73229,0.36615]],[[288.91551,240.26894],[-0.07832,-0.37456],[-0.45163,0.01256]],[288.11046,240.56422]],&quot;closed&quot;:true,&quot;fillColor&quot;:[0,0,0,1]}]}" fill="#000000" stroke="none" stroke-width="0.5"/></g><g fill="#000000" stroke="none" stroke-width="0" stroke-linecap="butt"><path d="M277.36,419.2649v-5.94008h20.79028v5.94008z"/><path d="M275.87498,428.31001v-10.26014h28.89039l6.48009,10.26014z"/><path d="M273.53496,433.16664v-6.42609h41.95856v6.42608z"/><path d="M308.65342,433.14312v-6.42609h11.52915v6.42608z"/><path d="M304.73837,433.14312v-6.42609h11.52915v6.42608z"/><path d="M299.74331,433.14312v-6.42609h11.52915v6.42608z"/></g><g fill="#000000" stroke="none" stroke-linecap="butt"><path d="M192.48706,413.39967c-1.52119,-0.42793 -1.09327,-1.94912 -1.09327,-1.94912l0.23569,-0.66362c0.09694,-2.26066 0.87282,-4.53003 1.8208,-6.74812c-0.18072,-0.12459 -0.37043,-0.25801 -0.56915,-0.40374c-0.90032,-0.66027 -1.67788,-1.47339 -2.51683,-2.21009c0,0 -0.90205,-0.79753 -0.43517,-1.78769c-0.07325,-0.27686 -0.06687,-0.49542 -0.06687,-0.49542l0.0231,-0.7898c0.072,-2.1748 0.10313,-3.80401 1.19135,-5.10227c-1.11302,-1.09585 -2.22606,-2.19172 -3.33908,-3.28757c0,0 -1.04121,-1.02515 -0.13542,-2.10511c-0.02566,-0.12088 -0.03746,-0.24674 -0.03368,-0.37575c0.00358,-0.12281 0.02111,-0.24192 0.05098,-0.35588c-0.09386,-0.48953 0.06779,-0.93102 0.06779,-0.93102l0.57272,-1.56416c0.6149,-1.67481 0.66664,-3.60711 1.66192,-5.0878c0.36915,-0.54918 1.00868,-1.08202 1.75485,-1.5924c-0.18886,-0.23527 -0.36301,-0.48061 -0.51657,-0.73773c0.25485,-0.144 0.45413,-0.37486 0.55761,-0.6524c0.22824,-0.03905 0.38741,-0.11863 0.38741,-0.11863c0.68832,-0.35641 1.31618,-0.54191 1.90841,-0.61208c0.10928,0.17176 0.2325,0.33264 0.36578,0.48504c0.28487,-0.16541 0.55924,-0.32689 0.81504,-0.48411c1.31002,0.14701 2.51679,0.72326 3.94696,0.99724c-0.34095,0.25086 -0.69052,0.49644 -0.96614,0.7739c-0.37698,0.37953 -0.77025,0.71587 -1.176,1.02582c2.24239,2.55325 3.46103,8.79883 1.96339,11.8768c-0.96661,1.98658 -2.0367,2.11724 -3.19254,2.93162c0.4636,0.45643 0.91761,0.90343 1.3559,1.33497c0,0 0.12869,0.12671 0.25623,0.33796c0.33068,0.21272 0.57596,0.54502 0.67642,0.93394c0.35059,0.30007 0.56731,0.7503 0.55275,1.24746c-0.00346,0.11833 -0.01982,0.23325 -0.04775,0.34343c0.87027,0.68024 0.41127,1.80323 0.41127,1.80323c-0.45398,1.11065 -1.04555,2.30233 -1.64038,3.53314c1.29495,1.2965 2.17676,2.85357 2.01415,5.14471c-0.05718,0.80548 0.12653,1.72143 -0.30641,2.40308c-0.64262,1.01176 -2.07396,1.33583 -2.73264,2.33723l-0.79622,0.27783c-0.28681,0.24212 -0.66042,0.38353 -1.06514,0.37169c-0.19965,-0.00584 -0.38956,-0.04847 -0.56342,-0.12118c-0.06451,-0.02405 -0.13111,-0.05286 -0.19776,-0.08734c-0.29074,0.16933 -0.68202,0.2497 -1.20012,0.10395zM190.72768,387.57379c-0.00751,0.25693 -0.07594,0.49772 -0.19105,0.70896c0.9194,0.90521 1.89303,1.86384 2.86907,2.82481c0.16001,-0.19852 0.3338,-0.38118 0.54539,-0.52049c0.69404,-0.45691 1.81431,-0.55344 2.10787,-1.3308c0.76877,-2.03573 0.22334,-7.07477 -1.43384,-8.55134c-0.11097,-0.09887 -0.22572,-0.19849 -0.34323,-0.29913c-0.19181,0.11883 -0.38444,0.23943 -0.57758,0.36316c-0.38823,0.24869 -0.98269,0.24543 -1.22851,0.63547c-0.79799,1.26598 -0.73454,2.90688 -1.24794,4.31256l-0.537,1.46659c0.02785,0.1253 0.04075,0.25605 0.03683,0.39022zM192.98412,399.50688c0.60558,0.49782 1.24335,0.96352 1.87196,1.4281c0.39424,-0.85222 0.77795,-1.692 1.11986,-2.51564c-0.2279,-0.20493 -0.39549,-0.47488 -0.47421,-0.77957c-0.14126,-0.1209 -0.26076,-0.26614 -0.3522,-0.42905c-0.15211,-0.10075 -0.24079,-0.18807 -0.24079,-0.18807l-0.41475,-0.40836c-0.39625,-0.39014 -0.79252,-0.78029 -1.18877,-1.17043c-0.41716,0.7274 -0.22856,1.70014 -0.26068,3.00062l-0.0231,0.78978c0,0 -0.00324,0.11068 -0.03731,0.27261zM196.18968,408.02201c-0.0482,-0.73351 -0.16416,-1.28188 -0.34869,-1.72175c-0.39712,1.016 -0.71988,2.03331 -0.89901,3.0303c0.05361,-0.05347 0.10938,-0.1049 0.16767,-0.15395c0.34536,-0.29056 0.98569,-0.06896 1.29401,-0.39857c0.17892,-0.19127 -0.1968,-0.49469 -0.21397,-0.75604z" data-paper-data="{&quot;index&quot;:null}" stroke-width="0.5"/><path d="M192.34722,413.74986l0.39874,-39.60655l5.53071,0.0251l-0.39877,39.60654z" stroke-width="0"/><path d="M199.15475,412.40885c-0.01565,2.31575 -1.90562,4.18034 -4.22137,4.16469c-2.31574,-0.01565 -4.18033,-1.90562 -4.16468,-4.22137c0.01565,-2.31575 1.90562,-4.18032 4.22137,-4.16467c2.31574,0.01566 4.18034,1.90561 4.16468,4.22135z" stroke-width="0"/><path d="M190.26366,407.38515l0.05388,-2.99265l9.77606,0.17601l-0.05388,2.99268z" stroke-width="0"/><path d="M190.38818,400.46874l0.05388,-2.99266l9.77607,0.17601l-0.05388,2.99266z" stroke-width="0"/><path d="M190.51271,393.55236l0.05388,-2.99266l9.77605,0.17602l-0.05388,2.99266z" stroke-width="0"/><path d="M190.63724,386.63598l0.05388,-2.99267l9.77605,0.17601l-0.05388,2.99267z" stroke-width="0"/></g><g stroke-linecap="butt"><path d="M225.45717,362.63487c-2.62554,8.89865 -4.01336,16.33713 -29.16753,9.42642c-23.92518,-6.57306 -22.28508,-13.89978 -19.65954,-22.79843c2.62553,-8.89865 4.95835,-16.4555 29.16751,-9.42642c26.71546,7.75678 22.28512,13.89978 19.65958,22.79843z" fill="#525252" stroke="#000000" stroke-width="0"/><g stroke="none"><path d="M193.47334,373.97802c-1.35689,-0.80993 -0.54697,-2.16683 -0.54697,-2.16683l0.40064,-0.57916c0.6833,-2.1571 2.0243,-4.1455 3.51808,-6.0395c-0.14196,-0.16742 -0.2903,-0.34571 -0.44413,-0.53823c-0.69691,-0.87226 -1.23543,-1.86007 -1.85316,-2.7901c0,0 -0.66278,-1.00522 0.04623,-1.83931c0.00152,-0.28638 0.06469,-0.49572 0.06469,-0.49572l0.22831,-0.75643c0.63682,-2.08072 1.09187,-3.64541 2.48109,-4.61483c-0.78862,-1.34825 -1.57725,-2.69653 -2.36587,-4.04478c0,0 -0.73773,-1.26127 0.41841,-2.06755c0.00676,-0.12339 0.0282,-0.24797 0.06551,-0.37152c0.03549,-0.11763 0.08348,-0.22804 0.14205,-0.33026c0.03709,-0.49706 0.30831,-0.8811 0.30831,-0.8811l0.96092,-1.3606c1.0305,-1.45642 1.58451,-3.30832 2.93159,-4.47812c0.49963,-0.43387 1.25601,-0.78143 2.10948,-1.07949c-0.12095,-0.27638 -0.22508,-0.55867 -0.30624,-0.84694c0.28359,-0.07252 0.5362,-0.24342 0.70849,-0.48434c0.23054,0.02184 0.40494,-0.01347 0.40494,-0.01347c0.75746,-0.16451 1.41196,-0.1798 2.00199,-0.09305c0.06069,0.19432 0.13768,0.38177 0.22659,0.56366c0.31816,-0.08537 0.62515,-0.16968 0.91312,-0.25474c1.22631,0.48365 2.24098,1.35475 3.55015,1.99232c-0.39459,0.15323 -0.7961,0.29911 -1.13456,0.49507c-0.46293,0.26805 -0.93033,0.49016 -1.40288,0.68353c1.49871,3.0498 1.04594,9.39703 -1.20276,11.97776c-1.45137,1.66565 -2.51849,1.51265 -3.84675,1.99731c0.32849,0.56156 0.65017,1.11153 0.96071,1.64245c0,0 0.09118,0.15589 0.1592,0.3931c0.26374,0.29162 0.41384,0.67639 0.40937,1.07805c0.26018,0.38114 0.35195,0.87231 0.2082,1.34846c-0.03421,0.11333 -0.07998,0.22001 -0.13568,0.31909c0.66269,0.8837 -0.07336,1.84808 -0.07336,1.84808c-0.72799,0.95378 -1.60993,1.94987 -2.50524,2.9829c0.91191,1.58941 1.357,3.32261 0.60236,5.492c-0.26532,0.76268 -0.3269,1.69484 -0.92266,2.23994c-0.8843,0.8091 -2.35062,0.74856 -3.24772,1.54347l-0.84113,0.06051c-0.34004,0.15892 -0.7376,0.19797 -1.12522,0.08096c-0.19121,-0.05772 -0.36343,-0.1484 -0.51229,-0.26396c-0.056,-0.04005 -0.11277,-0.08524 -0.16813,-0.1359c-0.32485,0.08763 -0.72354,0.06314 -1.18568,-0.21271zM198.51182,348.58739c-0.07428,0.24607 -0.20314,0.46068 -0.36936,0.63458c0.65143,1.11371 1.34128,2.29314 2.03284,3.47543c0.20625,-0.1499 0.42168,-0.28091 0.66228,-0.3602c0.7892,-0.26004 1.89586,-0.06098 2.38205,-0.73486c1.27319,-1.7647 2.06114,-6.77156 0.84651,-8.6293c-0.08133,-0.12439 -0.16613,-0.2505 -0.25332,-0.37831c-0.21616,0.06468 -0.43359,0.13087 -0.65231,0.19992c-0.43966,0.1388 -1.01269,-0.01941 -1.35175,0.293c-1.10061,1.01398 -1.46739,2.61463 -2.3297,3.8377l-0.90098,1.27573c-0.0058,0.12822 -0.02745,0.25781 -0.06624,0.38631zM197.57727,360.69594c0.45475,0.63855 0.94896,1.2545 1.4346,1.86697c0.6029,-0.71987 1.1924,-1.43048 1.73731,-2.1364c-0.16655,-0.25728 -0.25792,-0.56161 -0.25443,-0.87629c-0.10483,-0.15356 -0.18231,-0.32494 -0.22808,-0.50607c-0.12056,-0.13694 -0.18339,-0.24437 -0.18339,-0.24437l-0.29387,-0.50241c-0.28075,-0.48001 -0.56153,-0.96001 -0.84229,-1.44001c-0.59247,0.59339 -0.66415,1.58165 -1.0344,2.82872l-0.22832,0.75641c0,0 -0.032,0.106 -0.10713,0.25344zM198.45058,369.75242c0.14481,-0.72069 0.17592,-1.28032 0.11252,-1.7531c-0.6484,0.87722 -1.22536,1.77512 -1.65837,2.69087c0.0657,-0.03764 0.13296,-0.07274 0.20202,-0.10489c0.4092,-0.19041 0.96956,0.19056 1.35318,-0.04721c0.22261,-0.13797 -0.06094,-0.52889 -0.00934,-0.78567z" data-paper-data="{&quot;index&quot;:null}" fill="#000000" stroke-width="0.5"/><path d="M193.24699,374.27962l10.71671,-38.13121l5.33267,1.46697l-10.71675,38.13121z" fill="url(#color-19)" stroke-width="0"/><path d="M200.16864,374.76084c-0.61919,2.23149 -2.93012,3.5385 -5.16161,2.91931c-2.23148,-0.61919 -3.5385,-2.93012 -2.9193,-5.1616c0.61919,-2.23149 2.93012,-3.53848 5.16161,-2.91929c2.23148,0.61919 3.5385,2.93012 2.9193,5.16159z" fill="#000000" stroke-width="0"/><path d="M192.89587,367.59175l0.83268,-2.87499l9.39166,2.72011l-0.83268,2.87499z" fill="url(#color-20)" stroke-width="0"/><path d="M194.8203,360.9473l0.83268,-2.87499l9.39167,2.7201l-0.83268,2.87499z" fill="url(#color-21)" stroke-width="0"/><path d="M196.74473,354.30288l0.83268,-2.87499l9.39165,2.72011l-0.83268,2.87499z" fill="url(#color-22)" stroke-width="0"/><path d="M198.66915,347.65844l0.83268,-2.875l9.39166,2.7201l-0.83268,2.875z" fill="url(#color-23)" stroke-width="0"/></g><path d="M225.40498,362.82795c-2.62554,8.89865 -4.01336,16.33713 -29.16753,9.42642c-23.92518,-6.57306 -22.28509,-13.89978 -19.65956,-22.79843c2.62553,-8.89865 4.95835,-16.45551 29.16751,-9.42642c26.71546,7.75678 22.28512,13.89978 19.65958,22.79843z" fill="url(#color-24)" stroke="#000000" stroke-width="0"/></g><g><g stroke="none" stroke-width="0" stroke-linecap="butt"><path d="M184.59513,420.2649v-5.94008h20.79028v5.94008z" fill="url(#color-25)"/><path d="M171.49996,429.31001l6.48009,-10.26014h28.89039v10.26014z" fill="url(#color-26)"/><path d="M167.25188,434.16664v-6.42608h41.95856v6.42609z" fill="url(#color-27)"/><path d="M162.56285,434.14309v-6.42608h11.52915v6.42609z" fill="url(#color-28)"/><path d="M166.47788,434.14309v-6.42608h11.52915v6.42609z" fill="url(#color-29)"/><path d="M171.47296,434.14309v-6.42608h11.52915v6.42609z" fill="url(#color-30)"/></g><path d="M136.27922,435.27084c0,0 33.00197,-24.34923 42.61679,-24.34923c11.37314,0 27.55361,0.0329 34.54969,0.04841c2.15769,0.00479 3.44177,1.17492 3.44177,2.3533c0,3.60471 0,21.94752 0,21.94752z" data-paper-data="{&quot;index&quot;:null}" fill="url(#color-31)" stroke="#000000" stroke-width="0" stroke-linecap="butt"/><path d="M171.61434,421.82227l-18.21967,12.69856" data-paper-data="{&quot;index&quot;:null}" fill="none" stroke="#000000" stroke-width="1.5" stroke-linecap="round"/><path d="M186.52135,422.72649l-14.90701,11.04223" data-paper-data="{&quot;index&quot;:null}" fill="none" stroke="#000000" stroke-width="1.5" stroke-linecap="round"/></g><g fill="#000000" stroke="none" stroke-linecap="butt"><path d="M157.38034,262.76611c0.38018,0.1925 0.56529,0.44891 0.64413,0.7034c0.05733,0.01559 0.1116,0.03446 0.1621,0.055c0.14033,0.05072 0.27389,0.12758 0.39345,0.2311c0.24233,0.20987 0.38446,0.49242 0.42202,0.78722l0.31549,0.58848c-0.15225,0.93671 0.50879,1.89229 0.34161,2.82647c-0.11263,0.62936 -0.71033,1.06508 -1.10842,1.56539c-1.13231,1.42309 -2.48047,1.85876 -3.92997,1.92119c-0.31236,1.03628 -0.60566,2.04802 -0.93583,2.93881c0,0 -0.33382,0.90067 -1.20563,0.8312c-0.04273,0.07919 -0.09472,0.15498 -0.15609,0.22583c-0.25779,0.2977 -0.62532,0.44416 -0.99046,0.43135c-0.26689,0.17298 -0.58791,0.23538 -0.89466,0.1823c-0.18751,0.05487 -0.33043,0.05984 -0.33043,0.05984c-0.4867,0.01688 -0.99085,0.03436 -1.50565,0.05223c0.23783,1.09395 0.7918,1.74328 0.29144,3.41941c-0.77525,2.59694 -4.831,5.58613 -7.50609,5.87396c0.07058,0.39806 0.11977,0.8048 0.13633,1.22803c0.03372,0.86186 0.53455,1.88672 0.03151,2.58734c-0.63565,0.88531 -1.93782,1.00017 -2.93047,1.45022c-1.24065,0.56249 -2.51997,1.03442 -3.79061,1.52672c-0.19696,0.99427 -0.37438,1.98218 -0.59625,2.90335c0,0 -0.17445,0.72427 -0.81299,0.92045c-0.04309,0.19769 -0.13485,0.38773 -0.27664,0.55145c-0.02616,0.0302 -0.05344,0.05884 -0.08174,0.08592c-0.03272,0.04623 -0.05478,0.07172 -0.05478,0.07172l-1.03256,1.1412c-0.51489,0.22579 -1.02976,0.45161 -1.54465,0.67739c0,0 -1.15556,0.47967 -1.63525,-0.67591c-0.20749,-0.49989 -0.109,-0.87327 0.0696,-1.13608c-0.50226,-0.84884 -1.16569,-1.65757 -1.14192,-2.61098c0.06706,-2.69152 2.73978,-3.9378 4.99889,-4.11815c0.59035,-2.58099 1.50454,-5.1775 3.52588,-6.46736c0.51043,-0.32571 1.08002,-0.50133 1.66938,-0.59127c-0.16175,-0.69727 -0.24928,-1.35049 -0.17038,-1.86845c0.21271,-1.39651 1.21747,-2.55095 1.75593,-3.8569l0.5038,-1.21885c0,0 0.14221,-0.34402 0.45913,-0.5792c0.04363,-0.08246 0.0972,-0.1613 0.16089,-0.23482c0.06689,-0.07725 0.14118,-0.14434 0.2209,-0.20107c0.05025,-1.11488 1.20647,-1.15497 1.20647,-1.15497c1.23595,-0.04288 2.47193,-0.08574 3.7079,-0.12862c0.06078,-1.33988 0.91523,-2.30658 2.03809,-3.61331l0.40954,-0.47292c0,0 0.11332,-0.13085 0.30434,-0.25308c0.25808,-0.82743 1.21124,-0.80936 1.21124,-0.80936c0.88377,0.01976 1.77269,-0.03792 2.65132,0.05928c0.19394,0.02146 0.37601,0.04526 0.54813,0.06941c0.63522,-1.80114 1.39827,-3.54 2.55254,-4.91015l0.21801,-0.51322c0,0 0.56521,-1.11623 1.68144,-0.55101zM156.65909,267.88504c0.14999,-0.14321 0.5316,-0.11888 0.52972,-0.32626c-0.00326,-0.35734 -0.49535,-0.57108 -0.5411,-0.92549c-0.00772,-0.05983 -0.01269,-0.11967 -0.0153,-0.17957c-0.42953,0.6773 -0.78618,1.44337 -1.09879,2.24851c0.3432,-0.15766 0.70451,-0.41529 1.12548,-0.81721zM150.2292,271.13345c-0.06686,0.11265 -0.12425,0.17894 -0.12425,0.17894l-0.40953,0.4729c-0.67781,0.77552 -1.30879,1.24175 -1.45512,1.88934c0.44003,-0.01526 0.88005,-0.03053 1.32008,-0.0458l0.46056,-0.01598c0,0 0.09849,-0.0034 0.24113,0.01932c0.14056,-0.04602 0.28804,-0.06673 0.43516,-0.06156c0.2091,-0.13551 0.45141,-0.20316 0.69407,-0.20059c0.24176,-0.66341 0.46781,-1.35862 0.69437,-2.06671c-0.61538,-0.0658 -1.23671,-0.13579 -1.85646,-0.16986zM142.52207,276.88327c-0.06957,0.08033 -0.14713,0.14966 -0.23048,0.20782l-0.47238,1.14282c-0.4535,1.09465 -1.36937,2.0175 -1.58212,3.18311c-0.06555,0.35912 0.28282,0.6756 0.37601,1.02855c0.04636,0.17559 0.0941,0.3491 0.14229,0.52113c0.12242,0.00425 0.24269,0.00763 0.36037,0.0094c1.75719,0.02658 4.77412,-2.61965 5.4162,-4.21847c0.24517,-0.61052 -0.35639,-1.26683 -0.51636,-1.90499c-0.04877,-0.19456 -0.05228,-0.39415 -0.03925,-0.5956c-1.08384,0.0376 -2.16502,0.07509 -3.18596,0.1105c-0.04602,0.18483 -0.13508,0.36189 -0.26832,0.51573zM137.69331,288.40235c0.55778,-0.18569 1.32133,0.0243 1.71464,-0.41263c0.25384,-0.28199 -0.30492,-0.7016 -0.37619,-1.07426c-0.08207,-0.42923 -0.23625,-0.94986 -0.41085,-1.51071c-0.38803,0.04256 -0.7682,0.14639 -1.12643,0.36181c-0.25225,0.15169 -1.1217,1.55169 -1.25955,1.82437c-0.25758,0.50956 -0.47096,1.05203 -0.65375,1.61453c0.69634,-0.28873 1.3972,-0.56509 2.11212,-0.8031zM130.22616,294.05514c0.0692,0.51132 0.35603,0.94903 0.65714,1.38463l0.23679,-0.29341c0,0 0.02208,-0.02549 0.06315,-0.06447c0.02275,-0.03188 0.04721,-0.06297 0.07336,-0.09316c0.14962,-0.17277 0.33617,-0.2946 0.53779,-0.36393c0.00585,-0.03569 0.0107,-0.05582 0.0107,-0.05582c0.14009,-0.5816 0.26664,-1.23157 0.39777,-1.91946c-0.94924,0.18651 -2.0832,0.61865 -1.97669,1.40562z" stroke-width="0.5"/><g stroke-width="0"><path d="M127.16055,296.9587l30.57857,-35.31054l3.31037,2.86675l-30.57858,35.31054z"/><path d="M145.09239,266.69572l1.63814,-1.89165l12.76854,11.05743l-1.63814,1.89162z"/><path d="M144.32518,293.06499l-1.63814,1.89165l-12.76854,-11.05742l1.63814,-1.89163z" data-paper-data="{&quot;index&quot;:null}"/><path d="M127.00951,286.62125l8.73512,-14.22791l12.83369,-10.67862l2.52218,2.18418l-12.97019,10.83626l-8.59863,14.07028z"/><path d="M138.22281,296.60772l12.69716,-10.52098l8.87166,-14.38554l2.52219,2.18418l-8.73514,14.22793l-12.83369,10.67862z" data-paper-data="{&quot;index&quot;:null}"/><path d="M131.94216,299.65964c-1.20032,1.38607 -3.297,1.53665 -4.68308,0.33633c-1.38607,-1.20032 -1.53664,-3.29699 -0.33631,-4.68307c1.20032,-1.38607 3.29699,-1.53665 4.68308,-0.33633c1.38607,1.20032 1.53665,3.297 0.33633,4.68308z"/></g></g><g stroke-linecap="butt"><path d="M190.05384,266.68578c-9.53181,6.81137 -16.92232,12.86061 -28.97305,-4.41117c-11.46197,-16.42794 -3.98709,-22.26595 5.54473,-29.07731c9.53181,-6.81137 17.70018,-12.55022 28.97305,4.41117c12.43992,18.71735 3.98711,22.26595 -5.54473,29.07731z" fill="#525252" stroke="#000000" stroke-width="0"/><path d="M195.04778,234.86446c0.32911,0.27068 0.45394,0.56127 0.47546,0.82681c0.05255,0.02771 0.10141,0.05795 0.14623,0.08898c0.12591,0.08008 0.23953,0.18417 0.33366,0.31125c0.19081,0.25761 0.26797,0.56435 0.24042,0.86024l0.17973,0.64307c-0.35263,0.88107 0.08441,1.95769 -0.28223,2.83301c-0.24702,0.58971 -0.92528,0.88478 -1.42278,1.28637c-1.41509,1.14229 -2.82578,1.27385 -4.25407,1.01905c-0.53059,0.94336 -1.03721,1.86692 -1.55347,2.66441c0,0 -0.52198,0.80634 -1.35773,0.54864c-0.05896,0.06799 -0.1262,0.13063 -0.20153,0.18641c-0.31645,0.2344 -0.70705,0.29729 -1.06064,0.20526c-0.29815,0.11069 -0.62505,0.10167 -0.91289,-0.01695c-0.19497,0.01271 -0.33553,-0.01357 -0.33553,-0.01357c-0.47869,-0.08953 -0.97454,-0.18228 -1.48088,-0.27697c-0.00616,1.11949 0.39308,1.87388 -0.46035,3.40078c-1.32229,2.36572 -5.93175,4.39975 -8.60531,4.09799c-0.01782,0.40387 -0.05842,0.81157 -0.13444,1.22824c-0.15481,0.84851 0.11076,1.95786 -0.5328,2.53208c-0.81323,0.72561 -2.10915,0.55406 -3.17598,0.77709c-1.33338,0.27876 -2.68478,0.4607 -4.03214,0.66442c-0.4088,0.9275 -0.79713,1.85305 -1.21433,2.70376c0,0 -0.32802,0.66888 -0.99396,0.72127c-0.08512,0.18356 -0.21607,0.34905 -0.39011,0.47796c-0.03211,0.02377 -0.06497,0.04579 -0.09849,0.06606c-0.042,0.03799 -0.06908,0.05808 -0.06908,0.05808l-1.25633,0.8889c-0.5517,0.10822 -1.1034,0.21646 -1.65512,0.32469c0,0 -1.23229,0.21645 -1.44876,-1.01586c-0.09363,-0.53308 0.08384,-0.87605 0.31537,-1.09364c-0.30531,-0.93786 -0.77665,-1.87167 -0.5458,-2.79702c0.6517,-2.61229 3.5317,-3.2465 5.77587,-2.93045c1.13836,-2.39042 2.59614,-4.72548 4.84991,-5.54409c0.56912,-0.20671 1.16329,-0.25405 1.75808,-0.21346c-0.00599,-0.71577 0.05086,-1.37237 0.24068,-1.8607c0.51177,-1.31665 1.74387,-2.22452 2.55386,-3.38182l0.75719,-1.07985c0,0 0.21373,-0.30478 0.57426,-0.46529c0.06055,-0.07098 0.13,-0.13626 0.20817,-0.19415c0.08211,-0.06082 0.16924,-0.11012 0.25939,-0.14812c0.29188,-1.07717 1.42907,-0.86446 1.42907,-0.86446c1.21562,0.22736 2.43126,0.45473 3.64689,0.6821c0.35116,-1.29448 1.39567,-2.05185 2.77619,-3.08263l0.50271,-0.37236c0,0 0.1391,-0.10303 0.35216,-0.18071c0.43211,-0.75134 1.35845,-0.52609 1.35845,-0.52609c0.85825,0.21178 1.73838,0.34912 2.57475,0.63534c0.18461,0.06319 0.35712,0.12608 0.51986,0.18714c1.01229,-1.61953 2.13576,-3.15045 3.56076,-4.23628l0.32455,-0.45341c0,0 0.79478,-0.96632 1.7611,-0.17154zM193.22888,239.70338c0.17758,-0.10709 0.54473,-0.00023 0.58807,-0.20304c0.07465,-0.34947 -0.35906,-0.66526 -0.32652,-1.02113c0.00549,-0.06008 0.01368,-0.11957 0.02418,-0.1786c-0.56675,0.56747 -1.0817,1.23747 -1.56217,1.9552c0.36929,-0.07913 0.77805,-0.25186 1.27647,-0.55244zM186.24581,241.47328c-0.0898,0.09538 -0.16024,0.14757 -0.16024,0.14757l-0.5027,0.37236c-0.83045,0.60927 -1.54783,0.92686 -1.83172,1.52703c0.43279,0.08095 0.86557,0.16189 1.29835,0.24284l0.45299,0.08472c0,0 0.09686,0.01813 0.23113,0.07138c0.14721,-0.0143 0.29567,-0.00239 0.43812,0.0347c0.23359,-0.08671 0.48483,-0.09995 0.72109,-0.04459c0.38046,-0.59483 0.7525,-1.2241 1.12785,-1.86584c-0.58626,-0.19825 -1.17744,-0.4019 -1.77488,-0.57015zM177.47134,245.40631c-0.08539,0.06325 -0.17619,0.11402 -0.27021,0.15263l-0.70996,1.01248c-0.68105,0.96959 -1.77593,1.67079 -2.23746,2.76207c-0.1422,0.33621 0.12887,0.72099 0.14295,1.08575c0.007,0.18147 0.01581,0.36121 0.02537,0.53961c0.11856,0.03082 0.23519,0.06031 0.34967,0.08768c1.70921,0.40868 5.2301,-1.51688 6.20501,-2.93745c0.37227,-0.54245 -0.0719,-1.31404 -0.08903,-1.97173c-0.00522,-0.20051 0.03483,-0.39607 0.09142,-0.58985c-1.066,-0.19939 -2.12939,-0.39828 -3.13353,-0.58609c-0.08517,0.17037 -0.21066,0.32379 -0.37421,0.4449zM170.24949,255.59705c0.58483,-0.05974 1.28431,0.31152 1.76334,-0.02925c0.30916,-0.21992 -0.14479,-0.75118 -0.13317,-1.13041c0.01339,-0.4368 -0.02369,-0.9785 -0.07192,-1.56393c-0.38798,-0.04298 -0.78165,-0.02445 -1.1782,0.10776c-0.27924,0.0931 -1.43274,1.27011 -1.62667,1.50622c-0.36238,0.44123 -0.68881,0.92419 -0.98972,1.43337c0.74251,-0.13012 1.48674,-0.2472 2.23633,-0.32377zM161.73036,259.48766c-0.04384,0.51411 0.14076,1.00379 0.33976,1.49453l0.29502,-0.2348c0,0 0.02709,-0.02007 0.07567,-0.04918c0.02915,-0.02615 0.0598,-0.05118 0.0919,-0.07495c0.18366,-0.13603 0.39227,-0.2143 0.60415,-0.23805c0.01348,-0.03356 0.02261,-0.05214 0.02261,-0.05214c0.2634,-0.53712 0.52849,-1.14392 0.8063,-1.78673c-0.96707,-0.02473 -2.16793,0.15004 -2.23539,0.94132z" fill="#000000" stroke="none" stroke-width="0.5"/><g stroke="none" stroke-width="0"><path d="M158.10593,261.65375l37.53554,-27.80227l2.60647,3.51896l-37.53554,27.80228z" fill="#000000"/><path d="M182.19894,236.02321l2.01085,-1.48941l10.0535,13.57313l-2.01083,1.4894z" fill="url(#color-32)"/><path d="M175.70653,261.59226l-2.01084,1.48942l-10.0535,-13.57312l2.01084,-1.48941z" data-paper-data="{&quot;index&quot;:null}" fill="url(#color-33)"/><path d="M160.21015,251.53162l11.62445,-11.98366l14.85151,-7.62686l1.98588,2.68111l-15.01907,7.75099l-11.45689,11.85955z" fill="url(#color-34)"/><path d="M168.97903,263.72074l14.68392,-7.50274l11.79202,-12.10778l1.98588,2.68111l-11.62446,11.98367l-14.85151,7.62686z" data-paper-data="{&quot;index&quot;:null}" fill="url(#color-35)"/><path d="M162.18442,265.33135c-1.4734,1.09135 -3.55254,0.78162 -4.6439,-0.69179c-1.09135,-1.4734 -0.78162,-3.55253 0.6918,-4.64389c1.4734,-1.09135 3.55253,-0.78162 4.64389,0.69179c1.09135,1.4734 0.78162,3.55254 -0.69179,4.64389z" fill="#000000"/></g><path d="M189.77963,266.87531c-9.5318,6.81136 -16.92232,12.8606 -28.97305,-4.41118c-11.46197,-16.42795 -3.98709,-22.26595 5.54473,-29.0773c9.5318,-6.81136 17.70018,-12.55022 28.97305,4.41117c12.43992,18.71735 3.98711,22.26595 -5.54473,29.07731zM176.60411,235.08841l-0.81043,-0.56265c-1.82673,-0.9105 -2.74011,-0.61718 -4.69674,-0.27973c-0.64152,0.12879 -1.34339,0.08574 -1.92457,0.38635c-2.40087,1.24186 -1.57269,3.91817 -3.06558,5.35524c-1.1287,1.0865 -3.25536,0.24904 -4.50741,1.93019c-0.74158,0.99572 -0.76732,3.07641 -0.22843,4.16569c0.92323,1.86616 2.53976,1.85051 4.06614,2.52779c0.61435,0.27259 0.32248,1.30558 0.51712,1.94887c0.47068,1.55564 1.15835,3.57951 2.55292,4.54908c1.95397,1.35851 2.7773,0.48122 4.70235,1.11243c3.41882,0.292 9.64634,-4.759 8.74834,-8.69053c-0.45859,-2.00776 -2.59351,-2.83518 -3.04588,-4.72745c-0.69384,-2.9023 0.3442,-5.2455 -1.89309,-7.23789c-0.16531,-0.30135 -0.41474,-0.4774 -0.41474,-0.4774z" fill="url(#color-36)" stroke="#000000" stroke-width="0"/><path d="M176.62678,235.04384c0,0 0.25178,0.17732 0.41709,0.47867c2.23729,1.99239 1.22202,4.36418 1.91586,7.26648c0.45237,1.89227 2.58817,2.74584 3.04676,4.7536c0.898,3.93153 -5.37071,9.02052 -8.78953,8.72852c-1.92505,-0.63121 -2.77025,0.24453 -4.72422,-1.11398c-1.39457,-0.96957 -2.10347,-3.00624 -2.57415,-4.56188c-0.19464,-0.64329 0.08962,-1.68625 -0.52473,-1.95884c-1.52638,-0.67728 -3.14943,-0.68181 -4.07266,-2.54797c-0.53889,-1.08928 -0.51104,-3.19007 0.23054,-4.18579c1.25205,-1.68115 3.38991,-0.86276 4.51861,-1.94926c1.49289,-1.43707 0.69017,-4.12792 3.09104,-5.36978c0.58118,-0.30061 1.29206,-0.25874 1.93358,-0.38753c1.95663,-0.33745 2.89074,-0.62716 4.71747,0.28334l0.81434,0.56443z" data-paper-data="{&quot;noHover&quot;:false,&quot;origItem&quot;:[&quot;Path&quot;,{&quot;applyMatrix&quot;:true,&quot;segments&quot;:[[176.60411,134.48781],[[175.79368,133.92516],[0,0],[-1.82673,-0.9105]],[[171.09694,133.64543],[1.95663,-0.33745],[-0.64152,0.12879]],[[169.17237,134.03178],[0.58118,-0.30061],[-2.40087,1.24186]],[[166.10679,139.38702],[1.49289,-1.43707],[-1.1287,1.0865]],[[161.59938,141.31721],[1.25205,-1.68115],[-0.74158,0.99572]],[[161.37095,145.4829],[-0.53889,-1.08928],[0.92323,1.86616]],[[165.43709,148.01069],[-1.52638,-0.67728],[0.61435,0.27259]],[[165.95421,149.95956],[-0.19464,-0.64329],[0.47068,1.55564]],[[168.50713,154.50864],[-1.39457,-0.96957],[1.95397,1.35851]],[[173.20948,155.62107],[-1.92505,-0.63121],[3.41882,0.292]],[[181.95782,146.93054],[0.898,3.93153],[-0.45859,-2.00776]],[[178.91194,142.20309],[0.45237,1.89227],[-0.69384,-2.9023]],[[177.01885,134.9652],[2.23729,1.99239],[-0.16531,-0.30135]],[176.60411,134.4878]],&quot;closed&quot;:true,&quot;fillColor&quot;:[0,0,0,1]}]}" fill="#000000" stroke="none" stroke-width="0.5"/></g><path d="M113.53659,305.44914c1.17021,-4.93552 7.38606,-7.68772 13.88352,-6.14719c4.40435,1.04426 8.71939,2.8586 10.09046,6.05842c0.65158,1.52067 10.49609,13.5824 9.30587,15.52014c-0.86914,1.65099 -10.23015,-5.6394 -10.74322,-2.01213c-0.94491,6.68052 -6.65845,15.39609 -7.74219,15.12127c-2.98982,-0.43051 -0.38734,-15.82086 -1.26256,-16.16486c-1.07247,-0.42152 -2.69582,11.86481 -8.25882,14.88152c-3.2993,-8.08018 2.14599,-15.78129 1.3316,-16.25236c-1.01864,-0.5892 -0.05258,4.28365 -10.28283,13.17796c-2.06433,-11.27496 2.9235,-20.99975 3.67821,-24.18279z" fill="url(#color-37)" stroke="#000000" stroke-width="0" stroke-linecap="butt"/><g stroke-linecap="butt"><path d="M240.42421,346.2083c-31.64284,0 -64.84973,-35.00795 -57.29442,-64.0129c5.07582,-19.48613 11.42197,-42.35779 22.24217,-58.64615c0.28336,0.31897 0.68776,0.42007 0.68776,0.42007c2.88108,0.70152 3.90768,-0.07059 6.36512,-1.02682c1.8663,-0.72621 3.80808,0.4622 5.78159,-0.37805c1.01937,-0.43401 1.66278,-1.4689 2.55401,-2.12708c0.70432,-0.52015 1.6902,-0.49314 2.47299,-0.88538c3.09718,-1.55191 5.69694,-4.21942 7.95097,-6.65032c0.18215,-3.52261 2.44336,-6.22004 2.95906,-9.74782c0.0243,-0.1662 0.04676,-0.33176 0.0676,-0.49674c1.83642,-0.29563 3.73973,-0.4572 5.71318,-0.47459c33.2493,-0.29306 49.00714,41.46547 56.81104,75.56658c-2.05825,0.48925 -4.32551,0.56987 -5.60237,2.51707c-0.59982,0.91472 -0.28612,2.35625 -1.09385,3.09385c-0.21249,0.19404 -0.55573,-0.16743 -0.84284,-0.18669c-1.16092,-0.07785 -3.94026,0.15496 -4.97835,0.59515c-2.10987,0.89465 -4.04915,4.2146 -5.08496,5.99769c-0.21985,0.37845 -0.00819,0.96673 -0.32057,1.27328c-0.34003,0.33369 -1.00945,0.08481 -1.37486,0.3905c-0.96813,0.80992 -1.9627,3.18571 -2.45782,4.20619c-0.08898,4.75553 -0.66822,7.85654 1.59367,12.33638c0.85636,1.69608 0.77577,3.33103 2.21483,4.80983c1.54247,1.58507 3.52715,2.48497 5.2012,3.84318c1.98928,1.61396 2.6867,3.87899 4.22237,5.7262c-11.215,14.54935 -29.75522,23.85658 -47.78751,23.85658z" fill="#000000" stroke="#000000" stroke-width="0"/><g stroke="none"><path d="M241.14659,180.11677c0.23226,-0.21782 1.07374,-0.87797 1.91523,0.06275c0.98897,1.1056 0,2.21123 0,2.21123l-1.33862,0.84884c-0.40924,-0.00391 -0.81848,-0.0078 -1.22771,-0.01172c-1.28978,0.10902 -1.57427,2.25453 -1.5695,3.52973c0.00865,2.31262 0.59332,4.56796 1.83391,6.5127c1.33943,2.09968 2.39539,2.09444 2.70475,5.05997c0.13795,1.32238 -0.15607,2.66277 -0.36893,3.97266c-0.6243,3.8418 -0.95029,7.38203 -1.92658,11.13417c-0.28755,1.1051 -0.2033,2.34132 -0.65941,3.3731c-0.98027,2.21749 -3.51626,4.1742 -4.78439,6.33884c0.02823,1.13176 0.03866,3.95968 0.34181,4.95842c1.8499,6.09442 8.68258,12.39825 7.02609,19.55266c-0.27609,1.19242 -0.69891,2.37018 -1.31936,3.38803c-0.83506,1.36991 -2.39236,1.99502 -3.38613,3.22541c-0.93382,1.15618 -2.08214,2.93386 -2.26646,4.56947c-0.2792,2.47764 1.24256,5.07289 3.50399,4.92014c0,0 1.3986,0.00001 1.3986,1.56357c0,1.56356 -1.3986,1.56357 -1.3986,1.56357c-3.8888,-0.14464 -6.75199,-3.84965 -6.28626,-8.37016c0.24557,-2.3834 1.59901,-4.61106 2.96964,-6.33863c1.56678,-1.97479 3.47612,-2.45439 4.04447,-5.15015c0.69126,-3.27878 -1.58133,-6.90794 -2.84209,-9.59682c-1.21569,-2.59277 -3.27993,-5.58088 -4.09628,-8.33382c-0.59314,-2.00023 -0.40735,-4.75417 -0.37909,-6.81057c0.57215,-1.05743 1.05732,-2.18016 1.71644,-3.17229c0.93743,-1.41107 2.62216,-2.18761 3.28941,-3.77916c0.35466,-0.84595 0.21307,-1.85986 0.43775,-2.75972c0.69927,-2.80068 1.16326,-5.14183 1.50745,-8.04319c0.21821,-1.83938 1.36731,-5.38047 0.50333,-7.26812c-0.42302,-0.92422 -1.45922,-1.32442 -1.9994,-2.16889c-0.86588,-1.35363 -2.06987,-4.09674 -2.33667,-5.70015c-0.40786,-2.45118 -0.04353,-6.83747 1.89684,-8.55137c0.57542,-0.50826 1.40191,-0.48207 2.10287,-0.7231c0.33096,-0.00247 0.66191,-0.00493 0.99287,-0.0074z" fill="#000000" stroke-width="0.5"/><path d="M237.273,267.42748v-85.91819h5.20594v85.91819z" fill="#000000" stroke-width="0"/><path d="M256.1956,329.83117c-0.71654,-1.4874 -3.05138,-1.47077 -4.23379,-2.75157c-0.23959,-0.25953 -2.0122,-3.89419 -2.06727,-4.19241c-0.09096,-0.49271 0.50051,-1.00085 0.32071,-1.46851c-0.24719,-0.6429 -1.05846,-0.90523 -1.45097,-1.47124c-0.47456,-0.68431 -0.74568,-1.48932 -1.11852,-2.23396c-0.9741,-1.16338 -2.65551,-1.83751 -3.17297,-3.2639c-0.94275,-2.59869 0.03009,-7.43936 0.12098,-10.19869c0.02543,-0.77175 0.21922,-2.2427 -0.33911,-3.02642c-1.69072,-2.37317 -4.64743,-3.89368 -5.46788,-6.89694c-0.69988,-2.56188 1.335,-4.67087 2.44125,-6.48578c1.00414,-1.64737 0.68776,-4.27359 -0.08089,-5.89979c-0.46362,-0.98087 -0.921,-1.50375 -1.48499,-1.93752c-0.38063,3.20393 -0.7172,6.70665 -1.87338,9.36407c-0.91796,2.10991 -3.79724,4.47797 -5.4835,5.92306c-0.53084,0.45491 -2.00465,1.03835 -2.32587,1.91685c-1.37349,3.7562 1.17805,4.37965 1.79756,7.89487c0.66507,3.77364 -3.83955,9.36162 -6.57196,11.66221c-0.18016,0.92013 0.90721,1.65062 1.21974,2.53462c0.4477,1.26632 0.56248,3.7636 -0.03066,5.08954c-1.41249,3.15756 -5.01064,4.59627 -6.0371,8.09715c-0.09327,0.31812 0.10819,1.72148 0.22807,2.48568c-1.1111,0.06591 -2.21818,0.12879 -3.31773,0.17007c-0.33566,-3.49039 0.54382,-5.91479 2.98884,-8.86984c0.93401,-1.12886 2.41284,-1.84311 3.05545,-3.15984c1.02319,-2.09653 -1.15296,-3.41697 -1.48498,-5.1523c-0.17724,-0.92637 0.29984,-1.86234 0.44977,-2.7935c2.23635,-2.14631 4.94312,-5.41288 6.26249,-8.3033c0.79964,-1.75185 -1.80818,-3.87216 -2.21628,-5.12425c-0.44,-1.34991 0.18471,-4.87485 0.6326,-5.94032c1.39533,-3.31932 6.40621,-4.34555 7.7606,-7.73008c0.83824,-2.09471 1.19382,-4.67061 1.49298,-7.19278c-2.20405,0.30564 -4.45458,-0.3887 -6.47503,-2.56373c-0.69883,-0.75231 -1.31393,-1.58637 -1.85627,-2.45825c-0.26643,-0.42831 -0.16485,-1.08384 -0.54979,-1.40981c-0.68041,-0.5762 -1.72134,0.46596 -2.57762,0.71449c-1.70437,0.49469 -3.99931,1.61587 -5.80915,1.44482c-4.03981,-0.38181 -4.46727,-2.80579 -5.6139,-6.05004c-0.24327,-0.68825 -0.81504,-1.26547 -0.9183,-1.98811c-0.12658,-0.88588 0.66043,-4.3652 0.81654,-5.13482c-0.00469,-1.18098 0.51724,-2.41498 0.15653,-3.53953c-0.27185,-0.84752 -1.61037,-0.76422 -2.37699,-1.21641c-1.08417,-0.63948 -3.27509,-2.08513 -3.74717,-3.2944c-0.65811,-1.68583 -0.01881,-4.18609 1.22676,-5.44872c0.54116,-0.54858 1.49151,-0.4934 2.10037,-0.96574c1.76111,-1.36623 3.08155,-3.85408 2.54468,-5.74549c0.98936,-0.23293 1.98293,-0.56696 3.07487,-1.03252c0.71297,1.66495 0.78103,3.55929 -0.13021,5.32816c-0.36665,0.71171 -3.39399,4.04236 -3.52796,4.14887c-0.55147,0.43842 -3.00812,0.82291 -2.20606,2.43865c1.09171,2.19928 4.95547,1.94204 6.04885,4.3423c0.2201,0.48318 0.15904,4.57885 0.15652,5.3136c-0.28101,1.42389 -1.08924,2.84123 -0.8434,4.27161c0.08607,0.50079 0.5728,0.85254 0.74165,1.33178c0.32021,0.90892 0.34227,1.91244 0.71449,2.80133c0.52504,1.25375 2.11299,1.16177 3.13488,0.87826c2.31495,-0.64227 6.33629,-2.84216 8.70927,-1.48379c0.85989,0.49226 1.09224,1.65384 1.66351,2.46341c1.39159,1.97211 3.58867,4.14037 5.93525,3.64561c0.07076,-0.50851 0.14742,-1.00394 0.23417,-1.481c0,0 0.088,-0.48406 0.4313,-0.87863l-1.01391,-0.72723c0,0 -1.30266,-1.04212 -0.26054,-2.34478c1.04212,-1.30266 2.34478,-0.26053 2.34478,-0.26053l1.70957,1.45512c0.10949,0.41294 0.27564,0.74734 0.48815,1.01378l0.42592,-0.53406c0.12852,-0.16409 0.2871,-0.3035 0.46746,-0.40994c0.42152,-0.27072 1.09759,-0.48326 1.86637,0.11735c0.01335,0.01031 0.02652,0.02084 0.03954,0.03154c0.64214,0.52312 0.69975,1.1099 0.59846,1.56384c2.14619,-0.39628 4.59731,-1.6714 5.86507,-2.30457c0.68131,-0.34027 1.19994,-0.94476 1.85315,-1.33626c0.74479,-0.4464 1.54842,-0.78648 2.32768,-1.16956c0.71219,-0.3501 3.47674,-1.61841 2.76472,-2.94639c-0.64958,-1.21154 -1.92791,-1.98244 -2.68727,-3.12837c-0.93745,-2.90443 -1.43867,-9.27495 1.35315,-11.49268c1.57425,-1.25054 3.40518,-0.38074 4.92423,-2.17236c1.86946,-2.20491 -0.47258,-4.98282 0.31547,-7.33856c0.25667,-0.76725 1.20276,-1.08467 1.76111,-1.67016c3.13494,-3.28727 7.24502,-3.28543 11.21144,-5.28062c0,0 1.49209,-0.74604 2.23814,0.74605c0.74606,1.4921 -0.74606,2.23813 -0.74606,2.23813c-1.96797,0.97876 -4.02222,1.77043 -6.15377,2.34021c-1.00219,0.2679 -2.11994,0.12532 -3.00181,0.82523c-0.50638,0.40188 -0.73842,1.07412 -1.21242,1.51369c-0.27931,0.25902 -0.886,0.18142 -1.00548,0.54313c-0.3431,1.0387 0.68849,2.11757 0.67561,3.21139c-0.02084,1.76883 -0.32235,3.51642 -1.46675,4.943c-0.84515,1.05354 -2.7942,2.36771 -4.13025,2.76987c-0.46571,0.1402 -1.02003,-0.17259 -1.45863,0.03764c-0.2353,0.11279 -0.17025,0.49772 -0.19914,0.75705c-0.22668,2.03564 -0.80159,4.60465 -0.10767,6.56311c0.8409,1.25013 2.42793,2.06396 2.84593,3.51145c1.68318,5.82873 -7.89535,9.04459 -11.70849,10.6503c-1.68694,0.71037 -3.70387,1.44149 -5.57873,1.56206c2.57392,3.03478 3.56179,7.12897 1.45455,11.00972c-0.5757,1.0602 -2.51543,2.45087 -2.00731,4.07958c1.0195,3.26787 5.22564,4.34345 5.84904,8.11975c0.45085,2.73114 -0.11106,5.89742 -0.25657,8.64829c-0.0457,0.86403 -0.43286,1.77086 -0.15708,2.59096c0.17232,0.51246 0.94885,0.5419 1.33711,0.91816c0.60199,0.58339 1.07115,1.28981 1.60672,1.93471c0.82153,1.64535 2.3309,2.91946 2.99121,4.63587c0.22534,0.58571 -0.32556,1.24687 -0.23537,1.86794c0.13347,0.91913 0.66374,1.77614 1.26917,2.48045c0.94267,1.09662 1.8767,0.5271 3.03997,1.40385c2.87545,2.16722 2.67297,6.2135 2.66076,9.39873c-1.12266,-0.01908 -2.23135,-0.05596 -3.33301,-0.10924c0.0292,-1.8421 0.18953,-4.02174 -0.63519,-5.73369z" fill="#000000" stroke-width="0.5"/><path d="M234.52813,332.66178v-51.20817h11.61971v51.20817z" fill="url(#color-38)" stroke-width="0"/><path d="M230.65492,281.57809v-17.70622h18.81286v17.70622z" fill="url(#color-39)" stroke-width="0"/><path d="M250.82992,278.69999v-41.14379h5.00464v41.14379z" data-paper-data="{&quot;index&quot;:null}" fill="url(#color-40)" stroke-width="0"/><path d="M224.29126,279.82727v-41.69712h5.00464v41.69712z" data-paper-data="{&quot;index&quot;:null}" fill="url(#color-41)" stroke-width="0"/><path d="M224.69335,283.55549v-5.42168h30.65537v5.42168z" fill="url(#color-42)" stroke-width="0"/><path d="M249.14488,281.14796l17.06964,-46.43946l5.9056,2.17069l-17.06964,46.43948z" fill="url(#color-43)" stroke-width="0"/><path d="M224.411,283.11597l-17.44111,-47.45011l6.03411,-2.21796l17.44114,47.45012z" data-paper-data="{&quot;index&quot;:null}" fill="url(#color-44)" stroke-width="0"/><path d="M199.42315,237.74269v-4.54547h81.97237v4.54547z" fill="url(#color-45)" stroke-width="0"/><path d="M202.08297,235.36587c0,2.04963 -1.66154,3.71116 -3.71115,3.71116c-2.04962,0 -3.71117,-1.66153 -3.71117,-3.71116c0,-2.04963 1.66154,-3.71116 3.71117,-3.71116c2.04962,0 3.71115,1.66154 3.71115,3.71116z" fill="#000000" stroke-width="0"/><path d="M285.78582,235.58318c0,2.04963 -1.66154,3.71116 -3.71115,3.71116c-2.04962,0 -3.71115,-1.66154 -3.71115,-3.71116c0,-2.04963 1.66154,-3.71115 3.71115,-3.71115c2.04962,0 3.71115,1.66154 3.71115,3.71115z" fill="#000000" stroke-width="0"/><path d="M207.96609,337.55522v-4.62856h67.70309v4.62856z" fill="#000000" stroke-width="0"/><path d="M212.3727,335.30275c0,2.69012 -2.18078,4.87089 -4.87089,4.87089c-2.69012,0 -4.8709,-2.18076 -4.8709,-4.87089c0,-2.69012 2.18077,-4.87089 4.8709,-4.87089c2.69012,0 4.87089,2.18078 4.87089,4.87089z" fill="#000000" stroke-width="0"/><path d="M280.18924,335.53585c0,2.69012 -2.18078,4.87089 -4.87089,4.87089c-2.69013,0 -4.8709,-2.18077 -4.8709,-4.87089c0,-2.69012 2.18077,-4.8709 4.8709,-4.8709c2.69013,0 4.87089,2.18078 4.87089,4.8709z" fill="#000000" stroke-width="0"/></g><path d="M240.22422,346.04163c-31.64284,0 -64.84973,-35.00795 -57.29442,-64.0129c4.98569,-19.1401 11.19698,-41.54656 21.66995,-57.77224c1.09529,-0.14283 3.36633,0.01714 4.07171,0.54151c0.50853,0.37803 0.61956,1.27042 1.22654,1.45231c2.17312,0.6512 5.47552,-2.36463 7.31988,-1.33882c2.56353,1.42581 2.76244,3.15532 6.19627,2.36785c0.98546,-0.39313 1.88169,-1.01732 2.9026,-1.30614c2.13699,-0.60456 4.70839,0.75531 7.0974,-0.02719c1.00827,-0.33025 1.86521,-1.08365 2.9026,-1.30614c1.87108,-0.40128 4.21357,-0.11251 5.99535,-1.12881c1.33512,-0.76153 2.05072,-2.55154 3.33333,-3.33333c1.90391,-1.1605 3.82565,1.01354 5.28378,1.75127c1.42641,0.35487 3.23893,0.72878 4.72087,0.37754c1.01469,-0.2405 2.45112,-1.13031 3.57641,-0.97403c0.44405,0.06167 0.74665,0.53586 1.18254,0.64069c2.41704,0.58129 5.39209,-0.33574 7.77325,-0.64259c1.88239,-0.24258 3.81717,-0.08285 5.74602,0.02603c10.74321,14.53163 17.57821,35.05414 22.01582,53.69321c-0.799,-0.37892 -1.63231,-0.69182 -2.54767,-0.8604c-5.25134,-0.96711 -12.71306,-0.25102 -17.3161,2.14611c-2.13951,1.11419 -2.71269,3.70312 -4.32844,5.26875c-0.42886,0.60165 -0.74399,1.30344 -1.28657,1.80495c-0.49957,0.46176 -2.46737,0.23561 -2.74747,0.3592c-1.62261,0.716 -4.85323,4.99711 -5.64454,6.60566c-0.58049,1.17999 -0.45737,2.59123 -0.61774,3.89646c-0.1676,1.36411 -0.82971,2.63622 -1,4c-0.33595,2.69051 0.14995,5.27567 0.50656,7.8516c0.48485,3.5023 -1.12641,6.45722 -0.96229,9.9389c-1.5814,2.24109 -2.97731,6.06981 -1.95848,8.84058c0.16269,0.44244 0.82252,0.56328 1,1c0.69474,1.70953 1.18904,4.31703 0.92099,6.32142c-0.32238,2.41066 -3.29338,2.60948 -4.32945,4.54306c-1.21363,2.26496 0.36295,4.4629 1.1408,6.75399c-5.41273,1.6416 -11.00513,2.52149 -16.54951,2.52149z" fill="url(#color-46)" stroke="#000000" stroke-width="0"/></g><g fill="#000000" stroke-width="0" stroke-linecap="butt"><path d="M224.14496,166.40964v-4.42891h31.00242v4.42891z" stroke="none"/><path d="M227.82073,206.74666v-28.66052h2.96655v28.66053z" stroke="none"/><path d="M248.69279,205.82782v-27.84742h2.96656v27.84742z" data-paper-data="{&quot;index&quot;:null}" stroke="none"/><path d="M224.03879,180.07675v-4.42891h31.00243v4.42891z" stroke="none"/><path d="M253.1764,180.07675v-32.16792h4.89511v32.16792z" stroke="#000000"/><path d="M221.00848,180.07675v-32.16792h4.89513v32.16792z" data-paper-data="{&quot;index&quot;:null}" stroke="#000000"/><g stroke="none"><g data-paper-data="{&quot;index&quot;:null}"><path d="M249.89524,182.41598v3.84617h-3.0303v-3.84617z"/><path d="M245.69942,182.41598v3.84617h-3.03032v-3.84617z"/><path d="M241.50362,182.29945v3.84616h-3.03031v-3.84616z"/><path d="M237.30779,182.29945v3.84616h-3.03032v-3.84616z"/><path d="M233.18969,182.22175v3.84616h-3.03032v-3.84616z"/></g><path d="M251.67664,177.9856v5.36131h-23.7763v-5.36131z" data-paper-data="{&quot;index&quot;:null}"/></g><g stroke="#000000"><g><path d="M254.50715,126.53001c8.30361,0 15.03501,6.7314 15.03501,15.03501c0,8.30361 -6.73141,15.03502 -15.03501,15.03502c-8.30361,0 -15.03501,-6.73141 -15.03501,-15.03502c0,-8.30361 6.7314,-15.03501 15.03501,-15.03501z"/></g><g data-paper-data="{&quot;index&quot;:null}"><path d="M239.47216,141.21537c0,8.30361 -6.7314,15.03501 -15.03501,15.03501c-8.30361,0 -15.03501,-6.7314 -15.03501,-15.03501c0,-8.30361 6.7314,-15.03501 15.03501,-15.03501c8.30361,0 15.03501,6.7314 15.03501,15.03501z"/></g></g></g><g stroke-width="0" stroke-linecap="butt"><g fill="#000000" stroke="none"><g><path d="M246.86495,198.94146v-3.84616h3.0303v3.84616z"/><path d="M242.66912,198.94146v-3.84616h3.03032v3.84616z"/><path d="M238.47331,199.05801v-3.84617h3.03031v3.84617z"/><path d="M234.27749,199.05801v-3.84617h3.03033v3.84617z"/><path d="M230.15937,199.13571v-3.84617h3.03032v3.84617z"/></g><path d="M227.90034,203.37184v-5.36131h23.7763v5.36131z"/></g><path d="M239.77615,215.15043c-14.59529,0.45726 -50.16922,-17.84924 -48.60155,-39.76216c0.17988,-2.51431 -3.44139,-0.91826 6.14315,-2.21728c9.1584,-1.24126 12.35917,28.7852 42.10876,28.54451c34.18977,-0.27662 31.62404,-30.29018 40.53601,-29.06891c9.23502,1.26554 8.41518,0.02612 8.41518,2.74168c0,21.96004 -31.21433,39.21743 -48.60154,39.76216z" data-paper-data="{&quot;index&quot;:null}" fill="url(#color-47)" stroke="#000000"/></g><path d="M288.70932,173.41357c0,9.32479 -96.50379,8.48931 -97.20309,0c-0.93812,-11.38845 6.22279,-21.23457 18.53279,-27.52975c0.09188,-0.04698 7.63849,10.38767 13.89478,10.52322c10.71955,0.23226 12.01802,-9.54509 15.18882,-9.55519c3.73247,-0.01189 4.59896,9.96843 15.53153,9.55517c9.67745,0.64981 14.35051,-10.76307 14.60105,-10.62945c11.81246,6.29976 19.45411,16.33381 19.45411,27.63599z" fill="url(#color-48)" stroke="#000000" stroke-width="0" stroke-linecap="butt"/><g stroke="none" stroke-width="0" stroke-linecap="butt"><path d="M226.17117,141.46727c0,1.01796 -0.80791,1.84318 -1.8045,1.84318c-0.9966,0 -1.8045,-0.82522 -1.8045,-1.84318c0,-1.01796 0.80791,-1.84318 1.8045,-1.84318c0.9966,0 1.8045,0.82522 1.8045,1.84318zM224.35562,143.05407c0.87325,0 1.58116,-0.70791 1.58116,-1.58116c0,-0.87325 -0.70791,-1.58116 -1.58116,-1.58116c-0.87325,0 -1.58116,0.70791 -1.58116,1.58116c0,0.87325 0.70791,1.58116 1.58116,1.58116z" fill="#ffffff"/><path d="M227.31184,141.46727c0,1.66143 -1.3186,3.00828 -2.94517,3.00828c-1.62657,0 -2.94517,-1.34686 -2.94517,-3.00828c0,-1.66143 1.3186,-3.00829 2.94517,-3.00829c1.62657,0 2.94517,1.34686 2.94517,3.00829z" fill="url(#color-49)"/></g><g stroke="none" stroke-width="0" stroke-linecap="butt"><path d="M256.57116,141.46727c0,1.01796 -0.80791,1.84318 -1.8045,1.84318c-0.9966,0 -1.8045,-0.82522 -1.8045,-1.84318c0,-1.01796 0.80791,-1.84318 1.8045,-1.84318c0.9966,0 1.8045,0.82522 1.8045,1.84318zM254.75562,143.05407c0.87325,0 1.58116,-0.70791 1.58116,-1.58116c0,-0.87325 -0.70791,-1.58116 -1.58116,-1.58116c-0.87325,0 -1.58116,0.70791 -1.58116,1.58116c0,0.87325 0.70791,1.58116 1.58116,1.58116z" fill="#ffffff"/><path d="M257.71183,141.46727c0,1.66143 -1.3186,3.00828 -2.94517,3.00828c-1.62657,0 -2.94517,-1.34686 -2.94517,-3.00828c0,-1.66143 1.3186,-3.00829 2.94517,-3.00829c1.62657,0 2.94517,1.34686 2.94517,3.00829z" fill="url(#color-50)"/></g></g></g></svg>