<svg version="1.1" xmlns="http://www.w3.org/2000/svg" xmlns:xlink="http://www.w3.org/1999/xlink" width="536.53453" height="393.89189" viewBox="0,0,536.53453,393.89189"><defs><linearGradient x1="322.76578" y1="140.36431" x2="451.26578" y2="140.36431" gradientUnits="userSpaceOnUse" id="color-1"><stop offset="0" stop-color="#9f5000"/><stop offset="1" stop-color="#794300"/></linearGradient><radialGradient cx="313.61449" cy="132.59791" r="6.625" gradientUnits="userSpaceOnUse" id="color-2"><stop offset="0" stop-color="#ffffff"/><stop offset="1" stop-color="#737373"/></radialGradient><radialGradient cx="289.20408" cy="132.45505" r="6.625" gradientUnits="userSpaceOnUse" id="color-3"><stop offset="0" stop-color="#ffffff"/><stop offset="1" stop-color="#737373"/></radialGradient><radialGradient cx="102.21483" cy="84.6817" r="42.63986" gradientUnits="userSpaceOnUse" id="color-4"><stop offset="0" stop-color="#ffffff"/><stop offset="1" stop-color="#00c7ff"/></radialGradient><radialGradient cx="86.6078" cy="160.01249" r="5.507" gradientUnits="userSpaceOnUse" id="color-5"><stop offset="0" stop-color="#ffffff"/><stop offset="1" stop-color="#ffd800"/></radialGradient><radialGradient cx="86.6078" cy="188.33416" r="5.507" gradientUnits="userSpaceOnUse" id="color-6"><stop offset="0" stop-color="#ffffff"/><stop offset="1" stop-color="#ffd800"/></radialGradient></defs><g transform="translate(29.76876,16.94593)"><g data-paper-data="{&quot;isPaintingLayer&quot;:true}" fill-rule="nonzero" stroke-linejoin="miter" stroke-miterlimit="10" stroke-dasharray="" stroke-dashoffset="0" style="mix-blend-mode: normal"><path d="M-28.76875,375.94596v-391.89189h534.53453v391.89189z" fill="#4b4b6b" stroke="#000000" stroke-width="2" stroke-linecap="butt"/><path d="M24.53456,304.81854v-319.81982h433.93393v319.81982z" fill="#4b4b6b" stroke="#000000" stroke-width="2" stroke-linecap="butt"/><path d="M322.76578,187.36431v-94h128.5v94z" fill="url(#color-1)" stroke="none" stroke-width="0" stroke-linecap="butt"/><path d="M180.19972,193.77629v-148.64865h84.08408v148.64865z" fill="#000000" stroke="#000000" stroke-width="0" stroke-linecap="butt"/><path d="M-23.87085,258.82433l48.15529,-72.07207h434.95105l41.9417,72.07207l-7.03972,113.76911l-507.98732,0.345z" fill="#c4c4c4" stroke="none" stroke-width="0" stroke-linecap="butt"/><g stroke-linecap="butt"><path d="M310.12358,128.98816c3.65888,0 6.625,2.85419 6.625,6.375c0,3.52081 -2.96612,6.375 -6.625,6.375c-3.65888,0 -6.625,-2.85419 -6.625,-6.375c0,-3.52081 2.96612,-6.375 6.625,-6.375z" data-paper-data="{&quot;index&quot;:null}" fill="url(#color-2)" stroke="none" stroke-width="0"/><path d="M264.53305,186.94295v-141.64864l38.51266,-15.14286l0.57143,176.7915z" fill="#f1f1f1" stroke="#000000" stroke-width="0"/><path d="M299.32,135.2203c0,3.52082 -2.96611,6.375 -6.625,6.375c-3.65889,0 -6.625,-2.85418 -6.625,-6.375c0,-3.52082 2.96611,-6.375 6.625,-6.375c3.65889,0 6.625,2.85418 6.625,6.375z" fill="url(#color-3)" stroke="none" stroke-width="0"/><path d="M302.98157,207.07816v-177h7.5v177z" fill="#d1d1d1" stroke="none" stroke-width="0"/><path d="M284.04795,187.77816v-40.66667l11.66667,1.66667v43.33333z" fill="#f1f1f1" stroke="#909090" stroke-width="1"/><path d="M268.71461,181.77816v-37.66667l11.66667,2v40z" fill="#f1f1f1" stroke="#909090" stroke-width="1"/><path d="M296.38128,61.44482v58l-11.66667,1.66667v-55.66666z" data-paper-data="{&quot;index&quot;:null}" fill="#f1f1f1" stroke="#909090" stroke-width="1"/><path d="M281.04795,66.77816v55.33333l-11.66667,2v-53.16666z" data-paper-data="{&quot;index&quot;:null}" fill="#f1f1f1" stroke="#909090" stroke-width="1"/><path d="M296.38128,43.11149v15l-11.66666,4.16667v-14.83333z" data-paper-data="{&quot;index&quot;:null}" fill="#f1f1f1" stroke="#909090" stroke-width="1"/><path d="M281.04795,49.11149v14l-11.66667,4.16667v-13.83333z" data-paper-data="{&quot;index&quot;:null}" fill="#f1f1f1" stroke="#909090" stroke-width="1"/><path d="M304.50255,141.79261v-15.5h4.33333v15.5z" fill="#737373" stroke="none" stroke-width="0"/><path d="M305.33589,137.95928v-10h2.66667v10z" fill="#2d2d2d" stroke="none" stroke-width="0"/></g><path d="M393.56583,144.30528c75.63134,-0.50393 78.64795,26.50348 78.64795,51.7958c0,2.85932 1.65771,98.16198 1.65771,98.16198l-34.96488,0.63382c0,0 -112.5744,-106.50348 -112.5744,-108.7958c0,-25.29232 -3.56237,-41.32408 67.23361,-41.7958z" fill="#cccccc" stroke="none" stroke-width="NaN" stroke-linecap="butt"/><path d="M409.90993,148.30528c86.13789,-0.50393 89.57357,26.50348 89.57357,51.7958c0,2.85932 1.888,98.16198 1.888,98.16198l-61.46157,-1.86618c0,0 -106.57357,-100.00348 -106.57357,-102.2958c0,-25.29232 -4.05725,-45.32408 76.57357,-45.7958z" fill="#51b7cc" stroke="none" stroke-width="NaN" stroke-linecap="butt"/><path d="M384.01147,144.23253c1.53224,3.12277 8.37056,7.68852 4.06374,10.44688c-3.13813,2.00986 -16.32357,2.51481 -21.49881,3.482c-5.4506,1.01864 -17.39919,4.55656 -21.96841,3.84779c-5.72324,-0.88779 -3.58558,-6.46564 -5.05842,-9.46735c-1.53614,-3.13072 -9.82224,-7.15187 -5.49253,-9.91396c3.13582,-2.00045 17.77043,-3.05112 22.9276,-4.01493c6.51688,-1.21792 18.23629,-6.27423 23.2663,-5.06994c4.44655,1.06459 2.51772,8.15661 3.76052,10.6895z" fill="#ffffff" stroke="none" stroke-width="0" stroke-linecap="butt"/><path d="M443.4407,143.32425c0.77306,3.39143 6.37819,9.40736 1.55248,11.10141c-3.51623,1.23435 -16.4644,-1.30635 -21.72336,-1.55518c-5.53877,-0.26208 -17.98073,0.43334 -22.2645,-1.30718c-5.3657,-2.1801 -2.00265,-7.11691 -2.74574,-10.37686c-0.77503,-3.40006 -7.91437,-9.21892 -3.06553,-10.91132c3.5118,-1.22573 17.99583,1.11713 23.23642,1.3651c6.62229,0.31334 19.19038,-1.91247 23.80866,0.41624c4.08257,2.05858 0.57455,8.51698 1.20158,11.26779z" fill="#ffffff" stroke="none" stroke-width="0" stroke-linecap="butt"/><path d="M356.76578,166.91716l91.5,64.5" fill="none" stroke="#377c8a" stroke-width="2" stroke-linecap="round"/><g stroke-linecap="butt"><path d="M49.46674,131.32154v-75.83916h95.34965v75.83916z" fill="#b95c00" stroke="none" stroke-width="0"/><path d="M54.38266,119.14989v-58.21678h85.27972v58.21678z" fill="url(#color-4)" stroke="none" stroke-width="0"/><g><path d="M25.8609,141.9298l8.4965,-22.18531h126.50349l-8.18181,25.33217z" fill="#b95c00" stroke="none" stroke-width="0"/><path d="M152.3644,209.74449l-0.31468,-67.65734l8.81118,-22.97203v68.44406z" fill="#854300" stroke="none" stroke-width="0"/><path d="M25.8609,210.21652v-68.44405h126.5035v68.44405z" fill="#9f5000" stroke="none" stroke-width="0"/><path d="M44.01053,172.39688v-21.39861h90.62937v21.39861z" fill="#9f5000" stroke="#854300" stroke-width="3"/><path d="M93.84556,161.74325c0,3.04143 -2.46556,5.507 -5.507,5.507c-3.04143,0 -5.50699,-2.46557 -5.50699,-5.507c0,-3.04143 2.46556,-5.50699 5.50699,-5.50699c3.04143,0 5.507,2.46556 5.507,5.50699z" fill="url(#color-5)" stroke="none" stroke-width="0"/><path d="M44.01053,200.71856v-21.3986h90.62937v21.3986z" fill="#9f5000" stroke="#854300" stroke-width="3"/><path d="M93.84556,190.06493c0,3.04143 -2.46557,5.50699 -5.507,5.50699c-3.04143,0 -5.507,-2.46557 -5.507,-5.50699c0,-3.04143 2.46557,-5.507 5.507,-5.507c3.04143,0 5.507,2.46557 5.507,5.507z" fill="url(#color-6)" stroke="none" stroke-width="0"/></g></g></g></g></svg>