<svg version="1.1" xmlns="http://www.w3.org/2000/svg" xmlns:xlink="http://www.w3.org/1999/xlink" width="597.08708" height="476.37882" viewBox="0,0,597.08708,476.37882"><defs><linearGradient x1="296.25293" y1="160.20767" x2="512.46912" y2="160.20767" gradientUnits="userSpaceOnUse" id="color-1"><stop offset="0" stop-color="#222720"/><stop offset="1" stop-color="#2d342a"/></linearGradient><linearGradient x1="-52.59089" y1="185.23771" x2="334.62833" y2="185.23771" gradientUnits="userSpaceOnUse" id="color-2"><stop offset="0" stop-color="#343c31"/><stop offset="1" stop-color="#1c201a"/></linearGradient><linearGradient x1="-22.60826" y1="168.7286" x2="113.67193" y2="168.7286" gradientUnits="userSpaceOnUse" id="color-3"><stop offset="0" stop-color="#545454"/><stop offset="1" stop-color="#373737"/></linearGradient><linearGradient x1="98.42739" y1="178.12278" x2="109.47714" y2="178.12278" gradientUnits="userSpaceOnUse" id="color-4"><stop offset="0" stop-color="#8c8c8c"/><stop offset="1" stop-color="#747474"/></linearGradient><linearGradient x1="36.45658" y1="114.89776" x2="67.15475" y2="114.89776" gradientUnits="userSpaceOnUse" id="color-5"><stop offset="0" stop-color="#929292"/><stop offset="1" stop-color="#7f7f7f"/></linearGradient><linearGradient x1="326.89851" y1="165.70531" x2="350.49003" y2="165.70531" gradientUnits="userSpaceOnUse" id="color-6"><stop offset="0" stop-color="#6e6e6e"/><stop offset="1" stop-color="#525252"/></linearGradient><linearGradient x1="338.8139" y1="175.11036" x2="338.8139" y2="181.56464" gradientUnits="userSpaceOnUse" id="color-7"><stop offset="0" stop-color="#9c9c9c"/><stop offset="1" stop-color="#767676"/></linearGradient><linearGradient x1="339.03646" y1="151.96398" x2="339.03646" y2="158.41826" gradientUnits="userSpaceOnUse" id="color-8"><stop offset="0" stop-color="#9c9c9c"/><stop offset="1" stop-color="#767676"/></linearGradient><linearGradient x1="339.03646" y1="126.59199" x2="339.03646" y2="133.04627" gradientUnits="userSpaceOnUse" id="color-9"><stop offset="0" stop-color="#9c9c9c"/><stop offset="1" stop-color="#767676"/></linearGradient><linearGradient x1="339.25902" y1="103.44562" x2="339.25902" y2="109.89989" gradientUnits="userSpaceOnUse" id="color-10"><stop offset="0" stop-color="#9c9c9c"/><stop offset="1" stop-color="#767676"/></linearGradient><linearGradient x1="338.8139" y1="80.5218" x2="338.8139" y2="86.97608" gradientUnits="userSpaceOnUse" id="color-11"><stop offset="0" stop-color="#9c9c9c"/><stop offset="1" stop-color="#767676"/></linearGradient><linearGradient x1="339.03646" y1="57.37542" x2="339.03646" y2="63.8297" gradientUnits="userSpaceOnUse" id="color-12"><stop offset="0" stop-color="#9c9c9c"/><stop offset="1" stop-color="#767676"/></linearGradient><linearGradient x1="338.8139" y1="32.00343" x2="338.8139" y2="38.45771" gradientUnits="userSpaceOnUse" id="color-13"><stop offset="0" stop-color="#9c9c9c"/><stop offset="1" stop-color="#767676"/></linearGradient><linearGradient x1="339.03646" y1="8.85706" x2="339.03646" y2="15.31134" gradientUnits="userSpaceOnUse" id="color-14"><stop offset="0" stop-color="#9c9c9c"/><stop offset="1" stop-color="#767676"/></linearGradient><linearGradient x1="477.60625" y1="121.73369" x2="486.42762" y2="121.73369" gradientUnits="userSpaceOnUse" id="color-15"><stop offset="0" stop-color="#c3c3c3"/><stop offset="1" stop-color="#eaeaea"/></linearGradient><linearGradient x1="482.01389" y1="87.77589" x2="482.01389" y2="96.97589" gradientUnits="userSpaceOnUse" id="color-16"><stop offset="0" stop-color="#c7c7c7"/><stop offset="1" stop-color="#6a6a6a"/></linearGradient><linearGradient x1="481.9926" y1="97.17589" x2="481.9926" y2="106.37589" gradientUnits="userSpaceOnUse" id="color-17"><stop offset="0" stop-color="#c7c7c7"/><stop offset="1" stop-color="#6a6a6a"/></linearGradient><linearGradient x1="481.9926" y1="106.97589" x2="481.9926" y2="116.17589" gradientUnits="userSpaceOnUse" id="color-18"><stop offset="0" stop-color="#c7c7c7"/><stop offset="1" stop-color="#6a6a6a"/></linearGradient><linearGradient x1="481.97134" y1="116.37589" x2="481.97134" y2="125.57589" gradientUnits="userSpaceOnUse" id="color-19"><stop offset="0" stop-color="#c7c7c7"/><stop offset="1" stop-color="#6a6a6a"/></linearGradient><linearGradient x1="481.97134" y1="126.37589" x2="481.97134" y2="135.57589" gradientUnits="userSpaceOnUse" id="color-20"><stop offset="0" stop-color="#c7c7c7"/><stop offset="1" stop-color="#6a6a6a"/></linearGradient><linearGradient x1="481.97134" y1="135.77589" x2="481.97134" y2="144.97589" gradientUnits="userSpaceOnUse" id="color-21"><stop offset="0" stop-color="#c7c7c7"/><stop offset="1" stop-color="#6a6a6a"/></linearGradient><linearGradient x1="481.97134" y1="145.17589" x2="481.97134" y2="154.37589" gradientUnits="userSpaceOnUse" id="color-22"><stop offset="0" stop-color="#c7c7c7"/><stop offset="1" stop-color="#6a6a6a"/></linearGradient><linearGradient x1="441.91198" y1="119.22438" x2="368.19447" y2="119.22438" gradientUnits="userSpaceOnUse" id="color-23"><stop offset="0" stop-color="#545454"/><stop offset="1" stop-color="#373737"/></linearGradient><linearGradient x1="376.44064" y1="126.74254" x2="370.46355" y2="126.74254" gradientUnits="userSpaceOnUse" id="color-24"><stop offset="0" stop-color="#8c8c8c"/><stop offset="1" stop-color="#747474"/></linearGradient><linearGradient x1="191.19446" y1="125.64638" x2="283.69444" y2="125.64638" gradientUnits="userSpaceOnUse" id="color-25"><stop offset="0" stop-color="#545454"/><stop offset="1" stop-color="#373737"/></linearGradient><linearGradient x1="284.84722" y1="146.08009" x2="292.34722" y2="146.08009" gradientUnits="userSpaceOnUse" id="color-26"><stop offset="0" stop-color="#8c8c8c"/><stop offset="1" stop-color="#747474"/></linearGradient><linearGradient x1="232.2466" y1="107.0582" x2="260.12099" y2="107.0582" gradientUnits="userSpaceOnUse" id="color-27"><stop offset="0" stop-color="#929292"/><stop offset="1" stop-color="#7f7f7f"/></linearGradient><radialGradient cx="240.00004" cy="179.5" r="288.28829" gradientUnits="userSpaceOnUse" id="color-28"><stop offset="0" stop-color="#171717" stop-opacity="0"/><stop offset="1" stop-color="#171717"/></radialGradient></defs><g transform="translate(52.5909,58.68941)"><g data-paper-data="{&quot;isPaintingLayer&quot;:true}" fill-rule="nonzero" stroke-linejoin="miter" stroke-miterlimit="10" stroke-dasharray="" stroke-dashoffset="0" style="mix-blend-mode: normal"><path d="M296.25293,358.40587v-396.39639h216.21621v396.39639z" fill="url(#color-1)" stroke="none" stroke-width="0" stroke-linecap="butt"/><path d="M470.25295,355.89836v-396.39639h74.24324v396.39639z" fill="#1a1e19" stroke="none" stroke-width="0" stroke-linecap="butt"/><path d="M-52.59089,383.4359v-396.39639h387.21921v396.39639z" fill="url(#color-2)" stroke="none" stroke-width="0" stroke-linecap="butt"/><path d="M-34.5729,369.92242l369.36936,-184.68469l135.94102,8.22014l29.22416,93.88197v84.08408z" fill="#898989" stroke="none" stroke-width="NaN" stroke-linecap="butt"/><g fill="#000000" stroke="none" stroke-linecap="butt"><path d="M193.19446,256.53776l-1.5,-221.6161l92,5.83333v170.44944z" stroke-width="0"/><path d="M273.34722,155.33009v-40.5h7.5v40.5z" stroke-width="0"/><path d="M231.73516,92.3711l-0.33789,-24.78277l20.72371,0.67533v22.69565z" stroke-width="0"/><text transform="translate(238.01745,86.60763) scale(0.35431,0.5)" font-size="40" xml:space="preserve" fill="#000000" fill-rule="nonzero" stroke="none" stroke-width="1" stroke-linecap="butt" stroke-linejoin="miter" stroke-miterlimit="10" stroke-dasharray="" stroke-dashoffset="0" font-family="Sans Serif" font-weight="normal" text-anchor="start" style="mix-blend-mode: normal"><tspan x="0" dy="0">1</tspan></text></g><g stroke="none" stroke-linecap="butt"><path d="M-19.66167,361.5708l-2.20995,-352.0324l135.54354,17.11216v268.13067z" fill="url(#color-3)" stroke-width="0"/><path d="M98.42739,207.95709v-59.66863h11.04975v59.66863z" fill="url(#color-4)" stroke-width="0"/><path d="M37.12033,110.69514l-0.49781,-36.51244l30.53223,0.99497v33.43749z" fill="url(#color-5)" stroke-width="0"/><text transform="translate(46.37603,102.20383) scale(0.52201,0.73665)" font-size="40" xml:space="preserve" fill="#ffffff" fill-rule="nonzero" stroke="none" stroke-width="1" stroke-linecap="butt" stroke-linejoin="miter" stroke-miterlimit="10" stroke-dasharray="" stroke-dashoffset="0" font-family="Sans Serif" font-weight="normal" text-anchor="start" style="mix-blend-mode: normal"><tspan x="0" dy="0">2</tspan></text></g><g><path d="M331.35955,-1.66315l-0.89025,189.62224" fill="none" stroke="#909090" stroke-width="2" stroke-linecap="round"/><path d="M326.89851,187.82607v-189.93199h23.5915v190.13199c0,0 0.4308,4.38659 -12.01831,4.53497c-11.73117,0.13982 -11.57319,-4.73497 -11.57319,-4.73497z" fill="url(#color-6)" stroke="none" stroke-width="0" stroke-linecap="butt"/><path d="M326.1279,179.78415v-4.45123c0,0 8.06286,1.78049 12.20908,1.78049c4.30513,0 13.16291,-2.00305 13.16291,-2.00305v4.22866c0,0 -8.85778,2.22561 -13.16291,2.22561c-4.14622,0 -12.20908,-1.78049 -12.20908,-1.78049z" fill="url(#color-7)" stroke="none" stroke-width="0" stroke-linecap="butt"/><path d="M326.35044,156.63777v-4.45123c0,0 8.06286,1.78049 12.20908,1.78049c4.30513,0 13.16291,-2.00305 13.16291,-2.00305v4.22866c0,0 -8.85778,2.22561 -13.16291,2.22561c-4.14622,0 -12.20908,-1.78049 -12.20908,-1.78049z" fill="url(#color-8)" stroke="none" stroke-width="0" stroke-linecap="butt"/><path d="M326.35044,131.26578v-4.45123c0,0 8.06286,1.78049 12.20908,1.78049c4.30513,0 13.16291,-2.00305 13.16291,-2.00305v4.22866c0,0 -8.85778,2.22561 -13.16291,2.22561c-4.14622,0 -12.20908,-1.78049 -12.20908,-1.78049z" fill="url(#color-9)" stroke="none" stroke-width="0" stroke-linecap="butt"/><path d="M326.57302,108.1194v-4.45123c0,0 8.06286,1.78049 12.20908,1.78049c4.30513,0 13.16291,-2.00305 13.16291,-2.00305v4.22866c0,0 -8.85778,2.22561 -13.16291,2.22561c-4.14622,0 -12.20908,-1.78049 -12.20908,-1.78049z" fill="url(#color-10)" stroke="none" stroke-width="0" stroke-linecap="butt"/><path d="M326.1279,85.19559v-4.45123c0,0 8.06286,1.78049 12.20908,1.78049c4.30513,0 13.16291,-2.00305 13.16291,-2.00305v4.22866c0,0 -8.85778,2.22561 -13.16291,2.22561c-4.14622,0 -12.20908,-1.78049 -12.20908,-1.78049z" fill="url(#color-11)" stroke="none" stroke-width="0" stroke-linecap="butt"/><path d="M326.35044,62.04921v-4.45123c0,0 8.06286,1.78049 12.20908,1.78049c4.30513,0 13.16291,-2.00305 13.16291,-2.00305v4.22866c0,0 -8.85778,2.22561 -13.16291,2.22561c-4.14622,0 -12.20908,-1.78049 -12.20908,-1.78049z" fill="url(#color-12)" stroke="none" stroke-width="0" stroke-linecap="butt"/><path d="M326.1279,36.67722v-4.45123c0,0 8.06286,1.78049 12.20908,1.78049c4.30513,0 13.16291,-2.00305 13.16291,-2.00305v4.22866c0,0 -8.85778,2.22561 -13.16291,2.22561c-4.14622,0 -12.20908,-1.78049 -12.20908,-1.78049z" fill="url(#color-13)" stroke="none" stroke-width="0" stroke-linecap="butt"/><path d="M326.35044,13.53085v-4.45123c0,0 8.06286,1.78049 12.20908,1.78049c4.30513,0 13.16291,-2.00305 13.16291,-2.00305v4.22866c0,0 -8.85778,2.22561 -13.16291,2.22561c-4.14622,0 -12.20908,-1.78049 -12.20908,-1.78049z" fill="url(#color-14)" stroke="none" stroke-width="0" stroke-linecap="butt"/></g><g stroke="none" stroke-linecap="butt"><path d="M477.07433,160.82258v-81.51111l10,2.33333v82.51111z" fill="#8a8a8a" stroke-width="NaN"/><path d="M477.60625,156.21545v-71.90399l8.82137,2.05832v72.78612z" fill="url(#color-15)" stroke-width="NaN"/><path d="M477.93586,94.77589v-7l8.15603,2.2v7z" fill="url(#color-16)" stroke-width="0"/><path d="M477.91461,104.17589v-7l8.15603,2.2v7z" fill="url(#color-17)" stroke-width="0"/><path d="M477.91461,113.97589v-7l8.15603,2.2v7z" fill="url(#color-18)" stroke-width="0"/><path d="M477.89331,123.37589v-7l8.15603,2.2v7z" fill="url(#color-19)" stroke-width="0"/><path d="M477.89331,133.37589v-7l8.15603,2.2v7z" fill="url(#color-20)" stroke-width="0"/><path d="M477.89331,142.77589v-7l8.15603,2.2v7z" fill="url(#color-21)" stroke-width="0"/><path d="M477.89331,152.17589v-7l8.15603,2.2v7z" fill="url(#color-22)" stroke-width="0"/></g><g data-paper-data="{&quot;index&quot;:null}" stroke="none" stroke-width="0" stroke-linecap="butt"><path d="M368.19447,187.40954l-1,-144.43801l82.98571,-0.04987l0.80458,149.94943z" fill="url(#color-23)"/><path d="M370.46355,142.8807v-32.27632h5.9771v32.27632z" fill="url(#color-24)"/></g><path d="M362.71659,70.61803c-1.11803,-2.23607 1.11803,-3.3541 1.11803,-3.3541l1.35027,-0.5317c2.29098,-1.86812 1.26777,-4.21448 1.26777,-7.23223c0,-6.47239 -0.41344,-12.42322 -1.98127,-18.69454c-0.02208,-3.89625 -0.48237,-7.86835 1.30577,-11.53721c0.79287,-1.62679 3.2763,-2.57932 3.78277,-4.49271c0.27954,-1.05606 -0.0886,-2.18327 -0.10727,-3.27554c-0.08725,-5.10434 -0.77658,-9.25093 -2.8097,-14.04329c-0.34392,-0.81068 -0.83576,-1.56524 -1.27015,-2.33895c-0.0331,0.71776 -0.07156,1.23547 -0.11045,1.33895c-0.37683,1.00256 -1.63601,1.43683 -2.18307,2.35762c-0.5384,0.90622 -0.45767,2.09612 -1,3c-0.83607,1.39344 -2.42204,2.47846 -2.65891,4.08613c-0.61712,4.18854 1.9919,8.34593 2.03228,12.59954c0,2.81051 0.8184,8.89882 -0.10727,11.72446c-0.44947,1.37203 -1.54174,2.44153 -2.3126,3.66229l-1.31236,1.38102c0,0 -1.76777,1.76777 -3.53553,0c-1.76777,-1.76777 0,-3.53553 0,-3.53553l0.68764,-0.61898c2.62154,-3.63187 1.58013,-8.16362 1.58013,-12.61325c0.05708,-4.59666 -2.80492,-8.69125 -1.96772,-13.40046c0.24139,-1.3578 0.66274,-2.71316 1.34109,-3.91387c0.46375,-0.82087 1.51493,-1.19155 2,-2c0.54233,-0.90388 0.45318,-2.09883 1,-3c0.42351,-0.69796 1.48729,-0.89548 1.81693,-1.64238c0.62523,-1.41667 0.04724,-3.10799 -0.15802,-4.64284c-0.41124,-3.07511 -3.59516,-4.5341 -4.81857,-7.38907c-1.12499,-2.62531 -2.18827,-9.08273 -1.02341,-11.96809c0.22754,-0.56361 3.8478,-4.11693 4.54193,-4.81106c0,0 1.76777,-1.76777 3.53553,0c1.76777,1.76777 0,3.53553 0,3.53553c-1.10874,1.10874 -2.88552,1.72921 -3.45807,3.18894c-0.24977,0.63681 0.16555,1.35969 0.1903,2.04329c0.09745,2.69093 -0.38805,3.249 0.78629,5.98862c1.28457,2.99679 3.4031,3.95748 4.57092,6.6001c0.50113,-1.07624 1.37994,-2.01672 1.70968,-3.1631c0.31186,-1.08423 -0.29723,-2.33549 0.12342,-3.38233c0.39934,-0.99381 1.60601,-1.45533 2.18307,-2.35762c1.03476,-1.61796 0.64166,-4.00989 0.62663,-5.68567c0,0 0,-2.5 2.5,-2.5c2.5,0 2.5,2.5 2.5,2.5c-0.02575,3.51079 0.42755,5.14576 -1.37337,8.31433c-0.40341,0.70977 -1.51534,0.88372 -1.81693,1.64238c-0.32269,0.81174 0.36173,1.77728 0.12342,2.61767c-0.91764,3.23604 -2.96105,3.53833 -2,6.85124c1.28255,4.42119 4.25441,8.47844 5.0346,13.17393c0.0349,0.21003 0.03835,5.96365 0.03228,6.40046c-0.02187,1.57507 0.34394,3.21524 -0.10727,4.72446c-0.6623,2.21529 -3.15138,3.45543 -4.21723,5.50729c-1.24316,2.39319 -0.6763,5.88338 -0.69423,8.46279c1.61041,6.44166 2.01873,12.64173 2.01873,19.30546c0,0.61643 0.06405,7.32667 -0.1903,7.95671c-0.47293,1.17144 -1.69462,1.87404 -2.54193,2.81106l-2.64973,1.4683c0,0 -2.23607,1.11803 -3.3541,-1.11803z" fill="#000000" stroke="none" stroke-width="0.5" stroke-linecap="butt"/><path d="M393.72042,53.26777c-1.76776,1.76776 -3.53553,0 -3.53553,0l-1.60395,-1.97719c-0.33333,-1 -0.66667,-2 -1,-3c-0.69756,-2.14851 -2.33731,-3.91315 -3.02102,-6.06611c-0.87454,-2.75388 -0.34501,-8.81347 1.34582,-11.15977c0.90368,-1.25402 2.57925,-1.7634 3.59636,-2.92732c0.89594,-1.02527 2.71128,-4.29311 2.98284,-6.03782c0.66892,-4.29765 -1.20223,-6.555 -3.56039,-10.13777c-0.62097,-0.94343 -1.87805,-1.45016 -2.28159,-2.50506c-0.47177,-1.23327 -0.16288,-2.63657 -0.1903,-3.95671c-0.1356,-6.53003 1.923,-10.14143 5.41987,-15.38675c0,0 1.38675,-2.08013 3.46688,-0.69338c2.08013,1.38675 0.69338,3.46688 0.69338,3.46688c-3.09192,4.63789 -4.41125,6.96572 -4.58013,12.61325c-0.02044,0.68374 -0.46152,1.41531 -0.1903,2.04329c0.30102,0.697 1.29291,0.86615 1.71841,1.49494c0.83545,1.2346 1.18042,2.75481 2,4c0.62097,0.94344 1.87805,1.45016 2.28159,2.50507c0.15482,0.40471 0.28005,6.65757 0.15802,7.35717c-0.48489,2.78006 -2.48257,6.54285 -4.16212,8.53711c-0.88162,1.04682 -2.36632,1.46007 -3.25868,2.49776c-0.86863,1.01008 -0.53129,3.54901 -0.54692,4.56468c-0.04938,3.21017 1.8093,5.08819 2.87171,8.20943c0.33333,1 0.66667,2 1,3l0.39605,0.02281c0,0 1.76776,1.76776 0,3.53553z" fill="#000000" stroke="none" stroke-width="0.5" stroke-linecap="butt"/><path d="M46.95265,129c-2.5,0 -2.5,-2.5 -2.5,-2.5l0.73223,-3.76777c0.48602,-0.39631 1.22908,-0.60512 1.45807,-1.18894c0.24977,-0.63681 -0.12687,-1.36219 -0.1903,-2.04329c0,-3.39963 0.52344,-7.25001 0.03228,-10.59954c-0.15293,-1.04294 -0.83216,-1.95936 -1,-3c-0.04177,-0.25901 -0.03228,-5.92044 -0.03228,-6.40046c0,-3.70636 -0.38126,-7.67343 0.03218,-11.34934c0.30907,-2.74795 1.6057,-5.31411 2.0001,-8.05112c0.36131,-2.50731 -0.03228,-5.06634 -0.03228,-7.59954c0,-5.33333 0,-10.66667 0,-16c0,-5.09602 -0.28912,-9.46247 1.37337,-14.31433c3.18536,-3.31308 6.97795,-6.15794 7.64536,-10.99113c0.41323,-2.9925 -0.52001,-2.94702 -1,-6.38908c-0.43146,-3.09405 0.41344,-3.74055 0.01355,-6.905c-0.26685,-2.11165 -2.24559,-3.6589 -2.92501,-5.676c-0.31921,-0.94768 0.31623,-2.05132 0,-3c-0.38006,-1.14018 -1.64061,-1.85314 -2,-3c-1.88998,-6.03107 1.28463,-10.63454 6.00598,-13.80459c2.04009,-1.36977 4.26996,-2.49978 6.59618,-3.29158c0,0 2.37171,-0.79057 3.16228,1.58114c0.79057,2.37171 -1.58114,3.16228 -1.58114,3.16228c-1.91638,0.6222 -3.72275,1.59772 -5.40382,2.70842c-2.99689,1.98007 -3.88675,2.36534 -3.88675,5.91987c0,0.75936 -0.3637,1.56079 -0.10727,2.27554c0.40586,1.13125 1.61994,1.85982 2,3c0.31623,0.94868 -0.31284,2.05019 0,3c0.73329,2.22634 2.71625,4.00763 3.07499,6.324c0.36196,2.33714 -0.32944,4.755 0.01355,7.095c0.66192,4.51583 2.01259,7.83514 -0.22392,12.37989c-1.59901,3.2493 -4.53849,5.79706 -7.13072,8.2399c-1.17474,3.71928 -0.62663,7.80063 -0.62663,11.68567c0,5.33333 0,10.66667 0,16c0,0.52462 0.00978,8.10387 -0.03228,8.40046c-0.37439,2.63985 -1.67072,5.10427 -1.96106,7.75469c-0.38517,3.51609 -0.00666,7.30171 -0.00666,10.84486c0,1.86655 -0.35015,3.76026 -0.03228,5.59954c0.17951,1.0387 0.85438,1.95602 1,3c0.50656,3.63157 0.03228,7.72084 0.03228,11.40046c-0.06343,1.3189 0.30401,2.7323 -0.1903,3.95671c-0.47293,1.17144 -1.69462,1.87404 -2.54193,2.81106l0.73223,0.23223c0,0 0,2.5 -2.5,2.5z" fill="#000000" stroke="none" stroke-width="0.5" stroke-linecap="butt"/><path d="M34.95264,160c-2.5,0 -2.5,-2.5 -2.5,-2.5c0,-8.66667 0,-18.33333 0,-27c0,-3.33336 -0.51326,-7.11714 0.03228,-10.40046c0.68374,-4.11507 3.31414,-7.90124 4,-12c0.37986,-2.27011 -0.29377,-4.62045 -0.01355,-6.905c0.16732,-1.36415 0.80068,-2.64016 1,-4c1.09977,-7.50297 -1.04872,-15.47945 0,-23c0.18982,-1.3612 0.80068,-2.64016 1,-4c0.48201,-3.28846 -0.0799,-5.81465 1.01355,-9.095c-0.02557,-7.36933 1.97685,-14.78516 0.98645,-22.29409c-0.30772,-2.33302 -2.04552,-4.24718 -2.8527,-6.45763c-0.6539,-1.79071 -0.90479,-3.71146 -1.15387,-5.60148c-0.9268,-7.03255 0.81499,-13.80602 2.012,-20.5931c0.18688,-1.05962 -0.27884,-2.20083 0.04271,-3.22763c0.56664,-1.80942 1.37927,-3.59571 2.55893,-5.08012c1.35984,-1.71114 3.56822,-2.56049 5.10643,-4.11326c0,0 1.76777,-1.76777 3.53553,0c1.76777,1.76777 0,3.53553 0,3.53553c-1.47879,1.46713 -3.50469,2.33422 -4.89357,3.88674c-1.30269,1.45618 -1.06065,3.76782 -1.39836,5.69225c-1.25421,7.14698 -3.99853,16.32778 -1.18071,23.61123c0.43765,1.13122 1.5344,1.92076 1.99629,3.0423c0.6147,1.49261 0.94872,3.09813 1.18986,4.69426c1.19715,7.92404 -0.98774,15.90653 -1.01355,23.70591c-1.12257,3.36771 -0.50923,5.48277 -0.98645,8.905c-0.18982,1.3612 -0.80068,2.64016 -1,4c-1.09968,7.50235 1.04863,15.48014 0,23c-0.18982,1.3612 -0.82614,2.63667 -1,4c-0.12647,0.99169 0.16936,5.99418 -0.01355,7.095c-0.68374,4.11507 -3.31414,7.90124 -4,12c-0.50407,3.01239 0.03228,6.5333 0.03228,9.59954c0,8.66667 0,17.33333 0,26v1c0,0 0,2.5 -2.5,2.5z" fill="#000000" stroke="none" stroke-width="0.5" stroke-linecap="butt"/><path d="M192.69446,256.53776l-1,-221.6161l108,1.33333l-2,203.94944z" fill="url(#color-25)" stroke="none" stroke-width="0" stroke-linecap="butt"/><path d="M284.84722,166.33009v-40.5h7.5v40.5z" fill="url(#color-26)" stroke="none" stroke-width="0" stroke-linecap="butt"/><path d="M232.84929,103.24216l-0.45202,-33.15383l27.72371,0.23455v33.03728z" fill="url(#color-27)" stroke="none" stroke-width="0" stroke-linecap="butt"/><text transform="translate(241.2536,95.53192) scale(0.47399,0.66889)" font-size="40" xml:space="preserve" fill="#ffffff" fill-rule="nonzero" stroke="none" stroke-width="1" stroke-linecap="butt" stroke-linejoin="miter" stroke-miterlimit="10" stroke-dasharray="" stroke-dashoffset="0" font-family="Sans Serif" font-weight="normal" text-anchor="start" style="mix-blend-mode: normal"><tspan x="0" dy="0">1</tspan></text><path d="M-48.28826,417.68941v-476.37882h576.57658v476.37882z" fill="url(#color-28)" stroke="none" stroke-width="0" stroke-linecap="butt"/></g></g></svg>