<svg version="1.1" xmlns="http://www.w3.org/2000/svg" xmlns:xlink="http://www.w3.org/1999/xlink" width="410.65778" height="384.5237" viewBox="0,0,410.65778,384.5237"><defs><linearGradient x1="382.68627" y1="450.73818" x2="384.20226" y2="454.84014" gradientUnits="userSpaceOnUse" id="color-1"><stop offset="0" stop-color="#a4a4a4"/><stop offset="1" stop-color="#d8d8d8"/></linearGradient><linearGradient x1="388.07053" y1="434.47452" x2="388.07053" y2="514.02297" gradientUnits="userSpaceOnUse" id="color-2"><stop offset="0" stop-color="#0b2a00"/><stop offset="1" stop-color="#101800"/></linearGradient><linearGradient x1="348.8526" y1="406.36183" x2="343.87197" y2="412.17229" gradientUnits="userSpaceOnUse" id="color-3"><stop offset="0" stop-color="#a4a4a4"/><stop offset="1" stop-color="#d8d8d8"/></linearGradient><linearGradient x1="328.10079" y1="393.61357" x2="331.42107" y2="396.45963" gradientUnits="userSpaceOnUse" id="color-4"><stop offset="0" stop-color="#a4a4a4"/><stop offset="1" stop-color="#d8d8d8"/></linearGradient><linearGradient x1="362.09406" y1="422.27213" x2="358.77376" y2="419.42604" gradientUnits="userSpaceOnUse" id="color-5"><stop offset="0" stop-color="#a4a4a4"/><stop offset="1" stop-color="#d8d8d8"/></linearGradient><linearGradient x1="358.65587" y1="392.68542" x2="354.86108" y2="397.11246" gradientUnits="userSpaceOnUse" id="color-6"><stop offset="0" stop-color="#a4a4a4"/><stop offset="1" stop-color="#d8d8d8"/></linearGradient><linearGradient x1="331.89472" y1="424.4652" x2="335.6895" y2="420.03815" gradientUnits="userSpaceOnUse" id="color-7"><stop offset="0" stop-color="#a4a4a4"/><stop offset="1" stop-color="#d8d8d8"/></linearGradient><linearGradient x1="346.0457" y1="369.1062" x2="346.0457" y2="451.79284" gradientUnits="userSpaceOnUse" id="color-8"><stop offset="0" stop-color="#0b2a00"/><stop offset="1" stop-color="#101800"/></linearGradient><linearGradient x1="154.35747" y1="389.46726" x2="150.84334" y2="392.07013" gradientUnits="userSpaceOnUse" id="color-9"><stop offset="0" stop-color="#a4a4a4"/><stop offset="1" stop-color="#d8d8d8"/></linearGradient><linearGradient x1="118.41329" y1="415.63727" x2="121.92747" y2="413.03434" gradientUnits="userSpaceOnUse" id="color-10"><stop offset="0" stop-color="#a4a4a4"/><stop offset="1" stop-color="#d8d8d8"/></linearGradient><linearGradient x1="123.94564" y1="386.36978" x2="127.41619" y2="391.05533" gradientUnits="userSpaceOnUse" id="color-11"><stop offset="0" stop-color="#a4a4a4"/><stop offset="1" stop-color="#d8d8d8"/></linearGradient><linearGradient x1="148.38043" y1="419.97116" x2="144.90987" y2="415.28563" gradientUnits="userSpaceOnUse" id="color-12"><stop offset="0" stop-color="#a4a4a4"/><stop offset="1" stop-color="#d8d8d8"/></linearGradient><linearGradient x1="135.21288" y1="363.86537" x2="135.21288" y2="446.07396" gradientUnits="userSpaceOnUse" id="color-13"><stop offset="0" stop-color="#0b2a00"/><stop offset="1" stop-color="#101800"/></linearGradient><linearGradient x1="47.58242" y1="490.04914" x2="47.58242" y2="551.42837" gradientUnits="userSpaceOnUse" id="color-14"><stop offset="0" stop-color="#0b2a00"/><stop offset="1" stop-color="#101800"/></linearGradient><linearGradient x1="233.50967" y1="504.35067" x2="253.81645" y2="504.35067" gradientUnits="userSpaceOnUse" id="color-15"><stop offset="0" stop-color="#a4a4a4"/><stop offset="1" stop-color="#d8d8d8"/></linearGradient><radialGradient cx="243.1796" cy="444.35035" r="16.43878" gradientUnits="userSpaceOnUse" id="color-16"><stop offset="0" stop-color="#d8d8d8"/><stop offset="1" stop-color="#a4a4a4"/></radialGradient><linearGradient x1="270.74511" y1="418.84064" x2="261.9989" y2="418.84064" gradientUnits="userSpaceOnUse" id="color-17"><stop offset="0" stop-color="#a4a4a4"/><stop offset="1" stop-color="#d8d8d8"/></linearGradient><linearGradient x1="215.61958" y1="420.32722" x2="224.36572" y2="420.32722" gradientUnits="userSpaceOnUse" id="color-18"><stop offset="0" stop-color="#a4a4a4"/><stop offset="1" stop-color="#d8d8d8"/></linearGradient><linearGradient x1="243.10917" y1="453.80287" x2="243.10917" y2="463.2779" gradientUnits="userSpaceOnUse" id="color-19"><stop offset="0" stop-color="#a4a4a4"/><stop offset="1" stop-color="#d8d8d8"/></linearGradient><linearGradient x1="273.96965" y1="418.49136" x2="284.29035" y2="422.28495" gradientUnits="userSpaceOnUse" id="color-20"><stop offset="0" stop-color="#a4a4a4"/><stop offset="1" stop-color="#d8d8d8"/></linearGradient><linearGradient x1="211.13401" y1="417.17148" x2="200.58871" y2="421.0476" gradientUnits="userSpaceOnUse" id="color-21"><stop offset="0" stop-color="#a4a4a4"/><stop offset="1" stop-color="#d8d8d8"/></linearGradient><linearGradient x1="243.78776" y1="375.27115" x2="243.78776" y2="383.21485" gradientUnits="userSpaceOnUse" id="color-22"><stop offset="0" stop-color="#a4a4a4"/><stop offset="1" stop-color="#d8d8d8"/></linearGradient><linearGradient x1="241.13887" y1="351.93366" x2="241.13887" y2="572.47949" gradientUnits="userSpaceOnUse" id="color-23"><stop offset="0" stop-color="#0b2a00"/><stop offset="1" stop-color="#101800"/></linearGradient><linearGradient x1="242.23878" y1="269.38866" x2="242.23878" y2="343.74699" gradientUnits="userSpaceOnUse" id="color-24"><stop offset="0" stop-color="#0b2a00"/><stop offset="1" stop-color="#101800"/></linearGradient><linearGradient x1="158.1806" y1="252.4834" x2="328.19743" y2="252.4834" gradientUnits="userSpaceOnUse" id="color-25"><stop offset="0" stop-color="#0b2a00"/><stop offset="1" stop-color="#101800"/></linearGradient><radialGradient cx="215.75137" cy="214.96267" r="5.14702" gradientUnits="userSpaceOnUse" id="color-26"><stop offset="0" stop-color="#ffffff"/><stop offset="1" stop-color="#ffffff" stop-opacity="0"/></radialGradient><radialGradient cx="268.8788" cy="214.96267" r="5.14702" gradientUnits="userSpaceOnUse" id="color-27"><stop offset="0" stop-color="#ffffff"/><stop offset="1" stop-color="#ffffff" stop-opacity="0"/></radialGradient></defs><g transform="translate(-14.76698,-188.24707)"><g data-paper-data="{&quot;isPaintingLayer&quot;:true}" fill-rule="nonzero" stroke-linecap="butt" stroke-linejoin="miter" stroke-miterlimit="10" stroke-dasharray="" stroke-dashoffset="0" style="mix-blend-mode: normal"><path d="M327.61787,270.79299c0,16.29612 -168.6513,14.83604 -169.87341,0c-1.68645,-20.47305 13.11274,-38.60902 35.68227,-49.52746c14.09514,-6.81881 84.725,-6.65635 98.64131,0.42225c21.52357,10.94806 35.54982,28.86279 35.54982,49.10522z" fill="#000000" stroke="#000000" stroke-width="0"/><g data-paper-data="{&quot;index&quot;:null}"><path d="M376.93271,439.22316c32.71303,-14.02203 39.16929,2.1855 46.59354,21.26593c0.02978,0.07651 0.05951,0.15298 0.08923,0.22941c-6.09095,0.64162 -13.65992,2.85416 -18.68655,5.95616c-1.53842,0.94937 -2.47538,2.82096 -4.15801,3.48181c-3.13366,1.23068 -7.58734,1.60959 -10.03151,4.27026c-5.24882,5.71374 -2.03241,12.58185 3.32915,15.89224c7.0774,3.66335 1.49531,10.00333 3.0056,15.69306c0.39099,1.47298 1.08379,2.82906 1.97108,4.10163c-29.86788,10.38407 -34.75671,-4.90634 -41.82038,-23.06004c-7.42431,-19.08044 -16.39187,-32.35678 19.70783,-47.83044z" fill="#000000" stroke="#000000" stroke-width="0"/><path d="M380.36326,435.7369c2.17359,-0.23794 2.41153,1.93566 2.41153,1.93566l0.04091,0.97359c1.04531,2.95129 1.22385,6.26505 1.15497,9.60205c0.29641,0.06637 0.60888,0.13944 0.93931,0.22364c1.49702,0.38148 2.91563,1.02263 4.37342,1.53395c0,0 1.57028,0.55676 1.48346,2.06902c0.23729,0.31744 0.34216,0.60119 0.34216,0.60119l0.37903,1.02551c1.03291,2.82822 1.83597,4.93512 1.1112,7.16426c1.99539,0.83043 3.99081,1.66083 5.98615,2.49124c0,0 1.86665,0.77684 1.26308,2.63142c0.09551,0.14184 0.17574,0.29727 0.23766,0.4648c0.05894,0.15946 0.09811,0.32135 0.11873,0.48307c0.37374,0.57964 0.39475,1.22987 0.39475,1.22987l0.07435,2.30366c0.07747,2.46747 1.01089,4.97394 0.4998,7.38915c-0.18955,0.89579 -0.73454,1.91047 -1.42805,2.95155c0.90874,0.50964 1.73242,1.14731 2.36704,1.99408c2.51304,3.35332 2.41123,8.16298 1.78927,12.74803c3.58446,1.68467 7.18979,5.36739 5.64387,9.81136c-0.54759,1.57419 -2.13029,2.48901 -3.47405,3.56852c0.13049,0.53975 0.06189,1.21109 -0.585,1.90118c-1.4955,1.59519 -3.09065,0.09974 -3.09065,0.09974c-0.70336,-0.68605 -1.40667,-1.37217 -2.11002,-2.05823l-0.98705,-2.5019c0,0 -0.02042,-0.05526 -0.04547,-0.15103c-0.02962,-0.06171 -0.05664,-0.12536 -0.08085,-0.19084c-0.13121,-0.35503 -0.16443,-0.72232 -0.1133,-1.07223c-0.92383,-0.71368 -0.76367,-2.00573 -0.76367,-2.00573c0.2037,-1.64333 0.52117,-3.36845 0.8106,-5.11602c-1.77565,-1.5869 -3.57802,-3.14582 -5.26145,-4.82911c-1.34689,-1.34677 -3.4063,-2.33567 -3.90151,-4.17487c-0.39188,-1.45548 1.05778,-2.82385 1.64311,-4.21292c0.28743,-0.68211 0.6181,-1.3172 0.97842,-1.92491c-4.19882,-2.11636 -8.99436,-9.50082 -8.665,-14.22573c0.21256,-3.04955 1.51817,-3.77095 2.58011,-5.4141c-0.83111,-0.34589 -1.64504,-0.68461 -2.43079,-1.01161c0,0 -0.23072,-0.09603 -0.5037,-0.30115c-0.53444,-0.10186 -1.02117,-0.40141 -1.35133,-0.84854c-0.60516,-0.20365 -1.11625,-0.66931 -1.35484,-1.31486c-0.05681,-0.15364 -0.09522,-0.30959 -0.11641,-0.46542c-1.46883,-0.42264 -1.46085,-2.1013 -1.46085,-2.1013c0.00787,-1.66021 0.15045,-3.49563 0.27696,-5.38289c-2.33266,-0.99375 -4.26996,-2.53572 -5.24679,-5.56008c-0.34344,-1.06326 -1.05311,-2.14368 -0.85021,-3.24245c0.30118,-1.63096 1.97029,-2.78742 2.29746,-4.41334l0.87805,-0.76854c0.2428,-0.45911 0.6491,-0.83387 1.17457,-1.0281c0.25926,-0.0958 0.52501,-0.13937 0.78574,-0.13599c0.09522,-0.00253 0.19561,-0.00004 0.29898,0.00973c0.2855,-0.36777 0.74602,-0.67335 1.48634,-0.75438zM378.39429,444.55398c0.44139,0.9164 0.87395,1.56007 1.33834,2.02909c-0.01609,-1.50934 -0.12826,-2.98186 -0.41426,-4.35397c-0.0411,0.09638 -0.08607,0.1912 -0.13547,0.28432c-0.29285,0.5516 -1.22927,0.59851 -1.45442,1.18104c-0.13065,0.33805 0.50853,0.533 0.6658,0.85952zM386.91394,453.82291c-1.03473,-0.32547 -2.09415,-0.59321 -3.14125,-0.86412c-0.06495,1.29766 -0.12286,2.57388 -0.13547,3.8078c0.39853,0.14507 0.75328,0.40478 1.01195,0.75506c0.24382,0.08205 0.47232,0.20664 0.67393,0.36838c0.24731,0.05058 0.40632,0.11672 0.40632,0.11672l0.74354,0.30945c0.7104,0.29566 1.4208,0.5913 2.1312,0.88693c0.159,-1.14934 -0.58635,-2.30008 -1.21805,-3.98563l-0.379,-1.02548c0,0 -0.05309,-0.14372 -0.09317,-0.36915zM395.98419,467.96921c-0.12333,-0.33359 -0.1601,-0.67802 -0.12166,-1.00869c-1.64824,-0.68596 -3.39374,-1.41235 -5.14356,-2.14054c-0.10262,0.33756 -0.23113,0.66187 -0.43057,0.95014c-0.65424,0.94551 -2.04198,1.64904 -2.0165,2.79851c0.0668,3.01026 3.37406,9.19472 6.26478,10.23215c0.19359,0.0695 0.39239,0.13796 0.59525,0.2063c0.18466,-0.25177 0.36948,-0.50622 0.55333,-0.76491c0.36955,-0.52002 1.13408,-0.82342 1.24778,-1.45118c0.369,-2.03754 -0.56148,-4.1105 -0.62996,-6.18007l-0.06973,-2.15998c-0.10057,-0.1464 -0.18481,-0.30753 -0.24919,-0.48172zM396.79718,489.78221c1.02303,0.8291 1.99949,1.71228 2.96095,2.61293c0.047,-1.03254 0.03165,-2.05117 -0.07623,-3.04316c-0.05774,-0.53085 -0.6188,-3.35576 -0.9381,-3.75904c-0.45347,-0.57274 -1.01147,-0.97645 -1.62001,-1.28474c-0.63059,0.81006 -1.20306,1.56682 -1.60135,2.21847c-0.34584,0.56574 -1.51794,0.90841 -1.27618,1.52584c0.37458,0.95665 1.75277,1.08286 2.55094,1.7297zM405.53456,503.62217c0.65833,-1.2218 -0.93076,-2.62621 -2.36878,-3.51521c-0.20869,1.20591 -0.40148,2.34694 -0.53007,3.38448c0,0 -0.00444,0.03592 -0.01684,0.09788c0.28717,0.23743 0.51738,0.55148 0.65585,0.92611c0.02421,0.06549 0.04511,0.13136 0.06271,0.19751c0.04322,0.08904 0.06364,0.1443 0.06364,0.1443l0.20684,0.62561c0.76051,-0.52731 1.49895,-1.06689 1.92667,-1.86072z" fill="#000000" stroke="none" stroke-width="0.5"/><g stroke="none" stroke-width="0"><path d="M401.58466,512.91056l-28.29904,-76.57002l7.17846,-2.65305l28.29902,76.57001z" fill="#000000"/><path d="M370.35818,459.95666l-1.51602,-4.10193l27.68825,-10.23314l1.51602,4.10199z" fill="url(#color-1)"/><path d="M410.76903,483.09667l1.51602,4.10195l-27.68825,10.23312l-1.51602,-4.10199z" data-paper-data="{&quot;index&quot;:null}" fill="#000000"/><path d="M409.89985,495.46204l-5.41033,-28.30512l-14.5506,-25.70407l5.46927,-2.02136l14.42425,25.36225l5.53665,28.64692z" fill="#000000"/><path d="M385.41436,504.90006l-14.42425,-25.36225l-5.53669,-28.64698l5.46927,-2.02134l5.66304,28.98878l14.2979,25.02041z" data-paper-data="{&quot;index&quot;:null}" fill="#000000"/><path d="M399.28005,511.73433c-1.11084,-3.00568 0.42523,-6.34275 3.43086,-7.45359c3.0057,-1.11084 6.34275,0.42523 7.45359,3.43086c1.11084,3.00568 -0.42517,6.34275 -3.43086,7.45359c-3.00568,1.11084 -6.34275,-0.42523 -7.45359,-3.43086z" fill="#000000"/></g><path d="M357.44457,487.59313c-7.42431,-19.08044 -16.39187,-32.35678 19.70783,-47.83044c32.71304,-14.02199 39.16927,2.18553 46.59353,21.26593c0.57784,1.48498 1.14303,2.9494 1.67883,4.39366c-2.46853,2.20673 -4.98884,4.4478 -7.00486,7.00623c-1.16729,1.48138 -1.60346,3.5491 -3.03846,4.77294c-2.02115,1.72373 -7.23643,1.22666 -9.74273,2.52099c-4.91039,2.53589 -8.83465,4.49561 -13.28818,7.94369c-1.31345,1.01694 -3.52076,0.69249 -4.57464,1.97647c-1.08772,1.32516 -1.24654,3.19418 -1.86979,4.79131c-2.89988,6.91308 -0.08613,13.27032 4.20848,18.77751c-21.84221,4.35784 -26.39902,-9.50184 -32.66998,-25.61824z" fill="url(#color-2)" stroke="#000000" stroke-width="0"/></g><g data-paper-data="{&quot;index&quot;:null}"><path d="M317.47161,386.35278c21.75755,-28.16679 35.2838,-17.14826 51.05355,-4.0908c15.76976,13.05745 28.07479,24.16269 6.05383,51.37608c-23.15208,28.61124 -35.2838,17.14826 -51.05355,4.0908c-15.76979,-13.05745 -30.0639,-20.2933 -6.05383,-51.37608z" fill="#525252" stroke="#000000" stroke-width="0"/><path d="M318.77248,381.63786c1.7832,-1.26543 3.04864,0.51778 3.04864,0.51778l0.50943,0.8307c2.3492,2.06982 4.11745,4.87804 5.68092,7.82694c0.29126,-0.08623 0.59981,-0.17443 0.92946,-0.26165c1.49351,-0.39505 3.0448,-0.52512 4.56721,-0.7877c0,0 1.64277,-0.27759 2.30267,1.08583c0.36175,0.16187 0.59145,0.35876 0.59145,0.35876l0.83008,0.71154c2.27849,1.9683 4.00519,3.41832 4.45656,5.71845c2.14731,-0.24535 4.29465,-0.49069 6.44197,-0.73604c0,0 2.00874,-0.22955 2.38377,1.68443c0.15243,0.07745 0.29818,0.1742 0.43376,0.29043c0.12908,0.11063 0.24204,0.23302 0.33877,0.36429c0.60855,0.32459 0.94325,0.88242 0.94325,0.88242l1.18581,1.97644c1.26823,2.118 3.30325,3.85366 4.03183,6.21239c0.27023,0.87482 0.28778,2.02647 0.18843,3.27345c1.04189,0.00313 2.07176,0.15943 3.03816,0.59047c3.82707,1.70693 6.07823,5.95847 7.76571,10.26683c3.95127,-0.27219 8.89291,1.19109 9.70447,5.82576c0.28746,1.64172 -0.65015,3.21101 -1.29885,4.80795c0.37658,0.40805 0.64337,1.02796 0.41392,1.94559c-0.5304,2.12125 -2.65165,1.59089 -2.65165,1.59089c-0.94828,-0.2572 -1.89658,-0.51441 -2.84486,-0.77157l-2.07964,-1.70557c0,0 -0.04472,-0.03837 -0.11323,-0.10983c-0.05591,-0.0395 -0.11046,-0.08197 -0.16349,-0.12737c-0.28738,-0.24633 -0.49508,-0.55109 -0.62066,-0.88162c-1.15434,-0.17402 -1.64306,-1.38076 -1.64306,-1.38076c-0.6216,-1.53476 -1.18357,-3.1964 -1.78095,-4.86401c-2.32339,-0.52249 -4.65655,-1.00749 -6.94627,-1.65903c-1.83199,-0.52129 -4.11236,-0.38322 -5.43983,-1.74911c-1.05052,-1.08091 -0.4498,-2.98174 -0.61427,-4.48008c-0.08076,-0.73578 -0.10087,-1.4515 -0.08179,-2.15775c-4.698,0.19393 -12.48055,-3.92429 -14.49171,-8.21245c-1.29806,-2.76768 -0.50838,-4.03312 -0.38007,-5.9854c-0.89441,0.10218 -1.77027,0.20227 -2.61586,0.29888c0,0 -0.2483,0.02837 -0.58659,-0.01802c-0.51648,0.17104 -1.08746,0.14615 -1.59346,-0.08385c-0.6278,0.11651 -1.30087,-0.04163 -1.8234,-0.48954c-0.12439,-0.10659 -0.23382,-0.22415 -0.32816,-0.34997c-1.48888,0.34541 -2.29863,-1.12503 -2.29863,-1.12503c-0.80088,-1.45429 -1.56932,-3.12718 -2.37705,-4.83755c-2.52146,0.26675 -4.96421,-0.13781 -7.28909,-2.3048c-0.81736,-0.76183 -1.96304,-1.36045 -2.32041,-2.4191c-0.5304,-1.5714 0.3652,-3.39389 -0.14009,-4.97355l0.39319,-1.09867c-0.01127,-0.51924 0.16134,-1.04436 0.52596,-1.46971c0.17988,-0.20982 0.39089,-0.37717 0.6203,-0.50113c0.08198,-0.04853 0.17092,-0.09518 0.26595,-0.13694c0.0705,-0.46021 0.3242,-0.95126 0.93151,-1.38223zM321.34215,390.29895c0.83148,0.58587 1.52259,0.93777 2.15652,1.12159c-0.74841,-1.31083 -1.56284,-2.54273 -2.48031,-3.60232c0.01099,0.10419 0.01784,0.20892 0.01995,0.31434c0.01253,0.62438 -0.78275,1.12099 -0.69603,1.73947c0.05036,0.35891 0.70365,0.21825 0.99988,0.42698zM333.29518,394.25163c-1.06237,0.21908 -2.11818,0.50065 -3.16477,0.77341c0.57458,1.16531 1.14497,2.30847 1.73431,3.39262c0.41873,-0.06716 0.85503,-0.01287 1.25145,0.1673c0.25293,-0.04697 0.5132,-0.04928 0.76805,-0.00608c0.24068,-0.07614 0.41177,-0.09572 0.41177,-0.09572l0.80018,-0.09143c0.76449,-0.08734 1.52897,-0.17467 2.29346,-0.26204c-0.42032,-1.08149 -1.6314,-1.72421 -3.00336,-2.88943l-0.83005,-0.71153c0,0 -0.11632,-0.09974 -0.26099,-0.27715zM348.10225,402.19753c-0.27006,-0.23145 -0.46974,-0.51446 -0.59706,-0.82203c-1.77374,0.20267 -3.65215,0.41729 -5.53516,0.63244c0.07457,0.34482 0.12012,0.69071 0.0861,1.03958c-0.11155,1.14434 -0.98167,2.43421 -0.4001,3.42604c1.52299,2.59743 7.42143,6.39139 10.45167,5.89127c0.20295,-0.03348 0.40992,-0.07041 0.62041,-0.1094c0.03881,-0.30982 0.07651,-0.62203 0.11125,-0.93749c0.06986,-0.63411 0.59018,-1.27118 0.38406,-1.87492c-0.66898,-1.95963 -2.49048,-3.31797 -3.55726,-5.09274l-1.11185,-1.85315c-0.15909,-0.07895 -0.31107,-0.17876 -0.45207,-0.29963zM359.42558,420.85894c1.29717,0.22657 2.57996,0.52311 3.85814,0.84218c-0.46129,-0.92497 -0.97034,-1.80742 -1.54723,-2.62156c-0.30873,-0.43567 -2.17329,-2.6307 -2.64851,-2.82769c-0.67484,-0.27974 -1.35877,-0.36094 -2.04044,-0.33419c-0.15678,1.01453 -0.28869,1.95421 -0.31964,2.71729c-0.02684,0.66252 -0.88417,1.53224 -0.37255,1.95397c0.7927,0.65354 2.05818,0.09324 3.07021,0.27zM373.79279,428.69921c-0.01929,-1.38773 -2.09094,-1.84153 -3.77981,-1.91857c0.40444,1.15507 0.79114,2.24574 1.1836,3.21477c0,0 0.0136,0.03352 0.03294,0.09369c0.36641,0.06772 0.72033,0.23007 1.02358,0.49001c0.05301,0.04544 0.10334,0.09285 0.15087,0.14208c0.08107,0.05678 0.12581,0.09512 0.12581,0.09512l0.48511,0.44595c0.40785,-0.83073 0.79046,-1.66142 0.7779,-2.56305z" fill="#000000" stroke="none" stroke-width="0.5"/><g stroke="none" stroke-width="0"><path d="M374.86116,438.73583l-61.97838,-53.12704l4.98066,-5.81048l61.97839,53.127z" fill="url(#color-3)"/><path d="M321.81549,407.66557l-3.32027,-2.84607l19.21113,-22.41185l3.32029,2.84609z" fill="url(#color-4)"/><path d="M368.37935,408.22013l3.32027,2.84609l-19.21111,22.41182l-3.32027,-2.8461z" data-paper-data="{&quot;index&quot;:null}" fill="url(#color-5)"/><path d="M373.63626,419.44619l-18.49849,-22.09654l-25.21839,-15.37698l3.79478,-4.42702l24.94172,15.1398l18.77517,22.33371z" fill="url(#color-6)"/><path d="M356.83641,439.605l-24.94172,-15.1398l-18.7752,-22.33373l3.79478,-4.42702l19.05187,22.57088l24.66501,14.90263z" data-paper-data="{&quot;index&quot;:null}" fill="url(#color-7)"/><path d="M371.64633,430.64838c2.08547,-2.43289 5.74824,-2.71455 8.18112,-0.62911c2.43289,2.08547 2.71456,5.74827 0.62915,8.18113c-2.08547,2.43289 -5.74827,2.71455 -8.18113,0.62911c-2.43289,-2.08544 -2.71455,-5.74824 -0.62911,-8.18112z" fill="#000000"/></g><path d="M323.97988,438.0933c-15.76979,-13.05745 -30.0639,-20.2933 -6.05383,-51.37608c21.75755,-28.16679 35.28381,-17.14826 51.05355,-4.0908c15.76976,13.05745 28.07479,24.16267 6.05386,51.37607c-23.15206,28.61126 -35.2838,17.14829 -51.05355,4.09081z" fill="url(#color-8)" stroke="#000000" stroke-width="0"/></g><g fill="#000000" stroke="none"><path d="M98.68519,426.9461c0.66441,0.33641 0.98791,0.78453 1.12569,1.22927c0.10019,0.02724 0.19503,0.06022 0.28328,0.09612c0.24524,0.08864 0.47866,0.22296 0.6876,0.40387c0.42349,0.36677 0.67189,0.86056 0.73753,1.37576l0.55136,1.02843c-0.26607,1.63701 0.88917,3.30699 0.597,4.93957c-0.19684,1.09987 -1.24138,1.86135 -1.93709,2.7357c-1.97884,2.48701 -4.3349,3.24839 -6.86807,3.3575c-0.54589,1.81102 -1.05846,3.57914 -1.63547,5.1359c0,0 -0.58339,1.57403 -2.10698,1.45261c-0.07468,0.13839 -0.16553,0.27084 -0.27278,0.39467c-0.45051,0.52027 -1.09282,0.77622 -1.73094,0.75383c-0.46642,0.3023 -1.02744,0.41135 -1.56352,0.3186c-0.32769,0.0959 -0.57746,0.10458 -0.57746,0.10458c-0.85057,0.0295 -1.73162,0.06005 -2.6313,0.09128c0.41564,1.9118 1.38376,3.04658 0.50932,5.97581c-1.35484,4.53845 -8.44271,9.76239 -13.11774,10.26541c0.12334,0.69566 0.20931,1.40648 0.23825,2.14612c0.05893,1.5062 0.93419,3.29726 0.05507,4.52166c-1.11087,1.54718 -3.38656,1.74791 -5.12133,2.53442c-2.16818,0.98302 -4.40393,1.80776 -6.62452,2.66811c-0.34421,1.7376 -0.65427,3.46409 -1.04202,5.07393c0,0 -0.30487,1.26575 -1.4208,1.6086c-0.0753,0.34548 -0.23567,0.67761 -0.48346,0.96373c-0.04572,0.05277 -0.09339,0.10283 -0.14285,0.15016c-0.05718,0.0808 -0.09573,0.12534 -0.09573,0.12534l-1.80451,1.99438c-0.89983,0.3946 -1.79962,0.78924 -2.69945,1.18381c0,0 -2.01947,0.83828 -2.85779,-1.18123c-0.36262,-0.87362 -0.19049,-1.52614 0.12164,-1.98542c-0.87775,-1.48345 -2.03717,-2.89679 -1.99563,-4.56298c0.1172,-4.70373 4.78808,-6.88175 8.73612,-7.19693c1.0317,-4.51057 2.62935,-9.04827 6.16187,-11.30244c0.89204,-0.56921 1.88746,-0.87613 2.91743,-1.03331c-0.28268,-1.21856 -0.43564,-2.36014 -0.29776,-3.26532c0.37174,-2.44056 2.12767,-4.45808 3.06869,-6.74037l0.88045,-2.13008c0,0 0.24852,-0.60122 0.80238,-1.01222c0.07625,-0.14411 0.16987,-0.28189 0.28117,-0.41037c0.1169,-0.135 0.24673,-0.25225 0.38604,-0.35139c0.08782,-1.94837 2.10845,-2.01844 2.10845,-2.01844c2.15997,-0.07494 4.31998,-0.14984 6.47997,-0.22478c0.10622,-2.34159 1.59946,-4.03101 3.56179,-6.31467l0.71572,-0.82648c0,0 0.19804,-0.22868 0.53187,-0.44229c0.45102,-1.44603 2.11677,-1.41445 2.11677,-1.41445c1.54449,0.03453 3.09797,-0.06627 4.63349,0.1036c0.33893,0.0375 0.65712,0.0791 0.95792,0.1213c1.11012,-3.1477 2.44364,-6.18655 4.46086,-8.58105l0.381,-0.89692c0,0 0.98777,-1.95074 2.9385,-0.96296zM97.42472,435.89201c0.26212,-0.25027 0.92903,-0.20775 0.92574,-0.57018c-0.00569,-0.62449 -0.86568,-0.99802 -0.94564,-1.6174c-0.01349,-0.10456 -0.02218,-0.20914 -0.02674,-0.31382c-0.75066,1.18366 -1.37394,2.52245 -1.92026,3.92952c0.59978,-0.27553 1.23121,-0.72576 1.9669,-1.42817zM86.18777,441.56898c-0.11684,0.19687 -0.21715,0.31272 -0.21715,0.31272l-0.7157,0.82644c-1.18455,1.35531 -2.28725,2.1701 -2.54299,3.30184c0.769,-0.02666 1.53798,-0.05335 2.30698,-0.08004l0.80488,-0.02793c0,0 0.17212,-0.00594 0.4214,0.03377c0.24564,-0.08042 0.50338,-0.11662 0.7605,-0.10758c0.36543,-0.23682 0.78889,-0.35504 1.21297,-0.35055c0.4225,-1.15938 0.81755,-2.37434 1.21349,-3.61181c-1.07544,-0.11499 -2.16129,-0.23731 -3.24438,-0.29685zM72.71869,451.61744c-0.12158,0.14039 -0.25713,0.26154 -0.4028,0.36319l-0.82553,1.9972c-0.79254,1.91303 -2.39313,3.5258 -2.76493,5.56284c-0.11455,0.6276 0.49426,1.18068 0.65712,1.79751c0.08102,0.30686 0.16445,0.61009 0.24867,0.91074c0.21394,0.00743 0.42413,0.01334 0.62978,0.01642c3.07088,0.04645 8.34332,-4.57814 9.46542,-7.37226c0.42847,-1.06696 -0.62284,-2.21392 -0.9024,-3.32919c-0.08523,-0.34001 -0.09136,-0.68882 -0.06859,-1.04087c-1.89413,0.06571 -3.78361,0.13123 -5.56783,0.19312c-0.08042,0.32301 -0.23607,0.63244 -0.46892,0.9013zM64.27988,471.74833c0.97478,-0.32451 2.30917,0.04247 2.99652,-0.72112c0.44361,-0.49281 -0.53288,-1.22612 -0.65743,-1.87739c-0.14343,-0.75012 -0.41287,-1.65999 -0.71801,-2.64013c-0.67813,0.07438 -1.34251,0.25584 -1.96856,0.6323c-0.44084,0.2651 -1.96029,2.71175 -2.20121,3.18829c-0.45015,0.89051 -0.82305,1.83854 -1.1425,2.82158c1.21693,-0.50459 2.44176,-0.98755 3.69117,-1.40351zM51.2302,481.62722c0.12093,0.89358 0.6222,1.65853 1.14843,2.4198l0.41382,-0.51276c0,0 0.03859,-0.04455 0.11036,-0.11267c0.03976,-0.05572 0.0825,-0.11005 0.12821,-0.16281c0.26147,-0.30194 0.5875,-0.51484 0.93985,-0.63601c0.01022,-0.06237 0.0187,-0.09755 0.0187,-0.09755c0.24483,-1.01642 0.46598,-2.15231 0.69515,-3.35447c-1.6589,0.32594 -3.64063,1.08116 -3.45449,2.45648z" stroke-width="0.5"/><g stroke-width="0"><path d="M45.8727,486.70152l53.43951,-61.70916l5.78525,5.00997l-53.43952,61.70916z"/><path d="M77.21061,433.81355l2.86283,-3.30587l22.31446,19.32411l-2.86283,3.30582z"/><path d="M75.86982,479.89682l-2.86283,3.30587l-22.31446,-19.32409l2.86283,-3.30583z" data-paper-data="{&quot;index&quot;:null}"/><path d="M45.60873,468.63566l15.26561,-24.86488l22.42833,-18.66209l4.4078,3.8171l-22.66687,18.93759l-15.02708,24.58941z"/><path d="M65.20525,486.08815l22.18973,-18.38661l15.50423,-25.14035l4.40781,3.8171l-15.26564,24.86491l-22.42833,18.66209z" data-paper-data="{&quot;index&quot;:null}"/><path d="M54.22909,491.42172c-2.09769,2.42232 -5.76188,2.68547 -8.18422,0.58777c-2.42232,-2.09769 -2.68545,-5.76187 -0.58774,-8.18419c2.09769,-2.42232 5.76187,-2.68547 8.18422,-0.58777c2.42232,2.09769 2.68547,5.76188 0.58777,8.18422z"/></g></g><g><path d="M155.78582,433.79617c-16.65792,11.90363 -29.57367,22.47537 -50.63368,-7.70902c-20.03108,-28.70968 -6.96789,-38.91226 9.69004,-50.81588c16.65792,-11.90363 30.93307,-21.93293 50.63368,7.70902c21.74017,32.71069 6.96793,38.91226 -9.69004,50.81588z" fill="#525252" stroke="#000000" stroke-width="0"/><path d="M164.5133,378.18482c0.57515,0.47304 0.79332,0.98088 0.83092,1.44494c0.09183,0.04843 0.17723,0.10127 0.25555,0.1555c0.22004,0.13995 0.4186,0.32186 0.58311,0.54394c0.33346,0.45021 0.46831,0.98627 0.42016,1.50337l0.31409,1.12383c-0.61626,1.53977 0.14751,3.42128 -0.49323,4.95101c-0.43169,1.03058 -1.61703,1.54625 -2.48647,2.24808c-2.47303,1.99628 -4.93836,2.2262 -7.43447,1.78091c-0.92727,1.64863 -1.81264,3.26265 -2.71486,4.65636c0,0 -0.91222,1.40917 -2.37279,0.95881c-0.10304,0.11882 -0.22055,0.22829 -0.3522,0.32577c-0.55304,0.40964 -1.23565,0.51954 -1.85359,0.35872c-0.52106,0.19345 -1.09235,0.17767 -1.59538,-0.02962c-0.34074,0.02221 -0.58638,-0.02371 -0.58638,-0.02371c-0.83657,-0.15647 -1.70312,-0.31856 -2.58801,-0.48403c-0.01076,1.95643 0.68695,3.27482 -0.80452,5.94325c-2.31085,4.13437 -10.36641,7.68906 -15.03875,7.1617c-0.03114,0.70581 -0.1021,1.41831 -0.23495,2.14649c-0.27055,1.48287 0.19356,3.42158 -0.93113,4.42509c-1.42121,1.26808 -3.68598,0.96829 -5.55038,1.35805c-2.33023,0.48716 -4.69195,0.80513 -7.04662,1.16115c-0.71442,1.62091 -1.39308,3.23841 -2.12217,4.72513c0,0 -0.57325,1.16894 -1.73705,1.2605c-0.14875,0.32079 -0.37761,0.61001 -0.68177,0.83529c-0.05612,0.04154 -0.11355,0.08002 -0.17212,0.11545c-0.0734,0.0664 -0.12073,0.1015 -0.12073,0.1015l-2.19558,1.55346c-0.96416,0.18912 -1.92831,0.37829 -2.89251,0.56743c0,0 -2.15356,0.37827 -2.53187,-1.77533c-0.16363,-0.93161 0.14652,-1.531 0.55115,-1.91127c-0.53357,-1.63902 -1.35728,-3.27096 -0.95385,-4.88811c1.13892,-4.56527 6.17205,-5.67363 10.09398,-5.1213c1.98942,-4.17753 4.53705,-8.2583 8.47577,-9.68892c0.9946,-0.36124 2.03298,-0.44398 3.07244,-0.37305c-0.01047,-1.25088 0.08888,-2.39837 0.42061,-3.25178c0.89438,-2.30099 3.04761,-3.8876 4.46316,-5.91011l1.32328,-1.88716c0,0 0.37352,-0.53263 1.00359,-0.81315c0.10582,-0.12405 0.22719,-0.23813 0.3638,-0.33929c0.1435,-0.10629 0.29577,-0.19244 0.45331,-0.25885c0.51009,-1.88247 2.49747,-1.51074 2.49747,-1.51074c2.12443,0.39734 4.2489,0.79469 6.37335,1.19205c0.61369,-2.26226 2.43909,-3.58584 4.85171,-5.38725l0.87854,-0.65074c0,0 0.24309,-0.18006 0.61544,-0.31581c0.75516,-1.31305 2.37404,-0.9194 2.37404,-0.9194c1.49989,0.37011 3.03802,0.61012 4.49967,1.11033c0.32262,0.11043 0.62411,0.22034 0.90852,0.32704c1.76909,-2.83031 3.73248,-5.50577 6.22284,-7.40338l0.56719,-0.79238c0,0 1.38897,-1.68876 3.07772,-0.29979zM161.33457,386.64138c0.31034,-0.18715 0.95198,-0.0004 1.02772,-0.35483c0.13046,-0.61074 -0.6275,-1.16262 -0.57063,-1.78455c0.00959,-0.10499 0.02391,-0.20896 0.04226,-0.31212c-0.99046,0.99171 -1.89039,2.16261 -2.73007,3.41693c0.64538,-0.13829 1.35973,-0.44015 2.23077,-0.96545zM149.13087,389.73448c-0.15694,0.16669 -0.28003,0.25789 -0.28003,0.25789l-0.87852,0.65074c-1.4513,1.06477 -2.70501,1.6198 -3.20114,2.66865c0.75635,0.14146 1.51268,0.28292 2.26901,0.42439l0.79165,0.14806c0,0 0.16927,0.03169 0.40393,0.12475c0.25727,-0.02499 0.51672,-0.00418 0.76566,0.06064c0.40823,-0.15153 0.8473,-0.17467 1.26018,-0.07793c0.6649,-1.03954 1.31508,-2.13926 1.97105,-3.26076c-1.02456,-0.34647 -2.05772,-0.70237 -3.1018,-0.9964zM133.79649,396.6079c-0.14923,0.11053 -0.30792,0.19926 -0.47223,0.26674l-1.24073,1.76942c-1.19022,1.69447 -3.10364,2.9199 -3.91022,4.82703c-0.24851,0.58756 0.22522,1.26002 0.24982,1.89747c0.01223,0.31714 0.02763,0.63126 0.04434,0.94303c0.2072,0.05386 0.41102,0.1054 0.61109,0.15323c2.98704,0.71422 9.14019,-2.65092 10.84395,-5.13352c0.65059,-0.94799 -0.12566,-2.29643 -0.15559,-3.44582c-0.00912,-0.35041 0.06087,-0.69217 0.15976,-1.03083c-1.86296,-0.34846 -3.72135,-0.69604 -5.4762,-1.02426c-0.14885,0.29774 -0.36816,0.56586 -0.65398,0.77751zM121.17548,414.41736c1.02205,-0.1044 2.24447,0.54441 3.08163,-0.05112c0.54029,-0.38433 -0.25304,-1.31277 -0.23273,-1.97552c0.0234,-0.76336 -0.0414,-1.71004 -0.12569,-2.73315c-0.67804,-0.07512 -1.36602,-0.04273 -2.05904,0.18832c-0.488,0.16271 -2.50388,2.21967 -2.84279,2.63229c-0.6333,0.77109 -1.20377,1.61513 -1.72964,2.50498c1.29762,-0.2274 2.59824,-0.43201 3.90824,-0.56582zM106.28734,421.21664c-0.07662,0.89846 0.246,1.75424 0.59377,2.61186l0.51559,-0.41035c0,0 0.04734,-0.03508 0.13224,-0.08595c0.05094,-0.0457 0.10451,-0.08945 0.1606,-0.13098c0.32097,-0.23773 0.68553,-0.37451 1.05582,-0.41602c0.02356,-0.05865 0.03952,-0.09112 0.03952,-0.09112c0.46032,-0.93868 0.92359,-1.99913 1.4091,-3.12251c-1.69007,-0.04322 -3.78871,0.26222 -3.9066,1.64507z" fill="#000000" stroke="none" stroke-width="0.5"/><g stroke="none" stroke-width="0"><path d="M99.95325,425.00214l65.5976,-48.58761l4.5551,6.14978l-65.5976,48.58763z" fill="#000000"/><path d="M142.0585,380.20987l3.51419,-2.60291l17.56963,23.72057l-3.51415,2.6029z" fill="url(#color-9)"/><path d="M130.71228,424.89467l-3.51417,2.60293l-17.56963,-23.72056l3.51417,-2.60291z" data-paper-data="{&quot;index&quot;:null}" fill="url(#color-10)"/><path d="M103.63061,407.31257l20.31504,-20.9428l25.95469,-13.3288l3.47055,4.68554l-26.24753,13.54573l-20.02221,20.7259z" fill="url(#color-11)"/><path d="M118.95521,428.61443l25.66181,-13.11189l20.60789,-21.15971l3.47055,4.68554l-20.31506,20.94281l-25.95469,13.3288z" data-paper-data="{&quot;index&quot;:null}" fill="url(#color-12)"/><path d="M107.08087,431.42916c-2.57493,1.90726 -6.20847,1.36597 -8.11574,-1.20898c-1.90726,-2.57493 -1.36597,-6.20845 1.209,-8.11572c2.57493,-1.90726 6.20845,-1.36597 8.11572,1.20898c1.90726,2.57493 1.36597,6.20847 -1.20898,8.11572z" fill="#000000"/></g><path d="M155.30661,434.12739c-16.6579,11.90362 -29.57367,22.47535 -50.63368,-7.70904c-20.03108,-28.7097 -6.96789,-38.91226 9.69004,-50.81587c16.6579,-11.90362 30.93307,-21.93293 50.63368,7.70902c21.74017,32.71069 6.96793,38.91226 -9.69004,50.81588zM132.28091,378.5762l-1.41632,-0.98329c-3.19242,-1.5912 -4.78865,-1.0786 -8.20808,-0.48886c-1.12113,0.22507 -2.34773,0.14984 -3.3634,0.67519c-4.19579,2.17029 -2.74845,6.84744 -5.35745,9.35889c-1.97253,1.89878 -5.68911,0.43523 -7.87721,3.37322c-1.29599,1.74014 -1.34098,5.37638 -0.3992,7.28001c1.61345,3.26133 4.43851,3.23398 7.10604,4.4176c1.07365,0.47639 0.56358,2.28165 0.90372,3.40586c0.82257,2.71865 2.02435,6.2556 4.46152,7.95003c3.41478,2.37415 4.85364,0.84099 8.21789,1.9441c5.97477,0.51031 16.85807,-8.31689 15.28872,-15.18768c-0.80143,-3.50879 -4.53245,-4.9548 -5.32301,-8.26175c-1.21257,-5.0721 0.60152,-9.16711 -3.30839,-12.64903c-0.28889,-0.52664 -0.72481,-0.83431 -0.72481,-0.83431z" fill="url(#color-13)" stroke="#000000" stroke-width="0"/><path d="M132.32052,378.49831c0,0 0.44001,0.30989 0.72892,0.83653c3.90992,3.48193 2.13562,7.6269 3.34819,12.69899c0.79056,3.30696 4.52312,4.79866 5.32456,8.30745c1.56936,6.87079 -9.38592,15.76438 -15.3607,15.25408c-3.36424,-1.10311 -4.84132,0.42735 -8.25611,-1.9468c-2.43717,-1.69444 -3.67606,-5.25375 -4.49861,-7.9724c-0.34016,-1.12422 0.15662,-2.94692 -0.91702,-3.42329c-2.66752,-1.18362 -5.50398,-1.19154 -7.11744,-4.45287c-0.94177,-1.90365 -0.8931,-5.57501 0.40289,-7.31514c2.1881,-2.938 5.92425,-1.50777 7.89678,-3.40655c2.60899,-2.51144 1.20615,-7.21401 5.40194,-9.3843c1.01567,-0.52535 2.25803,-0.45218 3.37915,-0.67725c3.41943,-0.58973 5.0519,-1.09603 8.24432,0.49517l1.42315,0.98641z" data-paper-data="{&quot;noHover&quot;:false,&quot;origItem&quot;:[&quot;Path&quot;,{&quot;applyMatrix&quot;:true,&quot;segments&quot;:[[176.60411,134.48781],[[175.79368,133.92516],[0,0],[-1.82673,-0.9105]],[[171.09694,133.64543],[1.95663,-0.33745],[-0.64152,0.12879]],[[169.17237,134.03178],[0.58118,-0.30061],[-2.40087,1.24186]],[[166.10679,139.38702],[1.49289,-1.43707],[-1.1287,1.0865]],[[161.59938,141.31721],[1.25205,-1.68115],[-0.74158,0.99572]],[[161.37095,145.4829],[-0.53889,-1.08928],[0.92323,1.86616]],[[165.43709,148.01069],[-1.52638,-0.67728],[0.61435,0.27259]],[[165.95421,149.95956],[-0.19464,-0.64329],[0.47068,1.55564]],[[168.50713,154.50864],[-1.39457,-0.96957],[1.95397,1.35851]],[[173.20948,155.62107],[-1.92505,-0.63121],[3.41882,0.292]],[[181.95782,146.93054],[0.898,3.93153],[-0.45859,-2.00776]],[[178.91194,142.20309],[0.45237,1.89227],[-0.69384,-2.9023]],[[177.01885,134.9652],[2.23729,1.99239],[-0.16531,-0.30135]],[176.60411,134.4878]],&quot;closed&quot;:true,&quot;fillColor&quot;:[0,0,0,1]}]}" fill="#000000" stroke="none" stroke-width="0.5"/></g><path d="M22.06328,501.53952c2.04507,-8.62537 12.90798,-13.43516 24.26303,-10.7429c7.6971,1.82496 15.23812,4.99572 17.63422,10.58777c1.13871,2.65754 18.34311,23.73678 16.26306,27.1232c-1.51893,2.88529 -17.87835,-9.85549 -18.77499,-3.51642c-1.65134,11.67497 -11.63639,26.90641 -13.53035,26.42612c-5.22505,-0.75237 -0.67692,-27.64874 -2.20647,-28.24992c-1.87426,-0.73666 -4.71125,20.7351 -14.43322,26.00714c-5.7659,-14.12103 3.75036,-27.57959 2.32712,-28.40284c-1.78019,-1.0297 -0.09189,7.48616 -17.9704,23.02997c-3.60765,-19.70426 5.10915,-36.69943 6.42809,-42.26216z" fill="url(#color-14)" stroke="#000000" stroke-width="0"/><g><path d="M243.81374,572.77076c-55.29944,0 -113.33224,-61.18035 -100.12848,-111.86978c8.87057,-34.05422 19.96118,-74.02503 38.87071,-102.49078c0.49521,0.55743 1.20194,0.73412 1.20194,0.73412c5.03502,1.22599 6.82911,-0.12336 11.12376,-1.79448c3.26157,-1.26914 6.65505,0.80774 10.10398,-0.66069c1.78146,-0.75848 2.9059,-2.56706 4.46342,-3.71731c1.23088,-0.90903 2.95382,-0.86182 4.32183,-1.5473c5.41267,-2.71214 9.95605,-7.37391 13.89522,-11.62218c0.31832,-6.15616 4.27004,-10.87023 5.17129,-17.03542c0.04247,-0.29045 0.08172,-0.57979 0.11814,-0.86811c3.20935,-0.51665 6.5356,-0.79901 9.98443,-0.8294c58.10692,-0.51216 85.64552,72.4656 99.28371,132.06114c-3.59702,0.85502 -7.55931,0.99591 -9.79077,4.39887c-1.04826,1.59858 -0.50003,4.11782 -1.91163,5.40685c-0.37135,0.3391 -0.9712,-0.2926 -1.47296,-0.32626c-2.02884,-0.13605 -6.88605,0.27081 -8.70023,1.04009c-3.68723,1.5635 -7.07635,7.36549 -8.88654,10.48164c-0.38421,0.66139 -0.01431,1.68946 -0.56023,2.22521c-0.59425,0.58316 -1.76413,0.14821 -2.40273,0.68244c-1.69192,1.41543 -3.43004,5.56739 -4.29531,7.35079c-0.1555,8.31083 -1.16779,13.73019 2.78512,21.55922c1.49658,2.96409 1.35575,5.82135 3.87066,8.40572c2.69564,2.77009 6.1641,4.34276 9.08969,6.71639c3.47649,2.82057 4.69531,6.77897 7.37906,10.00718c-19.59948,25.42664 -52.00062,41.69207 -83.51407,41.69207z" fill="#000000" stroke="#000000" stroke-width="0"/><g stroke="none"><path d="M245.07618,282.50705c0.4059,-0.38067 1.87648,-1.53435 3.34708,0.10966c1.72833,1.93216 0,3.86438 0,3.86438l-2.33939,1.48345c-0.71519,-0.00683 -1.43039,-0.01363 -2.14557,-0.02049c-2.25403,0.19053 -2.75121,3.94005 -2.74288,6.1686c0.01512,4.04157 1.03689,7.98303 3.20496,11.38168c2.34081,3.66943 4.18621,3.66027 4.72685,8.84287c0.24108,2.31101 -0.27274,4.65349 -0.64475,6.94267c-1.09104,6.71398 -1.66074,12.90093 -3.36691,19.45822c-0.50253,1.93129 -0.35529,4.09172 -1.1524,5.89487c-1.71313,3.87532 -6.14506,7.29489 -8.36127,11.07784c0.04934,1.97787 0.06757,6.91998 0.59735,8.6654c3.2329,10.65068 15.17379,21.66735 12.27889,34.17048c-0.48249,2.08388 -1.22143,4.14215 -2.30573,5.92097c-1.45936,2.39407 -4.18092,3.48652 -5.91765,5.63677c-1.63195,2.02056 -3.63877,5.12725 -3.9609,7.98567c-0.48793,4.32995 2.17151,8.86545 6.12362,8.5985c0,0 2.44421,0.00001 2.44421,2.73251c0,2.7325 -2.44421,2.73251 -2.44421,2.73251c-6.79612,-0.25278 -11.79987,-6.7277 -10.98595,-14.6278c0.42917,-4.16526 2.79445,-8.05835 5.18978,-11.07747c2.73812,-3.45117 6.07491,-4.28932 7.06817,-9.00047c1.20806,-5.73004 -2.76356,-12.07241 -4.96687,-16.77153c-2.12456,-4.53116 -5.73205,-9.75322 -7.15872,-14.56429c-1.03658,-3.49563 -0.71189,-8.30844 -0.6625,-11.90224c0.9999,-1.84798 1.84779,-3.81008 2.99968,-5.54394c1.63826,-2.466 4.58252,-3.8231 5.74861,-6.60451c0.61981,-1.47839 0.37236,-3.25032 0.76502,-4.82293c1.22206,-4.89451 2.03293,-8.98593 2.63444,-14.05638c0.38134,-3.21452 2.38953,-9.40298 0.87963,-12.70186c-0.73928,-1.61518 -2.55016,-2.31457 -3.49418,-3.79038c-1.51322,-2.36562 -3.61733,-7.15952 -4.08359,-9.96165c-0.71278,-4.28371 -0.07607,-11.94925 3.31494,-14.94448c1.00561,-0.88824 2.45,-0.84248 3.67501,-1.2637c0.57839,-0.00431 1.15676,-0.00861 1.73515,-0.01294z" fill="#000000" stroke-width="0.5"/><path d="M238.30664,435.09237v-150.15175h9.09797v150.15175z" fill="#000000" stroke-width="0"/><path d="M271.37603,544.14987c-1.25223,-2.5994 -5.33263,-2.57034 -7.39903,-4.80868c-0.41871,-0.45356 -3.51654,-6.80554 -3.61279,-7.32671c-0.15896,-0.86107 0.87469,-1.7491 0.56048,-2.56639c-0.43199,-1.12354 -1.84978,-1.58199 -2.53573,-2.57116c-0.82935,-1.19591 -1.30316,-2.60275 -1.95474,-3.9041c-1.70235,-2.03314 -4.6408,-3.21126 -5.54512,-5.70404c-1.64756,-4.5415 0.05259,-13.00112 0.21143,-17.82336c0.04445,-1.34872 0.38311,-3.91937 -0.59263,-5.28901c-2.95473,-4.14739 -8.12191,-6.80464 -9.55574,-12.05318c-1.22312,-4.47717 2.33306,-8.16287 4.26636,-11.33463c1.75484,-2.87896 1.20194,-7.46858 -0.14137,-10.31055c-0.81022,-1.71418 -1.60955,-2.62798 -2.59519,-3.38604c-0.66519,5.59923 -1.25339,11.72063 -3.27395,16.36477c-1.60424,3.6873 -6.63611,7.82576 -9.58304,10.35121c-0.9277,0.79501 -3.50336,1.81464 -4.06472,3.34991c-2.40033,6.56439 2.05878,7.65393 3.14144,13.79718c1.16229,6.59487 -6.71004,16.36048 -11.48524,20.38103c-0.31485,1.60803 1.58545,2.88464 2.13164,4.42954c0.78241,2.21304 0.98299,6.57731 -0.05358,8.89455c-2.46849,5.5182 -8.75665,8.0325 -10.55051,14.15068c-0.163,0.55596 0.18908,3.00848 0.39858,4.34401c-1.94177,0.11519 -3.87652,0.22507 -5.79811,0.29721c-0.5866,-6.09985 0.95039,-10.33677 5.22334,-15.50104c1.63228,-1.97281 4.21671,-3.22104 5.33974,-5.52218c1.78814,-3.66392 -2.01492,-5.97155 -2.59517,-9.00422c-0.30975,-1.61893 0.52401,-3.25465 0.78603,-4.88195c3.90828,-3.75092 8.63867,-9.45962 10.94441,-14.51096c1.39746,-3.06156 -3.16,-6.76704 -3.8732,-8.9552c-0.76896,-2.35912 0.3228,-8.51935 1.10554,-10.38138c2.4385,-5.80089 11.19558,-7.59434 13.56252,-13.50919c1.46492,-3.66075 2.08634,-8.16242 2.60915,-12.57019c-3.85183,0.53413 -7.78488,-0.6793 -11.31585,-4.48041c-1.22129,-1.31475 -2.29625,-2.77236 -3.24404,-4.29607c-0.46561,-0.74852 -0.28809,-1.89413 -0.96082,-2.46381c-1.18909,-1.00698 -3.00823,0.81432 -4.50469,1.24865c-2.97858,0.86452 -6.98925,2.82392 -10.15214,2.52498c-7.06002,-0.66726 -7.80706,-4.90343 -9.81092,-10.57313c-0.42514,-1.2028 -1.42438,-2.21155 -1.60484,-3.47445c-0.22121,-1.54818 1.15417,-7.62867 1.427,-8.97368c-0.0082,-2.06389 0.90393,-4.22045 0.27356,-6.18573c-0.47509,-1.48113 -2.8143,-1.33556 -4.15406,-2.12581c-1.89471,-1.11756 -5.72359,-3.64401 -6.5486,-5.75734c-1.15012,-2.94618 -0.03287,-7.31567 2.1439,-9.52225c0.94574,-0.9587 2.60658,-0.86228 3.67063,-1.68774c3.07774,-2.38764 5.38536,-6.73545 4.44712,-10.04089c1.72902,-0.40707 3.4654,-0.99083 5.37369,-1.80444c1.24599,2.90969 1.36494,6.22026 -0.22755,9.31156c-0.64076,1.24379 -5.93138,7.06448 -6.16551,7.25062c-0.96376,0.76619 -5.25703,1.43813 -3.85534,4.26182c1.90789,3.84349 8.66025,3.39393 10.57105,7.58866c0.38465,0.84441 0.27794,8.00205 0.27354,9.28611c-0.4911,2.4884 -1.90357,4.96537 -1.47394,7.46512c0.15042,0.87519 1.00103,1.48991 1.29612,2.32743c0.55961,1.58844 0.59816,3.34221 1.24865,4.89564c0.91757,2.19107 3.69269,2.03033 5.47856,1.53486c4.04563,-1.12244 11.07339,-4.96699 15.22043,-2.59309c1.50275,0.86028 1.90881,2.89027 2.90717,4.30508c2.43196,3.44648 6.27161,7.23577 10.37252,6.37112c0.12366,-0.88868 0.25763,-1.7545 0.40923,-2.58821c0,0 0.15379,-0.84595 0.75375,-1.5355l-1.77193,-1.27092c0,0 -2.27655,-1.82122 -0.45532,-4.09777c1.82122,-2.27655 4.09777,-0.45531 4.09777,-0.45531l2.98766,2.54299c0.19134,0.72166 0.48172,1.30606 0.8531,1.77169l0.74435,-0.93333c0.2246,-0.28677 0.50174,-0.5304 0.81694,-0.71642c0.73666,-0.47311 1.91816,-0.84455 3.2617,0.20508c0.02333,0.01802 0.04635,0.03642 0.0691,0.05513c1.12221,0.91421 1.2229,1.93968 1.04588,2.73298c3.75071,-0.69254 8.03432,-2.92096 10.24987,-4.0275c1.19067,-0.59466 2.09703,-1.65108 3.23859,-2.33527c1.3016,-0.78013 2.70603,-1.37446 4.06789,-2.04394c1.24463,-0.61184 6.076,-2.82836 4.83166,-5.14916c-1.13521,-2.11731 -3.36924,-3.46453 -4.6963,-5.46718c-1.6383,-5.07582 -2.51424,-16.20902 2.36478,-20.08476c2.75118,-2.18546 5.95094,-0.66539 8.60564,-3.79644c3.26709,-3.85333 -0.82589,-8.70804 0.55132,-12.82496c0.44856,-1.34086 2.10196,-1.89559 3.07774,-2.9188c5.47867,-5.74488 12.66149,-5.74166 19.59326,-9.22848c0,0 2.6076,-1.30379 3.9114,1.30381c1.30382,2.60761 -1.30382,3.91139 -1.30382,3.91139c-3.43925,1.71049 -7.02929,3.09403 -10.75441,4.08978c-1.75144,0.46819 -3.70484,0.21901 -5.246,1.44218c-0.88496,0.70233 -1.29047,1.87715 -2.11884,2.64534c-0.48813,0.45266 -1.54839,0.31705 -1.7572,0.94918c-0.59961,1.81525 1.20321,3.70069 1.18071,5.61226c-0.03642,3.09123 -0.56334,6.14535 -2.56331,8.63845c-1.477,1.84118 -4.88318,4.13784 -7.21808,4.84066c-0.81389,0.24502 -1.78262,-0.30162 -2.54912,0.06578c-0.41121,0.19711 -0.29753,0.86983 -0.34802,1.32303c-0.39614,3.55751 -1.40087,8.04715 -0.18817,11.46978c1.46957,2.18474 4.24308,3.607 4.97358,6.13665c2.94155,10.18637 -13.79802,15.80644 -20.46191,18.6126c-2.94812,1.24146 -6.47293,2.51917 -9.74947,2.72988c4.49821,5.30363 6.22463,12.45868 2.54199,19.24073c-1.0061,1.85282 -4.396,4.28317 -3.508,7.12952c1.78169,5.71097 9.1324,7.59067 10.22186,14.19018c0.78791,4.77298 -0.19408,10.3064 -0.44839,15.11387c-0.07986,1.50999 -0.75647,3.09478 -0.27452,4.528c0.30115,0.89558 1.65823,0.94703 2.33676,1.60459c1.05205,1.01954 1.87196,2.25409 2.80792,3.38113c1.43572,2.87544 4.07351,5.10209 5.22747,8.10171c0.39381,1.0236 -0.56895,2.17905 -0.41134,3.26444c0.23325,1.60628 1.15996,3.10401 2.21802,4.33487c1.64742,1.91646 3.27975,0.92117 5.31269,2.45339c5.02518,3.78747 4.67132,10.85879 4.64998,16.42534c-1.96197,-0.03334 -3.89954,-0.0978 -5.82481,-0.19091c0.05103,-3.21928 0.33122,-7.02845 -1.11007,-10.02027z" fill="#000000" stroke-width="0.5"/><path d="M233.50967,549.09669v-89.49207h20.30676v89.49207z" fill="url(#color-15)" stroke-width="0"/><path d="M226.7408,459.82217v-30.94362h32.8776v30.94362z" fill="url(#color-16)" stroke-width="0"/><path d="M261.9989,454.79236v-71.90342h8.74617v71.90342z" data-paper-data="{&quot;index&quot;:null}" fill="url(#color-17)" stroke-width="0"/><path d="M215.61958,456.76241v-72.87043h8.74617v72.87043z" data-paper-data="{&quot;index&quot;:null}" fill="url(#color-18)" stroke-width="0"/><path d="M216.32228,463.2779v-9.475h53.57372v9.475z" fill="url(#color-19)" stroke-width="0"/><path d="M259.0541,459.07046l29.83113,-81.15821l10.3207,3.79353l-29.83113,81.15825z" fill="url(#color-20)" stroke-width="0"/><path d="M215.82885,462.50978l-30.48031,-82.92443l10.54529,-3.87613l30.48037,82.92444z" data-paper-data="{&quot;index&quot;:null}" fill="url(#color-21)" stroke-width="0"/><path d="M172.15975,383.21485v-7.94373h143.25599v7.94373z" fill="url(#color-22)" stroke-width="0"/><path d="M176.80809,379.06109c0,3.58196 -2.90372,6.48567 -6.48566,6.48567c-3.58194,0 -6.48569,-2.90371 -6.48569,-6.48567c0,-3.58196 2.90372,-6.48567 6.48569,-6.48567c3.58194,0 6.48566,2.90372 6.48566,6.48567z" fill="#000000" stroke-width="0"/><path d="M323.08828,379.44086c0,3.58196 -2.90372,6.48567 -6.48566,6.48567c-3.58194,0 -6.48566,-2.90372 -6.48566,-6.48567c0,-3.58196 2.90372,-6.48566 6.48566,-6.48566c3.58194,0 6.48566,2.90372 6.48566,6.48566z" fill="#000000" stroke-width="0"/><path d="M187.0895,557.64853v-8.08894h118.3188v8.08894z" fill="#000000" stroke-width="0"/><path d="M194.79055,553.71208c0,4.70129 -3.81117,8.51243 -8.51243,8.51243c-4.70129,0 -8.51245,-3.81113 -8.51245,-8.51243c0,-4.70129 3.81114,-8.51243 8.51245,-8.51243c4.70129,0 8.51243,3.81117 8.51243,8.51243z" fill="#000000" stroke-width="0"/><path d="M313.30762,554.11945c0,4.70129 -3.81117,8.51243 -8.51243,8.51243c-4.70131,0 -8.51245,-3.81114 -8.51245,-8.51243c0,-4.70129 3.81114,-8.51245 8.51245,-8.51245c4.70131,0 8.51243,3.81117 8.51243,8.51245z" fill="#000000" stroke-width="0"/></g><path d="M243.46423,572.47949c-55.29944,0 -113.33224,-61.18035 -100.12848,-111.86978c8.71306,-33.44948 19.56799,-72.60731 37.87069,-100.96352c1.91415,-0.24961 5.88305,0.02995 7.11577,0.94635c0.88872,0.66065 1.08275,2.2202 2.14352,2.53807c3.79777,1.13804 9.56909,-4.13245 12.79231,-2.33973c4.48005,2.49176 4.82768,5.51428 10.82868,4.13809c1.7222,-0.68704 3.28847,-1.77788 5.07262,-2.28262c3.73463,-1.05654 8.22844,1.31998 12.40351,-0.04752c1.76206,-0.57715 3.25966,-1.8938 5.07262,-2.28262c3.26992,-0.70128 7.36369,-0.19662 10.47756,-1.97272c2.33327,-1.33085 3.58387,-4.45911 5.82537,-5.82537c3.3273,-2.02811 6.68575,1.77128 9.234,3.06055c2.49281,0.62018 5.66039,1.27363 8.25026,0.65979c1.77329,-0.4203 4.28361,-1.97535 6.25019,-1.70222c0.77603,0.10777 1.30485,0.93648 2.06662,1.11967c4.22405,1.01587 9.42329,-0.58674 13.58464,-1.12299c3.28968,-0.42393 6.67094,-0.14478 10.04182,0.04548c18.77498,25.39567 30.71991,61.26107 38.47513,93.83496c-1.39634,-0.6622 -2.85265,-1.20904 -4.45234,-1.50365c-9.17731,-1.69014 -22.21751,-0.43869 -30.26184,3.75057c-3.73904,1.94717 -4.74074,6.47162 -7.56444,9.20773c-0.74949,1.05145 -1.30021,2.27791 -2.24842,3.15435c-0.87305,0.80697 -4.31201,0.41175 -4.80152,0.62774c-2.8357,1.2513 -8.48157,8.73301 -9.86447,11.54414c-1.01447,2.06217 -0.79931,4.52847 -1.07958,6.80951c-0.2929,2.38393 -1.45001,4.60709 -1.74761,6.99046c-0.58711,4.70197 0.26205,9.21983 0.88527,13.72155c0.84733,6.12067 -1.96853,11.28472 -1.68171,17.36935c-2.76368,3.91656 -5.20318,10.60768 -3.42266,15.44991c0.28432,0.77321 1.43744,0.9844 1.74761,1.74761c1.21414,2.98759 2.07798,7.5445 1.60953,11.04739c-0.5634,4.2129 -5.75556,4.56036 -7.5662,7.93951c-2.12096,3.95828 0.6343,7.79943 1.99368,11.80337c-9.45936,2.86888 -19.23271,4.40659 -28.92214,4.40659z" fill="url(#color-23)" stroke="#000000" stroke-width="0"/></g><g fill="#000000" stroke-width="0"><path d="M215.36391,258.55228v-7.74002h54.18023v7.74002z" stroke="none"/><path d="M221.78773,329.04578v-50.0875h5.18439v50.08752z" stroke="none"/><path d="M258.26402,327.44001v-48.66651h5.1844v48.66651z" data-paper-data="{&quot;index&quot;:null}" stroke="none"/><path d="M215.17837,282.43711v-7.74002h54.18025v7.74002z" stroke="none"/><path d="M266.09963,282.43711v-56.21708h8.55476v56.21708z" stroke="#000000"/><path d="M209.88256,282.43711v-56.21708h8.5548v56.21708z" data-paper-data="{&quot;index&quot;:null}" stroke="#000000"/><g stroke="none"><g data-paper-data="{&quot;index&quot;:null}"><path d="M260.36543,286.52518v6.72162h-5.29579v-6.72162z"/><path d="M253.03276,286.52518v6.72162h-5.29583v-6.72162z"/><path d="M245.70013,286.32152v6.7216h-5.29581v-6.7216z"/><path d="M238.36744,286.32152v6.7216h-5.29583v-6.7216z"/><path d="M231.1706,286.18574v6.7216h-5.29583v-6.7216z"/></g><path d="M263.47864,278.78259v9.3695h-41.55177v-9.3695z" data-paper-data="{&quot;index&quot;:null}"/></g><g stroke="#000000"><g><path d="M268.42527,188.85813c14.51149,0 26.27537,11.76388 26.27537,26.27537c0,14.51149 -11.76389,26.2754 -26.27537,26.2754c-14.51149,0 -26.27537,-11.76389 -26.27537,-26.2754c0,-14.51149 11.76388,-26.27537 26.27537,-26.27537z"/></g><g data-paper-data="{&quot;index&quot;:null}"><path d="M242.14993,214.52245c0,14.51149 -11.76388,26.27537 -26.27537,26.27537c-14.51149,0 -26.27537,-11.76388 -26.27537,-26.27537c0,-14.51149 11.76388,-26.27537 26.27537,-26.27537c14.51149,0 26.27537,11.76388 26.27537,26.27537z"/></g></g></g><g stroke-width="0"><g fill="#000000" stroke="none"><g><path d="M255.06966,315.40531v-6.7216h5.29579v6.7216z"/><path d="M247.73697,315.40531v-6.7216h5.29583v6.7216z"/><path d="M240.40433,315.609v-6.72162h5.29581v6.72162z"/><path d="M233.07166,315.609v-6.72162h5.29584v6.72162z"/><path d="M225.87477,315.7448v-6.72162h5.29583v6.72162z"/></g><path d="M221.92687,323.14791v-9.3695h41.55177v9.3695z"/></g><path d="M242.68118,343.73233c-25.50691,0.79912 -87.67638,-31.19356 -84.9367,-69.48887c0.31437,-4.39405 -6.01422,-1.60477 10.73585,-3.87495c16.00533,-2.16924 21.59905,50.30539 73.58981,49.88476c59.75049,-0.48343 55.26659,-52.93551 70.84126,-50.80121c16.13924,2.21168 14.70647,0.04565 14.70647,4.7914c0,38.37765 -54.55057,68.5369 -84.93669,69.48887z" data-paper-data="{&quot;index&quot;:null}" fill="url(#color-24)" stroke="#000000"/></g><path d="M328.19743,270.79244c0,16.29612 -168.65128,14.83603 -169.87338,0c-1.63947,-19.9026 10.87502,-37.10982 32.38815,-48.11135c0.16057,-0.0821 13.34912,18.15363 24.2827,18.39052c18.73363,0.4059 21.00285,-16.68112 26.54418,-16.69877c6.52292,-0.02078 8.0372,17.42096 27.14311,16.69874c16.91243,1.13561 25.07914,-18.80968 25.51698,-18.57617c20.64361,11.00954 33.99826,28.54518 33.99826,48.29702z" fill="url(#color-25)" stroke="#000000" stroke-width="0"/><g stroke="none" stroke-width="0"><path d="M218.90494,214.96267c0,1.779 -1.41191,3.22116 -3.15357,3.22116c-1.74167,0 -3.15357,-1.44217 -3.15357,-3.22116c0,-1.779 1.41191,-3.22116 3.15357,-3.22116c1.74167,0 3.15357,1.44217 3.15357,3.22116zM215.73207,217.73579c1.52611,0 2.76325,-1.23715 2.76325,-2.76325c0,-1.52611 -1.23715,-2.76325 -2.76325,-2.76325c-1.52611,0 -2.76325,1.23715 -2.76325,2.76325c0,1.52611 1.23715,2.76325 2.76325,2.76325z" fill="#ffffff"/><path d="M220.89839,214.96267c0,2.90353 -2.3044,5.25731 -5.14702,5.25731c-2.84262,0 -5.14702,-2.35379 -5.14702,-5.25731c0,-2.90353 2.3044,-5.25733 5.14702,-5.25733c2.84262,0 5.14702,2.35379 5.14702,5.25733z" fill="url(#color-26)"/></g><g stroke="none" stroke-width="0"><path d="M272.03236,214.96267c0,1.779 -1.41191,3.22116 -3.15357,3.22116c-1.74167,0 -3.15357,-1.44217 -3.15357,-3.22116c0,-1.779 1.41191,-3.22116 3.15357,-3.22116c1.74167,0 3.15357,1.44217 3.15357,3.22116zM268.8595,217.73579c1.52611,0 2.76325,-1.23715 2.76325,-2.76325c0,-1.52611 -1.23715,-2.76325 -2.76325,-2.76325c-1.52611,0 -2.76325,1.23715 -2.76325,2.76325c0,1.52611 1.23715,2.76325 2.76325,2.76325z" fill="#ffffff"/><path d="M274.02581,214.96267c0,2.90353 -2.3044,5.25731 -5.14702,5.25731c-2.84262,0 -5.14702,-2.35379 -5.14702,-5.25731c0,-2.90353 2.3044,-5.25733 5.14702,-5.25733c2.84262,0 5.14702,2.35379 5.14702,5.25733z" fill="url(#color-27)"/></g></g></g></svg>