<svg version="1.1" xmlns="http://www.w3.org/2000/svg" xmlns:xlink="http://www.w3.org/1999/xlink" width="588.37545" height="706.09675" viewBox="0,0,588.37545,706.09675"><defs><radialGradient cx="240" cy="180.00001" r="251.5015" gradientUnits="userSpaceOnUse" id="color-1"><stop offset="0" stop-color="#000000" stop-opacity="0"/><stop offset="1" stop-color="#000000"/></radialGradient><linearGradient x1="373.80915" y1="394.06715" x2="382.84656" y2="395.00528" gradientUnits="userSpaceOnUse" id="color-2"><stop offset="0" stop-color="#a4a4a4"/><stop offset="1" stop-color="#d8d8d8"/></linearGradient><linearGradient x1="465.76791" y1="402.85198" x2="456.73047" y2="401.91383" gradientUnits="userSpaceOnUse" id="color-3"><stop offset="0" stop-color="#a4a4a4"/><stop offset="1" stop-color="#d8d8d8"/></linearGradient><linearGradient x1="424.91971" y1="356.36308" x2="423.66889" y2="368.41295" gradientUnits="userSpaceOnUse" id="color-4"><stop offset="0" stop-color="#a4a4a4"/><stop offset="1" stop-color="#d8d8d8"/></linearGradient><linearGradient x1="416.76032" y1="442.29686" x2="418.0112" y2="430.24691" gradientUnits="userSpaceOnUse" id="color-5"><stop offset="0" stop-color="#a4a4a4"/><stop offset="1" stop-color="#d8d8d8"/></linearGradient><linearGradient x1="391.56734" y1="343.40905" x2="455.80714" y2="455.17647" gradientUnits="userSpaceOnUse" id="color-6"><stop offset="0" stop-color="#0b2a00"/><stop offset="1" stop-color="#101800"/></linearGradient><linearGradient x1="70.28571" y1="368.84313" x2="61.21547" y2="368.30815" gradientUnits="userSpaceOnUse" id="color-7"><stop offset="0" stop-color="#a4a4a4"/><stop offset="1" stop-color="#d8d8d8"/></linearGradient><linearGradient x1="-21.88375" y1="362.64824" x2="-12.8135" y2="363.18319" gradientUnits="userSpaceOnUse" id="color-8"><stop offset="0" stop-color="#a4a4a4"/><stop offset="1" stop-color="#d8d8d8"/></linearGradient><linearGradient x1="25.94172" y1="323.37334" x2="25.22843" y2="335.46698" gradientUnits="userSpaceOnUse" id="color-9"><stop offset="0" stop-color="#a4a4a4"/><stop offset="1" stop-color="#d8d8d8"/></linearGradient><linearGradient x1="20.10346" y1="409.49599" x2="20.81679" y2="397.40232" gradientUnits="userSpaceOnUse" id="color-10"><stop offset="0" stop-color="#a4a4a4"/><stop offset="1" stop-color="#d8d8d8"/></linearGradient><linearGradient x1="60.94943" y1="315.98082" x2="-20.51167" y2="415.89466" gradientUnits="userSpaceOnUse" id="color-11"><stop offset="0" stop-color="#0b2a00"/><stop offset="1" stop-color="#101800"/></linearGradient><linearGradient x1="187.90282" y1="584.39061" x2="223.12537" y2="587.64172" gradientUnits="userSpaceOnUse" id="color-12"><stop offset="0" stop-color="#a4a4a4"/><stop offset="1" stop-color="#d8d8d8"/></linearGradient><radialGradient cx="214.28149" cy="481.86685" r="28.63466" gradientUnits="userSpaceOnUse" id="color-13"><stop offset="0" stop-color="#d8d8d8"/><stop offset="1" stop-color="#a4a4a4"/></radialGradient><linearGradient x1="266.17858" y1="442.03291" x2="251.0081" y2="440.63265" gradientUnits="userSpaceOnUse" id="color-14"><stop offset="0" stop-color="#a4a4a4"/><stop offset="1" stop-color="#d8d8d8"/></linearGradient><linearGradient x1="170.3241" y1="435.78581" x2="185.4945" y2="437.18607" gradientUnits="userSpaceOnUse" id="color-15"><stop offset="0" stop-color="#a4a4a4"/><stop offset="1" stop-color="#d8d8d8"/></linearGradient><linearGradient x1="212.64598" y1="498.25118" x2="211.12903" y2="514.68582" gradientUnits="userSpaceOnUse" id="color-16"><stop offset="0" stop-color="#a4a4a4"/><stop offset="1" stop-color="#d8d8d8"/></linearGradient><linearGradient x1="270.89105" y1="442.8622" x2="287.62059" y2="450.82581" gradientUnits="userSpaceOnUse" id="color-17"><stop offset="0" stop-color="#a4a4a4"/><stop offset="1" stop-color="#d8d8d8"/></linearGradient><linearGradient x1="164.07006" y1="433.9113" x2="146.16543" y2="438.6781" gradientUnits="userSpaceOnUse" id="color-18"><stop offset="0" stop-color="#a4a4a4"/><stop offset="1" stop-color="#d8d8d8"/></linearGradient><linearGradient x1="196.78848" y1="659.02447" x2="195.2438" y2="675.75957" gradientUnits="userSpaceOnUse" id="color-19"><stop offset="0" stop-color="#a4a4a4"/><stop offset="1" stop-color="#d8d8d8"/></linearGradient><linearGradient x1="226.49749" y1="321.76003" x2="193.283" y2="681.6064" gradientUnits="userSpaceOnUse" id="color-20"><stop offset="0" stop-color="#0b2a00"/><stop offset="1" stop-color="#101800"/></linearGradient><linearGradient x1="242.88667" y1="172.74484" x2="241.64495" y2="188.77807" gradientUnits="userSpaceOnUse" id="color-21"><stop offset="0" stop-color="#a4a4a4"/><stop offset="1" stop-color="#d8d8d8"/></linearGradient><linearGradient x1="196.78873" y1="126.72871" x2="179.06772" y2="125.35628" gradientUnits="userSpaceOnUse" id="color-22"><stop offset="0" stop-color="#a4a4a4"/><stop offset="1" stop-color="#d8d8d8"/></linearGradient><linearGradient x1="242.17584" y1="180.97428" x2="230.24659" y2="335.0057" gradientUnits="userSpaceOnUse" id="color-23"><stop offset="0" stop-color="#0b2a00"/><stop offset="1" stop-color="#101800"/></linearGradient><linearGradient x1="70.77968" y1="132.41028" x2="422.9654" y2="159.68593" gradientUnits="userSpaceOnUse" id="color-24"><stop offset="0" stop-color="#0b2a00"/><stop offset="1" stop-color="#101800"/></linearGradient><radialGradient cx="246.83368" cy="125.96397" r="60.30492" gradientUnits="userSpaceOnUse" id="color-25"><stop offset="0" stop-color="#081800"/><stop offset="1" stop-color="#050900"/></radialGradient><radialGradient cx="205.81045" cy="45.0127" r="10.69385" gradientUnits="userSpaceOnUse" id="color-26"><stop offset="0" stop-color="#ffffff"/><stop offset="1" stop-color="#ffffff" stop-opacity="0"/></radialGradient><radialGradient cx="305.36424" cy="52.72283" r="10.69385" gradientUnits="userSpaceOnUse" id="color-27"><stop offset="0" stop-color="#ffffff"/><stop offset="1" stop-color="#ffffff" stop-opacity="0"/></radialGradient></defs><g transform="translate(72.33881,14.44445)"><g data-paper-data="{&quot;isPaintingLayer&quot;:true}" fill-rule="nonzero" stroke-linecap="butt" stroke-linejoin="miter" stroke-miterlimit="10" stroke-dasharray="" stroke-dashoffset="0" style="mix-blend-mode: normal"><path d="M-11.5015,374.44445v-388.88889h503.003v388.88889z" fill="url(#color-1)" stroke="none" stroke-width="0"/><g data-paper-data="{&quot;index&quot;:null}"><path d="M420.35683,443.53924c-42.39854,-3.4046 -75.18229,-1.5972 -73.1987,-50.62997c1.79745,-44.43276 37.94141,-41.70541 80.33989,-38.30078c42.39848,3.40463 76.60704,7.03632 73.19872,50.63c-3.58338,45.83294 -37.94138,41.70544 -80.33989,38.30078z" fill="#525252" stroke="#000000" stroke-width="0"/><path d="M343.71424,384.63165c1.55103,-4.27002 5.82105,-2.71899 5.82105,-2.71899l1.85238,0.81716c6.46058,0.75969 12.80145,3.46773 18.95861,6.65822c0.39571,-0.49162 0.81866,-1.00701 1.27882,-1.54575c2.08483,-2.44045 4.58172,-4.49647 6.87258,-6.74467c0,0 2.47879,-2.41619 5.218,-0.86666c0.80946,-0.15102 1.43462,-0.08614 1.43462,-0.08614l2.25938,0.23454c6.21978,0.66986 10.88405,1.10627 14.37421,4.50285c3.37898,-2.95749 6.75795,-5.91499 10.13693,-8.87248c0,0 3.16093,-2.7667 6.06413,0.06029c0.35206,-0.04785 0.71542,-0.05484 1.08447,-0.01651c0.35129,0.03644 0.68904,0.11205 1.00946,0.22197c1.42347,-0.16474 2.65478,0.39274 2.65478,0.39274l4.36237,1.97535c4.67062,2.11978 10.19939,2.67984 14.23244,5.84886c1.49585,1.17536 2.8872,3.12237 4.19142,5.3704c1.78389,-1.2263 3.72834,-2.17659 5.88912,-2.58242c8.55682,-1.60732 17.42886,2.99596 25.40491,8.36274c6.42955,-5.13572 16.60272,-8.47687 23.4679,-1.5172c2.43183,2.46528 2.68479,6.25499 3.46405,9.75039c1.12586,0.2521 2.31439,0.996 3.00709,2.83505c1.60124,4.25144 -2.65015,5.85269 -2.65015,5.85269c-1.92429,0.68152 -3.8486,1.36296 -5.7729,2.04448l-5.56944,-0.45595c0,0 -0.12173,-0.01266 -0.32324,-0.05381c-0.1422,-0.0014 -0.28557,-0.00945 -0.4299,-0.02441c-0.78219,-0.08116 -1.49735,-0.35633 -2.10264,-0.77269c-2.1781,1.06717 -4.43958,-0.417 -4.43958,-0.417c-2.87628,-1.88765 -5.8007,-4.06248 -8.79264,-6.20563c-4.58744,1.8537 -9.14732,3.78293 -13.82978,5.37629c-3.74645,1.2748 -7.47953,4.20628 -11.36234,3.44166c-3.07272,-0.60512 -4.29324,-4.56306 -6.34539,-6.92874c-1.00772,-1.1617 -1.8882,-2.36087 -2.69034,-3.59015c-7.79796,5.88475 -25.96355,8.04765 -34.46882,3.09805c-5.4895,-3.1946 -5.63614,-6.29028 -7.72458,-9.77762c-1.40743,1.23184 -2.78571,2.43818 -4.11627,3.6028c0,0 -0.3907,0.34195 -1.02353,0.66258c-0.68032,0.90276 -1.68532,1.53516 -2.82174,1.74031c-0.93494,0.94118 -2.27196,1.46654 -3.69421,1.31891c-0.33856,-0.03512 -0.66452,-0.1066 -0.97445,-0.21011c-2.13569,2.35015 -5.25741,0.79487 -5.25741,0.79487c-3.08752,-1.53817 -6.37794,-3.48818 -9.77985,-5.45579c-3.99294,3.43631 -8.64499,5.63262 -15.17892,4.67813c-2.29713,-0.33554 -4.96228,-0.00408 -6.82427,-1.39056c-2.76381,-2.05801 -3.38784,-6.23058 -6.11844,-8.33242l-0.6269,-2.342c-0.63306,-0.87387 -0.95881,-1.97516 -0.83863,-3.13294c0.05931,-0.57111 0.22198,-1.1065 0.46751,-1.58948c0.08267,-0.17982 0.17949,-0.36463 0.29253,-0.54838c-0.42353,-0.86962 -0.57053,-2.00857 -0.04227,-3.46285zM358.34304,396.39272c2.11324,0.01817 3.71,-0.19751 5.01046,-0.6328c-2.82823,-1.35504 -5.67604,-2.49717 -8.49619,-3.22316c0.14191,0.16507 0.27749,0.33586 0.40565,0.51349c0.75946,1.05203 -0.01235,2.84065 0.86692,3.7949c0.51025,0.55374 1.46026,-0.45886 2.21317,-0.45237zM383.4387,389.01723c-1.55628,1.6301 -3.02741,3.35925 -4.49324,5.06248c2.35924,1.31188 4.68511,2.59093 6.97361,3.74672c0.63608,-0.60971 1.44576,-1.0327 2.33606,-1.19347c0.3767,-0.37922 0.81864,-0.6909 1.30515,-0.91825c0.32123,-0.4146 0.59045,-0.65028 0.59045,-0.65028l1.25915,-1.10204c1.20298,-1.05294 2.40594,-2.10583 3.60892,-3.15877c-1.99653,-1.35103 -4.82559,-1.01766 -8.54717,-1.38683l-2.25933,-0.23452c0,0 -0.31665,-0.03284 -0.77356,-0.16503zM418.13138,385.09084c-0.73499,-0.07629 -1.41081,-0.32378 -1.99187,-0.69879c-2.79113,2.44296 -5.74697,5.03012 -8.70998,7.62361c0.53502,0.50102 1.02167,1.03818 1.37596,1.6745c1.16209,2.08716 1.20007,5.31957 3.36618,6.32684c5.67263,2.6378 20.23558,2.14796 24.82206,-2.28853c0.30715,-0.29707 0.6172,-0.60484 0.93077,-0.9203c-0.29986,-0.57521 -0.60456,-1.15322 -0.91809,-1.73332c-0.63024,-1.16596 -0.49427,-2.86956 -1.56011,-3.65751c-3.45947,-2.55757 -8.17738,-2.72532 -12.09801,-4.49676l-4.09028,-1.8521c-0.36515,0.05312 -0.7428,0.06228 -1.12661,0.02244zM467.12562,400.47012c-1.88161,-1.03515 -3.79444,-1.94123 -5.74255,-2.65037c-1.04252,-0.37949 -6.82308,-1.92594 -7.86789,-1.70077c-1.48368,0.31972 -2.74829,0.98943 -3.88141,1.84091c0.93133,1.91875 1.81674,3.68029 2.66592,5.0207c0.73723,1.16378 0.30045,3.66315 1.67318,3.77906c2.12699,0.17959 3.62686,-2.27359 5.56508,-3.16786c2.48428,-1.14623 5.02662,-2.15591 7.58768,-3.12163zM484.62791,401.19477c2.05633,1.49552 4.00641,2.90199 5.8224,4.09383c0,0 0.06282,0.04123 0.16702,0.12118c0.70606,-0.31738 1.50271,-0.45835 2.32816,-0.37269c0.14429,0.01494 0.28629,0.0365 0.42573,0.06438c0.20562,0.00114 0.32739,0.0138 0.32739,0.0138l1.35599,0.1885c-0.2851,-1.90154 -0.61327,-3.77311 -1.70054,-5.29888c-1.67338,-2.34832 -5.74949,-0.67493 -8.7262,1.18984z" fill="#000000" stroke="none" stroke-width="0.5"/><g stroke="none" stroke-width="0"><path d="M507.0435,415.89099l-168.69874,-17.51235l1.64177,-15.81553l168.69874,17.51235z" fill="#000000"/><path d="M379.68022,425.50664l-9.03741,-0.93813l6.33255,-61.00269l9.03749,0.93817z" fill="url(#color-2)"/><path d="M459.89676,371.41254l9.03743,0.93815l-6.33261,61.00265l-9.03743,-0.93818z" data-paper-data="{&quot;index&quot;:null}" fill="url(#color-3)"/><path d="M482.14894,384.37974l-57.72698,-15.88861l-61.2659,3.53612l1.2509,-12.04991l60.51279,-3.61433l58.48009,15.9668z" fill="url(#color-4)"/><path d="M477.27311,438.68258l-60.51279,3.61433l-58.48011,-15.9668l1.2509,-12.04991l59.2332,16.04493l59.75964,-3.6925z" data-paper-data="{&quot;index&quot;:null}" fill="url(#color-5)"/><path d="M491.99068,405.87256c0.68748,-6.62207 6.61294,-11.43301 13.23498,-10.74559c6.62207,0.68748 11.43303,6.61293 10.74559,13.23498c-0.68744,6.62205 -6.61297,11.43302 -13.235,10.7456c-6.62205,-0.68744 -11.43301,-6.61294 -10.74556,-13.235z" fill="#000000"/></g><path d="M420.35683,443.53924c-42.39854,-3.4046 -75.18229,-1.5972 -73.1987,-50.62997c1.79745,-44.43276 37.94141,-41.70541 80.33989,-38.30078c42.39848,3.40463 76.60704,7.03632 73.19872,50.63c-3.58338,45.83294 -37.94138,41.70544 -80.33989,38.30078z" fill="url(#color-6)" stroke="#000000" stroke-width="0"/></g><g><path d="M16.35346,410.14072c-42.39125,-3.49344 -76.96461,-4.97387 -73.09244,-50.78329c3.683,-43.57133 38.02874,-41.62577 80.41996,-38.1323c42.39125,3.49344 78.50077,6.64426 73.09244,50.78329c-5.96823,48.7086 -38.02866,41.62581 -80.41996,38.1323z" fill="#525252" stroke="#000000" stroke-width="0"/><path d="M101.50989,364.39621c0.28627,1.52056 -0.04292,2.62072 -0.60146,3.41047c0.08185,0.19961 0.14752,0.39763 0.20006,0.58845c0.16422,0.51632 0.23822,1.07091 0.20444,1.64413c-0.06856,1.16199 -0.56806,2.19613 -1.334,2.95616l-0.9972,2.20987c-3.03443,1.63282 -4.32473,5.64966 -7.38484,7.23385c-2.06162,1.06727 -4.63816,0.30936 -6.95932,0.26917c-6.6023,-0.11427 -10.83816,-3.0336 -14.22314,-7.07013c-3.67521,1.39186 -7.23758,2.78436 -10.53312,3.80323c0,0 -3.3321,1.03019 -5.0598,-1.63423c-0.3226,0.05205 -0.65581,0.0699 -0.99557,0.04986c-1.42743,-0.08418 -2.66193,-0.81877 -3.43244,-1.8987c-1.08833,-0.38615 -1.97788,-1.17269 -2.50333,-2.17352c-0.57269,-0.4187 -0.90297,-0.81932 -0.90297,-0.81932c-1.12483,-1.36435 -2.28998,-2.77764 -3.47978,-4.22078c-2.62472,3.10394 -3.26977,6.13518 -9.20345,8.40044c-9.19348,3.50972 -26.77059,-1.56104 -33.51479,-8.62887c-0.99033,1.08348 -2.05302,2.12453 -3.23528,3.10807c-2.40757,2.0029 -4.25175,5.7115 -7.38188,5.81198c-3.95531,0.12696 -7.16548,-3.36935 -10.65657,-5.23299c-4.36335,-2.32927 -8.55141,-4.97019 -12.77889,-7.54102c-3.29904,1.63132 -6.53652,3.30488 -9.68011,4.70278c0,0 -2.47163,1.09911 -4.4486,-0.30609c-0.66464,0.31305 -1.41487,0.46899 -2.19989,0.42266c-0.14481,-0.00856 -0.28765,-0.0238 -0.42819,-0.04539c-0.20548,0.008 -0.32769,0.00084 -0.32769,0.00084l-5.5699,-0.4503c-1.78884,-0.98359 -3.57768,-1.96712 -5.36651,-2.95073c0,0 -3.93665,-2.26739 -1.6693,-6.20411c0.98085,-1.70295 2.27402,-2.24492 3.4258,-2.3117c1.33403,-3.32351 2.19622,-7.02246 4.99456,-9.06224c7.89985,-5.75845 17.39917,-0.81686 22.91405,5.2906c8.73865,-4.00695 18.2381,-7.11561 26.42259,-4.1463c2.06673,0.74978 3.83201,2.0019 5.39424,3.50038c1.65047,-2.00768 3.33822,-3.7042 5.00437,-4.62227c4.49228,-2.47543 10.03887,-2.13446 14.99068,-3.47141l4.6243,-1.24423c0,0 1.30523,-0.35112 2.68335,0.04155c0.33397,-0.05669 0.6795,-0.07672 1.03206,-0.05588c0.37039,0.02183 0.72788,0.08747 1.06754,0.19159c3.32197,-2.32056 5.99413,0.9207 5.99413,0.9207c2.85647,3.46476 5.71298,6.92957 8.56947,10.39434c3.99326,-2.78776 8.66677,-2.46451 14.91305,-2.12017l2.26758,0.13376c0,0 0.62743,0.03702 1.40184,0.3169c2.95366,-1.08637 5.00929,1.69871 5.00929,1.69871c1.89731,2.58896 4.02902,5.0215 5.69199,7.76687c0.36704,0.60602 0.7011,1.183 1.01215,1.73211c6.59192,-2.15329 13.28713,-3.80077 19.78554,-3.50618l1.96011,-0.50699c0,0 4.46457,-0.84043 5.305,3.62416zM85.17252,373.63817c0.74409,0.11532 1.51788,1.26813 2.11095,0.80417c1.02194,-0.79956 0.54939,-2.68938 1.46893,-3.60485c0.15523,-0.15454 0.3166,-0.3012 0.48332,-0.44116c-2.9004,0.2606 -5.89536,0.92741 -8.90543,1.80747c1.21295,0.63977 2.75387,1.1107 4.84228,1.43437zM61.59904,362.30306c-0.47227,0.05654 -0.79007,0.03782 -0.79007,0.03782l-2.26755,-0.13374c-3.7323,-0.23723 -6.47028,-1.02352 -8.65894,-0.01298c1.01697,1.23354 2.03392,2.46703 3.05089,3.70057l1.06444,1.29109c0,0 0.22759,0.27611 0.47756,0.73717c0.44337,0.30307 0.8291,0.68203 1.13955,1.11715c0.85262,0.30257 1.58326,0.85086 2.11243,1.55537c2.44523,-0.77067 4.94725,-1.65695 7.48752,-2.57022c-1.17125,-1.91777 -2.34356,-3.86197 -3.61586,-5.72219zM27.99726,352.8207c-0.38518,-0.0227 -0.75638,-0.09278 -1.10818,-0.20425l-4.33585,1.16659c-4.1554,1.11443 -8.83841,0.51739 -12.6658,2.4821c-1.17918,0.60531 -1.32035,2.30846 -2.13077,3.35726c-0.40316,0.52179 -0.79731,1.04297 -1.18621,1.56213c0.25846,0.36199 0.51464,0.71583 0.76977,1.05866c3.80902,5.11947 18.10135,7.95685 24.12572,6.27068c2.30044,-0.64389 2.86041,-3.82766 4.34459,-5.69952c0.45248,-0.57068 1.01957,-1.02211 1.62854,-1.43007c-2.50488,-3.03831 -5.00362,-6.06923 -7.36317,-8.93123c-0.63407,0.27618 -1.34096,0.41119 -2.07864,0.36764zM-15.85531,364.38525c1.76814,1.19578 2.85179,3.85915 4.97984,4.02574c1.37342,0.10751 1.34637,-2.4296 2.26203,-3.45891c1.05468,-1.18551 2.21315,-2.78074 3.44239,-4.52377c-0.98059,-1.02343 -2.12028,-1.88873 -3.53281,-2.4441c-0.99467,-0.39106 -6.94919,0.20066 -8.03934,0.40664c-2.03711,0.38493 -4.07126,0.96991 -6.09544,1.68729c2.37132,1.36701 4.717,2.77437 6.98331,4.30706zM-48.64703,355.3795c-1.31959,1.32993 -1.94596,3.12388 -2.53469,4.95431l1.36863,0.03314c0,0 0.1222,0.00721 0.32532,0.0393c0.14211,-0.00496 0.28577,-0.00326 0.43053,0.00528c0.82844,0.04889 1.59179,0.31675 2.2373,0.74411c0.11572,-0.06208 0.18442,-0.0926 0.18442,-0.0926c1.98479,-0.8826 4.13653,-1.95538 6.40759,-3.09882c-2.63613,-2.3214 -6.38816,-4.63165 -8.41912,-2.58469z" fill="#000000" stroke="none" stroke-width="0.5"/><g stroke="none" stroke-width="0"><path d="M-63.78802,352.97102l169.31101,9.98647l-0.93623,15.87293l-169.31104,-9.98645z" fill="#000000"/><path d="M63.02105,337.6961l9.07028,0.53499l-3.6112,61.22409l-9.0702,-0.53502z" fill="url(#color-7)"/><path d="M-14.61909,393.79528l-9.07025,-0.53497l3.61117,-61.22406l9.07022,0.535z" data-paper-data="{&quot;index&quot;:null}" fill="url(#color-8)"/><path d="M-34.35017,329.67741l60.29191,-6.30408l59.13282,13.34811l-0.7133,12.09364l-59.88866,-13.39266l-59.5361,6.34866z" fill="url(#color-9)"/><path d="M-38.31596,384.05425l58.37693,13.30351l61.04778,-6.25946l-0.7133,12.09364l-60.29196,6.30409l-59.13282,-13.34811z" data-paper-data="{&quot;index&quot;:null}" fill="url(#color-10)"/><path d="M-60.99349,372.71442c-6.6461,-0.39199 -11.71602,-6.09747 -11.32404,-12.74361c0.39199,-6.6461 6.09747,-11.71597 12.74362,-11.32399c6.6461,0.39199 11.71599,6.09745 11.32401,12.74359c-0.39199,6.6461 -6.09747,11.71602 -12.74359,11.32401z" fill="#000000"/></g><path d="M16.35346,410.14072c-42.39125,-3.49344 -76.96461,-4.97387 -73.09244,-50.78329c3.683,-43.57133 38.02874,-41.62577 80.41996,-38.1323c42.39125,3.49344 78.50077,6.64426 73.09244,50.78329c-5.96823,48.7086 -38.02866,41.62581 -80.41996,38.1323zM18.63411,345.56693c-0.15355,0.19826 -0.32566,0.44981 -0.5158,0.73948l-0.74184,0.83174c-0.09426,0.09666 -0.18505,0.19829 -0.27199,0.30491c-0.36248,0.44458 -0.62679,0.9372 -0.79557,1.4515c-0.03137,0.08427 -0.06146,0.17129 -0.08962,0.26087c-1.48233,2.02272 -3.4216,3.98607 -5.74136,3.71425c-6.83981,-0.80145 -15.24628,-6.90705 -18.36992,4.92145c-2.17935,8.25276 6.8948,18.7374 13.6307,22.00195c2.52424,1.22335 5.93616,1.15332 7.74084,3.30077c1.33026,1.58295 9.17738,13.37919 11.76891,13.36535c11.76351,-0.06282 14.8308,-22.37971 24.68334,-27.66064c9.27529,-4.38801 10.65608,-6.73732 7.20205,-15.67757c-0.81248,-2.10308 0.24936,-5.14589 -1.4723,-6.60151c-2.3489,-1.98588 -6.02894,-1.27608 -8.95753,-2.21643c-8.35105,-2.68145 -15.52839,-3.92176 -24.41012,-2.67802l-2.82068,3.16243c-0.53371,0.40505 -0.83909,0.77956 -0.83909,0.77956z" fill="url(#color-11)" stroke="#000000" stroke-width="0"/><path d="M18.55574,345.4032c0,0 0.31708,-0.3796 0.85079,-0.78465l2.85784,-3.1727c8.88172,-1.24372 16.23747,0.07184 24.58852,2.75329c2.92859,0.94034 6.62716,0.26414 8.97604,2.25007c1.72167,1.45561 0.67061,4.53418 1.48315,6.63728c3.45403,8.94025 2.06445,11.38916 -7.21083,15.77717c-9.85254,5.28094 -13.0891,27.71432 -24.85261,27.77713c-2.59151,0.01384 -10.51912,-11.80111 -11.84937,-13.38405c-1.80468,-2.14746 -5.26138,-2.10864 -7.78561,-3.33198c-6.7359,-3.26456 -15.8664,-13.88908 -13.68704,-22.14185c3.12364,-11.8285 11.54508,-5.7873 18.3849,-4.98584c2.31977,0.27183 4.30505,-1.7548 5.78737,-3.77751c0.02815,-0.08958 0.06066,-0.17869 0.09204,-0.26297c0.16876,-0.5143 0.44864,-1.01882 0.81112,-1.4634c0.08693,-0.10663 0.18183,-0.21102 0.27612,-0.30768l0.75318,-0.83846c0.19015,-0.28965 0.37083,-0.54557 0.52437,-0.74383z" data-paper-data="{&quot;noHover&quot;:false,&quot;origItem&quot;:[&quot;Path&quot;,{&quot;applyMatrix&quot;:true,&quot;segments&quot;:[[[367.48181,262.68188],[0,0],[0.00346,0.13808]],[[367.51899,263.1771],[-0.01964,-0.18984],[0,0]],[[367.49179,263.79038],[0,0],[-0.0066,0.07408]],[[367.48181,264.01522],[0,-0.07578],[0,0.31596]],[[367.64739,264.91178],[-0.10696,-0.2783],[0.01594,0.0469]],[[367.69993,265.05434],[-0.01916,-0.04804],[0.07122,1.37946]],[[366.54169,268.63834],[1.08494,-0.69138],[-3.19892,2.03854]],[[360.41241,277.13324],[-2.78356,-6.1369],[1.9421,4.28172]],[[373.88953,281.78168],[-4.01188,0.95086],[1.50342,-0.35634]],[[378.34303,280.4965],[-1.51788,-0.28862],[1.11886,0.21276]],[[388.01925,282.10594],[-1.10152,0.90792],[5.00006,-4.12126]],[[388.92909,261.70604],[-2.36802,5.68378],[2.43238,-5.10166]],[[386.54691,252.5064],[4.58632,2.61444],[-1.07886,-0.61502]],[[383.62063,250.20062],[1.24164,0.02216],[-1.69398,-0.03022]],[[379.02513,252.3722],[1.57754,-0.6179],[-4.49844,1.76196]],[[367.67215,259.7252],[3.35878,-3.62236],[0,0]],[[367.56871,262.05704],[0,0],[-0.08686,0.35868]],[367.48183,262.6819]],&quot;closed&quot;:true,&quot;fillColor&quot;:[0,0,0,1]}]}" fill="#000000" stroke="none" stroke-width="0.5"/></g><g><path d="M343.94014,514.05625c8.67169,101.01584 -77.18946,174.33135 -151.92135,167.43345c-74.73194,-6.89789 -144.07539,-112.53475 -118.70686,-192.41295c30.20602,-95.10987 35.55435,-178.1743 151.92138,-167.43341c122.31489,11.28989 110.17168,92.9874 118.70687,192.4129z" fill="#000000" stroke="#000000" stroke-width="0"/><g stroke="none"><path d="M251.91507,684.68213c-5.05679,-0.46675 -4.59004,-5.52354 -4.59004,-5.52354l0.07779,-0.84279c0.54558,-5.82832 1.98505,-12.99177 -0.19184,-18.8301c-1.75588,-4.70921 -8.83808,-5.31209 -12.06392,-9.52537c-0.65366,-0.85376 -5.00998,-12.36735 -5.09346,-13.28673c-0.13786,-1.51898 1.79722,-2.89382 1.38305,-4.36174c-0.56942,-2.01798 -2.95521,-3.04014 -3.98667,-4.86571c-1.24708,-2.20712 -1.84367,-4.72316 -2.7655,-7.0847c-2.62725,-3.79906 -7.53546,-6.31301 -8.70492,-10.78156c-2.13064,-8.14114 2.17269,-22.54231 3.22024,-30.88117c0.29301,-2.33226 1.29201,-6.73691 -0.18118,-9.2688c-4.46105,-7.66677 -12.99822,-13.10315 -14.64493,-22.43642c-1.40474,-7.96161 5.35361,-13.78516 9.21477,-18.97713c3.50475,-4.71268 3.28051,-12.76201 1.40554,-17.90652c-1.13091,-3.103 -2.3711,-4.81596 -3.95934,-6.28866c-2.05026,9.6055 -4.0505,20.12904 -8.29871,27.8609c-3.37295,6.13889 -12.76338,12.51154 -18.27924,16.42019c-1.7364,1.23044 -6.36717,2.58664 -7.58668,5.15974c-5.21437,11.0018 2.3456,13.60552 3.23998,24.43445c0.96015,11.62504 -14.25807,27.30338 -23.18443,33.51259c-0.80356,2.73878 2.28816,5.25733 2.98819,8.0244c1.00278,3.96384 0.65199,11.56589 -1.51697,15.41922c-5.16511,9.17622 -16.47464,12.53059 -20.56563,22.85554c-0.50918,1.28515 0.0882,8.89745 0.10047,9.13186l0.43201,4.01082c0,0 0.53403,5.05013 -4.5161,5.58421c-5.05013,0.53403 -5.58421,-4.5161 -5.58421,-4.5161l-0.4757,-4.57276c-0.57803,-12.07247 2.62328,-19.61178 11.47659,-28.50285c3.14708,-3.16056 7.82967,-4.9119 10.14602,-8.72346c3.68818,-6.06889 -2.53892,-10.68036 -3.05982,-16.03354c-0.27808,-2.85765 1.42996,-5.56138 2.14497,-8.34202c7.3795,-5.88032 16.49843,-15.02487 21.30653,-23.41739c2.91409,-5.08659 -4.39767,-12.24353 -5.28445,-16.15312c-0.95607,-4.21503 1.92386,-14.72532 3.57963,-17.82975c5.15837,-9.67137 20.63482,-11.38016 25.68735,-21.26065c3.12702,-6.11508 4.92558,-13.82388 6.53811,-21.38557c-6.76662,0.30983 -13.39433,-2.4246 -18.91031,-9.58305c-1.90785,-2.47596 -3.53903,-5.17634 -4.93907,-7.971c-0.68779,-1.37287 -0.19642,-3.33155 -1.27209,-4.42737c-1.90127,-1.937 -5.34824,0.93085 -8.0134,1.44462c-5.30483,1.02267 -12.5751,3.77917 -18.01339,2.75427c-12.13896,-2.2877 -12.75647,-9.75501 -15.3245,-19.91003c-0.54483,-2.15434 -2.11654,-4.06406 -2.22736,-6.28346c-0.13582,-2.72078 3.22327,-13.04733 3.91185,-15.33658c0.31623,-3.5812 2.2436,-7.17574 1.46481,-10.68549c-0.58694,-2.64513 -4.66765,-2.76713 -6.86499,-4.35235c-3.10749,-2.24178 -9.3443,-7.23694 -10.43694,-11.03467c-1.52323,-5.29436 1.11421,-12.69446 5.24316,-16.17333c1.79389,-1.51148 4.65922,-1.07833 6.637,-2.33975c9.01993,-5.75297 15.49917,-20.26478 0.72086,-24.67543c-3.63089,-1.0836 -7.53687,-0.92579 -11.22457,-1.79669c0,0 -4.94002,-1.1772 -3.76278,-6.11717c1.17723,-4.93999 6.11722,-3.76278 6.11722,-3.76278c3.97785,0.95755 8.24102,0.69511 12.10233,2.048c12.49794,4.37912 20.61136,19.65565 13.09233,31.44505c-1.31053,2.05481 -11.41912,11.3039 -11.85503,11.58926c-1.79431,1.17469 -9.34867,1.65284 -7.3695,6.77498c2.69395,6.97206 14.47801,7.27332 17.12078,14.85512c0.532,1.52623 -0.79903,13.92425 -1.01224,16.15079c-1.25023,4.23757 -4.09673,8.30776 -3.75176,12.71245c0.12079,1.5421 1.49779,2.74456 1.87552,4.24451c0.71634,2.84476 0.50241,5.89288 1.38204,8.6915c1.24073,3.94734 6.07999,4.11284 9.25695,3.53936c7.19694,-1.29919 20.00227,-6.84254 26.81536,-2.06099c2.46883,1.73275 2.84815,5.31885 4.35331,7.93273c3.66652,6.36737 9.71981,13.55469 16.97136,12.71149c0.35679,-1.52164 0.72779,-3.00198 1.12419,-4.42381c0,0 0.40219,-1.4427 1.55324,-2.54269l-2.86998,-2.48813c0,0 -3.65713,-3.52343 -0.1337,-7.18056c3.52343,-3.65713 7.18056,-0.13366 7.18056,-0.13366l4.77504,4.88918c0.21635,1.28235 0.62643,2.34251 1.19607,3.20963l1.44049,-1.49972c0.43549,-0.46144 0.95518,-0.83966 1.5317,-1.11186c1.35351,-0.7027 3.4623,-1.15779 5.62466,0.8779c0.03757,0.03501 0.07457,0.07059 0.11103,0.10666c1.80013,1.7654 1.81059,3.56022 1.37654,4.90787c6.61654,-0.60073 14.40335,-3.78018 18.42344,-5.34479c2.16045,-0.84084 3.90166,-2.52808 5.99127,-3.53208c2.38256,-1.14478 4.91377,-1.95083 7.38309,-2.89398c2.25679,-0.86199 10.99177,-3.93308 9.20501,-8.15776c-1.63008,-3.85428 -5.28935,-6.54874 -7.27056,-10.23483c-2.02905,-9.0664 -1.76594,-28.51744 7.31732,-34.45887c5.12188,-3.35025 10.42855,-0.2014 15.53449,-5.20728c6.28377,-6.16066 -0.03839,-15.23649 3.00957,-22.15691c0.99271,-2.25393 3.94939,-2.95141 5.80571,-4.56998c10.42262,-9.08749 22.88088,-7.93195 35.46243,-12.87014c0,0 4.73168,-1.84398 6.57569,2.88771c1.84402,4.7317 -2.8877,6.57565 -2.8877,6.57565c-6.23931,2.41626 -12.68783,4.24127 -19.30858,5.37204c-3.11286,0.53167 -6.4612,-0.2133 -9.33022,1.66161c-1.64741,1.07652 -2.53888,3.04936 -4.09872,4.24919c-0.91914,0.70703 -2.73647,0.30203 -3.19984,1.36504c-1.33064,3.05259 1.49456,6.61158 1.14947,9.92363c-0.55807,5.35597 -1.96101,10.56903 -5.82917,14.57321c-2.85664,2.95709 -9.13246,6.39537 -13.29491,7.24062c-1.45094,0.29467 -3.04371,-0.80858 -4.43203,-0.29401c-0.74481,0.27606 -0.65535,1.46109 -0.81548,2.23911c-1.25671,6.10714 -3.71819,13.73368 -2.16268,19.86448c2.19923,4.02476 6.78223,6.93575 7.64433,11.44044c3.47136,18.13945 -26.46358,25.20758 -38.47152,29.00805c-5.31235,1.68134 -11.63076,3.33322 -17.34772,3.17415c6.95316,9.91943 8.80216,22.60646 1.32873,33.78045c-2.04175,3.05269 -8.31069,6.72549 -7.22615,11.80468c2.17609,10.19104 14.62508,14.62825 15.4582,26.2497c0.60251,8.40498 -1.98671,17.84565 -3.19748,26.14358c-0.3803,2.60632 -1.80757,5.24684 -1.20108,7.80995c0.37896,1.60162 2.7246,1.90813 3.79625,3.1573c1.66157,1.93687 2.88608,4.20948 4.32908,6.31422c2.02993,5.21738 6.24874,9.50184 7.7701,14.88952c0.51919,1.8385 -1.33571,3.68852 -1.23611,5.59636c0.14742,2.82345 1.51503,5.56968 3.15318,7.87401c2.55066,3.5879 5.54132,2.12286 8.82221,5.10601c8.37605,7.61598 6.23881,20.3893 5.34744,30.17641l-0.07779,0.84279c0,0 -0.46675,5.05679 -5.52354,4.59004z" fill="#000000" stroke-width="0.5"/><path d="M247.07405,196.35952c0.90479,-0.62696 4.14431,-2.48114 6.90598,0.84211c3.24569,3.90574 -0.66009,7.15146 -0.66009,7.15146l-5.09332,2.29855c-1.47848,-0.14923 -2.95698,-0.29838 -4.43544,-0.44761c-4.69589,-0.07784 -6.36497,6.76611 -6.72839,10.89192c-0.65909,7.48224 0.7816,14.9715 4.68654,21.67512c4.21605,7.2377 8.03556,7.57315 8.26883,17.26736c0.10402,4.32284 -1.35919,8.55972 -2.51983,12.72509c-3.40407,12.21662 -5.63955,23.55749 -10.28952,35.36666c-1.36957,3.47809 -1.43398,7.50436 -3.3911,10.68906c-4.20624,6.84456 -13.95949,12.32653 -19.19074,18.90411c-0.23578,3.66972 -1.04226,12.81914 -0.24432,16.15038c4.86922,20.32768 27.69171,42.99549 19.56676,65.58115c-1.3542,3.76434 -3.23454,7.43228 -5.78168,10.51712c-3.42819,4.15182 -9.24539,5.65379 -13.20576,9.30143c-3.72147,3.42762 -8.40401,8.79369 -9.55871,14.022c-1.74909,7.91988 2.97826,16.82119 11.2003,17.08189c0,0 5.05679,0.46678 4.59003,5.52357c-0.46675,5.05679 -5.52354,4.59007 -5.52354,4.59007c-14.0172,-1.76559 -23.26335,-14.70368 -20.23001,-29.16828c1.59938,-7.62635 7.15788,-14.37924 12.62926,-19.50905c6.25438,-5.86391 13.30097,-6.77781 16.16064,-15.30664c3.47811,-10.37338 -3.65532,-22.8691 -7.41106,-31.9861c-3.62147,-8.79114 -10.19295,-19.14406 -12.32275,-28.31993c-1.54745,-6.667 -0.05361,-15.51168 0.66244,-22.15295c2.38433,-3.22896 4.47368,-6.69813 7.15296,-9.68687c3.81061,-4.25078 10.13374,-6.19997 13.02137,-11.12462c1.53485,-2.61758 1.32558,-5.94397 2.40657,-8.77926c3.36434,-8.82446 5.74083,-16.24128 7.85139,-25.50985c1.33806,-5.87601 6.54983,-16.94497 3.98951,-23.33826c-1.25358,-3.13023 -4.88061,-4.77036 -6.58159,-7.6818c-2.7266,-4.66683 -6.26089,-13.94028 -6.74688,-19.21497c-0.74294,-8.06362 1.88371,-22.12796 9.41097,-27.02341c2.23221,-1.45177 5.21266,-1.09124 7.81901,-1.63682c1.19736,0.10246 2.39468,0.20495 3.59204,0.30742z" fill="#000000" stroke-width="0.5"/><path d="M217.65135,371.97495l17.02617,-184.46183l18.82265,1.73737l-17.02617,184.46183z" fill="#000000" stroke-width="0"/><path d="M180.73901,662.00366l14.32766,-155.22606l35.22255,3.25111l-14.32766,155.22606z" fill="url(#color-12)" stroke-width="0"/><path d="M183.291,506.07122l4.95406,-53.67243l57.02694,5.26369l-4.95406,53.67243z" fill="url(#color-13)" stroke-width="0"/><path d="M245.25224,502.99175l11.51172,-124.71816l15.17045,1.40026l-11.51172,124.71816z" data-paper-data="{&quot;index&quot;:null}" fill="url(#color-14)" stroke-width="0"/><path d="M164.49083,498.98351l11.66654,-126.39544l15.17045,1.40026l-11.66654,126.39544z" data-paper-data="{&quot;index&quot;:null}" fill="url(#color-15)" stroke-width="0"/><path d="M164.66656,510.39725l1.51694,-16.43462l92.92488,8.57713l-1.51694,16.43462z" fill="url(#color-16)" stroke-width="0"/><path d="M239.57959,508.63989l62.62294,-131.55543l16.72962,7.96358l-62.62295,131.55551z" fill="url(#color-17)" stroke-width="0"/><path d="M164.90766,509.07587l-37.48445,-140.79557l17.90462,-4.76684l37.48449,140.79557z" data-paper-data="{&quot;index&quot;:null}" fill="url(#color-18)" stroke-width="0"/><path d="M109.43998,374.98707l1.51694,-16.43465l231.29909,21.34934l-1.51694,16.43465z" fill="#000000" stroke-width="0"/><path d="M121.52438,368.89418c-0.68402,7.41067 -7.24598,12.8636 -14.65658,12.17958c-7.41064,-0.68401 -12.86364,-7.24596 -12.17962,-14.65662c0.68402,-7.41067 7.24598,-12.8636 14.65665,-12.17958c7.41064,0.68401 12.86356,7.24598 12.17954,14.65662z" fill="#000000" stroke-width="0"/><path d="M352.20481,390.24954c-0.68402,7.41067 -7.24598,12.8636 -14.65658,12.17958c-7.41064,-0.68401 -12.86356,-7.24598 -12.17954,-14.65662c0.68402,-7.41067 7.24598,-12.86356 14.65658,-12.17954c7.41064,0.68401 12.86356,7.24598 12.17954,14.65658z" fill="#000000" stroke-width="0"/><path d="M135.21908,670.21917l1.54468,-16.73507l120.0494,11.08078l-1.54468,16.73507z" fill="url(#color-19)" stroke-width="0"/><path d="M151.90337,663.54573c-0.89777,9.72643 -9.5104,16.88345 -19.23678,15.98569c-9.72643,-0.89777 -16.88348,-9.51033 -15.98572,-19.23678c0.89777,-9.72643 9.51036,-16.88345 19.23681,-15.98568c9.72643,0.89777 16.88345,9.5104 15.98569,19.23678z" fill="#000000" stroke-width="0"/><path d="M273.18907,675.59059c-0.89777,9.72643 -9.5104,16.88345 -19.23678,15.98569c-9.72646,-0.89777 -16.88348,-9.51037 -15.98572,-19.23678c0.89777,-9.72643 9.51037,-16.88348 19.23681,-15.98571c9.72646,0.89777 16.88345,9.5104 15.98568,19.23681z" fill="#000000" stroke-width="0"/></g><path d="M345.20435,514.17294c8.67169,101.01584 -77.18946,174.33135 -151.92135,167.43345c-74.73194,-6.89789 -144.07539,-112.53475 -118.70686,-192.41295c30.20602,-95.10987 35.55438,-178.1743 151.92142,-167.43341c122.31493,11.2899 110.17171,92.9874 118.70687,192.4129zM282.40199,523.12967c-0.9961,2.04533 -0.42038,4.69074 -1.60332,6.63401c-4.10479,6.74299 -13.45193,3.91553 -19.20993,7.89761c-1.72807,1.1951 -2.11828,3.66465 -3.52464,5.2256c-6.06232,6.72867 -11.01885,5.41482 -13.21564,15.58182c-0.54274,2.51175 -0.85129,5.10764 -0.73054,7.67453c0.03296,0.70086 1.87352,1.69647 1.17375,1.74723c-5.17992,0.37551 -19.04857,-1.381 -15.53992,11.79792c1.02681,3.85682 6.08326,5.1683 9.12487,7.75241c7.92856,6.29022 14.97671,10.71639 24.7593,14.06604c2.27451,0.77882 4.63014,2.50817 6.95684,1.90292c15.14136,-3.93863 16.9925,-20.23962 27.9491,-27.64773c4.16549,-2.81641 13.62241,-2.52786 16.91013,-6.66322c1.96805,-2.47546 0.22783,-6.43338 1.34656,-9.39134c0.60498,-1.59958 2.62475,-2.25322 3.59121,-3.66416c12.86918,-18.78807 12.60929,-42.17737 -10.8786,-50.37709l-5.36989,-0.52982c0,0 -4.48119,-0.41362 -4.93112,4.04504c-7.18083,2.22515 -13.16437,6.46641 -16.8081,13.94817zM136.62897,414.79678l-1.68915,0.67139c-0.46079,0.05957 -0.93785,0.20015 -1.40179,0.46385c-4.9298,1.44738 -7.68934,2.04801 -9.88763,4.67252c-0.09704,-0.03937 -0.19584,-0.07551 -0.29626,-0.1083l-0.18484,-0.4061l-0.52082,0.23704c-0.0954,-0.01493 -0.1919,-0.02697 -0.28938,-0.03596c-1.03388,-0.09543 -2.01875,0.16379 -2.83419,0.67765l-5.07048,3.11897c-1.19755,0.71888 -2.04832,1.97899 -2.18653,3.47643c-0.07193,0.77937 0.05767,1.53091 0.34594,2.20301l-0.36486,0.12083c-0.29954,3.30036 -1.50608,6.64327 -0.89861,9.90105c1.31798,7.0681 6.34896,8.04472 8.50628,14.48972c2.35302,7.02967 -2.47588,17.45701 -2.47156,24.71954c0.01135,19.05181 14.06799,35.13816 29.03682,45.95851c5.38352,1.33468 11.07661,6.05127 16.18064,3.88048c3.21919,-1.36916 5.63088,-4.56274 7.08028,-7.74662c1.04182,-2.28852 1.0767,-13.59375 1.74729,-17.08724c1.61236,-8.39994 8.72273,-14.15482 10.52479,-22.38645c0.89657,-4.09538 2.26647,-8.82989 0.3753,-12.57144c-2.06164,-4.07887 -9.64226,-2.10189 -12.47527,-5.68822c-3.64162,-4.60998 -2.40194,-15.18221 -4.39414,-19.9601c-3.94781,-9.46806 -13.56128,-18.43224 -22.57951,-24.37484c-0.02628,-0.49823 -0.14181,-1.04561 -0.37533,-1.64483c-1.64807,-4.22891 -5.877,-2.58087 -5.877,-2.58087z" fill="url(#color-20)" stroke="#000000" stroke-width="0"/><path d="M142.49509,417.19641c0.23353,0.59922 0.35002,1.14655 0.3763,1.64477c9.01821,5.94259 18.7455,14.93916 22.6933,24.40721c1.99221,4.7779 0.82036,15.44004 4.46199,20.04997c2.83301,3.58634 10.423,1.65554 12.48465,5.7344c1.89117,3.74155 0.5152,8.53718 -0.38138,12.63255c-1.80205,8.23162 -8.97463,14.0805 -10.58699,22.48042c-0.67058,3.4935 -0.73923,14.81993 -1.78104,17.10844c-1.44939,3.18388 -3.88888,6.38816 -7.10806,7.75732c-5.10402,2.17079 -10.84612,-2.5384 -16.22963,-3.87308c-14.96882,-10.82036 -29.20349,-27.04266 -29.21483,-46.09447c-0.00431,-7.26251 4.84949,-17.83652 2.49648,-24.86619c-2.15733,-6.44498 -7.17071,-7.44383 -8.48869,-14.51197c-0.60747,-3.25777 0.61867,-6.61893 0.91819,-9.91929l0.3658,-0.1216c-0.28827,-0.6721 -0.41504,-1.4258 -0.34309,-2.20519c0.13821,-1.49745 0.99901,-2.76464 2.19656,-3.48352l5.08684,-3.12857c0.81544,-0.51385 1.80846,-0.77706 2.84236,-0.68164c0.09748,0.00901 0.19471,0.0207 0.29015,0.03563l0.52249,-0.23779l0.18487,0.40607c0.10042,0.03279 0.19991,0.06862 0.29695,0.10799c2.19829,-2.62452 4.99109,-3.2359 9.9209,-4.68324c0.46395,-0.26369 0.94557,-0.40521 1.40636,-0.46478l1.69467,-0.67238c0,0 4.24681,-1.65004 5.89494,2.57888z" data-paper-data="{&quot;noHover&quot;:false,&quot;origItem&quot;:[&quot;Path&quot;,{&quot;applyMatrix&quot;:true,&quot;segments&quot;:[[433.53043,267.11246],[[432.63795,267.56622],[0,0],[-0.24972,0.056]],[[431.89257,267.8916],[0.24112,-0.16812],[-2.63064,1.04344]],[[426.70591,270.95498],[1.07286,-1.5508],[-0.05522,-0.01668]],[[426.53793,270.91058],[0.05674,0.0129],[0,0]],[426.41599,270.6972],[[426.14233,270.85358],[0,0],[-0.05308,-0.00336]],[[425.98179,270.8485],[0.05392,0],[-0.5719,0]],[[424.46159,271.36366],[0.42124,-0.32312],[0,0]],[[421.83841,273.33106],[0,0],[-0.62044,0.45492]],[[420.81513,275.34852],[0,-0.82832],[0,0.43112]],[[421.11641,276.53932],[-0.19214,-0.35404],[0,0]],[[420.92241,276.62406],[0,0],[0.0028,1.82536]],[[420.93079,282.10012],[-0.49812,-1.75608],[1.08072,3.81002]],[[426.32991,289.61686],[-1.50954,-3.42576],[1.64648,3.73654]],[[426.22575,303.30026],[-0.37004,-3.98316],[0.97074,10.44904]],[[444.47869,327.03776],[-8.75796,-5.17698],[3.02034,0.4595]],[[453.54997,328.34698],[-2.68958,1.44904],[1.69636,-0.91394]],[[457.04121,323.73964],[-0.63378,1.81968],[0.45556,-1.30796]],[[457.13451,314.2791],[-0.19094,1.95008],[0.4591,-4.68886]],[[461.77385,301.46766],[-0.57166,4.60614],[0.28442,-2.29164]],[[461.34325,294.55342],[1.2267,1.95644],[-1.33728,-2.13282]],[[454.21279,292.0651],[1.73542,1.82362],[-2.23076,-2.34414]],[[450.79217,281.33976],[1.33458,2.51974],[-2.64464,-4.99322]],[[437.17367,269.11366],[5.2472,2.80286],[-0.03964,-0.27194]],[[436.88453,268.2305],[0.15842,0.31684],[-1.11804,-2.23606]]],&quot;closed&quot;:true,&quot;fillColor&quot;:[0,0,0,1]}]}" fill="#000000" stroke="none" stroke-width="0.5"/><path d="M282.42161,522.94912c3.64374,-7.48177 9.68259,-11.70792 16.86341,-13.93307c0.44994,-4.45866 4.93957,-4.04093 4.93957,-4.04093l5.38381,0.53781c23.48789,8.19972 23.83182,31.75291 10.96262,50.541c-0.96646,1.41093 -2.98826,2.08286 -3.59323,3.68245c-1.11874,2.95797 0.60931,6.95811 -1.35874,9.43354c-3.28772,4.13536 -12.79186,3.91208 -16.95734,6.7285c-10.95661,7.4081 -12.95811,23.75167 -28.09946,27.69034c-2.32671,0.60525 -4.70755,-1.13029 -6.98206,-1.90911c-9.7826,-3.34965 -16.91394,-7.83174 -24.84249,-14.12197c-3.04161,-2.58412 -8.11965,-3.92768 -9.14645,-7.78448c-3.50865,-13.17892 10.68781,-11.57777 15.86774,-11.95327c0.69977,-0.05075 -1.47901,-0.91463 -1.51197,-1.61547c-0.12074,-2.56688 0.179,-5.19851 0.72174,-7.71027c2.19677,-10.16701 7.17142,-8.96113 13.23374,-15.6898c1.40636,-1.56096 1.82413,-4.07029 3.5522,-5.26539c5.75801,-3.98209 15.25219,-1.21334 19.35698,-7.95635c1.18293,-1.94327 0.61388,-4.5881 1.60998,-6.63344z" data-paper-data="{&quot;noHover&quot;:false,&quot;origItem&quot;:[&quot;Path&quot;,{&quot;applyMatrix&quot;:true,&quot;segments&quot;:[[[518.96911,319.15142],[0,0],[-0.4428,1.17226]],[[518.42557,322.87124],[0.55044,-1.12574],[-1.91004,3.90624]],[[508.28905,328.17548],[2.95658,-2.47562],[-0.88732,0.74298]],[[506.62039,331.22008],[0.69234,-0.92736],[-2.98444,3.99748]],[[500.16067,340.43552],[0.69018,-5.68766],[-0.17052,1.40514]],[[500.14851,344.68186],[-0.19618,-1.40178],[0.05356,0.38274]],[[500.88075,345.58076],[0.38124,-0.06326],[-2.8221,0.4682]],[[492.95463,352.83846],[-2.59164,-7.0508],[0.75844,2.06342]],[[498.35195,356.62858],[-1.7991,-1.26336],[4.66714,3.0487]],[[512.64415,363.09012],[-5.53518,-1.34198],[1.28696,0.31202]],[[516.55621,363.78164],[-1.24552,0.44976],[8.1054,-2.92682]],[[530.48615,347.20234],[-5.63448,4.61792],[2.14212,-1.75564]],[[539.42375,342.69158],[-1.5939,2.43462],[0.95412,-1.45738]],[[539.68687,337.4724],[-0.46386,1.67904],[0.25084,-0.90798]],[[541.47109,335.28086],[-0.45866,0.8228],[6.10738,-10.95648]],[[532.95395,308.20056],[13.29786,3.30832],[0,0]],[529.98183,308.18182],[[527.48197,310.6501],[0.02106,-2.46828],[-3.82592,1.584]],[[518.96913,319.15138],[1.61976,-4.2881],[0,0]]],&quot;closed&quot;:true,&quot;fillColor&quot;:[0,0,0,1]}]}" fill="#000000" stroke="none" stroke-width="0.5"/></g><path d="M418.0768,207.21341c-3.2824,42.38273 -352.34537,11.5288 -351.88862,-27.25265c0.63031,-53.5166 34.93945,-98.31008 83.8909,-123.08581c30.57121,-15.47295 176.8465,-3.71936 204.24801,16.92314c42.38036,31.92655 67.82697,80.76915 63.74969,133.41535z" fill="#000000" stroke="#000000" stroke-width="0"/><g stroke-width="0"><path d="M189.74459,134.98496l1.24172,-16.03327l112.23304,8.6921l-1.24172,16.03327z" fill="#000000" stroke="none"/><path d="M191.74225,282.04112l8.03549,-103.75502l10.73932,0.83172l-8.03549,103.75507z" fill="#000000" stroke="none"/><path d="M267.55953,284.56662l7.80753,-100.8115l10.73935,0.83172l-7.80753,100.8115z" data-paper-data="{&quot;index&quot;:null}" fill="#000000" stroke="none"/><path d="M185.52844,184.43201l1.24172,-16.03327l112.23308,8.6921l-1.24172,16.03327z" fill="url(#color-21)" stroke="none"/><path d="M291.01063,192.60128l9.01886,-116.4523l17.72098,1.37243l-9.01886,116.4523z" fill="#000000" stroke="#000000"/><path d="M174.55829,183.58242l9.01886,-116.4523l17.72105,1.37244l-9.01886,116.4523z" data-paper-data="{&quot;index&quot;:null}" fill="url(#color-22)" stroke="#000000"/><g fill="#000000" stroke="none"><g data-paper-data="{&quot;index&quot;:null}"><path d="M276.25061,228.89093l-1.07834,13.92367l-10.9701,-0.8496l1.07834,-13.92367z"/><path d="M261.06116,227.71456l-1.07834,13.92367l-10.97017,-0.84961l1.07834,-13.92367z"/><path d="M245.90443,226.11626l-1.07834,13.92363l-10.97014,-0.8496l1.07834,-13.92363z"/><path d="M230.71495,224.93988l-1.07834,13.92363l-10.97017,-0.84961l1.07834,-13.92363z"/><path d="M215.82864,223.50401l-1.07834,13.92363l-10.97017,-0.84961l1.07834,-13.92363z"/></g><path d="M283.94163,213.35175l-1.50314,19.40868l-86.07348,-6.66611l1.50314,-19.40868z" data-paper-data="{&quot;index&quot;:null}"/></g><g fill="#000000" stroke="#000000"><g><path d="M310.84095,-0.87219c30.0602,2.32807 52.54154,28.58393 50.21347,58.64415c-2.32807,30.0602 -28.58397,52.54157 -58.64415,50.21351c-30.0602,-2.32807 -52.54153,-28.58398 -50.21347,-58.64418c2.32807,-30.0602 28.58393,-52.54154 58.64415,-50.21347z"/></g><g data-paper-data="{&quot;index&quot;:null}"><path d="M252.29489,48.0755c-2.32807,30.0602 -28.58393,52.54154 -58.64415,50.21347c-30.0602,-2.32807 -52.54154,-28.58393 -50.21347,-58.64415c2.32807,-30.0602 28.58393,-52.54154 58.64415,-50.21347c30.0602,2.32807 52.54154,28.58393 50.21347,58.64415z"/></g></g></g><g stroke-width="0"><g fill="#000000" stroke="none"><g><path d="M261.37229,278.35511l1.07834,-13.92363l10.9701,0.8496l-1.07834,13.92363z"/><path d="M246.18285,277.17875l1.07834,-13.92363l10.97017,0.84961l-1.07834,13.92363z"/><path d="M230.96072,276.42429l1.07834,-13.92367l10.97014,0.8496l-1.07834,13.92367z"/><path d="M215.77127,275.24792l1.07834,-13.92367l10.97021,0.8496l-1.07834,13.92367z"/><path d="M200.84132,274.3746l1.07834,-13.92367l10.97017,0.84961l-1.07834,13.92367z"/></g><path d="M191.47568,289.07663l1.50314,-19.40868l86.07348,6.66611l-1.50314,19.40868z"/></g><path d="M231.16538,335.04634c-52.96517,-2.43671 -176.61513,-78.68256 -164.79626,-157.57083c1.35612,-9.05172 -12.20085,-4.28907 22.86071,-6.30451c33.50269,-1.9258 36.67144,107.67152 144.43654,115.14101c123.84923,8.58432 122.97577,-100.78825 154.89594,-93.86845c33.07723,7.17064 30.45678,2.45391 29.69543,12.28461c-6.15688,79.49838 -123.9955,133.22098 -187.09232,130.31817z" data-paper-data="{&quot;index&quot;:null}" fill="url(#color-23)" stroke="#000000"/></g><g stroke="#000000" stroke-width="0"><path d="M419.27745,207.30501c-3.2824,42.38273 -352.34533,11.52873 -351.88857,-27.25266c0.61271,-52.02542 30.00211,-94.76997 76.78197,-119.93131c0.34915,-0.18779 28.79498,34.34327 51.44891,36.09775c6.85501,0.5309 13.50991,-0.24353 19.7203,-2.11425c2.68723,-0.80942 5.52058,-1.45316 8.46199,-1.94122c-0.16352,0.94677 -0.28338,1.8815 -0.34576,2.80166c-0.20299,2.9954 2.9413,11.67668 3.9224,15.10536c0.62408,2.18089 0.15531,4.93905 1.71581,6.58541c3.30607,3.48796 10.40247,2.11575 13.05131,6.12565c4.63883,7.02247 -0.75397,18.79479 3.23442,25.89638c1.797,3.19964 4.7775,5.57166 7.16631,8.35749c12.28911,4.16849 28.27523,11.70416 41.84996,8.44001c4.25131,-1.02224 6.34521,-6.19225 10.21267,-8.23222c8.57894,-4.52516 21.9026,-4.77939 28.26517,-14.36143c3.04923,-4.59219 -1.63183,-11.72225 -2.06695,-15.76371c-0.32433,-3.0122 3.23492,-5.12393 4.79519,-7.72086c3.88512,-6.46654 6.03727,-12.12158 0.81052,-18.90297c-0.56398,-0.73174 -1.29195,-1.27197 -2.10185,-1.71644c15.28622,-8.65553 23.71195,-22.97512 24.26774,-22.53723c40.54516,31.94531 64.67692,79.69419 60.69846,131.06448z" fill="url(#color-24)"/><path d="M251.49015,65.83908c26.91434,2.08443 46.64798,30.69304 44.07629,63.89907c-2.5717,33.20604 -26.47491,58.43512 -53.38925,56.35069c-26.91437,-2.08443 -46.64795,-30.69303 -44.07626,-63.89908c2.5717,-33.20604 26.47487,-58.43511 53.38922,-56.35068z" fill="url(#color-25)"/></g><g stroke="none" stroke-width="0"><path d="M212.34298,45.51863c-0.28541,3.68516 -3.4415,6.44605 -7.04931,6.16664c-3.60783,-0.27942 -6.30118,-3.49334 -6.01576,-7.1785c0.28541,-3.68516 3.4415,-6.44605 7.04931,-6.16664c3.60783,0.27942 6.30118,3.49334 6.01576,7.1785zM205.3256,50.75404c3.16129,0.24483 5.92249,-2.11944 6.16732,-5.2807c0.24483,-3.16129 -2.11944,-5.92249 -5.2807,-6.16732c-3.16129,-0.24483 -5.92249,2.11944 -6.16732,5.2807c-0.24483,3.16129 2.11944,5.92249 5.2807,6.16732z" fill="#ffffff"/><path d="M216.47237,45.83843c-0.46581,6.0146 -5.61694,10.52069 -11.50536,10.06466c-5.8884,-0.45604 -10.28431,-5.70155 -9.81849,-11.71612c0.46581,-6.0146 5.61695,-10.52073 11.50535,-10.06469c5.8884,0.45604 10.28431,5.70155 9.8185,11.71615z" fill="url(#color-26)"/></g><g stroke="none" stroke-width="0"><path d="M311.89677,53.22876c-0.28541,3.68516 -3.4415,6.44605 -7.04931,6.16664c-3.60783,-0.27942 -6.30118,-3.49334 -6.01576,-7.1785c0.28541,-3.68516 3.4415,-6.44605 7.04931,-6.16664c3.60783,0.27942 6.30118,3.49334 6.01576,7.1785zM304.87938,58.46416c3.16129,0.24483 5.92249,-2.11944 6.16732,-5.2807c0.24483,-3.16129 -2.11944,-5.92249 -5.2807,-6.16732c-3.16129,-0.24483 -5.92249,2.11944 -6.16732,5.2807c-0.24483,3.16129 2.11944,5.92249 5.2807,6.16732z" fill="#ffffff"/><path d="M316.02615,53.54856c-0.46581,6.0146 -5.61694,10.52069 -11.50536,10.06466c-5.8884,-0.45604 -10.28431,-5.70155 -9.81849,-11.71612c0.46581,-6.0146 5.61695,-10.52073 11.50535,-10.06469c5.8884,0.45604 10.28431,5.70155 9.8185,11.71615z" fill="url(#color-27)"/></g></g></g></svg>