<svg version="1.1" xmlns="http://www.w3.org/2000/svg" xmlns:xlink="http://www.w3.org/1999/xlink" width="167.5432" height="182.89978" viewBox="0,0,167.5432,182.89978"><defs><linearGradient x1="84.89996" y1="218.22943" x2="84.89996" y2="262.70691" gradientUnits="userSpaceOnUse" id="color-1"><stop offset="0" stop-color="#bdbdbd"/><stop offset="1" stop-color="#848484"/></linearGradient><radialGradient cx="121.9943" cy="236.36438" r="42.93484" gradientUnits="userSpaceOnUse" id="color-2"><stop offset="0" stop-color="#af2e80"/><stop offset="1" stop-color="#892464"/></radialGradient><radialGradient cx="84.26526" cy="235.49493" r="32.1449" gradientUnits="userSpaceOnUse" id="color-3"><stop offset="0" stop-color="#1e1e1e"/><stop offset="1" stop-color="#000000"/></radialGradient><linearGradient x1="84.40409" y1="228.77753" x2="84.40409" y2="230.22868" gradientUnits="userSpaceOnUse" id="color-4"><stop offset="0" stop-color="#bebebe"/><stop offset="1" stop-color="#9f9f9f"/></linearGradient><linearGradient x1="79.48053" y1="186.48675" x2="79.48053" y2="231.26522" gradientUnits="userSpaceOnUse" id="color-5"><stop offset="0" stop-color="#bebebe"/><stop offset="1" stop-color="#9f9f9f"/></linearGradient><linearGradient x1="89.63861" y1="186.48675" x2="89.63861" y2="231.26522" gradientUnits="userSpaceOnUse" id="color-6"><stop offset="0" stop-color="#bebebe"/><stop offset="1" stop-color="#9f9f9f"/></linearGradient><linearGradient x1="84.62783" y1="226.48051" x2="84.62783" y2="237.20298" gradientUnits="userSpaceOnUse" id="color-7"><stop offset="0" stop-color="#8f8f8f"/><stop offset="1" stop-color="#797979"/></linearGradient><linearGradient x1="100.74987" y1="233.49408" x2="100.74987" y2="227.26134" gradientUnits="userSpaceOnUse" id="color-8"><stop offset="0" stop-color="#373737"/><stop offset="1" stop-color="#8f8f8f"/></linearGradient><linearGradient x1="68.3399" y1="233.49408" x2="68.3399" y2="227.26134" gradientUnits="userSpaceOnUse" id="color-9"><stop offset="0" stop-color="#373737"/><stop offset="1" stop-color="#8f8f8f"/></linearGradient><linearGradient x1="98.81126" y1="235.24486" x2="98.81126" y2="229.01213" gradientUnits="userSpaceOnUse" id="color-10"><stop offset="0" stop-color="#373737"/><stop offset="1" stop-color="#8f8f8f"/></linearGradient><linearGradient x1="70.27852" y1="235.24486" x2="70.27852" y2="229.01213" gradientUnits="userSpaceOnUse" id="color-11"><stop offset="0" stop-color="#373737"/><stop offset="1" stop-color="#8f8f8f"/></linearGradient><linearGradient x1="96.11874" y1="236.64549" x2="96.11874" y2="230.41276" gradientUnits="userSpaceOnUse" id="color-12"><stop offset="0" stop-color="#373737"/><stop offset="1" stop-color="#8f8f8f"/></linearGradient><linearGradient x1="72.97104" y1="236.64549" x2="72.97104" y2="230.41276" gradientUnits="userSpaceOnUse" id="color-13"><stop offset="0" stop-color="#373737"/><stop offset="1" stop-color="#8f8f8f"/></linearGradient><linearGradient x1="93.31853" y1="237.69597" x2="93.31853" y2="231.46323" gradientUnits="userSpaceOnUse" id="color-14"><stop offset="0" stop-color="#373737"/><stop offset="1" stop-color="#8f8f8f"/></linearGradient><linearGradient x1="75.77125" y1="237.69597" x2="75.77125" y2="231.46323" gradientUnits="userSpaceOnUse" id="color-15"><stop offset="0" stop-color="#373737"/><stop offset="1" stop-color="#8f8f8f"/></linearGradient><linearGradient x1="90.1952" y1="238.46631" x2="90.1952" y2="232.23358" gradientUnits="userSpaceOnUse" id="color-16"><stop offset="0" stop-color="#373737"/><stop offset="1" stop-color="#8f8f8f"/></linearGradient><linearGradient x1="78.89457" y1="238.46631" x2="78.89457" y2="232.23358" gradientUnits="userSpaceOnUse" id="color-17"><stop offset="0" stop-color="#373737"/><stop offset="1" stop-color="#8f8f8f"/></linearGradient><linearGradient x1="86.96419" y1="238.8865" x2="86.96419" y2="232.65376" gradientUnits="userSpaceOnUse" id="color-18"><stop offset="0" stop-color="#373737"/><stop offset="1" stop-color="#8f8f8f"/></linearGradient><linearGradient x1="82.12559" y1="238.8865" x2="82.12559" y2="232.65376" gradientUnits="userSpaceOnUse" id="color-19"><stop offset="0" stop-color="#373737"/><stop offset="1" stop-color="#8f8f8f"/></linearGradient><linearGradient x1="116.35407" y1="244.77457" x2="116.35407" y2="225.94527" gradientUnits="userSpaceOnUse" id="color-20"><stop offset="0" stop-color="#767676"/><stop offset="1" stop-color="#ececec"/></linearGradient><linearGradient x1="120.02185" y1="236.18529" x2="113.33659" y2="236.18529" gradientUnits="userSpaceOnUse" id="color-21"><stop offset="0" stop-color="#4c4c4c"/><stop offset="1" stop-color="#2c2c2c"/></linearGradient><linearGradient x1="52.68791" y1="244.77457" x2="52.68791" y2="225.94527" gradientUnits="userSpaceOnUse" id="color-22"><stop offset="0" stop-color="#767676"/><stop offset="1" stop-color="#ececec"/></linearGradient><linearGradient x1="49.02013" y1="236.18529" x2="55.70539" y2="236.18529" gradientUnits="userSpaceOnUse" id="color-23"><stop offset="0" stop-color="#4c4c4c"/><stop offset="1" stop-color="#2c2c2c"/></linearGradient><linearGradient x1="112.54586" y1="250.06375" x2="112.54586" y2="231.23445" gradientUnits="userSpaceOnUse" id="color-24"><stop offset="0" stop-color="#767676"/><stop offset="1" stop-color="#ececec"/></linearGradient><linearGradient x1="116.21364" y1="241.47447" x2="109.52838" y2="241.47447" gradientUnits="userSpaceOnUse" id="color-25"><stop offset="0" stop-color="#4c4c4c"/><stop offset="1" stop-color="#2c2c2c"/></linearGradient><linearGradient x1="56.49613" y1="250.06375" x2="56.49613" y2="231.23445" gradientUnits="userSpaceOnUse" id="color-26"><stop offset="0" stop-color="#767676"/><stop offset="1" stop-color="#ececec"/></linearGradient><linearGradient x1="52.82835" y1="241.47447" x2="59.51361" y2="241.47447" gradientUnits="userSpaceOnUse" id="color-27"><stop offset="0" stop-color="#4c4c4c"/><stop offset="1" stop-color="#2c2c2c"/></linearGradient><linearGradient x1="107.25668" y1="254.2951" x2="107.25668" y2="235.4658" gradientUnits="userSpaceOnUse" id="color-28"><stop offset="0" stop-color="#767676"/><stop offset="1" stop-color="#ececec"/></linearGradient><linearGradient x1="110.92446" y1="245.70582" x2="104.2392" y2="245.70582" gradientUnits="userSpaceOnUse" id="color-29"><stop offset="0" stop-color="#4c4c4c"/><stop offset="1" stop-color="#2c2c2c"/></linearGradient><linearGradient x1="61.78531" y1="254.2951" x2="61.78531" y2="235.4658" gradientUnits="userSpaceOnUse" id="color-30"><stop offset="0" stop-color="#767676"/><stop offset="1" stop-color="#ececec"/></linearGradient><linearGradient x1="58.11753" y1="245.70582" x2="64.80279" y2="245.70582" gradientUnits="userSpaceOnUse" id="color-31"><stop offset="0" stop-color="#4c4c4c"/><stop offset="1" stop-color="#2c2c2c"/></linearGradient><linearGradient x1="101.75593" y1="257.46861" x2="101.75593" y2="238.63931" gradientUnits="userSpaceOnUse" id="color-32"><stop offset="0" stop-color="#767676"/><stop offset="1" stop-color="#ececec"/></linearGradient><linearGradient x1="105.42371" y1="248.87933" x2="98.73845" y2="248.87933" gradientUnits="userSpaceOnUse" id="color-33"><stop offset="0" stop-color="#4c4c4c"/><stop offset="1" stop-color="#2c2c2c"/></linearGradient><linearGradient x1="67.28606" y1="257.46861" x2="67.28606" y2="238.63931" gradientUnits="userSpaceOnUse" id="color-34"><stop offset="0" stop-color="#767676"/><stop offset="1" stop-color="#ececec"/></linearGradient><linearGradient x1="63.61828" y1="248.87933" x2="70.30354" y2="248.87933" gradientUnits="userSpaceOnUse" id="color-35"><stop offset="0" stop-color="#4c4c4c"/><stop offset="1" stop-color="#2c2c2c"/></linearGradient><linearGradient x1="95.62047" y1="259.79585" x2="95.62047" y2="240.96655" gradientUnits="userSpaceOnUse" id="color-36"><stop offset="0" stop-color="#767676"/><stop offset="1" stop-color="#ececec"/></linearGradient><linearGradient x1="99.28825" y1="251.20657" x2="92.60299" y2="251.20657" gradientUnits="userSpaceOnUse" id="color-37"><stop offset="0" stop-color="#4c4c4c"/><stop offset="1" stop-color="#2c2c2c"/></linearGradient><linearGradient x1="73.42151" y1="259.79585" x2="73.42151" y2="240.96655" gradientUnits="userSpaceOnUse" id="color-38"><stop offset="0" stop-color="#767676"/><stop offset="1" stop-color="#ececec"/></linearGradient><linearGradient x1="69.75373" y1="251.20657" x2="76.43899" y2="251.20657" gradientUnits="userSpaceOnUse" id="color-39"><stop offset="0" stop-color="#4c4c4c"/><stop offset="1" stop-color="#2c2c2c"/></linearGradient><linearGradient x1="89.27346" y1="261.06525" x2="89.27346" y2="242.23595" gradientUnits="userSpaceOnUse" id="color-40"><stop offset="0" stop-color="#767676"/><stop offset="1" stop-color="#ececec"/></linearGradient><linearGradient x1="92.94124" y1="252.47597" x2="86.25598" y2="252.47597" gradientUnits="userSpaceOnUse" id="color-41"><stop offset="0" stop-color="#4c4c4c"/><stop offset="1" stop-color="#2c2c2c"/></linearGradient><linearGradient x1="79.76853" y1="261.06525" x2="79.76853" y2="242.23595" gradientUnits="userSpaceOnUse" id="color-42"><stop offset="0" stop-color="#767676"/><stop offset="1" stop-color="#ececec"/></linearGradient><linearGradient x1="76.10075" y1="252.47597" x2="82.78601" y2="252.47597" gradientUnits="userSpaceOnUse" id="color-43"><stop offset="0" stop-color="#4c4c4c"/><stop offset="1" stop-color="#2c2c2c"/></linearGradient><linearGradient x1="44.68011" y1="195.99389" x2="44.68011" y2="214.82319" gradientUnits="userSpaceOnUse" id="color-44"><stop offset="0" stop-color="#767676"/><stop offset="1" stop-color="#ececec"/></linearGradient><linearGradient x1="41.01233" y1="204.58317" x2="47.69759" y2="204.58317" gradientUnits="userSpaceOnUse" id="color-45"><stop offset="0" stop-color="#4c4c4c"/><stop offset="1" stop-color="#2c2c2c"/></linearGradient><linearGradient x1="125.29237" y1="196.41702" x2="125.29237" y2="215.24632" gradientUnits="userSpaceOnUse" id="color-46"><stop offset="0" stop-color="#767676"/><stop offset="1" stop-color="#ececec"/></linearGradient><linearGradient x1="128.96014" y1="205.0063" x2="122.27489" y2="205.0063" gradientUnits="userSpaceOnUse" id="color-47"><stop offset="0" stop-color="#4c4c4c"/><stop offset="1" stop-color="#2c2c2c"/></linearGradient><linearGradient x1="50.03197" y1="199.11581" x2="50.03197" y2="217.94511" gradientUnits="userSpaceOnUse" id="color-48"><stop offset="0" stop-color="#767676"/><stop offset="1" stop-color="#ececec"/></linearGradient><linearGradient x1="46.36419" y1="207.70509" x2="53.04945" y2="207.70509" gradientUnits="userSpaceOnUse" id="color-49"><stop offset="0" stop-color="#4c4c4c"/><stop offset="1" stop-color="#2c2c2c"/></linearGradient><linearGradient x1="119.9405" y1="199.53895" x2="119.9405" y2="218.36825" gradientUnits="userSpaceOnUse" id="color-50"><stop offset="0" stop-color="#767676"/><stop offset="1" stop-color="#ececec"/></linearGradient><linearGradient x1="123.60828" y1="208.12823" x2="116.92302" y2="208.12823" gradientUnits="userSpaceOnUse" id="color-51"><stop offset="0" stop-color="#4c4c4c"/><stop offset="1" stop-color="#2c2c2c"/></linearGradient><linearGradient x1="56.42447" y1="203.19262" x2="56.42447" y2="222.02192" gradientUnits="userSpaceOnUse" id="color-52"><stop offset="0" stop-color="#767676"/><stop offset="1" stop-color="#ececec"/></linearGradient><linearGradient x1="52.75669" y1="211.7819" x2="59.44195" y2="211.7819" gradientUnits="userSpaceOnUse" id="color-53"><stop offset="0" stop-color="#4c4c4c"/><stop offset="1" stop-color="#2c2c2c"/></linearGradient><linearGradient x1="113.54799" y1="203.19262" x2="113.54799" y2="222.02192" gradientUnits="userSpaceOnUse" id="color-54"><stop offset="0" stop-color="#767676"/><stop offset="1" stop-color="#ececec"/></linearGradient><linearGradient x1="117.21578" y1="211.7819" x2="110.53052" y2="211.7819" gradientUnits="userSpaceOnUse" id="color-55"><stop offset="0" stop-color="#4c4c4c"/><stop offset="1" stop-color="#2c2c2c"/></linearGradient><linearGradient x1="84.93839" y1="148.5535" x2="84.93839" y2="213.3278" gradientUnits="userSpaceOnUse" id="color-56"><stop offset="0" stop-color="#bdbdbd"/><stop offset="1" stop-color="#848484"/></linearGradient><linearGradient x1="84.93839" y1="154.88506" x2="84.93839" y2="219.65936" gradientUnits="userSpaceOnUse" id="color-57"><stop offset="0" stop-color="#717171"/><stop offset="1" stop-color="#a9a9a9"/></linearGradient><radialGradient cx="108.26762" cy="155.45374" r="48.18484" gradientUnits="userSpaceOnUse" id="color-58"><stop offset="0" stop-color="#af2e80"/><stop offset="1" stop-color="#892464"/></radialGradient><radialGradient cx="71.94829" cy="168.25212" r="7.18328" gradientUnits="userSpaceOnUse" id="color-59"><stop offset="0" stop-color="#ffffff"/><stop offset="1" stop-color="#d1d1d1"/></radialGradient><radialGradient cx="96.55897" cy="168.25212" r="7.18328" gradientUnits="userSpaceOnUse" id="color-60"><stop offset="0" stop-color="#ffffff"/><stop offset="1" stop-color="#d1d1d1"/></radialGradient><radialGradient cx="71.94829" cy="168.25212" r="3.93774" gradientUnits="userSpaceOnUse" id="color-61"><stop offset="0" stop-color="#ffffff"/><stop offset="1" stop-color="#ff0000"/></radialGradient><radialGradient cx="96.55897" cy="168.25212" r="3.93774" gradientUnits="userSpaceOnUse" id="color-62"><stop offset="0" stop-color="#ffffff"/><stop offset="1" stop-color="#ff0000"/></radialGradient><linearGradient x1="83.72127" y1="178.12911" x2="83.72127" y2="218.39273" gradientUnits="userSpaceOnUse" id="color-63"><stop offset="0" stop-color="#bdbdbd"/><stop offset="1" stop-color="#848484"/></linearGradient><linearGradient x1="60.23269" y1="205.73142" x2="60.23269" y2="224.56072" gradientUnits="userSpaceOnUse" id="color-64"><stop offset="0" stop-color="#767676"/><stop offset="1" stop-color="#ececec"/></linearGradient><linearGradient x1="56.56491" y1="214.3207" x2="63.25017" y2="214.3207" gradientUnits="userSpaceOnUse" id="color-65"><stop offset="0" stop-color="#4c4c4c"/><stop offset="1" stop-color="#2c2c2c"/></linearGradient><linearGradient x1="108.25882" y1="205.73142" x2="108.25882" y2="224.56072" gradientUnits="userSpaceOnUse" id="color-66"><stop offset="0" stop-color="#767676"/><stop offset="1" stop-color="#ececec"/></linearGradient><linearGradient x1="111.9266" y1="214.3207" x2="105.24134" y2="214.3207" gradientUnits="userSpaceOnUse" id="color-67"><stop offset="0" stop-color="#4c4c4c"/><stop offset="1" stop-color="#2c2c2c"/></linearGradient><linearGradient x1="64.6756" y1="207.21239" x2="64.6756" y2="226.04169" gradientUnits="userSpaceOnUse" id="color-68"><stop offset="0" stop-color="#767676"/><stop offset="1" stop-color="#ececec"/></linearGradient><linearGradient x1="61.00782" y1="215.80167" x2="67.69308" y2="215.80167" gradientUnits="userSpaceOnUse" id="color-69"><stop offset="0" stop-color="#4c4c4c"/><stop offset="1" stop-color="#2c2c2c"/></linearGradient><linearGradient x1="103.8159" y1="207.21239" x2="103.8159" y2="226.04169" gradientUnits="userSpaceOnUse" id="color-70"><stop offset="0" stop-color="#767676"/><stop offset="1" stop-color="#ececec"/></linearGradient><linearGradient x1="107.48369" y1="215.80167" x2="100.79843" y2="215.80167" gradientUnits="userSpaceOnUse" id="color-71"><stop offset="0" stop-color="#4c4c4c"/><stop offset="1" stop-color="#2c2c2c"/></linearGradient><linearGradient x1="69.33008" y1="209.45565" x2="69.33008" y2="228.28495" gradientUnits="userSpaceOnUse" id="color-72"><stop offset="0" stop-color="#767676"/><stop offset="1" stop-color="#ececec"/></linearGradient><linearGradient x1="65.6623" y1="218.04493" x2="72.34756" y2="218.04493" gradientUnits="userSpaceOnUse" id="color-73"><stop offset="0" stop-color="#4c4c4c"/><stop offset="1" stop-color="#2c2c2c"/></linearGradient><linearGradient x1="99.16142" y1="209.45565" x2="99.16142" y2="228.28495" gradientUnits="userSpaceOnUse" id="color-74"><stop offset="0" stop-color="#767676"/><stop offset="1" stop-color="#ececec"/></linearGradient><linearGradient x1="102.82921" y1="218.04493" x2="96.14395" y2="218.04493" gradientUnits="userSpaceOnUse" id="color-75"><stop offset="0" stop-color="#4c4c4c"/><stop offset="1" stop-color="#2c2c2c"/></linearGradient><linearGradient x1="74.74339" y1="210.32876" x2="74.74339" y2="229.15806" gradientUnits="userSpaceOnUse" id="color-76"><stop offset="0" stop-color="#767676"/><stop offset="1" stop-color="#ececec"/></linearGradient><linearGradient x1="71.07561" y1="218.91804" x2="77.76087" y2="218.91804" gradientUnits="userSpaceOnUse" id="color-77"><stop offset="0" stop-color="#4c4c4c"/><stop offset="1" stop-color="#2c2c2c"/></linearGradient><linearGradient x1="93.74812" y1="210.32876" x2="93.74812" y2="229.15806" gradientUnits="userSpaceOnUse" id="color-78"><stop offset="0" stop-color="#767676"/><stop offset="1" stop-color="#ececec"/></linearGradient><linearGradient x1="97.4159" y1="218.91804" x2="90.73064" y2="218.91804" gradientUnits="userSpaceOnUse" id="color-79"><stop offset="0" stop-color="#4c4c4c"/><stop offset="1" stop-color="#2c2c2c"/></linearGradient><linearGradient x1="88.0358" y1="211.3866" x2="88.0358" y2="230.2159" gradientUnits="userSpaceOnUse" id="color-80"><stop offset="0" stop-color="#767676"/><stop offset="1" stop-color="#ececec"/></linearGradient><linearGradient x1="91.70358" y1="219.97588" x2="85.01832" y2="219.97588" gradientUnits="userSpaceOnUse" id="color-81"><stop offset="0" stop-color="#4c4c4c"/><stop offset="1" stop-color="#2c2c2c"/></linearGradient><linearGradient x1="80.85811" y1="211.17503" x2="80.85811" y2="230.00433" gradientUnits="userSpaceOnUse" id="color-82"><stop offset="0" stop-color="#767676"/><stop offset="1" stop-color="#ececec"/></linearGradient><linearGradient x1="77.19033" y1="219.76431" x2="83.87559" y2="219.76431" gradientUnits="userSpaceOnUse" id="color-83"><stop offset="0" stop-color="#4c4c4c"/><stop offset="1" stop-color="#2c2c2c"/></linearGradient><linearGradient x1="84.09213" y1="190.40054" x2="84.09213" y2="222.35922" gradientUnits="userSpaceOnUse" id="color-84"><stop offset="0" stop-color="#717171"/><stop offset="1" stop-color="#a9a9a9"/></linearGradient><linearGradient x1="83.72127" y1="178.12911" x2="83.72127" y2="218.39273" gradientUnits="userSpaceOnUse" id="color-85"><stop offset="0" stop-color="#af2e80"/><stop offset="1" stop-color="#95276d"/></linearGradient><radialGradient cx="62.28553" cy="198.99151" r="3.5888" gradientUnits="userSpaceOnUse" id="color-86"><stop offset="0" stop-color="#5c1843"/><stop offset="1" stop-color="#9b2871"/></radialGradient><radialGradient cx="105.9845" cy="198.99151" r="3.5888" gradientUnits="userSpaceOnUse" id="color-87"><stop offset="0" stop-color="#5c1843"/><stop offset="1" stop-color="#9b2871"/></radialGradient><radialGradient cx="202.38422" cy="297.74603" r="36.97868" gradientUnits="userSpaceOnUse" id="color-88"><stop offset="0" stop-color="#c24a4a"/><stop offset="1" stop-color="#a33939"/></radialGradient><linearGradient x1="185.5298" y1="308.54389" x2="185.5298" y2="331.45328" gradientUnits="userSpaceOnUse" id="color-89"><stop offset="0" stop-color="#c9c9c9"/><stop offset="1" stop-color="#999999"/></linearGradient><linearGradient x1="175.65176" y1="306.32987" x2="175.65176" y2="309.99771" gradientUnits="userSpaceOnUse" id="color-90"><stop offset="0" stop-color="#bfbfbf"/><stop offset="1" stop-color="#d9d9d9"/></linearGradient><linearGradient x1="175.5938" y1="300.45487" x2="175.5938" y2="304.12271" gradientUnits="userSpaceOnUse" id="color-91"><stop offset="0" stop-color="#bfbfbf"/><stop offset="1" stop-color="#d9d9d9"/></linearGradient></defs><g transform="translate(-36.75356,-148.5535)"><g data-paper-data="{&quot;isPaintingLayer&quot;:true}" fill-rule="nonzero" stroke-width="0" stroke-linecap="butt" stroke-linejoin="miter" stroke-miterlimit="10" stroke-dasharray="" stroke-dashoffset="0" style="mix-blend-mode: normal"><g><g stroke="#000000"><path d="M84.56583,262.70513c-33.2514,-0.16956 -36.01637,-10.17606 -42.6007,-29.13901c0.16233,-2.66542 4.42772,-6.51557 11.245,-8.9176c7.19826,-2.53625 17.26722,-6.41908 29.35085,-6.41908c12.452,0 24.14831,3.91988 32.53681,6.17717c3.42848,0.92258 12.28111,4.81785 12.73701,10.07512c-6.98381,18.80826 -13.51763,28.37512 -43.26897,28.22341z" fill="url(#color-1)"/><path d="M84.56583,262.70513c-33.2514,-0.16956 -36.01637,-10.17606 -42.6007,-29.13901c0.16233,-2.66542 4.42772,-6.51557 11.245,-8.9176c7.19826,-2.53625 17.26722,-6.41908 29.35085,-6.41908c12.452,0 24.14831,3.91988 32.53681,6.17717c3.42848,0.92258 12.28111,4.81785 12.73701,10.07512c-6.98381,18.80826 -13.51763,28.37512 -43.26897,28.22341z" fill="url(#color-2)"/></g><path d="M84.0151,252.57938c-24.89501,-0.12946 -26.96511,-11.48425 -31.89474,-25.96196c0.12153,-2.03498 18.56821,-8.3434 31.24,-8.20562c12.67179,0.13779 32.70848,4.89087 33.04981,8.90465c-5.22871,14.3596 -10.12052,25.37875 -32.39507,25.26292z" fill="url(#color-3)" stroke="#000000"/><g><path d="M68.49322,230.22868v-1.45115h31.82174v1.45115z" fill="url(#color-4)" stroke="none"/><path d="M78.44399,231.26522v-44.77847h2.07307v44.77847z" fill="url(#color-5)" stroke="none"/><path d="M88.60207,231.26522v-44.77847h2.07308v44.77847z" fill="url(#color-6)" stroke="none"/><g><path d="M65.66739,229.88032c0,-1.16317 3.4342,-2.44818 3.4342,-2.44818c0,0 2.82018,4.59911 15.75754,5.9868c12.52069,-1.31751 14.41547,-6.15549 14.41547,-6.15549c0,0 4.18294,1.31768 4.18294,2.61687c0,2.96093 -7.99704,7.32266 -18.8297,7.32266c-10.83267,0 -18.96047,-4.36173 -18.96047,-7.32266z" fill="url(#color-7)" stroke="none"/><path d="M99.80126,230.49192c0,0 0.13316,-1.19644 0.18963,-2.12391c0.0679,-1.11527 -0.05165,-3.52144 -0.05165,-3.52144c0,0 1.26849,2.20927 1.61676,3.29423c0.31536,0.98242 0.5909,2.25322 0.5909,2.25322z" data-paper-data="{&quot;index&quot;:null}" fill="url(#color-8)" stroke="#000000"/><path d="M66.94287,230.39402c0,0 0.27554,-1.2708 0.5909,-2.25322c0.34828,-1.08496 1.61676,-3.29423 1.61676,-3.29423c0,0 -0.11955,2.40617 -0.05165,3.52145c0.05646,0.92747 0.18963,2.12391 0.18963,2.12391z" data-paper-data="{&quot;index&quot;:null}" fill="url(#color-9)" stroke="#000000"/><path d="M97.86265,232.24271c0,0 0.13316,-1.19644 0.18963,-2.12391c0.0679,-1.11527 -0.05165,-3.52144 -0.05165,-3.52144c0,0 1.26849,2.20927 1.61676,3.29423c0.31536,0.98242 0.5909,2.25322 0.5909,2.25322z" data-paper-data="{&quot;index&quot;:null}" fill="url(#color-10)" stroke="#000000"/><path d="M68.88148,232.14481c0,0 0.27555,-1.2708 0.59091,-2.25322c0.34828,-1.08496 1.61676,-3.29423 1.61676,-3.29423c0,0 -0.11955,2.40617 -0.05165,3.52145c0.05646,0.92747 0.18963,2.12391 0.18963,2.12391z" data-paper-data="{&quot;index&quot;:null}" fill="url(#color-11)" stroke="#000000"/><path d="M95.17013,233.64334c0,0 0.13316,-1.19645 0.18963,-2.12391c0.0679,-1.11527 -0.05164,-3.52144 -0.05164,-3.52144c0,0 1.26849,2.20927 1.61676,3.29423c0.31536,0.98242 0.5909,2.25323 0.5909,2.25323z" data-paper-data="{&quot;index&quot;:null}" fill="url(#color-12)" stroke="#000000"/><path d="M71.57399,233.54544c0,0 0.27555,-1.27081 0.5909,-2.25323c0.34828,-1.08496 1.61676,-3.29423 1.61676,-3.29423c0,0 -0.11954,2.40617 -0.05164,3.52145c0.05646,0.92747 0.18963,2.12391 0.18963,2.12391z" data-paper-data="{&quot;index&quot;:null}" fill="url(#color-13)" stroke="#000000"/><path d="M92.36992,234.69381c0,0 0.13316,-1.19645 0.18962,-2.12391c0.0679,-1.11527 -0.05164,-3.52144 -0.05164,-3.52144c0,0 1.26849,2.20927 1.61676,3.29423c0.31536,0.98242 0.5909,2.25323 0.5909,2.25323z" data-paper-data="{&quot;index&quot;:null}" fill="url(#color-14)" stroke="#000000"/><path d="M74.37421,234.59591c0,0 0.27554,-1.27081 0.5909,-2.25323c0.34828,-1.08496 1.61676,-3.29423 1.61676,-3.29423c0,0 -0.11954,2.40617 -0.05164,3.52145c0.05646,0.92747 0.18962,2.12391 0.18962,2.12391z" data-paper-data="{&quot;index&quot;:null}" fill="url(#color-15)" stroke="#000000"/><path d="M89.2466,235.46416c0,0 0.13316,-1.19645 0.18963,-2.12392c0.0679,-1.11527 -0.05165,-3.52144 -0.05165,-3.52144c0,0 1.26849,2.20926 1.61676,3.29422c0.31536,0.98242 0.5909,2.25323 0.5909,2.25323z" data-paper-data="{&quot;index&quot;:null}" fill="url(#color-16)" stroke="#000000"/><path d="M77.49753,235.36626c0,0 0.27554,-1.27081 0.5909,-2.25323c0.34828,-1.08496 1.61676,-3.29422 1.61676,-3.29422c0,0 -0.11955,2.40616 -0.05165,3.52144c0.05646,0.92747 0.18963,2.12392 0.18963,2.12392z" data-paper-data="{&quot;index&quot;:null}" fill="url(#color-17)" stroke="#000000"/><path d="M86.01558,235.88434c0,0 0.13316,-1.19645 0.18963,-2.12391c0.0679,-1.11527 -0.05165,-3.52144 -0.05165,-3.52144c0,0 1.26849,2.20927 1.61676,3.29423c0.31536,0.98242 0.5909,2.25323 0.5909,2.25323z" data-paper-data="{&quot;index&quot;:null}" fill="url(#color-18)" stroke="#000000"/><path d="M80.72855,235.78644c0,0 0.27555,-1.27081 0.5909,-2.25323c0.34828,-1.08496 1.61676,-3.29423 1.61676,-3.29423c0,0 -0.11955,2.40617 -0.05165,3.52145c0.05646,0.92747 0.18963,2.12391 0.18963,2.12391z" data-paper-data="{&quot;index&quot;:null}" fill="url(#color-19)" stroke="#000000"/></g></g><g data-paper-data="{&quot;index&quot;:null}"><path d="M114.49062,235.70496c0,0 0.26158,-3.6145 0.3725,-6.41641c0.13338,-3.36929 -0.10145,-10.6384 -0.10145,-10.6384c0,0 2.49183,6.67427 3.17597,9.95197c0.61948,2.96792 1.16077,6.80708 1.16077,6.80708z" data-paper-data="{&quot;index&quot;:null}" fill="url(#color-20)" stroke="#000000"/><path d="M120.02185,233.75428v4.86201c0,0 -1.25954,0.96702 -3.42152,0.91673c-2.24693,-0.05226 -3.26374,-0.91673 -3.26374,-0.91673v-4.86201z" fill="url(#color-21)" stroke="none"/></g><g data-paper-data="{&quot;index&quot;:null}"><path d="M49.94357,235.4092c0,0 0.54129,-3.83916 1.16077,-6.80708c0.68415,-3.2777 3.17597,-9.95197 3.17597,-9.95197c0,0 -0.23483,7.26911 -0.10145,10.6384c0.11091,2.80191 0.3725,6.41641 0.3725,6.41641z" data-paper-data="{&quot;index&quot;:null}" fill="url(#color-22)" stroke="#000000"/><path d="M55.70539,233.75428v4.86201c0,0 -1.01682,0.86447 -3.26374,0.91673c-2.16197,0.05029 -3.42152,-0.91673 -3.42152,-0.91673v-4.86201z" fill="url(#color-23)" stroke="none"/></g><g data-paper-data="{&quot;index&quot;:null}"><path d="M110.68241,240.99414c0,0 0.26158,-3.6145 0.3725,-6.41641c0.13338,-3.36929 -0.10145,-10.6384 -0.10145,-10.6384c0,0 2.49183,6.67427 3.17597,9.95197c0.61948,2.96792 1.16077,6.80708 1.16077,6.80708z" data-paper-data="{&quot;index&quot;:null}" fill="url(#color-24)" stroke="#000000"/><path d="M116.21364,239.04346v4.86201c0,0 -1.25954,0.96702 -3.42152,0.91673c-2.24693,-0.05226 -3.26374,-0.91673 -3.26374,-0.91673v-4.86201z" fill="url(#color-25)" stroke="none"/></g><g data-paper-data="{&quot;index&quot;:null}"><path d="M53.75178,240.69838c0,0 0.54129,-3.83916 1.16077,-6.80708c0.68415,-3.2777 3.17597,-9.95197 3.17597,-9.95197c0,0 -0.23483,7.26911 -0.10145,10.6384c0.11091,2.80191 0.3725,6.41641 0.3725,6.41641z" data-paper-data="{&quot;index&quot;:null}" fill="url(#color-26)" stroke="#000000"/><path d="M59.51361,239.04346v4.86201c0,0 -1.01682,0.86447 -3.26374,0.91673c-2.16197,0.05029 -3.42152,-0.91673 -3.42152,-0.91673v-4.86201z" fill="url(#color-27)" stroke="none"/></g><g data-paper-data="{&quot;index&quot;:null}"><path d="M105.39323,245.22549c0,0 0.26158,-3.6145 0.3725,-6.41641c0.13338,-3.36929 -0.10145,-10.6384 -0.10145,-10.6384c0,0 2.49183,6.67427 3.17597,9.95197c0.61948,2.96792 1.16077,6.80708 1.16077,6.80708z" data-paper-data="{&quot;index&quot;:null}" fill="url(#color-28)" stroke="#000000"/><path d="M110.92446,243.27481v4.86201c0,0 -1.25954,0.96702 -3.42152,0.91673c-2.24693,-0.05226 -3.26374,-0.91673 -3.26374,-0.91673v-4.86201z" fill="url(#color-29)" stroke="none"/></g><g data-paper-data="{&quot;index&quot;:null}"><path d="M59.04096,244.92973c0,0 0.54129,-3.83916 1.16077,-6.80708c0.68415,-3.2777 3.17597,-9.95197 3.17597,-9.95197c0,0 -0.23483,7.26911 -0.10145,10.6384c0.11091,2.80191 0.3725,6.41641 0.3725,6.41641z" data-paper-data="{&quot;index&quot;:null}" fill="url(#color-30)" stroke="#000000"/><path d="M64.80279,243.27481v4.86201c0,0 -1.01682,0.86447 -3.26374,0.91673c-2.16197,0.05029 -3.42152,-0.91673 -3.42152,-0.91673v-4.86201z" fill="url(#color-31)" stroke="none"/></g><g data-paper-data="{&quot;index&quot;:null}"><path d="M99.89248,248.399c0,0 0.26158,-3.6145 0.3725,-6.41641c0.13338,-3.36929 -0.10145,-10.6384 -0.10145,-10.6384c0,0 2.49183,6.67427 3.17597,9.95197c0.61948,2.96792 1.16077,6.80708 1.16077,6.80708z" data-paper-data="{&quot;index&quot;:null}" fill="url(#color-32)" stroke="#000000"/><path d="M105.42371,246.44832v4.86201c0,0 -1.25954,0.96702 -3.42152,0.91673c-2.24693,-0.05226 -3.26374,-0.91673 -3.26374,-0.91673v-4.86201z" fill="url(#color-33)" stroke="none"/></g><g data-paper-data="{&quot;index&quot;:null}"><path d="M64.54171,248.10324c0,0 0.54129,-3.83916 1.16077,-6.80708c0.68415,-3.2777 3.17597,-9.95197 3.17597,-9.95197c0,0 -0.23483,7.26911 -0.10145,10.6384c0.11091,2.80191 0.3725,6.41641 0.3725,6.41641z" data-paper-data="{&quot;index&quot;:null}" fill="url(#color-34)" stroke="#000000"/><path d="M70.30354,246.44832v4.86201c0,0 -1.01682,0.86447 -3.26374,0.91673c-2.16197,0.05029 -3.42152,-0.91673 -3.42152,-0.91673v-4.86201z" fill="url(#color-35)" stroke="none"/></g><g data-paper-data="{&quot;index&quot;:null}"><path d="M93.75703,250.72624c0,0 0.26158,-3.6145 0.3725,-6.41641c0.13338,-3.36929 -0.10145,-10.6384 -0.10145,-10.6384c0,0 2.49183,6.67427 3.17597,9.95197c0.61948,2.96792 1.16077,6.80708 1.16077,6.80708z" data-paper-data="{&quot;index&quot;:null}" fill="url(#color-36)" stroke="#000000"/><path d="M99.28825,248.77556v4.86201c0,0 -1.25954,0.96702 -3.42152,0.91673c-2.24693,-0.05226 -3.26374,-0.91673 -3.26374,-0.91673v-4.86201z" fill="url(#color-37)" stroke="none"/></g><g data-paper-data="{&quot;index&quot;:null}"><path d="M70.67716,250.43048c0,0 0.54129,-3.83916 1.16077,-6.80708c0.68415,-3.2777 3.17597,-9.95197 3.17597,-9.95197c0,0 -0.23483,7.26911 -0.10145,10.6384c0.11091,2.80191 0.3725,6.41641 0.3725,6.41641z" data-paper-data="{&quot;index&quot;:null}" fill="url(#color-38)" stroke="#000000"/><path d="M76.43899,248.77556v4.86201c0,0 -1.01682,0.86447 -3.26374,0.91673c-2.16197,0.05029 -3.42152,-0.91673 -3.42152,-0.91673v-4.86201z" fill="url(#color-39)" stroke="none"/></g><g data-paper-data="{&quot;index&quot;:null}"><path d="M87.41001,251.99564c0,0 0.26158,-3.6145 0.3725,-6.41641c0.13338,-3.36929 -0.10145,-10.6384 -0.10145,-10.6384c0,0 2.49183,6.67427 3.17597,9.95197c0.61948,2.96792 1.16077,6.80708 1.16077,6.80708z" data-paper-data="{&quot;index&quot;:null}" fill="url(#color-40)" stroke="#000000"/><path d="M92.94124,250.04496v4.86201c0,0 -1.25954,0.96702 -3.42152,0.91673c-2.24693,-0.05226 -3.26374,-0.91673 -3.26374,-0.91673v-4.86201z" fill="url(#color-41)" stroke="none"/></g><g data-paper-data="{&quot;index&quot;:null}"><path d="M77.02418,251.69988c0,0 0.54129,-3.83916 1.16077,-6.80708c0.68415,-3.2777 3.17597,-9.95197 3.17597,-9.95197c0,0 -0.23483,7.26911 -0.10145,10.6384c0.11091,2.80191 0.3725,6.41641 0.3725,6.41641z" data-paper-data="{&quot;index&quot;:null}" fill="url(#color-42)" stroke="#000000"/><path d="M82.78601,250.04496v4.86201c0,0 -1.01682,0.86447 -3.26374,0.91673c-2.16197,0.05029 -3.42152,-0.91673 -3.42152,-0.91673v-4.86201z" fill="url(#color-43)" stroke="none"/></g></g><g><path d="M46.54355,205.0635c0,0 -0.26158,3.6145 -0.3725,6.41641c-0.13338,3.36929 0.10145,10.6384 0.10145,10.6384c0,0 -2.49182,-6.67427 -3.17597,-9.95197c-0.61948,-2.96792 -1.16078,-6.80708 -1.16078,-6.80708z" data-paper-data="{&quot;index&quot;:null}" fill="url(#color-44)" stroke="#000000"/><path d="M41.01233,207.01418v-4.86201h6.68526v4.86201z" fill="url(#color-45)" stroke="none"/></g><g data-paper-data="{&quot;index&quot;:null}"><path d="M128.03671,205.78239c0,0 -0.54129,3.83916 -1.16078,6.80708c-0.68415,3.2777 -3.17597,9.95197 -3.17597,9.95197c0,0 0.23483,-7.26911 0.10145,-10.6384c-0.11091,-2.80191 -0.37249,-6.41641 -0.37249,-6.41641z" data-paper-data="{&quot;index&quot;:null}" fill="url(#color-46)" stroke="#000000"/><path d="M122.27489,207.43731v-4.86201h6.68526v4.86201z" fill="url(#color-47)" stroke="none"/></g><g><path d="M51.89542,208.18542c0,0 -0.26158,3.6145 -0.3725,6.41641c-0.13338,3.36929 0.10145,10.6384 0.10145,10.6384c0,0 -2.49183,-6.67427 -3.17597,-9.95197c-0.61948,-2.96792 -1.16077,-6.80708 -1.16077,-6.80708z" data-paper-data="{&quot;index&quot;:null}" fill="url(#color-48)" stroke="#000000"/><path d="M46.36419,210.1361v-4.86201h6.68526v4.86201z" fill="url(#color-49)" stroke="none"/></g><g data-paper-data="{&quot;index&quot;:null}"><path d="M122.68485,208.90432c0,0 -0.54129,3.83916 -1.16077,6.80708c-0.68415,3.2777 -3.17597,9.95197 -3.17597,9.95197c0,0 0.23483,-7.26911 0.10145,-10.6384c-0.11091,-2.80191 -0.3725,-6.41641 -0.3725,-6.41641z" data-paper-data="{&quot;index&quot;:null}" fill="url(#color-50)" stroke="#000000"/><path d="M116.92302,210.55924v-4.86201h6.68526v4.86201z" fill="url(#color-51)" stroke="none"/></g><g><path d="M58.28792,212.26223c0,0 -0.26157,3.6145 -0.37249,6.41641c-0.13338,3.36929 0.10145,10.6384 0.10145,10.6384c0,0 -2.49183,-6.67427 -3.17597,-9.95197c-0.61948,-2.96792 -1.16077,-6.80708 -1.16077,-6.80708z" data-paper-data="{&quot;index&quot;:null}" fill="url(#color-52)" stroke="#000000"/><path d="M52.75669,214.21291v-4.86201h6.68526v4.86201z" fill="url(#color-53)" stroke="none"/></g><g data-paper-data="{&quot;index&quot;:null}"><path d="M116.29234,212.55799c0,0 -0.54129,3.83916 -1.16077,6.80708c-0.68415,3.2777 -3.17597,9.95197 -3.17597,9.95197c0,0 0.23483,-7.26911 0.10145,-10.6384c-0.11091,-2.80191 -0.37249,-6.41641 -0.37249,-6.41641z" data-paper-data="{&quot;index&quot;:null}" fill="url(#color-54)" stroke="#000000"/><path d="M110.53052,214.21291v-4.86201h6.68526v4.86201z" fill="url(#color-55)" stroke="none"/></g><path d="M133.12323,197.19823c-0.51165,7.44737 -10.44676,9.6686 -14.29447,10.97551c-9.41423,3.19765 -22.54075,5.15406 -36.51536,5.15406c-13.56119,0 -24.86137,-2.61222 -32.93982,-6.20504c-7.65089,-3.40267 -12.43784,-7.68489 -12.62002,-11.46068c7.38945,-26.86262 6.65861,-45.65022 47.80984,-47.10858c39.94466,2.43431 40.72205,22.00125 48.55983,48.64473z" fill="url(#color-56)" stroke="#000000"/><path d="M130.87323,198.44879c-0.48776,7.44737 -8.02145,10.93885 -11.68949,12.24576c-8.97463,3.19765 -22.94133,7.18646 -36.26339,7.18646c-12.92795,0 -24.66922,-4.13652 -32.37044,-7.72934c-7.29363,-3.40267 -11.37268,-8.95514 -11.54635,-12.73093c7.0444,-26.86262 4.89457,8.97055 44.12423,7.51219c38.07944,2.43431 40.27365,-33.12762 47.74544,-6.48414z" fill="url(#color-57)" stroke="#000000"/><path d="M133.12323,197.19823c-0.51165,7.44737 -10.44676,9.6686 -14.29447,10.97551c-9.41423,3.19765 -22.54075,5.15406 -36.51536,5.15406c-13.56119,0 -24.86137,-2.61222 -32.93982,-6.20504c-7.65089,-3.40267 -12.43784,-6.18489 -12.62002,-9.96068c7.38945,-26.86262 6.65861,-47.15022 47.80984,-48.60858c39.94466,2.43431 40.72205,22.00125 48.55983,48.64473z" fill="url(#color-58)" stroke="#000000"/><path d="M78.93743,168.25212c0,3.96722 -3.12914,7.18328 -6.98914,7.18328c-3.86,0 -6.98914,-3.21607 -6.98914,-7.18328c0,-3.96722 3.12914,-7.18328 6.98914,-7.18328c3.86,0 6.98914,3.21607 6.98914,7.18328z" fill="url(#color-59)" stroke="none"/><path d="M103.54811,168.25212c0,3.96722 -3.12914,7.18328 -6.98914,7.18328c-3.86,0 -6.98914,-3.21607 -6.98914,-7.18328c0,-3.96722 3.12914,-7.18328 6.98914,-7.18328c3.86,0 6.98914,3.21607 6.98914,7.18328z" fill="url(#color-60)" stroke="none"/><g stroke="none"><path d="M75.7796,168.25212c0,2.17475 -1.71534,3.93774 -3.83131,3.93774c-2.11597,0 -3.83131,-1.76298 -3.83131,-3.93774c0,-2.17475 1.71534,-3.93774 3.83131,-3.93774c2.11597,0 3.83131,1.76298 3.83131,3.93774z" fill="url(#color-61)"/><path d="M74.14915,168.25212c0,1.24927 -0.98535,2.262 -2.20086,2.262c-1.21551,0 -2.20086,-1.01273 -2.20086,-2.262c0,-1.24927 0.98535,-2.262 2.20086,-2.262c1.21551,0 2.20086,1.01273 2.20086,2.262z" fill="#ffffff"/></g><g stroke="none"><path d="M100.39028,168.25212c0,2.17475 -1.71534,3.93774 -3.83131,3.93774c-2.11597,0 -3.83131,-1.76298 -3.83131,-3.93774c0,-2.17475 1.71534,-3.93774 3.83131,-3.93774c2.11597,0 3.83131,1.76298 3.83131,3.93774z" fill="url(#color-62)"/><path d="M98.75983,168.25212c0,1.24927 -0.98535,2.262 -2.20086,2.262c-1.21551,0 -2.20086,-1.01273 -2.20086,-2.262c0,-1.24927 0.98535,-2.262 2.20086,-2.262c1.21551,0 2.20086,1.01273 2.20086,2.262z" fill="#ffffff"/></g><path d="M83.65319,218.25922c0,0 -31.20936,2.94447 -31.77205,-18.82251c-0.57952,-22.41824 16.9288,-21.32332 31.92827,-21.29046c18.54359,-0.17234 31.32115,1.39569 31.76169,21.91046c0.43292,20.16016 -31.91791,18.20251 -31.91791,18.20251z" fill="url(#color-63)" stroke="#000000"/><g><g><g><path d="M62.09613,214.80103c0,0 -0.26158,3.6145 -0.3725,6.41641c-0.13338,3.36929 0.10145,10.6384 0.10145,10.6384c0,0 -2.49183,-6.67427 -3.17597,-9.95197c-0.61948,-2.96792 -1.16077,-6.80708 -1.16077,-6.80708z" data-paper-data="{&quot;index&quot;:null}" fill="url(#color-64)" stroke="#000000"/><path d="M56.56491,216.75171v-4.86201h6.68526v4.86201z" fill="url(#color-65)" stroke="none"/></g><g data-paper-data="{&quot;index&quot;:null}"><path d="M111.00316,215.09679c0,0 -0.54129,3.83916 -1.16078,6.80708c-0.68415,3.2777 -3.17597,9.95197 -3.17597,9.95197c0,0 0.23483,-7.26911 0.10145,-10.6384c-0.11091,-2.80191 -0.3725,-6.41641 -0.3725,-6.41641z" data-paper-data="{&quot;index&quot;:null}" fill="url(#color-66)" stroke="#000000"/><path d="M105.24134,216.75171v-4.86201h6.68526v4.86201z" fill="url(#color-67)" stroke="none"/></g><g><path d="M66.53904,216.282c0,0 -0.26158,3.6145 -0.37249,6.41641c-0.13338,3.36929 0.10145,10.6384 0.10145,10.6384c0,0 -2.49183,-6.67427 -3.17597,-9.95197c-0.61948,-2.96792 -1.16078,-6.80708 -1.16078,-6.80708z" data-paper-data="{&quot;index&quot;:null}" fill="url(#color-68)" stroke="#000000"/><path d="M61.00782,218.23268v-4.86201h6.68526v4.86201z" fill="url(#color-69)" stroke="none"/></g><g data-paper-data="{&quot;index&quot;:null}"><path d="M106.56024,216.57776c0,0 -0.54129,3.83916 -1.16077,6.80708c-0.68415,3.2777 -3.17597,9.95197 -3.17597,9.95197c0,0 0.23483,-7.26911 0.10145,-10.6384c-0.11091,-2.80191 -0.3725,-6.41641 -0.3725,-6.41641z" data-paper-data="{&quot;index&quot;:null}" fill="url(#color-70)" stroke="#000000"/><path d="M100.79843,218.23268v-4.86201h6.68526v4.86201z" fill="url(#color-71)" stroke="none"/></g><g><path d="M71.19352,218.52526c0,0 -0.26158,3.6145 -0.37249,6.41641c-0.13338,3.36929 0.10145,10.6384 0.10145,10.6384c0,0 -2.49183,-6.67427 -3.17597,-9.95197c-0.61948,-2.96792 -1.16078,-6.80708 -1.16078,-6.80708z" data-paper-data="{&quot;index&quot;:null}" fill="url(#color-72)" stroke="#000000"/><path d="M65.6623,220.47594v-4.86201h6.68526v4.86201z" fill="url(#color-73)" stroke="none"/></g><g data-paper-data="{&quot;index&quot;:null}"><path d="M101.90577,218.82102c0,0 -0.54129,3.83916 -1.16077,6.80708c-0.68415,3.2777 -3.17598,9.95197 -3.17598,9.95197c0,0 0.23483,-7.26911 0.10145,-10.6384c-0.11092,-2.80191 -0.37249,-6.41641 -0.37249,-6.41641z" data-paper-data="{&quot;index&quot;:null}" fill="url(#color-74)" stroke="#000000"/><path d="M96.14395,220.47594v-4.86201h6.68526v4.86201z" fill="url(#color-75)" stroke="none"/></g><g><path d="M76.60683,219.39837c0,0 -0.26158,3.6145 -0.37249,6.41641c-0.13338,3.36929 0.10145,10.6384 0.10145,10.6384c0,0 -2.49183,-6.67427 -3.17598,-9.95197c-0.61948,-2.96792 -1.16077,-6.80708 -1.16077,-6.80708z" data-paper-data="{&quot;index&quot;:null}" fill="url(#color-76)" stroke="#000000"/><path d="M71.07561,221.34905v-4.86201h6.68526v4.86201z" fill="url(#color-77)" stroke="none"/></g><g data-paper-data="{&quot;index&quot;:null}"><path d="M96.49246,219.69413c0,0 -0.54129,3.83916 -1.16078,6.80708c-0.68415,3.2777 -3.17597,9.95197 -3.17597,9.95197c0,0 0.23483,-7.26911 0.10145,-10.6384c-0.11092,-2.80191 -0.3725,-6.41641 -0.3725,-6.41641z" data-paper-data="{&quot;index&quot;:null}" fill="url(#color-78)" stroke="#000000"/><path d="M90.73064,221.34905v-4.86201h6.68526v4.86201z" fill="url(#color-79)" stroke="none"/></g><g data-paper-data="{&quot;index&quot;:null}"><path d="M90.78015,220.75197c0,0 -0.54129,3.83916 -1.16078,6.80708c-0.68415,3.2777 -3.17597,9.95197 -3.17597,9.95197c0,0 0.23483,-7.26911 0.10145,-10.6384c-0.11092,-2.80191 -0.37249,-6.41641 -0.37249,-6.41641z" data-paper-data="{&quot;index&quot;:null}" fill="url(#color-80)" stroke="#000000"/><path d="M85.01832,222.40689v-4.86201h6.68526v4.86201z" fill="url(#color-81)" stroke="none"/></g><g data-paper-data="{&quot;index&quot;:null}"><path d="M82.72156,220.24464c0,0 -0.26158,3.6145 -0.37249,6.41641c-0.13338,3.36929 0.10145,10.6384 0.10145,10.6384c0,0 -2.49183,-6.67427 -3.17597,-9.95197c-0.61948,-2.96792 -1.16078,-6.80708 -1.16078,-6.80708z" data-paper-data="{&quot;index&quot;:null}" fill="url(#color-82)" stroke="#000000"/><path d="M77.19033,222.19532v-4.86201h6.68526v4.86201z" fill="url(#color-83)" stroke="none"/></g><g stroke="#000000"><path d="M112.46687,211.89424c-0.3013,3.67442 -15.46817,9.89427 -29.62133,9.58757c-16.22969,-0.35171 -27.02089,-8.23188 -27.12817,-10.0948c4.35145,-13.25362 3.02347,4.42594 27.25631,3.7064c23.52234,1.20105 24.87773,-16.34468 29.49319,-3.19918z" fill="url(#color-84)"/><path d="M83.65319,218.25922c0,0 -31.20936,2.94447 -31.77205,-18.82251c-0.57952,-22.41824 16.9288,-21.32332 31.92827,-21.29046c18.54359,-0.17234 31.32115,1.39569 31.76169,21.91046c0.43292,20.16016 -31.91791,18.20251 -31.91791,18.20251z" fill="url(#color-85)"/></g></g><path d="M60.59668,195.75455c1.16591,0 2.11106,1.60676 2.11106,3.5888c0,1.98204 -0.94515,3.5888 -2.11106,3.5888c-1.16591,0 -2.11106,-1.60676 -2.11106,-3.5888c0,-1.98204 0.94515,-3.5888 2.11106,-3.5888z" data-paper-data="{&quot;index&quot;:null}" fill="url(#color-86)" stroke="none"/><path d="M109.78441,199.34335c0,1.98204 -0.94515,3.5888 -2.11106,3.5888c-1.16591,0 -2.11106,-1.60676 -2.11106,-3.5888c0,-1.98204 0.94515,-3.5888 2.11106,-3.5888c1.16591,0 2.11106,1.60676 2.11106,3.5888z" data-paper-data="{&quot;index&quot;:null}" fill="url(#color-87)" stroke="none"/></g><g><g data-paper-data="{&quot;index&quot;:null}" stroke="#000000"><path d="M198.11147,304.30633c3.97636,3.52423 6.06705,10.72301 6.06705,15.58991c0,14.66678 -60.62401,14.66678 -60.62401,0c0,-9.69529 6.66744,-15.22875 9.74807,-17.19244c4.06792,-2.59302 5.27459,-13.88265 22.88972,-13.16894c16.50354,0.66867 11.38504,5.43511 21.91917,14.77147z" fill="url(#color-88)"/><path d="M143.42949,331.45328v-11.88556l5,0.08265c0,0 4.20154,-10.3806 24.62178,-11.10648c19.97779,1.32396 25.19778,10.75716 25.19778,10.75716l5.92271,0.34931l0.125,11.80291z" fill="url(#color-89)"/></g><path d="M153.69167,309.99771l3.80792,-3.64682c0,0 8.86863,-3.72996 16.40121,-3.36268c8.15039,0.3974 17.27952,3.79698 17.27952,3.79698l2.75901,4.13312c0,0 -12.31084,-4.38205 -20.29684,-4.49099c-7.986,-0.10894 -19.95081,3.57037 -19.95081,3.57037z" fill="url(#color-90)" stroke="none"/><path d="M157.31667,304.12271l3.16929,-3.64682c0,0 7.38125,-3.72996 13.65053,-3.36268c6.78347,0.3974 14.38155,3.79698 14.38155,3.79698l2.29629,4.13312c0,0 -10.24618,-4.38205 -16.89283,-4.49099c-6.64665,-0.10894 -16.60483,3.57037 -16.60483,3.57037z" fill="url(#color-91)" stroke="none"/></g></g></g></svg>