<svg version="1.1" xmlns="http://www.w3.org/2000/svg" xmlns:xlink="http://www.w3.org/1999/xlink" width="745.19996" height="700.65381" viewBox="0,0,745.19996,700.65381"><defs><radialGradient cx="519.56027" cy="388.72395" r="190.97008" gradientUnits="userSpaceOnUse" id="color-1"><stop offset="0" stop-color="#93266b"/><stop offset="1" stop-color="#6b1c4e"/></radialGradient><linearGradient x1="242.91761" y1="612.41496" x2="243.10022" y2="636.52591" gradientUnits="userSpaceOnUse" id="color-2"><stop offset="0" stop-color="#565656"/><stop offset="1" stop-color="#8b8b8b"/></linearGradient><radialGradient cx="167.27372" cy="648.28128" r="20.17506" gradientUnits="userSpaceOnUse" id="color-3"><stop offset="0" stop-color="#636363"/><stop offset="1" stop-color="#3c3c3c"/></radialGradient><radialGradient cx="339.3745" cy="648.12521" r="20.17506" gradientUnits="userSpaceOnUse" id="color-4"><stop offset="0" stop-color="#636363"/><stop offset="1" stop-color="#3c3c3c"/></radialGradient><linearGradient x1="-62.07965" y1="303.64206" x2="-55.98727" y2="303.59593" gradientUnits="userSpaceOnUse" id="color-5"><stop offset="0" stop-color="#bebebe"/><stop offset="1" stop-color="#797979"/></linearGradient><linearGradient x1="-46.39132" y1="303.22109" x2="-40.25619" y2="303.17461" gradientUnits="userSpaceOnUse" id="color-6"><stop offset="0" stop-color="#bebebe"/><stop offset="1" stop-color="#797979"/></linearGradient><linearGradient x1="-30.02301" y1="303.88869" x2="-23.88783" y2="303.84221" gradientUnits="userSpaceOnUse" id="color-7"><stop offset="0" stop-color="#bebebe"/><stop offset="1" stop-color="#797979"/></linearGradient><linearGradient x1="-14.04941" y1="303.6486" x2="-7.8587" y2="303.60172" gradientUnits="userSpaceOnUse" id="color-8"><stop offset="0" stop-color="#bebebe"/><stop offset="1" stop-color="#797979"/></linearGradient><linearGradient x1="1.59276" y1="304.68254" x2="7.78357" y2="304.63565" gradientUnits="userSpaceOnUse" id="color-9"><stop offset="0" stop-color="#bebebe"/><stop offset="1" stop-color="#797979"/></linearGradient><linearGradient x1="17.95845" y1="304.62271" x2="24.14916" y2="304.57584" gradientUnits="userSpaceOnUse" id="color-10"><stop offset="0" stop-color="#bebebe"/><stop offset="1" stop-color="#797979"/></linearGradient><linearGradient x1="33.95517" y1="303.10949" x2="40.14585" y2="303.06261" gradientUnits="userSpaceOnUse" id="color-11"><stop offset="0" stop-color="#bebebe"/><stop offset="1" stop-color="#797979"/></linearGradient><linearGradient x1="48.51943" y1="303.23805" x2="54.67742" y2="303.19142" gradientUnits="userSpaceOnUse" id="color-12"><stop offset="0" stop-color="#bebebe"/><stop offset="1" stop-color="#797979"/></linearGradient><linearGradient x1="-3.65064" y1="247.58106" x2="-3.39282" y2="281.6246" gradientUnits="userSpaceOnUse" id="color-13"><stop offset="0" stop-color="#bebebe"/><stop offset="1" stop-color="#797979"/></linearGradient><linearGradient x1="-3.05274" y1="325.26958" x2="-2.79056" y2="359.88787" gradientUnits="userSpaceOnUse" id="color-14"><stop offset="0" stop-color="#797979"/><stop offset="1" stop-color="#bebebe"/></linearGradient><linearGradient x1="-2.19638" y1="297.28042" x2="-2.08906" y2="311.45252" gradientUnits="userSpaceOnUse" id="color-15"><stop offset="0" stop-color="#bebebe"/><stop offset="1" stop-color="#797979"/></linearGradient><radialGradient cx="-93.45547" cy="298.36481" r="16.6802" gradientUnits="userSpaceOnUse" id="color-16"><stop offset="0" stop-color="#636363"/><stop offset="1" stop-color="#3c3c3c"/></radialGradient><radialGradient cx="-4.18835" cy="302.5367" r="100.9095" gradientUnits="userSpaceOnUse" id="color-17"><stop offset="0" stop-color="#af2e80"/><stop offset="1" stop-color="#892464"/></radialGradient><linearGradient x1="543.9692" y1="299.05219" x2="537.87679" y2="299.09833" gradientUnits="userSpaceOnUse" id="color-18"><stop offset="0" stop-color="#bebebe"/><stop offset="1" stop-color="#797979"/></linearGradient><linearGradient x1="528.27624" y1="298.86887" x2="522.14109" y2="298.91533" gradientUnits="userSpaceOnUse" id="color-19"><stop offset="0" stop-color="#bebebe"/><stop offset="1" stop-color="#797979"/></linearGradient><linearGradient x1="511.91996" y1="299.78431" x2="505.7848" y2="299.83076" gradientUnits="userSpaceOnUse" id="color-20"><stop offset="0" stop-color="#bebebe"/><stop offset="1" stop-color="#797979"/></linearGradient><linearGradient x1="495.94455" y1="299.7862" x2="489.75383" y2="299.83308" gradientUnits="userSpaceOnUse" id="color-21"><stop offset="0" stop-color="#bebebe"/><stop offset="1" stop-color="#797979"/></linearGradient><linearGradient x1="480.31978" y1="301.05693" x2="474.12903" y2="301.10383" gradientUnits="userSpaceOnUse" id="color-22"><stop offset="0" stop-color="#bebebe"/><stop offset="1" stop-color="#797979"/></linearGradient><linearGradient x1="463.95511" y1="301.24499" x2="457.76433" y2="301.29187" gradientUnits="userSpaceOnUse" id="color-23"><stop offset="0" stop-color="#bebebe"/><stop offset="1" stop-color="#797979"/></linearGradient><linearGradient x1="447.93731" y1="299.97423" x2="441.74663" y2="300.02111" gradientUnits="userSpaceOnUse" id="color-24"><stop offset="0" stop-color="#bebebe"/><stop offset="1" stop-color="#797979"/></linearGradient><linearGradient x1="433.37662" y1="300.32337" x2="427.21867" y2="300.36999" gradientUnits="userSpaceOnUse" id="color-25"><stop offset="0" stop-color="#bebebe"/><stop offset="1" stop-color="#797979"/></linearGradient><linearGradient x1="484.69775" y1="243.88257" x2="484.95558" y2="277.92613" gradientUnits="userSpaceOnUse" id="color-26"><stop offset="0" stop-color="#bebebe"/><stop offset="1" stop-color="#797979"/></linearGradient><linearGradient x1="485.27662" y1="321.57124" x2="485.53878" y2="356.18954" gradientUnits="userSpaceOnUse" id="color-27"><stop offset="0" stop-color="#797979"/><stop offset="1" stop-color="#bebebe"/></linearGradient><linearGradient x1="483.99645" y1="293.59827" x2="484.10376" y2="307.77038" gradientUnits="userSpaceOnUse" id="color-28"><stop offset="0" stop-color="#bebebe"/><stop offset="1" stop-color="#797979"/></linearGradient><radialGradient cx="575.26146" cy="293.30033" r="16.68025" gradientUnits="userSpaceOnUse" id="color-29"><stop offset="0" stop-color="#636363"/><stop offset="1" stop-color="#3c3c3c"/></radialGradient><radialGradient cx="486.06779" cy="298.82377" r="100.90954" gradientUnits="userSpaceOnUse" id="color-30"><stop offset="0" stop-color="#af2e80"/><stop offset="1" stop-color="#892464"/></radialGradient><linearGradient x1="202.03983" y1="247.7174" x2="218.75273" y2="252.14586" gradientUnits="userSpaceOnUse" id="color-31"><stop offset="0" stop-color="#bebebe"/><stop offset="1" stop-color="#797979"/></linearGradient><linearGradient x1="276.69402" y1="247.15201" x2="260.05007" y2="251.83309" gradientUnits="userSpaceOnUse" id="color-32"><stop offset="0" stop-color="#bebebe"/><stop offset="1" stop-color="#797979"/></linearGradient><linearGradient x1="163.33255" y1="301.65387" x2="164.08185" y2="400.59143" gradientUnits="userSpaceOnUse" id="color-33"><stop offset="0" stop-color="#bebebe"/><stop offset="1" stop-color="#9f9f9f"/></linearGradient><linearGradient x1="313.05237" y1="298.89645" x2="313.80167" y2="397.834" gradientUnits="userSpaceOnUse" id="color-34"><stop offset="0" stop-color="#bebebe"/><stop offset="1" stop-color="#9f9f9f"/></linearGradient><linearGradient x1="227.03143" y1="301.8634" x2="252.21283" y2="301.67269" gradientUnits="userSpaceOnUse" id="color-35"><stop offset="0" stop-color="#bebebe"/><stop offset="1" stop-color="#9f9f9f"/></linearGradient><linearGradient x1="239.24116" y1="299.35814" x2="239.31955" y2="309.71104" gradientUnits="userSpaceOnUse" id="color-36"><stop offset="0" stop-color="#bebebe"/><stop offset="1" stop-color="#9f9f9f"/></linearGradient><radialGradient cx="114.09403" cy="300.35642" r="16.6802" gradientUnits="userSpaceOnUse" id="color-37"><stop offset="0" stop-color="#636363"/><stop offset="1" stop-color="#3c3c3c"/></radialGradient><radialGradient cx="381.00178" cy="296.79206" r="16.6802" gradientUnits="userSpaceOnUse" id="color-38"><stop offset="0" stop-color="#636363"/><stop offset="1" stop-color="#3c3c3c"/></radialGradient><linearGradient x1="240.69579" y1="393.46789" x2="242.41706" y2="620.74738" gradientUnits="userSpaceOnUse" id="color-39"><stop offset="0" stop-color="#bebebe"/><stop offset="1" stop-color="#545454"/></linearGradient><linearGradient x1="238.55399" y1="386.54827" x2="238.64935" y2="399.13898" gradientUnits="userSpaceOnUse" id="color-40"><stop offset="0" stop-color="#bebebe"/><stop offset="1" stop-color="#9f9f9f"/></linearGradient><radialGradient cx="270.83962" cy="404.29806" r="39.55112" gradientUnits="userSpaceOnUse" id="color-41"><stop offset="0" stop-color="#8d8d8d"/><stop offset="1" stop-color="#1e1e1e"/></radialGradient><radialGradient cx="270.55319" cy="417.41548" r="39.5512" gradientUnits="userSpaceOnUse" id="color-42"><stop offset="0" stop-color="#8d8d8d"/><stop offset="1" stop-color="#1e1e1e"/></radialGradient><radialGradient cx="269.88983" cy="431.69305" r="39.5512" gradientUnits="userSpaceOnUse" id="color-43"><stop offset="0" stop-color="#8d8d8d"/><stop offset="1" stop-color="#1e1e1e"/></radialGradient><radialGradient cx="269.59756" cy="444.03904" r="39.5512" gradientUnits="userSpaceOnUse" id="color-44"><stop offset="0" stop-color="#8d8d8d"/><stop offset="1" stop-color="#1e1e1e"/></radialGradient><radialGradient cx="269.67644" cy="454.45358" r="39.5512" gradientUnits="userSpaceOnUse" id="color-45"><stop offset="0" stop-color="#8d8d8d"/><stop offset="1" stop-color="#1e1e1e"/></radialGradient><radialGradient cx="269.01602" cy="469.11685" r="39.5512" gradientUnits="userSpaceOnUse" id="color-46"><stop offset="0" stop-color="#8d8d8d"/><stop offset="1" stop-color="#1e1e1e"/></radialGradient><radialGradient cx="268.71211" cy="479.91992" r="39.55112" gradientUnits="userSpaceOnUse" id="color-47"><stop offset="0" stop-color="#8d8d8d"/><stop offset="1" stop-color="#1e1e1e"/></radialGradient><radialGradient cx="269.20656" cy="494.27447" r="39.5512" gradientUnits="userSpaceOnUse" id="color-48"><stop offset="0" stop-color="#8d8d8d"/><stop offset="1" stop-color="#1e1e1e"/></radialGradient><radialGradient cx="269.68578" cy="506.61461" r="39.55116" gradientUnits="userSpaceOnUse" id="color-49"><stop offset="0" stop-color="#8d8d8d"/><stop offset="1" stop-color="#1e1e1e"/></radialGradient><radialGradient cx="239.78729" cy="447.37623" r="154.44739" gradientUnits="userSpaceOnUse" id="color-50"><stop offset="0" stop-color="#af2e80"/><stop offset="1" stop-color="#892464"/></radialGradient><radialGradient cx="269.5512" cy="380.85408" r="130.21105" gradientUnits="userSpaceOnUse" id="color-51"><stop offset="0" stop-color="#258d2f"/><stop offset="1" stop-color="#1b692b"/></radialGradient><linearGradient x1="240.40131" y1="213.2246" x2="229.97149" y2="350.0791" gradientUnits="userSpaceOnUse" id="color-52"><stop offset="0" stop-color="#bdbdbd"/><stop offset="1" stop-color="#848484"/></linearGradient><radialGradient cx="350.28576" cy="277.72319" r="132.49097" gradientUnits="userSpaceOnUse" id="color-53"><stop offset="0" stop-color="#af2e80"/><stop offset="1" stop-color="#892464"/></radialGradient><radialGradient cx="234.39972" cy="266.20061" r="99.19467" gradientUnits="userSpaceOnUse" id="color-54"><stop offset="0" stop-color="#1e1e1e"/><stop offset="1" stop-color="#000000"/></radialGradient><linearGradient x1="236.40206" y1="245.56415" x2="236.06178" y2="250.02925" gradientUnits="userSpaceOnUse" id="color-55"><stop offset="0" stop-color="#bebebe"/><stop offset="1" stop-color="#9f9f9f"/></linearGradient><linearGradient x1="231.16961" y1="114.28343" x2="220.66921" y2="252.06407" gradientUnits="userSpaceOnUse" id="color-56"><stop offset="0" stop-color="#bebebe"/><stop offset="1" stop-color="#9f9f9f"/></linearGradient><linearGradient x1="262.42541" y1="116.66549" x2="251.925" y2="254.4461" gradientUnits="userSpaceOnUse" id="color-57"><stop offset="0" stop-color="#bebebe"/><stop offset="1" stop-color="#9f9f9f"/></linearGradient><linearGradient x1="237.62915" y1="238.54883" x2="235.11478" y2="271.54123" gradientUnits="userSpaceOnUse" id="color-58"><stop offset="0" stop-color="#8f8f8f"/><stop offset="1" stop-color="#797979"/></linearGradient><linearGradient x1="285.59105" y1="263.90972" x2="287.0526" y2="244.73195" gradientUnits="userSpaceOnUse" id="color-59"><stop offset="0" stop-color="#373737"/><stop offset="1" stop-color="#8f8f8f"/></linearGradient><linearGradient x1="185.86754" y1="256.30969" x2="187.32909" y2="237.13192" gradientUnits="userSpaceOnUse" id="color-60"><stop offset="0" stop-color="#373737"/><stop offset="1" stop-color="#8f8f8f"/></linearGradient><linearGradient x1="279.21549" y1="268.84216" x2="280.67704" y2="249.66443" gradientUnits="userSpaceOnUse" id="color-61"><stop offset="0" stop-color="#373737"/><stop offset="1" stop-color="#8f8f8f"/></linearGradient><linearGradient x1="191.42196" y1="262.15134" x2="192.88351" y2="242.97361" gradientUnits="userSpaceOnUse" id="color-62"><stop offset="0" stop-color="#373737"/><stop offset="1" stop-color="#8f8f8f"/></linearGradient><linearGradient x1="270.60228" y1="272.52042" x2="272.06384" y2="253.34269" gradientUnits="userSpaceOnUse" id="color-63"><stop offset="0" stop-color="#373737"/><stop offset="1" stop-color="#8f8f8f"/></linearGradient><linearGradient x1="199.37824" y1="267.09237" x2="200.83979" y2="247.91464" gradientUnits="userSpaceOnUse" id="color-64"><stop offset="0" stop-color="#373737"/><stop offset="1" stop-color="#8f8f8f"/></linearGradient><linearGradient x1="261.73992" y1="275.09603" x2="263.20147" y2="255.91831" gradientUnits="userSpaceOnUse" id="color-65"><stop offset="0" stop-color="#373737"/><stop offset="1" stop-color="#8f8f8f"/></linearGradient><linearGradient x1="207.74797" y1="270.98126" x2="209.20952" y2="251.80353" gradientUnits="userSpaceOnUse" id="color-66"><stop offset="0" stop-color="#373737"/><stop offset="1" stop-color="#8f8f8f"/></linearGradient><linearGradient x1="251.94896" y1="276.73392" x2="253.41053" y2="257.55622" gradientUnits="userSpaceOnUse" id="color-67"><stop offset="0" stop-color="#373737"/><stop offset="1" stop-color="#8f8f8f"/></linearGradient><linearGradient x1="217.17759" y1="274.08396" x2="218.63915" y2="254.90625" gradientUnits="userSpaceOnUse" id="color-68"><stop offset="0" stop-color="#373737"/><stop offset="1" stop-color="#8f8f8f"/></linearGradient><linearGradient x1="241.90883" y1="277.26919" x2="243.37039" y2="258.09138" gradientUnits="userSpaceOnUse" id="color-69"><stop offset="0" stop-color="#373737"/><stop offset="1" stop-color="#8f8f8f"/></linearGradient><linearGradient x1="227.02076" y1="276.13455" x2="228.4823" y2="256.95675" gradientUnits="userSpaceOnUse" id="color-70"><stop offset="0" stop-color="#373737"/><stop offset="1" stop-color="#8f8f8f"/></linearGradient><linearGradient x1="330.95898" y1="302.27823" x2="335.37438" y2="244.34163" gradientUnits="userSpaceOnUse" id="color-71"><stop offset="0" stop-color="#767676"/><stop offset="1" stop-color="#ececec"/></linearGradient><linearGradient x1="344.25863" y1="276.70959" x2="323.68848" y2="275.14194" gradientUnits="userSpaceOnUse" id="color-72"><stop offset="0" stop-color="#4c4c4c"/><stop offset="1" stop-color="#2c2c2c"/></linearGradient><linearGradient x1="135.06202" y1="287.34873" x2="139.47742" y2="229.41212" gradientUnits="userSpaceOnUse" id="color-73"><stop offset="0" stop-color="#767676"/><stop offset="1" stop-color="#ececec"/></linearGradient><linearGradient x1="125.79069" y1="260.05996" x2="146.3608" y2="261.62762" gradientUnits="userSpaceOnUse" id="color-74"><stop offset="0" stop-color="#4c4c4c"/><stop offset="1" stop-color="#2c2c2c"/></linearGradient><linearGradient x1="318.00104" y1="317.65975" x2="322.41647" y2="259.72311" gradientUnits="userSpaceOnUse" id="color-75"><stop offset="0" stop-color="#767676"/><stop offset="1" stop-color="#ececec"/></linearGradient><linearGradient x1="331.3007" y1="292.09109" x2="310.73058" y2="290.52341" gradientUnits="userSpaceOnUse" id="color-76"><stop offset="0" stop-color="#4c4c4c"/><stop offset="1" stop-color="#2c2c2c"/></linearGradient><linearGradient x1="145.53945" y1="304.51626" x2="149.95484" y2="246.57963" gradientUnits="userSpaceOnUse" id="color-77"><stop offset="0" stop-color="#767676"/><stop offset="1" stop-color="#ececec"/></linearGradient><linearGradient x1="136.268" y1="277.22743" x2="156.83819" y2="278.79512" gradientUnits="userSpaceOnUse" id="color-78"><stop offset="0" stop-color="#4c4c4c"/><stop offset="1" stop-color="#2c2c2c"/></linearGradient><linearGradient x1="300.73429" y1="329.439" x2="305.1497" y2="271.50241" gradientUnits="userSpaceOnUse" id="color-79"><stop offset="0" stop-color="#767676"/><stop offset="1" stop-color="#ececec"/></linearGradient><linearGradient x1="314.03401" y1="303.8704" x2="293.46386" y2="302.30271" gradientUnits="userSpaceOnUse" id="color-80"><stop offset="0" stop-color="#4c4c4c"/><stop offset="1" stop-color="#2c2c2c"/></linearGradient><linearGradient x1="160.82166" y1="318.77613" x2="165.23706" y2="260.83953" gradientUnits="userSpaceOnUse" id="color-81"><stop offset="0" stop-color="#767676"/><stop offset="1" stop-color="#ececec"/></linearGradient><linearGradient x1="151.55029" y1="291.48733" x2="172.12044" y2="293.05502" gradientUnits="userSpaceOnUse" id="color-82"><stop offset="0" stop-color="#4c4c4c"/><stop offset="1" stop-color="#2c2c2c"/></linearGradient><linearGradient x1="283.06467" y1="337.9138" x2="287.48006" y2="279.97716" gradientUnits="userSpaceOnUse" id="color-83"><stop offset="0" stop-color="#767676"/><stop offset="1" stop-color="#ececec"/></linearGradient><linearGradient x1="296.36435" y1="312.3452" x2="275.79424" y2="310.77752" gradientUnits="userSpaceOnUse" id="color-84"><stop offset="0" stop-color="#4c4c4c"/><stop offset="1" stop-color="#2c2c2c"/></linearGradient><linearGradient x1="177.00297" y1="329.83075" x2="181.41837" y2="271.89411" gradientUnits="userSpaceOnUse" id="color-85"><stop offset="0" stop-color="#767676"/><stop offset="1" stop-color="#ececec"/></linearGradient><linearGradient x1="167.73157" y1="302.54194" x2="188.30171" y2="304.10963" gradientUnits="userSpaceOnUse" id="color-86"><stop offset="0" stop-color="#4c4c4c"/><stop offset="1" stop-color="#2c2c2c"/></linearGradient><linearGradient x1="263.64051" y1="343.63586" x2="268.05591" y2="285.6992" gradientUnits="userSpaceOnUse" id="color-87"><stop offset="0" stop-color="#767676"/><stop offset="1" stop-color="#ececec"/></linearGradient><linearGradient x1="276.94018" y1="318.06724" x2="256.37004" y2="316.49957" gradientUnits="userSpaceOnUse" id="color-88"><stop offset="0" stop-color="#4c4c4c"/><stop offset="1" stop-color="#2c2c2c"/></linearGradient><linearGradient x1="195.33566" y1="338.43027" x2="199.75108" y2="280.49363" gradientUnits="userSpaceOnUse" id="color-89"><stop offset="0" stop-color="#767676"/><stop offset="1" stop-color="#ececec"/></linearGradient><linearGradient x1="186.06425" y1="311.14149" x2="206.63439" y2="312.70916" gradientUnits="userSpaceOnUse" id="color-90"><stop offset="0" stop-color="#4c4c4c"/><stop offset="1" stop-color="#2c2c2c"/></linearGradient><linearGradient x1="243.81344" y1="346.05335" x2="248.22885" y2="288.11674" gradientUnits="userSpaceOnUse" id="color-91"><stop offset="0" stop-color="#767676"/><stop offset="1" stop-color="#ececec"/></linearGradient><linearGradient x1="257.11314" y1="320.48474" x2="236.54302" y2="318.91706" gradientUnits="userSpaceOnUse" id="color-92"><stop offset="0" stop-color="#4c4c4c"/><stop offset="1" stop-color="#2c2c2c"/></linearGradient><linearGradient x1="214.56736" y1="343.82447" x2="218.98279" y2="285.88788" gradientUnits="userSpaceOnUse" id="color-93"><stop offset="0" stop-color="#767676"/><stop offset="1" stop-color="#ececec"/></linearGradient><linearGradient x1="205.29597" y1="316.53571" x2="225.86612" y2="318.10336" gradientUnits="userSpaceOnUse" id="color-94"><stop offset="0" stop-color="#4c4c4c"/><stop offset="1" stop-color="#2c2c2c"/></linearGradient><linearGradient x1="124.30072" y1="106.5787" x2="119.8853" y2="164.51534" gradientUnits="userSpaceOnUse" id="color-95"><stop offset="0" stop-color="#767676"/><stop offset="1" stop-color="#ececec"/></linearGradient><linearGradient x1="111.00104" y1="132.14732" x2="131.57118" y2="133.71499" gradientUnits="userSpaceOnUse" id="color-96"><stop offset="0" stop-color="#4c4c4c"/><stop offset="1" stop-color="#2c2c2c"/></linearGradient><linearGradient x1="372.24051" y1="126.78396" x2="367.82511" y2="184.72056" gradientUnits="userSpaceOnUse" id="color-97"><stop offset="0" stop-color="#767676"/><stop offset="1" stop-color="#ececec"/></linearGradient><linearGradient x1="381.51188" y1="154.07275" x2="360.94177" y2="152.50508" gradientUnits="userSpaceOnUse" id="color-98"><stop offset="0" stop-color="#4c4c4c"/><stop offset="1" stop-color="#2c2c2c"/></linearGradient><linearGradient x1="140.03598" y1="117.43965" x2="135.62057" y2="175.37629" gradientUnits="userSpaceOnUse" id="color-99"><stop offset="0" stop-color="#767676"/><stop offset="1" stop-color="#ececec"/></linearGradient><linearGradient x1="126.7363" y1="143.00827" x2="147.30642" y2="144.57593" gradientUnits="userSpaceOnUse" id="color-100"><stop offset="0" stop-color="#4c4c4c"/><stop offset="1" stop-color="#2c2c2c"/></linearGradient><linearGradient x1="355.04108" y1="135.13496" x2="350.62569" y2="193.07157" gradientUnits="userSpaceOnUse" id="color-101"><stop offset="0" stop-color="#767676"/><stop offset="1" stop-color="#ececec"/></linearGradient><linearGradient x1="364.31246" y1="162.42375" x2="343.74235" y2="160.85607" gradientUnits="userSpaceOnUse" id="color-102"><stop offset="0" stop-color="#4c4c4c"/><stop offset="1" stop-color="#2c2c2c"/></linearGradient><linearGradient x1="158.74933" y1="131.48277" x2="154.33393" y2="189.41941" gradientUnits="userSpaceOnUse" id="color-103"><stop offset="0" stop-color="#767676"/><stop offset="1" stop-color="#ececec"/></linearGradient><linearGradient x1="145.44965" y1="157.05139" x2="166.01977" y2="158.61905" gradientUnits="userSpaceOnUse" id="color-104"><stop offset="0" stop-color="#4c4c4c"/><stop offset="1" stop-color="#2c2c2c"/></linearGradient><linearGradient x1="334.51493" y1="144.87804" x2="330.09953" y2="202.81468" gradientUnits="userSpaceOnUse" id="color-105"><stop offset="0" stop-color="#767676"/><stop offset="1" stop-color="#ececec"/></linearGradient><linearGradient x1="343.78631" y1="172.16681" x2="323.21624" y2="170.59915" gradientUnits="userSpaceOnUse" id="color-106"><stop offset="0" stop-color="#4c4c4c"/><stop offset="1" stop-color="#2c2c2c"/></linearGradient><linearGradient x1="259.29763" y1="-29.95207" x2="244.10826" y2="169.35452" gradientUnits="userSpaceOnUse" id="color-107"><stop offset="0" stop-color="#bdbdbd"/><stop offset="1" stop-color="#848484"/></linearGradient><linearGradient x1="257.81289" y1="-10.47027" x2="242.62353" y2="188.83634" gradientUnits="userSpaceOnUse" id="color-108"><stop offset="0" stop-color="#717171"/><stop offset="1" stop-color="#a9a9a9"/></linearGradient><radialGradient cx="329.46217" cy="-3.24983" r="148.69176" gradientUnits="userSpaceOnUse" id="color-109"><stop offset="0" stop-color="#af2e80"/><stop offset="1" stop-color="#892464"/></radialGradient><radialGradient cx="214.70861" cy="27.61326" r="22.16659" gradientUnits="userSpaceOnUse" id="color-110"><stop offset="0" stop-color="#ffffff"/><stop offset="1" stop-color="#d1d1d1"/></radialGradient><radialGradient cx="290.43422" cy="33.3844" r="22.16659" gradientUnits="userSpaceOnUse" id="color-111"><stop offset="0" stop-color="#ffffff"/><stop offset="1" stop-color="#d1d1d1"/></radialGradient><radialGradient cx="214.70861" cy="27.61326" r="12.15132" gradientUnits="userSpaceOnUse" id="color-112"><stop offset="0" stop-color="#ffffff"/><stop offset="1" stop-color="#ff0000"/></radialGradient><radialGradient cx="290.43422" cy="33.3844" r="12.15129" gradientUnits="userSpaceOnUse" id="color-113"><stop offset="0" stop-color="#ffffff"/><stop offset="1" stop-color="#ff0000"/></radialGradient><linearGradient x1="169.87168" y1="140.18752" x2="165.45627" y2="198.12413" gradientUnits="userSpaceOnUse" id="color-114"><stop offset="0" stop-color="#767676"/><stop offset="1" stop-color="#ececec"/></linearGradient><linearGradient x1="156.57194" y1="165.75614" x2="177.14211" y2="167.3238" gradientUnits="userSpaceOnUse" id="color-115"><stop offset="0" stop-color="#4c4c4c"/><stop offset="1" stop-color="#2c2c2c"/></linearGradient><linearGradient x1="317.64514" y1="151.44948" x2="313.22973" y2="209.38609" gradientUnits="userSpaceOnUse" id="color-116"><stop offset="0" stop-color="#767676"/><stop offset="1" stop-color="#ececec"/></linearGradient><linearGradient x1="326.9165" y1="178.73827" x2="306.34635" y2="177.1706" gradientUnits="userSpaceOnUse" id="color-117"><stop offset="0" stop-color="#4c4c4c"/><stop offset="1" stop-color="#2c2c2c"/></linearGradient><linearGradient x1="183.19496" y1="145.78622" x2="178.77955" y2="203.72287" gradientUnits="userSpaceOnUse" id="color-118"><stop offset="0" stop-color="#767676"/><stop offset="1" stop-color="#ececec"/></linearGradient><linearGradient x1="169.89528" y1="171.35485" x2="190.46538" y2="172.92252" gradientUnits="userSpaceOnUse" id="color-119"><stop offset="0" stop-color="#4c4c4c"/><stop offset="1" stop-color="#2c2c2c"/></linearGradient><linearGradient x1="303.62725" y1="154.96448" x2="299.21185" y2="212.90114" gradientUnits="userSpaceOnUse" id="color-120"><stop offset="0" stop-color="#767676"/><stop offset="1" stop-color="#ececec"/></linearGradient><linearGradient x1="312.89866" y1="182.25329" x2="292.32856" y2="180.6856" gradientUnits="userSpaceOnUse" id="color-121"><stop offset="0" stop-color="#4c4c4c"/><stop offset="1" stop-color="#2c2c2c"/></linearGradient><linearGradient x1="196.99048" y1="153.78008" x2="192.57507" y2="211.71667" gradientUnits="userSpaceOnUse" id="color-122"><stop offset="0" stop-color="#767676"/><stop offset="1" stop-color="#ececec"/></linearGradient><linearGradient x1="183.69076" y1="179.34868" x2="204.2609" y2="180.91636" gradientUnits="userSpaceOnUse" id="color-123"><stop offset="0" stop-color="#4c4c4c"/><stop offset="1" stop-color="#2c2c2c"/></linearGradient><linearGradient x1="288.77967" y1="160.77542" x2="284.36425" y2="218.71203" gradientUnits="userSpaceOnUse" id="color-124"><stop offset="0" stop-color="#767676"/><stop offset="1" stop-color="#ececec"/></linearGradient><linearGradient x1="298.0511" y1="188.06421" x2="277.48094" y2="186.49654" gradientUnits="userSpaceOnUse" id="color-125"><stop offset="0" stop-color="#4c4c4c"/><stop offset="1" stop-color="#2c2c2c"/></linearGradient><linearGradient x1="213.44215" y1="157.73599" x2="209.02675" y2="215.67255" gradientUnits="userSpaceOnUse" id="color-126"><stop offset="0" stop-color="#767676"/><stop offset="1" stop-color="#ececec"/></linearGradient><linearGradient x1="200.14246" y1="183.30456" x2="220.71259" y2="184.87224" gradientUnits="userSpaceOnUse" id="color-127"><stop offset="0" stop-color="#4c4c4c"/><stop offset="1" stop-color="#2c2c2c"/></linearGradient><linearGradient x1="271.91858" y1="162.19253" x2="267.50316" y2="220.12909" gradientUnits="userSpaceOnUse" id="color-128"><stop offset="0" stop-color="#767676"/><stop offset="1" stop-color="#ececec"/></linearGradient><linearGradient x1="281.18991" y1="189.48127" x2="260.61981" y2="187.91362" gradientUnits="userSpaceOnUse" id="color-129"><stop offset="0" stop-color="#4c4c4c"/><stop offset="1" stop-color="#2c2c2c"/></linearGradient><linearGradient x1="254.09402" y1="164.10791" x2="249.67862" y2="222.04454" gradientUnits="userSpaceOnUse" id="color-130"><stop offset="0" stop-color="#767676"/><stop offset="1" stop-color="#ececec"/></linearGradient><linearGradient x1="263.36539" y1="191.39668" x2="242.79523" y2="189.829" gradientUnits="userSpaceOnUse" id="color-131"><stop offset="0" stop-color="#4c4c4c"/><stop offset="1" stop-color="#2c2c2c"/></linearGradient><linearGradient x1="232.05831" y1="161.77375" x2="227.64288" y2="219.7104" gradientUnits="userSpaceOnUse" id="color-132"><stop offset="0" stop-color="#767676"/><stop offset="1" stop-color="#ececec"/></linearGradient><linearGradient x1="218.75862" y1="187.34238" x2="239.32876" y2="188.91004" gradientUnits="userSpaceOnUse" id="color-133"><stop offset="0" stop-color="#4c4c4c"/><stop offset="1" stop-color="#2c2c2c"/></linearGradient><linearGradient x1="246.88075" y1="98.61031" x2="239.38653" y2="196.94524" gradientUnits="userSpaceOnUse" id="color-134"><stop offset="0" stop-color="#717171"/><stop offset="1" stop-color="#a9a9a9"/></linearGradient><linearGradient x1="248.61724" y1="60.76488" x2="239.17556" y2="184.6536" gradientUnits="userSpaceOnUse" id="color-135"><stop offset="0" stop-color="#bdbdbd"/><stop offset="1" stop-color="#848484"/></linearGradient><linearGradient x1="248.61724" y1="60.76488" x2="239.17556" y2="184.6536" gradientUnits="userSpaceOnUse" id="color-136"><stop offset="0" stop-color="#af2e80"/><stop offset="1" stop-color="#95276d"/></linearGradient><radialGradient cx="177.76861" cy="119.93063" r="11.07453" gradientUnits="userSpaceOnUse" id="color-137"><stop offset="0" stop-color="#5c1843"/><stop offset="1" stop-color="#9b2871"/></radialGradient><radialGradient cx="312.22768" cy="130.17789" r="11.0745" gradientUnits="userSpaceOnUse" id="color-138"><stop offset="0" stop-color="#5c1843"/><stop offset="1" stop-color="#9b2871"/></radialGradient></defs><g transform="translate(114.36114,30.3594)"><g data-paper-data="{&quot;isPaintingLayer&quot;:true}" fill-rule="nonzero" stroke-width="0" stroke-linecap="butt" stroke-linejoin="miter" stroke-miterlimit="10" stroke-dasharray="" stroke-dashoffset="0" style="mix-blend-mode: normal"><g><path d="M552.07065,396.10316c-14.25311,52.4767 -36.05405,108.62822 -66.60588,146.68834c-99.96339,124.52981 -260.54635,158.39258 -280.58119,97.21093c-10.82901,-33.06923 129.32783,-67.20677 213.90498,-154.184c20.50394,-21.08578 38.7404,-44.33758 54.84601,-67.70974c57.11591,-82.88555 147.58871,-202.57657 157.19832,-197.25184c0.70027,0.38797 -60.81272,109.16024 -78.76222,175.24623z" fill="url(#color-1)" stroke="#000000"/><g stroke="none"><path d="M159.87114,660.28444l-8.54391,-23.55553l50.95853,-24.00621l81.68205,-0.61861l62.2638,29.54583l-13.1291,20.76714l-49.52107,-26.19775l-81.11309,0.6143z" fill="url(#color-2)"/><path d="M176.0383,650.81231c0.08027,10.59856 -8.88711,19.25876 -20.02914,19.34315c-11.14204,0.08438 -20.23954,-8.43905 -20.31981,-19.03757c-0.08027,-10.59856 8.88711,-19.25873 20.02914,-19.3431c11.14204,-0.08438 20.23954,8.43901 20.31981,19.03752z" fill="url(#color-3)"/><path d="M352.69919,650.95064c0.08027,10.59856 -8.88711,19.25876 -20.02914,19.34315c-11.14208,0.08438 -20.23954,-8.43905 -20.31981,-19.03757c-0.08027,-10.59856 8.88711,-19.25876 20.02914,-19.34315c11.14208,-0.08438 20.23954,8.43905 20.31981,19.03757z" fill="url(#color-4)"/></g></g><g stroke="none"><path d="M88.92719,341.449c-15.50399,25.27768 -51.91334,25.04386 -92.6288,25.35221c-30.57911,0.23159 -57.21488,-7.40419 -75.82337,-20.94643c-0.17914,-0.1304 -0.35637,-0.2702 -0.53161,-0.4193c1.70597,-3.20835 3.74289,-6.5785 6.0852,-10.49177c-1.8121,-10.3113 5.55016,-8.40964 6.75553,-19.19898c0.67812,-6.06963 -3.94641,-11.71385 -5.01159,-17.26732c-0.48288,-2.51752 2.76583,-4.70198 3.44397,-6.35881c2.80069,-6.84236 0.57062,-10.16061 -1.68578,-14.92179c-0.29567,-0.62386 1.54679,0.68639 2.0591,0.22358c2.60201,-2.35074 6.37586,-4.63002 6.68476,-8.12306c0.21793,-2.46455 -4.09567,-2.93553 -5.52845,-4.95254c-0.57994,-0.81639 2.20123,-10.2383 2.40012,-11.27324c0,0 0.13661,-0.71113 0.0303,-1.63759c16.75274,-8.10864 37.56648,-12.99084 60.1485,-13.16186c42.80601,-0.32419 77.78898,-4.04581 93.1594,26.01445c4.64034,9.07521 6.15991,67.84129 0.44284,77.16239z" fill="#262626"/><g><g data-paper-data="{&quot;index&quot;:null}"><g><g><g><path d="M-55.99647,338.52176l-5.81891,0.02124l-0.25515,-69.82677l5.81891,-0.02128z" fill="url(#color-5)"/><path d="M-40.26685,343.55588l-5.81886,0.02124l-0.29504,-80.73727l5.81891,-0.02128z" fill="url(#color-6)"/><path d="M-23.89851,344.2234l-5.81891,0.02128l-0.29504,-80.73717l5.81893,-0.02128z" fill="url(#color-7)"/><path d="M-7.87117,351.0749l-5.81891,0.02128l-0.34687,-94.92086l5.81891,-0.02128z" fill="url(#color-8)"/><path d="M7.77108,352.10888l-5.81891,0.02128l-0.34687,-94.92089l5.81891,-0.02128z" fill="url(#color-9)"/><path d="M24.13668,352.04907l-5.81891,0.02131l-0.34683,-94.92089l5.81891,-0.02131z" fill="url(#color-10)"/><path d="M40.13337,350.53588l-5.81893,0.02128l-0.34683,-94.92086l5.81891,-0.02128z" fill="url(#color-11)"/><path d="M54.66599,346.4822l-5.81891,0.02128l-0.31624,-86.55615l5.81891,-0.02124z" fill="url(#color-12)"/><path d="M66.63128,276.98861c0,0 -45.92879,-13.21576 -68.71194,-13.13251c-22.20134,0.08115 -71.50658,18.30015 -71.50658,18.30015l-0.64777,-18.03653c0,0 51.53804,-16.48136 73.84056,-16.56289c22.6904,-0.08291 67.54391,11.97299 67.54391,11.97299z" fill="url(#color-13)"/><path d="M67.80846,347.39723c0,0 -44.76425,12.38348 -67.45463,12.46637c-22.30251,0.08145 -73.95959,-16.02285 -73.95959,-16.02285l0.51594,-18.04074c0,0 49.43707,17.85815 71.63838,17.77703c22.78312,-0.08326 68.61419,-13.63438 68.61419,-13.63438z" data-paper-data="{&quot;index&quot;:null}" fill="url(#color-14)"/><path d="M106.80622,310.62781l-209.59142,0.79823l-0.04893,-13.38345l209.59146,-0.79826z" fill="url(#color-15)"/></g></g></g></g><path d="M-81.0012,303.3967c0.06977,9.21195 -7.34147,16.73629 -16.5534,16.80605c-9.21197,0.06977 -16.73629,-7.34147 -16.80605,-16.5534c-0.06977,-9.21195 7.34142,-16.73629 16.5534,-16.80605c9.21197,-0.06977 16.73629,7.34142 16.80605,16.5534z" fill="url(#color-16)"/></g><path d="M88.92719,341.449c-15.50399,25.27768 -51.91334,25.04386 -92.6288,25.35221c-30.57911,0.23159 -57.21488,-7.40419 -75.82337,-20.94643c-4.23798,-3.08416 -7.38884,-11.46856 -9.23197,-21.89586c11.68686,-1.92927 25.46178,0.43811 37.2643,1.98989c4.94312,0.6499 6.85912,5.30564 12.67829,6.71505l3.6766,0.89528c0,0 4.73312,1.1453 5.87838,-3.5878c1.14526,-4.73312 -3.58785,-5.87838 -3.58785,-5.87838l-4.12943,-0.99353c-5.81925,-0.52987 -5.82119,-5.17334 -12.74664,-6.72792c-6.69551,-1.50297 -14.64276,0.36577 -21.4334,-0.81164c-7.57159,-1.31284 -11.72971,-2.39154 -18.88268,-1.26145c-0.18901,-2.03544 -0.33384,-4.10574 -0.43325,-6.19212c9.86726,0.04066 21.84075,1.87265 26.91316,-5.16104c6.26047,-8.68108 -0.25165,-11.81332 -5.02051,-16.0787c-1.84238,-1.64787 4.96076,-2.41324 5.66773,-4.78174c3.3974,-11.38184 -7.54564,-18.20842 -16.40727,-20.02456c0,0 -1.14034,-0.21911 -2.41438,0.11355c0.7017,-0.81191 1.44735,-1.50813 2.23789,-2.07587c18.37027,-13.19233 45.06,-21.60045 74.82101,-21.82584c42.80601,-0.32419 77.78898,-4.04581 93.1594,26.01445c1.00883,1.97302 1.87016,6.29471 2.54172,11.94639c-1.29699,0.14025 -2.27525,0.73734 -2.27525,0.73734c-8.8069,5.65593 -7.70319,13.34592 -13.11875,20.01062c-2.04165,2.51259 -7.32249,-2.13254 -9.71244,0.05143c-2.16974,1.98271 -1.14461,5.76594 -1.71694,8.64889l0.02213,2.92173c0,0 0.03687,4.86956 4.90643,4.83267c4.86956,-0.03687 4.83267,-4.90643 4.83267,-4.90643l-0.01692,-2.23508c1.41229,0.71496 4.26559,1.08168 7.96989,-1.87299c5.91524,-4.71823 4.14962,-12.96896 10.0359,-17.85623c1.37487,20.76063 0.76679,48.70095 -3.02559,54.88403zM35.11956,305.55212c13.68446,3.86737 21.66255,-14.08499 13.1702,-23.31792c-5.08424,-5.52762 -20.10338,-4.22059 -27.31177,-7.04426c-8.89639,-3.38732 -17.53973,-9.614 -27.50787,-3.45962c-4.76392,2.94131 -10.95316,14.14364 -7.76814,20.12756c1.31798,2.47624 4.95162,2.70219 7.13194,4.46715c2.68418,2.1729 3.40367,6.45905 6.42919,8.12409c10.1051,5.56122 14.08804,-2.89051 21.61873,-6.4815c1.34545,-0.64155 6.7806,1.90473 10.06484,3.23341c1.2185,1.73176 2.22956,3.80188 4.17285,4.35109zM32.32393,333.28153c-2.91887,0.77069 -11.59868,4.39881 -9.88128,8.9613l-2.70816,3.66837c-0.62313,0.82528 -0.98946,1.85472 -0.98102,2.96872c0.02036,2.68935 2.21704,4.85304 4.90643,4.83267c1.61339,-0.01222 3.03761,-0.80771 3.91456,-2.02294l2.29445,-3.10808c3.60188,-1.43531 11.07844,6.83184 16.64334,5.91153c2.94673,-0.48734 6.09979,-1.56363 8.14014,-3.7448c1.84305,-1.97028 0.93065,-5.2466 1.34149,-7.98916c1.2066,-0.01217 2.41311,-0.02334 3.61955,-0.03248l2.92173,-0.02213c0,0 1.11992,-0.00849 2.2815,-0.55441c0.92899,0.24054 1.56977,0.41818 1.63231,0.43016c0,0 4.78223,0.91881 5.70105,-3.86338c0.91885,-4.7822 -3.86338,-5.70105 -3.86338,-5.70105c-5.60036,-1.07606 -11.53659,-3.42155 -16.68941,-0.32872c-6.58946,-0.39104 -13.75457,-0.86279 -19.27336,0.59439z" fill="url(#color-17)"/></g><g data-paper-data="{&quot;index&quot;:null}" stroke="none"><path d="M485.58105,234.55925c29.76106,-0.2254 56.575,7.7775 75.14301,20.69008c1.21823,0.84721 2.33673,1.9947 3.35787,3.39689c-9.39326,4.33404 -11.67629,10.6998 -9.11059,20.86388c0.29027,1.14989 2.07409,1.77233 1.98188,2.95473c-0.22897,2.93575 -5.61744,2.71093 -7.10149,5.25426c-3.71292,6.36314 -0.81914,11.65235 0.37814,17.64832c0.81536,4.08367 -5.07466,8.35606 -4.76628,13.67161c0.74683,12.87361 7.34485,15.77245 17.14743,21.49966c-0.184,0.16292 -0.3704,0.31545 -0.55914,0.45721c-18.40122,13.82253 -44.91831,21.86086 -75.49742,22.09245c-40.71549,0.30836 -77.1171,1.09358 -93.0022,-23.94634c-5.23184,-8.247 -5.28872,-56.02128 -2.03313,-72.65065c1.26313,0.66461 2.56629,0.65474 2.56629,0.65474c12.84202,-0.09727 25.51523,2.33191 38.07178,4.4936c7.00444,1.20587 11.15761,7.99976 18.54388,9.59253l3.87742,0.06523c0,0 4.86956,-0.03687 4.83267,-4.90643c-0.03687,-4.86956 -4.90643,-4.83267 -4.90643,-4.83267l-1.96603,0.10944c-7.30752,-1.13173 -10.99447,-8.04947 -18.61225,-9.6054c-12.3551,-2.52352 -25.77696,-4.60558 -38.53727,-4.65776c16.11926,-25.38133 49.67459,-22.53854 90.19187,-22.84539z" fill="#262626"/><g><g data-paper-data="{&quot;index&quot;:null}"><g><g><g><path d="M537.61249,264.19731l5.81855,-0.06686l0.80252,69.82266l-5.81855,0.0669z" fill="url(#color-18)"/><path d="M521.83551,258.55929l5.81855,-0.06686l0.92784,80.7325l-5.81852,0.0669z" fill="url(#color-19)"/><path d="M505.47916,259.47478l5.81855,-0.06686l0.92784,80.73238l-5.81855,0.06686z" fill="url(#color-20)"/><path d="M489.39453,252.38546l5.81855,-0.06686l1.09084,94.91522l-5.81855,0.06686z" fill="url(#color-21)"/><path d="M473.76969,253.65611l5.81855,-0.06686l1.09084,94.91526l-5.81855,0.06686z" fill="url(#color-22)"/><path d="M457.40506,253.84422l5.81855,-0.06681l1.09089,94.91526l-5.81855,0.06681z" fill="url(#color-23)"/><path d="M441.38729,252.57357l5.81855,-0.06686l1.09089,94.91522l-5.81855,0.06686z" fill="url(#color-24)"/><path d="M426.89097,257.10462l5.81855,-0.0669l0.99477,86.55103l-5.81852,0.06686z" fill="url(#color-25)"/><path d="M414.08681,256.90226c0,0 44.66575,-12.73386 67.35481,-12.99464c22.30117,-0.25629 74.08298,15.4426 74.08298,15.4426l-0.37451,18.04427c0,0 -49.57553,-17.47015 -71.77556,-17.215c-22.78186,0.26188 -68.50515,14.17173 -68.50515,14.17173z" fill="url(#color-26)"/><path d="M415.13991,327.30728c0,0 46.03104,12.85541 68.81277,12.59358c22.20005,-0.25512 71.36092,-18.86 71.36092,-18.86l0.7892,18.03086c0,0 -51.40728,16.88485 -73.70847,17.1412c-22.68902,0.26078 -67.63569,-11.44328 -67.63569,-11.44328z" data-paper-data="{&quot;index&quot;:null}" fill="url(#color-27)"/><path d="M375.05469,295.2124l209.57952,-2.3763l0.1538,13.38264l-209.57952,2.37633z" fill="url(#color-28)"/></g></g></g></g><path d="M579.43829,281.71427c9.2119,-0.06977 16.73629,7.34142 16.80605,16.5534c0.06977,9.21195 -7.34138,16.73629 -16.5534,16.80605c-9.21195,0.06977 -16.73629,-7.34147 -16.80605,-16.5534c-0.06977,-9.21195 7.34138,-16.73629 16.5534,-16.80605z" fill="url(#color-29)"/></g><path d="M485.58105,234.55925c29.76106,-0.2254 56.575,7.7775 75.14301,20.69008c2.29259,1.59432 4.23195,4.25226 5.83406,7.66951c-0.03728,-0.00031 -0.07484,-0.00033 -0.11272,-0.00004c-4.86956,0.03687 -4.83267,4.90643 -4.83267,4.90643c0.21058,5.81391 4.06665,9.32554 4.00629,14.57915c-0.05592,4.86752 -3.35358,9.18263 -3.76496,14.15812c-0.71591,8.65957 5.25477,19.31599 2.38725,28.14081c-1.00331,3.08755 -4.93388,4.70251 -5.78446,7.83554c-0.96103,3.53975 -0.9641,7.41934 -0.57981,11.40202c-18.13488,12.01381 -42.98449,18.93285 -71.3226,19.14747c-37.17252,0.28152 -70.74922,0.96054 -88.39993,-17.97889c2.00113,-2.76031 9.10424,-5.14919 11.58877,-8.40882c3.25197,-2.47766 7.47717,-4.98543 8.1287,-9.68428c0.73789,-5.32184 -4.6316,-9.23802 -3.98913,-14.73792c0.58589,-5.016 3.19772,-9.87262 3.73991,-14.28653c0.73686,-5.99863 -3.51194,-12.403 -6.79211,-18.54649c11.12051,4.01707 23.46604,6.59859 35.40216,2.68725c13.24411,-4.3399 14.14702,-21.48706 1.77061,-28.39836c-6.63705,-3.70632 -12.80173,1.6276 -18.28167,3.57894c-4.83952,1.72326 -9.13248,-3.70695 -11.86289,-6.45226c0,0 -3.14244,-3.09515 -6.39162,-0.4034l-3.85285,0.1232c-1.48635,0.47814 -2.78279,1.06824 -3.90143,1.75024c-0.97601,-0.61778 -2.04236,-1.11983 -3.1761,-1.51758c17.51667,-18.27048 48.43925,-15.97693 85.04416,-16.25415zM431.00416,323.87812l-0.10906,-0.6601c2.85039,6.45817 6.35045,8.60626 10.79615,13.91714c10.2362,2.40909 17.74381,0.43988 27.8123,-1.48844c3.19792,-0.61245 11.28362,-1.40412 13.345,-4.47216c2.15317,-3.20464 3.74274,-7.52675 2.73731,-11.25434c-0.69221,-2.56635 -4.66132,-2.57041 -6.86647,-4.05451c-5.7632,-3.87867 -11.81237,-9.27452 -18.52646,-10.9857c-12.70919,-3.23908 -13.97871,9.48021 -22.98719,11.55353c-1.15467,-0.79946 -3.71855,-2.01584 -6.25371,0.558c-3.41724,3.4694 0.05217,6.88657 0.05217,6.88657zM499.59963,310.17547l2.77978,-0.36935c7.21356,-3.39927 8.61438,1.94313 15.18612,3.87923c10.19446,3.00337 21.47971,-4.83774 31.69614,-4.85997c0,0 4.86956,-0.03687 4.83267,-4.90643c-0.03687,-4.86956 -4.90643,-4.83267 -4.90643,-4.83267c-7.58429,0.09102 -21.73606,7.98176 -28.61253,5.33641c-8.82738,-3.39584 -11.71334,-7.43182 -21.88148,-3.63174l0.83197,-0.35458c0,0 -4.86956,0.03687 -4.83267,4.90643c0.03687,4.86956 4.90643,4.83267 4.90643,4.83267z" fill="url(#color-30)"/></g><path d="M98.95226,391.35274c6.15253,-21.39601 12.89932,-38.97721 20.65969,-53.35394c24.76569,-45.88056 -119.8886,-81.92856 118.74394,-79.63018c250.73012,2.41489 96.79508,26.01758 123.91897,80.67173c7.39907,14.90899 14.15852,33.40715 20.61528,56.33388c18.5,65.6891 39.77589,144.08313 -27.46772,183.50447c-9.19672,2.50098 -18.24299,5.56311 -26.78073,8.27498c-15.09848,4.79575 -31.66647,5.06026 -46.49999,10.61216c-1.76974,-1.08578 -3.91418,-0.53238 -3.91418,-0.53238l-2.70832,0.84909c-29.50013,0.22342 -65.32919,2.18425 -90.26378,-16.22331c-9.84148,-3.9317 -18.21136,-10.59705 -27.77974,-14.59948c-7.68198,-3.21333 -17.12103,1.5432 -24.3625,-1.76342c-3.0937,-1.41266 -5.06172,-4.86905 -8.28459,-5.95527c-7.71745,-2.60106 -16.07652,-3.38576 -24.13003,-6.5366c0,0 -2.88878,-1.1302 -4.95719,0.71904c-32.51066,-43.78994 -12.29757,-108.43868 3.21088,-162.37084z" data-paper-data="{&quot;index&quot;:null}" fill="#262626" stroke="none"/><g stroke="none"><path d="M187.15002,303.91097l45.42382,-168.07543l15.78178,4.59043l-44.49269,167.91357z" fill="url(#color-31)"/><path d="M275.78927,307.79474l-47.0308,-167.22038l15.71047,-4.82892l47.96428,167.36821z" data-paper-data="{&quot;index&quot;:null}" fill="url(#color-32)"/><g><path d="M185.22719,400.43128l-53.03079,-92.915l9.99088,-5.70227l53.03071,92.915z" fill="url(#color-33)"/><path d="M282.58029,392.4439l51.61735,-93.70755l10.07611,5.55029l-51.61738,93.70756z" data-paper-data="{&quot;index&quot;:null}" fill="url(#color-34)"/><path d="M227.72828,393.87536l-0.83651,-275.57808l23.93562,0.44401l2.08227,274.9434z" fill="url(#color-35)"/><path d="M109.33257,310.69548l-0.07841,-10.35294l259.97389,-1.9689l0.07841,10.35294z" fill="url(#color-36)"/><path d="M126.5483,305.38832c0.06977,9.21195 -7.34147,16.73629 -16.5534,16.80605c-9.21197,0.06977 -16.73625,-7.34147 -16.80602,-16.5534c-0.06977,-9.21195 7.34142,-16.73629 16.55337,-16.80605c9.21197,-0.06977 16.73629,7.34142 16.80605,16.5534z" fill="url(#color-37)"/><path d="M388.34614,302.93248c0.06977,9.21195 -7.34147,16.73629 -16.55345,16.80605c-9.21195,0.06977 -16.73629,-7.34147 -16.80605,-16.5534c-0.06977,-9.21195 7.34142,-16.73629 16.5534,-16.80605c9.21195,-0.06977 16.73634,7.34142 16.80609,16.5534z" fill="url(#color-38)"/><path d="M209.61499,620.99581l-1.72128,-227.27953l65.60416,-0.49685l1.72128,227.27953z" fill="url(#color-39)"/><path d="M183.31659,399.55803l-0.09536,-12.59071l110.66554,-0.83812l0.09536,12.59071z" fill="url(#color-40)"/><path d="M201.76872,409.11342l-0.04368,-5.76821l79.10006,-0.59907l0.04368,5.76821z" fill="url(#color-41)"/><path d="M201.67456,421.95406l-0.04368,-5.76828l79.10006,-0.59907l0.04368,5.76828z" fill="url(#color-42)"/><path d="M201.76973,434.51928l-0.04368,-5.76824l79.10006,-0.59907l0.04368,5.76824z" fill="url(#color-43)"/><path d="M201.67548,447.35999l-0.04368,-5.76824l79.1001,-0.59907l0.04368,5.76824z" fill="url(#color-44)"/><path d="M201.96003,459.64978l-0.04368,-5.76824l79.10006,-0.59907l0.04368,5.76824z" fill="url(#color-45)"/><path d="M201.86582,472.49042l-0.04368,-5.76821l79.1001,-0.59907l0.04368,5.76821z" fill="url(#color-46)"/><path d="M201.96101,485.0557l-0.04368,-5.76828l79.10006,-0.59907l0.04368,5.76828z" fill="url(#color-47)"/><path d="M201.86682,497.89636l-0.04368,-5.76821l79.1001,-0.59907l0.04368,5.76821z" fill="url(#color-48)"/><path d="M201.76918,510.27169l-0.04368,-5.76824l79.10006,-0.59907l0.04368,5.76824z" fill="url(#color-49)"/></g></g><g stroke="none"><path d="M98.95226,391.35274c6.15253,-21.39601 12.89932,-38.97721 20.65969,-53.35394c24.76569,-45.88056 -119.8886,-81.92856 118.74394,-79.63018c250.73012,2.41489 96.79508,26.01758 123.91897,80.67173c7.39907,14.90899 14.15852,33.40715 20.61528,56.33388c15.11231,53.66025 32.077,115.79843 1.12865,158.24502c-2.11742,-0.73306 -4.2015,0.53895 -4.2015,0.53895c-3.11396,2.14118 -5.15563,5.61632 -7.01474,8.90648c-0.73846,1.30688 -12.3601,0.19427 -13.37542,0.54356c-4.83634,1.66366 -8.00171,8.37457 -12.58708,9.835c-3.53985,1.12743 -7.63653,-0.1929 -11.08033,1.20063c-5.57007,2.25395 -11.17413,10.9618 -18.56194,7.91033c-3.23039,-1.33426 -1.86527,-7.68699 -5.01089,-9.21043c-3.03654,-1.47063 -6.74185,0.28485 -10.1128,0.42728c-7.13418,3.57152 -14.61156,3.63259 -21.27741,7.36467c-4.89194,2.73892 -5.93326,8.22182 -9.86761,10.9138c-2.39225,1.63684 -5.92794,-0.37309 -8.67909,0.53965c-5.8236,1.93212 -8.93508,5.27939 -16.01526,3.85512c-3.87607,-0.77974 -7.61079,-3.48523 -11.51329,-2.85111c-2.01915,0.32809 -3.37182,2.42925 -5.31538,3.06742c-6.01771,1.97586 -16.61134,-0.05091 -23.04922,-0.00216c-3.55107,0.0269 -9.23524,1.0937 -12.62522,-0.4542c-5.23854,-2.39204 -7.52097,-6.74331 -13.78913,-8.02354c-2.60147,-0.53133 -6.00828,2.64762 -7.92429,0.80941c-2.1357,-2.04899 -2.94662,-5.14652 -4.68047,-7.54513c-6.17783,-8.54636 -8.23581,-20.58108 -13.23982,-29.89423c-1.4995,-2.79077 -2.22748,-7.26555 -5.33871,-7.8633c-3.46967,-0.66665 -6.57353,2.82523 -9.32085,5.04674c-0.69532,0.56223 0.31374,3.38579 -0.22617,2.67299c-2.01865,-2.66506 -2.14858,-6.35386 -3.63633,-9.34813l-1.88189,-7.2924c-0.50852,-2.16479 -2.4601,-3.76892 -4.77754,-3.75137c-2.09021,0.01582 -3.86288,1.34628 -4.53942,3.20094l-1.86962,4.77867l0.89202,0.34901c-3.484,6.19277 -5.08919,12.27112 -7.60194,20.28112c-0.32543,1.03741 -4.06394,6.9596 -6.23523,5.97501c-4.08673,-1.85321 -5.58514,-12.91636 -9.7979,-15.91333c-3.15801,-2.24663 -6.43929,-3.83326 -9.81686,-4.94967c-24.05403,-43.33868 -5.47424,-103.03202 9.00478,-153.38422zM185.08627,360.14572c-0.03687,-4.86956 -4.90643,-4.83267 -4.90643,-4.83267c-15.67513,0.35979 -15.90028,-23.7973 -35.75764,-17.01066c-12.54213,4.28654 -10.67381,13.75041 -12.64065,23.62899c-0.71301,3.58106 -8.56736,4.27339 -10.46843,9.37124c-1.67475,4.49101 0.99664,10.42298 4.54899,13.64085c9.27208,6.82687 29.86924,15.86444 40.50008,6.05869c2.45687,-2.26617 2.45769,-6.4208 4.80317,-8.80206c5.78463,-5.87291 16.71309,-5.10004 15.86606,-16.86372c-0.10658,-1.48041 -1.05491,-2.68317 -2.07303,-3.86295c0.08562,-0.39689 0.13154,-0.8378 0.12783,-1.32759zM340.17665,420.84516l-2.26672,1.17101c-3.06488,2.21632 -5.79887,3.44239 -7.13543,5.48436c-2.91061,1.09466 -6.122,2.13073 -7.73165,1.8466c-6.32404,-1.11627 -5.31145,-12.88879 -15.72053,-8.37354c-8.00153,3.47088 -3.77266,7.9604 -4.5533,12.71026c-0.48165,2.93085 -6.05497,1.88732 -7.81565,4.27939c-1.84446,2.50584 -1.94985,5.99251 -2.07196,9.10159c-0.48209,12.27629 9.20037,10.6965 15.27262,16.96576c5.07167,5.23624 8.29929,9.36889 14.58556,13.64657c2.64977,-0.02007 5.42248,0.73768 7.94932,-0.0602c7.3141,-2.3095 6.04296,-8.93538 11.06705,-12.52608c6.75526,-4.82792 15.85062,-8.0015 14.40464,-19.02908c-0.90193,-6.87829 -12.03299,-11.1007 -14.15501,-13.75775c0.26684,-0.49586 0.45026,-1.07918 0.48058,-1.75942c0.14507,-0.07361 0.31065,-0.14534 0.49771,-0.21524l1.61414,-0.80632c0,0 4.339,-2.21073 2.12827,-6.54967c-2.21068,-4.33894 -6.54967,-2.12827 -6.54967,-2.12827zM134.73648,432.75777c-13.43036,3.99754 -7.34107,31.13381 3.22045,36.31494c2.60249,1.27668 14.4753,0.22904 15.93687,-1.74624c1.6375,-2.21309 -1.07512,-5.42054 -1.20714,-8.17046c-0.17369,-3.61892 4.28996,-6.56652 3.85349,-10.16319c-0.72559,-5.97956 -4.06834,-7.58919 -8.0437,-9.14042c-2.25417,-4.99787 -7.56545,-8.93845 -13.75996,-7.09464z" data-paper-data="{&quot;index&quot;:null}" fill="url(#color-50)"/><path d="M237.87318,304.79801c158.79911,27.47998 173.13763,247.91362 3.5151,260.40291c-118.72793,-9.8423 -145.7712,-104.44892 -111.18689,-177.41341c10.33097,6.08572 26.97024,11.69184 36.16083,3.21453c2.45687,-2.26617 2.45769,-6.4208 4.80317,-8.80206c5.78463,-5.87291 16.71309,-5.10004 15.86606,-16.86372c-0.10658,-1.48041 -1.05491,-2.68317 -2.07303,-3.86295c0.08562,-0.39689 0.13154,-0.8378 0.12783,-1.32759c-0.03687,-4.86956 -4.90643,-4.83267 -4.90643,-4.83267c-8.56241,0.19654 -12.51484,-6.92225 -17.57528,-12.31704c19.6834,-18.7119 45.11253,-32.64684 75.26864,-38.19798zM340.17665,420.84516l-2.26672,1.17101c-3.06488,2.21632 -5.79887,3.44239 -7.13543,5.48436c-2.91061,1.09466 -6.122,2.13073 -7.73165,1.8466c-6.32404,-1.11627 -5.31145,-12.88879 -15.72053,-8.37354c-8.00153,3.47088 -3.77266,7.9604 -4.5533,12.71026c-0.48165,2.93085 -6.05497,1.88732 -7.81565,4.27939c-1.84446,2.50584 -1.94985,5.99251 -2.07196,9.10159c-0.48209,12.27629 9.20037,10.6965 15.27262,16.96576c5.07167,5.23624 8.29929,9.36889 14.58556,13.64657c2.64977,-0.02007 5.42248,0.73768 7.94932,-0.0602c7.3141,-2.3095 6.04296,-8.93538 11.06705,-12.52608c6.75526,-4.82792 15.85062,-8.0015 14.40464,-19.02908c-0.90193,-6.87829 -12.03299,-11.1007 -14.15501,-13.75775c0.26684,-0.49586 0.45026,-1.07918 0.48058,-1.75942c0.14507,-0.07361 0.31065,-0.14534 0.49771,-0.21524l1.61414,-0.80632c0,0 4.339,-2.21073 2.12827,-6.54967c-2.21068,-4.33894 -6.54967,-2.12827 -6.54967,-2.12827zM134.73648,432.75777c-13.43036,3.99754 -7.34107,31.13381 3.22045,36.31494c2.60249,1.27668 14.4753,0.22904 15.93687,-1.74624c1.6375,-2.21309 -1.07512,-5.42054 -1.20714,-8.17046c-0.17369,-3.61892 4.28996,-6.56652 3.85349,-10.16319c-0.72559,-5.97956 -4.06834,-7.58919 -8.0437,-9.14042c-2.25417,-4.99787 -7.56545,-8.93845 -13.75996,-7.09464z" data-paper-data="{&quot;index&quot;:null}" fill="url(#color-51)"/></g><g><g stroke="#000000"><path d="M228.94385,349.99526c-102.27276,-8.31906 -108.43393,-39.75679 -124.24676,-99.64865c1.12451,-8.16329 15.15172,-19.00976 36.69132,-24.80199c22.7434,-6.11593 54.63546,-15.70201 91.81606,-12.86844c38.31404,2.91995 73.38365,17.72392 98.66523,26.63652c10.33293,3.64266 36.65845,17.7041 36.82842,33.98732c-25.89923,56.23417 -48.24676,84.13866 -139.75428,76.69531z" fill="url(#color-52)"/><path d="M141.38837,225.54455c22.7434,-6.11593 54.63546,-15.70201 91.81606,-12.86844c38.31404,2.91995 73.38365,17.72392 98.66523,26.63652c9.68404,3.41394 33.41525,15.97919 36.49743,30.94801c-5.26392,2.03777 -10.30821,5.4354 -12.8457,9.86043c-2.15687,3.76132 -1.76231,8.26984 -3.65231,11.89786c-2.10037,4.03176 -5.78508,7.29859 -7.62448,11.62752c-3.90147,9.18181 -5.67136,16.32321 -15.42622,20.8092c-4.48367,3.05875 -10.41141,5.1715 -14.50032,8.6552c-3.33688,2.84309 -4.91864,6.86768 -9.51268,8.48118c-8.1414,2.85935 -16.80165,3.32554 -24.95359,6.02703c-3.33421,1.10493 -6.41542,2.23725 -9.39057,3.11114c-5.08386,0.3298 -10.46788,0.47875 -16.18012,0.444c-1.72372,-0.57766 -3.49858,-1.40046 -5.35018,-2.51861c-15.27708,-7.95024 -27.82064,-4.33069 -43.80328,-5.02844c-2.26417,-0.09891 -3.96215,-2.25651 -6.10713,-2.98809c-7.68284,-2.62036 -20.76272,-3.05045 -31.2628,-1.58678c-8.77931,-2.98218 -16.08628,-6.48534 -22.24936,-10.52605c-1.51259,-6.33572 -2.45267,-13.36219 -4.45417,-17.27389c-8.14071,-5.34072 -9.56339,-18.92096 -14.98403,-26.78884c-1.8443,-2.67697 -9.32607,-5.05191 -9.11452,-9.43052c0.36191,-7.49055 1.75644,-10.45945 -0.8164,-18.20578c-1.25733,-3.78569 1.71316,-8.02724 0.90218,-11.93287c-0.4267,-2.05511 -2.55572,-3.33027 -3.83355,-4.9954c0,0 -0.26439,-0.30801 -0.7215,-0.63843c6.38453,-5.26688 16.37222,-10.34658 28.90195,-13.716z" fill="url(#color-53)"/></g><path d="M229.62369,318.70975c-76.57013,-6.23611 -80.27697,-41.65956 -92.05018,-87.36259c0.85115,-6.23301 59.08974,-21.31793 98.0478,-17.92254c38.958,3.39547 99.49511,22.71896 99.60418,35.14914c-19.4557,42.9575 -37.09146,75.71568 -105.60175,70.13597z" fill="url(#color-54)" stroke="#000000"/><g><path d="M187.10501,246.29821l0.34029,-4.46511l97.91358,7.46209l-0.34029,4.46511z" fill="url(#color-55)" stroke="none"/><path d="M217.47985,251.82098l10.50041,-137.78066l6.37869,0.48612l-10.50041,137.78066z" fill="url(#color-56)" stroke="none"/><path d="M248.73563,254.20303l10.50041,-137.78066l6.37872,0.48613l-10.50041,137.78066z" fill="url(#color-57)" stroke="none"/><g><path d="M178.49175,244.56364c0.27276,-3.57902 11.1409,-6.72761 11.1409,-6.72761c0,0 7.59903,14.81252 47.08109,22.11612c38.83434,-1.11783 45.79897,-15.55965 45.79897,-15.55965c0,0 12.56169,5.03529 12.25703,9.0328c-0.69434,9.11061 -26.32354,20.65616 -59.65498,18.11593c-33.33148,-2.54021 -57.31739,-17.86696 -56.62304,-26.97758z" fill="url(#color-58)" stroke="none"/><path d="M283.3762,254.44979c0,0 0.69027,-3.65014 1.08153,-6.49068c0.47046,-3.41567 0.66686,-10.84735 0.66686,-10.84735c0,0 3.38495,7.09527 4.20215,10.51528c0.73998,3.09682 1.2898,7.07161 1.2898,7.07161z" data-paper-data="{&quot;index&quot;:null}" fill="url(#color-59)" stroke="#000000"/><path d="M182.29589,246.44338c0,0 1.14578,-3.84557 2.34655,-6.79448c1.32607,-3.25666 5.74717,-9.75703 5.74717,-9.75703c0,0 -0.93205,7.3756 -0.98468,10.82321c-0.04378,2.86702 0.08543,6.57961 0.08543,6.57961z" data-paper-data="{&quot;index&quot;:null}" fill="url(#color-60)" stroke="#000000"/><path d="M277.00068,259.38229c0,0 0.69027,-3.65014 1.08152,-6.49064c0.47046,-3.41567 0.66686,-10.84737 0.66686,-10.84737c0,0 3.38498,7.09532 4.20218,10.51529c0.73997,3.09679 1.2898,7.07161 1.2898,7.07161z" data-paper-data="{&quot;index&quot;:null}" fill="url(#color-61)" stroke="#000000"/><path d="M187.85035,252.28508c0,0 1.14583,-3.84559 2.34659,-6.79447c1.32607,-3.25666 5.74717,-9.75705 5.74717,-9.75705c0,0 -0.93207,7.37566 -0.98469,10.82324c-0.04378,2.86702 0.08543,6.57961 0.08543,6.57961z" data-paper-data="{&quot;index&quot;:null}" fill="url(#color-62)" stroke="#000000"/><path d="M268.38746,263.06055c0,0 0.69026,-3.6502 1.08153,-6.49068c0.47048,-3.41572 0.66688,-10.84737 0.66688,-10.84737c0,0 3.38495,7.09527 4.20214,10.5153c0.73998,3.09682 1.2898,7.07161 1.2898,7.07161z" data-paper-data="{&quot;index&quot;:null}" fill="url(#color-63)" stroke="#000000"/><path d="M195.80658,257.22613c0,0 1.14583,-3.84559 2.34656,-6.79451c1.32607,-3.25666 5.7472,-9.75704 5.7472,-9.75704c0,0 -0.93205,7.3756 -0.98468,10.82321c-0.04378,2.86702 0.08543,6.57961 0.08543,6.57961z" data-paper-data="{&quot;index&quot;:null}" fill="url(#color-64)" stroke="#000000"/><path d="M259.52508,265.63614c0,0 0.69026,-3.6502 1.08153,-6.49068c0.47048,-3.41572 0.66686,-10.84735 0.66686,-10.84735c0,0 3.38498,7.09527 4.20218,10.51527c0.73998,3.09682 1.28981,7.07164 1.28981,7.07164z" data-paper-data="{&quot;index&quot;:null}" fill="url(#color-65)" stroke="#000000"/><path d="M204.17636,261.11498c0,0 1.14583,-3.84559 2.34656,-6.79451c1.32607,-3.25666 5.74717,-9.75703 5.74717,-9.75703c0,0 -0.93205,7.3756 -0.98468,10.82317c-0.04378,2.86702 0.08543,6.57961 0.08543,6.57961z" data-paper-data="{&quot;index&quot;:null}" fill="url(#color-66)" stroke="#000000"/><path d="M249.7342,267.27405c0,0 0.69029,-3.65019 1.08153,-6.49068c0.47048,-3.41572 0.66681,-10.84738 0.66681,-10.84738c0,0 3.38502,7.09524 4.20223,10.51523c0.73998,3.09682 1.28981,7.07164 1.28981,7.07164z" data-paper-data="{&quot;index&quot;:null}" fill="url(#color-67)" stroke="#000000"/><path d="M213.60593,264.21768c0,0 1.14579,-3.8456 2.34656,-6.79451c1.32607,-3.25666 5.74717,-9.75703 5.74717,-9.75703c0,0 -0.93205,7.3756 -0.98468,10.82317c-0.04378,2.86702 0.08543,6.57961 0.08543,6.57961z" data-paper-data="{&quot;index&quot;:null}" fill="url(#color-68)" stroke="#000000"/><path d="M239.69403,267.80927c0,0 0.69029,-3.65019 1.08152,-6.49064c0.47048,-3.41572 0.66681,-10.84738 0.66681,-10.84738c0,0 3.38498,7.09527 4.20218,10.51527c0.73998,3.09682 1.28981,7.07164 1.28981,7.07164z" data-paper-data="{&quot;index&quot;:null}" fill="url(#color-69)" stroke="#000000"/><path d="M223.44905,266.26823c0,0 1.14584,-3.84564 2.34656,-6.79451c1.32607,-3.25666 5.7472,-9.75702 5.7472,-9.75702c0,0 -0.93205,7.3756 -0.98468,10.82321c-0.04378,2.86702 0.08544,6.57957 0.08544,6.57957z" data-paper-data="{&quot;index&quot;:null}" fill="url(#color-70)" stroke="#000000"/></g></g><g data-paper-data="{&quot;index&quot;:null}"><path d="M327.35201,273.93462c0,0 1.65245,-11.06029 2.65082,-19.65557c1.20047,-10.33584 2.18251,-32.75747 2.18251,-32.75747c0,0 6.10212,21.12065 7.43853,31.36638c1.21012,9.27738 1.97534,21.21715 1.97534,21.21715z" data-paper-data="{&quot;index&quot;:null}" fill="url(#color-71)" stroke="#000000"/><path d="M344.82869,269.22953l-1.14012,14.9601c0,0 -4.10233,2.68012 -10.74275,2.01842c-6.90145,-0.68768 -9.82736,-3.58608 -9.82736,-3.58608l1.14012,-14.9601z" fill="url(#color-72)" stroke="none"/></g><g data-paper-data="{&quot;index&quot;:null}"><path d="M128.81403,257.88854c0,0 2.56577,-11.68596 5.16783,-20.67277c2.87369,-9.92483 12.10599,-29.87686 12.10599,-29.87686c0,0 -2.42713,22.31151 -2.80682,32.7099c-0.31574,8.64729 -0.35847,19.83026 -0.35847,19.83026z" data-paper-data="{&quot;index&quot;:null}" fill="url(#color-73)" stroke="#000000"/><path d="M146.93087,254.14753l-1.14012,14.9601c0,0 -3.33144,2.4215 -10.25731,2.05541c-6.66406,-0.35221 -10.31281,-3.62309 -10.31281,-3.62309l1.14012,-14.9601z" fill="url(#color-74)" stroke="none"/></g><g data-paper-data="{&quot;index&quot;:null}"><path d="M314.39411,289.31606c0,0 1.65242,-11.06025 2.65078,-19.65552c1.20047,-10.33584 2.18251,-32.75752 2.18251,-32.75752c0,0 6.10212,21.12065 7.43854,31.3664c1.21012,9.27738 1.97539,21.21716 1.97539,21.21716z" data-paper-data="{&quot;index&quot;:null}" fill="url(#color-75)" stroke="#000000"/><path d="M331.87076,284.61099l-1.14012,14.96014c0,0 -4.10232,2.68008 -10.7428,2.0184c-6.90145,-0.68768 -9.82736,-3.58606 -9.82736,-3.58606l1.14012,-14.96014z" fill="url(#color-76)" stroke="none"/></g><g data-paper-data="{&quot;index&quot;:null}"><path d="M139.29138,275.05604c0,0 2.56577,-11.68596 5.16783,-20.67277c2.87369,-9.92483 12.10599,-29.87689 12.10599,-29.87689c0,0 -2.42713,22.31156 -2.80682,32.70995c-0.31575,8.64732 -0.35842,19.83023 -0.35842,19.83023z" data-paper-data="{&quot;index&quot;:null}" fill="url(#color-77)" stroke="#000000"/><path d="M157.40826,271.31503l-1.14012,14.96014c0,0 -3.33144,2.4215 -10.25731,2.05538c-6.66406,-0.35221 -10.31281,-3.62305 -10.31281,-3.62305l1.14012,-14.96014z" fill="url(#color-78)" stroke="none"/></g><g data-paper-data="{&quot;index&quot;:null}"><path d="M297.12738,301.09541c0,0 1.65245,-11.06027 2.65079,-19.65556c1.20047,-10.33584 2.18251,-32.75752 2.18251,-32.75752c0,0 6.10218,21.12065 7.43862,31.36638c1.21012,9.27738 1.97534,21.21715 1.97534,21.21715z" data-paper-data="{&quot;index&quot;:null}" fill="url(#color-79)" stroke="#000000"/><path d="M314.60408,296.39033l-1.14012,14.96006c0,0 -4.10233,2.68012 -10.74275,2.01842c-6.90145,-0.68768 -9.82736,-3.58608 -9.82736,-3.58608l1.14012,-14.96006z" fill="url(#color-80)" stroke="none"/></g><g data-paper-data="{&quot;index&quot;:null}"><path d="M154.5736,289.31589c0,0 2.56582,-11.68595 5.16788,-20.67277c2.87369,-9.92483 12.10596,-29.87686 12.10596,-29.87686c0,0 -2.42713,22.31156 -2.80682,32.70995c-0.31575,8.64732 -0.35844,19.83027 -0.35844,19.83027z" data-paper-data="{&quot;index&quot;:null}" fill="url(#color-81)" stroke="#000000"/><path d="M172.69051,285.57497l-1.14012,14.96006c0,0 -3.33143,2.42154 -10.25731,2.05541c-6.66406,-0.35221 -10.31281,-3.62309 -10.31281,-3.62309l1.14012,-14.96006z" fill="url(#color-82)" stroke="none"/></g><g data-paper-data="{&quot;index&quot;:null}"><path d="M279.45775,309.57016c0,0 1.65242,-11.06025 2.65078,-19.65552c1.20053,-10.33584 2.18251,-32.75752 2.18251,-32.75752c0,0 6.10214,21.12065 7.43858,31.3664c1.21012,9.27738 1.97534,21.21715 1.97534,21.21715z" data-paper-data="{&quot;index&quot;:null}" fill="url(#color-83)" stroke="#000000"/><path d="M296.93441,304.8651l-1.14012,14.9601c0,0 -4.10232,2.68008 -10.7428,2.0184c-6.90145,-0.68768 -9.82736,-3.58606 -9.82736,-3.58606l1.14012,-14.9601z" fill="url(#color-84)" stroke="none"/></g><g data-paper-data="{&quot;index&quot;:null}"><path d="M170.75492,300.37053c0,0 2.56582,-11.68595 5.16788,-20.67277c2.87369,-9.92483 12.10599,-29.87689 12.10599,-29.87689c0,0 -2.42717,22.31155 -2.80682,32.70995c-0.31575,8.64732 -0.35842,19.83023 -0.35842,19.83023z" data-paper-data="{&quot;index&quot;:null}" fill="url(#color-85)" stroke="#000000"/><path d="M188.87178,296.62956l-1.14012,14.9601c0,0 -3.3314,2.42151 -10.25726,2.05538c-6.66406,-0.35221 -10.31281,-3.62305 -10.31281,-3.62305l1.14012,-14.9601z" fill="url(#color-86)" stroke="none"/></g><g data-paper-data="{&quot;index&quot;:null}"><path d="M260.03359,315.29225c0,0 1.65245,-11.06029 2.65079,-19.65556c1.20053,-10.33584 2.18251,-32.75752 2.18251,-32.75752c0,0 6.10214,21.12065 7.43858,31.3664c1.21016,9.27738 1.97534,21.21715 1.97534,21.21715z" data-paper-data="{&quot;index&quot;:null}" fill="url(#color-87)" stroke="#000000"/><path d="M277.51026,310.58715l-1.14012,14.9601c0,0 -4.10233,2.68012 -10.74275,2.0184c-6.90145,-0.68768 -9.82736,-3.58606 -9.82736,-3.58606l1.14012,-14.9601z" fill="url(#color-88)" stroke="none"/></g><g data-paper-data="{&quot;index&quot;:null}"><path d="M189.08759,308.97003c0,0 2.56574,-11.68595 5.16783,-20.67277c2.87369,-9.92483 12.10599,-29.87689 12.10599,-29.87689c0,0 -2.42713,22.31156 -2.80682,32.70995c-0.31575,8.64732 -0.35844,19.83027 -0.35844,19.83027z" data-paper-data="{&quot;index&quot;:null}" fill="url(#color-89)" stroke="#000000"/><path d="M207.20447,305.22907l-1.14012,14.9601c0,0 -3.33144,2.4215 -10.25731,2.05538c-6.66406,-0.35221 -10.31281,-3.62305 -10.31281,-3.62305l1.14012,-14.9601z" fill="url(#color-90)" stroke="none"/></g><g data-paper-data="{&quot;index&quot;:null}"><path d="M240.20651,317.7097c0,0 1.65248,-11.06027 2.65081,-19.65552c1.20053,-10.33584 2.18251,-32.75752 2.18251,-32.75752c0,0 6.10214,21.12065 7.43858,31.3664c1.21016,9.27738 1.97539,21.21716 1.97539,21.21716z" data-paper-data="{&quot;index&quot;:null}" fill="url(#color-91)" stroke="#000000"/><path d="M257.6832,313.00469l-1.14012,14.96014c0,0 -4.10232,2.68008 -10.74275,2.0184c-6.90145,-0.68768 -9.82736,-3.58606 -9.82736,-3.58606l1.14012,-14.96014z" fill="url(#color-92)" stroke="none"/></g><g data-paper-data="{&quot;index&quot;:null}"><path d="M208.31931,314.36425c0,0 2.56577,-11.68596 5.16788,-20.67277c2.87369,-9.92483 12.10595,-29.87689 12.10595,-29.87689c0,0 -2.42713,22.31156 -2.80682,32.70995c-0.31575,8.64732 -0.35847,19.83021 -0.35847,19.83021z" data-paper-data="{&quot;index&quot;:null}" fill="url(#color-93)" stroke="#000000"/><path d="M226.43619,310.62333l-1.14012,14.96014c0,0 -3.33144,2.4215 -10.25731,2.05538c-6.66406,-0.35221 -10.31281,-3.62305 -10.31281,-3.62305l1.14012,-14.96014z" fill="url(#color-94)" stroke="none"/></g></g><g><g><g><path d="M127.90762,134.92231c0,0 -1.65245,11.06027 -2.65082,19.65557c-1.20053,10.33584 -2.18251,32.75747 -2.18251,32.75747c0,0 -6.10206,-21.12064 -7.43853,-31.36638c-1.21016,-9.27738 -1.97539,-21.21716 -1.97539,-21.21716z" data-paper-data="{&quot;index&quot;:null}" fill="url(#color-95)" stroke="#000000"/><path d="M110.43097,139.6274l1.14012,-14.96006l20.57016,1.56767l-1.14012,14.96006z" fill="url(#color-96)" stroke="none"/></g><g data-paper-data="{&quot;index&quot;:null}"><path d="M378.4886,156.2442c0,0 -2.56578,11.68592 -5.1679,20.67274c-2.87372,9.92483 -12.10599,29.87689 -12.10599,29.87689c0,0 2.42713,-22.31159 2.80683,-32.70997c0.31575,-8.64732 0.3585,-19.83026 0.3585,-19.83026z" data-paper-data="{&quot;index&quot;:null}" fill="url(#color-97)" stroke="#000000"/><path d="M360.37171,159.98513l1.14012,-14.9601l20.57016,1.56767l-1.14012,14.9601z" fill="url(#color-98)" stroke="none"/></g><g><path d="M143.64294,145.78325c0,0 -1.65245,11.06027 -2.65082,19.65557c-1.20053,10.33584 -2.18251,32.75747 -2.18251,32.75747c0,0 -6.10214,-21.12065 -7.43858,-31.36638c-1.21016,-9.27738 -1.97534,-21.21715 -1.97534,-21.21715z" data-paper-data="{&quot;index&quot;:null}" fill="url(#color-99)" stroke="#000000"/><path d="M126.16624,150.48835l1.14012,-14.9601l20.57016,1.56767l-1.14012,14.9601z" fill="url(#color-100)" stroke="none"/></g><g data-paper-data="{&quot;index&quot;:null}"><path d="M361.28912,164.59515c0,0 -2.56577,11.68596 -5.16783,20.67277c-2.87372,9.92483 -12.10599,29.87686 -12.10599,29.87686c0,0 2.42713,-22.31151 2.80682,-32.7099c0.31575,-8.64732 0.35847,-19.83026 0.35847,-19.83026z" data-paper-data="{&quot;index&quot;:null}" fill="url(#color-101)" stroke="#000000"/><path d="M343.17227,168.33616l1.14012,-14.96014l20.57016,1.56767l-1.14012,14.96014z" fill="url(#color-102)" stroke="none"/></g><g><path d="M162.35629,159.8264c0,0 -1.65242,11.06025 -2.65078,19.65552c-1.20053,10.33584 -2.18252,32.75756 -2.18252,32.75756c0,0 -6.10213,-21.12068 -7.43858,-31.3664c-1.21016,-9.27738 -1.97534,-21.21715 -1.97534,-21.21715z" data-paper-data="{&quot;index&quot;:null}" fill="url(#color-103)" stroke="#000000"/><path d="M144.87958,164.53147l1.14012,-14.96014l20.57016,1.56767l-1.14012,14.96014z" fill="url(#color-104)" stroke="none"/></g><g data-paper-data="{&quot;index&quot;:null}"><path d="M340.76297,174.33827c0,0 -2.56577,11.68596 -5.16783,20.67277c-2.87372,9.92483 -12.10599,29.87689 -12.10599,29.87689c0,0 2.42713,-22.31159 2.80683,-32.70997c0.31575,-8.64732 0.35847,-19.83021 0.35847,-19.83021z" data-paper-data="{&quot;index&quot;:null}" fill="url(#color-105)" stroke="#000000"/><path d="M322.64617,178.07924l1.14012,-14.96014l20.57016,1.56767l-1.14012,14.96014z" fill="url(#color-106)" stroke="none"/></g><path d="M396.15242,131.02399c-3.32068,22.79512 -34.41128,27.29994 -46.55693,30.41895c-29.71686,7.63134 -70.56515,10.573 -113.56417,7.29601c-41.72697,-3.18006 -75.88435,-13.86753 -99.89874,-26.81681c-22.74344,-12.26394 -36.46845,-26.56257 -36.14356,-38.22315c29.03611,-80.92184 31.19297,-138.90152 158.15481,-133.73902c122.33643,16.85711 120.13999,77.24567 138.00859,161.06399z" fill="url(#color-107)" stroke="#000000"/><path d="M388.93608,134.34428c-3.2472,22.80073 -27.24666,31.77718 -38.83943,34.93832c-28.36424,7.73443 -72.27427,16.73262 -113.26545,13.60866c-39.77853,-3.03157 -74.93569,-18.51266 -97.7894,-31.37346c-21.64412,-12.18016 -32.89307,-30.22127 -32.54201,-41.87992c27.97441,-81.00276 12.95671,28.74958 134.00603,33.46152c116.59729,16.41973 131.68788,-92.48766 148.43031,-8.75517z" fill="url(#color-108)" stroke="#000000"/><path d="M236.03132,168.73896c-7.70108,-0.5869 -15.14433,-1.42953 -22.31354,-2.49492c-7.73661,-9.19274 -15.1961,-17.93322 -24.62293,-26.19397c-5.98628,-4.05025 -5.77641,-5.35959 -13.28136,-4.83692c-2.8898,0.20129 -6.45671,4.04701 -8.4662,1.96059c-3.33421,-3.46188 -5.44524,-12.93423 -10.38921,-15.34671c-9.93012,-4.84548 -13.10289,7.41795 -22.14651,-1.57458c-0.90319,-0.89806 0.41897,-2.60068 0.05303,-3.82061c-0.68711,-2.29087 -5.42658,-11.06689 -7.50343,-12.33449c-8.2116,-5.01188 -18.33693,0.86815 -25.4336,4.42279c0,0 -1.40118,0.70183 -2.16459,2.10405c-0.10493,-0.76206 -0.14747,-1.53156 -0.12574,-2.30985c29.03611,-80.92181 31.54471,-143.51694 158.50656,-138.35441c31.08723,4.28361 54.13301,11.37815 71.50993,20.95384c-1.66858,2.97098 -3.37599,5.89322 -4.03497,9.25988c-0.78586,4.01458 2.73955,7.54834 -2.11757,9.43598c-1.9602,0.76179 -3.76385,-1.88925 -5.71852,-2.6651c-3.01991,-1.19867 -7.10357,1.38633 -9.73332,-0.52182c-1.99657,-1.44876 -2.16397,-5.25829 -4.56481,-5.8248c-3.58791,-0.84663 -12.84138,5.18781 -17.35227,2.92636c-2.44138,-1.22388 -3.84934,-4.96099 -6.57924,-4.88242c-9.12289,0.26259 -6.83368,9.05581 -15.05306,9.71103c-2.22571,1.978 -5.13184,3.38874 -6.67706,5.93402c-1.51954,2.50302 0.24749,5.98407 -0.69271,8.75721c-0.72505,2.1387 -2.64268,-3.7553 -3.30417,-5.91458c-1.59489,-5.20661 -2.3229,-9.34054 -7.77516,-12.44173c-0.39152,-0.2227 -0.77399,-0.4023 -1.14906,-0.54599c0.21306,-1.74149 -0.75051,-3.25329 -0.75051,-3.25329c-2.30131,-3.27683 -5.97446,-5.46088 -9.51274,-7.33556c-3.28576,-1.74087 -5.00573,-6.09747 -8.57715,-7.13262c-9.19059,-2.66379 -18.53655,5.38027 -24.89262,10.85025c-11.52749,2.5194 -10.21996,16.09454 -18.28289,22.41941c-3.50915,3.98738 -11.00985,10.28738 -10.58673,16.25433c0.67791,9.56084 11.23068,7.5815 12.18394,16.67181c0.39184,3.73636 -2.50335,8.96417 0.02466,12.38313c5.35764,7.24576 15.86482,0.22098 21.39051,4.67761c5.10867,4.12028 5.20271,12.48225 14.54098,12.09903c3.88125,-0.15926 13.32333,-9.23336 15.60262,-12.28558c1.50038,-2.00917 1.76196,-5.22811 3.99096,-6.37686c4.39044,-1.622 8.8082,-5.15323 10.23773,-9.61006c0.35597,-1.10987 -0.9794,-2.42918 -0.45008,-3.46765c0.52469,-1.02949 4.37251,-1.49753 3.27583,-1.13356c-2.83112,0.93952 -2.83038,8.19215 -2.73197,8.48213c2.60304,7.67401 5.77526,4.43326 10.19026,7.96242c5.37664,4.29774 4.45169,16.11824 11.60878,19.92112c9.08743,4.8285 12.39057,-2.63706 18.4225,-6.042c3.61098,-2.03836 10.83344,0.55347 14.50364,-0.48124c4.83796,-1.36383 6.65359,-4.22955 9.61572,-7.60985c3.5954,-2.40357 6.94352,-5.9012 8.23003,-10.03033c0.93146,-2.98961 -0.80528,-6.51282 0.44553,-9.38349c1.11729,-2.56418 9.24112,-3.03754 9.42612,-3.12268c2.75076,-1.26587 5.46983,-2.93805 7.39617,-5.27432c2.96922,-3.6011 3.54056,-11.02936 6.42176,-15.1709c3.62338,-5.20846 7.10003,-10.24743 10.74452,-15.09105c22.62295,26.33794 27.64417,62.39089 36.16706,105.22496c-5.31108,3.23425 -10.43684,3.99444 -15.89869,7.16815c-1.50093,0.87214 -3.0733,4.45267 -4.17586,3.11192c-4.66495,-5.6731 -1.25856,-14.98537 -14.24465,-8.64829c-4.18023,2.03991 -7.36146,14.52484 -6.73861,18.55796c0.42078,2.72448 4.58661,4.85331 3.62121,7.43561c-1.27078,3.39922 -4.83406,5.62484 -6.07295,9.03588c-1.11382,3.06674 -1.62087,4.98669 -1.89863,6.86561c-29.58657,7.3552 -69.80116,10.14863 -112.09675,6.92525z" fill="url(#color-109)" stroke="#000000"/><path d="M236.21376,29.2522c-0.93031,12.20689 -11.31263,21.36873 -23.18965,20.46358c-11.87702,-0.90516 -20.75103,-11.53459 -19.82073,-23.74143c0.93031,-12.20689 11.31263,-21.36873 23.18965,-20.46358c11.87702,0.90516 20.75103,11.53459 19.82073,23.74143z" fill="url(#color-110)" stroke="none"/><path d="M311.93933,35.02331c-0.93031,12.20689 -11.31258,21.36873 -23.1896,20.46358c-11.87702,-0.90516 -20.75103,-11.53459 -19.82073,-23.74143c0.93031,-12.20689 11.31263,-21.36873 23.18965,-20.46358c11.87702,0.90516 20.751,11.53458 19.8207,23.74143z" fill="url(#color-111)" stroke="none"/><g stroke="none"><path d="M226.49734,28.5117c-0.50998,6.69158 -6.20136,11.71395 -12.71211,11.21776c-6.51071,-0.4962 -11.37531,-6.32304 -10.86534,-13.01461c0.50998,-6.69158 6.20136,-11.71395 12.71211,-11.21776c6.51071,0.4962 11.37531,6.32304 10.86534,13.01461z" fill="url(#color-112)"/><path d="M221.48052,28.12936c-0.29296,3.84393 -3.56228,6.72901 -7.30234,6.44399c-3.74002,-0.28503 -6.53443,-3.63223 -6.24147,-7.47616c0.29296,-3.84393 3.56228,-6.72899 7.30234,-6.44393c3.74002,0.28503 6.53443,3.63218 6.24147,7.47612z" fill="#ffffff"/></g><g stroke="none"><path d="M302.22286,34.28281c-0.50998,6.69158 -6.20132,11.71396 -12.71208,11.21775c-6.51071,-0.4962 -11.37531,-6.32304 -10.86534,-13.01461c0.50998,-6.69158 6.20136,-11.71395 12.71211,-11.21776c6.51071,0.4962 11.37528,6.32305 10.86529,13.0146z" fill="url(#color-113)"/><path d="M297.20608,33.90049c-0.29296,3.84393 -3.56228,6.72901 -7.30234,6.44399c-3.74002,-0.28503 -6.53443,-3.63223 -6.24147,-7.47616c0.29296,-3.84393 3.56228,-6.72899 7.30234,-6.44393c3.74002,0.28503 6.53443,3.63218 6.24147,7.47612z" fill="#ffffff"/></g></g><g><g><path d="M173.47854,168.53112c0,0 -1.65245,11.06027 -2.65082,19.65557c-1.20053,10.33584 -2.18251,32.75752 -2.18251,32.75752c0,0 -6.10211,-21.12068 -7.43854,-31.3664c-1.21016,-9.27738 -1.97534,-21.21715 -1.97534,-21.21715z" data-paper-data="{&quot;index&quot;:null}" fill="url(#color-114)" stroke="#000000"/><path d="M156.00187,173.23622l1.14012,-14.9601l20.57011,1.56767l-1.14012,14.9601z" fill="url(#color-115)" stroke="none"/></g><g data-paper-data="{&quot;index&quot;:null}"><path d="M323.89317,180.90971c0,0 -2.56577,11.68596 -5.16788,20.67277c-2.87372,9.92483 -12.10599,29.87689 -12.10599,29.87689c0,0 2.42713,-22.31156 2.80682,-32.70995c0.31575,-8.64732 0.35847,-19.83026 0.35847,-19.83026z" data-paper-data="{&quot;index&quot;:null}" fill="url(#color-116)" stroke="#000000"/><path d="M305.77629,184.65068l1.14012,-14.9601l20.57016,1.56767l-1.14012,14.9601z" fill="url(#color-117)" stroke="none"/></g><g><path d="M186.80186,174.12982c0,0 -1.65242,11.06029 -2.65075,19.65557c-1.20053,10.33584 -2.18251,32.75747 -2.18251,32.75747c0,0 -6.10214,-21.12065 -7.43858,-31.36638c-1.21016,-9.27738 -1.97539,-21.21716 -1.97539,-21.21716z" data-paper-data="{&quot;index&quot;:null}" fill="url(#color-118)" stroke="#000000"/><path d="M169.32521,178.8349l1.14012,-14.96006l20.57016,1.56767l-1.14012,14.96006z" fill="url(#color-119)" stroke="none"/></g><g data-paper-data="{&quot;index&quot;:null}"><path d="M309.87524,184.42472c0,0 -2.56582,11.68595 -5.16788,20.67277c-2.87372,9.92483 -12.10596,29.87686 -12.10596,29.87686c0,0 2.42713,-22.31151 2.80682,-32.7099c0.31575,-8.64732 0.35844,-19.83027 0.35844,-19.83027z" data-paper-data="{&quot;index&quot;:null}" fill="url(#color-120)" stroke="#000000"/><path d="M291.75848,188.16566l1.14012,-14.96006l20.57016,1.56767l-1.14012,14.96006z" fill="url(#color-121)" stroke="none"/></g><g><path d="M200.59734,182.12367c0,0 -1.65242,11.06025 -2.65075,19.65557c-1.20053,10.33584 -2.18251,32.75752 -2.18251,32.75752c0,0 -6.10214,-21.12065 -7.43858,-31.36638c-1.21016,-9.27738 -1.97539,-21.21716 -1.97539,-21.21716z" data-paper-data="{&quot;index&quot;:null}" fill="url(#color-122)" stroke="#000000"/><path d="M183.1207,186.82878l1.14012,-14.96014l20.57016,1.56767l-1.14012,14.96014z" fill="url(#color-123)" stroke="none"/></g><g data-paper-data="{&quot;index&quot;:null}"><path d="M295.02773,190.23562c0,0 -2.56577,11.68596 -5.16783,20.67277c-2.87369,9.92483 -12.10604,29.87686 -12.10604,29.87686c0,0 2.42713,-22.31156 2.80682,-32.70995c0.3157,-8.64733 0.3585,-19.83026 0.3585,-19.83026z" data-paper-data="{&quot;index&quot;:null}" fill="url(#color-124)" stroke="#000000"/><path d="M276.91088,193.97663l1.14012,-14.96014l20.57016,1.56767l-1.14012,14.96014z" fill="url(#color-125)" stroke="none"/></g><g><path d="M217.04905,186.0796c0,0 -1.65245,11.06027 -2.65078,19.65552c-1.20053,10.33584 -2.18251,32.75752 -2.18251,32.75752c0,0 -6.10214,-21.12065 -7.43862,-31.36638c-1.21016,-9.27738 -1.97534,-21.21715 -1.97534,-21.21715z" data-paper-data="{&quot;index&quot;:null}" fill="url(#color-126)" stroke="#000000"/><path d="M199.57241,190.78465l1.14012,-14.9601l20.57016,1.56767l-1.14012,14.9601z" fill="url(#color-127)" stroke="none"/></g><g data-paper-data="{&quot;index&quot;:null}"><path d="M278.16653,191.65275c0,0 -2.56577,11.68596 -5.16788,20.67277c-2.87369,9.92483 -12.10599,29.87686 -12.10599,29.87686c0,0 2.42713,-22.31156 2.80682,-32.70995c0.3157,-8.64733 0.35847,-19.83021 0.35847,-19.83021z" data-paper-data="{&quot;index&quot;:null}" fill="url(#color-128)" stroke="#000000"/><path d="M260.04973,195.39369l1.14012,-14.9601l20.57016,1.56767l-1.14012,14.9601z" fill="url(#color-129)" stroke="none"/></g><g data-paper-data="{&quot;index&quot;:null}"><path d="M260.34206,193.56813c0,0 -2.56577,11.68596 -5.16788,20.67277c-2.87369,9.92483 -12.10596,29.87686 -12.10596,29.87686c0,0 2.42713,-22.31156 2.80682,-32.70995c0.3157,-8.64733 0.35847,-19.83026 0.35847,-19.83026z" data-paper-data="{&quot;index&quot;:null}" fill="url(#color-130)" stroke="#000000"/><path d="M242.22518,197.30906l1.14012,-14.9601l20.57016,1.56767l-1.14012,14.9601z" fill="url(#color-131)" stroke="none"/></g><g data-paper-data="{&quot;index&quot;:null}"><path d="M235.66529,190.11737c0,0 -1.65245,11.06027 -2.65079,19.65556c-1.20053,10.33584 -2.18251,32.75747 -2.18251,32.75747c0,0 -6.10212,-21.12065 -7.43853,-31.36638c-1.21016,-9.27738 -1.97543,-21.21717 -1.97543,-21.21717z" data-paper-data="{&quot;index&quot;:null}" fill="url(#color-132)" stroke="#000000"/><path d="M218.18856,194.82246l1.14012,-14.96014l20.57016,1.56767l-1.14012,14.96014z" fill="url(#color-133)" stroke="none"/></g><g><path d="M329.1479,171.3989c-1.7887,11.23531 -49.91478,26.81683 -93.39128,22.55425c-49.85526,-4.88802 -81.2113,-31.6653 -81.10456,-37.42254c16.49706,-39.7602 8.26518,14.32731 82.99692,17.79587c72.0952,9.21147 80.38004,-44.45782 91.49895,-2.92763z" fill="url(#color-134)" stroke="#000000"/><g><path d="M238.99742,184.22685c0,0 -96.7198,1.74146 -93.34688,-65.36617c3.47384,-69.11548 57.08913,-61.64086 103.23389,-58.02241c57.09792,3.81814 96.04594,11.63916 92.59083,74.86516c-3.39542,62.13307 -102.47786,48.52343 -102.47786,48.52343z" fill="url(#color-135)" stroke="#000000"/><g><path d="M145.65055,118.86067c3.47384,-69.11548 57.08913,-61.64086 103.23389,-58.02241c57.09792,3.81814 96.04594,11.63916 92.59083,74.86516c-0.41553,7.60392 -2.26421,14.07344 -5.18895,19.57231c-2.00256,-1.9629 -4.90067,-0.77984 -4.90067,-0.77984c-8.86443,3.63121 -16.5067,2.06261 -25.94616,4.4653c-3.04539,0.77519 -5.99877,-3.19128 -9.07553,-2.55187c-3.82776,0.79541 -6.1775,4.92663 -9.74405,6.52807c-3.81918,1.71493 -7.48058,5.20689 -11.63877,4.72047c-1.88655,-0.22067 -3.34181,-2.341 -5.2386,-2.24199c-7.01283,0.36596 -6.1438,3.36616 -10.8633,6.22307c-5.93082,3.59015 -9.36162,4.61307 -16.16554,4.08137c-5.46474,-0.41648 -12.78748,-2.29961 -18.0458,-1.91377c-2.27132,0.16665 -4.72165,3.37342 -7.28797,1.6178c-1.77002,-1.21086 -2.70397,-3.70635 -4.75449,-4.33442c-4.03946,-1.23719 -8.17833,1.69801 -12.2444,0.83908c-4.36225,-0.92143 -9.90413,-2.35219 -14.35848,-3.52927c-4.44845,-1.17554 -6.94749,-5.69138 -10.61421,-7.82825c-5.38867,-3.14026 -10.41411,-2.70954 -15.95784,-2.51042c-8.96151,-9.34099 -14.66376,-22.01252 -13.79987,-39.20049z" fill="url(#color-136)" stroke="#000000"/><path d="M173.33115,109.57465c3.58745,0.27342 6.11882,5.43889 5.65404,11.53755c-0.46478,6.0986 -3.74973,10.82087 -7.33718,10.54748c-3.58745,-0.27342 -6.11882,-5.43889 -5.65404,-11.53755c0.46478,-6.0986 3.74973,-10.82087 7.33718,-10.54748z" data-paper-data="{&quot;index&quot;:null}" fill="url(#color-137)" stroke="none"/><path d="M323.83725,132.15152c-0.46478,6.0986 -3.74973,10.82087 -7.33718,10.54748c-3.58745,-0.27342 -6.11882,-5.43889 -5.65404,-11.53755c0.46478,-6.0986 3.74968,-10.82087 7.33718,-10.54748c3.58745,0.27342 6.11882,5.43889 5.65404,11.53755z" data-paper-data="{&quot;index&quot;:null}" fill="url(#color-138)" stroke="none"/></g></g></g></g></g></g></g></svg>