<svg version="1.1" xmlns="http://www.w3.org/2000/svg" xmlns:xlink="http://www.w3.org/1999/xlink" width="74.81843" height="89.75" viewBox="0,0,74.81843,89.75"><defs><linearGradient x1="298.79192" y1="235.43382" x2="295.86871" y2="235.59311" gradientUnits="userSpaceOnUse" id="color-1"><stop offset="0" stop-color="#b5b5b5"/><stop offset="1" stop-color="#848484"/></linearGradient><linearGradient x1="304.48421" y1="218.19547" x2="302.25701" y2="218.31683" gradientUnits="userSpaceOnUse" id="color-2"><stop offset="0" stop-color="#b5b5b5"/><stop offset="1" stop-color="#848484"/></linearGradient><linearGradient x1="304.48421" y1="218.19547" x2="302.25701" y2="218.31683" gradientUnits="userSpaceOnUse" id="color-3"><stop offset="0" stop-color="#b5b5b5"/><stop offset="1" stop-color="#848484"/></linearGradient><linearGradient x1="290.80881" y1="219.17336" x2="288.5816" y2="219.29472" gradientUnits="userSpaceOnUse" id="color-4"><stop offset="0" stop-color="#b5b5b5"/><stop offset="1" stop-color="#848484"/></linearGradient><linearGradient x1="290.80881" y1="219.17336" x2="288.5816" y2="219.29472" gradientUnits="userSpaceOnUse" id="color-5"><stop offset="0" stop-color="#b5b5b5"/><stop offset="1" stop-color="#848484"/></linearGradient><linearGradient x1="297.08781" y1="202.02662" x2="294.16461" y2="202.18592" gradientUnits="userSpaceOnUse" id="color-6"><stop offset="0" stop-color="#b5b5b5"/><stop offset="1" stop-color="#848484"/></linearGradient><linearGradient x1="294.61303" y1="219.06786" x2="291.46652" y2="219.23932" gradientUnits="userSpaceOnUse" id="color-7"><stop offset="0" stop-color="#848484"/><stop offset="1" stop-color="#5b5b5b"/></linearGradient><linearGradient x1="294.61303" y1="219.06786" x2="291.46652" y2="219.23932" gradientUnits="userSpaceOnUse" id="color-8"><stop offset="0" stop-color="#848484"/><stop offset="1" stop-color="#5b5b5b"/></linearGradient><linearGradient x1="301.41355" y1="218.69728" x2="298.26704" y2="218.86874" gradientUnits="userSpaceOnUse" id="color-9"><stop offset="0" stop-color="#848484"/><stop offset="1" stop-color="#5b5b5b"/></linearGradient><linearGradient x1="301.41355" y1="218.69728" x2="298.26704" y2="218.86874" gradientUnits="userSpaceOnUse" id="color-10"><stop offset="0" stop-color="#848484"/><stop offset="1" stop-color="#5b5b5b"/></linearGradient><linearGradient x1="297.30108" y1="233.83533" x2="297.21258" y2="232.21133" gradientUnits="userSpaceOnUse" id="color-11"><stop offset="0" stop-color="#848484"/><stop offset="1" stop-color="#b5b5b5"/></linearGradient><linearGradient x1="295.7795" y1="203.77761" x2="295.868" y2="205.40165" gradientUnits="userSpaceOnUse" id="color-12"><stop offset="0" stop-color="#b5b5b5"/><stop offset="1" stop-color="#848484"/></linearGradient><linearGradient x1="295.41162" y1="197.24157" x2="297.75521" y2="240.24918" gradientUnits="userSpaceOnUse" id="color-13"><stop offset="0" stop-color="#d42727"/><stop offset="1" stop-color="#a02020"/></linearGradient><linearGradient x1="295.41162" y1="197.24157" x2="297.75521" y2="240.24918" gradientUnits="userSpaceOnUse" id="color-14"><stop offset="0" stop-color="#d42727"/><stop offset="1" stop-color="#a02020"/></linearGradient><radialGradient cx="300.05742" cy="238.44838" r="4.78508" gradientUnits="userSpaceOnUse" id="color-15"><stop offset="0" stop-color="#8d8d8d"/><stop offset="1" stop-color="#484848"/></radialGradient><radialGradient cx="300.45081" cy="208.86703" r="18.66636" gradientUnits="userSpaceOnUse" id="color-16"><stop offset="0" stop-color="#79a2c1"/><stop offset="1" stop-color="#5984a2"/></radialGradient><radialGradient cx="300.45081" cy="208.86703" r="18.66636" gradientUnits="userSpaceOnUse" id="color-17"><stop offset="0" stop-color="#79a2c1"/><stop offset="1" stop-color="#5984a2"/></radialGradient><radialGradient cx="300.45081" cy="208.86703" r="18.66636" gradientUnits="userSpaceOnUse" id="color-18"><stop offset="0" stop-color="#79a2c1"/><stop offset="1" stop-color="#5984a2"/></radialGradient><radialGradient cx="300.45081" cy="208.86703" r="18.66636" gradientUnits="userSpaceOnUse" id="color-19"><stop offset="0" stop-color="#79a2c1"/><stop offset="1" stop-color="#5984a2"/></radialGradient><radialGradient cx="300.60727" cy="209.41611" r="18.66965" gradientUnits="userSpaceOnUse" id="color-20"><stop offset="0" stop-color="#c24a4a"/><stop offset="1" stop-color="#a33939"/></radialGradient><radialGradient cx="300.60727" cy="209.41611" r="18.66965" gradientUnits="userSpaceOnUse" id="color-21"><stop offset="0" stop-color="#c24a4a"/><stop offset="1" stop-color="#a33939"/></radialGradient><radialGradient cx="300.60727" cy="209.41611" r="18.66965" gradientUnits="userSpaceOnUse" id="color-22"><stop offset="0" stop-color="#c24a4a"/><stop offset="1" stop-color="#a33939"/></radialGradient><radialGradient cx="300.60727" cy="209.41611" r="18.66965" gradientUnits="userSpaceOnUse" id="color-23"><stop offset="0" stop-color="#c24a4a"/><stop offset="1" stop-color="#a33939"/></radialGradient><radialGradient cx="300.60727" cy="209.41611" r="18.66965" gradientUnits="userSpaceOnUse" id="color-24"><stop offset="0" stop-color="#c24a4a"/><stop offset="1" stop-color="#a33939"/></radialGradient><radialGradient cx="300.60727" cy="209.41611" r="18.66965" gradientUnits="userSpaceOnUse" id="color-25"><stop offset="0" stop-color="#c24a4a"/><stop offset="1" stop-color="#a33939"/></radialGradient><linearGradient x1="182.09743" y1="201.79597" x2="185.0221" y2="201.92545" gradientUnits="userSpaceOnUse" id="color-26"><stop offset="0" stop-color="#b5b5b5"/><stop offset="1" stop-color="#848484"/></linearGradient><linearGradient x1="183.42353" y1="203.53352" x2="183.35159" y2="205.15836" gradientUnits="userSpaceOnUse" id="color-27"><stop offset="0" stop-color="#b5b5b5"/><stop offset="1" stop-color="#848484"/></linearGradient><linearGradient x1="180.73404" y1="235.2187" x2="183.65872" y2="235.34818" gradientUnits="userSpaceOnUse" id="color-28"><stop offset="0" stop-color="#b5b5b5"/><stop offset="1" stop-color="#848484"/></linearGradient><linearGradient x1="174.86628" y1="218.03933" x2="177.0946" y2="218.13798" gradientUnits="userSpaceOnUse" id="color-29"><stop offset="0" stop-color="#b5b5b5"/><stop offset="1" stop-color="#848484"/></linearGradient><linearGradient x1="188.55094" y1="218.87775" x2="190.77927" y2="218.9764" gradientUnits="userSpaceOnUse" id="color-30"><stop offset="0" stop-color="#b5b5b5"/><stop offset="1" stop-color="#848484"/></linearGradient><linearGradient x1="184.74584" y1="218.81102" x2="187.89394" y2="218.95039" gradientUnits="userSpaceOnUse" id="color-31"><stop offset="0" stop-color="#848484"/><stop offset="1" stop-color="#5b5b5b"/></linearGradient><linearGradient x1="177.94189" y1="218.5098" x2="181.08999" y2="218.64917" gradientUnits="userSpaceOnUse" id="color-32"><stop offset="0" stop-color="#848484"/><stop offset="1" stop-color="#5b5b5b"/></linearGradient><linearGradient x1="182.20851" y1="233.6051" x2="182.28044" y2="231.98027" gradientUnits="userSpaceOnUse" id="color-33"><stop offset="0" stop-color="#848484"/><stop offset="1" stop-color="#b5b5b5"/></linearGradient><linearGradient x1="182.313" y1="239.63646" x2="184.13342" y2="198.51679" gradientUnits="userSpaceOnUse" id="color-34"><stop offset="0" stop-color="#d42727"/><stop offset="1" stop-color="#a02020"/></linearGradient><linearGradient x1="185.12214" y1="218.35175" x2="181.29508" y2="212.55731" gradientUnits="userSpaceOnUse" id="color-35"><stop offset="0" stop-color="#d42727"/><stop offset="1" stop-color="#a02020"/></linearGradient><linearGradient x1="180.14803" y1="230.09727" x2="182.15396" y2="225.65411" gradientUnits="userSpaceOnUse" id="color-36"><stop offset="0" stop-color="#d42727"/><stop offset="1" stop-color="#a02020"/></linearGradient><radialGradient cx="179.49935" cy="238.246" r="4.78508" gradientUnits="userSpaceOnUse" id="color-37"><stop offset="0" stop-color="#8d8d8d"/><stop offset="1" stop-color="#484848"/></radialGradient><radialGradient cx="178.80436" cy="208.6703" r="18.66637" gradientUnits="userSpaceOnUse" id="color-38"><stop offset="0" stop-color="#79a2c1"/><stop offset="1" stop-color="#5984a2"/></radialGradient><radialGradient cx="178.6535" cy="209.22094" r="18.66965" gradientUnits="userSpaceOnUse" id="color-39"><stop offset="0" stop-color="#c24a4a"/><stop offset="1" stop-color="#a33939"/></radialGradient><radialGradient cx="178.6535" cy="209.22094" r="18.66965" gradientUnits="userSpaceOnUse" id="color-40"><stop offset="0" stop-color="#c24a4a"/><stop offset="1" stop-color="#a33939"/></radialGradient><radialGradient cx="178.6535" cy="209.22094" r="18.66965" gradientUnits="userSpaceOnUse" id="color-41"><stop offset="0" stop-color="#c24a4a"/><stop offset="1" stop-color="#a33939"/></radialGradient><radialGradient cx="178.6535" cy="209.22094" r="18.66965" gradientUnits="userSpaceOnUse" id="color-42"><stop offset="0" stop-color="#c24a4a"/><stop offset="1" stop-color="#a33939"/></radialGradient><radialGradient cx="178.6535" cy="209.22094" r="18.66965" gradientUnits="userSpaceOnUse" id="color-43"><stop offset="0" stop-color="#c24a4a"/><stop offset="1" stop-color="#a33939"/></radialGradient><radialGradient cx="178.6535" cy="209.22094" r="18.66965" gradientUnits="userSpaceOnUse" id="color-44"><stop offset="0" stop-color="#c24a4a"/><stop offset="1" stop-color="#a33939"/></radialGradient><radialGradient cx="178.6535" cy="209.22094" r="18.66965" gradientUnits="userSpaceOnUse" id="color-45"><stop offset="0" stop-color="#c24a4a"/><stop offset="1" stop-color="#a33939"/></radialGradient><radialGradient cx="298.50313" cy="261.9032" r="10.10775" gradientUnits="userSpaceOnUse" id="color-46"><stop offset="0" stop-color="#593521"/><stop offset="1" stop-color="#563420"/></radialGradient><radialGradient cx="299.68355" cy="262.22402" r="10.10775" gradientUnits="userSpaceOnUse" id="color-47"><stop offset="0" stop-color="#965a37"/><stop offset="1" stop-color="#7b4a2e"/></radialGradient><radialGradient cx="301.55926" cy="262.77242" r="10.10774" gradientUnits="userSpaceOnUse" id="color-48"><stop offset="0" stop-color="#d4804f"/><stop offset="1" stop-color="#965a37"/></radialGradient><radialGradient cx="301.49506" cy="246.9728" r="10.01262" gradientUnits="userSpaceOnUse" id="color-49"><stop offset="0" stop-color="#d4804f"/><stop offset="1" stop-color="#965a37"/></radialGradient><radialGradient cx="291.82455" cy="247.4934" r="8.30322" gradientUnits="userSpaceOnUse" id="color-50"><stop offset="0" stop-color="#d4804f"/><stop offset="1" stop-color="#965a37"/></radialGradient><radialGradient cx="181.2927" cy="261.68375" r="10.10775" gradientUnits="userSpaceOnUse" id="color-51"><stop offset="0" stop-color="#593521"/><stop offset="1" stop-color="#563420"/></radialGradient><radialGradient cx="180.11562" cy="262.01661" r="10.10775" gradientUnits="userSpaceOnUse" id="color-52"><stop offset="0" stop-color="#965a37"/><stop offset="1" stop-color="#7b4a2e"/></radialGradient><radialGradient cx="178.2456" cy="262.58409" r="10.10774" gradientUnits="userSpaceOnUse" id="color-53"><stop offset="0" stop-color="#d4804f"/><stop offset="1" stop-color="#965a37"/></radialGradient><radialGradient cx="178.14869" cy="246.78465" r="10.01262" gradientUnits="userSpaceOnUse" id="color-54"><stop offset="0" stop-color="#d4804f"/><stop offset="1" stop-color="#965a37"/></radialGradient><radialGradient cx="187.82401" cy="247.20662" r="8.30323" gradientUnits="userSpaceOnUse" id="color-55"><stop offset="0" stop-color="#d4804f"/><stop offset="1" stop-color="#965a37"/></radialGradient><linearGradient x1="281.76294" y1="137.41256" x2="279.15318" y2="140.45714" gradientUnits="userSpaceOnUse" id="color-56"><stop offset="0" stop-color="#a4a4a4"/><stop offset="1" stop-color="#d8d8d8"/></linearGradient><linearGradient x1="270.88938" y1="130.73272" x2="272.62915" y2="132.224" gradientUnits="userSpaceOnUse" id="color-57"><stop offset="0" stop-color="#a4a4a4"/><stop offset="1" stop-color="#d8d8d8"/></linearGradient><linearGradient x1="288.70122" y1="145.74926" x2="286.96145" y2="144.25796" gradientUnits="userSpaceOnUse" id="color-58"><stop offset="0" stop-color="#a4a4a4"/><stop offset="1" stop-color="#d8d8d8"/></linearGradient><linearGradient x1="286.89967" y1="130.24638" x2="284.91127" y2="132.56607" gradientUnits="userSpaceOnUse" id="color-59"><stop offset="0" stop-color="#a4a4a4"/><stop offset="1" stop-color="#d8d8d8"/></linearGradient><linearGradient x1="272.87733" y1="146.89839" x2="274.86572" y2="144.57869" gradientUnits="userSpaceOnUse" id="color-60"><stop offset="0" stop-color="#a4a4a4"/><stop offset="1" stop-color="#d8d8d8"/></linearGradient><linearGradient x1="280.29218" y1="117.89132" x2="280.29218" y2="161.21755" gradientUnits="userSpaceOnUse" id="color-61"><stop offset="0" stop-color="#0b2a00"/><stop offset="1" stop-color="#101800"/></linearGradient><linearGradient x1="179.85117" y1="128.56012" x2="178.00983" y2="129.92398" gradientUnits="userSpaceOnUse" id="color-62"><stop offset="0" stop-color="#a4a4a4"/><stop offset="1" stop-color="#d8d8d8"/></linearGradient><linearGradient x1="161.0171" y1="142.27272" x2="162.85846" y2="140.90883" gradientUnits="userSpaceOnUse" id="color-63"><stop offset="0" stop-color="#a4a4a4"/><stop offset="1" stop-color="#d8d8d8"/></linearGradient><linearGradient x1="163.91595" y1="126.93711" x2="165.73445" y2="129.39225" gradientUnits="userSpaceOnUse" id="color-64"><stop offset="0" stop-color="#a4a4a4"/><stop offset="1" stop-color="#d8d8d8"/></linearGradient><linearGradient x1="176.71931" y1="144.54359" x2="174.9008" y2="142.08847" gradientUnits="userSpaceOnUse" id="color-65"><stop offset="0" stop-color="#a4a4a4"/><stop offset="1" stop-color="#d8d8d8"/></linearGradient><linearGradient x1="169.81976" y1="115.14522" x2="169.81976" y2="158.22097" gradientUnits="userSpaceOnUse" id="color-66"><stop offset="0" stop-color="#0b2a00"/><stop offset="1" stop-color="#101800"/></linearGradient><linearGradient x1="221.32543" y1="188.75686" x2="231.96579" y2="188.75686" gradientUnits="userSpaceOnUse" id="color-67"><stop offset="0" stop-color="#a4a4a4"/><stop offset="1" stop-color="#d8d8d8"/></linearGradient><radialGradient cx="226.39229" cy="157.31783" r="8.61361" gradientUnits="userSpaceOnUse" id="color-68"><stop offset="0" stop-color="#d8d8d8"/><stop offset="1" stop-color="#a4a4a4"/></radialGradient><linearGradient x1="240.83609" y1="143.95123" x2="236.25324" y2="143.95123" gradientUnits="userSpaceOnUse" id="color-69"><stop offset="0" stop-color="#a4a4a4"/><stop offset="1" stop-color="#d8d8d8"/></linearGradient><linearGradient x1="211.95136" y1="144.73016" x2="216.53417" y2="144.73016" gradientUnits="userSpaceOnUse" id="color-70"><stop offset="0" stop-color="#a4a4a4"/><stop offset="1" stop-color="#d8d8d8"/></linearGradient><linearGradient x1="226.35538" y1="162.27077" x2="226.35538" y2="167.23551" gradientUnits="userSpaceOnUse" id="color-71"><stop offset="0" stop-color="#a4a4a4"/><stop offset="1" stop-color="#d8d8d8"/></linearGradient><linearGradient x1="242.52569" y1="143.76821" x2="247.93354" y2="145.75597" gradientUnits="userSpaceOnUse" id="color-72"><stop offset="0" stop-color="#a4a4a4"/><stop offset="1" stop-color="#d8d8d8"/></linearGradient><linearGradient x1="209.601" y1="143.07662" x2="204.07547" y2="145.10763" gradientUnits="userSpaceOnUse" id="color-73"><stop offset="0" stop-color="#a4a4a4"/><stop offset="1" stop-color="#d8d8d8"/></linearGradient><linearGradient x1="226.71095" y1="121.12163" x2="226.71095" y2="125.28399" gradientUnits="userSpaceOnUse" id="color-74"><stop offset="0" stop-color="#a4a4a4"/><stop offset="1" stop-color="#d8d8d8"/></linearGradient><linearGradient x1="225.32298" y1="108.89323" x2="225.32298" y2="224.45508" gradientUnits="userSpaceOnUse" id="color-75"><stop offset="0" stop-color="#0b2a00"/><stop offset="1" stop-color="#101800"/></linearGradient><linearGradient x1="225.32298" y1="108.89323" x2="225.32298" y2="224.45508" gradientUnits="userSpaceOnUse" id="color-76"><stop offset="0" stop-color="#0b2a00"/><stop offset="1" stop-color="#101800"/></linearGradient><linearGradient x1="225.32298" y1="108.89323" x2="225.32298" y2="224.45508" gradientUnits="userSpaceOnUse" id="color-77"><stop offset="0" stop-color="#0b2a00"/><stop offset="1" stop-color="#101800"/></linearGradient><linearGradient x1="225.32298" y1="108.89323" x2="225.32298" y2="224.45508" gradientUnits="userSpaceOnUse" id="color-78"><stop offset="0" stop-color="#0b2a00"/><stop offset="1" stop-color="#101800"/></linearGradient><linearGradient x1="225.32298" y1="108.89323" x2="225.32298" y2="224.45508" gradientUnits="userSpaceOnUse" id="color-79"><stop offset="0" stop-color="#0b2a00"/><stop offset="1" stop-color="#101800"/></linearGradient><linearGradient x1="224.08591" y1="68.20933" x2="244.11076" y2="101.63194" gradientUnits="userSpaceOnUse" id="color-80"><stop offset="0" stop-color="#0b2a00"/><stop offset="1" stop-color="#101800"/></linearGradient><linearGradient x1="182.05603" y1="83.85827" x2="258.47525" y2="38.07238" gradientUnits="userSpaceOnUse" id="color-81"><stop offset="0" stop-color="#0b2a00"/><stop offset="1" stop-color="#101800"/></linearGradient><radialGradient cx="197.82855" cy="51.48951" r="2.69694" gradientUnits="userSpaceOnUse" id="color-82"><stop offset="0" stop-color="#ffffff"/><stop offset="1" stop-color="#ffffff" stop-opacity="0"/></radialGradient><radialGradient cx="221.70828" cy="37.18218" r="2.69694" gradientUnits="userSpaceOnUse" id="color-83"><stop offset="0" stop-color="#ffffff"/><stop offset="1" stop-color="#ffffff" stop-opacity="0"/></radialGradient></defs><g transform="translate(-188.75,-23.125)"><g data-paper-data="{&quot;isPaintingLayer&quot;:true}" fill-rule="nonzero" stroke-linecap="butt" stroke-linejoin="miter" stroke-miterlimit="10" stroke-dasharray="" stroke-dashoffset="0" style="mix-blend-mode: normal"><g stroke="none"><g><path d="" fill="#656565" stroke-width="0"/><path d="" fill="#656565" stroke-width="0"/><path d="" fill="#656565" stroke-width="0"/><path d="" fill="url(#color-1)" stroke-width="0"/><path d="" fill="url(#color-2)" stroke-width="0"/><path d="" fill="url(#color-3)" stroke-width="0"/><path d="" fill="url(#color-4)" stroke-width="0"/><path d="" fill="url(#color-5)" stroke-width="0"/><path d="" data-paper-data="{&quot;index&quot;:null}" fill="url(#color-6)" stroke-width="0"/><path d="" fill="url(#color-7)" stroke-width="0"/><path d="" fill="url(#color-8)" stroke-width="0"/><path d="" fill="url(#color-9)" stroke-width="0"/><path d="" fill="url(#color-10)" stroke-width="0"/><path d="" fill="url(#color-11)" stroke-width="0"/><path d="" data-paper-data="{&quot;index&quot;:null}" fill="url(#color-12)" stroke-width="0"/><path d="" fill="url(#color-13)" stroke-width="0.5"/><path d="" fill="url(#color-14)" stroke-width="0.5"/><path d="" fill="url(#color-15)" stroke-width="0"/></g><g stroke-width="0"><path d="" fill="url(#color-16)"/><path d="" fill="url(#color-17)"/><path d="" fill="url(#color-18)"/><path d="" fill="url(#color-19)"/><path d="" fill="url(#color-20)"/><path d="" fill="url(#color-21)"/><path d="" fill="url(#color-22)"/><path d="" fill="url(#color-23)"/><path d="" fill="url(#color-24)"/><path d="" fill="url(#color-25)"/></g></g><g stroke="none"><path d="" fill="#656565" stroke-width="0"/><path d="" data-paper-data="{&quot;index&quot;:null}" fill="url(#color-26)" stroke-width="0"/><path d="" data-paper-data="{&quot;index&quot;:null}" fill="url(#color-27)" stroke-width="0"/><path d="" fill="url(#color-28)" stroke-width="0"/><path d="" fill="url(#color-29)" stroke-width="0"/><path d="" fill="url(#color-30)" stroke-width="0"/><path d="" fill="url(#color-31)" stroke-width="0"/><path d="" fill="url(#color-32)" stroke-width="0"/><path d="" fill="url(#color-33)" stroke-width="0"/><path d="" fill="url(#color-34)" stroke-width="0.5"/><path d="" fill="url(#color-35)" stroke-width="0"/><path d="" fill="url(#color-36)" stroke-width="0"/><path d="" fill="url(#color-37)" stroke-width="0"/><g stroke-width="0"><path d="" fill="url(#color-38)"/><path d="" fill="url(#color-39)"/><path d="" fill="url(#color-40)"/><path d="" fill="url(#color-41)"/><path d="" fill="url(#color-42)"/><path d="" fill="url(#color-43)"/><path d="" fill="url(#color-44)"/><path d="" fill="url(#color-45)"/></g></g><g data-paper-data="{&quot;index&quot;:null}" stroke="none" stroke-width="0"><path d="" fill="url(#color-46)"/><path d="" fill="url(#color-47)"/><path d="" fill="url(#color-48)"/><path d="" fill="url(#color-49)"/><path d="" data-paper-data="{&quot;index&quot;:null}" fill="url(#color-50)"/></g><g stroke="none" stroke-width="0"><path d="" fill="url(#color-51)"/><path d="" fill="url(#color-52)"/><path d="" fill="url(#color-53)"/><path d="" fill="url(#color-54)"/><path d="" data-paper-data="{&quot;index&quot;:null}" fill="url(#color-55)"/></g><path d="M188.75,112.875v-89.75h74.81843v89.75z" fill="#000000" stroke="none" stroke-width="0"/><g><path d="M191.35246,92.41074c-0.15826,-1.19334 -0.28036,-2.42562 -0.31308,-3.76228c-0.14856,-6.0685 -0.41725,-11.31093 -0.33333,-17.65586c0.04245,-3.20973 1.72897,-6.33878 1.72897,-9.51513c0,-1.40228 -0.02732,-2.81269 -0.07269,-4.22619c9.21377,-8.23126 34.43994,-22.79602 41.58016,-23.2912c12.05532,-0.83605 22.74816,3.02567 28.43387,11.30042c-0.53321,1.67917 -0.66277,3.27564 -0.60184,4.97658c-9.07268,11.2106 -55.32484,38.51548 -70.42205,42.17366z" fill="#000000" stroke="#000000" stroke-width="0"/><g data-paper-data="{&quot;index&quot;:null}"><path d="" fill="#525252" stroke="#000000" stroke-width="0"/><path d="" fill="#000000" stroke="none" stroke-width="0.5"/><g stroke="none" stroke-width="0"><path d="" fill="url(#color-56)"/><path d="" fill="url(#color-57)"/><path d="" data-paper-data="{&quot;index&quot;:null}" fill="url(#color-58)"/><path d="" fill="url(#color-59)"/><path d="" data-paper-data="{&quot;index&quot;:null}" fill="url(#color-60)"/><path d="" fill="#000000"/></g><path d="" fill="url(#color-61)" stroke="#000000" stroke-width="0"/></g><g><path d="" fill="#525252" stroke="#000000" stroke-width="0"/><path d="" fill="#000000" stroke="none" stroke-width="0.5"/><g stroke="none" stroke-width="0"><path d="" fill="#000000"/><path d="" fill="url(#color-62)"/><path d="" data-paper-data="{&quot;index&quot;:null}" fill="url(#color-63)"/><path d="" fill="url(#color-64)"/><path d="" data-paper-data="{&quot;index&quot;:null}" fill="url(#color-65)"/><path d="" fill="#000000"/></g><path d="" fill="url(#color-66)" stroke="#000000" stroke-width="0"/><path d="" data-paper-data="{&quot;noHover&quot;:false,&quot;origItem&quot;:[&quot;Path&quot;,{&quot;applyMatrix&quot;:true,&quot;segments&quot;:[[176.60411,134.48781],[[175.79368,133.92516],[0,0],[-1.82673,-0.9105]],[[171.09694,133.64543],[1.95663,-0.33745],[-0.64152,0.12879]],[[169.17237,134.03178],[0.58118,-0.30061],[-2.40087,1.24186]],[[166.10679,139.38702],[1.49289,-1.43707],[-1.1287,1.0865]],[[161.59938,141.31721],[1.25205,-1.68115],[-0.74158,0.99572]],[[161.37095,145.4829],[-0.53889,-1.08928],[0.92323,1.86616]],[[165.43709,148.01069],[-1.52638,-0.67728],[0.61435,0.27259]],[[165.95421,149.95956],[-0.19464,-0.64329],[0.47068,1.55564]],[[168.50713,154.50864],[-1.39457,-0.96957],[1.95397,1.35851]],[[173.20948,155.62107],[-1.92505,-0.63121],[3.41882,0.292]],[[181.95782,146.93054],[0.898,3.93153],[-0.45859,-2.00776]],[[178.91194,142.20309],[0.45237,1.89227],[-0.69384,-2.9023]],[[177.01885,134.9652],[2.23729,1.99239],[-0.16531,-0.30135]],[176.60411,134.4878]],&quot;closed&quot;:true,&quot;fillColor&quot;:[0,0,0,1]}]}" fill="#000000" stroke="none" stroke-width="0.5"/></g><g><path d="" fill="#000000" stroke="#000000" stroke-width="0"/><path d="M208.71813,109.43722c0.64496,-0.47631 1.54774,-0.45158 2.26456,-0.81076c2.83614,-1.42111 5.21678,-3.86379 7.28083,-6.08981c0.1668,-3.22571 2.23742,-5.69579 2.70966,-8.92624c0.02225,-0.15219 0.04282,-0.3038 0.0619,-0.45487c1.68164,-0.27071 3.42453,-0.41867 5.23165,-0.43459c13.10686,-0.11552 23.24549,6.90493 31.11261,17.43007c-13.1368,0.30945 -26.28648,0.85619 -39.33997,1.21878c-2.23601,0.06211 -6.9207,-0.14597 -11.61405,-0.00492c0.90702,-0.4085 1.49016,-1.33492 2.2928,-1.92767z" fill="#000000" stroke="#000000" stroke-width="0"/><path d="" fill="#000000" stroke="#000000" stroke-width="0"/><path d="M203.0747,111.53562c-0.24792,0.01875 -0.49414,0.03897 -0.73825,0.06076c-0.03549,-0.03021 -0.07062,-0.05964 -0.10539,-0.08827c0.27971,-0.0105 0.56097,0.00369 0.84363,0.02751z" fill="#000000" stroke="#000000" stroke-width="0"/><g stroke="none"><path d="M227.38606,72.515c0.21268,-0.19946 0.98324,-0.80397 1.75381,0.05746c0.90562,1.01242 0,2.02486 0,2.02486l-1.2258,0.7773c-0.37475,-0.00358 -0.7495,-0.00714 -1.12423,-0.01073c-1.18107,0.09983 -1.44158,2.06451 -1.43722,3.23223c0.00792,2.1177 0.54331,4.18295 1.67934,5.96378c1.22654,1.92271 2.1935,1.91791 2.47678,4.6335c0.12632,1.21092 -0.14292,2.43834 -0.33784,3.63783c-0.57168,3.518 -0.8702,6.75984 -1.7642,10.19574c-0.26331,1.01196 -0.18617,2.14398 -0.60383,3.0888c-0.79205,1.79171 -2.69322,3.3975 -3.92731,5.11221c-0.9737,0.02991 -1.94694,0.05908 -2.91968,0.08735c0.00109,-0.06111 0.00206,-0.12162 0.00288,-0.18148c0.52393,-0.96831 0.96821,-1.99641 1.57177,-2.90492c0.85842,-1.29214 2.40115,-2.00323 3.01217,-3.46064c0.32477,-0.77465 0.19511,-1.7031 0.40085,-2.52712c0.64033,-2.56463 1.06522,-4.70846 1.3804,-7.36528c0.19982,-1.68435 1.25207,-4.92698 0.46091,-6.65554c-0.38737,-0.84632 -1.33623,-1.21279 -1.83088,-1.98609c-0.7929,-1.23954 -1.89541,-3.75145 -2.13973,-5.21972c-0.37348,-2.24459 -0.03986,-6.26118 1.73697,-7.83063c0.52692,-0.46542 1.28375,-0.44144 1.92563,-0.66215c0.30307,-0.00226 0.60612,-0.00451 0.90919,-0.00678z" fill="#000000" stroke-width="0.5"/><path d="" fill="#000000" stroke-width="0.5"/><path d="M223.83895,73.79015h4.76716v37.25483c-1.5901,0.05235 -3.17922,0.10366 -4.76716,0.15318z" fill="#000000" stroke-width="0"/><path d="" fill="#000000" stroke-width="0"/><path d="" fill="#000000" stroke-width="0.5"/><path d="" fill="#000000" stroke-width="0.5"/><path d="" fill="url(#color-67)" stroke-width="0"/><path d="" fill="url(#color-68)" stroke-width="0"/><path d="" data-paper-data="{&quot;index&quot;:null}" fill="url(#color-69)" stroke-width="0"/><path d="" data-paper-data="{&quot;index&quot;:null}" fill="url(#color-70)" stroke-width="0"/><path d="" fill="url(#color-71)" stroke-width="0"/><path d="" fill="url(#color-72)" stroke-width="0"/><path d="" data-paper-data="{&quot;index&quot;:null}" fill="url(#color-73)" stroke-width="0"/><path d="" fill="url(#color-74)" stroke-width="0"/><path d="" fill="#000000" stroke-width="0"/><path d="" fill="#000000" stroke-width="0"/><path d="" fill="#000000" stroke-width="0"/><path d="" fill="#000000" stroke-width="0"/><path d="" fill="#000000" stroke-width="0"/></g><path d="" fill="url(#color-75)" stroke="#000000" stroke-width="0"/><path d="M231.50572,109.19947c1.72938,-1.05412 3.47483,0.89621 4.80606,1.58707c-2.17882,0.07353 -4.35639,0.14738 -6.5322,0.21963c0.54179,-0.67057 1.04722,-1.39288 1.72614,-1.8067z" fill="url(#color-76)" stroke="#000000" stroke-width="0"/><path d="" fill="url(#color-77)" stroke="#000000" stroke-width="0"/><path d="M243.94212,110.25692c0.19347,0.02687 0.35762,0.13925 0.51954,0.26003c-0.75253,0.02405 -1.50498,0.04842 -2.25734,0.07305c0.59352,-0.22422 1.2039,-0.40723 1.7378,-0.33308z" fill="url(#color-78)" stroke="#000000" stroke-width="0"/><path d="M252.14308,110.25518c1.21116,-0.15608 2.446,-0.13028 3.686,-0.06655c-1.32195,0.03295 -2.64398,0.06814 -3.96599,0.10513c0.09425,-0.01376 0.18761,-0.02667 0.27999,-0.03858z" fill="url(#color-79)" stroke="#000000" stroke-width="0"/></g><g fill="#000000" stroke-width="0"><path d="M209.39317,71.18653l-2.0844,-3.47899l24.35295,-14.59085l2.0844,3.47899z" stroke="none"/><path d="M231.2646,101.14202l-13.48867,-22.51335l2.33028,-1.39616l13.48867,22.51335z" stroke="none"/><path d="M247.22753,90.59712l-13.10599,-21.87464l2.33029,-1.39617l13.10599,21.87464z" data-paper-data="{&quot;index&quot;:null}" stroke="none"/><path d="M215.742,81.97225l-2.0844,-3.47899l24.35296,-14.59085l2.0844,3.47899z" stroke="none"/><path d="M238.63011,68.25905l-15.13938,-25.26847l3.8452,-2.30381l15.13938,25.26847z" stroke="#000000"/><path d="M213.36164,83.39842l-15.13938,-25.26847l3.84521,-2.30382l15.13938,25.26847z" data-paper-data="{&quot;index&quot;:null}" stroke="#000000"/><g stroke="none"><g data-paper-data="{&quot;index&quot;:null}"><path d="M237.15363,71.64078l1.81015,3.02123l-2.38035,1.42617l-1.81015,-3.02123z"/><path d="M233.85774,73.61549l1.81015,3.02123l-2.38037,1.42618l-1.81015,-3.02123z"/><path d="M230.50702,75.49865l1.81014,3.02123l-2.38036,1.42617l-1.81014,-3.02123z"/><path d="M227.21112,77.47335l1.81014,3.02123l-2.38037,1.42618l-1.81014,-3.02123z"/><path d="M223.93971,79.35044l1.81014,3.02123l-2.38037,1.42618l-1.81014,-3.02123z"/></g><path d="M236.46785,67.32225l2.52322,4.2114l-18.6767,11.18998l-2.52322,-4.2114z" data-paper-data="{&quot;index&quot;:null}"/></g><g stroke="#000000"><g><path d="M214.47442,25.57084c6.52263,-3.90798 14.9783,-1.78838 18.88628,4.73425c3.90798,6.52263 1.78838,14.97832 -4.73425,18.88629c-6.52263,3.90798 -14.97831,1.78837 -18.88629,-4.73426c-3.90798,-6.52263 -1.78838,-14.9783 4.73425,-18.88628z"/></g><g data-paper-data="{&quot;index&quot;:null}"><path d="M209.57563,44.18245c3.90798,6.52263 1.78838,14.9783 -4.73425,18.88628c-3.99389,2.3929 -8.71252,2.52591 -12.6681,0.77197c0.15741,-0.78613 0.26174,-1.57322 0.26174,-2.36323c0,-5.68048 -0.4483,-11.49427 -0.72897,-17.10765c-0.08302,-1.66031 0.04676,-3.37888 -0.00324,-5.07625c0.00216,-0.08543 0.00324,-0.17113 0.00324,-0.25709c0,-0.04712 -0.00033,-0.09416 -0.00098,-0.14113c6.36045,-3.12666 14.16258,-0.90174 17.87056,5.28709z"/></g></g></g><g stroke-width="0"><g fill="#000000" stroke="none"><g><path d="M242.24552,85.43753l-1.81014,-3.02123l2.38035,-1.42617l1.81014,3.02123z"/><path d="M238.94963,87.41224l-1.81014,-3.02123l2.38037,-1.42618l1.81014,3.02123z"/><path d="M235.70859,89.47849l-1.81015,-3.02123l2.38036,-1.42617l1.81015,3.02123z"/><path d="M232.4127,91.45319l-1.81015,-3.02123l2.38038,-1.42618l1.81015,3.02123z"/><path d="M229.21442,93.45236l-1.81015,-3.02123l2.38037,-1.42618l1.81015,3.02123z"/></g><path d="M229.43358,97.84309l-2.52322,-4.2114l18.6767,-11.18998l2.52322,4.2114z"/></g><path d="M244.30567,101.5062c-9.77666,6.28181 -38.6692,8.88849 -52.02874,-2.31908c-0.30414,-3.69246 -1.14311,-6.68077 -1.23755,-10.53867c-0.00008,-0.00319 -0.00016,-0.00637 -0.00023,-0.00956c0.05203,-0.04145 0.10459,-0.0834 0.15767,-0.12585c6.6099,-5.2853 23.25569,16.79462 46.51125,2.60433c26.72648,-16.30822 10.5856,-38.67688 18.16088,-41.91184c3.64104,-1.55488 5.3292,-2.515 6.22029,-2.88471c-1.06997,4.76078 0.83465,9.16505 0.61681,17.68831c-0.02361,0.92376 -0.99372,1.95435 -1.1535,2.86507c-0.75321,4.29334 -1.07407,9.08821 0.21352,13.35147c-4.5388,9.25343 -11.31461,17.33167 -17.46039,21.28052z" data-paper-data="{&quot;index&quot;:null}" fill="url(#color-80)" stroke="#000000"/></g><path d="M191.34033,92.31865c-0.15235,-1.16466 -0.26907,-2.36788 -0.30095,-3.67019c-0.14856,-6.0685 -0.41725,-11.31093 -0.33333,-17.65586c0.0359,-2.71458 1.24775,-5.37145 1.62079,-8.04803c3.6254,1.09673 9.06556,2.26693 12.19288,0.48412c8.52971,-4.86256 4.94811,-13.15395 7.43407,-14.65417c2.92633,-1.76597 8.30406,5.66594 16.6973,0.19606c7.90763,-4.04412 6.20709,-15.20845 6.46678,-15.2214c11.58159,-0.57776 21.80426,3.22546 27.37815,11.15261c-0.65099,1.86181 -0.79484,3.60738 -0.71562,5.48616c-9.70921,11.46401 -55.76811,38.57202 -70.44007,41.9307z" fill="url(#color-81)" stroke="#000000" stroke-width="0"/><g stroke="none" stroke-width="0"><path d="M199.24602,50.64024c0.47909,0.79963 0.23284,1.82808 -0.55,2.29711c-0.78285,0.46904 -1.80584,0.20104 -2.28493,-0.59859c-0.47909,-0.79963 -0.23284,-1.82808 0.55,-2.29711c0.78285,-0.46904 1.80584,-0.20104 2.28493,0.59859zM198.56668,52.74117c0.68595,-0.41098 0.90886,-1.30023 0.49788,-1.98618c-0.41098,-0.68595 -1.30023,-0.90886 -1.98618,-0.49788c-0.68595,0.41098 -0.90886,1.30023 -0.49788,1.98618c0.41098,0.68595 1.30023,0.90886 1.98618,0.49788z" fill="#ffffff"/><path d="M200.14204,50.1034c0.78193,1.30508 0.38002,2.98364 -0.89768,3.74916c-1.2777,0.76552 -2.94736,0.32812 -3.72929,-0.97695c-0.78193,-1.30508 -0.38003,-2.98365 0.89767,-3.74917c1.2777,-0.76552 2.94736,-0.32812 3.72929,0.97696z" fill="url(#color-82)"/></g><g stroke="none" stroke-width="0"><path d="M223.12575,36.33292c0.47909,0.79963 0.23284,1.82808 -0.55,2.29711c-0.78285,0.46904 -1.80584,0.20104 -2.28493,-0.59859c-0.47909,-0.79963 -0.23284,-1.82808 0.55,-2.29711c0.78285,-0.46904 1.80584,-0.20104 2.28493,0.59859zM222.44642,38.43384c0.68595,-0.41098 0.90886,-1.30023 0.49788,-1.98618c-0.41098,-0.68595 -1.30023,-0.90886 -1.98618,-0.49788c-0.68595,0.41098 -0.90886,1.30023 -0.49788,1.98618c0.41098,0.68595 1.30023,0.90886 1.98618,0.49788z" fill="#ffffff"/><path d="M224.02177,35.79608c0.78193,1.30508 0.38002,2.98364 -0.89768,3.74916c-1.2777,0.76552 -2.94736,0.32812 -3.72929,-0.97695c-0.78193,-1.30508 -0.38003,-2.98365 0.89767,-3.74917c1.2777,-0.76552 2.94736,-0.32812 3.72929,0.97696z" fill="url(#color-83)"/></g></g><path d="M188.75,112.875v-89.75h74.81843v89.75zM260.22799,109.06461l0.16055,-82.6856l-68.07513,0.16055l0.16055,82.6856z" fill="#ffffff" stroke="none" stroke-width="0"/></g></g></svg>