<svg version="1.1" xmlns="http://www.w3.org/2000/svg" xmlns:xlink="http://www.w3.org/1999/xlink" width="321.78258" height="300.16782" viewBox="0,0,321.78258,300.16782"><defs><radialGradient cx="325.63696" cy="106.19751" r="6.66862" gradientUnits="userSpaceOnUse" id="color-1"><stop offset="0" stop-color="#dedede"/><stop offset="1" stop-color="#898989"/></radialGradient><radialGradient cx="330.20258" cy="204.54997" r="6.66861" gradientUnits="userSpaceOnUse" id="color-2"><stop offset="0" stop-color="#dedede"/><stop offset="1" stop-color="#898989"/></radialGradient><radialGradient cx="386.50829" cy="298.39101" r="6.66861" gradientUnits="userSpaceOnUse" id="color-3"><stop offset="0" stop-color="#dedede"/><stop offset="1" stop-color="#898989"/></radialGradient><radialGradient cx="424.06215" cy="192.05171" r="6.66861" gradientUnits="userSpaceOnUse" id="color-4"><stop offset="0" stop-color="#dedede"/><stop offset="1" stop-color="#898989"/></radialGradient><radialGradient cx="418.19522" cy="143.89935" r="6.66861" gradientUnits="userSpaceOnUse" id="color-5"><stop offset="0" stop-color="#dedede"/><stop offset="1" stop-color="#898989"/></radialGradient><radialGradient cx="390.58544" cy="103.31825" r="6.66862" gradientUnits="userSpaceOnUse" id="color-6"><stop offset="0" stop-color="#dedede"/><stop offset="1" stop-color="#898989"/></radialGradient><radialGradient cx="383.62046" cy="204.54997" r="6.66861" gradientUnits="userSpaceOnUse" id="color-7"><stop offset="0" stop-color="#dedede"/><stop offset="1" stop-color="#898989"/></radialGradient><radialGradient cx="385.01098" cy="251.47516" r="6.66861" gradientUnits="userSpaceOnUse" id="color-8"><stop offset="0" stop-color="#dedede"/><stop offset="1" stop-color="#898989"/></radialGradient></defs><g transform="translate(-134.25,-26.58217)"><g data-paper-data="{&quot;isPaintingLayer&quot;:true}" fill-rule="nonzero" stroke-linejoin="miter" stroke-miterlimit="10" stroke-dasharray="" stroke-dashoffset="0" style="mix-blend-mode: normal"><path d="M135,326v-292h126v292z" fill="#00471e" stroke="#d3ffcd" stroke-width="1.5" stroke-linecap="butt"/><text transform="translate(137.83333,48.39968) scale(0.23701,0.23701)" font-size="40" xml:space="preserve" fill="#00ff6a" fill-rule="nonzero" stroke="none" stroke-width="1" stroke-linecap="butt" stroke-linejoin="miter" stroke-miterlimit="10" stroke-dasharray="" stroke-dashoffset="0" font-family="&quot;ヒラギノ角ゴ Pro W3&quot;, &quot;Hiragino Kaku Gothic Pro&quot;, Osaka, &quot;メイリオ&quot;, Meiryo, &quot;ＭＳ Ｐゴシック&quot;, &quot;MS PGothic&quot;" font-weight="normal" text-anchor="start" style="mix-blend-mode: normal"><tspan x="0" dy="0">EIDOLON COOKIE MONSTER</tspan></text><text transform="translate(139.83333,69.32718) scale(0.24889,0.24889)" font-size="40" xml:space="preserve" fill="#00ff6a" fill-rule="nonzero" stroke="none" stroke-width="1" stroke-linecap="butt" stroke-linejoin="miter" stroke-miterlimit="10" stroke-dasharray="" stroke-dashoffset="0" font-family="&quot;ヒラギノ角ゴ Pro W3&quot;, &quot;Hiragino Kaku Gothic Pro&quot;, Osaka, &quot;メイリオ&quot;, Meiryo, &quot;ＭＳ Ｐゴシック&quot;, &quot;MS PGothic&quot;" font-weight="normal" text-anchor="start" style="mix-blend-mode: normal"><tspan x="0" dy="0">A shadowy figure who</tspan><tspan x="0" dy="48px">takes the form of Withered</tspan><tspan x="0" dy="48px">Cookie Monster. He likes</tspan><tspan x="0" dy="48px">to hide outside windows.</tspan></text><g><path d="M408.30174,152.21723c0,30.3653 -22.36448,54.98124 -49.95247,54.98124c-27.58799,0 -49.95246,-24.61595 -49.95246,-54.98124c0,-19.065 8.81612,-35.86358 22.20594,-45.72627c0.474,-0.34914 0.90115,-0.82905 1.29042,-1.42282c0.05917,0.01284 0.11966,0.02169 0.18164,0.02597c0.70121,0.04835 1.14417,-0.89593 1.8308,-1.04617c0.73227,-0.16021 1.57934,0.50238 2.24344,0.15471c2.27154,-1.1892 3.31745,-3.92156 5.16066,-5.70387c0.19369,-0.18729 0.54219,-0.02289 0.80332,-0.08926c2.74527,-0.69768 5.53756,-2.25908 8.20532,-2.85147c2.36556,-0.52529 4.18258,0.84842 6.18559,1.29353c1.71353,0.38078 4.07196,-1.10986 5.52774,-0.65146c4.77791,1.50448 8.29122,4.5148 13.19502,5.64947c2.88889,0.66846 5.43408,-1.28969 7.58374,-3.37274c0.73166,3.86331 1.68073,6.82481 3.3999,8.0987c13.32555,9.87397 22.09143,26.63108 22.09143,45.64167z" fill="#000000" stroke="#000000" stroke-width="1.5" stroke-linecap="butt"/><path d="M375.88366,112.54121l-17.23987,-39.49132l5.52327,-2.41118l17.23988,39.49132z" data-paper-data="{&quot;index&quot;:null}" fill="#000000" stroke="none" stroke-width="0" stroke-linecap="butt"/><path d="M335.13997,109.22605l17.23988,-39.49132l5.52326,2.41118l-17.23988,39.49132z" fill="#000000" stroke="none" stroke-width="0" stroke-linecap="butt"/><path d="M368.92267,247.94586c0,0 -3.7452,-6.82928 -6.20507,-13.54395c1.86153,1.43421 -2.29517,-13.60026 -1.73162,-10.56766c-0.10853,0.1121 -0.21284,0.2255 -0.31316,0.34011c0.62493,-7.54736 6.51333,-19.28689 6.51333,-19.28689l31.6367,0.04332c0,0 7.34695,15.27709 7.56359,20.64873c0.30473,7.55601 -7.17335,22.40782 -7.17335,22.40782z" data-paper-data="{&quot;index&quot;:null}" fill="#000000" stroke="#000000" stroke-width="1.5" stroke-linecap="butt"/><path d="M382.48163,249.90653l-3.26314,-45.98803l6.31208,-0.44788l3.26314,45.98802z" fill="#000000" stroke="none" stroke-width="0" stroke-linecap="butt"/><path d="M280.26012,187.54305l10.8155,-48.992l6.62055,1.46156l-10.8155,48.992z" fill="#000000" stroke="none" stroke-width="0" stroke-linecap="butt"/><path d="M326.49204,297.47879v-46.10365h6.32796v46.10365z" fill="#000000" stroke="none" stroke-width="0" stroke-linecap="butt"/><path d="M340.49692,80.17677c0.2686,0.47466 -0.91178,0.2325 -0.9708,0.18611c-0.23916,-0.18801 -0.90058,-0.48098 -1.50694,-0.68926c0.09883,-0.41281 0.20036,-0.82443 0.30488,-1.23438c0.9857,0.53685 1.80577,1.08881 2.17286,1.73753z" fill="#000000" stroke="#000000" stroke-width="1.5" stroke-linecap="butt"/><path d="M331.29228,206.19454v-10.16992h52.43161v10.16992z" fill="#000000" stroke="none" stroke-width="0" stroke-linecap="butt"/><path d="M287.40232,130.63769c0,0 5.74679,-14.88227 10.85303,-20.4415c3.63007,-3.95211 17.52894,-11.89594 17.52894,-11.89594l16.83107,15.4596c0,0 -4.55452,11.75256 -9.16133,17.76049c0.02172,-0.1357 0.04052,-0.27246 0.05623,-0.41029c2.28374,-2.01512 -9.76197,7.30766 -7.83479,7.13572c-5.70032,3.86825 -12.15828,7.19364 -12.15828,7.19364z" data-paper-data="{&quot;index&quot;:null}" fill="#000000" stroke="#000000" stroke-width="1.5" stroke-linecap="butt"/><path d="M314.78107,248.11147c0,0 -7.59473,-14.7925 -7.3495,-22.35066c0.17436,-5.37317 7.40084,-20.70763 7.40084,-20.70763l31.63539,-0.29232c0,0 5.98063,11.69283 6.66495,19.23503c-0.10122,-0.11381 -0.20642,-0.22639 -0.31584,-0.33763c0.53966,-3.03696 -3.49859,12.02977 -1.6484,10.58097c-2.40694,6.73383 -6.09829,13.59236 -6.09829,13.59236z" data-paper-data="{&quot;index&quot;:null}" fill="#000000" stroke="#000000" stroke-width="1.5" stroke-linecap="butt"/><path d="M413.69224,191.0999c0,0 -3.44329,-6.3959 -5.95471,-12.81069c1.49174,1.23219 -3.16546,-13.27037 -2.42262,-10.31667c-0.06503,0.12254 -0.12691,0.24594 -0.18579,0.37012c-0.39914,-7.56033 2.49521,-19.82772 2.49521,-19.82772l22.62502,-3.22382c0,0 6.96541,14.41409 7.7224,19.72666c1.06481,7.47293 -2.6173,22.9955 -2.6173,22.9955z" data-paper-data="{&quot;index&quot;:null}" fill="#000000" stroke="#000000" stroke-width="1.5" stroke-linecap="butt"/><path d="M408.81281,146.53973c0,0 -6.05828,-4.00761 -11.30439,-8.47251c1.89707,0.38038 -9.06399,-10.19639 -7.0128,-7.94501c0.00064,0.13872 0.00446,0.27672 0.01131,0.41397c-3.92653,-6.47304 -7.1767,-18.65101 -7.1767,-18.65101l18.41166,-13.53868c0,0 12.95312,9.40743 16.13214,13.73066c4.47176,6.08127 8.56696,21.50001 8.56696,21.50001z" data-paper-data="{&quot;index&quot;:null}" fill="#000000" stroke="#000000" stroke-width="1.5" stroke-linecap="butt"/><path d="M335.26691,299.82531c-0.77455,3.51686 -4.31821,5.72564 -7.91498,4.93351c-3.59678,-0.79214 -5.88466,-4.28528 -5.11012,-7.80213c0.77455,-3.51685 4.31823,-5.72565 7.915,-4.93349c3.59678,0.79214 5.88465,4.28526 5.1101,7.80212z" data-paper-data="{&quot;index&quot;:null}" fill="#000000" stroke="none" stroke-width="0" stroke-linecap="butt"/><path d="M336.76423,252.90945c-0.77455,3.51686 -4.31821,5.72564 -7.91498,4.93351c-3.59678,-0.79214 -5.88466,-4.28528 -5.11012,-7.80213c0.77455,-3.51685 4.31823,-5.72564 7.915,-4.93349c3.59678,0.79214 5.88466,4.28526 5.11011,7.80212z" data-paper-data="{&quot;index&quot;:null}" fill="#000000" stroke="none" stroke-width="0" stroke-linecap="butt"/><path d="M288.63262,193.17292c-2.24028,2.81946 -6.39395,3.24769 -9.27748,0.95651c-2.88354,-2.29119 -3.40499,-6.43419 -1.16472,-9.25364c2.24028,-2.81946 6.39395,-3.24769 9.27749,-0.95649c2.88353,2.29118 3.405,6.43418 1.16472,9.25364z" data-paper-data="{&quot;index&quot;:null}" fill="#000000" stroke="none" stroke-width="0" stroke-linecap="butt"/><path d="M299.69841,145.94348c-2.24028,2.81946 -6.39395,3.24769 -9.27748,0.9565c-2.88354,-2.29119 -3.40499,-6.43419 -1.16472,-9.25364c2.24028,-2.81946 6.39395,-3.24768 9.27749,-0.95649c2.88354,2.29119 3.405,6.43418 1.16471,9.25363z" data-paper-data="{&quot;index&quot;:null}" fill="#000000" stroke="none" stroke-width="0" stroke-linecap="butt"/><path d="M325.16974,112.84973c-3.59229,-0.25232 -6.2952,-3.43516 -6.03717,-7.10909c0.25803,-3.67391 3.37934,-6.44771 6.97162,-6.1954c3.59229,0.25232 6.29522,3.43517 6.03718,7.1091c-0.25803,3.67391 -3.37934,6.4477 -6.97162,6.19539z" data-paper-data="{&quot;index&quot;:null}" fill="url(#color-1)" stroke="none" stroke-width="0" stroke-linecap="butt"/><path d="M287.40232,130.63769c0,0 5.74679,-14.88227 10.85303,-20.4415c3.63007,-3.95211 17.52894,-11.89594 17.52894,-11.89594l16.83107,15.4596c0,0 -4.55452,11.75256 -9.16133,17.76049c0.02172,-0.1357 0.04052,-0.27246 0.05623,-0.41029c2.28374,-2.01512 -9.76197,7.30766 -7.83479,7.13572c-5.70032,3.86825 -12.15828,7.19364 -12.15828,7.19364z" data-paper-data="{&quot;index&quot;:null}" fill="#101800" stroke="#000000" stroke-width="1.5" stroke-linecap="butt"/><g data-paper-data="{&quot;index&quot;:null}" fill="#101800" stroke="#000000" stroke-width="1.5" stroke-linecap="butt"><path d="M280.37752,204.75361c-3.50634,5.05906 6.4588,9.16507 9.33586,9.77193c3.13206,0.66065 5.0478,-0.60765 5.97078,0.9674c2.3729,4.04917 -9.53399,3.77744 -15.38033,-0.21769c-5.84642,-3.99511 -8.43929,-10.3751 -5.79134,-14.25004c2.64795,-3.87493 8.90881,-0.66347 5.86504,3.72839z"/><path d="M281.5855,205.16499c-6.13575,3.69977 2.48733,12.81198 5.25289,14.82833c3.0106,2.19514 5.64969,1.76214 5.87862,3.87468c0.58847,5.43118 -11.92488,-0.53568 -16.22752,-7.56597c-4.30253,-7.0303 -4.01313,-15.04127 0.64646,-17.89294c4.65968,-2.85168 9.77607,3.54418 4.44955,6.7559z"/><path d="M297.53983,210.46812c-3.19538,3.50284 -5.84909,-8.22155 -14.01439,-7.00742c-9.40577,1.39873 -3.49605,16.9651 -1.13802,20.84749c2.56703,4.22671 6.02099,5.04398 5.22253,7.74877c-2.05277,6.95384 -14.33451,-6.74626 -16.01484,-17.55577c-1.68033,-10.80951 2.76544,-20.47524 9.92985,-21.58894c7.16451,-1.11372 19.06626,14.21086 16.01487,17.55586z"/></g><path d="M336.10537,207.65279c-1.67557,3.18758 -5.67665,4.38243 -8.93666,2.66879c-3.26002,-1.71364 -4.54449,-5.68688 -2.86892,-8.87445c1.67557,-3.18758 5.67666,-4.38242 8.93668,-2.66877c3.26002,1.71364 4.54448,5.68686 2.86891,8.87444z" data-paper-data="{&quot;index&quot;:null}" fill="url(#color-2)" stroke="none" stroke-width="0" stroke-linecap="butt"/><path d="M314.78107,248.11147c0,0 -7.59473,-14.7925 -7.3495,-22.35066c0.17436,-5.37317 7.40084,-20.70763 7.40084,-20.70763l31.63539,-0.29232c0,0 5.98063,11.69283 6.66495,19.23503c-0.10122,-0.11381 -0.20642,-0.22639 -0.31584,-0.33763c0.53966,-3.03696 -3.49859,12.02977 -1.6484,10.58097c-2.40694,6.73383 -6.09829,13.59236 -6.09829,13.59236z" data-paper-data="{&quot;index&quot;:null}" fill="#101800" stroke="#000000" stroke-width="1.5" stroke-linecap="butt"/><path d="M274.18525,325.38009c0,0 30.73754,-23.45793 39.42927,-23.45793c13.45213,0 33.44003,1.49731 33.44003,1.49731v21.96061z" data-paper-data="{&quot;index&quot;:null}" fill="#101800" stroke="#000000" stroke-width="1.5" stroke-linecap="butt"/><path d="M306.12795,313.90068l-16.47046,11.47941" data-paper-data="{&quot;index&quot;:null}" fill="none" stroke="#000000" stroke-width="1.5" stroke-linecap="round"/><path d="M306.12795,324.88099l13.47583,-9.9821" data-paper-data="{&quot;index&quot;:null}" fill="none" stroke="#000000" stroke-width="1.5" stroke-linecap="round"/><path d="M379.99574,299.82531c-0.77455,-3.51686 1.51334,-7.00998 5.1101,-7.80212c3.59678,-0.79215 7.14045,1.41664 7.915,4.93349c0.77454,3.51684 -1.51335,7.00999 -5.11012,7.80213c-3.59678,0.79214 -7.14044,-1.41664 -7.91498,-4.93351z" data-paper-data="{&quot;index&quot;:null}" fill="url(#color-3)" stroke="none" stroke-width="0" stroke-linecap="butt"/><path d="M418.42107,195.60823c-1.92057,-3.04626 -0.95189,-7.10802 2.16358,-9.07223c3.11548,-1.96422 7.19799,-1.08707 9.11856,1.95918c1.92055,3.04624 0.95188,7.10802 -2.16359,9.07223c-3.11548,1.9642 -7.19799,1.08705 -9.11856,-1.95919z" data-paper-data="{&quot;index&quot;:null}" fill="url(#color-4)" stroke="none" stroke-width="0" stroke-linecap="butt"/><path d="M412.55414,147.45586c-1.92057,-3.04626 -0.9519,-7.10802 2.16358,-9.07223c3.11547,-1.96421 7.198,-1.08706 9.11857,1.95918c1.92055,3.04624 0.95188,7.10802 -2.16359,9.07223c-3.11548,1.9642 -7.19798,1.08705 -9.11856,-1.95919z" data-paper-data="{&quot;index&quot;:null}" fill="url(#color-5)" stroke="none" stroke-width="0" stroke-linecap="butt"/><path d="M413.69224,191.0999c0,0 -3.44329,-6.3959 -5.95471,-12.81069c1.49174,1.23219 -3.16546,-13.27037 -2.42262,-10.31667c-0.06503,0.12254 -0.12691,0.24594 -0.18579,0.37012c-0.39914,-7.56033 2.49521,-19.82772 2.49521,-19.82772l22.62502,-3.22382c0,0 6.96541,14.41409 7.7224,19.72666c1.06481,7.47293 -2.6173,22.9955 -2.6173,22.9955z" data-paper-data="{&quot;index&quot;:null}" fill="#101800" stroke="#000000" stroke-width="1.5" stroke-linecap="butt"/><path d="M391.05267,109.97048c-3.59229,0.25232 -6.7136,-2.52146 -6.97162,-6.19538c-0.25805,-3.67393 2.44488,-6.85678 6.03717,-7.10909c3.59228,-0.25232 6.7136,2.52146 6.97163,6.1954c0.25803,3.67391 -2.44489,6.85677 -6.03718,7.10908z" data-paper-data="{&quot;index&quot;:null}" fill="url(#color-6)" stroke="none" stroke-width="0" stroke-linecap="butt"/><path d="M408.81281,146.53973c0,0 -6.05828,-4.00761 -11.30439,-8.47251c1.89707,0.38038 -9.06399,-10.19639 -7.0128,-7.94501c0.00064,0.13872 0.00446,0.27672 0.01131,0.41397c-3.92653,-6.47304 -7.1767,-18.65101 -7.1767,-18.65101l18.41166,-13.53868c0,0 12.95312,9.40743 16.13214,13.73066c4.47176,6.08127 8.56696,21.50001 8.56696,21.50001z" data-paper-data="{&quot;index&quot;:null}" fill="#101800" stroke="#000000" stroke-width="1.5" stroke-linecap="butt"/><path d="M377.71764,207.6528c-1.67557,-3.18758 -0.39111,-7.16079 2.86891,-8.87444c3.26002,-1.71365 7.26111,-0.5188 8.93668,2.66877c1.67557,3.18757 0.3911,7.16081 -2.86892,8.87445c-3.26002,1.71364 -7.2611,0.51878 -8.93668,-2.66879z" data-paper-data="{&quot;index&quot;:null}" fill="url(#color-7)" stroke="none" stroke-width="0" stroke-linecap="butt"/><path d="M352.98812,197.71961v-94.69328h8.13594v94.69328z" fill="#000000" stroke="none" stroke-width="0" stroke-linecap="butt"/><path d="M375.71176,176.86569v-52.8836" fill="none" stroke="#000000" stroke-width="1" stroke-linecap="round"/><path d="M364.41185,178.22167l0.90399,-51.07561" fill="none" stroke="#000000" stroke-width="1" stroke-linecap="round"/><path d="M331.86809,188.61759v-23.05182" fill="none" stroke="#000000" stroke-width="1" stroke-linecap="round"/><path d="M345.42799,185.90561l-0.452,-31.63976" fill="none" stroke="#000000" stroke-width="1" stroke-linecap="round"/><path d="M308.39681,152.21723c0,-19.065 8.81612,-35.86358 22.20594,-45.72627c0.25052,-0.18453 0.48797,-0.4056 0.71363,-0.66069l0.13704,0.1468c3.1247,2.08313 9.2919,-4.04259 11.9459,-4.82824c1.5061,-0.44585 1.9842,0.58046 3.45427,0.98262c2.33721,0.6394 5.10113,0.39671 7.55948,0.25066c4.1364,-0.24573 6.42334,-2.01192 8.81783,-2.30557c2.01162,-0.24669 5.10357,1.75886 7.1265,2.05491c3.90204,0.57103 7.48833,-0.42375 11.13567,-0.42375c0.70468,0 1.40312,0.0867 2.10021,0.1599c0.63125,2.18744 1.44525,3.83971 2.61702,4.70796c10.68816,7.91971 18.44293,20.26758 21.0939,34.65466c-4.17515,-1.12066 -8.926,-0.83355 -11.68732,0.82324c-4.70406,2.82244 -9.36283,12.61755 -11.49887,15.18924c-0.06789,0.08172 -4.66665,-1.01736 -5.41369,-1.67026c-2.78927,-2.43778 -7.4391,-7.60541 -12.06856,-7.02135c-0.82169,0.10366 -1.28163,1.11632 -2.06733,1.37821c-0.7857,0.26191 -1.78765,-0.31547 -2.4808,0.13783c-7.47401,4.88779 -2.84137,16.65276 -8.76724,23.74113c-1.11215,1.33032 -9.58162,-0.47051 -10.18846,-0.39737c-2.65438,0.31993 -6.24739,3.35441 -7.5802,5.05347c-3.90626,4.97961 -5.76608,11.15852 -7.72188,17.28234c-11.82074,-10.05521 -19.43304,-25.81388 -19.43304,-43.52948z" fill="#101800" stroke="#000000" stroke-width="1.5" stroke-linecap="butt"/><path d="M393.70136,71.77931c-3.80964,13.73846 -21.57885,20.80469 -39.68864,15.78289c-18.10979,-5.02181 -29.70233,-20.23 -25.89268,-33.96846c3.80964,-13.73846 21.57885,-20.80469 39.68864,-15.78289c18.10979,5.02181 29.70233,20.23 25.89268,33.96846z" fill="#101800" stroke="#000000" stroke-width="1.5" stroke-linecap="butt"/><path d="M373.84614,54.88799c-5.65002,-1.56674 -8.92674,-7.5376 -7.31877,-13.3363c1.60797,-5.79869 7.49172,-9.22939 13.14174,-7.66265c5.65002,1.56674 8.92674,7.5376 7.31877,13.3363c-1.60797,5.79869 -7.49172,9.22939 -13.14174,7.66265z" data-paper-data="{&quot;index&quot;:null}" fill="#000000" stroke="#000000" stroke-width="1.5" stroke-linecap="butt"/><path d="M358.67016,28.06608c5.65002,1.56674 8.92675,7.5376 7.31878,13.33631c-1.60797,5.79869 -7.49173,9.22939 -13.14174,7.66265c-5.65002,-1.56674 -8.92674,-7.5376 -7.31877,-13.3363c1.60797,-5.79869 7.49172,-9.22939 13.14174,-7.66265z" data-paper-data="{&quot;index&quot;:null}" fill="#000000" stroke="#000000" stroke-width="1.5" stroke-linecap="butt"/><path d="M387.3148,72.22763c-2.66047,9.59428 -16.82227,14.04301 -31.63125,9.9365c-14.80898,-4.1065 -24.6573,-15.21318 -21.99682,-24.80746c2.66047,-9.59428 56.28856,5.27668 53.62808,14.87097z" fill="#000000" stroke="#000000" stroke-width="1.5" stroke-linecap="butt"/><path d="M360.98598,223.83426c-0.10853,0.1121 -0.21284,0.2255 -0.31316,0.34011c0.62493,-7.54736 6.51333,-19.28689 6.51333,-19.28689l31.6367,0.04332c0,0 7.34695,15.27709 7.56359,20.64873c0.30473,7.55601 -7.17335,22.40782 -7.17335,22.40782l-0.87559,-0.0012l-1.976,-2.60585c-0.87578,-0.22408 -1.81209,-0.28163 -2.62733,-0.67225c-0.19366,-0.0928 0.69673,-0.1525 0.56016,-0.31821c-1.43702,-1.74366 -2.68403,-3.96508 -4.78189,-4.80437c-3.31115,-1.32467 -7.0597,-1.66095 -10.61281,-1.35454c-1.38808,0.11971 -2.44987,0.25534 -3.24115,0.39999c-0.07033,-0.24945 -0.15077,-0.50394 -0.24189,-0.76357c-1.3702,-3.90442 -3.9004,-5.39448 -6.24157,-5.86239l-0.62105,-1.04814c-1.17933,-1.99035 -3.11797,-3.53082 -5.53636,-4.14962c-0.38218,-0.09779 -0.76491,-0.16964 -1.14634,-0.21664c-0.59083,-2.323 -1.10861,-3.9579 -0.88532,-2.75629z" data-paper-data="{&quot;index&quot;:null}" fill="#101800" stroke="#000000" stroke-width="1.5" stroke-linecap="butt"/><path d="M385.69589,48.13941c-0.48983,1.76643 -2.27117,2.81457 -3.97873,2.34107c-1.70756,-0.4735 -2.69473,-2.28935 -2.2049,-4.05578c0.48983,-1.76643 2.27117,-2.81457 3.97873,-2.34107c1.70755,0.4735 2.69473,2.28934 2.2049,4.05578z" fill="#000000" stroke="#ffffff" stroke-width="1.5" stroke-linecap="butt"/><path d="M364.61173,41.38544c-0.48983,1.76643 -2.27117,2.81457 -3.97872,2.34108c-1.70756,-0.4735 -2.69473,-2.28935 -2.2049,-4.05578c0.48983,-1.76643 2.27117,-2.81457 3.97873,-2.34107c1.70755,0.4735 2.69472,2.28934 2.20489,4.05578z" fill="#000000" stroke="#ffffff" stroke-width="1.5" stroke-linecap="butt"/><g fill="#000000" stroke="none" stroke-width="0" stroke-linecap="butt"><path d="M372.52302,321.61883v-18.07986h34.80373v18.07986z"/><path d="M368.00305,325.6868v-8.58793h63.27952v8.58793z"/></g><path d="M370.69949,295.559c0,0 -3.63073,-6.89082 -5.9782,-13.64562c1.83734,1.46508 -2.0679,-13.63668 -1.55504,-10.59508c-0.11037,0.11027 -0.21659,0.22191 -0.31879,0.33483c0.75079,-7.53588 6.83428,-19.17552 6.83428,-19.17552l31.63159,0.57126c0,0 7.09099,15.39757 7.21796,20.77207c0.17859,7.56004 -7.54628,22.28499 -7.54628,22.28499z" data-paper-data="{&quot;index&quot;:null}" fill="#000000" stroke="#000000" stroke-width="1.5" stroke-linecap="butt"/><path d="M378.49842,252.90946c-0.77455,-3.51686 1.51332,-7.00999 5.1101,-7.80212c3.59678,-0.79215 7.14045,1.41664 7.915,4.93349c0.77454,3.51684 -1.51335,7.00999 -5.11012,7.80213c-3.59678,0.79214 -7.14044,-1.41665 -7.91498,-4.93351z" data-paper-data="{&quot;index&quot;:null}" fill="url(#color-8)" stroke="none" stroke-width="0" stroke-linecap="butt"/><path d="M363.16625,271.3183c-0.11037,0.11027 -0.21659,0.22191 -0.31879,0.33483c0.75079,-7.53588 6.83428,-19.17552 6.83428,-19.17552l31.63159,0.57126c0,0 1.00907,2.19113 2.27273,5.20879c-5.08639,1.75409 -9.21548,3.7309 -9.97051,9.98103c-0.74806,6.19248 0.48105,15.54768 1.7367,21.66521c0.04583,0.22332 0.09032,0.44233 0.135,0.6575c0.10387,0.87351 0.33231,1.70882 0.66706,2.48764c0.39252,1.03766 0.97769,2.01578 2.00286,3.00582l-21.95214,-0.39645c0.13118,-0.16018 0.25698,-0.32493 0.37711,-0.49401c0.61551,-0.51721 0.91161,-1.25094 1.09414,-2.05992c0.36941,-0.98641 0.5714,-2.0546 0.5714,-3.16998c0,-0.23393 -0.00888,-0.46578 -0.02633,-0.69524c4.29731,-2.4556 2.8384,-12.03466 -0.13593,-15.16715c-4.18999,-4.41277 -9.57398,-5.18337 -14.76433,-2.63345c-0.17921,-0.60458 -0.26013,-0.74483 -0.15484,-0.1204z" data-paper-data="{&quot;index&quot;:null}" fill="#101800" stroke="#000000" stroke-width="1.5" stroke-linecap="butt"/></g><text transform="translate(376.4308,60.09649) scale(0.21213,0.21213)" font-size="40" xml:space="preserve" fill="#00b94d" fill-rule="nonzero" stroke="none" stroke-width="1" stroke-linecap="butt" stroke-linejoin="miter" stroke-miterlimit="10" stroke-dasharray="" stroke-dashoffset="0" font-family="&quot;ヒラギノ角ゴ Pro W3&quot;, &quot;Hiragino Kaku Gothic Pro&quot;, Osaka, &quot;メイリオ&quot;, Meiryo, &quot;ＭＳ Ｐゴシック&quot;, &quot;MS PGothic&quot;" font-weight="normal" text-anchor="start" style="mix-blend-mode: normal"><tspan x="0" dy="0">SCROLL TO TOGGLE</tspan></text><text transform="translate(395.33333,49.14447) scale(0.48985,0.48985)" font-size="40" xml:space="preserve" fill="#00ff6a" fill-rule="nonzero" stroke="none" stroke-width="1" stroke-linecap="butt" stroke-linejoin="miter" stroke-miterlimit="10" stroke-dasharray="" stroke-dashoffset="0" font-family="&quot;ヒラギノ角ゴ Pro W3&quot;, &quot;Hiragino Kaku Gothic Pro&quot;, Osaka, &quot;メイリオ&quot;, Meiryo, &quot;ＭＳ Ｐゴシック&quot;, &quot;MS PGothic&quot;" font-weight="normal" text-anchor="start" style="mix-blend-mode: normal"><tspan x="0" dy="0">OLD</tspan></text><text transform="translate(346.4308,323.09649) scale(0.21213,0.21213)" font-size="40" xml:space="preserve" fill="#00b94d" fill-rule="nonzero" stroke="none" stroke-width="1" stroke-linecap="butt" stroke-linejoin="miter" stroke-miterlimit="10" stroke-dasharray="" stroke-dashoffset="0" font-family="&quot;ヒラギノ角ゴ Pro W3&quot;, &quot;Hiragino Kaku Gothic Pro&quot;, Osaka, &quot;メイリオ&quot;, Meiryo, &quot;ＭＳ Ｐゴシック&quot;, &quot;MS PGothic&quot;" font-weight="normal" text-anchor="start" style="mix-blend-mode: normal"><tspan x="0" dy="0">CLICK TO SEE NEXT IMAGE</tspan></text></g></g></svg>