<svg version="1.1" xmlns="http://www.w3.org/2000/svg" xmlns:xlink="http://www.w3.org/1999/xlink" width="664.99912" height="467.97297" viewBox="0,0,664.99912,467.97297"><defs><linearGradient x1="237.1517" y1="299.36494" x2="237.1517" y2="372.9385" gradientUnits="userSpaceOnUse" id="color-1"><stop offset="0" stop-color="#c4c4c4"/><stop offset="1" stop-color="#9f9f9f"/></linearGradient><linearGradient x1="37.97324" y1="179.3028" x2="139.77884" y2="179.3028" gradientUnits="userSpaceOnUse" id="color-2"><stop offset="0" stop-color="#876923"/><stop offset="1" stop-color="#67491b"/></linearGradient><radialGradient cx="107.66339" cy="144.59016" r="48.2829" gradientUnits="userSpaceOnUse" id="color-3"><stop offset="0" stop-color="#ffffff"/><stop offset="1" stop-color="#e0f8ff"/></radialGradient><linearGradient x1="-1.13657" y1="218.51048" x2="157.57635" y2="218.51048" gradientUnits="userSpaceOnUse" id="color-4"><stop offset="0" stop-color="#876923"/><stop offset="1" stop-color="#67491b"/></linearGradient><linearGradient x1="9.86343" y1="270.01073" x2="145.78945" y2="270.01073" gradientUnits="userSpaceOnUse" id="color-5"><stop offset="0" stop-color="#68511b"/><stop offset="1" stop-color="#67491b"/></linearGradient><linearGradient x1="77.86379" y1="284.79952" x2="77.86379" y2="307.64698" gradientUnits="userSpaceOnUse" id="color-6"><stop offset="0" stop-color="#593f17"/><stop offset="1" stop-color="#443512"/></linearGradient><linearGradient x1="77.86379" y1="257.13282" x2="77.86379" y2="279.98026" gradientUnits="userSpaceOnUse" id="color-7"><stop offset="0" stop-color="#593f17"/><stop offset="1" stop-color="#443512"/></linearGradient><linearGradient x1="77.86379" y1="230.46619" x2="77.86379" y2="253.31365" gradientUnits="userSpaceOnUse" id="color-8"><stop offset="0" stop-color="#593f17"/><stop offset="1" stop-color="#443512"/></linearGradient><radialGradient cx="80.66339" cy="295.09183" r="5.87987" gradientUnits="userSpaceOnUse" id="color-9"><stop offset="0" stop-color="#ffffff"/><stop offset="1" stop-color="#fff7c7"/></radialGradient><radialGradient cx="80.66339" cy="267.42519" r="5.87987" gradientUnits="userSpaceOnUse" id="color-10"><stop offset="0" stop-color="#ffffff"/><stop offset="1" stop-color="#fff7c7"/></radialGradient><radialGradient cx="80.66339" cy="240.75854" r="5.87987" gradientUnits="userSpaceOnUse" id="color-11"><stop offset="0" stop-color="#ffffff"/><stop offset="1" stop-color="#fff7c7"/></radialGradient><linearGradient x1="456.56646" y1="227.82683" x2="456.56646" y2="384.08826" gradientUnits="userSpaceOnUse" id="color-12"><stop offset="0" stop-color="#ffffff"/><stop offset="1" stop-color="#737373"/></linearGradient><linearGradient x1="469.19875" y1="231.52567" x2="469.19875" y2="396.82189" gradientUnits="userSpaceOnUse" id="color-13"><stop offset="0" stop-color="#52bdce"/><stop offset="1" stop-color="#376474"/></linearGradient><radialGradient cx="350.92164" cy="217.2298" r="7.32283" gradientUnits="userSpaceOnUse" id="color-14"><stop offset="0" stop-color="#ffffff"/><stop offset="1" stop-color="#737373"/></radialGradient><radialGradient cx="327.29132" cy="273.2298" r="24.86999" gradientUnits="userSpaceOnUse" id="color-15"><stop offset="0" stop-color="#f1f1f1"/><stop offset="1" stop-color="#c0c0c0"/></radialGradient><radialGradient cx="311.28369" cy="270.2298" r="23.21198" gradientUnits="userSpaceOnUse" id="color-16"><stop offset="0" stop-color="#f1f1f1"/><stop offset="1" stop-color="#c0c0c0"/></radialGradient><radialGradient cx="327.67247" cy="161.22977" r="32.97576" gradientUnits="userSpaceOnUse" id="color-17"><stop offset="0" stop-color="#f1f1f1"/><stop offset="1" stop-color="#c0c0c0"/></radialGradient><radialGradient cx="311.28369" cy="167.22977" r="31.6862" gradientUnits="userSpaceOnUse" id="color-18"><stop offset="0" stop-color="#f1f1f1"/><stop offset="1" stop-color="#c0c0c0"/></radialGradient><radialGradient cx="328.05359" cy="105.7298" r="10.59278" gradientUnits="userSpaceOnUse" id="color-19"><stop offset="0" stop-color="#f1f1f1"/><stop offset="1" stop-color="#c0c0c0"/></radialGradient><radialGradient cx="311.66481" cy="112.2298" r="10.04011" gradientUnits="userSpaceOnUse" id="color-20"><stop offset="0" stop-color="#f1f1f1"/><stop offset="1" stop-color="#c0c0c0"/></radialGradient><linearGradient x1="331.4838" y1="220.7298" x2="337.58194" y2="220.7298" gradientUnits="userSpaceOnUse" id="color-21"><stop offset="0" stop-color="#737373"/><stop offset="1" stop-color="#a0a0a0"/></linearGradient><radialGradient cx="331.4838" cy="216.2298" r="7.32283" gradientUnits="userSpaceOnUse" id="color-22"><stop offset="0" stop-color="#ffffff"/><stop offset="1" stop-color="#737373"/></radialGradient><radialGradient cx="240" cy="180" r="305.33236" gradientUnits="userSpaceOnUse" id="color-23"><stop offset="0" stop-color="#000000" stop-opacity="0"/><stop offset="1" stop-color="#000000"/></radialGradient><radialGradient cx="240.00001" cy="180.00001" r="305.33236" gradientUnits="userSpaceOnUse" id="color-24"><stop offset="0" stop-color="#000000" stop-opacity="0"/><stop offset="1" stop-color="#000000"/></radialGradient></defs><g transform="translate(58.048,58.24317)"><g data-paper-data="{&quot;isPaintingLayer&quot;:true}" fill-rule="nonzero" stroke-width="0" stroke-linecap="butt" stroke-linejoin="miter" stroke-miterlimit="10" stroke-dasharray="" stroke-dashoffset="0" style="mix-blend-mode: normal"><path d="M147.91396,312.96306v-243.55706h211v243.55706z" fill="#000000" stroke="none"/><path d="M-35.03,401.21629v-459.45946h635.13513v459.45946zM168.49703,305.24326l130,1v-212h-131z" fill="#232332" stroke="#000000"/><path d="M-58.048,409.7298v-459.45946h81.08108v459.45946z" fill="#13131b" stroke="#000000"/><path d="M456.96703,409.7298v-459.45946h81.08108v459.45946z" fill="#13131b" stroke="#000000"/><path d="M-25.37233,327.84498l48.15529,-28.48009h434.95105l41.9417,28.48009l-7.03972,44.95714l-507.98732,0.13633z" fill="url(#color-1)" stroke="none"/><path d="M37.97324,238.12318c0,0 0,-86.32806 0,-104.54664c0,-6.44759 5.38168,-13.09411 10.69015,-13.09411c11.49721,0 56.41459,0 78.66667,0c7.74308,0 12.44878,7.78312 12.44878,15.02949c0,18.93415 0,102.61126 0,102.61126z" fill="url(#color-2)" stroke="none"/><path d="M43.222,222.64495c0,0 0,-75.71501 0,-89.06841c0,-3.87423 2.71985,-7.49739 5.77472,-7.49739c9.52433,0 59.72684,0 78.33333,0c4.32745,0 6.9458,3.62316 6.9458,7.49739c0,13.35341 0,89.06841 0,89.06841z" fill="url(#color-3)" stroke="none"/><path d="M9.86343,225.92535l12.64411,-14.82974h135.06881l-11.45092,14.76089z" fill="url(#color-4)" stroke="none"/><path d="M145.49854,314.5459l-0.04509,-88.07163l12.1229,-15.384v88.41162z" fill="#413311" stroke="none"/><path d="M9.86343,314.54986v-89.07827h135.92601v89.07827z" fill="url(#color-5)" stroke="none"/><path d="M15.14761,307.64698v-22.84746h125.43238v22.84746z" fill="url(#color-6)" stroke="#854300"/><path d="M15.14761,279.98026v-22.84746h125.43238v22.84746z" fill="url(#color-7)" stroke="#854300"/><path d="M15.14761,253.31365v-22.84746h125.43238v22.84746z" fill="url(#color-8)" stroke="#854300"/><path d="M83.35687,296.27199c0,3.24736 -2.63251,5.87986 -5.87987,5.87986c-3.24736,0 -5.87987,-2.63251 -5.87987,-5.87986c0,-3.24736 2.63251,-5.87987 5.87987,-5.87987c3.24736,0 5.87987,2.63251 5.87987,5.87987z" fill="url(#color-9)" stroke="none"/><path d="M83.35687,268.60535c0,3.24736 -2.63251,5.87986 -5.87987,5.87986c-3.24736,0 -5.87987,-2.63251 -5.87987,-5.87986c0,-3.24736 2.63251,-5.87987 5.87987,-5.87987c3.24736,0 5.87987,2.63251 5.87987,5.87987z" fill="url(#color-10)" stroke="none"/><path d="M83.35687,241.93868c0,3.24736 -2.63251,5.87986 -5.87987,5.87986c-3.24736,0 -5.87987,-2.63251 -5.87987,-5.87986c0,-3.24736 2.63251,-5.87987 5.87987,-5.87987c3.24736,0 5.87987,2.63251 5.87987,5.87987z" fill="url(#color-11)" stroke="none"/><path d="M438.86082,380.85205c-22.11992,-3.91562 -103.20453,-63.53633 -106.62262,-85.94348c-2.94985,-19.33758 -6.19523,-50.41845 3.45043,-57.96564c8.75794,-6.8526 116.11252,-13.67531 139.24308,-4.18892c31.50566,12.92121 86.41726,29.79892 106.81542,63.19818c11.27163,18.45579 1.75291,67.66634 -10.01647,77.70194c-16.50027,14.06957 -110.84044,11.09753 -132.86985,7.19792z" fill="url(#color-12)" stroke="none"/><path d="M450.46939,393.39857c-23.39886,-4.14202 -109.17165,-67.20991 -112.78737,-90.9126c-3.1204,-20.45567 -6.55342,-53.33358 3.64993,-61.31713c9.26431,-7.24881 122.82596,-14.466 147.2939,-4.43112c33.32727,13.6683 91.41377,24.0939 112.99132,59.42425c11.92334,19.52287 1.85427,79.00665 -10.5956,89.62249c-17.45429,14.88306 -117.24905,11.73917 -140.55218,7.6141z" fill="url(#color-13)" stroke="none"/><g><path d="M348.58793,210.42788c4.04428,0 7.32283,4.13873 7.32283,9.24411c0,5.10538 -3.27855,9.24412 -7.32283,9.24412c-4.04428,0 -7.32283,-4.13874 -7.32283,-9.24412c0,-5.10538 3.27855,-9.24411 7.32283,-9.24411z" data-paper-data="{&quot;index&quot;:null}" fill="url(#color-14)" stroke="none"/><path d="M298.19521,299.96567v-205.3987l42.5693,-21.95802l0.63162,256.35788z" fill="#f1f1f1" stroke="#000000"/><path d="M340.69363,329.16285v-256.66021h8.28999v256.66021z" fill="#a8a8a8" stroke="none"/><path d="M319.76565,299.67677v-58.46902l12.89556,1.41676v64.83583z" fill="url(#color-15)" stroke="#909090"/><path d="M302.81721,290.47642v-52.61884l12.89556,2.40011v57.00231z" fill="url(#color-16)" stroke="#909090"/><path d="M333.39811,117.98615v84.10335l-12.89555,2.91676v-81.21987z" data-paper-data="{&quot;index&quot;:null}" fill="url(#color-17)" stroke="#909090"/><path d="M316.44969,125.7198v80.73652l-12.89555,2.40011v-77.09473z" data-paper-data="{&quot;index&quot;:null}" fill="url(#color-18)" stroke="#909090"/><path d="M333.39811,89.90176v23.25086l-12.89554,6.04191v-22.00918z" data-paper-data="{&quot;index&quot;:null}" fill="url(#color-19)" stroke="#909090"/><path d="M316.44969,99.6021v20.80081l-12.89555,6.04191v-20.05912z" data-paper-data="{&quot;index&quot;:null}" fill="url(#color-20)" stroke="#909090"/><path d="M342.37482,234.49508v-22.4759h4.78977v22.4759z" fill="#737373" stroke="none"/><path d="M343.29594,228.93652v-14.50057h2.94756v14.50057z" fill="#2d2d2d" stroke="none"/><path d="M331.4838,234.2298v-27l6.09814,-2v31z" fill="url(#color-21)" stroke="none"/><path d="M336.64638,219.46485c0,5.10539 -3.27854,9.24411 -7.32283,9.24411c-4.04429,0 -7.32283,-4.13872 -7.32283,-9.24411c0,-5.10539 3.27854,-9.24412 7.32283,-9.24412c4.04429,0 7.32283,4.13873 7.32283,9.24412z" fill="url(#color-22)" stroke="none"/></g><path d="M-16.75676,373.73427v-387.46855h513.51351v387.46855z" fill="url(#color-23)" stroke="none"/><path d="M-16.75675,373.73428v-387.46855h513.51351v387.46855z" fill="url(#color-24)" stroke="none"/></g></g></svg>