<svg version="1.1" xmlns="http://www.w3.org/2000/svg" xmlns:xlink="http://www.w3.org/1999/xlink" width="759.06907" height="516.91521" viewBox="0,0,759.06907,516.91521"><defs><linearGradient x1="13.40916" y1="211.73771" x2="400.62841" y2="211.73771" gradientUnits="userSpaceOnUse" id="color-1"><stop offset="0" stop-color="#343c31"/><stop offset="1" stop-color="#1c201a"/></linearGradient><linearGradient x1="183.09321" y1="73.61452" x2="183.09321" y2="224.36661" gradientUnits="userSpaceOnUse" id="color-2"><stop offset="0" stop-color="#171717"/><stop offset="1" stop-color="#171717" stop-opacity="0"/></linearGradient><linearGradient x1="373.23597" y1="121.87323" x2="391.84903" y2="121.87323" gradientUnits="userSpaceOnUse" id="color-3"><stop offset="0" stop-color="#6e6e6e"/><stop offset="1" stop-color="#525252"/></linearGradient><linearGradient x1="382.63685" y1="129.29356" x2="382.63685" y2="134.38581" gradientUnits="userSpaceOnUse" id="color-4"><stop offset="0" stop-color="#9c9c9c"/><stop offset="1" stop-color="#767676"/></linearGradient><linearGradient x1="382.81246" y1="111.0317" x2="382.81246" y2="116.12395" gradientUnits="userSpaceOnUse" id="color-5"><stop offset="0" stop-color="#9c9c9c"/><stop offset="1" stop-color="#767676"/></linearGradient><linearGradient x1="382.81246" y1="91.01389" x2="382.81246" y2="96.10614" gradientUnits="userSpaceOnUse" id="color-6"><stop offset="0" stop-color="#9c9c9c"/><stop offset="1" stop-color="#767676"/></linearGradient><linearGradient x1="382.98807" y1="72.75204" x2="382.98807" y2="77.84428" gradientUnits="userSpaceOnUse" id="color-7"><stop offset="0" stop-color="#9c9c9c"/><stop offset="1" stop-color="#767676"/></linearGradient><linearGradient x1="382.63685" y1="54.66577" x2="382.63685" y2="59.75802" gradientUnits="userSpaceOnUse" id="color-8"><stop offset="0" stop-color="#9c9c9c"/><stop offset="1" stop-color="#767676"/></linearGradient><linearGradient x1="382.81246" y1="36.40391" x2="382.81246" y2="41.49616" gradientUnits="userSpaceOnUse" id="color-9"><stop offset="0" stop-color="#9c9c9c"/><stop offset="1" stop-color="#767676"/></linearGradient><linearGradient x1="382.63685" y1="16.38611" x2="382.63685" y2="21.47836" gradientUnits="userSpaceOnUse" id="color-10"><stop offset="0" stop-color="#9c9c9c"/><stop offset="1" stop-color="#767676"/></linearGradient><linearGradient x1="382.81246" y1="-1.87574" x2="382.81246" y2="3.21651" gradientUnits="userSpaceOnUse" id="color-11"><stop offset="0" stop-color="#9c9c9c"/><stop offset="1" stop-color="#767676"/></linearGradient><linearGradient x1="392.09325" y1="22.61452" x2="392.09325" y2="173.36661" gradientUnits="userSpaceOnUse" id="color-12"><stop offset="0" stop-color="#171717"/><stop offset="1" stop-color="#171717" stop-opacity="0"/></linearGradient><linearGradient x1="337.99627" y1="96.25" x2="347.49627" y2="96.25" gradientUnits="userSpaceOnUse" id="color-13"><stop offset="0" stop-color="#7a7a7a"/><stop offset="1" stop-color="#bdbdbd"/></linearGradient><linearGradient x1="233.99626" y1="156.75" x2="243.49626" y2="156.75" gradientUnits="userSpaceOnUse" id="color-14"><stop offset="0" stop-color="#7a7a7a"/><stop offset="1" stop-color="#bdbdbd"/></linearGradient><linearGradient x1="146.91332" y1="29.67214" x2="147.66494" y2="39.14236" gradientUnits="userSpaceOnUse" id="color-15"><stop offset="0" stop-color="#7a7a7a"/><stop offset="1" stop-color="#bdbdbd"/></linearGradient><linearGradient x1="133.49626" y1="195.9147" x2="142.99626" y2="195.9147" gradientUnits="userSpaceOnUse" id="color-16"><stop offset="0" stop-color="#7a7a7a"/><stop offset="1" stop-color="#bdbdbd"/></linearGradient><linearGradient x1="436.99627" y1="108.90854" x2="446.49627" y2="108.90854" gradientUnits="userSpaceOnUse" id="color-17"><stop offset="0" stop-color="#bdbdbd"/><stop offset="1" stop-color="#7a7a7a"/></linearGradient><linearGradient x1="389.59011" y1="21.22098" x2="389.31879" y2="30.71711" gradientUnits="userSpaceOnUse" id="color-18"><stop offset="0" stop-color="#7a7a7a"/><stop offset="1" stop-color="#bdbdbd"/></linearGradient><linearGradient x1="295.25295" y1="160.20767" x2="511.46922" y2="160.20767" gradientUnits="userSpaceOnUse" id="color-19"><stop offset="0" stop-color="#222720"/><stop offset="1" stop-color="#2d342a"/></linearGradient><linearGradient x1="-62.59083" y1="186.23771" x2="324.62838" y2="186.23771" gradientUnits="userSpaceOnUse" id="color-20"><stop offset="0" stop-color="#343c31"/><stop offset="1" stop-color="#1c201a"/></linearGradient><linearGradient x1="294.40004" y1="129.28392" x2="297.60004" y2="128.71608" gradientUnits="userSpaceOnUse" id="color-21"><stop offset="0" stop-color="#303030"/><stop offset="1" stop-color="#323232"/></linearGradient><linearGradient x1="293.41542" y1="129.45864" x2="298.58466" y2="128.54136" gradientUnits="userSpaceOnUse" id="color-22"><stop offset="0" stop-color="#444444"/><stop offset="1" stop-color="#616161"/></linearGradient><linearGradient x1="293.41542" y1="129.45864" x2="298.58466" y2="128.54136" gradientUnits="userSpaceOnUse" id="color-23"><stop offset="0" stop-color="#a1a1a1"/><stop offset="1" stop-color="#707070"/></linearGradient><linearGradient x1="283.06669" y1="136.95059" x2="286.26671" y2="136.38275" gradientUnits="userSpaceOnUse" id="color-24"><stop offset="0" stop-color="#303030"/><stop offset="1" stop-color="#323232"/></linearGradient><linearGradient x1="282.08209" y1="137.12531" x2="287.25131" y2="136.20803" gradientUnits="userSpaceOnUse" id="color-25"><stop offset="0" stop-color="#444444"/><stop offset="1" stop-color="#616161"/></linearGradient><linearGradient x1="282.08209" y1="137.12531" x2="287.25131" y2="136.20803" gradientUnits="userSpaceOnUse" id="color-26"><stop offset="0" stop-color="#a1a1a1"/><stop offset="1" stop-color="#707070"/></linearGradient><radialGradient cx="240.00001" cy="180" r="288.28829" gradientUnits="userSpaceOnUse" id="color-27"><stop offset="0" stop-color="#171717" stop-opacity="0"/><stop offset="1" stop-color="#171717"/></radialGradient></defs><g transform="translate(225.57281,98.7258)"><g data-paper-data="{&quot;isPaintingLayer&quot;:true}" fill-rule="nonzero" stroke-linejoin="miter" stroke-miterlimit="10" stroke-dasharray="" stroke-dashoffset="0" style="mix-blend-mode: normal"><path d="M13.40916,409.9359v-396.39639h387.21921v396.39639z" fill="url(#color-1)" stroke="none" stroke-width="0" stroke-linecap="butt"/><path d="M-225.5728,333.92242l338.36936,-212.68469l133.94102,19.22014l41.22416,181.96605z" fill="#7f7f7f" stroke="none" stroke-width="NaN" stroke-linecap="butt"/><path d="M125.1902,292.61453l-2,-272l128.80606,-5l-12,208.75208z" data-paper-data="{&quot;index&quot;:null}" fill="url(#color-2)" stroke="none" stroke-width="0" stroke-linecap="butt"/><path d="M378.99627,156.5v-157.5h86.5v157.5z" fill="#343c31" stroke="none" stroke-width="0" stroke-linecap="butt"/><path d="M303.4527,184.5l76,-51l144,13l-8,67z" fill="#7f7f7f" stroke="none" stroke-width="0" stroke-linecap="butt"/><g><path d="M376.75561,-10.1759l-0.70238,149.60676" fill="none" stroke="#909090" stroke-width="2" stroke-linecap="round"/><path d="M373.23597,139.3259v-149.85113h18.61305v150.00893c0,0 0.33989,3.4609 -9.48212,3.57797c-9.25557,0.11032 -9.13093,-3.73577 -9.13093,-3.73577z" fill="url(#color-3)" stroke="none" stroke-width="0" stroke-linecap="butt"/><path d="M372.62798,132.98105v-3.51189c0,0 6.36137,1.40475 9.63263,1.40475c3.39663,0 10.38518,-1.58035 10.38518,-1.58035v3.3363c0,0 -6.98854,1.75594 -10.38518,1.75594c-3.27125,0 -9.63263,-1.40475 -9.63263,-1.40475z" fill="url(#color-4)" stroke="none" stroke-width="0" stroke-linecap="butt"/><path d="M372.80355,114.71919v-3.51189c0,0 6.36138,1.40475 9.63263,1.40475c3.39663,0 10.38518,-1.58035 10.38518,-1.58035v3.3363c0,0 -6.98854,1.75594 -10.38518,1.75594c-3.27125,0 -9.63263,-1.40476 -9.63263,-1.40476z" fill="url(#color-5)" stroke="none" stroke-width="0" stroke-linecap="butt"/><path d="M372.80355,94.70138v-3.51189c0,0 6.36138,1.40475 9.63263,1.40475c3.39663,0 10.38518,-1.58035 10.38518,-1.58035v3.33629c0,0 -6.98854,1.75594 -10.38518,1.75594c-3.27125,0 -9.63263,-1.40475 -9.63263,-1.40475z" fill="url(#color-6)" stroke="none" stroke-width="0" stroke-linecap="butt"/><path d="M372.97916,76.43952v-3.51189c0,0 6.36138,1.40475 9.63263,1.40475c3.39663,0 10.38518,-1.58035 10.38518,-1.58035v3.33629c0,0 -6.98854,1.75594 -10.38518,1.75594c-3.27125,0 -9.63263,-1.40475 -9.63263,-1.40475z" fill="url(#color-7)" stroke="none" stroke-width="0" stroke-linecap="butt"/><path d="M372.62798,58.35327v-3.5119c0,0 6.36137,1.40476 9.63263,1.40476c3.39663,0 10.38518,-1.58035 10.38518,-1.58035v3.3363c0,0 -6.98854,1.75594 -10.38518,1.75594c-3.27125,0 -9.63263,-1.40476 -9.63263,-1.40476z" fill="url(#color-8)" stroke="none" stroke-width="0" stroke-linecap="butt"/><path d="M372.80355,40.09141v-3.5119c0,0 6.36138,1.40476 9.63263,1.40476c3.39663,0 10.38518,-1.58035 10.38518,-1.58035v3.3363c0,0 -6.98854,1.75595 -10.38518,1.75595c-3.27125,0 -9.63263,-1.40476 -9.63263,-1.40476z" fill="url(#color-9)" stroke="none" stroke-width="0" stroke-linecap="butt"/><path d="M372.62798,20.0736v-3.5119c0,0 6.36137,1.40476 9.63263,1.40476c3.39663,0 10.38518,-1.58036 10.38518,-1.58036v3.3363c0,0 -6.98854,1.75595 -10.38518,1.75595c-3.27125,0 -9.63263,-1.40476 -9.63263,-1.40476z" fill="url(#color-10)" stroke="none" stroke-width="0" stroke-linecap="butt"/><path d="M372.80355,1.81175v-3.51189c0,0 6.36138,1.40476 9.63263,1.40476c3.39663,0 10.38518,-1.58035 10.38518,-1.58035v3.3363c0,0 -6.98854,1.75595 -10.38518,1.75595c-3.27125,0 -9.63263,-1.40476 -9.63263,-1.40476z" fill="url(#color-11)" stroke="none" stroke-width="0" stroke-linecap="butt"/></g><path d="M335.19018,173.36661v-150.75208h113.80606v165z" fill="url(#color-12)" stroke="none" stroke-width="0" stroke-linecap="butt"/><path d="M337.99627,172.25v-152.5h9.5v153.75z" fill="url(#color-13)" stroke="none" stroke-width="0" stroke-linecap="butt"/><path d="M233.99626,232.75l1.5,-210.5l8,1.5v210.25z" fill="url(#color-14)" stroke="none" stroke-width="0" stroke-linecap="butt"/><path d="M71.15157,35.68544l209.95875,-15.15997l-0.86232,8.0936l-209.59085,16.63549z" fill="url(#color-15)" stroke="none" stroke-width="0" stroke-linecap="butt"/><path d="M133.49626,290.93713l1.5,-263.18713l8,1.87544v262.87456z" fill="url(#color-16)" stroke="none" stroke-width="0" stroke-linecap="butt"/><path d="M436.99627,186.55623v-155.80623h9.5v157.08333z" fill="url(#color-17)" stroke="none" stroke-width="0" stroke-linecap="butt"/><path d="M313.62107,19.05044l152.43779,4.35537l-0.27132,9.49612l-153.68728,-4.39107z" fill="url(#color-18)" stroke="none" stroke-width="0" stroke-linecap="butt"/><path d="M295.25295,358.40587v-396.39639h216.21621v396.39639zM441.45273,192.5l-1,-164l-97,-3v152z" fill="url(#color-19)" stroke="none" stroke-width="0" stroke-linecap="butt"/><path d="M459.25303,357.89836v-396.39639h74.24324v396.39639z" fill="#1a1e19" stroke="none" stroke-width="0" stroke-linecap="butt"/><path d="M-62.59083,384.4359v-396.39639h387.21921v396.39639zM137.95272,290l100.5,-63l1.5,-199l-101,8z" fill="url(#color-20)" stroke="none" stroke-width="0" stroke-linecap="butt"/><path d="M-13.57282,382.92242l338.36936,-212.68469l133.94102,19.22014l41.22416,181.96605z" fill="#7f7f7f" stroke="none" stroke-width="NaN" stroke-linecap="butt"/><path d="M289.29112,192.38541l4.91111,-2.88889l17.42222,9.22222l-4.8,2.86667z" fill="#565656" stroke="none" stroke-width="0" stroke-linecap="butt"/><path d="M277.95777,200.05208l4.91111,-2.88889l17.42222,9.22222l-4.8,2.86667z" fill="#565656" stroke="none" stroke-width="0" stroke-linecap="butt"/><path d="M281.42445,60.34097l5.2,0.06666l7.55556,129.08889l-4.88889,2.88889z" fill="#1b1e19" stroke="none" stroke-width="0" stroke-linecap="butt"/><path d="M270.0911,68.00764l5.2,0.06666l7.55556,129.08889l-4.88889,2.88889z" fill="#1b1e19" stroke="none" stroke-width="0" stroke-linecap="butt"/><g stroke="none" stroke-width="0" stroke-linecap="butt"><path d="M307.14831,201.12589l-25.49655,-143.68394l3.20001,-0.56784l25.49655,143.68394z" fill="url(#color-21)"/><path d="M305.68944,198.62807l-24.54807,-138.33887l5.16925,-0.91728l24.54807,138.33887z" fill="url(#color-22)"/><path d="M304.9469,194.44344l-23.06295,-129.96961l5.16925,-0.91728l23.06295,129.96961z" fill="url(#color-23)"/></g><g stroke="none" stroke-width="0" stroke-linecap="butt"><path d="M295.81498,208.79256l-25.49655,-143.68394l3.20001,-0.56784l25.49655,143.68394z" fill="url(#color-24)"/><path d="M294.35611,206.29474l-24.54807,-138.33887l5.16925,-0.91728l24.54807,138.33887z" fill="url(#color-25)"/><path d="M293.61355,202.11011l-23.06295,-129.96961l5.16925,-0.91728l23.06295,129.96961z" fill="url(#color-26)"/></g><path d="M-207.47722,-98.7258c0,0.00004 0,0.00004 0,0.00004c0,0 0,0 -0.00004,0z" fill="#004cff" stroke="#000000" stroke-width="0" stroke-linecap="butt"/><path d="M-48.28828,418.18941v-476.37882h576.57658v476.37882z" fill="url(#color-27)" stroke="none" stroke-width="0" stroke-linecap="butt"/></g></g></svg>