<svg version="1.1" xmlns="http://www.w3.org/2000/svg" xmlns:xlink="http://www.w3.org/1999/xlink" width="439.93994" height="337.45947" viewBox="0,0,439.93994,337.45947"><defs><linearGradient x1="147.22035" y1="161.47098" x2="338.72035" y2="161.47098" gradientUnits="userSpaceOnUse" id="color-1"><stop offset="0" stop-color="#9f9f9f"/><stop offset="1" stop-color="#737373"/></linearGradient><linearGradient x1="324.9264" y1="221.18365" x2="324.9264" y2="224.18365" gradientUnits="userSpaceOnUse" id="color-2"><stop offset="0" stop-color="#b6b6b6"/><stop offset="1" stop-color="#555555"/></linearGradient><linearGradient x1="359.6764" y1="221.18365" x2="359.6764" y2="224.18365" gradientUnits="userSpaceOnUse" id="color-3"><stop offset="0" stop-color="#b6b6b6"/><stop offset="1" stop-color="#555555"/></linearGradient><linearGradient x1="291.72641" y1="221.18365" x2="291.72641" y2="224.18365" gradientUnits="userSpaceOnUse" id="color-4"><stop offset="0" stop-color="#b6b6b6"/><stop offset="1" stop-color="#555555"/></linearGradient><linearGradient x1="258.92639" y1="221.18365" x2="258.92639" y2="224.18365" gradientUnits="userSpaceOnUse" id="color-5"><stop offset="0" stop-color="#b6b6b6"/><stop offset="1" stop-color="#555555"/></linearGradient><linearGradient x1="225.72641" y1="221.18365" x2="225.72641" y2="224.18365" gradientUnits="userSpaceOnUse" id="color-6"><stop offset="0" stop-color="#b6b6b6"/><stop offset="1" stop-color="#555555"/></linearGradient><linearGradient x1="193.25974" y1="221.01697" x2="193.25974" y2="224.01697" gradientUnits="userSpaceOnUse" id="color-7"><stop offset="0" stop-color="#b6b6b6"/><stop offset="1" stop-color="#555555"/></linearGradient><linearGradient x1="160.05973" y1="221.01697" x2="160.05973" y2="224.01697" gradientUnits="userSpaceOnUse" id="color-8"><stop offset="0" stop-color="#b6b6b6"/><stop offset="1" stop-color="#555555"/></linearGradient><linearGradient x1="127.30973" y1="221.01697" x2="127.30973" y2="224.01697" gradientUnits="userSpaceOnUse" id="color-9"><stop offset="0" stop-color="#b6b6b6"/><stop offset="1" stop-color="#555555"/></linearGradient><linearGradient x1="115.22035" y1="181.97098" x2="368.72035" y2="181.97098" gradientUnits="userSpaceOnUse" id="color-10"><stop offset="0" stop-color="#b0b0b0"/><stop offset="1" stop-color="#888888"/></linearGradient><radialGradient cx="253.73148" cy="143.69676" r="42.83334" gradientUnits="userSpaceOnUse" id="color-11"><stop offset="0" stop-color="#00ce98"/><stop offset="1" stop-color="#00aa7c"/></radialGradient><radialGradient cx="275.74216" cy="150.33373" r="14.13459" gradientTransform="translate(-893.61192,-563.61258) scale(3.59402,3.59402)" gradientUnits="userSpaceOnUse" id="color-12"><stop offset="0" stop-color="#525252"/><stop offset="1" stop-color="#000000"/></radialGradient><radialGradient cx="264.31359" cy="160.61944" r="13.88417" gradientTransform="translate(-866.19562,-600.92932) scale(3.59402,3.59402)" gradientUnits="userSpaceOnUse" id="color-13"><stop offset="0" stop-color="#525252"/><stop offset="1" stop-color="#000000"/></radialGradient><radialGradient cx="227.76253" cy="154.54024" r="15.57031" gradientTransform="translate(-762.62266,-567.42044) scale(3.59402,3.59402)" gradientUnits="userSpaceOnUse" id="color-14"><stop offset="0" stop-color="#e8ff00"/><stop offset="1" stop-color="#cac602"/></radialGradient><radialGradient cx="277.88478" cy="164.61931" r="5.75713" gradientTransform="translate(-1630.08742,-1010.27967) scale(6.0412,6.0412)" gradientUnits="userSpaceOnUse" id="color-15"><stop offset="0" stop-color="#525252"/><stop offset="1" stop-color="#000000"/></radialGradient><radialGradient cx="258.17063" cy="187.50827" r="11.9" gradientUnits="userSpaceOnUse" id="color-16"><stop offset="0" stop-color="#bcbcbc"/><stop offset="1" stop-color="#aeaeae"/></radialGradient><radialGradient cx="249.61805" cy="191.11713" r="10.1" gradientUnits="userSpaceOnUse" id="color-17"><stop offset="0" stop-color="#90e0ff"/><stop offset="1" stop-color="#8cd3fc"/></radialGradient><radialGradient cx="244.31349" cy="186.65113" r="11.9" gradientUnits="userSpaceOnUse" id="color-18"><stop offset="0" stop-color="#bcbcbc"/><stop offset="1" stop-color="#aeaeae"/></radialGradient><radialGradient cx="236.84028" cy="190.00602" r="10.1" gradientUnits="userSpaceOnUse" id="color-19"><stop offset="0" stop-color="#90e0ff"/><stop offset="1" stop-color="#8cd3fc"/></radialGradient><linearGradient x1="356.6236" y1="183.99437" x2="356.6236" y2="215.24437" gradientUnits="userSpaceOnUse" id="color-20"><stop offset="0" stop-color="#3a3a3a"/><stop offset="1" stop-color="#9a9a9a"/></linearGradient><linearGradient x1="199.89633" y1="183.99437" x2="199.89633" y2="215.24437" gradientUnits="userSpaceOnUse" id="color-21"><stop offset="0" stop-color="#3a3a3a"/><stop offset="1" stop-color="#9a9a9a"/></linearGradient><linearGradient x1="324.89633" y1="183.99437" x2="324.89633" y2="215.24437" gradientUnits="userSpaceOnUse" id="color-22"><stop offset="0" stop-color="#3a3a3a"/><stop offset="1" stop-color="#9a9a9a"/></linearGradient><linearGradient x1="126.89632" y1="183.99437" x2="126.89632" y2="215.24437" gradientUnits="userSpaceOnUse" id="color-23"><stop offset="0" stop-color="#3a3a3a"/><stop offset="1" stop-color="#9a9a9a"/></linearGradient><linearGradient x1="162.89633" y1="183.99437" x2="162.89633" y2="215.24437" gradientUnits="userSpaceOnUse" id="color-24"><stop offset="0" stop-color="#3a3a3a"/><stop offset="1" stop-color="#9a9a9a"/></linearGradient><linearGradient x1="291.89633" y1="183.99437" x2="291.89633" y2="215.24437" gradientUnits="userSpaceOnUse" id="color-25"><stop offset="0" stop-color="#3a3a3a"/><stop offset="1" stop-color="#9a9a9a"/></linearGradient><linearGradient x1="242.04722" y1="175.4022" x2="242.04722" y2="186.9193" gradientUnits="userSpaceOnUse" id="color-26"><stop offset="0" stop-color="#888888"/><stop offset="1" stop-color="#5d5d5d"/></linearGradient></defs><g transform="translate(-20.03003,-9.80069)"><g data-paper-data="{&quot;isPaintingLayer&quot;:true}" fill-rule="nonzero" stroke-linecap="butt" stroke-linejoin="miter" stroke-miterlimit="10" stroke-dasharray="" stroke-dashoffset="0" style="mix-blend-mode: normal"><path d="M20.03003,255.66856v-245.86788h439.93994v245.86788z" fill="#82d7ff" stroke="#000000" stroke-width="0"/><path d="M147.22035,188.72098v-54.5h191.5v54.5z" fill="url(#color-1)" stroke="#000000" stroke-width="0"/><path d="M20.03003,347.26016v-150.63827h439.93994v150.63827z" fill="#00a743" stroke="#000000" stroke-width="0"/><path d="M40.50001,284.13325v-87.52703h396v87.52703z" fill="#363636" stroke="none" stroke-width="0"/><path d="M106.33835,217.1621v-20h273v20z" fill="#cecece" stroke="none" stroke-width="0"/><path d="M313.25973,224.18365v-3h23.33333v3z" fill="url(#color-2)" stroke="#000000" stroke-width="0"/><path d="M348.00973,224.18365v-3h23.33333v3z" fill="url(#color-3)" stroke="#000000" stroke-width="0"/><path d="M280.05974,224.18365v-3h23.33333v3z" fill="url(#color-4)" stroke="#000000" stroke-width="0"/><path d="M247.25973,224.18365v-3h23.33333v3z" fill="url(#color-5)" stroke="#000000" stroke-width="0"/><path d="M214.05974,224.18365v-3h23.33334v3z" fill="url(#color-6)" stroke="#000000" stroke-width="0"/><path d="M181.59307,224.01697v-3h23.33333v3z" fill="url(#color-7)" stroke="#000000" stroke-width="0"/><path d="M148.39306,224.01697v-3h23.33334v3z" fill="url(#color-8)" stroke="#000000" stroke-width="0"/><path d="M115.64306,224.01697v-3h23.33334v3z" fill="url(#color-9)" stroke="#000000" stroke-width="0"/><path d="M115.22035,209.22098v-54.5h253.5v54.5z" fill="url(#color-10)" stroke="#000000" stroke-width="0"/><g><path d="M202.1667,174.22861v-35h85.66667v35z" fill="url(#color-11)" stroke="#000000" stroke-width="0"/><g><text transform="translate(248.63858,156.81956) scale(0.27824,0.27824)" font-size="40" xml:space="preserve" fill="url(#color-12)" fill-rule="nonzero" stroke="none" stroke-width="1" stroke-linecap="butt" stroke-linejoin="miter" stroke-miterlimit="10" stroke-dasharray="" stroke-dashoffset="0" font-family="Marker" font-weight="normal" text-anchor="start" style="mix-blend-mode: normal"><tspan x="0" dy="0">Great</tspan></text><text transform="translate(241.01027,167.20257) scale(0.27824,0.27824)" font-size="40" xml:space="preserve" fill="url(#color-13)" fill-rule="nonzero" stroke="none" stroke-width="1" stroke-linecap="butt" stroke-linejoin="miter" stroke-miterlimit="10" stroke-dasharray="" stroke-dashoffset="0" font-family="Marker" font-weight="normal" text-anchor="start" style="mix-blend-mode: normal"><tspan x="0" dy="0">Finds</tspan></text><g><path d="M247.04426,149.91791c1.71864,6.08133 -5.42415,13.42357 -15.95385,16.39935c-10.5297,2.97579 -20.45894,0.45825 -22.17758,-5.62308c-1.71864,-6.08133 5.42415,-13.42357 15.95385,-16.39935c10.5297,-2.97579 20.45894,-0.45825 22.17758,5.62308z" fill="#00d4ff" stroke="#000000" stroke-width="0"/><text transform="translate(212.19213,157.87906) scale(0.27824,0.27824)" font-size="40" xml:space="preserve" fill="url(#color-14)" fill-rule="nonzero" stroke="#b1a300" stroke-width="2" stroke-linecap="butt" stroke-linejoin="miter" stroke-miterlimit="10" stroke-dasharray="" stroke-dashoffset="0" font-family="Marker" font-weight="normal" text-anchor="start" style="mix-blend-mode: normal"><tspan x="0" dy="0">Mark's</tspan></text></g><text transform="translate(269.82837,167.23159) scale(0.16553,0.16553)" font-size="40" xml:space="preserve" fill="url(#color-15)" fill-rule="nonzero" stroke="none" stroke-width="1" stroke-linecap="butt" stroke-linejoin="miter" stroke-miterlimit="10" stroke-dasharray="" stroke-dashoffset="0" font-family="Marker" font-weight="normal" text-anchor="start" style="mix-blend-mode: normal"><tspan x="0" dy="0">Inc.</tspan></text></g></g><g stroke="none"><g><path d="M245.7383,209.2205v-23.8h13v23.8z" fill="url(#color-16)" stroke-width="NaN"/><path d="M247.53829,207.4205v-20.2h9.23361v20.2z" fill="url(#color-17)" stroke-width="NaN"/></g><g><path d="M232.93828,209.2205v-23.8h13v23.8z" fill="url(#color-18)" stroke-width="NaN"/><path d="M234.7383,207.4205v-20.2h9.23361v20.2z" fill="url(#color-19)" stroke-width="NaN"/></g></g><path d="M351.72588,215.24437l1.27272,-2.47854v-28.77146h7.25v28.77146l1.36363,2.47854z" fill="url(#color-20)" stroke="none" stroke-width="0"/><path d="M194.9986,215.24437l1.27273,-2.47854v-28.77146h7.25v28.77146l1.36364,2.47854z" fill="url(#color-21)" stroke="none" stroke-width="0"/><path d="M319.9986,215.24437l1.27272,-2.47854v-28.77146h7.25v28.77146l1.36364,2.47854z" fill="url(#color-22)" stroke="none" stroke-width="0"/><path d="M121.9986,215.24437l1.27272,-2.47854v-28.77146h7.25v28.77146l1.36364,2.47854z" fill="url(#color-23)" stroke="none" stroke-width="0"/><path d="M157.9986,215.24437l1.27273,-2.47854v-28.77146h7.25v28.77146l1.36364,2.47854z" fill="url(#color-24)" stroke="none" stroke-width="0"/><path d="M286.9986,215.24437l1.27272,-2.47854v-28.77146h7.25v28.77146l1.36364,2.47854z" fill="url(#color-25)" stroke="none" stroke-width="0"/><path d="M112.97579,186.9193l-0.19107,-3.6231l2.7625,-7.894h253l2.68941,7.77459l0.02487,3.7425z" fill="url(#color-26)" stroke="none" stroke-width="0"/><path d="M112.79722,186.9193v-3.56709h258.5v3.56709z" fill="#505050" stroke="none" stroke-width="0"/></g></g></svg>