<svg version="1.1" xmlns="http://www.w3.org/2000/svg" xmlns:xlink="http://www.w3.org/1999/xlink" width="727.71522" height="577.49623" viewBox="0,0,727.71522,577.49623"><defs><linearGradient x1="91.67535" y1="154.87489" x2="355.19439" y2="154.87489" gradientUnits="userSpaceOnUse" id="color-1"><stop offset="0" stop-color="#222720"/><stop offset="1" stop-color="#2d342a"/></linearGradient><linearGradient x1="276.2566" y1="197.08456" x2="202.13569" y2="197.08456" gradientUnits="userSpaceOnUse" id="color-2"><stop offset="0" stop-color="#545454"/><stop offset="1" stop-color="#373737"/></linearGradient><linearGradient x1="210.42699" y1="201.96736" x2="204.4172" y2="201.96736" gradientUnits="userSpaceOnUse" id="color-3"><stop offset="0" stop-color="#8c8c8c"/><stop offset="1" stop-color="#747474"/></linearGradient><linearGradient x1="-123.85761" y1="184.16212" x2="168.91572" y2="184.16212" gradientUnits="userSpaceOnUse" id="color-4"><stop offset="0" stop-color="#343c31"/><stop offset="1" stop-color="#1c201a"/></linearGradient><linearGradient x1="62.01565" y1="198.67611" x2="124.51102" y2="198.67611" gradientUnits="userSpaceOnUse" id="color-5"><stop offset="0" stop-color="#545454"/><stop offset="1" stop-color="#373737"/></linearGradient><linearGradient x1="117.52017" y1="210.17369" x2="122.58737" y2="210.17369" gradientUnits="userSpaceOnUse" id="color-6"><stop offset="0" stop-color="#8c8c8c"/><stop offset="1" stop-color="#747474"/></linearGradient><linearGradient x1="89.10161" y1="161.59759" x2="103.17918" y2="161.59759" gradientUnits="userSpaceOnUse" id="color-7"><stop offset="0" stop-color="#929292"/><stop offset="1" stop-color="#7f7f7f"/></linearGradient><linearGradient x1="-89.36226" y1="243.87102" x2="4.43416" y2="243.87102" gradientUnits="userSpaceOnUse" id="color-8"><stop offset="0" stop-color="#545454"/><stop offset="1" stop-color="#373737"/></linearGradient><linearGradient x1="-6.05808" y1="255.32042" x2="1.54704" y2="255.32042" gradientUnits="userSpaceOnUse" id="color-9"><stop offset="0" stop-color="#8c8c8c"/><stop offset="1" stop-color="#747474"/></linearGradient><linearGradient x1="-48.71019" y1="178.2633" x2="-27.58183" y2="178.2633" gradientUnits="userSpaceOnUse" id="color-10"><stop offset="0" stop-color="#929292"/><stop offset="1" stop-color="#7f7f7f"/></linearGradient><linearGradient x1="337.07987" y1="209.14212" x2="347.83114" y2="209.14212" gradientUnits="userSpaceOnUse" id="color-11"><stop offset="0" stop-color="#c3c3c3"/><stop offset="1" stop-color="#eaeaea"/></linearGradient><linearGradient x1="342.45178" y1="167.75515" x2="342.45178" y2="178.96791" gradientUnits="userSpaceOnUse" id="color-12"><stop offset="0" stop-color="#c7c7c7"/><stop offset="1" stop-color="#6a6a6a"/></linearGradient><linearGradient x1="342.42585" y1="179.21167" x2="342.42585" y2="190.42441" gradientUnits="userSpaceOnUse" id="color-13"><stop offset="0" stop-color="#c7c7c7"/><stop offset="1" stop-color="#6a6a6a"/></linearGradient><linearGradient x1="342.42585" y1="191.15567" x2="342.42585" y2="202.36841" gradientUnits="userSpaceOnUse" id="color-14"><stop offset="0" stop-color="#c7c7c7"/><stop offset="1" stop-color="#6a6a6a"/></linearGradient><linearGradient x1="342.39992" y1="202.61216" x2="342.39992" y2="213.8249" gradientUnits="userSpaceOnUse" id="color-15"><stop offset="0" stop-color="#c7c7c7"/><stop offset="1" stop-color="#6a6a6a"/></linearGradient><linearGradient x1="342.39992" y1="214.79992" x2="342.39992" y2="226.01266" gradientUnits="userSpaceOnUse" id="color-16"><stop offset="0" stop-color="#c7c7c7"/><stop offset="1" stop-color="#6a6a6a"/></linearGradient><linearGradient x1="342.39992" y1="226.25641" x2="342.39992" y2="237.46914" gradientUnits="userSpaceOnUse" id="color-17"><stop offset="0" stop-color="#c7c7c7"/><stop offset="1" stop-color="#6a6a6a"/></linearGradient><linearGradient x1="342.39992" y1="237.7129" x2="342.39992" y2="248.92562" gradientUnits="userSpaceOnUse" id="color-18"><stop offset="0" stop-color="#c7c7c7"/><stop offset="1" stop-color="#6a6a6a"/></linearGradient><linearGradient x1="146.84321" y1="258.88066" x2="180.05079" y2="258.88066" gradientUnits="userSpaceOnUse" id="color-19"><stop offset="0" stop-color="#6e6e6e"/><stop offset="1" stop-color="#525252"/></linearGradient><linearGradient x1="163.61538" y1="272.11928" x2="163.61538" y2="281.20438" gradientUnits="userSpaceOnUse" id="color-20"><stop offset="0" stop-color="#9c9c9c"/><stop offset="1" stop-color="#767676"/></linearGradient><linearGradient x1="163.92865" y1="239.53825" x2="163.92865" y2="248.62332" gradientUnits="userSpaceOnUse" id="color-21"><stop offset="0" stop-color="#9c9c9c"/><stop offset="1" stop-color="#767676"/></linearGradient><linearGradient x1="163.92865" y1="203.82443" x2="163.92865" y2="212.90953" gradientUnits="userSpaceOnUse" id="color-22"><stop offset="0" stop-color="#9c9c9c"/><stop offset="1" stop-color="#767676"/></linearGradient><linearGradient x1="164.24193" y1="171.24342" x2="164.24193" y2="180.32851" gradientUnits="userSpaceOnUse" id="color-23"><stop offset="0" stop-color="#9c9c9c"/><stop offset="1" stop-color="#767676"/></linearGradient><linearGradient x1="163.61538" y1="138.97565" x2="163.61538" y2="148.06076" gradientUnits="userSpaceOnUse" id="color-24"><stop offset="0" stop-color="#9c9c9c"/><stop offset="1" stop-color="#767676"/></linearGradient><linearGradient x1="163.92865" y1="106.39464" x2="163.92865" y2="115.47974" gradientUnits="userSpaceOnUse" id="color-25"><stop offset="0" stop-color="#9c9c9c"/><stop offset="1" stop-color="#767676"/></linearGradient><linearGradient x1="163.92865" y1="4.62687" x2="163.92865" y2="13.71197" gradientUnits="userSpaceOnUse" id="color-26"><stop offset="0" stop-color="#9c9c9c"/><stop offset="1" stop-color="#767676"/></linearGradient><linearGradient x1="163.61538" y1="70.68083" x2="163.61538" y2="79.76592" gradientUnits="userSpaceOnUse" id="color-27"><stop offset="0" stop-color="#9c9c9c"/><stop offset="1" stop-color="#767676"/></linearGradient><linearGradient x1="163.61538" y1="-31.08694" x2="163.61538" y2="-22.00185" gradientUnits="userSpaceOnUse" id="color-28"><stop offset="0" stop-color="#9c9c9c"/><stop offset="1" stop-color="#767676"/></linearGradient><linearGradient x1="163.92865" y1="38.09978" x2="163.92865" y2="47.1849" gradientUnits="userSpaceOnUse" id="color-29"><stop offset="0" stop-color="#9c9c9c"/><stop offset="1" stop-color="#767676"/></linearGradient><linearGradient x1="240.23697" y1="8.15092" x2="240.23697" y2="93.45204" gradientUnits="userSpaceOnUse" id="color-30"><stop offset="0" stop-color="#000000"/><stop offset="1" stop-color="#000000" stop-opacity="0"/></linearGradient><radialGradient cx="240" cy="180" r="254.39899" gradientUnits="userSpaceOnUse" id="color-31"><stop offset="0" stop-color="#000000" stop-opacity="0"/><stop offset="1" stop-color="#000000"/></radialGradient></defs><g transform="translate(123.85761,98.59382)"><g data-paper-data="{&quot;isPaintingLayer&quot;:true}" fill-rule="nonzero" stroke-linejoin="miter" stroke-miterlimit="10" stroke-dasharray="" stroke-dashoffset="0" style="mix-blend-mode: normal"><path d="M91.67535,396.43404v-483.11829h263.51906v483.11829z" fill="url(#color-1)" stroke="none" stroke-width="0" stroke-linecap="butt"/><path d="M185.85413,286.14982l-1.21685,-181.8538l99.76269,-0.06068l0.97905,182.46652z" fill="#000000" stroke="none" stroke-width="0" stroke-linecap="butt"/><g data-paper-data="{&quot;index&quot;:null}" stroke="none" stroke-width="0" stroke-linecap="butt"><path d="M203.14275,286.14982l-1.00547,-181.8538l82.43276,-0.06068l0.80898,182.46652z" fill="url(#color-2)"/><path d="M204.4172,221.60514v-39.27556h6.0098v39.27556z" fill="url(#color-3)"/></g><path d="M317.75825,392.15917v-483.11829h286.09936v483.11829z" fill="#1a1e19" stroke="none" stroke-width="0" stroke-linecap="butt"/><path d="M-123.85761,425.72125v-483.11829h292.77333v483.11829z" fill="url(#color-4)" stroke="none" stroke-width="0" stroke-linecap="butt"/><g stroke="none" stroke-linecap="butt"><path d="M63.3669,358.20331l-1.01344,-270.10032l62.15756,7.10952v248.56862z" fill="url(#color-5)" stroke-width="0"/><path d="M117.52017,234.8539v-49.36042h5.06719v49.36042z" fill="url(#color-6)" stroke-width="0"/><path d="M89.40599,158.12101l-0.22829,-30.20464l14.00147,0.82308v27.66091z" fill="url(#color-7)" stroke-width="0"/><text transform="translate(93.65046,151.09664) scale(0.23938,0.60939)" font-size="40" xml:space="preserve" fill="#ffffff" fill-rule="nonzero" stroke="none" stroke-width="1" stroke-linecap="butt" stroke-linejoin="miter" stroke-miterlimit="10" stroke-dasharray="" stroke-dashoffset="0" font-family="Sans Serif" font-weight="normal" text-anchor="start" style="mix-blend-mode: normal"><tspan x="0" dy="0">1</tspan></text></g><g stroke="none" stroke-linecap="butt"><path d="M-87.33424,478.90241l-1.52102,-429.04853l93.28941,20.85588v354.82298z" fill="url(#color-8)" stroke-width="0"/><path d="M-6.05808,291.68175v-72.72268h7.60512v72.72268z" fill="url(#color-9)" stroke-width="0"/><path d="M-48.25336,173.14125l-0.34262,-44.50047l21.01415,1.21265v40.7528z" fill="url(#color-10)" stroke-width="0"/><text transform="translate(-41.88302,162.79225) scale(0.35928,0.89781)" font-size="40" xml:space="preserve" fill="#ffffff" fill-rule="nonzero" stroke="none" stroke-width="1" stroke-linecap="butt" stroke-linejoin="miter" stroke-miterlimit="10" stroke-dasharray="" stroke-dashoffset="0" font-family="Sans Serif" font-weight="normal" text-anchor="start" style="mix-blend-mode: normal"><tspan x="0" dy="0">2</tspan></text></g><g stroke="none" stroke-linecap="butt"><path d="M336.43158,256.78271v-99.34376l12.18776,2.84381v100.56254z" fill="#8a8a8a" stroke-width="NaN"/><path d="M337.07987,251.16765v-87.63484l10.75127,2.50863v88.70995z" fill="url(#color-11)" stroke-width="NaN"/><path d="M337.48159,176.28661v-8.53143l9.94037,2.68131v8.53143z" fill="url(#color-12)" stroke-width="0"/><path d="M337.45567,187.7431v-8.53143l9.94037,2.68131v8.53143z" fill="url(#color-13)" stroke-width="0"/><path d="M337.45567,199.6871v-8.53143l9.94037,2.68131v8.53143z" fill="url(#color-14)" stroke-width="0"/><path d="M337.42973,211.14359v-8.53143l9.94037,2.68131v8.53143z" fill="url(#color-15)" stroke-width="0"/><path d="M337.42973,223.33135v-8.53143l9.94037,2.68131v8.53143z" fill="url(#color-16)" stroke-width="0"/><path d="M337.42973,234.78784v-8.53143l9.94037,2.68131v8.53143z" fill="url(#color-17)" stroke-width="0"/><path d="M337.42973,246.24433v-8.53143l9.94037,2.68131v8.53143z" fill="url(#color-18)" stroke-width="0"/></g><path d="M-50.55469,108.54347c-3.42113,0 -3.42113,-3.42113 -3.42113,-3.42113l1.00202,-5.15601c0.6651,-0.54233 1.68193,-0.82807 1.99529,-1.627c0.34179,-0.87145 -0.17361,-1.86409 -0.26042,-2.79614c0,-4.65223 0.7163,-9.92129 0.04417,-14.50495c-0.20928,-1.42721 -1.13878,-2.68129 -1.36845,-4.10535c-0.05716,-0.35444 -0.04417,-8.10184 -0.04417,-8.75872c0,-5.07197 -0.52173,-10.50072 0.04403,-15.53102c0.42295,-3.76043 2.19732,-7.27211 2.73704,-11.01756c0.49443,-3.43113 -0.04417,-6.93304 -0.04417,-10.39961c0,-7.29841 0,-14.59683 0,-21.89522c0,-6.97365 -0.39565,-12.94893 1.87939,-19.58847c4.35901,-4.53378 9.54899,-8.42685 10.4623,-15.04083c0.56549,-4.09509 -0.71161,-4.03286 -1.36845,-8.74314c-0.59044,-4.23406 0.56577,-5.11876 0.01854,-9.44916c-0.36517,-2.88969 -3.07298,-5.00702 -4.00274,-7.76733c-0.43682,-1.29685 0.43275,-2.80713 0,-4.10535c-0.52009,-1.56028 -2.24509,-2.53593 -2.73691,-4.10535c-2.58635,-8.25323 1.75795,-14.55285 8.21889,-18.89091c2.79176,-1.87446 5.84324,-3.42082 9.02656,-4.50436c0,0 3.24558,-1.08186 4.32742,2.16372c1.08186,3.24558 -2.16372,4.32742 -2.16372,4.32742c-2.62248,0.85145 -5.0944,2.1864 -7.39486,3.70635c-4.10109,2.70963 -5.31883,3.23685 -5.31883,8.10106c0,1.03915 -0.49771,2.13587 -0.14679,3.11397c0.5554,1.54806 2.21681,2.54507 2.73691,4.10535c0.43275,1.29823 -0.42811,2.80559 0,4.10535c1.00347,3.04663 3.71706,5.48425 4.20797,8.65409c0.49532,3.19826 -0.45083,6.50698 0.01854,9.70916c0.90581,6.17969 2.75413,10.72201 -0.30642,16.94127c-2.18817,4.44651 -6.2107,7.933 -9.75804,11.27591c-1.60758,5.08966 -0.85752,10.67478 -0.85752,15.99128c0,7.29841 0,14.59683 0,21.89522c0,0.71792 0.01338,11.08975 -0.04417,11.49563c-0.51234,3.61251 -2.2863,6.98495 -2.68361,10.61192c-0.52708,4.8116 -0.00912,9.99204 -0.00912,14.84067c0,2.55429 -0.47916,5.14573 -0.04417,7.6627c0.24566,1.42141 1.16917,2.67672 1.36845,4.10535c0.6932,4.96963 0.04417,10.56559 0.04417,15.60097c-0.0868,1.80485 0.41602,3.73902 -0.26042,5.41457c-0.64718,1.60306 -2.319,2.56454 -3.47851,3.8468l1.00202,0.3178c0,0 0,3.42113 -3.42113,3.42113z" fill="#000000" stroke="none" stroke-width="0.5" stroke-linecap="butt"/><path d="M-66.97611,150.96542c-3.42113,0 -3.42113,-3.42113 -3.42113,-3.42113c0,-11.85992 0,-25.08828 0,-36.94818c0,-4.56154 -0.70237,-9.73946 0.04417,-14.23252c0.93567,-5.63127 4.53523,-10.81247 5.4738,-16.42142c0.51982,-3.10654 -0.40201,-6.32286 -0.01854,-9.44916c0.22897,-1.86677 1.09569,-3.61293 1.36845,-5.4738c1.50498,-10.26745 -1.43512,-21.18288 0,-31.47438c0.25976,-1.86274 1.09569,-3.61293 1.36845,-5.4738c0.6596,-4.5001 -0.10934,-7.95707 1.38699,-12.44606c-0.03499,-10.08456 2.70522,-20.23277 1.3499,-30.50838c-0.4211,-3.19262 -2.7992,-5.81206 -3.90379,-8.83695c-0.89483,-2.45049 -1.23817,-5.07896 -1.57901,-7.66536c-1.26828,-9.62371 1.11528,-18.89286 2.75332,-28.18065c0.25574,-1.45004 -0.38157,-3.01173 0.05845,-4.41686c0.77542,-2.4761 1.88747,-4.92055 3.50177,-6.9519c1.86088,-2.34161 4.88294,-3.50391 6.9879,-5.62879c0,0 2.41911,-2.41911 4.8382,0c2.41911,2.41911 0,4.8382 0,4.8382c-2.02366,2.0077 -4.796,3.19426 -6.69661,5.31881c-1.78267,1.99271 -1.45145,5.15608 -1.91359,7.78957c-1.71633,9.7803 -5.47179,22.34378 -1.61574,32.31083c0.59891,1.54802 2.09976,2.62847 2.73182,4.16324c0.84119,2.04256 1.29828,4.23965 1.62826,6.42386c1.63824,10.84367 -1.35167,21.76731 -1.38699,32.44038c-1.53618,4.60854 -0.69686,7.50291 -1.3499,12.18606c-0.25976,1.86274 -1.09569,3.61293 -1.36845,5.4738c-1.50486,10.2666 1.435,21.18382 0,31.47438c-0.25976,1.86274 -1.13054,3.60815 -1.36845,5.4738c-0.17307,1.35708 0.23176,8.20275 -0.01854,9.70916c-0.93567,5.63127 -4.53523,10.81247 -5.4738,16.42142c-0.68979,4.12231 0.04417,8.9405 0.04417,13.1365c0,11.85992 0,23.71982 0,35.57974v1.36845c0,0 0,3.42113 -3.42113,3.42113z" fill="#000000" stroke="none" stroke-width="0.5" stroke-linecap="butt"/><path d="M-101.89771,410.02753l256.39306,-124.70701l163.24406,0.1545l231.84058,125.60632z" fill="#898989" stroke="none" stroke-width="NaN" stroke-linecap="butt"/><path d="M549.58,-98.59382l-231.84058,125.60632l-163.24406,0.1545l-256.39306,-124.70701z" data-paper-data="{&quot;index&quot;:null}" fill="#4e4e4e" stroke="none" stroke-width="NaN" stroke-linecap="butt"/><g><path d="M151.86946,290.20526l1.25312,-266.91377" fill="none" stroke="#909090" stroke-width="2" stroke-linecap="round"/><path d="M146.84321,290.01801v-339.86692h33.20758v340.14845c0,0 0.6064,6.1746 -16.91707,6.38346c-16.51289,0.19681 -16.29051,-6.66498 -16.29051,-6.66498z" fill="url(#color-19)" stroke="none" stroke-width="0" stroke-linecap="butt"/><path d="M145.75847,278.69815v-6.26559c0,0 11.34935,2.50623 17.1856,2.50623c6.05994,0 18.52822,-2.8195 18.52822,-2.8195v5.95229c0,0 -12.46828,3.13279 -18.52822,3.13279c-5.83625,0 -17.1856,-2.50623 -17.1856,-2.50623z" fill="url(#color-20)" stroke="none" stroke-width="0" stroke-linecap="butt"/><path d="M146.07174,246.11712v-6.26559c0,0 11.34935,2.50623 17.1856,2.50623c6.05994,0 18.52822,-2.8195 18.52822,-2.8195v5.95229c0,0 -12.46828,3.13279 -18.52822,3.13279c-5.83625,0 -17.1856,-2.50623 -17.1856,-2.50623z" fill="url(#color-21)" stroke="none" stroke-width="0" stroke-linecap="butt"/><path d="M146.07174,210.4033v-6.26559c0,0 11.34935,2.50623 17.1856,2.50623c6.05994,0 18.52822,-2.8195 18.52822,-2.8195v5.95229c0,0 -12.46828,3.13279 -18.52822,3.13279c-5.83625,0 -17.1856,-2.50623 -17.1856,-2.50623z" fill="url(#color-22)" stroke="none" stroke-width="0" stroke-linecap="butt"/><path d="M146.38503,177.82227v-6.26559c0,0 11.34935,2.50623 17.1856,2.50623c6.05994,0 18.52822,-2.8195 18.52822,-2.8195v5.95229c0,0 -12.46828,3.13279 -18.52822,3.13279c-5.83625,0 -17.1856,-2.50623 -17.1856,-2.50623z" fill="url(#color-23)" stroke="none" stroke-width="0" stroke-linecap="butt"/><path d="M145.75847,145.55451v-6.26559c0,0 11.34935,2.50623 17.1856,2.50623c6.05994,0 18.52822,-2.8195 18.52822,-2.8195v5.95229c0,0 -12.46828,3.13279 -18.52822,3.13279c-5.83625,0 -17.1856,-2.50623 -17.1856,-2.50623z" fill="url(#color-24)" stroke="none" stroke-width="0" stroke-linecap="butt"/><path d="M146.07174,112.9735v-6.26559c0,0 11.34935,2.50623 17.1856,2.50623c6.05994,0 18.52822,-2.8195 18.52822,-2.8195v5.95229c0,0 -12.46828,3.13279 -18.52822,3.13279c-5.83625,0 -17.1856,-2.50623 -17.1856,-2.50623z" fill="url(#color-25)" stroke="none" stroke-width="0" stroke-linecap="butt"/><path d="M146.07174,11.20573v-6.26559c0,0 11.34935,2.50623 17.1856,2.50623c6.05994,0 18.52822,-2.8195 18.52822,-2.8195v5.95229c0,0 -12.46828,3.13279 -18.52822,3.13279c-5.83625,0 -17.1856,-2.50623 -17.1856,-2.50623z" fill="url(#color-26)" stroke="none" stroke-width="0" stroke-linecap="butt"/><path d="M145.75847,77.25969v-6.26559c0,0 11.34935,2.50623 17.1856,2.50623c6.05994,0 18.52822,-2.8195 18.52822,-2.8195v5.95229c0,0 -12.46828,3.13279 -18.52822,3.13279c-5.83625,0 -17.1856,-2.50623 -17.1856,-2.50623z" fill="url(#color-27)" stroke="none" stroke-width="0" stroke-linecap="butt"/><path d="M145.75847,-24.50808v-6.26559c0,0 11.34935,2.50623 17.1856,2.50623c6.05994,0 18.52822,-2.8195 18.52822,-2.8195v5.95229c0,0 -12.46828,3.13279 -18.52822,3.13279c-5.83625,0 -17.1856,-2.50623 -17.1856,-2.50623z" fill="url(#color-28)" stroke="none" stroke-width="0" stroke-linecap="butt"/><path d="M146.07174,44.67867v-6.26559c0,0 11.34935,2.50623 17.1856,2.50623c6.05994,0 18.52822,-2.8195 18.52822,-2.8195v5.95229c0,0 -12.46828,3.13279 -18.52822,3.13279c-5.83625,0 -17.1856,-2.50623 -17.1856,-2.50623z" fill="url(#color-29)" stroke="none" stroke-width="0" stroke-linecap="butt"/></g><g fill="#000000" stroke="none" stroke-width="0.5" stroke-linecap="butt"><path d="M219.60777,52.23532c-0.99764,-1.99531 0.99764,-2.99295 0.99764,-2.99295l1.20488,-0.47445c2.0443,-1.66697 1.13127,-3.76069 1.13127,-6.4535c0,-5.77549 -0.36892,-11.08556 -1.76794,-16.68163c-0.01971,-3.47673 -0.43044,-7.02114 1.16517,-10.29495c0.7075,-1.45162 2.92353,-2.3016 3.37546,-4.00896c0.24945,-0.94235 -0.07906,-1.94819 -0.09572,-2.92284c-0.07786,-4.55474 -0.69296,-8.25484 -2.50717,-12.5312c-0.30689,-0.72339 -0.74577,-1.3967 -1.13339,-2.0871c-0.02953,0.64048 -0.06385,1.10244 -0.09856,1.19478c-0.33626,0.89461 -1.45985,1.28212 -1.94801,2.10377c-0.48043,0.80865 -0.40839,1.87042 -0.89233,2.67698c-0.74605,1.24341 -2.16125,2.21159 -2.37262,3.64616c-0.55067,3.73755 1.77743,7.44729 1.81345,11.2429c0,2.50789 0.73028,7.94065 -0.09572,10.46204c-0.40107,1.2243 -1.37573,2.17863 -2.06359,3.26795l-1.17105,1.23232c0,0 -1.57742,1.57742 -3.15485,0c-1.57742,-1.57742 0,-3.15485 0,-3.15485l0.6136,-0.55234c2.33927,-3.24081 1.40999,-7.28461 1.40999,-11.25513c0.05093,-4.10172 -2.5029,-7.75542 -1.75584,-11.95758c0.21539,-1.2116 0.59137,-2.42102 1.19669,-3.49245c0.41381,-0.73248 1.35182,-1.06325 1.78465,-1.78465c0.48394,-0.80656 0.40439,-1.87284 0.89233,-2.67698c0.37791,-0.62281 1.32715,-0.79907 1.62129,-1.46554c0.55791,-1.26413 0.04216,-2.77334 -0.141,-4.14292c-0.36696,-2.744 -3.20805,-4.0459 -4.29973,-6.59345c-1.00386,-2.34263 -1.95265,-8.10475 -0.91322,-10.67944c0.20304,-0.50293 3.43349,-3.67365 4.05288,-4.29303c0,0 1.57742,-1.57742 3.15485,0c1.57742,1.57742 0,3.15485 0,3.15485c-0.98935,0.98935 -2.57482,1.54302 -3.08572,2.84557c-0.22288,0.56824 0.14773,1.21329 0.16981,1.82328c0.08696,2.40118 -0.34627,2.89916 0.70162,5.3438c1.14626,2.67412 3.03668,3.53137 4.07875,5.88944c0.44717,-0.96036 1.23135,-1.79957 1.52559,-2.82251c0.27828,-0.96749 -0.26523,-2.08402 0.11013,-3.01814c0.35635,-0.88681 1.43309,-1.29863 1.94801,-2.10377c0.92334,-1.44375 0.57257,-3.57813 0.55916,-5.07347c0,0 0,-2.23081 2.23081,-2.23081c2.23081,0 2.23081,2.23081 2.23081,2.23081c-0.02297,3.13277 0.38151,4.59169 -1.22549,7.41909c-0.35998,0.63335 -1.35218,0.78857 -1.62129,1.46554c-0.28795,0.72433 0.32278,1.58591 0.11013,2.33582c-0.81883,2.8876 -2.64222,3.15735 -1.78465,6.11354c1.14445,3.94514 3.79632,7.56553 4.4925,11.75543c0.03114,0.18741 0.03422,5.32152 0.0288,5.71129c-0.01951,1.40548 0.30691,2.86905 -0.09572,4.21576c-0.59098,1.97676 -2.81206,3.08337 -3.76314,4.9143c-1.10931,2.1355 -0.60348,5.24989 -0.61948,7.55157c1.43701,5.74806 1.80136,11.28054 1.80136,17.22676c0,0.55006 0.05715,6.53778 -0.16981,7.09998c-0.42201,1.04531 -1.51215,1.67226 -2.26823,2.50839l-2.36442,1.3102c0,0 -1.99531,0.99764 -2.99295,-0.99764z"/><path d="M247.27329,36.75323c-1.57741,1.57741 -3.15485,0 -3.15485,0l-1.43124,-1.7643c-0.29744,-0.89233 -0.59488,-1.78465 -0.89233,-2.67698c-0.62245,-1.91717 -2.08564,-3.4918 -2.69574,-5.41295c-0.78037,-2.45736 -0.30786,-7.86449 1.20091,-9.95815c0.80638,-1.11899 2.30154,-1.57352 3.20912,-2.61213c0.79947,-0.91487 2.41934,-3.83086 2.66166,-5.38771c0.5969,-3.8349 -1.07278,-5.8492 -3.17703,-9.04619c-0.5541,-0.84184 -1.67583,-1.29401 -2.03592,-2.23533c-0.42098,-1.10048 -0.14534,-2.35268 -0.16981,-3.53067c-0.121,-5.82692 1.71594,-9.04946 4.83628,-13.73c0,0 1.23744,-1.85616 3.09358,-0.61872c1.85616,1.23744 0.61872,3.09358 0.61872,3.09358c-2.759,4.13851 -3.93627,6.2157 -4.08697,11.25513c-0.01825,0.61012 -0.41182,1.26292 -0.16981,1.82328c0.26861,0.62195 1.15369,0.77289 1.53338,1.33397c0.74549,1.10166 1.05331,2.45819 1.78465,3.56931c0.5541,0.84186 1.67583,1.29401 2.03592,2.23534c0.13815,0.36114 0.2499,5.94073 0.141,6.565c-0.43268,2.48072 -2.21526,5.83835 -3.71396,7.61788c-0.7867,0.93411 -2.11153,1.30286 -2.9078,2.22881c-0.7751,0.90132 -0.47408,3.16688 -0.48803,4.07318c-0.04406,2.86451 1.61449,4.54033 2.5625,7.32549c0.29744,0.89233 0.59488,1.78465 0.89233,2.67698l0.35341,0.02035c0,0 1.57741,1.57741 0,3.15485z"/></g><path d="M-74.20716,93.45204l3.65633,-175.74086l627.66948,-14.38815l-2.43755,190.12901z" fill="url(#color-30)" stroke="none" stroke-width="0" stroke-linecap="butt"/><path d="M-14.39899,390.18941v-420.37882h508.79798v420.37882z" fill="url(#color-31)" stroke="none" stroke-width="0" stroke-linecap="butt"/></g></g></svg>