<svg version="1.1" xmlns="http://www.w3.org/2000/svg" xmlns:xlink="http://www.w3.org/1999/xlink" width="74.81843" height="89.75" viewBox="0,0,74.81843,89.75"><defs><linearGradient x1="298.79192" y1="235.43382" x2="295.86871" y2="235.59311" gradientUnits="userSpaceOnUse" id="color-1"><stop offset="0" stop-color="#b5b5b5"/><stop offset="1" stop-color="#848484"/></linearGradient><linearGradient x1="304.48421" y1="218.19547" x2="302.25701" y2="218.31683" gradientUnits="userSpaceOnUse" id="color-2"><stop offset="0" stop-color="#b5b5b5"/><stop offset="1" stop-color="#848484"/></linearGradient><linearGradient x1="304.48421" y1="218.19547" x2="302.25701" y2="218.31683" gradientUnits="userSpaceOnUse" id="color-3"><stop offset="0" stop-color="#b5b5b5"/><stop offset="1" stop-color="#848484"/></linearGradient><linearGradient x1="290.80881" y1="219.17336" x2="288.5816" y2="219.29472" gradientUnits="userSpaceOnUse" id="color-4"><stop offset="0" stop-color="#b5b5b5"/><stop offset="1" stop-color="#848484"/></linearGradient><linearGradient x1="290.80881" y1="219.17336" x2="288.5816" y2="219.29472" gradientUnits="userSpaceOnUse" id="color-5"><stop offset="0" stop-color="#b5b5b5"/><stop offset="1" stop-color="#848484"/></linearGradient><linearGradient x1="297.08781" y1="202.02662" x2="294.16461" y2="202.18592" gradientUnits="userSpaceOnUse" id="color-6"><stop offset="0" stop-color="#b5b5b5"/><stop offset="1" stop-color="#848484"/></linearGradient><linearGradient x1="294.61303" y1="219.06786" x2="291.46652" y2="219.23932" gradientUnits="userSpaceOnUse" id="color-7"><stop offset="0" stop-color="#848484"/><stop offset="1" stop-color="#5b5b5b"/></linearGradient><linearGradient x1="294.61303" y1="219.06786" x2="291.46652" y2="219.23932" gradientUnits="userSpaceOnUse" id="color-8"><stop offset="0" stop-color="#848484"/><stop offset="1" stop-color="#5b5b5b"/></linearGradient><linearGradient x1="301.41355" y1="218.69728" x2="298.26704" y2="218.86874" gradientUnits="userSpaceOnUse" id="color-9"><stop offset="0" stop-color="#848484"/><stop offset="1" stop-color="#5b5b5b"/></linearGradient><linearGradient x1="301.41355" y1="218.69728" x2="298.26704" y2="218.86874" gradientUnits="userSpaceOnUse" id="color-10"><stop offset="0" stop-color="#848484"/><stop offset="1" stop-color="#5b5b5b"/></linearGradient><linearGradient x1="297.30108" y1="233.83533" x2="297.21258" y2="232.21133" gradientUnits="userSpaceOnUse" id="color-11"><stop offset="0" stop-color="#848484"/><stop offset="1" stop-color="#b5b5b5"/></linearGradient><linearGradient x1="295.7795" y1="203.77761" x2="295.868" y2="205.40165" gradientUnits="userSpaceOnUse" id="color-12"><stop offset="0" stop-color="#b5b5b5"/><stop offset="1" stop-color="#848484"/></linearGradient><linearGradient x1="295.41162" y1="197.24157" x2="297.75521" y2="240.24918" gradientUnits="userSpaceOnUse" id="color-13"><stop offset="0" stop-color="#d42727"/><stop offset="1" stop-color="#a02020"/></linearGradient><linearGradient x1="295.41162" y1="197.24157" x2="297.75521" y2="240.24918" gradientUnits="userSpaceOnUse" id="color-14"><stop offset="0" stop-color="#d42727"/><stop offset="1" stop-color="#a02020"/></linearGradient><radialGradient cx="300.05742" cy="238.44838" r="4.78508" gradientUnits="userSpaceOnUse" id="color-15"><stop offset="0" stop-color="#8d8d8d"/><stop offset="1" stop-color="#484848"/></radialGradient><radialGradient cx="300.45081" cy="208.86703" r="18.66636" gradientUnits="userSpaceOnUse" id="color-16"><stop offset="0" stop-color="#79a2c1"/><stop offset="1" stop-color="#5984a2"/></radialGradient><radialGradient cx="300.45081" cy="208.86703" r="18.66636" gradientUnits="userSpaceOnUse" id="color-17"><stop offset="0" stop-color="#79a2c1"/><stop offset="1" stop-color="#5984a2"/></radialGradient><radialGradient cx="300.45081" cy="208.86703" r="18.66636" gradientUnits="userSpaceOnUse" id="color-18"><stop offset="0" stop-color="#79a2c1"/><stop offset="1" stop-color="#5984a2"/></radialGradient><radialGradient cx="300.45081" cy="208.86703" r="18.66636" gradientUnits="userSpaceOnUse" id="color-19"><stop offset="0" stop-color="#79a2c1"/><stop offset="1" stop-color="#5984a2"/></radialGradient><radialGradient cx="300.60727" cy="209.41611" r="18.66965" gradientUnits="userSpaceOnUse" id="color-20"><stop offset="0" stop-color="#c24a4a"/><stop offset="1" stop-color="#a33939"/></radialGradient><radialGradient cx="300.60727" cy="209.41611" r="18.66965" gradientUnits="userSpaceOnUse" id="color-21"><stop offset="0" stop-color="#c24a4a"/><stop offset="1" stop-color="#a33939"/></radialGradient><radialGradient cx="300.60727" cy="209.41611" r="18.66965" gradientUnits="userSpaceOnUse" id="color-22"><stop offset="0" stop-color="#c24a4a"/><stop offset="1" stop-color="#a33939"/></radialGradient><radialGradient cx="300.60727" cy="209.41611" r="18.66965" gradientUnits="userSpaceOnUse" id="color-23"><stop offset="0" stop-color="#c24a4a"/><stop offset="1" stop-color="#a33939"/></radialGradient><radialGradient cx="300.60727" cy="209.41611" r="18.66965" gradientUnits="userSpaceOnUse" id="color-24"><stop offset="0" stop-color="#c24a4a"/><stop offset="1" stop-color="#a33939"/></radialGradient><radialGradient cx="300.60727" cy="209.41611" r="18.66965" gradientUnits="userSpaceOnUse" id="color-25"><stop offset="0" stop-color="#c24a4a"/><stop offset="1" stop-color="#a33939"/></radialGradient><linearGradient x1="182.09743" y1="201.79597" x2="185.0221" y2="201.92545" gradientUnits="userSpaceOnUse" id="color-26"><stop offset="0" stop-color="#b5b5b5"/><stop offset="1" stop-color="#848484"/></linearGradient><linearGradient x1="183.42353" y1="203.53352" x2="183.35159" y2="205.15836" gradientUnits="userSpaceOnUse" id="color-27"><stop offset="0" stop-color="#b5b5b5"/><stop offset="1" stop-color="#848484"/></linearGradient><linearGradient x1="180.73404" y1="235.2187" x2="183.65872" y2="235.34818" gradientUnits="userSpaceOnUse" id="color-28"><stop offset="0" stop-color="#b5b5b5"/><stop offset="1" stop-color="#848484"/></linearGradient><linearGradient x1="174.86628" y1="218.03933" x2="177.0946" y2="218.13798" gradientUnits="userSpaceOnUse" id="color-29"><stop offset="0" stop-color="#b5b5b5"/><stop offset="1" stop-color="#848484"/></linearGradient><linearGradient x1="188.55094" y1="218.87775" x2="190.77927" y2="218.9764" gradientUnits="userSpaceOnUse" id="color-30"><stop offset="0" stop-color="#b5b5b5"/><stop offset="1" stop-color="#848484"/></linearGradient><linearGradient x1="184.74584" y1="218.81102" x2="187.89394" y2="218.95039" gradientUnits="userSpaceOnUse" id="color-31"><stop offset="0" stop-color="#848484"/><stop offset="1" stop-color="#5b5b5b"/></linearGradient><linearGradient x1="177.94189" y1="218.5098" x2="181.08999" y2="218.64917" gradientUnits="userSpaceOnUse" id="color-32"><stop offset="0" stop-color="#848484"/><stop offset="1" stop-color="#5b5b5b"/></linearGradient><linearGradient x1="182.20851" y1="233.6051" x2="182.28044" y2="231.98027" gradientUnits="userSpaceOnUse" id="color-33"><stop offset="0" stop-color="#848484"/><stop offset="1" stop-color="#b5b5b5"/></linearGradient><linearGradient x1="182.313" y1="239.63646" x2="184.13342" y2="198.51679" gradientUnits="userSpaceOnUse" id="color-34"><stop offset="0" stop-color="#d42727"/><stop offset="1" stop-color="#a02020"/></linearGradient><linearGradient x1="185.12214" y1="218.35175" x2="181.29508" y2="212.55731" gradientUnits="userSpaceOnUse" id="color-35"><stop offset="0" stop-color="#d42727"/><stop offset="1" stop-color="#a02020"/></linearGradient><linearGradient x1="180.14803" y1="230.09727" x2="182.15396" y2="225.65411" gradientUnits="userSpaceOnUse" id="color-36"><stop offset="0" stop-color="#d42727"/><stop offset="1" stop-color="#a02020"/></linearGradient><radialGradient cx="179.49935" cy="238.246" r="4.78508" gradientUnits="userSpaceOnUse" id="color-37"><stop offset="0" stop-color="#8d8d8d"/><stop offset="1" stop-color="#484848"/></radialGradient><radialGradient cx="178.80436" cy="208.6703" r="18.66637" gradientUnits="userSpaceOnUse" id="color-38"><stop offset="0" stop-color="#79a2c1"/><stop offset="1" stop-color="#5984a2"/></radialGradient><radialGradient cx="178.6535" cy="209.22094" r="18.66965" gradientUnits="userSpaceOnUse" id="color-39"><stop offset="0" stop-color="#c24a4a"/><stop offset="1" stop-color="#a33939"/></radialGradient><radialGradient cx="178.6535" cy="209.22094" r="18.66965" gradientUnits="userSpaceOnUse" id="color-40"><stop offset="0" stop-color="#c24a4a"/><stop offset="1" stop-color="#a33939"/></radialGradient><radialGradient cx="178.6535" cy="209.22094" r="18.66965" gradientUnits="userSpaceOnUse" id="color-41"><stop offset="0" stop-color="#c24a4a"/><stop offset="1" stop-color="#a33939"/></radialGradient><radialGradient cx="178.6535" cy="209.22094" r="18.66965" gradientUnits="userSpaceOnUse" id="color-42"><stop offset="0" stop-color="#c24a4a"/><stop offset="1" stop-color="#a33939"/></radialGradient><radialGradient cx="178.6535" cy="209.22094" r="18.66965" gradientUnits="userSpaceOnUse" id="color-43"><stop offset="0" stop-color="#c24a4a"/><stop offset="1" stop-color="#a33939"/></radialGradient><radialGradient cx="178.6535" cy="209.22094" r="18.66965" gradientUnits="userSpaceOnUse" id="color-44"><stop offset="0" stop-color="#c24a4a"/><stop offset="1" stop-color="#a33939"/></radialGradient><radialGradient cx="178.6535" cy="209.22094" r="18.66965" gradientUnits="userSpaceOnUse" id="color-45"><stop offset="0" stop-color="#c24a4a"/><stop offset="1" stop-color="#a33939"/></radialGradient><radialGradient cx="298.50313" cy="261.9032" r="10.10775" gradientUnits="userSpaceOnUse" id="color-46"><stop offset="0" stop-color="#593521"/><stop offset="1" stop-color="#563420"/></radialGradient><radialGradient cx="299.68355" cy="262.22402" r="10.10775" gradientUnits="userSpaceOnUse" id="color-47"><stop offset="0" stop-color="#965a37"/><stop offset="1" stop-color="#7b4a2e"/></radialGradient><radialGradient cx="301.55926" cy="262.77242" r="10.10774" gradientUnits="userSpaceOnUse" id="color-48"><stop offset="0" stop-color="#d4804f"/><stop offset="1" stop-color="#965a37"/></radialGradient><radialGradient cx="301.49506" cy="246.9728" r="10.01262" gradientUnits="userSpaceOnUse" id="color-49"><stop offset="0" stop-color="#d4804f"/><stop offset="1" stop-color="#965a37"/></radialGradient><radialGradient cx="291.82455" cy="247.4934" r="8.30322" gradientUnits="userSpaceOnUse" id="color-50"><stop offset="0" stop-color="#d4804f"/><stop offset="1" stop-color="#965a37"/></radialGradient><radialGradient cx="181.2927" cy="261.68375" r="10.10775" gradientUnits="userSpaceOnUse" id="color-51"><stop offset="0" stop-color="#593521"/><stop offset="1" stop-color="#563420"/></radialGradient><radialGradient cx="180.11562" cy="262.01661" r="10.10775" gradientUnits="userSpaceOnUse" id="color-52"><stop offset="0" stop-color="#965a37"/><stop offset="1" stop-color="#7b4a2e"/></radialGradient><radialGradient cx="178.2456" cy="262.58409" r="10.10774" gradientUnits="userSpaceOnUse" id="color-53"><stop offset="0" stop-color="#d4804f"/><stop offset="1" stop-color="#965a37"/></radialGradient><radialGradient cx="178.14869" cy="246.78465" r="10.01262" gradientUnits="userSpaceOnUse" id="color-54"><stop offset="0" stop-color="#d4804f"/><stop offset="1" stop-color="#965a37"/></radialGradient><radialGradient cx="187.82401" cy="247.20662" r="8.30323" gradientUnits="userSpaceOnUse" id="color-55"><stop offset="0" stop-color="#d4804f"/><stop offset="1" stop-color="#965a37"/></radialGradient><linearGradient x1="0.81497" y1="126.03582" x2="1.72399" y2="125.08979" gradientUnits="userSpaceOnUse" id="color-56"><stop offset="0" stop-color="#bebebe"/><stop offset="1" stop-color="#797979"/></linearGradient><linearGradient x1="3.10917" y1="123.55428" x2="4.02457" y2="122.60161" gradientUnits="userSpaceOnUse" id="color-57"><stop offset="0" stop-color="#bebebe"/><stop offset="1" stop-color="#797979"/></linearGradient><linearGradient x1="5.67342" y1="121.13162" x2="6.58882" y2="120.17894" gradientUnits="userSpaceOnUse" id="color-58"><stop offset="0" stop-color="#bebebe"/><stop offset="1" stop-color="#797979"/></linearGradient><linearGradient x1="8.03841" y1="118.63331" x2="8.96209" y2="117.672" gradientUnits="userSpaceOnUse" id="color-59"><stop offset="0" stop-color="#bebebe"/><stop offset="1" stop-color="#797979"/></linearGradient><linearGradient x1="10.54993" y1="116.37766" x2="11.47363" y2="115.41634" gradientUnits="userSpaceOnUse" id="color-60"><stop offset="0" stop-color="#bebebe"/><stop offset="1" stop-color="#797979"/></linearGradient><linearGradient x1="13.00166" y1="113.84602" x2="13.92534" y2="112.88472" gradientUnits="userSpaceOnUse" id="color-61"><stop offset="0" stop-color="#bebebe"/><stop offset="1" stop-color="#797979"/></linearGradient><linearGradient x1="15.17387" y1="111.1527" x2="16.09755" y2="110.1914" gradientUnits="userSpaceOnUse" id="color-62"><stop offset="0" stop-color="#bebebe"/><stop offset="1" stop-color="#797979"/></linearGradient><linearGradient x1="17.38375" y1="108.92706" x2="18.30256" y2="107.97084" gradientUnits="userSpaceOnUse" id="color-63"><stop offset="0" stop-color="#bebebe"/><stop offset="1" stop-color="#797979"/></linearGradient><linearGradient x1="0.9597" y1="108.5994" x2="6.24603" y2="113.67887" gradientUnits="userSpaceOnUse" id="color-64"><stop offset="0" stop-color="#bebebe"/><stop offset="1" stop-color="#797979"/></linearGradient><linearGradient x1="13.02471" y1="120.18945" x2="18.40028" y2="125.35468" gradientUnits="userSpaceOnUse" id="color-65"><stop offset="0" stop-color="#797979"/><stop offset="1" stop-color="#bebebe"/></linearGradient><linearGradient x1="8.83917" y1="115.84865" x2="11.03983" y2="117.9632" gradientUnits="userSpaceOnUse" id="color-66"><stop offset="0" stop-color="#bebebe"/><stop offset="1" stop-color="#797979"/></linearGradient><radialGradient cx="-4.71654" cy="130.07861" r="3.59193" gradientUnits="userSpaceOnUse" id="color-67"><stop offset="0" stop-color="#636363"/><stop offset="1" stop-color="#3c3c3c"/></radialGradient><radialGradient cx="9.34984" cy="116.9461" r="21.72996" gradientUnits="userSpaceOnUse" id="color-68"><stop offset="0" stop-color="#af2e80"/><stop offset="1" stop-color="#892464"/></radialGradient><radialGradient cx="9.34984" cy="116.9461" r="21.72996" gradientUnits="userSpaceOnUse" id="color-69"><stop offset="0" stop-color="#af2e80"/><stop offset="1" stop-color="#892464"/></radialGradient><linearGradient x1="104.70411" y1="126.71466" x2="103.87647" y2="125.69667" gradientUnits="userSpaceOnUse" id="color-70"><stop offset="0" stop-color="#bebebe"/><stop offset="1" stop-color="#797979"/></linearGradient><linearGradient x1="102.62305" y1="124.05183" x2="101.7896" y2="123.0267" gradientUnits="userSpaceOnUse" id="color-71"><stop offset="0" stop-color="#bebebe"/><stop offset="1" stop-color="#797979"/></linearGradient><linearGradient x1="100.268" y1="121.42535" x2="99.43455" y2="120.40022" gradientUnits="userSpaceOnUse" id="color-72"><stop offset="0" stop-color="#bebebe"/><stop offset="1" stop-color="#797979"/></linearGradient><linearGradient x1="98.11779" y1="118.73997" x2="97.2768" y2="117.70555" gradientUnits="userSpaceOnUse" id="color-73"><stop offset="0" stop-color="#bebebe"/><stop offset="1" stop-color="#797979"/></linearGradient><linearGradient x1="95.80147" y1="116.28428" x2="94.96046" y2="115.24986" gradientUnits="userSpaceOnUse" id="color-74"><stop offset="0" stop-color="#bebebe"/><stop offset="1" stop-color="#797979"/></linearGradient><linearGradient x1="93.56757" y1="113.55851" x2="92.72656" y2="112.52408" gradientUnits="userSpaceOnUse" id="color-75"><stop offset="0" stop-color="#bebebe"/><stop offset="1" stop-color="#797979"/></linearGradient><linearGradient x1="91.6256" y1="110.69473" x2="90.78461" y2="109.66032" gradientUnits="userSpaceOnUse" id="color-76"><stop offset="0" stop-color="#bebebe"/><stop offset="1" stop-color="#797979"/></linearGradient><linearGradient x1="89.60741" y1="108.2939" x2="88.77086" y2="107.26496" gradientUnits="userSpaceOnUse" id="color-77"><stop offset="0" stop-color="#bebebe"/><stop offset="1" stop-color="#797979"/></linearGradient><linearGradient x1="106.00227" y1="109.32602" x2="100.31387" y2="113.95078" gradientUnits="userSpaceOnUse" id="color-78"><stop offset="0" stop-color="#bebebe"/><stop offset="1" stop-color="#797979"/></linearGradient><linearGradient x1="93.01985" y1="119.8783" x2="87.23542" y2="124.58113" gradientUnits="userSpaceOnUse" id="color-79"><stop offset="0" stop-color="#797979"/><stop offset="1" stop-color="#bebebe"/></linearGradient><linearGradient x1="97.55014" y1="115.89862" x2="95.18209" y2="117.82387" gradientUnits="userSpaceOnUse" id="color-80"><stop offset="0" stop-color="#bebebe"/><stop offset="1" stop-color="#797979"/></linearGradient><radialGradient cx="109.88222" cy="131.20118" r="3.59194" gradientUnits="userSpaceOnUse" id="color-81"><stop offset="0" stop-color="#636363"/><stop offset="1" stop-color="#3c3c3c"/></radialGradient><radialGradient cx="96.95042" cy="116.95006" r="21.72997" gradientUnits="userSpaceOnUse" id="color-82"><stop offset="0" stop-color="#af2e80"/><stop offset="1" stop-color="#892464"/></radialGradient><linearGradient x1="46.26123" y1="87.24286" x2="49.85288" y2="88.22372" gradientUnits="userSpaceOnUse" id="color-83"><stop offset="0" stop-color="#bebebe"/><stop offset="1" stop-color="#797979"/></linearGradient><linearGradient x1="62.3378" y1="87.24286" x2="58.74614" y2="88.22372" gradientUnits="userSpaceOnUse" id="color-84"><stop offset="0" stop-color="#bebebe"/><stop offset="1" stop-color="#797979"/></linearGradient><linearGradient x1="37.83824" y1="98.79414" x2="37.83824" y2="120.10007" gradientUnits="userSpaceOnUse" id="color-85"><stop offset="0" stop-color="#bebebe"/><stop offset="1" stop-color="#9f9f9f"/></linearGradient><linearGradient x1="70.08263" y1="98.44454" x2="70.08263" y2="119.75047" gradientUnits="userSpaceOnUse" id="color-86"><stop offset="0" stop-color="#bebebe"/><stop offset="1" stop-color="#9f9f9f"/></linearGradient><linearGradient x1="51.55449" y1="98.94314" x2="56.97723" y2="98.94314" gradientUnits="userSpaceOnUse" id="color-87"><stop offset="0" stop-color="#bebebe"/><stop offset="1" stop-color="#9f9f9f"/></linearGradient><linearGradient x1="54.18775" y1="98.42358" x2="54.18775" y2="100.65305" gradientUnits="userSpaceOnUse" id="color-88"><stop offset="0" stop-color="#bebebe"/><stop offset="1" stop-color="#9f9f9f"/></linearGradient><radialGradient cx="27.23759" cy="98.43446" r="3.59193" gradientUnits="userSpaceOnUse" id="color-89"><stop offset="0" stop-color="#636363"/><stop offset="1" stop-color="#3c3c3c"/></radialGradient><radialGradient cx="84.71794" cy="98.1022" r="3.59193" gradientUnits="userSpaceOnUse" id="color-90"><stop offset="0" stop-color="#636363"/><stop offset="1" stop-color="#3c3c3c"/></radialGradient><linearGradient x1="54.34751" y1="118.69107" x2="54.34751" y2="167.63507" gradientUnits="userSpaceOnUse" id="color-91"><stop offset="0" stop-color="#bebebe"/><stop offset="1" stop-color="#545454"/></linearGradient><linearGradient x1="53.89759" y1="117.19754" x2="53.89759" y2="119.90891" gradientUnits="userSpaceOnUse" id="color-92"><stop offset="0" stop-color="#bebebe"/><stop offset="1" stop-color="#9f9f9f"/></linearGradient><radialGradient cx="60.82087" cy="121.07234" r="8.51698" gradientUnits="userSpaceOnUse" id="color-93"><stop offset="0" stop-color="#8d8d8d"/><stop offset="1" stop-color="#1e1e1e"/></radialGradient><radialGradient cx="60.7378" cy="123.89651" r="8.517" gradientUnits="userSpaceOnUse" id="color-94"><stop offset="0" stop-color="#8d8d8d"/><stop offset="1" stop-color="#1e1e1e"/></radialGradient><radialGradient cx="60.57167" cy="126.96989" r="8.517" gradientUnits="userSpaceOnUse" id="color-95"><stop offset="0" stop-color="#8d8d8d"/><stop offset="1" stop-color="#1e1e1e"/></radialGradient><radialGradient cx="60.4886" cy="129.62793" r="8.517" gradientUnits="userSpaceOnUse" id="color-96"><stop offset="0" stop-color="#8d8d8d"/><stop offset="1" stop-color="#1e1e1e"/></radialGradient><radialGradient cx="60.4886" cy="131.87067" r="8.517" gradientUnits="userSpaceOnUse" id="color-97"><stop offset="0" stop-color="#8d8d8d"/><stop offset="1" stop-color="#1e1e1e"/></radialGradient><radialGradient cx="60.32247" cy="135.02711" r="8.517" gradientUnits="userSpaceOnUse" id="color-98"><stop offset="0" stop-color="#8d8d8d"/><stop offset="1" stop-color="#1e1e1e"/></radialGradient><radialGradient cx="60.23941" cy="137.35289" r="8.51698" gradientUnits="userSpaceOnUse" id="color-99"><stop offset="0" stop-color="#8d8d8d"/><stop offset="1" stop-color="#1e1e1e"/></radialGradient><radialGradient cx="60.32247" cy="140.44473" r="8.517" gradientUnits="userSpaceOnUse" id="color-100"><stop offset="0" stop-color="#8d8d8d"/><stop offset="1" stop-color="#1e1e1e"/></radialGradient><radialGradient cx="60.40554" cy="143.10278" r="8.51699" gradientUnits="userSpaceOnUse" id="color-101"><stop offset="0" stop-color="#8d8d8d"/><stop offset="1" stop-color="#1e1e1e"/></radialGradient><radialGradient cx="54.06396" cy="130.29793" r="33.25886" gradientUnits="userSpaceOnUse" id="color-102"><stop offset="0" stop-color="#af2e80"/><stop offset="1" stop-color="#892464"/></radialGradient><radialGradient cx="60.58166" cy="116.02193" r="28.03978" gradientUnits="userSpaceOnUse" id="color-103"><stop offset="0" stop-color="#258d2f"/><stop offset="1" stop-color="#1b692b"/></radialGradient><linearGradient x1="53.77753" y1="75.73809" x2="52.30995" y2="105.25747" gradientUnits="userSpaceOnUse" id="color-104"><stop offset="0" stop-color="#bdbdbd"/><stop offset="1" stop-color="#848484"/></linearGradient><radialGradient cx="77.7984" cy="88.99808" r="28.53074" gradientUnits="userSpaceOnUse" id="color-105"><stop offset="0" stop-color="#af2e80"/><stop offset="1" stop-color="#892464"/></radialGradient><radialGradient cx="52.7866" cy="87.17612" r="21.36068" gradientUnits="userSpaceOnUse" id="color-106"><stop offset="0" stop-color="#1e1e1e"/><stop offset="1" stop-color="#000000"/></radialGradient><linearGradient x1="53.10038" y1="82.72242" x2="53.0525" y2="83.68554" gradientUnits="userSpaceOnUse" id="color-107"><stop offset="0" stop-color="#bebebe"/><stop offset="1" stop-color="#9f9f9f"/></linearGradient><linearGradient x1="51.22807" y1="54.49186" x2="49.75056" y2="84.21102" gradientUnits="userSpaceOnUse" id="color-108"><stop offset="0" stop-color="#bebebe"/><stop offset="1" stop-color="#9f9f9f"/></linearGradient><linearGradient x1="57.96992" y1="54.82704" x2="56.49241" y2="84.5462" gradientUnits="userSpaceOnUse" id="color-109"><stop offset="0" stop-color="#bebebe"/><stop offset="1" stop-color="#9f9f9f"/></linearGradient><linearGradient x1="53.32467" y1="81.20528" x2="52.97087" y2="88.32172" gradientUnits="userSpaceOnUse" id="color-110"><stop offset="0" stop-color="#8f8f8f"/><stop offset="1" stop-color="#797979"/></linearGradient><linearGradient x1="63.79334" y1="86.3921" x2="63.99899" y2="82.25548" gradientUnits="userSpaceOnUse" id="color-111"><stop offset="0" stop-color="#373737"/><stop offset="1" stop-color="#8f8f8f"/></linearGradient><linearGradient x1="42.28307" y1="85.3227" x2="42.48872" y2="81.18608" gradientUnits="userSpaceOnUse" id="color-112"><stop offset="0" stop-color="#373737"/><stop offset="1" stop-color="#8f8f8f"/></linearGradient><linearGradient x1="62.44892" y1="87.49012" x2="62.65458" y2="83.3535" gradientUnits="userSpaceOnUse" id="color-113"><stop offset="0" stop-color="#373737"/><stop offset="1" stop-color="#8f8f8f"/></linearGradient><linearGradient x1="43.51194" y1="86.54865" x2="43.71759" y2="82.41203" gradientUnits="userSpaceOnUse" id="color-114"><stop offset="0" stop-color="#373737"/><stop offset="1" stop-color="#8f8f8f"/></linearGradient><linearGradient x1="60.61569" y1="88.33086" x2="60.82135" y2="84.19424" gradientUnits="userSpaceOnUse" id="color-115"><stop offset="0" stop-color="#373737"/><stop offset="1" stop-color="#8f8f8f"/></linearGradient><linearGradient x1="45.25273" y1="87.56708" x2="45.45839" y2="83.43046" gradientUnits="userSpaceOnUse" id="color-116"><stop offset="0" stop-color="#373737"/><stop offset="1" stop-color="#8f8f8f"/></linearGradient><linearGradient x1="58.72256" y1="88.93566" x2="58.92821" y2="84.79904" gradientUnits="userSpaceOnUse" id="color-117"><stop offset="0" stop-color="#373737"/><stop offset="1" stop-color="#8f8f8f"/></linearGradient><linearGradient x1="47.07655" y1="88.35667" x2="47.2822" y2="84.22005" gradientUnits="userSpaceOnUse" id="color-118"><stop offset="0" stop-color="#373737"/><stop offset="1" stop-color="#8f8f8f"/></linearGradient><linearGradient x1="56.62421" y1="89.34387" x2="56.82986" y2="85.20726" gradientUnits="userSpaceOnUse" id="color-119"><stop offset="0" stop-color="#373737"/><stop offset="1" stop-color="#8f8f8f"/></linearGradient><linearGradient x1="49.12405" y1="88.971" x2="49.32971" y2="84.83438" gradientUnits="userSpaceOnUse" id="color-120"><stop offset="0" stop-color="#373737"/><stop offset="1" stop-color="#8f8f8f"/></linearGradient><linearGradient x1="54.46595" y1="89.51614" x2="54.6716" y2="85.37951" gradientUnits="userSpaceOnUse" id="color-121"><stop offset="0" stop-color="#373737"/><stop offset="1" stop-color="#8f8f8f"/></linearGradient><linearGradient x1="51.2546" y1="89.35649" x2="51.46026" y2="85.21986" gradientUnits="userSpaceOnUse" id="color-122"><stop offset="0" stop-color="#373737"/><stop offset="1" stop-color="#8f8f8f"/></linearGradient><linearGradient x1="73.77753" y1="94.39376" x2="74.39882" y2="81.89688" gradientUnits="userSpaceOnUse" id="color-123"><stop offset="0" stop-color="#767676"/><stop offset="1" stop-color="#ececec"/></linearGradient><linearGradient x1="76.49521" y1="88.81413" x2="72.05824" y2="88.59355" gradientUnits="userSpaceOnUse" id="color-124"><stop offset="0" stop-color="#4c4c4c"/><stop offset="1" stop-color="#2c2c2c"/></linearGradient><linearGradient x1="31.52273" y1="92.29303" x2="32.14402" y2="79.79616" gradientUnits="userSpaceOnUse" id="color-125"><stop offset="0" stop-color="#767676"/><stop offset="1" stop-color="#ececec"/></linearGradient><linearGradient x1="29.37187" y1="86.47137" x2="33.80883" y2="86.69195" gradientUnits="userSpaceOnUse" id="color-126"><stop offset="0" stop-color="#4c4c4c"/><stop offset="1" stop-color="#2c2c2c"/></linearGradient><linearGradient x1="71.07552" y1="97.7785" x2="71.69681" y2="85.28162" gradientUnits="userSpaceOnUse" id="color-127"><stop offset="0" stop-color="#767676"/><stop offset="1" stop-color="#ececec"/></linearGradient><linearGradient x1="73.7932" y1="92.19887" x2="69.35625" y2="91.97828" gradientUnits="userSpaceOnUse" id="color-128"><stop offset="0" stop-color="#4c4c4c"/><stop offset="1" stop-color="#2c2c2c"/></linearGradient><linearGradient x1="33.87571" y1="95.92909" x2="34.497" y2="83.43221" gradientUnits="userSpaceOnUse" id="color-129"><stop offset="0" stop-color="#767676"/><stop offset="1" stop-color="#ececec"/></linearGradient><linearGradient x1="31.72482" y1="90.10741" x2="36.1618" y2="90.328" gradientUnits="userSpaceOnUse" id="color-130"><stop offset="0" stop-color="#4c4c4c"/><stop offset="1" stop-color="#2c2c2c"/></linearGradient><linearGradient x1="67.4255" y1="100.41229" x2="68.04679" y2="87.91542" gradientUnits="userSpaceOnUse" id="color-131"><stop offset="0" stop-color="#767676"/><stop offset="1" stop-color="#ececec"/></linearGradient><linearGradient x1="70.1432" y1="94.83266" x2="65.70624" y2="94.61208" gradientUnits="userSpaceOnUse" id="color-132"><stop offset="0" stop-color="#4c4c4c"/><stop offset="1" stop-color="#2c2c2c"/></linearGradient><linearGradient x1="37.24648" y1="98.91192" x2="37.86777" y2="86.41505" gradientUnits="userSpaceOnUse" id="color-133"><stop offset="0" stop-color="#767676"/><stop offset="1" stop-color="#ececec"/></linearGradient><linearGradient x1="35.09561" y1="93.09025" x2="39.53257" y2="93.31084" gradientUnits="userSpaceOnUse" id="color-134"><stop offset="0" stop-color="#4c4c4c"/><stop offset="1" stop-color="#2c2c2c"/></linearGradient><linearGradient x1="63.66998" y1="102.33703" x2="64.29128" y2="89.84015" gradientUnits="userSpaceOnUse" id="color-135"><stop offset="0" stop-color="#767676"/><stop offset="1" stop-color="#ececec"/></linearGradient><linearGradient x1="66.38767" y1="96.7574" x2="61.95072" y2="96.53682" gradientUnits="userSpaceOnUse" id="color-136"><stop offset="0" stop-color="#4c4c4c"/><stop offset="1" stop-color="#2c2c2c"/></linearGradient><linearGradient x1="40.79258" y1="101.19966" x2="41.41387" y2="88.70278" gradientUnits="userSpaceOnUse" id="color-137"><stop offset="0" stop-color="#767676"/><stop offset="1" stop-color="#ececec"/></linearGradient><linearGradient x1="38.6417" y1="95.37799" x2="43.07866" y2="95.59858" gradientUnits="userSpaceOnUse" id="color-138"><stop offset="0" stop-color="#4c4c4c"/><stop offset="1" stop-color="#2c2c2c"/></linearGradient><linearGradient x1="59.52114" y1="103.67916" x2="60.14243" y2="91.18227" gradientUnits="userSpaceOnUse" id="color-139"><stop offset="0" stop-color="#767676"/><stop offset="1" stop-color="#ececec"/></linearGradient><linearGradient x1="62.23883" y1="98.09953" x2="57.80186" y2="97.87894" gradientUnits="userSpaceOnUse" id="color-140"><stop offset="0" stop-color="#4c4c4c"/><stop offset="1" stop-color="#2c2c2c"/></linearGradient><linearGradient x1="44.78784" y1="102.94668" x2="45.40913" y2="90.4498" gradientUnits="userSpaceOnUse" id="color-141"><stop offset="0" stop-color="#767676"/><stop offset="1" stop-color="#ececec"/></linearGradient><linearGradient x1="42.63697" y1="97.12501" x2="47.07393" y2="97.3456" gradientUnits="userSpaceOnUse" id="color-142"><stop offset="0" stop-color="#4c4c4c"/><stop offset="1" stop-color="#2c2c2c"/></linearGradient><linearGradient x1="55.26678" y1="104.31222" x2="55.88807" y2="91.81535" gradientUnits="userSpaceOnUse" id="color-143"><stop offset="0" stop-color="#767676"/><stop offset="1" stop-color="#ececec"/></linearGradient><linearGradient x1="57.98447" y1="98.73259" x2="53.54752" y2="98.51201" gradientUnits="userSpaceOnUse" id="color-144"><stop offset="0" stop-color="#4c4c4c"/><stop offset="1" stop-color="#2c2c2c"/></linearGradient><linearGradient x1="48.95843" y1="103.9986" x2="49.57972" y2="91.50172" gradientUnits="userSpaceOnUse" id="color-145"><stop offset="0" stop-color="#767676"/><stop offset="1" stop-color="#ececec"/></linearGradient><linearGradient x1="46.80755" y1="98.17693" x2="51.24452" y2="98.39751" gradientUnits="userSpaceOnUse" id="color-146"><stop offset="0" stop-color="#4c4c4c"/><stop offset="1" stop-color="#2c2c2c"/></linearGradient><linearGradient x1="28.02585" y1="55.46401" x2="27.40456" y2="67.96089" gradientUnits="userSpaceOnUse" id="color-147"><stop offset="0" stop-color="#767676"/><stop offset="1" stop-color="#ececec"/></linearGradient><linearGradient x1="25.30816" y1="61.04363" x2="29.74513" y2="61.26422" gradientUnits="userSpaceOnUse" id="color-148"><stop offset="0" stop-color="#4c4c4c"/><stop offset="1" stop-color="#2c2c2c"/></linearGradient><linearGradient x1="81.51368" y1="58.40472" x2="80.8924" y2="70.90159" gradientUnits="userSpaceOnUse" id="color-149"><stop offset="0" stop-color="#767676"/><stop offset="1" stop-color="#ececec"/></linearGradient><linearGradient x1="83.66455" y1="64.22638" x2="79.2276" y2="64.0058" gradientUnits="userSpaceOnUse" id="color-150"><stop offset="0" stop-color="#4c4c4c"/><stop offset="1" stop-color="#2c2c2c"/></linearGradient><linearGradient x1="31.47484" y1="57.71259" x2="30.85355" y2="70.20947" gradientUnits="userSpaceOnUse" id="color-151"><stop offset="0" stop-color="#767676"/><stop offset="1" stop-color="#ececec"/></linearGradient><linearGradient x1="28.75715" y1="63.29222" x2="33.1941" y2="63.5128" gradientUnits="userSpaceOnUse" id="color-152"><stop offset="0" stop-color="#4c4c4c"/><stop offset="1" stop-color="#2c2c2c"/></linearGradient><linearGradient x1="77.85868" y1="60.30013" x2="77.23739" y2="72.797" gradientUnits="userSpaceOnUse" id="color-153"><stop offset="0" stop-color="#767676"/><stop offset="1" stop-color="#ececec"/></linearGradient><linearGradient x1="80.00955" y1="66.1218" x2="75.57259" y2="65.90121" gradientUnits="userSpaceOnUse" id="color-154"><stop offset="0" stop-color="#4c4c4c"/><stop offset="1" stop-color="#2c2c2c"/></linearGradient><linearGradient x1="35.58298" y1="60.62927" x2="34.96169" y2="73.12615" gradientUnits="userSpaceOnUse" id="color-155"><stop offset="0" stop-color="#767676"/><stop offset="1" stop-color="#ececec"/></linearGradient><linearGradient x1="32.86529" y1="66.2089" x2="37.30224" y2="66.42948" gradientUnits="userSpaceOnUse" id="color-156"><stop offset="0" stop-color="#4c4c4c"/><stop offset="1" stop-color="#2c2c2c"/></linearGradient><linearGradient x1="73.49546" y1="62.51411" x2="72.87417" y2="75.01099" gradientUnits="userSpaceOnUse" id="color-157"><stop offset="0" stop-color="#767676"/><stop offset="1" stop-color="#ececec"/></linearGradient><linearGradient x1="75.64632" y1="68.33578" x2="71.20938" y2="68.1152" gradientUnits="userSpaceOnUse" id="color-158"><stop offset="0" stop-color="#4c4c4c"/><stop offset="1" stop-color="#2c2c2c"/></linearGradient><linearGradient x1="56.31033" y1="25.30651" x2="54.17305" y2="68.29676" gradientUnits="userSpaceOnUse" id="color-159"><stop offset="0" stop-color="#bdbdbd"/><stop offset="1" stop-color="#848484"/></linearGradient><linearGradient x1="56.10142" y1="29.50872" x2="53.96413" y2="72.49898" gradientUnits="userSpaceOnUse" id="color-160"><stop offset="0" stop-color="#717171"/><stop offset="1" stop-color="#a9a9a9"/></linearGradient><radialGradient cx="71.5661" cy="30.65592" r="32.01944" gradientUnits="userSpaceOnUse" id="color-161"><stop offset="0" stop-color="#af2e80"/><stop offset="1" stop-color="#892464"/></radialGradient><radialGradient cx="47.03892" cy="37.95173" r="4.77338" gradientUnits="userSpaceOnUse" id="color-162"><stop offset="0" stop-color="#ffffff"/><stop offset="1" stop-color="#d1d1d1"/></radialGradient><radialGradient cx="63.37287" cy="38.76378" r="4.77338" gradientUnits="userSpaceOnUse" id="color-163"><stop offset="0" stop-color="#ffffff"/><stop offset="1" stop-color="#d1d1d1"/></radialGradient><radialGradient cx="47.03892" cy="37.95173" r="2.61668" gradientUnits="userSpaceOnUse" id="color-164"><stop offset="0" stop-color="#ffffff"/><stop offset="1" stop-color="#ff0000"/></radialGradient><radialGradient cx="63.37287" cy="38.76378" r="2.61667" gradientUnits="userSpaceOnUse" id="color-165"><stop offset="0" stop-color="#ffffff"/><stop offset="1" stop-color="#ff0000"/></radialGradient><linearGradient x1="38.0267" y1="62.43991" x2="37.40541" y2="74.93679" gradientUnits="userSpaceOnUse" id="color-166"><stop offset="0" stop-color="#767676"/><stop offset="1" stop-color="#ececec"/></linearGradient><linearGradient x1="35.309" y1="68.01954" x2="39.74596" y2="68.24012" gradientUnits="userSpaceOnUse" id="color-167"><stop offset="0" stop-color="#4c4c4c"/><stop offset="1" stop-color="#2c2c2c"/></linearGradient><linearGradient x1="69.9013" y1="64.02458" x2="69.28001" y2="76.52145" gradientUnits="userSpaceOnUse" id="color-168"><stop offset="0" stop-color="#767676"/><stop offset="1" stop-color="#ececec"/></linearGradient><linearGradient x1="72.05217" y1="69.84625" x2="67.61521" y2="69.62566" gradientUnits="userSpaceOnUse" id="color-169"><stop offset="0" stop-color="#4c4c4c"/><stop offset="1" stop-color="#2c2c2c"/></linearGradient><linearGradient x1="40.92656" y1="63.56942" x2="40.30527" y2="76.0663" gradientUnits="userSpaceOnUse" id="color-170"><stop offset="0" stop-color="#767676"/><stop offset="1" stop-color="#ececec"/></linearGradient><linearGradient x1="38.20887" y1="69.14905" x2="42.64583" y2="69.36963" gradientUnits="userSpaceOnUse" id="color-171"><stop offset="0" stop-color="#4c4c4c"/><stop offset="1" stop-color="#2c2c2c"/></linearGradient><linearGradient x1="66.9037" y1="64.86089" x2="66.28241" y2="77.35777" gradientUnits="userSpaceOnUse" id="color-172"><stop offset="0" stop-color="#767676"/><stop offset="1" stop-color="#ececec"/></linearGradient><linearGradient x1="69.05457" y1="70.68256" x2="64.61762" y2="70.46197" gradientUnits="userSpaceOnUse" id="color-173"><stop offset="0" stop-color="#4c4c4c"/><stop offset="1" stop-color="#2c2c2c"/></linearGradient><linearGradient x1="43.94169" y1="65.21184" x2="43.3204" y2="77.70871" gradientUnits="userSpaceOnUse" id="color-174"><stop offset="0" stop-color="#767676"/><stop offset="1" stop-color="#ececec"/></linearGradient><linearGradient x1="41.22399" y1="70.79146" x2="45.66096" y2="71.01205" gradientUnits="userSpaceOnUse" id="color-175"><stop offset="0" stop-color="#4c4c4c"/><stop offset="1" stop-color="#2c2c2c"/></linearGradient><linearGradient x1="63.74053" y1="66.19615" x2="63.11924" y2="78.69302" gradientUnits="userSpaceOnUse" id="color-176"><stop offset="0" stop-color="#767676"/><stop offset="1" stop-color="#ececec"/></linearGradient><linearGradient x1="65.89142" y1="72.01782" x2="61.45445" y2="71.79723" gradientUnits="userSpaceOnUse" id="color-177"><stop offset="0" stop-color="#4c4c4c"/><stop offset="1" stop-color="#2c2c2c"/></linearGradient><linearGradient x1="47.50565" y1="65.96993" x2="46.88437" y2="78.4668" gradientUnits="userSpaceOnUse" id="color-178"><stop offset="0" stop-color="#767676"/><stop offset="1" stop-color="#ececec"/></linearGradient><linearGradient x1="44.78797" y1="71.54955" x2="49.22492" y2="71.77014" gradientUnits="userSpaceOnUse" id="color-179"><stop offset="0" stop-color="#4c4c4c"/><stop offset="1" stop-color="#2c2c2c"/></linearGradient><linearGradient x1="60.11897" y1="66.59701" x2="59.49768" y2="79.09388" gradientUnits="userSpaceOnUse" id="color-180"><stop offset="0" stop-color="#767676"/><stop offset="1" stop-color="#ececec"/></linearGradient><linearGradient x1="62.26983" y1="72.41867" x2="57.83287" y2="72.19808" gradientUnits="userSpaceOnUse" id="color-181"><stop offset="0" stop-color="#4c4c4c"/><stop offset="1" stop-color="#2c2c2c"/></linearGradient><linearGradient x1="56.29283" y1="67.1106" x2="55.67154" y2="79.60749" gradientUnits="userSpaceOnUse" id="color-182"><stop offset="0" stop-color="#767676"/><stop offset="1" stop-color="#ececec"/></linearGradient><linearGradient x1="58.4437" y1="72.93227" x2="54.00673" y2="72.71169" gradientUnits="userSpaceOnUse" id="color-183"><stop offset="0" stop-color="#4c4c4c"/><stop offset="1" stop-color="#2c2c2c"/></linearGradient><linearGradient x1="51.53602" y1="66.73335" x2="50.91473" y2="79.23023" gradientUnits="userSpaceOnUse" id="color-184"><stop offset="0" stop-color="#767676"/><stop offset="1" stop-color="#ececec"/></linearGradient><linearGradient x1="48.81833" y1="72.31297" x2="53.2553" y2="72.53356" gradientUnits="userSpaceOnUse" id="color-185"><stop offset="0" stop-color="#4c4c4c"/><stop offset="1" stop-color="#2c2c2c"/></linearGradient><linearGradient x1="54.36789" y1="53.05218" x2="53.31339" y2="74.26294" gradientUnits="userSpaceOnUse" id="color-186"><stop offset="0" stop-color="#717171"/><stop offset="1" stop-color="#a9a9a9"/></linearGradient><linearGradient x1="54.52667" y1="44.89548" x2="53.19813" y2="71.61816" gradientUnits="userSpaceOnUse" id="color-187"><stop offset="0" stop-color="#bdbdbd"/><stop offset="1" stop-color="#848484"/></linearGradient><linearGradient x1="54.52667" y1="44.89548" x2="53.19813" y2="71.61816" gradientUnits="userSpaceOnUse" id="color-188"><stop offset="0" stop-color="#af2e80"/><stop offset="1" stop-color="#95276d"/></linearGradient><radialGradient cx="39.61154" cy="58.03442" r="2.3848" gradientUnits="userSpaceOnUse" id="color-189"><stop offset="0" stop-color="#5c1843"/><stop offset="1" stop-color="#9b2871"/></radialGradient><radialGradient cx="68.61424" cy="59.47631" r="2.38479" gradientUnits="userSpaceOnUse" id="color-190"><stop offset="0" stop-color="#5c1843"/><stop offset="1" stop-color="#9b2871"/></radialGradient></defs><g transform="translate(-17.75,-23.125)"><g data-paper-data="{&quot;isPaintingLayer&quot;:true}" fill-rule="nonzero" stroke-linecap="butt" stroke-linejoin="miter" stroke-miterlimit="10" stroke-dasharray="" stroke-dashoffset="0" style="mix-blend-mode: normal"><g stroke="none"><g><path d="" fill="#656565" stroke-width="0"/><path d="" fill="#656565" stroke-width="0"/><path d="" fill="#656565" stroke-width="0"/><path d="" fill="url(#color-1)" stroke-width="0"/><path d="" fill="url(#color-2)" stroke-width="0"/><path d="" fill="url(#color-3)" stroke-width="0"/><path d="" fill="url(#color-4)" stroke-width="0"/><path d="" fill="url(#color-5)" stroke-width="0"/><path d="" data-paper-data="{&quot;index&quot;:null}" fill="url(#color-6)" stroke-width="0"/><path d="" fill="url(#color-7)" stroke-width="0"/><path d="" fill="url(#color-8)" stroke-width="0"/><path d="" fill="url(#color-9)" stroke-width="0"/><path d="" fill="url(#color-10)" stroke-width="0"/><path d="" fill="url(#color-11)" stroke-width="0"/><path d="" data-paper-data="{&quot;index&quot;:null}" fill="url(#color-12)" stroke-width="0"/><path d="" fill="url(#color-13)" stroke-width="0.5"/><path d="" fill="url(#color-14)" stroke-width="0.5"/><path d="" fill="url(#color-15)" stroke-width="0"/></g><g stroke-width="0"><path d="" fill="url(#color-16)"/><path d="" fill="url(#color-17)"/><path d="" fill="url(#color-18)"/><path d="" fill="url(#color-19)"/><path d="" fill="url(#color-20)"/><path d="" fill="url(#color-21)"/><path d="" fill="url(#color-22)"/><path d="" fill="url(#color-23)"/><path d="" fill="url(#color-24)"/><path d="" fill="url(#color-25)"/></g></g><g stroke="none"><path d="" fill="#656565" stroke-width="0"/><path d="" data-paper-data="{&quot;index&quot;:null}" fill="url(#color-26)" stroke-width="0"/><path d="" data-paper-data="{&quot;index&quot;:null}" fill="url(#color-27)" stroke-width="0"/><path d="" fill="url(#color-28)" stroke-width="0"/><path d="" fill="url(#color-29)" stroke-width="0"/><path d="" fill="url(#color-30)" stroke-width="0"/><path d="" fill="url(#color-31)" stroke-width="0"/><path d="" fill="url(#color-32)" stroke-width="0"/><path d="" fill="url(#color-33)" stroke-width="0"/><path d="" fill="url(#color-34)" stroke-width="0.5"/><path d="" fill="url(#color-35)" stroke-width="0"/><path d="" fill="url(#color-36)" stroke-width="0"/><path d="" fill="url(#color-37)" stroke-width="0"/><g stroke-width="0"><path d="" fill="url(#color-38)"/><path d="" fill="url(#color-39)"/><path d="" fill="url(#color-40)"/><path d="" fill="url(#color-41)"/><path d="" fill="url(#color-42)"/><path d="" fill="url(#color-43)"/><path d="" fill="url(#color-44)"/><path d="" fill="url(#color-45)"/></g></g><g data-paper-data="{&quot;index&quot;:null}" stroke="none" stroke-width="0"><path d="" fill="url(#color-46)"/><path d="" fill="url(#color-47)"/><path d="" fill="url(#color-48)"/><path d="" fill="url(#color-49)"/><path d="" data-paper-data="{&quot;index&quot;:null}" fill="url(#color-50)"/></g><g stroke="none" stroke-width="0"><path d="" fill="url(#color-51)"/><path d="" fill="url(#color-52)"/><path d="" fill="url(#color-53)"/><path d="" fill="url(#color-54)"/><path d="" data-paper-data="{&quot;index&quot;:null}" fill="url(#color-55)"/></g><path d="M17.75,112.875v-89.75h74.81843v89.75z" fill="#000000" stroke="none" stroke-width="0"/><g stroke-width="0"><g stroke="none"><path d="M29.34989,108.44438c0.13464,0.53263 0.21691,1.06072 0.25095,1.58513c-2.07432,0.18907 -4.03521,0.60705 -5.77144,1.36952c-1.28432,0.01216 -2.54062,0.13461 -3.72438,0.4458c-0.07783,-2.33745 -0.1938,-4.67473 -0.27169,-7.01149c-0.03902,-1.17067 0.16444,-3.6075 0.15338,-6.22787c3.52231,2.78474 8.9273,8.11457 9.36319,9.83889z" fill="#262626"/><g><g data-paper-data="{&quot;index&quot;:null}"><g><g><g><path d="" fill="url(#color-56)"/><path d="" fill="url(#color-57)"/><path d="" fill="url(#color-58)"/><path d="" fill="url(#color-59)"/><path d="" fill="url(#color-60)"/><path d="" fill="url(#color-61)"/><path d="" fill="url(#color-62)"/><path d="M20.09328,111.50023c-0.02102,-0.60362 -0.04433,-1.20722 -0.06863,-1.81081l1.88236,1.82295c-0.51936,0.06003 -1.02991,0.14619 -1.52843,0.26416z" fill="url(#color-63)"/><path d="" fill="url(#color-64)"/><path d="M24.3035,110.06897l0.89636,0.81197c-0.4702,0.15157 -0.92764,0.32362 -1.37046,0.51809c-0.08355,0.00079 -0.16699,0.00205 -0.25029,0.0038c0.4556,-0.82445 0.7244,-1.33386 0.7244,-1.33386z" data-paper-data="{&quot;index&quot;:null}" fill="url(#color-65)"/><path d="M27.28756,101.05381l-7.30745,7.54796c-0.05203,-1.25626 -0.1049,-2.51242 -0.14677,-3.76843c-0.00229,-0.06865 -0.00374,-0.14165 -0.00446,-0.21879l5.38837,-5.56571z" fill="url(#color-66)"/></g></g></g></g><path d="" fill="url(#color-67)"/></g><path d="M29.34989,108.44438c0.13464,0.53263 0.21691,1.06072 0.25095,1.58513c-1.11994,0.10208 -2.20682,0.27089 -3.24312,0.52461c-0.59583,-0.76387 -1.41149,-0.19627 -1.41149,-0.19627c-0.50271,0.34983 -1.06666,0.66505 -1.5427,1.04939c-1.13599,0.0334 -2.24592,0.16088 -3.2985,0.43758c-0.05813,-1.74577 -0.13753,-3.49145 -0.20646,-5.23688c0.08106,0.08743 0.15655,0.17649 0.22011,0.26903l0.45369,0.43594c0,0 0.75615,0.72656 1.48271,-0.02959c0.72656,-0.75615 -0.02959,-1.48271 -0.02959,-1.48271l-0.34707,-0.33349c0.32257,-0.11019 0.80816,-0.49485 0.90974,-1.51014c0.16221,-1.62128 -1.37508,-2.58981 -1.24328,-4.23204c3.40684,2.9099 7.62219,7.20509 8.00499,8.71942z" fill="url(#color-68)"/><path d="M20.49625,103.80693c0.03943,0.34008 -0.30466,0.54101 -0.66781,0.73996c-0.00236,-0.64054 0.0417,-1.54547 0.08398,-2.6006c0.25141,0.57297 0.50188,1.15383 0.58382,1.86064z" fill="url(#color-69)"/></g><g data-paper-data="{&quot;index&quot;:null}" stroke="none"><path d="M77.5294,112.00276c-0.41123,-1.73705 -0.39799,-3.45733 0.19278,-5.17976c0.68234,-1.98937 8.70606,-8.42816 11.93976,-10.11876c0.05826,0.30179 0.23529,0.51953 0.23529,0.51953c0.27663,0.34025 0.54201,0.68833 0.79804,1.04279c-0.98683,4.67941 -0.85603,9.40194 0.69934,13.77089c-4.6238,-0.01235 -9.24664,-0.02852 -13.86522,-0.0347z" fill="#262626"/><g><g data-paper-data="{&quot;index&quot;:null}"><g><g><g><path d="" fill="url(#color-70)"/><path d="" fill="url(#color-71)"/><path d="" fill="url(#color-72)"/><path d="" fill="url(#color-73)"/><path d="" fill="url(#color-74)"/><path d="" fill="url(#color-75)"/><path d="M89.92898,112.03343c-0.65668,-0.00185 -1.31333,-0.00374 -1.96995,-0.00564l2.76067,-2.2625c0.10682,0.44428 0.22715,0.88575 0.36128,1.32403z" fill="url(#color-76)"/><path d="M85.00411,112.01931c-0.65683,-0.00184 -1.31361,-0.00363 -1.97033,-0.00532l7.11569,-5.83165c0.04066,0.49656 0.09636,0.991 0.16749,1.48284z" fill="url(#color-77)"/><path d="" fill="url(#color-78)"/><path d="M82.6169,108.85948c0,0 0.55936,1.31305 1.42207,3.15717c-1.33849,-0.00363 -2.67676,-0.00696 -4.01472,-0.00966c-0.25184,-0.54293 -0.39427,-0.86161 -0.39427,-0.86161z" data-paper-data="{&quot;index&quot;:null}" fill="url(#color-79)"/><path d="M82.61793,97.80154l7.62524,9.30715c0.20239,1.67742 0.58116,3.32686 1.15144,4.92877c-0.28034,-0.00075 -0.56068,-0.00151 -0.84101,-0.00229l-10.16476,-12.40681z" fill="url(#color-80)"/></g></g></g></g><path d="" fill="url(#color-81)"/></g><path d="M91.19068,112.03691c-1.1851,-0.55421 -2.66897,-0.05485 -3.77626,-0.93127c-0.02099,-0.3017 -0.16154,-0.89641 -0.9354,-0.97622c-1.04074,-0.10734 -1.15019,0.93078 -1.15069,0.93551l0.09628,-0.10715c-0.1999,0.38388 -0.33397,0.72959 -0.4303,1.0615c-2.48919,-0.00697 -4.97767,-0.01319 -7.4649,-0.01652c-0.28574,-1.20698 -0.36654,-2.40586 -0.19106,-3.60299c0.73334,-0.03506 2.09084,0.83757 2.97318,0.81658c0.85416,0.21326 1.84435,0.58608 2.72195,0.06326c0.99396,-0.59214 0.92971,-2.02183 1.94077,-2.65397c0.92209,-0.57653 2.09003,-0.79104 2.90502,-1.29389c1.1076,-0.68339 1.61246,-2.25953 2.20382,-3.63772c0.02466,0.07237 0.04969,0.14476 0.0751,0.21713c-0.28593,3.46193 0.08467,6.89106 1.23643,10.12631c-0.06798,-0.00018 -0.13596,-0.00036 -0.20394,-0.00055z" fill="url(#color-82)"/></g><path d="M28.3644,106.54917c5.40774,-9.8393 -25.68258,-17.83759 25.69957,-16.9535c53.98699,0.92891 20.80093,5.76035 26.55251,17.57353c0.7071,1.45231 1.38503,3.06139 2.04032,4.84383c-3.42299,-0.00865 -6.84431,-0.01462 -10.26261,-0.0123c-7.34089,-1.69231 -20.01224,-0.4823 -21.85018,-0.50072c-6.09386,-0.06109 -16.44687,-2.79739 -24.09219,-0.96865c0.60808,-1.44052 1.24374,-2.76523 1.91258,-3.98218z" data-paper-data="{&quot;index&quot;:null}" fill="#262626" stroke="none"/><g stroke="none"><path d="M42.96329,99.31902l10.05543,-36.11842l3.39088,1.01422l-9.85466,36.08508z" fill="url(#color-83)"/><path d="M62.04408,100.29989l-9.85466,-36.08508l3.39089,-1.01422l10.05543,36.11843z" data-paper-data="{&quot;index&quot;:null}" fill="url(#color-84)"/><g><path d="M31.12398,100.00574l2.16069,-1.2116l6.49951,11.5908c-0.99281,-0.11274 -1.9986,-0.21545 -3.00653,-0.29683z" fill="url(#color-85)"/><path d="M74.63621,98.44455l2.16069,1.2116l-6.68874,11.92826c-0.85819,-0.12155 -1.75721,-0.2159 -2.67873,-0.28775z" data-paper-data="{&quot;index&quot;:null}" fill="url(#color-86)"/><path d="M51.82378,59.41473l5.15345,0.13465l0,51.64509c-2.28124,0.08651 -4.20551,0.2089 -5.38964,0.26922z" fill="url(#color-87)"/><path d="M26.19542,100.65305v-2.22948h55.98465v2.22948z" fill="url(#color-88)"/><path d="M29.91122,99.53831c0,1.98377 -1.60817,3.59193 -3.59193,3.59193c-1.98377,0 -3.59193,-1.60817 -3.59193,-3.59193c0,-1.98377 1.60816,-3.59193 3.59193,-3.59193c1.98377,0 3.59193,1.60816 3.59193,3.59193z" fill="url(#color-89)"/><path d="M86.28942,99.43643c0,1.98377 -1.60817,3.59193 -3.59194,3.59193c-1.98377,0 -3.59193,-1.60817 -3.59193,-3.59193c0,-1.98377 1.60816,-3.59193 3.59193,-3.59193c1.98377,0 3.59194,1.60816 3.59194,3.59193z" fill="url(#color-90)"/><path d="" fill="url(#color-91)"/><path d="" fill="url(#color-92)"/><path d="" fill="url(#color-93)"/><path d="" fill="url(#color-94)"/><path d="" fill="url(#color-95)"/><path d="" fill="url(#color-96)"/><path d="" fill="url(#color-97)"/><path d="" fill="url(#color-98)"/><path d="" fill="url(#color-99)"/><path d="" fill="url(#color-100)"/><path d="" fill="url(#color-101)"/></g></g><g stroke="none"><path d="M28.3644,106.54917c5.40774,-9.8393 -25.68258,-17.83759 25.69957,-16.9535c53.98699,0.92891 20.80093,5.76035 26.55251,17.57353c0.7071,1.45231 1.38503,3.06139 2.04032,4.84383c-3.42299,-0.00865 -6.84431,-0.01462 -10.26261,-0.0123c-7.34089,-1.69231 -20.01224,-0.4823 -21.85018,-0.50072c-2.31503,-0.02321 -5.24475,-0.4325 -8.40717,-0.83093c-0.31035,-0.29277 -0.7583,-0.29277 -0.7583,-0.29277c-3.37599,0.05191 -3.38507,-5.15032 -7.67213,-3.7213c-1.92523,0.64175 -2.28603,1.85897 -2.4918,3.27235c-1.65681,0.06193 -3.26197,0.245 -4.7628,0.60399c0.60808,-1.44052 1.24374,-2.76523 1.91258,-3.98218z" data-paper-data="{&quot;index&quot;:null}" fill="url(#color-102)"/><path d="M53.88431,99.59275c9.25631,1.67409 16.20414,6.38338 20.68715,12.40756c-0.72588,-0.0002 -1.45164,-0.00008 -2.17726,0.00041c-7.34089,-1.69231 -20.01224,-0.4823 -21.85018,-0.50072c-2.31503,-0.02321 -5.24475,-0.4325 -8.40718,-0.83093c-0.31035,-0.29277 -0.7583,-0.29277 -0.7583,-0.29277c-1.8441,0.02836 -2.68359,-1.51101 -3.76448,-2.68095c4.26904,-3.99722 9.76754,-6.95643 16.27025,-8.10261z" data-paper-data="{&quot;index&quot;:null}" fill="url(#color-103)"/></g><g><g stroke="#000000"><path d="M52.08826,105.24527c-22.06313,-1.2097 -23.56804,-7.94216 -27.31232,-20.745c0.19568,-1.76367 3.15364,-4.17825 7.75747,-5.54751c4.86113,-1.44578 11.67194,-3.69055 19.69177,-3.29184c8.2643,0.41086 15.89772,3.39839 21.39062,5.17332c2.24502,0.72543 7.99192,3.6028 8.12102,7.10706c-5.2557,12.25247 -9.90781,18.38634 -29.64857,17.30399z" fill="url(#color-104)"/><path d="M32.5334,78.95275c4.86113,-1.44578 11.67194,-3.69055 19.69177,-3.29184c8.2643,0.41086 15.89772,3.39839 21.39062,5.17332c2.10404,0.67988 7.28396,3.24991 8.0325,6.45468c-1.12157,0.46857 -2.18812,1.22863 -2.70922,2.1956c-0.44293,0.82194 -0.33238,1.79023 -0.71861,2.58196c-0.42923,0.87984 -1.20386,1.60401 -1.57522,2.54633c-0.78768,1.9987 -1.1281,3.54606 -3.2025,4.56717c-0.9478,0.68392 -2.21184,1.17241 -3.07224,1.94556c-0.70216,0.63098 -1.01979,1.50633 -1.99956,1.87976c-1.73632,0.66178 -3.59793,0.81135 -5.33742,1.4392c-0.71146,0.2568 -1.36831,0.51806 -2.0038,0.72308c-1.09251,0.09988 -2.25066,0.16254 -3.48051,0.18751c-0.37434,-0.11456 -0.76108,-0.28159 -1.16602,-0.51177c-3.33381,-1.62461 -6.01345,-0.77417 -9.45793,-0.83356c-0.48796,-0.00843 -0.86574,-0.46323 -1.33164,-0.60853c-1.66875,-0.52042 -4.48684,-0.53869 -6.73884,-0.16394c-1.90683,-0.59208 -3.49968,-1.30467 -4.84934,-2.13948c-0.36161,-1.35527 -0.6039,-2.86249 -1.05698,-3.69318c-1.78276,-1.10342 -2.16618,-4.0187 -3.37777,-5.68159c-0.41222,-0.56578 -2.03629,-1.03451 -2.01563,-1.97828c0.03535,-1.61452 0.31867,-2.26154 -0.27919,-3.91445c-0.29217,-0.80778 0.32317,-1.73773 0.12641,-2.57387c-0.10353,-0.43997 -0.56908,-0.70237 -0.85362,-1.05356c0,0 -0.05867,-0.0648 -0.15894,-0.13333c1.34445,-1.17006 3.46559,-2.3203 6.14367,-3.11681z" fill="url(#color-105)"/></g><path d="M52.05684,98.5067c-16.51838,-0.90735 -17.51762,-8.51175 -20.31168,-18.28317c0.14781,-1.34659 12.59889,-4.92478 21.00453,-4.41522c8.40563,0.50957 21.54701,4.32529 21.64112,7.00047c-3.94407,9.35784 -7.55432,16.50977 -22.33396,15.69792z" fill="url(#color-106)" stroke="#000000"/><g><path d="M42.49256,83.16054l0.04788,-0.96312l21.11987,1.04999l-0.04788,0.96312z" fill="url(#color-107)" stroke="none"/><path d="M49.06262,84.17682l1.47751,-29.71916l1.37588,0.0684l-1.47751,29.71916z" fill="url(#color-108)" stroke="none"/><path d="M55.80447,84.51199l1.47751,-29.71916l1.37588,0.0684l-1.47751,29.71916z" fill="url(#color-109)" stroke="none"/><g><path d="M40.62857,82.83609c0.03838,-0.77199 2.36003,-1.51153 2.36003,-1.51153c0,0 1.71998,3.14545 10.26063,4.49333c8.35336,-0.46129 9.77055,-3.6097 9.77055,-3.6097c0,0 2.73271,1.01255 2.68985,1.87481c-0.0977,1.96515 -5.5492,4.59614 -12.73876,4.23871c-7.18957,-0.35743 -12.44001,-3.52047 -12.34231,-5.48563z" fill="url(#color-110)" stroke="none"/><path d="M63.26281,84.36829c0,0 0.12785,-0.78967 0.19594,-1.40337c0.08187,-0.73795 0.08192,-2.33885 0.08192,-2.33885c0,0 0.76898,1.50814 0.96433,2.2397c0.17689,0.66244 0.31783,1.51495 0.31783,1.51495z" data-paper-data="{&quot;index&quot;:null}" fill="url(#color-111)" stroke="#000000"/><path d="M41.45815,83.21912c0,0 0.2248,-0.83433 0.46653,-1.47595c0.26695,-0.70858 1.18173,-2.13301 1.18173,-2.13301c0,0 -0.15873,1.59301 -0.15047,2.33546c0.00687,0.61742 0.05578,1.41588 0.05578,1.41588z" data-paper-data="{&quot;index&quot;:null}" fill="url(#color-112)" stroke="#000000"/><path d="M61.9184,85.46631c0,0 0.12785,-0.78967 0.19594,-1.40336c0.08187,-0.73795 0.08192,-2.33886 0.08192,-2.33886c0,0 0.76899,1.50815 0.96434,2.23971c0.17689,0.66243 0.31783,1.51495 0.31783,1.51495z" data-paper-data="{&quot;index&quot;:null}" fill="url(#color-113)" stroke="#000000"/><path d="M42.68703,84.44507c0,0 0.22481,-0.83434 0.46653,-1.47595c0.26695,-0.70858 1.18173,-2.13302 1.18173,-2.13302c0,0 -0.15873,1.59302 -0.15047,2.33547c0.00687,0.61742 0.05578,1.41588 0.05578,1.41588z" data-paper-data="{&quot;index&quot;:null}" fill="url(#color-114)" stroke="#000000"/><path d="M60.08517,86.30705c0,0 0.12785,-0.78968 0.19594,-1.40337c0.08187,-0.73796 0.08192,-2.33886 0.08192,-2.33886c0,0 0.76898,1.50814 0.96433,2.23971c0.17689,0.66244 0.31783,1.51495 0.31783,1.51495z" data-paper-data="{&quot;index&quot;:null}" fill="url(#color-115)" stroke="#000000"/><path d="M44.42781,85.46351c0,0 0.22481,-0.83434 0.46653,-1.47596c0.26695,-0.70858 1.18174,-2.13302 1.18174,-2.13302c0,0 -0.15873,1.59301 -0.15047,2.33546c0.00687,0.61742 0.05578,1.41588 0.05578,1.41588z" data-paper-data="{&quot;index&quot;:null}" fill="url(#color-116)" stroke="#000000"/><path d="M58.19203,86.91185c0,0 0.12785,-0.78968 0.19594,-1.40337c0.08187,-0.73796 0.08192,-2.33885 0.08192,-2.33885c0,0 0.76899,1.50814 0.96434,2.2397c0.17689,0.66244 0.31783,1.51496 0.31783,1.51496z" data-paper-data="{&quot;index&quot;:null}" fill="url(#color-117)" stroke="#000000"/><path d="M46.25164,86.25309c0,0 0.22481,-0.83434 0.46653,-1.47596c0.26695,-0.70858 1.18173,-2.13301 1.18173,-2.13301c0,0 -0.15873,1.59301 -0.15047,2.33545c0.00687,0.61742 0.05578,1.41588 0.05578,1.41588z" data-paper-data="{&quot;index&quot;:null}" fill="url(#color-118)" stroke="#000000"/><path d="M56.09369,87.32007c0,0 0.12786,-0.78968 0.19594,-1.40337c0.08187,-0.73796 0.08191,-2.33886 0.08191,-2.33886c0,0 0.769,1.50813 0.96434,2.2397c0.17689,0.66244 0.31783,1.51496 0.31783,1.51496z" data-paper-data="{&quot;index&quot;:null}" fill="url(#color-119)" stroke="#000000"/><path d="M48.29914,86.86742c0,0 0.2248,-0.83434 0.46653,-1.47596c0.26695,-0.70858 1.18173,-2.13301 1.18173,-2.13301c0,0 -0.15873,1.59301 -0.15047,2.33545c0.00687,0.61742 0.05578,1.41588 0.05578,1.41588z" data-paper-data="{&quot;index&quot;:null}" fill="url(#color-120)" stroke="#000000"/><path d="M53.93542,87.49233c0,0 0.12786,-0.78968 0.19594,-1.40336c0.08187,-0.73796 0.08191,-2.33886 0.08191,-2.33886c0,0 0.76899,1.50814 0.96434,2.2397c0.17689,0.66244 0.31783,1.51496 0.31783,1.51496z" data-paper-data="{&quot;index&quot;:null}" fill="url(#color-121)" stroke="#000000"/><path d="M50.42968,87.2529c0,0 0.22481,-0.83434 0.46653,-1.47596c0.26695,-0.70858 1.18174,-2.13301 1.18174,-2.13301c0,0 -0.15873,1.59301 -0.15047,2.33546c0.00687,0.61742 0.05578,1.41587 0.05578,1.41587z" data-paper-data="{&quot;index&quot;:null}" fill="url(#color-122)" stroke="#000000"/></g></g><g data-paper-data="{&quot;index&quot;:null}"><path d="M72.84002,88.31284c0,0 0.29287,-2.3903 0.45895,-4.24624c0.1997,-2.23178 0.28369,-7.06397 0.28369,-7.06397c0,0 1.43359,4.51189 1.77949,6.70985c0.31321,1.99023 0.54578,4.55611 0.54578,4.55611z" data-paper-data="{&quot;index&quot;:null}" fill="url(#color-123)" stroke="#000000"/><path d="M76.57542,87.20068l-0.16043,3.22688c0,0 -0.86786,0.60025 -2.30108,0.49554c-1.48955,-0.10882 -2.13587,-0.71613 -2.13587,-0.71613l0.16043,-3.22688z" fill="url(#color-124)" stroke="none"/></g><g data-paper-data="{&quot;index&quot;:null}"><path d="M30.01035,85.98676c0,0 0.48593,-2.53017 0.995,-4.47951c0.56221,-2.15281 2.43625,-6.50026 2.43625,-6.50026c0,0 -0.3957,4.8167 -0.41836,7.05728c-0.01883,1.86326 0.03551,4.27082 0.03551,4.27082z" data-paper-data="{&quot;index&quot;:null}" fill="url(#color-125)" stroke="#000000"/><path d="M33.88904,85.0785l-0.16043,3.22688c0,0 -0.70339,0.5402 -2.19637,0.50075c-1.43655,-0.03796 -2.24058,-0.72133 -2.24058,-0.72133l0.16043,-3.22688z" fill="url(#color-126)" stroke="none"/></g><g data-paper-data="{&quot;index&quot;:null}"><path d="M70.13802,91.69756c0,0 0.29286,-2.39029 0.45894,-4.24623c0.1997,-2.23178 0.28369,-7.06398 0.28369,-7.06398c0,0 1.43359,4.51189 1.77949,6.70986c0.31321,1.99023 0.54579,4.55611 0.54579,4.55611z" data-paper-data="{&quot;index&quot;:null}" fill="url(#color-127)" stroke="#000000"/><path d="M73.87342,90.58542l-0.16043,3.22689c0,0 -0.86786,0.60024 -2.30109,0.49553c-1.48955,-0.10882 -2.13587,-0.71612 -2.13587,-0.71612l0.16043,-3.22689z" fill="url(#color-128)" stroke="none"/></g><g data-paper-data="{&quot;index&quot;:null}"><path d="M32.36332,89.62281c0,0 0.48593,-2.53017 0.995,-4.47951c0.56221,-2.15281 2.43625,-6.50027 2.43625,-6.50027c0,0 -0.39571,4.81671 -0.41836,7.05729c-0.01884,1.86327 0.03552,4.27081 0.03552,4.27081z" data-paper-data="{&quot;index&quot;:null}" fill="url(#color-129)" stroke="#000000"/><path d="M36.24201,88.71455l-0.16043,3.22689c0,0 -0.70339,0.5402 -2.19637,0.50074c-1.43655,-0.03796 -2.24058,-0.72132 -2.24058,-0.72132l0.16043,-3.22689z" fill="url(#color-130)" stroke="none"/></g><g data-paper-data="{&quot;index&quot;:null}"><path d="M66.48801,94.33137c0,0 0.29287,-2.39029 0.45894,-4.24624c0.1997,-2.23178 0.28369,-7.06398 0.28369,-7.06398c0,0 1.4336,4.51189 1.77951,6.70985c0.31321,1.99023 0.54578,4.55611 0.54578,4.55611z" data-paper-data="{&quot;index&quot;:null}" fill="url(#color-131)" stroke="#000000"/><path d="M70.22341,93.21922l-0.16043,3.22687c0,0 -0.86786,0.60025 -2.30108,0.49554c-1.48955,-0.10882 -2.13587,-0.71613 -2.13587,-0.71613l0.16043,-3.22687z" fill="url(#color-132)" stroke="none"/></g><g data-paper-data="{&quot;index&quot;:null}"><path d="M35.73408,92.60563c0,0 0.48593,-2.53017 0.995,-4.47951c0.56221,-2.15281 2.43624,-6.50026 2.43624,-6.50026c0,0 -0.39571,4.81671 -0.41836,7.05729c-0.01884,1.86327 0.03552,4.27082 0.03552,4.27082z" data-paper-data="{&quot;index&quot;:null}" fill="url(#color-133)" stroke="#000000"/><path d="M39.61279,91.6974l-0.16043,3.22687c0,0 -0.70339,0.5402 -2.19637,0.50075c-1.43655,-0.03796 -2.24058,-0.72133 -2.24058,-0.72133l0.16043,-3.22687z" fill="url(#color-134)" stroke="none"/></g><g data-paper-data="{&quot;index&quot;:null}"><path d="M62.73249,96.2561c0,0 0.29286,-2.39029 0.45894,-4.24623c0.1997,-2.23178 0.28369,-7.06398 0.28369,-7.06398c0,0 1.43359,4.51189 1.7795,6.70986c0.31321,1.99023 0.54578,4.55611 0.54578,4.55611z" data-paper-data="{&quot;index&quot;:null}" fill="url(#color-135)" stroke="#000000"/><path d="M66.46789,95.14395l-0.16043,3.22688c0,0 -0.86786,0.60024 -2.30109,0.49553c-1.48955,-0.10882 -2.13587,-0.71612 -2.13587,-0.71612l0.16043,-3.22688z" fill="url(#color-136)" stroke="none"/></g><g data-paper-data="{&quot;index&quot;:null}"><path d="M39.28019,94.89338c0,0 0.48593,-2.53017 0.995,-4.47951c0.56221,-2.15281 2.43625,-6.50027 2.43625,-6.50027c0,0 -0.39571,4.81671 -0.41836,7.05729c-0.01884,1.86327 0.03552,4.27081 0.03552,4.27081z" data-paper-data="{&quot;index&quot;:null}" fill="url(#color-137)" stroke="#000000"/><path d="M43.15888,93.98513l-0.16043,3.22688c0,0 -0.70338,0.5402 -2.19636,0.50074c-1.43655,-0.03796 -2.24058,-0.72132 -2.24058,-0.72132l0.16043,-3.22688z" fill="url(#color-138)" stroke="none"/></g><g data-paper-data="{&quot;index&quot;:null}"><path d="M58.58364,97.59823c0,0 0.29287,-2.3903 0.45894,-4.24624c0.1997,-2.23178 0.28369,-7.06398 0.28369,-7.06398c0,0 1.43359,4.51189 1.7795,6.70986c0.31322,1.99023 0.54578,4.55611 0.54578,4.55611z" data-paper-data="{&quot;index&quot;:null}" fill="url(#color-139)" stroke="#000000"/><path d="M62.31904,96.48608l-0.16043,3.22688c0,0 -0.86786,0.60025 -2.30108,0.49553c-1.48955,-0.10882 -2.13587,-0.71612 -2.13587,-0.71612l0.16043,-3.22688z" fill="url(#color-140)" stroke="none"/></g><g data-paper-data="{&quot;index&quot;:null}"><path d="M43.27545,96.64039c0,0 0.48592,-2.53017 0.995,-4.47951c0.56221,-2.15281 2.43625,-6.50027 2.43625,-6.50027c0,0 -0.39571,4.81671 -0.41836,7.05729c-0.01884,1.86327 0.03552,4.27082 0.03552,4.27082z" data-paper-data="{&quot;index&quot;:null}" fill="url(#color-141)" stroke="#000000"/><path d="M47.15415,95.73215l-0.16043,3.22688c0,0 -0.70339,0.5402 -2.19637,0.50074c-1.43655,-0.03796 -2.24058,-0.72132 -2.24058,-0.72132l0.16043,-3.22688z" fill="url(#color-142)" stroke="none"/></g><g data-paper-data="{&quot;index&quot;:null}"><path d="M54.32928,98.23129c0,0 0.29288,-2.39029 0.45895,-4.24623c0.1997,-2.23178 0.28369,-7.06398 0.28369,-7.06398c0,0 1.43359,4.51189 1.7795,6.70986c0.31322,1.99023 0.54579,4.55611 0.54579,4.55611z" data-paper-data="{&quot;index&quot;:null}" fill="url(#color-143)" stroke="#000000"/><path d="M58.06468,97.11915l-0.16043,3.22689c0,0 -0.86786,0.60024 -2.30108,0.49553c-1.48955,-0.10882 -2.13587,-0.71612 -2.13587,-0.71612l0.16043,-3.22689z" fill="url(#color-144)" stroke="none"/></g><g data-paper-data="{&quot;index&quot;:null}"><path d="M47.44604,97.69231c0,0 0.48593,-2.53017 0.995,-4.47951c0.56221,-2.15281 2.43624,-6.50027 2.43624,-6.50027c0,0 -0.39571,4.81671 -0.41836,7.05729c-0.01884,1.86327 0.03551,4.27081 0.03551,4.27081z" data-paper-data="{&quot;index&quot;:null}" fill="url(#color-145)" stroke="#000000"/><path d="M51.32473,96.78407l-0.16043,3.22689c0,0 -0.70339,0.5402 -2.19637,0.50074c-1.43655,-0.03796 -2.24058,-0.72132 -2.24058,-0.72132l0.16043,-3.22689z" fill="url(#color-146)" stroke="none"/></g></g><g><g><g><path d="M28.96335,61.54493c0,0 -0.29287,2.39029 -0.45895,4.24624c-0.1997,2.23178 -0.28369,7.06397 -0.28369,7.06397c0,0 -1.43358,-4.51189 -1.77949,-6.70985c-0.31322,-1.99023 -0.54579,-4.55611 -0.54579,-4.55611z" data-paper-data="{&quot;index&quot;:null}" fill="url(#color-147)" stroke="#000000"/><path d="M25.22795,62.65708l0.16043,-3.22687l4.43696,0.22059l-0.16043,3.22687z" fill="url(#color-148)" stroke="none"/></g><g data-paper-data="{&quot;index&quot;:null}"><path d="M83.02608,64.711c0,0 -0.48593,2.53016 -0.99501,4.4795c-0.56222,2.15281 -2.43625,6.50027 -2.43625,6.50027c0,0 0.39571,-4.81672 0.41836,-7.0573c0.01884,-1.86327 -0.0355,-4.27082 -0.0355,-4.27082z" data-paper-data="{&quot;index&quot;:null}" fill="url(#color-149)" stroke="#000000"/><path d="M79.14738,65.61924l0.16043,-3.22688l4.43696,0.22059l-0.16043,3.22688z" fill="url(#color-150)" stroke="none"/></g><g><path d="M32.41234,63.79351c0,0 -0.29287,2.39029 -0.45895,4.24624c-0.1997,2.23178 -0.28369,7.06397 -0.28369,7.06397c0,0 -1.43359,-4.51189 -1.7795,-6.70985c-0.31322,-1.99023 -0.54578,-4.55611 -0.54578,-4.55611z" data-paper-data="{&quot;index&quot;:null}" fill="url(#color-151)" stroke="#000000"/><path d="M28.67693,64.90567l0.16043,-3.22688l4.43696,0.22059l-0.16043,3.22688z" fill="url(#color-152)" stroke="none"/></g><g data-paper-data="{&quot;index&quot;:null}"><path d="M79.37106,66.60641c0,0 -0.48593,2.53017 -0.995,4.47951c-0.56222,2.15281 -2.43625,6.50026 -2.43625,6.50026c0,0 0.3957,-4.8167 0.41836,-7.05728c0.01884,-1.86327 -0.03551,-4.27082 -0.03551,-4.27082z" data-paper-data="{&quot;index&quot;:null}" fill="url(#color-153)" stroke="#000000"/><path d="M75.49238,67.51466l0.16043,-3.22689l4.43696,0.22059l-0.16043,3.22689z" fill="url(#color-154)" stroke="none"/></g><g><path d="M36.52048,66.7102c0,0 -0.29286,2.39029 -0.45894,4.24623c-0.1997,2.23178 -0.28369,7.06399 -0.28369,7.06399c0,0 -1.43359,-4.51189 -1.7795,-6.70986c-0.31322,-1.99023 -0.54578,-4.55611 -0.54578,-4.55611z" data-paper-data="{&quot;index&quot;:null}" fill="url(#color-155)" stroke="#000000"/><path d="M32.78507,67.82234l0.16043,-3.22689l4.43696,0.22059l-0.16043,3.22689z" fill="url(#color-156)" stroke="none"/></g><g data-paper-data="{&quot;index&quot;:null}"><path d="M75.00784,68.8204c0,0 -0.48593,2.53017 -0.995,4.47951c-0.56222,2.15281 -2.43625,6.50027 -2.43625,6.50027c0,0 0.39571,-4.81672 0.41836,-7.0573c0.01884,-1.86327 -0.03551,-4.27081 -0.03551,-4.27081z" data-paper-data="{&quot;index&quot;:null}" fill="url(#color-157)" stroke="#000000"/><path d="M71.12916,69.72864l0.16043,-3.22689l4.43696,0.22059l-0.16043,3.22689z" fill="url(#color-158)" stroke="none"/></g><path d="M86.6852,59.18158c-0.58531,4.92588 -7.25246,6.07228 -9.84928,6.81271c-6.35367,1.81162 -15.1302,2.67696 -24.40506,2.21586c-9.00047,-0.44746 -16.41412,-2.55403 -21.65718,-5.20512c-4.96558,-2.51078 -8.00135,-5.5108 -7.99767,-8.02278c5.79069,-17.58471 5.92555,-30.07802 33.28546,-29.68811c26.43066,2.93364 26.30098,15.94573 30.62373,33.88744z" fill="url(#color-159)" stroke="#000000"/><path d="M85.15063,59.93733c-0.56946,4.92667 -5.68472,6.99537 -8.16229,7.74172c-6.06191,1.82612 -15.46312,4.01263 -24.30488,3.57306c-8.58019,-0.42657 -16.2363,-3.55936 -21.229,-6.198c-4.72846,-2.49899 -7.25248,-6.31872 -7.24315,-8.83042c5.56168,-17.5961 2.9525,6.11519 29.03708,6.4417c25.19274,2.8721 27.82241,-20.65771 31.90226,-2.72808z" fill="url(#color-160)" stroke="#000000"/><path d="M52.43086,68.21015c-1.66112,-0.08258 -3.26818,-0.22168 -4.81752,-0.41029c-1.71766,-1.93493 -3.3731,-3.77407 -5.44932,-5.49877c-1.31166,-0.83786 -1.27392,-1.12092 -2.88651,-0.96576c-0.62093,0.05975 -1.36692,0.90787 -1.81135,0.47015c-0.73741,-0.72628 -1.24567,-2.75336 -2.32365,-3.24459c-2.16515,-0.98664 -2.77846,1.67128 -4.77634,-0.21312c-0.19953,-0.18819 0.07541,-0.56222 -0.01029,-0.82275c-0.16093,-0.48924 -1.23104,-2.35149 -1.68532,-2.61256c-1.79616,-1.03223 -3.94239,0.29107 -5.44986,1.09659c0,0 -0.29764,0.15904 -0.45401,0.46523c-0.02692,-0.16345 -0.04045,-0.32885 -0.04019,-0.49652c5.79069,-17.5847 5.97504,-31.07357 33.33495,-30.68365c6.71637,0.74548 11.71765,2.14174 15.51272,4.10433c-0.34231,0.64903 -0.69325,1.28779 -0.81598,2.01626c-0.14636,0.86867 0.63262,1.60933 -0.40223,2.04328c-0.41764,0.17512 -0.82096,-0.3853 -1.24615,-0.54121c-0.6569,-0.24087 -1.52128,0.33879 -2.09822,-0.05703c-0.43803,-0.30052 -0.49571,-1.11964 -1.01574,-1.22794c-0.77716,-0.16187 -2.73484,1.18972 -3.71873,0.72854c-0.5325,-0.24959 -0.85682,-1.04606 -1.44403,-1.01364c-1.96236,0.10836 -1.4196,1.98824 -3.18523,2.17599c-0.46788,0.43844 -1.08545,0.75864 -1.40363,1.31533c-0.31288,0.54745 0.08728,1.28676 -0.09936,1.88907c-0.14393,0.46451 -0.59022,-0.79337 -0.74488,-1.25443c-0.37291,-1.11174 -0.55312,-1.9975 -1.74442,-2.6341c-0.08554,-0.04571 -0.1689,-0.0822 -0.25046,-0.111c0.03597,-0.3761 -0.18004,-0.69606 -0.18004,-0.69606c-0.51401,-0.69232 -1.31713,-1.14159 -2.08945,-1.52504c-0.7172,-0.35608 -1.11221,-1.28413 -1.8869,-1.48667c-1.99356,-0.5212 -3.95972,1.26351 -5.29688,2.47713c-2.46716,0.60784 -2.10856,3.52268 -3.8083,4.93002c-0.73274,0.87829 -2.3116,2.27708 -2.18661,3.55916c0.20025,2.05427 2.46066,1.56823 2.71752,3.51965c0.10558,0.80209 -0.48795,1.94391 0.07567,2.66553c1.19449,1.52933 3.41641,-0.04257 4.63123,0.88539c1.12313,0.85793 1.19089,2.65744 3.19892,2.52189c0.8346,-0.05634 2.8156,-2.06333 3.28891,-2.73332c0.31157,-0.44103 0.34958,-1.13545 0.82289,-1.3954c0.93589,-0.37411 1.86683,-1.15936 2.14923,-2.12689c0.07032,-0.24094 -0.22464,-0.51736 -0.11659,-0.74391c0.1071,-0.2246 0.93274,-0.34721 0.69873,-0.26263c-0.6041,0.21833 -0.56273,1.77957 -0.53991,1.84144c0.60395,1.63716 1.26841,0.92152 2.23886,1.65614c1.18183,0.89461 1.04988,3.44442 2.61217,4.22238c1.98365,0.98777 2.65229,-0.63807 3.93141,-1.40532c0.76574,-0.45931 2.33522,0.05759 3.1194,-0.186c1.0337,-0.32108 1.40826,-0.94829 2.0267,-1.69278c0.76031,-0.53784 1.46117,-1.30978 1.71465,-2.20595c0.18352,-0.64885 -0.21036,-1.39741 0.04259,-2.02248c0.22594,-0.55833 1.97204,-0.70639 2.01138,-0.72577c0.58495,-0.28813 1.16077,-0.66354 1.56217,-1.17741c0.61871,-0.79207 0.69949,-2.39436 1.29619,-3.30227c0.7504,-1.14179 1.47017,-2.24627 2.22718,-3.30964c5.01961,5.54112 6.30536,13.27357 8.38343,22.44586c-1.12492,0.7264 -2.224,0.91917 -3.38172,1.6334c-0.31815,0.19627 -0.63628,0.97597 -0.88124,0.69362c-1.03644,-1.19472 -0.35607,-3.21869 -3.11553,-1.78074c-0.88827,0.46288 -1.50215,3.16853 -1.34515,4.03319c0.10606,0.5841 1.01492,1.01869 0.82177,1.58006c-0.25424,0.73896 -1.00865,1.23831 -1.25596,1.97962c-0.22234,0.66649 -0.32059,1.08268 -0.3697,1.48872c-6.32719,1.75144 -14.96816,2.58127 -24.09128,2.12771z" fill="url(#color-161)" stroke="#000000"/><path d="M51.67756,38.18234c-0.1309,2.63301 -2.31381,4.66424 -4.87567,4.53688c-2.56186,-0.12736 -4.53253,-2.3651 -4.40163,-4.9981c0.1309,-2.63301 2.31381,-4.66424 4.87567,-4.53688c2.56186,0.12736 4.53253,2.3651 4.40163,4.9981z" fill="url(#color-162)" stroke="none"/><path d="M68.0115,38.9944c-0.1309,2.63301 -2.3138,4.66424 -4.87566,4.53688c-2.56186,-0.12736 -4.53253,-2.3651 -4.40163,-4.9981c0.1309,-2.63301 2.31381,-4.66424 4.87567,-4.53688c2.56186,0.12736 4.53252,2.3651 4.40162,4.9981z" fill="url(#color-163)" stroke="none"/><g stroke="none"><path d="M49.58174,38.07815c-0.07176,1.44337 -1.26838,2.55685 -2.67275,2.48703c-1.40435,-0.06982 -2.48465,-1.2965 -2.41289,-2.73987c0.07176,-1.44337 1.26838,-2.55685 2.67275,-2.48703c1.40435,0.06982 2.48465,1.2965 2.41289,2.73987z" fill="url(#color-164)"/><path d="M48.49961,38.02435c-0.04122,0.82913 -0.7286,1.46877 -1.53533,1.42866c-0.80672,-0.04011 -1.42728,-0.74477 -1.38606,-1.5739c0.04122,-0.82913 0.7286,-1.46876 1.53533,-1.42865c0.80672,0.04011 1.42728,0.74476 1.38606,1.57389z" fill="#ffffff"/></g><g stroke="none"><path d="M65.91567,38.8902c-0.07176,1.44337 -1.26837,2.55685 -2.67274,2.48703c-1.40435,-0.06982 -2.48465,-1.2965 -2.41289,-2.73987c0.07176,-1.44337 1.26838,-2.55685 2.67275,-2.48703c1.40435,0.06982 2.48464,1.2965 2.41288,2.73987z" fill="url(#color-165)"/><path d="M64.83355,38.8364c-0.04122,0.82913 -0.7286,1.46877 -1.53533,1.42866c-0.80672,-0.04011 -1.42728,-0.74477 -1.38606,-1.5739c0.04122,-0.82913 0.7286,-1.46876 1.53533,-1.42865c0.80672,0.04011 1.42728,0.74476 1.38606,1.57389z" fill="#ffffff"/></g></g><g><g><path d="M38.96418,68.52083c0,0 -0.29287,2.39029 -0.45895,4.24624c-0.1997,2.23178 -0.28369,7.06398 -0.28369,7.06398c0,0 -1.43358,-4.51189 -1.77949,-6.70986c-0.31322,-1.99023 -0.54578,-4.55611 -0.54578,-4.55611z" data-paper-data="{&quot;index&quot;:null}" fill="url(#color-166)" stroke="#000000"/><path d="M35.22879,69.63299l0.16043,-3.22688l4.43695,0.22059l-0.16043,3.22688z" fill="url(#color-167)" stroke="none"/></g><g data-paper-data="{&quot;index&quot;:null}"><path d="M71.41368,70.33086c0,0 -0.48593,2.53017 -0.995,4.47951c-0.56222,2.15281 -2.43625,6.50027 -2.43625,6.50027c0,0 0.39571,-4.81671 0.41836,-7.05729c0.01884,-1.86327 -0.03551,-4.27082 -0.03551,-4.27082z" data-paper-data="{&quot;index&quot;:null}" fill="url(#color-168)" stroke="#000000"/><path d="M67.53499,71.23911l0.16043,-3.22688l4.43696,0.22059l-0.16043,3.22688z" fill="url(#color-169)" stroke="none"/></g><g><path d="M41.86405,69.65034c0,0 -0.29286,2.3903 -0.45893,4.24624c-0.1997,2.23178 -0.28369,7.06397 -0.28369,7.06397c0,0 -1.43359,-4.51189 -1.7795,-6.70985c-0.31322,-1.99023 -0.54579,-4.55611 -0.54579,-4.55611z" data-paper-data="{&quot;index&quot;:null}" fill="url(#color-170)" stroke="#000000"/><path d="M38.12866,70.76248l0.16043,-3.22687l4.43696,0.22059l-0.16043,3.22687z" fill="url(#color-171)" stroke="none"/></g><g data-paper-data="{&quot;index&quot;:null}"><path d="M68.41607,71.16718c0,0 -0.48593,2.53017 -0.995,4.47951c-0.56222,2.15281 -2.43624,6.50026 -2.43624,6.50026c0,0 0.3957,-4.8167 0.41836,-7.05728c0.01884,-1.86327 -0.03552,-4.27082 -0.03552,-4.27082z" data-paper-data="{&quot;index&quot;:null}" fill="url(#color-172)" stroke="#000000"/><path d="M64.53741,72.07541l0.16043,-3.22687l4.43696,0.22059l-0.16043,3.22687z" fill="url(#color-173)" stroke="none"/></g><g><path d="M44.87918,71.29276c0,0 -0.29286,2.39029 -0.45893,4.24624c-0.1997,2.23178 -0.28369,7.06398 -0.28369,7.06398c0,0 -1.43359,-4.51189 -1.7795,-6.70985c-0.31322,-1.99023 -0.54579,-4.55611 -0.54579,-4.55611z" data-paper-data="{&quot;index&quot;:null}" fill="url(#color-174)" stroke="#000000"/><path d="M41.14378,72.40491l0.16043,-3.22689l4.43696,0.22059l-0.16043,3.22689z" fill="url(#color-175)" stroke="none"/></g><g data-paper-data="{&quot;index&quot;:null}"><path d="M65.25292,72.50243c0,0 -0.48593,2.53017 -0.995,4.47951c-0.56221,2.15281 -2.43626,6.50026 -2.43626,6.50026c0,0 0.39571,-4.81671 0.41836,-7.05729c0.01883,-1.86327 -0.0355,-4.27082 -0.0355,-4.27082z" data-paper-data="{&quot;index&quot;:null}" fill="url(#color-176)" stroke="#000000"/><path d="M61.37424,73.41068l0.16043,-3.22689l4.43696,0.22059l-0.16043,3.22689z" fill="url(#color-177)" stroke="none"/></g><g><path d="M48.44315,72.05085c0,0 -0.29287,2.39029 -0.45894,4.24623c-0.1997,2.23178 -0.28369,7.06398 -0.28369,7.06398c0,0 -1.43359,-4.51189 -1.77951,-6.70985c-0.31322,-1.99023 -0.54578,-4.55611 -0.54578,-4.55611z" data-paper-data="{&quot;index&quot;:null}" fill="url(#color-178)" stroke="#000000"/><path d="M44.70775,73.163l0.16043,-3.22688l4.43696,0.22059l-0.16043,3.22688z" fill="url(#color-179)" stroke="none"/></g><g data-paper-data="{&quot;index&quot;:null}"><path d="M61.63133,72.9033c0,0 -0.48593,2.53017 -0.995,4.47951c-0.56221,2.15281 -2.43625,6.50026 -2.43625,6.50026c0,0 0.39571,-4.81671 0.41836,-7.05729c0.01883,-1.86327 -0.03551,-4.27081 -0.03551,-4.27081z" data-paper-data="{&quot;index&quot;:null}" fill="url(#color-180)" stroke="#000000"/><path d="M57.75266,73.81153l0.16043,-3.22688l4.43696,0.22059l-0.16043,3.22688z" fill="url(#color-181)" stroke="none"/></g><g data-paper-data="{&quot;index&quot;:null}"><path d="M57.80521,73.41689c0,0 -0.48593,2.53017 -0.995,4.47951c-0.56221,2.15281 -2.43624,6.50026 -2.43624,6.50026c0,0 0.39571,-4.81671 0.41836,-7.05729c0.01883,-1.86327 -0.03551,-4.27082 -0.03551,-4.27082z" data-paper-data="{&quot;index&quot;:null}" fill="url(#color-182)" stroke="#000000"/><path d="M53.92652,74.32513l0.16043,-3.22688l4.43696,0.22059l-0.16043,3.22688z" fill="url(#color-183)" stroke="none"/></g><g data-paper-data="{&quot;index&quot;:null}"><path d="M52.47353,72.81427c0,0 -0.29287,2.39029 -0.45894,4.24624c-0.1997,2.23178 -0.28369,7.06397 -0.28369,7.06397c0,0 -1.43359,-4.51189 -1.77949,-6.70985c-0.31322,-1.99023 -0.5458,-4.55611 -0.5458,-4.55611z" data-paper-data="{&quot;index&quot;:null}" fill="url(#color-184)" stroke="#000000"/><path d="M48.73812,73.92642l0.16043,-3.22689l4.43696,0.22059l-0.16043,3.22689z" fill="url(#color-185)" stroke="none"/></g><g><path d="M72.49081,68.25365c-0.32121,2.42874 -10.59259,6.05637 -19.97582,5.38582c-10.75992,-0.76895 -17.66196,-6.35502 -17.67169,-7.59496c3.32534,-8.65276 1.86062,3.03722 17.96754,3.35926c15.57199,1.57327 17.05048,-10.02698 19.67998,-1.15012z" fill="url(#color-186)" stroke="#000000"/><g><path d="M53.15736,71.52731c0,0 -20.81059,0.92444 -20.46583,-13.54072c0.35508,-14.89795 11.93911,-13.59357 21.89307,-13.07683c12.31294,0.49748 20.74157,1.95978 20.35705,15.58983c-0.37788,13.39443 -21.78429,11.02773 -21.78429,11.02773z" fill="url(#color-187)" stroke="#000000"/><g><path d="M32.69153,57.98659c0.35508,-14.89795 11.93911,-13.59357 21.89307,-13.07683c12.31294,0.49748 20.74157,1.95978 20.35705,15.58983c-0.04624,1.63923 -0.40744,3.0424 -1.00579,4.24274c-0.44224,-0.41117 -1.05938,-0.14003 -1.05938,-0.14003c-1.88758,0.83204 -3.54162,0.5378 -5.55996,1.10865c-0.65116,0.18417 -1.30946,-0.65289 -1.96816,-0.49777c-0.81947,0.19298 -1.30182,1.09564 -2.06047,1.46064c-0.8124,0.39087 -1.58073,1.16337 -2.47861,1.08229c-0.40736,-0.03678 -0.73268,-0.48495 -1.14043,-0.45286c-1.50755,0.11863 -1.30342,0.75953 -2.30314,1.40134c-1.25631,0.80654 -1.98903,1.04623 -3.4567,0.97043c-1.17874,-0.0586 -2.76578,-0.42237 -3.89552,-0.30943c-0.48799,0.04878 -0.99724,0.75301 -1.55966,0.38967c-0.3879,-0.2506 -0.60313,-0.78249 -1.04811,-0.90604c-0.87659,-0.24337 -1.75087,0.412 -2.63104,0.2502c-0.94428,-0.17357 -2.14539,-0.45007 -3.11095,-0.67815c-0.96428,-0.22777 -1.5279,-1.18569 -2.32936,-1.62485c-1.17784,-0.64537 -2.2572,-0.5241 -3.44945,-0.44973c-1.98218,-1.95988 -3.28169,-4.65523 -3.19338,-8.36012z" fill="url(#color-188)" stroke="#000000"/><path d="M38.59746,55.83035c0.77381,0.03847 1.34808,1.13604 1.28268,2.45152c-0.0654,1.31546 -0.7457,2.35067 -1.51951,2.3122c-0.77381,-0.03847 -1.34808,-1.13604 -1.28268,-2.45152c0.0654,-1.31546 0.7457,-2.35067 1.51951,-2.3122z" data-paper-data="{&quot;index&quot;:null}" fill="url(#color-189)" stroke="none"/><path d="M71.1246,59.8352c-0.0654,1.31546 -0.7457,2.35067 -1.51951,2.3122c-0.77381,-0.03847 -1.34808,-1.13604 -1.28268,-2.45152c0.0654,-1.31546 0.74569,-2.35067 1.51951,-2.3122c0.77381,0.03847 1.34808,1.13604 1.28268,2.45152z" data-paper-data="{&quot;index&quot;:null}" fill="url(#color-190)" stroke="none"/></g></g></g></g></g></g><path d="M17.75,112.875v-89.75h74.81843v89.75zM89.22799,109.06461l0.16055,-82.6856l-68.07513,0.16055l0.16055,82.6856z" fill="#ffffff" stroke="none" stroke-width="0"/></g></g></svg>