<svg version="1.1" xmlns="http://www.w3.org/2000/svg" xmlns:xlink="http://www.w3.org/1999/xlink" width="69.19165" height="364.56456" viewBox="0,0,69.19165,364.56456"><defs><radialGradient cx="56.79684" cy="12.06642" r="34.59582" gradientUnits="userSpaceOnUse" id="color-1"><stop offset="0" stop-color="#a9a9a9"/><stop offset="1" stop-color="#8d8d8d"/></radialGradient><radialGradient cx="55.57154" cy="25.57993" r="24.35548" gradientUnits="userSpaceOnUse" id="color-2"><stop offset="0" stop-color="#414141"/><stop offset="1" stop-color="#0a0a0a"/></radialGradient><radialGradient cx="1.51862" cy="173.05391" r="23.97463" gradientUnits="userSpaceOnUse" id="color-3"><stop offset="0" stop-color="#434343"/><stop offset="1" stop-color="#272727"/></radialGradient><radialGradient cx="2.93082" cy="36.24931" r="6.58142" gradientUnits="userSpaceOnUse" id="color-4"><stop offset="0" stop-color="#626262"/><stop offset="1" stop-color="#4f4f4f"/></radialGradient><radialGradient cx="2.93082" cy="67.91598" r="6.58142" gradientUnits="userSpaceOnUse" id="color-5"><stop offset="0" stop-color="#626262"/><stop offset="1" stop-color="#4f4f4f"/></radialGradient><radialGradient cx="2.93082" cy="100.41598" r="6.58142" gradientUnits="userSpaceOnUse" id="color-6"><stop offset="0" stop-color="#626262"/><stop offset="1" stop-color="#4f4f4f"/></radialGradient><radialGradient cx="2.84066" cy="37.6729" r="6.19989" gradientUnits="userSpaceOnUse" id="color-7"><stop offset="0" stop-color="#575757"/><stop offset="1" stop-color="#434343"/></radialGradient><radialGradient cx="2.84066" cy="69.33956" r="6.19989" gradientUnits="userSpaceOnUse" id="color-8"><stop offset="0" stop-color="#575757"/><stop offset="1" stop-color="#434343"/></radialGradient><radialGradient cx="2.84066" cy="101.83957" r="6.19989" gradientUnits="userSpaceOnUse" id="color-9"><stop offset="0" stop-color="#575757"/><stop offset="1" stop-color="#434343"/></radialGradient><radialGradient cx="-1.95756" cy="45.41597" r="1.59766" gradientUnits="userSpaceOnUse" id="color-10"><stop offset="0" stop-color="#c3c3c3" stop-opacity="0"/><stop offset="1" stop-color="#c3c3c3"/></radialGradient><radialGradient cx="3.69388" cy="43.2493" r="1.71689" gradientUnits="userSpaceOnUse" id="color-11"><stop offset="0" stop-color="#c3c3c3" stop-opacity="0"/><stop offset="1" stop-color="#c3c3c3"/></radialGradient><radialGradient cx="-3.72528" cy="75.02987" r="1.59766" gradientUnits="userSpaceOnUse" id="color-12"><stop offset="0" stop-color="#c3c3c3" stop-opacity="0"/><stop offset="1" stop-color="#c3c3c3"/></radialGradient><radialGradient cx="6.07863" cy="75.59637" r="1.71689" gradientUnits="userSpaceOnUse" id="color-13"><stop offset="0" stop-color="#c3c3c3" stop-opacity="0"/><stop offset="1" stop-color="#c3c3c3"/></radialGradient><radialGradient cx="-2.7953" cy="108.02987" r="1.59766" gradientUnits="userSpaceOnUse" id="color-14"><stop offset="0" stop-color="#c3c3c3" stop-opacity="0"/><stop offset="1" stop-color="#c3c3c3"/></radialGradient><radialGradient cx="5.43479" cy="108.59638" r="1.71689" gradientUnits="userSpaceOnUse" id="color-15"><stop offset="0" stop-color="#c3c3c3" stop-opacity="0"/><stop offset="1" stop-color="#c3c3c3"/></radialGradient></defs><g transform="translate(7.80904,2.28228)"><g data-paper-data="{&quot;isPaintingLayer&quot;:true}" fill-rule="nonzero" stroke="none" stroke-linecap="butt" stroke-linejoin="miter" stroke-miterlimit="10" stroke-dasharray="" stroke-dashoffset="0" style="mix-blend-mode: normal"><g><path d="M-7.80904,362.28228v-364.56456h69.19165v364.56456z" fill="url(#color-1)" stroke-width="0"/><path d="M9.87891,347.56756v-335.13513h48.71095v335.13513z" fill="url(#color-2)" stroke-width="0"/><path d="M-5.73166,347.56756v-335.13513h14.19608v335.13513z" fill="url(#color-3)" stroke-width="0"/><path d="M-5.20588,58.15624v-27h13.16284v27z" fill="url(#color-4)" stroke-width="0"/><path d="M-5.20588,89.82291v-27h13.16284v27z" fill="url(#color-5)" stroke-width="0"/><path d="M-5.20588,122.32291v-27h13.16284v27z" fill="url(#color-6)" stroke-width="0"/><path d="M-4.82435,55.87019v-22.42792h12.39978v22.42792z" fill="url(#color-7)" stroke-width="0"/><path d="M-4.82435,87.53686v-22.42792h12.39978v22.42792z" fill="url(#color-8)" stroke-width="0"/><path d="M-4.82435,120.03686v-22.42792h12.39978v22.42792z" fill="url(#color-9)" stroke-width="0"/><path d="M-2.16105,53.49522l-0.11647,-15.6455l6.90592,-2.51151l0.11647,15.6455z" fill="#efefef" stroke-width="0"/><path d="M-3.91028,83.07736l-0.08686,-15.69732l11.26243,1.70617l0.08686,15.69732z" fill="#efefef" stroke-width="0"/><path d="M-3.12004,119.30082l-0.34403,-15.06502l9.86758,-6.87306l0.34403,15.06502z" fill="#efefef" stroke-width="0"/><text transform="translate(0.00749,49.70252) rotate(-19.98803) scale(0.04077,0.33458) skewX(-71.0727)" font-size="40" xml:space="preserve" fill="#000000" fill-rule="nonzero" stroke="none" stroke-width="1" stroke-linecap="butt" stroke-linejoin="miter" stroke-miterlimit="10" stroke-dasharray="" stroke-dashoffset="0" font-family="Handwriting" font-weight="normal" text-anchor="start" style="mix-blend-mode: normal"><tspan x="0" dy="0">A/C</tspan></text><text transform="translate(-2.51938,80.74227) rotate(-0.95578) scale(0.03837,0.35549) skewX(-8.6105)" font-size="40" xml:space="preserve" fill="#000000" fill-rule="nonzero" stroke="none" stroke-width="1" stroke-linecap="butt" stroke-linejoin="miter" stroke-miterlimit="10" stroke-dasharray="" stroke-dashoffset="0" font-family="Handwriting" font-weight="normal" text-anchor="start" style="mix-blend-mode: normal"><tspan x="0" dy="0">CAMERAS</tspan></text><text transform="translate(-2.42324,116.49176) rotate(-38.91418) scale(0.04898,0.27848) skewX(-77.29926)" font-size="40" xml:space="preserve" fill="#000000" fill-rule="nonzero" stroke="none" stroke-width="1" stroke-linecap="butt" stroke-linejoin="miter" stroke-miterlimit="10" stroke-dasharray="" stroke-dashoffset="0" font-family="Handwriting" font-weight="normal" text-anchor="start" style="mix-blend-mode: normal"><tspan x="0" dy="0">VENT SEAL</tspan></text><path d="M-2.79907,55.78235l0.50577,-22.05179l1.17726,1.31904l-0.50577,22.05179z" fill="url(#color-10)" stroke-width="0"/><path d="M3.43002,55.76325l-0.5993,-23.63164l1.12703,-1.39625l0.5993,23.63164z" fill="url(#color-11)" stroke-width="0"/><path d="M-4.36526,86.07737l0.08813,-22.32483l1.19183,0.22985l-0.08813,22.32484z" fill="url(#color-12)" stroke-width="0"/><path d="M5.36822,87.23019l0.28004,-23.92005l1.14078,0.65243l-0.28004,23.92006z" fill="url(#color-13)" stroke-width="0"/><path d="M-4.00972,116.397l1.34781,-20.24932l1.08103,3.51506l-1.34781,20.24931z" fill="url(#color-14)" stroke-width="0"/><path d="M5.86523,120.88252l-1.82948,-20.30998l0.96861,-4.2623l1.82948,20.30999z" fill="url(#color-15)" stroke-width="0"/></g></g></g></svg>