<svg version="1.1" xmlns="http://www.w3.org/2000/svg" xmlns:xlink="http://www.w3.org/1999/xlink" width="664.99917" height="467.97297" viewBox="0,0,664.99917,467.97297"><defs><linearGradient x1="165.71337" y1="190.71826" x2="189.88007" y2="190.71826" gradientUnits="userSpaceOnUse" id="color-1"><stop offset="0" stop-color="#c2c2c2"/><stop offset="1" stop-color="#000000"/></linearGradient><linearGradient x1="299.71333" y1="190.71826" x2="274.04672" y2="190.71826" gradientUnits="userSpaceOnUse" id="color-2"><stop offset="0" stop-color="#c2c2c2"/><stop offset="1" stop-color="#000000"/></linearGradient><linearGradient x1="232.81967" y1="274.69827" x2="232.81967" y2="300.91427" gradientUnits="userSpaceOnUse" id="color-3"><stop offset="0" stop-color="#000000"/><stop offset="1" stop-color="#c2c2c2"/></linearGradient><linearGradient x1="233.15305" y1="110.58093" x2="233.15305" y2="93.69824" gradientUnits="userSpaceOnUse" id="color-4"><stop offset="0" stop-color="#000000"/><stop offset="1" stop-color="#c2c2c2"/></linearGradient><radialGradient cx="232.18625" cy="193.25085" r="113.36336" gradientUnits="userSpaceOnUse" id="color-5"><stop offset="0" stop-color="#000000" stop-opacity="0"/><stop offset="1" stop-color="#000000"/></radialGradient><linearGradient x1="237.15175" y1="299.36494" x2="237.15175" y2="372.93853" gradientUnits="userSpaceOnUse" id="color-6"><stop offset="0" stop-color="#c4c4c4"/><stop offset="1" stop-color="#9f9f9f"/></linearGradient><linearGradient x1="37.97328" y1="179.3028" x2="139.77883" y2="179.3028" gradientUnits="userSpaceOnUse" id="color-7"><stop offset="0" stop-color="#876923"/><stop offset="1" stop-color="#67491b"/></linearGradient><radialGradient cx="107.66341" cy="144.59015" r="48.2829" gradientUnits="userSpaceOnUse" id="color-8"><stop offset="0" stop-color="#ffffff"/><stop offset="1" stop-color="#e0f8ff"/></radialGradient><linearGradient x1="-1.13655" y1="218.51051" x2="157.57637" y2="218.51051" gradientUnits="userSpaceOnUse" id="color-9"><stop offset="0" stop-color="#876923"/><stop offset="1" stop-color="#67491b"/></linearGradient><linearGradient x1="9.86345" y1="270.01072" x2="145.78947" y2="270.01072" gradientUnits="userSpaceOnUse" id="color-10"><stop offset="0" stop-color="#68511b"/><stop offset="1" stop-color="#67491b"/></linearGradient><linearGradient x1="77.86381" y1="284.79954" x2="77.86381" y2="307.64698" gradientUnits="userSpaceOnUse" id="color-11"><stop offset="0" stop-color="#593f17"/><stop offset="1" stop-color="#443512"/></linearGradient><linearGradient x1="77.86381" y1="257.13284" x2="77.86381" y2="279.98026" gradientUnits="userSpaceOnUse" id="color-12"><stop offset="0" stop-color="#593f17"/><stop offset="1" stop-color="#443512"/></linearGradient><linearGradient x1="77.86381" y1="230.4662" x2="77.86381" y2="253.31368" gradientUnits="userSpaceOnUse" id="color-13"><stop offset="0" stop-color="#593f17"/><stop offset="1" stop-color="#443512"/></linearGradient><radialGradient cx="80.6634" cy="295.09182" r="5.87987" gradientUnits="userSpaceOnUse" id="color-14"><stop offset="0" stop-color="#ffffff"/><stop offset="1" stop-color="#fff7c7"/></radialGradient><radialGradient cx="80.6634" cy="267.42519" r="5.87987" gradientUnits="userSpaceOnUse" id="color-15"><stop offset="0" stop-color="#ffffff"/><stop offset="1" stop-color="#fff7c7"/></radialGradient><radialGradient cx="80.6634" cy="240.75856" r="5.87987" gradientUnits="userSpaceOnUse" id="color-16"><stop offset="0" stop-color="#ffffff"/><stop offset="1" stop-color="#fff7c7"/></radialGradient><linearGradient x1="456.56651" y1="227.82686" x2="456.56651" y2="384.08829" gradientUnits="userSpaceOnUse" id="color-17"><stop offset="0" stop-color="#ffffff"/><stop offset="1" stop-color="#737373"/></linearGradient><linearGradient x1="469.19879" y1="231.52567" x2="469.19879" y2="396.82192" gradientUnits="userSpaceOnUse" id="color-18"><stop offset="0" stop-color="#52bdce"/><stop offset="1" stop-color="#376474"/></linearGradient><radialGradient cx="350.92171" cy="217.22981" r="7.32283" gradientUnits="userSpaceOnUse" id="color-19"><stop offset="0" stop-color="#ffffff"/><stop offset="1" stop-color="#737373"/></radialGradient><radialGradient cx="327.29132" cy="273.22981" r="24.86999" gradientUnits="userSpaceOnUse" id="color-20"><stop offset="0" stop-color="#f1f1f1"/><stop offset="1" stop-color="#c0c0c0"/></radialGradient><radialGradient cx="311.28371" cy="270.22981" r="23.21198" gradientUnits="userSpaceOnUse" id="color-21"><stop offset="0" stop-color="#f1f1f1"/><stop offset="1" stop-color="#c0c0c0"/></radialGradient><radialGradient cx="327.67251" cy="161.22976" r="32.97576" gradientUnits="userSpaceOnUse" id="color-22"><stop offset="0" stop-color="#f1f1f1"/><stop offset="1" stop-color="#c0c0c0"/></radialGradient><radialGradient cx="311.28371" cy="167.22976" r="31.6862" gradientUnits="userSpaceOnUse" id="color-23"><stop offset="0" stop-color="#f1f1f1"/><stop offset="1" stop-color="#c0c0c0"/></radialGradient><radialGradient cx="328.05361" cy="105.72983" r="10.59278" gradientUnits="userSpaceOnUse" id="color-24"><stop offset="0" stop-color="#f1f1f1"/><stop offset="1" stop-color="#c0c0c0"/></radialGradient><radialGradient cx="311.66483" cy="112.22983" r="10.04011" gradientUnits="userSpaceOnUse" id="color-25"><stop offset="0" stop-color="#f1f1f1"/><stop offset="1" stop-color="#c0c0c0"/></radialGradient><linearGradient x1="331.48386" y1="220.72981" x2="337.58203" y2="220.72981" gradientUnits="userSpaceOnUse" id="color-26"><stop offset="0" stop-color="#737373"/><stop offset="1" stop-color="#a0a0a0"/></linearGradient><radialGradient cx="331.48386" cy="216.22981" r="7.32283" gradientUnits="userSpaceOnUse" id="color-27"><stop offset="0" stop-color="#ffffff"/><stop offset="1" stop-color="#737373"/></radialGradient><linearGradient x1="231.70841" y1="194.4487" x2="231.70841" y2="216.75689" gradientUnits="userSpaceOnUse" id="color-28"><stop offset="0" stop-color="#bdbdbd"/><stop offset="1" stop-color="#848484"/></linearGradient><radialGradient cx="250.31351" cy="203.54449" r="21.53446" gradientUnits="userSpaceOnUse" id="color-29"><stop offset="0" stop-color="#af2e80"/><stop offset="1" stop-color="#892464"/></radialGradient><radialGradient cx="231.39008" cy="203.10841" r="16.12264" gradientUnits="userSpaceOnUse" id="color-30"><stop offset="0" stop-color="#1e1e1e"/><stop offset="1" stop-color="#000000"/></radialGradient><linearGradient x1="231.45971" y1="199.73922" x2="231.45971" y2="200.46706" gradientUnits="userSpaceOnUse" id="color-31"><stop offset="0" stop-color="#bebebe"/><stop offset="1" stop-color="#9f9f9f"/></linearGradient><linearGradient x1="228.99024" y1="178.52779" x2="228.99024" y2="200.98695" gradientUnits="userSpaceOnUse" id="color-32"><stop offset="0" stop-color="#bebebe"/><stop offset="1" stop-color="#9f9f9f"/></linearGradient><linearGradient x1="234.08513" y1="178.52779" x2="234.08513" y2="200.98695" gradientUnits="userSpaceOnUse" id="color-33"><stop offset="0" stop-color="#bebebe"/><stop offset="1" stop-color="#9f9f9f"/></linearGradient><linearGradient x1="231.57193" y1="198.58712" x2="231.57193" y2="203.9651" gradientUnits="userSpaceOnUse" id="color-34"><stop offset="0" stop-color="#8f8f8f"/><stop offset="1" stop-color="#797979"/></linearGradient><linearGradient x1="239.65813" y1="202.10486" x2="239.65813" y2="198.97875" gradientUnits="userSpaceOnUse" id="color-35"><stop offset="0" stop-color="#373737"/><stop offset="1" stop-color="#8f8f8f"/></linearGradient><linearGradient x1="223.40253" y1="202.10486" x2="223.40253" y2="198.97875" gradientUnits="userSpaceOnUse" id="color-36"><stop offset="0" stop-color="#373737"/><stop offset="1" stop-color="#8f8f8f"/></linearGradient><linearGradient x1="238.68577" y1="202.98298" x2="238.68577" y2="199.85688" gradientUnits="userSpaceOnUse" id="color-37"><stop offset="0" stop-color="#373737"/><stop offset="1" stop-color="#8f8f8f"/></linearGradient><linearGradient x1="224.37487" y1="202.98298" x2="224.37487" y2="199.85688" gradientUnits="userSpaceOnUse" id="color-38"><stop offset="0" stop-color="#373737"/><stop offset="1" stop-color="#8f8f8f"/></linearGradient><linearGradient x1="237.33531" y1="203.68548" x2="237.33531" y2="200.55939" gradientUnits="userSpaceOnUse" id="color-39"><stop offset="0" stop-color="#373737"/><stop offset="1" stop-color="#8f8f8f"/></linearGradient><linearGradient x1="225.72533" y1="203.68548" x2="225.72533" y2="200.55939" gradientUnits="userSpaceOnUse" id="color-40"><stop offset="0" stop-color="#373737"/><stop offset="1" stop-color="#8f8f8f"/></linearGradient><linearGradient x1="235.93084" y1="204.21236" x2="235.93084" y2="201.08626" gradientUnits="userSpaceOnUse" id="color-41"><stop offset="0" stop-color="#373737"/><stop offset="1" stop-color="#8f8f8f"/></linearGradient><linearGradient x1="227.1298" y1="204.21236" x2="227.1298" y2="201.08626" gradientUnits="userSpaceOnUse" id="color-42"><stop offset="0" stop-color="#373737"/><stop offset="1" stop-color="#8f8f8f"/></linearGradient><linearGradient x1="234.3643" y1="204.59873" x2="234.3643" y2="201.47264" gradientUnits="userSpaceOnUse" id="color-43"><stop offset="0" stop-color="#373737"/><stop offset="1" stop-color="#8f8f8f"/></linearGradient><linearGradient x1="228.69633" y1="204.59873" x2="228.69633" y2="201.47264" gradientUnits="userSpaceOnUse" id="color-44"><stop offset="0" stop-color="#373737"/><stop offset="1" stop-color="#8f8f8f"/></linearGradient><linearGradient x1="232.74376" y1="204.80949" x2="232.74376" y2="201.68338" gradientUnits="userSpaceOnUse" id="color-45"><stop offset="0" stop-color="#373737"/><stop offset="1" stop-color="#8f8f8f"/></linearGradient><linearGradient x1="230.3169" y1="204.80949" x2="230.3169" y2="201.68338" gradientUnits="userSpaceOnUse" id="color-46"><stop offset="0" stop-color="#373737"/><stop offset="1" stop-color="#8f8f8f"/></linearGradient><linearGradient x1="247.48459" y1="207.76272" x2="247.48459" y2="198.31867" gradientUnits="userSpaceOnUse" id="color-47"><stop offset="0" stop-color="#767676"/><stop offset="1" stop-color="#ececec"/></linearGradient><linearGradient x1="249.32419" y1="203.45466" x2="245.97113" y2="203.45466" gradientUnits="userSpaceOnUse" id="color-48"><stop offset="0" stop-color="#4c4c4c"/><stop offset="1" stop-color="#2c2c2c"/></linearGradient><linearGradient x1="215.55208" y1="207.76272" x2="215.55208" y2="198.31867" gradientUnits="userSpaceOnUse" id="color-49"><stop offset="0" stop-color="#767676"/><stop offset="1" stop-color="#ececec"/></linearGradient><linearGradient x1="213.71248" y1="203.45466" x2="217.06555" y2="203.45466" gradientUnits="userSpaceOnUse" id="color-50"><stop offset="0" stop-color="#4c4c4c"/><stop offset="1" stop-color="#2c2c2c"/></linearGradient><linearGradient x1="245.57454" y1="210.41557" x2="245.57454" y2="200.97152" gradientUnits="userSpaceOnUse" id="color-51"><stop offset="0" stop-color="#767676"/><stop offset="1" stop-color="#ececec"/></linearGradient><linearGradient x1="247.41415" y1="206.10751" x2="244.06108" y2="206.10751" gradientUnits="userSpaceOnUse" id="color-52"><stop offset="0" stop-color="#4c4c4c"/><stop offset="1" stop-color="#2c2c2c"/></linearGradient><linearGradient x1="217.46216" y1="210.41557" x2="217.46216" y2="200.97152" gradientUnits="userSpaceOnUse" id="color-53"><stop offset="0" stop-color="#767676"/><stop offset="1" stop-color="#ececec"/></linearGradient><linearGradient x1="215.62253" y1="206.10751" x2="218.9756" y2="206.10751" gradientUnits="userSpaceOnUse" id="color-54"><stop offset="0" stop-color="#4c4c4c"/><stop offset="1" stop-color="#2c2c2c"/></linearGradient><linearGradient x1="242.92168" y1="212.53785" x2="242.92168" y2="203.0938" gradientUnits="userSpaceOnUse" id="color-55"><stop offset="0" stop-color="#767676"/><stop offset="1" stop-color="#ececec"/></linearGradient><linearGradient x1="244.76131" y1="208.22979" x2="241.40823" y2="208.22979" gradientUnits="userSpaceOnUse" id="color-56"><stop offset="0" stop-color="#4c4c4c"/><stop offset="1" stop-color="#2c2c2c"/></linearGradient><linearGradient x1="220.115" y1="212.53785" x2="220.115" y2="203.0938" gradientUnits="userSpaceOnUse" id="color-57"><stop offset="0" stop-color="#767676"/><stop offset="1" stop-color="#ececec"/></linearGradient><linearGradient x1="218.27538" y1="208.22979" x2="221.62845" y2="208.22979" gradientUnits="userSpaceOnUse" id="color-58"><stop offset="0" stop-color="#4c4c4c"/><stop offset="1" stop-color="#2c2c2c"/></linearGradient><linearGradient x1="240.16272" y1="214.12956" x2="240.16272" y2="204.6855" gradientUnits="userSpaceOnUse" id="color-59"><stop offset="0" stop-color="#767676"/><stop offset="1" stop-color="#ececec"/></linearGradient><linearGradient x1="242.00234" y1="209.82151" x2="238.64927" y2="209.82151" gradientUnits="userSpaceOnUse" id="color-60"><stop offset="0" stop-color="#4c4c4c"/><stop offset="1" stop-color="#2c2c2c"/></linearGradient><linearGradient x1="222.87397" y1="214.12956" x2="222.87397" y2="204.6855" gradientUnits="userSpaceOnUse" id="color-61"><stop offset="0" stop-color="#767676"/><stop offset="1" stop-color="#ececec"/></linearGradient><linearGradient x1="221.03434" y1="209.82151" x2="224.38741" y2="209.82151" gradientUnits="userSpaceOnUse" id="color-62"><stop offset="0" stop-color="#4c4c4c"/><stop offset="1" stop-color="#2c2c2c"/></linearGradient><linearGradient x1="237.0854" y1="215.29681" x2="237.0854" y2="205.85276" gradientUnits="userSpaceOnUse" id="color-63"><stop offset="0" stop-color="#767676"/><stop offset="1" stop-color="#ececec"/></linearGradient><linearGradient x1="238.92501" y1="210.98876" x2="235.57195" y2="210.98876" gradientUnits="userSpaceOnUse" id="color-64"><stop offset="0" stop-color="#4c4c4c"/><stop offset="1" stop-color="#2c2c2c"/></linearGradient><linearGradient x1="225.95126" y1="215.29681" x2="225.95126" y2="205.85276" gradientUnits="userSpaceOnUse" id="color-65"><stop offset="0" stop-color="#767676"/><stop offset="1" stop-color="#ececec"/></linearGradient><linearGradient x1="224.11163" y1="210.98876" x2="227.4647" y2="210.98876" gradientUnits="userSpaceOnUse" id="color-66"><stop offset="0" stop-color="#4c4c4c"/><stop offset="1" stop-color="#2c2c2c"/></linearGradient><linearGradient x1="233.902" y1="215.93349" x2="233.902" y2="206.48944" gradientUnits="userSpaceOnUse" id="color-67"><stop offset="0" stop-color="#767676"/><stop offset="1" stop-color="#ececec"/></linearGradient><linearGradient x1="235.74161" y1="211.62544" x2="232.38855" y2="211.62544" gradientUnits="userSpaceOnUse" id="color-68"><stop offset="0" stop-color="#4c4c4c"/><stop offset="1" stop-color="#2c2c2c"/></linearGradient><linearGradient x1="229.13469" y1="215.93349" x2="229.13469" y2="206.48944" gradientUnits="userSpaceOnUse" id="color-69"><stop offset="0" stop-color="#767676"/><stop offset="1" stop-color="#ececec"/></linearGradient><linearGradient x1="227.29507" y1="211.62544" x2="230.64814" y2="211.62544" gradientUnits="userSpaceOnUse" id="color-70"><stop offset="0" stop-color="#4c4c4c"/><stop offset="1" stop-color="#2c2c2c"/></linearGradient><linearGradient x1="211.53569" y1="183.29621" x2="211.53569" y2="192.74026" gradientUnits="userSpaceOnUse" id="color-71"><stop offset="0" stop-color="#767676"/><stop offset="1" stop-color="#ececec"/></linearGradient><linearGradient x1="209.69606" y1="187.60426" x2="213.04913" y2="187.60426" gradientUnits="userSpaceOnUse" id="color-72"><stop offset="0" stop-color="#4c4c4c"/><stop offset="1" stop-color="#2c2c2c"/></linearGradient><linearGradient x1="251.96769" y1="183.50843" x2="251.96769" y2="192.95248" gradientUnits="userSpaceOnUse" id="color-73"><stop offset="0" stop-color="#767676"/><stop offset="1" stop-color="#ececec"/></linearGradient><linearGradient x1="253.80731" y1="187.81649" x2="250.45424" y2="187.81649" gradientUnits="userSpaceOnUse" id="color-74"><stop offset="0" stop-color="#4c4c4c"/><stop offset="1" stop-color="#2c2c2c"/></linearGradient><linearGradient x1="214.21997" y1="184.86204" x2="214.21997" y2="194.3061" gradientUnits="userSpaceOnUse" id="color-75"><stop offset="0" stop-color="#767676"/><stop offset="1" stop-color="#ececec"/></linearGradient><linearGradient x1="212.38034" y1="189.17009" x2="215.73341" y2="189.17009" gradientUnits="userSpaceOnUse" id="color-76"><stop offset="0" stop-color="#4c4c4c"/><stop offset="1" stop-color="#2c2c2c"/></linearGradient><linearGradient x1="249.2834" y1="185.07427" x2="249.2834" y2="194.51832" gradientUnits="userSpaceOnUse" id="color-77"><stop offset="0" stop-color="#767676"/><stop offset="1" stop-color="#ececec"/></linearGradient><linearGradient x1="251.123" y1="189.38232" x2="247.76996" y2="189.38232" gradientUnits="userSpaceOnUse" id="color-78"><stop offset="0" stop-color="#4c4c4c"/><stop offset="1" stop-color="#2c2c2c"/></linearGradient><linearGradient x1="217.42621" y1="186.90681" x2="217.42621" y2="196.35087" gradientUnits="userSpaceOnUse" id="color-79"><stop offset="0" stop-color="#767676"/><stop offset="1" stop-color="#ececec"/></linearGradient><linearGradient x1="215.58659" y1="191.21486" x2="218.93966" y2="191.21486" gradientUnits="userSpaceOnUse" id="color-80"><stop offset="0" stop-color="#4c4c4c"/><stop offset="1" stop-color="#2c2c2c"/></linearGradient><linearGradient x1="246.07716" y1="186.90681" x2="246.07716" y2="196.35087" gradientUnits="userSpaceOnUse" id="color-81"><stop offset="0" stop-color="#767676"/><stop offset="1" stop-color="#ececec"/></linearGradient><linearGradient x1="247.91678" y1="191.21486" x2="244.56371" y2="191.21486" gradientUnits="userSpaceOnUse" id="color-82"><stop offset="0" stop-color="#4c4c4c"/><stop offset="1" stop-color="#2c2c2c"/></linearGradient><linearGradient x1="231.72767" y1="159.50194" x2="231.72767" y2="191.99023" gradientUnits="userSpaceOnUse" id="color-83"><stop offset="0" stop-color="#bdbdbd"/><stop offset="1" stop-color="#848484"/></linearGradient><linearGradient x1="231.72767" y1="162.6776" x2="231.72767" y2="195.16589" gradientUnits="userSpaceOnUse" id="color-84"><stop offset="0" stop-color="#717171"/><stop offset="1" stop-color="#a9a9a9"/></linearGradient><radialGradient cx="243.42874" cy="162.96283" r="24.16766" gradientUnits="userSpaceOnUse" id="color-85"><stop offset="0" stop-color="#af2e80"/><stop offset="1" stop-color="#892464"/></radialGradient><radialGradient cx="225.21235" cy="169.38201" r="3.60286" gradientUnits="userSpaceOnUse" id="color-86"><stop offset="0" stop-color="#ffffff"/><stop offset="1" stop-color="#d1d1d1"/></radialGradient><radialGradient cx="237.55611" cy="169.38201" r="3.60286" gradientUnits="userSpaceOnUse" id="color-87"><stop offset="0" stop-color="#ffffff"/><stop offset="1" stop-color="#d1d1d1"/></radialGradient><radialGradient cx="225.21235" cy="169.38201" r="1.97502" gradientUnits="userSpaceOnUse" id="color-88"><stop offset="0" stop-color="#ffffff"/><stop offset="1" stop-color="#ff0000"/></radialGradient><radialGradient cx="237.55611" cy="169.38201" r="1.97502" gradientUnits="userSpaceOnUse" id="color-89"><stop offset="0" stop-color="#ffffff"/><stop offset="1" stop-color="#ff0000"/></radialGradient><linearGradient x1="219.33627" y1="188.18018" x2="219.33627" y2="197.62423" gradientUnits="userSpaceOnUse" id="color-90"><stop offset="0" stop-color="#767676"/><stop offset="1" stop-color="#ececec"/></linearGradient><linearGradient x1="217.49665" y1="192.48823" x2="220.84971" y2="192.48823" gradientUnits="userSpaceOnUse" id="color-91"><stop offset="0" stop-color="#4c4c4c"/><stop offset="1" stop-color="#2c2c2c"/></linearGradient><linearGradient x1="243.42431" y1="188.18018" x2="243.42431" y2="197.62423" gradientUnits="userSpaceOnUse" id="color-92"><stop offset="0" stop-color="#767676"/><stop offset="1" stop-color="#ececec"/></linearGradient><linearGradient x1="245.26393" y1="192.48823" x2="241.91087" y2="192.48823" gradientUnits="userSpaceOnUse" id="color-93"><stop offset="0" stop-color="#4c4c4c"/><stop offset="1" stop-color="#2c2c2c"/></linearGradient><linearGradient x1="221.56466" y1="188.92296" x2="221.56466" y2="198.36703" gradientUnits="userSpaceOnUse" id="color-94"><stop offset="0" stop-color="#767676"/><stop offset="1" stop-color="#ececec"/></linearGradient><linearGradient x1="219.72504" y1="193.23103" x2="223.07811" y2="193.23103" gradientUnits="userSpaceOnUse" id="color-95"><stop offset="0" stop-color="#4c4c4c"/><stop offset="1" stop-color="#2c2c2c"/></linearGradient><linearGradient x1="241.19592" y1="188.92296" x2="241.19592" y2="198.36703" gradientUnits="userSpaceOnUse" id="color-96"><stop offset="0" stop-color="#767676"/><stop offset="1" stop-color="#ececec"/></linearGradient><linearGradient x1="243.03555" y1="193.23103" x2="239.68246" y2="193.23103" gradientUnits="userSpaceOnUse" id="color-97"><stop offset="0" stop-color="#4c4c4c"/><stop offset="1" stop-color="#2c2c2c"/></linearGradient><linearGradient x1="223.89917" y1="190.04811" x2="223.89917" y2="199.49216" gradientUnits="userSpaceOnUse" id="color-98"><stop offset="0" stop-color="#767676"/><stop offset="1" stop-color="#ececec"/></linearGradient><linearGradient x1="222.05955" y1="194.35616" x2="225.41262" y2="194.35616" gradientUnits="userSpaceOnUse" id="color-99"><stop offset="0" stop-color="#4c4c4c"/><stop offset="1" stop-color="#2c2c2c"/></linearGradient><linearGradient x1="238.86141" y1="190.04811" x2="238.86141" y2="199.49216" gradientUnits="userSpaceOnUse" id="color-100"><stop offset="0" stop-color="#767676"/><stop offset="1" stop-color="#ececec"/></linearGradient><linearGradient x1="240.70104" y1="194.35616" x2="237.34797" y2="194.35616" gradientUnits="userSpaceOnUse" id="color-101"><stop offset="0" stop-color="#4c4c4c"/><stop offset="1" stop-color="#2c2c2c"/></linearGradient><linearGradient x1="226.61428" y1="190.48603" x2="226.61428" y2="199.93007" gradientUnits="userSpaceOnUse" id="color-102"><stop offset="0" stop-color="#767676"/><stop offset="1" stop-color="#ececec"/></linearGradient><linearGradient x1="224.77466" y1="194.79408" x2="228.12773" y2="194.79408" gradientUnits="userSpaceOnUse" id="color-103"><stop offset="0" stop-color="#4c4c4c"/><stop offset="1" stop-color="#2c2c2c"/></linearGradient><linearGradient x1="236.14632" y1="190.48603" x2="236.14632" y2="199.93007" gradientUnits="userSpaceOnUse" id="color-104"><stop offset="0" stop-color="#767676"/><stop offset="1" stop-color="#ececec"/></linearGradient><linearGradient x1="237.98591" y1="194.79408" x2="234.63286" y2="194.79408" gradientUnits="userSpaceOnUse" id="color-105"><stop offset="0" stop-color="#4c4c4c"/><stop offset="1" stop-color="#2c2c2c"/></linearGradient><linearGradient x1="233.28123" y1="191.0166" x2="233.28123" y2="200.46065" gradientUnits="userSpaceOnUse" id="color-106"><stop offset="0" stop-color="#767676"/><stop offset="1" stop-color="#ececec"/></linearGradient><linearGradient x1="235.12084" y1="195.32464" x2="231.76778" y2="195.32464" gradientUnits="userSpaceOnUse" id="color-107"><stop offset="0" stop-color="#4c4c4c"/><stop offset="1" stop-color="#2c2c2c"/></linearGradient><linearGradient x1="229.68118" y1="190.91048" x2="229.68118" y2="200.35454" gradientUnits="userSpaceOnUse" id="color-108"><stop offset="0" stop-color="#767676"/><stop offset="1" stop-color="#ececec"/></linearGradient><linearGradient x1="227.84156" y1="195.21853" x2="231.19462" y2="195.21853" gradientUnits="userSpaceOnUse" id="color-109"><stop offset="0" stop-color="#4c4c4c"/><stop offset="1" stop-color="#2c2c2c"/></linearGradient><linearGradient x1="231.30324" y1="180.4908" x2="231.30324" y2="196.52004" gradientUnits="userSpaceOnUse" id="color-110"><stop offset="0" stop-color="#717171"/><stop offset="1" stop-color="#a9a9a9"/></linearGradient><linearGradient x1="231.11723" y1="174.33592" x2="231.11723" y2="194.5306" gradientUnits="userSpaceOnUse" id="color-111"><stop offset="0" stop-color="#bdbdbd"/><stop offset="1" stop-color="#848484"/></linearGradient><linearGradient x1="231.11723" y1="174.33592" x2="231.11723" y2="194.5306" gradientUnits="userSpaceOnUse" id="color-112"><stop offset="0" stop-color="#af2e80"/><stop offset="1" stop-color="#95276d"/></linearGradient><radialGradient cx="220.36589" cy="184.7997" r="1.8" gradientUnits="userSpaceOnUse" id="color-113"><stop offset="0" stop-color="#5c1843"/><stop offset="1" stop-color="#9b2871"/></radialGradient><radialGradient cx="242.28361" cy="184.7997" r="1.79999" gradientUnits="userSpaceOnUse" id="color-114"><stop offset="0" stop-color="#5c1843"/><stop offset="1" stop-color="#9b2871"/></radialGradient><radialGradient cx="231.62983" cy="184.73485" r="31.75" gradientUnits="userSpaceOnUse" id="color-115"><stop offset="0" stop-color="#000000" stop-opacity="0"/><stop offset="1" stop-color="#000000"/></radialGradient><radialGradient cx="240.00003" cy="180" r="305.33236" gradientUnits="userSpaceOnUse" id="color-116"><stop offset="0" stop-color="#000000" stop-opacity="0"/><stop offset="1" stop-color="#000000"/></radialGradient><radialGradient cx="240.00003" cy="180" r="305.33236" gradientUnits="userSpaceOnUse" id="color-117"><stop offset="0" stop-color="#000000" stop-opacity="0"/><stop offset="1" stop-color="#000000"/></radialGradient><radialGradient cx="236.00004" cy="192.00003" r="98.54894" gradientUnits="userSpaceOnUse" id="color-118"><stop offset="0" stop-color="#afa980"/><stop offset="1" stop-color="#afa980" stop-opacity="0"/></radialGradient></defs><g transform="translate(58.04798,58.24314)"><g data-paper-data="{&quot;isPaintingLayer&quot;:true}" fill-rule="nonzero" stroke-width="0" stroke-linecap="butt" stroke-linejoin="miter" stroke-miterlimit="10" stroke-dasharray="" stroke-dashoffset="0" style="mix-blend-mode: normal"><g stroke="none"><path d="M168.91401,312.96306v-243.55706h122v243.55706z" fill="#000000"/><path d="M165.71337,300.71822v-220h24.16666v220z" fill="url(#color-1)"/><path d="M274.04672,300.71822v-220h25.66667v220z" data-paper-data="{&quot;index&quot;:null}" fill="url(#color-2)"/><path d="M189.59591,282.42492l84.21791,0.27333l26.71779,18.20987l-134.09053,0.00613z" fill="url(#color-3)"/><path d="M165.77436,93.69824l134.7572,0.00395l-26.56001,16.87871l-83.98767,-0.25331z" data-paper-data="{&quot;index&quot;:null}" fill="url(#color-4)"/></g><path d="M161.61567,306.6142v-226.72673h141.14114v226.72673z" fill="url(#color-5)" stroke="none"/><path d="M-35.03001,401.21632v-459.45946h635.13513v459.45946zM168.49709,305.24325l130,1v-212h-131z" fill="#232332" stroke="#000000"/><path d="M-58.04798,409.72983v-459.45946h81.08108v459.45946z" fill="#13131b" stroke="#000000"/><path d="M456.96709,409.72983v-459.45946h81.08108v459.45946z" fill="#13131b" stroke="#000000"/><path d="M-25.37231,327.84497l48.15529,-28.48009h434.95105l41.9417,28.48009l-7.03972,44.95714l-507.98732,0.13633z" fill="url(#color-6)" stroke="none"/><path d="M37.97328,238.12318c0,0 0,-86.32806 0,-104.54664c0,-6.44759 5.38168,-13.09411 10.69015,-13.09411c11.49721,0 56.41459,0 78.66667,0c7.74308,0 12.44878,7.78312 12.44878,15.02949c0,18.93415 0,102.61126 0,102.61126z" fill="url(#color-7)" stroke="none"/><path d="M43.22203,222.64498c0,0 0,-75.71501 0,-89.06841c0,-3.87423 2.71985,-7.49739 5.77472,-7.49739c9.52433,0 59.72684,0 78.33333,0c4.32745,0 6.9458,3.62316 6.9458,7.49739c0,13.35341 0,89.06841 0,89.06841z" fill="url(#color-8)" stroke="none"/><path d="M9.86345,225.92537l12.64411,-14.82974h135.06881l-11.45092,14.76089z" fill="url(#color-9)" stroke="none"/><path d="M145.49856,314.54589l-0.04509,-88.07163l12.1229,-15.384v88.41162z" fill="#413311" stroke="none"/><path d="M9.86345,314.54985v-89.07827h135.92601v89.07827z" fill="url(#color-10)" stroke="none"/><path d="M15.14763,307.64698v-22.84746h125.43238v22.84746z" fill="url(#color-11)" stroke="#854300"/><path d="M15.14763,279.98026v-22.84746h125.43238v22.84746z" fill="url(#color-12)" stroke="#854300"/><path d="M15.14763,253.31368v-22.84746h125.43238v22.84746z" fill="url(#color-13)" stroke="#854300"/><path d="M83.35691,296.27198c0,3.24736 -2.63251,5.87986 -5.87987,5.87986c-3.24736,0 -5.87987,-2.63251 -5.87987,-5.87986c0,-3.24736 2.63251,-5.87987 5.87987,-5.87987c3.24736,0 5.87987,2.63251 5.87987,5.87987z" fill="url(#color-14)" stroke="none"/><path d="M83.35691,268.60535c0,3.24736 -2.63251,5.87986 -5.87987,5.87986c-3.24736,0 -5.87987,-2.63251 -5.87987,-5.87986c0,-3.24736 2.63251,-5.87987 5.87987,-5.87987c3.24736,0 5.87987,2.63251 5.87987,5.87987z" fill="url(#color-15)" stroke="none"/><path d="M83.35691,241.93871c0,3.24736 -2.63251,5.87986 -5.87987,5.87986c-3.24736,0 -5.87987,-2.63251 -5.87987,-5.87986c0,-3.24736 2.63251,-5.87987 5.87987,-5.87987c3.24736,0 5.87987,2.63251 5.87987,5.87987z" fill="url(#color-16)" stroke="none"/><path d="M438.8609,380.85208c-22.11992,-3.91562 -103.20453,-63.53633 -106.62262,-85.94348c-2.94985,-19.33758 -6.19523,-50.41845 3.45043,-57.96564c8.75794,-6.8526 116.11252,-13.67531 139.24308,-4.18892c31.50566,12.92121 86.41726,29.79892 106.81542,63.19818c11.27163,18.45579 1.75291,67.66634 -10.01647,77.70194c-16.50027,14.06957 -110.84044,11.09753 -132.86985,7.19792z" fill="url(#color-17)" stroke="none"/><path d="M450.46947,393.3986c-23.39886,-4.14202 -109.17165,-67.20991 -112.78737,-90.9126c-3.1204,-20.45567 -6.55342,-53.33358 3.64993,-61.31713c9.26431,-7.24881 122.82596,-14.466 147.2939,-4.43112c33.32727,13.6683 91.41377,24.0939 112.99132,59.42425c11.92334,19.52287 1.85427,79.00665 -10.5956,89.62249c-17.45429,14.88306 -117.24905,11.73917 -140.55218,7.6141z" fill="url(#color-18)" stroke="none"/><g><path d="M348.58799,210.42789c4.04428,0 7.32283,4.13873 7.32283,9.24411c0,5.10538 -3.27855,9.24412 -7.32283,9.24412c-4.04428,0 -7.32283,-4.13874 -7.32283,-9.24412c0,-5.10538 3.27855,-9.24411 7.32283,-9.24411z" data-paper-data="{&quot;index&quot;:null}" fill="url(#color-19)" stroke="none"/><path d="M298.19527,299.96567v-205.3987l42.5693,-21.95802l0.63162,256.35788z" fill="#f1f1f1" stroke="#000000"/><path d="M340.69371,329.16285v-256.66021h8.28999v256.66021z" fill="#a8a8a8" stroke="none"/><path d="M319.76565,299.67679v-58.46902l12.89556,1.41676v64.83583z" fill="url(#color-20)" stroke="#909090"/><path d="M302.81721,290.47641v-52.61884l12.89556,2.40011v57.00231z" fill="url(#color-21)" stroke="#909090"/><path d="M333.39817,117.98618v84.10335l-12.89555,2.91676v-81.21987z" data-paper-data="{&quot;index&quot;:null}" fill="url(#color-22)" stroke="#909090"/><path d="M316.44973,125.71981v80.73652l-12.89555,2.40011v-77.09473z" data-paper-data="{&quot;index&quot;:null}" fill="url(#color-23)" stroke="#909090"/><path d="M333.39817,89.90176v23.25086l-12.89554,6.04191v-22.00918z" data-paper-data="{&quot;index&quot;:null}" fill="url(#color-24)" stroke="#909090"/><path d="M316.44973,99.60213v20.80081l-12.89555,6.04191v-20.05912z" data-paper-data="{&quot;index&quot;:null}" fill="url(#color-25)" stroke="#909090"/><path d="M342.37488,234.49511v-22.4759h4.78977v22.4759z" fill="#737373" stroke="none"/><path d="M343.29599,228.93655v-14.50057h2.94756v14.50057z" fill="#2d2d2d" stroke="none"/><path d="M331.48386,234.22981v-27l6.09814,-2v31z" fill="url(#color-26)" stroke="none"/><path d="M336.64645,219.46486c0,5.10539 -3.27854,9.24411 -7.32283,9.24411c-4.04429,0 -7.32283,-4.13872 -7.32283,-9.24411c0,-5.10539 3.27854,-9.24412 7.32283,-9.24412c4.04429,0 7.32283,4.13873 7.32283,9.24412z" fill="url(#color-27)" stroke="none"/></g><g><g><g stroke="#000000"><path d="M231.54084,216.756c-16.67762,-0.08505 -18.06442,-5.10391 -21.36687,-14.615c0.08141,-1.33687 2.22078,-3.26797 5.64006,-4.47272c3.61038,-1.27209 8.66057,-3.21956 14.72126,-3.21956c6.24544,0 12.11185,1.96606 16.3192,3.09823c1.7196,0.46273 6.15973,2.41644 6.38839,5.05329c-3.50281,9.43349 -6.77991,14.23187 -21.70204,14.15578z" fill="url(#color-28)"/><path d="M215.81402,197.66827c3.61038,-1.27209 8.66058,-3.21956 14.72126,-3.21956c6.24544,0 12.11186,1.96606 16.31921,3.09823c1.61162,0.43367 5.61281,2.17696 6.29721,4.56482c-0.82793,0.39526 -1.60348,1.00821 -1.96006,1.75669c-0.3031,0.63622 -0.18347,1.36202 -0.44496,1.97334c-0.2906,0.67935 -0.84742,1.2543 -1.09205,1.97859c-0.51889,1.53624 -0.71751,2.71547 -2.24303,3.56298c-0.68887,0.5511 -1.62346,0.96671 -2.2431,1.5818c-0.50568,0.50198 -0.71232,1.17377 -1.43692,1.492c-1.28412,0.56395 -2.68189,0.74647 -3.96967,1.28498c-0.52671,0.22025 -1.01208,0.44182 -1.48346,0.62019c-0.81984,0.11624 -1.69057,0.20688 -2.61675,0.2718c-0.28649,-0.07233 -0.58429,-0.18375 -0.89818,-0.3421c-2.57408,-1.09977 -4.56225,-0.35824 -7.1611,-0.27392c-0.36817,0.01193 -0.67,-0.31676 -1.02666,-0.40883c-1.27749,-0.32978 -3.4026,-0.23793 -5.08622,0.12897c-1.45965,-0.37487 -2.68714,-0.85237 -3.73586,-1.4311c-0.3234,-1.00812 -0.56253,-2.13526 -0.93522,-2.74449c-1.38529,-0.76499 -1.78359,-2.94831 -2.75926,-4.15647c-0.33196,-0.41107 -1.57383,-0.70355 -1.59363,-1.41578c-0.03386,-1.21843 0.15547,-1.7168 -0.35717,-2.94044c-0.25053,-0.598 0.17849,-1.3221 -0.00118,-1.94505c-0.09454,-0.3278 -0.45533,-0.50815 -0.68299,-0.76223c0,0 -0.04665,-0.04666 -0.12481,-0.09456c0.96966,-0.93243 2.52557,-1.87904 4.51459,-2.57986z" fill="url(#color-29)"/></g><path d="M231.2646,211.67731c-12.48639,-0.06493 -13.52465,-5.76005 -15.99717,-13.02152c0.06096,-1.02067 9.3131,-4.18472 15.66878,-4.11562c6.35568,0.06912 16.40532,2.45307 16.57652,4.46623c-2.62252,7.20222 -5.07606,12.72901 -16.24812,12.67091z" fill="url(#color-30)" stroke="#000000"/><g><path d="M223.47943,200.46706v-0.72785h15.96056v0.72785z" fill="url(#color-31)" stroke="none"/><path d="M228.47033,200.98695v-22.45916h1.03977v22.45916z" fill="url(#color-32)" stroke="none"/><path d="M233.56525,200.98695v-22.45916h1.03977v22.45916z" fill="url(#color-33)" stroke="none"/><g><path d="M222.0621,200.29233c0,-0.5834 1.72246,-1.22792 1.72246,-1.22792c0,0 1.41449,2.30674 7.90337,3.00275c6.2799,-0.66081 7.23025,-3.08735 7.23025,-3.08735c0,0 2.09801,0.66089 2.09801,1.31252c0,1.48509 -4.01101,3.67277 -9.44425,3.67277c-5.43325,0 -9.50984,-2.18768 -9.50984,-3.67277z" fill="url(#color-34)" stroke="none"/><path d="M239.18234,200.59909c0,0 0.06678,-0.60009 0.09511,-1.06527c0.03406,-0.55937 -0.0259,-1.76621 -0.0259,-1.76621c0,0 0.63622,1.10809 0.8109,1.65226c0.15817,0.49275 0.29637,1.13013 0.29637,1.13013z" data-paper-data="{&quot;index&quot;:null}" fill="url(#color-35)" stroke="#000000"/><path d="M222.70183,200.54998c0,0 0.1382,-0.63738 0.29638,-1.13013c0.17469,-0.54417 0.8109,-1.65225 0.8109,-1.65225c0,0 -0.05996,1.20684 -0.0259,1.76622c0.02831,0.46518 0.09511,1.06528 0.09511,1.06528z" data-paper-data="{&quot;index&quot;:null}" fill="url(#color-36)" stroke="#000000"/><path d="M238.21001,201.47722c0,0 0.06678,-0.60009 0.09511,-1.06527c0.03406,-0.55937 -0.0259,-1.76622 -0.0259,-1.76622c0,0 0.63622,1.10809 0.8109,1.65227c0.15817,0.49274 0.29638,1.13013 0.29638,1.13013z" data-paper-data="{&quot;index&quot;:null}" fill="url(#color-37)" stroke="#000000"/><path d="M223.67417,201.42812c0,0 0.1382,-0.63739 0.29638,-1.13013c0.17469,-0.54417 0.8109,-1.65226 0.8109,-1.65226c0,0 -0.05996,1.20685 -0.0259,1.76623c0.02831,0.46518 0.09511,1.06528 0.09511,1.06528z" data-paper-data="{&quot;index&quot;:null}" fill="url(#color-38)" stroke="#000000"/><path d="M236.85954,202.17972c0,0 0.06678,-0.6001 0.09511,-1.06528c0.03406,-0.55938 -0.0259,-1.76622 -0.0259,-1.76622c0,0 0.63622,1.10809 0.8109,1.65227c0.15817,0.49275 0.29638,1.13013 0.29638,1.13013z" data-paper-data="{&quot;index&quot;:null}" fill="url(#color-39)" stroke="#000000"/><path d="M225.02463,202.13061c0,0 0.1382,-0.63738 0.29637,-1.13013c0.17469,-0.54417 0.81091,-1.65226 0.81091,-1.65226c0,0 -0.05996,1.20684 -0.0259,1.76622c0.02831,0.46518 0.09511,1.06528 0.09511,1.06528z" data-paper-data="{&quot;index&quot;:null}" fill="url(#color-40)" stroke="#000000"/><path d="M235.45506,202.7066c0,0 0.06678,-0.60009 0.09511,-1.06527c0.03406,-0.55938 -0.0259,-1.76621 -0.0259,-1.76621c0,0 0.63622,1.10808 0.8109,1.65225c0.15817,0.49275 0.29638,1.13014 0.29638,1.13014z" data-paper-data="{&quot;index&quot;:null}" fill="url(#color-41)" stroke="#000000"/><path d="M226.42911,202.65749c0,0 0.1382,-0.63738 0.29638,-1.13013c0.17469,-0.54417 0.8109,-1.65226 0.8109,-1.65226c0,0 -0.05996,1.20684 -0.0259,1.76622c0.02831,0.46518 0.09511,1.06528 0.09511,1.06528z" data-paper-data="{&quot;index&quot;:null}" fill="url(#color-42)" stroke="#000000"/><path d="M233.88853,203.09297c0,0 0.06679,-0.60009 0.09511,-1.06527c0.03406,-0.55938 -0.02591,-1.76622 -0.02591,-1.76622c0,0 0.63623,1.10808 0.81091,1.65225c0.15817,0.49275 0.29638,1.13014 0.29638,1.13014z" data-paper-data="{&quot;index&quot;:null}" fill="url(#color-43)" stroke="#000000"/><path d="M227.99564,203.04387c0,0 0.13819,-0.63739 0.29637,-1.13014c0.17469,-0.54417 0.8109,-1.65226 0.8109,-1.65226c0,0 -0.05996,1.20684 -0.0259,1.76622c0.02831,0.46518 0.09511,1.06527 0.09511,1.06527z" data-paper-data="{&quot;index&quot;:null}" fill="url(#color-44)" stroke="#000000"/><path d="M232.26796,203.30372c0,0 0.06679,-0.60009 0.09511,-1.06526c0.03406,-0.55938 -0.02591,-1.76623 -0.02591,-1.76623c0,0 0.63622,1.10809 0.8109,1.65226c0.15817,0.49275 0.29638,1.13013 0.29638,1.13013z" data-paper-data="{&quot;index&quot;:null}" fill="url(#color-45)" stroke="#000000"/><path d="M229.61619,203.25462c0,0 0.1382,-0.63739 0.29637,-1.13013c0.17469,-0.54417 0.81091,-1.65226 0.81091,-1.65226c0,0 -0.05996,1.20684 -0.0259,1.76623c0.02831,0.46518 0.09511,1.06527 0.09511,1.06527z" data-paper-data="{&quot;index&quot;:null}" fill="url(#color-46)" stroke="#000000"/></g></g><g data-paper-data="{&quot;index&quot;:null}"><path d="M246.54994,203.21375c0,0 0.1312,-1.8129 0.18684,-3.21822c0.06689,-1.68991 -0.05088,-5.33581 -0.05088,-5.33581c0,0 1.24981,3.34756 1.59294,4.99152c0.31071,1.4886 0.5822,3.41417 0.5822,3.41417z" data-paper-data="{&quot;index&quot;:null}" fill="url(#color-47)" stroke="#000000"/><path d="M249.32419,202.23536v2.43859c0,0 -0.63175,0.48503 -1.7161,0.45981c-1.12697,-0.02621 -1.63697,-0.45981 -1.63697,-0.45981v-2.43859z" fill="url(#color-48)" stroke="none"/></g><g data-paper-data="{&quot;index&quot;:null}"><path d="M214.17564,203.06541c0,0 0.27148,-1.92558 0.58219,-3.41417c0.34314,-1.64397 1.59295,-4.99152 1.59295,-4.99152c0,0 -0.11778,3.6459 -0.05089,5.33581c0.05563,1.40533 0.18683,3.21822 0.18683,3.21822z" data-paper-data="{&quot;index&quot;:null}" fill="url(#color-49)" stroke="#000000"/><path d="M217.06555,202.23536v2.43859c0,0 -0.51001,0.43359 -1.63697,0.45981c-1.08436,0.02523 -1.71609,-0.45981 -1.71609,-0.45981v-2.43859z" fill="url(#color-50)" stroke="none"/></g><g data-paper-data="{&quot;index&quot;:null}"><path d="M244.6399,205.86659c0,0 0.13119,-1.81289 0.18683,-3.21821c0.06689,-1.68991 -0.05088,-5.33582 -0.05088,-5.33582c0,0 1.24981,3.34756 1.59294,4.99153c0.31071,1.4886 0.5822,3.41417 0.5822,3.41417z" data-paper-data="{&quot;index&quot;:null}" fill="url(#color-51)" stroke="#000000"/><path d="M247.41415,204.88821v2.4386c0,0 -0.63174,0.48502 -1.7161,0.4598c-1.12697,-0.02621 -1.63697,-0.4598 -1.63697,-0.4598v-2.4386z" fill="url(#color-52)" stroke="none"/></g><g data-paper-data="{&quot;index&quot;:null}"><path d="M216.08567,205.71826c0,0 0.27149,-1.92558 0.5822,-3.41417c0.34314,-1.64397 1.59294,-4.99153 1.59294,-4.99153c0,0 -0.11778,3.64591 -0.05088,5.33582c0.05563,1.40533 0.18684,3.21821 0.18684,3.21821z" data-paper-data="{&quot;index&quot;:null}" fill="url(#color-53)" stroke="#000000"/><path d="M218.9756,204.88821v2.4386c0,0 -0.51,0.43359 -1.63697,0.4598c-1.08436,0.02523 -1.71609,-0.4598 -1.71609,-0.4598v-2.4386z" fill="url(#color-54)" stroke="none"/></g><g data-paper-data="{&quot;index&quot;:null}"><path d="M241.98705,207.98888c0,0 0.13119,-1.81289 0.18683,-3.21822c0.06689,-1.68991 -0.05088,-5.33581 -0.05088,-5.33581c0,0 1.24981,3.34756 1.59295,4.99152c0.31071,1.4886 0.5822,3.41417 0.5822,3.41417z" data-paper-data="{&quot;index&quot;:null}" fill="url(#color-55)" stroke="#000000"/><path d="M244.76131,207.0105v2.43859c0,0 -0.63174,0.48502 -1.7161,0.4598c-1.12697,-0.02621 -1.63697,-0.4598 -1.63697,-0.4598v-2.43859z" fill="url(#color-56)" stroke="none"/></g><g data-paper-data="{&quot;index&quot;:null}"><path d="M218.73854,207.84054c0,0 0.27149,-1.92558 0.5822,-3.41417c0.34314,-1.64397 1.59294,-4.99152 1.59294,-4.99152c0,0 -0.11778,3.6459 -0.05088,5.33581c0.05563,1.40533 0.18684,3.21822 0.18684,3.21822z" data-paper-data="{&quot;index&quot;:null}" fill="url(#color-57)" stroke="#000000"/><path d="M221.62845,207.0105v2.43859c0,0 -0.51,0.43359 -1.63697,0.4598c-1.08436,0.02523 -1.71609,-0.4598 -1.71609,-0.4598v-2.43859z" fill="url(#color-58)" stroke="none"/></g><g data-paper-data="{&quot;index&quot;:null}"><path d="M239.22809,209.58059c0,0 0.13119,-1.81289 0.18683,-3.21822c0.0669,-1.68991 -0.05088,-5.33581 -0.05088,-5.33581c0,0 1.24982,3.34756 1.59295,4.99153c0.31071,1.4886 0.58219,3.41416 0.58219,3.41416z" data-paper-data="{&quot;index&quot;:null}" fill="url(#color-59)" stroke="#000000"/><path d="M242.00234,208.6022v2.43859c0,0 -0.63174,0.48502 -1.7161,0.4598c-1.12697,-0.02621 -1.63697,-0.4598 -1.63697,-0.4598v-2.43859z" fill="url(#color-60)" stroke="none"/></g><g data-paper-data="{&quot;index&quot;:null}"><path d="M221.4975,209.43225c0,0 0.27149,-1.92558 0.5822,-3.41416c0.34314,-1.64397 1.59295,-4.99153 1.59295,-4.99153c0,0 -0.11779,3.6459 -0.05088,5.33581c0.05563,1.40533 0.18684,3.21822 0.18684,3.21822z" data-paper-data="{&quot;index&quot;:null}" fill="url(#color-61)" stroke="#000000"/><path d="M224.38741,208.6022v2.43859c0,0 -0.50999,0.43359 -1.63696,0.4598c-1.08436,0.02523 -1.7161,-0.4598 -1.7161,-0.4598v-2.43859z" fill="url(#color-62)" stroke="none"/></g><g data-paper-data="{&quot;index&quot;:null}"><path d="M236.15076,210.74785c0,0 0.1312,-1.8129 0.18684,-3.21823c0.0669,-1.68991 -0.05088,-5.33581 -0.05088,-5.33581c0,0 1.24981,3.34756 1.59295,4.99153c0.31071,1.4886 0.58219,3.41416 0.58219,3.41416z" data-paper-data="{&quot;index&quot;:null}" fill="url(#color-63)" stroke="#000000"/><path d="M238.92501,209.76946v2.4386c0,0 -0.63174,0.48502 -1.7161,0.45979c-1.12697,-0.02621 -1.63697,-0.45979 -1.63697,-0.45979v-2.4386z" fill="url(#color-64)" stroke="none"/></g><g data-paper-data="{&quot;index&quot;:null}"><path d="M224.57481,210.5995c0,0 0.27148,-1.92558 0.58219,-3.41416c0.34314,-1.64397 1.59295,-4.99153 1.59295,-4.99153c0,0 -0.11778,3.6459 -0.05088,5.33581c0.05563,1.40533 0.18683,3.21822 0.18683,3.21822z" data-paper-data="{&quot;index&quot;:null}" fill="url(#color-65)" stroke="#000000"/><path d="M227.4647,209.76946v2.4386c0,0 -0.51,0.43358 -1.63697,0.45979c-1.08436,0.02523 -1.7161,-0.45979 -1.7161,-0.45979v-2.4386z" fill="url(#color-66)" stroke="none"/></g><g data-paper-data="{&quot;index&quot;:null}"><path d="M232.96736,211.38452c0,0 0.13121,-1.81289 0.18684,-3.21822c0.0669,-1.68991 -0.05089,-5.33581 -0.05089,-5.33581c0,0 1.24982,3.34756 1.59295,4.99153c0.31071,1.4886 0.5822,3.41416 0.5822,3.41416z" data-paper-data="{&quot;index&quot;:null}" fill="url(#color-67)" stroke="#000000"/><path d="M235.74161,210.40614v2.4386c0,0 -0.63175,0.48502 -1.7161,0.4598c-1.12697,-0.02621 -1.63697,-0.4598 -1.63697,-0.4598v-2.4386z" fill="url(#color-68)" stroke="none"/></g><g data-paper-data="{&quot;index&quot;:null}"><path d="M227.75823,211.23618c0,0 0.27149,-1.92558 0.5822,-3.41416c0.34314,-1.64397 1.59294,-4.99153 1.59294,-4.99153c0,0 -0.11777,3.6459 -0.05088,5.33581c0.05563,1.40533 0.18683,3.21822 0.18683,3.21822z" data-paper-data="{&quot;index&quot;:null}" fill="url(#color-69)" stroke="#000000"/><path d="M230.64814,210.40614v2.4386c0,0 -0.51001,0.43359 -1.63697,0.4598c-1.08436,0.02523 -1.71609,-0.4598 -1.71609,-0.4598v-2.4386z" fill="url(#color-70)" stroke="none"/></g></g><g><g><g><path d="M212.47032,187.84517c0,0 -0.13119,1.8129 -0.18684,3.21823c-0.0669,1.68991 0.05089,5.33581 0.05089,5.33581c0,0 -1.24981,-3.34756 -1.59295,-4.99153c-0.31071,-1.4886 -0.5822,-3.41416 -0.5822,-3.41416z" data-paper-data="{&quot;index&quot;:null}" fill="url(#color-71)" stroke="#000000"/><path d="M209.69606,188.82356v-2.43859h3.35307v2.43859z" fill="url(#color-72)" stroke="none"/></g><g data-paper-data="{&quot;index&quot;:null}"><path d="M253.34416,188.20574c0,0 -0.27149,1.92557 -0.5822,3.41416c-0.34315,1.64397 -1.59295,4.99153 -1.59295,4.99153c0,0 0.11778,-3.64592 0.05088,-5.33582c-0.05563,-1.40533 -0.18682,-3.21823 -0.18682,-3.21823z" data-paper-data="{&quot;index&quot;:null}" fill="url(#color-73)" stroke="#000000"/><path d="M250.45424,189.03578v-2.43859h3.35307v2.43859z" fill="url(#color-74)" stroke="none"/></g><g><path d="M215.1546,189.41101c0,0 -0.13119,1.81289 -0.18684,3.21822c-0.0669,1.68991 0.05088,5.3358 0.05088,5.3358c0,0 -1.24982,-3.34755 -1.59295,-4.99152c-0.31071,-1.4886 -0.5822,-3.41417 -0.5822,-3.41417z" data-paper-data="{&quot;index&quot;:null}" fill="url(#color-75)" stroke="#000000"/><path d="M212.38034,190.38939v-2.43859h3.35307v2.43859z" fill="url(#color-76)" stroke="none"/></g><g data-paper-data="{&quot;index&quot;:null}"><path d="M250.65986,189.77158c0,0 -0.27149,1.92558 -0.5822,3.41417c-0.34315,1.64397 -1.59294,4.99152 -1.59294,4.99152c0,0 0.11778,-3.64589 0.05088,-5.3358c-0.05563,-1.40533 -0.18684,-3.21822 -0.18684,-3.21822z" data-paper-data="{&quot;index&quot;:null}" fill="url(#color-77)" stroke="#000000"/><path d="M247.76996,190.60163v-2.4386h3.35307v2.4386z" fill="url(#color-78)" stroke="none"/></g><g><path d="M218.36085,191.45578c0,0 -0.13119,1.81289 -0.18683,3.21822c-0.0669,1.68991 0.05088,5.33582 0.05088,5.33582c0,0 -1.24981,-3.34756 -1.59294,-4.99153c-0.31071,-1.4886 -0.5822,-3.41417 -0.5822,-3.41417z" data-paper-data="{&quot;index&quot;:null}" fill="url(#color-79)" stroke="#000000"/><path d="M215.58659,192.43417v-2.4386h3.35307v2.4386z" fill="url(#color-80)" stroke="none"/></g><g data-paper-data="{&quot;index&quot;:null}"><path d="M247.45362,191.60411c0,0 -0.27149,1.92558 -0.58219,3.41417c-0.34315,1.64397 -1.59295,4.99153 -1.59295,4.99153c0,0 0.11778,-3.64591 0.05088,-5.33582c-0.05563,-1.40533 -0.18684,-3.21822 -0.18684,-3.21822z" data-paper-data="{&quot;index&quot;:null}" fill="url(#color-81)" stroke="#000000"/><path d="M244.56371,192.43417v-2.4386h3.35307v2.4386z" fill="url(#color-82)" stroke="none"/></g><path d="M255.89535,183.90026c-0.25662,3.73531 -5.23969,4.84939 -7.16956,5.50489c-4.72181,1.60381 -11.30557,2.58508 -18.3147,2.58508c-6.80177,0 -12.4695,-1.31019 -16.52134,-3.11221c-3.83739,-1.70665 -6.23835,-3.85444 -6.32972,-5.74823c3.70627,-13.47325 3.33971,-22.89639 23.97959,-23.62786c20.0347,1.22096 20.4246,11.03498 24.35573,24.39833z" fill="url(#color-83)" stroke="#000000"/><path d="M254.76684,184.52749c-0.24464,3.73531 -4.02325,5.48651 -5.86299,6.142c-4.50133,1.60381 -11.50648,3.60445 -18.18832,3.60445c-6.48416,0 -12.37313,-2.07472 -16.23577,-3.87674c-3.65821,-1.70665 -5.70409,-4.49155 -5.7912,-6.38535c3.53321,-13.47325 2.45492,4.49928 22.13102,3.76782c19.09918,1.22096 20.19971,-16.61554 23.94727,-3.2522z" fill="url(#color-84)" stroke="#000000"/><path d="M230.4111,191.99023c-1.25532,0 -2.47203,-0.04462 -3.64706,-0.12874c-1.36738,-1.39427 -2.68426,-2.71867 -4.31405,-3.94102c-1.0202,-0.58247 -1.00235,-0.79726 -2.21219,-0.61986c-0.46585,0.06832 -0.99643,0.73563 -1.34787,0.42231c-0.58312,-0.51987 -1.04224,-2.02893 -1.87328,-2.35885c-1.66918,-0.66263 -2.0319,1.36402 -3.60863,0.01835c-0.15747,-0.13439 0.03578,-0.42666 -0.03859,-0.61984c-0.13965,-0.36279 -1.01615,-1.72653 -1.36839,-1.90632c-1.39272,-0.71082 -2.96106,0.36718 -4.06728,1.03091c0,0 -0.21841,0.13105 -0.32482,0.36773c-0.02641,-0.12221 -0.04282,-0.24639 -0.04891,-0.37279c3.70627,-13.47325 3.33971,-23.64874 23.97958,-24.38019c5.09107,0.31026 8.91362,1.1754 11.84808,2.51266c-0.23372,0.5021 -0.47434,0.99679 -0.53956,1.55054c-0.07778,0.66033 0.53722,1.18948 -0.22664,1.5554c-0.30827,0.14767 -0.63333,-0.25969 -0.9597,-0.36129c-0.50423,-0.15697 -1.13412,0.31242 -1.58388,0.03565c-0.34147,-0.21014 -0.41565,-0.82546 -0.81174,-0.88762c-0.59193,-0.09289 -2.01707,0.99937 -2.77606,0.68859c-0.41078,-0.16819 -0.68511,-0.75646 -1.12657,-0.71001c-1.47526,0.15524 -0.99566,1.55203 -2.31964,1.75974c-0.33628,0.34805 -0.78984,0.61258 -1.00883,1.04417c-0.21535,0.42442 0.11402,0.96675 -0.0041,1.4278c-0.09109,0.35557 -0.47467,-0.57596 -0.60854,-0.91773c-0.32279,-0.82412 -0.49183,-1.48509 -1.41376,-1.92034c-0.0662,-0.03125 -0.1304,-0.05564 -0.19296,-0.07429c0.01302,-0.28487 -0.16182,-0.51798 -0.16182,-0.51798c-0.41343,-0.50264 -1.0357,-0.81123 -1.63228,-1.07134c-0.55401,-0.24155 -0.88656,-0.92637 -1.47815,-1.05002c-1.52238,-0.3182 -2.93769,1.1009 -3.90022,2.0659c-1.83709,0.55068 -1.45751,2.73459 -2.68612,3.85922c-0.51946,0.68956 -1.65725,1.80321 -1.51498,2.76502c0.22795,1.5411 1.91375,1.08998 2.18051,2.55143c0.10965,0.6007 -0.29499,1.4837 0.15694,2.00657c0.95778,1.10811 2.57387,-0.16013 3.52444,0.49388c0.87883,0.60466 0.99735,1.95868 2.50602,1.78124c0.62705,-0.07375 2.04521,-1.66097 2.3769,-2.18377c0.21834,-0.34415 0.22098,-0.86906 0.56803,-1.08276c0.6915,-0.3171 1.36386,-0.94395 1.54049,-1.68391c0.04398,-0.18427 -0.18873,-0.38159 -0.11577,-0.55642c0.07232,-0.17333 0.69013,-0.29671 0.5169,-0.22417c-0.44722,0.18723 -0.35753,1.36262 -0.338,1.4084c0.51665,1.21154 0.99072,0.64714 1.74983,1.16457c0.92445,0.6301 0.92054,2.55722 2.12743,3.08514c1.5324,0.67029 1.97552,-0.58041 2.91102,-1.20674c0.56004,-0.37495 1.76256,-0.04411 2.34459,-0.25713c0.76722,-0.28079 1.02608,-0.76764 1.46438,-1.35206c0.55301,-0.43394 1.05241,-1.04214 1.20991,-1.72722c0.11404,-0.49601 -0.21095,-1.04556 -0.04369,-1.52624c0.14941,-0.42936 1.46015,-0.60642 1.48908,-0.62251c0.43017,-0.23913 0.85018,-0.54371 1.13351,-0.94613c0.43673,-0.62028 0.43758,-1.8312 0.85337,-2.53799c0.5229,-0.88887 1.0241,-1.74845 1.55492,-2.57844c3.9917,3.98905 5.25077,9.76996 7.16108,16.60661c-0.8208,0.58976 -1.64211,0.77627 -2.48809,1.35807c-0.23248,0.15988 -0.44308,0.75959 -0.63833,0.55591c-0.8261,-0.8618 -0.38906,-2.41306 -2.41538,-1.22565c-0.65228,0.38223 -1.01364,2.4449 -0.86288,3.09083c0.10184,0.43635 0.80327,0.72991 0.67871,1.16033c-0.16396,0.56659 -0.71396,0.9713 -0.87261,1.53941c-0.14264,0.51077 -0.2011,0.82819 -0.2229,1.13613c-4.70411,1.55745 -11.187,2.50687 -18.08146,2.50687z" fill="url(#color-85)" stroke="#000000"/><path d="M228.71783,169.38201c0,1.9898 -1.56946,3.60285 -3.50548,3.60285c-1.93603,0 -3.50549,-1.61306 -3.50549,-3.60285c0,-1.9898 1.56946,-3.60285 3.50549,-3.60285c1.93603,0 3.50548,1.61306 3.50548,3.60285z" fill="url(#color-86)" stroke="none"/><path d="M241.06161,169.38201c0,1.9898 -1.56945,3.60285 -3.50548,3.60285c-1.93603,0 -3.50548,-1.61306 -3.50548,-3.60285c0,-1.9898 1.56946,-3.60285 3.50548,-3.60285c1.93603,0 3.50548,1.61306 3.50548,3.60285z" fill="url(#color-87)" stroke="none"/><g stroke="none"><path d="M227.134,169.38201c0,1.09077 -0.86034,1.97502 -1.92164,1.97502c-1.06129,0 -1.92164,-0.88425 -1.92164,-1.97502c0,-1.09077 0.86034,-1.97502 1.92164,-1.97502c1.06129,0 1.92164,0.88425 1.92164,1.97502z" fill="url(#color-88)"/><path d="M226.31622,169.38201c0,0.62659 -0.49421,1.13453 -1.10387,1.13453c-0.60965,0 -1.10386,-0.50795 -1.10386,-1.13453c0,-0.62659 0.49421,-1.13453 1.10386,-1.13453c0.60965,0 1.10387,0.50795 1.10387,1.13453z" fill="#ffffff"/></g><g stroke="none"><path d="M239.47775,169.38201c0,1.09077 -0.86034,1.97502 -1.92164,1.97502c-1.06129,0 -1.92164,-0.88425 -1.92164,-1.97502c0,-1.09077 0.86034,-1.97502 1.92164,-1.97502c1.06129,0 1.92164,0.88425 1.92164,1.97502z" fill="url(#color-89)"/><path d="M238.65997,169.38201c0,0.62659 -0.49421,1.13453 -1.10386,1.13453c-0.60965,0 -1.10387,-0.50795 -1.10387,-1.13453c0,-0.62659 0.49421,-1.13453 1.10387,-1.13453c0.60965,0 1.10386,0.50795 1.10386,1.13453z" fill="#ffffff"/></g></g><g><g><path d="M220.27089,192.72914c0,0 -0.1312,1.81289 -0.18684,3.21822c-0.0669,1.68991 0.05088,5.33582 0.05088,5.33582c0,0 -1.24981,-3.34756 -1.59294,-4.99153c-0.31071,-1.4886 -0.5822,-3.41417 -0.5822,-3.41417z" data-paper-data="{&quot;index&quot;:null}" fill="url(#color-90)" stroke="#000000"/><path d="M217.49665,193.70752v-2.43859h3.35307v2.43859z" fill="url(#color-91)" stroke="none"/></g><g data-paper-data="{&quot;index&quot;:null}"><path d="M244.80078,192.87748c0,0 -0.27149,1.92558 -0.5822,3.41417c-0.34315,1.64397 -1.59295,4.99153 -1.59295,4.99153c0,0 0.11778,-3.6459 0.05088,-5.33581c-0.05563,-1.40533 -0.18683,-3.21822 -0.18683,-3.21822z" data-paper-data="{&quot;index&quot;:null}" fill="url(#color-92)" stroke="#000000"/><path d="M241.91087,193.70752v-2.43859h3.35307v2.43859z" fill="url(#color-93)" stroke="none"/></g><g><path d="M222.49929,193.47193c0,0 -0.13119,1.8129 -0.18682,3.21823c-0.0669,1.68991 0.05088,5.3358 0.05088,5.3358c0,0 -1.24982,-3.34755 -1.59295,-4.99152c-0.31071,-1.4886 -0.5822,-3.41417 -0.5822,-3.41417z" data-paper-data="{&quot;index&quot;:null}" fill="url(#color-94)" stroke="#000000"/><path d="M219.72504,194.45032v-2.43858h3.35307v2.43858z" fill="url(#color-95)" stroke="none"/></g><g data-paper-data="{&quot;index&quot;:null}"><path d="M242.57237,193.62029c0,0 -0.27149,1.92558 -0.5822,3.41416c-0.34315,1.64397 -1.59294,4.99153 -1.59294,4.99153c0,0 0.11778,-3.6459 0.05088,-5.33581c-0.05563,-1.40533 -0.18684,-3.21822 -0.18684,-3.21822z" data-paper-data="{&quot;index&quot;:null}" fill="url(#color-96)" stroke="#000000"/><path d="M239.68246,194.45032v-2.43858h3.35307v2.43858z" fill="url(#color-97)" stroke="none"/></g><g><path d="M224.83378,194.59707c0,0 -0.13119,1.8129 -0.18682,3.21823c-0.0669,1.68991 0.05089,5.33581 0.05089,5.33581c0,0 -1.24981,-3.34756 -1.59295,-4.99153c-0.31071,-1.4886 -0.5822,-3.41416 -0.5822,-3.41416z" data-paper-data="{&quot;index&quot;:null}" fill="url(#color-98)" stroke="#000000"/><path d="M222.05955,195.57547v-2.4386h3.35307v2.4386z" fill="url(#color-99)" stroke="none"/></g><g data-paper-data="{&quot;index&quot;:null}"><path d="M240.23787,194.74541c0,0 -0.27149,1.92558 -0.58219,3.41417c-0.34314,1.64397 -1.59295,4.99152 -1.59295,4.99152c0,0 0.11777,-3.6459 0.05088,-5.33581c-0.05564,-1.40533 -0.18682,-3.21822 -0.18682,-3.21822z" data-paper-data="{&quot;index&quot;:null}" fill="url(#color-100)" stroke="#000000"/><path d="M237.34797,195.57547v-2.4386h3.35307v2.4386z" fill="url(#color-101)" stroke="none"/></g><g><path d="M227.54891,195.03499c0,0 -0.1312,1.81289 -0.18683,3.21822c-0.0669,1.68991 0.05088,5.33581 0.05088,5.33581c0,0 -1.24981,-3.34755 -1.59295,-4.99152c-0.31071,-1.4886 -0.5822,-3.41417 -0.5822,-3.41417z" data-paper-data="{&quot;index&quot;:null}" fill="url(#color-102)" stroke="#000000"/><path d="M224.77466,196.01338v-2.43859h3.35307v2.43859z" fill="url(#color-103)" stroke="none"/></g><g data-paper-data="{&quot;index&quot;:null}"><path d="M237.52277,195.18334c0,0 -0.27149,1.92558 -0.5822,3.41417c-0.34314,1.64397 -1.59295,4.99152 -1.59295,4.99152c0,0 0.11778,-3.6459 0.05088,-5.33581c-0.05564,-1.40533 -0.18683,-3.21822 -0.18683,-3.21822z" data-paper-data="{&quot;index&quot;:null}" fill="url(#color-104)" stroke="#000000"/><path d="M234.63286,196.01338v-2.43859h3.35307v2.43859z" fill="url(#color-105)" stroke="none"/></g><g data-paper-data="{&quot;index&quot;:null}"><path d="M234.65769,195.71391c0,0 -0.27149,1.92558 -0.5822,3.41417c-0.34314,1.64397 -1.59294,4.99152 -1.59294,4.99152c0,0 0.11778,-3.6459 0.05088,-5.33581c-0.05564,-1.40533 -0.18684,-3.21822 -0.18684,-3.21822z" data-paper-data="{&quot;index&quot;:null}" fill="url(#color-106)" stroke="#000000"/><path d="M231.76778,196.54395v-2.43859h3.35307v2.43859z" fill="url(#color-107)" stroke="none"/></g><g data-paper-data="{&quot;index&quot;:null}"><path d="M230.61582,195.45945c0,0 -0.1312,1.81289 -0.18683,3.21822c-0.0669,1.68991 0.05088,5.3358 0.05088,5.3358c0,0 -1.24981,-3.34755 -1.59294,-4.99152c-0.31071,-1.4886 -0.58221,-3.41417 -0.58221,-3.41417z" data-paper-data="{&quot;index&quot;:null}" fill="url(#color-108)" stroke="#000000"/><path d="M227.84156,196.43784v-2.4386h3.35307v2.4386z" fill="url(#color-109)" stroke="none"/></g><g><path d="M245.5349,191.27121c-0.15112,1.84294 -7.75824,4.96259 -14.85692,4.80876c-8.14018,-0.17641 -13.55263,-4.12879 -13.60644,-5.06316c2.18251,-6.64751 1.51645,2.21988 13.67072,1.85898c11.79791,0.6024 12.47771,-8.19786 14.79265,-1.60458z" fill="url(#color-110)" stroke="#000000"/><g><path d="M231.08309,194.46364c0,0 -15.65342,1.47683 -15.93564,-9.44065c-0.29067,-11.24413 8.49083,-10.69496 16.01399,-10.67848c9.30075,-0.08644 15.70948,0.70002 15.93044,10.98944c0.21714,10.11156 -16.00879,9.12968 -16.00879,9.12968z" fill="url(#color-111)" stroke="#000000"/><g><path d="M215.14744,185.02299c-0.29067,-11.24413 8.49083,-10.69496 16.01399,-10.67848c9.30075,-0.08644 15.70948,0.70002 15.93044,10.98944c0.02658,1.23746 -0.19313,2.30878 -0.59921,3.23608c-0.34879,-0.29339 -0.80386,-0.06586 -0.80386,-0.06586c-1.39177,0.69798 -2.64969,0.53816 -4.14982,1.04414c-0.48398,0.16324 -1.01161,-0.4431 -1.50235,-0.30148c-0.61052,0.17619 -0.9403,0.87473 -1.49854,1.17832c-0.59778,0.3251 -1.14803,0.93626 -1.82794,0.90878c-0.30847,-0.01246 -0.5705,-0.33812 -0.87669,-0.29865c-1.13202,0.14593 -0.95412,0.62142 -1.6837,1.14272c-0.91684,0.65509 -1.46022,0.86325 -2.56947,0.86111c-0.89079,0 -2.10081,-0.21474 -2.94824,-0.08727c-0.36605,0.05507 -0.72355,0.60503 -1.16114,0.3522c-0.30182,-0.17437 -0.484,-0.56727 -0.82408,-0.64373c-0.66994,-0.15061 -1.30445,0.3762 -1.97403,0.28722c-0.71835,-0.09545 -1.63417,-0.25888 -2.3706,-0.39463c-0.73546,-0.13557 -1.19625,-0.83657 -1.81689,-1.13759c-0.9121,-0.44237 -1.72124,-0.3105 -2.61722,-0.20976c-1.56772,-1.40317 -2.64836,-3.38635 -2.72065,-6.18259z" fill="url(#color-112)" stroke="#000000"/><path d="M219.51883,183.17616c0.58478,0 1.05883,0.80588 1.05883,1.8c0,0.99411 -0.47405,1.8 -1.05883,1.8c-0.58478,0 -1.05883,-0.80588 -1.05883,-1.8c0,-0.99411 0.47405,-1.8 1.05883,-1.8z" data-paper-data="{&quot;index&quot;:null}" fill="url(#color-113)" stroke="none"/><path d="M244.1895,184.97616c0,0.99411 -0.47405,1.8 -1.05882,1.8c-0.58478,0 -1.05883,-0.80588 -1.05883,-1.8c0,-0.99411 0.47404,-1.8 1.05883,-1.8c0.58478,0 1.05882,0.80588 1.05882,1.8z" data-paper-data="{&quot;index&quot;:null}" fill="url(#color-114)" stroke="none"/></g></g></g></g></g></g><path d="M202.87983,230.48485v-77.5h57.5v77.5z" fill="url(#color-115)" stroke="none"/><path d="M-16.75675,373.73428v-387.46855h513.51351v387.46855z" fill="url(#color-116)" stroke="none"/><path d="M-16.75675,373.73428v-387.46855h513.51351v387.46855z" fill="url(#color-117)" stroke="none"/><path d="M137.45108,285.6014v-187.20279h197.09789v187.20279z" fill="url(#color-118)" stroke="none"/></g></g></svg>