<svg version="1.1" xmlns="http://www.w3.org/2000/svg" xmlns:xlink="http://www.w3.org/1999/xlink" width="89.5" height="87.21053" viewBox="0,0,89.5,87.21053"><defs><radialGradient cx="409.66967" cy="286.60661" r="43.5" gradientUnits="userSpaceOnUse" id="color-1"><stop offset="0" stop-color="#5a5a5a" stop-opacity="0"/><stop offset="1" stop-color="#5a5a5a"/></radialGradient></defs><g transform="translate(-364.91967,-243.00134)"><g data-paper-data="{&quot;isPaintingLayer&quot;:true}" fill-rule="nonzero" stroke-linecap="butt" stroke-linejoin="miter" stroke-miterlimit="10" stroke-dasharray="" stroke-dashoffset="0" style="mix-blend-mode: normal"><path d="M366.16967,311.21279c0,-17.95924 0,-44.34335 0,-53.50591c0,-6.25307 7.84754,-13.45553 14.54327,-13.45553c9.32268,0 35.20805,0 53.36552,0c10.95113,0 19.09121,7.21298 19.09121,17.02998c0,16.33753 0,39.88715 0,49.40538c0,7.99186 -8.45581,18.27517 -19.62997,18.27517c-17.01871,0 -40.34304,0 -49.70295,0c-7.82702,0 -17.66707,-7.50359 -17.66707,-17.74908z" fill="url(#color-1)" stroke="#ffffff" stroke-width="2.5"/><text transform="translate(372.24607,283.38488) scale(0.27924,0.27924)" font-size="40" xml:space="preserve" fill="#ffffff" fill-rule="nonzero" stroke="#717171" stroke-width="0" stroke-linecap="butt" stroke-linejoin="miter" stroke-miterlimit="10" stroke-dasharray="" stroke-dashoffset="0" font-family="Sans Serif" font-weight="normal" text-anchor="start" style="mix-blend-mode: normal"><tspan x="0" dy="0">Click and hold</tspan><tspan x="0" dy="46.150000000000006px">to decrypt!</tspan></text></g></g></svg>