<svg version="1.1" xmlns="http://www.w3.org/2000/svg" xmlns:xlink="http://www.w3.org/1999/xlink" width="230.42008" height="331.28175" viewBox="0,0,230.42008,331.28175"><defs><linearGradient x1="212.25683" y1="311.99188" x2="211.98859" y2="314.97298" gradientUnits="userSpaceOnUse" id="color-1"><stop offset="0" stop-color="#6a6a6a"/><stop offset="1" stop-color="#9f9f9f"/></linearGradient><linearGradient x1="212.87676" y1="305.10221" x2="212.60852" y2="308.08331" gradientUnits="userSpaceOnUse" id="color-2"><stop offset="0" stop-color="#6a6a6a"/><stop offset="1" stop-color="#9f9f9f"/></linearGradient><linearGradient x1="214.11662" y1="291.32285" x2="213.84839" y2="294.30394" gradientUnits="userSpaceOnUse" id="color-3"><stop offset="0" stop-color="#6a6a6a"/><stop offset="1" stop-color="#9f9f9f"/></linearGradient><linearGradient x1="214.60406" y1="284.42124" x2="214.33582" y2="287.40235" gradientUnits="userSpaceOnUse" id="color-4"><stop offset="0" stop-color="#6a6a6a"/><stop offset="1" stop-color="#9f9f9f"/></linearGradient><linearGradient x1="215.224" y1="277.53156" x2="214.95575" y2="280.51267" gradientUnits="userSpaceOnUse" id="color-5"><stop offset="0" stop-color="#6a6a6a"/><stop offset="1" stop-color="#9f9f9f"/></linearGradient><linearGradient x1="215.84394" y1="270.64188" x2="215.57569" y2="273.62299" gradientUnits="userSpaceOnUse" id="color-6"><stop offset="0" stop-color="#6a6a6a"/><stop offset="1" stop-color="#9f9f9f"/></linearGradient><linearGradient x1="214.31408" y1="265.01871" x2="214.31408" y2="318.70565" gradientUnits="userSpaceOnUse" id="color-7"><stop offset="0" stop-color="#0b2a00"/><stop offset="1" stop-color="#101800"/></linearGradient><linearGradient x1="217.89271" y1="253.17477" x2="217.62447" y2="256.15589" gradientUnits="userSpaceOnUse" id="color-8"><stop offset="0" stop-color="#6a6a6a"/><stop offset="1" stop-color="#9f9f9f"/></linearGradient><linearGradient x1="218.51264" y1="246.28511" x2="218.2444" y2="249.26621" gradientUnits="userSpaceOnUse" id="color-9"><stop offset="0" stop-color="#6a6a6a"/><stop offset="1" stop-color="#9f9f9f"/></linearGradient><linearGradient x1="219.13258" y1="239.39542" x2="218.86433" y2="242.37653" gradientUnits="userSpaceOnUse" id="color-10"><stop offset="0" stop-color="#6a6a6a"/><stop offset="1" stop-color="#9f9f9f"/></linearGradient><linearGradient x1="221.47982" y1="211.82479" x2="221.21157" y2="214.80588" gradientUnits="userSpaceOnUse" id="color-11"><stop offset="0" stop-color="#6a6a6a"/><stop offset="1" stop-color="#9f9f9f"/></linearGradient><linearGradient x1="219.2312" y1="206.20163" x2="219.2312" y2="259.88855" gradientUnits="userSpaceOnUse" id="color-12"><stop offset="0" stop-color="#0b2a00"/><stop offset="1" stop-color="#101800"/></linearGradient><linearGradient x1="216.26341" y1="325.37917" x2="195.47313" y2="325.37917" gradientUnits="userSpaceOnUse" id="color-13"><stop offset="0" stop-color="#a4a4a4"/><stop offset="1" stop-color="#d8d8d8"/></linearGradient><linearGradient x1="217.74843" y1="332.26426" x2="188.85805" y2="332.26426" gradientUnits="userSpaceOnUse" id="color-14"><stop offset="0" stop-color="#a4a4a4"/><stop offset="1" stop-color="#d8d8d8"/></linearGradient><linearGradient x1="220.08846" y1="339.03788" x2="178.1299" y2="339.03788" gradientUnits="userSpaceOnUse" id="color-15"><stop offset="0" stop-color="#a4a4a4"/><stop offset="1" stop-color="#d8d8d8"/></linearGradient><linearGradient x1="184.97" y1="339.01435" x2="173.44085" y2="339.01435" gradientUnits="userSpaceOnUse" id="color-16"><stop offset="0" stop-color="#787878"/><stop offset="1" stop-color="#a4a4a4"/></linearGradient><linearGradient x1="188.88505" y1="339.01435" x2="177.3559" y2="339.01435" gradientUnits="userSpaceOnUse" id="color-17"><stop offset="0" stop-color="#787878"/><stop offset="1" stop-color="#a4a4a4"/></linearGradient><linearGradient x1="193.88012" y1="339.01435" x2="182.35096" y2="339.01435" gradientUnits="userSpaceOnUse" id="color-18"><stop offset="0" stop-color="#787878"/><stop offset="1" stop-color="#a4a4a4"/></linearGradient><linearGradient x1="165.7123" y1="333.79772" x2="208.79771" y2="333.79772" gradientUnits="userSpaceOnUse" id="color-19"><stop offset="0" stop-color="#0b2a00"/><stop offset="1" stop-color="#101800"/></linearGradient><linearGradient x1="175.04749" y1="333.55836" x2="218.13287" y2="333.55836" gradientUnits="userSpaceOnUse" id="color-20"><stop offset="0" stop-color="#0b2a00"/><stop offset="1" stop-color="#101800"/></linearGradient><linearGradient x1="186.0582" y1="333.79772" x2="229.14359" y2="333.79772" gradientUnits="userSpaceOnUse" id="color-21"><stop offset="0" stop-color="#0b2a00"/><stop offset="1" stop-color="#101800"/></linearGradient><linearGradient x1="264.8674" y1="297.46252" x2="265.13563" y2="300.44363" gradientUnits="userSpaceOnUse" id="color-22"><stop offset="0" stop-color="#6a6a6a"/><stop offset="1" stop-color="#9f9f9f"/></linearGradient><linearGradient x1="264.24746" y1="290.57285" x2="264.5157" y2="293.55394" gradientUnits="userSpaceOnUse" id="color-23"><stop offset="0" stop-color="#6a6a6a"/><stop offset="1" stop-color="#9f9f9f"/></linearGradient><linearGradient x1="263.76003" y1="283.67124" x2="264.02826" y2="286.65235" gradientUnits="userSpaceOnUse" id="color-24"><stop offset="0" stop-color="#6a6a6a"/><stop offset="1" stop-color="#9f9f9f"/></linearGradient><linearGradient x1="263.14009" y1="276.78156" x2="263.40834" y2="279.76267" gradientUnits="userSpaceOnUse" id="color-25"><stop offset="0" stop-color="#6a6a6a"/><stop offset="1" stop-color="#9f9f9f"/></linearGradient><linearGradient x1="262.52015" y1="269.89188" x2="262.78839" y2="272.87299" gradientUnits="userSpaceOnUse" id="color-26"><stop offset="0" stop-color="#6a6a6a"/><stop offset="1" stop-color="#9f9f9f"/></linearGradient><linearGradient x1="264.73338" y1="264.26872" x2="264.73338" y2="314.36151" gradientUnits="userSpaceOnUse" id="color-27"><stop offset="0" stop-color="#0b2a00"/><stop offset="1" stop-color="#101800"/></linearGradient><linearGradient x1="260.47138" y1="252.42477" x2="260.73962" y2="255.40589" gradientUnits="userSpaceOnUse" id="color-28"><stop offset="0" stop-color="#6a6a6a"/><stop offset="1" stop-color="#9f9f9f"/></linearGradient><linearGradient x1="257.50421" y1="217.96447" x2="257.77243" y2="220.94557" gradientUnits="userSpaceOnUse" id="color-29"><stop offset="0" stop-color="#6a6a6a"/><stop offset="1" stop-color="#9f9f9f"/></linearGradient><linearGradient x1="256.88427" y1="211.07479" x2="257.15252" y2="214.05588" gradientUnits="userSpaceOnUse" id="color-30"><stop offset="0" stop-color="#6a6a6a"/><stop offset="1" stop-color="#9f9f9f"/></linearGradient><linearGradient x1="258.60012" y1="205.45162" x2="258.60012" y2="259.13856" gradientUnits="userSpaceOnUse" id="color-31"><stop offset="0" stop-color="#0b2a00"/><stop offset="1" stop-color="#101800"/></linearGradient><linearGradient x1="281.18309" y1="127.98699" x2="283.21227" y2="129.45129" gradientUnits="userSpaceOnUse" id="color-32"><stop offset="0" stop-color="#a4a4a4"/><stop offset="1" stop-color="#d8d8d8"/></linearGradient><linearGradient x1="301.93512" y1="142.70506" x2="299.90593" y2="141.24075" gradientUnits="userSpaceOnUse" id="color-33"><stop offset="0" stop-color="#a4a4a4"/><stop offset="1" stop-color="#d8d8d8"/></linearGradient><linearGradient x1="298.56165" y1="125.99855" x2="296.60925" y2="128.70412" gradientUnits="userSpaceOnUse" id="color-34"><stop offset="0" stop-color="#a4a4a4"/><stop offset="1" stop-color="#d8d8d8"/></linearGradient><linearGradient x1="284.81979" y1="145.39778" x2="286.77221" y2="142.6922" gradientUnits="userSpaceOnUse" id="color-35"><stop offset="0" stop-color="#a4a4a4"/><stop offset="1" stop-color="#d8d8d8"/></linearGradient><linearGradient x1="292.37568" y1="118.32813" x2="292.37568" y2="153.83194" gradientUnits="userSpaceOnUse" id="color-36"><stop offset="0" stop-color="#0b2a00"/><stop offset="1" stop-color="#101800"/></linearGradient><linearGradient x1="336.4963" y1="188.24658" x2="336.4963" y2="222.68751" gradientUnits="userSpaceOnUse" id="color-37"><stop offset="0" stop-color="#0b2a00"/><stop offset="1" stop-color="#101800"/></linearGradient><linearGradient x1="163.01158" y1="157.08487" x2="161.56939" y2="159.12983" gradientUnits="userSpaceOnUse" id="color-38"><stop offset="0" stop-color="#a4a4a4"/><stop offset="1" stop-color="#d8d8d8"/></linearGradient><linearGradient x1="155.16317" y1="148.27128" x2="155.16317" y2="179.09664" gradientUnits="userSpaceOnUse" id="color-39"><stop offset="0" stop-color="#0b2a00"/><stop offset="1" stop-color="#101800"/></linearGradient><linearGradient x1="198.81693" y1="127.32032" x2="196.78775" y2="128.78463" gradientUnits="userSpaceOnUse" id="color-40"><stop offset="0" stop-color="#a4a4a4"/><stop offset="1" stop-color="#d8d8d8"/></linearGradient><linearGradient x1="178.06491" y1="142.0384" x2="180.09409" y2="140.57408" gradientUnits="userSpaceOnUse" id="color-41"><stop offset="0" stop-color="#a4a4a4"/><stop offset="1" stop-color="#d8d8d8"/></linearGradient><linearGradient x1="181.43836" y1="125.33188" x2="183.39078" y2="128.03745" gradientUnits="userSpaceOnUse" id="color-42"><stop offset="0" stop-color="#a4a4a4"/><stop offset="1" stop-color="#d8d8d8"/></linearGradient><linearGradient x1="195.18023" y1="144.73112" x2="193.22781" y2="142.02554" gradientUnits="userSpaceOnUse" id="color-43"><stop offset="0" stop-color="#a4a4a4"/><stop offset="1" stop-color="#d8d8d8"/></linearGradient><linearGradient x1="187.62435" y1="117.66147" x2="187.62435" y2="153.16526" gradientUnits="userSpaceOnUse" id="color-44"><stop offset="0" stop-color="#0b2a00"/><stop offset="1" stop-color="#101800"/></linearGradient><linearGradient x1="143.50374" y1="187.57991" x2="143.50374" y2="222.02085" gradientUnits="userSpaceOnUse" id="color-45"><stop offset="0" stop-color="#0b2a00"/><stop offset="1" stop-color="#101800"/></linearGradient><linearGradient x1="235.11961" y1="178.76811" x2="244.86141" y2="178.76811" gradientUnits="userSpaceOnUse" id="color-46"><stop offset="0" stop-color="#a4a4a4"/><stop offset="1" stop-color="#d8d8d8"/></linearGradient><radialGradient cx="239.75856" cy="149.98405" r="7.88621" gradientUnits="userSpaceOnUse" id="color-47"><stop offset="0" stop-color="#d8d8d8"/><stop offset="1" stop-color="#a4a4a4"/></radialGradient><linearGradient x1="252.98261" y1="137.74623" x2="248.78678" y2="137.74623" gradientUnits="userSpaceOnUse" id="color-48"><stop offset="0" stop-color="#a4a4a4"/><stop offset="1" stop-color="#d8d8d8"/></linearGradient><linearGradient x1="226.53714" y1="138.45938" x2="230.73295" y2="138.45938" gradientUnits="userSpaceOnUse" id="color-49"><stop offset="0" stop-color="#a4a4a4"/><stop offset="1" stop-color="#d8d8d8"/></linearGradient><linearGradient x1="239.72477" y1="154.51872" x2="239.72477" y2="159.06419" gradientUnits="userSpaceOnUse" id="color-50"><stop offset="0" stop-color="#a4a4a4"/><stop offset="1" stop-color="#d8d8d8"/></linearGradient><linearGradient x1="254.29596" y1="137.85437" x2="259.08549" y2="139.61485" gradientUnits="userSpaceOnUse" id="color-51"><stop offset="0" stop-color="#a4a4a4"/><stop offset="1" stop-color="#d8d8d8"/></linearGradient><linearGradient x1="224.77457" y1="138.10362" x2="219.98503" y2="139.8641" gradientUnits="userSpaceOnUse" id="color-52"><stop offset="0" stop-color="#a4a4a4"/><stop offset="1" stop-color="#d8d8d8"/></linearGradient><linearGradient x1="239.44564" y1="199.01093" x2="239.44564" y2="203.6395" gradientUnits="userSpaceOnUse" id="color-53"><stop offset="0" stop-color="#a4a4a4"/><stop offset="1" stop-color="#d8d8d8"/></linearGradient><linearGradient x1="239.05591" y1="105.76679" x2="239.05591" y2="205.29258" gradientUnits="userSpaceOnUse" id="color-54"><stop offset="0" stop-color="#0b2a00"/><stop offset="1" stop-color="#101800"/></linearGradient><linearGradient x1="240.06359" y1="63.95162" x2="240.06359" y2="68.38052" gradientUnits="userSpaceOnUse" id="color-55"><stop offset="0" stop-color="#a4a4a4"/><stop offset="1" stop-color="#d8d8d8"/></linearGradient><linearGradient x1="226.42719" y1="52.29656" x2="221.53207" y2="52.29656" gradientUnits="userSpaceOnUse" id="color-56"><stop offset="0" stop-color="#a4a4a4"/><stop offset="1" stop-color="#d8d8d8"/></linearGradient><linearGradient x1="240.04659" y1="66.66211" x2="240.04659" y2="109.21061" gradientUnits="userSpaceOnUse" id="color-57"><stop offset="0" stop-color="#0b2a00"/><stop offset="1" stop-color="#101800"/></linearGradient><linearGradient x1="191.94774" y1="56.53632" x2="289.23291" y2="56.53632" gradientUnits="userSpaceOnUse" id="color-58"><stop offset="0" stop-color="#0b2a00"/><stop offset="1" stop-color="#101800"/></linearGradient><radialGradient cx="240.15255" cy="51.02233" r="16.60845" gradientUnits="userSpaceOnUse" id="color-59"><stop offset="0" stop-color="#081800"/><stop offset="1" stop-color="#050900"/></radialGradient><linearGradient x1="262.10068" y1="324.62917" x2="282.89096" y2="324.62917" gradientUnits="userSpaceOnUse" id="color-60"><stop offset="0" stop-color="#a4a4a4"/><stop offset="1" stop-color="#d8d8d8"/></linearGradient><linearGradient x1="260.61564" y1="331.51426" x2="289.50604" y2="331.51426" gradientUnits="userSpaceOnUse" id="color-61"><stop offset="0" stop-color="#a4a4a4"/><stop offset="1" stop-color="#d8d8d8"/></linearGradient><linearGradient x1="258.27563" y1="338.28788" x2="300.23419" y2="338.28788" gradientUnits="userSpaceOnUse" id="color-62"><stop offset="0" stop-color="#a4a4a4"/><stop offset="1" stop-color="#d8d8d8"/></linearGradient><linearGradient x1="293.39409" y1="338.26435" x2="304.92323" y2="338.26435" gradientUnits="userSpaceOnUse" id="color-63"><stop offset="0" stop-color="#787878"/><stop offset="1" stop-color="#a4a4a4"/></linearGradient><linearGradient x1="289.47902" y1="338.26435" x2="301.00819" y2="338.26435" gradientUnits="userSpaceOnUse" id="color-64"><stop offset="0" stop-color="#787878"/><stop offset="1" stop-color="#a4a4a4"/></linearGradient><linearGradient x1="284.48395" y1="338.26435" x2="296.01313" y2="338.26435" gradientUnits="userSpaceOnUse" id="color-65"><stop offset="0" stop-color="#787878"/><stop offset="1" stop-color="#a4a4a4"/></linearGradient><linearGradient x1="269.56637" y1="333.04772" x2="312.65175" y2="333.04772" gradientUnits="userSpaceOnUse" id="color-66"><stop offset="0" stop-color="#101800"/><stop offset="1" stop-color="#0b2a00"/></linearGradient><linearGradient x1="260.2312" y1="332.80835" x2="303.31658" y2="332.80835" gradientUnits="userSpaceOnUse" id="color-67"><stop offset="0" stop-color="#101800"/><stop offset="1" stop-color="#0b2a00"/></linearGradient><linearGradient x1="249.22051" y1="333.04772" x2="292.30589" y2="333.04772" gradientUnits="userSpaceOnUse" id="color-68"><stop offset="0" stop-color="#101800"/><stop offset="1" stop-color="#0b2a00"/></linearGradient><radialGradient cx="227.16667" cy="29.66667" r="2.94517" gradientUnits="userSpaceOnUse" id="color-69"><stop offset="0" stop-color="#ffffff"/><stop offset="1" stop-color="#ffffff" stop-opacity="0"/></radialGradient><radialGradient cx="254.66667" cy="29.66667" r="2.94517" gradientUnits="userSpaceOnUse" id="color-70"><stop offset="0" stop-color="#ffffff"/><stop offset="1" stop-color="#ffffff" stop-opacity="0"/></radialGradient></defs><g transform="translate(-124.78997,-14.48413)"><g data-paper-data="{&quot;isPaintingLayer&quot;:true}" fill-rule="nonzero" stroke-linecap="butt" stroke-linejoin="miter" stroke-miterlimit="10" stroke-dasharray="" stroke-dashoffset="0" style="mix-blend-mode: normal"><g data-paper-data="{&quot;index&quot;:null}"><path d="M215.60168,265.20128c16.94623,2.04805 14.50093,13.20402 13.31009,27.95142c-1.19084,14.7474 -1.68596,26.77425 -17.62254,25.45362c-15.15796,-1.2561 -14.50092,-13.20402 -13.31008,-27.95142c1.19084,-14.74739 2.26609,-27.30951 17.62253,-25.45361z" fill="#000000" stroke="#000000" stroke-width="0"/><g stroke="none"><path d="M208.70654,320.67893c-1.4866,-0.53586 -0.95074,-2.02246 -0.95074,-2.02246l0.28265,-0.64502c0.25872,-2.2479 1.19526,-4.45583 2.29978,-6.60027c-0.17133,-0.13723 -0.35098,-0.28389 -0.53875,-0.44349c-0.85068,-0.7231 -1.56796,-1.58986 -2.35195,-2.3848c0,0 -0.84258,-0.86014 -0.30592,-1.81428c-0.05321,-0.28141 -0.03119,-0.49895 -0.03119,-0.49895l0.07966,-0.7861c0.2277,-2.16404 0.37551,-3.78683 1.55399,-5.00376c-1.03161,-1.1728 -2.06325,-2.34564 -3.09486,-3.51844c0,0 -0.96506,-1.09713 0.01581,-2.10941c-0.01693,-0.12241 -0.01968,-0.24878 -0.00666,-0.37719c0.01238,-0.12222 0.03839,-0.23978 0.07636,-0.35131c-0.05853,-0.495 0.13436,-0.92377 0.13436,-0.92377l0.68335,-1.5191c0.73336,-1.62644 0.92346,-3.55004 2.02231,-4.9556c0.40755,-0.5213 1.08364,-1.00695 1.86447,-1.46252c-0.42807,-0.61945 -0.76028,-1.295 -0.90332,-2.04625c-0.56639,-2.97503 1.02723,-6.065 2.88719,-8.84398c-1.7919,-2.23207 -2.96278,-5.76783 -0.54781,-8.16177c0.85546,-0.84799 2.17346,-0.9392 3.38863,-1.21325c0.08673,-0.39182 0.34447,-0.80591 0.98358,-1.04842c1.47745,-0.56062 2.03807,0.91683 2.03807,0.91683c0.2387,0.66877 0.47736,1.33754 0.71606,2.00629l-0.15383,1.93766c0,0 -0.00432,0.04236 -0.01844,0.11248c-0.00035,0.04946 -0.00303,0.09935 -0.00812,0.14956c-0.02758,0.27215 -0.12267,0.52115 -0.26698,0.73207c0.37307,0.75673 -0.14126,1.54462 -0.14126,1.54462c-0.65415,1.0021 -1.40814,2.02119 -2.15105,3.06373c0.64872,1.59411 1.32366,3.17855 1.8819,4.80595c0.44663,1.30206 1.46951,2.59807 1.20685,3.94931c-0.20784,1.06934 -1.58354,1.49727 -2.40467,2.2131c-0.40322,0.35152 -0.81958,0.65881 -1.2465,0.93888c2.05363,2.70741 2.82149,9.02426 1.10709,11.98697c-1.10651,1.9122 -2.18321,1.96584 -3.39445,2.69527c0.42969,0.48849 0.85049,0.96687 1.25673,1.42871c0,0 0.11927,0.13561 0.23134,0.35546c0.31458,0.23588 0.53542,0.58491 0.60775,0.98003c0.32818,0.32441 0.51208,0.78902 0.46193,1.28386c-0.01193,0.11779 -0.03651,0.23123 -0.07226,0.33913c0.81928,0.74088 0.28098,1.82806 0.28098,1.82806c-0.53241,1.07526 -1.20788,2.22148 -1.88939,3.40648c1.19869,1.38597 1.96663,3.00225 1.64022,5.27583c-0.11476,0.79931 0.00282,1.72609 -0.47786,2.37495c-0.71348,0.96312 -2.16437,1.18375 -2.89312,2.13536l-0.81409,0.22006c-0.30343,0.22094 -0.68622,0.3352 -1.08904,0.29438c-0.19871,-0.02013 -0.38508,-0.07626 -0.55328,-0.16125c-0.06262,-0.02861 -0.12698,-0.06213 -0.19099,-0.10129c-0.30213,0.14806 -0.69816,0.20016 -1.20448,0.01765zM212.56069,313.83819c-0.46892,0.98492 -0.86376,1.97647 -1.11388,2.95806c0.0573,-0.04949 0.11661,-0.09681 0.17827,-0.14155c0.3653,-0.26507 0.9881,0.00186 1.31925,-0.30479c0.19217,-0.17795 -0.16085,-0.50752 -0.15924,-0.76943c0.0045,-0.73507 -0.07187,-1.29033 -0.2244,-1.74229zM210.19809,306.8575c0.56833,0.53996 1.17108,1.05017 1.76477,1.55861c0.45431,-0.82177 0.89723,-1.63189 1.29729,-2.4289c-0.21263,-0.22073 -0.36044,-0.50199 -0.41711,-0.81154c-0.13222,-0.1307 -0.24101,-0.28417 -0.32053,-0.4532c-0.1445,-0.11138 -0.2267,-0.20484 -0.2267,-0.20484l-0.38441,-0.43703c-0.36727,-0.41755 -0.73455,-0.83509 -1.10182,-1.25263c-0.46822,0.69564 -0.34984,1.6794 -0.47508,2.97423l-0.07965,0.78609c0,0 -0.01117,0.11016 -0.05675,0.26922zM208.80276,294.79339c-0.02591,0.25572 -0.11144,0.49099 -0.24138,0.69344c0.85215,0.96877 1.75459,1.99471 2.65923,3.02317c0.17382,-0.18653 0.36025,-0.35627 0.58128,-0.48005c0.725,-0.406 1.84932,-0.42198 2.19784,-1.17631c0.9127,-1.97541 0.72985,-7.04057 -0.81724,-8.63212c-0.1036,-0.10658 -0.21092,-0.21417 -0.32092,-0.32297c-0.19984,0.10478 -0.40061,0.21127 -0.60213,0.32083c-0.40506,0.22023 -0.99775,0.17439 -1.2709,0.54579c-0.88668,1.20553 -0.941,2.84676 -1.55383,4.21202l-0.64074,1.42433c0.0188,0.12698 0.02231,0.25832 0.00878,0.39186zM214.11037,277.7381c-0.35844,0.65539 -0.67198,1.32151 -0.91699,1.99974c-0.13112,0.36294 -0.66409,2.37501 -0.58488,2.73823c0.11249,0.51581 0.34652,0.95509 0.64365,1.34852c0.66662,-0.3256 1.2786,-0.63506 1.74412,-0.93158c0.40417,-0.25745 1.27392,-0.10764 1.31307,-0.58524c0.06066,-0.73999 -0.79396,-1.25963 -1.10667,-1.93304c-0.40082,-0.86315 -0.75421,-1.7466 -1.09231,-2.63663zM214.34747,271.64948c0.51844,-0.71655 1.00601,-1.39607 1.41902,-2.02877c0,0 0.01429,-0.02189 0.042,-0.0582c-0.11101,-0.24532 -0.16073,-0.52232 -0.13163,-0.80951c0.00509,-0.05019 0.01246,-0.0996 0.02203,-0.14814c0.00021,-0.07153 0.00452,-0.11389 0.00452,-0.11389l0.06442,-0.47183c-0.66118,0.10078 -1.31189,0.21655 -1.84169,0.59604c-0.81539,0.58409 -0.22985,2.0005 0.42133,3.03429z" data-paper-data="{&quot;index&quot;:null}" fill="#000000" stroke-width="0.5"/><path d="M208.74234,321.02028l4.6261,-58.81394l5.51382,0.43369l-4.62611,58.81396z" fill="#000000" stroke-width="0"/><path d="M211.77619,315.67392c2.30866,0.18158 4.03299,2.20034 3.8514,4.50901c-0.18158,2.30867 -2.20034,4.03299 -4.50901,3.8514c-2.30866,-0.18159 -4.03299,-2.20035 -3.8514,-4.50902c0.18159,-2.30867 2.20034,-4.03299 4.50901,-3.8514z" fill="#000000" stroke-width="0"/><path d="M207.11943,314.53486l0.26826,-2.9811l9.73829,0.87625l-0.26824,2.9811z" fill="url(#color-1)" stroke-width="0"/><path d="M207.73937,307.64518l0.26824,-2.9811l9.7383,0.87625l-0.26824,2.9811z" fill="url(#color-2)" stroke-width="0"/><path d="M208.3593,300.7555l0.26824,-2.98111l9.7383,0.87625l-0.26824,2.98111z" fill="#000000" stroke-width="0"/><path d="M208.97924,293.86582l0.26823,-2.98111l9.7383,0.87626l-0.26824,2.9811z" fill="url(#color-3)" stroke-width="0"/><path d="M209.46667,286.96422l0.26824,-2.9811l9.7383,0.87626l-0.26824,2.9811z" fill="url(#color-4)" stroke-width="0"/><path d="M210.0866,280.07454l0.26824,-2.98111l9.7383,0.87626l-0.26824,2.98111z" fill="url(#color-5)" stroke-width="0"/><path d="M210.70655,273.18486l0.26824,-2.98111l9.7383,0.87625l-0.26825,2.98111z" fill="url(#color-6)" stroke-width="0"/></g><path d="M215.60168,265.20128c16.94623,2.04805 14.50093,13.20402 13.31009,27.95142c-1.19084,14.7474 -1.68596,26.77425 -17.62254,25.45362c-3.43778,-0.28488 -6.06208,-1.11971 -8.05118,-2.41243c1.51457,-1.60347 2.69202,-6.40723 3.33065,-8.43887c0.15665,-1.24302 -0.11935,-2.56422 0.29352,-3.74709c0.43815,-1.25529 2.07512,-3.19463 2.04428,-4.61505c-0.04696,-2.16264 -2.10662,-3.77518 -3.19141,-5.38508c-0.82492,-1.22424 -1.26382,-2.71636 -1.15021,-4.18081c0.05105,-0.65801 0.54678,-1.37617 0.24755,-1.96442c-0.37142,-0.73016 -1.38428,-0.89221 -1.98434,-1.44989c-1.79156,-1.66502 -2.23174,-3.76393 -3.96582,-4.75669c1.41183,-10.44151 4.65041,-17.91573 16.73941,-16.45471z" fill="url(#color-7)" stroke="#000000" stroke-width="0"/></g><g data-paper-data="{&quot;index&quot;:null}"><path d="M234.54765,234.33561c-1.19084,14.7474 -1.68596,26.77424 -17.62254,25.45361c-15.15795,-1.2561 -14.50092,-13.20402 -13.31008,-27.95142c1.19084,-14.7474 2.26609,-27.30952 17.62253,-25.45361c16.94624,2.04805 14.50094,13.20402 13.31009,27.95142z" fill="#000000" stroke="#000000" stroke-width="0"/><g stroke="none"><path d="M214.34243,261.86184c-1.4866,-0.53586 -0.95075,-2.02247 -0.95075,-2.02247l0.28265,-0.64502c0.25872,-2.2479 1.19526,-4.45582 2.29978,-6.60026c-0.17133,-0.13722 -0.35098,-0.2839 -0.53875,-0.4435c-0.85068,-0.7231 -1.56796,-1.58985 -2.35195,-2.38479c0,0 -0.84257,-0.86014 -0.30592,-1.81428c-0.05321,-0.2814 -0.03119,-0.49894 -0.03119,-0.49894l0.07965,-0.78611c0.2277,-2.16405 0.37551,-3.78684 1.55399,-5.00376c-1.03161,-1.17281 -2.06324,-2.34563 -3.09485,-3.51844c0,0 -0.96506,-1.09714 0.01581,-2.1094c-0.01693,-0.12241 -0.01968,-0.24879 -0.00666,-0.3772c0.01238,-0.12223 0.03839,-0.23978 0.07636,-0.35131c-0.05853,-0.495 0.13435,-0.92377 0.13435,-0.92377l0.68336,-1.51909c0.73336,-1.62643 0.92346,-3.55005 2.02231,-4.9556c0.40756,-0.52131 1.08364,-1.00694 1.86447,-1.46252c-0.42807,-0.61946 -0.76028,-1.29502 -0.90331,-2.04627c-0.56639,-2.97502 1.02722,-6.06501 2.88718,-8.84398c-1.7919,-2.23206 -2.96277,-5.76783 -0.5478,-8.16177c0.85546,-0.84799 2.17346,-0.9392 3.38863,-1.21326c0.08673,-0.39182 0.34447,-0.8059 0.98358,-1.04841c1.47745,-0.56062 2.03806,0.91683 2.03806,0.91683c0.23871,0.66877 0.47737,1.33754 0.71608,2.0063l-0.15384,1.93766c0,0 -0.00432,0.04236 -0.01844,0.11248c-0.00036,0.04945 -0.00304,0.09933 -0.00813,0.14954c-0.02758,0.27217 -0.12267,0.52116 -0.26698,0.73207c0.37307,0.75674 -0.14127,1.54463 -0.14127,1.54463c-0.65415,1.00211 -1.40814,2.02119 -2.15105,3.06373c0.64871,1.5941 1.32366,3.17855 1.8819,4.80595c0.44663,1.30207 1.4695,2.59809 1.20684,3.94932c-0.20784,1.06933 -1.58353,1.49725 -2.40466,2.21309c-0.40322,0.35153 -0.81958,0.65882 -1.2465,0.93889c2.05362,2.70741 2.82148,9.02427 1.10708,11.98698c-1.10651,1.91219 -2.18321,1.96582 -3.39445,2.69526c0.42969,0.48849 0.85049,0.96688 1.25672,1.42872c0,0 0.11928,0.13561 0.23135,0.35546c0.31458,0.23587 0.53541,0.5849 0.60774,0.98002c0.32818,0.32442 0.51207,0.78903 0.46192,1.28387c-0.01193,0.11778 -0.03649,0.23123 -0.07224,0.33912c0.81928,0.74087 0.28097,1.82807 0.28097,1.82807c-0.53241,1.07526 -1.20787,2.22147 -1.88939,3.40648c1.19869,1.38598 1.96663,3.00225 1.64022,5.27584c-0.11476,0.79931 0.00283,1.72607 -0.47786,2.37493c-0.71348,0.9631 -2.16437,1.18375 -2.89313,2.13536l-0.81409,0.22005c-0.30343,0.22094 -0.68621,0.33521 -1.08904,0.29439c-0.19871,-0.02013 -0.38508,-0.07626 -0.55328,-0.16125c-0.06262,-0.02861 -0.12698,-0.06213 -0.19099,-0.10129c-0.30213,0.14806 -0.69816,0.20017 -1.20448,0.01766zM218.42097,256.76339c0.0045,-0.73508 -0.07187,-1.29034 -0.22439,-1.74231c-0.46892,0.98492 -0.86376,1.97648 -1.11389,2.95807c0.0573,-0.04949 0.11661,-0.09679 0.17827,-0.14154c0.3653,-0.26506 0.9881,0.00186 1.31925,-0.3048c0.19217,-0.17795 -0.16084,-0.50752 -0.15923,-0.76943zM215.83397,248.04043c0.56834,0.53994 1.17109,1.05016 1.76478,1.5586c0.45431,-0.82177 0.89723,-1.63189 1.29729,-2.4289c-0.21263,-0.22073 -0.36044,-0.50201 -0.41711,-0.81156c-0.13223,-0.13071 -0.24102,-0.28415 -0.32054,-0.45319c-0.14449,-0.11139 -0.22669,-0.20484 -0.22669,-0.20484l-0.38442,-0.43704c-0.36727,-0.41754 -0.73455,-0.83509 -1.10182,-1.25263c-0.46822,0.69563 -0.34983,1.67939 -0.47508,2.97422l-0.07965,0.7861c0,0 -0.01117,0.11016 -0.05675,0.26923zM214.43863,235.97629c-0.02591,0.25573 -0.11142,0.49099 -0.24137,0.69344c0.85215,0.96878 1.75458,1.99473 2.65922,3.02318c0.17383,-0.18654 0.36026,-0.35627 0.58129,-0.48006c0.725,-0.40599 1.84932,-0.42197 2.19784,-1.1763c0.9127,-1.9754 0.72985,-7.04057 -0.81724,-8.63212c-0.1036,-0.10657 -0.21091,-0.21416 -0.32091,-0.32296c-0.19984,0.10478 -0.40062,0.21126 -0.60213,0.32082c-0.40506,0.22022 -0.99775,0.17437 -1.2709,0.54579c-0.88667,1.20553 -0.941,2.84676 -1.55383,4.21202l-0.64074,1.42434c0.0188,0.12697 0.0223,0.25831 0.00877,0.39185zM220.83855,221.55763c-0.40082,-0.86315 -0.75421,-1.7466 -1.0923,-2.63663c-0.35844,0.65537 -0.67198,1.32151 -0.91699,1.99974c-0.13112,0.36295 -0.66409,2.37501 -0.58488,2.73823c0.11249,0.51582 0.34652,0.95511 0.64365,1.34853c0.66662,-0.32558 1.27862,-0.63505 1.74413,-0.93158c0.40417,-0.25745 1.27391,-0.10765 1.31306,-0.58525c0.06066,-0.74 -0.79397,-1.25962 -1.10667,-1.93304zM219.56201,209.79809c-0.81539,0.58408 -0.22985,2.00049 0.42133,3.03429c0.51844,-0.71655 1.006,-1.39608 1.41902,-2.02877c0,0 0.0143,-0.0219 0.04201,-0.0582c-0.111,-0.24532 -0.16072,-0.52232 -0.13163,-0.80951c0.00509,-0.0502 0.01246,-0.09961 0.02203,-0.14814c0.00021,-0.07153 0.00451,-0.11389 0.00451,-0.11389l0.06442,-0.47183c-0.66118,0.1008 -1.31189,0.21655 -1.84169,0.59604z" data-paper-data="{&quot;index&quot;:null}" fill="#000000" stroke-width="0.5"/><path d="M214.37822,262.2032l4.6261,-58.81395l5.51381,0.4337l-4.62613,58.81395z" fill="#000000" stroke-width="0"/><path d="M221.26348,261.36581c-0.18159,2.30867 -2.20035,4.033 -4.50902,3.85141c-2.30866,-0.18159 -4.03299,-2.20034 -3.8514,-4.50901c0.18159,-2.30867 2.20034,-4.03299 4.50901,-3.8514c2.30866,0.18159 4.033,2.20034 3.85141,4.509z" fill="#000000" stroke-width="0"/><path d="M212.75532,255.71776l0.26824,-2.9811l9.7383,0.87625l-0.26824,2.98112z" fill="url(#color-8)" stroke-width="0"/><path d="M213.37526,248.82807l0.26824,-2.98111l9.7383,0.87625l-0.26824,2.98111z" fill="url(#color-9)" stroke-width="0"/><path d="M213.99519,241.93841l0.26824,-2.98111l9.73829,0.87626l-0.26823,2.9811z" fill="url(#color-10)" stroke-width="0"/><path d="M214.61512,235.04873l0.26824,-2.98111l9.7383,0.87625l-0.26824,2.98111z" fill="#000000" stroke-width="0"/><path d="M215.10256,228.14712l0.26824,-2.98111l9.73829,0.87626l-0.26824,2.98111z" fill="#000000" stroke-width="0"/><path d="M215.72249,221.25745l0.26824,-2.98111l9.7383,0.87626l-0.26825,2.98111z" fill="#000000" stroke-width="0"/><path d="M216.34242,214.36777l0.26825,-2.98111l9.73829,0.87625l-0.26824,2.98111z" fill="url(#color-11)" stroke-width="0"/></g><path d="M234.54765,234.33561c-1.19084,14.7474 -1.68596,26.77424 -17.62254,25.45361c-12.40973,-1.02836 -14.2193,-9.22303 -13.81408,-20.25318c0.67155,0.00107 1.33337,0.02595 1.9589,0.10464c1.37149,0.17253 2.57199,1.45733 3.9433,1.28339c0.9705,-0.12311 1.86594,-0.69232 2.62896,-1.30456c0.67303,-0.54003 0.97344,-1.43404 1.56595,-2.06136c1.27763,-1.35269 3.22186,-2.19638 3.9452,-4.0909c0.15161,-0.39708 -0.43265,-1.02616 -0.08607,-1.27222c1.7133,-1.21637 2.29736,1.82118 3.90891,-0.7515c0.52394,-0.83642 0.17025,-1.96658 0.25538,-2.94987c0.09485,-0.98549 1.86547,-1.04259 2.22834,-1.96374c1.54484,-3.92156 -1.81383,-2.02735 -2.71456,-3.80486c-0.49859,-0.98393 0.29244,-2.6327 -0.65396,-3.37105c-1.71858,-1.34077 -4.81421,1.70748 -6.81326,1.43703c-0.67509,-0.09133 -0.53919,-1.35031 -1.11668,-1.71168c-0.83489,-0.52244 -1.9358,-0.37213 -2.88824,-0.6228c-1.3505,-0.35544 -2.56951,-0.68504 -3.79449,-0.93136c1.88341,-7.52839 5.84524,-12.33912 15.75888,-11.141c16.94624,2.04805 14.50094,13.20402 13.31009,27.95142z" fill="url(#color-12)" stroke="#000000" stroke-width="0"/></g><g data-paper-data="{&quot;index&quot;:null}" stroke-width="0"><g stroke="none"><path d="M195.47313,328.34921v-5.94008h20.79028v5.94008z" fill="url(#color-13)"/><path d="M182.37796,337.39433l6.48009,-10.26014h28.89039v10.26014z" fill="url(#color-14)"/><path d="M178.1299,342.25092v-6.42608h41.95856v6.42609z" fill="url(#color-15)"/><path d="M173.44085,342.22739v-6.42608h11.52915v6.42609z" fill="url(#color-16)"/><path d="M177.3559,342.22739v-6.42608h11.52915v6.42609z" fill="url(#color-17)"/><path d="M182.35096,342.22739v-6.42608h11.52915v6.42609z" fill="url(#color-18)"/></g><g stroke="#000000"><path d="M187.25501,321.82955c11.8977,0 21.5427,5.35833 21.5427,11.96816c0,6.60983 -9.645,11.96817 -21.5427,11.96817c-11.8977,0 -21.54269,-1.76788 -21.54269,-11.96816c0,-10.43964 9.64499,-11.96816 21.54269,-11.96816z" fill="url(#color-19)"/><path d="M196.59018,321.59019c11.8977,0 21.54269,5.35834 21.54269,11.96817c0,6.60983 -9.64499,11.96816 -21.54269,11.96816c-11.8977,0 -21.54269,-1.76788 -21.54269,-11.96816c0,-10.43964 9.64499,-11.96816 21.54269,-11.96816z" fill="url(#color-20)"/><path d="M207.60089,321.82955c11.8977,0 21.5427,5.35833 21.5427,11.96816c0,6.60983 -9.64499,11.96817 -21.5427,11.96817c-11.8977,0 -21.54269,-1.76788 -21.54269,-11.96816c0,-10.43964 9.64499,-11.96816 21.54269,-11.96816z" fill="url(#color-21)"/></g></g><g><path d="M262.76241,264.45129c15.35643,-1.85591 16.43168,10.70622 17.62253,25.45361c1.19085,14.7474 1.84789,26.69533 -13.31008,27.95142c-15.93658,1.32063 -16.43169,-10.70622 -17.62254,-25.45362c-1.19085,-14.7474 -3.63614,-25.90337 13.31009,-27.95142z" fill="#000000" stroke="#000000" stroke-width="0"/><g stroke="none"><path d="M269.6575,319.92895c-0.50631,0.1825 -0.90235,0.13041 -1.20448,-0.01765c-0.06401,0.03916 -0.12836,0.07268 -0.19099,0.10129c-0.1682,0.08499 -0.35457,0.14112 -0.55328,0.16125c-0.40283,0.04082 -0.78562,-0.07344 -1.08904,-0.29438l-0.81409,-0.22006c-0.72876,-0.9516 -2.17964,-1.17224 -2.89312,-2.13536c-0.48068,-0.64886 -0.3631,-1.57564 -0.47786,-2.37495c-0.32641,-2.27359 0.44153,-3.88986 1.64022,-5.27583c-0.68151,-1.185 -1.35699,-2.33121 -1.8894,-3.40648c0,0 -0.5383,-1.08719 0.28098,-1.82806c-0.03575,-0.10789 -0.06032,-0.22134 -0.07225,-0.33913c-0.05015,-0.49485 0.13375,-0.95945 0.46193,-1.28386c0.07234,-0.39512 0.29316,-0.74416 0.60775,-0.98003c0.11207,-0.21985 0.23134,-0.35546 0.23134,-0.35546c0.40623,-0.46184 0.82704,-0.94022 1.25673,-1.42871c-1.21124,-0.72943 -2.28794,-0.78306 -3.39445,-2.69527c-1.7144,-2.96271 -0.94654,-9.27956 1.10709,-11.98697c-0.42692,-0.28007 -0.84328,-0.58736 -1.2465,-0.93888c-0.82114,-0.71584 -2.19682,-1.14377 -2.40467,-2.2131c-0.26266,-1.35123 0.76022,-2.64725 1.20685,-3.94931c0.55824,-1.6274 1.23319,-3.21184 1.8819,-4.80595c-0.74291,-1.04254 -1.4969,-2.06163 -2.15105,-3.06373c0,0 -0.51432,-0.78789 -0.14126,-1.54462c-0.1443,-0.21091 -0.2394,-0.45991 -0.26698,-0.73207c-0.00509,-0.05021 -0.00777,-0.10009 -0.00812,-0.14956c-0.01412,-0.07012 -0.01844,-0.11248 -0.01844,-0.11248l-0.15383,-1.93766c0.2387,-0.66875 0.47737,-1.33753 0.71606,-2.00629c0,0 0.56062,-1.47745 2.03807,-0.91683c0.6391,0.24251 0.89685,0.65659 0.98358,1.04842c1.21517,0.27405 2.53317,0.36526 3.38862,1.21325c2.41498,2.39393 1.2441,5.92969 -0.5478,8.16177c1.85996,2.77898 3.45358,5.86895 2.88718,8.84398c-0.14303,0.75125 -0.47525,1.42681 -0.90332,2.04625c0.78084,0.45558 1.45692,0.94122 1.86447,1.46252c1.09886,1.40556 1.28895,3.32916 2.02231,4.9556l0.68335,1.5191c0,0 0.1929,0.42877 0.13437,0.92377c0.03796,0.11154 0.06397,0.22909 0.07635,0.35131c0.01301,0.1284 0.01027,0.25477 -0.00666,0.37719c0.98086,1.01227 0.01581,2.10941 0.01581,2.10941c-1.03161,1.1728 -2.06326,2.34564 -3.09487,3.51844c1.17848,1.21693 1.3263,2.83971 1.55399,5.00376l0.07966,0.7861c0,0 0.02202,0.21754 -0.03119,0.49895c0.53665,0.95414 -0.30592,1.81428 -0.30592,1.81428c-0.78398,0.79494 -1.50126,1.6617 -2.35195,2.3848c-0.18777,0.1596 -0.36741,0.30626 -0.53875,0.44349c1.10452,2.14444 2.04105,4.35237 2.29978,6.60027l0.28265,0.64502c0,0 0.53586,1.4866 -0.95074,2.02246zM265.579,314.83048c0.00161,0.26191 -0.35141,0.59147 -0.15924,0.76943c0.33115,0.30665 0.95395,0.03972 1.31925,0.30479c0.06166,0.04474 0.12097,0.09206 0.17827,0.14155c-0.25013,-0.98158 -0.64497,-1.97314 -1.11388,-2.95806c-0.15253,0.45196 -0.2289,1.00722 -0.2244,1.74229zM268.16598,306.1075c-0.04558,-0.15906 -0.05675,-0.26922 -0.05675,-0.26922l-0.07965,-0.78609c-0.12525,-1.29483 -0.00686,-2.27859 -0.47508,-2.97423c-0.36727,0.41755 -0.73455,0.83509 -1.10182,1.25263l-0.38441,0.43703c0,0 -0.0822,0.09346 -0.2267,0.20484c-0.07952,0.16904 -0.18832,0.3225 -0.32053,0.4532c-0.05667,0.30955 -0.20449,0.59081 -0.41711,0.81154c0.40006,0.79701 0.84298,1.60713 1.29729,2.4289c0.5937,-0.50844 1.19644,-1.01865 1.76477,-1.5586zM269.56134,294.04339c-0.01353,-0.13354 -0.01002,-0.26488 0.00878,-0.39186l-0.64074,-1.42433c-0.61283,-1.36526 -0.66715,-3.00649 -1.55383,-4.21202c-0.27316,-0.3714 -0.86585,-0.32556 -1.27091,-0.54579c-0.20151,-0.10956 -0.40229,-0.21605 -0.60213,-0.32083c-0.11,0.10881 -0.21731,0.21639 -0.32091,0.32297c-1.54709,1.59155 -1.72994,6.65671 -0.81724,8.63212c0.34852,0.75432 1.47284,0.77031 2.19784,1.17631c0.22103,0.12378 0.40746,0.29352 0.58128,0.48005c0.90464,-1.02846 1.80708,-2.0544 2.65923,-3.02317c-0.12995,-0.20245 -0.21547,-0.43773 -0.24138,-0.69344zM263.16141,279.62473c-0.3127,0.67341 -1.16733,1.19305 -1.10667,1.93304c0.03915,0.4776 0.90891,0.32779 1.31308,0.58524c0.46551,0.29652 1.0775,0.60599 1.74412,0.93158c0.29714,-0.39343 0.53116,-0.83272 0.64365,-1.34852c0.07921,-0.36322 -0.45376,-2.37529 -0.58488,-2.73822c-0.24502,-0.67823 -0.55854,-1.34436 -0.91699,-1.99974c-0.3381,0.89002 -0.69149,1.77348 -1.09231,2.63663zM264.43795,267.86518c-0.5298,-0.3795 -1.18051,-0.49526 -1.8417,-0.59604l0.06442,0.47183c0,0 0.0043,0.04236 0.00452,0.11389c0.00957,0.04853 0.01694,0.09794 0.02203,0.14814c0.02909,0.28719 -0.02063,0.56419 -0.13163,0.80951c0.02772,0.03631 0.042,0.0582 0.042,0.0582c0.41301,0.63269 0.90059,1.31222 1.41903,2.02877c0.65118,-1.03379 1.23673,-2.45021 0.42133,-3.03429z" data-paper-data="{&quot;index&quot;:null}" fill="#000000" stroke-width="0.5"/><path d="M264.10794,320.70399l-4.62611,-58.81396l5.51381,-0.43369l4.6261,58.81394z" fill="#000000" stroke-width="0"/><path d="M266.5879,314.92391c2.30867,-0.18159 4.32741,1.54273 4.50901,3.8514c0.18159,2.30867 -1.54273,4.32743 -3.8514,4.50902c-2.30867,0.18159 -4.32743,-1.54273 -4.50901,-3.8514c-0.18159,-2.30867 1.54274,-4.32743 3.8514,-4.50901z" fill="#000000" stroke-width="0"/><path d="M261.50633,314.66111l-0.26824,-2.9811l9.73829,-0.87625l0.26826,2.9811z" fill="#000000" stroke-width="0"/><path d="M260.88642,307.77143l-0.26824,-2.9811l9.7383,-0.87625l0.26824,2.9811z" fill="#000000" stroke-width="0"/><path d="M260.26649,300.88175l-0.26824,-2.98111l9.7383,-0.87625l0.26824,2.98111z" fill="url(#color-22)" stroke-width="0"/><path d="M259.64653,293.99207l-0.26824,-2.9811l9.7383,-0.87626l0.26824,2.98111z" fill="url(#color-23)" stroke-width="0"/><path d="M259.15912,287.09047l-0.26824,-2.9811l9.7383,-0.87626l0.26824,2.9811z" fill="url(#color-24)" stroke-width="0"/><path d="M258.53918,280.20079l-0.26824,-2.98111l9.7383,-0.87626l0.26824,2.98111z" fill="url(#color-25)" stroke-width="0"/><path d="M257.91925,273.31112l-0.26825,-2.98111l9.7383,-0.87625l0.26824,2.98111z" fill="url(#color-26)" stroke-width="0"/></g><path d="M262.76241,264.45129c15.35643,-1.85591 16.43168,10.70622 17.62253,25.45361c0.20081,2.48679 0.38644,4.89398 0.48362,7.18372c-1.31691,-0.01208 -3.03558,-0.04108 -4.05889,0.66719c-0.64875,0.44903 -0.27216,1.92597 -1.03461,2.12889c-2.69985,0.71855 -6.82903,-0.33683 -8.7579,2.33912c-0.53565,0.74312 -0.53653,1.7672 -0.60532,2.68067c-0.01653,0.21954 0.53254,0.41349 0.36186,0.55255c-0.18087,0.14737 -0.3699,-0.37868 -0.60218,-0.35675c-0.68101,0.0643 -1.4429,0.15434 -1.96276,0.59892c-1.47318,1.25982 -0.34966,5.44609 -1.98761,5.06264c-0.89356,0.20177 -1.92626,0.08568 -2.68067,0.60532c-0.53954,0.37163 -0.39746,1.27929 -0.80275,1.79404c-0.70162,0.89111 -2.63527,0.81856 -3.84428,1.2003c-4.21801,-4.47788 -4.69185,-12.67983 -5.44113,-21.95881c-1.19085,-14.7474 -3.63614,-25.90337 13.31009,-27.95142z" fill="url(#color-27)" stroke="#000000" stroke-width="0"/></g><g><path d="M257.12653,205.63419c15.35643,-1.85591 16.43168,10.70621 17.62252,25.45361c1.19085,14.7474 1.84788,26.69532 -13.31008,27.95142c-15.93658,1.32063 -16.43169,-10.70621 -17.62254,-25.45361c-1.19085,-14.7474 -3.63615,-25.90337 13.31009,-27.95142z" fill="#000000" stroke="#000000" stroke-width="0"/><g stroke="none"><path d="M264.02162,261.11186c-0.50631,0.1825 -0.90235,0.1304 -1.20448,-0.01766c-0.06401,0.03916 -0.12836,0.07268 -0.19099,0.10129c-0.1682,0.08499 -0.35457,0.14112 -0.55328,0.16125c-0.40283,0.04082 -0.78561,-0.07345 -1.08904,-0.29439l-0.81409,-0.22005c-0.72876,-0.9516 -2.17965,-1.17225 -2.89313,-2.13536c-0.48068,-0.64886 -0.3631,-1.57563 -0.47786,-2.37493c-0.32641,-2.27358 0.44153,-3.88986 1.64022,-5.27584c-0.68151,-1.185 -1.35697,-2.33122 -1.88939,-3.40648c0,0 -0.53831,-1.08719 0.28097,-1.82807c-0.03575,-0.10789 -0.06032,-0.22134 -0.07225,-0.33912c-0.05015,-0.49484 0.13375,-0.95945 0.46193,-1.28387c0.07234,-0.39512 0.29316,-0.74415 0.60775,-0.98002c0.11207,-0.21985 0.23135,-0.35546 0.23135,-0.35546c0.40623,-0.46184 0.82704,-0.94022 1.25673,-1.42872c-1.21124,-0.72944 -2.28794,-0.78306 -3.39445,-2.69526c-1.7144,-2.96271 -0.94654,-9.27957 1.10708,-11.98698c-0.42692,-0.28007 -0.84328,-0.58736 -1.24649,-0.93889c-0.82114,-0.71583 -2.19682,-1.14375 -2.40467,-2.21309c-0.26266,-1.35124 0.76021,-2.64726 1.20684,-3.94932c0.55824,-1.6274 1.2332,-3.21185 1.8819,-4.80595c-0.74291,-1.04254 -1.4969,-2.06162 -2.15105,-3.06373c0,0 -0.51434,-0.78788 -0.14127,-1.54463c-0.1443,-0.21091 -0.2394,-0.45991 -0.26698,-0.73207c-0.00509,-0.05021 -0.00777,-0.10009 -0.00813,-0.14954c-0.01412,-0.07012 -0.01843,-0.11248 -0.01843,-0.11248l-0.15384,-1.93766c0.2387,-0.66876 0.47737,-1.33753 0.71607,-2.0063c0,0 0.56061,-1.47745 2.03806,-0.91683c0.6391,0.24251 0.89685,0.65659 0.98358,1.04841c1.21517,0.27406 2.53317,0.36526 3.38862,1.21326c2.41498,2.39393 1.2441,5.92971 -0.5478,8.16177c1.85996,2.77897 3.45358,5.86896 2.88718,8.84398c-0.14303,0.75125 -0.47524,1.42681 -0.90331,2.04627c0.78084,0.45558 1.45691,0.94121 1.86447,1.46252c1.09886,1.40555 1.28895,3.32917 2.02231,4.9556l0.68336,1.51909c0,0 0.19289,0.42877 0.13436,0.92377c0.03796,0.11154 0.06397,0.22908 0.07635,0.35131c0.01301,0.1284 0.01027,0.25478 -0.00666,0.3772c0.98086,1.01227 0.01581,2.1094 0.01581,2.1094c-1.03161,1.17281 -2.06324,2.34563 -3.09485,3.51844c1.17848,1.21693 1.3263,2.83971 1.55399,5.00376l0.07965,0.78611c0,0 0.02202,0.21754 -0.03119,0.49894c0.53665,0.95414 -0.30592,1.81428 -0.30592,1.81428c-0.78398,0.79494 -1.50126,1.6617 -2.35195,2.38479c-0.18777,0.1596 -0.36741,0.30628 -0.53875,0.4435c1.10452,2.14444 2.04105,4.35236 2.29978,6.60026l0.28265,0.64502c0,0 0.53586,1.48661 -0.95075,2.02247zM259.94311,256.01339c0.00161,0.26191 -0.35141,0.59147 -0.15924,0.76942c0.33115,0.30666 0.95395,0.03974 1.31925,0.3048c0.06166,0.04474 0.12097,0.09205 0.17827,0.14154c-0.25013,-0.98158 -0.64497,-1.97315 -1.11388,-2.95807c-0.15253,0.45197 -0.2289,1.00722 -0.2244,1.74231zM262.53011,247.29041c-0.04558,-0.15906 -0.05674,-0.26923 -0.05674,-0.26923l-0.07965,-0.7861c-0.12525,-1.29483 -0.00685,-2.27859 -0.47508,-2.97422c-0.36727,0.41754 -0.73455,0.83509 -1.10182,1.25263l-0.38441,0.43704c0,0 -0.08221,0.09345 -0.2267,0.20484c-0.07952,0.16904 -0.18831,0.32249 -0.32054,0.45319c-0.05667,0.30955 -0.20449,0.59082 -0.41712,0.81156c0.40006,0.79701 0.84298,1.60713 1.29729,2.4289c0.5937,-0.50843 1.19643,-1.01865 1.76478,-1.5586zM257.52554,220.80763c-0.3127,0.67342 -1.16733,1.19304 -1.10667,1.93304c0.03915,0.4776 0.90889,0.3278 1.31306,0.58525c0.46551,0.29653 1.07752,0.60599 1.74413,0.93158c0.29714,-0.39343 0.53116,-0.83272 0.64365,-1.34853c0.07921,-0.36321 -0.45376,-2.37527 -0.58488,-2.73822c-0.24502,-0.67823 -0.55854,-1.34436 -0.91699,-1.99974c-0.3381,0.89003 -0.69149,1.77348 -1.09231,2.63663zM258.80207,209.04809c-0.5298,-0.37949 -1.18051,-0.49525 -1.84169,-0.59604l0.06442,0.47183c0,0 0.0043,0.04236 0.00452,0.11389c0.00957,0.04853 0.01694,0.09795 0.02203,0.14814c0.02909,0.28718 -0.02062,0.56419 -0.13162,0.80951c0.02772,0.0363 0.04201,0.0582 0.04201,0.0582c0.41301,0.63269 0.90058,1.31222 1.41902,2.02877c0.65118,-1.03381 1.23673,-2.45021 0.42133,-3.03429z" data-paper-data="{&quot;index&quot;:null}" fill="#000000" stroke-width="0.5"/><path d="M258.47208,261.8869l-4.62613,-58.81395l5.51381,-0.4337l4.6261,58.81395z" fill="#000000" stroke-width="0"/><path d="M260.95202,256.10681c2.30867,-0.18159 4.32741,1.54273 4.50901,3.8514c0.18159,2.30867 -1.54273,4.32742 -3.8514,4.50901c-2.30867,0.18159 -4.32743,-1.54274 -4.50902,-3.8514c-0.18159,-2.30867 1.54275,-4.32741 3.85141,-4.509z" fill="#000000" stroke-width="0"/><path d="M255.87047,255.84402l-0.26824,-2.98112l9.7383,-0.87625l0.26824,2.9811z" fill="url(#color-28)" stroke-width="0"/><path d="M255.25054,248.95433l-0.26824,-2.98111l9.7383,-0.87625l0.26823,2.98111z" fill="#000000" stroke-width="0"/><path d="M254.63061,242.06466l-0.26824,-2.9811l9.73829,-0.87626l0.26824,2.98111z" fill="#000000" stroke-width="0"/><path d="M254.01067,235.17498l-0.26823,-2.98111l9.7383,-0.87625l0.26824,2.98111z" fill="#000000" stroke-width="0"/><path d="M253.52323,228.27339l-0.26824,-2.98111l9.7383,-0.87626l0.26824,2.98111z" fill="#000000" stroke-width="0"/><path d="M252.90331,221.3837l-0.26825,-2.98111l9.7383,-0.87626l0.26824,2.98111z" fill="url(#color-29)" stroke-width="0"/><path d="M252.28336,214.49402l-0.26824,-2.98111l9.73829,-0.87625l0.26825,2.98111z" fill="url(#color-30)" stroke-width="0"/></g><path d="M257.12653,205.63419c12.62007,-1.52521 15.59503,6.68713 16.91549,17.84748c-2.34992,0.27816 -4.68946,0.75314 -7.11165,1.56322c-0.99237,0.33189 -4.35596,1.36631 -5.0948,2.02101c-2.11309,1.87243 -1.32457,2.47127 -0.99389,4.6547c0.13381,0.88354 0.83009,2.1771 0.09094,2.6793c-2.64784,1.79903 -3.87181,2.40456 -5.50053,5.39635c-0.27353,1.09331 -1.34666,4.08336 -0.42644,5.31396c0.48492,0.64848 1.48489,0.71725 2.28885,0.81371c1.36593,0.16389 3.01023,-0.67973 4.41386,0.17144c1.76488,1.07022 2.81174,2.01231 5.09423,1.0671c1.6935,-0.70131 2.91743,-1.37994 4.72187,-1.92099c0.34269,-0.10275 0.8172,-0.5101 1.04703,-0.23592c0.60446,0.7211 0.47239,4.30475 1.20219,4.88595c0.09864,0.07855 0.2603,0.14061 0.46427,0.18959c-1.57464,5.0107 -5.19893,8.32835 -12.799,8.95814c-15.93658,1.32063 -16.43169,-10.70621 -17.62254,-25.45361c-1.19085,-14.7474 -3.63615,-25.90337 13.31009,-27.95142z" fill="url(#color-31)" stroke="#000000" stroke-width="0"/></g><g data-paper-data="{&quot;index&quot;:null}" fill="#000000" stroke="none"><path d="M313.49538,149.79868c1.16683,-0.45158 1.61841,0.71526 1.61841,0.71526l0.16597,0.53231c1.01251,1.478 1.59911,3.28405 2.05232,5.13937c0.17367,-0.00693 0.35721,-0.01255 0.55231,-0.01463c0.88394,-0.00947 1.76273,0.13621 2.6441,0.20432c0,0 0.95025,0.07666 1.12488,0.92563c0.17794,0.14059 0.27771,0.28205 0.27771,0.28205l0.36056,0.51125c0.98753,1.41177 1.74176,2.45854 1.66918,3.79784c1.22559,0.1654 2.45119,0.33079 3.67679,0.49619c0,0 1.14651,0.15472 1.0858,1.26908c0.07369,0.06438 0.14096,0.1385 0.19985,0.22201c0.05606,0.0795 0.10155,0.16326 0.13677,0.24964c0.292,0.26549 0.39934,0.62194 0.39934,0.62194l0.38027,1.26284c0.40612,1.35297 1.29127,2.60149 1.36424,4.01221c0.02706,0.52321 -0.12491,1.16454 -0.3551,1.84229c0.57751,0.14801 1.12686,0.37933 1.60242,0.75412c1.88326,1.48422 2.53509,4.15867 2.86621,6.78553c2.23003,0.40381 4.76577,1.90935 4.56522,4.59422c-0.07105,0.95106 -0.81149,1.68992 -1.39558,2.48468c0.15161,0.27924 0.21253,0.66057 -0.04358,1.13737c-0.59205,1.10224 -1.69428,0.51019 -1.69428,0.51019c-0.48991,-0.2758 -0.97982,-0.55162 -1.46974,-0.82744l-0.91412,-1.23811c0,0 -0.01943,-0.02755 -0.04739,-0.0768c-0.02547,-0.02975 -0.04976,-0.06096 -0.07279,-0.09361c-0.12482,-0.17701 -0.19728,-0.3752 -0.22052,-0.57621c-0.61591,-0.25863 -0.71756,-0.99663 -0.71756,-0.99663c-0.1293,-0.93865 -0.20774,-1.9393 -0.30499,-2.94821c-1.21546,-0.61604 -2.44159,-1.21269 -3.62025,-1.8956c-0.94304,-0.54639 -2.22737,-0.78999 -2.77196,-1.73406c-0.43097,-0.74712 0.16914,-1.71718 0.28829,-2.57143c0.0585,-0.41949 0.14783,-0.81936 0.2576,-1.20844c-2.63329,-0.55205 -6.37214,-3.92922 -6.88567,-6.59032c-0.33146,-1.71753 0.28428,-2.30862 0.62955,-3.37355c-0.51048,-0.06889 -1.0104,-0.13636 -1.49302,-0.2015c0,0 -0.14171,-0.01912 -0.32284,-0.09234c-0.31051,0.02235 -0.62375,-0.07163 -0.87214,-0.27025c-0.36461,-0.02351 -0.71577,-0.20574 -0.94273,-0.52757c-0.05402,-0.07659 -0.09823,-0.15717 -0.13289,-0.24022c-0.8744,-0.01746 -1.11713,-0.94683 -1.11713,-0.94683c-0.24006,-0.91917 -0.43144,-1.95504 -0.63935,-3.01722c-1.43614,-0.20606 -2.73439,-0.77346 -3.71977,-2.30196c-0.34643,-0.53737 -0.89791,-1.03028 -0.94749,-1.66772c-0.07359,-0.94616 0.6791,-1.83137 0.62062,-2.77858l0.37237,-0.55424c0.06665,-0.28961 0.23614,-0.55666 0.49811,-0.74142c0.12923,-0.09114 0.26977,-0.15436 0.41445,-0.19089c0.05229,-0.01541 0.10816,-0.02881 0.16676,-0.03862c0.10372,-0.24537 0.31339,-0.48215 0.7108,-0.63594zM313.70474,154.96392c0.37897,0.44173 0.71293,0.73397 1.03877,0.92494c-0.23111,-0.8322 -0.50994,-1.62992 -0.87009,-2.34652c-0.00856,0.05933 -0.01943,0.1184 -0.03306,0.17717c-0.08073,0.34812 -0.59161,0.51194 -0.63032,0.86718c-0.02247,0.20615 0.35967,0.21984 0.4947,0.37723zM319.78026,158.8348c-0.62009,-0.02765 -1.24528,-0.01969 -1.86415,-0.01534c0.15512,0.7271 0.311,1.44131 0.48569,2.12545c0.24171,0.02154 0.47612,0.11291 0.67072,0.26852c0.14691,0.00947 0.29162,0.04472 0.42691,0.10447c0.1442,-0.00844 0.24186,0.00474 0.24186,0.00474l0.4567,0.06164c0.43633,0.05888 0.87266,0.11778 1.30899,0.17666c-0.0813,-0.65892 -0.66287,-1.1855 -1.26031,-2.0245l-0.36055,-0.51124c0,0 -0.05053,-0.07165 -0.10587,-0.19039zM326.87829,165.32156c-0.11728,-0.16631 -0.18832,-0.35135 -0.21576,-0.53983c-1.01237,-0.13663 -2.08449,-0.28132 -3.15924,-0.42636c-0.00704,0.20174 -0.03035,0.40001 -0.09821,0.58876c-0.22256,0.61912 -0.88632,1.21244 -0.70299,1.8443c0.48012,1.65468 3.21938,4.58741 4.97051,4.73547c0.11728,0.00991 0.23728,0.01851 0.35952,0.02643c0.06504,-0.1664 0.12975,-0.33431 0.19333,-0.50442c0.12777,-0.34194 0.50585,-0.62227 0.47629,-0.98611c-0.09594,-1.18098 -0.91564,-2.19022 -1.25819,-3.32449l-0.35655,-1.18407c-0.07716,-0.06614 -0.14745,-0.14283 -0.20871,-0.22968zM332.5612,178.2721c-0.12602,-0.57786 -0.28447,-1.13882 -0.49018,-1.67146c-0.11007,-0.28503 -0.83621,-1.76445 -1.07215,-1.94044c-0.33506,-0.24992 -0.70303,-0.39099 -1.08492,-0.47188c-0.22942,0.54074 -0.43454,1.04348 -0.55883,1.46244c-0.10792,0.36374 -0.70559,0.7258 -0.48102,1.0316c0.34796,0.47382 1.12862,0.34069 1.66518,0.58085c0.68775,0.30784 1.35771,0.65243 2.02192,1.00888zM337.40817,183.6296c0.18414,-0.7725 -0.9013,-1.31513 -1.82732,-1.59497c0.06216,0.6975 0.12354,1.35684 0.20517,1.94948c0,0 0.00282,0.02051 0.0051,0.0566c0.19374,0.08901 0.36728,0.22877 0.499,0.41554c0.02302,0.03265 0.04426,0.06601 0.06374,0.09999c0.037,0.04287 0.05644,0.07043 0.05644,0.07043l0.20648,0.31548c0.34289,-0.40355 0.67175,-0.81061 0.79139,-1.31253z" stroke-width="0.5"/><g stroke-width="0"><path d="M336.59159,189.34706l-26.92088,-38.17261l3.57869,-2.52384l26.92089,38.17262z"/><path d="M311.52888,164.6639l-1.44219,-2.04496l13.80349,-9.73479l1.44218,2.04496z"/><path d="M337.28068,171.50944l1.44219,2.04497l-13.80349,9.73479l-1.44219,-2.04497z" data-paper-data="{&quot;index&quot;:null}"/><path d="M338.62055,178.47481l-7.15886,-14.85462l-11.82998,-12.0707l2.72661,-1.92291l11.7098,11.90029l7.27904,15.02504z"/><path d="M326.47096,187.29838l-11.70979,-11.90029l-7.27904,-15.02504l2.72661,-1.92292l7.39923,15.19546l11.58961,11.72988z" data-paper-data="{&quot;index&quot;:null}"/><path d="M335.14412,189.03598c-1.05674,-1.49842 -0.69869,-3.56979 0.79973,-4.62653c1.49842,-1.05675 3.56979,-0.6987 4.62653,0.79972c1.05674,1.49842 0.6987,3.56978 -0.79972,4.62652c-1.49842,1.05674 -3.56979,0.6987 -4.62653,-0.79972z"/></g></g><g data-paper-data="{&quot;index&quot;:null}"><path d="M285.50805,146.18802c-9.65656,-6.63173 -17.73262,-10.69942 -10.52971,-22.1351c6.52716,-10.36285 14.78321,-4.75121 24.43975,1.88052c9.65654,6.63173 17.32635,12.19369 10.52971,22.13511c-7.14576,10.45208 -14.78321,4.75122 -24.43975,-1.88052z" fill="#525252" stroke="#000000" stroke-width="0"/><path d="M275.29204,121.60377c0.95637,-0.80672 1.76309,0.14965 1.76309,0.14965l0.33016,0.44934c1.43838,1.06805 2.58078,2.58489 3.61311,4.19172c0.16196,-0.06308 0.33368,-0.1281 0.51749,-0.19358c0.83274,-0.2966 1.71111,-0.44486 2.56666,-0.66728c0,0 0.92348,-0.23674 1.36488,0.50918c0.21401,0.07503 0.35438,0.17632 0.35438,0.17632l0.5073,0.36608c1.39321,1.01355 2.44704,1.75788 2.81426,3.0479c1.21271,-0.24245 2.42542,-0.4849 3.63813,-0.72735c0,0 1.13446,-0.22682 1.4397,0.84664c0.09063,0.03689 0.17835,0.08509 0.26121,0.14489c0.07888,0.05691 0.14915,0.12132 0.21057,0.19154c0.3625,0.15602 0.58,0.45812 0.58,0.45812l0.77054,1.07036c0.82432,1.14715 2.0676,2.03965 2.59568,3.34984c0.19587,0.48594 0.26088,1.14179 0.26378,1.85756c0.59425,-0.04799 1.18896,-0.00804 1.7606,0.1916c2.26376,0.79055 3.75045,3.10731 4.91841,5.48341c2.24006,-0.3439 5.12772,0.25448 5.81182,2.85847c0.24233,0.9224 -0.21737,1.86201 -0.51101,2.80358c0.23423,0.21471 0.41593,0.55545 0.32894,1.08964c-0.20113,1.2349 -1.43602,1.03378 -1.43602,1.03378c-0.55301,-0.10136 -1.10601,-0.20274 -1.65902,-0.3041l-1.26728,-0.87322c0,0 -0.02733,-0.01973 -0.0698,-0.05721c-0.03376,-0.01985 -0.06689,-0.04145 -0.0993,-0.06483c-0.17563,-0.12673 -0.30863,-0.29058 -0.39602,-0.47307c-0.66654,-0.04411 -1.00284,-0.70886 -1.00284,-0.70886c-0.42773,-0.84547 -0.82754,-1.76612 -1.24782,-2.68847c-1.34978,-0.18696 -2.70334,-0.3521 -4.04008,-0.61427c-1.06952,-0.20977 -2.36321,-0.02213 -3.1854,-0.73758c-0.65065,-0.56619 -0.39889,-1.67876 -0.56423,-2.52527c-0.08119,-0.41569 -0.12685,-0.82286 -0.14968,-1.22647c-2.6696,0.33495 -7.30397,-1.64165 -8.65555,-3.99077c-0.87234,-1.51618 -0.4825,-2.27548 -0.50257,-3.3948c-0.50512,0.10098 -0.99978,0.19987 -1.47732,0.29535c0,0 -0.14022,0.02803 -0.33533,0.01774c-0.28634,0.12219 -0.6131,0.13527 -0.91261,0.02829c-0.35241,0.09642 -0.74376,0.03837 -1.0631,-0.19207c-0.07602,-0.05485 -0.14404,-0.11665 -0.20384,-0.1839c-0.83249,0.26806 -1.36444,-0.53173 -1.36444,-0.53173c-0.52613,-0.79101 -1.04419,-1.70821 -1.58645,-2.64491c-1.42502,0.27252 -2.83725,0.1585 -4.26641,-0.96613c-0.50245,-0.39538 -1.18432,-0.682 -1.43864,-1.2686c-0.37749,-0.87071 0.04615,-1.95267 -0.3174,-2.82929l0.17173,-0.64525c-0.03123,-0.29554 0.04213,-0.60321 0.22972,-0.86317c0.09254,-0.12823 0.20486,-0.23374 0.32977,-0.31537c0.04442,-0.03159 0.0929,-0.06243 0.14511,-0.09079c0.01822,-0.26577 0.13943,-0.5579 0.46515,-0.83265zM277.17097,126.41971c0.5021,0.29436 0.91297,0.462 1.28323,0.53654c-0.48935,-0.7117 -1.0126,-1.37525 -1.58635,-1.93564c0.01123,0.05889 0.02016,0.11828 0.02639,0.17828c0.03696,0.35543 -0.3928,0.67659 -0.31381,1.02511c0.04584,0.20225 0.41165,0.09084 0.59054,0.19572zM284.17546,128.10275c-0.59532,0.17565 -1.1839,0.38663 -1.76766,0.59215c0.38329,0.63703 0.76312,1.26164 1.15094,1.85169c0.23556,-0.05829 0.48694,-0.04817 0.72159,0.03563c0.14199,-0.03885 0.29029,-0.05262 0.43766,-0.04014c0.1336,-0.05491 0.23023,-0.07424 0.23023,-0.07424l0.4519,-0.09034c0.43175,-0.08632 0.86349,-0.17263 1.29524,-0.25895c-0.29131,-0.5966 -1.01258,-0.90526 -1.85054,-1.50416l-0.50729,-0.36607c0,0 -0.0711,-0.0513 -0.16206,-0.14557zM292.99814,131.92645c-0.16503,-0.11909 -0.29243,-0.27093 -0.37971,-0.44022c-1.00173,0.20027 -2.06258,0.41236 -3.12601,0.62498c0.05899,0.19306 0.10147,0.38811 0.09874,0.58867c-0.00896,0.65785 -0.44351,1.43489 -0.06453,1.97268c0.99248,1.40836 4.53701,3.29002 6.24102,2.86014c0.11411,-0.02878 0.23038,-0.05972 0.34855,-0.09201c0.00734,-0.1785 0.01391,-0.35833 0.01866,-0.53988c0.00953,-0.3649 0.2758,-0.75302 0.12944,-1.08744c-0.47504,-1.08547 -1.57855,-1.77301 -2.27159,-2.73406l-0.72248,-1.00359c-0.09448,-0.03743 -0.18591,-0.08707 -0.27209,-0.14926zM302.58619,142.32266c-0.30722,-0.5054 -0.63961,-0.98427 -1.00745,-1.42096c-0.19685,-0.23369 -1.36488,-1.39627 -1.64526,-1.4859c-0.39815,-0.12728 -0.79202,-0.14092 -1.17944,-0.09312c-0.04095,0.58597 -0.07129,1.1281 -0.05248,1.5647c0.01632,0.37906 -0.43099,0.91591 -0.11912,1.13198c0.48323,0.33479 1.17804,-0.04513 1.76357,0.00734c0.7505,0.06725 1.49612,0.17507 2.24018,0.29596zM306.66589,144.89771c0.28576,0.63931 0.55837,1.24277 0.82842,1.77658c0,0 0.00934,0.01847 0.02325,0.05186c0.21215,0.02112 0.42172,0.09679 0.60706,0.23053c0.0324,0.02337 0.06335,0.04801 0.09282,0.0738c0.04894,0.02849 0.07628,0.04823 0.07628,0.04823l0.29791,0.23111c0.19289,-0.49317 0.37139,-0.9851 0.32117,-1.49863c-0.07728,-0.79038 -1.28022,-0.95022 -2.24691,-0.91348z" fill="#000000" stroke="none" stroke-width="0.5"/><g stroke="none" stroke-width="0"><path d="M310.00131,151.48316l-37.87802,-27.33383l2.56255,-3.55107l37.87802,27.33383z" fill="#000000"/><path d="M278.2702,136.29977l-2.02918,-1.4643l9.8841,-13.69697l2.02919,1.46432z" fill="url(#color-32)"/><path d="M304.84798,134.39228l2.02918,1.46431l-9.88411,13.69696l-2.02918,-1.46432z" data-paper-data="{&quot;index&quot;:null}" fill="url(#color-33)"/><path d="M308.38167,140.54245l-11.60333,-11.71631l-15.1142,-7.56381l1.95242,-2.70557l14.94511,7.44178l11.77242,11.83834z" fill="url(#color-34)"/><path d="M299.76489,152.83957l-14.94511,-7.44178l-11.77243,-11.83834l1.95242,-2.70557l11.94153,11.96035l14.776,7.31975z" data-paper-data="{&quot;index&quot;:null}" fill="url(#color-35)"/><path d="M307.78197,147.02513c1.07297,-1.48685 3.14809,-1.82238 4.63494,-0.74943c1.48685,1.07297 1.82239,3.14809 0.74943,4.63494c-1.07296,1.48685 -3.1481,1.82238 -4.63495,0.74943c-1.48685,-1.07296 -1.82238,-3.14809 -0.74942,-4.63494z" fill="#000000"/></g><path d="M285.50805,146.18802c-9.65656,-6.63173 -17.73262,-10.69942 -10.52971,-22.1351c6.52716,-10.36285 14.78321,-4.75121 24.43975,1.88052c9.65654,6.63173 17.32635,12.19369 10.52971,22.13511c-7.14576,10.45208 -14.78321,4.75122 -24.43975,-1.88052z" fill="url(#color-36)" stroke="#000000" stroke-width="0"/></g><path d="M350.7504,196.18158c0.34866,3.25265 8.93183,22.38436 1.32393,24.31046c-8.03126,2.0333 -8.1747,-14.6795 -9.25932,-14.22299c-0.86714,0.36497 6.85278,15.26083 -0.72163,16.29084c-8.56829,1.16517 -5.20599,-16.0849 -6.32295,-15.80152c-0.91153,0.23127 4.0217,16.96953 -3.28422,15.87799c-4.82397,-0.72072 -5.6825,-9.22814 -5.78028,-15.97444c-0.0531,-3.66299 -5.16093,6.77401 -8.24425,1.31259c-3.50867,-6.21482 7.6785,-13.46742 8.51604,-14.89414c1.76235,-3.00213 6.27122,-4.25974 10.77189,-4.74216c6.63954,-0.71169 12.4602,2.79992 13.00081,7.84338z" data-paper-data="{&quot;index&quot;:null}" fill="url(#color-37)" stroke="#000000" stroke-width="0"/><g><path d="M145.10091,161.07734c6.97274,-9.41329 12.95315,-17.40623 22.49741,-9.73161c7.96873,6.40772 6.29473,11.67361 1.98779,17.93438c-0.87234,0.21813 -1.75737,0.51305 -2.72611,0.90022c0,0 -0.06734,0.02694 -0.16309,0.08406c-0.0969,0.05515 -0.15354,0.10046 -0.15354,0.10046c-1.1367,0.91192 -2.68831,2.39113 -4.17299,2.75952c-1.69008,0.41935 -4.16949,-0.82946 -5.69253,-0.23959c-1.72065,0.66641 -2.04829,3.44322 -3.2,4.5363c-0.8023,0.76146 -1.65527,0.02463 -2.5489,0.40067c-1.06278,0.44722 -1.47076,1.796 -2.36345,2.5258c-0.86744,0.70915 -2.3888,-0.24436 -3.34386,0.34146c-0.42706,0.26196 -0.10895,1.06581 -0.44795,1.43471c-0.67382,0.73325 -1.90205,0.63847 -2.75924,1.14535c-0.44089,0.26453 -0.88178,0.52907 -1.32267,0.7936c-7.31106,-6.80488 -2.12243,-14.16765 4.40913,-22.98533z" fill="#000000" stroke="#000000" stroke-width="0"/><path d="M166.50464,149.13202c0.3974,0.1538 0.60707,0.39057 0.7108,0.63594c0.05859,0.00982 0.11447,0.02321 0.16676,0.03862c0.14468,0.03653 0.28522,0.09975 0.41445,0.19089c0.26198,0.18476 0.43146,0.45181 0.49811,0.74142l0.37237,0.55424c-0.05848,0.94721 0.69421,1.83243 0.62062,2.77858c-0.04958,0.63744 -0.60106,1.13035 -0.94749,1.66772c-0.98538,1.5285 -2.28363,2.0959 -3.71977,2.30196c-0.20792,1.06218 -0.39929,2.09805 -0.63935,3.01722c0,0 -0.24273,0.92937 -1.11713,0.94683c-0.03466,0.08305 -0.07887,0.16362 -0.13289,0.24022c-0.22697,0.32183 -0.57812,0.50406 -0.94273,0.52757c-0.24839,0.19862 -0.56163,0.2926 -0.87214,0.27025c-0.18114,0.07323 -0.32285,0.09234 -0.32285,0.09234c-0.48262,0.06513 -0.98253,0.13261 -1.49301,0.2015c0.34527,1.06493 0.96101,1.65602 0.62955,3.37355c-0.51353,2.6611 -4.25238,6.03827 -6.88567,6.59032c0.10977,0.38907 0.19909,0.78895 0.2576,1.20844c0.11915,0.85425 0.71926,1.82431 0.28829,2.57143c-0.54459,0.94407 -1.82892,1.18767 -2.77196,1.73406c-1.17866,0.68291 -2.4048,1.27956 -3.62026,1.8956c-0.09725,1.00891 -0.17569,2.00956 -0.30499,2.94821c0,0 -0.10165,0.738 -0.71756,0.99663c-0.02325,0.20101 -0.0957,0.3992 -0.22052,0.57621c-0.02302,0.03265 -0.04732,0.06386 -0.07278,0.09361c-0.02796,0.04925 -0.04739,0.0768 -0.04739,0.0768l-0.91412,1.23811c-0.48991,0.27581 -0.97982,0.55163 -1.46974,0.82744c0,0 -1.10223,0.59205 -1.69428,-0.51019c-0.2561,-0.4768 -0.19518,-0.85814 -0.04358,-1.13737c-0.58408,-0.79476 -1.32452,-1.53362 -1.39558,-2.48468c-0.20055,-2.68487 2.33519,-4.19041 4.56522,-4.59422c0.33112,-2.62686 0.98295,-5.30131 2.86621,-6.78553c0.47556,-0.37479 1.02491,-0.60611 1.60242,-0.75412c-0.23019,-0.67775 -0.38216,-1.31908 -0.3551,-1.84229c0.07297,-1.41072 0.95812,-2.65924 1.36424,-4.01221l0.38027,-1.26284c0,0 0.10734,-0.35645 0.39934,-0.62194c0.03522,-0.08638 0.0807,-0.17014 0.13677,-0.24964c0.05889,-0.08352 0.12616,-0.15763 0.19985,-0.22201c-0.06071,-1.11436 1.0858,-1.26908 1.0858,-1.26908c1.22559,-0.1654 2.45119,-0.33079 3.67679,-0.49619c-0.07258,-1.3393 0.68166,-2.38607 1.66918,-3.79784l0.36056,-0.51125c0,0 0.09976,-0.14146 0.2777,-0.28205c0.17463,-0.84897 1.12489,-0.92563 1.12489,-0.92563c0.88137,-0.06811 1.76016,-0.21378 2.6441,-0.20432c0.1951,0.00208 0.37864,0.0077 0.55231,0.01463c0.45322,-1.85532 1.03982,-3.66137 2.05232,-5.13937l0.16596,-0.53231c0,0 0.45158,-1.16684 1.61841,-0.71526zM166.29529,154.29725c0.13503,-0.15739 0.51716,-0.17108 0.4947,-0.37723c-0.03871,-0.35524 -0.5496,-0.51906 -0.63032,-0.86718c-0.01363,-0.05876 -0.02451,-0.11784 -0.03306,-0.17717c-0.36015,0.7166 -0.63898,1.51432 -0.87009,2.34652c0.32584,-0.19097 0.6598,-0.4832 1.03877,-0.92494zM160.21976,158.16813c-0.05534,0.11874 -0.10587,0.19039 -0.10587,0.19039l-0.36055,0.51124c-0.59744,0.839 -1.179,1.36559 -1.26031,2.0245c0.43634,-0.05888 0.87267,-0.11778 1.309,-0.17666l0.4567,-0.06164c0,0 0.09766,-0.01318 0.24186,-0.00474c0.13529,-0.05974 0.28,-0.095 0.42691,-0.10447c0.1946,-0.15561 0.429,-0.24698 0.67072,-0.26852c0.1747,-0.68414 0.33057,-1.39835 0.48569,-2.12545c-0.61887,-0.00435 -1.24407,-0.01231 -1.86415,0.01534zM153.12172,164.65489c-0.06125,0.08685 -0.13154,0.16354 -0.20871,0.22968l-0.35655,1.18407c-0.34256,1.13428 -1.16225,2.14351 -1.25819,3.32449c-0.02955,0.36384 0.34852,0.64417 0.47629,0.98611c0.06357,0.17012 0.1283,0.33802 0.19333,0.50442c0.12224,-0.00792 0.24224,-0.01652 0.35952,-0.02643c1.75114,-0.14806 4.49039,-3.08079 4.97051,-4.73547c0.18333,-0.63186 -0.48043,-1.22518 -0.70299,-1.8443c-0.06786,-0.18875 -0.09116,-0.38702 -0.09821,-0.58876c-1.07475,0.14504 -2.14686,0.28973 -3.15923,0.42636c-0.02745,0.18848 -0.09848,0.37352 -0.21577,0.53983zM149.46073,176.59655c0.53656,-0.24016 1.31722,-0.10703 1.66518,-0.58085c0.22457,-0.3058 -0.3731,-0.66786 -0.48102,-1.0316c-0.12429,-0.41896 -0.32941,-0.9217 -0.55883,-1.46244c-0.38189,0.08088 -0.74987,0.22195 -1.08492,0.47188c-0.23594,0.17598 -0.96207,1.65541 -1.07215,1.94044c-0.2057,0.53263 -0.36416,1.0936 -0.49018,1.67146c0.66422,-0.35645 1.33417,-0.70105 2.02192,-1.00888zM142.59185,182.96294c0.11964,0.50192 0.4485,0.90899 0.79139,1.31253l0.20648,-0.31548c0,0 0.01943,-0.02756 0.05644,-0.07043c0.01948,-0.03397 0.04072,-0.06734 0.06374,-0.09999c0.13172,-0.18677 0.30526,-0.32653 0.499,-0.41554c0.00229,-0.03609 0.0051,-0.0566 0.0051,-0.0566c0.08164,-0.59263 0.14302,-1.25198 0.20517,-1.94948c-0.92602,0.27984 -2.01146,0.82247 -1.82732,1.59497z" fill="#000000" stroke="none" stroke-width="0.5"/><g stroke="none" stroke-width="0"><path d="M139.82975,186.15656l26.92089,-38.17262l3.57869,2.52384l-26.92088,38.17261z" fill="#000000"/><path d="M154.66765,154.26244l1.44218,-2.04496l13.80349,9.73479l-1.44219,2.04496z" fill="url(#color-38)"/><path d="M156.52283,180.57756l-1.44219,2.04497l-13.80349,-9.73479l1.44219,-2.04497z" data-paper-data="{&quot;index&quot;:null}" fill="#000000"/><path d="M138.65285,175.88523l7.27904,-15.02504l11.7098,-11.90029l2.72661,1.92291l-11.82998,12.0707l-7.15886,14.85462z" fill="#000000"/><path d="M150.80244,184.7088l11.58962,-11.72988l7.39923,-15.19546l2.72661,1.92292l-7.27904,15.02504l-11.70979,11.90029z" data-paper-data="{&quot;index&quot;:null}" fill="#000000"/><path d="M144.85591,188.36931c-1.05674,1.49842 -3.12811,1.85646 -4.62653,0.79972c-1.49842,-1.05674 -1.85646,-3.1281 -0.79972,-4.62652c1.05674,-1.49842 3.12811,-1.85647 4.62653,-0.79972c1.49842,1.05674 1.85646,3.12811 0.79972,4.62653z" fill="#000000"/></g><path d="M145.10091,161.07734c6.97274,-9.41329 12.95315,-17.40623 22.49741,-9.73161c8.81832,7.09089 5.82817,12.78348 0.52893,19.9734c-1.0057,-0.3956 -1.89934,-0.73799 -2.00325,-0.74707c-2.79212,-0.24399 -6.40336,1.47989 -9.16303,2.03344c-0.08014,0.01608 -3.02448,0.74006 -3.65049,0.52697c-2.11185,-0.71884 -3.39681,-3.06424 -5.95276,-2.33838c-1.39188,0.39528 -6.13616,2.59004 -7.01663,3.77488c-0.7935,1.06779 0.2109,3.15727 -0.90074,3.88808c-0.59046,0.38818 -1.28218,0.53616 -1.9951,0.63959c-1.51845,-5.42627 2.67875,-11.30041 7.65566,-18.0193z" fill="url(#color-39)" stroke="#000000" stroke-width="0"/></g><g><path d="M194.49198,145.52136c-9.65654,6.63173 -17.29399,12.33259 -24.43975,1.88052c-6.79664,-9.94142 0.87317,-15.50338 10.52971,-22.1351c9.65654,-6.63173 17.91259,-12.24338 24.43975,-1.88052c7.2029,11.43569 -0.87315,15.50337 -10.52971,22.1351z" fill="#525252" stroke="#000000" stroke-width="0"/><path d="M204.70794,120.93711c0.32573,0.27475 0.44693,0.56687 0.46515,0.83265c0.05221,0.02836 0.10069,0.0592 0.14511,0.09079c0.12491,0.08163 0.23722,0.18713 0.32977,0.31537c0.18759,0.25996 0.26094,0.56763 0.22972,0.86316l0.17173,0.64525c-0.36355,0.87662 0.06009,1.95858 -0.3174,2.82929c-0.25432,0.5866 -0.93619,0.87322 -1.43865,1.2686c-1.42917,1.12462 -2.84139,1.23865 -4.26641,0.96613c-0.54226,0.9367 -1.06032,1.8539 -1.58645,2.64491c0,0 -0.53196,0.79979 -1.36444,0.53173c-0.0598,0.06725 -0.12782,0.12905 -0.20383,0.1839c-0.31934,0.23045 -0.71069,0.28849 -1.0631,0.19207c-0.29951,0.10698 -0.62627,0.0939 -0.91261,-0.02829c-0.19511,0.01029 -0.33533,-0.01774 -0.33533,-0.01774c-0.47754,-0.09547 -0.9722,-0.19437 -1.47732,-0.29535c-0.02007,1.11933 0.36977,1.87862 -0.50257,3.3948c-1.35158,2.34912 -5.98595,4.32572 -8.65555,3.99077c-0.02283,0.40362 -0.06849,0.81078 -0.14968,1.22647c-0.16534,0.84652 0.08643,1.95908 -0.56422,2.52527c-0.82218,0.71545 -2.11587,0.52782 -3.18539,0.73758c-1.33674,0.26217 -2.6903,0.42731 -4.04008,0.61427c-0.42029,0.92235 -0.82009,1.843 -1.24782,2.68847c0,0 -0.3363,0.66475 -1.00284,0.70886c-0.08739,0.18249 -0.22039,0.34634 -0.39602,0.47307c-0.0324,0.02337 -0.06554,0.04498 -0.0993,0.06483c-0.04247,0.03747 -0.0698,0.05721 -0.0698,0.05721l-1.26728,0.87322c-0.55301,0.10136 -1.10601,0.20274 -1.65902,0.3041c0,0 -1.23489,0.20112 -1.43603,-1.03378c-0.087,-0.5342 0.09471,-0.87494 0.32894,-1.08964c-0.29364,-0.94158 -0.75334,-1.88118 -0.51101,-2.80358c0.6841,-2.60399 3.57176,-3.20237 5.81182,-2.85847c1.16796,-2.3761 2.65465,-4.69286 4.91841,-5.48341c0.57164,-0.19963 1.16635,-0.23958 1.7606,-0.1916c0.0029,-0.71578 0.06791,-1.37163 0.26378,-1.85756c0.52809,-1.31019 1.77137,-2.20269 2.59568,-3.34984l0.77054,-1.07036c0,0 0.2175,-0.3021 0.58,-0.45812c0.06142,-0.07022 0.13169,-0.13463 0.21057,-0.19154c0.08286,-0.0598 0.17059,-0.108 0.26121,-0.14489c0.30524,-1.07346 1.4397,-0.84664 1.4397,-0.84664c1.2127,0.24245 2.42542,0.4849 3.63813,0.72735c0.36722,-1.29001 1.42105,-2.03435 2.81427,-3.0479l0.5073,-0.36608c0,0 0.14037,-0.10129 0.35438,-0.17632c0.44141,-0.74592 1.36488,-0.50918 1.36488,-0.50918c0.85555,0.22243 1.73391,0.37068 2.56666,0.66728c0.18381,0.06548 0.35553,0.1305 0.51749,0.19358c1.03233,-1.60683 2.17473,-3.12367 3.61311,-4.19172l0.33016,-0.44934c0,0 0.80672,-0.95637 1.76309,-0.14965zM202.82906,125.75306c0.1789,-0.10488 0.54469,0.00653 0.59054,-0.19572c0.07899,-0.34852 -0.35077,-0.66967 -0.31381,-1.02511c0.00624,-0.06 0.01516,-0.11939 0.02639,-0.17828c-0.57375,0.56039 -1.09699,1.22394 -1.58634,1.93564c0.37025,-0.07453 0.78112,-0.24218 1.28323,-0.53654zM195.82455,127.43607c-0.09097,0.09426 -0.16206,0.14557 -0.16206,0.14557l-0.50729,0.36608c-0.83796,0.5989 -1.55923,0.90756 -1.85054,1.50416c0.43175,0.08632 0.86349,0.17263 1.29524,0.25895l0.4519,0.09034c0,0 0.09663,0.01933 0.23023,0.07424c0.14738,-0.01247 0.29567,0.00129 0.43766,0.04014c0.23465,-0.0838 0.48603,-0.09392 0.72159,-0.03563c0.38782,-0.59005 0.76765,-1.21466 1.15094,-1.85169c-0.58376,-0.20552 -1.17235,-0.4165 -1.76766,-0.59215zM187.00189,131.2598c-0.08617,0.06219 -0.1776,0.11183 -0.27209,0.14926l-0.72248,1.00359c-0.69304,0.96105 -1.79655,1.6486 -2.2716,2.73406c-0.14636,0.33442 0.11991,0.72253 0.12945,1.08744c0.00475,0.18154 0.01132,0.36138 0.01866,0.53988c0.11817,0.03229 0.23443,0.06323 0.34855,0.09201c1.704,0.42988 5.24854,-1.45179 6.24102,-2.86014c0.37898,-0.53779 -0.05557,-1.31483 -0.06453,-1.97268c-0.00273,-0.20056 0.03975,-0.39561 0.09874,-0.58867c-1.06344,-0.21261 -2.12428,-0.42471 -3.12601,-0.62498c-0.08728,0.1693 -0.21467,0.32114 -0.37971,0.44022zM179.654,141.36003c0.58552,-0.05247 1.28034,0.32745 1.76357,-0.00734c0.31187,-0.21607 -0.13544,-0.75292 -0.11912,-1.13198c0.01881,-0.4366 -0.01153,-0.97872 -0.05249,-1.5647c-0.38742,-0.0478 -0.78128,-0.03416 -1.17944,0.09312c-0.28037,0.08963 -1.44841,1.25221 -1.64526,1.4859c-0.36784,0.43669 -0.70023,0.91556 -1.00745,1.42096c0.74407,-0.12089 1.48969,-0.22871 2.24018,-0.29596zM171.0872,145.14452c-0.05022,0.51353 0.12828,1.00546 0.32117,1.49863l0.29791,-0.23111c0,0 0.02734,-0.01973 0.07628,-0.04823c0.02947,-0.02579 0.06043,-0.05043 0.09282,-0.0738c0.18534,-0.13374 0.3949,-0.20941 0.60706,-0.23053c0.0139,-0.03339 0.02325,-0.05186 0.02325,-0.05186c0.27006,-0.53381 0.54266,-1.13727 0.82843,-1.77658c-0.96669,-0.03674 -2.16963,0.1231 -2.24691,0.91348z" fill="#000000" stroke="none" stroke-width="0.5"/><g stroke="none" stroke-width="0"><path d="M167.43615,147.26543l37.87802,-27.33383l2.56255,3.55107l-37.87802,27.33384z" fill="#000000"/><path d="M191.84569,121.93615l2.02919,-1.46432l9.88411,13.69697l-2.02918,1.4643z" fill="url(#color-40)"/><path d="M185.03615,147.42257l-2.02918,1.46432l-9.88411,-13.69696l2.02918,-1.46431z" data-paper-data="{&quot;index&quot;:null}" fill="url(#color-41)"/><path d="M169.66594,137.17021l11.77242,-11.83833l14.94511,-7.44178l1.95242,2.70557l-15.1142,7.56381l-11.60333,11.71631z" fill="url(#color-42)"/><path d="M178.28272,149.46732l14.776,-7.31975l11.94153,-11.96035l1.95242,2.70557l-11.77243,11.83834l-14.94511,7.44178z" data-paper-data="{&quot;index&quot;:null}" fill="url(#color-43)"/><path d="M171.46863,150.9934c-1.48685,1.07296 -3.56198,0.73743 -4.63495,-0.74943c-1.07296,-1.48685 -0.73742,-3.56197 0.74944,-4.63494c1.48685,-1.07296 3.56197,-0.73743 4.63494,0.74943c1.07296,1.48685 0.73743,3.56198 -0.74943,4.63494z" fill="#000000"/></g><path d="M194.49198,145.52136c-9.65654,6.63173 -17.29399,12.33259 -24.43975,1.88052c-6.79664,-9.94142 0.87317,-15.50338 10.52971,-22.1351c9.65654,-6.63173 17.91259,-12.24338 24.43975,-1.88052c7.2029,11.43569 -0.87315,15.50337 -10.52971,22.1351zM183.74091,131.34094c0.00173,0.06904 0.00877,0.15269 0.01859,0.24761l-0.0136,0.30664c-0.0033,0.03704 -0.00499,0.07453 -0.00499,0.11242c0,0.15798 0.02931,0.30913 0.08279,0.44828c0.00797,0.02345 0.01669,0.04726 0.02627,0.07128c0.03561,0.68973 -0.03665,1.44631 -0.57912,1.792c-1.59946,1.01927 -4.45642,1.179 -3.06464,4.24745c0.97105,2.14086 4.73262,2.79965 6.73856,2.32422c0.75171,-0.17817 1.46781,-0.7869 2.22675,-0.64259c0.55943,0.10638 4.28735,1.25868 4.83811,0.80472c2.50003,-2.06063 -0.72909,-7.35806 0.45492,-10.19995c1.21619,-2.55083 1.10207,-3.2926 -1.19109,-4.59982c-0.53943,-0.30751 -0.84232,-1.14181 -1.46314,-1.15289c-0.84699,-0.01511 -1.50898,0.77684 -2.29775,1.08579c-2.24922,0.88098 -3.9971,1.86532 -5.67649,3.6765l-0.05172,1.16592c-0.04343,0.17934 -0.04344,0.31243 -0.04344,0.31243z" fill="url(#color-44)" stroke="#000000" stroke-width="0"/><path d="M183.69569,131.31963c0,0 0.00162,-0.13621 0.04505,-0.31555l0.05787,-1.17458c1.67939,-1.81118 3.47845,-2.8105 5.72767,-3.69148c0.78877,-0.30895 1.46056,-1.09695 2.30755,-1.08183c0.62082,0.01108 0.93224,0.85113 1.47168,1.15864c2.29316,1.30722 2.42274,2.07178 1.20655,4.62261c-1.18401,2.84189 2.02925,8.19364 -0.47078,10.25427c-0.55076,0.45396 -4.29911,-0.68833 -4.85854,-0.79471c-0.75894,-0.14431 -1.49003,0.46555 -2.24174,0.64372c-2.00594,0.47543 -5.80388,-0.20342 -6.77493,-2.34428c-1.39178,-3.06845 1.45717,-3.24453 3.05663,-4.2638c0.54247,-0.34569 0.61354,-1.12378 0.57793,-1.81351c-0.00958,-0.02402 -0.01815,-0.0487 -0.02612,-0.07215c-0.05348,-0.13915 -0.08154,-0.29555 -0.08154,-0.45353c0,-0.03789 0.00209,-0.07669 0.00539,-0.11373l0.01485,-0.31005c-0.00982,-0.09492 -0.01579,-0.18099 -0.01752,-0.25003z" data-paper-data="{&quot;noHover&quot;:false,&quot;origItem&quot;:[&quot;Path&quot;,{&quot;applyMatrix&quot;:true,&quot;segments&quot;:[[[367.48181,262.68188],[0,0],[0.00346,0.13808]],[[367.51899,263.1771],[-0.01964,-0.18984],[0,0]],[[367.49179,263.79038],[0,0],[-0.0066,0.07408]],[[367.48181,264.01522],[0,-0.07578],[0,0.31596]],[[367.64739,264.91178],[-0.10696,-0.2783],[0.01594,0.0469]],[[367.69993,265.05434],[-0.01916,-0.04804],[0.07122,1.37946]],[[366.54169,268.63834],[1.08494,-0.69138],[-3.19892,2.03854]],[[360.41241,277.13324],[-2.78356,-6.1369],[1.9421,4.28172]],[[373.88953,281.78168],[-4.01188,0.95086],[1.50342,-0.35634]],[[378.34303,280.4965],[-1.51788,-0.28862],[1.11886,0.21276]],[[388.01925,282.10594],[-1.10152,0.90792],[5.00006,-4.12126]],[[388.92909,261.70604],[-2.36802,5.68378],[2.43238,-5.10166]],[[386.54691,252.5064],[4.58632,2.61444],[-1.07886,-0.61502]],[[383.62063,250.20062],[1.24164,0.02216],[-1.69398,-0.03022]],[[379.02513,252.3722],[1.57754,-0.6179],[-4.49844,1.76196]],[[367.67215,259.7252],[3.35878,-3.62236],[0,0]],[[367.56871,262.05704],[0,0],[-0.08686,0.35868]],[367.48183,262.6819]],&quot;closed&quot;:true,&quot;fillColor&quot;:[0,0,0,1]}]}" fill="#000000" stroke="none" stroke-width="0.5"/></g><path d="M129.24961,195.51492c0.54061,-5.04346 6.36127,-8.55507 13.00082,-7.84338c4.50067,0.48243 9.00953,1.74004 10.77189,4.74217c0.83754,1.42672 12.02471,8.67932 8.51604,14.89414c-3.08332,5.46142 -8.19115,-4.97558 -8.24425,-1.31259c-0.09778,6.74631 -0.95632,15.25372 -5.78029,15.97444c-7.30593,1.09153 -2.3727,-15.64673 -3.28422,-15.87799c-1.11695,-0.28338 2.24535,16.96669 -6.32295,15.80152c-7.57441,-1.03001 0.14551,-15.92587 -0.72163,-16.29084c-1.08462,-0.45651 -1.22806,16.25629 -9.25932,14.22299c-7.6079,-1.9261 0.97527,-21.05781 1.32393,-24.31046z" fill="url(#color-45)" stroke="#000000" stroke-width="0"/><g><path d="M276.13124,155.52968c4.93516,27.48329 -16.75574,49.7629 -37.42498,49.7629c-20.66925,0 -42.36014,-27.21478 -37.42498,-49.7629c5.87624,-26.84774 5.24036,-49.76289 37.42499,-49.76289c33.82968,0 32.56751,22.71228 37.42498,49.76289z" fill="#000000" stroke="#000000" stroke-width="0"/><g stroke="none"><path d="M255.21315,204.65192c-1.3986,0 -1.3986,-1.3986 -1.3986,-1.3986v-0.2331c0.00209,-1.61218 0.21552,-3.61314 -0.52926,-5.15915c-0.60074,-1.24702 -2.55824,-1.23308 -3.54955,-2.30688c-0.20087,-0.21759 -1.687,-3.26483 -1.73317,-3.51485c-0.07626,-0.41308 0.41962,-0.8391 0.26888,-1.23118c-0.20724,-0.539 -0.8874,-0.75893 -1.21648,-1.23347c-0.39787,-0.57372 -0.62517,-1.24862 -0.93775,-1.87292c-0.81667,-0.97536 -2.22634,-1.54055 -2.66017,-2.73641c-0.79039,-2.17871 0.02523,-6.23705 0.10143,-8.55043c0.02132,-0.64702 0.18379,-1.88025 -0.28431,-2.53731c-1.41748,-1.98963 -3.89634,-3.26441 -4.58419,-5.7823c-0.58677,-2.14785 1.11924,-3.91599 2.04671,-5.43758c0.84186,-1.38113 0.57661,-3.58292 -0.06781,-4.9463c-0.38869,-0.82235 -0.77216,-1.26072 -1.245,-1.62439c-0.31912,2.68613 -0.60129,5.62276 -1.57061,7.8507c-0.76961,1.76892 -3.18355,3.75427 -4.59729,4.96581c-0.44505,0.38139 -1.68067,0.87054 -1.94998,1.60706c-1.15151,3.14915 0.98766,3.67183 1.50705,6.61894c0.55758,3.16377 -3.21903,7.84865 -5.50984,9.77743c-0.15104,0.77143 0.76059,1.38386 1.02261,2.12499c0.37534,1.06167 0.47157,3.15535 -0.02571,4.267c-1.18421,2.64725 -4.20085,3.85344 -5.06142,6.78853c-0.10711,0.36533 0.24941,2.43782 0.25871,2.5018l0.22,1.089c0,0 0.27429,1.37144 -1.09715,1.64574c-1.37144,0.27429 -1.64574,-1.09715 -1.64574,-1.09715l-0.24621,-1.242c-0.46411,-3.29615 0.22298,-5.44478 2.42587,-8.10719c0.78306,-0.94642 2.02289,-1.54524 2.56165,-2.64917c0.85783,-1.7577 -0.96663,-2.86474 -1.24499,-4.31962c-0.1486,-0.77665 0.25138,-1.56136 0.37708,-2.34203c1.87492,-1.79943 4.14424,-4.53808 5.25038,-6.96137c0.67041,-1.46872 -1.51595,-3.24637 -1.8581,-4.2961c-0.36889,-1.13174 0.15486,-4.087 0.53036,-4.98028c1.16983,-2.78287 5.37087,-3.64325 6.50638,-6.48079c0.70277,-1.75617 1.00088,-3.91577 1.25169,-6.03032c-1.84785,0.25625 -3.73466,-0.32588 -5.42858,-2.1494c-0.58589,-0.63072 -1.10158,-1.32999 -1.55627,-2.06096c-0.22337,-0.35909 -0.1382,-0.90868 -0.46093,-1.18197c-0.57044,-0.48308 -1.44315,0.39066 -2.16104,0.59902c-1.42892,0.41474 -3.35296,1.35472 -4.87031,1.21131c-3.38692,-0.32011 -3.74529,-2.35233 -4.70661,-5.07226c-0.20395,-0.57702 -0.68332,-1.06096 -0.76989,-1.66681c-0.10612,-0.74271 0.55369,-3.65972 0.68458,-4.30496c-0.00393,-0.99012 0.43365,-2.02468 0.13123,-2.96749c-0.22792,-0.71055 -1.35011,-0.64071 -1.99284,-1.01982c-0.90895,-0.53613 -2.74579,-1.74814 -3.14157,-2.76198c-0.55175,-1.41338 -0.01577,-3.50956 1.0285,-4.56813c0.4537,-0.45992 1.25046,-0.41366 1.76092,-0.80966c2.32802,-1.80603 3.73756,-5.94979 -0.42692,-6.78529c-1.02317,-0.20526 -2.09036,-0.06311 -3.12373,-0.2086c0,0 -1.38456,-0.19779 -1.18676,-1.58234c0.1978,-1.38455 1.58235,-1.18676 1.58235,-1.18676c1.11513,0.16191 2.27763,-0.01798 3.37081,0.2553c3.53831,0.88458 6.15005,4.86867 4.38644,8.29215c-0.30739,0.59669 -2.84547,3.38906 -2.95779,3.47835c-0.46234,0.36757 -2.52196,0.68992 -1.84953,2.04453c0.91528,1.84384 4.15459,1.62817 5.07127,3.64052c0.18453,0.40509 0.13334,3.83884 0.13123,4.45485c-0.2356,1.19377 -0.9132,2.38204 -0.7071,3.58126c0.07216,0.41985 0.48023,0.71476 0.62179,1.11655c0.26846,0.76202 0.28695,1.60336 0.59902,2.34859c0.44018,1.05112 1.7715,0.97401 2.62824,0.73632c1.94082,-0.53847 5.31226,-2.38283 7.30173,-1.24399c0.72092,0.4127 0.91572,1.38656 1.39466,2.06529c1.16669,1.65339 3.00869,3.47123 4.97603,3.05643c0.05933,-0.42633 0.1236,-0.84169 0.19632,-1.24165c0,0 0.07378,-0.40583 0.3616,-0.73663l-0.85005,-0.6097c0,0 -1.09213,-0.8737 -0.21843,-1.96583c0.8737,-1.09213 1.96583,-0.21842 1.96583,-0.21842l1.43328,1.21995c0.09179,0.3462 0.23109,0.62656 0.40926,0.84994l0.35708,-0.44775c0.10775,-0.13757 0.2407,-0.25445 0.39191,-0.34369c0.3534,-0.22697 0.9202,-0.40516 1.56474,0.09838c0.01119,0.00865 0.02224,0.01747 0.03315,0.02644c0.53836,0.43858 0.58666,0.93053 0.50174,1.3111c1.79933,-0.33223 3.85432,-1.40128 4.91719,-1.93212c0.5712,-0.28528 1.00601,-0.79207 1.55365,-1.1203c0.62442,-0.37426 1.29818,-0.65938 1.9515,-0.98054c0.59709,-0.29352 2.91485,-1.35685 2.3179,-2.47021c-0.5446,-1.01574 -1.61633,-1.66205 -2.25297,-2.62278c-0.78595,-2.43503 -1.20616,-7.77598 1.13446,-9.6353c1.31983,-1.04843 2.85485,-0.31921 4.1284,-1.82128c1.56733,-1.84857 -0.39621,-4.17752 0.26449,-6.15254c0.21519,-0.64325 1.00838,-0.90937 1.47649,-1.40024c2.62829,-2.756 6.07412,-2.75446 9.39951,-4.4272c0,0 1.25095,-0.62547 1.87643,0.62548c0.62548,1.25095 -0.62548,1.87642 -0.62548,1.87642c-1.64992,0.82058 -3.37218,1.4843 -5.15924,1.962c-0.84022,0.2246 -1.77733,0.10506 -2.51668,0.69186c-0.42454,0.33693 -0.61908,0.90053 -1.01648,1.26906c-0.23417,0.21716 -0.74281,0.1521 -0.84298,0.45535c-0.28765,0.87083 0.57723,1.77534 0.56643,2.69238c-0.01747,1.48296 -0.27026,2.94811 -1.22971,4.14414c-0.70856,0.88327 -2.34262,1.98505 -3.46274,2.32222c-0.39045,0.11754 -0.85518,-0.1447 -1.22289,0.03156c-0.19727,0.09456 -0.14274,0.41728 -0.16696,0.6347c-0.19005,1.70665 -0.67204,3.86047 -0.09027,5.50242c0.705,1.04809 2.03554,1.7304 2.38599,2.94395c1.41116,4.88673 -6.61935,7.58285 -9.81623,8.92906c-1.41431,0.59557 -3.10527,1.20852 -4.67713,1.30961c2.15794,2.54432 2.98616,5.97683 1.21948,9.23039c-0.48266,0.88886 -2.1089,2.05478 -1.6829,3.42026c0.85474,2.73973 4.3811,3.64148 4.90375,6.80748c0.37799,2.28975 -0.09311,4.94432 -0.21511,7.25061c-0.03832,0.72439 -0.3629,1.48466 -0.13169,2.17222c0.14447,0.42964 0.7955,0.45432 1.12101,0.76977c0.5047,0.48911 0.89804,1.08136 1.34705,1.62204c0.68876,1.37944 1.95419,2.44763 2.50779,3.88665c0.18892,0.49105 -0.27294,1.04536 -0.19733,1.56605c0.1119,0.77058 0.55647,1.48909 1.06405,2.07957c0.79032,0.91939 1.5734,0.44191 2.54867,1.17697c2.48985,1.8766 2.22706,5.43368 2.23035,8.14028v0.2331c0,0 0,1.3986 -1.3986,1.3986z" fill="#000000" stroke-width="0.5"/><path d="M241.5246,70.85583c0.23226,-0.19484 1.07374,-0.78534 1.91523,0.05613c0.98897,0.98896 0,1.97794 0,1.97794l-1.33862,0.75929c-0.40924,-0.0035 -0.81848,-0.00698 -1.22771,-0.01048c-1.28978,0.09752 -1.57427,2.01667 -1.5695,3.15734c0.00865,2.06863 0.59332,4.08603 1.83391,5.8256c1.33943,1.87816 2.39539,1.87347 2.70475,4.52613c0.13795,1.18287 -0.15607,2.38184 -0.36893,3.55354c-0.6243,3.43648 -0.95029,6.60321 -1.92658,9.95949c-0.28755,0.98851 -0.2033,2.09431 -0.65941,3.01723c-0.98027,1.98354 -3.51626,3.73381 -4.78439,5.67008c0.02823,1.01236 0.03866,3.54193 0.34181,4.4353c1.8499,5.45145 8.68258,11.09021 7.02609,17.48982c-0.27609,1.06662 -0.69891,2.12012 -1.31936,3.03059c-0.83506,1.22538 -2.39236,1.78454 -3.38613,2.88512c-0.93382,1.0342 -2.08214,2.62433 -2.26646,4.08738c-0.2792,2.21624 1.24256,4.53769 3.50399,4.40106c0,0 1.3986,0.00001 1.3986,1.39861c0,1.3986 -1.3986,1.39861 -1.3986,1.39861c-3.8888,-0.12938 -6.75199,-3.4435 -6.28626,-7.48709c0.24557,-2.13195 1.59901,-4.12458 2.96964,-5.66989c1.56678,-1.76645 3.47612,-2.19545 4.04447,-4.6068c0.69126,-2.93286 -1.58133,-6.17914 -2.84209,-8.58434c-1.21569,-2.31923 -3.27993,-4.99209 -4.09628,-7.45459c-0.59314,-1.7892 -0.40735,-4.2526 -0.37909,-6.09204c0.57215,-0.94587 1.05732,-1.95015 1.71644,-2.83761c0.93743,-1.2622 2.62216,-1.95681 3.28941,-3.38045c0.35466,-0.7567 0.21307,-1.66364 0.43775,-2.46856c0.69927,-2.5052 1.16326,-4.59936 1.50745,-7.19462c0.21821,-1.64532 1.36731,-4.81282 0.50333,-6.50132c-0.42302,-0.82671 -1.45922,-1.18469 -1.9994,-1.94007c-0.86588,-1.21082 -2.06987,-3.66453 -2.33667,-5.09877c-0.40786,-2.19258 -0.04353,-6.1161 1.89684,-7.64918c0.57542,-0.45464 1.40191,-0.43121 2.10287,-0.64681c0.33096,-0.00221 0.66191,-0.00441 0.99287,-0.00662z" fill="#000000" stroke-width="0.5"/><path d="M237.90102,119.76176v-51.01819h5.20594v51.01819z" fill="#000000" stroke-width="0"/><path d="M235.11961,200.23421v-42.9322h9.7418v42.9322z" fill="url(#color-46)" stroke-width="0"/><path d="M231.87235,157.40637v-14.84464h15.77243v14.84464z" fill="url(#color-47)" stroke-width="0"/><path d="M248.78678,154.99342v-34.49437h4.19582v34.49437z" data-paper-data="{&quot;index&quot;:null}" fill="url(#color-48)" stroke-width="0"/><path d="M226.53714,155.93851v-34.95827h4.19582v34.95827z" data-paper-data="{&quot;index&quot;:null}" fill="url(#color-49)" stroke-width="0"/><path d="M226.87425,159.06419v-4.54546h25.70103v4.54546z" fill="url(#color-50)" stroke-width="0"/><path d="M247.37407,156.68597l13.84378,-37.66322l4.78955,1.76047l-13.84378,37.66324z" fill="url(#color-51)" stroke-width="0"/><path d="M226.90692,158.69571l-13.84378,-37.66323l4.78954,-1.76049l13.84379,37.66323z" data-paper-data="{&quot;index&quot;:null}" fill="url(#color-52)" stroke-width="0"/><path d="M208.30115,123.32697v-4.54547h63.97237v4.54547z" fill="#000000" stroke-width="0"/><path d="M211.46097,121.35015c0,2.04963 -1.66154,3.71116 -3.71115,3.71116c-2.04962,0 -3.71117,-1.66153 -3.71117,-3.71116c0,-2.04963 1.66154,-3.71116 3.71117,-3.71116c2.04962,0 3.71115,1.66154 3.71115,3.71116z" fill="#000000" stroke-width="0"/><path d="M275.26383,121.36746c0,2.04963 -1.66154,3.71116 -3.71115,3.71116c-2.04962,0 -3.71115,-1.66154 -3.71115,-3.71116c0,-2.04963 1.66154,-3.71115 3.71115,-3.71115c2.04962,0 3.71115,1.66154 3.71115,3.71115z" fill="#000000" stroke-width="0"/><path d="M222.84409,203.6395v-4.62856h33.20309v4.62856z" fill="url(#color-53)" stroke-width="0"/><path d="M227.2507,201.38703c0,2.69012 -2.18078,4.87089 -4.87089,4.87089c-2.69012,0 -4.8709,-2.18076 -4.8709,-4.87089c0,-2.69012 2.18077,-4.87089 4.8709,-4.87089c2.69012,0 4.87089,2.18078 4.87089,4.87089z" fill="#000000" stroke-width="0"/><path d="M260.81724,201.62013c0,2.69012 -2.18078,4.87089 -4.87089,4.87089c-2.69013,0 -4.8709,-2.18077 -4.8709,-4.87089c0,-2.69012 2.18077,-4.8709 4.8709,-4.8709c2.69013,0 4.87089,2.18078 4.87089,4.8709z" fill="#000000" stroke-width="0"/></g><path d="M276.48089,155.52968c4.93516,27.48329 -16.75574,49.7629 -37.42498,49.7629c-20.66925,0 -42.36014,-27.21478 -37.42498,-49.7629c5.87624,-26.84774 5.24037,-49.76289 37.425,-49.76289c33.82969,0 32.56752,22.71228 37.42498,49.76289zM259.48456,159.57571c-0.2214,0.58613 0.00345,1.29704 -0.27177,1.85991c-0.95502,1.95312 -3.58997,1.41431 -5.06826,2.65212c-0.44366,0.37149 -0.48816,1.05862 -0.83433,1.5223c-1.49222,1.99874 -2.88477,1.76389 -3.22986,4.60772c-0.08526,0.70257 -0.10417,1.42228 -0.00608,2.12317c0.02678,0.19137 0.55674,0.41782 0.36612,0.44945c-1.41105,0.2341 -5.25888,0.10345 -3.96306,3.62885c0.37922,1.03171 1.79911,1.26338 2.69866,1.89506c2.33357,1.52435 4.37851,2.55978 7.1461,3.23077c0.64348,0.15601 1.33327,0.57064 1.95603,0.34576c4.0527,-1.46341 4.14773,-5.98069 6.96497,-8.28965c1.07106,-0.87782 3.67185,-1.03807 4.4688,-2.25538c0.47706,-0.72869 -0.10037,-1.77007 0.13156,-2.60959c0.12542,-0.45399 0.66278,-0.68437 0.89211,-1.09577c3.05369,-5.47824 2.39036,-11.88599 -4.25857,-13.54015l-1.48606,-0.00937c0,0 -1.2394,0 -1.24993,1.23414c-1.91296,0.792 -3.44654,2.10659 -4.25642,4.25064zM216.76522,133.55623l-0.44624,0.22688c-0.12486,0.028 -0.25213,0.07863 -0.37269,0.16269c-1.31532,0.52172 -2.0569,0.75629 -2.59333,1.53169c-0.02761,-0.00834 -0.05562,-0.01575 -0.08399,-0.0222l-0.06097,-0.10669l-0.13683,0.07819c-0.02654,-0.00168 -0.05331,-0.00254 -0.08027,-0.00254c-0.28595,0 -0.54948,0.09602 -0.7601,0.25758l-1.31159,0.9837c-0.31022,0.22746 -0.51164,0.59457 -0.51164,1.00873c0,0.21556 0.05457,0.41838 0.15064,0.5954l-0.097,0.04237c0.0014,0.91268 -0.24487,1.85999 0.00419,2.73803c0.54036,1.90501 1.94479,2.04549 2.69956,3.75837c0.82324,1.86827 -0.2371,4.85012 -0.05208,6.8417c0.48537,5.22452 4.74749,9.28026 9.12647,11.86875c1.51017,0.22975 3.19085,1.37913 4.53564,0.65461c0.84818,-0.45697 1.42873,-1.39383 1.74562,-2.30367c0.22778,-0.65398 -0.04882,-3.75523 0.04665,-4.73027c0.22955,-2.34443 2.03384,-4.10265 2.31967,-6.40572c0.14221,-1.14582 0.39805,-2.4789 -0.2153,-3.45712c-0.66864,-1.06641 -2.69752,-0.33235 -3.56523,-1.24416c-1.11538,-1.17207 -1.04302,-4.1028 -1.71031,-5.36267c-1.32232,-2.49661 -4.18565,-4.71162 -6.80925,-6.11305c-0.01982,-0.13597 -0.06536,-0.28316 -0.14457,-0.44158c-0.55902,-1.11803 -1.67705,-0.55902 -1.67705,-0.55902z" fill="url(#color-54)" stroke="#000000" stroke-width="0"/><path d="M218.4347,134.06582c0.07921,0.15842 0.12501,0.30557 0.14483,0.44154c2.6236,1.40143 5.51896,3.62244 6.84128,6.11905c0.66729,1.25987 0.61581,4.21354 1.73119,5.3856c0.86771,0.91181 2.90033,0.19018 3.56897,1.25659c0.61335,0.97822 0.35739,2.32821 0.21518,3.47403c-0.28583,2.30307 -2.1048,4.08864 -2.33435,6.43307c-0.09547,0.97504 0.17241,4.08296 -0.05537,4.73694c-0.31689,0.90984 -0.90479,1.85034 -1.75297,2.30731c-1.34479,0.72452 -3.03872,-0.42159 -4.54889,-0.65134c-4.37898,-2.58849 -8.69336,-6.67701 -9.17873,-11.90153c-0.18502,-1.99158 0.87844,-5.01428 0.0552,-6.88255c-0.75477,-1.71288 -2.15494,-1.8599 -2.6953,-3.76492c-0.24906,-0.87804 0.00212,-1.83085 0.00072,-2.74353l0.09724,-0.04261c-0.09607,-0.17702 -0.14991,-0.38051 -0.14991,-0.59607c0,-0.41416 0.20399,-0.78347 0.51421,-1.01093l1.31583,-0.98675c0.21062,-0.16156 0.47629,-0.25888 0.76224,-0.25888c0.02696,0 0.05392,0.00075 0.08047,0.00243l0.13727,-0.07844l0.06098,0.10668c0.02837,0.00645 0.05656,0.01376 0.08417,0.0221c0.53643,-0.7754 1.28686,-1.01376 2.60218,-1.53547c0.12056,-0.08406 0.24906,-0.13506 0.37392,-0.16306l0.44773,-0.22729c0,0 1.12289,-0.56001 1.68192,0.55802z" data-paper-data="{&quot;noHover&quot;:false,&quot;origItem&quot;:[&quot;Path&quot;,{&quot;applyMatrix&quot;:true,&quot;segments&quot;:[[433.53043,267.11246],[[432.63795,267.56622],[0,0],[-0.24972,0.056]],[[431.89257,267.8916],[0.24112,-0.16812],[-2.63064,1.04344]],[[426.70591,270.95498],[1.07286,-1.5508],[-0.05522,-0.01668]],[[426.53793,270.91058],[0.05674,0.0129],[0,0]],[426.41599,270.6972],[[426.14233,270.85358],[0,0],[-0.05308,-0.00336]],[[425.98179,270.8485],[0.05392,0],[-0.5719,0]],[[424.46159,271.36366],[0.42124,-0.32312],[0,0]],[[421.83841,273.33106],[0,0],[-0.62044,0.45492]],[[420.81513,275.34852],[0,-0.82832],[0,0.43112]],[[421.11641,276.53932],[-0.19214,-0.35404],[0,0]],[[420.92241,276.62406],[0,0],[0.0028,1.82536]],[[420.93079,282.10012],[-0.49812,-1.75608],[1.08072,3.81002]],[[426.32991,289.61686],[-1.50954,-3.42576],[1.64648,3.73654]],[[426.22575,303.30026],[-0.37004,-3.98316],[0.97074,10.44904]],[[444.47869,327.03776],[-8.75796,-5.17698],[3.02034,0.4595]],[[453.54997,328.34698],[-2.68958,1.44904],[1.69636,-0.91394]],[[457.04121,323.73964],[-0.63378,1.81968],[0.45556,-1.30796]],[[457.13451,314.2791],[-0.19094,1.95008],[0.4591,-4.68886]],[[461.77385,301.46766],[-0.57166,4.60614],[0.28442,-2.29164]],[[461.34325,294.55342],[1.2267,1.95644],[-1.33728,-2.13282]],[[454.21279,292.0651],[1.73542,1.82362],[-2.23076,-2.34414]],[[450.79217,281.33976],[1.33458,2.51974],[-2.64464,-4.99322]],[[437.17367,269.11366],[5.2472,2.80286],[-0.03964,-0.27194]],[[436.88453,268.2305],[0.15842,0.31684],[-1.11804,-2.23606]]],&quot;closed&quot;:true,&quot;fillColor&quot;:[0,0,0,1]}]}" fill="#000000" stroke="none" stroke-width="0.5"/><path d="M259.48537,159.5257c0.80988,-2.14405 2.35901,-3.4559 4.27197,-4.2479c0.01053,-1.23414 1.25235,-1.23323 1.25235,-1.23323l1.49008,0.01121c6.64893,1.65416 7.33945,8.10473 4.28576,13.58297c-0.22933,0.4114 -0.76678,0.64685 -0.8922,1.10084c-0.23193,0.83952 0.34323,1.89278 -0.13383,2.62147c-0.79695,1.21731 -3.40904,1.39666 -4.4801,2.27448c-2.81724,2.30896 -2.95243,6.84172 -7.00513,8.30514c-0.62276,0.22488 -1.31962,-0.19081 -1.9631,-0.34682c-2.76759,-0.67099 -4.83676,-1.71965 -7.17033,-3.244c-0.89955,-0.63168 -2.32617,-0.8716 -2.70539,-1.90331c-1.29582,-3.5254 2.63798,-3.44565 4.04903,-3.67975c0.19062,-0.03163 -0.42876,-0.21339 -0.45554,-0.40476c-0.09809,-0.70089 -0.0825,-1.43018 0.00276,-2.13275c0.34509,-2.84383 1.73987,-2.63905 3.23209,-4.63779c0.34617,-0.46368 0.39722,-1.16242 0.84088,-1.53391c1.47829,-1.23781 4.15208,-0.71883 5.1071,-2.67195c0.27522,-0.56287 0.05221,-1.27379 0.27361,-1.85992z" data-paper-data="{&quot;noHover&quot;:false,&quot;origItem&quot;:[&quot;Path&quot;,{&quot;applyMatrix&quot;:true,&quot;segments&quot;:[[[518.96911,319.15142],[0,0],[-0.4428,1.17226]],[[518.42557,322.87124],[0.55044,-1.12574],[-1.91004,3.90624]],[[508.28905,328.17548],[2.95658,-2.47562],[-0.88732,0.74298]],[[506.62039,331.22008],[0.69234,-0.92736],[-2.98444,3.99748]],[[500.16067,340.43552],[0.69018,-5.68766],[-0.17052,1.40514]],[[500.14851,344.68186],[-0.19618,-1.40178],[0.05356,0.38274]],[[500.88075,345.58076],[0.38124,-0.06326],[-2.8221,0.4682]],[[492.95463,352.83846],[-2.59164,-7.0508],[0.75844,2.06342]],[[498.35195,356.62858],[-1.7991,-1.26336],[4.66714,3.0487]],[[512.64415,363.09012],[-5.53518,-1.34198],[1.28696,0.31202]],[[516.55621,363.78164],[-1.24552,0.44976],[8.1054,-2.92682]],[[530.48615,347.20234],[-5.63448,4.61792],[2.14212,-1.75564]],[[539.42375,342.69158],[-1.5939,2.43462],[0.95412,-1.45738]],[[539.68687,337.4724],[-0.46386,1.67904],[0.25084,-0.90798]],[[541.47109,335.28086],[-0.45866,0.8228],[6.10738,-10.95648]],[[532.95395,308.20056],[13.29786,3.30832],[0,0]],[529.98183,308.18182],[[527.48197,310.6501],[0.02106,-2.46828],[-3.82592,1.584]],[[518.96913,319.15138],[1.61976,-4.2881],[0,0]]],&quot;closed&quot;:true,&quot;fillColor&quot;:[0,0,0,1]}]}" fill="#000000" stroke="none" stroke-width="0.5"/></g><path d="M288.90128,69.69064c0,11.70749 -96.5038,10.65854 -97.2031,0c-0.965,-14.70829 7.50323,-27.73755 20.41772,-35.5816c8.06537,-4.89877 48.48041,-4.78206 56.44345,0.30336c12.31598,7.86532 20.34193,20.73565 20.34193,35.27825z" fill="#000000" stroke="#000000" stroke-width="0"/><g stroke-width="0"><path d="M224.66855,54.71341v-4.42891h31.00242v4.42891z" fill="#000000" stroke="none"/><path d="M228.34434,95.05043v-28.66052h2.96655v28.66053z" fill="#000000" stroke="none"/><path d="M249.21638,94.13159v-27.84742h2.96656v27.84742z" data-paper-data="{&quot;index&quot;:null}" fill="#000000" stroke="none"/><path d="M224.56238,68.38052v-4.42891h31.00243v4.42891z" fill="url(#color-55)" stroke="none"/><path d="M253.7,68.38052v-32.16792h4.89511v32.16792z" fill="#000000" stroke="#000000"/><path d="M221.53207,68.38052v-32.16792h4.89513v32.16792z" data-paper-data="{&quot;index&quot;:null}" fill="url(#color-56)" stroke="#000000"/><g fill="#000000" stroke="none"><g data-paper-data="{&quot;index&quot;:null}"><path d="M250.41884,78.65902v3.84617h-3.0303v-3.84617z"/><path d="M246.22302,78.65902v3.84617h-3.03032v-3.84617z"/><path d="M242.02721,78.54247v3.84616h-3.03031v-3.84616z"/><path d="M237.83138,78.54247v3.84616h-3.03032v-3.84616z"/><path d="M233.71328,78.46477v3.84616h-3.03032v-3.84616z"/></g><path d="M252.20023,74.22863v5.36131h-23.7763v-5.36131z" data-paper-data="{&quot;index&quot;:null}"/></g><g fill="#000000" stroke="#000000"><g><path d="M255.03076,14.83378c8.30361,0 15.03501,6.7314 15.03501,15.03501c0,8.30361 -6.73141,15.03502 -15.03501,15.03502c-8.30361,0 -15.03501,-6.73141 -15.03501,-15.03502c0,-8.30361 6.7314,-15.03501 15.03501,-15.03501z"/></g><g data-paper-data="{&quot;index&quot;:null}"><path d="M239.99576,29.51914c0,8.30361 -6.7314,15.03501 -15.03501,15.03501c-8.30361,0 -15.03501,-6.7314 -15.03501,-15.03501c0,-8.30361 6.7314,-15.03501 15.03501,-15.03501c8.30361,0 15.03501,6.7314 15.03501,15.03501z"/></g></g></g><g stroke-width="0"><g fill="#000000" stroke="none"><g><path d="M247.38854,92.99326v-3.84616h3.0303v3.84616z"/><path d="M243.19272,92.99326v-3.84616h3.03032v3.84616z"/><path d="M238.9969,93.10981v-3.84617h3.03031v3.84617z"/><path d="M234.80108,93.10981v-3.84617h3.03033v3.84617z"/><path d="M230.68296,93.18751v-3.84617h3.03032v3.84617z"/></g><path d="M228.42394,97.42364v-5.36131h23.7763v5.36131z"/></g><path d="M240.29974,109.20223c-14.59529,0.45726 -50.16922,-17.84924 -48.60155,-39.76216c0.17988,-2.51431 -3.44139,-0.91826 6.14315,-2.21728c9.1584,-1.24126 12.35917,28.7852 42.10876,28.54451c34.18977,-0.27662 31.62404,-30.29018 40.53601,-29.06891c9.23502,1.26554 8.41518,0.02612 8.41518,2.74168c0,21.96004 -31.21433,39.21743 -48.60154,39.76216z" data-paper-data="{&quot;index&quot;:null}" fill="url(#color-57)" stroke="#000000"/></g><g stroke="#000000" stroke-width="0"><path d="M289.23291,69.69026c0,11.70749 -96.50379,10.65852 -97.20309,0c-0.93812,-14.29846 6.22279,-26.66049 18.53279,-34.56424c0.09188,-0.05899 8.63702,8.81782 14.89478,8.81782c1.89358,0 3.70445,-0.35417 5.36995,-0.99991c0.72066,-0.2794 1.48497,-0.51642 2.28226,-0.71298c-0.02477,0.26345 -0.0378,0.52266 -0.03536,0.77665c0.00796,0.82681 1.05595,3.1437 1.39826,4.0643c0.21774,0.58557 0.14768,1.35289 0.61118,1.77177c0.98197,0.88744 2.90136,0.35974 3.71397,1.40447c1.42309,1.82962 0.19266,5.17681 1.43883,7.04199c0.56147,0.84036 1.43032,1.4283 2.14549,2.14245c3.46306,0.88327 8.01287,2.6125 11.67088,1.42753c1.14561,-0.3711 1.61062,-1.83524 2.62919,-2.47763c2.25942,-1.42498 5.9125,-1.77813 7.4558,-4.54452c0.73962,-1.32579 -0.69736,-3.18406 -0.90278,-4.28453c-0.15311,-0.82021 0.7793,-1.47575 1.1525,-2.22201c0.92928,-1.85824 1.39997,-3.4568 -0.17943,-5.20772c-0.17042,-0.18893 -0.3818,-0.32179 -0.61364,-0.42661c4.01331,-2.70176 6.02238,-6.81289 6.1843,-6.70447c11.81246,7.9095 19.45411,20.50747 19.45411,34.69762z" fill="url(#color-58)"/><path d="M240.15255,34.41388c7.43462,0 13.46158,7.43586 13.46158,16.60845c0,9.17259 -6.02696,16.60845 -13.46158,16.60845c-7.43463,0 -13.46157,-7.43586 -13.46157,-16.60845c0,-9.17259 6.02695,-16.60845 13.46157,-16.60845z" fill="url(#color-59)"/></g><g stroke-width="0"><g stroke="none"><path d="M262.10068,327.59921v-5.94008h20.79028v5.94008z" fill="url(#color-60)"/><path d="M260.61564,336.64433v-10.26014h28.89039l6.48008,10.26014z" fill="url(#color-61)"/><path d="M258.27563,341.50092v-6.42608h41.95855v6.42609z" fill="url(#color-62)"/><path d="M293.39409,341.47739v-6.42608h11.52915v6.42609z" fill="url(#color-63)"/><path d="M289.47902,341.47739v-6.42608h11.52915v6.42609z" fill="url(#color-64)"/><path d="M284.48395,341.47739v-6.42608h11.52916v6.42609z" fill="url(#color-65)"/></g><g stroke="#000000"><path d="M312.65175,333.04771c0,10.20028 -9.64499,11.96817 -21.54269,11.96817c-11.8977,0 -21.54269,-5.35834 -21.54269,-11.96816c0,-6.60983 9.64499,-11.96816 21.54269,-11.96816c11.8977,0 21.54269,1.52852 21.54269,11.96816z" fill="url(#color-66)"/><path d="M303.31658,332.80835c0,10.20028 -9.64498,11.96816 -21.54268,11.96816c-11.8977,0 -21.5427,-5.35833 -21.5427,-11.96816c0,-6.60983 9.645,-11.96816 21.5427,-11.96816c11.8977,0 21.54268,1.52853 21.54268,11.96817z" fill="url(#color-67)"/><path d="M292.30589,333.04771c0,10.20028 -9.64499,11.96817 -21.54269,11.96817c-11.8977,0 -21.54269,-5.35833 -21.54269,-11.96816c0,-6.60983 9.64499,-11.96816 21.54269,-11.96816c11.8977,0 21.54269,1.52852 21.54269,11.96816z" fill="url(#color-68)"/></g></g><g stroke="none" stroke-width="0"><path d="M228.97117,29.66667c0,1.01796 -0.80791,1.84318 -1.8045,1.84318c-0.9966,0 -1.8045,-0.82522 -1.8045,-1.84318c0,-1.01796 0.80791,-1.84318 1.8045,-1.84318c0.9966,0 1.8045,0.82522 1.8045,1.84318zM227.15563,31.25347c0.87325,0 1.58116,-0.70791 1.58116,-1.58116c0,-0.87325 -0.70791,-1.58116 -1.58116,-1.58116c-0.87325,0 -1.58116,0.70791 -1.58116,1.58116c0,0.87325 0.70791,1.58116 1.58116,1.58116z" fill="#ffffff"/><path d="M230.11184,29.66667c0,1.66143 -1.3186,3.00828 -2.94517,3.00828c-1.62657,0 -2.94517,-1.34686 -2.94517,-3.00828c0,-1.66143 1.3186,-3.00829 2.94517,-3.00829c1.62657,0 2.94517,1.34686 2.94517,3.00829z" fill="url(#color-69)"/></g><g stroke="none" stroke-width="0"><path d="M256.47117,29.66667c0,1.01796 -0.80791,1.84318 -1.8045,1.84318c-0.9966,0 -1.8045,-0.82522 -1.8045,-1.84318c0,-1.01796 0.80791,-1.84318 1.8045,-1.84318c0.9966,0 1.8045,0.82522 1.8045,1.84318zM254.65563,31.25347c0.87325,0 1.58116,-0.70791 1.58116,-1.58116c0,-0.87325 -0.70791,-1.58116 -1.58116,-1.58116c-0.87325,0 -1.58116,0.70791 -1.58116,1.58116c0,0.87325 0.70791,1.58116 1.58116,1.58116z" fill="#ffffff"/><path d="M257.61184,29.66667c0,1.66143 -1.3186,3.00828 -2.94517,3.00828c-1.62657,0 -2.94517,-1.34686 -2.94517,-3.00828c0,-1.66143 1.3186,-3.00829 2.94517,-3.00829c1.62657,0 2.94517,1.34686 2.94517,3.00829z" fill="url(#color-70)"/></g></g></g></svg>