<svg version="1.1" xmlns="http://www.w3.org/2000/svg" xmlns:xlink="http://www.w3.org/1999/xlink" width="239.96347" height="325.73127" viewBox="0,0,239.96347,325.73127"><defs><linearGradient x1="240.00003" y1="26.84688" x2="240.00003" y2="333.15318" gradientUnits="userSpaceOnUse" id="color-1"><stop offset="0" stop-color="#eaeaea"/><stop offset="1" stop-color="#c6c6c6"/></linearGradient></defs><g transform="translate(-120.01828,-26.84686)"><g data-paper-data="{&quot;isPaintingLayer&quot;:true}" fill-rule="nonzero" stroke="none" stroke-linecap="butt" stroke-linejoin="miter" stroke-miterlimit="10" stroke-dasharray="" stroke-dashoffset="0" style="mix-blend-mode: normal"><path d="M120.01829,333.15318v-306.30631h239.96347v306.30631z" fill="url(#color-1)" stroke-width="0"/><text transform="translate(124.9286,46.42579) scale(0.29973,0.29973)" font-size="40" xml:space="preserve" fill="#000000" fill-rule="nonzero" stroke="none" stroke-width="1" stroke-linecap="butt" stroke-linejoin="miter" stroke-miterlimit="10" stroke-dasharray="" stroke-dashoffset="0" font-family="Handwriting" font-weight="normal" text-anchor="start" style="mix-blend-mode: normal"><tspan x="0" dy="0">Hey, Mike! It's Dave. This note is very important</tspan><tspan x="0" dy="48px">so I need you to read it.</tspan></text><text transform="translate(124.9286,77.92579) scale(0.29973,0.29973)" font-size="40" xml:space="preserve" fill="#000000" fill-rule="nonzero" stroke="none" stroke-width="1" stroke-linecap="butt" stroke-linejoin="miter" stroke-miterlimit="10" stroke-dasharray="" stroke-dashoffset="0" font-family="Handwriting" font-weight="normal" text-anchor="start" style="mix-blend-mode: normal"><tspan x="0" dy="0">The new artifact I mentioned when we were</tspan><tspan x="0" dy="48px">texting each other is actually an animatronic.</tspan><tspan x="0" dy="48px">I heard that it is known for its nocturnal activity</tspan><tspan x="0" dy="48px">at night.</tspan></text><text transform="translate(121.9286,137.42578) scale(0.29973,0.29973)" font-size="40" xml:space="preserve" fill="#000000" fill-rule="nonzero" stroke="none" stroke-width="1" stroke-linecap="butt" stroke-linejoin="miter" stroke-miterlimit="10" stroke-dasharray="" stroke-dashoffset="0" font-family="Handwriting" font-weight="normal" text-anchor="start" style="mix-blend-mode: normal"><tspan x="0" dy="0">Below are some stuff that should help you defend</tspan><tspan x="0" dy="48px">yourself:</tspan></text><g fill="#000000" stroke-width="0.5"><path d="M150.3132,189.61914c0.85882,-1.53133 -1.90803,-0.70853 -2.5862,-0.60371c-0.26019,0.04021 -0.51116,-0.22402 -0.77,-0.17591c-0.40076,0.07448 -0.29613,0.76151 -0.48672,1.12183c-0.21669,0.40965 0.01622,0.93606 0.13669,1.38356c0.00362,0.01346 0.00705,0.02684 0.01027,0.04011c1.22405,-0.48277 2.43244,-0.95299 3.60389,-1.58813zM146.33668,193.33427c0,0 -0.00634,0.44381 -0.45015,0.43748c-0.44381,-0.00633 -0.43747,-0.45014 -0.43747,-0.45014c0.00416,-0.1395 0.05758,-0.33882 0.1209,-0.55555c-0.87194,0.36812 -1.74985,0.77823 -2.62865,1.29329c-0.66583,0.39024 -1.0903,1.22298 -1.83634,1.47424c-0.18152,0.06114 -0.40313,-0.13831 -0.57255,-0.04894c-0.35853,0.18915 -0.88344,1.13553 -1.36487,1.47275c-0.29094,0.5617 -1.76109,1.747 -1.65405,2.42926c0.10402,0.66304 1.54577,1.41672 1.80099,2.17719c0.62575,1.86452 0.58903,3.49111 2.62416,4.54523c0,0 0.39413,0.20415 0.18999,0.59827c-0.20414,0.39413 -0.59827,0.18998 -0.59827,0.18998c-0.1828,-0.09468 -0.35205,-0.19374 -0.50907,-0.29697l-0.01643,0.02478c0.43029,0.22287 1.01036,0.67057 1.48049,0.78021c3.64352,0.8497 4.74859,-3.19581 6.95893,-5.09788c0.73704,-0.63424 1.27763,-0.47067 1.99085,-1.28364c1.13906,-0.8357 2.01293,-2.01392 3.12058,-2.76593c0.35895,-0.2437 0.85279,-0.17701 1.286,-0.20078c0.31972,-0.01755 1.19246,-1.10956 1.51363,-1.34613c1.99994,-1.47316 3.57667,-2.7673 5.48722,-4.15807c1.61519,-1.15655 3.35541,-1.95799 5.41825,-1.45541c0.36141,0.08805 0.60878,0.54202 0.98065,0.53262c0.86757,-0.02193 1.94036,-0.45886 2.85283,-0.21323c1.44629,0.38933 2.96072,1.52018 4.30002,2.21388c1.31878,0.81241 2.03161,-0.31594 2.78603,-1.1711c0.23743,-0.26913 0.98578,-0.70312 0.97376,-1.18896c-0.00847,-0.34194 0.04843,-2.26747 -0.12217,-2.4587c-0.14559,-0.1632 -0.46405,-0.13726 -0.56693,-0.33025c-0.38449,-0.72119 0.0768,-2.2064 -0.44631,-2.86051c-0.56361,-0.70476 -0.67964,-0.79333 -0.8392,-1.84569c-0.58028,-0.79914 -0.20665,-1.52985 -0.53176,-2.29406c-0.10768,-0.25312 -0.44727,-0.34215 -0.58918,-0.5778c-0.94162,-1.56365 -1.42228,-3.75106 -1.95073,-5.41243c-0.16523,-0.51945 -0.87291,-0.74443 -1.03741,-1.26412c-0.09139,-0.2887 0.17552,-0.59909 0.13219,-0.89879c-0.14464,-1.00045 -1.66508,-2.3819 -2.50793,-2.79288c-0.97509,-0.53542 -1.81725,-0.16464 -2.70674,0.11782c-0.84784,0.26924 -2.13217,0.62655 -2.88039,1.29864c-0.46082,0.41394 -0.86946,1.72003 -1.14879,2.2593c-0.72584,1.40133 -1.45168,2.80267 -2.17752,4.20401c-1.03571,1.99958 -1.9668,5.02204 -3.48541,6.68121c-0.49106,0.53652 -1.47835,0.88307 -2.05308,1.34203c-0.62841,0.50184 -1.50019,0.91374 -2.06476,1.48311c-0.19065,0.19227 -0.22054,0.56548 -0.47453,0.65931c-0.21116,0.078 -0.40158,-0.26616 -0.62629,-0.25264c-0.28685,0.01726 -1.48244,1.05199 -1.7988,1.22667c-0.45934,0.33527 -0.92501,0.62989 -1.39607,0.89557l-0.05304,0.10241c0,0 -0.18413,0.35549 -0.54027,0.21636c-1.22009,0.62502 -2.47305,1.09164 -3.74292,1.59784c-0.09423,0.30139 -0.21196,0.59847 -0.2094,0.96715zM145.7609,191.61358c-0.33044,-0.84629 -0.49238,-3.01797 0.79537,-3.56618c0.30329,-0.12912 0.65931,0.15812 0.98382,0.10022c1.17248,-0.2092 3.95443,-0.66207 3.84918,0.94603c0.13808,-0.09245 0.27552,-0.18817 0.41228,-0.28747c0.54617,-0.3021 1.60788,-1.27267 2.20853,-1.36307c0.16984,-0.02556 0.25636,0.32576 0.42471,0.29174c0.13,-0.02627 -0.01854,-0.29283 0.06985,-0.3917c0.53959,-0.60353 1.55252,-1.0941 2.18425,-1.59837c0.54889,-0.43814 1.51902,-0.77741 1.98477,-1.28148c1.4384,-1.55674 2.33842,-4.56251 3.31934,-6.45631c0.86193,-1.66408 1.72387,-3.32818 2.58581,-4.99226c0.23394,-0.45165 0.52382,-1.34332 0.89264,-1.68195c0.82308,-0.75571 2.29921,-1.2243 3.24782,-1.52553c1.1442,-0.36335 2.16425,-0.66539 3.38371,-0.05999c1.10873,0.59857 2.68958,2.04509 2.96264,3.3731c0.05821,0.2831 -0.21918,0.57597 -0.14393,0.85503c0.14011,0.51963 0.84627,0.73713 1.03078,1.24271c0.58186,1.59441 0.9378,3.71513 1.86782,5.22974c0.16582,0.27004 0.53004,0.40138 0.6482,0.69541c0.36861,0.91724 -0.09898,1.4275 0.52954,2.28876c0.50575,2.81799 2.15798,4.98702 2.04059,7.91428c-0.03051,0.76086 -0.76946,1.22097 -1.18489,1.69187c-1.08291,1.22751 -2.05761,2.22416 -3.86768,1.38088c-1.30624,-0.67658 -2.71476,-1.70137 -4.10799,-2.14116c-0.80314,-0.25352 -1.92089,0.27234 -2.71213,0.23675c-0.69844,-0.03142 -0.56012,-0.42775 -1.12135,-0.55614c-1.8453,-0.42215 -3.23897,0.24193 -4.67954,1.31213c-0.66029,0.48066 -1.27399,1.48983 -2.00389,1.75791c-0.70361,0.25842 -0.92979,0.07268 -1.56699,0.67453c-0.86809,0.81994 -2.6571,3.00733 -3.88108,3.2389c-0.19442,0.03679 -0.32991,-0.27999 -0.52762,-0.27202c-0.4025,0.01622 -0.84005,0.92719 -1.03894,1.15096c-0.62667,0.70505 -1.54525,1.30499 -2.31372,1.85934c-0.64674,0.7292 -1.39729,0.76869 -2.01648,1.30609c-0.82094,0.71252 -1.51351,2.18215 -2.2244,3.06878c-1.86653,2.32794 -4.6242,2.69003 -7.19531,1.35828l-0.34556,-0.65864c0,0 -0.12676,-0.39918 0.25376,-0.54515c-1.29933,-1.13333 -1.52985,-2.6613 -2.03637,-4.37708c-0.27031,-0.91562 -1.71145,-1.38988 -1.83976,-2.37453c-0.14046,-1.07789 1.4449,-2.26695 1.86554,-3.07906c1.45985,-1.09585 2.392,-2.13051 3.98759,-3.07912c1.09961,-0.65374 2.20568,-1.13952 3.3031,-1.58339c-0.00429,-0.03786 -0.01208,-0.07236 -0.02399,-0.10285z"/><path d="M189.05638,161.25266c0.26122,0.35885 -0.09763,0.62007 -0.09763,0.62007l-0.66182,0.4536c-0.95225,-0.06164 -1.33957,1.16213 -2.14898,1.75618c-1.86261,1.36702 -2.9105,3.31528 -4.6016,4.78944c-0.79859,0.69615 -1.2045,0.71447 -1.7131,1.71351c0,0 -0.20414,0.39413 -0.59826,0.18999c-0.39413,-0.20414 -0.18999,-0.59827 -0.18999,-0.59827c0.55249,-1.05124 1.07813,-1.25494 1.92074,-1.97673c1.7156,-1.4696 2.76226,-3.46664 4.65977,-4.83563c0.94836,-0.68421 1.18344,-1.85216 2.40274,-1.88456l0.40806,-0.32521c0,0 0.35885,-0.26122 0.62007,0.09762z"/><path d="M196.5306,172.34567c-0.00633,0.44381 -0.45014,0.43748 -0.45014,0.43748l-0.57748,-0.01626c-2.36979,0.94939 -4.6037,2.30557 -6.97322,3.31467c-1.58655,0.67566 -3.0648,1.04106 -4.61135,1.89577c0,0 -0.38848,0.21469 -0.60317,-0.17379c-0.2147,-0.38848 0.17379,-0.60317 0.17379,-0.60317c1.57029,-0.86783 3.10124,-1.24979 4.70763,-1.94165c2.41925,-1.04197 4.70257,-2.45336 7.15078,-3.3658l0.7457,0.00262c0,0 0.44381,0.00633 0.43748,0.45014z"/><path d="M201.21497,185.63909c0.13434,0.42304 -0.2887,0.55738 -0.2887,0.55738l-0.53951,0.14743c-0.24816,-0.00615 -0.49632,-0.0123 -0.74448,-0.01845c-1.27722,-0.51101 -1.53373,-0.46101 -2.70327,-0.1804c-0.92714,0.22245 -2.26169,-0.19017 -3.24771,-0.12844c-0.9029,0.05652 -1.65127,0.43178 -2.52532,0.60518c-1.96822,0.39048 -3.92448,0.35081 -5.90696,0.81649c0,0 -0.4321,0.10149 -0.5336,-0.3306c-0.10149,-0.4321 0.3306,-0.53359 0.3306,-0.53359c1.99002,-0.46744 3.96394,-0.42868 5.93663,-0.82292c0.91419,-0.1827 1.69303,-0.55695 2.64119,-0.6204c0.85936,-0.05751 2.30256,0.37703 3.07189,0.15778c1.24532,-0.3549 1.80989,-0.38843 3.11499,0.16732c0.1929,0.00014 0.38581,0.00029 0.57871,0.00043l0.25817,-0.10589c0,0 0.42303,-0.13433 0.55738,0.2887z"/></g><text transform="translate(204.4286,166.58472) scale(0.16375,0.16375)" font-size="40" xml:space="preserve" fill="#000000" fill-rule="nonzero" stroke="none" stroke-width="1" stroke-linecap="butt" stroke-linejoin="miter" stroke-miterlimit="10" stroke-dasharray="" stroke-dashoffset="0" font-family="Handwriting" font-weight="normal" text-anchor="start" style="mix-blend-mode: normal"><tspan x="0" dy="0">Try to blind it with your flashlight. Make sure to</tspan><tspan x="0" dy="48px">flash your light DIRECTLY at its face.</tspan></text><text transform="translate(262.42859,223.08472) scale(0.16375,0.16375)" font-size="40" xml:space="preserve" fill="#000000" fill-rule="nonzero" stroke="none" stroke-width="1" stroke-linecap="butt" stroke-linejoin="miter" stroke-miterlimit="10" stroke-dasharray="" stroke-dashoffset="0" font-family="Handwriting" font-weight="normal" text-anchor="start" style="mix-blend-mode: normal"><tspan x="0" dy="0">That animatronic might run to your</tspan><tspan x="0" dy="48px">left past the window.  Be quick and</tspan><tspan x="0" dy="48px">try to flash it before it makes it to</tspan><tspan x="0" dy="48px">your office doorway.</tspan></text><text transform="translate(208.4286,296.22978) scale(0.14619,0.14619)" font-size="40" xml:space="preserve" fill="#000000" fill-rule="nonzero" stroke="none" stroke-width="1" stroke-linecap="butt" stroke-linejoin="miter" stroke-miterlimit="10" stroke-dasharray="" stroke-dashoffset="0" font-family="Handwriting" font-weight="normal" text-anchor="start" style="mix-blend-mode: normal"><tspan x="0" dy="0">If it's ever seen crawling through one of the vent shafts,</tspan><tspan x="0" dy="48px">seal that respective vent shut. There's a system that</tspan><tspan x="0" dy="48px">allows these vents to be shut (further discussed  on nest page).</tspan></text><path d="M219.98964,351.82814c0,-0.41422 0.33578,-0.75 0.75,-0.75c0.41422,0 0.75,0.33578 0.75,0.75c0,0.41422 -0.33578,0.75 -0.75,0.75c-0.41422,0 -0.75,-0.33578 -0.75,-0.75z" fill="#000000" stroke-width="0.5"/><g fill="#000000" stroke-width="0.5"><path d="M130.23962,218.07814c0.21495,0 0.3683,0.06161 0.47769,0.14951c1.26349,-0.70022 2.54772,-1.53681 3.7353,-2.09241c1.03773,-0.48549 3.66511,-0.0571 4.78701,-0.0571c4.0962,0 8.55348,-0.2568 12.26021,1.54659c5.00892,1.24634 11.91669,1.75132 17.14816,0.95903c3.22809,-0.48889 6.36809,-1.47136 9.59163,-1.50562c1.40171,0.11224 1.70766,-0.96329 3.5,-1c6.99302,-0.14325 14.00538,0 21,0c4.5,0 9,0 13.5,0c1.05605,0 3.95435,-0.43976 4.8943,0.11202c0.32139,0.18867 0.17387,0.81965 0.5,1c0.50946,0.28174 3.17051,-0.19174 3.72584,-0.10233c1.32431,0.21322 2.57716,0.80097 3.93212,0.99214c7.93949,0.1293 16.82484,-0.15359 24.88627,0.63975c1.59285,3.91203 -0.23543,8.02574 0.79141,11.93612c1.13261,4.3132 1.52006,9.08684 1.52006,13.67231c0,8.16666 0,16.33334 0,24.5c0,0.7788 0.28233,2.61192 -0.05709,3.28701c-1.29201,2.56973 -4.38615,1.96299 -6.69291,1.96299c-3.0221,0 -6.22891,0.15463 -9.14183,-0.51353c-2.35103,-0.53927 -4.3013,-1.46048 -6.78753,-1.48524c-4.15964,-0.03835 -8.45226,-1.07468 -12.64058,-1.50449c-4.70249,-0.48258 -9.69814,0.00326 -14.43007,0.00326c-9.10608,0 -18.96135,0.8434 -27.55494,3.39383c-8.40275,0.3772 -16.89201,0.60617 -25.44506,0.60617c-3.28552,0 -6.02292,-0.37819 -9.16847,-1.01917c-1.02187,-0.20823 -2.1037,0.35017 -3.11854,-0.03792c-0.81939,-0.31335 -1.41004,-1.19979 -2.27971,-1.31504c-1.98449,-0.26299 -6.88836,0.06199 -8.39401,-1.28606c-1.47926,-1.32443 -1.18882,-4.2002 -1.75244,-5.88588c-0.09224,-3.00256 -0.45408,-6.13985 -1.02714,-9.08579c-0.39289,-2.0197 -1.81475,-3.51576 -2.00679,-5.55427c-0.22171,-2.35338 -0.53507,-5.94776 0.01717,-8.23818c0.23224,-0.96322 1.21583,-1.61261 1.51583,-2.55693c0.30157,-0.94928 -0.02237,-1.99223 -0.00371,-2.98809c2.96591,-4.5301 1.96781,-11.48694 1.96781,-16.78267v-0.3867c-0.02104,-0.10167 -0.0182,-0.19346 0,-0.27535v-0.33795c0,0 0,-0.75 0.75,-0.75zM130.98962,219.78683v0.04131c0,5.35942 1.05585,12.67321 -2.03218,17.21734c0.01203,0.47951 0.08771,2.7147 -0.00371,3.01191c-0.28016,0.91073 -1.27108,1.51434 -1.48417,2.44306c-0.50494,2.20073 -0.15219,5.49693 0.01717,7.76183c0.14217,1.90133 1.61293,3.51379 1.99322,5.44572c0.57528,2.92247 0.97889,6.0887 1.02417,9.06816c0.41266,1.24176 0.1899,3.98457 1.19623,4.96017c0.53573,0.51937 1.47089,0.25504 2.2111,0.34906c1.81652,0.23071 3.66259,0.33743 5.48447,0.63728c0.98211,0.16164 1.71427,1.02427 2.63073,1.41256c0.88446,0.37473 1.93881,-0.22256 2.88146,-0.03792c3.03803,0.59505 5.65222,0.98083 8.83152,0.98083c8.46652,0 16.88337,-0.27627 25.19774,-0.58564c8.63702,-2.59155 18.64809,-3.41436 27.80226,-3.41436c4.78122,0 9.81697,-0.47935 14.56994,0.00327c4.12033,0.41839 8.42945,1.53393 12.51378,1.49802c2.57637,0.05578 4.62302,0.93476 7.05812,1.51225c2.48469,0.58925 5.27032,0.48647 7.85816,0.48647c1.65208,0 5.38061,0.83549 6.3071,-1.03701c0.24216,-0.48943 -0.0571,-2.14674 -0.0571,-2.71299c0,-8.16667 0,-16.33334 0,-24.5c0,-4.51768 -0.46005,-9.06762 -1.47993,-13.32769c-0.83748,-3.49819 0.45063,-7.49002 -0.2086,-11.06388c-2.00455,0.50543 -4.50839,0.14156 -6.56147,0.14156c-5.80792,0 -11.95129,-0.61792 -17.55226,-0.50182c-1.402,-0.19598 -2.70239,-0.78427 -4.06787,-1.00786c-1.2246,-0.20052 -3.13596,0.4263 -4.27416,-0.10233c-0.338,-0.15698 -0.20943,-0.76664 -0.5,-1c-0.31373,-0.25195 -3.68366,0.11201 -4.10571,0.11201c-4.5,0 -9,0 -13.5,0c-5.5,0 -11,0 -16.5,0c-1.35624,0 -4.46703,-0.58796 -5.71298,-0.05709c-0.77263,0.3292 -1.44801,1.01987 -2.28702,1.05709c-3.13527,-0.04137 -6.25963,1.03701 -9.40836,1.49438c-5.51078,0.80048 -12.58085,0.28186 -17.85185,-1.04097c-3.47054,-1.78981 -7.86314,-1.45342 -11.73979,-1.45342c-0.74954,0 -3.53758,-0.4286 -4.21298,-0.05709c-1.31847,0.72525 -2.63256,1.53437 -4.03702,2.26578z"/><path d="M201.48964,233.82814c0,0.75 -0.75,0.75 -0.75,0.75l-0.65477,-0.08417c-0.88602,1.39719 -1.977,1.7395 -3.43212,2.46015c-3.69512,3.15915 -8.3958,6.87757 -12.72542,9.09301c-0.87262,0.44652 -1.95124,0.41738 -2.7934,0.919c-1.89452,1.12845 -3.50089,2.85816 -5.5222,4.01319c0,0 -0.65118,0.3721 -1.02328,-0.27908c-0.37211,-0.65118 0.27908,-1.02329 0.27908,-1.02329c2.02441,-1.1568 3.57443,-2.84367 5.4778,-3.9868c0.90029,-0.5407 1.97635,-0.5064 2.89871,-0.97836c4.30378,-2.20222 8.88239,-5.89782 12.58248,-9.00962c1.60799,-0.8108 2.46295,-1.09551 3.56788,-2.53985l1.34522,-0.08418c0,0 0.75,0 0.75,0.75z"/><path d="M205.26997,244.79781c0.53033,0.53033 0,1.06066 0,1.06066l-0.5,0.5c-2.64289,2.61474 -8.34006,6.15052 -12.03033,6.21967c0,0 -0.75,0 -0.75,-0.75c0,-0.75 0.75,-0.75 0.75,-0.75c3.13168,0.07857 8.75572,-3.5385 10.96967,-5.78033l0.5,-0.5c0,0 0.53033,-0.53033 1.06066,0z"/><path d="M191.41046,230.99273c0.33541,0.67082 -0.33541,1.00624 -0.33541,1.00624l-1.08668,0.53673c-0.78543,0.1298 -1.19303,1.07792 -1.89484,1.4537c-0.46053,0.2466 -1.08217,-0.16316 -1.56688,0.03165c-0.4374,0.17579 -0.57667,0.79259 -1,1c-1.35438,0.66359 -3.51542,0.67788 -4.91872,1.46043c-1.89168,1.0549 -2.91906,2.4926 -5.1864,3.07426c0,0 -0.72761,0.1819 -0.90951,-0.5457c-0.1819,-0.72761 0.5457,-0.90951 0.5457,-0.90951c2.13241,-0.51674 3.0246,-1.93275 4.8136,-2.92574c1.43118,-0.79438 3.7409,-0.85423 5.08129,-1.53957c0.41972,-0.21461 0.56201,-0.82568 1,-1c0.44395,-0.17669 1.01179,0.25702 1.43312,0.03165c0.76775,-0.41066 1.26109,-1.33266 2.10516,-1.5463l0.91332,-0.46327c0,0 0.67083,-0.33541 1.00624,0.33541z"/></g><path d="M203.98964,323.92499c0,0.75 -0.75,0.75 -0.75,0.75c-1.5,0 -4.5,0 -6,0c-2.434,-0.04166 -4.97938,-0.82525 -7.21734,-1.53218c-1.80851,-0.57128 -4.84057,0.03218 -6.78266,0.03218c-4.56195,0 -8.91144,-0.5 -13.5,-0.5c-1.76225,-0.02114 -2.25285,-0.71064 -3.8195,-1.02314c-2.20722,-0.44027 -4.44981,-0.72924 -6.54117,-1.55825c-0.55066,-0.21828 -2.42685,-0.6621 -2.77732,-1.27432c-0.70653,-1.23421 -0.38567,-3.59509 -0.68619,-5.01397c-0.69243,-3.26919 -1.47083,-6.88207 -2.51537,-10.06205c-1.6727,-5.48137 -0.67237,-11.01552 -0.29206,-16.57887c0.09538,-1.39532 0.54797,-5.37029 1.7111,-6.32745c0.47961,-0.39468 1.23165,-0.16753 1.84103,-0.28778c2.42132,-0.47784 4.58348,-0.87417 7.07948,-0.87417c9.01791,0 18.16993,0.49907 27.01347,0.50012c2.67451,0.11151 5.50738,0.90476 8.10667,1.50956c0.44962,0.10462 1.0452,-0.14852 1.37368,0.17583c0.6407,0.63264 1.01981,3.0236 1.23612,3.89217c1.06199,4.26436 1.02006,8.22276 1.02006,12.67213c0.00181,3.72181 1.31545,7.95086 0.48446,11.65208c-0.93064,4.14506 -1.48446,8.03902 -1.48446,12.3481c0,0 0,0.75 -0.75,0.75c-0.75,0 -0.75,-0.75 -0.75,-0.75c0,-4.3783 0.49478,-8.45345 1.51554,-12.6519c0.85404,-3.51268 -0.51381,-7.79681 -0.51554,-11.34792c0,-4.33127 0.06,-8.18365 -0.97994,-12.32787c-0.19002,-0.75725 -0.35989,-2.57297 -0.76388,-3.10783c-0.41786,-0.55323 -1.37837,-0.16376 -2.05815,-0.3c-2.01891,-0.4046 -4.41583,-0.95562 -6.4615,-1.01461c-8.8373,0.00108 -17.97581,-0.49988 -26.98653,-0.49988c-2.42998,0 -4.46206,0.54489 -6.83095,0.85344c-0.37934,0.04941 -0.84541,-0.25917 -1.14738,-0.02431c-0.74088,0.57623 -1.09277,4.3229 -1.15676,5.26239c-0.36515,5.36105 -1.38555,10.7434 0.22575,16.02455c1.05161,3.22379 1.86923,6.90551 2.55651,10.22249c0.29131,1.40596 0.01245,3.24677 0.49082,4.51714c0.25559,0.67876 1.39624,0.4027 2.06873,0.67436c1.99668,0.80658 4.19184,1.02965 6.30344,1.48347c1.57675,0.33887 1.8112,1.01183 3.48984,0.98646c4.588,0 8.9418,0.5 13.5,0.5c2.14459,0 5.18434,-0.56118 7.21734,0.03218c2.08335,0.60805 4.51614,1.52276 6.78266,1.46782c1.5,0 3,0 4.5,0h1.5c0,0 0.75,0 0.75,0.75z" fill="#000000" stroke-width="0.5"/><path d="M161.48962,312.42499c0,-0.75 0.75,-0.75 0.75,-0.75l0.46967,0.21967c-0.34363,-2.7577 5.47423,-3.54808 5.28033,-5.96967c0,0 0,-0.36143 0.2509,-0.58248c-0.52855,-1.00067 -0.19241,-2.149 -0.63889,-3.02322c-0.1695,-0.3319 -0.80042,-0.18527 -1,-0.5c-0.80237,-1.26533 -0.31214,-3.32391 -0.59195,-4.72198c-0.25654,-1.28179 -0.97654,-2.24839 -1.02001,-3.66338c-0.00001,-0.19131 -0.00818,-0.75057 0.00505,-1.28787c-0.23924,-0.09519 -0.37914,-0.30504 -0.37914,-0.30504c-0.53392,-0.80189 -1.25483,-3.21611 -1.81131,-3.74747c-0.23713,-0.22643 -0.72255,0.15395 -0.98256,-0.04578c-0.52545,-0.40364 -0.77343,-1.3514 -0.97639,-1.98479l-0.6057,0.11201c0,0 -0.75,0 -0.75,-0.75c0,-0.75 0.75,-0.75 0.75,-0.75l1.3943,0.11201c0.3858,0.64716 0.38436,1.61646 1.02361,2.01521c0.30381,0.18951 0.81949,-0.1489 1.06875,0.10817c0.65508,0.6756 1.29396,2.55895 1.89372,3.68456c1.36605,-0.81163 3.70837,-0.41995 5.11961,-0.41995c3.12124,0 9.65308,-0.98893 13.38114,0.33088c0.04769,-0.07036 0.08853,-0.11121 0.08853,-0.11121c1.48723,-1.39065 3.1611,-1.09806 4.74103,-2.39369c0.98627,-0.80879 1.8756,-2.58811 2.93579,-3.23744c0.59164,-0.36236 1.40427,-0.18599 2.01809,-0.50936l0.83541,-0.07918c0,0 0.75,0 0.75,0.75c0,0.75 -0.75,0.75 -0.75,0.75l-0.16459,-0.07918c-0.61339,0.29486 -1.40583,0.12826 -1.98191,0.49064c-0.91633,0.57643 -1.79181,2.35079 -2.69764,3.07928c-1.37849,1.1086 -3.19825,1.02379 -4.37881,2.04797c0.39689,0.28789 0.72035,0.63112 0.95288,1.03897c0.04508,3.75788 1.04922,7.28826 1.02006,11.17231c-0.01166,1.55331 -0.80424,2.89159 -0.97077,4.36882c0.09623,0.00563 0.18274,0.03256 0.2511,0.10085c0.26833,0.26808 -0.09171,0.80914 0.10576,1.13298c0.39278,0.64414 1.46365,0.39324 2.15092,0.70444c0.46893,0.21234 1.01764,0.37029 1.33576,0.775c0.20262,0.25777 -0.18655,0.75121 0.04578,0.98256c0.35977,0.35825 1.14606,0.08274 1.43987,0.49682c0.31898,0.44956 -0.11259,1.13673 0.08448,1.65152c0.51002,1.33228 3.0046,3.35281 4.22312,4.16297c0,0 0.62404,0.41603 0.20801,1.04006c-0.41603,0.62404 -1.04006,0.20801 -1.04006,0.20801c-1.44347,-0.96472 -4.09749,-3.20373 -4.77688,-4.83703c-0.17297,-0.41583 0.351,-0.98543 0.08448,-1.34848c-0.29135,-0.39687 -1.05877,-0.10302 -1.40618,-0.45187c-0.25267,-0.25372 0.07539,-0.76131 -0.10817,-1.06875c-0.46009,-0.77064 -2.81753,-0.63238 -3.51332,-1.52056c-0.17955,-0.22919 0.31148,-0.66099 0.10576,-0.86702c-0.0146,-0.01462 -0.03027,-0.0258 -0.04688,-0.034l-0.42279,0.25367c0,0 -0.68715,0 -0.74599,-0.65772c-0.07576,-0.20139 -0.1462,-0.40975 -0.28434,-0.56195c-0.68383,-0.75341 -3.01736,-0.28033 -3.96967,-0.28033c-2.85777,-0.01708 -6.4387,-0.33666 -9.17231,-1.02006c-0.51871,-0.12968 -1.11067,-0.14787 -1.62477,-0.30128c-0.54804,3.06862 -5.37572,3.46908 -5.67259,6.60167l-1.53033,0.21967c0,0 -0.75,0 -0.75,-0.75zM185.11449,306.76199c0.29878,-2.38072 1.01238,-4.63744 0.87672,-7.28841c-0.12493,-2.44126 -1.01865,-4.41871 -0.98151,-6.87626c-0.36914,-1.20005 -3.53459,-0.92231 -4.77006,-0.92231c-3.49985,0 -6.99971,-0.00207 -10.49956,0c-0.76783,0.00046 -2.78516,-0.3696 -3.39201,0.18853c-0.38248,0.35178 0.14154,1.03288 0.14152,1.55254c0.02019,1.32846 0.73664,2.1192 0.97999,3.33662c0.21188,1.05998 -0.22266,3.39034 0.40805,4.27802c0.21586,0.3038 0.83563,0.16553 1,0.5c0.5149,1.04775 -0.03232,2.34331 0.89234,3.36397c0.49747,0.54912 1.03557,0.14879 1.64198,0.30039c2.61285,0.65321 6.09903,0.99909 8.82769,0.97994c1.54,0 3.57198,-0.43835 4.87486,0.58698z" fill="#000000" stroke-width="0.5"/></g></g></svg>