<svg version="1.1" xmlns="http://www.w3.org/2000/svg" xmlns:xlink="http://www.w3.org/1999/xlink" width="508.81537" height="684.72543" viewBox="0,0,508.81537,684.72543"><defs><linearGradient x1="378.92724" y1="399.73639" x2="385.9203" y2="404.78274" gradientUnits="userSpaceOnUse" id="color-1"><stop offset="0" stop-color="#a4a4a4"/><stop offset="1" stop-color="#d8d8d8"/></linearGradient><linearGradient x1="450.44394" y1="450.45856" x2="443.45085" y2="445.41218" gradientUnits="userSpaceOnUse" id="color-2"><stop offset="0" stop-color="#a4a4a4"/><stop offset="1" stop-color="#d8d8d8"/></linearGradient><linearGradient x1="438.81812" y1="392.88373" x2="432.08966" y2="402.2078" gradientUnits="userSpaceOnUse" id="color-3"><stop offset="0" stop-color="#a4a4a4"/><stop offset="1" stop-color="#d8d8d8"/></linearGradient><linearGradient x1="391.46022" y1="459.73835" x2="398.18875" y2="450.41424" gradientUnits="userSpaceOnUse" id="color-4"><stop offset="0" stop-color="#a4a4a4"/><stop offset="1" stop-color="#d8d8d8"/></linearGradient><linearGradient x1="417.49971" y1="366.44953" x2="417.49971" y2="488.80458" gradientUnits="userSpaceOnUse" id="color-5"><stop offset="0" stop-color="#0b2a00"/><stop offset="1" stop-color="#101800"/></linearGradient><linearGradient x1="95.07277" y1="397.43888" x2="88.07971" y2="402.48526" gradientUnits="userSpaceOnUse" id="color-6"><stop offset="0" stop-color="#a4a4a4"/><stop offset="1" stop-color="#d8d8d8"/></linearGradient><linearGradient x1="23.5561" y1="448.16108" x2="30.54916" y2="443.11466" gradientUnits="userSpaceOnUse" id="color-7"><stop offset="0" stop-color="#a4a4a4"/><stop offset="1" stop-color="#d8d8d8"/></linearGradient><linearGradient x1="35.18185" y1="390.58622" x2="41.91038" y2="399.91029" gradientUnits="userSpaceOnUse" id="color-8"><stop offset="0" stop-color="#a4a4a4"/><stop offset="1" stop-color="#d8d8d8"/></linearGradient><linearGradient x1="82.53979" y1="457.44087" x2="75.81126" y2="448.11676" gradientUnits="userSpaceOnUse" id="color-9"><stop offset="0" stop-color="#a4a4a4"/><stop offset="1" stop-color="#d8d8d8"/></linearGradient><linearGradient x1="56.50033" y1="364.15206" x2="56.50033" y2="486.50703" gradientUnits="userSpaceOnUse" id="color-10"><stop offset="0" stop-color="#0b2a00"/><stop offset="1" stop-color="#101800"/></linearGradient><linearGradient x1="220.18092" y1="574.74088" x2="253.75361" y2="574.74088" gradientUnits="userSpaceOnUse" id="color-11"><stop offset="0" stop-color="#a4a4a4"/><stop offset="1" stop-color="#d8d8d8"/></linearGradient><radialGradient cx="236.16791" cy="475.54378" r="27.17786" gradientUnits="userSpaceOnUse" id="color-12"><stop offset="0" stop-color="#d8d8d8"/><stop offset="1" stop-color="#a4a4a4"/></radialGradient><linearGradient x1="281.7413" y1="433.36918" x2="267.28142" y2="433.36918" gradientUnits="userSpaceOnUse" id="color-13"><stop offset="0" stop-color="#a4a4a4"/><stop offset="1" stop-color="#d8d8d8"/></linearGradient><linearGradient x1="190.60357" y1="435.82688" x2="205.06339" y2="435.82688" gradientUnits="userSpaceOnUse" id="color-14"><stop offset="0" stop-color="#a4a4a4"/><stop offset="1" stop-color="#d8d8d8"/></linearGradient><linearGradient x1="236.05146" y1="491.1714" x2="236.05146" y2="506.83623" gradientUnits="userSpaceOnUse" id="color-15"><stop offset="0" stop-color="#a4a4a4"/><stop offset="1" stop-color="#d8d8d8"/></linearGradient><linearGradient x1="286.26744" y1="433.74186" x2="302.77336" y2="439.80892" gradientUnits="userSpaceOnUse" id="color-16"><stop offset="0" stop-color="#a4a4a4"/><stop offset="1" stop-color="#d8d8d8"/></linearGradient><linearGradient x1="184.52932" y1="434.60084" x2="168.02336" y2="440.66789" gradientUnits="userSpaceOnUse" id="color-17"><stop offset="0" stop-color="#a4a4a4"/><stop offset="1" stop-color="#d8d8d8"/></linearGradient><linearGradient x1="235.08951" y1="644.50272" x2="235.08951" y2="660.45394" gradientUnits="userSpaceOnUse" id="color-18"><stop offset="0" stop-color="#a4a4a4"/><stop offset="1" stop-color="#d8d8d8"/></linearGradient><linearGradient x1="233.7464" y1="323.16" x2="233.7464" y2="666.15087" gradientUnits="userSpaceOnUse" id="color-19"><stop offset="0" stop-color="#0b2a00"/><stop offset="1" stop-color="#101800"/></linearGradient><linearGradient x1="237.21912" y1="179.05443" x2="237.21912" y2="194.31753" gradientUnits="userSpaceOnUse" id="color-20"><stop offset="0" stop-color="#a4a4a4"/><stop offset="1" stop-color="#d8d8d8"/></linearGradient><linearGradient x1="190.22466" y1="138.88817" x2="173.35485" y2="138.88817" gradientUnits="userSpaceOnUse" id="color-21"><stop offset="0" stop-color="#a4a4a4"/><stop offset="1" stop-color="#d8d8d8"/></linearGradient><linearGradient x1="237.16053" y1="188.39546" x2="237.16053" y2="335.02827" gradientUnits="userSpaceOnUse" id="color-22"><stop offset="0" stop-color="#0b2a00"/><stop offset="1" stop-color="#101800"/></linearGradient><linearGradient x1="71.39982" y1="153.49944" x2="406.66894" y2="153.49944" gradientUnits="userSpaceOnUse" id="color-23"><stop offset="0" stop-color="#0b2a00"/><stop offset="1" stop-color="#101800"/></linearGradient><radialGradient cx="237.5257" cy="134.49685" r="57.23689" gradientUnits="userSpaceOnUse" id="color-24"><stop offset="0" stop-color="#081800"/><stop offset="1" stop-color="#050900"/></radialGradient><radialGradient cx="240" cy="180.00001" r="251.5015" gradientUnits="userSpaceOnUse" id="color-25"><stop offset="0" stop-color="#000000" stop-opacity="0"/><stop offset="1" stop-color="#000000"/></radialGradient><radialGradient cx="192.77309" cy="60.89988" r="10.1498" gradientUnits="userSpaceOnUse" id="color-26"><stop offset="0" stop-color="#ffffff"/><stop offset="1" stop-color="#ffffff" stop-opacity="0"/></radialGradient><radialGradient cx="287.545" cy="60.89988" r="10.1498" gradientUnits="userSpaceOnUse" id="color-27"><stop offset="0" stop-color="#ffffff"/><stop offset="1" stop-color="#ffffff" stop-opacity="0"/></radialGradient></defs><g transform="translate(17.31387,14.44445)"><g data-paper-data="{&quot;isPaintingLayer&quot;:true}" fill-rule="nonzero" stroke-linecap="butt" stroke-linejoin="miter" stroke-miterlimit="10" stroke-dasharray="" stroke-dashoffset="0" style="mix-blend-mode: normal"><g data-paper-data="{&quot;index&quot;:null}"><path d="M393.83214,462.46171c-33.27893,-22.85461 -61.11106,-36.87289 -36.28802,-76.28311c22.49423,-35.71298 50.94665,-16.37386 84.22552,6.48074c33.27886,22.85461 59.71095,42.02252 36.28802,76.28315c-24.62608,36.02049 -50.94665,16.3739 -84.22552,-6.48074z" fill="#525252" stroke="#000000" stroke-width="0"/><path d="M358.6252,377.73821c3.29589,-2.78016 6.07605,0.51573 6.07605,0.51573l1.13781,1.54854c4.95702,3.68077 8.89402,8.90818 12.45168,14.44572c0.55815,-0.21739 1.14995,-0.44146 1.7834,-0.66713c2.86983,-1.02216 5.89691,-1.5331 8.84535,-2.29961c0,0 3.18254,-0.81587 4.70372,1.75476c0.73753,0.25857 1.22128,0.60764 1.22128,0.60764l1.74828,1.2616c4.80135,3.49295 8.43311,6.0581 9.69865,10.50383c4.1793,-0.83554 8.35861,-1.67109 12.53791,-2.50663c0,0 3.90963,-0.78168 4.96157,2.91773c0.31233,0.12713 0.61464,0.29324 0.9002,0.49933c0.27184,0.19613 0.51401,0.4181 0.72568,0.66009c1.24927,0.53768 1.99883,1.5788 1.99883,1.5788l2.65547,3.68873c2.84081,3.95337 7.12547,7.02915 8.94537,11.54439c0.67502,1.67467 0.89906,3.9349 0.90905,6.40162c2.04793,-0.16539 4.09745,-0.02771 6.06747,0.6603c7.80149,2.72443 12.92499,10.70857 16.95008,18.89721c7.71981,-1.18517 17.67141,0.877 20.02899,9.85101c0.83513,3.17882 -0.74911,6.41695 -1.76107,9.66184c0.80722,0.73994 1.4334,1.91422 1.13361,3.75517c-0.69314,4.25578 -4.94889,3.56267 -4.94889,3.56267c-1.90581,-0.34931 -3.81159,-0.69869 -5.7174,-1.048l-4.36737,-3.00934c0,0 -0.09419,-0.06799 -0.24055,-0.19716c-0.11635,-0.06841 -0.23052,-0.14285 -0.34221,-0.22342c-0.60527,-0.43674 -1.06362,-1.00141 -1.36478,-1.63032c-2.29706,-0.15201 -3.45604,-2.44291 -3.45604,-2.44291c-1.47406,-2.9137 -2.85191,-6.08649 -4.3003,-9.26514c-4.65168,-0.64431 -9.31639,-1.21343 -13.92313,-2.11693c-3.68583,-0.72292 -8.14422,-0.07627 -10.97769,-2.54189c-2.2423,-1.95123 -1.37468,-5.78543 -1.94448,-8.70271c-0.2798,-1.43257 -0.43716,-2.83578 -0.51583,-4.22672c-9.20011,1.15432 -25.17131,-5.65754 -29.8292,-13.7532c-3.0063,-5.22514 -1.66282,-7.84188 -1.73198,-11.69933c-1.74077,0.348 -3.44549,0.6888 -5.09122,1.01785c0,0 -0.48323,0.0966 -1.15563,0.06114c-0.9868,0.4211 -2.1129,0.46617 -3.14508,0.09749c-1.21449,0.33229 -2.56318,0.13223 -3.66371,-0.66192c-0.26198,-0.18903 -0.4964,-0.40201 -0.70248,-0.63377c-2.86897,0.9238 -4.7022,-1.83248 -4.7022,-1.83248c-1.81318,-2.72602 -3.59854,-5.88692 -5.46731,-9.11502c-4.91098,0.93917 -9.77788,0.54623 -14.70312,-3.32953c-1.73157,-1.36258 -4.08146,-2.35034 -4.95791,-4.37191c-1.30093,-3.00069 0.15904,-6.72939 -1.09384,-9.75044l0.59182,-2.22369c-0.10763,-1.01851 0.14519,-2.07881 0.79167,-2.9747c0.31892,-0.44191 0.706,-0.80553 1.13647,-1.08684c0.15308,-0.10887 0.32016,-0.21515 0.50009,-0.31289c0.06279,-0.91591 0.48051,-1.92266 1.60302,-2.86952zM365.10047,394.33515c1.73036,1.01444 3.14632,1.59217 4.42233,1.84905c-1.68642,-2.4527 -3.48967,-4.73946 -5.46696,-6.6707c0.0387,0.20295 0.06948,0.40762 0.09095,0.6144c0.12737,1.2249 -1.35369,2.3317 -1.08147,3.53279c0.15798,0.697 1.41865,0.31306 2.03515,0.6745zM389.2397,400.13533c-2.05162,0.60533 -4.08002,1.33242 -6.0918,2.0407c1.32091,2.19537 2.6299,4.34793 3.96643,6.38139c0.8118,-0.20088 1.67812,-0.16601 2.48678,0.12279c0.48933,-0.13389 1.00041,-0.18134 1.50829,-0.13833c0.46042,-0.18923 0.79343,-0.25585 0.79343,-0.25585l1.55736,-0.31133c1.48792,-0.29748 2.9758,-0.59493 4.46372,-0.89241c-1.00393,-2.05603 -3.4896,-3.11975 -6.37743,-5.18371l-1.74825,-1.26157c0,0 -0.24503,-0.17679 -0.5585,-0.50167zM419.64487,413.31276c-0.56873,-0.41041 -1.00779,-0.93369 -1.30858,-1.51711c-3.45221,0.69018 -7.10817,1.4211 -10.77302,2.15384c0.20329,0.66533 0.34969,1.33752 0.34028,2.0287c-0.03088,2.26712 -1.52845,4.94499 -0.22239,6.79835c3.42034,4.85356 15.63568,11.33824 21.50812,9.85676c0.39325,-0.09918 0.79395,-0.20581 1.20119,-0.31709c0.0253,-0.61516 0.04794,-1.2349 0.06431,-1.86056c0.03284,-1.25754 0.95048,-2.5951 0.44608,-3.74759c-1.63711,-3.7408 -5.44008,-6.11024 -7.82847,-9.42226l-2.48985,-3.45862c-0.3256,-0.12899 -0.64069,-0.30007 -0.93769,-0.51439zM452.6877,449.14071c-1.05876,-1.74174 -2.20426,-3.39204 -3.47193,-4.89698c-0.67839,-0.80535 -4.70372,-4.8119 -5.66998,-5.12078c-1.37212,-0.43864 -2.7295,-0.48565 -4.06465,-0.32091c-0.14112,2.0194 -0.24568,3.88772 -0.18086,5.39235c0.05624,1.30634 -1.4853,3.15646 -0.41052,3.90109c1.66533,1.15377 4.05982,-0.15553 6.07771,0.0253c2.58641,0.23176 5.15601,0.60334 7.72022,1.01995zM466.74737,458.01498c0.9848,2.20322 1.92428,4.2829 2.85494,6.12254c0,0 0.03219,0.06365 0.08013,0.17872c0.73112,0.07278 1.45335,0.33356 2.09208,0.79446c0.11166,0.08054 0.21832,0.16545 0.31988,0.25433c0.16866,0.09818 0.26288,0.16621 0.26288,0.16621l1.02667,0.79646c0.66475,-1.69959 1.2799,-3.3949 1.10683,-5.16466c-0.26633,-2.72385 -4.41196,-3.2747 -7.74342,-3.14808z" fill="#000000" stroke="none" stroke-width="0.5"/><g stroke="none" stroke-width="0"><path d="M478.24206,480.71009l-130.53717,-94.19924l8.83119,-12.23788l130.53717,94.19924z" fill="#000000"/><path d="M368.88869,428.38432l-6.99306,-5.04635l34.06309,-47.2032l6.9931,5.04641z" fill="url(#color-1)"/><path d="M460.48239,421.81063l6.99306,5.04638l-34.06312,47.20316l-6.99306,-5.04641z" data-paper-data="{&quot;index&quot;:null}" fill="url(#color-2)"/><path d="M472.66037,443.00566l-39.98799,-40.37735l-52.08733,-26.06679l6.72853,-9.32407l51.5046,25.64624l40.57072,40.79789z" fill="url(#color-3)"/><path d="M442.96479,485.38462l-51.5046,-25.64624l-40.57075,-40.79789l6.72853,-9.32407l41.15351,41.21837l50.92181,25.2257z" data-paper-data="{&quot;index&quot;:null}" fill="url(#color-4)"/><path d="M470.59366,465.3466c3.69772,-5.12406 10.84911,-6.28038 15.97317,-2.58272c5.12406,3.69772 6.28041,10.84911 2.58272,15.97317c-3.69769,5.12406 -10.84914,6.28038 -15.9732,2.58272c-5.12406,-3.69769 -6.28038,-10.84911 -2.58269,-15.97317z" fill="#000000"/></g><path d="M393.83214,462.46171c-33.27893,-22.85461 -61.11106,-36.87289 -36.28802,-76.28311c22.49423,-35.71298 50.94665,-16.37386 84.22552,6.48074c33.27886,22.85461 59.71095,42.02252 36.28802,76.28315c-24.62608,36.02049 -50.94665,16.3739 -84.22552,-6.48074z" fill="url(#color-5)" stroke="#000000" stroke-width="0"/></g><g><path d="M80.16791,460.16423c-33.27886,22.85461 -59.59943,42.5012 -84.22552,6.48074c-23.42293,-34.26063 3.00916,-53.42854 36.28802,-76.28311c33.27886,-22.85461 61.73128,-42.19376 84.22552,-6.48074c24.823,39.41026 -3.00909,53.42851 -36.28802,76.28311z" fill="#525252" stroke="#000000" stroke-width="0"/><path d="M115.37467,375.44074c1.12255,0.94686 1.54023,1.95358 1.60302,2.86952c0.17993,0.09774 0.347,0.20402 0.50009,0.31289c0.43047,0.28132 0.81752,0.6449 1.13647,1.08684c0.64648,0.89589 0.89926,1.9562 0.79167,2.97467l0.59182,2.22369c-1.25288,3.02105 0.20709,6.74976 -1.09384,9.75044c-0.87645,2.02157 -3.22635,3.00934 -4.95795,4.37191c-4.92528,3.87572 -9.79214,4.2687 -14.70312,3.32953c-1.86876,3.2281 -3.65413,6.389 -5.46731,9.11502c0,0 -1.83327,2.75628 -4.7022,1.83248c-0.20609,0.23176 -0.4405,0.44474 -0.70245,0.63377c-1.10053,0.79419 -2.44922,0.99421 -3.66371,0.66192c-1.03219,0.36868 -2.15828,0.3236 -3.14508,-0.09749c-0.6724,0.03546 -1.15563,-0.06114 -1.15563,-0.06114c-1.64572,-0.32901 -3.35045,-0.66985 -5.09122,-1.01785c-0.06917,3.85749 1.27432,6.4742 -1.73198,11.69933c-4.65788,8.09566 -20.62909,14.90752 -29.8292,13.7532c-0.07868,1.39098 -0.23603,2.79415 -0.51583,4.22672c-0.5698,2.91732 0.29786,6.75148 -1.94444,8.70271c-2.83344,2.46562 -7.29182,1.819 -10.97765,2.54189c-4.60674,0.9035 -9.27145,1.47262 -13.92313,2.11693c-1.44842,3.17865 -2.82624,6.35144 -4.3003,9.26514c0,0 -1.15897,2.2909 -3.45604,2.44291c-0.30117,0.62891 -0.75952,1.19357 -1.36478,1.63032c-0.11166,0.08054 -0.22587,0.15501 -0.34221,0.22342c-0.14636,0.12913 -0.24055,0.19716 -0.24055,0.19716l-4.36737,3.00934c-1.90581,0.34931 -3.81159,0.69869 -5.7174,1.048c0,0 -4.25574,0.69311 -4.94892,-3.56267c-0.29982,-1.84099 0.32639,-3.01526 1.13361,-3.75517c-1.01196,-3.24492 -2.5962,-6.48302 -1.76107,-9.66184c2.35758,-8.974 12.30918,-11.03617 20.02899,-9.85101c4.02508,-8.18864 9.14859,-16.17277 16.95008,-18.89721c1.97001,-0.68798 4.01953,-0.82565 6.06747,-0.6603c0.00999,-2.46676 0.23403,-4.72698 0.90905,-6.40162c1.81993,-4.51524 6.10459,-7.59102 8.94537,-11.54439l2.65547,-3.68873c0,0 0.74956,-1.04111 1.99883,-1.5788c0.21167,-0.242 0.45384,-0.46397 0.72568,-0.66009c0.28556,-0.20609 0.5879,-0.3722 0.9002,-0.49933c1.05193,-3.69941 4.96157,-2.91773 4.96157,-2.91773c4.17927,0.83554 8.35861,1.67109 12.53791,2.50663c1.26553,-4.4457 4.8973,-7.01088 9.69868,-10.50383l1.74828,-1.2616c0,0 0.48375,-0.34907 1.22128,-0.60764c1.52121,-2.57063 4.70372,-1.75476 4.70372,-1.75476c2.94844,0.76655 5.97549,1.27746 8.84535,2.29961c0.63346,0.22566 1.22525,0.44974 1.7834,0.66713c3.55767,-5.53754 7.49467,-10.76495 12.45168,-14.44572l1.13781,-1.54854c0,0 2.78016,-3.29589 6.07605,-0.51573zM108.89958,392.03771c0.61653,-0.36144 1.87714,0.0225 2.03515,-0.6745c0.27222,-1.20109 -1.20884,-2.30785 -1.08147,-3.53279c0.0215,-0.20678 0.05225,-0.41145 0.09095,-0.6144c-1.97729,1.93124 -3.7805,4.218 -5.46693,6.6707c1.27597,-0.25685 2.69194,-0.83461 4.42233,-1.84905zM84.76028,397.83778c-0.31351,0.32484 -0.5585,0.50167 -0.5585,0.50167l-1.74825,1.2616c-2.88782,2.06396 -5.3735,3.12768 -6.37743,5.18371c1.48792,0.29748 2.9758,0.59493 4.46372,0.89241l1.55736,0.31133c0,0 0.33301,0.06662 0.79343,0.25585c0.50791,-0.04297 1.01895,0.00445 1.50829,0.13833c0.80866,-0.2888 1.67498,-0.32367 2.48678,-0.12279c1.33653,-2.03346 2.64551,-4.18602 3.96643,-6.38139c-2.01178,-0.70827 -4.04021,-1.43536 -6.0918,-2.0407zM54.35518,411.01532c-0.29696,0.21432 -0.61205,0.38539 -0.93769,0.51439l-2.48985,3.45862c-2.38839,3.31202 -6.19136,5.68149 -7.8285,9.42226c-0.50439,1.1525 0.41324,2.49002 0.44612,3.74759c0.01637,0.62563 0.03901,1.24541 0.06431,1.86056c0.40724,0.11128 0.8079,0.21791 1.20119,0.31709c5.87241,1.48147 18.08779,-5.00323 21.50812,-9.85676c1.30606,-1.85336 -0.19151,-4.53123 -0.22239,-6.79835c-0.00941,-0.69118 0.13699,-1.36337 0.34028,-2.0287c-3.66488,-0.73271 -7.3208,-1.46366 -10.77302,-2.15384c-0.30079,0.58345 -0.73981,1.10673 -1.30858,1.51711zM29.0325,445.82325c2.01785,-0.18082 4.41237,1.12847 6.07771,-0.0253c1.07478,-0.74463 -0.46676,-2.59475 -0.41052,-3.90109c0.06482,-1.50463 -0.03974,-3.37291 -0.18089,-5.39235c-1.33515,-0.16473 -2.69249,-0.11772 -4.06465,0.32091c-0.96623,0.30889 -4.99158,4.31543 -5.66998,5.12078c-1.26767,1.50494 -2.41317,3.15525 -3.47193,4.89698c2.56425,-0.41662 5.13385,-0.78819 7.72022,-1.01995zM-0.49084,458.86555c-0.17307,1.76975 0.44209,3.46507 1.10683,5.16466l1.02667,-0.79646c0,0 0.09422,-0.06799 0.26288,-0.16621c0.10156,-0.08888 0.20826,-0.17379 0.31988,-0.25433c0.63873,-0.4609 1.36092,-0.72168 2.09208,-0.79446c0.0479,-0.11507 0.08013,-0.17872 0.08013,-0.17872c0.93069,-1.83964 1.87014,-3.91932 2.85498,-6.12254c-3.33146,-0.12662 -7.47709,0.42423 -7.74342,3.14808z" fill="#000000" stroke="none" stroke-width="0.5"/><g stroke="none" stroke-width="0"><path d="M-13.07328,466.17474l130.53717,-94.19924l8.83119,12.23788l-130.53717,94.19928z" fill="#000000"/><path d="M71.04813,378.88368l6.9931,-5.04641l34.06312,47.2032l-6.99306,5.04635z" fill="url(#color-6)"/><path d="M47.58074,466.71628l-6.99306,5.04641l-34.06312,-47.20316l6.99306,-5.04638z" data-paper-data="{&quot;index&quot;:null}" fill="url(#color-7)"/><path d="M-5.38886,431.38407l40.57072,-40.79786l51.5046,-25.64624l6.72853,9.32407l-52.08733,26.06679l-39.98799,40.37735z" fill="url(#color-8)"/><path d="M24.30673,473.763l50.92181,-25.2257l41.15351,-41.21837l6.72853,9.32407l-40.57075,40.79789l-51.5046,25.64624z" data-paper-data="{&quot;index&quot;:null}" fill="url(#color-9)"/><path d="M0.82366,479.02226c-5.12406,3.69769 -12.27548,2.54137 -15.9732,-2.58272c-3.69769,-5.12406 -2.54133,-12.27544 2.58276,-15.97317c5.12406,-3.69769 12.27544,-2.54137 15.97317,2.58272c3.69769,5.12406 2.54137,12.27548 -2.58272,15.97317z" fill="#000000"/></g><path d="M80.16791,460.16423c-33.27886,22.85461 -59.59943,42.5012 -84.22552,6.48074c-23.42293,-34.26063 3.00916,-53.42854 36.28802,-76.28311c33.27886,-22.85461 61.73128,-42.19376 84.22552,-6.48074c24.823,39.41026 -3.00909,53.42851 -36.28802,76.28311zM43.11702,411.29495c0.00596,0.23793 0.03022,0.52621 0.06407,0.85333l-0.04687,1.05676c-0.01137,0.12765 -0.0172,0.25685 -0.0172,0.38743c0,0.54444 0.10101,1.06534 0.28532,1.54489c0.02747,0.08081 0.05752,0.16287 0.09053,0.24565c0.12272,2.37698 -0.12631,4.98435 -1.99579,6.17568c-5.51214,3.51266 -15.35794,4.06313 -10.56152,14.63778c3.34648,7.37794 16.3098,9.6483 23.22277,8.00985c2.59058,-0.61402 5.05844,-2.71185 7.67394,-2.21453c1.92794,0.36661 14.77528,4.33773 16.67334,2.77327c8.61573,-7.10145 -2.51263,-25.35772 1.56777,-35.15159c4.1913,-8.7908 3.79801,-11.34713 -4.1048,-15.85213c-1.85901,-1.05976 -2.90285,-3.93496 -5.04235,-3.97315c-2.91894,-0.05207 -5.20032,2.67719 -7.91862,3.7419c-7.75138,3.03608 -13.77501,6.42836 -19.56261,12.67014l-0.17824,4.01805c-0.14967,0.61805 -0.14971,1.07671 -0.14971,1.07671z" fill="url(#color-10)" stroke="#000000" stroke-width="0"/><path d="M42.96118,411.22151c0,0 0.00558,-0.46941 0.15525,-1.08746l0.19943,-4.0479c5.7876,-6.24178 11.98761,-9.68569 19.73899,-12.72177c2.7183,-1.06472 5.03346,-3.78037 7.9524,-3.72826c2.1395,0.03818 3.21273,2.93321 5.07178,3.99296c7.90281,4.50501 8.34937,7.13987 4.15807,15.93067c-4.0804,9.79387 6.99331,28.23734 -1.62243,35.33879c-1.89806,1.56446 -14.81581,-2.37216 -16.74375,-2.73877c-2.6155,-0.49733 -5.13502,1.6044 -7.7256,2.21842c-6.91297,1.63845 -20.00163,-0.70104 -23.34811,-8.07898c-4.79642,-10.57465 5.02177,-11.18147 10.53391,-14.69413c1.86949,-1.19133 2.11441,-3.87283 1.99169,-6.24981c-0.03302,-0.08278 -0.06255,-0.16783 -0.09002,-0.24865c-0.18431,-0.47955 -0.28101,-1.01854 -0.28101,-1.56298c0,-0.13058 0.0072,-0.26429 0.01858,-0.39194l0.05118,-1.06851c-0.03384,-0.32712 -0.05442,-0.62374 -0.06038,-0.86167z" data-paper-data="{&quot;noHover&quot;:false,&quot;origItem&quot;:[&quot;Path&quot;,{&quot;applyMatrix&quot;:true,&quot;segments&quot;:[[[367.48181,262.68188],[0,0],[0.00346,0.13808]],[[367.51899,263.1771],[-0.01964,-0.18984],[0,0]],[[367.49179,263.79038],[0,0],[-0.0066,0.07408]],[[367.48181,264.01522],[0,-0.07578],[0,0.31596]],[[367.64739,264.91178],[-0.10696,-0.2783],[0.01594,0.0469]],[[367.69993,265.05434],[-0.01916,-0.04804],[0.07122,1.37946]],[[366.54169,268.63834],[1.08494,-0.69138],[-3.19892,2.03854]],[[360.41241,277.13324],[-2.78356,-6.1369],[1.9421,4.28172]],[[373.88953,281.78168],[-4.01188,0.95086],[1.50342,-0.35634]],[[378.34303,280.4965],[-1.51788,-0.28862],[1.11886,0.21276]],[[388.01925,282.10594],[-1.10152,0.90792],[5.00006,-4.12126]],[[388.92909,261.70604],[-2.36802,5.68378],[2.43238,-5.10166]],[[386.54691,252.5064],[4.58632,2.61444],[-1.07886,-0.61502]],[[383.62063,250.20062],[1.24164,0.02216],[-1.69398,-0.03022]],[[379.02513,252.3722],[1.57754,-0.6179],[-4.49844,1.76196]],[[367.67215,259.7252],[3.35878,-3.62236],[0,0]],[[367.56871,262.05704],[0,0],[-0.08686,0.35868]],[367.48183,262.6819]],&quot;closed&quot;:true,&quot;fillColor&quot;:[0,0,0,1]}]}" fill="#000000" stroke="none" stroke-width="0.5"/></g><g><path d="M361.51729,494.65542c17.0078,94.71432 -57.74449,171.49545 -128.97588,171.49545c-71.23143,0 -145.98368,-93.78897 -128.97588,-171.49545c20.251,-92.52405 18.0596,-171.49541 128.97591,-171.49541c116.58557,0 112.23582,78.27222 128.97588,171.49541z" fill="#000000" stroke="#000000" stroke-width="0"/><g stroke="none"><path d="M289.4283,663.94299c-4.81993,0 -4.81993,-4.81993 -4.81993,-4.81993v-0.80332c0.0072,-5.55598 0.74274,-12.45179 -1.82396,-17.77973c-2.0703,-4.29754 -8.81634,-4.2495 -12.23264,-7.95009c-0.69225,-0.74987 -5.81383,-11.25142 -5.97294,-12.11306c-0.26281,-1.42358 1.44612,-2.89175 0.92663,-4.24296c-0.7142,-1.85753 -3.0582,-2.61546 -4.1923,-4.25085c-1.37116,-1.97718 -2.15449,-4.30306 -3.23172,-6.45455c-2.81445,-3.36134 -7.67253,-5.30912 -9.16761,-9.43036c-2.72388,-7.50838 0.08695,-21.49444 0.34955,-29.46693c0.07347,-2.22979 0.63339,-6.47981 -0.9798,-8.74421c-4.88499,-6.85676 -13.42777,-11.24998 -15.79827,-19.92726c-2.02216,-7.40203 3.85718,-13.49548 7.05348,-18.73927c2.90126,-4.75972 1.98714,-12.34764 -0.23369,-17.04619c-1.33952,-2.83402 -2.66106,-4.34476 -4.29058,-5.59806c-1.09977,9.25708 -2.0722,19.37744 -5.41272,27.05548c-2.65227,6.09614 -10.97131,12.93816 -15.84342,17.11343c-1.53375,1.31437 -5.79201,3.0001 -6.72012,5.53833c-3.96839,10.85276 3.40372,12.65405 5.19367,22.81053c1.92156,10.90315 -11.09359,27.04842 -18.98829,33.69548c-0.52052,2.65854 2.62118,4.76913 3.52417,7.32325c1.29352,3.65878 1.62515,10.87413 -0.0886,14.70515c-4.08109,9.12309 -14.47718,13.27992 -17.44292,23.39498c-0.36913,1.25902 0.85953,8.40134 0.89158,8.62183l0.75818,3.75297c0,0 0.94527,4.72633 -3.78105,5.67163c-4.72633,0.94527 -5.67163,-3.78105 -5.67163,-3.78105l-0.8485,-4.28024c-1.59944,-11.35936 0.76845,-18.76408 8.36016,-27.93941c2.69862,-3.2616 6.97139,-5.32529 8.82809,-9.1297c2.9563,-6.05748 -3.33125,-9.87261 -4.29055,-14.8865c-0.51211,-2.67653 0.86632,-5.38084 1.29951,-8.07122c6.46145,-6.20129 14.28209,-15.63936 18.09413,-23.99063c2.3104,-5.06158 -5.22434,-11.18781 -6.40348,-14.80544c-1.27129,-3.90026 0.53369,-14.08483 1.82775,-17.1633c4.03153,-9.59047 18.50937,-12.55555 22.42262,-22.33443c2.42192,-6.0522 3.44928,-13.49473 4.31364,-20.782c-6.36816,0.8831 -12.87058,-1.12306 -18.70825,-7.40737c-2.01912,-2.17362 -3.79632,-4.58348 -5.3633,-7.10259c-0.76979,-1.23751 -0.47627,-3.13154 -1.58848,-4.07337c-1.96588,-1.66481 -4.97346,1.34631 -7.44749,2.06437c-4.92442,1.4293 -11.55514,4.66871 -16.78431,4.17448c-11.67218,-1.10318 -12.90721,-8.10672 -16.22016,-17.48028c-0.70286,-1.98856 -2.35489,-3.65633 -2.65323,-5.74425c-0.36572,-2.55957 1.90815,-12.61231 2.35923,-14.83597c-0.01354,-3.4122 1.49447,-6.97756 0.45225,-10.22672c-0.78547,-2.44873 -4.65282,-2.20805 -6.86783,-3.51456c-3.13247,-1.84764 -9.46268,-6.02453 -10.82664,-9.51848c-1.90147,-4.87086 -0.05435,-12.09482 3.54447,-15.74292c1.56356,-1.585 4.3094,-1.42558 6.06857,-2.79029c8.02294,-6.22403 12.88057,-20.50447 -1.47127,-23.38381c-3.5261,-0.70738 -7.20391,-0.21749 -10.76516,-0.71889c0,0 -4.77154,-0.68163 -4.08987,-5.45314c0.68167,-4.77151 5.45318,-4.08987 5.45318,-4.08987c3.84302,0.55798 7.84928,-0.06196 11.61666,0.87983c12.1939,3.04848 21.19462,16.77866 15.11677,28.57683c-1.05934,2.05634 -9.8062,11.67955 -10.19329,11.98727c-1.59334,1.26674 -8.69131,2.37764 -6.37394,7.04596c3.15428,6.35434 14.31776,5.61108 17.47687,12.54615c0.63594,1.39604 0.45952,13.22961 0.45225,15.35253c-0.81194,4.11403 -3.14712,8.20911 -2.43684,12.34192c0.24868,1.44691 1.65499,2.46324 2.14284,3.84791c0.92518,2.62611 0.9889,5.52558 2.06437,8.09383c1.51697,3.62242 6.10503,3.35668 9.05757,2.53754c6.68855,-1.8557 18.30738,-8.21183 25.16359,-4.2871c2.48447,1.42227 3.1558,4.77843 4.80635,7.11751c4.02071,5.698 10.3687,11.96273 17.14865,10.53323c0.20447,-1.46924 0.42596,-2.90068 0.67657,-4.27904c0,0 0.25426,-1.39859 1.24616,-2.53861l-2.92949,-2.10118c0,0 -3.76375,-3.01099 -0.75276,-6.77474c3.01099,-3.76375 6.77474,-0.75273 6.77474,-0.75273l4.93944,4.20425c0.31633,1.19309 0.79639,2.15928 1.41041,2.92911l1.23059,-1.54306c0.37133,-0.4741 0.82951,-0.8769 1.35062,-1.18444c1.21791,-0.7822 3.17124,-1.39628 5.39249,0.33904c0.03856,0.02981 0.07664,0.06021 0.11424,0.09112c1.85532,1.51146 2.02178,3.20684 1.72912,4.51838c6.20094,-1.14495 13.28295,-4.82916 16.94587,-6.65857c1.9685,-0.98315 3.46696,-2.72967 5.35427,-3.86084c2.15191,-1.28979 4.47385,-2.27239 6.72536,-3.37919c2.05772,-1.01154 10.0453,-4.67605 7.98807,-8.51296c-1.87683,-3.5005 -5.57028,-5.72784 -7.7643,-9.03876c-2.70858,-8.39172 -4.15673,-26.79798 3.90963,-33.20566c4.54847,-3.61315 9.83853,-1.10008 14.2275,-6.27659c5.40141,-6.37064 -1.36544,-14.39678 0.9115,-21.2032c0.7416,-2.2168 3.47513,-3.13392 5.08836,-4.82558c9.05775,-9.49787 20.93294,-9.49256 32.39307,-15.25724c0,0 4.31109,-2.15553 6.46665,2.15556c2.15556,4.31109 -2.15556,6.46661 -2.15556,6.46661c-5.68604,2.82792 -11.62138,5.11527 -17.78004,6.76154c-2.89561,0.77403 -6.12513,0.36206 -8.67311,2.38432c-1.46307,1.16115 -2.13351,3.10345 -3.50305,4.3735c-0.80701,0.74839 -2.55991,0.52417 -2.90512,1.56925c-0.99131,3.0011 1.98928,6.11827 1.95206,9.27862c-0.06021,5.11065 -0.93138,10.15993 -4.23789,14.28175c-2.44188,3.04397 -8.07326,6.84098 -11.93347,8.00295c-1.34559,0.40507 -2.94717,-0.49867 -4.21439,0.10876c-0.67984,0.32588 -0.49192,1.43805 -0.57539,2.18734c-0.65496,5.88154 -2.31602,13.30415 -0.31109,18.96272c2.42961,3.61198 7.01498,5.96339 8.22272,10.14559c4.86321,16.8409 -22.81194,26.13241 -33.82919,30.77178c-4.87407,2.05248 -10.70154,4.16486 -16.11856,4.51324c7.4368,8.76837 10.29106,20.59766 4.20263,31.81024c-1.66337,3.06323 -7.2678,7.08129 -5.7997,11.78707c2.94565,9.4418 15.09837,12.54945 16.89955,23.46029c1.30265,7.89105 -0.32088,17.03937 -0.74132,24.98742c-0.13206,2.49643 -1.25064,5.11651 -0.45384,7.48602c0.49788,1.48065 2.74149,1.5657 3.86328,2.65282c1.73932,1.6856 3.09487,3.72664 4.64227,5.58996c2.37364,4.7539 6.73463,8.43515 8.64247,13.39437c0.65107,1.69228 -0.94062,3.60257 -0.68005,5.397c0.38564,2.65561 1.91774,5.13178 3.66698,7.16672c2.72364,3.16845 5.42233,1.52293 8.78336,4.05613c8.58065,6.46723 7.67501,18.72583 7.68635,28.05345v0.80332c0,0 0,4.81993 -4.81993,4.81993z" fill="#000000" stroke-width="0.5"/><path d="M242.25412,202.84807c0.80043,-0.67147 3.70038,-2.70648 6.60036,0.19344c3.40824,3.4082 0,6.81648 0,6.81648l-4.61322,2.6167c-1.41034,-0.01206 -2.82069,-0.02405 -4.231,-0.03612c-4.44491,0.33608 -5.42533,6.94995 -5.40889,10.88099c0.02981,7.12902 2.04473,14.08149 6.32011,20.07648c4.61601,6.47261 8.25512,6.45645 9.32125,15.59818c0.47541,4.07647 -0.53786,8.20842 -1.27143,12.24639c-2.15149,11.84297 -3.27494,22.75632 -6.63948,34.3229c-0.99097,3.40665 -0.70062,7.21752 -2.27249,10.39813c-3.37826,6.83578 -12.11791,12.86765 -16.48821,19.54052c0.09729,3.48885 0.13323,12.20638 1.17796,15.28516c6.37522,18.78707 29.92235,38.21965 24.21367,60.27431c-0.95148,3.67584 -2.40862,7.30647 -4.54685,10.44417c-2.87783,4.22297 -8.24467,6.14997 -11.66945,9.94285c-3.21818,3.56411 -7.17558,9.0441 -7.81079,14.08614c-0.96219,7.63772 4.28217,15.63802 12.07563,15.16716c0,0 4.81993,0.00003 4.81993,4.81996c0,4.81993 -4.81993,4.81996 -4.81993,4.81996c-13.40178,-0.44588 -23.26905,-11.86717 -21.66403,-25.80239c0.8463,-7.34724 5.51059,-14.21434 10.23413,-19.53986c5.39952,-6.08763 11.97958,-7.56607 13.93826,-15.87619c2.38226,-10.10737 -5.44966,-21.29487 -9.79456,-29.58379c-4.18957,-7.99265 -11.30346,-17.204 -14.11681,-25.69039c-2.04411,-6.16603 -1.40383,-14.65553 -1.30644,-20.9947c1.97177,-3.25971 3.64379,-6.72071 5.91528,-9.77912c3.23062,-4.34986 9.03662,-6.74366 11.33613,-11.64988c1.22225,-2.60778 0.73429,-5.73332 1.5086,-8.50728c2.40986,-8.63355 4.00889,-15.85055 5.19505,-24.79447c0.75201,-5.67019 4.71209,-16.58619 1.7346,-22.40518c-1.45783,-2.84905 -5.02884,-4.08274 -6.89043,-6.68597c-2.98404,-4.17279 -7.13329,-12.62889 -8.05275,-17.57164c-1.40559,-7.55618 -0.15002,-21.07762 6.53699,-26.36099c1.98304,-1.5668 4.83133,-1.48606 7.24702,-2.22907c1.14057,-0.00762 2.28111,-0.0152 3.42168,-0.02281z" fill="#000000" stroke-width="0.5"/><path d="M229.76636,371.39018v-175.82149h17.94098v175.82149z" fill="#000000" stroke-width="0"/><path d="M220.18092,648.71845v-147.95514h33.57269v147.95514z" fill="url(#color-11)" stroke-width="0"/><path d="M208.99005,501.12296v-51.15836h54.35575v51.15836z" fill="url(#color-12)" stroke-width="0"/><path d="M267.28142,492.80733v-118.87626h14.45985v118.87626z" data-paper-data="{&quot;index&quot;:null}" fill="url(#color-13)" stroke-width="0"/><path d="M190.60357,496.06435v-120.47498h14.45985v120.47498z" data-paper-data="{&quot;index&quot;:null}" fill="url(#color-14)" stroke-width="0"/><path d="M191.76534,506.83623v-15.6648h88.5722v15.6648z" fill="url(#color-15)" stroke-width="0"/><path d="M262.41287,498.64028l47.70914,-129.79691l16.50599,6.06702l-47.70914,129.79698z" fill="url(#color-16)" stroke-width="0"/><path d="M191.87793,505.56635l-47.70914,-129.79695l16.50596,-6.06709l47.70918,129.79695z" data-paper-data="{&quot;index&quot;:null}" fill="url(#color-17)" stroke-width="0"/><path d="M127.75777,383.67679v-15.66483h220.46485v15.66483z" fill="#000000" stroke-width="0"/><path d="M138.64731,376.86417c0,7.06354 -5.72608,12.78959 -12.78955,12.78959c-7.06351,0 -12.78962,-5.72605 -12.78962,-12.78959c0,-7.06354 5.72608,-12.78959 12.78962,-12.78959c7.06351,0 12.78955,5.72608 12.78955,12.78959z" fill="#000000" stroke-width="0"/><path d="M358.52798,376.92383c0,7.06354 -5.72608,12.78959 -12.78955,12.78959c-7.06351,0 -12.78955,-5.72608 -12.78955,-12.78959c0,-7.06354 5.72608,-12.78955 12.78955,-12.78955c7.06351,0 12.78955,5.72608 12.78955,12.78955z" fill="#000000" stroke-width="0"/><path d="M177.8764,660.45394v-15.95118h114.42619v15.95118z" fill="url(#color-18)" stroke-width="0"/><path d="M193.06268,652.69136c0,9.27083 -7.51552,16.78631 -16.78631,16.78631c-9.27083,0 -16.78634,-7.51545 -16.78634,-16.78631c0,-9.27083 7.51548,-16.78631 16.78634,-16.78631c9.27083,0 16.78631,7.51552 16.78631,16.78631z" fill="#000000" stroke-width="0"/><path d="M308.74141,653.49468c0,9.27083 -7.51552,16.78631 -16.78631,16.78631c-9.27086,0 -16.78634,-7.51548 -16.78634,-16.78631c0,-9.27083 7.51548,-16.78634 16.78634,-16.78634c9.27086,0 16.78631,7.51552 16.78631,16.78634z" fill="#000000" stroke-width="0"/></g><path d="M362.72228,494.65542c17.0078,94.71432 -57.74449,171.49545 -128.97588,171.49545c-71.23143,0 -145.98368,-93.78897 -128.97588,-171.49545c20.251,-92.52405 18.05963,-171.49541 128.97595,-171.49541c116.58561,0 112.23585,78.27222 128.97588,171.49541zM304.14866,508.59905c-0.763,2.01995 0.01189,4.46993 -0.93659,6.40972c-3.29124,6.73094 -12.37194,4.87407 -17.4665,9.13987c-1.52896,1.28025 -1.68232,3.64827 -2.87531,5.24623c-5.14256,6.88816 -9.94164,6.07881 -11.13091,15.87936c-0.29383,2.42123 -0.359,4.90153 -0.02095,7.31698c0.09229,0.65951 1.91867,1.43991 1.26174,1.54892c-4.86283,0.80677 -18.12342,0.35651 -13.6577,12.50593c1.30689,3.55553 6.20018,4.35392 9.30026,6.53085c8.04207,5.25329 15.08944,8.82164 24.62725,11.13404c2.21759,0.53765 4.59478,1.96657 6.74097,1.19158c13.96662,-5.04328 14.29412,-20.61096 24.00304,-28.56822c3.69114,-3.02519 12.65412,-3.57745 15.40061,-7.77261c1.64407,-2.51125 -0.3459,-6.10011 0.45339,-8.9933c0.43223,-1.56456 2.28411,-2.35851 3.07444,-3.7763c10.52378,-18.87939 8.23778,-40.96211 -14.6761,-46.66276l-5.12134,-0.03229c0,0 -4.27128,0 -4.30757,4.25316c-6.59254,2.72943 -11.87764,7.25984 -14.66869,14.64877zM156.92708,418.92939l-1.53786,0.78189c-0.4303,0.0965 -0.8689,0.27098 -1.28438,0.56067c-4.53292,1.79798 -7.08859,2.60637 -8.93727,5.27859c-0.09515,-0.02874 -0.19168,-0.05428 -0.28945,-0.07651l-0.21012,-0.36768l-0.47155,0.26946c-0.09146,-0.00579 -0.18372,-0.00875 -0.27663,-0.00875c-0.98546,0 -1.89365,0.33091 -2.6195,0.88769l-4.52007,3.39008c-1.0691,0.78388 -1.76324,2.04904 -1.76324,3.47634c0,0.74287 0.18806,1.44184 0.51914,2.0519l-0.33429,0.14602c0.00482,3.14532 -0.84388,6.40999 0.01444,9.43594c1.86222,6.56514 6.70223,7.04927 9.30336,12.95229c2.83709,6.43853 -0.81711,16.71473 -0.17948,23.57822c1.67271,18.00501 16.36104,31.98211 31.45211,40.90269c5.20443,0.79178 10.99647,4.75283 15.63095,2.25595c2.92304,-1.57483 4.92376,-4.80349 6.01584,-7.93903c0.78499,-2.25378 -0.16825,-12.94147 0.16077,-16.3017c0.79109,-8.07949 7.00912,-14.13876 7.99417,-22.07572c0.49009,-3.94878 1.37178,-8.54291 -0.74198,-11.9141c-2.3043,-3.67512 -9.29633,-1.14536 -12.28668,-4.28769c-3.84388,-4.03925 -3.59451,-14.13928 -5.89416,-18.48111c-4.55705,-8.60394 -14.4248,-16.23743 -23.46639,-21.06711c-0.0683,-0.46859 -0.22525,-0.97584 -0.49822,-1.5218c-1.92652,-3.85301 -5.77954,-1.92652 -5.77954,-1.92652z" fill="url(#color-19)" stroke="#000000" stroke-width="0"/><path d="M162.68053,420.68557c0.27298,0.54596 0.43082,1.05307 0.49912,1.52166c9.04158,4.82968 19.01972,12.48384 23.57677,21.08778c2.29965,4.34183 2.12224,14.52092 5.96612,18.56013c2.99035,3.14233 9.99527,0.65541 12.29957,4.33052c2.11376,3.37119 1.23166,8.0236 0.74156,11.97238c-0.98504,7.93696 -7.25367,14.09048 -8.04476,22.16997c-0.32901,3.36023 0.59417,14.07091 -0.19082,16.32468c-1.09208,3.13554 -3.11813,6.37674 -6.04117,7.95157c-4.63448,2.49688 -10.47219,-1.4529 -15.67662,-2.24468c-15.09106,-8.92059 -29.9595,-23.01065 -31.63221,-41.01566c-0.63763,-6.86348 3.02732,-17.28047 0.19023,-23.719c-2.60113,-5.90301 -7.42646,-6.40968 -9.28868,-12.97486c-0.85832,-3.02595 0.00731,-6.30957 0.00248,-9.45489l0.33511,-0.14684c-0.33108,-0.61006 -0.51663,-1.31133 -0.51663,-2.05421c0,-1.4273 0.703,-2.70003 1.7721,-3.48392l4.53468,-3.40059c0.72585,-0.55678 1.64141,-0.89217 2.62687,-0.89217c0.09291,0 0.18582,0.00258 0.27732,0.00837l0.47307,-0.27032l0.21015,0.36765c0.09777,0.02223 0.19492,0.04742 0.29007,0.07616c1.84867,-2.67222 4.43484,-3.49367 8.96777,-5.29162c0.41548,-0.28969 0.85832,-0.46545 1.28862,-0.56195l1.54299,-0.7833c0,0 3.86976,-1.92994 5.79632,1.92308z" data-paper-data="{&quot;noHover&quot;:false,&quot;origItem&quot;:[&quot;Path&quot;,{&quot;applyMatrix&quot;:true,&quot;segments&quot;:[[433.53043,267.11246],[[432.63795,267.56622],[0,0],[-0.24972,0.056]],[[431.89257,267.8916],[0.24112,-0.16812],[-2.63064,1.04344]],[[426.70591,270.95498],[1.07286,-1.5508],[-0.05522,-0.01668]],[[426.53793,270.91058],[0.05674,0.0129],[0,0]],[426.41599,270.6972],[[426.14233,270.85358],[0,0],[-0.05308,-0.00336]],[[425.98179,270.8485],[0.05392,0],[-0.5719,0]],[[424.46159,271.36366],[0.42124,-0.32312],[0,0]],[[421.83841,273.33106],[0,0],[-0.62044,0.45492]],[[420.81513,275.34852],[0,-0.82832],[0,0.43112]],[[421.11641,276.53932],[-0.19214,-0.35404],[0,0]],[[420.92241,276.62406],[0,0],[0.0028,1.82536]],[[420.93079,282.10012],[-0.49812,-1.75608],[1.08072,3.81002]],[[426.32991,289.61686],[-1.50954,-3.42576],[1.64648,3.73654]],[[426.22575,303.30026],[-0.37004,-3.98316],[0.97074,10.44904]],[[444.47869,327.03776],[-8.75796,-5.17698],[3.02034,0.4595]],[[453.54997,328.34698],[-2.68958,1.44904],[1.69636,-0.91394]],[[457.04121,323.73964],[-0.63378,1.81968],[0.45556,-1.30796]],[[457.13451,314.2791],[-0.19094,1.95008],[0.4591,-4.68886]],[[461.77385,301.46766],[-0.57166,4.60614],[0.28442,-2.29164]],[[461.34325,294.55342],[1.2267,1.95644],[-1.33728,-2.13282]],[[454.21279,292.0651],[1.73542,1.82362],[-2.23076,-2.34414]],[[450.79217,281.33976],[1.33458,2.51974],[-2.64464,-4.99322]],[[437.17367,269.11366],[5.2472,2.80286],[-0.03964,-0.27194]],[[436.88453,268.2305],[0.15842,0.31684],[-1.11804,-2.23606]]],&quot;closed&quot;:true,&quot;fillColor&quot;:[0,0,0,1]}]}" fill="#000000" stroke="none" stroke-width="0.5"/><path d="M304.15145,508.42671c2.79105,-7.38893 8.12974,-11.9099 14.72228,-14.63933c0.03629,-4.25316 4.31591,-4.25002 4.31591,-4.25002l5.13519,0.03863c22.91388,5.70065 25.29359,27.93093 14.76981,46.81033c-0.79033,1.41779 -2.64252,2.22921 -3.07475,3.79377c-0.79929,2.8932 1.18286,6.523 -0.46121,9.03424c-2.74649,4.19516 -11.74841,4.81324 -15.43955,7.83843c-9.70892,7.95726 -10.17482,23.57828 -24.14144,28.6216c-2.14619,0.77499 -4.54774,-0.65758 -6.76534,-1.19523c-9.53781,-2.3124 -16.66869,-5.92635 -24.71076,-11.17964c-3.10008,-2.17693 -8.01657,-3.00375 -9.32345,-6.55928c-4.46572,-12.14941 9.09114,-11.87458 13.95397,-12.68134c0.65692,-0.109 -1.47761,-0.7354 -1.56991,-1.3949c-0.33804,-2.41544 -0.28432,-4.92876 0.00951,-7.34999c1.18927,-9.80055 5.99603,-9.09483 11.13859,-15.98299c1.19299,-1.59796 1.36892,-4.00599 2.89788,-5.28624c5.09456,-4.2658 14.30911,-2.47727 17.60035,-9.20821c0.94848,-1.93979 0.17993,-4.3898 0.94293,-6.40975z" data-paper-data="{&quot;noHover&quot;:false,&quot;origItem&quot;:[&quot;Path&quot;,{&quot;applyMatrix&quot;:true,&quot;segments&quot;:[[[518.96911,319.15142],[0,0],[-0.4428,1.17226]],[[518.42557,322.87124],[0.55044,-1.12574],[-1.91004,3.90624]],[[508.28905,328.17548],[2.95658,-2.47562],[-0.88732,0.74298]],[[506.62039,331.22008],[0.69234,-0.92736],[-2.98444,3.99748]],[[500.16067,340.43552],[0.69018,-5.68766],[-0.17052,1.40514]],[[500.14851,344.68186],[-0.19618,-1.40178],[0.05356,0.38274]],[[500.88075,345.58076],[0.38124,-0.06326],[-2.8221,0.4682]],[[492.95463,352.83846],[-2.59164,-7.0508],[0.75844,2.06342]],[[498.35195,356.62858],[-1.7991,-1.26336],[4.66714,3.0487]],[[512.64415,363.09012],[-5.53518,-1.34198],[1.28696,0.31202]],[[516.55621,363.78164],[-1.24552,0.44976],[8.1054,-2.92682]],[[530.48615,347.20234],[-5.63448,4.61792],[2.14212,-1.75564]],[[539.42375,342.69158],[-1.5939,2.43462],[0.95412,-1.45738]],[[539.68687,337.4724],[-0.46386,1.67904],[0.25084,-0.90798]],[[541.47109,335.28086],[-0.45866,0.8228],[6.10738,-10.95648]],[[532.95395,308.20056],[13.29786,3.30832],[0,0]],[529.98183,308.18182],[[527.48197,310.6501],[0.02106,-2.46828],[-3.82592,1.584]],[[518.96913,319.15138],[1.61976,-4.2881],[0,0]]],&quot;closed&quot;:true,&quot;fillColor&quot;:[0,0,0,1]}]}" fill="#000000" stroke="none" stroke-width="0.5"/></g><path d="M405.52606,198.83253c0,40.34695 -332.57633,36.73201 -334.98629,0c-3.32563,-50.68846 25.85801,-95.59056 70.36459,-122.62313c27.79529,-16.88239 167.07567,-16.48018 194.5183,1.04545c42.44396,27.10587 70.1034,71.46026 70.1034,121.57771z" fill="#000000" stroke="#000000" stroke-width="0"/><g stroke-width="0"><path d="M184.16394,147.21724v-15.26314h106.84212v15.26314z" fill="#000000" stroke="none"/><path d="M196.83164,286.22874v-98.77135h10.22348v98.77138z" fill="#000000" stroke="none"/><path d="M268.76193,283.06218v-95.9692h10.22351v95.9692z" data-paper-data="{&quot;index&quot;:null}" fill="#000000" stroke="none"/><path d="M183.79806,194.31753v-15.26314h106.84216v15.26314z" fill="url(#color-20)" stroke="none"/><path d="M284.21361,194.31753v-110.85873h16.86978v110.85873z" fill="#000000" stroke="#000000"/><path d="M173.35485,194.31753v-110.85873h16.86985v110.85873z" data-paper-data="{&quot;index&quot;:null}" fill="url(#color-21)" stroke="#000000"/><g fill="#000000" stroke="none"><g data-paper-data="{&quot;index&quot;:null}"><path d="M272.90591,229.73982v13.25487h-10.44317v-13.25487z"/><path d="M258.44606,229.73982v13.25487h-10.44324v-13.25487z"/><path d="M243.98624,229.33816v13.25483h-10.44321v-13.25483z"/><path d="M229.52636,229.33816v13.25483h-10.44324v-13.25483z"/><path d="M215.33435,229.07039v13.25483h-10.44324v-13.25483z"/></g><path d="M279.04503,214.47159v18.47642h-81.9391v-18.47642z" data-paper-data="{&quot;index&quot;:null}"/></g><g fill="#000000" stroke="#000000"><g><path d="M288.79974,9.78202c28.61632,0 51.81442,23.19809 51.81442,51.81442c0,28.61632 -23.19813,51.81445 -51.81442,51.81445c-28.61632,0 -51.81442,-23.19813 -51.81442,-51.81445c0,-28.61632 23.19809,-51.81442 51.81442,-51.81442z"/></g><g data-paper-data="{&quot;index&quot;:null}"><path d="M236.98536,60.39146c0,28.61632 -23.19809,51.81442 -51.81442,51.81442c-28.61632,0 -51.81442,-23.19809 -51.81442,-51.81442c0,-28.61632 23.19809,-51.81442 51.81442,-51.81442c28.61632,0 51.81442,23.19809 51.81442,51.81442z"/></g></g></g><g stroke-width="0"><g fill="#000000" stroke="none"><g><path d="M262.46273,279.13921v-13.25483h10.44317v13.25483z"/><path d="M248.00288,279.13921v-13.25483h10.44324v13.25483z"/><path d="M233.54304,279.54087v-13.25487h10.44321v13.25487z"/><path d="M219.08319,279.54087v-13.25487h10.44328v13.25487z"/><path d="M204.89111,279.80865v-13.25487h10.44324v13.25487z"/></g><path d="M197.10596,294.40741v-18.47642h81.9391v18.47642z"/></g><path d="M238.03295,334.99939c-50.29903,1.57583 -172.89573,-61.51296 -167.49314,-137.03039c0.61991,-8.66494 -11.85989,-3.16455 21.17084,-7.6413c31.56215,-4.27769 42.5928,99.20103 145.11736,98.37155c117.82653,-0.9533 108.98438,-104.38757 139.69727,-100.17876c31.8262,4.36137 29.00082,0.09002 29.00082,9.44852c0,75.67981 -107.57242,135.15311 -167.49311,137.03039z" data-paper-data="{&quot;index&quot;:null}" fill="url(#color-22)" stroke="#000000"/></g><g stroke="#000000" stroke-width="0"><path d="M406.66894,198.83122c0,40.34695 -332.57629,36.73194 -334.98625,0c-3.233,-49.27608 21.4453,-91.87874 63.86865,-119.11705c0.31664,-0.20329 29.76534,30.38842 51.33115,30.38842c6.52575,0 12.76646,-1.22056 18.5062,-3.44594c2.48358,-0.96288 5.11758,-1.77971 7.86524,-2.45711c-0.08536,0.90791 -0.13027,1.80122 -0.12186,2.67653c0.02743,2.84939 3.63907,10.83398 4.81876,14.0066c0.75039,2.01802 0.50894,4.6624 2.10628,6.10596c3.38412,3.05834 9.99882,1.23975 12.79927,4.84016c4.90433,6.30533 0.66395,17.84059 4.95857,24.26847c1.93497,2.89609 4.92924,4.92228 7.3939,7.38342c11.93457,3.04397 27.61436,9.00333 40.22078,4.91963c3.94806,-1.2789 5.5506,-6.3247 9.06085,-8.53854c7.78653,-4.91084 20.37596,-6.12788 25.69456,-15.66156c2.54892,-4.56901 -2.40328,-10.97307 -3.11121,-14.76557c-0.52766,-2.82665 2.68566,-5.08581 3.9718,-7.6576c3.20253,-6.40396 4.82465,-11.913 -0.61836,-17.94711c-0.58731,-0.6511 -1.31578,-1.10897 -2.11476,-1.47021c13.83087,-9.31094 20.75463,-23.47893 21.31265,-23.10529c40.7087,27.25812 67.04375,70.67389 67.04375,119.57671z" fill="url(#color-23)"/><path d="M237.5257,77.25996c25.62157,0 46.39198,25.62584 46.39198,57.23689c0,31.61105 -20.77042,57.23689 -46.39198,57.23689c-25.6216,0 -46.39195,-25.62584 -46.39195,-57.23689c0,-31.61105 20.77038,-57.23689 46.39195,-57.23689z" fill="url(#color-24)"/></g><path d="M-11.5015,374.44445v-388.88889h503.003v388.88889z" fill="url(#color-25)" stroke="none" stroke-width="0"/><g stroke="none" stroke-width="0"><path d="M198.99185,60.89988c0,3.50815 -2.78426,6.35206 -6.21876,6.35206c-3.43453,0 -6.21876,-2.84392 -6.21876,-6.35206c0,-3.50815 2.78426,-6.35206 6.21876,-6.35206c3.43453,0 6.21876,2.84392 6.21876,6.35206zM192.73505,66.36839c3.00944,0 5.44907,-2.43964 5.44907,-5.44907c0,-3.00944 -2.43964,-5.44907 -5.44907,-5.44907c-3.00944,0 -5.44907,2.43964 -5.44907,5.44907c0,3.00944 2.43964,5.44907 5.44907,5.44907z" fill="#ffffff"/><path d="M202.92289,60.89988c0,5.7257 -4.54423,10.36729 -10.1498,10.36729c-5.60557,0 -10.1498,-4.64162 -10.1498,-10.36729c0,-5.7257 4.54423,-10.36732 10.1498,-10.36732c5.60557,0 10.1498,4.64162 10.1498,10.36732z" fill="url(#color-26)"/></g><g stroke="none" stroke-width="0"><path d="M293.76376,60.89988c0,3.50815 -2.78426,6.35206 -6.21876,6.35206c-3.43453,0 -6.21876,-2.84392 -6.21876,-6.35206c0,-3.50815 2.78426,-6.35206 6.21876,-6.35206c3.43453,0 6.21876,2.84392 6.21876,6.35206zM287.50695,66.36839c3.00944,0 5.44907,-2.43964 5.44907,-5.44907c0,-3.00944 -2.43964,-5.44907 -5.44907,-5.44907c-3.00944,0 -5.44907,2.43964 -5.44907,5.44907c0,3.00944 2.43964,5.44907 5.44907,5.44907z" fill="#ffffff"/><path d="M297.69479,60.89988c0,5.7257 -4.54423,10.36729 -10.1498,10.36729c-5.60557,0 -10.1498,-4.64162 -10.1498,-10.36729c0,-5.7257 4.54423,-10.36732 10.1498,-10.36732c5.60557,0 10.1498,4.64162 10.1498,10.36732z" fill="url(#color-27)"/></g></g></g></svg>