<svg version="1.1" xmlns="http://www.w3.org/2000/svg" xmlns:xlink="http://www.w3.org/1999/xlink" width="851.04927" height="642.21943" viewBox="0,0,851.04927,642.21943"><defs><linearGradient x1="519.37559" y1="264.48195" x2="526.24424" y2="262.2822" gradientUnits="userSpaceOnUse" id="color-1"><stop offset="0" stop-color="#a4a4a4"/><stop offset="1" stop-color="#d8d8d8"/></linearGradient><linearGradient x1="492.97042" y1="254.429" x2="624.03635" y2="260.20891" gradientUnits="userSpaceOnUse" id="color-2"><stop offset="0" stop-color="#0b2a00"/><stop offset="1" stop-color="#101800"/></linearGradient><linearGradient x1="427.7713" y1="290.05662" x2="431.9617" y2="301.96218" gradientUnits="userSpaceOnUse" id="color-3"><stop offset="0" stop-color="#a4a4a4"/><stop offset="1" stop-color="#d8d8d8"/></linearGradient><linearGradient x1="392.44886" y1="309.17927" x2="399.25202" y2="306.7847" gradientUnits="userSpaceOnUse" id="color-4"><stop offset="0" stop-color="#a4a4a4"/><stop offset="1" stop-color="#d8d8d8"/></linearGradient><linearGradient x1="461.41528" y1="284.26804" x2="454.61205" y2="286.66259" gradientUnits="userSpaceOnUse" id="color-5"><stop offset="0" stop-color="#a4a4a4"/><stop offset="1" stop-color="#d8d8d8"/></linearGradient><linearGradient x1="416.32456" y1="264.77577" x2="419.51728" y2="273.84673" gradientUnits="userSpaceOnUse" id="color-6"><stop offset="0" stop-color="#a4a4a4"/><stop offset="1" stop-color="#d8d8d8"/></linearGradient><linearGradient x1="439.6395" y1="329.20673" x2="436.44677" y2="320.13579" gradientUnits="userSpaceOnUse" id="color-7"><stop offset="0" stop-color="#a4a4a4"/><stop offset="1" stop-color="#d8d8d8"/></linearGradient><linearGradient x1="372.24871" y1="263.33759" x2="490.33957" y2="331.53603" gradientUnits="userSpaceOnUse" id="color-8"><stop offset="0" stop-color="#0b2a00"/><stop offset="1" stop-color="#101800"/></linearGradient><linearGradient x1="92.56986" y1="309.73976" x2="85.54468" y2="308.10784" gradientUnits="userSpaceOnUse" id="color-9"><stop offset="0" stop-color="#a4a4a4"/><stop offset="1" stop-color="#d8d8d8"/></linearGradient><linearGradient x1="21.28243" y1="292.56315" x2="28.30774" y2="294.19507" gradientUnits="userSpaceOnUse" id="color-10"><stop offset="0" stop-color="#a4a4a4"/><stop offset="1" stop-color="#d8d8d8"/></linearGradient><linearGradient x1="63.95632" y1="268.23094" x2="61.78042" y2="277.59796" gradientUnits="userSpaceOnUse" id="color-11"><stop offset="0" stop-color="#a4a4a4"/><stop offset="1" stop-color="#d8d8d8"/></linearGradient><linearGradient x1="47.86775" y1="334.83489" x2="50.04357" y2="325.46786" gradientUnits="userSpaceOnUse" id="color-12"><stop offset="0" stop-color="#a4a4a4"/><stop offset="1" stop-color="#d8d8d8"/></linearGradient><linearGradient x1="104.26497" y1="258.3303" x2="1.00833" y2="346.19464" gradientUnits="userSpaceOnUse" id="color-13"><stop offset="0" stop-color="#0b2a00"/><stop offset="1" stop-color="#101800"/></linearGradient><linearGradient x1="-122.75349" y1="206.67537" x2="-223.38882" y2="217.61502" gradientUnits="userSpaceOnUse" id="color-14"><stop offset="0" stop-color="#0b2a00"/><stop offset="1" stop-color="#101800"/></linearGradient><linearGradient x1="226.50259" y1="524.34762" x2="259.99304" y2="524.34762" gradientUnits="userSpaceOnUse" id="color-15"><stop offset="0" stop-color="#a4a4a4"/><stop offset="1" stop-color="#d8d8d8"/></linearGradient><radialGradient cx="242.45049" cy="425.39356" r="27.11127" gradientUnits="userSpaceOnUse" id="color-16"><stop offset="0" stop-color="#d8d8d8"/><stop offset="1" stop-color="#a4a4a4"/></radialGradient><linearGradient x1="287.91222" y1="383.32229" x2="273.48774" y2="383.32229" gradientUnits="userSpaceOnUse" id="color-17"><stop offset="0" stop-color="#a4a4a4"/><stop offset="1" stop-color="#d8d8d8"/></linearGradient><linearGradient x1="196.9978" y1="385.774" x2="211.42215" y2="385.774" gradientUnits="userSpaceOnUse" id="color-18"><stop offset="0" stop-color="#a4a4a4"/><stop offset="1" stop-color="#d8d8d8"/></linearGradient><linearGradient x1="242.33432" y1="440.98289" x2="242.33432" y2="456.60935" gradientUnits="userSpaceOnUse" id="color-19"><stop offset="0" stop-color="#a4a4a4"/><stop offset="1" stop-color="#d8d8d8"/></linearGradient><linearGradient x1="293.23022" y1="382.74626" x2="310.25139" y2="389.00273" gradientUnits="userSpaceOnUse" id="color-20"><stop offset="0" stop-color="#a4a4a4"/><stop offset="1" stop-color="#d8d8d8"/></linearGradient><linearGradient x1="189.60008" y1="380.56947" x2="172.2085" y2="386.96207" gradientUnits="userSpaceOnUse" id="color-21"><stop offset="0" stop-color="#a4a4a4"/><stop offset="1" stop-color="#d8d8d8"/></linearGradient><linearGradient x1="243.45348" y1="311.46638" x2="243.45348" y2="324.56732" gradientUnits="userSpaceOnUse" id="color-22"><stop offset="0" stop-color="#a4a4a4"/><stop offset="1" stop-color="#d8d8d8"/></linearGradient><linearGradient x1="239.08485" y1="272.97759" x2="239.08485" y2="636.70738" gradientUnits="userSpaceOnUse" id="color-23"><stop offset="0" stop-color="#0b2a00"/><stop offset="1" stop-color="#101800"/></linearGradient><linearGradient x1="244.90868" y1="136.66043" x2="215.06478" y2="255.60728" gradientUnits="userSpaceOnUse" id="color-24"><stop offset="0" stop-color="#0b2a00"/><stop offset="1" stop-color="#101800"/></linearGradient><linearGradient x1="117.23047" y1="75.88107" x2="389.1969" y2="144.11773" gradientUnits="userSpaceOnUse" id="color-25"><stop offset="0" stop-color="#0b2a00"/><stop offset="1" stop-color="#101800"/></linearGradient><radialGradient cx="224.38226" cy="38.96743" r="8.4886" gradientUnits="userSpaceOnUse" id="color-26"><stop offset="0" stop-color="#ffffff"/><stop offset="1" stop-color="#ffffff" stop-opacity="0"/></radialGradient><radialGradient cx="309.36724" cy="60.29024" r="8.4886" gradientUnits="userSpaceOnUse" id="color-27"><stop offset="0" stop-color="#ffffff"/><stop offset="1" stop-color="#ffffff" stop-opacity="0"/></radialGradient></defs><g transform="translate(223.3164,5.03159)"><g data-paper-data="{&quot;isPaintingLayer&quot;:true}" fill-rule="nonzero" stroke-linecap="butt" stroke-linejoin="miter" stroke-miterlimit="10" stroke-dasharray="" stroke-dashoffset="0" style="mix-blend-mode: normal"><path d="M380.92122,173.17394c-6.54048,26.06799 -275.73653,-43.9562 -271.737,-68.17908c5.5192,-33.42643 36.47153,-56.49786 76.95689,-64.90515c25.28395,-5.25055 138.20139,23.35678 157.62152,40.26537c30.03602,26.15155 45.28291,60.4382 37.15855,92.81889z" fill="#000000" stroke="#000000" stroke-width="0"/><g data-paper-data="{&quot;index&quot;:null}"><path d="M499.98513,273.12499c-20.72614,-54.91759 6.44685,-64.37748 38.42369,-75.22348c0.12821,-0.04351 0.25638,-0.08694 0.38447,-0.13035c0.61458,10.0822 3.71007,22.71381 8.45577,31.22119c1.45241,2.60371 4.46803,4.28347 5.43459,7.10383c1.80001,5.25251 2.10071,12.61804 6.3069,16.83843c9.03273,9.06323 20.58248,4.26283 26.42633,-4.3305c6.55005,-11.39472 16.59038,-1.73688 26.07465,-3.81187c2.45533,-0.53717 4.73997,-1.58013 6.90116,-2.94959c14.93888,49.96553 -10.60918,56.90951 -41.03289,67.22875c-31.97684,10.8461 -54.50282,24.65664 -77.37464,-35.94639z" fill="#000000" stroke="#000000" stroke-width="0"/><path d="M494.49036,267.21943c-0.23411,-3.59854 3.36446,-3.83266 3.36446,-3.83266l1.60709,0.00332c4.93857,-1.50784 10.41138,-1.56124 15.90449,-1.20529c0.13088,-0.48356 0.27399,-0.99308 0.43672,-1.53138c0.73731,-2.43879 1.89676,-4.72958 2.84514,-7.0943c0,0 1.03143,-2.54679 3.51674,-2.29385c0.54026,-0.36788 1.0154,-0.52007 1.0154,-0.52007l1.7172,-0.54999c4.73491,-1.49635 8.26462,-2.66641 11.88475,-1.31029c1.51323,-3.22731 3.0264,-6.45467 4.53958,-9.68191c0,0 1.41559,-3.0191 4.42736,-1.88989c0.24063,-0.14706 0.50256,-0.26796 0.78307,-0.35781c0.26703,-0.08553 0.53659,-0.1383 0.80456,-0.16054c0.98219,-0.57367 2.05504,-0.56104 2.05504,-0.56104l3.80097,0.04488c4.07109,0.05164 8.26864,-1.30417 12.21085,-0.2866c1.46216,0.37739 3.09437,1.34906 4.75929,2.56737c0.90573,-1.46024 2.01621,-2.77103 3.45748,-3.7551c5.7076,-3.89689 13.62472,-3.3797 21.13397,-2.02178c3.03615,-5.78343 9.36584,-11.45608 16.5755,-8.5861c2.55389,1.01658 3.94617,3.69076 5.62716,5.98323c0.89878,-0.17578 1.99992,-0.01397 3.08991,1.10199c2.51962,2.57992 -0.06022,5.09948 -0.06022,5.09948c-1.18147,1.10903 -2.36302,2.21796 -3.5445,3.32697l-4.19392,1.4445c0,0 -0.09254,0.02963 -0.25213,0.06394c-0.10382,0.04432 -0.21067,0.08421 -0.32032,0.11935c-0.59449,0.19039 -1.20204,0.21843 -1.77485,0.10878c-1.24299,1.47027 -3.36017,1.11252 -3.36017,1.11252c-2.69278,-0.45502 -5.51207,-1.10343 -8.37038,-1.70729c-2.74362,2.81031 -5.4431,5.66667 -8.33885,8.31801c-2.31684,2.1213 -4.0958,5.44259 -7.1621,6.12489c-2.42657,0.53992 -4.57579,-1.94799 -6.82192,-3.01333c-1.10299,-0.52314 -2.12534,-1.11411 -3.10044,-1.75192c-3.79203,6.76431 -16.30729,14.12902 -24.06825,13.24305c-5.00905,-0.57179 -6.1028,-2.77537 -8.73292,-4.64443c-0.63029,1.34423 -1.24751,2.66066 -1.84338,3.93152c0,0 -0.17499,0.37317 -0.53278,0.80803c-0.20666,0.87316 -0.73558,1.65334 -1.49626,2.16482c-0.3795,0.98228 -1.18388,1.79053 -2.26484,2.13674c-0.25728,0.08244 -0.51701,0.13439 -0.7753,0.15797c-0.80308,2.38936 -3.5683,2.25426 -3.5683,2.25426c-2.73483,-0.13358 -5.74856,-0.50187 -8.84886,-0.84743c-1.80682,3.77114 -4.48816,6.85104 -9.54215,8.24075c-1.7768,0.48859 -3.6085,1.57938 -5.4041,1.16524c-2.66533,-0.61473 -4.44945,-3.44883 -7.1046,-4.10602l-1.20247,-1.50254c-0.73878,-0.43339 -1.32673,-1.13007 -1.60858,-2.00996c-0.139,-0.43412 -0.19148,-0.87515 -0.16696,-1.30448c0.00275,-0.15706 0.01414,-0.3223 0.03775,-0.4919c-0.58519,-0.49712 -1.05523,-1.27809 -1.13494,-2.50375zM508.87452,271.10418c1.54196,-0.66065 2.6339,-1.32659 3.44042,-2.05766c-2.488,-0.08314 -4.9223,-0.00534 -7.2038,0.3662c0.15581,0.07471 0.30877,0.15572 0.45861,0.24387c0.88756,0.52259 0.89681,2.06886 1.84024,2.48213c0.54749,0.23983 0.91513,-0.79914 1.46455,-1.03453zM524.76526,257.74048c-0.61143,1.68118 -1.12954,3.40726 -1.65198,5.11281c2.13335,0.20131 4.23187,0.38944 6.26397,0.49987c0.26797,-0.64609 0.72165,-1.21173 1.31759,-1.61246c0.15289,-0.39576 0.37479,-0.76319 0.65592,-1.0836c0.1013,-0.40379 0.22185,-0.66098 0.22185,-0.66098l0.56389,-1.20262c0.53877,-1.14899 1.07749,-2.29798 1.61616,-3.44697c-1.88214,-0.34548 -3.83228,0.79896 -6.65532,1.71728l-1.71715,0.54994c0,0 -0.24065,0.07701 -0.615,0.12668zM548.73208,243.82397c-0.55858,0.17897 -1.12875,0.21452 -1.67077,0.12714c-1.24996,2.66583 -2.57361,5.48898 -3.90054,8.31913c0.54871,0.1936 1.07371,0.42892 1.5342,0.77844c1.51031,1.14664 2.56862,3.48424 4.46439,3.52576c4.96464,0.10867 15.3946,-4.89111 17.31393,-9.57855c0.12857,-0.31392 0.25582,-0.63647 0.38315,-0.96576c-0.4014,-0.32254 -0.80722,-0.64554 -1.22008,-0.96726c-0.82995,-0.64666 -1.27429,-1.92836 -2.30033,-2.16132c-3.33029,-0.75601 -6.81335,0.62644 -10.2282,0.5889l-3.56391,-0.04207c-0.24851,0.15507 -0.52011,0.28215 -0.81181,0.37558zM584.73079,244.06935c1.44038,-1.62533 2.96648,-3.17 4.52026,-4.68868c-1.69782,-0.15247 -3.37726,-0.20118 -5.01953,-0.09551c-0.87883,0.05655 -5.574,0.77573 -6.26165,1.27252c-0.9766,0.70553 -1.68231,1.59558 -2.23448,2.57583c1.28885,1.09784 2.49412,2.09604 3.53885,2.79962c0.90699,0.61091 1.38644,2.567 2.42128,2.21353c1.60342,-0.54765 1.91149,-2.80923 3.03524,-4.0773zM608.16866,230.67903c-1.96523,-1.17346 -4.39465,1.34272 -5.96385,3.64744c1.97174,0.43147 3.83771,0.83201 5.53784,1.11927c0,0 0.05886,0.00995 0.16004,0.03486c0.41206,-0.4559 0.94622,-0.8124 1.57353,-1.0133c0.10967,-0.03513 0.21972,-0.06479 0.32999,-0.08897c0.14984,-0.06474 0.24237,-0.09438 0.24237,-0.09438l1.04579,-0.29535c-0.81355,-1.29135 -1.64892,-2.54723 -2.92577,-3.30962z" fill="#000000" stroke="none" stroke-width="0.5"/><g stroke="none" stroke-width="0"><path d="M623.18546,237.86186l-128.21479,41.06272l-3.84966,-12.02018l128.21475,-41.06267z" fill="#000000"/><path d="M533.66845,285.46382l-6.86858,2.1998l-14.84857,-46.36336l6.8687,-2.19978z" fill="url(#color-1)"/><path d="M574.7307,220.56325l6.86862,-2.19979l14.84854,46.36335l-6.8687,2.19978z" data-paper-data="{&quot;index&quot;:null}" fill="#000000"/><path d="M595.04102,222.89377l-47.02932,6.85756l-43.40787,22.1063l-2.93305,-9.15818l42.8355,-21.92295l47.60164,-7.04088z" fill="#000000"/><path d="M608.81225,263.9224l-42.8355,21.92295l-47.60174,7.04093l-2.93302,-9.15818l48.17409,-7.22428l42.26308,-21.73962z" data-paper-data="{&quot;index&quot;:null}" fill="#000000"/><path d="M621.08002,241.57354c-5.03295,1.61187 -10.41958,-1.16146 -12.03142,-6.19434c-1.61187,-5.03297 1.16146,-10.41958 6.19434,-12.03142c5.03295,-1.61187 10.41957,1.16137 12.03142,6.19434c1.61187,5.03295 -1.16146,10.41958 -6.19434,12.03142z" fill="#000000"/></g><path d="M578.26468,308.74862c-31.97684,10.8461 -54.50282,24.65664 -77.37464,-35.94639c-20.7261,-54.91761 6.44692,-64.37743 38.42367,-75.22347c2.48867,-0.84417 4.94255,-1.66899 7.36111,-2.44685c3.45651,4.22753 6.96581,8.54291 11.03467,12.05045c2.35594,2.03089 5.73109,2.89977 7.64323,5.35303c2.69321,3.45535 1.49529,12.01206 3.44576,16.23553c3.8214,8.27473 6.76516,14.88283 12.12273,22.4711c1.5801,2.23796 0.88516,5.8512 2.92409,7.68088c2.10434,1.88842 5.17224,2.28592 7.75841,3.42885c11.17945,5.28021 21.85825,1.10612 31.24406,-5.56964c5.59305,36.30438 -17.57358,42.80527 -44.58299,51.96645z" fill="url(#color-2)" stroke="#000000" stroke-width="0"/></g><g data-paper-data="{&quot;index&quot;:null}"><path d="M373.31242,318.371c-22.28184,-54.30502 4.61074,-64.53495 36.26567,-76.28735c31.65492,-11.75241 57.66409,-20.16671 78.36705,33.72814c21.7664,56.66323 -4.61074,64.53495 -36.26567,76.28735c-31.65495,11.75244 -53.77851,26.19891 -78.36705,-33.72814z" fill="#525252" stroke="#000000" stroke-width="0"/><path d="M367.65164,312.62436c-0.33651,-3.59042 3.25395,-3.92693 3.25395,-3.92693l1.60657,-0.04241c4.89364,-1.64791 10.36269,-1.85711 15.86375,-1.65782c0.11706,-0.48709 0.24562,-1.0005 0.39291,-1.54323c0.66761,-2.4588 1.76133,-4.78163 2.64198,-7.17247c0,0 0.95848,-2.57512 3.44995,-2.39305c0.52953,-0.38312 1.0002,-0.5488 1.0002,-0.5488l1.70085,-0.59865c4.69033,-1.63067 8.18536,-2.90076 11.84263,-1.64826c1.42067,-3.26908 2.84135,-6.53821 4.26202,-9.80733c0,0 1.32895,-3.05817 4.37176,-2.01515c0.23633,-0.15383 0.49472,-0.28218 0.77254,-0.37995c0.26446,-0.09309 0.53243,-0.15348 0.79968,-0.18335c0.96548,-0.6014 2.03824,-0.61933 2.03824,-0.61933l3.80073,-0.06341c4.07088,-0.06437 8.22817,-1.53919 12.19774,-0.63429c1.47227,0.33561 3.13151,1.26038 4.83048,2.43077c0.8638,-1.48541 1.93646,-2.82734 3.34912,-3.85201c5.5943,-4.05788 13.52294,-3.76634 21.06785,-2.62289c2.8702,-5.86759 9.0358,-11.71824 16.32426,-9.05469c2.58175,0.94352 4.04963,3.57691 5.79532,5.8205c0.89335,-0.20127 1.99875,-0.071 3.12004,1.01352c2.59205,2.50708 0.08503,5.09915 0.08503,5.09915c-1.14947,1.14218 -2.29892,2.28438 -3.44832,3.42658l-4.15112,1.56337c0,0 -0.09167,0.03222 -0.25025,0.07113c-0.10252,0.04726 -0.20817,0.09016 -0.31676,0.12844c-0.58882,0.20726 -1.19538,0.25254 -1.77101,0.15928c-1.20061,1.50506 -3.32713,1.20775 -3.32713,1.20775c-2.70458,-0.37811 -5.54122,-0.946 -8.41553,-1.46825c-2.6625,2.88727 -5.2795,5.81939 -8.09855,8.55215c-2.25549,2.18645 -3.9391,5.55711 -6.98471,6.32639c-2.41018,0.60881 -4.62943,-1.81689 -6.90499,-2.8178c-1.11744,-0.49152 -2.15618,-1.05311 -3.1491,-1.66286c-3.59786,6.86951 -15.8983,14.58772 -23.68131,13.9232c-5.02335,-0.42888 -6.1793,-2.60039 -8.86167,-4.39385c-0.59177,1.36165 -1.17121,2.69509 -1.73066,3.98241c0,0 -0.16427,0.37801 -0.50954,0.82289c-0.18171,0.87869 -0.68819,1.67362 -1.434,2.20657c-0.3514,0.9927 -1.13238,1.82354 -2.20306,2.20036c-0.25483,0.08972 -0.51297,0.14906 -0.77047,0.18002c-0.73469,2.41127 -3.5026,2.35496 -3.5026,2.35496c-2.73754,-0.05568 -5.7605,-0.33798 -8.86941,-0.59509c-1.69869,3.82109 -4.29121,6.9761 -9.30356,8.50914c-1.76217,0.539 -3.56204,1.68147 -5.36873,1.31871c-2.6817,-0.53857 -4.54586,-3.3208 -7.21864,-3.90201l-1.2448,-1.46772c-0.75087,-0.41216 -1.35846,-1.09179 -1.6652,-1.96335c-0.15131,-0.42994 -0.21626,-0.86934 -0.20409,-1.29921c-0.00169,-0.15712 0.00505,-0.32259 0.02377,-0.49275c-0.59912,-0.48027 -1.09116,-1.2476 -1.20577,-2.47038zM382.14059,316.09795c1.5225,-0.70428 2.59511,-1.40107 3.38049,-2.1548c-2.48936,-0.0123 -4.92047,0.13481 -7.19045,0.57117c0.15785,0.07023 0.31308,0.14683 0.46537,0.23078c0.90206,0.49708 0.95536,2.04249 1.91018,2.42872c0.55412,0.2241 0.89205,-0.82494 1.43449,-1.07584zM397.64436,302.28703c-0.56334,1.69793 -1.03202,3.43806 -1.50569,5.15772c2.13817,0.14053 4.24125,0.26877 6.27568,0.32126c0.24944,-0.65341 0.68683,-1.23174 1.27112,-1.64931c0.14152,-0.39997 0.35291,-0.77359 0.62479,-1.10193c0.08978,-0.40654 0.20291,-0.66703 0.20291,-0.66703l0.52939,-1.2182c0.50579,-1.16385 1.01161,-2.3277 1.51737,-3.4916c-1.89124,-0.29171 -3.80802,0.90782 -6.60373,1.90617l-1.70079,0.5986c0,0 -0.23838,0.08388 -0.61108,0.14414zM421.20507,287.6936c-0.55328,0.19479 -1.12218,0.24656 -1.66645,0.17472c-1.17349,2.70036 -2.41626,5.56007 -3.66207,8.4268c0.55396,0.17791 1.08553,0.39814 1.55571,0.73445c1.54231,1.10315 2.6668,3.40968 4.56298,3.39715c4.9657,-0.03279 15.24906,-5.32759 17.03412,-10.0678c0.11957,-0.31747 0.23754,-0.64351 0.35545,-0.97628c-0.41046,-0.31096 -0.82525,-0.62231 -1.24715,-0.93211c-0.84799,-0.62278 -1.3287,-1.89133 -2.36094,-2.09491c-3.35046,-0.66085 -6.79273,0.82024 -10.20728,0.87999l-3.56366,0.05947c-0.24397,0.1621 -0.51187,0.29682 -0.80078,0.39852zM457.19607,286.91351c1.39346,-1.66569 2.87501,-3.25318 4.38491,-4.81547c-1.70147,-0.1041 -3.38162,-0.10491 -5.02016,0.04749c-0.87684,0.08159 -5.54958,0.93409 -6.22289,1.4503c-0.95611,0.73307 -1.63617,1.64287 -2.1602,2.63847c1.31961,1.06066 2.55285,2.02411 3.61714,2.69767c0.92407,0.58476 1.45905,2.52651 2.48333,2.14366c1.58718,-0.59308 1.83073,-2.86254 2.91785,-4.16211zM480.24317,272.86116c-1.99782,-1.11703 -4.3546,1.46736 -5.85756,3.81582c1.98321,0.37506 3.85985,0.72236 5.56746,0.96111c0,0 0.05909,0.00822 0.16099,0.03022c0.39894,-0.46744 0.92269,-0.83899 1.54405,-1.0577c0.10862,-0.03824 0.21783,-0.071 0.32735,-0.09829c0.14794,-0.06895 0.23961,-0.10123 0.23961,-0.10123l1.03702,-0.32502c-0.85003,-1.26765 -1.72085,-2.49921 -3.01889,-3.22493z" fill="#000000" stroke="none" stroke-width="0.5"/><g stroke="none" stroke-width="0"><path d="M495.45837,279.61336l-126.99327,44.69766l-4.19041,-11.90565l126.99323,-44.69772z" fill="url(#color-3)"/><path d="M407.33354,329.74559l-6.80317,2.39453l-16.16302,-45.92171l6.80323,-2.39455z" fill="url(#color-4)"/><path d="M446.53058,263.70172l6.80322,-2.39452l16.16301,45.92166l-6.80324,2.39452z" data-paper-data="{&quot;index&quot;:null}" fill="url(#color-5)"/><path d="M466.89914,265.45299l-46.81492,8.19423l-42.76065,23.33358l-3.19268,-9.07093l42.19375,-23.13408l47.38182,-8.39376z" fill="url(#color-6)"/><path d="M481.83321,306.0727l-42.19375,23.13408l-47.38187,8.39379l-3.19268,-9.07093l47.94877,-8.59331l41.62681,-22.93449z" data-paper-data="{&quot;index&quot;:null}" fill="url(#color-7)"/><path d="M481.25655,277.53433c-1.75453,-4.98501 0.86419,-10.4484 5.84915,-12.20294c4.98501,-1.75453 10.44843,0.86421 12.20298,5.84911c1.75453,4.98501 -0.86423,10.44843 -5.84915,12.20295c-4.98498,1.75456 -10.4484,-0.86419 -12.20294,-5.84915z" fill="#000000"/></g><path d="M452.57477,351.7507c-31.65495,11.75244 -53.77851,26.19891 -78.36705,-33.72814c-22.28184,-54.30502 4.61076,-64.53498 36.26567,-76.28735c31.65492,-11.75241 57.66408,-20.16674 78.36705,33.72809c21.76645,56.66321 -4.6107,64.53499 -36.26564,76.28736z" fill="url(#color-8)" stroke="#000000" stroke-width="0"/></g><g fill="#000000" stroke="none"><path d="M-10.18377,279.21487c-0.43317,1.14929 -1.11021,1.75957 -1.81485,2.06474c-0.0268,0.16912 -0.06397,0.33051 -0.10711,0.48158c-0.10163,0.41788 -0.28025,0.82453 -0.53962,1.19935c-0.52587,0.7597 -1.29119,1.25499 -2.1242,1.45443l-1.58793,1.08729c-2.7314,-0.14446 -5.26355,2.04726 -7.99234,1.85921c-1.83839,-0.1267 -3.27305,-1.70357 -4.83061,-2.6884c-4.4303,-2.80118 -6.09856,-6.5284 -6.72895,-10.66226c-3.0666,-0.57225 -6.0569,-1.09751 -8.71214,-1.76608c0,0 -2.68471,-0.67597 -2.7572,-3.19563c-0.24021,-0.09776 -0.47357,-0.22314 -0.69569,-0.37691c-0.93331,-0.64592 -1.46744,-1.6534 -1.54446,-2.70363c-0.57877,-0.71085 -0.85755,-1.61125 -0.80104,-2.50672c-0.21564,-0.52018 -0.27439,-0.92815 -0.27439,-0.92815c-0.19997,-1.3893 -0.40708,-2.82841 -0.61864,-4.29793c-3.06045,1.02222 -4.74845,2.81176 -9.70696,1.90013c-7.68257,-1.41246 -17.51085,-12.10243 -19.16878,-19.6778c-1.11858,0.32621 -2.26871,0.59387 -3.47624,0.77311c-2.45902,0.36507 -5.23957,2.11933 -7.40376,0.89619c-2.73469,-1.54559 -3.46939,-5.24095 -5.06814,-7.94505c-1.99817,-3.37966 -3.74885,-6.89833 -5.55525,-10.3858c-2.91026,-0.25466 -5.79621,-0.45532 -8.50477,-0.80413c0,0 -2.12962,-0.27425 -2.89064,-2.04278c-0.57986,-0.06189 -1.15299,-0.26563 -1.66627,-0.62089c-0.09467,-0.06556 -0.18524,-0.1348 -0.27166,-0.20745c-0.14266,-0.07936 -0.22257,-0.13463 -0.22257,-0.13463l-3.59153,-2.60315c-0.80736,-1.40501 -1.61476,-2.80992 -2.42206,-4.21493c0,0 -1.73435,-3.16165 1.42736,-4.89607c1.36772,-0.75024 2.46826,-0.58432 3.2769,-0.15443c2.27577,-1.70353 4.38641,-3.85638 7.12564,-4.08522c7.73299,-0.64619 12.13646,6.62384 13.35687,13.04075c7.57927,0.88763 15.30388,2.69832 19.62933,8.08835c1.09225,1.36111 1.77287,2.93846 2.21415,4.59916c1.94752,-0.68066 3.79197,-1.13489 5.30065,-1.07019c4.0677,0.17451 7.68852,2.6939 11.59822,3.82998l3.64933,1.06391c0,0 1.03004,0.30031 1.80262,1.13514c0.24986,0.09934 0.49245,0.22826 0.72294,0.38786c0.24218,0.16759 0.45756,0.35958 0.64494,0.57031c3.21014,-0.20327 3.68515,3.0972 3.68515,3.0972c0.50784,3.52805 1.01562,7.05619 1.52347,10.58427c3.85812,-0.24321 6.89418,1.90397 10.98815,4.71433l1.48263,1.02617c0,0 0.41024,0.28394 0.81997,0.79319c2.45126,0.48175 2.69634,3.21849 2.69634,3.21849c0.21865,2.53845 0.66081,5.06751 0.65597,7.61539c-0.00107,0.56239 -0.01258,1.09148 -0.02816,1.5922c5.35873,1.25911 10.5788,2.90389 14.86427,5.78447l1.53846,0.4648c0,0 3.37443,1.27184 2.10257,4.64623zM-25.07584,278.74268c0.45707,0.38515 0.50622,1.48617 1.09985,1.41619c1.02288,-0.12063 1.48203,-1.59722 2.48329,-1.83871c0.16902,-0.04076 0.33893,-0.07365 0.50975,-0.09978c-2.07447,-1.0198 -4.38061,-1.80309 -6.78496,-2.44804c0.55865,0.93428 1.40938,1.8893 2.69213,2.97031zM-36.38638,261.33076c-0.3436,-0.15649 -0.55143,-0.3003 -0.55143,-0.3003l-1.48255,-1.02613c-2.43325,-1.70059 -3.96568,-3.36332 -5.86683,-3.58092c0.18076,1.25608 0.36159,2.51212 0.54239,3.76819l0.18925,1.31466c0,0 0.04043,0.28115 0.01974,0.69695c0.17565,0.38841 0.28093,0.80454 0.31193,1.2277c0.45341,0.55694 0.72272,1.23016 0.79094,1.92627c1.97617,0.48608 4.0386,0.91727 6.13808,1.34587c-0.00315,-1.78374 0.00388,-3.58586 -0.09154,-5.37229zM-55.2621,241.03827c-0.25185,-0.17431 -0.47464,-0.37497 -0.66726,-0.59569l-3.42167,-0.99755c-3.27779,-0.95848 -6.2073,-3.29528 -9.61344,-3.54183c-1.04941,-0.07597 -1.84771,1.0208 -2.83002,1.39776c-0.48868,0.18753 -0.97099,0.37837 -1.4489,0.57003c0.02596,0.35209 0.05371,0.69776 0.08531,1.03549c0.47116,5.0432 8.9932,12.86346 13.77434,14.20524c1.82571,0.51234 3.51887,-1.41577 5.29759,-2.07291c0.54228,-0.20035 1.11308,-0.27257 1.69435,-0.29797c-0.44533,-3.09384 -0.88952,-6.18008 -1.30899,-9.0944c-0.54392,-0.07428 -1.07901,-0.27433 -1.56132,-0.6082zM-89.77208,230.79021c0.70581,1.54037 0.34193,3.7936 1.71638,4.78446c0.88705,0.63949 1.91533,-1.09222 2.96093,-1.41253c1.2043,-0.36885 2.64809,-0.97279 4.2007,-1.64779c-0.24281,-1.09858 -0.65875,-2.15554 -1.38755,-3.11489c-0.51323,-0.67554 -4.79549,-2.73071 -5.61975,-3.04076c-1.54029,-0.57933 -3.1611,-1.02176 -4.82981,-1.37032c1.0442,1.9053 2.05435,3.82742 2.95903,5.80176zM-108.29502,211.1551c-1.44353,0.35752 -2.60838,1.31574 -3.76273,2.3142l0.91445,0.58709c0,0 0.07992,0.05534 0.2044,0.16086c0.09845,0.05526 0.19514,0.11563 0.28979,0.18117c0.54165,0.37487 0.94884,0.87148 1.2103,1.42759c0.10408,0.00564 0.16328,0.01328 0.16328,0.01328c1.71012,0.22026 3.6119,0.38041 5.62376,0.54187c-0.83008,-2.6618 -2.42152,-5.77637 -4.64326,-5.22605z" stroke-width="0.5"/><g stroke-width="0"><path d="M-117.56956,203.27553l110.70083,76.61917l-7.18307,10.37823l-110.70083,-76.61919z"/><path d="M-25.27085,245.22987l5.93044,4.10459l-27.70605,40.03019l-5.93035,-4.1046z"/><path d="M-101.06639,251.245l-5.93044,-4.10459l27.70602,-40.03018l5.93037,4.1046z" data-paper-data="{&quot;index&quot;:null}"/><path d="M-87.99642,199.62284l43.48843,20.59731l34.59515,33.44659l-5.47279,7.9072l-35.08936,-33.7886l-42.99425,-20.25531z"/><path d="M-113.11824,234.86319l34.10096,33.10448l43.9826,20.93944l-5.47278,7.90722l-43.48849,-20.59735l-34.59515,-33.44659z" data-paper-data="{&quot;index&quot;:null}"/><path d="M-123.81928,217.81767c-4.34542,-3.00756 -5.42996,-8.96836 -2.42238,-13.31384c3.00756,-4.34542 8.96835,-5.42991 13.31377,-2.42231c4.34542,3.00756 5.42995,8.96834 2.42238,13.31384c-3.00756,4.34542 -8.96836,5.42996 -13.31384,2.42238z"/></g></g><g><path d="M38.41793,358.91244c-32.7553,-8.20031 -59.83806,-13.12385 -44.43436,-71.8369c14.65111,-55.84451 41.42778,-50.34121 74.18307,-42.14089c32.7553,8.20031 60.60965,15.41108 44.43436,71.8369c-17.84982,62.26745 -41.42775,50.34128 -74.18307,42.14089z" fill="#525252" stroke="#000000" stroke-width="0"/><path d="M117.59549,310.43715c0.02058,1.228 -0.38413,2.04479 -0.9268,2.58803c0.0373,0.1671 0.06223,0.33086 0.07782,0.48718c0.05941,0.42595 0.04313,0.86977 -0.05998,1.31376c-0.20907,0.90003 -0.73827,1.64233 -1.43923,2.13453l-1.07587,1.59565c-2.59265,0.87165 -4.13957,3.84193 -6.74579,4.67212c-1.75583,0.55925 -3.67043,-0.37843 -5.48119,-0.72035c-5.15057,-0.97258 -8.07429,-3.82338 -10.18283,-7.43451c-3.06179,0.59737 -6.03533,1.21037 -8.75016,1.56676c0,0 -2.74495,0.36034 -3.74033,-1.95554c-0.25937,-0.00243 -0.52246,-0.03302 -0.78559,-0.09419c-1.10561,-0.25682 -1.97322,-0.99672 -2.43167,-1.94478c-0.79987,-0.4477 -1.39066,-1.18213 -1.66792,-2.03551c-0.39207,-0.40423 -0.59695,-0.76186 -0.59695,-0.76186c-0.69759,-1.21798 -1.42017,-2.47966 -2.15811,-3.76795c-2.46884,2.07752 -3.37906,4.36296 -8.32478,5.34162c-7.66273,1.51631 -20.7373,-4.80249 -25.06869,-11.23474c-0.9198,0.71525 -1.89058,1.38764 -2.94718,1.99906c-2.15169,1.24507 -4.09074,3.90009 -6.55324,3.56c-3.11173,-0.42978 -5.15577,-3.59481 -7.63798,-5.51997c-3.10243,-2.40617 -6.026,-5.03272 -8.98985,-7.60975c-2.7995,0.8351 -5.55647,1.71144 -8.20308,2.38469c0,0 -2.0809,0.52935 -3.43978,-0.83457c-0.56191,0.15603 -1.16977,0.1777 -1.77782,0.03643c-0.11216,-0.02608 -0.22187,-0.05711 -0.32898,-0.09278c-0.16185,-0.02123 -0.25653,-0.04315 -0.25653,-0.04315l-4.29782,-1.09739c-1.26804,-1.00889 -2.53612,-2.01771 -3.80423,-3.02661c0,0 -2.77684,-2.30065 -0.47618,-5.07758c0.99524,-1.20123 2.07958,-1.45229 2.98967,-1.35051c1.48838,-2.42196 2.65778,-5.20077 5.12016,-6.42247c6.95141,-3.44883 13.72293,1.68833 17.22093,7.20474c7.3734,-1.96616 15.22188,-3.12776 21.22848,0.29036c1.51676,0.86315 2.73051,2.07897 3.75238,3.46036c1.55996,-1.35008 3.10742,-2.45173 4.5339,-2.94719c3.84604,-1.33593 8.14023,-0.32716 12.19351,-0.71084l3.78465,-0.35489c0,0 1.06821,-0.10011 2.09396,0.39144c0.26891,0.00034 0.54192,0.03085 0.81499,0.09431c0.28688,0.06662 0.55782,0.16582 0.80961,0.29271c2.90962,-1.3713 4.56683,1.52223 4.56683,1.52223c1.7715,3.09304 3.54306,6.18611 5.31457,9.2792c3.49739,-1.64708 7.11082,-0.76895 11.95206,0.33603l1.75634,0.40797c0,0 0.48597,0.11288 1.05445,0.43547c2.45634,-0.45488 3.69217,1.99922 3.69217,1.99922c1.1382,2.27948 2.48072,4.46797 3.41463,6.83847c0.20611,0.52326 0.3903,1.0194 0.56027,1.49066c5.44575,-0.80299 10.90469,-1.19643 15.94983,-0.09663l1.60146,-0.1345c0,0 3.60567,-0.06036 3.66601,3.5453zM103.57636,315.48292c0.56675,0.18977 1.01796,1.1953 1.5441,0.9116c0.90655,-0.4889 0.78962,-2.03077 1.63156,-2.62404c0.14212,-0.10016 0.28801,-0.19332 0.43719,-0.28051c-2.30421,-0.18412 -4.73674,-0.06298 -7.20967,0.22295c0.86349,0.66281 2.00612,1.23743 3.59688,1.77005zM86.64805,303.46059c-0.37711,-0.01896 -0.62322,-0.07611 -0.62322,-0.07611l-1.75631,-0.40794c-2.88853,-0.68486 -4.92562,-1.66634 -6.77329,-1.1685c0.63071,1.10119 1.2614,2.20235 1.89206,3.30354l0.66014,1.15258c0,0 0.14111,0.24648 0.27502,0.64069c0.30635,0.29644 0.55752,0.64456 0.74217,1.02651c0.62663,0.35079 1.12498,0.87755 1.44475,1.49953c2.01633,-0.27591 4.09254,-0.63465 6.20228,-1.00939c-0.65986,-1.65718 -1.31711,-3.33525 -2.0637,-4.9609zM61.62546,291.54641c-0.29832,-0.0693 -0.57938,-0.17379 -0.83976,-0.30805l-3.54854,0.33275c-3.40042,0.31608 -6.98465,-0.77748 -10.24214,0.24775c-1.00361,0.31585 -1.34192,1.6296 -2.11628,2.3418c-0.38526,0.35432 -0.76333,0.70939 -1.1371,1.0636c0.1538,0.31783 0.30691,0.6289 0.46065,0.93132c2.29545,4.51517 13.09866,8.64707 18.03786,8.13365c1.88605,-0.19605 2.7501,-2.61224 4.16177,-3.87831c0.43037,-0.38597 0.93446,-0.66332 1.46552,-0.90108c-1.55346,-2.71236 -3.10312,-5.41807 -4.56643,-7.97301c-0.53307,0.13125 -1.10422,0.14236 -1.67555,0.00958zM25.76691,294.72872c1.22351,1.17215 1.71508,3.401 3.35784,3.81599c1.0602,0.26785 1.37843,-1.7209 2.23258,-2.40374c0.98382,-0.78647 2.10362,-1.87969 3.29858,-3.07906c-0.63033,-0.93192 -1.40633,-1.76144 -2.43723,-2.38495c-0.72595,-0.43904 -5.46412,-0.77259 -6.34462,-0.75725c-1.64539,0.02871 -3.31524,0.21427 -4.99497,0.50484c1.67253,1.3868 3.31961,2.80175 4.88781,4.30413zM1.31437,283.2958c-1.21038,0.86402 -1.94046,2.18391 -2.64597,3.53734l1.06647,0.20901c0,0 0.09466,0.02197 0.2493,0.07425c0.11185,0.01514 0.22406,0.03566 0.33618,0.06172c0.64164,0.14906 1.20309,0.46077 1.65099,0.8815c0.09885,-0.03309 0.15669,-0.04777 0.15669,-0.04777c1.67102,-0.42508 3.4981,-0.97661 5.42801,-1.56745c-1.75206,-2.16898 -4.37872,-4.47847 -6.24162,-3.14856z" fill="#000000" stroke="none" stroke-width="0.5"/><g stroke="none" stroke-width="0"><path d="M-10.21021,279.3859l131.13816,30.46237l-2.85583,12.29423l-131.13818,-30.46235z" fill="#000000"/><path d="M91.05233,284.39758l7.02529,1.63194l-11.01543,47.4205l-7.02526,-1.63191z" fill="url(#color-9)"/><path d="M22.79997,317.90537l-7.0253,-1.63191l11.01541,-47.42048l7.02528,1.63192z" data-paper-data="{&quot;index&quot;:null}" fill="url(#color-10)"/><path d="M15.93884,265.09823l48.0175,3.13272l44.4817,18.35414l-2.17587,9.36703l-45.06716,-18.4901l-47.43207,-2.99675z" fill="url(#color-11)"/><path d="M5.5619,307.11377l43.89621,18.21809l48.60294,3.26873l-2.17587,9.36703l-48.01752,-3.13274l-44.4817,-18.35414z" data-paper-data="{&quot;index&quot;:null}" fill="url(#color-12)"/><path d="M-10.66475,295.2076c-5.14766,-1.19572 -8.35129,-6.33808 -7.15555,-11.48579c1.19572,-5.14766 6.33805,-8.35128 11.48579,-7.15552c5.14766,1.19572 8.35128,6.33805 7.15554,11.48577c-1.19572,5.14766 -6.33808,8.35129 -11.48577,7.15554z" fill="#000000"/></g><path d="M37.48973,358.66454c-32.75524,-8.2003 -59.83801,-13.12388 -44.43434,-71.83694c14.65113,-55.84453 41.42778,-50.34121 74.18306,-42.14089c32.75524,8.2003 60.60965,15.41108 44.43436,71.8369c-17.84982,62.26745 -41.42775,50.34128 -74.18307,42.14089zM82.65401,270.37054l-0.27871,-2.82988c-1.41347,-5.71046 -3.76335,-7.16749 -8.15875,-10.83211c-1.48097,-1.16761 -2.69746,-2.78866 -4.44286,-3.5029c-7.21039,-2.95044 -11.53813,3.86638 -17.48109,3.27364c-4.49317,-0.44815 -6.62718,-6.68054 -12.65603,-6.28875c-3.57082,0.23206 -8.18615,4.06196 -9.57059,7.27945c-2.37188,5.51225 0.68187,9.03139 2.04628,13.64694c0.54916,1.8577 -2.26347,3.1465 -3.31197,4.77527c-2.53554,3.93887 -5.69361,9.22862 -5.21704,14.10079c0.6677,6.82654 4.13124,6.99518 6.3414,12.39979c5.74487,8.04991 28.46412,12.28521 35.41675,2.97056c3.55058,-4.75681 1.37911,-10.98858 4.6878,-15.516c5.07473,-6.94407 12.15708,-9.04226 12.3516,-17.67469c0.35271,-0.92573 0.27324,-1.8021 0.27324,-1.8021z" fill="url(#color-13)" stroke="#000000" stroke-width="0"/><path d="M82.79419,270.33705c0,0 0.08105,0.88387 -0.27164,1.80964c-0.19451,8.63246 -7.2971,10.83402 -12.3718,17.77807c-3.30871,4.52744 -1.19298,10.80998 -4.74355,15.56679c-6.95261,9.31467 -29.83221,5.05991 -35.57709,-2.99c-2.21013,-5.40459 -5.71116,-5.6241 -6.37885,-12.45068c-0.47659,-4.87217 2.66991,-10.23245 5.20548,-14.17128c1.04849,-1.62881 3.8688,-2.95294 3.31965,-4.8106c-1.36436,-4.61553 -4.38602,-8.1867 -2.01416,-13.69896c1.38449,-3.21751 6.04785,-7.0803 9.61865,-7.31237c6.02885,-0.39181 8.22563,5.82955 12.71879,6.2777c5.94294,0.59276 10.35016,-6.19535 17.56056,-3.24491c1.74541,0.71424 2.98132,2.35286 4.46228,3.52048c4.3954,3.66459 6.77611,5.1739 8.18957,10.88436l0.28209,2.84179z" data-paper-data="{&quot;noHover&quot;:false,&quot;origItem&quot;:[&quot;Path&quot;,{&quot;applyMatrix&quot;:true,&quot;segments&quot;:[[176.60411,134.48781],[[175.79368,133.92516],[0,0],[-1.82673,-0.9105]],[[171.09694,133.64543],[1.95663,-0.33745],[-0.64152,0.12879]],[[169.17237,134.03178],[0.58118,-0.30061],[-2.40087,1.24186]],[[166.10679,139.38702],[1.49289,-1.43707],[-1.1287,1.0865]],[[161.59938,141.31721],[1.25205,-1.68115],[-0.74158,0.99572]],[[161.37095,145.4829],[-0.53889,-1.08928],[0.92323,1.86616]],[[165.43709,148.01069],[-1.52638,-0.67728],[0.61435,0.27259]],[[165.95421,149.95956],[-0.19464,-0.64329],[0.47068,1.55564]],[[168.50713,154.50864],[-1.39457,-0.96957],[1.95397,1.35851]],[[173.20948,155.62107],[-1.92505,-0.63121],[3.41882,0.292]],[[181.95782,146.93054],[0.898,3.93153],[-0.45859,-2.00776]],[[178.91194,142.20309],[0.45237,1.89227],[-0.69384,-2.9023]],[[177.01885,134.9652],[2.23729,1.99239],[-0.16531,-0.30135]],[176.60411,134.4878]],&quot;closed&quot;:true,&quot;fillColor&quot;:[0,0,0,1]}]}" fill="#000000" stroke="none" stroke-width="0.5"/></g><path d="M-146.14101,166.88298c14.50636,1.81573 24.32845,18.76893 21.93811,37.86615c-1.62027,12.94517 -5.47493,25.8743 -14.21639,30.79956c-4.15426,2.34065 -35.64874,34.30538 -41.57173,31.49855c-5.00134,-1.97615 12.97226,-31.06931 2.41912,-31.40957c-19.43621,-0.62665 -46.18882,-14.28308 -45.73889,-17.47396c0.3023,-8.70092 45.21132,-6.03771 45.92436,-8.65265c0.87376,-3.20426 -34.83626,-4.02878 -45.21287,-19.02896c22.1247,-11.97038 45.88701,1.23344 46.98312,-1.24678c1.37098,-3.10227 -12.29043,1.18359 -40.96203,-25.35903c31.66345,-9.42689 61.08177,1.83583 70.43731,3.00687z" fill="url(#color-14)" stroke="#000000" stroke-width="0"/><g><path d="M243.49632,637.18776c-91.20124,0 -186.91042,-100.9002 -165.13444,-184.49849c14.62958,-56.1631 32.92049,-122.08398 64.10657,-169.03041c0.81672,0.91933 1.98228,1.21074 1.98228,1.21074c8.30389,2.02193 11.26274,-0.20344 18.34559,-2.9595c5.37907,-2.0931 10.97568,1.33215 16.66375,-1.08962c2.93803,-1.25091 4.79249,-4.23365 7.36118,-6.13067c2.02999,-1.4992 4.87151,-1.42134 7.12768,-2.55184c8.92671,-4.47293 16.41977,-12.16123 22.91635,-19.16759c0.52498,-10.1529 7.04225,-17.92746 8.52861,-28.09525c0.07005,-0.47902 0.13477,-0.95622 0.19484,-1.43172c5.29294,-0.85207 10.77869,-1.31774 16.46658,-1.36786c95.83143,-0.84467 141.24878,119.51211 163.74123,217.7986c-5.9323,1.41012 -12.46701,1.64248 -16.14719,7.25474c-1.72882,2.63642 -0.82466,6.79121 -3.15271,8.91713c-0.61244,0.55925 -1.60173,-0.48255 -2.42924,-0.53807c-3.34601,-0.22437 -11.35665,0.44663 -14.34864,1.71534c-6.08107,2.57857 -11.6705,12.14735 -14.65591,17.28658c-0.63365,1.09078 -0.02361,2.7863 -0.92394,3.66987c-0.98006,0.96177 -2.90945,0.24444 -3.96264,1.12549c-2.79036,2.33436 -5.65692,9.18188 -7.08393,12.12311c-0.25645,13.70643 -1.92595,22.64418 4.59328,35.55601c2.46819,4.88845 2.23594,9.60072 6.38359,13.86292c4.44573,4.56849 10.16599,7.16219 14.99095,11.07684c5.73351,4.65174 7.74363,11.18005 12.16974,16.5041c-32.32396,41.93426 -85.76076,68.75963 -137.73354,68.75963z" fill="#000000" stroke="#000000" stroke-width="0"/><g stroke="none"><path d="M245.57837,158.47745c0.66942,-0.62782 3.09473,-2.53048 5.52009,0.18085c2.8504,3.18657 0,6.37323 0,6.37323l-3.85817,2.44655c-1.17952,-0.01127 -2.35903,-0.02248 -3.53854,-0.03379c-3.71741,0.31423 -4.53736,6.49803 -4.52362,10.17342c0.02493,6.66547 1.71007,13.16581 5.2857,18.77097c3.86053,6.05171 6.90401,6.03661 7.79564,14.58388c0.39759,3.81138 -0.4498,7.67466 -1.06334,11.45003c-1.79938,11.07286 -2.73893,21.27654 -5.55278,32.09099c-0.82878,3.18514 -0.58596,6.74817 -1.90057,9.72196c-2.82534,6.39129 -10.13459,12.03093 -13.78962,18.26986c0.08138,3.26195 0.11144,11.4126 0.98516,14.2912c5.33178,17.56538 25.025,35.73434 20.25066,56.35483c-0.79573,3.43678 -2.01441,6.83134 -3.80267,9.76502c-2.40682,3.94837 -6.89528,5.75005 -9.75954,9.29631c-2.69145,3.33236 -6.00115,8.45599 -6.53242,13.17018c-0.8047,7.14106 3.5813,14.62113 10.09923,14.18087c0,0 4.03106,0.00001 4.03106,4.50652c0,4.50651 -4.03106,4.50652 -4.03106,4.50652c-11.20832,-0.41689 -19.46064,-11.09551 -18.11832,-24.12453c0.70781,-6.86945 4.60867,-13.29004 8.55911,-18.26925c4.51578,-5.69175 10.0189,-7.07405 11.657,-14.84381c1.99237,-9.45013 -4.55773,-19.91011 -8.19148,-27.66003c-3.50388,-7.4729 -9.45345,-16.08525 -11.80635,-24.0198c-1.70955,-5.76508 -1.17406,-13.70248 -1.09262,-19.62948c1.64906,-3.04774 3.04742,-6.28369 4.94715,-9.1432c2.70186,-4.06698 7.5576,-6.30515 9.48075,-10.89233c1.02221,-2.4382 0.61411,-5.36051 1.26168,-7.95411c2.01545,-8.07214 3.35276,-14.81981 4.3448,-23.18214c0.62892,-5.30147 3.94088,-15.50764 1.45071,-20.94823c-1.21924,-2.6638 -4.20579,-3.81724 -5.76269,-6.25118c-2.49564,-3.90144 -5.96579,-11.80766 -6.73477,-16.42901c-1.17554,-7.0648 -0.12545,-19.70701 5.46708,-24.64681c1.65848,-1.4649 4.04061,-1.38945 6.06092,-2.08412c0.9539,-0.00711 1.90776,-0.01421 2.86165,-0.02135z" fill="#000000" stroke-width="0.5"/><path d="M234.41387,410.12506v-247.63409h15.0046v247.63409z" fill="#000000" stroke-width="0"/><path d="M288.95275,589.98548c-2.06521,-4.28699 -8.7947,-4.23908 -12.20268,-7.93059c-0.69054,-0.74802 -5.79957,-11.22387 -5.9583,-12.08339c-0.26215,-1.42011 1.44255,-2.88466 0.92435,-4.23256c-0.71245,-1.85298 -3.05071,-2.60906 -4.18199,-4.24042c-1.36778,-1.97232 -2.1492,-4.29252 -3.22381,-6.43876c-2.80756,-3.35311 -7.65373,-5.29609 -9.14516,-9.40725c-2.7172,-7.48996 0.08674,-21.44177 0.34871,-29.39474c0.07331,-2.22434 0.63184,-6.46392 -0.97738,-8.72278c-4.87303,-6.83998 -13.39485,-11.22238 -15.75958,-19.87841c-2.0172,-7.38386 3.84774,-13.46241 7.03619,-18.69336c2.89412,-4.74805 1.98228,-12.31737 -0.23315,-17.00442c-1.33623,-2.82708 -2.65451,-4.33413 -4.28005,-5.58434c-1.09705,9.2344 -2.06712,19.32997 -5.39948,26.9892c-2.64575,6.08118 -10.94443,12.90644 -15.8046,17.07147c-1.52998,1.31115 -5.77783,2.99275 -6.70364,5.52474c-3.95868,10.82617 3.3954,12.62306 5.18095,22.75467c1.91688,10.87643 -11.06636,26.98212 -18.94175,33.61291c-0.51926,2.652 2.61476,4.75741 3.51556,7.30531c1.29037,3.6498 1.62117,10.84746 -0.08837,14.66912c-4.0711,9.10076 -14.44169,13.24741 -17.40016,23.33766c-0.26882,0.9169 0.31183,4.96166 0.65735,7.16426c-3.20241,0.18997 -6.39326,0.3712 -9.56239,0.49016c-0.96743,-10.06003 1.56741,-17.04766 8.61447,-25.56471c2.69199,-3.25362 6.95429,-5.31223 8.80642,-9.10732c2.94905,-6.04261 -3.32305,-9.84844 -4.28002,-14.84998c-0.51085,-2.66998 0.86421,-5.36764 1.29634,-8.05143c6.44563,-6.18611 14.24711,-15.60105 18.0498,-23.93184c2.30473,-5.0492 -5.21156,-11.16038 -6.38778,-14.76914c-1.26819,-3.89072 0.53237,-14.05033 1.82328,-17.12124c4.02163,-9.56697 18.46403,-12.52478 22.36765,-22.2797c2.41598,-6.03741 3.44085,-13.46168 4.30308,-20.73107c-6.35253,0.8809 -12.83901,-1.12032 -18.6624,-7.38921c-2.01419,-2.16832 -3.78704,-4.57224 -5.35014,-7.08519c-0.76789,-1.23448 -0.47512,-3.12385 -1.58461,-4.06337c-1.96106,-1.66074 -4.96124,1.34299 -7.42925,2.05931c-4.91236,1.42579 -11.52685,4.65728 -16.74316,4.16426c-11.64356,-1.10046 -12.87561,-8.08686 -16.18042,-17.43748c-0.70115,-1.9837 -2.34913,-3.64735 -2.64674,-5.73015c-0.36483,-2.55329 1.90348,-12.58139 2.35345,-14.79961c-0.01352,-3.40382 1.49077,-6.96048 0.45116,-10.20166c-0.78353,-2.44271 -4.64141,-2.20264 -6.85098,-3.50594c-3.12479,-1.84312 -9.4395,-6.0098 -10.80012,-9.49515c-1.8968,-4.85891 -0.05421,-12.06519 3.53578,-15.70434c1.55974,-1.58111 4.29883,-1.4221 6.05368,-2.78347c5.07589,-3.93775 8.88167,-11.10828 7.3343,-16.55969c2.85155,-0.67134 5.71522,-1.63411 8.86243,-2.97593c2.05492,4.79873 2.2511,10.25862 -0.37528,15.35687c-1.05676,2.05129 -9.78218,11.65092 -10.16831,11.95791c-1.58946,1.26362 -8.67003,2.3718 -6.35833,7.02871c3.14655,6.33878 14.2827,5.59736 17.43404,12.5154c0.63437,1.39262 0.45838,13.19718 0.45114,15.31488c-0.80994,4.10393 -3.13942,8.18902 -2.43087,12.31168c0.24808,1.44338 1.65091,2.4572 2.13759,3.83846c0.92292,2.6197 0.9865,5.51206 2.05931,8.07401c1.51327,3.61356 6.09007,3.34847 9.03538,2.53132c6.67216,-1.85116 18.26253,-8.19168 25.10192,-4.2766c2.47837,1.4188 3.14805,4.76671 4.79458,7.10004c4.01086,5.68402 10.3433,11.93342 17.10663,10.50741c0.20395,-1.46563 0.42488,-2.89356 0.6749,-4.26854c0,0 0.25364,-1.39516 1.2431,-2.53238l-2.92231,-2.09604c0,0 -3.75455,-3.0036 -0.75092,-6.75815c3.0036,-3.75455 6.75815,-0.75091 6.75815,-0.75091l4.92732,4.19397c0.31556,1.19017 0.79447,2.15399 1.40696,2.9219l1.2276,-1.53927c0.37042,-0.47295 0.82748,-0.87475 1.34732,-1.18155c1.21492,-0.78027 3.16347,-1.39284 5.37929,0.33821c0.03848,0.02972 0.07645,0.06006 0.11395,0.09092c1.85078,1.50773 2.01685,3.19897 1.7249,4.50729c6.18577,-1.14215 13.2504,-4.81732 16.90434,-6.64226c1.96369,-0.98072 3.45847,-2.72301 5.34117,-3.8514c2.14662,-1.2866 4.46285,-2.26679 6.70886,-3.37092c2.05267,-1.00907 10.02069,-4.66461 7.96849,-8.49214c-1.87222,-3.49193 -5.55663,-5.71379 -7.74525,-9.01661c-2.70193,-8.37117 -4.14654,-26.73232 3.90005,-33.12431c4.53732,-3.60431 9.81444,-1.09737 14.19264,-6.26118c5.38817,-6.35501 -1.36208,-14.36153 0.90925,-21.15125c0.73976,-2.21139 3.46661,-3.12626 5.07589,-4.81376c9.03557,-9.4746 20.88164,-9.46928 32.31371,-15.21985c0,0 4.30052,-2.15024 6.45079,2.15028c2.15029,4.30054 -2.15029,6.45076 -2.15029,6.45076c-5.67209,2.82097 -11.59289,5.10276 -17.73645,6.74497c-2.88852,0.77216 -6.11012,0.36119 -8.65184,2.37848c-1.4595,1.1583 -2.12827,3.09584 -3.49444,4.36275c-0.80503,0.74653 -2.55365,0.52289 -2.89803,1.56541c-0.98889,2.99376 1.98436,6.10327 1.94725,9.25587c-0.06006,5.09814 -0.92907,10.13508 -4.22748,14.24675c-2.43591,3.03651 -8.05347,6.82423 -11.90424,7.98333c-1.34229,0.4041 -2.93995,-0.49745 -4.20407,0.10848c-0.67819,0.32508 -0.49069,1.43455 -0.57395,2.18196c-0.65332,5.86713 -2.31036,13.27157 -0.31034,18.91626c2.42366,3.60313 6.99779,5.94876 8.20255,10.12071c4.85128,16.79963 -22.75605,26.06837 -33.7463,30.69636c-4.8621,2.04745 -10.67532,4.15468 -16.07907,4.50219c7.41857,8.74688 10.26582,20.54717 4.19231,31.7323c-1.65928,3.05573 -7.25,7.06391 -5.78548,11.75818c2.93841,9.41868 15.06139,12.51873 16.85814,23.40281c1.29945,7.87173 -0.32007,16.99756 -0.7395,24.92619c-0.1317,2.49031 -1.24759,5.10399 -0.45274,7.46771c0.49667,1.47702 2.7348,1.56186 3.85385,2.64634c1.73507,1.68146 3.08728,3.71751 4.63089,5.57625c2.36782,4.74225 6.71814,8.4145 8.62127,13.36156c0.64948,1.68815 -0.93833,3.59374 -0.6784,5.3838c0.38469,2.64911 1.91303,5.11921 3.65801,7.14918c2.71697,3.16068 5.40905,1.51921 8.76183,4.0462c8.28766,6.24641 7.70406,17.90859 7.66887,27.0891c-3.23573,-0.05499 -6.43123,-0.1613 -9.60643,-0.31486c0.08416,-5.30932 0.54625,-11.5915 -1.83076,-16.52568z" fill="#000000" stroke-width="0.5"/><path d="M226.50259,598.14389v-147.59261h33.49043v147.59261z" fill="url(#color-15)" stroke-width="0"/><path d="M215.3392,450.91007v-51.03301h54.22258v51.03301z" fill="url(#color-16)" stroke-width="0"/><path d="M273.48774,442.61477v-118.58495h14.4244v118.58495z" data-paper-data="{&quot;index&quot;:null}" fill="url(#color-17)" stroke-width="0"/><path d="M196.9978,445.86384v-120.17977h14.4244v120.17977z" data-paper-data="{&quot;index&quot;:null}" fill="url(#color-18)" stroke-width="0"/><path d="M198.15671,456.60935v-15.62642h88.35514v15.62642z" fill="url(#color-19)" stroke-width="0"/><path d="M268.6311,449.67035l49.19827,-133.84819l17.02117,6.25639l-49.19827,133.84826z" fill="url(#color-20)" stroke-width="0"/><path d="M197.34293,455.34255l-50.26891,-136.76109l17.39156,-6.39261l50.26901,136.7611z" data-paper-data="{&quot;index&quot;:null}" fill="url(#color-21)" stroke-width="0"/><path d="M125.32274,324.56732v-13.10101h236.26144v13.10101z" fill="url(#color-22)" stroke-width="0"/><path d="M132.98889,317.71684c0,5.90746 -4.78888,10.69633 -10.69632,10.69633c-5.90742,0 -10.69637,-4.78887 -10.69637,-10.69633c0,-5.90746 4.78888,-10.69633 10.69637,-10.69633c5.90742,0 10.69632,4.78888 10.69632,10.69633z" fill="#000000" stroke-width="0"/><path d="M374.23792,318.34317c0,5.90746 -4.78888,10.69633 -10.69632,10.69633c-5.90742,0 -10.69632,-4.78888 -10.69632,-10.69633c0,-5.90746 4.78888,-10.69632 10.69632,-10.69632c5.90742,0 10.69632,4.78888 10.69632,10.69632z" fill="#000000" stroke-width="0"/><path d="M149.94527,612.2478v-13.34049h195.13438v13.34049z" fill="#000000" stroke-width="0"/><path d="M162.64603,605.75571c0,7.7535 -6.28548,14.03892 -14.03892,14.03892c-7.7535,0 -14.03894,-6.28541 -14.03894,-14.03892c0,-7.7535 6.28544,-14.03892 14.03894,-14.03892c7.7535,0 14.03892,6.28548 14.03892,14.03892z" fill="#000000" stroke-width="0"/><path d="M358.1074,606.42755c0,7.7535 -6.28548,14.03892 -14.03892,14.03892c-7.75352,0 -14.03894,-6.28544 -14.03894,-14.03892c0,-7.7535 6.28544,-14.03894 14.03894,-14.03894c7.75352,0 14.03892,6.28548 14.03892,14.03894z" fill="#000000" stroke-width="0"/></g><path d="M242.91991,636.70738c-91.20124,0 -186.91042,-100.9002 -165.13444,-184.49849c14.3698,-55.16573 32.27203,-119.74582 62.4573,-166.51162c3.15687,-0.41167 9.70249,0.04939 11.7355,1.56074c1.46571,1.08956 1.78569,3.66161 3.53514,4.18585c6.26339,1.87689 15.78159,-6.81534 21.09739,-3.85874c7.38862,4.10948 7.96194,9.09429 17.85894,6.82464c2.84029,-1.1331 5.42344,-2.93213 8.3659,-3.76455c6.15924,-1.74248 13.57055,2.17694 20.45619,-0.07838c2.90604,-0.95185 5.3759,-3.1233 8.3659,-3.76455c5.39284,-1.15657 12.14438,-0.32427 17.27986,-3.25346c3.84808,-2.19487 5.91061,-7.35408 9.60734,-9.60734c5.48747,-3.34482 11.02631,2.92124 15.22895,5.04754c4.1112,1.02281 9.33525,2.10052 13.60655,1.08814c2.92457,-0.69316 7.06463,-3.2578 10.30798,-2.80734c1.27985,0.17774 2.15199,1.54447 3.40833,1.84658c6.96641,1.6754 15.54113,-0.96766 22.40413,-1.85205c5.42542,-0.69915 11.00189,-0.23877 16.56123,0.075c30.96418,41.88318 50.66406,101.03332 63.45417,154.75501c-2.30288,-1.09211 -4.70466,-1.99398 -7.34292,-2.47986c-15.13545,-2.78743 -36.64167,-0.7235 -49.9086,6.18554c-6.16652,3.21132 -7.81856,10.67317 -12.47547,15.18561c-1.23608,1.73408 -2.14434,3.75679 -3.70814,5.20223c-1.43985,1.33088 -7.11148,0.67907 -7.91879,1.03529c-4.67671,2.06368 -13.98802,14.4027 -16.26874,19.0389c-1.67308,3.40099 -1.31825,7.46847 -1.78048,11.23042c-0.48306,3.93164 -2.39138,7.59813 -2.8822,11.52886c-0.96828,7.75461 0.43218,15.20557 1.46001,22.62993c1.39744,10.09436 -3.24654,18.61105 -2.77351,28.64597c-4.55793,6.45929 -8.58121,17.49446 -5.64472,25.48039c0.46891,1.27519 2.37066,1.62349 2.8822,2.8822c2.00239,4.92721 3.42707,12.44258 2.65448,18.21963c-0.92917,6.94802 -9.49223,7.52107 -12.47837,13.09405c-3.49795,6.5281 1.04611,12.86303 3.28803,19.46642c-15.60062,4.73143 -31.71907,7.26746 -47.69913,7.26746z" fill="url(#color-23)" stroke="#000000" stroke-width="0"/></g><g fill="#000000" stroke-width="0"><path d="M206.26767,108.53978l3.10647,-12.38127l86.66908,21.74537l-3.10647,12.38127z" stroke="none"/><path d="M188.25076,223.8825l20.10275,-80.12217l8.29317,2.08077l-20.10275,80.12221z" stroke="none"/><path d="M247.24431,235.95369l19.53242,-77.84909l8.29319,2.08077l-19.53242,77.84909z" data-paper-data="{&quot;index&quot;:null}" stroke="none"/><path d="M196.38463,146.67255l3.10647,-12.38127l86.6691,21.74537l-3.10647,12.38127z" stroke="none"/><path d="M277.84051,167.10991l22.56286,-89.92731l13.68457,3.43347l-22.56286,89.92731z" stroke="#000000"/><path d="M187.91322,144.54707l22.56286,-89.92731l13.68464,3.43348l-22.56286,89.92731z" data-paper-data="{&quot;index&quot;:null}" stroke="#000000"/><g stroke="none"><g data-paper-data="{&quot;index&quot;:null}"><path d="M267.02709,171.34794l-2.69774,10.7522l-8.47137,-2.12547l2.69774,-10.7522z"/><path d="M255.29743,168.40495l-2.69774,10.7522l-8.47144,-2.1255l2.69774,-10.7522z"/><path d="M243.64957,165.13619l-2.69772,10.75217l-8.47142,-2.1255l2.69772,-10.75217z"/><path d="M231.91989,162.19321l-2.69772,10.75217l-8.47144,-2.1255l2.69772,-10.75217z"/><path d="M220.46199,159.08754l-2.69772,10.75217l-8.47144,-2.1255l2.69772,-10.75217z"/></g><path d="M275.11461,160.21203l-3.76046,14.98788l-66.46804,-16.6769l3.76046,-14.98788z" data-paper-data="{&quot;index&quot;:null}"/></g><g stroke="#000000"><g><path d="M319.11888,18.35024c23.21322,5.82422 37.30977,29.36371 31.48555,52.5769c-5.82422,23.21322 -29.36373,37.30983 -52.57693,31.48562c-23.21322,-5.82422 -37.30977,-29.36372 -31.48553,-52.57697c5.82422,-23.21322 29.36371,-37.30977 52.5769,-31.48555z"/></g><g data-paper-data="{&quot;index&quot;:null}"><path d="M266.78725,48.85836c-5.82422,23.21322 -29.36371,37.30977 -52.5769,31.48555c-23.21322,-5.82422 -37.30977,-29.36371 -31.48555,-52.5769c5.82422,-23.21322 29.36371,-37.30977 52.5769,-31.48555c23.21322,5.82422 37.30977,29.36371 31.48555,52.5769z"/></g></g></g><g stroke-width="0"><g fill="#000000" stroke="none"><g><path d="M246.96463,215.42038l2.69772,-10.75217l8.47137,2.12547l-2.69772,10.75217z"/><path d="M235.23494,212.47741l2.69772,-10.75217l8.47144,2.1255l-2.69772,10.75217z"/><path d="M223.42357,209.86026l2.69774,-10.7522l8.47142,2.1255l-2.69774,10.7522z"/><path d="M211.6939,206.91727l2.69774,-10.7522l8.47146,2.1255l-2.69774,10.7522z"/><path d="M200.12695,204.24602l2.69774,-10.7522l8.47144,2.1255l-2.69774,10.7522z"/></g><path d="M190.84045,214.50386l3.76046,-14.98788l66.46804,16.6769l-3.76046,14.98788z"/></g><path d="M215.77836,255.76138c-41.12271,-8.95894 -127.73138,-85.08771 -107.97897,-145.24701c2.26646,-6.90274 -8.97652,-4.9809 18.72876,-1.88968c26.47345,2.95377 14.36059,89.13956 97.69615,109.3333c95.77353,23.20768 109.65266,-62.49659 133.70999,-52.83155c24.92939,10.01543 23.5068,5.97551 21.60206,13.56701c-15.40294,61.39058 -114.76895,87.74066 -163.75799,77.06793z" data-paper-data="{&quot;index&quot;:null}" fill="url(#color-24)" stroke="#000000"/></g><path d="M381.84852,173.40569c-6.54048,26.06799 -275.7365,-43.9562 -271.73694,-68.17907c5.36537,-32.49508 32.29027,-54.99779 71.11911,-63.96198c0.28982,-0.0669 14.06784,34.39705 31.46261,39.16421c29.80424,8.16809 40.2921,-18.25431 49.16333,-16.05852c10.4427,2.58474 5.86472,31.0931 36.71723,37.60598c26.59808,8.60441 47.667,-20.02323 48.27369,-19.47396c28.60373,25.8967 42.92843,59.30741 35.00099,90.90333z" fill="url(#color-25)" stroke="#000000" stroke-width="0"/><g stroke="none" stroke-width="0"><path d="M229.42685,40.23312c-0.71401,2.84576 -3.55138,4.58603 -6.33742,3.88701c-2.78605,-0.69903 -4.46577,-3.57266 -3.75177,-6.4184c0.71401,-2.84576 3.55138,-4.58603 6.33742,-3.88701c2.78605,0.69903 4.46577,3.57266 3.75177,6.4184zM223.23838,43.39569c2.44122,0.61251 4.91675,-0.86995 5.52926,-3.31119c0.61251,-2.44122 -0.86995,-4.91675 -3.31119,-5.52926c-2.44122,-0.61251 -4.91675,0.86995 -5.52926,3.31119c-0.61251,2.44122 0.86995,4.91675 3.31119,5.52926z" fill="#ffffff"/><path d="M232.61564,41.0332c-1.16534,4.64461 -5.79627,7.48495 -10.34345,6.34405c-4.54718,-1.14089 -7.28871,-5.831 -6.12338,-10.4756c1.16534,-4.64461 5.79627,-7.48498 10.34345,-6.34408c4.54718,1.14089 7.28871,5.831 6.12337,10.47562z" fill="url(#color-26)"/></g><g stroke="none" stroke-width="0"><path d="M314.4118,61.55594c-0.71401,2.84576 -3.55138,4.58603 -6.33742,3.88701c-2.78605,-0.69903 -4.46577,-3.57266 -3.75177,-6.4184c0.71401,-2.84576 3.55138,-4.58603 6.33742,-3.88701c2.78605,0.69903 4.46577,3.57266 3.75177,6.4184zM308.22335,64.7185c2.44122,0.61251 4.91675,-0.86995 5.52926,-3.31119c0.61251,-2.44122 -0.86995,-4.91675 -3.31119,-5.52926c-2.44122,-0.61251 -4.91675,0.86995 -5.52926,3.31119c-0.61251,2.44122 0.86995,4.91675 3.31119,5.52926z" fill="#ffffff"/><path d="M317.60061,62.35602c-1.16534,4.64461 -5.79627,7.48495 -10.34345,6.34405c-4.54718,-1.14089 -7.28871,-5.831 -6.12338,-10.4756c1.16534,-4.64461 5.79627,-7.48498 10.34345,-6.34408c4.54718,1.14089 7.28871,5.831 6.12337,10.47562z" fill="url(#color-27)"/></g></g></g></svg>