<svg version="1.1" xmlns="http://www.w3.org/2000/svg" xmlns:xlink="http://www.w3.org/1999/xlink" width="502.36369" height="239.01768" viewBox="0,0,502.36369,239.01768"><defs><linearGradient x1="49.22013" y1="327.80208" x2="82.22013" y2="327.80208" gradientUnits="userSpaceOnUse" id="color-1"><stop offset="0" stop-color="#5c5c5c"/><stop offset="1" stop-color="#3d3d3d"/></linearGradient><linearGradient x1="428.55346" y1="333.05208" x2="395.55346" y2="333.05208" gradientUnits="userSpaceOnUse" id="color-2"><stop offset="0" stop-color="#5c5c5c"/><stop offset="1" stop-color="#3d3d3d"/></linearGradient><linearGradient x1="13.55346" y1="346.71876" x2="46.55346" y2="346.71876" gradientUnits="userSpaceOnUse" id="color-3"><stop offset="0" stop-color="#656565"/><stop offset="1" stop-color="#2d2d2d"/></linearGradient><linearGradient x1="464.22013" y1="346.71876" x2="431.22013" y2="346.71876" gradientUnits="userSpaceOnUse" id="color-4"><stop offset="0" stop-color="#656565"/><stop offset="1" stop-color="#2d2d2d"/></linearGradient><linearGradient x1="238.4985" y1="267.36037" x2="238.4985" y2="308.36037" gradientUnits="userSpaceOnUse" id="color-5"><stop offset="0" stop-color="#656565"/><stop offset="1" stop-color="#444444"/></linearGradient><linearGradient x1="238.66387" y1="307.84013" x2="238.66387" y2="327.84013" gradientUnits="userSpaceOnUse" id="color-6"><stop offset="0" stop-color="#656565"/><stop offset="1" stop-color="#444444"/></linearGradient><linearGradient x1="73.71763" y1="228.98941" x2="92.33063" y2="228.98941" gradientUnits="userSpaceOnUse" id="color-7"><stop offset="0" stop-color="#d6d561"/><stop offset="1" stop-color="#fcff61"/></linearGradient><linearGradient x1="69.63756" y1="267.70252" x2="109.72708" y2="267.70252" gradientUnits="userSpaceOnUse" id="color-8"><stop offset="0" stop-color="#ad9090"/><stop offset="1" stop-color="#ffbdbd"/></linearGradient><linearGradient x1="67.41786" y1="239.49671" x2="112.08902" y2="239.49671" gradientUnits="userSpaceOnUse" id="color-9"><stop offset="0" stop-color="#d6d6d6"/><stop offset="1" stop-color="#ffffff"/></linearGradient><linearGradient x1="246.25" y1="281.00001" x2="337.75" y2="281.00001" gradientUnits="userSpaceOnUse" id="color-10"><stop offset="0" stop-color="#000000"/><stop offset="1" stop-color="#636363"/></linearGradient><radialGradient cx="304.75" cy="269.05212" r="45.75" gradientUnits="userSpaceOnUse" id="color-11"><stop offset="0" stop-color="#000000"/><stop offset="1" stop-color="#636363"/></radialGradient><linearGradient x1="284.25" y1="238.75001" x2="297.75" y2="238.75001" gradientUnits="userSpaceOnUse" id="color-12"><stop offset="0" stop-color="#636363"/><stop offset="1" stop-color="#000000"/></linearGradient><linearGradient x1="304.84615" y1="186.16682" x2="304.84615" y2="215.35345" gradientUnits="userSpaceOnUse" id="color-13"><stop offset="0" stop-color="#636363"/><stop offset="1" stop-color="#000000"/></linearGradient><radialGradient cx="279.95167" cy="199.04328" r="53.50884" gradientUnits="userSpaceOnUse" id="color-14"><stop offset="0" stop-color="#3e3e3e"/><stop offset="1" stop-color="#000000"/></radialGradient><linearGradient x1="269.79388" y1="173.25557" x2="285.3904" y2="173.25557" gradientUnits="userSpaceOnUse" id="color-15"><stop offset="0" stop-color="#454545"/><stop offset="1" stop-color="#000000"/></linearGradient><linearGradient x1="295.46743" y1="208.10586" x2="284.71685" y2="219.40527" gradientUnits="userSpaceOnUse" id="color-16"><stop offset="0" stop-color="#454545"/><stop offset="1" stop-color="#000000"/></linearGradient><linearGradient x1="268.82708" y1="217.51024" x2="257.30963" y2="206.9936" gradientUnits="userSpaceOnUse" id="color-17"><stop offset="0" stop-color="#454545"/><stop offset="1" stop-color="#000000"/></linearGradient><radialGradient cx="279.25" cy="194.88544" r="13.25" gradientUnits="userSpaceOnUse" id="color-18"><stop offset="0" stop-color="#636363"/><stop offset="1" stop-color="#000000"/></radialGradient><radialGradient cx="277.37637" cy="194.17884" r="53.50884" gradientUnits="userSpaceOnUse" id="color-19"><stop offset="0" stop-color="#636363"/><stop offset="1" stop-color="#000000"/></radialGradient><linearGradient x1="377.35909" y1="224.33668" x2="377.35909" y2="298.42391" gradientUnits="userSpaceOnUse" id="color-20"><stop offset="0" stop-color="#bd6a00"/><stop offset="1" stop-color="#643800"/></linearGradient><linearGradient x1="374.90802" y1="224.69419" x2="374.90802" y2="235.40562" gradientUnits="userSpaceOnUse" id="color-21"><stop offset="0" stop-color="#bd6a00"/><stop offset="1" stop-color="#7b4600"/></linearGradient></defs><g transform="translate(12.68335,-145.53443)"><g data-paper-data="{&quot;isPaintingLayer&quot;:true}" fill-rule="nonzero" stroke-linejoin="miter" stroke-miterlimit="10" stroke-dasharray="" stroke-dashoffset="0" style="mix-blend-mode: normal"><path d="M49.22013,364.55212v-73.5h33v73.5z" fill="url(#color-1)" stroke="none" stroke-width="0" stroke-linecap="butt"/><path d="M395.55346,364.55212v-63h33v63z" data-paper-data="{&quot;index&quot;:null}" fill="url(#color-2)" stroke="none" stroke-width="0" stroke-linecap="butt"/><path d="M13.55346,384.55212v-75.66667h33v75.66667z" fill="url(#color-3)" stroke="none" stroke-width="0" stroke-linecap="butt"/><path d="M431.22013,384.55212v-75.66667h33v75.66667z" data-paper-data="{&quot;index&quot;:null}" fill="url(#color-4)" stroke="none" stroke-width="0" stroke-linecap="butt"/><path d="M-12.68335,308.36037l40.53655,-41h424.18606l37.64108,41z" fill="url(#color-5)" stroke="none" stroke-width="0" stroke-linecap="butt"/><path d="M-12.08613,327.84013v-20h501.5v20z" fill="url(#color-6)" stroke="none" stroke-width="0" stroke-linecap="butt"/><g stroke="#000000" stroke-width="0" stroke-linecap="butt"><path d="M86.60354,249.32055v-28.34901l-12.88591,-8.30425l3.7226,-4.00895l14.8904,9.44967v31.21254z" fill="url(#color-7)"/><path d="M74.79195,290.3245l-5.15436,-47.5347l40.08949,-0.28637l-5.72707,47.82106c0,0 -5.80109,2.57257 -15.392,2.57718c-8.15749,0.00393 -13.81608,-2.57718 -13.81608,-2.57718z" fill="url(#color-8)"/><path d="M67.41786,242.6466v-6.29978h44.67116v6.29978z" fill="url(#color-9)"/></g><g stroke="#000000" stroke-width="0" stroke-linecap="butt"><path d="M337.75,281.00001c0,5.79899 -20.48298,10.5 -45.75,10.5c-25.26702,0 -45.75,-4.70101 -45.75,-10.5c0,-2.43157 0.1466,-6.44995 0.1466,-6.44995c0,0 30.93107,-4.05005 45.6034,-4.05005c15.48517,0 45.45114,3.96769 45.45114,3.96769c0,0 0.29886,4.28729 0.29886,6.53231z" fill="url(#color-10)"/><path d="M337.75,274.50001c0,5.79899 -20.48298,10.5 -45.75,10.5c-25.26702,0 -45.75,-4.70101 -45.75,-10.5c0,-5.79899 20.48298,-10.5 45.75,-10.5c25.26702,0 45.75,4.70101 45.75,10.5z" fill="url(#color-11)"/></g><path d="M284.25,275.25001v-73h13.5v73c0,0 -1.35458,1.56785 -7,1.5c-4.97029,-0.05974 -6.5,-1.5 -6.5,-1.5z" fill="url(#color-12)" stroke="none" stroke-width="0" stroke-linecap="butt"/><path d="M274.51494,215.35345v-29.18664c0,0 40.60663,0 50.93355,0c4.51336,0 10.44985,7.29664 10.30117,14.87946c-0.14868,7.58282 -5.72551,14.30718 -10.87345,14.30718c-10.67499,0 -50.36126,0 -50.36126,0z" fill="url(#color-13)" stroke="none" stroke-width="0" stroke-linecap="butt"/><path d="M319.15333,199.04328c0,29.55211 -17.55118,53.50884 -39.20166,53.50884c-21.65048,0 -39.20166,-23.95673 -39.20166,-53.50884c0,-29.55211 17.55118,-53.50884 39.20166,-53.50884c21.65048,0 39.20166,23.95673 39.20166,53.50884z" fill="url(#color-14)" stroke="none" stroke-width="0" stroke-linecap="butt"/><path d="M277.15772,151.95746c17.17004,-2.00981 2.56063,42.66204 0,42.66204c-2.56063,0 -15.20547,-43.02055 0,-42.66204z" fill="url(#color-15)" stroke="none" stroke-width="0" stroke-linecap="butt"/><path d="M305.82169,228.12147c-10.37912,13.82474 -32.67292,-27.55153 -30.9079,-29.40666c1.76502,-1.85514 41.64865,18.63769 30.9079,29.40666z" fill="url(#color-16)" stroke="none" stroke-width="0" stroke-linecap="butt"/><path d="M249.02798,228.27271c-14.03464,-10.09348 26.87583,-33.23096 28.76676,-31.50434c1.89094,1.72661 -17.77983,42.02204 -28.76676,31.50435z" fill="url(#color-17)" stroke="none" stroke-width="0" stroke-linecap="butt"/><path d="M284.75,198.63544c0,7.31777 -4.14137,13.25 -9.25,13.25c-5.10863,0 -10.75,-5.93223 -10.75,-13.25c0,-7.31777 5.64137,-13.25 10.75,-13.25c5.10863,0 9.25,5.93223 9.25,13.25z" fill="url(#color-18)" stroke="none" stroke-width="0" stroke-linecap="butt"/><path d="M319.15333,199.04328c0,29.55211 -17.55118,53.50884 -39.20166,53.50884c-21.65048,0 -39.20166,-23.95673 -39.20166,-53.50884c0,-29.55211 17.55118,-53.50884 39.20166,-53.50884c21.65048,0 39.20166,23.95673 39.20166,53.50884zM278.57115,243.25095c6.32131,0 28.82134,-7.41697 29.75893,-43.49382c0.90811,-34.94261 -20.01358,-46.13272 -29.75893,-45.78297c-10.33651,0.37097 -31.54343,4.55125 -32.04808,45.21068c-0.48332,38.94105 25.72677,44.0661 32.04808,44.0661z" fill="url(#color-19)" stroke="none" stroke-width="0" stroke-linecap="butt"/><g><path d="M344.1091,298.42391l5.3557,-73.64096l53.55705,-0.44631c0,0 0.44631,10.54465 0.44631,19.63759c0,11.37032 7.14093,42.39933 7.14093,42.39933l-13.83557,12.05035z" fill="url(#color-20)" stroke="#000000" stroke-width="0" stroke-linecap="butt"/><path d="M396.41602,297.91681l5.53567,-72.68753" fill="none" stroke="#4f2b00" stroke-width="1" stroke-linecap="round"/><path d="M346.87815,235.40562l2.50269,-10.71141h53.55705l-2.50269,10.71141z" fill="url(#color-21)" stroke="#000000" stroke-width="0" stroke-linecap="butt"/></g></g></g></svg>