<svg version="1.1" xmlns="http://www.w3.org/2000/svg" xmlns:xlink="http://www.w3.org/1999/xlink" width="167.32804" height="206.22653" viewBox="0,0,167.32804,206.22653"><defs><radialGradient cx="295.69984" cy="105.47492" r="95.12294" gradientUnits="userSpaceOnUse" id="color-1"><stop offset="0" stop-color="#6e6e6e"/><stop offset="1" stop-color="#353535"/></radialGradient><linearGradient x1="251.85901" y1="256.65511" x2="251.85901" y2="283.11327" gradientUnits="userSpaceOnUse" id="color-2"><stop offset="0" stop-color="#919191"/><stop offset="1" stop-color="#515151"/></linearGradient><linearGradient x1="229.73027" y1="256.65511" x2="229.73027" y2="283.11327" gradientUnits="userSpaceOnUse" id="color-3"><stop offset="0" stop-color="#919191"/><stop offset="1" stop-color="#515151"/></linearGradient><linearGradient x1="207.60153" y1="256.65511" x2="207.60153" y2="283.11327" gradientUnits="userSpaceOnUse" id="color-4"><stop offset="0" stop-color="#919191"/><stop offset="1" stop-color="#515151"/></linearGradient><linearGradient x1="185.47279" y1="256.65511" x2="185.47279" y2="283.11327" gradientUnits="userSpaceOnUse" id="color-5"><stop offset="0" stop-color="#919191"/><stop offset="1" stop-color="#515151"/></linearGradient><linearGradient x1="273.98775" y1="256.65511" x2="273.98775" y2="283.11327" gradientUnits="userSpaceOnUse" id="color-6"><stop offset="0" stop-color="#919191"/><stop offset="1" stop-color="#515151"/></linearGradient><linearGradient x1="296.11649" y1="256.65511" x2="296.11649" y2="283.11327" gradientUnits="userSpaceOnUse" id="color-7"><stop offset="0" stop-color="#910000"/><stop offset="1" stop-color="#4f0000"/></linearGradient><radialGradient cx="284.09721" cy="128.32812" r="66.20556" gradientUnits="userSpaceOnUse" id="color-8"><stop offset="0" stop-color="#dae7e8"/><stop offset="1" stop-color="#90a4b0"/></radialGradient><linearGradient x1="266.21744" y1="165.1633" x2="278.81032" y2="243.6596" gradientUnits="userSpaceOnUse" id="color-9"><stop offset="0" stop-color="#e8e78c"/><stop offset="1" stop-color="#9e975b"/></linearGradient></defs><g transform="translate(-161.61869,-76.88673)"><g data-paper-data="{&quot;isPaintingLayer&quot;:true}" fill-rule="nonzero" stroke-linecap="butt" stroke-linejoin="miter" stroke-miterlimit="10" stroke-dasharray="" stroke-dashoffset="0" style="mix-blend-mode: normal"><path d="M161.6187,283.11327v-195.46685l12.08038,-10.75968h132.45768l12.22456,11.49876v194.72777z" fill="url(#color-1)" stroke="#000000" stroke-width="0"/><path d="M175.8935,283.11327v-26.45816h129.61873v26.45816z" fill="#1b1b1b" stroke="#000000" stroke-width="0"/><path d="M242.27972,283.11327v-26.45816h19.15858v26.45816z" fill="url(#color-2)" stroke="#000000" stroke-width="0"/><path d="M220.15098,283.11327v-26.45816h19.15858v26.45816z" fill="url(#color-3)" stroke="#000000" stroke-width="0"/><path d="M198.02224,283.11327v-26.45816h19.15858v26.45816z" fill="url(#color-4)" stroke="#000000" stroke-width="0"/><path d="M175.8935,283.11327v-26.45816h19.15858v26.45816z" fill="url(#color-5)" stroke="#000000" stroke-width="0"/><path d="M264.40846,283.11327v-26.45816h19.15858v26.45816z" fill="url(#color-6)" stroke="#000000" stroke-width="0"/><path d="M286.5372,283.11327v-26.45816h19.15858v26.45816z" fill="url(#color-7)" stroke="#000000" stroke-width="0"/><path d="M173.79444,140.05381c0,-11.86432 0,-63.16708 0,-63.16708h132.41113c0,0 0,49.37493 0,61.66708c0,5.24292 -2.18407,11.21873 -9.50649,11.21873c-28.13284,0 -100.00403,0 -113.83333,0c-4.67983,0 -9.0713,-6.12124 -9.0713,-9.71873z" fill="url(#color-8)" stroke="#000000" stroke-width="0"/><g stroke="none"><path d="M246.00724,244.64578c0,0 -11.16842,-12.41665 -13.01109,-23.90273c-2.26656,-14.12836 -8.24846,-48.92691 -8.24846,-48.92691l82.93949,-13.30568c0,0 5.00949,31.22608 7.24109,45.13653c1.91851,11.95883 14.01846,27.69311 14.01846,27.69311z" fill="url(#color-9)" stroke-width="0"/><text transform="translate(229.71535,185.09894) rotate(-9.1141) scale(0.18841,0.18841)" font-size="40" xml:space="preserve" fill="#5f87ff" fill-rule="nonzero" stroke="none" stroke-width="1" stroke-linecap="butt" stroke-linejoin="miter" stroke-miterlimit="10" stroke-dasharray="" stroke-dashoffset="0" font-family="Handwriting" font-weight="normal" text-anchor="start" style="mix-blend-mode: normal"><tspan x="0" dy="0">I found a tape recording</tspan><tspan x="0" dy="46.15px">regarding the animatronic.</tspan><tspan x="0" dy="46.15px">You might wanna give it a</tspan><tspan x="0" dy="46.15px">listen.</tspan></text><text transform="translate(301.50377,231.30974) rotate(-10.8576) scale(0.1884,0.1884)" font-size="40" xml:space="preserve" fill="#577cea" fill-rule="nonzero" stroke="none" stroke-width="1" stroke-linecap="butt" stroke-linejoin="miter" stroke-miterlimit="10" stroke-dasharray="" stroke-dashoffset="0" font-family="Handwriting" font-weight="normal" text-anchor="start" style="mix-blend-mode: normal"><tspan x="0" dy="0">-Dave</tspan></text></g></g></g></svg>