<svg version="1.1" xmlns="http://www.w3.org/2000/svg" xmlns:xlink="http://www.w3.org/1999/xlink" width="485.10757" height="364.56456" viewBox="0,0,485.10757,364.56456"><defs><radialGradient cx="451.1534" cy="12.06642" r="242.55374" gradientUnits="userSpaceOnUse" id="color-1"><stop offset="0" stop-color="#a9a9a9"/><stop offset="1" stop-color="#8d8d8d"/></radialGradient><radialGradient cx="442.56272" cy="25.57993" r="170.758" gradientUnits="userSpaceOnUse" id="color-2"><stop offset="0" stop-color="#414141"/><stop offset="1" stop-color="#0a0a0a"/></radialGradient><radialGradient cx="63.59387" cy="173.05391" r="168.08784" gradientUnits="userSpaceOnUse" id="color-3"><stop offset="0" stop-color="#434343"/><stop offset="1" stop-color="#272727"/></radialGradient><radialGradient cx="73.49491" cy="36.24931" r="46.14281" gradientUnits="userSpaceOnUse" id="color-4"><stop offset="0" stop-color="#626262"/><stop offset="1" stop-color="#4f4f4f"/></radialGradient><radialGradient cx="73.49491" cy="67.91598" r="46.14281" gradientUnits="userSpaceOnUse" id="color-5"><stop offset="0" stop-color="#626262"/><stop offset="1" stop-color="#4f4f4f"/></radialGradient><radialGradient cx="73.49491" cy="100.41598" r="46.14281" gradientUnits="userSpaceOnUse" id="color-6"><stop offset="0" stop-color="#626262"/><stop offset="1" stop-color="#4f4f4f"/></radialGradient><radialGradient cx="72.86278" cy="37.6729" r="43.46787" gradientUnits="userSpaceOnUse" id="color-7"><stop offset="0" stop-color="#575757"/><stop offset="1" stop-color="#434343"/></radialGradient><radialGradient cx="72.86278" cy="69.33956" r="43.46787" gradientUnits="userSpaceOnUse" id="color-8"><stop offset="0" stop-color="#575757"/><stop offset="1" stop-color="#434343"/></radialGradient><radialGradient cx="72.86278" cy="101.83957" r="43.46787" gradientUnits="userSpaceOnUse" id="color-9"><stop offset="0" stop-color="#575757"/><stop offset="1" stop-color="#434343"/></radialGradient><radialGradient cx="39.22213" cy="45.41597" r="11.2013" gradientUnits="userSpaceOnUse" id="color-10"><stop offset="0" stop-color="#c3c3c3" stop-opacity="0"/><stop offset="1" stop-color="#c3c3c3"/></radialGradient><radialGradient cx="78.84477" cy="43.2493" r="12.03723" gradientUnits="userSpaceOnUse" id="color-11"><stop offset="0" stop-color="#c3c3c3" stop-opacity="0"/><stop offset="1" stop-color="#c3c3c3"/></radialGradient><radialGradient cx="26.8285" cy="75.02987" r="11.2013" gradientUnits="userSpaceOnUse" id="color-12"><stop offset="0" stop-color="#c3c3c3" stop-opacity="0"/><stop offset="1" stop-color="#c3c3c3"/></radialGradient><radialGradient cx="95.56442" cy="75.59637" r="12.03723" gradientUnits="userSpaceOnUse" id="color-13"><stop offset="0" stop-color="#c3c3c3" stop-opacity="0"/><stop offset="1" stop-color="#c3c3c3"/></radialGradient><radialGradient cx="33.34869" cy="108.02987" r="11.2013" gradientUnits="userSpaceOnUse" id="color-14"><stop offset="0" stop-color="#c3c3c3" stop-opacity="0"/><stop offset="1" stop-color="#c3c3c3"/></radialGradient><radialGradient cx="91.0504" cy="108.59638" r="12.03723" gradientUnits="userSpaceOnUse" id="color-15"><stop offset="0" stop-color="#c3c3c3" stop-opacity="0"/><stop offset="1" stop-color="#c3c3c3"/></radialGradient></defs><g transform="translate(1.80303,2.28228)"><g data-paper-data="{&quot;isPaintingLayer&quot;:true}" fill-rule="nonzero" stroke="none" stroke-linecap="butt" stroke-linejoin="miter" stroke-miterlimit="10" stroke-dasharray="" stroke-dashoffset="0" style="mix-blend-mode: normal"><path d="M-1.80303,362.28228v-364.56456h485.10757v364.56456z" fill="url(#color-1)" stroke-width="0"/><path d="M122.20846,347.56756v-335.13513h341.51592v335.13513z" fill="url(#color-2)" stroke-width="0"/><path d="M12.76165,347.56756v-335.13513h99.52972v335.13513z" fill="url(#color-3)" stroke-width="0"/><path d="M16.44791,58.15624v-27h92.2856v27z" fill="url(#color-4)" stroke-width="0"/><path d="M16.44791,89.82291v-27h92.2856v27z" fill="url(#color-5)" stroke-width="0"/><path d="M16.44791,122.32291v-27h92.2856v27z" fill="url(#color-6)" stroke-width="0"/><path d="M19.12287,55.87019v-22.42792h86.93573v22.42792z" fill="url(#color-7)" stroke-width="0"/><path d="M19.12287,87.53686v-22.42792h86.93573v22.42792z" fill="url(#color-8)" stroke-width="0"/><path d="M19.12287,120.03686v-22.42792h86.93573v22.42792z" fill="url(#color-9)" stroke-width="0"/><path d="M37.79544,53.49522l-0.81657,-15.6455l48.4179,-2.51151l0.81657,15.6455z" fill="#efefef" stroke-width="0"/><path d="M25.53147,83.07736l-0.60898,-15.69732l78.96169,1.70617l0.60898,15.69732z" fill="#efefef" stroke-width="0"/><path d="M31.07188,119.30082l-2.41203,-15.06502l69.1823,-6.87306l2.41203,15.06502z" fill="#efefef" stroke-width="0"/><text transform="translate(52.99923,49.70252) rotate(-2.96984) scale(0.26897,0.35555) skewX(0.01115)" font-size="40" xml:space="preserve" fill="#000000" fill-rule="nonzero" stroke="none" stroke-width="1" stroke-linecap="butt" stroke-linejoin="miter" stroke-miterlimit="10" stroke-dasharray="" stroke-dashoffset="0" font-family="Handwriting" font-weight="normal" text-anchor="start" style="mix-blend-mode: normal"><tspan x="0" dy="0">A/C</tspan></text><text transform="translate(35.28316,80.74227) rotate(-0.13634) scale(0.26896,0.35553) skewX(-0.00018)" font-size="40" xml:space="preserve" fill="#000000" fill-rule="nonzero" stroke="none" stroke-width="1" stroke-linecap="butt" stroke-linejoin="miter" stroke-miterlimit="10" stroke-dasharray="" stroke-dashoffset="0" font-family="Handwriting" font-weight="normal" text-anchor="start" style="mix-blend-mode: normal"><tspan x="0" dy="0">CAMERAS</tspan></text><text transform="translate(35.9572,116.49176) rotate(-6.56853) scale(0.26897,0.35555) skewX(0.04028)" font-size="40" xml:space="preserve" fill="#000000" fill-rule="nonzero" stroke="none" stroke-width="1" stroke-linecap="butt" stroke-linejoin="miter" stroke-miterlimit="10" stroke-dasharray="" stroke-dashoffset="0" font-family="Handwriting" font-weight="normal" text-anchor="start" style="mix-blend-mode: normal"><tspan x="0" dy="0">VENT SEAL</tspan></text><path d="M33.32224,55.78235l3.54599,-22.05179l8.25385,1.31904l-3.54599,22.05179z" fill="url(#color-10)" stroke-width="0"/><path d="M76.99484,55.76325l-4.20174,-23.63164l7.90169,-1.39625l4.20174,23.63164z" fill="url(#color-11)" stroke-width="0"/><path d="M22.34156,86.07737l0.61788,-22.32483l8.356,0.22985l-0.61788,22.32484z" fill="url(#color-12)" stroke-width="0"/><path d="M90.58369,87.23019l1.96338,-23.92005l7.99808,0.65243l-1.96338,23.92006z" fill="url(#color-13)" stroke-width="0"/><path d="M24.83429,116.397l9.44958,-20.24932l7.57918,3.51506l-9.44958,20.24931z" fill="url(#color-14)" stroke-width="0"/><path d="M94.06825,120.88252l-12.8266,-20.30998l6.79098,-4.2623l12.8266,20.30999z" fill="url(#color-15)" stroke-width="0"/></g></g></svg>