<svg version="1.1" xmlns="http://www.w3.org/2000/svg" xmlns:xlink="http://www.w3.org/1999/xlink" width="632.13213" height="437.17153" viewBox="0,0,632.13213,437.17153"><defs><linearGradient x1="242.23481" y1="-14.96061" x2="242.23481" y2="132.18654" gradientUnits="userSpaceOnUse" id="color-1"><stop offset="0" stop-color="#9e9e9e"/><stop offset="1" stop-color="#000000"/></linearGradient><linearGradient x1="242.98556" y1="250.80516" x2="242.98556" y2="400.95531" gradientUnits="userSpaceOnUse" id="color-2"><stop offset="0" stop-color="#000000"/><stop offset="1" stop-color="#9e9e9e"/></linearGradient><linearGradient x1="74.48406" y1="181.73609" x2="242.65223" y2="181.73609" gradientUnits="userSpaceOnUse" id="color-3"><stop offset="0" stop-color="#000000"/><stop offset="1" stop-color="#9e9e9e"/></linearGradient><linearGradient x1="441.85043" y1="181.73609" x2="242.15073" y2="181.73609" gradientUnits="userSpaceOnUse" id="color-4"><stop offset="0" stop-color="#000000"/><stop offset="1" stop-color="#858585"/></linearGradient><linearGradient x1="240" y1="-36.21622" x2="240" y2="396.21622" gradientUnits="userSpaceOnUse" id="color-5"><stop offset="0" stop-color="#000000"/><stop offset="1" stop-color="#000000" stop-opacity="0"/></linearGradient><linearGradient x1="240" y1="396.21622" x2="240" y2="-36.21621" gradientUnits="userSpaceOnUse" id="color-6"><stop offset="0" stop-color="#000000"/><stop offset="1" stop-color="#000000" stop-opacity="0"/></linearGradient></defs><g transform="translate(73.83126,36.21622)"><g data-paper-data="{&quot;isPaintingLayer&quot;:true}" fill-rule="nonzero" stroke="none" stroke-linecap="butt" stroke-linejoin="miter" stroke-miterlimit="10" stroke-dasharray="" stroke-dashoffset="0" style="mix-blend-mode: normal"><path d="M-69.32675,271.82618v-195.1952h617.11712v195.1952z" fill="#000000" stroke-width="0"/><path d="M-73.83126,132.18654v-147.14715h632.13213v147.14715z" fill="url(#color-1)" stroke-width="0"/><path d="M-22.7802,400.95531v-150.15015h531.53153v150.15015z" fill="url(#color-2)" stroke-width="0"/><path d="M74.48406,252.30666v-141.14114l168.16817,-40.54054v217.71772z" fill="url(#color-3)" stroke-width="NaN"/><path d="M242.15073,288.3427v-217.71772l199.6997,40.54054v141.14114z" fill="url(#color-4)" stroke-width="NaN"/><g stroke-width="0"><path d="M-20.51051,396.21622v-432.43243h521.02102v432.43243z" fill="url(#color-5)"/><path d="M500.51051,-36.21621v432.43243h-521.02102v-432.43243z" data-paper-data="{&quot;index&quot;:null}" fill="url(#color-6)"/></g></g></g></svg>