<svg version="1.1" xmlns="http://www.w3.org/2000/svg" xmlns:xlink="http://www.w3.org/1999/xlink" width="664.99916" height="467.97297" viewBox="0,0,664.99916,467.97297"><defs><linearGradient x1="165.71336" y1="190.71825" x2="189.88006" y2="190.71825" gradientUnits="userSpaceOnUse" id="color-1"><stop offset="0" stop-color="#c2c2c2"/><stop offset="1" stop-color="#000000"/></linearGradient><linearGradient x1="299.71333" y1="190.71825" x2="274.0467" y2="190.71825" gradientUnits="userSpaceOnUse" id="color-2"><stop offset="0" stop-color="#c2c2c2"/><stop offset="1" stop-color="#000000"/></linearGradient><linearGradient x1="232.81964" y1="274.69826" x2="232.81964" y2="300.91426" gradientUnits="userSpaceOnUse" id="color-3"><stop offset="0" stop-color="#000000"/><stop offset="1" stop-color="#c2c2c2"/></linearGradient><linearGradient x1="233.15302" y1="110.58092" x2="233.15302" y2="93.69824" gradientUnits="userSpaceOnUse" id="color-4"><stop offset="0" stop-color="#000000"/><stop offset="1" stop-color="#c2c2c2"/></linearGradient><radialGradient cx="232.18622" cy="193.25084" r="113.36336" gradientUnits="userSpaceOnUse" id="color-5"><stop offset="0" stop-color="#000000" stop-opacity="0"/><stop offset="1" stop-color="#000000"/></radialGradient><linearGradient x1="237.15173" y1="299.36495" x2="237.15173" y2="372.93852" gradientUnits="userSpaceOnUse" id="color-6"><stop offset="0" stop-color="#c4c4c4"/><stop offset="1" stop-color="#9f9f9f"/></linearGradient><linearGradient x1="37.97325" y1="179.3028" x2="139.77883" y2="179.3028" gradientUnits="userSpaceOnUse" id="color-7"><stop offset="0" stop-color="#876923"/><stop offset="1" stop-color="#67491b"/></linearGradient><radialGradient cx="107.6634" cy="144.59015" r="48.2829" gradientUnits="userSpaceOnUse" id="color-8"><stop offset="0" stop-color="#ffffff"/><stop offset="1" stop-color="#e0f8ff"/></radialGradient><linearGradient x1="-1.13656" y1="218.5105" x2="157.57636" y2="218.5105" gradientUnits="userSpaceOnUse" id="color-9"><stop offset="0" stop-color="#876923"/><stop offset="1" stop-color="#67491b"/></linearGradient><linearGradient x1="9.86344" y1="270.01072" x2="145.78946" y2="270.01072" gradientUnits="userSpaceOnUse" id="color-10"><stop offset="0" stop-color="#68511b"/><stop offset="1" stop-color="#67491b"/></linearGradient><linearGradient x1="77.8638" y1="284.79953" x2="77.8638" y2="307.64698" gradientUnits="userSpaceOnUse" id="color-11"><stop offset="0" stop-color="#593f17"/><stop offset="1" stop-color="#443512"/></linearGradient><linearGradient x1="77.8638" y1="257.13283" x2="77.8638" y2="279.98027" gradientUnits="userSpaceOnUse" id="color-12"><stop offset="0" stop-color="#593f17"/><stop offset="1" stop-color="#443512"/></linearGradient><linearGradient x1="77.8638" y1="230.46619" x2="77.8638" y2="253.31367" gradientUnits="userSpaceOnUse" id="color-13"><stop offset="0" stop-color="#593f17"/><stop offset="1" stop-color="#443512"/></linearGradient><radialGradient cx="80.66339" cy="295.09182" r="5.87987" gradientUnits="userSpaceOnUse" id="color-14"><stop offset="0" stop-color="#ffffff"/><stop offset="1" stop-color="#fff7c7"/></radialGradient><radialGradient cx="80.66339" cy="267.4252" r="5.87987" gradientUnits="userSpaceOnUse" id="color-15"><stop offset="0" stop-color="#ffffff"/><stop offset="1" stop-color="#fff7c7"/></radialGradient><radialGradient cx="80.66339" cy="240.75856" r="5.87987" gradientUnits="userSpaceOnUse" id="color-16"><stop offset="0" stop-color="#ffffff"/><stop offset="1" stop-color="#fff7c7"/></radialGradient><linearGradient x1="456.56649" y1="227.82685" x2="456.56649" y2="384.08828" gradientUnits="userSpaceOnUse" id="color-17"><stop offset="0" stop-color="#ffffff"/><stop offset="1" stop-color="#737373"/></linearGradient><linearGradient x1="469.19878" y1="231.52567" x2="469.19878" y2="396.82191" gradientUnits="userSpaceOnUse" id="color-18"><stop offset="0" stop-color="#52bdce"/><stop offset="1" stop-color="#376474"/></linearGradient><radialGradient cx="350.92168" cy="217.22981" r="7.32283" gradientUnits="userSpaceOnUse" id="color-19"><stop offset="0" stop-color="#ffffff"/><stop offset="1" stop-color="#737373"/></radialGradient><radialGradient cx="327.29132" cy="273.22982" r="24.86999" gradientUnits="userSpaceOnUse" id="color-20"><stop offset="0" stop-color="#f1f1f1"/><stop offset="1" stop-color="#c0c0c0"/></radialGradient><radialGradient cx="311.28371" cy="270.22982" r="23.21198" gradientUnits="userSpaceOnUse" id="color-21"><stop offset="0" stop-color="#f1f1f1"/><stop offset="1" stop-color="#c0c0c0"/></radialGradient><radialGradient cx="327.67249" cy="161.22976" r="32.97576" gradientUnits="userSpaceOnUse" id="color-22"><stop offset="0" stop-color="#f1f1f1"/><stop offset="1" stop-color="#c0c0c0"/></radialGradient><radialGradient cx="311.28371" cy="167.22976" r="31.6862" gradientUnits="userSpaceOnUse" id="color-23"><stop offset="0" stop-color="#f1f1f1"/><stop offset="1" stop-color="#c0c0c0"/></radialGradient><radialGradient cx="328.05359" cy="105.72982" r="10.59278" gradientUnits="userSpaceOnUse" id="color-24"><stop offset="0" stop-color="#f1f1f1"/><stop offset="1" stop-color="#c0c0c0"/></radialGradient><radialGradient cx="311.66481" cy="112.22982" r="10.04011" gradientUnits="userSpaceOnUse" id="color-25"><stop offset="0" stop-color="#f1f1f1"/><stop offset="1" stop-color="#c0c0c0"/></radialGradient><linearGradient x1="331.48384" y1="220.72981" x2="337.58201" y2="220.72981" gradientUnits="userSpaceOnUse" id="color-26"><stop offset="0" stop-color="#737373"/><stop offset="1" stop-color="#a0a0a0"/></linearGradient><radialGradient cx="331.48384" cy="216.22981" r="7.32283" gradientUnits="userSpaceOnUse" id="color-27"><stop offset="0" stop-color="#ffffff"/><stop offset="1" stop-color="#737373"/></radialGradient><radialGradient cx="240.00001" cy="180" r="305.33236" gradientUnits="userSpaceOnUse" id="color-28"><stop offset="0" stop-color="#000000" stop-opacity="0"/><stop offset="1" stop-color="#000000"/></radialGradient><radialGradient cx="240.00001" cy="180" r="305.33236" gradientUnits="userSpaceOnUse" id="color-29"><stop offset="0" stop-color="#000000" stop-opacity="0"/><stop offset="1" stop-color="#000000"/></radialGradient><radialGradient cx="236.00002" cy="192.00003" r="98.54894" gradientUnits="userSpaceOnUse" id="color-30"><stop offset="0" stop-color="#afa980"/><stop offset="1" stop-color="#afa980" stop-opacity="0"/></radialGradient></defs><g transform="translate(58.04799,58.24315)"><g data-paper-data="{&quot;isPaintingLayer&quot;:true}" fill-rule="nonzero" stroke-width="0" stroke-linecap="butt" stroke-linejoin="miter" stroke-miterlimit="10" stroke-dasharray="" stroke-dashoffset="0" style="mix-blend-mode: normal"><g stroke="none"><path d="M168.914,312.96307v-243.55706h122v243.55706z" fill="#000000"/><path d="M165.71336,300.71822v-220h24.16666v220z" fill="url(#color-1)"/><path d="M274.0467,300.71822v-220h25.66667v220z" data-paper-data="{&quot;index&quot;:null}" fill="url(#color-2)"/><path d="M189.59588,282.42493l84.21791,0.27333l26.71779,18.20987l-134.09053,0.00613z" fill="url(#color-3)"/><path d="M165.77436,93.69824l134.7572,0.00395l-26.56001,16.87871l-83.98767,-0.25331z" data-paper-data="{&quot;index&quot;:null}" fill="url(#color-4)"/></g><path d="M161.61566,306.61419v-226.72673h141.14114v226.72673z" fill="url(#color-5)" stroke="none"/><path d="M-35.03001,401.21631v-459.45946h635.13513v459.45946zM168.49707,305.24325l130,1v-212h-131z" fill="#232332" stroke="#000000"/><path d="M-58.04799,409.72982v-459.45946h81.08108v459.45946z" fill="#13131b" stroke="#000000"/><path d="M456.96706,409.72982v-459.45946h81.08108v459.45946z" fill="#13131b" stroke="#000000"/><path d="M-25.37232,327.84497l48.15529,-28.48009h434.95105l41.9417,28.48009l-7.03972,44.95714l-507.98732,0.13633z" fill="url(#color-6)" stroke="none"/><path d="M37.97325,238.12318c0,0 0,-86.32806 0,-104.54664c0,-6.44759 5.38168,-13.09411 10.69015,-13.09411c11.49721,0 56.41459,0 78.66667,0c7.74308,0 12.44878,7.78312 12.44878,15.02949c0,18.93415 0,102.61126 0,102.61126z" fill="url(#color-7)" stroke="none"/><path d="M43.22202,222.64497c0,0 0,-75.71501 0,-89.06841c0,-3.87423 2.71985,-7.49739 5.77472,-7.49739c9.52433,0 59.72684,0 78.33333,0c4.32745,0 6.9458,3.62316 6.9458,7.49739c0,13.35341 0,89.06841 0,89.06841z" fill="url(#color-8)" stroke="none"/><path d="M9.86344,225.92537l12.64411,-14.82974h135.06881l-11.45092,14.76089z" fill="url(#color-9)" stroke="none"/><path d="M145.49855,314.54589l-0.04509,-88.07163l12.1229,-15.384v88.41162z" fill="#413311" stroke="none"/><path d="M9.86344,314.54985v-89.07827h135.92601v89.07827z" fill="url(#color-10)" stroke="none"/><path d="M15.14762,307.64698v-22.84746h125.43238v22.84746z" fill="url(#color-11)" stroke="#854300"/><path d="M15.14762,279.98027v-22.84746h125.43238v22.84746z" fill="url(#color-12)" stroke="#854300"/><path d="M15.14762,253.31367v-22.84746h125.43238v22.84746z" fill="url(#color-13)" stroke="#854300"/><path d="M83.3569,296.27198c0,3.24736 -2.63251,5.87986 -5.87987,5.87986c-3.24736,0 -5.87987,-2.63251 -5.87987,-5.87986c0,-3.24736 2.63251,-5.87987 5.87987,-5.87987c3.24736,0 5.87987,2.63251 5.87987,5.87987z" fill="url(#color-14)" stroke="none"/><path d="M83.3569,268.60536c0,3.24736 -2.63251,5.87986 -5.87987,5.87986c-3.24736,0 -5.87987,-2.63251 -5.87987,-5.87986c0,-3.24736 2.63251,-5.87987 5.87987,-5.87987c3.24736,0 5.87987,2.63251 5.87987,5.87987z" fill="url(#color-15)" stroke="none"/><path d="M83.3569,241.9387c0,3.24736 -2.63251,5.87986 -5.87987,5.87986c-3.24736,0 -5.87987,-2.63251 -5.87987,-5.87986c0,-3.24736 2.63251,-5.87987 5.87987,-5.87987c3.24736,0 5.87987,2.63251 5.87987,5.87987z" fill="url(#color-16)" stroke="none"/><path d="M438.86088,380.85207c-22.11992,-3.91562 -103.20453,-63.53633 -106.62262,-85.94348c-2.94985,-19.33758 -6.19523,-50.41845 3.45043,-57.96564c8.75794,-6.8526 116.11252,-13.67531 139.24308,-4.18892c31.50566,12.92121 86.41726,29.79892 106.81542,63.19818c11.27163,18.45579 1.75291,67.66634 -10.01647,77.70194c-16.50027,14.06957 -110.84044,11.09753 -132.86985,7.19792z" fill="url(#color-17)" stroke="none"/><path d="M450.46944,393.39859c-23.39886,-4.14202 -109.17165,-67.20991 -112.78737,-90.9126c-3.1204,-20.45567 -6.55342,-53.33358 3.64993,-61.31713c9.26431,-7.24881 122.82596,-14.466 147.2939,-4.43112c33.32727,13.6683 91.41377,24.0939 112.99132,59.42425c11.92334,19.52287 1.85427,79.00665 -10.5956,89.62249c-17.45429,14.88306 -117.24905,11.73917 -140.55218,7.6141z" fill="url(#color-18)" stroke="none"/><g><path d="M348.58796,210.42789c4.04428,0 7.32283,4.13873 7.32283,9.24411c0,5.10538 -3.27855,9.24412 -7.32283,9.24412c-4.04428,0 -7.32283,-4.13874 -7.32283,-9.24412c0,-5.10538 3.27855,-9.24411 7.32283,-9.24411z" data-paper-data="{&quot;index&quot;:null}" fill="url(#color-19)" stroke="none"/><path d="M298.19525,299.96568v-205.3987l42.5693,-21.95802l0.63162,256.35788z" fill="#f1f1f1" stroke="#000000"/><path d="M340.69368,329.16286v-256.66021h8.28999v256.66021z" fill="#a8a8a8" stroke="none"/><path d="M319.76565,299.67678v-58.46902l12.89556,1.41676v64.83583z" fill="url(#color-20)" stroke="#909090"/><path d="M302.81721,290.47641v-52.61884l12.89556,2.40011v57.00231z" fill="url(#color-21)" stroke="#909090"/><path d="M333.39815,117.98617v84.10335l-12.89555,2.91676v-81.21987z" data-paper-data="{&quot;index&quot;:null}" fill="url(#color-22)" stroke="#909090"/><path d="M316.44971,125.71981v80.73652l-12.89555,2.40011v-77.09473z" data-paper-data="{&quot;index&quot;:null}" fill="url(#color-23)" stroke="#909090"/><path d="M333.39815,89.90175v23.25086l-12.89554,6.04191v-22.00918z" data-paper-data="{&quot;index&quot;:null}" fill="url(#color-24)" stroke="#909090"/><path d="M316.44971,99.60212v20.80081l-12.89555,6.04191v-20.05912z" data-paper-data="{&quot;index&quot;:null}" fill="url(#color-25)" stroke="#909090"/><path d="M342.37485,234.4951v-22.4759h4.78977v22.4759z" fill="#737373" stroke="none"/><path d="M343.29596,228.93654v-14.50057h2.94756v14.50057z" fill="#2d2d2d" stroke="none"/><path d="M331.48384,234.22981v-27l6.09814,-2v31z" fill="url(#color-26)" stroke="none"/><path d="M336.64642,219.46486c0,5.10539 -3.27854,9.24411 -7.32283,9.24411c-4.04429,0 -7.32283,-4.13872 -7.32283,-9.24411c0,-5.10539 3.27854,-9.24412 7.32283,-9.24412c4.04429,0 7.32283,4.13873 7.32283,9.24412z" fill="url(#color-27)" stroke="none"/></g><path d="M-16.75676,373.73428v-387.46855h513.51351v387.46855z" fill="url(#color-28)" stroke="none"/><path d="M-16.75676,373.73428v-387.46855h513.51351v387.46855z" fill="url(#color-29)" stroke="none"/><path d="M137.45107,285.6014v-187.20279h197.09789v187.20279z" fill="url(#color-30)" stroke="none"/></g></g></svg>