<svg version="1.1" xmlns="http://www.w3.org/2000/svg" xmlns:xlink="http://www.w3.org/1999/xlink" width="832.29066" height="473.00415" viewBox="0,0,832.29066,473.00415"><defs><linearGradient x1="269.74025" y1="176" x2="305.32904" y2="176" gradientUnits="userSpaceOnUse" id="color-1"><stop offset="0" stop-color="#892626"/><stop offset="1" stop-color="#5b1b1b"/></linearGradient><linearGradient x1="326.93651" y1="176" x2="362.5253" y2="176" gradientUnits="userSpaceOnUse" id="color-2"><stop offset="0" stop-color="#892626"/><stop offset="1" stop-color="#5b1b1b"/></linearGradient><linearGradient x1="298.33838" y1="176" x2="333.92717" y2="176" gradientUnits="userSpaceOnUse" id="color-3"><stop offset="0" stop-color="#892626"/><stop offset="1" stop-color="#5b1b1b"/></linearGradient><linearGradient x1="358.0767" y1="176" x2="393.66548" y2="176" gradientUnits="userSpaceOnUse" id="color-4"><stop offset="0" stop-color="#892626"/><stop offset="1" stop-color="#5b1b1b"/></linearGradient><linearGradient x1="384.13277" y1="176" x2="419.72156" y2="176" gradientUnits="userSpaceOnUse" id="color-5"><stop offset="0" stop-color="#892626"/><stop offset="1" stop-color="#5b1b1b"/></linearGradient><linearGradient x1="409.55333" y1="176" x2="445.14212" y2="176" gradientUnits="userSpaceOnUse" id="color-6"><stop offset="0" stop-color="#892626"/><stop offset="1" stop-color="#5b1b1b"/></linearGradient><linearGradient x1="438.15146" y1="176" x2="473.74025" y2="176" gradientUnits="userSpaceOnUse" id="color-7"><stop offset="0" stop-color="#892626"/><stop offset="1" stop-color="#5b1b1b"/></linearGradient><linearGradient x1="483.74025" y1="176" x2="519.32904" y2="176" gradientUnits="userSpaceOnUse" id="color-8"><stop offset="0" stop-color="#892626"/><stop offset="1" stop-color="#5b1b1b"/></linearGradient><linearGradient x1="540.93651" y1="176" x2="576.5253" y2="176" gradientUnits="userSpaceOnUse" id="color-9"><stop offset="0" stop-color="#892626"/><stop offset="1" stop-color="#5b1b1b"/></linearGradient><linearGradient x1="512.33838" y1="176" x2="547.92717" y2="176" gradientUnits="userSpaceOnUse" id="color-10"><stop offset="0" stop-color="#892626"/><stop offset="1" stop-color="#5b1b1b"/></linearGradient><linearGradient x1="572.0767" y1="176" x2="607.66548" y2="176" gradientUnits="userSpaceOnUse" id="color-11"><stop offset="0" stop-color="#892626"/><stop offset="1" stop-color="#5b1b1b"/></linearGradient><linearGradient x1="598.13277" y1="176" x2="633.72156" y2="176" gradientUnits="userSpaceOnUse" id="color-12"><stop offset="0" stop-color="#892626"/><stop offset="1" stop-color="#5b1b1b"/></linearGradient><linearGradient x1="623.55333" y1="176" x2="659.14212" y2="176" gradientUnits="userSpaceOnUse" id="color-13"><stop offset="0" stop-color="#892626"/><stop offset="1" stop-color="#5b1b1b"/></linearGradient><linearGradient x1="652.15146" y1="176" x2="687.74025" y2="176" gradientUnits="userSpaceOnUse" id="color-14"><stop offset="0" stop-color="#892626"/><stop offset="1" stop-color="#5b1b1b"/></linearGradient><linearGradient x1="301.5616" y1="277.59761" x2="301.5616" y2="375.19521" gradientUnits="userSpaceOnUse" id="color-15"><stop offset="0" stop-color="#3f3110"/><stop offset="1" stop-color="#67491b"/></linearGradient><linearGradient x1="655.91598" y1="277.59761" x2="655.91598" y2="375.19521" gradientUnits="userSpaceOnUse" id="color-16"><stop offset="0" stop-color="#3f3110"/><stop offset="1" stop-color="#67491b"/></linearGradient><linearGradient x1="478.73879" y1="259.14716" x2="478.73879" y2="311.06307" gradientUnits="userSpaceOnUse" id="color-17"><stop offset="0" stop-color="#876923"/><stop offset="1" stop-color="#67491b"/></linearGradient><linearGradient x1="480.7403" y1="260.50001" x2="480.7403" y2="275.50001" gradientUnits="userSpaceOnUse" id="color-18"><stop offset="0" stop-color="#0e0e0e"/><stop offset="1" stop-color="#272727"/></linearGradient><linearGradient x1="480.7403" y1="218.00001" x2="480.7403" y2="269.50001" gradientUnits="userSpaceOnUse" id="color-19"><stop offset="0" stop-color="#0e0e0e"/><stop offset="1" stop-color="#404040"/></linearGradient><radialGradient cx="568.23877" cy="119.50001" r="125.5" gradientUnits="userSpaceOnUse" id="color-20"><stop offset="0" stop-color="#949494"/><stop offset="1" stop-color="#404040"/></radialGradient><radialGradient cx="575.4848" cy="139.5" r="118.62617" gradientUnits="userSpaceOnUse" id="color-21"><stop offset="0" stop-color="#2e2e2e"/><stop offset="1" stop-color="#000000"/></radialGradient><radialGradient cx="470.59046" cy="302.08851" r="4.35447" gradientUnits="userSpaceOnUse" id="color-22"><stop offset="0" stop-color="#7f7f7f"/><stop offset="1" stop-color="#3b3b3b"/></radialGradient><radialGradient cx="493.46545" cy="302.08851" r="4.35447" gradientUnits="userSpaceOnUse" id="color-23"><stop offset="0" stop-color="#7f7f7f"/><stop offset="1" stop-color="#3b3b3b"/></radialGradient><radialGradient cx="532.04877" cy="302.08851" r="9.18779" gradientUnits="userSpaceOnUse" id="color-24"><stop offset="0" stop-color="#7f7f7f"/><stop offset="1" stop-color="#3b3b3b"/></radialGradient><radialGradient cx="493.46545" cy="287.46731" r="4.35447" gradientUnits="userSpaceOnUse" id="color-25"><stop offset="0" stop-color="#7f7f7f"/><stop offset="1" stop-color="#3b3b3b"/></radialGradient><radialGradient cx="493.46545" cy="283.09914" r="4.35447" gradientUnits="userSpaceOnUse" id="color-26"><stop offset="0" stop-color="#7f7f7f"/><stop offset="1" stop-color="#3b3b3b"/></radialGradient><radialGradient cx="503.09042" cy="302.08851" r="4.35447" gradientUnits="userSpaceOnUse" id="color-27"><stop offset="0" stop-color="#7f7f7f"/><stop offset="1" stop-color="#3b3b3b"/></radialGradient><radialGradient cx="503.09042" cy="287.46731" r="4.35447" gradientUnits="userSpaceOnUse" id="color-28"><stop offset="0" stop-color="#7f7f7f"/><stop offset="1" stop-color="#3b3b3b"/></radialGradient><radialGradient cx="503.09042" cy="297.72036" r="4.35447" gradientUnits="userSpaceOnUse" id="color-29"><stop offset="0" stop-color="#7f7f7f"/><stop offset="1" stop-color="#3b3b3b"/></radialGradient><radialGradient cx="536.84042" cy="297.72036" r="4.35447" gradientUnits="userSpaceOnUse" id="color-30"><stop offset="0" stop-color="#7f7f7f"/><stop offset="1" stop-color="#3b3b3b"/></radialGradient><radialGradient cx="536.84042" cy="293.39264" r="4.35447" gradientUnits="userSpaceOnUse" id="color-31"><stop offset="0" stop-color="#7f7f7f"/><stop offset="1" stop-color="#3b3b3b"/></radialGradient><radialGradient cx="536.84042" cy="289.14581" r="4.35447" gradientUnits="userSpaceOnUse" id="color-32"><stop offset="0" stop-color="#7f7f7f"/><stop offset="1" stop-color="#3b3b3b"/></radialGradient><radialGradient cx="527.25712" cy="297.72036" r="4.35446" gradientUnits="userSpaceOnUse" id="color-33"><stop offset="0" stop-color="#7f7f7f"/><stop offset="1" stop-color="#3b3b3b"/></radialGradient><radialGradient cx="527.25712" cy="293.39264" r="4.35446" gradientUnits="userSpaceOnUse" id="color-34"><stop offset="0" stop-color="#7f7f7f"/><stop offset="1" stop-color="#3b3b3b"/></radialGradient><radialGradient cx="527.25712" cy="289.14581" r="4.35446" gradientUnits="userSpaceOnUse" id="color-35"><stop offset="0" stop-color="#7f7f7f"/><stop offset="1" stop-color="#3b3b3b"/></radialGradient><radialGradient cx="503.09042" cy="283.09914" r="4.35447" gradientUnits="userSpaceOnUse" id="color-36"><stop offset="0" stop-color="#7f7f7f"/><stop offset="1" stop-color="#3b3b3b"/></radialGradient><radialGradient cx="512.59042" cy="302.08851" r="4.35447" gradientUnits="userSpaceOnUse" id="color-37"><stop offset="0" stop-color="#7f7f7f"/><stop offset="1" stop-color="#3b3b3b"/></radialGradient><radialGradient cx="546.34042" cy="302.08851" r="4.35447" gradientUnits="userSpaceOnUse" id="color-38"><stop offset="0" stop-color="#7f7f7f"/><stop offset="1" stop-color="#3b3b3b"/></radialGradient><radialGradient cx="555.57831" cy="300.02531" r="8.4074" gradientUnits="userSpaceOnUse" id="color-39"><stop offset="0" stop-color="#7f7f7f"/><stop offset="1" stop-color="#3b3b3b"/></radialGradient><radialGradient cx="555.57831" cy="291.41033" r="8.4074" gradientUnits="userSpaceOnUse" id="color-40"><stop offset="0" stop-color="#7f7f7f"/><stop offset="1" stop-color="#3b3b3b"/></radialGradient><radialGradient cx="546.34042" cy="297.76079" r="4.35447" gradientUnits="userSpaceOnUse" id="color-41"><stop offset="0" stop-color="#7f7f7f"/><stop offset="1" stop-color="#3b3b3b"/></radialGradient><radialGradient cx="546.34042" cy="293.43307" r="4.35447" gradientUnits="userSpaceOnUse" id="color-42"><stop offset="0" stop-color="#7f7f7f"/><stop offset="1" stop-color="#3b3b3b"/></radialGradient><radialGradient cx="546.34042" cy="289.18625" r="4.35447" gradientUnits="userSpaceOnUse" id="color-43"><stop offset="0" stop-color="#7f7f7f"/><stop offset="1" stop-color="#3b3b3b"/></radialGradient><radialGradient cx="512.59042" cy="287.46731" r="4.35447" gradientUnits="userSpaceOnUse" id="color-44"><stop offset="0" stop-color="#7f7f7f"/><stop offset="1" stop-color="#3b3b3b"/></radialGradient><radialGradient cx="512.59042" cy="283.09914" r="4.35447" gradientUnits="userSpaceOnUse" id="color-45"><stop offset="0" stop-color="#7f7f7f"/><stop offset="1" stop-color="#3b3b3b"/></radialGradient><radialGradient cx="460.59046" cy="302.08851" r="4.35447" gradientUnits="userSpaceOnUse" id="color-46"><stop offset="0" stop-color="#7f7f7f"/><stop offset="1" stop-color="#3b3b3b"/></radialGradient><radialGradient cx="380.39041" cy="302.08851" r="4.35447" gradientUnits="userSpaceOnUse" id="color-47"><stop offset="0" stop-color="#7f7f7f"/><stop offset="1" stop-color="#3b3b3b"/></radialGradient><radialGradient cx="384.64041" cy="297.23501" r="8.60447" gradientUnits="userSpaceOnUse" id="color-48"><stop offset="0" stop-color="#7f7f7f"/><stop offset="1" stop-color="#3b3b3b"/></radialGradient><radialGradient cx="382.26541" cy="292.38149" r="6.22947" gradientUnits="userSpaceOnUse" id="color-49"><stop offset="0" stop-color="#7f7f7f"/><stop offset="1" stop-color="#3b3b3b"/></radialGradient><radialGradient cx="381.46545" cy="287.77065" r="5.42946" gradientUnits="userSpaceOnUse" id="color-50"><stop offset="0" stop-color="#7f7f7f"/><stop offset="1" stop-color="#3b3b3b"/></radialGradient><radialGradient cx="400.39041" cy="302.08851" r="4.35447" gradientUnits="userSpaceOnUse" id="color-51"><stop offset="0" stop-color="#7f7f7f"/><stop offset="1" stop-color="#3b3b3b"/></radialGradient><radialGradient cx="399.14041" cy="297.23501" r="4.35447" gradientUnits="userSpaceOnUse" id="color-52"><stop offset="0" stop-color="#7f7f7f"/><stop offset="1" stop-color="#3b3b3b"/></radialGradient><radialGradient cx="394.49043" cy="292.41459" r="4.35446" gradientUnits="userSpaceOnUse" id="color-53"><stop offset="0" stop-color="#7f7f7f"/><stop offset="1" stop-color="#3b3b3b"/></radialGradient><radialGradient cx="392.89041" cy="287.85227" r="4.35447" gradientUnits="userSpaceOnUse" id="color-54"><stop offset="0" stop-color="#7f7f7f"/><stop offset="1" stop-color="#3b3b3b"/></radialGradient><radialGradient cx="380.34877" cy="283.0392" r="4.35447" gradientUnits="userSpaceOnUse" id="color-55"><stop offset="0" stop-color="#7f7f7f"/><stop offset="1" stop-color="#3b3b3b"/></radialGradient><radialGradient cx="419.14047" cy="297.23501" r="4.35447" gradientUnits="userSpaceOnUse" id="color-56"><stop offset="0" stop-color="#7f7f7f"/><stop offset="1" stop-color="#3b3b3b"/></radialGradient><radialGradient cx="414.49047" cy="292.41459" r="4.35446" gradientUnits="userSpaceOnUse" id="color-57"><stop offset="0" stop-color="#7f7f7f"/><stop offset="1" stop-color="#3b3b3b"/></radialGradient><radialGradient cx="412.89047" cy="287.85227" r="4.35447" gradientUnits="userSpaceOnUse" id="color-58"><stop offset="0" stop-color="#7f7f7f"/><stop offset="1" stop-color="#3b3b3b"/></radialGradient><radialGradient cx="400.34877" cy="283.0392" r="4.35447" gradientUnits="userSpaceOnUse" id="color-59"><stop offset="0" stop-color="#7f7f7f"/><stop offset="1" stop-color="#3b3b3b"/></radialGradient><radialGradient cx="444.49047" cy="292.41459" r="4.35446" gradientUnits="userSpaceOnUse" id="color-60"><stop offset="0" stop-color="#7f7f7f"/><stop offset="1" stop-color="#3b3b3b"/></radialGradient><radialGradient cx="442.89047" cy="287.85227" r="4.35447" gradientUnits="userSpaceOnUse" id="color-61"><stop offset="0" stop-color="#7f7f7f"/><stop offset="1" stop-color="#3b3b3b"/></radialGradient><radialGradient cx="430.34879" cy="283.0392" r="4.35447" gradientUnits="userSpaceOnUse" id="color-62"><stop offset="0" stop-color="#7f7f7f"/><stop offset="1" stop-color="#3b3b3b"/></radialGradient><radialGradient cx="449.14047" cy="297.23501" r="4.35447" gradientUnits="userSpaceOnUse" id="color-63"><stop offset="0" stop-color="#7f7f7f"/><stop offset="1" stop-color="#3b3b3b"/></radialGradient><radialGradient cx="409.14047" cy="297.23501" r="4.35447" gradientUnits="userSpaceOnUse" id="color-64"><stop offset="0" stop-color="#7f7f7f"/><stop offset="1" stop-color="#3b3b3b"/></radialGradient><radialGradient cx="404.49043" cy="292.41459" r="4.35446" gradientUnits="userSpaceOnUse" id="color-65"><stop offset="0" stop-color="#7f7f7f"/><stop offset="1" stop-color="#3b3b3b"/></radialGradient><radialGradient cx="402.89041" cy="287.85227" r="4.35447" gradientUnits="userSpaceOnUse" id="color-66"><stop offset="0" stop-color="#7f7f7f"/><stop offset="1" stop-color="#3b3b3b"/></radialGradient><radialGradient cx="390.34877" cy="283.0392" r="4.35447" gradientUnits="userSpaceOnUse" id="color-67"><stop offset="0" stop-color="#7f7f7f"/><stop offset="1" stop-color="#3b3b3b"/></radialGradient><radialGradient cx="439.14047" cy="297.23501" r="4.35447" gradientUnits="userSpaceOnUse" id="color-68"><stop offset="0" stop-color="#7f7f7f"/><stop offset="1" stop-color="#3b3b3b"/></radialGradient><radialGradient cx="434.49047" cy="292.41459" r="4.35446" gradientUnits="userSpaceOnUse" id="color-69"><stop offset="0" stop-color="#7f7f7f"/><stop offset="1" stop-color="#3b3b3b"/></radialGradient><radialGradient cx="432.89047" cy="287.85227" r="4.35447" gradientUnits="userSpaceOnUse" id="color-70"><stop offset="0" stop-color="#7f7f7f"/><stop offset="1" stop-color="#3b3b3b"/></radialGradient><radialGradient cx="420.34879" cy="283.0392" r="4.35447" gradientUnits="userSpaceOnUse" id="color-71"><stop offset="0" stop-color="#7f7f7f"/><stop offset="1" stop-color="#3b3b3b"/></radialGradient><radialGradient cx="464.49047" cy="292.41459" r="4.35446" gradientUnits="userSpaceOnUse" id="color-72"><stop offset="0" stop-color="#7f7f7f"/><stop offset="1" stop-color="#3b3b3b"/></radialGradient><radialGradient cx="462.89047" cy="287.85227" r="4.35447" gradientUnits="userSpaceOnUse" id="color-73"><stop offset="0" stop-color="#7f7f7f"/><stop offset="1" stop-color="#3b3b3b"/></radialGradient><radialGradient cx="450.34879" cy="283.0392" r="4.35447" gradientUnits="userSpaceOnUse" id="color-74"><stop offset="0" stop-color="#7f7f7f"/><stop offset="1" stop-color="#3b3b3b"/></radialGradient><radialGradient cx="469.09879" cy="283.0392" r="4.35447" gradientUnits="userSpaceOnUse" id="color-75"><stop offset="0" stop-color="#7f7f7f"/><stop offset="1" stop-color="#3b3b3b"/></radialGradient><radialGradient cx="481.34045" cy="287.85227" r="3.30446" gradientUnits="userSpaceOnUse" id="color-76"><stop offset="0" stop-color="#7f7f7f"/><stop offset="1" stop-color="#3b3b3b"/></radialGradient><radialGradient cx="477.5359" cy="292.41459" r="7.30901" gradientUnits="userSpaceOnUse" id="color-77"><stop offset="0" stop-color="#7f7f7f"/><stop offset="1" stop-color="#3b3b3b"/></radialGradient><radialGradient cx="429.14047" cy="297.23501" r="4.35447" gradientUnits="userSpaceOnUse" id="color-78"><stop offset="0" stop-color="#7f7f7f"/><stop offset="1" stop-color="#3b3b3b"/></radialGradient><radialGradient cx="424.49047" cy="292.41459" r="4.35446" gradientUnits="userSpaceOnUse" id="color-79"><stop offset="0" stop-color="#7f7f7f"/><stop offset="1" stop-color="#3b3b3b"/></radialGradient><radialGradient cx="422.89047" cy="287.85227" r="4.35447" gradientUnits="userSpaceOnUse" id="color-80"><stop offset="0" stop-color="#7f7f7f"/><stop offset="1" stop-color="#3b3b3b"/></radialGradient><radialGradient cx="410.34879" cy="283.0392" r="4.35447" gradientUnits="userSpaceOnUse" id="color-81"><stop offset="0" stop-color="#7f7f7f"/><stop offset="1" stop-color="#3b3b3b"/></radialGradient><radialGradient cx="454.49047" cy="292.41459" r="4.35446" gradientUnits="userSpaceOnUse" id="color-82"><stop offset="0" stop-color="#7f7f7f"/><stop offset="1" stop-color="#3b3b3b"/></radialGradient><radialGradient cx="452.89047" cy="287.85227" r="4.35447" gradientUnits="userSpaceOnUse" id="color-83"><stop offset="0" stop-color="#7f7f7f"/><stop offset="1" stop-color="#3b3b3b"/></radialGradient><radialGradient cx="440.34879" cy="283.0392" r="4.35447" gradientUnits="userSpaceOnUse" id="color-84"><stop offset="0" stop-color="#7f7f7f"/><stop offset="1" stop-color="#3b3b3b"/></radialGradient><radialGradient cx="472.39047" cy="287.85227" r="4.35447" gradientUnits="userSpaceOnUse" id="color-85"><stop offset="0" stop-color="#7f7f7f"/><stop offset="1" stop-color="#3b3b3b"/></radialGradient><radialGradient cx="459.84879" cy="283.0392" r="4.35447" gradientUnits="userSpaceOnUse" id="color-86"><stop offset="0" stop-color="#7f7f7f"/><stop offset="1" stop-color="#3b3b3b"/></radialGradient><radialGradient cx="479.41128" cy="283.0392" r="5.16697" gradientUnits="userSpaceOnUse" id="color-87"><stop offset="0" stop-color="#7f7f7f"/><stop offset="1" stop-color="#3b3b3b"/></radialGradient><radialGradient cx="459.14047" cy="297.23501" r="4.35447" gradientUnits="userSpaceOnUse" id="color-88"><stop offset="0" stop-color="#7f7f7f"/><stop offset="1" stop-color="#3b3b3b"/></radialGradient><radialGradient cx="474.89047" cy="297.23501" r="10.00447" gradientUnits="userSpaceOnUse" id="color-89"><stop offset="0" stop-color="#7f7f7f"/><stop offset="1" stop-color="#3b3b3b"/></radialGradient><radialGradient cx="390.39041" cy="302.08851" r="4.35447" gradientUnits="userSpaceOnUse" id="color-90"><stop offset="0" stop-color="#7f7f7f"/><stop offset="1" stop-color="#3b3b3b"/></radialGradient><radialGradient cx="424.92812" cy="302.26066" r="19.47947" gradientUnits="userSpaceOnUse" id="color-91"><stop offset="0" stop-color="#7f7f7f"/><stop offset="1" stop-color="#3b3b3b"/></radialGradient><radialGradient cx="450.59046" cy="302.08851" r="4.35447" gradientUnits="userSpaceOnUse" id="color-92"><stop offset="0" stop-color="#7f7f7f"/><stop offset="1" stop-color="#3b3b3b"/></radialGradient><radialGradient cx="480.59045" cy="302.08851" r="4.35447" gradientUnits="userSpaceOnUse" id="color-93"><stop offset="0" stop-color="#7f7f7f"/><stop offset="1" stop-color="#3b3b3b"/></radialGradient><radialGradient cx="598.65142" cy="277.0573" r="15.43738" gradientUnits="userSpaceOnUse" id="color-94"><stop offset="0" stop-color="#545454"/><stop offset="1" stop-color="#2f2f2f"/></radialGradient><radialGradient cx="592.15142" cy="270.11285" r="6.74888" gradientUnits="userSpaceOnUse" id="color-95"><stop offset="0" stop-color="#545454"/><stop offset="1" stop-color="#2f2f2f"/></radialGradient><radialGradient cx="600.83892" cy="272.2448" r="6.74888" gradientUnits="userSpaceOnUse" id="color-96"><stop offset="0" stop-color="#545454"/><stop offset="1" stop-color="#2f2f2f"/></radialGradient><radialGradient cx="595.65842" cy="273.96002" r="5.48498" gradientUnits="userSpaceOnUse" id="color-97"><stop offset="0" stop-color="#a1a1a1"/><stop offset="1" stop-color="#818181"/></radialGradient><linearGradient x1="656.66691" y1="72.21031" x2="706.89225" y2="72.21031" gradientUnits="userSpaceOnUse" id="color-98"><stop offset="0" stop-color="#2e2e2e"/><stop offset="1" stop-color="#858585"/></linearGradient><linearGradient x1="682.29582" y1="72.44035" x2="682.29582" y2="55.37209" gradientUnits="userSpaceOnUse" id="color-99"><stop offset="0" stop-color="#2e2e2e"/><stop offset="1" stop-color="#858585"/></linearGradient><linearGradient x1="682.29582" y1="-6.29951" x2="682.29582" y2="10.76877" gradientUnits="userSpaceOnUse" id="color-100"><stop offset="0" stop-color="#858585"/><stop offset="1" stop-color="#2e2e2e"/></linearGradient><radialGradient cx="691.24614" cy="25.20323" r="28.13784" gradientUnits="userSpaceOnUse" id="color-101"><stop offset="0" stop-color="#858585"/><stop offset="1" stop-color="#2e2e2e"/></radialGradient><linearGradient x1="679.72774" y1="33.6978" x2="684.19517" y2="33.6978" gradientUnits="userSpaceOnUse" id="color-102"><stop offset="0" stop-color="#171717"/><stop offset="1" stop-color="#3e3e3e"/></linearGradient><linearGradient x1="652.39123" y1="33.6978" x2="711.53168" y2="33.6978" gradientUnits="userSpaceOnUse" id="color-103"><stop offset="0" stop-color="#171717"/><stop offset="1" stop-color="#3e3e3e"/></linearGradient><linearGradient x1="655.19446" y1="9.67684" x2="655.19446" y2="31.29507" gradientUnits="userSpaceOnUse" id="color-104"><stop offset="0" stop-color="#858585"/><stop offset="1" stop-color="#2e2e2e"/></linearGradient><linearGradient x1="655.35547" y1="34.75627" x2="655.35547" y2="56.37451" gradientUnits="userSpaceOnUse" id="color-105"><stop offset="0" stop-color="#858585"/><stop offset="1" stop-color="#2e2e2e"/></linearGradient><linearGradient x1="708.72844" y1="10.111" x2="708.72844" y2="31.72925" gradientUnits="userSpaceOnUse" id="color-106"><stop offset="0" stop-color="#858585"/><stop offset="1" stop-color="#2e2e2e"/></linearGradient><linearGradient x1="708.56744" y1="35.19045" x2="708.56744" y2="56.80869" gradientUnits="userSpaceOnUse" id="color-107"><stop offset="0" stop-color="#858585"/><stop offset="1" stop-color="#2e2e2e"/></linearGradient><linearGradient x1="629.77068" y1="133.12976" x2="772.72581" y2="133.12976" gradientUnits="userSpaceOnUse" id="color-108"><stop offset="0" stop-color="#e6cd97"/><stop offset="1" stop-color="#70614b"/></linearGradient><radialGradient cx="480.24025" cy="180" r="300.3003" gradientUnits="userSpaceOnUse" id="color-109"><stop offset="0" stop-color="#000000" stop-opacity="0"/><stop offset="1" stop-color="#000000"/></radialGradient><radialGradient cx="478.61382" cy="180.81322" r="363.12119" gradientUnits="userSpaceOnUse" id="color-110"><stop offset="0" stop-color="#000000" stop-opacity="0"/><stop offset="1" stop-color="#000000"/></radialGradient></defs><g transform="translate(51.75011,62.50415)"><g data-paper-data="{&quot;isPaintingLayer&quot;:true}" fill-rule="nonzero" stroke-linecap="butt" stroke-linejoin="miter" stroke-miterlimit="10" stroke-dasharray="" stroke-dashoffset="0" style="mix-blend-mode: normal"><path d="M-51.75011,405.96432v-468.46847h246.24625v468.46847z" fill="#000000" stroke="none" stroke-width="0"/><g><path d="M185.19522,409.72973v-459.45946h590.09009v459.45946z" fill="#272738" stroke="#000000" stroke-width="0"/><path d="M364.46185,285.15623v-275h262v275z" fill="#000000" stroke="none" stroke-width="0"/><g stroke="none" stroke-width="0"><path d="M269.74025,410.5v-469h35.58879v469z" fill="url(#color-1)"/><path d="M326.93651,410.5v-469h35.58879v469z" fill="url(#color-2)"/><path d="M298.33838,410.5v-469h35.58879v469z" fill="url(#color-3)"/><path d="M358.0767,410.5v-469h35.58879v469z" fill="url(#color-4)"/><path d="M384.13277,410.5v-469h35.58879v469z" fill="url(#color-5)"/><path d="M409.55333,410.5v-469h35.58879v469z" fill="url(#color-6)"/><path d="M438.15146,410.5v-469h35.58879v469z" fill="url(#color-7)"/></g><g stroke="none" stroke-width="0"><path d="M483.74025,410.5v-469h35.58879v469z" fill="url(#color-8)"/><path d="M540.93651,410.5v-469h35.58879v469z" fill="url(#color-9)"/><path d="M512.33838,410.5v-469h35.58879v469z" fill="url(#color-10)"/><path d="M572.0767,410.5v-469h35.58879v469z" fill="url(#color-11)"/><path d="M598.13277,410.5v-469h35.58879v469z" fill="url(#color-12)"/><path d="M623.55333,410.5v-469h35.58879v469z" fill="url(#color-13)"/><path d="M652.15146,410.5v-469h35.58879v469z" fill="url(#color-14)"/></g><g stroke="none" stroke-width="0"><path d="M219.74023,228.00315v-41.5h104v41.5z" data-paper-data="{&quot;index&quot;:null}" fill="#644e1a"/><path d="M222.74023,236.00315v-14h104v14z" data-paper-data="{&quot;index&quot;:null}" fill="#3f3110"/></g><g data-paper-data="{&quot;index&quot;:null}" stroke="none" stroke-width="0"><path d="M628.74027,228.00315v-41.5h104v41.5z" data-paper-data="{&quot;index&quot;:null}" fill="#644e1a"/><path d="M625.74027,236.00315v-14h104v14z" data-paper-data="{&quot;index&quot;:null}" fill="#3f3110"/></g><g stroke="none" stroke-width="0"><path d="M219.74023,160.50315v-41.5h104v41.5z" data-paper-data="{&quot;index&quot;:null}" fill="#644e1a"/><path d="M222.74023,168.50315v-14h104v14z" data-paper-data="{&quot;index&quot;:null}" fill="#3f3110"/></g><g data-paper-data="{&quot;index&quot;:null}" stroke="none" stroke-width="0"><path d="M628.74027,160.50315v-41.5h104v41.5z" data-paper-data="{&quot;index&quot;:null}" fill="#644e1a"/><path d="M625.74027,168.50315v-14h104v14z" data-paper-data="{&quot;index&quot;:null}" fill="#3f3110"/></g><g stroke="none" stroke-width="0"><path d="M219.74023,93.00315v-41.5h104v41.5z" data-paper-data="{&quot;index&quot;:null}" fill="#644e1a"/><path d="M222.74023,101.00315v-14h104v14z" data-paper-data="{&quot;index&quot;:null}" fill="#3f3110"/></g><g data-paper-data="{&quot;index&quot;:null}" stroke="none" stroke-width="0"><path d="M628.74027,93.00315v-41.5h104v41.5z" data-paper-data="{&quot;index&quot;:null}" fill="#644e1a"/><path d="M625.74027,101.00315v-14h104v14z" data-paper-data="{&quot;index&quot;:null}" fill="#3f3110"/></g><path d="M431.58524,283.25192c-1.25,0 -1.25,-1.25 -1.25,-1.25l0.16663,0.12355c-1.5716,-2.77666 -2.15238,-5.97152 -2.16663,-9.12355c0,-4.01013 -0.38361,-8.23724 0.02597,-12.22492c0.48312,-4.70364 2.57095,-9.19358 2.97717,-13.86369c0.15014,-1.72603 -0.2312,-3.07715 -0.487,-4.71115c-0.3399,-2.17121 0.19595,-4.48309 -0.02901,-6.66951c-0.30706,-2.98435 -0.83885,-6.18559 -1.41947,-9.12505c-0.62656,-1.26168 -1.87823,-2.15011 -2.47251,-3.42732c-0.57312,-1.23174 -0.44585,-6.69934 0.02789,-7.96347c0.30234,-0.80677 1.22505,-1.26317 1.57165,-2.05193c1.04702,-2.38273 1.0457,-4.2114 2.80175,-6.46376c3.89742,-4.99894 9.74151,-8.67756 14.41272,-12.92412c0,0 0.92493,-0.84084 1.76577,0.08408c0.84084,0.92493 -0.08408,1.76577 -0.08408,1.76577c-4.55596,4.14178 -10.32294,7.73759 -14.12281,12.61142c-1.68367,2.15953 -1.46235,3.60789 -2.48471,5.93268c-0.32414,0.73707 -1.19575,1.14544 -1.50648,1.88826c-0.29913,0.71506 -0.38178,5.60825 -0.07199,6.16437c0.70992,1.27438 1.87256,2.26919 2.52749,3.57268c0.6289,3.1139 1.21648,6.51451 1.54169,9.68075c0.21787,2.12121 -0.34013,4.4294 0.00983,6.52468c0.30012,1.7969 0.68461,3.39569 0.513,5.28885c-0.42698,4.71025 -2.49675,9.20655 -2.98399,13.94211c-0.40134,3.90072 -0.01286,8.04584 -0.01287,11.96928c-0.01387,2.67027 0.45854,5.53783 1.83337,7.87645l0.16663,1.12355c0,0 0,1.25 -1.25,1.25z" fill="#000000" stroke="none" stroke-width="0.5"/><path d="M402.7766,284.16472c-1.2387,-0.16771 -1.07099,-1.40641 -1.07099,-1.40641l0.13417,-0.99096c0.41395,-2.25338 -0.8616,-5.06158 -0.98503,-7.46325c-0.00817,-0.15896 0.64077,-4.90086 0.6802,-5.19207c0.60146,-4.4424 0.685,-9.75715 4.42765,-12.67774c3.25204,-6.89865 -2.17444,-12.25783 -2.1271,-19.10069c0.04117,-5.95078 2.05591,-11.34386 5.33619,-16.18968c0,0 0.70397,-1.03292 1.73689,-0.32896c1.03292,0.70397 0.32896,1.73689 0.32896,1.73689c-3.03017,4.41236 -4.82548,9.28122 -4.9029,14.716c-0.05589,3.9234 2.07072,7.12234 3.01319,10.73661c0.79266,3.03975 -0.09028,7.29688 -1.45417,10.0176c-3.38877,2.51207 -3.34636,7.47418 -3.88132,11.42539c-0.21304,1.57353 -0.75747,3.13254 -0.66147,4.71752c0.16718,2.76034 1.25341,5.23367 0.9663,7.9378l-0.13417,0.99096c0,0 -0.16771,1.2387 -1.40641,1.07099z" fill="#000000" stroke="none" stroke-width="0.5"/><path d="M541.0709,272.09826c-1.1606,0.46422 -1.62482,-0.69639 -1.62482,-0.69639l-0.37137,-0.92848c-1.8626,-4.65676 -3.7241,-9.31396 -5.59047,-13.96922c-2.51022,-6.27139 -7.28008,-11.40245 -8.85969,-18.16255c-0.82552,-3.53291 3.53525,-13.51825 -2.59748,-13.69664c0,0 -1.24568,-0.10383 -1.14185,-1.34951c0.10383,-1.24568 1.34951,-1.14185 1.34951,-1.14185c3.24248,0.38505 4.49509,1.24787 5.29422,4.68735c0.85887,3.69659 -1.34385,7.52318 -0.46445,10.95602c1.68798,6.58919 6.23792,11.61028 8.73929,17.77464c1.86692,4.65662 3.72897,9.3152 5.59212,13.97333l0.37137,0.92848c0,0 0.46422,1.1606 -0.69639,1.62482z" fill="#000000" stroke="none" stroke-width="0.5"/><path d="M231.74178,375.19521v-97.5976h139.63964v97.5976z" fill="url(#color-15)" stroke="none" stroke-width="0"/><path d="M586.09616,375.19521v-97.5976h139.63964v97.5976z" fill="url(#color-16)" stroke="none" stroke-width="0"/><path d="M232.60064,311.06307v-51.91591h492.27628v51.91591z" fill="url(#color-17)" stroke="none" stroke-width="0"/><g stroke="none" stroke-width="0"><path d="M440.2403,275.50001v-15h81v15z" fill="url(#color-18)"/><path d="M465.2403,269.50001v-51.5h31v51.5z" fill="url(#color-19)"/><path d="M354.74028,242.50001v-123h251v123z" fill="url(#color-20)"/><path d="M361.6141,233.70444v-108.02587h237.25235v108.02587z" fill="url(#color-21)"/></g><path d="M419.39362,257.07638c1.21268,0.30317 0.90951,1.51585 0.90951,1.51585l-0.23695,0.94198c-0.15205,0.73991 -0.2298,1.49949 -0.22573,2.25485c0,3.03048 0.50708,5.94529 0.5,9c-0.00554,2.39025 -0.67014,4.8773 0.58971,7.13759c1.32136,2.37067 3.98921,3.4627 5.07089,5.89817c0,0 0.46424,1.1606 -0.69636,1.62483c-1.1606,0.46424 -1.62483,-0.69636 -1.62483,-0.69636c-0.68262,-2.11962 -3.74302,-3.46225 -4.92911,-5.60183c-1.50084,-2.70737 -0.90295,-5.49161 -0.91029,-8.36241c-0.00781,-3.05278 -0.5,-5.96434 -0.5,-9c0.00407,-0.9196 0.09785,-1.84262 0.27427,-2.74515l0.26305,-1.05802c0,0 0.30317,-1.21268 1.51585,-0.90951z" fill="#000000" stroke="none" stroke-width="0.5"/><g><path d="M373.58857,305.20304v-26.40606h189.30341v26.40606z" fill="#545454" stroke="none" stroke-width="1"/><path d="M466.236,304.04564v-3.91426h8.70893v3.91426z" fill="url(#color-22)" stroke="#b3b3b3" stroke-width="0"/><path d="M489.111,304.04564v-3.91426h8.70893v3.91426z" fill="url(#color-23)" stroke="#b3b3b3" stroke-width="0"/><path d="M522.861,304.04564v-3.91426h18.37559v3.91426z" fill="url(#color-24)" stroke="#b3b3b3" stroke-width="0"/><path d="M489.111,289.42443v-3.91427h8.70893v3.91427z" fill="url(#color-25)" stroke="#b3b3b3" stroke-width="0"/><path d="M489.111,285.05627v-3.91426h8.70893v3.91426z" fill="url(#color-26)" stroke="#b3b3b3" stroke-width="0"/><path d="M498.736,304.04564v-3.91426h8.70893v3.91426z" fill="url(#color-27)" stroke="#b3b3b3" stroke-width="0"/><path d="M498.736,289.42443v-3.91427h8.70893v3.91427z" fill="url(#color-28)" stroke="#b3b3b3" stroke-width="0"/><path d="M498.736,299.67749v-3.91427h8.70893v3.91427z" fill="url(#color-29)" stroke="#b3b3b3" stroke-width="0"/><path d="M532.486,299.67749v-3.91427h8.70893v3.91427z" fill="url(#color-30)" stroke="#b3b3b3" stroke-width="0"/><path d="M532.486,295.34977v-3.91426h8.70893v3.91426z" fill="url(#color-31)" stroke="#b3b3b3" stroke-width="0"/><path d="M532.486,291.10294v-3.91426h8.70893v3.91426z" fill="url(#color-32)" stroke="#b3b3b3" stroke-width="0"/><path d="M522.90263,299.67749v-3.91427h8.70893v3.91427z" fill="url(#color-33)" stroke="#b3b3b3" stroke-width="0"/><path d="M522.90263,295.34977v-3.91426h8.70893v3.91426z" fill="url(#color-34)" stroke="#b3b3b3" stroke-width="0"/><path d="M522.90263,291.10294v-3.91426h8.70893v3.91426z" fill="url(#color-35)" stroke="#b3b3b3" stroke-width="0"/><path d="M498.736,285.05627v-3.91426h8.70893v3.91426z" fill="url(#color-36)" stroke="#b3b3b3" stroke-width="0"/><path d="M508.236,304.04564v-3.91426h8.70893v3.91426z" fill="url(#color-37)" stroke="#b3b3b3" stroke-width="0"/><path d="M541.986,304.04564v-3.91426h8.70893v3.91426z" fill="url(#color-38)" stroke="#b3b3b3" stroke-width="0"/><path d="M551.32689,304.04564v-8.16109h8.70893v8.16109z" fill="url(#color-39)" stroke="#b3b3b3" stroke-width="0"/><path d="M551.32689,295.43066v-8.16109h8.70893v8.16109z" fill="url(#color-40)" stroke="#b3b3b3" stroke-width="0"/><path d="M541.986,299.71792v-3.91426h8.70893v3.91426z" fill="url(#color-41)" stroke="#b3b3b3" stroke-width="0"/><path d="M541.986,295.3902v-3.91426h8.70893v3.91426z" fill="url(#color-42)" stroke="#b3b3b3" stroke-width="0"/><path d="M541.986,291.14338v-3.91426h8.70893v3.91426z" fill="url(#color-43)" stroke="#b3b3b3" stroke-width="0"/><path d="M508.236,289.42443v-3.91427h8.70893v3.91427z" fill="url(#color-44)" stroke="#b3b3b3" stroke-width="0"/><path d="M508.236,285.05627v-3.91426h8.70893v3.91426z" fill="url(#color-45)" stroke="#b3b3b3" stroke-width="0"/><path d="M456.236,304.04564v-3.91426h8.70893v3.91426z" fill="url(#color-46)" stroke="#b3b3b3" stroke-width="0"/><path d="M376.03599,304.04564v-3.91426h8.70893v3.91426z" fill="url(#color-47)" stroke="#b3b3b3" stroke-width="0"/><path d="M376.03599,299.19212v-3.91426h17.20893v3.91426z" fill="url(#color-48)" stroke="#b3b3b3" stroke-width="0"/><path d="M376.03599,294.33862v-3.91427h12.45893v3.91427z" fill="url(#color-49)" stroke="#b3b3b3" stroke-width="0"/><path d="M376.03599,289.72779v-3.91427h10.85893v3.91427z" fill="url(#color-50)" stroke="#b3b3b3" stroke-width="0"/><path d="M396.03599,304.04564v-3.91426h8.70893v3.91426z" fill="url(#color-51)" stroke="#b3b3b3" stroke-width="0"/><path d="M394.78599,299.19212v-3.91426h8.70893v3.91426z" fill="url(#color-52)" stroke="#b3b3b3" stroke-width="0"/><path d="M390.136,294.37172v-3.91427h8.70893v3.91427z" fill="url(#color-53)" stroke="#b3b3b3" stroke-width="0"/><path d="M388.53599,289.8094v-3.91426h8.70893v3.91426z" fill="url(#color-54)" stroke="#b3b3b3" stroke-width="0"/><path d="M375.99428,284.99634v-3.91426h8.70893v3.91426z" fill="url(#color-55)" stroke="#b3b3b3" stroke-width="0"/><path d="M414.78599,299.19212v-3.91426h8.70893v3.91426z" fill="url(#color-56)" stroke="#b3b3b3" stroke-width="0"/><path d="M410.136,294.37172v-3.91427h8.70893v3.91427z" fill="url(#color-57)" stroke="#b3b3b3" stroke-width="0"/><path d="M408.53599,289.8094v-3.91426h8.70893v3.91426z" fill="url(#color-58)" stroke="#b3b3b3" stroke-width="0"/><path d="M395.99428,284.99634v-3.91426h8.70893v3.91426z" fill="url(#color-59)" stroke="#b3b3b3" stroke-width="0"/><path d="M440.136,294.37172v-3.91427h8.70893v3.91427z" fill="url(#color-60)" stroke="#b3b3b3" stroke-width="0"/><path d="M438.53599,289.8094v-3.91426h8.70893v3.91426z" fill="url(#color-61)" stroke="#b3b3b3" stroke-width="0"/><path d="M425.99434,284.99634v-3.91426h8.70893v3.91426z" fill="url(#color-62)" stroke="#b3b3b3" stroke-width="0"/><path d="M444.78599,299.19212v-3.91426h8.70893v3.91426z" fill="url(#color-63)" stroke="#b3b3b3" stroke-width="0"/><path d="M404.78599,299.19212v-3.91426h8.70893v3.91426z" fill="url(#color-64)" stroke="#b3b3b3" stroke-width="0"/><path d="M400.136,294.37172v-3.91427h8.70893v3.91427z" fill="url(#color-65)" stroke="#b3b3b3" stroke-width="0"/><path d="M398.53599,289.8094v-3.91426h8.70893v3.91426z" fill="url(#color-66)" stroke="#b3b3b3" stroke-width="0"/><path d="M385.99428,284.99634v-3.91426h8.70893v3.91426z" fill="url(#color-67)" stroke="#b3b3b3" stroke-width="0"/><path d="M434.78599,299.19212v-3.91426h8.70893v3.91426z" fill="url(#color-68)" stroke="#b3b3b3" stroke-width="0"/><path d="M430.136,294.37172v-3.91427h8.70893v3.91427z" fill="url(#color-69)" stroke="#b3b3b3" stroke-width="0"/><path d="M428.53599,289.8094v-3.91426h8.70893v3.91426z" fill="url(#color-70)" stroke="#b3b3b3" stroke-width="0"/><path d="M415.99434,284.99634v-3.91426h8.70893v3.91426z" fill="url(#color-71)" stroke="#b3b3b3" stroke-width="0"/><path d="M460.136,294.37172v-3.91427h8.70893v3.91427z" fill="url(#color-72)" stroke="#b3b3b3" stroke-width="0"/><path d="M458.53599,289.8094v-3.91426h8.70893v3.91426z" fill="url(#color-73)" stroke="#b3b3b3" stroke-width="0"/><path d="M445.99434,284.99634v-3.91426h8.70893v3.91426z" fill="url(#color-74)" stroke="#b3b3b3" stroke-width="0"/><path d="M464.74434,284.99634v-3.91426h8.70893v3.91426z" fill="url(#color-75)" stroke="#b3b3b3" stroke-width="0"/><path d="M478.03599,289.8094v-3.91426h6.60893v3.91426z" fill="url(#color-76)" stroke="#b3b3b3" stroke-width="0"/><path d="M470.2269,294.37172v-3.91427h14.61802v3.91427z" fill="url(#color-77)" stroke="#b3b3b3" stroke-width="0"/><path d="M424.78599,299.19212v-3.91426h8.70893v3.91426z" fill="url(#color-78)" stroke="#b3b3b3" stroke-width="0"/><path d="M420.136,294.37172v-3.91427h8.70893v3.91427z" fill="url(#color-79)" stroke="#b3b3b3" stroke-width="0"/><path d="M418.53599,289.8094v-3.91426h8.70893v3.91426z" fill="url(#color-80)" stroke="#b3b3b3" stroke-width="0"/><path d="M405.99428,284.99634v-3.91426h8.70893v3.91426z" fill="url(#color-81)" stroke="#b3b3b3" stroke-width="0"/><path d="M450.136,294.37172v-3.91427h8.70893v3.91427z" fill="url(#color-82)" stroke="#b3b3b3" stroke-width="0"/><path d="M448.53599,289.8094v-3.91426h8.70893v3.91426z" fill="url(#color-83)" stroke="#b3b3b3" stroke-width="0"/><path d="M435.99434,284.99634v-3.91426h8.70893v3.91426z" fill="url(#color-84)" stroke="#b3b3b3" stroke-width="0"/><path d="M468.03599,289.8094v-3.91426h8.70893v3.91426z" fill="url(#color-85)" stroke="#b3b3b3" stroke-width="0"/><path d="M455.49434,284.99634v-3.91426h8.70893v3.91426z" fill="url(#color-86)" stroke="#b3b3b3" stroke-width="0"/><path d="M474.24434,284.99634v-3.91426h10.33393v3.91426z" fill="url(#color-87)" stroke="#b3b3b3" stroke-width="0"/><path d="M454.78599,299.19212v-3.91426h8.70893v3.91426z" fill="url(#color-88)" stroke="#b3b3b3" stroke-width="0"/><path d="M464.886,299.19212v-3.91426h20.00893v3.91426z" fill="url(#color-89)" stroke="#b3b3b3" stroke-width="0"/><path d="M386.03599,304.04564v-3.91426h8.70893v3.91426z" fill="url(#color-90)" stroke="#b3b3b3" stroke-width="0"/><path d="M406.03599,304.04564v-3.91426h38.95893v3.91426z" fill="url(#color-91)" stroke="#b3b3b3" stroke-width="0"/><path d="M446.236,304.04564v-3.91426h8.70893v3.91426z" fill="url(#color-92)" stroke="#b3b3b3" stroke-width="0"/><path d="M476.236,304.04564v-3.91426h8.70893v3.91426z" fill="url(#color-93)" stroke="#b3b3b3" stroke-width="0"/></g><path d="M574.78767,257.46331c1.14893,-0.4924 1.64133,0.65653 1.64133,0.65653l0.47001,1.10187c0.67984,1.32308 1.27702,1.10793 2.59097,1.76475c2.75374,1.37654 5.28521,2.15612 8.35294,2.73037c1.74574,0.32678 3.42869,0.39427 4.90474,1.60239c2.06822,1.6928 2.57967,4.93284 2.77872,7.36382c0,0 0.09587,1.24632 -1.15045,1.34219c-1.24632,0.09587 -1.34219,-1.15045 -1.34219,-1.15045c-0.11956,-1.68082 -0.39095,-4.43458 -1.88795,-5.63618c-1.07001,-0.85887 -2.50331,-0.82791 -3.76192,-1.06428c-4.24274,-0.79679 -10.36329,-1.93069 -12.72275,-5.83822l-0.52999,-1.23146c0,0 -0.4924,-1.14893 0.65653,-1.64133z" fill="#000000" stroke="none" stroke-width="0.5"/><g><path d="M609.07987,284.85715c0,8.52583 -6.79847,15.43738 -15.18481,15.43738c-8.38634,0 -15.1848,-6.91155 -15.1848,-15.43738c0,-8.52583 6.79846,-15.43737 15.1848,-15.43737c8.38634,0 15.18481,6.91154 15.18481,15.43737z" fill="url(#color-94)" stroke="none" stroke-width="NaN"/><path d="M593.77006,274.91952c-13.16746,0.77808 -14.20592,4.09728 -12.7301,1.71704c2.68847,-4.33605 6.6694,-7.05113 12.8551,-7.21678c0.27827,-0.00745 0.06901,5.48828 -0.125,5.49975z" fill="url(#color-95)" stroke="none" stroke-width="NaN"/><path d="M593.79145,269.41978c6.1857,0.16566 10.16663,2.88073 12.8551,7.21678c1.47582,2.38025 0.43736,-0.93896 -12.7301,-1.71704c-0.19401,-0.01146 -0.40327,-5.5072 -0.125,-5.49975z" data-paper-data="{&quot;index&quot;:null}" fill="url(#color-96)" stroke="none" stroke-width="NaN"/><path d="M597.46795,276.47767c0,3.02927 -1.59964,5.48499 -3.5729,5.48499c-1.97325,0 -3.57289,-2.45572 -3.57289,-5.48499c0,-3.02927 1.59963,-5.48498 3.57289,-5.48498c1.97325,0 3.5729,2.45571 3.5729,5.48498z" fill="url(#color-97)" stroke="#000000" stroke-width="0"/></g><g stroke-width="0"><path d="M681.77959,66.46646c13.86935,0 25.11267,2.57162 25.11267,5.74385c0,3.17224 -11.24332,5.74386 -25.11267,5.74386c-13.86935,0 -25.11267,-2.57162 -25.11267,-5.74386c0,-3.17224 11.24332,-5.74385 25.11267,-5.74385z" fill="url(#color-98)" stroke="#000000"/><path d="M694.33249,71.97477v-16.91246h2.65919v16.91246z" fill="#131313" stroke="none"/><path d="M666.99599,71.65567v-16.91246h2.65919v16.91246z" fill="#131313" stroke="none"/><path d="M674.45604,56.98972c0,0 1.31193,-1.71272 8.10176,-1.6135c4.95654,0.07243 7.74233,1.71411 7.74233,1.71411l-0.1645,15.35l-15.84407,-0.10061z" data-paper-data="{&quot;index&quot;:null}" fill="url(#color-99)" stroke="#000000"/><path d="M672.5975,62.70863l18.72784,0.15449l-0.02534,3.07163l-18.72784,-0.15449z" data-paper-data="{&quot;index&quot;:null}" fill="#343434" stroke="#000000"/><path d="M672.62291,66.80562l18.72784,0.15449l-0.02534,3.07163l-18.72784,-0.15449z" data-paper-data="{&quot;index&quot;:null}" fill="#343434" stroke="#000000"/><path d="M674.29154,-6.19888l15.84407,-0.10061l0.1645,15.35c0,0 -2.78578,1.64166 -7.74233,1.71411c-6.78983,0.09924 -8.10176,-1.6135 -8.10176,-1.6135z" fill="url(#color-100)" stroke="#000000"/><path d="M672.57214,0.36057l18.72784,-0.15448l0.02534,3.07163l-18.72784,0.15449z" fill="#343434" stroke="#000000"/><path d="M672.59757,-3.73639l18.72784,-0.15449l0.02534,3.07163l-18.72784,0.15449z" fill="#343434" stroke="#000000"/><path d="M710.0993,33.6978c0,15.31379 -12.59774,27.72807 -28.13784,27.72807c-15.5401,0 -28.13784,-12.41429 -28.13784,-27.72807c0,-15.31379 12.59774,-27.72807 28.13784,-27.72807c15.5401,0 28.13784,12.41429 28.13784,27.72807z" fill="url(#color-101)" stroke="none"/><path d="M679.72774,62.18305v-56.97054h4.46745v56.97054z" fill="url(#color-102)" stroke="none"/><path d="M652.39123,35.80387v-4.21216h59.14043v4.21216z" fill="url(#color-103)" stroke="none"/><g stroke="#000000"><path d="M642.976,24.60258l5.31733,-14.92574l18.78585,6.69249c0,0 1.04657,3.34869 -0.56688,8.03623c-2.21022,6.42131 -4.75046,6.88951 -4.75046,6.88951z" fill="url(#color-104)"/><path d="M653.31334,30.21232l6.28513,-17.64236l2.89359,1.03085l-6.28513,17.64237z" fill="#343434"/><path d="M649.47416,28.78175l6.28513,-17.64236l2.89361,1.03085l-6.28513,17.64237z" fill="#343434"/><path d="M648.28431,18.14141c-1.48324,4.16346 -4.02355,7.062 -5.67394,6.47405c-1.65039,-0.58795 -1.78587,-4.43974 -0.30264,-8.60322c1.48324,-4.16346 4.02355,-7.062 5.67394,-6.47404c1.65039,0.58795 1.78587,4.43974 0.30263,8.6032z" fill="#858585"/><path d="M645.23352,16.98723c-0.36078,1.01273 -0.86611,1.7579 -1.12867,1.66436c-0.26256,-0.09354 -0.18293,-0.99036 0.17786,-2.00309c0.36078,-1.01273 0.86611,-1.7579 1.12867,-1.66436c0.26256,0.09354 0.18293,0.99036 -0.17786,2.00309z" fill="#000000"/></g><g data-paper-data="{&quot;index&quot;:null}" stroke="#000000"><path d="M661.92285,34.75627c0,0 2.54024,0.46819 4.75046,6.88951c1.61345,4.68753 0.56686,8.03624 0.56686,8.03624l-18.78585,6.69249l-5.31732,-14.92574z" fill="url(#color-105)"/><path d="M656.36795,34.80816l6.28513,17.64237l-2.89359,1.03085l-6.28513,-17.64237z" fill="#343434"/><path d="M652.52878,36.23874l6.28513,17.64237l-2.89361,1.03085l-6.28513,-17.64237z" fill="#343434"/><path d="M648.14268,56.51314c-1.65039,0.58795 -4.1907,-2.31057 -5.67394,-6.47405c-1.48324,-4.16346 -1.34776,-8.01525 0.30264,-8.6032c1.65039,-0.58795 4.1907,2.31057 5.67394,6.47405c1.48324,4.16346 1.34776,8.01525 -0.30264,8.60322z" fill="#858585"/><path d="M645.57238,51.06719c-0.26256,0.09354 -0.76789,-0.65161 -1.12867,-1.66434c-0.36078,-1.01275 -0.44042,-1.90955 -0.17786,-2.00309c0.26256,-0.09354 0.76789,0.65162 1.12867,1.66436c0.36078,1.01275 0.44042,1.90955 0.17786,2.00309z" fill="#000000"/></g><g data-paper-data="{&quot;index&quot;:null}" stroke="#000000"><path d="M702.16105,31.72925c0,0 -2.54024,-0.46819 -4.75046,-6.88952c-1.61345,-4.68753 -0.56686,-8.03623 -0.56686,-8.03623l18.78585,-6.69249l5.31733,14.92574z" fill="url(#color-106)"/><path d="M707.71596,31.67735l-6.28513,-17.64237l2.89359,-1.03085l6.28513,17.64237z" fill="#343434"/><path d="M711.55512,30.24678l-6.28513,-17.64237l2.89359,-1.03085l6.28513,17.64236z" fill="#343434"/><path d="M715.94123,9.97237c1.65039,-0.58795 4.19068,2.31058 5.67394,6.47405c1.48325,4.16346 1.34776,8.01525 -0.30263,8.60322c-1.65039,0.58795 -4.19069,-2.31057 -5.67394,-6.47405c-1.48325,-4.16346 -1.34776,-8.01526 0.30264,-8.60322z" fill="#858585"/><path d="M718.51153,15.41833c0.26256,-0.09354 0.76789,0.65162 1.12867,1.66435c0.3608,1.01275 0.44042,1.90955 0.17786,2.00309c-0.26256,0.09354 -0.76789,-0.65161 -1.12867,-1.66436c-0.3608,-1.01275 -0.44042,-1.90955 -0.17786,-2.00309z" fill="#000000"/></g><g data-paper-data="{&quot;index&quot;:null}" stroke="#000000"><path d="M720.78591,41.88294l-5.31733,14.92574l-18.78585,-6.69249c0,0 -1.04657,-3.34871 0.56688,-8.03624c2.21022,-6.42131 4.75046,-6.88951 4.75046,-6.88951z" fill="url(#color-107)"/><path d="M710.44856,36.2732l-6.28513,17.64237l-2.89359,-1.03085l6.28513,-17.64237z" fill="#343434"/><path d="M714.28774,37.70377l-6.28513,17.64236l-2.89359,-1.03085l6.28513,-17.64236z" fill="#343434"/><path d="M715.47758,48.3441c1.48325,-4.16346 4.02355,-7.062 5.67394,-6.47405c1.65039,0.58795 1.78587,4.43974 0.30264,8.60322c-1.48325,4.16346 -4.02355,7.062 -5.67394,6.47405c-1.65039,-0.58795 -1.78587,-4.43974 -0.30264,-8.60321z" fill="#858585"/><path d="M718.52838,49.49828c0.3608,-1.01275 0.86611,-1.7579 1.12867,-1.66436c0.26256,0.09354 0.18294,0.99034 -0.17786,2.00309c-0.3608,1.01275 -0.86611,1.7579 -1.12867,1.66436c-0.26256,-0.09354 -0.18293,-0.99034 0.17786,-2.00309z" fill="#000000"/></g><text transform="translate(684.8433,29.37728) scale(0.14522,0.14522)" font-size="40" xml:space="preserve" fill="#313131" fill-rule="nonzero" stroke="none" stroke-width="0" stroke-linecap="butt" stroke-linejoin="miter" stroke-miterlimit="10" stroke-dasharray="" stroke-dashoffset="0" font-family="&quot;ヒラギノ角ゴ Pro W3&quot;, &quot;Hiragino Kaku Gothic Pro&quot;, Osaka, &quot;メイリオ&quot;, Meiryo, &quot;ＭＳ Ｐゴシック&quot;, &quot;MS PGothic&quot;" font-weight="normal" text-anchor="start" style="mix-blend-mode: normal"><tspan x="0" dy="0">DMR</tspan></text><text transform="translate(688.02628,41.06044) scale(0.14522,0.14522)" font-size="40" xml:space="preserve" fill="#313131" fill-rule="nonzero" stroke="none" stroke-width="0" stroke-linecap="butt" stroke-linejoin="miter" stroke-miterlimit="10" stroke-dasharray="" stroke-dashoffset="0" font-family="&quot;ヒラギノ角ゴ Pro W3&quot;, &quot;Hiragino Kaku Gothic Pro&quot;, Osaka, &quot;メイリオ&quot;, Meiryo, &quot;ＭＳ Ｐゴシック&quot;, &quot;MS PGothic&quot;" font-weight="normal" text-anchor="start" style="mix-blend-mode: normal"><tspan x="0" dy="0">36</tspan></text><path d="M680.61107,75.59128v-16.91246c0,0 0.24934,-0.75977 1.33099,-0.75977c1.14196,0 1.32822,0.75977 1.32822,0.75977v16.91246z" fill="#131313" stroke="none"/></g><path d="M318.74023,283.00314v-294.32811h14v294.32811z" data-paper-data="{&quot;index&quot;:null}" fill="#4b3a13" stroke="none" stroke-width="0"/><g stroke-width="0"><path d="M635.81231,145.69635l32.32932,-37.24136l8.37934,-2.9485l17.2166,2.67373l2.60998,4.65515l82.41988,12.7998c0,0 -17.06235,19.65477 -23.02787,26.52666c-3.79137,4.36742 -14.79611,9.86138 -14.79611,9.86138z" fill="#b29f76" stroke="#000000"/><path d="M638.99586,144.1839l31.06504,-35.78499l107.32901,16.66818l-31.06504,35.78499z" fill="#bebebe" stroke="none"/><path d="M637.33477,142.74542l31.06505,-35.78499l107.32901,16.66818l-31.06505,35.78499z" fill="#dadada" stroke="none"/><path d="M629.77068,144.63461l32.32932,-37.24136l8.37934,-2.9485l17.2166,2.67373l2.60998,4.65515l82.41988,12.7998l-32.32932,37.24136z" fill="url(#color-108)" stroke="#000000"/></g><path d="M619.74027,283.00314v-294.32811h14v294.32811z" data-paper-data="{&quot;index&quot;:null}" fill="#4b3a13" stroke="none" stroke-width="0"/><path d="M227.18133,308.04394l-39.53902,-27.67171l86.81672,-18.14882l39.53901,27.67171z" fill="#d6d6d6" stroke="none" stroke-width="0"/><path d="M179.93995,401.47147v-442.94295h600.6006v442.94295z" fill="url(#color-109)" stroke="none" stroke-width="0"/><path d="M206.57279,393.31643v-426.63286h547.33493v426.63286z" fill="url(#color-110)" stroke="none" stroke-width="0"/></g></g></g></svg>