<svg version="1.1" xmlns="http://www.w3.org/2000/svg" xmlns:xlink="http://www.w3.org/1999/xlink" width="597.08708" height="473.83307" viewBox="0,0,597.08708,473.83307"><defs><linearGradient x1="118.30029" y1="161.2077" x2="334.51648" y2="161.2077" gradientUnits="userSpaceOnUse" id="color-1"><stop offset="0" stop-color="#222720"/><stop offset="1" stop-color="#2d342a"/></linearGradient><linearGradient x1="268.17482" y1="195.84055" x2="194.57356" y2="195.84055" gradientUnits="userSpaceOnUse" id="color-2"><stop offset="0" stop-color="#545454"/><stop offset="1" stop-color="#373737"/></linearGradient><linearGradient x1="202.80673" y1="199.84686" x2="196.83907" y2="199.84686" gradientUnits="userSpaceOnUse" id="color-3"><stop offset="0" stop-color="#8c8c8c"/><stop offset="1" stop-color="#747474"/></linearGradient><linearGradient x1="-58.54354" y1="185.23774" x2="181.67567" y2="185.23774" gradientUnits="userSpaceOnUse" id="color-4"><stop offset="0" stop-color="#343c31"/><stop offset="1" stop-color="#1c201a"/></linearGradient><linearGradient x1="93.96464" y1="197.14641" x2="145.24181" y2="197.14641" gradientUnits="userSpaceOnUse" id="color-5"><stop offset="0" stop-color="#545454"/><stop offset="1" stop-color="#373737"/></linearGradient><linearGradient x1="139.50585" y1="206.58012" x2="143.66346" y2="206.58012" gradientUnits="userSpaceOnUse" id="color-6"><stop offset="0" stop-color="#8c8c8c"/><stop offset="1" stop-color="#747474"/></linearGradient><linearGradient x1="116.18855" y1="166.72365" x2="127.73913" y2="166.72365" gradientUnits="userSpaceOnUse" id="color-7"><stop offset="0" stop-color="#929292"/><stop offset="1" stop-color="#7f7f7f"/></linearGradient><linearGradient x1="-30.24026" y1="234.22863" x2="46.71928" y2="234.22863" gradientUnits="userSpaceOnUse" id="color-8"><stop offset="0" stop-color="#545454"/><stop offset="1" stop-color="#373737"/></linearGradient><linearGradient x1="38.11045" y1="243.62281" x2="44.35041" y2="243.62281" gradientUnits="userSpaceOnUse" id="color-9"><stop offset="0" stop-color="#8c8c8c"/><stop offset="1" stop-color="#747474"/></linearGradient><linearGradient x1="3.11458" y1="180.39779" x2="20.45031" y2="180.39779" gradientUnits="userSpaceOnUse" id="color-10"><stop offset="0" stop-color="#929292"/><stop offset="1" stop-color="#7f7f7f"/></linearGradient><linearGradient x1="319.6536" y1="205.73372" x2="328.47497" y2="205.73372" gradientUnits="userSpaceOnUse" id="color-11"><stop offset="0" stop-color="#c3c3c3"/><stop offset="1" stop-color="#eaeaea"/></linearGradient><linearGradient x1="324.06123" y1="171.7759" x2="324.06123" y2="180.97592" gradientUnits="userSpaceOnUse" id="color-12"><stop offset="0" stop-color="#c7c7c7"/><stop offset="1" stop-color="#6a6a6a"/></linearGradient><linearGradient x1="324.03995" y1="181.17592" x2="324.03995" y2="190.37592" gradientUnits="userSpaceOnUse" id="color-13"><stop offset="0" stop-color="#c7c7c7"/><stop offset="1" stop-color="#6a6a6a"/></linearGradient><linearGradient x1="324.03995" y1="190.97592" x2="324.03995" y2="200.17592" gradientUnits="userSpaceOnUse" id="color-14"><stop offset="0" stop-color="#c7c7c7"/><stop offset="1" stop-color="#6a6a6a"/></linearGradient><linearGradient x1="324.01868" y1="200.37592" x2="324.01868" y2="209.57592" gradientUnits="userSpaceOnUse" id="color-15"><stop offset="0" stop-color="#c7c7c7"/><stop offset="1" stop-color="#6a6a6a"/></linearGradient><linearGradient x1="324.01868" y1="210.37592" x2="324.01868" y2="219.57592" gradientUnits="userSpaceOnUse" id="color-16"><stop offset="0" stop-color="#c7c7c7"/><stop offset="1" stop-color="#6a6a6a"/></linearGradient><linearGradient x1="324.01868" y1="219.77592" x2="324.01868" y2="228.97591" gradientUnits="userSpaceOnUse" id="color-17"><stop offset="0" stop-color="#c7c7c7"/><stop offset="1" stop-color="#6a6a6a"/></linearGradient><linearGradient x1="324.01868" y1="229.17592" x2="324.01868" y2="238.3759" gradientUnits="userSpaceOnUse" id="color-18"><stop offset="0" stop-color="#c7c7c7"/><stop offset="1" stop-color="#6a6a6a"/></linearGradient><linearGradient x1="163.56527" y1="246.54397" x2="190.81194" y2="246.54397" gradientUnits="userSpaceOnUse" id="color-19"><stop offset="0" stop-color="#6e6e6e"/><stop offset="1" stop-color="#525252"/></linearGradient><linearGradient x1="177.32676" y1="257.4062" x2="177.32676" y2="264.86048" gradientUnits="userSpaceOnUse" id="color-20"><stop offset="0" stop-color="#9c9c9c"/><stop offset="1" stop-color="#767676"/></linearGradient><linearGradient x1="177.5838" y1="230.67361" x2="177.5838" y2="238.12787" gradientUnits="userSpaceOnUse" id="color-21"><stop offset="0" stop-color="#9c9c9c"/><stop offset="1" stop-color="#767676"/></linearGradient><linearGradient x1="177.5838" y1="201.37058" x2="177.5838" y2="208.82486" gradientUnits="userSpaceOnUse" id="color-22"><stop offset="0" stop-color="#9c9c9c"/><stop offset="1" stop-color="#767676"/></linearGradient><linearGradient x1="177.84084" y1="174.63801" x2="177.84084" y2="182.09228" gradientUnits="userSpaceOnUse" id="color-23"><stop offset="0" stop-color="#9c9c9c"/><stop offset="1" stop-color="#767676"/></linearGradient><linearGradient x1="177.32676" y1="148.16245" x2="177.32676" y2="155.61674" gradientUnits="userSpaceOnUse" id="color-24"><stop offset="0" stop-color="#9c9c9c"/><stop offset="1" stop-color="#767676"/></linearGradient><linearGradient x1="177.5838" y1="121.42987" x2="177.5838" y2="128.88416" gradientUnits="userSpaceOnUse" id="color-25"><stop offset="0" stop-color="#9c9c9c"/><stop offset="1" stop-color="#767676"/></linearGradient><linearGradient x1="177.5838" y1="37.92987" x2="177.5838" y2="45.38416" gradientUnits="userSpaceOnUse" id="color-26"><stop offset="0" stop-color="#9c9c9c"/><stop offset="1" stop-color="#767676"/></linearGradient><linearGradient x1="177.32676" y1="92.12685" x2="177.32676" y2="99.58113" gradientUnits="userSpaceOnUse" id="color-27"><stop offset="0" stop-color="#9c9c9c"/><stop offset="1" stop-color="#767676"/></linearGradient><linearGradient x1="177.32676" y1="8.62685" x2="177.32676" y2="16.08113" gradientUnits="userSpaceOnUse" id="color-28"><stop offset="0" stop-color="#9c9c9c"/><stop offset="1" stop-color="#767676"/></linearGradient><linearGradient x1="177.5838" y1="65.39425" x2="177.5838" y2="72.84855" gradientUnits="userSpaceOnUse" id="color-29"><stop offset="0" stop-color="#9c9c9c"/><stop offset="1" stop-color="#767676"/></linearGradient><radialGradient cx="240" cy="180" r="254.39899" gradientUnits="userSpaceOnUse" id="color-30"><stop offset="0" stop-color="#171717" stop-opacity="0"/><stop offset="1" stop-color="#171717"/></radialGradient><linearGradient x1="240.19443" y1="40.82134" x2="240.19443" y2="110.81053" gradientUnits="userSpaceOnUse" id="color-31"><stop offset="0" stop-color="#000000"/><stop offset="1" stop-color="#000000" stop-opacity="0"/></linearGradient></defs><g transform="translate(58.54354,46.76224)"><g data-paper-data="{&quot;isPaintingLayer&quot;:true}" fill-rule="nonzero" stroke-linejoin="miter" stroke-miterlimit="10" stroke-dasharray="" stroke-dashoffset="0" style="mix-blend-mode: normal"><path d="M118.30029,359.4059v-396.39639h216.21621v396.39639z" fill="url(#color-1)" stroke="none" stroke-width="0" stroke-linecap="butt"/><g data-paper-data="{&quot;index&quot;:null}" stroke="none" stroke-width="0" stroke-linecap="butt"><path d="M195.57356,268.91819l-0.99842,-149.21023l81.85484,-0.04979l0.80331,149.71296z" fill="url(#color-2)"/><path d="M196.83907,215.95957v-32.22542h5.96767v32.22542z" fill="url(#color-3)"/></g><path d="M303.8003,355.89839v-396.39639h234.74324v396.39639z" fill="#1a1e19" stroke="none" stroke-width="0" stroke-linecap="butt"/><path d="M-58.54354,383.43593v-396.39639h240.21921v396.39639z" fill="url(#color-4)" stroke="none" stroke-width="0" stroke-linecap="butt"/><g stroke="none" stroke-linecap="butt"><path d="M95.07333,328.03776l-0.83152,-221.6161l51,5.83333v203.94944z" fill="url(#color-5)" stroke-width="0"/><path d="M139.50585,226.83012v-40.5h4.15761v40.5z" fill="url(#color-6)" stroke-width="0"/><path d="M116.43829,163.87113l-0.18731,-24.78277l11.48814,0.67533v22.69565z" fill="url(#color-7)" stroke-width="0"/><text transform="translate(119.92086,158.10766) scale(0.19641,0.5)" font-size="40" xml:space="preserve" fill="#ffffff" fill-rule="nonzero" stroke="none" stroke-width="1" stroke-linecap="butt" stroke-linejoin="miter" stroke-miterlimit="10" stroke-dasharray="" stroke-dashoffset="0" font-family="Sans Serif" font-weight="normal" text-anchor="start" style="mix-blend-mode: normal"><tspan x="0" dy="0">1</tspan></text></g><g stroke="none" stroke-linecap="butt"><path d="M-28.57628,427.07083l-1.24799,-352.0324l76.54354,17.11216v291.13067z" fill="url(#color-8)" stroke-width="0"/><path d="M38.11045,273.45712v-59.66863h6.23997v59.66863z" fill="url(#color-9)" stroke-width="0"/><path d="M3.48941,176.19517l-0.28112,-36.51244l17.24202,0.99497v33.43749z" fill="url(#color-10)" stroke-width="0"/><text transform="translate(8.71624,167.70386) scale(0.29479,0.73665)" font-size="40" xml:space="preserve" fill="#ffffff" fill-rule="nonzero" stroke="none" stroke-width="1" stroke-linecap="butt" stroke-linejoin="miter" stroke-miterlimit="10" stroke-dasharray="" stroke-dashoffset="0" font-family="Sans Serif" font-weight="normal" text-anchor="start" style="mix-blend-mode: normal"><tspan x="0" dy="0">2</tspan></text></g><g stroke="none" stroke-linecap="butt"><path d="M319.12168,244.82261v-81.51111l10,2.33333v82.51111z" fill="#8a8a8a" stroke-width="NaN"/><path d="M319.6536,240.21548v-71.90399l8.82137,2.05832v72.78612z" fill="url(#color-11)" stroke-width="NaN"/><path d="M319.98321,178.77592v-7l8.15603,2.2v7z" fill="url(#color-12)" stroke-width="0"/><path d="M319.96194,188.17592v-7l8.15603,2.2v7z" fill="url(#color-13)" stroke-width="0"/><path d="M319.96194,197.97592v-7l8.15603,2.2v7z" fill="url(#color-14)" stroke-width="0"/><path d="M319.94066,207.37592v-7l8.15603,2.2v7z" fill="url(#color-15)" stroke-width="0"/><path d="M319.94066,217.37592v-7l8.15603,2.2v7z" fill="url(#color-16)" stroke-width="0"/><path d="M319.94066,226.77592v-7l8.15603,2.2v7z" fill="url(#color-17)" stroke-width="0"/><path d="M319.94066,236.17592v-7l8.15603,2.2v7z" fill="url(#color-18)" stroke-width="0"/></g><path d="M1.60118,123.19298c-2.80702,0 -2.80702,-2.80702 -2.80702,-2.80702l0.82215,-4.23048c0.54571,-0.44498 1.38002,-0.67943 1.63713,-1.33495c0.28044,-0.71502 -0.14245,-1.52948 -0.21367,-2.29422c0,-3.81713 0.58772,-8.14037 0.03624,-11.90125c-0.17171,-1.17102 -0.93436,-2.19999 -1.12281,-3.36842c-0.0469,-0.29082 -0.03624,-6.64752 -0.03624,-7.18649c0,-4.16153 -0.42808,-8.61579 0.03613,-12.74313c0.34703,-3.08542 1.80289,-5.96673 2.24573,-9.03986c0.40568,-2.81523 -0.03624,-5.68853 -0.03624,-8.53283c0,-5.98831 0,-11.97663 0,-17.96493c0,-5.72185 -0.32463,-10.62454 1.54203,-16.07225c3.57655,-3.71995 7.8349,-6.91419 8.58427,-12.34093c0.46398,-3.36 -0.58387,-3.30894 -1.12281,-7.17371c-0.48445,-3.47403 0.46421,-4.19992 0.01521,-7.75299c-0.29962,-2.37098 -2.52137,-4.10824 -3.28423,-6.37306c-0.35841,-1.06406 0.35507,-2.30324 0,-3.36842c-0.42673,-1.2802 -1.84209,-2.08072 -2.24562,-3.36842c-2.12209,-6.77174 1.44239,-11.94055 6.74356,-15.49991c2.29063,-1.53799 4.79435,-2.80677 7.40625,-3.69581c0,0 2.66298,-0.88766 3.55063,1.77532c0.88766,2.66298 -1.77532,3.55063 -1.77532,3.55063c-2.15173,0.69861 -4.17993,1.79393 -6.06745,3.04104c-3.36493,2.22324 -4.36408,2.65582 -4.36408,6.64688c0,0.85262 -0.40837,1.75247 -0.12044,2.555c0.4557,1.27018 1.81888,2.08822 2.24562,3.36842c0.35507,1.06519 -0.35126,2.30197 0,3.36842c0.82334,2.49975 3.04983,4.4998 3.45262,7.10064c0.40641,2.62416 -0.3699,5.33895 0.01521,7.96632c0.74321,5.07041 2.25975,8.79736 -0.25142,13.90024c-1.79538,3.64834 -5.09585,6.50899 -8.00643,9.25183c-1.31901,4.17604 -0.70359,8.75861 -0.70359,13.12077c0,5.98831 0,11.97663 0,17.96493c0,0.58905 0.01098,9.09909 -0.03624,9.43211c-0.42037,2.96405 -1.8759,5.73112 -2.20189,8.70703c-0.43247,3.9479 -0.00748,8.19842 -0.00748,12.1767c0,2.09578 -0.39315,4.22205 -0.03624,6.28721c0.20156,1.16626 0.9593,2.19624 1.12281,3.36842c0.56877,4.07756 0.03624,8.66902 0.03624,12.80053c-0.07122,1.48087 0.34134,3.06785 -0.21367,4.44263c-0.53101,1.3153 -1.90273,2.10419 -2.8541,3.15628l0.82215,0.26075c0,0 0,2.80702 -2.80702,2.80702z" fill="#000000" stroke="none" stroke-width="0.5" stroke-linecap="butt"/><path d="M-11.87252,158c-2.80702,0 -2.80702,-2.80702 -2.80702,-2.80702c0,-9.73101 0,-20.58482 0,-30.31582c0,-3.74272 -0.57629,-7.99118 0.03624,-11.67772c0.76771,-4.62043 3.72114,-8.87158 4.49123,-13.4737c0.42651,-2.5489 -0.32985,-5.18788 -0.01521,-7.75299c0.18787,-1.53168 0.89901,-2.96439 1.12281,-4.49123c1.23483,-8.4244 -1.17751,-17.38046 0,-25.82459c0.21313,-1.52837 0.89901,-2.96439 1.12281,-4.49123c0.5412,-3.69231 -0.08971,-6.52874 1.13802,-10.21194c-0.02871,-8.27434 2.21962,-16.6009 1.10759,-25.03199c-0.34551,-2.61953 -2.29673,-4.76877 -3.20304,-7.25068c-0.7342,-2.01062 -1.01591,-4.16726 -1.29557,-6.28939c-1.04062,-7.89621 0.91508,-15.50151 2.25909,-23.1221c0.20983,-1.18975 -0.31308,-2.47111 0.04796,-3.62401c0.63623,-2.03163 1.54866,-4.03729 2.87319,-5.704c1.52684,-1.92128 4.00643,-2.87494 5.73354,-4.6184c0,0 1.98487,-1.98487 3.96972,0c1.98487,1.98487 0,3.96972 0,3.96972c-1.6604,1.64731 -3.9351,2.62088 -5.49454,4.36406c-1.46267,1.63501 -1.19091,4.23054 -1.57009,6.39131c-1.40824,8.02469 -4.48958,18.33297 -1.32571,26.51089c0.4914,1.27014 1.72284,2.15665 2.24145,3.41592c0.69019,1.67591 1.06523,3.47861 1.33598,5.27075c1.34417,8.89718 -1.10904,17.85998 -1.13802,26.61719c-1.26043,3.78129 -0.57177,6.1561 -1.10759,9.99861c-0.21313,1.52837 -0.89901,2.96439 -1.12281,4.49123c-1.23473,8.4237 1.17741,17.38123 0,25.82459c-0.21313,1.52837 -0.9276,2.96047 -1.12281,4.49123c-0.142,1.11348 0.19016,6.73032 -0.01521,7.96632c-0.76771,4.62043 -3.72114,8.87158 -4.49123,13.4737c-0.56597,3.38234 0.03624,7.33564 0.03624,10.77844c0,9.73101 0,19.46201 0,29.19302v1.12281c0,0 0,2.80702 -2.80702,2.80702z" fill="#000000" stroke="none" stroke-width="0.5" stroke-linecap="butt"/><path d="M-40.52554,370.5593l210.36936,-102.32154l133.94102,0.12677l190.22416,103.05942z" fill="#898989" stroke="none" stroke-width="NaN" stroke-linecap="butt"/><path d="M494.009,-46.76224l-190.22416,103.05942l-133.94102,0.12677l-210.36936,-102.32154z" data-paper-data="{&quot;index&quot;:null}" fill="#4e4e4e" stroke="none" stroke-width="NaN" stroke-linecap="butt"/><g><path d="M167.68929,272.24566l1.02818,-219.00155" fill="none" stroke="#909090" stroke-width="2" stroke-linecap="round"/><path d="M163.56527,272.09203v-278.85929h27.24667v279.09028c0,0 0.49755,5.06623 -13.88038,5.2376c-13.54875,0.16148 -13.36629,-5.46859 -13.36629,-5.46859z" fill="url(#color-19)" stroke="none" stroke-width="0" stroke-linecap="butt"/><path d="M162.67525,262.80413v-5.14089c0,0 9.31209,2.05635 14.10071,2.05635c4.97215,0 15.20232,-2.31339 15.20232,-2.31339v4.88383c0,0 -10.23017,2.57044 -15.20232,2.57044c-4.78862,0 -14.10071,-2.05635 -14.10071,-2.05635z" fill="url(#color-20)" stroke="none" stroke-width="0" stroke-linecap="butt"/><path d="M162.93228,236.07154v-5.14089c0,0 9.31209,2.05635 14.10071,2.05635c4.97215,0 15.20232,-2.31339 15.20232,-2.31339v4.88383c0,0 -10.23017,2.57044 -15.20232,2.57044c-4.78862,0 -14.10071,-2.05635 -14.10071,-2.05635z" fill="url(#color-21)" stroke="none" stroke-width="0" stroke-linecap="butt"/><path d="M162.93228,206.76851v-5.14089c0,0 9.31209,2.05635 14.10071,2.05635c4.97215,0 15.20232,-2.31339 15.20232,-2.31339v4.88383c0,0 -10.23017,2.57044 -15.20232,2.57044c-4.78862,0 -14.10071,-2.05635 -14.10071,-2.05635z" fill="url(#color-22)" stroke="none" stroke-width="0" stroke-linecap="butt"/><path d="M163.18934,180.03592v-5.14089c0,0 9.31209,2.05635 14.10071,2.05635c4.97215,0 15.20232,-2.31339 15.20232,-2.31339v4.88383c0,0 -10.23017,2.57044 -15.20232,2.57044c-4.78862,0 -14.10071,-2.05635 -14.10071,-2.05635z" fill="url(#color-23)" stroke="none" stroke-width="0" stroke-linecap="butt"/><path d="M162.67525,153.56037v-5.14089c0,0 9.31209,2.05635 14.10071,2.05635c4.97215,0 15.20232,-2.31339 15.20232,-2.31339v4.88383c0,0 -10.23017,2.57044 -15.20232,2.57044c-4.78862,0 -14.10071,-2.05635 -14.10071,-2.05635z" fill="url(#color-24)" stroke="none" stroke-width="0" stroke-linecap="butt"/><path d="M162.93228,126.8278v-5.14089c0,0 9.31209,2.05635 14.10071,2.05635c4.97215,0 15.20232,-2.31339 15.20232,-2.31339v4.88383c0,0 -10.23017,2.57044 -15.20232,2.57044c-4.78862,0 -14.10071,-2.05635 -14.10071,-2.05635z" fill="url(#color-25)" stroke="none" stroke-width="0" stroke-linecap="butt"/><path d="M162.93228,43.3278v-5.14089c0,0 9.31209,2.05635 14.10071,2.05635c4.97215,0 15.20232,-2.31339 15.20232,-2.31339v4.88383c0,0 -10.23017,2.57044 -15.20232,2.57044c-4.78862,0 -14.10071,-2.05635 -14.10071,-2.05635z" fill="url(#color-26)" stroke="none" stroke-width="0" stroke-linecap="butt"/><path d="M162.67525,97.52478v-5.14089c0,0 9.31209,2.05635 14.10071,2.05635c4.97215,0 15.20232,-2.31339 15.20232,-2.31339v4.88383c0,0 -10.23017,2.57044 -15.20232,2.57044c-4.78862,0 -14.10071,-2.05635 -14.10071,-2.05635z" fill="url(#color-27)" stroke="none" stroke-width="0" stroke-linecap="butt"/><path d="M162.67525,14.02478v-5.14089c0,0 9.31209,2.05635 14.10071,2.05635c4.97215,0 15.20232,-2.31339 15.20232,-2.31339v4.88383c0,0 -10.23017,2.57044 -15.20232,2.57044c-4.78862,0 -14.10071,-2.05635 -14.10071,-2.05635z" fill="url(#color-28)" stroke="none" stroke-width="0" stroke-linecap="butt"/><path d="M162.93228,70.7922v-5.14089c0,0 9.31209,2.05635 14.10071,2.05635c4.97215,0 15.20232,-2.31339 15.20232,-2.31339v4.88383c0,0 -10.23017,2.57044 -15.20232,2.57044c-4.78862,0 -14.10071,-2.05635 -14.10071,-2.05635z" fill="url(#color-29)" stroke="none" stroke-width="0" stroke-linecap="butt"/></g><g fill="#000000" stroke="none" stroke-width="0.5" stroke-linecap="butt"><path d="M223.26827,76.99239c-0.81856,-1.63714 0.81856,-2.4557 0.81856,-2.4557l0.9886,-0.38928c1.67734,-1.36774 0.9282,-3.08563 0.9282,-5.29507c0,-4.73876 -0.3027,-9.09565 -1.45059,-13.6872c-0.01617,-2.85264 -0.35317,-5.76081 0.95602,-8.44696c0.5805,-1.19105 2.39874,-1.88845 2.76955,-3.28933c0.20467,-0.77319 -0.06487,-1.59848 -0.07854,-2.39818c-0.06388,-3.73714 -0.56857,-6.77306 -2.05712,-10.28179c-0.2518,-0.59354 -0.6119,-1.14599 -0.92994,-1.71246c-0.02423,0.52551 -0.05239,0.90455 -0.08087,0.98031c-0.2759,0.73402 -1.1978,1.05197 -1.59833,1.72613c-0.39419,0.66349 -0.33508,1.53467 -0.73215,2.19645c-0.61213,1.02021 -1.7733,1.8146 -1.94672,2.99166c-0.45182,3.06664 1.45837,6.11047 1.48793,9.22475c0,2.05771 0.59919,6.51527 -0.07854,8.58406c-0.32908,1.00453 -1.12878,1.78756 -1.69317,2.68134l-0.96084,1.01111c0,0 -1.29427,1.29427 -2.58854,0c-1.29427,-1.29427 0,-2.58854 0,-2.58854l0.50346,-0.45319c1.91936,-2.65907 1.15689,-5.97699 1.15689,-9.23478c0.04179,-3.36544 -2.05362,-6.36329 -1.44066,-9.81114c0.17673,-0.99411 0.48522,-1.98644 0.98188,-2.86554c0.33953,-0.601 1.10916,-0.87239 1.4643,-1.4643c0.39707,-0.66178 0.3318,-1.53666 0.73215,-2.19645c0.31007,-0.51101 1.08892,-0.65563 1.33026,-1.20247c0.45776,-1.03721 0.03459,-2.27551 -0.11569,-3.39925c-0.30109,-2.25144 -2.63219,-3.31964 -3.52791,-5.4099c-0.82366,-1.92212 -1.60214,-6.64991 -0.74929,-8.76243c0.16659,-0.41265 2.81716,-3.01421 3.32537,-3.52241c0,0 1.29427,-1.29427 2.58854,0c1.29427,1.29427 0,2.58854 0,2.58854c-0.81176,0.81176 -2.11263,1.26604 -2.53182,2.33478c-0.18287,0.46624 0.12121,0.9955 0.13933,1.49599c0.07135,1.97016 -0.28411,2.37875 0.57568,4.38456c0.9405,2.1941 2.49158,2.89747 3.3466,4.83226c0.3669,-0.78797 1.01032,-1.47654 1.25174,-2.31586c0.22833,-0.79382 -0.21762,-1.70993 0.09036,-2.47637c0.29238,-0.72762 1.17584,-1.06552 1.59833,-1.72613c0.7576,-1.18459 0.46979,-2.93584 0.45879,-4.16276c0,0 0,-1.83037 1.83037,-1.83037c1.83037,0 1.83037,1.83037 1.83037,1.83037c-0.01885,2.57042 0.31303,3.76746 -1.00551,6.08733c-0.29536,0.51966 -1.10946,0.64702 -1.33026,1.20247c-0.23626,0.59431 0.26484,1.30123 0.09036,1.91653c-0.67185,2.36926 -2.16793,2.59059 -1.4643,5.01613c0.93902,3.23697 3.11486,6.20748 3.68608,9.64528c0.02555,0.15377 0.02808,4.36628 0.02363,4.68609c-0.01601,1.15319 0.25182,2.35404 -0.07854,3.45901c-0.4849,1.62192 -2.30728,2.52989 -3.08764,4.03216c-0.91018,1.75217 -0.49515,4.30751 -0.50828,6.19603c1.17906,4.71626 1.47801,9.25563 1.47801,14.13448c0,0.45132 0.04689,5.36422 -0.13933,5.8255c-0.34626,0.85767 -1.24071,1.37208 -1.86107,2.05812l-1.94,1.07501c0,0 -1.63714,0.81856 -2.4557,-0.81856z"/><path d="M245.9677,64.28941c-1.29426,1.29426 -2.58854,0 -2.58854,0l-1.17433,-1.4476c-0.24405,-0.73215 -0.4881,-1.4643 -0.73215,-2.19645c-0.51072,-1.57303 -1.71126,-2.86501 -2.21184,-4.4413c-0.64029,-2.01625 -0.2526,-6.45278 0.98534,-8.17062c0.66163,-0.91813 1.8884,-1.29107 2.63307,-2.14324c0.65596,-0.75065 1.98506,-3.1432 2.18388,-4.42059c0.48975,-3.14652 -0.88021,-4.79924 -2.60674,-7.42236c-0.45464,-0.69073 -1.37501,-1.06173 -1.67046,-1.83408c-0.34541,-0.90294 -0.11925,-1.93036 -0.13933,-2.8969c-0.09928,-4.78096 1.40792,-7.42504 3.96815,-11.2654c0,0 1.01531,-1.52297 2.53827,-0.50766c1.52297,1.01531 0.50766,2.53827 0.50766,2.53827c-2.26375,3.39563 -3.22969,5.09995 -3.35334,9.23478c-0.01497,0.5006 -0.3379,1.03622 -0.13933,1.49599c0.22039,0.51031 0.9466,0.63415 1.25813,1.09452c0.61167,0.90391 0.86424,2.01693 1.4643,2.9286c0.45464,0.69074 1.37501,1.06173 1.67046,1.83409c0.11335,0.29631 0.20504,4.87434 0.11569,5.38655c-0.35501,2.03542 -1.81761,4.79034 -3.04729,6.25044c-0.64548,0.76643 -1.7325,1.06899 -2.38584,1.82873c-0.63597,0.73953 -0.38898,2.59841 -0.40043,3.34203c-0.03615,2.35032 1.32468,3.72532 2.10252,6.01053c0.24405,0.73215 0.4881,1.4643 0.73215,2.19645l0.28997,0.0167c0,0 1.29426,1.29426 0,2.58854z"/></g><path d="M-14.39899,390.18941v-420.37882h508.79798v420.37882z" fill="url(#color-30)" stroke="none" stroke-width="0" stroke-linecap="butt"/><path d="M-17.80557,110.81053l3,-144.19459l515,-11.80541l-2,156z" fill="url(#color-31)" stroke="none" stroke-width="0" stroke-linecap="butt"/></g></g></svg>