<svg version="1.1" xmlns="http://www.w3.org/2000/svg" xmlns:xlink="http://www.w3.org/1999/xlink" width="888.66723" height="580.9784" viewBox="0,0,888.66723,580.9784"><defs><radialGradient cx="475.4376" cy="415.51818" r="159.913" gradientUnits="userSpaceOnUse" id="color-1"><stop offset="0" stop-color="#93266b"/><stop offset="1" stop-color="#6b1c4e"/></radialGradient><linearGradient x1="243.78477" y1="602.83078" x2="243.93768" y2="623.02061" gradientUnits="userSpaceOnUse" id="color-2"><stop offset="0" stop-color="#565656"/><stop offset="1" stop-color="#8b8b8b"/></linearGradient><radialGradient cx="180.44269" cy="632.86423" r="16.89403" gradientUnits="userSpaceOnUse" id="color-3"><stop offset="0" stop-color="#636363"/><stop offset="1" stop-color="#3c3c3c"/></radialGradient><radialGradient cx="324.55507" cy="632.73354" r="16.89403" gradientUnits="userSpaceOnUse" id="color-4"><stop offset="0" stop-color="#636363"/><stop offset="1" stop-color="#3c3c3c"/></radialGradient><linearGradient x1="-164.88922" y1="345.34398" x2="-160.54093" y2="345.31105" gradientUnits="userSpaceOnUse" id="color-5"><stop offset="0" stop-color="#bebebe"/><stop offset="1" stop-color="#797979"/></linearGradient><linearGradient x1="-153.69217" y1="345.04351" x2="-149.31335" y2="345.01034" gradientUnits="userSpaceOnUse" id="color-6"><stop offset="0" stop-color="#bebebe"/><stop offset="1" stop-color="#797979"/></linearGradient><linearGradient x1="-142.00973" y1="345.52" x2="-137.63094" y2="345.48683" gradientUnits="userSpaceOnUse" id="color-7"><stop offset="0" stop-color="#bebebe"/><stop offset="1" stop-color="#797979"/></linearGradient><linearGradient x1="-130.60903" y1="345.34864" x2="-126.19061" y2="345.31517" gradientUnits="userSpaceOnUse" id="color-8"><stop offset="0" stop-color="#bebebe"/><stop offset="1" stop-color="#797979"/></linearGradient><linearGradient x1="-119.44492" y1="346.08657" x2="-115.0264" y2="346.0531" gradientUnits="userSpaceOnUse" id="color-9"><stop offset="0" stop-color="#bebebe"/><stop offset="1" stop-color="#797979"/></linearGradient><linearGradient x1="-107.76439" y1="346.04385" x2="-103.34594" y2="346.01039" gradientUnits="userSpaceOnUse" id="color-10"><stop offset="0" stop-color="#bebebe"/><stop offset="1" stop-color="#797979"/></linearGradient><linearGradient x1="-96.34722" y1="344.96388" x2="-91.92878" y2="344.93042" gradientUnits="userSpaceOnUse" id="color-11"><stop offset="0" stop-color="#bebebe"/><stop offset="1" stop-color="#797979"/></linearGradient><linearGradient x1="-85.95239" y1="345.05561" x2="-81.5573" y2="345.02233" gradientUnits="userSpaceOnUse" id="color-12"><stop offset="0" stop-color="#bebebe"/><stop offset="1" stop-color="#797979"/></linearGradient><linearGradient x1="-123.18723" y1="305.33211" x2="-123.00321" y2="329.62967" gradientUnits="userSpaceOnUse" id="color-13"><stop offset="0" stop-color="#bebebe"/><stop offset="1" stop-color="#797979"/></linearGradient><linearGradient x1="-122.76054" y1="360.77998" x2="-122.57342" y2="385.48778" gradientUnits="userSpaceOnUse" id="color-14"><stop offset="0" stop-color="#797979"/><stop offset="1" stop-color="#bebebe"/></linearGradient><linearGradient x1="-122.14927" y1="340.80352" x2="-122.07267" y2="350.91848" gradientUnits="userSpaceOnUse" id="color-15"><stop offset="0" stop-color="#bebebe"/><stop offset="1" stop-color="#797979"/></linearGradient><radialGradient cx="-187.28279" cy="341.5775" r="11.90502" gradientUnits="userSpaceOnUse" id="color-16"><stop offset="0" stop-color="#636363"/><stop offset="1" stop-color="#3c3c3c"/></radialGradient><radialGradient cx="-123.57098" cy="344.55505" r="72.02123" gradientUnits="userSpaceOnUse" id="color-17"><stop offset="0" stop-color="#af2e80"/><stop offset="1" stop-color="#892464"/></radialGradient><linearGradient x1="649.15339" y1="339.17887" x2="644.8051" y2="339.21181" gradientUnits="userSpaceOnUse" id="color-18"><stop offset="0" stop-color="#bebebe"/><stop offset="1" stop-color="#797979"/></linearGradient><linearGradient x1="637.95306" y1="339.04803" x2="633.57424" y2="339.08119" gradientUnits="userSpaceOnUse" id="color-19"><stop offset="0" stop-color="#bebebe"/><stop offset="1" stop-color="#797979"/></linearGradient><linearGradient x1="626.27918" y1="339.70141" x2="621.9004" y2="339.73457" gradientUnits="userSpaceOnUse" id="color-20"><stop offset="0" stop-color="#bebebe"/><stop offset="1" stop-color="#797979"/></linearGradient><linearGradient x1="614.8772" y1="339.70275" x2="610.45878" y2="339.73621" gradientUnits="userSpaceOnUse" id="color-21"><stop offset="0" stop-color="#bebebe"/><stop offset="1" stop-color="#797979"/></linearGradient><linearGradient x1="603.72554" y1="340.60969" x2="599.30702" y2="340.64315" gradientUnits="userSpaceOnUse" id="color-22"><stop offset="0" stop-color="#bebebe"/><stop offset="1" stop-color="#797979"/></linearGradient><linearGradient x1="592.04571" y1="340.74388" x2="587.62722" y2="340.77735" gradientUnits="userSpaceOnUse" id="color-23"><stop offset="0" stop-color="#bebebe"/><stop offset="1" stop-color="#797979"/></linearGradient><linearGradient x1="580.61349" y1="339.83696" x2="576.19504" y2="339.87042" gradientUnits="userSpaceOnUse" id="color-24"><stop offset="0" stop-color="#bebebe"/><stop offset="1" stop-color="#797979"/></linearGradient><linearGradient x1="570.22123" y1="340.08612" x2="565.82611" y2="340.11941" gradientUnits="userSpaceOnUse" id="color-25"><stop offset="0" stop-color="#bebebe"/><stop offset="1" stop-color="#797979"/></linearGradient><linearGradient x1="606.85016" y1="299.80322" x2="607.03417" y2="324.10077" gradientUnits="userSpaceOnUse" id="color-26"><stop offset="0" stop-color="#bebebe"/><stop offset="1" stop-color="#797979"/></linearGradient><linearGradient x1="607.2633" y1="355.25119" x2="607.45042" y2="379.95899" gradientUnits="userSpaceOnUse" id="color-27"><stop offset="0" stop-color="#797979"/><stop offset="1" stop-color="#bebebe"/></linearGradient><linearGradient x1="606.34956" y1="335.28628" x2="606.42618" y2="345.40124" gradientUnits="userSpaceOnUse" id="color-28"><stop offset="0" stop-color="#bebebe"/><stop offset="1" stop-color="#797979"/></linearGradient><radialGradient cx="671.48734" cy="335.07365" r="11.90502" gradientUnits="userSpaceOnUse" id="color-29"><stop offset="0" stop-color="#636363"/><stop offset="1" stop-color="#3c3c3c"/></radialGradient><radialGradient cx="607.82793" cy="339.01585" r="72.0212" gradientUnits="userSpaceOnUse" id="color-30"><stop offset="0" stop-color="#af2e80"/><stop offset="1" stop-color="#892464"/></radialGradient><linearGradient x1="-11.61142" y1="344.27298" x2="-6.50982" y2="344.23435" gradientUnits="userSpaceOnUse" id="color-31"><stop offset="0" stop-color="#bebebe"/><stop offset="1" stop-color="#797979"/></linearGradient><linearGradient x1="1.52555" y1="343.92047" x2="6.66294" y2="343.88155" gradientUnits="userSpaceOnUse" id="color-32"><stop offset="0" stop-color="#bebebe"/><stop offset="1" stop-color="#797979"/></linearGradient><linearGradient x1="15.23192" y1="344.4795" x2="20.36934" y2="344.44058" gradientUnits="userSpaceOnUse" id="color-33"><stop offset="0" stop-color="#bebebe"/><stop offset="1" stop-color="#797979"/></linearGradient><linearGradient x1="28.60777" y1="344.27846" x2="33.7917" y2="344.2392" gradientUnits="userSpaceOnUse" id="color-34"><stop offset="0" stop-color="#bebebe"/><stop offset="1" stop-color="#797979"/></linearGradient><linearGradient x1="41.70608" y1="345.14425" x2="46.89009" y2="345.10499" gradientUnits="userSpaceOnUse" id="color-35"><stop offset="0" stop-color="#bebebe"/><stop offset="1" stop-color="#797979"/></linearGradient><linearGradient x1="55.41025" y1="345.09415" x2="60.59418" y2="345.0549" gradientUnits="userSpaceOnUse" id="color-36"><stop offset="0" stop-color="#bebebe"/><stop offset="1" stop-color="#797979"/></linearGradient><linearGradient x1="68.80546" y1="343.82702" x2="73.98936" y2="343.78777" gradientUnits="userSpaceOnUse" id="color-37"><stop offset="0" stop-color="#bebebe"/><stop offset="1" stop-color="#797979"/></linearGradient><linearGradient x1="81.00116" y1="343.93467" x2="86.15769" y2="343.89563" gradientUnits="userSpaceOnUse" id="color-38"><stop offset="0" stop-color="#bebebe"/><stop offset="1" stop-color="#797979"/></linearGradient><linearGradient x1="37.3154" y1="297.32907" x2="37.53129" y2="325.83617" gradientUnits="userSpaceOnUse" id="color-39"><stop offset="0" stop-color="#bebebe"/><stop offset="1" stop-color="#797979"/></linearGradient><linearGradient x1="37.81607" y1="362.38326" x2="38.03561" y2="391.37165" gradientUnits="userSpaceOnUse" id="color-40"><stop offset="0" stop-color="#797979"/><stop offset="1" stop-color="#bebebe"/></linearGradient><linearGradient x1="38.53316" y1="338.94592" x2="38.62303" y2="350.81324" gradientUnits="userSpaceOnUse" id="color-41"><stop offset="0" stop-color="#bebebe"/><stop offset="1" stop-color="#797979"/></linearGradient><radialGradient cx="-37.88465" cy="339.85396" r="13.96754" gradientUnits="userSpaceOnUse" id="color-42"><stop offset="0" stop-color="#636363"/><stop offset="1" stop-color="#3c3c3c"/></radialGradient><radialGradient cx="36.86514" cy="343.34738" r="84.4988" gradientUnits="userSpaceOnUse" id="color-43"><stop offset="0" stop-color="#af2e80"/><stop offset="1" stop-color="#892464"/></radialGradient><linearGradient x1="495.87695" y1="340.42955" x2="490.77534" y2="340.46818" gradientUnits="userSpaceOnUse" id="color-44"><stop offset="0" stop-color="#bebebe"/><stop offset="1" stop-color="#797979"/></linearGradient><linearGradient x1="482.73611" y1="340.27605" x2="477.59871" y2="340.31495" gradientUnits="userSpaceOnUse" id="color-45"><stop offset="0" stop-color="#bebebe"/><stop offset="1" stop-color="#797979"/></linearGradient><linearGradient x1="469.03981" y1="341.04261" x2="463.9024" y2="341.08151" gradientUnits="userSpaceOnUse" id="color-46"><stop offset="0" stop-color="#bebebe"/><stop offset="1" stop-color="#797979"/></linearGradient><linearGradient x1="455.66245" y1="341.04419" x2="450.47852" y2="341.08345" gradientUnits="userSpaceOnUse" id="color-47"><stop offset="0" stop-color="#bebebe"/><stop offset="1" stop-color="#797979"/></linearGradient><linearGradient x1="442.57871" y1="342.10827" x2="437.39475" y2="342.14753" gradientUnits="userSpaceOnUse" id="color-48"><stop offset="0" stop-color="#bebebe"/><stop offset="1" stop-color="#797979"/></linearGradient><linearGradient x1="428.87539" y1="342.26574" x2="423.6914" y2="342.305" gradientUnits="userSpaceOnUse" id="color-49"><stop offset="0" stop-color="#bebebe"/><stop offset="1" stop-color="#797979"/></linearGradient><linearGradient x1="415.46253" y1="341.20164" x2="410.27863" y2="341.2409" gradientUnits="userSpaceOnUse" id="color-50"><stop offset="0" stop-color="#bebebe"/><stop offset="1" stop-color="#797979"/></linearGradient><linearGradient x1="403.26982" y1="341.494" x2="398.11332" y2="341.53304" gradientUnits="userSpaceOnUse" id="color-51"><stop offset="0" stop-color="#bebebe"/><stop offset="1" stop-color="#797979"/></linearGradient><linearGradient x1="446.2447" y1="294.23206" x2="446.4606" y2="322.73918" gradientUnits="userSpaceOnUse" id="color-52"><stop offset="0" stop-color="#bebebe"/><stop offset="1" stop-color="#797979"/></linearGradient><linearGradient x1="446.72943" y1="359.28637" x2="446.94896" y2="388.27477" gradientUnits="userSpaceOnUse" id="color-53"><stop offset="0" stop-color="#797979"/><stop offset="1" stop-color="#bebebe"/></linearGradient><linearGradient x1="445.65745" y1="335.86259" x2="445.74731" y2="347.72992" gradientUnits="userSpaceOnUse" id="color-54"><stop offset="0" stop-color="#bebebe"/><stop offset="1" stop-color="#797979"/></linearGradient><radialGradient cx="522.08022" cy="335.61311" r="13.96757" gradientUnits="userSpaceOnUse" id="color-55"><stop offset="0" stop-color="#636363"/><stop offset="1" stop-color="#3c3c3c"/></radialGradient><radialGradient cx="447.39193" cy="340.23828" r="84.49883" gradientUnits="userSpaceOnUse" id="color-56"><stop offset="0" stop-color="#af2e80"/><stop offset="1" stop-color="#892464"/></radialGradient><linearGradient x1="209.55486" y1="297.44323" x2="223.54977" y2="301.1515" gradientUnits="userSpaceOnUse" id="color-57"><stop offset="0" stop-color="#bebebe"/><stop offset="1" stop-color="#797979"/></linearGradient><linearGradient x1="272.06819" y1="296.96979" x2="258.13101" y2="300.8896" gradientUnits="userSpaceOnUse" id="color-58"><stop offset="0" stop-color="#bebebe"/><stop offset="1" stop-color="#797979"/></linearGradient><linearGradient x1="177.14246" y1="342.60812" x2="177.7699" y2="425.45567" gradientUnits="userSpaceOnUse" id="color-59"><stop offset="0" stop-color="#bebebe"/><stop offset="1" stop-color="#9f9f9f"/></linearGradient><linearGradient x1="302.51366" y1="340.29914" x2="303.1411" y2="423.14668" gradientUnits="userSpaceOnUse" id="color-60"><stop offset="0" stop-color="#bebebe"/><stop offset="1" stop-color="#9f9f9f"/></linearGradient><linearGradient x1="230.48213" y1="342.78358" x2="251.56832" y2="342.62388" gradientUnits="userSpaceOnUse" id="color-61"><stop offset="0" stop-color="#bebebe"/><stop offset="1" stop-color="#9f9f9f"/></linearGradient><linearGradient x1="240.70621" y1="340.68574" x2="240.77186" y2="349.35497" gradientUnits="userSpaceOnUse" id="color-62"><stop offset="0" stop-color="#bebebe"/><stop offset="1" stop-color="#9f9f9f"/></linearGradient><radialGradient cx="135.9115" cy="341.52168" r="13.96754" gradientUnits="userSpaceOnUse" id="color-63"><stop offset="0" stop-color="#636363"/><stop offset="1" stop-color="#3c3c3c"/></radialGradient><radialGradient cx="359.41259" cy="338.53698" r="13.96754" gradientUnits="userSpaceOnUse" id="color-64"><stop offset="0" stop-color="#636363"/><stop offset="1" stop-color="#3c3c3c"/></radialGradient><linearGradient x1="241.92427" y1="419.49062" x2="243.36562" y2="609.80811" gradientUnits="userSpaceOnUse" id="color-65"><stop offset="0" stop-color="#bebebe"/><stop offset="1" stop-color="#545454"/></linearGradient><linearGradient x1="240.13079" y1="413.69632" x2="240.21064" y2="424.23943" gradientUnits="userSpaceOnUse" id="color-66"><stop offset="0" stop-color="#bebebe"/><stop offset="1" stop-color="#9f9f9f"/></linearGradient><radialGradient cx="267.16588" cy="428.5595" r="33.119" gradientUnits="userSpaceOnUse" id="color-67"><stop offset="0" stop-color="#8d8d8d"/><stop offset="1" stop-color="#1e1e1e"/></radialGradient><radialGradient cx="266.92603" cy="439.54367" r="33.11907" gradientUnits="userSpaceOnUse" id="color-68"><stop offset="0" stop-color="#8d8d8d"/><stop offset="1" stop-color="#1e1e1e"/></radialGradient><radialGradient cx="266.37055" cy="451.4993" r="33.11907" gradientUnits="userSpaceOnUse" id="color-69"><stop offset="0" stop-color="#8d8d8d"/><stop offset="1" stop-color="#1e1e1e"/></radialGradient><radialGradient cx="266.12581" cy="461.83749" r="33.11907" gradientUnits="userSpaceOnUse" id="color-70"><stop offset="0" stop-color="#8d8d8d"/><stop offset="1" stop-color="#1e1e1e"/></radialGradient><radialGradient cx="266.19186" cy="470.55833" r="33.11907" gradientUnits="userSpaceOnUse" id="color-71"><stop offset="0" stop-color="#8d8d8d"/><stop offset="1" stop-color="#1e1e1e"/></radialGradient><radialGradient cx="265.63885" cy="482.83694" r="33.11907" gradientUnits="userSpaceOnUse" id="color-72"><stop offset="0" stop-color="#8d8d8d"/><stop offset="1" stop-color="#1e1e1e"/></radialGradient><radialGradient cx="265.38436" cy="491.88314" r="33.119" gradientUnits="userSpaceOnUse" id="color-73"><stop offset="0" stop-color="#8d8d8d"/><stop offset="1" stop-color="#1e1e1e"/></radialGradient><radialGradient cx="265.7984" cy="503.90323" r="33.11907" gradientUnits="userSpaceOnUse" id="color-74"><stop offset="0" stop-color="#8d8d8d"/><stop offset="1" stop-color="#1e1e1e"/></radialGradient><radialGradient cx="266.19968" cy="514.23652" r="33.11904" gradientUnits="userSpaceOnUse" id="color-75"><stop offset="0" stop-color="#8d8d8d"/><stop offset="1" stop-color="#1e1e1e"/></radialGradient><radialGradient cx="241.16353" cy="464.63196" r="129.32993" gradientUnits="userSpaceOnUse" id="color-76"><stop offset="0" stop-color="#af2e80"/><stop offset="1" stop-color="#892464"/></radialGradient><radialGradient cx="266.08699" cy="408.92817" r="109.0351" gradientUnits="userSpaceOnUse" id="color-77"><stop offset="0" stop-color="#258d2f"/><stop offset="1" stop-color="#1b692b"/></radialGradient><linearGradient x1="240.44828" y1="259.35096" x2="241.31868" y2="374.27811" gradientUnits="userSpaceOnUse" id="color-78"><stop offset="0" stop-color="#bdbdbd"/><stop offset="1" stop-color="#848484"/></linearGradient><radialGradient cx="336.65273" cy="305.48464" r="110.94423" gradientUnits="userSpaceOnUse" id="color-79"><stop offset="0" stop-color="#af2e80"/><stop offset="1" stop-color="#892464"/></radialGradient><radialGradient cx="239.14616" cy="303.97636" r="83.06284" gradientUnits="userSpaceOnUse" id="color-80"><stop offset="0" stop-color="#1e1e1e"/><stop offset="1" stop-color="#000000"/></radialGradient><linearGradient x1="239.37341" y1="286.61629" x2="239.40181" y2="290.36598" gradientUnits="userSpaceOnUse" id="color-81"><stop offset="0" stop-color="#bebebe"/><stop offset="1" stop-color="#9f9f9f"/></linearGradient><linearGradient x1="225.82361" y1="177.43579" x2="226.6999" y2="293.14069" gradientUnits="userSpaceOnUse" id="color-82"><stop offset="0" stop-color="#bebebe"/><stop offset="1" stop-color="#9f9f9f"/></linearGradient><linearGradient x1="252.07149" y1="177.23701" x2="252.94777" y2="292.9419" gradientUnits="userSpaceOnUse" id="color-83"><stop offset="0" stop-color="#bebebe"/><stop offset="1" stop-color="#9f9f9f"/></linearGradient><linearGradient x1="239.9066" y1="280.67656" x2="240.11643" y2="308.38279" gradientUnits="userSpaceOnUse" id="color-84"><stop offset="0" stop-color="#8f8f8f"/><stop offset="1" stop-color="#797979"/></linearGradient><linearGradient x1="281.70225" y1="298.4837" x2="281.58028" y2="282.37867" gradientUnits="userSpaceOnUse" id="color-85"><stop offset="0" stop-color="#373737"/><stop offset="1" stop-color="#8f8f8f"/></linearGradient><linearGradient x1="197.95682" y1="299.11794" x2="197.83484" y2="283.01291" gradientUnits="userSpaceOnUse" id="color-86"><stop offset="0" stop-color="#373737"/><stop offset="1" stop-color="#8f8f8f"/></linearGradient><linearGradient x1="276.72724" y1="303.04555" x2="276.60527" y2="286.94055" gradientUnits="userSpaceOnUse" id="color-87"><stop offset="0" stop-color="#373737"/><stop offset="1" stop-color="#8f8f8f"/></linearGradient><linearGradient x1="203.00032" y1="303.60392" x2="202.87835" y2="287.49892" gradientUnits="userSpaceOnUse" id="color-88"><stop offset="0" stop-color="#373737"/><stop offset="1" stop-color="#8f8f8f"/></linearGradient><linearGradient x1="269.7973" y1="306.71738" x2="269.67533" y2="290.61238" gradientUnits="userSpaceOnUse" id="color-89"><stop offset="0" stop-color="#373737"/><stop offset="1" stop-color="#8f8f8f"/></linearGradient><linearGradient x1="209.98504" y1="307.17037" x2="209.86307" y2="291.06537" gradientUnits="userSpaceOnUse" id="color-90"><stop offset="0" stop-color="#373737"/><stop offset="1" stop-color="#8f8f8f"/></linearGradient><linearGradient x1="262.58232" y1="309.48654" x2="262.46035" y2="293.38154" gradientUnits="userSpaceOnUse" id="color-91"><stop offset="0" stop-color="#373737"/><stop offset="1" stop-color="#8f8f8f"/></linearGradient><linearGradient x1="217.24117" y1="309.82993" x2="217.1192" y2="293.72493" gradientUnits="userSpaceOnUse" id="color-92"><stop offset="0" stop-color="#373737"/><stop offset="1" stop-color="#8f8f8f"/></linearGradient><linearGradient x1="254.52689" y1="311.53819" x2="254.40493" y2="295.4332" gradientUnits="userSpaceOnUse" id="color-93"><stop offset="0" stop-color="#373737"/><stop offset="1" stop-color="#8f8f8f"/></linearGradient><linearGradient x1="225.32671" y1="311.75933" x2="225.20475" y2="295.65435" gradientUnits="userSpaceOnUse" id="color-94"><stop offset="0" stop-color="#373737"/><stop offset="1" stop-color="#8f8f8f"/></linearGradient><linearGradient x1="246.18639" y1="312.68718" x2="246.06442" y2="296.58212" gradientUnits="userSpaceOnUse" id="color-95"><stop offset="0" stop-color="#373737"/><stop offset="1" stop-color="#8f8f8f"/></linearGradient><linearGradient x1="233.68374" y1="312.78187" x2="233.56176" y2="296.67681" gradientUnits="userSpaceOnUse" id="color-96"><stop offset="0" stop-color="#373737"/><stop offset="1" stop-color="#8f8f8f"/></linearGradient><linearGradient x1="322.24332" y1="327.32645" x2="321.87484" y2="278.67267" gradientUnits="userSpaceOnUse" id="color-97"><stop offset="0" stop-color="#767676"/><stop offset="1" stop-color="#ececec"/></linearGradient><linearGradient x1="331.55252" y1="305.06047" x2="314.2782" y2="305.1913" gradientUnits="userSpaceOnUse" id="color-98"><stop offset="0" stop-color="#4c4c4c"/><stop offset="1" stop-color="#2c2c2c"/></linearGradient><linearGradient x1="157.73371" y1="328.57235" x2="157.36523" y2="279.91857" gradientUnits="userSpaceOnUse" id="color-99"><stop offset="0" stop-color="#767676"/><stop offset="1" stop-color="#ececec"/></linearGradient><linearGradient x1="148.08834" y1="306.44994" x2="165.36263" y2="306.31911" gradientUnits="userSpaceOnUse" id="color-100"><stop offset="0" stop-color="#4c4c4c"/><stop offset="1" stop-color="#2c2c2c"/></linearGradient><linearGradient x1="312.50663" y1="341.06794" x2="312.13816" y2="292.41412" gradientUnits="userSpaceOnUse" id="color-101"><stop offset="0" stop-color="#767676"/><stop offset="1" stop-color="#ececec"/></linearGradient><linearGradient x1="321.81584" y1="318.80194" x2="304.54154" y2="318.93276" gradientUnits="userSpaceOnUse" id="color-102"><stop offset="0" stop-color="#4c4c4c"/><stop offset="1" stop-color="#2c2c2c"/></linearGradient><linearGradient x1="167.67748" y1="342.16478" x2="167.309" y2="293.51098" gradientUnits="userSpaceOnUse" id="color-103"><stop offset="0" stop-color="#767676"/><stop offset="1" stop-color="#ececec"/></linearGradient><linearGradient x1="158.032" y1="320.04233" x2="175.30637" y2="319.91151" gradientUnits="userSpaceOnUse" id="color-104"><stop offset="0" stop-color="#4c4c4c"/><stop offset="1" stop-color="#2c2c2c"/></linearGradient><linearGradient x1="298.92248" y1="352.10495" x2="298.554" y2="303.45118" gradientUnits="userSpaceOnUse" id="color-105"><stop offset="0" stop-color="#767676"/><stop offset="1" stop-color="#ececec"/></linearGradient><linearGradient x1="308.23174" y1="329.83899" x2="290.95741" y2="329.96981" gradientUnits="userSpaceOnUse" id="color-106"><stop offset="0" stop-color="#4c4c4c"/><stop offset="1" stop-color="#2c2c2c"/></linearGradient><linearGradient x1="181.42718" y1="352.9948" x2="181.0587" y2="304.34103" gradientUnits="userSpaceOnUse" id="color-107"><stop offset="0" stop-color="#767676"/><stop offset="1" stop-color="#ececec"/></linearGradient><linearGradient x1="171.78177" y1="330.87238" x2="189.0561" y2="330.74156" gradientUnits="userSpaceOnUse" id="color-108"><stop offset="0" stop-color="#4c4c4c"/><stop offset="1" stop-color="#2c2c2c"/></linearGradient><linearGradient x1="284.77099" y1="360.41277" x2="284.40251" y2="311.75896" gradientUnits="userSpaceOnUse" id="color-109"><stop offset="0" stop-color="#767676"/><stop offset="1" stop-color="#ececec"/></linearGradient><linearGradient x1="294.08022" y1="338.14681" x2="276.80593" y2="338.27763" gradientUnits="userSpaceOnUse" id="color-110"><stop offset="0" stop-color="#4c4c4c"/><stop offset="1" stop-color="#2c2c2c"/></linearGradient><linearGradient x1="195.70291" y1="361.08733" x2="195.33443" y2="312.43352" gradientUnits="userSpaceOnUse" id="color-111"><stop offset="0" stop-color="#767676"/><stop offset="1" stop-color="#ececec"/></linearGradient><linearGradient x1="186.05748" y1="338.9649" x2="203.3318" y2="338.83408" gradientUnits="userSpaceOnUse" id="color-112"><stop offset="0" stop-color="#4c4c4c"/><stop offset="1" stop-color="#2c2c2c"/></linearGradient><linearGradient x1="268.96288" y1="366.5463" x2="268.5944" y2="317.89248" gradientUnits="userSpaceOnUse" id="color-113"><stop offset="0" stop-color="#767676"/><stop offset="1" stop-color="#ececec"/></linearGradient><linearGradient x1="278.27211" y1="344.28033" x2="260.99779" y2="344.41116" gradientUnits="userSpaceOnUse" id="color-114"><stop offset="0" stop-color="#4c4c4c"/><stop offset="1" stop-color="#2c2c2c"/></linearGradient><linearGradient x1="211.60209" y1="366.98071" x2="211.23362" y2="318.3269" gradientUnits="userSpaceOnUse" id="color-115"><stop offset="0" stop-color="#767676"/><stop offset="1" stop-color="#ececec"/></linearGradient><linearGradient x1="201.95666" y1="344.8583" x2="219.23098" y2="344.72747" gradientUnits="userSpaceOnUse" id="color-116"><stop offset="0" stop-color="#4c4c4c"/><stop offset="1" stop-color="#2c2c2c"/></linearGradient><linearGradient x1="252.58741" y1="369.95054" x2="252.21893" y2="321.29676" gradientUnits="userSpaceOnUse" id="color-117"><stop offset="0" stop-color="#767676"/><stop offset="1" stop-color="#ececec"/></linearGradient><linearGradient x1="261.89664" y1="347.68458" x2="244.62235" y2="347.8154" gradientUnits="userSpaceOnUse" id="color-118"><stop offset="0" stop-color="#4c4c4c"/><stop offset="1" stop-color="#2c2c2c"/></linearGradient><linearGradient x1="228.02724" y1="370.13655" x2="227.65878" y2="321.48277" gradientUnits="userSpaceOnUse" id="color-119"><stop offset="0" stop-color="#767676"/><stop offset="1" stop-color="#ececec"/></linearGradient><linearGradient x1="218.38181" y1="348.01414" x2="235.65614" y2="347.88331" gradientUnits="userSpaceOnUse" id="color-120"><stop offset="0" stop-color="#4c4c4c"/><stop offset="1" stop-color="#2c2c2c"/></linearGradient><linearGradient x1="136.08744" y1="193.68268" x2="136.45591" y2="242.3365" gradientUnits="userSpaceOnUse" id="color-121"><stop offset="0" stop-color="#767676"/><stop offset="1" stop-color="#ececec"/></linearGradient><linearGradient x1="126.77821" y1="215.94865" x2="144.05253" y2="215.81782" gradientUnits="userSpaceOnUse" id="color-122"><stop offset="0" stop-color="#4c4c4c"/><stop offset="1" stop-color="#2c2c2c"/></linearGradient><linearGradient x1="344.39299" y1="193.19852" x2="344.76147" y2="241.85229" gradientUnits="userSpaceOnUse" id="color-123"><stop offset="0" stop-color="#767676"/><stop offset="1" stop-color="#ececec"/></linearGradient><linearGradient x1="354.0384" y1="215.32093" x2="336.76411" y2="215.45176" gradientUnits="userSpaceOnUse" id="color-124"><stop offset="0" stop-color="#4c4c4c"/><stop offset="1" stop-color="#2c2c2c"/></linearGradient><linearGradient x1="149.97742" y1="201.6448" x2="150.3459" y2="250.29862" gradientUnits="userSpaceOnUse" id="color-125"><stop offset="0" stop-color="#767676"/><stop offset="1" stop-color="#ececec"/></linearGradient><linearGradient x1="140.66819" y1="223.91077" x2="157.94249" y2="223.77994" gradientUnits="userSpaceOnUse" id="color-126"><stop offset="0" stop-color="#4c4c4c"/><stop offset="1" stop-color="#2c2c2c"/></linearGradient><linearGradient x1="330.6252" y1="201.37013" x2="330.99368" y2="250.02391" gradientUnits="userSpaceOnUse" id="color-127"><stop offset="0" stop-color="#767676"/><stop offset="1" stop-color="#ececec"/></linearGradient><linearGradient x1="340.27061" y1="223.49255" x2="322.99631" y2="223.62337" gradientUnits="userSpaceOnUse" id="color-128"><stop offset="0" stop-color="#4c4c4c"/><stop offset="1" stop-color="#2c2c2c"/></linearGradient><linearGradient x1="166.57505" y1="212.05394" x2="166.94353" y2="260.70776" gradientUnits="userSpaceOnUse" id="color-129"><stop offset="0" stop-color="#767676"/><stop offset="1" stop-color="#ececec"/></linearGradient><linearGradient x1="157.26582" y1="234.31991" x2="174.54011" y2="234.18908" gradientUnits="userSpaceOnUse" id="color-130"><stop offset="0" stop-color="#4c4c4c"/><stop offset="1" stop-color="#2c2c2c"/></linearGradient><linearGradient x1="314.17882" y1="210.93607" x2="314.5473" y2="259.58989" gradientUnits="userSpaceOnUse" id="color-131"><stop offset="0" stop-color="#767676"/><stop offset="1" stop-color="#ececec"/></linearGradient><linearGradient x1="323.82423" y1="233.05849" x2="306.54997" y2="233.18931" gradientUnits="userSpaceOnUse" id="color-132"><stop offset="0" stop-color="#4c4c4c"/><stop offset="1" stop-color="#2c2c2c"/></linearGradient><linearGradient x1="239.18407" y1="70.31172" x2="240.45166" y2="237.68465" gradientUnits="userSpaceOnUse" id="color-133"><stop offset="0" stop-color="#bdbdbd"/><stop offset="1" stop-color="#848484"/></linearGradient><linearGradient x1="239.30798" y1="86.67207" x2="240.57556" y2="254.04502" gradientUnits="userSpaceOnUse" id="color-134"><stop offset="0" stop-color="#717171"/><stop offset="1" stop-color="#a9a9a9"/></linearGradient><radialGradient cx="299.60045" cy="87.68498" r="124.51033" gradientUnits="userSpaceOnUse" id="color-135"><stop offset="0" stop-color="#af2e80"/><stop offset="1" stop-color="#892464"/></radialGradient><radialGradient cx="206.00391" cy="121.46599" r="18.56169" gradientUnits="userSpaceOnUse" id="color-136"><stop offset="0" stop-color="#ffffff"/><stop offset="1" stop-color="#d1d1d1"/></radialGradient><radialGradient cx="269.59648" cy="120.98438" r="18.56169" gradientUnits="userSpaceOnUse" id="color-137"><stop offset="0" stop-color="#ffffff"/><stop offset="1" stop-color="#d1d1d1"/></radialGradient><radialGradient cx="206.00391" cy="121.46599" r="10.17518" gradientUnits="userSpaceOnUse" id="color-138"><stop offset="0" stop-color="#ffffff"/><stop offset="1" stop-color="#ff0000"/></radialGradient><radialGradient cx="269.59648" cy="120.98438" r="10.17515" gradientUnits="userSpaceOnUse" id="color-139"><stop offset="0" stop-color="#ffffff"/><stop offset="1" stop-color="#ff0000"/></radialGradient><linearGradient x1="176.46496" y1="218.53953" x2="176.83344" y2="267.19331" gradientUnits="userSpaceOnUse" id="color-140"><stop offset="0" stop-color="#767676"/><stop offset="1" stop-color="#ececec"/></linearGradient><linearGradient x1="167.15569" y1="240.8055" x2="184.43002" y2="240.67467" gradientUnits="userSpaceOnUse" id="color-141"><stop offset="0" stop-color="#4c4c4c"/><stop offset="1" stop-color="#2c2c2c"/></linearGradient><linearGradient x1="300.5616" y1="217.59969" x2="300.93008" y2="266.25347" gradientUnits="userSpaceOnUse" id="color-142"><stop offset="0" stop-color="#767676"/><stop offset="1" stop-color="#ececec"/></linearGradient><linearGradient x1="310.20701" y1="239.72212" x2="292.93268" y2="239.85294" gradientUnits="userSpaceOnUse" id="color-143"><stop offset="0" stop-color="#4c4c4c"/><stop offset="1" stop-color="#2c2c2c"/></linearGradient><linearGradient x1="187.97416" y1="222.27932" x2="188.34264" y2="270.93314" gradientUnits="userSpaceOnUse" id="color-144"><stop offset="0" stop-color="#767676"/><stop offset="1" stop-color="#ececec"/></linearGradient><linearGradient x1="178.66493" y1="244.5453" x2="195.93921" y2="244.41447" gradientUnits="userSpaceOnUse" id="color-145"><stop offset="0" stop-color="#4c4c4c"/><stop offset="1" stop-color="#2c2c2c"/></linearGradient><linearGradient x1="289.11034" y1="221.51337" x2="289.47882" y2="270.16719" gradientUnits="userSpaceOnUse" id="color-146"><stop offset="0" stop-color="#767676"/><stop offset="1" stop-color="#ececec"/></linearGradient><linearGradient x1="298.75578" y1="243.6358" x2="281.48149" y2="243.76662" gradientUnits="userSpaceOnUse" id="color-147"><stop offset="0" stop-color="#4c4c4c"/><stop offset="1" stop-color="#2c2c2c"/></linearGradient><linearGradient x1="200.04497" y1="227.9847" x2="200.41343" y2="276.63848" gradientUnits="userSpaceOnUse" id="color-148"><stop offset="0" stop-color="#767676"/><stop offset="1" stop-color="#ececec"/></linearGradient><linearGradient x1="190.7357" y1="250.25067" x2="208.01002" y2="250.11984" gradientUnits="userSpaceOnUse" id="color-149"><stop offset="0" stop-color="#4c4c4c"/><stop offset="1" stop-color="#2c2c2c"/></linearGradient><linearGradient x1="277.12734" y1="227.40093" x2="277.49581" y2="276.05471" gradientUnits="userSpaceOnUse" id="color-150"><stop offset="0" stop-color="#767676"/><stop offset="1" stop-color="#ececec"/></linearGradient><linearGradient x1="286.7728" y1="249.52334" x2="269.49847" y2="249.65417" gradientUnits="userSpaceOnUse" id="color-151"><stop offset="0" stop-color="#4c4c4c"/><stop offset="1" stop-color="#2c2c2c"/></linearGradient><linearGradient x1="214.04971" y1="230.13484" x2="214.41819" y2="278.78858" gradientUnits="userSpaceOnUse" id="color-152"><stop offset="0" stop-color="#767676"/><stop offset="1" stop-color="#ececec"/></linearGradient><linearGradient x1="204.74048" y1="252.40077" x2="222.01478" y2="252.26994" gradientUnits="userSpaceOnUse" id="color-153"><stop offset="0" stop-color="#4c4c4c"/><stop offset="1" stop-color="#2c2c2c"/></linearGradient><linearGradient x1="263.15682" y1="229.76292" x2="263.52529" y2="278.41667" gradientUnits="userSpaceOnUse" id="color-154"><stop offset="0" stop-color="#767676"/><stop offset="1" stop-color="#ececec"/></linearGradient><linearGradient x1="272.80219" y1="251.88531" x2="255.52791" y2="252.01614" gradientUnits="userSpaceOnUse" id="color-155"><stop offset="0" stop-color="#4c4c4c"/><stop offset="1" stop-color="#2c2c2c"/></linearGradient><linearGradient x1="248.4172" y1="232.6081" x2="248.78568" y2="281.2619" gradientUnits="userSpaceOnUse" id="color-156"><stop offset="0" stop-color="#767676"/><stop offset="1" stop-color="#ececec"/></linearGradient><linearGradient x1="258.0626" y1="254.73051" x2="240.78828" y2="254.86133" gradientUnits="userSpaceOnUse" id="color-157"><stop offset="0" stop-color="#4c4c4c"/><stop offset="1" stop-color="#2c2c2c"/></linearGradient><linearGradient x1="229.86633" y1="232.20186" x2="230.23479" y2="280.85568" gradientUnits="userSpaceOnUse" id="color-158"><stop offset="0" stop-color="#767676"/><stop offset="1" stop-color="#ececec"/></linearGradient><linearGradient x1="220.55709" y1="254.46783" x2="237.83141" y2="254.337" gradientUnits="userSpaceOnUse" id="color-159"><stop offset="0" stop-color="#4c4c4c"/><stop offset="1" stop-color="#2c2c2c"/></linearGradient><linearGradient x1="237.81631" y1="178.45855" x2="238.44171" y2="261.03788" gradientUnits="userSpaceOnUse" id="color-160"><stop offset="0" stop-color="#717171"/><stop offset="1" stop-color="#a9a9a9"/></linearGradient><linearGradient x1="236.61789" y1="146.75715" x2="237.40582" y2="250.79595" gradientUnits="userSpaceOnUse" id="color-161"><stop offset="0" stop-color="#bdbdbd"/><stop offset="1" stop-color="#848484"/></linearGradient><linearGradient x1="236.61789" y1="146.75715" x2="237.40582" y2="250.79595" gradientUnits="userSpaceOnUse" id="color-162"><stop offset="0" stop-color="#af2e80"/><stop offset="1" stop-color="#95276d"/></linearGradient><radialGradient cx="181.63747" cy="201.08385" r="9.2735" gradientUnits="userSpaceOnUse" id="color-163"><stop offset="0" stop-color="#5c1843"/><stop offset="1" stop-color="#9b2871"/></radialGradient><radialGradient cx="294.553" cy="200.22869" r="9.27347" gradientUnits="userSpaceOnUse" id="color-164"><stop offset="0" stop-color="#5c1843"/><stop offset="1" stop-color="#9b2871"/></radialGradient></defs><g transform="translate(202.20365,-70.31901)"><g data-paper-data="{&quot;isPaintingLayer&quot;:true}" fill-rule="nonzero" stroke-width="0" stroke-linecap="butt" stroke-linejoin="miter" stroke-miterlimit="10" stroke-dasharray="" stroke-dashoffset="0" style="mix-blend-mode: normal"><g><path d="M502.66088,421.69732c-11.93516,43.94252 -30.19065,90.96224 -55.77391,122.83272c-83.70655,104.27778 -218.17423,132.63352 -234.95085,81.40172c-9.06791,-27.69125 108.29551,-56.27707 179.11805,-129.10937c17.16943,-17.65664 32.44013,-37.12705 45.92651,-56.69824c47.82727,-69.40604 123.58666,-169.63196 131.63348,-165.17317c0.58638,0.32488 -50.92287,91.40774 -65.95328,146.7463z" fill="url(#color-1)" stroke="#000000"/><g stroke="none"><path d="M174.24397,642.91534l-7.15443,-19.72474l42.67125,-20.10213l68.39827,-0.51801l52.13797,24.74086l-10.99394,17.38982l-41.46756,-21.93726l-67.92184,0.5144z" fill="url(#color-2)"/><path d="M187.7819,634.98364c0.06722,8.87494 -7.44181,16.12675 -16.77184,16.19741c-9.33004,0.07066 -16.94803,-7.06662 -17.01524,-15.94153c-0.06722,-8.87494 7.44181,-16.12672 16.77184,-16.19737c9.33004,-0.07066 16.94803,7.06659 17.01524,15.94149z" fill="url(#color-3)"/><path d="M335.71279,635.09948c0.06722,8.87494 -7.44181,16.12675 -16.77184,16.19741c-9.33006,0.07066 -16.94803,-7.06662 -17.01524,-15.94153c-0.06722,-8.87494 7.44181,-16.12675 16.77184,-16.19741c9.33006,-0.07066 16.94803,7.06662 17.01524,15.94153z" fill="url(#color-4)"/></g></g><g stroke="none"><path d="M-57.11251,372.32756c-5.30295,8.64591 -14.03259,13.11008 -24.88496,15.43918c-1.8145,-3.80497 -3.82438,-7.61053 -6.06236,-11.46148c-3.4938,-6.01184 -6.58266,-15.80706 -13.16769,-19.3914c-3.95276,-2.15159 -9.86437,-1.22336 -14.16676,-1.19077c-4.96074,0.23103 -13.87651,3.93522 -17.50433,7.8515c-2.00528,2.16474 -1.11218,5.92345 -2.63426,8.45137c-2.42418,4.02618 -9.27268,-4.01325 -9.75361,-4.22798c-2.64566,-1.18146 -5.93539,0.73998 -8.69103,-0.15543c-2.58543,-0.84014 -3.96461,-4.039 -6.56126,-4.84374c-8.76052,-2.71505 -11.92946,4.83854 -19.0438,5.69945c0,0 -0.93862,0.16376 -1.82931,0.78669c-5.83751,-14.79591 -5.48992,-48.13799 4.09222,-55.01924c11.14635,-8.00453 26.58413,-13.54135 44.01186,-15.11994c-0.40751,0.69946 -0.61408,1.63361 -0.35661,2.87208c0.82996,3.99236 4.82235,3.16242 4.82235,3.16242c7.08009,-1.51092 11.61092,1.86588 18.45673,3.8482c11.85493,3.43277 31.71832,4.30921 45.30606,-1.52293c3.01115,2.50997 5.58029,5.70037 7.65076,9.74964c3.31193,6.47721 4.39645,48.4197 0.31603,55.07236z" fill="#262626"/><g><g data-paper-data="{&quot;index&quot;:null}"><g><g><g><path d="M-160.54753,370.23833l-4.15307,0.01521l-0.18209,-49.83682l4.15307,-0.01518z" fill="url(#color-5)"/><path d="M-149.32098,373.83131l-4.15304,0.0152l-0.21056,-57.62382l4.15307,-0.01521z" fill="url(#color-6)"/><path d="M-137.63854,374.30774l-4.15307,0.01518l-0.21056,-57.62378l4.15311,-0.01521z" fill="url(#color-7)"/><path d="M-126.19953,379.19779l-4.15311,0.01521l-0.24753,-67.74695l4.15307,-0.01521z" fill="url(#color-8)"/><path d="M-115.03535,379.93576l-4.15311,0.01521l-0.24753,-67.74701l4.15311,-0.01518z" fill="url(#color-9)"/><path d="M-103.35485,379.89306l-4.15311,0.01521l-0.24753,-67.74701l4.15304,-0.0152z" fill="url(#color-10)"/><path d="M-91.93768,378.81303l-4.15307,0.01521l-0.24753,-67.74701l4.15304,-0.0152z" fill="url(#color-11)"/><path d="M-81.56545,375.91988l-4.15304,0.01518l-0.22574,-61.77693l4.15307,-0.01521z" fill="url(#color-12)"/><path d="M-73.02558,326.32085c0,0 -32.78031,-9.43235 -49.04115,-9.37294c-15.84554,0.05789 -51.03568,13.06119 -51.03568,13.06119l-0.46231,-12.87305c0,0 36.78377,-11.76308 52.70147,-11.82129c16.19456,-0.05916 48.20748,8.54541 48.20748,8.54541z" fill="url(#color-13)"/><path d="M-72.18541,376.57294c0,0 -31.94916,8.83829 -48.14372,8.89748c-15.91773,0.05812 -52.78652,-11.43587 -52.78652,-11.43587l0.36828,-12.87604c0,0 35.28422,12.74575 51.12976,12.68779c16.26078,-0.05944 48.97134,-9.7311 48.97134,-9.7311z" data-paper-data="{&quot;index&quot;:null}" fill="url(#color-14)"/><path d="M-44.35191,350.32987l-149.58976,0.56971l-0.03489,-9.55208l149.58976,-0.56971z" fill="url(#color-15)"/></g></g></g></g><path d="M-178.39394,345.16886c0.04979,6.57477 -5.23975,11.94504 -11.81452,11.99484c-6.57479,0.04979 -11.94504,-5.23975 -11.99484,-11.81452c-0.04979,-6.57477 5.23975,-11.94502 11.81452,-11.99481c6.57479,-0.04979 11.94504,5.23973 11.99484,11.81448z" fill="url(#color-16)"/></g><path d="M-57.11251,372.32756c-8.4403,13.76103 -25.56126,16.92866 -46.10553,17.75482c-5.88304,-6.51251 -15.29369,-13.45514 -22.36199,-15.37606c-4.55214,-1.23713 -10.35217,0.09305 -15.00353,-0.77632c-8.48865,-1.58663 -13.78491,-5.73115 -23.16411,-4.7777c-5.5322,0.56239 -10.34381,3.53607 -15.64009,4.10467c-7.83371,-11.52786 -8.51303,-51.39257 2.0681,-58.99128c11.90771,-8.55129 28.71307,-14.2862 47.61012,-15.38752l0.03541,0.19935c0.06189,3.29698 0.62619,6.65441 1.84167,9.7198c0.81275,4.42113 0.76033,7.97276 4.92487,11.1685c2.47861,1.902 6.43476,0.28728 9.215,1.71256c5.45553,2.79671 2.49383,7.56909 11.14904,7.84909c5.46782,0.17687 9.9574,-4.39599 15.51411,-3.45338c5.02523,0.85245 9.75533,6.13086 14.5997,4.54605c5.65932,-1.85141 7.66433,-8.9071 13.51342,-10.60365c0,0 1.17406,-0.40125 2.00559,-1.40871c1.55219,5.12465 2.49119,18.37766 2.43441,30.54362c-4.70323,1.80222 -12.09567,2.11132 -16.00972,4.09527c-2.80927,1.42396 -6.00466,10.24025 -7.80474,10.56041c-7.44193,1.32353 -11.41291,-5.46928 -18.05597,-7.26186c-10.47133,-2.8256 -17.12591,0.0682 -26.33546,-7.21352l-0.4834,-0.51113c0,0 -2.90514,-2.8615 -5.76664,0.04368c-2.8615,2.90518 0.04368,5.76662 0.04368,5.76662l1.16004,1.1076c5.05557,3.96835 9.31386,7.0635 15.90771,8.07384c5.64865,0.86547 11.17421,-1.15583 16.52426,1.83806c6.20907,3.47462 11.48524,8.79613 19.6433,5.87388c6.2284,-2.23104 4.18874,-9.42075 8.34518,-10.76677c3.96189,-1.28302 8.31472,-1.76194 12.60309,-2.95582c-0.35346,6.86248 -1.12558,12.43579 -2.40756,14.52585z" fill="url(#color-17)"/></g><g data-paper-data="{&quot;index&quot;:null}" stroke="none"><path d="M580.19419,293.46293c0.46878,2.40761 1.48756,3.68288 3.75115,4.08093c0.46171,2.14567 2.79084,2.90249 2.79084,2.90249l4.90551,1.59399c4.47175,1.45132 8.56754,3.02658 12.80815,5.05154c0.08569,0.08502 5.69821,5.44516 5.70135,6.18218c0.00606,1.42919 -2.58739,2.11379 -2.42781,3.53406c0.29958,2.66641 5.82817,9.18794 8.30379,10.22915c4.21188,1.77139 9.07586,-0.9336 13.38756,-0.62639c4.59719,0.32756 5.45961,4.11415 9.75598,5.44568c6.17189,1.91279 25.5188,-2.1526 29.20138,-7.72076c2.83388,16.67812 0.29097,40.01873 -6.31266,44.9792c-13.13337,9.86545 -32.05912,15.60256 -53.88408,15.76786c-21.1515,0.16019 -40.67185,0.5007 -54.10164,-6.21754c2.43691,-1.63462 5.51127,-2.86183 9.61138,-4.74331c4.61257,-6.11845 7.20663,-10.98657 1.32687,-17.84322c-6.8715,-8.01315 -11.73649,-4.02525 -19.39623,-3.56372c-3.00854,0.1813 -0.22723,-10.31696 -0.18385,-10.56525c0.55298,-3.16763 -1.65907,-6.36103 -1.30853,-9.5574c0.76723,-6.99565 2.70603,-13.87582 4.32514,-21.0692c0,0 0.88678,-3.98015 -3.09333,-4.86697c-0.02382,-0.0053 -0.04751,-0.01044 -0.07114,-0.01541c7.81533,-9.53633 19.99934,-12.22304 34.91024,-12.97788z" fill="#262626"/><g><g data-paper-data="{&quot;index&quot;:null}"><g><g><g><path d="M644.61645,314.30228l4.15283,-0.04773l0.57276,49.83389l-4.15283,0.0477z" fill="url(#color-18)"/><path d="M633.35611,310.27831l4.15283,-0.0477l0.6622,57.62041l-4.15275,0.0477z" fill="url(#color-19)"/><path d="M621.68225,310.93162l4.15283,-0.0477l0.66223,57.62037l-4.15283,0.04773z" fill="url(#color-20)"/><path d="M610.20231,305.87188l4.15283,-0.0477l0.77859,67.74292l-4.15286,0.0477z" fill="url(#color-21)"/><path d="M599.05055,306.77879l4.15283,-0.04773l0.77859,67.74298l-4.15286,0.0477z" fill="url(#color-22)"/><path d="M587.37075,306.91301l4.15283,-0.0477l0.77859,67.74298l-4.15283,0.0477z" fill="url(#color-23)"/><path d="M575.93856,306.00607l4.15279,-0.0477l0.77863,67.74298l-4.15283,0.0477z" fill="url(#color-24)"/><path d="M565.59228,309.24003l4.15283,-0.0477l0.70999,61.77325l-4.15283,0.04773z" fill="url(#color-25)"/><path d="M556.45365,309.09563c0,0 31.87892,-9.08843 48.07251,-9.27459c15.91678,-0.18293 52.8745,11.02171 52.8745,11.02171l-0.26729,12.87857c0,0 -35.38306,-12.46882 -51.22768,-12.2867c-16.25989,0.18689 -48.89357,10.11465 -48.89357,10.11465z" fill="url(#color-26)"/><path d="M557.2053,359.3451c0,0 32.85327,9.17512 49.11309,8.98827c15.8446,-0.18208 50.93176,-13.46075 50.93176,-13.46075l0.56325,12.86898c0,0 -36.69048,12.05112 -52.60726,12.23407c-16.19363,0.18609 -48.27296,-8.16728 -48.27296,-8.16728z" data-paper-data="{&quot;index&quot;:null}" fill="url(#color-27)"/><path d="M528.59559,336.43838l149.58123,-1.69605l0.10982,9.5515l-149.58123,1.69605z" fill="url(#color-28)"/></g></g></g></g><path d="M674.46839,326.80443c6.57473,-0.04979 11.94504,5.23973 11.99484,11.81448c0.04979,6.57477 -5.23975,11.94504 -11.81452,11.99484c-6.57473,0.04979 -11.94504,-5.23975 -11.99484,-11.81452c-0.04979,-6.57477 5.23973,-11.94502 11.81452,-11.99481z" fill="url(#color-29)"/></g><path d="M541.27963,312.72091c10.64398,-21.61834 35.6494,-19.3406 66.20094,-19.57199c21.24104,-0.16086 40.37876,5.55101 53.63114,14.76699c2.61371,1.81762 4.58416,5.57228 5.95789,10.37857c-5.64296,1.18702 -11.42932,5.13188 -16.93954,3.97505c-4.98805,-1.0472 -9.19221,-5.7234 -14.84956,-2.7929c-3.87316,2.00628 -6.68394,9.30022 -4.73099,13.28532c0.83062,1.69499 3.71435,0.95727 5.31152,1.96325c2.30025,1.44881 2.66153,5.00827 4.94256,6.48714c6.83264,4.42985 13.18635,8.46289 21.83145,6.63203c2.01569,-1.53575 4.31051,-2.64306 6.72842,-3.49567c-0.6298,11.36171 -3.17193,21.66232 -7.30409,24.76627c-13.13337,9.86545 -32.05912,15.60256 -53.88408,15.76786c-29.05942,0.22008 -55.04005,0.78049 -66.37756,-17.09104c-1.05708,-1.6663 -1.81819,-5.59349 -2.31344,-10.63717c1.95339,-0.582 3.8402,-1.02992 4.83731,-0.81988c3.39543,0.71525 6.51874,5.59954 10.78232,6.47036c3.02134,0.61709 11.42209,0.67309 14.29242,-0.24395c3.40789,-1.08876 2.56366,-3.26503 5.7737,-3.10461c3.67268,0.18355 5.85511,5.0813 9.72466,6.75145l2.82958,2.13266c0,0 3.28063,2.42187 5.70249,-0.85876c2.42187,-3.28063 -0.85876,-5.70249 -0.85876,-5.70249l-3.73168,-2.71111c-6.54634,-2.19712 -4.63726,-6.93717 -13.22121,-7.75507c-6.84504,-0.65223 -11.30126,4.80263 -19.02968,3.47211c-4.28982,-0.73855 -6.38471,-5.52549 -10.52015,-6.41747c-0.33892,-0.07312 -0.7097,-0.11507 -1.10622,-0.13063c-0.09721,-2.32058 -1.24752,-4.57247 -1.11577,-8.58974c0.05001,-1.52456 2.31571,-2.44165 2.28182,-3.96667c-0.03175,-1.42695 -0.81687,-2.68637 -1.57309,-3.95222c8.16909,-0.88759 16.11997,-3.76508 24.07705,-6.23826c3.01964,3.01961 7.73956,4.99484 12.72946,5.36509c2.80156,0.20786 11.18519,-2.51368 12.62031,-4.21872c1.31074,-1.55729 0.41524,-4.05083 0.70393,-6.06572c0.84865,-5.92307 3.70596,-9.28589 9.71255,-10.34145c0,0 0.20302,-0.04221 0.50795,-0.15336c0.81005,0.81322 2.11222,1.47151 4.06464,0.80423c3.85863,-1.31877 2.53985,-5.17734 2.53985,-5.17734l-2.27081,-4.40225c-6.65801,-4.70958 -11.12037,-3.81395 -18.6947,-2.23833c-7.4543,1.33377 -16.74473,4.22203 -21.7879,10.41626c-2.49767,3.06775 -3.53126,6.00907 -3.4753,8.67712c-8.32194,2.7215 -16.73307,5.67072 -25.19499,5.6891c0,0 -0.29796,0.00225 -0.73216,0.08609c0.4288,-5.32821 1.08266,-9.49393 1.9276,-11.21009zM587.05958,344.71886c1.05386,3.01235 1.09694,6.60347 3.16158,9.037c1.03925,1.22495 3.28249,-0.15451 4.80618,0.35432c4.46696,1.49178 2.16156,7.93086 8.88941,9.92892c1.93824,0.57564 5.55267,-3.42916 5.89331,-1.43613c0.9672,5.6593 5.84117,11.84227 13.42242,6.53919c2.57583,-1.80176 5.04731,-4.72078 5.21077,-7.85998c0.07524,-1.44498 -6.41429,-7.95711 -7.99494,-9.31918c-3.38492,-2.91685 -6.59263,-5.74705 -9.76151,-7.15386c-0.79482,-1.3737 -2.28986,-1.75326 -3.07318,-1.85808c-7.63623,-4.91406 -12.67276,-2.96512 -20.554,1.76782z" fill="url(#color-30)"/></g><g stroke="none"><path d="M114.83749,375.93145c-12.98261,21.16683 -43.47078,20.97103 -77.56477,21.22923c-25.60609,0.19393 -47.91014,-6.20006 -63.49237,-17.53996c-0.15001,-0.1092 -0.29842,-0.22626 -0.44515,-0.35111c1.42853,-2.68658 3.13419,-5.50865 5.09558,-8.78551c-1.5174,-8.63439 4.64755,-7.042 5.65689,-16.07669c0.56784,-5.08254 -3.30461,-9.80885 -4.19656,-14.45917c-0.40435,-2.1081 2.31603,-3.93731 2.88389,-5.32469c2.34522,-5.7296 0.47782,-8.50821 -1.41162,-12.49509c-0.24759,-0.52241 1.29524,0.57476 1.72423,0.18722c2.17885,-1.96845 5.33897,-3.87705 5.59763,-6.80202c0.18249,-2.06374 -3.4296,-2.45813 -4.62937,-4.14712c-0.48562,-0.68362 1.84325,-8.57326 2.00979,-9.4399c0,0 0.1144,-0.59548 0.02537,-1.37127c14.02828,-6.78995 31.45712,-10.87816 50.36667,-11.02137c35.84455,-0.27147 65.13831,-3.38785 78.00908,21.78377c3.88569,7.59933 5.15814,56.8084 0.37082,64.61363z" fill="#262626"/><g><g data-paper-data="{&quot;index&quot;:null}"><g><g><g><path d="M-6.51753,373.48026l-4.87259,0.01778l-0.21366,-58.47098l4.87259,-0.01782z" fill="url(#color-31)"/><path d="M6.65401,377.69569l-4.87255,0.01778l-0.24706,-67.60713l4.87259,-0.01782z" fill="url(#color-32)"/><path d="M20.3604,378.25466l-4.87259,0.01782l-0.24706,-67.60705l4.87261,-0.01782z" fill="url(#color-33)"/><path d="M33.78125,383.99192l-4.87259,0.01782l-0.29046,-79.48407l4.87259,-0.01782z" fill="url(#color-34)"/><path d="M46.87964,384.85774l-4.87259,0.01782l-0.29046,-79.4841l4.87259,-0.01782z" fill="url(#color-35)"/><path d="M60.58373,384.80765l-4.87259,0.01785l-0.29042,-79.4841l4.87259,-0.01785z" fill="url(#color-36)"/><path d="M73.97891,383.54056l-4.87261,0.01782l-0.29042,-79.48407l4.87259,-0.01782z" fill="url(#color-37)"/><path d="M86.14812,380.14611l-4.87259,0.01782l-0.26481,-72.4797l4.87259,-0.01778z" fill="url(#color-38)"/><path d="M96.16752,321.95413c0,0 -38.45948,-11.06651 -57.53746,-10.9968c-18.59078,0.06795 -59.87761,15.32403 -59.87761,15.32403l-0.54243,-15.10328c0,0 43.15652,-13.80103 61.83202,-13.8693c19.00031,-0.06942 56.55938,10.02585 56.55938,10.02585z" fill="url(#color-39)"/><path d="M97.15326,380.91233c0,0 -37.48433,10.36958 -56.48462,10.43899c-18.6755,0.0682 -61.93169,-13.41709 -61.93169,-13.41709l0.43203,-15.10681c0,0 41.39722,14.95392 59.98798,14.88598c19.07795,-0.06972 57.4556,-11.41705 57.4556,-11.41705z" data-paper-data="{&quot;index&quot;:null}" fill="url(#color-40)"/><path d="M129.80889,350.12265l-175.506,0.66841l-0.04097,-11.20692l175.50603,-0.66844z" fill="url(#color-41)"/></g></g></g></g><path d="M-27.45579,344.06753c0.05842,7.71383 -6.14754,14.0145 -13.86136,14.07292c-7.71385,0.05842 -14.0145,-6.14754 -14.07292,-13.86136c-0.05842,-7.71383 6.1475,-14.0145 13.86136,-14.07292c7.71385,-0.05842 14.0145,6.1475 14.07292,13.86136z" fill="url(#color-42)"/></g><path d="M114.83749,375.93145c-12.98261,21.16683 -43.47078,20.97103 -77.56477,21.22923c-25.60609,0.19393 -47.91014,-6.20006 -63.49237,-17.53996c-3.54877,-2.58259 -6.18721,-9.60345 -7.73059,-18.33498c9.78625,-1.61552 21.32098,0.36686 31.20408,1.66628c4.13923,0.54421 5.74363,4.4428 10.61645,5.623l3.07868,0.74968c0,0 3.96338,0.95904 4.92239,-3.00433c0.95901,-3.96338 -3.00436,-4.92239 -3.00436,-4.92239l-3.45787,-0.83196c-4.87288,-0.4437 -4.8745,-4.33201 -10.67368,-5.63377c-5.60663,-1.25854 -12.26144,0.30628 -17.94773,-0.67965c-6.34024,-1.09933 -9.82213,-2.00261 -15.81183,-1.0563c-0.15827,-1.70442 -0.27955,-3.43803 -0.36279,-5.18511c8.26256,0.03405 18.28884,1.5681 22.53633,-4.32171c5.24234,-7.26929 -0.21072,-9.89214 -4.20403,-13.46385c-1.54275,-1.37988 4.154,-2.02078 4.746,-4.00409c2.84489,-9.53083 -6.31851,-15.24722 -13.73899,-16.76801c0,0 -0.95489,-0.18348 -2.02174,0.09508c0.58758,-0.67987 1.21197,-1.26287 1.87394,-1.73828c15.38275,-11.04689 37.73198,-18.08761 62.65303,-18.27635c35.84455,-0.27147 65.13831,-3.38785 78.00908,21.78377c0.84476,1.65215 1.56602,5.27102 2.12837,10.00357c-1.08607,0.11744 -1.90523,0.61743 -1.90523,0.61743c-7.37465,4.73612 -6.45044,11.1755 -10.98527,16.75633c-1.70962,2.10398 -6.13165,-1.78573 -8.13292,0.04307c-1.81688,1.66027 -0.95847,4.82824 -1.43772,7.24234l0.01853,2.44657c0,0 0.03088,4.07763 4.10851,4.04675c4.07763,-0.03088 4.04675,-4.10851 4.04675,-4.10851l-0.01417,-1.8716c1.18261,0.59868 3.57189,0.90577 6.67376,-1.56839c4.95326,-3.95092 3.47478,-10.85985 8.40378,-14.95231c1.15128,17.38437 0.64209,40.78081 -2.53354,45.95836zM69.78049,345.87241c11.45898,3.23843 18.13962,-11.79438 11.02836,-19.52578c-4.2574,-4.62868 -16.83401,-3.5342 -22.87011,-5.89866c-7.44959,-2.83645 -14.68728,-8.05049 -23.03432,-2.89699c-3.98917,2.46297 -9.17187,11.84349 -6.50482,16.85426c1.10364,2.07353 4.14635,2.26273 5.97209,3.74066c2.24766,1.81952 2.85014,5.40862 5.38363,6.80289c8.46173,4.65681 11.79693,-2.42044 18.10292,-5.42743c1.12664,-0.53722 5.67789,1.59497 8.42801,2.70756c1.02034,1.45013 1.86697,3.18359 3.49423,3.64348zM67.43951,369.09224c-2.44418,0.64536 -9.71241,3.68344 -8.2743,7.50394l-2.26774,3.07179c-0.52179,0.69106 -0.82854,1.55309 -0.82148,2.48592c0.01705,2.25199 1.85649,4.0638 4.10851,4.04675c1.351,-0.01023 2.54361,-0.67635 3.27794,-1.69395l1.92131,-2.60262c3.01611,-1.20189 9.27678,5.72079 13.93667,4.95015c2.46751,-0.40808 5.1078,-1.30934 6.81633,-3.13579c1.54332,-1.64985 0.7793,-4.39335 1.12333,-6.6899c1.01038,-0.01019 2.02067,-0.01954 3.03091,-0.0272l2.44657,-0.01853c0,0 0.93779,-0.00711 1.91047,-0.46425c0.77791,0.20142 1.31448,0.35017 1.36685,0.36021c0,0 4.00451,0.76939 4.7739,-3.23509c0.76942,-4.00448 -3.23509,-4.7739 -3.23509,-4.7739c-4.68958,-0.90106 -9.66042,-2.86511 -13.97525,-0.27526c-5.51783,-0.32744 -11.51769,-0.72247 -16.13897,0.49772z" fill="url(#color-43)"/></g><g data-paper-data="{&quot;index&quot;:null}" stroke="none"><path d="M446.98435,286.42497c24.92108,-0.18874 47.37432,6.51266 62.92266,17.3253c1.02011,0.70943 1.95671,1.67031 2.81178,2.84446c-7.86565,3.6292 -9.7774,8.95971 -7.62896,17.47083c0.24306,0.96288 1.73679,1.4841 1.65957,2.47421c-0.19173,2.45831 -4.70389,2.27006 -5.94659,4.39977c-3.1091,5.32832 -0.68592,9.75735 0.31664,14.77821c0.68276,3.41955 -4.24938,6.99713 -3.99115,11.44823c0.62537,10.78 6.15037,13.20741 14.35878,18.00322c-0.15408,0.13642 -0.31017,0.26415 -0.46821,0.38286c-15.40867,11.5746 -37.61334,18.30567 -63.21943,18.4996c-34.09401,0.25821 -64.5757,0.91573 -77.87744,-20.052c-4.381,-6.90581 -4.42863,-46.91065 -1.70249,-60.83563c1.05771,0.55653 2.14894,0.54826 2.14894,0.54826c10.75355,-0.08145 21.36574,1.95268 31.88024,3.76282c5.86532,1.00976 9.34307,6.69878 15.52813,8.03251l3.24684,0.05462c0,0 4.07763,-0.03088 4.04675,-4.10851c-0.03088,-4.07763 -4.10851,-4.04675 -4.10851,-4.04675l-1.6463,0.09164c-6.11911,-0.94768 -9.20646,-6.7404 -15.58537,-8.0433c-10.34581,-2.11312 -21.58491,-3.85659 -32.27004,-3.90028c13.49782,-21.25362 41.59612,-18.87314 75.52415,-19.13009z" fill="#262626"/><g><g data-paper-data="{&quot;index&quot;:null}"><g><g><g><path d="M490.55402,311.24305l4.87229,-0.05598l0.67201,58.46754l-4.87229,0.05602z" fill="url(#color-44)"/><path d="M477.34282,306.52193l4.87229,-0.05598l0.77695,67.60314l-4.87226,0.05602z" fill="url(#color-45)"/><path d="M463.64647,307.28853l4.87229,-0.05598l0.77695,67.60304l-4.87229,0.05598z" fill="url(#color-46)"/><path d="M450.17765,301.35214l4.87229,-0.05598l0.91344,79.47935l-4.87229,0.05598z" fill="url(#color-47)"/><path d="M437.09385,302.41614l4.87229,-0.05598l0.91344,79.47939l-4.87229,0.05598z" fill="url(#color-48)"/><path d="M423.39057,302.57366l4.87229,-0.05595l0.91348,79.47939l-4.87229,0.05595z" fill="url(#color-49)"/><path d="M409.97773,301.50966l4.87229,-0.05598l0.91348,79.47935l-4.87229,0.05598z" fill="url(#color-50)"/><path d="M397.83891,305.30383l4.87229,-0.05602l0.833,72.47541l-4.87226,0.05598z" fill="url(#color-51)"/><path d="M387.11707,305.13438c0,0 37.40185,-10.66298 56.40104,-10.88135c18.67438,-0.21461 62.03502,12.9312 62.03502,12.9312l-0.31361,15.10977c0,0 -41.51317,-14.62901 -60.10285,-14.41536c-19.07689,0.21929 -57.3643,11.86701 -57.3643,11.86701z" fill="url(#color-52)"/><path d="M387.99891,364.08958c0,0 38.54511,10.76476 57.62189,10.54551c18.5897,-0.21363 59.75564,-15.79284 59.75564,-15.79284l0.66085,15.09854c0,0 -43.04702,14.1389 -61.72141,14.35356c-18.99915,0.21837 -56.63624,-9.58228 -56.63624,-9.58228z" data-paper-data="{&quot;index&quot;:null}" fill="url(#color-53)"/><path d="M354.43267,337.21422l175.49603,-1.98985l0.12878,11.20625l-175.49603,1.98988z" fill="url(#color-54)"/></g></g></g></g><path d="M525.57778,325.91126c7.71379,-0.05842 14.0145,6.1475 14.07292,13.86136c0.05842,7.71383 -6.14747,14.0145 -13.86136,14.07292c-7.71383,0.05842 -14.0145,-6.14754 -14.07292,-13.86136c-0.05842,-7.71383 6.14747,-14.0145 13.86136,-14.07292z" fill="url(#color-55)"/></g><path d="M446.98435,286.42497c24.92108,-0.18874 47.37432,6.51266 62.92266,17.3253c1.91975,1.33504 3.54372,3.56073 4.88528,6.42223c-0.03122,-0.00026 -0.06267,-0.00028 -0.09438,-0.00004c-4.07763,0.03088 -4.04675,4.10851 -4.04675,4.10851c0.17633,4.86841 3.4053,7.80895 3.35475,12.20817c-0.04683,4.07593 -2.8082,7.68928 -3.15267,11.85561c-0.59949,7.25128 4.4002,16.17467 1.99902,23.56432c-0.84014,2.58543 -4.13149,3.93775 -4.84374,6.56126c-0.80474,2.96408 -0.80731,6.21275 -0.48551,9.54773c-15.18564,10.06003 -35.99401,15.85384 -59.72355,16.03355c-31.12723,0.23574 -59.24342,0.80433 -74.02363,-15.05502c1.67569,-2.3114 7.62364,-4.31179 9.70411,-7.04131c2.72311,-2.07472 6.26117,-4.17466 6.80674,-8.10934c0.61789,-4.45636 -3.87837,-7.73566 -3.34038,-12.34113c0.49061,-4.20026 2.67768,-8.26705 3.13169,-11.96314c0.61703,-5.02308 -2.9408,-10.38593 -5.68752,-15.53031c9.312,3.36378 19.6498,5.52548 29.64478,2.25023c11.09025,-3.63411 11.84632,-17.99266 1.48266,-23.78c-5.55768,-3.10357 -10.71981,1.36291 -15.30856,2.9969c-4.05248,1.44301 -7.64728,-3.10409 -9.93365,-5.40294c0,0 -2.63139,-2.59179 -5.35216,-0.33779l-3.22627,0.10316c-1.24463,0.40038 -2.33023,0.89452 -3.26695,1.4656c-0.81728,-0.51731 -1.71022,-0.93771 -2.65958,-1.27078c14.66797,-15.29919 40.56167,-13.37863 71.2136,-13.61077zM401.28319,361.21809l-0.09132,-0.55275c2.38684,5.40789 5.31769,7.20664 9.0404,11.65382c8.57151,2.0173 14.85817,0.36834 23.28924,-1.24638c2.67785,-0.51285 9.44859,-1.17577 11.17473,-3.74486c1.803,-2.68348 3.13407,-6.30269 2.29215,-9.42407c-0.57964,-2.14899 -3.90326,-2.15239 -5.74979,-3.39513c-4.82594,-3.24789 -9.89135,-7.76622 -15.51354,-9.19912c-10.64232,-2.71231 -11.70538,7.93846 -19.24883,9.6746c-0.96689,-0.66944 -3.11381,-1.68801 -5.23668,0.46725c-2.8615,2.90518 0.04368,5.76662 0.04368,5.76662zM458.72312,349.74388l2.32771,-0.30928c6.04043,-2.84645 7.21344,1.62712 12.71643,3.24836c8.53656,2.51494 17.98651,-4.05099 26.54146,-4.0696c0,0 4.07763,-0.03088 4.04675,-4.10851c-0.03088,-4.07763 -4.10851,-4.04675 -4.10851,-4.04675c-6.35087,0.07621 -18.20117,6.6837 -23.95934,4.46856c-7.3918,-2.84358 -9.80842,-6.2232 -18.32294,-3.04112l0.69667,-0.29692c0,0 -4.07763,0.03088 -4.04675,4.10851c0.03088,4.07763 4.10851,4.04675 4.10851,4.04675z" fill="url(#color-56)"/></g><path d="M123.23221,417.71945c5.15196,-17.91642 10.80153,-32.63843 17.29985,-44.6771c20.7381,-38.4191 -100.39136,-68.60468 99.43285,-66.68008c209.95439,2.02216 81.0535,21.78639 103.76628,67.55225c6.19578,12.48437 11.85595,27.97421 17.26266,47.17241c15.49139,55.00621 33.30722,120.65118 -23.0007,153.66151c-7.70108,2.09425 -15.27617,4.65839 -22.42543,6.92923c-12.64305,4.01582 -26.51661,4.23732 -38.93779,8.88633c-1.48193,-0.9092 -3.27763,-0.4458 -3.27763,-0.4458l-2.26787,0.711c-24.70258,0.18709 -54.70484,1.82903 -75.58436,-13.58495c-8.24098,-3.29229 -15.24969,-8.87367 -23.26198,-12.22519c-6.43267,-2.69076 -14.33667,1.29223 -20.40048,-1.47664c-2.59057,-1.18293 -4.23854,-4.07721 -6.93728,-4.98678c-6.46238,-2.17806 -13.46203,-2.83514 -20.20581,-5.47357c0,0 -2.41898,-0.9464 -4.15101,0.60211c-27.22352,-36.66847 -10.29764,-90.80352 2.6887,-135.9648z" data-paper-data="{&quot;index&quot;:null}" fill="#262626" stroke="none"/><g stroke="none"><path d="M197.08655,344.49816l38.03664,-140.74167l13.21522,3.8439l-37.25693,140.60613z" fill="url(#color-57)"/><path d="M271.31058,347.75032l-39.38228,-140.02567l13.15551,-4.0436l40.16395,140.14946z" data-paper-data="{&quot;index&quot;:null}" fill="url(#color-58)"/><g><path d="M195.47642,425.32157l-44.4065,-77.80443l8.36609,-4.77492l44.40644,77.80443z" fill="url(#color-59)"/><path d="M276.99719,418.63316l43.22292,-78.46808l8.43745,4.64766l-43.22295,78.46809z" data-paper-data="{&quot;index&quot;:null}" fill="url(#color-60)"/><path d="M231.06565,419.83183l-0.70047,-230.76138l20.04302,0.3718l1.74363,230.22992z" fill="url(#color-61)"/><path d="M131.92439,350.17932l-0.06566,-8.66926l217.69487,-1.6487l0.06566,8.66926z" fill="url(#color-62)"/><path d="M146.34036,345.73525c0.05842,7.71383 -6.14754,14.0145 -13.86136,14.07292c-7.71385,0.05842 -14.01447,-6.14754 -14.07289,-13.86136c-0.05842,-7.71383 6.1475,-14.0145 13.86133,-14.07292c7.71385,-0.05842 14.0145,6.1475 14.07292,13.86136z" fill="url(#color-63)"/><path d="M365.56255,343.6788c0.05842,7.71383 -6.14754,14.0145 -13.86139,14.07292c-7.71383,0.05842 -14.0145,-6.14754 -14.07292,-13.86136c-0.05842,-7.71383 6.1475,-14.0145 13.86136,-14.07292c7.71383,-0.05842 14.01454,6.1475 14.07295,13.86136z" fill="url(#color-64)"/><path d="M215.89808,610.01614l-1.44135,-190.31752l54.93509,-0.41605l1.44135,190.31752z" fill="url(#color-65)"/><path d="M193.87654,424.59034l-0.07985,-10.54311l92.66823,-0.70182l0.07985,10.54311z" fill="url(#color-66)"/><path d="M209.32783,432.59175l-0.03658,-4.83013l66.23618,-0.50164l0.03658,4.83013z" fill="url(#color-67)"/><path d="M209.24899,443.34414l-0.03658,-4.8302l66.23618,-0.50164l0.03658,4.8302z" fill="url(#color-68)"/><path d="M209.32868,453.86591l-0.03658,-4.83016l66.23618,-0.50164l0.03658,4.83016z" fill="url(#color-69)"/><path d="M209.24976,464.61836l-0.03658,-4.83016l66.23621,-0.50164l0.03658,4.83016z" fill="url(#color-70)"/><path d="M209.48804,474.90949l-0.03658,-4.83016l66.23618,-0.50164l0.03658,4.83016z" fill="url(#color-71)"/><path d="M209.40914,485.66188l-0.03658,-4.83013l66.23621,-0.50164l0.03658,4.83013z" fill="url(#color-72)"/><path d="M209.48885,496.18369l-0.03658,-4.8302l66.23618,-0.50164l0.03658,4.8302z" fill="url(#color-73)"/><path d="M209.40998,506.9361l-0.03658,-4.83013l66.23621,-0.50164l0.03658,4.83013z" fill="url(#color-74)"/><path d="M209.32822,517.29885l-0.03658,-4.83016l66.23618,-0.50164l0.03658,4.83016z" fill="url(#color-75)"/></g></g><g stroke="none"><path d="M123.23221,417.71945c5.15196,-17.91642 10.80153,-32.63843 17.29985,-44.6771c20.7381,-38.4191 -100.39136,-68.60468 99.43285,-66.68008c209.95439,2.02216 81.0535,21.78639 103.76628,67.55225c6.19578,12.48437 11.85595,27.97421 17.26266,47.17241c12.65462,44.93359 26.86038,96.96637 0.9451,132.50996c-1.77307,-0.61385 -3.51822,0.4513 -3.51822,0.4513c-2.60754,1.79296 -4.31718,4.70295 -5.87394,7.45803c-0.61836,1.09435 -10.35,0.16268 -11.2002,0.45516c-4.04982,1.3931 -6.70041,7.01263 -10.54007,8.23555c-2.96417,0.94408 -6.39462,-0.16153 -9.27836,1.00537c-4.66422,1.88739 -9.3569,9.17911 -15.54325,6.62389c-2.70503,-1.11727 -1.56193,-6.43687 -4.19598,-7.71256c-2.54272,-1.23147 -5.64544,0.23852 -8.46818,0.3578c-5.97396,2.99069 -12.23531,3.04183 -17.8171,6.16697c-4.09637,2.29349 -4.96835,6.88472 -8.26286,9.13891c-2.00321,1.37065 -4.96389,-0.31241 -7.26763,0.45189c-4.87652,1.6179 -7.48198,4.42082 -13.41073,3.22817c-3.24571,-0.65293 -6.37306,-2.91843 -9.64091,-2.38744c-1.69078,0.27474 -2.82347,2.03418 -4.45095,2.56857c-5.03906,1.65453 -13.90987,-0.04263 -19.30078,-0.00181c-2.97357,0.02252 -7.73333,0.91583 -10.57201,-0.38034c-4.38661,-2.00303 -6.29785,-5.64666 -11.54663,-6.71869c-2.1784,-0.44492 -5.03117,2.21705 -6.63558,0.67778c-1.78837,-1.71576 -2.46742,-4.30955 -3.9193,-6.31808c-5.17315,-7.15648 -6.89644,-17.23402 -11.08666,-25.03259c-1.25564,-2.33692 -1.86523,-6.08397 -4.47049,-6.58451c-2.90541,-0.55823 -5.50449,2.36577 -7.80502,4.226c-0.58224,0.47079 0.26272,2.83516 -0.18939,2.23829c-1.69036,-2.23165 -1.79916,-5.32054 -3.04496,-7.82786l-1.57584,-6.10645c-0.42582,-1.81273 -2.06002,-3.15599 -4.00058,-3.14129c-1.75028,0.01325 -3.23467,1.12734 -3.80118,2.68038l-1.56557,4.00153l0.74696,0.29225c-2.9174,5.18565 -4.26154,10.2755 -6.36565,16.98284c-0.27251,0.8687 -3.40303,5.82778 -5.22121,5.00331c-3.42212,-1.55183 -4.67684,-10.8158 -8.20448,-13.32538c-2.64443,-1.88127 -5.39208,-3.20987 -8.22036,-4.14472c-20.14217,-36.2906 -4.58397,-86.27613 7.54035,-128.43966zM195.35842,391.58757c-0.03088,-4.07763 -4.10851,-4.04675 -4.10851,-4.04675c-13.12591,0.30128 -13.31445,-19.92719 -29.94245,-14.24425c-10.50243,3.58943 -8.93795,11.51421 -10.58493,19.78625c-0.59706,2.99868 -7.17407,3.57842 -8.76597,7.84721c-1.40239,3.76065 0.83456,8.72791 3.8092,11.42247c7.76418,5.71663 25.01166,13.28444 33.91363,5.07338c2.05731,-1.89762 2.058,-5.3766 4.02204,-7.3706c4.84389,-4.91781 13.99507,-4.27063 13.28579,-14.12121c-0.08925,-1.23965 -0.88335,-2.24681 -1.73589,-3.23473c0.0717,-0.33235 0.11014,-0.70155 0.10704,-1.11169zM325.22677,442.41558l-1.89808,0.98057c-2.56644,1.85588 -4.85581,2.88256 -5.97501,4.59245c-2.43726,0.91663 -5.12639,1.78421 -6.47427,1.54629c-5.29557,-0.93473 -4.44766,-10.79271 -13.16394,-7.01177c-6.70026,2.90642 -3.15912,6.66581 -3.8128,10.64322c-0.40332,2.45421 -5.07026,1.58039 -6.54461,3.58344c-1.5445,2.09832 -1.63275,5.01796 -1.735,7.62142c-0.40369,10.27982 7.70413,8.95695 12.78886,14.20665c4.24688,4.38468 6.94959,7.84524 12.21354,11.42726c2.21884,-0.01681 4.54063,0.61771 6.65654,-0.05041c6.12462,-1.93391 5.0602,-7.48224 9.26724,-10.48899c5.65666,-4.04276 13.27287,-6.70023 12.06205,-15.93442c-0.75525,-5.75969 -10.07609,-9.29542 -11.85301,-11.52036c0.22345,-0.41522 0.37703,-0.90367 0.40243,-1.47329c0.12148,-0.06164 0.26013,-0.1217 0.41677,-0.18023l1.35164,-0.67519c0,0 3.63335,-1.8512 1.78215,-5.48451c-1.85116,-3.63331 -5.48451,-1.78215 -5.48451,-1.78215zM153.19691,452.39087c-11.24621,3.34743 -6.14721,26.07058 2.69672,30.40912c2.17925,1.06905 12.12121,0.19179 13.34509,-1.46225c1.3712,-1.85318 -0.90028,-4.53901 -1.01083,-6.84171c-0.14545,-3.03038 3.59229,-5.49862 3.22681,-8.51037c-0.60759,-5.00712 -3.40672,-6.35498 -6.73557,-7.65393c-1.88758,-4.18508 -6.33509,-7.48481 -11.52221,-5.94086z" data-paper-data="{&quot;index&quot;:null}" fill="url(#color-76)"/><path d="M239.5607,345.24094c132.97393,23.01097 144.98061,207.59594 2.94345,218.05412c-99.41945,-8.24167 -122.06473,-87.46261 -93.1048,-148.56103c8.65087,5.09601 22.58413,9.79042 30.28007,2.69176c2.05731,-1.89762 2.058,-5.3766 4.02204,-7.3706c4.84389,-4.91781 13.99507,-4.27063 13.28579,-14.12121c-0.08925,-1.23965 -0.88335,-2.24681 -1.73589,-3.23473c0.0717,-0.33235 0.11014,-0.70155 0.10704,-1.11169c-0.03088,-4.07763 -4.10851,-4.04675 -4.10851,-4.04675c-7.16992,0.16457 -10.47957,-5.7965 -14.71705,-10.31394c16.48233,-15.66882 37.77597,-27.33755 63.02785,-31.98592zM325.22677,442.41558l-1.89808,0.98057c-2.56644,1.85588 -4.85581,2.88256 -5.97501,4.59245c-2.43726,0.91663 -5.12639,1.78421 -6.47427,1.54629c-5.29557,-0.93473 -4.44766,-10.79271 -13.16394,-7.01177c-6.70026,2.90642 -3.15912,6.66581 -3.8128,10.64322c-0.40332,2.45421 -5.07026,1.58039 -6.54461,3.58344c-1.5445,2.09832 -1.63275,5.01796 -1.735,7.62142c-0.40369,10.27982 7.70413,8.95695 12.78886,14.20665c4.24688,4.38468 6.94959,7.84524 12.21354,11.42726c2.21884,-0.01681 4.54063,0.61771 6.65654,-0.05041c6.12462,-1.93391 5.0602,-7.48224 9.26724,-10.48899c5.65666,-4.04276 13.27287,-6.70023 12.06205,-15.93442c-0.75525,-5.75969 -10.07609,-9.29542 -11.85301,-11.52036c0.22345,-0.41522 0.37703,-0.90367 0.40243,-1.47329c0.12148,-0.06164 0.26013,-0.1217 0.41677,-0.18023l1.35164,-0.67519c0,0 3.63335,-1.8512 1.78215,-5.48451c-1.85116,-3.63331 -5.48451,-1.78215 -5.48451,-1.78215zM153.19691,452.39087c-11.24621,3.34743 -6.14721,26.07058 2.69672,30.40912c2.17925,1.06905 12.12121,0.19179 13.34509,-1.46225c1.3712,-1.85318 -0.90028,-4.53901 -1.01083,-6.84171c-0.14545,-3.03038 3.59229,-5.49862 3.22681,-8.51037c-0.60759,-5.00712 -3.40672,-6.35498 -6.73557,-7.65393c-1.88758,-4.18508 -6.33509,-7.48481 -11.52221,-5.94086z" data-paper-data="{&quot;index&quot;:null}" fill="url(#color-77)"/></g><g><g stroke="#000000"><path d="M240.4553,374.28004c-85.92294,0.21258 -93.26329,-25.58948 -110.6479,-74.45977c0.36728,-6.89048 11.31347,-16.92252 28.8819,-23.26259c18.55028,-6.69439 44.49186,-16.92442 75.71526,-17.16089c32.17522,-0.24368 62.47447,9.65616 84.19403,15.3247c8.87708,2.31678 31.82793,12.2087 33.10883,25.78426c-17.67768,48.73607 -34.37344,73.58413 -111.25212,73.77437z" fill="url(#color-78)"/><path d="M158.68926,276.55762c18.55028,-6.69439 44.49186,-16.92442 75.71526,-17.16089c32.17522,-0.24368 62.47447,9.65616 84.19403,15.3247c8.31962,2.17131 29.00099,10.99623 32.62003,23.27128c-4.24991,2.06864 -8.22141,5.25664 -10.02926,9.12659c-1.53667,3.28949 -0.89205,7.024 -2.21535,10.1836c-1.4706,3.51121 -4.31676,6.49496 -5.54882,10.23589c-2.61325,7.93463 -3.59056,14.01755 -11.41665,18.44326c-3.5274,2.86601 -8.32598,5.04365 -11.49425,8.23664c-2.58556,2.60583 -3.62391,6.07478 -7.34451,7.74252c-6.59353,2.95549 -13.78741,3.95032 -20.40079,6.77483c-2.70492,1.15524 -5.19681,2.31565 -7.61828,3.25298c-4.21913,0.63084 -8.70138,1.13175 -13.47036,1.50235c-1.47876,-0.36145 -3.01734,-0.92387 -4.64061,-1.72738c-13.30403,-5.56535 -23.51774,-1.66756 -36.90319,-1.13175c-1.89625,0.07585 -3.46405,-1.60576 -5.30509,-2.06618c-6.59421,-1.6491 -17.53874,-1.09301 -26.19809,0.86287c-7.53446,-1.87432 -13.87679,-4.28637 -19.3022,-7.22698c-1.70538,-5.181 -2.98136,-10.97844 -4.92514,-14.10253c-7.16658,-3.88706 -9.30372,-15.1195 -14.37733,-21.30562c-1.72623,-2.10477 -8.1355,-3.56315 -8.26527,-7.23165c-0.22199,-6.27577 0.73397,-8.8507 -1.95481,-15.13461c-1.31399,-3.07099 0.868,-6.81813 -0.08193,-10.02044c-0.49982,-1.68503 -2.36557,-2.60014 -3.54834,-3.90021c0,0 -0.24217,-0.23853 -0.64671,-0.48226c4.9591,-4.84154 12.93793,-9.77895 23.1576,-13.46705z" fill="url(#color-79)"/></g><path d="M238.83404,348.12645c-64.3298,0.15269 -69.90096,-29.14693 -82.92216,-66.46001c0.27422,-5.26065 47.81587,-21.9222 80.56174,-21.81419c32.74584,0.10808 84.61247,11.99766 85.57303,22.36233c-13.22967,37.20667 -25.65418,65.77526 -83.21257,65.91185z" fill="url(#color-80)" stroke="#000000"/><g><path d="M198.28907,290.67735l-0.0284,-3.74969l82.22549,-0.62273l0.0284,3.74969z" fill="url(#color-81)" stroke="none"/><path d="M224.02155,293.16096l-0.87628,-115.70493l5.35667,-0.04057l0.87628,115.70493z" fill="url(#color-82)" stroke="none"/><path d="M250.26942,292.96218l-0.87628,-115.70493l5.3567,-0.04057l0.87628,115.70493z" fill="url(#color-83)" stroke="none"/><g><path d="M190.98045,289.83248c-0.02277,-3.00557 8.82585,-6.39317 8.82585,-6.39317c0,0 7.37717,11.82864 40.83369,15.16118c32.32692,-3.64938 37.12826,-16.18749 37.12826,-16.18749c0,0 10.83427,3.32293 10.8597,6.67995c0.05794,7.65087 -20.52057,19.07786 -48.51152,19.28984c-27.99098,0.21199 -49.07806,-10.89942 -49.136,-18.55031z" fill="url(#color-84)" stroke="none"/><path d="M279.19233,290.74485c0,0 0.32064,-3.09413 0.44843,-5.49177c0.15364,-2.8831 -0.20236,-9.09817 -0.20236,-9.09817c0,0 3.3209,5.68382 4.24205,8.48046c0.8341,2.53236 1.57096,5.81064 1.57096,5.81064z" data-paper-data="{&quot;index&quot;:null}" fill="url(#color-85)" stroke="#000000"/><path d="M194.28628,291.1349c0,0 0.68708,-3.28906 1.48277,-5.83377c0.87871,-2.81027 4.11315,-8.54374 4.11315,-8.54374c0,0 -0.2618,6.21974 -0.06454,9.10025c0.16403,2.39544 0.53156,5.48435 0.53156,5.48435z" data-paper-data="{&quot;index&quot;:null}" fill="url(#color-86)" stroke="#000000"/><path d="M274.21734,295.30674c0,0 0.32064,-3.09413 0.44843,-5.49174c0.15364,-2.8831 -0.20236,-9.09819 -0.20236,-9.09819c0,0 3.32092,5.68386 4.24207,8.48048c0.8341,2.53234 1.57096,5.81064 1.57096,5.81064z" data-paper-data="{&quot;index&quot;:null}" fill="url(#color-87)" stroke="#000000"/><path d="M199.32982,295.62091c0,0 0.68712,-3.28909 1.4828,-5.83377c0.87871,-2.81027 4.11315,-8.54376 4.11315,-8.54376c0,0 -0.2618,6.21978 -0.06454,9.10028c0.16403,2.39544 0.53156,5.48435 0.53156,5.48435z" data-paper-data="{&quot;index&quot;:null}" fill="url(#color-88)" stroke="#000000"/><path d="M267.2874,298.97857c0,0 0.32064,-3.09417 0.44843,-5.49177c0.15364,-2.88314 -0.20234,-9.09819 -0.20234,-9.09819c0,0 3.3209,5.68382 4.24205,8.48048c0.8341,2.53236 1.57096,5.81064 1.57096,5.81064z" data-paper-data="{&quot;index&quot;:null}" fill="url(#color-89)" stroke="#000000"/><path d="M206.31451,299.18738c0,0 0.68712,-3.28909 1.48277,-5.83379c0.87871,-2.81027 4.11318,-8.54376 4.11318,-8.54376c0,0 -0.2618,6.21974 -0.06454,9.10025c0.16403,2.39544 0.53156,5.48435 0.53156,5.48435z" data-paper-data="{&quot;index&quot;:null}" fill="url(#color-90)" stroke="#000000"/><path d="M260.0724,301.74772c0,0 0.32064,-3.09417 0.44843,-5.49177c0.15364,-2.88314 -0.20236,-9.09817 -0.20236,-9.09817c0,0 3.32092,5.68382 4.24207,8.48046c0.8341,2.53236 1.57096,5.81067 1.57096,5.81067z" data-paper-data="{&quot;index&quot;:null}" fill="url(#color-91)" stroke="#000000"/><path d="M213.57066,301.84692c0,0 0.68712,-3.28909 1.48277,-5.83379c0.87871,-2.81027 4.11315,-8.54374 4.11315,-8.54374c0,0 -0.2618,6.21974 -0.06454,9.10022c0.16403,2.39544 0.53156,5.48435 0.53156,5.48435z" data-paper-data="{&quot;index&quot;:null}" fill="url(#color-92)" stroke="#000000"/><path d="M252.01703,303.79938c0,0 0.32067,-3.09417 0.44843,-5.49177c0.15364,-2.88314 -0.2024,-9.09819 -0.2024,-9.09819c0,0 3.32096,5.68379 4.24211,8.48042c0.8341,2.53236 1.57096,5.81067 1.57096,5.81067z" data-paper-data="{&quot;index&quot;:null}" fill="url(#color-93)" stroke="#000000"/><path d="M221.65617,303.77632c0,0 0.68708,-3.28909 1.48277,-5.83379c0.87871,-2.81027 4.11315,-8.54374 4.11315,-8.54374c0,0 -0.2618,6.21974 -0.06454,9.10022c0.16403,2.39544 0.53156,5.48435 0.53156,5.48435z" data-paper-data="{&quot;index&quot;:null}" fill="url(#color-94)" stroke="#000000"/><path d="M243.6765,304.94833c0,0 0.32067,-3.09417 0.44843,-5.49174c0.15364,-2.88314 -0.2024,-9.09819 -0.2024,-9.09819c0,0 3.32092,5.68382 4.24207,8.48046c0.8341,2.53236 1.57096,5.81067 1.57096,5.81067z" data-paper-data="{&quot;index&quot;:null}" fill="url(#color-95)" stroke="#000000"/><path d="M230.01316,304.79882c0,0 0.68712,-3.28913 1.48277,-5.83379c0.87871,-2.81027 4.11318,-8.54374 4.11318,-8.54374c0,0 -0.2618,6.21974 -0.06454,9.10025c0.16403,2.39544 0.53156,5.48431 0.53156,5.48431z" data-paper-data="{&quot;index&quot;:null}" fill="url(#color-96)" stroke="#000000"/></g></g><g data-paper-data="{&quot;index&quot;:null}"><path d="M317.25075,303.92759c0,0 0.60517,-9.3448 0.83698,-16.58692c0.2787,-8.70867 -0.47033,-27.48698 -0.47033,-27.48698c0,0 6.56935,17.19715 8.40125,25.65316c1.65876,7.65681 3.13254,17.56637 3.13254,17.56637z" data-paper-data="{&quot;index&quot;:null}" fill="url(#color-97)" stroke="#000000"/><path d="M331.50494,298.77888l0.09515,12.56313c0,0 -3.23568,2.52339 -8.82304,2.43576c-5.80698,-0.09105 -8.45125,-2.30493 -8.45125,-2.30493l-0.09515,-12.56313z" fill="url(#color-98)" stroke="none"/></g><g data-paper-data="{&quot;index&quot;:null}"><path d="M150.45925,304.42652c0,0 1.32352,-9.93077 2.86613,-17.6118c1.70366,-8.48275 8.01178,-25.77746 8.01178,-25.77746c0,0 -0.46453,18.78751 -0.05395,27.49096c0.34144,7.23777 1.08808,16.57234 1.08808,16.57234z" data-paper-data="{&quot;index&quot;:null}" fill="url(#color-99)" stroke="#000000"/><path d="M165.31506,300.03751l0.09515,12.56313c0,0 -2.61051,2.25366 -8.41538,2.43267c-5.58543,0.17228 -8.85892,-2.30185 -8.85892,-2.30185l-0.09515,-12.56313z" fill="url(#color-100)" stroke="none"/></g><g data-paper-data="{&quot;index&quot;:null}"><path d="M307.51409,317.66901c0,0 0.60515,-9.34477 0.83695,-16.58688c0.2787,-8.70867 -0.47033,-27.48702 -0.47033,-27.48702c0,0 6.56935,17.19715 8.40125,25.65318c1.65876,7.65681 3.13258,17.56637 3.13258,17.56637z" data-paper-data="{&quot;index&quot;:null}" fill="url(#color-101)" stroke="#000000"/><path d="M321.76826,312.52033l0.09515,12.56317c0,0 -3.23568,2.52335 -8.82308,2.43574c-5.80698,-0.09105 -8.45125,-2.30491 -8.45125,-2.30491l-0.09515,-12.56317z" fill="url(#color-102)" stroke="none"/></g><g data-paper-data="{&quot;index&quot;:null}"><path d="M160.40295,318.01892c0,0 1.32352,-9.93077 2.86613,-17.6118c1.70366,-8.48275 8.01178,-25.77748 8.01178,-25.77748c0,0 -0.46453,18.78755 -0.05395,27.491c0.34144,7.2378 1.08811,16.5723 1.08811,16.5723z" data-paper-data="{&quot;index&quot;:null}" fill="url(#color-103)" stroke="#000000"/><path d="M175.25879,313.62991l0.09515,12.56317c0,0 -2.61051,2.25366 -8.41538,2.43264c-5.58543,0.17228 -8.85892,-2.30181 -8.85892,-2.30181l-0.09515,-12.56317z" fill="url(#color-104)" stroke="none"/></g><g data-paper-data="{&quot;index&quot;:null}"><path d="M293.92997,328.7061c0,0 0.60517,-9.34478 0.83695,-16.58692c0.2787,-8.70867 -0.47033,-27.48702 -0.47033,-27.48702c0,0 6.56941,17.19715 8.40132,25.65316c1.65876,7.65681 3.13254,17.56637 3.13254,17.56637z" data-paper-data="{&quot;index&quot;:null}" fill="url(#color-105)" stroke="#000000"/><path d="M308.18417,323.55742l0.09515,12.5631c0,0 -3.23568,2.52339 -8.82304,2.43576c-5.80698,-0.09105 -8.45125,-2.30493 -8.45125,-2.30493l-0.09515,-12.5631z" fill="url(#color-106)" stroke="none"/></g><g data-paper-data="{&quot;index&quot;:null}"><path d="M174.15266,328.84893c0,0 1.32356,-9.93077 2.86617,-17.6118c1.70366,-8.48275 8.01175,-25.77746 8.01175,-25.77746c0,0 -0.46453,18.78755 -0.05395,27.491c0.34144,7.2378 1.08811,16.57234 1.08811,16.57234z" data-paper-data="{&quot;index&quot;:null}" fill="url(#color-107)" stroke="#000000"/><path d="M189.00853,324.45999l0.09515,12.5631c0,0 -2.61051,2.25369 -8.41538,2.43267c-5.58543,0.17228 -8.85892,-2.30185 -8.85892,-2.30185l-0.09515,-12.5631z" fill="url(#color-108)" stroke="none"/></g><g data-paper-data="{&quot;index&quot;:null}"><path d="M279.77847,337.01388c0,0 0.60515,-9.34477 0.83695,-16.58688c0.27874,-8.70867 -0.47033,-27.48702 -0.47033,-27.48702c0,0 6.56937,17.19715 8.40129,25.65318c1.65876,7.65681 3.13254,17.56637 3.13254,17.56637z" data-paper-data="{&quot;index&quot;:null}" fill="url(#color-109)" stroke="#000000"/><path d="M294.03265,331.8652l0.09515,12.56313c0,0 -3.23568,2.52335 -8.82308,2.43574c-5.80698,-0.09105 -8.45125,-2.30491 -8.45125,-2.30491l-0.09515,-12.56313z" fill="url(#color-110)" stroke="none"/></g><g data-paper-data="{&quot;index&quot;:null}"><path d="M188.42839,336.94147c0,0 1.32356,-9.93077 2.86617,-17.6118c1.70366,-8.48275 8.01178,-25.77748 8.01178,-25.77748c0,0 -0.46456,18.78755 -0.05395,27.491c0.34144,7.2378 1.08811,16.5723 1.08811,16.5723z" data-paper-data="{&quot;index&quot;:null}" fill="url(#color-111)" stroke="#000000"/><path d="M203.28422,332.55249l0.09515,12.56313c0,0 -2.61047,2.25366 -8.41534,2.43264c-5.58543,0.17228 -8.85892,-2.30181 -8.85892,-2.30181l-0.09515,-12.56313z" fill="url(#color-112)" stroke="none"/></g><g data-paper-data="{&quot;index&quot;:null}"><path d="M263.97037,343.14744c0,0 0.60517,-9.3448 0.83695,-16.58692c0.27874,-8.70867 -0.47033,-27.48702 -0.47033,-27.48702c0,0 6.56937,17.19715 8.40129,25.65318c1.6588,7.65681 3.13254,17.56637 3.13254,17.56637z" data-paper-data="{&quot;index&quot;:null}" fill="url(#color-113)" stroke="#000000"/><path d="M278.22454,337.99873l0.09515,12.56313c0,0 -3.23568,2.52339 -8.82304,2.43574c-5.80698,-0.09105 -8.45125,-2.30491 -8.45125,-2.30491l-0.09515,-12.56313z" fill="url(#color-114)" stroke="none"/></g><g data-paper-data="{&quot;index&quot;:null}"><path d="M204.32757,342.83485c0,0 1.3235,-9.93077 2.86613,-17.6118c1.70366,-8.48275 8.01178,-25.77748 8.01178,-25.77748c0,0 -0.46453,18.78755 -0.05395,27.491c0.34144,7.2378 1.08811,16.57234 1.08811,16.57234z" data-paper-data="{&quot;index&quot;:null}" fill="url(#color-115)" stroke="#000000"/><path d="M219.18341,338.44587l0.09515,12.56313c0,0 -2.61051,2.25366 -8.41538,2.43264c-5.58543,0.17228 -8.85892,-2.30181 -8.85892,-2.30181l-0.09515,-12.56313z" fill="url(#color-116)" stroke="none"/></g><g data-paper-data="{&quot;index&quot;:null}"><path d="M247.59487,346.55165c0,0 0.6052,-9.34478 0.83698,-16.58688c0.27874,-8.70867 -0.47033,-27.48702 -0.47033,-27.48702c0,0 6.56937,17.19715 8.40129,25.65318c1.6588,7.65681 3.13258,17.56637 3.13258,17.56637z" data-paper-data="{&quot;index&quot;:null}" fill="url(#color-117)" stroke="#000000"/><path d="M261.84907,341.40301l0.09515,12.56317c0,0 -3.23568,2.52335 -8.82304,2.43574c-5.80698,-0.09105 -8.45125,-2.30491 -8.45125,-2.30491l-0.09515,-12.56317z" fill="url(#color-118)" stroke="none"/></g><g data-paper-data="{&quot;index&quot;:null}"><path d="M220.75273,345.99069c0,0 1.32352,-9.93077 2.86617,-17.6118c1.70366,-8.48275 8.01175,-25.77748 8.01175,-25.77748c0,0 -0.46453,18.78755 -0.05395,27.491c0.34144,7.2378 1.08808,16.5723 1.08808,16.5723z" data-paper-data="{&quot;index&quot;:null}" fill="url(#color-119)" stroke="#000000"/><path d="M235.60857,341.60175l0.09515,12.56317c0,0 -2.61051,2.25366 -8.41538,2.43264c-5.58543,0.17228 -8.85892,-2.30181 -8.85892,-2.30181l-0.09515,-12.56317z" fill="url(#color-120)" stroke="none"/></g></g><g><g><g><path d="M141.07995,217.08154c0,0 -0.60517,9.34478 -0.83698,16.58692c-0.27874,8.70867 0.47033,27.48698 0.47033,27.48698c0,0 -6.56931,-17.19715 -8.40125,-25.65316c-1.6588,-7.65681 -3.13258,-17.56637 -3.13258,-17.56637z" data-paper-data="{&quot;index&quot;:null}" fill="url(#color-121)" stroke="#000000"/><path d="M126.82578,222.23025l-0.09515,-12.5631l17.27433,-0.13083l0.09515,12.5631z" fill="url(#color-122)" stroke="none"/></g><g data-paper-data="{&quot;index&quot;:null}"><path d="M351.66753,217.34439c0,0 -1.32353,9.93074 -2.86619,17.61177c-1.70368,8.48275 -8.01178,25.77748 -8.01178,25.77748c0,0 0.46453,-18.78758 0.05395,-27.49102c-0.34144,-7.2378 -1.08805,-16.57234 -1.08805,-16.57234z" data-paper-data="{&quot;index&quot;:null}" fill="url(#color-123)" stroke="#000000"/><path d="M336.81168,221.73333l-0.09515,-12.56313l17.27433,-0.13083l0.09515,12.56313z" fill="url(#color-124)" stroke="none"/></g><g><path d="M154.96997,225.04366c0,0 -0.60517,9.34478 -0.83698,16.58692c-0.27874,8.70867 0.47033,27.48698 0.47033,27.48698c0,0 -6.56937,-17.19715 -8.40129,-25.65316c-1.6588,-7.65681 -3.13254,-17.56637 -3.13254,-17.56637z" data-paper-data="{&quot;index&quot;:null}" fill="url(#color-125)" stroke="#000000"/><path d="M140.71577,230.19237l-0.09515,-12.56313l17.27433,-0.13083l0.09515,12.56313z" fill="url(#color-126)" stroke="none"/></g><g data-paper-data="{&quot;index&quot;:null}"><path d="M337.8997,225.51596c0,0 -1.32352,9.93077 -2.86613,17.6118c-1.70368,8.48275 -8.01178,25.77746 -8.01178,25.77746c0,0 0.46453,-18.78751 0.05395,-27.49096c-0.34144,-7.2378 -1.08808,-16.57234 -1.08808,-16.57234z" data-paper-data="{&quot;index&quot;:null}" fill="url(#color-127)" stroke="#000000"/><path d="M323.04388,229.90497l-0.09515,-12.56317l17.27433,-0.13083l0.09515,12.56317z" fill="url(#color-128)" stroke="none"/></g><g><path d="M171.5676,235.45283c0,0 -0.60515,9.34477 -0.83695,16.58688c-0.27874,8.70867 0.47033,27.48706 0.47033,27.48706c0,0 -6.56937,-17.19718 -8.40129,-25.65318c-1.6588,-7.65681 -3.13254,-17.56637 -3.13254,-17.56637z" data-paper-data="{&quot;index&quot;:null}" fill="url(#color-129)" stroke="#000000"/><path d="M157.31339,240.60151l-0.09515,-12.56317l17.27433,-0.13083l0.09515,12.56317z" fill="url(#color-130)" stroke="none"/></g><g data-paper-data="{&quot;index&quot;:null}"><path d="M321.45332,235.08194c0,0 -1.32352,9.93077 -2.86613,17.6118c-1.70368,8.48275 -8.01178,25.77748 -8.01178,25.77748c0,0 0.46453,-18.78758 0.05395,-27.49102c-0.34144,-7.2378 -1.08808,-16.5723 -1.08808,-16.5723z" data-paper-data="{&quot;index&quot;:null}" fill="url(#color-131)" stroke="#000000"/><path d="M306.59754,239.47092l-0.09515,-12.56317l17.27433,-0.13083l0.09515,12.56317z" fill="url(#color-132)" stroke="none"/></g><path d="M364.64277,195.06385c-1.17632,19.25357 -26.80458,25.18749 -36.72127,28.63978c-24.26324,8.44674 -58.14311,13.75889 -94.25267,14.03237c-35.04132,0.26538 -64.29141,-6.26329 -85.23594,-15.38885c-19.83606,-8.64259 -32.28907,-19.61389 -32.83367,-29.36674c18.56824,-69.55601 16.31212,-118.08774 122.61593,-122.66139c103.26224,5.50843 105.65385,56.053 126.42762,124.7448z" fill="url(#color-133)" stroke="#000000"/><path d="M358.8534,198.33926c-1.11461,19.2531 -20.5129,28.42232 -29.9653,31.87107c-23.12734,8.43814 -59.13839,19.01832 -93.56181,19.27903c-33.40506,0.25299 -63.82475,-10.20575 -83.79456,-19.33868c-18.91288,-8.64958 -29.56155,-22.91699 -30.08418,-32.67005c17.67665,-69.54926 12.82281,23.08357 114.16142,18.54756c98.44264,5.54493 103.41642,-86.38794 123.24446,-17.68898z" fill="url(#color-134)" stroke="#000000"/><path d="M233.66883,237.73601c-6.46718,0.04898 -12.73711,-0.13346 -18.79394,-0.52095c-7.09884,-7.12963 -13.9348,-13.90126 -22.37884,-20.13496c-5.27856,-2.96094 -5.19502,-4.0682 -11.42092,-3.10706c-2.3973,0.37012 -5.10467,3.82868 -6.92742,2.22825c-3.02439,-2.6555 -5.44855,-10.41199 -9.74279,-12.07922c-8.62511,-3.34863 -10.41473,7.10647 -18.59019,0.23533c-0.81649,-0.6862 0.16767,-2.19943 -0.22302,-3.1918c-0.73361,-1.86354 -5.30235,-8.8551 -7.12404,-9.76755c-7.20273,-3.6077 -15.24043,2.00716 -20.91355,5.46976c0,0 -1.12012,0.68365 -1.65904,1.90713c-0.14087,-0.62856 -0.23019,-1.26768 -0.26651,-1.91865c18.56824,-69.55598 16.28276,-121.96367 122.58658,-126.53728c26.24024,1.39976 45.96697,5.70762 61.1369,12.48243c-1.18451,2.59584 -2.40482,5.15374 -2.7192,8.00912c-0.37492,3.40491 2.81404,6.10703 -1.10691,8.02194c-1.58239,0.77279 -3.27288,-1.31318 -4.95823,-1.82385c-2.6038,-0.78897 -5.83056,1.65374 -8.15843,0.24545c-1.76738,-1.06924 -2.17355,-4.23638 -4.21655,-4.54114c-3.05314,-0.45548 -10.35252,5.22724 -14.2748,3.65575c-2.12282,-0.85048 -3.5591,-3.8704 -5.83157,-3.61387c-7.59418,0.8573 -5.06884,8.03462 -11.88162,9.15634c-1.71886,1.80623 -4.04518,3.18671 -5.15653,5.4187c-1.09288,2.19493 0.62513,4.97606 0.03457,7.35587c-0.45541,1.83535 -2.46787,-2.94872 -3.17089,-4.70425c-1.69507,-4.23306 -2.59174,-7.63168 -7.35829,-9.83804c-0.34228,-0.15844 -0.67399,-0.28155 -0.99702,-0.37521c0.05596,-1.46809 -0.85384,-2.66219 -0.85384,-2.66219c-2.14954,-2.57335 -5.36737,-4.13887 -8.45101,-5.45566c-2.86356,-1.22281 -4.60355,-4.73783 -7.65611,-5.35177c-7.85539,-1.57987 -15.09136,5.78624 -20.0125,10.79527c-9.44281,2.9087 -7.40211,14.14494 -13.68774,19.98672c-2.64926,3.57273 -8.46748,9.35443 -7.69699,14.30393c1.23449,7.93057 9.90174,5.54072 11.33308,13.0594c0.58834,3.09038 -1.46183,7.65523 0.88683,10.33131c4.97753,5.6714 13.25377,-0.92541 18.17642,2.40686c4.55113,3.08078 5.21456,10.0518 12.98002,9.07878c3.22755,-0.4044 10.47168,-8.63675 12.1601,-11.34311c1.11144,-1.7815 1.10453,-4.48582 2.88415,-5.60032c3.55011,-1.6606 6.98947,-4.91625 7.87056,-8.73524c0.21939,-0.95102 -0.98719,-1.95851 -0.61815,-2.86208c0.3658,-0.89575 3.54386,-1.55549 2.6542,-1.17505c-2.29669,0.98202 -1.78872,7.03389 -1.68632,7.26898c2.70892,6.22144 5.12926,3.29531 9.06022,5.93135c4.78715,3.21011 4.84222,13.13837 11.08045,15.811c7.92073,3.39341 10.15478,-3.06725 14.9499,-6.33045c2.87057,-1.9535 9.07863,-0.296 12.06882,-1.41615c3.9416,-1.47648 5.25618,-3.99478 7.49145,-7.02266c2.83202,-2.25716 5.38118,-5.40996 6.16584,-8.94547c0.56812,-2.55982 -1.12757,-5.37825 -0.28464,-7.86117c0.75294,-2.21782 7.49871,-3.18111 7.64713,-3.2651c2.20681,-1.24872 4.35874,-2.83428 5.80273,-4.91852c2.22574,-3.21263 2.18286,-9.45107 4.29734,-13.10851c2.65916,-4.59964 5.20774,-9.04759 7.91004,-13.34427c20.72005,20.395 27.43203,50.12795 37.54031,85.27441c-4.20556,3.07034 -8.42954,4.06324 -12.76514,7.0936c-1.19144,0.83275 -2.25302,3.9305 -3.26683,2.88884c-4.28949,-4.40756 -2.09848,-12.41643 -12.49136,-6.22005c-3.34547,1.99462 -5.12667,12.63514 -4.3248,15.95699c0.5417,2.244 4.16678,3.72897 3.54185,5.95129c-0.82261,2.92536 -3.64028,5.03178 -4.43544,7.96477c-0.71489,2.63694 -1.0037,4.27451 -1.10403,5.86179c-24.17384,8.2072 -57.53529,13.35133 -93.05412,13.62034z" fill="url(#color-135)" stroke="#000000"/><path d="M224.06342,121.32922c0.07763,10.25106 -7.94494,18.62239 -17.91898,18.69794c-9.97404,0.07553 -18.12248,-8.17336 -18.20012,-18.42438c-0.07763,-10.25106 7.94494,-18.62239 17.91898,-18.69794c9.97404,-0.07553 18.12248,8.17336 18.20012,18.42438z" fill="url(#color-136)" stroke="none"/><path d="M287.65596,120.8476c0.07763,10.25106 -7.9449,18.62239 -17.91894,18.69794c-9.97404,0.07553 -18.12248,-8.17336 -18.20012,-18.42438c-0.07763,-10.25106 7.94494,-18.62239 17.91898,-18.69794c9.97404,-0.07553 18.12245,8.17336 18.20009,18.42438z" fill="url(#color-137)" stroke="none"/><g stroke="none"><path d="M215.9038,121.39102c0.04255,5.61943 -4.35526,10.20846 -9.82283,10.24986c-5.46754,0.0414 -9.93439,-4.48049 -9.97695,-10.0999c-0.04255,-5.61943 4.35526,-10.20846 9.82283,-10.24986c5.46754,-0.0414 9.93439,4.48049 9.97695,10.0999z" fill="url(#color-138)"/><path d="M211.6908,121.42292c0.02444,3.22804 -2.50181,5.86418 -5.64262,5.88798c-3.14078,0.02379 -5.70671,-2.57379 -5.73115,-5.80183c-0.02444,-3.22804 2.50181,-5.86416 5.64262,-5.88794c3.14078,-0.02379 5.70671,2.57375 5.73115,5.8018z" fill="#ffffff"/></g><g stroke="none"><path d="M279.4963,120.9094c0.04255,5.61943 -4.35522,10.20846 -9.8228,10.24986c-5.46754,0.0414 -9.93439,-4.48049 -9.97695,-10.0999c-0.04255,-5.61943 4.35526,-10.20846 9.82283,-10.24986c5.46754,-0.0414 9.93436,4.48049 9.97691,10.0999z" fill="url(#color-139)"/><path d="M275.28333,120.94131c0.02444,3.22804 -2.50181,5.86418 -5.64262,5.88798c-3.14078,0.02379 -5.70671,-2.57379 -5.73115,-5.80183c-0.02444,-3.22804 2.50181,-5.86416 5.64262,-5.88794c3.14078,-0.02379 5.70671,2.57375 5.73115,5.8018z" fill="#ffffff"/></g></g><g><g><path d="M181.45744,241.93839c0,0 -0.60517,9.34478 -0.83698,16.58692c-0.27874,8.70867 0.47033,27.48702 0.47033,27.48702c0,0 -6.56935,-17.19718 -8.40125,-25.65318c-1.6588,-7.65681 -3.13254,-17.56637 -3.13254,-17.56637z" data-paper-data="{&quot;index&quot;:null}" fill="url(#color-140)" stroke="#000000"/><path d="M167.20326,247.0871l-0.09515,-12.56313l17.27429,-0.13083l0.09515,12.56313z" fill="url(#color-141)" stroke="none"/></g><g data-paper-data="{&quot;index&quot;:null}"><path d="M307.8361,241.74555c0,0 -1.32352,9.93077 -2.86617,17.6118c-1.70368,8.48275 -8.01178,25.77748 -8.01178,25.77748c0,0 0.46453,-18.78755 0.05395,-27.491c-0.34144,-7.2378 -1.08808,-16.57234 -1.08808,-16.57234z" data-paper-data="{&quot;index&quot;:null}" fill="url(#color-142)" stroke="#000000"/><path d="M292.98026,246.13454l-0.09515,-12.56313l17.27433,-0.13083l0.09515,12.56313z" fill="url(#color-143)" stroke="none"/></g><g><path d="M192.96666,245.67818c0,0 -0.60515,9.3448 -0.83692,16.58692c-0.27874,8.70867 0.47033,27.48698 0.47033,27.48698c0,0 -6.56937,-17.19715 -8.40129,-25.65316c-1.6588,-7.65681 -3.13258,-17.56637 -3.13258,-17.56637z" data-paper-data="{&quot;index&quot;:null}" fill="url(#color-144)" stroke="#000000"/><path d="M178.7125,250.82687l-0.09515,-12.5631l17.27433,-0.13083l0.09515,12.5631z" fill="url(#color-145)" stroke="none"/></g><g data-paper-data="{&quot;index&quot;:null}"><path d="M296.3848,245.65925c0,0 -1.32356,9.93077 -2.86617,17.6118c-1.70368,8.48275 -8.01175,25.77746 -8.01175,25.77746c0,0 0.46453,-18.78751 0.05395,-27.49096c-0.34144,-7.2378 -1.08811,-16.57234 -1.08811,-16.57234z" data-paper-data="{&quot;index&quot;:null}" fill="url(#color-146)" stroke="#000000"/><path d="M281.52906,250.04819l-0.09515,-12.5631l17.27433,-0.13083l0.09515,12.5631z" fill="url(#color-147)" stroke="none"/></g><g><path d="M205.03744,251.38356c0,0 -0.60515,9.34477 -0.83692,16.58692c-0.27874,8.70867 0.47033,27.48702 0.47033,27.48702c0,0 -6.56937,-17.19715 -8.40129,-25.65316c-1.6588,-7.65681 -3.13258,-17.56637 -3.13258,-17.56637z" data-paper-data="{&quot;index&quot;:null}" fill="url(#color-148)" stroke="#000000"/><path d="M190.78328,256.53227l-0.09515,-12.56317l17.27433,-0.13083l0.09515,12.56317z" fill="url(#color-149)" stroke="none"/></g><g data-paper-data="{&quot;index&quot;:null}"><path d="M284.40186,251.54676c0,0 -1.32352,9.93077 -2.86613,17.6118c-1.70366,8.48275 -8.01182,25.77746 -8.01182,25.77746c0,0 0.46453,-18.78755 0.05395,-27.491c-0.34148,-7.2378 -1.08805,-16.57234 -1.08805,-16.57234z" data-paper-data="{&quot;index&quot;:null}" fill="url(#color-150)" stroke="#000000"/><path d="M269.54604,255.93577l-0.09515,-12.56317l17.27433,-0.13083l0.09515,12.56317z" fill="url(#color-151)" stroke="none"/></g><g><path d="M219.04222,253.5337c0,0 -0.60517,9.34478 -0.83695,16.58688c-0.27874,8.70867 0.47033,27.48702 0.47033,27.48702c0,0 -6.56937,-17.19715 -8.40132,-25.65316c-1.6588,-7.65681 -3.13254,-17.56637 -3.13254,-17.56637z" data-paper-data="{&quot;index&quot;:null}" fill="url(#color-152)" stroke="#000000"/><path d="M204.78805,258.68237l-0.09515,-12.56313l17.27433,-0.13083l0.09515,12.56313z" fill="url(#color-153)" stroke="none"/></g><g data-paper-data="{&quot;index&quot;:null}"><path d="M270.43125,253.90879c0,0 -1.32352,9.93077 -2.86617,17.6118c-1.70366,8.48275 -8.01178,25.77746 -8.01178,25.77746c0,0 0.46453,-18.78755 0.05395,-27.491c-0.34148,-7.2378 -1.08808,-16.5723 -1.08808,-16.5723z" data-paper-data="{&quot;index&quot;:null}" fill="url(#color-154)" stroke="#000000"/><path d="M255.57548,258.29774l-0.09515,-12.56313l17.27433,-0.13083l0.09515,12.56313z" fill="url(#color-155)" stroke="none"/></g><g data-paper-data="{&quot;index&quot;:null}"><path d="M255.6917,256.75396c0,0 -1.32352,9.93077 -2.86617,17.6118c-1.70366,8.48275 -8.01175,25.77746 -8.01175,25.77746c0,0 0.46453,-18.78755 0.05395,-27.491c-0.34148,-7.2378 -1.08808,-16.57234 -1.08808,-16.57234z" data-paper-data="{&quot;index&quot;:null}" fill="url(#color-156)" stroke="#000000"/><path d="M240.83585,261.1429l-0.09515,-12.56313l17.27433,-0.13083l0.09515,12.56313z" fill="url(#color-157)" stroke="none"/></g><g data-paper-data="{&quot;index&quot;:null}"><path d="M234.8589,255.60072c0,0 -0.60517,9.34478 -0.83695,16.58692c-0.27874,8.70867 0.47033,27.48698 0.47033,27.48698c0,0 -6.56935,-17.19715 -8.40125,-25.65316c-1.6588,-7.65681 -3.13261,-17.56637 -3.13261,-17.56637z" data-paper-data="{&quot;index&quot;:null}" fill="url(#color-158)" stroke="#000000"/><path d="M220.60467,260.74943l-0.09515,-12.56317l17.27433,-0.13083l0.09515,12.56317z" fill="url(#color-159)" stroke="none"/></g><g><path d="M311.55557,233.44172c-0.70662,9.50037 -39.7752,25.8689 -76.35213,25.35336c-41.94341,-0.59122 -69.98147,-20.74191 -70.29514,-25.55347c10.98451,-34.33173 7.89909,11.37717 70.50125,9.04372c60.80385,2.64312 63.96272,-42.7205 76.14604,-8.84365z" fill="url(#color-160)" stroke="#000000"/><g><path d="M237.22731,250.45231c0,0 -80.58552,8.21908 -82.46545,-48.0145c-1.93617,-57.91607 43.32573,-55.42951 82.08411,-55.63812c47.91216,-0.8082 80.95926,2.99345 82.49906,55.99377c1.51316,52.08415 -82.11773,47.65886 -82.11773,47.65886z" fill="url(#color-161)" stroke="#000000"/><g><path d="M154.76187,202.43781c-1.93617,-57.91607 43.32573,-55.42951 82.08411,-55.63812c47.91216,-0.8082 80.95926,2.99345 82.49906,55.99377c0.18519,6.37412 -0.90486,11.9019 -2.96073,16.695c-1.80834,-1.49785 -4.1439,-0.30792 -4.1439,-0.30792c-7.14286,3.65014 -13.62965,2.87584 -21.33828,5.54108c-2.48698,0.85989 -5.22889,-2.24331 -7.75155,-1.49453c-3.13841,0.9315 -4.81015,4.54315 -7.67421,6.12895c-3.06693,1.69818 -5.87789,4.86816 -9.3817,4.75315c-1.58965,-0.05216 -2.95232,-1.71967 -4.52816,-1.50436c-5.82622,0.79595 -4.89119,3.23866 -8.6295,5.95274c-4.6978,3.41067 -7.48905,4.50423 -13.20375,4.53652c-4.58916,0.03475 -10.83131,-1.02437 -15.1921,-0.33456c-1.88364,0.29795 -3.70397,3.14523 -5.96824,1.85978c-1.56168,-0.88657 -2.51559,-2.90359 -4.27057,-3.28423c-3.45725,-0.74979 -6.70558,1.989 -10.15858,1.55671c-3.70451,-0.46373 -8.42899,-1.26994 -12.22825,-1.94055c-3.79422,-0.66973 -6.19543,-4.26315 -9.40459,-5.78974c-4.71622,-2.24342 -8.87955,-1.53245 -13.49155,-0.97849c-8.13132,-7.16765 -13.77596,-17.34245 -14.25746,-31.7453z" fill="url(#color-162)" stroke="#000000"/><path d="M177.21022,192.75277c3.01265,-0.02281 5.48629,4.11042 5.52508,9.23192c0.03879,5.12146 -2.37198,9.29173 -5.38463,9.31455c-3.01265,0.02281 -5.48629,-4.11042 -5.52508,-9.23192c-0.03879,-5.12146 2.37198,-9.29173 5.38463,-9.31455z" data-paper-data="{&quot;index&quot;:null}" fill="url(#color-163)" stroke="none"/><path d="M304.37861,201.06344c0.03879,5.12146 -2.37198,9.29173 -5.38463,9.31455c-3.01265,0.02281 -5.48629,-4.11042 -5.52508,-9.23192c-0.03879,-5.12146 2.37194,-9.29173 5.38463,-9.31455c3.01265,-0.02281 5.48629,4.11042 5.52508,9.23192z" data-paper-data="{&quot;index&quot;:null}" fill="url(#color-164)" stroke="none"/></g></g></g></g></g></g></g></svg>