<svg version="1.1" xmlns="http://www.w3.org/2000/svg" xmlns:xlink="http://www.w3.org/1999/xlink" width="600.6006" height="469" viewBox="0,0,600.6006,469"><defs><linearGradient x1="29.5" y1="176" x2="65.08879" y2="176" gradientUnits="userSpaceOnUse" id="color-1"><stop offset="0" stop-color="#892626"/><stop offset="1" stop-color="#5b1b1b"/></linearGradient><linearGradient x1="86.69626" y1="176" x2="122.28505" y2="176" gradientUnits="userSpaceOnUse" id="color-2"><stop offset="0" stop-color="#892626"/><stop offset="1" stop-color="#5b1b1b"/></linearGradient><linearGradient x1="58.09813" y1="176" x2="93.68692" y2="176" gradientUnits="userSpaceOnUse" id="color-3"><stop offset="0" stop-color="#892626"/><stop offset="1" stop-color="#5b1b1b"/></linearGradient><linearGradient x1="117.83645" y1="176" x2="153.42523" y2="176" gradientUnits="userSpaceOnUse" id="color-4"><stop offset="0" stop-color="#892626"/><stop offset="1" stop-color="#5b1b1b"/></linearGradient><linearGradient x1="143.89252" y1="176" x2="179.48131" y2="176" gradientUnits="userSpaceOnUse" id="color-5"><stop offset="0" stop-color="#892626"/><stop offset="1" stop-color="#5b1b1b"/></linearGradient><linearGradient x1="169.31308" y1="176" x2="204.90187" y2="176" gradientUnits="userSpaceOnUse" id="color-6"><stop offset="0" stop-color="#892626"/><stop offset="1" stop-color="#5b1b1b"/></linearGradient><linearGradient x1="197.91121" y1="176" x2="233.5" y2="176" gradientUnits="userSpaceOnUse" id="color-7"><stop offset="0" stop-color="#892626"/><stop offset="1" stop-color="#5b1b1b"/></linearGradient><linearGradient x1="243.5" y1="176" x2="279.08879" y2="176" gradientUnits="userSpaceOnUse" id="color-8"><stop offset="0" stop-color="#892626"/><stop offset="1" stop-color="#5b1b1b"/></linearGradient><linearGradient x1="300.69626" y1="176" x2="336.28505" y2="176" gradientUnits="userSpaceOnUse" id="color-9"><stop offset="0" stop-color="#892626"/><stop offset="1" stop-color="#5b1b1b"/></linearGradient><linearGradient x1="272.09813" y1="176" x2="307.68692" y2="176" gradientUnits="userSpaceOnUse" id="color-10"><stop offset="0" stop-color="#892626"/><stop offset="1" stop-color="#5b1b1b"/></linearGradient><linearGradient x1="331.83645" y1="176" x2="367.42523" y2="176" gradientUnits="userSpaceOnUse" id="color-11"><stop offset="0" stop-color="#892626"/><stop offset="1" stop-color="#5b1b1b"/></linearGradient><linearGradient x1="357.89252" y1="176" x2="393.48131" y2="176" gradientUnits="userSpaceOnUse" id="color-12"><stop offset="0" stop-color="#892626"/><stop offset="1" stop-color="#5b1b1b"/></linearGradient><linearGradient x1="383.31308" y1="176" x2="418.90187" y2="176" gradientUnits="userSpaceOnUse" id="color-13"><stop offset="0" stop-color="#892626"/><stop offset="1" stop-color="#5b1b1b"/></linearGradient><linearGradient x1="411.91121" y1="176" x2="447.5" y2="176" gradientUnits="userSpaceOnUse" id="color-14"><stop offset="0" stop-color="#892626"/><stop offset="1" stop-color="#5b1b1b"/></linearGradient><linearGradient x1="61.32135" y1="277.59761" x2="61.32135" y2="375.19521" gradientUnits="userSpaceOnUse" id="color-15"><stop offset="0" stop-color="#3f3110"/><stop offset="1" stop-color="#67491b"/></linearGradient><linearGradient x1="415.67573" y1="277.59761" x2="415.67573" y2="375.19521" gradientUnits="userSpaceOnUse" id="color-16"><stop offset="0" stop-color="#3f3110"/><stop offset="1" stop-color="#67491b"/></linearGradient><linearGradient x1="238.49854" y1="259.14716" x2="238.49854" y2="311.06307" gradientUnits="userSpaceOnUse" id="color-17"><stop offset="0" stop-color="#876923"/><stop offset="1" stop-color="#67491b"/></linearGradient><linearGradient x1="240.50005" y1="260.50001" x2="240.50005" y2="275.50001" gradientUnits="userSpaceOnUse" id="color-18"><stop offset="0" stop-color="#0e0e0e"/><stop offset="1" stop-color="#272727"/></linearGradient><linearGradient x1="240.50005" y1="218.00001" x2="240.50005" y2="269.50001" gradientUnits="userSpaceOnUse" id="color-19"><stop offset="0" stop-color="#0e0e0e"/><stop offset="1" stop-color="#404040"/></linearGradient><radialGradient cx="327.99852" cy="119.50001" r="125.5" gradientUnits="userSpaceOnUse" id="color-20"><stop offset="0" stop-color="#949494"/><stop offset="1" stop-color="#404040"/></radialGradient><radialGradient cx="335.24455" cy="139.5" r="118.62617" gradientUnits="userSpaceOnUse" id="color-21"><stop offset="0" stop-color="#2e2e2e"/><stop offset="1" stop-color="#000000"/></radialGradient><radialGradient cx="230.35021" cy="302.08851" r="4.35447" gradientUnits="userSpaceOnUse" id="color-22"><stop offset="0" stop-color="#7f7f7f"/><stop offset="1" stop-color="#3b3b3b"/></radialGradient><radialGradient cx="253.2252" cy="302.08851" r="4.35447" gradientUnits="userSpaceOnUse" id="color-23"><stop offset="0" stop-color="#7f7f7f"/><stop offset="1" stop-color="#3b3b3b"/></radialGradient><radialGradient cx="291.80852" cy="302.08851" r="9.18779" gradientUnits="userSpaceOnUse" id="color-24"><stop offset="0" stop-color="#7f7f7f"/><stop offset="1" stop-color="#3b3b3b"/></radialGradient><radialGradient cx="253.2252" cy="287.46731" r="4.35447" gradientUnits="userSpaceOnUse" id="color-25"><stop offset="0" stop-color="#7f7f7f"/><stop offset="1" stop-color="#3b3b3b"/></radialGradient><radialGradient cx="253.2252" cy="283.09914" r="4.35447" gradientUnits="userSpaceOnUse" id="color-26"><stop offset="0" stop-color="#7f7f7f"/><stop offset="1" stop-color="#3b3b3b"/></radialGradient><radialGradient cx="262.85017" cy="302.08851" r="4.35447" gradientUnits="userSpaceOnUse" id="color-27"><stop offset="0" stop-color="#7f7f7f"/><stop offset="1" stop-color="#3b3b3b"/></radialGradient><radialGradient cx="262.85017" cy="287.46731" r="4.35447" gradientUnits="userSpaceOnUse" id="color-28"><stop offset="0" stop-color="#7f7f7f"/><stop offset="1" stop-color="#3b3b3b"/></radialGradient><radialGradient cx="262.85017" cy="297.72036" r="4.35447" gradientUnits="userSpaceOnUse" id="color-29"><stop offset="0" stop-color="#7f7f7f"/><stop offset="1" stop-color="#3b3b3b"/></radialGradient><radialGradient cx="296.60017" cy="297.72036" r="4.35447" gradientUnits="userSpaceOnUse" id="color-30"><stop offset="0" stop-color="#7f7f7f"/><stop offset="1" stop-color="#3b3b3b"/></radialGradient><radialGradient cx="296.60017" cy="293.39264" r="4.35447" gradientUnits="userSpaceOnUse" id="color-31"><stop offset="0" stop-color="#7f7f7f"/><stop offset="1" stop-color="#3b3b3b"/></radialGradient><radialGradient cx="296.60017" cy="289.14581" r="4.35447" gradientUnits="userSpaceOnUse" id="color-32"><stop offset="0" stop-color="#7f7f7f"/><stop offset="1" stop-color="#3b3b3b"/></radialGradient><radialGradient cx="287.01687" cy="297.72036" r="4.35446" gradientUnits="userSpaceOnUse" id="color-33"><stop offset="0" stop-color="#7f7f7f"/><stop offset="1" stop-color="#3b3b3b"/></radialGradient><radialGradient cx="287.01687" cy="293.39264" r="4.35446" gradientUnits="userSpaceOnUse" id="color-34"><stop offset="0" stop-color="#7f7f7f"/><stop offset="1" stop-color="#3b3b3b"/></radialGradient><radialGradient cx="287.01687" cy="289.14581" r="4.35446" gradientUnits="userSpaceOnUse" id="color-35"><stop offset="0" stop-color="#7f7f7f"/><stop offset="1" stop-color="#3b3b3b"/></radialGradient><radialGradient cx="262.85017" cy="283.09914" r="4.35447" gradientUnits="userSpaceOnUse" id="color-36"><stop offset="0" stop-color="#7f7f7f"/><stop offset="1" stop-color="#3b3b3b"/></radialGradient><radialGradient cx="272.35017" cy="302.08851" r="4.35447" gradientUnits="userSpaceOnUse" id="color-37"><stop offset="0" stop-color="#7f7f7f"/><stop offset="1" stop-color="#3b3b3b"/></radialGradient><radialGradient cx="306.10017" cy="302.08851" r="4.35447" gradientUnits="userSpaceOnUse" id="color-38"><stop offset="0" stop-color="#7f7f7f"/><stop offset="1" stop-color="#3b3b3b"/></radialGradient><radialGradient cx="315.33806" cy="300.02531" r="8.4074" gradientUnits="userSpaceOnUse" id="color-39"><stop offset="0" stop-color="#7f7f7f"/><stop offset="1" stop-color="#3b3b3b"/></radialGradient><radialGradient cx="315.33806" cy="291.41033" r="8.4074" gradientUnits="userSpaceOnUse" id="color-40"><stop offset="0" stop-color="#7f7f7f"/><stop offset="1" stop-color="#3b3b3b"/></radialGradient><radialGradient cx="306.10017" cy="297.76079" r="4.35447" gradientUnits="userSpaceOnUse" id="color-41"><stop offset="0" stop-color="#7f7f7f"/><stop offset="1" stop-color="#3b3b3b"/></radialGradient><radialGradient cx="306.10017" cy="293.43307" r="4.35447" gradientUnits="userSpaceOnUse" id="color-42"><stop offset="0" stop-color="#7f7f7f"/><stop offset="1" stop-color="#3b3b3b"/></radialGradient><radialGradient cx="306.10017" cy="289.18625" r="4.35447" gradientUnits="userSpaceOnUse" id="color-43"><stop offset="0" stop-color="#7f7f7f"/><stop offset="1" stop-color="#3b3b3b"/></radialGradient><radialGradient cx="272.35017" cy="287.46731" r="4.35447" gradientUnits="userSpaceOnUse" id="color-44"><stop offset="0" stop-color="#7f7f7f"/><stop offset="1" stop-color="#3b3b3b"/></radialGradient><radialGradient cx="272.35017" cy="283.09914" r="4.35447" gradientUnits="userSpaceOnUse" id="color-45"><stop offset="0" stop-color="#7f7f7f"/><stop offset="1" stop-color="#3b3b3b"/></radialGradient><radialGradient cx="220.35021" cy="302.08851" r="4.35447" gradientUnits="userSpaceOnUse" id="color-46"><stop offset="0" stop-color="#7f7f7f"/><stop offset="1" stop-color="#3b3b3b"/></radialGradient><radialGradient cx="140.15016" cy="302.08851" r="4.35447" gradientUnits="userSpaceOnUse" id="color-47"><stop offset="0" stop-color="#7f7f7f"/><stop offset="1" stop-color="#3b3b3b"/></radialGradient><radialGradient cx="144.40016" cy="297.23501" r="8.60447" gradientUnits="userSpaceOnUse" id="color-48"><stop offset="0" stop-color="#7f7f7f"/><stop offset="1" stop-color="#3b3b3b"/></radialGradient><radialGradient cx="142.02516" cy="292.38149" r="6.22947" gradientUnits="userSpaceOnUse" id="color-49"><stop offset="0" stop-color="#7f7f7f"/><stop offset="1" stop-color="#3b3b3b"/></radialGradient><radialGradient cx="141.2252" cy="287.77065" r="5.42946" gradientUnits="userSpaceOnUse" id="color-50"><stop offset="0" stop-color="#7f7f7f"/><stop offset="1" stop-color="#3b3b3b"/></radialGradient><radialGradient cx="160.15016" cy="302.08851" r="4.35447" gradientUnits="userSpaceOnUse" id="color-51"><stop offset="0" stop-color="#7f7f7f"/><stop offset="1" stop-color="#3b3b3b"/></radialGradient><radialGradient cx="158.90016" cy="297.23501" r="4.35447" gradientUnits="userSpaceOnUse" id="color-52"><stop offset="0" stop-color="#7f7f7f"/><stop offset="1" stop-color="#3b3b3b"/></radialGradient><radialGradient cx="154.25018" cy="292.41459" r="4.35446" gradientUnits="userSpaceOnUse" id="color-53"><stop offset="0" stop-color="#7f7f7f"/><stop offset="1" stop-color="#3b3b3b"/></radialGradient><radialGradient cx="152.65016" cy="287.85227" r="4.35447" gradientUnits="userSpaceOnUse" id="color-54"><stop offset="0" stop-color="#7f7f7f"/><stop offset="1" stop-color="#3b3b3b"/></radialGradient><radialGradient cx="140.10852" cy="283.0392" r="4.35447" gradientUnits="userSpaceOnUse" id="color-55"><stop offset="0" stop-color="#7f7f7f"/><stop offset="1" stop-color="#3b3b3b"/></radialGradient><radialGradient cx="178.90022" cy="297.23501" r="4.35447" gradientUnits="userSpaceOnUse" id="color-56"><stop offset="0" stop-color="#7f7f7f"/><stop offset="1" stop-color="#3b3b3b"/></radialGradient><radialGradient cx="174.25022" cy="292.41459" r="4.35446" gradientUnits="userSpaceOnUse" id="color-57"><stop offset="0" stop-color="#7f7f7f"/><stop offset="1" stop-color="#3b3b3b"/></radialGradient><radialGradient cx="172.65022" cy="287.85227" r="4.35447" gradientUnits="userSpaceOnUse" id="color-58"><stop offset="0" stop-color="#7f7f7f"/><stop offset="1" stop-color="#3b3b3b"/></radialGradient><radialGradient cx="160.10852" cy="283.0392" r="4.35447" gradientUnits="userSpaceOnUse" id="color-59"><stop offset="0" stop-color="#7f7f7f"/><stop offset="1" stop-color="#3b3b3b"/></radialGradient><radialGradient cx="204.25022" cy="292.41459" r="4.35446" gradientUnits="userSpaceOnUse" id="color-60"><stop offset="0" stop-color="#7f7f7f"/><stop offset="1" stop-color="#3b3b3b"/></radialGradient><radialGradient cx="202.65022" cy="287.85227" r="4.35447" gradientUnits="userSpaceOnUse" id="color-61"><stop offset="0" stop-color="#7f7f7f"/><stop offset="1" stop-color="#3b3b3b"/></radialGradient><radialGradient cx="190.10854" cy="283.0392" r="4.35447" gradientUnits="userSpaceOnUse" id="color-62"><stop offset="0" stop-color="#7f7f7f"/><stop offset="1" stop-color="#3b3b3b"/></radialGradient><radialGradient cx="208.90022" cy="297.23501" r="4.35447" gradientUnits="userSpaceOnUse" id="color-63"><stop offset="0" stop-color="#7f7f7f"/><stop offset="1" stop-color="#3b3b3b"/></radialGradient><radialGradient cx="168.90022" cy="297.23501" r="4.35447" gradientUnits="userSpaceOnUse" id="color-64"><stop offset="0" stop-color="#7f7f7f"/><stop offset="1" stop-color="#3b3b3b"/></radialGradient><radialGradient cx="164.25018" cy="292.41459" r="4.35446" gradientUnits="userSpaceOnUse" id="color-65"><stop offset="0" stop-color="#7f7f7f"/><stop offset="1" stop-color="#3b3b3b"/></radialGradient><radialGradient cx="162.65016" cy="287.85227" r="4.35447" gradientUnits="userSpaceOnUse" id="color-66"><stop offset="0" stop-color="#7f7f7f"/><stop offset="1" stop-color="#3b3b3b"/></radialGradient><radialGradient cx="150.10852" cy="283.0392" r="4.35447" gradientUnits="userSpaceOnUse" id="color-67"><stop offset="0" stop-color="#7f7f7f"/><stop offset="1" stop-color="#3b3b3b"/></radialGradient><radialGradient cx="198.90022" cy="297.23501" r="4.35447" gradientUnits="userSpaceOnUse" id="color-68"><stop offset="0" stop-color="#7f7f7f"/><stop offset="1" stop-color="#3b3b3b"/></radialGradient><radialGradient cx="194.25022" cy="292.41459" r="4.35446" gradientUnits="userSpaceOnUse" id="color-69"><stop offset="0" stop-color="#7f7f7f"/><stop offset="1" stop-color="#3b3b3b"/></radialGradient><radialGradient cx="192.65022" cy="287.85227" r="4.35447" gradientUnits="userSpaceOnUse" id="color-70"><stop offset="0" stop-color="#7f7f7f"/><stop offset="1" stop-color="#3b3b3b"/></radialGradient><radialGradient cx="180.10854" cy="283.0392" r="4.35447" gradientUnits="userSpaceOnUse" id="color-71"><stop offset="0" stop-color="#7f7f7f"/><stop offset="1" stop-color="#3b3b3b"/></radialGradient><radialGradient cx="224.25022" cy="292.41459" r="4.35446" gradientUnits="userSpaceOnUse" id="color-72"><stop offset="0" stop-color="#7f7f7f"/><stop offset="1" stop-color="#3b3b3b"/></radialGradient><radialGradient cx="222.65022" cy="287.85227" r="4.35447" gradientUnits="userSpaceOnUse" id="color-73"><stop offset="0" stop-color="#7f7f7f"/><stop offset="1" stop-color="#3b3b3b"/></radialGradient><radialGradient cx="210.10854" cy="283.0392" r="4.35447" gradientUnits="userSpaceOnUse" id="color-74"><stop offset="0" stop-color="#7f7f7f"/><stop offset="1" stop-color="#3b3b3b"/></radialGradient><radialGradient cx="228.85854" cy="283.0392" r="4.35447" gradientUnits="userSpaceOnUse" id="color-75"><stop offset="0" stop-color="#7f7f7f"/><stop offset="1" stop-color="#3b3b3b"/></radialGradient><radialGradient cx="241.1002" cy="287.85227" r="3.30446" gradientUnits="userSpaceOnUse" id="color-76"><stop offset="0" stop-color="#7f7f7f"/><stop offset="1" stop-color="#3b3b3b"/></radialGradient><radialGradient cx="237.29565" cy="292.41459" r="7.30901" gradientUnits="userSpaceOnUse" id="color-77"><stop offset="0" stop-color="#7f7f7f"/><stop offset="1" stop-color="#3b3b3b"/></radialGradient><radialGradient cx="188.90022" cy="297.23501" r="4.35447" gradientUnits="userSpaceOnUse" id="color-78"><stop offset="0" stop-color="#7f7f7f"/><stop offset="1" stop-color="#3b3b3b"/></radialGradient><radialGradient cx="184.25022" cy="292.41459" r="4.35446" gradientUnits="userSpaceOnUse" id="color-79"><stop offset="0" stop-color="#7f7f7f"/><stop offset="1" stop-color="#3b3b3b"/></radialGradient><radialGradient cx="182.65022" cy="287.85227" r="4.35447" gradientUnits="userSpaceOnUse" id="color-80"><stop offset="0" stop-color="#7f7f7f"/><stop offset="1" stop-color="#3b3b3b"/></radialGradient><radialGradient cx="170.10854" cy="283.0392" r="4.35447" gradientUnits="userSpaceOnUse" id="color-81"><stop offset="0" stop-color="#7f7f7f"/><stop offset="1" stop-color="#3b3b3b"/></radialGradient><radialGradient cx="214.25022" cy="292.41459" r="4.35446" gradientUnits="userSpaceOnUse" id="color-82"><stop offset="0" stop-color="#7f7f7f"/><stop offset="1" stop-color="#3b3b3b"/></radialGradient><radialGradient cx="212.65022" cy="287.85227" r="4.35447" gradientUnits="userSpaceOnUse" id="color-83"><stop offset="0" stop-color="#7f7f7f"/><stop offset="1" stop-color="#3b3b3b"/></radialGradient><radialGradient cx="200.10854" cy="283.0392" r="4.35447" gradientUnits="userSpaceOnUse" id="color-84"><stop offset="0" stop-color="#7f7f7f"/><stop offset="1" stop-color="#3b3b3b"/></radialGradient><radialGradient cx="232.15022" cy="287.85227" r="4.35447" gradientUnits="userSpaceOnUse" id="color-85"><stop offset="0" stop-color="#7f7f7f"/><stop offset="1" stop-color="#3b3b3b"/></radialGradient><radialGradient cx="219.60854" cy="283.0392" r="4.35447" gradientUnits="userSpaceOnUse" id="color-86"><stop offset="0" stop-color="#7f7f7f"/><stop offset="1" stop-color="#3b3b3b"/></radialGradient><radialGradient cx="239.17103" cy="283.0392" r="5.16697" gradientUnits="userSpaceOnUse" id="color-87"><stop offset="0" stop-color="#7f7f7f"/><stop offset="1" stop-color="#3b3b3b"/></radialGradient><radialGradient cx="218.90022" cy="297.23501" r="4.35447" gradientUnits="userSpaceOnUse" id="color-88"><stop offset="0" stop-color="#7f7f7f"/><stop offset="1" stop-color="#3b3b3b"/></radialGradient><radialGradient cx="234.65022" cy="297.23501" r="10.00447" gradientUnits="userSpaceOnUse" id="color-89"><stop offset="0" stop-color="#7f7f7f"/><stop offset="1" stop-color="#3b3b3b"/></radialGradient><radialGradient cx="150.15016" cy="302.08851" r="4.35447" gradientUnits="userSpaceOnUse" id="color-90"><stop offset="0" stop-color="#7f7f7f"/><stop offset="1" stop-color="#3b3b3b"/></radialGradient><radialGradient cx="184.68787" cy="302.26066" r="19.47947" gradientUnits="userSpaceOnUse" id="color-91"><stop offset="0" stop-color="#7f7f7f"/><stop offset="1" stop-color="#3b3b3b"/></radialGradient><radialGradient cx="210.35021" cy="302.08851" r="4.35447" gradientUnits="userSpaceOnUse" id="color-92"><stop offset="0" stop-color="#7f7f7f"/><stop offset="1" stop-color="#3b3b3b"/></radialGradient><radialGradient cx="240.3502" cy="302.08851" r="4.35447" gradientUnits="userSpaceOnUse" id="color-93"><stop offset="0" stop-color="#7f7f7f"/><stop offset="1" stop-color="#3b3b3b"/></radialGradient><radialGradient cx="358.41117" cy="277.0573" r="15.43738" gradientUnits="userSpaceOnUse" id="color-94"><stop offset="0" stop-color="#545454"/><stop offset="1" stop-color="#2f2f2f"/></radialGradient><radialGradient cx="351.91117" cy="270.11285" r="6.74888" gradientUnits="userSpaceOnUse" id="color-95"><stop offset="0" stop-color="#545454"/><stop offset="1" stop-color="#2f2f2f"/></radialGradient><radialGradient cx="360.59867" cy="272.2448" r="6.74888" gradientUnits="userSpaceOnUse" id="color-96"><stop offset="0" stop-color="#545454"/><stop offset="1" stop-color="#2f2f2f"/></radialGradient><radialGradient cx="355.41817" cy="273.96002" r="5.48498" gradientUnits="userSpaceOnUse" id="color-97"><stop offset="0" stop-color="#a1a1a1"/><stop offset="1" stop-color="#818181"/></radialGradient><linearGradient x1="416.42666" y1="72.21031" x2="466.652" y2="72.21031" gradientUnits="userSpaceOnUse" id="color-98"><stop offset="0" stop-color="#2e2e2e"/><stop offset="1" stop-color="#858585"/></linearGradient><linearGradient x1="442.05557" y1="72.44035" x2="442.05557" y2="55.37209" gradientUnits="userSpaceOnUse" id="color-99"><stop offset="0" stop-color="#2e2e2e"/><stop offset="1" stop-color="#858585"/></linearGradient><linearGradient x1="442.05557" y1="-6.29951" x2="442.05557" y2="10.76877" gradientUnits="userSpaceOnUse" id="color-100"><stop offset="0" stop-color="#858585"/><stop offset="1" stop-color="#2e2e2e"/></linearGradient><radialGradient cx="451.00589" cy="25.20323" r="28.13784" gradientUnits="userSpaceOnUse" id="color-101"><stop offset="0" stop-color="#858585"/><stop offset="1" stop-color="#2e2e2e"/></radialGradient><linearGradient x1="439.48749" y1="33.6978" x2="443.95492" y2="33.6978" gradientUnits="userSpaceOnUse" id="color-102"><stop offset="0" stop-color="#171717"/><stop offset="1" stop-color="#3e3e3e"/></linearGradient><linearGradient x1="412.15098" y1="33.6978" x2="471.29143" y2="33.6978" gradientUnits="userSpaceOnUse" id="color-103"><stop offset="0" stop-color="#171717"/><stop offset="1" stop-color="#3e3e3e"/></linearGradient><linearGradient x1="414.95421" y1="9.67684" x2="414.95421" y2="31.29507" gradientUnits="userSpaceOnUse" id="color-104"><stop offset="0" stop-color="#858585"/><stop offset="1" stop-color="#2e2e2e"/></linearGradient><linearGradient x1="415.11522" y1="34.75627" x2="415.11522" y2="56.37451" gradientUnits="userSpaceOnUse" id="color-105"><stop offset="0" stop-color="#858585"/><stop offset="1" stop-color="#2e2e2e"/></linearGradient><linearGradient x1="468.48819" y1="10.111" x2="468.48819" y2="31.72925" gradientUnits="userSpaceOnUse" id="color-106"><stop offset="0" stop-color="#858585"/><stop offset="1" stop-color="#2e2e2e"/></linearGradient><linearGradient x1="468.32719" y1="35.19045" x2="468.32719" y2="56.80869" gradientUnits="userSpaceOnUse" id="color-107"><stop offset="0" stop-color="#858585"/><stop offset="1" stop-color="#2e2e2e"/></linearGradient><linearGradient x1="389.53043" y1="133.12976" x2="532.48556" y2="133.12976" gradientUnits="userSpaceOnUse" id="color-108"><stop offset="0" stop-color="#e6cd97"/><stop offset="1" stop-color="#70614b"/></linearGradient><radialGradient cx="240" cy="180" r="300.3003" gradientUnits="userSpaceOnUse" id="color-109"><stop offset="0" stop-color="#000000" stop-opacity="0"/><stop offset="1" stop-color="#000000"/></radialGradient><radialGradient cx="238.37357" cy="180.81322" r="363.12119" gradientUnits="userSpaceOnUse" id="color-110"><stop offset="0" stop-color="#000000" stop-opacity="0"/><stop offset="1" stop-color="#000000"/></radialGradient></defs><g transform="translate(60.3003,58.5)"><g data-paper-data="{&quot;isPaintingLayer&quot;:true}" fill-rule="nonzero" stroke-linecap="butt" stroke-linejoin="miter" stroke-miterlimit="10" stroke-dasharray="" stroke-dashoffset="0" style="mix-blend-mode: normal"><path d="M-55.04503,409.72973v-459.45946h590.09009v459.45946z" fill="#272738" stroke="#000000" stroke-width="0"/><path d="M124.2216,285.15623v-275h262v275z" fill="#000000" stroke="none" stroke-width="0"/><g stroke="none" stroke-width="0"><path d="M29.5,410.5v-469h35.58879v469z" fill="url(#color-1)"/><path d="M86.69626,410.5v-469h35.58879v469z" fill="url(#color-2)"/><path d="M58.09813,410.5v-469h35.58879v469z" fill="url(#color-3)"/><path d="M117.83645,410.5v-469h35.58879v469z" fill="url(#color-4)"/><path d="M143.89252,410.5v-469h35.58879v469z" fill="url(#color-5)"/><path d="M169.31308,410.5v-469h35.58879v469z" fill="url(#color-6)"/><path d="M197.91121,410.5v-469h35.58879v469z" fill="url(#color-7)"/></g><g stroke="none" stroke-width="0"><path d="M243.5,410.5v-469h35.58879v469z" fill="url(#color-8)"/><path d="M300.69626,410.5v-469h35.58879v469z" fill="url(#color-9)"/><path d="M272.09813,410.5v-469h35.58879v469z" fill="url(#color-10)"/><path d="M331.83645,410.5v-469h35.58879v469z" fill="url(#color-11)"/><path d="M357.89252,410.5v-469h35.58879v469z" fill="url(#color-12)"/><path d="M383.31308,410.5v-469h35.58879v469z" fill="url(#color-13)"/><path d="M411.91121,410.5v-469h35.58879v469z" fill="url(#color-14)"/></g><g stroke="none" stroke-width="0"><path d="M-20.50002,228.00315v-41.5h104v41.5z" data-paper-data="{&quot;index&quot;:null}" fill="#644e1a"/><path d="M-17.50002,236.00315v-14h104v14z" data-paper-data="{&quot;index&quot;:null}" fill="#3f3110"/></g><g data-paper-data="{&quot;index&quot;:null}" stroke="none" stroke-width="0"><path d="M388.50002,228.00315v-41.5h104v41.5z" data-paper-data="{&quot;index&quot;:null}" fill="#644e1a"/><path d="M385.50002,236.00315v-14h104v14z" data-paper-data="{&quot;index&quot;:null}" fill="#3f3110"/></g><g stroke="none" stroke-width="0"><path d="M-20.50002,160.50315v-41.5h104v41.5z" data-paper-data="{&quot;index&quot;:null}" fill="#644e1a"/><path d="M-17.50002,168.50315v-14h104v14z" data-paper-data="{&quot;index&quot;:null}" fill="#3f3110"/></g><g data-paper-data="{&quot;index&quot;:null}" stroke="none" stroke-width="0"><path d="M388.50002,160.50315v-41.5h104v41.5z" data-paper-data="{&quot;index&quot;:null}" fill="#644e1a"/><path d="M385.50002,168.50315v-14h104v14z" data-paper-data="{&quot;index&quot;:null}" fill="#3f3110"/></g><g stroke="none" stroke-width="0"><path d="M-20.50002,93.00315v-41.5h104v41.5z" data-paper-data="{&quot;index&quot;:null}" fill="#644e1a"/><path d="M-17.50002,101.00315v-14h104v14z" data-paper-data="{&quot;index&quot;:null}" fill="#3f3110"/></g><g data-paper-data="{&quot;index&quot;:null}" stroke="none" stroke-width="0"><path d="M388.50002,93.00315v-41.5h104v41.5z" data-paper-data="{&quot;index&quot;:null}" fill="#644e1a"/><path d="M385.50002,101.00315v-14h104v14z" data-paper-data="{&quot;index&quot;:null}" fill="#3f3110"/></g><path d="M191.34499,283.25192c-1.25,0 -1.25,-1.25 -1.25,-1.25l0.16663,0.12355c-1.5716,-2.77666 -2.15238,-5.97152 -2.16663,-9.12355c0,-4.01013 -0.38361,-8.23724 0.02597,-12.22492c0.48312,-4.70364 2.57095,-9.19358 2.97717,-13.86369c0.15014,-1.72603 -0.2312,-3.07715 -0.487,-4.71115c-0.3399,-2.17121 0.19595,-4.48309 -0.02901,-6.66951c-0.30706,-2.98435 -0.83885,-6.18559 -1.41947,-9.12505c-0.62656,-1.26168 -1.87823,-2.15011 -2.47251,-3.42732c-0.57312,-1.23174 -0.44585,-6.69934 0.02789,-7.96347c0.30234,-0.80677 1.22505,-1.26317 1.57165,-2.05193c1.04702,-2.38273 1.0457,-4.2114 2.80175,-6.46376c3.89742,-4.99894 9.74151,-8.67756 14.41272,-12.92412c0,0 0.92493,-0.84084 1.76577,0.08408c0.84084,0.92493 -0.08408,1.76577 -0.08408,1.76577c-4.55596,4.14178 -10.32294,7.73759 -14.12281,12.61142c-1.68367,2.15953 -1.46235,3.60789 -2.48471,5.93268c-0.32414,0.73707 -1.19575,1.14544 -1.50648,1.88826c-0.29913,0.71506 -0.38178,5.60825 -0.07199,6.16437c0.70992,1.27438 1.87256,2.26919 2.52749,3.57268c0.6289,3.1139 1.21648,6.51451 1.54169,9.68075c0.21787,2.12121 -0.34013,4.4294 0.00983,6.52468c0.30012,1.7969 0.68461,3.39569 0.513,5.28885c-0.42698,4.71025 -2.49675,9.20655 -2.98399,13.94211c-0.40134,3.90072 -0.01286,8.04584 -0.01287,11.96928c-0.01387,2.67027 0.45854,5.53783 1.83337,7.87645l0.16663,1.12355c0,0 0,1.25 -1.25,1.25z" fill="#000000" stroke="none" stroke-width="0.5"/><path d="M162.53635,284.16472c-1.2387,-0.16771 -1.07099,-1.40641 -1.07099,-1.40641l0.13417,-0.99096c0.41395,-2.25338 -0.8616,-5.06158 -0.98503,-7.46325c-0.00817,-0.15896 0.64077,-4.90086 0.6802,-5.19207c0.60146,-4.4424 0.685,-9.75715 4.42765,-12.67774c3.25204,-6.89865 -2.17444,-12.25783 -2.1271,-19.10069c0.04117,-5.95078 2.05591,-11.34386 5.33619,-16.18968c0,0 0.70397,-1.03292 1.73689,-0.32896c1.03292,0.70397 0.32896,1.73689 0.32896,1.73689c-3.03017,4.41236 -4.82548,9.28122 -4.9029,14.716c-0.05589,3.9234 2.07072,7.12234 3.01319,10.73661c0.79266,3.03975 -0.09028,7.29688 -1.45417,10.0176c-3.38877,2.51207 -3.34636,7.47418 -3.88132,11.42539c-0.21304,1.57353 -0.75747,3.13254 -0.66147,4.71752c0.16718,2.76034 1.25341,5.23367 0.9663,7.9378l-0.13417,0.99096c0,0 -0.16771,1.2387 -1.40641,1.07099z" fill="#000000" stroke="none" stroke-width="0.5"/><path d="M300.83065,272.09826c-1.1606,0.46422 -1.62482,-0.69639 -1.62482,-0.69639l-0.37137,-0.92848c-1.8626,-4.65676 -3.7241,-9.31396 -5.59047,-13.96922c-2.51022,-6.27139 -7.28008,-11.40245 -8.85969,-18.16255c-0.82552,-3.53291 3.53525,-13.51825 -2.59748,-13.69664c0,0 -1.24568,-0.10383 -1.14185,-1.34951c0.10383,-1.24568 1.34951,-1.14185 1.34951,-1.14185c3.24248,0.38505 4.49509,1.24787 5.29422,4.68735c0.85887,3.69659 -1.34385,7.52318 -0.46445,10.95602c1.68798,6.58919 6.23792,11.61028 8.73929,17.77464c1.86692,4.65662 3.72897,9.3152 5.59212,13.97333l0.37137,0.92848c0,0 0.46422,1.1606 -0.69639,1.62482z" fill="#000000" stroke="none" stroke-width="0.5"/><path d="M-8.49847,375.19521v-97.5976h139.63964v97.5976z" fill="url(#color-15)" stroke="none" stroke-width="0"/><path d="M345.85591,375.19521v-97.5976h139.63964v97.5976z" fill="url(#color-16)" stroke="none" stroke-width="0"/><path d="M-7.63961,311.06307v-51.91591h492.27628v51.91591z" fill="url(#color-17)" stroke="none" stroke-width="0"/><g stroke="none" stroke-width="0"><path d="M200.00005,275.50001v-15h81v15z" fill="url(#color-18)"/><path d="M225.00005,269.50001v-51.5h31v51.5z" fill="url(#color-19)"/><path d="M114.50003,242.50001v-123h251v123z" fill="url(#color-20)"/><path d="M121.37385,233.70444v-108.02587h237.25235v108.02587z" fill="url(#color-21)"/></g><path d="M179.15337,257.07638c1.21268,0.30317 0.90951,1.51585 0.90951,1.51585l-0.23695,0.94198c-0.15205,0.73991 -0.2298,1.49949 -0.22573,2.25485c0,3.03048 0.50708,5.94529 0.5,9c-0.00554,2.39025 -0.67014,4.8773 0.58971,7.13759c1.32136,2.37067 3.98921,3.4627 5.07089,5.89817c0,0 0.46424,1.1606 -0.69636,1.62483c-1.1606,0.46424 -1.62483,-0.69636 -1.62483,-0.69636c-0.68262,-2.11962 -3.74302,-3.46225 -4.92911,-5.60183c-1.50084,-2.70737 -0.90295,-5.49161 -0.91029,-8.36241c-0.00781,-3.05278 -0.5,-5.96434 -0.5,-9c0.00407,-0.9196 0.09785,-1.84262 0.27427,-2.74515l0.26305,-1.05802c0,0 0.30317,-1.21268 1.51585,-0.90951z" fill="#000000" stroke="none" stroke-width="0.5"/><g><path d="M133.34832,305.20304v-26.40606h189.30341v26.40606z" fill="#545454" stroke="none" stroke-width="1"/><path d="M225.99575,304.04564v-3.91426h8.70893v3.91426z" fill="url(#color-22)" stroke="#b3b3b3" stroke-width="0"/><path d="M248.87075,304.04564v-3.91426h8.70893v3.91426z" fill="url(#color-23)" stroke="#b3b3b3" stroke-width="0"/><path d="M282.62075,304.04564v-3.91426h18.37559v3.91426z" fill="url(#color-24)" stroke="#b3b3b3" stroke-width="0"/><path d="M248.87075,289.42443v-3.91427h8.70893v3.91427z" fill="url(#color-25)" stroke="#b3b3b3" stroke-width="0"/><path d="M248.87075,285.05627v-3.91426h8.70893v3.91426z" fill="url(#color-26)" stroke="#b3b3b3" stroke-width="0"/><path d="M258.49575,304.04564v-3.91426h8.70893v3.91426z" fill="url(#color-27)" stroke="#b3b3b3" stroke-width="0"/><path d="M258.49575,289.42443v-3.91427h8.70893v3.91427z" fill="url(#color-28)" stroke="#b3b3b3" stroke-width="0"/><path d="M258.49575,299.67749v-3.91427h8.70893v3.91427z" fill="url(#color-29)" stroke="#b3b3b3" stroke-width="0"/><path d="M292.24575,299.67749v-3.91427h8.70893v3.91427z" fill="url(#color-30)" stroke="#b3b3b3" stroke-width="0"/><path d="M292.24575,295.34977v-3.91426h8.70893v3.91426z" fill="url(#color-31)" stroke="#b3b3b3" stroke-width="0"/><path d="M292.24575,291.10294v-3.91426h8.70893v3.91426z" fill="url(#color-32)" stroke="#b3b3b3" stroke-width="0"/><path d="M282.66238,299.67749v-3.91427h8.70893v3.91427z" fill="url(#color-33)" stroke="#b3b3b3" stroke-width="0"/><path d="M282.66238,295.34977v-3.91426h8.70893v3.91426z" fill="url(#color-34)" stroke="#b3b3b3" stroke-width="0"/><path d="M282.66238,291.10294v-3.91426h8.70893v3.91426z" fill="url(#color-35)" stroke="#b3b3b3" stroke-width="0"/><path d="M258.49575,285.05627v-3.91426h8.70893v3.91426z" fill="url(#color-36)" stroke="#b3b3b3" stroke-width="0"/><path d="M267.99575,304.04564v-3.91426h8.70893v3.91426z" fill="url(#color-37)" stroke="#b3b3b3" stroke-width="0"/><path d="M301.74575,304.04564v-3.91426h8.70893v3.91426z" fill="url(#color-38)" stroke="#b3b3b3" stroke-width="0"/><path d="M311.08664,304.04564v-8.16109h8.70893v8.16109z" fill="url(#color-39)" stroke="#b3b3b3" stroke-width="0"/><path d="M311.08664,295.43066v-8.16109h8.70893v8.16109z" fill="url(#color-40)" stroke="#b3b3b3" stroke-width="0"/><path d="M301.74575,299.71792v-3.91426h8.70893v3.91426z" fill="url(#color-41)" stroke="#b3b3b3" stroke-width="0"/><path d="M301.74575,295.3902v-3.91426h8.70893v3.91426z" fill="url(#color-42)" stroke="#b3b3b3" stroke-width="0"/><path d="M301.74575,291.14338v-3.91426h8.70893v3.91426z" fill="url(#color-43)" stroke="#b3b3b3" stroke-width="0"/><path d="M267.99575,289.42443v-3.91427h8.70893v3.91427z" fill="url(#color-44)" stroke="#b3b3b3" stroke-width="0"/><path d="M267.99575,285.05627v-3.91426h8.70893v3.91426z" fill="url(#color-45)" stroke="#b3b3b3" stroke-width="0"/><path d="M215.99575,304.04564v-3.91426h8.70893v3.91426z" fill="url(#color-46)" stroke="#b3b3b3" stroke-width="0"/><path d="M135.79574,304.04564v-3.91426h8.70893v3.91426z" fill="url(#color-47)" stroke="#b3b3b3" stroke-width="0"/><path d="M135.79574,299.19212v-3.91426h17.20893v3.91426z" fill="url(#color-48)" stroke="#b3b3b3" stroke-width="0"/><path d="M135.79574,294.33862v-3.91427h12.45893v3.91427z" fill="url(#color-49)" stroke="#b3b3b3" stroke-width="0"/><path d="M135.79574,289.72779v-3.91427h10.85893v3.91427z" fill="url(#color-50)" stroke="#b3b3b3" stroke-width="0"/><path d="M155.79574,304.04564v-3.91426h8.70893v3.91426z" fill="url(#color-51)" stroke="#b3b3b3" stroke-width="0"/><path d="M154.54574,299.19212v-3.91426h8.70893v3.91426z" fill="url(#color-52)" stroke="#b3b3b3" stroke-width="0"/><path d="M149.89575,294.37172v-3.91427h8.70893v3.91427z" fill="url(#color-53)" stroke="#b3b3b3" stroke-width="0"/><path d="M148.29574,289.8094v-3.91426h8.70893v3.91426z" fill="url(#color-54)" stroke="#b3b3b3" stroke-width="0"/><path d="M135.75403,284.99634v-3.91426h8.70893v3.91426z" fill="url(#color-55)" stroke="#b3b3b3" stroke-width="0"/><path d="M174.54574,299.19212v-3.91426h8.70893v3.91426z" fill="url(#color-56)" stroke="#b3b3b3" stroke-width="0"/><path d="M169.89575,294.37172v-3.91427h8.70893v3.91427z" fill="url(#color-57)" stroke="#b3b3b3" stroke-width="0"/><path d="M168.29574,289.8094v-3.91426h8.70893v3.91426z" fill="url(#color-58)" stroke="#b3b3b3" stroke-width="0"/><path d="M155.75403,284.99634v-3.91426h8.70893v3.91426z" fill="url(#color-59)" stroke="#b3b3b3" stroke-width="0"/><path d="M199.89575,294.37172v-3.91427h8.70893v3.91427z" fill="url(#color-60)" stroke="#b3b3b3" stroke-width="0"/><path d="M198.29574,289.8094v-3.91426h8.70893v3.91426z" fill="url(#color-61)" stroke="#b3b3b3" stroke-width="0"/><path d="M185.75409,284.99634v-3.91426h8.70893v3.91426z" fill="url(#color-62)" stroke="#b3b3b3" stroke-width="0"/><path d="M204.54574,299.19212v-3.91426h8.70893v3.91426z" fill="url(#color-63)" stroke="#b3b3b3" stroke-width="0"/><path d="M164.54574,299.19212v-3.91426h8.70893v3.91426z" fill="url(#color-64)" stroke="#b3b3b3" stroke-width="0"/><path d="M159.89575,294.37172v-3.91427h8.70893v3.91427z" fill="url(#color-65)" stroke="#b3b3b3" stroke-width="0"/><path d="M158.29574,289.8094v-3.91426h8.70893v3.91426z" fill="url(#color-66)" stroke="#b3b3b3" stroke-width="0"/><path d="M145.75403,284.99634v-3.91426h8.70893v3.91426z" fill="url(#color-67)" stroke="#b3b3b3" stroke-width="0"/><path d="M194.54574,299.19212v-3.91426h8.70893v3.91426z" fill="url(#color-68)" stroke="#b3b3b3" stroke-width="0"/><path d="M189.89575,294.37172v-3.91427h8.70893v3.91427z" fill="url(#color-69)" stroke="#b3b3b3" stroke-width="0"/><path d="M188.29574,289.8094v-3.91426h8.70893v3.91426z" fill="url(#color-70)" stroke="#b3b3b3" stroke-width="0"/><path d="M175.75409,284.99634v-3.91426h8.70893v3.91426z" fill="url(#color-71)" stroke="#b3b3b3" stroke-width="0"/><path d="M219.89575,294.37172v-3.91427h8.70893v3.91427z" fill="url(#color-72)" stroke="#b3b3b3" stroke-width="0"/><path d="M218.29574,289.8094v-3.91426h8.70893v3.91426z" fill="url(#color-73)" stroke="#b3b3b3" stroke-width="0"/><path d="M205.75409,284.99634v-3.91426h8.70893v3.91426z" fill="url(#color-74)" stroke="#b3b3b3" stroke-width="0"/><path d="M224.50409,284.99634v-3.91426h8.70893v3.91426z" fill="url(#color-75)" stroke="#b3b3b3" stroke-width="0"/><path d="M237.79574,289.8094v-3.91426h6.60893v3.91426z" fill="url(#color-76)" stroke="#b3b3b3" stroke-width="0"/><path d="M229.98665,294.37172v-3.91427h14.61802v3.91427z" fill="url(#color-77)" stroke="#b3b3b3" stroke-width="0"/><path d="M184.54574,299.19212v-3.91426h8.70893v3.91426z" fill="url(#color-78)" stroke="#b3b3b3" stroke-width="0"/><path d="M179.89575,294.37172v-3.91427h8.70893v3.91427z" fill="url(#color-79)" stroke="#b3b3b3" stroke-width="0"/><path d="M178.29574,289.8094v-3.91426h8.70893v3.91426z" fill="url(#color-80)" stroke="#b3b3b3" stroke-width="0"/><path d="M165.75403,284.99634v-3.91426h8.70893v3.91426z" fill="url(#color-81)" stroke="#b3b3b3" stroke-width="0"/><path d="M209.89575,294.37172v-3.91427h8.70893v3.91427z" fill="url(#color-82)" stroke="#b3b3b3" stroke-width="0"/><path d="M208.29574,289.8094v-3.91426h8.70893v3.91426z" fill="url(#color-83)" stroke="#b3b3b3" stroke-width="0"/><path d="M195.75409,284.99634v-3.91426h8.70893v3.91426z" fill="url(#color-84)" stroke="#b3b3b3" stroke-width="0"/><path d="M227.79574,289.8094v-3.91426h8.70893v3.91426z" fill="url(#color-85)" stroke="#b3b3b3" stroke-width="0"/><path d="M215.25409,284.99634v-3.91426h8.70893v3.91426z" fill="url(#color-86)" stroke="#b3b3b3" stroke-width="0"/><path d="M234.00409,284.99634v-3.91426h10.33393v3.91426z" fill="url(#color-87)" stroke="#b3b3b3" stroke-width="0"/><path d="M214.54574,299.19212v-3.91426h8.70893v3.91426z" fill="url(#color-88)" stroke="#b3b3b3" stroke-width="0"/><path d="M224.64575,299.19212v-3.91426h20.00893v3.91426z" fill="url(#color-89)" stroke="#b3b3b3" stroke-width="0"/><path d="M145.79574,304.04564v-3.91426h8.70893v3.91426z" fill="url(#color-90)" stroke="#b3b3b3" stroke-width="0"/><path d="M165.79574,304.04564v-3.91426h38.95893v3.91426z" fill="url(#color-91)" stroke="#b3b3b3" stroke-width="0"/><path d="M205.99575,304.04564v-3.91426h8.70893v3.91426z" fill="url(#color-92)" stroke="#b3b3b3" stroke-width="0"/><path d="M235.99575,304.04564v-3.91426h8.70893v3.91426z" fill="url(#color-93)" stroke="#b3b3b3" stroke-width="0"/></g><path d="M334.54742,257.46331c1.14893,-0.4924 1.64133,0.65653 1.64133,0.65653l0.47001,1.10187c0.67984,1.32308 1.27702,1.10793 2.59097,1.76475c2.75374,1.37654 5.28521,2.15612 8.35294,2.73037c1.74574,0.32678 3.42869,0.39427 4.90474,1.60239c2.06822,1.6928 2.57967,4.93284 2.77872,7.36382c0,0 0.09587,1.24632 -1.15045,1.34219c-1.24632,0.09587 -1.34219,-1.15045 -1.34219,-1.15045c-0.11956,-1.68082 -0.39095,-4.43458 -1.88795,-5.63618c-1.07001,-0.85887 -2.50331,-0.82791 -3.76192,-1.06428c-4.24274,-0.79679 -10.36329,-1.93069 -12.72275,-5.83822l-0.52999,-1.23146c0,0 -0.4924,-1.14893 0.65653,-1.64133z" fill="#000000" stroke="none" stroke-width="0.5"/><g><path d="M368.83962,284.85715c0,8.52583 -6.79847,15.43738 -15.18481,15.43738c-8.38634,0 -15.1848,-6.91155 -15.1848,-15.43738c0,-8.52583 6.79846,-15.43737 15.1848,-15.43737c8.38634,0 15.18481,6.91154 15.18481,15.43737z" fill="url(#color-94)" stroke="none" stroke-width="NaN"/><path d="M353.52981,274.91952c-13.16746,0.77808 -14.20592,4.09728 -12.7301,1.71704c2.68847,-4.33605 6.6694,-7.05113 12.8551,-7.21678c0.27827,-0.00745 0.06901,5.48828 -0.125,5.49975z" fill="url(#color-95)" stroke="none" stroke-width="NaN"/><path d="M353.5512,269.41978c6.1857,0.16566 10.16663,2.88073 12.8551,7.21678c1.47582,2.38025 0.43736,-0.93896 -12.7301,-1.71704c-0.19401,-0.01146 -0.40327,-5.5072 -0.125,-5.49975z" data-paper-data="{&quot;index&quot;:null}" fill="url(#color-96)" stroke="none" stroke-width="NaN"/><path d="M357.2277,276.47767c0,3.02927 -1.59964,5.48499 -3.5729,5.48499c-1.97325,0 -3.57289,-2.45572 -3.57289,-5.48499c0,-3.02927 1.59963,-5.48498 3.57289,-5.48498c1.97325,0 3.5729,2.45571 3.5729,5.48498z" fill="url(#color-97)" stroke="#000000" stroke-width="0"/></g><g stroke-width="0"><path d="M441.53934,66.46646c13.86935,0 25.11267,2.57162 25.11267,5.74385c0,3.17224 -11.24332,5.74386 -25.11267,5.74386c-13.86935,0 -25.11267,-2.57162 -25.11267,-5.74386c0,-3.17224 11.24332,-5.74385 25.11267,-5.74385z" fill="url(#color-98)" stroke="#000000"/><path d="M454.09224,71.97477v-16.91246h2.65919v16.91246z" fill="#131313" stroke="none"/><path d="M426.75574,71.65567v-16.91246h2.65919v16.91246z" fill="#131313" stroke="none"/><path d="M434.21579,56.98972c0,0 1.31193,-1.71272 8.10176,-1.6135c4.95654,0.07243 7.74233,1.71411 7.74233,1.71411l-0.1645,15.35l-15.84407,-0.10061z" data-paper-data="{&quot;index&quot;:null}" fill="url(#color-99)" stroke="#000000"/><path d="M432.35725,62.70863l18.72784,0.15449l-0.02534,3.07163l-18.72784,-0.15449z" data-paper-data="{&quot;index&quot;:null}" fill="#343434" stroke="#000000"/><path d="M432.38266,66.80562l18.72784,0.15449l-0.02534,3.07163l-18.72784,-0.15449z" data-paper-data="{&quot;index&quot;:null}" fill="#343434" stroke="#000000"/><path d="M434.05129,-6.19888l15.84407,-0.10061l0.1645,15.35c0,0 -2.78578,1.64166 -7.74233,1.71411c-6.78983,0.09924 -8.10176,-1.6135 -8.10176,-1.6135z" fill="url(#color-100)" stroke="#000000"/><path d="M432.33189,0.36057l18.72784,-0.15448l0.02534,3.07163l-18.72784,0.15449z" fill="#343434" stroke="#000000"/><path d="M432.35732,-3.73639l18.72784,-0.15449l0.02534,3.07163l-18.72784,0.15449z" fill="#343434" stroke="#000000"/><path d="M469.85905,33.6978c0,15.31379 -12.59774,27.72807 -28.13784,27.72807c-15.5401,0 -28.13784,-12.41429 -28.13784,-27.72807c0,-15.31379 12.59774,-27.72807 28.13784,-27.72807c15.5401,0 28.13784,12.41429 28.13784,27.72807z" fill="url(#color-101)" stroke="none"/><path d="M439.48749,62.18305v-56.97054h4.46745v56.97054z" fill="url(#color-102)" stroke="none"/><path d="M412.15098,35.80387v-4.21216h59.14043v4.21216z" fill="url(#color-103)" stroke="none"/><g stroke="#000000"><path d="M402.73575,24.60258l5.31733,-14.92574l18.78585,6.69249c0,0 1.04657,3.34869 -0.56688,8.03623c-2.21022,6.42131 -4.75046,6.88951 -4.75046,6.88951z" fill="url(#color-104)"/><path d="M413.07309,30.21232l6.28513,-17.64236l2.89359,1.03085l-6.28513,17.64237z" fill="#343434"/><path d="M409.23391,28.78175l6.28513,-17.64236l2.89361,1.03085l-6.28513,17.64237z" fill="#343434"/><path d="M408.04406,18.14141c-1.48324,4.16346 -4.02355,7.062 -5.67394,6.47405c-1.65039,-0.58795 -1.78587,-4.43974 -0.30264,-8.60322c1.48324,-4.16346 4.02355,-7.062 5.67394,-6.47404c1.65039,0.58795 1.78587,4.43974 0.30263,8.6032z" fill="#858585"/><path d="M404.99327,16.98723c-0.36078,1.01273 -0.86611,1.7579 -1.12867,1.66436c-0.26256,-0.09354 -0.18293,-0.99036 0.17786,-2.00309c0.36078,-1.01273 0.86611,-1.7579 1.12867,-1.66436c0.26256,0.09354 0.18293,0.99036 -0.17786,2.00309z" fill="#000000"/></g><g data-paper-data="{&quot;index&quot;:null}" stroke="#000000"><path d="M421.6826,34.75627c0,0 2.54024,0.46819 4.75046,6.88951c1.61345,4.68753 0.56686,8.03624 0.56686,8.03624l-18.78585,6.69249l-5.31732,-14.92574z" fill="url(#color-105)"/><path d="M416.1277,34.80816l6.28513,17.64237l-2.89359,1.03085l-6.28513,-17.64237z" fill="#343434"/><path d="M412.28853,36.23874l6.28513,17.64237l-2.89361,1.03085l-6.28513,-17.64237z" fill="#343434"/><path d="M407.90243,56.51314c-1.65039,0.58795 -4.1907,-2.31057 -5.67394,-6.47405c-1.48324,-4.16346 -1.34776,-8.01525 0.30264,-8.6032c1.65039,-0.58795 4.1907,2.31057 5.67394,6.47405c1.48324,4.16346 1.34776,8.01525 -0.30264,8.60322z" fill="#858585"/><path d="M405.33213,51.06719c-0.26256,0.09354 -0.76789,-0.65161 -1.12867,-1.66434c-0.36078,-1.01275 -0.44042,-1.90955 -0.17786,-2.00309c0.26256,-0.09354 0.76789,0.65162 1.12867,1.66436c0.36078,1.01275 0.44042,1.90955 0.17786,2.00309z" fill="#000000"/></g><g data-paper-data="{&quot;index&quot;:null}" stroke="#000000"><path d="M461.9208,31.72925c0,0 -2.54024,-0.46819 -4.75046,-6.88952c-1.61345,-4.68753 -0.56686,-8.03623 -0.56686,-8.03623l18.78585,-6.69249l5.31733,14.92574z" fill="url(#color-106)"/><path d="M467.47571,31.67735l-6.28513,-17.64237l2.89359,-1.03085l6.28513,17.64237z" fill="#343434"/><path d="M471.31487,30.24678l-6.28513,-17.64237l2.89359,-1.03085l6.28513,17.64236z" fill="#343434"/><path d="M475.70098,9.97237c1.65039,-0.58795 4.19068,2.31058 5.67394,6.47405c1.48325,4.16346 1.34776,8.01525 -0.30263,8.60322c-1.65039,0.58795 -4.19069,-2.31057 -5.67394,-6.47405c-1.48325,-4.16346 -1.34776,-8.01526 0.30264,-8.60322z" fill="#858585"/><path d="M478.27128,15.41833c0.26256,-0.09354 0.76789,0.65162 1.12867,1.66435c0.3608,1.01275 0.44042,1.90955 0.17786,2.00309c-0.26256,0.09354 -0.76789,-0.65161 -1.12867,-1.66436c-0.3608,-1.01275 -0.44042,-1.90955 -0.17786,-2.00309z" fill="#000000"/></g><g data-paper-data="{&quot;index&quot;:null}" stroke="#000000"><path d="M480.54566,41.88294l-5.31733,14.92574l-18.78585,-6.69249c0,0 -1.04657,-3.34871 0.56688,-8.03624c2.21022,-6.42131 4.75046,-6.88951 4.75046,-6.88951z" fill="url(#color-107)"/><path d="M470.20831,36.2732l-6.28513,17.64237l-2.89359,-1.03085l6.28513,-17.64237z" fill="#343434"/><path d="M474.04749,37.70377l-6.28513,17.64236l-2.89359,-1.03085l6.28513,-17.64236z" fill="#343434"/><path d="M475.23733,48.3441c1.48325,-4.16346 4.02355,-7.062 5.67394,-6.47405c1.65039,0.58795 1.78587,4.43974 0.30264,8.60322c-1.48325,4.16346 -4.02355,7.062 -5.67394,6.47405c-1.65039,-0.58795 -1.78587,-4.43974 -0.30264,-8.60321z" fill="#858585"/><path d="M478.28813,49.49828c0.3608,-1.01275 0.86611,-1.7579 1.12867,-1.66436c0.26256,0.09354 0.18294,0.99034 -0.17786,2.00309c-0.3608,1.01275 -0.86611,1.7579 -1.12867,1.66436c-0.26256,-0.09354 -0.18293,-0.99034 0.17786,-2.00309z" fill="#000000"/></g><text transform="translate(444.60305,29.37728) scale(0.14522,0.14522)" font-size="40" xml:space="preserve" fill="#313131" fill-rule="nonzero" stroke="none" stroke-width="0" stroke-linecap="butt" stroke-linejoin="miter" stroke-miterlimit="10" stroke-dasharray="" stroke-dashoffset="0" font-family="&quot;ヒラギノ角ゴ Pro W3&quot;, &quot;Hiragino Kaku Gothic Pro&quot;, Osaka, &quot;メイリオ&quot;, Meiryo, &quot;ＭＳ Ｐゴシック&quot;, &quot;MS PGothic&quot;" font-weight="normal" text-anchor="start" style="mix-blend-mode: normal"><tspan x="0" dy="0">DMR</tspan></text><text transform="translate(447.78603,41.06044) scale(0.14522,0.14522)" font-size="40" xml:space="preserve" fill="#313131" fill-rule="nonzero" stroke="none" stroke-width="0" stroke-linecap="butt" stroke-linejoin="miter" stroke-miterlimit="10" stroke-dasharray="" stroke-dashoffset="0" font-family="&quot;ヒラギノ角ゴ Pro W3&quot;, &quot;Hiragino Kaku Gothic Pro&quot;, Osaka, &quot;メイリオ&quot;, Meiryo, &quot;ＭＳ Ｐゴシック&quot;, &quot;MS PGothic&quot;" font-weight="normal" text-anchor="start" style="mix-blend-mode: normal"><tspan x="0" dy="0">36</tspan></text><path d="M440.37082,75.59128v-16.91246c0,0 0.24934,-0.75977 1.33099,-0.75977c1.14196,0 1.32822,0.75977 1.32822,0.75977v16.91246z" fill="#131313" stroke="none"/></g><path d="M78.49998,283.00314v-294.32811h14v294.32811z" data-paper-data="{&quot;index&quot;:null}" fill="#4b3a13" stroke="none" stroke-width="0"/><g stroke-width="0"><path d="M395.57206,145.69635l32.32932,-37.24136l8.37934,-2.9485l17.2166,2.67373l2.60998,4.65515l82.41988,12.7998c0,0 -17.06235,19.65477 -23.02787,26.52666c-3.79137,4.36742 -14.79611,9.86138 -14.79611,9.86138z" fill="#b29f76" stroke="#000000"/><path d="M398.75561,144.1839l31.06504,-35.78499l107.32901,16.66818l-31.06504,35.78499z" fill="#bebebe" stroke="none"/><path d="M397.09452,142.74542l31.06505,-35.78499l107.32901,16.66818l-31.06505,35.78499z" fill="#dadada" stroke="none"/><path d="M389.53043,144.63461l32.32932,-37.24136l8.37934,-2.9485l17.2166,2.67373l2.60998,4.65515l82.41988,12.7998l-32.32932,37.24136z" fill="url(#color-108)" stroke="#000000"/></g><path d="M379.50002,283.00314v-294.32811h14v294.32811z" data-paper-data="{&quot;index&quot;:null}" fill="#4b3a13" stroke="none" stroke-width="0"/><path d="M-13.05892,308.04394l-39.53902,-27.67171l86.81672,-18.14882l39.53901,27.67171z" fill="#d6d6d6" stroke="none" stroke-width="0"/><path d="M-60.3003,401.47147v-442.94295h600.6006v442.94295z" fill="url(#color-109)" stroke="none" stroke-width="0"/><path d="M-33.66746,393.31643v-426.63286h547.33493v426.63286z" fill="url(#color-110)" stroke="none" stroke-width="0"/></g></g></svg>