<svg version="1.1" xmlns="http://www.w3.org/2000/svg" xmlns:xlink="http://www.w3.org/1999/xlink" width="759.06907" height="552.3674" viewBox="0,0,759.06907,552.3674"><defs><linearGradient x1="13.40917" y1="211.73774" x2="400.62843" y2="211.73774" gradientUnits="userSpaceOnUse" id="color-1"><stop offset="0" stop-color="#343c31"/><stop offset="1" stop-color="#1c201a"/></linearGradient><linearGradient x1="183.09322" y1="73.61455" x2="183.09322" y2="224.36664" gradientUnits="userSpaceOnUse" id="color-2"><stop offset="0" stop-color="#171717"/><stop offset="1" stop-color="#171717" stop-opacity="0"/></linearGradient><linearGradient x1="373.23598" y1="121.87326" x2="391.84904" y2="121.87326" gradientUnits="userSpaceOnUse" id="color-3"><stop offset="0" stop-color="#6e6e6e"/><stop offset="1" stop-color="#525252"/></linearGradient><linearGradient x1="382.63686" y1="129.29359" x2="382.63686" y2="134.38583" gradientUnits="userSpaceOnUse" id="color-4"><stop offset="0" stop-color="#9c9c9c"/><stop offset="1" stop-color="#767676"/></linearGradient><linearGradient x1="382.81247" y1="111.03173" x2="382.81247" y2="116.12398" gradientUnits="userSpaceOnUse" id="color-5"><stop offset="0" stop-color="#9c9c9c"/><stop offset="1" stop-color="#767676"/></linearGradient><linearGradient x1="382.81247" y1="91.01392" x2="382.81247" y2="96.10617" gradientUnits="userSpaceOnUse" id="color-6"><stop offset="0" stop-color="#9c9c9c"/><stop offset="1" stop-color="#767676"/></linearGradient><linearGradient x1="382.98808" y1="72.75207" x2="382.98808" y2="77.84431" gradientUnits="userSpaceOnUse" id="color-7"><stop offset="0" stop-color="#9c9c9c"/><stop offset="1" stop-color="#767676"/></linearGradient><linearGradient x1="382.63686" y1="54.6658" x2="382.63686" y2="59.75805" gradientUnits="userSpaceOnUse" id="color-8"><stop offset="0" stop-color="#9c9c9c"/><stop offset="1" stop-color="#767676"/></linearGradient><linearGradient x1="382.81247" y1="36.40393" x2="382.81247" y2="41.49618" gradientUnits="userSpaceOnUse" id="color-9"><stop offset="0" stop-color="#9c9c9c"/><stop offset="1" stop-color="#767676"/></linearGradient><linearGradient x1="382.63686" y1="16.38614" x2="382.63686" y2="21.47839" gradientUnits="userSpaceOnUse" id="color-10"><stop offset="0" stop-color="#9c9c9c"/><stop offset="1" stop-color="#767676"/></linearGradient><linearGradient x1="382.81247" y1="-1.87571" x2="382.81247" y2="3.21654" gradientUnits="userSpaceOnUse" id="color-11"><stop offset="0" stop-color="#9c9c9c"/><stop offset="1" stop-color="#767676"/></linearGradient><linearGradient x1="392.09326" y1="22.61455" x2="392.09326" y2="173.36664" gradientUnits="userSpaceOnUse" id="color-12"><stop offset="0" stop-color="#171717"/><stop offset="1" stop-color="#171717" stop-opacity="0"/></linearGradient><linearGradient x1="337.99628" y1="96.25003" x2="347.49628" y2="96.25003" gradientUnits="userSpaceOnUse" id="color-13"><stop offset="0" stop-color="#7a7a7a"/><stop offset="1" stop-color="#bdbdbd"/></linearGradient><linearGradient x1="233.99627" y1="156.75" x2="243.49627" y2="156.75" gradientUnits="userSpaceOnUse" id="color-14"><stop offset="0" stop-color="#7a7a7a"/><stop offset="1" stop-color="#bdbdbd"/></linearGradient><linearGradient x1="146.91332" y1="29.67217" x2="147.66494" y2="39.14238" gradientUnits="userSpaceOnUse" id="color-15"><stop offset="0" stop-color="#7a7a7a"/><stop offset="1" stop-color="#bdbdbd"/></linearGradient><linearGradient x1="133.49624" y1="195.91473" x2="142.99624" y2="195.91473" gradientUnits="userSpaceOnUse" id="color-16"><stop offset="0" stop-color="#7a7a7a"/><stop offset="1" stop-color="#bdbdbd"/></linearGradient><linearGradient x1="436.99628" y1="108.90857" x2="446.49628" y2="108.90857" gradientUnits="userSpaceOnUse" id="color-17"><stop offset="0" stop-color="#bdbdbd"/><stop offset="1" stop-color="#7a7a7a"/></linearGradient><linearGradient x1="389.59012" y1="21.22101" x2="389.31881" y2="30.71714" gradientUnits="userSpaceOnUse" id="color-18"><stop offset="0" stop-color="#7a7a7a"/><stop offset="1" stop-color="#bdbdbd"/></linearGradient><linearGradient x1="295.25297" y1="160.2077" x2="511.46923" y2="160.2077" gradientUnits="userSpaceOnUse" id="color-19"><stop offset="0" stop-color="#222720"/><stop offset="1" stop-color="#2d342a"/></linearGradient><linearGradient x1="-62.59082" y1="186.23774" x2="324.62836" y2="186.23774" gradientUnits="userSpaceOnUse" id="color-20"><stop offset="0" stop-color="#343c31"/><stop offset="1" stop-color="#1c201a"/></linearGradient><linearGradient x1="294.40004" y1="129.28394" x2="297.60006" y2="128.71611" gradientUnits="userSpaceOnUse" id="color-21"><stop offset="0" stop-color="#303030"/><stop offset="1" stop-color="#323232"/></linearGradient><linearGradient x1="293.41544" y1="129.45864" x2="298.58466" y2="128.54137" gradientUnits="userSpaceOnUse" id="color-22"><stop offset="0" stop-color="#444444"/><stop offset="1" stop-color="#616161"/></linearGradient><linearGradient x1="293.41544" y1="129.45864" x2="298.58466" y2="128.54137" gradientUnits="userSpaceOnUse" id="color-23"><stop offset="0" stop-color="#a1a1a1"/><stop offset="1" stop-color="#707070"/></linearGradient><linearGradient x1="283.06667" y1="136.95062" x2="286.26671" y2="136.38278" gradientUnits="userSpaceOnUse" id="color-24"><stop offset="0" stop-color="#303030"/><stop offset="1" stop-color="#323232"/></linearGradient><linearGradient x1="282.08207" y1="137.12534" x2="287.25131" y2="136.20806" gradientUnits="userSpaceOnUse" id="color-25"><stop offset="0" stop-color="#444444"/><stop offset="1" stop-color="#616161"/></linearGradient><linearGradient x1="282.08207" y1="137.12534" x2="287.25131" y2="136.20806" gradientUnits="userSpaceOnUse" id="color-26"><stop offset="0" stop-color="#a1a1a1"/><stop offset="1" stop-color="#707070"/></linearGradient><radialGradient cx="8.62505" cy="351.07139" r="156.66226" gradientUnits="userSpaceOnUse" id="color-27"><stop offset="0" stop-color="#d4804f"/><stop offset="1" stop-color="#965a37"/></radialGradient><linearGradient x1="8.62505" y1="308.58547" x2="8.62505" y2="424.49377" gradientUnits="userSpaceOnUse" id="color-28"><stop offset="0" stop-color="#572020"/><stop offset="1" stop-color="#d44e4e"/></linearGradient><linearGradient x1="9.07106" y1="342.32566" x2="9.07106" y2="345.74828" gradientUnits="userSpaceOnUse" id="color-29"><stop offset="0" stop-color="#f3f3f3"/><stop offset="1" stop-color="#cdcdcd"/></linearGradient><linearGradient x1="8.62505" y1="339.15769" x2="8.62505" y2="371.29486" gradientUnits="userSpaceOnUse" id="color-30"><stop offset="0" stop-color="#4b4b4b"/><stop offset="1" stop-color="#7a7a7a"/></linearGradient><linearGradient x1="-30.52536" y1="278.02374" x2="-30.52536" y2="348.85786" gradientUnits="userSpaceOnUse" id="color-31"><stop offset="0" stop-color="#b5b5b5"/><stop offset="1" stop-color="#848484"/></linearGradient><linearGradient x1="47.92273" y1="276.88283" x2="47.92273" y2="347.717" gradientUnits="userSpaceOnUse" id="color-32"><stop offset="0" stop-color="#b5b5b5"/><stop offset="1" stop-color="#848484"/></linearGradient><radialGradient cx="-34.74126" cy="251.27062" r="15.58668" gradientUnits="userSpaceOnUse" id="color-33"><stop offset="0" stop-color="#ffffff"/><stop offset="1" stop-color="#a38989"/></radialGradient><radialGradient cx="53.53985" cy="252.00631" r="15.58668" gradientUnits="userSpaceOnUse" id="color-34"><stop offset="0" stop-color="#ffffff"/><stop offset="1" stop-color="#a38989"/></radialGradient><linearGradient x1="-100.8279" y1="295.54492" x2="-49.06308" y2="303.37631" gradientUnits="userSpaceOnUse" id="color-35"><stop offset="0" stop-color="#d42727"/><stop offset="1" stop-color="#a02020"/></linearGradient><linearGradient x1="117.61252" y1="295.54492" x2="65.84775" y2="303.37631" gradientUnits="userSpaceOnUse" id="color-36"><stop offset="0" stop-color="#d42727"/><stop offset="1" stop-color="#a02020"/></linearGradient><linearGradient x1="8.24335" y1="166.095" x2="8.24335" y2="389.5367" gradientUnits="userSpaceOnUse" id="color-37"><stop offset="0" stop-color="#d42727"/><stop offset="1" stop-color="#a02020"/></linearGradient><linearGradient x1="7.91464" y1="243.37" x2="7.91464" y2="324.26919" gradientUnits="userSpaceOnUse" id="color-38"><stop offset="0" stop-color="#d42727"/><stop offset="1" stop-color="#531111"/></linearGradient><linearGradient x1="-119.2112" y1="149.83104" x2="-75.29721" y2="149.83104" gradientUnits="userSpaceOnUse" id="color-39"><stop offset="0" stop-color="#000000"/><stop offset="1" stop-color="#4e4e4e"/></linearGradient><linearGradient x1="-135.73507" y1="155.60185" x2="-80.97871" y2="155.60185" gradientUnits="userSpaceOnUse" id="color-40"><stop offset="0" stop-color="#000000"/><stop offset="1" stop-color="#4e4e4e"/></linearGradient><linearGradient x1="-107.21383" y1="152.6361" x2="-76.18959" y2="152.6361" gradientUnits="userSpaceOnUse" id="color-41"><stop offset="0" stop-color="#000000"/><stop offset="1" stop-color="#4e4e4e"/></linearGradient><linearGradient x1="-91.67462" y1="145.77145" x2="-60.65034" y2="145.77145" gradientUnits="userSpaceOnUse" id="color-42"><stop offset="0" stop-color="#000000"/><stop offset="1" stop-color="#4e4e4e"/></linearGradient><linearGradient x1="-69.50096" y1="140.60081" x2="-46.18665" y2="140.60081" gradientUnits="userSpaceOnUse" id="color-43"><stop offset="0" stop-color="#000000"/><stop offset="1" stop-color="#4e4e4e"/></linearGradient><linearGradient x1="-53.57615" y1="134.32392" x2="-30.26187" y2="134.32392" gradientUnits="userSpaceOnUse" id="color-44"><stop offset="0" stop-color="#000000"/><stop offset="1" stop-color="#4e4e4e"/></linearGradient><linearGradient x1="-84.78558" y1="141.90034" x2="-49.10687" y2="141.90034" gradientUnits="userSpaceOnUse" id="color-45"><stop offset="0" stop-color="#000000"/><stop offset="1" stop-color="#4e4e4e"/></linearGradient><linearGradient x1="-69.34942" y1="138.30592" x2="-33.67077" y2="138.30592" gradientUnits="userSpaceOnUse" id="color-46"><stop offset="0" stop-color="#000000"/><stop offset="1" stop-color="#4e4e4e"/></linearGradient><linearGradient x1="-47.1515" y1="137.33699" x2="-19.20347" y2="137.33699" gradientUnits="userSpaceOnUse" id="color-47"><stop offset="0" stop-color="#000000"/><stop offset="1" stop-color="#4e4e4e"/></linearGradient><linearGradient x1="-31.30098" y1="134.40929" x2="-3.35294" y2="134.40929" gradientUnits="userSpaceOnUse" id="color-48"><stop offset="0" stop-color="#000000"/><stop offset="1" stop-color="#4e4e4e"/></linearGradient><linearGradient x1="-17.82135" y1="138.70142" x2="0.84478" y2="138.70142" gradientUnits="userSpaceOnUse" id="color-49"><stop offset="0" stop-color="#000000"/><stop offset="1" stop-color="#4e4e4e"/></linearGradient><linearGradient x1="-0.95976" y1="137.93014" x2="17.70635" y2="137.93014" gradientUnits="userSpaceOnUse" id="color-50"><stop offset="0" stop-color="#000000"/><stop offset="1" stop-color="#4e4e4e"/></linearGradient><linearGradient x1="14.17957" y1="140.08067" x2="37.63513" y2="140.08067" gradientUnits="userSpaceOnUse" id="color-51"><stop offset="0" stop-color="#000000"/><stop offset="1" stop-color="#4e4e4e"/></linearGradient><linearGradient x1="31.26225" y1="139.998" x2="54.71786" y2="139.998" gradientUnits="userSpaceOnUse" id="color-52"><stop offset="0" stop-color="#000000"/><stop offset="1" stop-color="#4e4e4e"/></linearGradient><linearGradient x1="-120.37321" y1="173.99282" x2="-88.50708" y2="173.99282" gradientUnits="userSpaceOnUse" id="color-53"><stop offset="0" stop-color="#000000"/><stop offset="1" stop-color="#4e4e4e"/></linearGradient><linearGradient x1="-108.7746" y1="166.6087" x2="-76.90851" y2="166.6087" gradientUnits="userSpaceOnUse" id="color-54"><stop offset="0" stop-color="#000000"/><stop offset="1" stop-color="#4e4e4e"/></linearGradient><linearGradient x1="-132.23597" y1="176.53418" x2="-90.14688" y2="176.53418" gradientUnits="userSpaceOnUse" id="color-55"><stop offset="0" stop-color="#000000"/><stop offset="1" stop-color="#4e4e4e"/></linearGradient><linearGradient x1="-120.67039" y1="171.04261" x2="-78.58133" y2="171.04261" gradientUnits="userSpaceOnUse" id="color-56"><stop offset="0" stop-color="#000000"/><stop offset="1" stop-color="#4e4e4e"/></linearGradient><linearGradient x1="-103.49714" y1="166.49731" x2="-67.42718" y2="166.49731" gradientUnits="userSpaceOnUse" id="color-57"><stop offset="0" stop-color="#000000"/><stop offset="1" stop-color="#4e4e4e"/></linearGradient><linearGradient x1="-91.5221" y1="161.36906" x2="-55.45218" y2="161.36906" gradientUnits="userSpaceOnUse" id="color-58"><stop offset="0" stop-color="#000000"/><stop offset="1" stop-color="#4e4e4e"/></linearGradient><linearGradient x1="-68.16621" y1="160.15598" x2="-51.7465" y2="160.15598" gradientUnits="userSpaceOnUse" id="color-59"><stop offset="0" stop-color="#000000"/><stop offset="1" stop-color="#4e4e4e"/></linearGradient><linearGradient x1="-55.12348" y1="156.26831" x2="-38.70381" y2="156.26831" gradientUnits="userSpaceOnUse" id="color-60"><stop offset="0" stop-color="#000000"/><stop offset="1" stop-color="#4e4e4e"/></linearGradient><linearGradient x1="-41.79474" y1="153.65893" x2="-26.76086" y2="153.65893" gradientUnits="userSpaceOnUse" id="color-61"><stop offset="0" stop-color="#000000"/><stop offset="1" stop-color="#4e4e4e"/></linearGradient><linearGradient x1="-28.49045" y1="150.1874" x2="-13.45655" y2="150.1874" gradientUnits="userSpaceOnUse" id="color-62"><stop offset="0" stop-color="#000000"/><stop offset="1" stop-color="#4e4e4e"/></linearGradient><linearGradient x1="-91.18413" y1="164.82584" x2="-55.07809" y2="164.82584" gradientUnits="userSpaceOnUse" id="color-63"><stop offset="0" stop-color="#000000"/><stop offset="1" stop-color="#4e4e4e"/></linearGradient><linearGradient x1="-73.63022" y1="161.52816" x2="-43.65839" y2="161.52816" gradientUnits="userSpaceOnUse" id="color-64"><stop offset="0" stop-color="#000000"/><stop offset="1" stop-color="#4e4e4e"/></linearGradient><linearGradient x1="-61.2525" y1="157.4666" x2="-31.28069" y2="157.4666" gradientUnits="userSpaceOnUse" id="color-65"><stop offset="0" stop-color="#000000"/><stop offset="1" stop-color="#4e4e4e"/></linearGradient><linearGradient x1="-42.77604" y1="157.42512" x2="-27.71154" y2="157.42512" gradientUnits="userSpaceOnUse" id="color-66"><stop offset="0" stop-color="#000000"/><stop offset="1" stop-color="#4e4e4e"/></linearGradient><linearGradient x1="-29.44324" y1="154.69305" x2="-14.37878" y2="154.69305" gradientUnits="userSpaceOnUse" id="color-67"><stop offset="0" stop-color="#000000"/><stop offset="1" stop-color="#4e4e4e"/></linearGradient><linearGradient x1="-17.36516" y1="153.60886" x2="-2.30763" y2="153.60886" gradientUnits="userSpaceOnUse" id="color-68"><stop offset="0" stop-color="#000000"/><stop offset="1" stop-color="#4e4e4e"/></linearGradient><linearGradient x1="-3.80818" y1="151.31465" x2="11.2493" y2="151.31465" gradientUnits="userSpaceOnUse" id="color-69"><stop offset="0" stop-color="#000000"/><stop offset="1" stop-color="#4e4e4e"/></linearGradient><linearGradient x1="-19.90317" y1="154.29473" x2="-5.32205" y2="154.29473" gradientUnits="userSpaceOnUse" id="color-70"><stop offset="0" stop-color="#000000"/><stop offset="1" stop-color="#4e4e4e"/></linearGradient><linearGradient x1="-7.11241" y1="153.73115" x2="7.46876" y2="153.73115" gradientUnits="userSpaceOnUse" id="color-71"><stop offset="0" stop-color="#000000"/><stop offset="1" stop-color="#4e4e4e"/></linearGradient><linearGradient x1="4.52004" y1="155.26297" x2="19.1156" y2="155.26297" gradientUnits="userSpaceOnUse" id="color-72"><stop offset="0" stop-color="#000000"/><stop offset="1" stop-color="#4e4e4e"/></linearGradient><linearGradient x1="17.54679" y1="155.19323" x2="32.14244" y2="155.19323" gradientUnits="userSpaceOnUse" id="color-73"><stop offset="0" stop-color="#000000"/><stop offset="1" stop-color="#4e4e4e"/></linearGradient><linearGradient x1="20.64353" y1="160.03255" x2="47.81283" y2="160.03255" gradientUnits="userSpaceOnUse" id="color-74"><stop offset="0" stop-color="#000000"/><stop offset="1" stop-color="#4e4e4e"/></linearGradient><linearGradient x1="47.00544" y1="149.00421" x2="80.63729" y2="149.00421" gradientUnits="userSpaceOnUse" id="color-75"><stop offset="0" stop-color="#000000"/><stop offset="1" stop-color="#4e4e4e"/></linearGradient><linearGradient x1="-34.51134" y1="129.88581" x2="-14.68715" y2="129.88581" gradientUnits="userSpaceOnUse" id="color-76"><stop offset="0" stop-color="#000000"/><stop offset="1" stop-color="#4e4e4e"/></linearGradient><linearGradient x1="-18.43058" y1="126.39954" x2="1.39366" y2="126.39954" gradientUnits="userSpaceOnUse" id="color-77"><stop offset="0" stop-color="#000000"/><stop offset="1" stop-color="#4e4e4e"/></linearGradient><linearGradient x1="-13.07882" y1="130.11753" x2="10.30055" y2="130.11753" gradientUnits="userSpaceOnUse" id="color-78"><stop offset="0" stop-color="#000000"/><stop offset="1" stop-color="#4e4e4e"/></linearGradient><linearGradient x1="3.85452" y1="128.75622" x2="27.23387" y2="128.75622" gradientUnits="userSpaceOnUse" id="color-79"><stop offset="0" stop-color="#000000"/><stop offset="1" stop-color="#4e4e4e"/></linearGradient><linearGradient x1="18.9462" y1="130.24646" x2="50.03035" y2="130.24646" gradientUnits="userSpaceOnUse" id="color-80"><stop offset="0" stop-color="#000000"/><stop offset="1" stop-color="#4e4e4e"/></linearGradient><linearGradient x1="36.04991" y1="129.56671" x2="67.13397" y2="129.56671" gradientUnits="userSpaceOnUse" id="color-81"><stop offset="0" stop-color="#000000"/><stop offset="1" stop-color="#4e4e4e"/></linearGradient><linearGradient x1="15.64622" y1="129.74916" x2="35.46986" y2="129.74916" gradientUnits="userSpaceOnUse" id="color-82"><stop offset="0" stop-color="#000000"/><stop offset="1" stop-color="#4e4e4e"/></linearGradient><linearGradient x1="31.40475" y1="131.44125" x2="51.22848" y2="131.44125" gradientUnits="userSpaceOnUse" id="color-83"><stop offset="0" stop-color="#000000"/><stop offset="1" stop-color="#4e4e4e"/></linearGradient><linearGradient x1="45.47757" y1="136.56688" x2="72.51439" y2="136.56688" gradientUnits="userSpaceOnUse" id="color-84"><stop offset="0" stop-color="#000000"/><stop offset="1" stop-color="#4e4e4e"/></linearGradient><linearGradient x1="61.40765" y1="139.02478" x2="88.44407" y2="139.02478" gradientUnits="userSpaceOnUse" id="color-85"><stop offset="0" stop-color="#000000"/><stop offset="1" stop-color="#4e4e4e"/></linearGradient><linearGradient x1="64.91079" y1="148.56169" x2="114.18678" y2="148.56169" gradientUnits="userSpaceOnUse" id="color-86"><stop offset="0" stop-color="#000000"/><stop offset="1" stop-color="#4e4e4e"/></linearGradient><linearGradient x1="81.08445" y1="153.38876" x2="130.36084" y2="153.38876" gradientUnits="userSpaceOnUse" id="color-87"><stop offset="0" stop-color="#000000"/><stop offset="1" stop-color="#4e4e4e"/></linearGradient><linearGradient x1="95.10729" y1="161.68732" x2="151.14613" y2="161.68732" gradientUnits="userSpaceOnUse" id="color-88"><stop offset="0" stop-color="#000000"/><stop offset="1" stop-color="#4e4e4e"/></linearGradient><linearGradient x1="-21.77755" y1="145.38637" x2="-6.72571" y2="145.38637" gradientUnits="userSpaceOnUse" id="color-89"><stop offset="0" stop-color="#000000"/><stop offset="1" stop-color="#4e4e4e"/></linearGradient><linearGradient x1="-8.39357" y1="142.23586" x2="6.65824" y2="142.23586" gradientUnits="userSpaceOnUse" id="color-90"><stop offset="0" stop-color="#000000"/><stop offset="1" stop-color="#4e4e4e"/></linearGradient><linearGradient x1="-27.3616" y1="146.27068" x2="-9.54822" y2="146.27068" gradientUnits="userSpaceOnUse" id="color-91"><stop offset="0" stop-color="#000000"/><stop offset="1" stop-color="#4e4e4e"/></linearGradient><linearGradient x1="-14.63231" y1="144.89631" x2="3.18104" y2="144.89631" gradientUnits="userSpaceOnUse" id="color-92"><stop offset="0" stop-color="#000000"/><stop offset="1" stop-color="#4e4e4e"/></linearGradient><linearGradient x1="0.11824" y1="145.48966" x2="14.87355" y2="145.48966" gradientUnits="userSpaceOnUse" id="color-93"><stop offset="0" stop-color="#000000"/><stop offset="1" stop-color="#4e4e4e"/></linearGradient><linearGradient x1="13.11431" y1="144.59294" x2="27.86959" y2="144.59294" gradientUnits="userSpaceOnUse" id="color-94"><stop offset="0" stop-color="#000000"/><stop offset="1" stop-color="#4e4e4e"/></linearGradient><linearGradient x1="16.27992" y1="148.61954" x2="39.07339" y2="148.61954" gradientUnits="userSpaceOnUse" id="color-95"><stop offset="0" stop-color="#000000"/><stop offset="1" stop-color="#4e4e4e"/></linearGradient><linearGradient x1="29.87533" y1="149.24606" x2="52.66881" y2="149.24606" gradientUnits="userSpaceOnUse" id="color-96"><stop offset="0" stop-color="#000000"/><stop offset="1" stop-color="#4e4e4e"/></linearGradient><linearGradient x1="41.93359" y1="151.99056" x2="70.82394" y2="151.99056" gradientUnits="userSpaceOnUse" id="color-97"><stop offset="0" stop-color="#000000"/><stop offset="1" stop-color="#4e4e4e"/></linearGradient><linearGradient x1="55.63884" y1="153.09643" x2="84.52845" y2="153.09643" gradientUnits="userSpaceOnUse" id="color-98"><stop offset="0" stop-color="#000000"/><stop offset="1" stop-color="#4e4e4e"/></linearGradient><linearGradient x1="12.12848" y1="148.35672" x2="26.64601" y2="148.35672" gradientUnits="userSpaceOnUse" id="color-99"><stop offset="0" stop-color="#000000"/><stop offset="1" stop-color="#4e4e4e"/></linearGradient><linearGradient x1="23.74357" y1="150.24176" x2="38.26331" y2="150.24176" gradientUnits="userSpaceOnUse" id="color-100"><stop offset="0" stop-color="#000000"/><stop offset="1" stop-color="#4e4e4e"/></linearGradient><linearGradient x1="36.76823" y1="150.48558" x2="51.28796" y2="150.48558" gradientUnits="userSpaceOnUse" id="color-101"><stop offset="0" stop-color="#000000"/><stop offset="1" stop-color="#4e4e4e"/></linearGradient><linearGradient x1="39.83566" y1="155.62782" x2="68.63339" y2="155.62782" gradientUnits="userSpaceOnUse" id="color-102"><stop offset="0" stop-color="#000000"/><stop offset="1" stop-color="#4e4e4e"/></linearGradient><linearGradient x1="53.32413" y1="157.441" x2="82.12131" y2="157.441" gradientUnits="userSpaceOnUse" id="color-103"><stop offset="0" stop-color="#000000"/><stop offset="1" stop-color="#4e4e4e"/></linearGradient><linearGradient x1="65.19751" y1="161.49096" x2="99.90674" y2="161.49096" gradientUnits="userSpaceOnUse" id="color-104"><stop offset="0" stop-color="#000000"/><stop offset="1" stop-color="#4e4e4e"/></linearGradient><linearGradient x1="78.75302" y1="163.79171" x2="113.46245" y2="163.79171" gradientUnits="userSpaceOnUse" id="color-105"><stop offset="0" stop-color="#000000"/><stop offset="1" stop-color="#4e4e4e"/></linearGradient><linearGradient x1="62.52315" y1="159.62902" x2="88.88115" y2="159.62902" gradientUnits="userSpaceOnUse" id="color-106"><stop offset="0" stop-color="#000000"/><stop offset="1" stop-color="#4e4e4e"/></linearGradient><linearGradient x1="74.78539" y1="163.31111" x2="101.14349" y2="163.31111" gradientUnits="userSpaceOnUse" id="color-107"><stop offset="0" stop-color="#000000"/><stop offset="1" stop-color="#4e4e4e"/></linearGradient><linearGradient x1="85.57614" y1="169.60938" x2="117.30507" y2="169.60938" gradientUnits="userSpaceOnUse" id="color-108"><stop offset="0" stop-color="#000000"/><stop offset="1" stop-color="#4e4e4e"/></linearGradient><linearGradient x1="97.89861" y1="173.83558" x2="129.6276" y2="173.83558" gradientUnits="userSpaceOnUse" id="color-109"><stop offset="0" stop-color="#000000"/><stop offset="1" stop-color="#4e4e4e"/></linearGradient><linearGradient x1="100.43234" y1="182.57086" x2="148.50377" y2="182.57086" gradientUnits="userSpaceOnUse" id="color-110"><stop offset="0" stop-color="#000000"/><stop offset="1" stop-color="#4e4e4e"/></linearGradient><linearGradient x1="104.28073" y1="186.49265" x2="188.80695" y2="186.49265" gradientUnits="userSpaceOnUse" id="color-111"><stop offset="0" stop-color="#000000"/><stop offset="1" stop-color="#4e4e4e"/></linearGradient><linearGradient x1="-107.10774" y1="138.7915" x2="-62.10416" y2="138.7915" gradientUnits="userSpaceOnUse" id="color-112"><stop offset="0" stop-color="#000000"/><stop offset="1" stop-color="#4e4e4e"/></linearGradient><linearGradient x1="-85.40526" y1="133.84175" x2="-47.98656" y2="133.84175" gradientUnits="userSpaceOnUse" id="color-113"><stop offset="0" stop-color="#000000"/><stop offset="1" stop-color="#4e4e4e"/></linearGradient><linearGradient x1="-70.10953" y1="127.77667" x2="-32.69081" y2="127.77667" gradientUnits="userSpaceOnUse" id="color-114"><stop offset="0" stop-color="#000000"/><stop offset="1" stop-color="#4e4e4e"/></linearGradient><linearGradient x1="-46.90544" y1="127.63981" x2="-28.26662" y2="127.63981" gradientUnits="userSpaceOnUse" id="color-115"><stop offset="0" stop-color="#000000"/><stop offset="1" stop-color="#4e4e4e"/></linearGradient><linearGradient x1="-30.42166" y1="123.53161" x2="-11.78298" y2="123.53161" gradientUnits="userSpaceOnUse" id="color-116"><stop offset="0" stop-color="#000000"/><stop offset="1" stop-color="#4e4e4e"/></linearGradient><linearGradient x1="-15.48427" y1="121.80263" x2="3.14822" y2="121.80263" gradientUnits="userSpaceOnUse" id="color-117"><stop offset="0" stop-color="#000000"/><stop offset="1" stop-color="#4e4e4e"/></linearGradient><linearGradient x1="1.279" y1="118.33969" x2="19.91135" y2="118.33969" gradientUnits="userSpaceOnUse" id="color-118"><stop offset="0" stop-color="#000000"/><stop offset="1" stop-color="#4e4e4e"/></linearGradient><linearGradient x1="-18.62055" y1="122.85813" x2="-0.56764" y2="122.85813" gradientUnits="userSpaceOnUse" id="color-119"><stop offset="0" stop-color="#000000"/><stop offset="1" stop-color="#4e4e4e"/></linearGradient><linearGradient x1="-2.79725" y1="121.95441" x2="15.25566" y2="121.95441" gradientUnits="userSpaceOnUse" id="color-120"><stop offset="0" stop-color="#000000"/><stop offset="1" stop-color="#4e4e4e"/></linearGradient><linearGradient x1="11.59833" y1="124.13256" x2="29.6714" y2="124.13256" gradientUnits="userSpaceOnUse" id="color-121"><stop offset="0" stop-color="#000000"/><stop offset="1" stop-color="#4e4e4e"/></linearGradient><linearGradient x1="27.7159" y1="123.95668" x2="45.78906" y2="123.95668" gradientUnits="userSpaceOnUse" id="color-122"><stop offset="0" stop-color="#000000"/><stop offset="1" stop-color="#4e4e4e"/></linearGradient><linearGradient x1="31.5531" y1="131.03005" x2="64.84887" y2="131.03005" gradientUnits="userSpaceOnUse" id="color-123"><stop offset="0" stop-color="#000000"/><stop offset="1" stop-color="#4e4e4e"/></linearGradient><linearGradient x1="48.29847" y1="133.15119" x2="81.59345" y2="133.15119" gradientUnits="userSpaceOnUse" id="color-124"><stop offset="0" stop-color="#000000"/><stop offset="1" stop-color="#4e4e4e"/></linearGradient><linearGradient x1="63.07455" y1="138.52172" x2="103.76332" y2="138.52172" gradientUnits="userSpaceOnUse" id="color-125"><stop offset="0" stop-color="#000000"/><stop offset="1" stop-color="#4e4e4e"/></linearGradient><linearGradient x1="79.91952" y1="141.35922" x2="120.60899" y2="141.35922" gradientUnits="userSpaceOnUse" id="color-126"><stop offset="0" stop-color="#000000"/><stop offset="1" stop-color="#4e4e4e"/></linearGradient><linearGradient x1="-157.39506" y1="177.4829" x2="-88.0005" y2="177.4829" gradientUnits="userSpaceOnUse" id="color-127"><stop offset="0" stop-color="#000000"/><stop offset="1" stop-color="#4e4e4e"/></linearGradient><linearGradient x1="-124.7831" y1="167.04155" x2="-79.56145" y2="167.04155" gradientUnits="userSpaceOnUse" id="color-128"><stop offset="0" stop-color="#000000"/><stop offset="1" stop-color="#4e4e4e"/></linearGradient><linearGradient x1="-113.64081" y1="160.29263" x2="-68.41908" y2="160.29263" gradientUnits="userSpaceOnUse" id="color-129"><stop offset="0" stop-color="#000000"/><stop offset="1" stop-color="#4e4e4e"/></linearGradient><linearGradient x1="-90.83583" y1="157.23138" x2="-64.55443" y2="157.23138" gradientUnits="userSpaceOnUse" id="color-130"><stop offset="0" stop-color="#000000"/><stop offset="1" stop-color="#4e4e4e"/></linearGradient><linearGradient x1="-78.46318" y1="151.56196" x2="-52.18172" y2="151.56196" gradientUnits="userSpaceOnUse" id="color-131"><stop offset="0" stop-color="#000000"/><stop offset="1" stop-color="#4e4e4e"/></linearGradient><linearGradient x1="-60.75222" y1="146.87312" x2="-40.63303" y2="146.87312" gradientUnits="userSpaceOnUse" id="color-132"><stop offset="0" stop-color="#000000"/><stop offset="1" stop-color="#4e4e4e"/></linearGradient><linearGradient x1="-48.06234" y1="141.57949" x2="-27.94317" y2="141.57949" gradientUnits="userSpaceOnUse" id="color-133"><stop offset="0" stop-color="#000000"/><stop offset="1" stop-color="#4e4e4e"/></linearGradient><linearGradient x1="-73.00768" y1="148.19177" x2="-42.90961" y2="148.19177" gradientUnits="userSpaceOnUse" id="color-134"><stop offset="0" stop-color="#000000"/><stop offset="1" stop-color="#4e4e4e"/></linearGradient><linearGradient x1="-60.67366" y1="144.75713" x2="-30.57574" y2="144.75713" gradientUnits="userSpaceOnUse" id="color-135"><stop offset="0" stop-color="#000000"/><stop offset="1" stop-color="#4e4e4e"/></linearGradient><linearGradient x1="-42.88082" y1="142.68147" x2="-18.98341" y2="142.68147" gradientUnits="userSpaceOnUse" id="color-136"><stop offset="0" stop-color="#000000"/><stop offset="1" stop-color="#4e4e4e"/></linearGradient><linearGradient x1="-30.20564" y1="139.67461" x2="-6.30814" y2="139.67461" gradientUnits="userSpaceOnUse" id="color-137"><stop offset="0" stop-color="#000000"/><stop offset="1" stop-color="#4e4e4e"/></linearGradient><linearGradient x1="-17.91556" y1="141.34175" x2="-2.89601" y2="141.34175" gradientUnits="userSpaceOnUse" id="color-138"><stop offset="0" stop-color="#000000"/><stop offset="1" stop-color="#4e4e4e"/></linearGradient><linearGradient x1="-4.40033" y1="139.73984" x2="10.61921" y2="139.73984" gradientUnits="userSpaceOnUse" id="color-139"><stop offset="0" stop-color="#000000"/><stop offset="1" stop-color="#4e4e4e"/></linearGradient><linearGradient x1="7.7548" y1="139.99096" x2="25.18894" y2="139.99096" gradientUnits="userSpaceOnUse" id="color-140"><stop offset="0" stop-color="#000000"/><stop offset="1" stop-color="#4e4e4e"/></linearGradient><linearGradient x1="21.45665" y1="138.84429" x2="38.89075" y2="138.84429" gradientUnits="userSpaceOnUse" id="color-141"><stop offset="0" stop-color="#000000"/><stop offset="1" stop-color="#4e4e4e"/></linearGradient><linearGradient x1="-30.37471" y1="143.34527" x2="-6.7574" y2="143.34527" gradientUnits="userSpaceOnUse" id="color-142"><stop offset="0" stop-color="#000000"/><stop offset="1" stop-color="#4e4e4e"/></linearGradient><linearGradient x1="-12.46695" y1="142.80766" x2="4.92751" y2="142.80766" gradientUnits="userSpaceOnUse" id="color-143"><stop offset="0" stop-color="#000000"/><stop offset="1" stop-color="#4e4e4e"/></linearGradient><linearGradient x1="0.42266" y1="140.92103" x2="17.81713" y2="140.92103" gradientUnits="userSpaceOnUse" id="color-144"><stop offset="0" stop-color="#000000"/><stop offset="1" stop-color="#4e4e4e"/></linearGradient><linearGradient x1="6.18033" y1="143.94957" x2="23.59067" y2="143.94957" gradientUnits="userSpaceOnUse" id="color-145"><stop offset="0" stop-color="#000000"/><stop offset="1" stop-color="#4e4e4e"/></linearGradient><linearGradient x1="19.78387" y1="143.5359" x2="37.19424" y2="143.5359" gradientUnits="userSpaceOnUse" id="color-146"><stop offset="0" stop-color="#000000"/><stop offset="1" stop-color="#4e4e4e"/></linearGradient><linearGradient x1="31.92793" y1="145.12393" x2="55.55833" y2="145.12393" gradientUnits="userSpaceOnUse" id="color-147"><stop offset="0" stop-color="#000000"/><stop offset="1" stop-color="#4e4e4e"/></linearGradient><linearGradient x1="45.67751" y1="145.18025" x2="69.308" y2="145.18025" gradientUnits="userSpaceOnUse" id="color-148"><stop offset="0" stop-color="#000000"/><stop offset="1" stop-color="#4e4e4e"/></linearGradient><linearGradient x1="29.28296" y1="144.49777" x2="43.78388" y2="144.49777" gradientUnits="userSpaceOnUse" id="color-149"><stop offset="0" stop-color="#000000"/><stop offset="1" stop-color="#4e4e4e"/></linearGradient><linearGradient x1="41.98194" y1="146.12858" x2="56.48282" y2="146.12858" gradientUnits="userSpaceOnUse" id="color-150"><stop offset="0" stop-color="#000000"/><stop offset="1" stop-color="#4e4e4e"/></linearGradient><linearGradient x1="53.34394" y1="150.15438" x2="73.69007" y2="150.15438" gradientUnits="userSpaceOnUse" id="color-151"><stop offset="0" stop-color="#000000"/><stop offset="1" stop-color="#4e4e4e"/></linearGradient><linearGradient x1="66.19097" y1="152.31196" x2="86.53648" y2="152.31196" gradientUnits="userSpaceOnUse" id="color-152"><stop offset="0" stop-color="#000000"/><stop offset="1" stop-color="#4e4e4e"/></linearGradient><linearGradient x1="69.03991" y1="159.24085" x2="107.43708" y2="159.24085" gradientUnits="userSpaceOnUse" id="color-153"><stop offset="0" stop-color="#000000"/><stop offset="1" stop-color="#4e4e4e"/></linearGradient><linearGradient x1="82.11428" y1="163.01925" x2="120.51189" y2="163.01925" gradientUnits="userSpaceOnUse" id="color-154"><stop offset="0" stop-color="#000000"/><stop offset="1" stop-color="#4e4e4e"/></linearGradient><linearGradient x1="93.47065" y1="169.19485" x2="137.36684" y2="169.19485" gradientUnits="userSpaceOnUse" id="color-155"><stop offset="0" stop-color="#000000"/><stop offset="1" stop-color="#4e4e4e"/></linearGradient><linearGradient x1="101.68804" y1="173.46488" x2="145.58381" y2="173.46488" gradientUnits="userSpaceOnUse" id="color-156"><stop offset="0" stop-color="#000000"/><stop offset="1" stop-color="#4e4e4e"/></linearGradient><linearGradient x1="-141.04239" y1="167.71506" x2="-82.18461" y2="167.71506" gradientUnits="userSpaceOnUse" id="color-157"><stop offset="0" stop-color="#000000"/><stop offset="1" stop-color="#4e4e4e"/></linearGradient><linearGradient x1="105.57505" y1="179.97115" x2="171.45556" y2="179.97115" gradientUnits="userSpaceOnUse" id="color-158"><stop offset="0" stop-color="#000000"/><stop offset="1" stop-color="#4e4e4e"/></linearGradient><linearGradient x1="-148.06849" y1="156.35056" x2="-76.55442" y2="156.35056" gradientUnits="userSpaceOnUse" id="color-159"><stop offset="0" stop-color="#000000"/><stop offset="1" stop-color="#4e4e4e"/></linearGradient><linearGradient x1="-167.44041" y1="182.0476" x2="-84.18537" y2="182.0476" gradientUnits="userSpaceOnUse" id="color-160"><stop offset="0" stop-color="#000000"/><stop offset="1" stop-color="#4e4e4e"/></linearGradient><linearGradient x1="-159.55569" y1="168.01627" x2="-84.02414" y2="168.01627" gradientUnits="userSpaceOnUse" id="color-161"><stop offset="0" stop-color="#000000"/><stop offset="1" stop-color="#3f3f3f"/></linearGradient><linearGradient x1="-180.58116" y1="207.40278" x2="-87.43992" y2="207.40278" gradientUnits="userSpaceOnUse" id="color-162"><stop offset="0" stop-color="#000000"/><stop offset="1" stop-color="#4e4e4e"/></linearGradient><linearGradient x1="-171.72917" y1="196.26673" x2="-87.25727" y2="196.26673" gradientUnits="userSpaceOnUse" id="color-163"><stop offset="0" stop-color="#000000"/><stop offset="1" stop-color="#4e4e4e"/></linearGradient><linearGradient x1="94.46788" y1="153.51457" x2="143.36234" y2="153.51457" gradientUnits="userSpaceOnUse" id="color-164"><stop offset="0" stop-color="#000000"/><stop offset="1" stop-color="#4e4e4e"/></linearGradient><linearGradient x1="99.93973" y1="184.31302" x2="183.19494" y2="184.31302" gradientUnits="userSpaceOnUse" id="color-165"><stop offset="0" stop-color="#000000"/><stop offset="1" stop-color="#4e4e4e"/></linearGradient><linearGradient x1="99.77859" y1="170.28156" x2="175.31019" y2="170.28156" gradientUnits="userSpaceOnUse" id="color-166"><stop offset="0" stop-color="#000000"/><stop offset="1" stop-color="#4e4e4e"/></linearGradient><linearGradient x1="104.84283" y1="205.77767" x2="197.80234" y2="205.77767" gradientUnits="userSpaceOnUse" id="color-167"><stop offset="0" stop-color="#000000"/><stop offset="1" stop-color="#4e4e4e"/></linearGradient><linearGradient x1="114.92594" y1="194.10965" x2="200.89028" y2="194.10965" gradientUnits="userSpaceOnUse" id="color-168"><stop offset="0" stop-color="#000000"/><stop offset="1" stop-color="#4e4e4e"/></linearGradient><radialGradient cx="193.77729" cy="263.00631" r="43.04133" gradientUnits="userSpaceOnUse" id="color-169"><stop offset="0" stop-color="#d4804f"/><stop offset="1" stop-color="#965a37"/></radialGradient><radialGradient cx="-175.60067" cy="263.75601" r="43.04133" gradientUnits="userSpaceOnUse" id="color-170"><stop offset="0" stop-color="#d4804f"/><stop offset="1" stop-color="#965a37"/></radialGradient><radialGradient cx="5.36348" cy="261.82427" r="174.12601" gradientUnits="userSpaceOnUse" id="color-171"><stop offset="0" stop-color="#d4804f"/><stop offset="1" stop-color="#965a37"/></radialGradient><radialGradient cx="13.80427" cy="270.04123" r="51.27008" gradientUnits="userSpaceOnUse" id="color-172"><stop offset="0" stop-color="#d47156"/><stop offset="1" stop-color="#d45431"/></radialGradient><radialGradient cx="240.0001" cy="180.00003" r="288.28829" gradientUnits="userSpaceOnUse" id="color-173"><stop offset="0" stop-color="#171717" stop-opacity="0"/><stop offset="1" stop-color="#171717"/></radialGradient></defs><g transform="translate(225.5728,98.72578)"><g data-paper-data="{&quot;isPaintingLayer&quot;:true}" fill-rule="nonzero" stroke-linejoin="miter" stroke-miterlimit="10" stroke-dasharray="" stroke-dashoffset="0" style="mix-blend-mode: normal"><path d="M13.40917,409.93593v-396.39639h387.21921v396.39639z" fill="url(#color-1)" stroke="none" stroke-width="0" stroke-linecap="butt"/><path d="M-225.57279,333.92242l338.36936,-212.68469l133.94102,19.22014l41.22416,181.96605z" fill="#7f7f7f" stroke="none" stroke-width="NaN" stroke-linecap="butt"/><path d="M125.19021,292.61456l-2,-272l128.80606,-5l-12,208.75208z" data-paper-data="{&quot;index&quot;:null}" fill="url(#color-2)" stroke="none" stroke-width="0" stroke-linecap="butt"/><path d="M378.99628,156.5v-157.5h86.5v157.5z" fill="#343c31" stroke="none" stroke-width="0" stroke-linecap="butt"/><path d="M303.4527,184.50003l76,-51l144,13l-8,67z" fill="#7f7f7f" stroke="none" stroke-width="0" stroke-linecap="butt"/><g><path d="M376.75562,-10.17587l-0.70238,149.60676" fill="none" stroke="#909090" stroke-width="2" stroke-linecap="round"/><path d="M373.23598,139.32593v-149.85113h18.61305v150.00893c0,0 0.33989,3.4609 -9.48212,3.57797c-9.25557,0.11032 -9.13093,-3.73577 -9.13093,-3.73577z" fill="url(#color-3)" stroke="none" stroke-width="0" stroke-linecap="butt"/><path d="M372.62799,132.98108v-3.51189c0,0 6.36137,1.40475 9.63263,1.40475c3.39663,0 10.38518,-1.58035 10.38518,-1.58035v3.3363c0,0 -6.98854,1.75594 -10.38518,1.75594c-3.27125,0 -9.63263,-1.40475 -9.63263,-1.40475z" fill="url(#color-4)" stroke="none" stroke-width="0" stroke-linecap="butt"/><path d="M372.80356,114.71922v-3.51189c0,0 6.36138,1.40475 9.63263,1.40475c3.39663,0 10.38518,-1.58035 10.38518,-1.58035v3.3363c0,0 -6.98854,1.75594 -10.38518,1.75594c-3.27125,0 -9.63263,-1.40476 -9.63263,-1.40476z" fill="url(#color-5)" stroke="none" stroke-width="0" stroke-linecap="butt"/><path d="M372.80356,94.70141v-3.51189c0,0 6.36138,1.40475 9.63263,1.40475c3.39663,0 10.38518,-1.58035 10.38518,-1.58035v3.33629c0,0 -6.98854,1.75594 -10.38518,1.75594c-3.27125,0 -9.63263,-1.40475 -9.63263,-1.40475z" fill="url(#color-6)" stroke="none" stroke-width="0" stroke-linecap="butt"/><path d="M372.97917,76.43955v-3.51189c0,0 6.36138,1.40475 9.63263,1.40475c3.39663,0 10.38518,-1.58035 10.38518,-1.58035v3.33629c0,0 -6.98854,1.75594 -10.38518,1.75594c-3.27125,0 -9.63263,-1.40475 -9.63263,-1.40475z" fill="url(#color-7)" stroke="none" stroke-width="0" stroke-linecap="butt"/><path d="M372.62799,58.3533v-3.5119c0,0 6.36137,1.40476 9.63263,1.40476c3.39663,0 10.38518,-1.58035 10.38518,-1.58035v3.3363c0,0 -6.98854,1.75594 -10.38518,1.75594c-3.27125,0 -9.63263,-1.40476 -9.63263,-1.40476z" fill="url(#color-8)" stroke="none" stroke-width="0" stroke-linecap="butt"/><path d="M372.80356,40.09143v-3.5119c0,0 6.36138,1.40476 9.63263,1.40476c3.39663,0 10.38518,-1.58035 10.38518,-1.58035v3.3363c0,0 -6.98854,1.75595 -10.38518,1.75595c-3.27125,0 -9.63263,-1.40476 -9.63263,-1.40476z" fill="url(#color-9)" stroke="none" stroke-width="0" stroke-linecap="butt"/><path d="M372.62799,20.07363v-3.5119c0,0 6.36137,1.40476 9.63263,1.40476c3.39663,0 10.38518,-1.58036 10.38518,-1.58036v3.3363c0,0 -6.98854,1.75595 -10.38518,1.75595c-3.27125,0 -9.63263,-1.40476 -9.63263,-1.40476z" fill="url(#color-10)" stroke="none" stroke-width="0" stroke-linecap="butt"/><path d="M372.80356,1.81178v-3.51189c0,0 6.36138,1.40476 9.63263,1.40476c3.39663,0 10.38518,-1.58035 10.38518,-1.58035v3.3363c0,0 -6.98854,1.75595 -10.38518,1.75595c-3.27125,0 -9.63263,-1.40476 -9.63263,-1.40476z" fill="url(#color-11)" stroke="none" stroke-width="0" stroke-linecap="butt"/></g><path d="M335.1902,173.36664v-150.75208h113.80606v165z" fill="url(#color-12)" stroke="none" stroke-width="0" stroke-linecap="butt"/><path d="M337.99628,172.25003v-152.5h9.5v153.75z" fill="url(#color-13)" stroke="none" stroke-width="0" stroke-linecap="butt"/><path d="M233.99627,232.75003l1.5,-210.5l8,1.5v210.25z" fill="url(#color-14)" stroke="none" stroke-width="0" stroke-linecap="butt"/><path d="M71.15157,35.68545l209.95875,-15.15997l-0.86232,8.0936l-209.59085,16.63549z" fill="url(#color-15)" stroke="none" stroke-width="0" stroke-linecap="butt"/><path d="M133.49624,290.93716l1.5,-263.18713l8,1.87544v262.87456z" fill="url(#color-16)" stroke="none" stroke-width="0" stroke-linecap="butt"/><path d="M436.99628,186.55626v-155.80623h9.5v157.08333z" fill="url(#color-17)" stroke="none" stroke-width="0" stroke-linecap="butt"/><path d="M313.62108,19.05047l152.43779,4.35537l-0.27132,9.49612l-153.68728,-4.39107z" fill="url(#color-18)" stroke="none" stroke-width="0" stroke-linecap="butt"/><path d="M295.25297,358.4059v-396.39639h216.21621v396.39639zM441.45275,192.50003l-1,-164l-97,-3v152z" fill="url(#color-19)" stroke="none" stroke-width="0" stroke-linecap="butt"/><path d="M459.25304,357.89839v-396.39639h74.24324v396.39639z" fill="#1a1e19" stroke="none" stroke-width="0" stroke-linecap="butt"/><path d="M-62.59082,384.43593v-396.39639h387.21921v396.39639zM137.95272,290.00003l100.5,-63l1.5,-199l-101,8z" fill="url(#color-20)" stroke="none" stroke-width="0" stroke-linecap="butt"/><path d="M-13.57281,382.92245l338.36936,-212.68469l133.94102,19.22014l41.22416,181.96605z" fill="#7f7f7f" stroke="none" stroke-width="NaN" stroke-linecap="butt"/><path d="M289.29113,192.38544l4.91111,-2.88889l17.42222,9.22222l-4.8,2.86667z" fill="#565656" stroke="none" stroke-width="0" stroke-linecap="butt"/><path d="M277.95778,200.05211l4.91111,-2.88889l17.42222,9.22222l-4.8,2.86667z" fill="#565656" stroke="none" stroke-width="0" stroke-linecap="butt"/><path d="M281.42446,60.341l5.2,0.06666l7.55556,129.08889l-4.88889,2.88889z" fill="#1b1e19" stroke="none" stroke-width="0" stroke-linecap="butt"/><path d="M270.09111,68.00767l5.2,0.06666l7.55556,129.08889l-4.88889,2.88889z" fill="#1b1e19" stroke="none" stroke-width="0" stroke-linecap="butt"/><g stroke="none" stroke-width="0" stroke-linecap="butt"><path d="M307.14833,201.12592l-25.49655,-143.68394l3.20001,-0.56784l25.49655,143.68394z" fill="url(#color-21)"/><path d="M305.68944,198.6281l-24.54807,-138.33887l5.16925,-0.91728l24.54807,138.33887z" fill="url(#color-22)"/><path d="M304.94691,194.44347l-23.06295,-129.96961l5.16925,-0.91728l23.06295,129.96961z" fill="url(#color-23)"/></g><g stroke="none" stroke-width="0" stroke-linecap="butt"><path d="M295.81496,208.79259l-25.49655,-143.68394l3.20001,-0.56784l25.49655,143.68394z" fill="url(#color-24)"/><path d="M294.35612,206.29477l-24.54807,-138.33887l5.16925,-0.91728l24.54807,138.33887z" fill="url(#color-25)"/><path d="M293.61357,202.11014l-23.06295,-129.96961l5.16925,-0.91728l23.06295,129.96961z" fill="url(#color-26)"/></g><path d="M-163.63476,317.3517c-13.25567,-75.67606 62.61365,-158.89026 170.56431,-158.42054c116.01272,0.46474 180.58104,73.64288 175.14015,158.42054c-0.15819,2.46501 -49.66383,45.84016 -173.6223,45.66445c-128.38795,-0.18199 -171.84112,-44.28862 -172.08212,-45.66445z" fill="#656565" stroke="#000000" stroke-width="0" stroke-linecap="butt"/><path d="M-207.47721,-98.72577c0,0.00004 0,0.00004 0,0.00004c0,0 0,0 -0.00004,0z" fill="#004cff" stroke="#000000" stroke-width="0" stroke-linecap="butt"/><g stroke="none" stroke-width="0" stroke-linecap="butt"><g><path d="M165.28689,351.07139c0,56.64802 -70.14009,102.57024 -156.66226,102.57024c-86.52216,0 -156.66226,-45.92235 -156.66226,-102.57024c0,-56.64794 313.32447,-56.64794 313.32447,0z" fill="url(#color-27)"/><path d="M146.10951,342.53423c0,45.265 -61.55421,81.95955 -137.48518,81.95955c-75.93101,0 -137.48522,-36.69459 -137.48522,-81.95955c0,-45.26496 274.9704,-45.26496 274.9704,0z" fill="url(#color-28)"/></g><g><path d="M-29.94604,345.74828v-3.42258h78.03421v3.42258z" fill="url(#color-29)"/><g><path d="M-23.8892,375.6301v-32.13713h65.02851v32.13713l-10.83808,4.17045h-43.89424z" fill="#616161"/><path d="M-23.8892,371.29486v-32.13709h65.02851v32.13709l-10.83808,4.17049h-43.89424z" fill="url(#color-30)"/></g><path d="M-33.89722,348.85786v-70.83417h6.74372v70.83417z" fill="url(#color-31)"/><path d="M44.55092,347.717v-70.83417h6.74372v70.83417z" fill="url(#color-32)"/></g></g><g stroke-linecap="butt"><path d="M100.51891,277.81588c-0.65779,21.57967 -20.13053,42.5035 -27.85656,60.43424c-9.43095,21.88747 -8.77716,39.31519 -27.79552,48.03214c-9.92855,4.55069 -64.75084,5.92618 -76.14292,-0.16634c-16.85032,-9.01165 -16.81576,-30.12844 -25.98041,-50.38283c-8.46233,-18.7022 -26.77614,-35.99974 -26.77614,-57.91716c0,-106.39006 41.31326,-111.72084 92.2758,-111.72084c50.96249,0 95.42283,8.47785 92.2758,111.72084z" fill="#6f1414" stroke="none" stroke-width="0"/><g stroke="none" stroke-width="0"><path d="M-19.68836,251.27062c0,8.60826 -6.73938,15.58668 -15.05289,15.58668c-8.31346,0 -15.05289,-6.97843 -15.05289,-15.58668c0,-8.6083 6.73942,-15.58668 15.05289,-15.58668c8.31346,0 15.05289,6.97838 15.05289,15.58668z" fill="url(#color-33)"/><path d="M-28.7803,251.27062c0,3.44179 -2.66881,6.2319 -5.96095,6.2319c-3.29213,0 -5.96095,-2.79011 -5.96095,-6.2319c0,-3.44179 2.66881,-6.2319 5.96095,-6.2319c3.29213,0 5.96095,2.79011 5.96095,6.2319z" fill="#000000"/></g><g stroke="none" stroke-width="0"><path d="M68.59274,252.00631c0,8.60826 -6.73938,15.58668 -15.05289,15.58668c-8.31346,0 -15.05289,-6.97843 -15.05289,-15.58668c0,-8.6083 6.73942,-15.58668 15.05289,-15.58668c8.31346,0 15.05289,6.97838 15.05289,15.58668z" fill="url(#color-34)"/><path d="M59.5008,252.00631c0,3.44179 -2.66881,6.2319 -5.96095,6.2319c-3.29213,0 -5.96095,-2.79011 -5.96095,-6.2319c0,-3.44179 2.66881,-6.2319 5.96095,-6.2319c3.29213,0 5.96095,2.79011 5.96095,6.2319z" fill="#000000"/></g><path d="M89.88961,356.44664c-2.06145,0.6701 -2.73154,-1.39135 -2.73154,-1.39135l-0.57438,-1.76695c-2.39478,-7.36725 -7.32412,-15.77778 -12.4553,-21.62644c-7.87174,-13.41959 -25.03281,-25.41479 -40.48319,-27.14273c0,0 -2.15396,-0.24299 -1.91093,-2.39695c0.24299,-2.15396 2.39695,-1.91093 2.39695,-1.91093c16.62701,1.89112 34.95998,14.49325 43.51023,28.91037c5.39568,6.17402 10.54329,15.06823 13.06518,22.82652l0.57438,1.76695c0,0 0.6701,2.06145 -1.39135,2.73154z" fill="#006f06" stroke="none" stroke-width="0.5"/><path d="M70.30133,358.65076c-2.16762,0 -2.16762,-1.94184 -2.16762,-1.94184l0.06473,-1.30317c1.80155,-6.26632 -1.6069,-16.69902 -1.61301,-23.66344c0,-10.83015 -4.9067,-18.9383 -7.69426,-29.00202c-1.12257,-4.05275 1.58431,-7.7977 0.90355,-11.77957c0,0 -0.30654,-1.92233 1.83927,-2.19697c2.14581,-0.27464 2.4524,1.64769 2.4524,1.64769c0.58734,3.89837 -2.01888,7.75018 -0.9544,11.52257c2.91731,10.33893 7.78872,18.66184 7.78872,29.80824c-0.00607,7.43389 3.33835,17.79241 1.48356,24.60536l0.06473,0.36126c0,0 0,1.94184 -2.16762,1.94184z" fill="#c40000" stroke="none" stroke-width="0.5"/><path d="M85.48762,369.8534c-2.07887,0.61396 -2.69279,-1.46492 -2.69279,-1.46492l-0.0877,-0.29696c-2.5359,-8.95547 -9.9361,-13.99496 -10.42433,-24.76498c1.77385,-14.21198 -7.39782,-28.5496 -18.98438,-36.13677c0,0 -1.8025,-1.20398 -0.59852,-3.00648c1.20398,-1.8025 3.00648,-0.59852 3.00648,-0.59852c12.78898,8.67589 22.69677,23.99951 20.90857,39.90544c0.39165,10.36104 7.59256,14.64875 10.24988,23.37341l0.0877,0.29696c0,0 0.61396,2.07887 -1.46492,2.69279z" fill="#c4c300" stroke="none" stroke-width="0.5"/><path d="M56.60802,192.63173l-0.14922,0.2713c-4.46273,7.9539 -12.41433,10.60147 -15.014,20.6387c-1.6568,15.92015 -14.61412,28.76874 -28.96335,34.50703c0,0 -2.0184,0.7904 -2.8088,-1.22795c-0.7904,-2.0184 1.22795,-2.8088 1.22795,-2.8088c12.94171,-4.93211 24.969,-16.97504 26.27733,-31.2374c2.78149,-10.41609 11.0887,-13.75535 15.48216,-21.96073l0.14922,-0.2713c0,0 1.04457,-1.89931 2.94388,-0.85478c1.89931,1.04457 0.85478,2.94388 0.85478,2.94388z" data-paper-data="{&quot;index&quot;:null}" fill="#c4c300" stroke="none" stroke-width="0.5"/><path d="M24.03282,203.73279c1.53272,-1.53272 3.06549,0 3.06549,0l0.99338,1.0529c4.26977,6.62888 5.40313,15.25903 4.0022,23.45322c4.07763,-7.36075 7.28835,-15.32275 10.4408,-22.13289c10.65757,-11.09347 16.88504,8.0869 22.4595,14.51072c0.21238,0.1079 0.39988,0.24663 0.55938,0.40821c0.47943,0.44883 0.96429,1.24131 0.43227,2.4172c-0.53202,1.17585 -1.4474,1.33482 -2.10098,1.271c-0.25808,-0.015 -0.5178,-0.07673 -0.76742,-0.18967c-0.19513,-0.08827 -0.37084,-0.20185 -0.525,-0.33511l-0.50987,-0.32545c-2.66461,-2.95043 -10.54775,-21.74666 -15.93541,-15.36017c-5.58916,12.72413 -11.89176,28.15461 -22.62775,38.05832c-0.74215,0.81117 -1.52488,1.57248 -2.34653,2.27699c0,0 -0.38753,0.32297 -0.94452,0.47029c-1.64574,1.23558 -3.38738,2.34454 -5.23545,3.30366c0,0 -1.93143,0.98392 -2.91536,-0.94751c-0.98392,-1.93143 0.94751,-2.91536 0.94751,-2.91536c2.57704,-1.28132 4.92201,-2.90175 7.07215,-4.78072c8.50755,-8.64736 11.43635,-26.70183 4.3873,-36.77796l-0.45169,-0.39217c0,0 -1.53272,-1.53272 0,-3.06549z" fill="#006f06" stroke="none" stroke-width="0.5"/><path d="M44.71284,188.24573c2.16762,0 2.16762,2.16762 2.16762,2.16762l-0.02948,0.71761c-0.36156,2.04844 -1.19427,4.00623 -2.11863,5.86965c-5.23393,6.35311 5.12832,10.84636 3.53521,17.75452c-1.40982,6.11329 -12.63807,18.88289 -16.67413,23.97731c0,0 -1.35411,1.69261 -3.04672,0.33854c-1.69261,-1.35411 -0.33854,-3.04672 -0.33854,-3.04672c3.99427,-4.93406 14.11617,-16.4712 15.84012,-22.26515c2.06986,-6.9564 -9.83157,-10.29904 -2.96764,-19.09497c0.67699,-1.33894 1.26645,-2.76289 1.49409,-4.24588l-0.02948,-0.0049c0,0 0,-2.16762 2.16762,-2.16762z" fill="#c40000" stroke="none" stroke-width="0.5"/><g><path d="M-97.67358,291.12577c-4.91897,-29.19854 14.10243,-25.98309 20.56561,-26.06629c15.55833,-0.20033 20.84693,20.79078 24.14144,37.48499c3.29456,16.6942 1.56064,29.38131 -8.66292,31.39893c-8.89295,1.75499 -14.65795,0.60919 -17.40588,-7.99222c-1.71307,-5.36221 -3.96422,-15.22239 -4.39298,-17.39513c0,0 -11.18837,-5.52395 -14.24523,-17.43028z" data-paper-data="{&quot;index&quot;:null}" fill="url(#color-35)" stroke="#000000" stroke-width="0"/><path d="M100.21302,308.55602c-0.4288,2.17269 -2.67991,12.03292 -4.39298,17.39513c-2.3738,7.43029 -6.99902,9.297 -13.94718,8.53625c-3.15891,-3.36479 -7.50065,-7.0272 -7.54591,-7.93252c-0.31058,-6.20992 -0.42542,-9.73988 -4.68379,-14.39155c-0.26506,-0.28955 -0.66034,-0.68774 -1.15183,-1.14324c0.24854,-2.67406 0.675,-5.51169 1.25991,-8.47564c3.29452,-16.6942 8.58316,-37.68532 24.14144,-37.48499c6.46314,0.08319 25.48459,-3.13225 20.56561,26.06629c-3.05686,11.90633 -14.24527,17.43028 -14.24527,17.43028z" data-paper-data="{&quot;index&quot;:null}" fill="url(#color-36)" stroke="#000000" stroke-width="0"/><path d="M-24.81621,367.44626c-13.37038,-4.3306 -14.96328,-4.87046 -11.42508,-19.55702c6.81252,-28.27804 20.86565,-26.23259 44.8085,-26.23259c23.9428,0 34.89785,-0.19053 44.18761,25.61026c5.00941,13.91276 0.82031,15.36723 -11.92714,20.30147c-16.90719,4.84462 -42.06876,7.51378 -65.64389,-0.12212z" data-paper-data="{&quot;noHover&quot;:false,&quot;origItem&quot;:[&quot;Path&quot;,{&quot;applyMatrix&quot;:true,&quot;segments&quot;:[[[494.91162,401.19867],[-7.79989,2.235],[5.88086,-2.27635]],[[500.3984,391.8859],[2.31102,6.41845],[-4.28571,-11.90283]],[[480.11269,380.17162],[11.04569,0],[-11.04569,0]],[[459.54126,392.17162],[3.14286,-13.04569],[-1.63229,6.77545]],[[464.79727,401.14365],[-6.16825,-1.99787],[10.87605,3.52271]]],&quot;closed&quot;:true,&quot;fillColor&quot;:[1,1,1]}]}" fill="#3b0000" stroke="none" stroke-width="0.5"/><path d="M-30.36314,368.85755v-8.00354h8.33696v8.00354z" fill="#bfbfbf" stroke="none" stroke-width="0"/><path d="M-22.26505,329.73152l-1.94114,-7.76453l8.08807,-2.022l1.94114,7.76453z" fill="#bfbfbf" stroke="none" stroke-width="0"/><path d="M-20.82098,370.81465l1.80658,-7.79696l8.1218,1.88188l-1.80662,7.79696z" fill="#bfbfbf" stroke="none" stroke-width="0"/><path d="M-1.89795,373.86409l1.1872,-7.91497l8.24475,1.23671l-1.18725,7.91497z" fill="#bfbfbf" stroke="none" stroke-width="0"/><path d="M9.46637,374.67296l-0.28565,-7.99842l8.33167,-0.29757l0.28569,7.99842z" fill="#bfbfbf" stroke="none" stroke-width="0"/><path d="M20.95125,373.48264l0.08337,-8.0031l8.33657,0.08683l-0.08337,8.00306z" fill="#bfbfbf" stroke="none" stroke-width="0"/><path d="M41.24016,370.83715l-2.16692,-7.70462l8.0256,-2.25718l2.16692,7.70458z" fill="#bfbfbf" stroke="none" stroke-width="0"/><path d="M-12.68874,326.17219v-8.00354h8.337v8.00354z" fill="#bfbfbf" stroke="none" stroke-width="0"/><path d="M-2.68436,328.17305v-8.00354h8.33696v8.00354z" fill="#bfbfbf" stroke="none" stroke-width="0"/><path d="M6.20335,326.48276l1.77372,-7.8045l8.12965,1.84763l-1.77372,7.8045z" fill="#bfbfbf" stroke="none" stroke-width="0"/><path d="M21.99313,326.50565v-8.00354h8.337v8.00354z" fill="#bfbfbf" stroke="none" stroke-width="0"/><path d="M100.51891,277.81588c-0.55543,18.22194 -14.52628,35.97628 -23.5121,51.85581c-1.52379,-1.48391 -2.65711,-2.65663 -2.68013,-3.11682c-0.31058,-6.20992 -0.42542,-9.73988 -4.68379,-14.39155c-2.01159,-2.1974 -11.52587,-10.65418 -13.63331,-2.92685c-1.77021,6.49084 4.99419,7.83472 7.36725,12.60747c1.85765,3.73606 4.47773,12.80823 8.20135,19.00848c-8.32595,20.66415 -8.45297,37.06126 -26.71133,45.42987c-9.92855,4.55069 -64.75084,5.92618 -76.14292,-0.16634c-16.85032,-9.01165 -16.81576,-30.12844 -25.98041,-50.38283c-8.46233,-18.7022 -26.77614,-35.99974 -26.77614,-57.91716c0,-106.39006 41.31326,-111.72084 92.2758,-111.72084c50.96249,0 95.42283,8.47785 92.2758,111.72084zM40.64482,367.45202c12.74745,-4.93423 16.90264,-6.27378 11.89324,-20.1865c-9.28976,-25.80075 -20.02882,-25.39207 -43.97163,-25.39207c-23.9428,0 -37.77844,-2.26663 -44.59096,26.0114c-3.5382,14.68656 -1.97739,15.11731 11.39304,19.4479c23.57513,7.63591 48.3692,4.96389 65.2764,0.11926zM53.77972,177.47601c-10.79573,0.78754 -9.1372,3.93349 -15.75372,10.79959c-7.17806,7.4488 -35.42228,12.87842 -23.25857,30.39155c7.01354,10.09797 28.09032,4.96822 37.98371,5.93264c4.08453,0.39815 10.85417,3.01988 14.7156,0.29636c2.84131,-2.00401 3.46008,-6.032 5.1901,-9.04798c-0.88725,-11.22271 -6.84052,-18.68113 -9.89331,-29.09124l0.73729,-2.72157c0,0 0.59844,-5.38588 -4.78749,-5.98431c-0.84459,-0.09386 -1.57148,-0.04053 -2.19675,0.1161c-1.36382,-0.69117 -2.73688,-0.69117 -2.73688,-0.69117zM55.195,264.38782c22.94245,0.30607 25.40928,-13.6735 25.40928,-13.6735c0,0 -3.42501,-11.74675 -26.85435,-12.22844c-22.94279,-0.47167 -27.33608,12.22844 -27.33608,12.22844c0,0 0.52097,13.29651 28.78114,13.6735zM-33.43647,263.17143c20.55816,0.3851 26.37266,-11.92189 26.37266,-11.92189c0,0 -1.51586,-11.95918 -25.89097,-12.88527c-25.35613,-0.96338 -28.29945,12.88527 -28.29945,12.88527c0,0 5.36164,11.5012 27.81776,11.92189z" fill="url(#color-37)" stroke="none" stroke-width="0"/><path d="M20.50411,283.8196c1.66633,7.3477 8.2907,13.4097 7.03938,16.57624c-2.3552,5.96004 -36.87572,8.21757 -38.5665,-1.7412c-0.50497,-2.97427 5.03368,-10.08046 6.34813,-14.83504c6.17597,-22.33968 5.6365,-40.4496 12.58948,-40.4496c6.95298,0 7.36365,17.40644 12.58948,40.4496z" fill="url(#color-38)" stroke="none" stroke-width="0"/></g></g><g stroke-width="0" stroke-linecap="butt"><path d="M-88.46013,183.0829l-30.75103,-66.50379l43.91401,59.17676z" fill="url(#color-39)" stroke="none"/><path d="M-98.59282,206.77257l-37.1422,-102.34186l54.75639,96.74451z" fill="url(#color-40)" stroke="none"/><path d="M-94.51458,206.31177l-12.69929,-107.3517l31.02428,103.93805z" fill="url(#color-41)" stroke="none"/><path d="M-78.97531,199.44749l-12.69933,-107.3517l31.02423,103.93801z" fill="url(#color-42)" stroke="none"/><path d="M-64.62878,194.75434l-4.87215,-108.30658l23.31428,105.60569z" fill="url(#color-43)" stroke="none"/><path d="M-48.70399,188.47745l-4.87215,-108.30663l23.31428,105.60569z" fill="url(#color-44)" stroke="none"/><path d="M-84.78558,86.83975l30.96202,95.56295c-5.44133,0.10643 -10.63697,1.21543 -15.40985,3.14985z" fill="url(#color-45)" stroke="none"/><path d="M-52.06753,192.93732l-17.28185,-109.69182l35.67863,110.12079z" fill="url(#color-46)" stroke="none"/><path d="M-37.74827,191.25841l-9.40321,-109.0069l27.94799,110.17104z" fill="url(#color-47)" stroke="none"/><path d="M-21.89777,188.33074l-9.40321,-109.00685l27.94804,110.17099z" fill="url(#color-48)" stroke="none"/><path d="M-17.82135,189.38l15.6136,-104.81733l3.05252,108.27771z" fill="url(#color-49)" stroke="none"/><path d="M-0.95976,188.60863l15.61356,-104.81733l3.05257,108.27771z" fill="url(#color-50)" stroke="none"/><path d="M14.17957,189.43163l23.45557,-102.86951l-4.86118,107.03775z" fill="url(#color-51)" stroke="none"/><path d="M31.26225,189.34857l23.45557,-102.86951l-4.86118,107.03779z" fill="url(#color-52)" stroke="none"/><path d="M-102.53151,209.73982l-17.8417,-71.49368l31.86618,65.99869z" fill="url(#color-53)" stroke="none"/><path d="M-90.93286,202.35544l-17.84174,-71.49364l31.86614,65.99865z" fill="url(#color-54)" stroke="none"/><path d="M-104.54185,211.50391l-27.69408,-69.93903l42.08909,66.54731z" fill="url(#color-55)" stroke="none"/><path d="M-92.97627,206.01212l-27.69408,-69.93898l42.08905,66.54731z" fill="url(#color-56)" stroke="none"/><path d="M-82.03284,202.02544l-21.46426,-71.05617l36.06993,68.12677z" fill="url(#color-57)" stroke="none"/><path d="M-70.05791,196.89677l-21.46426,-71.05617l36.06993,68.12672z" fill="url(#color-58)" stroke="none"/><path d="M-66.74447,196.78384l-1.42174,-73.25544l16.4197,71.83821z" fill="url(#color-59)" stroke="none"/><path d="M-53.70178,192.89574l-1.42174,-73.25544l16.4197,71.83821z" fill="url(#color-60)" stroke="none"/><path d="M-41.79474,190.4192l4.94325,-73.52028l10.0906,72.59102z" fill="url(#color-61)" stroke="none"/><path d="M-28.49045,186.94789l4.94325,-73.52028l10.09056,72.59102z" fill="url(#color-62)" stroke="none"/><path d="M-91.18413,128.77907l25.12441,48.69166c-3.41009,0.56588 -6.68571,1.52977 -9.77756,2.84235z" fill="url(#color-63)" stroke="none"/><path d="M-73.63022,125.19734l23.20919,54.99634c-3.94389,0.04886 -7.76094,0.62427 -11.38406,1.65931z" fill="url(#color-64)" stroke="none"/><path d="M-46.08664,193.79751l-15.16586,-72.66151l29.97181,71.02101z" fill="url(#color-65)" stroke="none"/><path d="M-42.77604,193.97457l4.99224,-73.09898l10.07227,72.99922z" fill="url(#color-66)" stroke="none"/><path d="M-29.44324,191.2425l4.9922,-73.09893l10.07222,72.99918z" fill="url(#color-67)" stroke="none"/><path d="M-17.36516,189.81708l11.35597,-72.806l3.70155,73.19544z" fill="url(#color-68)" stroke="none"/><path d="M-3.80818,187.52296l11.35597,-72.806l3.70151,73.19548z" fill="url(#color-69)" stroke="none"/><path d="M-19.90317,190.66097l1.67418,-75.20386l12.90699,77.67521z" fill="url(#color-70)" stroke="none"/><path d="M-7.11241,190.09761l1.67422,-75.20386l12.90694,77.67521z" fill="url(#color-71)" stroke="none"/><path d="M4.52004,190.67883l7.84829,-73.81121l6.74727,76.79043z" fill="url(#color-72)" stroke="none"/><path d="M17.54679,190.60934l7.84833,-73.81121l6.74731,76.79039z" fill="url(#color-73)" stroke="none"/><path d="M20.64353,191.7929l27.16926,-68.04566l-12.80008,72.5706z" fill="url(#color-74)" stroke="none"/><path d="M56.76136,139.20953c1.61578,-14.6449 23.87647,-36.43083 23.87647,-36.43083c0,0 -17.59108,33.7755 -16.84524,49.72743c0.27386,5.85729 0.17497,12.89025 -0.06802,19.54349c-2.84534,-0.58751 -5.79261,-0.89618 -8.81201,-0.89618c-1.11476,0 -2.21968,0.04205 -3.31325,0.12472c2.07714,-11.23289 4.26518,-23.93933 5.16205,-32.06863z" data-paper-data="{&quot;index&quot;:null}" fill="url(#color-75)" stroke="none"/><path d="M-33.16204,184.05915l-1.34934,-108.865l19.8242,109.38354z" fill="url(#color-76)" stroke="none"/><path d="M-17.08124,180.57288l-1.34934,-108.865l19.8242,109.38358z" fill="url(#color-77)" stroke="none"/><path d="M-13.07882,181.4812l23.3794,-105.54179l-4.95292,108.35631z" fill="url(#color-78)" stroke="none"/><path d="M3.85452,180.1199l23.3794,-105.54179l-4.95292,108.35631z" fill="url(#color-79)" stroke="none"/><path d="M18.9462,180.41565l31.08415,-103.86448l-12.78183,107.39059z" fill="url(#color-80)" stroke="none"/><path d="M36.04991,179.73592l31.08415,-103.86453l-12.78187,107.39059z" fill="url(#color-81)" stroke="none"/><path d="M15.64622,181.14661l19.82368,-109.26107l-2.59537,115.72738z" fill="url(#color-82)" stroke="none"/><path d="M31.40475,182.83869l19.82372,-109.26107l-2.59546,115.72738z" fill="url(#color-83)" stroke="none"/><path d="M45.47757,185.97172l27.03677,-106.01858l-9.91099,113.22772z" fill="url(#color-84)" stroke="none"/><path d="M61.40765,188.42972l27.03682,-106.01853l-9.91095,113.22772z" fill="url(#color-85)" stroke="none"/><path d="M114.18678,96.94258l-27.18894,85.59624c-4.06641,-3.28771 -8.73935,-5.85499 -13.82467,-7.5078z" fill="url(#color-86)" stroke="none"/><path d="M81.08445,195.59052l49.27639,-93.82053l-32.79262,103.23774z" fill="url(#color-87)" stroke="none"/><path d="M95.10729,201.35547l56.03879,-89.39772l-39.85593,99.45963z" fill="url(#color-88)" stroke="none"/><path d="M-21.77755,182.0763l6.70981,-73.38016l8.34203,72.81268z" fill="url(#color-89)" stroke="none"/><path d="M-8.39357,178.9258l6.70981,-73.38016l8.34203,72.81268z" fill="url(#color-90)" stroke="none"/><path d="M-24.25692,183.07978l-3.10468,-75.15843l17.81339,76.69887z" fill="url(#color-91)" stroke="none"/><path d="M-11.52767,181.7052l-3.10468,-75.15843l17.81335,76.69887z" fill="url(#color-92)" stroke="none"/><path d="M0.11824,181.54679l3.14539,-74.16063l11.60993,76.20695z" fill="url(#color-93)" stroke="none"/><path d="M13.11431,180.65009l3.14539,-74.16063l11.60993,76.20695z" fill="url(#color-94)" stroke="none"/><path d="M16.27992,181.63493l22.79345,-69.63361l-8.16593,73.23693z" fill="url(#color-95)" stroke="none"/><path d="M29.87533,182.26107l22.79345,-69.63361l-8.16593,73.23693z" fill="url(#color-96)" stroke="none"/><path d="M41.93359,183.84607l28.8903,-67.78658l-14.38972,71.86244z" fill="url(#color-97)" stroke="none"/><path d="M55.63884,184.95156l28.8903,-67.78658l-14.38972,71.86244z" fill="url(#color-98)" stroke="none"/><path d="M12.12848,184.51682l3.48219,-75.14191l11.03534,77.96315z" fill="url(#color-99)" stroke="none"/><path d="M23.74357,185.3778l9.62101,-73.60117l4.89873,76.93046z" fill="url(#color-100)" stroke="none"/><path d="M36.76823,185.62161l9.62101,-73.60117l4.89873,76.9305z" fill="url(#color-101)" stroke="none"/><path d="M39.83566,186.87952l28.7977,-67.37261l-14.5415,72.24182z" fill="url(#color-102)" stroke="none"/><path d="M53.32413,188.69286l28.7977,-67.37261l-14.5415,72.24177z" fill="url(#color-103)" stroke="none"/><path d="M65.19751,191.32634l34.70962,-64.99933l-20.62115,70.32811z" fill="url(#color-104)" stroke="none"/><path d="M78.75302,193.62671l34.70962,-64.99933l-20.62119,70.32811z" fill="url(#color-105)" stroke="none"/><path d="M88.88115,120.83362l-9.67364,55.99002c-3.31845,-1.14593 -6.81945,-1.90018 -10.44783,-2.20759z" fill="url(#color-106)" stroke="none"/><path d="M74.78539,194.96907l26.35852,-70.45323l-13.40571,77.59067z" fill="url(#color-107)" stroke="none"/><path d="M85.57614,199.35047l31.72901,-67.10413l-18.92993,74.72586z" fill="url(#color-108)" stroke="none"/><path d="M97.89861,203.57698l31.72901,-67.10413l-18.92993,74.72586z" fill="url(#color-109)" stroke="none"/><path d="M100.43234,205.71473l48.07154,-55.29474l-35.99553,64.30127z" fill="url(#color-110)" stroke="none"/><path d="M104.28073,206.47153c0,0 30.41795,-24.67264 42.94938,-36.89791c10.54637,-10.28868 41.57676,-12.9871 41.57676,-12.9871c0,0 -35.0348,14.92621 -44.58645,27.72412c-9.95513,13.33847 -28.24461,32.08849 -28.24461,32.08849z" data-paper-data="{&quot;index&quot;:null}" fill="url(#color-111)" stroke="none"/><path d="M-80.20385,191.94624l-26.9039,-106.30982l45.00359,103.09867z" fill="url(#color-112)" stroke="none"/><path d="M-66.29815,187.43365l-19.10707,-107.18363l37.41866,104.6786z" fill="url(#color-113)" stroke="none"/><path d="M-51.00241,181.36827l-19.10711,-107.18363l37.4187,104.6786z" fill="url(#color-114)" stroke="none"/><path d="M-46.90544,181.6113l5.83236,-107.94277l12.80641,107.71083z" fill="url(#color-115)" stroke="none"/><path d="M-30.42166,177.50311l5.83236,-107.94277l12.80637,107.71079z" fill="url(#color-116)" stroke="none"/><path d="M-15.48427,175.33072l13.70758,-107.54605l4.92483,108.03637z" fill="url(#color-117)" stroke="none"/><path d="M1.279,171.86747l13.70758,-107.5461l4.92478,108.03641z" fill="url(#color-118)" stroke="none"/><path d="M-18.62055,176.5905l1.71706,-111.03158l16.33581,114.598z" fill="url(#color-119)" stroke="none"/><path d="M-2.79725,175.68677l1.71714,-111.03158l16.33577,114.598z" fill="url(#color-120)" stroke="none"/><path d="M11.59833,176.4799l9.36285,-109.01036l8.71027,113.32639z" fill="url(#color-121)" stroke="none"/><path d="M27.7159,176.30363l9.36285,-109.01036l8.71031,113.32639z" fill="url(#color-122)" stroke="none"/><path d="M31.5531,178.03417l33.29572,-100.60742l-15.49551,107.20669z" fill="url(#color-123)" stroke="none"/><path d="M48.29847,180.15562l33.29568,-100.60742l-15.49547,107.20669z" fill="url(#color-124)" stroke="none"/><path d="M63.07455,183.55336l40.68951,-97.34815l-23.08091,104.63264z" fill="url(#color-125)" stroke="none"/><path d="M79.91952,186.39094l40.68946,-97.34819l-23.08091,104.63264z" fill="url(#color-126)" stroke="none"/><path d="M-101.78152,204.54668c0,0 -13.03947,-16.27694 -19.35903,-27.39139c-6.06339,-10.66402 -36.25448,-26.73543 -36.25448,-26.73543c0,0 29.3533,6.66135 37.00226,15.67061c9.08869,10.70499 32.39226,33.08937 32.39226,33.08937z" fill="url(#color-127)" stroke="none"/><path d="M-93.61559,200.72504l-31.16751,-67.36676l45.22165,62.42832z" fill="url(#color-128)" stroke="none"/><path d="M-82.47321,193.97604l-31.16756,-67.36676l45.22169,62.42832z" fill="url(#color-129)" stroke="none"/><path d="M-79.20812,193.40153l-11.62779,-72.34066l26.28144,68.8449z" fill="url(#color-130)" stroke="none"/><path d="M-66.83531,187.73213l-11.62779,-72.34066l26.2814,68.8449z" fill="url(#color-131)" stroke="none"/><path d="M-55.39023,183.61856l-5.36199,-73.49093l20.11921,70.47339z" fill="url(#color-132)" stroke="none"/><path d="M-42.7003,178.32511l-5.36203,-73.49093l20.11921,70.47339z" fill="url(#color-133)" stroke="none"/><path d="M-57.67251,185.01333l-15.33515,-73.64279l30.09797,72.76083z" fill="url(#color-134)" stroke="none"/><path d="M-45.33851,181.5787l-15.33511,-73.64279l30.09792,72.76087z" fill="url(#color-135)" stroke="none"/><path d="M-33.87488,179.5209l-9.00601,-73.6789l23.89746,73.28851z" fill="url(#color-136)" stroke="none"/><path d="M-21.19958,176.51406l-9.00606,-73.6789l23.89746,73.28851z" fill="url(#color-137)" stroke="none"/><path d="M-17.91556,176.96861l11.11753,-72.42086l3.90206,73.58743z" fill="url(#color-138)" stroke="none"/><path d="M-4.40033,175.36692l11.11753,-72.42086l3.90201,73.58743z" fill="url(#color-139)" stroke="none"/><path d="M7.7548,174.96127l17.43414,-71.59413l-2.46263,73.24759z" fill="url(#color-140)" stroke="none"/><path d="M21.45665,173.8146l17.43414,-71.59413l-2.46263,73.24759z" fill="url(#color-141)" stroke="none"/><path d="M-21.54076,180.48982l-8.83395,-74.70202l23.61736,75.11495z" fill="url(#color-142)" stroke="none"/><path d="M-9.94096,179.44291l-2.52597,-74.1843l17.39443,75.09813z" fill="url(#color-143)" stroke="none"/><path d="M2.94871,177.55669l-2.52597,-74.1843l17.39448,75.09813z" fill="url(#color-144)" stroke="none"/><path d="M6.18033,178.29654l17.41039,-71.17062l-2.55042,73.64665z" fill="url(#color-145)" stroke="none"/><path d="M19.78387,177.88318l17.41039,-71.17062l-2.55042,73.64665z" fill="url(#color-146)" stroke="none"/><path d="M31.92793,178.54269l23.63045,-69.79449l-8.861,72.75138z" fill="url(#color-147)" stroke="none"/><path d="M45.67751,178.59901l23.63045,-69.79453l-8.861,72.75134z" fill="url(#color-148)" stroke="none"/><path d="M29.28296,178.94054l14.50088,-73.81156l-0.55643,78.73829z" fill="url(#color-149)" stroke="none"/><path d="M41.98194,180.57093l14.50092,-73.8116l-0.55651,78.73829z" fill="url(#color-150)" stroke="none"/><path d="M53.34394,183.1318l20.34616,-71.38435l-6.47437,76.81388z" fill="url(#color-151)" stroke="none"/><path d="M66.19097,185.28927l20.34616,-71.38435l-6.47437,76.81388z" fill="url(#color-152)" stroke="none"/><path d="M69.03991,186.98487l38.39769,-62.40196l-25.01309,69.31579z" fill="url(#color-153)" stroke="none"/><path d="M82.11428,190.76307l38.39764,-62.40196l-25.01309,69.31579z" fill="url(#color-154)" stroke="none"/><path d="M93.47065,195.11499l43.89602,-59.18452l-30.745,66.52832z" fill="url(#color-155)" stroke="none"/><path d="M101.68804,199.38502l43.89598,-59.18457l-30.745,66.52837z" fill="url(#color-156)" stroke="none"/><path d="M-96.73466,199.57174c0,0 -9.70689,-18.45925 -13.79792,-30.5725c-3.92521,-11.62233 -30.50986,-33.14087 -30.50986,-33.14087c0,0 27.55132,12.12084 33.34779,22.4201c6.88756,12.2378 25.50999,38.64458 25.50999,38.64458z" fill="url(#color-157)" stroke="none"/><path d="M105.57505,204.47407c0,0 21.7105,-23.93257 30.04222,-35.23674c7.01189,-9.51354 35.83812,-18.17594 35.83812,-18.17594c0,0 -29.0155,18.10779 -34.33184,29.1632c-5.54095,11.5224 -17.43132,28.65676 -17.43132,28.65676z" data-paper-data="{&quot;index&quot;:null}" fill="url(#color-158)" stroke="none"/><path d="M-90.14345,193.5211c0,0 -13.72752,-22.30747 -20.51186,-37.50588c-6.50935,-14.58247 -37.41315,-36.83522 -37.41315,-36.83522c0,0 29.68122,9.44418 37.71185,21.79699c9.5422,14.67789 33.80225,45.42592 33.80225,45.42592z" data-paper-data="{&quot;index&quot;:null}" fill="url(#color-159)" stroke="none"/><path d="M-95.59974,200.47928c0,0 -18.06401,-11.59831 -27.91587,-21.09568c-9.45259,-9.11249 -43.92481,-9.99315 -43.92481,-9.99315c0,0 30.46655,-9.91516 40.87965,-3.75904c12.37306,7.31488 42.37544,19.98595 42.37544,19.98595z" data-paper-data="{&quot;index&quot;:null}" fill="url(#color-160)" stroke="none"/><path d="M-97.42075,194.78742c0,0 -14.95053,-17.25401 -22.53988,-29.84501c-7.28172,-12.08065 -39.59503,-23.69387 -39.59503,-23.69387c0,0 30.46178,-0.46023 39.17434,8.95469c10.35249,11.18698 36.35713,33.23282 36.35713,33.23282z" data-paper-data="{&quot;index&quot;:null}" fill="url(#color-161)" stroke="none"/><path d="M-100.22755,220.18929c0,0 -20.20063,-6.81018 -31.21446,-13.35959c-10.56748,-6.28396 -49.13914,-0.2827 -49.13914,-0.2827c0,0 34.10086,-14.86266 45.74612,-11.41042c13.8372,4.10204 47.39512,9.52013 47.39512,9.52013z" data-paper-data="{&quot;index&quot;:null}" fill="url(#color-162)" stroke="none"/><path d="M-102.25926,215.46011c0,0 -16.7109,-12.47884 -25.18983,-22.2391c-8.13528,-9.36467 -44.28012,-13.38213 -44.28012,-13.38213c0,0 34.08565,-6.41012 43.82479,0.2899c11.57226,7.96114 40.64715,22.54642 40.64715,22.54642z" data-paper-data="{&quot;index&quot;:null}" fill="url(#color-163)" stroke="none"/><path d="M94.46788,194.63487c0,0 14.27848,-36.47076 19.14374,-53.28813c4.09458,-14.15332 29.75076,-31.81481 29.75076,-31.81481c0,0 -23.10406,30.27263 -25.09515,46.11735c-2.07519,16.51403 -8.72826,41.84788 -8.72826,41.84788z" data-paper-data="{&quot;index&quot;:null}" fill="url(#color-164)" stroke="none"/><path d="M99.93973,187.88274c0,0 30.00238,-12.67106 42.37544,-19.98595c10.4131,-6.15616 40.87965,3.75904 40.87965,3.75904c0,0 -34.47222,0.8807 -43.92481,9.99315c-9.85186,9.49737 -27.91587,21.09568 -27.91587,21.09568z" data-paper-data="{&quot;index&quot;:null}" fill="url(#color-165)" stroke="none"/><path d="M99.77859,185.70155c0,0 26.00464,-22.04579 36.35718,-33.23282c8.71261,-9.41491 39.17434,-8.95469 39.17434,-8.95469c0,0 -32.31327,11.61322 -39.59499,23.69387c-7.58935,12.59099 -22.53988,29.84501 -22.53988,29.84501z" data-paper-data="{&quot;index&quot;:null}" fill="url(#color-166)" stroke="none"/><path d="M104.84283,201.58173c0,0 33.76943,-3.88801 47.7787,-7.3572c11.7901,-2.91965 45.18055,13.47685 45.18055,13.47685c0,0 -38.25922,-7.74732 -49.10125,-1.9499c-11.3,6.04228 -31.78914,11.92775 -31.78914,11.92775z" data-paper-data="{&quot;index&quot;:null}" fill="url(#color-167)" stroke="none"/><path d="M114.92594,197.87381c0,0 30.10044,-12.33062 42.2449,-19.38808c10.22075,-5.93953 43.71979,3.04572 43.71979,3.04572c0,0 -36.34573,1.2554 -45.17001,9.9739c-9.19703,9.08678 -26.80904,20.25785 -26.80904,20.25785z" data-paper-data="{&quot;index&quot;:null}" fill="url(#color-168)" stroke="none"/><g><path d="M173.83899,235.78898c12.034,0 22.30538,11.53207 26.33958,27.75881c-2.92633,2.15179 -8.46545,0.67972 -10.5207,3.75969c-3.03514,4.5484 -1.05728,18.77616 4.75007,22.61275c-3.62096,3.0543 -6.83328,6.77922 -8.69743,11.07219c-1.89571,4.36571 -1.82574,11.16951 -1.20585,17.68641c-1.84,1.15122 -3.77751,2.01346 -5.78827,2.54985c-0.30884,-0.6316 -0.61023,-1.26728 -0.9029,-1.90703c0.47796,-0.65094 0.84472,-1.51027 1.00651,-2.64289c0.58634,-4.1043 -2.41603,-5.51711 -3.85905,-5.9544c-1.84521,-13.32027 -3.78583,-28.75357 -9.37213,-40.73403c-1.78291,-3.82363 -3.50109,-9.55767 -6.78681,-10.79837c1.0382,-13.74083 4.36662,-23.40307 15.03698,-23.40307z" data-paper-data="{&quot;index&quot;:null}" fill="url(#color-169)" stroke="none"/><path d="M-140.15491,280.84593c0,23.77108 0.04851,41.7754 -15.50752,41.7754c-15.55608,0 -28.16675,-19.27024 -28.16675,-43.04133c0,-23.77108 12.61067,-43.04133 28.16675,-43.04133c15.55608,0 15.50752,20.53618 15.50752,44.30726z" fill="url(#color-170)" stroke="none"/><g><path d="M-163.63476,317.3517c-13.25567,-75.67606 62.61365,-158.89026 170.56431,-158.42054c116.01272,0.46474 180.58104,73.64288 175.14015,158.42054c-0.03724,0.58027 -2.80888,3.42739 -8.64238,7.43969c-2.365,-1.35173 -5.10899,-3.04624 -5.80848,-4.05245c-2.14507,-3.08556 -1.25518,-7.33444 -0.7601,-11.45083c0.85018,-1.21001 1.36681,-2.98082 0.20102,-5.31244c-0.03659,-0.07322 -0.07379,-0.1448 -0.11146,-0.21472c-0.16478,-0.99641 -0.47289,-1.93984 -0.9906,-2.80529c-6.73075,-11.25175 -19.42358,1.00135 -24.92304,-5.23549c-2.86676,-3.25117 -3.7032,-8.56889 -7.53251,-10.59991c-12.63534,-6.70153 -28.18435,3.16689 -20.96636,17.9128c1.97054,4.02565 10.88074,9.19083 14.47946,12.06461c10.72663,6.721 18.76996,3.44694 28.98494,-0.25994c-0.1614,1.19405 -0.22196,2.38264 -0.01886,3.55589c1.06794,6.16986 3.6455,9.69905 7.37133,12.59437c-24.32912,13.52376 -73.60308,32.14333 -154.90527,32.02806c-128.38795,-0.18199 -171.84112,-44.28862 -172.08212,-45.66445zM-8.03203,227.86265c0,-17.9571 -17.24582,-37.91691 -45.9954,-30.13521c-26.62284,7.20607 -46.4115,24.15553 -42.03035,45.20236c7.55354,36.28669 37.65363,27.08897 56.30446,19.03315c19.54315,-8.44118 31.7213,-16.1432 31.7213,-34.1003zM56.2006,261.9629c17.3581,4.59934 43.55922,14.60046 56.30446,-20.61911c8.45058,-23.35191 -32.7963,-46.7884 -50.75341,-46.7884c-17.9571,0 -38.0653,14.55715 -38.0653,32.51425c0,17.9571 14.55715,30.13521 32.51425,34.89326z" fill="url(#color-171)" stroke="#000000"/><path d="M23.47028,227.05214c0,-17.9571 20.28356,-32.70969 38.24066,-32.70969c17.9571,0 59.4553,23.70046 51.00472,47.05237c-12.74524,35.21957 -39.23729,25.3687 -56.59539,20.76937c-17.9571,-4.75805 -32.65003,-17.155 -32.65003,-35.1121z" data-paper-data="{&quot;noHover&quot;:false,&quot;origItem&quot;:[&quot;Path&quot;,{&quot;applyMatrix&quot;:true,&quot;segments&quot;:[[[251.59926,110.59969],[-4.14213,-1.09753],[4.00396,1.06092]],[[264.5869,105.84352],[-2.93992,8.12403],[1.94928,-5.38654]],[[252.87971,95.05093],[4.14213,0],[-4.14213,0]],[[244.09926,102.55093],[0,-4.14213],[0,4.14213]]],&quot;closed&quot;:true,&quot;fillColor&quot;:[0,0,0,1],&quot;strokeWidth&quot;:0}]}" fill="#000000" stroke="none"/><path d="M-39.66772,262.16211c-18.65083,8.05582 -49.04749,17.10401 -56.60103,-19.18267c-4.38114,-21.04682 15.6081,-38.26247 42.23094,-45.46854c28.74958,-7.7817 46.22131,12.37137 46.22131,30.32847c0,17.9571 -12.30812,25.88152 -31.85127,34.3227z" data-paper-data="{&quot;noHover&quot;:false,&quot;origItem&quot;:[&quot;Path&quot;,{&quot;applyMatrix&quot;:true,&quot;segments&quot;:[[[236.78285,102.73385],[0,4.14213],[0,-4.14213]],[[226.17318,95.78262],[6.63161,-1.79499],[-6.14104,1.66221]],[[216.47812,106.20936],[-1.01059,-4.85483],[1.74236,8.37018]],[[229.46576,110.5997],[-4.30215,1.85822],[4.50798,-1.94711]]],&quot;closed&quot;:true,&quot;fillColor&quot;:[0,0,0,1],&quot;strokeWidth&quot;:0}]}" fill="#000000" stroke="none"/><path d="M46.44446,288.92609c0,26.34487 -17.07584,47.70153 -38.13996,47.70153c-21.06412,0 -38.13996,-21.35671 -38.13996,-47.70153c0,-26.34487 17.07584,-47.70157 38.13996,-47.70157c21.06412,0 38.13996,21.35675 38.13996,47.70157z" fill="url(#color-172)" stroke="none"/></g></g></g><path d="M-55.15179,227.98751l0.13769,-0.16062l0.73586,-0.63073l0.03655,-0.02436l0.02866,-0.03152l0.19062,-0.16339l0.0414,-0.0023l0.10725,-0.12516l0.37136,-0.31829l0.15724,-0.09433l0.23532,-0.23532l0.00841,-0.01405l0.1764,-0.15121l0.00806,-0.14532l0.16006,-0.16006l0.01396,-0.02324l0.03247,-0.01855l0.01526,-0.061l0.18685,-0.31144l0.59822,-0.38068l0.00091,-0.00464l0.00464,-0.00091l0.24264,-0.38128c1.75482,0.14922 3.59781,-0.11228 5.2589,-0.74657l0.69359,0.11185l0.65024,0.2827l0.4425,0.07374l0.05402,0.09455l0.46803,0.11701l0.15143,0.10097l0.35007,0.12503l0.09191,0.07877l0.02866,0.03152l0.03655,0.02436l0.12516,0.1073l0.11384,0.05692l0.28157,0.21117l0.49283,0.20748l0.40599,0.34799l0.12733,0.06364l0.03277,0.05736l0.16392,0.04097l0.14662,0.07331l0.18659,0.04144l0.36212,0.28166l0.0724,0.03199l0.0424,0.19075l0.07331,0.14662l0.04097,0.16392l0.13296,0.076l0.21841,0.25478l0.0078,0.01855l0.11484,0.51672l0.19097,0.38193l0.27628,1.10518l0.09325,0.05328l0.00975,0.03199l0.35297,0.58829l0.32523,0.32523l0.19994,0.41419l0.40131,0.4816v2.22918l-0.00342,0.01708l0.00342,0.07175v0.4937l0.0147,0.05883l-0.13235,0.52946v0.12347l-0.06494,0.04131l-0.10118,0.50601l-0.3427,0.3427l-0.28535,0.16305l-0.12399,0.49599l-0.25838,0.20996l-0.35297,0.47063l-0.02475,0.05879l-0.25235,0.25235l-0.11111,0.1852l-0.18022,0.19825l-0.22569,0.12897l-0.04114,0.16457l-0.1141,0.12551l0.00997,0.14449l-0.07803,0.13001l-0.24733,0.14133l-0.11098,0.44393l-0.59159,0.69017l-0.08488,0.16972l-0.29501,0.22127l-0.2354,0.01309l-0.08341,0.09728l-0.20016,0.04448l-0.14662,0.07331l-0.16392,0.04097l-0.07305,0.12785l-1.02832,0.22851l-0.14662,0.07331l-0.16392,0.04097l-0.03277,0.05736l-0.23896,0.11948l-0.10708,-0.00858l-0.09386,0.01565l-0.02202,-0.0147l-0.16496,0.03663h-0.16392l-0.94127,0.23532h-3.52966l-0.47063,-0.11766h-0.16392l-0.16496,-0.03663l-0.05497,0.03663h-0.12082l-0.27711,-0.27711l-0.04864,-0.02918l-0.23428,-0.27329l-0.14532,-0.00806l-0.0424,-0.0424l-0.61482,-0.36889l-0.44345,-0.38011l-0.1412,-0.07058l-0.32943,-0.28235l-0.43062,-0.21529l-0.20553,-0.23978l-0.0473,-0.23649l-0.13318,-0.08475l-0.07886,-0.31539l-0.22209,-0.12689l-0.0166,-0.03316l-0.33598,-0.39199l-0.04218,-0.16877l-0.11935,-0.22374l-0.0874,-0.34959l-0.11285,-0.06451l-0.00516,-0.02324l-0.03681,-0.47835l-0.11766,-0.35297l-0.20722,-0.32566l-0.22959,-1.03317l-0.07331,-0.14662l-0.04097,-0.16392l-0.13296,-0.076l-0.01158,-0.01353l-0.09412,-0.42355l-0.07331,-0.14662l-0.04097,-0.16392l-0.03117,-0.01782l-0.00598,-0.07764l-0.11766,-0.35297l-0.06663,-0.1047l-0.01725,-0.0776l-0.04834,-0.09668l-0.04994,-0.14978l-0.00477,-0.01908l0.10305,-0.12022l0.06364,-0.12733l0.05736,-0.03277l0.04097,-0.16392l0.07331,-0.14662l0.15576,-0.70101l0.08289,-0.04738l0.48663,-1.94656l0.06446,-0.19344l0.00715,-0.09312l0.17705,-0.70825zM-47.38647,238.5135c3.249,0 5.88278,-2.63383 5.88278,-5.88278c0,-3.249 -2.63383,-5.88278 -5.88278,-5.88278c-3.249,0 -5.88278,2.63383 -5.88278,5.88278c0,3.249 2.63383,5.88278 5.88278,5.88278z" fill="#ffffff" stroke="none" stroke-width="0" stroke-linecap="butt"/><path d="M-48.28819,418.18944v-476.37882h576.57658v476.37882z" fill="url(#color-173)" stroke="none" stroke-width="0" stroke-linecap="butt"/><path d="M62.73471,241.13085l-0.17441,-0.11978l-0.70556,-0.66442l-0.02814,-0.03373l-0.03438,-0.02514l-0.18277,-0.17211l-0.00672,-0.04092l-0.13587,-0.09334l-0.35605,-0.33529l-0.11059,-0.14631l-0.25907,-0.20891l-0.01487,-0.00685l-0.16912,-0.15932l-0.14536,0.00746l-0.17618,-0.14207l-0.02462,-0.0114l-0.02189,-0.03035l-0.06225,-0.00867l-0.32956,-0.1526l-0.44228,-0.55422l-0.00468,-0.00043l-0.00143,-0.00451l-0.40495,-0.20063c-0.03863,-1.76071 -0.49508,-3.56534 -1.30282,-5.14935l0.03733,-0.70153l0.21178,-0.67669l0.02618,-0.44783l0.08822,-0.06381l0.06646,-0.47783l0.08423,-0.16131l0.08701,-0.36143l0.06854,-0.09975l0.02827,-0.03186l0.02033,-0.03893l0.09334,-0.13587l0.04448,-0.11922l0.17996,-0.30247l0.15381,-0.51212l0.30273,-0.44076l0.04973,-0.13335l0.05354,-0.03871l0.02328,-0.16734l0.05727,-0.1536l0.02133,-0.18993l0.24143,-0.39008l0.0241,-0.07539l0.18516,-0.06247l0.13799,-0.08853l0.15863,-0.05822l0.06139,-0.14033l0.23007,-0.24429l0.0176,-0.00975l0.50154,-0.16925l0.35939,-0.23059l1.06946,-0.39251l0.04305,-0.09841l0.03078,-0.01309l0.54728,-0.41362l0.28873,-0.35805l0.39052,-0.24295l0.43608,-0.45039l2.21647,-0.23757l0.01734,0.00156l0.07097,-0.01101l0.49088,-0.05263l0.05692,-0.0209l0.54052,0.07517l0.12277,-0.01318l0.04803,0.06017l0.5139,0.04669l0.37725,0.3042l0.19253,0.26631l0.5064,0.07045l0.23627,0.23454l0.50553,0.30078l0.06113,0.01834l0.2778,0.22404l0.196,0.09074l0.21633,0.15806l0.1523,0.21069l0.16799,0.02337l0.13695,0.10006l0.14263,-0.02532l0.1376,0.06373l0.16686,0.23085l0.45325,0.06303l0.7493,0.51468l0.17783,0.06633l0.25144,0.26974l0.03811,0.23267l0.10561,0.07253l0.06555,0.19426l0.08853,0.13795l0.05822,0.15863l0.13487,0.059l0.3368,0.9981l0.08853,0.13799l0.05822,0.15863l0.06056,0.02649l0.14428,0.22487l0.00286,0.10743l0.02558,0.09165l-0.01223,0.02345l0.05402,0.1601l0.01747,0.163l0.33429,0.91079l0.37621,3.50959l-0.06685,0.48047l0.01747,0.163l-0.01886,0.1679l0.04231,0.05077l0.01288,0.12013l-0.24602,0.30507l-0.02384,0.05146l-0.2468,0.26206l0.00746,0.14536l-0.03767,0.04669l-0.30126,0.65063l-0.33069,0.48147l-0.05514,0.14787l-0.24563,0.35766l-0.16821,0.45108l-0.2165,0.2299l-0.23011,0.07222l-0.07006,0.14146l-0.30516,0.11198l-0.10253,0.23436l-0.03121,0.02003l-0.35393,0.37586l-0.16331,0.05996l-0.20978,0.1425l-0.33832,0.12416l-0.05211,0.11909l-0.02254,0.00759l-0.47172,0.08757l-0.33841,0.15459l-0.30173,0.24074l-1.00283,0.33841l-0.13795,0.08853l-0.15863,0.05822l-0.06139,0.14029l-0.01218,0.01296l-0.41111,0.13873l-0.13799,0.08853l-0.15863,0.05822l-0.01439,0.0329l-0.07656,0.01422l-0.33841,0.15459l-0.09698,0.07738l-0.0753,0.0254l-0.09095,0.05835l-0.14363,0.06559l-0.01842,0.00676l-0.13049,-0.08961l-0.13335,-0.04973l-0.03871,-0.05354l-0.16734,-0.02328l-0.1536,-0.05727l-0.71358,-0.0802l-0.05597,-0.07738l-1.98736,-0.27641l-0.1992,-0.04348l-0.09338,0.00277l-0.72307,-0.10058zM72.37319,232.28793c-0.3463,-3.23049 -3.24583,-5.56856 -6.47628,-5.22231c-3.23049,0.3463 -5.56856,3.24583 -5.22231,6.47628c0.3463,3.23049 3.24583,5.56856 6.47628,5.22231c3.23049,-0.3463 5.56856,-3.24583 5.22231,-6.47628z" fill="#ffffff" stroke="none" stroke-width="0" stroke-linecap="butt"/></g></g></svg>