<svg version="1.1" xmlns="http://www.w3.org/2000/svg" xmlns:xlink="http://www.w3.org/1999/xlink" width="662.40054" height="615.29031" viewBox="0,0,662.40054,615.29031"><defs><radialGradient cx="490.52477" cy="390.0961" r="169.75134" gradientUnits="userSpaceOnUse" id="color-1"><stop offset="0" stop-color="#93266b"/><stop offset="1" stop-color="#6b1c4e"/></radialGradient><linearGradient x1="244.61995" y1="588.93273" x2="244.78228" y2="610.3647" gradientUnits="userSpaceOnUse" id="color-2"><stop offset="0" stop-color="#565656"/><stop offset="1" stop-color="#8b8b8b"/></linearGradient><radialGradient cx="177.38088" cy="620.81393" r="17.93341" gradientUnits="userSpaceOnUse" id="color-3"><stop offset="0" stop-color="#636363"/><stop offset="1" stop-color="#3c3c3c"/></radialGradient><radialGradient cx="330.35949" cy="620.6752" r="17.93341" gradientUnits="userSpaceOnUse" id="color-4"><stop offset="0" stop-color="#636363"/><stop offset="1" stop-color="#3c3c3c"/></radialGradient><linearGradient x1="-26.48896" y1="314.46769" x2="-21.07351" y2="314.42668" gradientUnits="userSpaceOnUse" id="color-5"><stop offset="0" stop-color="#bebebe"/><stop offset="1" stop-color="#797979"/></linearGradient><linearGradient x1="-12.54376" y1="314.09348" x2="-7.09031" y2="314.05218" gradientUnits="userSpaceOnUse" id="color-6"><stop offset="0" stop-color="#bebebe"/><stop offset="1" stop-color="#797979"/></linearGradient><linearGradient x1="2.00586" y1="314.68691" x2="7.45936" y2="314.6456" gradientUnits="userSpaceOnUse" id="color-7"><stop offset="0" stop-color="#bebebe"/><stop offset="1" stop-color="#797979"/></linearGradient><linearGradient x1="16.20462" y1="314.47349" x2="21.70748" y2="314.43183" gradientUnits="userSpaceOnUse" id="color-8"><stop offset="0" stop-color="#bebebe"/><stop offset="1" stop-color="#797979"/></linearGradient><linearGradient x1="30.10879" y1="315.39256" x2="35.61174" y2="315.35088" gradientUnits="userSpaceOnUse" id="color-9"><stop offset="0" stop-color="#bebebe"/><stop offset="1" stop-color="#797979"/></linearGradient><linearGradient x1="44.65608" y1="315.33938" x2="50.15894" y2="315.29772" gradientUnits="userSpaceOnUse" id="color-10"><stop offset="0" stop-color="#bebebe"/><stop offset="1" stop-color="#797979"/></linearGradient><linearGradient x1="58.8754" y1="313.99429" x2="64.37823" y2="313.95262" gradientUnits="userSpaceOnUse" id="color-11"><stop offset="0" stop-color="#bebebe"/><stop offset="1" stop-color="#797979"/></linearGradient><linearGradient x1="71.82142" y1="314.10856" x2="77.29519" y2="314.06712" gradientUnits="userSpaceOnUse" id="color-12"><stop offset="0" stop-color="#bebebe"/><stop offset="1" stop-color="#797979"/></linearGradient><linearGradient x1="25.44799" y1="264.63564" x2="25.67715" y2="294.89659" gradientUnits="userSpaceOnUse" id="color-13"><stop offset="0" stop-color="#bebebe"/><stop offset="1" stop-color="#797979"/></linearGradient><linearGradient x1="25.97946" y1="333.69217" x2="26.2125" y2="364.46401" gradientUnits="userSpaceOnUse" id="color-14"><stop offset="0" stop-color="#797979"/><stop offset="1" stop-color="#bebebe"/></linearGradient><linearGradient x1="26.74066" y1="308.81289" x2="26.83605" y2="321.41033" gradientUnits="userSpaceOnUse" id="color-15"><stop offset="0" stop-color="#bebebe"/><stop offset="1" stop-color="#797979"/></linearGradient><radialGradient cx="-54.3786" cy="309.77679" r="14.82686" gradientUnits="userSpaceOnUse" id="color-16"><stop offset="0" stop-color="#636363"/><stop offset="1" stop-color="#3c3c3c"/></radialGradient><radialGradient cx="24.97002" cy="313.48514" r="89.69742" gradientUnits="userSpaceOnUse" id="color-17"><stop offset="0" stop-color="#af2e80"/><stop offset="1" stop-color="#892464"/></radialGradient><linearGradient x1="512.22161" y1="310.3878" x2="506.80613" y2="310.42881" gradientUnits="userSpaceOnUse" id="color-18"><stop offset="0" stop-color="#bebebe"/><stop offset="1" stop-color="#797979"/></linearGradient><linearGradient x1="498.2723" y1="310.22485" x2="492.81882" y2="310.26614" gradientUnits="userSpaceOnUse" id="color-19"><stop offset="0" stop-color="#bebebe"/><stop offset="1" stop-color="#797979"/></linearGradient><linearGradient x1="483.73337" y1="311.03857" x2="478.27989" y2="311.07986" gradientUnits="userSpaceOnUse" id="color-20"><stop offset="0" stop-color="#bebebe"/><stop offset="1" stop-color="#797979"/></linearGradient><linearGradient x1="469.53299" y1="311.04025" x2="464.03013" y2="311.08192" gradientUnits="userSpaceOnUse" id="color-21"><stop offset="0" stop-color="#bebebe"/><stop offset="1" stop-color="#797979"/></linearGradient><linearGradient x1="455.6443" y1="312.16978" x2="450.1414" y2="312.21148" gradientUnits="userSpaceOnUse" id="color-22"><stop offset="0" stop-color="#bebebe"/><stop offset="1" stop-color="#797979"/></linearGradient><linearGradient x1="441.09791" y1="312.33695" x2="435.59499" y2="312.37862" gradientUnits="userSpaceOnUse" id="color-23"><stop offset="0" stop-color="#bebebe"/><stop offset="1" stop-color="#797979"/></linearGradient><linearGradient x1="426.85985" y1="311.20739" x2="421.35702" y2="311.24906" gradientUnits="userSpaceOnUse" id="color-24"><stop offset="0" stop-color="#bebebe"/><stop offset="1" stop-color="#797979"/></linearGradient><linearGradient x1="413.91701" y1="311.51773" x2="408.44327" y2="311.55917" gradientUnits="userSpaceOnUse" id="color-25"><stop offset="0" stop-color="#bebebe"/><stop offset="1" stop-color="#797979"/></linearGradient><linearGradient x1="459.53583" y1="261.34809" x2="459.76501" y2="291.60906" gradientUnits="userSpaceOnUse" id="color-26"><stop offset="0" stop-color="#bebebe"/><stop offset="1" stop-color="#797979"/></linearGradient><linearGradient x1="460.05038" y1="330.40475" x2="460.28341" y2="361.1766" gradientUnits="userSpaceOnUse" id="color-27"><stop offset="0" stop-color="#797979"/><stop offset="1" stop-color="#bebebe"/></linearGradient><linearGradient x1="458.91246" y1="305.53987" x2="459.00784" y2="318.13731" gradientUnits="userSpaceOnUse" id="color-28"><stop offset="0" stop-color="#bebebe"/><stop offset="1" stop-color="#797979"/></linearGradient><radialGradient cx="540.03698" cy="305.27503" r="14.82691" gradientUnits="userSpaceOnUse" id="color-29"><stop offset="0" stop-color="#636363"/><stop offset="1" stop-color="#3c3c3c"/></radialGradient><radialGradient cx="460.75365" cy="310.18476" r="89.69744" gradientUnits="userSpaceOnUse" id="color-30"><stop offset="0" stop-color="#af2e80"/><stop offset="1" stop-color="#892464"/></radialGradient><linearGradient x1="208.28412" y1="264.75683" x2="223.14005" y2="268.69324" gradientUnits="userSpaceOnUse" id="color-31"><stop offset="0" stop-color="#bebebe"/><stop offset="1" stop-color="#797979"/></linearGradient><linearGradient x1="274.64346" y1="264.25426" x2="259.84883" y2="268.41523" gradientUnits="userSpaceOnUse" id="color-32"><stop offset="0" stop-color="#bebebe"/><stop offset="1" stop-color="#797979"/></linearGradient><linearGradient x1="173.87762" y1="312.7004" x2="174.54366" y2="400.64498" gradientUnits="userSpaceOnUse" id="color-33"><stop offset="0" stop-color="#bebebe"/><stop offset="1" stop-color="#9f9f9f"/></linearGradient><linearGradient x1="306.96202" y1="310.24936" x2="307.62807" y2="398.19392" gradientUnits="userSpaceOnUse" id="color-34"><stop offset="0" stop-color="#bebebe"/><stop offset="1" stop-color="#9f9f9f"/></linearGradient><linearGradient x1="230.4989" y1="312.88666" x2="252.88238" y2="312.71713" gradientUnits="userSpaceOnUse" id="color-35"><stop offset="0" stop-color="#bebebe"/><stop offset="1" stop-color="#9f9f9f"/></linearGradient><linearGradient x1="241.352" y1="310.65975" x2="241.42168" y2="319.86234" gradientUnits="userSpaceOnUse" id="color-36"><stop offset="0" stop-color="#bebebe"/><stop offset="1" stop-color="#9f9f9f"/></linearGradient><radialGradient cx="130.11001" cy="311.54712" r="14.82686" gradientUnits="userSpaceOnUse" id="color-37"><stop offset="0" stop-color="#636363"/><stop offset="1" stop-color="#3c3c3c"/></radialGradient><radialGradient cx="367.36155" cy="308.37879" r="14.82686" gradientUnits="userSpaceOnUse" id="color-38"><stop offset="0" stop-color="#636363"/><stop offset="1" stop-color="#3c3c3c"/></radialGradient><linearGradient x1="242.64501" y1="394.31293" x2="244.17502" y2="596.33933" gradientUnits="userSpaceOnUse" id="color-39"><stop offset="0" stop-color="#bebebe"/><stop offset="1" stop-color="#545454"/></linearGradient><linearGradient x1="240.74119" y1="388.16216" x2="240.82595" y2="399.35391" gradientUnits="userSpaceOnUse" id="color-40"><stop offset="0" stop-color="#bebebe"/><stop offset="1" stop-color="#9f9f9f"/></linearGradient><radialGradient cx="269.43955" cy="403.93976" r="35.15658" gradientUnits="userSpaceOnUse" id="color-41"><stop offset="0" stop-color="#8d8d8d"/><stop offset="1" stop-color="#1e1e1e"/></radialGradient><radialGradient cx="269.18494" cy="415.5997" r="35.15665" gradientUnits="userSpaceOnUse" id="color-42"><stop offset="0" stop-color="#8d8d8d"/><stop offset="1" stop-color="#1e1e1e"/></radialGradient><radialGradient cx="268.59529" cy="428.29089" r="35.15665" gradientUnits="userSpaceOnUse" id="color-43"><stop offset="0" stop-color="#8d8d8d"/><stop offset="1" stop-color="#1e1e1e"/></radialGradient><radialGradient cx="268.33549" cy="439.26511" r="35.15665" gradientUnits="userSpaceOnUse" id="color-44"><stop offset="0" stop-color="#8d8d8d"/><stop offset="1" stop-color="#1e1e1e"/></radialGradient><radialGradient cx="268.40561" cy="448.52249" r="35.15665" gradientUnits="userSpaceOnUse" id="color-45"><stop offset="0" stop-color="#8d8d8d"/><stop offset="1" stop-color="#1e1e1e"/></radialGradient><radialGradient cx="267.81856" cy="461.55652" r="35.15665" gradientUnits="userSpaceOnUse" id="color-46"><stop offset="0" stop-color="#8d8d8d"/><stop offset="1" stop-color="#1e1e1e"/></radialGradient><radialGradient cx="267.54843" cy="471.15925" r="35.15658" gradientUnits="userSpaceOnUse" id="color-47"><stop offset="0" stop-color="#8d8d8d"/><stop offset="1" stop-color="#1e1e1e"/></radialGradient><radialGradient cx="267.98793" cy="483.91887" r="35.15665" gradientUnits="userSpaceOnUse" id="color-48"><stop offset="0" stop-color="#8d8d8d"/><stop offset="1" stop-color="#1e1e1e"/></radialGradient><radialGradient cx="268.41391" cy="494.88789" r="35.15662" gradientUnits="userSpaceOnUse" id="color-49"><stop offset="0" stop-color="#8d8d8d"/><stop offset="1" stop-color="#1e1e1e"/></radialGradient><radialGradient cx="241.83745" cy="442.2315" r="137.28669" gradientUnits="userSpaceOnUse" id="color-50"><stop offset="0" stop-color="#af2e80"/><stop offset="1" stop-color="#892464"/></radialGradient><radialGradient cx="268.29428" cy="383.10065" r="115.74326" gradientUnits="userSpaceOnUse" id="color-51"><stop offset="0" stop-color="#258d2f"/><stop offset="1" stop-color="#1b692b"/></radialGradient><linearGradient x1="245.13186" y1="216.35345" x2="243.84555" y2="338.34799" gradientUnits="userSpaceOnUse" id="color-52"><stop offset="0" stop-color="#bdbdbd"/><stop offset="1" stop-color="#848484"/></linearGradient><radialGradient cx="346.35117" cy="267.16745" r="117.76985" gradientUnits="userSpaceOnUse" id="color-53"><stop offset="0" stop-color="#af2e80"/><stop offset="1" stop-color="#892464"/></radialGradient><radialGradient cx="242.89169" cy="263.69153" r="88.17312" gradientUnits="userSpaceOnUse" id="color-54"><stop offset="0" stop-color="#1e1e1e"/><stop offset="1" stop-color="#000000"/></radialGradient><linearGradient x1="243.46672" y1="245.27082" x2="243.42476" y2="249.2511" gradientUnits="userSpaceOnUse" id="color-55"><stop offset="0" stop-color="#bebebe"/><stop offset="1" stop-color="#9f9f9f"/></linearGradient><linearGradient x1="231.18526" y1="129.13166" x2="229.89024" y2="251.95178" gradientUnits="userSpaceOnUse" id="color-56"><stop offset="0" stop-color="#bebebe"/><stop offset="1" stop-color="#9f9f9f"/></linearGradient><linearGradient x1="259.04723" y1="129.42545" x2="257.75221" y2="252.24554" gradientUnits="userSpaceOnUse" id="color-57"><stop offset="0" stop-color="#bebebe"/><stop offset="1" stop-color="#9f9f9f"/></linearGradient><linearGradient x1="244.14684" y1="238.97693" x2="243.83675" y2="268.38695" gradientUnits="userSpaceOnUse" id="color-58"><stop offset="0" stop-color="#8f8f8f"/><stop offset="1" stop-color="#797979"/></linearGradient><linearGradient x1="288.16417" y1="258.68027" x2="288.34443" y2="241.58488" gradientUnits="userSpaceOnUse" id="color-59"><stop offset="0" stop-color="#373737"/><stop offset="1" stop-color="#8f8f8f"/></linearGradient><linearGradient x1="199.26887" y1="257.74297" x2="199.44912" y2="240.64757" gradientUnits="userSpaceOnUse" id="color-60"><stop offset="0" stop-color="#373737"/><stop offset="1" stop-color="#8f8f8f"/></linearGradient><linearGradient x1="282.79623" y1="263.42632" x2="282.97648" y2="246.33095" gradientUnits="userSpaceOnUse" id="color-61"><stop offset="0" stop-color="#373737"/><stop offset="1" stop-color="#8f8f8f"/></linearGradient><linearGradient x1="204.53551" y1="262.60115" x2="204.71577" y2="245.50578" gradientUnits="userSpaceOnUse" id="color-62"><stop offset="0" stop-color="#373737"/><stop offset="1" stop-color="#8f8f8f"/></linearGradient><linearGradient x1="275.37053" y1="267.19015" x2="275.5508" y2="250.09478" gradientUnits="userSpaceOnUse" id="color-63"><stop offset="0" stop-color="#373737"/><stop offset="1" stop-color="#8f8f8f"/></linearGradient><linearGradient x1="211.88016" y1="266.52071" x2="212.06041" y2="249.42535" gradientUnits="userSpaceOnUse" id="color-64"><stop offset="0" stop-color="#373737"/><stop offset="1" stop-color="#8f8f8f"/></linearGradient><linearGradient x1="267.65967" y1="269.99045" x2="267.83992" y2="252.89508" gradientUnits="userSpaceOnUse" id="color-65"><stop offset="0" stop-color="#373737"/><stop offset="1" stop-color="#8f8f8f"/></linearGradient><linearGradient x1="219.53029" y1="269.48298" x2="219.71054" y2="252.38762" gradientUnits="userSpaceOnUse" id="color-66"><stop offset="0" stop-color="#373737"/><stop offset="1" stop-color="#8f8f8f"/></linearGradient><linearGradient x1="259.07059" y1="272.01305" x2="259.25086" y2="254.9177" gradientUnits="userSpaceOnUse" id="color-67"><stop offset="0" stop-color="#373737"/><stop offset="1" stop-color="#8f8f8f"/></linearGradient><linearGradient x1="228.07477" y1="271.68623" x2="228.25503" y2="254.59088" gradientUnits="userSpaceOnUse" id="color-68"><stop offset="0" stop-color="#373737"/><stop offset="1" stop-color="#8f8f8f"/></linearGradient><linearGradient x1="250.19632" y1="273.07214" x2="250.37657" y2="255.9767" gradientUnits="userSpaceOnUse" id="color-69"><stop offset="0" stop-color="#373737"/><stop offset="1" stop-color="#8f8f8f"/></linearGradient><linearGradient x1="236.92483" y1="272.93221" x2="237.10507" y2="255.83678" gradientUnits="userSpaceOnUse" id="color-70"><stop offset="0" stop-color="#373737"/><stop offset="1" stop-color="#8f8f8f"/></linearGradient><linearGradient x1="330.63772" y1="290.07212" x2="331.18227" y2="238.4264" gradientUnits="userSpaceOnUse" id="color-71"><stop offset="0" stop-color="#767676"/><stop offset="1" stop-color="#ececec"/></linearGradient><linearGradient x1="340.94622" y1="266.61917" x2="322.60963" y2="266.42585" gradientUnits="userSpaceOnUse" id="color-72"><stop offset="0" stop-color="#4c4c4c"/><stop offset="1" stop-color="#2c2c2c"/></linearGradient><linearGradient x1="156.0117" y1="288.23085" x2="156.55625" y2="236.58514" gradientUnits="userSpaceOnUse" id="color-73"><stop offset="0" stop-color="#767676"/><stop offset="1" stop-color="#ececec"/></linearGradient><linearGradient x1="146.20002" y1="264.56578" x2="164.53658" y2="264.75912" gradientUnits="userSpaceOnUse" id="color-74"><stop offset="0" stop-color="#4c4c4c"/><stop offset="1" stop-color="#2c2c2c"/></linearGradient><linearGradient x1="320.03945" y1="304.4694" x2="320.58402" y2="252.82365" gradientUnits="userSpaceOnUse" id="color-75"><stop offset="0" stop-color="#767676"/><stop offset="1" stop-color="#ececec"/></linearGradient><linearGradient x1="330.34795" y1="281.01642" x2="312.01139" y2="280.82306" gradientUnits="userSpaceOnUse" id="color-76"><stop offset="0" stop-color="#4c4c4c"/><stop offset="1" stop-color="#2c2c2c"/></linearGradient><linearGradient x1="166.30412" y1="302.84839" x2="166.84865" y2="251.20265" gradientUnits="userSpaceOnUse" id="color-77"><stop offset="0" stop-color="#767676"/><stop offset="1" stop-color="#ececec"/></linearGradient><linearGradient x1="156.49233" y1="279.18326" x2="174.82897" y2="279.37663" gradientUnits="userSpaceOnUse" id="color-78"><stop offset="0" stop-color="#4c4c4c"/><stop offset="1" stop-color="#2c2c2c"/></linearGradient><linearGradient x1="305.40968" y1="315.92228" x2="305.95424" y2="264.27658" gradientUnits="userSpaceOnUse" id="color-79"><stop offset="0" stop-color="#767676"/><stop offset="1" stop-color="#ececec"/></linearGradient><linearGradient x1="315.71825" y1="292.46936" x2="297.38164" y2="292.27601" gradientUnits="userSpaceOnUse" id="color-80"><stop offset="0" stop-color="#4c4c4c"/><stop offset="1" stop-color="#2c2c2c"/></linearGradient><linearGradient x1="180.68907" y1="314.60724" x2="181.23362" y2="262.96153" gradientUnits="userSpaceOnUse" id="color-81"><stop offset="0" stop-color="#767676"/><stop offset="1" stop-color="#ececec"/></linearGradient><linearGradient x1="170.87737" y1="290.94214" x2="189.21396" y2="291.13549" gradientUnits="userSpaceOnUse" id="color-82"><stop offset="0" stop-color="#4c4c4c"/><stop offset="1" stop-color="#2c2c2c"/></linearGradient><linearGradient x1="290.23026" y1="324.46763" x2="290.7748" y2="272.82188" gradientUnits="userSpaceOnUse" id="color-83"><stop offset="0" stop-color="#767676"/><stop offset="1" stop-color="#ececec"/></linearGradient><linearGradient x1="300.53878" y1="301.01471" x2="282.20222" y2="300.82135" gradientUnits="userSpaceOnUse" id="color-84"><stop offset="0" stop-color="#4c4c4c"/><stop offset="1" stop-color="#2c2c2c"/></linearGradient><linearGradient x1="195.68499" y1="323.47076" x2="196.22953" y2="271.82501" gradientUnits="userSpaceOnUse" id="color-85"><stop offset="0" stop-color="#767676"/><stop offset="1" stop-color="#ececec"/></linearGradient><linearGradient x1="185.87323" y1="299.80565" x2="204.20983" y2="299.99901" gradientUnits="userSpaceOnUse" id="color-86"><stop offset="0" stop-color="#4c4c4c"/><stop offset="1" stop-color="#2c2c2c"/></linearGradient><linearGradient x1="273.3344" y1="330.67346" x2="273.87893" y2="279.02769" gradientUnits="userSpaceOnUse" id="color-87"><stop offset="0" stop-color="#767676"/><stop offset="1" stop-color="#ececec"/></linearGradient><linearGradient x1="283.64291" y1="307.22052" x2="265.30632" y2="307.02719" gradientUnits="userSpaceOnUse" id="color-88"><stop offset="0" stop-color="#4c4c4c"/><stop offset="1" stop-color="#2c2c2c"/></linearGradient><linearGradient x1="212.44624" y1="330.03145" x2="212.99079" y2="278.38569" gradientUnits="userSpaceOnUse" id="color-89"><stop offset="0" stop-color="#767676"/><stop offset="1" stop-color="#ececec"/></linearGradient><linearGradient x1="202.63449" y1="306.36636" x2="220.97107" y2="306.5597" gradientUnits="userSpaceOnUse" id="color-90"><stop offset="0" stop-color="#4c4c4c"/><stop offset="1" stop-color="#2c2c2c"/></linearGradient><linearGradient x1="255.88883" y1="333.97164" x2="256.43338" y2="282.32592" gradientUnits="userSpaceOnUse" id="color-91"><stop offset="0" stop-color="#767676"/><stop offset="1" stop-color="#ececec"/></linearGradient><linearGradient x1="266.19736" y1="310.51871" x2="247.86079" y2="310.32536" gradientUnits="userSpaceOnUse" id="color-92"><stop offset="0" stop-color="#4c4c4c"/><stop offset="1" stop-color="#2c2c2c"/></linearGradient><linearGradient x1="229.81835" y1="333.69675" x2="230.36293" y2="282.05104" gradientUnits="userSpaceOnUse" id="color-93"><stop offset="0" stop-color="#767676"/><stop offset="1" stop-color="#ececec"/></linearGradient><linearGradient x1="220.00662" y1="310.03168" x2="238.34321" y2="310.225" gradientUnits="userSpaceOnUse" id="color-94"><stop offset="0" stop-color="#4c4c4c"/><stop offset="1" stop-color="#2c2c2c"/></linearGradient><linearGradient x1="136.62731" y1="154.0588" x2="136.08275" y2="205.70456" gradientUnits="userSpaceOnUse" id="color-95"><stop offset="0" stop-color="#767676"/><stop offset="1" stop-color="#ececec"/></linearGradient><linearGradient x1="126.31878" y1="177.51176" x2="144.65538" y2="177.70508" gradientUnits="userSpaceOnUse" id="color-96"><stop offset="0" stop-color="#4c4c4c"/><stop offset="1" stop-color="#2c2c2c"/></linearGradient><linearGradient x1="357.72146" y1="157.55075" x2="357.17692" y2="209.19646" gradientUnits="userSpaceOnUse" id="color-97"><stop offset="0" stop-color="#767676"/><stop offset="1" stop-color="#ececec"/></linearGradient><linearGradient x1="367.53317" y1="181.21584" x2="349.19661" y2="181.0225" gradientUnits="userSpaceOnUse" id="color-98"><stop offset="0" stop-color="#4c4c4c"/><stop offset="1" stop-color="#2c2c2c"/></linearGradient><linearGradient x1="151.2163" y1="162.77651" x2="150.67175" y2="214.42226" gradientUnits="userSpaceOnUse" id="color-99"><stop offset="0" stop-color="#767676"/><stop offset="1" stop-color="#ececec"/></linearGradient><linearGradient x1="140.90778" y1="186.22946" x2="159.24436" y2="186.42277" gradientUnits="userSpaceOnUse" id="color-100"><stop offset="0" stop-color="#4c4c4c"/><stop offset="1" stop-color="#2c2c2c"/></linearGradient><linearGradient x1="342.95189" y1="165.95891" x2="342.40735" y2="217.60463" gradientUnits="userSpaceOnUse" id="color-101"><stop offset="0" stop-color="#767676"/><stop offset="1" stop-color="#ececec"/></linearGradient><linearGradient x1="352.76361" y1="189.624" x2="334.42705" y2="189.43066" gradientUnits="userSpaceOnUse" id="color-102"><stop offset="0" stop-color="#4c4c4c"/><stop offset="1" stop-color="#2c2c2c"/></linearGradient><linearGradient x1="168.632" y1="174.14341" x2="168.08747" y2="225.78916" gradientUnits="userSpaceOnUse" id="color-103"><stop offset="0" stop-color="#767676"/><stop offset="1" stop-color="#ececec"/></linearGradient><linearGradient x1="158.32348" y1="197.59635" x2="176.66006" y2="197.78968" gradientUnits="userSpaceOnUse" id="color-104"><stop offset="0" stop-color="#4c4c4c"/><stop offset="1" stop-color="#2c2c2c"/></linearGradient><linearGradient x1="325.31259" y1="175.79545" x2="324.76805" y2="227.4412" gradientUnits="userSpaceOnUse" id="color-105"><stop offset="0" stop-color="#767676"/><stop offset="1" stop-color="#ececec"/></linearGradient><linearGradient x1="335.12431" y1="199.46053" x2="316.78778" y2="199.26719" gradientUnits="userSpaceOnUse" id="color-106"><stop offset="0" stop-color="#4c4c4c"/><stop offset="1" stop-color="#2c2c2c"/></linearGradient><linearGradient x1="248.42128" y1="25.10177" x2="246.54796" y2="202.76721" gradientUnits="userSpaceOnUse" id="color-107"><stop offset="0" stop-color="#bdbdbd"/><stop offset="1" stop-color="#848484"/></linearGradient><linearGradient x1="248.23815" y1="42.46821" x2="246.36485" y2="220.13365" gradientUnits="userSpaceOnUse" id="color-108"><stop offset="0" stop-color="#717171"/><stop offset="1" stop-color="#a9a9a9"/></linearGradient><radialGradient cx="312.21002" cy="44.70271" r="132.17057" gradientUnits="userSpaceOnUse" id="color-109"><stop offset="0" stop-color="#af2e80"/><stop offset="1" stop-color="#892464"/></radialGradient><radialGradient cx="212.22183" cy="78.75623" r="19.70366" gradientUnits="userSpaceOnUse" id="color-110"><stop offset="0" stop-color="#ffffff"/><stop offset="1" stop-color="#d1d1d1"/></radialGradient><radialGradient cx="279.72499" cy="79.468" r="19.70366" gradientUnits="userSpaceOnUse" id="color-111"><stop offset="0" stop-color="#ffffff"/><stop offset="1" stop-color="#d1d1d1"/></radialGradient><radialGradient cx="212.22183" cy="78.75623" r="10.80118" gradientUnits="userSpaceOnUse" id="color-112"><stop offset="0" stop-color="#ffffff"/><stop offset="1" stop-color="#ff0000"/></radialGradient><radialGradient cx="279.72499" cy="79.468" r="10.80116" gradientUnits="userSpaceOnUse" id="color-113"><stop offset="0" stop-color="#ffffff"/><stop offset="1" stop-color="#ff0000"/></radialGradient><linearGradient x1="179.00394" y1="181.21707" x2="178.45939" y2="232.8628" gradientUnits="userSpaceOnUse" id="color-114"><stop offset="0" stop-color="#767676"/><stop offset="1" stop-color="#ececec"/></linearGradient><linearGradient x1="168.69536" y1="204.67001" x2="187.03198" y2="204.86335" gradientUnits="userSpaceOnUse" id="color-115"><stop offset="0" stop-color="#4c4c4c"/><stop offset="1" stop-color="#2c2c2c"/></linearGradient><linearGradient x1="310.73183" y1="182.606" x2="310.18728" y2="234.25173" gradientUnits="userSpaceOnUse" id="color-116"><stop offset="0" stop-color="#767676"/><stop offset="1" stop-color="#ececec"/></linearGradient><linearGradient x1="320.54353" y1="206.27111" x2="302.20694" y2="206.07776" gradientUnits="userSpaceOnUse" id="color-117"><stop offset="0" stop-color="#4c4c4c"/><stop offset="1" stop-color="#2c2c2c"/></linearGradient><linearGradient x1="191.14729" y1="185.40762" x2="190.60274" y2="237.05338" gradientUnits="userSpaceOnUse" id="color-118"><stop offset="0" stop-color="#767676"/><stop offset="1" stop-color="#ececec"/></linearGradient><linearGradient x1="180.83877" y1="208.86056" x2="199.17533" y2="209.05391" gradientUnits="userSpaceOnUse" id="color-119"><stop offset="0" stop-color="#4c4c4c"/><stop offset="1" stop-color="#2c2c2c"/></linearGradient><linearGradient x1="298.50277" y1="186.53958" x2="297.95823" y2="238.18534" gradientUnits="userSpaceOnUse" id="color-120"><stop offset="0" stop-color="#767676"/><stop offset="1" stop-color="#ececec"/></linearGradient><linearGradient x1="308.31453" y1="210.20469" x2="289.97797" y2="210.01132" gradientUnits="userSpaceOnUse" id="color-121"><stop offset="0" stop-color="#4c4c4c"/><stop offset="1" stop-color="#2c2c2c"/></linearGradient><linearGradient x1="203.84891" y1="191.69514" x2="203.30436" y2="243.34086" gradientUnits="userSpaceOnUse" id="color-122"><stop offset="0" stop-color="#767676"/><stop offset="1" stop-color="#ececec"/></linearGradient><linearGradient x1="193.54035" y1="215.14807" x2="211.87694" y2="215.34142" gradientUnits="userSpaceOnUse" id="color-123"><stop offset="0" stop-color="#4c4c4c"/><stop offset="1" stop-color="#2c2c2c"/></linearGradient><linearGradient x1="285.67143" y1="192.55789" x2="285.12685" y2="244.20361" gradientUnits="userSpaceOnUse" id="color-124"><stop offset="0" stop-color="#767676"/><stop offset="1" stop-color="#ececec"/></linearGradient><linearGradient x1="295.48319" y1="216.22298" x2="277.14659" y2="216.02964" gradientUnits="userSpaceOnUse" id="color-125"><stop offset="0" stop-color="#4c4c4c"/><stop offset="1" stop-color="#2c2c2c"/></linearGradient><linearGradient x1="218.67148" y1="194.24651" x2="218.12693" y2="245.89219" gradientUnits="userSpaceOnUse" id="color-126"><stop offset="0" stop-color="#767676"/><stop offset="1" stop-color="#ececec"/></linearGradient><linearGradient x1="208.36294" y1="217.69941" x2="226.69952" y2="217.89275" gradientUnits="userSpaceOnUse" id="color-127"><stop offset="0" stop-color="#4c4c4c"/><stop offset="1" stop-color="#2c2c2c"/></linearGradient><linearGradient x1="270.7984" y1="194.79612" x2="270.25384" y2="246.44181" gradientUnits="userSpaceOnUse" id="color-128"><stop offset="0" stop-color="#767676"/><stop offset="1" stop-color="#ececec"/></linearGradient><linearGradient x1="280.61009" y1="218.46119" x2="262.27353" y2="218.26786" gradientUnits="userSpaceOnUse" id="color-129"><stop offset="0" stop-color="#4c4c4c"/><stop offset="1" stop-color="#2c2c2c"/></linearGradient><linearGradient x1="255.09981" y1="197.53241" x2="254.55526" y2="249.17815" gradientUnits="userSpaceOnUse" id="color-130"><stop offset="0" stop-color="#767676"/><stop offset="1" stop-color="#ececec"/></linearGradient><linearGradient x1="264.91152" y1="221.19748" x2="246.57492" y2="221.00413" gradientUnits="userSpaceOnUse" id="color-131"><stop offset="0" stop-color="#4c4c4c"/><stop offset="1" stop-color="#2c2c2c"/></linearGradient><linearGradient x1="235.41868" y1="196.7445" x2="234.87411" y2="248.39026" gradientUnits="userSpaceOnUse" id="color-132"><stop offset="0" stop-color="#767676"/><stop offset="1" stop-color="#ececec"/></linearGradient><linearGradient x1="225.11014" y1="220.19744" x2="243.44674" y2="220.39077" gradientUnits="userSpaceOnUse" id="color-133"><stop offset="0" stop-color="#4c4c4c"/><stop offset="1" stop-color="#2c2c2c"/></linearGradient><linearGradient x1="244.88989" y1="139.85699" x2="243.96562" y2="227.51449" gradientUnits="userSpaceOnUse" id="color-134"><stop offset="0" stop-color="#717171"/><stop offset="1" stop-color="#a9a9a9"/></linearGradient><linearGradient x1="244.22757" y1="106.1877" x2="243.06313" y2="216.62431" gradientUnits="userSpaceOnUse" id="color-135"><stop offset="0" stop-color="#bdbdbd"/><stop offset="1" stop-color="#848484"/></linearGradient><linearGradient x1="244.22757" y1="106.1877" x2="243.06313" y2="216.62431" gradientUnits="userSpaceOnUse" id="color-136"><stop offset="0" stop-color="#af2e80"/><stop offset="1" stop-color="#95276d"/></linearGradient><radialGradient cx="184.82945" cy="162.78997" r="9.84403" gradientUnits="userSpaceOnUse" id="color-137"><stop offset="0" stop-color="#5c1843"/><stop offset="1" stop-color="#9b2871"/></radialGradient><radialGradient cx="304.68867" cy="164.05377" r="9.84401" gradientUnits="userSpaceOnUse" id="color-138"><stop offset="0" stop-color="#5c1843"/><stop offset="1" stop-color="#9b2871"/></radialGradient></defs><g transform="translate(72.96143,-25.09087)"><g data-paper-data="{&quot;isPaintingLayer&quot;:true}" fill-rule="nonzero" stroke-width="0" stroke-linecap="butt" stroke-linejoin="miter" stroke-miterlimit="10" stroke-dasharray="" stroke-dashoffset="0" style="mix-blend-mode: normal"><g><path d="M519.4229,396.6554c-12.66944,46.64599 -32.04807,96.5585 -59.20528,130.38975c-88.85642,110.69327 -231.59696,140.79353 -249.40573,86.40979c-9.62579,-29.3949 114.95818,-59.73941 190.13793,-137.05256c18.22574,-18.74294 34.43594,-39.41122 48.75205,-60.18649c50.76974,-73.67611 131.19008,-180.06822 139.73196,-175.33513c0.62246,0.34486 -54.0558,97.03141 -70.01093,155.77457z" fill="url(#color-1)" stroke="#000000"/><g stroke="none"><path d="M170.80081,631.48342l-7.5946,-20.93827l45.29652,-21.33887l72.60634,-0.54988l55.34565,26.26298l-11.67032,18.4597l-44.01876,-23.28691l-72.10059,0.54604z" fill="url(#color-2)"/><path d="M185.17163,623.06374c0.07135,9.42095 -7.89966,17.11891 -17.8037,17.19393c-9.90405,0.07501 -17.99072,-7.50138 -18.06207,-16.9223c-0.07135,-9.42095 7.89966,-17.11888 17.8037,-17.19388c9.90405,-0.07501 17.99072,7.50135 18.06207,16.92226z" fill="url(#color-3)"/><path d="M342.20367,623.1867c0.07135,9.42095 -7.89966,17.11891 -17.8037,17.19393c-9.90408,0.07501 -17.99072,-7.50138 -18.06207,-16.9223c-0.07135,-9.42095 7.89966,-17.11891 17.8037,-17.19393c9.90408,-0.07501 17.99072,7.50138 18.06207,16.9223z" fill="url(#color-4)"/></g></g><g stroke="none"><path d="M107.73946,348.07388c-13.78134,22.46907 -46.14523,22.26123 -82.33679,22.53531c-27.18145,0.20586 -50.85771,-6.58151 -67.39861,-18.61906c-0.15924,-0.11591 -0.31677,-0.24018 -0.47254,-0.37272c1.51642,-2.85187 3.32701,-5.84756 5.40907,-9.32603c-1.61076,-9.16561 4.93348,-7.47525 6.00492,-17.06578c0.60277,-5.39523 -3.50792,-10.41232 -4.45475,-15.34874c-0.42922,-2.2378 2.45852,-4.17955 3.06131,-5.65229c2.48951,-6.0821 0.50722,-9.03166 -1.49847,-13.26383c-0.26281,-0.55455 1.37492,0.61012 1.83031,0.19874c2.3129,-2.08955 5.66744,-4.11558 5.94201,-7.2205c0.19371,-2.19071 -3.6406,-2.60936 -4.91419,-4.40226c-0.5155,-0.72568 1.95665,-9.10072 2.13344,-10.02067c0,0 0.12143,-0.63212 0.02693,-1.45564c14.89134,-7.20769 33.39246,-11.54742 53.46538,-11.69944c38.04982,-0.28816 69.14582,-3.59628 82.80843,23.12398c4.12475,8.06686 5.47548,60.30342 0.39364,68.58885z" fill="#262626"/><g><g data-paper-data="{&quot;index&quot;:null}"><g><g><g><path d="M-21.08168,345.47189l-5.17237,0.01888l-0.2268,-62.06829l5.17237,-0.01892z" fill="url(#color-5)"/><path d="M-7.09979,349.94667l-5.17232,0.01888l-0.26226,-71.76653l5.17237,-0.01892z" fill="url(#color-6)"/><path d="M7.44986,350.54002l-5.17237,0.01892l-0.26226,-71.76643l5.17239,-0.01892z" fill="url(#color-7)"/><path d="M21.6964,356.63025l-5.17237,0.01892l-0.30833,-84.37417l5.17237,-0.01892z" fill="url(#color-8)"/><path d="M35.60064,357.54934l-5.17237,0.01892l-0.30833,-84.3742l5.17237,-0.01892z" fill="url(#color-9)"/><path d="M50.14785,357.49617l-5.17237,0.01894l-0.30829,-84.3742l5.17237,-0.01894z" fill="url(#color-10)"/><path d="M64.36714,356.15111l-5.17239,0.01892l-0.30829,-84.37417l5.17237,-0.01892z" fill="url(#color-11)"/><path d="M77.28503,352.54784l-5.17237,0.01892l-0.2811,-76.93887l5.17237,-0.01888z" fill="url(#color-12)"/><path d="M87.92085,290.77571c0,0 -40.82563,-11.74736 -61.07733,-11.67336c-19.73455,0.07213 -63.56146,16.26681 -63.56146,16.26681l-0.57579,-16.03249c0,0 45.81163,-14.65011 65.63611,-14.72258c20.16926,-0.0737 60.03908,10.64266 60.03908,10.64266z" fill="url(#color-13)"/><path d="M88.96725,353.3612c0,0 -39.79048,11.00755 -59.95972,11.08123c-19.82447,0.0724 -65.74191,-14.24254 -65.74191,-14.24254l0.45862,-16.03623c0,0 43.9441,15.87393 63.67862,15.80182c20.25168,-0.07401 60.99045,-12.11946 60.99045,-12.11946z" data-paper-data="{&quot;index&quot;:null}" fill="url(#color-14)"/><path d="M123.63195,320.67725l-186.30365,0.70954l-0.04349,-11.89641l186.30369,-0.70957z" fill="url(#color-15)"/></g></g></g></g><path d="M-43.30813,314.24959c0.06202,8.18841 -6.52576,14.87671 -14.71415,14.93872c-8.18843,0.06202 -14.87671,-6.52576 -14.93872,-14.71415c-0.06202,-8.18841 6.52571,-14.87671 14.71415,-14.93872c8.18843,-0.06202 14.87671,6.52571 14.93872,14.71415z" fill="url(#color-16)"/></g><path d="M107.73946,348.07388c-13.78134,22.46907 -46.14523,22.26123 -82.33679,22.53531c-27.18145,0.20586 -50.85771,-6.58151 -67.39861,-18.61906c-3.76709,-2.74148 -6.56786,-10.19428 -8.20621,-19.46301c10.38833,-1.71491 22.63272,0.38943 33.12385,1.76879c4.39388,0.57769 6.097,4.71613 11.2696,5.96894l3.26809,0.79581c0,0 4.20722,1.01804 5.22523,-3.18915c1.01801,-4.20722 -3.1892,-5.22523 -3.1892,-5.22523l-3.67061,-0.88314c-5.17267,-0.471 -5.17439,-4.59853 -11.33036,-5.98038c-5.95157,-1.33597 -13.0158,0.32513 -19.05193,-0.72146c-6.73031,-1.16697 -10.42642,-2.12582 -16.78462,-1.12129c-0.16801,-1.80928 -0.29674,-3.64955 -0.38511,-5.50412c8.77091,0.03614 19.41401,1.66458 23.92283,-4.5876c5.56487,-7.71653 -0.22369,-10.50074 -4.46268,-14.29219c-1.63767,-1.46478 4.40957,-2.1451 5.03798,-4.25044c3.01992,-10.1172 -6.70724,-16.18528 -14.58426,-17.79962c0,0 -1.01363,-0.19477 -2.14612,0.10093c0.62373,-0.7217 1.28653,-1.34057 1.98924,-1.84522c16.32915,-11.72653 40.05337,-19.20041 66.50762,-19.40076c38.04982,-0.28816 69.14582,-3.59628 82.80843,23.12398c0.89674,1.75379 1.66237,5.5953 2.25931,10.61902c-1.15288,0.12467 -2.02244,0.65542 -2.02244,0.65542c-7.82836,5.0275 -6.84729,11.86305 -11.66112,17.78723c-1.81481,2.23342 -6.50888,-1.89559 -8.63329,0.04572c-1.92866,1.76241 -1.01743,5.12528 -1.52617,7.68791l0.01967,2.5971c0,0 0.03278,4.3285 4.36128,4.29571c4.3285,-0.03278 4.29571,-4.36128 4.29571,-4.36128l-0.01504,-1.98674c1.25537,0.63552 3.79164,0.9615 7.08435,-1.66488c5.258,-4.19399 3.68855,-11.52798 8.92081,-15.87222c1.22211,18.45391 0.68159,43.28977 -2.68941,48.78585zM59.91042,316.16552c12.16398,3.43767 19.25562,-12.52001 11.70685,-20.72705c-4.51933,-4.91345 -17.86969,-3.75163 -24.27715,-6.26157c-7.90791,-3.01096 -15.59088,-8.54579 -24.45146,-3.07522c-4.2346,2.6145 -9.73615,12.57213 -6.90502,17.89118c1.17154,2.2011 4.40145,2.40195 6.33951,3.9708c2.38594,1.93147 3.02549,5.74138 5.71484,7.22142c8.98232,4.94331 12.52272,-2.56934 19.21667,-5.76134c1.19596,-0.57026 6.02721,1.6931 8.94653,2.87414c1.08311,1.53934 1.98184,3.37946 3.70921,3.86764zM57.42541,340.8139c-2.59456,0.68506 -10.30994,3.91006 -8.78337,7.96561l-2.40726,3.26078c-0.55389,0.73359 -0.87952,1.64865 -0.87202,2.63886c0.01809,2.39053 1.9707,4.31382 4.36128,4.29571c1.43413,-0.01086 2.7001,-0.71796 3.47961,-1.79817l2.03951,-2.76274c3.20167,-1.27583 9.84751,6.07275 14.79409,5.2547c2.61932,-0.43319 5.42204,-1.38989 7.23568,-3.32872c1.63827,-1.75136 0.82724,-4.66365 1.19243,-7.10149c1.07254,-0.01082 2.14499,-0.02075 3.21738,-0.02887l2.5971,-0.01967c0,0 0.99549,-0.00754 2.028,-0.49281c0.82577,0.21381 1.39535,0.37172 1.45095,0.38237c0,0 4.25087,0.81672 5.06761,-3.43411c0.81676,-4.25085 -3.43411,-5.06761 -3.43411,-5.06761c-4.9781,-0.9565 -10.25476,-3.04138 -14.83504,-0.2922c-5.8573,-0.3476 -12.22629,-0.76693 -17.13189,0.52835z" fill="url(#color-17)"/></g><g data-paper-data="{&quot;index&quot;:null}" stroke="none"><path d="M460.32098,253.06069c26.4543,-0.20036 50.28894,6.91334 66.79384,18.3912c1.08287,0.75308 2.07709,1.77307 2.98477,3.01946c-8.34957,3.85248 -10.37893,9.51095 -8.09831,18.54569c0.25802,1.02212 1.84363,1.5754 1.76167,2.62643c-0.20353,2.60956 -4.99328,2.40972 -6.31244,4.67046c-3.30038,5.65613 -0.72812,10.35765 0.33612,15.68741c0.72477,3.62994 -4.51081,7.42761 -4.2367,12.15255c0.66385,11.44322 6.52876,14.01996 15.24217,19.11082c-0.16355,0.14482 -0.32924,0.2804 -0.49701,0.40641c-16.35665,12.2867 -39.92742,19.43189 -67.10888,19.63775c-36.19158,0.2741 -68.54859,0.97208 -82.66869,-21.28565c-4.65053,-7.33067 -4.70109,-49.79673 -1.80722,-64.57841c1.12279,0.59076 2.28115,0.58199 2.28115,0.58199c11.41514,-0.08646 22.68023,2.07281 33.84161,3.99431c6.22617,1.07188 9.91789,7.11091 16.48347,8.5267l3.4466,0.05798c0,0 4.3285,-0.03278 4.29571,-4.36128c-0.03278,-4.3285 -4.36128,-4.29571 -4.36128,-4.29571l-1.74758,0.09728c-6.49558,-1.00598 -9.77287,-7.15509 -16.54424,-8.53814c-10.98232,-2.24313 -22.91287,-4.09385 -34.25538,-4.14023c14.32825,-22.5612 44.15523,-20.03428 80.17062,-20.30703z" fill="#262626"/><g><g data-paper-data="{&quot;index&quot;:null}"><g><g><g><path d="M506.5712,279.40566l5.17205,-0.05943l0.71335,62.06464l-5.17205,0.05947z" fill="url(#color-18)"/><path d="M492.5472,274.39408l5.17205,-0.05943l0.82475,71.76228l-5.17203,0.05947z" fill="url(#color-19)"/><path d="M478.00821,275.20784l5.17205,-0.05943l0.82475,71.76218l-5.17205,0.05943z" fill="url(#color-20)"/><path d="M463.71075,268.90622l5.17205,-0.05943l0.96963,84.36916l-5.17205,0.05943z" fill="url(#color-21)"/><path d="M449.82199,270.03569l5.17205,-0.05943l0.96963,84.3692l-5.17205,0.05943z" fill="url(#color-22)"/><path d="M435.27564,270.2029l5.17205,-0.05938l0.96968,84.3692l-5.17205,0.05938z" fill="url(#color-23)"/><path d="M421.03761,269.07343l5.17205,-0.05943l0.96968,84.36916l-5.17205,0.05943z" fill="url(#color-24)"/><path d="M408.15198,273.10103l5.17205,-0.05947l0.88424,76.93432l-5.17203,0.05943z" fill="url(#color-25)"/><path d="M396.77049,272.92116c0,0 39.70292,-11.31899 59.87099,-11.5508c19.82328,-0.22781 65.85159,13.72677 65.85159,13.72677l-0.33289,16.03937c0,0 -44.06717,-15.52904 -63.80056,-15.30224c-20.25056,0.23278 -60.89352,12.5971 -60.89352,12.5971z" fill="url(#color-26)"/><path d="M397.70658,335.50345c0,0 40.91652,11.42705 61.16697,11.19431c19.7334,-0.22677 63.43198,-16.76446 63.43198,-16.76446l0.70151,16.02745c0,0 -45.69541,15.00877 -65.5187,15.23664c-20.16803,0.2318 -60.12067,-10.17182 -60.12067,-10.17182z" data-paper-data="{&quot;index&quot;:null}" fill="url(#color-27)"/><path d="M362.07525,306.97465l186.29308,-2.11227l0.13671,11.89569l-186.29308,2.1123z" fill="url(#color-28)"/></g></g></g></g><path d="M543.74972,294.9763c8.18836,-0.06202 14.87671,6.52571 14.93872,14.71415c0.06202,8.18841 -6.52567,14.87671 -14.71415,14.93872c-8.18841,0.06202 -14.87671,-6.52576 -14.93872,-14.71415c-0.06202,-8.18841 6.52567,-14.87671 14.71415,-14.93872z" fill="url(#color-29)"/></g><path d="M460.32098,253.06069c26.4543,-0.20036 50.28894,6.91334 66.79384,18.3912c2.03786,1.41717 3.76174,3.77979 5.18584,6.81735c-0.03314,-0.00028 -0.06652,-0.0003 -0.10019,-0.00004c-4.3285,0.03278 -4.29571,4.36128 -4.29571,4.36128c0.18719,5.16792 3.6148,8.28938 3.56115,12.95925c-0.0497,4.32669 -2.98096,8.16235 -3.34663,12.585c-0.63636,7.69741 4.67091,17.16978 2.122,25.01408c-0.89183,2.74449 -4.38567,4.18002 -5.14175,6.96493c-0.85425,3.14645 -0.85698,6.59498 -0.51538,10.13514c-16.1199,10.67895 -38.20847,16.82921 -63.39792,17.01999c-33.04227,0.25024 -62.88825,0.85382 -78.57779,-15.98125c1.77879,-2.45361 8.09266,-4.57707 10.30113,-7.47452c2.89064,-2.20237 6.64638,-4.4315 7.22551,-8.60826c0.65591,-4.73053 -4.11698,-8.21158 -3.54589,-13.10039c0.52079,-4.45867 2.84242,-8.77567 3.32437,-12.69915c0.65499,-5.33212 -3.12173,-11.0249 -6.03744,-16.48579c9.88491,3.57074 20.85872,5.86542 31.46862,2.38867c11.77255,-3.85769 12.57514,-19.09963 1.57388,-25.24301c-5.8996,-3.29451 -11.37933,1.44676 -16.25039,3.18129c-4.3018,1.53179 -8.11776,-3.29507 -10.5448,-5.73535c0,0 -2.79328,-2.75125 -5.68145,-0.35858l-3.42476,0.10951c-1.32121,0.42502 -2.4736,0.94954 -3.46794,1.55577c-0.86756,-0.54914 -1.81543,-0.9954 -2.82321,-1.34896c15.57039,-16.24044 43.05715,-14.20173 75.59488,-14.44814zM411.80815,332.45531l-0.09694,-0.58676c2.53368,5.7406 5.64485,7.65001 9.59659,12.3708c9.09885,2.14141 15.77229,0.391 24.72207,-1.32305c2.84259,-0.5444 10.0299,-1.24811 11.86223,-3.97526c1.91393,-2.84857 3.32689,-6.69045 2.43317,-10.00386c-0.6153,-2.28121 -4.1434,-2.28481 -6.10353,-3.60401c-5.12285,-3.44771 -10.49989,-8.24402 -16.46798,-9.76508c-11.29707,-2.87919 -12.42554,8.42686 -20.43307,10.26981c-1.02637,-0.71063 -3.30538,-1.79186 -5.55886,0.496c-3.03755,3.08391 0.04638,6.1214 0.04638,6.1214zM472.78196,320.27517l2.47092,-0.32831c6.41206,-3.02158 7.65723,1.72723 13.49878,3.44821c9.06175,2.66967 19.09309,-4.30022 28.17437,-4.31998c0,0 4.3285,-0.03278 4.29571,-4.36128c-0.03278,-4.3285 -4.36128,-4.29571 -4.36128,-4.29571c-6.74159,0.08091 -19.32096,7.0949 -25.43338,4.74348c-7.84656,-3.01853 -10.41187,-6.60606 -19.45022,-3.22822l0.73953,-0.31518c0,0 -4.3285,0.03278 -4.29571,4.36128c0.03278,4.3285 4.36128,4.29571 4.36128,4.29571z" fill="url(#color-30)"/></g><path d="M116.65064,392.4328c5.46892,-19.01869 11.46607,-34.64644 18.36418,-47.42576c22.01397,-40.78275 -106.56774,-72.82545 105.55026,-70.78244c222.87141,2.14657 86.04015,23.12676 110.1503,71.70827c6.57696,13.25245 12.58536,29.69527 18.32471,50.07461c16.44446,58.39037 35.35637,128.07401 -24.41577,163.11523c-8.17487,2.2231 -16.216,4.94499 -23.80511,7.35554c-13.42088,4.26289 -28.148,4.49802 -41.33336,9.43304c-1.5731,-0.96514 -3.47927,-0.47322 -3.47927,-0.47322l-2.4074,0.75475c-26.22236,0.19859 -58.07044,1.94155 -80.23454,-14.42073c-8.74799,-3.49485 -16.18789,-9.41961 -24.69312,-12.97733c-6.82844,-2.8563 -15.2187,1.37173 -21.65557,-1.56749c-2.74995,-1.2557 -4.49931,-4.32805 -7.36409,-5.29358c-6.85996,-2.31206 -14.29025,-3.00957 -21.44894,-5.81032c0,0 -2.56781,-1.00462 -4.40639,0.63914c-28.89839,-38.92443 -10.93118,-96.39003 2.85411,-144.32977z" data-paper-data="{&quot;index&quot;:null}" fill="#262626" stroke="none"/><g stroke="none"><path d="M195.04872,314.70671l40.37676,-149.40052l14.02826,4.08039l-39.54909,149.25664z" fill="url(#color-31)"/><path d="M273.83924,318.15896l-41.80519,-148.64047l13.96487,-4.29238l42.63496,148.77188z" data-paper-data="{&quot;index&quot;:null}" fill="url(#color-32)"/><g><path d="M193.33954,400.50263l-47.13852,-82.59119l8.88079,-5.06869l47.13845,82.59119z" fill="url(#color-33)"/><path d="M279.8757,393.40272l45.88213,-83.29567l8.95655,4.93359l-45.88216,83.29568z" data-paper-data="{&quot;index&quot;:null}" fill="url(#color-34)"/><path d="M231.11832,394.67514l-0.74356,-244.95851l21.27613,0.39467l1.85091,244.39435z" fill="url(#color-35)"/><path d="M125.87759,320.7374l-0.0697,-9.20263l231.0881,-1.75013l0.0697,9.20263z" fill="url(#color-36)"/><path d="M141.18048,316.01992c0.06202,8.18841 -6.52576,14.87671 -14.71415,14.93872c-8.18843,0.06202 -14.87668,-6.52576 -14.93869,-14.71415c-0.06202,-8.18841 6.52571,-14.87671 14.71412,-14.93872c8.18843,-0.06202 14.87671,6.52571 14.93872,14.71415z" fill="url(#color-37)"/><path d="M373.88988,313.83695c0.06202,8.18841 -6.52576,14.87671 -14.71419,14.93872c-8.18841,0.06202 -14.87671,-6.52576 -14.93872,-14.71415c-0.06202,-8.18841 6.52571,-14.87671 14.71415,-14.93872c8.18841,-0.06202 14.87676,6.52571 14.93876,14.71415z" fill="url(#color-38)"/><path d="M215.0176,596.56016l-1.53002,-202.02643l58.31486,-0.44164l1.53002,202.02643z" fill="url(#color-39)"/><path d="M191.64122,399.7264l-0.08476,-11.19176l98.36946,-0.745l0.08476,11.19176z" fill="url(#color-40)"/><path d="M208.04313,408.22009l-0.03883,-5.12731l70.31122,-0.53251l0.03883,5.12731z" fill="url(#color-41)"/><path d="M207.95943,419.634l-0.03883,-5.12736l70.31122,-0.53251l0.03883,5.12736z" fill="url(#color-42)"/><path d="M208.04403,430.8031l-0.03883,-5.12733l70.31122,-0.53251l0.03883,5.12733z" fill="url(#color-43)"/><path d="M207.96026,442.21707l-0.03883,-5.12733l70.31126,-0.53251l0.03883,5.12733z" fill="url(#color-44)"/><path d="M208.21319,453.14133l-0.03883,-5.12733l70.31122,-0.53251l0.03883,5.12733z" fill="url(#color-45)"/><path d="M208.12945,464.55525l-0.03883,-5.12731l70.31126,-0.53251l0.03883,5.12731z" fill="url(#color-46)"/><path d="M208.21406,475.72439l-0.03883,-5.12736l70.31122,-0.53251l0.03883,5.12736z" fill="url(#color-47)"/><path d="M208.13034,487.13833l-0.03883,-5.12731l70.31126,-0.53251l0.03883,5.12731z" fill="url(#color-48)"/><path d="M208.04354,498.13863l-0.03883,-5.12733l70.31122,-0.53251l0.03883,5.12733z" fill="url(#color-49)"/></g></g><g stroke="none"><path d="M116.65064,392.4328c5.46892,-19.01869 11.46607,-34.64644 18.36418,-47.42576c22.01397,-40.78275 -106.56774,-72.82545 105.55026,-70.78244c222.87141,2.14657 86.04015,23.12676 110.1503,71.70827c6.57696,13.25245 12.58536,29.69527 18.32471,50.07461c13.43318,47.69804 28.51291,102.93203 1.00324,140.66236c-1.88215,-0.65161 -3.73467,0.47907 -3.73467,0.47907c-2.76796,1.90328 -4.58279,4.99229 -6.23533,7.91688c-0.65641,1.16167 -10.98676,0.17269 -11.88928,0.48316c-4.29897,1.47881 -7.11264,7.44407 -11.18853,8.74223c-3.14653,1.00216 -6.78803,-0.17147 -9.84919,1.06723c-4.95118,2.00352 -9.93257,9.74383 -16.49952,7.03141c-2.87146,-1.18601 -1.65802,-6.83288 -4.45413,-8.18706c-2.69915,-1.30723 -5.99276,0.2532 -8.98916,0.37981c-6.3415,3.17469 -12.98806,3.22898 -18.91327,6.54638c-4.3484,2.4346 -5.27401,7.30829 -8.77122,9.70116c-2.12645,1.45497 -5.26929,-0.33164 -7.71475,0.47969c-5.17654,1.71744 -7.9423,4.69279 -14.2358,3.42677c-3.44539,-0.6931 -6.76515,-3.09798 -10.23405,-2.53432c-1.7948,0.29163 -2.99718,2.15933 -4.72478,2.7266c-5.34908,1.75632 -14.76565,-0.04526 -20.48821,-0.00192c-3.15651,0.02391 -8.20911,0.97218 -11.22242,-0.40373c-4.65649,-2.12626 -6.68532,-5.99406 -12.25702,-7.13204c-2.31242,-0.47229 -5.3407,2.35344 -7.04382,0.71948c-1.8984,-1.82132 -2.61922,-4.57469 -4.16043,-6.70678c-5.49141,-7.59677 -7.32072,-18.29431 -11.76874,-26.57267c-1.33289,-2.48069 -1.97999,-6.45827 -4.74552,-6.98961c-3.08415,-0.59257 -5.84314,2.51132 -8.28521,4.486c-0.61806,0.49976 0.27888,3.0096 -0.20104,2.37599c-1.79435,-2.36895 -1.90985,-5.64788 -3.23229,-8.30946l-1.67279,-6.48214c-0.45201,-1.92426 -2.18675,-3.35016 -4.2467,-3.33455c-1.85796,0.01406 -3.43367,1.1967 -4.03505,2.84529l-1.66188,4.24771l0.79291,0.31023c-3.09689,5.50469 -4.52373,10.90767 -6.75728,18.02768c-0.28927,0.92214 -3.6124,6.18632 -5.54243,5.31112c-3.63265,-1.6473 -4.96457,-11.48122 -8.70926,-14.1452c-2.80712,-1.99701 -5.72382,-3.40735 -8.7261,-4.39971c-21.38138,-38.5233 -4.866,-91.5841 8.00426,-136.34165zM193.21428,364.6932c-0.03278,-4.3285 -4.36128,-4.29571 -4.36128,-4.29571c-13.93346,0.31981 -14.13359,-21.15317 -31.78459,-15.1206c-11.14857,3.81026 -9.48784,12.2226 -11.23614,21.00357c-0.63379,3.18316 -7.61544,3.79857 -9.30528,8.33c-1.48867,3.99201 0.88591,9.26488 4.04355,12.12521c8.24186,6.06833 26.55046,14.10173 36.0001,5.38551c2.18389,-2.01437 2.18462,-5.70738 4.26949,-7.82406c5.14189,-5.22037 14.85609,-4.53337 14.10317,-14.98999c-0.09474,-1.31592 -0.9377,-2.38504 -1.84269,-3.43374c0.07611,-0.35279 0.11693,-0.74471 0.11363,-1.18008zM331.07251,418.64831l-2.01486,1.0409c-2.72434,1.97007 -5.15455,3.0599 -6.34261,4.87499c-2.58721,0.97303 -5.44178,1.89398 -6.87258,1.64142c-5.62138,-0.99224 -4.7213,-11.45671 -13.97382,-7.44315c-7.11248,3.08523 -3.35348,7.07592 -4.04738,11.29801c-0.42813,2.60521 -5.3822,1.67762 -6.94725,3.80391c-1.63952,2.22742 -1.7332,5.32668 -1.84175,8.09031c-0.42852,10.91226 8.17811,9.50801 13.57567,15.08069c4.50816,4.65444 7.37715,8.32791 12.96496,12.1303c2.35536,-0.01784 4.81998,0.65571 7.06607,-0.05351c6.50143,-2.05289 5.37153,-7.94257 9.83739,-11.1343c6.00468,-4.29149 14.08945,-7.11245 12.80414,-16.91475c-0.80172,-6.11404 -10.696,-9.8673 -12.58224,-12.22912c0.23719,-0.44076 0.40023,-0.95927 0.42718,-1.56393c0.12895,-0.06543 0.27614,-0.12919 0.44241,-0.19133l1.4348,-0.71673c0,0 3.85689,-1.96509 1.89179,-5.82193c-1.96506,-3.85684 -5.82193,-1.89179 -5.82193,-1.89179zM148.45886,429.23731c-11.93811,3.55337 -6.52541,27.67452 2.86262,32.27998c2.31333,1.13482 12.86695,0.2036 14.16612,-1.55221c1.45556,-1.96719 -0.95566,-4.81826 -1.07302,-7.26264c-0.15439,-3.21682 3.8133,-5.83691 3.42533,-9.03396c-0.64497,-5.31517 -3.61631,-6.74595 -7.14996,-8.12483c-2.00371,-4.44255 -6.72485,-7.9453 -12.23108,-6.30635z" data-paper-data="{&quot;index&quot;:null}" fill="url(#color-50)"/><path d="M240.13602,315.4952c141.15489,24.42667 153.90026,220.36786 3.12454,231.46946c-105.53603,-8.74872 -129.57452,-92.84357 -98.83288,-157.70095c9.18309,5.40953 23.97357,10.39276 32.14299,2.85736c2.18389,-2.01437 2.18462,-5.70738 4.26949,-7.82406c5.14189,-5.22037 14.85609,-4.53337 14.10317,-14.98999c-0.09474,-1.31592 -0.9377,-2.38504 -1.84269,-3.43374c0.07611,-0.35279 0.11693,-0.74471 0.11363,-1.18008c-0.03278,-4.3285 -4.36128,-4.29571 -4.36128,-4.29571c-7.61103,0.1747 -11.12431,-6.15312 -15.62248,-10.94849c17.49637,-16.63282 40.10006,-29.01944 66.90552,-33.95379zM331.07251,418.64831l-2.01486,1.0409c-2.72434,1.97007 -5.15455,3.0599 -6.34261,4.87499c-2.58721,0.97303 -5.44178,1.89398 -6.87258,1.64142c-5.62138,-0.99224 -4.7213,-11.45671 -13.97382,-7.44315c-7.11248,3.08523 -3.35348,7.07592 -4.04738,11.29801c-0.42813,2.60521 -5.3822,1.67762 -6.94725,3.80391c-1.63952,2.22742 -1.7332,5.32668 -1.84175,8.09031c-0.42852,10.91226 8.17811,9.50801 13.57567,15.08069c4.50816,4.65444 7.37715,8.32791 12.96496,12.1303c2.35536,-0.01784 4.81998,0.65571 7.06607,-0.05351c6.50143,-2.05289 5.37153,-7.94257 9.83739,-11.1343c6.00468,-4.29149 14.08945,-7.11245 12.80414,-16.91475c-0.80172,-6.11404 -10.696,-9.8673 -12.58224,-12.22912c0.23719,-0.44076 0.40023,-0.95927 0.42718,-1.56393c0.12895,-0.06543 0.27614,-0.12919 0.44241,-0.19133l1.4348,-0.71673c0,0 3.85689,-1.96509 1.89179,-5.82193c-1.96506,-3.85684 -5.82193,-1.89179 -5.82193,-1.89179zM148.45886,429.23731c-11.93811,3.55337 -6.52541,27.67452 2.86262,32.27998c2.31333,1.13482 12.86695,0.2036 14.16612,-1.55221c1.45556,-1.96719 -0.95566,-4.81826 -1.07302,-7.26264c-0.15439,-3.21682 3.8133,-5.83691 3.42533,-9.03396c-0.64497,-5.31517 -3.61631,-6.74595 -7.14996,-8.12483c-2.00371,-4.44255 -6.72485,-7.9453 -12.23108,-6.30635z" data-paper-data="{&quot;index&quot;:null}" fill="url(#color-51)"/></g><g><g stroke="#000000"><path d="M242.92918,338.33344c-91.1983,-1.42671 -98.49279,-28.95286 -116.00411,-81.15559c0.52232,-7.30615 12.33297,-17.74314 31.10111,-24.13431c19.81706,-6.74835 47.54686,-17.10712 80.6903,-16.75766c34.15381,0.36012 66.12152,11.44998 89.06454,17.88393c9.37712,2.62961 33.54576,13.56975 34.64418,28.00279c-19.6994,51.38602 -37.89727,77.43741 -119.49601,76.1609z" fill="url(#color-52)"/><path d="M158.02612,233.04346c19.81706,-6.74835 47.54686,-17.10712 80.6903,-16.75766c34.15381,0.36012 66.12152,11.44998 89.06454,17.88393c8.78826,2.4645 30.56871,12.22854 34.17371,25.32623c-4.55041,2.11383 -8.82686,5.42102 -10.82004,9.49362c-1.69419,3.46175 -1.08184,7.43777 -2.5471,10.76575c-1.62835,3.69834 -4.7065,6.8104 -6.08607,10.75714c-2.92616,8.37116 -4.0804,14.80846 -12.47172,19.35518c-3.79892,2.974 -8.93376,5.19296 -12.3578,8.52091c-2.79428,2.71597 -3.96306,6.37777 -7.94399,8.07629c-7.05487,3.01001 -14.70923,3.92752 -21.78263,6.79813c-2.89309,1.1741 -5.56016,2.35777 -8.14821,3.30605c-4.49011,0.5884 -9.25696,1.03385 -14.32565,1.33548c-1.56253,-0.41206 -3.18469,-1.03858 -4.8921,-1.92259c-14.01319,-6.16262 -24.92846,-2.22212 -39.14538,-1.91084c-2.01403,0.04404 -3.64568,-1.7709 -5.59082,-2.29496c-6.96704,-1.87708 -18.5937,-1.49733 -27.8219,0.41201c-7.96065,-2.1342 -14.64568,-4.81618 -20.34739,-8.04153c-1.71037,-5.53165 -2.95314,-11.70929 -4.95609,-15.06242c-7.53149,-4.26335 -9.58373,-16.22598 -14.84966,-22.88918c-1.79166,-2.26709 -8.56608,-3.93819 -8.63326,-7.83425c-0.11493,-6.66504 0.9492,-9.37958 -1.78368,-16.10069c-1.33555,-3.28466 1.05237,-7.21972 0.10574,-10.63675c-0.49808,-1.79802 -2.4607,-2.80515 -3.69102,-4.20773c0,0 -0.25243,-0.25781 -0.67711,-0.52428c5.35643,-5.0432 13.91972,-10.13007 24.83727,-13.8479z" fill="url(#color-53)"/></g><path d="M241.7114,310.54417c-68.27928,-1.07505 -73.6288,-32.27927 -86.73129,-72.13188c0.3922,-5.57811 51.17088,-22.34757 85.9236,-21.60324c34.75266,0.74441 89.57262,14.36083 90.39279,25.37984c-14.7568,39.23485 -28.49292,69.31715 -89.58507,68.35525z" fill="url(#color-54)" stroke="#000000"/><g><path d="M199.78383,248.79094l0.04197,-3.98028l87.28191,0.9203l-0.04197,3.98028z" fill="url(#color-55)" stroke="none"/><path d="M227.04719,251.92176l1.29503,-122.82014l5.68608,0.05995l-1.29503,122.82014z" fill="url(#color-56)" stroke="none"/><path d="M254.90915,252.21556l1.29503,-122.82014l5.68611,0.05995l-1.29503,122.82014z" fill="url(#color-57)" stroke="none"/><g><path d="M192.04306,247.75369c0.03364,-3.19039 9.49025,-6.61566 9.49025,-6.61566c0,0 7.60227,12.69619 43.04723,16.87655c34.38032,-3.25161 39.71733,-16.46657 39.71733,-16.46657c0,0 11.43505,3.73514 11.39747,7.29859c-0.08564,8.12136 -22.14636,19.85365 -51.85859,19.54036c-29.71227,-0.31327 -51.87935,-12.51188 -51.7937,-20.63325z" fill="url(#color-58)" stroke="none"/><path d="M285.64908,250.4184c0,0 0.39983,-3.27778 0.58155,-5.82006c0.2185,-3.05702 -0.0398,-9.66021 -0.0398,-9.66021c0,0 3.41533,6.09638 4.33922,9.08231c0.83658,2.70376 1.55559,6.19733 1.55559,6.19733z" data-paper-data="{&quot;index&quot;:null}" fill="url(#color-59)" stroke="#000000"/><path d="M195.52668,249.19958c0,0 0.79247,-3.47764 1.68592,-6.16315c0.98667,-2.96577 4.5298,-8.98879 4.5298,-8.98879c0,0 -0.39747,6.59627 -0.24349,9.65731c0.12803,2.54555 0.45869,5.83103 0.45869,5.83103z" data-paper-data="{&quot;index&quot;:null}" fill="url(#color-60)" stroke="#000000"/><path d="M280.28118,255.16448c0,0 0.39983,-3.27778 0.58154,-5.82003c0.2185,-3.05702 -0.0398,-9.66023 -0.0398,-9.66023c0,0 3.41536,6.09642 4.33924,9.0823c0.83657,2.70374 1.55559,6.19733 1.55559,6.19733z" data-paper-data="{&quot;index&quot;:null}" fill="url(#color-61)" stroke="#000000"/><path d="M200.79335,254.05782c0,0 0.79252,-3.47766 1.68595,-6.16315c0.98667,-2.96577 4.5298,-8.98881 4.5298,-8.98881c0,0 -0.39748,6.59633 -0.2435,9.65733c0.12803,2.54555 0.45869,5.83103 0.45869,5.83103z" data-paper-data="{&quot;index&quot;:null}" fill="url(#color-62)" stroke="#000000"/><path d="M272.85548,258.92831c0,0 0.3998,-3.27784 0.58155,-5.82006c0.21851,-3.05706 -0.03978,-9.66023 -0.03978,-9.66023c0,0 3.41533,6.09638 4.33921,9.08232c0.83658,2.70376 1.55559,6.19733 1.55559,6.19733z" data-paper-data="{&quot;index&quot;:null}" fill="url(#color-63)" stroke="#000000"/><path d="M208.13795,257.9774c0,0 0.79252,-3.47766 1.68593,-6.16318c0.98667,-2.96577 4.52982,-8.9888 4.52982,-8.9888c0,0 -0.39747,6.59627 -0.24349,9.65731c0.12803,2.54555 0.45869,5.83103 0.45869,5.83103z" data-paper-data="{&quot;index&quot;:null}" fill="url(#color-64)" stroke="#000000"/><path d="M265.14459,261.72859c0,0 0.3998,-3.27784 0.58155,-5.82006c0.21851,-3.05706 -0.0398,-9.66021 -0.0398,-9.66021c0,0 3.41536,6.09638 4.33924,9.08229c0.83658,2.70376 1.5556,6.19735 1.5556,6.19735z" data-paper-data="{&quot;index&quot;:null}" fill="url(#color-65)" stroke="#000000"/><path d="M215.78813,260.93963c0,0 0.79252,-3.47766 1.68593,-6.16318c0.98667,-2.96577 4.5298,-8.98879 4.5298,-8.98879c0,0 -0.39747,6.59627 -0.24349,9.65728c0.12803,2.54555 0.45869,5.83103 0.45869,5.83103z" data-paper-data="{&quot;index&quot;:null}" fill="url(#color-66)" stroke="#000000"/><path d="M256.55559,263.75121c0,0 0.39983,-3.27783 0.58155,-5.82006c0.21851,-3.05706 -0.03985,-9.66024 -0.03985,-9.66024c0,0 3.41539,6.09635 4.33927,9.08226c0.83658,2.70376 1.5556,6.19735 1.5556,6.19735z" data-paper-data="{&quot;index&quot;:null}" fill="url(#color-67)" stroke="#000000"/><path d="M224.33256,263.14288c0,0 0.79248,-3.47767 1.68593,-6.16318c0.98667,-2.96577 4.5298,-8.98879 4.5298,-8.98879c0,0 -0.39747,6.59627 -0.24349,9.65728c0.12803,2.54555 0.45869,5.83103 0.45869,5.83103z" data-paper-data="{&quot;index&quot;:null}" fill="url(#color-68)" stroke="#000000"/><path d="M247.68127,264.81026c0,0 0.39983,-3.27783 0.58154,-5.82003c0.21851,-3.05706 -0.03985,-9.66024 -0.03985,-9.66024c0,0 3.41536,6.09638 4.33924,9.08229c0.83658,2.70376 1.5556,6.19735 1.5556,6.19735z" data-paper-data="{&quot;index&quot;:null}" fill="url(#color-69)" stroke="#000000"/><path d="M233.18256,264.38883c0,0 0.79253,-3.4777 1.68593,-6.16318c0.98667,-2.96577 4.52982,-8.98878 4.52982,-8.98878c0,0 -0.39747,6.59627 -0.24349,9.65731c0.12803,2.54555 0.4587,5.83099 0.4587,5.83099z" data-paper-data="{&quot;index&quot;:null}" fill="url(#color-70)" stroke="#000000"/></g></g><g data-paper-data="{&quot;index&quot;:null}"><path d="M325.78885,265.14176c0,0 0.822,-9.90645 1.20731,-17.58842c0.46327,-9.23758 0.0294,-29.18232 0.0294,-29.18232c0,0 6.64167,18.3785 8.42333,27.38851c1.61329,8.15844 2.9869,18.70429 2.9869,18.70429z" data-paper-data="{&quot;index&quot;:null}" fill="url(#color-71)" stroke="#000000"/><path d="M341.01652,259.95131l-0.14061,13.33569c0,0 -3.48272,2.61597 -9.41116,2.41552c-6.16149,-0.2083 -8.9254,-2.60885 -8.9254,-2.60885l0.14061,-13.33569z" fill="url(#color-72)" stroke="none"/></g><g data-paper-data="{&quot;index&quot;:null}"><path d="M148.7553,262.46381c0,0 1.59569,-10.51456 3.38064,-18.63715c1.97131,-8.97039 8.999,-27.2048 8.999,-27.2048c0,0 -0.85432,19.93118 -0.58593,29.17647c0.2232,7.68836 0.83614,17.60996 0.83614,17.60996z" data-paper-data="{&quot;index&quot;:null}" fill="url(#color-73)" stroke="#000000"/><path d="M164.6069,258.09124l-0.14061,13.33569c0,0 -2.81399,2.34171 -8.97843,2.42007c-5.9314,0.07544 -9.35814,-2.61343 -9.35814,-2.61343l0.14061,-13.33569z" fill="url(#color-74)" stroke="none"/></g><g data-paper-data="{&quot;index&quot;:null}"><path d="M315.1906,279.53896c0,0 0.82197,-9.90641 1.20727,-17.58837c0.46327,-9.23758 0.0294,-29.18236 0.0294,-29.18236c0,0 6.64167,18.3785 8.42334,27.38853c1.61329,8.15844 2.98695,18.70428 2.98695,18.70428z" data-paper-data="{&quot;index&quot;:null}" fill="url(#color-75)" stroke="#000000"/><path d="M330.41824,274.34853l-0.1406,13.33573c0,0 -3.48271,2.61593 -9.41121,2.4155c-6.16149,-0.2083 -8.9254,-2.60883 -8.9254,-2.60883l0.1406,-13.33573z" fill="url(#color-76)" stroke="none"/></g><g data-paper-data="{&quot;index&quot;:null}"><path d="M159.04764,277.08132c0,0 1.59569,-10.51456 3.38064,-18.63715c1.97131,-8.97039 8.999,-27.20483 8.999,-27.20483c0,0 -0.85431,19.93122 -0.58592,29.17651c0.22319,7.68839 0.83618,17.60993 0.83618,17.60993z" data-paper-data="{&quot;index&quot;:null}" fill="url(#color-77)" stroke="#000000"/><path d="M174.89927,272.70873l-0.1406,13.33573c0,0 -2.81399,2.34171 -8.97843,2.42006c-5.9314,0.07544 -9.35814,-2.61339 -9.35814,-2.61339l0.1406,-13.33573z" fill="url(#color-78)" stroke="none"/></g><g data-paper-data="{&quot;index&quot;:null}"><path d="M300.56086,290.99194c0,0 0.822,-9.90643 1.20728,-17.58841c0.46327,-9.23758 0.0294,-29.18236 0.0294,-29.18236c0,0 6.64172,18.3785 8.42341,27.3885c1.61329,8.15844 2.9869,18.70429 2.9869,18.70429z" data-paper-data="{&quot;index&quot;:null}" fill="url(#color-79)" stroke="#000000"/><path d="M315.78855,285.80149l-0.14061,13.33566c0,0 -3.48272,2.61597 -9.41116,2.41552c-6.16149,-0.2083 -8.9254,-2.60885 -8.9254,-2.60885l0.14061,-13.33566z" fill="url(#color-80)" stroke="none"/></g><g data-paper-data="{&quot;index&quot;:null}"><path d="M173.43262,288.84015c0,0 1.59574,-10.51455 3.38068,-18.63715c1.97131,-8.97039 8.99897,-27.2048 8.99897,-27.2048c0,0 -0.85431,19.93122 -0.58592,29.17651c0.22319,7.68839 0.83616,17.60997 0.83616,17.60997z" data-paper-data="{&quot;index&quot;:null}" fill="url(#color-81)" stroke="#000000"/><path d="M189.28427,284.46765l-0.14061,13.33566c0,0 -2.81398,2.34175 -8.97843,2.42007c-5.9314,0.07544 -9.35814,-2.61343 -9.35814,-2.61343l0.14061,-13.33566z" fill="url(#color-82)" stroke="none"/></g><g data-paper-data="{&quot;index&quot;:null}"><path d="M285.38142,299.53725c0,0 0.82197,-9.90641 1.20727,-17.58837c0.46332,-9.23759 0.0294,-29.18236 0.0294,-29.18236c0,0 6.64169,18.3785 8.42337,27.38852c1.61329,8.15844 2.9869,18.70429 2.9869,18.70429z" data-paper-data="{&quot;index&quot;:null}" fill="url(#color-83)" stroke="#000000"/><path d="M300.60909,294.34681l-0.14061,13.33569c0,0 -3.48271,2.61593 -9.41121,2.4155c-6.16149,-0.2083 -8.9254,-2.60883 -8.9254,-2.60883l0.14061,-13.33569z" fill="url(#color-84)" stroke="none"/></g><g data-paper-data="{&quot;index&quot;:null}"><path d="M188.42852,297.70369c0,0 1.59574,-10.51455 3.38068,-18.63715c1.97131,-8.97039 8.999,-27.20483 8.999,-27.20483c0,0 -0.85435,19.93121 -0.58592,29.17651c0.22319,7.68839 0.83618,17.60993 0.83618,17.60993z" data-paper-data="{&quot;index&quot;:null}" fill="url(#color-85)" stroke="#000000"/><path d="M204.28015,293.33115l-0.14061,13.33569c0,0 -2.81395,2.34172 -8.97839,2.42006c-5.9314,0.07544 -9.35814,-2.61339 -9.35814,-2.61339l0.14061,-13.33569z" fill="url(#color-86)" stroke="none"/></g><g data-paper-data="{&quot;index&quot;:null}"><path d="M268.48555,305.74309c0,0 0.822,-9.90645 1.20728,-17.58841c0.46332,-9.23759 0.0294,-29.18236 0.0294,-29.18236c0,0 6.64169,18.3785 8.42337,27.38852c1.61332,8.15844 2.9869,18.70429 2.9869,18.70429z" data-paper-data="{&quot;index&quot;:null}" fill="url(#color-87)" stroke="#000000"/><path d="M283.71322,300.55264l-0.14061,13.33569c0,0 -3.48272,2.61597 -9.41116,2.4155c-6.16149,-0.2083 -8.9254,-2.60883 -8.9254,-2.60883l0.14061,-13.33569z" fill="url(#color-88)" stroke="none"/></g><g data-paper-data="{&quot;index&quot;:null}"><path d="M205.18975,304.26436c0,0 1.59566,-10.51455 3.38064,-18.63715c1.97131,-8.97039 8.999,-27.20483 8.999,-27.20483c0,0 -0.85431,19.93122 -0.58592,29.17651c0.22319,7.68839 0.83616,17.60997 0.83616,17.60997z" data-paper-data="{&quot;index&quot;:null}" fill="url(#color-89)" stroke="#000000"/><path d="M221.04139,299.89182l-0.14061,13.33569c0,0 -2.81399,2.34171 -8.97843,2.42006c-5.9314,0.07544 -9.35814,-2.61339 -9.35814,-2.61339l0.14061,-13.33569z" fill="url(#color-90)" stroke="none"/></g><g data-paper-data="{&quot;index&quot;:null}"><path d="M251.03998,309.04125c0,0 0.82203,-9.90643 1.2073,-17.58837c0.46332,-9.23759 0.0294,-29.18236 0.0294,-29.18236c0,0 6.64169,18.3785 8.42337,27.38852c1.61332,8.15844 2.98695,18.70428 2.98695,18.70428z" data-paper-data="{&quot;index&quot;:null}" fill="url(#color-91)" stroke="#000000"/><path d="M266.26767,303.85086l-0.1406,13.33573c0,0 -3.48271,2.61593 -9.41116,2.4155c-6.16149,-0.2083 -8.9254,-2.60883 -8.9254,-2.60883l0.1406,-13.33573z" fill="url(#color-92)" stroke="none"/></g><g data-paper-data="{&quot;index&quot;:null}"><path d="M222.56189,307.92968c0,0 1.59569,-10.51456 3.38068,-18.63715c1.97131,-8.97039 8.99896,-27.20483 8.99896,-27.20483c0,0 -0.85431,19.93122 -0.58592,29.17651c0.22319,7.68839 0.83614,17.60991 0.83614,17.60991z" data-paper-data="{&quot;index&quot;:null}" fill="url(#color-93)" stroke="#000000"/><path d="M238.41353,303.55716l-0.1406,13.33573c0,0 -2.81399,2.34171 -8.97843,2.42006c-5.9314,0.07544 -9.35814,-2.61339 -9.35814,-2.61339l0.1406,-13.33573z" fill="url(#color-94)" stroke="none"/></g></g><g><g><g><path d="M141.47613,178.98918c0,0 -0.822,9.90643 -1.20731,17.58842c-0.46332,9.23759 -0.0294,29.18232 -0.0294,29.18232c0,0 -6.64161,-18.37849 -8.42333,-27.38851c-1.61332,-8.15844 -2.98695,-18.70428 -2.98695,-18.70428z" data-paper-data="{&quot;index&quot;:null}" fill="url(#color-95)" stroke="#000000"/><path d="M126.24848,184.17962l0.14061,-13.33566l18.33661,0.19334l-0.14061,13.33566z" fill="url(#color-96)" stroke="none"/></g><g data-paper-data="{&quot;index&quot;:null}"><path d="M364.97795,183.31782c0,0 -1.5957,10.51453 -3.38071,18.63712c-1.97133,8.97039 -8.999,27.20483 -8.999,27.20483c0,0 0.85431,-19.93125 0.58593,-29.17653c-0.22319,-7.68839 -0.83611,-17.60996 -0.83611,-17.60996z" data-paper-data="{&quot;index&quot;:null}" fill="url(#color-97)" stroke="#000000"/><path d="M349.12632,187.69035l0.14061,-13.33569l18.33661,0.19334l-0.14061,13.33569z" fill="url(#color-98)" stroke="none"/></g><g><path d="M156.06518,187.70686c0,0 -0.822,9.90643 -1.20731,17.58842c-0.46332,9.23759 -0.0294,29.18232 -0.0294,29.18232c0,0 -6.64169,-18.3785 -8.42337,-27.3885c-1.61332,-8.15844 -2.9869,-18.70429 -2.9869,-18.70429z" data-paper-data="{&quot;index&quot;:null}" fill="url(#color-99)" stroke="#000000"/><path d="M140.83747,192.89732l0.14061,-13.33569l18.33661,0.19334l-0.14061,13.33569z" fill="url(#color-100)" stroke="none"/></g><g data-paper-data="{&quot;index&quot;:null}"><path d="M350.20834,191.72596c0,0 -1.59569,10.51456 -3.38064,18.63715c-1.97133,8.97039 -8.999,27.2048 -8.999,27.2048c0,0 0.85432,-19.93118 0.58593,-29.17647c-0.22319,-7.68839 -0.83614,-17.60996 -0.83614,-17.60996z" data-paper-data="{&quot;index&quot;:null}" fill="url(#color-101)" stroke="#000000"/><path d="M334.35674,196.09855l0.1406,-13.33573l18.33661,0.19334l-0.1406,13.33573z" fill="url(#color-102)" stroke="none"/></g><g><path d="M173.48088,199.07379c0,0 -0.82197,9.90641 -1.20727,17.58837c-0.46332,9.23759 -0.02941,29.1824 -0.02941,29.1824c0,0 -6.64169,-18.37853 -8.42337,-27.38852c-1.61332,-8.15844 -2.9869,-18.70429 -2.9869,-18.70429z" data-paper-data="{&quot;index&quot;:null}" fill="url(#color-103)" stroke="#000000"/><path d="M158.25317,204.26424l0.1406,-13.33573l18.33661,0.19334l-0.1406,13.33573z" fill="url(#color-104)" stroke="none"/></g><g data-paper-data="{&quot;index&quot;:null}"><path d="M332.56904,201.56252c0,0 -1.59569,10.51456 -3.38064,18.63715c-1.97133,8.97039 -8.999,27.20483 -8.999,27.20483c0,0 0.85431,-19.93125 0.58593,-29.17653c-0.22319,-7.68839 -0.83614,-17.60991 -0.83614,-17.60991z" data-paper-data="{&quot;index&quot;:null}" fill="url(#color-105)" stroke="#000000"/><path d="M316.71747,205.93509l0.1406,-13.33573l18.33661,0.19334l-0.1406,13.33573z" fill="url(#color-106)" stroke="none"/></g><path d="M379.17767,159.91993c-1.61874,20.41213 -28.93337,26.21725 -39.52483,29.69062c-25.91419,8.49835 -61.9747,13.48487 -100.3048,13.08072c-37.19616,-0.3922 -68.11515,-7.88388 -90.16912,-17.97206c-20.88678,-9.55426 -33.89278,-21.43813 -34.28324,-31.79975c21.04498,-73.46611 19.58372,-125.01859 132.49709,-127.82856c109.49132,7.83213 111.05766,61.52355 131.78491,134.82901z" fill="url(#color-107)" stroke="#000000"/><path d="M372.97014,163.28495c-1.55324,20.41283 -22.31792,29.77152 -32.41652,33.25008c-24.70845,8.51107 -63.13218,19.04781 -99.67246,18.66255c-35.45929,-0.37389 -67.54405,-12.05924 -88.56337,-22.13649c-19.90683,-9.54393 -30.93441,-24.8914 -31.30154,-35.25285c20.09854,-73.4761 13.16556,24.7463 120.80841,21.8808c104.37534,7.7782 111.42217,-89.69899 131.14553,-16.40414z" fill="url(#color-108)" stroke="#000000"/><path d="M239.34804,202.69128c-6.86489,-0.07238 -13.51595,-0.38659 -19.93692,-0.91433c-7.39725,-7.70354 -14.52236,-15.02206 -23.36455,-21.80056c-5.54545,-3.24412 -5.4355,-4.41769 -12.06183,-3.5173c-2.55149,0.34673 -5.49146,3.9654 -7.39526,2.23173c-3.15886,-2.87658 -5.58259,-11.15552 -10.10821,-13.00762c-9.08985,-3.71994 -11.19032,7.34217 -19.7352,-0.10773c-0.85337,-0.74399 0.22026,-2.33115 -0.17532,-3.3919c-0.74279,-1.99197 -5.45736,-9.50031 -7.37325,-10.50378c-7.57524,-3.96754 -16.21401,1.83722 -22.30175,5.40314c0,0 -1.20198,0.70406 -1.7975,1.99224c-0.13742,-0.66983 -0.21994,-1.34989 -0.24596,-2.04148c21.04498,-73.46608 19.6271,-129.13286 132.54049,-131.9428c27.82313,1.99025 48.67722,6.94175 64.64753,14.4239c-1.3071,2.73232 -2.65146,5.42366 -3.04003,8.44819c-0.4634,3.60659 2.86923,6.53581 -1.32909,8.4928c-1.69432,0.78977 -3.44842,-1.45668 -5.22732,-2.03109c-2.74837,-0.88745 -6.22006,1.64307 -8.66365,0.10362c-1.85524,-1.16883 -2.22543,-4.53807 -4.38791,-4.90082c-3.23168,-0.54214 -11.08816,5.34886 -15.22085,3.60552c-2.23669,-0.94347 -3.70303,-4.17629 -6.11982,-3.94772c-8.07655,0.76385 -5.53431,8.43005 -12.78663,9.48959c-1.85905,1.88398 -4.35463,3.30443 -5.57708,5.65197c-1.20214,2.30857 0.56778,5.29336 -0.10475,7.8078c-0.51863,1.93919 -2.56256,-3.17709 -3.27496,-5.05383c-1.71766,-4.52535 -2.60398,-8.14971 -7.62053,-10.58309c-0.36023,-0.17475 -0.70993,-0.31179 -1.05097,-0.4174c0.08763,-1.55707 -0.85502,-2.84194 -0.85502,-2.84194c-2.23193,-2.77256 -5.61706,-4.496 -8.86456,-5.95288c-3.01573,-1.3529 -4.79487,-5.11703 -8.02288,-5.82732c-8.30691,-1.82786 -16.12847,5.851 -21.44784,11.0727c-10.07806,2.90554 -8.12825,14.87036 -14.91183,20.94965c-2.8805,3.74097 -9.16684,9.76548 -8.44427,15.03344c1.15772,8.44084 10.40265,6.07104 11.77723,14.07852c0.56501,3.29128 -1.69872,8.09675 0.74255,10.98218c5.17383,6.11505 14.08467,-0.7273 19.24523,2.90406c4.77109,3.35729 5.34116,10.76874 13.60174,9.88536c3.43333,-0.36715 11.2802,-8.96523 13.12424,-11.80515c1.21388,-1.86943 1.25856,-4.73978 3.16879,-5.88843c3.79984,-1.69419 7.51281,-5.08345 8.5214,-9.11978c0.25114,-1.00516 -1.01008,-2.09764 -0.60102,-3.04954c0.40547,-0.94368 3.79118,-1.58275 2.83964,-1.19609c-2.45647,0.9981 -2.03372,7.43102 -1.92957,7.68249c2.75547,6.65521 5.38057,3.59611 9.50198,6.46947c5.01911,3.4991 4.88663,14.03751 11.45616,16.99407c8.3414,3.75392 10.83675,-3.06014 15.9888,-6.43131c3.08425,-2.01814 9.64128,-0.13957 12.83646,-1.27094c4.21181,-1.49125 5.65546,-4.13877 8.08609,-7.30943c3.04917,-2.34117 5.81534,-5.63836 6.71614,-9.3757c0.65219,-2.70594 -1.09332,-5.72989 -0.15093,-8.34891c0.84179,-2.33942 8.01993,-3.23207 8.17906,-3.31835c2.36621,-1.2829 4.68066,-2.92433 6.25331,-5.10868c2.42407,-3.36691 2.49852,-9.9889 4.81306,-13.83005c2.91074,-4.8307 5.70121,-9.50251 8.65192,-14.01081c21.599,22.04467 28.15096,53.73076 38.2035,91.22781c-4.5226,3.17783 -9.02482,4.15041 -13.68467,7.28331c-1.28054,0.86093 -2.46682,4.12831 -3.52281,3.00325c-4.46789,-4.76045 -1.98844,-13.21851 -13.13808,-6.84187c-3.58907,2.05264 -5.68417,13.31171 -4.89698,16.85277c0.53178,2.39208 4.3507,4.03787 3.6447,6.38451c-0.92933,3.089 -3.96037,5.27047 -4.86071,8.36811c-0.80946,2.78496 -1.14746,4.51744 -1.28448,6.20017c-25.8147,8.24584 -61.32177,13.06399 -99.0248,12.66647z" fill="url(#color-109)" stroke="#000000"/><path d="M231.3919,78.95836c-0.11474,10.88144 -8.79047,19.61207 -19.37786,19.50045c-10.58739,-0.11163 -19.07709,-9.0233 -18.96235,-19.90469c0.11474,-10.88144 8.79047,-19.61207 19.37786,-19.50045c10.58739,0.11163 19.07709,9.0233 18.96235,19.90469z" fill="url(#color-110)" stroke="none"/><path d="M298.89503,79.67011c-0.11474,10.88144 -8.79043,19.61206 -19.37781,19.50045c-10.58739,-0.11163 -19.07709,-9.0233 -18.96235,-19.90469c0.11474,-10.88144 8.79047,-19.61207 19.37786,-19.50045c10.58739,0.11163 19.07707,9.02329 18.96233,19.90469z" fill="url(#color-111)" stroke="none"/><g stroke="none"><path d="M222.73052,78.86705c-0.0629,5.965 -4.81876,10.75097 -10.62256,10.68979c-5.80377,-0.06121 -10.45769,-4.94639 -10.3948,-10.91138c0.0629,-5.965 4.81876,-10.75097 10.62256,-10.68979c5.80377,0.06121 10.45769,4.94639 10.3948,10.91138z" fill="url(#color-112)"/><path d="M218.25844,78.81989c-0.03614,3.42654 -2.76806,6.17584 -6.10201,6.14069c-3.33391,-0.03516 -6.00732,-2.84143 -5.97118,-6.26797c0.03614,-3.42654 2.76806,-6.17582 6.10202,-6.14064c3.33391,0.03516 6.00732,2.84138 5.97118,6.26794z" fill="#ffffff"/></g><g stroke="none"><path d="M290.23358,79.57878c-0.0629,5.965 -4.81873,10.75098 -10.62253,10.68977c-5.80377,-0.06121 -10.45769,-4.94639 -10.3948,-10.91138c0.0629,-5.965 4.81876,-10.75097 10.62256,-10.68979c5.80377,0.06121 10.45767,4.9464 10.39475,10.91137z" fill="url(#color-113)"/><path d="M285.76155,79.53165c-0.03614,3.42654 -2.76806,6.17584 -6.10201,6.14069c-3.33391,-0.03516 -6.00732,-2.84143 -5.97118,-6.26797c0.03614,-3.42654 2.76806,-6.17582 6.10202,-6.14064c3.33391,0.03516 6.00732,2.84138 5.97118,6.26794z" fill="#ffffff"/></g></g><g><g><path d="M183.85273,206.14743c0,0 -0.822,9.90643 -1.20731,17.58842c-0.46332,9.23759 -0.0294,29.18236 -0.0294,29.18236c0,0 -6.64167,-18.37853 -8.42334,-27.38853c-1.61332,-8.15844 -2.9869,-18.70429 -2.9869,-18.70429z" data-paper-data="{&quot;index&quot;:null}" fill="url(#color-114)" stroke="#000000"/><path d="M168.62506,211.33789l0.14061,-13.33569l18.33657,0.19335l-0.14061,13.33569z" fill="url(#color-115)" stroke="none"/></g><g data-paper-data="{&quot;index&quot;:null}"><path d="M317.98827,208.37307c0,0 -1.59569,10.51456 -3.38068,18.63715c-1.97133,8.97039 -8.999,27.20483 -8.999,27.20483c0,0 0.85431,-19.93122 0.58592,-29.17651c-0.22319,-7.68839 -0.83614,-17.60996 -0.83614,-17.60996z" data-paper-data="{&quot;index&quot;:null}" fill="url(#color-116)" stroke="#000000"/><path d="M302.13664,212.74564l0.14061,-13.33569l18.33661,0.19334l-0.14061,13.33569z" fill="url(#color-117)" stroke="none"/></g><g><path d="M195.9961,210.33797c0,0 -0.82197,9.90645 -1.20724,17.58842c-0.46332,9.23759 -0.0294,29.18232 -0.0294,29.18232c0,0 -6.64169,-18.3785 -8.42337,-27.3885c-1.61332,-8.15844 -2.98695,-18.70428 -2.98695,-18.70428z" data-paper-data="{&quot;index&quot;:null}" fill="url(#color-118)" stroke="#000000"/><path d="M180.76846,215.52842l0.14061,-13.33566l18.33661,0.19334l-0.14061,13.33566z" fill="url(#color-119)" stroke="none"/></g><g data-paper-data="{&quot;index&quot;:null}"><path d="M305.75919,212.30666c0,0 -1.59574,10.51455 -3.38068,18.63715c-1.97133,8.97039 -8.99897,27.2048 -8.99897,27.2048c0,0 0.85432,-19.93118 0.58593,-29.17647c-0.22319,-7.68839 -0.83616,-17.60997 -0.83616,-17.60997z" data-paper-data="{&quot;index&quot;:null}" fill="url(#color-120)" stroke="#000000"/><path d="M289.90765,216.67918l0.14061,-13.33566l18.33661,0.19334l-0.14061,13.33566z" fill="url(#color-121)" stroke="none"/></g><g><path d="M208.69769,216.62551c0,0 -0.82197,9.90641 -1.20724,17.58842c-0.46332,9.23759 -0.0294,29.18236 -0.0294,29.18236c0,0 -6.64169,-18.3785 -8.42337,-27.3885c-1.61332,-8.15844 -2.98695,-18.70428 -2.98695,-18.70428z" data-paper-data="{&quot;index&quot;:null}" fill="url(#color-122)" stroke="#000000"/><path d="M193.47005,221.81597l0.1406,-13.33573l18.33661,0.19334l-0.1406,13.33573z" fill="url(#color-123)" stroke="none"/></g><g data-paper-data="{&quot;index&quot;:null}"><path d="M292.9279,218.32493c0,0 -1.59569,10.51456 -3.38064,18.63715c-1.97131,8.97039 -8.99904,27.2048 -8.99904,27.2048c0,0 0.85431,-19.93122 0.58592,-29.17651c-0.22324,-7.6884 -0.83611,-17.60996 -0.83611,-17.60996z" data-paper-data="{&quot;index&quot;:null}" fill="url(#color-124)" stroke="#000000"/><path d="M277.07629,222.69752l0.1406,-13.33573l18.33661,0.19334l-0.1406,13.33573z" fill="url(#color-125)" stroke="none"/></g><g><path d="M223.5203,219.17687c0,0 -0.822,9.90643 -1.20727,17.58837c-0.46332,9.23759 -0.0294,29.18236 -0.0294,29.18236c0,0 -6.64169,-18.3785 -8.42341,-27.3885c-1.61332,-8.15844 -2.9869,-18.70429 -2.9869,-18.70429z" data-paper-data="{&quot;index&quot;:null}" fill="url(#color-126)" stroke="#000000"/><path d="M208.29265,224.36729l0.14061,-13.33569l18.33661,0.19334l-0.14061,13.33569z" fill="url(#color-127)" stroke="none"/></g><g data-paper-data="{&quot;index&quot;:null}"><path d="M278.05477,220.56321c0,0 -1.59569,10.51456 -3.38068,18.63715c-1.97131,8.97039 -8.999,27.2048 -8.999,27.2048c0,0 0.85431,-19.93122 0.58592,-29.17651c-0.22324,-7.6884 -0.83614,-17.60991 -0.83614,-17.60991z" data-paper-data="{&quot;index&quot;:null}" fill="url(#color-128)" stroke="#000000"/><path d="M262.20322,224.93572l0.14061,-13.33569l18.33661,0.19334l-0.14061,13.33569z" fill="url(#color-129)" stroke="none"/></g><g data-paper-data="{&quot;index&quot;:null}"><path d="M262.35626,223.29948c0,0 -1.59569,10.51456 -3.38068,18.63715c-1.97131,8.97039 -8.99897,27.2048 -8.99897,27.2048c0,0 0.85431,-19.93122 0.58592,-29.17651c-0.22324,-7.6884 -0.83614,-17.60996 -0.83614,-17.60996z" data-paper-data="{&quot;index&quot;:null}" fill="url(#color-130)" stroke="#000000"/><path d="M246.50462,227.67199l0.14061,-13.33569l18.33661,0.19334l-0.14061,13.33569z" fill="url(#color-131)" stroke="none"/></g><g data-paper-data="{&quot;index&quot;:null}"><path d="M240.26756,221.67486c0,0 -0.822,9.90643 -1.20728,17.58841c-0.46332,9.23759 -0.0294,29.18232 -0.0294,29.18232c0,0 -6.64167,-18.3785 -8.42333,-27.38851c-1.61332,-8.15844 -2.98699,-18.70429 -2.98699,-18.70429z" data-paper-data="{&quot;index&quot;:null}" fill="url(#color-132)" stroke="#000000"/><path d="M225.03984,226.86532l0.1406,-13.33573l18.33661,0.19334l-0.1406,13.33573z" fill="url(#color-133)" stroke="none"/></g><g><path d="M322.09561,199.63134c-0.93267,10.06962 -42.71282,26.69103 -81.52379,25.44047c-44.50522,-1.43408 -73.87587,-23.36017 -74.11625,-28.47296c12.31861,-36.22671 8.1649,12.22705 74.65251,10.95432c64.48327,3.97457 68.70829,-44.11132 80.98758,-7.92188z" fill="url(#color-134)" stroke="#000000"/><g><path d="M242.88028,216.25615c0,0 -85.68741,7.1736 -86.60127,-52.54597c-0.9412,-61.50639 47.04964,-57.99687 88.18981,-57.47293c50.86706,0.0636 85.86844,4.73397 86.48349,61.01541c0.60439,55.30856 -88.07206,49.00351 -88.07206,49.00351z" fill="url(#color-135)" stroke="#000000"/><g><path d="M156.27903,163.71017c-0.9412,-61.50639 47.04964,-57.99687 88.18981,-57.47293c50.86706,0.0636 85.86844,4.73397 86.48349,61.01541c0.07398,6.76873 -1.18926,12.61467 -3.46342,17.66229c-1.89047,-1.62451 -4.3922,-0.40649 -4.3922,-0.40649c-7.65126,3.73671 -14.52111,2.79017 -22.75392,5.47069c-2.65609,0.86482 -5.50652,-2.48148 -8.19835,-1.73527c-3.34887,0.92828 -5.19261,4.72936 -8.26287,6.35738c-3.28774,1.74339 -6.33211,5.05378 -10.04867,4.86433c-1.68618,-0.08594 -3.10037,-1.88194 -4.77703,-1.68372c-6.19897,0.73274 -5.25353,3.34329 -9.27338,6.15198c-5.05159,3.52956 -8.03511,4.63655 -14.10101,4.56092c-4.87136,-0.05136 -11.47611,-1.2955 -16.11769,-0.64724c-2.00493,0.28 -3.9917,3.26695 -6.37015,1.8591c-1.64045,-0.971 -2.61409,-3.1301 -4.4694,-3.56784c-3.65493,-0.86228 -7.15522,1.98207 -10.81173,1.45686c-3.92287,-0.56342 -8.92168,-1.50995 -12.94111,-2.29476c-4.01411,-0.78378 -6.49354,-4.64382 -9.87022,-6.32578c-4.96242,-2.47174 -9.39482,-1.79722 -14.30042,-1.29796c-8.49234,-7.76374 -14.2876,-18.6713 -14.52166,-33.96701z" fill="url(#color-136)" stroke="#000000"/><path d="M180.2908,153.86265c3.19792,0.03373 5.74382,4.46809 5.68651,9.90455c-0.05732,5.4364 -2.69619,9.81616 -5.89411,9.78245c-3.19792,-0.03373 -5.74382,-4.46809 -5.68651,-9.90455c0.05732,-5.4364 2.69619,-9.81616 5.89411,-9.78245z" data-paper-data="{&quot;index&quot;:null}" fill="url(#color-137)" stroke="none"/><path d="M315.10101,165.12868c-0.05732,5.4364 -2.69619,9.81616 -5.89411,9.78245c-3.19792,-0.03373 -5.74382,-4.46809 -5.68651,-9.90455c0.05732,-5.4364 2.69614,-9.81616 5.89411,-9.78245c3.19792,0.03373 5.74382,4.46809 5.68651,9.90455z" data-paper-data="{&quot;index&quot;:null}" fill="url(#color-138)" stroke="none"/></g></g></g></g></g></g></g></svg>