<svg version="1.1" xmlns="http://www.w3.org/2000/svg" xmlns:xlink="http://www.w3.org/1999/xlink" width="684.3782" height="449.45353" viewBox="0,0,684.3782,449.45353"><defs><radialGradient cx="246.97377" cy="137.11005" r="188.20571" gradientUnits="userSpaceOnUse" id="color-1"><stop offset="0" stop-color="#4e5653" stop-opacity="0"/><stop offset="1" stop-color="#4e5653"/></radialGradient><linearGradient x1="59.52843" y1="133.61005" x2="72.83773" y2="133.61005" gradientUnits="userSpaceOnUse" id="color-2"><stop offset="0" stop-color="#666666"/><stop offset="1" stop-color="#454545"/></linearGradient><linearGradient x1="404.93085" y1="135.60709" x2="418.24015" y2="135.60709" gradientUnits="userSpaceOnUse" id="color-3"><stop offset="0" stop-color="#666666"/><stop offset="1" stop-color="#454545"/></linearGradient><linearGradient x1="240.37981" y1="77.69719" x2="240.37981" y2="64.38789" gradientUnits="userSpaceOnUse" id="color-4"><stop offset="0" stop-color="#666666"/><stop offset="1" stop-color="#454545"/></linearGradient><linearGradient x1="212.3813" y1="204.31886" x2="212.3813" y2="191.00954" gradientUnits="userSpaceOnUse" id="color-5"><stop offset="0" stop-color="#666666"/><stop offset="1" stop-color="#454545"/></linearGradient><linearGradient x1="-109.80554" y1="179.65627" x2="-119.80554" y2="179.65627" gradientUnits="userSpaceOnUse" id="color-6"><stop offset="0" stop-color="#666666"/><stop offset="1" stop-color="#454545"/></linearGradient><linearGradient x1="-49.80554" y1="173.15627" x2="-39.80554" y2="173.15627" gradientUnits="userSpaceOnUse" id="color-7"><stop offset="0" stop-color="#666666"/><stop offset="1" stop-color="#454545"/></linearGradient><linearGradient x1="-17.80398" y1="64.5744" x2="-21.80713" y2="73.73816" gradientUnits="userSpaceOnUse" id="color-8"><stop offset="0" stop-color="#666666"/><stop offset="1" stop-color="#454545"/></linearGradient><linearGradient x1="-135.9024" y1="155.22529" x2="-28.28224" y2="155.22529" gradientUnits="userSpaceOnUse" id="color-9"><stop offset="0" stop-color="#364034"/><stop offset="1" stop-color="#1f251e"/></linearGradient><linearGradient x1="435.7088" y1="155.976" x2="494.7418" y2="155.976" gradientUnits="userSpaceOnUse" id="color-10"><stop offset="0" stop-color="#262d25"/><stop offset="1" stop-color="#414c3f"/></linearGradient><linearGradient x1="208.1032" y1="-53.76095" x2="208.1032" y2="19.60103" gradientUnits="userSpaceOnUse" id="color-11"><stop offset="0" stop-color="#3c3c3c"/><stop offset="1" stop-color="#272727"/></linearGradient><linearGradient x1="196.26258" y1="-59.27247" x2="196.26258" y2="26.31312" gradientUnits="userSpaceOnUse" id="color-12"><stop offset="0" stop-color="#000000"/><stop offset="1" stop-color="#000000" stop-opacity="0"/></linearGradient><radialGradient cx="-2.36361" cy="301.442" r="27.66003" gradientUnits="userSpaceOnUse" id="color-13"><stop offset="0" stop-color="#232323"/><stop offset="1" stop-color="#0f0f0f"/></radialGradient><linearGradient x1="-35.41583" y1="272.26195" x2="31.08805" y2="272.26195" gradientUnits="userSpaceOnUse" id="color-14"><stop offset="0" stop-color="#282828"/><stop offset="1" stop-color="#282828" stop-opacity="0"/></linearGradient><linearGradient x1="-35.41583" y1="272.26195" x2="31.08805" y2="272.26195" gradientUnits="userSpaceOnUse" id="color-15"><stop offset="0" stop-color="#282828" stop-opacity="0"/><stop offset="1" stop-color="#282828"/></linearGradient><linearGradient x1="-35.41583" y1="272.26195" x2="31.08805" y2="272.26195" gradientUnits="userSpaceOnUse" id="color-16"><stop offset="0" stop-color="#282828"/><stop offset="1" stop-color="#282828" stop-opacity="0"/></linearGradient><linearGradient x1="31.08805" y1="272.26195" x2="-35.41583" y2="272.26195" gradientUnits="userSpaceOnUse" id="color-17"><stop offset="0" stop-color="#282828"/><stop offset="1" stop-color="#282828" stop-opacity="0"/></linearGradient><linearGradient x1="-37.89225" y1="243.3345" x2="33.96388" y2="243.3345" gradientUnits="userSpaceOnUse" id="color-18"><stop offset="0" stop-color="#191919"/><stop offset="1" stop-color="#616161"/></linearGradient><radialGradient cx="13.52496" cy="232.96304" r="36.76685" gradientUnits="userSpaceOnUse" id="color-19"><stop offset="0" stop-color="#636363"/><stop offset="1" stop-color="#363636"/></radialGradient></defs><g transform="translate(150.04057,72.52209)"><g data-paper-data="{&quot;isPaintingLayer&quot;:true}" fill-rule="nonzero" stroke-linejoin="miter" stroke-miterlimit="10" stroke-dasharray="" stroke-dashoffset="0" style="mix-blend-mode: normal"><path d="M58.76806,223.11018v-172h376.41141v172z" fill="url(#color-1)" stroke="none" stroke-width="0" stroke-linecap="butt"/><path d="M352.71296,160.00286l9.13885,13.30092l9.09483,1.02369l8.27784,-7.08615l0.17331,16.94356l14.03011,15.53453" fill="none" stroke="#e8fff9" stroke-width="2" stroke-linecap="round"/><path d="M59.52843,227.11014v-187h13.30931v187z" fill="url(#color-2)" stroke="none" stroke-width="0" stroke-linecap="butt"/><path d="M404.93085,229.1071v-187h13.30931v187z" fill="url(#color-3)" stroke="none" stroke-width="0" stroke-linecap="butt"/><path d="M361.68061,173.28276l4.5,-9.5h6.5" fill="none" stroke="#e8fff9" stroke-width="2" stroke-linecap="round"/><path d="M369.68061,175.28276l-9,11l-14.5,-4" fill="none" stroke="#e8fff9" stroke-width="2" stroke-linecap="round"/><path d="M428.50893,77.69719h-376.25825v-13.30931h376.25826z" fill="url(#color-4)" stroke="none" stroke-width="0" stroke-linecap="butt"/><path d="M435.01042,204.31886h-445.25825v-13.30931h445.25826z" fill="url(#color-5)" stroke="none" stroke-width="0" stroke-linecap="butt"/><path d="M-119.80554,345.15629v-331h10v331z" data-paper-data="{&quot;index&quot;:null}" fill="url(#color-6)" stroke="none" stroke-width="0" stroke-linecap="butt"/><path d="M-49.80554,308.15629v-270h10v270z" fill="url(#color-7)" stroke="none" stroke-width="0" stroke-linecap="butt"/><path d="M-141.51487,10.53169l111.49745,48.70728c0.02506,0.05616 0.04734,0.11282 0.06638,0.17004c0.63209,1.8996 -0.44896,4.05499 0,6.00601c0.48435,2.1048 2.05046,3.88134 2.66675,5.93045l-118.23374,-51.65001z" fill="url(#color-8)" stroke="none" stroke-width="0" stroke-linecap="butt"/><path d="M-150.04057,-1.39297l1.19442,-71.12912h647.14715v129.12912h-515.12155z" fill="#6b6b6b" stroke="none" stroke-width="0" stroke-linecap="butt"/><path d="M-131.97592,376.93144l-1.50842,-28.26157l108.66972,-56.36005l546.63663,-9.00901v92.12912z" fill="#989898" stroke="none" stroke-width="0" stroke-linecap="butt"/><path d="M-28.78224,295.36494v-268.76877h466.49253v268.76877zM414.56592,200.17631v-131h-351l1,131z" fill="#364034" stroke="#000000" stroke-width="0" stroke-linecap="butt"/><path d="M-134.9024,349.90708l-1,-376.36337l107.62012,52.55255v268.76877l-16.68678,8.51873l-0.85152,-246.27355l-67.38615,-29.71814c0,0 -2.031,311.57339 -1.02649,313.13263z" fill="url(#color-9)" stroke="#000000" stroke-width="0" stroke-linecap="butt"/><path d="M435.7088,294.86494v-268.76877l59.033,-58.55856l-1.5015,376.87688z" fill="url(#color-10)" stroke="#000000" stroke-width="0" stroke-linecap="butt"/><path d="M23.9324,-13.35044l0.67858,-40.41051h367.66299v38.03201l-34.53453,35.32997h-294.15693z" fill="url(#color-11)" stroke="none" stroke-width="0" stroke-linecap="butt"/><path d="M32.29919,-15.43678l349.33556,-0.33428l-27.47143,26.24639h-289.36054z" fill="#bbbba3" stroke="none" stroke-width="0" stroke-linecap="butt"/><path d="M-141.8125,26.31312v-85.58559h676.15012v85.58559z" fill="url(#color-12)" stroke="none" stroke-width="NaN" stroke-linecap="butt"/><g stroke-width="0" stroke-linecap="butt"><path d="M-2.36361,294.4521c15.2762,0 28.24865,3.35008 28.24865,6.9899c0,3.63982 -12.97244,7.38931 -28.24865,7.38931c-15.27621,0 -27.95433,-3.74949 -27.95433,-7.38931c0,-3.63982 12.67812,-6.9899 27.95433,-6.9899z" fill="url(#color-13)" stroke="none"/><g><path d="M-30.22332,302.41836l-5.19251,-60.31282c0,0 6.59298,-12.98187 32.55294,-13.78008c28.96183,-0.8905 33.95094,13.78008 33.95094,13.78008l-4.99278,60.31282c0,0 -1.60609,-7.78874 -27.56016,-7.58903c-28.54684,0.20615 -28.75843,7.58903 -28.75843,7.58903z" fill="url(#color-14)" stroke="none"/><path d="M-30.22332,302.41836l-5.19251,-60.31282c0,0 6.59298,-12.98187 32.55294,-13.78008c28.96183,-0.8905 33.95094,13.78008 33.95094,13.78008l-4.99278,60.31282c0,0 -1.60609,-7.78874 -27.56016,-7.58903c-28.54684,0.20615 -28.75843,7.58903 -28.75843,7.58903z" fill="url(#color-15)" stroke="none"/><g stroke="none"><path d="M-30.22332,302.41836l-5.19251,-60.31282c0,0 6.7927,11.38291 32.75266,10.5847c28.96183,-0.8905 33.75122,-10.5847 33.75122,-10.5847l-4.99278,60.31282c0,0 -3.00408,5.99134 -27.56016,6.39076c-24.95203,0.40586 -28.75843,-6.39076 -28.75843,-6.39076z" fill="url(#color-16)"/><path d="M-2.86287,308.80912c-24.55608,-0.39942 -27.56017,-6.39076 -27.56017,-6.39076l-4.99279,-60.31282c0,0 4.7894,9.6942 33.75122,10.5847c25.95996,0.79821 32.75266,-10.5847 32.75266,-10.5847l-5.19249,60.31282c0,0 -3.80641,6.79662 -28.75843,6.39076z" data-paper-data="{&quot;index&quot;:null}" fill="url(#color-17)"/></g><path d="M33.87253,239.72032c0,0 0.09136,2.06372 0.09136,3.61419c0,7.09724 -15.3427,12.85067 -35.64847,12.85067c-20.30578,0 -36.20766,-5.75344 -36.20766,-12.85067c0,-1.3825 0.12751,-3.96194 0.12751,-3.96194c0,0 0.4793,-0.21592 1.35038,-0.58048c4.07725,6.0202 10.43949,10.36664 17.84133,11.79395c4.69211,1.25952 10.54345,2.00698 16.88845,2.00698c14.17218,0 25.88161,-3.72904 27.71111,-8.56403c2.66224,-1.20291 5.07899,-2.77205 7.16802,-4.61695c0.44167,0.19743 0.67798,0.30828 0.67798,0.30828z" fill="url(#color-18)" stroke="#000000"/><path d="M-1.68458,226.9223c20.30578,0 35.64847,5.75345 35.64847,12.85068c0,7.09724 -15.3427,12.85067 -35.64847,12.85067c-20.30578,0 -36.20766,-5.75344 -36.20766,-12.85067c0,-7.09724 15.90189,-12.85068 36.20766,-12.85068zM-1.68458,249.63065c15.44165,0 27.95959,-4.42704 27.95959,-9.88807c0,-5.46103 -12.51794,-9.88806 -27.95959,-9.88806c-15.44165,0 -27.95959,4.42703 -27.95959,9.88806c0,5.46103 12.51794,9.88807 27.95959,9.88807z" fill="url(#color-19)" stroke="#000000"/></g></g><g stroke-linecap="butt"><path d="M-94,28.83958v-30.01341l37.73398,17.79185v28.81341z" fill="#82817b" stroke="none" stroke-width="0"/><path d="M-93.8,28.83958l-6,1.48659l37.73398,16.59186l6,-1.48659z" fill="#51504d" stroke="none" stroke-width="0"/><path d="M-93.8,28.83958l-6,1.48659l-0.06602,-30.00814l6,-1.48659z" fill="#62615d" stroke="none" stroke-width="0"/><text transform="translate(-85.78154,29.45192) rotate(22.71981) scale(0.30626,0.77061) skewX(43.56347)" font-size="40" xml:space="preserve" fill="#980000" fill-rule="nonzero" stroke="#980000" stroke-width="2" stroke-linecap="butt" stroke-linejoin="miter" stroke-miterlimit="10" stroke-dasharray="" stroke-dashoffset="0" font-family="&quot;ヒラギノ角ゴ Pro W3&quot;, &quot;Hiragino Kaku Gothic Pro&quot;, Osaka, &quot;メイリオ&quot;, Meiryo, &quot;ＭＳ Ｐゴシック&quot;, &quot;MS PGothic&quot;" font-weight="normal" text-anchor="start" style="mix-blend-mode: normal"><tspan x="0" dy="0">EXIT</tspan></text></g></g></g></svg>