<svg version="1.1" xmlns="http://www.w3.org/2000/svg" xmlns:xlink="http://www.w3.org/1999/xlink" width="216.3388" height="364.56456" viewBox="0,0,216.3388,364.56456"><defs><radialGradient cx="197.19463" cy="12.06642" r="108.16938" gradientUnits="userSpaceOnUse" id="color-1"><stop offset="0" stop-color="#a9a9a9"/><stop offset="1" stop-color="#8d8d8d"/></radialGradient><radialGradient cx="193.36353" cy="25.57993" r="76.15132" gradientUnits="userSpaceOnUse" id="color-2"><stop offset="0" stop-color="#414141"/><stop offset="1" stop-color="#0a0a0a"/></radialGradient><radialGradient cx="24.3584" cy="173.05391" r="74.96053" gradientUnits="userSpaceOnUse" id="color-3"><stop offset="0" stop-color="#434343"/><stop offset="1" stop-color="#272727"/></radialGradient><radialGradient cx="28.77387" cy="36.24931" r="20.57787" gradientUnits="userSpaceOnUse" id="color-4"><stop offset="0" stop-color="#626262"/><stop offset="1" stop-color="#4f4f4f"/></radialGradient><radialGradient cx="28.77387" cy="67.91598" r="20.57787" gradientUnits="userSpaceOnUse" id="color-5"><stop offset="0" stop-color="#626262"/><stop offset="1" stop-color="#4f4f4f"/></radialGradient><radialGradient cx="28.77387" cy="100.41598" r="20.57787" gradientUnits="userSpaceOnUse" id="color-6"><stop offset="0" stop-color="#626262"/><stop offset="1" stop-color="#4f4f4f"/></radialGradient><radialGradient cx="28.49197" cy="37.6729" r="19.38495" gradientUnits="userSpaceOnUse" id="color-7"><stop offset="0" stop-color="#575757"/><stop offset="1" stop-color="#434343"/></radialGradient><radialGradient cx="28.49197" cy="69.33956" r="19.38495" gradientUnits="userSpaceOnUse" id="color-8"><stop offset="0" stop-color="#575757"/><stop offset="1" stop-color="#434343"/></radialGradient><radialGradient cx="28.49197" cy="101.83957" r="19.38495" gradientUnits="userSpaceOnUse" id="color-9"><stop offset="0" stop-color="#575757"/><stop offset="1" stop-color="#434343"/></radialGradient><radialGradient cx="13.48957" cy="45.41597" r="4.99534" gradientUnits="userSpaceOnUse" id="color-10"><stop offset="0" stop-color="#c3c3c3" stop-opacity="0"/><stop offset="1" stop-color="#c3c3c3"/></radialGradient><radialGradient cx="31.1597" cy="43.2493" r="5.36813" gradientUnits="userSpaceOnUse" id="color-11"><stop offset="0" stop-color="#c3c3c3" stop-opacity="0"/><stop offset="1" stop-color="#c3c3c3"/></radialGradient><radialGradient cx="7.9625" cy="75.02987" r="4.99534" gradientUnits="userSpaceOnUse" id="color-12"><stop offset="0" stop-color="#c3c3c3" stop-opacity="0"/><stop offset="1" stop-color="#c3c3c3"/></radialGradient><radialGradient cx="38.616" cy="75.59637" r="5.36813" gradientUnits="userSpaceOnUse" id="color-13"><stop offset="0" stop-color="#c3c3c3" stop-opacity="0"/><stop offset="1" stop-color="#c3c3c3"/></radialGradient><radialGradient cx="10.87024" cy="108.02987" r="4.99534" gradientUnits="userSpaceOnUse" id="color-14"><stop offset="0" stop-color="#c3c3c3" stop-opacity="0"/><stop offset="1" stop-color="#c3c3c3"/></radialGradient><radialGradient cx="36.60293" cy="108.59638" r="5.36813" gradientUnits="userSpaceOnUse" id="color-15"><stop offset="0" stop-color="#c3c3c3" stop-opacity="0"/><stop offset="1" stop-color="#c3c3c3"/></radialGradient></defs><g transform="translate(4.80603,2.28228)"><g data-paper-data="{&quot;isPaintingLayer&quot;:true}" fill-rule="nonzero" stroke="none" stroke-linecap="butt" stroke-linejoin="miter" stroke-miterlimit="10" stroke-dasharray="" stroke-dashoffset="0" style="mix-blend-mode: normal"><path d="M-4.80603,362.28228v-364.56456h216.3388v364.56456z" fill="url(#color-1)" stroke-width="0"/><path d="M50.49819,347.56756v-335.13513h152.3026v335.13513z" fill="url(#color-2)" stroke-width="0"/><path d="M1.68924,347.56756v-335.13513h44.38632v335.13513z" fill="url(#color-3)" stroke-width="0"/><path d="M3.33317,58.15624v-27h41.15573v27z" fill="url(#color-4)" stroke-width="0"/><path d="M3.33317,89.82291v-27h41.15573v27z" fill="url(#color-5)" stroke-width="0"/><path d="M3.33317,122.32291v-27h41.15573v27z" fill="url(#color-6)" stroke-width="0"/><path d="M4.52609,55.87019v-22.42792h38.7699v22.42792z" fill="url(#color-7)" stroke-width="0"/><path d="M4.52609,87.53686v-22.42792h38.7699v22.42792z" fill="url(#color-8)" stroke-width="0"/><path d="M4.52609,120.03686v-22.42792h38.7699v22.42792z" fill="url(#color-9)" stroke-width="0"/><path d="M12.85332,53.49522l-0.36416,-15.6455l21.59247,-2.51151l0.36416,15.6455z" fill="#efefef" stroke-width="0"/><path d="M7.38407,83.07736l-0.27158,-15.69732l35.21379,1.70617l0.27158,15.69732z" fill="#efefef" stroke-width="0"/><path d="M9.85488,119.30082l-1.07567,-15.06502l30.85257,-6.87306l1.07567,15.06502z" fill="#efefef" stroke-width="0"/><text transform="translate(19.63361,49.70252) rotate(-6.63556) scale(0.1206,0.35364) skewX(-15.2353)" font-size="40" xml:space="preserve" fill="#000000" fill-rule="nonzero" stroke="none" stroke-width="1" stroke-linecap="butt" stroke-linejoin="miter" stroke-miterlimit="10" stroke-dasharray="" stroke-dashoffset="0" font-family="Handwriting" font-weight="normal" text-anchor="start" style="mix-blend-mode: normal"><tspan x="0" dy="0">A/C</tspan></text><text transform="translate(11.73294,80.74227) rotate(-0.30571) scale(0.11995,0.35553) skewX(-0.72606)" font-size="40" xml:space="preserve" fill="#000000" fill-rule="nonzero" stroke="none" stroke-width="1" stroke-linecap="butt" stroke-linejoin="miter" stroke-miterlimit="10" stroke-dasharray="" stroke-dashoffset="0" font-family="Handwriting" font-weight="normal" text-anchor="start" style="mix-blend-mode: normal"><tspan x="0" dy="0">CAMERAS</tspan></text><text transform="translate(12.03354,116.49176) rotate(-14.47763) scale(0.12307,0.34654) skewX(-29.86111)" font-size="40" xml:space="preserve" fill="#000000" fill-rule="nonzero" stroke="none" stroke-width="1" stroke-linecap="butt" stroke-linejoin="miter" stroke-miterlimit="10" stroke-dasharray="" stroke-dashoffset="0" font-family="Handwriting" font-weight="normal" text-anchor="start" style="mix-blend-mode: normal"><tspan x="0" dy="0">VENT SEAL</tspan></text><path d="M10.85845,55.78235l1.58137,-22.05179l3.68089,1.31904l-1.58137,22.05179z" fill="url(#color-10)" stroke-width="0"/><path d="M30.3347,55.76325l-1.87381,-23.63164l3.52384,-1.39625l1.87381,23.63164z" fill="url(#color-11)" stroke-width="0"/><path d="M5.9615,86.07737l0.27555,-22.32483l3.72645,0.22985l-0.27555,22.32484z" fill="url(#color-12)" stroke-width="0"/><path d="M36.39479,87.23019l0.87559,-23.92005l3.56683,0.65243l-0.87559,23.92006z" fill="url(#color-13)" stroke-width="0"/><path d="M7.07316,116.397l4.21414,-20.24932l3.38001,3.51506l-4.21414,20.24931z" fill="url(#color-14)" stroke-width="0"/><path d="M37.94877,120.88252l-5.72016,-20.30998l3.02851,-4.2623l5.72016,20.30999z" fill="url(#color-15)" stroke-width="0"/></g></g></svg>