<svg version="1.1" xmlns="http://www.w3.org/2000/svg" xmlns:xlink="http://www.w3.org/1999/xlink" width="321.78258" height="295.25506" viewBox="0,0,321.78258,295.25506"><defs><linearGradient x1="377.81351" y1="145.38526" x2="377.88266" y2="147.78048" gradientUnits="userSpaceOnUse" id="color-1"><stop offset="0" stop-color="#a4a4a4"/><stop offset="1" stop-color="#d8d8d8"/></linearGradient><linearGradient x1="366.69938" y1="158.29142" x2="369.89301" y2="158.19923" gradientUnits="userSpaceOnUse" id="color-2"><stop offset="0" stop-color="#a4a4a4"/><stop offset="1" stop-color="#d8d8d8"/></linearGradient><linearGradient x1="391.67438" y1="148.26538" x2="364.69073" y2="168.94711" gradientUnits="userSpaceOnUse" id="color-3"><stop offset="0" stop-color="#0b2a00"/><stop offset="1" stop-color="#101800"/></linearGradient><linearGradient x1="365.59482" y1="232.22656" x2="360.98464" y2="234.83357" gradientUnits="userSpaceOnUse" id="color-4"><stop offset="0" stop-color="#a4a4a4"/><stop offset="1" stop-color="#d8d8d8"/></linearGradient><linearGradient x1="372.79598" y1="250.39991" x2="374.23477" y2="252.87881" gradientUnits="userSpaceOnUse" id="color-5"><stop offset="0" stop-color="#6a6a6a"/><stop offset="1" stop-color="#9f9f9f"/></linearGradient><linearGradient x1="369.47075" y1="244.6709" x2="370.90957" y2="247.14979" gradientUnits="userSpaceOnUse" id="color-6"><stop offset="0" stop-color="#6a6a6a"/><stop offset="1" stop-color="#9f9f9f"/></linearGradient><linearGradient x1="366.14553" y1="238.94189" x2="367.58434" y2="241.42077" gradientUnits="userSpaceOnUse" id="color-7"><stop offset="0" stop-color="#6a6a6a"/><stop offset="1" stop-color="#9f9f9f"/></linearGradient><linearGradient x1="362.82035" y1="233.21285" x2="364.25913" y2="235.69176" gradientUnits="userSpaceOnUse" id="color-8"><stop offset="0" stop-color="#6a6a6a"/><stop offset="1" stop-color="#9f9f9f"/></linearGradient><linearGradient x1="359.6053" y1="227.41991" x2="361.04409" y2="229.8988" gradientUnits="userSpaceOnUse" id="color-9"><stop offset="0" stop-color="#6a6a6a"/><stop offset="1" stop-color="#9f9f9f"/></linearGradient><linearGradient x1="356.28011" y1="221.69087" x2="357.7189" y2="224.16978" gradientUnits="userSpaceOnUse" id="color-10"><stop offset="0" stop-color="#6a6a6a"/><stop offset="1" stop-color="#9f9f9f"/></linearGradient><linearGradient x1="352.95488" y1="215.96187" x2="354.39367" y2="218.44076" gradientUnits="userSpaceOnUse" id="color-11"><stop offset="0" stop-color="#6a6a6a"/><stop offset="1" stop-color="#9f9f9f"/></linearGradient><linearGradient x1="352.63178" y1="210.17167" x2="374.35023" y2="256.76847" gradientUnits="userSpaceOnUse" id="color-12"><stop offset="0" stop-color="#0b2a00"/><stop offset="1" stop-color="#101800"/></linearGradient><linearGradient x1="358.67141" y1="307.97808" x2="378.57985" y2="307.97808" gradientUnits="userSpaceOnUse" id="color-13"><stop offset="0" stop-color="#a4a4a4"/><stop offset="1" stop-color="#d8d8d8"/></linearGradient><linearGradient x1="357.24939" y1="314.57112" x2="384.91431" y2="314.57112" gradientUnits="userSpaceOnUse" id="color-14"><stop offset="0" stop-color="#a4a4a4"/><stop offset="1" stop-color="#d8d8d8"/></linearGradient><linearGradient x1="355.00862" y1="321.05748" x2="395.18741" y2="321.05748" gradientUnits="userSpaceOnUse" id="color-15"><stop offset="0" stop-color="#a4a4a4"/><stop offset="1" stop-color="#d8d8d8"/></linearGradient><linearGradient x1="388.63745" y1="321.03495" x2="399.67759" y2="321.03495" gradientUnits="userSpaceOnUse" id="color-16"><stop offset="0" stop-color="#787878"/><stop offset="1" stop-color="#a4a4a4"/></linearGradient><linearGradient x1="384.88848" y1="321.03495" x2="395.92858" y2="321.03495" gradientUnits="userSpaceOnUse" id="color-17"><stop offset="0" stop-color="#787878"/><stop offset="1" stop-color="#a4a4a4"/></linearGradient><linearGradient x1="380.10527" y1="321.03495" x2="391.14541" y2="321.03495" gradientUnits="userSpaceOnUse" id="color-18"><stop offset="0" stop-color="#787878"/><stop offset="1" stop-color="#a4a4a4"/></linearGradient><linearGradient x1="365.82045" y1="316.03957" x2="407.0783" y2="316.03957" gradientUnits="userSpaceOnUse" id="color-19"><stop offset="0" stop-color="#101800"/><stop offset="1" stop-color="#0b2a00"/></linearGradient><linearGradient x1="356.88125" y1="315.81037" x2="398.13908" y2="315.81037" gradientUnits="userSpaceOnUse" id="color-20"><stop offset="0" stop-color="#101800"/><stop offset="1" stop-color="#0b2a00"/></linearGradient><linearGradient x1="346.33757" y1="316.03957" x2="387.5954" y2="316.03957" gradientUnits="userSpaceOnUse" id="color-21"><stop offset="0" stop-color="#101800"/><stop offset="1" stop-color="#0b2a00"/></linearGradient><linearGradient x1="306.24835" y1="236.0551" x2="305.41913" y2="238.79871" gradientUnits="userSpaceOnUse" id="color-22"><stop offset="0" stop-color="#6a6a6a"/><stop offset="1" stop-color="#9f9f9f"/></linearGradient><linearGradient x1="308.16476" y1="229.71426" x2="307.33555" y2="232.45789" gradientUnits="userSpaceOnUse" id="color-23"><stop offset="0" stop-color="#6a6a6a"/><stop offset="1" stop-color="#9f9f9f"/></linearGradient><linearGradient x1="309.95924" y1="223.3366" x2="309.13003" y2="226.08021" gradientUnits="userSpaceOnUse" id="color-24"><stop offset="0" stop-color="#6a6a6a"/><stop offset="1" stop-color="#9f9f9f"/></linearGradient><linearGradient x1="311.87565" y1="216.99578" x2="311.04643" y2="219.73939" gradientUnits="userSpaceOnUse" id="color-25"><stop offset="0" stop-color="#6a6a6a"/><stop offset="1" stop-color="#9f9f9f"/></linearGradient><linearGradient x1="313.79207" y1="210.65496" x2="312.96284" y2="213.39857" gradientUnits="userSpaceOnUse" id="color-26"><stop offset="0" stop-color="#6a6a6a"/><stop offset="1" stop-color="#9f9f9f"/></linearGradient><linearGradient x1="312.77298" y1="204.946" x2="302.52961" y2="254.51835" gradientUnits="userSpaceOnUse" id="color-27"><stop offset="0" stop-color="#0b2a00"/><stop offset="1" stop-color="#101800"/></linearGradient><linearGradient x1="276.30071" y1="178.59311" x2="280.18564" y2="180.17165" gradientUnits="userSpaceOnUse" id="color-28"><stop offset="0" stop-color="#a4a4a4"/><stop offset="1" stop-color="#d8d8d8"/></linearGradient><linearGradient x1="283.20419" y1="167.17258" x2="282.3022" y2="169.39252" gradientUnits="userSpaceOnUse" id="color-29"><stop offset="0" stop-color="#a4a4a4"/><stop offset="1" stop-color="#d8d8d8"/></linearGradient><linearGradient x1="273.84883" y1="189.66702" x2="274.75082" y2="187.44706" gradientUnits="userSpaceOnUse" id="color-30"><stop offset="0" stop-color="#a4a4a4"/><stop offset="1" stop-color="#d8d8d8"/></linearGradient><linearGradient x1="268.09152" y1="174.39543" x2="271.05148" y2="175.5981" gradientUnits="userSpaceOnUse" id="color-31"><stop offset="0" stop-color="#a4a4a4"/><stop offset="1" stop-color="#d8d8d8"/></linearGradient><linearGradient x1="289.10599" y1="183.14949" x2="286.14604" y2="181.94682" gradientUnits="userSpaceOnUse" id="color-32"><stop offset="0" stop-color="#a4a4a4"/><stop offset="1" stop-color="#d8d8d8"/></linearGradient><linearGradient x1="273.97364" y1="160.6527" x2="282.68277" y2="198.13615" gradientUnits="userSpaceOnUse" id="color-33"><stop offset="0" stop-color="#0b2a00"/><stop offset="1" stop-color="#101800"/></linearGradient><linearGradient x1="310.15067" y1="131.65042" x2="308.57533" y2="133.456" gradientUnits="userSpaceOnUse" id="color-34"><stop offset="0" stop-color="#a4a4a4"/><stop offset="1" stop-color="#d8d8d8"/></linearGradient><linearGradient x1="310.53182" y1="148.67828" x2="308.12437" y2="146.5778" gradientUnits="userSpaceOnUse" id="color-35"><stop offset="0" stop-color="#a4a4a4"/><stop offset="1" stop-color="#d8d8d8"/></linearGradient><linearGradient x1="297.6177" y1="125.06692" x2="305.31199" y2="158.18259" gradientUnits="userSpaceOnUse" id="color-36"><stop offset="0" stop-color="#0b2a00"/><stop offset="1" stop-color="#101800"/></linearGradient><radialGradient cx="342.37387" cy="157.5635" r="7.5517" gradientUnits="userSpaceOnUse" id="color-37"><stop offset="0" stop-color="#d8d8d8"/><stop offset="1" stop-color="#a4a4a4"/></radialGradient><linearGradient x1="356.80647" y1="148.10918" x2="352.84434" y2="147.44229" gradientUnits="userSpaceOnUse" id="color-38"><stop offset="0" stop-color="#a4a4a4"/><stop offset="1" stop-color="#d8d8d8"/></linearGradient><linearGradient x1="331.72066" y1="144.57934" x2="335.68276" y2="145.24623" gradientUnits="userSpaceOnUse" id="color-39"><stop offset="0" stop-color="#a4a4a4"/><stop offset="1" stop-color="#d8d8d8"/></linearGradient><linearGradient x1="341.62124" y1="161.84022" x2="340.89877" y2="166.13252" gradientUnits="userSpaceOnUse" id="color-40"><stop offset="0" stop-color="#a4a4a4"/><stop offset="1" stop-color="#d8d8d8"/></linearGradient><linearGradient x1="358.02948" y1="148.42006" x2="362.27242" y2="150.84374" gradientUnits="userSpaceOnUse" id="color-41"><stop offset="0" stop-color="#a4a4a4"/><stop offset="1" stop-color="#d8d8d8"/></linearGradient><linearGradient x1="330.11281" y1="143.96326" x2="325.31023" y2="144.86443" gradientUnits="userSpaceOnUse" id="color-42"><stop offset="0" stop-color="#a4a4a4"/><stop offset="1" stop-color="#d8d8d8"/></linearGradient><linearGradient x1="349.6268" y1="108.40181" x2="335.33289" y2="193.32453" gradientUnits="userSpaceOnUse" id="color-43"><stop offset="0" stop-color="#0b2a00"/><stop offset="1" stop-color="#101800"/></linearGradient><linearGradient x1="350.7839" y1="64.89371" x2="351.40524" y2="69.08899" gradientUnits="userSpaceOnUse" id="color-44"><stop offset="0" stop-color="#a4a4a4"/><stop offset="1" stop-color="#d8d8d8"/></linearGradient><linearGradient x1="352.60074" y1="77.85478" x2="353.22208" y2="82.05004" gradientUnits="userSpaceOnUse" id="color-45"><stop offset="0" stop-color="#a4a4a4"/><stop offset="1" stop-color="#d8d8d8"/></linearGradient><linearGradient x1="363.88271" y1="64.90144" x2="368.51961" y2="64.21469" gradientUnits="userSpaceOnUse" id="color-46"><stop offset="0" stop-color="#a4a4a4"/><stop offset="1" stop-color="#d8d8d8"/></linearGradient><linearGradient x1="338.04855" y1="68.72762" x2="333.41164" y2="69.41437" gradientUnits="userSpaceOnUse" id="color-47"><stop offset="0" stop-color="#a4a4a4"/><stop offset="1" stop-color="#d8d8d8"/></linearGradient><linearGradient x1="359.60294" y1="94.77809" x2="359.06335" y2="91.13481" gradientUnits="userSpaceOnUse" id="color-48"><stop offset="0" stop-color="#ffffff"/><stop offset="1" stop-color="#e3e3e3"/></linearGradient><linearGradient x1="355.61211" y1="95.2563" x2="355.07254" y2="91.61305" gradientUnits="userSpaceOnUse" id="color-49"><stop offset="0" stop-color="#ffffff"/><stop offset="1" stop-color="#e3e3e3"/></linearGradient><linearGradient x1="351.63766" y1="95.84494" x2="351.09807" y2="92.20169" gradientUnits="userSpaceOnUse" id="color-50"><stop offset="0" stop-color="#ffffff"/><stop offset="1" stop-color="#e3e3e3"/></linearGradient><linearGradient x1="355.9884" y1="71.30712" x2="363.89482" y2="124.69098" gradientUnits="userSpaceOnUse" id="color-51"><stop offset="0" stop-color="#0b2a00"/><stop offset="1" stop-color="#101800"/></linearGradient><linearGradient x1="325.39916" y1="102.69452" x2="393.73126" y2="92.57418" gradientUnits="userSpaceOnUse" id="color-52"><stop offset="0" stop-color="#192500"/><stop offset="1" stop-color="#213f00"/></linearGradient><linearGradient x1="303.82892" y1="69.88616" x2="393.38953" y2="56.62177" gradientUnits="userSpaceOnUse" id="color-53"><stop offset="0" stop-color="#0b2a00"/><stop offset="1" stop-color="#101800"/></linearGradient><radialGradient cx="356.84684" cy="73.49158" r="16.20168" gradientUnits="userSpaceOnUse" id="color-54"><stop offset="0" stop-color="#0d2400"/><stop offset="1" stop-color="#000000"/></radialGradient><radialGradient cx="331.2324" cy="62.51168" r="2.82024" gradientUnits="userSpaceOnUse" id="color-55"><stop offset="0" stop-color="#ffffff"/><stop offset="1" stop-color="#ffffff" stop-opacity="0"/></radialGradient><radialGradient cx="367.41737" cy="57.1525" r="2.82024" gradientUnits="userSpaceOnUse" id="color-56"><stop offset="0" stop-color="#ffffff"/><stop offset="1" stop-color="#ffffff" stop-opacity="0"/></radialGradient></defs><g transform="translate(-134.25,-32.24498)"><g data-paper-data="{&quot;isPaintingLayer&quot;:true}" fill-rule="nonzero" stroke-linecap="butt" stroke-linejoin="miter" stroke-miterlimit="10" stroke-dasharray="" stroke-dashoffset="0" style="mix-blend-mode: normal"><g><path d="M375.1456,249.00579c-1.19641,0.0367 -1.23312,-1.15972 -1.23312,-1.15972l0.02505,-0.34901c-1.09062,-3.85962 -1.22181,-7.43309 -1.3443,-11.42626c-0.04379,-1.79688 0.35641,-3.37695 0.68267,-5.02821c-0.25877,-1.28102 -0.06517,-2.50384 0.40041,-3.68872c0.10034,-4.49815 -0.82592,-9.36036 0.89297,-13.54792c0.9103,-2.21767 2.5726,-4.21507 3.87954,-6.33668c-0.25411,-0.4523 -0.52837,-0.8637 -0.81851,-1.2225c-2.73658,-4.26963 -3.84292,-8.31408 -1.40786,-13.02748c0.40682,-0.78745 0.94634,-1.48511 1.4553,-2.19809c0.01296,-0.03736 0.02612,-0.07467 0.03949,-0.11195c-0.65629,-0.79145 -1.19343,-1.63095 -1.44692,-2.57778c-0.64325,-2.40266 0.14397,-4.63517 1.09737,-6.76849c-0.26745,-0.20797 -0.50898,-0.56664 -0.37895,-1.16406c0.25456,-1.1696 1.42417,-0.91503 1.42417,-0.91503c0.02724,0.00767 0.05428,0.01558 0.08111,0.02373c0.10746,-0.11661 0.2542,-0.22317 0.4523,-0.30954c1.09722,-0.47842 1.57564,0.6188 1.57564,0.6188c0.82555,1.89657 2.26393,3.89186 1.83724,6.09239c-0.15867,0.81826 -0.47621,1.60282 -0.84131,2.37677c-0.00931,0.05238 -0.01885,0.1044 -0.0286,0.156c-0.17661,0.93396 -0.53144,1.72152 -0.96125,2.45563c1.53762,1.6733 3.47202,3.22946 4.06133,5.25063c0.94659,3.24653 -1.07643,6.63135 -2.4841,9.46755c0.0961,0.32002 0.18754,0.63768 0.27261,0.95274c0.06116,1.67054 0.16515,3.28701 -0.04555,4.88137c0.60532,3.34379 0.30429,6.93243 -1.33025,9.41525c-0.53533,0.81314 -1.17986,1.60603 -1.83359,2.39433c-0.12606,0.9558 -0.22582,1.9307 -0.27927,2.9454c-0.15571,2.95593 2.24764,4.3621 3.00691,7.06996c0.48445,1.72777 0.07983,4.06909 -0.11264,5.79234c0.00479,0.18257 0.00228,0.36116 -0.00666,0.53613c0.15714,0.18944 0.30985,0.38272 0.45658,0.58103c1.35373,1.82967 1.30491,3.93894 1.37081,6.08703l0.00979,0.31905c0,0 0.0367,1.19641 -1.15972,1.23312c-1.19641,0.0367 -1.23312,-1.15972 -1.23312,-1.15972l-0.00979,-0.31905c-0.03391,-1.10546 0.06091,-2.37224 -0.26238,-3.48057c-0.7381,1.87888 -1.519,3.54973 -0.27082,5.83547l0.09517,0.00519c0,0 0.87196,0.82004 0.0519,1.69198c-0.82005,0.87195 -1.69198,0.0519 -1.69198,0.0519l-0.56248,-0.61332c-0.74059,-1.38937 -1.52188,-2.9022 -1.20265,-4.55726c0.40264,-2.08758 1.53707,-3.07692 1.90844,-4.86029c-1.6262,-1.76554 -3.44241,-3.39944 -4.24813,-5.70041c-0.0413,0.41423 -0.0594,0.83888 -0.04237,1.27992c0.11671,3.8046 0.21566,7.17701 1.25506,10.84811l0.0642,0.92717c0,0 0.0367,1.19641 -1.15972,1.23312zM382.27738,196.76946c-0.38479,-1.43453 -1.47306,-2.62785 -2.63023,-3.80878c-0.511,3.17424 0.43512,6.41636 1.4491,9.52262c0.92574,-1.84352 1.68135,-3.84894 1.18112,-5.71382zM378.58229,187.71022c0.05758,0.24608 0.1364,0.48528 0.23328,0.71869c0.12848,-0.26711 0.2561,-0.53423 0.37908,-0.80218c0.13854,-1.04537 0.21423,-2.81743 -0.06596,-4.1297c-0.54461,1.3309 -0.90072,2.69884 -0.54639,4.21318zM376.7837,214.71563c-0.8404,2.07467 -0.49243,4.86197 -0.6473,7.02229c-0.03872,0.54018 -0.06034,1.10326 -0.07305,1.68005c0.24579,-0.32461 0.49712,-0.64801 0.74962,-0.97063c0.25315,-1.87705 0.61584,-3.70507 0.9552,-5.56845c0.23583,-1.29493 1.04827,-2.41515 1.6074,-3.60672c0.27059,-0.57665 0.44287,-1.1627 0.54968,-1.75559c-0.10418,-0.49066 -0.23019,-0.97345 -0.37555,-1.44147c-1.04303,1.52705 -2.11728,3.03905 -2.766,4.64051zM377.01896,233.18495c0.46669,1.64999 1.48242,2.89407 2.59455,4.08179c0.14371,-1.16183 0.2402,-2.43005 -0.02939,-3.37066c-0.81683,-2.85004 -2.87874,-4.08114 -3.0756,-7.07849c-0.19557,0.34603 -0.36548,0.69551 -0.50196,1.04966c-0.0335,1.00822 -0.1012,1.98932 -0.24441,2.89712c0.18361,0.77228 0.58185,1.5759 1.2568,2.4206zM377.33524,197.34554c-0.34475,2.37759 0.43713,4.5523 1.84942,6.88139c-0.72025,-2.242 -1.48499,-4.54832 -1.84942,-6.88139z" fill="#000000" stroke="none" stroke-width="0.5"/><g data-paper-data="{&quot;index&quot;:null}"><path d="M377.18906,138.37781c6.26235,-0.5769 9.32309,1.8999 10.90532,6.04864c-0.54328,-0.0069 -1.12936,0.04775 -1.78932,0.19328c-1.09705,0.24191 -2.25398,0.33242 -3.2721,0.80724c-0.7621,0.35543 -1.06895,1.62795 -1.90961,1.64853c-0.90863,0.02224 -1.51155,-1.24136 -2.42035,-1.25576c-0.85525,-0.01355 -2.63596,1.06041 -3.17431,1.73942c-0.74651,0.94154 -1.088,2.23728 -1.07202,3.41846c0.00958,0.7083 0.60404,1.4949 0.25269,2.10998c-0.76974,1.34751 -2.38625,0.50784 -3.13592,2.54047c-0.41913,1.13642 -0.18579,2.4265 -0.47627,3.60238c0.56042,1.41638 1.62165,2.34507 2.17907,3.64356c1.25706,2.92825 0.69918,6.09779 3.60973,8.38261c2.26206,1.77576 4.14385,1.18797 6.46848,0.18046c0.65291,-0.28298 1.20203,-0.98621 1.91261,-0.94829c0.7927,0.04229 2.27742,1.32562 2.87821,1.80936c0,0 0.47109,0.37466 1.01084,0.25856c-1.32038,3.69235 -4.13976,6.07818 -9.84895,6.3883c-12.10637,0.65763 -12.22257,-8.46788 -12.80745,-19.67019c-0.5849,-11.20232 -2.19784,-19.70982 10.68938,-20.89699z" fill="#000000" stroke="#000000" stroke-width="0"/><path d="M379.23323,137.18956c1.17023,0.25693 0.9133,1.42716 0.9133,1.42716l-0.14918,0.51268c0.02614,1.71537 -0.46121,3.46721 -1.08108,5.18781c0.14229,0.08635 0.29174,0.17898 0.44857,0.28054c0.71052,0.46013 1.33485,1.04134 2.00229,1.56201c0,0 0.71787,0.56395 0.40808,1.33395c0.06764,0.20636 0.07243,0.37205 0.07243,0.37205l0.01728,0.59881c0.04126,1.64929 0.08943,2.88382 -0.6771,3.91438c0.8907,0.78045 1.7814,1.56092 2.6721,2.34136c0,0 0.83324,0.73009 0.19519,1.58739c0.02475,0.09037 0.03922,0.18512 0.04204,0.28293c0.0027,0.09311 -0.00532,0.18403 -0.02291,0.27162c0.09259,0.36639 -0.01032,0.70767 -0.01032,0.70767l-0.36464,1.20914c-0.39168,1.29474 -0.34576,2.75955 -1.03391,3.92413c-0.25522,0.43193 -0.71581,0.86339 -1.25813,1.28255c0.38263,0.42369 0.6987,0.89896 0.87997,1.4497c0.71785,2.18102 -0.1769,4.6605 -1.30243,6.93231c1.56625,1.50217 2.7936,4.04542 1.21301,6.08223c-0.55988,0.72149 -1.54179,0.91945 -2.42846,1.24477c-0.02674,0.30308 -0.17985,0.63968 -0.63653,0.88474c-1.05572,0.56649 -1.62221,-0.48921 -1.62221,-0.48921c-0.2451,-0.47935 -0.49019,-0.95869 -0.73529,-1.43804l-0.07455,-1.47183c0,0 -0.00092,-0.03227 0.00282,-0.08637c-0.00458,-0.03722 -0.00746,-0.075 -0.00857,-0.11323c-0.00599,-0.20731 0.04106,-0.40383 0.12885,-0.57656c-0.35475,-0.53228 -0.04543,-1.17511 -0.04543,-1.17511c0.39341,-0.81758 0.86024,-1.65775 1.31642,-2.51446c-0.64419,-1.13477 -1.30715,-2.2597 -1.88657,-3.42838c-0.46359,-0.93505 -1.35981,-1.80898 -1.29499,-2.85062c0.0513,-0.82433 1.04353,-1.28106 1.59059,-1.89984c0.26864,-0.30385 0.55149,-0.57574 0.84495,-0.8282c-1.80967,-1.83384 -3.00703,-6.50748 -2.00897,-8.90312c0.64418,-1.54621 1.44834,-1.69222 2.28737,-2.35951c-0.37099,-0.32508 -0.7343,-0.64342 -1.08505,-0.95075c0,0 -0.10299,-0.09024 -0.20882,-0.24453c-0.25967,-0.14644 -0.45996,-0.38717 -0.55312,-0.67713c-0.27857,-0.21167 -0.46243,-0.54292 -0.4733,-0.91986c-0.0026,-0.08972 0.00476,-0.17742 0.02103,-0.26204c-0.68866,-0.47655 -0.39069,-1.34674 -0.39069,-1.34674c0.29471,-0.86065 0.69002,-1.78868 1.08605,-2.74645c-1.03723,-0.9243 -1.77321,-2.06404 -1.751,-3.80536c0.0078,-0.6122 -0.17156,-1.2974 0.12612,-1.83239c0.44187,-0.7941 1.51095,-1.1024 1.96543,-1.88936l0.59044,-0.24535c0.20643,-0.19588 0.48299,-0.31935 0.78983,-0.32822c0.15137,-0.00437 0.29698,0.01953 0.43178,0.06693c0.04988,0.01536 0.10156,0.03424 0.15353,0.0574c0.21261,-0.14098 0.50523,-0.21903 0.9038,-0.13151zM376.66753,141.42299c0.06877,0.55309 0.1807,0.96301 0.33973,1.28782c0.25585,-0.7865 0.45537,-1.5707 0.54705,-2.33321c-0.03822,0.04284 -0.07816,0.08422 -0.12012,0.12391c-0.24861,0.23514 -0.74304,0.0956 -0.96191,0.35864c-0.127,0.15266 0.17075,0.36577 0.19525,0.56284zM379.46867,147.72697c-0.48028,-0.35013 -0.9835,-0.67457 -1.47974,-0.99852c-0.26088,0.66239 -0.51434,1.31492 -0.73688,1.95339c0.18152,0.14507 0.32026,0.34203 0.39326,0.56918c0.11224,0.08528 0.20908,0.18997 0.28546,0.30925c0.11955,0.06955 0.19054,0.13173 0.19054,0.13173l0.3319,0.29083c0.31711,0.27785 0.63421,0.55571 0.95131,0.83357c0.28373,-0.56894 0.09817,-1.29691 0.06521,-2.28266l-0.01727,-0.59881c0,0 -0.00241,-0.08392 0.01623,-0.20797zM381.70195,156.65976c-0.00564,-0.1948 0.03556,-0.38007 0.11339,-0.54503c-0.73574,-0.64467 -1.51491,-1.32738 -2.29597,-2.01177c-0.11236,0.15729 -0.23586,0.3032 -0.38988,0.41796c-0.5052,0.37641 -1.3489,0.49878 -1.53687,1.10008c-0.49224,1.5747 0.14243,5.36474 1.46176,6.40941c0.08835,0.06997 0.17959,0.14031 0.27297,0.21131c0.13994,-0.0984 0.28045,-0.19817 0.42119,-0.30031c0.2829,-0.20532 0.73297,-0.22903 0.90189,-0.53507c0.54825,-0.99335 0.42798,-2.23256 0.75469,-3.31912l0.34189,-1.13371c-0.02659,-0.09362 -0.04212,-0.19202 -0.04505,-0.29374zM378.30588,168.12796c0.38607,0.60956 0.73846,1.23906 1.08002,1.87499c0.20515,-0.5279 0.37548,-1.05948 0.4931,-1.59343c0.06294,-0.28574 0.26612,-1.8507 0.17092,-2.116c-0.1352,-0.37675 -0.35427,-0.68404 -0.61628,-0.95064c-0.46922,0.31022 -0.89891,0.60295 -1.21978,0.87158c-0.27859,0.23321 -0.94717,0.20598 -0.92972,0.56887c0.02704,0.56228 0.72054,0.86905 1.02174,1.34463zM380.41994,176.84344c0.55569,-0.51914 -0.02357,-1.52652 -0.61461,-2.23983c-0.31942,0.5896 -0.61927,1.14831 -0.86766,1.66452c0,0 -0.00859,0.01787 -0.02587,0.04788c0.10754,0.17355 0.1721,0.3769 0.17842,0.59566c0.00111,0.03823 0.00041,0.07612 -0.00202,0.11353c0.00685,0.0538 0.00778,0.08607 0.00778,0.08607l-0.00211,0.36105c0.48718,-0.14068 0.96504,-0.29157 1.32608,-0.62889z" fill="#000000" stroke="none" stroke-width="0.5"/><g stroke="none" stroke-width="0"><path d="M376.74316,180.97478l-1.29046,-44.71069l4.19163,-0.12098l1.29047,44.71068z" fill="#000000"/><path d="M369.79882,148.01379l-0.06914,-2.39521l16.16771,-0.46665l0.06913,2.39523z" fill="url(#color-1)"/><path d="M386.73068,167.10233l0.06914,2.39521l-16.1677,0.46664l-0.06913,-2.39522z" data-paper-data="{&quot;index&quot;:null}" fill="#000000"/><path d="M384.11487,173.37061l2.14546,-15.64379l-3.0557,-15.89321l3.19362,-0.09217l3.04994,15.69361l-2.1397,15.84338z" fill="#000000"/><path d="M369.74934,173.985l-3.04994,-15.69361l2.1397,-15.8434l3.19362,-0.09217l-2.13393,16.04299l3.04418,15.494z" data-paper-data="{&quot;index&quot;:null}" fill="url(#color-2)"/><path d="M378.83852,176.69111c1.75508,-0.05065 3.21889,1.33103 3.26953,3.0861c0.05065,1.75508 -1.33103,3.2189 -3.08609,3.26954c-1.75508,0.05065 -3.2189,-1.33104 -3.26954,-3.08611c-0.05066,-1.75507 1.33103,-3.21889 3.0861,-3.26953z" fill="#000000"/></g><path d="M377.18906,138.37781c8.03763,-0.74043 10.80114,3.54958 11.93374,9.94855c-3.55321,-0.49334 -7.34306,-0.93399 -10.6543,-0.45204c-1.81107,0.2636 -3.51848,-1.04096 -4.82251,1.20228c-1.94702,3.34932 2.64477,4.42141 2.65301,6.97119c0.0066,2.04523 -2.86955,3.11738 -4.00343,4.60113c-0.4257,2.73464 -0.4532,4.6401 2.10923,6.25147c0.83899,0.52758 1.93348,0.53157 2.78747,1.03453c1.77254,1.04397 1.47519,3.62736 4.17703,3.86604c1.79435,0.15851 3.72786,-1.83414 5.48801,-1.55727c0.66924,0.10527 0.75998,1.15176 1.29698,1.56478c0.31677,0.24363 0.67552,0.43875 1.05813,0.58728c-1.2958,3.78389 -4.11356,6.23464 -9.90528,6.54926c-12.10637,0.65763 -12.22257,-8.46788 -12.80745,-19.67019c-0.5849,-11.20232 -2.19784,-19.70982 10.68938,-20.89699z" fill="url(#color-3)" stroke="#000000" stroke-width="0"/></g><g fill="#000000" stroke="none"><path d="M358.44332,307.44873c-0.50908,-0.08032 -0.81742,-0.30667 -1.0027,-0.57025c-0.07178,0.00334 -0.14124,0.0018 -0.20699,-0.00306c-0.18035,-0.00623 -0.36265,-0.04507 -0.53869,-0.11981c-0.35688,-0.1515 -0.62545,-0.42391 -0.77821,-0.74926l-0.58173,-0.56009c-0.17277,-1.13468 -1.28866,-1.98891 -1.4433,-3.1262c-0.10419,-0.76621 0.42187,-1.48977 0.69415,-2.2135c0.77451,-2.05858 2.16433,-3.0609 3.80944,-3.67128c-0.02549,-1.30877 -0.06379,-2.5822 -0.01477,-3.73011c0,0 0.04958,-1.16063 1.0788,-1.40459c0.01975,-0.10704 0.05144,-0.21358 0.09575,-0.31793c0.18611,-0.43841 0.55469,-0.74352 0.97971,-0.86444c0.24291,-0.29824 0.5892,-0.48932 0.96198,-0.54221c0.19543,-0.13283 0.35807,-0.19163 0.35807,-0.19163c0.5539,-0.20026 1.12766,-0.40768 1.71353,-0.61949c-0.68014,-1.17071 -1.55901,-1.71224 -1.60583,-3.82729c-0.07255,-3.27699 3.48484,-8.2242 6.45681,-9.54933c-0.22913,-0.43192 -0.43685,-0.8818 -0.61315,-1.36276c-0.35902,-0.97941 -1.31622,-1.97294 -0.99752,-2.9662c0.40268,-1.25513 1.85876,-1.87109 2.83402,-2.75786c1.21896,-1.10834 2.51604,-2.12681 3.79558,-3.16549c-0.14272,-1.21752 -0.30555,-2.42047 -0.39242,-3.56313c0,0 -0.06831,-0.8984 0.59374,-1.36143c-0.02384,-0.24356 0.01117,-0.49638 0.11353,-0.73749c0.01888,-0.04449 0.03964,-0.08759 0.06216,-0.12926c0.02048,-0.06536 0.0364,-0.1029 0.0364,-0.1029l0.76444,-1.69709c0.50872,-0.45117 1.0174,-0.90236 1.52613,-1.35354c0,0 1.15181,-0.9814 2.13321,0.17041c0.42453,0.49824 0.44988,0.96462 0.34198,1.33344c0.89343,0.79036 1.95748,1.47469 2.28437,2.58084c0.92277,3.12272 -1.69035,5.5501 -4.22349,6.59701c0.27943,3.18992 0.19194,6.51801 -1.65532,8.75357c-0.46648,0.56451 -1.05681,0.97826 -1.70171,1.30072c0.44522,0.7424 0.78866,1.46175 0.89029,2.08719c0.27403,1.68632 -0.45349,3.38833 -0.58805,5.09148l-0.12703,1.59c0,0 -0.03584,0.44879 -0.31323,0.83721c-0.01956,0.11111 -0.05195,0.22177 -0.09792,0.33004c-0.04829,0.11377 -0.10887,0.21856 -0.17953,0.31348c0.35637,1.30186 -0.95947,1.77758 -0.95947,1.77758c-1.40659,0.50853 -2.81323,1.01709 -4.21981,1.52562c0.42784,1.56474 -0.19645,2.99479 -1.00329,4.91593l-0.29565,0.69646c0,0 -0.08184,0.19272 -0.25626,0.40435c0.01039,1.04822 -1.09338,1.38153 -1.09338,1.38153c-1.02453,0.30561 -2.0262,0.70225 -3.07356,0.91682c-0.23118,0.04735 -0.44959,0.08759 -0.65665,0.12375c-0.06195,2.30903 -0.29414,4.59387 -1.11361,6.59969l-0.06024,0.67167c0,0 -0.23582,1.49471 -1.73053,1.25889zM357.37162,301.28921c-0.11943,0.22055 -0.56767,0.33434 -0.48845,0.5723c0.1365,0.41006 0.78227,0.47324 0.9666,0.86415c0.03111,0.06598 0.05907,0.13305 0.08433,0.201c0.24275,-0.93912 0.36863,-1.95334 0.42928,-2.99616c-0.33643,0.30896 -0.65658,0.73973 -0.99177,1.35871zM363.56524,295.16156c0.0351,-0.15451 0.07652,-0.25211 0.07652,-0.25211l0.29565,-0.69644c0.492,-1.14442 1.045,-1.91543 0.97284,-2.71515c-0.50077,0.18105 -1.00155,0.36209 -1.50232,0.54315l-0.52414,0.18951c0,0 -0.11209,0.04052 -0.28472,0.06737c-0.14468,0.10518 -0.30675,0.18382 -0.47799,0.23253c-0.19031,0.23365 -0.44405,0.40153 -0.72429,0.48872c-0.03179,0.85336 -0.03366,1.73749 -0.03134,2.63665c0.7327,-0.15293 1.47384,-0.30315 2.1998,-0.49423zM370.29954,285.6804c0.05023,-0.11831 0.11374,-0.22692 0.18807,-0.32481l0.11909,-1.49081c0.11527,-1.42837 0.82653,-2.8308 0.63832,-4.2514c-0.05797,-0.43765 -0.57651,-0.6725 -0.81489,-1.04411c-0.1186,-0.18488 -0.23799,-0.36683 -0.35738,-0.54692c-0.14249,0.04058 -0.28217,0.08138 -0.41826,0.12306c-2.0323,0.62226 -4.52152,4.78879 -4.66649,6.8675c-0.05537,0.79378 0.88083,1.32566 1.30205,2.00072c0.12841,0.2058 0.2066,0.43423 0.26646,0.67093c1.23347,-0.44595 2.46394,-0.8908 3.62583,-1.31086c-0.01569,-0.22982 0.02102,-0.46672 0.1172,-0.69327zM373.71014,268.91946c-0.69417,0.59103 -1.39815,1.16949 -2.13257,1.70904c-0.57298,0.42094 -1.52983,0.46294 -1.82016,1.11194c-0.18739,0.41888 0.61162,0.69423 0.83209,1.09666c0.25394,0.46352 0.62483,1.00544 1.03413,1.5861c0.43079,-0.19316 0.82976,-0.45389 1.16204,-0.83491c0.23398,-0.2683 0.71454,-2.20267 0.77186,-2.56773c0.10714,-0.68218 0.15118,-1.3858 0.1526,-2.10111zM376.3189,263.70034c1.02322,-0.5673 2.16779,-1.48599 1.75284,-2.35219c-0.26963,-0.56279 -0.76234,-0.96002 -1.27075,-1.3495l-0.16352,0.42568c0,0 -0.01592,0.03754 -0.04872,0.09766c-0.01435,0.04515 -0.03095,0.09001 -0.04982,0.13448c-0.10802,0.25444 -0.27748,0.46398 -0.48377,0.61867c0.00651,0.04325 0.00841,0.06821 0.00841,0.06821c0.05485,0.72144 0.15068,1.51655 0.25534,2.35699z" data-paper-data="{&quot;index&quot;:null}" stroke-width="0.5"/><path d="M353.42851,305.54005l23.23926,-51.49193l4.82738,2.17869l-23.23925,51.49191z" stroke-width="0"/><path d="M358.17524,301.83285c2.02125,0.91223 2.92029,3.29026 2.00806,5.31152c-0.91223,2.02125 -3.29028,2.9203 -5.31152,2.00807c-2.02125,-0.91223 -2.9203,-3.29027 -2.00806,-5.31152c0.91223,-2.02125 3.29028,-2.9203 5.31152,-2.00806z" stroke-width="0"/><path d="M354.0318,299.26899l1.1496,-2.62554l8.57677,3.75536l-1.14958,2.62555z" stroke-width="0"/><path d="M356.68867,293.20108l1.1496,-2.62554l8.57678,3.75537l-1.1496,2.62554z" stroke-width="0"/><path d="M359.34555,287.1331l1.1496,-2.62554l8.57678,3.75537l-1.1496,2.62554z" stroke-width="0"/><path d="M362.00241,281.06518l1.1496,-2.62554l8.57678,3.75536l-1.14961,2.62554z" stroke-width="0"/><path d="M364.77593,275.04839l1.1496,-2.62554l8.57678,3.75536l-1.1496,2.62554z" stroke-width="0"/><path d="M367.43278,268.98044l1.1496,-2.62554l8.57678,3.75536l-1.1496,2.62554z" stroke-width="0"/><path d="M370.08968,262.91248l1.1496,-2.62555l8.57678,3.75537l-1.1496,2.62554z" stroke-width="0"/></g><g data-paper-data="{&quot;index&quot;:null}"><path d="M350.96423,211.14179c12.57762,-7.82309 18.59274,2.64505 25.59221,14.96311c6.99947,12.31806 12.40313,22.4223 -0.24485,29.6445c-13.29769,7.59319 -18.59275,-2.64505 -25.59222,-14.96311c-6.99948,-12.31806 -13.63487,-21.01151 0.24486,-29.6445z" fill="#525252" stroke="#000000" stroke-width="0"/><g stroke="none"><path d="M379.39163,256.50349c-0.36562,0.36323 -0.73043,0.47822 -1.05256,0.47194c-0.03971,0.05989 -0.08202,0.11502 -0.12479,0.16517c-0.11161,0.14181 -0.25066,0.26592 -0.41498,0.36378c-0.33311,0.19839 -0.71157,0.25406 -1.06431,0.18504l-0.7956,0.13834c-1.01748,-0.53112 -2.36602,-0.13569 -3.37489,-0.68297c-0.6797,-0.36871 -0.95255,-1.22065 -1.3755,-1.86798c-1.20306,-1.84129 -1.19038,-3.55477 -0.71068,-5.24262c-1.0709,-0.75281 -2.12085,-1.4744 -3.01793,-2.19227c0,0 -0.90703,-0.72586 -0.49566,-1.70031c-0.07467,-0.07918 -0.14189,-0.16771 -0.19989,-0.26511c-0.2437,-0.4092 -0.27206,-0.88685 -0.11846,-1.30118c-0.09706,-0.3722 -0.0466,-0.76447 0.13103,-1.09645c0.00833,-0.23615 0.057,-0.40211 0.057,-0.40211c0.16575,-0.56518 0.33745,-1.15062 0.51278,-1.74843c-1.34636,-0.14311 -2.30257,0.24591 -4.0365,-0.96612c-2.68652,-1.8779 -4.57548,-7.67116 -3.88833,-10.85179c-0.48384,-0.07037 -0.96952,-0.16865 -1.4617,-0.31064c-1.00227,-0.28912 -2.3694,-0.10401 -2.98237,-0.94805c-0.7746,-1.06653 -0.4111,-2.60518 -0.5502,-3.91597c-0.17383,-1.63831 -0.22899,-3.28656 -0.31082,-4.93256c-1.06655,-0.60432 -2.13322,-1.1838 -3.10637,-1.78894c0,0 -0.76515,-0.47577 -0.74748,-1.28349c-0.21057,-0.12468 -0.39383,-0.30232 -0.52788,-0.52739c-0.02473,-0.04152 -0.04724,-0.08373 -0.06755,-0.12651c-0.04062,-0.05515 -0.06151,-0.09017 -0.06151,-0.09017l-0.91738,-1.61953c-0.06335,-0.67701 -0.12676,-1.354 -0.19012,-2.03102c0,0 -0.11111,-1.50912 1.39801,-1.62022c0.65281,-0.04806 1.04402,0.20707 1.27781,0.51206c1.16556,-0.25372 2.34639,-0.70774 3.43193,-0.3178c3.06449,1.10084 3.4786,4.64332 2.8263,7.30551c2.73852,1.65954 5.37171,3.69678 6.08362,6.50803c0.17977,0.70989 0.16472,1.43063 0.04378,2.14145c0.86201,0.07954 1.64526,0.22753 2.20989,0.51512c1.52233,0.7754 2.46551,2.36807 3.75997,3.48305l1.20765,1.04202c0,0 0.34086,0.29412 0.49031,0.74742c0.07807,0.08144 0.14821,0.17295 0.2084,0.27402c0.06325,0.10619 0.11199,0.21699 0.14681,0.33008c1.26083,0.48178 0.86705,1.82443 0.86705,1.82443c-0.42092,1.43525 -0.84186,2.87052 -1.26278,4.30577c1.51514,0.57947 2.29991,1.92815 3.37298,3.71429l0.38714,0.65007c0,0 0.10712,0.1799 0.17477,0.44567c0.85176,0.61103 0.46843,1.69844 0.46843,1.69844c-0.35887,1.00711 -0.63079,2.04956 -1.0766,3.0213c-0.09841,0.21448 -0.19499,0.41447 -0.28818,0.60288c1.82616,1.41442 3.53221,2.95188 4.66613,4.79826l0.50626,0.4455c0,0 1.06648,1.07351 -0.00702,2.13999zM373.78919,253.72826c0.10735,0.22667 -0.06572,0.65552 0.17306,0.73224c0.41147,0.13219 0.84404,-0.35141 1.26833,-0.26914c0.07162,0.01389 0.14223,0.03096 0.21199,0.05073c-0.61418,-0.75077 -1.35801,-1.45165 -2.16344,-2.1168c0.05046,0.45398 0.2088,0.9668 0.51008,1.60298zM372.50576,245.11075c-0.10391,-0.11962 -0.15817,-0.21072 -0.15817,-0.21072l-0.38714,-0.65006c-0.63252,-1.07316 -0.92774,-1.9749 -1.61553,-2.38925c-0.14985,0.51098 -0.29971,1.02196 -0.44958,1.53293l-0.15685,0.53484c0,0 -0.03354,0.11436 -0.11389,0.26949c-0.00063,0.17889 -0.03299,0.35607 -0.09488,0.52301c0.07604,0.29159 0.06153,0.59552 -0.03372,0.87312c0.66965,0.52992 1.3818,1.05387 2.10855,1.58333c0.30961,-0.68146 0.62635,-1.36814 0.9012,-2.06668zM368.6855,233.73177l-1.13232,-0.97703c-1.08419,-0.93704 -1.7953,-2.33955 -3.05255,-3.02718c-0.38733,-0.21187 -0.8832,0.06769 -1.32385,0.04042c-0.21922,-0.01357 -0.43656,-0.02476 -0.65239,-0.03487c-0.05146,0.13893 -0.10107,0.27573 -0.14788,0.41013c-0.69893,2.00722 1.19142,6.47744 2.78272,7.82274c0.60765,0.51372 1.58995,0.07276 2.38344,0.13184c0.24191,0.01803 0.47239,0.08993 0.69873,0.18151c0.36912,-1.25859 0.73734,-2.51412 1.08504,-3.69969c-0.19469,-0.12315 -0.36407,-0.29274 -0.49001,-0.50422c-0.06577,-0.11043 -0.11586,-0.22585 -0.15091,-0.34365zM357.27027,226.2754c0.22719,0.39869 0.92146,-0.08318 1.37641,-0.02322c0.52399,0.06905 1.18036,0.09007 1.89065,0.10298c0.09874,-0.46166 0.12415,-0.93762 0.01311,-1.43082c-0.07819,-0.3473 -1.35473,-1.87803 -1.61536,-2.14001c-0.48703,-0.48955 -1.02864,-0.94087 -1.60486,-1.36469c0.06661,0.90926 0.11728,1.819 0.11858,2.73031c0.00102,0.71099 -0.53054,1.50771 -0.17853,2.12545zM353.79956,213.427c-0.61335,-0.11504 -1.22495,0.04773 -1.83959,0.22771l0.24679,0.38345c0,0 0.02087,0.03503 0.04999,0.09702c0.02794,0.03825 0.05432,0.07815 0.07905,0.11966c0.14143,0.23749 0.21033,0.49803 0.21323,0.75585c0.03873,0.0203 0.06,0.03352 0.06,0.03352c0.61442,0.38206 1.31249,0.77461 2.05234,1.18679c0.14697,-1.1607 0.08219,-2.62693 -0.86181,-2.80401z" data-paper-data="{&quot;index&quot;:null}" fill="#000000" stroke-width="0.5"/><path d="M374.88849,259.42121l-27.80773,-49.17531l4.61019,-2.60697l27.8077,49.17532z" fill="url(#color-4)" stroke-width="0"/><path d="M374.70267,253.40123c1.93032,-1.09156 4.38002,-0.41162 5.47157,1.5187c1.09156,1.93032 0.41161,4.38002 -1.5187,5.47157c-1.93032,1.09156 -4.38003,0.41162 -5.47159,-1.51871c-1.09155,-1.93031 -0.4116,-4.38002 1.51871,-5.47157z" fill="#000000" stroke-width="0"/><path d="M370.18587,255.22886l-1.4388,-2.4789l8.09774,-4.70006l1.43879,2.4789z" fill="url(#color-5)" stroke-width="0"/><path d="M366.86067,249.49981l-1.43879,-2.4789l8.09774,-4.70006l1.43879,2.4789z" fill="url(#color-6)" stroke-width="0"/><path d="M363.53544,243.77081l-1.43878,-2.4789l8.09773,-4.70006l1.43879,2.4789z" fill="url(#color-7)" stroke-width="0"/><path d="M360.21026,238.04179l-1.43879,-2.4789l8.09774,-4.70006l1.43879,2.4789z" fill="url(#color-8)" stroke-width="0"/><path d="M356.99522,232.24883l-1.43879,-2.4789l8.09773,-4.70006l1.43879,2.4789z" fill="url(#color-9)" stroke-width="0"/><path d="M353.67003,226.5198l-1.4388,-2.4789l8.09774,-4.70007l1.43879,2.4789z" fill="url(#color-10)" stroke-width="0"/><path d="M350.34482,220.79078l-1.43879,-2.4789l8.09773,-4.70005l1.4388,2.4789z" fill="url(#color-11)" stroke-width="0"/></g><path d="M350.96423,211.14179c12.57762,-7.82309 18.59274,2.64505 25.59221,14.96311c6.99947,12.31806 12.40313,22.4223 -0.24485,29.6445c-13.29769,7.59319 -18.59275,-2.64505 -25.59222,-14.96311c-6.99948,-12.31806 -13.63487,-21.01151 0.24486,-29.6445z" fill="url(#color-12)" stroke="#000000" stroke-width="0"/></g><g data-paper-data="{&quot;index&quot;:null}" stroke-width="0"><g stroke="none"><path d="M358.67141,310.82218v-5.68812h19.90842v5.68812z" fill="url(#color-13)"/><path d="M357.24935,319.48363v-9.82494h27.66495l6.20522,9.82494z" fill="url(#color-14)"/><path d="M355.00862,324.13425v-6.15351h40.17881v6.15351z" fill="url(#color-15)"/><path d="M388.63745,324.11171v-6.15351h11.04012v6.15351z" fill="url(#color-16)"/><path d="M384.88848,324.11171v-6.15351h11.04012v6.15351z" fill="url(#color-17)"/><path d="M380.10529,324.11171v-6.15351h11.04012v6.15351z" fill="url(#color-18)"/></g><g stroke="#000000"><path d="M386.44938,304.57902c11.39304,0 20.62891,1.46368 20.62891,11.46051c0,9.76762 -9.23588,11.46051 -20.62891,11.46051c-11.39304,0 -20.62892,-5.13106 -20.62892,-11.46052c0,-6.32946 9.23589,-11.46051 20.62892,-11.46051z" fill="url(#color-19)"/><path d="M377.51016,304.34984c11.39304,0 20.62891,1.46368 20.62891,11.46051c0,9.76762 -9.23588,11.46051 -20.62891,11.46051c-11.39304,0 -20.62891,-5.13105 -20.62891,-11.46051c0,-6.32946 9.23588,-11.46052 20.62891,-11.46052z" fill="url(#color-20)"/><path d="M366.96648,304.57902c11.39304,0 20.62891,1.46368 20.62891,11.46051c0,9.76762 -9.23588,11.46051 -20.62891,11.46051c-11.39305,0 -20.62892,-5.13106 -20.62892,-11.46052c0,-6.32946 9.23589,-11.46051 20.62892,-11.46051z" fill="url(#color-21)"/></g></g><g fill="#000000" stroke="none"><path d="M308.64698,308.82909c-1.51034,-0.09299 -1.41736,-1.60333 -1.41736,-1.60333l0.08643,-0.6688c-0.36632,-2.13557 -0.09893,-4.41656 0.33992,-6.68435c-0.19435,-0.08008 -0.39888,-0.1666 -0.61435,-0.26283c-0.97619,-0.43598 -1.86838,-1.03985 -2.80258,-1.55979c0,0 -1.00558,-0.56411 -0.76875,-1.58529c-0.12453,-0.24435 -0.16276,-0.4502 -0.16276,-0.4502l-0.13805,-0.74391c-0.3723,-2.05016 -0.67257,-3.58138 0.08352,-5.01658c-1.26334,-0.80067 -2.52671,-1.60139 -3.79005,-2.40206c0,0 -1.18183,-0.74901 -0.55236,-1.943c-0.04845,-0.10796 -0.08495,-0.22337 -0.10749,-0.34488c-0.02147,-0.11566 -0.02916,-0.2307 -0.02423,-0.34341c-0.18682,-0.43922 -0.12477,-0.88514 -0.12477,-0.88514l0.21981,-1.57985c0.23693,-1.69194 -0.10531,-3.51101 0.5269,-5.09817c0.23448,-0.58866 0.72536,-1.21671 1.32058,-1.84527c-0.55992,-0.4543 -1.0468,-0.98591 -1.38016,-1.63794c-1.3201,-2.58213 -0.68582,-5.85039 0.27682,-8.9044c-2.2468,-1.56992 -4.27317,-4.50496 -2.69694,-7.35424c0.55836,-1.00928 1.74521,-1.44733 2.78842,-2.02578c-0.02559,-0.38343 0.10002,-0.83329 0.62225,-1.22794c1.20725,-0.91233 2.11958,0.29494 2.11958,0.29494c0.39912,0.55051 0.7982,1.10104 1.19731,1.65153l0.37936,1.82224c0,0 0.00741,0.04009 0.01328,0.10833c0.01298,0.04555 0.02391,0.09213 0.03273,0.13964c0.04779,0.25754 0.02731,0.51195 -0.04864,0.7446c0.54625,0.59524 0.28528,1.45762 0.28528,1.45762c-0.33192,1.09683 -0.75103,2.2361 -1.15366,3.39395c1.02465,1.2908 2.0708,2.56567 3.02123,3.91138c0.76042,1.07669 2.04884,1.99295 2.17057,3.30546c0.09635,1.03868 -1.05304,1.80171 -1.61537,2.6803c-0.27613,0.43145 -0.57623,0.82577 -0.89334,1.19792c2.61509,1.93647 5.01846,7.53591 4.23898,10.71967c-0.50309,2.05487 -1.47827,2.39353 -2.39549,3.38946c0.52621,0.33349 1.04152,0.66008 1.53902,0.97538c0,0 0.14607,0.09259 0.30815,0.26453c0.35252,0.13225 0.6493,0.3937 0.82196,0.73742c0.38882,0.20997 0.6827,0.58756 0.76959,1.05585c0.02069,0.11146 0.02858,0.22233 0.02472,0.33111c0.95211,0.46076 0.74953,1.60465 0.74953,1.60465c-0.20036,1.13136 -0.51314,2.36637 -0.82105,3.63865c1.47419,0.95169 2.61437,2.23083 2.92539,4.4082c0.10934,0.76548 0.46648,1.58569 0.19906,2.31123c-0.39692,1.07695 -1.67114,1.66965 -2.08518,2.74012l-0.68909,0.42104c-0.21951,0.28461 -0.54062,0.4925 -0.92182,0.56324c-0.18804,0.0349 -0.37442,0.0334 -0.55186,0.00049c-0.06524,-0.00947 -0.1334,-0.02298 -0.20276,-0.04177c-0.23789,0.21728 -0.58789,0.37159 -1.10229,0.33992zM310.3509,301.50602c-0.16629,1.03126 -0.26271,2.0487 -0.2288,3.0181c0.03937,-0.06088 0.08116,-0.12032 0.12581,-0.17801c0.26451,-0.3418 0.90866,-0.26384 1.13061,-0.63468c0.12879,-0.2152 -0.28423,-0.42323 -0.35314,-0.66439c-0.19341,-0.67681 -0.41282,-1.16662 -0.67448,-1.54103zM306.3034,295.72503c0.66746,0.34354 1.35857,0.65049 2.04087,0.95823c0.19671,-0.87739 0.38608,-1.74099 0.53958,-2.58104c-0.25475,-0.14572 -0.46619,-0.36451 -0.60147,-0.63379c-0.15665,-0.08459 -0.29788,-0.19641 -0.4164,-0.33039c-0.16274,-0.06354 -0.26341,-0.12734 -0.26341,-0.12734l-0.47076,-0.29836c-0.44978,-0.28506 -0.89955,-0.57013 -1.34932,-0.85518c-0.24339,0.7652 0.1298,1.63755 0.36267,2.86129l0.13805,0.7439c0,0 0.01934,0.10425 0.0202,0.26269zM301.77876,285.01191c0.04491,0.24199 0.02953,0.48121 -0.03549,0.70221c1.04356,0.66138 2.14871,1.36179 3.25656,2.06393c0.10962,-0.21816 0.23535,-0.42427 0.40524,-0.59743c0.55724,-0.56799 1.5863,-0.88484 1.7039,-1.67181c0.30798,-2.06088 -1.22133,-6.66711 -3.07098,-7.71413c-0.12386,-0.07011 -0.25141,-0.14016 -0.38175,-0.21059c-0.15551,0.15001 -0.31143,0.30184 -0.4672,0.45669c-0.3131,0.31127 -0.87017,0.42842 -1.02141,0.84318c-0.49096,1.34629 -0.09981,2.86934 -0.29615,4.28884l-0.20612,1.48129c0.0514,0.11165 0.08993,0.23143 0.11338,0.3578zM302.07342,267.91003c-0.15331,0.6987 -0.26246,1.39519 -0.30538,2.08439c-0.02297,0.36881 0.02791,2.36134 0.19833,2.67389c0.24201,0.44385 0.57516,0.78469 0.95399,1.06644c0.52519,-0.47841 1.00449,-0.9273 1.35265,-1.32494c0.30228,-0.34524 1.14193,-0.44129 1.04956,-0.89077c-0.14312,-0.69642 -1.06825,-0.94435 -1.53663,-1.47924c-0.60036,-0.6856 -1.16258,-1.4026 -1.71252,-2.12977zM300.65503,262.25026c0.28392,-0.79791 0.54943,-1.55349 0.75899,-2.24599c0,0 0.00725,-0.02396 0.02296,-0.06478c-0.16796,-0.19564 -0.2881,-0.43687 -0.33853,-0.70864c-0.00881,-0.0475 -0.01531,-0.09489 -0.01956,-0.14208c-0.01903,-0.0658 -0.02646,-0.10589 -0.02646,-0.10589l-0.0676,-0.45097c-0.5806,0.27032 -1.14756,0.5516 -1.53251,1.04277c-0.59245,0.75597 0.32637,1.90043 1.2027,2.67557z" data-paper-data="{&quot;index&quot;:null}" stroke-width="0.5"/><path d="M308.77162,309.13324l-11.55422,-55.299l5.18429,-1.08322l11.55421,55.29902z" stroke-width="0"/><path d="M310.1232,303.40406c2.17069,-0.45356 4.29804,0.93848 4.75159,3.10917c0.45356,2.17069 -0.93848,4.29804 -3.10917,4.75159c-2.17069,0.45355 -4.29804,-0.93848 -4.75159,-3.10918c-0.45355,-2.1707 0.93848,-4.29804 3.10917,-4.75159z" stroke-width="0"/><path d="M305.53707,303.60864l-0.5546,-2.81202l9.18593,-1.81178l0.55462,2.81201z" stroke-width="0"/><path d="M304.25528,297.10977l-0.55462,-2.81201l9.18594,-1.81178l0.55462,2.81201z" stroke-width="0"/><path d="M302.97348,290.61087l-0.55462,-2.81202l9.18594,-1.81178l0.55462,2.81202z" stroke-width="0"/><path d="M301.69167,284.11192l-0.55463,-2.81202l9.18594,-1.81177l0.55462,2.81201z" stroke-width="0"/><path d="M300.28489,277.63771l-0.55462,-2.81201l9.18594,-1.81177l0.55462,2.81201z" stroke-width="0"/><path d="M299.00309,271.13881l-0.55462,-2.81202l9.18594,-1.81177l0.55462,2.81202z" stroke-width="0"/><path d="M297.7213,264.6399l-0.55462,-2.81202l9.18594,-1.81178l0.55461,2.81202z" stroke-width="0"/></g><g data-paper-data="{&quot;index&quot;:null}"><path d="M321.68465,234.29721c-2.19985,7.527 -4.03831,14.3137 -7.73231,18.13996c-0.68458,-2.18076 -0.75228,-4.4263 -2.53741,-6.17277c-2.90784,-2.84485 -7.0278,-3.59036 -10.82062,-4.3741c-3.52952,-0.72932 -7.08348,-1.32458 -10.62559,-1.95884c0.36457,-4.149 1.70541,-8.88335 3.19221,-13.97065c3.97443,-13.59894 7.41702,-25.17098 21.45822,-20.45485c15.49484,5.20439 11.03995,15.19229 7.06551,28.79124z" fill="#000000" stroke="#000000" stroke-width="0"/><g stroke="none"><path d="M297.40283,256.19523c-1.29026,-0.79058 -0.49968,-2.08085 -0.49968,-2.08085l0.39005,-0.55011c0.67821,-2.05788 1.98431,-3.94693 3.43565,-5.7439c-0.13408,-0.16188 -0.27413,-0.33424 -0.41929,-0.5203c-0.65762,-0.84294 -1.16231,-1.79475 -1.74348,-2.69214c0,0 -0.62346,-0.96989 0.06468,-1.76066c0.00463,-0.2742 0.06743,-0.47394 0.06743,-0.47394l0.22702,-0.72176c0.63288,-1.98526 1.08595,-3.47843 2.4269,-4.39126c-0.74015,-1.29973 -1.48032,-2.59947 -2.22047,-3.8992c0,0 -0.69241,-1.21587 0.42358,-1.97507c0.00784,-0.11807 0.02975,-0.23713 0.06685,-0.35501c0.0353,-0.11223 0.08247,-0.21742 0.13968,-0.31465c0.04103,-0.47554 0.30499,-0.84025 0.30499,-0.84025l0.93519,-1.29214c1.00289,-1.38311 1.55391,-3.15019 2.85675,-4.25535c0.48322,-0.40989 1.21133,-0.73429 2.03185,-1.01022c-0.2814,-0.66386 -0.46202,-1.36176 -0.45058,-2.09398c0.04534,-2.89965 2.13855,-5.48854 4.42127,-7.73417c-1.24787,-2.44039 -1.66074,-5.98303 1.06785,-7.76003c0.96655,-0.62946 2.2202,-0.45959 3.41286,-0.48113c0.15725,-0.35063 0.4792,-0.689 1.12553,-0.79257c1.49415,-0.23943 1.73358,1.2547 1.73358,1.2547c0.09426,0.67341 0.18848,1.34681 0.28275,2.02021l-0.51974,1.78727c0,0 -0.01226,0.03889 -0.03909,0.10191c-0.00992,0.0463 -0.0221,0.09256 -0.0366,0.13866c-0.07861,0.24989 -0.21602,0.46495 -0.39223,0.63478c0.20322,0.78194 -0.43179,1.42114 -0.43179,1.42114c-0.80763,0.81299 -1.71217,1.62255 -2.61087,2.45626c0.29945,1.6206 0.62536,3.23725 0.83351,4.87155c0.16652,1.30759 0.87461,2.72117 0.36646,3.93742c-0.40212,0.96251 -1.77512,1.09723 -2.68387,1.60941c-0.44624,0.25152 -0.89624,0.45901 -1.35087,0.63892c1.40119,2.93688 0.89722,9.00944 -1.28461,11.45558c-1.40819,1.57879 -2.42829,1.42044 -3.7055,1.86978c0.30829,0.54136 0.61021,1.07152 0.90166,1.58333c0,0 0.08558,0.15028 0.14807,0.37817c0.2493,0.28215 0.38875,0.65225 0.38002,1.0368c0.24489,0.36783 0.32731,0.83916 0.18439,1.29348c-0.03401,0.10814 -0.07903,0.20977 -0.13346,0.30402c0.62474,0.85352 -0.09075,1.76876 -0.09075,1.76876c-0.70763,0.90518 -1.56318,1.84918 -2.43192,2.82838c0.85552,1.53201 1.26249,3.19651 0.51582,5.26537c-0.2625,0.72733 -0.33182,1.61921 -0.90832,2.13455c-0.85571,0.76491 -2.25907,0.69069 -3.12688,1.44186l-0.80607,0.04861c-0.32736,0.1484 -0.70847,0.18138 -1.07832,0.06504c-0.18245,-0.05738 -0.34634,-0.14614 -0.4876,-0.25843c-0.05317,-0.03896 -0.10704,-0.08287 -0.15948,-0.13199c-0.31202,0.0803 -0.6935,0.05243 -1.13295,-0.21684zM302.21553,252.20437c0.14666,-0.68846 0.18264,-1.22397 0.1272,-1.67737c-0.6306,0.83276 -1.193,1.68611 -1.61778,2.55814c0.06332,-0.03531 0.12811,-0.06817 0.1946,-0.09819c0.39393,-0.17778 0.92625,0.19321 1.29622,-0.03019c0.21469,-0.12964 -0.05249,-0.50711 -0.00022,-0.7524zM301.47982,243.52293c0.42835,0.61647 0.89472,1.21174 1.35294,1.80359c0.58527,-0.68259 1.15762,-1.35647 1.68722,-2.02637c-0.15662,-0.2482 -0.24074,-0.54061 -0.23389,-0.84189c-0.09867,-0.1482 -0.17096,-0.31317 -0.21277,-0.4871c-0.11391,-0.13245 -0.17289,-0.23603 -0.17289,-0.23603l-0.27581,-0.48434c-0.26351,-0.46272 -0.52702,-0.92547 -0.79052,-1.38819c-0.57388,0.56161 -0.65348,1.50709 -1.02185,2.69708l-0.22702,0.72175c0,0 -0.03182,0.10114 -0.10539,0.24148zM302.50905,231.93914c-0.07385,0.2348 -0.19963,0.43885 -0.36072,0.60352c0.6114,1.07362 1.25887,2.2106 1.90792,3.35034c0.19916,-0.14124 0.40688,-0.26429 0.63814,-0.33755c0.75856,-0.24024 1.81601,-0.03736 2.28902,-0.67721c1.23869,-1.67562 2.04873,-6.46102 0.90631,-8.25332c-0.0765,-0.12001 -0.15629,-0.2417 -0.23836,-0.36505c-0.20771,0.05953 -0.41663,0.12048 -0.62682,0.18418c-0.42252,0.12803 -0.96945,-0.02982 -1.29757,0.26556c-1.0651,0.95869 -1.43408,2.48726 -2.27333,3.64882l-0.87687,1.21154c-0.00697,0.12271 -0.02914,0.24656 -0.06771,0.36917zM311.30471,219.6579c-0.20862,-0.8871 -0.36882,-1.78406 -0.51341,-2.68422c-0.46313,0.54513 -0.88624,1.10906 -1.24743,1.69761c-0.19329,0.31496 -1.08299,2.09853 -1.07909,2.4545c0.00553,0.50552 0.13988,0.96282 0.34229,1.38934c0.68822,-0.17615 1.32212,-0.34777 1.81611,-0.53563c0.42891,-0.16311 1.2155,0.14591 1.34476,-0.29439c0.20028,-0.6822 -0.50048,-1.33509 -0.66322,-2.02719zM312.38633,208.38276c-0.87783,0.38973 -0.60319,1.83146 -0.19287,2.92711c0.62503,-0.5715 1.21393,-1.11426 1.72384,-1.62755c0,0 0.01766,-0.01776 0.05068,-0.04643c-0.05655,-0.25157 -0.04951,-0.52096 0.03343,-0.78464c0.0145,-0.04609 0.03099,-0.091 0.04936,-0.13466c0.01406,-0.06704 0.0263,-0.10593 0.0263,-0.10593l0.15184,-0.42998c-0.63957,-0.03359 -1.27222,-0.05113 -1.84258,0.20207z" data-paper-data="{&quot;index&quot;:null}" fill="#000000" stroke-width="0.5"/><path d="M297.37025,256.52227l15.73498,-54.25764l5.08665,1.47516l-15.735,54.25763z" fill="#000000" stroke-width="0"/><path d="M303.98932,257.07118c-0.61766,2.12982 -2.84492,3.35566 -4.97474,2.738c-2.12981,-0.61765 -3.35565,-2.84491 -2.738,-4.97473c0.61766,-2.12982 2.84491,-3.35565 4.97473,-2.738c2.12981,0.61765 3.35566,2.84491 2.73801,4.97472z" fill="#000000" stroke-width="0"/><path d="M297.10505,250.12597l0.82922,-2.74361l8.96251,2.70877l-0.82922,2.74363z" fill="#000000" stroke-width="0"/><path d="M299.02147,243.78514l0.82922,-2.74362l8.96251,2.70877l-0.82922,2.74362z" fill="#000000" stroke-width="0"/><path d="M300.93789,237.44432l0.82922,-2.74362l8.9625,2.70878l-0.82921,2.74362z" fill="url(#color-22)" stroke-width="0"/><path d="M302.8543,231.10349l0.82922,-2.74362l8.96251,2.70877l-0.82922,2.74362z" fill="url(#color-23)" stroke-width="0"/><path d="M304.64877,224.72584l0.82922,-2.74362l8.9625,2.70878l-0.82922,2.74362z" fill="url(#color-24)" stroke-width="0"/><path d="M306.56518,218.385l0.82922,-2.74362l8.96251,2.70878l-0.82923,2.74362z" fill="url(#color-25)" stroke-width="0"/><path d="M308.48159,212.04418l0.82923,-2.74362l8.9625,2.70877l-0.82922,2.74362z" fill="url(#color-26)" stroke-width="0"/></g><path d="M321.68465,234.29721c-3.17903,10.8774 -5.60336,20.20877 -13.9635,21.29392c1.99035,-1.58159 4.09461,-3.0318 5.57871,-5.11707c1.64158,-2.30654 5.37243,-9.70704 0.83155,-11.00151c-1.10155,-0.31402 -5.02477,1.21505 -6.24931,1.54688c-0.54432,0.38807 -1.23921,0.62398 -1.63293,1.16421c-1.13693,1.56 0.02541,5.0338 -2.10541,5.88582c-1.21317,0.48509 -2.44626,0.18898 -3.70006,0.38439c-0.91192,0.14212 -2.38034,1.06309 -3.32488,0.5735c-0.79994,-0.41463 -1.01467,-1.59873 -1.8239,-1.99491c-0.95517,-0.46765 -3.2805,-0.3007 -4.78517,-0.42808c-1.70492,-5.3687 0.28888,-12.56066 2.65119,-20.64353c3.97443,-13.59894 7.41702,-25.17098 21.45822,-20.45485c15.49484,5.20439 11.03995,15.19229 7.06551,28.79124z" fill="url(#color-27)" stroke="#000000" stroke-width="0"/></g><g data-paper-data="{&quot;index&quot;:null}" stroke="none"><g fill="#000000" stroke-width="0"><path d="M295.10941,311.30097v-5.68812h19.90842v5.68812z"/><path d="M282.5697,319.96243l6.20522,-9.82494h27.66495v9.82494z"/><path d="M278.50182,324.61303v-6.15351h40.17881v6.15351z"/><path d="M274.01168,324.5905v-6.15351h11.04012v6.15351z"/><path d="M277.76065,324.5905v-6.15351h11.04012v6.15351z"/><path d="M282.54385,324.5905v-6.15351h11.04012v6.15351z"/></g><g fill="none" stroke-width="1" font-family="sans-serif" font-weight="normal" font-size="12" text-anchor="start"/></g><g><path d="M288.94933,184.1407c-4.4637,10.29124 -7.76233,18.80049 -18.87517,13.95262c-10.56988,-4.611 -7.17436,-13.02398 -2.71065,-23.31522c4.46371,-10.29124 8.30965,-19.04262 18.87516,-13.95263c11.65934,5.61694 7.17437,13.02398 2.71068,23.31523z" fill="#525252" stroke="#000000" stroke-width="0"/><path d="M284.73879,158.99766c0.404,0.05733 0.65088,0.23273 0.80082,0.43912c0.05678,-0.00353 0.11181,-0.00316 0.16391,-0.00011c0.14287,0.00272 0.28765,0.03123 0.42794,0.08822c0.2844,0.11556 0.50036,0.32791 0.62528,0.5836l0.46743,0.43626c0.15073,0.89617 1.04464,1.55872 1.18104,2.45719c0.0919,0.60531 -0.31567,1.18458 -0.52233,1.76088c-0.58785,1.63924 -1.6758,2.44982 -2.97069,2.95326c0.03626,1.0358 0.08226,2.04346 0.05754,2.95283c0,0 -0.02499,0.91946 -0.83679,1.12524c-0.01434,0.08498 -0.03811,0.1697 -0.07189,0.25286c-0.14195,0.34937 -0.42999,0.59544 -0.76498,0.69639c-0.18864,0.2391 -0.46043,0.39464 -0.75491,0.44108c-0.15309,0.10756 -0.28113,0.1561 -0.28113,0.1561c-0.43605,0.16534 -0.88771,0.33663 -1.34892,0.51151c0.55283,0.91848 1.25527,1.33636 1.31831,3.0102c0.09772,2.5934 -2.65775,6.55369 -4.99427,7.63928c0.1867,0.33911 0.35668,0.69273 0.50217,1.07132c0.29627,0.77097 1.06624,1.54573 0.82617,2.33599c-0.30336,0.99859 -1.44851,1.50414 -2.20971,2.21815c-0.95139,0.89241 -1.96574,1.71466 -2.96594,2.55268c0.12793,0.96212 0.27164,1.91247 0.35445,2.816c0,0 0.06513,0.71039 -0.45331,1.08509c0.02187,0.19253 -0.00275,0.39309 -0.08081,0.58525c-0.01439,0.03544 -0.0303,0.06982 -0.0476,0.10308c-0.01541,0.052 -0.02756,0.0819 -0.02756,0.0819l-0.58431,1.35294c-0.39719,0.36343 -0.79437,0.72687 -1.19156,1.0903c0,0 -0.89978,0.79111 -1.69088,-0.10869c-0.3422,-0.38922 -0.36802,-0.75812 -0.28713,-1.05143c-0.71703,-0.61472 -1.56779,-1.14341 -1.84019,-2.01511c-0.76892,-2.46082 1.26998,-4.41463 3.2625,-5.27456c-0.26044,-2.52193 -0.23206,-5.15775 1.20287,-6.95027c0.36235,-0.45264 0.82462,-0.78746 1.3312,-1.05067c-0.36158,-0.58228 -0.64233,-1.14754 -0.73047,-1.64141c-0.23766,-1.33165 0.31737,-2.68801 0.40296,-4.03799l0.08101,-1.2603c0,0 0.02287,-0.35574 0.2377,-0.66665c0.01412,-0.0882 0.0384,-0.17619 0.07347,-0.26249c0.03683,-0.09066 0.08351,-0.17437 0.13829,-0.25039c-0.29813,-1.02624 0.73773,-1.41903 0.73773,-1.41903c1.10731,-0.41988 2.21463,-0.83975 3.32194,-1.25964c-0.35794,-1.23348 0.1187,-2.3733 0.73384,-3.90412l0.22551,-0.55501c0,0 0.06239,-0.15357 0.19789,-0.32326c-0.02111,-0.82972 0.84863,-1.10715 0.84863,-1.10715c0.80732,-0.25454 1.59543,-0.58086 2.42197,-0.7636c0.18243,-0.04034 0.35484,-0.07487 0.51833,-0.10605c0.02066,-1.82874 0.1764,-3.64044 0.80048,-5.23846l0.03944,-0.53247c0,0 0.16833,-1.18623 1.35455,-1.01789zM285.66291,163.86083c0.09184,-0.17606 0.4453,-0.27165 0.37967,-0.45907c-0.11309,-0.32295 -0.62512,-0.36504 -0.77585,-0.67225c-0.02544,-0.05185 -0.0484,-0.1046 -0.06923,-0.15809c-0.18062,0.74646 -0.26782,1.55094 -0.30304,2.37725c0.26254,-0.24874 0.5107,-0.59369 0.76845,-1.08784zM280.83492,168.78802c-0.02588,0.12274 -0.05748,0.20053 -0.05748,0.20053l-0.2255,0.55499c-0.37543,0.91205 -0.80375,1.52924 -0.73679,2.16146c0.39423,-0.14948 0.78845,-0.29899 1.18267,-0.44846l0.41262,-0.15647c0,0 0.08824,-0.03346 0.22457,-0.05684c0.11324,-0.08504 0.24057,-0.14929 0.37555,-0.18997c0.14778,-0.18732 0.34663,-0.32334 0.56742,-0.39582c0.01468,-0.67599 0.00529,-1.37593 -0.0076,-2.08774c-0.57819,0.13006 -1.16306,0.25813 -1.73544,0.4183zM275.62012,176.37672c-0.03831,0.09428 -0.08725,0.18105 -0.14489,0.25946l-0.07596,1.1817c-0.0737,1.13223 -0.61954,2.25121 -0.45308,3.37355c0.05129,0.34577 0.46469,0.52531 0.65796,0.81656c0.09616,0.1449 0.19292,0.28749 0.28965,0.42859c0.11231,-0.03387 0.22236,-0.0679 0.32961,-0.10257c1.60126,-0.5176 3.5207,-3.84672 3.60993,-5.49414c0.03407,-0.62909 -0.71363,-1.03865 -1.0554,-1.5679c-0.10419,-0.16135 -0.1689,-0.34123 -0.2192,-0.52788c-0.97103,0.3682 -1.93967,0.7355 -2.85433,1.08235c0.01524,0.18175 -0.01091,0.36974 -0.08427,0.55028zM274.79335,188.30857c0.44843,-0.34029 1.20542,-0.38529 1.4273,-0.90266c0.14319,-0.3339 -0.49274,-0.54208 -0.67223,-0.85797c-0.20673,-0.36384 -0.507,-0.78831 -0.83817,-1.24296c-0.33868,0.1582 -0.65134,0.36952 -0.90968,0.67526c-0.18193,0.21527 -0.5386,1.75256 -0.57951,2.04227c-0.07643,0.54138 -0.10267,1.09896 -0.09497,1.66527c0.5423,-0.47642 1.0925,-0.94303 1.66729,-1.37921zM269.76618,195.73536c0.22037,0.44223 0.61532,0.75065 1.02261,1.05274l0.12422,-0.33901c0,0 0.01215,-0.02991 0.03738,-0.07793c0.01081,-0.03591 0.02338,-0.07163 0.03779,-0.10708c0.08239,-0.20276 0.21396,-0.37072 0.37538,-0.49574c-0.00569,-0.03416 -0.00752,-0.05389 -0.00752,-0.05389c-0.05228,-0.57046 -0.13792,-1.19876 -0.23112,-1.86282c-0.80309,0.46171 -1.69792,1.20307 -1.35875,1.8837z" fill="#000000" stroke="none" stroke-width="0.5"/><g stroke="none" stroke-width="0"><path d="M267.88199,199.31275l16.83742,-41.43925l3.88493,1.57852l-16.83742,41.43924z" fill="url(#color-28)"/><path d="M274.80983,166.34826l0.902,-2.21996l14.98473,6.08853l-0.902,2.21996z" fill="url(#color-29)"/><path d="M282.2432,190.49132l-0.902,2.21996l-14.98473,-6.08853l0.902,-2.21996z" data-paper-data="{&quot;index&quot;:null}" fill="url(#color-30)"/><path d="M264.55829,189.98736l3.53323,-15.59191l8.34316,-13.63756l2.95994,1.20267l-8.41833,13.82256l-3.45808,15.40691z" fill="url(#color-31)"/><path d="M277.80289,195.58441l8.26799,-13.45257l3.60841,-15.77692l2.95994,1.20268l-3.53323,15.59191l-8.34315,13.63756z" data-paper-data="{&quot;index&quot;:null}" fill="url(#color-32)"/><path d="M273.04961,200.28741c-0.66093,1.62665 -2.51538,2.40951 -4.14203,1.74858c-1.62665,-0.66093 -2.4095,-2.51537 -1.74858,-4.14202c0.66093,-1.62665 2.51538,-2.40951 4.14203,-1.74858c1.62665,0.66093 2.40951,2.51538 1.74858,4.14203z" fill="#000000"/></g><path d="M288.94933,184.1407c-4.4637,10.29124 -7.76233,18.80049 -18.87517,13.95262c-10.56988,-4.611 -7.17436,-13.02398 -2.71065,-23.31522c4.46371,-10.29124 8.30965,-19.04262 18.87516,-13.95263c11.65934,5.61694 7.17437,13.02398 2.71068,23.31523zM286.3267,170.22131l-0.4775,-0.22508c-0.95832,-1.14366 -1.58903,-2.35219 -2.55567,-3.50752c-5.16873,-3.11311 -8.58737,1.41136 -10.14349,6.03394c-0.46373,1.3775 -0.04455,3.32061 -0.75944,4.5753c-1.93773,3.4009 -4.52815,4.51657 -4.47548,8.81455c0.01163,0.94828 -0.04001,2.92975 0.68682,3.70534c0.90036,0.96077 2.41745,1.0976 3.4676,1.89188c1.80824,-0.00012 4.07539,0.09957 5.5377,-1.26705c1.64976,-1.54177 2.06193,-4.89039 3.25826,-6.85602c0.87436,-1.43659 2.63898,-1.88212 3.00698,-3.71891c0.2979,-1.4869 -1.23655,-2.60559 -0.27065,-4.09084c0.7804,-1.2 3.18753,-0.95198 3.84981,-2.35332c0.28903,-0.61158 -0.13916,-1.3457 -0.20872,-2.01855c0,0 -0.16602,-0.71454 -0.79749,-0.89489c-0.06973,-0.05836 -0.11871,-0.08886 -0.11871,-0.08886z" fill="url(#color-33)" stroke="#000000" stroke-width="0"/><path d="M286.36209,170.18906c0,0 0.04935,0.03092 0.11909,0.08929c0.63148,0.18035 0.80043,0.89854 0.80043,0.89854c0.06958,0.67285 0.50165,1.41328 0.21261,2.02486c-0.66227,1.40133 -3.06838,1.15544 -3.84878,2.35543c-0.9659,1.48525 0.57195,2.63271 0.27405,4.11962c-0.368,1.83678 -2.15195,2.31231 -3.0263,3.74891c-1.19634,1.96563 -1.6351,5.32306 -3.28485,6.86483c-1.46232,1.36661 -3.74842,1.26347 -5.55666,1.2636c-1.05017,-0.79428 -2.57883,-0.93776 -3.47919,-1.89853c-0.72682,-0.77559 -0.68323,-2.765 -0.69485,-3.71328c-0.05267,-4.29797 2.52893,-5.45575 4.46666,-8.85666c0.71489,-1.25468 0.31426,-3.22455 0.77798,-4.60204c1.55611,-4.62257 5.0239,-9.15086 10.19263,-6.03774c0.96663,1.15534 1.60999,2.37304 2.56832,3.5167l0.47885,0.22649z" data-paper-data="{&quot;noHover&quot;:false,&quot;origItem&quot;:[&quot;Path&quot;,{&quot;applyMatrix&quot;:true,&quot;segments&quot;:[[185.69693,159.15816],[[185.26441,158.81635],[0,0],[-0.70451,-1.38982]],[[183.49376,154.64449],[0.7102,1.40367],[-4.52187,-4.38825]],[[171.74973,158.38488],[2.67539,-4.33431],[-0.79726,1.2916]],[[169.89589,162.85939],[1.02372,-1.10731],[-2.77483,3.00143]],[[163.26017,170.7678],[0.96222,-4.38434],[-0.2123,0.96734]],[[163.08307,174.6992],[-0.55602,-0.96071],[0.68877,1.19009]],[[166.16319,177.44316],[-0.88051,-1.05613],[1.83937,0.42724]],[[172.0956,177.46312],[-1.81046,1.0445],[2.04252,-1.17838]],[[177.03027,171.25925],[-1.68147,1.71669],[1.22893,-1.25466]],[[180.96791,168.18706],[-0.80844,1.7814],[0.65444,-1.44207]],[[181.65944,163.96189],[-1.33354,1.28251],[1.07743,-1.0362]],[[186.13165,162.47797],[-1.00486,1.26891],[0.43855,-0.55379]],[[186.3964,160.37536],[-0.08825,0.70086],[0,0]],[[185.79669,159.2766],[0.59971,0.3327],[-0.05714,-0.07585]],[185.69694,159.15816]],&quot;closed&quot;:true,&quot;fillColor&quot;:[0,0,0,1]}]}" fill="#000000" stroke="none" stroke-width="0.5"/></g><g><path d="M310.06111,149.5645c-7.5698,8.2784 -13.45806,15.25098 -22.38832,7.05056c-8.49396,-7.79978 -2.54542,-14.64981 5.02438,-22.92821c7.5698,-8.2784 14.05438,-15.30183 22.38832,-7.05056c9.19673,9.1055 2.54544,14.64979 -5.02438,22.92821z" fill="#000000" stroke="#000000" stroke-width="0"/><path d="M314.26208,124.41987c0.36336,0.18568 0.53972,0.43189 0.61431,0.67583c0.05484,0.01514 0.10675,0.0334 0.15502,0.05323c0.1342,0.04907 0.26182,0.12314 0.37594,0.2227c0.23131,0.20182 0.36641,0.4729 0.40133,0.75532l0.30002,0.56463c-0.14911,0.89644 0.48051,1.81382 0.31711,2.70777c-0.11009,0.60225 -0.68397,1.01737 -1.06696,1.49506c-1.08932,1.35871 -2.38183,1.77112 -3.77006,1.82576c-0.30279,0.99121 -0.58723,1.95899 -0.90654,2.81081c0,0 -0.32285,0.86127 -1.15743,0.79166c-0.0412,0.07568 -0.09126,0.14807 -0.15027,0.21571c-0.24792,0.28415 -0.60037,0.42311 -0.94997,0.40954c-0.25618,0.16469 -0.5638,0.22331 -0.85736,0.17139c-0.17976,0.05188 -0.31662,0.05612 -0.31662,0.05612c-0.46611,0.01445 -0.94893,0.0294 -1.44196,0.04468c0.22385,1.04839 0.75203,1.67212 0.26695,3.27537c-0.75157,2.48403 -4.64586,5.33202 -7.20848,5.59815c0.06618,0.38142 0.11183,0.77108 0.12619,1.17641c0.02924,0.82541 0.50518,1.80857 0.02101,2.47769c-0.61183,0.84551 -1.85917,0.95087 -2.81128,1.3783c-1.19001,0.53424 -2.41674,0.98161 -3.63522,1.44852c-0.19213,0.9514 -0.36552,1.89676 -0.58124,2.77806c0,0 -0.16962,0.69293 -0.78176,0.87852c-0.04197,0.18916 -0.1305,0.3708 -0.26686,0.52707c-0.02516,0.02882 -0.05138,0.05616 -0.07857,0.08199c-0.03149,0.04415 -0.05271,0.0685 -0.05271,0.0685l-0.99279,1.08913c-0.49384,0.21438 -0.98768,0.4288 -1.48152,0.64319c0,0 -1.10824,0.45522 -1.56348,-0.65302c-0.19692,-0.47941 -0.10127,-0.83661 0.07067,-1.08764c-0.47794,-0.81461 -1.11035,-1.59138 -1.08422,-2.50426c0.07375,-2.5771 2.6375,-3.76103 4.80142,-3.92573c0.57445,-2.4694 1.45907,-4.95251 3.39923,-6.18049c0.48993,-0.31008 1.03597,-0.47623 1.60066,-0.56027c-0.15241,-0.66827 -0.23392,-1.29409 -0.15654,-1.78978c0.20862,-1.33651 1.17486,-2.43842 1.69512,-3.68705l0.48675,-1.16535c0,0 0.13739,-0.32892 0.4417,-0.553c0.04207,-0.07881 0.09365,-0.15411 0.1549,-0.22429c0.06432,-0.07373 0.13571,-0.1377 0.21224,-0.19176c0.05206,-1.06741 1.15938,-1.1017 1.15938,-1.1017c1.18367,-0.03668 2.36737,-0.07335 3.55105,-0.11002c0.06295,-1.28283 0.88459,-2.20549 1.96443,-3.4528l0.39384,-0.4514c0,0 0.10898,-0.1249 0.29233,-0.24125c0.25006,-0.79141 1.16273,-0.77072 1.16273,-0.77072c0.84621,0.02206 1.69761,-0.03002 2.53863,0.06616c0.18564,0.02124 0.3599,0.04467 0.52463,0.06841c0.61466,-1.72247 1.35149,-3.38486 2.46166,-4.6928l0.21057,-0.49067c0,0 0.54519,-1.06687 1.61207,-0.52167zM313.55328,129.31908c0.14414,-0.13659 0.50947,-0.11195 0.5084,-0.31053c-0.00185,-0.3422 -0.47231,-0.54861 -0.51486,-0.88815c-0.00718,-0.05731 -0.01174,-0.11465 -0.01402,-0.172c-0.41371,0.64704 -0.75796,1.37935 -1.06015,2.14923c0.3292,-0.14976 0.67609,-0.39517 1.08063,-0.77855zM307.38465,132.4069c-0.06443,0.10763 -0.11961,0.1709 -0.11961,0.1709l-0.39383,0.4514c-0.65181,0.74021 -1.25767,1.18442 -1.40009,1.80403c0.42142,-0.01305 0.84282,-0.02611 1.26424,-0.03917l0.44108,-0.01366c0,0 0.09432,-0.00291 0.23083,0.01935c0.13476,-0.04357 0.27606,-0.06287 0.41692,-0.05741c0.20071,-0.12902 0.43298,-0.19293 0.66533,-0.18961c0.23386,-0.63441 0.45278,-1.29933 0.67222,-1.97657c-0.58903,-0.06518 -1.18375,-0.13442 -1.77709,-0.16923zM299.98409,137.88545c-0.0669,0.07668 -0.14142,0.1428 -0.22144,0.19819l-0.45639,1.09266c-0.43815,1.0466 -1.31843,1.92706 -1.52628,3.04245c-0.06403,0.34365 0.26843,0.64794 0.3564,0.98623c0.04377,0.1683 0.08888,0.33462 0.13441,0.49952c0.11723,0.0045 0.23237,0.00818 0.34505,0.01028c1.68254,0.03168 4.58088,-2.49159 5.20139,-4.0203c0.23694,-0.58375 -0.33678,-1.21435 -0.48771,-1.82601c-0.04601,-0.18648 -0.04865,-0.37761 -0.03548,-0.57047c-1.03799,0.03216 -2.07344,0.06423 -3.05119,0.09451c-0.04472,0.17683 -0.13063,0.34606 -0.25877,0.49291zM295.31934,148.89872c0.53476,-0.17583 1.26519,0.02796 1.64336,-0.38905c0.24406,-0.26912 -0.2895,-0.67292 -0.35642,-1.03002c-0.07708,-0.41131 -0.22287,-0.91039 -0.38806,-1.44808c-0.37172,0.03938 -0.73613,0.13745 -1.07992,0.34246c-0.24209,0.14437 -1.07961,1.48188 -1.21257,1.74251c-0.24846,0.48704 -0.45471,1.00573 -0.63174,1.54372c0.66783,-0.27401 1.33993,-0.53617 2.02536,-0.76155zM288.14893,154.28521c0.06445,0.48987 0.33755,0.91003 0.62435,1.32823l0.22779,-0.28012c0,0 0.02122,-0.02432 0.06069,-0.06152c0.02189,-0.03045 0.04544,-0.06014 0.07058,-0.08895c0.14389,-0.16491 0.32295,-0.28091 0.51626,-0.34658c0.00573,-0.03416 0.01045,-0.0534 0.01045,-0.0534c0.13621,-0.55643 0.2597,-1.17838 0.38769,-1.83662c-0.90963,0.17523 -1.99701,0.58502 -1.89781,1.33898z" fill="#000000" stroke="none" stroke-width="0.5"/><g stroke="none" stroke-width="0"><path d="M285.20312,157.05474l29.40651,-33.70412l3.15977,2.75686l-29.4065,33.70413z" fill="#000000"/><path d="M302.48149,128.13921l1.57536,-1.80559l12.18766,10.63361l-1.57536,1.80556z" fill="url(#color-34)"/><path d="M301.65334,153.3871l-1.57535,1.80558l-12.18766,-10.6336l1.57535,-1.80557z" data-paper-data="{&quot;index&quot;:null}" fill="#000000"/><path d="M285.0951,147.1553l8.415,-13.59334l12.32709,-10.18009l2.40744,2.10046l-12.45837,10.33056l-8.28373,13.44289z" fill="#000000"/><path d="M295.79729,156.75786l12.19581,-10.02963l8.54629,-13.74381l2.40744,2.10046l-8.415,13.59335l-12.32709,10.18009z" data-paper-data="{&quot;index&quot;:null}" fill="url(#color-35)"/><path d="M289.77228,159.65805c-1.15432,1.32302 -3.16258,1.45977 -4.48561,0.30546c-1.32302,-1.15432 -1.45976,-3.16257 -0.30545,-4.4856c1.15432,-1.32302 3.16257,-1.45977 4.4856,-0.30546c1.32302,1.15432 1.45977,3.16258 0.30546,4.4856z" fill="#000000"/></g><path d="M310.06111,149.5645c-7.5698,8.2784 -13.45806,15.25098 -22.38832,7.05056c-2.9178,-2.67934 -4.13134,-5.24659 -4.16036,-7.79818c1.03534,0.71187 2.09561,1.37284 3.24212,1.87056c1.58039,0.68608 1.8586,0.43759 3.36464,0.10559c0.62907,-0.13869 1.25723,-0.89675 1.83388,-0.60962c1.70269,0.84782 2.47072,2.98424 4.97612,2.92684c2.44945,-0.05611 2.83844,-2.25836 4.69375,-3.38446c0.56758,-0.3445 1.54077,-0.24529 1.79783,-0.85745c0.42471,-1.01139 -0.56882,-2.11953 -0.8086,-3.18997c-0.06497,-0.27202 -0.52359,-1.75695 -0.35709,-2.26083c0.29776,-0.90122 1.3188,-1.50389 1.46482,-2.44172c0.47303,-3.03819 -2.16686,-3.09177 -3.39507,-4.73945c-1.2543,-1.68268 0.86383,-4.01772 0.7097,-5.77073c-0.11327,-1.28838 -0.65674,-2.6112 -1.30162,-3.88609c4.8775,-4.10313 9.68783,-5.55185 15.35263,0.05676c9.19673,9.1055 2.54544,14.64979 -5.02438,22.92821zM313.40355,133.44596c-0.67293,-3.91135 -4.07092,-3.93951 -6.83929,-2.33432c-0.5408,0.31357 -1.42578,0.1814 -1.72812,0.72857c-0.83139,1.50471 0.96251,5.6405 2.16076,6.47899c0.35687,0.24974 0.90772,0.03336 1.28105,0.25773c1.34824,0.81034 -0.16421,2.88161 2.18248,4.00161c3.03029,1.44627 4.42796,-2.74612 5.45885,-4.36625c0,0 0.61436,-0.98626 -0.33924,-1.62063c-0.34513,-1.6184 -0.40618,-2.36531 -2.17649,-3.14571z" fill="url(#color-36)" stroke="#000000" stroke-width="0"/><path d="M313.43582,133.41061c1.77031,0.7804 1.84694,1.56364 2.19207,3.18203c0.95361,0.63438 0.33692,1.63446 0.33692,1.63446c-1.03089,1.62013 -2.47535,5.84559 -5.50564,4.39933c-2.34668,-1.12 -0.86873,-3.20731 -2.21697,-4.01764c-0.37332,-0.22438 -0.93116,-0.01828 -1.28804,-0.26801c-1.19825,-0.83848 -2.98673,-5.02583 -2.15534,-6.53053c0.30233,-0.54716 1.19581,-0.42322 1.73661,-0.73679c2.76838,-1.6052 6.2275,-1.57417 6.90042,2.33718z" data-paper-data="{&quot;noHover&quot;:false,&quot;origItem&quot;:[&quot;Path&quot;,{&quot;applyMatrix&quot;:true,&quot;segments&quot;:[[[221.93108,128.1497],[0,0],[0.23992,-4.13767]],[[215.52585,124.15882],[3.19537,-0.97852],[-0.62421,0.19115]],[[213.59582,124.49149],[0.43685,-0.48512],[-1.20132,1.33409]],[[214.26249,131.59259],[-1.02069,-1.1361],[0.30399,0.33837]],[[215.50466,132.15753],[-0.32672,-0.31647],[1.17991,1.14292]],[[216.77892,136.74378],[-2.12234,-1.69389],[2.7406,2.18733]],[[223.36359,133.59258],[-1.43152,1.40436],[0,0]],[[223.40153,131.86389],[0.82008,0.87067],[0.03143,-1.7278]],[[221.93107,128.14968],[1.61632,1.21223],[0,0]]],&quot;closed&quot;:true,&quot;fillColor&quot;:[0,0,0,1]}]}" fill="#000000" stroke="none" stroke-width="0.5"/></g><g><path d="M375.8392,168.58139c0.08933,8.1789 -2.09673,15.50196 -5.73316,21.63339c-0.81904,-0.61573 -1.69953,-1.13589 -3.07462,-1.0455c-2.94897,0.19383 -4.24814,2.7365 -6.7115,3.51308c-1.67218,0.52716 -3.72639,-0.84492 -5.41482,-0.69888c-2.50177,0.21639 -4.92994,2.36592 -7.37506,3.12545c-1.08049,0.60153 -2.36586,0.82479 -3.37613,1.53799c-0.53651,0.37876 -0.88681,1.53552 -1.65921,1.78855c-2.76289,0.90511 -5.70895,-1.22406 -8.5047,-0.53046c-1.88988,0.46885 -4.13114,2.06173 -6.16809,1.4679c-2.1058,-0.61391 -4.17402,-1.23683 -6.12254,-2.26371c-1.591,-0.83846 -2.17773,-1.69071 -4.05488,-2.03703c-1.59655,0.09828 -3.15016,0.73512 -4.71232,1.47461c-8.62231,-11.13306 -12.88176,-27.15578 -7.7738,-39.86217c9.81616,-24.41835 24.18307,-51.84003 45.72742,-48.07043c23.74342,4.15437 24.66597,33.65125 24.95342,59.96719z" fill="#000000" stroke="#000000" stroke-width="0"/><g stroke="none"><path d="M348.27868,211.64282c-1.3207,-0.22229 -1.09841,-1.54299 -1.09841,-1.54299l0.03705,-0.22012c0.25821,-1.52205 0.7778,-3.37763 0.32023,-4.9559c-0.36907,-1.27304 -2.21976,-1.57101 -2.98518,-2.74256c-0.1551,-0.23739 -1.07412,-3.35111 -1.07798,-3.59455c-0.00636,-0.40219 0.52961,-0.72567 0.44959,-1.11986c-0.11003,-0.54192 -0.71734,-0.85771 -0.95267,-1.35811c-0.28452,-0.605 -0.39189,-1.27844 -0.58783,-1.91765c-0.61616,-1.05083 -1.85747,-1.8086 -2.07707,-3.0068c-0.40008,-2.18298 1.01515,-5.88564 1.4548,-8.05805c0.12297,-0.6076 0.4724,-1.74631 0.13481,-2.44117c-1.0223,-2.10411 -3.16046,-3.70187 -3.4098,-6.18885c-0.21271,-2.12148 1.67931,-3.51998 2.79697,-4.8094c1.01448,-1.1704 1.11397,-3.2917 0.72214,-4.68157c-0.23633,-0.83833 -0.52877,-1.31323 -0.91747,-1.7318c-0.72828,2.48579 -1.46149,5.214 -2.73093,7.16378c-1.00789,1.54807 -3.60293,3.03916 -5.13049,3.95851c-0.48088,0.28941 -1.72542,0.55492 -2.09679,1.20762c-1.5879,2.79072 0.34904,3.62429 0.37108,6.4898c0.02367,3.07617 -4.2872,6.89985 -6.75698,8.35709c-0.26524,0.70446 0.49827,1.42767 0.62791,2.16916c0.18569,1.06219 -0.05621,3.05455 -0.70248,4.02524c-1.53901,2.31158 -4.57933,2.97111 -5.85847,5.60594c-0.15921,0.32795 -0.15195,2.34167 -0.15334,2.40357l0.03465,1.06331c0,0 0.04103,1.33864 -1.29761,1.37969c-1.33864,0.04103 -1.37969,-1.29761 -1.37969,-1.29761l-0.0351,-1.21196c0.08564,-3.18632 1.07596,-5.10606 3.57932,-7.27005c0.88987,-0.76925 2.15582,-1.13765 2.84003,-2.09446c1.08942,-1.52345 -0.45747,-2.85882 -0.48908,-4.2769c-0.01688,-0.75701 0.48554,-1.43444 0.72832,-2.15164c2.0565,-1.4012 4.63469,-3.62662 6.06438,-5.73912c0.86651,-1.28036 -0.91553,-3.3065 -1.07177,-4.35214c-0.16846,-1.12733 0.79583,-3.83474 1.29239,-4.61859c1.54698,-2.44193 5.65077,-2.58667 7.17404,-5.08568c0.94275,-1.54665 1.56751,-3.53859 2.14044,-5.49548c-1.78565,-0.05172 -3.47485,-0.90133 -4.78458,-2.8925c-0.453,-0.68871 -0.82884,-1.43099 -1.14201,-2.19352c-0.15385,-0.37459 0.01392,-0.88003 -0.24739,-1.18939c-0.46188,-0.54684 -1.42485,0.13952 -2.13588,0.22218c-1.41525,0.16452 -3.38152,0.74634 -4.79156,0.36974c-3.14739,-0.8406 -3.16279,-2.81659 -3.63826,-5.53781c-0.10088,-0.5773 -0.47663,-1.11047 -0.46208,-1.69634c0.01784,-0.71821 1.10453,-3.36787 1.33069,-3.95637c0.15366,-0.9356 0.7313,-1.84298 0.59558,-2.78135c-0.10229,-0.70719 -1.17308,-0.81961 -1.71975,-1.27976c-0.7731,-0.65074 -2.315,-2.08719 -2.52759,-3.10746c-0.29637,-1.42236 0.54292,-3.31659 1.69728,-4.15021c0.50153,-0.36219 1.24655,-0.19187 1.79152,-0.48468c2.48541,-1.33542 4.47504,-5.02433 0.67533,-6.47521c-0.93356,-0.35645 -1.9639,-0.39184 -2.91659,-0.69347c0,0 -1.276,-0.40684 -0.86916,-1.68283c0.40685,-1.27599 1.68284,-0.86916 1.68284,-0.86916c1.02729,0.33014 2.15362,0.34503 3.14248,0.77684c3.20064,1.3977 5.03366,5.57498 2.82415,8.52747c-0.38511,0.5146 -3.22564,2.74802 -3.34589,2.81449c-0.49501,0.27361 -2.49114,0.25065 -2.07147,1.63668c0.57124,1.88661 3.66439,2.19782 4.21018,4.24378c0.10986,0.41186 -0.48424,3.64621 -0.58414,4.22758c-0.41222,1.08983 -1.24094,2.10421 -1.23693,3.2694c0.00141,0.40793 0.33987,0.75127 0.40969,1.15319c0.13239,0.76225 0.01613,1.55966 0.19237,2.31298c0.2486,1.06253 1.51802,1.20133 2.36482,1.11305c1.9183,-0.2 5.3951,-1.40577 7.09275,-0.01415c0.61517,0.5043 0.64433,1.45488 0.98871,2.17192c0.83891,1.74673 2.28938,3.75609 4.21307,3.67708c0.12379,-0.39315 0.25049,-0.77516 0.38274,-1.14129c0,0 0.13418,-0.37149 0.45854,-0.63812l-0.7058,-0.71085c0,0 -0.89243,-0.99862 0.10619,-1.89105c0.99862,-0.89243 1.89105,0.1062 1.89105,0.1062l1.15955,1.37981c0.03165,0.3415 0.11863,0.62839 0.25138,0.86765l0.40836,-0.36606c0.12361,-0.11278 0.26774,-0.20202 0.42471,-0.26225c0.36979,-0.15815 0.93334,-0.23633 1.46195,0.3416c0.00919,0.00995 0.01822,0.02003 0.0271,0.03024c0.43867,0.49971 0.40608,0.97195 0.2654,1.31782c1.75192,-0.02774 3.86235,-0.71062 4.9504,-1.04295c0.58473,-0.1786 1.07586,-0.58805 1.64518,-0.81096c0.64913,-0.25417 1.33068,-0.41632 1.99865,-0.61575c0.61049,-0.18227 2.96815,-0.81799 2.58141,-1.96421c-0.35282,-1.04572 -1.26213,-1.82638 -1.71061,-2.83478c-0.35515,-2.42432 0.09695,-7.53457 2.60272,-8.91831c1.41295,-0.78026 2.74657,0.15232 4.18792,-1.06366c1.77385,-1.49649 0.28984,-4.00781 1.22765,-5.76781c0.30544,-0.57322 1.09675,-0.69844 1.6168,-1.08757c2.91994,-2.18474 6.1736,-1.63561 9.57962,-2.68663c0,0 1.28068,-0.3918 1.6725,0.88889c0.39181,1.28069 -0.88889,1.67249 -0.88889,1.67249c-1.68845,0.51263 -3.42027,0.86565 -5.18371,1.0327c-0.82911,0.07854 -1.69503,-0.18328 -2.48647,0.25332c-0.45445,0.25069 -0.72772,0.75197 -1.16157,1.03681c-0.25565,0.16785 -0.72561,0.02557 -0.8684,0.296c-0.41004,0.77661 0.2629,1.7682 0.10695,2.63244c-0.2522,1.39758 -0.72378,2.74095 -1.81989,3.71786c-0.80948,0.72145 -2.52765,1.50214 -3.63896,1.6425c-0.38738,0.04893 -0.78455,-0.27257 -1.1598,-0.16457c-0.20131,0.05794 -0.20111,0.37135 -0.25854,0.57281c-0.45072,1.58138 -1.2482,3.53862 -0.9598,5.18159c0.49915,1.10177 1.64713,1.95755 1.78517,3.1592c0.55586,4.83883 -7.45589,6.10839 -10.68867,6.87151c-1.4302,0.33761 -3.12439,0.64765 -4.62476,0.49328c1.63335,2.74559 1.86986,6.11854 -0.31553,8.91009c-0.59705,0.76264 -2.31802,1.60514 -2.13279,2.96227c0.37168,2.72298 3.55829,4.13499 3.54862,7.20772c-0.007,2.22229 -0.87378,4.65412 -1.35555,6.81256c-0.15132,0.67795 -0.57866,1.34428 -0.46961,2.0303c0.06813,0.42867 0.67898,0.55546 0.93622,0.90507c0.39885,0.54209 0.67615,1.16387 1.01421,1.7458c0.43114,1.41208 1.45631,2.6219 1.75036,4.06876c0.10035,0.49373 -0.42388,0.94376 -0.43525,1.44745c-0.01681,0.74544 0.2888,1.4946 0.67425,2.13286c0.60017,0.9938 1.41553,0.66738 2.21964,1.51651c2.0529,2.16781 1.23938,5.485 0.81229,8.04136l-0.03705,0.22012c0,0 -0.22229,1.3207 -1.54299,1.09841z" fill="#000000" stroke-width="0.5"/><path d="M356.61832,83.12343c0.25029,-0.14708 1.13876,-0.57094 1.79963,0.35741c0.7767,1.09106 -0.31437,1.86777 -0.31437,1.86777l-1.38474,0.50423c-0.38589,-0.06835 -0.77178,-0.13669 -1.15766,-0.20503c-1.23344,-0.11291 -1.80711,1.65413 -1.98391,2.73202c-0.32063,1.95478 -0.08917,3.95274 0.80583,5.7926c0.96631,1.98644 1.96419,2.14984 1.83471,4.70393c-0.05774,1.13891 -0.52595,2.22437 -0.91319,3.29697c-1.13572,3.14584 -1.94688,6.08437 -3.40224,9.09853c-0.42865,0.88775 -0.52485,1.94535 -1.10225,2.74437c-1.24093,1.71725 -3.91386,2.96696 -5.41912,4.59382c-0.13424,0.96046 -0.52645,3.35079 -0.38218,4.24258c0.8804,5.44183 6.43627,11.85251 3.85488,17.63238c-0.43024,0.96333 -0.99696,1.89095 -1.72756,2.65208c-0.98331,1.0244 -2.54275,1.3049 -3.65609,2.18622c-1.04619,0.82818 -2.38328,2.14722 -2.78987,3.49948c-0.6159,2.04842 0.45212,4.48244 2.60931,4.71285c0,0 1.3207,0.2223 1.09841,1.543c-0.22229,1.3207 -1.54299,1.09841 -1.54299,1.09841c-3.65163,-0.74027 -5.82859,-4.32487 -4.74611,-8.06921c0.57075,-1.97417 2.16552,-3.64069 3.70542,-4.88208c1.76028,-1.41903 3.63145,-1.52066 4.5514,-3.70737c1.11891,-2.65963 -0.51113,-6.0863 -1.31938,-8.55792c-0.77936,-2.38327 -2.30379,-5.23535 -2.68327,-7.69044c-0.27573,-1.78381 0.29125,-4.08047 0.61031,-5.81297c0.69062,-0.80224 1.30838,-1.67347 2.07185,-2.40674c1.08583,-1.0429 2.78712,-1.43105 3.64349,-2.66934c0.45518,-0.65819 0.46562,-1.53711 0.80572,-2.26149c1.0585,-2.25451 1.82949,-4.15829 2.56701,-6.55428c0.46757,-1.51899 2.0561,-4.32742 1.50862,-6.0592c-0.26806,-0.8479 -1.18964,-1.35063 -1.57968,-2.14979c-0.62521,-1.281 -1.37213,-3.78941 -1.39611,-5.18616c-0.03665,-2.13528 0.931,-5.78236 3.00695,-6.92164c0.61563,-0.33785 1.39236,-0.18437 2.08855,-0.27655c0.31288,0.05051 0.62574,0.10104 0.93862,0.15156z" fill="#000000" stroke-width="0.5"/><path d="M345.42338,128.72938l8.1089,-48.17649l4.91597,0.82744l-8.1089,48.17649z" fill="#000000" stroke-width="0"/><path d="M330.00651,204.27748l6.82371,-40.54089l9.19918,1.54837l-6.82371,40.54089z" fill="#000000" stroke-width="0"/><path d="M333.74724,163.31897l2.35943,-14.0178l14.89391,2.50689l-2.35943,14.0178z" fill="url(#color-37)" stroke-width="0"/><path d="M350.10304,163.72883l5.48258,-32.57304l3.96211,0.66689l-5.48258,32.57304z" data-paper-data="{&quot;index&quot;:null}" fill="url(#color-38)" stroke-width="0"/><path d="M328.9425,161.0849l5.55632,-33.0111l3.96211,0.66689l-5.55632,33.0111z" data-paper-data="{&quot;index&quot;:null}" fill="url(#color-39)" stroke-width="0"/><path d="M328.76404,164.09004l0.72246,-4.29228l24.26949,4.08496l-0.72246,4.29228z" fill="url(#color-40)" stroke-width="0"/><path d="M348.49998,165.10255l19.05893,-33.36504l4.24296,2.42367l-19.05894,33.36506z" fill="url(#color-41)" stroke-width="0"/><path d="M328.85345,163.74729l-7.08644,-37.76574l4.80258,-0.90117l7.08645,37.76574z" data-paper-data="{&quot;index&quot;:null}" fill="url(#color-42)" stroke-width="0"/><path d="M316.90558,127.39136l0.72247,-4.29229l60.40913,10.16786l-0.72247,4.29229z" fill="#000000" stroke-width="0"/><path d="M320.20359,126.02688c-0.32577,1.93547 -2.15885,3.24037 -4.0943,2.9146c-1.93546,-0.32577 -3.24037,-2.15884 -2.91461,-4.09431c0.32577,-1.93547 2.15885,-3.24037 4.09432,-2.91459c1.93546,0.32577 3.24036,2.15885 2.91459,4.09431z" fill="#000000" stroke-width="0"/><path d="M380.44987,136.18413c-0.32577,1.93547 -2.15885,3.24037 -4.0943,2.9146c-1.93546,-0.32577 -3.24036,-2.15885 -2.91459,-4.09431c0.32577,-1.93547 2.15885,-3.24036 4.0943,-2.91459c1.93546,0.32577 3.24036,2.15885 2.91459,4.0943z" fill="#000000" stroke-width="0"/><path d="M317.87349,205.542l0.73567,-4.37075l31.35368,5.27735l-0.73567,4.37075z" fill="#000000" stroke-width="0"/><path d="M322.39267,204.11535c-0.42757,2.54028 -2.8335,4.25296 -5.37376,3.8254c-2.54028,-0.42757 -4.25298,-2.83348 -3.82541,-5.37377c0.42757,-2.54028 2.83349,-4.25297 5.37377,-3.82539c2.54028,0.42757 4.25296,2.8335 3.8254,5.37376z" fill="#000000" stroke-width="0"/><path d="M354.0525,209.67062c-0.42757,2.54028 -2.8335,4.25296 -5.37376,3.8254c-2.54029,-0.42757 -4.25298,-2.83349 -3.82541,-5.37377c0.42757,-2.54028 2.83349,-4.25298 5.37378,-3.8254c2.54029,0.42757 4.25296,2.8335 3.82539,5.37377z" fill="#000000" stroke-width="0"/></g><path d="M375.8392,168.58139c0.07029,6.43527 -1.26808,12.34072 -3.61322,17.55278c-2.45037,-1.50471 -4.86095,-3.04878 -7.75634,-2.89871c-3.00832,0.15593 -4.8868,3.12797 -7.5751,3.93716c-1.54706,0.04195 -3.91594,-0.00851 -5.37384,-0.61405c-2.67968,-1.113 -5.01811,-2.76435 -8.10276,-1.5387c-3.82828,1.52112 -6.52688,5.2328 -10.45927,6.6297c-1.5776,0.56042 -3.21433,0.82255 -4.09459,-0.61573c-3.01114,-2.15721 -4.91941,-1.43686 -8.06698,-0.87726c-0.81882,0.14557 -1.62931,-0.33652 -2.44943,-0.47456c-3.69416,-0.62179 -7.13726,-2.14895 -10.34495,-0.95763c-5.09664,-10.08288 -6.84813,-22.08007 -2.84436,-32.03974c9.81616,-24.41835 24.18307,-51.84003 45.72742,-48.07043c23.74342,4.15437 24.66597,33.65125 24.95342,59.96719zM325.41591,134.22696c0,0 -0.26484,-0.04458 -0.56475,0.03396l-0.49797,0.02993c-0.75557,0.43983 -1.80282,0.07375 -2.57935,0.47542c-1.27346,0.65872 -1.93113,2.83985 -2.75343,3.95605c-1.04045,1.74779 -1.62526,3.11089 -1.24205,5.21369c0.41168,2.25903 2.31546,2.20025 1.45631,4.51203c-1.41765,3.81455 -6.66006,2.22761 -7.56683,6.40531c-0.17075,0.78666 1.77793,3.76289 2.02952,4.11426c0.53874,0.7524 2.26086,1.32356 1.79128,2.12095c-0.54235,0.92097 -1.96197,1.05654 -2.54197,1.95427c-0.12193,0.18873 -0.56773,2.96645 -0.60913,3.21241c-0.40837,2.42619 -1.28834,4.12523 1.82612,5.40151c0.49152,0.20142 1.04744,-0.60747 1.54016,-0.40904c0.49729,0.20028 0.39037,1.0832 0.84383,1.36916c1.09647,0.69146 4.47735,0.95512 5.71017,0.62411c2.19557,-0.58951 3.7658,-2.90547 4.71027,-4.8105c0.16669,-0.33621 -0.04442,-0.84481 0.22852,-1.10235c0.61135,-0.57688 1.73043,-0.04281 2.48891,-0.40507c1.3846,-0.66131 5.3731,-3.14023 5.83021,-4.74964c0.48407,-1.70437 -1.77148,-4.39179 -2.5948,-5.54894c-1.20026,-2.05665 0.3886,-2.31046 1.27806,-4.16821c0.0759,-0.15852 0.65848,-3.53145 0.63974,-3.73205c-0.31662,-3.38922 -4.27224,-3.6435 -5.48889,-6.33878c-0.2711,-0.6006 0.39842,-3.10552 0.41659,-3.77124c0.08006,-2.93549 -1.78628,-3.93879 -4.34925,-4.38702c-0.00082,-0.00014 -0.00124,-0.00022 -0.00124,-0.00022z" fill="url(#color-43)" stroke="#000000" stroke-width="0"/><path d="M325.41849,134.17917c0,0 0.00041,0.00007 0.00124,0.00022c2.56296,0.44824 4.44254,1.45416 4.36248,4.38965c-0.01816,0.66572 -0.6847,3.1718 -0.4136,3.77241c1.21666,2.69528 5.19607,2.97172 5.51268,6.36095c0.01874,0.20059 -0.55923,3.58745 -0.63513,3.74597c-0.88946,1.85775 -2.47958,2.13293 -1.27931,4.18958c0.82331,1.15715 3.07175,3.85913 2.58769,5.56351c-0.4571,1.60941 -4.46599,4.10452 -5.85059,4.76582c-0.75848,0.36226 -1.88588,-0.16919 -2.49723,0.40769c-0.27293,0.25754 -0.06331,0.76644 -0.22999,1.10265c-0.94447,1.90504 -2.52854,4.2215 -4.72409,4.81101c-1.23281,0.33102 -4.62711,0.06388 -5.72358,-0.62758c-0.45346,-0.28595 -0.34951,-1.17025 -0.8468,-1.37053c-0.49271,-0.19843 -1.05112,0.60913 -1.54264,0.4077c-3.11445,-1.27628 -2.24412,-2.98269 -1.83575,-5.40888c0.0414,-0.24596 0.48318,-3.02819 0.60511,-3.21692c0.58,-0.89773 1.99971,-1.0332 2.54206,-1.95417c0.46958,-0.7974 -1.25851,-1.37833 -1.79725,-2.13073c-0.2516,-0.35137 -2.2045,-3.34467 -2.03375,-4.13134c0.90677,-4.1777 6.16494,-2.62913 7.58259,-6.44368c0.85915,-2.31178 -1.03853,-2.25766 -1.4502,-4.51669c-0.3832,-2.1028 0.2119,-3.47091 1.25236,-5.2187c0.82231,-1.11621 1.48933,-3.29953 2.76278,-3.95826c0.77652,-0.40167 1.83009,-0.036 2.58567,-0.47583l0.49918,-0.02991c0.29992,-0.07853 0.5661,-0.03391 0.5661,-0.03391z" data-paper-data="{&quot;noHover&quot;:false,&quot;origItem&quot;:[&quot;Path&quot;,{&quot;applyMatrix&quot;:true,&quot;segments&quot;:[[238.47971,127.12538],[[237.90401,127.25824],[0.29524,-0.13286],[0,0]],[[237.39638,127.37538],[0,0],[-0.70186,0.58391]],[[234.82255,128.31205],[0.73005,-0.54824],[-1.19724,0.89909]],[[232.67275,132.86331],[0.65335,-1.29202],[-0.76852,1.98024]],[[232.29738,138.44771],[-0.75911,-2.09907],[0.81552,2.25502]],[[234.57919,142.84182],[0.48406,-2.52961],[-0.79872,4.17399]],[[227.89705,150.74967],[0.20967,-4.45942],[-0.03948,0.83971]],[[230.70021,154.63479],[-0.32,-0.31823],[0.68521,0.68145]],[[232.91253,156.50848],[0.34536,-0.90256],[-0.39888,1.04243]],[[230.63352,158.96162],[0.44168,-1.02503],[-0.09285,0.21549]],[[230.56305,162.37538],[0,-0.26047],[0,2.5693]],[[233.37987,167.62138],[-3.42852,-0.77448],[0.54108,0.12223]],[[234.89504,166.93318],[-0.5418,-0.11894],[0.54683,0.12005]],[[236.00135,168.19689],[-0.51655,-0.21588],[1.24901,0.52202]],[[241.98992,167.84984],[-1.21219,0.55457],[2.15883,-0.98765]],[[246.00678,162.07948],[-0.64242,2.12554],[0.11338,-0.37512]],[[246.05103,160.90466],[-0.23643,0.31253],[0.52958,-0.70004]],[[248.54392,160.0561],[-0.7183,0.50453],[1.31125,-0.92102]],[[253.72465,154.15429],[-0.19176,1.73662],[0.20307,-1.83909]],[[250.09068,148.88971],[1.04843,1.04894],[-1.59253,-1.90991]],[[250.68434,144.37572],[-0.59396,2.0673],[0.05068,-0.1764]],[[250.69626,140.42153],[0.05407,0.20333],[-0.91352,-3.43537]],[[243.94501,134.84519],[1.72011,2.56474],[-0.38329,-0.57151]],[[243.72033,130.88933],[0.09669,0.68871],[-0.42637,-3.03688]],[[238.48101,127.1254],[2.71706,0.01735],[-0.00087,-0.00001]],[238.4797,127.12539]],&quot;closed&quot;:true,&quot;fillColor&quot;:[0,0,0,1]}]}" fill="#000000" stroke="none" stroke-width="0.5"/></g><path d="M354.18403,91.77033c-22.68246,3.12013 -45.64342,3.00093 -46.88987,-3.15829c-3.48366,-17.21419 -0.97489,-31.11385 9.88799,-42.17832c12.64373,-8.58132 17.02689,-8.97801 28.02681,-10.65993c11.89967,-1.8195 24.24222,-2.80533 31.95636,2.62582c8.61154,4.98577 14.42471,11.85617 18.11168,20.88795c-3.20626,1.11605 -3.16181,5.14857 -5.17128,7.7376c-1.12634,1.45117 -2.65837,-0.1029 -3.77781,2.07233c-0.51709,1.00476 0.1565,2.31861 -0.224,3.38263c-0.29119,0.81428 -1.38766,1.00467 -1.82091,1.62363c-0.59677,0.85256 -0.44473,2.03611 -0.75638,3.02903c-0.46295,1.47499 -1.7476,2.51937 -2.89446,3.41833c-0.22495,1.40644 -0.6237,4.52679 -1.45194,6.28682c-7.43321,2.02286 -16.19373,3.72155 -24.99619,4.9324z" fill="#000000" stroke="#000000" stroke-width="0"/><g><path d="M336.72174,71.26369l-0.62135,-4.19529l29.36705,-4.34942l0.62135,4.19529z" fill="url(#color-44)" stroke="none" stroke-width="0"/><path d="M345.86263,108.95726l-4.02086,-27.14869l2.81007,-0.41618l4.02086,27.1487z" fill="#000000" stroke="none" stroke-width="0"/><path d="M365.50472,105.1587l-3.9068,-26.37848l2.81008,-0.41618l3.9068,26.37848z" data-paper-data="{&quot;index&quot;:null}" fill="#000000" stroke="none" stroke-width="0"/><path d="M338.53856,84.22474l-0.62135,-4.19529l29.36706,-4.34942l0.62135,4.19529z" fill="url(#color-45)" stroke="none" stroke-width="0"/><path d="M366.13917,80.13694l-4.51293,-30.47108l4.63689,-0.68675l4.51293,30.47108z" fill="url(#color-46)" stroke="#000000" stroke-width="0"/><path d="M335.6681,84.64987l-4.51293,-30.47108l4.63691,-0.68675l4.51293,30.47108z" data-paper-data="{&quot;index&quot;:null}" fill="url(#color-47)" stroke="#000000" stroke-width="0"/><g stroke="none" stroke-width="0"><g data-paper-data="{&quot;index&quot;:null}"><path d="M364.4731,90.3336l0.53959,3.64329l-2.87045,0.42513l-0.53959,-3.64329z" fill="#000000"/><path d="M360.49859,90.92225l0.53959,3.64329l-2.87047,0.42513l-0.53959,-3.64329z" fill="url(#color-48)"/><path d="M356.50778,91.40049l0.53959,3.64328l-2.87046,0.42513l-0.53959,-3.64328z" fill="url(#color-49)"/><path d="M352.53328,91.98913l0.53959,3.64328l-2.87047,0.42513l-0.53959,-3.64328z" fill="url(#color-50)"/><path d="M348.6215,92.49326l0.53959,3.64328l-2.87047,0.42513l-0.53959,-3.64328z" fill="#000000"/></g><path d="M365.53897,85.887l0.75215,5.0785l-22.5221,3.33564l-0.75215,-5.0785z" data-paper-data="{&quot;index&quot;:null}" fill="#000000"/></g><path d="M371.45068,99.8776c0.20577,0.14876 0.38101,0.39389 0.44044,0.79513c0.17536,1.18406 -1.0087,1.35943 -1.0087,1.35943l-1.67518,-0.96193c-0.73264,-4.94675 -1.46528,-9.89351 -2.19792,-14.84026c-0.67337,-4.54659 -1.48651,-9.25495 -2.66608,-13.68365c-0.48805,-1.83236 -1.32517,-4.02494 -1.19234,-5.97964c0.17125,-2.52034 1.23823,-5.31615 2.28883,-7.55757c0,0 0.51088,-1.08247 1.59336,-0.57159c0.52531,0.24793 0.67538,0.63047 0.6907,0.9586c1.33581,1.85719 2.73971,3.05127 3.36671,5.4303c0.91293,3.464 -0.16881,7.07207 -0.04048,10.59871c0.13715,3.76885 1.12738,7.45749 2.47571,10.93308c2.66416,2.56999 3.09575,5.4234 2.34071,8.98276c-0.34669,1.63435 -0.99045,2.89182 -0.26421,4.48865l0.41772,0.817c0,0 0.5408,1.06784 -0.52704,1.60863c-1.06785,0.5408 -1.60864,-0.52703 -1.60864,-0.52703l-0.49438,-0.98398c-1.309,-3.37721 0.91819,-6.29833 0.46045,-9.71929c-0.18657,-1.3943 -1.40397,-2.41356 -2.31214,-3.33231c-1.64719,-3.81839 -2.7267,-7.95852 -2.87935,-12.15184c-0.12054,-3.31145 0.97381,-6.85299 0.12411,-10.07694c-0.38798,-1.47208 -1.14491,-2.40824 -1.98031,-3.40772c-2.49168,7.78409 1.40149,15.90105 2.57479,23.8231c0.69108,4.66613 1.38216,9.33224 2.07323,13.99837z" fill="#000000" stroke="none" stroke-width="0.5"/><g fill="#000000" stroke="#000000" stroke-width="2"><g><path d="M365.27219,42.70903c7.8656,-1.16494 15.18628,4.26702 16.35122,12.13262c1.16494,7.8656 -4.26703,15.1863 -12.13262,16.35123c-7.8656,1.16494 -15.18629,-4.26703 -16.35122,-12.13263c-1.16494,-7.8656 4.26702,-15.18628 12.13262,-16.35122z"/></g><g data-paper-data="{&quot;index&quot;:null}"><path d="M347.37197,59.33398c1.16494,7.8656 -4.26702,15.18628 -12.13262,16.35122c-7.8656,1.16494 -15.18628,-4.26702 -16.35122,-12.13262c-1.16494,-7.8656 4.26702,-15.18628 12.13262,-16.35122c7.8656,-1.16494 15.18628,4.26702 16.35122,12.13262z"/></g></g></g><g><g stroke-width="0"><g fill="#000000" stroke="none"><g><path d="M362.58629,109.0368l0.5139,-3.64698l2.87338,0.40489l-0.5139,3.64698z"/><path d="M358.60774,108.47617l0.51391,-3.64698l2.8734,0.40489l-0.51391,3.64698z"/><path d="M354.61365,108.02606l0.5139,-3.64699l2.87339,0.40489l-0.5139,3.64699z"/><path d="M350.63511,107.46543l0.51391,-3.64699l2.87341,0.40489l-0.51391,3.64699z"/><path d="M346.71986,106.98886l0.51391,-3.64699l2.8734,0.40489l-0.51391,3.64699z"/></g><path d="M344.01181,110.70378l0.71636,-5.08367l22.54506,3.17688l-0.71636,5.08367z"/></g><path d="M312.92693,79.26222c0.50651,-2.36008 -3.1405,-1.33053 6.12128,-1.28165c8.84998,0.04672 7.87302,28.94594 36.11419,32.69272c32.45622,4.30597 34.03363,-24.49616 42.32092,-22.14735c8.58769,2.43395 7.9759,1.14916 7.61307,3.7241c-2.93419,20.82284 -19.51874,35.2205 -51.43203,30.88199c-30.089,-4.30725 -45.15182,-23.30109 -40.73743,-43.86979z" data-paper-data="{&quot;index&quot;:null}" fill="url(#color-51)" stroke="#000000"/></g><g><g fill="none" stroke="none" stroke-width="1" font-family="sans-serif" font-weight="normal" font-size="12" text-anchor="start"><g/></g><path d="M324.31241,82.97646c0.36458,-1.50858 6.21661,24.68132 30.88695,28.00834c28.35243,3.82358 38.42521,-22.27473 38.19242,-20.62273c-1.88248,13.35931 -11.23478,29.71924 -38.86627,25.61707c-26.2732,-3.90053 -33.39049,-19.85507 -30.21311,-33.00268z" data-paper-data="{&quot;index&quot;:null}" fill="url(#color-52)" stroke="#000000" stroke-width="0"/></g></g><g stroke="#000000" stroke-width="0"><path d="M353.54965,91.29961c-22.68246,3.12013 -45.64342,3.00093 -46.88987,-3.15829c-3.48366,-17.21419 -1.46927,-31.27581 9.88799,-42.17832c12.87184,-10.30916 20.61415,-9.2673 28.70217,-11.00197c7.67213,-0.95137 23.56686,-2.4633 31.28099,2.96785c7.60214,4.40136 13.02347,10.27144 16.72645,17.80061c-0.53308,0.28435 -1.00681,0.60618 -1.36413,0.96092c-0.73604,0.73069 -0.66089,2.00424 -1.28127,2.83536c-0.51563,0.69077 -1.80708,0.05793 -2.53242,0.52368c-0.59809,0.38405 -1.01478,1.03638 -1.30859,1.68358c-0.62227,1.3707 0.08906,3.01803 -0.06784,4.33797c-0.08191,0.68915 -2.41421,1.15097 -2.74561,1.3905c-1.77383,1.28214 -2.20062,3.13679 -2.80604,5.10228c0.09805,0.72911 1.05642,1.77732 0.4309,2.16452c-0.37247,0.23057 -1.08817,-0.16373 -1.29524,0.2223c-0.44557,0.83066 -0.30045,1.86635 -0.3305,2.80849c-0.08137,2.55046 0.36568,5.3204 0.8133,7.98144c-7.87687,2.2992 -17.52313,4.22517 -27.22027,5.5591zM333.07533,73.70191c6.5394,-0.96852 11.05549,-7.05489 10.08697,-13.59429c-0.96852,-6.5394 -7.05489,-11.05549 -13.59429,-10.08697c-6.5394,0.96852 -11.05549,7.05489 -10.08697,13.59429c0.96852,6.5394 7.05489,11.05549 13.59429,10.08697zM369.37779,68.80934c6.5394,-0.96852 11.05549,-7.05489 10.08697,-13.59429c-0.96852,-6.5394 -7.05489,-11.05549 -13.59429,-10.08697c-6.5394,0.96852 -11.05549,7.05489 -10.08697,13.59429c0.96852,6.5394 7.05489,11.05549 13.59429,10.08697z" fill="url(#color-53)"/><path d="M365.92383,78.84244c1.31094,8.85139 -3.63822,16.91726 -11.05425,18.0156c-7.41603,1.09836 -14.49063,-5.18673 -15.80157,-14.03812c-1.31094,-8.85139 3.63821,-16.91726 11.05424,-18.01561c7.41603,-1.09836 14.49064,5.18672 15.80159,14.03813z" fill="url(#color-54)"/></g><g fill="#000000" stroke-width="0"><path d="M274.9651,217.6076l0.62195,-8.78779l2.67454,0.18929l-0.62195,8.78779z" stroke="none"/><path d="M274.3364,226.49092l0.62195,-8.78779l2.67454,0.18929l-0.62195,8.78779z" stroke="none"/><path d="M274.22886,218.51546l0.08789,-1.24175l3.9163,0.27717l-0.08789,1.24175z" stroke="none"/><path d="M267.11225,217.33983l0.62195,-8.78779l2.67454,0.18929l-0.62195,8.78779z" stroke="none"/><path d="M266.48351,226.2231l0.62195,-8.78779l2.67454,0.18929l-0.62195,8.78779z" stroke="none"/><path d="M266.376,218.24769l0.08789,-1.24175l3.9163,0.27717l-0.08789,1.24175z" stroke="none"/><path d="M259.87304,216.53948l0.62195,-8.78779l2.67454,0.18929l-0.62195,8.78779z" stroke="none"/><path d="M259.24435,225.42275l0.62195,-8.78779l2.67454,0.18929l-0.62195,8.78779z" stroke="none"/><path d="M259.13681,217.44733l0.08789,-1.24175l3.9163,0.27717l-0.08789,1.24175z" stroke="none"/><path d="M280.69169,209.64999l-6.08566,-3.11337l0.94755,-1.85216l6.08566,3.11337z" stroke="none"/><path d="M286.8435,212.7972l-6.08566,-3.11337l0.94755,-1.85216l6.08566,3.11337z" stroke="none"/><path d="M281.11629,210.45142l-0.85993,-0.43993l1.38749,-2.71209l0.85993,0.43993z" stroke="none"/><path d="M259.15453,209.73677l2.35031,-8.79347l16.23829,1.14926l1.75702,9.08415z" stroke="#000000"/></g><g stroke="none" stroke-width="0"><path d="M332.94172,62.25852c0.14281,0.96427 -0.50671,1.8593 -1.45073,1.99911c-0.94403,0.13982 -1.82509,-0.52853 -1.9679,-1.4928c-0.14281,-0.96427 0.50671,-1.8593 1.45073,-1.99911c0.94403,-0.13982 1.82509,0.52853 1.9679,1.4928zM331.44456,64.01633c0.82719,-0.12251 1.39844,-0.89239 1.27593,-1.71958c-0.12251,-0.82719 -0.89239,-1.39844 -1.71958,-1.27593c-0.82719,0.12251 -1.39844,0.89239 -1.27593,1.71958c0.12251,0.82719 0.89239,1.39844 1.71958,1.27593z" fill="#ffffff"/><path d="M334.02222,62.09849c0.23309,1.57379 -0.82701,3.03458 -2.36778,3.26278c-1.54077,0.22819 -2.97877,-0.86263 -3.21186,-2.43641c-0.23309,-1.57379 0.82701,-3.03459 2.36777,-3.26279c1.54077,-0.22819 2.97877,0.86263 3.21186,2.43642z" fill="url(#color-55)"/></g><g stroke="none" stroke-width="0"><path d="M369.12668,56.89934c0.14281,0.96427 -0.50671,1.8593 -1.45073,1.99911c-0.94403,0.13982 -1.82509,-0.52853 -1.9679,-1.4928c-0.14281,-0.96427 0.50671,-1.8593 1.45073,-1.99911c0.94403,-0.13982 1.82509,0.52853 1.9679,1.4928zM367.62952,58.65714c0.82719,-0.12251 1.39844,-0.89239 1.27593,-1.71958c-0.12251,-0.82719 -0.89239,-1.39844 -1.71958,-1.27593c-0.82719,0.12251 -1.39844,0.89239 -1.27593,1.71958c0.12251,0.82719 0.89239,1.39844 1.71958,1.27593z" fill="#ffffff"/><path d="M370.20718,56.73931c0.23309,1.57379 -0.82701,3.03458 -2.36778,3.26278c-1.54077,0.22819 -2.97877,-0.86263 -3.21186,-2.43641c-0.23309,-1.57379 0.82701,-3.03459 2.36777,-3.26279c1.54077,-0.22819 2.97877,0.86263 3.21186,2.43642z" fill="url(#color-56)"/></g></g><text transform="translate(395.33333,49.14446) scale(0.48984,0.48984)" font-size="40" xml:space="preserve" fill="#00ff6a" fill-rule="nonzero" stroke="none" stroke-width="1" stroke-linecap="butt" stroke-linejoin="miter" stroke-miterlimit="10" stroke-dasharray="" stroke-dashoffset="0" font-family="&quot; Pro W3&quot;, &quot;Hiragino Kaku Gothic Pro&quot;, Osaka, &quot;&quot;, Meiryo, &quot; &quot;, &quot;MS PGothic&quot;" font-weight="normal" text-anchor="start" style="mix-blend-mode: normal"><tspan x="0" dy="0">NEW</tspan></text><path d="M135,326v-292h126v292z" fill="#00471e" stroke="#d3ffcd" stroke-width="1.5"/><text transform="translate(376.4308,60.09649) scale(0.21213,0.21213)" font-size="40" xml:space="preserve" fill="#00b94d" fill-rule="nonzero" stroke="none" stroke-width="1" stroke-linecap="butt" stroke-linejoin="miter" stroke-miterlimit="10" stroke-dasharray="" stroke-dashoffset="0" font-family="&quot; Pro W3&quot;, &quot;Hiragino Kaku Gothic Pro&quot;, Osaka, &quot;&quot;, Meiryo, &quot; &quot;, &quot;MS PGothic&quot;" font-weight="normal" text-anchor="start" style="mix-blend-mode: normal"><tspan x="0" dy="0">SCROLL TO TOGGLE</tspan></text><text transform="translate(139.83333,69.32718) scale(0.24889,0.24889)" font-size="40" xml:space="preserve" fill="#00ff6a" fill-rule="nonzero" stroke="none" stroke-width="1" stroke-linecap="butt" stroke-linejoin="miter" stroke-miterlimit="10" stroke-dasharray="" stroke-dashoffset="0" font-family="&quot; Pro W3&quot;, &quot;Hiragino Kaku Gothic Pro&quot;, Osaka, &quot;&quot;, Meiryo, &quot; &quot;, &quot;MS PGothic&quot;" font-weight="normal" text-anchor="start" style="mix-blend-mode: normal"><tspan x="0" dy="0">A shadowy figure who</tspan><tspan x="0" dy="48px">takes the form of Withered</tspan><tspan x="0" dy="48px">Grover. Once you start</tspan><tspan x="0" dy="48px">staring at him, he'll make</tspan><tspan x="0" dy="48px">sure you don't STOP</tspan><tspan x="0" dy="48px">staring.</tspan></text><text transform="translate(149,50.96602) scale(0.3083,0.3083)" font-size="40" xml:space="preserve" fill="#00ff6a" fill-rule="nonzero" stroke="none" stroke-width="1" stroke-linecap="butt" stroke-linejoin="miter" stroke-miterlimit="10" stroke-dasharray="" stroke-dashoffset="0" font-family="&quot; Pro W3&quot;, &quot;Hiragino Kaku Gothic Pro&quot;, Osaka, &quot;&quot;, Meiryo, &quot; &quot;, &quot;MS PGothic&quot;" font-weight="normal" text-anchor="start" style="mix-blend-mode: normal"><tspan x="0" dy="0">EDIOLON GROVER</tspan></text><text transform="translate(346.4308,323.09649) scale(0.21213,0.21213)" font-size="40" xml:space="preserve" fill="#00b94d" fill-rule="nonzero" stroke="none" stroke-width="1" stroke-linecap="butt" stroke-linejoin="miter" stroke-miterlimit="10" stroke-dasharray="" stroke-dashoffset="0" font-family="&quot; Pro W3&quot;, &quot;Hiragino Kaku Gothic Pro&quot;, Osaka, &quot;&quot;, Meiryo, &quot; &quot;, &quot;MS PGothic&quot;" font-weight="normal" text-anchor="start" style="mix-blend-mode: normal"><tspan x="0" dy="0">CLICK TO SEE NEXT IMAGE</tspan></text></g></g></svg>