<svg version="1.1" xmlns="http://www.w3.org/2000/svg" xmlns:xlink="http://www.w3.org/1999/xlink" width="369.49195" height="364.56456" viewBox="0,0,369.49195,364.56456"><defs><radialGradient cx="341.69886" cy="12.06642" r="184.74594" gradientUnits="userSpaceOnUse" id="color-1"><stop offset="0" stop-color="#a9a9a9"/><stop offset="1" stop-color="#8d8d8d"/></radialGradient><radialGradient cx="335.1556" cy="25.57993" r="130.06127" gradientUnits="userSpaceOnUse" id="color-2"><stop offset="0" stop-color="#414141"/><stop offset="1" stop-color="#0a0a0a"/></radialGradient><radialGradient cx="46.50634" cy="173.05391" r="128.02749" gradientUnits="userSpaceOnUse" id="color-3"><stop offset="0" stop-color="#434343"/><stop offset="1" stop-color="#272727"/></radialGradient><radialGradient cx="54.04766" cy="36.24931" r="35.1456" gradientUnits="userSpaceOnUse" id="color-4"><stop offset="0" stop-color="#626262"/><stop offset="1" stop-color="#4f4f4f"/></radialGradient><radialGradient cx="54.04766" cy="67.91598" r="35.1456" gradientUnits="userSpaceOnUse" id="color-5"><stop offset="0" stop-color="#626262"/><stop offset="1" stop-color="#4f4f4f"/></radialGradient><radialGradient cx="54.04766" cy="100.41598" r="35.1456" gradientUnits="userSpaceOnUse" id="color-6"><stop offset="0" stop-color="#626262"/><stop offset="1" stop-color="#4f4f4f"/></radialGradient><radialGradient cx="53.56619" cy="37.6729" r="33.10818" gradientUnits="userSpaceOnUse" id="color-7"><stop offset="0" stop-color="#575757"/><stop offset="1" stop-color="#434343"/></radialGradient><radialGradient cx="53.56619" cy="69.33956" r="33.10818" gradientUnits="userSpaceOnUse" id="color-8"><stop offset="0" stop-color="#575757"/><stop offset="1" stop-color="#434343"/></radialGradient><radialGradient cx="53.56619" cy="101.83957" r="33.10818" gradientUnits="userSpaceOnUse" id="color-9"><stop offset="0" stop-color="#575757"/><stop offset="1" stop-color="#434343"/></radialGradient><radialGradient cx="27.94311" cy="45.41597" r="8.5317" gradientUnits="userSpaceOnUse" id="color-10"><stop offset="0" stop-color="#c3c3c3" stop-opacity="0"/><stop offset="1" stop-color="#c3c3c3"/></radialGradient><radialGradient cx="58.12249" cy="43.2493" r="9.1684" gradientUnits="userSpaceOnUse" id="color-11"><stop offset="0" stop-color="#c3c3c3" stop-opacity="0"/><stop offset="1" stop-color="#c3c3c3"/></radialGradient><radialGradient cx="18.50325" cy="75.02987" r="8.5317" gradientUnits="userSpaceOnUse" id="color-12"><stop offset="0" stop-color="#c3c3c3" stop-opacity="0"/><stop offset="1" stop-color="#c3c3c3"/></radialGradient><radialGradient cx="70.85735" cy="75.59637" r="9.1684" gradientUnits="userSpaceOnUse" id="color-13"><stop offset="0" stop-color="#c3c3c3" stop-opacity="0"/><stop offset="1" stop-color="#c3c3c3"/></radialGradient><radialGradient cx="23.46948" cy="108.02987" r="8.5317" gradientUnits="userSpaceOnUse" id="color-14"><stop offset="0" stop-color="#c3c3c3" stop-opacity="0"/><stop offset="1" stop-color="#c3c3c3"/></radialGradient><radialGradient cx="67.41916" cy="108.59638" r="9.1684" gradientUnits="userSpaceOnUse" id="color-15"><stop offset="0" stop-color="#c3c3c3" stop-opacity="0"/><stop offset="1" stop-color="#c3c3c3"/></radialGradient></defs><g transform="translate(3.30453,2.28228)"><g data-paper-data="{&quot;isPaintingLayer&quot;:true}" fill-rule="nonzero" stroke="none" stroke-linecap="butt" stroke-linejoin="miter" stroke-miterlimit="10" stroke-dasharray="" stroke-dashoffset="0" style="mix-blend-mode: normal"><path d="M-3.30453,362.28228v-364.56456h369.49195v364.56456z" fill="url(#color-1)" stroke-width="0"/><path d="M91.15132,347.56756v-335.13513h260.12248v335.13513z" fill="url(#color-2)" stroke-width="0"/><path d="M7.78895,347.56756v-335.13513h75.80882v335.13513z" fill="url(#color-3)" stroke-width="0"/><path d="M10.59667,58.15624v-27h70.29119v27z" fill="url(#color-4)" stroke-width="0"/><path d="M10.59667,89.82291v-27h70.29119v27z" fill="url(#color-5)" stroke-width="0"/><path d="M10.59667,122.32291v-27h70.29119v27z" fill="url(#color-6)" stroke-width="0"/><path d="M12.6341,55.87019v-22.42792h66.21635v22.42792z" fill="url(#color-7)" stroke-width="0"/><path d="M12.6341,87.53686v-22.42792h66.21635v22.42792z" fill="url(#color-8)" stroke-width="0"/><path d="M12.6341,120.03686v-22.42792h66.21635v22.42792z" fill="url(#color-9)" stroke-width="0"/><path d="M26.85644,53.49522l-0.62196,-15.6455l36.87847,-2.51151l0.62196,15.6455z" fill="#efefef" stroke-width="0"/><path d="M17.51534,83.07736l-0.46384,-15.69732l60.14276,1.70617l0.46384,15.69732z" fill="#efefef" stroke-width="0"/><path d="M21.73531,119.30082l-1.83717,-15.06502l52.69409,-6.87306l1.83717,15.06502z" fill="#efefef" stroke-width="0"/><text transform="translate(38.43672,49.70252) rotate(-3.89659) scale(0.20507,0.3552) skewX(-2.81707)" font-size="40" xml:space="preserve" fill="#000000" fill-rule="nonzero" stroke="none" stroke-width="1" stroke-linecap="butt" stroke-linejoin="miter" stroke-miterlimit="10" stroke-dasharray="" stroke-dashoffset="0" font-family="Handwriting" font-weight="normal" text-anchor="start" style="mix-blend-mode: normal"><tspan x="0" dy="0">A/C</tspan></text><text transform="translate(24.94291,80.74227) rotate(-0.179) scale(0.20486,0.35553) skewX(-0.13061)" font-size="40" xml:space="preserve" fill="#000000" fill-rule="nonzero" stroke="none" stroke-width="1" stroke-linecap="butt" stroke-linejoin="miter" stroke-miterlimit="10" stroke-dasharray="" stroke-dashoffset="0" font-family="Handwriting" font-weight="normal" text-anchor="start" style="mix-blend-mode: normal"><tspan x="0" dy="0">CAMERAS</tspan></text><text transform="translate(25.45631,116.49176) rotate(-8.59674) scale(0.20583,0.35388) skewX(-6.10726)" font-size="40" xml:space="preserve" fill="#000000" fill-rule="nonzero" stroke="none" stroke-width="1" stroke-linecap="butt" stroke-linejoin="miter" stroke-miterlimit="10" stroke-dasharray="" stroke-dashoffset="0" font-family="Handwriting" font-weight="normal" text-anchor="start" style="mix-blend-mode: normal"><tspan x="0" dy="0">VENT SEAL</tspan></text><path d="M23.44934,55.78235l2.70087,-22.05179l6.28671,1.31904l-2.70087,22.05179z" fill="url(#color-10)" stroke-width="0"/><path d="M56.71345,55.76325l-3.20034,-23.63164l6.01848,-1.39625l3.20034,23.63164z" fill="url(#color-11)" stroke-width="0"/><path d="M15.08568,86.07737l0.47062,-22.32483l6.36452,0.22985l-0.47062,22.32484z" fill="url(#color-12)" stroke-width="0"/><path d="M67.06367,87.23019l1.49545,-23.92005l6.0919,0.65243l-1.49545,23.92006z" fill="url(#color-13)" stroke-width="0"/><path d="M16.98432,116.397l7.19746,-20.24932l5.77283,3.51506l-7.19746,20.24931z" fill="url(#color-14)" stroke-width="0"/><path d="M69.71776,120.88252l-9.76964,-20.30998l5.17249,-4.2623l9.76964,20.30999z" fill="url(#color-15)" stroke-width="0"/></g></g></svg>