<svg version="1.1" xmlns="http://www.w3.org/2000/svg" xmlns:xlink="http://www.w3.org/1999/xlink" width="467.08955" height="364.56456" viewBox="0,0,467.08955,364.56456"><defs><radialGradient cx="434.32955" cy="12.06642" r="233.54473" gradientUnits="userSpaceOnUse" id="color-1"><stop offset="0" stop-color="#a9a9a9"/><stop offset="1" stop-color="#8d8d8d"/></radialGradient><radialGradient cx="426.05795" cy="25.57993" r="164.41565" gradientUnits="userSpaceOnUse" id="color-2"><stop offset="0" stop-color="#414141"/><stop offset="1" stop-color="#0a0a0a"/></radialGradient><radialGradient cx="61.16488" cy="173.05391" r="161.84467" gradientUnits="userSpaceOnUse" id="color-3"><stop offset="0" stop-color="#434343"/><stop offset="1" stop-color="#272727"/></radialGradient><radialGradient cx="70.69817" cy="36.24931" r="44.42896" gradientUnits="userSpaceOnUse" id="color-4"><stop offset="0" stop-color="#626262"/><stop offset="1" stop-color="#4f4f4f"/></radialGradient><radialGradient cx="70.69817" cy="67.91598" r="44.42896" gradientUnits="userSpaceOnUse" id="color-5"><stop offset="0" stop-color="#626262"/><stop offset="1" stop-color="#4f4f4f"/></radialGradient><radialGradient cx="70.69817" cy="100.41598" r="44.42896" gradientUnits="userSpaceOnUse" id="color-6"><stop offset="0" stop-color="#626262"/><stop offset="1" stop-color="#4f4f4f"/></radialGradient><radialGradient cx="70.08952" cy="37.6729" r="41.85337" gradientUnits="userSpaceOnUse" id="color-7"><stop offset="0" stop-color="#575757"/><stop offset="1" stop-color="#434343"/></radialGradient><radialGradient cx="70.08952" cy="69.33956" r="41.85337" gradientUnits="userSpaceOnUse" id="color-8"><stop offset="0" stop-color="#575757"/><stop offset="1" stop-color="#434343"/></radialGradient><radialGradient cx="70.08952" cy="101.83957" r="41.85337" gradientUnits="userSpaceOnUse" id="color-9"><stop offset="0" stop-color="#575757"/><stop offset="1" stop-color="#434343"/></radialGradient><radialGradient cx="37.69836" cy="45.41597" r="10.78526" gradientUnits="userSpaceOnUse" id="color-10"><stop offset="0" stop-color="#c3c3c3" stop-opacity="0"/><stop offset="1" stop-color="#c3c3c3"/></radialGradient><radialGradient cx="75.84932" cy="43.2493" r="11.59014" gradientUnits="userSpaceOnUse" id="color-11"><stop offset="0" stop-color="#c3c3c3" stop-opacity="0"/><stop offset="1" stop-color="#c3c3c3"/></radialGradient><radialGradient cx="25.76506" cy="75.02987" r="10.78526" gradientUnits="userSpaceOnUse" id="color-12"><stop offset="0" stop-color="#c3c3c3" stop-opacity="0"/><stop offset="1" stop-color="#c3c3c3"/></radialGradient><radialGradient cx="91.94797" cy="75.59637" r="11.59014" gradientUnits="userSpaceOnUse" id="color-13"><stop offset="0" stop-color="#c3c3c3" stop-opacity="0"/><stop offset="1" stop-color="#c3c3c3"/></radialGradient><radialGradient cx="32.04307" cy="108.02987" r="10.78526" gradientUnits="userSpaceOnUse" id="color-14"><stop offset="0" stop-color="#c3c3c3" stop-opacity="0"/><stop offset="1" stop-color="#c3c3c3"/></radialGradient><radialGradient cx="87.60161" cy="108.59638" r="11.59014" gradientUnits="userSpaceOnUse" id="color-15"><stop offset="0" stop-color="#c3c3c3" stop-opacity="0"/><stop offset="1" stop-color="#c3c3c3"/></radialGradient></defs><g transform="translate(1.80303,2.28228)"><g data-paper-data="{&quot;isPaintingLayer&quot;:true}" fill-rule="nonzero" stroke="none" stroke-linecap="butt" stroke-linejoin="miter" stroke-miterlimit="10" stroke-dasharray="" stroke-dashoffset="0" style="mix-blend-mode: normal"><path d="M-1.80303,362.28228v-364.56456h467.08955v364.56456z" fill="url(#color-1)" stroke-width="0"/><path d="M117.60239,347.56756v-335.13513h328.83123v335.13513z" fill="url(#color-2)" stroke-width="0"/><path d="M12.22068,347.56756v-335.13513h95.83296v335.13513z" fill="url(#color-3)" stroke-width="0"/><path d="M15.77003,58.15624v-27h88.8579v27z" fill="url(#color-4)" stroke-width="0"/><path d="M15.77003,89.82291v-27h88.8579v27z" fill="url(#color-5)" stroke-width="0"/><path d="M15.77003,122.32291v-27h88.8579v27z" fill="url(#color-6)" stroke-width="0"/><path d="M18.34563,55.87019v-22.42792h83.70674v22.42792z" fill="url(#color-7)" stroke-width="0"/><path d="M18.34563,87.53686v-22.42792h83.70674v22.42792z" fill="url(#color-8)" stroke-width="0"/><path d="M18.34563,120.03686v-22.42792h83.70674v22.42792z" fill="url(#color-9)" stroke-width="0"/><path d="M36.32466,53.49522l-0.78624,-15.6455l46.61955,-2.51151l0.78624,15.6455z" fill="#efefef" stroke-width="0"/><path d="M24.5162,83.07736l-0.58636,-15.69732l76.02887,1.70617l0.58636,15.69732z" fill="#efefef" stroke-width="0"/><path d="M29.85083,119.30082l-2.32244,-15.06502l66.61271,-6.87306l2.32244,15.06502z" fill="#efefef" stroke-width="0"/><text transform="translate(50.96375,49.70252) rotate(-3.08418) scale(0.25901,0.35551) skewX(-0.29694)" font-size="40" xml:space="preserve" fill="#000000" fill-rule="nonzero" stroke="none" stroke-width="1" stroke-linecap="butt" stroke-linejoin="miter" stroke-miterlimit="10" stroke-dasharray="" stroke-dashoffset="0" font-family="Handwriting" font-weight="normal" text-anchor="start" style="mix-blend-mode: normal"><tspan x="0" dy="0">A/C</tspan></text><text transform="translate(33.90569,80.74227) rotate(-0.1416) scale(0.25897,0.35553) skewX(-0.01435)" font-size="40" xml:space="preserve" fill="#000000" fill-rule="nonzero" stroke="none" stroke-width="1" stroke-linecap="butt" stroke-linejoin="miter" stroke-miterlimit="10" stroke-dasharray="" stroke-dashoffset="0" font-family="Handwriting" font-weight="normal" text-anchor="start" style="mix-blend-mode: normal"><tspan x="0" dy="0">CAMERAS</tspan></text><text transform="translate(34.5547,116.49176) rotate(-6.81957) scale(0.25911,0.35537) skewX(-0.63585)" font-size="40" xml:space="preserve" fill="#000000" fill-rule="nonzero" stroke="none" stroke-width="1" stroke-linecap="butt" stroke-linejoin="miter" stroke-miterlimit="10" stroke-dasharray="" stroke-dashoffset="0" font-family="Handwriting" font-weight="normal" text-anchor="start" style="mix-blend-mode: normal"><tspan x="0" dy="0">VENT SEAL</tspan></text><path d="M32.01761,55.78235l3.41428,-22.05179l7.94728,1.31904l-3.41428,22.05179z" fill="url(#color-10)" stroke-width="0"/><path d="M74.0681,55.76325l-4.04568,-23.63164l7.6082,-1.39625l4.04568,23.63164z" fill="url(#color-11)" stroke-width="0"/><path d="M21.44477,86.07737l0.59493,-22.32483l8.04564,0.22985l-0.59493,22.32484z" fill="url(#color-12)" stroke-width="0"/><path d="M87.15223,87.23019l1.89046,-23.92005l7.70101,0.65243l-1.89046,23.92006z" fill="url(#color-13)" stroke-width="0"/><path d="M23.84492,116.397l9.0986,-20.24932l7.29767,3.51506l-9.0986,20.24931z" fill="url(#color-14)" stroke-width="0"/><path d="M90.50737,120.88252l-12.35019,-20.30998l6.53875,-4.2623l12.35019,20.30999z" fill="url(#color-15)" stroke-width="0"/></g></g></svg>