<svg version="1.1" xmlns="http://www.w3.org/2000/svg" xmlns:xlink="http://www.w3.org/1999/xlink" width="807.60051" height="470.54875" viewBox="0,0,807.60051,470.54875"><defs><linearGradient x1="356.61673" y1="148.8958" x2="478.40374" y2="148.8958" gradientUnits="userSpaceOnUse" id="color-1"><stop offset="0" stop-color="#3b4437"/><stop offset="1" stop-color="#3a4336"/></linearGradient><linearGradient x1="425.1171" y1="102.76162" x2="425.1171" y2="273.26345" gradientUnits="userSpaceOnUse" id="color-2"><stop offset="0" stop-color="#171717"/><stop offset="1" stop-color="#171717" stop-opacity="0"/></linearGradient><linearGradient x1="364.55712" y1="187.92043" x2="373.12731" y2="187.92043" gradientUnits="userSpaceOnUse" id="color-3"><stop offset="0" stop-color="#7a7a7a"/><stop offset="1" stop-color="#bdbdbd"/></linearGradient><linearGradient x1="463.27756" y1="40.72846" x2="462.74441" y2="32.17486" gradientUnits="userSpaceOnUse" id="color-4"><stop offset="0" stop-color="#7a7a7a"/><stop offset="1" stop-color="#bdbdbd"/></linearGradient><linearGradient x1="312.74669" y1="126.69977" x2="357.85299" y2="126.69977" gradientUnits="userSpaceOnUse" id="color-5"><stop offset="0" stop-color="#535353"/><stop offset="1" stop-color="#2b2b2b"/></linearGradient><linearGradient x1="313.9495" y1="173.76069" x2="359.05583" y2="173.76069" gradientUnits="userSpaceOnUse" id="color-6"><stop offset="0" stop-color="#656565"/><stop offset="1" stop-color="#2b2b2b"/></linearGradient><linearGradient x1="201.88775" y1="163.96143" x2="116.53197" y2="163.96143" gradientUnits="userSpaceOnUse" id="color-7"><stop offset="0" stop-color="#222720"/><stop offset="1" stop-color="#2d342a"/></linearGradient><linearGradient x1="237.02382" y1="12.09796" x2="237.02382" y2="182.59978" gradientUnits="userSpaceOnUse" id="color-8"><stop offset="0" stop-color="#171717"/><stop offset="1" stop-color="#171717" stop-opacity="0"/></linearGradient><linearGradient x1="185.93616" y1="127.02692" x2="194.50636" y2="127.02692" gradientUnits="userSpaceOnUse" id="color-9"><stop offset="0" stop-color="#7a7a7a"/><stop offset="1" stop-color="#bdbdbd"/></linearGradient><linearGradient x1="276.59982" y1="127.02692" x2="285.17002" y2="127.02692" gradientUnits="userSpaceOnUse" id="color-10"><stop offset="0" stop-color="#7a7a7a"/><stop offset="1" stop-color="#bdbdbd"/></linearGradient><linearGradient x1="221.13331" y1="31.81679" x2="221.13331" y2="40.387" gradientUnits="userSpaceOnUse" id="color-11"><stop offset="0" stop-color="#7a7a7a"/><stop offset="1" stop-color="#bdbdbd"/></linearGradient><linearGradient x1="-37.86965" y1="170.16931" x2="311.45082" y2="170.16931" gradientUnits="userSpaceOnUse" id="color-12"><stop offset="0" stop-color="#343c31"/><stop offset="1" stop-color="#1c201a"/></linearGradient><linearGradient x1="-167.96816" y1="184.29314" x2="171.42902" y2="184.29314" gradientUnits="userSpaceOnUse" id="color-13"><stop offset="0" stop-color="#343c31"/><stop offset="1" stop-color="#1c201a"/></linearGradient><linearGradient x1="300.23521" y1="150.01231" x2="639.63244" y2="150.01231" gradientUnits="userSpaceOnUse" id="color-14"><stop offset="0" stop-color="#343c31"/><stop offset="1" stop-color="#1c201a"/></linearGradient><linearGradient x1="167.05367" y1="169.68902" x2="188.33618" y2="169.68902" gradientUnits="userSpaceOnUse" id="color-15"><stop offset="0" stop-color="#6e6e6e"/><stop offset="1" stop-color="#525252"/></linearGradient><linearGradient x1="177.80284" y1="178.17355" x2="177.80284" y2="183.99613" gradientUnits="userSpaceOnUse" id="color-16"><stop offset="0" stop-color="#9c9c9c"/><stop offset="1" stop-color="#767676"/></linearGradient><linearGradient x1="178.00361" y1="157.2926" x2="178.00361" y2="163.11517" gradientUnits="userSpaceOnUse" id="color-17"><stop offset="0" stop-color="#9c9c9c"/><stop offset="1" stop-color="#767676"/></linearGradient><linearGradient x1="178.00361" y1="134.40386" x2="178.00361" y2="140.22641" gradientUnits="userSpaceOnUse" id="color-18"><stop offset="0" stop-color="#9c9c9c"/><stop offset="1" stop-color="#767676"/></linearGradient><linearGradient x1="178.20439" y1="113.52291" x2="178.20439" y2="119.34545" gradientUnits="userSpaceOnUse" id="color-19"><stop offset="0" stop-color="#9c9c9c"/><stop offset="1" stop-color="#767676"/></linearGradient><linearGradient x1="177.80284" y1="92.84275" x2="177.80284" y2="98.66532" gradientUnits="userSpaceOnUse" id="color-20"><stop offset="0" stop-color="#9c9c9c"/><stop offset="1" stop-color="#767676"/></linearGradient><linearGradient x1="178.00361" y1="71.96178" x2="178.00361" y2="77.78437" gradientUnits="userSpaceOnUse" id="color-21"><stop offset="0" stop-color="#9c9c9c"/><stop offset="1" stop-color="#767676"/></linearGradient><linearGradient x1="177.80284" y1="49.07306" x2="177.80284" y2="54.89564" gradientUnits="userSpaceOnUse" id="color-22"><stop offset="0" stop-color="#9c9c9c"/><stop offset="1" stop-color="#767676"/></linearGradient><linearGradient x1="178.00361" y1="28.19212" x2="178.00361" y2="34.01468" gradientUnits="userSpaceOnUse" id="color-23"><stop offset="0" stop-color="#9c9c9c"/><stop offset="1" stop-color="#767676"/></linearGradient><linearGradient x1="207.04341" y1="4.34656" x2="207.04341" y2="25.62906" gradientUnits="userSpaceOnUse" id="color-24"><stop offset="0" stop-color="#6e6e6e"/><stop offset="1" stop-color="#525252"/></linearGradient><linearGradient x1="198.55887" y1="15.09572" x2="192.7363" y2="15.09572" gradientUnits="userSpaceOnUse" id="color-25"><stop offset="0" stop-color="#9c9c9c"/><stop offset="1" stop-color="#767676"/></linearGradient><linearGradient x1="218.5377" y1="15.2965" x2="212.71513" y2="15.2965" gradientUnits="userSpaceOnUse" id="color-26"><stop offset="0" stop-color="#9c9c9c"/><stop offset="1" stop-color="#767676"/></linearGradient><linearGradient x1="238.72004" y1="15.2965" x2="232.89749" y2="15.2965" gradientUnits="userSpaceOnUse" id="color-27"><stop offset="0" stop-color="#9c9c9c"/><stop offset="1" stop-color="#767676"/></linearGradient><linearGradient x1="273.62518" y1="15.49728" x2="279.44778" y2="15.49728" gradientUnits="userSpaceOnUse" id="color-28"><stop offset="0" stop-color="#9c9c9c"/><stop offset="1" stop-color="#767676"/></linearGradient><linearGradient x1="295.80892" y1="15.39644" x2="301.63146" y2="15.39644" gradientUnits="userSpaceOnUse" id="color-29"><stop offset="0" stop-color="#9c9c9c"/><stop offset="1" stop-color="#767676"/></linearGradient><linearGradient x1="253.64639" y1="15.29651" x2="259.46893" y2="15.29651" gradientUnits="userSpaceOnUse" id="color-30"><stop offset="0" stop-color="#9c9c9c"/><stop offset="1" stop-color="#767676"/></linearGradient></defs><g transform="translate(167.96816,59.73663)"><g data-paper-data="{&quot;isPaintingLayer&quot;:true}" fill-rule="nonzero" stroke-linejoin="miter" stroke-miterlimit="10" stroke-dasharray="" stroke-dashoffset="0" style="mix-blend-mode: normal"><path d="M141.68321,404.9307l150.39226,-211.73683l130.29316,0.63475l158.20567,216.98351z" fill="#7f7f7f" stroke="none" stroke-width="NaN" stroke-linecap="butt"/><path d="M356.61673,272.93811v-248.08465h121.78701v248.08465z" fill="url(#color-1)" stroke="none" stroke-width="0" stroke-linecap="butt"/><path d="M366.92997,273.26345l-1.80425,-253.49741l121.78701,-6.31488l-10.82551,365.36104z" fill="url(#color-2)" stroke="none" stroke-width="0" stroke-linecap="butt"/><path d="M364.55712,270.93625l1.35319,-234.72158l7.44254,1.69188l-0.22553,242.78427z" fill="url(#color-3)" stroke="none" stroke-width="0" stroke-linecap="butt"/><path d="M546.13257,35.56403l-234.35112,13.25149l1.22561,-7.53337l242.32804,-14.87855z" fill="url(#color-4)" stroke="none" stroke-width="0" stroke-linecap="butt"/><path d="M312.74669,163.08552v-72.7715h45.1063v72.7715z" fill="url(#color-5)" stroke="none" stroke-width="0" stroke-linecap="butt"/><path d="M313.9495,190.75073v-33.98008h45.1063v33.98008z" fill="url(#color-6)" stroke="none" stroke-width="0" stroke-linecap="butt"/><g stroke="none" stroke-linecap="butt"><path d="M195.01697,342.76118v-357.5995h117.47143v357.5995z" data-paper-data="{&quot;index&quot;:null}" fill="#151814" stroke-width="0"/><path d="M116.53199,342.76118v-357.5995h85.35574v357.5995z" data-paper-data="{&quot;index&quot;:null}" fill="url(#color-7)" stroke-width="0"/><path d="M60.49188,347.19463l141.10526,-211.73683l94.16692,0.63475l-4.82909,189.91973z" fill="#7f7f7f" stroke-width="NaN"/></g><path d="M178.83669,182.59978v-170.50182h116.37426v170.50182z" fill="url(#color-8)" stroke="none" stroke-width="0" stroke-linecap="butt"/><path d="M185.93616,212.74912l1.35319,-237.42796l7.21701,1.69188v237.14598z" fill="url(#color-9)" stroke="none" stroke-width="0" stroke-linecap="butt"/><path d="M276.59982,212.74912l1.35319,-237.42796l7.21701,1.69188v237.14598z" fill="url(#color-10)" stroke="none" stroke-width="0" stroke-linecap="butt"/><path d="M145.12466,31.81679l210.52394,1.35319l-1.50017,7.21701h-210.27391z" fill="url(#color-11)" stroke="none" stroke-width="0" stroke-linecap="butt"/><path d="M-37.86965,348.96905v-357.5995h349.32052v357.5995zM189.95645,266.48233l93.37004,-56.83394l-1.35319,-172.30607h-91.11473z" fill="url(#color-12)" stroke="none" stroke-width="0" stroke-linecap="butt"/><path d="M-167.96816,363.09288v-357.5995h339.39714v357.5995z" fill="url(#color-13)" stroke="none" stroke-width="0" stroke-linecap="butt"/><path d="M300.23521,328.8121v-357.5995h339.39714v357.5995zM348.1969,188.13832l1.20283,-77.50766l-33.37866,-8.49502v55.02969zM455.39954,389.75827c4.98231,0 -0.90213,-354.53552 -0.90213,-354.53552l-87.50622,5.41276l-0.90213,255.30166c0,0 84.32817,93.82111 89.31048,93.82111z" fill="url(#color-14)" stroke="none" stroke-width="0" stroke-linecap="butt"/><path d="M19.89621,394.10518l150.39226,-211.73683l130.29316,0.63475l158.20567,216.98351z" fill="#7f7f7f" stroke="none" stroke-width="NaN" stroke-linecap="butt"/><g><path d="M171.07809,18.70156l-0.80312,171.06316" fill="none" stroke="#909090" stroke-width="2" stroke-linecap="round"/><path d="M167.05367,189.64472v-192.99361h21.28251v193.17404c0,0 0.38864,3.95726 -10.84203,4.09111c-10.58299,0.12614 -10.44048,-4.27154 -10.44048,-4.27154z" fill="url(#color-15)" stroke="none" stroke-width="0" stroke-linecap="butt"/><path d="M166.35847,182.38989v-4.01557c0,0 7.27372,1.60623 11.01413,1.60623c3.88377,0 11.8746,-1.807 11.8746,-1.807v3.81478c0,0 -7.99083,2.00778 -11.8746,2.00778c-3.74041,0 -11.01413,-1.60623 -11.01413,-1.60623z" fill="url(#color-16)" stroke="none" stroke-width="0" stroke-linecap="butt"/><path d="M166.55921,161.50895v-4.01557c0,0 7.27372,1.60623 11.01413,1.60623c3.88377,0 11.8746,-1.807 11.8746,-1.807v3.81478c0,0 -7.99083,2.00778 -11.8746,2.00778c-3.74041,0 -11.01413,-1.60623 -11.01413,-1.60623z" fill="url(#color-17)" stroke="none" stroke-width="0" stroke-linecap="butt"/><path d="M166.55921,138.62021v-4.01557c0,0 7.27372,1.60623 11.01413,1.60623c3.88377,0 11.8746,-1.807 11.8746,-1.807v3.81478c0,0 -7.99083,2.00778 -11.8746,2.00778c-3.74041,0 -11.01413,-1.60623 -11.01413,-1.60623z" fill="url(#color-18)" stroke="none" stroke-width="0" stroke-linecap="butt"/><path d="M166.76002,117.73926v-4.01557c0,0 7.27372,1.60623 11.01413,1.60623c3.88377,0 11.8746,-1.807 11.8746,-1.807v3.81478c0,0 -7.99083,2.00778 -11.8746,2.00778c-3.74041,0 -11.01413,-1.60623 -11.01413,-1.60623z" fill="url(#color-19)" stroke="none" stroke-width="0" stroke-linecap="butt"/><path d="M166.35847,97.05909v-4.01557c0,0 7.27372,1.60623 11.01413,1.60623c3.88377,0 11.8746,-1.807 11.8746,-1.807v3.81478c0,0 -7.99083,2.00778 -11.8746,2.00778c-3.74041,0 -11.01413,-1.60623 -11.01413,-1.60623z" fill="url(#color-20)" stroke="none" stroke-width="0" stroke-linecap="butt"/><path d="M166.55921,76.17814v-4.01557c0,0 7.27372,1.60623 11.01413,1.60623c3.88377,0 11.8746,-1.807 11.8746,-1.807v3.81478c0,0 -7.99083,2.00778 -11.8746,2.00778c-3.74041,0 -11.01413,-1.60623 -11.01413,-1.60623z" fill="url(#color-21)" stroke="none" stroke-width="0" stroke-linecap="butt"/><path d="M166.35847,53.28941v-4.01557c0,0 7.27372,1.60623 11.01413,1.60623c3.88377,0 11.8746,-1.807 11.8746,-1.807v3.81478c0,0 -7.99083,2.00778 -11.8746,2.00778c-3.74041,0 -11.01413,-1.60623 -11.01413,-1.60623z" fill="url(#color-22)" stroke="none" stroke-width="0" stroke-linecap="butt"/><path d="M166.55921,32.40847v-4.01557c0,0 7.27372,1.60623 11.01413,1.60623c3.88377,0 11.8746,-1.807 11.8746,-1.807v3.81478c0,0 -7.99083,2.00778 -11.8746,2.00778c-3.74041,0 -11.01413,-1.60623 -11.01413,-1.60623z" fill="url(#color-23)" stroke="none" stroke-width="0" stroke-linecap="butt"/></g><path d="M187.0877,4.34656h120.983c0,0 7.81843,-0.24886 8.11913,10.4896c0.31884,11.38596 -8.11913,10.79291 -8.11913,10.79291h-121.16343c0,0 -3.95726,0.38864 -4.09111,-10.84203c-0.12614,-10.58299 4.27154,-10.44048 4.27154,-10.44048z" fill="url(#color-24)" stroke="none" stroke-width="0" stroke-linecap="butt"/><path d="M194.34253,3.65135h4.01557c0,0 -1.60623,7.27372 -1.60623,11.01413c0,3.88377 1.807,11.8746 1.807,11.8746h-3.81478c0,0 -2.00778,-7.99083 -2.00778,-11.8746c0,-3.74041 1.60623,-11.01413 1.60623,-11.01413z" fill="url(#color-25)" stroke="none" stroke-width="0" stroke-linecap="butt"/><path d="M214.32136,3.85213h4.01557c0,0 -1.60623,7.27372 -1.60623,11.01413c0,3.88377 1.807,11.8746 1.807,11.8746h-3.81478c0,0 -2.00778,-7.99083 -2.00778,-11.8746c0,-3.74041 1.60623,-11.01413 1.60623,-11.01413z" fill="url(#color-26)" stroke="none" stroke-width="0" stroke-linecap="butt"/><path d="M234.50371,3.85213h4.01557c0,0 -0.34325,7.27372 -0.34325,11.01413c0,3.88377 0.54403,11.8746 0.54403,11.8746h-3.81478c0,0 -1.10565,-7.99083 -1.10565,-11.8746c0,-3.74041 0.7041,-11.01413 0.7041,-11.01413z" fill="url(#color-27)" stroke="none" stroke-width="0" stroke-linecap="butt"/><path d="M277.84154,4.0529c0,0 1.60623,7.27372 1.60623,11.01413c0,3.88377 -2.00778,11.8746 -2.00778,11.8746h-3.81478c0,0 1.807,-7.99083 1.807,-11.8746c0,-3.74041 -1.60623,-11.01413 -1.60623,-11.01413h4.01557z" data-paper-data="{&quot;index&quot;:null}" fill="url(#color-28)" stroke="none" stroke-width="0" stroke-linecap="butt"/><path d="M300.02525,3.95207c0,0 1.60623,7.27372 1.60623,11.01413c0,3.88377 -2.00778,11.8746 -2.00778,11.8746h-3.81478c0,0 1.807,-7.99083 1.807,-11.8746c0,-3.74041 -1.60623,-11.01413 -1.60623,-11.01413h4.01557z" data-paper-data="{&quot;index&quot;:null}" fill="url(#color-29)" stroke="none" stroke-width="0" stroke-linecap="butt"/><path d="M257.86271,3.85215c0,0 0.88453,7.27372 0.88453,11.01413c0,3.88377 -1.28608,11.8746 -1.28608,11.8746h-3.81478c0,0 1.0853,-7.99083 1.0853,-11.8746c0,-3.74041 -0.88453,-11.01413 -0.88453,-11.01413h4.01557z" data-paper-data="{&quot;index&quot;:null}" fill="url(#color-30)" stroke="none" stroke-width="0" stroke-linecap="butt"/><g stroke="none" stroke-width="0" stroke-linecap="butt"><path d="M105.63134,274.2913v-56.84439h63.19758v56.84439z" fill="#8e7d6a"/><path d="M168.49455,274.2913v-56.84439l23.74089,-36.44728v56.84439z" fill="#9f8c77"/><path d="M129.70661,181.66841l62.52883,-0.33438l-23.74089,36.44728h-62.86321z" fill="#988672"/></g><g stroke="none" stroke-width="0" stroke-linecap="butt"><path d="M116.90792,211.1425v-38.19233h42.46088v38.19233z" fill="#8e7d6a"/><path d="M159.14413,211.14252v-38.19233l15.95091,-24.48802v38.19233z" fill="#9f8c77"/><path d="M133.08349,148.91147l42.01156,-0.22466l-15.95091,24.48802h-42.23621z" fill="#988672"/></g><path d="M145.39007,223.28955c-4.74101,0 -4.74101,-4.74101 -4.74101,-4.74101v-4.75524c0.1203,-2.5559 1.30949,-5.29131 0.36089,-7.66771c-0.99526,-2.4933 -4.57575,-3.2547 -5.69491,-5.69491c-1.84157,-4.01538 -0.48558,-14.33695 -0.36089,-18.89901c0.06846,-2.50502 -0.68868,-5.23363 0.36089,-7.50921c0.53022,-1.14958 1.4434,-2.03147 2.43388,-2.86344c-0.01271,-0.01475 -0.02536,-0.02959 -0.03793,-0.04451c-1.78254,-2.11456 -1.45192,-5.34776 -2.4508,-7.92672c-1.03987,-2.68478 -5.27211,-9.54702 -5.87412,-11.97633c-1.7683,-7.13563 -0.12683,-16.51786 -0.12683,-23.86887c0,-1.81856 -0.09112,-12.2241 0.36089,-13.20411c1.22605,-2.6582 4.5434,-3.8585 6.04208,-6.3731c1.53665,-2.57829 1.30072,-5.9701 2.84745,-8.54236c2.1526,-3.57983 5.92107,-6.04731 7.90664,-9.72242c-2.97883,-21.46143 -5.11801,-43.05443 -7.57824,-64.58139c-1.28722,-11.26314 -3.24293,-22.66657 -3.87625,-33.98469c-0.50445,-9.01511 1.57007,-19.09895 0.05355,-27.98469c-0.85667,-5.01947 -2.86037,-9.90486 -2.90867,-14.99668l-1.45885,0.50495c0,0 -3.3524,-3.3524 0,-6.7048c3.3524,-3.3524 6.7048,0 6.7048,0l4.23606,6.19985c-0.0569,4.58725 2.04818,8.94998 2.78623,13.47783c0.03676,0.22555 0.07147,0.45169 0.10419,0.67838c0.67779,-0.93503 1.82309,-1.72502 3.75837,-1.72502c4.74101,0 4.74101,4.74101 4.74101,4.74101c-0.16762,6.08704 2.84276,8.54901 4.74969,13.42393c6.35421,-10.03456 14.98929,-17.69029 24.49105,-25.60843c0,0 3.64214,-3.03512 6.67726,0.60702c3.03512,3.64214 -0.60702,6.67726 -0.60702,6.67726c-11.44802,9.54002 -21.24506,18.20496 -27.13702,32.3596c-1.37183,3.29562 -5.20976,13.92625 -1.02021,17.59488c2.08212,1.82323 5.74345,0.69932 7.96207,2.35375c7.12424,5.31253 9.9408,14.33337 12.9978,21.96395c0.76148,1.90073 5.6262,10.63559 5.92896,12.11485c0.64383,3.14561 0.10026,6.42091 0.12683,9.63161c0.02954,3.56935 0.0642,15.08423 -0.70807,16.72975c-0.9749,2.07727 -4.01977,2.21436 -6.02966,3.32154c-0.66742,2.92807 -0.44948,6.21362 -2.00227,8.78419c-1.26527,2.09458 -3.74629,3.11582 -5.66473,4.67027c0.10045,1.16143 0.15864,2.33127 0.16747,3.51113c0,9.99993 0.01924,20.19024 -3.03998,29.81188c-0.79335,2.49516 -4.79105,9.17789 -5.86325,11.86675c-1.97087,4.94247 -3.23177,10.24299 -5.97447,14.80259c-0.63379,1.05363 -1.42819,2.01463 -2.21237,2.97897c0.00975,3.59892 0.00539,7.65283 0.00539,8.87864c0,4.35358 0,8.70717 0,13.06075c0.54826,1.40136 1.10157,2.80437 1.95255,4.0118c1.5838,2.2472 4.23941,3.59845 5.80679,5.85713c2.59367,3.73764 1.49609,9.41495 4.39486,12.92127c0.66785,0.80783 2.02464,-0.54342 3.03695,-0.81513c0,0 4.74101,0 4.74101,4.74101c0,4.74101 -4.74101,4.74101 -4.74101,4.74101c-2.78429,-0.27171 -6.23738,1.0154 -8.35285,-0.81513c-4.22999,-3.66025 -3.68393,-10.71604 -6.8383,-15.3304c0,2.24559 0,4.49119 0,6.73678c0,7.80879 -0.73354,10.99492 2.72062,17.90324c0.07775,4.15918 0.12683,8.31916 0.12683,12.47906v2.84745c0,0 0,4.74101 -4.74101,4.74101c-4.74101,0 -4.74101,-4.74101 -4.74101,-4.74101v-2.84745c0,-1.87861 0.00967,-3.75739 0.03391,-5.63593c-0.66689,0.98204 -1.82479,1.83458 -3.83525,1.83458zM144.18484,153.72344c0.59692,-1.50034 1.47874,-2.8512 2.42918,-4.16769c-0.04917,-0.45084 -0.11298,-0.90042 -0.19416,-1.34853c-0.48236,-2.66281 -2.41198,-4.93181 -2.84745,-7.60269c-0.68966,-4.22984 -1.24522,-18.05546 0.05845,-22.83743c1.40651,-5.15918 6.44104,-11.13436 9.04847,-15.49624c3.09349,-5.17501 6.2865,-10.8595 10.133,-15.69758c-0.71354,-3.68884 -1.94985,-7.12856 -3.19639,-11.40244c-3.34358,-11.46369 -6.68715,-22.92737 -10.03073,-34.39106c2.19542,16.8059 4.55898,33.60104 6.16841,50.37108c-1.22334,2.54731 -2.04498,5.33007 -3.67,7.64191c-1.48064,2.10643 -4.18559,3.20612 -5.50807,5.41528c-1.54166,2.5753 -1.29489,5.97362 -2.84745,8.54236c-1.26428,2.09178 -4.1527,2.8846 -5.34772,5.01671c-1.56168,2.78629 0.36089,6.3814 0.36089,9.5755c0,6.57107 -1.72252,15.38792 -0.12683,21.69035c0.81906,3.235 3.11912,5.89452 4.66036,8.86623c0.1461,-1.44428 0.38622,-2.85914 0.91004,-4.17576zM149.25264,-1.46462c0.0147,-0.0734 0.02918,-0.14877 0.04347,-0.22603c0.67753,-3.66383 0.89283,-11.57109 0.02214,-15.01c-0.77762,-3.07133 -2.99826,-5.6078 -4.49915,-8.41002c-0.23634,5.23081 -0.67049,10.49496 -0.3906,15.50601c0.32609,5.83831 0.78356,11.67703 1.33378,17.51558c1.30014,-2.89428 2.77642,-5.8087 3.49036,-9.37556zM155.24721,131.31071c1.51821,-3.7843 4.30414,-7.02292 5.52655,-10.91287c1.79661,-5.71717 2.37933,-11.60471 2.56714,-17.53671c-0.83348,1.40781 -1.64906,2.80704 -2.46049,4.169c-0.39597,0.66463 -7.35987,10.49648 -8.03624,12.97827c-0.99362,3.64583 -0.57457,14.19657 -0.04184,18.23267c0.80923,-2.31247 1.53623,-4.66551 2.44487,-6.93038zM152.93086,18.55649c3.15515,15.06995 8.81903,30.06652 13.13283,44.85666c1.54769,5.30637 3.37898,10.51909 4.75824,15.80693c1.3056,-2.70921 1.4011,-5.93089 2.19191,-8.85811c1.78671,-0.79112 4.41546,-0.66287 5.36014,-2.37337c0.9816,-1.77733 -0.58588,-4.02316 -0.70807,-6.04986c-0.11424,-1.89486 -0.01831,-3.79669 0,-5.69491c0.02397,-2.48461 0.59931,-5.0137 0.12683,-7.45309c-0.75945,-3.92098 -3.97958,-6.95575 -5.46084,-10.66476c-2.18311,-5.46641 -4.46377,-14.07306 -9.7818,-17.90035c-2.62848,-1.89167 -6.93191,-0.9562 -9.12263,-3.34116c-0.22152,-0.24116 -0.42892,-0.49208 -0.62353,-0.75169c-0.06831,0.83439 -0.03597,1.64563 0.12693,2.42371zM144.07528,177.65109c-0.63517,1.13325 0.31196,2.58241 0.36089,3.88059c0.14299,3.79391 0.14299,7.59589 0,11.3898c-0.04893,1.2982 -0.99309,2.74568 -0.36089,3.88059c0.51233,0.91971 1.36002,1.60499 2.25561,2.25076c0.00703,-0.75533 0.01307,-1.53501 0.01307,-2.34425c0,-6.79424 0,-13.58846 0,-20.3827c-0.03331,-0.03711 -0.06714,-0.07388 -0.10152,-0.11028c-0.13757,-0.14564 -0.28188,-0.28306 -0.43209,-0.41327c-0.69173,0.52724 -1.31841,1.10535 -1.73507,1.84874z" fill="#000000" stroke="none" stroke-width="0.5" stroke-linecap="butt"/><path d="M99.83085,132.17112c-4.74101,0 -4.74101,-4.74101 -4.74101,-4.74101l0.50052,-4.96769c3.98318,-7.50971 3.9512,-19.63203 0,-27.08148c-1.87626,-3.76792 -4.7937,-7.00711 -6.33309,-10.92475c-0.54651,-1.39083 -0.99572,-2.79932 -1.36384,-4.22193c-0.15221,1.809 -0.06664,3.69082 -0.30547,5.47329c-8.81633,10.25761 -8.46777,26.19121 -8.57411,39.09264c-0.04336,5.25953 -1.2632,10.62763 -0.19589,15.7779c0.43067,2.07821 2.3327,3.6359 2.84745,5.69491c0.46041,1.84162 -0.4558,3.85213 0,5.69491c0.46389,1.87547 2.05255,3.31194 2.67979,5.13929c1.68836,4.91872 2.85287,10.37523 3.13499,15.62556c0.27871,5.18704 1.15656,10.54784 -0.11988,15.58308c-1.39339,5.49655 -6.546,9.38079 -8.65754,14.64339c-1.09304,2.7242 0.19599,5.87096 0.11518,8.80515l2.47376,4.66392c0,0 2.12024,4.24049 -2.12024,6.36073c-4.24049,2.12024 -6.36073,-2.12024 -6.36073,-2.12024l-3.22115,-6.72588c-0.0281,-1.50312 -0.35511,-12.66528 0.11518,-13.97446c1.82521,-5.08084 7.15144,-8.58528 8.42717,-13.83112c1.01546,-4.17563 0.08561,-8.59902 -0.11988,-12.89143c-0.34339,-7.17265 -3.92036,-12.54393 -5.57502,-19.09946c-0.46458,-1.84057 0.46041,-3.85328 0,-5.69491c-0.51475,-2.05899 -2.44363,-3.61131 -2.84745,-5.69491c-0.25545,-1.31804 -0.07352,-16.09962 -0.05745,-18.0349c0.08874,-10.68077 0.55829,-18.98017 3.5048,-29.24749c1.37454,-4.78969 2.5876,-10.02824 5.93302,-13.72129c0.45638,-3.17552 -0.06149,-6.65506 1.36914,-9.52657c1.21539,-2.43948 4.22573,-3.53925 5.98537,-5.60263c-0.06795,-5.0551 0.22299,-10.14724 0.22299,-15.13517c0,-3.00693 -0.22911,-6.57786 -0.33563,-10.20269c-1.0334,-3.33476 -2.99222,-6.6257 -4.76077,-9.95575c-0.37475,2.45373 -1.0935,4.95196 -2.4457,7.73135c-2.69918,5.54806 -8.95405,8.68615 -12.14888,13.96437c-1.68293,2.7804 -1.32699,6.59548 -3.30836,9.17173c-2.80954,3.65308 -8.36624,4.51681 -11.12532,8.20816c-3.01027,4.02741 -2.9618,9.0467 -4.50163,13.63898c-0.84899,2.53197 -2.67115,4.71716 -3.24344,7.32563c-0.50849,2.3177 0.0497,4.74538 0.07454,7.11806c0.9613,4.74331 2.49148,9.41063 2.84745,14.23725c0.10692,1.44969 -1.01943,3.06385 -0.33782,4.34777c1.09496,2.06249 3.75019,2.87627 5.16089,4.73709c2.56435,3.38258 3.16485,7.9815 5.69491,11.3898c1.81071,2.43926 5.27455,3.76864 6.22892,6.65271c1.27452,3.85159 1.23211,8.3056 0,12.17096c-0.81532,2.5578 -4.47134,3.30534 -5.69491,5.69491c-0.75587,1.47618 0.70775,3.38049 0.23406,4.96986c-1.9718,6.61589 -6.78243,13.21274 -8.54236,19.93216c-1.19263,4.55347 0.30523,11.26207 0.12683,15.99544c-0.04893,1.2982 -0.99304,2.74567 -0.36089,3.88059c1.13627,2.04001 3.79095,2.84605 5.16089,4.73709c1.6067,2.21786 2.91583,4.72996 3.61552,7.37776c0.16231,0.61421 0.12683,11.29373 0.12683,12.47906c-0.04227,2.26139 -0.08455,4.52277 -0.12683,6.78416l-3.22115,6.72588c0,0 -2.12024,4.24049 -6.36073,2.12024c-4.24049,-2.12024 -2.12024,-6.36073 -2.12024,-6.36073l2.47376,-4.66392c-0.04227,-1.53521 -0.08455,-3.07043 -0.12683,-4.60564c0,-3.43377 0.8856,-6.95166 0.12683,-10.30055c-1.38087,-6.09455 -5.27783,-4.1521 -8.30829,-10.66476c-1.05722,-2.27203 -0.29242,-5.00418 -0.36089,-7.50921c-0.14497,-5.30407 -1.10635,-13.05917 0.12683,-18.17397c1.63878,-6.79708 6.55803,-13.3222 8.54236,-19.93216c0.61571,-2.05097 -0.70725,-4.49653 0.23406,-6.41994c1.84353,-3.76695 8.7513,-4.89319 5.69491,-10.60865c-1.10116,-2.05917 -3.75019,-2.87627 -5.16089,-4.73709c-2.56435,-3.38258 -3.16485,-7.9815 -5.69491,-11.3898c-1.81071,-2.43926 -4.91543,-3.91348 -6.22892,-6.65271c-1.01609,-2.11903 -0.08294,-4.70586 -0.33782,-7.04204c-0.5249,-4.81119 -1.9093,-9.48932 -2.84745,-14.23725c0.02484,-3.32221 -0.56662,-6.70678 0.07454,-9.96664c0.58929,-2.9961 2.58606,-5.54759 3.54691,-8.44597c2.28902,-6.9048 1.43716,-10.35456 5.79273,-16.14862c1.91735,-2.55059 4.23046,-4.83548 6.7689,-6.7689c1.41091,-1.07463 3.84373,-0.67226 4.88541,-2.10766c1.61812,-2.22974 0.95788,-5.55734 2.38655,-7.91297c3.05162,-5.03161 9.09576,-7.93298 11.72619,-13.19705c2.50199,-5.00704 1.82636,-10.34829 1.81259,-15.64799c-0.01507,-5.79672 1.53005,-13.30063 0.12683,-18.8429c-1.96514,-7.7616 -7.71758,-13.43763 -14.59077,-16.78093c0,0 -4.24049,-2.12024 -2.12024,-6.36073c2.12024,-4.24049 6.36073,-2.12024 6.36073,-2.12024c6.46987,3.3047 12.15606,8.08105 15.89573,14.24506c-0.03656,-4.53343 -0.03877,-14.07746 0.7307,-15.34451c1.3482,-2.22004 4.65885,-2.3761 6.69006,-3.99488c3.42754,-2.73158 5.15762,-7.08819 7.78733,-10.5945c0,0 2.8446,-3.79281 6.63741,-0.9482c0.89712,0.67284 1.4229,1.39873 1.7028,2.11493c1.69369,0.7114 2.54053,2.40509 2.54053,2.40509c0.57907,1.15816 5.8896,11.6985 6.06859,12.42079c1.22891,4.95901 0.12683,10.21751 0.12683,15.32652c0,5.20415 1.71462,10.77332 -0.20343,15.61112c-3.55218,8.95952 -11.46652,14.53158 -13.76723,24.25559c-0.61914,2.6168 -0.74874,5.79586 -0.69813,9.04021c0.11744,0.41746 0.21973,0.83668 0.3047,1.25794c1.19508,5.92483 0.2975,14.77667 0.12683,21.02142c-0.06788,2.48339 0.73892,5.21681 -0.33247,7.45095c0.19871,3.90806 0.79523,7.72131 2.22213,11.20901c1.54059,3.76559 4.32725,6.90545 6.15217,10.54177c5.14021,10.73296 5.13404,24.84238 0,35.56245l0.50052,0.72721c0,0 0,4.74101 -4.74101,4.74101zM100.98817,3.61585c1.74569,-3.91693 -0.20343,-8.57506 -0.20343,-12.86339c0,-4.38287 1.20257,-8.89919 0.12683,-13.148c-0.66565,-2.62907 -2.15112,-4.94602 -3.57799,-7.28771c-1.66984,2.61232 -3.42095,5.14547 -5.85475,6.99091c-1.32746,1.00656 -3.64789,0.40818 -4.69975,1.70003c-0.69028,0.84777 0.64713,2.11086 0.70807,3.20241c0.17616,3.15575 0,6.32134 0,9.48201c0,9.13302 -1.89277,20.63521 -0.08555,29.48575c0.22532,1.1035 0.56433,2.19038 0.98012,3.2655c3.2022,-7.84375 9.10168,-12.96361 12.60644,-20.82752z" fill="#000000" stroke="none" stroke-width="0.5" stroke-linecap="butt"/><path d="M328.43126,-15.878c2.28287,0 2.28287,2.28287 2.28287,2.28287v2.28973c-0.05793,1.23071 -0.63054,2.54786 -0.17378,3.69213c0.47924,1.20057 2.20331,1.56719 2.74219,2.74219c0.88674,1.93347 0.23381,6.90348 0.17378,9.1002c-0.03296,1.20621 0.33161,2.52008 -0.17378,3.61581c-0.25531,0.55354 -0.69502,0.97818 -1.17196,1.37879c0.00612,0.00711 0.01221,0.01424 0.01827,0.02143c0.85833,1.01819 0.69912,2.57504 1.1801,3.81685c0.50072,1.29277 2.53861,4.59705 2.82849,5.7668c0.85147,3.43593 0.06106,7.95363 0.06106,11.49327c0,0.87567 0.04388,5.88611 -0.17378,6.358c-0.59036,1.27997 -2.18772,1.85794 -2.90937,3.06875c-0.73992,1.24149 -0.62632,2.87471 -1.3711,4.11329c-1.03652,1.72376 -2.85109,2.91188 -3.80718,4.68151c1.43435,10.33404 2.46441,20.73143 3.64905,31.09703c0.61981,5.42339 1.56153,10.91434 1.86647,16.36421c0.2429,4.34093 -0.75602,9.19647 -0.02578,13.4751c0.41251,2.41696 1.37732,4.76936 1.40057,7.22116l0.70246,-0.24314c0,0 1.61424,1.61424 0,3.22847c-1.61424,1.61424 -3.22847,0 -3.22847,0l-2.03973,-2.98533c0.0274,-2.20884 -0.98623,-4.30956 -1.34161,-6.4898c-0.0177,-0.10861 -0.03442,-0.21749 -0.05017,-0.32665c-0.32636,0.45023 -0.87785,0.83062 -1.80972,0.83062c-2.28287,0 -2.28287,-2.28287 -2.28287,-2.28287c0.08071,-2.93102 -1.36884,-4.11649 -2.28705,-6.46385c-3.05966,4.8318 -7.21759,8.51817 -11.79285,12.33089c0,0 -1.75375,1.46146 -3.21521,-0.29229c-1.46146,-1.75375 0.2923,-3.21521 0.2923,-3.21521c5.51241,-4.59368 10.22986,-8.76599 13.06693,-15.5817c0.66055,-1.58689 2.50859,-6.70573 0.49125,-8.47223c-1.00258,-0.87791 -2.76557,-0.33674 -3.83387,-1.13337c-3.43044,-2.55808 -4.78666,-6.90176 -6.25866,-10.57602c-0.36667,-0.91523 -2.70911,-5.12122 -2.8549,-5.83351c-0.31002,-1.51466 -0.04827,-3.09178 -0.06106,-4.63778c-0.01422,-1.7187 -0.03092,-7.26331 0.34095,-8.05566c0.46943,-1.00024 1.93558,-1.06625 2.90338,-1.59937c0.32137,-1.40991 0.21643,-2.99196 0.96413,-4.22974c0.60924,-1.00858 1.8039,-1.50032 2.72766,-2.24881c-0.04837,-0.55925 -0.07638,-1.12254 -0.08064,-1.69067c0,-4.81513 -0.00926,-9.72194 1.46381,-14.35493c0.38201,-1.20146 2.30697,-4.41931 2.82326,-5.71404c0.94901,-2.37988 1.55615,-4.93218 2.87682,-7.1277c0.30518,-0.50735 0.6877,-0.97008 1.06529,-1.43443c-0.00469,-1.73295 -0.00259,-3.68497 -0.00259,-4.27522c0,-2.09632 0,-4.19265 0,-6.28897c-0.26399,-0.67478 -0.53042,-1.35035 -0.94019,-1.93175c-0.76263,-1.08206 -2.04135,-1.73271 -2.79607,-2.82031c-1.24889,-1.79974 -0.72039,-4.53345 -2.1162,-6.22181c-0.32158,-0.38898 -0.9749,0.26167 -1.46235,0.3925c0,0 -2.28287,0 -2.28287,-2.28287c0,-2.28287 2.28287,-2.28287 2.28287,-2.28287c1.34068,0.13084 3.0034,-0.48893 4.02204,0.3925c2.03681,1.76247 1.77388,5.15995 3.29276,7.38184c0,-1.08129 0,-2.16259 0,-3.24387c0,-3.76007 0.35321,-5.29424 -1.31002,-8.62072c-0.03744,-2.00271 -0.06107,-4.00582 -0.06107,-6.00888v-1.3711c0,0 0,-2.28287 2.28287,-2.28287c2.28287,0 2.28287,2.28287 2.28287,2.28287v1.3711c0,0.90459 -0.00465,1.80924 -0.01633,2.71379c0.32112,-0.47287 0.87867,-0.88338 1.84674,-0.88338zM329.0116,17.61927c-0.28743,0.72244 -0.71204,1.3729 -1.1697,2.00682c0.02367,0.21709 0.05441,0.43357 0.09349,0.64933c0.23226,1.28219 1.16141,2.37476 1.3711,3.66083c0.33208,2.03674 0.5996,8.694 -0.02815,10.99661c-0.67726,2.48423 -3.10146,5.36138 -4.35699,7.4617c-1.48957,2.49185 -3.02706,5.22904 -4.87921,7.55865c0.34358,1.77623 0.93889,3.43253 1.53912,5.49047c1.60999,5.51996 3.21998,11.03992 4.82996,16.55988c-1.05713,-8.09233 -2.19522,-16.17947 -2.9702,-24.25452c0.58905,-1.22657 0.98469,-2.56652 1.76717,-3.67971c0.71295,-1.01429 2.01543,-1.5438 2.65222,-2.60755c0.74233,-1.24004 0.62351,-2.87639 1.3711,-4.11329c0.60877,-1.00722 1.9996,-1.38899 2.57502,-2.41563c0.75198,-1.34165 -0.17378,-3.07275 -0.17378,-4.61077c0,-3.16408 0.82942,-7.40955 0.06106,-10.44427c-0.39439,-1.5577 -1.5019,-2.83831 -2.24404,-4.26924c-0.07035,0.69544 -0.18597,1.37673 -0.4382,2.0107zM326.57138,92.34493c-0.00707,0.03535 -0.01406,0.07164 -0.02093,0.10883c-0.32624,1.7642 -0.42991,5.57167 -0.01066,7.22756c0.37444,1.4789 1.44372,2.70025 2.16641,4.04956c0.1138,-2.51873 0.32285,-5.0535 0.18808,-7.46641c-0.15702,-2.81124 -0.3773,-5.62269 -0.64223,-8.43405c-0.62604,1.39364 -1.3369,2.79699 -1.68067,4.51449zM323.68489,28.41137c-0.73105,1.8222 -2.07252,3.38166 -2.66113,5.25473c-0.8651,2.75292 -1.14569,5.58787 -1.23613,8.44422c0.40134,-0.67788 0.79405,-1.35164 1.18476,-2.00745c0.19066,-0.32003 3.5439,-5.05423 3.86959,-6.24925c0.47844,-1.75553 0.27666,-6.83589 0.02014,-8.77935c-0.38966,1.11349 -0.73973,2.24652 -1.17725,3.33709zM324.80024,82.70444c-1.51926,-7.25644 -4.24651,-14.47753 -6.32368,-21.59924c-0.74524,-2.55511 -1.62704,-5.06511 -2.29117,-7.6113c-0.62867,1.30453 -0.67465,2.85582 -1.05544,4.26533c-0.86033,0.38094 -2.12611,0.31918 -2.581,1.14281c-0.47266,0.85582 0.28211,1.93722 0.34095,2.91311c0.055,0.91241 0.00881,1.82817 0,2.74219c-0.01154,1.19638 -0.28858,2.41418 -0.06107,3.58879c0.36569,1.88802 1.91624,3.34931 2.62949,5.13526c1.0512,2.63217 2.14938,6.77642 4.7101,8.61933c1.26566,0.91088 3.33783,0.46043 4.3927,1.60882c0.10667,0.11612 0.20653,0.23694 0.30024,0.36195c0.03289,-0.40177 0.01732,-0.7924 -0.06112,-1.16706zM329.06436,6.09769c0.30585,-0.54568 -0.15021,-1.24347 -0.17378,-1.86857c-0.06885,-1.82683 -0.06885,-3.65755 0,-5.48438c0.02356,-0.6251 0.47819,-1.32209 0.17378,-1.86857c-0.2467,-0.44285 -0.65487,-0.77282 -1.08611,-1.08378c-0.00338,0.3637 -0.00629,0.73914 -0.00629,1.12879c0,3.27153 0,6.54307 0,9.81461c0.01604,0.01787 0.03233,0.03557 0.04889,0.0531c0.06624,0.07013 0.13572,0.1363 0.20806,0.199c0.33308,-0.25388 0.63484,-0.53225 0.83547,-0.8902z" data-paper-data="{&quot;index&quot;:null}" fill="#000000" stroke="none" stroke-width="0.5" stroke-linecap="butt"/><path d="M311.30239,82.91157c-2.13958,-0.71319 -1.42639,-2.85278 -1.42639,-2.85278l1.26793,-3.7117c-0.02521,-3.20574 0.35617,-6.65073 -0.25022,-9.81843c-1.45003,-7.57486 -3.60654,-15.03635 -5.18185,-22.591c0.80298,-1.45531 1.14774,-3.28331 2.40894,-4.36592c0.58747,-0.50429 1.68657,0.79607 2.30002,0.32374c0.45939,-0.35371 -0.69948,-1.06128 -0.60024,-1.63251c0.17282,-0.99471 1.15652,-1.71908 1.35454,-2.70908c0.25543,-1.27699 -0.25324,-2.62351 -0.03121,-3.90673c0.42349,-2.44756 2.11598,-4.52543 2.7403,-6.92962c0.55326,-2.13055 -0.08756,-5.39734 -0.06033,-7.6091c0.00899,-0.73053 0.2469,-1.48456 0.06033,-2.19092c-0.25782,-0.97615 -1.12047,-1.72698 -1.35454,-2.70908c-0.56348,-2.36416 -0.14817,-4.86209 -0.06033,-7.29088c0.06337,-1.75223 -0.42254,-3.66892 0.33683,-5.24932c0.50647,-1.05407 2.20591,-0.93669 3.03282,-1.7636c0.82692,-0.82692 0.75883,-2.43447 1.7636,-3.03282c1.11961,-0.66674 2.59652,-0.22456 3.89478,-0.33683c0,0 2.25532,0 2.25532,2.25532c0,2.25532 -2.25532,2.25532 -2.25532,2.25532c-0.5078,-0.11228 -1.12316,-0.66892 -1.5234,-0.33683c-0.65822,0.54615 -0.3407,1.78056 -0.94548,2.38535c-0.60479,0.60479 -1.98142,0.19158 -2.38535,0.94548c-0.45614,0.85136 0.29002,1.91321 0.33683,2.87794c0.10105,2.08249 -0.59276,4.23873 -0.06033,6.25456c0.25782,0.97615 1.12047,1.72698 1.35454,2.70908c0.07721,0.32395 0.06033,5.34581 0.06033,5.93634c0,0.58534 0.01688,5.61858 -0.06033,5.93634c-0.56173,2.31181 -2.30259,4.26652 -2.67788,6.61581c-0.22193,1.38927 0.24467,2.84097 -0.03121,4.22053c-0.19798,0.99002 -1.06356,1.74231 -1.35454,2.70908c-0.36823,1.22344 0.25701,2.83829 -0.60024,3.78567c-0.70112,0.77485 -2.14876,-0.06648 -3.11814,0.32374c-0.33836,0.1362 -0.2001,0.7015 -0.30015,1.05226c1.91491,6.99889 3.82203,14.18051 5.14927,21.31625c0.68034,3.65776 0.27931,7.60129 0.25501,11.29241l-1.44116,4.41556c0,0 -0.71319,2.13958 -2.85278,1.42639z" fill="#000000" stroke="none" stroke-width="0.5" stroke-linecap="butt"/></g></g></svg>