<svg version="1.1" xmlns="http://www.w3.org/2000/svg" xmlns:xlink="http://www.w3.org/1999/xlink" width="874.16577" height="472.23395" viewBox="0,0,874.16577,472.23395"><defs><linearGradient x1="87.00154" y1="299.36494" x2="87.00154" y2="372.9385" gradientUnits="userSpaceOnUse" id="color-1"><stop offset="0" stop-color="#c4c4c4"/><stop offset="1" stop-color="#9f9f9f"/></linearGradient><linearGradient x1="-112.17692" y1="179.3028" x2="-10.37132" y2="179.3028" gradientUnits="userSpaceOnUse" id="color-2"><stop offset="0" stop-color="#876923"/><stop offset="1" stop-color="#67491b"/></linearGradient><radialGradient cx="-42.48677" cy="144.59016" r="48.2829" gradientUnits="userSpaceOnUse" id="color-3"><stop offset="0" stop-color="#ffffff"/><stop offset="1" stop-color="#e0f8ff"/></radialGradient><linearGradient x1="-151.28673" y1="218.51048" x2="7.42619" y2="218.51048" gradientUnits="userSpaceOnUse" id="color-4"><stop offset="0" stop-color="#876923"/><stop offset="1" stop-color="#67491b"/></linearGradient><linearGradient x1="-140.28673" y1="270.01072" x2="-4.36071" y2="270.01072" gradientUnits="userSpaceOnUse" id="color-5"><stop offset="0" stop-color="#68511b"/><stop offset="1" stop-color="#67491b"/></linearGradient><linearGradient x1="-72.28637" y1="284.79952" x2="-72.28637" y2="307.64698" gradientUnits="userSpaceOnUse" id="color-6"><stop offset="0" stop-color="#593f17"/><stop offset="1" stop-color="#443512"/></linearGradient><linearGradient x1="-72.28637" y1="257.13282" x2="-72.28637" y2="279.98026" gradientUnits="userSpaceOnUse" id="color-7"><stop offset="0" stop-color="#593f17"/><stop offset="1" stop-color="#443512"/></linearGradient><linearGradient x1="-72.28637" y1="230.46619" x2="-72.28637" y2="253.31365" gradientUnits="userSpaceOnUse" id="color-8"><stop offset="0" stop-color="#593f17"/><stop offset="1" stop-color="#443512"/></linearGradient><radialGradient cx="-69.48677" cy="295.09182" r="5.87987" gradientUnits="userSpaceOnUse" id="color-9"><stop offset="0" stop-color="#ffffff"/><stop offset="1" stop-color="#fff7c7"/></radialGradient><radialGradient cx="-69.48677" cy="267.42519" r="5.87987" gradientUnits="userSpaceOnUse" id="color-10"><stop offset="0" stop-color="#ffffff"/><stop offset="1" stop-color="#fff7c7"/></radialGradient><radialGradient cx="-69.48677" cy="240.75854" r="5.87987" gradientUnits="userSpaceOnUse" id="color-11"><stop offset="0" stop-color="#ffffff"/><stop offset="1" stop-color="#fff7c7"/></radialGradient><linearGradient x1="306.4163" y1="227.82683" x2="306.4163" y2="384.08826" gradientUnits="userSpaceOnUse" id="color-12"><stop offset="0" stop-color="#ffffff"/><stop offset="1" stop-color="#737373"/></linearGradient><linearGradient x1="319.04859" y1="231.52567" x2="319.04859" y2="396.82189" gradientUnits="userSpaceOnUse" id="color-13"><stop offset="0" stop-color="#52bdce"/><stop offset="1" stop-color="#376474"/></linearGradient><radialGradient cx="200.77148" cy="217.2298" r="7.32283" gradientUnits="userSpaceOnUse" id="color-14"><stop offset="0" stop-color="#ffffff"/><stop offset="1" stop-color="#737373"/></radialGradient><radialGradient cx="177.14116" cy="273.2298" r="24.86999" gradientUnits="userSpaceOnUse" id="color-15"><stop offset="0" stop-color="#f1f1f1"/><stop offset="1" stop-color="#c0c0c0"/></radialGradient><radialGradient cx="161.13353" cy="270.2298" r="23.21198" gradientUnits="userSpaceOnUse" id="color-16"><stop offset="0" stop-color="#f1f1f1"/><stop offset="1" stop-color="#c0c0c0"/></radialGradient><radialGradient cx="177.52231" cy="161.22976" r="32.97576" gradientUnits="userSpaceOnUse" id="color-17"><stop offset="0" stop-color="#f1f1f1"/><stop offset="1" stop-color="#c0c0c0"/></radialGradient><radialGradient cx="161.13353" cy="167.22976" r="31.6862" gradientUnits="userSpaceOnUse" id="color-18"><stop offset="0" stop-color="#f1f1f1"/><stop offset="1" stop-color="#c0c0c0"/></radialGradient><radialGradient cx="177.90343" cy="105.7298" r="10.59278" gradientUnits="userSpaceOnUse" id="color-19"><stop offset="0" stop-color="#f1f1f1"/><stop offset="1" stop-color="#c0c0c0"/></radialGradient><radialGradient cx="161.51465" cy="112.2298" r="10.04011" gradientUnits="userSpaceOnUse" id="color-20"><stop offset="0" stop-color="#f1f1f1"/><stop offset="1" stop-color="#c0c0c0"/></radialGradient><linearGradient x1="181.33364" y1="220.7298" x2="187.43178" y2="220.7298" gradientUnits="userSpaceOnUse" id="color-21"><stop offset="0" stop-color="#737373"/><stop offset="1" stop-color="#a0a0a0"/></linearGradient><radialGradient cx="181.33364" cy="216.2298" r="7.32283" gradientUnits="userSpaceOnUse" id="color-22"><stop offset="0" stop-color="#ffffff"/><stop offset="1" stop-color="#737373"/></radialGradient><radialGradient cx="89.84984" cy="180" r="305.33236" gradientUnits="userSpaceOnUse" id="color-23"><stop offset="0" stop-color="#000000" stop-opacity="0"/><stop offset="1" stop-color="#000000"/></radialGradient><radialGradient cx="89.84985" cy="180.00001" r="305.33236" gradientUnits="userSpaceOnUse" id="color-24"><stop offset="0" stop-color="#000000" stop-opacity="0"/><stop offset="1" stop-color="#000000"/></radialGradient></defs><g transform="translate(208.19816,62.50415)"><g data-paper-data="{&quot;isPaintingLayer&quot;:true}" fill-rule="nonzero" stroke-width="0" stroke-linecap="butt" stroke-linejoin="miter" stroke-miterlimit="10" stroke-dasharray="" stroke-dashoffset="0" style="mix-blend-mode: normal"><path d="M-2.2362,312.96306v-243.55706h211v243.55706z" fill="#000000" stroke="none"/><path d="M-185.18016,401.21629v-459.45946h635.13513v459.45946zM18.34687,305.24325l130,1v-212h-131z" fill="#232332" stroke="#000000"/><path d="M-208.19816,409.7298v-459.45946h81.08108v459.45946z" fill="#13131b" stroke="#000000"/><path d="M306.81687,409.7298v-459.45946h81.08108v459.45946z" fill="#13131b" stroke="#000000"/><path d="M-175.52249,327.84497l48.15529,-28.48009h434.95105l41.9417,28.48009l-7.03972,44.95714l-507.98732,0.13633z" fill="url(#color-1)" stroke="none"/><path d="M-112.17692,238.12318c0,0 0,-86.32806 0,-104.54664c0,-6.44759 5.38168,-13.09411 10.69015,-13.09411c11.49721,0 56.41459,0 78.66667,0c7.74308,0 12.44878,7.78312 12.44878,15.02949c0,18.93415 0,102.61126 0,102.61126z" fill="url(#color-2)" stroke="none"/><path d="M-106.92816,222.64495c0,0 0,-75.71501 0,-89.06841c0,-3.87423 2.71985,-7.49739 5.77472,-7.49739c9.52433,0 59.72684,0 78.33333,0c4.32745,0 6.9458,3.62316 6.9458,7.49739c0,13.35341 0,89.06841 0,89.06841z" fill="url(#color-3)" stroke="none"/><path d="M-140.28673,225.92535l12.64411,-14.82974h135.06881l-11.45092,14.76089z" fill="url(#color-4)" stroke="none"/><path d="M-4.65162,314.54589l-0.04509,-88.07163l12.1229,-15.384v88.41162z" fill="#413311" stroke="none"/><path d="M-140.28673,314.54985v-89.07827h135.92601v89.07827z" fill="url(#color-5)" stroke="none"/><path d="M-135.00255,307.64698v-22.84746h125.43238v22.84746z" fill="url(#color-6)" stroke="#854300"/><path d="M-135.00255,279.98026v-22.84746h125.43238v22.84746z" fill="url(#color-7)" stroke="#854300"/><path d="M-135.00255,253.31365v-22.84746h125.43238v22.84746z" fill="url(#color-8)" stroke="#854300"/><path d="M-66.79329,296.27198c0,3.24736 -2.63251,5.87986 -5.87987,5.87986c-3.24736,0 -5.87987,-2.63251 -5.87987,-5.87986c0,-3.24736 2.63251,-5.87987 5.87987,-5.87987c3.24736,0 5.87987,2.63251 5.87987,5.87987z" fill="url(#color-9)" stroke="none"/><path d="M-66.79329,268.60535c0,3.24736 -2.63251,5.87986 -5.87987,5.87986c-3.24736,0 -5.87987,-2.63251 -5.87987,-5.87986c0,-3.24736 2.63251,-5.87987 5.87987,-5.87987c3.24736,0 5.87987,2.63251 5.87987,5.87987z" fill="url(#color-10)" stroke="none"/><path d="M-66.79329,241.93868c0,3.24736 -2.63251,5.87986 -5.87987,5.87986c-3.24736,0 -5.87987,-2.63251 -5.87987,-5.87986c0,-3.24736 2.63251,-5.87987 5.87987,-5.87987c3.24736,0 5.87987,2.63251 5.87987,5.87987z" fill="url(#color-11)" stroke="none"/><path d="M288.71066,380.85205c-22.11992,-3.91562 -103.20453,-63.53633 -106.62262,-85.94348c-2.94985,-19.33758 -6.19523,-50.41845 3.45043,-57.96564c8.75794,-6.8526 116.11252,-13.67531 139.24308,-4.18892c31.50566,12.92121 86.41726,29.79892 106.81542,63.19818c11.27163,18.45579 1.75291,67.66634 -10.01647,77.70194c-16.50027,14.06957 -110.84044,11.09753 -132.86985,7.19792z" fill="url(#color-12)" stroke="none"/><path d="M300.31923,393.39857c-23.39886,-4.14202 -109.17165,-67.20991 -112.78737,-90.9126c-3.1204,-20.45567 -6.55342,-53.33358 3.64993,-61.31713c9.26431,-7.24881 122.82596,-14.466 147.2939,-4.43112c33.32727,13.6683 91.41377,24.0939 112.99132,59.42425c11.92334,19.52287 1.85427,79.00665 -10.5956,89.62249c-17.45429,14.88306 -117.24905,11.73917 -140.55218,7.6141z" fill="url(#color-13)" stroke="none"/><g><path d="M198.43777,210.42788c4.04428,0 7.32283,4.13873 7.32283,9.24411c0,5.10538 -3.27855,9.24412 -7.32283,9.24412c-4.04428,0 -7.32283,-4.13874 -7.32283,-9.24412c0,-5.10538 3.27855,-9.24411 7.32283,-9.24411z" data-paper-data="{&quot;index&quot;:null}" fill="url(#color-14)" stroke="none"/><path d="M148.04505,299.96567v-205.3987l42.5693,-21.95802l0.63162,256.35788z" fill="#f1f1f1" stroke="#000000"/><path d="M190.54347,329.16285v-256.66021h8.28999v256.66021z" fill="#a8a8a8" stroke="none"/><path d="M169.61549,299.67677v-58.46902l12.89556,1.41676v64.83583z" fill="url(#color-15)" stroke="#909090"/><path d="M152.66705,290.47641v-52.61884l12.89556,2.40011v57.00231z" fill="url(#color-16)" stroke="#909090"/><path d="M183.24795,117.98615v84.10335l-12.89555,2.91676v-81.21987z" data-paper-data="{&quot;index&quot;:null}" fill="url(#color-17)" stroke="#909090"/><path d="M166.29953,125.7198v80.73652l-12.89555,2.40011v-77.09473z" data-paper-data="{&quot;index&quot;:null}" fill="url(#color-18)" stroke="#909090"/><path d="M183.24795,89.90176v23.25086l-12.89554,6.04191v-22.00918z" data-paper-data="{&quot;index&quot;:null}" fill="url(#color-19)" stroke="#909090"/><path d="M166.29953,99.6021v20.80081l-12.89555,6.04191v-20.05912z" data-paper-data="{&quot;index&quot;:null}" fill="url(#color-20)" stroke="#909090"/><path d="M192.22466,234.49508v-22.4759h4.78977v22.4759z" fill="#737373" stroke="none"/><path d="M193.14578,228.93652v-14.50057h2.94756v14.50057z" fill="#2d2d2d" stroke="none"/><path d="M181.33364,234.2298v-27l6.09814,-2v31z" fill="url(#color-21)" stroke="none"/><path d="M186.49622,219.46485c0,5.10539 -3.27854,9.24411 -7.32283,9.24411c-4.04429,0 -7.32283,-4.13872 -7.32283,-9.24411c0,-5.10539 3.27854,-9.24412 7.32283,-9.24412c4.04429,0 7.32283,4.13873 7.32283,9.24412z" fill="url(#color-22)" stroke="none"/></g><path d="M-166.90692,373.73427v-387.46855h513.51351v387.46855z" fill="url(#color-23)" stroke="none"/><path d="M-166.90691,373.73428v-387.46855h513.51351v387.46855z" fill="url(#color-24)" stroke="none"/><path d="M338.64028,405.96432v-468.46847h327.32733v468.46847z" fill="#000000" stroke="none"/></g></g></svg>