<svg version="1.1" xmlns="http://www.w3.org/2000/svg" xmlns:xlink="http://www.w3.org/1999/xlink" width="536.53453" height="397.99375" viewBox="0,0,536.53453,397.99375"><defs><radialGradient cx="354.44472" cy="217.2779" r="8.75" gradientUnits="userSpaceOnUse" id="color-1"><stop offset="0" stop-color="#00ff59"/><stop offset="1" stop-color="#00ff59" stop-opacity="0"/></radialGradient><linearGradient x1="426.04164" y1="161.42168" x2="456.17" y2="161.42168" gradientUnits="userSpaceOnUse" id="color-2"><stop offset="0" stop-color="#2e2e2e"/><stop offset="1" stop-color="#858585"/></linearGradient><linearGradient x1="441.41549" y1="161.55967" x2="441.41549" y2="151.32104" gradientUnits="userSpaceOnUse" id="color-3"><stop offset="0" stop-color="#858585"/><stop offset="1" stop-color="#2e2e2e"/></linearGradient><linearGradient x1="441.41549" y1="114.32649" x2="441.41549" y2="124.56513" gradientUnits="userSpaceOnUse" id="color-4"><stop offset="0" stop-color="#858585"/><stop offset="1" stop-color="#2e2e2e"/></linearGradient><linearGradient x1="424.33604" y1="138.31942" x2="458.09379" y2="138.31942" gradientUnits="userSpaceOnUse" id="color-5"><stop offset="0" stop-color="#2e2e2e"/><stop offset="1" stop-color="#858585"/></linearGradient><linearGradient x1="439.87499" y1="138.31942" x2="442.55484" y2="138.31942" gradientUnits="userSpaceOnUse" id="color-6"><stop offset="0" stop-color="#171717"/><stop offset="1" stop-color="#3e3e3e"/></linearGradient><linearGradient x1="423.47681" y1="138.31942" x2="458.95302" y2="138.31942" gradientUnits="userSpaceOnUse" id="color-7"><stop offset="0" stop-color="#171717"/><stop offset="1" stop-color="#3e3e3e"/></linearGradient><linearGradient x1="425.15837" y1="123.91012" x2="425.15837" y2="136.87811" gradientUnits="userSpaceOnUse" id="color-8"><stop offset="0" stop-color="#858585"/><stop offset="1" stop-color="#2e2e2e"/></linearGradient><linearGradient x1="425.25495" y1="138.95436" x2="425.25495" y2="151.92236" gradientUnits="userSpaceOnUse" id="color-9"><stop offset="0" stop-color="#858585"/><stop offset="1" stop-color="#2e2e2e"/></linearGradient><linearGradient x1="457.27146" y1="124.17056" x2="457.27146" y2="137.13856" gradientUnits="userSpaceOnUse" id="color-10"><stop offset="0" stop-color="#858585"/><stop offset="1" stop-color="#2e2e2e"/></linearGradient><linearGradient x1="457.17488" y1="139.21481" x2="457.17488" y2="152.18281" gradientUnits="userSpaceOnUse" id="color-11"><stop offset="0" stop-color="#858585"/><stop offset="1" stop-color="#2e2e2e"/></linearGradient></defs><g transform="translate(28.26727,18.99687)"><g data-paper-data="{&quot;isPaintingLayer&quot;:true}" fill-rule="nonzero" stroke-linejoin="miter" stroke-miterlimit="10" stroke-dasharray="" stroke-dashoffset="0" style="mix-blend-mode: normal"><path d="M-27.26727,374.32121v-391.89189h534.53453v391.89189z" fill="#4b4b6b" stroke="#000000" stroke-width="2" stroke-linecap="butt"/><path d="M1.5015,369.99688v-159.5976h90.5015v159.5976z" fill="#a3671f" stroke="#000000" stroke-width="0" stroke-linecap="butt"/><path d="M399.50151,378.99688v-159.5976h90.5015v159.5976z" fill="#a3671f" stroke="#000000" stroke-width="0" stroke-linecap="butt"/><path d="M-8.4985,299.99687v-97.5976h501.5015v97.5976z" fill="#b57422" stroke="#000000" stroke-width="0" stroke-linecap="butt"/><g stroke="none" stroke-width="0" stroke-linecap="butt"><g fill="#2b2b2b"><path d="M262.28143,247.43319l-15.89616,-52.13024l10.99996,-3.35424l15.89616,52.13024z"/><path d="M207.88528,244.07896l15.89616,-52.13024l10.99996,3.35424l-15.89616,52.13024z" data-paper-data="{&quot;index&quot;:null}"/><path d="M194.58333,248.94094v-9.5h94.5v9.5z"/></g><path d="M122.83334,223.80957v-140h238v140z" fill="#3c3c3c"/><path d="M134.33333,213.30957v-119h215v119z" fill="#ffffff"/><path d="M357.94472,216.9353c0,1.79493 -1.51104,3.25 -3.375,3.25c-1.86396,0 -3.375,-1.45507 -3.375,-3.25c0,-1.79493 1.51104,-3.25 3.375,-3.25c1.86396,0 3.375,1.45507 3.375,3.25z" fill="#00ff59"/><path d="M363.19472,217.2779c0,4.65351 -3.91751,8.42593 -8.75,8.42593c-4.83249,0 -8.75,-3.77242 -8.75,-8.42593c0,-4.65351 3.91751,-8.42593 8.75,-8.42593c4.83249,0 8.75,3.77242 8.75,8.42593z" fill="url(#color-1)"/></g><text transform="translate(140.43915,114.88803) scale(0.5,0.5)" font-size="40" xml:space="preserve" fill="#000000" fill-rule="nonzero" stroke="none" stroke-width="1" stroke-linecap="butt" stroke-linejoin="miter" stroke-miterlimit="10" stroke-dasharray="" stroke-dashoffset="0" font-family="Sans Serif" font-weight="normal" text-anchor="start" style="mix-blend-mode: normal"><tspan x="0" dy="0">File Decrypt Progress</tspan></text><text transform="translate(259.75,168.89444) scale(0.6027,0.6027)" font-size="40" xml:space="preserve" fill="#000000" fill-rule="nonzero" stroke="none" stroke-width="1" stroke-linecap="butt" stroke-linejoin="miter" stroke-miterlimit="10" stroke-dasharray="" stroke-dashoffset="0" font-family="Sans Serif" font-weight="normal" text-anchor="start" style="mix-blend-mode: normal"><tspan x="0" dy="0">%</tspan></text><g><path d="M378.18651,270.99156c0,11.83954 -6.79847,21.43738 -15.18481,21.43738c-8.38634,0 -15.1848,-9.59784 -15.1848,-21.43738c0,-11.83954 6.79846,-21.43737 15.1848,-21.43737c8.38634,0 15.18481,9.59783 15.18481,21.43737z" fill="#545454" stroke="none" stroke-width="NaN" stroke-linecap="butt"/><path d="M348.71013,266.52546c0,0 9.20682,-4.91274 13.84497,-4.91274c5.00978,0 15.1848,4.91274 15.1848,4.91274" fill="none" stroke="#b3b3b3" stroke-width="1.5" stroke-linecap="round"/><path d="M363.0017,249.7456l-0.06379,11.93093" fill="none" stroke="#b3b3b3" stroke-width="1.5" stroke-linecap="round"/><path d="M366.57459,260.04958c0,3.82318 -1.59964,6.92249 -3.5729,6.92249c-1.97325,0 -3.57289,-3.09931 -3.57289,-6.92249c0,-3.82318 1.59963,-6.92248 3.57289,-6.92248c1.97325,0 3.5729,3.09931 3.5729,6.92248z" fill="#818181" stroke="#000000" stroke-width="0" stroke-linecap="butt"/></g><g fill="#545454" stroke-width="1" stroke-linecap="butt"><path d="M112.91896,287.4588v-32.15606h217.05341v32.15606z" stroke="none"/><path d="M118.23653,265.63864v-7.46481h21.43737v7.46481z" stroke="#b3b3b3"/><path d="M144.36332,265.63864v-7.46481h21.43737v7.46481z" stroke="#b3b3b3"/><path d="M169.15029,265.63864v-7.46481h21.43738v7.46481z" stroke="#b3b3b3"/><path d="M195.27708,265.63864v-7.46481h21.43738v7.46481z" stroke="#b3b3b3"/><path d="M155.75192,274.82608v-7.4648h21.43738v7.4648z" stroke="#b3b3b3"/><path d="M181.87872,274.82608v-7.4648h21.43738v7.4648z" stroke="#b3b3b3"/><path d="M206.66569,274.82608v-7.4648h21.43737v7.4648z" stroke="#b3b3b3"/><path d="M232.79248,274.82608v-7.4648h21.43737v7.4648z" stroke="#b3b3b3"/><path d="M220.06405,265.63864v-7.46481h21.43738v7.46481z" stroke="#b3b3b3"/><path d="M245.52093,265.63864v-7.46481h8.70893v7.46481z" stroke="#b3b3b3"/><path d="M118.23653,275.11318v-7.4648h35.17069v7.4648z" stroke="#b3b3b3"/><path d="M117.90157,284.87484v-7.46481h21.43738v7.46481z" stroke="#b3b3b3"/><path d="M144.02836,284.87484v-7.46481h21.43737v7.46481z" stroke="#b3b3b3"/><path d="M167.81043,284.87484v-7.46481h48.56905v7.46481z" stroke="#b3b3b3"/><path d="M219.72909,284.87484v-7.46481h21.43737v7.46481z" stroke="#b3b3b3"/><path d="M245.18597,284.87484v-7.46481h8.70893v7.46481z" stroke="#b3b3b3"/><path d="M260.92902,285.16196v-7.4648h8.70893v7.4648z" stroke="#b3b3b3"/><path d="M271.98267,285.16196v-7.4648h8.70893v7.4648z" stroke="#b3b3b3"/><path d="M282.70136,285.16196v-7.4648h8.70893v7.4648z" stroke="#b3b3b3"/><path d="M271.98267,276.26162v-7.4648h8.70893v7.4648z" stroke="#b3b3b3"/><path d="M260.92902,265.92572v-7.4648h8.70893v7.4648z" stroke="#b3b3b3"/><path d="M271.98267,265.92572v-7.4648h8.70893v7.4648z" stroke="#b3b3b3"/><path d="M282.70136,265.92572v-7.4648h8.70893v7.4648z" stroke="#b3b3b3"/><path d="M296.43467,285.44905v-7.4648h8.70893v7.4648z" stroke="#b3b3b3"/><path d="M307.4883,285.44905v-7.4648h8.70893v7.4648z" stroke="#b3b3b3"/><path d="M318.20701,285.44905v-7.4648h8.70893v7.4648z" stroke="#b3b3b3"/><path d="M296.43467,276.26162v-7.4648h8.70893v7.4648z" stroke="#b3b3b3"/><path d="M307.4883,276.26162v-7.4648h8.70893v7.4648z" stroke="#b3b3b3"/><path d="M318.20701,276.26162v-7.4648h8.70893v7.4648z" stroke="#b3b3b3"/><path d="M296.0997,267.07416v-7.4648h8.70893v7.4648z" stroke="#b3b3b3"/><path d="M307.15337,267.07416v-7.4648h8.70893v7.4648z" stroke="#b3b3b3"/><path d="M317.87205,267.07416v-7.4648h8.70893v7.4648z" stroke="#b3b3b3"/></g><path d="M397.5,182.00314v-52h104v52z" fill="#b57422" stroke="none" stroke-width="0" stroke-linecap="butt"/><path d="M394.5,190.00313v-14h104v14z" fill="#a3671f" stroke="none" stroke-width="0" stroke-linecap="butt"/><path d="M396.5,105.00313v-52h104v52z" fill="#b57422" stroke="none" stroke-width="0" stroke-linecap="butt"/><path d="M395.5,111.00314v-14h104v14z" fill="#a3671f" stroke="none" stroke-width="0" stroke-linecap="butt"/><path d="M394.5,33.00313v-52h104v52z" fill="#b57422" stroke="none" stroke-width="0" stroke-linecap="butt"/><path d="M396.5,40.00313v-14h104v14z" fill="#a3671f" stroke="none" stroke-width="0" stroke-linecap="butt"/><path d="M388.5,248.00314v-250h14v250z" fill="#a3671f" stroke="none" stroke-width="0" stroke-linecap="butt"/><path d="M-20.50001,183.00314v-52h104v52z" data-paper-data="{&quot;index&quot;:null}" fill="#b57422" stroke="none" stroke-width="0" stroke-linecap="butt"/><path d="M-17.50001,191.00314v-14h104v14z" data-paper-data="{&quot;index&quot;:null}" fill="#a3671f" stroke="none" stroke-width="0" stroke-linecap="butt"/><path d="M-19.50001,106.00313v-52h104v52z" data-paper-data="{&quot;index&quot;:null}" fill="#b57422" stroke="none" stroke-width="0" stroke-linecap="butt"/><path d="M-18.50001,112.00314v-14h104v14z" data-paper-data="{&quot;index&quot;:null}" fill="#a3671f" stroke="none" stroke-width="0" stroke-linecap="butt"/><path d="M-17.50001,34.00313v-52h104v52z" data-paper-data="{&quot;index&quot;:null}" fill="#b57422" stroke="none" stroke-width="0" stroke-linecap="butt"/><path d="M-19.50001,41.00313v-14h104v14z" data-paper-data="{&quot;index&quot;:null}" fill="#a3671f" stroke="none" stroke-width="0" stroke-linecap="butt"/><path d="M78.49999,249.00314v-250h14v250z" data-paper-data="{&quot;index&quot;:null}" fill="#a3671f" stroke="none" stroke-width="0" stroke-linecap="butt"/><path d="M4.44146,252.3238l23.66667,-39.66667l41.66667,10l-22.33333,45z" fill="#ffffff" stroke="none" stroke-width="0" stroke-linecap="butt"/><path d="M27.10812,187.99046l-22.33334,-45l41.66667,-10l23.66667,39.66667z" data-paper-data="{&quot;index&quot;:null}" fill="#ffffff" stroke="none" stroke-width="0" stroke-linecap="butt"/><g stroke-linecap="butt"><path d="M441.10582,157.97615c8.31972,0 15.06418,1.54262 15.06418,3.44553c0,1.90291 -6.74446,3.44553 -15.06418,3.44553c-8.31972,0 -15.06418,-1.54262 -15.06418,-3.44553c0,-1.90291 6.74446,-3.44553 15.06418,-3.44553z" fill="url(#color-2)" stroke="#000000" stroke-width="0.5"/><path d="M448.63585,161.28039v-10.14517h1.59515v10.14517z" fill="#131313" stroke="none" stroke-width="0"/><path d="M432.23768,161.08897v-10.14517h1.59515v10.14517z" fill="#131313" stroke="none" stroke-width="0"/><path d="M436.71269,152.2914c0,0 0.78698,-1.0274 4.85995,-0.96788c2.97325,0.04345 4.64434,1.02823 4.64434,1.02823l-0.09868,9.20791l-9.50428,-0.06035z" data-paper-data="{&quot;index&quot;:null}" fill="url(#color-3)" stroke="#000000" stroke-width="0.5"/><path d="M435.59782,155.72197l11.23415,0.09267l-0.0152,1.84256l-11.23415,-0.09267z" data-paper-data="{&quot;index&quot;:null}" fill="#343434" stroke="#000000" stroke-width="0.5"/><path d="M435.61307,158.1796l11.23415,0.09267l-0.0152,1.84256l-11.23415,-0.09267z" data-paper-data="{&quot;index&quot;:null}" fill="#343434" stroke="#000000" stroke-width="0.5"/><path d="M436.61401,114.38685l9.50428,-0.06035l0.09868,9.20791c0,0 -1.67109,0.98477 -4.64434,1.02823c-4.07297,0.05953 -4.85995,-0.96788 -4.85995,-0.96788z" fill="url(#color-4)" stroke="#000000" stroke-width="0.5"/><path d="M435.58261,118.32163l11.23415,-0.09267l0.0152,1.84256l-11.23415,0.09267z" fill="#343434" stroke="#000000" stroke-width="0.5"/><path d="M435.59786,115.86401l11.23415,-0.09267l0.0152,1.84256l-11.23415,0.09267z" fill="#343434" stroke="#000000" stroke-width="0.5"/><path d="M458.09379,138.31942c0,9.18619 -7.55693,16.63306 -16.87887,16.63306c-9.32194,0 -16.87887,-7.44688 -16.87887,-16.63306c0,-9.18619 7.55693,-16.63306 16.87887,-16.63306c9.32194,0 16.87887,7.44688 16.87887,16.63306z" fill="url(#color-5)" stroke="none" stroke-width="0"/><path d="M439.87499,155.40669v-34.17456h2.67986v34.17456z" fill="url(#color-6)" stroke="none" stroke-width="0"/><path d="M423.47681,139.58278v-2.52672h35.4762v2.52672z" fill="url(#color-7)" stroke="none" stroke-width="0"/><g stroke="#000000" stroke-width="0.5"><path d="M417.82896,132.86353l3.18967,-8.95341l11.26895,4.01458c0,0 0.6278,2.00876 -0.34005,4.82064c-1.32583,3.85191 -2.84963,4.13277 -2.84963,4.13277z" fill="url(#color-8)"/><path d="M424.02996,136.22861l3.77022,-10.58301l1.73576,0.61837l-3.77022,10.58302z" fill="#343434"/><path d="M421.72697,135.37046l3.77022,-10.58301l1.73577,0.61837l-3.77022,10.58302z" fill="#343434"/><path d="M421.01322,128.98771c-0.88974,2.49751 -2.41358,4.23624 -3.40359,3.88355c-0.99001,-0.35269 -1.07128,-2.66324 -0.18154,-5.16076c0.88974,-2.49751 2.41358,-4.23624 3.40359,-3.88354c0.99001,0.35269 1.07128,2.66324 0.18154,5.16075z" fill="#858585"/><path d="M419.18316,128.29536c-0.21642,0.6075 -0.51955,1.0545 -0.67705,0.99839c-0.1575,-0.05611 -0.10973,-0.59408 0.10669,-1.20158c0.21642,-0.6075 0.51955,-1.0545 0.67705,-0.99839c0.1575,0.05611 0.10973,0.59408 -0.10669,1.20158z" fill="#000000"/></g><g data-paper-data="{&quot;index&quot;:null}" stroke="#000000" stroke-width="0.5"><path d="M429.19449,138.95436c0,0 1.5238,0.28085 2.84963,4.13277c0.96785,2.81188 0.34004,4.82065 0.34004,4.82065l-11.26895,4.01458l-3.18967,-8.95341z" fill="url(#color-9)"/><path d="M425.8623,138.98549l3.77022,10.58302l-1.73576,0.61837l-3.77022,-10.58302z" fill="#343434"/><path d="M423.55932,139.84364l3.77022,10.58302l-1.73577,0.61837l-3.77022,-10.58302z" fill="#343434"/><path d="M420.92826,152.00552c-0.99001,0.35269 -2.51385,-1.38603 -3.40359,-3.88355c-0.88974,-2.49751 -0.80847,-4.80806 0.18154,-5.16075c0.99001,-0.35269 2.51385,1.38603 3.40359,3.88355c0.88974,2.49751 0.80847,4.80806 -0.18154,5.16076z" fill="#858585"/><path d="M419.38643,148.73869c-0.1575,0.05611 -0.46063,-0.39088 -0.67705,-0.99838c-0.21642,-0.60751 -0.26419,-1.14547 -0.10669,-1.20158c0.1575,-0.05611 0.46063,0.39088 0.67705,0.99839c0.21642,0.60751 0.26419,1.14547 0.10669,1.20158z" fill="#000000"/></g><g data-paper-data="{&quot;index&quot;:null}" stroke="#000000" stroke-width="0.5"><path d="M453.33192,137.13856c0,0 -1.5238,-0.28085 -2.84963,-4.13277c-0.96785,-2.81188 -0.34004,-4.82064 -0.34004,-4.82064l11.26895,-4.01458l3.18967,8.95341z" fill="url(#color-10)"/><path d="M456.66411,137.10743l-3.77022,-10.58302l1.73576,-0.61837l3.77022,10.58302z" fill="#343434"/><path d="M458.96709,136.24928l-3.77022,-10.58302l1.73576,-0.61837l3.77022,10.58301z" fill="#343434"/><path d="M461.59815,124.0874c0.99001,-0.35269 2.51384,1.38603 3.40359,3.88355c0.88975,2.49751 0.80847,4.80806 -0.18154,5.16076c-0.99001,0.35269 -2.51384,-1.38603 -3.40359,-3.88355c-0.88975,-2.49751 -0.80847,-4.80806 0.18154,-5.16076z" fill="#858585"/><path d="M463.13998,127.35423c0.1575,-0.05611 0.46063,0.39088 0.67705,0.99838c0.21643,0.60751 0.26419,1.14547 0.10669,1.20158c-0.1575,0.05611 -0.46063,-0.39088 -0.67705,-0.99839c-0.21643,-0.60751 -0.26419,-1.14547 -0.10669,-1.20158z" fill="#000000"/></g><g data-paper-data="{&quot;index&quot;:null}" stroke="#000000" stroke-width="0.5"><path d="M464.5043,143.22939l-3.18967,8.95341l-11.26895,-4.01458c0,0 -0.6278,-2.00877 0.34005,-4.82065c1.32583,-3.85191 2.84963,-4.13277 2.84963,-4.13277z" fill="url(#color-11)"/><path d="M458.3033,139.86431l-3.77022,10.58302l-1.73576,-0.61837l3.77022,-10.58302z" fill="#343434"/><path d="M460.60628,140.72246l-3.77022,10.58301l-1.73576,-0.61837l3.77022,-10.58301z" fill="#343434"/><path d="M461.32003,147.10521c0.88975,-2.49751 2.41358,-4.23624 3.40359,-3.88355c0.99001,0.35269 1.07128,2.66324 0.18154,5.16076c-0.88975,2.49751 -2.41358,4.23624 -3.40359,3.88355c-0.99001,-0.35269 -1.07128,-2.66324 -0.18154,-5.16075z" fill="#858585"/><path d="M463.15009,147.79756c0.21643,-0.60751 0.51955,-1.0545 0.67705,-0.99839c0.1575,0.05611 0.10974,0.59407 -0.10669,1.20158c-0.21643,0.60751 -0.51955,1.0545 -0.67705,0.99839c-0.1575,-0.05611 -0.10973,-0.59407 0.10669,-1.20158z" fill="#000000"/></g><text transform="translate(437.01434,132.84107) scale(0.08711,0.08711)" font-size="40" xml:space="preserve" fill="#ffffff" fill-rule="nonzero" stroke="none" stroke-width="1" stroke-linecap="butt" stroke-linejoin="miter" stroke-miterlimit="10" stroke-dasharray="" stroke-dashoffset="0" font-family="Sans Serif" font-weight="normal" text-anchor="start" style="mix-blend-mode: normal"><tspan x="0" dy="0">DMR</tspan></text><text transform="translate(439.18375,136.2866) scale(0.08711,0.08711)" font-size="40" xml:space="preserve" fill="#efefef" fill-rule="nonzero" stroke="none" stroke-width="1" stroke-linecap="butt" stroke-linejoin="miter" stroke-miterlimit="10" stroke-dasharray="" stroke-dashoffset="0" font-family="Sans Serif" font-weight="normal" text-anchor="start" style="mix-blend-mode: normal"><tspan x="0" dy="0">36</tspan></text><path d="M440.40487,163.4498v-10.14517c0,0 0.14957,-0.45576 0.79841,-0.45576c0.68502,0 0.79675,0.45576 0.79675,0.45576v10.14517z" fill="#131313" stroke="none" stroke-width="0"/></g></g></g></svg>