<svg version="1.1" xmlns="http://www.w3.org/2000/svg" xmlns:xlink="http://www.w3.org/1999/xlink" width="347.59471" height="325.47395" viewBox="0,0,347.59471,325.47395"><defs><linearGradient x1="357.71792" y1="488.0014" x2="359.0011" y2="491.47344" gradientUnits="userSpaceOnUse" id="color-1"><stop offset="0" stop-color="#a4a4a4"/><stop offset="1" stop-color="#d8d8d8"/></linearGradient><linearGradient x1="362.27534" y1="474.23529" x2="362.27534" y2="541.5678" gradientUnits="userSpaceOnUse" id="color-2"><stop offset="0" stop-color="#0b2a00"/><stop offset="1" stop-color="#101800"/></linearGradient><linearGradient x1="329.07995" y1="450.43975" x2="324.86417" y2="455.35792" gradientUnits="userSpaceOnUse" id="color-3"><stop offset="0" stop-color="#a4a4a4"/><stop offset="1" stop-color="#d8d8d8"/></linearGradient><linearGradient x1="311.51491" y1="439.64919" x2="314.32531" y2="442.05819" gradientUnits="userSpaceOnUse" id="color-4"><stop offset="0" stop-color="#a4a4a4"/><stop offset="1" stop-color="#d8d8d8"/></linearGradient><linearGradient x1="340.28797" y1="463.90677" x2="337.47756" y2="461.49774" gradientUnits="userSpaceOnUse" id="color-5"><stop offset="0" stop-color="#a4a4a4"/><stop offset="1" stop-color="#d8d8d8"/></linearGradient><linearGradient x1="337.37777" y1="438.86357" x2="334.16573" y2="442.61077" gradientUnits="userSpaceOnUse" id="color-6"><stop offset="0" stop-color="#a4a4a4"/><stop offset="1" stop-color="#d8d8d8"/></linearGradient><linearGradient x1="314.72622" y1="465.76306" x2="317.93825" y2="462.01585" gradientUnits="userSpaceOnUse" id="color-7"><stop offset="0" stop-color="#a4a4a4"/><stop offset="1" stop-color="#d8d8d8"/></linearGradient><linearGradient x1="326.70409" y1="418.90532" x2="326.70409" y2="488.8941" gradientUnits="userSpaceOnUse" id="color-8"><stop offset="0" stop-color="#0b2a00"/><stop offset="1" stop-color="#101800"/></linearGradient><linearGradient x1="164.45265" y1="436.13961" x2="161.47817" y2="438.34277" gradientUnits="userSpaceOnUse" id="color-9"><stop offset="0" stop-color="#a4a4a4"/><stop offset="1" stop-color="#d8d8d8"/></linearGradient><linearGradient x1="134.02828" y1="458.2908" x2="137.0028" y2="456.08759" gradientUnits="userSpaceOnUse" id="color-10"><stop offset="0" stop-color="#a4a4a4"/><stop offset="1" stop-color="#d8d8d8"/></linearGradient><linearGradient x1="138.71105" y1="433.5178" x2="141.64864" y2="437.48381" gradientUnits="userSpaceOnUse" id="color-11"><stop offset="0" stop-color="#a4a4a4"/><stop offset="1" stop-color="#d8d8d8"/></linearGradient><linearGradient x1="159.39348" y1="461.95915" x2="156.45588" y2="457.99316" gradientUnits="userSpaceOnUse" id="color-12"><stop offset="0" stop-color="#a4a4a4"/><stop offset="1" stop-color="#d8d8d8"/></linearGradient><linearGradient x1="148.24802" y1="414.4693" x2="148.24802" y2="484.05345" gradientUnits="userSpaceOnUse" id="color-13"><stop offset="0" stop-color="#0b2a00"/><stop offset="1" stop-color="#101800"/></linearGradient><linearGradient x1="74.07462" y1="521.27554" x2="74.07462" y2="573.22901" gradientUnits="userSpaceOnUse" id="color-14"><stop offset="0" stop-color="#0b2a00"/><stop offset="1" stop-color="#101800"/></linearGradient><linearGradient x1="231.44977" y1="533.38084" x2="248.63812" y2="533.38084" gradientUnits="userSpaceOnUse" id="color-15"><stop offset="0" stop-color="#a4a4a4"/><stop offset="1" stop-color="#d8d8d8"/></linearGradient><radialGradient cx="239.63473" cy="482.59453" r="13.91434" gradientUnits="userSpaceOnUse" id="color-16"><stop offset="0" stop-color="#d8d8d8"/><stop offset="1" stop-color="#a4a4a4"/></radialGradient><linearGradient x1="262.96711" y1="461.00224" x2="255.56402" y2="461.00224" gradientUnits="userSpaceOnUse" id="color-17"><stop offset="0" stop-color="#a4a4a4"/><stop offset="1" stop-color="#d8d8d8"/></linearGradient><linearGradient x1="216.30699" y1="462.26053" x2="223.71002" y2="462.26053" gradientUnits="userSpaceOnUse" id="color-18"><stop offset="0" stop-color="#a4a4a4"/><stop offset="1" stop-color="#d8d8d8"/></linearGradient><linearGradient x1="239.57511" y1="490.59546" x2="239.57511" y2="498.61545" gradientUnits="userSpaceOnUse" id="color-19"><stop offset="0" stop-color="#a4a4a4"/><stop offset="1" stop-color="#d8d8d8"/></linearGradient><linearGradient x1="265.69647" y1="460.7066" x2="274.43226" y2="463.91762" gradientUnits="userSpaceOnUse" id="color-20"><stop offset="0" stop-color="#a4a4a4"/><stop offset="1" stop-color="#d8d8d8"/></linearGradient><linearGradient x1="212.51025" y1="459.58941" x2="203.58435" y2="462.87029" gradientUnits="userSpaceOnUse" id="color-21"><stop offset="0" stop-color="#a4a4a4"/><stop offset="1" stop-color="#d8d8d8"/></linearGradient><linearGradient x1="240.14949" y1="424.12354" x2="240.14949" y2="430.84736" gradientUnits="userSpaceOnUse" id="color-22"><stop offset="0" stop-color="#a4a4a4"/><stop offset="1" stop-color="#d8d8d8"/></linearGradient><linearGradient x1="237.90738" y1="404.3699" x2="237.90738" y2="591.04739" gradientUnits="userSpaceOnUse" id="color-23"><stop offset="0" stop-color="#0b2a00"/><stop offset="1" stop-color="#101800"/></linearGradient><linearGradient x1="238.83838" y1="334.501" x2="238.83838" y2="397.44042" gradientUnits="userSpaceOnUse" id="color-24"><stop offset="0" stop-color="#0b2a00"/><stop offset="1" stop-color="#101800"/></linearGradient><linearGradient x1="167.68868" y1="320.19181" x2="311.59671" y2="320.19181" gradientUnits="userSpaceOnUse" id="color-25"><stop offset="0" stop-color="#0b2a00"/><stop offset="1" stop-color="#101800"/></linearGradient><radialGradient cx="216.41854" cy="288.43299" r="4.35661" gradientUnits="userSpaceOnUse" id="color-26"><stop offset="0" stop-color="#ffffff"/><stop offset="1" stop-color="#ffffff" stop-opacity="0"/></radialGradient><radialGradient cx="261.3874" cy="288.43299" r="4.35661" gradientUnits="userSpaceOnUse" id="color-27"><stop offset="0" stop-color="#ffffff"/><stop offset="1" stop-color="#ffffff" stop-opacity="0"/></radialGradient></defs><g transform="translate(-46.29852,-265.82)"><g data-paper-data="{&quot;isPaintingLayer&quot;:true}" fill-rule="nonzero" stroke-linecap="butt" stroke-linejoin="miter" stroke-miterlimit="10" stroke-dasharray="" stroke-dashoffset="0" style="mix-blend-mode: normal"><path d="M311.10615,335.68967c0,13.79359 -142.7522,12.55773 -143.78663,0c-1.42747,-17.32909 11.09907,-32.67999 30.20269,-41.92173c11.93061,-5.77167 71.71412,-5.63416 83.49336,0.35741c18.21828,9.26681 30.09058,24.43045 30.09058,41.56433z" fill="#000000" stroke="#000000" stroke-width="0"/><g data-paper-data="{&quot;index&quot;:null}"><path d="M352.84791,478.2547c27.68942,-11.86872 33.15422,1.84988 39.43836,18.00021c0.02521,0.06476 0.05037,0.12949 0.07553,0.19418c-5.15559,0.54309 -11.56222,2.41586 -15.81693,5.0415c-1.30217,0.80358 -2.09525,2.38776 -3.51948,2.94712c-2.65244,1.04169 -6.42218,1.36241 -8.49101,3.61449c-4.44278,4.8363 -1.7203,10.64971 2.81791,13.45173c5.99055,3.10078 1.26568,8.46716 2.54404,13.28314c0.33095,1.24678 0.91736,2.39461 1.66839,3.47176c-25.28119,8.78943 -29.41926,-4.15289 -35.39819,-19.5188c-6.28419,-16.15033 -13.87464,-27.38788 16.68138,-40.48531z" fill="#000000" stroke="#000000" stroke-width="0"/><path d="M355.75164,475.30381c1.8398,-0.2014 2.0412,1.63841 2.0412,1.63841l0.03463,0.82408c0.88479,2.49807 1.03591,5.30295 0.97761,8.1275c0.25089,0.05618 0.51538,0.11803 0.79506,0.1893c1.26713,0.3229 2.46789,0.86559 3.70181,1.29839c0,0 1.32914,0.47126 1.25565,1.75129c0.20085,0.26869 0.28962,0.50887 0.28962,0.50887l0.32082,0.86803c0.87429,2.3939 1.55403,4.17725 0.94056,6.06407c1.68897,0.7029 3.37796,1.40578 5.06688,2.10867c0,0 1.58,0.65754 1.06911,2.22732c0.08084,0.12006 0.14875,0.25162 0.20116,0.39342c0.04989,0.13497 0.08304,0.272 0.1005,0.40889c0.31635,0.49063 0.33413,1.041 0.33413,1.041l0.06293,1.9499c0.06557,2.08855 0.85565,4.21011 0.42305,6.25443c-0.16044,0.75823 -0.62174,1.61709 -1.20875,2.49829c0.76919,0.43138 1.46638,0.97112 2.00354,1.68786c2.12712,2.83836 2.04095,6.90942 1.5145,10.79037c3.03401,1.42596 6.08568,4.54314 4.77716,8.30467c-0.4635,1.33245 -1.80315,2.10678 -2.94055,3.02052c0.11045,0.45686 0.05239,1.02511 -0.49516,1.60922c-1.26584,1.35022 -2.61603,0.08442 -2.61603,0.08442c-0.59535,-0.5807 -1.19065,-1.16145 -1.78599,-1.74216l-0.83547,-2.11769c0,0 -0.01728,-0.04677 -0.03849,-0.12784c-0.02507,-0.05223 -0.04794,-0.10611 -0.06843,-0.16153c-0.11106,-0.30051 -0.13918,-0.6114 -0.0959,-0.90757c-0.78196,-0.60408 -0.6464,-1.69772 -0.6464,-1.69772c0.17242,-1.39097 0.44114,-2.85117 0.68612,-4.33037c-1.50297,-1.34321 -3.02856,-2.66273 -4.45347,-4.08752c-1.14005,-1.13995 -2.88321,-1.97699 -3.30237,-3.53375c-0.3317,-1.23197 0.89534,-2.3902 1.39078,-3.56596c0.24329,-0.57736 0.52318,-1.11492 0.82817,-1.62931c-3.55402,-1.79136 -7.61313,-8.04182 -7.33435,-12.04114c0.17992,-2.58124 1.28503,-3.19186 2.18389,-4.58268c-0.70348,-0.29277 -1.39242,-0.57948 -2.0575,-0.85626c0,0 -0.19529,-0.08128 -0.42635,-0.2549c-0.45237,-0.08622 -0.86435,-0.33977 -1.14381,-0.71823c-0.51223,-0.17238 -0.94483,-0.56653 -1.14678,-1.11294c-0.04809,-0.13005 -0.0806,-0.26205 -0.09853,-0.39395c-1.24327,-0.35774 -1.23651,-1.77861 -1.23651,-1.77861c0.00666,-1.40526 0.12735,-2.95882 0.23443,-4.55626c-1.97444,-0.84114 -3.61424,-2.14632 -4.44106,-4.70624c-0.2907,-0.89998 -0.89139,-1.81448 -0.71965,-2.74452c0.25493,-1.3805 1.66772,-2.35937 1.94465,-3.7356l0.74321,-0.65052c0.20551,-0.38861 0.54942,-0.70582 0.9942,-0.87022c0.21945,-0.08109 0.44439,-0.11797 0.66508,-0.11511c0.0806,-0.00214 0.16557,-0.00003 0.25307,0.00824c0.24166,-0.31129 0.63146,-0.56995 1.25809,-0.63853zM354.08504,482.76689c0.37361,0.77567 0.73974,1.3205 1.13282,1.71749c-0.01362,-1.27756 -0.10856,-2.52395 -0.35064,-3.68535c-0.03479,0.08158 -0.07285,0.16184 -0.11467,0.24066c-0.24788,0.46689 -1.0405,0.5066 -1.23107,0.99967c-0.11059,0.28614 0.43044,0.45115 0.56356,0.72753zM361.29636,490.61242c-0.87583,-0.27549 -1.77256,-0.50211 -2.65886,-0.73142c-0.05498,1.09838 -0.10399,2.17862 -0.11467,3.22305c0.33733,0.12279 0.6376,0.34262 0.85655,0.63911c0.20638,0.06945 0.39979,0.17491 0.57044,0.31181c0.20933,0.04281 0.34392,0.0988 0.34392,0.0988l0.62936,0.26193c0.60131,0.25026 1.20261,0.5005 1.80392,0.75073c0.13458,-0.97284 -0.49631,-1.94687 -1.031,-3.37357l-0.3208,-0.868c0,0 -0.04494,-0.12165 -0.07886,-0.31246zM368.97373,502.58633c-0.10439,-0.28236 -0.13551,-0.5739 -0.10298,-0.85379c-1.39513,-0.58062 -2.87258,-1.19546 -4.35368,-1.81183c-0.08686,0.28572 -0.19564,0.56023 -0.36445,0.80423c-0.55377,0.80031 -1.7284,1.3958 -1.70683,2.36875c0.05654,2.54799 2.85592,7.78272 5.30272,8.66084c0.16386,0.05883 0.33213,0.11677 0.50384,0.17462c0.1563,-0.21311 0.31274,-0.42848 0.46836,-0.64745c0.3128,-0.44016 0.95992,-0.69697 1.05616,-1.22833c0.31233,-1.72464 -0.47526,-3.47927 -0.53322,-5.23102l-0.05902,-1.82828c-0.08513,-0.12392 -0.15643,-0.2603 -0.21092,-0.40774zM369.66187,521.0496c0.86593,0.70178 1.69244,1.44933 2.50625,2.21167c0.03978,-0.87398 0.02679,-1.73618 -0.06452,-2.57583c-0.04887,-0.44933 -0.52377,-2.84043 -0.79404,-3.18178c-0.38383,-0.48479 -0.85614,-0.8265 -1.37123,-1.08745c-0.53375,0.68566 -1.01831,1.32621 -1.35544,1.87779c-0.29273,0.47886 -1.28484,0.76891 -1.0802,1.29152c0.31706,0.80974 1.4836,0.91657 2.1592,1.46408zM377.05749,532.76421c0.55723,-1.03417 -0.78783,-2.22291 -2.00502,-2.97539c-0.17664,1.02072 -0.33983,1.98653 -0.44867,2.86474c0,0 -0.00376,0.0304 -0.01425,0.08285c0.24307,0.20097 0.43793,0.46679 0.55513,0.78389c0.02049,0.05543 0.03818,0.11119 0.05308,0.16718c0.03658,0.07537 0.05387,0.12214 0.05387,0.12214l0.17508,0.52954c0.64372,-0.44633 1.26876,-0.90305 1.6308,-1.57498z" fill="#000000" stroke="none" stroke-width="0.5"/><g stroke="none" stroke-width="0"><path d="M373.71416,540.62622l-23.95327,-64.81147l6.07609,-2.24563l23.95325,64.81146z" fill="#000000"/><path d="M347.283,495.80424l-1.28321,-3.47201l23.43628,-8.66168l1.28321,3.47206z" fill="url(#color-1)"/><path d="M381.48812,515.39073l1.28321,3.47203l-23.43628,8.66166l-1.28321,-3.47206z" data-paper-data="{&quot;index&quot;:null}" fill="#000000"/><path d="M380.75242,525.8572l-4.57949,-23.95842l-12.31612,-21.7568l4.62938,-1.71095l12.20918,21.46747l4.68641,24.24773z" fill="#000000"/><path d="M360.02707,533.84586l-12.20918,-21.46747l-4.68644,-24.24778l4.62938,-1.71093l4.79339,24.53709l12.10223,21.17813z" data-paper-data="{&quot;index&quot;:null}" fill="#000000"/><path d="M371.76346,539.63062c-0.94025,-2.54411 0.35993,-5.36872 2.904,-6.30897c2.54413,-0.94025 5.36872,0.35993 6.30897,2.904c0.94025,2.54411 -0.35988,5.36872 -2.904,6.30897c-2.54411,0.94025 -5.36872,-0.35993 -6.30897,-2.904z" fill="#000000"/></g><path d="M336.35248,519.19669c-6.28419,-16.15033 -13.87464,-27.38788 16.68138,-40.48531c27.68943,-11.86869 33.1542,1.84991 39.43835,18.00021c0.4891,1.25694 0.9675,2.49647 1.42102,3.71894c-2.08945,1.86785 -4.22272,3.76477 -5.92915,5.93031c-0.98803,1.25389 -1.35722,3.00408 -2.57186,4.03998c-1.71077,1.45902 -6.12516,1.03829 -8.24658,2.13385c-4.15632,2.14646 -7.47795,3.80524 -11.24757,6.72381c-1.11175,0.86077 -2.98009,0.58615 -3.87213,1.67295c-0.92068,1.12166 -1.05511,2.70366 -1.58265,4.05553c-2.45456,5.85147 -0.0729,11.23245 3.5622,15.89392c-18.48799,3.68862 -22.34503,-8.04268 -27.65298,-21.68415z" fill="url(#color-2)" stroke="#000000" stroke-width="0"/></g><g data-paper-data="{&quot;index&quot;:null}"><path d="M302.51801,433.50341c18.41633,-23.84133 29.86541,-14.51487 43.21346,-3.46259c13.34806,11.05227 23.76346,20.45212 5.12417,43.48646c-19.59671,24.21753 -29.86541,14.51487 -43.21346,3.46259c-13.34809,-11.05227 -25.44711,-17.17694 -5.12417,-43.48646z" fill="#525252" stroke="#000000" stroke-width="0"/><path d="M303.61911,429.51254c1.50936,-1.0711 2.58047,0.43827 2.58047,0.43827l0.4312,0.70313c1.98844,1.75197 3.48515,4.12894 4.80852,6.62499c0.24653,-0.07299 0.5077,-0.14764 0.78673,-0.22147c1.26416,-0.33438 2.57722,-0.44448 3.86584,-0.66674c0,0 1.3905,-0.23496 1.94906,0.91908c0.3062,0.13701 0.50062,0.30367 0.50062,0.30367l0.70261,0.60227c1.92859,1.66604 3.39013,2.89338 3.77218,4.84029c1.81756,-0.20767 3.63514,-0.41534 5.4527,-0.62301c0,0 1.70027,-0.1943 2.0177,1.42576c0.12902,0.06556 0.25239,0.14745 0.36715,0.24583c0.10926,0.09364 0.20487,0.19724 0.28675,0.30835c0.5151,0.27474 0.7984,0.74691 0.7984,0.74691l1.00371,1.67293c1.07347,1.79275 2.79598,3.26187 3.41268,5.25838c0.22873,0.74048 0.24359,1.71527 0.15949,2.77076c0.88189,0.00265 1.75361,0.13495 2.5716,0.49979c3.23936,1.4448 5.14482,5.04345 6.57316,8.69019c3.34449,-0.23039 7.52726,1.00818 8.21419,4.93112c0.24332,1.38961 -0.55031,2.71791 -1.09939,4.06961c0.31875,0.34539 0.54457,0.8701 0.35036,1.64681c-0.44895,1.7955 -2.24445,1.34658 -2.24445,1.34658c-0.80266,-0.2177 -1.60533,-0.43541 -2.40799,-0.65308l-1.76028,-1.44365c0,0 -0.03785,-0.03248 -0.09584,-0.09296c-0.04732,-0.03343 -0.0935,-0.06938 -0.13838,-0.10781c-0.24325,-0.2085 -0.41905,-0.46646 -0.52535,-0.74623c-0.97707,-0.1473 -1.39074,-1.16872 -1.39074,-1.16872c-0.52614,-1.29907 -1.00181,-2.70554 -1.50746,-4.11706c-1.9666,-0.44225 -3.94146,-0.85277 -5.87956,-1.40426c-1.55066,-0.44124 -3.48084,-0.32437 -4.60446,-1.48051c-0.8892,-0.91492 -0.38073,-2.52385 -0.51994,-3.79209c-0.06836,-0.62279 -0.08538,-1.2286 -0.06923,-1.82639c-3.97655,0.16415 -10.56396,-3.32165 -12.26628,-6.9513c-1.09872,-2.34266 -0.43031,-3.41377 -0.3217,-5.06625c-0.75706,0.08649 -1.49842,0.17121 -2.21415,0.25298c0,0 -0.21017,0.02401 -0.49651,-0.01525c-0.43717,0.14477 -0.92046,0.12371 -1.34876,-0.07097c-0.53139,0.09862 -1.1011,-0.03524 -1.54339,-0.41436c-0.10529,-0.09022 -0.19791,-0.18973 -0.27777,-0.29623c-1.26024,0.29237 -1.94564,-0.95226 -1.94564,-0.95226c-0.67789,-1.23096 -1.32833,-2.64695 -2.01202,-4.09467c-2.13425,0.22579 -4.20188,-0.11665 -6.16973,-1.95086c-0.69184,-0.64484 -1.66158,-1.15153 -1.96407,-2.04761c-0.44895,-1.33009 0.30912,-2.8727 -0.11858,-4.20978l0.33281,-0.92995c-0.00954,-0.4395 0.13656,-0.88398 0.44519,-1.24401c0.15226,-0.1776 0.33086,-0.31925 0.52504,-0.42417c0.06939,-0.04108 0.14467,-0.08056 0.22511,-0.11591c0.05967,-0.38954 0.27441,-0.80518 0.78846,-1.16997zM305.79417,436.84358c0.70379,0.4959 1.28877,0.79376 1.82535,0.94935c-0.63348,-1.10953 -1.32284,-2.15225 -2.09942,-3.04913c0.0093,0.08819 0.0151,0.17684 0.01689,0.26607c0.01061,0.5285 -0.66255,0.94884 -0.58914,1.47235c0.04263,0.30379 0.59559,0.18473 0.84633,0.36141zM315.91162,440.18927c-0.89923,0.18544 -1.7929,0.42377 -2.67877,0.65464c0.48634,0.98636 0.96914,1.95397 1.46798,2.87163c0.35443,-0.05685 0.72373,-0.01089 1.05927,0.14161c0.21409,-0.03976 0.43439,-0.04171 0.6501,-0.00515c0.20372,-0.06445 0.34854,-0.08102 0.34854,-0.08102l0.6773,-0.07739c0.64709,-0.07393 1.29417,-0.14785 1.94126,-0.2218c-0.35577,-0.91541 -1.38087,-1.45943 -2.54215,-2.44571l-0.70258,-0.60226c0,0 -0.09846,-0.08442 -0.22091,-0.23459zM328.44483,446.91495c-0.22859,-0.19591 -0.3976,-0.43546 -0.50537,-0.69579c-1.50135,0.17155 -3.0913,0.35321 -4.68515,0.53532c0.06312,0.29187 0.10167,0.58464 0.07288,0.87994c-0.09442,0.96861 -0.83092,2.0604 -0.33866,2.89992c1.28911,2.19855 6.28175,5.40989 8.84665,4.98657c0.17178,-0.02834 0.34697,-0.0596 0.52514,-0.0926c0.03285,-0.26224 0.06476,-0.52651 0.09417,-0.79352c0.05913,-0.53673 0.49955,-1.07597 0.32508,-1.587c-0.56625,-1.6587 -2.10803,-2.80844 -3.01099,-4.31067l-0.94111,-1.56857c-0.13466,-0.06683 -0.2633,-0.15131 -0.38265,-0.25362zM338.02928,462.7106c1.09797,0.19178 2.18377,0.44278 3.26566,0.71285c-0.39045,-0.78293 -0.82133,-1.52986 -1.30963,-2.21898c-0.26132,-0.36877 -1.83955,-2.22671 -2.24179,-2.39345c-0.57121,-0.23678 -1.15011,-0.30551 -1.7271,-0.28287c-0.1327,0.85873 -0.24436,1.65411 -0.27055,2.30001c-0.02272,0.56078 -0.74839,1.29694 -0.31534,1.65391c0.67097,0.55318 1.74211,0.07892 2.59873,0.22854zM350.19017,469.34687c-0.01633,-1.17462 -1.76984,-1.55873 -3.19936,-1.62394c0.34233,0.97769 0.66965,1.90087 1.00184,2.72109c0,0 0.01151,0.02837 0.02788,0.0793c0.31014,0.05732 0.60971,0.19474 0.86639,0.41476c0.04487,0.03846 0.08747,0.07859 0.1277,0.12026c0.06862,0.04806 0.10649,0.08051 0.10649,0.08051l0.41061,0.37747c0.34522,-0.70316 0.66907,-1.40628 0.65844,-2.16945z" fill="#000000" stroke="none" stroke-width="0.5"/><g stroke="none" stroke-width="0"><path d="M351.09448,477.84221l-52.46061,-44.96853l4.2158,-4.91819l52.46062,44.9685z" fill="url(#color-3)"/><path d="M306.19482,451.54328l-2.81039,-2.40901l16.26095,-18.97015l2.81041,2.40903z" fill="url(#color-4)"/><path d="M345.60805,452.01268l2.81039,2.40903l-16.26094,18.97013l-2.81039,-2.40904z" data-paper-data="{&quot;index&quot;:null}" fill="url(#color-5)"/><path d="M350.05768,461.5148l-15.65775,-18.70326l-21.3457,-13.0156l3.21203,-3.74718l21.11152,12.81484l15.89194,18.90401z" fill="url(#color-6)"/><path d="M335.83772,478.5779l-21.11152,-12.81484l-15.89197,-18.90403l3.21203,-3.74718l16.12615,19.10476l20.8773,12.61409z" data-paper-data="{&quot;index&quot;:null}" fill="url(#color-7)"/><path d="M348.37334,470.99671c1.76521,-2.05928 4.86551,-2.29769 6.92478,-0.5325c2.05928,1.76521 2.2977,4.86553 0.53253,6.92479c-1.76521,2.05928 -4.86553,2.29769 -6.92479,0.5325c-2.05928,-1.76519 -2.29769,-4.86551 -0.5325,-6.92478z" fill="#000000"/></g><path d="M308.02683,477.29835c-13.34809,-11.05227 -25.44711,-17.17694 -5.12417,-43.48646c18.41633,-23.84133 29.86542,-14.51487 43.21346,-3.46259c13.34806,11.05227 23.76346,20.45211 5.12419,43.48645c-19.59669,24.21754 -29.86541,14.5149 -43.21346,3.4626z" fill="url(#color-8)" stroke="#000000" stroke-width="0"/></g><g fill="#000000" stroke="none"><path d="M117.32974,467.86298c0.56238,0.28475 0.8362,0.66405 0.95282,1.0405c0.0848,0.02306 0.16508,0.05097 0.23978,0.08136c0.20758,0.07503 0.40515,0.18872 0.58201,0.34185c0.35846,0.31045 0.56871,0.72841 0.62427,1.16449l0.46669,0.8705c-0.22521,1.38562 0.75262,2.79915 0.50532,4.18102c-0.16661,0.93097 -1.05075,1.57551 -1.63962,2.31559c-1.67496,2.10509 -3.66921,2.74955 -5.81337,2.8419c-0.46206,1.53291 -0.89592,3.02951 -1.38432,4.3472c0,0 -0.4938,1.33231 -1.78342,1.22954c-0.06321,0.11714 -0.14011,0.22925 -0.23089,0.33406c-0.38133,0.44037 -0.925,0.65702 -1.46513,0.63807c-0.39479,0.25588 -0.86966,0.34818 -1.32342,0.26967c-0.27737,0.08117 -0.48878,0.08852 -0.48878,0.08852c-0.71995,0.02497 -1.4657,0.05083 -2.22722,0.07726c0.35181,1.61821 1.17126,2.57873 0.43111,5.05813c-1.14678,3.8415 -7.1462,8.26322 -11.1033,8.68899c0.1044,0.58883 0.17717,1.19049 0.20166,1.81655c0.04988,1.2749 0.79073,2.79091 0.04661,3.82729c-0.94028,1.30959 -2.8665,1.47949 -4.33487,2.14522c-1.83522,0.83206 -3.72764,1.53015 -5.60722,2.25838c-0.29135,1.47076 -0.5538,2.93212 -0.882,4.29475c0,0 -0.25805,1.07137 -1.20261,1.36157c-0.06374,0.29243 -0.19948,0.57355 -0.40922,0.81573c-0.0387,0.04467 -0.07905,0.08704 -0.12091,0.1271c-0.0484,0.06839 -0.08103,0.10609 -0.08103,0.10609l-1.5274,1.68811c-0.76165,0.334 -1.52326,0.66804 -2.28491,1.00202c0,0 -1.70935,0.70955 -2.41893,-0.99983c-0.30693,-0.73946 -0.16124,-1.29178 0.10296,-1.68053c-0.74296,-1.25564 -1.72433,-2.45194 -1.68917,-3.86226c0.0992,-3.9814 4.05279,-5.82495 7.39455,-6.09173c0.87327,-3.8179 2.22557,-7.65876 5.21562,-9.56677c0.75505,-0.4818 1.59761,-0.74159 2.46941,-0.87463c-0.23927,-1.03143 -0.36874,-1.9977 -0.25203,-2.76388c0.31465,-2.06577 1.80093,-3.77347 2.59744,-5.70528l0.74524,-1.80297c0,0 0.21036,-0.50889 0.67916,-0.85678c0.06454,-0.12198 0.14378,-0.2386 0.23799,-0.34735c0.09895,-0.11427 0.20884,-0.21351 0.32676,-0.29743c0.07433,-1.64917 1.78466,-1.70848 1.78466,-1.70848c1.82827,-0.06343 3.65658,-0.12683 5.48487,-0.19026c0.08991,-1.982 1.35384,-3.41198 3.01482,-5.34495l0.60581,-0.69956c0,0 0.16763,-0.19356 0.45019,-0.37437c0.38176,-1.22397 1.79171,-1.19724 1.79171,-1.19724c1.30731,0.02923 2.62223,-0.05609 3.92194,0.08769c0.28688,0.03174 0.55621,0.06695 0.81082,0.10267c0.93964,-2.66432 2.06838,-5.23651 3.77582,-7.26329l0.32249,-0.75918c0,0 0.83608,-1.65117 2.48725,-0.81508zM116.26284,475.4351c0.22187,-0.21184 0.78636,-0.17585 0.78358,-0.48262c-0.00482,-0.52859 -0.73274,-0.84476 -0.80042,-1.36902c-0.01142,-0.0885 -0.01877,-0.17702 -0.02263,-0.26563c-0.63538,1.00189 -1.16295,2.13509 -1.62537,3.32608c0.50767,-0.23322 1.04214,-0.61431 1.66485,-1.20885zM106.7515,480.24028c-0.0989,0.16664 -0.1838,0.2647 -0.1838,0.2647l-0.60579,0.69953c-1.00264,1.14718 -1.93601,1.83685 -2.15247,2.79479c0.65091,-0.02257 1.3018,-0.04516 1.95271,-0.06775l0.68128,-0.02364c0,0 0.14569,-0.00503 0.35669,0.02858c0.20792,-0.06807 0.42608,-0.09871 0.64371,-0.09106c0.30931,-0.20045 0.66774,-0.30052 1.0267,-0.29672c0.35762,-0.98134 0.692,-2.00972 1.02714,-3.05716c-0.91029,-0.09733 -1.82939,-0.20087 -2.74615,-0.25126zM95.35081,488.74564c-0.10291,0.11883 -0.21764,0.22138 -0.34094,0.30742l-0.69876,1.6905c-0.67083,1.61925 -2.02563,2.98436 -2.34033,4.70858c-0.09696,0.53122 0.41836,0.99937 0.55621,1.52147c0.06858,0.25974 0.1392,0.5164 0.21048,0.77088c0.18109,0.00629 0.359,0.01129 0.53307,0.0139c2.5993,0.03932 7.06207,-3.87509 8.01185,-6.24013c0.36267,-0.90311 -0.52719,-1.87394 -0.76382,-2.81794c-0.07214,-0.2878 -0.07733,-0.58304 -0.05806,-0.88103c-1.60326,0.05562 -3.20258,0.11108 -4.7128,0.16346c-0.06807,0.27341 -0.19982,0.53532 -0.39691,0.76289zM88.20792,505.78511c0.82509,-0.27468 1.95456,0.03595 2.53636,-0.61038c0.37549,-0.41713 -0.45105,-1.03783 -0.55647,-1.58909c-0.1214,-0.63493 -0.34947,-1.40507 -0.60775,-2.2347c-0.57399,0.06296 -1.13635,0.21655 -1.66626,0.5352c-0.37314,0.22439 -1.65926,2.29532 -1.86318,2.69868c-0.38102,0.75376 -0.69666,1.5562 -0.96705,2.38828c1.03005,-0.4271 2.06679,-0.8359 3.12433,-1.18798zM77.16222,514.14694c0.10236,0.75636 0.52665,1.40384 0.97207,2.0482l0.35027,-0.43402c0,0 0.03266,-0.03771 0.09341,-0.09537c0.03365,-0.04716 0.06983,-0.09315 0.10852,-0.13781c0.22132,-0.25557 0.49728,-0.43578 0.79552,-0.53834c0.00865,-0.05279 0.01583,-0.08257 0.01583,-0.08257c0.20723,-0.86033 0.39442,-1.82179 0.5884,-2.83934c-1.40415,0.27589 -3.08155,0.91513 -2.924,2.07925z" stroke-width="0.5"/><g stroke-width="0"><path d="M72.62745,518.442l45.23302,-52.23273l4.89683,4.24061l-45.23303,52.23273z"/><path d="M99.15293,473.67582l2.4232,-2.7982l18.88772,16.35658l-2.4232,2.79816z"/><path d="M98.01804,512.68227l-2.4232,2.7982l-18.88772,-16.35657l2.4232,-2.79817z" data-paper-data="{&quot;index&quot;:null}"/><path d="M72.40402,503.15044l12.92133,-21.04648l18.9841,-15.79623l3.73091,3.23092l-19.18601,16.02942l-12.71943,20.81331z"/><path d="M88.99118,517.92282l18.78214,-15.56305l13.12331,-21.27965l3.73092,3.23092l-12.92136,21.04651l-18.9841,15.79623z" data-paper-data="{&quot;index&quot;:null}"/><path d="M79.70059,522.43734c-1.77556,2.05033 -4.87705,2.27307 -6.9274,0.49751c-2.05033,-1.77556 -2.27306,-4.87704 -0.49748,-6.92738c1.77556,-2.05033 4.87704,-2.27307 6.9274,-0.49751c2.05033,1.77556 2.27307,4.87705 0.49751,6.9274z"/></g></g><g><path d="M165.66166,473.66111c-14.09983,10.07564 -25.03216,19.02392 -42.85807,-6.52518c-16.95499,-24.30085 -5.89786,-32.93666 8.20198,-43.01229c14.09983,-10.07564 26.1828,-18.56478 42.85807,6.52518c18.40162,27.68744 5.89789,32.93666 -8.20198,43.01229z" fill="#525252" stroke="#000000" stroke-width="0"/><path d="M173.04889,426.58977c0.48683,0.4004 0.67149,0.83025 0.70332,1.22305c0.07773,0.04099 0.15001,0.08572 0.21631,0.13162c0.18625,0.11846 0.35432,0.27243 0.49356,0.46041c0.28225,0.38107 0.39639,0.83481 0.35564,1.2725l0.26586,0.95125c-0.52162,1.30331 0.12486,2.89589 -0.41749,4.1907c-0.3654,0.87232 -1.36871,1.3088 -2.10463,1.90285c-2.09326,1.68972 -4.18,1.88433 -6.29279,1.50742c-0.78487,1.39546 -1.53428,2.76162 -2.29795,3.9413c0,0 -0.77213,1.19277 -2.00841,0.81157c-0.08722,0.10057 -0.18668,0.19323 -0.29811,0.27574c-0.46811,0.34673 -1.0459,0.43976 -1.56894,0.30363c-0.44104,0.16374 -0.9246,0.15039 -1.35038,-0.02507c-0.28841,0.0188 -0.49633,-0.02007 -0.49633,-0.02007c-0.7081,-0.13244 -1.44158,-0.26964 -2.19058,-0.4097c-0.00911,1.65599 0.58146,2.77192 -0.68097,5.03057c-1.95598,3.49947 -8.77448,6.50828 -12.72931,6.06191c-0.02636,0.59742 -0.08642,1.20051 -0.19887,1.81686c-0.229,1.25515 0.16384,2.89614 -0.78814,3.74555c-1.20296,1.07335 -3.11994,0.81959 -4.69803,1.1495c-1.97239,0.41235 -3.97143,0.68149 -5.9645,0.98284c-0.60471,1.37199 -1.17915,2.7411 -1.79628,3.99951c0,0 -0.48522,0.98943 -1.4703,1.06693c-0.12591,0.27153 -0.31962,0.51633 -0.57707,0.70702c-0.0475,0.03516 -0.09611,0.06773 -0.14569,0.09772c-0.06213,0.0562 -0.10219,0.08591 -0.10219,0.08591l-1.85841,1.3149c-0.8161,0.16008 -1.63219,0.3202 -2.44832,0.48029c0,0 -1.82285,0.32018 -2.14306,-1.5027c-0.1385,-0.78855 0.12402,-1.29589 0.46651,-1.61776c-0.45163,-1.38732 -1.14885,-2.76865 -0.80737,-4.13746c0.96402,-3.8642 5.22423,-4.80235 8.54389,-4.33484c1.68391,-3.536 3.84031,-6.99011 7.17418,-8.20103c0.84186,-0.30577 1.72078,-0.3758 2.60062,-0.31576c-0.00886,-1.05879 0.07523,-2.03006 0.35602,-2.75242c0.75703,-1.94764 2.5796,-3.2906 3.77777,-5.00252l1.12007,-1.59736c0,0 0.31616,-0.45084 0.84947,-0.68828c0.08957,-0.105 0.1923,-0.20156 0.30793,-0.28719c0.12146,-0.08997 0.25035,-0.16289 0.3837,-0.2191c0.43176,-1.59339 2.11394,-1.27874 2.11394,-1.27874c1.79819,0.33632 3.59641,0.67265 5.39462,1.00899c0.51945,-1.91485 2.06453,-3.03518 4.10665,-4.55995l0.74363,-0.55081c0,0 0.20576,-0.15241 0.52093,-0.26731c0.63919,-1.11141 2.00947,-0.77821 2.00947,-0.77821c1.26956,0.31327 2.57148,0.51643 3.80867,0.93982c0.27308,0.09347 0.52827,0.1865 0.769,0.27682c1.49742,-2.39567 3.1593,-4.66027 5.26722,-6.26647l0.48009,-0.6707c0,0 1.17567,-1.42942 2.60509,-0.25375zM170.35831,433.74769c0.26268,-0.15841 0.80579,-0.00034 0.8699,-0.30034c0.11043,-0.51695 -0.53114,-0.98408 -0.483,-1.5105c0.00812,-0.08887 0.02024,-0.17687 0.03577,-0.26419c-0.83836,0.83942 -1.60009,1.83051 -2.31082,2.89221c0.54627,-0.11705 1.15092,-0.37256 1.8882,-0.81719zM160.02868,436.3658c-0.13284,0.14109 -0.23703,0.21829 -0.23703,0.21829l-0.74361,0.55081c-1.22843,0.90126 -2.28961,1.37105 -2.70955,2.25884c0.6402,0.11974 1.28038,0.23947 1.92057,0.35922l0.67008,0.12532c0,0 0.14328,0.02682 0.3419,0.10559c0.21776,-0.02115 0.43737,-0.00354 0.64808,0.05133c0.34554,-0.12826 0.71718,-0.14785 1.06666,-0.06596c0.56279,-0.8799 1.11313,-1.81074 1.66836,-2.76002c-0.86722,-0.29326 -1.74172,-0.59451 -2.62547,-0.84339zM147.04914,442.18369c-0.12631,0.09356 -0.26063,0.16866 -0.39971,0.22578l-1.0502,1.4977c-1.00744,1.43426 -2.62703,2.4715 -3.30974,4.08576c-0.21035,0.49733 0.19063,1.06652 0.21146,1.60608c0.01035,0.26844 0.02339,0.53432 0.03753,0.79821c0.17538,0.04559 0.3479,0.08921 0.51725,0.1297c2.52833,0.60454 7.73657,-2.24383 9.17869,-4.34519c0.55068,-0.80241 -0.10636,-1.94378 -0.1317,-2.91666c-0.00772,-0.2966 0.05152,-0.58588 0.13523,-0.87253c-1.57687,-0.29495 -3.14988,-0.58915 -4.63524,-0.86697c-0.12599,0.25202 -0.31162,0.47896 -0.55355,0.65811zM136.36629,457.25823c0.8651,-0.08837 1.8998,0.46081 2.6084,-0.04327c0.45732,-0.32531 -0.21418,-1.11117 -0.19699,-1.67215c0.01981,-0.64613 -0.03504,-1.44744 -0.10639,-2.31343c-0.57392,-0.06358 -1.15625,-0.03617 -1.74284,0.1594c-0.41306,0.13772 -2.11937,1.8788 -2.40623,2.22806c-0.53605,0.65268 -1.01891,1.3671 -1.46403,2.1203c1.09835,-0.19248 2.19924,-0.36567 3.30807,-0.47893zM123.76446,463.01337c-0.06485,0.76049 0.20822,1.48485 0.50259,2.21077l0.43641,-0.34733c0,0 0.04007,-0.02969 0.11193,-0.07275c0.04312,-0.03868 0.08846,-0.07571 0.13594,-0.11087c0.27168,-0.20122 0.58026,-0.317 0.89368,-0.35213c0.01994,-0.04964 0.03345,-0.07713 0.03345,-0.07713c0.38963,-0.79453 0.78176,-1.69213 1.19271,-2.643c-1.43053,-0.03658 -3.20689,0.22195 -3.30668,1.39244z" fill="#000000" stroke="none" stroke-width="0.5"/><g stroke="none" stroke-width="0"><path d="M118.40307,466.21754l55.52404,-41.12621l3.85559,5.20538l-55.52404,41.12622z" fill="#000000"/><path d="M154.04239,428.30384l2.97453,-2.20319l14.87153,20.0779l-2.9745,2.20318z" fill="url(#color-9)"/><path d="M144.43856,466.12658l-2.97451,2.20321l-14.87153,-20.07789l2.97451,-2.20319z" data-paper-data="{&quot;index&quot;:null}" fill="url(#color-10)"/><path d="M121.51571,451.24449l17.19534,-17.7267l21.96893,-11.28195l2.93759,3.966l-22.2168,11.46557l-16.94748,17.54311z" fill="url(#color-11)"/><path d="M134.48698,469.27511l21.72103,-11.09835l17.44322,-17.9103l2.93759,3.966l-17.19536,17.72671l-21.96893,11.28195z" data-paper-data="{&quot;index&quot;:null}" fill="url(#color-12)"/><path d="M124.43613,471.65759c-2.17951,1.61437 -5.25506,1.1562 -6.86944,-1.02332c-1.61437,-2.17951 -1.1562,-5.25504 1.02334,-6.86942c2.17951,-1.61437 5.25504,-1.1562 6.86942,1.02332c1.61437,2.17951 1.1562,5.25506 -1.02332,6.86942z" fill="#000000"/></g><path d="M165.25604,473.94147c-14.09981,10.07563 -25.03216,19.0239 -42.85807,-6.52519c-16.95499,-24.30087 -5.89786,-32.93666 8.20198,-43.01228c14.09981,-10.07563 26.1828,-18.56478 42.85807,6.52518c18.40162,27.68744 5.89789,32.93666 -8.20198,43.01229zM145.7663,426.92105l-1.19882,-0.83229c-2.70217,-1.34685 -4.05328,-0.91296 -6.9476,-0.41379c-0.94896,0.19051 -1.9872,0.12683 -2.8469,0.5715c-3.55146,1.83701 -2.32638,5.79591 -4.53473,7.92168c-1.66962,1.60719 -4.81546,0.36839 -6.66754,2.85521c-1.09697,1.47291 -1.13505,4.55075 -0.3379,6.16205c1.36568,2.7605 3.75691,2.73735 6.01479,3.73921c0.90877,0.40323 0.47703,1.93127 0.76494,2.88284c0.69625,2.30116 1.71348,5.29495 3.77638,6.72918c2.89039,2.00956 4.10829,0.71184 6.9559,1.64555c5.05725,0.43194 14.26924,-7.0397 12.94089,-12.85537c-0.67836,-2.96996 -3.83642,-4.19391 -4.50558,-6.99303c-1.02636,-4.2932 0.50915,-7.75935 -2.80033,-10.70657c-0.24453,-0.44577 -0.6135,-0.70619 -0.6135,-0.70619z" fill="url(#color-13)" stroke="#000000" stroke-width="0"/><path d="M145.79983,426.85512c0,0 0.37244,0.2623 0.61698,0.70807c3.30949,2.94722 1.80766,6.45567 2.83402,10.74886c0.66916,2.79912 3.82852,4.06175 4.50689,7.03171c1.32836,5.81567 -7.94456,13.34351 -13.00182,12.91157c-2.84761,-0.93371 -4.09786,0.36172 -6.98825,-1.64784c-2.0629,-1.43423 -3.11154,-4.44695 -3.80778,-6.74811c-0.28792,-0.95158 0.13257,-2.49437 -0.7762,-2.89759c-2.25788,-1.00186 -4.65876,-1.00856 -6.02444,-3.76906c-0.79715,-1.61131 -0.75595,-4.71888 0.34102,-6.19178c1.85208,-2.48682 5.01449,-1.27623 6.6841,-2.88342c2.20834,-2.12577 1.02093,-6.10618 4.57239,-7.94319c0.8597,-0.44467 1.91127,-0.38274 2.86023,-0.57325c2.89432,-0.49917 4.2761,-0.92772 6.97827,0.41913l1.2046,0.83493z" data-paper-data="{&quot;noHover&quot;:false,&quot;origItem&quot;:[&quot;Path&quot;,{&quot;applyMatrix&quot;:true,&quot;segments&quot;:[[176.60411,134.48781],[[175.79368,133.92516],[0,0],[-1.82673,-0.9105]],[[171.09694,133.64543],[1.95663,-0.33745],[-0.64152,0.12879]],[[169.17237,134.03178],[0.58118,-0.30061],[-2.40087,1.24186]],[[166.10679,139.38702],[1.49289,-1.43707],[-1.1287,1.0865]],[[161.59938,141.31721],[1.25205,-1.68115],[-0.74158,0.99572]],[[161.37095,145.4829],[-0.53889,-1.08928],[0.92323,1.86616]],[[165.43709,148.01069],[-1.52638,-0.67728],[0.61435,0.27259]],[[165.95421,149.95956],[-0.19464,-0.64329],[0.47068,1.55564]],[[168.50713,154.50864],[-1.39457,-0.96957],[1.95397,1.35851]],[[173.20948,155.62107],[-1.92505,-0.63121],[3.41882,0.292]],[[181.95782,146.93054],[0.898,3.93153],[-0.45859,-2.00776]],[[178.91194,142.20309],[0.45237,1.89227],[-0.69384,-2.9023]],[[177.01885,134.9652],[2.23729,1.99239],[-0.16531,-0.30135]],[176.60411,134.4878]],&quot;closed&quot;:true,&quot;fillColor&quot;:[0,0,0,1]}]}" fill="#000000" stroke="none" stroke-width="0.5"/></g><path d="M52.47435,531.00139c1.73102,-7.30081 10.92575,-11.37198 20.53705,-9.09316c6.51509,1.54471 12.89806,4.22855 14.9262,8.96185c0.96384,2.24943 15.52623,20.09162 13.76561,22.958c-1.28567,2.44221 -15.13284,-8.34202 -15.89179,-2.97642c-1.39775,9.88209 -9.84944,22.7745 -11.45255,22.36797c-4.42266,-0.63683 -0.57297,-23.40283 -1.86763,-23.91169c-1.58644,-0.62353 -3.98776,17.55089 -12.21677,22.01333c-4.88045,-11.95252 3.17443,-23.3443 1.96975,-24.04113c-1.50681,-0.87157 -0.07778,6.33654 -15.21076,19.49335c-3.05364,-16.67836 4.32456,-31.06365 5.44095,-35.77213z" fill="url(#color-14)" stroke="#000000" stroke-width="0"/><g><path d="M240.17148,591.29393c-46.80733,0 -95.92826,-51.78513 -84.75215,-94.69039c7.50835,-28.82465 16.89582,-62.6573 32.90149,-86.75168c0.41916,0.47183 1.01736,0.62138 1.01736,0.62138c4.26181,1.03772 5.78039,-0.10442 9.41553,-1.51891c2.7607,-1.07424 5.63306,0.6837 8.55235,-0.55923c1.50789,-0.642 2.45965,-2.17285 3.77799,-3.14646c1.04186,-0.76943 2.50021,-0.72947 3.65814,-1.30969c4.58147,-2.29565 8.42714,-6.24153 11.76139,-9.83741c0.26944,-5.21078 3.61431,-9.20093 4.37716,-14.41936c0.03595,-0.24585 0.06917,-0.49075 0.1,-0.7348c2.7165,-0.43731 5.53195,-0.67631 8.45116,-0.70203c49.18367,-0.43351 72.49328,61.33735 84.03711,111.78104c-3.04464,0.72372 -6.39846,0.84297 -8.28724,3.72335c-0.88728,1.35309 -0.42324,3.48546 -1.61807,4.57654c-0.31432,0.28703 -0.82206,-0.24767 -1.24676,-0.27616c-1.71728,-0.11516 -5.82859,0.22922 -7.36417,0.88037c-3.121,1.3234 -5.98966,6.2344 -7.52187,8.87202c-0.32521,0.55982 -0.01211,1.43002 -0.4742,1.88349c-0.50299,0.49361 -1.49322,0.12545 -2.03375,0.57764c-1.4321,1.19807 -2.9033,4.71243 -3.6357,6.22196c-0.13162,7.03457 -0.98846,11.6217 2.35742,18.24846c1.26676,2.50891 1.14755,4.92739 3.27626,7.11489c2.28168,2.3447 5.2175,3.67586 7.69382,5.68498c2.94262,2.38743 3.97427,5.73795 6.24589,8.47042c-16.58967,21.52197 -44.01509,35.28959 -70.68915,35.28959z" fill="#000000" stroke="#000000" stroke-width="0"/><g stroke="none"><path d="M241.24006,345.60485c0.34357,-0.32221 1.58832,-1.29873 2.83308,0.09282c1.46292,1.63545 0,3.27094 0,3.27094l-1.98014,1.25564c-0.60536,-0.00578 -1.21073,-0.01154 -1.81608,-0.01734c-1.90789,0.16127 -2.32872,3.33499 -2.32167,5.22131c0.0128,3.42092 0.87766,6.75711 2.71279,9.63384c1.98134,3.10593 3.54335,3.09818 4.00097,7.48491c0.20406,1.95612 -0.23086,3.93887 -0.54574,5.87651c-0.92349,5.68294 -1.40571,10.91979 -2.84987,16.4701c-0.42536,1.63471 -0.30073,3.46337 -0.97543,4.98962c-1.45005,3.2802 -5.20139,6.17464 -7.07726,9.37666c0.04176,1.67414 0.05719,5.85731 0.50562,7.33469c2.73644,9.0151 12.84361,18.33998 10.39327,28.92306c-0.4084,1.76387 -1.03386,3.50606 -1.95165,5.01171c-1.23525,2.02642 -3.53887,2.95111 -5.0089,4.77115c-1.38134,1.71027 -3.07998,4.33988 -3.35264,6.75934c-0.413,3.66502 1.83804,7.50402 5.18324,7.27806c0,0 2.06886,0.00001 2.06886,2.31289c0,2.31288 -2.06886,2.31289 -2.06886,2.31289c-5.75247,-0.21396 -9.98781,-5.69455 -9.29888,-12.38147c0.36326,-3.52562 2.36532,-6.82086 4.39281,-9.37635c2.31764,-2.92119 5.14201,-3.63063 5.98274,-7.6183c1.02254,-4.8501 -2.33917,-10.2185 -4.20413,-14.19599c-1.7983,-3.83533 -4.8518,-8.25546 -6.05938,-12.32771c-0.8774,-2.95882 -0.60257,-7.03255 -0.56076,-10.07446c0.84635,-1.56419 1.56403,-3.22498 2.53903,-4.69258c1.38668,-2.08731 3.8788,-3.236 4.86582,-5.59028c0.52463,-1.25136 0.31518,-2.75118 0.64754,-4.08229c1.03439,-4.14288 1.72074,-7.606 2.22988,-11.8978c0.32278,-2.72088 2.02258,-7.959 0.74455,-10.75129c-0.62575,-1.36714 -2.15854,-1.95913 -2.95759,-3.20831c-1.28084,-2.00234 -3.06183,-6.06006 -3.45649,-8.43188c-0.60332,-3.62588 -0.06439,-10.11425 2.80588,-12.64952c0.85118,-0.75184 2.07376,-0.7131 3.11065,-1.06964c0.48957,-0.00365 0.97912,-0.00729 1.46869,-0.01095z" fill="#000000" stroke-width="0.5"/><path d="M235.51009,474.75826v-127.09355h7.70083v127.09355z" fill="#000000" stroke-width="0"/><path d="M263.50114,567.06824c-1.05993,-2.20022 -4.51372,-2.17562 -6.26279,-4.07023c-0.35441,-0.38391 -2.97652,-5.76044 -3.05799,-6.20158c-0.13455,-0.72884 0.74037,-1.4805 0.47441,-2.17228c-0.36565,-0.951 -1.56572,-1.33905 -2.14633,-2.17632c-0.70199,-1.01226 -1.10304,-2.20306 -1.65456,-3.30456c-1.44093,-1.72092 -3.92813,-2.71812 -4.69358,-4.82809c-1.39455,-3.84408 0.04451,-11.00459 0.17896,-15.0863c0.03762,-1.1416 0.32428,-3.31749 -0.50162,-4.4768c-2.50098,-3.51049 -6.87466,-5.75968 -8.0883,-10.20222c-1.03529,-3.78963 1.97478,-6.90933 3.61119,-9.59402c1.48536,-2.43685 1.01736,-6.32166 -0.11966,-8.7272c-0.6858,-1.45094 -1.36238,-2.22441 -2.19666,-2.86606c-0.56304,4.73938 -1.06091,9.92074 -2.77118,13.8517c-1.35788,3.12106 -5.61703,6.62399 -8.11141,8.76162c-0.78524,0.67292 -2.96536,1.53597 -3.44052,2.83548c-2.03172,5.55632 1.74262,6.47855 2.65902,11.6784c0.9838,5.58212 -5.67961,13.84807 -9.7215,17.2512c-0.2665,1.36109 1.34198,2.44166 1.80429,3.74931c0.66226,1.87319 0.83204,5.56726 -0.04535,7.52865c-2.08941,4.67079 -7.41193,6.79898 -8.93031,11.97762c-0.13797,0.47058 0.16004,2.54648 0.33737,3.67692c-1.64358,0.0975 -3.28122,0.19051 -4.90772,0.25157c-0.49652,-5.16312 0.80444,-8.74939 4.42121,-13.12061c1.38162,-1.66985 3.56917,-2.7264 4.51974,-4.67416c1.51354,-3.10127 -1.7055,-5.05452 -2.19664,-7.62148c-0.26218,-1.37032 0.44354,-2.75485 0.66532,-4.13225c3.3081,-3.17491 7.31206,-8.00694 9.26372,-12.28257c1.18286,-2.59141 -2.67473,-5.72785 -3.27841,-7.57999c-0.65087,-1.99684 0.27323,-7.21107 0.93577,-8.78715c2.06403,-4.91007 9.47632,-6.42811 11.47978,-11.43464c1.23996,-3.09858 1.76595,-6.90895 2.20847,-10.63984c-3.26032,0.45211 -6.58939,-0.57498 -9.57812,-3.79237c-1.03374,-1.11285 -1.94362,-2.34662 -2.74587,-3.63634c-0.39411,-0.63357 -0.24385,-1.60326 -0.81327,-2.08545c-1.00649,-0.85234 -2.54627,0.68927 -3.81292,1.0569c-2.52117,0.73176 -5.91594,2.39026 -8.59312,2.13723c-5.97584,-0.56479 -6.60816,-4.15043 -8.3043,-8.94946c-0.35985,-1.01809 -1.20564,-1.87193 -1.35839,-2.94089c-0.18724,-1.31043 0.97693,-6.45717 1.20786,-7.59563c-0.00694,-1.74695 0.76512,-3.57233 0.23155,-5.23581c-0.40213,-1.25368 -2.38212,-1.13046 -3.51614,-1.79936c-1.60375,-0.94594 -4.84464,-3.08441 -5.54296,-4.87321c-0.9735,-2.49375 -0.02782,-6.19223 1.81467,-8.05996c0.80051,-0.81148 2.2063,-0.72986 3.10695,-1.42856c2.6051,-2.02098 4.55835,-5.70111 3.76419,-8.49895c1.4635,-0.34456 2.93323,-0.83867 4.54847,-1.52734c1.05465,2.46286 1.15533,5.26504 -0.19261,7.88162c-0.54236,1.05279 -5.02052,5.97962 -5.2187,6.13717c-0.81576,0.64853 -4.44973,1.21728 -3.26329,3.60735c1.6149,3.25326 7.33033,2.87274 8.9477,6.4233c0.32558,0.71474 0.23526,6.77321 0.23153,7.86008c-0.41568,2.10627 -1.61125,4.20286 -1.24759,6.31873c0.12732,0.74079 0.84731,1.26111 1.09708,1.97002c0.47367,1.34451 0.5063,2.82896 1.0569,4.14384c0.77666,1.8546 3.12562,1.71854 4.63724,1.29916c3.42436,-0.95007 9.37289,-4.20423 12.88309,-2.19488c1.27198,0.72817 1.61568,2.44642 2.46073,3.64397c2.05849,2.91722 5.3085,6.1246 8.77965,5.39273c0.10467,-0.75221 0.21807,-1.48507 0.34639,-2.19075c0,0 0.13017,-0.71604 0.638,-1.2997l-1.49982,-1.07575c0,0 -1.92695,-1.54154 -0.3854,-3.46849c1.54154,-1.92695 3.46849,-0.38539 3.46849,-0.38539l2.52886,2.15247c0.16196,0.61084 0.40774,1.10549 0.72209,1.49962l0.63004,-0.79c0.19011,-0.24273 0.42469,-0.44895 0.69149,-0.6064c0.62353,-0.40046 1.6236,-0.71486 2.76081,0.17359c0.01975,0.01525 0.03923,0.03083 0.05849,0.04666c0.94988,0.77382 1.0351,1.64181 0.88527,2.31329c3.17473,-0.58619 6.80052,-2.4724 8.67584,-3.40901c1.00782,-0.50334 1.775,-1.39753 2.74125,-1.97665c1.10172,-0.66033 2.29048,-1.16339 3.4432,-1.73006c1.0535,-0.51788 5.14293,-2.39402 4.08968,-4.35842c-0.96088,-1.79216 -2.85184,-2.9325 -3.97511,-4.62761c-1.38671,-4.29635 -2.12814,-13.71987 2.00163,-17.00042c2.32869,-1.84985 5.03708,-0.56321 7.28411,-3.21344c2.76538,-3.26159 -0.69906,-7.37078 0.46666,-10.85548c0.37968,-1.13495 1.77917,-1.60449 2.6051,-2.47057c4.63733,-4.86266 10.71712,-4.85994 16.5844,-7.8113c0,0 2.20716,-1.10357 3.31074,1.10359c1.1036,2.20717 -1.1036,3.31073 -1.1036,3.31073c-2.9111,1.44782 -5.94983,2.61889 -9.1029,3.46173c-1.48248,0.39629 -3.1359,0.18538 -4.44039,1.22071c-0.74906,0.59448 -1.0923,1.58888 -1.79346,2.23911c-0.41317,0.38315 -1.31061,0.26836 -1.48735,0.80342c-0.50753,1.53649 1.01844,3.13239 0.99939,4.75041c-0.03083,2.61652 -0.47683,5.20163 -2.16967,7.31188c-1.25018,1.55844 -4.13329,3.50241 -6.10963,4.0973c-0.6889,0.20739 -1.50887,-0.2553 -2.15766,0.05568c-0.34806,0.16684 -0.25184,0.73625 -0.29458,1.11986c-0.33531,3.0112 -1.18574,6.81138 -0.15927,9.70841c1.24389,1.84924 3.59149,3.05309 4.20981,5.19427c2.48983,8.62209 -11.67911,13.37911 -17.31966,15.75434c-2.49539,1.05081 -5.47891,2.13231 -8.25228,2.31066c3.80744,4.48917 5.26874,10.54545 2.15163,16.28601c-0.8516,1.56829 -3.72092,3.62542 -2.96929,6.03467c1.50808,4.83396 7.72997,6.425 8.65213,12.01105c0.66691,4.04001 -0.16428,8.72369 -0.37953,12.79289c-0.0676,1.27811 -0.6403,2.61953 -0.23236,3.83265c0.2549,0.75805 1.40358,0.8016 1.97791,1.35818c0.89049,0.86297 1.58449,1.90794 2.37672,2.8619c1.21524,2.43387 3.44796,4.31858 4.42471,6.85756c0.33333,0.86641 -0.48158,1.84442 -0.34817,2.76313c0.19743,1.35961 0.98183,2.62734 1.87741,3.66918c1.39443,1.62216 2.77609,0.77971 4.49684,2.07663c4.25348,3.20584 3.95396,9.19125 3.9359,13.90297c-1.66068,-0.02822 -3.3007,-0.08278 -4.93032,-0.16159c0.04319,-2.72491 0.28036,-5.94912 -0.9396,-8.4815z" fill="#000000" stroke-width="0.5"/><path d="M231.44977,571.25539v-75.74913h17.18833v75.74913z" fill="url(#color-15)" stroke-width="0"/><path d="M225.72037,495.6904v-26.19173h27.82872v26.19173z" fill="url(#color-16)" stroke-width="0"/><path d="M255.56402,491.433v-60.8615h7.40306v60.8615z" data-paper-data="{&quot;index&quot;:null}" fill="url(#color-17)" stroke-width="0"/><path d="M216.30699,493.10052v-61.68001h7.40306v61.68001z" data-paper-data="{&quot;index&quot;:null}" fill="url(#color-18)" stroke-width="0"/><path d="M216.90178,498.61545v-8.01996h45.34662v8.01996z" fill="url(#color-19)" stroke-width="0"/><path d="M253.07144,495.05413l25.25008,-68.69507l8.73579,3.21097l-25.25008,68.6951z" fill="url(#color-20)" stroke-width="0"/><path d="M216.48412,497.96529l-25.79957,-70.19006l8.92589,-3.28089l25.79962,70.19007z" data-paper-data="{&quot;index&quot;:null}" fill="url(#color-21)" stroke-width="0"/><path d="M179.52111,430.84736v-6.72384h121.25674v6.72384z" fill="url(#color-22)" stroke-width="0"/><path d="M183.45562,427.33148c0,3.03189 -2.45781,5.48969 -5.48968,5.48969c-3.03188,0 -5.48971,-2.4578 -5.48971,-5.48969c0,-3.03189 2.45781,-5.48969 5.48971,-5.48969c3.03188,0 5.48968,2.45781 5.48968,5.48969z" fill="#000000" stroke-width="0"/><path d="M307.27215,427.65293c0,3.03189 -2.45781,5.48969 -5.48968,5.48969c-3.03188,0 -5.48968,-2.45781 -5.48968,-5.48969c0,-3.03189 2.45781,-5.48968 5.48968,-5.48968c3.03188,0 5.48968,2.45781 5.48968,5.48968z" fill="#000000" stroke-width="0"/><path d="M192.15816,578.49396v-6.84675h100.14906v6.84675z" fill="#000000" stroke-width="0"/><path d="M198.67659,575.16202c0,3.97933 -3.2259,7.20521 -7.20521,7.20521c-3.97933,0 -7.20523,-3.22587 -7.20523,-7.20521c0,-3.97933 3.22588,-7.20521 7.20523,-7.20521c3.97933,0 7.20521,3.2259 7.20521,7.20521z" fill="#000000" stroke-width="0"/><path d="M298.99347,575.50683c0,3.97933 -3.2259,7.20521 -7.20521,7.20521c-3.97935,0 -7.20523,-3.22588 -7.20523,-7.20521c0,-3.97933 3.22588,-7.20523 7.20523,-7.20523c3.97935,0 7.20521,3.2259 7.20521,7.20523z" fill="#000000" stroke-width="0"/></g><path d="M239.87565,591.04739c-46.80733,0 -95.92826,-51.78513 -84.75215,-94.69039c7.37503,-28.31278 16.56301,-61.4573 32.05504,-85.45896c1.6202,-0.21128 4.97961,0.02535 6.02303,0.80102c0.75224,0.5592 0.91648,1.87925 1.81435,2.14831c3.21456,0.96328 8.0996,-3.49785 10.82785,-1.98043c3.79207,2.10911 4.08631,4.66747 9.16576,3.50262c1.45773,-0.58153 2.78347,-1.50486 4.29364,-1.93209c3.16112,-0.89429 6.96483,1.11728 10.49875,-0.04022c1.49147,-0.48852 2.75909,-1.60298 4.29364,-1.93209c2.76777,-0.59359 6.23288,-0.16643 8.86856,-1.66978c1.97496,-1.12648 3.03351,-3.77434 4.93079,-4.93079c2.81634,-1.71666 5.65905,1.49927 7.81597,2.59055c2.11,0.52494 4.79115,1.07804 6.9833,0.55847c1.50097,-0.35576 3.62579,-1.672 5.29037,-1.44082c0.65686,0.09122 1.10447,0.79267 1.74926,0.94773c3.57538,0.85987 7.97619,-0.49664 11.4985,-0.95054c2.7845,-0.35883 5.64651,-0.12255 8.49974,0.0385c15.89178,21.49576 26.00238,51.85345 32.56666,79.4251c-1.18191,-0.56051 -2.41458,-1.02337 -3.76861,-1.27274c-7.76799,-1.43059 -18.80566,-0.37132 -25.61465,3.17461c-3.16485,1.64815 -4.01272,5.4778 -6.4028,7.79374c-0.63439,0.88998 -1.10054,1.9281 -1.90314,2.66995c-0.73898,0.68305 -3.64983,0.34852 -4.06417,0.53134c-2.40023,1.05914 -7.17909,7.39192 -8.34962,9.77135c-0.85868,1.74549 -0.67656,3.83305 -0.91379,5.7638c-0.24792,2.01784 -1.22734,3.8996 -1.47924,5.91696c-0.49695,3.97991 0.22181,7.80398 0.74932,11.61439c0.71721,5.18074 -1.66623,9.55177 -1.42346,14.70201c-2.33927,3.31511 -4.40415,8.9787 -2.89706,13.07733c0.24066,0.65447 1.2167,0.83323 1.47924,1.47924c1.02769,2.5288 1.75887,6.38592 1.36236,9.35089c-0.47688,3.56594 -4.8717,3.86004 -6.40429,6.72027c-1.79525,3.35042 0.53689,6.6017 1.68752,9.99077c-8.00672,2.42832 -16.27922,3.72989 -24.48068,3.72989z" fill="url(#color-23)" stroke="#000000" stroke-width="0"/></g><g fill="#000000" stroke-width="0"><path d="M216.09058,325.32872v-6.55142h45.85999v6.55142z" stroke="none"/><path d="M221.52792,384.99682v-42.39576h4.38824v42.39578z" stroke="none"/><path d="M252.40269,383.63764v-41.19299h4.38825v41.19299z" data-paper-data="{&quot;index&quot;:null}" stroke="none"/><path d="M215.93353,345.54565v-6.55142h45.86001v6.55142z" stroke="none"/><path d="M259.03502,345.54565v-47.58405h7.24104v47.58405z" stroke="#000000"/><path d="M211.45098,345.54565v-47.58405h7.24107v47.58405z" data-paper-data="{&quot;index&quot;:null}" stroke="#000000"/><g stroke="none"><g data-paper-data="{&quot;index&quot;:null}"><path d="M254.1814,349.00593v5.68941h-4.48254v-5.68941z"/><path d="M247.97478,349.00593v5.68941h-4.48257v-5.68941z"/><path d="M241.76819,348.83355v5.68939h-4.48255v-5.68939z"/><path d="M235.56155,348.83355v5.68939h-4.48257v-5.68939z"/><path d="M229.4699,348.71862v5.68939h-4.48257v-5.68939z"/></g><path d="M256.81652,342.45234v7.93066h-35.17083v-7.93066z" data-paper-data="{&quot;index&quot;:null}"/></g><g stroke="#000000"><g><path d="M261.00352,266.33722c12.28302,0 22.24037,9.95735 22.24037,22.24037c0,12.28302 -9.95736,22.24039 -22.24037,22.24039c-12.28302,0 -22.24037,-9.95736 -22.24037,-22.24039c0,-12.28302 9.95735,-22.24037 22.24037,-22.24037z"/></g><g data-paper-data="{&quot;index&quot;:null}"><path d="M238.76318,288.06037c0,12.28302 -9.95735,22.24037 -22.24037,22.24037c-12.28302,0 -22.24037,-9.95735 -22.24037,-22.24037c0,-12.28302 9.95735,-22.24037 22.24037,-22.24037c12.28302,0 22.24037,9.95735 22.24037,22.24037z"/></g></g></g><g stroke-width="0"><g fill="#000000" stroke="none"><g><path d="M249.69888,373.45106v-5.68939h4.48254v5.68939z"/><path d="M243.49224,373.45106v-5.68939h4.48257v5.68939z"/><path d="M237.28564,373.62347v-5.68941h4.48255v5.68941z"/><path d="M231.07902,373.62347v-5.68941h4.48258v5.68941z"/><path d="M224.98733,373.73841v-5.68941h4.48257v5.68941z"/></g><path d="M221.64569,380.00466v-7.93066h35.17083v7.93066z"/></g><path d="M239.21285,397.42801c-21.58992,0.6764 -74.21227,-26.40329 -71.89331,-58.81774c0.26609,-3.71927 -5.09064,-1.35833 9.08719,-3.27989c13.54746,-1.83612 18.28217,42.58019 62.28892,42.22416c50.57485,-0.40919 46.77952,-44.80642 59.96245,-42.99987c13.6608,1.87204 12.44806,0.03864 12.44806,4.0556c0,32.48415 -46.17346,58.01196 -71.8933,58.81774z" data-paper-data="{&quot;index&quot;:null}" fill="url(#color-24)" stroke="#000000"/></g><path d="M311.59671,335.68921c0,13.79359 -142.75218,12.55772 -143.78661,0c-1.3877,-16.84624 9.20499,-31.41101 27.41443,-40.72308c0.13591,-0.06949 11.29915,15.36585 20.5537,15.56636c15.85678,0.34357 17.77753,-14.11947 22.4679,-14.13441c5.52122,-0.01759 6.80296,14.74569 22.97485,14.13438c14.31526,0.96122 21.22784,-15.92115 21.59844,-15.7235c17.47345,9.31885 28.77728,24.16161 28.77728,40.88024z" fill="url(#color-25)" stroke="#000000" stroke-width="0"/><g stroke="none" stroke-width="0"><path d="M219.08783,288.43299c0,1.50581 -1.19509,2.7265 -2.66929,2.7265c-1.47421,0 -2.66929,-1.2207 -2.66929,-2.7265c0,-1.50581 1.19509,-2.7265 2.66929,-2.7265c1.47421,0 2.66929,1.2207 2.66929,2.7265zM216.4022,290.78025c1.29175,0 2.33891,-1.04717 2.33891,-2.33891c0,-1.29175 -1.04717,-2.33891 -2.33891,-2.33891c-1.29175,0 -2.33891,1.04717 -2.33891,2.33891c0,1.29175 1.04717,2.33891 2.33891,2.33891z" fill="#ffffff"/><path d="M220.77515,288.43299c0,2.45765 -1.95052,4.44997 -4.35661,4.44997c-2.40609,0 -4.35661,-1.99233 -4.35661,-4.44997c0,-2.45765 1.95052,-4.44998 4.35661,-4.44998c2.40609,0 4.35661,1.99233 4.35661,4.44998z" fill="url(#color-26)"/></g><g stroke="none" stroke-width="0"><path d="M264.05668,288.43299c0,1.50581 -1.19509,2.7265 -2.66929,2.7265c-1.47421,0 -2.66929,-1.2207 -2.66929,-2.7265c0,-1.50581 1.19509,-2.7265 2.66929,-2.7265c1.47421,0 2.66929,1.2207 2.66929,2.7265zM261.37107,290.78025c1.29175,0 2.33891,-1.04717 2.33891,-2.33891c0,-1.29175 -1.04717,-2.33891 -2.33891,-2.33891c-1.29175,0 -2.33891,1.04717 -2.33891,2.33891c0,1.29175 1.04717,2.33891 2.33891,2.33891z" fill="#ffffff"/><path d="M265.74401,288.43299c0,2.45765 -1.95052,4.44997 -4.35661,4.44997c-2.40609,0 -4.35661,-1.99233 -4.35661,-4.44997c0,-2.45765 1.95052,-4.44998 4.35661,-4.44998c2.40609,0 4.35661,1.99233 4.35661,4.44998z" fill="url(#color-27)"/></g></g></g></svg>