<svg version="1.1" xmlns="http://www.w3.org/2000/svg" xmlns:xlink="http://www.w3.org/1999/xlink" width="589.54679" height="420.37882" viewBox="0,0,589.54679,420.37882"><defs><linearGradient x1="446.19444" y1="179.05564" x2="462.19444" y2="179.05564" gradientUnits="userSpaceOnUse" id="color-1"><stop offset="0" stop-color="#7a7a7a"/><stop offset="1" stop-color="#bdbdbd"/></linearGradient><linearGradient x1="455.67374" y1="262.03867" x2="456.71514" y2="246.0726" gradientUnits="userSpaceOnUse" id="color-2"><stop offset="0" stop-color="#7a7a7a"/><stop offset="1" stop-color="#bdbdbd"/></linearGradient><linearGradient x1="479.95175" y1="88.48743" x2="470.43713" y2="75.62384" gradientUnits="userSpaceOnUse" id="color-3"><stop offset="0" stop-color="#7a7a7a"/><stop offset="1" stop-color="#bdbdbd"/></linearGradient><linearGradient x1="-0.80557" y1="-2.94437" x2="-0.80557" y2="379.05563" gradientUnits="userSpaceOnUse" id="color-4"><stop offset="0" stop-color="#343c31"/><stop offset="1" stop-color="#1c201a"/></linearGradient><linearGradient x1="474.19444" y1="-8.94436" x2="474.19444" y2="373.05564" gradientUnits="userSpaceOnUse" id="color-5"><stop offset="0" stop-color="#343c31"/><stop offset="1" stop-color="#1c201a"/></linearGradient><linearGradient x1="247.19443" y1="-8.94436" x2="247.19443" y2="37.05564" gradientUnits="userSpaceOnUse" id="color-6"><stop offset="0" stop-color="#343c31"/><stop offset="1" stop-color="#1c201a"/></linearGradient><linearGradient x1="239.54119" y1="232.96791" x2="239.54119" y2="190.5922" gradientUnits="userSpaceOnUse" id="color-7"><stop offset="0" stop-color="#000000"/><stop offset="1" stop-color="#000000" stop-opacity="0"/></linearGradient><linearGradient x1="241.53819" y1="130.19347" x2="241.53819" y2="171.56818" gradientUnits="userSpaceOnUse" id="color-8"><stop offset="0" stop-color="#000000"/><stop offset="1" stop-color="#000000" stop-opacity="0"/></linearGradient><radialGradient cx="240" cy="180" r="254.39899" gradientUnits="userSpaceOnUse" id="color-9"><stop offset="0" stop-color="#000000" stop-opacity="0"/><stop offset="1" stop-color="#000000"/></radialGradient></defs><g transform="translate(30.80557,30.18941)"><g data-paper-data="{&quot;isPaintingLayer&quot;:true}" fill-rule="nonzero" stroke="none" stroke-linecap="butt" stroke-linejoin="miter" stroke-miterlimit="10" stroke-dasharray="" stroke-dashoffset="0" style="mix-blend-mode: normal"><g><path d="M440.19444,301.05563v-258h82v258z" fill="#000000" stroke-width="0"/><path d="M440.19444,301.05563v-258h82v258z" fill="#000000" stroke-width="0"/><path d="M446.19444,277.05564v-196h16v196z" fill="url(#color-1)" stroke-width="0"/><path d="M553.46593,268.41724l-195.58439,-12.75715l1.0414,-15.96608l195.5844,12.75716z" fill="url(#color-2)" stroke-width="0"/><path d="M558.74123,30.21037l-157.57899,116.55412l-9.51462,-12.86359l157.57899,-116.55411z" fill="url(#color-3)" stroke-width="0"/><path d="M14.73874,378.1982v-399.3994h437.52252v399.3994z" fill="#505050" stroke-width="NaN"/><path d="M-30.80556,379.05563v-382h60v382z" fill="url(#color-4)" stroke-width="0"/><path d="M444.19444,373.05564v-382h60l-2,73l-47,36l1,151l47.20619,2.53608l0.79381,119.46392z" data-paper-data="{&quot;index&quot;:null}" fill="url(#color-5)" stroke-width="0"/><path d="M-9.80559,-8.94436h514l-59,46h-416z" data-paper-data="{&quot;index&quot;:null}" fill="url(#color-6)" stroke-width="0"/></g><path d="M494.0457,190.5922l-1.5015,190.69069h-509.00901l1.5015,-190.69069z" data-paper-data="{&quot;index&quot;:null}" fill="url(#color-7)" stroke-width="0"/><path d="M-12.96632,171.56818l-1.50151,-186.18619h509.00901l1.5015,186.18619z" data-paper-data="{&quot;index&quot;:null}" fill="url(#color-8)" stroke-width="0"/><path d="M-14.39899,390.18941v-420.37882h508.79798v420.37882z" fill="url(#color-9)" stroke-width="0"/></g></g></svg>