<svg version="1.1" xmlns="http://www.w3.org/2000/svg" xmlns:xlink="http://www.w3.org/1999/xlink" width="321.78258" height="294.50536" viewBox="0,0,321.78258,294.50536"><defs><radialGradient cx="362.67526" cy="199.29252" r="7.3556" gradientUnits="userSpaceOnUse" id="color-1"><stop offset="0" stop-color="#dedede"/><stop offset="1" stop-color="#898989"/></radialGradient><radialGradient cx="376.20627" cy="252.92958" r="7.3556" gradientUnits="userSpaceOnUse" id="color-2"><stop offset="0" stop-color="#dedede"/><stop offset="1" stop-color="#898989"/></radialGradient><radialGradient cx="366.28313" cy="304.03598" r="7.35559" gradientUnits="userSpaceOnUse" id="color-3"><stop offset="0" stop-color="#dedede"/><stop offset="1" stop-color="#898989"/></radialGradient><radialGradient cx="329.92777" cy="198.10264" r="7.3304" gradientUnits="userSpaceOnUse" id="color-4"><stop offset="0" stop-color="#dedede"/><stop offset="1" stop-color="#898989"/></radialGradient><radialGradient cx="328.21349" cy="303.49759" r="7.3556" gradientUnits="userSpaceOnUse" id="color-5"><stop offset="0" stop-color="#dedede"/><stop offset="1" stop-color="#898989"/></radialGradient><radialGradient cx="276.04326" cy="214.33218" r="6.21754" gradientUnits="userSpaceOnUse" id="color-6"><stop offset="0" stop-color="#dedede"/><stop offset="1" stop-color="#898989"/></radialGradient><linearGradient x1="345.16577" y1="136.29738" x2="345.16577" y2="143.48775" gradientUnits="userSpaceOnUse" id="color-7"><stop offset="0" stop-color="#dedede"/><stop offset="1" stop-color="#898989"/></linearGradient><linearGradient x1="354.45866" y1="68.48756" x2="347.75598" y2="106.62883" gradientUnits="userSpaceOnUse" id="color-8"><stop offset="0" stop-color="#afafaf"/><stop offset="1" stop-color="#dedede"/></linearGradient><linearGradient x1="350.73585" y1="107.39958" x2="355.73574" y2="107.39958" gradientUnits="userSpaceOnUse" id="color-9"><stop offset="0" stop-color="#ffffff"/><stop offset="1" stop-color="#c1c1c1"/></linearGradient><linearGradient x1="344.82486" y1="107.35587" x2="349.82475" y2="107.35587" gradientUnits="userSpaceOnUse" id="color-10"><stop offset="0" stop-color="#ffffff"/><stop offset="1" stop-color="#c1c1c1"/></linearGradient><linearGradient x1="339.29286" y1="107.35587" x2="344.29275" y2="107.35587" gradientUnits="userSpaceOnUse" id="color-11"><stop offset="0" stop-color="#ffffff"/><stop offset="1" stop-color="#c1c1c1"/></linearGradient><linearGradient x1="333.38186" y1="107.31216" x2="338.38176" y2="107.31216" gradientUnits="userSpaceOnUse" id="color-12"><stop offset="0" stop-color="#ffffff"/><stop offset="1" stop-color="#c1c1c1"/></linearGradient><linearGradient x1="347.67958" y1="99.92279" x2="346.75262" y2="105.19765" gradientUnits="userSpaceOnUse" id="color-13"><stop offset="0" stop-color="#dedede"/><stop offset="1" stop-color="#898989"/></linearGradient><linearGradient x1="297.79361" y1="158.4869" x2="292.63381" y2="153.4793" gradientUnits="userSpaceOnUse" id="color-14"><stop offset="0" stop-color="#dedede"/><stop offset="1" stop-color="#898989"/></linearGradient><radialGradient cx="310.76289" cy="140.5914" r="6.21754" gradientUnits="userSpaceOnUse" id="color-15"><stop offset="0" stop-color="#dedede"/><stop offset="1" stop-color="#898989"/></radialGradient><radialGradient cx="280.38311" cy="173.28814" r="6.21754" gradientUnits="userSpaceOnUse" id="color-16"><stop offset="0" stop-color="#dedede"/><stop offset="1" stop-color="#898989"/></radialGradient><radialGradient cx="384.53509" cy="140.91415" r="6.21754" gradientUnits="userSpaceOnUse" id="color-17"><stop offset="0" stop-color="#dedede"/><stop offset="1" stop-color="#898989"/></radialGradient><radialGradient cx="319.60275" cy="252.07535" r="7.35559" gradientUnits="userSpaceOnUse" id="color-18"><stop offset="0" stop-color="#dedede"/><stop offset="1" stop-color="#898989"/></radialGradient></defs><g transform="translate(-134.25,-32.24465)"><g data-paper-data="{&quot;isPaintingLayer&quot;:true}" fill-rule="nonzero" stroke-linecap="butt" stroke-linejoin="miter" stroke-miterlimit="10" stroke-dasharray="" stroke-dashoffset="0" style="mix-blend-mode: normal"><g><path d="M371.91008,200.72163c0,0 9.59068,13.75918 11.70442,21.50755c1.50268,5.50839 1.24635,22.40004 1.24635,22.40004l-21.27888,5.80483c0,0 -3.37899,-4.85934 -6.4375,-10.34257c3.54363,-0.44982 6.95697,-1.72627 8.60015,-3.36967c0.58074,-0.58081 0.2089,-1.67253 0.61635,-2.38568c0.40746,-0.71315 1.53676,-0.94721 1.74222,-1.74243c0.80491,-3.11551 -0.49229,-7.16364 -2.59534,-9.51379c-0.43965,-0.49131 -1.28653,-0.71264 -1.44251,-1.35321c-0.43756,-1.79699 -0.15096,-2.83888 -1.13333,-4.58981c-2.16149,-3.8525 -7.04839,-6.30371 -11.56157,-5.89004c0.05404,-2.95006 0.16627,-4.9674 0.16627,-4.9674z" fill="#000000" stroke="#000000" stroke-width="1.5"/><path d="M380.90864,249.52888l-8.1956,2.27795l-15.21121,-52.51378l8.19561,-2.27795z" fill="#000000" stroke="none" stroke-width="0"/><path d="M355.48744,201.94536c-1.04539,-3.83208 1.28428,-7.80529 5.20346,-8.87443c3.91916,-1.06913 7.94372,1.17066 8.98911,5.00274c1.04539,3.83208 -1.2843,7.8053 -5.20346,8.87444c-3.91917,1.06914 -7.94373,-1.17066 -8.98911,-5.00274z" fill="url(#color-1)" stroke="none" stroke-width="0"/><path d="M372.86179,200.46201c0,0 4.24301,6.36159 7.593,12.84245c-1.61374,-1.13722 -3.34389,-2.00271 -4.54342,-2.22602c-5.09146,-0.94829 -7.45771,-1.69072 -12.62171,0.01759c-1.77298,-3.96566 -6.21881,-6.15813 -10.54028,-4.97924c-0.09197,0.02509 -0.1832,0.05152 -0.27369,0.07927c0.00822,-0.11565 0.01285,-0.17628 0.01285,-0.17628z" data-paper-data="{&quot;index&quot;:null}" fill="#101800" stroke="#000000" stroke-width="1.5"/><path d="M384.89848,257.72192c0,0 2.60682,16.56806 1.11873,24.46052c-1.0579,5.61081 -8.67634,20.68902 -8.67634,20.68902l-21.67455,-4.08664c0,0 -2.37993,-15.23814 -0.93782,-22.88672c1.47714,-7.8344 9.41779,-22.08892 9.41779,-22.08892z" fill="#000000" stroke="#000000" stroke-width="1.5"/><path d="M371.64374,305.54907l-8.36647,-1.53601l9.28898,-53.87759l8.36647,1.53603z" fill="#000000" stroke="none" stroke-width="0"/><path d="M369.5947,251.6396c0.73596,-3.90334 4.56876,-6.45744 8.5608,-5.70476c3.99204,0.75269 6.63162,4.52713 5.89566,8.43046c-0.73596,3.90334 -4.56877,6.45744 -8.5608,5.70476c-3.99205,-0.75269 -6.63163,-4.52712 -5.89567,-8.43046z" fill="url(#color-2)" stroke="none" stroke-width="0"/><path d="M359.56978,301.03004c1.62325,-3.6253 5.94482,-5.21834 9.65249,-3.55822c3.70768,1.66013 5.39745,5.94482 3.77421,9.5701c-1.62326,3.6253 -5.94483,5.21834 -9.65251,3.5582c-3.70768,-1.66013 -5.39744,-5.94481 -3.7742,-9.5701z" fill="url(#color-3)" stroke="none" stroke-width="0"/><path d="M385.86789,257.9047c0,0 1.03327,7.57664 1.21129,14.86994c-0.95382,-1.72849 -2.13116,-3.26352 -3.1122,-3.98899c-4.43609,-3.28096 -6.19276,-4.99893 -12.46305,-5.63377c-1.43721,-0.14546 -2.9211,-1.40685 -4.22442,-0.99401c-2.03327,0.64389 -2.87968,2.63745 -4.53403,3.76798c-1.19103,0.8137 -3.93614,2.03365 -4.34219,3.60838c-0.42569,1.65122 4.40936,-0.73439 6.54293,0.71673c1.2902,0.87755 2.8369,4.96161 4.25094,5.69155c1.35498,0.69948 0.82467,14.12302 2.28055,14.64813c2.42338,0.87416 3.84093,-10.83689 5.46966,-11.50277c2.98845,-1.22155 8.65056,8.11575 8.94536,4.89174c0.09956,-0.10265 0.19653,-0.20718 0.29103,-0.31348c-2.12334,7.76469 -8.79584,19.21422 -8.79584,19.21422l-21.67442,-4.08661c0,0 -1.60472,-16.8172 -0.54682,-22.42801c1.48809,-7.89245 9.94912,-22.37372 9.94912,-22.37372z" data-paper-data="{&quot;index&quot;:null}" fill="#101800" stroke="#000000" stroke-width="1.5"/><path d="M312.20336,247.53646c0,0 -2.74288,-16.54609 -1.31969,-24.4505c1.01175,-5.61931 8.50604,-20.75962 8.50604,-20.75962l21.7074,3.9084c0,0 2.50507,15.21806 1.12586,22.87823c-1.41271,7.84628 -9.23596,22.16557 -9.23596,22.16557z" fill="#000000" stroke="#000000" stroke-width="1.5"/><path d="M325.06464,199.60204l8.3788,1.46721l-8.84594,53.9521l-8.3788,-1.46723z" fill="#000000" stroke="none" stroke-width="0"/><path d="M336.90217,203.45488c-2.23997,3.28029 -6.77542,4.08234 -10.13026,1.79149c-3.35483,-2.29086 -4.25862,-6.80717 -2.01867,-10.08744c2.23997,-3.28029 6.77544,-4.08234 10.13027,-1.79147c3.35483,2.29086 4.25861,6.80715 2.01865,10.08743z" fill="url(#color-4)" stroke="none" stroke-width="0"/><path d="M319.01063,301.63875c0,0 -8.06896,-14.70334 -9.34449,-22.63292c-0.90679,-5.63721 1.14912,-22.40523 1.14912,-22.40523l21.77651,-3.50291c0,0 2.84161,5.19192 5.29804,10.97c-3.57138,0.06942 -7.10138,0.97465 -8.91041,2.43348c-0.63936,0.51558 -0.38604,1.64073 -0.86721,2.30636c-0.48117,0.66564 -1.62899,0.77795 -1.91806,1.54673c-1.13251,3.01192 -0.27433,7.1753 1.56615,9.73628c0.38476,0.53538 1.20322,0.84574 1.29001,1.4993c0.24345,1.83341 -0.1526,2.8388 0.63748,4.68449c1.73841,4.061 6.33608,7.0193 10.86765,7.08919c-0.36828,2.92748 -0.69496,4.92136 -0.69496,4.92136z" fill="#000000" stroke="#000000" stroke-width="1.5"/><path d="M315.26737,252.1503l8.39177,-1.39113l9.52528,53.83631l-8.39177,1.39111z" fill="#000000" stroke="none" stroke-width="0"/><path d="M335.56909,303.49759c0,3.97212 -3.29321,7.19213 -7.3556,7.19213c-4.06238,0 -7.35559,-3.22002 -7.35559,-7.19213c0,-3.97212 3.29322,-7.19214 7.3556,-7.19214c4.06238,0 7.35559,3.22002 7.35559,7.19214z" fill="url(#color-5)" stroke="none" stroke-width="0"/><path d="M336.16118,280.10126c-0.32058,-1.99298 -1.27511,-3.72614 -2.62463,-5.0268c-1.0631,-6.60901 -5.09826,-10.52 -11.72942,-10.82462c-1.82955,-0.08405 -4.05978,0.47636 -5.13272,1.96065c-1.76428,2.44066 -2.7141,5.48131 -3.17978,8.45666c-0.12764,0.81554 1.04624,1.27727 1.55451,1.92769c0.11672,0.14937 0.0377,0.99967 -0.08804,1.94251c-3.05187,-1.20068 -6.30639,-3.25942 -5.78707,-1.26445c-0.05887,0.13032 -0.11466,0.26153 -0.16753,0.39357c-0.63459,-8.02472 1.76148,-21.05826 1.76148,-21.05826l21.77638,-3.50289c0,0 7.21064,15.27744 8.11743,20.91465c0.32367,2.01216 0.36875,4.57567 0.2558,7.28114c-1.42689,-0.64889 -3.0382,-0.93076 -4.69494,-0.74515c-0.01657,-0.15122 -0.03703,-0.30283 -0.06146,-0.45471z" data-paper-data="{&quot;index&quot;:null}" fill="#101800" stroke="#000000" stroke-width="1.5"/><path d="M318.03666,301.79542c0,0 -3.54053,-6.77774 -6.1804,-13.57884c1.48328,1.3028 3.11129,2.34783 4.28017,2.69777c4.96133,1.48576 7.23493,2.47625 12.55164,1.32827c1.34004,4.1321 5.52676,6.78609 9.94929,6.07469c0.09412,-0.01514 0.18764,-0.03169 0.28058,-0.04963c-0.02051,0.11411 -0.03157,0.17391 -0.03157,0.17391z" data-paper-data="{&quot;index&quot;:null}" fill="#101800" stroke="#000000" stroke-width="1.5"/><path d="M394.13416,167.17949c-4.47777,-4.82018 -10.26191,-16.21435 -10.26191,-16.21435l11.00966,-10.22751c0,0 11.67885,7.87445 14.96369,11.41048c2.63345,2.83488 5.80527,8.0806 8.04625,12.06813c-0.84021,0.75849 -1.7046,1.61296 -2.64345,2.50439c-1.91915,1.82222 -4.7384,2.59312 -6.51324,4.83328c-0.26024,0.32837 -0.80772,-0.19382 -1.01771,-0.12104c-0.45181,0.15666 -1.41429,0.72445 -2.43319,1.37114c-0.93543,0.37045 -1.77644,0.88359 -2.50628,1.50543c-3.16471,-2.26452 -6.59329,-4.92264 -8.64383,-7.12996z" data-paper-data="{&quot;index&quot;:null}" fill="#000000" stroke="#000000" stroke-width="1.5"/><path d="M260.89264,212.71244c0,0 0.03101,-13.89411 1.92025,-20.41483c1.34308,-4.63563 8.23149,-16.92182 8.23149,-16.92182l14.43362,4.18184c0,0 -0.04063,12.77819 -1.87149,19.09742c-1.87535,6.47275 -8.89446,18.06127 -8.89446,18.06127z" fill="#000000" stroke="#000000" stroke-width="1.5"/><path d="M276.4606,165.10589c0,0 6.60561,-12.22354 11.35686,-17.07256c3.37777,-3.44731 15.26222,-11.00791 15.26222,-11.00791l10.73344,10.51714c0,0 -6.08565,11.23604 -10.69014,15.93528c-4.7164,4.81345 -16.38573,11.69754 -16.38573,11.69754z" fill="#000000" stroke="#000000" stroke-width="1.5"/><path d="M342.83446,179.10248c0,0 -3.31604,-11.54165 -3.31604,-17.40912c0,-4.1713 2.76336,-16.02743 2.76336,-16.02743h12.98778c0,0 3.03965,10.61754 3.03965,16.30383c0,5.82435 -3.03965,17.13272 -3.03965,17.13272z" fill="#ff2323" stroke="#000000" stroke-width="1.5"/><path d="M275.51208,173.0312l6.91569,1.96783l-12.16531,44.58363l-6.91568,-1.96784z" fill="#000000" stroke="none" stroke-width="0"/><path d="M282.24033,213.82812c0.2722,3.34649 -2.28166,6.28504 -5.70421,6.56343c-3.42255,0.27839 -6.41774,-2.2088 -6.68994,-5.55529c-0.2722,-3.34649 2.28167,-6.28505 5.70422,-6.56343c3.42255,-0.27839 6.41773,2.2088 6.68993,5.5553z" fill="url(#color-6)" stroke="none" stroke-width="0"/><path d="M303.42152,143.48775v-7.19041h83.48854v7.19041z" fill="url(#color-7)" stroke="none" stroke-width="0"/><path d="M377.50047,162.89589c0,23.61886 -12.13109,41.15608 -32.05954,41.15608c-19.92844,0 -32.8644,-17.93966 -32.8644,-41.55852c0,-23.61886 26.28987,-56.73662 32.8644,-55.64262c4.59139,0.7639 32.05954,32.4262 32.05954,56.04506z" fill="#101800" stroke="#000000" stroke-width="1.5"/><g stroke="#000000" stroke-width="1.5"><path d="M382.99441,122.21279c-2.9353,16.70321 -22.17346,27.28129 -42.96956,23.62674c-20.7961,-3.65456 -35.27517,-20.15787 -32.33987,-36.86108c2.93532,-16.7033 22.17348,-27.28138 42.96958,-23.62682c20.7961,3.65456 35.27517,20.15787 32.33985,36.86117z" fill="#101800"/><path d="M379.10289,114.76042c-2.32869,13.25126 -18.80602,21.42962 -36.80321,18.26693c-17.99719,-3.16269 -30.699,-16.4688 -28.37031,-29.72006c2.32869,-13.25126 18.80601,-21.42962 36.80321,-18.26693c17.99719,3.16269 30.69901,16.4688 28.37032,29.72006z" fill="#000000"/></g><path d="M388.40689,96.82264c-2.35484,13.40013 -19.91234,21.51319 -39.2157,18.12096c-19.30328,-3.39222 -33.0428,-17.0052 -30.68795,-30.40533c2.35486,-13.40021 19.91236,-21.51328 39.21564,-18.12106c19.30336,3.39224 33.04288,17.00522 30.68802,30.40543z" fill="#000000" stroke="#000000" stroke-width="1.5"/><path d="M320.36733,101.81574l6.70267,-38.14122l54.77729,9.62617l-3.99308,22.72243l-21.51197,20.06208z" fill="url(#color-8)" stroke="none" stroke-width="0"/><path d="M350.73585,110.41271v-6.02623h4.99988v6.02623z" fill="url(#color-9)" stroke="none" stroke-width="0"/><path d="M344.82486,110.36898v-6.02623h4.99988v6.02623z" fill="url(#color-10)" stroke="none" stroke-width="0"/><path d="M339.29286,110.36898v-6.02623h4.99988v6.02623z" fill="url(#color-11)" stroke="none" stroke-width="0"/><path d="M333.38186,110.32529v-6.02623h4.99988v6.02623z" fill="url(#color-12)" stroke="none" stroke-width="0"/><path d="M333.97124,102.95154l0.92696,-5.27484l25.56274,4.49221l-0.92697,5.27485z" fill="url(#color-13)" stroke="none" stroke-width="0"/><path d="M394.0732,96.15741c-2.93532,16.7033 -24.8206,26.8162 -48.88217,22.58779c-24.06157,-4.22841 -41.18776,-21.19691 -38.25244,-37.9002c2.93532,-16.7033 24.8206,-26.8162 48.88217,-22.58779c24.06157,4.22841 41.18776,21.19691 38.25244,37.9002zM350.14634,99.21743c-0.7759,1.06816 -1.32681,2.32495 -1.57068,3.7127c-0.85696,4.87652 2.40154,9.52435 7.27798,10.3813c0.59291,0.1042 1.1825,0.14755 1.76221,0.13464c0.99955,-0.02241 1.97001,-0.21232 2.87857,-0.54673c0.06638,-0.00017 0.13119,0.00194 0.19408,0.00662c4.87893,0.36313 10.37735,-0.88557 13.50173,-5.10285c1.41109,-1.90482 1.5026,-4.82014 4.06483,-6.01102c0.71693,-0.33322 2.39754,-0.44694 2.96722,-0.91709c2.49463,-2.05865 3.82786,-4.14919 4.5776,-7.07663c0.6055,-2.36406 -0.48373,-2.2732 -1.78367,-4.96018c-1.29984,-2.68705 -0.55247,-3.4846 -2.78176,-4.4773c-1.14402,-0.50943 -2.41477,-0.60277 -3.68939,-0.62132c-1.31582,-1.66066 -3.22201,-2.864 -5.47295,-3.25956c-1.17628,-0.20671 -2.3393,-0.17398 -3.43895,0.06323c-0.54585,-0.28653 -1.14981,-0.5159 -1.84505,-0.63808c-1.68964,-0.29693 -3.43592,0.08015 -5.13842,0.29151c-2.86725,0.35593 -6.87749,6.50024 -7.26054,9.1922c-0.07605,0.53478 0.39412,4.56954 0.08922,6.50809c-0.0064,0.04056 -0.01467,0.07988 -0.02484,0.11806c-1.16728,0.40818 -2.23655,1.0536 -3.13946,1.88835c-0.16854,0.10028 -0.31983,0.21223 -0.44522,0.34147c-0.28483,0.29328 -0.51976,0.62164 -0.72252,0.97259z" fill="#101800" stroke="#000000" stroke-width="1.5"/><path d="M350.82408,98.24691c0.12539,-0.12925 0.27664,-0.24209 0.44518,-0.34237c0.90291,-0.83476 1.97245,-1.48642 3.13974,-1.89461c0.01016,-0.03818 0.01849,-0.07791 0.02489,-0.11847c0.3049,-1.93855 -0.1588,-5.99157 -0.08275,-6.52635c0.38305,-2.69196 4.41727,-8.85508 7.28452,-9.21101c1.70251,-0.21136 3.46138,-0.59066 5.15102,-0.29374c0.69524,0.12218 1.30401,0.35167 1.84986,0.63819c1.09965,-0.2372 2.27128,-0.26844 3.44756,-0.06173c2.25094,0.39557 4.17183,1.60609 5.48765,3.26675c1.27461,0.01855 2.55125,0.11709 3.69527,0.62652c2.22929,0.9927 1.48914,1.80039 2.78897,4.48744c1.29994,2.68698 2.39333,2.60798 1.78783,4.97204c-0.74974,2.92744 -2.08337,5.03741 -4.578,7.09605c-0.56969,0.47015 -2.25215,0.5897 -2.96908,0.92292c-2.56222,1.19088 -2.67067,4.12711 -4.08176,6.03193c-3.12438,4.21728 -8.66535,5.46977 -13.54428,5.10664c-0.0629,-0.00468 -0.12814,-0.00698 -0.19452,-0.00681c-0.90856,0.33441 -1.88414,0.52164 -2.88369,0.54405c-0.57972,0.0129 -1.17231,-0.03245 -1.76522,-0.13665c-4.87644,-0.85695 -8.15164,-5.52857 -7.29468,-10.40509c0.24387,-1.38776 0.79324,-2.65254 1.56914,-3.72071c0.20276,-0.35094 0.43751,-0.68173 0.72234,-0.97501z" data-paper-data="{&quot;noHover&quot;:false,&quot;origItem&quot;:[&quot;Path&quot;,{&quot;applyMatrix&quot;:true,&quot;segments&quot;:[[[242.89795,76.02231],[0.155,-0.4247],[-0.6462,1.3233]],[[241.88915,80.40441],[0,-1.5717],[0,5.5229]],[[251.88915,90.40441],[-5.5228,0],[0.6715,0]],[[253.85115,90.21211],[-0.6344,0.1261],[1.0938,-0.2176]],[[256.90805,89.05571],[-0.9336,0.5428],[0.0729,-0.013]],[[257.12255,89.02551],[-0.07,0.007],[5.4302,-0.543]],[[270.97065,80.81271],[-2.6183,5.2364],[1.1825,-2.3651]],[[274.27585,73.42411],[-2.585,1.803],[0.7233,-0.5045]],[[277.35865,71.84371],[-0.5351,0.6265],[2.3432,-2.7433]],[[281.02145,63.18541],[-0.2585,3.3609],[0.2088,-2.7141]],[[278.10425,58.08041],[1.9469,2.701],[-1.9468,-2.7011]],[[274.18375,53.69861],[2.6408,0.6602],[-1.3552,-0.3388]],[[270.01055,53.72831],[1.4039,-0.2257],[-1.7662,-1.5704]],[[263.36855,51.20391],[2.5493,0],[-1.3322,0]],[[259.60265,51.93731],[1.1623,-0.4729],[-0.655,-0.2094]],[[257.45245,51.59251],[0.7874,0],[-1.9136,0]],[[251.86355,52.90481],[1.8296,-0.5609],[-3.0813,0.9446]],[[245.66165,64.40531],[-0.0989,-3.0314],[0.0197,0.6022]],[[247.01615,71.53801],[-0.0393,-2.1886],[0.0008,0.0458]],[[247.01165,71.67251],[0.0038,-0.0439],[-1.2036,0.6738]],[[243.92715,74.35321],[0.8308,-1.0914],[-0.1658,0.1427]],[[243.50395,74.81431],[0.1128,-0.1662],[-0.2563,0.3772]]],&quot;closed&quot;:true,&quot;fillColor&quot;:[0,0,0,1]}]}" fill="#000000" stroke="none" stroke-width="0.5"/><path d="M354.35191,66.88603c-1.30564,7.4297 -8.33715,12.403 -15.70522,11.10819c-7.36816,-1.29483 -12.28281,-8.36746 -10.97716,-15.79716c1.30566,-7.42979 8.33717,-12.40308 15.70533,-11.10825c7.36807,1.29481 12.28272,8.36744 10.97706,15.79723z" fill="#000000" stroke="#000000" stroke-width="1.5"/><path d="M381.28075,72.33813c-1.30566,7.42979 -8.33708,12.4031 -15.70524,11.10828c-7.36816,-1.29483 -12.2828,-8.36746 -10.97714,-15.79725c1.30564,-7.4297 8.33716,-12.403 15.70532,-11.10817c7.36816,1.29483 12.28271,8.36744 10.97707,15.79714z" fill="#000000" stroke="#000000" stroke-width="1.5"/><path d="M363.52047,92.70397c-1.30564,7.4297 -8.33707,12.40301 -15.70523,11.10818c-7.36816,-1.29483 -12.28271,-8.36744 -10.97707,-15.79715c1.30566,-7.42979 8.33708,-12.4031 15.70524,-11.10827c7.36816,1.29483 12.28272,8.36744 10.97706,15.79723z" fill="#0b1100" stroke="#000000" stroke-width="1.5"/><path d="M308.54571,136.72413l5.15978,5.00757l-31.82378,33.51032l-5.15977,-5.00758z" fill="url(#color-14)" stroke="none" stroke-width="0"/><path d="M315.73583,144.32337c-2.01532,2.68543 -5.87552,3.19154 -8.62198,1.13043c-2.74647,-2.06112 -3.33918,-5.90898 -1.32386,-8.59441c2.01532,-2.68543 5.87553,-3.19153 8.622,-1.13041c2.74647,2.06112 3.33918,5.90898 1.32386,8.59441z" fill="url(#color-15)" stroke="none" stroke-width="0"/><path d="M285.12654,177.3078c-2.17068,2.56151 -6.05404,2.83834 -8.67376,0.61835c-2.61972,-2.21999 -2.98375,-6.09618 -0.81309,-8.65768c2.17068,-2.56151 6.05405,-2.83834 8.67377,-0.61834c2.61972,2.21999 2.98376,6.09617 0.81308,8.65768z" fill="url(#color-16)" stroke="none" stroke-width="0"/><g fill="#101800" stroke="#000000" stroke-width="1.5"><path d="M267.30383,229.42249c-3.71339,4.60027 5.54439,9.23202 8.25779,10.01501c2.95389,0.85239 4.87789,-0.22821 5.65159,1.34524c1.98915,4.04504 -9.39743,2.95005 -14.71756,-1.28673c-5.32022,-4.23678 -7.35669,-10.52994 -4.54857,-14.05611c2.80812,-3.52617 8.58026,-0.011 5.35675,3.98259z"/><path d="M268.43211,229.90125c-6.13681,3.11388 1.48447,12.44698 3.99224,14.57232c2.72997,2.31378 5.28831,2.084 5.3595,4.12366c0.18296,5.24378 -11.3853,-1.34909 -15.01396,-8.38504c-3.62856,-7.03595 -2.78974,-14.68938 1.87358,-17.09436c4.66341,-2.40498 9.11606,4.0803 3.78863,6.78341z"/><path d="M283.34303,236.09955c-3.30642,3.13137 -5.02649,-8.28546 -12.93314,-7.69486c-9.10785,0.68047 -4.53817,16.0058 -2.55158,19.89005c2.16266,4.22873 5.41391,5.25372 4.45945,7.78867c-2.45384,6.51719 -13.25812,-7.46714 -14.10993,-17.93937c-0.85181,-10.47224 4.08439,-19.41938 11.02526,-19.98395c6.94095,-0.56458 17.26736,14.94919 14.10994,17.93946z"/></g><path d="M260.60564,212.62929c0,0 0.03101,-13.89412 1.92025,-20.41483c1.34308,-4.63563 8.23149,-16.92182 8.23149,-16.92182l14.43354,4.18182c0,0 -0.03481,10.97952 -1.49821,17.61671c-0.01919,-0.1129 -0.04048,-0.22529 -0.06399,-0.3371c0.95942,-2.55824 -0.97662,-3.85699 -2.33765,-5.79501c-0.74175,-1.05633 -2.2133,-3.95209 -3.97414,-4.10141c-1.05782,-0.08975 -2.03685,0.67094 -3.09563,0.74816c-1.10493,0.08057 -2.22907,-0.51572 -3.31177,-0.28087c-1.79041,0.38831 -8.52407,9.78707 -8.85077,11.18981c-0.31153,1.33779 0.9042,3.19264 1.33145,4.21433c0.59336,1.41935 0.39822,3.22488 1.39022,4.40066c0.63583,0.75375 1.96991,0.29139 2.88275,0.66441c3.98263,1.62728 5.64114,0.90852 9.45671,-0.10007c0.84377,-0.22296 2.09051,-0.99728 3.27143,-1.99442c-2.6769,5.50269 -5.96634,10.93348 -5.96634,10.93348z" fill="#101800" stroke="#000000" stroke-width="1.5"/><path d="M276.66793,164.54528c0,0 3.59736,-6.65687 7.39216,-12.09428c0.44145,0.27719 0.84036,0.53762 1.01828,0.60341c1.06466,0.39375 3.48487,0.50455 4.57806,0.62448c5.76764,0.63266 9.15455,-6.85006 9.96229,-11.39228c0.18415,-1.03551 0.15373,-2.20572 -0.05858,-3.38861c2.15882,-1.43559 3.72683,-2.43311 3.72683,-2.43311l10.73347,10.51706c0,0 -2.41485,4.45865 -5.35322,8.93331c-0.72544,-0.15311 -1.60076,-0.1938 -2.74003,-0.06869c-6.02553,0.66194 -10.96828,4.51241 -14.82864,9.07029c-1.37543,1.00403 -2.4804,2.41033 -3.11533,4.12714c-0.02736,0.07399 -0.05365,0.14819 -0.07902,0.22245c-0.59927,0.92902 -0.70323,1.94543 -0.4793,2.99431c0.00791,0.65318 0.08766,1.29872 0.23427,1.92577c-0.4559,0.27567 -0.71461,0.42832 -0.71461,0.42832z" fill="#101800" stroke="#000000" stroke-width="1.5"/><path d="M425.69965,219.80633l-7.13475,0.89129l-5.23107,-45.91657l7.13475,-0.89127z" data-paper-data="{&quot;index&quot;:null}" fill="#000000" stroke="none" stroke-width="0"/><path d="M420.34587,174.63692l-5.29132,4.86838l-30.91995,-34.34605l5.29132,-4.86836z" data-paper-data="{&quot;index&quot;:null}" fill="#000000" stroke="none" stroke-width="0"/><path d="M378.86044,143.45499c-1.3721,-3.06438 0.05624,-6.68614 3.19027,-8.08942c3.13403,-1.40327 6.78698,-0.05669 8.15907,3.00769c1.3721,3.06438 -0.05623,6.68615 -3.19026,8.08942c-3.13403,1.40327 -6.78697,0.05668 -8.15906,-3.0077z" data-paper-data="{&quot;index&quot;:null}" fill="url(#color-17)" stroke="none" stroke-width="0"/><path d="M412.25162,179.76853c-2.28515,-2.45993 -2.09812,-6.34867 0.41771,-8.68573c2.51583,-2.33707 6.40779,-2.2375 8.69294,0.22243c2.28514,2.45992 2.09812,6.34867 -0.41771,8.68573c-2.51583,2.33707 -6.40779,2.2375 -8.69294,-0.22244z" data-paper-data="{&quot;index&quot;:null}" fill="#000000" stroke="none" stroke-width="0"/><path d="M388.79325,159.47198c-2.81806,-4.55137 -5.11331,-9.07276 -5.11331,-9.07276l11.00969,-10.22742c0,0 1.54089,1.03893 3.66071,2.53151c-0.24366,1.17679 -0.30524,2.34577 -0.14873,3.38582c0.68639,4.56214 3.8728,12.13243 9.65533,11.65358c0.43734,-0.03624 1.08588,-0.06537 1.77566,-0.11051c-1.09297,0.64214 -2.07469,1.57711 -2.62558,2.37418c-0.30837,0.44613 -0.13358,1.41795 -0.67217,1.48168c-1.84803,0.2188 -3.72168,0.04125 -5.58254,0.06179l-4.06252,4.5942c-4.05724,-3.66799 -7.59705,-6.72698 -7.89644,-6.6721z" data-paper-data="{&quot;index&quot;:null}" fill="#101800" stroke="#000000" stroke-width="1.5"/><path d="M327.55659,253.49283c-0.70386,3.90926 -4.51554,6.49476 -8.51363,5.77491c-3.9981,-0.71985 -6.6686,-4.47248 -5.96475,-8.38173c0.70386,-3.90926 4.51555,-6.49476 8.51364,-5.77491c3.9981,0.71985 6.6686,4.47247 5.96475,8.38173z" fill="url(#color-18)" stroke="none" stroke-width="0"/><path d="M311.23248,247.36165c0,0 -1.09549,-7.56788 -1.33343,-14.85948c0.96799,1.72059 2.15791,3.2459 3.14488,3.96328c4.4629,3.24439 6.23363,4.94787 12.50893,5.53116c1.43836,0.13364 2.93256,1.38278 4.23243,0.95926c2.02791,-0.66057 2.85792,-2.66103 4.50292,-3.80511c1.18431,-0.82346 3.9193,-2.06593 4.31239,-3.64394c0.4121,-1.65466 -4.40318,0.7706 -6.5486,-0.66293c-1.29737,-0.86692 -2.87757,-4.93812 -4.29755,-5.65642c-1.36068,-0.68833 -0.9407,-14.11577 -2.40084,-14.6289c-2.43048,-0.85423 -3.75175,10.8681 -5.37496,11.54733c-2.97831,1.24608 -8.71696,-8.04439 -8.98526,-4.81807c-0.09872,0.10346 -0.19483,0.20879 -0.28844,0.31587c2.05946,-7.78187 8.63764,-19.28586 8.63764,-19.28586l21.70728,3.90837c0,0 1.74285,16.80345 0.7311,22.42276c-1.42319,7.90441 -9.76493,22.45472 -9.76493,22.45472z" data-paper-data="{&quot;index&quot;:null}" fill="#101800" stroke="#000000" stroke-width="1.5"/><g fill="#101800"><path d="M337.09643,311.56927c0,6.89042 -9.73332,12.47622 -21.73999,12.47622c-12.00667,0 -21.73999,-5.58579 -21.73999,-12.47622c0,-6.89042 9.73332,-12.47622 21.73999,-12.47622c12.00667,0 21.73999,5.58579 21.73999,12.47622z" stroke="#000000" stroke-width="1.5"/><path d="M304.7417,310.80088c0,6.35404 -5.28475,11.50502 -11.80383,11.50502c-6.51908,0 -11.80384,-5.15097 -11.80384,-11.50502c0,-6.35404 5.28476,-11.50501 11.80384,-11.50501c6.51908,0 11.80383,5.15097 11.80383,11.50501z" stroke="#000000" stroke-width="1.5"/><path d="M314.30431,311.39854c0,6.35404 -5.28475,11.50502 -11.80383,11.50502c-6.51908,0 -11.80383,-5.15097 -11.80383,-11.50502c0,-6.35404 5.28475,-11.50501 11.80383,-11.50501c6.51908,0 11.80383,5.15098 11.80383,11.50501z" stroke="#000000" stroke-width="1.5"/><path d="M325.06224,311.39854c0,6.35404 -5.28476,11.50501 -11.80384,11.50501c-6.51908,0 -11.80384,-5.15097 -11.80384,-11.50501c0,-6.35404 5.28476,-11.50501 11.80384,-11.50501c6.51908,0 11.80384,5.15098 11.80384,11.50501z" stroke="#000000" stroke-width="1.5"/><path d="M333.13069,311.35694c0,4.39654 -4.5489,7.96064 -10.16027,7.96064c-5.61137,0 -10.16026,-3.5641 -10.16026,-7.96064c0,-4.39654 4.5489,-7.96064 10.16026,-7.96064c5.61137,0 10.16027,3.56411 10.16027,7.96064z" stroke="none" stroke-width="0"/></g><g data-paper-data="{&quot;index&quot;:null}" fill="#101800"><path d="M378.17954,299.09309c12.00666,0 21.73999,5.5858 21.73999,12.47622c0,6.89043 -9.73333,12.47622 -21.73999,12.47622c-12.00667,0 -21.73999,-5.58579 -21.73999,-12.47622c0,-6.89043 9.73332,-12.47622 21.73999,-12.47622z" stroke="#000000" stroke-width="1.5"/><path d="M400.59812,299.29586c6.51908,0 11.80383,5.15098 11.80383,11.50501c0,6.35404 -5.28475,11.50501 -11.80383,11.50501c-6.51908,0 -11.80384,-5.15097 -11.80384,-11.50501c0,-6.35404 5.28476,-11.50501 11.80384,-11.50501z" stroke="#000000" stroke-width="1.5"/><path d="M391.03551,299.89354c6.51908,0 11.80384,5.15097 11.80384,11.50501c0,6.35404 -5.28476,11.50502 -11.80384,11.50502c-6.51908,0 -11.80384,-5.15097 -11.80384,-11.50502c0,-6.35404 5.28476,-11.50501 11.80384,-11.50501z" stroke="#000000" stroke-width="1.5"/><path d="M380.27758,299.89354c6.51908,0 11.80385,5.15097 11.80385,11.50501c0,6.35404 -5.28477,11.50502 -11.80385,11.50502c-6.51908,0 -11.80384,-5.15097 -11.80384,-11.50502c0,-6.35404 5.28476,-11.50501 11.80384,-11.50501z" stroke="#000000" stroke-width="1.5"/><path d="M370.56556,303.3963c5.61137,0 10.16026,3.56409 10.16026,7.96064c0,4.39654 -4.5489,7.96064 -10.16026,7.96064c-5.61137,0 -10.16027,-3.5641 -10.16027,-7.96064c0,-4.39654 4.5489,-7.96064 10.16027,-7.96064z" stroke="none" stroke-width="0"/></g><path d="M345.48014,65.28555c-0.31464,1.79045 -1.97278,2.99534 -3.70355,2.69119c-1.73077,-0.30415 -2.87878,-2.00217 -2.56414,-3.79262c0.31464,-1.79045 1.97279,-2.99535 3.70355,-2.69119c1.73077,0.30415 2.87878,2.00217 2.56413,3.79263z" fill="#000000" stroke="#ffffff" stroke-width="1.5"/><path d="M369.8571,69.8728c-0.31464,1.79045 -1.97278,2.99534 -3.70355,2.69119c-1.73077,-0.30415 -2.87879,-2.00218 -2.56414,-3.79263c0.31464,-1.79045 1.97279,-2.99534 3.70357,-2.69118c1.73077,0.30415 2.87877,2.00217 2.56413,3.79263z" fill="#000000" stroke="#ffffff" stroke-width="1.5"/><path d="M357.15368,223.96501c0.53126,1.94743 1.66513,3.56894 3.14565,4.7183c1.76172,6.45798 6.19088,9.91644 12.81672,9.51228c1.82809,-0.11151 3.98585,-0.90651 4.89442,-2.49675c1.49398,-2.61487 2.11418,-5.73945 2.25997,-8.74749c0.03996,-0.8245 -1.17645,-1.15844 -1.75118,-1.75096c-0.13198,-0.13607 -0.14406,-0.98996 -0.11957,-1.94083c3.16249,0.86843 6.61797,2.56844 5.8889,0.64021c0.04464,-0.13585 0.08612,-0.27228 0.12461,-0.4092c1.48659,7.91132 0.49387,21.12603 0.49387,21.12603l-21.27876,5.80479c0,0 -8.79847,-14.42152 -10.30115,-19.92991c-0.53637,-1.96618 -0.85453,-4.51028 -1.03068,-7.21236c1.48795,0.49305 3.12012,0.60151 4.74764,0.24032c0.0326,0.14859 0.0691,0.29714 0.10959,0.44556z" data-paper-data="{&quot;index&quot;:null}" fill="#101800" stroke="#000000" stroke-width="1.5"/><path d="M415.19294,219.05708c0.37793,-3.33621 3.45029,-5.7274 6.86232,-5.34088c3.41203,0.38652 5.87166,3.40437 5.49373,6.74059c-0.37793,3.3362 -3.45029,5.7274 -6.86232,5.34089c-3.41203,-0.38652 -5.87165,-3.40438 -5.49372,-6.74059z" data-paper-data="{&quot;index&quot;:null}" fill="#000000" stroke="none" stroke-width="0"/><g fill="#000000" stroke="none" stroke-width="0"><g><path d="M417.69113,240.95617l9.79357,-8.31877l2.51498,2.96084l-9.79357,8.31878z"/><path d="M406.67072,244.26151l12.38495,-3.42477l1.03539,3.74429l-12.38495,3.42477z"/></g><g><path d="M419.26935,244.22013l7.14824,-10.67796l3.22822,2.16109l-7.14824,10.67796z"/><path d="M409.57126,250.41057l10.9781,-6.67812l2.01896,3.31896l-10.9781,6.67813z"/></g><path d="M426.62184,237.7837l-10.93732,-11.5513l3.56732,-3.3777l10.93732,11.5513z"/><path d="M403.83941,236.36863l14.29491,-12.70549l2.38228,2.68029l-14.2949,12.70549z"/><g><path d="M423.69572,246.49493l1.44638,-12.76808l3.86012,0.43728l-1.44638,12.76808z"/><path d="M417.92352,256.44761l6.68534,-10.97371l3.31764,2.02116l-6.68535,10.97371z"/></g></g></g><text transform="translate(376.4308,60.09649) scale(0.21213,0.21213)" font-size="40" xml:space="preserve" fill="#00b94d" fill-rule="nonzero" stroke="none" stroke-width="1" stroke-linecap="butt" stroke-linejoin="miter" stroke-miterlimit="10" stroke-dasharray="" stroke-dashoffset="0" font-family="&quot;ヒラギノ角ゴ Pro W3&quot;, &quot;Hiragino Kaku Gothic Pro&quot;, Osaka, &quot;メイリオ&quot;, Meiryo, &quot;ＭＳ Ｐゴシック&quot;, &quot;MS PGothic&quot;" font-weight="normal" text-anchor="start" style="mix-blend-mode: normal"><tspan x="0" dy="0">SCROLL TO TOGGLE</tspan></text><path d="M135,326v-292h126v292z" fill="#00471e" stroke="#d3ffcd" stroke-width="1.5"/><text transform="translate(154.33333,50.96602) scale(0.3083,0.3083)" font-size="40" xml:space="preserve" fill="#00ff6a" fill-rule="nonzero" stroke="none" stroke-width="1" stroke-linecap="butt" stroke-linejoin="miter" stroke-miterlimit="10" stroke-dasharray="" stroke-dashoffset="0" font-family="&quot;ヒラギノ角ゴ Pro W3&quot;, &quot;Hiragino Kaku Gothic Pro&quot;, Osaka, &quot;メイリオ&quot;, Meiryo, &quot;ＭＳ Ｐゴシック&quot;, &quot;MS PGothic&quot;" font-weight="normal" text-anchor="start" style="mix-blend-mode: normal"><tspan x="0" dy="0">EDIOLON ELMO</tspan></text><text transform="translate(139.83333,69.32718) scale(0.24889,0.24889)" font-size="40" xml:space="preserve" fill="#00ff6a" fill-rule="nonzero" stroke="none" stroke-width="1" stroke-linecap="butt" stroke-linejoin="miter" stroke-miterlimit="10" stroke-dasharray="" stroke-dashoffset="0" font-family="&quot;ヒラギノ角ゴ Pro W3&quot;, &quot;Hiragino Kaku Gothic Pro&quot;, Osaka, &quot;メイリオ&quot;, Meiryo, &quot;ＭＳ Ｐゴシック&quot;, &quot;MS PGothic&quot;" font-weight="normal" text-anchor="start" style="mix-blend-mode: normal"><tspan x="0" dy="0">A shadowy figure who</tspan><tspan x="0" dy="48px">takes the form of Withered</tspan><tspan x="0" dy="48px">Elmo. He scares all who</tspan><tspan x="0" dy="48px">stare.</tspan></text><text transform="translate(395.33333,49.14447) scale(0.48985,0.48985)" font-size="40" xml:space="preserve" fill="#00ff6a" fill-rule="nonzero" stroke="none" stroke-width="1" stroke-linecap="butt" stroke-linejoin="miter" stroke-miterlimit="10" stroke-dasharray="" stroke-dashoffset="0" font-family="&quot;ヒラギノ角ゴ Pro W3&quot;, &quot;Hiragino Kaku Gothic Pro&quot;, Osaka, &quot;メイリオ&quot;, Meiryo, &quot;ＭＳ Ｐゴシック&quot;, &quot;MS PGothic&quot;" font-weight="normal" text-anchor="start" style="mix-blend-mode: normal"><tspan x="0" dy="0">OLD</tspan></text><text transform="translate(346.4308,323.09649) scale(0.21213,0.21213)" font-size="40" xml:space="preserve" fill="#00b94d" fill-rule="nonzero" stroke="none" stroke-width="1" stroke-linecap="butt" stroke-linejoin="miter" stroke-miterlimit="10" stroke-dasharray="" stroke-dashoffset="0" font-family="&quot;ヒラギノ角ゴ Pro W3&quot;, &quot;Hiragino Kaku Gothic Pro&quot;, Osaka, &quot;メイリオ&quot;, Meiryo, &quot;ＭＳ Ｐゴシック&quot;, &quot;MS PGothic&quot;" font-weight="normal" text-anchor="start" style="mix-blend-mode: normal"><tspan x="0" dy="0">CLICK TO SEE NEXT IMAGE</tspan></text></g></g></svg>