<svg version="1.1" xmlns="http://www.w3.org/2000/svg" xmlns:xlink="http://www.w3.org/1999/xlink" width="76.87164" height="37.37086" viewBox="0,0,76.87164,37.37086"><defs><linearGradient x1="157.09691" y1="284.38415" x2="233.96854" y2="284.38415" gradientUnits="userSpaceOnUse" id="color-1"><stop offset="0" stop-color="#595959"/><stop offset="1" stop-color="#000000"/></linearGradient><radialGradient cx="167.75325" cy="268.20268" r="14.90276" gradientUnits="userSpaceOnUse" id="color-2"><stop offset="0" stop-color="#6e6e6e"/><stop offset="1" stop-color="#353535"/></radialGradient><linearGradient x1="224.10617" y1="275.07115" x2="233.96854" y2="275.07115" gradientUnits="userSpaceOnUse" id="color-3"><stop offset="0" stop-color="#919191"/><stop offset="1" stop-color="#515151"/></linearGradient><linearGradient x1="224.10617" y1="278.53802" x2="233.96854" y2="278.53802" gradientUnits="userSpaceOnUse" id="color-4"><stop offset="0" stop-color="#919191"/><stop offset="1" stop-color="#515151"/></linearGradient><linearGradient x1="224.10617" y1="282.0049" x2="233.96854" y2="282.0049" gradientUnits="userSpaceOnUse" id="color-5"><stop offset="0" stop-color="#919191"/><stop offset="1" stop-color="#515151"/></linearGradient><linearGradient x1="224.10617" y1="285.47177" x2="233.96854" y2="285.47177" gradientUnits="userSpaceOnUse" id="color-6"><stop offset="0" stop-color="#919191"/><stop offset="1" stop-color="#515151"/></linearGradient><linearGradient x1="224.10617" y1="271.60428" x2="233.96854" y2="271.60428" gradientUnits="userSpaceOnUse" id="color-7"><stop offset="0" stop-color="#919191"/><stop offset="1" stop-color="#515151"/></linearGradient><linearGradient x1="224.10617" y1="268.13741" x2="233.96854" y2="268.13741" gradientUnits="userSpaceOnUse" id="color-8"><stop offset="0" stop-color="#910000"/><stop offset="1" stop-color="#4f0000"/></linearGradient><radialGradient cx="176.27185" cy="270.02045" r="10.37232" gradientUnits="userSpaceOnUse" id="color-9"><stop offset="0" stop-color="#dae7e8"/><stop offset="1" stop-color="#90a4b0"/></radialGradient><linearGradient x1="191.86379" y1="270.62662" x2="218.02838" y2="264.08151" gradientUnits="userSpaceOnUse" id="color-10"><stop offset="0" stop-color="#e8e78c"/><stop offset="1" stop-color="#9e975b"/></linearGradient></defs><g transform="translate(-157.09691,-259.29316)"><g data-paper-data="{&quot;isPaintingLayer&quot;:true}" fill-rule="nonzero" stroke-linecap="butt" stroke-linejoin="miter" stroke-miterlimit="10" stroke-dasharray="" stroke-dashoffset="0" style="mix-blend-mode: normal"><g stroke-width="0"><g stroke="#000000"><path d="M233.96854,296.66402h-72.86092l-4.0107,-1.89262v-20.75193l4.2862,-1.9152h72.58543z" fill="url(#color-1)"/><path d="M161.10762,296.66402l-4.0107,-1.89262v-20.75193l4.2862,-1.9152z" fill="#747474"/></g><path d="M233.96854,289.20895h-72.86092l-4.0107,-1.89262v-20.75193l4.2862,-1.9152h72.58543z" fill="url(#color-2)" stroke="#000000"/><path d="M233.96854,286.97254h-9.86237v-20.30715h9.86237z" fill="#1b1b1b" stroke="#000000"/><path d="M233.96854,276.57192h-9.86237v-3.00154h9.86237z" fill="url(#color-3)" stroke="#000000"/><path d="M233.96854,280.0388h-9.86237v-3.00154h9.86237z" fill="url(#color-4)" stroke="#000000"/><path d="M233.96854,283.50567h-9.86237v-3.00154h9.86237z" fill="url(#color-5)" stroke="#000000"/><path d="M233.96854,286.97254h-9.86237v-3.00154h9.86237z" fill="url(#color-6)" stroke="#000000"/><path d="M233.96854,273.10505h-9.86237v-3.00154h9.86237z" fill="url(#color-7)" stroke="#000000"/><path d="M233.96854,269.63817h-9.86237v-3.00154h9.86237z" fill="url(#color-8)" stroke="#000000"/><path d="M180.64264,287.3014c-4.42246,0 -23.54574,0 -23.54574,0v-20.74463c0,0 18.40467,0 22.98661,0c1.95431,0 4.18182,0.34218 4.18182,1.48937c0,4.40753 0,15.66747 0,17.83408c0,0.73318 -2.28171,1.42119 -3.62269,1.42119z" fill="url(#color-9)" stroke="#000000"/><g fill="url(#color-10)" stroke="none"><path d="M221.2873,267.67762c0,0 -3.32298,2.05937 -7.15155,3.01709c-4.7093,1.17804 -16.27295,4.12414 -16.27295,4.12414l-11.99804,-8.38446c0,0 10.40836,-2.60367 15.04502,-3.76353c3.98615,-0.99714 8.37947,-3.37769 8.37947,-3.37769z"/></g></g><text transform="translate(172.89664,284.10418) scale(0.5,0.5)" font-size="40" xml:space="preserve" fill="#ffffff" fill-rule="nonzero" stroke="none" stroke-width="1" stroke-linecap="butt" stroke-linejoin="miter" stroke-miterlimit="10" stroke-dasharray="" stroke-dashoffset="0" font-family="Serif" font-weight="normal" text-anchor="start" style="mix-blend-mode: normal"><tspan x="0" dy="0">Click!</tspan></text></g></g></svg>