<svg version="1.1" xmlns="http://www.w3.org/2000/svg" xmlns:xlink="http://www.w3.org/1999/xlink" width="321.78258" height="294.50536" viewBox="0,0,321.78258,294.50536"><defs><linearGradient x1="382.95403" y1="152.82364" x2="387.54675" y2="152.72675" gradientUnits="userSpaceOnUse" id="color-1"><stop offset="0" stop-color="#dedede"/><stop offset="1" stop-color="#898989"/></linearGradient><linearGradient x1="384.41326" y1="194.06138" x2="389.00615" y2="193.97337" gradientUnits="userSpaceOnUse" id="color-2"><stop offset="0" stop-color="#dedede"/><stop offset="1" stop-color="#898989"/></linearGradient><radialGradient cx="386.1469" cy="172.53826" r="5.50993" gradientUnits="userSpaceOnUse" id="color-3"><stop offset="0" stop-color="#dedede"/><stop offset="1" stop-color="#898989"/></radialGradient><radialGradient cx="387.15078" cy="216.20645" r="5.50993" gradientUnits="userSpaceOnUse" id="color-4"><stop offset="0" stop-color="#dedede"/><stop offset="1" stop-color="#898989"/></radialGradient><linearGradient x1="364.1665" y1="226.46622" x2="370.40651" y2="224.22695" gradientUnits="userSpaceOnUse" id="color-5"><stop offset="0" stop-color="#dedede"/><stop offset="1" stop-color="#898989"/></linearGradient><radialGradient cx="354.75315" cy="299.74124" r="8.03577" gradientUnits="userSpaceOnUse" id="color-6"><stop offset="0" stop-color="#dedede"/><stop offset="1" stop-color="#898989"/></radialGradient><linearGradient x1="362.99061" y1="275.94123" x2="369.03473" y2="278.66533" gradientUnits="userSpaceOnUse" id="color-7"><stop offset="0" stop-color="#dedede"/><stop offset="1" stop-color="#898989"/></linearGradient><radialGradient cx="375.57172" cy="251.10234" r="5.72204" gradientUnits="userSpaceOnUse" id="color-8"><stop offset="0" stop-color="#dedede"/><stop offset="1" stop-color="#898989"/></radialGradient><radialGradient cx="317.64152" cy="299.87506" r="8.03577" gradientUnits="userSpaceOnUse" id="color-9"><stop offset="0" stop-color="#dedede"/><stop offset="1" stop-color="#898989"/></radialGradient><linearGradient x1="317.39913" y1="273.63666" x2="310.88825" y2="274.88592" gradientUnits="userSpaceOnUse" id="color-10"><stop offset="0" stop-color="#dedede"/><stop offset="1" stop-color="#898989"/></linearGradient><linearGradient x1="315.9478" y1="220.02762" x2="309.35417" y2="219.33756" gradientUnits="userSpaceOnUse" id="color-11"><stop offset="0" stop-color="#dedede"/><stop offset="1" stop-color="#898989"/></linearGradient><radialGradient cx="309.52936" cy="247.05176" r="5.72205" gradientUnits="userSpaceOnUse" id="color-12"><stop offset="0" stop-color="#dedede"/><stop offset="1" stop-color="#898989"/></radialGradient><radialGradient cx="354.17852" cy="195.13381" r="8.03577" gradientUnits="userSpaceOnUse" id="color-13"><stop offset="0" stop-color="#dedede"/><stop offset="1" stop-color="#898989"/></radialGradient><radialGradient cx="319.53028" cy="190.28781" r="8.03577" gradientUnits="userSpaceOnUse" id="color-14"><stop offset="0" stop-color="#dedede"/><stop offset="1" stop-color="#898989"/></radialGradient><linearGradient x1="358.20539" y1="92.12995" x2="363.61204" y2="92.90725" gradientUnits="userSpaceOnUse" id="color-15"><stop offset="0" stop-color="#ffffff"/><stop offset="1" stop-color="#c1c1c1"/></linearGradient><linearGradient x1="351.19072" y1="87.16603" x2="356.53233" y2="86.02446" gradientUnits="userSpaceOnUse" id="color-16"><stop offset="0" stop-color="#ffffff"/><stop offset="1" stop-color="#c1c1c1"/></linearGradient><linearGradient x1="345.28062" y1="88.42907" x2="350.62224" y2="87.28751" gradientUnits="userSpaceOnUse" id="color-17"><stop offset="0" stop-color="#ffffff"/><stop offset="1" stop-color="#c1c1c1"/></linearGradient><linearGradient x1="338.95564" y1="89.73195" x2="344.29727" y2="88.59039" gradientUnits="userSpaceOnUse" id="color-18"><stop offset="0" stop-color="#ffffff"/><stop offset="1" stop-color="#c1c1c1"/></linearGradient><linearGradient x1="349.63069" y1="79.92369" x2="350.85349" y2="85.64546" gradientUnits="userSpaceOnUse" id="color-19"><stop offset="0" stop-color="#dedede"/><stop offset="1" stop-color="#898989"/></linearGradient><radialGradient cx="384.3881" cy="131.1901" r="6.79248" gradientUnits="userSpaceOnUse" id="color-20"><stop offset="0" stop-color="#dedede"/><stop offset="1" stop-color="#898989"/></radialGradient><radialGradient cx="307.53331" cy="121.69637" r="6.79248" gradientUnits="userSpaceOnUse" id="color-21"><stop offset="0" stop-color="#dedede"/><stop offset="1" stop-color="#898989"/></radialGradient><linearGradient x1="295.55243" y1="143.30635" x2="291.80778" y2="140.64553" gradientUnits="userSpaceOnUse" id="color-22"><stop offset="0" stop-color="#dedede"/><stop offset="1" stop-color="#898989"/></linearGradient><linearGradient x1="278.52663" y1="180.95107" x2="274.01059" y2="180.10969" gradientUnits="userSpaceOnUse" id="color-23"><stop offset="0" stop-color="#dedede"/><stop offset="1" stop-color="#898989"/></linearGradient><radialGradient cx="281.23506" cy="160.63153" r="5.50993" gradientUnits="userSpaceOnUse" id="color-24"><stop offset="0" stop-color="#dedede"/><stop offset="1" stop-color="#898989"/></radialGradient><radialGradient cx="272.18812" cy="202.34549" r="5.50993" gradientUnits="userSpaceOnUse" id="color-25"><stop offset="0" stop-color="#dedede"/><stop offset="1" stop-color="#898989"/></radialGradient></defs><g transform="translate(-134.25,-32.24464)"><g data-paper-data="{&quot;isPaintingLayer&quot;:true}" fill-rule="nonzero" stroke-linecap="butt" stroke-linejoin="miter" stroke-miterlimit="10" stroke-dasharray="" stroke-dashoffset="0" style="mix-blend-mode: normal"><g><g data-paper-data="{&quot;index&quot;:null}"><path d="M381.07432,170.30315c0,0 -2.60278,-11.52718 -2.78647,-17.49634c-0.17934,-5.82752 1.73177,-16.77123 1.73177,-16.77123l9.59668,-0.26626c0,0 2.4158,12.09421 2.54736,16.3692c0.18507,6.01329 -1.90109,17.90975 -1.90109,17.90975z" fill="#000000" stroke="#000000" stroke-width="1.5"/><path d="M387.94601,173.19786l-4.5927,0.09688l-0.79853,-40.94226l4.59269,-0.09687z" fill="url(#color-1)" stroke="none" stroke-width="0"/><path d="M381.21542,169.81568c0,0 -0.05769,-0.25557 -0.1565,-0.71026c0.16685,-0.15586 -2.57647,-7.68245 -2.83901,-15.93246c-0.26887,-8.44932 1.94082,-17.62492 1.94082,-17.62492l9.59666,-0.26618c0,0 2.41058,12.12374 2.51507,17.66536c0.1106,5.86617 -1.86878,16.61351 -1.86878,16.61351z" fill="#101800" stroke="#000000" stroke-width="1.5"/></g><g data-paper-data="{&quot;index&quot;:null}"><path d="M382.49975,211.53721c0,0 -2.58046,-11.53218 -2.75263,-17.5017c-0.16807,-5.82785 1.76421,-16.76785 1.76421,-16.76785l9.59718,-0.24769c0,0 2.39242,12.09885 2.51569,16.37408c0.17343,6.01363 -1.93572,17.90604 -1.93572,17.90604z" fill="#000000" stroke="#000000" stroke-width="1.5"/><path d="M389.36582,214.44521l-4.59287,0.08801l-0.71933,-40.94373l4.59288,-0.088z" fill="url(#color-2)" stroke="none" stroke-width="0"/><path d="M382.64178,211.05002c0,0 -0.0572,-0.25568 -0.15513,-0.71056c0.16714,-0.15554 -2.56161,-7.68741 -2.80818,-15.93793c-0.25254,-8.44983 1.97492,-17.62112 1.97492,-17.62112l9.59715,-0.24762c0,0 2.38713,12.12838 2.48088,17.67019c0.09925,5.86639 -1.90091,16.60986 -1.90091,16.60986z" fill="#101800" stroke="#000000" stroke-width="1.5"/></g><path d="M380.78158,173.79233c-0.67721,-2.89734 1.17594,-5.80755 4.13912,-6.50014c2.96318,-0.6926 5.91432,1.09468 6.59152,3.99202c0.67721,2.89733 -1.17595,5.80755 -4.13913,6.50015c-2.96318,0.69259 -5.91431,-1.09469 -6.59151,-3.99202z" data-paper-data="{&quot;index&quot;:null}" fill="url(#color-3)" stroke="none" stroke-width="0"/><path d="M381.74144,215.15842c0.56595,-2.92111 3.44659,-4.81991 6.43407,-4.2411c2.9875,0.57881 4.95055,3.41606 4.38461,6.33716c-0.56595,2.92111 -3.44659,4.81991 -6.43407,4.2411c-2.9875,-0.57881 -4.95054,-3.41605 -4.3846,-6.33715z" data-paper-data="{&quot;index&quot;:null}" fill="url(#color-4)" stroke="none" stroke-width="0"/><g data-paper-data="{&quot;index&quot;:null}" fill="#101800" stroke="#000000" stroke-width="1.5"><path d="M391.13854,225.72231c2.12973,3.37962 -0.27742,8.72422 -5.3765,11.93747c-5.09902,3.21326 -15.2352,3.06786 -13.08887,-0.30118c0.83485,-1.3105 2.42422,-0.17116 5.10913,-0.63403c2.46632,-0.42518 11.07217,-3.60253 8.24976,-8.01647c-2.45006,-3.83181 2.97677,-6.3654 5.10649,-2.98578z"/><path d="M388.98984,223.41417c3.8731,2.57288 3.86596,9.39589 -0.01593,15.23956c-3.88197,5.84366 -14.71407,10.5232 -14.0418,5.92223c0.26152,-1.78963 2.49255,-1.33786 5.12267,-3.10978c2.41604,-1.6276 10.03868,-9.10546 4.9368,-12.44638c-4.429,-2.9002 0.12509,-8.17854 3.99827,-5.60564z"/><path d="M385.43049,218.59995c6.05859,1.17381 9.53437,9.53573 7.76335,18.6768c-1.77103,9.14107 -12.65067,20.40554 -14.17681,14.42594c-0.59361,-2.32586 2.37004,-2.91178 4.68712,-6.42571c2.12843,-3.22766 7.64725,-16.28102 -0.30874,-17.76814c-6.90672,-1.29088 -9.5346,8.59756 -12.14172,5.51713c-2.48965,-2.94162 8.11816,-15.59984 14.17681,-14.42602z"/></g><g data-paper-data="{&quot;index&quot;:null}"><path d="M366.62788,251.35084c0,0 -9.59595,-14.49354 -12.59273,-22.67141c-2.9257,-7.9839 -4.61116,-24.27598 -4.61116,-24.27598l16.14058,-5.91472c0,0 9.53438,15.38842 11.68061,21.24521c3.01898,8.23846 4.83643,25.95388 4.83643,25.95388z" fill="#000000" stroke="#000000" stroke-width="1.5"/><path d="M380.36815,252.37869l-6.24001,2.23929l-19.92327,-56.30349l6.24002,-2.23927z" fill="url(#color-5)" stroke="none" stroke-width="0"/><path d="M364.88325,198.24734c0,0 10.05942,14.69514 13.0784,22.93361c2.14623,5.85679 4.81232,23.76209 4.81232,23.76209l-16.14049,5.91468c0,0 -7.93988,-11.6199 -11.43005,-19.67656c0.09939,0.10549 -2.06985,-5.47843 -1.96733,-5.37718c0.9863,3.38835 -3.80651,-21.89368 -3.80651,-21.89368z" data-paper-data="{&quot;index&quot;:null}" fill="#101800" stroke="#000000" stroke-width="1.5"/></g><path d="M346.71736,299.74124c0,-4.33942 3.59774,-7.8572 8.03577,-7.8572c4.43804,0 8.03578,3.51778 8.03578,7.8572c0,4.33941 -3.59774,7.8572 -8.03577,7.8572c-4.43804,0 -8.03577,-3.51778 -8.03577,-7.8572z" data-paper-data="{&quot;index&quot;:null}" fill="url(#color-6)" stroke="none" stroke-width="0"/><g data-paper-data="{&quot;index&quot;:null}"><path d="M347.47422,295.55106c0,0 3.16587,-17.09158 6.69126,-25.05587c3.44176,-7.77538 13.54722,-20.66542 13.54722,-20.66542l15.71902,6.95801c0,0 -3.83181,17.69251 -6.35661,23.39635c-3.55151,8.0233 -14.55077,22.02884 -14.55077,22.02884z" fill="#000000" stroke="#000000" stroke-width="1.5"/><path d="M356.6438,305.83553l-6.04414,-2.72407l24.78189,-54.34039l6.04413,2.72409z" fill="url(#color-7)" stroke="none" stroke-width="0"/><path d="M383.10933,256.14085c0,0 -2.97254,17.55856 -6.52405,25.58186c-2.52479,5.70383 -13.04552,20.43551 -13.04552,20.43551l-15.71894,-6.95797c0,0 2.36084,-13.87408 5.44712,-22.09393c-0.00179,0.14492 2.31688,-5.37862 2.32029,-5.23456c-1.64436,3.12246 12.47106,-18.39281 12.47106,-18.39281z" data-paper-data="{&quot;index&quot;:null}" fill="#101800" stroke="#000000" stroke-width="1.5"/></g><path d="M371.47273,255.09483c-2.15601,-2.21351 -2.06862,-5.7954 0.19518,-8.0004c2.2638,-2.205 5.84678,-2.19813 8.00278,0.01537c2.15599,2.21349 2.0686,5.7954 -0.1952,8.0004c-2.2638,2.205 -5.84677,2.19813 -8.00278,-0.01538z" data-paper-data="{&quot;index&quot;:null}" fill="url(#color-8)" stroke="none" stroke-width="0"/><g data-paper-data="{&quot;index&quot;:null}" fill="#101800"><path d="M367.96061,297.86408c13.11694,0 23.75031,6.10232 23.75031,13.62991c0,7.5276 -10.63337,13.62991 -23.75031,13.62991c-13.11694,0 -23.75031,-6.10232 -23.75031,-13.62991c0,-7.5276 10.63337,-13.62991 23.75031,-13.62991z" stroke="#000000" stroke-width="1.5"/><path d="M392.45229,298.0856c7.12191,0 12.89535,5.62729 12.89535,12.56889c0,6.94161 -5.77344,12.5689 -12.89535,12.5689c-7.12191,0 -12.89535,-5.6273 -12.89535,-12.5689c0,-6.9416 5.77344,-12.56889 12.89535,-12.56889z" stroke="#000000" stroke-width="1.5"/><path d="M382.0054,298.73857c7.12191,0 12.89535,5.62729 12.89535,12.56889c0,6.94161 -5.77344,12.5689 -12.89535,12.5689c-7.12191,0 -12.89535,-5.6273 -12.89535,-12.5689c0,-6.9416 5.77344,-12.56889 12.89535,-12.56889z" stroke="#000000" stroke-width="1.5"/><path d="M370.25267,298.73857c7.12191,0 12.89536,5.62729 12.89536,12.56889c0,6.9416 -5.77345,12.56889 -12.89536,12.56889c-7.12191,0 -12.89536,-5.62729 -12.89536,-12.56889c0,-6.9416 5.77345,-12.56889 12.89536,-12.56889z" stroke="#000000" stroke-width="1.5"/><path d="M359.64258,302.56524c6.13025,0 11.0998,3.89367 11.0998,8.69677c0,4.8031 -4.96954,8.69678 -11.0998,8.69678c-6.13025,0 -11.0998,-3.89368 -11.0998,-8.69678c0,-4.80309 4.96954,-8.69677 11.0998,-8.69677z" stroke="none" stroke-width="0"/></g><path d="M325.67729,299.87506c0,4.33942 -3.59774,7.8572 -8.03577,7.8572c-4.43804,0 -8.03577,-3.51779 -8.03577,-7.8572c0,-4.33942 3.59775,-7.8572 8.03578,-7.8572c4.43804,0 8.03577,3.51778 8.03577,7.8572z" fill="url(#color-9)" stroke="none" stroke-width="0"/><g><path d="M311.76453,299.30127c0,0 -7.45423,-16.17323 -9.04975,-24.80114c-1.13427,-6.13366 -0.76174,-24.23253 -0.76174,-24.23253l16.90356,-3.1259c0,0 6.84325,14.88097 8.38947,23.24227c1.58379,8.56445 0.70271,25.92442 0.70271,25.92442z" fill="#000000" stroke="#000000" stroke-width="1.5"/><path d="M305.13097,245.58392l6.51087,-1.24928l11.51453,58.60406l-6.51088,1.24926z" fill="url(#color-10)" stroke="none" stroke-width="0"/><path d="M318.60071,246.7201c0,0 8.74528,24.20067 7.86926,20.78214c0.0367,-0.13935 1.01224,5.77116 1.04408,5.62976c1.09741,8.7113 0.17884,22.7548 0.17884,22.7548l-16.90347,3.12588c0,0 -6.82044,-16.76872 -7.95472,-22.90236c-1.59552,-8.62792 -0.41816,-26.39735 -0.41816,-26.39735z" data-paper-data="{&quot;index&quot;:null}" fill="#101800" stroke="#000000" stroke-width="1.5"/></g><g fill="#101800"><path d="M328.18434,311.62786c0,7.52759 -10.63337,13.62991 -23.75031,13.62991c-13.11694,0 -23.75031,-6.10231 -23.75031,-13.62991c0,-7.52759 10.63337,-13.62991 23.75031,-13.62991c13.11694,0 23.75031,6.10231 23.75031,13.62991z" stroke="#000000" stroke-width="1.5"/><path d="M292.83774,310.78835c0,6.9416 -5.77344,12.5689 -12.89535,12.5689c-7.12191,0 -12.89535,-5.62729 -12.89535,-12.5689c0,-6.9416 5.77344,-12.56889 12.89535,-12.56889c7.12191,0 12.89535,5.62729 12.89535,12.56889z" stroke="#000000" stroke-width="1.5"/><path d="M303.28461,311.44132c0,6.9416 -5.77344,12.5689 -12.89535,12.5689c-7.12191,0 -12.89535,-5.62729 -12.89535,-12.5689c0,-6.9416 5.77344,-12.56889 12.89535,-12.56889c7.12191,0 12.89535,5.62729 12.89535,12.56889z" stroke="#000000" stroke-width="1.5"/><path d="M315.03734,311.44132c0,6.9416 -5.77345,12.56889 -12.89536,12.56889c-7.12191,0 -12.89536,-5.62729 -12.89536,-12.56889c0,-6.9416 5.77345,-12.56889 12.89536,-12.56889c7.12191,0 12.89536,5.62729 12.89536,12.56889z" stroke="#000000" stroke-width="1.5"/><path d="M323.85189,311.39582c0,4.8031 -4.96954,8.69678 -11.0998,8.69678c-6.13025,0 -11.0998,-3.89368 -11.0998,-8.69678c0,-4.8031 4.96954,-8.69677 11.0998,-8.69677c6.13025,0 11.0998,3.89368 11.0998,8.69677z" stroke="none" stroke-width="0"/></g><g><path d="M303.12137,242.9602c0,0 -2.45041,-17.63901 -1.47859,-26.35922c0.69086,-6.19928 6.28948,-23.41449 6.28948,-23.41449l17.08441,1.90394c0,0 2.23988,16.22517 1.29811,24.67592c-0.96466,8.65608 -6.83602,25.01677 -6.83602,25.01677z" fill="#000000" stroke="#000000" stroke-width="1.5"/><path d="M312.33053,189.62401l6.59364,0.69004l-5.95276,59.42714l-6.59363,-0.69006z" fill="url(#color-11)" stroke="none" stroke-width="0"/><path d="M324.89386,194.61279c0,0 1.36107,25.69629 1.51273,22.17058c0.07548,-0.12274 -0.70267,5.81698 -0.63124,5.69086c-1.47272,8.65576 -6.41941,21.83127 -6.41941,21.83127l-17.08431,-1.90393c0,0 -1.6713,-18.0254 -0.98043,-24.22466c0.9718,-8.72021 7.24534,-25.387 7.24534,-25.387z" data-paper-data="{&quot;index&quot;:null}" fill="#101800" stroke="#000000" stroke-width="1.5"/></g><path d="M314.46067,249.9542c-1.56734,2.66297 -5.04573,3.52226 -7.76922,1.9193c-2.72348,-1.60296 -3.66074,-5.06118 -2.09342,-7.72413c1.56734,-2.66297 5.04576,-3.52225 7.76925,-1.9193c2.72349,1.60295 3.66072,5.06116 2.09339,7.72413z" fill="url(#color-12)" stroke="none" stroke-width="0"/><path d="M346.4517,197.34063c-1.19171,-4.17258 1.30162,-8.54313 5.56902,-9.76191c4.2674,-1.2188 8.69289,1.17569 9.88461,5.34828c1.1917,4.17256 -1.30164,8.54313 -5.56904,9.76191c-4.2674,1.21879 -8.69287,-1.17569 -9.88459,-5.34828z" data-paper-data="{&quot;index&quot;:null}" fill="url(#color-13)" stroke="none" stroke-width="0"/><path d="M326.32248,194.58196c-2.31891,3.66787 -7.2397,4.71868 -10.99092,2.34709c-3.75122,-2.37158 -4.91236,-7.26755 -2.59348,-10.9354c2.31891,-3.66787 7.23972,-4.71867 10.99094,-2.34708c3.75122,2.37158 4.91236,7.26753 2.59346,10.9354z" fill="url(#color-14)" stroke="none" stroke-width="0"/><path d="M338.51414,168.43774c0,0 -1.79153,-12.99612 -0.87936,-19.34092c0.64848,-4.51065 5.47982,-16.90172 5.47982,-16.90172l14.04438,2.01911c0,0 1.63631,11.95386 0.75232,18.10274c-0.90546,6.29817 -5.95043,18.05398 -5.95043,18.05398z" fill="#ff2323" stroke="#000000" stroke-width="1.5"/><path d="M309.31598,124.93195l1.11783,-7.77537l71.19199,10.23498l-1.11783,7.77537z" fill="#000000" stroke="none" stroke-width="0"/><path d="M375.55275,159.26378c-3.67183,25.54033 -18.81837,42.71867 -39.22168,39.78537c-20.40331,-2.93331 -30.85859,-24.23648 -27.18675,-49.77682c3.67183,-25.54033 24.7327,-57.38209 41.98658,-54.91127c15.18343,2.17432 28.05195,39.65267 24.42185,64.90272z" fill="#101800" stroke="#000000" stroke-width="1.5"/><path d="M357.73697,95.38822l0.93685,-6.51648l5.40664,0.77729l-0.93685,6.51648z" fill="url(#color-15)" stroke="none" stroke-width="0"/><path d="M351.87866,90.38507l-1.37589,-6.4381l5.34161,-1.14156l1.37589,6.4381z" fill="url(#color-16)" stroke="none" stroke-width="0"/><path d="M345.96857,91.64812l-1.37589,-6.4381l5.34161,-1.14156l1.37589,6.4381z" fill="url(#color-17)" stroke="none" stroke-width="0"/><path d="M339.64359,92.95101l-1.37589,-6.4381l5.34161,-1.14156l1.37589,6.4381z" fill="url(#color-18)" stroke="none" stroke-width="0"/><path d="M336.9893,88.60838l-1.22279,-5.72172l27.72836,-5.92584l1.22279,5.72172z" fill="url(#color-19)" stroke="none" stroke-width="0"/><path d="M377.85679,133.05546c-1.00733,-3.52699 1.10025,-7.22134 4.7074,-8.25155c3.60715,-1.03022 7.34794,0.99381 8.35526,4.52081c1.00733,3.52699 -1.10025,7.22134 -4.7074,8.25155c-3.60715,1.03022 -7.34792,-0.99382 -8.35524,-4.52082z" data-paper-data="{&quot;index&quot;:null}" fill="url(#color-20)" stroke="none" stroke-width="0"/><path d="M313.27464,125.32611c-1.96011,3.10037 -6.11957,3.98862 -9.29041,1.98397c-3.17084,-2.00465 -4.15232,-6.14311 -2.19221,-9.24348c1.96011,-3.10037 6.11959,-3.98861 9.29043,-1.98396c3.17084,2.00465 4.15232,6.14311 2.19221,9.24348z" fill="url(#color-21)" stroke="none" stroke-width="0"/><g><path d="M279.82814,153.44784c0,0 4.95908,-11.01299 8.49106,-15.88317c2.51097,-3.46235 11.30517,-12.1092 11.30517,-12.1092l7.78875,5.61271c0,0 -4.56849,10.1265 -7.99138,14.84624c-3.50608,4.83446 -12.13632,12.90721 -12.13632,12.90721z" fill="#000000" stroke="#000000" stroke-width="1.5"/><path d="M303.64097,123.93617l3.74464,2.66081l-23.66637,33.4187l-3.74464,-2.66082z" fill="url(#color-22)" stroke="none" stroke-width="0"/><path d="M279.98535,152.96524c0,0 4.40169,-10.00242 7.78944,-14.79276c3.20032,-4.52532 12.00678,-13.19953 12.00678,-13.19953l7.78878,5.61264c0,0 -3.32799,8.83168 -8.29815,15.66988c-4.85293,6.67688 -11.35146,11.36138 -11.30103,11.58406c-0.33722,0.32059 -0.52856,0.49958 -0.52856,0.49958z" fill="#101800" stroke="#000000" stroke-width="1.5"/></g><g><path d="M268.51814,196.76032c0,0 -0.1267,-12.07733 1.03234,-17.98075c0.82398,-4.19689 5.17158,-15.7383 5.17158,-15.7383l9.42608,1.82103c0,0 0.1087,11.1088 -1.01453,16.82985c-1.15054,5.86011 -5.59056,16.81167 -5.59056,16.81167z" fill="#000000" stroke="#000000" stroke-width="1.5"/><path d="M277.72867,159.97506l4.51601,0.84136l-7.43615,40.26922l-4.51601,-0.84137z" fill="url(#color-23)" stroke="none" stroke-width="0"/><path d="M268.45807,196.25634c0,0 -0.20795,-10.9261 0.85374,-16.69647c1.00295,-5.45111 5.35019,-17.02251 5.35019,-17.02251l9.42607,1.82096c0,0 0.69043,9.41262 -0.94687,17.70615c-1.59869,8.0979 -5.52778,15.07914 -5.38845,15.26001c-0.17134,0.43261 -0.26976,0.67542 -0.26976,0.67542z" fill="#101800" stroke="#000000" stroke-width="1.5"/></g><path d="M285.89229,163.57593c-1.59001,2.51497 -4.96408,3.23548 -7.53619,1.60935c-2.57211,-1.62614 -3.36828,-4.98318 -1.77827,-7.49814c1.59001,-2.51497 4.96409,-3.23548 7.5362,-1.60934c2.57211,1.62614 3.36827,4.98316 1.77827,7.49813z" fill="url(#color-24)" stroke="none" stroke-width="0"/><path d="M277.69613,202.2004c0.07835,2.9744 -2.32415,5.45057 -5.36614,5.53071c-3.04199,0.08013 -5.57153,-2.26613 -5.64988,-5.24052c-0.07835,-2.9744 2.32416,-5.45057 5.36615,-5.53071c3.04199,-0.08013 5.57153,2.26613 5.64988,5.24052z" fill="url(#color-25)" stroke="none" stroke-width="0"/><g fill="#101800" stroke="#000000" stroke-width="1.5"><path d="M271.23777,214.86106c-3.50922,3.89026 4.4577,8.43828 6.82065,9.26289c2.57238,0.89768 4.32733,0.03494 4.93554,1.46479c1.56369,3.67589 -8.45867,2.15404 -12.9605,-1.85326c-4.50191,-4.0073 -5.99829,-9.67476 -3.34227,-12.65856c2.65602,-2.9838 7.59286,0.40693 4.54658,3.78415z"/><path d="M272.21289,215.33947c-5.58142,2.45734 0.70911,11.08591 2.82493,13.08832c2.30329,2.17994 4.57822,2.10086 4.54216,3.90913c-0.09276,4.6489 -10.00889,-1.74664 -12.87807,-8.14868c-2.8691,-6.40203 -1.7552,-13.1335 2.48798,-15.03511c4.24326,-1.90161 7.86829,4.05318 3.02299,6.18634z"/><path d="M285.10596,221.54819c-3.07778,2.61026 -4.04539,-7.57556 -11.07035,-7.43691c-8.09221,0.15984 -4.79289,13.9425 -3.22366,17.47599c1.70831,3.84685 4.53543,4.9117 3.56776,7.10843c-2.48778,5.64764 -11.36897,-7.25119 -11.61416,-16.55901c-0.24519,-9.30782 4.55714,-16.98508 10.72624,-17.14759c6.16918,-0.16251 14.55325,14.06645 11.61416,16.55909z"/></g><g stroke="#000000"><path d="M386.01009,94.57809c3.87206,18.11827 -7.51297,35.91003 -25.42917,39.73891c-17.9162,3.82887 -35.57912,-7.75503 -39.45118,-25.8733c-3.87208,-18.11836 7.51295,-35.91012 25.42915,-39.739c17.9162,-3.82887 35.57912,7.75503 39.45121,25.87339z" fill="#101800" stroke-width="1.5"/><path d="M382.75171,91.54864c3.41057,15.95886 -7.41427,31.80027 -24.17799,35.38285c-16.76372,3.58259 -33.11818,-6.45033 -36.52875,-22.40919c-3.41057,-15.95885 7.41427,-31.80026 24.17799,-35.38284c16.76372,-3.58259 33.11818,6.45033 36.52875,22.40918z" fill="#192500" stroke-width="0"/><path d="M380.14142,88.38505c3.07185,14.37388 -7.0071,28.71233 -22.51199,32.02588c-15.50489,3.31356 -30.56427,-5.65257 -33.63611,-20.02645c-3.07185,-14.37388 7.0071,-28.71233 22.51199,-32.02588c15.50489,-3.31356 30.56427,5.65257 33.63611,20.02645z" fill="#000000" stroke-width="1.5"/></g><g stroke-width="1.5"><path d="M386.72408,60.16915c3.7753,17.66551 -10.74313,35.74305 -32.42786,40.37729c-21.68472,4.63425 -42.32413,-5.92967 -46.09944,-23.5952c-3.7753,-17.66551 10.74312,-35.74305 32.42785,-40.37729c21.68472,-4.63425 42.32414,5.92967 46.09945,23.5952z" fill="#101800" stroke="#000000"/><path d="M340.62339,47.94687c2.13052,3.91674 -0.69964,9.57085 -6.32127,12.62872c-5.62169,3.05791 -11.9061,2.36169 -14.03662,-1.55505c-2.13055,-3.91679 0.69961,-9.57089 6.3213,-12.6288c5.62163,-3.05787 11.90603,-2.36165 14.03657,1.55514z" fill="#000000" stroke="#000000"/><path d="M357.04153,67.65984c1.58879,7.43434 -1.49139,14.39458 -6.87986,15.54615c-5.38846,1.15157 -11.04459,-3.94163 -12.63338,-11.37597c-1.58881,-7.43443 1.49136,-14.39468 6.87983,-15.54625c5.38846,-1.15157 11.0446,3.94163 12.63341,11.37607z" data-paper-data="{&quot;origPos&quot;:[&quot;Point&quot;,472.43718,129.79445]}" fill="#060900" stroke="#000000"/><path d="M357.32122,40.54398c6.38054,0.49291 11.27459,4.49626 10.93116,8.94177c-0.34343,4.44546 -5.79427,7.64964 -12.17482,7.15672c-6.38046,-0.49291 -11.27451,-4.49626 -10.93108,-8.94172c0.34343,-4.44551 5.79427,-7.64969 12.17475,-7.15677z" data-paper-data="{&quot;index&quot;:null}" fill="#000000" stroke="#000000"/><path d="M356.04992,45.07669c1.85635,-0.39672 3.68554,0.7991 4.08557,2.67098c0.40004,1.87189 -0.78056,3.71093 -2.63691,4.10765c-1.85635,0.39672 -3.68548,-0.79911 -4.08552,-2.67099c-0.40003,-1.87184 0.7805,-3.71092 2.63685,-4.10764z" data-paper-data="{&quot;index&quot;:null}" fill="#000000" stroke="#ffffff"/><path d="M329.41525,50.10112c1.85635,-0.39672 3.68555,0.7991 4.08558,2.67098c0.40004,1.87189 -0.78056,3.71093 -2.63692,4.10765c-1.85635,0.39672 -3.68548,-0.79911 -4.08552,-2.67099c-0.40003,-1.87183 0.7805,-3.71092 2.63685,-4.10764z" data-paper-data="{&quot;index&quot;:null}" fill="#000000" stroke="#ffffff"/></g></g><path d="M135,326v-292h126v292z" fill="#00471e" stroke="#d3ffcd" stroke-width="1.5"/><text transform="translate(376.4308,60.09649) scale(0.21213,0.21213)" font-size="40" xml:space="preserve" fill="#00b94d" fill-rule="nonzero" stroke="none" stroke-width="1" stroke-linecap="butt" stroke-linejoin="miter" stroke-miterlimit="10" stroke-dasharray="" stroke-dashoffset="0" font-family="&quot;ヒラギノ角ゴ Pro W3&quot;, &quot;Hiragino Kaku Gothic Pro&quot;, Osaka, &quot;メイリオ&quot;, Meiryo, &quot;ＭＳ Ｐゴシック&quot;, &quot;MS PGothic&quot;" font-weight="normal" text-anchor="start" style="mix-blend-mode: normal"><tspan x="0" dy="0">SCROLL TO TOGGLE</tspan></text><text transform="translate(139.83333,69.32718) scale(0.24889,0.24889)" font-size="40" xml:space="preserve" fill="#00ff6a" fill-rule="nonzero" stroke="none" stroke-width="1" stroke-linecap="butt" stroke-linejoin="miter" stroke-miterlimit="10" stroke-dasharray="" stroke-dashoffset="0" font-family="&quot;ヒラギノ角ゴ Pro W3&quot;, &quot;Hiragino Kaku Gothic Pro&quot;, Osaka, &quot;メイリオ&quot;, Meiryo, &quot;ＭＳ Ｐゴシック&quot;, &quot;MS PGothic&quot;" font-weight="normal" text-anchor="start" style="mix-blend-mode: normal"><tspan x="0" dy="0">A shadowy figure who</tspan><tspan x="0" dy="48px">takes the form of Withered</tspan><tspan x="0" dy="48px">Grover. Once you start</tspan><tspan x="0" dy="48px">staring at him, he'll make</tspan><tspan x="0" dy="48px">sure you don't STOP</tspan><tspan x="0" dy="48px">staring.</tspan></text><text transform="translate(149,50.96602) scale(0.3083,0.3083)" font-size="40" xml:space="preserve" fill="#00ff6a" fill-rule="nonzero" stroke="none" stroke-width="1" stroke-linecap="butt" stroke-linejoin="miter" stroke-miterlimit="10" stroke-dasharray="" stroke-dashoffset="0" font-family="&quot;ヒラギノ角ゴ Pro W3&quot;, &quot;Hiragino Kaku Gothic Pro&quot;, Osaka, &quot;メイリオ&quot;, Meiryo, &quot;ＭＳ Ｐゴシック&quot;, &quot;MS PGothic&quot;" font-weight="normal" text-anchor="start" style="mix-blend-mode: normal"><tspan x="0" dy="0">EDIOLON GROVER</tspan></text><text transform="translate(395.33333,49.14447) scale(0.48985,0.48985)" font-size="40" xml:space="preserve" fill="#00ff6a" fill-rule="nonzero" stroke="none" stroke-width="1" stroke-linecap="butt" stroke-linejoin="miter" stroke-miterlimit="10" stroke-dasharray="" stroke-dashoffset="0" font-family="&quot;ヒラギノ角ゴ Pro W3&quot;, &quot;Hiragino Kaku Gothic Pro&quot;, Osaka, &quot;メイリオ&quot;, Meiryo, &quot;ＭＳ Ｐゴシック&quot;, &quot;MS PGothic&quot;" font-weight="normal" text-anchor="start" style="mix-blend-mode: normal"><tspan x="0" dy="0">OLD</tspan></text><text transform="translate(346.4308,323.09649) scale(0.21213,0.21213)" font-size="40" xml:space="preserve" fill="#00b94d" fill-rule="nonzero" stroke="none" stroke-width="1" stroke-linecap="butt" stroke-linejoin="miter" stroke-miterlimit="10" stroke-dasharray="" stroke-dashoffset="0" font-family="&quot;ヒラギノ角ゴ Pro W3&quot;, &quot;Hiragino Kaku Gothic Pro&quot;, Osaka, &quot;メイリオ&quot;, Meiryo, &quot;ＭＳ Ｐゴシック&quot;, &quot;MS PGothic&quot;" font-weight="normal" text-anchor="start" style="mix-blend-mode: normal"><tspan x="0" dy="0">CLICK TO SEE NEXT IMAGE</tspan></text></g></g></svg>