<svg version="1.1" xmlns="http://www.w3.org/2000/svg" xmlns:xlink="http://www.w3.org/1999/xlink" width="190.28252" height="204.1799" viewBox="0,0,190.28252,204.1799"><g transform="translate(-260.00459,-129.13537)"><g data-paper-data="{&quot;isPaintingLayer&quot;:true}" fill-rule="nonzero" stroke-linecap="butt" stroke-linejoin="miter" stroke-miterlimit="10" stroke-dasharray="" stroke-dashoffset="0" style="mix-blend-mode: normal"><g fill="#5e5e5e" stroke="#000000" stroke-width="0"><path d="M339.28137,195.41046h13.92646v41.80856h-13.92646z"/><path d="M425.46504,195.6292h13.92646v41.58982h-13.92646z"/><path d="M436.38018,209.46087v13.92646h-17.52839v-13.92646z"/><path d="M269.28445,249.39556h13.92646v70.94476h-13.92646z"/><path d="M311.72006,306.42773v13.92646h-37.25876v-13.92646z"/></g><path d="M326.22987,257.56185v-18.59292h4.15607v18.59292z" fill="none" stroke="#9bc2e0" stroke-width="3"/><path d="M299.63104,238.83769v-18.59292h4.15607v18.59292z" fill="none" stroke="#9bc2e0" stroke-width="3"/><path d="M444.63105,193.58769v-18.59292h4.15607v18.59292z" fill="none" stroke="#9bc2e0" stroke-width="3"/><path d="M402.5848,168.7618h18.59292v4.15607h-18.59292z" fill="none" stroke="#9bc2e0" stroke-width="3"/><path d="M358.5848,168.7618h18.59292v4.15607h-18.59292z" fill="none" stroke="#9bc2e0" stroke-width="3"/><path d="M314.91812,168.7618h18.59292v4.15607h-18.59292z" fill="none" stroke="#9bc2e0" stroke-width="3"/><path d="M305.88702,195.78961h18.59292v4.15607h-18.59292z" fill="none" stroke="#9bc2e0" stroke-width="3"/><path d="M365.82186,232.97545h18.59292v4.15607h-18.59292z" fill="none" stroke="#9bc2e0" stroke-width="3"/><path d="M328.81642,331.81527v-52.59751h70.5914v52.59751z" fill="none" stroke="#9bc2e0" stroke-width="3"/><path d="M312.07482,323.8725v-60.37232h104.77659l-0.07305,59.94437l-17.40832,-0.02429l-0.00049,-44.33901l-70.67046,-0.12343v44.91467z" fill="none" stroke="#9bc2e0" stroke-width="3"/><path d="M421.63708,323.18394v-85.96493h22.31151v85.96493z" fill="none" stroke="#9bc2e0" stroke-width="3"/><path d="M330.53175,237.32839h86.40241v22.31151h-86.40241z" fill="none" stroke="#9bc2e0" stroke-width="3"/><path d="M303.84542,173.19374h140.65v22.31151h-140.65z" fill="none" stroke="#9bc2e0" stroke-width="3"/><path d="M326.33923,199.96026v59.42444h-22.31151v-59.42444z" fill="none" stroke="#9bc2e0" stroke-width="3"/><path d="M418.64763,200.83522v31.86317h-57.74743v-31.86317z" fill="none" stroke="#9bc2e0" stroke-width="3"/><path d="M299.56541,210.45979v39.30033h-38.06081v-39.30033z" fill="none" stroke="#9bc2e0" stroke-width="3"/><path d="M430.9627,168.69618h-39.30033v-38.06081h39.30033z" fill="none" stroke="#9bc2e0" stroke-width="3"/><path d="M386.9627,168.69618h-39.30033v-38.06081h39.30033z" fill="none" stroke="#9bc2e0" stroke-width="3"/><path d="M343.29603,168.69618h-39.30033v-38.06081h39.30033z" fill="none" stroke="#9bc2e0" stroke-width="3"/><path d="M416.93417,318.80914v-18.59292h4.15607v18.59292z" fill="none" stroke="#9bc2e0" stroke-width="3"/><path d="M416.93417,257.56185v-18.59292h4.15607v18.59292z" fill="none" stroke="#9bc2e0" stroke-width="3"/><path d="M357.66642,313.17282v-13.46939h13.46939v13.46939z" fill="#ffffff" stroke="none" stroke-width="0"/></g></g></svg>