<svg version="1.1" xmlns="http://www.w3.org/2000/svg" xmlns:xlink="http://www.w3.org/1999/xlink" width="690.95324" height="650.24938" viewBox="0,0,690.95324,650.24938"><defs><radialGradient cx="500.4411" cy="385.1968" r="177.06844" gradientUnits="userSpaceOnUse" id="color-1"><stop offset="0" stop-color="#93266b"/><stop offset="1" stop-color="#6b1c4e"/></radialGradient><linearGradient x1="243.9366" y1="592.60426" x2="244.10591" y2="614.96006" gradientUnits="userSpaceOnUse" id="color-2"><stop offset="0" stop-color="#565656"/><stop offset="1" stop-color="#8b8b8b"/></linearGradient><radialGradient cx="173.79919" cy="625.8597" r="18.70642" gradientUnits="userSpaceOnUse" id="color-3"><stop offset="0" stop-color="#636363"/><stop offset="1" stop-color="#3c3c3c"/></radialGradient><radialGradient cx="333.37192" cy="625.71499" r="18.70642" gradientUnits="userSpaceOnUse" id="color-4"><stop offset="0" stop-color="#636363"/><stop offset="1" stop-color="#3c3c3c"/></radialGradient><linearGradient x1="-38.85844" y1="306.30843" x2="-33.20955" y2="306.26566" gradientUnits="userSpaceOnUse" id="color-5"><stop offset="0" stop-color="#bebebe"/><stop offset="1" stop-color="#797979"/></linearGradient><linearGradient x1="-24.31214" y1="305.91811" x2="-18.62361" y2="305.87501" gradientUnits="userSpaceOnUse" id="color-6"><stop offset="0" stop-color="#bebebe"/><stop offset="1" stop-color="#797979"/></linearGradient><linearGradient x1="-9.13536" y1="306.53711" x2="-3.44679" y2="306.49401" gradientUnits="userSpaceOnUse" id="color-7"><stop offset="0" stop-color="#bebebe"/><stop offset="1" stop-color="#797979"/></linearGradient><linearGradient x1="5.67545" y1="306.3145" x2="11.41551" y2="306.27103" gradientUnits="userSpaceOnUse" id="color-8"><stop offset="0" stop-color="#bebebe"/><stop offset="1" stop-color="#797979"/></linearGradient><linearGradient x1="20.17895" y1="307.27317" x2="25.9191" y2="307.2297" gradientUnits="userSpaceOnUse" id="color-9"><stop offset="0" stop-color="#bebebe"/><stop offset="1" stop-color="#797979"/></linearGradient><linearGradient x1="35.3533" y1="307.2177" x2="41.09336" y2="307.17424" gradientUnits="userSpaceOnUse" id="color-10"><stop offset="0" stop-color="#bebebe"/><stop offset="1" stop-color="#797979"/></linearGradient><linearGradient x1="50.18554" y1="305.81463" x2="55.92557" y2="305.77117" gradientUnits="userSpaceOnUse" id="color-11"><stop offset="0" stop-color="#bebebe"/><stop offset="1" stop-color="#797979"/></linearGradient><linearGradient x1="63.6896" y1="305.93383" x2="69.39932" y2="305.8906" gradientUnits="userSpaceOnUse" id="color-12"><stop offset="0" stop-color="#bebebe"/><stop offset="1" stop-color="#797979"/></linearGradient><linearGradient x1="15.31724" y1="254.32839" x2="15.55629" y2="285.89373" gradientUnits="userSpaceOnUse" id="color-13"><stop offset="0" stop-color="#bebebe"/><stop offset="1" stop-color="#797979"/></linearGradient><linearGradient x1="15.87162" y1="326.36158" x2="16.11471" y2="358.45984" gradientUnits="userSpaceOnUse" id="color-14"><stop offset="0" stop-color="#797979"/><stop offset="1" stop-color="#bebebe"/></linearGradient><linearGradient x1="16.66564" y1="300.40989" x2="16.76515" y2="313.55033" gradientUnits="userSpaceOnUse" id="color-15"><stop offset="0" stop-color="#bebebe"/><stop offset="1" stop-color="#797979"/></linearGradient><radialGradient cx="-67.95026" cy="301.41534" r="15.46597" gradientUnits="userSpaceOnUse" id="color-16"><stop offset="0" stop-color="#636363"/><stop offset="1" stop-color="#3c3c3c"/></radialGradient><radialGradient cx="14.81867" cy="305.28354" r="93.56381" gradientUnits="userSpaceOnUse" id="color-17"><stop offset="0" stop-color="#af2e80"/><stop offset="1" stop-color="#892464"/></radialGradient><linearGradient x1="523.07318" y1="302.05268" x2="517.42427" y2="302.09546" gradientUnits="userSpaceOnUse" id="color-18"><stop offset="0" stop-color="#bebebe"/><stop offset="1" stop-color="#797979"/></linearGradient><linearGradient x1="508.52259" y1="301.88271" x2="502.83405" y2="301.92579" gradientUnits="userSpaceOnUse" id="color-19"><stop offset="0" stop-color="#bebebe"/><stop offset="1" stop-color="#797979"/></linearGradient><linearGradient x1="493.35696" y1="302.73151" x2="487.66841" y2="302.77458" gradientUnits="userSpaceOnUse" id="color-20"><stop offset="0" stop-color="#bebebe"/><stop offset="1" stop-color="#797979"/></linearGradient><linearGradient x1="478.54448" y1="302.73326" x2="472.80441" y2="302.77673" gradientUnits="userSpaceOnUse" id="color-21"><stop offset="0" stop-color="#bebebe"/><stop offset="1" stop-color="#797979"/></linearGradient><linearGradient x1="464.05711" y1="303.91149" x2="458.31702" y2="303.95497" gradientUnits="userSpaceOnUse" id="color-22"><stop offset="0" stop-color="#bebebe"/><stop offset="1" stop-color="#797979"/></linearGradient><linearGradient x1="448.88371" y1="304.08586" x2="443.14358" y2="304.12933" gradientUnits="userSpaceOnUse" id="color-23"><stop offset="0" stop-color="#bebebe"/><stop offset="1" stop-color="#797979"/></linearGradient><linearGradient x1="434.03192" y1="302.9076" x2="428.29189" y2="302.95107" gradientUnits="userSpaceOnUse" id="color-24"><stop offset="0" stop-color="#bebebe"/><stop offset="1" stop-color="#797979"/></linearGradient><linearGradient x1="420.53117" y1="303.23133" x2="414.82149" y2="303.27455" gradientUnits="userSpaceOnUse" id="color-25"><stop offset="0" stop-color="#bebebe"/><stop offset="1" stop-color="#797979"/></linearGradient><linearGradient x1="468.11639" y1="250.89913" x2="468.35545" y2="282.46449" gradientUnits="userSpaceOnUse" id="color-26"><stop offset="0" stop-color="#bebebe"/><stop offset="1" stop-color="#797979"/></linearGradient><linearGradient x1="468.65312" y1="322.93246" x2="468.8962" y2="355.03073" gradientUnits="userSpaceOnUse" id="color-27"><stop offset="0" stop-color="#797979"/><stop offset="1" stop-color="#bebebe"/></linearGradient><linearGradient x1="467.46614" y1="296.99578" x2="467.56564" y2="310.13623" gradientUnits="userSpaceOnUse" id="color-28"><stop offset="0" stop-color="#bebebe"/><stop offset="1" stop-color="#797979"/></linearGradient><radialGradient cx="552.08753" cy="296.71953" r="15.46601" gradientUnits="userSpaceOnUse" id="color-29"><stop offset="0" stop-color="#636363"/><stop offset="1" stop-color="#3c3c3c"/></radialGradient><radialGradient cx="469.3867" cy="301.84089" r="93.56385" gradientUnits="userSpaceOnUse" id="color-30"><stop offset="0" stop-color="#af2e80"/><stop offset="1" stop-color="#892464"/></radialGradient><linearGradient x1="206.03451" y1="254.4548" x2="221.53079" y2="258.56089" gradientUnits="userSpaceOnUse" id="color-31"><stop offset="0" stop-color="#bebebe"/><stop offset="1" stop-color="#797979"/></linearGradient><linearGradient x1="275.25426" y1="253.93057" x2="259.8219" y2="258.27089" gradientUnits="userSpaceOnUse" id="color-32"><stop offset="0" stop-color="#bebebe"/><stop offset="1" stop-color="#797979"/></linearGradient><linearGradient x1="170.14492" y1="304.46497" x2="170.83967" y2="396.20039" gradientUnits="userSpaceOnUse" id="color-33"><stop offset="0" stop-color="#bebebe"/><stop offset="1" stop-color="#9f9f9f"/></linearGradient><linearGradient x1="308.96591" y1="301.90828" x2="309.66066" y2="393.64369" gradientUnits="userSpaceOnUse" id="color-34"><stop offset="0" stop-color="#bebebe"/><stop offset="1" stop-color="#9f9f9f"/></linearGradient><linearGradient x1="229.20685" y1="304.65925" x2="252.55517" y2="304.48242" gradientUnits="userSpaceOnUse" id="color-35"><stop offset="0" stop-color="#bebebe"/><stop offset="1" stop-color="#9f9f9f"/></linearGradient><linearGradient x1="240.52777" y1="302.33636" x2="240.60046" y2="311.93562" gradientUnits="userSpaceOnUse" id="color-36"><stop offset="0" stop-color="#bebebe"/><stop offset="1" stop-color="#9f9f9f"/></linearGradient><radialGradient cx="124.49071" cy="303.26197" r="15.46597" gradientUnits="userSpaceOnUse" id="color-37"><stop offset="0" stop-color="#636363"/><stop offset="1" stop-color="#3c3c3c"/></radialGradient><radialGradient cx="371.96895" cy="299.95708" r="15.46597" gradientUnits="userSpaceOnUse" id="color-38"><stop offset="0" stop-color="#636363"/><stop offset="1" stop-color="#3c3c3c"/></radialGradient><linearGradient x1="241.87651" y1="389.59541" x2="243.47248" y2="600.33012" gradientUnits="userSpaceOnUse" id="color-39"><stop offset="0" stop-color="#bebebe"/><stop offset="1" stop-color="#545454"/></linearGradient><linearGradient x1="239.89062" y1="383.1795" x2="239.97904" y2="394.85367" gradientUnits="userSpaceOnUse" id="color-40"><stop offset="0" stop-color="#bebebe"/><stop offset="1" stop-color="#9f9f9f"/></linearGradient><radialGradient cx="269.82603" cy="399.6372" r="36.672" gradientUnits="userSpaceOnUse" id="color-41"><stop offset="0" stop-color="#8d8d8d"/><stop offset="1" stop-color="#1e1e1e"/></radialGradient><radialGradient cx="269.56045" cy="411.79974" r="36.67208" gradientUnits="userSpaceOnUse" id="color-42"><stop offset="0" stop-color="#8d8d8d"/><stop offset="1" stop-color="#1e1e1e"/></radialGradient><radialGradient cx="268.94538" cy="425.03797" r="36.67208" gradientUnits="userSpaceOnUse" id="color-43"><stop offset="0" stop-color="#8d8d8d"/><stop offset="1" stop-color="#1e1e1e"/></radialGradient><radialGradient cx="268.67438" cy="436.48524" r="36.67208" gradientUnits="userSpaceOnUse" id="color-44"><stop offset="0" stop-color="#8d8d8d"/><stop offset="1" stop-color="#1e1e1e"/></radialGradient><radialGradient cx="268.74752" cy="446.14165" r="36.67208" gradientUnits="userSpaceOnUse" id="color-45"><stop offset="0" stop-color="#8d8d8d"/><stop offset="1" stop-color="#1e1e1e"/></radialGradient><radialGradient cx="268.13518" cy="459.73751" r="36.67208" gradientUnits="userSpaceOnUse" id="color-46"><stop offset="0" stop-color="#8d8d8d"/><stop offset="1" stop-color="#1e1e1e"/></radialGradient><radialGradient cx="267.85339" cy="469.75418" r="36.672" gradientUnits="userSpaceOnUse" id="color-47"><stop offset="0" stop-color="#8d8d8d"/><stop offset="1" stop-color="#1e1e1e"/></radialGradient><radialGradient cx="268.31185" cy="483.06379" r="36.67208" gradientUnits="userSpaceOnUse" id="color-48"><stop offset="0" stop-color="#8d8d8d"/><stop offset="1" stop-color="#1e1e1e"/></radialGradient><radialGradient cx="268.75618" cy="494.50563" r="36.67204" gradientUnits="userSpaceOnUse" id="color-49"><stop offset="0" stop-color="#8d8d8d"/><stop offset="1" stop-color="#1e1e1e"/></radialGradient><radialGradient cx="241.03415" cy="439.5795" r="143.20442" gradientUnits="userSpaceOnUse" id="color-50"><stop offset="0" stop-color="#af2e80"/><stop offset="1" stop-color="#892464"/></radialGradient><radialGradient cx="268.6314" cy="377.89982" r="120.73236" gradientUnits="userSpaceOnUse" id="color-51"><stop offset="0" stop-color="#258d2f"/><stop offset="1" stop-color="#1b692b"/></radialGradient><linearGradient x1="238.36892" y1="216.27444" x2="219.78539" y2="342.17043" gradientUnits="userSpaceOnUse" id="color-52"><stop offset="0" stop-color="#bdbdbd"/><stop offset="1" stop-color="#848484"/></linearGradient><radialGradient cx="335.78941" cy="283.10511" r="122.84631" gradientUnits="userSpaceOnUse" id="color-53"><stop offset="0" stop-color="#af2e80"/><stop offset="1" stop-color="#892464"/></radialGradient><radialGradient cx="229.35856" cy="264.88017" r="91.97381" gradientUnits="userSpaceOnUse" id="color-54"><stop offset="0" stop-color="#1e1e1e"/><stop offset="1" stop-color="#000000"/></radialGradient><linearGradient x1="232.55815" y1="245.92421" x2="231.95184" y2="250.03177" gradientUnits="userSpaceOnUse" id="color-55"><stop offset="0" stop-color="#bebebe"/><stop offset="1" stop-color="#9f9f9f"/></linearGradient><linearGradient x1="236.29162" y1="124.16063" x2="217.58233" y2="250.9086" gradientUnits="userSpaceOnUse" id="color-56"><stop offset="0" stop-color="#bebebe"/><stop offset="1" stop-color="#9f9f9f"/></linearGradient><linearGradient x1="265.04464" y1="128.40488" x2="246.33534" y2="255.15284" gradientUnits="userSpaceOnUse" id="color-57"><stop offset="0" stop-color="#bebebe"/><stop offset="1" stop-color="#9f9f9f"/></linearGradient><linearGradient x1="234.15121" y1="239.51586" x2="229.67116" y2="269.86642" gradientUnits="userSpaceOnUse" id="color-58"><stop offset="0" stop-color="#8f8f8f"/><stop offset="1" stop-color="#797979"/></linearGradient><linearGradient x1="276.85516" y1="266.10425" x2="279.45931" y2="248.46213" gradientUnits="userSpaceOnUse" id="color-59"><stop offset="0" stop-color="#373737"/><stop offset="1" stop-color="#8f8f8f"/></linearGradient><linearGradient x1="185.11692" y1="252.56275" x2="187.72107" y2="234.92062" gradientUnits="userSpaceOnUse" id="color-60"><stop offset="0" stop-color="#373737"/><stop offset="1" stop-color="#8f8f8f"/></linearGradient><linearGradient x1="270.63628" y1="270.24994" x2="273.24043" y2="252.60785" gradientUnits="userSpaceOnUse" id="color-61"><stop offset="0" stop-color="#373737"/><stop offset="1" stop-color="#8f8f8f"/></linearGradient><linearGradient x1="189.87274" y1="258.32842" x2="192.47689" y2="240.68633" gradientUnits="userSpaceOnUse" id="color-62"><stop offset="0" stop-color="#373737"/><stop offset="1" stop-color="#8f8f8f"/></linearGradient><linearGradient x1="262.4297" y1="273.0895" x2="265.03386" y2="255.44741" gradientUnits="userSpaceOnUse" id="color-63"><stop offset="0" stop-color="#373737"/><stop offset="1" stop-color="#8f8f8f"/></linearGradient><linearGradient x1="196.90886" y1="263.41796" x2="199.51301" y2="245.77587" gradientUnits="userSpaceOnUse" id="color-64"><stop offset="0" stop-color="#373737"/><stop offset="1" stop-color="#8f8f8f"/></linearGradient><linearGradient x1="254.06469" y1="274.89295" x2="256.66884" y2="257.25087" gradientUnits="userSpaceOnUse" id="color-65"><stop offset="0" stop-color="#373737"/><stop offset="1" stop-color="#8f8f8f"/></linearGradient><linearGradient x1="204.3961" y1="267.56137" x2="207.00025" y2="249.91928" gradientUnits="userSpaceOnUse" id="color-66"><stop offset="0" stop-color="#373737"/><stop offset="1" stop-color="#8f8f8f"/></linearGradient><linearGradient x1="244.90205" y1="275.76847" x2="247.50621" y2="258.1264" gradientUnits="userSpaceOnUse" id="color-67"><stop offset="0" stop-color="#373737"/><stop offset="1" stop-color="#8f8f8f"/></linearGradient><linearGradient x1="212.91496" y1="271.04685" x2="215.51912" y2="253.40478" gradientUnits="userSpaceOnUse" id="color-68"><stop offset="0" stop-color="#373737"/><stop offset="1" stop-color="#8f8f8f"/></linearGradient><linearGradient x1="235.58095" y1="275.60789" x2="238.18511" y2="257.96573" gradientUnits="userSpaceOnUse" id="color-69"><stop offset="0" stop-color="#373737"/><stop offset="1" stop-color="#8f8f8f"/></linearGradient><linearGradient x1="221.88502" y1="273.58623" x2="224.48917" y2="255.94408" gradientUnits="userSpaceOnUse" id="color-70"><stop offset="0" stop-color="#373737"/><stop offset="1" stop-color="#8f8f8f"/></linearGradient><linearGradient x1="316.31051" y1="304.55404" x2="324.17775" y2="251.25666" gradientUnits="userSpaceOnUse" id="color-71"><stop offset="0" stop-color="#767676"/><stop offset="1" stop-color="#ececec"/></linearGradient><linearGradient x1="330.28109" y1="281.77404" x2="311.35808" y2="278.98082" gradientUnits="userSpaceOnUse" id="color-72"><stop offset="0" stop-color="#4c4c4c"/><stop offset="1" stop-color="#2c2c2c"/></linearGradient><linearGradient x1="136.09983" y1="277.9531" x2="143.96706" y2="224.65572" gradientUnits="userSpaceOnUse" id="color-73"><stop offset="0" stop-color="#767676"/><stop offset="1" stop-color="#ececec"/></linearGradient><linearGradient x1="129.30678" y1="252.1082" x2="148.22976" y2="254.90142" gradientUnits="userSpaceOnUse" id="color-74"><stop offset="0" stop-color="#4c4c4c"/><stop offset="1" stop-color="#2c2c2c"/></linearGradient><linearGradient x1="303.32122" y1="317.93426" x2="311.18848" y2="264.63684" gradientUnits="userSpaceOnUse" id="color-75"><stop offset="0" stop-color="#767676"/><stop offset="1" stop-color="#ececec"/></linearGradient><linearGradient x1="317.29182" y1="295.15424" x2="298.36883" y2="292.36101" gradientUnits="userSpaceOnUse" id="color-76"><stop offset="0" stop-color="#4c4c4c"/><stop offset="1" stop-color="#2c2c2c"/></linearGradient><linearGradient x1="144.66934" y1="294.5156" x2="152.53657" y2="241.2182" gradientUnits="userSpaceOnUse" id="color-77"><stop offset="0" stop-color="#767676"/><stop offset="1" stop-color="#ececec"/></linearGradient><linearGradient x1="137.87618" y1="268.67064" x2="156.79924" y2="271.46389" gradientUnits="userSpaceOnUse" id="color-78"><stop offset="0" stop-color="#4c4c4c"/><stop offset="1" stop-color="#2c2c2c"/></linearGradient><linearGradient x1="286.58194" y1="327.70135" x2="294.44918" y2="274.40398" gradientUnits="userSpaceOnUse" id="color-79"><stop offset="0" stop-color="#767676"/><stop offset="1" stop-color="#ececec"/></linearGradient><linearGradient x1="300.55259" y1="304.92139" x2="281.62957" y2="302.12815" gradientUnits="userSpaceOnUse" id="color-80"><stop offset="0" stop-color="#4c4c4c"/><stop offset="1" stop-color="#2c2c2c"/></linearGradient><linearGradient x1="157.87269" y1="308.70256" x2="165.73992" y2="255.40519" gradientUnits="userSpaceOnUse" id="color-81"><stop offset="0" stop-color="#767676"/><stop offset="1" stop-color="#ececec"/></linearGradient><linearGradient x1="151.0796" y1="282.85764" x2="170.00262" y2="285.65088" gradientUnits="userSpaceOnUse" id="color-82"><stop offset="0" stop-color="#4c4c4c"/><stop offset="1" stop-color="#2c2c2c"/></linearGradient><linearGradient x1="269.68583" y1="334.38585" x2="277.55306" y2="281.08843" gradientUnits="userSpaceOnUse" id="color-83"><stop offset="0" stop-color="#767676"/><stop offset="1" stop-color="#ececec"/></linearGradient><linearGradient x1="283.65644" y1="311.60588" x2="264.73346" y2="308.81265" gradientUnits="userSpaceOnUse" id="color-84"><stop offset="0" stop-color="#4c4c4c"/><stop offset="1" stop-color="#2c2c2c"/></linearGradient><linearGradient x1="172.11693" y1="319.98369" x2="179.98417" y2="266.68628" gradientUnits="userSpaceOnUse" id="color-85"><stop offset="0" stop-color="#767676"/><stop offset="1" stop-color="#ececec"/></linearGradient><linearGradient x1="165.32382" y1="294.13876" x2="184.24683" y2="296.932" gradientUnits="userSpaceOnUse" id="color-86"><stop offset="0" stop-color="#4c4c4c"/><stop offset="1" stop-color="#2c2c2c"/></linearGradient><linearGradient x1="251.34671" y1="338.40974" x2="259.21395" y2="285.11231" gradientUnits="userSpaceOnUse" id="color-87"><stop offset="0" stop-color="#767676"/><stop offset="1" stop-color="#ececec"/></linearGradient><linearGradient x1="265.31732" y1="315.62976" x2="246.39431" y2="312.83653" gradientUnits="userSpaceOnUse" id="color-88"><stop offset="0" stop-color="#4c4c4c"/><stop offset="1" stop-color="#2c2c2c"/></linearGradient><linearGradient x1="188.51131" y1="329.13458" x2="196.37856" y2="275.83717" gradientUnits="userSpaceOnUse" id="color-89"><stop offset="0" stop-color="#767676"/><stop offset="1" stop-color="#ececec"/></linearGradient><linearGradient x1="181.71819" y1="303.28967" x2="200.6412" y2="306.0829" gradientUnits="userSpaceOnUse" id="color-90"><stop offset="0" stop-color="#4c4c4c"/><stop offset="1" stop-color="#2c2c2c"/></linearGradient><linearGradient x1="232.85074" y1="339.35092" x2="240.71798" y2="286.05354" gradientUnits="userSpaceOnUse" id="color-91"><stop offset="0" stop-color="#767676"/><stop offset="1" stop-color="#ececec"/></linearGradient><linearGradient x1="246.82136" y1="316.57095" x2="227.89838" y2="313.77772" gradientUnits="userSpaceOnUse" id="color-92"><stop offset="0" stop-color="#4c4c4c"/><stop offset="1" stop-color="#2c2c2c"/></linearGradient><linearGradient x1="205.94651" y1="335.37958" x2="213.81377" y2="282.08221" gradientUnits="userSpaceOnUse" id="color-93"><stop offset="0" stop-color="#767676"/><stop offset="1" stop-color="#ececec"/></linearGradient><linearGradient x1="199.1534" y1="309.53468" x2="218.07642" y2="312.3279" gradientUnits="userSpaceOnUse" id="color-94"><stop offset="0" stop-color="#4c4c4c"/><stop offset="1" stop-color="#2c2c2c"/></linearGradient><linearGradient x1="137.55923" y1="115.61064" x2="129.69198" y2="168.90806" gradientUnits="userSpaceOnUse" id="color-95"><stop offset="0" stop-color="#767676"/><stop offset="1" stop-color="#ececec"/></linearGradient><linearGradient x1="123.58862" y1="138.39062" x2="142.51163" y2="141.18385" gradientUnits="userSpaceOnUse" id="color-96"><stop offset="0" stop-color="#4c4c4c"/><stop offset="1" stop-color="#2c2c2c"/></linearGradient><linearGradient x1="365.55995" y1="150.48969" x2="357.69272" y2="203.78706" gradientUnits="userSpaceOnUse" id="color-97"><stop offset="0" stop-color="#767676"/><stop offset="1" stop-color="#ececec"/></linearGradient><linearGradient x1="372.35304" y1="176.3346" x2="353.43006" y2="173.54138" gradientUnits="userSpaceOnUse" id="color-98"><stop offset="0" stop-color="#4c4c4c"/><stop offset="1" stop-color="#2c2c2c"/></linearGradient><linearGradient x1="151.40357" y1="126.68352" x2="143.53633" y2="179.98094" gradientUnits="userSpaceOnUse" id="color-99"><stop offset="0" stop-color="#767676"/><stop offset="1" stop-color="#ececec"/></linearGradient><linearGradient x1="137.43296" y1="149.4635" x2="156.35595" y2="152.25672" gradientUnits="userSpaceOnUse" id="color-100"><stop offset="0" stop-color="#4c4c4c"/><stop offset="1" stop-color="#2c2c2c"/></linearGradient><linearGradient x1="349.10681" y1="157.09038" x2="341.23958" y2="210.38776" gradientUnits="userSpaceOnUse" id="color-101"><stop offset="0" stop-color="#767676"/><stop offset="1" stop-color="#ececec"/></linearGradient><linearGradient x1="355.8999" y1="182.93529" x2="336.97692" y2="180.14206" gradientUnits="userSpaceOnUse" id="color-102"><stop offset="0" stop-color="#4c4c4c"/><stop offset="1" stop-color="#2c2c2c"/></linearGradient><linearGradient x1="167.79454" y1="140.89407" x2="159.9273" y2="194.19149" gradientUnits="userSpaceOnUse" id="color-103"><stop offset="0" stop-color="#767676"/><stop offset="1" stop-color="#ececec"/></linearGradient><linearGradient x1="153.82393" y1="163.67405" x2="172.74691" y2="166.46727" gradientUnits="userSpaceOnUse" id="color-104"><stop offset="0" stop-color="#4c4c4c"/><stop offset="1" stop-color="#2c2c2c"/></linearGradient><linearGradient x1="329.48587" y1="164.76136" x2="321.61863" y2="218.05878" gradientUnits="userSpaceOnUse" id="color-105"><stop offset="0" stop-color="#767676"/><stop offset="1" stop-color="#ececec"/></linearGradient><linearGradient x1="336.27896" y1="190.60627" x2="317.35602" y2="187.81305" gradientUnits="userSpaceOnUse" id="color-106"><stop offset="0" stop-color="#4c4c4c"/><stop offset="1" stop-color="#2c2c2c"/></linearGradient><linearGradient x1="271.33406" y1="-1.85136" x2="244.27012" y2="181.49593" gradientUnits="userSpaceOnUse" id="color-107"><stop offset="0" stop-color="#bdbdbd"/><stop offset="1" stop-color="#848484"/></linearGradient><linearGradient x1="268.68862" y1="16.07045" x2="241.62467" y2="199.41776" gradientUnits="userSpaceOnUse" id="color-108"><stop offset="0" stop-color="#717171"/><stop offset="1" stop-color="#a9a9a9"/></linearGradient><radialGradient cx="334.48571" cy="27.42754" r="137.86777" gradientUnits="userSpaceOnUse" id="color-109"><stop offset="0" stop-color="#af2e80"/><stop offset="1" stop-color="#892464"/></radialGradient><radialGradient cx="226.33439" cy="48.47918" r="20.55298" gradientUnits="userSpaceOnUse" id="color-110"><stop offset="0" stop-color="#ffffff"/><stop offset="1" stop-color="#d1d1d1"/></radialGradient><radialGradient cx="295.99634" cy="58.762" r="20.55298" gradientUnits="userSpaceOnUse" id="color-111"><stop offset="0" stop-color="#ffffff"/><stop offset="1" stop-color="#d1d1d1"/></radialGradient><radialGradient cx="226.33439" cy="48.47918" r="11.26677" gradientUnits="userSpaceOnUse" id="color-112"><stop offset="0" stop-color="#ffffff"/><stop offset="1" stop-color="#ff0000"/></radialGradient><radialGradient cx="295.99634" cy="58.762" r="11.26674" gradientUnits="userSpaceOnUse" id="color-113"><stop offset="0" stop-color="#ffffff"/><stop offset="1" stop-color="#ff0000"/></radialGradient><linearGradient x1="177.51318" y1="149.67144" x2="169.64595" y2="202.96882" gradientUnits="userSpaceOnUse" id="color-114"><stop offset="0" stop-color="#767676"/><stop offset="1" stop-color="#ececec"/></linearGradient><linearGradient x1="163.54252" y1="172.45141" x2="182.46555" y2="175.24464" gradientUnits="userSpaceOnUse" id="color-115"><stop offset="0" stop-color="#4c4c4c"/><stop offset="1" stop-color="#2c2c2c"/></linearGradient><linearGradient x1="313.45382" y1="169.73766" x2="305.58658" y2="223.03505" gradientUnits="userSpaceOnUse" id="color-116"><stop offset="0" stop-color="#767676"/><stop offset="1" stop-color="#ececec"/></linearGradient><linearGradient x1="320.2469" y1="195.58259" x2="301.32388" y2="192.78935" gradientUnits="userSpaceOnUse" id="color-117"><stop offset="0" stop-color="#4c4c4c"/><stop offset="1" stop-color="#2c2c2c"/></linearGradient><linearGradient x1="189.47031" y1="155.71974" x2="181.60307" y2="209.01716" gradientUnits="userSpaceOnUse" id="color-118"><stop offset="0" stop-color="#767676"/><stop offset="1" stop-color="#ececec"/></linearGradient><linearGradient x1="175.4997" y1="178.49973" x2="194.42267" y2="181.29295" gradientUnits="userSpaceOnUse" id="color-119"><stop offset="0" stop-color="#4c4c4c"/><stop offset="1" stop-color="#2c2c2c"/></linearGradient><linearGradient x1="300.2591" y1="172.07329" x2="292.39186" y2="225.37072" gradientUnits="userSpaceOnUse" id="color-120"><stop offset="0" stop-color="#767676"/><stop offset="1" stop-color="#ececec"/></linearGradient><linearGradient x1="307.05222" y1="197.91823" x2="288.12925" y2="195.12499" gradientUnits="userSpaceOnUse" id="color-121"><stop offset="0" stop-color="#4c4c4c"/><stop offset="1" stop-color="#2c2c2c"/></linearGradient><linearGradient x1="201.70781" y1="164.01416" x2="193.84056" y2="217.31154" gradientUnits="userSpaceOnUse" id="color-122"><stop offset="0" stop-color="#767676"/><stop offset="1" stop-color="#ececec"/></linearGradient><linearGradient x1="187.73716" y1="186.79413" x2="206.66017" y2="189.58736" gradientUnits="userSpaceOnUse" id="color-123"><stop offset="0" stop-color="#4c4c4c"/><stop offset="1" stop-color="#2c2c2c"/></linearGradient><linearGradient x1="286.14706" y1="176.47826" x2="278.27981" y2="229.77564" gradientUnits="userSpaceOnUse" id="color-124"><stop offset="0" stop-color="#767676"/><stop offset="1" stop-color="#ececec"/></linearGradient><linearGradient x1="292.9402" y1="202.32318" x2="274.01718" y2="199.52995" gradientUnits="userSpaceOnUse" id="color-125"><stop offset="0" stop-color="#4c4c4c"/><stop offset="1" stop-color="#2c2c2c"/></linearGradient><linearGradient x1="216.66567" y1="168.74734" x2="208.79844" y2="222.04468" gradientUnits="userSpaceOnUse" id="color-126"><stop offset="0" stop-color="#767676"/><stop offset="1" stop-color="#ececec"/></linearGradient><linearGradient x1="202.69506" y1="191.52727" x2="221.61805" y2="194.3205" gradientUnits="userSpaceOnUse" id="color-127"><stop offset="0" stop-color="#4c4c4c"/><stop offset="1" stop-color="#2c2c2c"/></linearGradient><linearGradient x1="270.45965" y1="176.68787" x2="262.59241" y2="229.98521" gradientUnits="userSpaceOnUse" id="color-128"><stop offset="0" stop-color="#767676"/><stop offset="1" stop-color="#ececec"/></linearGradient><linearGradient x1="277.2527" y1="202.53274" x2="258.32973" y2="199.73953" gradientUnits="userSpaceOnUse" id="color-129"><stop offset="0" stop-color="#4c4c4c"/><stop offset="1" stop-color="#2c2c2c"/></linearGradient><linearGradient x1="253.84859" y1="177.29542" x2="245.98135" y2="230.59282" gradientUnits="userSpaceOnUse" id="color-130"><stop offset="0" stop-color="#767676"/><stop offset="1" stop-color="#ececec"/></linearGradient><linearGradient x1="260.64167" y1="203.14032" x2="241.71866" y2="200.34709" gradientUnits="userSpaceOnUse" id="color-131"><stop offset="0" stop-color="#4c4c4c"/><stop offset="1" stop-color="#2c2c2c"/></linearGradient><linearGradient x1="233.62013" y1="173.69756" x2="225.75287" y2="226.99498" gradientUnits="userSpaceOnUse" id="color-132"><stop offset="0" stop-color="#767676"/><stop offset="1" stop-color="#ececec"/></linearGradient><linearGradient x1="219.64951" y1="196.47754" x2="238.57252" y2="199.27077" gradientUnits="userSpaceOnUse" id="color-133"><stop offset="0" stop-color="#4c4c4c"/><stop offset="1" stop-color="#2c2c2c"/></linearGradient><linearGradient x1="251.45419" y1="116.24547" x2="238.10123" y2="206.70631" gradientUnits="userSpaceOnUse" id="color-134"><stop offset="0" stop-color="#717171"/><stop offset="1" stop-color="#a9a9a9"/></linearGradient><linearGradient x1="255.53169" y1="81.35553" x2="238.70878" y2="195.32397" gradientUnits="userSpaceOnUse" id="color-135"><stop offset="0" stop-color="#bdbdbd"/><stop offset="1" stop-color="#848484"/></linearGradient><linearGradient x1="255.53169" y1="81.35553" x2="238.70878" y2="195.32397" gradientUnits="userSpaceOnUse" id="color-136"><stop offset="0" stop-color="#af2e80"/><stop offset="1" stop-color="#95276d"/></linearGradient><radialGradient cx="186.13991" cy="131.45148" r="10.26836" gradientUnits="userSpaceOnUse" id="color-137"><stop offset="0" stop-color="#5c1843"/><stop offset="1" stop-color="#9b2871"/></radialGradient><radialGradient cx="309.83229" cy="149.70974" r="10.26833" gradientUnits="userSpaceOnUse" id="color-138"><stop offset="0" stop-color="#5c1843"/><stop offset="1" stop-color="#9b2871"/></radialGradient></defs><g transform="translate(87.33411,3.97899)"><g data-paper-data="{&quot;isPaintingLayer&quot;:true}" fill-rule="nonzero" stroke-width="0" stroke-linecap="butt" stroke-linejoin="miter" stroke-miterlimit="10" stroke-dasharray="" stroke-dashoffset="0" style="mix-blend-mode: normal"><g><path d="M530.58489,392.03884c-13.21556,48.65667 -33.4295,100.72065 -61.75732,136.01019c-92.68657,115.46468 -241.57992,146.86242 -260.15633,90.13448c-10.04071,-30.66196 119.91343,-62.31446 198.3338,-142.9602c19.01136,-19.55084 35.9203,-41.11003 50.8535,-62.78082c52.95817,-76.85191 136.84501,-187.83004 145.75509,-182.89292c0.64929,0.35973 -56.38587,101.21394 -73.02874,162.48921z" fill="url(#color-1)" stroke="#000000"/><g stroke="none"><path d="M166.93548,636.98909l-7.92196,-21.84081l47.24901,-22.25868l75.73602,-0.57358l57.73132,27.39505l-12.17337,19.2554l-45.91619,-24.29069l-75.20848,0.56958z" fill="url(#color-2)"/><path d="M181.92575,628.20648c0.07443,9.82704 -8.24017,17.85682 -18.57112,17.93507c-10.33096,0.07824 -18.76621,-7.82473 -18.84063,-17.65173c-0.07443,-9.82704 8.24017,-17.85679 18.57112,-17.93502c10.33096,-0.07824 18.76621,7.82469 18.84063,17.65169z" fill="url(#color-3)"/><path d="M345.72664,628.33474c0.07443,9.82704 -8.24017,17.85682 -18.57112,17.93507c-10.33099,0.07824 -18.76621,-7.82473 -18.84063,-17.65173c-0.07443,-9.82704 8.24017,-17.85682 18.57112,-17.93507c10.33099,-0.07824 18.76621,7.82473 18.84063,17.65173z" fill="url(#color-4)"/></g></g><g stroke="none"><path d="M101.15588,341.36322c-14.37538,23.4376 -48.13432,23.2208 -85.8859,23.5067c-28.35311,0.21473 -53.04993,-6.8652 -70.30382,-19.42164c-0.1661,-0.12091 -0.33043,-0.25053 -0.49291,-0.38878c1.58178,-2.9748 3.47043,-6.09962 5.64223,-9.72802c-1.68019,-9.56069 5.14614,-7.79746 6.26376,-17.80139c0.62876,-5.62779 -3.65913,-10.86114 -4.64677,-16.01035c-0.44773,-2.33426 2.56449,-4.3597 3.19327,-5.89592c2.59681,-6.34427 0.52908,-9.42097 -1.56306,-13.83556c-0.27415,-0.57845 1.43419,0.63642 1.90921,0.2073c2.4126,-2.17962 5.91173,-4.29298 6.19814,-7.53174c0.20207,-2.28514 -3.79753,-2.72184 -5.12601,-4.59202c-0.53772,-0.75696 2.04099,-9.493 2.2254,-10.45261c0,0 0.12667,-0.65936 0.02809,-1.51838c15.53323,-7.51837 34.83183,-12.04517 55.77,-12.20374c39.68995,-0.30059 72.12634,-3.7513 86.37788,24.12073c4.30255,8.41458 5.7115,62.90279 0.4106,71.54537z" fill="#262626"/><g><g data-paper-data="{&quot;index&quot;:null}"><g><g><g><path d="M-33.21808,338.64907l-5.39532,0.01969l-0.23658,-64.74374l5.39532,-0.01973z" fill="url(#color-5)"/><path d="M-18.6335,343.31673l-5.39528,0.01969l-0.27356,-74.86001l5.39532,-0.01973z" fill="url(#color-6)"/><path d="M-3.45669,343.93566l-5.39532,0.01973l-0.27356,-74.85992l5.39534,-0.01973z" fill="url(#color-7)"/><path d="M11.40394,350.28841l-5.39532,0.01973l-0.32162,-88.01111l5.39532,-0.01973z" fill="url(#color-8)"/><path d="M25.90752,351.24712l-5.39532,0.01973l-0.32162,-88.01114l5.39532,-0.01973z" fill="url(#color-9)"/><path d="M41.08179,351.19166l-5.39532,0.01976l-0.32158,-88.01114l5.39532,-0.01976z" fill="url(#color-10)"/><path d="M55.914,349.78863l-5.39534,0.01973l-0.32158,-88.01111l5.39532,-0.01973z" fill="url(#color-11)"/><path d="M69.38872,346.03003l-5.39532,0.01973l-0.29322,-80.25531l5.39532,-0.01969z" fill="url(#color-12)"/><path d="M80.483,281.59522c0,0 -42.58541,-12.25372 -63.71007,-12.17653c-20.5852,0.07524 -66.30127,16.96799 -66.30127,16.96799l-0.60062,-16.72356c0,0 47.78634,-15.2816 68.46535,-15.3572c21.03866,-0.07687 62.62706,11.10142 62.62706,11.10142z" fill="url(#color-13)"/><path d="M81.57449,346.87845c0,0 -41.50564,11.48203 -62.54428,11.55888c-20.679,0.07552 -68.57571,-14.85647 -68.57571,-14.85647l0.47838,-16.72747c0,0 45.83831,16.55817 66.42348,16.48295c21.12463,-0.0772 63.61943,-12.64187 63.61943,-12.64187z" data-paper-data="{&quot;index&quot;:null}" fill="url(#color-14)"/><path d="M117.73341,312.78566l-194.33425,0.74012l-0.04537,-12.4092l194.33428,-0.74015z" fill="url(#color-15)"/></g></g></g></g><path d="M-56.4026,306.08094c0.06469,8.54137 -6.80705,15.51797 -15.3484,15.58266c-8.54139,0.06469 -15.51797,-6.80705 -15.58266,-15.3484c-0.06469,-8.54137 6.807,-15.51797 15.3484,-15.58266c8.54139,-0.06469 15.51797,6.807 15.58266,15.3484z" fill="url(#color-16)"/></g><path d="M101.15588,341.36322c-14.37538,23.4376 -48.13432,23.2208 -85.8859,23.5067c-28.35311,0.21473 -53.04993,-6.8652 -70.30382,-19.42164c-3.92948,-2.85965 -6.85097,-10.63371 -8.55993,-20.30195c10.83612,-1.78883 23.60829,0.40622 34.55165,1.84504c4.58329,0.60259 6.35981,4.91942 11.75538,6.22623l3.40896,0.83011c0,0 4.38857,1.06193 5.45046,-3.32663c1.06189,-4.38857 -3.32667,-5.45046 -3.32667,-5.45046l-3.82883,-0.92121c-5.39564,-0.4913 -5.39744,-4.79675 -11.81875,-6.23816c-6.20811,-1.39356 -13.57684,0.33914 -19.87316,-0.75256c-7.02042,-1.21727 -10.87585,-2.21745 -17.50812,-1.16962c-0.17525,-1.88727 -0.30954,-3.80686 -0.40171,-5.74137c9.14897,0.0377 20.25086,1.73633 24.95402,-4.78534c5.80474,-8.04914 -0.23333,-10.95337 -4.65504,-14.90825c-1.70826,-1.52791 4.59964,-2.23757 5.25515,-4.43365c3.15009,-10.5533 -6.99636,-16.88294 -15.21291,-18.56688c0,0 -1.05733,-0.20316 -2.23863,0.10528c0.65062,-0.75281 1.34199,-1.39835 2.07498,-1.92476c17.03301,-12.232 41.77986,-20.02805 69.37443,-20.23703c39.68995,-0.30059 72.12634,-3.7513 86.37788,24.12073c0.93539,1.82939 1.73402,5.83649 2.3567,11.07675c-1.20258,0.13004 -2.10962,0.68367 -2.10962,0.68367c-8.1658,5.24421 -7.14244,12.37441 -12.16377,18.55395c-1.89303,2.32969 -6.78945,-1.9773 -9.00542,0.04769c-2.01179,1.83838 -1.06129,5.34621 -1.59196,8.0193l0.02052,2.70904c0,0 0.03419,4.51508 4.54927,4.48088c4.51508,-0.03419 4.48088,-4.54927 4.48088,-4.54927l-0.01569,-2.07238c1.30948,0.66291 3.95508,1.00294 7.38972,-1.73665c5.48464,-4.37477 3.84755,-12.02489 9.30534,-16.55639c1.27479,19.24936 0.71097,45.15577 -2.80534,50.88876zM51.26517,308.07945c12.6883,3.58585 20.08563,-13.05968 12.21148,-21.6205c-4.71413,-5.12524 -18.63996,-3.91335 -25.32361,-6.53147c-8.24878,-3.14074 -16.26293,-8.91415 -25.50544,-3.20778c-4.41713,2.7272 -10.15583,13.11406 -7.20266,18.66238c1.22204,2.29598 4.59117,2.50548 6.61277,4.14196c2.48879,2.01472 3.1559,5.98886 5.96118,7.5327c9.3695,5.15639 13.0625,-2.6801 20.045,-6.00968c1.24751,-0.59485 6.28701,1.76608 9.33217,2.99803c1.1298,1.6057 2.06726,3.52512 3.86909,4.03435zM48.67305,333.7903c-2.70639,0.71459 -10.75436,4.0786 -9.16197,8.30896l-2.51102,3.40133c-0.57777,0.7652 -0.91743,1.71971 -0.90961,2.75261c0.01888,2.49358 2.05565,4.49976 4.54927,4.48088c1.49594,-0.01133 2.81649,-0.74891 3.6296,-1.87568l2.12743,-2.88183c3.33968,-1.33083 10.27199,6.33452 15.43179,5.4812c2.73222,-0.45186 5.65576,-1.44981 7.54758,-3.4722c1.70889,-1.82685 0.8629,-4.86467 1.24384,-7.40759c1.11877,-0.01128 2.23745,-0.02164 3.35607,-0.03012l2.70904,-0.02052c0,0 1.0384,-0.00787 2.11542,-0.51405c0.86136,0.22303 1.4555,0.38774 1.51349,0.39885c0,0 4.43411,0.85193 5.28604,-3.58215c0.85196,-4.43408 -3.58215,-5.28604 -3.58215,-5.28604c-5.19268,-0.99773 -10.69679,-3.17248 -15.47451,-0.30479c-6.10978,-0.36257 -12.75331,-0.79998 -17.87036,0.55112z" fill="url(#color-17)"/></g><g data-paper-data="{&quot;index&quot;:null}" stroke="none"><path d="M468.93539,242.2545c27.59461,-0.20899 52.45663,7.21134 69.67299,19.18395c1.12955,0.78554 2.16663,1.8495 3.11343,3.14961c-8.70948,4.01854 -10.82632,9.92091 -8.44739,19.3451c0.26914,1.06618 1.92311,1.64331 1.83761,2.73964c-0.2123,2.72204 -5.20852,2.51359 -6.58454,4.87178c-3.44264,5.89994 -0.75951,10.80412 0.35061,16.36361c0.75601,3.7864 -4.70525,7.74778 -4.41932,12.67639c0.69246,11.93648 6.81018,14.6243 15.89919,19.9346c-0.17061,0.15106 -0.34344,0.29249 -0.51844,0.42393c-17.06171,12.81632 -41.64849,20.2695 -70.0016,20.48423c-37.75161,0.28591 -71.50337,1.01397 -86.23212,-22.20317c-4.85099,-7.64666 -4.90373,-51.94322 -1.88513,-67.36206c1.17118,0.61623 2.37948,0.60708 2.37948,0.60708c11.90719,-0.09019 23.65785,2.16216 35.30035,4.16649c6.49455,1.11809 10.34539,7.41742 17.19398,8.89424l3.59516,0.06048c0,0 4.51508,-0.03419 4.48088,-4.54927c-0.03419,-4.51508 -4.54927,-4.48088 -4.54927,-4.48088l-1.82291,0.10147c-6.77557,-1.04935 -10.19413,-7.46351 -17.25737,-8.90618c-11.45571,-2.33982 -23.90053,-4.27032 -35.73196,-4.3187c14.94586,-23.5337 46.05854,-20.89785 83.62637,-21.18236z" fill="#262626"/><g><g data-paper-data="{&quot;index&quot;:null}"><g><g><g><path d="M517.17921,269.73506l5.39499,-0.06199l0.7441,64.73993l-5.39499,0.06203z" fill="url(#color-18)"/><path d="M502.55071,264.50746l5.39499,-0.06199l0.8603,74.85559l-5.39496,0.06203z" fill="url(#color-19)"/><path d="M487.38502,265.3563l5.39499,-0.06199l0.8603,74.85548l-5.39499,0.06199z" fill="url(#color-20)"/><path d="M472.47127,258.78305l5.39499,-0.06199l1.01143,88.00588l-5.39499,0.06199z" fill="url(#color-21)"/><path d="M457.98384,259.9612l5.39499,-0.06199l1.01143,88.00592l-5.39499,0.06199z" fill="url(#color-22)"/><path d="M442.81047,260.13562l5.39499,-0.06195l1.01148,88.00592l-5.39499,0.06195z" fill="url(#color-23)"/><path d="M427.95871,258.95747l5.39499,-0.06199l1.01148,88.00588l-5.39499,0.06199z" fill="url(#color-24)"/><path d="M414.51764,263.15868l5.39499,-0.06203l0.92236,80.25056l-5.39496,0.06199z" fill="url(#color-25)"/><path d="M402.64556,262.97105c0,0 41.41431,-11.8069 62.45173,-12.0487c20.67776,-0.23763 68.69012,14.31846 68.69012,14.31846l-0.34725,16.73074c0,0 -45.96669,-16.19841 -66.55067,-15.96184c-21.12346,0.24282 -63.51833,13.1401 -63.51833,13.1401z" fill="url(#color-26)"/><path d="M403.622,328.25095c0,0 42.68022,11.9196 63.80356,11.67683c20.584,-0.23655 66.16621,-17.48709 66.16621,-17.48709l0.73175,16.71831c0,0 -47.6651,15.65572 -68.34287,15.89341c-21.03738,0.2418 -62.71216,-10.61027 -62.71216,-10.61027z" data-paper-data="{&quot;index&quot;:null}" fill="url(#color-27)"/><path d="M366.45478,298.49241l194.32321,-2.20332l0.1426,12.40845l-194.32321,2.20335z" fill="url(#color-28)"/></g></g></g></g><path d="M555.96031,285.97687c8.54132,-0.06469 15.51797,6.807 15.58266,15.3484c0.06469,8.54137 -6.80697,15.51797 -15.3484,15.58266c-8.54137,0.06469 -15.51797,-6.80705 -15.58266,-15.3484c-0.06469,-8.54137 6.80697,-15.51797 15.3484,-15.58266z" fill="url(#color-29)"/></g><path d="M468.93539,242.2545c27.59461,-0.20899 52.45663,7.21134 69.67299,19.18395c2.1257,1.47826 3.92389,3.94272 5.40937,7.11121c-0.03457,-0.00029 -0.06939,-0.00031 -0.10451,-0.00004c-4.51508,0.03419 -4.48088,4.54927 -4.48088,4.54927c0.19525,5.39069 3.77062,8.64669 3.71465,13.51786c-0.05185,4.51319 -3.10946,8.51418 -3.49089,13.12748c-0.6638,8.0292 4.87225,17.90989 2.21347,26.0923c-0.93027,2.86279 -4.57472,4.36019 -5.36338,7.26515c-0.89107,3.28207 -0.89392,6.87925 -0.5376,10.57201c-16.81475,11.13927 -39.85544,17.55464 -66.13068,17.75363c-34.46655,0.26103 -65.59904,0.89062 -81.96487,-16.67012c1.85546,-2.55937 8.4415,-4.77436 10.74517,-7.7967c3.01524,-2.2973 6.93287,-4.62252 7.53697,-8.97931c0.68418,-4.93444 -4.29444,-8.56554 -3.69874,-13.66508c0.54324,-4.65086 2.96494,-9.15394 3.46766,-13.24654c0.68322,-5.56196 -3.25629,-11.50013 -6.29768,-17.1964c10.31099,3.72465 21.75783,6.11825 32.82507,2.49163c12.28001,-4.02398 13.11719,-19.92291 1.64172,-26.33111c-6.15391,-3.43652 -11.86983,1.50912 -16.95086,3.31841c-4.48723,1.59782 -8.46768,-3.4371 -10.99933,-5.98257c0,0 -2.91369,-2.86984 -5.92634,-0.37403l-3.57238,0.11423c-1.37815,0.44333 -2.58022,0.99048 -3.61743,1.62283c-0.90496,-0.57281 -1.89369,-1.03831 -2.9449,-1.40711c16.24155,-16.94048 44.91312,-14.81389 78.85338,-15.07093zM418.33142,325.07141l-0.10112,-0.61205c2.6429,5.98805 5.88817,7.97977 10.01025,12.90404c9.49106,2.23372 16.45215,0.40786 25.78771,-1.38009c2.96513,-0.56787 10.46223,-1.30191 12.37355,-4.14661c1.99643,-2.97136 3.47029,-6.97884 2.53805,-10.43508c-0.64182,-2.37953 -4.322,-2.3833 -6.36663,-3.75936c-5.34367,-3.59632 -10.95249,-8.59938 -17.17783,-10.186c-11.78403,-3.00329 -12.96113,8.7901 -21.31384,10.71249c-1.07062,-0.74126 -3.44786,-1.8691 -5.79847,0.51738c-3.16848,3.21685 0.04837,6.38526 0.04837,6.38526zM481.93349,312.36625l2.57743,-0.34246c6.68845,-3.15182 7.9873,1.80168 14.08065,3.59684c9.45236,2.78474 19.9161,-4.48558 29.38882,-4.50619c0,0 4.51508,-0.03419 4.48088,-4.54927c-0.03419,-4.51508 -4.54927,-4.48088 -4.54927,-4.48088c-7.03219,0.08439 -20.15379,7.40073 -26.52969,4.94795c-8.18479,-3.14864 -10.86067,-6.89082 -20.28862,-3.36737l0.77141,-0.32877c0,0 -4.51508,0.03419 -4.48088,4.54927c0.03419,4.51508 4.54927,4.48088 4.54927,4.48088z" fill="url(#color-30)"/></g><path d="M110.45118,387.63423c5.70466,-19.83849 11.96032,-36.13987 19.15577,-49.47005c22.96288,-42.54069 -111.16133,-75.96458 110.09999,-73.83351c232.47826,2.2391 89.7489,24.12363 114.89831,74.79924c6.86046,13.82369 13.12785,30.97528 19.11459,52.23306c17.1533,60.90727 36.88041,133.59462 -25.46821,170.14629c-8.52725,2.31892 -16.91499,5.15814 -24.83123,7.6726c-13.99939,4.44664 -29.36131,4.6919 -43.11503,9.83965c-1.64091,-1.00674 -3.62925,-0.49363 -3.62925,-0.49363l-2.51117,0.78728c-27.35267,0.20716 -60.57356,2.02525 -83.69304,-15.04234c-9.12507,-3.64549 -16.88567,-9.82564 -25.75752,-13.53671c-7.12277,-2.97942 -15.87471,1.43086 -22.58904,-1.63505c-2.86849,-1.30983 -4.69325,-4.51461 -7.68151,-5.52176c-7.15566,-2.41172 -14.90623,-3.13929 -22.37349,-6.06077c0,0 -2.67849,-1.04793 -4.59633,0.6667c-30.14405,-40.60226 -11.40237,-100.5449 2.97714,-150.55108z" data-paper-data="{&quot;index&quot;:null}" fill="#262626" stroke="none"/><g stroke="none"><path d="M192.2286,306.55777l42.1172,-155.84041l14.63295,4.25627l-41.25385,155.69033z" fill="url(#color-31)"/><path d="M274.41537,310.15882l-43.6072,-155.0476l14.56683,-4.4774l44.47273,155.18467z" data-paper-data="{&quot;index&quot;:null}" fill="url(#color-32)"/><g><path d="M190.44574,396.0519l-49.17042,-86.15127l9.2636,-5.28717l49.17035,86.15127z" fill="url(#color-33)"/><path d="M280.71204,388.64596l47.85987,-86.88612l9.34262,5.14626l-47.8599,86.88613z" data-paper-data="{&quot;index&quot;:null}" fill="url(#color-34)"/><path d="M229.85297,389.97322l-0.77562,-255.51742l22.19323,0.41169l1.93069,254.92894z" fill="url(#color-35)"/><path d="M120.07586,312.8484l-0.0727,-9.5993l241.04913,-1.82557l0.0727,9.5993z" fill="url(#color-36)"/><path d="M136.03837,307.92758c0.06469,8.54137 -6.80705,15.51797 -15.3484,15.58266c-8.54139,0.06469 -15.51794,-6.80705 -15.58263,-15.3484c-0.06469,-8.54137 6.807,-15.51797 15.34837,-15.58266c8.54139,-0.06469 15.51797,6.807 15.58266,15.3484z" fill="url(#color-37)"/><path d="M378.77868,305.65051c0.06469,8.54137 -6.80705,15.51797 -15.34844,15.58266c-8.54137,0.06469 -15.51797,-6.80705 -15.58266,-15.3484c-0.06469,-8.54137 6.807,-15.51797 15.3484,-15.58266c8.54137,-0.06469 15.51802,6.807 15.58269,15.3484z" fill="url(#color-38)"/><path d="M213.05823,600.56047l-1.59598,-210.73475l60.82852,-0.46068l1.59598,210.73475z" fill="url(#color-39)"/><path d="M188.67422,395.24222l-0.08842,-11.67417l102.60966,-0.77711l0.08842,11.67417z" fill="url(#color-40)"/><path d="M205.78313,404.10202l-0.0405,-5.34831l73.34198,-0.55546l0.0405,5.34831z" fill="url(#color-41)"/><path d="M205.69583,416.00793l-0.0405,-5.34838l73.34198,-0.55546l0.0405,5.34838z" fill="url(#color-42)"/><path d="M205.78407,427.65847l-0.0405,-5.34834l73.34198,-0.55546l0.0405,5.34834z" fill="url(#color-43)"/><path d="M205.69668,439.56444l-0.0405,-5.34834l73.34202,-0.55546l0.0405,5.34834z" fill="url(#color-44)"/><path d="M205.96052,450.9596l-0.0405,-5.34834l73.34198,-0.55546l0.0405,5.34834z" fill="url(#color-45)"/><path d="M205.87316,462.86551l-0.0405,-5.34831l73.34202,-0.55546l0.0405,5.34831z" fill="url(#color-46)"/><path d="M205.96142,474.5161l-0.0405,-5.34838l73.34198,-0.55546l0.0405,5.34838z" fill="url(#color-47)"/><path d="M205.87409,486.42202l-0.0405,-5.34831l73.34202,-0.55546l0.0405,5.34831z" fill="url(#color-48)"/><path d="M205.78356,497.89649l-0.0405,-5.34834l73.34198,-0.55546l0.0405,5.34834z" fill="url(#color-49)"/></g></g><g stroke="none"><path d="M110.45118,387.63423c5.70466,-19.83849 11.96032,-36.13987 19.15577,-49.47005c22.96288,-42.54069 -111.16133,-75.96458 110.09999,-73.83351c232.47826,2.2391 89.7489,24.12363 114.89831,74.79924c6.86046,13.82369 13.12785,30.97528 19.11459,52.23306c14.01221,49.75406 29.74196,107.3689 1.04649,146.7256c-1.96328,-0.6797 -3.89565,0.49972 -3.89565,0.49972c-2.88728,1.98531 -4.78033,5.20748 -6.5041,8.25813c-0.6847,1.21175 -11.46035,0.18013 -12.40176,0.50399c-4.48428,1.54255 -7.41923,7.76494 -11.67081,9.11906c-3.28217,1.04536 -7.08063,-0.17886 -10.27374,1.11323c-5.1646,2.08987 -10.36071,10.16384 -17.21073,7.3345c-2.99523,-1.23713 -1.72949,-7.12742 -4.64612,-8.53996c-2.8155,-1.36358 -6.25108,0.26411 -9.37664,0.39618c-6.61485,3.31153 -13.54791,3.36816 -19.72852,6.82856c-4.53583,2.53954 -5.50135,7.62331 -9.1493,10.11933c-2.21811,1.51769 -5.49642,-0.34593 -8.0473,0.50037c-5.39967,1.79147 -8.28465,4.89508 -14.84943,3.57449c-3.59391,-0.72298 -7.05676,-3.23152 -10.67518,-2.64356c-1.87217,0.30421 -3.12637,2.25241 -4.92845,2.84413c-5.57965,1.83203 -15.40212,-0.0472 -21.37136,-0.002c-3.29257,0.02494 -8.56296,1.01408 -11.70617,-0.42114c-4.8572,-2.21791 -6.97348,-6.25243 -12.78535,-7.43947c-2.4121,-0.49265 -5.57091,2.45489 -7.34744,0.75049c-1.98023,-1.89983 -2.73212,-4.77188 -4.33976,-6.99588c-5.72812,-7.92423 -7.63629,-19.08288 -12.27603,-27.71808c-1.39034,-2.58762 -2.06533,-6.73666 -4.95008,-7.29089c-3.2171,-0.61812 -6.09501,2.61957 -8.64234,4.67936c-0.6447,0.5213 0.2909,3.13932 -0.20971,2.47841c-1.8717,-2.47106 -1.99217,-5.89133 -3.37162,-8.66763l-1.7449,-6.76155c-0.4715,-2.0072 -2.28102,-3.49456 -4.42976,-3.47829c-1.93805,0.01467 -3.58168,1.24828 -4.20897,2.96793l-1.73352,4.43081l0.82709,0.3236c-3.23038,5.74197 -4.71872,11.37785 -7.04856,18.80476c-0.30174,0.96189 -3.76811,6.45298 -5.78134,5.54006c-3.78924,-1.71831 -5.17857,-11.97612 -9.08466,-14.75492c-2.92812,-2.08309 -5.97054,-3.55422 -9.10224,-4.58936c-22.30302,-40.18385 -5.07574,-95.53182 8.34928,-142.21864zM190.31508,358.69892c-0.03419,-4.51508 -4.54927,-4.48088 -4.54927,-4.48088c-14.53406,0.3336 -14.74282,-22.06498 -33.15467,-15.77237c-11.62913,3.9745 -9.89681,12.74945 -11.72048,21.90892c-0.66111,3.32038 -7.9437,3.96231 -9.70638,8.68906c-1.55284,4.16409 0.92409,9.66424 4.21785,12.64787c8.59712,6.32991 27.69491,14.70959 37.55188,5.61765c2.27802,-2.1012 2.27878,-5.9534 4.45352,-8.16132c5.36354,-5.44539 15.49646,-4.72878 14.71109,-15.63613c-0.09882,-1.37264 -0.97812,-2.48785 -1.92212,-3.58175c0.07939,-0.368 0.12196,-0.77681 0.11852,-1.23095zM334.11568,414.97975l-2.10171,1.08577c-2.84177,2.05498 -5.37674,3.1918 -6.61601,5.08513c-2.69873,1.01497 -5.67635,1.97562 -7.16883,1.71218c-5.86368,-1.03501 -4.9248,-11.95055 -14.57616,-7.76399c-7.41906,3.21822 -3.49803,7.38092 -4.22184,11.78502c-0.44659,2.7175 -5.6142,1.74993 -7.24671,3.96787c-1.71019,2.32343 -1.80791,5.55629 -1.92113,8.43904c-0.447,11.38264 8.53063,9.91785 14.16085,15.73074c4.70248,4.85507 7.69514,8.68688 13.52381,12.65317c2.45688,-0.01861 5.02775,0.68398 7.37065,-0.05582c6.78167,-2.14138 5.60306,-8.28493 10.26143,-11.61425c6.26351,-4.47647 14.69678,-7.41903 13.35606,-17.64386c-0.83627,-6.37759 -11.15705,-10.29263 -13.1246,-12.75626c0.24742,-0.45976 0.41748,-1.00062 0.4456,-1.63134c0.13451,-0.06825 0.28804,-0.13476 0.46148,-0.19957l1.49664,-0.74762c0,0 4.02314,-2.0498 1.97334,-6.07289c-2.04975,-4.02309 -6.07289,-1.97334 -6.07289,-1.97334zM143.63049,426.02519c-12.4527,3.70654 -6.80668,28.86743 2.98602,33.6714c2.41304,1.18374 13.42157,0.21237 14.77675,-1.61912c1.5183,-2.05199 -0.99686,-5.02595 -1.11927,-7.57569c-0.16105,-3.35548 3.97767,-6.08851 3.57298,-9.42336c-0.67277,-5.54428 -3.77219,-7.03674 -7.45816,-8.47504c-2.09008,-4.63405 -7.01472,-8.28778 -12.75831,-6.57819z" data-paper-data="{&quot;index&quot;:null}" fill="url(#color-50)"/><path d="M239.25937,307.38024c147.23935,25.47958 160.5341,229.86679 3.25922,241.44692c-110.08515,-9.12583 -135.15981,-96.84558 -103.09306,-164.49863c9.57893,5.64271 25.00695,10.84073 33.52851,2.98053c2.27802,-2.1012 2.27878,-5.9534 4.45352,-8.16132c5.36354,-5.44539 15.49646,-4.72878 14.71109,-15.63613c-0.09882,-1.37264 -0.97812,-2.48785 -1.92212,-3.58175c0.07939,-0.368 0.12196,-0.77681 0.11852,-1.23095c-0.03419,-4.51508 -4.54927,-4.48088 -4.54927,-4.48088c-7.93911,0.18223 -11.60382,-6.41835 -16.29589,-11.42042c18.25055,-17.34977 41.82857,-30.27032 69.78947,-35.41736zM334.11568,414.97975l-2.10171,1.08577c-2.84177,2.05498 -5.37674,3.1918 -6.61601,5.08513c-2.69873,1.01497 -5.67635,1.97562 -7.16883,1.71218c-5.86368,-1.03501 -4.9248,-11.95055 -14.57616,-7.76399c-7.41906,3.21822 -3.49803,7.38092 -4.22184,11.78502c-0.44659,2.7175 -5.6142,1.74993 -7.24671,3.96787c-1.71019,2.32343 -1.80791,5.55629 -1.92113,8.43904c-0.447,11.38264 8.53063,9.91785 14.16085,15.73074c4.70248,4.85507 7.69514,8.68688 13.52381,12.65317c2.45688,-0.01861 5.02775,0.68398 7.37065,-0.05582c6.78167,-2.14138 5.60306,-8.28493 10.26143,-11.61425c6.26351,-4.47647 14.69678,-7.41903 13.35606,-17.64386c-0.83627,-6.37759 -11.15705,-10.29263 -13.1246,-12.75626c0.24742,-0.45976 0.41748,-1.00062 0.4456,-1.63134c0.13451,-0.06825 0.28804,-0.13476 0.46148,-0.19957l1.49664,-0.74762c0,0 4.02314,-2.0498 1.97334,-6.07289c-2.04975,-4.02309 -6.07289,-1.97334 -6.07289,-1.97334zM143.63049,426.02519c-12.4527,3.70654 -6.80668,28.86743 2.98602,33.6714c2.41304,1.18374 13.42157,0.21237 14.77675,-1.61912c1.5183,-2.05199 -0.99686,-5.02595 -1.11927,-7.57569c-0.16105,-3.35548 3.97767,-6.08851 3.57298,-9.42336c-0.67277,-5.54428 -3.77219,-7.03674 -7.45816,-8.47504c-2.09008,-4.63405 -7.01472,-8.28778 -12.75831,-6.57819z" data-paper-data="{&quot;index&quot;:null}" fill="url(#color-51)"/></g><g><g stroke="#000000"><path d="M218.84039,342.02578c-94.04909,-14.37301 -97.69461,-43.85219 -108.40884,-100.27895c1.57314,-7.47682 15.25525,-16.59273 35.55554,-20.54338c21.43481,-4.17143 51.55786,-10.95498 85.76127,-5.90621c35.24608,5.20268 66.71531,21.18505 89.5163,31.0793c9.31908,4.04388 32.74937,18.76847 31.84324,33.83996c-27.62651,50.31984 -50.11804,74.66943 -134.26752,61.80937z" fill="url(#color-52)"/><path d="M145.98706,221.20338c21.43481,-4.17143 51.55786,-10.95498 85.76127,-5.90621c35.24608,5.20268 66.71531,21.18505 89.5163,31.0793c8.73386,3.78996 29.86237,16.9613 31.73558,31.00728c-5.00169,1.54099 -9.88904,4.35406 -12.52494,8.28108c-2.24052,3.338 -2.17001,7.53371 -4.15499,10.76585c-2.20592,3.59183 -5.82725,6.3727 -7.81121,10.25643c-4.20807,8.2375 -6.3114,14.72702 -15.62665,18.23911c-4.3467,2.53625 -9.96725,4.10324 -13.97659,7.05831c-3.27195,2.41167 -4.99774,6.03074 -9.35214,7.22306c-7.71673,2.11296 -15.75705,1.97861 -23.47323,3.94488c-3.15597,0.80422 -6.07974,1.6503 -8.88853,2.26427c-4.72361,-0.02695 -9.71303,-0.24079 -14.99403,-0.64595c-1.55655,-0.64685 -3.14439,-1.52376 -4.78392,-2.67885c-13.61064,-8.35084 -25.44858,-5.82223 -40.1854,-7.51129c-2.08768,-0.23934 -3.51725,-2.34579 -5.45337,-3.1625c-6.93476,-2.92529 -19.00429,-4.17724 -28.81143,-3.50917c-7.92526,-3.33154 -14.45473,-7.04879 -19.89111,-11.18851c-0.98526,-5.9587 -1.3959,-12.51889 -2.99165,-16.26754c-7.1806,-5.47125 -7.60962,-18.12456 -12.10938,-25.75557c-1.53098,-2.59638 -8.29581,-5.28155 -7.81421,-9.31751c0.82389,-6.9044 2.30756,-9.55927 0.43379,-16.89189c-0.91569,-3.5835 2.10871,-7.31254 1.61368,-10.97783c-0.26045,-1.92864 -2.14631,-3.24707 -3.21945,-4.8706c0,0 -0.22442,-0.30215 -0.62562,-0.6376c6.24901,-4.45442 15.81837,-8.50043 27.62718,-10.79859z" fill="url(#color-53)"/></g><path d="M221.5122,313.13413c-70.41268,-10.76803 -71.5279,-43.77335 -79.43244,-86.81302c1.19427,-5.70935 56.04438,-15.85829 91.85506,-10.17381c35.81063,5.68455 90.53968,27.51013 89.82884,39.01396c-20.79987,38.461 -39.25043,67.60746 -102.25141,57.97286z" fill="url(#color-54)" stroke="#000000"/><g><path d="M186.91523,243.38392l0.60632,-4.10757l90.07323,13.29573l-0.60632,4.10757z" fill="url(#color-55)" stroke="none"/><path d="M214.64835,250.4755l18.7093,-126.748l5.86792,0.86616l-18.7093,126.748z" fill="url(#color-56)" stroke="none"/><path d="M243.40136,254.71975l18.7093,-126.748l5.86795,0.86617l-18.7093,126.748z" fill="url(#color-57)" stroke="none"/><g><path d="M179.06208,241.21714c0.48599,-3.29243 10.74358,-5.49485 10.74358,-5.49485c0,0 6.06107,14.19637 42.10119,23.52978c35.99098,1.5021 43.37568,-11.40037 43.37568,-11.40037c0,0 11.28952,5.47746 10.7467,9.15488c-1.23714,8.38108 -25.69562,17.38594 -56.35807,12.85984c-30.66249,-4.52609 -51.84624,-20.26818 -50.60909,-28.64928z" fill="url(#color-58)" stroke="none"/><path d="M275.4244,257.2101c0,0 0.87679,-3.33095 1.42417,-5.93262c0.65819,-3.12844 1.32514,-9.9892 1.32514,-9.9892c0,0 2.66741,6.78348 3.19991,10.00002c0.48217,2.91258 0.73115,6.62478 0.73115,6.62478z" data-paper-data="{&quot;index&quot;:null}" fill="url(#color-59)" stroke="#000000"/><path d="M182.45778,243.20413c0,0 1.31086,-3.48195 2.61403,-6.131c1.43915,-2.9255 5.95273,-8.649 5.95273,-8.649c0,0 -1.34371,6.76085 -1.61752,9.94611c-0.22771,2.64886 -0.35065,6.09108 -0.35065,6.09108z" data-paper-data="{&quot;index&quot;:null}" fill="url(#color-60)" stroke="#000000"/><path d="M269.20555,261.35584c0,0 0.87679,-3.33095 1.42416,-5.93258c0.65819,-3.12844 1.32514,-9.98922 1.32514,-9.98922c0,0 2.66743,6.78353 3.19993,10.00004c0.48217,2.91256 0.73115,6.62478 0.73115,6.62478z" data-paper-data="{&quot;index&quot;:null}" fill="url(#color-61)" stroke="#000000"/><path d="M187.21364,248.96985c0,0 1.31091,-3.48197 2.61406,-6.13099c1.43915,-2.9255 5.95273,-8.64902 5.95273,-8.64902c0,0 -1.34372,6.7609 -1.61753,9.94614c-0.22771,2.64886 -0.35065,6.09108 -0.35065,6.09108z" data-paper-data="{&quot;index&quot;:null}" fill="url(#color-62)" stroke="#000000"/><path d="M260.99897,264.19541c0,0 0.87679,-3.331 1.42417,-5.93262c0.6582,-3.12848 1.32516,-9.98922 1.32516,-9.98922c0,0 2.66741,6.78348 3.1999,10.00004c0.48217,2.91258 0.73115,6.62478 0.73115,6.62478z" data-paper-data="{&quot;index&quot;:null}" fill="url(#color-63)" stroke="#000000"/><path d="M194.24972,254.05941c0,0 1.31091,-3.48197 2.61404,-6.13102c1.43915,-2.9255 5.95276,-8.64901 5.95276,-8.64901c0,0 -1.34371,6.76085 -1.61752,9.94611c-0.22771,2.64886 -0.35065,6.09108 -0.35065,6.09108z" data-paper-data="{&quot;index&quot;:null}" fill="url(#color-64)" stroke="#000000"/><path d="M252.63393,265.99884c0,0 0.87679,-3.331 1.42417,-5.93262c0.6582,-3.12848 1.32514,-9.9892 1.32514,-9.9892c0,0 2.66744,6.78348 3.19993,10.00002c0.48217,2.91258 0.73115,6.62481 0.73115,6.62481z" data-paper-data="{&quot;index&quot;:null}" fill="url(#color-65)" stroke="#000000"/><path d="M201.73699,258.20279c0,0 1.31091,-3.48197 2.61404,-6.13102c1.43915,-2.9255 5.95273,-8.649 5.95273,-8.649c0,0 -1.34371,6.76085 -1.61752,9.94607c-0.22771,2.64886 -0.35065,6.09108 -0.35065,6.09108z" data-paper-data="{&quot;index&quot;:null}" fill="url(#color-66)" stroke="#000000"/><path d="M243.47136,266.87438c0,0 0.87682,-3.33099 1.42417,-5.93262c0.6582,-3.12848 1.3251,-9.98923 1.3251,-9.98923c0,0 2.66748,6.78346 3.19998,9.99998c0.48217,2.91258 0.73115,6.62481 0.73115,6.62481z" data-paper-data="{&quot;index&quot;:null}" fill="url(#color-67)" stroke="#000000"/><path d="M210.25581,261.68826c0,0 1.31087,-3.48198 2.61404,-6.13102c1.43915,-2.9255 5.95273,-8.649 5.95273,-8.649c0,0 -1.34371,6.76085 -1.61752,9.94607c-0.22771,2.64886 -0.35065,6.09108 -0.35065,6.09108z" data-paper-data="{&quot;index&quot;:null}" fill="url(#color-68)" stroke="#000000"/><path d="M234.15023,266.71375c0,0 0.87682,-3.33099 1.42416,-5.93258c0.6582,-3.12848 1.3251,-9.98923 1.3251,-9.98923c0,0 2.66744,6.78348 3.19993,10.00002c0.48217,2.91258 0.73115,6.62481 0.73115,6.62481z" data-paper-data="{&quot;index&quot;:null}" fill="url(#color-69)" stroke="#000000"/><path d="M219.22584,264.2276c0,0 1.31092,-3.48202 2.61404,-6.13102c1.43915,-2.9255 5.95276,-8.64899 5.95276,-8.64899c0,0 -1.34371,6.76085 -1.61752,9.94611c-0.22771,2.64886 -0.35064,6.09104 -0.35064,6.09104z" data-paper-data="{&quot;index&quot;:null}" fill="url(#color-70)" stroke="#000000"/></g></g><g data-paper-data="{&quot;index&quot;:null}"><path d="M314.82532,278.10341c0,0 2.25062,-10.12178 3.73531,-18.00638c1.78528,-9.48125 4.15776,-30.15495 4.15776,-30.15495c0,0 4.26463,19.93303 4.83161,29.4966c0.5134,8.6597 0.44146,19.7528 0.44146,19.7528z" data-paper-data="{&quot;index&quot;:null}" fill="url(#color-71)" stroke="#000000"/><path d="M331.29681,274.89293l-2.03143,13.76218c0,0 -3.96927,2.21096 -10.06781,1.16531c-6.33826,-1.08672 -8.85517,-3.95853 -8.85517,-3.95853l2.03143,-13.76218z" fill="url(#color-72)" stroke="none"/></g><g data-paper-data="{&quot;index&quot;:null}"><path d="M132.24487,250.29728c0,0 3.13622,-10.64082 6.12973,-18.78283c3.30601,-8.99184 13.1479,-26.84264 13.1479,-26.84264c0,0 -3.70186,20.47747 -4.73208,30.07018c-0.85672,7.97728 -1.62652,18.31765 -1.62652,18.31765z" data-paper-data="{&quot;index&quot;:null}" fill="url(#color-73)" stroke="#000000"/><path d="M149.24548,248.02029l-2.03143,13.76218c0,0 -3.23939,2.0221 -9.62124,1.23123c-6.14061,-0.76094 -9.30175,-4.02446 -9.30175,-4.02446l2.03143,-13.76218z" fill="url(#color-74)" stroke="none"/></g><g data-paper-data="{&quot;index&quot;:null}"><path d="M301.83608,291.48356c0,0 2.2506,-10.12175 3.73527,-18.00634c1.78528,-9.48125 4.15776,-30.15499 4.15776,-30.15499c0,0 4.26463,19.93303 4.83161,29.49662c0.5134,8.6597 0.44151,19.75281 0.44151,19.75281z" data-paper-data="{&quot;index&quot;:null}" fill="url(#color-75)" stroke="#000000"/><path d="M318.30754,288.2731l-2.03144,13.76222c0,0 -3.96926,2.21092 -10.06785,1.16529c-6.33826,-1.08672 -8.85517,-3.95851 -8.85517,-3.95851l2.03144,-13.76222z" fill="url(#color-76)" stroke="none"/></g><g data-paper-data="{&quot;index&quot;:null}"><path d="M140.81431,266.85975c0,0 3.13622,-10.64082 6.12973,-18.78283c3.30601,-8.99184 13.14791,-26.84266 13.14791,-26.84266c0,0 -3.70187,20.47752 -4.73208,30.07023c-0.85673,7.97731 -1.62648,18.31762 -1.62648,18.31762z" data-paper-data="{&quot;index&quot;:null}" fill="url(#color-77)" stroke="#000000"/><path d="M157.81496,264.58276l-2.03144,13.76222c0,0 -3.23939,2.0221 -9.62124,1.2312c-6.14061,-0.76094 -9.30175,-4.02442 -9.30175,-4.02442l2.03144,-13.76222z" fill="url(#color-78)" stroke="none"/></g><g data-paper-data="{&quot;index&quot;:null}"><path d="M285.09682,301.25075c0,0 2.25062,-10.12176 3.73528,-18.00638c1.78528,-9.48125 4.15776,-30.15499 4.15776,-30.15499c0,0 4.26469,19.93304 4.83169,29.49661c0.5134,8.6597 0.44146,19.7528 0.44146,19.7528z" data-paper-data="{&quot;index&quot;:null}" fill="url(#color-79)" stroke="#000000"/><path d="M301.56831,298.04029l-2.03143,13.76214c0,0 -3.96927,2.21096 -10.06781,1.16531c-6.33826,-1.08672 -8.85517,-3.95853 -8.85517,-3.95853l2.03143,-13.76214z" fill="url(#color-80)" stroke="none"/></g><g data-paper-data="{&quot;index&quot;:null}"><path d="M154.01768,281.04669c0,0 3.13626,-10.64081 6.12977,-18.78282c3.30601,-8.99184 13.14787,-26.84264 13.14787,-26.84264c0,0 -3.70187,20.47752 -4.73208,30.07023c-0.85673,7.97731 -1.62649,18.31766 -1.62649,18.31766z" data-paper-data="{&quot;index&quot;:null}" fill="url(#color-81)" stroke="#000000"/><path d="M171.01834,278.76979l-2.03143,13.76214c0,0 -3.23939,2.02214 -9.62124,1.23123c-6.14061,-0.76094 -9.30175,-4.02446 -9.30175,-4.02446l2.03143,-13.76214z" fill="url(#color-82)" stroke="none"/></g><g data-paper-data="{&quot;index&quot;:null}"><path d="M268.2007,307.9352c0,0 2.2506,-10.12175 3.73527,-18.00634c1.78533,-9.48125 4.15776,-30.15499 4.15776,-30.15499c0,0 4.26465,19.93303 4.83165,29.49663c0.5134,8.6597 0.44146,19.7528 0.44146,19.7528z" data-paper-data="{&quot;index&quot;:null}" fill="url(#color-83)" stroke="#000000"/><path d="M284.67217,304.72474l-2.03143,13.76218c0,0 -3.96926,2.21092 -10.06785,1.16529c-6.33826,-1.08672 -8.85517,-3.95851 -8.85517,-3.95851l2.03143,-13.76218z" fill="url(#color-84)" stroke="none"/></g><g data-paper-data="{&quot;index&quot;:null}"><path d="M168.26192,292.32784c0,0 3.13626,-10.64081 6.12977,-18.78282c3.30601,-8.99184 13.14791,-26.84266 13.14791,-26.84266c0,0 -3.7019,20.47751 -4.73208,30.07023c-0.85673,7.97731 -1.62648,18.31762 -1.62648,18.31762z" data-paper-data="{&quot;index&quot;:null}" fill="url(#color-85)" stroke="#000000"/><path d="M185.26255,290.05088l-2.03143,13.76218c0,0 -3.23935,2.02211 -9.62119,1.2312c-6.14061,-0.76094 -9.30175,-4.02442 -9.30175,-4.02442l2.03143,-13.76218z" fill="url(#color-86)" stroke="none"/></g><g data-paper-data="{&quot;index&quot;:null}"><path d="M249.86158,311.95912c0,0 2.25062,-10.12178 3.73528,-18.00638c1.78533,-9.48125 4.15776,-30.15499 4.15776,-30.15499c0,0 4.26465,19.93303 4.83165,29.49663c0.51344,8.6597 0.44146,19.7528 0.44146,19.7528z" data-paper-data="{&quot;index&quot;:null}" fill="url(#color-87)" stroke="#000000"/><path d="M266.33305,308.74863l-2.03143,13.76218c0,0 -3.96927,2.21096 -10.06781,1.16529c-6.33826,-1.08672 -8.85517,-3.95851 -8.85517,-3.95851l2.03143,-13.76218z" fill="url(#color-88)" stroke="none"/></g><g data-paper-data="{&quot;index&quot;:null}"><path d="M184.65629,301.47872c0,0 3.13619,-10.64082 6.12973,-18.78283c3.30601,-8.99184 13.14791,-26.84266 13.14791,-26.84266c0,0 -3.70187,20.47752 -4.73208,30.07023c-0.85673,7.97731 -1.62649,18.31766 -1.62649,18.31766z" data-paper-data="{&quot;index&quot;:null}" fill="url(#color-89)" stroke="#000000"/><path d="M201.65693,299.20177l-2.03143,13.76218c0,0 -3.23939,2.0221 -9.62124,1.2312c-6.14061,-0.76094 -9.30175,-4.02442 -9.30175,-4.02442l2.03143,-13.76218z" fill="url(#color-90)" stroke="none"/></g><g data-paper-data="{&quot;index&quot;:null}"><path d="M231.36559,312.90026c0,0 2.25065,-10.12176 3.7353,-18.00633c1.78533,-9.48125 4.15776,-30.15499 4.15776,-30.15499c0,0 4.26465,19.93303 4.83165,29.49663c0.51344,8.6597 0.44151,19.75281 0.44151,19.75281z" data-paper-data="{&quot;index&quot;:null}" fill="url(#color-91)" stroke="#000000"/><path d="M247.83708,309.68986l-2.03144,13.76222c0,0 -3.96926,2.21092 -10.06781,1.16529c-6.33826,-1.08672 -8.85517,-3.95851 -8.85517,-3.95851l2.03144,-13.76222z" fill="url(#color-92)" stroke="none"/></g><g data-paper-data="{&quot;index&quot;:null}"><path d="M202.0915,307.72373c0,0 3.13622,-10.64082 6.12977,-18.78282c3.30601,-8.99184 13.14787,-26.84266 13.14787,-26.84266c0,0 -3.70187,20.47752 -4.73208,30.07023c-0.85673,7.97731 -1.62651,18.31761 -1.62651,18.31761z" data-paper-data="{&quot;index&quot;:null}" fill="url(#color-93)" stroke="#000000"/><path d="M219.09214,305.44682l-2.03144,13.76222c0,0 -3.23939,2.0221 -9.62124,1.2312c-6.14061,-0.76094 -9.30175,-4.02442 -9.30175,-4.02442l2.03144,-13.76222z" fill="url(#color-94)" stroke="none"/></g></g><g><g><g><path d="M139.04435,142.06126c0,0 -2.25062,10.12176 -3.73531,18.00638c-1.78533,9.48125 -4.15776,30.15495 -4.15776,30.15495c0,0 -4.26458,-19.93302 -4.83161,-29.4966c-0.51344,-8.6597 -0.44151,-19.75281 -0.44151,-19.75281z" data-paper-data="{&quot;index&quot;:null}" fill="url(#color-95)" stroke="#000000"/><path d="M122.57289,145.27175l2.03143,-13.76214l18.92302,2.79323l-2.03143,13.76214z" fill="url(#color-96)" stroke="none"/></g><g data-paper-data="{&quot;index&quot;:null}"><path d="M369.41499,178.14556c0,0 -3.13622,10.64078 -6.12979,18.78279c-3.30603,8.99184 -13.14791,26.84266 -13.14791,26.84266c0,0 3.70187,-20.47755 4.73209,-30.07025c0.85673,-7.97731 1.62655,-18.31765 1.62655,-18.31765z" data-paper-data="{&quot;index&quot;:null}" fill="url(#color-97)" stroke="#000000"/><path d="M352.41434,180.42247l2.03143,-13.76218l18.92302,2.79323l-2.03143,13.76218z" fill="url(#color-98)" stroke="none"/></g><g><path d="M152.88874,153.13414c0,0 -2.25062,10.12176 -3.73531,18.00638c-1.78533,9.48125 -4.15776,30.15495 -4.15776,30.15495c0,0 -4.26465,-19.93303 -4.83166,-29.49661c-0.51344,-8.6597 -0.44146,-19.7528 -0.44146,-19.7528z" data-paper-data="{&quot;index&quot;:null}" fill="url(#color-99)" stroke="#000000"/><path d="M136.41724,156.34462l2.03143,-13.76218l18.92302,2.79323l-2.03143,13.76218z" fill="url(#color-100)" stroke="none"/></g><g data-paper-data="{&quot;index&quot;:null}"><path d="M352.96181,184.7462c0,0 -3.13622,10.64082 -6.12973,18.78283c-3.30603,8.99184 -13.1479,26.84264 -13.1479,26.84264c0,0 3.70186,-20.47747 4.73208,-30.07018c0.85673,-7.97731 1.62652,-18.31765 1.62652,-18.31765z" data-paper-data="{&quot;index&quot;:null}" fill="url(#color-101)" stroke="#000000"/><path d="M335.96119,187.02319l2.03144,-13.76222l18.92302,2.79323l-2.03144,13.76222z" fill="url(#color-102)" stroke="none"/></g><g><path d="M169.27971,167.34472c0,0 -2.2506,10.12175 -3.73527,18.00634c-1.78533,9.48125 -4.15777,30.15503 -4.15777,30.15503c0,0 -4.26464,-19.93306 -4.83165,-29.49663c-0.51344,-8.6597 -0.44146,-19.7528 -0.44146,-19.7528z" data-paper-data="{&quot;index&quot;:null}" fill="url(#color-103)" stroke="#000000"/><path d="M152.8082,170.55517l2.03144,-13.76222l18.92302,2.79323l-2.03144,13.76222z" fill="url(#color-104)" stroke="none"/></g><g data-paper-data="{&quot;index&quot;:null}"><path d="M333.34086,192.41722c0,0 -3.13622,10.64082 -6.12973,18.78283c-3.30603,8.99184 -13.14791,26.84266 -13.14791,26.84266c0,0 3.70187,-20.47755 4.73209,-30.07025c0.85673,-7.97731 1.62651,-18.31761 1.62651,-18.31761z" data-paper-data="{&quot;index&quot;:null}" fill="url(#color-105)" stroke="#000000"/><path d="M316.34029,194.69418l2.03144,-13.76222l18.92302,2.79323l-2.03144,13.76222z" fill="url(#color-106)" stroke="none"/></g><path d="M387.39926,155.97281c-4.55989,20.86642 -33.60984,23.00263 -45.04707,25.09428c-27.98355,5.11765 -65.95634,5.1709 -105.51226,-0.66795c-38.38572,-5.66613 -69.28006,-17.78157 -90.6454,-31.3266c-20.2346,-12.82816 -31.99516,-26.94928 -30.9332,-37.71297c32.13999,-72.94869 37.92111,-126.4334 155.01133,-113.36764c112.04848,23.58009 106.07345,79.29019 117.1266,157.98085z" fill="url(#color-107)" stroke="#000000"/><path d="M380.50802,158.57251c-4.49229,20.8764 -27.27564,27.61152 -38.20426,29.77822c-26.73924,5.30133 -67.93935,10.75634 -105.6482,5.19014c-36.5933,-5.40155 -68.0993,-22.01591 -88.3969,-35.40331c-19.22331,-12.67888 -28.44936,-30.09974 -27.36332,-40.85993c31.16331,-73.09286 10.10627,27.43667 121.75741,39.69961c106.76889,22.80077 127.83817,-76.94251 137.85532,1.59522z" fill="url(#color-108)" stroke="#000000"/><path d="M236.83993,180.39915c-7.08442,-1.04573 -13.91368,-2.31114 -20.47492,-3.76469c-6.5553,-9.00761 -12.88382,-17.57883 -21.06327,-25.83482c-5.27224,-4.137 -4.99262,-5.33431 -11.9681,-5.34099c-2.68593,-0.00254 -6.23611,3.32145 -7.95844,1.26049c-2.85775,-3.41963 -4.19167,-12.3185 -8.60683,-14.87266c-8.86798,-5.13006 -12.60331,6.00523 -20.38054,-2.90256c-0.77672,-0.8896 0.55733,-2.37801 0.29854,-3.53023c-0.48591,-2.1637 -4.29636,-10.59017 -6.13446,-11.89819c-7.26764,-5.17174 -17.01657,-0.3945 -23.81243,2.42977c0,0 -1.34179,0.55762 -2.13943,1.80468c-0.04729,-0.71169 -0.03638,-1.42617 0.03454,-2.1446c32.13999,-72.94866 38.54783,-130.67925 155.63806,-117.61345c28.47293,5.992 49.32475,14.05871 64.77138,24.05005c-1.73729,2.6389 -3.5073,5.2302 -4.33665,8.30099c-0.989,3.66177 2.04089,7.16038 -2.57474,8.58908c-1.86274,0.57657 -3.35782,-1.99316 -5.11504,-2.8384c-2.71485,-1.30586 -6.66064,0.81834 -8.9683,-1.11825c-1.75203,-1.47034 -1.65808,-5.00472 -3.84163,-5.68546c-3.26318,-1.01735 -12.21581,3.95964 -16.24026,1.57345c-2.17812,-1.2914 -3.2363,-4.83981 -5.76633,-4.94541c-8.45493,-0.35288 -6.91186,7.92949 -14.55677,7.99875c-2.18773,1.68411 -4.96774,2.79913 -6.56314,5.05236c-1.56888,2.21582 -0.16187,5.55084 -1.21256,8.05433c-0.81027,1.93074 -2.19899,-3.64586 -2.66979,-5.68618c-1.13511,-4.91976 -1.53849,-8.79079 -6.37879,-12.01513c-0.34757,-0.23154 -0.68959,-0.42263 -1.02711,-0.58002c0.31078,-1.5968 -0.4817,-3.05799 -0.4817,-3.05799c-1.9145,-3.18103 -5.16919,-5.44093 -8.31933,-7.40588c-2.92532,-1.8247 -4.23163,-5.96645 -7.46725,-7.15709c-8.32645,-3.06392 -17.49585,3.76574 -23.7318,8.40987c-10.82633,1.57743 -10.50348,14.2185 -18.37394,19.54185c-3.50601,3.45878 -10.85484,8.79585 -10.85315,14.34233c0.00265,8.88711 9.89219,7.74555 10.18024,16.21545c0.11842,3.48136 -2.90074,8.12751 -0.78584,11.4548c4.48213,7.05149 14.65898,1.2404 19.47868,5.72319c4.45595,4.14447 3.99688,11.88462 12.65889,12.13999c3.60018,0.10616 12.92575,-7.66991 15.23318,-10.34408c1.51891,-1.76031 1.97105,-4.72043 4.10768,-5.63735c4.16665,-1.21349 8.48325,-4.19103 10.09647,-8.21982c0.40171,-1.00327 -0.74722,-2.31072 -0.18984,-3.23663c0.55251,-0.91791 4.14194,-1.09954 3.10385,-0.83451c-2.67986,0.68408 -3.15279,7.39211 -3.08071,7.66674c1.90643,7.26769 5.05205,4.47747 8.90504,8.02991c4.69221,4.3261 3.06481,15.19851 9.43609,19.18318c8.08967,5.05932 11.63228,-1.62989 17.43358,-4.38523c3.47291,-1.64948 9.98374,1.21936 13.44588,0.50203c4.5637,-0.94548 6.43012,-3.47743 9.39055,-6.41044c3.48235,-1.98828 6.80745,-5.00461 8.26698,-8.73963c1.05674,-2.70427 -0.31951,-6.07631 1.02484,-8.64972c1.20083,-2.29865 8.74549,-2.20596 8.92216,-2.27263c2.62685,-0.99117 5.25092,-2.36022 7.18516,-4.39524c2.9814,-3.13677 3.99492,-9.96988 6.9302,-13.61225c3.6914,-4.5807 7.23602,-9.01422 10.92313,-13.2561c19.20409,25.83737 21.49388,59.51074 26.57953,99.68465c-5.12344,2.64454 -9.91391,3.01292 -15.17284,5.59161c-1.44517,0.70863 -3.13328,3.91759 -4.06548,2.60553c-3.94415,-5.5517 -0.18546,-13.9422 -12.61016,-8.92904c-3.99952,1.61374 -7.75715,12.95334 -7.44445,16.72426c0.21126,2.54736 3.92523,4.78836 2.8637,7.11369c-1.39733,3.06096 -4.83835,4.88675 -6.20695,7.96073c-1.23044,2.7637 -1.8248,4.50636 -2.20439,6.22603c-27.84501,4.87076 -65.22201,4.82829 -104.13082,-0.91504z" fill="url(#color-109)" stroke="#000000"/><path d="M246.11753,51.39938c-1.65759,11.22944 -11.85852,19.02525 -22.7845,17.41248c-10.92598,-1.61279 -18.43944,-12.02347 -16.78187,-23.25286c1.65759,-11.22944 11.85852,-19.02525 22.7845,-17.41248c10.92598,1.61279 18.43944,12.02347 16.78187,23.25286z" fill="url(#color-110)" stroke="none"/><path d="M315.77945,61.68218c-1.65759,11.22944 -11.85847,19.02526 -22.78445,17.41248c-10.92598,-1.61279 -18.43944,-12.02347 -16.78187,-23.25286c1.65759,-11.22944 11.85852,-19.02525 22.7845,-17.41248c10.92598,1.61279 18.43941,12.02346 16.78184,23.25286z" fill="url(#color-111)" stroke="none"/><g stroke="none"><path d="M237.17914,50.07998c-0.90866,6.15576 -6.50061,10.4293 -12.49001,9.5452c-5.98937,-0.8841 -10.10814,-6.59104 -9.19949,-12.74678c0.90866,-6.15576 6.50061,-10.4293 12.49001,-9.5452c5.98937,0.8841 10.10814,6.59104 9.19949,12.74678z" fill="url(#color-112)"/><path d="M232.56404,49.39874c-0.52198,3.53613 -3.73419,5.99105 -7.17476,5.4832c-3.44054,-0.50786 -5.80652,-3.78618 -5.28454,-7.32231c0.52198,-3.53613 3.73418,-5.99103 7.17476,-5.48315c3.44054,0.50786 5.80652,3.78613 5.28454,7.32227z" fill="#ffffff"/></g><g stroke="none"><path d="M306.84101,60.36278c-0.90866,6.15576 -6.50057,10.42931 -12.48998,9.5452c-5.98937,-0.8841 -10.10814,-6.59104 -9.19949,-12.74678c0.90866,-6.15576 6.50061,-10.4293 12.49001,-9.5452c5.98937,0.8841 10.10811,6.59104 9.19945,12.74677z" fill="url(#color-113)"/><path d="M302.22595,59.68156c-0.52198,3.53613 -3.73419,5.99105 -7.17476,5.4832c-3.44054,-0.50786 -5.80652,-3.78618 -5.28454,-7.32231c0.52198,-3.53613 3.73418,-5.99103 7.17476,-5.48315c3.44054,0.50786 5.80652,3.78613 5.28454,7.32227z" fill="#ffffff"/></g></g><g><g><path d="M178.99827,176.12205c0,0 -2.25062,10.12176 -3.73531,18.00638c-1.78533,9.48125 -4.15776,30.15499 -4.15776,30.15499c0,0 -4.26462,-19.93306 -4.83161,-29.49662c-0.51344,-8.6597 -0.44146,-19.7528 -0.44146,-19.7528z" data-paper-data="{&quot;index&quot;:null}" fill="url(#color-114)" stroke="#000000"/><path d="M162.5268,179.33254l2.03143,-13.76218l18.92298,2.79322l-2.03143,13.76218z" fill="url(#color-115)" stroke="none"/></g><g data-paper-data="{&quot;index&quot;:null}"><path d="M317.30881,197.39352c0,0 -3.13622,10.64082 -6.12977,18.78282c-3.30603,8.99184 -13.14791,26.84266 -13.14791,26.84266c0,0 3.70187,-20.47752 4.73208,-30.07023c0.85673,-7.97731 1.62652,-18.31765 1.62652,-18.31765z" data-paper-data="{&quot;index&quot;:null}" fill="url(#color-116)" stroke="#000000"/><path d="M300.30817,199.67048l2.03143,-13.76218l18.92302,2.79323l-2.03143,13.76218z" fill="url(#color-117)" stroke="none"/></g><g><path d="M190.95543,182.17035c0,0 -2.2506,10.12179 -3.73525,18.00639c-1.78533,9.48125 -4.15776,30.15495 -4.15776,30.15495c0,0 -4.26465,-19.93303 -4.83166,-29.49661c-0.51344,-8.6597 -0.44151,-19.75281 -0.44151,-19.75281z" data-paper-data="{&quot;index&quot;:null}" fill="url(#color-118)" stroke="#000000"/><path d="M174.48398,185.38082l2.03143,-13.76214l18.92302,2.79323l-2.03143,13.76214z" fill="url(#color-119)" stroke="none"/></g><g data-paper-data="{&quot;index&quot;:null}"><path d="M304.11405,199.72916c0,0 -3.13626,10.64081 -6.12977,18.78282c-3.30603,8.99184 -13.14787,26.84264 -13.14787,26.84264c0,0 3.70186,-20.47747 4.73208,-30.07018c0.85673,-7.97731 1.62649,-18.31766 1.62649,-18.31766z" data-paper-data="{&quot;index&quot;:null}" fill="url(#color-120)" stroke="#000000"/><path d="M287.11352,202.00609l2.03143,-13.76214l18.92302,2.79323l-2.03143,13.76214z" fill="url(#color-121)" stroke="none"/></g><g><path d="M203.19289,190.46477c0,0 -2.2506,10.12175 -3.73525,18.00639c-1.78533,9.48125 -4.15776,30.15499 -4.15776,30.15499c0,0 -4.26465,-19.93303 -4.83166,-29.49661c-0.51344,-8.6597 -0.44151,-19.75281 -0.44151,-19.75281z" data-paper-data="{&quot;index&quot;:null}" fill="url(#color-122)" stroke="#000000"/><path d="M186.72144,193.67526l2.03144,-13.76222l18.92302,2.79323l-2.03144,13.76222z" fill="url(#color-123)" stroke="none"/></g><g data-paper-data="{&quot;index&quot;:null}"><path d="M290.00208,204.13409c0,0 -3.13622,10.64082 -6.12973,18.78283c-3.30601,8.99184 -13.14795,26.84263 -13.14795,26.84263c0,0 3.70187,-20.47752 4.73208,-30.07023c0.85668,-7.97732 1.62655,-18.31765 1.62655,-18.31765z" data-paper-data="{&quot;index&quot;:null}" fill="url(#color-124)" stroke="#000000"/><path d="M273.00145,206.41108l2.03144,-13.76222l18.92302,2.79323l-2.03144,13.76222z" fill="url(#color-125)" stroke="none"/></g><g><path d="M218.15079,195.19795c0,0 -2.25062,10.12176 -3.73527,18.00634c-1.78533,9.48125 -4.15776,30.15499 -4.15776,30.15499c0,0 -4.26465,-19.93303 -4.83169,-29.49661c-0.51344,-8.6597 -0.44146,-19.7528 -0.44146,-19.7528z" data-paper-data="{&quot;index&quot;:null}" fill="url(#color-126)" stroke="#000000"/><path d="M201.67934,198.4084l2.03143,-13.76218l18.92302,2.79323l-2.03143,13.76218z" fill="url(#color-127)" stroke="none"/></g><g data-paper-data="{&quot;index&quot;:null}"><path d="M274.31456,204.34372c0,0 -3.13622,10.64082 -6.12977,18.78282c-3.30601,8.99184 -13.1479,26.84264 -13.1479,26.84264c0,0 3.70187,-20.47752 4.73208,-30.07023c0.85668,-7.97732 1.62651,-18.31761 1.62651,-18.31761z" data-paper-data="{&quot;index&quot;:null}" fill="url(#color-128)" stroke="#000000"/><path d="M257.314,206.62065l2.03143,-13.76218l18.92302,2.79323l-2.03143,13.76218z" fill="url(#color-129)" stroke="none"/></g><g data-paper-data="{&quot;index&quot;:null}"><path d="M257.70359,204.95127c0,0 -3.13622,10.64082 -6.12977,18.78282c-3.30601,8.99184 -13.14787,26.84264 -13.14787,26.84264c0,0 3.70187,-20.47752 4.73208,-30.07023c0.85668,-7.97732 1.62652,-18.31765 1.62652,-18.31765z" data-paper-data="{&quot;index&quot;:null}" fill="url(#color-130)" stroke="#000000"/><path d="M240.70294,207.22818l2.03143,-13.76218l18.92302,2.79323l-2.03143,13.76218z" fill="url(#color-131)" stroke="none"/></g><g data-paper-data="{&quot;index&quot;:null}"><path d="M235.10532,200.14819c0,0 -2.25062,10.12176 -3.73528,18.00638c-1.78533,9.48125 -4.15776,30.15495 -4.15776,30.15495c0,0 -4.26463,-19.93303 -4.83161,-29.4966c-0.51344,-8.6597 -0.44154,-19.75282 -0.44154,-19.75282z" data-paper-data="{&quot;index&quot;:null}" fill="url(#color-132)" stroke="#000000"/><path d="M218.63379,203.35867l2.03144,-13.76222l18.92302,2.79323l-2.03144,13.76222z" fill="url(#color-133)" stroke="none"/></g><g><path d="M322.79001,188.9401c-2.38807,10.27476 -47.91753,21.54339 -87.8507,14.76178c-45.79207,-7.77663 -73.04472,-34.59064 -72.57003,-39.90855c17.85462,-35.69701 6.70888,13.79111 75.60195,21.87937c66.07951,13.22772 77.24693,-35.87012 84.81881,3.26736z" fill="url(#color-134)" stroke="#000000"/><g><path d="M238.57188,194.91763c0,0 -89.57012,-4.70538 -82.06819,-66.55315c7.72639,-63.69824 56.82721,-53.28372 99.27032,-46.92363c52.56068,7.26005 88.07308,17.03715 80.74861,75.28942c-7.19789,57.24531 -97.95076,38.18737 -97.95076,38.18737z" fill="url(#color-135)" stroke="#000000"/><g><path d="M156.5037,128.36448c7.72639,-63.69824 56.82721,-53.28372 99.27032,-46.92363c52.56068,7.26005 88.07308,17.03715 80.74861,75.28942c-0.88088,7.00575 -3.0132,12.8687 -6.07739,17.76363c-1.72399,-1.94627 -4.48172,-1.04131 -4.48172,-1.04131c-8.43586,2.77964 -15.40179,0.82978 -24.28927,2.43561c-2.86731,0.5181 -5.33988,-3.34336 -8.22734,-2.95289c-3.59225,0.48572 -6.03531,4.15325 -9.4386,5.40152c-3.64436,1.33674 -7.25883,4.32737 -11.07299,3.60593c-1.73046,-0.32729 -2.93798,-2.38343 -4.69879,-2.41572c-6.51008,-0.11948 -5.90224,2.71217 -10.45388,5.04633c-5.71988,2.93324 -8.95983,3.6553 -15.21808,2.71921c-5.02716,-0.74207 -11.677,-2.96198 -16.56563,-2.94849c-2.11164,0.00581 -4.58736,2.81175 -6.84631,1.02038c-1.55802,-1.23551 -2.25888,-3.60459 -4.11439,-4.31939c-3.65531,-1.40807 -7.67504,1.03643 -11.37967,-0.02352c-3.97448,-1.1371 -9.00675,-2.82231 -13.04973,-4.20188c-4.03762,-1.37775 -6.05409,-5.71767 -9.3059,-7.93351c-4.77893,-3.25633 -9.4551,-3.18613 -14.59551,-3.36398c-7.67853,-9.22472 -12.12507,-21.31702 -10.20364,-37.15781z" fill="url(#color-136)" stroke="#000000"/><path d="M182.71197,121.58343c3.30018,0.48715 5.30414,5.43002 4.476,11.04033c-0.82813,5.61026 -4.17477,9.76339 -7.47495,9.27625c-3.30018,-0.48715 -5.30414,-5.43002 -4.476,-11.04033c0.82813,-5.61026 4.17477,-9.76339 7.47495,-9.27625z" data-paper-data="{&quot;index&quot;:null}" fill="url(#color-137)" stroke="none"/><path d="M320.44113,152.29329c-0.82813,5.61026 -4.17477,9.76339 -7.47495,9.27625c-3.30018,-0.48715 -5.30414,-5.43002 -4.476,-11.04033c0.82813,-5.61026 4.17472,-9.76339 7.47495,-9.27625c3.30018,0.48715 5.30414,5.43002 4.476,11.04033z" data-paper-data="{&quot;index&quot;:null}" fill="url(#color-138)" stroke="none"/></g></g></g></g></g></g></g></svg>