<svg version="1.1" xmlns="http://www.w3.org/2000/svg" xmlns:xlink="http://www.w3.org/1999/xlink" width="190.28252" height="204.1799" viewBox="0,0,190.28252,204.1799"><g transform="translate(-260.00459,-129.13537)"><g data-paper-data="{&quot;isPaintingLayer&quot;:true}" fill-rule="nonzero" stroke-linecap="butt" stroke-linejoin="miter" stroke-miterlimit="10" stroke-dasharray="" stroke-dashoffset="0" style="mix-blend-mode: normal"><g fill="#9bc2e0" stroke="#000000" stroke-width="0"><path d="M339.28134,195.41046h13.92646v41.80856h-13.92646z"/><path d="M425.46501,195.6292h13.92646v41.58982h-13.92646z"/><path d="M436.38015,209.46087v13.92646h-17.52839v-13.92646z"/><path d="M269.28445,249.39556h13.92646v70.94476h-13.92646z"/><path d="M311.72006,306.42773v13.92646h-37.25876v-13.92646z"/></g><path d="M326.22984,257.56186v-18.59292h4.15607v18.59292z" fill="none" stroke="#656565" stroke-width="3"/><path d="M299.63102,238.83769v-18.59292h4.15607v18.59292z" fill="none" stroke="#656565" stroke-width="3"/><path d="M305.88699,195.78961h18.59292v4.15607h-18.59292z" fill="none" stroke="#656565" stroke-width="3"/><path d="M365.82183,232.97545h18.59292v4.15607h-18.59292z" fill="none" stroke="#656565" stroke-width="3"/><path d="M328.81641,331.81527v-52.59751h70.5914v52.59751z" fill="none" stroke="#656565" stroke-width="3"/><path d="M312.07482,323.8725v-60.37232h104.77659l-0.07305,59.94437l-17.40832,-0.02429l-0.00049,-44.33901l-70.67046,-0.12343v44.91467z" fill="none" stroke="#656565" stroke-width="3"/><path d="M421.63705,323.18394v-85.96493h22.31151v85.96493z" fill="none" stroke="#656565" stroke-width="3"/><path d="M330.53173,237.32839h86.40241v22.31151h-86.40241z" fill="none" stroke="#656565" stroke-width="3"/><path d="M303.84541,173.19374h140.65v22.31151h-140.65z" fill="none" stroke="#656565" stroke-width="3"/><path d="M326.33921,199.96026v59.42444h-22.31151v-59.42444z" fill="none" stroke="#656565" stroke-width="3"/><path d="M418.6476,200.83522v31.86317h-57.74743v-31.86317z" fill="none" stroke="#656565" stroke-width="3"/><path d="M299.5654,210.45979v39.30033h-38.06081v-39.30033z" fill="none" stroke="#656565" stroke-width="3"/><path d="M416.93414,318.80914v-18.59292h4.15607v18.59292z" fill="none" stroke="#656565" stroke-width="3"/><path d="M416.93414,257.56186v-18.59292h4.15607v18.59292z" fill="none" stroke="#656565" stroke-width="3"/><path d="M402.58478,168.7618h18.59292v4.15607h-18.59292z" fill="none" stroke="#656565" stroke-width="3"/><path d="M358.58478,168.7618h18.59292v4.15607h-18.59292z" fill="none" stroke="#656565" stroke-width="3"/><path d="M314.91811,168.7618h18.59292v4.15607h-18.59292z" fill="none" stroke="#656565" stroke-width="3"/><path d="M430.96268,168.69618h-39.30033v-38.06081h39.30033z" fill="none" stroke="#656565" stroke-width="3"/><path d="M386.96268,168.69618h-39.30033v-38.06081h39.30033z" fill="none" stroke="#656565" stroke-width="3"/><path d="M343.29601,168.69618h-39.30033v-38.06081h39.30033z" fill="none" stroke="#656565" stroke-width="3"/><path d="M444.63104,193.58769v-18.59292h4.15607v18.59292z" fill="none" stroke="#656565" stroke-width="3"/><path d="M357.66642,313.17283v-13.46939h13.46939v13.46939z" fill="#ffffff" stroke="none" stroke-width="0"/></g></g></svg>