<svg version="1.1" xmlns="http://www.w3.org/2000/svg" xmlns:xlink="http://www.w3.org/1999/xlink" width="321.78258" height="297.24775" viewBox="0,0,321.78258,297.24775"><defs><linearGradient x1="426.1494" y1="179.07648" x2="426.46423" y2="181.41389" gradientUnits="userSpaceOnUse" id="color-1"><stop offset="0" stop-color="#a4a4a4"/><stop offset="1" stop-color="#d8d8d8"/></linearGradient><linearGradient x1="430.89839" y1="171.15086" x2="421.53071" y2="213.01774" gradientUnits="userSpaceOnUse" id="color-2"><stop offset="0" stop-color="#0b2a00"/><stop offset="1" stop-color="#101800"/></linearGradient><linearGradient x1="413.56831" y1="151.73664" x2="410.26272" y2="154.2082" gradientUnits="userSpaceOnUse" id="color-3"><stop offset="0" stop-color="#a4a4a4"/><stop offset="1" stop-color="#d8d8d8"/></linearGradient><linearGradient x1="404.14773" y1="142.5834" x2="405.56007" y2="144.4723" gradientUnits="userSpaceOnUse" id="color-4"><stop offset="0" stop-color="#a4a4a4"/><stop offset="1" stop-color="#d8d8d8"/></linearGradient><linearGradient x1="418.66377" y1="161.66966" x2="417.25143" y2="159.78075" gradientUnits="userSpaceOnUse" id="color-5"><stop offset="0" stop-color="#a4a4a4"/><stop offset="1" stop-color="#d8d8d8"/></linearGradient><linearGradient x1="420.33837" y1="145.69309" x2="417.81981" y2="147.5762" gradientUnits="userSpaceOnUse" id="color-6"><stop offset="0" stop-color="#a4a4a4"/><stop offset="1" stop-color="#d8d8d8"/></linearGradient><linearGradient x1="402.51139" y1="159.26759" x2="405.02995" y2="157.38448" gradientUnits="userSpaceOnUse" id="color-7"><stop offset="0" stop-color="#a4a4a4"/><stop offset="1" stop-color="#d8d8d8"/></linearGradient><linearGradient x1="416.47825" y1="131.79821" x2="406.74103" y2="175.31673" gradientUnits="userSpaceOnUse" id="color-8"><stop offset="0" stop-color="#0b2a00"/><stop offset="1" stop-color="#101800"/></linearGradient><linearGradient x1="394.27223" y1="288.18826" x2="394.32298" y2="291.00891" gradientUnits="userSpaceOnUse" id="color-9"><stop offset="0" stop-color="#6a6a6a"/><stop offset="1" stop-color="#9f9f9f"/></linearGradient><linearGradient x1="394.15483" y1="281.66938" x2="394.20564" y2="284.49003" gradientUnits="userSpaceOnUse" id="color-10"><stop offset="0" stop-color="#6a6a6a"/><stop offset="1" stop-color="#9f9f9f"/></linearGradient><linearGradient x1="394.03748" y1="275.15052" x2="394.08825" y2="277.97117" gradientUnits="userSpaceOnUse" id="color-11"><stop offset="0" stop-color="#6a6a6a"/><stop offset="1" stop-color="#9f9f9f"/></linearGradient><linearGradient x1="394.43347" y1="269.18811" x2="394.43347" y2="293.71985" gradientUnits="userSpaceOnUse" id="color-12"><stop offset="0" stop-color="#0b2a00"/><stop offset="1" stop-color="#101800"/></linearGradient><linearGradient x1="396.54496" y1="248.94687" x2="391.3332" y2="249.0554" gradientUnits="userSpaceOnUse" id="color-13"><stop offset="0" stop-color="#a4a4a4"/><stop offset="1" stop-color="#d8d8d8"/></linearGradient><linearGradient x1="394.20081" y1="258.91479" x2="394.29751" y2="261.73425" gradientUnits="userSpaceOnUse" id="color-14"><stop offset="0" stop-color="#6a6a6a"/><stop offset="1" stop-color="#9f9f9f"/></linearGradient><linearGradient x1="393.97732" y1="252.39872" x2="394.07401" y2="255.21816" gradientUnits="userSpaceOnUse" id="color-15"><stop offset="0" stop-color="#6a6a6a"/><stop offset="1" stop-color="#9f9f9f"/></linearGradient><linearGradient x1="393.75379" y1="245.88262" x2="393.85052" y2="248.70209" gradientUnits="userSpaceOnUse" id="color-16"><stop offset="0" stop-color="#6a6a6a"/><stop offset="1" stop-color="#9f9f9f"/></linearGradient><linearGradient x1="393.53031" y1="239.36653" x2="393.62701" y2="242.18599" gradientUnits="userSpaceOnUse" id="color-17"><stop offset="0" stop-color="#6a6a6a"/><stop offset="1" stop-color="#9f9f9f"/></linearGradient><linearGradient x1="398.28216" y1="231.93572" x2="389.57185" y2="266.3886" gradientUnits="userSpaceOnUse" id="color-18"><stop offset="0" stop-color="#0b2a00"/><stop offset="1" stop-color="#101800"/></linearGradient><linearGradient x1="325.91625" y1="249.96834" x2="331.12904" y2="249.93444" gradientUnits="userSpaceOnUse" id="color-19"><stop offset="0" stop-color="#a4a4a4"/><stop offset="1" stop-color="#d8d8d8"/></linearGradient><linearGradient x1="328.53189" y1="259.8685" x2="328.51225" y2="262.68955" gradientUnits="userSpaceOnUse" id="color-20"><stop offset="0" stop-color="#6a6a6a"/><stop offset="1" stop-color="#9f9f9f"/></linearGradient><linearGradient x1="328.57726" y1="253.34876" x2="328.55762" y2="256.16979" gradientUnits="userSpaceOnUse" id="color-21"><stop offset="0" stop-color="#6a6a6a"/><stop offset="1" stop-color="#9f9f9f"/></linearGradient><linearGradient x1="328.62265" y1="246.82899" x2="328.60301" y2="249.65004" gradientUnits="userSpaceOnUse" id="color-22"><stop offset="0" stop-color="#6a6a6a"/><stop offset="1" stop-color="#9f9f9f"/></linearGradient><linearGradient x1="328.66803" y1="240.30922" x2="328.64839" y2="243.13028" gradientUnits="userSpaceOnUse" id="color-23"><stop offset="0" stop-color="#6a6a6a"/><stop offset="1" stop-color="#9f9f9f"/></linearGradient><linearGradient x1="323.74726" y1="233.00189" x2="333.39565" y2="267.20393" gradientUnits="userSpaceOnUse" id="color-24"><stop offset="0" stop-color="#0b2a00"/><stop offset="1" stop-color="#101800"/></linearGradient><linearGradient x1="337.69264" y1="307.7275" x2="318.09733" y2="307.7275" gradientUnits="userSpaceOnUse" id="color-25"><stop offset="0" stop-color="#a4a4a4"/><stop offset="1" stop-color="#d8d8d8"/></linearGradient><linearGradient x1="339.09231" y1="314.21684" x2="311.86247" y2="314.21684" gradientUnits="userSpaceOnUse" id="color-26"><stop offset="0" stop-color="#a4a4a4"/><stop offset="1" stop-color="#d8d8d8"/></linearGradient><linearGradient x1="341.29784" y1="320.60111" x2="301.75092" y2="320.60111" gradientUnits="userSpaceOnUse" id="color-27"><stop offset="0" stop-color="#a4a4a4"/><stop offset="1" stop-color="#d8d8d8"/></linearGradient><linearGradient x1="308.19789" y1="320.57896" x2="297.3314" y2="320.57896" gradientUnits="userSpaceOnUse" id="color-28"><stop offset="0" stop-color="#787878"/><stop offset="1" stop-color="#a4a4a4"/></linearGradient><linearGradient x1="311.88791" y1="320.57896" x2="301.02141" y2="320.57896" gradientUnits="userSpaceOnUse" id="color-29"><stop offset="0" stop-color="#787878"/><stop offset="1" stop-color="#a4a4a4"/></linearGradient><linearGradient x1="316.59588" y1="320.57896" x2="305.72938" y2="320.57896" gradientUnits="userSpaceOnUse" id="color-30"><stop offset="0" stop-color="#787878"/><stop offset="1" stop-color="#a4a4a4"/></linearGradient><linearGradient x1="272.55848" y1="313.19539" x2="348.5336" y2="313.19539" gradientUnits="userSpaceOnUse" id="color-31"><stop offset="0" stop-color="#0b2a00"/><stop offset="1" stop-color="#101800"/></linearGradient><linearGradient x1="317.33311" y1="143.84329" x2="315.92221" y2="145.73325" gradientUnits="userSpaceOnUse" id="color-32"><stop offset="0" stop-color="#a4a4a4"/><stop offset="1" stop-color="#d8d8d8"/></linearGradient><linearGradient x1="302.83137" y1="162.9404" x2="304.24229" y2="161.05041" gradientUnits="userSpaceOnUse" id="color-33"><stop offset="0" stop-color="#a4a4a4"/><stop offset="1" stop-color="#d8d8d8"/></linearGradient><linearGradient x1="301.14482" y1="146.9651" x2="303.66478" y2="148.84631" gradientUnits="userSpaceOnUse" id="color-34"><stop offset="0" stop-color="#a4a4a4"/><stop offset="1" stop-color="#d8d8d8"/></linearGradient><linearGradient x1="318.98195" y1="160.52622" x2="316.462" y2="158.64502" gradientUnits="userSpaceOnUse" id="color-35"><stop offset="0" stop-color="#a4a4a4"/><stop offset="1" stop-color="#d8d8d8"/></linearGradient><linearGradient x1="303.47027" y1="133.5925" x2="316.23367" y2="176.0524" gradientUnits="userSpaceOnUse" id="color-36"><stop offset="0" stop-color="#0b2a00"/><stop offset="1" stop-color="#101800"/></linearGradient><linearGradient x1="277.80086" y1="212.3703" x2="287.33037" y2="244.07205" gradientUnits="userSpaceOnUse" id="color-37"><stop offset="0" stop-color="#0b2a00"/><stop offset="1" stop-color="#101800"/></linearGradient><linearGradient x1="354.16422" y1="203.82642" x2="365.11607" y2="203.82642" gradientUnits="userSpaceOnUse" id="color-38"><stop offset="0" stop-color="#a4a4a4"/><stop offset="1" stop-color="#d8d8d8"/></linearGradient><radialGradient cx="359.37941" cy="171.46705" r="8.86577" gradientUnits="userSpaceOnUse" id="color-39"><stop offset="0" stop-color="#d8d8d8"/><stop offset="1" stop-color="#a4a4a4"/></radialGradient><linearGradient x1="374.24604" y1="157.70915" x2="369.52903" y2="157.70915" gradientUnits="userSpaceOnUse" id="color-40"><stop offset="0" stop-color="#a4a4a4"/><stop offset="1" stop-color="#d8d8d8"/></linearGradient><linearGradient x1="344.51574" y1="158.51089" x2="349.23271" y2="158.51089" gradientUnits="userSpaceOnUse" id="color-41"><stop offset="0" stop-color="#a4a4a4"/><stop offset="1" stop-color="#d8d8d8"/></linearGradient><linearGradient x1="359.34142" y1="176.56498" x2="359.34142" y2="181.67505" gradientUnits="userSpaceOnUse" id="color-42"><stop offset="0" stop-color="#a4a4a4"/><stop offset="1" stop-color="#d8d8d8"/></linearGradient><linearGradient x1="375.9851" y1="157.52078" x2="381.55126" y2="159.56673" gradientUnits="userSpaceOnUse" id="color-43"><stop offset="0" stop-color="#a4a4a4"/><stop offset="1" stop-color="#d8d8d8"/></linearGradient><linearGradient x1="342.09657" y1="156.80894" x2="336.40929" y2="158.8994" gradientUnits="userSpaceOnUse" id="color-44"><stop offset="0" stop-color="#a4a4a4"/><stop offset="1" stop-color="#d8d8d8"/></linearGradient><linearGradient x1="359.7074" y1="134.21124" x2="359.7074" y2="138.49544" gradientUnits="userSpaceOnUse" id="color-45"><stop offset="0" stop-color="#a4a4a4"/><stop offset="1" stop-color="#d8d8d8"/></linearGradient><linearGradient x1="358.2788" y1="121.62487" x2="358.2788" y2="240.56967" gradientUnits="userSpaceOnUse" id="color-46"><stop offset="0" stop-color="#0b2a00"/><stop offset="1" stop-color="#101800"/></linearGradient><linearGradient x1="361.12378" y1="76.25718" x2="348.33129" y2="114.26506" gradientUnits="userSpaceOnUse" id="color-47"><stop offset="0" stop-color="#0b2a00"/><stop offset="1" stop-color="#101800"/></linearGradient><linearGradient x1="321.06625" y1="53.15491" x2="407.96945" y2="82.40435" gradientUnits="userSpaceOnUse" id="color-48"><stop offset="0" stop-color="#0b2a00"/><stop offset="1" stop-color="#101800"/></linearGradient><radialGradient cx="365.66659" cy="48.35776" r="2.77589" gradientUnits="userSpaceOnUse" id="color-49"><stop offset="0" stop-color="#ffffff"/><stop offset="1" stop-color="#ffffff" stop-opacity="0"/></radialGradient><radialGradient cx="392.58676" cy="59.14714" r="2.77589" gradientUnits="userSpaceOnUse" id="color-50"><stop offset="0" stop-color="#ffffff"/><stop offset="1" stop-color="#ffffff" stop-opacity="0"/></radialGradient></defs><g transform="translate(-134.25,-29.50225)"><g data-paper-data="{&quot;isPaintingLayer&quot;:true}" fill-rule="nonzero" stroke-linejoin="miter" stroke-miterlimit="10" stroke-dasharray="" stroke-dashoffset="0" style="mix-blend-mode: normal"><g><path d="M404.52326,91.6635c-2.80356,8.32968 -88.75759,-21.43116 -86.82989,-29.22478c2.66014,-10.75483 13.34475,-17.4789 26.75944,-19.17698c8.37776,-1.06049 44.45189,11.17361 50.34734,17.18594c9.11816,9.29893 13.20559,20.869 9.72311,31.21581z" fill="#000000" stroke="#000000" stroke-width="0" stroke-linecap="butt"/><g data-paper-data="{&quot;index&quot;:null}" stroke-linecap="butt"><path d="M424.47727,172.33851c18.86833,-3.52758 20.35768,5.76284 22.0182,16.67929c0.00666,0.04377 0.0133,0.08752 0.01995,0.13125c-3.28127,-0.37958 -7.52541,-0.10643 -10.53626,0.93423c-0.92149,0.3185 -1.63501,1.19319 -2.5984,1.34285c-1.7942,0.27869 -4.18281,-0.04635 -5.78252,1.06614c-3.43534,2.38907 -2.55132,6.38258 -0.11932,8.75623c3.29349,2.76148 -0.39101,5.44091 -0.26616,8.6133c0.03233,0.82128 0.23726,1.61658 0.55438,2.39083c-16.9425,1.94795 -17.71491,-6.67521 -19.29478,-17.06145c-1.66054,-10.91645 -4.8168,-18.9599 16.00491,-22.85266z" fill="#000000" stroke="#000000" stroke-width="0"/><path d="M426.69334,170.90764c1.172,0.13074 1.04126,1.30274 1.04126,1.30274l-0.09312,0.51723c0.20261,1.67638 -0.09366,3.44146 -0.52287,5.18963c0.14818,0.06984 0.30404,0.14509 0.46803,0.22832c0.74297,0.37707 1.41409,0.88156 2.12112,1.32234c0,0 0.76089,0.47794 0.53711,1.26363c0.0875,0.19501 0.10929,0.35671 0.10929,0.35671l0.07872,0.58437c0.21058,1.61014 0.38512,2.81359 -0.25884,3.90145c0.95239,0.67204 1.90481,1.34407 2.85718,2.01608c0,0 0.89096,0.62867 0.35489,1.53367c0.03356,0.08589 0.05748,0.17715 0.07035,0.27262c0.01224,0.09086 0.0138,0.18068 0.0056,0.26822c0.12845,0.34908 0.06293,0.69377 0.06293,0.69377l-0.23215,1.22119c-0.2498,1.30777 -0.0537,2.73686 -0.60711,3.94781c-0.20524,0.44914 -0.61157,0.919 -1.09916,1.38525c0.41826,0.37524 0.77668,0.80785 1.01096,1.32824c0.92773,2.06081 0.30777,4.58018 -0.55951,6.92008c1.68813,1.30876 3.15197,3.67157 1.81501,5.82841c-0.47358,0.76403 -1.41429,1.05911 -2.24864,1.46903c0.00512,0.29944 -0.11004,0.6447 -0.53177,0.93171c-0.97495,0.66344 -1.63838,-0.31147 -1.63838,-0.31147c-0.28939,-0.44391 -0.57876,-0.88784 -0.86814,-1.33174l-0.22487,-1.433c0,0 -0.00423,-0.03149 -0.00615,-0.08485c-0.00832,-0.03597 -0.01505,-0.07265 -0.02008,-0.10996c-0.02725,-0.2023 -0.00148,-0.39953 0.06664,-0.57766c-0.40217,-0.4844 -0.16573,-1.14556 -0.16573,-1.14556c0.30073,-0.84091 0.67097,-1.71146 1.02908,-2.59714c-0.74766,-1.0443 -1.51268,-2.07702 -2.20046,-3.16118c-0.55028,-0.86742 -1.51772,-1.6304 -1.56175,-2.65671c-0.03485,-0.81218 0.88925,-1.36164 1.36089,-2.02379c0.23161,-0.32515 0.48042,-0.62046 0.74162,-0.89788c-1.96064,-1.60831 -3.61496,-6.05953 -2.88521,-8.50749c0.47099,-1.57997 1.24309,-1.80589 1.99549,-2.54564c-0.39669,-0.27992 -0.78518,-0.55403 -1.16022,-0.81867c0,0 -0.11012,-0.07771 -0.22964,-0.21781c-0.26928,-0.11655 -0.49018,-0.33151 -0.61128,-0.60572c-0.29452,-0.17845 -0.50867,-0.48372 -0.55822,-0.85156c-0.01181,-0.08756 -0.01366,-0.17415 -0.00646,-0.25867c-0.72328,-0.39541 -0.5214,-1.27796 -0.5214,-1.27796c0.19965,-0.87285 0.49083,-1.82206 0.77965,-2.80043c-1.11067,-0.79771 -1.9487,-1.8374 -2.10666,-3.54418c-0.05554,-0.60005 -0.30181,-1.25225 -0.06564,-1.80665c0.35058,-0.82292 1.36523,-1.23502 1.72889,-2.05221l0.55263,-0.30109c0.18185,-0.21305 0.43982,-0.36244 0.73926,-0.40278c0.14773,-0.01989 0.29273,-0.01153 0.42955,0.02095c0.05042,0.00988 0.10295,0.02302 0.15621,0.04033c0.19358,-0.15994 0.47193,-0.26654 0.87111,-0.222zM424.61876,175.31628c0.12439,0.53429 0.27624,0.92399 0.46543,1.22552c0.16927,-0.79627 0.28364,-1.58448 0.2947,-2.3403c-0.03298,0.04588 -0.06781,0.0905 -0.10478,0.13369c-0.21908,0.25583 -0.71746,0.17024 -0.90455,0.45032c-0.10857,0.16254 0.20488,0.34041 0.2492,0.53078zM428.01119,181.19785c-0.50626,-0.29315 -1.03231,-0.55882 -1.5515,-0.82471c-0.187,0.67532 -0.36776,1.34018 -0.51971,1.98812c0.19266,0.12328 0.34879,0.30175 0.44368,0.51656c0.11866,0.0719 0.22425,0.16438 0.31132,0.27325c0.12421,0.05574 0.20011,0.10928 0.20011,0.10928l0.35489,0.25043c0.33907,0.23927 0.67814,0.47852 1.01722,0.71777c0.21902,-0.58618 -0.03775,-1.2796 -0.17172,-2.2411l-0.07871,-0.58435c0,0 -0.01102,-0.0819 -0.00556,-0.20525zM431.11904,189.71126c-0.02563,-0.19009 -0.00442,-0.3757 0.05475,-0.5452c-0.7867,-0.55512 -1.61983,-1.14298 -2.45502,-1.73229c-0.09376,0.16557 -0.19959,0.32113 -0.33851,0.44936c-0.45567,0.42058 -1.2689,0.62743 -1.39085,1.23541c-0.31934,1.59219 0.69302,5.23657 2.09225,6.123c0.0937,0.05938 0.19028,0.11881 0.289,0.17867c0.12684,-0.11077 0.25408,-0.22292 0.3813,-0.33741c0.25573,-0.23017 0.69384,-0.29983 0.82761,-0.61682c0.43414,-1.02891 0.18854,-2.22951 0.39622,-3.32679l0.21766,-1.14502c-0.03569,-0.08889 -0.06106,-0.18361 -0.07442,-0.28287zM428.97822,201.28732c0.4408,0.55683 0.85071,1.13664 1.25066,1.72388c0.14633,-0.5379 0.2582,-1.07581 0.31824,-1.61061c0.03212,-0.28619 0.0695,-1.83903 -0.05107,-2.08889c-0.17122,-0.35484 -0.41736,-0.63302 -0.70132,-0.86694c-0.42727,0.35208 -0.81769,0.68295 -1.10405,0.97902c-0.24864,0.25703 -0.90588,0.29935 -0.85134,0.65277c0.08449,0.5476 0.79498,0.77632 1.13889,1.21076zM431.94696,209.6003c0.49036,-0.56551 -0.18061,-1.4918 -0.83276,-2.12903c-0.25184,0.6101 -0.48768,1.18793 -0.67753,1.71885c0,0 -0.00657,0.01838 -0.02039,0.04954c0.12318,0.15878 0.20736,0.35117 0.23611,0.56466c0.00502,0.03731 0.00827,0.07445 0.00975,0.11134c0.01226,0.05195 0.0165,0.08344 0.0165,0.08344l0.03519,0.35363c0.46235,-0.18797 0.91454,-0.38499 1.23314,-0.75243z" fill="#000000" stroke="none" stroke-width="0.5"/><g stroke="none" stroke-width="0"><path d="M428.77429,214.0237l-5.87704,-43.63182l4.09049,-0.55098l5.87703,43.63181z" fill="#000000"/><path d="M418.57547,182.47646l-0.31485,-2.3374l15.77757,-2.12519l0.31484,2.33743z" fill="url(#color-1)"/><path d="M437.11899,199.41401l0.31484,2.33741l-15.77757,2.12517l-0.31484,-2.33743z" data-paper-data="{&quot;index&quot;:null}" fill="#000000"/><path d="M435.20538,205.81963l0.48574,-15.53429l-4.63114,-15.24171l3.11656,-0.41979l4.6049,15.04693l-0.45951,15.72907z" fill="#000000"/><path d="M421.20708,207.9035l-4.6049,-15.04693l0.45949,-15.72909l3.11656,-0.41978l-0.43324,15.92387l4.57866,14.85214z" data-paper-data="{&quot;index&quot;:null}" fill="#000000"/><path d="M427.69987,213.13325c-0.23069,-1.71272 0.97072,-3.28816 2.68343,-3.51885c1.71273,-0.23068 3.28816,0.97072 3.51885,2.68343c0.23069,1.71272 -0.9707,3.28816 -2.68343,3.51885c-1.71272,0.23069 -3.28816,-0.97072 -3.51885,-2.68343z" fill="#000000"/></g><path d="M408.52446,195.50101c-1.66054,-10.91645 -4.8168,-18.9599 16.00491,-22.85266c18.86833,-3.52756 20.35767,5.76286 22.01819,16.67928c0.12925,0.8496 0.25426,1.68689 0.36618,2.51011c-1.55907,0.87072 -3.14943,1.75341 -4.51176,2.86253c-0.7888,0.6422 -1.26185,1.6791 -2.16123,2.15422c-1.26673,0.66919 -3.95304,-0.20656 -5.42454,0.1795c-2.883,0.7564 -5.17914,1.3257 -7.92911,2.61599c-0.81103,0.38054 -1.93455,-0.05014 -2.64041,0.50152c-0.72852,0.56935 -1.03221,1.53432 -1.54831,2.30151c-2.34032,3.29691 -1.60805,6.97411 0.0037,10.37832c-12.00888,-0.2786 -12.77504,-8.10965 -14.17761,-17.33029z" fill="url(#color-2)" stroke="#000000" stroke-width="0"/></g><g data-paper-data="{&quot;index&quot;:null}" stroke-linecap="butt"><path d="M399.40856,137.5103c14.76808,-12.26218 20.58949,-4.8702 27.35155,3.85908c6.76207,8.72928 11.93054,16.02309 -2.8639,27.75247c-15.55437,12.33188 -20.58949,4.8702 -27.35155,-3.85908c-6.76209,-8.72928 -13.43308,-14.22084 2.8639,-27.75247z" fill="#525252" stroke="#000000" stroke-width="0"/><path d="M400.64845,135.18199c1.08752,-0.45601 1.54354,0.63152 1.54354,0.63152l0.1703,0.49719c0.99266,1.366 1.5926,3.05222 2.0682,4.78836c0.16344,-0.01108 0.33623,-0.02117 0.52,-0.02826c0.83257,-0.03204 1.66434,0.08218 2.49652,0.12326c0,0 0.89729,0.04735 1.08404,0.84264c0.17133,0.12779 0.26903,0.25847 0.26903,0.25847l0.35309,0.47224c0.9674,1.30424 1.70542,2.27074 1.6721,3.53446c1.15904,0.12374 2.31809,0.24749 3.47713,0.37122c0,0 1.08425,0.11574 1.05623,1.16724c0.0711,0.05872 0.13642,0.1268 0.19408,0.20393c0.05491,0.07342 0.09995,0.15114 0.1354,0.23162c0.28206,0.24249 0.39252,0.5755 0.39252,0.5755l0.39135,1.17986c0.41806,1.26406 1.28472,2.4172 1.3904,3.74442c0.03921,0.49224 -0.08717,1.10043 -0.28631,1.74503c0.54798,0.12434 1.0716,0.32788 1.52947,0.66854c1.8132,1.34904 2.49734,3.85176 2.87812,6.31799c2.11163,0.32205 4.54013,1.67411 4.42148,4.20894c-0.04204,0.8979 -0.7203,1.61341 -1.24978,2.3775c0.15014,0.25911 0.21755,0.61679 -0.01126,1.07271c-0.52895,1.05397 -1.58293,0.52503 -1.58293,0.52503c-0.4688,-0.24704 -0.9376,-0.49408 -1.40641,-0.7411l-0.89368,-1.14255c0,0 -0.01902,-0.02547 -0.04666,-0.07113c-0.02477,-0.02737 -0.04848,-0.05615 -0.07105,-0.08629c-0.12225,-0.16348 -0.19567,-0.34835 -0.22284,-0.53709c-0.58704,-0.22753 -0.70215,-0.92019 -0.70215,-0.92019c-0.14641,-0.88095 -0.24651,-1.82166 -0.36454,-2.76969c-1.16129,-0.5486 -2.33213,-1.0786 -3.4605,-1.69115c-0.9028,-0.49009 -2.11923,-0.68597 -2.65704,-1.56117c-0.42561,-0.6926 0.1144,-1.62228 0.20428,-2.43023c0.04414,-0.39675 0.11784,-0.77581 0.21105,-1.14527c-2.49542,-0.45118 -6.10646,-3.53509 -6.65998,-6.02882c-0.35725,-1.60951 0.20738,-2.18252 0.50482,-3.19492c-0.48277,-0.05155 -0.95553,-0.10201 -1.41194,-0.15075c0,0 -0.13403,-0.01431 -0.3066,-0.07856c-0.29197,0.0292 -0.58955,-0.05114 -0.82877,-0.23178c-0.34413,-0.01261 -0.67976,-0.1751 -0.90202,-0.47237c-0.05292,-0.07075 -0.09667,-0.14551 -0.1315,-0.22284c-0.82428,0.00647 -1.0773,-0.86279 -1.0773,-0.86279c-0.25025,-0.85971 -0.45769,-1.83066 -0.68139,-2.82596c-1.35847,-0.15653 -2.59647,-0.65713 -3.56488,-2.0714c-0.34047,-0.49721 -0.87296,-0.94718 -0.93638,-1.54644c-0.0941,-0.8895 0.59188,-1.74321 0.51196,-2.63411l0.33632,-0.53193c0.05521,-0.2746 0.2079,-0.53065 0.44989,-0.71158c0.11938,-0.08925 0.25015,-0.15247 0.38548,-0.1907c0.04886,-0.01589 0.10116,-0.02996 0.1561,-0.04075c0.0913,-0.23392 0.28265,-0.46248 0.65304,-0.61779zM400.98095,140.04299c0.36862,0.40627 0.69092,0.67286 1.00291,0.84425c-0.23953,-0.77803 -0.5231,-1.5223 -0.88119,-2.18801c-0.00648,0.05613 -0.01521,0.11206 -0.02651,0.16779c-0.06694,0.33009 -0.54398,0.4978 -0.57116,0.83353c-0.01576,0.19483 0.34463,0.19772 0.47596,0.34247zM406.80643,143.53092c-0.58493,-0.0098 -1.17377,0.01406 -1.75671,0.03436c0.16518,0.68097 0.33076,1.3498 0.51326,1.9898c0.22829,0.01396 0.45153,0.09392 0.63895,0.23542c0.13865,0.00506 0.2759,0.0345 0.40495,0.08724c0.13564,-0.01173 0.22799,-0.00189 0.22799,-0.00189l0.43191,0.04611c0.41265,0.04405 0.82527,0.08812 1.23792,0.13217c-0.09386,-0.61869 -0.65557,-1.09958 -1.24043,-1.8744l-0.35307,-0.47222c0,0 -0.04947,-0.06619 -0.10472,-0.1766zM413.66378,149.45658c-0.11487,-0.15362 -0.18665,-0.32608 -0.21743,-0.50295c-0.9574,-0.10221 -1.97129,-0.21046 -2.98767,-0.31897c-0.00136,0.19027 -0.01812,0.37767 -0.07711,0.55728c-0.19347,0.58913 -0.80331,1.16554 -0.61403,1.75603c0.49568,1.54639 3.1533,4.23778 4.80703,4.33141c0.11076,0.00628 0.22404,0.01122 0.33941,0.01549c0.05691,-0.15849 0.11352,-0.31837 0.16896,-0.48031c0.11143,-0.32551 0.46031,-0.59953 0.42292,-0.94156c-0.12132,-1.11015 -0.92003,-2.03954 -1.27249,-3.09925l-0.36694,-1.10626c-0.07443,-0.06029 -0.14267,-0.13072 -0.20264,-0.21094zM417.42574,160.61165c0.65602,0.272 1.29625,0.57913 1.93139,0.89757c-0.13385,-0.54114 -0.29786,-1.06552 -0.5056,-1.56195c-0.11118,-0.26566 -0.83403,-1.64048 -1.06093,-1.80012c-0.32223,-0.2267 -0.67262,-0.34997 -1.03454,-0.41617c-0.20198,0.51548 -0.38207,0.99452 -0.48822,1.39249c-0.09215,0.34553 -0.64578,0.7023 -0.42618,0.98451c0.34024,0.43731 1.07225,0.29145 1.58407,0.50366zM424.06403,166.42993c0.15326,-0.73264 -0.88362,-1.21544 -1.7634,-1.45487c0.07683,0.65554 0.15193,1.27511 0.24437,1.83134c0,0 0.0032,0.01925 0.00631,0.05319c0.18487,0.07879 0.35202,0.20591 0.48101,0.37843c0.02255,0.03016 0.04345,0.06104 0.06268,0.09255c0.03599,0.03944 0.05502,0.06488 0.05502,0.06488l0.20279,0.29183c0.31248,-0.38919 0.61168,-0.78133 0.71124,-1.25734z" fill="#000000" stroke="none" stroke-width="0.5"/><g stroke="none" stroke-width="0"><path d="M423.44439,171.83808l-26.36335,-35.25972l3.3056,-2.47157l26.36337,35.2597z" fill="url(#color-3)"/><path d="M399.18497,149.2389l-1.41232,-1.88891l12.75018,-9.53319l1.41233,1.88892z" fill="url(#color-4)"/><path d="M423.62653,155.01416l1.41232,1.88891l-12.75017,9.53318l-1.41232,-1.88892z" data-paper-data="{&quot;index&quot;:null}" fill="url(#color-5)"/><path d="M425.07128,161.54157l-7.13378,-13.80795l-11.4618,-11.06274l2.51855,-1.88309l11.34412,10.90533l7.25146,13.96535z" fill="url(#color-6)"/><path d="M413.8555,170.17292l-11.34412,-10.90533l-7.25148,-13.96537l2.51855,-1.88309l7.36916,14.12276l11.22641,10.74792z" data-paper-data="{&quot;index&quot;:null}" fill="url(#color-7)"/><path d="M422.70479,167.20301c1.38409,-1.03486 3.345,-0.75177 4.37986,0.63231c1.03486,1.38409 0.75178,3.34502 -0.63229,4.37988c-1.38409,1.03486 -3.34501,0.75177 -4.37987,-0.63231c-1.03486,-1.38409 -0.75177,-3.345 0.63231,-4.37986z" fill="#000000"/></g><path d="M396.74091,165.5081c-6.76209,-8.72928 -13.43308,-14.22084 2.8639,-27.75247c14.76808,-12.26218 20.5895,-4.87019 27.35155,3.85908c6.76207,8.72928 11.93054,16.02308 -2.86389,27.75246c-15.55436,12.33189 -20.58949,4.87022 -27.35155,-3.85908z" fill="url(#color-8)" stroke="#000000" stroke-width="0"/></g><g data-paper-data="{&quot;index&quot;:null}" stroke-linecap="butt"><path d="M394.13242,269.01844c23.75588,-0.44345 24.02051,7.00601 24.22157,15.74833c0.11418,4.96474 0.06384,9.39006 -4.28405,12.30548c-0.54079,-0.31012 -1.07745,-0.63236 -1.67552,-0.77611c-1.82192,-0.43792 -4.12355,0.35273 -5.95071,0.44866c-2.00371,0.1052 -4.05982,-0.00146 -6.06771,-0.00146c-3.2969,0 -7.06711,-0.74519 -10.32084,-0.22042c-1.37783,0.22222 -2.35888,0.72667 -3.82984,0.4773c-1.72793,-0.29292 -3.56421,-1.29183 -5.33346,-1.43277c-1.55185,-0.12361 -3.67027,0.69897 -5.21514,0.95627c0,0 -0.59481,0.09913 -0.86243,0.58109c-4.19082,-2.89157 -4.06262,-7.27744 -4.17529,-12.17598c-0.20108,-8.74232 -2.72183,-15.42105 23.49342,-15.91042z" fill="#000000" stroke="#000000" stroke-width="0"/><g stroke="none"><path d="M396.95187,303.11364c-0.48832,0.13737 -0.85711,0.06162 -1.13114,-0.09798c-0.06282,0.0325 -0.12559,0.05965 -0.18639,0.08232c-0.16387,0.06853 -0.34286,0.10871 -0.53104,0.11421c-0.38146,0.01116 -0.73359,-0.12212 -1.00392,-0.35033l-0.75046,-0.26186c-0.62082,-0.94384 -1.96989,-1.24929 -2.57558,-2.20289c-0.40806,-0.64247 -0.2349,-1.50577 -0.2888,-2.26496c-0.15326,-2.15945 0.67786,-3.62703 1.89838,-4.84901c-0.56064,-1.16007 -1.11821,-2.28325 -1.5461,-3.33007c0,0 -0.43262,-1.05844 0.38763,-1.69959c-0.02632,-0.10385 -0.04174,-0.21216 -0.04501,-0.32369c-0.01372,-0.46858 0.19054,-0.89294 0.52098,-1.17576c0.09469,-0.36657 0.32587,-0.67977 0.63754,-0.88026c0.12021,-0.19911 0.2415,-0.31854 0.2415,-0.31854c0.4131,-0.40674 0.84101,-0.82804 1.27797,-1.25824c-1.08941,-0.76757 -2.09799,-0.89072 -3.00904,-2.76312c-1.41156,-2.90106 -0.26296,-8.78766 1.85054,-11.19416c-0.38243,-0.29213 -0.75309,-0.60914 -1.10841,-0.96686c-0.25978,-0.26151 -0.58926,-0.49298 -0.91061,-0.72942c1.34797,-0.25823 2.48538,-0.80136 3.7201,-0.93992c0.2411,0.14818 0.4997,0.30038 0.76819,0.45628c0.12562,-0.14364 0.24176,-0.29527 0.34476,-0.45716c0.55819,0.06614 1.14996,0.24097 1.79872,0.5769c0,0 0.15002,0.07501 0.36514,0.11181c0.09753,0.26159 0.28536,0.47918 0.52556,0.6149c-0.14473,0.24234 -0.30887,0.47358 -0.48688,0.69533c0.70328,0.48104 1.30605,0.98326 1.65399,1.50087c0.93807,1.39558 0.98684,3.21682 1.5664,4.79537l0.5398,1.47426c0,0 0.15236,0.41611 0.06389,0.87751c0.02815,0.10741 0.04468,0.21967 0.04805,0.33543c0.00356,0.12159 -0.00756,0.24022 -0.03174,0.35415c0.85373,1.01789 -0.12764,1.98411 -0.12764,1.98411c-1.04905,1.03286 -2.09811,2.06575 -3.14716,3.09861c1.02567,1.22364 1.05501,2.75921 1.12287,4.80901l0.02177,0.7444c0,0 0.00601,0.206 -0.06303,0.46694c0.44005,0.93325 -0.41016,1.68494 -0.41016,1.68494c-0.79073,0.69436 -1.5236,1.46074 -2.37217,2.08306c-0.1873,0.13735 -0.3661,0.26311 -0.53644,0.38053c0.89349,2.0906 1.62478,4.22953 1.71615,6.36026l0.22214,0.62548c0,0 0.40332,1.43376 -1.03043,1.83709zM398.61008,278.77216c-0.00369,-0.12646 0.00846,-0.24969 0.03471,-0.36779l-0.50613,-1.38229c-0.48389,-1.32489 -0.42409,-2.87147 -1.17621,-4.06469c-0.23169,-0.36762 -0.79198,-0.36455 -1.1579,-0.59895c-0.18204,-0.11662 -0.3636,-0.23029 -0.54438,-0.34229c-0.11076,0.09486 -0.21891,0.18875 -0.3235,0.28194c-1.56193,1.3917 -2.07601,6.14111 -1.35143,8.05983c0.27669,0.73268 1.33257,0.82366 1.98672,1.25431c0.19943,0.1313 0.36323,0.30346 0.51404,0.49057c0.91994,-0.90574 1.83761,-1.80927 2.70416,-2.66245c-0.10849,-0.1991 -0.17299,-0.42605 -0.18007,-0.66821zM396.48333,290.01937c-0.03211,-0.15262 -0.03517,-0.25694 -0.03517,-0.25694l-0.02177,-0.74439c-0.03027,-1.22573 0.14749,-2.14256 -0.2457,-2.82815c-0.37347,0.36772 -0.74697,0.73544 -1.12044,1.10316l-0.39091,0.38489c0,0 -0.08358,0.0823 -0.22695,0.17726c-0.08618,0.15355 -0.19882,0.29044 -0.33196,0.40439c-0.0742,0.28718 -0.23215,0.54161 -0.44695,0.73476c0.32226,0.7763 0.68391,1.56781 1.05549,2.37105c0.59248,-0.43788 1.19359,-0.87681 1.76437,-1.34602zM393.46201,298.04503c-0.01618,0.24633 -0.37031,0.53231 -0.20167,0.71258c0.2906,0.31066 0.89412,0.1018 1.21963,0.37566c0.05494,0.04623 0.1075,0.0947 0.15803,0.1451c-0.16883,-0.93969 -0.47304,-1.89852 -0.84734,-2.85613c-0.17392,0.41459 -0.28322,0.93144 -0.32865,1.62279z" data-paper-data="{&quot;index&quot;:null}" fill="#000000" stroke-width="0.5"/><path d="M391.87085,303.46734l-0.37585,-37.33007l5.21282,-0.02366l0.37582,37.33008z" fill="#000000" stroke-width="0"/><path d="M394.59268,298.20104c2.18265,-0.01475 3.96399,1.74265 3.97874,3.9253c0.01475,2.18265 -1.74267,3.96399 -3.92531,3.97874c-2.18265,0.01475 -3.96399,-1.74267 -3.97874,-3.92532c-0.01476,-2.18264 1.74267,-3.96396 3.92531,-3.97872z" fill="#000000" stroke-width="0"/><path d="M389.83326,297.61074l-0.05078,-2.82067l9.21416,-0.16589l0.05078,2.82064z" fill="#000000" stroke-width="0"/><path d="M389.71591,291.0918l-0.05078,-2.82065l9.21417,-0.16589l0.05078,2.82065z" fill="url(#color-9)" stroke-width="0"/><path d="M389.59856,284.573l-0.05078,-2.82065l9.21415,-0.1659l0.05078,2.82065z" fill="url(#color-10)" stroke-width="0"/><path d="M389.48117,278.05411l-0.05078,-2.82066l9.21415,-0.16589l0.05078,2.82066z" fill="url(#color-11)" stroke-width="0"/></g><path d="M394.13242,269.20695c23.75588,-0.44346 24.02051,7.006 24.22157,15.74832c0.07207,3.13337 0.07859,6.05187 -1.0194,8.51156c-0.91686,-0.55401 -1.85095,-1.02179 -2.83358,-1.17922c-2.32018,-0.37171 -3.00797,1.7154 -5.27812,1.39956c-2.23619,-0.31112 -3.75555,-1.6704 -5.92215,-1.88806c-2.69377,-0.27063 -5.20521,0.46725 -7.87299,0.46725c-1.52286,0 -4.91214,0.7022 -6.15942,-0.25951c-0.94244,-0.72667 -2.00692,-1.79233 -3.18377,-1.61547c-2.90636,0.43678 -4.42526,2.49977 -7.5387,2.34922c-2.64229,-0.12777 -1.84163,-3.68375 -5.07087,-2.47862c-0.58091,0.21679 -0.78465,0.96614 -1.24224,1.38456c-0.2826,0.25841 -0.61168,0.44165 -0.96448,0.58751c-0.57729,-2.13907 -0.57042,-4.55794 -0.62927,-7.11668c-0.20108,-8.74232 -2.72183,-15.42104 23.49342,-15.91041z" fill="url(#color-12)" stroke="#000000" stroke-width="0"/></g><g data-paper-data="{&quot;index&quot;:null}" stroke-linecap="butt"><path d="M370.29411,249.52456c-0.3434,-8.73788 -2.97258,-15.37468 23.23124,-16.29086c23.74551,-0.83022 24.1314,6.61395 24.47479,15.35183c0.3434,8.73788 0.14947,15.81174 -23.2312,16.29087c-24.58168,0.50374 -24.13141,-6.61395 -24.47481,-15.35183z" fill="#000000" stroke="#000000" stroke-width="0"/><g stroke="none"><path d="M396.8996,267.27851c-0.48602,0.1453 -0.85599,0.07557 -1.13258,-0.07955c-0.06229,0.03351 -0.1246,0.06168 -0.18503,0.08534c-0.16272,0.07121 -0.34104,0.11428 -0.52909,0.12285c-0.38123,0.01737 -0.73549,-0.11015 -1.00949,-0.33393l-0.75462,-0.24961c-0.63611,-0.93362 -1.98998,-1.21704 -2.61111,-2.16066c-0.41846,-0.63573 -0.25938,-1.50174 -0.32563,-2.25994c-0.1884,-2.15666 0.61871,-3.63759 1.81917,-4.87928c-0.57946,-1.15078 -1.15524,-2.26473 -1.60011,-3.30445c0,0 -0.44979,-1.05126 0.3599,-1.70567c-0.02801,-0.1034 -0.04518,-0.21146 -0.05026,-0.32292c-0.02136,-0.4683 0.17597,-0.89592 0.50177,-1.18409c0.08871,-0.36806 0.31476,-0.68498 0.62312,-0.89052c0.11696,-0.20104 0.23629,-0.32243 0.23629,-0.32243c0.40642,-0.4134 0.82741,-0.84164 1.25731,-1.27888c-1.10176,-0.74972 -2.11221,-0.85644 -3.05364,-2.71376c-1.4586,-2.87769 -0.40601,-8.78221 1.66803,-11.22281c-0.38713,-0.28587 -0.76292,-0.5968 -1.12401,-0.94868c-0.264,-0.25725 -0.59719,-0.48331 -0.92236,-0.71449c1.34358,-0.28016 2.47199,-0.84173 3.70429,-1.00037c0.24349,0.14425 0.50453,0.29221 0.77554,0.44372c0.12326,-0.14567 0.23692,-0.29917 0.33726,-0.46271c0.55919,0.05704 1.15372,0.22221 1.80786,0.54752c0,0 0.15121,0.07256 0.36691,0.10585c0.10177,0.25995 0.29312,0.47447 0.5355,0.60625c-0.14076,0.24466 -0.30113,0.47856 -0.47549,0.70316c0.71102,0.46953 1.32189,0.96185 1.6782,1.47374c0.96068,1.38013 1.03909,3.20034 1.64428,4.76923l0.56374,1.46526c0,0 0.15912,0.41358 0.07817,0.87635c0.02991,0.10694 0.04825,0.21891 0.05351,0.3346c0.00555,0.12152 -0.00364,0.24031 -0.02597,0.35461c0.87018,1.00384 -0.09531,1.98593 -0.09531,1.98593c-1.03209,1.04981 -2.06419,2.09964 -3.09628,3.14945c1.04547,1.20677 1.09982,2.74166 1.20104,4.79008l0.03387,0.74395c0,0 0.00936,0.20588 -0.05541,0.46792c0.45518,0.92596 -0.38267,1.69139 -0.38267,1.69139c-0.77932,0.70713 -1.4996,1.48535 -2.33793,2.1214c-0.18505,0.14038 -0.36178,0.26903 -0.53018,0.38921c0.92742,2.07577 1.69344,4.20251 1.81949,6.33147l0.23229,0.62177c0,0 0.42661,1.42701 -1.00038,1.85363zM398.16126,242.91323c-0.00576,-0.12638 0.00439,-0.2498 0.02872,-0.3683l-0.52858,-1.37387c-0.5054,-1.31682 -0.47078,-2.86418 -1.24224,-4.04499c-0.23765,-0.3638 -0.79782,-0.35162 -1.1675,-0.58001c-0.18391,-0.11362 -0.3673,-0.22434 -0.54988,-0.33338c-0.1092,0.09665 -0.21582,0.19229 -0.31887,0.28717c-1.53906,1.41695 -1.97574,6.17411 -1.22001,8.08078c0.28859,0.72809 1.34581,0.80185 2.00689,1.22179c0.20154,0.12803 0.36812,0.29752 0.52196,0.48214c0.90506,-0.92058 1.80789,-1.83895 2.66044,-2.70612c-0.11172,-0.19731 -0.17988,-0.42317 -0.19091,-0.66519zM396.21796,254.19358c-0.03459,-0.15209 -0.03934,-0.25634 -0.03934,-0.25634l-0.03388,-0.74393c-0.05023,-1.22507 0.11257,-2.14467 -0.29172,-2.82377c-0.36744,0.37375 -0.73489,0.7475 -1.10233,1.12125l-0.3846,0.3912c0,0 -0.08224,0.08365 -0.22403,0.18094c-0.08367,0.15494 -0.19406,0.29364 -0.32532,0.40974c-0.06951,0.28836 -0.2233,0.54533 -0.43493,0.74195c0.33484,0.77094 0.70935,1.55645 1.09396,2.35354c0.58526,-0.44746 1.17914,-0.89613 1.74221,-1.37457zM393.32773,262.26741c-0.01217,0.24655 -0.36158,0.53827 -0.19004,0.71576c0.29561,0.30589 0.89566,0.08722 1.22559,0.35575c0.05567,0.04534 0.10903,0.09294 0.16037,0.14252c-0.18412,-0.93682 -0.5039,-1.89059 -0.89373,-2.84196c-0.16716,0.41737 -0.26802,0.93593 -0.30218,1.62793z" data-paper-data="{&quot;index&quot;:null}" fill="#000000" stroke-width="0.5"/><path d="M391.82506,267.71491l-0.98366,-37.31901l5.21175,-0.10853l0.98363,37.319z" fill="url(#color-13)" stroke-width="0"/><path d="M390.60079,266.44707c-0.05029,-2.1821 1.67789,-3.99182 3.86,-4.0421c2.18212,-0.05028 3.99184,1.67787 4.04213,3.85999c0.05029,2.18211 -1.67789,3.99183 -3.86,4.04211c-2.18212,0.05028 -3.99184,-1.67789 -4.04212,-3.86001z" fill="#000000" stroke-width="0"/><path d="M389.69239,261.8922l-0.0967,-2.81945l9.21023,-0.31591l0.0967,2.81945z" fill="url(#color-14)" stroke-width="0"/><path d="M389.46888,255.3761l-0.0967,-2.81945l9.21024,-0.31591l0.0967,2.81945z" fill="url(#color-15)" stroke-width="0"/><path d="M389.2454,248.86005l-0.0967,-2.81945l9.21023,-0.31591l0.0967,2.81945z" fill="url(#color-16)" stroke-width="0"/><path d="M389.02189,242.34395l-0.0967,-2.81946l9.21023,-0.31591l0.0967,2.81946z" fill="url(#color-17)" stroke-width="0"/></g><path d="M393.52843,233.4222c23.74551,-0.83023 24.1314,6.61395 24.47479,15.35183c0.34339,8.73788 0.14945,15.81174 -23.23122,16.29086c-14.20175,0.29103 -20.04833,-1.96182 -22.51989,-5.60129c0.56548,-0.65172 1.17505,-1.24432 1.76351,-1.58433c1.38999,-0.80316 2.98635,-0.92683 4.02585,-2.34224c1.92012,-2.61447 -0.69003,-4.08548 -0.76047,-6.50891c-0.0852,-2.93159 -0.37138,-6.018 -3.35561,-7.26886c-0.26333,-0.36998 -0.71622,-0.48449 -0.71622,-0.48449c-0.57528,-0.14544 -1.67207,-0.42273 -2.5024,-0.63265c1.60027,-3.98298 6.86542,-6.66202 22.82165,-7.21991zM403.18758,237.9401c-2.35644,1.07777 -4.87145,2.60885 -7.32287,3.42093c-2.37591,0.78706 -4.29888,-0.48207 -5.87623,2.06016c-2.00606,3.23318 3.71816,4.20498 1.86166,7.04296c-0.46254,0.70708 -1.38738,0.96479 -2.07838,1.45103c-0.11665,2.24354 0.57832,4.40526 3.36991,4.58892c0.32295,0.02124 2.48141,-0.61396 2.94642,-0.93857c0.13339,-0.09311 0.11211,-0.59672 0.18532,-0.45145c0.3417,0.67801 0.42715,1.6964 1.13307,1.97594c2.03382,0.80536 6.32952,-0.46199 8.28252,-1.24833c0.5473,-0.22036 1.23106,-0.3198 1.58182,-0.79421c2.69138,-3.64011 -0.0281,-7.49965 -2.41544,-10.15685c-0.19265,-2.21232 0.55042,-3.978 1.48534,-5.93829l-0.02556,-1.27434c0,0 -0.25253,-1.15077 -1.40329,-0.89824c-0.75374,0.1654 -0.90545,0.71615 -0.92042,1.0765c-0.41559,-0.09286 -0.80384,0.08384 -0.80384,0.08384z" fill="url(#color-18)" stroke="#000000" stroke-width="0"/><path d="M403.2062,237.8968c0,0 0.39127,-0.17527 0.80687,-0.08241c0.01497,-0.36035 0.16787,-0.91047 0.92161,-1.07587c1.15076,-0.25252 1.40909,0.90203 1.40909,0.90203l0.02833,1.27664c-0.93493,1.96029 -1.66468,3.7462 -1.47202,5.95852c2.38734,2.65719 5.09442,6.566 2.40305,10.20611c-0.35076,0.47441 -1.04014,0.57839 -1.58744,0.79875c-1.953,0.78635 -6.28434,2.0611 -8.31816,1.25575c-0.70592,-0.27953 -0.79892,-1.30006 -1.14062,-1.97807c-0.07321,-0.14527 -0.052,0.35831 -0.18538,0.45142c-0.46501,0.32461 -2.63231,0.95539 -2.95525,0.93414c-2.79158,-0.18367 -3.50259,-2.36268 -3.38595,-4.60621c0.69099,-0.48624 1.61509,-0.74538 2.07763,-1.45247c1.8565,-2.83798 -3.87001,-3.84624 -1.86395,-7.07941c1.57735,-2.54223 3.51873,-1.29683 5.89464,-2.08389c2.45143,-0.81209 5.01114,-2.34721 7.36758,-3.42499z" data-paper-data="{&quot;noHover&quot;:false,&quot;origItem&quot;:[&quot;Path&quot;,{&quot;applyMatrix&quot;:true,&quot;segments&quot;:[[[288.11045,240.56422],[0,0],[-2.1436,1.72142]],[[281.46763,245.98739],[2.3104,-1.47283],[-2.23923,1.42745]],[[275.95898,249.63464],[0.96138,-3.02518],[-1.22267,3.84739]],[[279.70547,256.39503],[1.1716,-3.40199],[-0.2919,0.8476]],[[277.94496,258.42808],[0.58432,-0.67985],[0.46346,2.33808]],[[282.60467,262.27197],[-2.91924,0.53704],[0.33771,-0.06213]],[[285.39133,260.54031],[-0.3939,0.45483],[0.11299,-0.13046]],[[285.46455,260.02775],[-0.11308,-0.13039],[0.5278,0.60856]],[[287.1439,261.76558],[-0.79882,-0.10396],[2.30146,0.2995]],[[295.33882,258.32762],[-1.8044,1.31674],[0.50566,-0.369]],[[296.75937,257.09933],[-0.23743,0.5792],[1.82178,-4.44418]],[[291.63347,247.27995],[3.14668,2.1124],[-0.77349,-2.22553]],[[291.61706,240.78545],[-0.4519,2.25952],[0,0]],[291.25937,239.48129],[[289.58232,238.92227],[1.11803,-0.55901],[-0.73229,0.36615]],[[288.91551,240.26894],[-0.07832,-0.37456],[-0.45163,0.01256]],[288.11046,240.56422]],&quot;closed&quot;:true,&quot;fillColor&quot;:[0,0,0,1]}]}" fill="#000000" stroke="none" stroke-width="0.5"/></g><g fill="#000000" stroke="none" stroke-width="0" stroke-linecap="butt"><path d="M384.79484,309.58428v-5.59866h19.59531v5.59866z"/><path d="M383.39517,318.1095v-9.67042h27.22985l6.10763,9.67042z"/><path d="M381.18965,322.68698v-6.05674h39.5469v6.05673z"/><path d="M414.2896,322.66482v-6.05674h10.86649v6.05673z"/><path d="M410.59958,322.66482v-6.05674h10.86649v6.05673z"/><path d="M405.89162,322.66482v-6.05674h10.86649v6.05673z"/></g><g fill="#000000" stroke="none" stroke-linecap="butt"><path d="M325.53565,304.05616c-1.43376,-0.40333 -1.03043,-1.83709 -1.03043,-1.83709l0.22214,-0.62548c0.09137,-2.13072 0.82265,-4.26966 1.71615,-6.36026c-0.17033,-0.11743 -0.34914,-0.24318 -0.53644,-0.38053c-0.84857,-0.62232 -1.58144,-1.3887 -2.37217,-2.08306c0,0 -0.8502,-0.75169 -0.41016,-1.68494c-0.06904,-0.26095 -0.06303,-0.46694 -0.06303,-0.46694l0.02177,-0.7444c0.06786,-2.0498 0.0972,-3.58537 1.12287,-4.80901c-1.04905,-1.03286 -2.09811,-2.06575 -3.14716,-3.09861c0,0 -0.98136,-0.96623 -0.12764,-1.98411c-0.02419,-0.11393 -0.03531,-0.23256 -0.03174,-0.35415c0.00337,-0.11575 0.0199,-0.22802 0.04805,-0.33543c-0.08847,-0.46139 0.06389,-0.87751 0.06389,-0.87751l0.5398,-1.47426c0.57956,-1.57855 0.62832,-3.39978 1.5664,-4.79537c0.34793,-0.51761 0.9507,-1.01983 1.65399,-1.50087c-0.178,-0.22175 -0.34215,-0.45299 -0.48688,-0.69533c0.2402,-0.13572 0.42803,-0.35331 0.52556,-0.6149c0.21512,-0.03681 0.36514,-0.11181 0.36514,-0.11181c0.64876,-0.33592 1.24053,-0.51076 1.79872,-0.5769c0.103,0.16189 0.21914,0.31352 0.34476,0.45716c0.2685,-0.1559 0.5271,-0.3081 0.76819,-0.45628c1.23472,0.13856 2.37213,0.68169 3.7201,0.93992c-0.32135,0.23644 -0.65083,0.46791 -0.91061,0.72942c-0.35531,0.35772 -0.72598,0.67472 -1.10841,0.96686c2.1135,2.4065 3.2621,8.2931 1.85054,11.19416c-0.91105,1.8724 -1.91964,1.99555 -3.00904,2.76312c0.43695,0.4302 0.86487,0.8515 1.27797,1.25824c0,0 0.12129,0.11943 0.2415,0.31854c0.31167,0.20049 0.54286,0.51369 0.63754,0.88026c0.33044,0.28282 0.5347,0.70717 0.52098,1.17576c-0.00326,0.11153 -0.01868,0.21984 -0.04501,0.32369c0.82025,0.64114 0.38763,1.69959 0.38763,1.69959c-0.42789,1.04681 -0.98545,2.17 -1.5461,3.33007c1.22052,1.22198 2.05165,2.68955 1.89838,4.84901c-0.05389,0.75918 0.11926,1.62249 -0.2888,2.26496c-0.60568,0.95361 -1.95475,1.25905 -2.57558,2.20289l-0.75046,0.26186c-0.27032,0.2282 -0.62246,0.36149 -1.00392,0.35033c-0.18817,-0.0055 -0.36717,-0.04568 -0.53104,-0.11421c-0.0608,-0.02267 -0.12357,-0.04982 -0.18639,-0.08232c-0.27403,0.1596 -0.64282,0.23535 -1.13114,0.09798zM323.8774,279.71468c-0.00708,0.24216 -0.07158,0.46911 -0.18007,0.66821c0.86656,0.85318 1.78422,1.75671 2.70416,2.66245c0.15081,-0.18711 0.31461,-0.35927 0.51404,-0.49057c0.65415,-0.43065 1.71003,-0.52163 1.98672,-1.25431c0.72458,-1.91872 0.2105,-6.66813 -1.35143,-8.05983c-0.10459,-0.09319 -0.21275,-0.18708 -0.3235,-0.28194c-0.18079,0.112 -0.36234,0.22567 -0.54438,0.34229c-0.36592,0.2344 -0.92621,0.23132 -1.1579,0.59895c-0.75212,1.19322 -0.69232,2.7398 -1.17621,4.06469l-0.50613,1.38229c0.02625,0.1181 0.03841,0.24133 0.03471,0.36779zM326.00414,290.96189c0.57077,0.46921 1.17189,0.90814 1.76437,1.34602c0.37158,-0.80324 0.73324,-1.59475 1.05549,-2.37105c-0.2148,-0.19315 -0.37276,-0.44759 -0.44695,-0.73476c-0.13314,-0.11395 -0.24577,-0.25084 -0.33196,-0.40439c-0.14337,-0.09496 -0.22695,-0.17726 -0.22695,-0.17726l-0.39091,-0.38489c-0.37347,-0.36772 -0.74697,-0.73544 -1.12044,-1.10316c-0.39318,0.68559 -0.21542,1.60242 -0.2457,2.82815l-0.02177,0.74439c0,0 -0.00305,0.10432 -0.03517,0.25694zM329.02546,298.98759c-0.04543,-0.69135 -0.15472,-1.2082 -0.32865,-1.62279c-0.37429,0.9576 -0.6785,1.91644 -0.84734,2.85613c0.05053,-0.0504 0.10309,-0.09887 0.15803,-0.1451c0.32551,-0.27386 0.92904,-0.065 1.21963,-0.37566c0.16864,-0.18028 -0.18549,-0.46626 -0.20167,-0.71258z" data-paper-data="{&quot;index&quot;:null}" stroke-width="0.5"/><path d="M325.40385,304.38622l0.37582,-37.33008l5.21282,0.02366l-0.37585,37.33007z" stroke-width="0"/><path d="M331.8201,303.12229c-0.01475,2.18265 -1.79609,3.94007 -3.97874,3.92532c-2.18264,-0.01475 -3.94006,-1.79609 -3.92531,-3.97874c0.01475,-2.18265 1.79609,-3.94005 3.97874,-3.9253c2.18264,0.01476 3.94007,1.79608 3.92531,3.97872z" stroke-width="0"/><path d="M323.44005,298.38734l0.05078,-2.82064l9.21416,0.16589l-0.05078,2.82067z" stroke-width="0"/><path d="M323.55741,291.86847l0.05078,-2.82065l9.21417,0.16589l-0.05078,2.82065z" stroke-width="0"/><path d="M323.67478,285.34962l0.05078,-2.82065l9.21415,0.1659l-0.05078,2.82065z" stroke-width="0"/><path d="M323.79216,278.83077l0.05078,-2.82066l9.21415,0.16589l-0.05078,2.82066z" stroke-width="0"/></g><g stroke-linecap="butt"><path d="M352.17306,249.82862c-0.10454,8.74401 0.54005,15.84674 -24.04623,16.0148c-23.38503,0.15985 -23.77215,-6.90605 -23.66763,-15.65006c0.10453,-8.744 0.28689,-16.19594 24.04621,-16.01479c26.21905,0.19989 23.77219,6.90604 23.66765,15.65005z" fill="#525252" stroke="#000000" stroke-width="0"/><g stroke="none"><path d="M326.06259,268.30281c-1.43812,-0.38748 -1.05066,-1.8256 -1.05066,-1.8256l0.21523,-0.62789c0.06783,-2.1316 0.77546,-4.27848 1.64582,-6.37882c-0.17161,-0.11554 -0.35181,-0.23932 -0.54061,-0.37459c-0.85539,-0.6129 -1.59667,-1.37116 -2.39502,-2.05674c0,0 -0.85845,-0.74225 -0.42874,-1.6803c-0.07191,-0.26017 -0.06817,-0.46623 -0.06817,-0.46623l0.01353,-0.74459c0.04522,-2.05042 0.05761,-3.58623 1.06972,-4.82111c-1.06039,-1.02121 -2.12079,-2.04246 -3.18117,-3.06368c0,0 -0.99197,-0.95534 -0.14953,-1.98259c-0.02544,-0.11366 -0.03787,-0.23215 -0.03565,-0.35378c0.00209,-0.11579 0.01737,-0.22822 0.04435,-0.33593c-0.09355,-0.46038 0.0542,-0.87816 0.0542,-0.87816l0.5235,-1.48013c0.56209,-1.58485 0.59075,-3.40651 1.51336,-4.81238c0.3422,-0.52142 0.93938,-1.03026 1.63731,-1.51904c-0.18044,-0.21976 -0.34714,-0.44919 -0.49452,-0.68991c0.23869,-0.13835 0.42411,-0.35803 0.51875,-0.62065c0.21472,-0.03918 0.36388,-0.11585 0.36388,-0.11585c0.64501,-0.34306 1.23481,-0.52442 1.79224,-0.59671c0.10478,0.16074 0.22259,0.31108 0.34978,0.45333c0.26676,-0.15885 0.52367,-0.3139 0.76312,-0.46475c1.23618,0.12492 2.37951,0.65546 3.73024,0.8988c-0.31873,0.23998 -0.64562,0.47505 -0.90249,0.73942c-0.35133,0.36162 -0.71849,0.68271 -1.09766,0.97904c2.13995,2.38302 3.35348,8.25658 1.97404,11.17304c-0.89033,1.88235 -1.89749,2.01663 -2.97835,2.79617c0.44169,0.42534 0.87422,0.84191 1.29177,1.24405c0,0 0.1226,0.11808 0.24501,0.31585c0.31387,0.19704 0.54849,0.50766 0.64722,0.87316c0.33355,0.27916 0.54248,0.70123 0.53393,1.16993c-0.00204,0.11156 -0.01625,0.22004 -0.04142,0.32417c0.82728,0.63204 0.40638,1.6952 0.40638,1.6952c-0.4163,1.05149 -0.96143,2.18074 -1.50923,3.34694c1.23394,1.20843 2.08121,2.66675 1.9518,4.82775c-0.04551,0.75974 0.13717,1.62107 -0.26377,2.268c-0.59512,0.96024 -1.94074,1.28055 -2.5511,2.2312l-0.74752,0.27014c-0.26779,0.23117 -0.61843,0.36833 -0.99999,0.36138c-0.18822,-0.00343 -0.36765,-0.04161 -0.53225,-0.10835c-0.06105,-0.022 -0.12411,-0.04846 -0.18729,-0.08026c-0.27226,0.16262 -0.64018,0.24243 -1.12998,0.11046zM324.13569,243.98114c-0.00441,0.24222 -0.06638,0.46988 -0.17267,0.67016c0.87592,0.84357 1.80351,1.73692 2.73338,2.63243c0.14873,-0.18876 0.31063,-0.36273 0.50859,-0.49622c0.64935,-0.43784 1.70417,-0.54046 1.97276,-1.27617c0.70335,-1.9266 0.13687,-6.67006 -1.44034,-8.04442c-0.10561,-0.09203 -0.2148,-0.18473 -0.3266,-0.27835c-0.17953,0.11399 -0.35983,0.22967 -0.54057,0.34827c-0.3633,0.23842 -0.9236,0.24154 -1.15122,0.6117c-0.73891,1.20144 -0.66202,2.74728 -1.13125,4.07742l-0.49084,1.3878c0.02755,0.1178 0.04108,0.24089 0.03877,0.36738zM326.38649,255.20418c0.57592,0.46287 1.18185,0.89514 1.77911,1.32645c0.36269,-0.80729 0.71559,-1.60275 1.02924,-2.38255c-0.21692,-0.19077 -0.37768,-0.44345 -0.45504,-0.7298c-0.13438,-0.11247 -0.24852,-0.24811 -0.3364,-0.4007c-0.1444,-0.09337 -0.22889,-0.17474 -0.22889,-0.17474l-0.39514,-0.38054c-0.37751,-0.36359 -0.75504,-0.72715 -1.13255,-1.09073c-0.3856,0.68989 -0.19772,1.6047 -0.21446,2.83069l-0.01355,0.74458c0,0 -0.0019,0.10435 -0.03233,0.25732zM329.49622,263.19601c-0.05306,-0.69081 -0.16805,-1.20642 -0.34655,-1.61907c-0.3637,0.96167 -0.6573,1.92381 -0.81575,2.86532c0.04996,-0.05095 0.102,-0.10001 0.15641,-0.14685c0.32247,-0.27744 0.92827,-0.07525 1.21541,-0.3891c0.16663,-0.18212 -0.19063,-0.46417 -0.20952,-0.7103z" data-paper-data="{&quot;index&quot;:null}" fill="#000000" stroke-width="0.5"/><path d="M325.93445,268.63432l-0.03636,-37.33195l5.21276,-0.0339l0.03632,37.33195z" fill="url(#color-19)" stroke-width="0"/><path d="M332.33635,267.29961c0.00936,2.18268 -1.75247,3.95965 -3.93516,3.96901c-2.18267,0.00935 -3.95965,-1.75247 -3.96899,-3.93515c-0.00936,-2.18268 1.75248,-3.95963 3.93516,-3.96899c2.18267,-0.00935 3.95965,1.75247 3.96899,3.93514z" fill="#000000" stroke-width="0"/><path d="M323.90452,262.65748l0.01963,-2.82104l9.21542,0.06416l-0.01963,2.82104z" fill="url(#color-20)" stroke-width="0"/><path d="M323.94992,256.13771l0.01963,-2.82104l9.21543,0.06415l-0.01963,2.82104z" fill="url(#color-21)" stroke-width="0"/><path d="M323.99531,249.61796l0.01963,-2.82104l9.21542,0.06416l-0.01963,2.82104z" fill="url(#color-22)" stroke-width="0"/><path d="M324.04069,243.09821l0.01963,-2.82105l9.21542,0.06415l-0.01963,2.82105z" fill="url(#color-23)" stroke-width="0"/></g><path d="M352.17512,250.01712c-0.10454,8.74401 0.54005,15.84674 -24.04623,16.0148c-23.38503,0.15985 -23.77216,-6.90605 -23.66764,-15.65005c0.10453,-8.744 0.28689,-16.19595 24.04621,-16.01479c26.21905,0.19989 23.77219,6.90604 23.66765,15.65005z" fill="url(#color-24)" stroke="#000000" stroke-width="0"/></g><g><g stroke="none" stroke-width="0" stroke-linecap="butt"><path d="M318.09733,310.5268v-5.59866h19.59531v5.59866z" fill="url(#color-25)"/><path d="M305.75483,319.05202l6.10763,-9.67042h27.22985v9.67042z" fill="url(#color-26)"/><path d="M301.75092,323.62951v-6.05673h39.5469v6.05674z" fill="url(#color-27)"/><path d="M297.3314,323.60731v-6.05673h10.86649v6.05674z" fill="url(#color-28)"/><path d="M301.02141,323.60731v-6.05673h10.86649v6.05674z" fill="url(#color-29)"/><path d="M305.72938,323.60731v-6.05673h10.86649v6.05674z" fill="url(#color-30)"/></g><path d="M272.55848,324.67024c0,0 31.10511,-22.94971 40.1673,-22.94971c10.71944,0 25.96991,0.03101 32.56387,0.04563c2.03367,0.00451 3.24395,1.10739 3.24395,2.21804c0,3.39752 0,20.68604 0,20.68604z" data-paper-data="{&quot;index&quot;:null}" fill="url(#color-31)" stroke="#000000" stroke-width="0" stroke-linecap="butt"/><path d="M288.69018,323.96334l17.17246,-11.96868" data-paper-data="{&quot;index&quot;:null}" fill="none" stroke="#000000" stroke-width="1.5" stroke-linecap="round"/><path d="M319.91284,312.8469l-14.0502,10.40755" data-paper-data="{&quot;index&quot;:null}" fill="none" stroke="#000000" stroke-width="1.5" stroke-linecap="round"/></g><g fill="#000000" stroke="none" stroke-linecap="butt"><path d="M294.39778,171.8442c0.39539,0.0706 0.63205,0.25181 0.77226,0.46014c0.05598,-0.00148 0.11009,0.00082 0.16124,0.00566c0.14043,0.00771 0.28183,0.04084 0.41784,0.10184c0.27568,0.12369 0.48063,0.34016 0.59452,0.59606l0.44444,0.44558c0.11673,0.88681 0.97267,1.56998 1.07525,2.45855c0.0691,0.59863 -0.35217,1.1541 -0.57575,1.7137c-0.63593,1.59174 -1.7346,2.35078 -3.02602,2.80042c-0.00077,1.02012 0.009,2.01293 -0.04732,2.90656c0,0 -0.05694,0.90354 -0.8627,1.07738c-0.01708,0.08307 -0.04345,0.16559 -0.07961,0.24619c-0.15192,0.33866 -0.44392,0.57058 -0.77698,0.65809c-0.19397,0.22855 -0.46679,0.37198 -0.75808,0.40729c-0.15437,0.10041 -0.28202,0.14367 -0.28202,0.14367c-0.43473,0.14729 -0.88504,0.29986 -1.34487,0.45567c0.51149,0.9229 1.1877,1.35869 1.19084,3.00736c0.00486,2.55441 -2.8449,6.35296 -5.18141,7.33859c0.17171,0.34015 0.32647,0.69393 0.45626,1.07146c0.26428,0.76879 0.99442,1.55796 0.73046,2.32684c-0.33354,0.97157 -1.47775,1.42856 -2.25163,2.10413c-0.96722,0.84434 -1.99392,1.61744 -3.00725,2.40655c0.09199,0.95089 0.1999,1.89075 0.24957,2.78241c0,0 0.03905,0.70108 -0.48408,1.0514c0.01474,0.19014 -0.01651,0.38657 -0.10008,0.57281c-0.01542,0.03435 -0.03227,0.06761 -0.05047,0.09973c-0.01699,0.0506 -0.02998,0.0796 -0.02998,0.0796l-0.62238,1.31024c-0.40348,0.34351 -0.80695,0.68703 -1.21044,1.03054c0,0 -0.91289,0.7465 -1.65941,-0.1664c-0.32292,-0.39492 -0.33533,-0.75866 -0.24542,-1.04433c-0.68367,-0.62991 -1.50193,-1.17988 -1.73915,-2.0469c-0.66976,-2.44763 1.40456,-4.29773 3.39475,-5.07348c-0.16743,-2.48984 -0.04677,-5.08156 1.42777,-6.79426c0.37235,-0.43249 0.83883,-0.74555 1.34639,-0.98664c-0.33519,-0.58549 -0.59143,-1.15135 -0.66076,-1.64028c-0.18691,-1.31824 0.40677,-2.63288 0.53846,-3.95777l0.12404,-1.23685c0,0 0.03502,-0.34911 0.25727,-0.64737c0.017,-0.08627 0.04397,-0.17196 0.08151,-0.25561c0.03942,-0.08788 0.08827,-0.16859 0.14484,-0.24143c-0.25714,-1.01995 0.77561,-1.36985 0.77561,-1.36985c1.10397,-0.37405 2.20796,-0.74809 3.31194,-1.12215c-0.30869,-1.2259 0.20027,-2.3303 0.85924,-3.81446l0.24134,-0.53799c0,0 0.06678,-0.14885 0.20604,-0.31101c0.00845,-0.81688 0.87369,-1.05919 0.87369,-1.05919c0.80308,-0.22195 1.58978,-0.51521 2.40923,-0.66587c0.18088,-0.03325 0.35167,-0.06117 0.51359,-0.08607c0.08467,-1.79811 0.30161,-3.57468 0.97172,-5.12459l0.05753,-0.52239c0,0 0.20731,-1.1609 1.3682,-0.95358zM295.13567,176.66037c0.09652,-0.16997 0.44758,-0.25154 0.38961,-0.43822c-0.0999,-0.32165 -0.60206,-0.38107 -0.73952,-0.68855c-0.0232,-0.0519 -0.04392,-0.10457 -0.06254,-0.15793c-0.20393,0.72789 -0.318,1.51613 -0.38171,2.32769c0.26701,-0.23542 0.52323,-0.566 0.79415,-1.04301zM290.21328,181.33707c-0.02978,0.11982 -0.0636,0.19522 -0.0636,0.19522l-0.24134,0.53796c-0.40139,0.88391 -0.84443,1.47594 -0.8008,2.10018c0.39304,-0.13317 0.78607,-0.26634 1.17911,-0.39952l0.41137,-0.13939c0,0 0.08798,-0.02979 0.22289,-0.04798c0.11438,-0.07968 0.24189,-0.13838 0.37609,-0.17364c0.15197,-0.17905 0.35233,-0.30586 0.57205,-0.36937c0.03822,-0.6644 0.05363,-1.35326 0.066,-2.05386c-0.57331,0.10758 -1.15313,0.21298 -1.72177,0.35039zM284.81673,188.61816c-0.041,0.09139 -0.0922,0.17501 -0.15165,0.25012l-0.11631,1.15971c-0.11233,1.1111 -0.68863,2.19259 -0.56439,3.30242c0.03828,0.34194 0.43859,0.53307 0.61847,0.82638c0.08949,0.14591 0.17965,0.28957 0.26983,0.43178c0.11165,-0.02938 0.22113,-0.05896 0.32783,-0.08929c1.5933,-0.45278 3.59845,-3.65991 3.74421,-5.27726c0.05565,-0.61759 -0.66541,-1.04678 -0.98296,-1.57939c-0.09681,-0.16238 -0.15413,-0.34158 -0.19703,-0.52696c-0.9681,0.32802 -1.93382,0.6552 -2.84574,0.96418c0.00861,0.17931 -0.02373,0.3633 -0.10226,0.53831zM283.58361,200.32573c0.45308,-0.31895 1.19926,-0.33658 1.43572,-0.83768c0.15261,-0.32341 -0.46559,-0.55055 -0.63104,-0.86758c-0.19054,-0.36516 -0.47097,-0.79326 -0.78074,-1.25213c-0.3387,0.1437 -0.65368,0.34057 -0.91857,0.63221c-0.18653,0.20536 -0.59146,1.70494 -0.6419,1.98847c-0.09424,0.52983 -0.13965,1.07737 -0.15202,1.63469c0.55019,-0.44956 1.10782,-0.88917 1.68855,-1.29798zM278.37734,207.45413c0.2012,0.44275 0.57886,0.76001 0.96884,1.0715l0.13412,-0.32909c0,0 0.01302,-0.029 0.03951,-0.07533c0.01189,-0.03495 0.02552,-0.06964 0.04094,-0.10399c0.08817,-0.19654 0.2235,-0.35712 0.38668,-0.47441c-0.0044,-0.0338 -0.00549,-0.05329 -0.00549,-0.05329c-0.03136,-0.56298 -0.09348,-1.18399 -0.16177,-1.84047c-0.80621,0.42591 -1.71249,1.12364 -1.40282,1.80508z" stroke-width="0.5"/><g stroke-width="0"><path d="M276.39806,210.90674l18.02023,-40.16897l3.76585,1.68941l-18.02024,40.16897z"/><path d="M284.37259,178.72523l0.96537,-2.15192l14.52538,6.51624l-0.96538,2.15189z"/><path d="M290.83481,202.73494l-0.96537,2.15192l-14.52538,-6.51624l0.96537,-2.1519z" data-paper-data="{&quot;index&quot;:null}"/><path d="M273.45689,201.61689l4.0241,-15.21254l8.68659,-13.12092l2.86921,1.28716l-8.76703,13.30024l-3.94368,15.03322z"/><path d="M286.2879,207.58844l8.60613,-12.94158l4.10457,-15.39187l2.86922,1.28716l-4.02412,15.21256l-8.68659,13.12092z" data-paper-data="{&quot;index&quot;:null}"/><path d="M281.4469,212.04729c-0.70735,1.57678 -2.55902,2.28158 -4.13581,1.57423c-1.57678,-0.70735 -2.28157,-2.55901 -1.57421,-4.1358c0.70735,-1.57678 2.55901,-2.28158 4.13581,-1.57423c1.57678,0.70735 2.28158,2.55902 1.57423,4.13581z"/></g></g><g stroke-linecap="butt"><path d="M324.95318,166.51697c-6.75553,8.73435 -11.78505,16.19979 -27.34865,3.87957c-14.80321,-11.7183 -9.64022,-19.01597 -2.88468,-27.75032c6.75553,-8.73435 12.57139,-16.13068 27.34865,-3.87957c16.30712,13.51943 9.64024,19.01597 2.88468,27.75032z" fill="#525252" stroke="#000000" stroke-width="0"/><path d="M320.82683,136.43927c0.37051,0.15503 0.56203,0.38345 0.6535,0.6173c0.05495,0.01075 0.10726,0.02479 0.15613,0.04064c0.13537,0.03812 0.26618,0.10125 0.38562,0.19041c0.24212,0.18076 0.395,0.43669 0.45041,0.71124l0.33671,0.53169c-0.07924,0.89096 0.60736,1.74416 0.51393,2.63372c-0.06296,0.59931 -0.59512,1.04968 -0.93521,1.54715c-0.96736,1.41501 -2.20499,1.91652 -3.56333,2.07407c-0.22296,0.99546 -0.42967,1.96656 -0.67927,2.82646c0,0 -0.25237,0.86945 -1.07666,0.86361c-0.03477,0.07736 -0.07847,0.15215 -0.13133,0.22293c-0.22204,0.29744 -0.55754,0.46019 -0.90166,0.47305c-0.23908,0.1808 -0.5366,0.26136 -0.8286,0.23239c-0.17254,0.06437 -0.30654,0.07879 -0.30654,0.07879c-0.45637,0.04907 -0.9291,0.09989 -1.41182,0.1518c0.29819,1.01215 0.86324,1.58476 0.5072,3.19453c-0.55165,2.49413 -4.16037,5.58077 -6.65546,6.03381c0.0935,0.36937 0.16747,0.74839 0.21191,1.14512c0.09049,0.80789 0.6312,1.73716 0.2061,2.43008c-0.53716,0.8756 -1.75344,1.07238 -2.65587,1.56316c-1.12791,0.6134 -2.29835,1.1443 -3.45923,1.69375c-0.11733,0.9481 -0.21672,1.88889 -0.36248,2.76996c0,0 -0.11459,0.69274 -0.70147,0.92072c-0.02702,0.18878 -0.10032,0.37369 -0.22244,0.53727c-0.02254,0.03017 -0.04622,0.05895 -0.07097,0.08635c-0.02761,0.04568 -0.0466,0.07117 -0.0466,0.07117l-0.89281,1.14322c-0.46861,0.24737 -0.93723,0.49477 -1.40586,0.74215c0,0 -1.05356,0.52973 -1.58332,-0.52385c-0.22916,-0.45577 -0.16202,-0.81349 -0.01207,-1.07271c-0.53005,-0.7637 -1.20886,-1.47869 -1.25156,-2.37657c-0.12055,-2.53474 2.30693,-3.88861 4.41833,-4.21225c0.37892,-2.46652 1.06119,-4.96973 2.87338,-6.32014c0.45761,-0.341 0.98108,-0.54495 1.52897,-0.66969c-0.19962,-0.64445 -0.32645,-1.25254 -0.28762,-1.74482c0.1047,-1.3273 0.97049,-2.48107 1.38759,-3.74544l0.39047,-1.18014c0,0 0.11022,-0.3331 0.3921,-0.5758c0.03539,-0.0805 0.08037,-0.15827 0.13522,-0.23173c0.05762,-0.07717 0.12289,-0.14532 0.19394,-0.20408c-0.02881,-1.05148 1.05536,-1.16803 1.05536,-1.16803c1.15894,-0.12461 2.3179,-0.24922 3.47684,-0.37382c-0.03426,-1.26371 0.70304,-2.23073 1.66945,-3.53571l0.35273,-0.4725c0,0 0.0976,-0.13074 0.26884,-0.25867c0.18618,-0.79542 1.08343,-0.84344 1.08343,-0.84344c0.83213,-0.04171 1.66383,-0.15654 2.49641,-0.12513c0.18378,0.00695 0.35656,0.01691 0.52002,0.02786c0.4743,-1.73649 1.07299,-3.42317 2.06461,-4.7899l0.16993,-0.49732c0,0 0.4552,-1.08787 1.54307,-0.63267zM320.49798,141.30052c0.13123,-0.14485 0.49162,-0.148 0.47572,-0.34283c-0.02744,-0.3357 -0.5046,-0.50305 -0.57178,-0.83311c-0.01135,-0.05572 -0.02009,-0.11164 -0.02664,-0.16777c-0.35759,0.66599 -0.6406,1.41047 -0.87955,2.18867c0.31186,-0.17162 0.63395,-0.43844 1.00228,-0.84499zM314.67511,144.79278c-0.05518,0.11045 -0.1046,0.17668 -0.1046,0.17668l-0.35272,0.4725c-0.58427,0.77526 -1.14563,1.25657 -1.23903,1.87533c0.41261,-0.04436 0.82521,-0.08873 1.23782,-0.13308l0.43186,-0.04644c0,0 0.09235,-0.00992 0.22799,0.00172c0.12899,-0.05285 0.26623,-0.08238 0.40487,-0.08755c0.18732,-0.14164 0.4105,-0.22177 0.63878,-0.2359c0.18202,-0.64013 0.34709,-1.30908 0.51177,-1.99017c-0.58296,-0.01988 -1.17183,-0.04329 -1.75675,-0.03305zM307.82221,150.72358c-0.05992,0.08026 -0.1281,0.15072 -0.20248,0.21109l-0.36611,1.10652c-0.35166,1.05996 -1.14966,1.98996 -1.27016,3.10019c-0.03713,0.34205 0.31195,0.61582 0.42363,0.94124c0.05555,0.1619 0.11227,0.32175 0.16931,0.48018c0.11537,-0.00435 0.22866,-0.00938 0.33941,-0.01573c1.65366,-0.09487 4.30924,-2.78825 4.80378,-4.335c0.18883,-0.59063 -0.42143,-1.16658 -0.61534,-1.75557c-0.05912,-0.17957 -0.07602,-0.36695 -0.07752,-0.55722c-1.01629,0.10926 -2.0301,0.21827 -2.98742,0.32119c-0.03065,0.17689 -0.10229,0.34942 -0.21705,0.50311zM304.06862,161.88148c0.51168,-0.2126 1.24377,-0.06729 1.58369,-0.50484c0.21938,-0.28239 -0.33451,-0.63875 -0.42692,-0.9842c-0.10643,-0.3979 -0.28688,-0.87679 -0.48925,-1.39213c-0.36186,0.06648 -0.71217,0.19001 -1.03423,0.41694c-0.22679,0.1598 -0.94861,1.53517 -1.05959,1.80092c-0.20737,0.49659 -0.37098,1.02109 -0.50443,1.56234c0.6349,-0.31891 1.27489,-0.62652 1.93072,-0.89903zM297.43467,167.70472c0.09992,0.47595 0.39941,0.86786 0.71218,1.25682l0.20259,-0.29198c0,0 0.01901,-0.02547 0.05496,-0.06492c0.01922,-0.03151 0.04009,-0.06242 0.06261,-0.09258c0.12887,-0.17261 0.29592,-0.29986 0.48073,-0.37879c0.00306,-0.03395 0.00626,-0.0532 0.00626,-0.0532c0.09202,-0.55629 0.16665,-1.17592 0.24299,-1.83152c-0.87961,0.24007 -1.91612,0.72365 -1.76231,1.45618z" fill="#000000" stroke="none" stroke-width="0.5"/><g stroke="none" stroke-width="0"><path d="M294.7509,170.64329l26.33696,-35.27944l3.30745,2.46909l-26.33695,35.27945z" fill="#000000"/><path d="M309.54356,140.97144l1.41092,-1.88998l12.7573,9.52364l-1.41091,1.88997z" fill="url(#color-32)"/><path d="M310.62095,165.81225l-1.41091,1.88998l-12.7573,-9.52364l1.41092,-1.88998z" data-paper-data="{&quot;index&quot;:null}" fill="url(#color-33)"/><path d="M293.9038,160.93588l7.24101,-13.97078l11.33596,-10.91382l2.51997,1.88121l-11.45352,11.07133l-7.12344,13.81329z" fill="url(#color-34)"/><path d="M305.12606,169.55883l11.21836,-10.75632l7.35859,-14.12828l2.51997,1.88121l-7.24102,13.97079l-11.33596,10.91382z" data-paper-data="{&quot;index&quot;:null}" fill="url(#color-35)"/><path d="M299.43008,172.85617c-1.03382,1.38485 -2.99454,1.66942 -4.37939,0.63559c-1.38485,-1.03382 -1.66941,-2.99453 -0.63558,-4.37939c1.03382,-1.38485 2.99453,-1.66941 4.37939,-0.63559c1.38485,1.03382 1.66942,2.99454 0.63559,4.37939z" fill="#000000"/></g><path d="M324.7571,166.76244c-6.75552,8.73434 -11.78506,16.19979 -27.34866,3.87956c-14.80322,-11.71831 -9.64022,-19.01597 -2.88468,-27.75031c6.75552,-8.73434 12.57139,-16.13068 27.34865,-3.87957c16.30712,13.51943 9.64024,19.01597 2.88468,27.75032zM304.23989,141.64569l-0.88418,-0.28797c-1.89589,-0.3262 -2.64075,0.18638 -4.31529,1.02186c-0.54411,0.29032 -1.18931,0.44189 -1.63234,0.87092c-1.83013,1.77236 -0.35644,3.96335 -1.31404,5.66554c-0.724,1.28695 -2.87079,1.10806 -3.54478,2.96522c-0.39921,1.09997 0.14211,2.98504 0.92408,3.82203c1.33967,1.43394 2.79454,0.9812 4.35606,1.17839c0.62849,0.07936 0.64532,1.09095 0.99555,1.61879c0.84693,1.27645 2.01677,2.91666 3.53862,3.41343c2.1323,0.69605 2.63742,-0.31919 4.54629,-0.27178c3.16513,-0.66405 7.41577,-6.91291 5.53848,-10.21795c-0.9587,-1.68782 -3.11023,-1.85541 -4.03197,-3.44068c-1.41376,-2.43143 -1.11256,-4.82811 -3.67259,-6.01945c-0.23097,-0.22715 -0.50388,-0.31838 -0.50388,-0.31838z" fill="url(#color-36)" stroke="#000000" stroke-width="0"/><path d="M304.24826,141.59931c0,0 0.27538,0.09174 0.50635,0.31889c2.56002,1.19134 2.28714,3.60765 3.7009,6.03907c0.92175,1.58527 3.08116,1.77622 4.03986,3.46404c1.87729,3.30504 -2.40022,9.59936 -5.56535,10.26341c-1.90886,-0.04743 -2.43415,0.97236 -4.56645,0.27631c-1.52184,-0.49678 -2.71432,-2.14278 -3.56126,-3.41923c-0.35023,-0.52784 -0.37663,-1.54637 -1.00513,-1.62572c-1.56152,-0.19718 -3.02774,0.23911 -4.36742,-1.19484c-0.78196,-0.837 -1.32684,-2.74077 -0.92763,-3.84074c0.67399,-1.85717 2.82572,-1.69852 3.54972,-2.98547c0.9576,-1.7022 -0.49706,-3.91322 1.33308,-5.68558c0.44302,-0.42903 1.09604,-0.58412 1.64015,-0.87443c1.67454,-0.83548 2.43909,-1.35043 4.33498,-1.02423l0.88819,0.28852z" data-paper-data="{&quot;noHover&quot;:false,&quot;origItem&quot;:[&quot;Path&quot;,{&quot;applyMatrix&quot;:true,&quot;segments&quot;:[[176.60411,134.48781],[[175.79368,133.92516],[0,0],[-1.82673,-0.9105]],[[171.09694,133.64543],[1.95663,-0.33745],[-0.64152,0.12879]],[[169.17237,134.03178],[0.58118,-0.30061],[-2.40087,1.24186]],[[166.10679,139.38702],[1.49289,-1.43707],[-1.1287,1.0865]],[[161.59938,141.31721],[1.25205,-1.68115],[-0.74158,0.99572]],[[161.37095,145.4829],[-0.53889,-1.08928],[0.92323,1.86616]],[[165.43709,148.01069],[-1.52638,-0.67728],[0.61435,0.27259]],[[165.95421,149.95956],[-0.19464,-0.64329],[0.47068,1.55564]],[[168.50713,154.50864],[-1.39457,-0.96957],[1.95397,1.35851]],[[173.20948,155.62107],[-1.92505,-0.63121],[3.41882,0.292]],[[181.95782,146.93054],[0.898,3.93153],[-0.45859,-2.00776]],[[178.91194,142.20309],[0.45237,1.89227],[-0.69384,-2.9023]],[[177.01885,134.9652],[2.23729,1.99239],[-0.16531,-0.30135]],[176.60411,134.4878]],&quot;closed&quot;:true,&quot;fillColor&quot;:[0,0,0,1]}]}" fill="#000000" stroke="none" stroke-width="0.5"/></g><path d="M266.40444,222.26697c-0.28288,-4.77243 4.58094,-8.94317 10.8637,-9.31558c4.25881,-0.25245 8.64595,0.21442 10.75172,2.73066c1.00073,1.1958 13.15931,9.41192 12.61075,11.48392c-0.33655,1.72604 -10.76411,-2.31453 -10.24304,1.09874c0.95971,6.28638 -1.83269,15.70351 -2.88547,15.7495c-2.81549,0.42264 -4.64226,-14.1752 -5.5256,-14.24823c-1.08241,-0.08948 0.78594,11.44092 -3.41684,15.67327c-5.17041,-6.39818 -2.34488,-14.82685 -3.20778,-15.03107c-1.07931,-0.25544 1.11482,3.88079 -5.70599,14.68476c-4.92252,-9.61694 -3.059,-19.74811 -3.24142,-22.82597z" fill="url(#color-37)" stroke="#000000" stroke-width="0" stroke-linecap="butt"/><g stroke-linecap="butt"><path d="M359.72141,240.72676c-29.8241,0 -61.12235,-32.99579 -54.0013,-60.33362c4.78408,-18.36612 10.76547,-39.92319 20.96375,-55.27534c0.26707,0.30064 0.64823,0.39593 0.64823,0.39593c2.71548,0.6612 3.68308,-0.06653 5.99927,-0.9678c1.75903,-0.68447 3.5892,0.43563 5.44928,-0.35632c0.96078,-0.40906 1.56721,-1.38447 2.40721,-2.00482c0.66384,-0.49025 1.59305,-0.4648 2.33085,-0.83449c2.91916,-1.46271 5.3695,-3.9769 7.49397,-6.26808c0.17168,-3.32014 2.30292,-5.86253 2.78898,-9.18754c0.0229,-0.15665 0.04407,-0.31269 0.06371,-0.46819c1.73087,-0.27864 3.52478,-0.43092 5.3848,-0.44731c31.33823,-0.27622 46.19035,39.08215 53.5457,71.22323c-1.93995,0.46113 -4.07689,0.53712 -5.28036,2.3724c-0.56534,0.86214 -0.26967,2.22082 -1.03098,2.91602c-0.20028,0.18289 -0.52379,-0.15781 -0.7944,-0.17596c-1.09419,-0.07338 -3.71379,0.14605 -4.69221,0.56094c-1.9886,0.84323 -3.81642,3.97236 -4.79269,5.65296c-0.20721,0.3567 -0.00772,0.91117 -0.30214,1.2001c-0.32049,0.31451 -0.95143,0.07994 -1.29584,0.36806c-0.91248,0.76337 -1.84989,3.0026 -2.31655,3.96443c-0.08387,4.4822 -0.62981,7.40497 1.50207,11.62732c0.80714,1.59859 0.73118,3.13957 2.08753,4.53337c1.45381,1.49396 3.32442,2.34214 4.90225,3.62229c1.87494,1.52119 2.53228,3.65604 3.97968,5.39707c-10.57039,13.71309 -28.04498,22.48537 -45.04082,22.48537z" fill="#000000" stroke="#000000" stroke-width="0"/><g stroke="none"><path d="M360.40227,84.1817c0.21891,-0.2053 1.01202,-0.82751 1.80515,0.05914c0.93213,1.04205 0,2.08413 0,2.08413l-1.26168,0.80005c-0.38572,-0.00369 -0.77144,-0.00735 -1.15714,-0.01105c-1.21565,0.10275 -1.48379,2.12495 -1.47929,3.32685c0.00815,2.1797 0.55922,4.30541 1.7285,6.13837c1.26244,1.979 2.25771,1.97406 2.54929,4.76914c0.13002,1.24637 -0.1471,2.50972 -0.34772,3.74432c-0.58842,3.62098 -0.89567,6.95773 -1.81585,10.49421c-0.27102,1.04158 -0.19161,2.20675 -0.62151,3.17922c-0.92393,2.09004 -3.31416,3.93428 -4.5094,5.9745c0.02661,1.06671 0.03644,3.73209 0.32216,4.67342c1.74357,5.74413 8.18353,11.68563 6.62225,18.42883c-0.26022,1.12388 -0.65874,2.23395 -1.24353,3.1933c-0.78706,1.29117 -2.25485,1.88035 -3.1915,3.04002c-0.88015,1.08973 -1.96246,2.76523 -2.13619,4.30683c-0.26315,2.33523 1.17114,4.78131 3.30259,4.63734c0,0 1.31821,0.00001 1.31821,1.4737c0,1.47369 -1.31821,1.4737 -1.31821,1.4737c-3.66528,-0.13633 -6.3639,-3.62838 -5.92494,-7.88907c0.23146,-2.24641 1.5071,-4.34603 2.79895,-5.9743c1.47673,-1.86128 3.27632,-2.31332 3.81201,-4.85413c0.65153,-3.09033 -1.49044,-6.51089 -2.67873,-9.04522c-1.14582,-2.44374 -3.09141,-5.26011 -3.86084,-7.85482c-0.55905,-1.88526 -0.38394,-4.48091 -0.3573,-6.41912c0.53926,-0.99665 0.99655,-2.05485 1.61778,-2.98996c0.88355,-1.32997 2.47145,-2.06187 3.10034,-3.56194c0.33428,-0.79733 0.20082,-1.75296 0.41259,-2.6011c0.65908,-2.6397 1.0964,-4.84629 1.42081,-7.58089c0.20567,-1.73366 1.28872,-5.07122 0.4744,-6.85037c-0.39871,-0.8711 -1.37535,-1.2483 -1.88448,-2.04423c-0.81611,-1.27583 -1.9509,-3.86127 -2.20236,-5.37252c-0.38442,-2.31029 -0.04103,-6.44447 1.78782,-8.05986c0.54235,-0.47905 1.32133,-0.45436 1.982,-0.68154c0.31194,-0.00233 0.62387,-0.00465 0.9358,-0.00697z" fill="#000000" stroke-width="0.5"/><path d="M356.75132,166.47404v-80.97986h4.90672v80.97986z" fill="#000000" stroke-width="0"/><path d="M374.58631,225.29094c-0.67536,-1.40191 -2.876,-1.38623 -3.99044,-2.59342c-0.22582,-0.24461 -1.89654,-3.67036 -1.94845,-3.95144c-0.08573,-0.46439 0.47174,-0.94332 0.30228,-1.3841c-0.23298,-0.60595 -0.99762,-0.8532 -1.36757,-1.38668c-0.44728,-0.64498 -0.70282,-1.40372 -1.05423,-2.10556c-0.91811,-1.09651 -2.50288,-1.7319 -2.9906,-3.0763c-0.88856,-2.44932 0.02836,-7.01177 0.11403,-9.6125c0.02397,-0.72739 0.20662,-2.1138 -0.31962,-2.85247c-1.59354,-2.23677 -4.38031,-3.66988 -5.1536,-6.50052c-0.65965,-2.41463 1.25827,-4.4024 2.30093,-6.113c0.94642,-1.55268 0.64823,-4.02796 -0.07624,-5.56069c-0.43697,-0.92449 -0.86806,-1.41732 -1.39964,-1.82616c-0.35875,3.01978 -0.67598,6.32117 -1.7657,8.82585c-0.8652,1.98864 -3.57899,4.22059 -5.16832,5.58262c-0.50033,0.42876 -1.88943,0.97867 -2.19219,1.80667c-1.29455,3.5403 1.11034,4.12792 1.69424,7.4411c0.62684,3.55674 -3.61886,8.82354 -6.19422,10.9919c-0.1698,0.86724 0.85507,1.55575 1.14963,2.38894c0.42197,1.19354 0.53015,3.54728 -0.0289,4.79701c-1.3313,2.97607 -4.72264,4.33209 -5.6901,7.63175c-0.08791,0.29984 0.10197,1.62253 0.21496,2.34281c-1.04724,0.06212 -2.09069,0.12139 -3.12704,0.16029c-0.31637,-3.28977 0.51256,-5.57482 2.81705,-8.36003c0.88033,-1.06398 2.27416,-1.73717 2.87983,-2.97822c0.96438,-1.97603 -1.08669,-3.22057 -1.39963,-4.85616c-0.16705,-0.87312 0.28261,-1.7553 0.42392,-2.63294c2.10781,-2.02295 4.659,-5.10176 5.90254,-7.82605c0.75368,-1.65116 -1.70425,-3.6496 -2.08889,-4.82972c-0.41471,-1.27232 0.17409,-4.59466 0.59624,-5.59889c1.31513,-3.12853 6.038,-4.09578 7.31454,-7.28578c0.79006,-1.97431 1.1252,-4.40216 1.40717,-6.77936c-2.07737,0.28807 -4.19854,-0.36636 -6.10286,-2.41637c-0.65866,-0.70907 -1.23841,-1.49519 -1.74958,-2.31696c-0.25112,-0.40369 -0.15537,-1.02154 -0.51819,-1.32878c-0.6413,-0.54308 -1.6224,0.43918 -2.42947,0.67342c-1.60641,0.46626 -3.76944,1.52299 -5.47526,1.36178c-3.80761,-0.35986 -4.2105,-2.64452 -5.29123,-5.7023c-0.22929,-0.64869 -0.76819,-1.19273 -0.86552,-1.87384c-0.1193,-0.83496 0.62247,-4.1143 0.76961,-4.83969c-0.00442,-1.1131 0.48751,-2.27617 0.14753,-3.33609c-0.25622,-0.79881 -1.51781,-0.72029 -2.24037,-1.14649c-1.02186,-0.60272 -3.08685,-1.96528 -3.53179,-3.10505c-0.62028,-1.58893 -0.01773,-3.94549 1.15625,-5.13554c0.51006,-0.51705 1.40578,-0.46504 1.97965,-0.91023c1.65989,-1.2877 2.90443,-3.63256 2.39842,-5.41526c0.93249,-0.21954 1.86896,-0.53437 2.89814,-0.97317c0.67199,1.56925 0.73614,3.35471 -0.12273,5.02191c-0.34558,0.6708 -3.19891,3.81002 -3.32518,3.9104c-0.51977,0.41322 -2.83522,0.77561 -2.07926,2.29848c1.02896,2.07287 4.67064,1.83042 5.70118,4.09272c0.20745,0.45541 0.1499,4.31567 0.14752,5.00819c-0.26486,1.34205 -1.02663,2.67792 -0.79492,4.02609c0.08112,0.47201 0.53988,0.80354 0.69902,1.25523c0.30181,0.85668 0.3226,1.80252 0.67342,2.64032c0.49486,1.18169 1.99154,1.09499 2.9547,0.82778c2.18189,-0.60535 5.9721,-2.6788 8.20869,-1.39851c0.81047,0.46397 1.02946,1.55878 1.5679,2.32182c1.31161,1.85876 3.3824,3.90239 5.59411,3.43607c0.06669,-0.47928 0.13895,-0.94624 0.22071,-1.39588c0,0 0.08294,-0.45624 0.40651,-0.82813l-0.95563,-0.68543c0,0 -1.22779,-0.98222 -0.24556,-2.21001c0.98222,-1.22779 2.21001,-0.24556 2.21001,-0.24556l1.61131,1.37148c0.1032,0.38921 0.2598,0.70439 0.46009,0.95551l0.40144,-0.50336c0.12113,-0.15466 0.2706,-0.28606 0.44059,-0.38638c0.39729,-0.25516 1.0345,-0.45548 1.7591,0.11061c0.01258,0.00972 0.025,0.01964 0.03727,0.02973c0.60523,0.49305 0.65953,1.04611 0.56406,1.47395c2.02283,-0.3735 4.33307,-1.57533 5.52796,-2.17211c0.64215,-0.32071 1.13097,-0.89046 1.74664,-1.25946c0.70198,-0.42074 1.45942,-0.74128 2.19389,-1.10234c0.67126,-0.32998 3.27691,-1.52539 2.60581,-2.77704c-0.61224,-1.1419 -1.8171,-1.8685 -2.53281,-2.94856c-0.88357,-2.73749 -1.35598,-8.74185 1.27537,-10.83211c1.48377,-1.17866 3.20946,-0.35886 4.6412,-2.0475c1.76201,-2.07818 -0.44542,-4.69642 0.29734,-6.91676c0.24192,-0.72315 1.13363,-1.02233 1.65989,-1.57416c2.95475,-3.09833 6.8286,-3.09659 10.56704,-4.97711c0,0 1.40633,-0.70316 2.1095,0.70317c0.70318,1.40634 -0.70318,2.10949 -0.70318,2.10949c-1.85486,0.9225 -3.79103,1.66867 -5.80007,2.2057c-0.94459,0.2525 -1.99809,0.11812 -2.82927,0.7778c-0.47727,0.37878 -0.69598,1.01238 -1.14273,1.42669c-0.26326,0.24413 -0.83508,0.17099 -0.94769,0.51191c-0.32338,0.979 0.64892,1.99586 0.63678,3.02681c-0.01964,1.66716 -0.30382,3.31431 -1.38245,4.65889c-0.79657,0.99299 -2.6336,2.23162 -3.89286,2.61067c-0.43894,0.13214 -0.9614,-0.16267 -1.37479,0.03548c-0.22178,0.10631 -0.16046,0.46911 -0.18769,0.71354c-0.21365,1.91864 -0.75552,4.33999 -0.10148,6.18588c0.79257,1.17828 2.28838,1.94533 2.68235,3.30962c1.58644,5.49371 -7.44155,8.52473 -11.03552,10.03815c-1.58998,0.66954 -3.49098,1.35864 -5.25808,1.47228c2.42598,2.86035 3.35707,6.71922 1.37095,10.37691c-0.54261,0.99926 -2.37085,2.31 -1.89194,3.8451c0.9609,3.08004 4.92529,4.0938 5.51285,7.65305c0.42494,2.57416 -0.10468,5.55845 -0.24182,8.15121c-0.04307,0.81437 -0.40798,1.66908 -0.14805,2.44204c0.16242,0.48301 0.89431,0.51075 1.26026,0.86539c0.56739,0.54986 1.00958,1.21568 1.51437,1.82351c0.77431,1.55078 2.19693,2.75166 2.81928,4.36941c0.21239,0.55205 -0.30685,1.1752 -0.22184,1.76058c0.1258,0.8663 0.62559,1.67405 1.19622,2.33788c0.88849,1.03359 1.76883,0.4968 2.86524,1.32316c2.71018,2.04265 2.51934,5.85637 2.50783,8.85852c-1.05813,-0.01798 -2.1031,-0.05274 -3.14144,-0.10296c0.02752,-1.73622 0.17864,-3.79058 -0.59868,-5.40413z" fill="#000000" stroke-width="0.5"/><path d="M354.16422,227.95886v-48.26487h10.95184v48.26487z" fill="url(#color-38)" stroke-width="0"/><path d="M350.51363,179.81131v-16.68852h17.73155v16.68852z" fill="url(#color-39)" stroke-width="0"/><path d="M369.52903,177.09863v-38.77896h4.71699v38.77896z" data-paper-data="{&quot;index&quot;:null}" fill="url(#color-40)" stroke-width="0"/><path d="M344.51574,178.16112v-39.30049h4.71699v39.30049z" data-paper-data="{&quot;index&quot;:null}" fill="url(#color-41)" stroke-width="0"/><path d="M344.89472,181.67505v-5.11006h28.89339v5.11006z" fill="url(#color-42)" stroke-width="0"/><path d="M367.94084,179.4059l16.08853,-43.77025l5.56616,2.04592l-16.08853,43.77027z" fill="url(#color-43)" stroke-width="0"/><path d="M344.62859,181.2608l-16.43864,-44.72281l5.68729,-2.09048l16.43867,44.72282z" data-paper-data="{&quot;index&quot;:null}" fill="url(#color-44)" stroke-width="0"/><path d="M321.07697,138.49544v-4.28421h77.26083v4.28421z" fill="url(#color-45)" stroke-width="0"/><path d="M323.58392,136.25524c0,1.93182 -1.56604,3.49785 -3.49784,3.49785c-1.93181,0 -3.49786,-1.56603 -3.49786,-3.49785c0,-1.93182 1.56604,-3.49785 3.49786,-3.49785c1.93181,0 3.49784,1.56604 3.49784,3.49785z" fill="#000000" stroke-width="0"/><path d="M402.47577,136.46006c0,1.93182 -1.56604,3.49785 -3.49784,3.49785c-1.93181,0 -3.49784,-1.56604 -3.49784,-3.49785c0,-1.93182 1.56604,-3.49784 3.49784,-3.49784c1.93181,0 3.49784,1.56604 3.49784,3.49784z" fill="#000000" stroke-width="0"/><path d="M329.12889,232.57103v-4.36252h63.81171v4.36252z" fill="#000000" stroke-width="0"/><path d="M333.28222,230.44803c0,2.5355 -2.05544,4.59093 -4.59093,4.59093c-2.5355,0 -4.59093,-2.05542 -4.59093,-4.59093c0,-2.5355 2.05543,-4.59093 4.59093,-4.59093c2.5355,0 4.59093,2.05544 4.59093,4.59093z" fill="#000000" stroke-width="0"/><path d="M397.20086,230.66773c0,2.5355 -2.05544,4.59093 -4.59093,4.59093c-2.53551,0 -4.59093,-2.05543 -4.59093,-4.59093c0,-2.5355 2.05543,-4.59093 4.59093,-4.59093c2.53551,0 4.59093,2.05544 4.59093,4.59093z" fill="#000000" stroke-width="0"/></g><path d="M359.53292,240.56967c-29.8241,0 -61.12235,-32.99579 -54.0013,-60.33362c4.69913,-18.03998 10.55341,-39.15858 20.42442,-54.45166c1.03234,-0.13462 3.17284,0.01615 3.83768,0.51039c0.4793,0.3563 0.58395,1.1974 1.15604,1.36884c2.04822,0.61377 5.1608,-2.22872 6.89915,-1.26187c2.41619,1.34386 2.60366,2.97396 5.84013,2.23175c0.92882,-0.37053 1.77354,-0.95885 2.73577,-1.23107c2.01416,-0.56981 4.43777,0.7119 6.68946,-0.02563c0.95032,-0.31127 1.758,-1.02136 2.73577,-1.23107c1.76354,-0.37822 3.97139,-0.10604 5.65075,-1.06393c1.25838,-0.71776 1.93285,-2.40488 3.14174,-3.14174c1.79448,-1.0938 3.60576,0.95528 4.98008,1.65061c1.34442,0.33447 3.05277,0.68689 4.44953,0.35584c0.95637,-0.22668 2.31024,-1.06534 3.37085,-0.91805c0.41853,0.05813 0.70373,0.50506 1.11457,0.60386c2.27812,0.54788 5.08217,-0.31644 7.32647,-0.60566c1.7742,-0.22864 3.59777,-0.07809 5.41576,0.02453c10.12572,13.69639 16.56786,33.03933 20.75041,50.60708c-0.75308,-0.35714 -1.53849,-0.65206 -2.40124,-0.81095c-4.94951,-0.91152 -11.98235,-0.23659 -16.32082,2.02276c-2.01654,1.05015 -2.55677,3.49028 -4.07965,4.96592c-0.40421,0.56707 -0.70123,1.22852 -1.21262,1.70121c-0.47086,0.43522 -2.32555,0.22207 -2.58955,0.33855c-1.52935,0.67485 -4.57428,4.70989 -5.32011,6.22599c-0.54713,1.11217 -0.43108,2.44229 -0.58223,3.6725c-0.15797,1.2857 -0.78202,2.4847 -0.94252,3.77009c-0.31664,2.53587 0.14133,4.97244 0.47744,7.40031c0.45698,3.301 -1.06167,6.08608 -0.90698,9.36764c-1.49051,2.11228 -2.80618,5.72093 -1.84591,8.33245c0.15334,0.41701 0.77524,0.5309 0.94252,0.94252c0.65481,1.61127 1.1207,4.0689 0.86805,5.95808c-0.30385,2.2721 -3.10409,2.45949 -4.08061,4.28194c-1.14387,2.13478 0.34209,4.20639 1.07523,6.36579c-5.10162,1.54725 -10.37259,2.37656 -15.59829,2.37656z" fill="url(#color-46)" stroke="#000000" stroke-width="0"/></g><g fill="#000000" stroke-width="0" stroke-linecap="butt"><path d="M349.25111,66.09472l1.33158,-3.95627l27.69394,9.32109l-1.33158,3.95627z" stroke="none"/><path d="M340.40702,103.23224l8.61698,-25.60196l2.64997,0.89191l-8.61699,25.60197z" stroke="none"/><path d="M359.32793,108.68679l8.37252,-24.87563l2.64998,0.89192l-8.37252,24.87563z" data-paper-data="{&quot;index&quot;:null}" stroke="none"/><path d="M345.04716,78.2714l1.33158,-3.95627l27.69395,9.32109l-1.33158,3.95627z" stroke="none"/><path d="M371.0753,87.03182l9.67151,-28.73506l4.37272,1.47175l-9.67151,28.73506z" stroke="#000000"/><path d="M342.34023,77.36031l9.67151,-28.73506l4.37274,1.47176l-9.67151,28.73506z" data-paper-data="{&quot;index&quot;:null}" stroke="#000000"/><g stroke="none"><g data-paper-data="{&quot;index&quot;:null}"><path d="M367.44098,88.13491l-1.15638,3.43572l-2.70692,-0.91108l1.15638,-3.43572z"/><path d="M363.69293,86.87341l-1.15638,3.43572l-2.70694,-0.91109l1.15638,-3.43572z"/><path d="M359.97993,85.50782l-1.15637,3.43571l-2.70693,-0.91108l1.15637,-3.43571z"/><path d="M356.23187,84.24632l-1.15637,3.43571l-2.70694,-0.91109l1.15637,-3.43571z"/><path d="M352.5766,82.93877l-1.15637,3.43571l-2.70694,-0.91109l1.15637,-3.43571z"/></g><path d="M370.3643,84.71291l-1.61191,4.78917l-21.23897,-7.14851l1.61191,-4.78917z" data-paper-data="{&quot;index&quot;:null}"/></g><g stroke="#000000"><g><path d="M388.36323,39.59952c7.41748,2.49654 11.40668,10.53343 8.91014,17.9509c-2.49654,7.41748 -10.53344,11.40669 -17.9509,8.91015c-7.41748,-2.49654 -11.40668,-10.53344 -8.91014,-17.95091c2.49654,-7.41748 10.53343,-11.40668 17.9509,-8.91014z"/></g><g data-paper-data="{&quot;index&quot;:null}"><path d="M370.51747,48.19732c-2.49654,7.41748 -10.53343,11.40668 -17.9509,8.91014c-7.41748,-2.49654 -11.40668,-10.53343 -8.91014,-17.9509c2.49654,-7.41748 10.53343,-11.40668 17.9509,-8.91014c7.41748,2.49654 11.40668,10.53343 8.91014,17.9509z"/></g></g></g><g stroke-width="0" stroke-linecap="butt"><g fill="#000000" stroke="none"><g><path d="M359.76558,101.98576l1.15637,-3.43571l2.70692,0.91108l-1.15637,3.43571z"/><path d="M356.01752,100.72426l1.15637,-3.43571l2.70694,0.91109l-1.15637,3.43571z"/><path d="M352.23443,99.56687l1.15638,-3.43572l2.70693,0.91108l-1.15638,3.43572z"/><path d="M348.48638,98.30537l1.15638,-3.43572l2.70694,0.91109l-1.15638,3.43572z"/><path d="M344.78437,97.13663l1.15638,-3.43572l2.70694,0.91109l-1.15638,3.43572z"/></g><path d="M341.49279,100.24151l1.61191,-4.78917l21.23897,7.14851l-1.61191,4.78917z"/></g><path d="M348.55994,114.33367c-13.17521,-3.97971 -39.44882,-31.02814 -31.46018,-50.13125c0.91663,-2.19191 -2.79806,-1.85494 6.15421,-0.13368c8.55423,1.64474 2.38577,29.4292 29.03295,38.15861c30.62431,10.03229 37.35617,-17.54972 44.9499,-13.77934c7.86899,3.90706 7.50929,2.55342 6.69284,4.97918c-6.60244,19.61653 -39.67423,25.64747 -55.3697,20.90649z" data-paper-data="{&quot;index&quot;:null}" fill="url(#color-47)" stroke="#000000"/></g><path d="M404.81958,91.76293c-2.80356,8.32968 -88.75758,-21.43117 -86.82988,-29.22478c2.58601,-10.45516 11.94304,-17.09756 24.83204,-19.01985c0.0962,-0.01435 3.70021,11.5757 9.24809,13.57778c9.50577,3.43038 13.60529,-4.91316 16.44075,-3.96887c3.33773,1.11157 1.11109,10.28734 11.00123,13.20513c8.44933,3.49006 16.05506,-5.29989 16.23869,-5.1052c8.65781,9.17897 12.46716,20.43973 9.06908,30.53578z" fill="url(#color-48)" stroke="#000000" stroke-width="0" stroke-linecap="butt"/><g stroke="none" stroke-width="0" stroke-linecap="butt"><path d="M367.27852,48.90029c-0.30606,0.90933 -1.27586,1.40358 -2.1661,1.10395c-0.89025,-0.29964 -1.36382,-1.27969 -1.05777,-2.18902c0.30606,-0.90933 1.27586,-1.40358 2.1661,-1.10395c0.89025,0.29964 1.36382,1.27969 1.05777,2.18902zM365.17964,49.7719c0.78006,0.26255 1.62526,-0.15698 1.88781,-0.93704c0.26255,-0.78006 -0.15698,-1.62526 -0.93704,-1.88781c-0.78006,-0.26255 -1.62526,0.15698 -1.88781,0.93704c-0.26255,0.78006 0.15698,1.62526 0.93704,1.88781z" fill="#ffffff"/><path d="M368.29746,49.24325c-0.49952,1.48412 -2.08234,2.2908 -3.53533,1.80176c-1.45298,-0.48904 -2.22593,-2.08861 -1.72641,-3.57273c0.49952,-1.48412 2.08234,-2.29081 3.53534,-1.80177c1.45298,0.48904 2.22593,2.08861 1.72641,3.57274z" fill="url(#color-49)"/></g><g stroke="none" stroke-width="0" stroke-linecap="butt"><path d="M394.19869,59.68967c-0.30606,0.90933 -1.27586,1.40358 -2.1661,1.10395c-0.89025,-0.29964 -1.36382,-1.27969 -1.05777,-2.18902c0.30606,-0.90933 1.27586,-1.40358 2.1661,-1.10395c0.89025,0.29964 1.36382,1.27969 1.05777,2.18902zM392.09981,60.56128c0.78006,0.26255 1.62526,-0.15698 1.88781,-0.93704c0.26255,-0.78006 -0.15698,-1.62526 -0.93704,-1.88781c-0.78006,-0.26255 -1.62526,0.15698 -1.88781,0.93704c-0.26255,0.78006 0.15698,1.62526 0.93704,1.88781z" fill="#ffffff"/><path d="M395.21763,60.03263c-0.49952,1.48412 -2.08234,2.2908 -3.53533,1.80176c-1.45298,-0.48904 -2.22593,-2.08861 -1.72641,-3.57273c0.49952,-1.48412 2.08234,-2.29081 3.53534,-1.80177c1.45298,0.48904 2.22593,2.08861 1.72641,3.57274z" fill="url(#color-50)"/></g></g><text transform="translate(395.33333,49.14446) scale(0.48984,0.48984)" font-size="40" xml:space="preserve" fill="#00ff6a" fill-rule="nonzero" stroke="none" stroke-width="1" stroke-linecap="butt" stroke-linejoin="miter" stroke-miterlimit="10" stroke-dasharray="" stroke-dashoffset="0" font-family="&quot; Pro W3&quot;, &quot;Hiragino Kaku Gothic Pro&quot;, Osaka, &quot;&quot;, Meiryo, &quot; &quot;, &quot;MS PGothic&quot;" font-weight="normal" text-anchor="start" style="mix-blend-mode: normal"><tspan x="0" dy="0">NEW</tspan></text><path d="M135,326v-292h126v292z" fill="#00471e" stroke="#d3ffcd" stroke-width="1.5" stroke-linecap="butt"/><text transform="translate(137.83333,48.39968) scale(0.23701,0.23701)" font-size="40" xml:space="preserve" fill="#00ff6a" fill-rule="nonzero" stroke="none" stroke-width="1" stroke-linecap="butt" stroke-linejoin="miter" stroke-miterlimit="10" stroke-dasharray="" stroke-dashoffset="0" font-family="&quot; Pro W3&quot;, &quot;Hiragino Kaku Gothic Pro&quot;, Osaka, &quot;&quot;, Meiryo, &quot; &quot;, &quot;MS PGothic&quot;" font-weight="normal" text-anchor="start" style="mix-blend-mode: normal"><tspan x="0" dy="0">EIDOLON COOKIE MONSTER</tspan></text><text transform="translate(376.4308,60.09649) scale(0.21213,0.21213)" font-size="40" xml:space="preserve" fill="#00b94d" fill-rule="nonzero" stroke="none" stroke-width="1" stroke-linecap="butt" stroke-linejoin="miter" stroke-miterlimit="10" stroke-dasharray="" stroke-dashoffset="0" font-family="&quot; Pro W3&quot;, &quot;Hiragino Kaku Gothic Pro&quot;, Osaka, &quot;&quot;, Meiryo, &quot; &quot;, &quot;MS PGothic&quot;" font-weight="normal" text-anchor="start" style="mix-blend-mode: normal"><tspan x="0" dy="0">SCROLL TO TOGGLE</tspan></text><text transform="translate(139.83333,69.32718) scale(0.24889,0.24889)" font-size="40" xml:space="preserve" fill="#00ff6a" fill-rule="nonzero" stroke="none" stroke-width="1" stroke-linecap="butt" stroke-linejoin="miter" stroke-miterlimit="10" stroke-dasharray="" stroke-dashoffset="0" font-family="&quot; Pro W3&quot;, &quot;Hiragino Kaku Gothic Pro&quot;, Osaka, &quot;&quot;, Meiryo, &quot; &quot;, &quot;MS PGothic&quot;" font-weight="normal" text-anchor="start" style="mix-blend-mode: normal"><tspan x="0" dy="0">A shadowy figure who</tspan><tspan x="0" dy="48px">takes the form of Withered</tspan><tspan x="0" dy="48px">Cookie Monster. He likes</tspan><tspan x="0" dy="48px">to hide outside windows.</tspan></text><text transform="translate(346.4308,323.09649) scale(0.21213,0.21213)" font-size="40" xml:space="preserve" fill="#00b94d" fill-rule="nonzero" stroke="none" stroke-width="1" stroke-linecap="butt" stroke-linejoin="miter" stroke-miterlimit="10" stroke-dasharray="" stroke-dashoffset="0" font-family="&quot; Pro W3&quot;, &quot;Hiragino Kaku Gothic Pro&quot;, Osaka, &quot;&quot;, Meiryo, &quot; &quot;, &quot;MS PGothic&quot;" font-weight="normal" text-anchor="start" style="mix-blend-mode: normal"><tspan x="0" dy="0">CLICK TO SEE NEXT IMAGE</tspan></text></g></g></svg>