<svg version="1.1" xmlns="http://www.w3.org/2000/svg" xmlns:xlink="http://www.w3.org/1999/xlink" width="757.66722" height="495.33535" viewBox="0,0,757.66722,495.33535"><defs><radialGradient cx="439.54531" cy="534.81236" r="136.33994" gradientUnits="userSpaceOnUse" id="color-1"><stop offset="0" stop-color="#93266b"/><stop offset="1" stop-color="#6b1c4e"/></radialGradient><linearGradient x1="242.04083" y1="694.51288" x2="242.1712" y2="711.72649" gradientUnits="userSpaceOnUse" id="color-2"><stop offset="0" stop-color="#565656"/><stop offset="1" stop-color="#8b8b8b"/></linearGradient><radialGradient cx="188.03612" cy="720.11904" r="14.40365" gradientUnits="userSpaceOnUse" id="color-3"><stop offset="0" stop-color="#636363"/><stop offset="1" stop-color="#3c3c3c"/></radialGradient><radialGradient cx="310.90464" cy="720.00762" r="14.40365" gradientUnits="userSpaceOnUse" id="color-4"><stop offset="0" stop-color="#636363"/><stop offset="1" stop-color="#3c3c3c"/></radialGradient><linearGradient x1="-106.38981" y1="474.98266" x2="-102.68251" y2="474.95458" gradientUnits="userSpaceOnUse" id="color-5"><stop offset="0" stop-color="#bebebe"/><stop offset="1" stop-color="#797979"/></linearGradient><linearGradient x1="-96.84333" y1="474.72648" x2="-93.11" y2="474.6982" gradientUnits="userSpaceOnUse" id="color-6"><stop offset="0" stop-color="#bebebe"/><stop offset="1" stop-color="#797979"/></linearGradient><linearGradient x1="-86.88302" y1="475.13273" x2="-83.14972" y2="475.10445" gradientUnits="userSpaceOnUse" id="color-7"><stop offset="0" stop-color="#bebebe"/><stop offset="1" stop-color="#797979"/></linearGradient><linearGradient x1="-77.16292" y1="474.98663" x2="-73.39583" y2="474.9581" gradientUnits="userSpaceOnUse" id="color-8"><stop offset="0" stop-color="#bebebe"/><stop offset="1" stop-color="#797979"/></linearGradient><linearGradient x1="-67.64453" y1="475.61578" x2="-63.87735" y2="475.58725" gradientUnits="userSpaceOnUse" id="color-9"><stop offset="0" stop-color="#bebebe"/><stop offset="1" stop-color="#797979"/></linearGradient><linearGradient x1="-57.68585" y1="475.57936" x2="-53.91873" y2="475.55083" gradientUnits="userSpaceOnUse" id="color-10"><stop offset="0" stop-color="#bebebe"/><stop offset="1" stop-color="#797979"/></linearGradient><linearGradient x1="-47.9517" y1="474.65859" x2="-44.18459" y2="474.63006" gradientUnits="userSpaceOnUse" id="color-11"><stop offset="0" stop-color="#bebebe"/><stop offset="1" stop-color="#797979"/></linearGradient><linearGradient x1="-39.08919" y1="474.7368" x2="-35.34199" y2="474.70842" gradientUnits="userSpaceOnUse" id="color-12"><stop offset="0" stop-color="#bebebe"/><stop offset="1" stop-color="#797979"/></linearGradient><linearGradient x1="-70.83518" y1="440.86901" x2="-70.67829" y2="461.58482" gradientUnits="userSpaceOnUse" id="color-13"><stop offset="0" stop-color="#bebebe"/><stop offset="1" stop-color="#797979"/></linearGradient><linearGradient x1="-70.47139" y1="488.14321" x2="-70.31185" y2="509.20879" gradientUnits="userSpaceOnUse" id="color-14"><stop offset="0" stop-color="#797979"/><stop offset="1" stop-color="#bebebe"/></linearGradient><linearGradient x1="-69.95023" y1="471.11152" x2="-69.88492" y2="479.73541" gradientUnits="userSpaceOnUse" id="color-15"><stop offset="0" stop-color="#bebebe"/><stop offset="1" stop-color="#797979"/></linearGradient><radialGradient cx="-125.4823" cy="471.7714" r="10.15008" gradientUnits="userSpaceOnUse" id="color-16"><stop offset="0" stop-color="#636363"/><stop offset="1" stop-color="#3c3c3c"/></radialGradient><radialGradient cx="-71.16236" cy="474.31003" r="61.40445" gradientUnits="userSpaceOnUse" id="color-17"><stop offset="0" stop-color="#af2e80"/><stop offset="1" stop-color="#892464"/></radialGradient><linearGradient x1="587.65335" y1="469.72636" x2="583.94605" y2="469.75444" gradientUnits="userSpaceOnUse" id="color-18"><stop offset="0" stop-color="#bebebe"/><stop offset="1" stop-color="#797979"/></linearGradient><linearGradient x1="578.10408" y1="469.61481" x2="574.37075" y2="469.64308" gradientUnits="userSpaceOnUse" id="color-19"><stop offset="0" stop-color="#bebebe"/><stop offset="1" stop-color="#797979"/></linearGradient><linearGradient x1="568.15107" y1="470.17187" x2="564.41777" y2="470.20014" gradientUnits="userSpaceOnUse" id="color-20"><stop offset="0" stop-color="#bebebe"/><stop offset="1" stop-color="#797979"/></linearGradient><linearGradient x1="558.42987" y1="470.17301" x2="554.66278" y2="470.20154" gradientUnits="userSpaceOnUse" id="color-21"><stop offset="0" stop-color="#bebebe"/><stop offset="1" stop-color="#797979"/></linearGradient><linearGradient x1="548.9221" y1="470.94626" x2="545.15492" y2="470.97479" gradientUnits="userSpaceOnUse" id="color-22"><stop offset="0" stop-color="#bebebe"/><stop offset="1" stop-color="#797979"/></linearGradient><linearGradient x1="538.96401" y1="471.06067" x2="535.19686" y2="471.0892" gradientUnits="userSpaceOnUse" id="color-23"><stop offset="0" stop-color="#bebebe"/><stop offset="1" stop-color="#797979"/></linearGradient><linearGradient x1="529.21704" y1="470.28744" x2="525.44992" y2="470.31597" gradientUnits="userSpaceOnUse" id="color-24"><stop offset="0" stop-color="#bebebe"/><stop offset="1" stop-color="#797979"/></linearGradient><linearGradient x1="520.35672" y1="470.49987" x2="516.60949" y2="470.52825" gradientUnits="userSpaceOnUse" id="color-25"><stop offset="0" stop-color="#bebebe"/><stop offset="1" stop-color="#797979"/></linearGradient><linearGradient x1="551.58611" y1="436.15514" x2="551.743" y2="456.87095" gradientUnits="userSpaceOnUse" id="color-26"><stop offset="0" stop-color="#bebebe"/><stop offset="1" stop-color="#797979"/></linearGradient><linearGradient x1="551.93835" y1="483.42943" x2="552.09789" y2="504.49501" gradientUnits="userSpaceOnUse" id="color-27"><stop offset="0" stop-color="#797979"/><stop offset="1" stop-color="#bebebe"/></linearGradient><linearGradient x1="551.15931" y1="466.40758" x2="551.22463" y2="475.03148" gradientUnits="userSpaceOnUse" id="color-28"><stop offset="0" stop-color="#bebebe"/><stop offset="1" stop-color="#797979"/></linearGradient><radialGradient cx="606.69501" cy="466.2263" r="10.15008" gradientUnits="userSpaceOnUse" id="color-29"><stop offset="0" stop-color="#636363"/><stop offset="1" stop-color="#3c3c3c"/></radialGradient><radialGradient cx="552.41975" cy="469.58737" r="61.40443" gradientUnits="userSpaceOnUse" id="color-30"><stop offset="0" stop-color="#af2e80"/><stop offset="1" stop-color="#892464"/></radialGradient><linearGradient x1="24.29304" y1="474.06954" x2="28.64261" y2="474.0366" gradientUnits="userSpaceOnUse" id="color-31"><stop offset="0" stop-color="#bebebe"/><stop offset="1" stop-color="#797979"/></linearGradient><linearGradient x1="35.49347" y1="473.76899" x2="39.87355" y2="473.73581" gradientUnits="userSpaceOnUse" id="color-32"><stop offset="0" stop-color="#bebebe"/><stop offset="1" stop-color="#797979"/></linearGradient><linearGradient x1="47.17936" y1="474.24561" x2="51.55946" y2="474.21243" gradientUnits="userSpaceOnUse" id="color-33"><stop offset="0" stop-color="#bebebe"/><stop offset="1" stop-color="#797979"/></linearGradient><linearGradient x1="58.58345" y1="474.07421" x2="63.00321" y2="474.04074" gradientUnits="userSpaceOnUse" id="color-34"><stop offset="0" stop-color="#bebebe"/><stop offset="1" stop-color="#797979"/></linearGradient><linearGradient x1="69.75092" y1="474.81237" x2="74.17074" y2="474.7789" gradientUnits="userSpaceOnUse" id="color-35"><stop offset="0" stop-color="#bebebe"/><stop offset="1" stop-color="#797979"/></linearGradient><linearGradient x1="81.43493" y1="474.76966" x2="85.85469" y2="474.73619" gradientUnits="userSpaceOnUse" id="color-36"><stop offset="0" stop-color="#bebebe"/><stop offset="1" stop-color="#797979"/></linearGradient><linearGradient x1="92.85553" y1="473.68932" x2="97.27526" y2="473.65585" gradientUnits="userSpaceOnUse" id="color-37"><stop offset="0" stop-color="#bebebe"/><stop offset="1" stop-color="#797979"/></linearGradient><linearGradient x1="103.25344" y1="473.7811" x2="107.64984" y2="473.74781" gradientUnits="userSpaceOnUse" id="color-38"><stop offset="0" stop-color="#bebebe"/><stop offset="1" stop-color="#797979"/></linearGradient><linearGradient x1="66.00747" y1="434.04571" x2="66.19154" y2="458.35053" gradientUnits="userSpaceOnUse" id="color-39"><stop offset="0" stop-color="#bebebe"/><stop offset="1" stop-color="#797979"/></linearGradient><linearGradient x1="66.43434" y1="489.51015" x2="66.62152" y2="514.22531" gradientUnits="userSpaceOnUse" id="color-40"><stop offset="0" stop-color="#797979"/><stop offset="1" stop-color="#bebebe"/></linearGradient><linearGradient x1="67.04572" y1="469.52775" x2="67.12234" y2="479.64569" gradientUnits="userSpaceOnUse" id="color-41"><stop offset="0" stop-color="#bebebe"/><stop offset="1" stop-color="#797979"/></linearGradient><radialGradient cx="1.8928" cy="470.30193" r="11.90856" gradientUnits="userSpaceOnUse" id="color-42"><stop offset="0" stop-color="#636363"/><stop offset="1" stop-color="#3c3c3c"/></radialGradient><radialGradient cx="65.62359" cy="473.28038" r="72.04268" gradientUnits="userSpaceOnUse" id="color-43"><stop offset="0" stop-color="#af2e80"/><stop offset="1" stop-color="#892464"/></radialGradient><linearGradient x1="456.97166" y1="470.79267" x2="452.62209" y2="470.82561" gradientUnits="userSpaceOnUse" id="color-44"><stop offset="0" stop-color="#bebebe"/><stop offset="1" stop-color="#797979"/></linearGradient><linearGradient x1="445.76793" y1="470.6618" x2="441.38785" y2="470.69497" gradientUnits="userSpaceOnUse" id="color-45"><stop offset="0" stop-color="#bebebe"/><stop offset="1" stop-color="#797979"/></linearGradient><linearGradient x1="434.09063" y1="471.31536" x2="429.71053" y2="471.34853" gradientUnits="userSpaceOnUse" id="color-46"><stop offset="0" stop-color="#bebebe"/><stop offset="1" stop-color="#797979"/></linearGradient><linearGradient x1="422.68525" y1="471.31671" x2="418.26549" y2="471.35018" gradientUnits="userSpaceOnUse" id="color-47"><stop offset="0" stop-color="#bebebe"/><stop offset="1" stop-color="#797979"/></linearGradient><linearGradient x1="411.53021" y1="472.22393" x2="407.11042" y2="472.2574" gradientUnits="userSpaceOnUse" id="color-48"><stop offset="0" stop-color="#bebebe"/><stop offset="1" stop-color="#797979"/></linearGradient><linearGradient x1="399.84692" y1="472.35819" x2="395.42711" y2="472.39166" gradientUnits="userSpaceOnUse" id="color-49"><stop offset="0" stop-color="#bebebe"/><stop offset="1" stop-color="#797979"/></linearGradient><linearGradient x1="388.41127" y1="471.45095" x2="383.99154" y2="471.48442" gradientUnits="userSpaceOnUse" id="color-50"><stop offset="0" stop-color="#bebebe"/><stop offset="1" stop-color="#797979"/></linearGradient><linearGradient x1="378.01591" y1="471.70021" x2="373.61954" y2="471.7335" gradientUnits="userSpaceOnUse" id="color-51"><stop offset="0" stop-color="#bebebe"/><stop offset="1" stop-color="#797979"/></linearGradient><linearGradient x1="414.65579" y1="431.40524" x2="414.83986" y2="455.71007" gradientUnits="userSpaceOnUse" id="color-52"><stop offset="0" stop-color="#bebebe"/><stop offset="1" stop-color="#797979"/></linearGradient><linearGradient x1="415.06906" y1="486.86978" x2="415.25623" y2="511.58495" gradientUnits="userSpaceOnUse" id="color-53"><stop offset="0" stop-color="#797979"/><stop offset="1" stop-color="#bebebe"/></linearGradient><linearGradient x1="414.1551" y1="466.89894" x2="414.23172" y2="477.01688" gradientUnits="userSpaceOnUse" id="color-54"><stop offset="0" stop-color="#bebebe"/><stop offset="1" stop-color="#797979"/></linearGradient><radialGradient cx="479.31226" cy="466.68623" r="11.90859" gradientUnits="userSpaceOnUse" id="color-55"><stop offset="0" stop-color="#636363"/><stop offset="1" stop-color="#3c3c3c"/></radialGradient><radialGradient cx="415.6339" cy="470.6296" r="72.04271" gradientUnits="userSpaceOnUse" id="color-56"><stop offset="0" stop-color="#af2e80"/><stop offset="1" stop-color="#892464"/></radialGradient><linearGradient x1="212.85681" y1="434.14304" x2="224.78871" y2="437.30467" gradientUnits="userSpaceOnUse" id="color-57"><stop offset="0" stop-color="#bebebe"/><stop offset="1" stop-color="#797979"/></linearGradient><linearGradient x1="266.15494" y1="433.73939" x2="254.27227" y2="437.08138" gradientUnits="userSpaceOnUse" id="color-58"><stop offset="0" stop-color="#bebebe"/><stop offset="1" stop-color="#797979"/></linearGradient><linearGradient x1="185.22238" y1="472.6501" x2="185.75733" y2="543.28494" gradientUnits="userSpaceOnUse" id="color-59"><stop offset="0" stop-color="#bebebe"/><stop offset="1" stop-color="#9f9f9f"/></linearGradient><linearGradient x1="292.11239" y1="470.68149" x2="292.64734" y2="541.31633" gradientUnits="userSpaceOnUse" id="color-60"><stop offset="0" stop-color="#bebebe"/><stop offset="1" stop-color="#9f9f9f"/></linearGradient><linearGradient x1="230.69916" y1="472.79969" x2="248.67699" y2="472.66353" gradientUnits="userSpaceOnUse" id="color-61"><stop offset="0" stop-color="#bebebe"/><stop offset="1" stop-color="#9f9f9f"/></linearGradient><linearGradient x1="239.41609" y1="471.0111" x2="239.47206" y2="478.40238" gradientUnits="userSpaceOnUse" id="color-62"><stop offset="0" stop-color="#bebebe"/><stop offset="1" stop-color="#9f9f9f"/></linearGradient><radialGradient cx="150.06935" cy="471.72381" r="11.90856" gradientUnits="userSpaceOnUse" id="color-63"><stop offset="0" stop-color="#636363"/><stop offset="1" stop-color="#3c3c3c"/></radialGradient><radialGradient cx="340.62375" cy="469.17909" r="11.90856" gradientUnits="userSpaceOnUse" id="color-64"><stop offset="0" stop-color="#636363"/><stop offset="1" stop-color="#3c3c3c"/></radialGradient><linearGradient x1="240.45459" y1="538.19921" x2="241.68347" y2="700.46167" gradientUnits="userSpaceOnUse" id="color-65"><stop offset="0" stop-color="#bebebe"/><stop offset="1" stop-color="#545454"/></linearGradient><linearGradient x1="238.92549" y1="533.25906" x2="238.99357" y2="542.24799" gradientUnits="userSpaceOnUse" id="color-66"><stop offset="0" stop-color="#bebebe"/><stop offset="1" stop-color="#9f9f9f"/></linearGradient><radialGradient cx="261.97529" cy="545.93123" r="28.23687" gradientUnits="userSpaceOnUse" id="color-67"><stop offset="0" stop-color="#8d8d8d"/><stop offset="1" stop-color="#1e1e1e"/></radialGradient><radialGradient cx="261.7708" cy="555.29621" r="28.23693" gradientUnits="userSpaceOnUse" id="color-68"><stop offset="0" stop-color="#8d8d8d"/><stop offset="1" stop-color="#1e1e1e"/></radialGradient><radialGradient cx="261.2972" cy="565.48944" r="28.23693" gradientUnits="userSpaceOnUse" id="color-69"><stop offset="0" stop-color="#8d8d8d"/><stop offset="1" stop-color="#1e1e1e"/></radialGradient><radialGradient cx="261.08854" cy="574.30366" r="28.23693" gradientUnits="userSpaceOnUse" id="color-70"><stop offset="0" stop-color="#8d8d8d"/><stop offset="1" stop-color="#1e1e1e"/></radialGradient><radialGradient cx="261.14485" cy="581.73894" r="28.23693" gradientUnits="userSpaceOnUse" id="color-71"><stop offset="0" stop-color="#8d8d8d"/><stop offset="1" stop-color="#1e1e1e"/></radialGradient><radialGradient cx="260.67336" cy="592.20754" r="28.23693" gradientUnits="userSpaceOnUse" id="color-72"><stop offset="0" stop-color="#8d8d8d"/><stop offset="1" stop-color="#1e1e1e"/></radialGradient><radialGradient cx="260.45639" cy="599.92022" r="28.23687" gradientUnits="userSpaceOnUse" id="color-73"><stop offset="0" stop-color="#8d8d8d"/><stop offset="1" stop-color="#1e1e1e"/></radialGradient><radialGradient cx="260.80939" cy="610.16841" r="28.23693" gradientUnits="userSpaceOnUse" id="color-74"><stop offset="0" stop-color="#8d8d8d"/><stop offset="1" stop-color="#1e1e1e"/></radialGradient><radialGradient cx="261.15152" cy="618.97845" r="28.2369" gradientUnits="userSpaceOnUse" id="color-75"><stop offset="0" stop-color="#8d8d8d"/><stop offset="1" stop-color="#1e1e1e"/></radialGradient><radialGradient cx="239.80599" cy="576.68619" r="110.26518" gradientUnits="userSpaceOnUse" id="color-76"><stop offset="0" stop-color="#af2e80"/><stop offset="1" stop-color="#892464"/></radialGradient><radialGradient cx="261.05544" cy="529.19379" r="92.96204" gradientUnits="userSpaceOnUse" id="color-77"><stop offset="0" stop-color="#258d2f"/><stop offset="1" stop-color="#1b692b"/></radialGradient><linearGradient x1="239.19618" y1="393.99273" x2="239.93827" y2="491.97826" gradientUnits="userSpaceOnUse" id="color-78"><stop offset="0" stop-color="#bdbdbd"/><stop offset="1" stop-color="#848484"/></linearGradient><radialGradient cx="321.21896" cy="433.32576" r="94.58975" gradientUnits="userSpaceOnUse" id="color-79"><stop offset="0" stop-color="#af2e80"/><stop offset="1" stop-color="#892464"/></radialGradient><radialGradient cx="238.08601" cy="432.03982" r="70.8184" gradientUnits="userSpaceOnUse" id="color-80"><stop offset="0" stop-color="#1e1e1e"/><stop offset="1" stop-color="#000000"/></radialGradient><linearGradient x1="238.27976" y1="417.23883" x2="238.30397" y2="420.43577" gradientUnits="userSpaceOnUse" id="color-81"><stop offset="0" stop-color="#bebebe"/><stop offset="1" stop-color="#9f9f9f"/></linearGradient><linearGradient x1="226.72736" y1="324.15282" x2="227.47447" y2="422.80145" gradientUnits="userSpaceOnUse" id="color-82"><stop offset="0" stop-color="#bebebe"/><stop offset="1" stop-color="#9f9f9f"/></linearGradient><linearGradient x1="249.10599" y1="323.98334" x2="249.8531" y2="422.63197" gradientUnits="userSpaceOnUse" id="color-83"><stop offset="0" stop-color="#bebebe"/><stop offset="1" stop-color="#9f9f9f"/></linearGradient><linearGradient x1="238.73435" y1="412.17468" x2="238.91325" y2="435.79669" gradientUnits="userSpaceOnUse" id="color-84"><stop offset="0" stop-color="#8f8f8f"/><stop offset="1" stop-color="#797979"/></linearGradient><linearGradient x1="274.36883" y1="427.35684" x2="274.26484" y2="413.62588" gradientUnits="userSpaceOnUse" id="color-85"><stop offset="0" stop-color="#373737"/><stop offset="1" stop-color="#8f8f8f"/></linearGradient><linearGradient x1="202.96846" y1="427.89759" x2="202.86446" y2="414.16663" gradientUnits="userSpaceOnUse" id="color-86"><stop offset="0" stop-color="#373737"/><stop offset="1" stop-color="#8f8f8f"/></linearGradient><linearGradient x1="270.12719" y1="431.24622" x2="270.0232" y2="417.51529" gradientUnits="userSpaceOnUse" id="color-87"><stop offset="0" stop-color="#373737"/><stop offset="1" stop-color="#8f8f8f"/></linearGradient><linearGradient x1="207.26849" y1="431.72228" x2="207.1645" y2="417.99135" gradientUnits="userSpaceOnUse" id="color-88"><stop offset="0" stop-color="#373737"/><stop offset="1" stop-color="#8f8f8f"/></linearGradient><linearGradient x1="264.21881" y1="434.37678" x2="264.11482" y2="420.64585" gradientUnits="userSpaceOnUse" id="color-89"><stop offset="0" stop-color="#373737"/><stop offset="1" stop-color="#8f8f8f"/></linearGradient><linearGradient x1="213.22358" y1="434.76299" x2="213.11959" y2="421.03206" gradientUnits="userSpaceOnUse" id="color-90"><stop offset="0" stop-color="#373737"/><stop offset="1" stop-color="#8f8f8f"/></linearGradient><linearGradient x1="258.0674" y1="436.73773" x2="257.96341" y2="423.0068" gradientUnits="userSpaceOnUse" id="color-91"><stop offset="0" stop-color="#373737"/><stop offset="1" stop-color="#8f8f8f"/></linearGradient><linearGradient x1="219.41007" y1="437.0305" x2="219.30608" y2="423.29957" gradientUnits="userSpaceOnUse" id="color-92"><stop offset="0" stop-color="#373737"/><stop offset="1" stop-color="#8f8f8f"/></linearGradient><linearGradient x1="251.19944" y1="438.48695" x2="251.09545" y2="424.75602" gradientUnits="userSpaceOnUse" id="color-93"><stop offset="0" stop-color="#373737"/><stop offset="1" stop-color="#8f8f8f"/></linearGradient><linearGradient x1="226.30371" y1="438.67549" x2="226.19972" y2="424.94457" gradientUnits="userSpaceOnUse" id="color-94"><stop offset="0" stop-color="#373737"/><stop offset="1" stop-color="#8f8f8f"/></linearGradient><linearGradient x1="244.08842" y1="439.46656" x2="243.98443" y2="425.73558" gradientUnits="userSpaceOnUse" id="color-95"><stop offset="0" stop-color="#373737"/><stop offset="1" stop-color="#8f8f8f"/></linearGradient><linearGradient x1="233.42881" y1="439.54729" x2="233.32481" y2="425.81631" gradientUnits="userSpaceOnUse" id="color-96"><stop offset="0" stop-color="#373737"/><stop offset="1" stop-color="#8f8f8f"/></linearGradient><linearGradient x1="308.93367" y1="451.94783" x2="308.61951" y2="410.46619" gradientUnits="userSpaceOnUse" id="color-97"><stop offset="0" stop-color="#767676"/><stop offset="1" stop-color="#ececec"/></linearGradient><linearGradient x1="316.87058" y1="432.96412" x2="302.1427" y2="433.07566" gradientUnits="userSpaceOnUse" id="color-98"><stop offset="0" stop-color="#4c4c4c"/><stop offset="1" stop-color="#2c2c2c"/></linearGradient><linearGradient x1="168.67471" y1="453.01007" x2="168.36055" y2="411.52843" gradientUnits="userSpaceOnUse" id="color-99"><stop offset="0" stop-color="#767676"/><stop offset="1" stop-color="#ececec"/></linearGradient><linearGradient x1="160.45118" y1="434.14876" x2="175.17904" y2="434.03722" gradientUnits="userSpaceOnUse" id="color-100"><stop offset="0" stop-color="#4c4c4c"/><stop offset="1" stop-color="#2c2c2c"/></linearGradient><linearGradient x1="300.63228" y1="463.66366" x2="300.31813" y2="422.18199" gradientUnits="userSpaceOnUse" id="color-101"><stop offset="0" stop-color="#767676"/><stop offset="1" stop-color="#ececec"/></linearGradient><linearGradient x1="308.5692" y1="444.67993" x2="293.84134" y2="444.79147" gradientUnits="userSpaceOnUse" id="color-102"><stop offset="0" stop-color="#4c4c4c"/><stop offset="1" stop-color="#2c2c2c"/></linearGradient><linearGradient x1="177.15265" y1="464.59882" x2="176.83849" y2="423.11716" gradientUnits="userSpaceOnUse" id="color-103"><stop offset="0" stop-color="#767676"/><stop offset="1" stop-color="#ececec"/></linearGradient><linearGradient x1="168.92903" y1="445.73748" x2="183.65695" y2="445.62594" gradientUnits="userSpaceOnUse" id="color-104"><stop offset="0" stop-color="#4c4c4c"/><stop offset="1" stop-color="#2c2c2c"/></linearGradient><linearGradient x1="289.05059" y1="473.07369" x2="288.73643" y2="431.59206" gradientUnits="userSpaceOnUse" id="color-105"><stop offset="0" stop-color="#767676"/><stop offset="1" stop-color="#ececec"/></linearGradient><linearGradient x1="296.98756" y1="454.08999" x2="282.25967" y2="454.20153" gradientUnits="userSpaceOnUse" id="color-106"><stop offset="0" stop-color="#4c4c4c"/><stop offset="1" stop-color="#2c2c2c"/></linearGradient><linearGradient x1="188.87548" y1="473.83236" x2="188.56132" y2="432.35073" gradientUnits="userSpaceOnUse" id="color-107"><stop offset="0" stop-color="#767676"/><stop offset="1" stop-color="#ececec"/></linearGradient><linearGradient x1="180.65192" y1="454.97105" x2="195.37981" y2="454.85951" gradientUnits="userSpaceOnUse" id="color-108"><stop offset="0" stop-color="#4c4c4c"/><stop offset="1" stop-color="#2c2c2c"/></linearGradient><linearGradient x1="276.9852" y1="480.15684" x2="276.67104" y2="438.67517" gradientUnits="userSpaceOnUse" id="color-109"><stop offset="0" stop-color="#767676"/><stop offset="1" stop-color="#ececec"/></linearGradient><linearGradient x1="284.92214" y1="461.17314" x2="270.19428" y2="461.28468" gradientUnits="userSpaceOnUse" id="color-110"><stop offset="0" stop-color="#4c4c4c"/><stop offset="1" stop-color="#2c2c2c"/></linearGradient><linearGradient x1="201.0468" y1="480.73196" x2="200.73264" y2="439.25029" gradientUnits="userSpaceOnUse" id="color-111"><stop offset="0" stop-color="#767676"/><stop offset="1" stop-color="#ececec"/></linearGradient><linearGradient x1="192.82322" y1="461.87064" x2="207.5511" y2="461.7591" gradientUnits="userSpaceOnUse" id="color-112"><stop offset="0" stop-color="#4c4c4c"/><stop offset="1" stop-color="#2c2c2c"/></linearGradient><linearGradient x1="263.50739" y1="485.38621" x2="263.19323" y2="443.90454" gradientUnits="userSpaceOnUse" id="color-113"><stop offset="0" stop-color="#767676"/><stop offset="1" stop-color="#ececec"/></linearGradient><linearGradient x1="271.44433" y1="466.40251" x2="256.71645" y2="466.51405" gradientUnits="userSpaceOnUse" id="color-114"><stop offset="0" stop-color="#4c4c4c"/><stop offset="1" stop-color="#2c2c2c"/></linearGradient><linearGradient x1="214.60226" y1="485.75659" x2="214.2881" y2="444.27492" gradientUnits="userSpaceOnUse" id="color-115"><stop offset="0" stop-color="#767676"/><stop offset="1" stop-color="#ececec"/></linearGradient><linearGradient x1="206.37868" y1="466.89528" x2="221.10656" y2="466.78374" gradientUnits="userSpaceOnUse" id="color-116"><stop offset="0" stop-color="#4c4c4c"/><stop offset="1" stop-color="#2c2c2c"/></linearGradient><linearGradient x1="249.54586" y1="488.28863" x2="249.2317" y2="446.80699" gradientUnits="userSpaceOnUse" id="color-117"><stop offset="0" stop-color="#767676"/><stop offset="1" stop-color="#ececec"/></linearGradient><linearGradient x1="257.4828" y1="469.30493" x2="242.75494" y2="469.41647" gradientUnits="userSpaceOnUse" id="color-118"><stop offset="0" stop-color="#4c4c4c"/><stop offset="1" stop-color="#2c2c2c"/></linearGradient><linearGradient x1="228.60615" y1="488.44722" x2="228.292" y2="446.96558" gradientUnits="userSpaceOnUse" id="color-119"><stop offset="0" stop-color="#767676"/><stop offset="1" stop-color="#ececec"/></linearGradient><linearGradient x1="220.38257" y1="469.58591" x2="235.11046" y2="469.47437" gradientUnits="userSpaceOnUse" id="color-120"><stop offset="0" stop-color="#4c4c4c"/><stop offset="1" stop-color="#2c2c2c"/></linearGradient><linearGradient x1="150.21935" y1="345.67802" x2="150.53351" y2="387.15969" gradientUnits="userSpaceOnUse" id="color-121"><stop offset="0" stop-color="#767676"/><stop offset="1" stop-color="#ececec"/></linearGradient><linearGradient x1="142.28241" y1="364.66172" x2="157.0103" y2="364.55018" gradientUnits="userSpaceOnUse" id="color-122"><stop offset="0" stop-color="#4c4c4c"/><stop offset="1" stop-color="#2c2c2c"/></linearGradient><linearGradient x1="327.81822" y1="345.26523" x2="328.13238" y2="386.74686" gradientUnits="userSpaceOnUse" id="color-123"><stop offset="0" stop-color="#767676"/><stop offset="1" stop-color="#ececec"/></linearGradient><linearGradient x1="336.04178" y1="364.12654" x2="321.31392" y2="364.23808" gradientUnits="userSpaceOnUse" id="color-124"><stop offset="0" stop-color="#4c4c4c"/><stop offset="1" stop-color="#2c2c2c"/></linearGradient><linearGradient x1="162.06179" y1="352.46643" x2="162.37595" y2="393.9481" gradientUnits="userSpaceOnUse" id="color-125"><stop offset="0" stop-color="#767676"/><stop offset="1" stop-color="#ececec"/></linearGradient><linearGradient x1="154.12485" y1="371.45013" x2="168.85271" y2="371.33859" gradientUnits="userSpaceOnUse" id="color-126"><stop offset="0" stop-color="#4c4c4c"/><stop offset="1" stop-color="#2c2c2c"/></linearGradient><linearGradient x1="316.07996" y1="352.23225" x2="316.39412" y2="393.71389" gradientUnits="userSpaceOnUse" id="color-127"><stop offset="0" stop-color="#767676"/><stop offset="1" stop-color="#ececec"/></linearGradient><linearGradient x1="324.30352" y1="371.09356" x2="309.57566" y2="371.2051" gradientUnits="userSpaceOnUse" id="color-128"><stop offset="0" stop-color="#4c4c4c"/><stop offset="1" stop-color="#2c2c2c"/></linearGradient><linearGradient x1="176.21273" y1="361.34114" x2="176.52689" y2="402.82281" gradientUnits="userSpaceOnUse" id="color-129"><stop offset="0" stop-color="#767676"/><stop offset="1" stop-color="#ececec"/></linearGradient><linearGradient x1="168.27579" y1="380.32484" x2="183.00365" y2="380.2133" gradientUnits="userSpaceOnUse" id="color-130"><stop offset="0" stop-color="#4c4c4c"/><stop offset="1" stop-color="#2c2c2c"/></linearGradient><linearGradient x1="302.05797" y1="360.38806" x2="302.37213" y2="401.86973" gradientUnits="userSpaceOnUse" id="color-131"><stop offset="0" stop-color="#767676"/><stop offset="1" stop-color="#ececec"/></linearGradient><linearGradient x1="310.28153" y1="379.24937" x2="295.5537" y2="379.36091" gradientUnits="userSpaceOnUse" id="color-132"><stop offset="0" stop-color="#4c4c4c"/><stop offset="1" stop-color="#2c2c2c"/></linearGradient><linearGradient x1="238.11833" y1="240.49339" x2="239.19906" y2="383.19358" gradientUnits="userSpaceOnUse" id="color-133"><stop offset="0" stop-color="#bdbdbd"/><stop offset="1" stop-color="#848484"/></linearGradient><linearGradient x1="238.22397" y1="254.44203" x2="239.3047" y2="397.14224" gradientUnits="userSpaceOnUse" id="color-134"><stop offset="0" stop-color="#717171"/><stop offset="1" stop-color="#a9a9a9"/></linearGradient><radialGradient cx="289.62862" cy="255.30563" r="106.15604" gradientUnits="userSpaceOnUse" id="color-135"><stop offset="0" stop-color="#af2e80"/><stop offset="1" stop-color="#892464"/></radialGradient><radialGradient cx="209.82931" cy="284.10692" r="15.82548" gradientUnits="userSpaceOnUse" id="color-136"><stop offset="0" stop-color="#ffffff"/><stop offset="1" stop-color="#d1d1d1"/></radialGradient><radialGradient cx="264.04759" cy="283.6963" r="15.82548" gradientUnits="userSpaceOnUse" id="color-137"><stop offset="0" stop-color="#ffffff"/><stop offset="1" stop-color="#d1d1d1"/></radialGradient><radialGradient cx="209.82931" cy="284.10692" r="8.67524" gradientUnits="userSpaceOnUse" id="color-138"><stop offset="0" stop-color="#ffffff"/><stop offset="1" stop-color="#ff0000"/></radialGradient><radialGradient cx="264.04759" cy="283.6963" r="8.67521" gradientUnits="userSpaceOnUse" id="color-139"><stop offset="0" stop-color="#ffffff"/><stop offset="1" stop-color="#ff0000"/></radialGradient><linearGradient x1="184.64475" y1="366.87068" x2="184.95891" y2="408.35232" gradientUnits="userSpaceOnUse" id="color-140"><stop offset="0" stop-color="#767676"/><stop offset="1" stop-color="#ececec"/></linearGradient><linearGradient x1="176.70778" y1="385.85438" x2="191.43567" y2="385.74284" gradientUnits="userSpaceOnUse" id="color-141"><stop offset="0" stop-color="#4c4c4c"/><stop offset="1" stop-color="#2c2c2c"/></linearGradient><linearGradient x1="290.44809" y1="366.06938" x2="290.76225" y2="407.55102" gradientUnits="userSpaceOnUse" id="color-142"><stop offset="0" stop-color="#767676"/><stop offset="1" stop-color="#ececec"/></linearGradient><linearGradient x1="298.67165" y1="384.9307" x2="283.94376" y2="385.04224" gradientUnits="userSpaceOnUse" id="color-143"><stop offset="0" stop-color="#4c4c4c"/><stop offset="1" stop-color="#2c2c2c"/></linearGradient><linearGradient x1="194.45736" y1="370.05918" x2="194.77152" y2="411.54085" gradientUnits="userSpaceOnUse" id="color-144"><stop offset="0" stop-color="#767676"/><stop offset="1" stop-color="#ececec"/></linearGradient><linearGradient x1="186.52042" y1="389.04289" x2="201.24827" y2="388.93135" gradientUnits="userSpaceOnUse" id="color-145"><stop offset="0" stop-color="#4c4c4c"/><stop offset="1" stop-color="#2c2c2c"/></linearGradient><linearGradient x1="280.68488" y1="369.40614" x2="280.99904" y2="410.88781" gradientUnits="userSpaceOnUse" id="color-146"><stop offset="0" stop-color="#767676"/><stop offset="1" stop-color="#ececec"/></linearGradient><linearGradient x1="288.90847" y1="388.26746" x2="274.18061" y2="388.379" gradientUnits="userSpaceOnUse" id="color-147"><stop offset="0" stop-color="#4c4c4c"/><stop offset="1" stop-color="#2c2c2c"/></linearGradient><linearGradient x1="204.74879" y1="374.92352" x2="205.06294" y2="416.40516" gradientUnits="userSpaceOnUse" id="color-148"><stop offset="0" stop-color="#767676"/><stop offset="1" stop-color="#ececec"/></linearGradient><linearGradient x1="196.81182" y1="393.90722" x2="211.5397" y2="393.79568" gradientUnits="userSpaceOnUse" id="color-149"><stop offset="0" stop-color="#4c4c4c"/><stop offset="1" stop-color="#2c2c2c"/></linearGradient><linearGradient x1="270.46831" y1="374.4258" x2="270.78247" y2="415.90744" gradientUnits="userSpaceOnUse" id="color-150"><stop offset="0" stop-color="#767676"/><stop offset="1" stop-color="#ececec"/></linearGradient><linearGradient x1="278.69192" y1="393.28711" x2="263.96403" y2="393.39865" gradientUnits="userSpaceOnUse" id="color-151"><stop offset="0" stop-color="#4c4c4c"/><stop offset="1" stop-color="#2c2c2c"/></linearGradient><linearGradient x1="216.68907" y1="376.7567" x2="217.00323" y2="418.23831" gradientUnits="userSpaceOnUse" id="color-152"><stop offset="0" stop-color="#767676"/><stop offset="1" stop-color="#ececec"/></linearGradient><linearGradient x1="208.75213" y1="395.74037" x2="223.47999" y2="395.62883" gradientUnits="userSpaceOnUse" id="color-153"><stop offset="0" stop-color="#4c4c4c"/><stop offset="1" stop-color="#2c2c2c"/></linearGradient><linearGradient x1="258.55721" y1="376.43961" x2="258.87137" y2="417.92122" gradientUnits="userSpaceOnUse" id="color-154"><stop offset="0" stop-color="#767676"/><stop offset="1" stop-color="#ececec"/></linearGradient><linearGradient x1="266.78074" y1="395.3009" x2="252.05289" y2="395.41244" gradientUnits="userSpaceOnUse" id="color-155"><stop offset="0" stop-color="#4c4c4c"/><stop offset="1" stop-color="#2c2c2c"/></linearGradient><linearGradient x1="245.99039" y1="378.86537" x2="246.30455" y2="420.34703" gradientUnits="userSpaceOnUse" id="color-156"><stop offset="0" stop-color="#767676"/><stop offset="1" stop-color="#ececec"/></linearGradient><linearGradient x1="254.21394" y1="397.72668" x2="239.48606" y2="397.83822" gradientUnits="userSpaceOnUse" id="color-157"><stop offset="0" stop-color="#4c4c4c"/><stop offset="1" stop-color="#2c2c2c"/></linearGradient><linearGradient x1="230.17413" y1="378.51902" x2="230.48828" y2="420.00069" gradientUnits="userSpaceOnUse" id="color-158"><stop offset="0" stop-color="#767676"/><stop offset="1" stop-color="#ececec"/></linearGradient><linearGradient x1="222.23718" y1="397.50272" x2="236.96507" y2="397.39118" gradientUnits="userSpaceOnUse" id="color-159"><stop offset="0" stop-color="#4c4c4c"/><stop offset="1" stop-color="#2c2c2c"/></linearGradient><linearGradient x1="236.95219" y1="332.6981" x2="237.4854" y2="403.10427" gradientUnits="userSpaceOnUse" id="color-160"><stop offset="0" stop-color="#717171"/><stop offset="1" stop-color="#a9a9a9"/></linearGradient><linearGradient x1="235.93043" y1="305.66986" x2="236.60221" y2="394.37212" gradientUnits="userSpaceOnUse" id="color-161"><stop offset="0" stop-color="#bdbdbd"/><stop offset="1" stop-color="#848484"/></linearGradient><linearGradient x1="235.93043" y1="305.66986" x2="236.60221" y2="394.37212" gradientUnits="userSpaceOnUse" id="color-162"><stop offset="0" stop-color="#af2e80"/><stop offset="1" stop-color="#95276d"/></linearGradient><radialGradient cx="189.05477" cy="351.98817" r="7.90648" gradientUnits="userSpaceOnUse" id="color-163"><stop offset="0" stop-color="#5c1843"/><stop offset="1" stop-color="#9b2871"/></radialGradient><radialGradient cx="285.32523" cy="351.25907" r="7.90645" gradientUnits="userSpaceOnUse" id="color-164"><stop offset="0" stop-color="#5c1843"/><stop offset="1" stop-color="#9b2871"/></radialGradient></defs><g transform="translate(138.20365,-240.4996)"><g data-paper-data="{&quot;isPaintingLayer&quot;:true}" fill-rule="nonzero" stroke-width="0" stroke-linecap="butt" stroke-linejoin="miter" stroke-miterlimit="10" stroke-dasharray="" stroke-dashoffset="0" style="mix-blend-mode: normal"><g><path d="M462.75556,540.08062c-10.17578,37.46488 -25.74019,77.55334 -47.55218,104.72573c-71.36722,88.90601 -186.01278,113.08178 -200.31633,69.40215c-7.73119,-23.60923 92.33148,-47.98117 152.71394,-110.07713c14.63845,-15.05384 27.65807,-31.65409 39.1564,-48.34025c40.77697,-59.17477 105.36853,-144.62621 112.22916,-140.8247c0.49994,0.27699 -43.41624,77.93316 -56.23099,125.11417z" fill="url(#color-1)" stroke="#000000"/><g stroke="none"><path d="M182.75116,728.6885l-6.09978,-16.81708l36.38101,-17.13884l58.31556,-0.44165l44.45222,21.09377l-9.3733,14.82636l-35.35475,-18.70345l-57.90936,0.43857z" fill="url(#color-2)"/><path d="M194.29344,721.92603c0.05731,7.56667 -6.3448,13.74948 -14.29947,13.80972c-7.95468,0.06024 -14.44969,-6.02492 -14.50699,-13.59156c-0.05731,-7.56667 6.3448,-13.74945 14.29947,-13.80969c7.95468,-0.06024 14.44969,6.02489 14.50699,13.59153z" fill="url(#color-3)"/><path d="M320.41758,722.02479c0.05731,7.56667 -6.3448,13.74948 -14.29947,13.80972c-7.9547,0.06024 -14.44969,-6.02492 -14.50699,-13.59156c-0.05731,-7.56667 6.3448,-13.74948 14.29947,-13.80972c7.9547,-0.06024 14.44969,6.02492 14.50699,13.59156z" fill="url(#color-4)"/></g></g><g stroke="none"><path d="M-14.50065,497.98854c-4.52123,7.3714 -11.96402,11.1775 -21.21662,13.16326c-1.54702,-3.24407 -3.26062,-6.48865 -5.1687,-9.77192c-2.97877,-5.12562 -5.6123,-13.47691 -11.22662,-16.53288c-3.37008,-1.83442 -8.41025,-1.04302 -12.07841,-1.01524c-4.22947,0.19697 -11.83095,3.35512 -14.92399,6.6941c-1.70968,1.84563 -0.94823,5.05026 -2.24594,7.20554c-2.06683,3.43267 -7.90578,-3.42165 -8.31581,-3.60473c-2.25566,-1.0073 -5.06044,0.6309 -7.40987,-0.13252c-2.20431,-0.71629 -3.38018,-3.4436 -5.59405,-4.12972c-7.46912,-2.31482 -10.17092,4.12528 -16.23652,4.85928c0,0 -0.80026,0.13962 -1.55965,0.67072c-4.97699,-12.61482 -4.68064,-41.04188 3.48898,-46.90876c9.50325,-6.82457 22.66532,-11.5452 37.52399,-12.89108c-0.34744,0.59635 -0.52356,1.3928 -0.30404,2.4487c0.70761,3.40384 4.11148,2.69624 4.11148,2.69624c6.0364,-1.28819 9.89933,1.59083 15.73599,3.28093c10.10737,2.92674 27.04267,3.67398 38.62741,-1.29843c2.56727,2.13997 4.75769,4.86007 6.52295,8.31243c2.82371,5.52239 3.74836,41.28207 0.26944,46.95405z" fill="#262626"/><g><g data-paper-data="{&quot;index&quot;:null}"><g><g><g><path d="M-102.68813,496.20729l-3.54086,0.01297l-0.15525,-42.49029l3.54086,-0.01294z" fill="url(#color-5)"/><path d="M-93.11651,499.27062l-3.54083,0.01296l-0.17952,-49.12939l3.54086,-0.01297z" fill="url(#color-6)"/><path d="M-83.1562,499.67682l-3.54086,0.01294l-0.17952,-49.12936l3.54089,-0.01297z" fill="url(#color-7)"/><path d="M-73.40343,503.84602l-3.54089,0.01297l-0.21104,-57.76025l3.54086,-0.01297z" fill="url(#color-8)"/><path d="M-63.88498,504.4752l-3.54089,0.01297l-0.21104,-57.7603l3.54089,-0.01294z" fill="url(#color-9)"/><path d="M-53.92633,504.4388l-3.54089,0.01297l-0.21104,-57.7603l3.54083,-0.01296z" fill="url(#color-10)"/><path d="M-44.19218,503.51798l-3.54086,0.01297l-0.21104,-57.7603l3.54083,-0.01296z" fill="url(#color-11)"/><path d="M-35.34894,501.05131l-3.54083,0.01294l-0.19246,-52.67028l3.54086,-0.01297z" fill="url(#color-12)"/><path d="M-28.06795,458.76376c0,0 -27.94811,-8.04191 -41.81191,-7.99126c-13.50972,0.04936 -43.51242,11.13582 -43.51242,11.13582l-0.39416,-10.97541c0,0 31.36141,-10.02906 44.93265,-10.07869c13.80729,-0.05044 41.10113,7.28572 41.10113,7.28572z" fill="url(#color-13)"/><path d="M-27.35163,501.6081c0,0 -27.23948,7.53542 -41.04677,7.58589c-13.57127,0.04955 -45.00517,-9.75009 -45.00517,-9.75009l0.31399,-10.97796c0,0 30.08291,10.86688 43.59263,10.81746c13.86375,-0.05068 41.75239,-8.29662 41.75239,-8.29662z" data-paper-data="{&quot;index&quot;:null}" fill="url(#color-14)"/><path d="M-3.62111,479.23357l-127.53847,0.48573l-0.02975,-8.14399l127.53847,-0.48573z" fill="url(#color-15)"/></g></g></g></g><path d="M-117.90377,474.83335c0.04245,5.60557 -4.46735,10.1842 -10.07292,10.22666c-5.60559,0.04245 -10.1842,-4.46735 -10.22666,-10.07292c-0.04245,-5.60557 4.46735,-10.18418 10.07292,-10.22663c5.60559,-0.04245 10.1842,4.46733 10.22666,10.07289z" fill="url(#color-16)"/></g><path d="M-14.50065,497.98854c-7.1961,11.73249 -21.79323,14.43318 -39.30903,15.13755c-5.01581,-5.55249 -13.03922,-11.47169 -19.06557,-13.10945c-3.8811,-1.05476 -8.82614,0.07933 -12.79183,-0.66188c-7.23732,-1.35274 -11.75285,-4.88631 -19.74945,-4.07341c-4.71669,0.47949 -8.81901,3.01481 -13.33456,3.49959c-6.67893,-9.82852 -7.25811,-43.8167 1.76324,-50.29527c10.15237,-7.29073 24.48043,-12.18025 40.59183,-13.11922l0.03019,0.16996c0.05277,2.81097 0.53388,5.67347 1.57019,8.28699c0.69294,3.7694 0.64825,6.79748 4.19889,9.52213c2.11323,1.62162 5.4862,0.24493 7.8566,1.46011c4.65132,2.38444 2.12621,6.45332 9.50554,6.69204c4.6618,0.1508 8.48956,-3.74797 13.22715,-2.94431c4.28445,0.72679 8.31728,5.2271 12.44753,3.87591c4.82507,-1.57849 6.53452,-7.59409 11.52138,-9.04055c0,0 1.00099,-0.3421 1.70994,-1.20105c1.32338,4.36922 2.12396,15.66858 2.07555,26.04113c-4.00992,1.53655 -10.31263,1.80009 -13.6497,3.49158c-2.39515,1.21405 -5.1195,8.73072 -6.65423,9.00368c-6.3449,1.12843 -9.73051,-4.66304 -15.39431,-6.19138c-8.92773,-2.40907 -14.60135,0.05815 -22.4533,-6.15016l-0.41214,-0.43578c0,0 -2.47689,-2.43968 -4.91657,0.03724c-2.43968,2.47692 0.03724,4.91655 0.03724,4.91655l0.98904,0.94433c4.31032,3.38337 7.94089,6.02226 13.56273,6.88366c4.81597,0.73789 9.527,-0.98545 14.08839,1.56711c5.29378,2.96242 9.79218,7.49948 16.74765,5.008c5.31026,-1.90216 3.57127,-8.03202 7.115,-9.17962c3.37786,-1.09389 7.08903,-1.50221 10.74525,-2.5201c-0.30136,5.85087 -0.95966,10.60261 -2.05266,12.38457z" fill="url(#color-17)"/></g><g data-paper-data="{&quot;index&quot;:null}" stroke="none"><path d="M528.85955,430.74949c0.39968,2.0527 1.26828,3.13998 3.19819,3.47935c0.39365,1.82937 2.37944,2.47463 2.37944,2.47463l4.18238,1.35902c3.81256,1.23738 7.30458,2.58043 10.92008,4.30688c0.07306,0.07249 4.85823,4.64248 4.8609,5.27085c0.00517,1.21851 -2.20598,1.80219 -2.06992,3.0131c0.25542,2.27335 4.96903,7.83353 7.07971,8.72125c3.591,1.51027 7.73797,-0.79598 11.41408,-0.53405c3.91951,0.27927 4.6548,3.50768 8.31783,4.64292c5.26208,1.63082 21.75703,-1.83528 24.89675,-6.58263c2.41613,14.21957 0.24808,34.1195 -5.3821,38.34874c-11.19736,8.41117 -27.33323,13.30256 -45.94093,13.44349c-18.03352,0.13658 -34.67634,0.42689 -46.12642,-5.301c2.07768,-1.39366 4.69884,-2.43996 8.19455,-4.04409c3.93262,-5.21652 6.14429,-9.36702 1.13127,-15.21292c-5.85856,-6.83192 -10.00639,-3.43188 -16.537,-3.03839c-2.56505,0.15457 -0.19373,-8.79612 -0.15675,-9.00781c0.47146,-2.70068 -1.4145,-5.42334 -1.11564,-8.14853c0.65413,-5.96441 2.30713,-11.83036 3.68756,-17.96335c0,0 0.75606,-3.39343 -2.63734,-4.14952c-0.02031,-0.00452 -0.04051,-0.0089 -0.06065,-0.01314c6.66326,-8.13056 17.0512,-10.42122 29.76406,-11.06479z" fill="#262626"/><g><g data-paper-data="{&quot;index&quot;:null}"><g><g><g><path d="M583.78521,448.51687l3.54065,-0.04069l0.48833,42.48779l-3.54065,0.04067z" fill="url(#color-18)"/><path d="M574.18477,445.08608l3.54065,-0.04067l0.56458,49.12648l-3.54059,0.04067z" fill="url(#color-19)"/><path d="M564.23178,445.64309l3.54065,-0.04067l0.56461,49.12645l-3.54065,0.04069z" fill="url(#color-20)"/><path d="M554.44412,441.32921l3.54065,-0.04067l0.66382,57.75682l-3.54068,0.04067z" fill="url(#color-21)"/><path d="M544.93626,442.10243l3.54065,-0.04069l0.66382,57.75687l-3.54068,0.04067z" fill="url(#color-22)"/><path d="M534.9782,442.21687l3.54065,-0.04067l0.66382,57.75687l-3.54065,0.04067z" fill="url(#color-23)"/><path d="M525.23125,441.44362l3.54062,-0.04067l0.66385,57.75687l-3.54065,0.04067z" fill="url(#color-24)"/><path d="M516.41013,444.20086l3.54065,-0.04067l0.60533,52.66715l-3.54065,0.04069z" fill="url(#color-25)"/><path d="M508.61864,444.07774c0,0 27.17959,-7.74869 40.98606,-7.90741c13.57046,-0.15596 45.08018,9.39698 45.08018,9.39698l-0.22789,10.98012c0,0 -30.16718,-10.63077 -43.67612,-10.4755c-13.86299,0.15934 -41.68608,8.62363 -41.68608,8.62363z" fill="url(#color-26)"/><path d="M509.25949,486.91985c0,0 28.01031,7.8226 41.87324,7.66329c13.50892,-0.15524 43.42382,-11.47648 43.42382,-11.47648l0.48022,10.97194c0,0 -31.28187,10.27464 -44.85233,10.43062c-13.8065,0.15866 -41.15696,-6.96333 -41.15696,-6.96333z" data-paper-data="{&quot;index&quot;:null}" fill="url(#color-27)"/><path d="M484.86719,467.38985l127.5312,-1.44603l0.09363,8.1435l-127.5312,1.44603z" fill="url(#color-28)"/></g></g></g></g><path d="M609.23662,459.17606c5.60554,-0.04245 10.1842,4.46733 10.22666,10.07289c0.04245,5.60557 -4.46735,10.1842 -10.07292,10.22666c-5.60554,0.04245 -10.1842,-4.46735 -10.22666,-10.07292c-0.04245,-5.60557 4.46733,-10.18418 10.07292,-10.22663z" fill="url(#color-29)"/></g><path d="M495.68145,447.16861c9.07493,-18.43154 30.39426,-16.48957 56.44214,-16.68685c18.10986,-0.13715 34.42646,4.73273 45.72528,12.59016c2.22842,1.54968 3.9084,4.75086 5.07963,8.84865c-4.81112,1.01204 -9.7445,4.37538 -14.44245,3.38908c-4.25275,-0.89283 -7.83717,-4.8797 -12.66056,-2.38119c-3.30221,1.71053 -5.69865,7.92926 -4.03359,11.32691c0.70818,1.44513 3.16681,0.81616 4.52854,1.67384c1.96117,1.23524 2.26919,4.26999 4.21397,5.53086c5.82543,3.77684 11.24253,7.21536 18.61324,5.65439c1.71855,-1.30936 3.67509,-2.25344 5.73657,-2.98037c-0.53696,9.68686 -2.70435,18.46904 -6.22738,21.11543c-11.19736,8.41117 -27.33323,13.30256 -45.94093,13.44349c-24.77572,0.18764 -46.9265,0.66544 -56.59273,-14.57162c-0.90125,-1.42067 -1.55017,-4.76894 -1.97241,-9.06913c1.66544,-0.49621 3.27411,-0.8781 4.12423,-0.69902c2.8949,0.60981 5.5578,4.7741 9.19288,5.51655c2.57596,0.52612 9.73834,0.57387 12.18555,-0.20799c2.90553,-0.92826 2.18575,-2.78373 4.92259,-2.64695c3.13128,0.15649 4.992,4.33226 8.29113,5.75621l2.41247,1.81828c0,0 2.79703,2.06486 4.86188,-0.73217c2.06486,-2.79703 -0.73217,-4.86188 -0.73217,-4.86188l-3.18159,-2.31146c-5.58133,-1.87324 -3.95367,-5.91455 -11.27225,-6.61188c-5.836,-0.55608 -9.63532,4.09467 -16.22448,2.96028c-3.65745,-0.62968 -5.44353,-4.71097 -8.96936,-5.47146c-0.28896,-0.06234 -0.60508,-0.09811 -0.94315,-0.11137c-0.08288,-1.9785 -1.06362,-3.89843 -0.95129,-7.32351c0.04264,-1.29982 1.97435,-2.08172 1.94545,-3.38194c-0.02707,-1.2166 -0.69645,-2.29037 -1.3412,-3.36962c6.96487,-0.75675 13.7437,-3.21006 20.52781,-5.31867c2.57451,2.57448 6.59866,4.25854 10.85299,4.57421c2.38858,0.17722 9.53636,-2.14313 10.75993,-3.59683c1.11752,-1.32773 0.35403,-3.45369 0.60016,-5.17156c0.72355,-5.04994 3.15966,-7.91704 8.28081,-8.817c0,0 0.17309,-0.03599 0.43307,-0.13075c0.69064,0.69334 1.80085,1.25459 3.46546,0.68568c3.28982,-1.12437 2.16545,-4.41414 2.16545,-4.41414l-1.93607,-3.75331c-5.67654,-4.01533 -9.4811,-3.25173 -15.93888,-1.90837c-6.35545,1.13716 -14.27636,3.59965 -18.57611,8.88078c-2.12948,2.61553 -3.01071,5.12326 -2.963,7.39801c-7.09519,2.32032 -14.26642,4.83479 -21.48095,4.85046c0,0 -0.25404,0.00192 -0.62423,0.0734c0.36559,-4.54277 0.92306,-8.09441 1.64345,-9.55759zM534.7129,474.44969c0.89851,2.56829 0.93524,5.63004 2.69553,7.70484c0.88605,1.04438 2.79861,-0.13173 4.09769,0.30209c3.80848,1.27187 1.84292,6.76176 7.57901,8.46528c1.65252,0.49078 4.73414,-2.92366 5.02457,-1.22443c0.82462,4.82505 4.98011,10.09658 11.4438,5.57524c2.19612,-1.53616 4.30328,-4.02488 4.44264,-6.70133c0.06415,-1.23197 -5.46875,-6.78414 -6.81639,-7.94542c-2.88594,-2.48687 -5.6208,-4.89987 -8.32255,-6.0993c-0.67765,-1.1712 -1.95231,-1.49481 -2.62016,-1.58418c-6.51056,-4.18967 -10.80465,-2.52803 -17.5241,1.50722z" fill="url(#color-30)"/></g><g stroke="none"><path d="M132.1019,501.06118c-11.06882,18.04659 -37.06268,17.87965 -66.13081,18.09979c-21.83145,0.16534 -40.84762,-5.2861 -54.13285,-14.95436c-0.1279,-0.0931 -0.25443,-0.19291 -0.37953,-0.29935c1.21795,-2.29055 2.67217,-4.69661 4.34443,-7.49042c-1.29372,-7.36158 3.96245,-6.00393 4.823,-13.7068c0.48413,-4.33331 -2.81747,-8.36291 -3.57794,-12.32772c-0.34474,-1.79734 1.97462,-3.3569 2.45877,-4.53977c1.99951,-4.88499 0.40738,-7.254 -1.20353,-10.65317c-0.21109,-0.4454 1.10431,0.49003 1.47006,0.15962c1.85766,-1.67828 4.55194,-3.30553 4.77247,-5.79932c0.15559,-1.75952 -2.92404,-2.09577 -3.94695,-3.53579c-0.41403,-0.58285 1.57153,-7.30946 1.71352,-8.04835c0,0 0.09754,-0.5077 0.02163,-1.16913c11.96035,-5.78903 26.81997,-9.27459 42.94203,-9.39669c30.56064,-0.23145 55.53616,-2.88844 66.50962,18.57259c3.31289,6.4791 4.39777,48.43417 0.31616,55.08882z" fill="#262626"/><g><g data-paper-data="{&quot;index&quot;:null}"><g><g><g><path d="M28.63603,498.97132l-4.15431,0.01516l-0.18216,-49.85167l4.15431,-0.01519z" fill="url(#color-31)"/><path d="M39.86593,502.56535l-4.15428,0.01516l-0.21064,-57.64104l4.15431,-0.01519z" fill="url(#color-32)"/><path d="M51.55184,503.04192l-4.15431,0.01519l-0.21064,-57.64098l4.15433,-0.01519z" fill="url(#color-33)"/><path d="M62.9943,507.93344l-4.15431,0.01519l-0.24764,-67.76718l4.15431,-0.01519z" fill="url(#color-34)"/><path d="M74.16183,508.67163l-4.15431,0.01519l-0.24764,-67.76721l4.15431,-0.01519z" fill="url(#color-35)"/><path d="M85.84578,508.62892l-4.15431,0.01522l-0.24761,-67.76721l4.15431,-0.01522z" fill="url(#color-36)"/><path d="M97.26635,507.54861l-4.15433,0.01519l-0.24761,-67.76718l4.15431,-0.01519z" fill="url(#color-37)"/><path d="M107.64168,504.65455l-4.15431,0.01519l-0.22577,-61.79534l4.15431,-0.01516z" fill="url(#color-38)"/><path d="M116.1841,455.04075c0,0 -32.7901,-9.43518 -49.05576,-9.37574c-15.85028,0.05793 -51.05095,13.06509 -51.05095,13.06509l-0.46247,-12.87688c0,0 36.79474,-11.7666 52.71725,-11.8248c16.19944,-0.05919 48.22186,8.54792 48.22186,8.54792z" fill="url(#color-39)"/><path d="M117.02453,505.30782c0,0 -31.9587,8.84098 -48.15812,8.90016c-15.92251,0.05815 -52.80223,-11.43925 -52.80223,-11.43925l0.36834,-12.87989c0,0 35.29478,12.74954 51.14505,12.69161c16.26564,-0.05944 48.98597,-9.73404 48.98597,-9.73404z" data-paper-data="{&quot;index&quot;:null}" fill="url(#color-40)"/><path d="M144.86634,479.0569l-149.63435,0.56988l-0.03493,-9.55489l149.63438,-0.5699z" fill="url(#color-41)"/></g></g></g></g><path d="M10.78432,473.89437c0.04981,6.57672 -5.24132,11.9486 -11.81803,11.99841c-6.57674,0.04981 -11.9486,-5.24132 -11.99841,-11.81803c-0.04981,-6.57672 5.24129,-11.9486 11.81803,-11.99841c6.57674,-0.04981 11.9486,5.24129 11.99841,11.81803z" fill="url(#color-42)"/></g><path d="M132.1019,501.06118c-11.06882,18.04659 -37.06268,17.87965 -66.13081,18.09979c-21.83145,0.16534 -40.84762,-5.2861 -54.13285,-14.95436c-3.02564,-2.20189 -5.27514,-8.18779 -6.59101,-15.63219c8.34364,-1.37737 18.17802,0.31278 26.60423,1.42065c3.52906,0.46399 4.89695,3.78788 9.05146,4.7941l2.62485,0.63917c0,0 3.37913,0.81767 4.19677,-2.56146c0.81764,-3.37913 -2.56148,-4.19677 -2.56148,-4.19677l-2.94814,-0.70932c-4.15456,-0.37829 -4.15594,-3.69342 -9.10025,-4.80329c-4.78015,-1.07302 -10.45396,0.26113 -15.30202,-0.57946c-5.40561,-0.93728 -8.37423,-1.7074 -13.48098,-0.90059c-0.13494,-1.45317 -0.23834,-2.93122 -0.30931,-4.42076c7.04456,0.02903 15.59285,1.33694 19.21421,-3.68464c4.46956,-6.19771 -0.17966,-8.43392 -3.58431,-11.47912c-1.31533,-1.17647 3.54165,-1.72289 4.04638,-3.41384c2.42552,-8.12587 -5.38709,-12.9996 -11.7137,-14.29621c0,0 -0.81413,-0.15643 -1.72371,0.08106c0.50096,-0.57965 1.03331,-1.07671 1.5977,-1.48204c13.11515,-9.41845 32.16984,-15.42128 53.41724,-15.5822c30.56064,-0.23145 55.53616,-2.88844 66.50962,18.57259c0.72023,1.4086 1.33517,4.49401 1.81462,8.52893c-0.92597,0.10013 -1.62438,0.52641 -1.62438,0.52641c-6.28754,4.03796 -5.49957,9.5281 -9.36591,14.28625c-1.4576,1.79383 -5.22777,-1.52249 -6.93403,0.03672c-1.54905,1.41553 -0.81718,4.1165 -1.22578,6.17473l0.0158,2.08592c0,0 0.02633,3.47654 3.50287,3.45021c3.47654,-0.02633 3.45021,-3.50287 3.45021,-3.50287l-0.01208,-1.5957c1.00828,0.51043 3.04535,0.77225 5.68997,-1.33719c4.22309,-3.36851 2.96256,-9.25898 7.16496,-12.74816c0.98157,14.82171 0.54744,34.76924 -2.16007,39.18356zM93.68683,475.43319c9.76979,2.76105 15.46563,-10.05575 9.40265,-16.64745c-3.62981,-3.94636 -14.35248,-3.01322 -19.49879,-5.02913c-6.35143,-2.41832 -12.5222,-6.86375 -19.63879,-2.46994c-3.40112,2.0999 -7.81983,10.09762 -5.54593,14.36974c0.94095,1.76787 3.53513,1.92918 5.09173,3.18924c1.91633,1.5513 2.43,4.61133 4.59002,5.80006c7.21437,3.97034 10.05792,-2.06364 15.43434,-4.62736c0.96056,-0.45803 4.8409,1.35985 7.18562,2.30843c0.86993,1.23636 1.59176,2.71429 2.97914,3.10639zM91.69094,495.23015c-2.08388,0.55023 -8.28069,3.14046 -7.05457,6.39777l-1.93345,2.61897c-0.44487,0.58919 -0.7064,1.32415 -0.70038,2.11947c0.01454,1.92002 1.58282,3.46475 3.50287,3.45021c1.15185,-0.00872 2.16865,-0.57665 2.79473,-1.44424l1.63809,-2.21896c2.5715,-1.02472 7.90927,4.87748 11.88224,4.22044c2.10377,-0.34792 4.35485,-1.11633 5.81152,-2.67354c1.31582,-1.40664 0.66442,-3.74572 0.95774,-5.70373c0.86144,-0.00869 1.7228,-0.01666 2.58412,-0.02319l2.08592,-0.0158c0,0 0.79955,-0.00606 1.62884,-0.39581c0.66324,0.17173 1.12071,0.29855 1.16536,0.30711c0,0 3.4142,0.65597 4.07017,-2.7582c0.656,-3.41417 -2.7582,-4.07017 -2.7582,-4.07017c-3.99828,-0.76823 -8.23636,-2.44276 -11.91513,-0.23468c-4.70444,-0.27917 -9.81985,-0.61597 -13.7599,0.42435z" fill="url(#color-43)"/></g><g data-paper-data="{&quot;index&quot;:null}" stroke="none"><path d="M415.2864,424.749c21.24742,-0.16092 40.39079,5.55262 53.64712,14.77135c0.86973,0.60485 1.66827,1.42409 2.39729,2.42515c-6.70616,3.09421 -8.3361,7.63894 -6.50436,14.89542c0.20723,0.82094 1.48077,1.26533 1.41493,2.10948c-0.16347,2.09593 -4.01048,1.93543 -5.06999,3.75119c-2.65078,4.54286 -0.58481,8.319 0.26996,12.59973c0.58211,2.91547 -3.62297,5.96567 -3.40281,9.76063c0.53318,9.1909 5.24373,11.26048 12.24213,15.34933c-0.13137,0.11631 -0.26445,0.22521 -0.39919,0.32642c-13.13725,9.86837 -32.06869,15.6072 -53.90014,15.77254c-29.06815,0.22015 -55.05648,0.78074 -66.39739,-17.0961c-3.73519,-5.88781 -3.7758,-39.99547 -1.45152,-51.86774c0.90179,0.47449 1.83216,0.46744 1.83216,0.46744c9.16835,-0.06944 18.21618,1.66483 27.18072,3.20814c5.0007,0.86091 7.96579,5.7113 13.2391,6.84842l2.76822,0.04657c0,0 3.47654,-0.02633 3.45021,-3.50287c-0.02633,-3.47654 -3.50287,-3.45021 -3.50287,-3.45021l-1.40362,0.07813c-5.21708,-0.80798 -7.84932,-5.74679 -13.2879,-6.85762c-8.82072,-1.80162 -18.40304,-3.28808 -27.51306,-3.32533c11.50808,-18.12059 35.46436,-16.09102 64.391,-16.31009z" fill="#262626"/><g><g data-paper-data="{&quot;index&quot;:null}"><g><g><g><path d="M452.43339,445.90861l4.15406,-0.04773l0.57295,49.84874l-4.15406,0.04776z" fill="url(#color-44)"/><path d="M441.16968,441.88344l4.15406,-0.04773l0.66242,57.63764l-4.15403,0.04776z" fill="url(#color-45)"/><path d="M429.49233,442.53703l4.15406,-0.04773l0.66242,57.63756l-4.15406,0.04773z" fill="url(#color-46)"/><path d="M418.00897,437.47573l4.15406,-0.04773l0.77879,67.76316l-4.15406,0.04773z" fill="url(#color-47)"/><path d="M406.85388,438.38289l4.15406,-0.04773l0.77879,67.76319l-4.15406,0.04773z" fill="url(#color-48)"/><path d="M395.17062,438.51719l4.15406,-0.0477l0.77882,67.76319l-4.15406,0.0477z" fill="url(#color-49)"/><path d="M383.73499,437.61003l4.15406,-0.04773l0.77882,67.76316l-4.15406,0.04773z" fill="url(#color-50)"/><path d="M373.38558,440.8449l4.15406,-0.04776l0.71021,61.79168l-4.15403,0.04773z" fill="url(#color-51)"/><path d="M364.24426,440.70043c0,0 31.88838,-9.09113 48.08686,-9.27731c15.92156,-0.18297 52.89033,11.02499 52.89033,11.02499l-0.26738,12.88241c0,0 -35.39364,-12.47252 -51.24298,-12.29037c-16.26473,0.18696 -48.90813,10.11767 -48.90813,10.11767z" fill="url(#color-52)"/><path d="M364.99611,490.96494c0,0 32.86311,9.17791 49.12775,8.99098c15.84936,-0.18214 50.94696,-13.46479 50.94696,-13.46479l0.56343,12.87284c0,0 -36.70138,12.05466 -52.62295,12.23768c-16.19845,0.18618 -48.28739,-8.16974 -48.28739,-8.16974z" data-paper-data="{&quot;index&quot;:null}" fill="url(#color-53)"/><path d="M336.37793,468.05132l149.62585,-1.69652l0.1098,9.55432l-149.62585,1.69655z" fill="url(#color-54)"/></g></g></g></g><path d="M482.29424,458.41455c6.57669,-0.04981 11.9486,5.24129 11.99841,11.81803c0.04981,6.57672 -5.24126,11.9486 -11.81803,11.99841c-6.57672,0.04981 -11.9486,-5.24132 -11.99841,-11.81803c-0.04981,-6.57672 5.24126,-11.9486 11.81803,-11.99841z" fill="url(#color-55)"/></g><path d="M415.2864,424.749c21.24742,-0.16092 40.39079,5.55262 53.64712,14.77135c1.63676,1.13824 3.02133,3.03584 4.16513,5.47552c-0.02662,-0.00022 -0.05343,-0.00024 -0.08047,-0.00003c-3.47654,0.02633 -3.45021,3.50287 -3.45021,3.50287c0.15034,4.15075 2.90332,6.65782 2.86022,10.40854c-0.03993,3.47509 -2.39424,6.55579 -2.68793,10.10795c-0.51112,6.18236 3.75156,13.79033 1.70434,20.09066c-0.71629,2.20431 -3.52246,3.35728 -4.12972,5.59405c-0.68611,2.52714 -0.6883,5.29692 -0.41394,8.14028c-12.9471,8.57706 -30.68807,13.5168 -50.9196,13.67002c-26.53871,0.20099 -50.51024,0.68576 -63.11168,-12.83573c1.42867,-1.97067 6.49983,-3.67618 8.27361,-6.00334c2.32169,-1.76888 5.3382,-3.55927 5.80335,-6.91393c0.52681,-3.79944 -3.30665,-6.59533 -2.84797,-10.5219c0.41829,-3.58109 2.28296,-7.04839 2.67004,-10.19963c0.52607,-4.28262 -2.50729,-8.85492 -4.84911,-13.24096c7.9393,2.86792 16.75319,4.71096 25.27479,1.91852c9.45542,-3.0984 10.10003,-15.34033 1.2641,-20.27455c-4.73841,-2.64607 -9.13958,1.162 -13.0519,2.55512c-3.4551,1.23029 -6.51998,-2.64651 -8.46931,-4.60648c0,0 -2.24349,-2.20973 -4.56319,-0.288l-2.75068,0.08795c-1.06116,0.34136 -1.98673,0.76266 -2.78536,1.24955c-0.6968,-0.44105 -1.45811,-0.79948 -2.26753,-1.08345c12.50574,-13.04391 34.5824,-11.40646 60.71588,-11.60438zM376.32213,488.51674l-0.07786,-0.47127c2.03499,4.6107 4.5338,6.1443 7.70774,9.93591c7.30797,1.71993 12.6679,0.31404 19.85613,-1.06265c2.2831,-0.43725 8.05576,-1.00245 9.52744,-3.19282c1.53722,-2.2879 2.67207,-5.3736 1.95426,-8.03485c-0.49419,-1.8322 -3.32787,-1.8351 -4.9022,-2.89465c-4.11454,-2.76911 -8.43325,-6.62139 -13.22666,-7.84306c-9.07352,-2.31248 -9.97987,6.76824 -16.41133,8.24845c-0.82436,-0.57076 -2.6548,-1.43918 -4.46473,0.39837c-2.43968,2.47692 0.03724,4.91655 0.03724,4.91655zM425.29474,478.73396l1.98458,-0.26369c5.15,-2.42685 6.15009,1.38726 10.84188,2.76951c7.27817,2.14421 15.33509,-3.45383 22.62894,-3.46969c0,0 3.47654,-0.02633 3.45021,-3.50287c-0.02633,-3.47654 -3.50287,-3.45021 -3.50287,-3.45021c-5.41468,0.06498 -15.5181,5.69844 -20.42745,3.80984c-6.30216,-2.4244 -8.36254,-5.30583 -15.62192,-2.59282l0.59397,-0.25315c0,0 -3.47654,0.02633 -3.45021,3.50287c0.02633,3.47654 3.50287,3.45021 3.50287,3.45021z" fill="url(#color-56)"/></g><path d="M139.25914,536.68913c4.3925,-15.27533 9.20926,-27.82714 14.74965,-38.09117c17.68106,-32.75567 -85.59249,-58.49154 84.77528,-56.85065c179.00464,1.72407 69.10526,18.57482 88.46991,57.59425c5.28245,10.64403 10.10824,23.85048 14.71794,40.21864c13.20778,46.89765 28.39734,102.86578 -19.61013,131.01c-6.56585,1.78553 -13.02428,3.97169 -19.11966,5.90778c-10.77932,3.42384 -22.60775,3.61269 -33.1979,7.57638c-1.26348,-0.77517 -2.79447,-0.38008 -2.79447,-0.38008l-1.93356,0.60619c-21.06113,0.15951 -46.6407,1.55941 -64.44234,-11.58237c-7.02616,-2.80697 -13.00171,-7.56559 -19.83289,-10.42305c-5.48442,-2.29411 -12.22328,1.10174 -17.39321,-1.25897c-2.20869,-1.00855 -3.61373,-3.47618 -5.91464,-4.25167c-5.50975,-1.85699 -11.47757,-2.41721 -17.22724,-4.6667c0,0 -2.06239,-0.80689 -3.5391,0.51335c-23.21045,-31.26311 -8.77965,-77.41801 2.29235,-115.92199z" data-paper-data="{&quot;index&quot;:null}" fill="#262626" stroke="none"/><g stroke="none"><path d="M202.22648,474.26152l32.42959,-119.99469l11.26714,3.27726l-31.76482,119.87913z" fill="url(#color-57)"/><path d="M265.50901,477.03428l-33.57687,-119.38424l11.21623,-3.44753l34.24331,119.48978z" data-paper-data="{&quot;index&quot;:null}" fill="url(#color-58)"/><g><path d="M200.8537,543.17061l-37.86046,-66.33514l7.13283,-4.07104l37.86041,66.33514z" fill="url(#color-59)"/><path d="M270.35735,537.46815l36.85135,-66.90096l7.19367,3.96254l-36.85138,66.90097z" data-paper-data="{&quot;index&quot;:null}" fill="url(#color-60)"/><path d="M231.19666,538.49012l-0.59721,-196.74444l17.08844,0.31699l1.4866,196.29132z" fill="url(#color-61)"/><path d="M146.66999,479.10521l-0.05598,-7.39131l185.60409,-1.40566l0.05598,7.39131z" fill="url(#color-62)"/><path d="M158.96087,475.31625c0.04981,6.57672 -5.24132,11.9486 -11.81803,11.99841c-6.57674,0.04981 -11.94857,-5.24132 -11.99838,-11.81803c-0.04981,-6.57672 5.24129,-11.9486 11.81801,-11.99841c6.57674,-0.04981 11.9486,5.24129 11.99841,11.81803z" fill="url(#color-63)"/><path d="M345.86713,473.56295c0.04981,6.57672 -5.24132,11.9486 -11.81806,11.99841c-6.57672,0.04981 -11.9486,-5.24132 -11.99841,-11.81803c-0.04981,-6.57672 5.24129,-11.9486 11.81803,-11.99841c6.57672,-0.04981 11.94863,5.24129 11.99843,11.81803z" fill="url(#color-64)"/><path d="M218.26497,700.63903l-1.22888,-162.26248l46.83701,-0.35472l1.22888,162.26248z" fill="url(#color-65)"/><path d="M199.48966,542.54717l-0.06808,-8.98893l79.00784,-0.59836l0.06808,8.98893z" fill="url(#color-66)"/><path d="M212.66325,549.36908l-0.03119,-4.11811l56.47219,-0.42769l0.03119,4.11811z" fill="url(#color-67)"/><path d="M212.59603,558.53644l-0.03119,-4.11817l56.47219,-0.42769l0.03119,4.11817z" fill="url(#color-68)"/><path d="M212.66397,567.50718l-0.03119,-4.11814l56.47219,-0.42769l0.03119,4.11814z" fill="url(#color-69)"/><path d="M212.59669,576.67459l-0.03119,-4.11814l56.47221,-0.42769l0.03119,4.11814z" fill="url(#color-70)"/><path d="M212.79984,585.44869l-0.03119,-4.11814l56.47219,-0.42769l0.03119,4.11814z" fill="url(#color-71)"/><path d="M212.73257,594.61605l-0.03119,-4.11811l56.47221,-0.42769l0.03119,4.11811z" fill="url(#color-72)"/><path d="M212.80053,603.58682l-0.03119,-4.11817l56.47219,-0.42769l0.03119,4.11817z" fill="url(#color-73)"/><path d="M212.73329,612.7542l-0.03119,-4.11811l56.47221,-0.42769l0.03119,4.11811z" fill="url(#color-74)"/><path d="M212.66358,621.58936l-0.03119,-4.11814l56.47219,-0.42769l0.03119,4.11814z" fill="url(#color-75)"/></g></g><g stroke="none"><path d="M139.25914,536.68913c4.3925,-15.27533 9.20926,-27.82714 14.74965,-38.09117c17.68106,-32.75567 -85.59249,-58.49154 84.77528,-56.85065c179.00464,1.72407 69.10526,18.57482 88.46991,57.59425c5.28245,10.64403 10.10824,23.85048 14.71794,40.21864c10.78918,38.30985 22.90084,82.67239 0.80578,112.97643c-1.5117,-0.52336 -2.99959,0.38477 -2.99959,0.38477c-2.22316,1.52866 -3.68078,4.00968 -5.00805,6.35863c-0.52721,0.93303 -8.82429,0.1387 -9.54916,0.38806c-3.45283,1.18774 -5.71269,5.97889 -8.98634,7.02153c-2.52722,0.80491 -5.45198,-0.13772 -7.91062,0.85717c-3.97666,1.60917 -7.97758,7.826 -13.25199,5.64745c-2.30628,-0.95257 -1.33168,-5.488 -3.57744,-6.57564c-2.16789,-1.04994 -4.81324,0.20336 -7.21987,0.30506c-5.09333,2.54983 -10.43168,2.59343 -15.19065,5.25789c-3.49252,1.9554 -4.23596,5.86983 -7.04482,7.79173c-1.70791,1.1686 -4.23215,-0.26636 -6.1963,0.38528c-4.15766,1.3794 -6.37905,3.76914 -11.43383,2.7523c-2.76725,-0.55668 -5.4336,-2.48822 -8.21973,-2.0355c-1.44154,0.23424 -2.40726,1.73432 -3.79483,2.18993c-4.29624,1.41063 -11.85939,-0.03635 -16.45562,-0.00154c-2.53523,0.0192 -6.59335,0.78083 -9.01357,-0.32427c-3.73997,-1.70776 -5.36947,-4.81428 -9.84452,-5.72828c-1.85728,-0.37933 -4.28952,1.89023 -5.65742,0.57787c-1.52474,-1.46284 -2.10369,-3.67427 -3.34155,-5.38672c-4.41057,-6.10153 -5.87982,-14.69352 -9.45236,-21.34249c-1.07054,-1.99243 -1.59027,-5.18712 -3.81149,-5.61388c-2.47712,-0.47594 -4.69306,2.01703 -6.65447,3.60304c-0.49641,0.40139 0.22399,2.41722 -0.16147,1.90834c-1.44118,-1.90268 -1.53394,-4.53623 -2.5961,-6.67394l-1.34354,-5.20629c-0.36305,-1.54551 -1.75635,-2.69076 -3.41085,-2.67823c-1.49227,0.0113 -2.75784,0.96116 -3.24084,2.28526l-1.33479,3.41166l0.63685,0.24917c-2.48734,4.42122 -3.63334,8.76077 -5.42728,14.47937c-0.23234,0.74064 -2.90138,4.9687 -4.45154,4.26576c-2.91766,-1.32307 -3.98742,-9.22142 -6.99504,-11.36106c-2.25461,-1.60395 -4.59722,-2.7367 -7.00858,-3.53374c-17.17298,-30.94094 -3.90824,-73.55801 6.42881,-109.50614zM200.75309,514.4094c-0.02633,-3.47654 -3.50287,-3.45021 -3.50287,-3.45021c-11.191,0.25687 -11.35174,-16.98969 -25.52858,-12.14448c-8.95425,3.06031 -7.62039,9.81688 -9.02459,16.86952c-0.50905,2.55664 -6.11653,3.05092 -7.47376,6.69044c-1.19566,3.20629 0.71154,7.44131 3.24768,9.73866c6.61965,4.87393 21.32465,11.32616 28.91436,4.3255c1.75404,-1.61789 1.75463,-4.58403 3.42914,-6.28409c4.12984,-4.19287 11.93203,-3.64109 11.32731,-12.03958c-0.07609,-1.05691 -0.75313,-1.9156 -1.48,-2.75789c0.06113,-0.28336 0.0939,-0.59813 0.09126,-0.94781zM311.47732,557.74476l-1.61828,0.83602c-2.18812,1.5823 -4.14001,2.45764 -5.09422,3.91547c-2.07798,0.78151 -4.3707,1.5212 -5.51989,1.31835c-4.51494,-0.79694 -3.79202,-9.20174 -11.22342,-5.97815c-5.71256,2.47798 -2.69343,5.68319 -3.25075,9.07428c-0.34387,2.09243 -4.32284,1.34742 -5.57986,3.0552c-1.31682,1.789 -1.39206,4.27825 -1.47924,6.49793c-0.34418,8.76445 6.56845,7.63659 10.90363,12.11242c3.62084,3.73833 5.92514,6.68876 10.41312,9.74275c1.89176,-0.01433 3.87129,0.52665 5.67529,-0.04298c5.22178,-1.64883 4.31427,-6.37927 7.90114,-8.94279c4.8228,-3.44681 11.31629,-5.71254 10.28396,-13.5855c-0.64392,-4.91064 -8.59076,-7.92517 -10.10574,-9.82212c0.19051,-0.35401 0.32145,-0.77046 0.34311,-1.25611c0.10357,-0.05255 0.22178,-0.10376 0.35533,-0.15366l1.15239,-0.57566c0,0 3.09775,-1.57831 1.51944,-4.67603c-1.57828,-3.09772 -4.67603,-1.51944 -4.67603,-1.51944zM164.80669,566.24958c-9.58839,2.85398 -5.24104,22.22747 2.29919,25.92646c1.858,0.91146 10.3344,0.16352 11.37787,-1.2467c1.16907,-1.58 -0.76757,-3.86991 -0.86182,-5.83316c-0.12401,-2.58367 3.06274,-4.68806 2.75114,-7.25584c-0.51802,-4.26901 -2.90453,-5.41818 -5.74267,-6.52565c-1.60933,-3.56815 -5.40122,-6.38146 -9.8237,-5.06511z" data-paper-data="{&quot;index&quot;:null}" fill="url(#color-76)"/><path d="M238.43944,474.89481c113.37201,19.61888 123.60876,176.99386 2.50955,185.91038c-84.76385,-7.02675 -104.07095,-74.56959 -79.38006,-126.66139c7.37563,4.3448 19.25496,8.3472 25.81643,2.29496c1.75404,-1.61789 1.75463,-4.58403 3.42914,-6.28409c4.12984,-4.19287 11.93203,-3.64109 11.32731,-12.03958c-0.07609,-1.05691 -0.75313,-1.9156 -1.48,-2.75789c0.06113,-0.28336 0.0939,-0.59813 0.09126,-0.94781c-0.02633,-3.47654 -3.50287,-3.45021 -3.50287,-3.45021c-6.11299,0.14031 -8.93476,-4.94203 -12.54758,-8.79354c14.05264,-13.35905 32.20735,-23.30767 53.7368,-27.27082zM311.47732,557.74476l-1.61828,0.83602c-2.18812,1.5823 -4.14001,2.45764 -5.09422,3.91547c-2.07798,0.78151 -4.3707,1.5212 -5.51989,1.31835c-4.51494,-0.79694 -3.79202,-9.20174 -11.22342,-5.97815c-5.71256,2.47798 -2.69343,5.68319 -3.25075,9.07428c-0.34387,2.09243 -4.32284,1.34742 -5.57986,3.0552c-1.31682,1.789 -1.39206,4.27825 -1.47924,6.49793c-0.34418,8.76445 6.56845,7.63659 10.90363,12.11242c3.62084,3.73833 5.92514,6.68876 10.41312,9.74275c1.89176,-0.01433 3.87129,0.52665 5.67529,-0.04298c5.22178,-1.64883 4.31427,-6.37927 7.90114,-8.94279c4.8228,-3.44681 11.31629,-5.71254 10.28396,-13.5855c-0.64392,-4.91064 -8.59076,-7.92517 -10.10574,-9.82212c0.19051,-0.35401 0.32145,-0.77046 0.34311,-1.25611c0.10357,-0.05255 0.22178,-0.10376 0.35533,-0.15366l1.15239,-0.57566c0,0 3.09775,-1.57831 1.51944,-4.67603c-1.57828,-3.09772 -4.67603,-1.51944 -4.67603,-1.51944zM164.80669,566.24958c-9.58839,2.85398 -5.24104,22.22747 2.29919,25.92646c1.858,0.91146 10.3344,0.16352 11.37787,-1.2467c1.16907,-1.58 -0.76757,-3.86991 -0.86182,-5.83316c-0.12401,-2.58367 3.06274,-4.68806 2.75114,-7.25584c-0.51802,-4.26901 -2.90453,-5.41818 -5.74267,-6.52565c-1.60933,-3.56815 -5.40122,-6.38146 -9.8237,-5.06511z" data-paper-data="{&quot;index&quot;:null}" fill="url(#color-77)"/></g><g><g stroke="#000000"><path d="M239.20216,491.97991c-73.25689,0.18124 -79.51518,-21.81729 -94.3371,-63.48352c0.31314,-5.87474 9.64573,-14.42794 24.62437,-19.83341c15.81575,-5.70756 37.93324,-14.42956 64.55394,-14.63117c27.43221,-0.20776 53.265,8.23273 71.78284,13.06566c7.56849,1.97526 27.13612,10.40899 28.2282,21.98336c-15.07178,41.5518 -29.30639,62.73696 -94.85225,62.89916z" fill="url(#color-78)"/><path d="M169.4894,408.66292c15.81575,-5.70756 37.93324,-14.42956 64.55394,-14.63117c27.43221,-0.20776 53.265,8.23273 71.78284,13.06566c7.09321,1.85123 24.7259,9.37526 27.81145,19.84082c-3.62342,1.7637 -7.00948,4.48175 -8.55083,7.78122c-1.31015,2.80458 -0.76055,5.98858 -1.88878,8.68242c-1.25382,2.99362 -3.68042,5.53753 -4.73086,8.727c-2.22803,6.76497 -3.06127,11.9512 -9.7337,15.72451c-3.00742,2.44353 -7.09863,4.30016 -9.79986,7.02246c-2.20442,2.2217 -3.0897,5.17929 -6.26184,6.60118c-5.62157,2.51982 -11.75498,3.368 -17.39347,5.77614c-2.30618,0.98494 -4.43074,1.9743 -6.49526,2.77345c-3.59718,0.53785 -7.41869,0.96492 -11.48467,1.28089c-1.26077,-0.30817 -2.57255,-0.78768 -3.95653,-1.47274c-11.34286,-4.74495 -20.05095,-1.42174 -31.46323,-0.96492c-1.61672,0.06467 -2.95341,-1.36905 -4.52306,-1.7616c-5.62215,-1.406 -14.95332,-0.93189 -22.33618,0.73567c-6.42379,-1.59802 -11.83119,-3.65451 -16.45683,-6.16164c-1.45399,-4.41726 -2.54187,-9.36009 -4.19912,-12.02365c-6.11014,-3.31406 -7.93224,-12.89071 -12.25794,-18.16492c-1.47176,-1.7945 -6.93623,-3.0379 -7.04687,-6.16562c-0.18927,-5.35065 0.62577,-7.546 -1.66665,-12.90359c-1.12029,-2.61829 0.74005,-5.81306 -0.06985,-8.54331c-0.42614,-1.43664 -2.01686,-2.21685 -3.02527,-3.32527c0,0 -0.20647,-0.20337 -0.55138,-0.41117c4.22807,-4.12784 11.03073,-8.33742 19.7439,-11.48185z" fill="url(#color-79)"/></g><path d="M237.8199,469.68167c-54.84683,0.13018 -59.59674,-24.85033 -70.69846,-56.66302c0.2338,-4.48517 40.76725,-18.69061 68.68599,-18.59852c27.91872,0.09215 72.1396,10.22906 72.95856,19.06586c-11.27946,31.72197 -21.87245,56.07921 -70.94606,56.19567z" fill="url(#color-80)" stroke="#000000"/><g><path d="M203.25173,420.70124l-0.02421,-3.19694l70.10449,-0.53093l0.02421,3.19694z" fill="url(#color-81)" stroke="none"/><path d="M225.19094,422.81874l-0.74711,-98.64866l4.56703,-0.03459l0.74711,98.64866z" fill="url(#color-82)" stroke="none"/><path d="M247.56957,422.64926l-0.74711,-98.64866l4.56706,-0.03459l0.74711,98.64866z" fill="url(#color-83)" stroke="none"/><g><path d="M197.02049,419.98091c-0.01941,-2.56251 7.52482,-5.45074 7.52482,-5.45074c0,0 6.28969,10.08496 34.81432,12.92624c27.56155,-3.11142 31.65512,-13.80126 31.65512,-13.80126c0,0 9.23717,2.83309 9.25885,5.69525c0.0494,6.52304 -17.4956,16.26556 -41.36035,16.44629c-23.86478,0.18074 -41.84338,-9.29272 -41.89278,-15.81578z" fill="url(#color-84)" stroke="none"/><path d="M272.2289,420.75879c0,0 0.27337,-2.63802 0.38233,-4.68222c0.13099,-2.4581 -0.17253,-7.75699 -0.17253,-7.75699c0,0 2.83136,4.84596 3.61672,7.23034c0.71114,2.15906 1.33938,4.95408 1.33938,4.95408z" data-paper-data="{&quot;index&quot;:null}" fill="url(#color-85)" stroke="#000000"/><path d="M199.839,421.09134c0,0 0.5858,-2.80421 1.26419,-4.9738c0.74918,-2.396 3.50682,-7.28429 3.50682,-7.28429c0,0 -0.22321,5.30288 -0.05503,7.75877c0.13985,2.04232 0.4532,4.67589 0.4532,4.67589z" data-paper-data="{&quot;index&quot;:null}" fill="url(#color-86)" stroke="#000000"/><path d="M267.98728,424.6482c0,0 0.27337,-2.63802 0.38233,-4.68219c0.13099,-2.4581 -0.17253,-7.75701 -0.17253,-7.75701c0,0 2.83138,4.84599 3.61674,7.23036c0.71114,2.15904 1.33938,4.95408 1.33938,4.95408z" data-paper-data="{&quot;index&quot;:null}" fill="url(#color-87)" stroke="#000000"/><path d="M204.13906,424.91606c0,0 0.58583,-2.80424 1.26422,-4.9738c0.74918,-2.396 3.50682,-7.28431 3.50682,-7.28431c0,0 -0.22321,5.30291 -0.05503,7.75879c0.13985,2.04232 0.4532,4.67589 0.4532,4.67589z" data-paper-data="{&quot;index&quot;:null}" fill="url(#color-88)" stroke="#000000"/><path d="M262.0789,427.77876c0,0 0.27337,-2.63805 0.38233,-4.68222c0.13099,-2.45813 -0.17251,-7.75701 -0.17251,-7.75701c0,0 2.83136,4.84596 3.61672,7.23036c0.71114,2.15906 1.33938,4.95408 1.33938,4.95408z" data-paper-data="{&quot;index&quot;:null}" fill="url(#color-89)" stroke="#000000"/><path d="M210.09413,427.95679c0,0 0.58583,-2.80424 1.26419,-4.97382c0.74918,-2.396 3.50685,-7.28431 3.50685,-7.28431c0,0 -0.22321,5.30288 -0.05503,7.75877c0.13985,2.04232 0.4532,4.67589 0.4532,4.67589z" data-paper-data="{&quot;index&quot;:null}" fill="url(#color-90)" stroke="#000000"/><path d="M255.92747,430.13971c0,0 0.27337,-2.63805 0.38233,-4.68222c0.13099,-2.45813 -0.17253,-7.75699 -0.17253,-7.75699c0,0 2.83138,4.84596 3.61674,7.23034c0.71114,2.15906 1.33938,4.95411 1.33938,4.95411z" data-paper-data="{&quot;index&quot;:null}" fill="url(#color-91)" stroke="#000000"/><path d="M216.28064,430.22428c0,0 0.58583,-2.80424 1.26419,-4.97382c0.74918,-2.396 3.50682,-7.28429 3.50682,-7.28429c0,0 -0.22321,5.30288 -0.05503,7.75874c0.13985,2.04232 0.4532,4.67589 0.4532,4.67589z" data-paper-data="{&quot;index&quot;:null}" fill="url(#color-92)" stroke="#000000"/><path d="M249.05956,431.88893c0,0 0.2734,-2.63805 0.38233,-4.68222c0.13099,-2.45813 -0.17256,-7.75701 -0.17256,-7.75701c0,0 2.83141,4.84593 3.61677,7.23031c0.71114,2.15906 1.33938,4.95411 1.33938,4.95411z" data-paper-data="{&quot;index&quot;:null}" fill="url(#color-93)" stroke="#000000"/><path d="M223.17425,431.86927c0,0 0.5858,-2.80424 1.26419,-4.97382c0.74918,-2.396 3.50682,-7.28429 3.50682,-7.28429c0,0 -0.22321,5.30288 -0.05503,7.75874c0.13985,2.04232 0.4532,4.67589 0.4532,4.67589z" data-paper-data="{&quot;index&quot;:null}" fill="url(#color-94)" stroke="#000000"/><path d="M241.94852,432.86851c0,0 0.2734,-2.63805 0.38233,-4.68219c0.13099,-2.45813 -0.17256,-7.75701 -0.17256,-7.75701c0,0 2.83138,4.84596 3.61674,7.23034c0.71114,2.15906 1.33938,4.95411 1.33938,4.95411z" data-paper-data="{&quot;index&quot;:null}" fill="url(#color-95)" stroke="#000000"/><path d="M230.29932,432.74104c0,0 0.58583,-2.80427 1.26419,-4.97382c0.74918,-2.396 3.50685,-7.28429 3.50685,-7.28429c0,0 -0.22321,5.30288 -0.05503,7.75877c0.13985,2.04232 0.4532,4.67586 0.4532,4.67586z" data-paper-data="{&quot;index&quot;:null}" fill="url(#color-96)" stroke="#000000"/></g></g><g data-paper-data="{&quot;index&quot;:null}"><path d="M304.67706,431.99824c0,0 0.51596,-7.96727 0.7136,-14.14181c0.23762,-7.42491 -0.401,-23.43508 -0.401,-23.43508c0,0 5.60095,14.66209 7.16281,21.87158c1.41424,6.52811 2.67077,14.97688 2.67077,14.97688z" data-paper-data="{&quot;index&quot;:null}" fill="url(#color-97)" stroke="#000000"/><path d="M316.83002,427.60851l0.08112,10.71118c0,0 -2.7587,2.15141 -7.52242,2.0767c-4.95096,-0.07763 -7.20544,-1.96516 -7.20544,-1.96516l-0.08112,-10.71118z" fill="url(#color-98)" stroke="none"/></g><g data-paper-data="{&quot;index&quot;:null}"><path d="M162.47259,432.42362c0,0 1.12842,-8.46686 2.44363,-15.01561c1.45252,-7.23229 6.83075,-21.97756 6.83075,-21.97756c0,0 -0.39605,16.01801 -0.046,23.43847c0.29111,6.17084 0.92768,14.12938 0.92768,14.12938z" data-paper-data="{&quot;index&quot;:null}" fill="url(#color-99)" stroke="#000000"/><path d="M175.13848,428.6816l0.08112,10.71118c0,0 -2.22569,1.92144 -7.17485,2.07407c-4.76207,0.14688 -7.55301,-1.96253 -7.55301,-1.96253l-0.08112,-10.71118z" fill="url(#color-100)" stroke="none"/></g><g data-paper-data="{&quot;index&quot;:null}"><path d="M296.3757,443.71401c0,0 0.51594,-7.96724 0.71357,-14.14178c0.23762,-7.42491 -0.401,-23.43511 -0.401,-23.43511c0,0 5.60095,14.66209 7.16281,21.8716c1.41424,6.52811 2.6708,14.97688 2.6708,14.97688z" data-paper-data="{&quot;index&quot;:null}" fill="url(#color-101)" stroke="#000000"/><path d="M308.52864,439.32431l0.08112,10.71121c0,0 -2.7587,2.15138 -7.52245,2.07668c-4.95096,-0.07763 -7.20544,-1.96514 -7.20544,-1.96514l-0.08112,-10.71121z" fill="url(#color-102)" stroke="none"/></g><g data-paper-data="{&quot;index&quot;:null}"><path d="M170.95047,444.01234c0,0 1.12842,-8.46686 2.44363,-15.01561c1.45252,-7.23229 6.83075,-21.97758 6.83075,-21.97758c0,0 -0.39605,16.01804 -0.046,23.4385c0.29111,6.17086 0.92771,14.12935 0.92771,14.12935z" data-paper-data="{&quot;index&quot;:null}" fill="url(#color-103)" stroke="#000000"/><path d="M183.61639,440.27032l0.08112,10.71121c0,0 -2.22569,1.92144 -7.17485,2.07404c-4.76207,0.14688 -7.55301,-1.9625 -7.55301,-1.9625l-0.08112,-10.71121z" fill="url(#color-104)" stroke="none"/></g><g data-paper-data="{&quot;index&quot;:null}"><path d="M284.79404,453.1241c0,0 0.51596,-7.96725 0.71357,-14.14181c0.23762,-7.42491 -0.401,-23.43511 -0.401,-23.43511c0,0 5.601,14.66209 7.16287,21.87158c1.41424,6.52811 2.67077,14.97688 2.67077,14.97688z" data-paper-data="{&quot;index&quot;:null}" fill="url(#color-105)" stroke="#000000"/><path d="M296.947,448.7344l0.08112,10.71115c0,0 -2.7587,2.15141 -7.52242,2.0767c-4.95096,-0.07763 -7.20544,-1.96516 -7.20544,-1.96516l-0.08112,-10.71115z" fill="url(#color-106)" stroke="none"/></g><g data-paper-data="{&quot;index&quot;:null}"><path d="M182.67331,453.24588c0,0 1.12845,-8.46686 2.44366,-15.01561c1.45252,-7.23229 6.83072,-21.97756 6.83072,-21.97756c0,0 -0.39605,16.01804 -0.046,23.4385c0.29111,6.17086 0.92771,14.12938 0.92771,14.12938z" data-paper-data="{&quot;index&quot;:null}" fill="url(#color-107)" stroke="#000000"/><path d="M195.33925,449.50392l0.08112,10.71115c0,0 -2.22569,1.92147 -7.17485,2.07407c-4.76207,0.14688 -7.55301,-1.96253 -7.55301,-1.96253l-0.08112,-10.71115z" fill="url(#color-108)" stroke="none"/></g><g data-paper-data="{&quot;index&quot;:null}"><path d="M272.72864,460.20722c0,0 0.51594,-7.96724 0.71357,-14.14178c0.23765,-7.42491 -0.401,-23.43511 -0.401,-23.43511c0,0 5.60097,14.66209 7.16284,21.8716c1.41424,6.52811 2.67077,14.97688 2.67077,14.97688z" data-paper-data="{&quot;index&quot;:null}" fill="url(#color-109)" stroke="#000000"/><path d="M284.88158,455.81752l0.08112,10.71118c0,0 -2.7587,2.15138 -7.52245,2.07668c-4.95096,-0.07763 -7.20544,-1.96514 -7.20544,-1.96514l-0.08112,-10.71118z" fill="url(#color-110)" stroke="none"/></g><g data-paper-data="{&quot;index&quot;:null}"><path d="M194.84463,460.14548c0,0 1.12845,-8.46686 2.44366,-15.01561c1.45252,-7.23229 6.83075,-21.97758 6.83075,-21.97758c0,0 -0.39608,16.01804 -0.046,23.4385c0.29111,6.17086 0.92771,14.12935 0.92771,14.12935z" data-paper-data="{&quot;index&quot;:null}" fill="url(#color-111)" stroke="#000000"/><path d="M207.51054,456.40349l0.08112,10.71118c0,0 -2.22566,1.92144 -7.17482,2.07404c-4.76207,0.14688 -7.55301,-1.9625 -7.55301,-1.9625l-0.08112,-10.71118z" fill="url(#color-112)" stroke="none"/></g><g data-paper-data="{&quot;index&quot;:null}"><path d="M259.25084,465.43662c0,0 0.51596,-7.96727 0.71357,-14.14181c0.23765,-7.42491 -0.401,-23.43511 -0.401,-23.43511c0,0 5.60097,14.66209 7.16284,21.8716c1.41427,6.52811 2.67077,14.97688 2.67077,14.97688z" data-paper-data="{&quot;index&quot;:null}" fill="url(#color-113)" stroke="#000000"/><path d="M271.40377,461.04689l0.08112,10.71118c0,0 -2.7587,2.15141 -7.52242,2.07668c-4.95096,-0.07763 -7.20544,-1.96514 -7.20544,-1.96514l-0.08112,-10.71118z" fill="url(#color-114)" stroke="none"/></g><g data-paper-data="{&quot;index&quot;:null}"><path d="M208.40009,465.17011c0,0 1.1284,-8.46686 2.44363,-15.01561c1.45252,-7.23229 6.83075,-21.97758 6.83075,-21.97758c0,0 -0.39605,16.01804 -0.046,23.4385c0.29111,6.17086 0.92771,14.12938 0.92771,14.12938z" data-paper-data="{&quot;index&quot;:null}" fill="url(#color-115)" stroke="#000000"/><path d="M221.066,461.42812l0.08112,10.71118c0,0 -2.22569,1.92144 -7.17485,2.07404c-4.76207,0.14688 -7.55301,-1.9625 -7.55301,-1.9625l-0.08112,-10.71118z" fill="url(#color-116)" stroke="none"/></g><g data-paper-data="{&quot;index&quot;:null}"><path d="M245.28928,468.33901c0,0 0.51599,-7.96725 0.7136,-14.14178c0.23765,-7.42491 -0.401,-23.43511 -0.401,-23.43511c0,0 5.60097,14.66209 7.16284,21.8716c1.41427,6.52811 2.6708,14.97688 2.6708,14.97688z" data-paper-data="{&quot;index&quot;:null}" fill="url(#color-117)" stroke="#000000"/><path d="M257.44224,463.94934l0.08112,10.71121c0,0 -2.7587,2.15138 -7.52242,2.07668c-4.95096,-0.07763 -7.20544,-1.96514 -7.20544,-1.96514l-0.08112,-10.71121z" fill="url(#color-118)" stroke="none"/></g><g data-paper-data="{&quot;index&quot;:null}"><path d="M222.40398,467.86074c0,0 1.12842,-8.46686 2.44366,-15.01561c1.45252,-7.23229 6.83072,-21.97758 6.83072,-21.97758c0,0 -0.39605,16.01804 -0.046,23.4385c0.29111,6.17086 0.92768,14.12935 0.92768,14.12935z" data-paper-data="{&quot;index&quot;:null}" fill="url(#color-119)" stroke="#000000"/><path d="M235.0699,464.11878l0.08112,10.71121c0,0 -2.22569,1.92144 -7.17485,2.07404c-4.76207,0.14688 -7.55301,-1.9625 -7.55301,-1.9625l-0.08112,-10.71121z" fill="url(#color-120)" stroke="none"/></g></g><g><g><g><path d="M154.47591,365.62761c0,0 -0.51596,7.96725 -0.7136,14.14181c-0.23765,7.42491 0.401,23.43508 0.401,23.43508c0,0 -5.60092,-14.66209 -7.16281,-21.87158c-1.41427,-6.52811 -2.6708,-14.97688 -2.6708,-14.97688z" data-paper-data="{&quot;index&quot;:null}" fill="url(#color-121)" stroke="#000000"/><path d="M142.32297,370.01734l-0.08112,-10.71115l14.72789,-0.11154l0.08112,10.71115z" fill="url(#color-122)" stroke="none"/></g><g data-paper-data="{&quot;index&quot;:null}"><path d="M334.0204,365.85171c0,0 -1.12843,8.46683 -2.44368,15.01559c-1.45254,7.23229 -6.83075,21.97758 -6.83075,21.97758c0,0 0.39605,-16.01807 0.046,-23.43852c-0.29111,-6.17086 -0.92766,-14.12938 -0.92766,-14.12938z" data-paper-data="{&quot;index&quot;:null}" fill="url(#color-123)" stroke="#000000"/><path d="M321.35448,369.59367l-0.08112,-10.71118l14.72789,-0.11154l0.08112,10.71118z" fill="url(#color-124)" stroke="none"/></g><g><path d="M166.31838,372.41602c0,0 -0.51596,7.96725 -0.7136,14.14181c-0.23765,7.42491 0.401,23.43508 0.401,23.43508c0,0 -5.60097,-14.66209 -7.16284,-21.87158c-1.41427,-6.52811 -2.67077,-14.97688 -2.67077,-14.97688z" data-paper-data="{&quot;index&quot;:null}" fill="url(#color-125)" stroke="#000000"/><path d="M154.16541,376.80575l-0.08112,-10.71118l14.72789,-0.11154l0.08112,10.71118z" fill="url(#color-126)" stroke="none"/></g><g data-paper-data="{&quot;index&quot;:null}"><path d="M322.28211,372.8187c0,0 -1.12842,8.46686 -2.44363,15.01561c-1.45254,7.23229 -6.83075,21.97756 -6.83075,21.97756c0,0 0.39605,-16.01801 0.046,-23.43847c-0.29111,-6.17086 -0.92768,-14.12938 -0.92768,-14.12938z" data-paper-data="{&quot;index&quot;:null}" fill="url(#color-127)" stroke="#000000"/><path d="M309.61622,376.56072l-0.08112,-10.71121l14.72789,-0.11154l0.08112,10.71121z" fill="url(#color-128)" stroke="none"/></g><g><path d="M180.46932,381.29076c0,0 -0.51594,7.96724 -0.71357,14.14178c-0.23765,7.42491 0.401,23.43514 0.401,23.43514c0,0 -5.60097,-14.66211 -7.16284,-21.8716c-1.41427,-6.52811 -2.67077,-14.97688 -2.67077,-14.97688z" data-paper-data="{&quot;index&quot;:null}" fill="url(#color-129)" stroke="#000000"/><path d="M168.31635,385.68046l-0.08112,-10.71121l14.72789,-0.11154l0.08112,10.71121z" fill="url(#color-130)" stroke="none"/></g><g data-paper-data="{&quot;index&quot;:null}"><path d="M308.26012,380.97454c0,0 -1.12842,8.46686 -2.44363,15.01561c-1.45254,7.23229 -6.83075,21.97758 -6.83075,21.97758c0,0 0.39605,-16.01807 0.046,-23.43852c-0.29111,-6.17086 -0.92768,-14.12935 -0.92768,-14.12935z" data-paper-data="{&quot;index&quot;:null}" fill="url(#color-131)" stroke="#000000"/><path d="M295.59426,384.71653l-0.08112,-10.71121l14.72789,-0.11154l0.08112,10.71121z" fill="url(#color-132)" stroke="none"/></g><path d="M345.08294,346.85559c-1.00292,16.41537 -22.85327,21.47456 -31.30812,24.41794c-20.68655,7.20159 -49.57213,11.73067 -80.35872,11.96383c-29.87582,0.22626 -54.8141,-5.34001 -72.67116,-13.12035c-16.91199,-7.36857 -27.52928,-16.72257 -27.9936,-25.03774c15.83106,-59.30264 13.90752,-100.68022 104.5409,-104.57966c88.04017,4.69642 90.07923,47.79013 107.7907,106.35595z" fill="url(#color-133)" stroke="#000000"/><path d="M340.14699,349.64816c-0.9503,16.41497 -17.48906,24.23254 -25.54806,27.1729c-19.7181,7.19426 -50.4207,16.2148 -79.7697,16.43707c-28.48076,0.2157 -54.41623,-8.7013 -71.44226,-16.48793c-16.1249,-7.37453 -25.20383,-19.53876 -25.64942,-27.8541c15.0709,-59.29688 10.93258,19.68078 97.33268,15.81343c83.93104,4.72754 88.17162,-73.65334 105.07678,-15.08142z" fill="url(#color-134)" stroke="#000000"/><path d="M233.4161,383.23737c-5.51384,0.04176 -10.85951,-0.11379 -16.02349,-0.44416c-6.05239,-6.07864 -11.88065,-11.85205 -19.07994,-17.16683c-4.50044,-2.52446 -4.42921,-3.4685 -9.73734,-2.64904c-2.04391,0.31556 -4.35218,3.26429 -5.90624,1.89978c-2.57856,-2.26405 -4.64537,-8.87714 -8.30659,-10.2986c-7.35367,-2.855 -8.87948,6.05889 -15.84978,0.20064c-0.69613,-0.58505 0.14295,-1.87521 -0.19014,-2.72129c-0.62547,-1.58883 -4.52072,-7.54975 -6.07387,-8.3277c-6.14096,-3.07588 -12.99381,1.71128 -17.83065,4.66345c0,0 -0.955,0.58287 -1.41448,1.626c-0.1201,-0.5359 -0.19626,-1.08081 -0.22722,-1.63582c15.83106,-59.30261 13.88249,-103.98479 104.51588,-107.8842c22.37212,1.19342 39.1909,4.86625 52.1246,10.64237c-1.0099,2.21318 -2.05032,4.39402 -2.31836,6.82848c-0.31965,2.90299 2.39922,5.20678 -0.94374,6.83941c-1.34913,0.65887 -2.79042,-1.1196 -4.22733,-1.55499c-2.21997,-0.67267 -4.97107,1.40996 -6.95578,0.20927c-1.50685,-0.91162 -1.85314,-3.61189 -3.59498,-3.87172c-2.60307,-0.38834 -8.82644,4.45668 -12.17053,3.11685c-1.80989,-0.72511 -3.03445,-3.29986 -4.97193,-3.08114c-6.47471,0.73092 -4.32163,6.85022 -10.13013,7.80659c-1.46548,1.53997 -3.44887,2.71695 -4.3964,4.61992c-0.93178,1.87137 0.53298,4.24253 0.02947,6.27153c-0.38828,1.5648 -2.10408,-2.51404 -2.70346,-4.01079c-1.4452,-3.60906 -2.20969,-6.50668 -6.27359,-8.3878c-0.29182,-0.13508 -0.57464,-0.24005 -0.85005,-0.3199c0.04771,-1.25168 -0.72797,-2.26975 -0.72797,-2.26975c-1.83267,-2.19401 -4.57616,-3.52875 -7.20523,-4.65143c-2.44144,-1.04255 -3.92493,-4.03942 -6.52751,-4.56286c-6.69741,-1.34698 -12.86672,4.93328 -17.06242,9.20392c-8.05083,2.47992 -6.31095,12.05981 -11.67001,17.04044c-2.25873,3.04607 -7.21927,7.97548 -6.56236,12.19536c1.05251,6.76151 8.44211,4.72395 9.66245,11.13429c0.50161,2.63482 -1.24634,6.52676 0.7561,8.80835c4.24378,4.83537 11.30001,-0.78899 15.497,2.05206c3.88024,2.62664 4.44587,8.57005 11.06661,7.74046c2.75177,-0.34479 8.92803,-7.36359 10.36756,-9.671c0.9476,-1.51889 0.94171,-3.82456 2.45899,-4.77477c3.02678,-1.41581 5.95914,-4.19154 6.71035,-7.44756c0.18705,-0.81083 -0.84167,-1.6698 -0.52703,-2.44018c0.31188,-0.76371 3.02145,-1.32619 2.26294,-1.00183c-1.95813,0.83726 -1.52504,5.99701 -1.43774,6.19745c2.30959,5.30433 4.37315,2.80954 7.72464,5.057c4.08147,2.7369 4.12842,11.20162 9.44706,13.48027c6.75312,2.89318 8.65785,-2.6151 12.74611,-5.39727c2.44741,-1.66553 7.74033,-0.25237 10.28973,-1.20739c3.36056,-1.25883 4.48136,-3.4059 6.38712,-5.98744c2.41455,-1.92443 4.58793,-4.61247 5.25692,-7.6268c0.48437,-2.18247 -0.96135,-4.58543 -0.24268,-6.70234c0.64195,-1.89089 6.39331,-2.71218 6.51985,-2.78379c1.8815,-1.06464 3.71621,-2.41647 4.94734,-4.19347c1.89764,-2.73905 1.86108,-8.05787 3.66386,-11.17616c2.26717,-3.9216 4.44006,-7.71387 6.74401,-11.37717c17.66567,17.38854 23.38823,42.7385 32.00643,72.70396c-3.58561,2.61774 -7.18693,3.46427 -10.88341,6.04792c-1.01581,0.70999 -1.9209,3.3511 -2.78526,2.46299c-3.65717,-3.75783 -1.78914,-10.5861 -10.64999,-5.30314c-2.85231,1.70059 -4.37094,10.77257 -3.68727,13.60474c0.46185,1.91321 3.55255,3.17928 3.01974,5.074c-0.70135,2.49413 -3.10366,4.29004 -3.7816,6.79067c-0.60951,2.24822 -0.85574,3.6444 -0.94128,4.99769c-20.61033,6.99736 -49.05391,11.38319 -79.33685,11.61254z" fill="url(#color-135)" stroke="#000000"/><path d="M225.22664,283.99031c0.06619,8.73993 -6.77376,15.87723 -15.27751,15.94164c-8.50375,0.0644 -15.45101,-6.96851 -15.51721,-15.70841c-0.06619,-8.73993 6.77376,-15.87723 15.27751,-15.94164c8.50375,-0.0644 15.45101,6.96851 15.51721,15.70841z" fill="url(#color-136)" stroke="none"/><path d="M279.44489,283.57969c0.06619,8.73993 -6.77373,15.87723 -15.27748,15.94164c-8.50375,0.0644 -15.45101,-6.96851 -15.51721,-15.70841c-0.06619,-8.73993 6.77376,-15.87723 15.27751,-15.94164c8.50375,-0.0644 15.45099,6.96851 15.51718,15.70841z" fill="url(#color-137)" stroke="none"/><g stroke="none"><path d="M218.26984,284.043c0.03628,4.79106 -3.71324,8.70361 -8.37483,8.73891c-4.66156,0.0353 -8.46994,-3.82001 -8.50623,-8.61106c-0.03628,-4.79106 3.71324,-8.70361 8.37483,-8.73891c4.66156,-0.0353 8.46994,3.82001 8.50623,8.61106z" fill="url(#color-138)"/><path d="M214.67789,284.0702c0.02084,2.75219 -2.13301,4.99973 -4.81083,5.02002c-2.67779,0.02028 -4.86547,-2.19438 -4.88631,-4.94657c-0.02084,-2.75219 2.13301,-4.99971 4.81083,-5.01999c2.67779,-0.02028 4.86547,2.19435 4.88631,4.94655z" fill="#ffffff"/></g><g stroke="none"><path d="M272.48806,283.63238c0.03628,4.79106 -3.71321,8.70361 -8.3748,8.73891c-4.66156,0.0353 -8.46994,-3.82001 -8.50623,-8.61106c-0.03628,-4.79106 3.71324,-8.70361 8.37483,-8.73891c4.66156,-0.0353 8.46992,3.82001 8.5062,8.61106z" fill="url(#color-139)"/><path d="M268.89613,283.65958c0.02084,2.75219 -2.13301,4.99973 -4.81083,5.02002c-2.67779,0.02028 -4.86547,-2.19438 -4.88631,-4.94657c-0.02084,-2.75219 2.13301,-4.99971 4.81083,-5.01999c2.67779,-0.02028 4.86547,2.19435 4.88631,4.94655z" fill="#ffffff"/></g></g><g><g><path d="M188.90128,386.82027c0,0 -0.51596,7.96725 -0.7136,14.14181c-0.23765,7.42491 0.401,23.43511 0.401,23.43511c0,0 -5.60095,-14.66211 -7.16281,-21.8716c-1.41427,-6.52811 -2.67077,-14.97688 -2.67077,-14.97688z" data-paper-data="{&quot;index&quot;:null}" fill="url(#color-140)" stroke="#000000"/><path d="M176.74834,391.21l-0.08112,-10.71118l14.72786,-0.11154l0.08112,10.71118z" fill="url(#color-141)" stroke="none"/></g><g data-paper-data="{&quot;index&quot;:null}"><path d="M296.65024,386.65586c0,0 -1.12842,8.46686 -2.44366,15.01561c-1.45254,7.23229 -6.83075,21.97758 -6.83075,21.97758c0,0 0.39605,-16.01804 0.046,-23.4385c-0.29111,-6.17086 -0.92768,-14.12938 -0.92768,-14.12938z" data-paper-data="{&quot;index&quot;:null}" fill="url(#color-142)" stroke="#000000"/><path d="M283.98433,390.39786l-0.08112,-10.71118l14.72789,-0.11154l0.08112,10.71118z" fill="url(#color-143)" stroke="none"/></g><g><path d="M198.71391,390.00877c0,0 -0.51594,7.96727 -0.71355,14.14181c-0.23765,7.42491 0.401,23.43508 0.401,23.43508c0,0 -5.60097,-14.66209 -7.16284,-21.87158c-1.41427,-6.52811 -2.6708,-14.97688 -2.6708,-14.97688z" data-paper-data="{&quot;index&quot;:null}" fill="url(#color-144)" stroke="#000000"/><path d="M186.56098,394.39848l-0.08112,-10.71115l14.72789,-0.11154l0.08112,10.71115z" fill="url(#color-145)" stroke="none"/></g><g data-paper-data="{&quot;index&quot;:null}"><path d="M286.887,389.99263c0,0 -1.12845,8.46686 -2.44366,15.01561c-1.45254,7.23229 -6.83072,21.97756 -6.83072,21.97756c0,0 0.39605,-16.01801 0.046,-23.43847c-0.29111,-6.17086 -0.92771,-14.12938 -0.92771,-14.12938z" data-paper-data="{&quot;index&quot;:null}" fill="url(#color-146)" stroke="#000000"/><path d="M274.22117,393.73459l-0.08112,-10.71115l14.72789,-0.11154l0.08112,10.71115z" fill="url(#color-147)" stroke="none"/></g><g><path d="M209.00531,394.87311c0,0 -0.51594,7.96724 -0.71355,14.14181c-0.23765,7.42491 0.401,23.43511 0.401,23.43511c0,0 -5.60097,-14.66209 -7.16284,-21.87158c-1.41427,-6.52811 -2.6708,-14.97688 -2.6708,-14.97688z" data-paper-data="{&quot;index&quot;:null}" fill="url(#color-148)" stroke="#000000"/><path d="M196.85238,399.26284l-0.08112,-10.71121l14.72789,-0.11154l0.08112,10.71121z" fill="url(#color-149)" stroke="none"/></g><g data-paper-data="{&quot;index&quot;:null}"><path d="M276.67048,395.01225c0,0 -1.12842,8.46686 -2.44363,15.01561c-1.45252,7.23229 -6.83078,21.97756 -6.83078,21.97756c0,0 0.39605,-16.01804 0.046,-23.4385c-0.29114,-6.17086 -0.92766,-14.12938 -0.92766,-14.12938z" data-paper-data="{&quot;index&quot;:null}" fill="url(#color-150)" stroke="#000000"/><path d="M264.00459,398.75427l-0.08112,-10.71121l14.72789,-0.11154l0.08112,10.71121z" fill="url(#color-151)" stroke="none"/></g><g><path d="M220.94562,396.70629c0,0 -0.51596,7.96725 -0.71357,14.14178c-0.23765,7.42491 0.401,23.43511 0.401,23.43511c0,0 -5.60097,-14.66209 -7.16287,-21.87158c-1.41427,-6.52811 -2.67077,-14.97688 -2.67077,-14.97688z" data-paper-data="{&quot;index&quot;:null}" fill="url(#color-152)" stroke="#000000"/><path d="M208.79269,401.09599l-0.08112,-10.71118l14.72789,-0.11154l0.08112,10.71118z" fill="url(#color-153)" stroke="none"/></g><g data-paper-data="{&quot;index&quot;:null}"><path d="M264.75931,397.02609c0,0 -1.12842,8.46686 -2.44366,15.01561c-1.45252,7.23229 -6.83075,21.97756 -6.83075,21.97756c0,0 0.39605,-16.01804 0.046,-23.4385c-0.29114,-6.17086 -0.92768,-14.12935 -0.92768,-14.12935z" data-paper-data="{&quot;index&quot;:null}" fill="url(#color-154)" stroke="#000000"/><path d="M252.09345,400.76806l-0.08112,-10.71118l14.72789,-0.11154l0.08112,10.71118z" fill="url(#color-155)" stroke="none"/></g><g data-paper-data="{&quot;index&quot;:null}"><path d="M252.19254,399.45185c0,0 -1.12842,8.46686 -2.44366,15.01561c-1.45252,7.23229 -6.83072,21.97756 -6.83072,21.97756c0,0 0.39605,-16.01804 0.046,-23.4385c-0.29114,-6.17086 -0.92768,-14.12938 -0.92768,-14.12938z" data-paper-data="{&quot;index&quot;:null}" fill="url(#color-156)" stroke="#000000"/><path d="M239.52662,403.19381l-0.08112,-10.71118l14.72789,-0.11154l0.08112,10.71118z" fill="url(#color-157)" stroke="none"/></g><g data-paper-data="{&quot;index&quot;:null}"><path d="M234.43074,398.46861c0,0 -0.51596,7.96725 -0.71357,14.14181c-0.23765,7.42491 0.401,23.43508 0.401,23.43508c0,0 -5.60095,-14.66209 -7.16281,-21.87158c-1.41427,-6.52811 -2.67083,-14.97688 -2.67083,-14.97688z" data-paper-data="{&quot;index&quot;:null}" fill="url(#color-158)" stroke="#000000"/><path d="M222.27775,402.85834l-0.08112,-10.71121l14.72789,-0.11154l0.08112,10.71121z" fill="url(#color-159)" stroke="none"/></g><g><path d="M299.82142,379.57611c-0.60246,8.0999 -33.91187,22.05552 -65.09693,21.61598c-35.76046,-0.50407 -59.66538,-17.68431 -59.93281,-21.78659c9.36526,-29.27083 6.73467,9.70004 60.10854,7.71057c51.84065,2.25349 54.53386,-36.423 64.92122,-7.53999z" fill="url(#color-160)" stroke="#000000"/><g><path d="M236.45002,394.07914c0,0 -68.70627,7.00749 -70.30907,-40.9366c-1.65076,-49.37856 36.93901,-47.25855 69.98395,-47.43641c40.84934,-0.68906 69.02491,2.55218 70.33773,47.73963c1.2901,44.40633 -70.01261,40.63338 -70.01261,40.63338z" fill="url(#color-161)" stroke="#000000"/><g><path d="M166.14095,353.14254c-1.65076,-49.37856 36.93901,-47.25855 69.98395,-47.43641c40.84934,-0.68906 69.02491,2.55218 70.33773,47.73963c0.15789,5.4345 -0.77147,10.14742 -2.52428,14.23396c-1.54177,-1.27705 -3.53304,-0.26253 -3.53304,-0.26253c-6.08992,3.11207 -11.62048,2.45191 -18.19277,4.72426c-2.12037,0.73313 -4.45809,-1.91262 -6.60888,-1.27422c-2.67577,0.79419 -4.10108,3.87344 -6.54294,5.22547c-2.61483,1.44785 -5.01142,4.15054 -7.99873,4.05248c-1.35532,-0.04447 -2.51711,-1.46617 -3.86066,-1.2826c-4.96737,0.67862 -4.17017,2.76124 -7.35741,5.07524c-4.00529,2.9079 -6.38508,3.84025 -11.25736,3.86778c-3.91266,0.02963 -9.23465,-0.87337 -12.95261,-0.28524c-1.60597,0.25403 -3.15796,2.68159 -5.08845,1.58563c-1.33147,-0.75588 -2.14476,-2.47557 -3.64104,-2.8001c-2.94761,-0.63926 -5.7171,1.6958 -8.66109,1.32723c-3.15842,-0.39537 -7.18646,-1.08274 -10.42566,-1.65449c-3.23491,-0.571 -5.28215,-3.63471 -8.01824,-4.93626c-4.02099,-1.91271 -7.5706,-1.30655 -11.50274,-0.83425c-6.93267,-6.11105 -11.74522,-14.78597 -12.15574,-27.06567z" fill="url(#color-162)" stroke="#000000"/><path d="M185.28015,344.88519c2.56855,-0.01945 4.67755,3.5045 4.71062,7.87103c0.03307,4.3665 -2.02232,7.92202 -4.59087,7.94148c-2.56855,0.01945 -4.67755,-3.5045 -4.71062,-7.87103c-0.03307,-4.3665 2.02232,-7.92202 4.59087,-7.94148z" data-paper-data="{&quot;index&quot;:null}" fill="url(#color-163)" stroke="none"/><path d="M293.70243,351.97077c0.03307,4.3665 -2.02232,7.92202 -4.59087,7.94148c-2.56855,0.01945 -4.67755,-3.5045 -4.71062,-7.87103c-0.03307,-4.3665 2.02229,-7.92202 4.59087,-7.94148c2.56855,-0.01945 4.67755,3.5045 4.71062,7.87103z" data-paper-data="{&quot;index&quot;:null}" fill="url(#color-164)" stroke="none"/></g></g></g></g></g></g></g></svg>