<svg version="1.1" xmlns="http://www.w3.org/2000/svg" xmlns:xlink="http://www.w3.org/1999/xlink" width="239.96347" height="306.30631" viewBox="0,0,239.96347,306.30631"><defs><linearGradient x1="239.99998" y1="26.84686" x2="239.99998" y2="333.15316" gradientUnits="userSpaceOnUse" id="color-1"><stop offset="0" stop-color="#eaeaea"/><stop offset="1" stop-color="#c6c6c6"/></linearGradient></defs><g transform="translate(-120.01826,-26.84684)"><g data-paper-data="{&quot;isPaintingLayer&quot;:true}" fill-rule="nonzero" stroke="none" stroke-linecap="butt" stroke-linejoin="miter" stroke-miterlimit="10" stroke-dasharray="" stroke-dashoffset="0" style="mix-blend-mode: normal"><path d="M120.01827,333.15316v-306.30631h239.96347v306.30631z" fill="url(#color-1)" stroke-width="0"/><path d="M277.51734,131.82264c-5.06472,1.09145 -12.14015,-0.68695 -13.3994,-6.62263c-0.60613,-2.85711 0.89501,-5.54738 2.29752,-7.89854c0,0 0.05496,-0.09159 0.15911,-0.19993c-0.30462,-0.19992 -0.60556,-0.40484 -0.90219,-0.61558c-1.7984,0.49049 -3.44186,1.28672 -4.71454,2.58106c-0.89503,0.91026 -2.48209,1.66749 -2.9979,2.88167c-0.92131,2.16869 0.55999,5.88191 0.92977,8.04284c0.1968,0.984 0.17783,2.2999 0.57241,3.21421c0.57578,1.33423 2.01977,1.65254 3.06873,2.35036c1.64416,1.09379 5.03478,3.73301 7.28176,2.90497c0.25186,-0.09281 0.51086,-0.18635 0.77459,-0.28086c0.00603,-1.07238 1.08143,-1.07238 1.08143,-1.07238l0.0042,0.021c2.53344,-0.50635 4.24523,-1.52093 6.55057,-2.66228c1.87584,-1.51178 3.47181,-3.36926 4.59597,-5.42377c0.24689,-0.45123 0.31686,-1.14051 0.2874,-1.88079c-0.26099,-0.01907 -0.45832,-0.11774 -0.45832,-0.11774l-0.71365,-0.41887c-0.11073,-0.11125 -0.22267,-0.22092 -0.3358,-0.32907c-0.20126,2.73369 -1.90041,3.959 -4.08165,5.52634zM268.27015,118.41429c-1.14895,1.90221 -2.44597,4.05598 -2.02831,6.37671c0.81632,4.53593 6.74973,5.67858 10.39267,5.05711c1.49185,-1.19101 2.86754,-1.87935 2.82063,-3.98744v-1.08146c0,0 0,-0.10493 0.03269,-0.24942c-3.39021,-2.50505 -7.42744,-4.18151 -11.12378,-6.3272c-0.04474,0.12977 -0.0939,0.21169 -0.0939,0.21169zM275.33425,138.25428c-0.13155,0.50806 -0.66846,0.72283 -0.66846,0.72283c-1.31844,0.5219 -2.88573,1.13653 -4.1692,1.53589c-3.12002,0.97083 -6.8056,-1.58031 -9.1564,-3.15119c-1.43458,-0.95863 -3.05353,-1.50519 -3.8526,-3.27322c-0.48033,-1.06278 -0.49625,-2.56164 -0.72534,-3.70712c-0.4366,-2.70341 -1.87149,-6.49222 -0.80057,-9.26048c0.59415,-1.53583 2.38531,-2.51858 3.49085,-3.60708c1.17615,-1.15804 2.56643,-1.98126 4.07853,-2.56573c-4.39204,-0.48432 -9.20098,0.0551 -13.47356,0.0551c-9.37264,0 -18.74527,0 -28.11791,0c-1.28313,0 -2.07904,0.0799 -2.86145,0.23233c3.54185,-0.37729 6.92399,0.71722 10.69371,1.794c0.02724,0.00778 0.05443,0.01551 0.08157,0.02319c0.17435,-0.14742 0.82943,-0.61471 1.48452,0.04038c0.14928,0.14929 0.24029,0.29857 0.29006,0.44217c1.47444,0.41612 2.80694,0.91719 4.05511,2.17317c2.13282,2.14618 2.02826,5.38941 2.0264,8.15265c-0.22614,2.17677 -0.90724,6.02953 -2.83635,7.53517c-1.4008,1.0933 -3.69633,1.06262 -5.38138,1.06262c-4.55356,0 -9.44557,-0.68101 -13.42717,-2.87262c-0.14409,-0.05704 -0.28396,-0.11772 -0.4197,-0.18191c-0.17917,-0.03665 -0.43165,-0.12404 -0.61688,-0.33247c-5.19423,-3.17243 -3.21127,-12.22127 -0.0705,-16.69436c0.35609,-0.16229 0.70886,-0.30613 1.05877,-0.43282c-2.60337,0.38096 -5.59226,-0.75757 -8.1035,-0.10525c-5.04422,1.31028 -9.51691,3.83174 -14.13503,6.14393c-3.42051,1.71258 -5.97494,2.95105 -8.53787,5.98768c-0.65266,0.20378 -1.43121,0.17543 -1.95797,0.61134c-0.51505,0.42623 -0.38359,1.39071 -0.92882,1.77759c-0.63173,0.44827 -1.58289,0.13714 -2.27096,0.49292c-2.05261,1.06132 -4.21107,3.94613 -5.59306,5.62074c-1.16504,1.41173 -3.43403,3.41133 -4.82865,4.58021c-0.30743,0.25767 -3.15722,1.66283 -3.57851,2.1341c-1.15407,1.291 -2.10025,3.48676 -3.06266,4.96741c-2.35524,3.62348 -5.15304,7.02982 -7.70925,10.51556c-1.58874,2.0718 -1.97601,5.08656 -2.90444,7.62996c-0.69114,1.89335 -2.01328,3.92478 -2.52002,5.83548c-0.30202,1.13877 -0.0132,2.37378 -0.26655,3.52436c-1.53015,6.94916 -0.52544,14.86389 -0.5821,22.01881c0.65679,2.07076 1.80042,3.54167 2.70354,5.48208c0.57434,1.23401 0.79268,2.66691 1.61843,3.74894c0.8945,1.17212 2.14302,2.11388 2.77073,3.44804c0.55411,1.17773 0.78796,2.58947 1.70561,3.51251c1.58825,1.59758 3.61037,2.48195 4.98988,4.35121c1.56055,2.11459 2.25214,5.6064 4.11164,7.42515c1.11432,1.0899 2.94247,1.53046 3.65492,2.91683c0.24626,0.47921 -0.33248,1.16911 -0.03158,1.61603c0.33132,0.49211 1.13989,0.38987 1.61828,0.74071c0.51121,0.37491 0.86213,0.92969 1.29319,1.39453c2.78016,-0.09485 4.2427,1.91561 6.77317,2.54633c2.5197,0.62803 5.28029,0.26097 7.76927,0.86095c0.6269,0.15112 1.10682,0.70062 1.73033,0.86517c0.66223,0.17477 1.47328,-0.23619 2.05042,0.13259c0.54341,0.34721 0.35522,1.33564 0.86517,1.73033c0.30919,0.23931 0.7714,-0.13971 1.16178,-0.16152c0.23636,-0.0132 3.61678,0.00666 3.70914,0.02893c0.63377,0.15279 1.11863,0.71356 1.75142,0.87036c2.5839,0.64029 3.98612,0.30608 6.38649,1.87784c0,0 0.89983,0.59989 0.29995,1.49971c-0.59989,0.89982 -1.49971,0.29995 -1.49971,0.29995c-2.2257,-1.51613 -3.24125,-0.97695 -5.72583,-1.58283c-0.61964,-0.15111 -1.09204,-0.69923 -1.70925,-0.85997c-1.56878,-0.40855 -4.06118,0.73434 -5.51108,-0.13259c-0.55347,-0.33093 -0.33742,-1.35976 -0.86517,-1.73033c-0.38641,-0.27133 -0.95043,0.23984 -1.41025,0.13259c-0.628,-0.14649 -1.10627,-0.7027 -1.73033,-0.86516c-1.24171,-0.32325 -2.58831,0.2466 -3.8493,0.00941c-1.32703,-0.24961 -2.64843,-0.53581 -3.95444,-0.8788c-2.69028,-0.70652 -4.18249,-2.56336 -7.06948,-2.64467c-1.20221,-1.13321 -2.98411,-1.66275 -3.93448,-3.01414c-0.36227,-0.51513 0.14381,-1.30857 -0.10695,-1.88625c-0.46398,-1.06887 -2.56501,-1.60127 -3.19104,-2.23256c-1.97092,-1.98747 -2.68282,-5.41795 -4.3302,-7.67917c-1.2873,-1.76696 -3.32147,-2.58093 -4.79597,-4.12212c-1.06484,-1.113 -1.48263,-2.70398 -2.11632,-4.10795c-0.54532,-1.20817 -1.74818,-1.99679 -2.53851,-3.06095c-0.90102,-1.2132 -1.21648,-2.76695 -1.85164,-4.13817c-0.9931,-2.14396 -2.165,-3.75729 -2.8799,-6.06631c-0.0483,-7.37242 -0.99925,-15.6462 0.6063,-22.80339c0.26077,-1.16245 -0.0275,-2.41121 0.27539,-3.56341c0.52432,-1.99453 1.8739,-4.1094 2.59329,-6.08021c1.03651,-2.83955 1.47528,-5.74425 3.19205,-8.16737c2.53159,-3.45217 5.30933,-6.82481 7.63959,-10.41469c0.99501,-1.53288 2.03638,-3.89861 3.25502,-5.22063c1.01167,-1.09749 2.66748,-1.39351 3.80716,-2.35742c1.3454,-1.13792 3.42338,-2.9155 4.54909,-4.29705c1.54123,-1.89152 3.96985,-4.93122 6.2555,-6.16178c0.58814,-0.31664 1.43626,0.07967 1.98004,-0.30825c0.50805,-0.36243 0.33343,-1.28848 0.81485,-1.68559c0.58509,-0.48262 1.43059,-0.50441 2.14588,-0.75661c2.47705,-3.13412 5.33316,-4.41102 8.76546,-6.12464c4.75411,-2.37355 9.41248,-5.06651 14.63745,-6.33079c2.72395,-0.65911 5.96297,0.69995 8.65166,0c2.23264,-0.58123 3.42863,-0.89409 5.87205,-0.89409c9.37264,0 18.74527,0 28.11791,0c5.54504,0 11.74718,-0.75685 17.13438,0.57559c0.42402,0.16728 0.83458,0.29193 1.23707,0.38833c2.0583,-0.24487 4.1592,-0.27415 6.12815,-0.26952c1.9896,0.2862 4.25504,0.80871 5.81782,2.20399c0.92115,0.82242 1.84994,2.04312 2.65107,3.46223c2.52558,1.0774 5.22295,1.87965 7.68687,3.08874c2.06182,1.01178 3.25116,2.92614 5.15774,4.02801c1.19275,0.68932 2.64662,0.78443 3.91836,1.31407c2.41782,1.00695 4.79188,2.39437 7.1367,3.58118c2.07639,2.07088 3.78556,4.05327 5.43598,6.30115c1.1734,1.59817 3.4349,2.67672 4.38959,4.42534c0.36196,0.66297 0.2691,1.50072 0.57206,2.19265c0.57754,1.319 1.78809,2.15537 2.50077,3.37581c1.09333,1.87229 1.30232,4.1607 2.39254,6.03642c0.73285,1.26089 1.78107,2.32927 2.44786,3.62631c0.61631,1.19884 0.79235,2.62274 1.55948,3.73115c1.65287,2.38822 3.39864,4.52833 4.49131,7.32356c-0.02287,3.88581 2.10655,7.4845 2.50056,11.49755c0.38995,3.97163 0.11396,8.07521 0.11396,12.06386c0,0.37388 0.01351,4.43605 -0.0464,4.63922c-0.21932,0.74377 -0.913,1.26202 -1.26037,1.95529c-0.32404,0.64672 -0.85101,3.18053 -1.00485,3.63592c-0.91772,2.71662 -2.33673,5.34382 -3.60948,7.90612c-0.51067,1.86578 -0.86155,4.4021 -1.82876,6.08468c-0.68946,1.19943 -2.13076,1.86893 -2.75665,3.10273c-0.30791,0.60698 -0.22706,1.35173 -0.47348,1.98617c-1.09531,2.82004 -2.86311,5.12247 -4.60314,7.46777c-0.53346,0.71902 -1.42597,3.11866 -1.99874,3.74423c-1.78044,1.94458 -4.25356,3.67692 -6.16615,5.29682c-1.34454,1.13878 -1.13608,2.61106 -2.8048,3.59766c-0.54569,0.32263 -1.30077,-0.13739 -1.90058,0.06777c-1.33333,0.45605 -2.51983,1.3404 -3.89715,1.63832c-2.65377,1.15905 -5.44799,1.16701 -8.27391,1.83835c-1.22664,0.2914 -2.16389,1.35817 -3.37573,1.70604c-2.53167,0.72674 -6.34722,0.0547 -8.99126,0.0547c-7.49811,0 -14.99622,0 -22.49433,0c-3.42684,0 -7.08392,0.36775 -10.48856,-0.00526c-2.21778,-0.24299 -4.25926,-1.09413 -6.4073,-1.54145c-2.59218,-0.53982 -5.56516,-0.18362 -8.19396,-0.18362c-2.48682,0 -5.19407,-0.31097 -7.65436,-0.0081c-3.40864,0.41962 -6.38371,2.52651 -9.64897,2.6036c-5.47939,0 -10.95877,0 -16.43816,0h-1.73033c0,0 -1.08146,0 -1.08146,-1.08146c0,-1.08146 1.08146,-1.08145 1.08146,-1.08145c5.47939,0 12.68911,0 18.16849,0c0.97559,0.03348 1.88077,-0.54215 2.77808,-0.92652c1.77524,-0.76045 4.68642,-1.42449 6.60661,-1.66088c2.54973,-0.31388 5.3424,-0.00811 7.91864,-0.00811c2.79094,0 5.87622,-0.3304 8.62908,0.22783c2.07557,0.42089 4.04593,1.27074 6.18532,1.50776c3.3295,0.36888 6.92271,-0.00526 10.27543,-0.00526c7.49811,0 14.99622,0 22.49433,0c2.35641,0 6.0813,0.72567 8.31206,0.0547c1.26279,-0.37983 2.26725,-1.43101 3.5456,-1.75462c2.75482,-0.69738 5.54732,-0.62969 8.11797,-1.79431c1.39406,-0.2833 2.58784,-1.19529 3.93564,-1.65036c0.49316,-0.16651 1.10261,0.31608 1.56008,0.06776c1.19865,-0.65063 1.35555,-2.43044 2.3862,-3.32367c0.46398,-0.40212 1.22449,-0.3664 1.65909,-0.8001c0.429,-0.42811 0.40179,-1.17074 0.78575,-1.63967c0.92672,-1.13178 2.50345,-1.57584 3.50133,-2.6454c0.91757,-0.98349 1.06848,-2.4942 1.86378,-3.57894c1.62101,-2.21094 3.29492,-4.3094 4.32785,-6.96738c0.2758,-0.70971 0.22222,-1.5361 0.57569,-2.2105c0.65479,-1.24928 2.0903,-1.95461 2.79673,-3.17543c0.89397,-1.54492 1.20866,-4.07719 1.68143,-5.77461c1.24757,-2.53994 2.67601,-5.13864 3.58111,-7.82709c0.40027,-1.18893 0.53272,-2.73494 1.10544,-3.88277c0.29766,-0.59657 0.94014,-1.00772 1.13918,-1.64402c0.39931,-1.27658 -0.04641,-2.67487 -0.04641,-4.01244c0,-3.91631 0.28182,-7.95266 -0.10354,-11.85185c-0.392,-3.96637 -2.4514,-7.44315 -2.47294,-11.30571c-0.98592,-2.46747 -2.72187,-4.39387 -4.16036,-6.51909c-0.16975,-0.25079 -1.52368,-3.62682 -1.69025,-3.9527c-0.64731,-1.26639 -1.68655,-2.2978 -2.39572,-3.53062c-1.08051,-1.87834 -1.2926,-4.17181 -2.38548,-6.02431c-0.75245,-1.27545 -2.0058,-2.24241 -2.61239,-3.59334c-0.28127,-0.62643 -0.1623,-1.39375 -0.4771,-2.00402c-0.82637,-1.60197 -3.18484,-2.76064 -4.26207,-4.22632c-1.4769,-2.00948 -3.06806,-3.92646 -4.94601,-5.81118c-2.21928,-1.09194 -4.42951,-2.4017 -6.70596,-3.34015c-0.46532,-0.19182 -3.86596,-1.26328 -4.16669,-1.43708c-1.87332,-1.08265 -3.01896,-2.98764 -5.02296,-3.95633c-1.73985,-0.841 -3.59202,-1.49453 -5.41884,-2.1857c1.03582,2.79729 1.41381,5.82198 0.39605,7.98412c-1.1291,2.39863 -3.25738,4.58871 -5.35344,6.25597c-1.44196,0.72668 -2.70929,1.40982 -4.05487,1.96583zM282.53872,124.03974c-0.39934,-1.17705 -0.82905,-2.28476 -1.34167,-3.28673c-0.47247,-0.21923 -0.93723,-0.45079 -1.39156,-0.69911c-1.11768,-0.61088 -1.66895,-2.09949 -2.87045,-2.5223c-0.63391,-0.22307 -1.35824,0.18257 -2.01557,0.0429c-0.71771,-0.1525 -1.30078,-0.7086 -2.0096,-0.89817c-1.37054,-0.36655 -2.64546,-0.41118 -3.94562,-0.59749c4.54138,2.78548 9.67755,4.68569 13.65824,8.22556c-0.02832,-0.09535 -0.05639,-0.18394 -0.08377,-0.26465zM229.27549,120.66967c0.99669,0.77174 2.73015,0.86084 3.34649,2.11186c1.23237,2.50138 -1.58189,4.37669 -2.70441,5.89989c-0.49453,0.67105 -0.61232,1.65077 -1.28199,2.14716c-0.50702,0.37583 -1.12906,0.57219 -1.77866,0.66117c-1.11527,0.39432 -2.10296,0.48632 -3.00545,0.22246c0.21095,0.91935 -0.72274,1.23058 -0.72274,1.23058c-0.50036,0.16392 -0.9589,0.34425 -1.40225,0.51418c2.53149,0.625 5.21161,0.83907 7.76531,0.83907c1.33437,0 3.02544,0.09874 4.13544,-0.66771c1.27682,-0.88164 1.79671,-4.55956 1.92207,-5.87491c-0.00149,-2.10337 0.23824,-4.89819 -1.43426,-6.55517c-1.10892,-1.09864 -2.32489,-1.42711 -3.66054,-1.75796c-0.44146,0.37967 -0.9082,0.74191 -1.39476,1.08492zM221.96008,130.82065c-3.04825,-0.65059 -3.07593,-2.54188 -3.06146,-5.25987l-0.19603,-0.98017c-0.00429,-0.01945 -0.00806,-0.03911 -0.01129,-0.05894c-1.48996,0.36925 -2.96463,0.84127 -4.2161,1.61746l-0.66662,0.24317c0.01787,0.70278 0.11159,1.38922 0.29757,2.04168c0.34196,1.19966 1.08409,2.23364 2.06658,2.90526l0.46538,0.09282c0.35861,0.2157 0.72656,0.41648 1.10261,0.60321c0.74119,0.17458 1.5472,0.16789 2.37814,-0.06921c0.80146,-0.22868 1.48645,-0.76694 2.27123,-1.04622c-0.03391,-0.02834 -0.0677,-0.05733 -0.1014,-0.08699c-0.18782,0.02127 -0.3286,-0.0022 -0.3286,-0.0022zM220.80508,124.07252l0.42602,1.49105l-0.18499,0.05285c-0.00194,0.05438 -0.00434,0.10892 -0.00708,0.16354c0.47246,0.80012 0.98219,1.62008 1.50765,2.25606c0.60464,0.08166 0.79802,0.54681 0.85986,0.83599c0.18431,0.13011 0.36911,0.22549 0.55353,0.27787c3.29528,0.93599 3.20628,-0.82758 5.25572,-2.59216c0.40651,-0.35001 1.80039,-2.19704 1.47162,-2.80891c-0.1766,-0.32868 -2.26018,-1.01944 -2.70968,-1.34881l-0.59989,-0.39792c0,0 -0.13856,-0.09238 -0.27069,-0.259c-1.79264,0.98698 -3.73326,1.72612 -5.60892,2.14718c-0.23085,0.05182 -0.46476,0.10299 -0.70086,0.15434c0.00269,0.00925 0.00525,0.01856 0.00769,0.02792zM216.34071,118.04042c-0.99083,1.60397 -1.91173,3.72326 -2.31753,5.87846c4.4697,-2.33715 9.6327,-2.42524 13.80465,-5.2041c-3.86351,-1.13912 -7.53593,-2.21211 -11.48712,-0.67436z" fill="#000000" stroke-width="0.5"/><path d="M279.34834,197.05464c0.01911,0.01794 0.03732,0.03591 0.05466,0.0539c1.01682,-0.36938 2.01041,-0.77798 2.78754,-1.39108c1.80784,-1.42627 2.39628,-2.91619 4.58547,-4.03279c1.85048,-0.92265 4.94841,-2.20394 5.48745,-4.4729c0.15825,-0.66612 -0.24018,-1.4753 0.13241,-2.0497c0.3925,-0.6051 1.37935,-0.54757 1.88557,-1.06132c0.45261,-0.45934 0.40918,-1.27435 0.86516,-1.73033c0.45598,-0.45598 1.27435,-0.40919 1.73034,-0.86517c0.45598,-0.45598 0.40884,-1.27469 0.86516,-1.73033c0.43942,-0.43875 1.27526,-0.33643 1.67804,-0.80904c0.90529,-1.06221 0.73744,-2.74139 1.50471,-3.90722c0.86295,-1.31122 1.57862,-2.82508 2.84501,-3.75254c0.45824,-0.3356 1.27923,0.2628 1.69977,-0.11897c0.30289,-0.27496 -0.30577,-0.79839 -0.24383,-1.20275c0.12652,-0.826 0.52825,-1.58559 0.79237,-2.37838l1.13728,-1.5539c0,0 0.64484,-0.86818 1.51302,-0.22333c0.86818,0.64485 0.22333,1.51302 0.22333,1.51302l-0.95543,1.26358c-0.42896,1.28593 0.06343,2.95468 -0.81941,3.98338c-0.47382,0.5521 -1.53268,0.0779 -2.12426,0.5014c-0.49322,0.35309 -0.48168,1.12374 -0.83479,1.61695c-0.40945,0.5719 -1.03937,0.96614 -1.43225,1.54955c-0.82894,1.23093 -0.7385,2.97235 -1.67155,4.12637c-0.42053,0.52014 -1.31,0.44798 -1.78262,0.92129c-0.45565,0.45631 -0.40918,1.27435 -0.86516,1.73033c-0.45598,0.45598 -1.27435,0.40918 -1.73033,0.86517c-0.45598,0.45598 -0.40535,1.27822 -0.86517,1.73033c-0.40675,0.39993 -1.24999,0.2003 -1.57509,0.66902c-0.26923,0.38816 0.25298,0.95422 0.13241,1.41096c-0.2049,0.77622 -0.57904,1.5236 -1.07393,2.15572c-0.66136,0.84474 -1.5703,1.54329 -2.54796,2.14787c0.19032,0.2986 0.19033,0.63822 0.19033,0.63822c-0.01272,1.73297 -0.26819,4.81799 -0.9486,6.3767c-0.29173,0.6683 -1.17099,0.94452 -1.49336,1.59859c-0.26866,0.5451 -0.0344,1.22547 -0.18827,1.81338c-0.01497,0.05718 -1.61502,4.07184 -1.66408,4.18159c-0.85818,1.91995 -2.90996,3.27768 -3.46459,5.2365c-0.37859,1.33707 -0.2579,2.94923 -1.16349,4.00328c-0.47265,0.55014 -1.31962,0.67405 -1.80857,1.20975c-0.92731,1.01597 -1.4273,2.35223 -2.17144,3.50911c-1.20981,1.88084 -1.06425,3.66181 -2.12219,5.71213c-0.57678,0.28839 -1.27401,0.40952 -1.73033,0.86517c-0.47331,0.47262 -0.40631,1.3558 -0.9213,1.78261c-0.57752,0.47863 -1.51776,0.30063 -2.12448,0.74165c-0.55687,0.40477 -0.6859,1.22481 -1.20423,1.67789c-1.13001,0.98777 -4.29798,2.66537 -5.78306,3.007c-4.29239,0.98744 -8.74468,0.89409 -13.22596,0.89409c-1.62392,0 -3.86913,0.3496 -5.43947,-0.02893c-0.6269,-0.15112 -1.1018,-0.72096 -1.73033,-0.86516c-1.70101,-0.39027 -4.04586,0.02893 -5.8077,0.02893c-3.46067,0 -6.92133,0 -10.382,0c-1.89502,0 -4.45863,0.41606 -6.30463,-0.02893c-0.6269,-0.15112 -1.10522,-0.70681 -1.73033,-0.86516c-0.6128,-0.15524 -1.3323,0.23327 -1.89572,-0.0534c-2.43579,-1.23934 -1.78849,-2.05126 -2.84025,-4.04062c-0.9945,-1.88107 -2.32891,-3.77394 -2.84512,-5.90914c-0.34141,-1.41217 0.15206,-2.93401 -0.14517,-4.35613c-0.31552,-1.50958 -1.35558,-2.24567 -1.72967,-3.74901c-0.14886,-0.59822 0.006,-2.53297 0.05361,-3.29436c-2.09744,-2.05787 -1.15205,-2.85736 -1.78373,-5.35638c-0.48246,-1.90873 -1.2131,-3.97982 -1.71332,-5.908c-0.70021,-2.69908 -2.72029,-5.14808 -3.42539,-7.82287c-0.45415,-1.72283 0.25323,-3.65209 -0.06725,-5.37803c-0.19159,-1.03182 -0.49262,-2.04694 -0.69181,-3.07659c-0.18372,-0.19982 -0.38222,-0.3842 -0.60337,-0.54514c-0.9151,-0.66598 -2.806,-1.07304 -3.59303,-1.84295c-1.42007,-1.38918 -1.95356,-3.21785 -3.82567,-4.41267c-3.22774,-2.06001 -8.79477,-3.4989 -10.27278,-7.67382c-0.60996,-1.72296 -0.06097,-4.99813 -0.06097,-6.84671c0,0 0,-1.08146 1.08146,-1.08146c1.08146,0 1.08146,1.08146 1.08146,1.08146c0,1.59731 -0.57836,4.63578 -0.06096,6.13078c0.59367,1.71539 2.68525,2.45349 3.93768,3.3739c0.57233,0.4206 0.91608,1.1102 1.50263,1.51072c1.18311,0.80787 2.74748,0.91117 3.95511,1.68191c0.09032,0.05765 3.32851,2.96506 3.42199,3.08569c0.36631,0.47275 0.35269,1.19188 0.76946,1.6208c0.65812,0.67729 1.67818,0.8356 2.56517,1.20189c0.11308,-0.30107 0.37571,-0.6476 0.98562,-0.65342c1.08141,-0.01033 1.09174,1.07108 1.09174,1.07108l0.00602,0.90742c0.01483,0.19573 0.03729,0.39035 0.06563,0.58412c0.47894,0.65578 0.925,1.34809 1.49386,1.91741c0.92521,0.92596 2.1094,1.56617 3.03563,2.4911c1.42496,0.99202 2.27184,2.29857 3.35999,3.45743c0.32312,0.11785 0.50061,0.3948 0.58758,0.58299c0.17212,0.15756 0.35217,0.3104 0.54259,0.45716c0.54779,0.42218 1.34889,0.47253 1.83916,0.96032c0.45713,0.45482 0.43351,1.25126 0.86517,1.73033c0.98765,1.09615 4.16899,0.82993 5.57653,1.44515c2.52639,1.10427 5.1394,1.9732 7.74972,2.59282c1.40302,0.33304 2.91647,-0.30425 4.326,0.00004c0.63034,0.13608 1.1018,0.72096 1.73033,0.86517c1.90666,0.43745 4.13536,-0.46302 6.05617,0c0.6269,0.15112 1.10181,0.72096 1.73033,0.86516c1.32473,0.30394 2.71821,-0.02893 4.07737,-0.02893c4.89843,0.00947 9.74514,0.86517 14.70782,0.86517c1.70219,0 4.15635,0.4455 5.8077,0.02893c1.25054,-0.31546 2.21159,-1.40912 3.46067,-1.73033c0.55861,-0.14365 1.16901,0.13261 1.73033,0c0.83149,-0.19643 2.69437,-1.66087 3.27024,-1.96702c0.19403,-0.10315 0.39676,-0.19985 0.606,-0.29194l0.77491,-0.88953c0,0 0.74035,-0.78831 1.52866,-0.04797zM276.71923,205.55316c-0.35915,0.56807 -1.16496,0.78924 -1.45546,1.3953c-0.27101,0.5654 0.08987,1.28441 -0.11329,1.87758c-0.2745,0.80148 -0.76969,1.51971 -1.28151,2.19481c-0.86332,1.13874 -2.18932,1.87577 -3.03532,3.02743c-0.41516,0.56515 -0.48374,1.36505 -0.97779,1.8627c-0.45439,0.4577 -1.26902,0.41484 -1.73052,0.86536c-0.39234,0.38299 -0.45797,0.99636 -0.68694,1.49454c-1.08098,1.7803 -2.9612,3.8982 -4.7806,4.98601c-2.29555,1.37249 -5.71802,0.75734 -8.27446,0.75734c-5.191,0 -10.382,0 -15.57299,0c-4.09161,0 -7.43127,0.52976 -10.7845,-2.11027c-1.31483,-2.78403 -4.06199,-2.53544 -6.50466,-4.36401c-1.06939,-0.80053 -1.86678,-1.94256 -2.98364,-2.6754c-0.73231,-0.48051 -1.79641,-0.57991 -2.2763,-1.31263c-0.39513,-0.60331 0.34197,-1.5288 -0.00039,-2.16354c-0.25277,-0.46862 -1.06804,-0.25784 -1.48457,-0.58951c-0.61006,-0.48577 -2.73218,-3.262 -2.95599,-3.99087c-0.05991,-0.19511 -0.0464,-4.27239 -0.0464,-4.63922c0,-3.09123 -0.04089,-5.87524 -0.74131,-8.87614c-1.10145,-1.18039 -1.9299,-2.4674 -3.39645,-3.47159c-0.69353,-0.69452 -1.52483,-1.23737 -2.29599,-1.84649c0.05242,1.48116 -0.41512,3.12741 -0.03728,4.5174c0.72045,2.65038 2.7078,5.09388 3.41578,7.7855c0.18885,0.71798 0.04186,1.49122 0.18667,2.21936c0.26359,1.32537 1.21693,2.43764 1.5419,3.74931c0.27633,1.11536 -0.41463,2.43036 0.12475,3.44499c0.34662,0.65204 1.03479,1.05375 1.55219,1.58062c0.04638,1.20823 -0.24792,2.45604 0.05361,3.62696c0.34712,1.34799 1.44889,2.4349 1.74018,3.79604c0.29938,1.39894 -0.21491,2.90148 0.13005,4.28988c0.48691,1.95969 1.7425,3.67558 2.65266,5.40556c0.45403,0.863 0.58349,2.57871 1.75955,3.06026c0.48302,0.19779 1.05814,-0.17824 1.56494,-0.05339c0.62614,0.15425 1.10628,0.70271 1.73033,0.86517c1.63635,0.426 4.11784,-0.02893 5.80769,-0.02893c3.46067,0 6.92133,0 10.382,0c1.94701,0 4.41629,-0.37872 6.30463,0.02893c0.63034,0.13608 1.10628,0.7027 1.73033,0.86516c1.37459,0.35785 3.51689,-0.02893 4.94253,-0.02893c4.34285,0 8.56638,0.05122 12.72903,-0.83623c1.2024,-0.25635 3.94371,-1.71276 4.85004,-2.52474c0.56131,-0.50287 0.75272,-1.3611 1.36215,-1.80442c0.55962,-0.40709 1.44592,-0.18546 1.97936,-0.62631c0.47866,-0.39557 0.37027,-1.23862 0.80903,-1.67804c0.45563,-0.45633 1.15356,-0.57678 1.73034,-0.86517c0.45595,-0.9675 0.36125,-2.11394 0.67037,-3.13785c0.47627,-1.57757 2.4509,-4.7826 3.54902,-6.00537c0.47884,-0.5332 1.28954,-0.67754 1.79073,-1.18979c1.20801,-1.23467 0.20856,-1.61011 0.70363,-3.16025c0.47107,-1.475 1.83222,-2.49678 2.72776,-3.75993c1.6641,-2.34718 1.56297,-5.40757 2.71494,-7.80722c0.30846,-0.64255 1.1785,-0.90156 1.47166,-1.55124c0.51773,-1.14735 0.73341,-3.53396 0.76056,-5.04847c-0.35156,0.17864 -0.69689,0.34979 -1.028,0.51577c-2.10852,1.02864 -2.4264,2.39896 -4.21704,3.79942c-1.406,1.09964 -3.33169,1.58673 -5.02233,2.28647c-0.70749,1.93877 -0.65958,4.06843 -1.78468,5.84804zM213.9368,202.16878c0,1.33757 -0.42699,2.73016 -0.0464,4.01244c0.09537,0.32132 2.0154,2.74732 2.22645,2.92028c0.5915,0.48475 1.59173,0.49491 1.98465,1.15101c0.37032,0.61836 -0.35824,1.53664 -0.00039,2.16229c0.28299,0.49478 1.10193,0.33232 1.59285,0.62194c1.2003,0.70812 2.01582,1.93409 3.12737,2.77469c1.59748,1.20808 4.34515,1.45298 5.7696,2.66043c0.59584,0.50507 0.73997,1.37583 1.10996,2.06375c2.51404,2.01591 6.01895,1.31571 9.10944,1.31571c5.191,0 10.382,0 15.57299,0c1.95704,0 5.42027,0.68978 7.13209,-0.43105c1.48136,-0.96993 3.15593,-2.65178 4.02315,-4.18324c0.35258,-0.66349 0.53285,-1.45286 1.05774,-1.99047c0.45043,-0.46135 1.2724,-0.41087 1.73014,-0.86497c0.41798,-0.41466 0.40398,-1.12347 0.75255,-1.59797c0.76896,-1.0468 2.25987,-2.06503 3.08233,-3.09021c0.7981,-0.99481 0.58878,-2.50213 1.13921,-3.65263c0.33238,-0.69473 1.17684,-1.02228 1.60337,-1.66353c0.59803,-0.89909 0.84362,-2.05022 1.07205,-3.21137c-0.65278,0.48032 -1.26461,0.91666 -2.3105,1.19027c-0.558,0.14597 -1.16971,-0.13556 -1.73033,0c-1.25358,0.30312 -2.20896,1.41954 -3.46067,1.73033c-1.83184,0.45483 -4.42107,0.02893 -6.30463,0.02893c-4.95487,0 -9.82236,-0.87551 -14.70782,-0.86517c-0.31355,0 -4.40022,0.00865 -4.5743,-0.02893c-0.63034,-0.13608 -1.10628,-0.7027 -1.73033,-0.86516c-1.8681,-0.48632 -4.14903,0.41171 -6.05617,0c-0.63034,-0.13608 -1.1018,-0.72096 -1.73033,-0.86516c-1.40537,-0.32244 -2.91851,0.3146 -4.32567,0.00004c-0.6808,-0.15219 -1.2003,-0.75261 -1.87515,-0.92932c-2.25805,-0.59125 -4.03508,-0.78672 -6.25752,-1.79263c-2.13052,-0.9643 -4.38716,-0.18752 -6.2264,-1.89175c-0.47302,-0.43829 -0.41044,-1.2731 -0.86517,-1.73033c-0.08196,-0.08241 -0.17551,-0.14794 -0.27649,-0.20273c0.35438,2.38528 0.39232,4.71457 0.39232,7.22452z" fill="#000000" stroke-width="0.5"/><path d="M277.14294,171.92262c-0.80331,-0.53554 -0.41138,-1.31013 -0.31806,-1.47013c-0.42848,0.52889 -1.25378,0.73259 -1.71243,1.26325c-0.49229,0.56959 -0.48662,1.56131 -1.1269,1.95733c-0.24219,0.1498 -3.50694,0.20067 -4.02922,0.16152c-0.83601,-0.06267 -1.90223,0.27605 -2.49503,-0.31675c-0.40542,-0.40543 -0.31858,-4.0688 -0.31676,-4.65795c0.00512,-1.65013 -0.23343,-3.48791 0.94637,-4.92102c1.04334,-1.26736 2.64743,-0.84736 3.58236,-2.19834c0.44555,-0.64382 0.24755,-1.66356 0.81511,-2.20291c0.59718,-0.56749 1.55851,-0.53459 2.33997,-0.79532c1.21665,-0.40593 2.2189,-1.33152 3.44004,-1.72374c0.70094,-0.22513 3.7597,0.06401 4.36882,0.10681c1.95335,3.47746 1.42993,7.37126 -1.53418,10.33631c-0.40329,0.40342 -1.27292,0.18519 -1.57509,0.66902c-0.28296,0.45307 0.10768,1.06291 0.16152,1.59436l-1.0468,1.89764c0,0 -0.59988,0.89983 -1.49971,0.29995zM276.86482,170.40063l0.66171,-0.67559c0.05384,-0.91049 -0.27169,-1.92883 0.16151,-2.73147c0.34256,-0.6347 1.37549,-0.5514 1.88557,-1.06132c1.67881,-1.67828 2.73811,-4.71253 1.92649,-6.96701c-0.84347,0.11726 -1.74876,-0.17457 -2.55251,0.10681c-1.22401,0.4285 -2.23332,1.38425 -3.48129,1.73692c-0.48485,0.13702 -1.14026,-0.07739 -1.48307,0.29184c-0.449,0.4836 -0.16088,1.37004 -0.55283,1.90093c-0.86798,1.17566 -2.70821,1.27747 -3.70137,2.34948c-0.63062,0.6807 -0.42379,2.85059 -0.42158,3.50866c0.00243,0.72097 0.07263,1.44561 0,2.16291c-0.03413,0.33703 -0.55629,0.7261 -0.31675,0.96563c0.23953,0.23953 0.62919,-0.27722 0.96562,-0.31676c0.95895,-0.11266 2.12344,0.74582 2.89211,0.16151c0.42987,-0.32677 0.2543,-1.09141 0.60343,-1.50333c0.41589,-0.49067 1.29017,-0.52118 1.59334,-1.08845c0.26445,-0.49482 -0.07611,-1.11951 -0.11417,-1.67927c0,0 0,-1.08146 1.08146,-1.08146c1.08146,0 1.08146,1.08146 1.08146,1.08146c-0.03806,0.88218 0.26602,1.84959 -0.11417,2.64656c-0.03273,0.06859 -0.07137,0.1323 -0.11496,0.19194z" fill="#000000" stroke-width="0.5"/><path d="M214.38865,172.09119c-0.20323,-1.06219 0.85897,-1.26542 0.85897,-1.26542l0.50972,0.09188c0.07918,-0.07747 0.15645,-0.15733 0.2326,-0.2386c-0.16782,-0.8741 -0.28247,-1.84318 -1.02497,-2.15077c-0.5585,-0.23137 -1.32572,0.31158 -1.813,-0.04621c-2.33909,-1.7175 -2.23609,-6.20583 -2.24323,-8.7037c-0.00214,-0.74633 -0.06967,-3.8086 0.31674,-4.22812c0.51149,-0.55531 1.52058,-0.08066 2.24657,-0.28782c1.24021,-0.3539 2.20207,-1.44872 3.46067,-1.73033c0.0879,-0.01967 4.33805,-0.045 4.5743,-0.02893c0.83642,0.05688 1.90223,-0.27605 2.49503,0.31675c0.78906,0.78906 0.31676,5.31555 0.31676,6.38828c0,2.3231 0.35951,4.23082 -1.0693,6.25592c-0.4055,0.57472 -1.11367,0.89666 -1.49907,1.48504c-0.43459,0.66347 -0.35245,1.63611 -0.91294,2.19727c-0.99717,0.99835 -2.56576,1.29342 -3.55235,2.30223l-1.63107,0.50147c0,0 -1.0622,0.20323 -1.26542,-0.85896zM217.70949,169.12742c0.52795,-0.19396 1.20336,-0.11459 1.59759,-0.50939c0.45899,-0.45966 0.27787,-1.29765 0.62803,-1.84479c0.39812,-0.6221 1.109,-0.98869 1.55975,-1.57379c1.09805,-1.42532 0.66103,-3.32272 0.66103,-4.99124c0,-1.29775 -0.15143,-2.60436 0,-3.89325c0.03953,-0.33643 0.55629,-0.7261 0.31676,-0.96563c-0.23953,-0.23953 -0.6286,0.28263 -0.96562,0.31676c-1.35224,0.13691 -2.75003,-0.32128 -4.07737,-0.02893c-1.25952,0.27742 -2.19808,1.46722 -3.46067,1.73033c-0.40717,0.08485 -0.88221,-0.5385 -1.21409,-0.28782c-0.27031,0.20417 0.27718,0.62919 0.31675,0.96562c0.06726,0.57192 -0.00137,1.15172 0,1.72759c0.00492,2.06393 0.10821,3.68234 0.78285,5.64505c0.14076,0.40951 0.05769,1.01102 0.43458,1.22425c0.47821,0.27054 1.17187,-0.32098 1.64767,-0.04621c0.94713,0.54694 1.4246,1.52981 1.77275,2.53145z" fill="#000000" stroke-width="0.5"/><text transform="translate(234.42865,67.92579) scale(0.29973,0.29973)" font-size="40" xml:space="preserve" fill="#000000" fill-rule="nonzero" stroke="none" stroke-width="1" stroke-linecap="butt" stroke-linejoin="miter" stroke-miterlimit="10" stroke-dasharray="" stroke-dashoffset="0" font-family="Handwriting" font-weight="normal" text-anchor="start" style="mix-blend-mode: normal"><tspan x="0" dy="0">a drawing of Barney</tspan><tspan x="0" dy="48px">since I know you like him</tspan></text><path d="M345.09721,122.32812c0,1.25 -1.25,1.25 -1.25,1.25l-1.84727,-0.00937c-5.05386,1.26347 -10.94731,0.50937 -16.15273,0.50937c0,0 -1.25,0 -1.25,-1.25c0,-0.20197 0.03263,-0.37131 0.08736,-0.51329c-1.32368,-1.07397 -1.08426,-3.61392 -1.08736,-4.98671c-0.01015,-4.50055 0.55436,-9.12269 0.5,-13.5v-0.5c0,0 0,-1.25 1.25,-1.25c1.25,0 1.25,1.25 1.25,1.25v0.5c-0.03594,3.78602 -0.5,7.60997 -0.5,11.5c0,0.3765 0.22132,2.29636 0.08963,3.59385c0.29728,-0.13619 0.6235,-0.23626 0.90377,-0.39705c0.70411,-0.40396 1.39211,-0.83537 2.08817,-1.25306c2.14852,-1.43296 4.23812,-2.85661 5.60512,-5.1009c1.53712,-2.52358 1.22706,-7.81035 0.82945,-10.64261c-0.13413,-0.95548 -1.47259,-6.22204 -2.35596,-6.59813c-0.43486,-0.18515 -0.94012,0.0986 -1.41018,0.14791c0,0 -1.25,0 -1.25,-1.25c0,-1.25 1.25,-1.25 1.25,-1.25c0.86327,0.0493 1.82702,-0.25928 2.58982,0.14791c1.87887,1.00294 2.49017,4.85972 3.09603,6.70681c1.19247,3.63548 1.40562,10.63455 -0.62254,14.05245c-1.52369,2.56776 -3.96083,4.27708 -6.39488,5.8991c-0.13473,0.08083 -2.08616,1.30446 -3.6294,2.20307c4.84307,0.08244 10.18169,0.65667 14.80823,-0.49996l2.15273,-0.00937c0,0 1.25,0 1.25,1.25z" fill="#000000" stroke-width="0.5"/></g></g></svg>