<svg version="1.1" xmlns="http://www.w3.org/2000/svg" xmlns:xlink="http://www.w3.org/1999/xlink" width="664.29455" height="384.38438" viewBox="0,0,664.29455,384.38438"><defs><linearGradient x1="240.00005" y1="20.92305" x2="240.00005" y2="339.07699" gradientUnits="userSpaceOnUse" id="color-1"><stop offset="0" stop-color="#656565"/><stop offset="1" stop-color="#444444"/></linearGradient><radialGradient cx="495.5067" cy="135.07259" r="115.06057" gradientUnits="userSpaceOnUse" id="color-2"><stop offset="0" stop-color="#636363"/><stop offset="1" stop-color="#000000"/></radialGradient><radialGradient cx="504.94431" cy="157.71086" r="26.31793" gradientUnits="userSpaceOnUse" id="color-3"><stop offset="0" stop-color="#636363"/><stop offset="1" stop-color="#000000"/></radialGradient><linearGradient x1="502.7053" y1="191.7572" x2="495.85841" y2="229.48284" gradientUnits="userSpaceOnUse" id="color-4"><stop offset="0" stop-color="#383838"/><stop offset="1" stop-color="#000000"/></linearGradient><linearGradient x1="59.72578" y1="171.83245" x2="59.72578" y2="245.26841" gradientUnits="userSpaceOnUse" id="color-5"><stop offset="0" stop-color="#ad9090"/><stop offset="1" stop-color="#ffbdbd"/></linearGradient><linearGradient x1="54.21809" y1="173.66835" x2="54.21809" y2="252.00005" gradientUnits="userSpaceOnUse" id="color-6"><stop offset="0" stop-color="#d6d6d6"/><stop offset="1" stop-color="#ffffff"/></linearGradient><linearGradient x1="25.51068" y1="192.37907" x2="53.46789" y2="212.19913" gradientUnits="userSpaceOnUse" id="color-7"><stop offset="0" stop-color="#d6d561"/><stop offset="1" stop-color="#fcff61"/></linearGradient><radialGradient cx="240.00002" cy="180" r="247.74775" gradientUnits="userSpaceOnUse" id="color-8"><stop offset="0" stop-color="#000000" stop-opacity="0"/><stop offset="1" stop-color="#000000"/></radialGradient></defs><g transform="translate(13.75375,12.19214)"><g data-paper-data="{&quot;isPaintingLayer&quot;:true}" fill-rule="nonzero" stroke-linejoin="miter" stroke-miterlimit="10" stroke-dasharray="" stroke-dashoffset="0" style="mix-blend-mode: normal"><path d="M-13.75375,372.19225v-384.38438h507.5075v384.38438z" fill="#989898" stroke="none" stroke-width="0" stroke-linecap="butt"/><path d="M-10.44063,339.07699v-318.1539h500.88126v318.1539z" fill="url(#color-1)" stroke="none" stroke-width="0" stroke-linecap="butt"/><path d="M130.1195,213.42502l12.94034,-88.67453l211.82071,31.82452l-12.94035,88.67454z" fill="#2b2b2b" stroke="#000000" stroke-width="0" stroke-linecap="butt"/><g><path d="M127.61952,208.42502l12.94034,-88.67453l211.82071,31.82452l-12.94035,88.67454z" fill="#dddcff" stroke="#000000" stroke-width="0" stroke-linecap="butt"/><path d="M135.73289,202.42958l11.02325,-75.53759l196.30518,29.49344l-11.02325,75.53758z" fill="none" stroke="#000000" stroke-width="0.5" stroke-linecap="butt"/><text transform="translate(152.65858,148.34266) rotate(8.54338) scale(0.1145,0.11371) skewX(0.24165)" font-size="40" xml:space="preserve" fill="#000000" fill-rule="nonzero" stroke="none" stroke-width="1" stroke-linecap="butt" stroke-linejoin="miter" stroke-miterlimit="10" stroke-dasharray="" stroke-dashoffset="0" font-family="Serif" font-weight="normal" text-anchor="start" style="mix-blend-mode: normal"><tspan x="0" dy="0">Pay to</tspan><tspan x="0" dy="46.150000000000006px">the order of:</tspan></text><path d="M274.29994,173.24017l-98.04883,-15.40238" fill="none" stroke="#000000" stroke-width="1" stroke-linecap="round"/><text transform="translate(279.85204,162.63636) rotate(8.54338) scale(0.1145,0.11371) skewX(0.24165)" font-size="40" xml:space="preserve" fill="#000000" fill-rule="nonzero" stroke="none" stroke-width="1" stroke-linecap="butt" stroke-linejoin="miter" stroke-miterlimit="10" stroke-dasharray="" stroke-dashoffset="0" font-family="Serif" font-weight="normal" text-anchor="start" style="mix-blend-mode: normal"><tspan x="0" dy="0">Date:</tspan></text><path d="M333.1784,171.048l-41.63715,-6.2557" fill="none" stroke="#000000" stroke-width="1" stroke-linecap="round"/><path d="M285.12523,175.06443l1.27805,-8.75799l46.48379,6.98387l-1.27805,8.75798z" fill="#dddcff" stroke="#000000" stroke-width="0.5" stroke-linecap="butt"/><text transform="translate(277.9765,173.87932) rotate(8.54426) scale(0.26657,0.26477) skewX(0.23962)" font-size="40" xml:space="preserve" fill="#000000" fill-rule="nonzero" stroke="none" stroke-width="1" stroke-linecap="butt" stroke-linejoin="miter" stroke-miterlimit="10" stroke-dasharray="" stroke-dashoffset="0" font-family="Serif" font-weight="normal" text-anchor="start" style="mix-blend-mode: normal"><tspan x="0" dy="0">$</tspan></text><text transform="translate(286.8905,173.76684) rotate(8.54438) scale(0.19872,0.19736) skewX(0.23999)" font-size="40" xml:space="preserve" fill="#003e77" fill-rule="nonzero" stroke="none" stroke-width="1" stroke-linecap="butt" stroke-linejoin="miter" stroke-miterlimit="10" stroke-dasharray="" stroke-dashoffset="0" font-family="Handwriting" font-weight="normal" text-anchor="start" style="mix-blend-mode: normal"><tspan x="0" dy="0">75.00</tspan></text><text transform="translate(177.85311,156.29187) rotate(8.54437) scale(0.25408,0.25236) skewX(0.24053)" font-size="40" xml:space="preserve" fill="#003e77" fill-rule="nonzero" stroke="none" stroke-width="1" stroke-linecap="butt" stroke-linejoin="miter" stroke-miterlimit="10" stroke-dasharray="" stroke-dashoffset="0" font-family="Handwriting" font-weight="normal" text-anchor="start" style="mix-blend-mode: normal"><tspan x="0" dy="0">Mike Scott</tspan></text><text transform="translate(274.34713,183.98617) rotate(8.54571) scale(0.15071,0.14968) skewX(0.24315)" font-size="40" xml:space="preserve" fill="#000000" fill-rule="nonzero" stroke="none" stroke-width="1" stroke-linecap="butt" stroke-linejoin="miter" stroke-miterlimit="10" stroke-dasharray="" stroke-dashoffset="0" font-family="Serif" font-weight="normal" text-anchor="start" style="mix-blend-mode: normal"><tspan x="0" dy="0">DOLLARS</tspan></text><path d="M145.16328,164.91394l127.74171,20.19914" fill="none" stroke="#000000" stroke-width="1" stroke-linecap="round"/><text transform="translate(171.93397,167.11708) rotate(8.5437) scale(0.23549,0.23389) skewX(0.24047)" font-size="40" xml:space="preserve" fill="#003e77" fill-rule="nonzero" stroke="none" stroke-width="1" stroke-linecap="butt" stroke-linejoin="miter" stroke-miterlimit="10" stroke-dasharray="" stroke-dashoffset="0" font-family="Handwriting" font-weight="normal" text-anchor="start" style="mix-blend-mode: normal"><tspan x="0" dy="0">Seventy-five dollars </tspan></text><text transform="translate(143.34554,181.84529) rotate(8.54338) scale(0.1145,0.11371) skewX(0.24165)" font-size="40" xml:space="preserve" fill="#000000" fill-rule="nonzero" stroke="none" stroke-width="1" stroke-linecap="butt" stroke-linejoin="miter" stroke-miterlimit="10" stroke-dasharray="" stroke-dashoffset="0" font-family="Serif" font-weight="normal" text-anchor="start" style="mix-blend-mode: normal"><tspan x="0" dy="0">Memo:</tspan></text><path d="M158.05861,185.31074l98.04884,15.40238" fill="none" stroke="#000000" stroke-width="1" stroke-linecap="round"/><text transform="translate(164.24454,183.88141) rotate(8.54519) scale(0.22098,0.21948) skewX(0.24176)" font-size="40" xml:space="preserve" fill="#003e77" fill-rule="nonzero" stroke="none" stroke-width="1" stroke-linecap="butt" stroke-linejoin="miter" stroke-miterlimit="10" stroke-dasharray="" stroke-dashoffset="0" font-family="Handwriting" font-weight="normal" text-anchor="start" style="mix-blend-mode: normal"><tspan x="0" dy="0">Show-Off</tspan></text><text transform="translate(261.26135,199.89609) rotate(8.54338) scale(0.1145,0.11371) skewX(0.24165)" font-size="40" xml:space="preserve" fill="#000000" fill-rule="nonzero" stroke="none" stroke-width="1" stroke-linecap="butt" stroke-linejoin="miter" stroke-miterlimit="10" stroke-dasharray="" stroke-dashoffset="0" font-family="Serif" font-weight="normal" text-anchor="start" style="mix-blend-mode: normal"><tspan x="0" dy="0">Company:</tspan></text><path d="M331.54666,211.37608l-49.99433,-6.84004" fill="none" stroke="#000000" stroke-width="1" stroke-linecap="round"/><text transform="translate(282.79958,202.13382) rotate(8.54314) scale(0.11329,0.11253) skewX(0.23861)" font-size="40" xml:space="preserve" fill="#003e77" fill-rule="nonzero" stroke="none" stroke-width="1" stroke-linecap="butt" stroke-linejoin="miter" stroke-miterlimit="10" stroke-dasharray="" stroke-dashoffset="0" font-family="Handwriting" font-weight="normal" text-anchor="start" style="mix-blend-mode: normal"><tspan x="0" dy="0">Mark's Great Finds, Inc.</tspan></text><text transform="translate(146.35393,200.73175) rotate(8.54353) scale(0.25626,0.25453) skewX(0.23927)" font-size="40" xml:space="preserve" fill="#000000" fill-rule="nonzero" stroke="none" stroke-width="1" stroke-linecap="butt" stroke-linejoin="miter" stroke-miterlimit="10" stroke-dasharray="" stroke-dashoffset="0" font-family="Serif" font-weight="normal" text-anchor="start" style="mix-blend-mode: normal"><tspan x="0" dy="0">000045678000</tspan></text><text transform="translate(230.07795,213.64615) rotate(8.54593) scale(0.25693,0.25519) skewX(0.24177)" font-size="40" xml:space="preserve" fill="#000000" fill-rule="nonzero" stroke="none" stroke-width="1" stroke-linecap="butt" stroke-linejoin="miter" stroke-miterlimit="10" stroke-dasharray="" stroke-dashoffset="0" font-family="Serif" font-weight="normal" text-anchor="start" style="mix-blend-mode: normal"><tspan x="0" dy="0">0000</tspan></text><text transform="translate(267.38906,218.69149) rotate(8.54593) scale(0.25693,0.25519) skewX(0.24177)" font-size="40" xml:space="preserve" fill="#000000" fill-rule="nonzero" stroke="none" stroke-width="1" stroke-linecap="butt" stroke-linejoin="miter" stroke-miterlimit="10" stroke-dasharray="" stroke-dashoffset="0" font-family="Serif" font-weight="normal" text-anchor="start" style="mix-blend-mode: normal"><tspan x="0" dy="0">0000</tspan></text></g><g stroke="none" stroke-width="0" stroke-linecap="butt"><path d="M527.35124,55.96054c62.52478,11.34773 103.67109,73.11154 91.90284,137.95331c-11.76825,64.84177 -71.99465,108.20726 -134.51943,96.85953c-62.52478,-11.34773 -103.67109,-73.11153 -91.90284,-137.95331c11.76825,-64.84177 71.99465,-108.20726 134.51943,-96.85953z" fill="url(#color-2)"/><path d="M511.81556,141.88893c14.30136,2.59558 24.77933,10.8464 20.65605,33.56521c-4.12328,22.71881 0.19838,29.28324 -31.08921,23.92038c-28.83776,-4.94295 -24.82387,-10.60099 -20.70059,-33.3198c4.12328,-22.71881 16.8324,-26.76137 31.13375,-24.16579z" fill="url(#color-3)"/><path d="M345.14802,202.13015l4.29032,-23.63916l15.69863,-11.7013l273.83141,49.69815l11.57242,18.46198l-3.97208,21.88571z" fill="url(#color-4)"/></g><g stroke="none" stroke-width="0" stroke-linecap="butt"><path d="M96.73064,208.55043c0,20.27878 -16.56763,36.71798 -37.00484,36.71798c-20.4372,0 -37.00484,-16.4392 -37.00484,-36.71798c0,-20.27878 16.56763,-36.71798 37.00484,-36.71798c20.4372,0 37.00485,16.4392 37.00485,36.71798z" fill="url(#color-5)"/><path d="M93.68992,212.8342c0,21.6307 -17.67214,39.16585 -39.47183,39.16585c-21.79969,0 -39.47183,-17.53515 -39.47183,-39.16585c0,-21.6307 17.67214,-39.16585 39.47183,-39.16585c21.79969,0 39.47183,17.53515 39.47183,39.16585z" fill="url(#color-6)"/><path d="M23.21014,195.6241l4.60108,-6.49006l27.95722,19.82007c0,0 3.93055,2.49753 1.706,5.63535c-2.38775,3.36803 -6.3071,0.85471 -6.3071,0.85471z" fill="url(#color-7)"/></g><path d="M-7.74775,360.93094v-361.86186h495.4955v361.86186z" fill="url(#color-8)" stroke="none" stroke-width="0" stroke-linecap="butt"/></g></g></svg>