<svg version="1.1" xmlns="http://www.w3.org/2000/svg" xmlns:xlink="http://www.w3.org/1999/xlink" width="714.28396" height="712.99065" viewBox="0,0,714.28396,712.99065"><defs><radialGradient cx="482.258" cy="527.07367" r="47.00275" gradientUnits="userSpaceOnUse" id="color-1"><stop offset="0" stop-color="#a3a3a3"/><stop offset="1" stop-color="#5d5d5d"/></radialGradient><radialGradient cx="476.49349" cy="402.5646" r="57.36401" gradientUnits="userSpaceOnUse" id="color-2"><stop offset="0" stop-color="#a3a3a3"/><stop offset="1" stop-color="#5d5d5d"/></radialGradient><radialGradient cx="539.9326" cy="514.18725" r="129.86882" gradientUnits="userSpaceOnUse" id="color-3"><stop offset="0" stop-color="#a3a3a3"/><stop offset="1" stop-color="#5d5d5d"/></radialGradient><radialGradient cx="573.65013" cy="545.02965" r="18.08705" gradientUnits="userSpaceOnUse" id="color-4"><stop offset="0" stop-color="#a7a7a7"/><stop offset="1" stop-color="#7a7a7a"/></radialGradient><radialGradient cx="579.03168" cy="544.27774" r="36.56212" gradientUnits="userSpaceOnUse" id="color-5"><stop offset="0" stop-color="#efefef"/><stop offset="1" stop-color="#bdbdbd"/></radialGradient><linearGradient x1="517.45694" y1="418.40893" x2="442.67629" y2="492.73071" gradientUnits="userSpaceOnUse" id="color-6"><stop offset="0" stop-color="#efefef"/><stop offset="1" stop-color="#bdbdbd"/></linearGradient><radialGradient cx="-62.91378" cy="506.49678" r="122.70577" gradientUnits="userSpaceOnUse" id="color-7"><stop offset="0" stop-color="#c5c5c5"/><stop offset="1" stop-color="#5d5d5d"/></radialGradient><linearGradient x1="26.61903" y1="419.66768" x2="51.68168" y2="444.73032" gradientUnits="userSpaceOnUse" id="color-8"><stop offset="0" stop-color="#c5c5c5"/><stop offset="1" stop-color="#5d5d5d"/></linearGradient><radialGradient cx="16.62197" cy="411.97601" r="121.91609" gradientUnits="userSpaceOnUse" id="color-9"><stop offset="0" stop-color="#c5c5c5"/><stop offset="1" stop-color="#5d5d5d"/></radialGradient><radialGradient cx="-99.31962" cy="534.64172" r="18.08705" gradientUnits="userSpaceOnUse" id="color-10"><stop offset="0" stop-color="#a7a7a7"/><stop offset="1" stop-color="#7a7a7a"/></radialGradient><linearGradient x1="83.56386" y1="368.81433" x2="83.56386" y2="470.53974" gradientUnits="userSpaceOnUse" id="color-11"><stop offset="0" stop-color="#c5c5c5"/><stop offset="1" stop-color="#5d5d5d"/></linearGradient><linearGradient x1="235.86016" y1="274.5372" x2="235.86016" y2="430.51389" gradientUnits="userSpaceOnUse" id="color-12"><stop offset="0" stop-color="#a3a3a3"/><stop offset="1" stop-color="#5d5d5d"/></linearGradient><linearGradient x1="236.43653" y1="368.83973" x2="236.43653" y2="560.73448" gradientUnits="userSpaceOnUse" id="color-13"><stop offset="0" stop-color="#c5c5c5"/><stop offset="1" stop-color="#5d5d5d"/></linearGradient><linearGradient x1="242.80301" y1="358.86867" x2="242.80301" y2="685.8284" gradientUnits="userSpaceOnUse" id="color-14"><stop offset="0" stop-color="#c5c5c5"/><stop offset="1" stop-color="#5d5d5d"/></linearGradient><linearGradient x1="243.73983" y1="345.96678" x2="243.73983" y2="727.58086" gradientUnits="userSpaceOnUse" id="color-15"><stop offset="0" stop-color="#c5c5c5"/><stop offset="1" stop-color="#5d5d5d"/></linearGradient><linearGradient x1="236.97994" y1="357.8362" x2="236.97994" y2="676.32006" gradientUnits="userSpaceOnUse" id="color-16"><stop offset="0" stop-color="#c0c0c0"/><stop offset="1" stop-color="#9f9f9f"/></linearGradient><linearGradient x1="162.69193" y1="382.2885" x2="162.69193" y2="436.35885" gradientUnits="userSpaceOnUse" id="color-17"><stop offset="0" stop-color="#c0c0c0"/><stop offset="1" stop-color="#838383"/></linearGradient><linearGradient x1="162.69193" y1="415.955" x2="162.69193" y2="470.02535" gradientUnits="userSpaceOnUse" id="color-18"><stop offset="0" stop-color="#c0c0c0"/><stop offset="1" stop-color="#838383"/></linearGradient><linearGradient x1="162.69193" y1="448.60118" x2="162.69193" y2="502.67157" gradientUnits="userSpaceOnUse" id="color-19"><stop offset="0" stop-color="#c0c0c0"/><stop offset="1" stop-color="#838383"/></linearGradient><linearGradient x1="165.95225" y1="479.82244" x2="165.95225" y2="533.89279" gradientUnits="userSpaceOnUse" id="color-20"><stop offset="0" stop-color="#c0c0c0"/><stop offset="1" stop-color="#838383"/></linearGradient><linearGradient x1="174.10299" y1="518.62257" x2="174.10299" y2="562.9761" gradientUnits="userSpaceOnUse" id="color-21"><stop offset="0" stop-color="#c0c0c0"/><stop offset="1" stop-color="#838383"/></linearGradient><linearGradient x1="311.57921" y1="382.2885" x2="311.57921" y2="436.35885" gradientUnits="userSpaceOnUse" id="color-22"><stop offset="0" stop-color="#c0c0c0"/><stop offset="1" stop-color="#838383"/></linearGradient><linearGradient x1="311.57921" y1="415.955" x2="311.57921" y2="470.02535" gradientUnits="userSpaceOnUse" id="color-23"><stop offset="0" stop-color="#c0c0c0"/><stop offset="1" stop-color="#838383"/></linearGradient><linearGradient x1="311.57921" y1="448.60118" x2="311.57921" y2="502.67157" gradientUnits="userSpaceOnUse" id="color-24"><stop offset="0" stop-color="#c0c0c0"/><stop offset="1" stop-color="#838383"/></linearGradient><linearGradient x1="308.31892" y1="479.82244" x2="308.31892" y2="533.89279" gradientUnits="userSpaceOnUse" id="color-25"><stop offset="0" stop-color="#c0c0c0"/><stop offset="1" stop-color="#838383"/></linearGradient><linearGradient x1="300.16815" y1="518.62257" x2="300.16815" y2="562.9761" gradientUnits="userSpaceOnUse" id="color-26"><stop offset="0" stop-color="#c0c0c0"/><stop offset="1" stop-color="#838383"/></linearGradient><linearGradient x1="236.97994" y1="357.8362" x2="236.97994" y2="376.58298" gradientUnits="userSpaceOnUse" id="color-27"><stop offset="0" stop-color="#c0c0c0"/><stop offset="1" stop-color="#9f9f9f"/></linearGradient><linearGradient x1="203.71678" y1="641.15128" x2="270.24313" y2="641.15128" gradientUnits="userSpaceOnUse" id="color-28"><stop offset="0" stop-color="#7b7b7b"/><stop offset="1" stop-color="#b9b9b9"/></linearGradient><radialGradient cx="404.34225" cy="362.04749" r="18.08705" gradientUnits="userSpaceOnUse" id="color-29"><stop offset="0" stop-color="#a7a7a7"/><stop offset="1" stop-color="#7a7a7a"/></radialGradient><radialGradient cx="83.74552" cy="360.9607" r="18.08705" gradientUnits="userSpaceOnUse" id="color-30"><stop offset="0" stop-color="#a7a7a7"/><stop offset="1" stop-color="#7a7a7a"/></radialGradient><linearGradient x1="301.48318" y1="245.99593" x2="301.48318" y2="316.54744" gradientUnits="userSpaceOnUse" id="color-31"><stop offset="0" stop-color="#c5c5c5"/><stop offset="1" stop-color="#5d5d5d"/></linearGradient><linearGradient x1="148.53895" y1="48.34703" x2="148.53895" y2="89.71539" gradientUnits="userSpaceOnUse" id="color-32"><stop offset="0" stop-color="#c5c5c5"/><stop offset="1" stop-color="#5d5d5d"/></linearGradient><linearGradient x1="309.37521" y1="72.7876" x2="309.37521" y2="103.68256" gradientUnits="userSpaceOnUse" id="color-33"><stop offset="0" stop-color="#c5c5c5"/><stop offset="1" stop-color="#5d5d5d"/></linearGradient><linearGradient x1="234.48284" y1="77.93496" x2="234.48284" y2="297.54385" gradientUnits="userSpaceOnUse" id="color-34"><stop offset="0" stop-color="#a3a3a3"/><stop offset="1" stop-color="#1a1a1a"/></linearGradient><linearGradient x1="236.44264" y1="31.69695" x2="236.44264" y2="307.54358" gradientUnits="userSpaceOnUse" id="color-35"><stop offset="0" stop-color="#c5c5c5"/><stop offset="1" stop-color="#5d5d5d"/></linearGradient><linearGradient x1="228.37752" y1="48.17829" x2="228.37752" y2="288.22659" gradientUnits="userSpaceOnUse" id="color-36"><stop offset="0" stop-color="#b9b9b9"/><stop offset="1" stop-color="#5c5c5c"/></linearGradient><linearGradient x1="234.93702" y1="289.97802" x2="234.93702" y2="30.69325" gradientUnits="userSpaceOnUse" id="color-37"><stop offset="0" stop-color="#5d5d5d"/><stop offset="1" stop-color="#a1a1a1"/></linearGradient><linearGradient x1="234.93702" y1="289.97802" x2="234.93702" y2="30.69325" gradientUnits="userSpaceOnUse" id="color-38"><stop offset="0" stop-color="#c5c5c5"/><stop offset="1" stop-color="#5d5d5d"/></linearGradient><linearGradient x1="236.44264" y1="31.69695" x2="236.44264" y2="307.54358" gradientUnits="userSpaceOnUse" id="color-39"><stop offset="0" stop-color="#c5c5c5"/><stop offset="1" stop-color="#5d5d5d"/></linearGradient><linearGradient x1="195.59851" y1="167.6236" x2="199.81426" y2="167.6236" gradientUnits="userSpaceOnUse" id="color-40"><stop offset="0" stop-color="#cdcdcd"/><stop offset="1" stop-color="#444444"/></linearGradient><linearGradient x1="273.1215" y1="167.6236" x2="277.33726" y2="167.6236" gradientUnits="userSpaceOnUse" id="color-41"><stop offset="0" stop-color="#cdcdcd"/><stop offset="1" stop-color="#444444"/></linearGradient><linearGradient x1="236.70504" y1="147.73295" x2="236.70504" y2="155.13254" gradientUnits="userSpaceOnUse" id="color-42"><stop offset="0" stop-color="#cdcdcd"/><stop offset="1" stop-color="#444444"/></linearGradient><radialGradient cx="279.57399" cy="143.43091" r="18.2353" gradientUnits="userSpaceOnUse" id="color-43"><stop offset="0" stop-color="#b9b097"/><stop offset="1" stop-color="#827c69"/></radialGradient><linearGradient x1="235.97933" y1="229.59486" x2="235.97933" y2="233.61318" gradientUnits="userSpaceOnUse" id="color-44"><stop offset="0" stop-color="#a0a0a0"/><stop offset="1" stop-color="#696969"/></linearGradient><linearGradient x1="248.92267" y1="189.67556" x2="248.92267" y2="234.66241" gradientUnits="userSpaceOnUse" id="color-45"><stop offset="0" stop-color="#cdcdcd"/><stop offset="1" stop-color="#444444"/></linearGradient><linearGradient x1="223.66101" y1="189.52281" x2="223.66101" y2="234.50962" gradientUnits="userSpaceOnUse" id="color-46"><stop offset="0" stop-color="#cdcdcd"/><stop offset="1" stop-color="#444444"/></linearGradient><linearGradient x1="236.31079" y1="228.17999" x2="236.31079" y2="265.96517" gradientUnits="userSpaceOnUse" id="color-47"><stop offset="0" stop-color="#6e6e6e"/><stop offset="1" stop-color="#969696"/></linearGradient><linearGradient x1="239.53518" y1="166.16822" x2="239.53518" y2="195.32702" gradientUnits="userSpaceOnUse" id="color-48"><stop offset="0" stop-color="#cdcdcd"/><stop offset="1" stop-color="#444444"/></linearGradient><linearGradient x1="198.86424" y1="143.71843" x2="198.86424" y2="211.19782" gradientUnits="userSpaceOnUse" id="color-49"><stop offset="0" stop-color="#c5c5c5"/><stop offset="1" stop-color="#5d5d5d"/></linearGradient><linearGradient x1="197.76762" y1="144.66686" x2="197.76762" y2="209.78111" gradientUnits="userSpaceOnUse" id="color-50"><stop offset="0" stop-color="#c5c5c5"/><stop offset="1" stop-color="#5d5d5d"/></linearGradient><radialGradient cx="202.28522" cy="143.43091" r="18.2353" gradientUnits="userSpaceOnUse" id="color-51"><stop offset="0" stop-color="#b9b097"/><stop offset="1" stop-color="#827c69"/></radialGradient><linearGradient x1="229.14732" y1="39.26398" x2="229.14732" y2="215.28256" gradientUnits="userSpaceOnUse" id="color-52"><stop offset="0" stop-color="#afafaf"/><stop offset="1" stop-color="#515151"/></linearGradient><linearGradient x1="231.88404" y1="107.94929" x2="231.88404" y2="218.3119" gradientUnits="userSpaceOnUse" id="color-53"><stop offset="0" stop-color="#afafaf"/><stop offset="1" stop-color="#4b4b4b"/></linearGradient><linearGradient x1="236.44264" y1="31.69695" x2="236.44264" y2="307.54358" gradientUnits="userSpaceOnUse" id="color-54"><stop offset="0" stop-color="#c5c5c5"/><stop offset="1" stop-color="#5d5d5d"/></linearGradient><radialGradient cx="240" cy="180" r="247" gradientUnits="userSpaceOnUse" id="color-55"><stop offset="0" stop-color="#111111" stop-opacity="0"/><stop offset="1" stop-color="#111111"/></radialGradient><linearGradient x1="240" y1="-8.5" x2="240" y2="368.5" gradientUnits="userSpaceOnUse" id="color-56"><stop offset="0" stop-color="#111111" stop-opacity="0"/><stop offset="1" stop-color="#111111"/></linearGradient><linearGradient x1="240" y1="368.5" x2="240" y2="-8.5" gradientUnits="userSpaceOnUse" id="color-57"><stop offset="0" stop-color="#111111" stop-opacity="0"/><stop offset="1" stop-color="#111111"/></linearGradient></defs><g transform="translate(116.75834,9.5)"><g data-paper-data="{&quot;isPaintingLayer&quot;:true}" fill-rule="nonzero" stroke-linecap="butt" stroke-linejoin="miter" stroke-miterlimit="10" stroke-dasharray="" stroke-dashoffset="0" style="mix-blend-mode: normal"><path d="M-7,368.5v-377h494v377z" fill="#111111" stroke="#000000" stroke-width="2"/><g><path d="M518.52844,419.488c25.03074,25.00846 61.68072,87.22853 61.68072,87.22853l-48.50904,48.82363c0,0 -62.47062,-36.30012 -87.50135,-61.30858c-4.8925,-4.88817 -10.732,-10.76023 -16.97391,-17.05768c0.25176,-0.26215 0.50716,-0.52327 0.76654,-0.78328c1.9157,-3.12721 7.93718,-9.54757 9.04436,-12.4476c3.17314,-8.31157 -4.29115,-14.05325 -9.27785,-19.07074c-3.30828,-3.32871 -7.1271,-8.58871 -12.03552,-9.60315c-5.7855,-1.19572 -5.91122,2.4857 -11.33763,0.28671c-5.15666,-2.0897 -10.03784,-8.72028 -15.64652,-10.94051c-2.79332,-1.10575 -6.03407,-1.1782 -8.57074,-2.78783c0,0 -3.48814,-2.10752 -5.59566,1.38062c-0.07408,0.12261 -0.14123,0.24354 -0.20191,0.36269c-4.21411,-4.28916 -6.74377,-6.86719 -6.74377,-6.86719l60.75527,-60.9334c1.20773,2.40449 4.15927,1.99209 4.15927,1.99209c15.47015,-2.20416 22.21317,15.48446 35.90707,20.61703c3.92217,1.47005 7.80971,2.34405 11.66474,2.72652c16.47791,16.46348 33.13808,33.10904 38.41588,38.38215z" fill="#494949" stroke="#000000" stroke-width="0"/><g stroke="none"><path d="M466.34051,523.33547c-1.06916,0.32246 -2.46437,0.27405 -3.85539,-1.12557c-2.87284,-2.89057 0.01774,-5.76341 0.01774,-5.76341l5.75117,-1.36365c5.19945,3.18441 11.07997,4.6545 16.84637,6.59641c4.25365,2.57968 7.49223,-6.06544 14.09999,-6.31344c8.08653,-0.30355 12.64626,6.05125 19.51921,7.89605c3.12516,0.83886 6.09631,2.182 9.19954,3.09867c6.32423,1.86816 14.28356,-1.35443 20.70898,1.88304c5.22214,2.63123 10.70449,10.4739 14.8465,14.64149c0,0 2.87284,2.89057 -0.01774,5.76341c-2.89057,2.87284 -5.76341,-0.01774 -5.76341,-0.01774c-3.50174,-3.52336 -8.3527,-10.90119 -12.73287,-13.10812c-5.47878,-2.76047 -13.52574,0.18406 -19.24132,-1.31379c-3.13845,-0.82248 -6.12245,-2.15518 -9.22454,-3.10573c-6.70483,-2.0545 -10.15724,-6.98181 -17.31944,-7.58661c-3.99258,-0.33714 -6.31051,6.80483 -9.84539,7.54534c-2.2933,0.48036 -4.55385,-1.10536 -6.8308,-1.65806c-5.54172,-1.86619 -11.01701,-3.42124 -16.15859,-6.06829z" fill="url(#color-1)" stroke-width="0.5"/><path d="M500.6756,422.41051c-2.10752,3.48814 -5.59564,1.3806 -5.59564,1.3806l-3.8352,-2.31718c-6.98278,-4.22557 -14.41502,-7.36341 -21.1988,-11.93516c-5.84922,-5.84546 -11.94415,-8.83183 -18.32488,-13.82822c-1.85634,-1.45361 -2.21299,-5.17649 -4.55939,-5.40766c-5.97378,-0.58843 -12.82281,4.15418 -19.70601,3.0696c-7.82737,-1.23336 -12.7156,-8.34149 -18.99272,-12.06182c-4.73019,-2.80346 -11.13375,-2.47429 -16.20971,-5.48092c0,0 -3.48814,-2.10747 -1.38064,-5.59564c2.10752,-3.48814 5.59566,-1.38062 5.59566,-1.38062c5.07737,3.14754 10.95251,2.52162 16.03239,5.37681c5.01131,2.81664 10.15606,10.32656 16.2854,11.10076c6.33365,0.79997 14.34325,-4.38972 20.27269,-2.95508c2.59633,0.62816 5.49234,5.19987 7.69811,6.92553c6.35468,4.97152 12.66847,8.06024 18.47594,13.94981c6.44854,4.30491 13.59179,7.24323 20.22695,11.24627l3.83523,2.31721c0,0 3.48812,2.1075 1.38062,5.59566z" fill="url(#color-2)" stroke-width="0.5"/><path d="M397.3905,386.64949c-7.12825,-0.02194 -8.00328,-6.25872 -8.11065,-7.82313c-0.47972,-0.51448 -0.96628,-1.02059 -1.46643,-1.50982c0,0 -5.7457,-5.78117 0.03547,-11.52687c5.78117,-5.7457 11.52687,0.03547 11.52687,0.03547c0.02989,0.03127 0.05983,0.06239 0.08991,0.09346c1.38357,-0.81201 2.82415,-1.4365 4.40532,-1.59847c21.61228,-2.21328 41.3587,25.821 45.23294,44.17594c0.03991,0.18897 0.07846,0.37552 0.11568,0.55979c2.36251,2.45544 4.61998,4.96541 6.69229,7.55681c6.21833,7.7759 8.48273,17.79197 14.58893,25.48833c1.41847,1.7879 2.87408,3.58401 4.36524,5.37921c17.07258,-2.31499 34.65308,-5.25222 47.18864,7.86443c3.11849,3.26304 7.46017,5.93617 8.88321,10.21955c1.34588,4.0511 -0.84426,8.49576 -1.25388,12.74484c-0.43859,4.5492 -1.53117,10.20524 -2.25353,15.92291c13.99423,11.13937 27.53794,21.97973 40.50466,35.02651l6.12874,6.16658c0,0 5.7457,5.78117 -0.03547,11.52687c-5.78117,5.7457 -11.52687,-0.03547 -11.52687,-0.03547l-0.80595,-0.81093c-15.20986,-8.72552 -40.40958,-6.18272 -48.3387,-26.16383c-2.24598,-5.65981 -2.63223,-11.80757 -2.33428,-17.98182c-1.11746,-0.89362 -2.23816,-1.79213 -3.36202,-2.69692c-14.21788,-8.58261 -27.60236,-20.98343 -39.12597,-34.00177c-4.27715,0.0278 -8.53284,-0.07435 -12.36774,-0.09974c-9.87408,-2.43228 -17.65838,-2.37359 -23.744,-12.49992c-2.35866,-3.92479 -2.59115,-8.90686 -2.61507,-13.4858c-0.02284,-4.37238 3.59593,-15.53152 3.91125,-20.9086c0.03164,-0.53949 0.0307,-1.11122 -0.00122,-1.71087c-5.29867,-5.20824 -10.92626,-10.21243 -16.00783,-15.32538c-3.68847,-3.71125 -6.46433,-8.54575 -10.93879,-11.2582c-2.74195,-1.66217 -6.21792,-1.8649 -9.04783,-3.32682c-0.10939,0.00272 -0.22031,0.00394 -0.33281,0.00357zM446.50831,444.45544c1.48828,2.56183 5.48179,3.46924 8.62553,4.00973c-2.98936,-4.90375 -5.06722,-10.3348 -7.81783,-15.36662c-0.93014,3.784 -2.00682,9.29288 -0.8077,11.35689zM513.52214,476.17999c0.36769,-1.9626 2.49257,-3.7893 1.87668,-5.68866c-0.62906,-1.94001 -3.41228,-2.26712 -4.90646,-3.65525c-1.49722,-1.391 -2.16451,-3.76627 -4.01513,-4.63328c-5.2809,-2.47396 -11.80453,-0.79492 -17.69408,0.73658c7.45498,7.57397 15.51572,14.6074 24.04575,20.30789c0.16465,-2.36509 0.25734,-4.74034 0.69322,-7.06726z" fill="url(#color-3)" stroke-width="0.5"/><path d="M554.88196,529.99465c6.87815,-6.83317 18.1611,-6.62783 25.20133,0.4588c7.04023,7.08659 7.17177,18.37065 0.29362,25.20382c-6.87813,6.8332 -18.16113,6.62791 -25.20136,-0.45873c-7.04018,-7.08654 -7.17172,-18.3707 -0.29347,-25.20387z" fill="url(#color-4)" stroke-width="0"/></g><path d="M535.7323,510.72143c13.90389,-13.81298 36.71186,-13.39786 50.94331,0.92744c14.2315,14.3252 14.49744,37.13542 0.59355,50.94839c-13.90381,13.81305 -36.71189,13.39798 -50.94336,-0.92729c-14.23143,-14.32508 -14.49729,-37.13557 -0.59327,-50.94847z" fill="url(#color-5)" stroke="none" stroke-width="0"/><path d="M518.52844,419.488c25.03074,25.00846 61.68072,87.22853 61.68072,87.22853l-48.50904,48.82363c0,0 -62.47062,-36.30012 -87.50135,-61.30858c-7.94968,-7.9426 -18.39951,-18.48291 -29.01344,-29.22462c2.33315,1.75226 4.53096,3.95786 6.58335,5.33124c3.76458,2.51913 11.7197,4.13534 14.72598,7.22079c2.93474,3.01202 3.55118,7.62517 5.42186,11.39149c4.75616,7.88607 10.75643,12.41941 18.28408,16.93122c4.88425,2.92747 10.62166,10.23159 16.57553,11.31723c8.81752,1.60776 16.21757,-6.16031 14.86526,-15.00659c-0.16637,-1.08833 -5.92663,-6.71362 -7.16899,-7.96365c-7.13363,-7.17767 -16.45455,-13.84308 -19.64454,-23.67751c-2.17212,-8.80354 -5.71161,-17.35709 -13.99694,-22.35047c-3.23757,-1.95124 -7.47863,-1.54459 -10.88329,-3.18702c-11.00693,-5.30972 -15.94707,-22.80867 -28.40078,-26.56656c-5.77174,-1.7416 -13.44672,-1.23483 -19.96719,-2.04041c-1.15879,-0.66036 -2.1611,-0.70351 -2.97942,-0.47264c-0.91979,-0.09733 -3.84588,-0.13252 -4.52747,3.22159c-0.16774,0.82557 -0.13019,1.51516 0.03503,2.08971l-0.02602,0.04384c-1.94709,1.90473 -4.01312,3.96125 -5.88125,6.1794c-6.46651,-6.57865 -10.57424,-10.76496 -10.57424,-10.76496l59.9199,-60.09557c3.1803,3.57715 6.74763,7.31691 10.70716,8.53047c2.81856,0.86387 6.07816,-1.13017 8.8433,-0.10815c4.76507,1.76123 9.11657,10.97779 13.54233,13.99134c8.20451,5.58655 20.55617,8.59255 29.94125,12.54252c12.60607,12.59499 23.79746,23.77659 27.94836,27.92381z" fill="url(#color-6)" stroke="#000000" stroke-width="0"/></g><g stroke="none"><path d="M75.9475,367.82032c-0.79923,3.99624 -4.79549,3.19698 -4.79549,3.19698l-1.50614,-0.53817c-9.62886,1.27807 -21.78013,14.9969 -25.86883,23.37036c-8.38984,12.38823 -14.92269,26.72541 -23.17637,39.38946c-3.74785,5.75047 -11.23303,11.35073 -16.0819,16.1996c-9.99001,9.99001 -19.97999,19.97999 -29.96999,29.96999c-20.82547,20.82547 -44.64281,38.84449 -61.81085,62.8851c0,0 -2.36877,3.31627 -5.68504,0.94751c-3.31627,-2.36877 -0.94751,-5.68504 -0.94751,-5.68504c17.45581,-24.43256 41.52112,-42.75221 62.67993,-63.91103c9.99001,-9.99001 19.97999,-19.97999 29.96999,-29.96999c4.375,-4.375 11.68564,-9.68922 15.04079,-14.92309c8.08729,-12.61576 14.7801,-26.59723 22.93131,-38.99361c5.5113,-10.80409 19.50457,-25.50092 31.76579,-27.34812l4.2573,0.61453c0,0 3.99624,0.79923 3.19698,4.79549z" fill="url(#color-7)" stroke-width="0.5"/><path d="M-1.82109,491.51176c-2.88172,-2.88172 0,-5.76344 0,-5.76344l0.57635,-0.57635c10.0379,-10.0379 26.20699,-20.80301 28.30904,-35.51711c3.98886,-11.92092 3.85059,-28.79454 10.96591,-39.38728c9.13305,-13.59653 25.17806,-25.28209 36.80276,-36.9068c0,0 2.88172,-2.88172 5.76344,0c2.88172,2.88172 0,5.76344 0,5.76344c-11.45352,11.45352 -26.34042,22.65537 -35.81685,35.71281c-1.6769,2.31061 -1.04031,4.03894 -1.71369,6.72041c-2.48257,9.8855 -4.87712,20.35882 -8.06883,29.96999c-2.36728,16.57093 -19.20376,28.13341 -30.47825,39.4079l-0.57635,0.57635c0,0 -2.88172,2.88172 -5.76344,0z" fill="url(#color-8)" stroke-width="0.5"/><path d="M72.57911,374.61516c5.03156,3.98593 0.25435,9.66483 0.25435,9.66483l-4.86924,5.78739c-15.00405,16.97389 -31.157,32.10748 -47.15449,48.06741c-12.50062,9.57205 -25.07703,19.04937 -37.83302,28.32794c-7.20559,16.29318 -11.60133,31.02906 -25.31518,44.80597c-14.78164,12.65183 -30.4506,29.29805 -48.40272,35.3394l-5.73336,-0.23388c-1.12781,0.18721 -2.40653,0.07127 -3.82085,-0.55454c-1.10374,-0.48836 -1.88128,-1.10637 -2.41559,-1.78924c-0.24037,-0.30709 -0.45276,-0.65467 -0.62216,-1.04794c-0.16939,-0.39327 -0.28029,-0.79605 -0.34545,-1.19831c-0.1451,-0.89437 -0.09395,-1.96258 0.25015,-3.2376c0.33243,-1.23164 0.81925,-2.21559 1.39465,-3.00106c5.82847,-10.78084 9.0896,-21.35064 17.0698,-31.41744c10.73215,-13.5383 26.30492,-24.05785 40.17401,-33.7001c5.84634,-4.06455 11.64609,-8.1794 17.40742,-12.33617c1.7479,-3.97713 3.6602,-7.91258 5.92446,-11.7347c9.57942,-16.17029 23.13529,-28.93807 36.4051,-42.20789c5.89557,-5.89557 12.57176,-14.14702 19.74069,-18.55893c8.96089,-5.51473 17.62548,-6.53243 27.22329,-8.29432c0,0 0.01143,-0.00209 0.03339,-0.00566l0.82613,-0.98224c0,0 4.77718,-5.67893 9.80871,-1.69298zM-38.1105,481.47734c-12.4404,8.65291 -26.97661,18.14484 -36.57499,30.36142c-4.57047,5.81722 -7.42487,11.87816 -10.23837,18.06679c12.14141,-6.77727 23.97717,-19.60774 34.00851,-28.16602c6.38341,-6.34699 10.62776,-13.59216 14.14535,-21.19603c-0.44658,0.31159 -0.8934,0.62288 -1.3405,0.93389zM12.57498,428.29751c11.44788,-11.476 23.01933,-22.48017 34.15204,-34.10301c-1.99219,0.69397 -3.94285,1.57893 -5.82403,2.75436c-6.00793,3.75411 -12.00838,11.37766 -16.8936,16.26287c-7.73867,7.73867 -15.39217,15.23041 -22.23413,23.3059c3.6093,-2.72947 7.20852,-5.47026 10.79974,-8.22014z" fill="url(#color-9)" stroke-width="0.5"/><path d="M-86.14865,530.30281c6.85716,6.85428 6.69092,18.13801 -0.37103,25.20285c-7.06201,7.06494 -18.34559,7.2355 -25.20265,0.38117c-6.85709,-6.85431 -6.69082,-18.13791 0.37118,-25.2028c7.06201,-7.06494 18.34554,-7.23555 25.20263,-0.38124z" fill="url(#color-10)" stroke-width="0"/></g><path d="M83.46978,463.60736c0.48818,0.55676 2.44457,3.10416 -0.10283,5.6516c-2.88171,2.88171 -5.76346,0 -5.76346,0l-2.28041,-3.96846c0,-3.21036 0.04283,-6.42077 0.10901,-9.6305c3.78392,-7.84214 13.63775,-27.30173 8.02732,-36.1794c-3.94415,-6.24103 -10.00089,-11.74761 -9.19259,-19.89417c0.4878,-4.91673 12.82354,-20.93409 4.39583,-23.02615c0,0 -3.64511,-1.82254 -1.82257,-5.46769c1.82254,-3.64511 5.46769,-1.82257 5.46769,-1.82257c6.40081,3.92743 9.49858,12.46383 6.28969,20.41945c-1.39513,3.45878 -8.72625,8.28722 -6.41954,13.4532c1.9553,4.37897 6.19115,8.22981 8.37431,12.32208c6.42417,12.04187 -1.5723,31.29008 -7.1874,42.06793c0.06471,2.02416 0.09492,4.04944 0.10497,6.07469z" fill="url(#color-11)" stroke="none" stroke-width="0.5"/><g stroke="none"><g><path d="M243.50051,286.51703h2.17354c9.85934,0 14.27106,0.78381 17.08605,11.18481c0.04374,6.94412 0.42519,14.63944 2.09505,21.29696c1.07906,4.30203 4.49062,8.68989 5.43386,13.04122c0.0098,0.04525 0.01953,0.09074 0.02912,0.13645c0.00516,-0.00042 0.01029,-0.00084 0.01546,-0.0013c5.68817,-0.47403 13.31629,-2.64531 19.01318,-0.89153c7.17995,2.21035 11.59181,11.6022 18.47507,14.12797c2.48947,0.91352 5.33075,0.26503 7.90334,0.90814c13.05836,-0.10357 32.35389,-3.57643 44.38673,1.30938c2.08701,0.8474 4.42148,1.56548 5.93212,3.23633c1.46989,1.62577 3.12306,10.92565 6.16796,12.03555c5.37972,1.96096 14.537,-2.44823 20.17578,-2.48378c0,0 4.07537,0 4.07537,4.07537c0,3.21813 -2.54115,3.89504 -3.61026,4.03746c-0.92469,1.95172 -3.3199,2.19124 -3.3199,2.19124c-10.33699,1.03226 -21.26067,2.13001 -31.24877,5.14863c-14.42237,4.35877 -23.4966,19.35339 -37.42119,24.00519c-4.73408,1.5815 -13.70917,1.29592 -18.67704,1.29592c-3.58019,0 -8.52109,0.27964 -11.70391,-1.569c-2.59919,-1.50966 -4.3268,-4.17349 -6.49018,-6.26022c-7.20704,-5.23136 -17.27552,-11.15913 -21.34906,-19.49037c-2.12952,-4.35529 -2.37284,-9.13852 -1.95516,-14.06888c-2.92436,-4.36906 -5.49088,-8.95373 -7.69234,-12.84388c-1.07951,-1.90763 -1.77322,-3.80124 -2.31512,-5.59908c-1.13969,0.02185 -2.28104,0.03766 -3.42456,0.04746c-0.22228,0.19185 -0.44743,0.38153 -0.67529,0.56899c-0.06064,0.2038 -0.12412,0.40668 -0.19052,0.60851c-0.23099,0.70182 -1.80417,1.15937 -1.36032,1.75006c0.65752,0.87505 2.39342,-0.02544 3.20664,0.70719c6.42755,5.79051 7.16358,12.9485 5.82093,21.12285c-1.40223,8.53721 -6.07209,11.09445 -8.96501,18.38261c-3.60053,9.07089 -2.95008,18.2223 -2.95008,27.78317c0,3.62256 0,7.24512 0,10.86768v3.26032c0,0 0,4.07537 -4.07537,4.07537c-4.07537,0 -4.07537,-4.07537 -4.07537,-4.07537c0,-3.62256 0,-10.50541 0,-14.12797c0,-8.66896 -0.33101,-16.96057 1.72417,-25.18947c-3.91345,3.25716 -8.78166,5.83358 -12.40285,8.73722c-5.71508,4.58263 -6.73052,10.18743 -14.90475,11.75991c-12.1928,2.34557 -30.33405,-0.46011 -42.23498,-3.38448c-11.21632,-4.84759 -13.68823,-20.7449 -25.03053,-25.00713c-2.46671,-0.92694 -5.29439,0.54886 -7.90334,0.17861c-6.14056,-0.87143 -8.96367,-5.09997 -14.72818,-6.64083c-11.04225,-2.95162 -24.51969,-0.93604 -35.85198,-0.93604c0,0 -0.76955,0 -1.63986,-0.33441c-0.03562,0.01433 -0.07128,0.02867 -0.10687,0.04293c0,0 -3.78392,1.51356 -5.29744,-2.27036c-1.51356,-3.78392 2.27036,-5.29744 2.27036,-5.29744c9.697,-3.87185 19.90973,-10.10101 30.45473,-11.13932c22.00826,-2.16711 44.8492,1.20209 66.69449,1.06694c9.54021,0 19.4357,0.77563 28.94117,0.01981c3.12893,-0.2488 5.64897,-2.74122 8.51905,-4.01195c4.84379,-2.14459 10.0929,-4.15989 15.20028,-6.50346c-0.7732,-1.10825 -1.55733,-2.18973 -2.33521,-3.24128c-3.46784,-2.78552 -8.84177,-3.3758 -11.31599,-7.0722c-3.09102,-4.61786 -0.84891,-8.43986 1.82138,-11.84577c-3.82766,-2.64848 -6.96678,-5.79543 -8.591,-9.2228c-2.8293,-5.97038 -6.27427,-19.9482 -1.78857,-26.07393c2.15822,-2.9473 7.64727,-3.89866 10.94444,-4.7403l2.07517,-0.12166c0,0 4.07537,0 4.07537,4.07537c0,4.07537 -4.07537,4.07537 -4.07537,4.07537l-0.09833,-0.12166c-2.1651,0.52743 -5.2074,-0.0736 -6.44385,1.78031c-2.29376,3.43928 1.36587,14.41854 2.5585,17.39683c0.66419,1.65865 2.02201,3.2703 3.79853,4.76201c0.26271,-4.29304 1.1333,-8.19574 2.56374,-11.02816c2.7871,-1.89048 4.93471,-3.22273 7.00981,-4.26476c0.63784,-1.58818 1.29322,-3.16368 1.98594,-4.70439c-0.54872,-0.39277 -1.12378,-0.8214 -1.72828,-1.2942l-1.64534,-5.61296c0,0 -0.98842,-3.95371 2.96529,-4.94213c3.95371,-0.98842 4.94213,2.96529 4.94213,2.96529l0.07725,0.45077c2.44767,-3.54569 5.44081,-6.53413 9.36122,-8.54132l2.17354,-1.08675c0,0 3.64511,-1.82257 5.46769,1.82257c1.82257,3.64511 -1.82257,5.46769 -1.82257,5.46769l-2.17354,1.08675c-2.06112,0.99854 -3.52943,2.05774 -4.62268,3.20914c0.3764,-0.06197 0.62657,-0.06197 0.62657,-0.06197zM270.36749,354.12293c-0.14334,1.31855 -0.41883,2.76462 -0.69437,4.26761c2.10099,2.81686 4.37943,5.3729 6.84065,7.29754c11.51989,9.00832 29.32185,5.5969 43.06053,5.5969c0,0 4.07537,0 4.07537,4.07537c0,4.07537 -4.07537,4.07537 -4.07537,4.07537c-16.30867,0 -34.53473,3.16262 -48.22806,-7.44431c-0.25516,-0.19765 -0.5086,-0.40099 -0.76042,-0.60977c4.01477,6.56884 12.83935,11.46871 18.7055,15.76747c21.1942,22.16189 46.52904,-12.89398 66.41976,-19.01304c2.86049,-0.88 5.79525,-1.6087 8.77161,-2.22532c-2.26224,-4.11566 -2.83341,-9.245 -7.19864,-10.63708c-12.25006,-3.90646 -29.59401,-0.78248 -42.55474,-0.86419c-3.09443,-0.77359 -6.50339,-0.13206 -9.48495,-1.26536c-6.80672,-2.58724 -11.77256,-12.20123 -18.47507,-14.12797c-4.26511,-1.22608 -11.54498,0.91549 -15.70301,1.27688c0.07936,4.83989 -0.28709,10.04283 -0.6988,13.82988zM256.92244,320.8715c-1.72494,-6.91819 -2.30897,-14.99462 -2.25202,-22.17376c-1.19401,-5.75801 -3.69609,-4.02994 -8.99638,-4.02994h-0.02596c1.54711,1.60529 3.02066,3.72792 4.68521,7.00475c3.25414,5.677 5.34122,16.33684 4.19773,25.37696c1.02502,1.84513 1.67769,3.87881 2.23906,5.95011c1.75625,-0.06808 3.51088,-0.15064 5.26635,-0.24838c-1.25531,-3.94401 -4.13154,-7.93935 -5.11399,-11.87974zM259.16677,341.06383c0.27206,0.63985 0.57563,1.26142 0.92135,1.85908c0.74145,1.28183 1.52473,2.66355 2.35053,4.09901c0.27265,-2.07471 0.47863,-4.13333 0.52922,-6.15556c-1.26704,0.07346 -2.53384,0.13926 -3.8011,0.19744zM228.80935,314.92814c-0.46531,1.15231 -1.02004,2.26593 -1.63729,3.34797c4.40061,1.8869 8.95464,3.04156 11.98141,3.01753c0.28983,0.00151 0.60001,-0.00112 0.92666,-0.00552c-0.05863,-6.44933 -0.70902,-12.92177 -2.59198,-18.45909c-0.60299,0.15918 -1.1744,0.31636 -1.72477,0.47817c-2.25156,3.91738 -5.17216,7.20848 -6.95399,11.62093zM131.14128,370.59376c3.87491,2.07601 8.64032,-0.57482 12.5785,0.90034c11.75713,4.40406 14.48645,21.36311 24.9608,24.98423c10.98435,2.81285 26.80754,4.60624 38.18589,3.13617c5.50215,-0.71088 7.24821,-6.77591 11.17771,-9.97542c4.30189,-3.50276 12.45284,-7.03388 15.46903,-12.07419c5.58626,-9.33511 3.20327,-18.71955 -1.38614,-27.10844c-5.60533,2.54224 -11.36377,4.68356 -16.30579,6.88899c-3.65109,1.62935 -7.07087,4.22524 -11.04277,4.68219c-9.63229,1.10822 -20.04305,0.01981 -29.74434,0.01981c-21.64901,-0.11144 -44.07182,-2.88428 -65.89132,-1.1066c-3.49813,0.28498 -7.01838,1.29673 -10.5072,2.63917c11.22005,0.11723 21.68027,1.21403 32.50566,7.01378zM245.98513,365.01418c0.465,-3.31488 1.34669,-6.89894 0.19034,-10.0402c-0.7307,-1.98502 -2.88937,-2.95134 -4.89944,-4.03591c2.60814,5.95148 4.07582,12.22069 3.3967,18.58841c0.6064,-1.33783 1.07333,-2.80773 1.3124,-4.51229zM239.15344,329.44441c-2.83573,-0.01788 -6.22958,-0.62614 -9.74699,-1.71012c0.24827,0.6604 0.48952,1.2975 0.71594,1.90591c0.63377,1.70288 0.51963,4.04357 2.02518,5.0608c1.00486,0.67891 2.14023,-1.28605 3.344,-1.43307c1.37936,-0.16845 2.76877,-0.1766 4.16081,-0.14109c0.08579,-1.20328 0.16399,-2.43122 0.22958,-3.67621c-0.23643,-0.00566 -0.47923,-0.00776 -0.72852,-0.00622z" fill="url(#color-12)" stroke-width="0.5"/><path d="M74.2363,375.0887c0,-4.07537 4.07537,-4.07537 4.07537,-4.07537c2.89805,0 6.88288,0 9.78093,0c31.43928,0.3309 56.26827,20.65335 80.63025,37.71938c12.00555,8.41011 19.80936,19.19481 35.30193,22.11966c22.11186,3.6853 48.62567,12.33293 71.42597,7.59324c14.01425,-2.91326 27.08216,-7.22871 39.98893,-13.67772c18.60945,-11.04341 17.47492,-39.77175 36.90332,-51.05201c6.10831,-3.54654 13.53017,-2.02321 20.08142,-2.68269c5.67626,-0.57137 10.91904,-2.17621 16.70309,-2.19339c0,0 4.07537,0 4.07537,4.07537c0,1.13463 -0.3159,1.95337 -0.77176,2.54417c0.71583,-0.06123 1.42693,-0.0945 2.13025,-0.09896c0,0 4.07537,0 4.07537,4.07537c0,4.07537 -4.07537,4.07537 -4.07537,4.07537c-3.16803,-0.02515 -4.31503,-0.3575 -7.28018,0.83363c-1.91553,0.76948 -3.85035,1.57504 -5.55162,2.74421c-17.05278,11.71884 6.1356,30.1486 9.19083,42.48859c2.54006,10.25938 -3.26914,19.62432 -7.71894,28.34137c-1.66898,8.66892 -2.88059,17.66737 -1.9728,26.5318c0.92602,9.04261 5.17666,15.41518 4.34258,25.29858c-1.36007,16.11604 -12.01314,28.14137 -11.93012,44.65619l0.65653,0.35096c0,0 1.82254,3.64515 -1.82257,5.46769c-3.64515,1.82254 -5.46769,-1.82257 -5.46769,-1.82257l-1.517,-3.99608c0.02487,-5.95243 0.78782,-13.67326 2.28255,-19.41139c2.35889,-9.05564 8.88052,-16.18799 9.69626,-26.13418c0.7569,-9.22895 -3.33171,-14.94431 -4.35157,-23.60603c-1.17426,-9.9732 0.3712,-20.25718 2.37428,-29.98018c3.49328,-7.10484 9.61402,-15.47413 7.49582,-23.82353c-2.4698,-9.73526 -12.1701,-17.33464 -15.1759,-27.0177c-3.98887,-12.84996 5.29249,-22.94504 16.29265,-27.06214c-3.62639,0.51204 -7.13713,1.40202 -10.87681,1.77385c-5.19135,0.51615 -11.98907,-1.04526 -16.86873,1.66438c-2.5239,1.40149 -3.54703,4.56007 -5.44981,6.73115c-12.41588,14.16689 -14.76356,34.21276 -31.54717,44.37303c-13.64913,6.82871 -27.70033,11.69601 -42.60551,14.57828c-24.00667,4.64221 -50.91869,-3.74113 -74.20102,-7.62152c-16.8206,-3.50996 -25.46447,-14.33875 -38.59833,-23.5246c-3.76186,-2.63105 -8.4452,-3.80995 -12.07957,-6.61451c-18.99063,-14.65472 -38.22777,-29.93043 -63.78481,-29.56636c-2.89805,0 -5.7961,0 -8.69414,0h-1.08675c0,0 -4.07537,0 -4.07537,-4.07537z" fill="url(#color-13)" stroke-width="0.5"/><path d="M258.95454,412.22522c-1.28528,-4.07498 -3.65411,-7.71117 -5.99244,-11.22718c-3.04423,-4.57746 -6.42115,-8.29744 -9.8071,-12.0574c-1.28268,0.43471 -2.58257,0.88984 -3.86757,1.37841c0.00748,0.31629 0.01282,0.54938 0.0131,0.67431c0.02312,10.52761 -0.39424,20.52228 3.56319,30.51709c2.11248,5.33521 6.52746,9.4761 8.40937,14.90644c1.51915,4.38354 2.59894,9.02192 3.0039,13.69188c5.74614,-11.48395 9.383,-22.96492 4.67762,-37.88345zM225.80135,366.30062c0,-7.26255 6.88706,-7.26255 6.88706,-7.26255c3.37892,0.28643 7.24097,-0.99892 10.13674,0.85931c0.83995,0.53902 1.61751,1.15343 2.34701,1.82619c1.19685,-0.60542 2.43758,-1.22812 3.71994,-1.91887c0,0 6.15995,-3.24789 9.23991,3.24789c0.44195,0.93207 0.69363,1.79732 0.80061,2.59564c0.83802,-0.7034 1.67495,-1.4082 2.51125,-2.11381l-0.48024,-0.48183c0,0 3.07996,-6.49581 9.23991,-3.24789c6.15995,3.24789 3.07996,9.74369 3.07996,9.74369l-3.23506,5.32822c-2.90125,2.44707 -5.82719,4.86262 -8.78345,7.23585c13.61516,16.30621 24.31839,39.17452 16.41445,60.88483c-5.22212,14.34399 -15.25624,26.77192 -20.67341,41.07603c6.26187,6.79748 12.39575,13.76734 15.3316,22.46848c2.28399,6.76913 0.29233,18.83664 0.26201,26.06034c-2.35534,12.58128 -6.26833,26.83161 -11.75682,39.70472c0.59839,1.73584 1.19193,3.45628 1.77567,5.15551c2.29488,6.68003 5.38067,13.75933 4.43841,20.79437c-1.82212,13.60479 -13.00928,21.28449 -15.2092,33.77379c-1.81235,10.28893 2.94955,22.82236 -0.22913,32.8784c-0.95624,3.02519 -3.43749,5.24731 -5.15622,7.87095l1.37743,-1.4525c0,0 0,1.73714 -0.80567,3.51225c0.68214,1.20131 1.04972,2.80716 0.71194,4.94427c-1.13221,7.16372 -7.92554,5.96979 -7.92554,5.96979c-3.42786,-0.71956 -7.25966,-0.31049 -10.28362,-2.15864c-15.09302,-9.22427 -16.94124,-34.56839 -14.70331,-50.92023c1.55586,-11.36813 6.40647,-19.77651 9.9002,-30.31694c1.00233,-3.02392 0.52419,-6.71214 2.32495,-9.29197c2.12846,-3.04925 5.78046,-4.55969 8.81805,-6.6754c0.47438,-17.09579 -0.73495,-34.15321 -0.22755,-51.14792c-1.4948,-10.18726 -1.58354,-20.38741 -1.58354,-30.95366c0.0221,-7.41122 0.6436,-15.19638 2.27401,-22.65123c-1.41196,-1.70829 -2.71234,-3.44206 -3.83777,-5.22152c-9.49226,-15.00909 -13.48478,-33.25659 -16.24884,-50.82124c-1.827,-11.61021 -3.18381,-25.84688 4.0818,-36.11438c2.50732,-3.54327 5.93132,-6.17773 9.74531,-8.29755c0.22716,-2.75647 0.73115,-5.43874 1.81586,-7.68837c-1.81028,-0.25565 -6.09482,-1.46582 -6.09482,-7.19404zM247.45215,511.40833c-1.43402,7.56604 -2.14782,15.16469 -2.4634,22.78522c0.53919,3.32451 1.26501,6.64824 2.24222,9.98374c0.67638,2.30879 1.39127,4.64513 2.13285,6.9952c2.15917,-6.76976 3.88172,-13.57728 5.12179,-20.00142c-0.02839,-5.54487 2.04756,-15.42828 0.26201,-20.41994c-1.31528,-3.67698 -3.40155,-7.07593 -5.88466,-10.31584c-0.47459,3.7327 -0.85675,7.47035 -1.41073,10.97307zM244.79689,596.24832c-0.33326,4.94722 -0.8963,9.94313 -1.45493,14.95457c4.22439,-6.70227 7.799,-13.59432 5.78471,-20.99978c-0.20773,-0.76375 -0.42533,-1.52607 -0.65172,-2.28705c-0.71917,1.16833 -1.45577,2.30696 -2.2099,3.41244c-0.40471,0.5933 -0.8324,1.16987 -1.27973,1.73028c-0.05428,1.06332 -0.11681,2.1265 -0.18841,3.18957zM229.42429,441.40497c2.31536,9.16325 3.95891,16.09897 8.27229,23.83625c1.56991,-3.26173 3.05768,-6.58434 2.98401,-10.13607c-0.24191,-11.65982 -6.48361,-17.75123 -10.45289,-27.81353c-3.51211,-8.90339 -4.41456,-17.7252 -4.63589,-26.86073c-5.61672,11.31227 1.22352,30.64886 3.83247,40.97415zM224.09744,634.44964c-1.41442,10.57584 -1.62053,26.74413 6.16188,33.71076l0.77675,-4.09546c0.48709,-0.5875 0.9112,-1.20563 1.2793,-1.851c-4.96872,-14.39644 -4.62535,-28.93748 -3.36596,-43.64216c-2.09428,5.02201 -4.0715,10.04167 -4.85205,15.87782z" fill="url(#color-14)" stroke-width="0.5"/><path d="M403.86478,359.14083c8.06884,1.15269 6.91615,9.22153 6.91615,9.22153c-0.93446,4.86807 -0.11421,10.4401 -2.8034,14.60414c-3.75167,5.8092 -16.45264,10.93661 -22.61143,14.25163c-14.35541,7.72702 -35.00728,11.94312 -44.18698,26.44154c-8.17736,12.91531 1.44337,29.27435 2.8078,42.18618c1.99307,18.8605 -3.44757,35.54325 -10.3242,52.73487c-8.74034,21.67708 -26.27587,35.29884 -38.12785,55.05304c-5.43913,9.06562 -5.74677,16.34478 -8.96314,25.94806c-4.90583,14.64763 -12.04921,31.89202 -21.56276,46.36782c-1.97462,6.64617 -4.88476,12.75036 -8.13703,19.74714c-0.74359,1.59967 -4.37293,10.31781 -7.29297,16.96865c1.009,2.0334 1.7254,4.16151 2.00926,6.42786c-12.74639,-0.56733 -23.7253,-6.36993 -35.47456,-7.09233c-0.84853,-1.81987 -1.60255,-3.91935 -2.28121,-6.44985c-0.81842,-3.05154 0.84094,-6.41205 0.07771,-9.47789c-1.47105,-5.90904 -6.42881,-10.36277 -10.08706,-15.23084c-8.9186,-11.8679 -17.39524,-23.85669 -26.12845,-35.92562c-4.58435,-6.33533 -8.16398,-9.57826 -9.57745,-17.94435c-2.16275,-12.80106 3.94377,-19.87484 4.78305,-31.68727c0.70062,-9.86103 -0.07564,-20.26347 -0.03966,-30.16978c0.01381,-3.7986 1.08475,-15.59603 -1.89512,-19.93668c-3.4722,-5.05781 -9.31098,-8.12168 -13.01954,-13.00883c-7.16284,-12.03337 -17.18056,-29.95003 -16.0253,-44.4037c0.81252,-10.16569 9.91172,-14.91287 9.7511,-23.94645c-0.23218,-13.06163 -12.12218,-32.12234 -20.74786,-41.61235c-1.30309,-1.43367 -9.82319,-11.07169 -14.03403,-12.25231c-8.27485,-2.32007 -22.43574,0.4091 -30.71751,1.81502c0,0 -8.03986,1.33998 -9.37984,-6.69988c-1.33998,-8.03986 6.69988,-9.37984 6.69988,-9.37984c1.16499,-0.19101 2.41608,-0.39804 3.73375,-0.61048c1.35652,-0.73793 2.52833,-0.97233 2.52833,-0.97233c12.75209,-2.49277 23.90451,-1.39165 36.63484,-0.1186c24.66134,2.46614 47.48911,5.12723 71.48966,11.67289c9.74931,2.65891 11.8275,-0.02294 21.65069,5.80632c4.1125,2.44043 7.59373,5.47015 10.52708,8.91463c9.35286,-15.15268 20.1364,-28.76333 38.52097,-34.31116c8.45191,-2.55049 22.51159,-0.27304 31.43479,-0.27304c23.8784,0 49.17678,2.00989 73.54674,5.54642c2.70711,-3.72718 5.65557,-7.34928 9.59108,-10.4369l7.76594,-4.02998c0,0 7.29026,-3.64511 10.93538,3.64511c1.95822,3.9164 0.76049,6.7809 -0.76748,8.59335c0.82081,-0.1198 1.7436,-0.12398 2.78064,0.02417zM160.44371,410.56186c3.93762,7.29708 7.60093,15.41887 7.52322,23.71023c-0.10754,11.47036 -9.08414,14.78573 -9.81072,24.95813c-0.73646,10.3106 8.13095,25.28927 13.31745,33.84363c3.65639,4.958 9.86827,7.80624 13.06289,13.07364c8.76254,14.44784 5.94881,44.06904 4.58582,60.74399c-0.77886,9.52872 -6.58528,17.24035 -4.99784,26.99823c1.75586,10.7932 14.12312,20.85736 19.9522,29.5964c2.70964,4.06233 6.12412,8.24183 9.59705,12.5427c1.22851,-10.052 4.03142,-20.46596 7.12915,-29.9604c-0.55195,-0.75026 -1.0545,-1.48591 -1.48809,-2.20456c-6.82077,-18.26801 -12.87016,-42.94056 -1.49462,-61.19515c0.0665,-1.30597 0.15493,-2.61566 0.26067,-3.92307c-0.80166,-0.6169 -1.58586,-1.17331 -2.33879,-1.655c-3.64533,-2.33212 -8.43639,-3.07065 -11.38604,-6.2372c-4.43258,-4.75849 -6.45537,-16.65942 -7.01547,-22.77837c-0.54752,-5.98187 0.14818,-16.0064 2.10436,-21.42013c5.75995,-15.94092 22.35234,-23.68905 27.50637,-40.11333c0.60099,-1.91525 0.83936,-4.1463 0.87248,-6.5269c-0.27269,-0.5517 -0.51987,-1.11415 -0.72704,-1.69336c-3.25424,-9.09777 -4.173,-18.12643 -3.2722,-27.10907c-2.58682,-6.38925 -6.73122,-12.13184 -12.86517,-15.87712c-4.0245,-2.45726 -13.58041,-2.91301 -17.47299,-3.97461c-16.63051,-4.53559 -32.62134,-7.089 -49.13645,-9.04967c6.4579,8.89127 11.29516,19.35845 16.09377,28.25105zM271.06924,594.54063c3.51148,-10.5912 4.56562,-19.42242 10.59872,-29.47713c5.05546,-8.42546 12.78918,-19.75178 18.75468,-27.19153c1.80378,-2.2496 4.81035,-3.23931 6.8676,-5.25971c5.43885,-5.34143 8.50654,-13.19593 11.23691,-20.08581c5.94439,-14.86098 10.74693,-28.74686 9.23762,-45.07432c-0.49957,-5.40417 -3.83377,-10.21975 -4.78305,-15.56332c-1.95386,-10.99826 -1.37743,-26.97645 4.33053,-36.7994c1.95836,-3.37018 4.33537,-6.28172 7.0181,-8.84823c-6.66633,3.85176 -12.91545,8.69453 -17.73236,14.35997c-2.40681,2.83077 1.00753,7.36625 1.31205,11.0694c0.07971,0.96927 -3.10718,18.15903 -3.66735,19.69195c-5.33029,14.58689 -15.77731,29.35333 -23.76781,42.65662c-12.99428,17.36658 -25.96963,34.44483 -27.98367,56.43992c-1.70292,18.59768 2.1983,37.04395 4.20454,55.59125c1.6517,-3.87933 3.12953,-7.75758 4.37349,-11.50967zM304.50451,376.47157c-6.86518,2.45655 -13.2232,6.57756 -18.61799,11.48279c-4.2316,3.84754 -10.38684,6.05716 -13.08239,11.10134c-13.63434,25.51404 5.55088,54.70359 0.97879,80.54569c-1.63803,9.25853 -6.86022,15.09014 -12.99966,20.04976c0.78866,2.45265 1.40532,4.93282 1.65928,7.43086c4.34735,-7.52814 8.86105,-14.65472 14.50443,-22.15897c7.23254,-12.06927 17.09716,-25.62214 21.87645,-38.851c4.78495,-13.24452 -3.87424,-21.71042 4.1653,-34.44476c7.46683,-11.82715 23.82925,-20.88817 36.4685,-25.93762c4.98017,-1.98959 10.73193,-1.9448 15.44609,-4.50168c2.03273,-1.10252 3.82913,-2.34775 5.45314,-3.69887c-17.01758,-2.51965 -33.92633,-4.64481 -51.12649,-5.22964c-1.45682,2.9863 -4.72551,4.21206 -4.72551,4.21206zM257.77557,476.51866c1.79774,-12.0216 -3.82727,-24.93522 -4.99784,-36.77916c-1.45805,-14.75235 -1.39577,-35.59935 5.97667,-48.95074c4.17089,-7.55343 12.26889,-14.41457 20.88592,-19.86743c-2.58489,0.04609 -4.95829,0.29802 -6.87849,0.90572c-15.15436,4.79608 -22.91208,17.19243 -30.55032,29.76134c-0.96165,2.81928 -1.56696,5.45624 -1.88676,7.96865c1.12891,3.5347 1.982,7.15817 2.6047,10.77539c0.01022,3.25424 0.30308,6.95683 0.56048,10.77121c1.25742,3.74485 2.68888,7.63567 3.98701,11.92309c3.99105,13.18171 3.88689,27.0035 7.52389,40.35851c1.37894,-1.93046 2.37136,-4.16815 2.77488,-6.86651zM220.41144,519.96932c3.41472,-8.30633 8.94365,-15.92806 15.57513,-21.98434c1.84095,-1.68124 4.00279,-3.13511 6.23949,-4.5482c-1.46367,-3.44107 -2.96501,-6.79959 -3.84578,-9.87722c-1.56671,-5.4745 -2.30387,-11.18024 -3.01409,-16.86726c-1.78484,2.9023 -3.72423,5.71291 -5.71312,8.43958c-1.74272,2.38917 -4.90759,3.35658 -7.01491,5.43133c-7.21533,7.10389 -9.9438,16.25878 -9.05157,26.16731c0.39983,4.44006 -0.5921,10.15234 2.76546,13.08503c1.07365,0.93779 2.42184,1.4258 3.81121,1.85535c0.08365,-0.57443 0.16656,-1.1418 0.24817,-1.70155zM236.43649,654.11657c6.69258,-4.7821 10.23539,-11.45659 14.23849,-18.40291c0.20348,-1.17992 0.36305,-2.37652 0.47259,-3.59224c1.42809,-15.84708 -1.52301,-32.50601 -3.77138,-49.135c-1.26279,1.51546 -2.83313,2.88551 -3.63939,4.65865c-1.4786,3.25171 -1.87991,6.8924 -2.81981,10.3386c-0.69732,1.84221 -1.41867,3.77882 -2.14455,5.78991c6.91513,9.27616 14.21084,17.47394 10.4096,31.32669c-1.77395,6.46471 -8.66463,10.24378 -12.65382,15.63134c-0.91201,1.23167 -1.39678,2.77063 -1.64161,4.41305zM236.16001,524.17903c-0.086,0.61859 -0.1758,1.25373 -0.26791,1.90327c4.99816,-4.0871 9.17889,-8.61777 10.2415,-15.31277c-4.20511,3.62291 -7.84126,7.79422 -9.97359,13.40946zM242.20111,540.22699c1.32582,1.74753 2.51505,3.49268 3.50694,5.17824c0.34242,-3.11066 0.85573,-6.19624 1.57659,-9.25066c-1.67,1.33903 -3.38195,2.67194 -5.08349,4.07245zM233.07095,627.7096c-0.29644,1.64386 -0.54569,3.30392 -0.79576,4.9651c1.17187,-1.55656 1.74834,-3.63001 1.20174,-7.12086c-0.13993,0.71418 -0.27557,1.43258 -0.40598,2.15579zM392.93119,363.94925c-0.21202,0.1478 -0.41985,0.29774 -0.62372,0.44968c0.87589,0.15858 1.74964,0.3191 2.62121,0.48144c0.20506,-0.66163 0.5432,-1.5255 1.08313,-2.38559zM380.53787,379.8485c-0.4969,0.77563 -1.01255,1.54887 -1.55758,2.31533c1.63258,-0.82541 3.14165,-1.49252 4.5255,-2.08845c-0.98859,-0.07926 -1.97775,-0.15342 -2.96792,-0.22688z" fill="url(#color-15)" stroke-width="0.5"/><path d="M219.99917,676.32006v-318.48383h33.96153v318.48383z" fill="url(#color-16)" stroke-width="0"/><g stroke-width="0"><path d="M96.37925,405.75306v-23.46449c0,0 20.54564,30.60586 56.62077,30.60586c72.32027,0 76.00459,-12.24237 76.00459,-12.24237v23.46449c0,0 -3.68432,12.24237 -76.00459,12.24237c-36.07517,0 -56.62077,-30.60586 -56.62077,-30.60586z" fill="url(#color-17)"/><path d="M96.37925,439.41945v-23.46449c0,0 20.54564,30.60586 56.62077,30.60586c72.32027,0 76.00459,-12.24237 76.00459,-12.24237v23.46449c0,0 -3.68432,12.24237 -76.00459,12.24237c-36.07517,0 -56.62077,-30.60586 -56.62077,-30.60586z" fill="url(#color-18)"/><path d="M98.82446,472.06571v-23.46449c0,0 19.78803,30.60586 54.53296,30.60586c69.65349,0 73.20196,-12.24237 73.20196,-12.24237v23.46449c0,0 -3.54847,12.24237 -73.20196,12.24237c-34.74489,0 -54.53296,-30.60586 -54.53296,-30.60586z" fill="url(#color-19)"/><path d="M106.16015,503.28693v-23.46449c0,0 18.52535,30.60586 51.05321,30.60586c65.20893,0 68.53094,-12.24237 68.53094,-12.24237v23.46449c0,0 -3.32201,12.24237 -68.53094,12.24237c-32.52782,0 -51.05321,-30.60586 -51.05321,-30.60586z" fill="url(#color-20)"/><path d="M124.09185,537.87032v-19.24779c0,0 15.49492,25.10578 42.7018,25.10578c54.54188,0 57.32052,-10.04234 57.32052,-10.04234v19.24779c0,0 -2.7786,10.04234 -57.32052,10.04234c-27.20684,0 -42.7018,-25.10578 -42.7018,-25.10578z" fill="url(#color-21)"/></g><g data-paper-data="{&quot;index&quot;:null}" stroke-width="0"><path d="M321.27111,436.35885c-72.32027,0 -76.00459,-12.24237 -76.00459,-12.24237v-23.46449c0,0 3.68432,12.24237 76.00459,12.24237c36.07517,0 56.62077,-30.60586 56.62077,-30.60586v23.46449c0,0 -20.54564,30.60586 -56.62077,30.60586z" fill="url(#color-22)"/><path d="M321.27111,470.02535c-72.32027,0 -76.00459,-12.24237 -76.00459,-12.24237v-23.46449c0,0 3.68432,12.24237 76.00459,12.24237c36.07517,0 56.62077,-30.60586 56.62077,-30.60586v23.46449c0,0 -20.54564,30.60586 -56.62077,30.60586z" fill="url(#color-23)"/><path d="M320.91369,502.67157c-69.65349,0 -73.20196,-12.24237 -73.20196,-12.24237v-23.46449c0,0 3.54847,12.24237 73.20196,12.24237c34.74492,0 54.53296,-30.60586 54.53296,-30.60586v23.46449c0,0 -19.78807,30.60586 -54.53296,30.60586z" fill="url(#color-24)"/><path d="M317.05779,533.89279c-65.20893,0 -68.53094,-12.24237 -68.53094,-12.24237v-23.46449c0,0 3.32201,12.24237 68.53094,12.24237c32.52786,0 51.05321,-30.60586 51.05321,-30.60586v23.46449c0,0 -18.52538,30.60586 -51.05321,30.60586z" fill="url(#color-25)"/><path d="M307.47749,562.9761c-54.54192,0 -57.32052,-10.04234 -57.32052,-10.04234v-19.24779c0,0 2.77864,10.04234 57.32052,10.04234c27.20684,0 42.7018,-25.10578 42.7018,-25.10578v19.24779c0,0 -15.49492,25.10578 -42.7018,25.10578z" fill="url(#color-26)"/></g><path d="M74.37219,376.58298v-18.74674h325.2155v18.74674z" fill="url(#color-27)" stroke-width="0"/><path d="M203.71678,703.49065v-124.67881h66.52635v124.67881z" fill="url(#color-28)" stroke-width="0"/></g><path d="M414.00668,367.20591c0.00204,9.69546 -8.09431,17.55671 -18.08347,17.55875c-9.98926,0.00207 -18.08856,-7.85602 -18.09049,-17.55144c-0.00197,-9.69542 8.09431,-17.55657 18.08354,-17.5586c9.98926,-0.00207 18.08856,7.85595 18.09053,17.55137z" fill="url(#color-29)" stroke-width="0"/><path d="M96.1269,367.20591c0.00204,9.69546 -8.09431,17.55671 -18.08347,17.55875c-9.98926,0.00207 -18.08856,-7.85602 -18.09049,-17.55144c-0.00197,-9.69542 8.09431,-17.55657 18.08354,-17.5586c9.98926,-0.00207 18.08856,7.85595 18.09053,17.55137z" fill="url(#color-30)" stroke-width="0"/></g><g stroke="none"><path d="M321.42039,314.53407c-2.43593,3.65386 -6.08979,1.21797 -6.08979,1.21797l-1.77511,-1.64829c-3.07834,-0.75602 -6.77907,-0.26408 -9.23506,-2.26804c-5.46059,-4.45566 -0.22976,-11.94161 -4.07277,-16.94135c-2.52372,-3.28337 -6.92532,-5.02173 -8.63586,-9.02838c-3.07423,-7.20093 4.43174,-17.26189 0.18535,-24.03203c-1.45984,-2.32745 -6.93463,-6.14864 -9.23032,-7.86322c0,0 -3.51313,-2.63484 -0.87828,-6.14797c2.63484,-3.51313 6.14797,-0.87828 6.14797,-0.87828c8.74779,6.5855 14.36415,11.98875 13.37581,23.59595c-0.34098,4.00433 -3.22224,8.33999 -1.48626,11.96455c1.5176,3.16863 5.66664,4.35171 7.64657,7.25401c4.95007,7.25615 -1.26167,15.57228 7.62672,15.68147l5.20305,3.00383c0,0 3.65386,2.43593 1.21797,6.08979z" fill="url(#color-31)" stroke-width="0.5"/><path d="M104.02975,60.88376c0,-4.39141 4.39141,-4.39141 4.39141,-4.39141h3.4891c3.64234,0 7.3554,0.77166 10.92688,0.0567c8.20174,-1.64186 15.28937,-8.08644 23.96402,-8.19792c22.18002,-0.28502 42.73606,14.29993 46.21633,36.33521c0,0 0.62105,4.34728 -3.72623,4.9683c-4.34728,0.62105 -4.9683,-3.72623 -4.9683,-3.72623c-2.25318,-18.27992 -20.06627,-28.46521 -37.5218,-28.79446c-4.9404,-0.0932 -10.179,3.75146 -14.60189,5.48086c-7.47267,2.92194 -12.48316,2.66035 -20.28901,2.66035h-3.4891c0,0 -4.39141,0 -4.39141,-4.39141z" fill="url(#color-32)" stroke-width="0.5"/><path d="M349.71264,76.10111c1.06507,4.2603 -3.19522,5.32537 -3.19522,5.32537l-5.18063,1.26125c-7.09409,-0.28172 -9.95451,6.9815 -17.46533,5.80024c-2.40115,-0.37763 -4.04712,-2.7968 -6.34102,-3.6006c-2.57878,-0.90361 -15.80531,-1.27815 -18.09155,-0.17091c-3.91422,1.89565 -5.93374,6.39421 -9.28438,9.16687c-4.50003,3.72377 -9.62748,6.68478 -14.84612,9.30824c0,0 -3.92778,1.96391 -5.89169,-1.96391c-1.96391,-3.92778 1.96391,-5.89169 1.96391,-5.89169c9.1955,-4.57023 15.91731,-14.8653 24.71674,-18.74183c8.60688,-3.79172 21.52802,0.65769 29.0668,3.20668c2.94084,0.99436 10.21877,-5.68919 15.09952,-5.83007l4.1236,-1.06483c0,0 4.2603,-1.06507 5.32537,3.19522z" fill="url(#color-33)" stroke-width="0.5"/><path d="M308.22343,97.37421c-2.74329,3.42909 -6.17242,0.68583 -6.17242,0.68583l-1.23933,-1.50288c-1.91142,-0.49335 -6.37105,-3.10968 -10.24224,-4.76787c0.39452,2.55735 -2.01158,4.16144 -2.01158,4.16144c-6.99253,4.63469 -11.29361,8.8724 -19.15441,12.29057c-1.37574,0.59825 -3.06366,1.15582 -4.89494,1.73018c-4.41428,3.78919 -9.02473,7.34416 -13.887,10.49209c-1.49902,0.9705 -3.37668,2.13391 -5.38302,3.2455c-1.83146,6.99903 -0.23903,15.82136 -0.23903,22.2708c0,1.17886 -0.01381,2.33184 -0.04279,3.46215c2.25476,1.63673 3.30571,4.02717 5.98419,5.55369c4.89993,2.79262 15.08547,4.10572 20.51841,4.71476c2.38864,0.26777 5.08908,0.07279 7.8518,-0.16139c-1.21133,-5.46779 -3.22484,-11.01737 -3.92992,-15.1265c-1.30365,-7.59749 1.65268,-12.05333 4.40072,-18.91404c8.07014,-16.15483 15.51087,-23.01533 34.34861,-23.01533h0.5835c0,0 4.39141,0 4.39141,4.39141c0,4.39141 -4.39141,4.39141 -4.39141,4.39141h-0.5835c-15.42498,0 -19.73242,4.63427 -26.33657,17.83042c-1.34314,3.36255 -3.67982,6.39919 -4.33453,9.96042c-1.20244,6.5406 1.85483,13.30737 3.98859,20.08194c1.57262,0.06095 3.07992,0.25635 4.46919,0.67561c9.04528,2.72956 13.39084,13.43044 23.17174,17.05433c0,0 4.1118,1.54191 2.56989,5.65371c-1.54191,4.1118 -5.65374,2.56985 -5.65374,2.56985c-6.70701,-2.54087 -12.69869,-5.70879 -17.5677,-11.19784c-1.76092,-1.98516 -1.77852,-5.00982 -4.77444,-5.59149c-0.12299,-0.02385 -0.24602,-0.04725 -0.36909,-0.07016c0.07894,2.00926 -0.13079,4.01051 -0.7667,5.99796c-4.7521,14.85174 -21.64363,17.9272 -34.39958,21.458c-1.43483,0.39716 -2.91667,0.82 -4.42917,1.20145c0.80725,1.12979 1.5631,2.35509 2.27001,3.7431c6.41855,3.02505 12.95026,6.13799 18.53652,11.68483c14.15277,14.05293 18.33476,32.21554 23.36131,51.03775c0,0 1.13151,4.24312 -3.11165,5.37463c-4.24315,1.13151 -5.37466,-3.11165 -5.37466,-3.11165c-4.5944,-17.25504 -8.1618,-34.0644 -20.98555,-46.9921c-2.38049,-2.39978 -5.7213,-4.95593 -9.1206,-7.19892c2.95935,11.84749 6.45871,24.60565 5.46779,36.47254c-0.27343,3.2743 -1.17468,11.70756 -4.26342,14.51135c-3.53477,3.20868 -6.94844,3.00889 -10.5112,2.72408c-1.77163,10.4174 -5.48209,21.70265 -8.22535,29.42057c0,0 -1.47699,4.13558 -5.61257,2.65859c-4.13558,-1.47699 -2.65856,-5.61257 -2.65856,-5.61257c2.93546,-8.17701 4.0486,-16.33382 5.6261,-24.65217c-6.5543,4.03082 -9.76438,13.34939 -10.55378,20.25525c0,0 -0.54471,4.35751 -4.90218,3.81283c-4.35747,-0.54471 -3.81283,-4.90218 -3.81283,-4.90218c1.61846,-12.14656 8.14979,-26.38843 21.43738,-29.40374c0.05473,-0.0124 0.11439,-0.02322 0.17871,-0.0325c0.82797,-3.35999 1.50249,-7.39878 -0.05291,-9.83208c-2.72678,-4.26581 -7.43251,-7.16189 -9.69725,-11.68996c-5.26245,-10.5216 -4.77606,-25.34229 -2.06656,-38.15469c-4.72301,4.91729 -9.50908,9.76463 -12.64209,15.78079c-2.78679,5.35133 -6.10342,12.10318 -7.84428,17.8724c-1.64021,5.43575 -1.35993,13.8356 -5.77428,18.19905c-4.41417,4.36327 -12.71067,4.18066 -18.27648,4.20377l-3.68871,-1.86972c0,0 -3.10518,-3.10518 0,-6.2104c2.09892,-2.09892 4.19783,-1.36035 5.33777,-0.66128c3.22273,0.09819 8.59437,0.20921 10.41702,-1.67278c2.64194,-2.72791 2.56602,-11.23002 3.56189,-14.47756c1.90102,-6.1993 5.43646,-13.71496 8.49404,-19.47231c4.30147,-8.09958 11.28644,-14.01565 17.24281,-20.7917c-0.09317,-0.286 -0.15194,-0.57046 -0.18665,-0.84122c-1.90629,-0.28098 -3.88868,-0.42323 -5.63994,-1.09964c-1.52125,-3.11793 -2.66478,-6.29584 -3.51987,-9.51966c-1.89452,1.94761 -4.00177,3.7374 -6.15626,5.89225c-11.99174,11.99357 -32.92094,28.02059 -50.57163,25.13933c0,0 -4.32058,-0.78557 -3.53501,-5.10615c0.78554,-4.32055 5.10615,-3.53501 5.10615,-3.53501c13.98421,2.90954 33.45427,-13.37409 42.79012,-22.7086c3.3914,-3.39087 7.79598,-6.02364 9.50297,-10.70734c0.28189,-0.77352 0.53087,-1.55059 0.75184,-2.33061c-0.21212,-2.9824 -0.28962,-5.9864 -0.29707,-9.00182c-16.9019,-3.89483 -39.75506,-11.50173 -51.7708,5.02293l-0.51408,2.2549c0,0 -1.3887,4.16608 -5.55474,2.77737c-4.16608,-1.3887 -2.77737,-5.55474 -2.77737,-5.55474l1.81998,-4.74722c14.93802,-19.45924 38.4747,-13.22745 58.9172,-8.69046c0.22024,-9.83201 0.50779,-19.67885 -1.34872,-29.19239c-2.22521,-11.4028 -18.98616,-24.02789 -28.37426,-29.86435c0,0 -3.72391,-2.32741 -1.39647,-6.05132c2.32745,-3.72391 6.05136,-1.39647 6.05136,-1.39647c11.75457,7.38122 29.18607,21.33479 32.31089,35.48893c0.83707,3.79172 1.018,7.74012 0.90769,11.75531c0.60763,-1.37978 1.18104,-2.48986 1.5775,-2.82824c3.69753,-3.15605 9.20896,-3.21859 13.97855,-4.15849c1.14047,-0.22473 2.31315,-0.58655 3.50269,-1.05555c0.76628,-1.96598 1.82152,-3.84195 3.26787,-5.58555c4.40788,-5.31364 11.88888,-7.631 18.68874,-9.91833c6.68003,-6.635 13.6929,-17.00859 21.79385,-20.0433c7.49388,-2.8073 14.33844,4.09321 21.16262,5.7285l4.59577,3.16522c0,0 3.42913,2.74329 0.68583,6.17239zM226.82507,129.21185c-1.95463,1.69122 -1.65714,4.89758 -2.56469,7.31774c-1.51788,3.43984 -2.17529,7.07347 -2.55847,10.78477c4.77739,0.37106 9.72739,-0.33635 14.43856,-0.14681c0.05874,-2.25061 0.07623,-4.58221 0.07623,-7.02267c0,-4.07804 -0.27715,-8.38741 -0.05252,-12.60464c-4.25492,0.93379 -5.65083,-1.5196 -9.33915,1.67165zM252.85667,164.79978c-3.54647,-1.01867 -6.06503,-3.52567 -8.62205,-5.58043c-0.84294,6.46447 -2.45153,12.42017 -5.15889,18.69029l0.28685,0.17984c-0.35827,1.88686 -0.7165,3.77366 -1.07474,5.66052c0.54798,1.06079 1.11594,2.11097 1.9058,2.93441c0.97103,1.01231 1.90095,1.94005 2.79114,2.82241c11.98728,0.15085 28.52883,-6.57847 34.96843,-14.6686c1.64196,-2.06284 2.27942,-4.68588 2.31371,-7.57964c-9.07353,-0.46141 -18.29886,0.15837 -27.41025,-2.45877zM221.62621,165.28277c0.62098,4.95165 -0.22762,9.36824 0.949,14.22683c1.2545,0.27002 2.59371,0.32929 3.91612,0.42526l0.25909,-0.3315c0.09127,-0.00183 0.18289,-0.00513 0.27483,-0.0098c-0.30627,-0.83823 -0.34327,-1.89375 0.21037,-3.18556c0.99003,-2.31013 2.73564,-2.73146 4.04761,-2.66931c2.48863,-6.0971 3.73688,-11.86228 4.35368,-18.01088c-4.6134,-0.45822 -9.67701,0.26127 -14.58945,0.11727c-0.14126,1.74623 -0.31924,3.49022 -0.59256,5.22044c0.53192,1.37493 0.9893,2.76606 1.17128,4.21719zM236.22363,204.19461c-0.95146,-0.50571 -1.8583,-1.11479 -2.72562,-1.80125c-1.75077,10.0942 -1.82725,21.08905 2.11174,28.97026c4.05703,8.11739 9.87315,9.11337 11.11894,18.69693c0.27687,2.13001 0.32391,4.47228 0.19059,6.95114c1.53155,-0.07399 2.82403,-0.3303 3.49331,-0.94173c2.3605,-2.15639 1.90127,-11.43853 1.58516,-14.43371c-1.2447,-11.79304 -4.29571,-23.3488 -6.85281,-34.8441c-0.0717,-0.20359 -0.15212,-0.41652 -0.24082,-0.63777c-2.91828,-0.59407 -6.06942,-0.57194 -8.68051,-1.9598z" fill="url(#color-34)" stroke-width="0.5"/><path d="M202.1058,290.0753c-15.83468,-6.1798 -10.13621,-16.47431 -17.4823,-27.34702c-2.64145,-3.90955 -9.46306,-6.10687 -12.92075,-8.09256c-10.80687,-6.20611 -11.18207,-6.07613 -17.50313,-18.10813c-6.85646,-13.05116 0.85573,-24.87458 -6.19487,-36.08114c-7.62847,-10.18891 -15.44644,-33.16662 -9.79372,-46.31179c0.41595,-0.96727 11.75341,-9.18236 12.51098,-13.04023c1.12139,-5.71069 -3.32015,-11.40466 -2.93135,-17.21144c0.92076,-13.7515 11.17178,-25.80567 17.3996,-36.89229c2.96364,-5.27577 1.60388,-12.33441 4.69677,-17.53545c3.02227,-5.08223 10.16839,-8.41397 12.73589,-14.15807c1.66708,-3.72968 0.63675,-8.73602 3.3517,-11.78865c9.14541,-10.28274 31.1634,-11.02802 43.41936,-9.83226c6.94131,-0.99811 14.03807,0.03085 21.03056,0.56256c16.57135,1.26009 29.13053,-8.00529 44.82366,2.63716c8.22655,5.57891 14.29575,15.03344 13.08165,25.5411c-0.33262,2.87866 -4.82437,3.65056 -5.98377,6.30631c-1.38754,3.17829 5.13609,4.66132 7.70773,6.98806c5.75896,5.21053 10.33274,12.34541 12.10669,19.90636c2.79835,11.9271 5.4828,30.71895 3.64258,42.83671c-0.44641,2.9395 -2.95742,5.37269 -3.16694,8.33851c-0.23215,3.28628 9.23176,11.62817 9.26194,11.68922c2.52538,5.11009 3.13824,10.95962 4.70734,16.43943c-3.06699,2.53409 -6.63289,4.56366 -9.20095,7.60223c-6.69883,7.92607 0.77067,24.12731 -0.86152,33.01116c-1.51665,8.2549 -7.28236,17.3084 -13.0376,23.06006c-3.63524,3.63296 -9.30142,5.86119 -11.13819,10.66114c-4.54254,11.87075 0.80296,22.14871 -9.62533,32.66933c-3.84726,3.88134 -16.34334,9.51839 -25.00348,11.99768c-1.924,2.54962 -5.01397,3.4117 -5.01397,3.4117c-8.77554,2.34926 -21.0997,12.40917 -30.44254,9.7713c-5.67791,-1.60311 -8.37427,-7.76461 -11.68157,-13.0924c-1.89754,0.39003 -3.74246,0.74331 -5.49555,1.00419l-3.47487,0.51706c0,0 -7.32631,1.09019 -9.52401,-5.45982zM226.92221,274.94068c5.13594,-0.95234 10.28812,-1.69702 14.96673,-1.5248c6.48801,0.23879 12.52855,4.14359 19.02077,4.19169c4.90977,0.03636 9.0626,-4.384 12.95444,-6.25969c2.20449,-1.06247 5.04808,-0.80433 6.96238,-2.32882c5.06888,-4.03676 2.85803,-20.80614 5.26723,-26.37567c5.4561,-12.61314 14.42325,-13.25987 20.68395,-24.07739c8.37898,-14.47756 -9.33276,-42.44141 13.11411,-49.04872c-7.85862,-4.11078 -14.15839,-12.95785 -14.80839,-22.05014c-0.28632,-4.00503 2.70268,-7.60887 3.34162,-11.57298c1.3568,-8.41798 -1.49589,-19.91598 -2.22107,-28.36972c-0.03907,-0.45544 -1.77525,-13.18357 -2.62469,-14.52562c-3.16968,-5.00796 -10.38803,-6.60591 -13.35764,-11.73504c-2.72622,-4.70871 -5.43207,-10.03862 -5.1944,-15.47441c0.13989,-3.19919 4.86635,-4.42995 6.1921,-7.34486c1.28598,-2.8274 -3.42783,-5.38123 -5.98855,-7.13927c-7.74838,-5.31954 -15.45505,-0.67708 -23.99999,0.04827c-11.12582,0.94443 -20.44952,-1.80469 -31.39365,-0.11716c-9.94622,-0.97043 -15.77172,0.11909 -25.32701,2.5004c-1.66266,0.41437 -4.08689,-0.40956 -5.03937,1.01487c-1.44955,2.16781 0.23928,5.40428 -0.84027,7.77813c-2.87623,6.32444 -9.8767,9.93192 -13.58772,15.80559c-3.11941,4.93724 -1.66375,11.79314 -4.37665,16.96496c-4.40553,8.39866 -15.12984,19.16821 -15.33617,29.5436c-0.14235,7.15996 4.53896,12.18728 2.58412,19.8538c-1.26409,4.95748 -4.57377,9.24989 -7.80873,13.21339c-1.48756,1.82257 -4.83104,1.6707 -6.00393,3.71004c-0.83932,1.45932 0.74468,3.2853 1.02608,4.94508c1.73815,10.2525 0.7483,16.14267 7.50562,24.15601c2.0464,3.94225 5.17677,7.49055 6.13915,11.8268c2.34617,10.57149 -4.23718,16.09676 1.0135,25.87779c6.82741,12.71822 20.82736,12.47501 29.15874,24.12994c2.3545,3.29377 3.48734,7.32441 4.83705,11.14156c1.14173,3.22888 0.15693,9.41339 3.57471,9.63243c6.47367,0.41487 14.00736,-1.43627 19.56601,1.61003z" fill="url(#color-35)" stroke-width="0.5"/><g stroke-width="0.5"><path d="M143.41706,164.68164c0,-4.60785 4.02917,-5.18657 5.0412,-5.25926c3.16487,-0.96123 11.71993,-3.5804 13.25615,-3.52152c10.58305,0.40559 19.44262,8.17908 28.66051,12.05238c7.23676,2.47226 14.67001,2.92268 22.18574,2.43277c-0.0521,-0.20889 -0.1042,-0.41775 -0.15619,-0.62664c-2.28905,-1.44115 -4.53408,-2.89014 -6.7283,-4.31584c-2.7063,-2.61131 -6.05484,-4.69023 -8.11887,-7.83396c-6.55476,-9.98357 -3.34137,-24.00178 -8.52176,-35.11746c-3.13434,-6.72542 -9.92465,-11.68982 -16.12606,-15.35703l-3.15858,-1.56194c0,0 -4.71335,-2.35668 -2.35668,-7.07003c2.35668,-4.71335 7.07003,-2.35668 7.07003,-2.35668l3.86767,1.95119c11.43312,6.94229 18.94671,15.14073 23.34803,27.97439c3.8696,11.28325 0.79955,19.78389 7.90109,28.36393c-1.34563,-13.74367 -0.0619,-28.19449 -0.00011,-41.86571c0.03998,-8.84949 6.78047,-18.36097 4.82514,-26.89428c-3.31253,-14.4563 -13.75856,-21.74506 0.5282,-34.48783c0,0 4.00103,-3.42948 7.43051,0.57159c3.42948,4.00103 -0.57159,7.43051 -0.57159,7.43051c-10.7893,8.69154 4.63979,22.24129 2.93135,34.38662c-0.70508,5.01256 -3.77735,9.46942 -4.65517,14.45462c-3.20541,18.20337 -0.43981,37.35409 2.62891,55.75187c0.07111,0.04307 0.14221,0.08611 0.21339,0.12914c1.83761,-4.773 4.85405,-9.05652 8.12042,-12.91095c0.08783,-0.07567 0.21265,-0.18377 0.36884,-0.31917c4.47168,-13.56927 7.91894,-27.16318 4.13031,-41.98902c-2.33184,-9.12506 -7.37655,-19.50656 -3.9587,-29.56953c2.3279,-6.85393 10.77539,-10.62348 16.34988,-13.8544c5.73648,-3.32482 11.18077,-6.87491 16.86806,-10.0976c-0.26032,-0.81389 -0.31544,-1.80838 -0.01321,-3.01728c1.27808,-5.11234 6.39045,-3.83426 6.39045,-3.83426l3.06271,2.03638c0.46788,-0.19227 4.88985,-1.86529 6.91545,2.69228c1.51725,3.41377 -0.4612,5.48308 -1.74156,6.39853c0.35925,1.96728 0.35728,4.02534 -0.35054,6.5628c-2.7466,9.84617 -13.15206,14.60558 -14.46765,25.49198c-1.7077,14.13106 3.86504,27.91867 6.69089,41.76144c4.81646,-5.52759 8.67964,-12.01254 15.20488,-15.83257c6.17088,-3.61258 12.27771,-3.67993 19.12455,-3.68987h0.58553c0,0 5.26969,0 5.26969,5.26969c0,5.26969 -5.26969,5.26969 -5.26969,5.26969h-0.58553c-16.94549,-0.02744 -20.92738,12.57783 -32.7951,21.65839c0.00316,0.19709 0.00513,0.39424 0.00594,0.5914c-0.02498,6.7764 -2.04513,13.12732 -4.37409,19.39766c0.13557,0.0287 0.27104,0.058 0.40647,0.08793c20.69583,4.57476 25.70446,32.74343 42.02198,43.46468c0,0 4.38466,2.9231 1.46157,7.30776c-2.9231,4.38466 -7.30776,1.46157 -7.30776,1.46157c-6.80356,-4.58976 -14.1801,-10.93524 -18.54955,-18.02487c-4.56935,-7.414 -9.5909,-22.01775 -20.23037,-23.99651c-0.51218,-0.09528 -1.02952,-0.17513 -1.5514,-0.24079c-0.46292,1.33671 -0.89894,2.67816 -1.29181,4.02766c10.58923,7.94385 12.24995,19.3008 20.4537,28.67726c10.31612,11.79079 18.21482,16.13034 18.23731,33.27763c0,0 0,5.26969 -5.26969,5.26969c-5.26969,0 -5.26969,-5.26969 -5.26969,-5.26969c0.02069,-14.28672 -7.03272,-16.34387 -15.72293,-26.44551c-6.17601,-7.17911 -8.54747,-15.74769 -14.35664,-22.73653c0.01767,0.97004 0.07813,1.94849 0.18651,2.93638c1.03363,9.4227 1.45141,21.02715 4.44519,29.94122c3.80577,11.33166 11.43568,18.71193 8.99294,31.73748c-1.90605,10.16368 -6.42509,18.13662 -11.90999,26.65964c0,0 -2.86278,4.42429 -7.28703,1.56151c-4.42429,-2.86278 -1.56151,-7.28703 -1.56151,-7.28703c4.71497,-7.24298 8.62613,-13.88995 10.3398,-22.52413c2.13812,-10.77262 -5.42827,-17.32365 -8.5727,-26.81464c-3.1668,-9.55844 -3.98599,-22.01227 -4.92312,-32.12403c-0.32851,-3.54481 -0.11692,-6.93779 0.43858,-10.23156c-1.62254,-0.0287 -3.34833,0.07799 -5.406,-0.49303c-2.99403,-0.83082 -5.97045,-1.86997 -8.91835,-3.06713c1.47692,11.1254 5.27545,21.68115 6.22719,33.89362c1.47309,18.90224 -6.97865,36.90195 -5.45827,55.99874c0.68404,0.79636 3.06678,4.03166 -0.16849,7.26694c-3.72623,3.72623 -7.45246,0 -7.45246,0l-2.68227,-4.31535c-2.18348,-19.91275 6.99418,-38.73938 5.25279,-58.1467c-0.78792,-8.78116 -2.742,-16.67944 -4.33706,-24.51927c-0.57798,2.75176 -1.35673,5.45824 -2.50015,8.07253c-0.42941,5.79627 -1.63378,11.51399 -4.19963,17.07587c-2.66471,5.77611 -5.8874,10.12476 -7.19769,16.79327c-2.84851,14.49699 8.22433,31.42983 8.26533,46.5831v1.17103c0,0 0,5.26969 -5.26969,5.26969c-5.26969,0 -5.26969,-5.26969 -5.26969,-5.26969v-1.17103c0.05147,-16.33477 -11.11666,-32.19193 -8.12923,-48.2713c1.04617,-5.63087 3.30097,-10.17974 5.67721,-14.83375c-4.15441,2.63358 -8.6412,4.6009 -12.80187,5.10914c-1.52839,0.18669 -9.72686,-1.13411 -11.65111,-1.1418c-8.44826,-0.0338 -16.67326,3.04328 -23.87904,6.98199c0,0 -4.63982,2.49836 -7.13818,-2.14146c-2.49836,-4.63982 2.14146,-7.13818 2.14146,-7.13818c7.92066,-4.2108 13.87551,-6.08979 22.73302,-7.58807c5.84149,-0.98814 11.09561,1.06226 16.68352,0.54682c6.05962,-0.55897 13.89073,-7.29286 17.65293,-11.67932c0.80008,-0.93281 1.49898,-1.88037 2.11062,-2.84163c0.2391,-5.85396 -0.43422,-11.80561 -1.01533,-17.63449c-0.01328,-0.08677 -0.02673,-0.17348 -0.04037,-0.26011c-9.77085,0.34485 -19.60184,-0.26742 -28.22273,-3.08902c-7.54816,-3.28551 -16.62071,-10.92487 -25.20742,-11.36844c-3.70624,-0.19147 -7.08088,2.22627 -10.6355,3.29292l-2.09976,0.22224c0,0 -5.26969,0 -5.26969,-5.26969zM254.05682,152.97119c-3.0039,0.04954 -6.28783,-1.72322 -9.00235,-0.43594c-1.83498,0.8702 -3.19491,2.44363 -4.59724,3.96326c-0.91819,2.87602 -1.90457,5.82722 -2.93613,8.90546c-0.08635,0.47898 -0.16515,0.95536 -0.23675,1.42928c7.15223,-1.18694 14.26705,-2.16022 21.24788,-2.00396c1.45479,-4.12676 2.72014,-8.29214 3.3401,-12.61838c-1.97698,0.56196 -4.16407,0.70006 -7.81551,0.76028zM254.15329,176.92133c0.08793,-0.26366 0.17689,-0.527 0.26675,-0.79007c-0.96938,0.1127 -1.94128,0.24508 -2.91259,0.39066c0.87438,0.14941 1.76081,0.27297 2.64581,0.39941zM258.98915,142.07393c1.0616,-0.34766 2.05975,-0.75894 3.00365,-1.22461c-1.69164,-16.77114 -10.24452,-33.30774 -7.8784,-50.53966c1.26943,-9.24504 9.30624,-16.34313 12.54197,-24.06137c-4.48001,2.66393 -8.85796,5.48469 -13.44393,8.13668c-2.69264,1.55712 -10.74068,4.6114 -11.75513,8.39539c-2.80625,10.4675 4.2447,22.22857 4.99897,32.35445c0.7465,10.02172 -0.11888,18.49784 -1.96549,26.84359c4.89905,-0.44943 9.65755,1.68078 14.49839,0.09549z" fill="url(#color-36)"/><path d="M205.07344,47.11273c1.91139,-6.15675 8.28325,-5.13201 8.28325,-5.13201l3.02217,0.48601c1.5247,0.24522 3.12928,0.57728 4.77961,0.94391c2.87644,-5.00793 5.22152,-10.79949 10.15975,-12.30634c8.12569,-2.47949 18.8443,6.97644 26.47661,9.18465c0,0 2.6874,0.8103 4.36077,3.20685c7.53193,2.33043 18.40007,7.62907 21.74615,11.27735c9.06973,9.88896 4.42064,19.54981 8.37139,30.70785c1.59749,4.51177 6.52549,6.60622 9.68716,10.02105c5.00547,5.40631 10.02003,13.91627 11.33911,21.67553c1.41955,8.35049 -5.07685,23.57898 0.74928,31.02916c2.23351,2.85614 5.33486,4.76383 8.0023,7.14577c-1.36471,5.15081 -1.89769,10.64913 -4.09409,15.45242c-0.02624,0.05737 -8.25722,7.89842 -8.05532,10.98741c0.18223,2.78777 2.36609,5.07485 2.75436,7.83785c1.60047,11.39022 -0.73428,29.0538 -3.16807,40.26482c-1.54286,7.10698 -5.52074,13.81351 -10.52947,18.71119c-2.2366,2.18703 -7.9104,3.58103 -6.70361,6.56849c1.00834,2.49632 4.91493,3.22185 5.2042,5.9277c1.05594,9.87677 -4.2226,18.76364 -11.37743,24.00758c-13.64871,10.00349 -24.57172,1.29438 -38.98421,2.47883c-6.08154,0.49978 -12.25375,1.46694 -18.29078,0.52876c-10.65932,1.12399 -29.80891,0.42347 -37.76287,-9.24191c-2.36124,-2.86935 -1.46515,-7.57511 -2.91505,-11.08086c-2.23301,-5.39922 -8.44816,-8.53092 -11.07671,-13.308c-2.68997,-4.8888 -1.50734,-11.52362 -4.08489,-16.48264c-5.4165,-10.42099 -14.33208,-21.75142 -15.13286,-34.67726c-0.33814,-5.45813 3.52475,-10.81021 2.54948,-16.17805c-0.65889,-3.62625 -10.51932,-11.3481 -10.8811,-12.2573c-4.91634,-12.35595 1.88318,-33.95405 8.51786,-43.53122c6.13206,-10.53369 -0.57541,-21.64725 5.38784,-33.91484c5.49759,-11.3096 5.82388,-11.18745 15.2229,-17.02092c3.00724,-1.86645 8.94017,-3.93186 11.23751,-7.60666c6.38908,-10.21989 1.43297,-19.89634 15.20478,-25.70509zM226.65693,61.33857c-4.83448,2.86341 -11.38674,1.12339 -17.01706,1.51335c-2.97253,0.2059 -2.11603,6.01907 -3.10901,9.0541c-1.17388,3.58796 -2.15913,7.37658 -4.2069,10.47263c-7.246,10.95519 -19.42211,10.72656 -25.36006,22.68116c-4.56664,9.19378 1.15905,14.38734 -0.88148,24.32411c-0.837,4.07589 -3.55957,7.41115 -5.33939,11.11669c-5.877,7.53221 -5.01608,13.06876 -6.52781,22.70569c-0.24472,1.56014 -1.6224,3.27645 -0.8924,4.64815c1.02011,1.9169 3.92799,1.77413 5.22177,3.48727c2.81352,3.72553 5.69204,7.76025 6.79147,12.42006c1.70018,7.20623 -2.37125,11.9317 -2.24749,18.6618c0.17945,9.75244 9.50662,19.87541 13.33822,27.76979c2.35949,4.86129 1.09346,11.30559 3.80651,15.9464c3.22754,5.52102 9.31607,8.91192 11.81759,14.85662c0.93892,2.23133 -0.52992,5.27348 0.7308,7.31113c0.8284,1.33889 2.9368,0.56442 4.38287,0.95395c8.31044,2.23835 13.37704,3.26246 22.02751,2.35028c9.51836,1.58621 17.62743,-0.99787 27.30381,-0.11014c7.43174,0.68179 14.13447,5.04555 20.87342,0.04539c2.22711,-1.6525 6.32682,-4.05299 5.20835,-6.71063c-1.15304,-2.73989 -5.26375,-3.89672 -5.38541,-6.90386c-0.20668,-5.10942 2.14666,-10.11935 4.5177,-14.54533c2.58274,-4.82117 8.86074,-6.32317 11.61745,-11.03048c0.73878,-1.26149 2.24879,-13.22541 2.28276,-13.65348c0.63071,-7.94616 3.11175,-18.75384 1.93169,-26.66642c-0.55571,-3.72609 -3.15531,-7.11355 -2.9063,-10.87811c0.5653,-8.54638 6.0444,-16.8623 12.87923,-20.72625c-19.52258,-6.21061 -4.11826,-32.4955 -11.40568,-46.10384c-5.4451,-10.16801 -13.24406,-10.77592 -17.98935,-22.63177c-2.09533,-5.23512 -0.17249,-20.99767 -4.58101,-24.79206c-1.66494,-1.43297 -4.13808,-1.19032 -6.05536,-2.18899c-3.38483,-1.76306 -6.99664,-5.91804 -11.26677,-5.88385c-5.64644,0.04521 -10.90007,3.71559 -16.54285,3.94004c-4.06908,0.16188 -8.55007,-0.53811 -13.01691,-1.43325z" data-paper-data="{&quot;index&quot;:null}" fill="url(#color-37)"/></g><path d="M205.07344,47.11273c1.91139,-6.15675 8.28325,-5.13201 8.28325,-5.13201l3.02217,0.48601c1.5247,0.24522 3.12928,0.57728 4.77961,0.94391c2.87644,-5.00793 5.22152,-10.79949 10.15975,-12.30634c8.12569,-2.47949 18.8443,6.97644 26.47661,9.18465c0,0 2.6874,0.8103 4.36077,3.20685c7.53193,2.33043 18.40007,7.62907 21.74615,11.27735c9.06973,9.88896 4.42064,19.54981 8.37139,30.70785c1.59749,4.51177 6.52549,6.60622 9.68716,10.02105c5.00547,5.40631 10.02003,13.91627 11.33911,21.67553c1.41955,8.35049 -5.07685,23.57898 0.74928,31.02916c2.23351,2.85614 5.33486,4.76383 8.0023,7.14577c-1.36471,5.15081 -1.89769,10.64913 -4.09409,15.45242c-0.02624,0.05737 -8.25722,7.89842 -8.05532,10.98741c0.18223,2.78777 2.36609,5.07485 2.75436,7.83785c1.60047,11.39022 -0.73428,29.0538 -3.16807,40.26482c-1.54286,7.10698 -5.52074,13.81351 -10.52947,18.71119c-2.2366,2.18703 -7.9104,3.58103 -6.70361,6.56849c1.00834,2.49632 4.91493,3.22185 5.2042,5.9277c1.05594,9.87677 -4.2226,18.76364 -11.37743,24.00758c-13.64871,10.00349 -24.57172,1.29438 -38.98421,2.47883c-6.08154,0.49978 -12.25375,1.46694 -18.29078,0.52876c-10.65932,1.12399 -29.80891,0.42347 -37.76287,-9.24191c-2.36124,-2.86935 -1.46515,-7.57511 -2.91505,-11.08086c-2.23301,-5.39922 -8.44816,-8.53092 -11.07671,-13.308c-2.68997,-4.8888 -1.50734,-11.52362 -4.08489,-16.48264c-5.4165,-10.42099 -14.33208,-21.75142 -15.13286,-34.67726c-0.33814,-5.45813 3.52475,-10.81021 2.54948,-16.17805c-0.65889,-3.62625 -10.51932,-11.3481 -10.8811,-12.2573c-4.91634,-12.35595 1.88318,-33.95405 8.51786,-43.53122c6.13206,-10.53369 -0.57541,-21.64725 5.38784,-33.91484c5.49759,-11.3096 5.82388,-11.18745 15.2229,-17.02092c3.00724,-1.86645 8.94017,-3.93186 11.23751,-7.60666c6.38908,-10.21989 1.43297,-19.89634 15.20478,-25.70509zM226.65693,61.33857c-4.83448,2.86341 -11.38674,1.12339 -17.01706,1.51335c-2.97253,0.2059 -2.11603,6.01907 -3.10901,9.0541c-1.17388,3.58796 -2.15913,7.37658 -4.2069,10.47263c-7.246,10.95519 -19.42211,10.72656 -25.36006,22.68116c-4.56664,9.19378 1.15905,14.38734 -0.88148,24.32411c-0.837,4.07589 -3.55957,7.41115 -5.33939,11.11669c-5.877,7.53221 -5.01608,13.06876 -6.52781,22.70569c-0.24472,1.56014 -1.6224,3.27645 -0.8924,4.64815c1.02011,1.9169 3.92799,1.77413 5.22177,3.48727c2.81352,3.72553 5.69204,7.76025 6.79147,12.42006c1.70018,7.20623 -2.37125,11.9317 -2.24749,18.6618c0.17945,9.75244 9.50662,19.87541 13.33822,27.76979c2.35949,4.86129 1.09346,11.30559 3.80651,15.9464c3.22754,5.52102 9.31607,8.91192 11.81759,14.85662c0.93892,2.23133 -0.52992,5.27348 0.7308,7.31113c0.8284,1.33889 2.9368,0.56442 4.38287,0.95395c8.31044,2.23835 13.37704,3.26246 22.02751,2.35028c9.51836,1.58621 17.62743,-0.99787 27.30381,-0.11014c7.43174,0.68179 14.13447,5.04555 20.87342,0.04539c2.22711,-1.6525 6.32682,-4.05299 5.20835,-6.71063c-1.15304,-2.73989 -5.26375,-3.89672 -5.38541,-6.90386c-0.20668,-5.10942 2.14666,-10.11935 4.5177,-14.54533c2.58274,-4.82117 8.86074,-6.32317 11.61745,-11.03048c0.73878,-1.26149 2.24879,-13.22541 2.28276,-13.65348c0.63071,-7.94616 3.11175,-18.75384 1.93169,-26.66642c-0.55571,-3.72609 -3.15531,-7.11355 -2.9063,-10.87811c0.5653,-8.54638 6.0444,-16.8623 12.87923,-20.72625c-19.52258,-6.21061 -4.11826,-32.4955 -11.40568,-46.10384c-5.4451,-10.16801 -13.24406,-10.77592 -17.98935,-22.63177c-2.09533,-5.23512 -0.17249,-20.99767 -4.58101,-24.79206c-1.66494,-1.43297 -4.13808,-1.19032 -6.05536,-2.18899c-3.38483,-1.76306 -6.99664,-5.91804 -11.26677,-5.88385c-5.64644,0.04521 -10.90007,3.71559 -16.54285,3.94004c-4.06908,0.16188 -8.55007,-0.53811 -13.01691,-1.43325z" data-paper-data="{&quot;index&quot;:null}" fill="url(#color-38)" stroke-width="0.5"/><path d="M202.1058,290.0753c-15.83468,-6.1798 -10.13621,-16.47431 -17.4823,-27.34702c-2.64145,-3.90955 -9.46306,-6.10687 -12.92075,-8.09256c-10.80687,-6.20611 -11.18207,-6.07613 -17.50313,-18.10813c-6.85646,-13.05116 0.85573,-24.87458 -6.19487,-36.08114c-7.62847,-10.18891 -15.44644,-33.16662 -9.79372,-46.31179c0.41595,-0.96727 11.75341,-9.18236 12.51098,-13.04023c1.12139,-5.71069 -3.32015,-11.40466 -2.93135,-17.21144c0.92076,-13.7515 11.17178,-25.80567 17.3996,-36.89229c2.96364,-5.27577 1.60388,-12.33441 4.69677,-17.53545c3.02227,-5.08223 10.16839,-8.41397 12.73589,-14.15807c1.66708,-3.72968 0.63675,-8.73602 3.3517,-11.78865c9.14541,-10.28274 31.1634,-11.02802 43.41936,-9.83226c6.94131,-0.99811 14.03807,0.03085 21.03056,0.56256c16.57135,1.26009 29.13053,-8.00529 44.82366,2.63716c8.22655,5.57891 14.29575,15.03344 13.08165,25.5411c-0.33262,2.87866 -4.82437,3.65056 -5.98377,6.30631c-1.38754,3.17829 5.13609,4.66132 7.70773,6.98806c5.75896,5.21053 10.33274,12.34541 12.10669,19.90636c2.79835,11.9271 5.4828,30.71895 3.64258,42.83671c-0.44641,2.9395 -2.95742,5.37269 -3.16694,8.33851c-0.23215,3.28628 9.23176,11.62817 9.26194,11.68922c2.52538,5.11009 3.13824,10.95962 4.70734,16.43943c-3.06699,2.53409 -6.63289,4.56366 -9.20095,7.60223c-6.69883,7.92607 0.77067,24.12731 -0.86152,33.01116c-1.51665,8.2549 -7.28236,17.3084 -13.0376,23.06006c-3.63524,3.63296 -9.30142,5.86119 -11.13819,10.66114c-4.54254,11.87075 0.80296,22.14871 -9.62533,32.66933c-3.84726,3.88134 -16.34334,9.51839 -25.00348,11.99768c-1.924,2.54962 -5.01397,3.4117 -5.01397,3.4117c-8.77554,2.34926 -21.0997,12.40917 -30.44254,9.7713c-5.67791,-1.60311 -8.37427,-7.76461 -11.68157,-13.0924c-1.89754,0.39003 -3.74246,0.74331 -5.49555,1.00419l-3.47487,0.51706c0,0 -7.32631,1.09019 -9.52401,-5.45982zM226.92221,274.94068c5.13594,-0.95234 10.28812,-1.69702 14.96673,-1.5248c6.48801,0.23879 12.52855,4.14359 19.02077,4.19169c4.90977,0.03636 9.0626,-4.384 12.95444,-6.25969c2.20449,-1.06247 5.04808,-0.80433 6.96238,-2.32882c5.06888,-4.03676 2.85803,-20.80614 5.26723,-26.37567c5.4561,-12.61314 14.42325,-13.25987 20.68395,-24.07739c8.37898,-14.47756 -9.33276,-42.44141 13.11411,-49.04872c-7.85862,-4.11078 -14.15839,-12.95785 -14.80839,-22.05014c-0.28632,-4.00503 2.70268,-7.60887 3.34162,-11.57298c1.3568,-8.41798 -1.49589,-19.91598 -2.22107,-28.36972c-0.03907,-0.45544 -1.77525,-13.18357 -2.62469,-14.52562c-3.16968,-5.00796 -10.38803,-6.60591 -13.35764,-11.73504c-2.72622,-4.70871 -5.43207,-10.03862 -5.1944,-15.47441c0.13989,-3.19919 4.86635,-4.42995 6.1921,-7.34486c1.28598,-2.8274 -3.42783,-5.38123 -5.98855,-7.13927c-7.74838,-5.31954 -15.45505,-0.67708 -23.99999,0.04827c-11.12582,0.94443 -20.44952,-1.80469 -31.39365,-0.11716c-9.94622,-0.97043 -15.77172,0.11909 -25.32701,2.5004c-1.66266,0.41437 -4.08689,-0.40956 -5.03937,1.01487c-1.44955,2.16781 0.23928,5.40428 -0.84027,7.77813c-2.87623,6.32444 -9.8767,9.93192 -13.58772,15.80559c-3.11941,4.93724 -1.66375,11.79314 -4.37665,16.96496c-4.40553,8.39866 -15.12984,19.16821 -15.33617,29.5436c-0.14235,7.15996 4.53896,12.18728 2.58412,19.8538c-1.26409,4.95748 -4.57377,9.24989 -7.80873,13.21339c-1.48756,1.82257 -4.83104,1.6707 -6.00393,3.71004c-0.83932,1.45932 0.74468,3.2853 1.02608,4.94508c1.73815,10.2525 0.7483,16.14267 7.50562,24.15601c2.0464,3.94225 5.17677,7.49055 6.13915,11.8268c2.34617,10.57149 -4.23718,16.09676 1.0135,25.87779c6.82741,12.71822 20.82736,12.47501 29.15874,24.12994c2.3545,3.29377 3.48734,7.32441 4.83705,11.14156c1.14173,3.22888 0.15693,9.41339 3.57471,9.63243c6.47367,0.41487 14.00736,-1.43627 19.56601,1.61003z" fill="url(#color-39)" stroke-width="0.5"/><g><path d="M195.59851,186.24317v-37.23914h4.21575v37.23914z" fill="url(#color-40)" stroke-width="0"/><path d="M273.1215,186.24317v-37.23914h4.21575v37.23914z" fill="url(#color-41)" stroke-width="0"/><path d="M174.78201,155.13254v-7.39959h123.84606v7.39959z" fill="url(#color-42)" stroke-width="0"/><g><path d="M293.43198,151.99665c0,10.53587 -8.16419,19.07691 -18.2353,19.07691c-10.07108,0 -18.23527,-8.54104 -18.23527,-19.07691c0,-10.53587 8.16419,-19.07691 18.23527,-19.07691c10.07108,0 18.2353,8.54101 18.2353,19.07691z" fill="#000000" stroke-width="0"/><g fill="none" stroke-width="1" font-family="sans-serif" font-weight="normal" font-size="12" text-anchor="start"/><path d="M293.43198,151.99665c0,0.07743 -9.23274,-4.31391 -18.40738,-4.25148c-9.05993,0.06162 -18.0632,4.57954 -18.0632,4.25148c0,-10.53587 8.16419,-19.07691 18.23527,-19.07691c10.07108,0 18.2353,8.54101 18.2353,19.07691z" fill="url(#color-43)" stroke-width="0"/></g><path d="M222.55722,233.50132l0.01627,-3.90646l26.82792,0.11186l-0.0163,3.90646z" fill="url(#color-44)" stroke-width="0"/><path d="M246.51242,234.63402l0.12911,-44.95846l4.69139,0.02839l-0.12911,44.95846z" fill="url(#color-45)" stroke-width="0"/><path d="M221.25076,234.48124l0.12911,-44.95842l4.69139,0.02835l-0.12911,44.95846z" fill="url(#color-46)" stroke-width="0"/><g stroke-width="0"><path d="M227.24738,265.89027l0.15718,-37.71028l17.96964,0.07493l-0.15714,37.71028z" fill="url(#color-47)"/><path d="M227.24738,265.89027l0.01978,-4.74788l17.96964,0.0749l-0.01978,4.74788z" fill="#494949"/></g><path d="M181.58503,184.15345l110.77625,0.2338l0.00812,10.93977l-110.78921,-0.23671z" fill="url(#color-48)" stroke-width="0"/><g><path d="M201.56401,211.15225c-1.72245,0.3445 -2.06695,-1.37795 -2.06695,-1.37795l-0.25477,-1.29768c-1.06564,-8.52502 2.79894,-15.07641 -1.71648,-22.64902c-2.92942,-8.01007 -0.25484,-11.26884 0.0645,-18.85031c0.1706,-4.04997 -2.61816,-7.58034 -3.03527,-11.45799c-0.44778,-4.16267 2.42427,-6.71355 3.32085,-10.45447c0,0 0.42604,-1.70411 2.13015,-1.27808c1.70411,0.42604 1.27808,2.13015 1.27808,2.13015c-0.80433,3.1166 -3.62523,5.88593 -3.23696,9.21904c0.46774,4.01501 3.2899,7.70158 3.05414,11.96286c-0.39765,7.18687 -3.09166,9.78184 -0.4039,17.2178c4.92864,8.15632 0.91584,14.80417 2.03087,23.72425l0.21367,1.04442c0,0 0.34446,1.72245 -1.37795,2.06695z" fill="url(#color-49)" stroke-width="0.5"/><path d="M196.53535,209.78111c-1.75656,0 -1.75656,-1.75656 -1.75656,-1.75656v-1.40525c0.09858,-8.0595 6.79857,-12.23924 6.79203,-20.14191c0.03207,-8.72805 -5.30025,-14.3448 -9.16638,-21.43204c-2.75728,-5.05458 -1.97146,-13.26764 -1.36225,-18.8116c0,0 0.19399,-1.74581 1.93981,-1.55185c1.74581,0.19399 1.55185,1.93981 1.55185,1.93981c-0.46054,4.09525 -1.1828,10.73622 0.15974,14.72334c3.01672,8.95907 10.35645,14.66021 10.39039,25.13231c-0.0072,8.0953 -6.92293,12.43713 -6.79203,20.14191v1.40525c0,0 0,1.75656 -1.75656,1.75656z" fill="url(#color-50)" stroke-width="0.5"/><g><path d="M211.92745,213.82767c0,10.53587 -8.16419,19.07691 -18.2353,19.07691c-10.07108,0 -18.23527,-8.54101 -18.23527,-19.07691c0,-10.53587 8.16419,-19.07691 18.23527,-19.07691c10.07108,0 18.2353,8.54104 18.2353,19.07691z" fill="#000000" stroke-width="0"/><g fill="none" stroke-width="1" font-family="sans-serif" font-weight="normal" font-size="12" text-anchor="start"/></g></g><path d="M216.1432,151.99665c0,0.07743 -9.23274,-1.97181 -18.40738,-1.90942c-9.05993,0.06162 -18.0632,2.23747 -18.0632,1.90942c0,-10.53587 8.16419,-19.07691 18.23527,-19.07691c10.07108,0 18.2353,8.54101 18.2353,19.07691z" fill="url(#color-51)" stroke-width="0"/></g><path d="M160.781,120.02025c-1.21656,-3.93182 3.04145,-5.05521 3.04145,-5.05521l2.76845,-0.65752c17.45641,-7.95333 32.62075,-18.0503 53.02969,-18.10191c0.81118,0.19941 1.64773,0.43854 2.50187,0.69247c0.37099,-1.30825 0.5809,-2.56757 0.55732,-3.73828c-0.16649,-8.27503 -5.45905,-14.25943 -7.45236,-21.78296c-3.26232,-12.31323 8.08532,-24.86924 17.91807,-31.31495c0,0 3.6279,-2.34498 6.16743,1.005c2.53953,3.34998 -1.08837,5.69495 -1.08837,5.69495c-6.51439,4.13822 -17.0915,14.18825 -14.37722,22.736c2.56662,8.08279 7.80508,14.86312 7.68609,23.88079c-0.02512,1.90376 -0.27926,3.77159 -0.70059,5.61471c0.96418,0.08892 1.91922,0.09837 2.85515,-0.00376c3.80535,-0.41525 7.02253,-1.8277 10.03198,-3.57411c2.55727,-10.9846 -4.39991,-21.92482 0.52202,-32.67183c2.53774,-5.54115 9.09246,-10.67572 13.38217,-15.07795c0,0 2.96244,-3.03942 6.25407,-0.30392c3.29162,2.7355 0.32914,5.77495 0.32914,5.77495c-3.59737,3.68998 -9.75402,8.25444 -11.84855,12.87944c-3.3225,7.33667 -0.37425,15.56501 0.25488,23.75752c1.86371,-1.09072 3.79678,-2.04938 5.89243,-2.71354c6.05354,-1.91852 12.74313,1.60539 18.39747,-2.63569c5.0133,-3.76027 13.76678,-13.58877 11.96504,-19.24259c0,0 -0.86848,-4.00978 3.47392,-4.81172c4.3424,-0.80194 5.21088,3.2078 5.21088,3.2078c1.77996,10.77848 -10.04181,26.64323 -21.61275,30.3089c-4.57398,1.44902 -10.58147,-0.45516 -14.63382,0.93189c-3.32138,1.13685 -6.9172,4.55463 -10.25597,6.54485c-5.72791,15.50083 -12.24967,23.9929 -6.19775,40.73428c3.58515,7.26525 7.68802,13.1445 5.75071,21.49014c-1.27569,5.49569 -7.1647,13.16923 -6.46619,18.83573c1.23455,10.01452 5.31125,15.33423 1.84436,26.17989l-0.95469,3.54439c0,0 -1.07403,3.96709 -5.37027,2.9753c-4.2962,-0.99176 -3.22213,-4.95885 -3.22213,-4.95885l1.06377,-3.91088c3.3062,-9.98322 -1.34187,-13.85545 -2.19254,-23.21151c-0.79347,-8.72738 7.49694,-16.56049 7.061,-25.20932c-0.21318,-4.2291 -3.93994,-9.04402 -5.75801,-12.74559c-5.85856,-16.2486 -1.90418,-25.89543 3.41578,-39.4517c-3.88963,0.8949 -7.60883,1.04783 -11.62037,0.61887c-3.8904,9.23288 -10.02274,18.20895 -10.02274,28.45137c1.20012,4.32789 3.57545,9.35953 4.47825,13.62945c1.2988,6.14267 -2.20456,14.48128 -0.06422,20.25943c2.81925,7.61112 4.377,11.68294 2.59775,20.06582l-0.88615,1.95871c0,0 -1.98045,3.65745 -5.94133,1.82872c-3.96087,-1.82872 -1.98045,-5.4862 -1.98045,-5.4862l0.12306,0.09489c1.68542,-7.6004 -0.23239,-9.3707 -2.44837,-16.27881c-2.07717,-6.4755 1.39805,-14.199 -0.06422,-20.74476c-1.0207,-4.56907 -3.372,-9.67828 -4.6048,-14.32797c0,-7.76246 1.51331,-15.80078 4.84544,-23.03251c1.07656,-2.33644 2.81879,-5.23421 4.42496,-8.25353c-0.13838,-0.03538 -0.27736,-0.07118 -0.41683,-0.10736c-17.88659,-0.06331 -32.65732,10.19976 -47.89318,17.31086l-4.29617,1.20627c0,0 -4.25801,1.12339 -5.47457,-2.80843z" fill="url(#color-52)" stroke-width="0.5"/><path d="M322.3033,111.7839c0.54468,4.35751 -3.81283,4.90218 -3.81283,4.90218l-4.15027,0.51629c-12.32127,1.04772 -20.71627,10.30677 -32.72041,12.47125c-7.83554,1.4128 -19.07146,-1.16193 -26.29972,1.3202c-8.26287,2.83741 -12.65347,21.61742 -14.30036,28.84062c-2.85083,5.76557 -6.51678,12.16086 -11.10102,17.67239c0.54348,-0.00752 1.0858,-0.01138 1.62686,-0.01114c13.61438,1.19032 18.62533,9.63654 28.24353,18.09682c2.18014,1.91768 6.19965,8.56743 9.12594,9.03892c9.67673,1.55909 19.63542,-2.6171 29.4941,-1.59243c6.16143,0.64037 11.11002,4.49072 16.72216,6.81676c0,0 4.05362,1.68901 2.36461,5.74259c-1.68901,4.05362 -5.74259,2.36458 -5.74259,2.36458c-4.35171,-1.82191 -9.51569,-5.84243 -14.30253,-6.19361c-9.78515,-0.71787 -21.02817,3.99797 -30.55362,1.40996c-14.64067,-3.97781 -19.1074,-25.86957 -35.68862,-26.90724c-3.75982,0.00165 -7.60648,0.22041 -11.48402,0.48653c-4.0799,2.59673 -8.64271,4.27586 -13.72396,4.51834c-7.72392,0.3686 -12.72054,-4.41403 -20.74238,-2.59676c-13.1268,2.97372 -21.42427,12.63345 -35.80673,10.01982c0,0 -4.30614,-0.86124 -3.4449,-5.16735c0.86124,-4.30611 5.16735,-3.44494 5.16735,-3.44494c8.81928,2.00213 16.45373,-3.2709 24.34906,-7.05871c-8.91782,-2.46843 -17.83958,-4.08447 -27.08079,1.1925l-2.63305,0.55265c0,0 -4.39141,0 -4.39141,-4.39141c0,-3.27258 2.43878,-4.10639 3.68148,-4.31879c9.51189,-4.73619 23.31216,-5.24654 33.63449,-2.98198c5.47823,1.20184 9.54594,4.92955 15.04591,5.4327c7.56678,0.69219 15.42635,0.14457 23.24319,-0.37787c7.05172,-5.30605 12.2502,-14.38745 15.7204,-21.24085c2.32548,-10.78459 8.17259,-29.80687 19.7267,-34.20949c7.56861,-2.88396 19.60637,-0.33104 27.74323,-1.68219c12.13859,-2.01559 20.55664,-11.32467 33.33212,-12.54861l3.85608,-0.48453c0,0 4.35747,-0.54468 4.90218,3.81283z" fill="url(#color-53)" stroke-width="0.5"/><path d="M202.1058,290.0753c-15.83468,-6.1798 -10.13621,-16.47431 -17.4823,-27.34702c-2.64145,-3.90955 -9.46306,-6.10687 -12.92075,-8.09256c-10.80687,-6.20611 -11.18207,-6.07613 -17.50313,-18.10813c-6.85646,-13.05116 0.85573,-24.87458 -6.19487,-36.08114c-7.62847,-10.18891 -15.44644,-33.16662 -9.79372,-46.31179c0.41595,-0.96727 11.75341,-9.18236 12.51098,-13.04023c1.12139,-5.71069 -3.32015,-11.40466 -2.93135,-17.21144c0.92076,-13.7515 11.17178,-25.80567 17.3996,-36.89229c2.96364,-5.27577 1.60388,-12.33441 4.69677,-17.53545c3.02227,-5.08223 10.16839,-8.41397 12.73589,-14.15807c1.66708,-3.72968 0.63675,-8.73602 3.3517,-11.78865c9.14541,-10.28274 31.1634,-11.02802 43.41936,-9.83226c6.94131,-0.99811 14.03807,0.03085 21.03056,0.56256c16.57135,1.26009 29.13053,-8.00529 44.82366,2.63716c8.22655,5.57891 14.29575,15.03344 13.08165,25.5411c-0.33262,2.87866 -4.82437,3.65056 -5.98377,6.30631c-1.38754,3.17829 5.13609,4.66132 7.70773,6.98806c5.75896,5.21053 10.33274,12.34541 12.10669,19.90636c2.79835,11.9271 5.4828,30.71895 3.64258,42.83671c-0.44641,2.9395 -2.95742,5.37269 -3.16694,8.33851c-0.23215,3.28628 9.23176,11.62817 9.26194,11.68922c2.52538,5.11009 3.13824,10.95962 4.70734,16.43943c-3.06699,2.53409 -6.63289,4.56366 -9.20095,7.60223c-6.69883,7.92607 0.77067,24.12731 -0.86152,33.01116c-1.51665,8.2549 -7.28236,17.3084 -13.0376,23.06006c-3.63524,3.63296 -9.30142,5.86119 -11.13819,10.66114c-4.54254,11.87075 0.80296,22.14871 -9.62533,32.66933c-3.84726,3.88134 -16.34334,9.51839 -25.00348,11.99768c-1.924,2.54962 -5.01397,3.4117 -5.01397,3.4117c-8.77554,2.34926 -21.0997,12.40917 -30.44254,9.7713c-5.67791,-1.60311 -8.37427,-7.76461 -11.68157,-13.0924c-1.89754,0.39003 -3.74246,0.74331 -5.49555,1.00419l-3.47487,0.51706c0,0 -7.32631,1.09019 -9.52401,-5.45982zM226.92221,274.94068c5.13594,-0.95234 10.28812,-1.69702 14.96673,-1.5248c6.48801,0.23879 12.52855,4.14359 19.02077,4.19169c4.90977,0.03636 9.0626,-4.384 12.95444,-6.25969c2.20449,-1.06247 5.04808,-0.80433 6.96238,-2.32882c5.06888,-4.03676 2.85803,-20.80614 5.26723,-26.37567c5.4561,-12.61314 14.42325,-13.25987 20.68395,-24.07739c8.37898,-14.47756 -9.33276,-42.44141 13.11411,-49.04872c-7.85862,-4.11078 -14.15839,-12.95785 -14.80839,-22.05014c-0.28632,-4.00503 2.70268,-7.60887 3.34162,-11.57298c1.3568,-8.41798 -1.49589,-19.91598 -2.22107,-28.36972c-0.03907,-0.45544 -1.77525,-13.18357 -2.62469,-14.52562c-3.16968,-5.00796 -10.38803,-6.60591 -13.35764,-11.73504c-2.72622,-4.70871 -5.43207,-10.03862 -5.1944,-15.47441c0.13989,-3.19919 4.86635,-4.42995 6.1921,-7.34486c1.28598,-2.8274 -3.42783,-5.38123 -5.98855,-7.13927c-7.74838,-5.31954 -15.45505,-0.67708 -23.99999,0.04827c-11.12582,0.94443 -20.44952,-1.80469 -31.39365,-0.11716c-9.94622,-0.97043 -15.77172,0.11909 -25.32701,2.5004c-1.66266,0.41437 -4.08689,-0.40956 -5.03937,1.01487c-1.44955,2.16781 0.23928,5.40428 -0.84027,7.77813c-2.87623,6.32444 -9.8767,9.93192 -13.58772,15.80559c-3.11941,4.93724 -1.66375,11.79314 -4.37665,16.96496c-4.40553,8.39866 -15.12984,19.16821 -15.33617,29.5436c-0.14235,7.15996 4.53896,12.18728 2.58412,19.8538c-1.26409,4.95748 -4.57377,9.24989 -7.80873,13.21339c-1.48756,1.82257 -4.83104,1.6707 -6.00393,3.71004c-0.83932,1.45932 0.74468,3.2853 1.02608,4.94508c1.73815,10.2525 0.7483,16.14267 7.50562,24.15601c2.0464,3.94225 5.17677,7.49055 6.13915,11.8268c2.34617,10.57149 -4.23718,16.09676 1.0135,25.87779c6.82741,12.71822 20.82736,12.47501 29.15874,24.12994c2.3545,3.29377 3.48734,7.32441 4.83705,11.14156c1.14173,3.22888 0.15693,9.41339 3.57471,9.63243c6.47367,0.41487 14.00736,-1.43627 19.56601,1.61003z" fill="url(#color-54)" stroke-width="0.5"/></g><path d="M-7,368.5v-377h494v377z" fill="url(#color-55)" stroke="#000000" stroke-width="2"/><g stroke="#000000" stroke-width="2"><path d="M-7,368.5v-377h494v377z" fill="url(#color-56)"/><path d="M487,-8.5v377h-494v-377z" data-paper-data="{&quot;index&quot;:null}" fill="url(#color-57)"/></g></g></g></svg>