<svg version="1.1" xmlns="http://www.w3.org/2000/svg" xmlns:xlink="http://www.w3.org/1999/xlink" width="496" height="592.40705" viewBox="0,0,496,592.40705"><defs><linearGradient x1="87.19953" y1="343.82628" x2="108.77834" y2="348.35242" gradientUnits="userSpaceOnUse" id="color-1"><stop offset="0" stop-color="#0f0f0f"/><stop offset="1" stop-color="#737373"/></linearGradient><linearGradient x1="111.75571" y1="349.27826" x2="133.20301" y2="353.77683" gradientUnits="userSpaceOnUse" id="color-2"><stop offset="0" stop-color="#0f0f0f"/><stop offset="1" stop-color="#737373"/></linearGradient><linearGradient x1="72.18456" y1="412.10268" x2="93.63182" y2="416.60124" gradientUnits="userSpaceOnUse" id="color-3"><stop offset="0" stop-color="#0f0f0f"/><stop offset="1" stop-color="#737373"/></linearGradient><linearGradient x1="96.64732" y1="417.35238" x2="118.22622" y2="421.87854" gradientUnits="userSpaceOnUse" id="color-4"><stop offset="0" stop-color="#0f0f0f"/><stop offset="1" stop-color="#737373"/></linearGradient><linearGradient x1="120.90271" y1="386.19571" x2="130.48085" y2="388.20473" gradientUnits="userSpaceOnUse" id="color-5"><stop offset="0" stop-color="#595959"/><stop offset="1" stop-color="#afafaf"/></linearGradient><linearGradient x1="75.74283" y1="376.92854" x2="85.32096" y2="378.93755" gradientUnits="userSpaceOnUse" id="color-6"><stop offset="0" stop-color="#afafaf"/><stop offset="1" stop-color="#595959"/></linearGradient><linearGradient x1="96.0185" y1="381.16267" x2="109.48347" y2="383.98694" gradientUnits="userSpaceOnUse" id="color-7"><stop offset="0" stop-color="#afafaf"/><stop offset="1" stop-color="#595959"/></linearGradient><radialGradient cx="87.87958" cy="439.58194" r="14.16895" gradientUnits="userSpaceOnUse" id="color-8"><stop offset="0" stop-color="#656565"/><stop offset="1" stop-color="#404040"/></radialGradient><linearGradient x1="64.66569" y1="380.64922" x2="138.10478" y2="396.05304" gradientUnits="userSpaceOnUse" id="color-9"><stop offset="0" stop-color="#cb80ce"/><stop offset="1" stop-color="#a946ad"/></linearGradient><linearGradient x1="389.69368" y1="343.82628" x2="368.11487" y2="348.35242" gradientUnits="userSpaceOnUse" id="color-10"><stop offset="0" stop-color="#0f0f0f"/><stop offset="1" stop-color="#737373"/></linearGradient><linearGradient x1="365.1375" y1="349.27826" x2="343.6902" y2="353.77683" gradientUnits="userSpaceOnUse" id="color-11"><stop offset="0" stop-color="#0f0f0f"/><stop offset="1" stop-color="#737373"/></linearGradient><linearGradient x1="404.70865" y1="412.10268" x2="383.26139" y2="416.60124" gradientUnits="userSpaceOnUse" id="color-12"><stop offset="0" stop-color="#0f0f0f"/><stop offset="1" stop-color="#737373"/></linearGradient><linearGradient x1="380.24589" y1="417.35238" x2="358.66699" y2="421.87854" gradientUnits="userSpaceOnUse" id="color-13"><stop offset="0" stop-color="#0f0f0f"/><stop offset="1" stop-color="#737373"/></linearGradient><linearGradient x1="355.9905" y1="386.19571" x2="346.41236" y2="388.20473" gradientUnits="userSpaceOnUse" id="color-14"><stop offset="0" stop-color="#595959"/><stop offset="1" stop-color="#afafaf"/></linearGradient><linearGradient x1="401.15038" y1="376.92854" x2="391.57225" y2="378.93755" gradientUnits="userSpaceOnUse" id="color-15"><stop offset="0" stop-color="#afafaf"/><stop offset="1" stop-color="#595959"/></linearGradient><linearGradient x1="380.87471" y1="381.16267" x2="367.40974" y2="383.98694" gradientUnits="userSpaceOnUse" id="color-16"><stop offset="0" stop-color="#afafaf"/><stop offset="1" stop-color="#595959"/></linearGradient><radialGradient cx="389.01363" cy="439.58194" r="14.16895" gradientUnits="userSpaceOnUse" id="color-17"><stop offset="0" stop-color="#656565"/><stop offset="1" stop-color="#404040"/></radialGradient><linearGradient x1="412.22752" y1="380.64922" x2="338.78843" y2="396.05304" gradientUnits="userSpaceOnUse" id="color-18"><stop offset="0" stop-color="#cb80ce"/><stop offset="1" stop-color="#a946ad"/></linearGradient><linearGradient x1="228.8738" y1="245.57085" x2="243.76848" y2="245.57085" gradientUnits="userSpaceOnUse" id="color-19"><stop offset="0" stop-color="#afafaf"/><stop offset="1" stop-color="#595959"/></linearGradient><linearGradient x1="240.10028" y1="347.01528" x2="240.10028" y2="364.34318" gradientUnits="userSpaceOnUse" id="color-20"><stop offset="0" stop-color="#afafaf"/><stop offset="1" stop-color="#595959"/></linearGradient><linearGradient x1="163.13072" y1="340.91766" x2="163.13072" y2="370.51951" gradientUnits="userSpaceOnUse" id="color-21"><stop offset="0" stop-color="#7c7c7c"/><stop offset="1" stop-color="#111111"/></linearGradient><linearGradient x1="190.9933" y1="342.04697" x2="190.9933" y2="371.64883" gradientUnits="userSpaceOnUse" id="color-22"><stop offset="0" stop-color="#7c7c7c"/><stop offset="1" stop-color="#111111"/></linearGradient><linearGradient x1="288.27717" y1="341.23417" x2="288.27717" y2="370.83602" gradientUnits="userSpaceOnUse" id="color-23"><stop offset="0" stop-color="#7c7c7c"/><stop offset="1" stop-color="#111111"/></linearGradient><linearGradient x1="316.13975" y1="342.36348" x2="316.13975" y2="371.96534" gradientUnits="userSpaceOnUse" id="color-24"><stop offset="0" stop-color="#7c7c7c"/><stop offset="1" stop-color="#111111"/></linearGradient><linearGradient x1="240.10028" y1="392.55829" x2="240.10028" y2="409.88625" gradientUnits="userSpaceOnUse" id="color-25"><stop offset="0" stop-color="#afafaf"/><stop offset="1" stop-color="#595959"/></linearGradient><linearGradient x1="170.01278" y1="386.4607" x2="170.01278" y2="416.06255" gradientUnits="userSpaceOnUse" id="color-26"><stop offset="0" stop-color="#7c7c7c"/><stop offset="1" stop-color="#111111"/></linearGradient><linearGradient x1="195.38408" y1="387.59005" x2="195.38408" y2="417.1919" gradientUnits="userSpaceOnUse" id="color-27"><stop offset="0" stop-color="#7c7c7c"/><stop offset="1" stop-color="#111111"/></linearGradient><linearGradient x1="283.96954" y1="386.77721" x2="283.96954" y2="416.37906" gradientUnits="userSpaceOnUse" id="color-28"><stop offset="0" stop-color="#7c7c7c"/><stop offset="1" stop-color="#111111"/></linearGradient><linearGradient x1="309.3409" y1="387.90656" x2="309.3409" y2="417.50841" gradientUnits="userSpaceOnUse" id="color-29"><stop offset="0" stop-color="#7c7c7c"/><stop offset="1" stop-color="#111111"/></linearGradient><linearGradient x1="240.10028" y1="438.10136" x2="240.10028" y2="455.42932" gradientUnits="userSpaceOnUse" id="color-30"><stop offset="0" stop-color="#afafaf"/><stop offset="1" stop-color="#595959"/></linearGradient><linearGradient x1="178.61535" y1="432.00377" x2="178.61535" y2="461.60563" gradientUnits="userSpaceOnUse" id="color-31"><stop offset="0" stop-color="#7c7c7c"/><stop offset="1" stop-color="#111111"/></linearGradient><linearGradient x1="200.87258" y1="433.13309" x2="200.87258" y2="462.73498" gradientUnits="userSpaceOnUse" id="color-32"><stop offset="0" stop-color="#7c7c7c"/><stop offset="1" stop-color="#111111"/></linearGradient><linearGradient x1="278.58502" y1="432.32028" x2="278.58502" y2="461.92214" gradientUnits="userSpaceOnUse" id="color-33"><stop offset="0" stop-color="#7c7c7c"/><stop offset="1" stop-color="#111111"/></linearGradient><linearGradient x1="300.84222" y1="433.4496" x2="300.84222" y2="463.05149" gradientUnits="userSpaceOnUse" id="color-34"><stop offset="0" stop-color="#7c7c7c"/><stop offset="1" stop-color="#111111"/></linearGradient><linearGradient x1="218.10806" y1="418.80889" x2="257.64455" y2="418.80889" gradientUnits="userSpaceOnUse" id="color-35"><stop offset="0" stop-color="#afafaf"/><stop offset="1" stop-color="#595959"/></linearGradient><linearGradient x1="238.75167" y1="322.75829" x2="238.75167" y2="331.86696" gradientUnits="userSpaceOnUse" id="color-36"><stop offset="0" stop-color="#afafaf"/><stop offset="1" stop-color="#595959"/></linearGradient><radialGradient cx="363.23596" cy="323.77039" r="14.16895" gradientUnits="userSpaceOnUse" id="color-37"><stop offset="0" stop-color="#656565"/><stop offset="1" stop-color="#404040"/></radialGradient><linearGradient x1="237.60614" y1="316.80068" x2="237.60614" y2="339.06627" gradientUnits="userSpaceOnUse" id="color-38"><stop offset="0" stop-color="#595959"/><stop offset="1" stop-color="#393939"/></linearGradient><radialGradient cx="120.33972" cy="323.77039" r="14.16895" gradientUnits="userSpaceOnUse" id="color-39"><stop offset="0" stop-color="#656565"/><stop offset="1" stop-color="#404040"/></radialGradient><linearGradient x1="217.38794" y1="536.94914" x2="258.43406" y2="536.94914" gradientUnits="userSpaceOnUse" id="color-40"><stop offset="0" stop-color="#595959"/><stop offset="1" stop-color="#393939"/></linearGradient><linearGradient x1="214.27746" y1="522.95206" x2="261.5445" y2="522.95206" gradientUnits="userSpaceOnUse" id="color-41"><stop offset="0" stop-color="#393939"/><stop offset="1" stop-color="#151515"/></linearGradient><linearGradient x1="214.27746" y1="539.28199" x2="261.5445" y2="539.28199" gradientUnits="userSpaceOnUse" id="color-42"><stop offset="0" stop-color="#393939"/><stop offset="1" stop-color="#151515"/></linearGradient><radialGradient cx="129.97587" cy="304.52756" r="34.32837" gradientUnits="userSpaceOnUse" id="color-43"><stop offset="0" stop-color="#cb80ce"/><stop offset="1" stop-color="#a946ad"/></radialGradient><radialGradient cx="344.80849" cy="304.52756" r="34.32837" gradientUnits="userSpaceOnUse" id="color-44"><stop offset="0" stop-color="#cb80ce"/><stop offset="1" stop-color="#a946ad"/></radialGradient><linearGradient x1="239.24081" y1="272.59417" x2="239.24081" y2="559.93341" gradientUnits="userSpaceOnUse" id="color-45"><stop offset="0" stop-color="#cb80ce"/><stop offset="1" stop-color="#a946ad"/></linearGradient><radialGradient cx="256.33249" cy="364.8335" r="121.41589" gradientUnits="userSpaceOnUse" id="color-46"><stop offset="0" stop-color="#d3afd3"/><stop offset="1" stop-color="#c0a0c1"/></radialGradient><linearGradient x1="237.79486" y1="187.90692" x2="237.79486" y2="304.75646" gradientUnits="userSpaceOnUse" id="color-47"><stop offset="0" stop-color="#cb80ce"/><stop offset="1" stop-color="#a946ad"/></linearGradient><linearGradient x1="237.79482" y1="254.37076" x2="237.79482" y2="323.55432" gradientUnits="userSpaceOnUse" id="color-48"><stop offset="0" stop-color="#cb80ce"/><stop offset="1" stop-color="#a946ad"/></linearGradient><linearGradient x1="237.34428" y1="188.21147" x2="237.34428" y2="296.83615" gradientUnits="userSpaceOnUse" id="color-49"><stop offset="0" stop-color="#330000"/><stop offset="1" stop-color="#9c0000"/></linearGradient><linearGradient x1="236.96983" y1="211.54774" x2="236.96983" y2="214.54925" gradientUnits="userSpaceOnUse" id="color-50"><stop offset="0" stop-color="#898989"/><stop offset="1" stop-color="#2e2e2e"/></linearGradient><linearGradient x1="236.90881" y1="221.58435" x2="236.90881" y2="242.36242" gradientUnits="userSpaceOnUse" id="color-51"><stop offset="0" stop-color="#8a8a8a"/><stop offset="1" stop-color="#0f0f0f"/></linearGradient><linearGradient x1="236.90881" y1="219.6819" x2="236.90881" y2="240.45998" gradientUnits="userSpaceOnUse" id="color-52"><stop offset="0" stop-color="#898989"/><stop offset="1" stop-color="#2e2e2e"/></linearGradient><linearGradient x1="236.96966" y1="84.81162" x2="236.96966" y2="92.41126" gradientUnits="userSpaceOnUse" id="color-53"><stop offset="0" stop-color="#afafaf"/><stop offset="1" stop-color="#7a7a7a"/></linearGradient><linearGradient x1="169.19135" y1="78.40542" x2="169.19135" y2="162.29689" gradientUnits="userSpaceOnUse" id="color-54"><stop offset="0" stop-color="#afafaf"/><stop offset="1" stop-color="#7a7a7a"/></linearGradient><linearGradient x1="304.52607" y1="78.40542" x2="304.52607" y2="162.29689" gradientUnits="userSpaceOnUse" id="color-55"><stop offset="0" stop-color="#afafaf"/><stop offset="1" stop-color="#7a7a7a"/></linearGradient><linearGradient x1="237.2522" y1="131.63765" x2="237.2522" y2="196.98692" gradientUnits="userSpaceOnUse" id="color-56"><stop offset="0" stop-color="#424242"/><stop offset="1" stop-color="#000000"/></linearGradient><linearGradient x1="236.4638" y1="112.80771" x2="236.4638" y2="122.68927" gradientUnits="userSpaceOnUse" id="color-57"><stop offset="0" stop-color="#b8b8b8"/><stop offset="1" stop-color="#313131"/></linearGradient><radialGradient cx="196.4764" cy="117.89592" r="32.93297" gradientUnits="userSpaceOnUse" id="color-58"><stop offset="0" stop-color="#ffffff"/><stop offset="1" stop-color="#cccccc"/></radialGradient><radialGradient cx="276.47916" cy="117.89592" r="32.93297" gradientUnits="userSpaceOnUse" id="color-59"><stop offset="0" stop-color="#ffffff"/><stop offset="1" stop-color="#cccccc"/></radialGradient><linearGradient x1="236.61905" y1="80.9253" x2="236.17589" y2="166.50341" gradientUnits="userSpaceOnUse" id="color-60"><stop offset="0" stop-color="#9d9d9d"/><stop offset="1" stop-color="#6e6e6e"/></linearGradient><linearGradient x1="254.28991" y1="163.56322" x2="254.28991" y2="216.42037" gradientUnits="userSpaceOnUse" id="color-61"><stop offset="0" stop-color="#afafaf"/><stop offset="1" stop-color="#595959"/></linearGradient><linearGradient x1="219.81783" y1="163.56322" x2="219.81783" y2="216.42037" gradientUnits="userSpaceOnUse" id="color-62"><stop offset="0" stop-color="#afafaf"/><stop offset="1" stop-color="#595959"/></linearGradient><linearGradient x1="318.69874" y1="112.88632" x2="318.10325" y2="169.44759" gradientUnits="userSpaceOnUse" id="color-63"><stop offset="0" stop-color="#afafaf"/><stop offset="1" stop-color="#595959"/></linearGradient><linearGradient x1="143.0057" y1="55.26385" x2="146.9564" y2="51.34832" gradientUnits="userSpaceOnUse" id="color-64"><stop offset="0" stop-color="#d3d3d3"/><stop offset="1" stop-color="#868686"/></linearGradient><linearGradient x1="110.20153" y1="-22.46599" x2="110.20153" y2="58.15012" gradientUnits="userSpaceOnUse" id="color-65"><stop offset="0" stop-color="#cb80ce"/><stop offset="1" stop-color="#a946ad"/></linearGradient><radialGradient cx="111.51365" cy="19.94647" r="31.64988" gradientUnits="userSpaceOnUse" id="color-66"><stop offset="0" stop-color="#d3afd3"/><stop offset="1" stop-color="#947b95"/></radialGradient><radialGradient cx="169.19135" cy="77.69207" r="5.27887" gradientUnits="userSpaceOnUse" id="color-67"><stop offset="0" stop-color="#a9a9a9"/><stop offset="1" stop-color="#5d5d5d"/></radialGradient><linearGradient x1="330.71178" y1="55.26385" x2="326.76107" y2="51.34832" gradientUnits="userSpaceOnUse" id="color-68"><stop offset="0" stop-color="#d3d3d3"/><stop offset="1" stop-color="#868686"/></linearGradient><linearGradient x1="363.51592" y1="-22.46599" x2="363.51592" y2="58.15012" gradientUnits="userSpaceOnUse" id="color-69"><stop offset="0" stop-color="#cb80ce"/><stop offset="1" stop-color="#a946ad"/></linearGradient><radialGradient cx="363.27064" cy="16.58971" r="31.64988" gradientUnits="userSpaceOnUse" id="color-70"><stop offset="0" stop-color="#d3afd3"/><stop offset="1" stop-color="#947b95"/></radialGradient><radialGradient cx="304.52607" cy="77.69207" r="5.27887" gradientUnits="userSpaceOnUse" id="color-71"><stop offset="0" stop-color="#a9a9a9"/><stop offset="1" stop-color="#5d5d5d"/></radialGradient><linearGradient x1="236.40099" y1="30.90136" x2="236.40099" y2="203.25704" gradientUnits="userSpaceOnUse" id="color-72"><stop offset="0" stop-color="#cb80ce"/><stop offset="1" stop-color="#a946ad"/></linearGradient><linearGradient x1="109.24996" y1="135.39501" x2="109.24996" y2="192.75965" gradientUnits="userSpaceOnUse" id="color-73"><stop offset="0" stop-color="#d3afd3"/><stop offset="1" stop-color="#c0a0c1"/></linearGradient><linearGradient x1="108.79058" y1="158.71596" x2="108.79058" y2="201.41123" gradientUnits="userSpaceOnUse" id="color-74"><stop offset="0" stop-color="#d3afd3"/><stop offset="1" stop-color="#c0a0c1"/></linearGradient><linearGradient x1="105.1587" y1="183.35951" x2="105.1587" y2="212.09227" gradientUnits="userSpaceOnUse" id="color-75"><stop offset="0" stop-color="#d3afd3"/><stop offset="1" stop-color="#c0a0c1"/></linearGradient><linearGradient x1="108.77793" y1="192.47191" x2="108.77793" y2="225.5856" gradientUnits="userSpaceOnUse" id="color-76"><stop offset="0" stop-color="#d3afd3"/><stop offset="1" stop-color="#c0a0c1"/></linearGradient><linearGradient x1="110.64784" y1="188.57676" x2="110.64784" y2="238.42555" gradientUnits="userSpaceOnUse" id="color-77"><stop offset="0" stop-color="#d3afd3"/><stop offset="1" stop-color="#c0a0c1"/></linearGradient><linearGradient x1="359.79431" y1="135.39504" x2="359.79431" y2="192.75965" gradientUnits="userSpaceOnUse" id="color-78"><stop offset="0" stop-color="#d3afd3"/><stop offset="1" stop-color="#c0a0c1"/></linearGradient><linearGradient x1="360.25372" y1="158.716" x2="360.25372" y2="201.41126" gradientUnits="userSpaceOnUse" id="color-79"><stop offset="0" stop-color="#d3afd3"/><stop offset="1" stop-color="#c0a0c1"/></linearGradient><linearGradient x1="363.8856" y1="183.35951" x2="363.8856" y2="212.09227" gradientUnits="userSpaceOnUse" id="color-80"><stop offset="0" stop-color="#d3afd3"/><stop offset="1" stop-color="#c0a0c1"/></linearGradient><linearGradient x1="360.2663" y1="192.47191" x2="360.2663" y2="225.5856" gradientUnits="userSpaceOnUse" id="color-81"><stop offset="0" stop-color="#d3afd3"/><stop offset="1" stop-color="#c0a0c1"/></linearGradient><linearGradient x1="358.39662" y1="188.57679" x2="358.39662" y2="238.42555" gradientUnits="userSpaceOnUse" id="color-82"><stop offset="0" stop-color="#d3afd3"/><stop offset="1" stop-color="#c0a0c1"/></linearGradient><radialGradient cx="212.52866" cy="173.33176" r="53.06225" gradientUnits="userSpaceOnUse" id="color-83"><stop offset="0" stop-color="#d3afd3"/><stop offset="1" stop-color="#c0a0c1"/></radialGradient><radialGradient cx="298.12597" cy="169.41553" r="53.06225" gradientUnits="userSpaceOnUse" id="color-84"><stop offset="0" stop-color="#d3afd3"/><stop offset="1" stop-color="#c0a0c1"/></radialGradient><radialGradient cx="239.61808" cy="150.10356" r="15.34211" gradientUnits="userSpaceOnUse" id="color-85"><stop offset="0" stop-color="#858585"/><stop offset="1" stop-color="#000000"/></radialGradient><radialGradient cx="140.09082" cy="69.27788" r="34.4656" gradientUnits="userSpaceOnUse" id="color-86"><stop offset="0" stop-color="#2e2540"/><stop offset="1" stop-color="#694da0"/></radialGradient><radialGradient cx="180.24224" cy="43.26538" r="34.4656" gradientUnits="userSpaceOnUse" id="color-87"><stop offset="0" stop-color="#2e2540"/><stop offset="1" stop-color="#694da0"/></radialGradient><radialGradient cx="160.47894" cy="56.78134" r="20.33227" gradientUnits="userSpaceOnUse" id="color-88"><stop offset="0" stop-color="#8461ca"/><stop offset="1" stop-color="#4e3f6d"/></radialGradient><radialGradient cx="195.1287" cy="111.75046" r="3" gradientUnits="userSpaceOnUse" id="color-89"><stop offset="0" stop-color="#373737"/><stop offset="1" stop-color="#373737" stop-opacity="0"/></radialGradient><radialGradient cx="277.1287" cy="111.75046" r="3" gradientUnits="userSpaceOnUse" id="color-90"><stop offset="0" stop-color="#373737"/><stop offset="1" stop-color="#373737" stop-opacity="0"/></radialGradient><radialGradient cx="240" cy="180" r="247" gradientUnits="userSpaceOnUse" id="color-91"><stop offset="0" stop-color="#111111" stop-opacity="0"/><stop offset="1" stop-color="#111111"/></radialGradient><linearGradient x1="240" y1="-8.5" x2="240" y2="368.5" gradientUnits="userSpaceOnUse" id="color-92"><stop offset="0" stop-color="#111111" stop-opacity="0"/><stop offset="1" stop-color="#111111"/></linearGradient><linearGradient x1="240" y1="368.5" x2="240" y2="-8.5" gradientUnits="userSpaceOnUse" id="color-93"><stop offset="0" stop-color="#111111" stop-opacity="0"/><stop offset="1" stop-color="#111111"/></linearGradient></defs><g transform="translate(8,22.46599)"><g data-paper-data="{&quot;isPaintingLayer&quot;:true}" fill-rule="nonzero" stroke-linecap="butt" stroke-linejoin="miter" stroke-miterlimit="10" stroke-dasharray="" stroke-dashoffset="0" style="mix-blend-mode: normal"><path d="M-7,368.5v-377h494v377z" fill="#111111" stroke="#000000" stroke-width="2"/><g><path d="M332.26438,520.30042c-8.34661,42.53025 -178.25448,45.2833 -186.45277,-3.56481c-0.73577,1.35049 10.97647,-51.01439 8.56682,-96.49795c-2.40965,-45.48359 -44.20826,-144.57598 78.84938,-146.49504c138.87067,-4.05446 90.2245,99.31978 89.21901,150.00155c-1.04459,52.65346 10.96003,97.02113 9.81755,96.55625z" data-paper-data="{&quot;index&quot;:null}" fill="#484848" stroke="#000000" stroke-width="0"/><g stroke="none"><path d="M143.85051,349.06303c6.29225,11.6491 -15.88109,85.17703 -25.76657,95.41175c-4.54521,4.70575 -51.75434,-6.01594 -53.78578,-12.01447c-4.45012,-13.14078 2.50046,-86.36742 13.70973,-96.59824c11.20928,-10.23082 59.55039,1.55186 65.84261,13.20095z" fill="#484848" stroke-width="0"/><g><g><path d="M109.1715,330.06118c0.98274,-0.17248 1.72624,-0.00384 2.28608,0.31951c0.06931,-0.98895 0.52912,-2.84329 2.97173,-3.12542c3.35665,-0.38772 3.74434,2.96893 3.74434,2.96893l0.39211,3.57035c1.88358,5.6149 1.91491,13.69236 -2.8916,18.22764c-0.82267,0.77626 -1.77062,1.43475 -2.79135,2.03009c-0.03665,0.90189 -0.07372,1.80758 -0.11188,2.71866c-1.46019,7.04823 -1.99234,15.41446 -6.06312,21.50165c-1.30379,1.94958 -2.76664,3.90821 -4.26373,5.89762c4.29428,5.43146 10.25165,9.91934 10.5464,16.92655c0.46072,10.95385 -11.48991,14.93994 -17.1168,21.89901c0.56813,0.94358 1.12866,1.90914 1.64826,2.92521c0,0 1.52423,3.01564 -1.49144,4.53987c-0.83797,0.42352 -1.56078,0.49653 -2.16772,0.38109c0.00867,2.2682 0.1922,4.52918 0.12415,6.16406c0,0 -0.14053,3.37604 -3.51657,3.23549c-3.37604,-0.14053 -3.23549,-3.51656 -3.23549,-3.51656c0.17578,-4.22254 -0.3666,-9.36954 0.97742,-13.6313c-1.88079,-3.28729 -3.55488,-6.57987 -4.04322,-10.82526c-1.23235,-10.71318 3.93267,-19.74949 9.87288,-28.11163c-1.05722,-2.21999 -1.84243,-4.64308 -2.42625,-7.53363c0.21663,-5.58503 0.61429,-15.64685 4.47344,-20.16738c2.81954,-3.30271 6.83704,-5.21358 10.24473,-7.25735c0.16932,-4.21069 0.35331,-8.39833 0.63292,-12.70665l-0.53921,-2.51828c0,0 -0.58417,-3.3281 2.74392,-3.91223zM90.88784,411.54226c0.23623,2.03376 0.82166,3.81435 1.59059,5.48334c5.24272,-4.50879 13.96096,-8.98358 13.75623,-15.75944c-0.10744,-3.55584 -3.80806,-5.87355 -5.91448,-8.20451c-0.85865,-0.9502 -1.64624,-1.86803 -2.36865,-2.77563c-4.42836,6.37674 -7.99348,13.25132 -7.06371,21.25625zM101.19245,374.36737c3.10448,-4.37936 3.58929,-11.28068 4.55353,-16.77366c-1.6179,0.85892 -3.14535,1.83998 -4.41066,3.12194c-2.63016,2.6648 -2.81981,11.82256 -2.9824,15.37902c0.10969,0.55102 0.25026,1.08647 0.41805,1.60809c0.82557,-1.11881 1.63769,-2.22971 2.4215,-3.33539z" fill="#000000" stroke-width="0.5"/><path d="M87.38126,351.10067l-1.00548,-3.34708l22.22085,-6.67551l1.00552,3.34709z" fill="url(#color-1)" stroke-width="0"/><path d="M112.61642,345.17474l2.309,-2.62343l17.41686,15.32906l-2.309,2.62343z" data-paper-data="{&quot;index&quot;:null}" fill="url(#color-2)" stroke-width="0"/><path d="M92.7711,420.7048l-2.309,2.62343l-17.41686,-15.32906l2.309,-2.62343z" data-paper-data="{&quot;index&quot;:null}" fill="url(#color-3)" stroke-width="0"/><path d="M118.04445,414.60422l1.00552,3.34709l-22.22085,6.67549l-1.00551,-3.34706z" data-paper-data="{&quot;index&quot;:null}" fill="url(#color-4)" stroke-width="0"/><path d="M112.88478,424.4219l16.6781,-76.39418l8.93589,1.95089l-16.67809,76.39418z" fill="url(#color-5)" stroke-width="0"/><path d="M67.7249,415.1547l16.67809,-76.39418l8.93589,1.95089l-16.6781,76.39417z" fill="url(#color-6)" stroke-width="0"/><path d="M84.74686,434.90121l23.44617,-107.39529l12.56212,2.74252l-23.44617,107.39529z" fill="url(#color-7)" stroke-width="0"/></g><path d="M92.92884,430.30005c7.65865,1.6064 12.65797,8.67373 11.16631,15.78532c-1.49165,7.11159 -8.90941,11.57441 -16.56806,9.96801c-7.65865,-1.6064 -12.65797,-8.6737 -11.16632,-15.78529c1.49165,-7.1116 8.90942,-11.57445 16.56807,-9.96805z" fill="url(#color-8)" stroke-width="0"/></g><path d="M143.85051,349.06303c6.29225,11.6491 -15.88109,85.17703 -25.76657,95.41175c-4.54521,4.70575 -51.75434,-6.01594 -53.78578,-12.01447c-4.45012,-13.14078 2.50046,-86.36742 13.70973,-96.59824c11.20928,-10.23082 59.55039,1.55186 65.84261,13.20095z" fill="url(#color-9)" stroke-width="0"/></g><g data-paper-data="{&quot;index&quot;:null}" stroke="none"><path d="M398.88532,335.86208c11.20928,10.23082 18.15986,83.45746 13.70973,96.59824c-2.03144,5.99853 -49.24057,16.72021 -53.78578,12.01447c-9.88547,-10.23473 -32.05882,-83.76265 -25.76657,-95.41175c6.29222,-11.6491 54.63334,-23.43177 65.84261,-13.20095z" fill="#484848" stroke-width="0"/><g><g><path d="M367.72168,330.06123c3.32809,0.58413 2.74392,3.91223 2.74392,3.91223l-0.53921,2.51828c0.27962,4.30831 0.46361,8.49596 0.63292,12.70665c3.40769,2.04377 7.42519,3.95464 10.24473,7.25735c3.85915,4.52053 4.25681,14.58235 4.47344,20.16738c-0.58381,2.89055 -1.36903,5.31364 -2.42625,7.53363c5.94021,8.36214 11.10523,17.39845 9.87288,28.11163c-0.48835,4.24539 -2.16243,7.53797 -4.04322,10.82526c1.34403,4.26176 0.80165,9.40876 0.97742,13.6313c0,0 0.14055,3.37604 -3.23549,3.51656c-3.37605,0.14056 -3.51657,-3.23549 -3.51657,-3.23549c-0.06805,-1.63488 0.11548,-3.89587 0.12415,-6.16406c-0.60694,0.11544 -1.32975,0.04243 -2.16772,-0.38109c-3.01567,-1.52423 -1.49144,-4.53987 -1.49144,-4.53987c0.5196,-1.01606 1.08013,-1.98163 1.64826,-2.92521c-5.62688,-6.95907 -17.57751,-10.94516 -17.1168,-21.89901c0.29475,-7.00721 6.25212,-11.4951 10.5464,-16.92655c-1.49709,-1.98941 -2.95993,-3.94804 -4.26373,-5.89762c-4.07078,-6.08719 -4.60294,-14.45343 -6.06312,-21.50165c-0.03816,-0.91108 -0.07522,-1.81677 -0.11188,-2.71866c-1.02073,-0.59534 -1.96868,-1.25383 -2.79135,-2.03009c-4.80651,-4.53529 -4.77518,-12.61274 -2.8916,-18.22764l0.39211,-3.57035c0,0 0.3877,-3.35664 3.74434,-2.96893c2.44262,0.28213 2.90242,2.13646 2.97173,3.12542c0.55983,-0.32335 1.30334,-0.49199 2.28608,-0.31951zM386.00538,411.54227c0.92978,-8.00493 -2.63535,-14.87951 -7.06371,-21.25625c-0.72241,0.9076 -1.51,1.82542 -2.36865,2.77563c-2.10641,2.33096 -5.80704,4.64867 -5.91448,8.20451c-0.20474,6.77586 8.51351,11.25065 13.75623,15.75944c0.76893,-1.66899 1.35436,-3.44958 1.59059,-5.48334zM375.70075,374.36735c0.78381,1.10569 1.59593,2.21658 2.4215,3.33539c0.1678,-0.52161 0.30836,-1.05706 0.41805,-1.60809c-0.16259,-3.55646 -0.35224,-12.71422 -2.9824,-15.37902c-1.26531,-1.28196 -2.79277,-2.26302 -4.41066,-3.12194c0.96424,5.49298 1.44904,12.3943 4.55353,16.77366z" fill="#000000" stroke-width="0.5"/><path d="M367.29107,344.42517l1.00552,-3.34709l22.22085,6.67551l-1.00548,3.34708z" fill="url(#color-10)" stroke-width="0"/><path d="M346.85992,360.50381l-2.309,-2.62343l17.41686,-15.32906l2.309,2.62343z" data-paper-data="{&quot;index&quot;:null}" fill="url(#color-11)" stroke-width="0"/><path d="M401.53897,405.37574l2.309,2.62343l-17.41686,15.32906l-2.309,-2.62343z" data-paper-data="{&quot;index&quot;:null}" fill="url(#color-12)" stroke-width="0"/><path d="M381.06961,421.27973l-1.00551,3.34706l-22.22085,-6.67549l1.00552,-3.34709z" data-paper-data="{&quot;index&quot;:null}" fill="url(#color-13)" stroke-width="0"/><path d="M355.07253,426.37279l-16.67809,-76.39418l8.93589,-1.95089l16.6781,76.39418z" fill="url(#color-14)" stroke-width="0"/><path d="M400.23243,417.10557l-16.6781,-76.39417l8.93589,-1.95089l16.67809,76.39418z" fill="url(#color-15)" stroke-width="0"/><path d="M379.58423,437.64373l-23.44617,-107.39529l12.56212,-2.74252l23.44617,107.39529z" fill="url(#color-16)" stroke-width="0"/></g><path d="M383.96437,430.30004c7.65865,-1.6064 15.07642,2.85645 16.56807,9.96805c1.49165,7.1116 -3.50766,14.17889 -11.16632,15.78529c-7.65865,1.6064 -15.07641,-2.85642 -16.56806,-9.96801c-1.49165,-7.1116 3.50766,-14.17892 11.16631,-15.78532z" fill="url(#color-17)" stroke-width="0"/></g><path d="M398.88532,335.86208c11.20928,10.23082 18.15986,83.45746 13.70973,96.59824c-2.03144,5.99853 -49.24057,16.72021 -53.78578,12.01447c-9.88547,-10.23473 -32.05882,-83.76265 -25.76657,-95.41175c6.29222,-11.6491 54.63334,-23.43177 65.84261,-13.20095z" fill="url(#color-18)" stroke-width="0"/></g><path d="M342.07703,203.25704l-211.65515,-1.28295c0,0 -23.83693,-37.97385 -11.44155,-77.96561c14.67891,-47.35922 2.33329,-93.2425 118.6857,-93.10682c113.82282,0.19029 96.72242,43.53452 114.03742,89.97587c17.04365,45.71346 -9.62642,82.37952 -9.62642,82.37952z" fill="#484848" stroke="none" stroke-width="0"/><g stroke="none"><path d="M249.60122,512.66896c-0.06062,0.91727 -0.57988,4.84525 -5.02712,4.84525c-0.02253,0 -0.04498,-0.0001 -0.0673,-0.0003c0.03289,1.52498 -0.43913,4.09655 -3.79774,4.93621c-4.88483,1.22123 -6.10601,-3.6636 -6.10601,-3.6636l-1.16758,-5.29022c0,-5.8607 1.41132,-14.42947 -2.22013,-19.60768c-5.63204,-8.03091 -18.9139,-15.1509 -17.06305,-26.83689c1.04898,-6.62333 4.65744,-10.26598 8.96926,-13.33503c-0.78407,-2.46762 -1.38913,-5.08684 -1.87589,-7.96082c-0.00202,-0.87484 -0.09932,-14.06456 0.16556,-14.98361c2.45906,-8.53201 11.54843,-14.37016 18.25393,-19.06596c3.97229,-2.78178 8.22248,-5.32587 12.35858,-8.01682c-8.83365,-11.02517 -25.11954,-19.33661 -33.94503,-26.6049c-6.66243,-5.48689 -7.68883,-13.81686 -10.78446,-21.56459c-1.48597,-4.66456 -4.6044,-11.66692 -7.83666,-15.31982c-3.78854,-4.28158 -20.20669,-3.55172 -25.41313,-4.95988c-18.75344,-5.0721 -36.55595,-4.74538 -55.63899,-0.92879c0,0 -4.93735,0.98746 -5.92481,-3.94986c-0.98746,-4.93736 3.94986,-5.92485 3.94986,-5.92485c13.88282,-2.77657 27.86047,-4.41823 42.09273,-3.13236c8.29986,0.74986 15.72441,3.81002 23.80923,5.13762c6.66418,1.09434 18.76291,1.49517 23.9438,6.3476c4.32407,4.04996 8.56139,13.72586 10.47383,19.26663c1.77764,4.43888 2.74818,10.57426 4.79765,14.61476c2.59628,5.11849 13.27967,8.32896 17.76287,11.46609c7.32972,5.12903 14.96884,12.06745 20.46311,20.06342c5.25252,-4.17332 9.81392,-9.09054 12.67005,-15.74653c7.44338,-17.34626 -13.2489,-25.03133 -15.55559,-39.10689c-0.96554,-5.89182 2.36541,-10.74982 4.76502,-15.60282c8.27817,-10.78141 31.0452,-25.68136 44.69315,-16.81515c5.76493,3.74511 8.15914,11.55021 13.84556,15.02295c10.92632,6.67273 30.46484,1.48298 42.38308,1.4387c0,0 5.03514,0 5.03514,5.03514c0,5.03514 -5.03514,5.03514 -5.03514,5.03514c-14.06892,-0.06149 -34.08192,5.12144 -47.13481,-2.63029c-6.27096,-3.72415 -9.07097,-11.04303 -14.63742,-15.49457c-3.24072,-2.59162 -6.17366,-0.57901 -9.98371,0.60734c-7.42777,2.31277 -16.05182,6.77089 -20.59959,13.09499c-5.33261,10.4984 -1.85545,9.93419 4.80456,18.71054c6.98494,9.20457 11.39093,23.13123 6.78438,34.40813c-3.69502,9.04546 -9.99734,15.38094 -17.15999,20.79359c3.68471,8.62533 4.37892,18.04171 -0.35555,27.50237c-5.09553,10.18206 -17.88971,13.05374 -25.57495,20.79469c-0.98189,0.72868 -2.04581,1.38781 -3.13816,2.02587c1.01922,1.71074 2.23301,3.40121 3.68105,5.15722c3.9695,4.81373 10.6286,8.4484 12.99421,14.49802c3.40755,8.71402 1.43452,26.98761 -2.65375,35.73992zM242.59069,495.18585c0.0097,-4.22073 2.08626,-10.27423 0.406,-14.29516c-1.98381,-4.74743 -8.23793,-8.03622 -11.41977,-11.95047c-1.67942,-2.06602 -3.10625,-4.07091 -4.32448,-6.08936c-1.44797,1.46321 -2.57235,3.23242 -3.119,5.53761c-1.50282,6.33746 12.47513,15.27796 15.48893,19.95661c1.45136,2.25306 2.37964,4.68305 2.96865,7.20837c-0.00051,-0.12128 -0.00064,-0.24381 -0.00034,-0.3676zM245.41406,419.97442c-4.31155,3.01672 -12.88488,7.72696 -14.29801,13.48602c-0.91079,3.71194 0.17532,7.64288 0.16555,11.46492c0.16519,1.01398 0.35326,1.98418 0.56813,2.919c0.09023,-0.06761 0.1803,-0.13562 0.27012,-0.20403c6.35673,-6.3141 19.23659,-9.81577 23.25298,-17.86078c3.22081,-6.45139 3.38277,-12.22924 1.58788,-17.45706c-3.86014,2.5503 -7.78688,5.02128 -11.54662,7.65193z" fill="#000000" stroke-width="0.5"/><g stroke-width="0"><g><path d="M228.8738,328.87575v-166.60989h14.89468v166.60989z" fill="url(#color-19)"/><g><path d="M149.54786,364.34318v-17.32793h181.10485v17.32793z" fill="url(#color-20)"/><path d="M157.77991,370.51951v-29.60185h10.70162v29.60185z" fill="url(#color-21)"/><path d="M185.64249,371.64883v-29.60185h10.70162v29.60186z" fill="url(#color-22)"/><path d="M282.92636,370.83602v-29.60185h10.70162v29.60186z" fill="url(#color-23)"/><path d="M310.78891,371.96534v-29.60185h10.70162v29.60186z" fill="url(#color-24)"/></g><g><path d="M157.64439,409.88625v-17.32793h164.91177v17.32793z" fill="url(#color-25)"/><path d="M165.1404,416.06255v-29.60185h9.74478v29.60186z" fill="url(#color-26)"/><path d="M190.51171,417.1919v-29.60185h9.74474v29.60186z" fill="url(#color-27)"/><path d="M279.09717,416.37906v-29.60185h9.74474v29.60186z" fill="url(#color-28)"/><path d="M304.46846,417.50841v-29.60185h9.74478v29.60186z" fill="url(#color-29)"/></g><g><path d="M167.76506,455.42932v-17.32793h144.6704v17.32793z" fill="url(#color-30)"/><path d="M174.34102,461.60563v-29.60185h8.5487v29.60186z" fill="url(#color-31)"/><path d="M196.59822,462.73498v-29.60185h8.54869v29.60186z" fill="url(#color-32)"/><path d="M274.31066,461.92214v-29.60185h8.5487v29.60186z" fill="url(#color-33)"/><path d="M296.56793,463.05149v-29.60185h8.5487v29.60186z" fill="url(#color-34)"/></g><path d="M223.16841,509.4262l-0.14585,-41.46999l-4.91453,-139.76463h39.53649l-5.00215,139.86779l-0.0582,41.36683z" fill="url(#color-35)"/><path d="M119.32765,331.86696v-9.10863h238.84799v9.10863z" fill="url(#color-36)"/><path d="M373.35663,326.80658c0,7.82531 -5.89055,14.16895 -13.15689,14.16895c-7.26635,0 -13.15685,-6.34364 -13.15685,-14.16895c0,-7.82531 5.8905,-14.16895 13.15685,-14.16895c7.26635,0 13.15689,6.34364 13.15689,14.16895z" fill="url(#color-37)"/><path d="M202.96676,339.06627v-22.26552h69.27879v22.26552z" fill="url(#color-38)"/><path d="M130.46041,326.80658c0,7.82531 -5.89054,14.16895 -13.15689,14.16895c-7.26635,0 -13.15689,-6.34364 -13.15689,-14.16895c0,-7.82531 5.89054,-14.16895 13.15689,-14.16895c7.26635,0 13.15689,6.34364 13.15689,14.16895z" fill="url(#color-39)"/></g><path d="M217.38794,569.94106v-65.98383h41.04612v65.98383z" fill="url(#color-40)"/><path d="M214.27746,528.72743v-11.55075h47.26704v11.55075z" fill="url(#color-41)"/><path d="M214.27746,545.05736v-11.55075h47.26704v11.55075z" fill="url(#color-42)"/></g></g><g stroke-width="0"><path d="M129.73209,291.4313c18.2591,6.75333 27.66806,26.80899 21.01553,44.79555c-3.25848,8.80998 -17.44525,-3.10748 -33.69854,-8.91481c-16.92959,-6.04898 -35.81753,-6.36458 -32.42348,-15.54116c6.65252,-17.98656 26.8474,-27.09291 45.10649,-20.33958z" fill="url(#color-43)" stroke="none"/><path d="M393.59829,311.77085c3.39405,9.17658 -15.4939,9.49218 -32.42348,15.54116c-16.25329,5.80733 -30.44007,17.7248 -33.69854,8.91482c-6.65253,-17.98656 2.75644,-38.04222 21.01553,-44.79555c18.2591,-6.75333 38.45397,2.35302 45.1065,20.33958z" data-paper-data="{&quot;index&quot;:null}" fill="url(#color-44)" stroke="none"/><path d="M332.26438,520.30042c-8.34661,42.53025 -178.25448,45.2833 -186.45277,-3.56481c-0.73577,1.35049 10.97647,-47.65763 8.56682,-93.14119c-2.40965,-45.48359 -44.20826,-147.93274 78.84938,-149.8518c138.87067,-4.05446 90.2245,102.67654 89.21901,153.35831c-1.04459,52.65346 10.96003,93.66437 9.81755,93.19949z" data-paper-data="{&quot;index&quot;:null}" fill="url(#color-45)" stroke="#000000"/><path d="M317.85549,508.64478c-7.05376,35.94254 -150.64369,38.26911 -157.57208,-3.01266c-2.3397,-1.5859 10.50474,-54.06531 8.46833,-92.5037c-2.03638,-38.43839 -36.69788,-112.17466 67.29873,-113.79644c98.44819,-1.53525 78.32868,56.76818 73.6981,114.86865c-3.77767,47.39902 9.49805,90.39187 8.10691,94.44415z" data-paper-data="{&quot;index&quot;:null}" fill="url(#color-46)" stroke="#000000"/></g><g><path d="M237.68459,187.90692c59.24574,0 116.11472,27.25346 107.27392,58.42477c-16.30304,57.48203 -48.02819,58.42478 -107.27392,58.42478c-59.24573,0 -95.53573,-9.55273 -107.27388,-58.42478c-7.55849,-31.46992 48.02819,-58.42477 107.27389,-58.42477z" fill="url(#color-47)" stroke="#000000" stroke-width="0"/><g><g fill="url(#color-48)" stroke="#000000" stroke-width="0"><path d="M237.70651,254.37076c47.46891,0 93.03354,16.13605 85.9501,34.59178c-13.06232,34.03361 -38.48119,34.59178 -85.9501,34.59178c-47.46892,0 -76.54523,-5.65594 -85.9501,-34.59178c-6.05603,-18.6325 38.48116,-34.59178 85.9501,-34.59178z"/></g><g fill="none" stroke="none" stroke-width="1" font-family="sans-serif" font-weight="normal" font-size="12" text-anchor="start"/></g><path d="M237.25892,188.21147c45.88493,0 95.97127,25.33511 89.12419,54.31234c-2.45849,10.40451 -11.41201,18.81642 -14.84534,25.61718c-14.19966,28.12682 -11.15307,32.64526 -74.27888,32.7233c-66.20548,0.08184 -60.09127,-9.28677 -73.78135,-32.41384c-4.10015,-6.92651 -14.59029,-15.4558 -16.68554,-25.92664c-5.85396,-29.2548 44.58193,-54.31234 90.46689,-54.31234z" fill="url(#color-49)" stroke="#000000" stroke-width="0"/><path d="M222.75523,214.54925v-3.00151h28.42924v3.00151z" fill="url(#color-50)" stroke="none" stroke-width="0"/><g stroke="none" stroke-width="0"><path d="M225.99621,231.97335c0,-0.32349 0.04592,-20.1661 0.04592,-20.1661l21.70595,-0.00953c0,0 0.07332,19.76614 0.07332,20.17567c0,5.73771 -4.88573,7.00656 -10.91259,7.00656c-6.02686,0 -10.9126,-1.26886 -10.9126,-7.00656z" fill="url(#color-51)"/><path d="M225.99621,230.07091c0,-0.32349 0.04592,-20.16611 0.04592,-20.16611l21.70595,-0.00953c0,0 0.07332,19.76614 0.07332,20.17567c0,5.73771 -4.88573,7.00656 -10.91259,7.00656c-6.02686,0 -10.9126,-1.26886 -10.9126,-7.00656z" fill="url(#color-52)"/></g></g><g><path d="M165.84707,92.41126v-7.5996h142.24585v7.5996z" data-paper-data="{&quot;index&quot;:null}" fill="url(#color-53)" stroke="none" stroke-width="0"/><path d="M165.62452,162.29689v-83.89143h7.13362v83.89144z" fill="url(#color-54)" stroke="none" stroke-width="0"/><path d="M300.9593,162.29689v-83.89143h7.13362v83.89144z" data-paper-data="{&quot;index&quot;:null}" fill="url(#color-55)" stroke="none" stroke-width="0"/><path d="M238.20713,152.08864l-0.20355,1.07104c0.85537,2.02211 1.42995,4.16487 1.86824,6.31625c0.13991,0.63782 0.37018,1.23441 0.66635,1.801c0.1377,0.20087 0.26001,0.4099 0.36236,0.62959c1.42206,2.26541 3.82057,4.08558 5.4391,6.26153c1.34384,1.80664 1.4045,6.40409 2.73197,8.5692c0.70112,1.14358 4.33257,2.27635 4.71171,2.62324c5.00856,4.58235 -0.7591,7.53331 2.04406,11.66353c2.46336,3.62957 15.80027,-6.02125 17.56965,-7.31747c6.55867,-10.07075 -2.05682,-11.79693 -1.0136,-22.29929c0.54114,-5.44796 8.37021,-12.34281 6.6108,-17.90704c-0.81167,-2.56691 -3.42802,-5.64593 -4.8718,-7.95458c0,0 -1.33432,-2.1349 0.80059,-3.46921c2.1349,-1.33431 3.46921,0.80058 3.46921,0.80058c1.59524,2.55382 4.70342,6.35133 5.44205,9.23512c1.98365,7.74479 -5.55315,12.9677 -6.4534,19.91035c-0.56189,4.33321 3.33027,7.6983 4.40839,11.78401c1.47261,5.58048 -1.82369,9.07573 -4.7344,13.3603c-5.11557,3.91076 -14.05411,10.83562 -21.24379,8.98712c-7.13838,-1.83534 -4.16151,-7.01606 -4.37376,-11.96658c-0.04938,-1.15137 -5.6358,-3.3433 -6.43931,-4.4906c-1.38073,-1.97149 -1.58677,-7.07111 -2.76872,-8.6205c-0.54087,-0.70901 -1.07591,-1.30356 -1.59792,-1.83702c-1.86099,2.99617 -5.87417,4.33441 -7.37242,8.76017c-1.67938,4.96086 3.90858,11.35417 -0.99612,15.79832c-2.36524,2.14316 -5.67746,1.43535 -8.42321,2.00818c-10.41253,2.17229 -15.47121,2.1738 -22.06469,-7.2509c-0.45883,-1.73629 -0.26706,-3.73265 -1.23783,-5.24356c-2.41831,-3.76383 -8.27206,-2.33949 -9.89381,-7.4802c-1.62521,-5.15159 3.74366,-12.04869 4.74394,-16.9261c0.71942,-3.50798 -1.42367,-4.50947 -2.31898,-7.42327c-1.28722,-4.18923 0.59029,-10.44685 1.68758,-14.4949c0,0 0.66242,-2.42885 3.09127,-1.76642c2.42885,0.66243 1.76643,3.09127 1.76643,3.09127c-0.75577,2.75278 -2.80313,8.81999 -1.75035,11.63345c1.29655,3.46495 3.25898,5.50891 2.49414,9.76643c-0.71794,3.99656 -5.6782,10.62075 -4.88231,14.70297c0.292,1.49776 4.87026,2.38985 5.80129,3.0471c3.90633,2.75758 4.09655,4.75495 5.06991,8.98232c5.45893,7.39554 8.42577,6.13924 16.44031,4.4381c1.97653,-0.41953 4.38953,0.45655 6.01611,-0.74218c1.76277,-1.2991 -1.04747,-11.52986 -0.30851,-13.76799c1.31189,-3.97333 6.86508,-5.95305 7.92249,-9.32575c0.91307,-2.91229 -2.09136,-4.71497 -3.60855,-6.84695c-0.96564,-2.32244 -1.32478,-4.90795 -1.35492,-7.42297l0.41896,-1.98579c0,0 0.6106,-2.44241 3.05301,-1.83182c0.55081,0.1377 0.94633,0.36858 1.2286,0.64356c2.05353,0.28861 2.05354,2.48645 2.05354,2.48645z" fill="url(#color-56)" stroke="none" stroke-width="0.5"/><path d="M158.64071,122.68927v-9.88159h155.64621v9.88159z" fill="url(#color-57)" stroke="none" stroke-width="0"/><g stroke="#000000" stroke-width="0"><path d="M228.58602,117.89592c0,18.18837 -14.37596,32.93297 -32.10962,32.93297c-17.73366,0 -32.10962,-14.74457 -32.10962,-32.93297c0,-18.18837 14.37596,-32.93297 32.10962,-32.93297c17.73366,0 32.10962,14.74457 32.10962,32.93297z" fill="url(#color-58)"/><g><path d="M196.4764,128.18569c-5.5408,0 -10.03248,-4.60685 -10.03248,-10.28971c0,-5.68286 4.49171,-10.28971 10.03248,-10.28971c5.5408,0 10.03249,4.60685 10.03249,10.28971c0,5.68286 -4.49171,10.28971 -10.03249,10.28971z" fill="#f500ff"/><path d="M196.4764,126.46549c-4.61451,0 -8.35528,-3.83668 -8.35528,-8.56951c0,-4.73279 3.74077,-8.5695 8.35528,-8.5695c4.61451,0 8.35528,3.83667 8.35528,8.5695c0,4.73279 -3.74077,8.56951 -8.35528,8.56951z" fill="#000000"/></g></g><g stroke="#000000" stroke-width="0"><path d="M308.58878,117.89592c0,18.18837 -14.37597,32.93297 -32.10962,32.93297c-17.73366,0 -32.10962,-14.74457 -32.10962,-32.93297c0,-18.18837 14.37596,-32.93297 32.10962,-32.93297c17.73366,0 32.10962,14.74457 32.10962,32.93297z" fill="url(#color-59)"/><g><path d="M276.47916,128.18569c-5.5408,0 -10.03248,-4.60685 -10.03248,-10.28971c0,-5.68286 4.49171,-10.28971 10.03248,-10.28971c5.5408,0 10.03248,4.60685 10.03248,10.28971c0,5.68286 -4.49171,10.28971 -10.03248,10.28971z" fill="#f500ff"/><path d="M276.47916,126.46549c-4.61451,0 -8.35528,-3.83668 -8.35528,-8.56951c0,-4.73279 3.74077,-8.5695 8.35528,-8.5695c4.61451,0 8.35528,3.83667 8.35528,8.5695c0,4.73279 -3.74077,8.56951 -8.35528,8.56951z" fill="#000000"/></g></g><path d="M230.19579,166.37538l0.44313,-85.5781l11.96024,0.25602l-0.44313,85.57811z" fill="url(#color-60)" stroke="none" stroke-width="0"/><path d="M250.84268,216.42037v-52.85715h6.89442v52.85715z" fill="url(#color-61)" stroke="none" stroke-width="0"/><path d="M216.37064,216.42037v-52.85715h6.89442v52.85715z" fill="url(#color-62)" stroke="none" stroke-width="0"/><path d="M163.09665,111.95939l-0.35209,46.09764l148.45878,0.35538l0.48012,-46.43903l9.70711,0.14773l-0.59546,57.40053l-167.6202,-0.73369l0.38206,-56.94582z" fill="url(#color-63)" stroke="none" stroke-width="0"/></g><g stroke-width="0"><g><path d="M167.05682,79.4682l-48.05248,-48.4216l3.90099,-3.9026l48.05245,48.42159z" fill="url(#color-64)" stroke="none"/><g stroke="#000000"><g fill="url(#color-65)"><path d="M141.94577,8.22386c0.79378,0.78783 20.19874,15.19968 -2.70131,38.00856c-22.58867,22.49871 -33.96114,6.92806 -37.9429,3.1711c-17.27637,-16.30093 -31.27305,-71.8695 -31.27305,-71.8695c0,0 55.05878,13.95717 71.91727,30.68988z"/></g><g fill="url(#color-66)"><path d="M135.38619,12.24996c0.60402,0.59955 15.37064,11.56648 -2.05561,28.92338c-17.1893,17.12085 -25.84346,5.27203 -28.87341,2.41315c-13.14682,-12.4045 -25.73376,-56.64391 -25.73376,-56.64391c0,0 43.83402,12.57426 56.66281,25.30735z"/></g></g></g><path d="M174.47022,77.69207c0,2.91545 -2.36343,5.27887 -5.27887,5.27887c-2.91545,0 -5.27887,-2.36343 -5.27887,-5.27887c0,-2.91545 2.36343,-5.27887 5.27887,-5.27887c2.91545,0 5.27887,2.36343 5.27887,5.27887z" fill="url(#color-67)" stroke="none"/></g><g data-paper-data="{&quot;index&quot;:null}" stroke-width="0"><g><path d="M302.7597,75.5656l48.05246,-48.42159l3.90099,3.9026l-48.05248,48.4216z" fill="url(#color-68)" stroke="none"/><g stroke="#000000"><g fill="url(#color-69)"><path d="M331.77171,8.22389c16.85848,-16.73271 71.91727,-30.68988 71.91727,-30.68988c0,0 -13.99668,55.56858 -31.27305,71.86951c-3.98176,3.75695 -15.35422,19.32761 -37.9429,-3.1711c-22.90005,-22.80888 -3.49509,-37.22072 -2.70132,-38.00855z"/></g><g fill="url(#color-70)"><path d="M338.33125,12.24992c12.8288,-12.73309 56.66281,-25.30735 56.66281,-25.30735c0,0 -12.58694,44.23941 -25.73375,56.64392c-3.02994,2.85889 -11.68411,14.70771 -28.8734,-2.41314c-17.42625,-17.3569 -2.65963,-28.32383 -2.05562,-28.92338z"/></g></g></g><path d="M304.52607,72.4132c2.91544,0 5.27887,2.36343 5.27887,5.27887c0,2.91545 -2.36343,5.27887 -5.27887,5.27887c-2.91544,0 -5.27888,-2.36343 -5.27888,-5.27887c0,-2.91545 2.36343,-5.27887 5.27888,-5.27887z" fill="url(#color-71)" stroke="none"/></g><g stroke-width="0"><g><path d="M342.07703,203.25704l-211.65515,-1.28295c0,0 -23.83693,-37.97385 -11.44155,-77.96561c14.67891,-47.35922 2.33329,-93.2425 118.6857,-93.10682c113.82282,0.19029 96.72242,43.53452 114.03742,89.97587c17.04365,45.71346 -9.62642,82.37952 -9.62642,82.37952zM195.94771,156.54796c18.53885,0 33.5676,-15.02875 33.5676,-33.56759c0,-43.15511 -15.02875,-55.38657 -33.5676,-55.38657c-18.53885,0 -36.36492,17.2666 -33.5676,55.38657c1.35677,18.48917 15.02875,33.56759 33.5676,33.56759zM276.50994,155.73888c18.53884,0 33.00813,-16.37142 33.00813,-34.9103c0,-18.53884 -1.60168,-52.92492 -33.00813,-52.92492c-30.84698,0 -32.44865,34.38605 -32.44865,52.92493c0,18.53884 13.90981,34.9103 32.44865,34.9103z" fill="url(#color-72)" stroke="none"/><path d="M244.01308,120.84185c0,-18.53888 1.64956,-52.98819 32.49654,-52.98819c31.40645,0 33.05666,34.44935 33.05666,52.98819c0,18.53888 -14.51781,34.94703 -33.05666,34.94703c-18.53884,0 -32.49654,-16.40819 -32.49654,-34.94703z" data-paper-data="{&quot;noHover&quot;:false,&quot;origItem&quot;:[&quot;Path&quot;,{&quot;applyMatrix&quot;:true,&quot;segments&quot;:[[[277.50994,154.73888],[-18.53884,0],[18.53884,0]],[[310.51807,119.82858],[0,18.53888],[0,-18.53884]],[[277.50994,66.90366],[31.40645,0],[-30.84698,0]],[[245.06129,119.82858],[0,-18.53888],[0,18.53884]]],&quot;closed&quot;:true,&quot;fillColor&quot;:[0,0,0,1],&quot;strokeWidth&quot;:0}]}" fill="#000000" stroke="none"/><path d="M162.33258,122.99588c-2.79732,-38.11997 15.07645,-55.45208 33.61529,-55.45208c18.53885,0 33.61501,12.29685 33.61501,55.45196c0,18.53884 -15.07616,33.6022 -33.61501,33.6022c-18.53885,0 -32.25852,-15.11291 -33.61529,-33.60208z" data-paper-data="{&quot;noHover&quot;:false,&quot;origItem&quot;:[&quot;Path&quot;,{&quot;applyMatrix&quot;:true,&quot;segments&quot;:[[[196.94771,155.54796],[-18.53885,0],[18.53885,0]],[[230.51531,121.98037],[0,18.53884],[0,-43.15511]],[[196.94771,66.5938],[18.53885,0],[-18.53885,0]],[[163.38011,121.98037],[-2.79732,-38.11997],[1.35677,18.48917]]],&quot;closed&quot;:true,&quot;fillColor&quot;:[0,0,0,1],&quot;strokeWidth&quot;:0}]}" fill="#000000" stroke="none"/><g><g stroke="#000000"><path d="M179.26471,185.9277c-2.13963,9.6531 -32.39367,8.4065 -68.29123,0.44971c-35.89752,-7.95676 -71.79018,-50.9824 -71.79018,-50.9824c0,0 41.60703,17.24482 77.50456,25.20158c0,0 64.71648,15.67798 62.57685,25.33108z" fill="url(#color-73)"/><path d="M181.48884,190.86657c-0.88401,9.84783 -31.04811,12.4914 -67.66966,9.20403c-36.62151,-3.28734 -77.73564,-41.35464 -77.73564,-41.35464c0,0 43.47501,11.76652 80.09655,15.05386c0,0 66.19275,7.24889 65.30875,17.09671z" fill="url(#color-74)"/><path d="M179.48045,192.19296c0.679,9.86408 -28.69153,17.2284 -65.37353,19.75352c-36.68197,2.52513 -83.28154,-28.58697 -83.28154,-28.58697c0,0 44.78609,4.76794 81.46805,2.24282c0,0 66.50799,-3.27341 67.18699,6.59063z" fill="url(#color-75)"/><path d="M183.01096,196.30076c1.93843,9.69553 -26.24512,20.76569 -62.30038,27.9743c-36.05522,7.20857 -86.25996,-17.67046 -86.25996,-17.67046c0,0 45.02771,-1.01505 81.08293,-8.22362c0,0 65.53899,-11.77574 67.47745,-2.08022z" fill="url(#color-76)"/><path d="M181.80971,190.49927c4.00482,9.04003 -21.08881,25.98618 -54.70646,40.87909c-33.61761,14.89291 -88.0376,1.55304 -88.0376,1.55304c0,0 43.72422,-10.80356 77.34186,-25.69646c0,0 61.39739,-25.77572 65.4022,-16.73567z" fill="url(#color-77)"/></g><g data-paper-data="{&quot;index&quot;:null}" stroke="#000000"><path d="M352.3565,160.59662c35.89752,-7.95676 77.50453,-25.20157 77.50453,-25.20157c0,0 -35.89266,43.02564 -71.79019,50.9824c-35.89756,7.95676 -66.1516,9.20339 -68.29123,-0.44971c-2.13963,-9.6531 62.57685,-25.33108 62.57685,-25.33108z" fill="url(#color-78)"/><path d="M352.86421,173.76985c36.62155,-3.28734 80.09655,-15.05385 80.09655,-15.05385c0,0 -41.11409,38.06727 -77.73564,41.35464c-36.62155,3.28737 -66.78566,0.64376 -67.66966,-9.20404c-0.88401,-9.84782 65.30875,-17.09672 65.30875,-17.09672z" fill="url(#color-79)"/><path d="M356.75084,185.60233c36.68196,2.52513 81.46805,-2.24282 81.46805,-2.24282c0,0 -46.59958,31.11213 -83.28154,28.58697c-36.682,-2.52513 -66.05254,-9.88944 -65.37353,-19.75352c0.67901,-9.86408 67.18699,-6.59063 67.18699,-6.59063z" fill="url(#color-80)"/><path d="M353.51069,198.38098c36.05523,7.20857 81.08293,8.22362 81.08293,8.22362c0,0 -50.20474,24.87903 -86.25996,17.67046c-36.05526,-7.20857 -64.23885,-18.27877 -62.30039,-27.9743c1.93843,-9.69553 67.47742,2.08022 67.47742,2.08022z" fill="url(#color-81)"/><path d="M352.63696,207.23494c33.61762,14.89291 77.34186,25.69646 77.34186,25.69646c0,0 -54.41999,13.33987 -88.0376,-1.55304c-33.61764,-14.89291 -58.71127,-31.83906 -54.70646,-40.87909c4.00482,-9.04003 65.4022,16.73567 65.4022,16.73567z" fill="url(#color-82)"/></g><path d="M148.15782,172.87514c11.87806,-23.939 27.63708,-32.99829 54.03491,-33.55286c13.82746,-0.67615 31.25754,2.49015 36.48909,25.91083c1.28,5.73039 -0.76917,12.67327 -0.76917,21.06907c0,29.10848 0.00497,51.96956 0.00497,51.96956c0,0 -21.83777,7.09468 -43.12453,7.09468c-26.40313,0 -70.89026,-23.60779 -46.63522,-72.49127z" data-paper-data="{&quot;index&quot;:null}" fill="url(#color-83)" stroke="#000000"/><path d="M280.95993,245.36642c-21.46406,0 -43.81934,-6.7117 -43.81934,-6.7117c0,0 0.69975,-23.4705 0.69975,-52.35253c0,-8.15813 -0.1145,-14.94446 1.09806,-20.57952c5.13567,-23.86616 20.69858,-27.08123 34.62185,-26.40038c26.39783,0.55457 42.15685,9.61386 54.03491,33.55286c24.25504,48.88349 -20.23213,72.49128 -46.63523,72.49128z" fill="url(#color-84)" stroke="#000000"/><path d="M237.42457,143.12093c6.3341,0 11.46891,3.63195 11.46891,8.11218c0,4.48023 -5.13477,22.57206 -11.46891,22.57206c-6.33414,0 -11.46894,-18.09182 -11.46894,-22.57206c0,-4.48023 5.1348,-8.11218 11.46894,-8.11218z" fill="url(#color-85)" stroke="none"/></g></g><g stroke="#000000"><path d="M161.10928,56.88849c5.72848,9.34602 -1.83683,19.38841 -10.69219,29.83347c-21.07031,24.85271 -22.33118,22.65793 -22.33118,22.65793c0,0 1.18544,-9.87921 -9.10564,-26.66908c-17.11266,-27.91928 -76.10879,-14.2991 10.69232,-29.83354c13.49686,-2.41549 25.70832,-5.3347 31.43676,4.01123z" fill="url(#color-86)"/><path d="M171.87501,27.00997c53.23462,-70.29813 14.32417,-23.90811 31.43683,4.0112c10.29109,16.78991 19.63234,20.21692 19.63234,20.21692c0,0 1.38362,2.11956 -30.32463,9.61658c-13.32633,3.15082 -25.70831,5.33479 -31.43679,-4.01123c-5.72844,-9.34589 2.41465,-18.90262 10.69222,-29.83347z" data-paper-data="{&quot;index&quot;:null}" fill="url(#color-87)"/><path d="M177.76998,45.0698c5.86819,9.57392 3.04881,21.97892 -6.29711,27.70737c-9.34599,5.72848 -21.67943,2.61109 -27.54762,-6.96279c-5.86819,-9.57391 -3.04881,-21.97895 6.29711,-27.7074c9.34599,-5.72848 21.67946,-2.61102 27.54762,6.96286z" fill="url(#color-88)"/></g></g><path d="M197.8787,111.75046c0,1.65685 -1.23122,3 -2.75,3c-1.51878,0 -2.75,-1.34315 -2.75,-3c0,-1.65685 1.23122,-3 2.75,-3c1.51878,0 2.75,1.34315 2.75,3z" fill="url(#color-89)" stroke="none" stroke-width="0"/><path d="M279.8787,111.75046c0,1.65685 -1.23122,3 -2.75,3c-1.51878,0 -2.75,-1.34315 -2.75,-3c0,-1.65685 1.23122,-3 2.75,-3c1.51878,0 2.75,1.34315 2.75,3z" fill="url(#color-90)" stroke="none" stroke-width="0"/></g><path d="M-7,368.5v-377h494v377z" fill="url(#color-91)" stroke="#000000" stroke-width="2"/><g stroke="#000000" stroke-width="2"><path d="M-7,368.5v-377h494v377z" fill="url(#color-92)"/><path d="M487,-8.5v377h-494v-377z" data-paper-data="{&quot;index&quot;:null}" fill="url(#color-93)"/></g></g></g></svg>