<svg version="1.1" xmlns="http://www.w3.org/2000/svg" xmlns:xlink="http://www.w3.org/1999/xlink" width="365.61429" height="466.02814" viewBox="0,0,365.61429,466.02814"><defs><linearGradient x1="246.83509" y1="310.99874" x2="235.86591" y2="323.15827" gradientUnits="userSpaceOnUse" id="color-1"><stop offset="0" stop-color="#0f0f0f"/><stop offset="1" stop-color="#737373"/></linearGradient><linearGradient x1="234.48429" y1="325.01684" x2="223.58197" y2="337.10226" gradientUnits="userSpaceOnUse" id="color-2"><stop offset="0" stop-color="#0f0f0f"/><stop offset="1" stop-color="#737373"/></linearGradient><linearGradient x1="285.7249" y1="345.40199" x2="274.82261" y2="357.4874" gradientUnits="userSpaceOnUse" id="color-3"><stop offset="0" stop-color="#0f0f0f"/><stop offset="1" stop-color="#737373"/></linearGradient><linearGradient x1="273.34167" y1="359.25784" x2="262.37244" y2="371.41741" gradientUnits="userSpaceOnUse" id="color-4"><stop offset="0" stop-color="#0f0f0f"/><stop offset="1" stop-color="#737373"/></linearGradient><linearGradient x1="245.15075" y1="351.17467" x2="240.28189" y2="356.57189" gradientUnits="userSpaceOnUse" id="color-5"><stop offset="0" stop-color="#595959"/><stop offset="1" stop-color="#afafaf"/></linearGradient><linearGradient x1="268.19667" y1="325.85044" x2="263.3278" y2="331.24766" gradientUnits="userSpaceOnUse" id="color-6"><stop offset="0" stop-color="#afafaf"/><stop offset="1" stop-color="#595959"/></linearGradient><linearGradient x1="257.88174" y1="337.26444" x2="251.03707" y2="344.85187" gradientUnits="userSpaceOnUse" id="color-7"><stop offset="0" stop-color="#afafaf"/><stop offset="1" stop-color="#595959"/></linearGradient><radialGradient cx="288.33143" cy="368.76131" r="10.52378" gradientUnits="userSpaceOnUse" id="color-8"><stop offset="0" stop-color="#656565"/><stop offset="1" stop-color="#404040"/></radialGradient><linearGradient x1="276.47247" y1="323.23568" x2="239.14113" y2="364.61816" gradientUnits="userSpaceOnUse" id="color-9"><stop offset="0" stop-color="#cb80ce"/><stop offset="1" stop-color="#a946ad"/></linearGradient><linearGradient x1="26.42708" y1="289.32563" x2="41.7649" y2="295.0639" gradientUnits="userSpaceOnUse" id="color-10"><stop offset="0" stop-color="#0f0f0f"/><stop offset="1" stop-color="#737373"/></linearGradient><linearGradient x1="43.84745" y1="296.07693" x2="59.0918" y2="301.78023" gradientUnits="userSpaceOnUse" id="color-11"><stop offset="0" stop-color="#0f0f0f"/><stop offset="1" stop-color="#737373"/></linearGradient><linearGradient x1="7.76129" y1="337.7776" x2="23.00562" y2="343.48089" gradientUnits="userSpaceOnUse" id="color-12"><stop offset="0" stop-color="#0f0f0f"/><stop offset="1" stop-color="#737373"/></linearGradient><linearGradient x1="25.13571" y1="344.36989" x2="40.47361" y2="350.1082" gradientUnits="userSpaceOnUse" id="color-13"><stop offset="0" stop-color="#0f0f0f"/><stop offset="1" stop-color="#737373"/></linearGradient><linearGradient x1="46.43218" y1="324.20741" x2="53.24014" y2="326.75445" gradientUnits="userSpaceOnUse" id="color-14"><stop offset="0" stop-color="#595959"/><stop offset="1" stop-color="#afafaf"/></linearGradient><linearGradient x1="14.31039" y1="312.34901" x2="21.11836" y2="314.89605" gradientUnits="userSpaceOnUse" id="color-15"><stop offset="0" stop-color="#afafaf"/><stop offset="1" stop-color="#595959"/></linearGradient><linearGradient x1="28.72407" y1="317.72703" x2="38.29473" y2="321.30765" gradientUnits="userSpaceOnUse" id="color-16"><stop offset="0" stop-color="#afafaf"/><stop offset="1" stop-color="#595959"/></linearGradient><radialGradient cx="16.2102" cy="359.71085" r="10.52378" gradientUnits="userSpaceOnUse" id="color-17"><stop offset="0" stop-color="#656565"/><stop offset="1" stop-color="#404040"/></radialGradient><linearGradient x1="5.76055" y1="313.84128" x2="57.95973" y2="333.37033" gradientUnits="userSpaceOnUse" id="color-18"><stop offset="0" stop-color="#cb80ce"/><stop offset="1" stop-color="#a946ad"/></linearGradient><linearGradient x1="142.89946" y1="232.36666" x2="153.72816" y2="234.63047" gradientUnits="userSpaceOnUse" id="color-19"><stop offset="0" stop-color="#afafaf"/><stop offset="1" stop-color="#595959"/></linearGradient><linearGradient x1="135.64302" y1="307.82488" x2="133.00939" y2="320.42257" gradientUnits="userSpaceOnUse" id="color-20"><stop offset="0" stop-color="#afafaf"/><stop offset="1" stop-color="#595959"/></linearGradient><linearGradient x1="80.61152" y1="291.69338" x2="76.1124" y2="313.21446" gradientUnits="userSpaceOnUse" id="color-21"><stop offset="0" stop-color="#7c7c7c"/><stop offset="1" stop-color="#111111"/></linearGradient><linearGradient x1="100.69647" y1="296.74917" x2="96.19736" y2="318.27025" gradientUnits="userSpaceOnUse" id="color-22"><stop offset="0" stop-color="#7c7c7c"/><stop offset="1" stop-color="#111111"/></linearGradient><linearGradient x1="171.54714" y1="310.9442" x2="167.04802" y2="332.46529" gradientUnits="userSpaceOnUse" id="color-23"><stop offset="0" stop-color="#7c7c7c"/><stop offset="1" stop-color="#111111"/></linearGradient><linearGradient x1="191.63209" y1="316" x2="187.13298" y2="337.52108" gradientUnits="userSpaceOnUse" id="color-24"><stop offset="0" stop-color="#7c7c7c"/><stop offset="1" stop-color="#111111"/></linearGradient><linearGradient x1="128.72103" y1="340.93547" x2="126.08741" y2="353.53321" gradientUnits="userSpaceOnUse" id="color-25"><stop offset="0" stop-color="#afafaf"/><stop offset="1" stop-color="#595959"/></linearGradient><linearGradient x1="78.69292" y1="325.84997" x2="74.1938" y2="347.37106" gradientUnits="userSpaceOnUse" id="color-26"><stop offset="0" stop-color="#7c7c7c"/><stop offset="1" stop-color="#111111"/></linearGradient><linearGradient x1="96.96666" y1="330.52716" x2="92.46755" y2="352.04824" gradientUnits="userSpaceOnUse" id="color-27"><stop offset="0" stop-color="#7c7c7c"/><stop offset="1" stop-color="#111111"/></linearGradient><linearGradient x1="161.49343" y1="343.40011" x2="156.99432" y2="364.92119" gradientUnits="userSpaceOnUse" id="color-28"><stop offset="0" stop-color="#7c7c7c"/><stop offset="1" stop-color="#111111"/></linearGradient><linearGradient x1="179.76722" y1="348.07729" x2="175.26811" y2="369.59838" gradientUnits="userSpaceOnUse" id="color-29"><stop offset="0" stop-color="#7c7c7c"/><stop offset="1" stop-color="#111111"/></linearGradient><linearGradient x1="121.79906" y1="374.04611" x2="119.16542" y2="386.64384" gradientUnits="userSpaceOnUse" id="color-30"><stop offset="0" stop-color="#afafaf"/><stop offset="1" stop-color="#595959"/></linearGradient><linearGradient x1="78.02516" y1="360.2681" x2="73.52605" y2="381.78919" gradientUnits="userSpaceOnUse" id="color-31"><stop offset="0" stop-color="#7c7c7c"/><stop offset="1" stop-color="#111111"/></linearGradient><linearGradient x1="94.03493" y1="364.47195" x2="89.53581" y2="385.99306" gradientUnits="userSpaceOnUse" id="color-32"><stop offset="0" stop-color="#7c7c7c"/><stop offset="1" stop-color="#111111"/></linearGradient><linearGradient x1="150.65682" y1="375.69236" x2="146.1577" y2="397.21345" gradientUnits="userSpaceOnUse" id="color-33"><stop offset="0" stop-color="#7c7c7c"/><stop offset="1" stop-color="#111111"/></linearGradient><linearGradient x1="166.66656" y1="379.89621" x2="162.16744" y2="401.41731" gradientUnits="userSpaceOnUse" id="color-34"><stop offset="0" stop-color="#7c7c7c"/><stop offset="1" stop-color="#111111"/></linearGradient><linearGradient x1="108.74254" y1="356.67758" x2="137.48628" y2="362.68664" gradientUnits="userSpaceOnUse" id="color-35"><stop offset="0" stop-color="#afafaf"/><stop offset="1" stop-color="#595959"/></linearGradient><linearGradient x1="138.3493" y1="289.98464" x2="136.9649" y2="296.60682" gradientUnits="userSpaceOnUse" id="color-36"><stop offset="0" stop-color="#afafaf"/><stop offset="1" stop-color="#595959"/></linearGradient><radialGradient cx="228.6978" cy="309.64053" r="10.52378" gradientUnits="userSpaceOnUse" id="color-37"><stop offset="0" stop-color="#656565"/><stop offset="1" stop-color="#404040"/></radialGradient><linearGradient x1="138.42197" y1="285.47925" x2="135.03789" y2="301.66673" gradientUnits="userSpaceOnUse" id="color-38"><stop offset="0" stop-color="#595959"/><stop offset="1" stop-color="#393939"/></linearGradient><radialGradient cx="52.10786" cy="272.7233" r="10.52378" gradientUnits="userSpaceOnUse" id="color-39"><stop offset="0" stop-color="#656565"/><stop offset="1" stop-color="#404040"/></radialGradient><linearGradient x1="90.26314" y1="442.45823" x2="120.10441" y2="448.69672" gradientUnits="userSpaceOnUse" id="color-40"><stop offset="0" stop-color="#595959"/><stop offset="1" stop-color="#393939"/></linearGradient><linearGradient x1="90.12915" y1="431.80934" x2="124.49314" y2="438.99335" gradientUnits="userSpaceOnUse" id="color-41"><stop offset="0" stop-color="#393939"/><stop offset="1" stop-color="#151515"/></linearGradient><linearGradient x1="87.6472" y1="443.6815" x2="122.01119" y2="450.8655" gradientUnits="userSpaceOnUse" id="color-42"><stop offset="0" stop-color="#393939"/><stop offset="1" stop-color="#151515"/></linearGradient><radialGradient cx="62.03818" cy="260.198" r="25.49689" gradientUnits="userSpaceOnUse" id="color-43"><stop offset="0" stop-color="#cb80ce"/><stop offset="1" stop-color="#a946ad"/></radialGradient><radialGradient cx="218.22538" cy="292.8499" r="25.49689" gradientUnits="userSpaceOnUse" id="color-44"><stop offset="0" stop-color="#cb80ce"/><stop offset="1" stop-color="#a946ad"/></radialGradient><linearGradient x1="146.32926" y1="253.58876" x2="102.65724" y2="462.48957" gradientUnits="userSpaceOnUse" id="color-45"><stop offset="0" stop-color="#cb80ce"/><stop offset="1" stop-color="#a946ad"/></linearGradient><radialGradient cx="144.73598" cy="323.24614" r="90.17984" gradientUnits="userSpaceOnUse" id="color-46"><stop offset="0" stop-color="#d3afd3"/><stop offset="1" stop-color="#c0a0c1"/></radialGradient><linearGradient x1="176.96619" y1="198.21849" x2="120.62908" y2="264.23616" gradientUnits="userSpaceOnUse" id="color-47"><stop offset="0" stop-color="#cb80ce"/><stop offset="1" stop-color="#a946ad"/></linearGradient><linearGradient x1="144.9217" y1="235.76922" x2="111.56597" y2="274.85656" gradientUnits="userSpaceOnUse" id="color-48"><stop offset="0" stop-color="#cb80ce"/><stop offset="1" stop-color="#a946ad"/></linearGradient><linearGradient x1="176.56478" y1="198.17332" x2="124.19316" y2="259.5441" gradientUnits="userSpaceOnUse" id="color-49"><stop offset="0" stop-color="#330000"/><stop offset="1" stop-color="#9c0000"/></linearGradient><linearGradient x1="165.10202" y1="211.17731" x2="163.65489" y2="212.8731" gradientUnits="userSpaceOnUse" id="color-50"><stop offset="0" stop-color="#898989"/><stop offset="1" stop-color="#2e2e2e"/></linearGradient><linearGradient x1="160.22856" y1="216.81837" x2="150.21074" y2="228.55757" gradientUnits="userSpaceOnUse" id="color-51"><stop offset="0" stop-color="#8a8a8a"/><stop offset="1" stop-color="#0f0f0f"/></linearGradient><linearGradient x1="161.14579" y1="215.74353" x2="151.12797" y2="227.48274" gradientUnits="userSpaceOnUse" id="color-52"><stop offset="0" stop-color="#898989"/><stop offset="1" stop-color="#2e2e2e"/></linearGradient><linearGradient x1="219.22676" y1="147.75199" x2="215.56272" y2="152.04564" gradientUnits="userSpaceOnUse" id="color-53"><stop offset="0" stop-color="#afafaf"/><stop offset="1" stop-color="#7a7a7a"/></linearGradient><linearGradient x1="184.02201" y1="111.45439" x2="143.57509" y2="158.85141" gradientUnits="userSpaceOnUse" id="color-54"><stop offset="0" stop-color="#afafaf"/><stop offset="1" stop-color="#7a7a7a"/></linearGradient><linearGradient x1="260.48342" y1="176.70383" x2="220.03652" y2="224.10085" gradientUnits="userSpaceOnUse" id="color-55"><stop offset="0" stop-color="#afafaf"/><stop offset="1" stop-color="#7a7a7a"/></linearGradient><linearGradient x1="196.80998" y1="174.34398" x2="165.3029" y2="211.26501" gradientUnits="userSpaceOnUse" id="color-56"><stop offset="0" stop-color="#424242"/><stop offset="1" stop-color="#000000"/></linearGradient><linearGradient x1="205.4431" y1="163.32533" x2="200.67887" y2="168.90821" gradientUnits="userSpaceOnUse" id="color-57"><stop offset="0" stop-color="#b8b8b8"/><stop offset="1" stop-color="#313131"/></linearGradient><radialGradient cx="180.39781" cy="146.92079" r="24.46047" gradientUnits="userSpaceOnUse" id="color-58"><stop offset="0" stop-color="#ffffff"/><stop offset="1" stop-color="#cccccc"/></radialGradient><radialGradient cx="225.59778" cy="185.49282" r="24.46047" gradientUnits="userSpaceOnUse" id="color-59"><stop offset="0" stop-color="#ffffff"/><stop offset="1" stop-color="#cccccc"/></radialGradient><linearGradient x1="220.9024" y1="145.38726" x2="179.39192" y2="193.52351" gradientUnits="userSpaceOnUse" id="color-60"><stop offset="0" stop-color="#9d9d9d"/><stop offset="1" stop-color="#6e6e6e"/></linearGradient><linearGradient x1="191.04354" y1="200.59574" x2="165.55932" y2="230.45899" gradientUnits="userSpaceOnUse" id="color-61"><stop offset="0" stop-color="#afafaf"/><stop offset="1" stop-color="#595959"/></linearGradient><linearGradient x1="171.56751" y1="183.97559" x2="146.08329" y2="213.83884" gradientUnits="userSpaceOnUse" id="color-62"><stop offset="0" stop-color="#afafaf"/><stop offset="1" stop-color="#595959"/></linearGradient><linearGradient x1="251.8663" y1="203.01798" x2="224.25977" y2="234.68687" gradientUnits="userSpaceOnUse" id="color-63"><stop offset="0" stop-color="#afafaf"/><stop offset="1" stop-color="#595959"/></linearGradient><linearGradient x1="180.38498" y1="85.75488" x2="184.50486" y2="85.44746" gradientUnits="userSpaceOnUse" id="color-64"><stop offset="0" stop-color="#d3d3d3"/><stop offset="1" stop-color="#868686"/></linearGradient><linearGradient x1="199.32745" y1="26.02308" x2="160.45971" y2="71.56958" gradientUnits="userSpaceOnUse" id="color-65"><stop offset="0" stop-color="#cb80ce"/><stop offset="1" stop-color="#a946ad"/></linearGradient><radialGradient cx="179.62029" cy="50.61789" r="23.50748" gradientUnits="userSpaceOnUse" id="color-66"><stop offset="0" stop-color="#d3afd3"/><stop offset="1" stop-color="#947b95"/></radialGradient><radialGradient cx="184.36594" cy="111.05137" r="3.92081" gradientUnits="userSpaceOnUse" id="color-67"><stop offset="0" stop-color="#a9a9a9"/><stop offset="1" stop-color="#5d5d5d"/></radialGradient><linearGradient x1="286.43518" y1="176.25433" x2="286.09091" y2="172.13737" gradientUnits="userSpaceOnUse" id="color-68"><stop offset="0" stop-color="#d3d3d3"/><stop offset="1" stop-color="#868686"/></linearGradient><linearGradient x1="342.44504" y1="148.1545" x2="303.57728" y2="193.70099" gradientUnits="userSpaceOnUse" id="color-69"><stop offset="0" stop-color="#cb80ce"/><stop offset="1" stop-color="#a946ad"/></linearGradient><radialGradient cx="323.47639" cy="170.10193" r="23.50748" gradientUnits="userSpaceOnUse" id="color-70"><stop offset="0" stop-color="#d3afd3"/><stop offset="1" stop-color="#947b95"/></radialGradient><radialGradient cx="260.82735" cy="176.30081" r="3.92081" gradientUnits="userSpaceOnUse" id="color-71"><stop offset="0" stop-color="#a9a9a9"/><stop offset="1" stop-color="#5d5d5d"/></radialGradient><linearGradient x1="244.89743" y1="117.01958" x2="161.79893" y2="214.39712" gradientUnits="userSpaceOnUse" id="color-72"><stop offset="0" stop-color="#cb80ce"/><stop offset="1" stop-color="#a946ad"/></linearGradient><linearGradient x1="122.67971" y1="114.75261" x2="95.02228" y2="147.16249" gradientUnits="userSpaceOnUse" id="color-73"><stop offset="0" stop-color="#d3afd3"/><stop offset="1" stop-color="#c0a0c1"/></linearGradient><linearGradient x1="111.17636" y1="127.70702" x2="90.59153" y2="151.82898" gradientUnits="userSpaceOnUse" id="color-74"><stop offset="0" stop-color="#d3afd3"/><stop offset="1" stop-color="#c0a0c1"/></linearGradient><linearGradient x1="97.24292" y1="139.87907" x2="83.3899" y2="156.1125" gradientUnits="userSpaceOnUse" id="color-75"><stop offset="0" stop-color="#d3afd3"/><stop offset="1" stop-color="#c0a0c1"/></linearGradient><linearGradient x1="94.89433" y1="146.77234" x2="78.9291" y2="165.48092" gradientUnits="userSpaceOnUse" id="color-76"><stop offset="0" stop-color="#d3afd3"/><stop offset="1" stop-color="#c0a0c1"/></linearGradient><linearGradient x1="97.82877" y1="145.47321" x2="73.79499" y2="173.63678" gradientUnits="userSpaceOnUse" id="color-77"><stop offset="0" stop-color="#d3afd3"/><stop offset="1" stop-color="#c0a0c1"/></linearGradient><linearGradient x1="264.23227" y1="235.54852" x2="236.57484" y2="267.95839" gradientUnits="userSpaceOnUse" id="color-78"><stop offset="0" stop-color="#d3afd3"/><stop offset="1" stop-color="#c0a0c1"/></linearGradient><linearGradient x1="253.248" y1="248.94589" x2="232.66317" y2="273.06787" gradientUnits="userSpaceOnUse" id="color-79"><stop offset="0" stop-color="#d3afd3"/><stop offset="1" stop-color="#c0a0c1"/></linearGradient><linearGradient x1="243.41846" y1="264.62004" x2="229.56544" y2="280.85347" gradientUnits="userSpaceOnUse" id="color-80"><stop offset="0" stop-color="#d3afd3"/><stop offset="1" stop-color="#c0a0c1"/></linearGradient><linearGradient x1="236.98025" y1="268.02338" x2="221.01502" y2="286.73194" gradientUnits="userSpaceOnUse" id="color-81"><stop offset="0" stop-color="#d3afd3"/><stop offset="1" stop-color="#c0a0c1"/></linearGradient><linearGradient x1="237.80188" y1="264.92129" x2="213.76812" y2="293.08483" gradientUnits="userSpaceOnUse" id="color-82"><stop offset="0" stop-color="#d3afd3"/><stop offset="1" stop-color="#c0a0c1"/></linearGradient><radialGradient cx="162.73953" cy="185.98028" r="39.4112" gradientUnits="userSpaceOnUse" id="color-83"><stop offset="0" stop-color="#d3afd3"/><stop offset="1" stop-color="#c0a0c1"/></radialGradient><radialGradient cx="212.98845" cy="225.03703" r="39.4112" gradientUnits="userSpaceOnUse" id="color-84"><stop offset="0" stop-color="#d3afd3"/><stop offset="1" stop-color="#c0a0c1"/></radialGradient><radialGradient cx="189.24362" cy="185.91751" r="11.39512" gradientUnits="userSpaceOnUse" id="color-85"><stop offset="0" stop-color="#858585"/><stop offset="1" stop-color="#000000"/></radialGradient><radialGradient cx="171.98148" cy="92.26717" r="25.59881" gradientUnits="userSpaceOnUse" id="color-86"><stop offset="0" stop-color="#2e2540"/><stop offset="1" stop-color="#694da0"/></radialGradient><radialGradient cx="207.20775" cy="96.92899" r="25.59881" gradientUnits="userSpaceOnUse" id="color-87"><stop offset="0" stop-color="#2e2540"/><stop offset="1" stop-color="#694da0"/></radialGradient><radialGradient cx="189.52537" cy="95.03668" r="15.10149" gradientUnits="userSpaceOnUse" id="color-88"><stop offset="0" stop-color="#8461ca"/><stop offset="1" stop-color="#4e3f6d"/></radialGradient></defs><g transform="translate(0.47226,-6.65431)"><g data-paper-data="{&quot;isPaintingLayer&quot;:true}" fill-rule="nonzero" stroke-linecap="butt" stroke-linejoin="miter" stroke-miterlimit="10" stroke-dasharray="" stroke-dashoffset="0" style="mix-blend-mode: normal"><path d="M176.31078,447.8141c-12.53221,29.65166 -136.47672,5.82929 -135.01271,-30.9302c-0.74017,0.87 15.73365,-35.42009 20.89472,-68.8537c5.16108,-33.43362 -10.16644,-111.82845 79.59035,-94.5204c101.5777,18.15895 50.49947,85.92027 42.06545,122.61401c-8.76212,38.12125 -6.77788,72.2019 -7.53782,71.69029z" data-paper-data="{&quot;index&quot;:null}" fill="#484848" stroke="#000000" stroke-width="0"/><g data-paper-data="{&quot;index&quot;:null}" stroke="none"><path d="M248.86588,302.1968c11.20411,1.23434 47.42066,42.13748 50.50069,51.971c1.40597,4.48884 -22.23323,31.58275 -27.02023,30.74781c-10.41139,-1.81601 -55.89527,-36.2382 -57.21703,-45.98268c-1.32177,-9.74447 22.53244,-37.97047 33.73655,-36.73613z" fill="#484848" stroke-width="0"/><g><g><path d="M227.62538,312.35339c2.25289,-1.10588 3.35875,1.14702 3.35875,1.14702l0.77845,1.74725c2.05321,2.46315 3.99621,4.89573 5.94049,7.34855c2.93943,-0.26478 6.18665,-0.87615 9.32403,-0.128c4.29423,1.02402 8.93611,6.88832 11.51023,10.1452c0.9146,1.99017 1.50376,3.78794 1.84082,5.58286c7.22427,2.41875 14.27837,5.58131 18.2271,12.54982c1.56479,2.76146 2.00102,5.47002 2.31091,8.26587c2.67161,1.9694 4.59853,5.29557 6.55188,7.75269c0,0 1.56178,1.96452 -0.40277,3.52626c-1.96452,1.56178 -3.52626,-0.40277 -3.52626,-0.40277c-0.75629,-0.95134 -1.63559,-2.38852 -2.62301,-3.7535c-0.31372,0.33489 -0.77944,0.60739 -1.46768,0.71994c-2.4768,0.40499 -2.88178,-2.07178 -2.88178,-2.07178c-0.13283,-0.83714 -0.21899,-1.6619 -0.29096,-2.47679c-6.42223,-1.71386 -15.33844,1.12383 -19.85557,-5.65143c-2.88961,-4.33415 -1.27845,-9.63449 -1.07825,-14.77328c-1.76903,-0.53873 -3.50405,-1.07398 -5.13967,-1.6734c-5.10683,-1.87161 -9.08741,-6.65948 -13.04813,-10.25026c-0.42162,-0.53006 -0.84019,-1.05736 -1.25688,-1.58257c-0.8731,0.08942 -1.73014,0.10908 -2.56355,0.00325c-4.86923,-0.6183 -8.38527,-5.47946 -9.71206,-9.67337l-1.32713,-2.31425c0,0 -1.23627,-2.18405 0.9478,-3.42031c1.58933,-0.89961 2.67676,0.01198 3.15115,0.57514c0.19446,-0.43904 0.56686,-0.86562 1.23209,-1.19217zM274.25545,353.25061c-2.94513,-5.21081 -8.09307,-7.77622 -13.54122,-9.66512c-0.03635,0.8608 -0.10734,1.75628 -0.20681,2.70226c-0.24403,2.32066 -1.4506,5.33103 0.04104,7.51198c2.84237,4.15593 10.03262,3.02608 15.15203,3.43759c-0.26892,-1.3381 -0.69682,-2.66286 -1.44506,-3.98674zM251.80293,335.45061c0.95425,0.32054 1.92777,0.63181 2.91282,0.94195c-0.12757,-0.38646 -0.27753,-0.76931 -0.45285,-1.148c-1.65394,-2.06315 -5.77535,-7.47592 -8.51996,-7.92411c-1.32035,-0.21559 -2.66634,-0.13591 -4.01314,0.05666c2.98248,2.87448 6.29358,6.80396 10.07314,8.07353z" fill="#000000" stroke-width="0.5"/><path d="M233.65286,321.16193l-0.86132,-2.44869l16.25653,-5.71814l0.86133,2.44867z" fill="url(#color-1)" stroke-width="0"/><path d="M228.42803,339.75213l-2.53374,-0.56392l3.74395,-16.82123l2.53374,0.56392z" data-paper-data="{&quot;index&quot;:null}" fill="url(#color-2)" stroke-width="0"/><path d="M280.87887,342.75217l2.53374,0.56392l-3.74395,16.82123l-2.53374,-0.56392z" data-paper-data="{&quot;index&quot;:null}" fill="url(#color-3)" stroke-width="0"/><path d="M275.55468,361.25421l0.86131,2.44867l-16.25651,5.71817l-0.86132,-2.44869z" data-paper-data="{&quot;index&quot;:null}" fill="url(#color-4)" stroke-width="0"/><path d="M262.18211,375.6875l-43.4404,-38.54711l4.50888,-5.08128l43.4404,38.54711z" fill="url(#color-5)" stroke-width="0"/><path d="M285.22797,350.36322l-43.4404,-38.54711l4.50888,-5.08128l43.4404,38.54711z" fill="url(#color-6)" stroke-width="0"/><path d="M281.82447,371.72465l-61.06874,-54.1897l6.3386,-7.14326l61.06874,54.1897z" fill="url(#color-7)" stroke-width="0"/></g><path d="M295.54439,364.13226c4.00734,3.61503 4.09993,10.04406 0.2068,14.35968c-3.89312,4.3156 -10.2977,4.88353 -14.30504,1.26848c-4.00734,-3.61503 -4.09994,-10.04408 -0.20681,-14.35969c3.89312,-4.3156 10.29771,-4.88351 14.30504,-1.26846z" fill="url(#color-8)" stroke-width="0"/></g><path d="M248.86588,302.1968c11.20411,1.23434 47.42066,42.13748 50.50069,51.971c1.40597,4.48884 -22.23323,31.58275 -27.02023,30.74781c-10.41139,-1.81601 -55.89527,-36.2382 -57.21703,-45.98268c-1.32177,-9.74447 22.53244,-37.97047 33.73655,-36.73613z" fill="url(#color-9)" stroke-width="0"/></g><g stroke="none"><path d="M67.43732,299.51068c3.31644,9.2576 -21.19312,60.76441 -29.59697,67.17301c-3.86398,2.94656 -37.32765,-10.20917 -38.14794,-14.84096c-1.79691,-10.1467 11.50153,-63.13591 20.87696,-69.3935c9.37542,-6.25759 43.55154,7.80388 46.86796,17.06146z" fill="#484848" stroke-width="0"/><g><g><path d="M44.1006,281.67746c0.74088,-0.01667 1.26793,0.19036 1.6428,0.49043c0.16157,-0.71839 0.70671,-2.02848 2.53179,-1.96228c2.50803,0.09096 2.41704,2.59899 2.41704,2.59899l-0.11166,2.66544c0.75466,4.33357 -0.12631,10.26799 -4.16307,13.06015c-0.69094,0.47791 -1.46065,0.85532 -2.27675,1.17821c-0.12784,0.65812 -0.25641,1.31899 -0.3864,1.98369c-1.86093,5.01178 -3.18795,11.09519 -6.85817,15.10917c-1.1755,1.28558 -2.4688,2.56 -3.79068,3.85321c2.54526,4.46866 6.41724,8.43062 5.84946,13.60868c-0.88759,8.09449 -10.1085,9.68387 -15.01887,14.16389c0.31155,0.75642 0.61508,1.5281 0.88288,2.33231c0,0 0.78169,2.38482 -1.60316,3.16651c-0.66268,0.21719 -1.20159,0.18991 -1.63432,0.03723c-0.24747,1.66641 -0.36575,3.34709 -0.59868,4.53988c0,0 -0.481,2.46315 -2.94415,1.98213c-2.46315,-0.481 -1.98213,-2.94415 -1.98213,-2.94415c0.60161,-3.08075 0.77938,-6.92067 2.24319,-9.89946c-1.0131,-2.6242 -1.87382,-5.22914 -1.75728,-8.40101c0.29409,-8.00413 5.0978,-14.06105 10.39525,-19.53622c-0.52783,-1.74837 -0.83321,-3.61539 -0.93838,-5.80314c0.7841,-4.0766 2.20211,-11.42005 5.54163,-14.30738c2.43986,-2.10949 5.60359,-3.06296 8.33444,-4.18224c0.59554,-3.07277 1.19929,-6.12698 1.88674,-9.25909l-0.1141,-1.90941c0,0 -0.05648,-2.50904 2.45257,-2.5655zM21.55701,339.45921c-0.05415,1.51973 0.17643,2.89266 0.55425,4.20417c4.35408,-2.72389 11.25629,-5.03384 11.86425,-10.03197c0.31906,-2.62293 -2.13877,-4.73884 -3.42455,-6.6861c-0.52413,-0.79378 -0.99971,-1.55585 -1.42857,-2.30309c-3.96518,4.18657 -7.35224,8.83529 -7.56539,14.81701zM33.28355,313.31657c2.7696,-2.86815 3.8979,-7.88121 5.22063,-11.80656c-1.28408,0.4496 -2.51541,0.99901 -3.58794,1.79868c-2.22944,1.66229 -3.39355,8.3652 -3.91095,10.95837c0.01887,0.41687 0.06217,0.82576 0.12699,1.22753c0.73138,-0.7291 1.45202,-1.45391 2.15127,-2.17804z" fill="#000000" stroke-width="0.5"/><path d="M25.74643,294.68722l-0.36369,-2.57014l17.06285,-2.41474l0.36373,2.57015z" fill="url(#color-10)" stroke-width="0"/><path d="M44.93868,293.1602l1.98899,-1.66787l11.07293,13.2046l-1.98899,1.66787z" data-paper-data="{&quot;index&quot;:null}" fill="url(#color-11)" stroke-width="0"/><path d="M21.9144,346.39765l-1.98899,1.66787l-11.07293,-13.2046l1.98899,-1.66787z" data-paper-data="{&quot;index&quot;:null}" fill="url(#color-12)" stroke-width="0"/><path d="M41.15422,344.74663l0.36373,2.57015l-17.06284,2.41472l-0.36374,-2.57012z" data-paper-data="{&quot;index&quot;:null}" fill="url(#color-13)" stroke-width="0"/><path d="M36.267,351.37789l20.79542,-54.22636l6.34289,2.43249l-20.79542,54.22636z" fill="url(#color-14)" stroke-width="0"/><path d="M4.14522,339.51947l20.79542,-54.22636l6.34289,2.43249l-20.79542,54.22636z" fill="url(#color-15)" stroke-width="0"/><path d="M14.4338,355.92341l29.23432,-76.23168l8.91688,3.41956l-29.23432,76.23168z" fill="url(#color-16)" stroke-width="0"/></g><path d="M20.95639,353.46065c5.44364,2.0366 8.32348,7.78532 6.43236,12.8401c-1.89113,5.0548 -7.83711,7.5015 -13.28073,5.46489c-5.44364,-2.0366 -8.32349,-7.78529 -6.43235,-12.84008c1.89113,-5.0548 7.83711,-7.50153 13.28074,-5.46491z" fill="url(#color-17)" stroke-width="0"/></g><path d="M67.43732,299.51068c3.31644,9.2576 -21.19312,60.76441 -29.59697,67.17301c-3.86398,2.94656 -37.32765,-10.20917 -38.14794,-14.84096c-1.79691,-10.1467 11.50153,-63.13591 20.87696,-69.3935c9.37542,-6.25759 43.55154,7.80388 46.86796,17.06146z" fill="url(#color-18)" stroke-width="0"/></g><path d="M221.50379,265.3471l-118.96237,-102.77094c0,0 4.84109,-32.94705 31.12562,-49.56537c31.12677,-19.67982 46.27362,-51.5552 111.945,4.61888c64.21588,54.98534 33.65677,71.22928 21.04846,105.81586c-12.41069,34.04452 -45.15667,41.90156 -45.15667,41.90156z" fill="#484848" stroke="none" stroke-width="0"/><g stroke="none"><path d="M117.37306,429.70211c-0.18349,0.65765 -1.158,3.43444 -4.39122,2.75852c-0.01638,-0.00342 -0.03269,-0.00691 -0.04889,-0.01044c-0.20787,1.11369 -0.94188,2.91153 -3.51127,3.01151c-3.73696,0.14542 -3.88236,-3.59155 -3.88236,-3.59155l-0.0448,-4.02355c0.89075,-4.26084 3.21915,-10.27599 1.36605,-14.59257c-2.87399,-6.69463 -11.44799,-13.88966 -8.32627,-22.10427c1.7693,-4.65583 4.94634,-6.75569 8.54758,-8.33159c-0.19499,-1.91317 -0.23679,-3.90936 -0.15386,-6.07278c0.1315,-0.63633 2.06543,-10.24028 2.39768,-10.86818c3.08453,-5.82918 10.58,-8.69214 16.16872,-11.08692c3.31072,-1.41866 6.78736,-2.62229 10.20336,-3.95002c-4.74653,-9.35812 -15.32343,-17.87593 -20.63503,-24.50147c-4.00977,-5.00168 -3.48993,-11.2137 -4.56294,-17.31696c-0.37138,-3.61706 -1.57425,-9.18187 -3.36897,-12.32886c-2.10359,-3.6886 -14.1508,-5.65333 -17.72196,-7.4684c-12.8632,-6.5378 -25.8556,-9.00602 -40.30939,-9.13168c0,0 -3.73963,-0.03252 -3.70712,-3.77212c0.03252,-3.73963 3.77213,-3.70714 3.77213,-3.70714c10.51506,0.09139 20.92657,1.02231 31.07825,4.12029c5.92017,1.80664 10.85285,5.15986 16.52889,7.35386c4.67865,1.80848 13.41373,3.93874 16.44282,8.25397c2.52813,3.6016 4.13811,11.28017 4.68637,15.59907c0.61772,3.49733 0.39082,8.10537 1.26672,11.35437c1.10961,4.11584 8.38866,8.07365 11.17122,11.03578c4.54929,4.84293 9.04851,11.04833 11.82766,17.69661c4.45297,-2.23576 8.51654,-5.11739 11.60464,-9.52232c8.04788,-11.47974 -5.82775,-20.2119 -5.36543,-30.79568c0.19352,-4.43022 3.35354,-7.4558 5.83569,-10.61931c7.65702,-6.5801 26.47366,-13.95233 35.04841,-5.43211c3.62199,3.59896 4.17635,9.63729 7.78267,13.0263c6.92946,6.51186 21.92309,5.70844 30.5946,7.48767c0,0 3.66064,0.76529 2.89536,4.42591c-0.76529,3.66064 -4.42591,2.89536 -4.42591,2.89536c-10.21901,-2.18302 -25.55656,-1.45665 -33.86809,-9.07618c-3.99308,-3.66065 -4.91636,-9.40716 -8.2867,-13.48954c-1.96217,-2.3767 -4.40035,-1.35928 -7.35065,-1.07586c-5.75164,0.5525 -12.69905,2.48288 -16.96656,6.38941c-5.47253,6.82204 -2.85882,6.94033 0.64923,14.33314c3.6792,7.75351 4.76575,18.5481 -0.29724,26.04647c-4.06114,6.01462 -9.60595,9.66275 -15.63599,12.5092c1.36791,6.8308 0.44144,13.78219 -4.43851,19.94068c-5.25209,6.62808 -14.99015,6.77128 -21.75398,11.23103c-0.8246,0.38053 -1.69827,0.69803 -2.58941,0.99588c0.48097,1.39864 1.1065,2.81213 1.89236,4.30887c2.15428,4.10298 6.44314,7.75756 7.24352,12.51528c1.15293,6.85315 -3.05887,19.83851 -7.36136,25.58023zM114.9335,415.92607c0.64856,-3.06707 3.07831,-7.15248 2.46786,-10.33114c-0.72072,-3.75299 -4.76772,-7.09454 -6.48605,-10.42387c-0.90696,-1.75729 -1.63958,-3.43174 -2.21847,-5.08435c-1.27509,0.84371 -2.36144,1.95906 -3.10922,3.55189c-2.05579,4.37903 6.74758,13.00342 8.22757,16.86294c0.71273,1.85859 1.01827,3.76634 1.06267,5.69182c0.01807,-0.08825 0.03659,-0.17734 0.05564,-0.2673zM128.41734,361.67512c-3.59308,1.5379 -10.54195,3.6593 -12.44463,7.63145c-1.22633,2.56021 -1.03416,5.58314 -1.62216,8.36036c-0.03402,0.76229 -0.04474,1.49623 -0.03061,2.20852c0.07587,-0.03544 0.15169,-0.07119 0.22739,-0.10727c5.58112,-3.62432 15.47721,-4.21252 19.61995,-9.45094c3.32213,-4.20075 4.31803,-8.37674 3.80768,-12.45026c-3.19401,1.26741 -6.42438,2.46705 -9.5576,3.80816z" fill="#000000" stroke-width="0.5"/><g stroke-width="0"><g><path d="M130.23813,292.93084l25.32264,-121.12839l10.82871,2.2638l-25.32264,121.12839z" fill="url(#color-19)"/><g><path d="M67.17614,306.65973l2.63363,-12.59771l131.66649,27.5257l-2.63363,12.59771z" fill="url(#color-20)"/><path d="M72.22226,312.40121l4.49911,-21.52108l7.78027,1.62652l-4.49911,21.52108z" fill="url(#color-21)"/><path d="M92.30722,317.457l4.49911,-21.52108l7.78027,1.62652l-4.49911,21.52108z" fill="url(#color-22)"/><path d="M163.15789,331.65202l4.49911,-21.52108l7.78027,1.62652l-4.49911,21.52108z" fill="url(#color-23)"/><path d="M183.24282,336.70781l4.49911,-21.52108l7.78027,1.62652l-4.49911,21.52108z" fill="url(#color-24)"/></g><g><path d="M66.14049,341.00094l2.63363,-12.59771l119.89383,25.06454l-2.63363,12.59771z" fill="url(#color-25)"/><path d="M70.6515,346.63053l4.49911,-21.52108l7.08462,1.48109l-4.49911,21.52108z" fill="url(#color-26)"/><path d="M88.92525,351.3077l4.49911,-21.52108l7.0846,1.48108l-4.49911,21.52108z" fill="url(#color-27)"/><path d="M153.45202,364.18065l4.49911,-21.52108l7.0846,1.48108l-4.49911,21.52108z" fill="url(#color-28)"/><path d="M171.72576,368.85782l4.49911,-21.52108l7.08462,1.48109l-4.49911,21.52108z" fill="url(#color-29)"/></g><g><path d="M66.57641,375.64978l2.63363,-12.59771l105.17799,21.98811l-2.63363,12.59771z" fill="url(#color-30)"/><path d="M70.41854,381.13954l4.49911,-21.52108l6.21504,1.29929l-4.49911,21.52108z" fill="url(#color-31)"/><path d="M86.42826,385.34341l4.49911,-21.52108l6.21504,1.29929l-4.49911,21.52108z" fill="url(#color-32)"/><path d="M143.05015,396.56379l4.49911,-21.52108l6.21504,1.29929l-4.49911,21.52108z" fill="url(#color-33)"/><path d="M159.05995,400.76768l4.49911,-21.52108l6.21504,1.29929l-4.49911,21.52108z" fill="url(#color-34)"/></g><path d="M98.6488,423.32711l6.19689,-30.1716l17.66954,-102.35835l28.74374,6.00906l-24.89482,100.92614l-6.32956,30.06558z" fill="url(#color-35)"/><path d="M50.14149,278.45583l1.3844,-6.62213l173.64679,36.30194l-1.3844,6.62213z" fill="url(#color-36)"/><path d="M235.59424,313.38611c-1.18935,5.68914 -6.43604,9.40579 -11.7188,8.3014c-5.28276,-1.10439 -8.60111,-6.61163 -7.41176,-12.30076c1.18935,-5.68914 6.436,-9.4058 11.71878,-8.3014c5.28276,1.10439 8.60113,6.61162 7.4118,12.30077z" fill="url(#color-37)"/><path d="M109.85443,296.40198l3.38408,-16.18743l50.36692,10.52951l-3.38408,16.18743z" fill="url(#color-38)"/><path d="M59.00433,276.46889c-1.18935,5.68914 -6.43604,9.40579 -11.7188,8.3014c-5.28276,-1.10439 -8.60113,-6.61162 -7.4118,-12.30077c1.18935,-5.68914 6.43604,-9.40579 11.7188,-8.3014c5.28276,1.10439 8.60113,6.61162 7.4118,12.30077z" fill="url(#color-39)"/></g><path d="M85.24878,466.44395l10.02873,-47.97143l29.84127,6.2385l-10.02873,47.97143z" fill="url(#color-40)"/><path d="M89.25136,436.00813l1.75557,-8.3976l34.36399,7.18401l-1.75557,8.3976z" fill="url(#color-41)"/><path d="M86.76941,447.8803l1.75557,-8.3976l34.36399,7.18401l-1.75557,8.3976z" fill="url(#color-42)"/></g></g><g stroke-width="0"><path d="M63.85143,250.63973c12.24826,7.68495 16.04054,23.69582 8.4703,35.76128c-3.70798,5.90977 -12.21071,-4.91066 -23.1445,-11.60299c-11.38874,-6.97081 -25.07265,-10.07099 -21.21039,-16.22668c7.57024,-12.06546 23.63633,-15.61655 35.8846,-7.93162z" fill="url(#color-43)" stroke="none"/><path d="M252.59555,305.53134c1.07281,7.18738 -12.70704,4.5461 -25.93451,6.37074c-12.69908,1.75174 -24.82444,8.25974 -25.85438,1.35947c-2.10277,-14.08765 7.78592,-27.23844 22.08704,-29.37307c14.30111,-2.13464 27.59909,7.55522 29.70186,21.64287z" data-paper-data="{&quot;index&quot;:null}" fill="url(#color-44)" stroke="none"/><path d="M176.31078,447.8141c-12.53221,29.65166 -136.47672,5.82929 -135.01271,-30.9302c-0.74017,0.87 15.22346,-32.97967 20.38454,-66.41327c5.16108,-33.43362 -9.65626,-114.26888 80.10053,-96.96083c101.5777,18.15895 49.98928,88.36069 41.55527,125.05444c-8.76212,38.12125 -6.26768,69.76147 -7.02764,69.24986z" data-paper-data="{&quot;index&quot;:null}" fill="url(#color-45)" stroke="#000000"/><path d="M167.60676,437.15027c-10.59103,25.05879 -115.33711,4.92636 -114.09986,-26.13926c-1.45996,-1.50858 15.85439,-37.70986 20.21604,-65.96477c4.36167,-28.25491 -9.63086,-87.13062 66.22305,-72.50348c71.80695,13.84676 48.3183,53.17648 36.12123,94.71279c-9.9505,33.88578 -6.83319,67.1601 -8.46048,69.89475z" data-paper-data="{&quot;index&quot;:null}" fill="url(#color-46)" stroke="#000000"/></g><g><path d="M176.90389,198.16532c33.47266,28.56438 52.46268,71.3805 32.43908,84.72921c-36.92492,24.61595 -55.30352,9.85282 -88.77618,-18.71155c-33.47266,-28.56438 -49.37008,-51.4581 -32.43904,-84.7292c10.90232,-21.42407 55.30352,-9.85282 88.77616,18.71153z" fill="url(#color-47)" stroke="#000000" stroke-width="0"/><g><g fill="url(#color-48)" stroke="#000000" stroke-width="0"><path d="M144.8718,235.72664c26.81899,22.88637 44.78236,53.97116 31.88223,60.98311c-23.78871,12.93053 -38.41896,0.99058 -65.23796,-21.89577c-26.81899,-22.88637 -40.51961,-40.10052 -31.88223,-60.98311c5.56183,-13.44681 38.41896,-0.9906 65.23796,21.89577z"/></g><g fill="none" stroke="none" stroke-width="1" font-family="sans-serif" font-weight="normal" font-size="12" text-anchor="start"/></g><path d="M176.51655,198.13217c25.92406,22.12268 42.00695,60.58483 24.16757,73.65517c-6.40537,4.69302 -15.51959,5.12878 -20.73823,7.31575c-21.58341,9.04496 -22.04065,13.06665 -57.7431,-17.32434c-37.44423,-31.87366 -29.47291,-34.21887 -26.05717,-53.88566c1.023,-5.89016 -0.79146,-15.76668 3.07311,-22.6927c10.79737,-19.35077 51.37372,-9.19094 77.2978,12.93175z" fill="url(#color-49)" stroke="#000000" stroke-width="0"/><path d="M155.62393,206.01978l1.44714,-1.6958l16.06195,13.70669l-1.44714,1.6958z" fill="url(#color-50)" stroke="none" stroke-width="0"/><g stroke="none" stroke-width="0"><path d="M149.05428,217.42662c0.15596,-0.18276 9.74871,-11.3713 9.74871,-11.3713l12.26802,10.45978c0,0 -9.48852,11.20282 -9.68596,11.43419c-2.76635,3.24169 -6.13844,1.60299 -9.5435,-1.30275c-3.40506,-2.90574 -5.55364,-5.97821 -2.7873,-9.21989z" fill="url(#color-51)"/><path d="M149.97151,216.35178c0.15596,-0.18276 9.74871,-11.3713 9.74871,-11.3713l12.26802,10.45978c0,0 -9.48852,11.20282 -9.68596,11.43419c-2.76635,3.24169 -6.13844,1.60299 -9.5435,-1.30275c-3.40506,-2.90574 -5.55364,-5.97821 -2.7873,-9.21989z" fill="url(#color-52)"/></g></g><g><path d="M175.37987,117.75502l3.66403,-4.29363l80.36606,68.58153l-3.66403,4.29363z" data-paper-data="{&quot;index&quot;:null}" fill="url(#color-53)" stroke="none" stroke-width="0"/><path d="M141.55992,157.13171l40.44689,-47.39699l4.03035,3.43937l-40.44689,47.39699z" fill="url(#color-54)" stroke="none" stroke-width="0"/><path d="M218.02136,222.38119l40.44689,-47.39699l4.03035,3.43937l-40.44689,47.39699z" data-paper-data="{&quot;index&quot;:null}" fill="url(#color-55)" stroke="none" stroke-width="0"/><path d="M187.48938,186.35879l-0.63138,0.50697c-0.49166,1.55485 -1.20014,3.0425 -1.98976,4.46929c-0.22847,0.42781 -0.38601,0.8759 -0.49185,1.33879c-0.01905,0.17987 -0.05072,0.35695 -0.09882,0.53042c-0.2888,1.96553 0.18874,4.15029 0.05408,6.16002c-0.11179,1.66864 -2.29411,4.29534 -2.58799,6.1586c-0.15523,0.98414 1.35031,3.37497 1.39727,3.75375c0.62043,5.00373 -4.06093,3.89018 -4.46852,7.57517c-0.3582,3.2383 11.82989,4.21595 13.4545,4.33669c8.56097,-2.52761 4.52564,-7.6567 10.17856,-13.08736c2.93238,-2.81709 10.67988,-2.93788 12.36856,-6.92983c0.77903,-1.84159 0.78534,-4.8426 1.08271,-6.84304c0,0 0.27544,-1.84949 2.12494,-1.57405c1.84949,0.27544 1.57405,2.12494 1.57405,2.12494c-0.33001,2.21197 -0.40484,5.85605 -1.37792,7.84146c-2.6133,5.33203 -9.38959,4.64913 -13.24549,8.13754c-2.40665,2.17726 -1.83006,5.95502 -3.19081,8.78316c-1.85854,3.86286 -5.40608,4.24835 -9.11631,5.26569c-4.7757,-0.25689 -13.1645,-0.65405 -16.33532,-5.16481c-3.14817,-4.47859 1.03151,-5.97035 3.29841,-8.86961c0.52721,-0.67431 -1.57219,-4.60611 -1.47301,-5.6417c0.17044,-1.77955 2.51273,-4.76007 2.59196,-6.20531c0.03627,-0.66137 0.02063,-1.25522 -0.0171,-1.80828c-2.49598,0.79553 -5.40856,-0.38327 -8.38885,1.39483c-3.34061,1.99309 -3.26596,8.29934 -8.17969,8.44548c-2.3696,0.07048 -3.89967,-1.92635 -5.72716,-2.92653c-6.93021,-3.79293 -9.78899,-6.23104 -8.97021,-14.73474c0.57789,-1.20219 1.64875,-2.23763 1.82874,-3.55931c0.44838,-3.29243 -3.54561,-5.31001 -1.98335,-8.99631c1.56555,-3.69411 7.92417,-5.00232 10.84087,-7.2757c2.09778,-1.63509 1.36982,-3.23416 2.26883,-5.31207c1.29252,-2.98745 5.37027,-5.61766 7.94193,-7.37569c0,0 1.54528,-1.05287 2.59815,0.49241c1.05287,1.54528 -0.49241,2.59815 -0.49241,2.59815c-1.7542,1.19088 -5.83612,3.63163 -6.59779,5.72877c-0.93805,2.58273 -0.81478,4.68368 -3.29958,6.72035c-2.3325,1.91183 -8.32869,3.26286 -9.84721,5.95297c-0.55713,0.98699 1.59937,3.69832 1.80851,4.51855c0.87748,3.44135 0.02195,4.66155 -1.46628,7.5192c-0.48146,6.81027 1.80045,7.5309 7.14868,10.43386c1.31896,0.71593 2.25988,2.3743 3.75681,2.48125c1.62227,0.11592 4.96713,-7.01916 6.4637,-7.92739c2.65686,-1.61234 6.74879,-0.05347 8.97231,-1.44915c1.91997,-1.20516 1.09167,-3.67217 1.26238,-5.6082c0.57416,-1.7777 1.61782,-3.41161 2.81336,-4.84708l1.19412,-0.91995c0,0 1.52254,-1.08553 2.60808,0.43702c0.24481,0.34336 0.35697,0.66449 0.38386,0.95596c1.02105,1.15314 -0.03859,2.39487 -0.03859,2.39487z" fill="url(#color-56)" stroke="none" stroke-width="0.5"/><path d="M156.71036,131.38708l4.76425,-5.5829l87.937,75.0423l-4.76425,5.5829z" fill="url(#color-57)" stroke="none" stroke-width="0"/><g stroke="#000000" stroke-width="0"><path d="M198.53911,162.40191c-8.76923,10.27606 -24.00023,11.67534 -34.0194,3.12533c-10.01917,-8.55001 -11.03246,-23.81152 -2.2632,-34.0876c8.76923,-10.27606 24.00023,-11.67534 34.0194,-3.12533c10.01917,8.55001 11.03246,23.81152 2.2632,34.0876z" fill="url(#color-58)"/><g><path d="M175.43676,152.7343c-3.13044,-2.6714 -3.44704,-7.43978 -0.70714,-10.65049c2.7399,-3.2107 7.49874,-3.64787 10.62918,-0.97648c3.13044,2.6714 3.44704,7.43978 0.70714,10.65049c-2.7399,3.2107 -7.49874,3.64787 -10.62918,0.97648z" fill="#f500ff"/><path d="M176.26614,151.76242c-2.60711,-2.22482 -2.87078,-6.196 -0.58892,-8.86996c2.28184,-2.67393 6.24512,-3.03805 8.85221,-0.81323c2.60711,2.22482 2.87078,6.196 0.58892,8.86996c-2.28184,2.67393 -6.24512,3.03805 -8.85221,0.81323z" fill="#000000"/></g></g><g stroke="#000000" stroke-width="0"><path d="M243.73908,200.97396c-8.76923,10.27606 -24.00023,11.67534 -34.0194,3.12533c-10.01917,-8.55001 -11.03246,-23.81152 -2.2632,-34.0876c8.76923,-10.27606 24.00023,-11.67534 34.0194,-3.12533c10.01917,8.55001 11.03246,23.81152 2.2632,34.0876z" fill="url(#color-59)"/><g><path d="M220.63674,191.30634c-3.13044,-2.6714 -3.44704,-7.43978 -0.70714,-10.65049c2.7399,-3.2107 7.49874,-3.64787 10.62918,-0.97648c3.13044,2.6714 3.44704,7.43978 0.70714,10.65049c-2.7399,3.2107 -7.49874,3.64787 -10.62918,0.97648z" fill="#f500ff"/><path d="M221.46611,190.33447c-2.60711,-2.22482 -2.87078,-6.196 -0.58892,-8.86996c2.28184,-2.67393 6.24512,-3.03805 8.85221,-0.81323c2.60711,2.22482 2.87078,6.196 0.58892,8.86996c-2.28184,2.67393 -6.24512,3.03805 -8.85221,0.81323z" fill="#000000"/></g></g><path d="M176.07501,190.56797l41.51046,-48.13628l6.63387,5.91108l-41.51046,48.13628z" fill="url(#color-60)" stroke="none" stroke-width="0"/><path d="M163.61171,228.79697l25.48422,-29.86323l3.89522,3.32403l-25.48422,29.86323z" fill="url(#color-61)" stroke="none" stroke-width="0"/><path d="M144.1357,212.17683l25.48422,-29.86323l3.89522,3.32403l-25.48422,29.86323z" fill="url(#color-62)" stroke="none" stroke-width="0"/><path d="M164.40113,127.47327l-22.42416,25.87449l83.70491,71.77777l22.66107,-26.00564l5.41309,4.76359l-28.01115,32.14306l-94.34834,-81.22988l27.67137,-31.98905z" fill="url(#color-63)" stroke="none" stroke-width="0"/></g><g stroke-width="0"><g><path d="M182.30365,111.02572l-3.80302,-50.52496l4.08556,-0.3241l3.80298,50.52495z" fill="url(#color-64)" stroke="none"/><g stroke="#000000"><g fill="url(#color-65)"><path d="M202.46571,58.66721c0.06863,0.82781 4.0836,18.32601 -19.8514,20.17168c-23.60955,1.82056 -22.52762,-12.4596 -22.96588,-16.50195c-1.90158,-17.53922 16.98207,-55.68263 16.98207,-55.68263c0,0 24.37789,34.43122 25.8352,52.01292z"/></g><g fill="url(#color-66)"><path d="M196.81855,57.77927c0.05219,0.62995 3.10751,13.94553 -15.10632,15.35007c-17.96615,1.3854 -17.14286,-9.48142 -17.47635,-12.55748c-1.44706,-13.34682 12.77089,-44.4098 12.77089,-44.4098c0,0 18.70287,28.23806 19.81183,41.6172z"/></g></g></g><path d="M187.3484,113.59649c-1.40564,1.64718 -3.88042,1.84297 -5.52758,0.43733c-1.64718,-1.40564 -1.84297,-3.88042 -0.43733,-5.52758c1.40564,-1.64718 3.88042,-1.84297 5.52758,-0.43733c1.64718,1.40564 1.84297,3.88042 0.43733,5.52758z" fill="url(#color-67)" stroke="none"/></g><g data-paper-data="{&quot;index&quot;:null}" stroke-width="0"><g><path d="M260.85465,174.24776l50.49437,-4.18951l0.3224,4.08569l-50.49438,4.18951z" fill="url(#color-68)" stroke="none"/><g stroke="#000000"><g fill="url(#color-69)"><path d="M309.71356,150.18872c17.59211,-1.3256 55.42846,17.33457 55.42846,17.33457c0,0 -34.69932,24.64686 -52.31937,25.52704c-4.06097,0.20286 -17.99333,3.51693 -19.90809,-20.08516c-1.94115,-23.92745 15.97071,-22.71408 16.79902,-22.77648z"/></g><g fill="url(#color-70)"><path d="M311.47848,155.62592c13.38707,-1.00874 44.21489,13.02092 44.21489,13.02092c0,0 -28.44069,18.92579 -41.84901,19.59557c-3.09022,0.15437 -13.69237,2.67625 -15.14945,-15.28422c-1.47714,-18.20808 12.15325,-17.28469 12.78356,-17.33222z"/></g></g></g><path d="M263.37248,173.31835c1.64718,1.40564 1.84297,3.88042 0.43733,5.52758c-1.40564,1.64718 -3.88042,1.84297 -5.52758,0.43733c-1.64718,-1.40564 -1.84297,-3.88042 -0.43733,-5.52758c1.40564,-1.64718 3.88042,-1.84297 5.52758,-0.43733z" fill="url(#color-71)" stroke="none"/></g><g stroke-width="0"><g><path d="M221.50379,265.3471l-118.96237,-102.77094c0,0 4.84109,-32.94705 31.12562,-49.56537c31.12677,-19.67982 46.27362,-51.5552 111.945,4.61888c64.21588,54.98534 33.65677,71.22928 21.04846,105.81586c-12.41069,34.04452 -45.15667,41.90156 -45.15667,41.90156zM161.46367,168.50352c10.47407,8.9382 26.2109,7.69313 35.14909,-2.78095c20.80653,-24.38176 18.2128,-38.53817 7.73871,-47.47637c-10.47407,-8.9382 -28.87026,-7.77747 -45.66876,15.10823c-8.1477,11.10016 -7.69313,26.2109 2.78095,35.14909zM207.3698,206.88818c10.47407,8.9382 26.54214,6.66481 35.48037,-3.80928c8.9382,-10.47407 24.61198,-30.67375 6.86797,-45.81586c-17.42792,-14.87237 -34.91152,3.78284 -43.84974,14.25693c-8.9382,10.47407 -8.97267,26.43002 1.50141,35.36821z" fill="url(#color-72)" stroke="none"/><g><g stroke="#000000"><path d="M137.87314,177.05905c-5.86294,4.42222 -22.35484,-10.86858 -38.8,-32.67144c-16.44516,-21.80281 -15.97969,-63.4165 -15.97969,-63.4165c0,0 15.19284,29.80314 31.63801,51.60595c0,0 29.00464,40.05975 23.1417,44.48197z" fill="url(#color-73)"/><path d="M136.74851,180.92174c-5.2474,5.13762 -23.5641,-7.91195 -42.66959,-27.42574c-19.10548,-19.51376 -23.98061,-60.84352 -23.98061,-60.84352c0,0 18.88948,27.60861 37.99499,47.12239c0,0 33.90264,36.00924 28.65524,41.14686z" fill="url(#color-74)"/><path d="M134.97434,180.70281c-4.37218,5.90038 -24.51654,-4.09945 -46.45859,-20.35844c-21.94202,-16.25898 -33.26967,-56.30391 -33.26967,-56.30391c0,0 23.00447,24.28667 44.94649,40.54565c0,0 39.15391,30.21632 34.78174,36.11669z" fill="url(#color-75)"/><path d="M134.98849,184.72582c-3.57938,6.41236 -24.83981,-0.92146 -48.68584,-14.2322c-23.84598,-13.31073 -40.21564,-51.5723 -40.21564,-51.5723c0,0 25.92916,21.1359 49.77514,34.44664c0,0 42.70571,24.9455 39.12635,31.35787z" fill="url(#color-76)"/><path d="M137.10689,180.86892c-2.09586,7.03828 -24.44358,4.51405 -50.61724,-3.27996c-26.17365,-7.794 -50.48826,-41.56847 -50.48826,-41.56847c0,0 29.91207,14.97713 56.08574,22.77113c0,0 47.11563,15.03899 45.01977,22.07729z" fill="url(#color-77)"/></g><g data-paper-data="{&quot;index&quot;:null}" stroke="#000000"><path d="M247.87952,246.2009c24.11762,12.812 55.93905,23.12915 55.93905,23.12915c0,0 -41.02274,7.00357 -65.14036,-5.80843c-24.11763,-12.81201 -41.81161,-26.69419 -38.36636,-33.17959c3.44524,-6.48541 47.56765,15.85885 47.56765,15.85885z" fill="url(#color-78)"/><path d="M241.8151,253.88829c22.27538,15.7992 52.51093,30.11211 52.51093,30.11211c0,0 -41.58217,1.68474 -63.85757,-14.11443c-22.2754,-15.79918 -38.04294,-31.83592 -33.79444,-37.82593c4.24852,-5.99003 45.14105,21.82824 45.14105,21.82824z" fill="url(#color-79)"/><path d="M238.30613,262.44728c19.50713,19.11225 47.10916,38.01136 47.10916,38.01136c0,0 -41.32804,-4.8895 -60.83516,-24.00177c-19.50716,-19.11228 -32.55033,-37.4335 -27.4109,-42.67914c5.13942,-5.24563 41.13687,28.66954 41.13687,28.66954z" fill="url(#color-80)"/><path d="M230.3145,268.10478c16.89499,21.45614 41.84535,43.73902 41.84535,43.73902c0,0 -40.3597,-10.14925 -57.25469,-31.60539c-16.895,-21.45617 -27.48085,-41.29885 -21.71112,-45.84205c5.76972,-4.5432 37.12046,33.70843 37.12046,33.70843z" fill="url(#color-81)"/><path d="M225.55206,272.68583c11.81291,24.62238 31.30748,51.80712 31.30748,51.80712c0,0 -37.1778,-18.70096 -48.99072,-43.32334c-11.81293,-24.6224 -17.82002,-46.29513 -11.19887,-49.4717c6.62114,-3.17657 28.88211,40.98793 28.88211,40.98793z" fill="url(#color-82)"/></g><path d="M126.59145,154.68694c18.25267,-7.79825 31.52399,-5.31862 46.70561,7.09536c8.13823,6.28468 16.45931,16.4772 8.12312,32.23172c-2.03963,3.85469 -6.54478,6.78931 -10.59268,11.53276c-14.03418,16.44571 -25.05347,29.36416 -25.05347,29.36416c0,0 -15.7585,-6.52038 -27.78509,-16.78343c-14.91723,-12.72984 -28.66948,-47.51653 8.60252,-63.44054z" data-paper-data="{&quot;index&quot;:null}" fill="url(#color-83)" stroke="#000000"/><path d="M166.6715,259.67145c-12.12676,-10.34855 -21.52112,-24.91877 -21.52112,-24.91877c0,0 11.71127,-12.92299 25.63628,-29.24075c3.93331,-4.60919 7.14054,-8.49853 10.54247,-11.09761c14.40825,-11.00782 24.75106,-5.32088 32.28917,1.77667c14.64686,13.04061 19.1826,25.75688 14.35168,45.00875c-9.86477,39.31236 -46.38125,31.20153 -61.29846,18.47171z" fill="url(#color-84)" stroke="#000000"/><path d="M191.37089,180.91491c3.57864,3.05389 4.72862,7.58151 2.56855,10.11277c-2.16007,2.53124 -13.78379,10.27712 -17.36245,7.22321c-3.57866,-3.0539 2.24296,-15.75108 4.40303,-18.28233c2.16007,-2.53124 6.81222,-2.10755 10.39087,0.94634z" fill="url(#color-85)" stroke="none"/></g></g><g stroke="#000000"><path d="M189.82984,95.40112c-1.26955,8.04221 -10.38559,10.06847 -20.42459,11.70024c-23.88664,3.88258 -23.54082,2.03466 -23.54082,2.03466c0,0 5.43285,-5.01002 7.71356,-19.45764c3.79252,-24.02442 -36.10587,-44.77332 20.42471,-11.70022c8.79005,5.14259 17.09672,9.38084 15.8272,17.42299z" fill="url(#color-86)"/><path d="M210.31771,83.71088c63.9696,-14.05084 19.61978,-6.60144 15.82725,17.42299c-2.28073,14.44764 1.34461,20.88757 1.34461,20.88757c0,0 -0.2402,1.8646 -21.76929,-9.18736c-9.04824,-4.64493 -17.09677,-9.3808 -15.82721,-17.423c1.26951,-8.04212 10.47783,-9.51542 20.42461,-11.70023z" data-paper-data="{&quot;index&quot;:null}" fill="url(#color-87)"/><path d="M204.94099,96.75649c-1.3005,8.23833 -8.87427,13.8876 -16.9164,12.61806c-8.0422,-1.26953 -13.50734,-8.97716 -12.20685,-17.21547c1.3005,-8.23833 8.87429,-13.8876 16.91642,-12.61809c8.0422,1.26953 13.50733,8.97723 12.20682,17.21552z" fill="url(#color-88)"/></g></g></g></g></svg>