<svg version="1.1" xmlns="http://www.w3.org/2000/svg" xmlns:xlink="http://www.w3.org/1999/xlink" width="513.07843" height="534.67565" viewBox="0,0,513.07843,534.67565"><defs><linearGradient x1="273.53315" y1="340.38549" x2="254.90593" y2="346.6151" gradientUnits="userSpaceOnUse" id="color-1"><stop offset="0" stop-color="#0f0f0f"/><stop offset="1" stop-color="#737373"/></linearGradient><linearGradient x1="252.36687" y1="347.74129" x2="233.85322" y2="353.93292" gradientUnits="userSpaceOnUse" id="color-2"><stop offset="0" stop-color="#0f0f0f"/><stop offset="1" stop-color="#737373"/></linearGradient><linearGradient x1="293.85801" y1="399.25128" x2="275.34437" y2="405.44291" gradientUnits="userSpaceOnUse" id="color-3"><stop offset="0" stop-color="#0f0f0f"/><stop offset="1" stop-color="#737373"/></linearGradient><linearGradient x1="272.75358" y1="406.41848" x2="254.12629" y2="412.64811" gradientUnits="userSpaceOnUse" id="color-4"><stop offset="0" stop-color="#0f0f0f"/><stop offset="1" stop-color="#737373"/></linearGradient><linearGradient x1="248.07927" y1="381.35037" x2="239.81126" y2="384.11551" gradientUnits="userSpaceOnUse" id="color-5"><stop offset="0" stop-color="#595959"/><stop offset="1" stop-color="#afafaf"/></linearGradient><linearGradient x1="287.0832" y1="368.49463" x2="278.81521" y2="371.25973" gradientUnits="userSpaceOnUse" id="color-6"><stop offset="0" stop-color="#afafaf"/><stop offset="1" stop-color="#595959"/></linearGradient><linearGradient x1="269.57896" y1="374.33148" x2="257.95576" y2="378.21867" gradientUnits="userSpaceOnUse" id="color-7"><stop offset="0" stop-color="#afafaf"/><stop offset="1" stop-color="#595959"/></linearGradient><radialGradient cx="282.8034" cy="425.18417" r="12.6221" gradientUnits="userSpaceOnUse" id="color-8"><stop offset="0" stop-color="#656565"/><stop offset="1" stop-color="#404040"/></radialGradient><linearGradient x1="297.26827" y1="370.64472" x2="233.87439" y2="391.84593" gradientUnits="userSpaceOnUse" id="color-9"><stop offset="0" stop-color="#cb80ce"/><stop offset="1" stop-color="#a946ad"/></linearGradient><linearGradient x1="34.15295" y1="214.30895" x2="40.98418" y2="232.72401" gradientUnits="userSpaceOnUse" id="color-10"><stop offset="0" stop-color="#0f0f0f"/><stop offset="1" stop-color="#737373"/></linearGradient><linearGradient x1="41.69957" y1="235.40793" x2="48.48916" y2="253.71075" gradientUnits="userSpaceOnUse" id="color-11"><stop offset="0" stop-color="#0f0f0f"/><stop offset="1" stop-color="#737373"/></linearGradient><linearGradient x1="-24.44267" y1="235.40011" x2="-17.65308" y2="253.70292" gradientUnits="userSpaceOnUse" id="color-12"><stop offset="0" stop-color="#0f0f0f"/><stop offset="1" stop-color="#737373"/></linearGradient><linearGradient x1="-16.7879" y1="256.33263" x2="-9.95664" y2="274.74779" gradientUnits="userSpaceOnUse" id="color-13"><stop offset="0" stop-color="#0f0f0f"/><stop offset="1" stop-color="#737373"/></linearGradient><linearGradient x1="18.21238" y1="259.82729" x2="21.24451" y2="268.00113" gradientUnits="userSpaceOnUse" id="color-14"><stop offset="0" stop-color="#595959"/><stop offset="1" stop-color="#afafaf"/></linearGradient><linearGradient x1="3.76141" y1="221.38577" x2="6.79359" y2="229.55964" gradientUnits="userSpaceOnUse" id="color-15"><stop offset="0" stop-color="#afafaf"/><stop offset="1" stop-color="#595959"/></linearGradient><linearGradient x1="10.1942" y1="238.67992" x2="14.45684" y2="250.17074" gradientUnits="userSpaceOnUse" id="color-16"><stop offset="0" stop-color="#afafaf"/><stop offset="1" stop-color="#595959"/></linearGradient><radialGradient cx="-37.70693" cy="260.27535" r="12.6221" gradientUnits="userSpaceOnUse" id="color-17"><stop offset="0" stop-color="#656565"/><stop offset="1" stop-color="#404040"/></radialGradient><linearGradient x1="-4.30148" y1="214.80175" x2="18.94724" y2="277.47371" gradientUnits="userSpaceOnUse" id="color-18"><stop offset="0" stop-color="#cb80ce"/><stop offset="1" stop-color="#a946ad"/></linearGradient><linearGradient x1="179.26956" y1="205.50318" x2="190.96185" y2="211.77579" gradientUnits="userSpaceOnUse" id="color-19"><stop offset="0" stop-color="#afafaf"/><stop offset="1" stop-color="#595959"/></linearGradient><linearGradient x1="145.361" y1="289.86472" x2="138.06368" y2="303.46707" gradientUnits="userSpaceOnUse" id="color-20"><stop offset="0" stop-color="#afafaf"/><stop offset="1" stop-color="#595959"/></linearGradient><linearGradient x1="87.50791" y1="252.66386" x2="75.04166" y2="275.90127" gradientUnits="userSpaceOnUse" id="color-21"><stop offset="0" stop-color="#7c7c7c"/><stop offset="1" stop-color="#111111"/></linearGradient><linearGradient x1="108.90438" y1="265.28415" x2="96.43816" y2="288.52156" gradientUnits="userSpaceOnUse" id="color-22"><stop offset="0" stop-color="#7c7c7c"/><stop offset="1" stop-color="#111111"/></linearGradient><linearGradient x1="185.61437" y1="305.61531" x2="173.14812" y2="328.85272" gradientUnits="userSpaceOnUse" id="color-23"><stop offset="0" stop-color="#7c7c7c"/><stop offset="1" stop-color="#111111"/></linearGradient><linearGradient x1="207.01084" y1="318.23559" x2="194.54462" y2="341.47301" gradientUnits="userSpaceOnUse" id="color-24"><stop offset="0" stop-color="#7c7c7c"/><stop offset="1" stop-color="#111111"/></linearGradient><linearGradient x1="126.18143" y1="325.61591" x2="118.88412" y2="339.21832" gradientUnits="userSpaceOnUse" id="color-25"><stop offset="0" stop-color="#afafaf"/><stop offset="1" stop-color="#595959"/></linearGradient><linearGradient x1="73.73075" y1="291.31332" x2="61.2645" y2="314.55073" gradientUnits="userSpaceOnUse" id="color-26"><stop offset="0" stop-color="#7c7c7c"/><stop offset="1" stop-color="#111111"/></linearGradient><linearGradient x1="93.17156" y1="302.88449" x2="80.70533" y2="326.12191" gradientUnits="userSpaceOnUse" id="color-27"><stop offset="0" stop-color="#7c7c7c"/><stop offset="1" stop-color="#111111"/></linearGradient><linearGradient x1="163.05331" y1="339.55246" x2="150.58708" y2="362.78985" gradientUnits="userSpaceOnUse" id="color-28"><stop offset="0" stop-color="#7c7c7c"/><stop offset="1" stop-color="#111111"/></linearGradient><linearGradient x1="182.49418" y1="351.12363" x2="170.02796" y2="374.36105" gradientUnits="userSpaceOnUse" id="color-29"><stop offset="0" stop-color="#7c7c7c"/><stop offset="1" stop-color="#111111"/></linearGradient><linearGradient x1="107.00186" y1="361.36715" x2="99.70454" y2="374.96956" gradientUnits="userSpaceOnUse" id="color-30"><stop offset="0" stop-color="#afafaf"/><stop offset="1" stop-color="#595959"/></linearGradient><linearGradient x1="61.30417" y1="330.68736" x2="48.83794" y2="353.9248" gradientUnits="userSpaceOnUse" id="color-31"><stop offset="0" stop-color="#7c7c7c"/><stop offset="1" stop-color="#111111"/></linearGradient><linearGradient x1="78.30048" y1="340.94707" x2="65.83423" y2="364.18451" gradientUnits="userSpaceOnUse" id="color-32"><stop offset="0" stop-color="#7c7c7c"/><stop offset="1" stop-color="#111111"/></linearGradient><linearGradient x1="139.64693" y1="373.0361" x2="127.18068" y2="396.27353" gradientUnits="userSpaceOnUse" id="color-33"><stop offset="0" stop-color="#7c7c7c"/><stop offset="1" stop-color="#111111"/></linearGradient><linearGradient x1="156.6432" y1="383.2958" x2="144.17696" y2="406.53322" gradientUnits="userSpaceOnUse" id="color-34"><stop offset="0" stop-color="#7c7c7c"/><stop offset="1" stop-color="#111111"/></linearGradient><linearGradient x1="97.86268" y1="336.96099" x2="128.89874" y2="353.61101" gradientUnits="userSpaceOnUse" id="color-35"><stop offset="0" stop-color="#afafaf"/><stop offset="1" stop-color="#595959"/></linearGradient><linearGradient x1="154.51767" y1="270.25508" x2="150.68173" y2="277.40537" gradientUnits="userSpaceOnUse" id="color-36"><stop offset="0" stop-color="#afafaf"/><stop offset="1" stop-color="#595959"/></linearGradient><radialGradient cx="251.81142" cy="323.47369" r="12.6221" gradientUnits="userSpaceOnUse" id="color-37"><stop offset="0" stop-color="#656565"/><stop offset="1" stop-color="#404040"/></radialGradient><linearGradient x1="156.12738" y1="265.09593" x2="146.75066" y2="282.5744" gradientUnits="userSpaceOnUse" id="color-38"><stop offset="0" stop-color="#595959"/><stop offset="1" stop-color="#393939"/></linearGradient><radialGradient cx="61.13826" cy="221.18269" r="12.6221" gradientUnits="userSpaceOnUse" id="color-39"><stop offset="0" stop-color="#656565"/><stop offset="1" stop-color="#404040"/></radialGradient><linearGradient x1="47.54491" y1="429.39764" x2="79.76605" y2="446.68338" gradientUnits="userSpaceOnUse" id="color-40"><stop offset="0" stop-color="#595959"/><stop offset="1" stop-color="#393939"/></linearGradient><linearGradient x1="50.99779" y1="417.10003" x2="88.10234" y2="437.00561" gradientUnits="userSpaceOnUse" id="color-41"><stop offset="0" stop-color="#393939"/><stop offset="1" stop-color="#151515"/></linearGradient><linearGradient x1="44.12076" y1="429.91899" x2="81.2253" y2="449.82458" gradientUnits="userSpaceOnUse" id="color-42"><stop offset="0" stop-color="#393939"/><stop offset="1" stop-color="#151515"/></linearGradient><radialGradient cx="76.80635" cy="210.1352" r="30.58066" gradientUnits="userSpaceOnUse" id="color-43"><stop offset="0" stop-color="#cb80ce"/><stop offset="1" stop-color="#a946ad"/></radialGradient><radialGradient cx="245.44963" cy="300.60774" r="30.58066" gradientUnits="userSpaceOnUse" id="color-44"><stop offset="0" stop-color="#cb80ce"/><stop offset="1" stop-color="#a946ad"/></radialGradient><linearGradient x1="176.02731" y1="231.08231" x2="55.01999" y2="456.64315" gradientUnits="userSpaceOnUse" id="color-45"><stop offset="0" stop-color="#cb80ce"/><stop offset="1" stop-color="#a946ad"/></linearGradient><radialGradient cx="150.59947" cy="310.68786" r="108.16058" gradientUnits="userSpaceOnUse" id="color-46"><stop offset="0" stop-color="#d3afd3"/><stop offset="1" stop-color="#c0a0c1"/></radialGradient><linearGradient x1="222.8726" y1="179.58273" x2="148.89682" y2="252.81447" gradientUnits="userSpaceOnUse" id="color-47"><stop offset="0" stop-color="#cb80ce"/><stop offset="1" stop-color="#a946ad"/></linearGradient><linearGradient x1="180.79526" y1="221.2368" x2="136.99613" y2="264.59544" gradientUnits="userSpaceOnUse" id="color-48"><stop offset="0" stop-color="#cb80ce"/><stop offset="1" stop-color="#a946ad"/></linearGradient><linearGradient x1="222.39739" y1="179.48836" x2="153.62866" y2="247.56541" gradientUnits="userSpaceOnUse" id="color-49"><stop offset="0" stop-color="#330000"/><stop offset="1" stop-color="#9c0000"/></linearGradient><linearGradient x1="207.38887" y1="193.87656" x2="205.48866" y2="195.75767" gradientUnits="userSpaceOnUse" id="color-50"><stop offset="0" stop-color="#898989"/><stop offset="1" stop-color="#2e2e2e"/></linearGradient><linearGradient x1="200.99658" y1="200.12804" x2="187.84227" y2="213.15004" gradientUnits="userSpaceOnUse" id="color-51"><stop offset="0" stop-color="#8a8a8a"/><stop offset="1" stop-color="#0f0f0f"/></linearGradient><linearGradient x1="202.20101" y1="198.93575" x2="189.04669" y2="211.95776" gradientUnits="userSpaceOnUse" id="color-52"><stop offset="0" stop-color="#898989"/><stop offset="1" stop-color="#2e2e2e"/></linearGradient><linearGradient x1="289.53806" y1="110.82723" x2="284.72685" y2="115.59007" gradientUnits="userSpaceOnUse" id="color-53"><stop offset="0" stop-color="#afafaf"/><stop offset="1" stop-color="#7a7a7a"/></linearGradient><linearGradient x1="251.11584" y1="63.90287" x2="198.00533" y2="116.47918" gradientUnits="userSpaceOnUse" id="color-54"><stop offset="0" stop-color="#afafaf"/><stop offset="1" stop-color="#7a7a7a"/></linearGradient><linearGradient x1="335.93256" y1="149.58133" x2="282.82209" y2="202.15766" gradientUnits="userSpaceOnUse" id="color-55"><stop offset="0" stop-color="#afafaf"/><stop offset="1" stop-color="#7a7a7a"/></linearGradient><linearGradient x1="260.07026" y1="140.35282" x2="218.69858" y2="181.30841" gradientUnits="userSpaceOnUse" id="color-56"><stop offset="0" stop-color="#424242"/><stop offset="1" stop-color="#000000"/></linearGradient><linearGradient x1="271.49711" y1="128.05266" x2="265.24125" y2="134.24559" gradientUnits="userSpaceOnUse" id="color-57"><stop offset="0" stop-color="#b8b8b8"/><stop offset="1" stop-color="#313131"/></linearGradient><radialGradient cx="243.21499" cy="105.92609" r="29.33758" gradientUnits="userSpaceOnUse" id="color-58"><stop offset="0" stop-color="#ffffff"/><stop offset="1" stop-color="#cccccc"/></radialGradient><radialGradient cx="293.35417" cy="156.57468" r="29.33758" gradientUnits="userSpaceOnUse" id="color-59"><stop offset="0" stop-color="#ffffff"/><stop offset="1" stop-color="#cccccc"/></radialGradient><linearGradient x1="291.77869" y1="108.16965" x2="237.32268" y2="161.52245" gradientUnits="userSpaceOnUse" id="color-60"><stop offset="0" stop-color="#9d9d9d"/><stop offset="1" stop-color="#6e6e6e"/></linearGradient><linearGradient x1="250.53647" y1="171.14749" x2="217.07335" y2="204.27405" gradientUnits="userSpaceOnUse" id="color-61"><stop offset="0" stop-color="#afafaf"/><stop offset="1" stop-color="#595959"/></linearGradient><linearGradient x1="228.93218" y1="149.32371" x2="195.46909" y2="182.45027" gradientUnits="userSpaceOnUse" id="color-62"><stop offset="0" stop-color="#afafaf"/><stop offset="1" stop-color="#595959"/></linearGradient><linearGradient x1="322.98548" y1="180.16368" x2="286.80415" y2="215.23466" gradientUnits="userSpaceOnUse" id="color-63"><stop offset="0" stop-color="#afafaf"/><stop offset="1" stop-color="#595959"/></linearGradient><linearGradient x1="249.35541" y1="32.82187" x2="254.31027" y2="32.86907" gradientUnits="userSpaceOnUse" id="color-64"><stop offset="0" stop-color="#d3d3d3"/><stop offset="1" stop-color="#868686"/></linearGradient><linearGradient x1="278.00609" y1="-36.6607" x2="226.96919" y2="13.8629" gradientUnits="userSpaceOnUse" id="color-65"><stop offset="0" stop-color="#cb80ce"/><stop offset="1" stop-color="#a946ad"/></linearGradient><radialGradient cx="251.97769" cy="-9.24935" r="28.19458" gradientUnits="userSpaceOnUse" id="color-66"><stop offset="0" stop-color="#d3afd3"/><stop offset="1" stop-color="#947b95"/></radialGradient><radialGradient cx="251.56744" cy="63.45581" r="4.70257" gradientUnits="userSpaceOnUse" id="color-67"><stop offset="0" stop-color="#a9a9a9"/><stop offset="1" stop-color="#5d5d5d"/></radialGradient><linearGradient x1="366.99427" y1="151.65592" x2="366.9971" y2="146.70084" gradientUnits="userSpaceOnUse" id="color-68"><stop offset="0" stop-color="#d3d3d3"/><stop offset="1" stop-color="#868686"/></linearGradient><linearGradient x1="436.76284" y1="123.70904" x2="385.72592" y2="174.23261" gradientUnits="userSpaceOnUse" id="color-69"><stop offset="0" stop-color="#cb80ce"/><stop offset="1" stop-color="#a946ad"/></linearGradient><radialGradient cx="411.88352" cy="148.03067" r="28.19458" gradientUnits="userSpaceOnUse" id="color-70"><stop offset="0" stop-color="#d3afd3"/><stop offset="1" stop-color="#947b95"/></radialGradient><radialGradient cx="336.38417" cy="149.13427" r="4.70257" gradientUnits="userSpaceOnUse" id="color-71"><stop offset="0" stop-color="#a9a9a9"/><stop offset="1" stop-color="#5d5d5d"/></radialGradient><linearGradient x1="323.31148" y1="76.68067" x2="214.19555" y2="184.69914" gradientUnits="userSpaceOnUse" id="color-72"><stop offset="0" stop-color="#cb80ce"/><stop offset="1" stop-color="#a946ad"/></linearGradient><linearGradient x1="177.47016" y1="61.67124" x2="141.15343" y2="97.62271" gradientUnits="userSpaceOnUse" id="color-73"><stop offset="0" stop-color="#d3afd3"/><stop offset="1" stop-color="#c0a0c1"/></linearGradient><linearGradient x1="162.41811" y1="75.9961" x2="135.38836" y2="102.75399" gradientUnits="userSpaceOnUse" id="color-74"><stop offset="0" stop-color="#d3afd3"/><stop offset="1" stop-color="#c0a0c1"/></linearGradient><linearGradient x1="144.54046" y1="89.14135" x2="126.35016" y2="107.14871" gradientUnits="userSpaceOnUse" id="color-75"><stop offset="0" stop-color="#d3afd3"/><stop offset="1" stop-color="#c0a0c1"/></linearGradient><linearGradient x1="141.03979" y1="97.14354" x2="120.07597" y2="117.8965" gradientUnits="userSpaceOnUse" id="color-76"><stop offset="0" stop-color="#d3afd3"/><stop offset="1" stop-color="#c0a0c1"/></linearGradient><linearGradient x1="144.67765" y1="95.8862" x2="113.1191" y2="127.12735" gradientUnits="userSpaceOnUse" id="color-77"><stop offset="0" stop-color="#d3afd3"/><stop offset="1" stop-color="#c0a0c1"/></linearGradient><linearGradient x1="334.49087" y1="220.28732" x2="298.17414" y2="256.23878" gradientUnits="userSpaceOnUse" id="color-78"><stop offset="0" stop-color="#d3afd3"/><stop offset="1" stop-color="#c0a0c1"/></linearGradient><linearGradient x1="320.01463" y1="235.19384" x2="292.98485" y2="261.95174" gradientUnits="userSpaceOnUse" id="color-79"><stop offset="0" stop-color="#d3afd3"/><stop offset="1" stop-color="#c0a0c1"/></linearGradient><linearGradient x1="306.68933" y1="252.93767" x2="288.49905" y2="270.945" gradientUnits="userSpaceOnUse" id="color-80"><stop offset="0" stop-color="#d3afd3"/><stop offset="1" stop-color="#c0a0c1"/></linearGradient><linearGradient x1="298.65213" y1="256.35726" x2="277.68832" y2="277.11019" gradientUnits="userSpaceOnUse" id="color-81"><stop offset="0" stop-color="#d3afd3"/><stop offset="1" stop-color="#c0a0c1"/></linearGradient><linearGradient x1="299.94632" y1="252.73245" x2="268.38779" y2="283.97354" gradientUnits="userSpaceOnUse" id="color-82"><stop offset="0" stop-color="#d3afd3"/><stop offset="1" stop-color="#c0a0c1"/></linearGradient><radialGradient cx="218.17961" cy="150.8312" r="47.26931" gradientUnits="userSpaceOnUse" id="color-83"><stop offset="0" stop-color="#d3afd3"/><stop offset="1" stop-color="#c0a0c1"/></radialGradient><radialGradient cx="274.3043" cy="202.56724" r="47.26931" gradientUnits="userSpaceOnUse" id="color-84"><stop offset="0" stop-color="#d3afd3"/><stop offset="1" stop-color="#c0a0c1"/></radialGradient><radialGradient cx="249.86249" cy="153.42354" r="13.66717" gradientUnits="userSpaceOnUse" id="color-85"><stop offset="0" stop-color="#858585"/><stop offset="1" stop-color="#000000"/></radialGradient><radialGradient cx="238.65651" cy="39.75934" r="30.70289" gradientUnits="userSpaceOnUse" id="color-86"><stop offset="0" stop-color="#2e2540"/><stop offset="1" stop-color="#694da0"/></radialGradient><radialGradient cx="280.2883" cy="48.87613" r="30.70289" gradientUnits="userSpaceOnUse" id="color-87"><stop offset="0" stop-color="#2e2540"/><stop offset="1" stop-color="#694da0"/></radialGradient><radialGradient cx="259.3455" cy="44.83497" r="18.11254" gradientUnits="userSpaceOnUse" id="color-88"><stop offset="0" stop-color="#8461ca"/><stop offset="1" stop-color="#4e3f6d"/></radialGradient></defs><g transform="translate(51.13839,62.09365)"><g data-paper-data="{&quot;isPaintingLayer&quot;:true}" fill-rule="nonzero" stroke-linecap="butt" stroke-linejoin="miter" stroke-miterlimit="10" stroke-dasharray="" stroke-dashoffset="0" style="mix-blend-mode: normal"><path d="M144.73402,464.70637c-24.46286,29.87115 -158.99964,-39.52107 -144.86386,-81.3193c-1.14631,0.75028 30.10023,-35.42368 47.36316,-72.14299c17.26296,-36.71931 26.18194,-132.10935 123.59015,-81.79249c110.7207,55.2999 28.99952,115.96215 6.86657,155.32379c-22.99399,40.89296 -32.25494,80.77704 -32.95601,79.93098z" data-paper-data="{&quot;index&quot;:null}" fill="#484848" stroke="#000000" stroke-width="0"/><g data-paper-data="{&quot;index&quot;:null}" stroke="none"><path d="M280.84522,332.39078c10.97318,7.89702 24.67269,71.97442 22.08978,84.06071c-1.17906,5.5172 -41.84632,19.87122 -46.35325,16.176c-9.80223,-8.03696 -37.00253,-70.81155 -32.63586,-81.76787c4.36666,-10.95632 45.92615,-26.36585 56.89931,-18.46885z" fill="#484848" stroke-width="0"/><g><g><path d="M252.67228,330.47079c3.00504,0.17376 2.83126,3.17882 2.83126,3.17882l-0.21749,2.28387c0.6916,3.78336 1.28611,7.46979 1.87002,11.17811c3.226,1.45707 6.97784,2.73373 9.81316,5.36541c3.8808,3.60209 5.26999,12.46422 6.03746,17.38373c-0.21859,2.61787 -0.66357,4.84287 -1.37015,6.91623c6.11824,6.78676 11.6201,14.24996 11.63413,23.85649c0.00558,3.80684 -1.13629,6.89285 -2.4616,9.99549c1.62863,3.63241 1.67934,8.24261 2.27018,11.96078c0,0 0.47243,2.97278 -2.50033,3.44513c-2.97278,0.47243 -3.44513,-2.50033 -3.44513,-2.50033c-0.22876,-1.43957 -0.29947,-3.45911 -0.52565,-5.46699c-0.52516,0.16472 -1.17225,0.17465 -1.95738,-0.11373c-2.82553,-1.03779 -1.78773,-3.8633 -1.78773,-3.8633c0.355,-0.95261 0.75145,-1.86479 1.15688,-2.75827c-5.69635,-5.57757 -16.68171,-7.87256 -17.40334,-17.61249c-0.46163,-6.23067 4.34702,-10.81592 7.58684,-16.0646c-1.52979,-1.60596 -3.02611,-3.18823 -4.38075,-4.77888c-4.22955,-4.96652 -5.56296,-12.31445 -7.58162,-18.40046c-0.12771,-0.80223 -0.25385,-1.59979 -0.37928,-2.39405c-0.96457,-0.42155 -1.87122,-0.90647 -2.67919,-1.50852c-4.72057,-3.51749 -5.52562,-10.66798 -4.43777,-15.83045l-0.02112,-3.19963c0,0 -0.00302,-3.01007 3.00708,-3.01305c2.1904,-0.00216 2.78846,1.59121 2.95175,2.45911c0.46203,-0.34384 1.10253,-0.56969 1.98984,-0.51841zM277.2508,400.68368c-0.00257,-7.17895 -3.86587,-12.8943 -8.44168,-18.08018c-0.54567,0.87754 -1.14791,1.77089 -1.80972,2.70018c-1.62352,2.27968 -4.65907,4.71199 -4.38753,7.86944c0.5174,6.01667 8.69299,9.07734 13.7968,12.52641c0.50832,-1.55607 0.84275,-3.19197 0.84212,-5.01588zM264.30024,368.85205c0.80755,0.89754 1.64066,1.7968 2.4865,2.70165c0.09469,-0.47885 0.16387,-0.96712 0.20414,-1.466c-0.51053,-3.13014 -1.62246,-11.21376 -4.22448,-13.30052c-1.25178,-1.00386 -2.70445,-1.71449 -4.2246,-2.30768c1.41949,4.76099 2.55997,10.81761 5.75845,14.37259z" fill="#000000" stroke-width="0.5"/><path d="M253.77211,343.225l0.54466,-3.06531l20.35013,3.61589l-0.54463,3.06529z" fill="url(#color-1)" stroke-width="0"/><path d="M237.35142,359.55844l-2.31356,-2.08327l13.8308,-15.35938l2.31356,2.08327z" data-paper-data="{&quot;index&quot;:null}" fill="url(#color-2)" stroke-width="0"/><path d="M290.3598,393.62583l2.31356,2.08327l-13.8308,15.35938l-2.31356,-2.08327z" data-paper-data="{&quot;index&quot;:null}" fill="url(#color-3)" stroke-width="0"/><path d="M273.88733,409.80859l-0.54464,3.06528l-20.35015,-3.61586l0.54466,-3.06531z" data-paper-data="{&quot;index&quot;:null}" fill="url(#color-4)" stroke-width="0"/><path d="M251.40911,416.99536l-22.63338,-65.8773l7.70571,-2.64748l22.63338,65.8773z" fill="url(#color-5)" stroke-width="0"/><path d="M290.41301,404.13951l-22.63338,-65.8773l7.70571,-2.64748l22.63338,65.8773z" fill="url(#color-6)" stroke-width="0"/><path d="M274.26004,424.44132l-31.81814,-92.61063l10.83273,-3.72179l31.81814,92.61063z" fill="url(#color-7)" stroke-width="0"/></g><path d="M293.06645,424.60379c2.05305,6.13884 -1.64192,12.90769 -8.25303,15.11869c-6.61106,2.21098 -13.63474,-0.97316 -15.68777,-7.11202c-2.05305,-6.13884 1.64193,-12.9077 8.25302,-15.11871c6.61106,-2.21098 13.63472,0.97318 15.68778,7.11204z" fill="url(#color-8)" stroke-width="0"/></g><path d="M280.84522,332.39078c10.97318,7.89702 24.67269,71.97442 22.08978,84.06071c-1.17906,5.5172 -41.84632,19.87122 -46.35325,16.176c-9.80223,-8.03696 -37.00253,-70.81155 -32.63586,-81.76787c4.36666,-10.95632 45.92615,-26.36585 56.89931,-18.46885z" fill="url(#color-9)" stroke-width="0"/></g><g stroke="none"><path d="M57.09676,259.4995c-5.79452,10.27289 -71.74682,28.46074 -84.15446,25.86713c-5.70484,-1.19254 -20.03206,-41.86922 -16.47455,-46.24798c7.79338,-9.59232 66.29256,-39.11242 79.32567,-35.51903c13.03309,3.59338 27.09785,45.62706 21.30335,55.8999z" fill="#484848" stroke-width="0"/><g><g><path d="M54.95915,224.33781c0.59651,0.65893 0.82231,1.29944 0.84432,1.87495c0.77839,-0.4172 2.39449,-0.9508 3.76663,0.75657c1.88563,2.34626 -0.46067,4.23187 -0.46067,4.23187l-2.5053,1.99037c-3.33853,4.0852 -9.41262,7.94305 -15.11299,6.47265c-0.9757,-0.25167 -1.92203,-0.65367 -2.85533,-1.14053c-0.69726,0.4005 -1.39759,0.80247 -2.10252,1.20619c-6.00622,2.24496 -12.5655,5.81516 -19.08648,5.636c-2.08853,-0.05739 -4.25938,-0.23039 -6.46969,-0.41457c-2.05593,5.81536 -2.61112,12.4365 -7.7534,15.98489c-8.03856,5.54693 -16.71615,-1.5696 -24.63304,-2.50788c-0.44162,0.87617 -0.90337,1.75705 -1.42269,2.63105c0,0 -1.54972,2.58047 -4.13021,1.03072c-0.71704,-0.43063 -1.11519,-0.94086 -1.31627,-1.45319c-1.70571,1.08321 -3.32297,2.29482 -4.58767,3.01956c0,0 -2.61165,1.49662 -4.10824,-1.11502c-1.49662,-2.61165 1.11502,-4.10824 1.11502,-4.10824c3.26648,-1.87188 6.88895,-4.72395 10.73953,-5.73377c1.58524,-2.97822 3.27263,-5.80311 6.24108,-8.18646c7.49087,-6.01435 16.75438,-6.41024 25.87767,-5.90176c1.17164,-1.85078 2.62547,-3.59285 4.52732,-5.40507c4.31295,-2.48783 12.08653,-6.96428 17.32609,-6.20097c3.82803,0.55766 7.17555,2.67909 10.33377,4.27775c3.25446,-1.87112 6.49855,-3.72024 9.87897,-5.55456l1.64237,-1.60186c0,0 2.23149,-2.02016 4.25164,0.21135zM-15.14201,249.23302c-1.42096,1.14346 -2.48531,2.42999 -3.37842,3.80189c5.88747,1.8118 13.39908,6.25972 18.40968,2.88896c2.62949,-1.7689 2.61997,-5.65867 3.37722,-8.35302c0.30868,-1.09831 0.62671,-2.1277 0.96794,-3.10308c-6.90901,-0.31126 -13.78352,0.26454 -19.37647,4.76525zM17.77266,239.35452c4.77493,0.26141 10.20739,-2.64909 14.80586,-4.52967c-1.41547,-0.81191 -2.88006,-1.49764 -4.44707,-1.84294c-3.25727,-0.71773 -10.25063,3.48634 -13.00875,5.05201c-0.36332,0.34425 -0.70021,0.70438 -1.01378,1.07847c1.23527,0.09124 2.45821,0.17612 3.66375,0.24212z" fill="#000000" stroke-width="0.5"/><path d="M28.75564,217.89899l2.04583,-2.34675l15.58004,13.5818l-2.0458,2.34681z" fill="url(#color-10)" stroke-width="0"/><path d="M45.20149,234.10887l3.07366,0.49527l-3.28784,20.4057l-3.07366,-0.49527z" data-paper-data="{&quot;index&quot;:null}" fill="url(#color-11)" stroke-width="0"/><path d="M-21.15503,255.00202l-3.07366,-0.49527l3.28784,-20.4057l3.07366,0.49527z" data-paper-data="{&quot;index&quot;:null}" fill="url(#color-12)" stroke-width="0"/><path d="M-4.55936,271.15773l-2.0458,2.34681l-15.58002,-13.58182l2.04578,-2.34678z" data-paper-data="{&quot;index&quot;:null}" fill="url(#color-13)" stroke-width="0"/><path d="M-14.40936,271.92859l65.50444,-23.69085l2.7711,7.66212l-65.50444,23.69085z" fill="url(#color-14)" stroke-width="0"/><path d="M-28.86027,233.48709l65.50444,-23.69085l2.7711,7.66212l-65.50444,23.69085z" fill="url(#color-15)" stroke-width="0"/><path d="M-35.66556,255.69196l92.08648,-33.30469l3.89567,10.77142l-92.08648,33.30469z" fill="url(#color-16)" stroke-width="0"/></g><path d="M-28.31326,259.67562c2.42451,6.5358 -0.5299,13.65913 -6.59883,15.91047c-6.06896,2.25132 -12.95421,-1.22191 -15.37871,-7.75771c-2.42451,-6.5358 0.52986,-13.65913 6.59882,-15.91043c6.06896,-2.25132 12.95424,1.2219 15.37873,7.7577z" fill="url(#color-17)" stroke-width="0"/></g><path d="M57.09676,259.4995c-5.79452,10.27289 -71.74682,28.46074 -84.15446,25.86713c-5.70484,-1.19254 -20.03206,-41.86922 -16.47455,-46.24798c7.79338,-9.59232 66.29256,-39.11242 79.32567,-35.51903c13.03309,3.59338 27.09785,45.62706 21.30335,55.8999z" fill="url(#color-18)" stroke-width="0"/></g><path d="M280.42466,251.60111l-131.8359,-134.79993c0,0 9.10168,-38.8897 42.18829,-56.10594c39.18199,-20.3879 60.49282,-56.95961 133.32709,16.78648c71.21437,72.17887 33.05662,88.51746 14.50688,128.58497c-18.25901,39.43956 -58.18633,45.53439 -58.18633,45.53439z" fill="#484848" stroke="none" stroke-width="0"/><g stroke="none"><path d="M83.05741,423.90371c-0.43388,0.69451 -2.49568,3.55929 -5.98675,1.68643c-0.01769,-0.00948 -0.03527,-0.01902 -0.05271,-0.02857c-0.61639,1.21096 -2.0699,3.03086 -5.06002,2.27558c-4.34886,-1.09848 -3.25035,-5.44735 -3.25035,-5.44735l1.31133,-4.64453c2.46812,-4.60065 7.18455,-10.73277 6.51459,-16.32697c-1.03907,-8.6761 -8.46687,-19.85864 -2.09264,-28.25268c3.61273,-4.75752 7.97941,-6.0974 12.65665,-6.69075c0.42369,-2.26728 1.05175,-4.57818 1.87998,-7.03923c0.36684,-0.6876 5.84504,-11.08249 6.44,-11.69238c5.52343,-5.66203 15.1172,-6.41715 22.35856,-7.27946c4.28973,-0.51084 8.69752,-0.71806 13.07758,-1.08861c-2.29136,-12.37487 -11.57557,-25.75782 -15.44265,-35.18008c-2.9193,-7.11296 -0.21703,-14.0842 0.61574,-21.46984c0.79789,-4.28746 1.29886,-11.09757 0.29987,-15.32629c-1.17089,-4.95651 -14.36647,-11.29775 -17.86052,-14.59573c-12.58541,-11.87924 -26.69795,-19.11992 -43.28538,-24.16037c0,0 -4.29167,-1.30412 -2.98758,-5.59575c1.30412,-4.29167 5.59577,-2.9876 5.59577,-2.9876c12.06729,3.66686 23.73108,8.26458 34.36186,15.26763c6.19957,4.08396 10.73912,9.61287 16.52659,14.05984c4.77051,3.66554 14.09919,9.07532 16.12268,15.06631c1.68883,5.00021 0.94028,14.38024 0.10817,19.53511c-0.47391,4.23313 -2.29583,9.45813 -2.38857,13.49298c-0.11747,5.11138 6.91693,12.13069 9.11511,16.48135c3.59383,7.11304 6.66855,15.77675 7.61419,24.36739c5.88074,-1.06405 11.5322,-3.00311 16.57732,-7.02525c13.14807,-10.48216 0.14106,-25.22908 4.25798,-37.24979c1.72328,-5.03169 6.38392,-7.44244 10.31136,-10.2415c11.03872,-4.9772 35.18563,-7.08576 42.1654,5.62177c2.94827,5.36768 1.54076,12.50295 4.54212,17.62378c5.76705,9.83949 23.29032,13.99381 32.66478,18.97819c0,0 3.95257,2.12046 1.83214,6.07301c-2.12046,3.95257 -6.07301,1.83214 -6.07301,1.83214c-11.01817,-5.97314 -28.91104,-10.3326 -35.89306,-21.91469c-3.35434,-5.56436 -2.47014,-12.48883 -4.96513,-18.32748c-1.45256,-3.39917 -4.60246,-3.05445 -8.09296,-3.72768c-6.80477,-1.31253 -15.45208,-1.44477 -21.68535,1.60443c-8.60728,5.99552 -5.64012,7.01694 -4.10801,16.71111c1.60685,10.16714 -0.79941,22.95505 -9.16457,29.86744c-6.7099,5.54459 -14.32527,7.86383 -22.22738,9.09632c-0.73989,8.32262 -4.16047,16.00681 -11.86118,21.43959c-8.28795,5.84702 -19.54072,2.71326 -28.83357,5.55341c-1.07765,0.15851 -2.1904,0.22787 -3.31661,0.26872c0.07963,1.77214 0.32058,3.61033 0.71775,5.59862c1.08886,5.45045 4.78556,11.10802 4.0949,16.85319c-0.99481,8.27551 -10.23921,21.78935 -17.13436,26.93821zM84.91684,407.22716c1.78511,-3.30918 5.96451,-7.18669 6.33883,-11.0507c0.442,-4.56218 -3.08247,-9.77767 -3.93178,-14.19032c-0.44827,-2.32908 -0.72403,-4.5038 -0.83028,-6.60132c-1.75285,0.53883 -3.38057,1.45414 -4.78046,3.03351c-3.84859,4.342 3.35894,17.24684 3.75444,22.18877c0.19049,2.37985 -0.10416,4.67833 -0.70529,6.90875c0.05069,-0.09541 0.10218,-0.19165 0.15456,-0.28871zM118.80698,349.37532c-4.655,0.55238 -13.36867,0.63944 -16.90331,4.56517c-2.27818,2.53028 -3.08102,6.07346 -4.69826,9.06966c-0.29735,0.86554 -0.55828,1.70635 -0.78329,2.53067c0.0993,-0.01507 0.19865,-0.03053 0.29796,-0.04639c7.64909,-2.27955 19.23439,0.39574 25.77527,-4.22814c5.24522,-3.70794 7.80557,-8.17534 8.5982,-13.03507c-4.10421,0.37634 -8.2273,0.66239 -12.28654,1.14413z" fill="#000000" stroke-width="0.5"/><g stroke-width="0"><g><path d="M144.18731,270.89741l70.16449,-130.78849l11.69231,6.27259l-70.16449,130.78849z" fill="url(#color-19)"/><g><path d="M66.98017,265.33271l7.29731,-13.60238l142.16701,76.26877l-7.29731,13.60238z" fill="url(#color-20)"/><path d="M70.84127,273.64789l12.46624,-23.2374l8.40074,4.50678l-12.46624,23.2374z" fill="url(#color-21)"/><path d="M92.23776,286.26817l12.46624,-23.2374l8.40074,4.50678l-12.46624,23.2374z" fill="url(#color-22)"/><path d="M168.94776,326.59932l12.46624,-23.2374l8.40074,4.50678l-12.46624,23.2374z" fill="url(#color-23)"/><path d="M190.34422,339.21959l12.46624,-23.2374l8.40074,4.50678l-12.46624,23.2374z" fill="url(#color-24)"/></g><g><path d="M54.15635,304.49366l7.29731,-13.60238l129.45547,69.44935l-7.29731,13.60238z" fill="url(#color-25)"/><path d="M57.43969,312.49885l12.46624,-23.2374l7.64962,4.10382l-12.46624,23.2374z" fill="url(#color-26)"/><path d="M76.88052,324.06999l12.46624,-23.2374l7.6496,4.1038l-12.46624,23.2374z" fill="url(#color-27)"/><path d="M146.76228,360.73795l12.46624,-23.2374l7.6496,4.1038l-12.46624,23.2374z" fill="url(#color-28)"/><path d="M166.20311,372.3091l12.46624,-23.2374l7.64962,4.10382l-12.46624,23.2374z" fill="url(#color-29)"/></g><g><path d="M42.92151,344.50699l7.29731,-13.60238l113.56603,60.9251l-7.29731,13.60238z" fill="url(#color-30)"/><path d="M45.4826,352.12474l12.46624,-23.2374l6.7107,3.6001l-12.46624,23.2374z" fill="url(#color-31)"/><path d="M62.47884,362.38444l12.46624,-23.2374l6.7107,3.6001l-12.46624,23.2374z" fill="url(#color-32)"/><path d="M123.82531,394.47344l12.46624,-23.2374l6.7107,3.6001l-12.46624,23.2374z" fill="url(#color-33)"/><path d="M140.82163,404.7332l12.46624,-23.2374l6.7107,3.6001l-12.46624,23.2374z" fill="url(#color-34)"/></g><path d="M63.67333,410.22651l17.34978,-32.6153l55.00124,-111.78467l31.03608,16.65003l-62.82925,107.68942l-17.46652,32.44839z" fill="url(#color-35)"/><path d="M56.93409,227.11228l3.83593,-7.15025l187.49529,100.58615l-3.83593,7.15025z" fill="url(#color-36)"/><path d="M258.47748,330.11921c-3.29547,6.14284 -10.59104,8.64192 -16.29511,5.58184c-5.70407,-3.06008 -7.65659,-10.52051 -4.36112,-16.66335c3.29547,-6.14284 10.59099,-8.64194 16.29509,-5.58185c5.70407,3.06008 7.65663,10.52049 4.36116,16.66339z" fill="url(#color-37)"/><path d="M119.5588,267.98671l9.37668,-17.4784l54.38373,29.17539l-9.37668,17.4784z" fill="url(#color-38)"/><path d="M67.80436,227.82824c-3.29547,6.14284 -10.59104,8.64192 -16.29511,5.58184c-5.70407,-3.06008 -7.65663,-10.52049 -4.36116,-16.66339c3.29547,-6.14284 10.59104,-8.64192 16.29511,-5.58184c5.70407,3.06008 7.65663,10.52049 4.36116,16.66339z" fill="url(#color-39)"/></g><path d="M33.65102,455.29623l27.7878,-51.79719l32.22114,17.28577l-27.7878,51.79719z" fill="url(#color-40)"/><path d="M48.56561,421.63367l4.86436,-9.06732l37.10456,19.90559l-4.86436,9.06732z" fill="url(#color-41)"/><path d="M41.68857,434.45266l4.86436,-9.06732l37.10456,19.90559l-4.86436,9.06732z" fill="url(#color-42)"/></g></g><g stroke-width="0"><path d="M82.13024,199.75198c11.48932,12.99081 10.42929,32.69687 -2.36761,44.01473c-6.26805,5.54358 -12.38584,-9.7861 -22.699,-21.18959c-10.74228,-11.87801 -25.43638,-20.08004 -18.90753,-25.8543c12.7969,-11.31785 32.48481,-9.96162 43.97415,3.02917z" fill="url(#color-43)" stroke="none"/><path d="M280.69918,326.84056c-1.20021,8.63293 -16.16014,0.92639 -31.99723,-1.45472c-15.20445,-2.28601 -31.35988,1.09471 -30.20759,-7.19336c2.35247,-16.921 18.18453,-28.70227 35.36193,-26.31416c17.17739,2.3881 29.19537,18.04125 26.84291,34.96225z" data-paper-data="{&quot;index&quot;:null}" fill="url(#color-44)" stroke="none"/><path d="M144.73402,464.70637c-24.46286,29.87115 -158.99964,-39.52107 -144.86386,-81.3193c-1.14631,0.75028 28.68658,-32.78865 45.94952,-69.50792c17.26296,-36.71931 27.59556,-134.7444 125.00377,-84.42755c110.7207,55.2999 27.5859,118.59719 5.45294,157.95886c-22.99399,40.89296 -30.8413,78.14198 -31.54238,77.29592z" data-paper-data="{&quot;index&quot;:null}" fill="url(#color-45)" stroke="#000000"/><path d="M138.33159,449.4887c-20.6737,25.24429 -134.37135,-33.39943 -122.42511,-68.72333c-1.16878,-2.23023 31.01474,-38.01732 45.60373,-69.04898c14.58902,-31.03167 18.43239,-103.51152 100.75254,-60.98847c77.92821,40.25437 37.58108,77.54952 9.4782,121.20822c-22.92663,35.61725 -30.61082,74.95738 -33.40939,77.55257z" data-paper-data="{&quot;index&quot;:null}" fill="url(#color-46)" stroke="#000000"/></g><g><path d="M222.80348,179.51291c37.13036,37.50764 55.51742,90.59084 30.24264,104.52947c-46.60847,25.70381 -67.08804,6.20991 -104.21843,-31.29773c-37.13036,-37.50764 -53.82628,-66.46918 -30.24261,-104.52945c15.18611,-24.50794 67.08804,-6.20991 104.2184,31.29769z" fill="url(#color-47)" stroke="#000000" stroke-width="0"/><g><g fill="url(#color-48)" stroke="#000000" stroke-width="0"><path d="M180.73991,221.18091c29.74964,30.0519 48.0903,69.01097 31.96692,76.09309c-29.73261,13.05992 -46.01642,-2.68261 -75.76605,-32.73447c-29.74964,-30.0519 -44.3916,-52.00435 -31.96692,-76.09309c8.00055,-15.51131 46.01641,2.68258 75.76605,32.73447z"/></g><g fill="none" stroke="none" stroke-width="1" font-family="sans-serif" font-weight="normal" font-size="12" text-anchor="start"/></g><path d="M222.34389,179.43432c28.75691,29.04909 44.10766,76.63604 21.47138,90.4618c-8.12772,4.96426 -19.06451,4.56781 -25.5217,6.65637c-26.70587,8.63801 -27.65707,13.39853 -67.26859,-26.51661c-41.54399,-41.86246 -31.78099,-43.86312 -25.71936,-67.02428c1.81544,-6.93672 0.64087,-18.92332 5.95667,-26.81209c14.85204,-22.04058 62.32468,-5.81435 91.08162,23.23477z" fill="url(#color-49)" stroke="#000000" stroke-width="0"/><path d="M196.5801,186.7586l1.90022,-1.88112l17.81713,17.99814l-1.90022,1.88112z" fill="url(#color-50)" stroke="none" stroke-width="0"/><g stroke="none" stroke-width="0"><path d="M187.58036,199.7304c0.20479,-0.20274 12.79565,-12.60939 12.79565,-12.60939l13.60956,13.73575c0,0 -12.46773,12.43421 -12.727,12.69087c-3.63248,3.59593 -7.49773,1.29806 -11.27489,-2.51746c-3.77716,-3.81551 -6.03583,-7.70382 -2.40337,-11.29974z" fill="url(#color-51)"/><path d="M188.78476,198.53812c0.20479,-0.20274 12.79565,-12.60939 12.79565,-12.60939l13.60956,13.73575c0,0 -12.46773,12.4342 -12.72701,12.69086c-3.63248,3.59593 -7.49773,1.29807 -11.2749,-2.51745c-3.77716,-3.81551 -6.03583,-7.70382 -2.40337,-11.29974z" fill="url(#color-52)"/></g></g><g><path d="M240.15302,70.56336l4.81121,-4.76282l89.14805,90.05382l-4.81121,4.76283z" data-paper-data="{&quot;index&quot;:null}" fill="url(#color-53)" stroke="none" stroke-width="0"/><path d="M195.76996,114.22106l53.11047,-52.57629l4.47078,4.51621l-53.11047,52.57628z" fill="url(#color-54)" stroke="none" stroke-width="0"/><path d="M280.58672,199.89959l53.11047,-52.57628l4.47078,4.5162l-53.11047,52.57628z" data-paper-data="{&quot;index&quot;:null}" fill="url(#color-55)" stroke="none" stroke-width="0"/><path d="M247.72149,153.77442l-0.80563,0.54237c-0.7441,1.80882 -1.74056,3.51549 -2.82787,5.14127c-0.31613,0.48831 -0.54948,1.008 -0.72257,1.55057c-0.04086,0.21305 -0.09655,0.42151 -0.1715,0.624c-0.54296,2.32005 -0.1921,4.97924 -0.55531,7.36763c-0.30155,1.98303 -3.1741,4.90275 -3.71285,7.10004c-0.28458,1.16057 1.27418,4.16952 1.29218,4.62694c0.23794,6.04268 -5.24494,4.24067 -6.10296,8.60381c-0.75401,3.83422 13.71428,6.22929 15.6438,6.53709c10.48608,-2.15931 6.17943,-8.69551 13.48209,-14.6171c3.78816,-3.07176 13.05982,-2.43641 15.47981,-7.03747c1.11641,-2.12259 1.42599,-5.70863 1.98269,-8.06955c0,0 0.51533,-2.1827 2.69806,-1.66739c2.1827,0.51533 1.66739,2.69805 1.66739,2.69805c-0.61703,2.61044 -1.07319,6.95816 -2.43599,9.23311c-3.65992,6.1096 -11.68993,4.61148 -16.64943,8.39261c-3.09545,2.35996 -2.78652,6.933 -4.69745,10.17615c-2.61001,4.42968 -6.88866,4.53337 -11.42536,5.37586c-5.68186,-0.78766 -15.66782,-2.10657 -19.00349,-7.81676c-3.31184,-5.66946 1.83367,-7.03169 4.83476,-10.26863c0.69796,-0.75284 -1.41546,-5.66325 -1.19269,-6.89097c0.38279,-2.10968 3.48217,-5.43616 3.72231,-7.15548c0.10989,-0.78679 0.15099,-1.49811 0.16154,-2.16291c-3.06316,0.69959 -6.4255,-1.0024 -10.16637,0.82277c-4.19315,2.04585 -4.73859,9.59033 -10.62596,9.27048c-2.83913,-0.15424 -4.46684,-2.69476 -6.55032,-4.07406c-7.90097,-5.23061 -11.07231,-8.43224 -9.2379,-18.5131c0.81166,-1.37865 2.19572,-2.5084 2.54386,-4.06989c0.86724,-3.88985 -3.70317,-6.70313 -1.46503,-10.9516c2.24284,-4.25749 9.97407,-5.18107 13.68878,-7.60458c2.67174,-1.74308 1.96264,-3.72748 3.24622,-6.12044c1.84544,-3.44039 6.98368,-6.17352 10.23413,-8.01582c0,0 1.95282,-1.10283 3.05563,0.84997c1.10282,1.95283 -0.84999,3.05564 -0.84999,3.05564c-2.2164,1.24675 -7.34057,3.75302 -8.46196,6.18278c-1.38105,2.99237 -1.44516,5.51575 -4.61985,7.69981c-2.98012,2.05019 -10.28248,3.06144 -12.36809,6.12371c-0.7652,1.12353 1.53929,4.58105 1.70671,5.5824c0.70239,4.20127 -0.44291,5.57349 -2.50917,8.83907c-1.2608,8.09089 1.39391,9.18179 7.49374,13.18955c1.50433,0.98838 2.46196,3.06509 4.24027,3.34356c1.92719,0.30181 6.64292,-7.8891 8.52294,-8.82396c3.33764,-1.65961 8.07125,0.61528 10.86916,-0.829c2.41595,-1.24713 1.6743,-4.27896 2.07316,-6.57564c0.86513,-2.06684 2.27691,-3.9146 3.85022,-5.50989l1.51974,-0.97931c0,0 1.92895,-1.14415 3.0731,0.78478c0.25803,0.43498 0.35976,0.83009 0.36256,1.18116c1.10427,1.48093 -0.28715,2.85835 -0.28715,2.85835z" fill="url(#color-56)" stroke="none" stroke-width="0.5"/><path d="M216.46807,84.97692l6.2559,-6.19296l97.5463,98.5374l-6.2559,6.19296z" fill="url(#color-57)" stroke="none" stroke-width="0"/><g stroke="#000000" stroke-width="0"><path d="M263.3387,126.25418c-11.51481,11.39897 -29.85908,11.53847 -40.97309,0.31155c-11.114,-11.22694 -10.78914,-29.56884 0.7257,-40.96783c11.51481,-11.39897 29.85907,-11.53846 40.97308,-0.31154c11.114,11.22694 10.78916,29.56884 -0.7257,40.96782z" fill="url(#color-58)"/><g><path d="M246.07595,102.76553c-3.47252,-3.50779 -3.37102,-9.23864 0.22672,-12.8002c3.59774,-3.56156 9.32929,-3.6051 12.80182,-0.09734c3.47252,3.50779 3.37102,9.23864 -0.22672,12.8002c-3.59774,3.56156 -9.3293,3.60511 -12.80182,0.09735z" fill="#f500ff"/><path d="M247.16498,101.68745c-2.892,-2.9214 -2.80748,-7.6941 0.18882,-10.66027c2.99627,-2.96613 7.76965,-3.00245 10.66163,-0.08105c2.892,2.9214 2.80748,7.6941 -0.18882,10.66027c-2.99627,2.96613 -7.76966,3.00243 -10.66164,0.08105z" fill="#000000"/></g></g><g stroke="#000000" stroke-width="0"><path d="M313.47789,176.90283c-11.51481,11.39897 -29.85907,11.53847 -40.97308,0.31154c-11.114,-11.22694 -10.78916,-29.56884 0.7257,-40.96782c11.51481,-11.39897 29.85908,-11.53847 40.97309,-0.31155c11.114,11.22694 10.78914,29.56884 -0.72571,40.96783z" fill="url(#color-59)"/><g><path d="M296.21515,153.41415c-3.47252,-3.50779 -3.37102,-9.23864 0.22672,-12.8002c3.59774,-3.56156 9.32929,-3.6051 12.80182,-0.09734c3.47252,3.50779 3.37102,9.23864 -0.22672,12.8002c-3.59774,3.56156 -9.32929,3.6051 -12.80182,0.09734z" fill="#f500ff"/><path d="M297.3042,152.33607c-2.892,-2.9214 -2.80748,-7.6941 0.18882,-10.66027c2.99627,-2.96613 7.76965,-3.00245 10.66163,-0.08105c2.892,2.9214 2.80748,7.6941 -0.18882,10.66027c-2.99627,2.96613 -7.76966,3.00243 -10.66164,0.08105z" fill="#000000"/></g></g><path d="M233.65591,157.65629l54.45599,-53.35282l7.33363,7.73232l-54.45599,53.35282z" fill="url(#color-60)" stroke="none" stroke-width="0"/><path d="M214.91292,202.09166l33.46312,-33.12655l4.32087,4.36475l-33.46312,33.12655z" fill="url(#color-61)" stroke="none" stroke-width="0"/><path d="M193.30865,180.2679l33.46312,-33.12655l4.32087,4.36475l-33.46312,33.12655z" fill="url(#color-62)" stroke="none" stroke-width="0"/><path d="M226.05364,81.07329l-29.40443,28.66733l92.81683,94.20985l29.70077,-28.8002l5.99009,6.23801l-36.71264,35.59698l-104.58616,-106.57778l36.29104,-35.44711z" fill="url(#color-63)" stroke="none" stroke-width="0"/></g><g stroke-width="0"><g><path d="M249.10527,63.21758l0.53963,-60.76804l4.91551,0.02382l-0.53968,60.76803z" fill="url(#color-64)" stroke="none"/><g stroke="#000000"><g fill="url(#color-65)"><path d="M278.47149,2.67002c-0.0013,0.99628 3.03621,22.31345 -25.75565,22.11051c-28.40036,-0.20022 -25.67011,-17.15838 -25.78711,-22.03374c-0.50754,-21.15352 25.90015,-64.84044 25.90015,-64.84044c0,0 25.67025,43.60415 25.64254,64.76371z"/></g><g fill="url(#color-66)"><path d="M271.81162,1.04048c-0.00102,0.75814 2.31048,16.97986 -19.59928,16.82543c-21.61181,-0.15234 -19.53421,-13.05706 -19.6232,-16.767c-0.38625,-16.0972 19.73265,-51.79145 19.73265,-51.79145c0,0 19.51101,35.6312 19.48988,51.73299z"/></g></g></g><path d="M254.87582,66.79779c-1.84573,1.82718 -4.8232,1.81211 -6.65035,-0.03362c-1.82718,-1.84573 -1.81211,-4.8232 0.03362,-6.65036c1.84573,-1.82718 4.8232,-1.81211 6.65035,0.03363c1.82718,1.84573 1.81211,4.8232 -0.03362,6.65035z" fill="url(#color-67)" stroke="none"/></g><g data-paper-data="{&quot;index&quot;:null}" stroke-width="0"><g><path d="M336.62342,146.68331l60.77038,0.07463l-0.02586,4.9155l-60.77039,-0.07464z" fill="url(#color-68)" stroke="none"/><g stroke="#000000"><g fill="url(#color-69)"><path d="M397.43884,122.84615c21.15876,0.18617 64.5012,26.29589 64.5012,26.29589c0,0 -43.95162,25.9647 -65.09895,25.2434c-4.87391,-0.16625 -21.85882,2.39244 -21.77194,-26.00849c0.08808,-28.79241 21.37349,-25.53961 22.36971,-25.53084z"/></g><g fill="url(#color-70)"><path d="M399.00098,129.52209c16.10119,0.14168 51.53337,20.01187 51.53337,20.01187c0,0 -35.8958,19.75702 -51.98826,19.20811c-3.70885,-0.12649 -16.63387,1.82055 -16.56776,-19.79169c0.06707,-21.91019 16.26458,-19.43482 17.02268,-19.4282z"/></g></g></g><path d="M339.72617,145.82593c1.82718,1.84573 1.81211,4.8232 -0.03362,6.65036c-1.84573,1.82718 -4.8232,1.81211 -6.65035,-0.03363c-1.82718,-1.84573 -1.81211,-4.8232 0.03362,-6.65035c1.84573,-1.82718 4.8232,-1.81211 6.65035,0.03362z" fill="url(#color-71)" stroke="none"/></g><g stroke-width="0"><g><path d="M280.42466,251.60111l-131.8359,-134.79993c0,0 9.10168,-38.8897 42.18829,-56.10594c39.18199,-20.3879 60.49282,-56.95961 133.32709,16.78648c71.21437,72.17887 33.05662,88.51746 14.50688,128.58497c-18.25901,39.43956 -58.18633,45.53439 -58.18633,45.53439zM218.41361,129.81531c11.61863,11.73668 30.55193,11.83238 42.28859,0.21374c27.32089,-27.04608 25.64567,-44.22625 14.02701,-55.96292c-11.61863,-11.73668 -33.72179,-12.20081 -56.10187,13.4606c-10.85492,12.44646 -11.83238,30.55193 -0.21374,42.28858zM269.41563,180.31103c11.61863,11.73668 31.05129,10.63669 42.78801,-0.98195c11.73668,-11.61863 32.50223,-34.18301 12.81924,-54.06599c-19.33236,-19.52878 -42.10549,1.00758 -53.8422,12.62624c-11.73668,11.61863 -13.38368,30.68504 -1.76505,42.4217z" fill="url(#color-72)" stroke="none"/><g><g stroke="#000000"><path d="M189.35817,137.66634c-7.45218,4.69521 -25.62373,-15.23948 -43.08403,-42.95237c-17.46032,-27.71285 -12.71599,-77.40091 -12.71599,-77.40091c0,0 15.15845,37.14846 32.61878,64.86131c0,0 30.63351,50.79675 23.18129,55.49195z" fill="url(#color-73)"/><path d="M187.62531,142.16969c-6.78852,5.61215 -27.36654,-11.82752 -48.23675,-37.07236c-20.87019,-25.2448 -22.53731,-75.13103 -22.53731,-75.13103c0,0 19.79736,34.89769 40.66759,60.14254c0,0 36.89504,46.44869 30.10649,52.06087z" fill="url(#color-74)"/><path d="M185.52694,141.72948c-5.81926,6.61186 -28.88857,-7.36685 -53.47647,-29.00717c-24.58787,-21.6403 -34.09606,-70.64033 -34.09606,-70.64033c0,0 25.04977,31.34159 49.63764,52.98189c0,0 43.75413,40.05372 37.93487,46.66559z" fill="url(#color-75)"/><path d="M185.13897,146.53905c-4.92328,7.30355 -29.59475,-3.60117 -56.75493,-21.90948c-27.16012,-18.30829 -42.87379,-65.68435 -42.87379,-65.68435c0,0 28.86232,27.87026 56.02244,46.17856c0,0 48.52953,34.11174 43.60628,41.4153z" fill="url(#color-76)"/><path d="M188.05897,142.14262c-3.2132,8.20091 -29.66824,2.93501 -60.1655,-9.0142c-30.49726,-11.94919 -56.15797,-54.76205 -56.15797,-54.76205c0,0 34.24233,20.91039 64.73962,32.8596c0,0 54.79707,22.7157 51.58386,30.91665z" fill="url(#color-77)"/></g><g data-paper-data="{&quot;index&quot;:null}" stroke="#000000"><path d="M313.87469,231.37285c27.53496,17.73957 64.52828,33.27271 64.52828,33.27271c0,0 -49.73349,4.24182 -77.26845,-13.49773c-27.53497,-17.73959 -47.28496,-36.1117 -42.51464,-43.51606c4.77029,-7.40436 55.2548,23.74105 55.2548,23.74105z" fill="url(#color-78)"/><path d="M305.85311,239.95018c25.03255,21.12434 59.72836,41.27345 59.72836,41.27345c0,0 -49.86682,-2.17133 -74.89939,-23.2956c-25.03258,-21.12432 -42.26334,-41.87761 -36.58287,-48.60905c5.68049,-6.73147 51.75388,30.63121 51.75388,30.63121z" fill="url(#color-79)"/><path d="M300.79794,249.82638c21.39063,24.80536 52.47742,50.17066 52.47742,50.17066c0,0 -48.90144,-10.003 -70.29207,-34.80838c-21.39068,-24.8054 -35.13545,-48.01484 -28.46511,-53.76694c6.67033,-5.75211 46.27973,38.40466 46.27973,38.40466z" fill="url(#color-80)"/><path d="M290.67732,255.78371c18.03283,27.34378 45.60988,56.48636 45.60988,56.48636c0,0 -47.2148,-16.19177 -65.24761,-43.53556c-18.03283,-27.34381 -28.68762,-52.12433 -21.33465,-56.97349c7.35295,-4.84918 40.97236,44.02271 40.97236,44.02271z" fill="url(#color-81)"/><path d="M284.52441,260.77947c11.64029,30.61649 32.20348,65.06847 32.20348,65.06847c0,0 -42.55127,-26.09217 -54.19157,-56.70868c-11.64031,-30.61652 -16.63859,-57.1234 -8.40558,-60.25354c8.23301,-3.13015 30.39365,51.89375 30.39365,51.89375z" fill="url(#color-82)"/></g><path d="M178.12632,109.79275c22.59964,-7.48317 38.21142,-3.184 55.1065,13.18054c9.09398,8.33022 18.01317,21.34933 6.46458,39.33952c-2.82561,4.40169 -8.50533,7.45563 -13.82058,12.71741c-18.42815,18.24281 -32.89808,32.57341 -32.89808,32.57341c0,0 -18.17767,-9.37882 -31.51847,-22.85514c-16.54732,-16.71544 -29.48247,-59.67506 16.66605,-74.95569z" data-paper-data="{&quot;index&quot;:null}" fill="url(#color-83)" stroke="#000000"/><path d="M215.46262,239.29947c-13.45191,-13.58858 -23.21329,-31.94776 -23.21329,-31.94776c0,0 15.29738,-14.26638 33.58221,-32.36726c5.16479,-5.11287 9.38935,-9.43845 13.71678,-12.20239c18.32796,-11.70602 30.11692,-3.86833 38.41185,5.37298c16.1929,17.05964 20.33405,32.7141 12.62283,55.23692c-15.74637,45.99167 -58.57304,32.62292 -75.12035,15.90751z" fill="url(#color-84)" stroke="#000000"/><path d="M252.90838,147.65874c3.96968,4.01004 4.88844,9.537 2.05208,12.34486c-2.83638,2.80783 -17.50811,10.89556 -21.47781,6.8855c-3.96972,-4.01004 4.26589,-18.59929 7.10226,-21.40714c2.83638,-2.80783 8.35379,-1.83328 12.32348,2.17678z" fill="url(#color-85)" stroke="none"/></g></g><g stroke="#000000"><path d="M259.67271,45.30117c-2.32667,9.48393 -13.42571,10.98819 -25.58811,11.92809c-28.93905,2.23632 -28.33977,0.06258 -28.33977,0.06258c0,0 6.99732,-5.44101 11.17715,-22.47867c6.95049,-28.3313 -38.64621,-57.14489 25.58825,-11.92806c9.98795,7.03084 19.48919,12.93221 17.16254,22.41606z" fill="url(#color-86)"/><path d="M285.33547,33.3914c77.86785,-10.35503 24.1131,-5.91521 17.1626,22.41609c-4.17983,17.03768 -0.49512,25.09926 -0.49512,25.09926c0,0 -0.47474,2.2043 -25.09312,-13.17122c-10.34661,-6.46204 -19.48924,-12.93216 -17.16256,-22.41609c2.32662,-9.48384 13.48029,-10.31794 25.58813,-11.92809z" data-paper-data="{&quot;index&quot;:null}" fill="url(#color-87)"/><path d="M277.59652,48.44186c-2.38343,9.71522 -12.00381,15.70476 -21.48764,13.37811c-9.48394,-2.32664 -15.23992,-12.0885 -12.85653,-21.80372c2.38343,-9.71522 12.00384,-15.70477 21.48769,-13.37816c9.48394,2.32664 15.23991,12.08859 12.85651,21.80376z" fill="url(#color-88)"/></g></g></g></g></svg>