<svg version="1.1" xmlns="http://www.w3.org/2000/svg" xmlns:xlink="http://www.w3.org/1999/xlink" width="47.93203" height="55.73739" viewBox="0,0,47.93203,55.73739"><g transform="translate(-378.81816,-78.74233)"><g data-paper-data="{&quot;isPaintingLayer&quot;:true}" fill="#ff0000" fill-rule="nonzero" stroke-linecap="butt" stroke-linejoin="miter" stroke-miterlimit="10" stroke-dasharray="" stroke-dashoffset="0" style="mix-blend-mode: normal"><g stroke="none" stroke-width="0.5"><path d="M386.49047,104.85949c0.00031,-0.89838 0.78589,-1.01093 0.9832,-1.02504c0.61711,-0.1872 2.28522,-0.69728 2.58473,-0.6857c2.0633,0.07978 3.7901,1.59592 5.58702,2.3517c1.41075,0.48248 2.85995,0.5708 4.32529,0.47578c-0.01013,-0.04073 -0.02028,-0.08146 -0.03041,-0.12218c-0.44619,-0.28113 -0.8838,-0.56378 -1.31151,-0.84189c-0.52747,-0.5093 -1.18018,-0.91484 -1.58239,-1.5279c-1.27729,-1.94688 -0.64986,-4.67975 -1.65913,-6.84727c-0.61064,-1.31142 -1.9342,-2.27977 -3.14302,-2.99516l-0.61572,-0.30474c0,0 -0.91879,-0.45978 -0.459,-1.37857c0.45979,-0.91878 1.37858,-0.45901 1.37858,-0.45901l0.75393,0.38067c2.22861,1.35426 3.69297,2.95319 4.55022,5.4556c0.75369,2.2001 0.15458,3.85724 1.53857,5.53052c-0.26146,-2.67964 -0.0102,-5.49697 0.00275,-8.16238c0.00838,-1.72535 1.32318,-3.57931 0.94252,-5.24315c-0.64487,-2.8187 -2.681,-4.24045 0.10527,-6.72392c0,0 0.78029,-0.66837 1.44865,0.11194c0.66836,0.78029 -0.11194,1.44866 -0.11194,1.44866c-2.10412,1.69385 0.90313,4.3366 0.56924,6.70442c-0.13781,0.97723 -0.73709,1.84596 -0.90856,2.81785c-0.62616,3.54882 -0.08821,7.28274 0.50886,10.86989c0.01387,0.00839 0.02772,0.0168 0.04159,0.02519c0.35859,-0.93045 0.94698,-1.76539 1.58405,-2.51665c0.01713,-0.01474 0.04148,-0.03581 0.07194,-0.06221c0.87273,-2.64525 1.54571,-5.29537 0.80805,-8.18616c-0.45403,-1.77923 -1.43687,-3.8036 -0.76986,-5.7653c0.45432,-1.33612 2.10154,-2.07051 3.18858,-2.70006c1.11863,-0.64785 2.18033,-1.33963 3.28937,-1.96757c-0.0507,-0.1587 -0.06138,-0.3526 -0.00238,-0.58826c0.24951,-0.99665 1.24617,-0.74712 1.24617,-0.74712l0.59699,0.39723c0.09124,-0.03745 0.95348,-0.36335 1.3481,0.52536c0.29559,0.66567 -0.09028,1.06899 -0.33997,1.24739c0.06991,0.38357 0.06939,0.78483 -0.06878,1.27951c-0.53614,1.91948 -2.56517,2.84672 -2.82238,4.96912c-0.33388,2.75495 0.7517,5.44344 1.30173,8.14251c0.93941,-1.07738 1.69303,-2.34146 2.96549,-3.08581c1.20335,-0.70392 2.39398,-0.71665 3.72888,-0.71813l0.11416,0.00003c0,0 1.0274,0.00034 1.02706,1.02777c-0.00034,1.02741 -1.02776,1.02706 -1.02776,1.02706l-0.11416,-0.00003c-3.30379,-0.00647 -4.08096,2.45087 -6.39537,4.22048c0.00061,0.03842 0.00097,0.07686 0.00113,0.1153c-0.00532,1.32116 -0.39961,2.55924 -0.85409,3.78159c0.02643,0.00561 0.05284,0.01132 0.07924,0.01717c4.03469,0.89329 5.00933,6.38556 8.18998,8.47693c0,0 0.85466,0.57019 0.28446,1.42485c-0.57019,0.85466 -1.42486,0.28447 -1.42486,0.28447c-1.32616,-0.8953 -2.76391,-2.13294 -3.61534,-3.51547c-0.89036,-1.44578 -1.86844,-4.29335 -3.94265,-4.67983c-0.09985,-0.01861 -0.20071,-0.03422 -0.30245,-0.04705c-0.09033,0.26059 -0.17544,0.52209 -0.25213,0.78517c2.06402,1.54948 2.38704,3.76381 3.98587,5.59244c2.01051,2.29949 3.5502,3.14607 3.55345,6.48921c0,0 -0.00035,1.02741 -1.02776,1.02706c-1.02741,-0.00035 -1.02706,-1.02777 -1.02706,-1.02777c0.00498,-2.78543 -1.37006,-3.18697 -3.06369,-5.15702c-1.20363,-1.40009 -1.66543,-3.07083 -2.79755,-4.4338c0.00338,0.18913 0.01511,0.3799 0.03616,0.57251c0.2009,1.83718 0.28159,4.09968 0.86469,5.83781c0.74124,2.20955 2.22833,3.64894 1.75121,6.18832c-0.37228,1.98144 -1.25387,3.5356 -2.32381,5.19693c0,0 -0.55844,0.8624 -1.42083,0.30397c-0.86239,-0.55844 -0.30397,-1.42083 -0.30397,-1.42083c0.91974,-1.41182 1.68273,-2.70749 2.0174,-4.39075c0.41757,-2.10016 -1.05718,-3.37788 -1.66961,-5.22852c-0.61678,-1.86379 -0.77569,-4.2919 -0.95772,-6.26341c-0.06381,-0.69113 -0.02233,-1.35264 0.08619,-1.99477c-0.31634,-0.0057 -0.65281,0.01498 -1.05396,-0.09648c-0.58368,-0.16218 -1.1639,-0.36498 -1.73858,-0.59858c0.28721,2.16918 1.02709,4.22744 1.21184,6.60851c0.28594,3.68539 -1.36303,7.19416 -1.06788,10.91749c0.13331,0.1553 0.59765,0.78624 -0.03333,1.4168c-0.72674,0.72624 -1.45298,-0.00048 -1.45298,-0.00048l-0.52267,-0.84152c-0.42439,-3.88246 1.3662,-7.5524 1.02796,-11.33629c-0.15303,-1.71207 -0.53348,-3.25211 -0.84395,-4.7807c-0.11286,0.53647 -0.26488,1.06408 -0.48797,1.57371c-0.08411,1.13005 -0.31929,2.24472 -0.81992,3.32893c-0.5199,1.12596 -1.14851,1.97361 -1.40441,3.27364c-0.55632,2.82622 1.60139,6.12829 1.60837,9.08267l-0.00009,0.22831c0,0 -0.00035,1.0274 -1.02776,1.02706c-1.02741,-0.00035 -1.02706,-1.02777 -1.02706,-1.02777l0.00008,-0.22831c0.01112,-3.18472 -2.16524,-6.27706 -1.58173,-9.41179c0.20434,-1.09776 0.64425,-1.98448 1.10784,-2.89169c-0.81014,0.51319 -1.68505,0.89645 -2.49626,0.99526c-0.298,0.03629 -1.89634,-0.22176 -2.2715,-0.22339c-1.64713,-0.00715 -3.25092,0.59224 -4.65607,1.35968c0,0 -0.90476,0.48679 -1.39155,-0.41798c-0.48678,-0.90477 0.41798,-1.39156 0.41798,-1.39156c1.54453,-0.82044 2.70565,-1.18639 4.43267,-1.47792c1.13896,-0.19227 2.16318,0.20784 3.25268,0.10772c1.18146,-0.10858 2.70871,-1.42094 3.4425,-2.2759c0.15605,-0.18181 0.29237,-0.36651 0.41168,-0.55388c0.04701,-1.14131 -0.08388,-2.30172 -0.19679,-3.4382c-0.00258,-0.01691 -0.00521,-0.03383 -0.00785,-0.05071c-1.90499,0.06659 -3.82168,-0.05343 -5.50227,-0.60412c-1.47141,-0.64106 -3.23974,-2.13107 -4.91383,-2.21813c-0.72258,-0.03758 -1.38068,0.43357 -2.07378,0.6413l-0.4094,0.04319c0,0 -1.0274,-0.00034 -1.02706,-1.02777zM408.06224,102.58367c-0.58565,0.00946 -1.22579,-0.33638 -1.75512,-0.0856c-0.35782,0.16953 -0.62307,0.47621 -0.89657,0.7724c-0.17921,0.56067 -0.37171,1.13599 -0.57304,1.73607c-0.01687,0.09338 -0.03226,0.18625 -0.04626,0.27864c1.39452,-0.23094 2.78173,-0.42022 4.14274,-0.38929c0.28391,-0.80448 0.53089,-1.6165 0.65205,-2.45994c-0.38549,0.10944 -0.81191,0.13621 -1.52381,0.1477zM408.07945,107.25314c0.01716,-0.0514 0.03452,-0.10274 0.05205,-0.15401c-0.18901,0.02191 -0.3785,0.04765 -0.56788,0.07596c0.17047,0.02919 0.34328,0.05335 0.51581,0.07805zM409.0246,100.4594c0.207,-0.06772 0.40163,-0.14783 0.58569,-0.23855c-0.32869,-3.26992 -1.99514,-6.49455 -1.53267,-9.85404c0.2481,-1.80238 1.81548,-3.18574 2.44685,-4.69032c-0.87363,0.51908 -1.72736,1.06875 -2.62165,1.58549c-0.52508,0.30341 -2.09438,0.89835 -2.29241,1.63605c-0.54782,2.04063 0.8261,4.3341 0.97249,6.30835c0.14488,1.95394 -0.02441,3.60644 -0.38498,5.23345c0.95517,-0.0873 1.88277,0.32834 2.82668,0.01958z"/><path d="M398.51916,81.94164c0.37306,-1.20024 1.61529,-1.00003 1.61529,-1.00003l0.58919,0.09497c0.29725,0.04792 0.61007,0.11276 0.9318,0.18435c0.56113,-0.97617 1.01874,-2.10518 1.98162,-2.39865c1.58441,-0.48288 3.67353,1.36142 5.16143,1.79245c0,0 0.52391,0.15816 0.84999,0.62552c1.46832,0.45485 3.58688,1.48863 4.23902,2.20014c1.76763,1.92861 0.86059,3.81184 1.63011,5.98754c0.31115,0.87975 1.2718,1.28841 1.888,1.9544c0.97555,1.05437 1.95265,2.71387 2.20931,4.22675c0.27621,1.62816 -0.99138,4.59677 0.14403,6.04968c0.43527,0.557 1.03981,0.92915 1.55969,1.39371c-0.26641,1.00414 -0.37068,2.07609 -0.79922,3.01242c-0.00513,0.01118 -1.6104,1.53937 -1.57124,2.14163c0.03535,0.54353 0.46098,0.98959 0.53648,1.5283c0.31128,2.22081 -0.14508,5.66445 -0.62032,7.85005c-0.30128,1.38553 -1.07727,2.69281 -2.05413,3.64736c-0.4362,0.42625 -1.5425,0.69765 -1.30741,1.28019c0.19642,0.48676 0.95803,0.62847 1.01426,1.15604c0.20522,1.9257 -0.82449,3.65799 -2.21979,4.67991c-2.6617,1.94943 -4.79073,0.25073 -7.60076,0.48071c-1.18572,0.09704 -2.38917,0.28518 -3.56611,0.10188c-2.07828,0.21843 -5.81175,0.08058 -7.36186,-1.80437c-0.46017,-0.55957 -0.28515,-1.47699 -0.5676,-2.16058c-0.43501,-1.05281 -1.64654,-1.66381 -2.1587,-2.59534c-0.52413,-0.95333 -0.29312,-2.24681 -0.79532,-3.21383c-1.05535,-2.03209 -2.79282,-4.24173 -2.94809,-6.76188c-0.06556,-1.06417 0.68792,-2.10739 0.49812,-3.154c-0.12823,-0.70704 -2.05016,-2.21318 -2.12063,-2.39047c-0.9577,-2.40931 0.36939,-6.61976 1.66357,-8.48655c1.19625,-2.0533 -0.11074,-4.22052 1.0527,-6.61189c1.07259,-2.20463 1.13619,-2.18079 2.96907,-3.3175c0.58644,-0.3637 1.7433,-0.76599 2.19144,-1.48229c1.24633,-1.9921 0.28069,-3.87902 2.96612,-5.01061zM402.72626,84.71662c-0.94275,0.55795 -2.22011,0.21828 -3.31785,0.29393c-0.57956,0.03996 -0.41295,1.17337 -0.60676,1.76503c-0.22911,0.69944 -0.42144,1.43803 -0.82088,2.04153c-1.41344,2.13541 -3.78737,2.09003 -4.94585,4.42037c-0.89095,1.79218 0.22502,2.80512 -0.17347,4.74231c-0.16346,0.79461 -0.69448,1.44469 -1.04173,2.16702c-1.14632,1.46814 -0.97883,2.54763 -1.27421,4.4264c-0.04782,0.30416 -0.31653,0.63869 -0.1743,0.90617c0.19876,0.3738 0.76571,0.34616 1.01783,0.68024c0.54829,0.72655 1.10924,1.51336 1.32328,2.42193c0.33099,1.40508 -0.46311,2.32613 -0.43942,3.63827c0.03433,1.9014 1.85215,3.87565 2.59866,5.41504c0.45971,0.94795 0.21244,2.20429 0.74108,3.10926c0.62889,1.07662 1.81573,1.73814 2.30304,2.89732c0.1829,0.4351 -0.10366,1.02813 0.142,1.42547c0.16141,0.2611 0.57253,0.11024 0.85445,0.18628c1.62011,0.43696 2.60785,0.63697 4.29447,0.45969c1.85564,0.30988 3.43681,-0.19339 5.32332,-0.01967c1.44889,0.13342 2.75541,0.98465 4.06961,0.01023c0.43432,-0.32203 1.23377,-0.78978 1.0159,-1.308c-0.22463,-0.53427 -1.026,-0.76007 -1.04951,-1.34637c-0.03996,-0.99617 0.4192,-1.97279 0.88176,-2.83555c0.50386,-0.9398 1.72797,-1.23221 2.26575,-2.1498c0.14412,-0.2459 0.4393,-2.57835 0.44595,-2.66181c0.12349,-1.54919 0.60792,-3.65615 0.37838,-5.19891c-0.10809,-0.7265 -0.61471,-1.38711 -0.56591,-2.12106c0.11077,-1.66621 1.17957,-3.28717 2.51239,-4.04006c-3.80582,-1.21215 -0.80077,-6.3358 -2.22066,-8.98943c-1.06094,-1.98277 -2.58144,-2.10181 -3.50582,-4.41361c-0.40818,-1.0208 -0.03225,-4.09385 -0.89151,-4.83392c-0.32451,-0.27949 -0.80671,-0.23235 -1.18044,-0.42718c-0.65981,-0.34396 -1.36371,-1.15428 -2.19625,-1.1479c-1.10086,0.00844 -2.12539,0.72369 -3.22556,0.76708c-0.79334,0.03129 -1.66694,-0.10549 -2.53776,-0.2803z" data-paper-data="{&quot;index&quot;:null}"/></g><g><path d="M396.66265,109.06671l0.00247,-7.26036l0.82193,0.00028l-0.00247,7.26036z" stroke="none" stroke-width="0"/><path d="M411.777,109.07184l0.00247,-7.26036l0.82192,0.00028l-0.00246,7.26036z" stroke="none" stroke-width="0"/><path d="M392.6062,102.99981l0.00049,-1.44267l24.14576,0.00821l-0.00049,1.44267z" stroke="none" stroke-width="0"/><g stroke-width="0"><path d="M415.73912,102.39628c-0.0007,2.05413 -1.59301,3.71881 -3.55653,3.71814c-1.96352,-0.00066 -3.55469,-1.66642 -3.55399,-3.72056c0.0007,-2.05413 1.593,-3.71881 3.55652,-3.71814c1.96352,0.00066 3.5547,1.66642 3.554,3.72055z" stroke="none"/><g stroke="#a70000"><path d="M413.62677,102.44869c-0.00028,0.8211 -0.64862,1.48651 -1.44812,1.48625c-0.79951,-0.00028 -1.44739,-0.66613 -1.44711,-1.48722c0.00028,-0.8211 0.64862,-1.48653 1.44813,-1.48624c0.79951,0.00028 1.4474,0.66614 1.44712,1.48723z"/><path d="M413.2812,102.44857c-0.0002,0.6251 -0.4938,1.13166 -1.10244,1.13146c-0.60865,-0.0002 -1.10189,-0.50711 -1.10168,-1.1322c0.0002,-0.6251 0.49379,-1.13168 1.10244,-1.13147c0.60865,0.0002 1.10189,0.50712 1.10168,1.13222z"/></g><path d="M415.73912,102.39628c0,0.01511 -1.79978,-0.84168 -3.58853,-0.83011c-1.76639,0.01142 -3.52202,0.89166 -3.52198,0.8277c0.0007,-2.05413 1.593,-3.71881 3.55652,-3.71814c1.96352,0.00066 3.5547,1.66643 3.554,3.72056z" stroke="none"/></g><path d="M401.91555,118.28222l0.00344,-0.76162l5.23051,0.02358l-0.00344,0.76162z" stroke="none" stroke-width="0"/><path d="M406.58593,118.50465l0.02815,-8.76536l0.91466,0.00585l-0.02814,8.76536z" stroke="none" stroke-width="0"/><path d="M401.66077,118.47319l0.02815,-8.76535l0.91465,0.00584l-0.02814,8.76536z" stroke="none" stroke-width="0"/><g stroke="none" stroke-width="0"><path d="M402.82783,124.59728l0.03314,-7.35222l3.50346,0.0158l-0.03313,7.35221z"/><path d="M402.82783,124.59728l0.00417,-0.92567l3.50347,0.01579l-0.00418,0.92567z"/></g><path d="M393.93065,108.65836l21.59757,0.05291l0.00086,2.13289l-21.60011,-0.05348z" stroke="none" stroke-width="0"/><g><path d="M397.82407,113.92353c-0.33585,0.06705 -0.4029,-0.26878 -0.4029,-0.26878l-0.04959,-0.25302c-0.2072,-1.66216 0.5467,-2.9392 -0.33315,-4.4159c-0.57061,-1.56189 -0.04894,-2.19707 0.01382,-3.67517c0.03353,-0.78959 -0.50995,-1.47809 -0.59102,-2.23412c-0.08703,-0.81161 0.4731,-1.30875 0.64814,-2.03804c0,0 0.08318,-0.33222 0.41539,-0.24904c0.33222,0.08318 0.24905,0.4154 0.24905,0.4154c-0.15703,0.60757 -0.70719,1.14731 -0.63171,1.79718c0.09094,0.78282 0.64091,1.50176 0.59466,2.33255c-0.07801,1.40117 -0.60341,1.90693 -0.07989,3.35686c0.96037,1.59052 0.17757,2.88637 0.39438,4.62555l0.0416,0.20364c0,0 0.06704,0.33584 -0.26879,0.40289z" stroke="none" stroke-width="0.5"/><path d="M396.84374,113.65587c-0.34247,-0.00011 -0.34235,-0.34258 -0.34235,-0.34258l0.00009,-0.27398c0.01975,-1.57131 1.3263,-2.38578 1.32555,-3.92654c0.00682,-1.70167 -1.03243,-2.79709 -1.78572,-4.17912c-0.53724,-0.98565 -0.38349,-2.58688 -0.26435,-3.66772c0,0 0.03794,-0.34034 0.37831,-0.30242c0.34035,0.03794 0.30242,0.3783 0.30242,0.3783c-0.09006,0.79841 -0.23131,2.09311 0.03017,2.87056c0.58756,1.74692 2.01818,2.85892 2.02411,4.90063c-0.00194,1.57831 -1.35056,2.42436 -1.32555,3.92654l-0.00009,0.27398c0,0 -0.00011,0.34247 -0.34258,0.34236z" stroke="none" stroke-width="0.5"/><g stroke-width="0"><path d="M399.84442,114.44583c-0.0007,2.05413 -1.59301,3.71881 -3.55653,3.71814c-1.96352,-0.00066 -3.55469,-1.66642 -3.55399,-3.72055c0.0007,-2.05413 1.593,-3.71881 3.55652,-3.71815c1.96352,0.00066 3.55469,1.66642 3.55399,3.72056z" stroke="none"/><g stroke="#a70000"><path d="M396.86391,116.1418c-0.00028,0.8211 -0.64862,1.48652 -1.44813,1.48624c-0.79951,-0.00028 -1.44739,-0.66612 -1.44711,-1.48722c0.00028,-0.8211 0.64862,-1.48653 1.44812,-1.48625c0.79951,0.00028 1.44739,0.66613 1.44711,1.48722z"/><path d="M396.51836,116.14168c-0.0002,0.6251 -0.49378,1.13167 -1.10244,1.13147c-0.60865,-0.0002 -1.10188,-0.50711 -1.10168,-1.13221c0.0002,-0.6251 0.49379,-1.13167 1.10244,-1.13147c0.60865,0.0002 1.10188,0.50713 1.10167,1.13222z"/></g></g></g><path d="M400.67043,102.39116c0,0.01511 -1.79994,-0.38505 -3.58868,-0.37349c-1.76639,0.01142 -3.52186,0.43504 -3.52184,0.37107c0.0007,-2.05413 1.593,-3.7188 3.55652,-3.71814c1.96352,0.00066 3.5547,1.66642 3.55399,3.72056z" stroke="none" stroke-width="0"/></g><path d="M410.01821,125.96892l-0.02754,-0.00551l-0.03855,-0.06058l-0.04926,-0.04926l-0.17511,-0.29185l-0.10677,0.21354l-0.08517,0.09936c0.17201,0.04092 0.34238,0.08362 0.51139,0.12329zM417.98871,92.08606c-0.00013,-0.00077 -0.00026,-0.00154 -0.00039,-0.00231c-0.00045,0 -0.0009,-0.00001 -0.00135,-0.00001c0.00058,0.00078 0.00116,0.00155 0.00174,0.00233zM397.52463,114.48935l0.02675,0.05349l0.19938,0.29907l0.03764,0.1054c0.14495,-0.31238 0.29418,-0.61907 0.44201,-0.91181l-0.32544,0.19526l-0.54301,-0.14809zM398.91763,117.05196l0.253,0.2783v-1.28953c-0.13137,0.2927 -0.25613,0.58716 -0.36832,0.87669zM403.54994,104.02775l-0.25095,0.25095l-0.59402,0.83163l-0.15906,0.1355l-0.1075,0.17917l-0.39927,0.39927c0.04363,0.11816 0.08544,0.23204 0.12521,0.34253c0.54359,-0.68172 1.00454,-1.439 1.3856,-2.13905zM402.40557,111.36937l-0.01705,-0.00909l-0.0719,0.01598c-0.09101,0.09462 -0.18191,0.18927 -0.27236,0.2842h0.3747c0.01469,-0.07952 0.02984,-0.15873 0.04545,-0.23759zM414.29892,102.86667l0.01457,-0.02289v-0.44845l-0.07143,-0.09524l-0.12803,-0.30406l-0.19316,-0.26746l-0.00862,-0.02156c0.09964,0.40176 0.23261,0.80579 0.36961,1.21085zM403.63706,78.82228c0.7659,-0.23342 1.64973,0.07695 2.52658,0.50862c0.40032,0.03469 0.80017,0.07336 1.19829,0.10377c3.23077,0.24677 5.67999,-1.55884 8.73892,0.51712c1.60352,1.08825 2.78618,2.93197 2.54879,4.98051c-0.06504,0.56122 -0.94083,0.71141 -1.16705,1.22911c-0.26786,0.613 0.97425,0.90296 1.48607,1.34856c1.09465,0.17613 2.17769,0.5472 2.96193,0.81267c0.57329,0.19406 1.99268,-1.10852 2.94428,-1.13567l0.80403,-0.20734c0,0 0.83068,-0.20737 1.03805,0.62332l0,0.00001c0.20737,0.83068 -0.62331,1.03806 -0.62331,1.03806l-1.01013,0.24555c-1.38308,-0.05539 -1.94125,1.3605 -3.40553,1.12969c-0.45615,-0.07188 -0.77235,-0.52167 -1.20197,-0.68978c0.39634,0.65005 0.69812,1.35487 0.86793,2.07973c0.5448,2.32555 1.06692,5.98951 0.70735,8.35195c-0.08722,0.57308 -0.57695,1.0473 -0.618,1.62552c-0.04548,0.6407 1.7991,2.26771 1.80498,2.27962c0.49202,0.99646 0.61111,2.13696 0.91667,3.20544c-0.59812,0.49385 -1.2935,0.88931 -1.79437,1.48157c-1.30656,1.54487 0.14866,4.70405 -0.17015,6.43599c-0.29625,1.60932 -1.42096,3.37407 -2.54343,4.49506c-0.70899,0.70806 -1.81384,1.14211 -2.17226,2.07782c-0.29952,0.78192 -0.37892,1.52846 -0.43123,2.25336c0.19216,0.53499 0.26849,1.14986 0.20468,1.89628c-0.06674,0.78069 -0.62878,1.6258 -0.29055,2.33258c0.29568,0.61787 1.10451,0.84881 1.49034,1.41479c0.96461,1.41504 -0.24702,3.036 1.48591,3.05787l1.01422,0.58598c0,0 0.71221,0.47517 0.23706,1.18738l-0.00001,-0.00002c-0.47517,0.71221 -1.18739,0.23707 -1.18739,0.23707l-0.34598,-0.32147c-0.60012,-0.1476 -1.32168,-0.05193 -1.80038,-0.4428c-1.06433,-0.86907 -0.044,-2.32823 -0.79292,-3.30326c-0.49181,-0.64031 -1.34987,-0.97953 -1.6831,-1.76081c-0.06505,-0.15252 -0.10577,-0.31162 -0.12772,-0.47575c-0.98933,0.72453 -3.04614,1.62155 -4.52732,2.04506c-0.37529,0.49696 -0.97778,0.66484 -0.97778,0.66484c-1.71109,0.45745 -4.11454,2.41796 -5.9359,1.90305c-1.1069,-0.31292 -1.63218,-1.51438 -2.27664,-2.55334c-0.36998,0.07591 -0.7297,0.14466 -1.07151,0.19542l-0.67752,0.10058c0,0 -1.42845,0.21206 -1.85649,-1.06511l-0.00002,-0.00001c-3.07399,-1.20089 -1.9843,-3.19594 -3.38893,-5.30646c-0.19493,-0.20575 -0.406,-0.40072 -0.61143,-0.59615c-0.61602,-0.43022 -1.44008,-0.73029 -1.92486,-1.00891c-2.10656,-1.2107 -2.17973,-1.18538 -3.41132,-3.53163c-1.33591,-2.54498 0.16849,-4.84963 -1.2054,-7.035c-1.48662,-1.987 -3.00933,-6.46739 -1.90637,-9.02987c0.08116,-0.18855 2.29212,-1.78947 2.44009,-2.54157c0.21901,-1.11332 -0.64656,-2.22374 -0.57038,-3.35585c0.18043,-2.68102 2.17982,-5.03049 3.39477,-7.19159c0.57817,-1.0284 0.31352,-2.40469 0.91688,-3.4185c0.14665,-0.24641 0.34303,-0.4717 0.56305,-0.68834c-1.38696,-1.09073 -3.23503,-1.68034 -5.06318,-1.71545c-0.96319,-0.0185 -1.9848,0.73074 -2.84724,1.06762c-1.45711,0.56918 -2.43396,0.51785 -3.95583,0.51734l-0.68025,-0.00023c0,0 -0.85618,-0.0003 -0.85588,-0.85647l-0.00004,0.00001c0.0003,-0.85617 0.85648,-0.85589 0.85648,-0.85589l0.68025,0.00023c0.71013,0.00024 1.434,0.15092 2.13037,0.01178c1.59917,-0.31956 2.98145,-1.57557 4.67271,-1.59673c2.36605,-0.02961 4.63702,0.80867 6.31954,2.2777c0.27268,-0.27836 0.51035,-0.57757 0.66402,-0.92107c0.32527,-0.72705 0.12473,-1.70318 0.65425,-2.29816c1.69337,-1.90267 5.64808,-2.12868 8.08877,-1.94652c0.21578,-0.21459 0.46099,-0.38003 0.75251,-0.46888zM389.79695,109.24096c-0.0346,-0.19079 -0.19981,-0.43976 -0.42401,-0.70511c0.11012,0.27843 0.25308,0.55737 0.44404,0.8462c-0.00488,-0.04703 -0.0115,-0.09405 -0.02003,-0.14109zM395.5531,86.95226c0.00677,-0.01082 0.01348,-0.02164 0.02012,-0.03246c-0.03745,0.03575 -0.07474,0.07164 -0.11177,0.1077c0.00549,0.01122 0.01095,0.02246 0.01639,0.03371c0.02688,-0.0355 0.05202,-0.0718 0.07527,-0.10895zM420.89673,105.81392c-0.07542,-0.03948 -0.1501,-0.0812 -0.22394,-0.12506c-0.02798,0.07706 -0.05761,0.15342 -0.08913,0.229c0.09962,-0.03717 0.20391,-0.07185 0.31307,-0.10394z" stroke="none" stroke-width="0.5"/></g></g></svg>