<svg version="1.1" xmlns="http://www.w3.org/2000/svg" xmlns:xlink="http://www.w3.org/1999/xlink" width="416.53" height="228.34711" viewBox="0,0,416.53,228.34711"><defs><linearGradient x1="254.41102" y1="223.91845" x2="251.63533" y2="227.64733" gradientUnits="userSpaceOnUse" id="color-1"><stop offset="0" stop-color="#9f896a"/><stop offset="1" stop-color="#6e604b"/></linearGradient><linearGradient x1="253.48877" y1="223.19187" x2="251.49609" y2="228.63564" gradientUnits="userSpaceOnUse" id="color-2"><stop offset="0" stop-color="#b9a17e"/><stop offset="1" stop-color="#9f896a"/></linearGradient><linearGradient x1="251.71116" y1="222.99706" x2="251.98025" y2="228.92716" gradientUnits="userSpaceOnUse" id="color-3"><stop offset="0" stop-color="#e0c297"/><stop offset="1" stop-color="#b9a17e"/></linearGradient><linearGradient x1="253.00724" y1="218.23054" x2="253.2987" y2="224.6534" gradientUnits="userSpaceOnUse" id="color-4"><stop offset="0" stop-color="#e0c297"/><stop offset="1" stop-color="#b9a17e"/></linearGradient><linearGradient x1="255.52591" y1="222.32459" x2="253.51725" y2="222.94201" gradientUnits="userSpaceOnUse" id="color-5"><stop offset="0" stop-color="#e0c297"/><stop offset="1" stop-color="#b9a17e"/></linearGradient><linearGradient x1="291.73044" y1="223.91845" x2="294.50613" y2="227.64733" gradientUnits="userSpaceOnUse" id="color-6"><stop offset="0" stop-color="#9f896a"/><stop offset="1" stop-color="#6e604b"/></linearGradient><linearGradient x1="292.65269" y1="223.19187" x2="294.64537" y2="228.63564" gradientUnits="userSpaceOnUse" id="color-7"><stop offset="0" stop-color="#b9a17e"/><stop offset="1" stop-color="#9f896a"/></linearGradient><linearGradient x1="294.4303" y1="222.99706" x2="294.16122" y2="228.92716" gradientUnits="userSpaceOnUse" id="color-8"><stop offset="0" stop-color="#e0c297"/><stop offset="1" stop-color="#b9a17e"/></linearGradient><linearGradient x1="293.13423" y1="218.23054" x2="292.84277" y2="224.6534" gradientUnits="userSpaceOnUse" id="color-9"><stop offset="0" stop-color="#e0c297"/><stop offset="1" stop-color="#b9a17e"/></linearGradient><linearGradient x1="290.61555" y1="222.32459" x2="292.62422" y2="222.94201" gradientUnits="userSpaceOnUse" id="color-10"><stop offset="0" stop-color="#e0c297"/><stop offset="1" stop-color="#b9a17e"/></linearGradient><linearGradient x1="224.96884" y1="216.92657" x2="224.96739" y2="221.58657" gradientUnits="userSpaceOnUse" id="color-11"><stop offset="0" stop-color="#9f896a"/><stop offset="1" stop-color="#6e604b"/></linearGradient><linearGradient x1="226.31053" y1="217.10652" x2="224.93312" y2="222.75221" gradientUnits="userSpaceOnUse" id="color-12"><stop offset="0" stop-color="#b9a17e"/><stop offset="1" stop-color="#9f896a"/></linearGradient><linearGradient x1="227.57176" y1="217.7767" x2="224.8266" y2="223.05652" gradientUnits="userSpaceOnUse" id="color-13"><stop offset="0" stop-color="#e0c297"/><stop offset="1" stop-color="#b9a17e"/></linearGradient><linearGradient x1="226.36908" y1="212.48503" x2="225.9262" y2="218.91511" gradientUnits="userSpaceOnUse" id="color-14"><stop offset="0" stop-color="#e0c297"/><stop offset="1" stop-color="#b9a17e"/></linearGradient><linearGradient x1="223.4922" y1="215.07152" x2="224.49358" y2="216.92489" gradientUnits="userSpaceOnUse" id="color-15"><stop offset="0" stop-color="#e0c297"/><stop offset="1" stop-color="#b9a17e"/></linearGradient><linearGradient x1="168.85282" y1="216.92657" x2="168.85427" y2="221.58657" gradientUnits="userSpaceOnUse" id="color-16"><stop offset="0" stop-color="#9f896a"/><stop offset="1" stop-color="#6e604b"/></linearGradient><linearGradient x1="167.51113" y1="217.10652" x2="168.88854" y2="222.75221" gradientUnits="userSpaceOnUse" id="color-17"><stop offset="0" stop-color="#b9a17e"/><stop offset="1" stop-color="#9f896a"/></linearGradient><linearGradient x1="166.2499" y1="217.7767" x2="168.99506" y2="223.05652" gradientUnits="userSpaceOnUse" id="color-18"><stop offset="0" stop-color="#e0c297"/><stop offset="1" stop-color="#b9a17e"/></linearGradient><linearGradient x1="167.45257" y1="212.48503" x2="167.89546" y2="218.91511" gradientUnits="userSpaceOnUse" id="color-19"><stop offset="0" stop-color="#e0c297"/><stop offset="1" stop-color="#b9a17e"/></linearGradient><linearGradient x1="170.32946" y1="215.07152" x2="169.32808" y2="216.92489" gradientUnits="userSpaceOnUse" id="color-20"><stop offset="0" stop-color="#e0c297"/><stop offset="1" stop-color="#b9a17e"/></linearGradient><radialGradient cx="187.28517" cy="233.51883" r="3.19754" gradientUnits="userSpaceOnUse" id="color-21"><stop offset="0" stop-color="#2b4788"/><stop offset="1" stop-color="#1f3355"/></radialGradient><radialGradient cx="186.87897" cy="235.23443" r="6.34691" gradientUnits="userSpaceOnUse" id="color-22"><stop offset="0" stop-color="#2b4788"/><stop offset="1" stop-color="#1f3355"/></radialGradient><radialGradient cx="189.06956" cy="219.87933" r="3.19754" gradientUnits="userSpaceOnUse" id="color-23"><stop offset="0" stop-color="#2b4788"/><stop offset="1" stop-color="#1f3355"/></radialGradient><radialGradient cx="188.418" cy="221.51756" r="6.34691" gradientUnits="userSpaceOnUse" id="color-24"><stop offset="0" stop-color="#2b4788"/><stop offset="1" stop-color="#1f3355"/></radialGradient><radialGradient cx="184.09297" cy="244.05452" r="6.36841" gradientUnits="userSpaceOnUse" id="color-25"><stop offset="0" stop-color="#767676"/><stop offset="1" stop-color="#404040"/></radialGradient><linearGradient x1="194.08418" y1="180.50226" x2="196.79177" y2="180.24047" gradientUnits="userSpaceOnUse" id="color-26"><stop offset="0" stop-color="#7a7a7a"/><stop offset="1" stop-color="#a4a4a4"/></linearGradient><linearGradient x1="187.80052" y1="173.18426" x2="189.26667" y2="173.0425" gradientUnits="userSpaceOnUse" id="color-27"><stop offset="0" stop-color="#7a7a7a"/><stop offset="1" stop-color="#a4a4a4"/></linearGradient><linearGradient x1="199.78049" y1="172.02593" x2="201.24663" y2="171.88417" gradientUnits="userSpaceOnUse" id="color-28"><stop offset="0" stop-color="#7a7a7a"/><stop offset="1" stop-color="#a4a4a4"/></linearGradient><linearGradient x1="194.13999" y1="166.54152" x2="194.60062" y2="171.30558" gradientUnits="userSpaceOnUse" id="color-29"><stop offset="0" stop-color="#a4a4a4"/><stop offset="1" stop-color="#7a7a7a"/></linearGradient><linearGradient x1="194.14871" y1="167.9651" x2="194.28439" y2="169.36842" gradientUnits="userSpaceOnUse" id="color-30"><stop offset="0" stop-color="#6b6b6b"/><stop offset="1" stop-color="#222222"/></linearGradient><linearGradient x1="197.53836" y1="182.30548" x2="197.62462" y2="183.1977" gradientUnits="userSpaceOnUse" id="color-31"><stop offset="0" stop-color="#9a9a9a"/><stop offset="1" stop-color="#dedede"/></linearGradient><linearGradient x1="196.22547" y1="182.42426" x2="196.31174" y2="183.31648" gradientUnits="userSpaceOnUse" id="color-32"><stop offset="0" stop-color="#9a9a9a"/><stop offset="1" stop-color="#dedede"/></linearGradient><linearGradient x1="194.92146" y1="182.55035" x2="195.00772" y2="183.44256" gradientUnits="userSpaceOnUse" id="color-33"><stop offset="0" stop-color="#9a9a9a"/><stop offset="1" stop-color="#dedede"/></linearGradient><linearGradient x1="193.60858" y1="182.66912" x2="193.69485" y2="183.56134" gradientUnits="userSpaceOnUse" id="color-34"><stop offset="0" stop-color="#9a9a9a"/><stop offset="1" stop-color="#dedede"/></linearGradient><linearGradient x1="195.4415" y1="181.58083" x2="195.56972" y2="182.90698" gradientUnits="userSpaceOnUse" id="color-35"><stop offset="0" stop-color="#a4a4a4"/><stop offset="1" stop-color="#3d3d3d"/></linearGradient><linearGradient x1="197.84305" y1="184.37265" x2="197.92931" y2="185.26487" gradientUnits="userSpaceOnUse" id="color-36"><stop offset="0" stop-color="#dedede"/><stop offset="1" stop-color="#9a9a9a"/></linearGradient><linearGradient x1="196.53173" y1="184.5076" x2="196.618" y2="185.39983" gradientUnits="userSpaceOnUse" id="color-37"><stop offset="0" stop-color="#dedede"/><stop offset="1" stop-color="#9a9a9a"/></linearGradient><linearGradient x1="195.22771" y1="184.63369" x2="195.31398" y2="185.52591" gradientUnits="userSpaceOnUse" id="color-38"><stop offset="0" stop-color="#dedede"/><stop offset="1" stop-color="#9a9a9a"/></linearGradient><linearGradient x1="193.91639" y1="184.76864" x2="194.00266" y2="185.66086" gradientUnits="userSpaceOnUse" id="color-39"><stop offset="0" stop-color="#dedede"/><stop offset="1" stop-color="#9a9a9a"/></linearGradient><linearGradient x1="195.88191" y1="185.05168" x2="196.01013" y2="186.37784" gradientUnits="userSpaceOnUse" id="color-40"><stop offset="0" stop-color="#a4a4a4"/><stop offset="1" stop-color="#3d3d3d"/></linearGradient><radialGradient cx="188.19392" cy="169.30988" r="4.38538" gradientUnits="userSpaceOnUse" id="color-41"><stop offset="0" stop-color="#ffffff"/><stop offset="1" stop-color="#c4bfb5"/></radialGradient><radialGradient cx="189.35429" cy="168.40111" r="1.62971" gradientUnits="userSpaceOnUse" id="color-42"><stop offset="0" stop-color="#ffffff"/><stop offset="1" stop-color="#ffffff" stop-opacity="0"/></radialGradient><radialGradient cx="200.11613" cy="168.2034" r="4.38538" gradientUnits="userSpaceOnUse" id="color-43"><stop offset="0" stop-color="#ffffff"/><stop offset="1" stop-color="#c5c1b7"/></radialGradient><radialGradient cx="201.21011" cy="167.25479" r="1.62972" gradientUnits="userSpaceOnUse" id="color-44"><stop offset="0" stop-color="#ffffff"/><stop offset="1" stop-color="#ffffff" stop-opacity="0"/></radialGradient><linearGradient x1="194.88216" y1="176.2428" x2="195.01124" y2="177.57783" gradientUnits="userSpaceOnUse" id="color-45"><stop offset="0" stop-color="#a4a4a4"/><stop offset="1" stop-color="#686868"/></linearGradient><radialGradient cx="201.75586" cy="163.36211" r="16.75271" gradientUnits="userSpaceOnUse" id="color-46"><stop offset="0" stop-color="#e0c297"/><stop offset="1" stop-color="#b9a17e"/></radialGradient><radialGradient cx="196.74505" cy="158.92796" r="13.84723" gradientUnits="userSpaceOnUse" id="color-47"><stop offset="0" stop-color="#634a14"/><stop offset="1" stop-color="#443014"/></radialGradient><linearGradient x1="197.06045" y1="193.07826" x2="197.06045" y2="216.70783" gradientUnits="userSpaceOnUse" id="color-48"><stop offset="0" stop-color="#a4a4a4"/><stop offset="1" stop-color="#7a7a7a"/></linearGradient><linearGradient x1="197.06045" y1="193.07826" x2="197.06045" y2="195.00591" gradientUnits="userSpaceOnUse" id="color-49"><stop offset="0" stop-color="#a4a4a4"/><stop offset="1" stop-color="#7a7a7a"/></linearGradient><linearGradient x1="197.06045" y1="192.2052" x2="197.06045" y2="195.87898" gradientUnits="userSpaceOnUse" id="color-50"><stop offset="0" stop-color="#303030"/><stop offset="1" stop-color="#4b4b4b"/></linearGradient><radialGradient cx="219.80126" cy="200.8713" r="3.19093" gradientUnits="userSpaceOnUse" id="color-51"><stop offset="0" stop-color="#7582b0"/><stop offset="1" stop-color="#485b9d"/></radialGradient><radialGradient cx="221.74862" cy="203.90762" r="6.88382" gradientUnits="userSpaceOnUse" id="color-52"><stop offset="0" stop-color="#7582b0"/><stop offset="1" stop-color="#485b9d"/></radialGradient><radialGradient cx="174.0204" cy="200.8713" r="3.19093" gradientUnits="userSpaceOnUse" id="color-53"><stop offset="0" stop-color="#7582b0"/><stop offset="1" stop-color="#485b9d"/></radialGradient><radialGradient cx="172.07304" cy="203.90762" r="6.88382" gradientUnits="userSpaceOnUse" id="color-54"><stop offset="0" stop-color="#7582b0"/><stop offset="1" stop-color="#485b9d"/></radialGradient><radialGradient cx="208.98468" cy="192.56801" r="3.17255" gradientUnits="userSpaceOnUse" id="color-55"><stop offset="0" stop-color="#7582b0"/><stop offset="1" stop-color="#485b9d"/></radialGradient><radialGradient cx="211.81111" cy="195.39831" r="6.99649" gradientUnits="userSpaceOnUse" id="color-56"><stop offset="0" stop-color="#7582b0"/><stop offset="1" stop-color="#485b9d"/></radialGradient><radialGradient cx="184.83698" cy="192.56801" r="3.17255" gradientUnits="userSpaceOnUse" id="color-57"><stop offset="0" stop-color="#7582b0"/><stop offset="1" stop-color="#485b9d"/></radialGradient><radialGradient cx="182.01055" cy="195.39831" r="6.99649" gradientUnits="userSpaceOnUse" id="color-58"><stop offset="0" stop-color="#7582b0"/><stop offset="1" stop-color="#485b9d"/></radialGradient><radialGradient cx="206.53696" cy="233.51883" r="3.19754" gradientUnits="userSpaceOnUse" id="color-59"><stop offset="0" stop-color="#2b4788"/><stop offset="1" stop-color="#1f3355"/></radialGradient><radialGradient cx="206.94316" cy="235.23443" r="6.34691" gradientUnits="userSpaceOnUse" id="color-60"><stop offset="0" stop-color="#2b4788"/><stop offset="1" stop-color="#1f3355"/></radialGradient><radialGradient cx="204.75258" cy="219.87933" r="3.19754" gradientUnits="userSpaceOnUse" id="color-61"><stop offset="0" stop-color="#2b4788"/><stop offset="1" stop-color="#1f3355"/></radialGradient><radialGradient cx="205.40413" cy="221.51756" r="6.34691" gradientUnits="userSpaceOnUse" id="color-62"><stop offset="0" stop-color="#2b4788"/><stop offset="1" stop-color="#1f3355"/></radialGradient><radialGradient cx="201.52323" cy="216.28431" r="9.06597" gradientUnits="userSpaceOnUse" id="color-63"><stop offset="0" stop-color="#2b4788"/><stop offset="1" stop-color="#1f3355"/></radialGradient><radialGradient cx="209.72917" cy="244.05452" r="6.36841" gradientUnits="userSpaceOnUse" id="color-64"><stop offset="0" stop-color="#767676"/><stop offset="1" stop-color="#404040"/></radialGradient><linearGradient x1="183.83632" y1="202.10792" x2="210.55089" y2="202.10792" gradientUnits="userSpaceOnUse" id="color-65"><stop offset="0" stop-color="#7582b0"/><stop offset="1" stop-color="#485b9d"/></linearGradient><linearGradient x1="272.04643" y1="179.72436" x2="274.74971" y2="179.95996" gradientUnits="userSpaceOnUse" id="color-66"><stop offset="0" stop-color="#7a7a7a"/><stop offset="1" stop-color="#a4a4a4"/></linearGradient><linearGradient x1="267.21401" y1="171.404" x2="268.67782" y2="171.53157" gradientUnits="userSpaceOnUse" id="color-67"><stop offset="0" stop-color="#7a7a7a"/><stop offset="1" stop-color="#a4a4a4"/></linearGradient><linearGradient x1="279.17492" y1="172.44641" x2="280.63874" y2="172.57398" gradientUnits="userSpaceOnUse" id="color-68"><stop offset="0" stop-color="#7a7a7a"/><stop offset="1" stop-color="#a4a4a4"/></linearGradient><linearGradient x1="274.6399" y1="166.04144" x2="274.22536" y2="170.79792" gradientUnits="userSpaceOnUse" id="color-69"><stop offset="0" stop-color="#a4a4a4"/><stop offset="1" stop-color="#7a7a7a"/></linearGradient><linearGradient x1="274.38957" y1="167.4393" x2="274.26747" y2="168.8404" gradientUnits="userSpaceOnUse" id="color-70"><stop offset="0" stop-color="#6b6b6b"/><stop offset="1" stop-color="#222222"/></linearGradient><linearGradient x1="275.10647" y1="182.12114" x2="275.02883" y2="183.01194" gradientUnits="userSpaceOnUse" id="color-71"><stop offset="0" stop-color="#9a9a9a"/><stop offset="1" stop-color="#dedede"/></linearGradient><linearGradient x1="273.79716" y1="181.9989" x2="273.71952" y2="182.8897" gradientUnits="userSpaceOnUse" id="color-72"><stop offset="0" stop-color="#9a9a9a"/><stop offset="1" stop-color="#dedede"/></linearGradient><linearGradient x1="272.49521" y1="181.88543" x2="272.41758" y2="182.77624" gradientUnits="userSpaceOnUse" id="color-73"><stop offset="0" stop-color="#9a9a9a"/><stop offset="1" stop-color="#dedede"/></linearGradient><linearGradient x1="271.18591" y1="181.76319" x2="271.10827" y2="182.65399" gradientUnits="userSpaceOnUse" id="color-74"><stop offset="0" stop-color="#9a9a9a"/><stop offset="1" stop-color="#dedede"/></linearGradient><linearGradient x1="273.18159" y1="181.02907" x2="273.0662" y2="182.35311" gradientUnits="userSpaceOnUse" id="color-75"><stop offset="0" stop-color="#a4a4a4"/><stop offset="1" stop-color="#3d3d3d"/></linearGradient><linearGradient x1="274.99691" y1="183.28497" x2="274.91927" y2="184.17577" gradientUnits="userSpaceOnUse" id="color-76"><stop offset="0" stop-color="#dedede"/><stop offset="1" stop-color="#9a9a9a"/></linearGradient><linearGradient x1="273.68618" y1="183.17888" x2="273.60855" y2="184.06968" gradientUnits="userSpaceOnUse" id="color-77"><stop offset="0" stop-color="#dedede"/><stop offset="1" stop-color="#9a9a9a"/></linearGradient><linearGradient x1="272.38425" y1="183.06541" x2="272.30661" y2="183.95621" gradientUnits="userSpaceOnUse" id="color-78"><stop offset="0" stop-color="#dedede"/><stop offset="1" stop-color="#9a9a9a"/></linearGradient><linearGradient x1="271.07353" y1="182.95932" x2="270.99589" y2="183.85012" gradientUnits="userSpaceOnUse" id="color-79"><stop offset="0" stop-color="#dedede"/><stop offset="1" stop-color="#9a9a9a"/></linearGradient><linearGradient x1="272.94989" y1="183.59436" x2="272.83449" y2="184.9184" gradientUnits="userSpaceOnUse" id="color-80"><stop offset="0" stop-color="#a4a4a4"/><stop offset="1" stop-color="#3d3d3d"/></linearGradient><radialGradient cx="268.30441" cy="167.67544" r="4.3746" gradientUnits="userSpaceOnUse" id="color-81"><stop offset="0" stop-color="#ffffff"/><stop offset="1" stop-color="#c4bfb5"/></radialGradient><radialGradient cx="269.60778" cy="166.99511" r="1.62571" gradientUnits="userSpaceOnUse" id="color-82"><stop offset="0" stop-color="#ffffff"/><stop offset="1" stop-color="#ffffff" stop-opacity="0"/></radialGradient><radialGradient cx="280.19925" cy="168.7582" r="4.3746" gradientUnits="userSpaceOnUse" id="color-83"><stop offset="0" stop-color="#ffffff"/><stop offset="1" stop-color="#c5c1b7"/></radialGradient><radialGradient cx="281.44475" cy="168.02672" r="1.62571" gradientUnits="userSpaceOnUse" id="color-84"><stop offset="0" stop-color="#ffffff"/><stop offset="1" stop-color="#ffffff" stop-opacity="0"/></radialGradient><linearGradient x1="273.60368" y1="175.69168" x2="273.48751" y2="177.02458" gradientUnits="userSpaceOnUse" id="color-85"><stop offset="0" stop-color="#a4a4a4"/><stop offset="1" stop-color="#686868"/></linearGradient><radialGradient cx="294.00788" cy="153.43336" r="11.03908" gradientUnits="userSpaceOnUse" id="color-86"><stop offset="0" stop-color="#634a14"/><stop offset="1" stop-color="#443014"/></radialGradient><linearGradient x1="287.55779" y1="152.87111" x2="286.44205" y2="165.6734" gradientUnits="userSpaceOnUse" id="color-87"><stop offset="0" stop-color="#4a4a4a"/><stop offset="1" stop-color="#000000"/></linearGradient><radialGradient cx="257.56687" cy="150.25747" r="11.03908" gradientUnits="userSpaceOnUse" id="color-88"><stop offset="0" stop-color="#634a14"/><stop offset="1" stop-color="#443014"/></radialGradient><linearGradient x1="264.01698" y1="150.81949" x2="262.90124" y2="163.62178" gradientUnits="userSpaceOnUse" id="color-89"><stop offset="0" stop-color="#4a4a4a"/><stop offset="1" stop-color="#000000"/></linearGradient><radialGradient cx="281.82484" cy="162.78153" r="16.71153" gradientUnits="userSpaceOnUse" id="color-90"><stop offset="0" stop-color="#e0c297"/><stop offset="1" stop-color="#b9a17e"/></radialGradient><radialGradient cx="282.47423" cy="157.03698" r="16.16268" gradientUnits="userSpaceOnUse" id="color-91"><stop offset="0" stop-color="#634a14"/><stop offset="1" stop-color="#443014"/></radialGradient><linearGradient x1="272.93954" y1="192.60747" x2="272.93954" y2="216.17896" gradientUnits="userSpaceOnUse" id="color-92"><stop offset="0" stop-color="#a4a4a4"/><stop offset="1" stop-color="#7a7a7a"/></linearGradient><linearGradient x1="272.93954" y1="192.60747" x2="272.93954" y2="194.53038" gradientUnits="userSpaceOnUse" id="color-93"><stop offset="0" stop-color="#a4a4a4"/><stop offset="1" stop-color="#7a7a7a"/></linearGradient><linearGradient x1="272.93954" y1="191.73655" x2="272.93954" y2="195.4013" gradientUnits="userSpaceOnUse" id="color-94"><stop offset="0" stop-color="#303030"/><stop offset="1" stop-color="#4b4b4b"/></linearGradient><radialGradient cx="256.34858" cy="206.52254" r="3.18972" gradientUnits="userSpaceOnUse" id="color-95"><stop offset="0" stop-color="#bb8c8c"/><stop offset="1" stop-color="#9d7070"/></radialGradient><radialGradient cx="255.12401" cy="208.00965" r="6.24137" gradientUnits="userSpaceOnUse" id="color-96"><stop offset="0" stop-color="#bb8c8c"/><stop offset="1" stop-color="#9d7070"/></radialGradient><radialGradient cx="289.79289" cy="206.52254" r="3.18972" gradientUnits="userSpaceOnUse" id="color-97"><stop offset="0" stop-color="#bb8c8c"/><stop offset="1" stop-color="#9d7070"/></radialGradient><radialGradient cx="291.01745" cy="208.00965" r="6.24137" gradientUnits="userSpaceOnUse" id="color-98"><stop offset="0" stop-color="#bb8c8c"/><stop offset="1" stop-color="#9d7070"/></radialGradient><radialGradient cx="260.58397" cy="193.56068" r="3.18973" gradientUnits="userSpaceOnUse" id="color-99"><stop offset="0" stop-color="#bb8c8c"/><stop offset="1" stop-color="#9d7070"/></radialGradient><radialGradient cx="259.2735" cy="195.33144" r="6.23093" gradientUnits="userSpaceOnUse" id="color-100"><stop offset="0" stop-color="#bb8c8c"/><stop offset="1" stop-color="#9d7070"/></radialGradient><radialGradient cx="285.55749" cy="193.56068" r="3.18973" gradientUnits="userSpaceOnUse" id="color-101"><stop offset="0" stop-color="#bb8c8c"/><stop offset="1" stop-color="#9d7070"/></radialGradient><radialGradient cx="286.86797" cy="195.33144" r="6.23093" gradientUnits="userSpaceOnUse" id="color-102"><stop offset="0" stop-color="#bb8c8c"/><stop offset="1" stop-color="#9d7070"/></radialGradient><radialGradient cx="265.77991" cy="233.61694" r="3.18973" gradientUnits="userSpaceOnUse" id="color-103"><stop offset="0" stop-color="#e0c297"/><stop offset="1" stop-color="#b9a17e"/></radialGradient><radialGradient cx="265.57702" cy="235.95027" r="6.22029" gradientUnits="userSpaceOnUse" id="color-104"><stop offset="0" stop-color="#ba7878"/><stop offset="1" stop-color="#8e5555"/></radialGradient><radialGradient cx="280.0842" cy="233.41405" r="3.18973" gradientUnits="userSpaceOnUse" id="color-105"><stop offset="0" stop-color="#e0c297"/><stop offset="1" stop-color="#b9a17e"/></radialGradient><radialGradient cx="280.59144" cy="235.24013" r="6.22029" gradientUnits="userSpaceOnUse" id="color-106"><stop offset="0" stop-color="#ba7878"/><stop offset="1" stop-color="#8e5555"/></radialGradient><radialGradient cx="266.18571" cy="219.71845" r="3.18973" gradientUnits="userSpaceOnUse" id="color-107"><stop offset="0" stop-color="#e0c297"/><stop offset="1" stop-color="#b9a17e"/></radialGradient><radialGradient cx="266.5915" cy="222.35612" r="6.22029" gradientUnits="userSpaceOnUse" id="color-108"><stop offset="0" stop-color="#e0c297"/><stop offset="1" stop-color="#b9a17e"/></radialGradient><radialGradient cx="279.57695" cy="219.4141" r="3.18973" gradientUnits="userSpaceOnUse" id="color-109"><stop offset="0" stop-color="#e0c297"/><stop offset="1" stop-color="#b9a17e"/></radialGradient><radialGradient cx="279.77985" cy="222.15322" r="6.22029" gradientUnits="userSpaceOnUse" id="color-110"><stop offset="0" stop-color="#e0c297"/><stop offset="1" stop-color="#b9a17e"/></radialGradient><radialGradient cx="262.33065" cy="243.66038" r="6.35276" gradientUnits="userSpaceOnUse" id="color-111"><stop offset="0" stop-color="#ba7878"/><stop offset="1" stop-color="#8e5555"/></radialGradient><radialGradient cx="283.63491" cy="243.86327" r="6.35276" gradientUnits="userSpaceOnUse" id="color-112"><stop offset="0" stop-color="#ba7878"/><stop offset="1" stop-color="#8e5555"/></radialGradient><radialGradient cx="280.09909" cy="216.52403" r="9.04368" gradientUnits="userSpaceOnUse" id="color-113"><stop offset="0" stop-color="#bb8c8c"/><stop offset="1" stop-color="#9d7070"/></radialGradient><linearGradient x1="264.61658" y1="202.48041" x2="282.01503" y2="202.48041" gradientUnits="userSpaceOnUse" id="color-114"><stop offset="0" stop-color="#bb8c8c"/><stop offset="1" stop-color="#9d7070"/></linearGradient><linearGradient x1="264.61658" y1="202.56082" x2="282.01503" y2="202.56082" gradientUnits="userSpaceOnUse" id="color-115"><stop offset="0" stop-color="#d8d8d8"/><stop offset="1" stop-color="#a7a7a7"/></linearGradient></defs><g transform="translate(-22.25,-20.25)"><g data-paper-data="{&quot;isPaintingLayer&quot;:true}" fill-rule="nonzero" stroke-linecap="butt" stroke-linejoin="miter" stroke-miterlimit="10" stroke-dasharray="" stroke-dashoffset="0" style="mix-blend-mode: normal"><g stroke="none" stroke-width="0"><path d="M253.92908,228.59105c-0.98152,0.81761 -1.96691,-0.97743 -2.07689,-2.46471c-0.10997,-1.48728 -0.29069,-3.29721 0.70405,-3.32596c1.0394,-0.03004 1.03396,1.13582 1.14395,2.6231c0.10997,1.48728 0.88186,2.16798 0.22889,3.16757z" fill="url(#color-1)"/><path d="M252.89668,228.83251c-1.1131,0.62679 -1.75791,-1.31676 -1.59732,-2.79942c0.16058,-1.48266 0.30989,-3.29546 1.29345,-3.14398c1.02771,0.15827 0.81172,1.30396 0.65113,2.78662c-0.16058,1.48266 0.4756,2.29164 -0.34725,3.15679z" fill="url(#color-2)"/><path d="M251.71857,228.90079c-1.21374,0.39837 -1.46829,-1.63347 -1.02245,-3.0566c0.44584,-1.42314 0.94484,-3.17229 1.88017,-2.83244c0.97732,0.3551 0.54263,1.4369 0.09679,2.86004c-0.44584,1.42314 0.02087,2.34038 -0.95451,3.029z" fill="url(#color-3)"/><path d="M252.20027,224.6099c-1.54791,-0.44672 -0.82132,-1.81185 -0.27425,-3.55809c0.54707,-1.74624 0.94452,-3.23372 2.25536,-2.7656c1.36969,0.48914 0.82132,1.81185 0.27425,3.55809c-0.54707,1.74624 -0.82836,3.17742 -2.25537,2.76559z" fill="url(#color-4)"/><path d="M253.59176,222.63819c-0.53916,-1.39047 -1.04456,-2.4411 -0.09292,-2.86017c0.91075,-0.40107 1.52454,1.31118 2.0637,2.70165c0.53916,1.39047 0.41978,3.4347 -0.81768,3.11763c-1.01886,-0.62249 -0.61394,-1.56864 -1.1531,-2.9591z" data-paper-data="{&quot;index&quot;:null}" fill="url(#color-5)"/></g><g data-paper-data="{&quot;index&quot;:null}" stroke="none" stroke-width="0"><path d="M292.44128,225.42348c0.10998,-1.48728 0.10455,-2.65314 1.14394,-2.6231c0.99474,0.02875 0.81403,1.83868 0.70405,3.32596c-0.10998,1.48728 -1.09537,3.28232 -2.07689,2.46471c-0.65297,-0.99959 0.11892,-1.68029 0.22889,-3.16757z" fill="url(#color-6)"/><path d="M293.24478,228.83252c-0.82285,-0.86515 -0.18667,-1.67413 -0.34725,-3.15679c-0.16059,-1.48266 -0.37659,-2.62835 0.65112,-2.78662c0.98356,-0.15148 1.13287,1.66132 1.29345,3.14398c0.16059,1.48266 -0.48423,3.42621 -1.59733,2.79942z" fill="url(#color-7)"/><path d="M293.46838,225.87179c-0.44585,-1.42314 -0.88052,-2.50494 0.09679,-2.86004c0.93533,-0.33985 1.43432,1.4093 1.88016,2.83244c0.44585,1.42314 0.19129,3.45497 -1.02245,3.0566c-0.97538,-0.68862 -0.50866,-1.60586 -0.95451,-3.029z" fill="url(#color-8)"/><path d="M291.68583,221.84431c-0.54707,-1.74624 -1.09544,-3.06896 0.27425,-3.55809c1.31084,-0.46812 1.70829,1.01936 2.25536,2.7656c0.54707,1.74624 1.27366,3.11136 -0.27425,3.55809c-1.42701,0.41183 -1.70829,-1.01935 -2.25536,-2.76559z" fill="url(#color-9)"/><path d="M292.5497,222.63818c-0.53916,1.39047 -0.13424,2.33661 -1.1531,2.9591c-1.23746,0.31707 -1.35684,-1.72716 -0.81768,-3.11763c0.53916,-1.39047 1.15294,-3.10272 2.06369,-2.70165c0.95164,0.41907 0.44624,1.46971 -0.09292,2.86017z" data-paper-data="{&quot;index&quot;:null}" fill="url(#color-10)"/></g><g stroke="none" stroke-width="0"><path d="M222.5582,220.97171c0.07363,-1.19465 1.10182,-1.27966 2.08085,-2.4095c0.97904,-1.12984 1.67283,-2.07038 2.49046,-1.42381c0.78251,0.61879 -0.44663,1.96567 -1.42566,3.09551c-0.97904,1.12984 -2.84617,1.98287 -3.14565,0.7378z" fill="url(#color-11)"/><path d="M223.65677,222.1348c-0.20267,-1.17963 0.77852,-1.49848 1.47195,-2.82294c0.69343,-1.32447 1.1527,-2.39919 2.09695,-1.95765c0.90369,0.42257 0.0167,2.0157 -0.67673,3.34017c-0.69343,1.32447 -2.31478,2.58346 -2.89217,1.44042z" fill="url(#color-12)"/><path d="M225.48478,219.9856c0.19458,-1.4823 0.2554,-2.64945 1.29397,-2.56032c0.99395,0.0853 0.71024,1.88651 0.51566,3.3688c-0.19458,1.4823 -1.28281,3.22286 -2.21871,2.34879c-0.59673,-1.03755 0.2145,-1.67497 0.40907,-3.15727z" fill="url(#color-13)"/><path d="M224.83269,216.07271c-0.50727,-1.76291 -1.02578,-3.10139 0.35838,-3.55944c1.3247,-0.43837 1.6881,1.0617 2.19537,2.8246c0.50727,1.76291 1.20341,3.14808 -0.35838,3.55944c-1.4398,0.37923 -1.6881,-1.0617 -2.19537,-2.8246z" fill="url(#color-14)"/><path d="M221.74957,217.95938c-1.10724,-0.64338 0.2446,-2.18817 1.60742,-2.80279c1.36283,-0.61463 3.00521,-1.40674 3.37409,-0.47985c0.38544,0.96851 -0.71434,1.36401 -2.07717,1.97864c-1.36283,0.61463 -1.73862,1.57544 -2.90435,1.304z" data-paper-data="{&quot;index&quot;:null}" fill="url(#color-15)"/></g><g data-paper-data="{&quot;index&quot;:null}" stroke="none" stroke-width="0"><path d="M168.1178,220.23391c-0.97904,-1.12984 -2.20817,-2.47672 -1.42566,-3.09551c0.81764,-0.64658 1.51142,0.29397 2.49046,1.42381c0.97904,1.12984 2.00723,1.21485 2.08085,2.4095c-0.29949,1.24507 -2.16661,0.39205 -3.14565,-0.7378z" fill="url(#color-16)"/><path d="M170.16489,222.1348c-0.57739,1.14304 -2.19874,-0.11596 -2.89217,-1.44042c-0.69343,-1.32447 -1.58043,-2.9176 -0.67673,-3.34017c0.94425,-0.44154 1.40352,0.63318 2.09695,1.95765c0.69343,1.32447 1.67462,1.64331 1.47195,2.82294z" fill="url(#color-17)"/><path d="M168.74596,223.14287c-0.93589,0.87408 -2.02413,-0.86649 -2.21871,-2.34879c-0.19458,-1.4823 -0.47829,-3.2835 0.51566,-3.3688c1.03857,-0.08913 1.09939,1.07803 1.29397,2.56032c0.19458,1.4823 1.0058,2.11972 0.40907,3.15727z" fill="url(#color-18)"/><path d="M166.7936,218.89731c-1.56179,-0.41136 -0.86565,-1.79653 -0.35838,-3.55944c0.50727,-1.7629 0.87067,-3.26297 2.19537,-2.8246c1.38416,0.45805 0.86565,1.79653 0.35838,3.55944c-0.50727,1.7629 -0.75557,3.20383 -2.19537,2.8246z" fill="url(#color-19)"/><path d="M172.07208,217.95938c-1.16573,0.27144 -1.54153,-0.68938 -2.90435,-1.304c-1.36283,-0.61463 -2.46261,-1.01013 -2.07717,-1.97864c0.36889,-0.9269 2.01127,-0.13478 3.37409,0.47985c1.36283,0.61463 2.71466,2.15941 1.60742,2.80279z" data-paper-data="{&quot;index&quot;:null}" fill="url(#color-20)"/></g><g data-paper-data="{&quot;index&quot;:null}" stroke="none" stroke-width="0"><path d="M192.62624,234.08168c-0.00046,1.76598 -1.40327,3.19722 -3.13325,3.19677c-1.73,-0.00045 -3.13206,-1.43241 -3.1316,-3.1984c0.00046,-1.76598 1.40327,-3.19722 3.13326,-3.19677c1.73,0.00045 3.13206,1.43241 3.1316,3.19839z" fill="url(#color-21)"/><path d="M186.11719,246.6048l0.00323,-12.46947l6.80701,0.00176l-0.00323,12.46947z" fill="url(#color-22)"/></g><g data-paper-data="{&quot;index&quot;:null}" stroke="none" stroke-width="0"><path d="M194.27185,221.21349c-0.25746,1.74711 -1.85362,2.95896 -3.56513,2.70675c-1.71151,-0.25222 -2.89025,-1.87298 -2.63279,-3.62009c0.25746,-1.74711 1.85362,-2.95896 3.56513,-2.70675c1.71151,0.25222 2.89025,1.87298 2.63279,3.62009z" fill="url(#color-23)"/><path d="M186.00957,232.65601l1.81791,-12.33624l6.73428,0.99238l-1.81791,12.33624z" fill="url(#color-24)"/></g><path d="M193.4972,246.51017c0,2.78258 -12.73683,2.78258 -12.73683,0c0,-2.78258 2.41633,-5.0383 5.9335,-5.0383c3.51718,0 6.80333,2.25572 6.80333,5.0383z" data-paper-data="{&quot;index&quot;:null}" fill="url(#color-25)" stroke="#000000" stroke-width="0"/><text transform="translate(22.5,42) scale(0.5,0.5)" font-size="40" xml:space="preserve" fill="#dbc2ff" fill-rule="nonzero" stroke="none" stroke-width="1" stroke-linecap="butt" stroke-linejoin="miter" stroke-miterlimit="10" stroke-dasharray="" stroke-dashoffset="0" font-family="Sans Serif" font-weight="normal" text-anchor="start" style="mix-blend-mode: normal"><tspan x="0" dy="0">CHARACTERS</tspan></text><path d="M342.53,181.5v-121h95v121z" fill="#505050" stroke="#ffffff" stroke-width="2.5"/><text transform="translate(348.256,73.55928) scale(0.2465,0.2465)" font-size="40" xml:space="preserve" fill="#ffffff" fill-rule="nonzero" stroke="none" stroke-width="1" stroke-linecap="butt" stroke-linejoin="miter" stroke-miterlimit="10" stroke-dasharray="" stroke-dashoffset="0" font-family="Sans Serif" font-weight="normal" text-anchor="start" style="mix-blend-mode: normal"><tspan x="0" dy="0">ANDY AND ANNIE</tspan></text><text transform="translate(362.76679,89.72338) scale(0.216,0.216)" font-size="40" xml:space="preserve" fill="#ffffff" fill-rule="nonzero" stroke="none" stroke-width="1" stroke-linecap="butt" stroke-linejoin="miter" stroke-miterlimit="10" stroke-dasharray="" stroke-dashoffset="0" font-family="Sans Serif" font-weight="normal" text-anchor="start" style="mix-blend-mode: normal"><tspan x="0" dy="0">Built in: 2010</tspan></text><text transform="translate(364.43346,104.72338) scale(0.216,0.216)" font-size="40" xml:space="preserve" fill="#ffffff" fill-rule="nonzero" stroke="none" stroke-width="1" stroke-linecap="butt" stroke-linejoin="miter" stroke-miterlimit="10" stroke-dasharray="" stroke-dashoffset="0" font-family="Sans Serif" font-weight="normal" text-anchor="start" style="mix-blend-mode: normal"><tspan x="0" dy="0">Height: 4'1"</tspan></text><text transform="translate(363.46968,118.77978) scale(0.13737,0.13737)" font-size="40" xml:space="preserve" fill="#ffffff" fill-rule="nonzero" stroke="none" stroke-width="1" stroke-linecap="butt" stroke-linejoin="miter" stroke-miterlimit="10" stroke-dasharray="" stroke-dashoffset="0" font-family="Sans Serif" font-weight="normal" text-anchor="start" style="mix-blend-mode: normal"><tspan x="0" dy="0">Brand: [UNKNOWN]</tspan></text><path d="M187.88643,215.73618c0,0 0.25335,-12.39223 -0.49703,-17.12841c-0.51215,-3.23255 -3.57019,-7.48282 -3.57019,-7.48282c0,0 8.98067,-2.62416 13.47625,-2.59179c4.40753,0.03173 13.23833,2.78414 13.23833,2.78414c0,0 -3.53328,3.68061 -4.05631,6.71443c-0.81088,4.70344 -0.33629,17.70445 -0.33629,17.70445z" fill="#191919" stroke="none" stroke-width="0"/><path d="M208.58401,168.97439c0.29115,3.01119 5.37545,5.40501 2.06907,11.01048c-3.43671,5.82643 -9.84426,7.57154 -14.75232,8.0461c-5.25968,0.50855 -9.92923,0.98212 -15.77271,-5.50712c-3.96576,-4.40401 -0.06909,-8.1036 -0.32657,-10.76652c-0.7612,-7.87274 5.06491,-14.87784 13.01298,-15.64632c7.94807,-0.76849 15.00833,4.99065 15.76954,12.86338z" fill="#191919" stroke="none" stroke-width="0"/><path d="M202.51662,178.5761c0.43137,-0.3665 0.82491,-1.49796 0.91949,-2.04899c-0.07038,-0.68575 0.30157,-1.58736 0.08429,-2.21922c-0.23513,-0.68376 -0.75375,-1.30953 -1.05415,-1.97115c-0.27321,-0.60171 -0.55857,-1.17921 -0.89438,-1.71876c0.27414,0.74362 0.44564,1.53013 0.40706,2.16563c-0.05193,0.85531 -0.39346,1.6914 -0.16313,2.56003c0.31945,1.20474 1.20682,1.46781 0.70194,2.85095c-0.1071,0.23632 -0.23584,0.42922 -0.38249,0.58751c0.13904,-0.04411 0.26827,-0.10991 0.38136,-0.20599zM200.61416,168.27856c1.18596,1.0138 1.91589,2.29798 2.55392,3.714c0.30961,0.68712 0.86148,1.33929 1.08856,2.05807c0.24946,0.78965 -0.11758,1.69172 -0.04247,2.51358c-0.135,0.76616 -0.59183,2.12439 -1.19894,2.63432c-0.69207,0.58128 -1.62943,0.44105 -2.44148,0.42431c-1.52027,-0.03134 -2.98789,0.34438 -4.38579,0.84708c-0.08599,0.00883 -0.17199,0.01756 -0.25799,0.02624l0.09464,0.38142c0,0 -0.0857,0.39245 -0.46548,0.30112c-0.23715,-0.05704 -0.2928,-0.23149 -0.30115,-0.35447c-0.09793,-0.04995 -0.19618,-0.09731 -0.2944,-0.1428c-0.10405,0.05852 -0.29129,0.11455 -0.46811,-0.08576c-0.00433,-0.00491 -0.00851,-0.0098 -0.01255,-0.01469c-0.07056,-0.03103 -0.14172,-0.08723 -0.18293,-0.18831c-0.06091,-0.0257 -0.12147,-0.0513 -0.18162,-0.07697c0.18345,0.26045 0.34722,0.53938 0.65541,0.70201l0.26777,0.16865c0,0 0.33319,0.21075 0.13179,0.55418c-0.2014,0.34343 -0.53459,0.13267 -0.53459,0.13267l-0.23019,-0.14633c-0.50806,-0.29313 -0.68222,-0.86785 -1.1022,-1.16191c-0.19018,-0.13316 -0.45781,0.00296 -0.68656,0.01013c-0.48764,0.01529 -1.27498,0.0769 -1.70859,-0.22995c-0.62843,-0.44471 -0.73251,-1.65052 -1.26117,-2.25249c-1.28293,0.04419 -2.47587,-0.9438 -2.36059,-2.3807c0.02863,-0.35686 0.29103,-0.6516 0.38356,-0.99621c0.19284,-0.71824 -0.53677,-1.64798 -0.7007,-2.28025c-0.2213,-0.85355 0.09588,-1.52608 0.51393,-2.17655c0.01359,-0.0512 0.02772,-0.10303 0.04231,-0.15555c0,0 0.05904,-0.21152 0.24127,-0.27531c-0.0066,-0.04658 -0.01237,-0.09345 -0.01727,-0.14064c0,0 -0.03879,-0.40119 0.3486,-0.43865c0.38739,-0.03746 0.42618,0.36374 0.42618,0.36374c0.12622,1.44658 1.18573,2.23018 2.0851,3.16946c0.20524,0.21436 0.51019,0.7562 0.59452,1.0382c0.07815,0.26134 -0.06217,0.83894 0.21712,1.028c0.40393,0.27343 1.2989,0.16743 1.60722,0.54913c0.34856,0.43152 0.34971,1.06617 0.58164,1.57438c0.41137,0.56321 0.67356,1.10152 0.92289,1.75286l0.06871,0.15811c0,0 0.15931,0.36876 -0.19594,0.53116c-0.35524,0.1624 -0.51455,-0.20636 -0.51455,-0.20636l-0.08187,-0.19045c-0.23583,-0.61608 -0.47938,-1.09682 -0.86527,-1.6325c-0.20716,-0.45319 -0.20342,-1.0028 -0.46798,-1.42306c-0.11134,-0.17686 -1.28517,-0.27373 -1.53092,-0.47888c-0.61322,-0.51192 -0.31794,-1.19731 -0.66953,-1.81242c-0.24281,-0.4248 -0.66076,-0.62073 -0.98768,-0.98196c-0.46601,-0.51493 -0.89111,-1.08247 -1.17921,-1.71375c-0.07659,0.41192 -0.04713,0.78756 0.29716,1.1967c0.25193,0.29937 0.62523,0.49376 0.82007,0.83555c0.39807,0.6983 0.0503,2.1329 0.80771,2.63787c0.95064,0.6338 1.95376,0.97893 2.53139,2.06179c0.24807,1.01511 0.85741,1.45386 1.59198,1.7897l0.13179,-0.01274c0.49357,-0.02592 0.91645,-0.43653 1.34361,-0.69638c0.78336,-0.47654 1.60491,-0.85321 2.27929,-1.49152c0.49115,-0.55501 0.16811,-1.84355 0.27588,-2.55496c0.0926,-0.61127 0.56357,-0.88952 0.89326,-1.33834c0.36353,-0.4949 0.66915,-1.23356 0.81188,-1.8256c0.26781,-1.1109 -0.30641,-2.17716 -0.41325,-3.26529c0,0 -0.03879,-0.40119 0.3486,-0.43865c0.30937,-0.02991 0.39642,0.21993 0.41893,0.32178c0.19116,-0.06357 0.36432,0.08422 0.36432,0.08422zM199.65862,178.78281c0.78796,-0.07619 1.79756,-0.04617 2.13941,-0.90079c0.37995,-1.01641 -0.46612,-1.36403 -0.73457,-2.33591c-0.26441,-0.95727 0.07482,-1.85412 0.13726,-2.79476c0.04204,-0.63331 -0.18807,-1.50977 -0.51576,-2.26946c0.05706,0.42597 0.06412,0.86093 -0.04073,1.32131c-0.15548,0.6827 -0.52429,1.51978 -0.93664,2.08539c-0.2063,0.28298 -0.71267,0.59517 -0.75072,0.99933c-0.09636,1.02361 0.15899,2.12043 -0.47607,2.96455c-0.35612,0.33567 -0.85302,0.74609 -1.40218,1.13422c0.83405,-0.11527 1.69569,-0.11838 2.58001,-0.20388zM191.84284,177.99511c-0.47786,-0.90314 -1.5214,-1.14092 -2.27455,-1.70993c-0.76608,-0.57877 -0.72658,-1.62956 -0.8881,-2.46738c-0.10052,-0.52142 -0.40616,-0.65011 -0.70925,-0.95392c0.14619,0.31649 0.30482,0.63098 0.3756,0.95304c0.27718,1.26115 -1.04004,3.12057 0.98723,3.49695c0.20055,0.03723 0.40657,0.02297 0.60985,0.03445c0.54446,0.50973 0.78906,0.88381 1.09793,1.57079c0.11192,0.24894 0.0752,0.62292 0.30475,0.76075c0.45118,0.2709 1.07069,0.06791 1.62345,0.03936c-0.52164,-0.36566 -0.93098,-0.87285 -1.12692,-1.7241z" fill="#000000" stroke="none" stroke-width="0.5"/><path d="M195.32505,193.33596l-2.48174,-25.6674l2.70759,-0.26179l2.47867,25.63559z" fill="url(#color-26)" stroke="none" stroke-width="0"/><path d="M188.28218,178.1658l-0.96332,-9.96308l1.46615,-0.14176l0.96212,9.95074z" fill="url(#color-27)" stroke="none" stroke-width="0"/><path d="M200.26215,177.00747l-0.96332,-9.96308l1.46615,-0.14176l0.96212,9.95074z" fill="url(#color-28)" stroke="none" stroke-width="0"/><path d="M186.20365,172.11747l-0.46063,-4.76405l16.79394,-1.62378l0.46063,4.76405z" fill="url(#color-29)" stroke="none" stroke-width="0"/><path d="M183.29579,170.43089l-0.13569,-1.40333l21.97721,-2.12494l0.13569,1.40333z" fill="url(#color-30)" stroke="none" stroke-width="0"/><g stroke="none" stroke-width="0"><path d="M197.07557,183.25079l-0.08627,-0.89222l1.09812,-0.10618l0.08627,0.89222z" fill="url(#color-31)"/><path d="M195.76268,183.36957l-0.08627,-0.89222l1.09812,-0.10618l0.08627,0.89222z" fill="url(#color-32)"/><path d="M194.45867,183.49565l-0.08627,-0.89222l1.09812,-0.10618l0.08627,0.89222z" fill="url(#color-33)"/><path d="M193.14579,183.61443l-0.08627,-0.89222l1.09812,-0.10618l0.08627,0.89222z" fill="url(#color-34)"/><path d="M192.20729,183.23209l-0.12822,-1.32615l6.72487,-0.65022l0.12822,1.32615z" fill="url(#color-35)"/></g><g data-paper-data="{&quot;index&quot;:null}" stroke="none" stroke-width="0"><path d="M198.39211,184.31956l0.08627,0.89222l-1.09811,0.10618l-0.08627,-0.89222z" fill="url(#color-36)"/><path d="M197.08079,184.45452l0.08627,0.89222l-1.09812,0.10618l-0.08627,-0.89222z" fill="url(#color-37)"/><path d="M195.77677,184.5806l0.08627,0.89222l-1.09812,0.10618l-0.08627,-0.89222z" fill="url(#color-38)"/><path d="M194.46545,184.71556l0.08627,0.89222l-1.09812,0.10618l-0.08627,-0.89222z" fill="url(#color-39)"/><path d="M199.24434,184.72657l0.12822,1.32616l-6.72487,0.65022l-0.12822,-1.32616z" fill="url(#color-40)"/></g><g stroke-width="0"><g><path d="M192.53712,168.88994c0.23309,2.41074 -1.52247,4.55304 -3.92115,4.78496c-2.39868,0.23193 -4.53216,-1.53435 -4.76525,-3.94509c-0.23309,-2.41074 1.52247,-4.55304 3.92115,-4.78496c2.39868,-0.23193 4.53216,1.53435 4.76525,3.94509z" fill="url(#color-41)" stroke="#000000"/><path d="M189.66734,169.18824c0.08662,0.89589 -0.5199,1.68758 -1.35471,1.7683c-0.83481,0.08072 -1.58177,-0.58011 -1.66839,-1.476c-0.08662,-0.89589 0.5199,-1.68758 1.3547,-1.7683c0.83481,-0.08072 1.58177,0.58011 1.66839,1.476z" fill="#000000" stroke="none"/></g><path d="M190.86583,168.25497c0.08662,0.89589 -0.5199,1.68758 -1.35471,1.7683c-0.83481,0.08072 -1.58177,-0.58011 -1.66839,-1.476c-0.08662,-0.89589 0.5199,-1.68758 1.3547,-1.7683c0.83481,-0.08072 1.58177,0.58011 1.66839,1.476z" fill="url(#color-42)" stroke="none"/></g><g stroke-width="0"><g><path d="M204.45933,167.78346c0.23309,2.41074 -1.52247,4.55304 -3.92115,4.78496c-2.39868,0.23193 -4.53216,-1.53435 -4.76525,-3.94509c-0.23309,-2.41074 1.52247,-4.55304 3.92115,-4.78497c2.39868,-0.23193 4.53216,1.53435 4.76525,3.94509z" fill="url(#color-43)" stroke="#000000"/><path d="M201.58955,168.08175c0.08662,0.89589 -0.51991,1.68758 -1.35471,1.7683c-0.83481,0.08072 -1.58177,-0.58011 -1.66839,-1.476c-0.08662,-0.89589 0.5199,-1.68758 1.3547,-1.7683c0.83481,-0.08072 1.58177,0.58011 1.66839,1.476z" fill="#000000" stroke="none"/></g><path d="M202.72166,167.10864c0.08662,0.89589 -0.5199,1.68758 -1.35471,1.7683c-0.83481,0.08072 -1.58177,-0.58011 -1.66839,-1.476c-0.08662,-0.89589 0.5199,-1.68758 1.35471,-1.7683c0.83481,-0.08072 1.58177,0.58011 1.66839,1.476z" fill="url(#color-44)" stroke="none"/></g><path d="M188.28818,178.22788l-0.12908,-1.33503l13.44611,-1.30009l0.12892,1.33337z" fill="url(#color-45)" stroke="none" stroke-width="0"/><g stroke="none" stroke-width="0"><path d="M208.58401,168.97439c0.29115,3.01119 5.37545,5.40501 2.06907,11.01048c-3.43671,5.82643 -9.84426,7.57154 -14.75232,8.0461c-5.25968,0.50855 -9.92923,0.98212 -15.77271,-5.50712c-3.96576,-4.40401 -0.06909,-8.1036 -0.32656,-10.76652c-0.7612,-7.87274 5.0649,-14.87783 13.01298,-15.64632c7.94807,-0.76849 15.00834,4.99065 15.76954,12.86338zM195.83078,185.79606c2.99535,-0.23305 5.64769,-1.63746 7.51786,-3.19919c-0.00609,0.09549 -0.01339,0.18739 0.01901,0.22946c0.24419,0.31704 0.53602,-0.03582 0.72007,0.41038l-0.00114,0.07419c0,0 0.01552,0.16048 0.17599,0.14496c0.16048,-0.01552 0.14496,-0.17599 0.14496,-0.17599l-0.02515,-0.1741c-0.08612,-0.18459 -0.23696,-0.42528 -0.45263,-0.49323c-0.09284,-0.02925 -0.29169,0.13979 -0.28892,0.04249c0.00302,-0.10618 0.00072,-0.20661 -0.01502,-0.29574c1.66528,-1.46521 2.63446,-3.02227 2.55396,-3.85478c-0.02973,-0.30751 -0.2004,-0.42737 -0.49105,-0.41269c0.09569,-0.44014 0.25185,-0.95261 -0.17066,-1.08364c-0.22388,-0.06943 -0.61659,0.10219 -0.67985,0.34135c-0.03511,0.13273 0.23816,0.32609 0.11902,0.39434c-0.04815,0.02758 -0.42045,0.07195 -0.48458,0.17216c-0.03972,0.06207 0.01503,0.20764 -0.05844,0.21318c-0.12934,0.15703 -0.15651,0.33049 -0.22325,0.49023c-1.95236,0.92581 -5.12741,2.77317 -8.56159,3.09852c-7.11009,0.67362 -10.92113,-2.78843 -10.74974,-1.01585c0.03333,0.34467 0.24689,0.76509 0.61228,1.21542c-0.27206,0.05216 -0.51437,0.08386 -0.86446,-0.00745c-0.2486,-0.06485 -0.45216,0.12234 -0.64944,0.05799c-0.01303,-0.04538 -0.05296,-0.12771 -0.17003,-0.11639c-0.16048,0.01552 -0.14496,0.176 -0.14496,0.176l0.09037,0.18869c0.56603,0.26387 1.31433,0.07565 1.97372,-0.0276c1.67448,1.81597 5.62345,3.95586 10.10365,3.60728zM188.67319,174.1163c2.65888,-0.25708 4.60591,-2.62093 4.34883,-5.27981c-0.25708,-2.65888 -2.62093,-4.60591 -5.27981,-4.34883c-2.65888,0.25708 -4.60591,2.62093 -4.34882,5.27981c0.25708,2.65888 2.62093,4.60591 5.2798,4.34883zM200.77271,173.02084c2.65888,-0.25708 4.60591,-2.62093 4.34882,-5.27981c-0.25708,-2.65888 -2.62093,-4.60591 -5.2798,-4.34882c-2.65888,0.25708 -4.60591,2.62093 -4.34883,5.2798c0.25708,2.65888 2.62093,4.60591 5.27981,4.34883z" fill="url(#color-46)"/><path d="M192.88116,156.01091c6.30204,-0.60933 12.05353,2.55915 14.78263,7.57378c-0.50866,-0.38218 -1.04597,-0.73126 -1.61403,-1.04381c-0.749,-0.93636 -1.57151,-1.04872 -2.71139,-0.9385c-0.2707,0.02617 -0.64511,0.15334 -1.00197,0.20766c-0.2463,-0.02989 -0.49243,-0.05741 -0.73832,-0.08372c-0.07602,-0.04752 -0.14238,-0.11302 -0.19599,-0.20095c-0.41432,-0.46466 -0.93953,-0.23138 -1.52357,-0.39448c-1.33009,-0.37144 -2.70474,-0.2292 -4.06528,0.06837c-0.39368,-0.01012 -0.78633,-0.01311 -1.17873,-0.00936c-0.45023,-0.2316 -0.89117,-0.67987 -1.36909,-0.84906c-0.73202,-0.25914 -1.17725,0.38837 -1.68553,0.67064c-0.25651,0.14245 -0.60176,0.21406 -0.87562,0.38911c-1.00234,0.22008 -2.09374,0.14829 -3.08191,0.41559c-0.17012,0.04602 -1.07147,0.33955 -1.21453,0.22442c-0.47225,-0.38005 -0.81316,-0.32118 -1.34268,0.08238c-0.62633,1.18381 -1.76854,1.4695 -2.87687,2.05903c-0.03389,-0.12268 -0.1696,-0.10956 -0.1696,-0.10956c-0.53481,0.06141 -1.31085,0.71308 -1.88145,1.31581c1.96295,-5.00946 6.78913,-8.80157 12.74395,-9.37733z" fill="url(#color-47)"/></g><path d="M199.36615,162.10189c1.69806,-0.38947 3.49759,0.13106 3.57757,0.47977c0.07998,0.34871 -1.63914,0.00423 -3.33721,0.3937c-1.69806,0.38947 -3.0986,0.83038 -3.0986,0.83038c0,0 1.16017,-1.31438 2.85823,-1.70385z" fill="#000000" stroke="none" stroke-width="0"/><path d="M188.10046,163.93894c-1.74129,-0.05493 -3.3618,0.61437 -3.35052,0.25678c0.01128,-0.35759 1.67677,-1.21514 3.41805,-1.16021c1.74129,0.05493 3.14429,0.76352 3.13301,1.12111c0,0 -1.45925,-0.16275 -3.20054,-0.21769z" data-paper-data="{&quot;index&quot;:null}" fill="#000000" stroke="none" stroke-width="0"/><g stroke="none"><path d="M196.6059,194.65627c0.12479,-0.08319 0.2341,-0.089 0.32217,-0.06349l-0.00277,-0.34948c0,0 0,-0.40306 0.40306,-0.40306c0.40306,0 0.40306,0.40306 0.40306,0.40306l-0.00389,0.38063c0.04452,0.15583 0.08212,0.33267 0.10796,0.5196l0.06751,0.23628c0.06592,0.23107 0.1151,0.46207 0.15178,0.69296c0.65974,1.41915 0.48781,3.29951 0.48693,4.79915c-0.00392,0.04221 -0.00796,0.08438 -0.0121,0.12651c0.45338,1.09279 1.11847,2.14132 1.19661,3.32245c0.07662,1.15816 -0.70314,2.13105 -0.56437,3.27432c0.05435,0.44777 1.15947,2.23049 1.61019,1.84922c0.4001,-0.40917 1.00208,-0.85896 1.15299,-1.44939c0.1422,-0.55636 -0.24561,-1.19124 -0.31873,-1.72259c-0.03811,-0.27697 0.04,-1.24855 0.06802,-1.38998c0.16259,-0.82078 0.82372,-1.42261 1.23082,-2.11253c0.01714,-0.02905 0.03393,-0.05802 0.05036,-0.08691c-0.1216,-0.94379 -0.37827,-1.866 -0.82057,-2.7284c-0.41092,-1.09405 -1.21558,-2.43267 -0.76091,-3.65716c0.69253,-1.86509 2.82709,-1.95994 4.42754,-2.4971c0.08601,-0.02886 0.17042,-0.05637 0.25359,-0.08199c0.04357,-0.01617 0.08702,-0.03151 0.1303,-0.04599c0.08763,-0.02933 0.17698,-0.04953 0.26769,-0.062c0.52955,-0.11994 1.02847,-0.1206 1.59462,0.14769c0,0 0.12839,0.0642 0.19362,0.1926c0.28094,0.09045 0.55289,0.17164 0.80563,0.20543c0,0 0.39901,0.05701 0.34201,0.45602c-0.05701,0.39901 -0.45602,0.34201 -0.45602,0.34201c-0.59335,-0.08903 -1.66471,-0.67482 -2.34223,-0.55805c-0.05996,0.01587 -0.1202,0.03365 -0.18089,0.05261c-0.87477,0.35205 -2.01107,1.08063 -2.1329,2.08363c-0.10171,0.83733 0.2467,1.68241 0.25186,2.51286c0,1.36406 -0.10621,2.50934 -0.70077,3.71103c0.453,3.15999 -0.50129,6.5116 -3.15268,8.40708c-1.38065,0.77801 -2.15741,-1.03131 -2.81106,-2.04394c-1.48442,-2.29966 -0.436,-5.46049 -0.15479,-8.01479c-0.05316,-0.13076 -0.10237,-0.26163 -0.14602,-0.39274c-0.26682,-1.21749 -0.12418,-2.43313 -0.20078,-3.65304c-0.16097,0.10544 -0.34185,0.19342 -0.42316,0.36002c-0.15532,0.31824 -0.05879,0.89655 -0.0832,1.16721c-0.0677,0.75063 -0.44586,1.3362 -0.43457,2.08058c0,0.79475 0.35688,2.50186 -0.20081,3.16669c-0.15837,0.18879 -0.36001,0.29254 -0.58522,0.33157c-0.48428,0.38584 -1.17598,0.553 -1.27702,1.24281c-0.15351,1.04809 0.86195,1.28639 1.16468,2.10291c0.3444,0.92892 0.0032,1.97652 -0.82345,2.44134c-1.63205,1.17215 -4.1422,0.66762 -4.44506,-1.63356c-0.10951,-0.83202 0.9427,-2.20885 0.58957,-2.94511c-0.35754,-0.74545 -1.1446,-1.35194 -1.54203,-2.14672c-0.71134,-1.26424 -0.28104,-2.67211 -0.47902,-4.05442c-0.15757,-1.10013 -0.57822,-2.14166 -0.97232,-3.15313c-0.23641,-0.60676 -0.40175,-1.50482 -1.13153,-1.61433c-0.11837,0.06499 -0.24057,0.13236 -0.37377,0.19919c0,0 -0.36051,0.18026 -0.54076,-0.18025c-0.18025,-0.36051 0.18025,-0.54077 0.18025,-0.54077c0.03885,-0.01935 0.07833,-0.03855 0.11839,-0.05756c0.09283,-0.23443 0.37367,-0.23444 0.37367,-0.23444c0.05196,0.00213 0.10244,0.00561 0.15148,0.0104c1.66727,-0.63496 3.91472,-0.78718 4.42104,1.49386c0.25975,1.17022 -0.29331,1.98057 0.66108,2.94381c0.98754,0.56014 1.63065,1.36348 1.77679,2.51609c0.07971,0.62867 -0.10215,1.24942 0.25543,1.83422c0.16544,0.27057 0.35666,0.38617 0.62208,0.55719c0.06135,0.03953 0.58804,0.27669 0.92371,0.38323c0.28484,-0.8983 -0.10131,-2.1734 -0.29184,-3.03567c-0.09928,-0.98195 -0.48783,-2.29879 -0.24376,-3.27458c0.1725,-0.68967 0.76261,-1.50158 1.20515,-2.03628l0.01149,-0.04694c0,0 0.17658,-0.35316 0.52973,-0.18563c0.02668,-0.03268 0.06144,-0.06444 0.10609,-0.09421zM197.98088,206.27914c0,0.67067 -0.06998,1.37632 0.26447,1.99315c0.36409,0.6715 0.85535,1.27563 1.32935,1.86892c0.27455,0.34365 0.30082,0.69634 0.6428,0.35862c0.12187,-0.08697 0.24098,-0.179 0.35765,-0.27491c-0.93524,-0.05134 -1.62636,-1.0795 -2.0508,-1.96223c-0.64489,-1.34119 0.48676,-2.56265 0.39731,-3.89172c-0.04343,-0.64526 -0.28995,-1.26859 -0.57457,-1.88384c-0.17342,1.25535 -0.36621,2.49851 -0.36621,3.79201zM202.86702,206.31642c0.11666,-0.7775 0.18462,-1.57369 0.17499,-2.36669c-0.26198,0.34435 -0.50719,0.70371 -0.5806,1.10689c-0.13477,0.74018 0.15328,1.45107 0.26386,2.15846c0.0606,-0.31617 0.10116,-0.62812 0.14175,-0.89866zM202.13809,196.55448c-0.37732,0.9915 0.4094,2.20615 0.73578,3.07791c0.26076,0.533 0.47525,1.09282 0.64154,1.6685c0.17804,-0.70983 0.20734,-1.43 0.20734,-2.25572c0.00672,-0.86171 -0.35874,-1.72521 -0.24704,-2.60082c0.06438,-0.50463 0.30443,-0.97355 0.64441,-1.38218c-0.86411,0.25418 -1.65874,0.64279 -1.98203,1.49231zM196.76722,195.62135l-0.1407,-0.20924l-0.04865,0.08701c-0.36698,0.43687 -0.89805,1.13773 -1.03987,1.70543c-0.18656,0.74678 0.08106,1.78618 0.20936,2.61177c0.11395,-0.42527 0.26653,-0.83011 0.30686,-1.30977c0.04975,-0.59166 -0.10637,-0.90956 0.16625,-1.45199c0.14717,-0.29283 0.5255,-0.40708 0.71609,-0.67369c0.07363,-0.10301 0.11544,-0.24067 0.13496,-0.39475c-0.08971,-0.12918 -0.19069,-0.25117 -0.30428,-0.36477zM188.59593,195.71047c0.4139,1.06644 0.85738,2.17398 1.02327,3.33249c0.17831,1.24523 -0.2553,2.68737 0.39405,3.80317c0.39002,0.78011 1.27863,1.45311 1.57605,2.21861c0.42123,1.08414 -0.67484,2.12341 -0.53294,3.16636c0.23498,1.72719 2.07819,1.87689 3.21974,1.03514c1.45282,-0.66252 -0.14522,-1.93373 -0.49211,-2.62678c-0.12428,-0.24829 -0.2596,-1.12629 -0.22111,-1.35967c0.06341,-0.38449 0.39567,-0.92121 0.7003,-1.18041c0.06567,-0.05588 0.14469,-0.10177 0.22949,-0.14389c-0.62258,-0.28008 -1.202,-0.76518 -1.43675,-1.14509c-0.59577,-0.96415 -0.12641,-2.10254 -0.63698,-3.07928c-0.25784,-0.49327 -0.73549,-0.78592 -1.19724,-1.05163c-0.43104,-0.42846 -0.80623,-0.87031 -0.96033,-1.48388c-0.1536,-0.61162 0.11919,-1.31902 0,-1.93321c-0.23091,-1.1898 -1.66418,-1.48494 -2.6173,-1.25383c0.46194,0.39694 0.69115,1.03017 0.95185,1.7019z" fill="#303030" stroke-width="0.5"/><path d="M194.94941,216.70783v-23.62957h4.22207v23.62957z" fill="url(#color-48)" stroke-width="0"/><path d="M184.41026,195.00591v-1.92765h25.30038v1.92765z" fill="url(#color-49)" stroke-width="0"/><path d="M188.08961,195.87898v-3.67378h17.94168v3.67378z" fill="url(#color-50)" stroke-width="0"/></g><g data-paper-data="{&quot;index&quot;:null}" stroke="none" stroke-width="0"><path d="M216.43214,203.88901c-0.85695,-1.54412 -0.32539,-3.47642 1.18727,-4.31591c1.51266,-0.83948 3.4336,-0.26827 4.29055,1.27585c0.85695,1.54412 0.3254,3.47642 -1.18727,4.31591c-1.51266,0.83948 -3.4336,0.26827 -4.29055,-1.27585z" fill="url(#color-51)"/><path d="M222.92637,214.59787l-6.73073,-10.51432l5.95186,-3.30313l5.42331,11.26171z" fill="url(#color-52)"/></g><g data-paper-data="{&quot;index&quot;:null}" stroke="none" stroke-width="0"><path d="M177.38951,203.88901c-0.85695,1.54412 -2.77789,2.11534 -4.29055,1.27585c-1.51266,-0.83949 -2.04422,-2.77178 -1.18727,-4.31591c0.85695,-1.54412 2.77789,-2.11534 4.29055,-1.27585c1.51266,0.83949 2.04422,2.77179 1.18727,4.31591z" fill="url(#color-53)"/><path d="M166.25085,212.04212l5.42331,-11.26171l5.95186,3.30313l-6.73073,10.51432z" fill="url(#color-54)"/></g><g data-paper-data="{&quot;index&quot;:null}" stroke="none" stroke-width="0"><path d="M207.10357,197.09209c-1.40239,-1.0733 -1.68689,-3.05708 -0.63546,-4.43089c1.05143,-1.37382 3.04064,-1.61743 4.44304,-0.54412c1.40239,1.0733 1.6869,3.05708 0.63546,4.43089c-1.05143,1.37382 -3.04064,1.61743 -4.44304,0.54412z" fill="url(#color-55)"/><path d="M216.86664,204.94343l-9.90219,-7.57854l4.13708,-5.40555l9.9022,7.57854z" fill="url(#color-56)"/></g><g data-paper-data="{&quot;index&quot;:null}" stroke="none" stroke-width="0"><path d="M186.71808,197.09209c-1.40239,1.0733 -3.3916,0.82969 -4.44304,-0.54412c-1.05143,-1.37382 -0.76693,-3.35759 0.63546,-4.43089c1.40239,-1.0733 3.3916,-0.82969 4.44304,0.54412c1.05143,1.37382 0.76693,3.35759 -0.63546,4.43089z" fill="url(#color-57)"/><path d="M172.81794,199.53788l9.9022,-7.57854l4.13708,5.40555l-9.90219,7.57854z" fill="url(#color-58)"/></g><g data-paper-data="{&quot;index&quot;:null}" stroke="none" stroke-width="0"><path d="M201.19589,234.08168c-0.00046,-1.76597 1.4016,-3.19794 3.1316,-3.19839c1.73,-0.00045 3.1328,1.43079 3.13326,3.19677c0.00046,1.76598 -1.40161,3.19795 -3.1316,3.1984c-1.72999,0.00045 -3.13279,-1.43079 -3.13325,-3.19677z" fill="url(#color-59)"/><path d="M200.89794,246.60656l-0.00323,-12.46947l6.80701,-0.00176l0.00323,12.46947z" fill="url(#color-60)"/></g><g data-paper-data="{&quot;index&quot;:null}" stroke="none" stroke-width="0"><path d="M199.55029,221.21349c-0.25746,-1.74711 0.92127,-3.36787 2.63279,-3.62009c1.71151,-0.25222 3.30767,0.95963 3.56513,2.70675c0.25746,1.74711 -0.92128,3.36788 -2.63279,3.62009c-1.71151,0.25221 -3.30767,-0.95963 -3.56513,-2.70675z" fill="url(#color-61)"/><path d="M201.07828,233.64839l-1.81791,-12.33624l6.73428,-0.99238l1.81791,12.33624z" fill="url(#color-62)"/></g><path d="M187.95584,215.7952c0,-2.68762 18.13194,-2.68762 18.13194,0c0,2.68762 -4.05898,4.86637 -9.06597,4.86637c-5.00699,0 -9.06596,-2.17874 -9.06596,-4.86637z" fill="url(#color-63)" stroke="none" stroke-width="0"/><path d="M207.12826,241.47187c3.51718,0 5.9335,2.25572 5.9335,5.0383c0,2.78258 -12.73683,2.78258 -12.73683,0c0,-2.78258 3.28615,-5.0383 6.80333,-5.0383z" data-paper-data="{&quot;index&quot;:null}" fill="url(#color-64)" stroke="#000000" stroke-width="0"/><g stroke="none"><path d="M187.8433,215.7398c0,0 0.31358,-12.45247 -0.43679,-17.18865c-0.51215,-3.23255 -3.57019,-7.48282 -3.57019,-7.48282c0,0 8.98067,-2.62416 13.47625,-2.59179c4.40753,0.03173 13.23832,2.78414 13.23832,2.78414c0,0 -3.53328,3.6806 -4.05631,6.71443c-0.81088,4.70344 -0.27605,17.76469 -0.27605,17.76469z" fill="url(#color-65)" stroke-width="0"/><g stroke-width="0.5"><path d="M189.43766,204.08173c-0.03451,-0.36112 0.32661,-0.39564 0.32661,-0.39564l0.21492,-0.02054c0.45637,-0.0376 0.69244,-0.23432 1.13523,-0.35069c0.70042,-0.18407 1.50676,-0.12305 2.23176,-0.23953c0.84249,-0.13535 1.65378,-0.37363 2.50927,-0.4874c0.04335,-0.0016 0.08671,-0.00341 0.13005,-0.00544c-0.77576,-0.68319 -1.61112,-1.29028 -2.39171,-1.96701c-0.44003,0.35084 -0.91987,0.65309 -1.35154,1.01558c0,0 -0.27802,0.23303 -0.51105,-0.045c-0.23303,-0.27803 0.045,-0.51105 0.045,-0.51105c0.40641,-0.34002 0.85655,-0.6279 1.27412,-0.95367c-0.5509,-0.52746 -1.05434,-1.08467 -1.65888,-1.56576c-0.3927,-0.3125 -0.87909,-0.57091 -1.25308,-0.90013c-0.17138,-0.15086 -0.48832,-0.26851 -0.47213,-0.49625c0.01968,-0.27688 0.29534,-0.51735 0.55171,-0.62377c0.21589,-0.08962 0.46496,0.05585 0.69305,0.10704c0.01212,0.00272 1.27307,0.3733 1.33584,0.39174c0.97509,0.37581 1.90913,0.6248 2.92439,0.81722c0.05499,0.01042 0.10983,0.02166 0.16452,0.03363c0.91133,-0.97607 1.81151,-1.96525 2.83335,-2.82081c0.28969,-0.27803 1.11613,-1.17904 1.61538,-1.04228c0.64178,0.1758 0.7014,1.75628 0.74973,2.25948c0.0925,0.96308 -0.00111,1.91529 -0.0226,2.874c0.75161,0.13431 1.50036,0.28376 2.23206,0.49898c0.36721,0.02447 1.47497,0.16333 1.64099,0.53684c0.09894,0.2226 -0.10678,0.48451 -0.23376,0.6924c-0.29089,0.47621 -1.1197,0.74094 -1.59077,0.96309c-0.59284,0.27957 -1.20507,0.43861 -1.8267,0.58222c0.01451,0.19248 0.02571,0.3852 0.03167,0.57833c0.34151,1.21113 0.61107,2.65439 0.74121,3.91437c0.06653,0.6441 0.33534,1.80729 -0.85625,1.25824c-0.23978,-0.11049 -0.35745,-0.39 -0.51408,-0.60252c-0.42982,-0.58316 -0.67644,-1.31086 -1.1025,-1.90208c-0.65051,-0.90269 -1.48233,-1.68745 -2.31647,-2.42192c-0.26315,0.02792 -0.5294,0.04767 -0.80012,0.05748c-0.8383,0.11292 -1.62781,0.34528 -2.45379,0.48053c-0.6951,0.11381 -1.50118,0.0402 -2.16608,0.22566c-0.46458,0.12958 -0.75351,0.31844 -1.24881,0.37075l-0.21492,0.02054c0,0 -0.36112,0.03451 -0.39563,-0.32661zM197.65266,203.12083c0.89286,0.82457 1.72234,1.71799 2.35042,2.76331c0.2492,0.41474 0.46719,0.87391 0.73022,1.28101c-0.03737,-0.30324 -0.03386,-0.64688 -0.05547,-0.75655c-0.21356,-1.08365 -0.33533,-2.23413 -0.62958,-3.28933c-0.00732,-0.1758 -0.01829,-0.35122 -0.03168,-0.5264c-0.08388,0.01968 -0.16786,0.0398 -0.25191,0.06062c-0.71153,0.17622 -1.40622,0.34431 -2.11199,0.46733zM199.80317,199.03185c0.0307,-0.5509 0.08529,-1.10104 0.07091,-1.65184c-0.01431,-0.548 -0.07037,-1.12618 -0.15946,-1.66647c-0.02405,-0.1458 -0.05363,-0.29065 -0.07871,-0.43628c-0.02638,-0.15312 -0.06758,-0.30478 -0.07566,-0.45995c-0.0001,-0.00193 0,-0.00404 0.00028,-0.00628c-0.18554,0.27763 -0.69811,0.59159 -0.90652,0.7929c-0.90807,0.76184 -1.7211,1.628 -2.53134,2.49675c0.66806,0.21188 1.32661,0.47276 2.00704,0.61865c0.55301,0.11857 1.1128,0.21574 1.67346,0.31251zM199.78454,199.76499c-0.59657,-0.10334 -1.19269,-0.20554 -1.78178,-0.3313c-0.82304,-0.17571 -1.6153,-0.52289 -2.42985,-0.74499c-0.46504,0.4942 -0.93597,0.98173 -1.43003,1.44361c0.93186,0.80234 1.93934,1.50926 2.8262,2.37007c1.00463,-0.115 2.00376,-0.32567 2.98704,-0.57865c-0.07011,-0.69887 -0.15348,-1.39663 -0.17046,-2.10236c-0.00045,-0.0188 -0.00082,-0.03759 -0.00113,-0.05639zM193.60264,199.64449c0.39395,-0.36492 0.77271,-0.74675 1.14502,-1.13583c-0.93953,-0.18815 -1.82135,-0.4346 -2.73373,-0.7873c-0.06591,-0.01929 -0.49613,-0.14513 -0.84049,-0.24605c0.37341,0.26587 0.73421,0.55041 1.08331,0.84706c0.48412,0.41137 0.89151,0.8854 1.34588,1.32211zM200.51361,199.89357c0.02061,0.61641 0.09338,1.22758 0.15613,1.83907c0.21643,-0.06003 0.43196,-0.1215 0.64648,-0.18384c0.59354,-0.17248 1.19481,-0.43949 1.73844,-0.7338c0.12694,-0.06872 0.23006,-0.17663 0.3426,-0.26818c-0.26396,-0.02624 -0.59976,-0.16601 -0.78055,-0.17806c-0.69055,-0.20186 -1.39525,-0.34644 -2.10309,-0.4752z" fill="#ad9600"/><path d="M189.9364,203.88742c-0.03222,-0.33706 0.30485,-0.36927 0.30485,-0.36927l0.2006,-0.01917c0.42596,-0.0351 0.64631,-0.21872 1.05959,-0.32733c0.65375,-0.17181 1.40637,-0.11486 2.08307,-0.22357c0.78635,-0.12633 1.54359,-0.34873 2.34208,-0.45493c0.04047,-0.0015 0.08093,-0.00319 0.12139,-0.00508c-0.72407,-0.63768 -1.50376,-1.20431 -2.23235,-1.83595c-0.41072,0.32747 -0.85858,0.60958 -1.26148,0.94791c0,0 -0.2595,0.2175 -0.477,-0.042c-0.2175,-0.2595 0.042,-0.477 0.042,-0.477c0.37933,-0.31736 0.79948,-0.58606 1.18923,-0.89013c-0.5142,-0.49231 -0.98409,-1.0124 -1.54835,-1.46143c-0.36653,-0.29168 -0.82052,-0.53288 -1.1696,-0.84016c-0.15996,-0.14081 -0.45578,-0.25062 -0.44068,-0.46319c0.01836,-0.25844 0.27566,-0.48287 0.51495,-0.5822c0.2015,-0.08364 0.43399,0.05213 0.64687,0.09991c0.01131,0.00254 1.18824,0.34842 1.24683,0.36563c0.91012,0.35077 1.78193,0.58317 2.72955,0.76277c0.05133,0.00973 0.1025,0.02022 0.15355,0.03139c0.85061,-0.91103 1.69082,-1.83431 2.64457,-2.63286c0.27039,-0.2595 1.04176,-1.10049 1.50776,-0.97284c0.59902,0.16409 0.65466,1.63926 0.69977,2.10894c0.08633,0.89891 -0.00103,1.78768 -0.0211,2.68251c0.70154,0.12536 1.40039,0.26485 2.08334,0.46573c0.34275,0.02284 1.37669,0.15245 1.53165,0.50107c0.09235,0.20777 -0.09967,0.45224 -0.21819,0.64626c-0.2715,0.44448 -1.04509,0.69157 -1.48477,0.89892c-0.55334,0.26094 -1.12478,0.40939 -1.70499,0.54344c0.01355,0.17965 0.02401,0.35952 0.02956,0.53979c0.31876,1.13044 0.57036,2.47754 0.69183,3.65356c0.06209,0.60119 0.31299,1.68688 -0.7992,1.17441c-0.2238,-0.10313 -0.33362,-0.36401 -0.47983,-0.56238c-0.40118,-0.54431 -0.63137,-1.22351 -1.02904,-1.77535c-0.60717,-0.84255 -1.38355,-1.57502 -2.16213,-2.26055c-0.24562,0.02606 -0.49413,0.0445 -0.74681,0.05364c-0.78245,0.10539 -1.51935,0.32228 -2.29029,0.44851c-0.64879,0.10623 -1.40116,0.03752 -2.02176,0.21062c-0.43363,0.12095 -0.7033,0.29724 -1.1656,0.34606l-0.2006,0.01917c0,0 -0.33706,0.03221 -0.36928,-0.30485zM197.60405,202.99055c0.83337,0.76962 1.60758,1.60353 2.19382,2.5792c0.2326,0.3871 0.43605,0.81569 0.68157,1.19566c-0.03489,-0.28304 -0.03161,-0.60378 -0.05178,-0.70614c-0.19933,-1.01145 -0.31298,-2.08527 -0.58763,-3.07017c-0.00682,-0.1641 -0.01708,-0.32783 -0.02958,-0.49133c-0.07829,0.01836 -0.15666,0.03715 -0.23511,0.05658c-0.66413,0.16448 -1.31253,0.32137 -1.97128,0.43619zM199.61127,199.17401c0.02865,-0.5142 0.07962,-1.02768 0.06619,-1.54178c-0.01335,-0.51149 -0.06569,-1.05115 -0.14884,-1.55544c-0.02244,-0.1361 -0.05006,-0.27128 -0.07347,-0.40721c-0.02462,-0.14292 -0.06307,-0.28448 -0.07061,-0.4293c-0.00009,-0.0018 0,-0.00376 0.00026,-0.00587c-0.17318,0.25913 -0.65159,0.55217 -0.84611,0.74007c-0.84757,0.71108 -1.60642,1.51953 -2.36268,2.3304c0.62355,0.19777 1.23822,0.44125 1.87331,0.57742c0.51617,0.11067 1.03865,0.20138 1.56196,0.2917zM199.59388,199.8583c-0.55682,-0.09646 -1.11321,-0.19185 -1.66306,-0.30924c-0.7682,-0.16401 -1.50768,-0.48805 -2.26796,-0.69535c-0.43405,0.46128 -0.87361,0.91632 -1.33475,1.34742c0.86977,0.74888 1.81012,1.4087 2.6379,2.21216c0.93769,-0.10735 1.87025,-0.30397 2.78802,-0.5401c-0.06544,-0.6523 -0.14325,-1.30357 -0.15911,-1.96228c-0.00042,-0.01755 -0.00078,-0.03508 -0.00105,-0.05263zM193.82387,199.74583c0.3677,-0.34061 0.72122,-0.697 1.06873,-1.06016c-0.87693,-0.17562 -1.7,-0.40564 -2.55158,-0.73483c-0.06152,-0.018 -0.46308,-0.13547 -0.78449,-0.22966c0.34853,0.24816 0.68529,0.51374 1.01113,0.79062c0.45186,0.38396 0.83212,0.82641 1.25621,1.23403zM200.27438,199.97832c0.01924,0.57534 0.08716,1.14578 0.14572,1.71653c0.20201,-0.05603 0.40319,-0.1134 0.60341,-0.17158c0.55399,-0.16099 1.1152,-0.41021 1.6226,-0.68491c0.11848,-0.06414 0.21473,-0.16486 0.31977,-0.2503c-0.24637,-0.02448 -0.5598,-0.15494 -0.72854,-0.16619c-0.64454,-0.18841 -1.30229,-0.32336 -1.96297,-0.44355z" fill="#ffdf00"/></g></g><path d="M288.36457,171.05427c-0.26201,3.00641 4.2895,6.27889 0.02718,11.17563c-4.43034,5.08977 -11.03239,5.63622 -15.93265,5.20916c-5.25131,-0.45766 -9.91745,-0.84231 -14.46884,-8.26975c-3.08886,-5.04074 1.40585,-7.9608 1.63756,-10.61948c0.68503,-7.86022 7.67329,-13.67155 15.60873,-12.97996c7.93543,0.69159 13.81305,7.62419 13.12802,15.48441z" fill="#191919" stroke="none" stroke-width="0"/><g><path d="M280.66746,179.36855c0.48974,-0.28104 1.0815,-1.31923 1.27447,-1.8425c0.05567,-0.68541 0.58445,-1.50209 0.48624,-2.16135c-0.10627,-0.7134 -0.50116,-1.42149 -0.67549,-2.12505c-0.15855,-0.63986 -0.33343,-1.25818 -0.56468,-1.84845c0.13365,0.77921 0.15884,1.58183 0.00544,2.19813c-0.20646,0.82946 -0.69349,1.58742 -0.62554,2.48129c0.09425,1.23974 0.91676,1.65912 0.17004,2.92393c-0.14803,0.21231 -0.30937,0.37811 -0.48199,0.50669c0.14439,-0.01799 0.28312,-0.05901 0.41151,-0.13269zM280.67406,168.92249c0.97886,1.21003 1.46127,2.60232 1.82957,4.10721c0.17872,0.73025 0.60142,1.47027 0.69343,2.21656c0.10109,0.81987 -0.42296,1.63791 -0.49874,2.45767c-0.27174,0.72692 -0.96679,1.97603 -1.65499,2.36578c-0.78451,0.44429 -1.67839,0.13628 -2.47183,-0.02781c-1.48542,-0.3072 -2.99323,-0.20556 -4.45574,0.0333c-0.08595,-0.00698 -0.17188,-0.01405 -0.25781,-0.02118l0.02346,0.39132c0,0 -0.15542,0.36934 -0.51131,0.21069c-0.22224,-0.09906 -0.24509,-0.28029 -0.23092,-0.40244c-0.08697,-0.0668 -0.17472,-0.13112 -0.26279,-0.1936c-0.11269,0.03848 -0.30654,0.05938 -0.44354,-0.16924c-0.00335,-0.0056 -0.00657,-0.01117 -0.00964,-0.01669c-0.06357,-0.04327 -0.12313,-0.11132 -0.14517,-0.21797c-0.05506,-0.03628 -0.10981,-0.07241 -0.16414,-0.10853c0.13257,0.28881 0.24248,0.59218 0.51519,0.80774l0.23197,0.21411c0,0 0.28848,0.2673 0.02848,0.56752c-0.26,0.30022 -0.54846,0.03292 -0.54846,0.03292l-0.19916,-0.18538c-0.44501,-0.3799 -0.51133,-0.97527 -0.86978,-1.34006c-0.16232,-0.16519 -0.44958,-0.08035 -0.67524,-0.11491c-0.48107,-0.07369 -1.26451,-0.15643 -1.63401,-0.53625c-0.53551,-0.55046 -0.41833,-1.75208 -0.82739,-2.43864c-1.26637,-0.18995 -2.25676,-1.37594 -1.88239,-2.76433c0.09298,-0.34482 0.40394,-0.58618 0.55736,-0.90736c0.31975,-0.66941 -0.22679,-1.71399 -0.2726,-2.36395c-0.06184,-0.87743 0.37156,-1.47938 0.89988,-2.04137c0.02264,-0.04775 0.04593,-0.09602 0.06978,-0.14488c0,0 0.09638,-0.19673 0.28672,-0.22616c0.002,-0.04688 0.00486,-0.0939 0.00863,-0.14108c0,0 0.03491,-0.40056 0.42169,-0.36685c0.38678,0.03371 0.35186,0.43426 0.35186,0.43426c-0.13925,1.4418 0.75745,2.40304 1.46877,3.48786c0.16233,0.24757 0.36289,0.83449 0.39432,1.12641c0.02913,0.27054 -0.21354,0.81155 0.02602,1.04778c0.34647,0.34163 1.24356,0.40042 1.47656,0.83087c0.2634,0.48663 0.14912,1.10932 0.28418,1.64996c0.30106,0.62723 0.46034,1.20289 0.58644,1.88708l0.03864,0.16757c0,0 0.0892,0.39066 -0.28877,0.48534c-0.37797,0.09469 -0.46715,-0.29597 -0.46715,-0.29597l-0.04567,-0.20169c-0.11927,-0.64715 -0.27074,-1.16296 -0.55182,-1.75855c-0.12078,-0.48218 -0.01716,-1.02056 -0.20022,-1.48088c-0.07704,-0.19372 -1.21076,-0.50219 -1.41449,-0.7481c-0.50838,-0.61362 -0.09412,-1.23217 -0.32711,-1.89942c-0.16091,-0.46081 -0.53521,-0.72898 -0.79017,-1.14274c-0.36344,-0.5898 -0.67718,-1.22376 -0.84497,-1.89533c-0.15003,0.3901 -0.18945,0.76388 0.07385,1.22779c0.19266,0.33944 0.52346,0.59799 0.6524,0.96866c0.26346,0.7573 -0.33853,2.10116 0.31253,2.73417c0.81716,0.79452 1.73829,1.31545 2.10792,2.48259c0.05872,1.04075 0.57659,1.58191 1.236,2.04488l0.13157,0.01147c0.48881,0.06432 0.97826,-0.2615 1.44448,-0.43869c0.855,-0.32495 1.7293,-0.54501 2.50682,-1.04845c0.58265,-0.45505 0.50013,-1.77763 0.7352,-2.4558c0.20198,-0.58271 0.71453,-0.76998 1.11951,-1.15024c0.44656,-0.4193 0.88064,-1.08823 1.12829,-1.64296c0.46468,-1.0409 0.09538,-2.19114 0.18846,-3.27783c0,0 0.03491,-0.40056 0.42168,-0.36685c0.30888,0.02692 0.34882,0.2878 0.35238,0.39179c0.19905,-0.02758 0.34202,0.14885 0.34202,0.14885zM277.82667,179.05158c0.7867,0.06856 1.7715,0.28159 2.2622,-0.49447c0.5575,-0.92783 -0.20914,-1.42264 -0.29571,-2.42471c-0.08526,-0.987 0.41055,-1.80497 0.64284,-2.71622c0.15639,-0.61353 0.09009,-1.51502 -0.09318,-2.31973c-0.02149,0.42818 -0.09366,0.85608 -0.28022,1.28857c-0.27664,0.64133 -0.79061,1.3953 -1.29791,1.87508c-0.25381,0.24005 -0.80724,0.45416 -0.91805,0.84366c-0.28066,0.98646 -0.22965,2.10868 -1.00604,2.82113c-0.41033,0.26448 -0.97234,0.57666 -1.58156,0.85749c0.83902,0.03861 1.68471,0.19225 2.56762,0.2692zM270.30398,176.8577c-0.30446,-0.97272 -1.28476,-1.39571 -1.91999,-2.09076c-0.64614,-0.70699 -0.41631,-1.73045 -0.42239,-2.58158c-0.00378,-0.5297 -0.28015,-0.7115 -0.52218,-1.06461c0.08583,0.33701 0.18424,0.67432 0.1951,1.00307c0.04253,1.28737 -1.58757,2.87162 0.33239,3.60943c0.18993,0.07299 0.39459,0.09646 0.59189,0.14468c0.44133,0.59896 0.61322,1.01036 0.79124,1.74033c0.06451,0.26452 -0.03952,0.62465 0.16056,0.80159c0.39326,0.34775 1.03781,0.26131 1.58517,0.33382c-0.44515,-0.45351 -0.75441,-1.02542 -0.79179,-1.89597z" fill="#000000" stroke="none" stroke-width="0.5"/><path d="M270.92973,192.53765l2.23339,-25.62658l2.70329,0.2356l-2.23062,25.59482z" fill="url(#color-66)" stroke="none" stroke-width="0"/><path d="M266.78055,176.37762l0.86692,-9.94724l1.46382,0.12757l-0.86584,9.93492z" fill="url(#color-67)" stroke="none" stroke-width="0"/><path d="M278.74147,177.42003l0.86692,-9.94724l1.46382,0.12757l-0.86584,9.93491z" fill="url(#color-68)" stroke="none" stroke-width="0"/><path d="M265.84175,170.06728l0.41453,-4.75647l16.76723,1.46129l-0.41454,4.75648z" fill="url(#color-69)" stroke="none" stroke-width="0"/><path d="M263.29634,167.88425l0.12211,-1.40109l21.94226,1.9123l-0.12211,1.40109z" fill="url(#color-70)" stroke="none" stroke-width="0"/><g stroke="none" stroke-width="0"><path d="M274.48064,182.96417l0.07764,-0.8908l1.09637,0.09555l-0.07763,0.8908z" fill="url(#color-71)"/><path d="M273.17134,182.84193l0.07763,-0.89081l1.09638,0.09555l-0.07763,0.89081z" fill="url(#color-72)"/><path d="M271.8694,182.72846l0.07763,-0.89081l1.09637,0.09555l-0.07764,0.89081z" fill="url(#color-73)"/><path d="M270.56009,182.60622l0.07763,-0.89081l1.09637,0.09555l-0.07763,0.89081z" fill="url(#color-74)"/><path d="M269.70911,182.06054l0.11539,-1.32405l6.71418,0.58515l-0.11539,1.32404z" fill="url(#color-75)"/></g><g data-paper-data="{&quot;index&quot;:null}" stroke="none" stroke-width="0"><path d="M275.54509,183.33275l-0.07764,0.8908l-1.09637,-0.09555l0.07763,-0.8908z" fill="url(#color-76)"/><path d="M274.23437,183.22665l-0.07763,0.89081l-1.09637,-0.09556l0.07763,-0.8908z" fill="url(#color-77)"/><path d="M272.93243,183.11319l-0.07763,0.8908l-1.09637,-0.09555l0.07763,-0.8908z" fill="url(#color-78)"/><path d="M271.62171,183.00709l-0.07763,0.8908l-1.09637,-0.09555l0.07764,-0.8908z" fill="url(#color-79)"/><path d="M276.30698,183.88693l-0.1154,1.32404l-6.71418,-0.58515l0.11539,-1.32404z" fill="url(#color-80)"/></g><g stroke-width="0"><g><path d="M272.6407,168.05336c-0.20977,2.4069 -2.32124,4.18888 -4.7161,3.98017c-2.39486,-0.20872 -4.16625,-2.32909 -3.95648,-4.736c0.20977,-2.4069 2.32124,-4.18889 4.7161,-3.98017c2.39486,0.20872 4.16625,2.3291 3.95648,4.736z" fill="url(#color-81)" stroke="#000000"/><path d="M269.7717,167.82406c-0.07795,0.89446 -0.81682,1.56069 -1.6503,1.48805c-0.83348,-0.07264 -1.44595,-0.85663 -1.368,-1.75109c0.07795,-0.89446 0.81681,-1.56069 1.65029,-1.48804c0.83348,0.07264 1.44595,0.85663 1.368,1.75109z" fill="#000000" stroke="none"/></g><path d="M271.11692,167.12663c-0.07795,0.89446 -0.81681,1.56069 -1.65029,1.48805c-0.83348,-0.07264 -1.44595,-0.85663 -1.368,-1.7511c0.07795,-0.89446 0.81681,-1.56069 1.65029,-1.48804c0.83348,0.07264 1.44595,0.85663 1.368,1.75109z" fill="url(#color-82)" stroke="none"/></g><g stroke-width="0"><g><path d="M284.53554,169.13611c-0.20977,2.4069 -2.32124,4.18888 -4.71611,3.98017c-2.39486,-0.20872 -4.16625,-2.32909 -3.95648,-4.736c0.20977,-2.4069 2.32124,-4.18888 4.71611,-3.98017c2.39486,0.20872 4.16625,2.32909 3.95648,4.736z" fill="url(#color-83)" stroke="#000000"/><path d="M281.66654,168.90682c-0.07795,0.89446 -0.81682,1.56069 -1.65029,1.48804c-0.83348,-0.07264 -1.44595,-0.85663 -1.368,-1.7511c0.07795,-0.89446 0.81681,-1.56069 1.65029,-1.48804c0.83348,0.07264 1.44595,0.85663 1.368,1.7511z" fill="#000000" stroke="none"/></g><path d="M282.9539,168.15824c-0.07795,0.89446 -0.81681,1.56069 -1.65029,1.48805c-0.83348,-0.07264 -1.44595,-0.85663 -1.368,-1.75109c0.07795,-0.89446 0.81681,-1.56069 1.65029,-1.48804c0.83348,0.07264 1.44595,0.85662 1.368,1.75109z" fill="url(#color-84)" stroke="none"/></g><path d="M266.77515,176.43959l0.11617,-1.33291l13.42473,1.16998l-0.11602,1.33125z" fill="url(#color-85)" stroke="none" stroke-width="0"/></g><g data-paper-data="{&quot;index&quot;:null}" stroke="none" stroke-width="0"><path d="M303.77713,167.81371c0,0 -0.49169,2.51999 -1.37771,3.34469c-0.99474,0.92589 -2.27495,1.9266 -3.22779,2.00306c-1.18727,0.09527 -2.42364,-0.20427 -3.25817,-1.46039c-0.47098,-0.70892 -1.63336,-2.34724 -2.18714,-4.08503c-0.7531,-2.36326 -0.93662,-4.83538 -1.88234,-4.70767c-4.74442,0.6407 -11.09257,-3.82574 -10.5256,-4.92034c0.47475,-0.91655 3.12097,-3.70731 5.83432,-4.50008c11.9615,-5.2394 9.36479,6.04778 10.68233,10.40446c0.40951,1.35412 0.98762,2.46184 1.61011,3.55895c0.41242,0.72688 1.19819,1.2096 1.99918,1.52772c1.23234,0.48944 2.33282,-1.16538 2.33282,-1.16538z" fill="url(#color-86)"/><path d="M281.51241,154.48141l2.62628,-1.90829l8.34874,11.48996l-2.62628,1.90828z" fill="url(#color-87)"/></g><g stroke="none" stroke-width="0"><path d="M249.78663,163.12356c0.80289,-0.9729 1.5639,-1.96391 2.20148,-3.22677c2.05134,-4.06307 1.44635,-15.62929 12.32115,-8.39968c2.5353,1.25019 4.65885,4.45664 4.96789,5.4415c0.36907,1.17618 -6.65602,4.47713 -11.21807,3.02536c-0.90938,-0.28939 -1.51778,2.11372 -2.66834,4.31107c-0.84605,1.61578 -2.27431,3.02833 -2.86084,3.64509c-1.03923,1.09282 -2.30878,1.17396 -3.46167,0.87474c-0.92525,-0.24014 -2.01305,-1.44722 -2.83263,-2.53123c-0.11828,-0.15644 -0.21866,-0.35493 -0.30384,-0.57772c0.24933,0.18996 0.48457,0.38723 0.86908,0.4277c0.48796,0.04253 0.66088,-0.06265 0.53857,-0.46724c0.08408,-0.10375 0.1563,-0.30815 0.18014,-0.36135c0.05519,-0.12314 0.78994,0.0339 0.95856,-0.34689c0.13605,-0.30725 -0.3056,-0.50455 -0.7077,-0.70439c0.77145,-0.18654 1.52988,-0.52087 2.01622,-1.1102z" fill="url(#color-88)"/><path d="M259.48214,163.3238l-2.25657,-2.33383l10.2105,-9.8725l2.25657,2.33383z" fill="url(#color-89)"/></g><path d="M288.37061,170.98491c-0.26201,3.00641 4.2895,6.2789 0.02718,11.17563c-4.43034,5.08977 -11.03238,5.63622 -15.93264,5.20916c-5.25131,-0.45766 -9.91745,-0.84232 -14.46884,-8.26976c-3.08886,-5.04074 1.40585,-7.9608 1.63756,-10.61948c0.68503,-7.86022 7.67329,-13.67155 15.60872,-12.97996c7.93543,0.69159 13.81305,7.62419 13.12802,15.48441zM279.97324,173.5333c2.65465,0.23136 4.99421,-1.73311 5.22557,-4.38775c0.23136,-2.65464 -1.7331,-4.99421 -4.38775,-5.22557c-2.65465,-0.23136 -4.99421,1.73311 -5.22557,4.38775c-0.23136,2.65464 1.73311,4.99421 4.38775,5.22556zM267.9065,172.40749c2.65465,0.23136 4.99421,-1.7331 5.22557,-4.38775c0.23136,-2.65464 -1.73311,-4.99421 -4.38776,-5.22557c-2.65465,-0.23136 -4.99421,1.73311 -5.22556,4.38775c-0.23136,2.65464 1.73311,4.99421 4.38775,5.22556zM272.80293,185.16491c5.90326,0.62615 9.699,-2.7805 9.85323,-4.55026c0.15424,-1.76976 -3.79511,1.00503 -9.30919,0.51375c-7.09627,-0.63225 -8.9834,-3.91495 -9.13764,-2.14518c-0.15424,1.76976 2.78152,5.56522 8.59359,6.18169z" fill="url(#color-90)" stroke="none" stroke-width="0"/><path d="M290.05716,164.93373c0.31482,3.26976 0.93805,5.57092 -2.18221,7.532c-3.41014,2.14327 5.4266,-12.89239 -12.78155,-14.40464c-18.4755,-1.69222 -12.49087,14.5558 -15.47447,11.62355c-2.43995,-2.39796 -1.51256,-4.64388 -0.36549,-7.51621c2.78782,-6.98092 6.33299,-8.79581 16.0136,-7.95212c9.68061,0.84368 14.11222,3.67663 14.79012,10.71743z" fill="url(#color-91)" stroke="none" stroke-width="0"/><path d="M263.78807,215.20971c0,0 0.25272,-12.36178 -0.49581,-17.08632c-0.51088,-3.22461 -3.56142,-7.46443 -3.56142,-7.46443c0,0 8.9586,-2.61771 13.44313,-2.58542c4.3967,0.03166 13.20579,2.77729 13.20579,2.77729c0,0 -3.52459,3.67157 -4.04634,6.69793c-0.80888,4.69188 -0.33546,17.66094 -0.33546,17.66094z" fill="#191919" stroke="none" stroke-width="0"/><g stroke="none"><path d="M272.48611,194.18161c0.12448,-0.08299 0.23352,-0.08878 0.32138,-0.06333l-0.00276,-0.34862c0,0 -0.00001,-0.40208 0.40207,-0.40208c0.40208,0 0.40208,0.40208 0.40208,0.40208l-0.00389,0.37969c0.04442,0.15545 0.08192,0.33185 0.1077,0.51832l0.06734,0.2357c0.06576,0.23049 0.11482,0.46094 0.15141,0.69126c0.65812,1.41566 0.48662,3.2914 0.48574,4.78736c-0.0039,0.04211 -0.00793,0.08417 -0.01207,0.12619c0.45227,1.09011 1.11572,2.13605 1.19367,3.31428c0.07643,1.15532 -0.70142,2.12581 -0.56299,3.26627c0.05421,0.44666 1.15662,2.22501 1.60623,1.84468c0.39913,-0.40816 0.99962,-0.85684 1.15016,-1.44583c0.14185,-0.55499 -0.24502,-1.18831 -0.31795,-1.71835c-0.03801,-0.27629 0.0399,-1.24549 0.06785,-1.38657c0.16219,-0.81877 0.82169,-1.41912 1.22779,-2.10734c0.0171,-0.02898 0.03384,-0.05788 0.05024,-0.08669c-0.12129,-0.94147 -0.37734,-1.86142 -0.81855,-2.7217c-0.40991,-1.09136 -1.21258,-2.42668 -0.75903,-3.64817c0.69083,-1.86051 2.82013,-1.95512 4.41665,-2.49096c0.0858,-0.0288 0.17001,-0.05623 0.25297,-0.08178c0.04346,-0.01613 0.08681,-0.03143 0.12998,-0.04588c0.08741,-0.02925 0.17655,-0.04941 0.26703,-0.06185c0.52825,-0.11964 1.02594,-0.12031 1.5907,0.14732c0,0 0.12808,0.06404 0.19315,0.19213c0.28025,0.09023 0.55153,0.17121 0.80365,0.20493c0,0 0.39804,0.05686 0.34118,0.45489c-0.05687,0.39803 -0.4549,0.34117 -0.4549,0.34117c-0.59189,-0.08882 -1.66062,-0.67316 -2.33648,-0.55668c-0.05981,0.01584 -0.1199,0.03357 -0.18044,0.05248c-0.87262,0.35118 -2.00612,1.07797 -2.12765,2.07851c-0.10146,0.83527 0.24608,1.67828 0.25124,2.50668c0,1.36071 -0.10596,2.50317 -0.69906,3.70191c0.45189,3.15222 -0.50007,6.4956 -3.14493,8.38642c-1.37726,0.7761 -2.15211,-1.02877 -2.80415,-2.03892c-1.48077,-2.294 -0.43493,-5.44706 -0.1544,-7.99509c-0.05303,-0.13044 -0.10213,-0.26099 -0.14566,-0.39177c-0.26616,-1.21449 -0.12388,-2.42715 -0.20029,-3.64406c-0.16057,0.10518 -0.341,0.19294 -0.42212,0.35913c-0.15494,0.31746 -0.05865,0.89435 -0.083,1.16434c-0.06753,0.74879 -0.44476,1.33292 -0.4335,2.07547c0,0.7928 0.356,2.49571 -0.20031,3.1589c-0.15798,0.18832 -0.35913,0.29183 -0.58379,0.33076c-0.48309,0.3849 -1.17309,0.55164 -1.27388,1.23976c-0.15314,1.04551 0.85983,1.28323 1.16181,2.09775c0.34355,0.92665 0.00318,1.97166 -0.82143,2.43534c-1.62804,1.16927 -4.13202,0.66598 -4.43413,-1.62954c-0.10924,-0.82997 0.94039,-2.20342 0.58812,-2.93787c-0.35667,-0.74363 -1.14178,-1.34861 -1.53825,-2.14145c-0.70959,-1.26114 -0.28035,-2.66554 -0.47784,-4.04445c-0.15718,-1.09743 -0.5768,-2.1364 -0.96992,-3.14539c-0.23584,-0.60527 -0.40077,-1.50111 -1.12875,-1.61036c-0.11808,0.06483 -0.23997,0.13203 -0.37285,0.19869c0,0 -0.35962,0.17981 -0.53944,-0.17981c-0.17981,-0.35962 0.17981,-0.53944 0.17981,-0.53944c0.03875,-0.01931 0.07814,-0.03846 0.1181,-0.05743c0.0926,-0.23386 0.37275,-0.23385 0.37275,-0.23385c0.05183,0.00213 0.10219,0.00559 0.15111,0.01037c1.66318,-0.6334 3.9051,-0.78525 4.41018,1.4902c0.25911,1.16735 -0.29259,1.97571 0.65945,2.93658c0.98511,0.55876 1.62665,1.36013 1.77243,2.50991c0.07952,0.62713 -0.1019,1.24635 0.2548,1.82971c0.16503,0.2699 0.35578,0.38522 0.62056,0.55581c0.0612,0.03943 0.5866,0.276 0.92144,0.38228c0.28414,-0.8961 -0.10106,-2.16807 -0.29113,-3.02821c-0.09903,-0.97954 -0.48663,-2.29313 -0.24316,-3.26653c0.17208,-0.68797 0.76074,-1.49789 1.20219,-2.03128l0.01146,-0.04683c0,0 0.17615,-0.35229 0.52844,-0.18517c0.02661,-0.0326 0.06128,-0.06428 0.10583,-0.09398zM273.85772,205.7759c0,0.66902 -0.06981,1.37293 0.26382,1.98825c0.3632,0.66986 0.85325,1.27249 1.32608,1.86433c0.27387,0.34281 0.30008,0.69463 0.64122,0.35774c0.12158,-0.08676 0.24038,-0.17856 0.35677,-0.27423c-0.93294,-0.05122 -1.62235,-1.07685 -2.04576,-1.95741c-0.6433,-1.3379 0.48556,-2.55635 0.39633,-3.88215c-0.04332,-0.64368 -0.28923,-1.26547 -0.57315,-1.87921c-0.173,1.25226 -0.36531,2.49237 -0.36531,3.78269zM278.73184,205.8131c0.11637,-0.7756 0.18417,-1.56982 0.17457,-2.36087c-0.26134,0.3435 -0.50594,0.70198 -0.57918,1.10417c-0.13445,0.73836 0.1529,1.4475 0.26321,2.15315c0.06045,-0.3154 0.10091,-0.62657 0.1414,-0.89644zM278.0047,196.07514c-0.37639,0.98907 0.40839,2.20074 0.73397,3.07036c0.26012,0.53169 0.47408,1.09013 0.63996,1.66439c0.1776,-0.70809 0.20683,-1.42649 0.20683,-2.25018c0.00671,-0.8596 -0.35786,-1.72097 -0.24643,-2.59443c0.06421,-0.50339 0.30369,-0.97116 0.64283,-1.37878c-0.86199,0.25356 -1.65467,0.64121 -1.97716,1.48864zM272.64703,195.14431l-0.14036,-0.20872l-0.04853,0.0868c-0.36608,0.4358 -0.89585,1.13493 -1.03732,1.70123c-0.1861,0.74495 0.08086,1.78179 0.20884,2.60535c0.11367,-0.42423 0.26587,-0.82807 0.30611,-1.30655c0.04963,-0.5902 -0.10611,-0.90732 0.16584,-1.44842c0.1468,-0.29211 0.52422,-0.40608 0.71433,-0.67204c0.07346,-0.10276 0.11516,-0.24008 0.13462,-0.39378c-0.08949,-0.12886 -0.19022,-0.25055 -0.30353,-0.36387zM264.49582,195.2332c0.41288,1.06382 0.85527,2.16864 1.02076,3.32431c0.17787,1.24217 -0.25468,2.68076 0.39308,3.79382c0.38905,0.7782 1.27549,1.44954 1.57218,2.21316c0.4202,1.08148 -0.67318,2.11819 -0.53163,3.15857c0.23441,1.72295 2.07309,1.87229 3.21183,1.0326c1.44925,-0.66089 -0.14487,-1.92898 -0.4909,-2.62034c-0.12396,-0.24767 -0.25896,-1.12353 -0.22057,-1.35632c0.06326,-0.38355 0.3947,-0.91894 0.69858,-1.1775c0.06551,-0.05574 0.14434,-0.10152 0.22893,-0.14354c-0.62104,-0.27939 -1.19903,-0.7633 -1.43321,-1.14227c-0.5943,-0.96178 -0.12611,-2.09737 -0.63542,-3.07171c-0.2572,-0.49205 -0.73368,-0.78398 -1.19429,-1.04904c-0.42998,-0.4274 -0.80426,-0.86817 -0.95797,-1.48023c-0.15323,-0.61011 0.1189,-1.31578 0,-1.92847c-0.23034,-1.18687 -1.6601,-1.48129 -2.61086,-1.25075c0.4608,0.39596 0.68945,1.02763 0.94952,1.69771z" fill="#303030" stroke-width="0.5"/><path d="M270.83369,216.17896v-23.57149h4.2117v23.5715z" fill="url(#color-92)" stroke-width="0"/><path d="M260.32045,194.53038v-1.92291h25.23819v1.92291z" fill="url(#color-93)" stroke-width="0"/><path d="M263.99075,195.4013v-3.66475h17.89758v3.66475z" fill="url(#color-94)" stroke-width="0"/></g><g stroke="none" stroke-width="0"><path d="M260.68238,208.40774c-0.52585,1.68132 -2.28735,2.62671 -3.93441,2.11157c-1.64706,-0.51513 -2.55598,-2.29572 -2.03013,-3.97704c0.52585,-1.68132 2.28735,-2.6267 3.93441,-2.11156c1.64706,0.51513 2.55598,2.29572 2.03013,3.97704z" fill="url(#color-95)"/><path d="M251.44438,218.61886l3.02758,-12.09567l6.4807,2.02691l-4.45557,11.62912z" fill="url(#color-96)"/></g><g data-paper-data="{&quot;index&quot;:null}" stroke="none" stroke-width="0"><path d="M285.45908,208.40774c-0.52585,-1.68132 0.38307,-3.46191 2.03013,-3.97704c1.64706,-0.51513 3.40856,0.43024 3.93441,2.11156c0.52585,1.68132 -0.38307,3.46191 -2.03013,3.97704c-1.64706,0.51514 -3.40855,-0.43024 -3.9344,-2.11157z" fill="url(#color-97)"/><path d="M289.64437,220.17922l-4.45557,-11.62912l6.48071,-2.02691l3.02758,12.09567z" fill="url(#color-98)"/></g><g stroke="none" stroke-width="0"><path d="M264.62847,195.35166c-0.5049,1.68774 -2.25449,2.65494 -3.90784,2.16034c-1.65335,-0.49461 -2.58434,-2.26374 -2.07944,-3.95148c0.5049,-1.68774 2.2545,-2.65495 3.90784,-2.16034c1.65335,0.49461 2.58434,2.26375 2.07944,3.95148z" fill="url(#color-99)"/><path d="M254.83004,205.46148l3.56506,-11.91699l6.50541,1.94615l-3.56506,11.91699z" fill="url(#color-100)"/></g><g data-paper-data="{&quot;index&quot;:null}" stroke="none" stroke-width="0"><path d="M281.51299,195.35165c-0.5049,-1.68773 0.42609,-3.45687 2.07944,-3.95148c1.65335,-0.49461 3.40294,0.4726 3.90784,2.16034c0.5049,1.68774 -0.42609,3.45687 -2.07944,3.95148c-1.65335,0.49461 -3.40294,-0.4726 -3.90784,-2.16034z" fill="url(#color-101)"/><path d="M284.80602,207.40763l-3.56506,-11.91699l6.50541,-1.94615l3.56506,11.91699z" fill="url(#color-102)"/></g><g stroke="none" stroke-width="0"><path d="M271.03476,234.01736c-0.00045,1.76164 -1.39982,3.18936 -3.12556,3.18891c-1.72575,-0.00045 -3.12435,-1.42889 -3.1239,-3.19053c0.00045,-1.76164 1.39981,-3.18936 3.12555,-3.18892c1.72575,0.00045 3.12436,1.4289 3.12391,3.19054z" fill="url(#color-103)"/><path d="M264.5417,246.50969l0.00322,-12.43882l6.79028,0.00175l-0.00322,12.43883z" fill="url(#color-104)"/></g><g data-paper-data="{&quot;index&quot;:null}" stroke="none" stroke-width="0"><path d="M274.77695,234.01736c-0.00045,-1.76164 1.39815,-3.19009 3.1239,-3.19054c1.72575,-0.00045 3.12511,1.42728 3.12556,3.18892c0.00045,1.76164 -1.39815,3.19008 -3.1239,3.19053c-1.72574,0.00045 -3.12511,-1.42727 -3.12556,-3.18891z" fill="url(#color-105)"/><path d="M274.47972,246.51145l-0.00322,-12.43882l6.79028,-0.00176l0.00322,12.43883z" fill="url(#color-106)"/></g><g stroke="none" stroke-width="0"><path d="M271.03476,220.68066c-0.00045,1.76164 -1.39982,3.18936 -3.12556,3.18892c-1.72575,-0.00045 -3.12435,-1.4289 -3.1239,-3.19054c0.00045,-1.76164 1.39981,-3.18936 3.12555,-3.18891c1.72575,0.00045 3.12436,1.4289 3.12391,3.19053z" fill="url(#color-107)"/><path d="M264.5417,233.173l0.00322,-12.43882l6.79028,0.00176l-0.00322,12.43882z" fill="url(#color-108)"/></g><g data-paper-data="{&quot;index&quot;:null}" stroke="none" stroke-width="0"><path d="M274.77695,220.68066c-0.00045,-1.76164 1.39815,-3.19008 3.1239,-3.19053c1.72575,-0.00045 3.12511,1.42727 3.12556,3.18891c0.00045,1.76164 -1.39815,3.19009 -3.1239,3.19054c-1.72574,0.00045 -3.12511,-1.42728 -3.12556,-3.18892z" fill="url(#color-109)"/><path d="M274.47972,233.17475l-0.00322,-12.43882l6.79028,-0.00176l0.00322,12.43882z" fill="url(#color-110)"/></g><path d="M271.90357,246.4153c0,2.77573 -12.70551,2.77573 -12.70551,0c0,-2.77573 2.41038,-5.02591 5.91891,-5.02591c3.50853,0 6.78661,2.25018 6.78661,5.02591z" fill="url(#color-111)" stroke="#000000" stroke-width="0"/><path d="M280.69474,241.38938c3.50853,0 5.91891,2.25018 5.91891,5.02591c0,2.77573 -12.70551,2.77573 -12.70551,0c0,-2.77573 3.27808,-5.02591 6.78661,-5.02591z" data-paper-data="{&quot;index&quot;:null}" fill="url(#color-112)" stroke="#000000" stroke-width="0"/><path d="M263.85731,215.26164c0,-2.68101 18.08737,-2.68101 18.08737,0c0,2.68101 -4.04899,4.8544 -9.04368,4.8544c-4.99469,0 -9.04368,-2.17339 -9.04368,-4.8544z" fill="url(#color-113)" stroke="none" stroke-width="0"/><g><g><path d="M263.74504,215.15276c0,0 0.31282,-12.42186 -0.43572,-17.1464c-0.51088,-3.22461 -3.56142,-7.33649 -3.56142,-7.33649c0,0 8.9586,-2.74565 13.44313,-2.71336c4.3967,0.03166 13.20578,2.90523 13.20578,2.90523c0,0 -3.52459,3.54362 -4.04634,6.56999c-0.80888,4.69188 -0.27537,17.72103 -0.27537,17.72103l7.42486,8.97924c0,0 1.01732,3.80434 -16.52796,3.91443c-16.85388,-0.20987 -17.12936,-3.80681 -17.12936,-3.80681z" fill="url(#color-114)" stroke="none" stroke-width="0"/><path d="" fill="#ffdf00" stroke="#ffdf00" stroke-width="2"/></g><g><path d="M263.70663,213.02412l0.01672,-5.54593l18.18167,-0.00085l0.12342,5.62772z" fill="url(#color-115)" stroke="none" stroke-width="0"/><path d="" fill="#ffdf00" stroke="#ffdf00" stroke-width="2"/></g></g><text transform="translate(376.878,54.97338) scale(0.28101,0.28101)" font-size="40" xml:space="preserve" fill="#ffffff" fill-rule="nonzero" stroke="none" stroke-width="1" stroke-linecap="butt" stroke-linejoin="miter" stroke-miterlimit="10" stroke-dasharray="" stroke-dashoffset="0" font-family="Sans Serif" font-weight="normal" text-anchor="start" style="mix-blend-mode: normal"><tspan x="0" dy="0">NEW</tspan></text></g></g></svg>