<svg version="1.1" xmlns="http://www.w3.org/2000/svg" xmlns:xlink="http://www.w3.org/1999/xlink" width="693.48701" height="590.26224" viewBox="0,0,693.48701,590.26224"><defs><linearGradient x1="102.83113" y1="185.71058" x2="123.01887" y2="187.84153" gradientUnits="userSpaceOnUse" id="color-1"><stop offset="0" stop-color="#7a7a7a"/><stop offset="1" stop-color="#a4a4a4"/></linearGradient><linearGradient x1="67.82093" y1="122.81725" x2="78.75246" y2="123.97115" gradientUnits="userSpaceOnUse" id="color-2"><stop offset="0" stop-color="#7a7a7a"/><stop offset="1" stop-color="#a4a4a4"/></linearGradient><linearGradient x1="157.14319" y1="132.24581" x2="168.07471" y2="133.39971" gradientUnits="userSpaceOnUse" id="color-3"><stop offset="0" stop-color="#7a7a7a"/><stop offset="1" stop-color="#a4a4a4"/></linearGradient><linearGradient x1="124.09609" y1="83.71974" x2="120.34666" y2="119.24041" gradientUnits="userSpaceOnUse" id="color-4"><stop offset="0" stop-color="#a4a4a4"/><stop offset="1" stop-color="#7a7a7a"/></linearGradient><linearGradient x1="122.03308" y1="94.14128" x2="120.92863" y2="104.60438" gradientUnits="userSpaceOnUse" id="color-5"><stop offset="0" stop-color="#6b6b6b"/><stop offset="1" stop-color="#222222"/></linearGradient><linearGradient x1="125.39247" y1="204.05526" x2="124.69027" y2="210.70763" gradientUnits="userSpaceOnUse" id="color-6"><stop offset="0" stop-color="#9a9a9a"/><stop offset="1" stop-color="#dedede"/></linearGradient><linearGradient x1="115.61588" y1="202.96231" x2="114.91367" y2="209.61469" gradientUnits="userSpaceOnUse" id="color-7"><stop offset="0" stop-color="#9a9a9a"/><stop offset="1" stop-color="#dedede"/></linearGradient><linearGradient x1="105.89315" y1="201.93602" x2="105.19095" y2="208.5884" gradientUnits="userSpaceOnUse" id="color-8"><stop offset="0" stop-color="#9a9a9a"/><stop offset="1" stop-color="#dedede"/></linearGradient><linearGradient x1="96.11654" y1="200.84305" x2="95.41434" y2="207.49543" gradientUnits="userSpaceOnUse" id="color-9"><stop offset="0" stop-color="#9a9a9a"/><stop offset="1" stop-color="#dedede"/></linearGradient><linearGradient x1="111.14386" y1="195.62428" x2="110.10015" y2="205.51206" gradientUnits="userSpaceOnUse" id="color-10"><stop offset="0" stop-color="#a4a4a4"/><stop offset="1" stop-color="#3d3d3d"/></linearGradient><linearGradient x1="124.41421" y1="212.74546" x2="123.71201" y2="219.39778" gradientUnits="userSpaceOnUse" id="color-11"><stop offset="0" stop-color="#dedede"/><stop offset="1" stop-color="#9a9a9a"/></linearGradient><linearGradient x1="114.62484" y1="211.77311" x2="113.92264" y2="218.42549" gradientUnits="userSpaceOnUse" id="color-12"><stop offset="0" stop-color="#dedede"/><stop offset="1" stop-color="#9a9a9a"/></linearGradient><linearGradient x1="104.90216" y1="210.74682" x2="104.19997" y2="217.39919" gradientUnits="userSpaceOnUse" id="color-13"><stop offset="0" stop-color="#dedede"/><stop offset="1" stop-color="#9a9a9a"/></linearGradient><linearGradient x1="95.1128" y1="209.77446" x2="94.4106" y2="216.42683" gradientUnits="userSpaceOnUse" id="color-14"><stop offset="0" stop-color="#dedede"/><stop offset="1" stop-color="#9a9a9a"/></linearGradient><linearGradient x1="109.06084" y1="214.78033" x2="108.01712" y2="224.66811" gradientUnits="userSpaceOnUse" id="color-15"><stop offset="0" stop-color="#a4a4a4"/><stop offset="1" stop-color="#3d3d3d"/></linearGradient><radialGradient cx="76.48547" cy="95.07741" r="32.7263" gradientUnits="userSpaceOnUse" id="color-16"><stop offset="0" stop-color="#ffffff"/><stop offset="1" stop-color="#c4bfb5"/></radialGradient><radialGradient cx="86.32716" cy="90.16649" r="12.16191" gradientUnits="userSpaceOnUse" id="color-17"><stop offset="0" stop-color="#ffffff"/><stop offset="1" stop-color="#ffffff" stop-opacity="0"/></radialGradient><radialGradient cx="165.30796" cy="104.79873" r="32.7263" gradientUnits="userSpaceOnUse" id="color-18"><stop offset="0" stop-color="#ffffff"/><stop offset="1" stop-color="#c5c1b7"/></radialGradient><radialGradient cx="174.7238" cy="99.49734" r="12.16191" gradientUnits="userSpaceOnUse" id="color-19"><stop offset="0" stop-color="#ffffff"/><stop offset="1" stop-color="#ffffff" stop-opacity="0"/></radialGradient><linearGradient x1="115.02905" y1="155.75962" x2="113.97836" y2="165.71352" gradientUnits="userSpaceOnUse" id="color-20"><stop offset="0" stop-color="#a4a4a4"/><stop offset="1" stop-color="#686868"/></linearGradient><radialGradient cx="270.68333" cy="-7.94335" r="82.58309" gradientUnits="userSpaceOnUse" id="color-21"><stop offset="0" stop-color="#634a14"/><stop offset="1" stop-color="#443014"/></radialGradient><linearGradient x1="222.51508" y1="-13.02864" x2="212.42328" y2="82.57682" gradientUnits="userSpaceOnUse" id="color-22"><stop offset="0" stop-color="#4a4a4a"/><stop offset="1" stop-color="#000000"/></linearGradient><radialGradient cx="-1.45247" cy="-36.66908" r="82.58309" gradientUnits="userSpaceOnUse" id="color-23"><stop offset="0" stop-color="#634a14"/><stop offset="1" stop-color="#443014"/></radialGradient><linearGradient x1="46.71596" y1="-31.58541" x2="36.62416" y2="64.02005" gradientUnits="userSpaceOnUse" id="color-24"><stop offset="0" stop-color="#4a4a4a"/><stop offset="1" stop-color="#000000"/></linearGradient><radialGradient cx="178.28225" cy="60.31662" r="125.01858" gradientUnits="userSpaceOnUse" id="color-25"><stop offset="0" stop-color="#e0c297"/><stop offset="1" stop-color="#b9a17e"/></radialGradient><radialGradient cx="183.92314" cy="17.43753" r="120.91263" gradientUnits="userSpaceOnUse" id="color-26"><stop offset="0" stop-color="#634a14"/><stop offset="1" stop-color="#443014"/></radialGradient><linearGradient x1="103.83592" y1="278.58486" x2="85.32515" y2="453.9484" gradientUnits="userSpaceOnUse" id="color-27"><stop offset="0" stop-color="#a4a4a4"/><stop offset="1" stop-color="#7a7a7a"/></linearGradient><linearGradient x1="103.83592" y1="278.58486" x2="102.32586" y2="292.89064" gradientUnits="userSpaceOnUse" id="color-28"><stop offset="0" stop-color="#a4a4a4"/><stop offset="1" stop-color="#7a7a7a"/></linearGradient><linearGradient x1="104.51987" y1="272.10555" x2="101.64192" y2="299.37" gradientUnits="userSpaceOnUse" id="color-29"><stop offset="0" stop-color="#303030"/><stop offset="1" stop-color="#4b4b4b"/></linearGradient><linearGradient x1="-204.13249" y1="316.63184" x2="-235.25146" y2="332.1547" gradientUnits="userSpaceOnUse" id="color-30"><stop offset="0" stop-color="#9f896a"/><stop offset="1" stop-color="#6e604b"/></linearGradient><linearGradient x1="-212.86766" y1="311.88072" x2="-251.67483" y2="331.23861" gradientUnits="userSpaceOnUse" id="color-31"><stop offset="0" stop-color="#b9a17e"/><stop offset="1" stop-color="#9f896a"/></linearGradient><linearGradient x1="-221.99627" y1="302.42144" x2="-261.7352" y2="322.24414" gradientUnits="userSpaceOnUse" id="color-32"><stop offset="0" stop-color="#e0c297"/><stop offset="1" stop-color="#b9a17e"/></linearGradient><linearGradient x1="-185.4686" y1="296.83113" x2="-228.50963" y2="318.30105" gradientUnits="userSpaceOnUse" id="color-33"><stop offset="0" stop-color="#e0c297"/><stop offset="1" stop-color="#b9a17e"/></linearGradient><linearGradient x1="-191.9757" y1="318.93285" x2="-206.04327" y2="325.95006" gradientUnits="userSpaceOnUse" id="color-34"><stop offset="0" stop-color="#e0c297"/><stop offset="1" stop-color="#b9a17e"/></linearGradient><linearGradient x1="373.99468" y1="416.91676" x2="396.36567" y2="443.54174" gradientUnits="userSpaceOnUse" id="color-35"><stop offset="0" stop-color="#9f896a"/><stop offset="1" stop-color="#6e604b"/></linearGradient><linearGradient x1="383.89912" y1="416.0344" x2="411.79704" y2="449.23725" gradientUnits="userSpaceOnUse" id="color-36"><stop offset="0" stop-color="#b9a17e"/><stop offset="1" stop-color="#9f896a"/></linearGradient><linearGradient x1="396.03816" y1="410.98931" x2="424.60592" y2="444.98939" gradientUnits="userSpaceOnUse" id="color-37"><stop offset="0" stop-color="#e0c297"/><stop offset="1" stop-color="#b9a17e"/></linearGradient><linearGradient x1="364.75241" y1="391.32402" x2="395.69397" y2="428.14937" gradientUnits="userSpaceOnUse" id="color-38"><stop offset="0" stop-color="#e0c297"/><stop offset="1" stop-color="#b9a17e"/></linearGradient><linearGradient x1="361.92631" y1="414.18974" x2="372.0393" y2="426.22574" gradientUnits="userSpaceOnUse" id="color-39"><stop offset="0" stop-color="#e0c297"/><stop offset="1" stop-color="#b9a17e"/></linearGradient><radialGradient cx="-92.3237" cy="283.89633" r="23.86223" gradientUnits="userSpaceOnUse" id="color-40"><stop offset="0" stop-color="#bb8c8c"/><stop offset="1" stop-color="#9d7070"/></radialGradient><radialGradient cx="-106.20717" cy="280.03128" r="46.69153" gradientUnits="userSpaceOnUse" id="color-41"><stop offset="0" stop-color="#bb8c8c"/><stop offset="1" stop-color="#9d7070"/></radialGradient><radialGradient cx="284.44886" cy="342.38918" r="23.86223" gradientUnits="userSpaceOnUse" id="color-42"><stop offset="0" stop-color="#bb8c8c"/><stop offset="1" stop-color="#9d7070"/></radialGradient><radialGradient cx="298.72372" cy="344.36851" r="46.69153" gradientUnits="userSpaceOnUse" id="color-43"><stop offset="0" stop-color="#bb8c8c"/><stop offset="1" stop-color="#9d7070"/></radialGradient><radialGradient cx="9.16361" cy="273.55593" r="23.86226" gradientUnits="userSpaceOnUse" id="color-44"><stop offset="0" stop-color="#bb8c8c"/><stop offset="1" stop-color="#9d7070"/></radialGradient><radialGradient cx="-6.9202" cy="269.96351" r="46.61342" gradientUnits="userSpaceOnUse" id="color-45"><stop offset="0" stop-color="#bb8c8c"/><stop offset="1" stop-color="#9d7070"/></radialGradient><radialGradient cx="195.45947" cy="292.51445" r="23.86226" gradientUnits="userSpaceOnUse" id="color-46"><stop offset="0" stop-color="#bb8c8c"/><stop offset="1" stop-color="#9d7070"/></radialGradient><radialGradient cx="211.64441" cy="295.61955" r="46.61342" gradientUnits="userSpaceOnUse" id="color-47"><stop offset="0" stop-color="#bb8c8c"/><stop offset="1" stop-color="#9d7070"/></radialGradient><linearGradient x1="34.16281" y1="345.49995" x2="163.60112" y2="359.16303" gradientUnits="userSpaceOnUse" id="color-48"><stop offset="0" stop-color="#bb8c8c"/><stop offset="1" stop-color="#9d7070"/></linearGradient><linearGradient x1="34.09967" y1="346.09821" x2="163.53797" y2="359.76129" gradientUnits="userSpaceOnUse" id="color-49"><stop offset="0" stop-color="#d8d8d8"/><stop offset="1" stop-color="#a7a7a7"/></linearGradient></defs><g transform="translate(264.03489,44.67343)"><g data-paper-data="{&quot;isPaintingLayer&quot;:true}" fill-rule="nonzero" stroke-linecap="butt" stroke-linejoin="miter" stroke-miterlimit="10" stroke-dasharray="" stroke-dashoffset="0" style="mix-blend-mode: normal"><path d="M226.06918,123.08658c-2.36989,22.45137 31.22781,47.5496 -1.32122,83.59444c-33.83207,37.46573 -83.28813,40.65251 -119.88251,36.78972c-39.21598,-4.13951 -74.065,-7.65316 -107.09501,-63.82929c-22.41627,-38.1247 11.60135,-59.35287 13.69714,-79.2075c6.19606,-58.69887 59.25915,-101.21276 118.51974,-94.95741c59.26059,6.25535 102.27788,58.91115 96.08183,117.61003z" fill="#191919" stroke="none" stroke-width="0"/><g><path d="M167.3627,184.2252c3.70146,-2.03525 8.26928,-9.71994 9.784,-13.60752c0.50991,-5.11906 4.57643,-11.15548 3.93177,-16.09997c-0.69761,-5.35059 -3.55465,-10.70077 -4.76258,-15.98697c-1.09862,-4.8076 -2.32231,-9.45631 -3.97147,-13.90294c0.89342,5.84657 0.97233,11.85335 -0.25917,16.44218c-1.65745,6.176 -5.40365,11.77888 -5.01733,18.47404c0.53583,9.28576 6.63079,12.53487 0.87301,21.89344c-1.13614,1.56788 -2.36559,2.78594 -3.6743,3.72412c1.08249,-0.11482 2.12567,-0.40281 3.09606,-0.93636zM168.83702,106.09235c7.15659,9.1842 10.57493,19.664 13.12442,30.97046c1.23716,5.48646 4.29789,11.07923 4.8843,16.67387c0.64425,6.14624 -3.38707,12.19343 -4.06573,18.31468c-2.13169,5.40011 -7.50094,14.64834 -12.70164,17.46968c-5.92849,3.21612 -12.57248,0.79044 -18.48483,-0.54516c-11.06865,-2.50039 -22.3605,-1.94591 -33.33229,-0.35879c-0.64192,-0.06394 -1.28375,-0.12851 -1.9255,-0.19359l0.12213,2.93017c0,0 -1.21295,2.74138 -3.85323,1.5062c-1.64873,-0.77131 -1.79496,-2.12994 -1.67225,-3.04163c-0.64136,-0.5115 -1.28898,-1.00458 -1.9392,-1.48391c-0.84816,0.27245 -2.30096,0.40237 -3.2945,-1.32638c-0.02434,-0.04235 -0.0476,-0.08439 -0.0698,-0.12617c-0.46958,-0.33233 -0.90582,-0.84944 -1.05615,-1.65014c-0.4069,-0.27891 -0.81149,-0.5566 -1.21291,-0.83414c0.95218,2.17834 1.73288,4.4624 3.74332,6.11193l1.70585,1.63312c0,0 2.12126,2.03868 0.13563,4.24877c-1.98563,2.2101 -4.10686,0.17142 -4.10686,0.17142l-1.46439,-1.41375c-3.27674,-2.90226 -3.69153,-7.36448 -6.32292,-10.14197c-1.19156,-1.25774 -3.35174,-0.6623 -5.03496,-0.95163c-3.58824,-0.61676 -9.43686,-1.34255 -12.14883,-4.23388c-3.9304,-4.19035 -2.88997,-13.16215 -5.85594,-18.35325c-9.44618,-1.59356 -16.69234,-10.5995 -13.70276,-20.93319c0.74245,-2.56642 3.10136,-4.3294 4.29271,-6.7108c2.48296,-4.96335 -1.46257,-12.85115 -1.71655,-17.71892c-0.34284,-6.57141 2.98094,-11.01467 7.0093,-15.14612c0.17585,-0.35408 0.35662,-0.71192 0.54174,-1.07414c0,0 0.74771,-1.45838 2.17537,-1.65251c0.02133,-0.35039 0.04919,-0.70172 0.08381,-1.05405c0,0 0.31575,-2.99129 3.20411,-2.68639c2.88836,0.30489 2.57263,3.29617 2.57263,3.29617c-1.23827,10.76529 5.33771,18.07746 10.51022,26.28864c1.1804,1.87388 2.60049,6.29118 2.79578,8.47896c0.18096,2.02757 -1.70795,6.04107 0.05167,7.84063c2.54484,2.60262 9.24683,3.16464 10.93089,6.41612c1.90383,3.67582 0.96409,8.31775 1.90058,12.38003c2.1663,4.73253 3.27912,9.06011 4.129,14.19485l0.26613,1.25868c0,0 0.61386,2.93421 -2.22614,3.59089c-2.84001,0.6567 -3.45384,-2.27751 -3.45384,-2.27751l-0.3141,-1.51479c-0.80383,-4.85682 -1.86638,-8.73557 -3.88754,-13.22879c-0.83761,-3.62302 0.01083,-7.63588 -1.29563,-11.10391c-0.54981,-1.45948 -8.98763,-3.9214 -10.47794,-5.7885c-3.71879,-4.65906 -0.53589,-9.22913 -2.18761,-14.25176c-1.14069,-3.46867 -3.90384,-5.52563 -5.75443,-8.65518c-2.63797,-4.46113 -4.89818,-9.24579 -6.06157,-14.29185c-1.17535,2.89734 -1.52123,5.6878 0.3849,9.19363c1.39471,2.56521 3.83375,4.54426 4.74768,7.33433c1.86727,5.70035 -2.81869,15.66989 1.96468,20.49349c6.00376,6.0543 12.82246,10.07635 15.42803,18.85662c0.29725,7.79259 4.09692,11.91089 8.96598,15.46381l0.9826,0.10372c3.64745,0.54782 7.3528,-1.82253 10.86417,-3.08426c6.43951,-2.31388 13.00903,-3.84062 18.89336,-7.50013c4.42019,-3.32423 3.98336,-13.22801 5.83412,-18.26845c1.59027,-4.33097 5.44951,-5.66178 8.53054,-8.45077c3.39734,-3.07535 6.7354,-8.01952 8.66343,-12.135c3.61769,-7.72222 1.01228,-16.37612 1.85676,-24.49157c0,0 0.31575,-2.99129 3.20411,-2.68639c2.30665,0.24348 2.56985,2.20027 2.58228,2.97856c1.49264,-0.17919 2.53789,1.16003 2.53789,1.16003zM146.15762,181.46682c5.875,0.62015 13.21189,2.34791 16.98811,-3.38992c4.29652,-6.86384 -1.37026,-10.66947 -1.88107,-18.17649c-0.50312,-7.39413 3.31703,-13.44466 5.17881,-20.22889c1.25348,-4.56767 0.8805,-11.31965 -0.38048,-17.36369c-0.21913,3.19973 -0.8174,6.39048 -2.27177,9.59992c-2.15672,4.75927 -6.10384,10.32861 -9.96376,13.84807c-1.93117,1.76085 -6.09988,3.28688 -6.98188,6.18509c-2.23378,7.34013 -2.00536,15.74107 -7.90974,20.96408c-3.10527,1.92223 -7.3515,4.18067 -11.94658,6.19804c6.27039,0.40323 12.57492,1.66779 19.16837,2.36378zM90.18915,164.03099c-2.1446,-7.3172 -9.41923,-10.61478 -14.07581,-15.90025c-4.73657,-5.37621 -2.87787,-13.00008 -2.8072,-19.36713c0.04399,-3.96251 -1.99841,-5.36008 -3.76053,-8.03419c0.59605,2.53243 1.28603,5.06884 1.32242,7.52927c0.14247,9.63501 -12.26633,21.26238 1.99385,27.04292c1.41072,0.57185 2.9383,0.77529 4.40746,1.16293c3.21932,4.54028 4.44889,7.64083 5.68085,13.12514c0.44641,1.98732 -0.38083,4.66684 1.09162,6.01756c2.89404,2.65474 7.72691,2.09613 11.81115,2.71315c-3.26771,-3.45288 -5.50293,-7.77277 -5.66379,-14.28938z" fill="#000000" stroke="none" stroke-width="0.5"/><path d="M92.73066,281.39823l20.20094,-191.37532l20.18775,2.13095l-20.17591,191.13816z" fill="url(#color-1)" stroke="none" stroke-width="0"/><path d="M63.90032,159.95949l7.84121,-74.28447l10.93153,1.15389l-7.83151,74.19241z" fill="url(#color-2)" stroke="none" stroke-width="0"/><path d="M153.22259,169.38805l7.84121,-74.28447l10.93153,1.15389l-7.83151,74.19241z" fill="url(#color-3)" stroke="none" stroke-width="0"/><path d="M57.73911,112.63177l3.74944,-35.52062l125.21511,13.21728l-3.74944,35.52062z" fill="url(#color-4)" stroke="none" stroke-width="0"/><path d="M38.99796,95.95606l1.10445,-10.46318l163.86139,17.29665l-1.10445,10.46318z" fill="url(#color-5)" stroke="none" stroke-width="0"/><g stroke="none" stroke-width="0"><path d="M120.59652,210.27551l0.70221,-6.65238l8.18753,0.86424l-0.70221,6.65238z" fill="url(#color-6)"/><path d="M110.8199,209.18257l0.70221,-6.65238l8.18755,0.86425l-0.70221,6.65238z" fill="url(#color-7)"/><path d="M101.0972,208.15627l0.70221,-6.65238l8.18753,0.86424l-0.70221,6.65238z" fill="url(#color-8)"/><path d="M91.32058,207.0633l0.70221,-6.65238l8.18753,0.86424l-0.70221,6.65238z" fill="url(#color-9)"/><path d="M85.02995,202.86572l1.04372,-9.88778l50.14043,5.29266l-1.04372,9.88778z" fill="url(#color-10)"/></g><g data-paper-data="{&quot;index&quot;:null}" stroke="none" stroke-width="0"><path d="M128.50798,213.17758l-0.70221,6.65238l-8.18753,-0.86424l0.70221,-6.65238z" fill="url(#color-11)"/><path d="M118.71862,212.20523l-0.70221,6.65238l-8.18753,-0.86424l0.70221,-6.65238z" fill="url(#color-12)"/><path d="M108.99594,211.17894l-0.70221,6.65238l-8.18753,-0.86424l0.70221,-6.65238z" fill="url(#color-13)"/><path d="M99.20657,210.20659l-0.70221,6.65238l-8.18753,-0.86424l0.70221,-6.65238z" fill="url(#color-14)"/><path d="M134.13107,217.42666l-1.04372,9.88778l-50.14043,-5.29266l1.04372,-9.88778z" fill="url(#color-15)"/></g><g stroke-width="0"><g><path d="M108.86823,98.49563c-1.89731,17.97438 -17.93366,31.0151 -35.81816,29.12728c-17.8845,-1.88782 -30.84469,-17.98933 -28.94737,-35.9637c1.89731,-17.97438 17.93366,-31.0151 35.81816,-29.12728c17.8845,1.88782 30.84469,17.98933 28.94737,35.9637z" fill="url(#color-16)" stroke="#000000"/><path d="M87.44013,96.38921c-0.70509,6.67973 -6.32247,11.56211 -12.54675,10.90508c-6.22428,-0.65702 -10.69847,-6.60461 -9.99337,-13.28434c0.70509,-6.67973 6.32245,-11.56207 12.54672,-10.90507c6.22428,0.65702 10.69849,6.6046 9.9934,13.28432z" fill="#000000" stroke="none"/></g><path d="M97.59722,91.35612c-0.70509,6.67973 -6.32247,11.56211 -12.54675,10.90508c-6.22428,-0.65702 -10.69847,-6.60461 -9.99337,-13.28434c0.70509,-6.67973 6.32245,-11.56207 12.54672,-10.90507c6.22428,0.65702 10.69849,6.6046 9.9934,13.28432z" fill="url(#color-17)" stroke="none"/></g><g stroke-width="0"><g><path d="M197.69075,108.21693c-1.89731,17.97438 -17.93366,31.0151 -35.81816,29.12728c-17.8845,-1.88782 -30.84469,-17.98933 -28.94737,-35.9637c1.89731,-17.97438 17.93366,-31.0151 35.81816,-29.12728c17.8845,1.88782 30.84469,17.98933 28.94737,35.9637z" fill="url(#color-18)" stroke="#000000"/><path d="M176.26266,106.11056c-0.70509,6.67973 -6.32247,11.56211 -12.54673,10.90509c-6.22428,-0.65702 -10.69847,-6.60461 -9.99337,-13.28434c0.70509,-6.67973 6.32245,-11.56207 12.54672,-10.90507c6.22428,0.65702 10.69847,6.60459 9.99338,13.28431z" fill="#000000" stroke="none"/></g><path d="M185.99384,100.68696c-0.70509,6.67973 -6.32247,11.56211 -12.54675,10.90508c-6.22428,-0.65702 -10.69847,-6.60461 -9.99337,-13.28434c0.70509,-6.67973 6.32245,-11.56207 12.54672,-10.90507c6.22428,0.65702 10.69849,6.6046 9.9934,13.28432z" fill="url(#color-19)" stroke="none"/></g><path d="M63.85148,160.4223l1.0507,-9.95392l100.2538,10.58246l-1.04939,9.94156z" fill="url(#color-20)" stroke="none" stroke-width="0"/></g><g data-paper-data="{&quot;index&quot;:null}" stroke="none" stroke-width="0"><path d="M341.79305,100.95049c0,0 -4.02145,18.7818 -10.76116,24.82947c-7.56669,6.78972 -17.27882,14.10014 -24.41629,14.54203c-8.89348,0.55062 -18.10033,-1.85854 -24.17099,-11.36777c-3.42615,-5.36683 -11.89691,-17.77962 -15.80198,-30.85332c-5.31061,-17.77928 -6.34602,-36.29511 -13.43722,-35.46886c-35.57441,4.14506 -82.4476,-30.12872 -78.05748,-38.2387c3.67602,-6.7908 23.84971,-27.3039 44.253,-32.8635c90.18349,-37.55758 69.22114,46.51325 78.48174,79.27978c2.87833,10.18427 7.05128,18.5486 11.55766,26.83969c2.98561,5.49312 8.79715,9.21091 14.74492,11.69964c9.15082,3.82898 17.60785,-8.39846 17.60785,-8.39846z" fill="url(#color-21)"/><path d="M177.07762,-1.80867l19.90417,-13.9152l60.87895,87.08073l-19.90417,13.91518z" fill="url(#color-22)"/></g><g stroke="none" stroke-width="0"><path d="M-61.40164,58.50452c6.13811,-7.16751 11.96549,-14.47624 16.9067,-23.83508c15.89772,-30.1109 12.95027,-116.70557 93.30467,-61.14655c18.79283,9.69697 34.23906,33.97002 36.41623,41.37866c2.60011,8.84785 -50.39597,32.57976 -84.32093,21.09857c-6.76241,-2.2886 -11.64085,15.603 -20.54653,31.88165c-6.54862,11.97023 -17.42435,22.3409 -21.89552,26.87409c-7.92228,8.03221 -17.42922,8.46597 -26.01173,6.07065c-6.88788,-1.92237 -14.85967,-11.09942 -20.84201,-19.31933c-0.86336,-1.18629 -1.5871,-2.68457 -2.19385,-4.36265c1.83899,1.45487 3.57166,2.96247 6.44214,3.31764c3.644,0.38465 4.95177,-0.37845 4.0921,-3.42139c0.64303,-0.76453 1.2111,-2.28357 1.39669,-2.67825c0.42963,-0.91356 5.90389,0.36136 7.21705,-2.46387c1.05955,-2.27959 -2.21694,-3.81559 -5.19732,-5.36519c5.79563,-1.29009 11.51415,-3.68723 15.23227,-8.0289z" fill="url(#color-23)"/><path d="M11.09085,61.32484l-16.5602,-17.76423l77.71857,-72.45083l16.56019,17.76425z" fill="url(#color-24)"/></g><path d="M226.12387,122.56859c-2.36989,22.45137 31.22781,47.5496 -1.3212,83.59445c-33.83207,37.46573 -83.28813,40.65251 -119.88251,36.78972c-39.21598,-4.13951 -74.065,-7.65316 -107.09501,-63.82929c-22.41627,-38.1247 11.60135,-59.35287 13.69714,-79.2075c6.19606,-58.69887 59.25915,-101.21276 118.51974,-94.95741c59.26059,6.25535 102.27788,58.91115 96.08183,117.61003zM162.96613,140.48443c19.82448,2.0926 37.59179,-12.28192 39.68439,-32.10639c2.0926,-19.82448 -12.28192,-37.59179 -32.10639,-39.68439c-19.82448,-2.0926 -37.59179,12.28192 -39.68439,32.10639c-2.0926,19.82448 12.28192,37.59179 32.10639,39.68439zM72.86368,130.41762c19.82448,2.0926 37.59179,-12.28192 39.68439,-32.10639c2.0926,-19.82448 -12.28192,-37.59179 -32.10639,-39.68439c-19.82448,-2.0926 -37.59179,12.28192 -39.68439,32.10639c-2.0926,19.82448 12.28192,37.59179 32.10639,39.68439zM107.74739,226.5076c44.0694,5.48867 72.92523,-19.47433 74.3203,-32.69063c1.39507,-13.21631 -28.52349,6.99965 -69.70031,2.57281c-52.99191,-5.69704 -66.65943,-30.50821 -68.05451,-17.29186c-1.39507,13.21631 20.0459,42.00582 63.43452,47.40971z" fill="url(#color-25)" stroke="none" stroke-width="0"/><path d="M239.56423,77.5375c1.90869,24.49988 6.25644,41.79698 -17.34975,56.03971c-25.79933,15.56596 42.34817,-95.69144 -93.63764,-109.48645c-137.96099,-15.17764 -95.41393,107.1696 -117.33045,84.83016c-17.92309,-18.26893 -10.68002,-34.94134 -1.70845,-56.26916c21.80444,-51.83514 48.56891,-64.92635 120.86217,-57.29531c72.29328,7.63105 105.0541,29.42525 109.16413,82.18107z" fill="url(#color-26)" stroke="none" stroke-width="0"/><path d="M18.0026,439.5508c0,0 11.58792,-91.76875 9.72935,-127.50548c-1.26853,-24.39116 -20.63382,-58.32946 -20.63382,-58.32946c0,0 68.70447,-12.43961 102.04245,-8.67768c32.68506,3.68824 96.06537,31.03265 96.06537,31.03265c0,0 -29.10498,24.54722 -35.36325,46.65259c-9.70234,34.27066 -16.36492,131.12767 -16.36492,131.12767z" fill="#191919" stroke="none" stroke-width="0"/><g stroke="none"><path d="M99.22638,289.9398c0.99127,-0.51965 1.80706,-0.47709 2.4407,-0.21876l0.25325,-2.59582c0,0 0.31575,-2.99129 3.30704,-2.67554c2.99129,0.31575 2.67554,3.30704 2.67554,3.30704l-0.32708,2.82173c0.20835,1.19138 0.34883,2.53319 0.3942,3.9407l0.3159,1.80641c0.30821,1.76646 0.49222,3.51934 0.58358,5.26159c3.78443,11.04886 1.03549,24.86899 -0.14582,35.9977c-0.06212,0.3102 -0.12511,0.61998 -0.18889,0.92937c2.50867,8.46522 6.62312,16.76766 6.27773,25.59445c-0.33867,8.65516 -6.88768,15.26445 -6.75343,23.85777c0.05258,3.3656 6.85752,17.46154 10.50112,14.98515c3.28988,-2.72318 8.10971,-5.58963 9.69219,-9.85324c1.49114,-4.01756 -0.88961,-9.03304 -1.01598,-13.03362c-0.06587,-2.08537 1.27494,-9.2346 1.59367,-10.26231c1.84956,-5.96395 7.22754,-9.91244 10.7892,-14.71365c0.14997,-0.20216 0.29724,-0.404 0.44187,-0.60552c-0.16307,-7.0995 -1.34551,-14.1446 -3.95237,-20.89126c-2.19254,-8.44127 -7.11555,-19.00594 -2.78202,-27.73717c6.60062,-13.29903 22.51614,-12.33073 34.81451,-15.06343c0.66089,-0.14685 1.30894,-0.28481 1.94622,-0.4098c0.33599,-0.08588 0.67051,-0.16565 1.00307,-0.23924c0.67327,-0.14897 1.35226,-0.22892 2.03519,-0.25046c4.0239,-0.4753 7.72713,-0.08939 11.71856,2.34524c0,0 0.90258,0.57703 1.28609,1.58101c2.01408,0.89138 3.9687,1.70689 5.81795,2.15571c0,0 2.91657,0.73562 2.18095,3.65217c-0.73562,2.91657 -3.65217,2.18095 -3.65217,2.18095c-4.33372,-1.12557 -11.82579,-6.31215 -16.94537,-5.97635c-0.45742,0.07087 -0.91844,0.15557 -1.38367,0.24872c-6.76775,1.92736 -15.77133,6.44434 -17.46122,13.79252c-1.41078,6.13447 0.51283,12.67906 -0.09941,18.84611c-1.06857,10.1232 -2.75399,18.53951 -8.10782,26.99192c0.88646,23.80627 -8.82131,47.93225 -29.98306,59.92221c-10.85582,4.69232 -15.20303,-9.34374 -19.2607,-17.37089c-9.21487,-18.22943 1.04187,-40.86578 5.12982,-59.60191c-0.29208,-1.01206 -0.55481,-2.02186 -0.776,-3.02907c-1.02639,-9.24442 0.98445,-18.15441 1.37159,-27.26782c-1.27719,0.6564 -2.68848,1.16761 -3.42242,2.3403c-1.40198,2.24013 -1.13865,6.60759 -1.53184,8.5971c-1.09045,5.51771 -4.35565,9.56716 -4.85498,15.10033c-0.62259,5.89811 0.68864,18.84675 -3.97093,23.34377c-1.32318,1.27701 -2.90095,1.88907 -4.6029,2.00228c-3.89634,2.48412 -9.16057,3.18273 -10.45079,8.22296c-1.96032,7.65801 5.38909,10.22199 6.99612,16.51885c1.82825,7.16369 -1.52466,14.67097 -8.02365,17.47303c-13.03027,7.42044 -31.26373,1.70972 -31.70868,-15.60538c-0.16088,-6.26049 8.72652,-15.65414 6.68254,-21.39485c-2.06949,-5.81239 -7.43538,-10.92987 -9.76231,-17.1396c-4.28876,-9.93968 0.00758,-20.05083 -0.37886,-30.46457c-0.30755,-8.28794 -2.6134,-16.34703 -4.7458,-24.16222c-1.27919,-4.6882 -1.80271,-11.48249 -7.13286,-12.86693c-0.92939,0.38959 -1.88903,0.79384 -2.92996,1.18543c0,0 -2.81668,1.05531 -3.87201,-1.76137c-1.05531,-2.81668 1.76135,-3.87202 1.76135,-3.87202c0.30346,-0.1132 0.61149,-0.22475 0.92369,-0.33446c0.87255,-1.66711 2.95683,-1.4471 2.95683,-1.4471c0.38397,0.05652 0.75583,0.12186 1.11603,0.19581c12.87083,-3.40616 29.66925,-2.77529 31.63992,14.54987c1.01099,8.88811 -3.72829,14.46874 2.59999,22.36494c6.89006,4.93061 11.03356,11.39634 11.21521,20.06475c0.09906,4.72806 -1.73683,9.19239 0.45873,13.81247c1.01583,2.13761 2.34438,3.1453 4.18024,4.6224c0.42438,0.34143 4.14735,2.51405 6.55497,3.56767c2.81761,-6.44353 0.95072,-16.20899 0.21216,-22.75741c0.03247,-7.3652 -1.81953,-17.44227 0.75619,-24.49281c1.82048,-4.98316 6.83589,-10.54631 10.53903,-14.16793l0.12205,-0.33938c0,0 1.58712,-2.48259 4.07678,-0.96263c0.22362,-0.22162 0.50639,-0.43007 0.86113,-0.61603zM100.3256,377.27439c-0.52539,4.97723 -1.59747,10.15928 0.40139,14.99906c2.176,5.26869 5.34856,10.13697 8.4015,14.91134c1.76834,2.76543 1.68701,5.4034 4.48951,3.165c0.97262,-0.55 1.92856,-1.13962 2.86958,-1.76004c-6.90054,-1.11366 -11.22411,-9.28541 -13.68256,-16.16899c-3.7353,-10.4587 5.61993,-18.63705 5.99725,-28.57062c0.18321,-4.82272 -1.15804,-9.64178 -2.78831,-14.43076c-2.27043,9.18054 -4.67507,18.25549 -5.68837,27.855zM136.55818,381.37877c1.47483,-5.67877 2.60291,-11.53427 3.15268,-17.42699c-2.21402,2.35028 -4.31529,4.82515 -5.17594,7.75979c-1.58004,5.38757 0.00079,10.88896 0.26727,16.22537c0.6974,-2.29899 1.24284,-4.58221 1.75601,-6.5582zM138.79575,308.36081c-3.57693,7.06271 1.31005,16.69337 3.04932,23.41874c1.51766,4.15985 2.67092,8.48251 3.45406,12.88507c1.87735,-5.12846 2.65898,-10.45018 3.30581,-16.5781c0.72491,-6.3898 -1.31088,-13.08441 0.20403,-19.49513c0.87306,-3.69458 3.02197,-6.98659 5.86521,-9.75284c-6.61202,1.20946 -12.8137,3.47093 -15.87841,9.5223zM99.66756,297.22838l-0.88032,-1.66303l-0.4292,0.60762c-3.06573,2.95467 -7.55604,7.73997 -9.05328,11.84196c-1.96954,5.39601 -0.79767,13.31942 -0.4923,19.54688c1.17881,-3.06683 2.62827,-5.95179 3.30336,-9.47989c0.83271,-4.3519 -0.07688,-6.83351 2.37123,-10.64549c1.32158,-2.05789 4.21886,-2.60942 5.84212,-4.43876c0.62717,-0.70682 1.0453,-1.69565 1.31082,-2.82384c-0.56457,-1.02894 -1.21838,-2.01342 -1.97244,-2.94542zM38.95568,291.48852c2.23626,8.23866 4.65984,16.80557 4.98343,25.53327c0.34781,9.38097 -3.99992,19.74394 -0.05496,28.53338c2.28331,6.09505 8.35082,11.78565 9.9585,17.69975c2.27687,8.3758 -6.67162,15.2299 -6.43559,23.08116c0.39088,13.00218 13.95272,15.55712 23.08397,10.20443c11.3009,-3.77865 0.43706,-14.46467 -1.59441,-19.87984c-0.72778,-1.93998 -1.04425,-8.56203 -0.57579,-10.26378c0.77181,-2.80381 3.65801,-6.52665 6.12186,-8.21159c0.53116,-0.36324 1.15358,-0.64197 1.81586,-0.88811c-4.40093,-2.56627 -8.32102,-6.62029 -9.76558,-9.6236c-3.66609,-7.62202 0.70887,-15.70274 -2.31505,-23.35144c-1.5271,-3.86268 -4.84266,-6.40873 -8.06127,-8.74235c-2.86325,-3.5174 -5.30159,-7.09046 -5.96452,-11.76471c-0.66083,-4.65933 1.9179,-9.69558 1.51444,-14.3471c-0.78157,-9.01081 -11.18725,-12.32395 -18.44168,-11.35544c3.11722,3.30766 4.32226,8.18665 5.73082,13.37603z" fill="#303030" stroke-width="0.5"/><path d="M69.65838,452.29468l18.5108,-175.36354l31.33352,3.30746l-18.5108,175.36354z" fill="url(#color-27)" stroke-width="0"/><path d="M8.44428,282.98081l1.51007,-14.30577l187.76318,19.81965l-1.51007,14.30577z" fill="url(#color-28)" stroke-width="0"/><path d="M35.06611,292.34248l2.87794,-27.26445l133.15164,14.05503l-2.87794,27.26445z" fill="url(#color-29)" stroke-width="0"/></g><g data-paper-data="{&quot;index&quot;:null}" stroke="none" stroke-width="0"><path d="M-223.12459,346.19857c-9.31275,2.14466 -9.83111,-13.16549 -5.54421,-23.4657c4.28689,-10.30018 9.19078,-22.99318 15.92865,-19.82687c7.0403,3.30845 3.06814,11.07324 -1.21873,21.37345c-4.28689,10.30018 -1.43188,17.45035 -9.1657,21.9191z" fill="url(#color-30)"/><path d="M-245.07158,339.50599c-9.27267,-2.31191 -2.79145,-16.19224 5.7004,-23.42822c8.49184,-7.236 18.61881,-16.32479 23.18799,-10.44714c4.77431,6.14144 -2.28722,11.26052 -10.77909,18.49649c-8.49184,7.236 -9.18992,14.90338 -18.10932,15.37889z" fill="url(#color-31)"/><path d="M-262.34836,320.37462c-6.40489,-7.09255 6.71855,-14.99471 17.80311,-16.26116c11.08455,-1.26645 24.55982,-3.1581 25.07194,4.26902c0.53514,7.7605 -8.18126,8.06828 -19.26582,9.33472c-11.08455,1.26645 -15.94215,7.2397 -23.60924,2.6574z" fill="url(#color-32)"/><path d="M-231.54305,310.65716c-1.63884,-11.94058 9.90035,-11.1111 23.50152,-12.66508c13.60114,-1.55396 24.97902,-3.34647 25.75259,7.03767c0.80832,10.85028 -9.90035,11.1111 -23.50152,12.66508c-13.60114,1.55396 -24.2418,3.97022 -25.75259,-7.03767z" fill="url(#color-33)"/><path d="M-205.86553,323.61658c-5.68234,-9.60116 -10.69922,-16.73566 -4.18949,-20.99422c6.23006,-4.0756 12.8573,7.80888 18.53964,17.41004c5.68234,9.60116 7.3056,24.83384 -2.2153,24.00974c-8.28175,-3.34579 -6.45248,-10.82442 -12.13485,-20.42557z" data-paper-data="{&quot;index&quot;:null}" fill="url(#color-34)"/></g><g data-paper-data="{&quot;index&quot;:null}" stroke="none" stroke-width="0"><path d="M379.96594,427.84325c0.16635,-11.15544 -0.38759,-19.85964 7.38783,-20.09303c7.4414,-0.22335 6.88887,13.37279 6.72255,24.52822c-0.16632,11.15543 -6.73478,24.99468 -14.42479,19.32103c-5.3166,-7.17743 0.14811,-12.6008 0.31443,-23.75623z" fill="url(#color-35)"/><path d="M402.4491,454.19391c-7.99342,-3.98584 -5.58247,-11.29771 -10.49324,-21.31548c-4.91078,-10.01776 -9.35182,-17.52424 -2.52778,-21.2584c6.53088,-3.57377 12.20433,8.79446 17.11508,18.81223c4.91076,10.01775 5.33273,25.33087 -4.09407,23.76161z" fill="url(#color-36)"/><path d="M405.31087,431.68477c-9.66497,-5.5731 -17.53891,-9.32429 -13.95957,-16.2308c3.42556,-6.60983 15.03497,0.48825 24.69994,6.06136c9.66497,5.5731 18.55966,18.04522 9.8612,22.00301c-8.8574,1.15256 -10.9366,-6.26046 -20.60158,-11.83356z" fill="url(#color-37)"/><path d="M375.09267,418.55178c-11.85928,-6.83842 -21.57962,-11.33938 -16.52003,-20.97175c4.8422,-9.21856 14.56691,-3.04611 26.42619,3.79227c11.85928,6.83842 22.77544,10.66966 16.52003,20.97175c-5.76676,9.4974 -14.56691,3.04611 -26.42619,-3.79227z" fill="url(#color-38)"/><path d="M372.8049,424.01426c-9.03393,6.54671 -10.332,14.1356 -19.26119,13.90918c-9.06246,-3.03295 -1.51118,-16.36144 7.52273,-22.90815c9.03392,-6.54672 19.84338,-14.81214 23.93687,-8.59385c4.27726,6.49746 -3.1645,11.04611 -12.19843,17.59284z" data-paper-data="{&quot;index&quot;:null}" fill="url(#color-39)"/></g><g stroke="none" stroke-width="0"><path d="M-92.07449,319.25116c-13.09288,1.50223 -24.8997,-7.67758 -26.37131,-20.50364c-1.47163,-12.82609 7.94926,-24.44143 21.04212,-25.94367c13.09288,-1.50223 24.89968,7.67756 26.37131,20.50364c1.47163,12.82609 -7.94926,24.44143 -21.04212,25.94369z" fill="url(#color-40)"/><path d="M-189.91983,287.03825l91.90102,-15.97382l5.79039,50.4668l-93.04065,4.79327z" fill="url(#color-41)"/></g><g data-paper-data="{&quot;index&quot;:null}" stroke="none" stroke-width="0"><path d="M270.15021,374.72455c-11.41355,-6.58867 -15.43375,-20.9938 -8.97936,-32.17479c6.4544,-11.18099 20.93922,-14.90384 32.35279,-8.31517c11.41356,6.58865 15.43377,20.99378 8.97936,32.17477c-6.45436,11.18099 -20.93922,14.90384 -32.35279,8.31517z" fill="url(#color-42)"/><path d="M352.83202,418.30185l-83.44797,-41.4243l25.39614,-43.99389l77.953,51.22782z" fill="url(#color-43)"/></g><g stroke="none" stroke-width="0"><path d="M9.17999,306.64655c-13.07318,1.66496 -24.99328,-7.36726 -26.62432,-20.17405c-1.63105,-12.80679 7.64462,-24.53844 20.71781,-26.20341c13.07318,-1.66496 24.99328,7.36726 26.62432,20.17405c1.63105,12.80679 -7.64462,24.53844 -20.71779,26.20338z" fill="url(#color-44)"/><path d="M-89.67216,270.29376l92.30894,-11.75625l6.41765,50.39087l-92.30894,11.75625z" fill="url(#color-45)"/></g><g data-paper-data="{&quot;index&quot;:null}" stroke="none" stroke-width="0"><path d="M182.27551,322.86524c-11.33073,-6.73009 -15.17144,-21.18411 -8.57847,-32.28396c6.59296,-11.09985 21.123,-14.64224 32.45373,-7.91212c11.33075,6.73012 15.17145,21.18413 8.57847,32.28399c-6.59296,11.09985 -21.123,14.64224 -32.45373,7.91212z" fill="url(#color-46)"/><path d="M261.4883,372.52956l-80.00569,-47.52096l25.94139,-43.67461l80.00569,47.52096z" fill="url(#color-47)"/></g><g><g><path d="M17.72724,439.09336c0,0 12.08217,-92.16862 10.22356,-127.90534c-1.26853,-24.39116 -20.73429,-57.37765 -20.73429,-57.37765c0,0 68.80493,-13.39142 102.14292,-9.62948c32.68506,3.68824 95.96488,31.98445 95.96488,31.98445c0,0 -29.00452,23.59542 -35.26277,45.70079c-9.70234,34.27066 -15.96503,131.62191 -15.96503,131.62191l48.18689,72.63315c0,0 4.58093,29.10187 -126.03621,16.14251c-125.22206,-14.79676 -124.44685,-41.77312 -124.44685,-41.77312z" fill="url(#color-48)" stroke="none" stroke-width="0"/><path d="" fill="#ffdf00" stroke="#ffdf00" stroke-width="2"/></g><g><path d="M19.11311,423.22688l4.47963,-41.24664l135.26583,14.27181l-3.50124,41.96517z" fill="url(#color-49)" stroke="none" stroke-width="0"/><path d="" fill="#ffdf00" stroke="#ffdf00" stroke-width="2"/></g></g></g></g></svg>