<svg version="1.1" xmlns="http://www.w3.org/2000/svg" xmlns:xlink="http://www.w3.org/1999/xlink" width="129.03373" height="174.17" viewBox="0,0,129.03373,174.17"><defs><radialGradient cx="365.83857" cy="229.4605" r="10.67352" gradientUnits="userSpaceOnUse" id="color-1"><stop offset="0" stop-color="#808080" stop-opacity="0"/><stop offset="1" stop-color="#808080"/></radialGradient><linearGradient x1="365.93874" y1="230.64131" x2="406.55279" y2="368.27397" gradientUnits="userSpaceOnUse" id="color-2"><stop offset="0" stop-color="#5a5a5a"/><stop offset="1" stop-color="#525252"/></linearGradient><radialGradient cx="362.34811" cy="218.21823" r="37.33642" gradientUnits="userSpaceOnUse" id="color-3"><stop offset="0" stop-color="#c5c5c5" stop-opacity="0"/><stop offset="1" stop-color="#c5c5c5"/></radialGradient><linearGradient x1="406.40862" y1="334.17036" x2="388.15884" y2="339.5557" gradientUnits="userSpaceOnUse" id="color-4"><stop offset="0" stop-color="#5f5f5f"/><stop offset="1" stop-color="#d4d4d4"/></linearGradient><radialGradient cx="385.91602" cy="299.55021" r="8.5" gradientUnits="userSpaceOnUse" id="color-5"><stop offset="0" stop-color="#5a5a5a"/><stop offset="1" stop-color="#2b2b2b"/></radialGradient><linearGradient x1="385.98752" y1="283.15505" x2="378.15477" y2="285.46642" gradientUnits="userSpaceOnUse" id="color-6"><stop offset="0" stop-color="#c2c2c2"/><stop offset="1" stop-color="#7b7b7b"/></linearGradient><radialGradient cx="370.57608" cy="247.56631" r="8.5" gradientUnits="userSpaceOnUse" id="color-7"><stop offset="0" stop-color="#8d8d8d"/><stop offset="1" stop-color="#636363"/></radialGradient><linearGradient x1="369.29258" y1="242.0068" x2="372.51907" y2="252.94068" gradientUnits="userSpaceOnUse" id="color-8"><stop offset="0" stop-color="#bebebe"/><stop offset="1" stop-color="#828282"/></linearGradient></defs><g transform="translate(-321.7289,-202.38244)"><g data-paper-data="{&quot;isPaintingLayer&quot;:true}" fill-rule="nonzero" stroke-width="0" stroke-linecap="butt" stroke-linejoin="miter" stroke-miterlimit="10" stroke-dasharray="" stroke-dashoffset="0" style="mix-blend-mode: normal"><path d="M401.85437,220.73805l-71.45389,21.08534c0,0 -9.62573,-26.00889 28.11146,-36.64442c40.30728,-11.35987 43.34243,15.55908 43.34243,15.55908z" data-paper-data="{&quot;index&quot;:null}" fill="#cecece" stroke="#000000"/><path d="M361.82905,215.87307c4.85561,-1.43284 10.58699,3.48891 12.80139,10.99304c2.2144,7.50414 0.07326,14.74898 -4.78235,16.18183c-4.85561,1.43284 -10.58699,-3.48891 -12.80139,-10.99304c-2.2144,-7.50414 -0.07326,-14.74898 4.78235,-16.18183z" data-paper-data="{&quot;index&quot;:null}" fill="url(#color-1)" stroke="none"/><path d="M378.49874,376.55244l-20.6608,-70.01522l-27.62614,-65.35324l71.45389,-21.08534l12.13883,69.40208l20.80231,70.49478z" data-paper-data="{&quot;index&quot;:null}" fill="url(#color-2)" stroke="#000000"/><path d="M380.45373,375.97554l-20.6608,-70.01522l-27.09145,-65.51103l66.47452,-19.61598l12.67352,69.2443l20.80231,70.49478z" data-paper-data="{&quot;index&quot;:null}" fill="#6b6b6b" stroke="#000000"/><path d="M401.85437,220.73805l-71.45389,21.08534c0,0 -9.62573,-26.00889 28.11146,-36.64442c40.30728,-11.35987 43.34243,15.55908 43.34243,15.55908z" data-paper-data="{&quot;index&quot;:null}" fill="url(#color-3)" stroke="#000000"/><g data-paper-data="{&quot;index&quot;:null}" stroke="none"><path d="M393.64495,358.147l-10.97222,-37.1826l18.24978,-5.38533l10.97222,37.1826z" fill="url(#color-4)"/><path d="M394.07045,356.44826l-10.11813,-34.28828l16.54469,-4.88218l10.11813,34.28828z" fill="#000000"/><path d="M394.32847,354.62077l-2.07406,-7.02855l15.07782,-4.44932l2.07406,7.02855z" fill="#000000"/><path d="M389.60917,338.62801l-2.07406,-7.02855l15.07782,-4.44932l2.07406,7.02855z" fill="#000000"/><path d="M391.95452,346.57592l-2.07406,-7.02855l15.07782,-4.44932l2.07406,7.02855z" fill="#000000"/><path d="M387.23521,330.58316l-2.07406,-7.02855l15.07782,-4.44932l2.07406,7.02855z" fill="#000000"/></g><path d="M448.10853,281.20255c10.08201,34.16586 -9.44181,70.03585 -43.60767,80.11786c-34.16586,10.08201 -70.03585,-9.44181 -80.11786,-43.60767c-10.08201,-34.16586 9.44181,-70.03585 43.60767,-80.11786c34.16586,-10.08201 70.03585,9.44181 80.11786,43.60767z" data-paper-data="{&quot;index&quot;:null}" fill="none" stroke="none"/><path d="M383.84005,291.30518c4.50248,-1.32864 9.22953,1.24427 10.55817,5.74675c1.32864,4.50248 -1.24427,9.22953 -5.74675,10.55817c-4.50248,1.32864 -9.22953,-1.24427 -10.55817,-5.74675c-1.32864,-4.50248 1.24427,-9.22953 5.74675,-10.55817z" data-paper-data="{&quot;index&quot;:null}" fill="url(#color-5)" stroke="none"/><path d="M389.78478,296.02314c0,0 1.75451,4.22274 -2.65839,5.65008c-4.36352,1.41137 -5.17437,-3.33871 -5.17437,-3.33871l-14.78332,-50.09765l7.83276,-2.31137l14.78332,50.09765z" data-paper-data="{&quot;index&quot;:null}" fill="url(#color-6)" stroke="none"/><path d="M368.50011,239.32128c4.50248,-1.32864 9.22953,1.24427 10.55817,5.74675c1.32864,4.50248 -1.24427,9.22953 -5.74675,10.55817c-4.50248,1.32864 -9.22953,-1.24427 -10.55817,-5.74675c-1.32864,-4.50248 1.24427,-9.22953 5.74675,-10.55817z" data-paper-data="{&quot;index&quot;:null}" fill="url(#color-7)" stroke="none"/><path d="M369.29258,242.0068c3.01931,-0.89097 6.18922,0.8344 7.08018,3.8537c0.89097,3.01931 -0.8344,6.18922 -3.8537,7.08018c-3.01931,0.89097 -6.18922,-0.8344 -7.08018,-3.8537c-0.89097,-3.01931 0.8344,-6.18922 3.8537,-7.08018z" data-paper-data="{&quot;index&quot;:null}" fill="url(#color-8)" stroke="none"/></g></g></svg>