<svg version="1.1" xmlns="http://www.w3.org/2000/svg" xmlns:xlink="http://www.w3.org/1999/xlink" width="621.61878" height="401.25321" viewBox="0,0,621.61878,401.25321"><defs><linearGradient x1="230.50437" y1="221.87527" x2="248.39954" y2="221.87527" gradientUnits="userSpaceOnUse" id="color-1"><stop offset="0" stop-color="#7a7a7a"/><stop offset="1" stop-color="#a4a4a4"/></linearGradient><linearGradient x1="193.99193" y1="169.97837" x2="203.68206" y2="169.97837" gradientUnits="userSpaceOnUse" id="color-2"><stop offset="0" stop-color="#7a7a7a"/><stop offset="1" stop-color="#a4a4a4"/></linearGradient><linearGradient x1="273.17058" y1="169.97837" x2="282.86068" y2="169.97837" gradientUnits="userSpaceOnUse" id="color-3"><stop offset="0" stop-color="#7a7a7a"/><stop offset="1" stop-color="#a4a4a4"/></linearGradient><linearGradient x1="239.70864" y1="130.49513" x2="239.70864" y2="161.98201" gradientUnits="userSpaceOnUse" id="color-4"><stop offset="0" stop-color="#a4a4a4"/><stop offset="1" stop-color="#7a7a7a"/></linearGradient><linearGradient x1="238.86447" y1="139.8223" x2="238.86447" y2="149.0972" gradientUnits="userSpaceOnUse" id="color-5"><stop offset="0" stop-color="#6b6b6b"/><stop offset="1" stop-color="#222222"/></linearGradient><linearGradient x1="251.98081" y1="235.86971" x2="251.98081" y2="241.76663" gradientUnits="userSpaceOnUse" id="color-6"><stop offset="0" stop-color="#9a9a9a"/><stop offset="1" stop-color="#dedede"/></linearGradient><linearGradient x1="243.30882" y1="235.81627" x2="243.30882" y2="241.71319" gradientUnits="userSpaceOnUse" id="color-7"><stop offset="0" stop-color="#9a9a9a"/><stop offset="1" stop-color="#dedede"/></linearGradient><linearGradient x1="234.69022" y1="235.81627" x2="234.69022" y2="241.71319" gradientUnits="userSpaceOnUse" id="color-8"><stop offset="0" stop-color="#9a9a9a"/><stop offset="1" stop-color="#dedede"/></linearGradient><linearGradient x1="226.01821" y1="235.76282" x2="226.01821" y2="241.65974" gradientUnits="userSpaceOnUse" id="color-9"><stop offset="0" stop-color="#9a9a9a"/><stop offset="1" stop-color="#dedede"/></linearGradient><linearGradient x1="238.70928" y1="229.79706" x2="238.70928" y2="238.56197" gradientUnits="userSpaceOnUse" id="color-10"><stop offset="0" stop-color="#a4a4a4"/><stop offset="1" stop-color="#3d3d3d"/></linearGradient><linearGradient x1="251.92737" y1="249.54182" x2="251.92737" y2="255.43871" gradientUnits="userSpaceOnUse" id="color-11"><stop offset="0" stop-color="#dedede"/><stop offset="1" stop-color="#9a9a9a"/></linearGradient><linearGradient x1="243.25534" y1="249.59527" x2="243.25534" y2="255.4922" gradientUnits="userSpaceOnUse" id="color-12"><stop offset="0" stop-color="#dedede"/><stop offset="1" stop-color="#9a9a9a"/></linearGradient><linearGradient x1="234.63678" y1="249.59527" x2="234.63678" y2="255.4922" gradientUnits="userSpaceOnUse" id="color-13"><stop offset="0" stop-color="#dedede"/><stop offset="1" stop-color="#9a9a9a"/></linearGradient><linearGradient x1="225.96476" y1="249.64872" x2="225.96476" y2="255.54565" gradientUnits="userSpaceOnUse" id="color-14"><stop offset="0" stop-color="#dedede"/><stop offset="1" stop-color="#9a9a9a"/></linearGradient><linearGradient x1="238.65583" y1="252.74651" x2="238.65583" y2="261.51141" gradientUnits="userSpaceOnUse" id="color-15"><stop offset="0" stop-color="#a4a4a4"/><stop offset="1" stop-color="#3d3d3d"/></linearGradient><radialGradient cx="199.02087" cy="144.85788" r="28.84956" gradientUnits="userSpaceOnUse" id="color-16"><stop offset="0" stop-color="#ffffff"/><stop offset="1" stop-color="#c4bfb5"/></radialGradient><radialGradient cx="207.19433" cy="139.64188" r="10.7212" gradientUnits="userSpaceOnUse" id="color-17"><stop offset="0" stop-color="#ffffff"/><stop offset="1" stop-color="#ffffff" stop-opacity="0"/></radialGradient><radialGradient cx="277.78848" cy="145.16077" r="28.84956" gradientUnits="userSpaceOnUse" id="color-18"><stop offset="0" stop-color="#ffffff"/><stop offset="1" stop-color="#c5c1b7"/></radialGradient><radialGradient cx="285.55246" cy="139.64188" r="10.7212" gradientUnits="userSpaceOnUse" id="color-19"><stop offset="0" stop-color="#ffffff"/><stop offset="1" stop-color="#ffffff" stop-opacity="0"/></radialGradient><linearGradient x1="238.42632" y1="194.48939" x2="238.42632" y2="203.31291" gradientUnits="userSpaceOnUse" id="color-20"><stop offset="0" stop-color="#a4a4a4"/><stop offset="1" stop-color="#686868"/></linearGradient><radialGradient cx="291.59062" cy="114.49792" r="110.20894" gradientUnits="userSpaceOnUse" id="color-21"><stop offset="0" stop-color="#e0c297"/><stop offset="1" stop-color="#b9a17e"/></radialGradient><radialGradient cx="261.58696" cy="82.29055" r="91.09502" gradientUnits="userSpaceOnUse" id="color-22"><stop offset="0" stop-color="#634a14"/><stop offset="1" stop-color="#443014"/></radialGradient><linearGradient x1="239.97967" y1="306.54755" x2="239.97967" y2="461.99647" gradientUnits="userSpaceOnUse" id="color-23"><stop offset="0" stop-color="#a4a4a4"/><stop offset="1" stop-color="#7a7a7a"/></linearGradient><linearGradient x1="239.97967" y1="306.54755" x2="239.97967" y2="319.22876" gradientUnits="userSpaceOnUse" id="color-24"><stop offset="0" stop-color="#a4a4a4"/><stop offset="1" stop-color="#7a7a7a"/></linearGradient><linearGradient x1="239.97967" y1="300.80405" x2="239.97967" y2="324.97229" gradientUnits="userSpaceOnUse" id="color-25"><stop offset="0" stop-color="#303030"/><stop offset="1" stop-color="#4b4b4b"/></linearGradient><radialGradient cx="409.37183" cy="323.87754" r="20.99175" gradientUnits="userSpaceOnUse" id="color-26"><stop offset="0" stop-color="#7582b0"/><stop offset="1" stop-color="#485b9d"/></radialGradient><radialGradient cx="429.96138" cy="335.67487" r="45.28572" gradientUnits="userSpaceOnUse" id="color-27"><stop offset="0" stop-color="#7582b0"/><stop offset="1" stop-color="#485b9d"/></radialGradient><radialGradient cx="72.91647" cy="324.20094" r="20.99175" gradientUnits="userSpaceOnUse" id="color-28"><stop offset="0" stop-color="#7582b0"/><stop offset="1" stop-color="#485b9d"/></radialGradient><radialGradient cx="52.18435" cy="335.74588" r="45.28572" gradientUnits="userSpaceOnUse" id="color-29"><stop offset="0" stop-color="#7582b0"/><stop offset="1" stop-color="#485b9d"/></radialGradient><radialGradient cx="320.94347" cy="302.99088" r="20.87087" gradientUnits="userSpaceOnUse" id="color-30"><stop offset="0" stop-color="#7582b0"/><stop offset="1" stop-color="#485b9d"/></radialGradient><radialGradient cx="345.57664" cy="312.24398" r="46.02698" gradientUnits="userSpaceOnUse" id="color-31"><stop offset="0" stop-color="#7582b0"/><stop offset="1" stop-color="#485b9d"/></radialGradient><radialGradient cx="161.59335" cy="304.39597" r="20.87087" gradientUnits="userSpaceOnUse" id="color-32"><stop offset="0" stop-color="#7582b0"/><stop offset="1" stop-color="#485b9d"/></radialGradient><radialGradient cx="136.84901" cy="313.34749" r="46.02698" gradientUnits="userSpaceOnUse" id="color-33"><stop offset="0" stop-color="#7582b0"/><stop offset="1" stop-color="#485b9d"/></radialGradient><linearGradient x1="152.98375" y1="365.94988" x2="328.7276" y2="365.94988" gradientUnits="userSpaceOnUse" id="color-34"><stop offset="0" stop-color="#7582b0"/><stop offset="1" stop-color="#485b9d"/></linearGradient><linearGradient x1="521.27319" y1="350.54753" x2="522.80471" y2="380.52886" gradientUnits="userSpaceOnUse" id="color-35"><stop offset="0" stop-color="#e0c297"/><stop offset="1" stop-color="#b9a17e"/></linearGradient><linearGradient x1="515.50624" y1="324.15887" x2="516.81197" y2="349.72042" gradientUnits="userSpaceOnUse" id="color-36"><stop offset="0" stop-color="#e0c297"/><stop offset="1" stop-color="#b9a17e"/></linearGradient><linearGradient x1="499.58045" y1="300.50489" x2="501.30596" y2="334.28421" gradientUnits="userSpaceOnUse" id="color-37"><stop offset="0" stop-color="#e0c297"/><stop offset="1" stop-color="#b9a17e"/></linearGradient><linearGradient x1="433.29775" y1="367.24905" x2="511.01205" y2="361.84995" gradientUnits="userSpaceOnUse" id="color-38"><stop offset="0" stop-color="#e0c297"/><stop offset="1" stop-color="#b9a17e"/></linearGradient><linearGradient x1="439.50449" y1="336.12213" x2="460.44958" y2="338.91609" gradientUnits="userSpaceOnUse" id="color-39"><stop offset="0" stop-color="#e0c297"/><stop offset="1" stop-color="#b9a17e"/></linearGradient><linearGradient x1="-39.30232" y1="349.50208" x2="-41.19993" y2="379.46247" gradientUnits="userSpaceOnUse" id="color-40"><stop offset="0" stop-color="#e0c297"/><stop offset="1" stop-color="#b9a17e"/></linearGradient><linearGradient x1="-33.21346" y1="323.18583" x2="-34.83134" y2="348.72954" gradientUnits="userSpaceOnUse" id="color-41"><stop offset="0" stop-color="#e0c297"/><stop offset="1" stop-color="#b9a17e"/></linearGradient><linearGradient x1="-16.99994" y1="299.72817" x2="-19.13794" y2="333.48388" gradientUnits="userSpaceOnUse" id="color-42"><stop offset="0" stop-color="#e0c297"/><stop offset="1" stop-color="#b9a17e"/></linearGradient><linearGradient x1="48.46256" y1="367.27695" x2="-29.17999" y2="360.92901" gradientUnits="userSpaceOnUse" id="color-43"><stop offset="0" stop-color="#e0c297"/><stop offset="1" stop-color="#b9a17e"/></linearGradient><linearGradient x1="42.63649" y1="336.07656" x2="21.65882" y2="338.61446" gradientUnits="userSpaceOnUse" id="color-44"><stop offset="0" stop-color="#e0c297"/><stop offset="1" stop-color="#b9a17e"/></linearGradient></defs><g transform="translate(69.95515,-60.74326)"><g data-paper-data="{&quot;isPaintingLayer&quot;:true}" fill-rule="nonzero" stroke-linecap="butt" stroke-linejoin="miter" stroke-miterlimit="10" stroke-dasharray="" stroke-dashoffset="0" style="mix-blend-mode: normal"><path d="M179.62769,455.60443c0,0 1.66666,-81.52323 -3.26971,-112.68056c-3.36919,-21.26562 -23.48676,-49.22626 -23.48676,-49.22626c0,0 59.08001,-17.26322 88.65454,-17.05031c28.99532,0.20875 87.08934,18.31564 87.08934,18.31564c0,0 -23.2439,24.21313 -26.68475,44.17139c-5.33438,30.9419 -2.21229,116.47008 -2.21229,116.47008z" fill="#191919" stroke="none" stroke-width="0"/><path d="M332.74835,155.57046c0,19.90175 31.77663,38.79553 6.57741,73.40698c-26.19254,35.97584 -69.2543,43.34616 -101.69294,43.34616c-34.76255,0 -65.63879,0.14457 -99.79364,-46.04683c-23.17967,-31.34842 4.67812,-53.10645 4.67812,-70.70633c0,-52.03292 42.58466,-94.21394 95.11549,-94.21394c52.53084,0 95.11549,42.18102 95.11549,94.21394z" fill="#191919" stroke="none" stroke-width="0"/><g><path d="M286.9398,214.60144c3.05662,-2.12677 6.34996,-9.28641 7.31813,-12.8347c-0.02668,-4.5349 2.97971,-10.20317 1.95699,-14.47819c-1.10672,-4.62615 -4.10648,-9.0521 -5.65463,-13.57459c-1.40802,-4.11302 -2.91097,-8.07516 -4.76823,-11.82078c1.32427,5.04283 1.94931,10.30151 1.29433,14.43836c-0.88151,5.5677 -3.64722,10.82623 -2.68898,16.65991c1.32903,8.09096 6.97298,10.37534 2.79131,19.11254c-0.85094,1.47965 -1.81603,2.66125 -2.87654,3.60484c0.93837,-0.20083 1.82625,-0.54984 2.62758,-1.10739zM281.00202,145.96828c7.12386,7.38925 11.09041,16.26026 14.37174,25.93636c1.59227,4.69532 4.7931,9.3151 5.82491,14.16551c1.13355,5.32862 -1.84099,11.00306 -1.8695,16.43217c-1.36907,4.93139 -5.22031,13.53589 -9.51853,16.49054c-4.89971,3.36809 -10.94878,1.85639 -16.25554,1.23262c-9.93492,-1.16773 -19.78285,0.36328 -29.25462,2.76998c-0.56868,0.00335 -1.13733,0.00614 -1.70595,0.00845l0.37823,2.55748c0,0 -0.80967,2.51552 -3.23863,1.67702c-1.51676,-0.52362 -1.77068,-1.70116 -1.74747,-2.51176c-0.60959,-0.38907 -1.22297,-0.76141 -1.83736,-1.12144c-0.71835,0.31734 -1.97996,0.56569 -3.01091,-0.85792c-0.02527,-0.03487 -0.04953,-0.06957 -0.07287,-0.10415c-0.44241,-0.2479 -0.87272,-0.66086 -1.07861,-1.34891c-0.38253,-0.20686 -0.76291,-0.41287 -1.14051,-0.61902c1.03632,1.82157 1.93211,3.75171 3.84725,5.01175l1.64659,1.27384c0,0 2.0483,1.59096 0.51209,3.71222c-1.53623,2.12127 -3.58449,0.53032 -3.58449,0.53032l-1.41462,-1.10388c-3.14119,-2.2411 -3.91774,-6.11461 -6.48165,-8.30604c-1.161,-0.99236 -2.99967,-0.27046 -4.50206,-0.36834c-3.20277,-0.20865 -8.39726,-0.3037 -11.04231,-2.58749c-3.83343,-3.30983 -3.75155,-11.27142 -6.8321,-15.54784c-8.42866,-0.5229 -15.61455,-7.7476 -13.94991,-17.08348c0.41339,-2.31861 2.31822,-4.08244 3.14229,-6.28039c1.71744,-4.581 -2.47141,-11.13088 -3.14453,-15.37479c-0.90867,-5.72923 1.59404,-9.93208 4.74324,-13.92677c0.12141,-0.32668 0.24677,-0.65712 0.37552,-0.99181c0,0 0.52055,-1.3477 1.75418,-1.65001c-0.01373,-0.30916 -0.02179,-0.61973 -0.02406,-0.93182c0,0 0,-2.65158 2.56035,-2.65158c2.56035,0 2.56037,2.65158 2.56037,2.65158c-0.08935,9.55219 6.35226,15.35402 11.64671,22.07387c1.20822,1.53355 2.86196,5.27464 3.2356,7.17454c0.34628,1.76077 -0.93828,5.45409 0.77084,6.86886c2.47184,2.04614 8.39928,1.91866 10.17651,4.61329c2.00919,3.04628 1.6149,7.20271 2.81181,10.67733c2.33708,3.9484 3.7131,7.63929 4.93333,12.0621l0.3498,1.07882c0,0 0.80968,2.51552 -1.61928,3.35404c-2.42899,0.83852 -3.23863,-1.67702 -3.23863,-1.67702l-0.41552,-1.29892c-1.15413,-4.18344 -2.44457,-7.4855 -4.63226,-11.23752c-1.06957,-3.0987 -0.69711,-6.69514 -2.16338,-9.61457c-0.61706,-1.2286 -8.24207,-2.60607 -9.72134,-4.10499c-3.69131,-3.74033 -1.32384,-8.04131 -3.23666,-12.29166c-1.32099,-2.93532 -3.9337,-4.48291 -5.84567,-7.05524c-2.72545,-3.66683 -5.14968,-7.65225 -6.63653,-11.96831c-0.76228,2.64879 -0.80726,5.12709 1.1882,8.02418c1.46006,2.11977 3.78146,3.62904 4.84087,5.99043c2.16447,4.82453 -1.02099,13.99814 3.61879,17.78421c5.82357,4.75205 12.17351,7.64708 15.27025,15.10336c0.98171,6.80401 4.69386,10.0628 9.29121,12.72697h0.87102c3.24829,0.14275 6.27731,-2.27818 9.23886,-3.70923c5.43118,-2.62441 11.04923,-4.57079 15.8692,-8.32349c3.56743,-3.3233 2.268,-11.96522 3.42407,-16.55528c0.99339,-3.94398 4.25349,-5.4678 6.69643,-8.19795c2.69376,-3.01045 5.16263,-7.65376 6.47201,-11.44008c2.45692,-7.10461 -0.62797,-14.45012 -0.63865,-21.64286c0,0 0,-2.65158 2.56035,-2.65158c2.04472,0 2.45652,1.69109 2.53943,2.37226c1.29197,-0.29522 2.33222,0.78211 2.33222,0.78211zM268.09468,214.14553c5.20783,0 11.79973,0.83574 14.57925,-4.54388c3.13146,-6.41494 -2.18861,-9.22681 -3.33111,-15.76071c-1.12531,-6.43567 1.66379,-12.09348 2.66814,-18.2133c0.67622,-4.12033 -0.27559,-10.00507 -1.94037,-15.18702c0.10398,2.82538 -0.12523,5.67797 -1.10323,8.62618c-1.45032,4.37188 -4.39529,9.61962 -7.45347,13.06223c-1.53005,1.7224 -5.04342,3.44599 -5.54842,6.06839c-1.27905,6.6416 -0.30138,13.9853 -4.99425,19.11054c-2.54444,1.97252 -6.05797,4.34536 -9.89965,6.53915c5.53436,-0.22673 11.17839,0.29843 17.02309,0.29843zM217.41533,204.03931c-2.55723,-6.21633 -9.23982,-8.43401 -13.81122,-12.63673c-4.64991,-4.27484 -3.72595,-11.13046 -4.25318,-16.71881c-0.32811,-3.47789 -2.24795,-4.51409 -4.04021,-6.69534c0.75689,2.16495 1.59648,4.3247 1.85608,6.47831c1.01652,8.43354 -8.78595,19.7752 4.25044,23.52319c1.28965,0.37078 2.64767,0.40778 3.97149,0.61163c3.24243,3.68242 4.60726,6.28678 6.1948,10.98071c0.57527,1.70091 0.098,4.12653 1.51385,5.17438c2.78279,2.05951 6.96793,1.12258 10.60554,1.28557c-3.18423,-2.72464 -5.54353,-6.30493 -6.2876,-12.00294z" fill="#000000" stroke="none" stroke-width="0.5"/><path d="M230.50437,306.69645v-169.64235h17.89517v169.43213z" fill="url(#color-1)" stroke="none" stroke-width="0"/><path d="M193.99193,202.90266v-65.84858h9.69013v65.76698z" fill="url(#color-2)" stroke="none" stroke-width="0"/><path d="M273.17058,202.90266v-65.84858h9.69013v65.76698z" fill="url(#color-3)" stroke="none" stroke-width="0"/><path d="M184.21094,161.98201v-31.48684h110.99542v31.48684z" fill="url(#color-4)" stroke="none" stroke-width="0"/><path d="M166.238,149.0972v-9.27496h145.25296v9.27496z" fill="url(#color-5)" stroke="none" stroke-width="0"/><g stroke="none" stroke-width="0"><path d="M248.35194,241.76663v-5.89692h7.25773v5.89692z" fill="url(#color-6)"/><path d="M239.67994,241.71319v-5.89692h7.25775v5.89692z" fill="url(#color-7)"/><path d="M231.06138,241.71319v-5.89692h7.25773v5.89692z" fill="url(#color-8)"/><path d="M222.38937,241.65974v-5.89692h7.25773v5.89692z" fill="url(#color-9)"/><path d="M216.48609,238.56197v-8.76488h44.44639v8.76488z" fill="url(#color-10)"/></g><g data-paper-data="{&quot;index&quot;:null}" stroke="none" stroke-width="0"><path d="M255.55624,249.54182v5.89692h-7.25773v-5.89692z" fill="url(#color-11)"/><path d="M246.88422,249.59527v5.89692h-7.25773v-5.89692z" fill="url(#color-12)"/><path d="M238.26567,249.59527v5.89692h-7.25773v-5.89692z" fill="url(#color-13)"/><path d="M229.59365,249.64872v5.89692h-7.25773v-5.89692z" fill="url(#color-14)"/><path d="M260.87904,252.74651v8.76488h-44.44639v-8.76488c0,0 12.43142,0 19.287,0c7.83001,0 25.15939,0 25.15939,0z" fill="url(#color-15)"/></g><g stroke-width="0"><g><path d="M227.72618,144.85788c0,15.93317 -12.85181,28.84956 -28.70531,28.84956c-15.8535,0 -28.70531,-12.9164 -28.70531,-28.84956c0,-15.93317 12.85181,-28.84956 28.70531,-28.84956c15.8535,0 28.70531,12.9164 28.70531,28.84956z" fill="url(#color-16)" stroke="#000000"/><path d="M208.74589,144.99417c0,5.92116 -4.47277,10.7212 -9.99023,10.7212c-5.51744,0 -9.99022,-4.80005 -9.99022,-10.7212c0,-5.92116 4.47276,-10.72119 9.99022,-10.72119c5.51744,0 9.99023,4.80004 9.99023,10.72119z" fill="#000000" stroke="none"/></g><path d="M217.18455,139.64188c0,5.92116 -4.47277,10.7212 -9.99023,10.7212c-5.51744,0 -9.99022,-4.80005 -9.99022,-10.7212c0,-5.92116 4.47276,-10.72119 9.99022,-10.72119c5.51744,0 9.99023,4.80004 9.99023,10.72119z" fill="url(#color-17)" stroke="none"/></g><g stroke-width="0"><g><path d="M306.49383,145.16077c0,15.93317 -12.85181,28.84956 -28.70531,28.84956c-15.8535,0 -28.70531,-12.9164 -28.70531,-28.84956c0,-15.93317 12.85181,-28.84956 28.70531,-28.84956c15.8535,0 28.70531,12.9164 28.70531,28.84956z" fill="url(#color-18)" stroke="#000000"/><path d="M287.51352,145.29709c0,5.92116 -4.47277,10.7212 -9.99022,10.7212c-5.51744,0 -9.99022,-4.80005 -9.99022,-10.7212c0,-5.92116 4.47276,-10.72119 9.99022,-10.72119c5.51744,0 9.99022,4.80004 9.99022,10.72119z" fill="#000000" stroke="none"/></g><path d="M295.54267,139.64188c0,5.92116 -4.47277,10.7212 -9.99023,10.7212c-5.51744,0 -9.99022,-4.80005 -9.99022,-10.7212c0,-5.92116 4.47276,-10.72119 9.99022,-10.72119c5.51744,0 9.99023,4.80004 9.99023,10.72119z" fill="url(#color-19)" stroke="none"/></g><path d="M193.99193,203.31291v-8.82354h88.86879v8.81259z" fill="url(#color-20)" stroke="none" stroke-width="0"/></g><g stroke="none" stroke-width="0"><g><path d="M332.74835,155.57046c0,19.90175 31.77663,38.79553 6.57745,73.40698c-26.19254,35.97584 -69.2543,43.34616 -101.69294,43.34616c-34.76255,0 -65.63879,0.14457 -99.79364,-46.04683c-23.17967,-31.34842 4.67812,-53.10645 4.67812,-70.70633c0,-52.03292 42.58466,-94.21394 95.11549,-94.21394c52.53084,0 95.11549,42.18102 95.11549,94.21394zM238.58961,257.64508c19.76121,0.3704 38.01802,-7.14649 51.25269,-16.18869c-0.10031,0.62144 -0.20634,1.21858 -0.02083,1.51452c1.39823,2.23061 3.53259,0.10484 4.45525,3.14309l-0.05445,0.4851c0,0 0,1.06064 1.06064,1.06064c1.06064,0 1.06064,-1.06064 1.06064,-1.06064l-0.05445,-1.15592c-0.44708,-1.26322 -1.28239,-2.93481 -2.65158,-3.51626c-0.58942,-0.25029 -1.99847,0.73069 -1.91873,0.09532c0.08701,-0.69336 0.13557,-1.35242 0.08887,-1.94601c11.83194,-8.53995 19.16398,-18.12201 19.16398,-23.62428c0,-2.03243 -1.04166,-2.92529 -2.95415,-3.01321c0.90525,-2.82147 2.25224,-6.07833 -0.43137,-7.20374c-1.42203,-0.59636 -4.10215,0.27879 -4.66781,1.80476c-0.31392,0.84694 1.35307,2.28602 0.52972,2.65751c-0.33274,0.15012 -2.79867,0.20493 -3.28202,0.8205c-0.29935,0.38126 -0.03304,1.36913 -0.51768,1.35896c-0.94634,0.94634 -1.23408,2.06497 -1.77224,3.0687c-13.37026,4.8262 -35.33022,14.91256 -58.02335,14.86874c-46.98361,-0.09064 -69.74657,-25.17314 -69.74657,-13.45769c0,2.27804 1.13225,5.16615 3.23976,8.34627c-1.81452,0.16929 -3.42123,0.22347 -5.65577,-0.59613c-1.5868,-0.58202 -3.0382,0.5148 -4.28927,-0.03148c-0.05661,-0.30537 -0.26595,-0.86977 -1.03963,-0.86977c-1.06064,0 -1.06064,1.06064 -1.06064,1.06064l0.47231,1.29276c3.53935,2.08621 8.55841,1.32744 12.94145,1.0689c9.81485,12.95119 34.31803,29.46346 63.87527,30.01745zM199.11612,176.63393c17.57318,0 31.81904,-14.24587 31.81904,-31.81904c0,-17.57318 -14.24587,-31.81904 -31.81904,-31.81904c-17.57318,0 -31.81904,14.24587 -31.81904,31.81904c0,17.57318 14.24587,31.81904 31.81904,31.81904zM279.03776,177.12124c17.57318,0 31.81904,-14.24587 31.81904,-31.81904c0,-17.57318 -14.24587,-31.81904 -31.81904,-31.81904c-17.57318,0 -31.81904,14.24587 -31.81904,31.81904c0,17.57318 14.24587,31.81904 31.81904,31.81904z" fill="url(#color-21)"/><path d="M238.13292,60.74326c41.65174,0 77.30675,24.3887 92.00211,58.95254c-3.08878,-2.82453 -6.38613,-5.45053 -9.90792,-7.85677c-4.31163,-6.60554 -9.62635,-7.862 -17.1601,-7.862c-1.78915,0 -4.32128,0.59561 -6.69242,0.72541c-1.59385,-0.35171 -3.18806,-0.68764 -4.78155,-1.01566c-0.46767,-0.3593 -0.86076,-0.83021 -1.15613,-1.43993c-2.41878,-3.30494 -6.00556,-2.10993 -9.7266,-3.54765c-8.47433,-3.27429 -17.56563,-3.21319 -26.66287,-2.12611c-2.57141,-0.31554 -5.1406,-0.5837 -7.71244,-0.80759c-2.80148,-1.80153 -5.40495,-5.01607 -8.4273,-6.42649c-4.62922,-2.16031 -7.9546,1.79774 -11.46149,3.32423c-1.76984,0.77036 -4.07587,1.02068 -5.97992,1.99356c-6.70271,0.80651 -13.80381,-0.35459 -20.44363,0.77005c-1.14313,0.19362 -7.231,1.54503 -8.09487,0.70057c-2.85167,-2.78756 -5.12126,-2.61795 -8.84412,-0.31063c-4.85073,7.3551 -12.51085,8.50264 -20.14146,11.66119c-0.14425,-0.82479 -1.04118,-0.82479 -1.04118,-0.82479c-3.54086,0.0635 -9.03498,3.83937 -13.15291,7.42483c16.02507,-31.55937 50.0279,-53.3347 89.38482,-53.3347z" fill="url(#color-22)"/></g><path d="M277.18301,104.59395c11.45464,-0.37817 22.41943,5.24727 22.49707,7.59958c0.07766,2.35229 -10.58946,-2.0352 -22.04413,-1.65701c-11.45464,0.37817 -21.05283,1.46291 -21.05283,1.46291c0,0 9.14522,-7.0273 20.5999,-7.40548z" fill="#000000"/><path d="M201.89338,109.60875c-11.45464,-0.37817 -22.12176,4.0093 -22.04411,1.65701c0.07766,-2.35229 11.04243,-7.97776 22.49707,-7.59958c11.45464,0.37817 20.67753,5.05321 20.5999,7.40549c0,0 -9.5982,-1.08476 -21.05284,-1.46293z" data-paper-data="{&quot;index&quot;:null}" fill="#000000"/></g><g stroke="none"><path d="M236.98939,316.92865c0.82092,-0.54729 1.54005,-0.58548 2.11946,-0.41764l-0.0182,-2.29911c0,0 0,-2.65158 2.65158,-2.65158c2.65158,0 2.65158,2.65158 2.65158,2.65158l-0.02564,2.50399c0.29291,1.02518 0.54023,2.18849 0.71023,3.41823l0.44411,1.55436c0.43367,1.52009 0.7572,3.03978 0.9985,4.55866c4.34014,9.33601 3.20911,21.70609 3.20334,31.57159c-0.02575,0.27771 -0.05231,0.55509 -0.07959,0.83224c2.98262,7.18904 7.35793,14.08683 7.87197,21.85698c0.50402,7.61906 -4.62568,14.01926 -3.71276,21.54035c0.35754,2.94564 7.62763,14.67344 10.59271,12.16527c2.63214,-2.69176 6.59229,-5.65072 7.58504,-9.53493c0.93546,-3.66006 -1.61578,-7.83667 -2.09678,-11.33216c-0.25071,-1.82209 0.26315,-8.21367 0.44746,-9.14414c1.06956,-5.39957 5.4189,-9.35876 8.09699,-13.89742c0.11277,-0.19111 0.22321,-0.38169 0.33134,-0.57172c-0.79994,-6.20883 -2.48849,-12.27563 -5.39815,-17.94899c-2.70329,-7.19733 -7.99676,-16.00347 -5.00565,-24.05892c4.55589,-12.26967 18.59816,-12.89357 29.1269,-16.42734c0.56578,-0.18989 1.12116,-0.37082 1.66828,-0.53935c0.2866,-0.10639 0.5725,-0.20727 0.85723,-0.30256c0.57646,-0.19291 1.1643,-0.32582 1.761,-0.4079c3.48365,-0.78905 6.76587,-0.79341 10.49034,0.97158c0,0 0.84466,0.42235 1.27378,1.26702c1.84818,0.59506 3.63719,1.12912 5.2999,1.35146c0,0 2.62494,0.375 2.24995,2.99992c-0.375,2.62494 -2.99992,2.24995 -2.99992,2.24995c-3.90339,-0.58573 -10.95144,-4.43932 -15.40854,-3.67118c-0.39446,0.10446 -0.79077,0.22139 -1.19002,0.3461c-5.75473,2.31595 -13.22991,7.10901 -14.0314,13.70733c-0.66912,5.50845 1.62287,11.0679 1.65684,16.53101c0,8.9736 -0.69873,16.50789 -4.61009,24.4133c2.98014,20.78821 -3.2978,42.83707 -20.74013,55.30659c-9.08275,5.1182 -14.19268,-6.78453 -18.49277,-13.4462c-9.76534,-15.12848 -2.86826,-35.92221 -1.0183,-52.72591c-0.34971,-0.8602 -0.67348,-1.72116 -0.96059,-2.58369c-1.75527,-8.00932 -0.81694,-16.00652 -1.32089,-24.03179c-1.05895,0.69364 -2.24887,1.2724 -2.78376,2.36837c-1.02177,2.09359 -0.38678,5.89804 -0.54736,7.67857c-0.44537,4.93813 -2.93315,8.79031 -2.85886,13.68727c0,5.22832 2.34775,16.45866 -1.32099,20.83225c-1.04181,1.24196 -2.36837,1.92454 -3.84994,2.1813c-3.18591,2.53831 -7.73628,3.63791 -8.40095,8.17592c-1.00989,6.89495 5.67038,8.46262 7.66192,13.83418c2.26569,6.11102 0.021,13.00268 -5.41717,16.06058c-10.73658,7.71106 -27.24976,4.39195 -29.24214,-10.7465c-0.72038,-5.4735 6.20167,-14.53105 3.87853,-19.37461c-2.35212,-4.90404 -7.52981,-8.89383 -10.1444,-14.12239c-4.67964,-8.31694 -1.84884,-17.57868 -3.15128,-26.67232c-1.03658,-7.23733 -3.80382,-14.08912 -6.39642,-20.74313c-1.55527,-3.99162 -2.64296,-9.89954 -7.44385,-10.61998c-0.77873,0.42754 -1.5826,0.87073 -2.45892,1.31038c0,0 -2.37163,1.18582 -3.55747,-1.18584c-1.18582,-2.37163 1.18582,-3.55747 1.18582,-3.55747c0.25555,-0.12732 0.51527,-0.25363 0.77882,-0.37868c0.61067,-1.54225 2.45824,-1.54225 2.45824,-1.54225c0.34184,0.01403 0.67389,0.03688 0.99652,0.06839c10.96827,-4.17712 25.75331,-5.17855 29.08419,9.82754c1.70879,7.69839 -1.92959,13.02932 4.34894,19.36607c6.49659,3.68492 10.72738,8.96981 11.6888,16.55232c0.52437,4.13578 -0.67197,8.21939 1.68033,12.06653c1.08835,1.77998 2.34631,2.54045 4.09244,3.66549c0.40364,0.26005 3.8685,1.8202 6.07668,2.5211c1.87385,-5.90959 -0.66649,-14.29792 -1.91994,-19.97037c-0.6531,-6.45986 -3.20921,-15.12273 -1.60359,-21.54208c1.13482,-4.53705 5.0169,-9.87823 7.92819,-13.39585l0.07561,-0.30882c0,0 1.16164,-2.32327 3.4849,-1.22117c0.17553,-0.21499 0.40414,-0.42389 0.6979,-0.61974zM246.03483,393.39054c0,4.412 -0.46035,9.05417 1.73986,13.11208c2.39518,4.41755 5.62699,8.39183 8.74521,12.29484c1.80616,2.26075 1.97897,4.58087 4.2287,2.35922c0.80178,-0.57217 1.58525,-1.17754 2.3528,-1.80851c-6.15255,-0.33776 -10.69908,-7.10159 -13.49134,-12.9087c-4.24246,-8.82317 3.20219,-16.85859 2.61375,-25.60197c-0.28566,-4.2449 -1.90744,-8.3455 -3.77982,-12.393c-1.14085,8.25839 -2.40917,16.43664 -2.40917,24.94605zM278.17866,393.63582c0.76745,-5.1149 1.21453,-10.35263 1.15119,-15.56947c-1.72346,2.2653 -3.33656,4.62939 -3.81952,7.28176c-0.88663,4.86934 1.00835,9.54595 1.73577,14.19958c0.39865,-2.07999 0.66553,-4.13211 0.93256,-5.91187zM273.38331,329.41609c-2.48224,6.52267 2.69326,14.51336 4.84038,20.24832c1.71543,3.50638 3.12648,7.18919 4.22044,10.97632c1.17124,-4.66971 1.36398,-9.4074 1.36398,-14.83944c0.04421,-5.66884 -2.36002,-11.34941 -1.62516,-17.10966c0.42349,-3.31972 2.00275,-6.40457 4.23934,-9.09278c-5.68463,1.67215 -10.9122,4.22862 -13.03895,9.81728zM238.05063,323.2775l-0.92563,-1.37647l-0.32005,0.57241c-2.41421,2.87395 -5.9079,7.48462 -6.84092,11.21926c-1.22731,4.91278 0.53326,11.75055 1.37725,17.18173c0.74963,-2.79767 1.75335,-5.46098 2.01871,-8.61641c0.32731,-3.89226 -0.69977,-5.98362 1.09365,-9.55202c0.96815,-1.92639 3.45709,-2.67801 4.71085,-4.43195c0.48442,-0.67769 0.75945,-1.58325 0.88784,-2.59688c-0.59016,-0.8498 -1.25443,-1.65236 -2.00174,-2.39964zM184.29519,323.86374c2.72286,7.01565 5.64032,14.30173 6.73164,21.92309c1.17302,8.19182 -1.67954,17.67907 2.59225,25.01943c2.56573,5.13204 8.41154,9.55935 10.36821,14.59528c2.77115,7.13211 -4.43945,13.96898 -3.506,20.83011c1.54588,11.36245 13.67156,12.34729 21.18131,6.80977c9.55749,-4.35839 -0.95539,-12.72119 -3.23741,-17.28052c-0.81753,-1.63339 -1.70776,-7.40945 -1.45456,-8.94467c0.41717,-2.52946 2.6029,-6.06022 4.60697,-7.76538c0.43205,-0.36758 0.9519,-0.66954 1.50974,-0.94661c-4.09565,-1.84251 -7.90742,-5.03379 -9.45174,-7.53302c-3.91929,-6.34274 -0.83167,-13.83172 -4.19044,-20.25727c-1.69622,-3.24498 -4.83846,-5.17021 -7.87608,-6.91817c-2.83562,-2.81863 -5.3039,-5.72538 -6.3176,-9.76183c-1.01049,-4.02354 0.78414,-8.67731 0,-12.71782c-1.51903,-7.82718 -10.94797,-9.7688 -17.21809,-8.24841c3.03887,2.61125 4.54676,6.77702 6.26185,11.19604z" fill="#303030" stroke-width="0.5"/><path d="M226.09207,461.99647v-155.44892h27.77524v155.44892z" fill="url(#color-23)" stroke-width="0"/><path d="M156.75947,319.22876v-12.68119h166.44042v12.68119z" fill="url(#color-24)" stroke-width="0"/><path d="M180.96434,324.97229v-24.16824h118.03068v24.16824z" fill="url(#color-25)" stroke-width="0"/></g><g data-paper-data="{&quot;index&quot;:null}" stroke="none" stroke-width="0"><path d="M398.88566,351.72343c-9.69256,-6.40489 -12.46358,-19.29438 -6.18915,-28.78947c6.2744,-9.49507 19.21817,-12.00015 28.91074,-5.59526c9.69258,6.40489 12.46359,19.29437 6.18918,28.78946c-6.2744,9.49505 -19.21817,12.00015 -28.91074,5.59526z" fill="url(#color-26)"/><path d="M469.32129,394.46816l-71.22439,-40.891l24.6879,-37.36031l65.86754,49.22505z" fill="url(#color-27)"/></g><g data-paper-data="{&quot;index&quot;:null}" stroke="none" stroke-width="0"><path d="M83.06171,352.17282c-9.77009,6.28604 -22.68229,3.62302 -28.84025,-5.94798c-6.15797,-9.57102 -3.22971,-22.42569 6.54038,-28.7117c9.77009,-6.28604 22.68229,-3.62303 28.84025,5.94798c6.15797,9.57102 3.22971,22.4257 -6.54036,28.71173z" fill="url(#color-28)"/><path d="M-6.86583,364.7938l66.4639,-48.41681l24.22971,37.65908l-71.71854,40.01797z" fill="url(#color-29)"/></g><g data-paper-data="{&quot;index&quot;:null}" stroke="none" stroke-width="0"><path d="M321.99736,335.20586c-11.32091,-2.60886 -18.4265,-13.71413 -15.87078,-24.80434c2.5557,-11.09021 13.80488,-17.96573 25.12581,-15.35687c11.32091,2.60886 18.4265,13.71415 15.8708,24.80437c-2.5557,11.09021 -13.80488,17.96573 -25.12581,15.35687z" fill="url(#color-30)"/><path d="M401.84338,355.63947l-79.93627,-18.42104l10.05591,-43.63671l79.93627,18.42104z" fill="url(#color-31)"/></g><g data-paper-data="{&quot;index&quot;:null}" stroke="none" stroke-width="0"><path d="M160.146,336.59568c-11.35192,2.47038 -22.5163,-4.542 -24.93635,-15.66262c-2.42005,-11.1206 4.82067,-22.13827 16.17258,-24.60866c11.35192,-2.47038 22.5163,4.542 24.93635,15.66262c2.42005,11.1206 -4.82068,22.13825 -16.17258,24.60863z" fill="url(#color-32)"/><path d="M70.53424,312.29613l80.15531,-17.44326l9.52214,43.75628l-80.15531,17.44326z" fill="url(#color-33)"/></g><g stroke="none"><path d="M179.34397,455.62823c0,0 2.06294,-81.91952 -2.87347,-113.07683c-3.36919,-21.26562 -23.48676,-49.22626 -23.48676,-49.22626c0,0 59.08001,-17.26322 88.65454,-17.05031c28.99532,0.20875 87.0893,18.31564 87.0893,18.31564c0,0 -23.2439,24.21313 -26.68475,44.17139c-5.33438,30.9419 -1.816,116.86635 -1.816,116.86635z" fill="url(#color-34)" stroke-width="0"/><g stroke-width="0.5"><path d="M189.83256,378.93473c-0.22704,-2.37567 2.14864,-2.60273 2.14864,-2.60273l1.41387,-0.13513c3.00224,-0.24736 4.5553,-1.54153 7.46824,-2.30703c4.6078,-1.21092 9.91236,-0.80955 14.68186,-1.57578c5.54236,-0.8904 10.87949,-2.4579 16.50741,-3.2064c0.28523,-0.01053 0.57041,-0.02245 0.85558,-0.03577c-5.10339,-4.49442 -10.59881,-8.48817 -15.73402,-12.9401c-2.89479,2.30806 -6.05141,4.29639 -8.8912,6.68109c0,0 -1.82901,1.533 -3.36201,-0.29605c-1.533,-1.82901 0.29605,-3.36199 0.29605,-3.36199c2.67361,-2.23684 5.6349,-4.13068 8.38191,-6.2738c-3.62416,-3.46991 -6.93607,-7.13557 -10.91311,-10.30047c-2.58336,-2.0558 -5.78314,-3.7558 -8.24348,-5.92158c-1.12745,-0.99245 -3.21245,-1.76638 -3.10599,-3.26464c0.12943,-1.82151 1.94293,-3.40339 3.62949,-4.10348c1.42024,-0.58959 3.05882,0.3674 4.55927,0.7042c0.07972,0.01788 8.37496,2.4558 8.78789,2.5771c6.41468,2.47231 12.55936,4.11027 19.23835,5.37609c0.36176,0.06856 0.72249,0.14248 1.08231,0.22123c5.99524,-6.42114 11.9172,-12.92852 18.63941,-18.55689c1.90575,-1.82905 7.34255,-7.75644 10.62691,-6.85671c4.22198,1.15654 4.61421,11.55386 4.93214,14.86421c0.60849,6.33566 -0.0073,12.59985 -0.14869,18.90678c4.94456,0.88356 9.87024,1.86676 14.68379,3.28256c2.41575,0.16102 9.70318,1.0745 10.79537,3.53166c0.65091,1.46437 -0.70248,3.1874 -1.53782,4.55498c-1.91362,3.13281 -7.36603,4.87431 -10.46498,6.33575c-3.89999,1.8392 -7.92768,2.8855 -12.01704,3.83025c0.0955,1.2662 0.16918,2.53404 0.20831,3.80454c2.24664,7.96751 4.02,17.46212 4.87611,25.75094c0.43765,4.23725 2.20605,11.88941 -5.63288,8.27743c-1.57743,-0.72683 -2.35147,-2.56561 -3.38191,-3.96368c-2.8276,-3.83636 -4.45004,-8.62359 -7.25288,-12.51302c-4.2794,-5.93841 -9.75155,-11.10101 -15.23909,-15.93274c-1.73114,0.18367 -3.48273,0.31363 -5.26366,0.3781c-5.51484,0.74284 -10.70871,2.27148 -16.1424,3.16117c-4.57277,0.74875 -9.87562,0.26447 -14.24974,1.4845c-3.0563,0.85247 -4.95698,2.09495 -8.21535,2.43903l-1.41385,0.13513c0,0 -2.37571,0.22704 -2.60273,-2.14864zM243.87562,372.61338c5.87376,5.42444 11.33053,11.30197 15.46242,18.17869c1.6394,2.72839 3.0734,5.74909 4.80384,8.42725c-0.24589,-1.99486 -0.22276,-4.25558 -0.36493,-4.97703c-1.40491,-7.12889 -2.20602,-14.69739 -4.14179,-21.63908c-0.04811,-1.15655 -0.12031,-2.31057 -0.20844,-3.46294c-0.55179,0.12947 -1.10422,0.26184 -1.65716,0.39875c-4.68085,1.15924 -9.25098,2.26507 -13.89394,3.07436zM258.0229,345.71371c0.20192,-3.62412 0.5611,-7.24328 0.46649,-10.86671c-0.09412,-3.60511 -0.46293,-7.40865 -1.04905,-10.963c-0.15818,-0.9592 -0.35282,-1.9121 -0.51784,-2.87013c-0.17349,-1.0073 -0.44458,-2.00502 -0.49769,-3.02578c-0.00066,-0.0127 0,-0.02652 0.00181,-0.04133c-1.22061,1.82641 -4.59255,3.89181 -5.96358,5.21617c-5.97382,5.01185 -11.32239,10.70996 -16.6526,16.42508c4.39485,1.39387 8.7272,3.11004 13.20345,4.06978c3.63807,0.78003 7.3206,1.41931 11.00898,2.05591zM257.9003,350.53671c-3.92459,-0.67986 -7.84617,-1.35218 -11.72155,-2.17954c-5.41441,-1.15595 -10.62638,-3.43988 -15.98496,-4.90095c-3.05926,3.25112 -6.15735,6.4584 -9.40755,9.49693c6.13031,5.27826 12.75807,9.92878 18.5924,15.59168c6.60905,-0.75657 13.18188,-2.1424 19.65044,-3.80668c-0.46123,-4.59752 -1.00965,-9.18783 -1.12138,-13.83048c-0.00298,-0.12365 -0.00543,-0.24732 -0.0074,-0.37096zM217.23221,349.744c2.59159,-2.40064 5.08331,-4.91254 7.53259,-7.47218c-6.18075,-1.2378 -11.98187,-2.859 -17.98404,-5.17925c-0.43364,-0.1269 -3.26385,-0.95478 -5.52925,-1.61865c2.45652,1.74908 4.83006,3.62093 7.12668,5.57243c3.18482,2.70626 5.86487,5.82471 8.85399,8.69766zM262.69658,351.38259c0.13558,4.05511 0.61432,8.07572 1.02713,12.09849c1.42383,-0.39489 2.84174,-0.79929 4.25294,-1.20937c3.90463,-1.13467 7.86012,-2.89124 11.43642,-4.82737c0.83504,-0.45208 1.51346,-1.16198 2.25384,-1.76422c-1.73648,-0.17261 -3.94556,-1.09207 -5.13491,-1.17135c-4.54285,-1.32795 -9.17879,-2.27913 -13.83536,-3.12618z" fill="#ad9600"/><path d="M193.11358,377.65647c-0.21194,-2.21737 2.00547,-2.42929 2.00547,-2.42929l1.31963,-0.12611c2.80222,-0.23091 4.2518,-1.43881 6.97064,-2.15332c4.30078,-1.13024 9.25188,-0.7556 13.70361,-1.47079c5.17308,-0.83109 10.15463,-2.29414 15.40755,-2.99278c0.26622,-0.00982 0.53239,-0.02095 0.79856,-0.03339c-4.76337,-4.19497 -9.89261,-7.92264 -14.68567,-12.07793c-2.70192,2.15429 -5.64824,4.01016 -8.29879,6.23597c0,0 -1.70718,1.43086 -3.13801,-0.27631c-1.43083,-1.70718 0.27631,-3.13801 0.27631,-3.13801c2.49546,-2.08781 5.25946,-3.85545 7.82342,-5.85578c-3.38269,-3.23871 -6.47392,-6.66014 -10.18597,-9.61415c-2.41124,-1.91884 -5.39782,-3.50557 -7.69424,-5.52704c-1.05232,-0.92634 -2.99842,-1.64871 -2.89905,-3.04711c0.1208,-1.70016 1.81349,-3.17663 3.38766,-3.8301c1.32562,-0.55028 2.85502,0.34294 4.25549,0.6573c0.07442,0.01671 7.81694,2.29217 8.20238,2.40537c5.98728,2.30761 11.72254,3.8364 17.95651,5.0179c0.33767,0.064 0.67434,0.133 1.0102,0.20649c5.59578,-5.99331 11.12317,-12.06712 17.39749,-17.32045c1.77879,-1.70718 6.85328,-7.23964 9.91886,-6.39989c3.94068,1.07947 4.30675,10.78403 4.60353,13.87383c0.56792,5.91352 -0.0068,11.76034 -0.13879,17.64705c4.61511,0.82471 9.21258,1.74237 13.70542,3.06385c2.25482,0.15027 9.05667,1.00292 10.07609,3.29635c0.60754,1.36682 -0.65567,2.97504 -1.43535,4.25149c-1.7861,2.92406 -6.87525,4.54955 -9.76771,5.91361c-3.64014,1.71665 -7.39945,2.69322 -11.21637,3.57503c0.08914,1.18184 0.15789,2.36516 0.19444,3.55102c2.09696,7.43664 3.75214,16.29864 4.55123,24.0352c0.4085,3.95495 2.05908,11.09722 -5.25756,7.72592c-1.4723,-0.67841 -2.19478,-2.39471 -3.15658,-3.69962c-2.63919,-3.58075 -4.15354,-8.04901 -6.76965,-11.67928c-3.99428,-5.54275 -9.10181,-10.36137 -14.22372,-14.87118c-1.61581,0.17145 -3.25067,0.29272 -4.91297,0.35289c-5.14741,0.69332 -9.9952,2.12013 -15.06685,2.95056c-4.26807,0.69883 -9.21763,0.24683 -13.3003,1.3856c-2.85268,0.79568 -4.62674,1.95538 -7.66799,2.27652l-1.31968,0.1261c0,0 -2.21737,0.21192 -2.4293,-2.00547zM243.55581,371.75631c5.4824,5.06304 10.57559,10.54895 14.4322,16.96748c1.53016,2.54661 2.86861,5.36603 4.48375,7.86576c-0.22949,-1.86196 -0.20791,-3.97202 -0.34063,-4.64542c-1.31132,-6.6539 -2.05903,-13.71813 -3.86583,-20.19731c-0.0449,-1.07951 -0.11229,-2.15661 -0.19454,-3.2322c-0.51502,0.12081 -1.03065,0.24439 -1.54673,0.3722c-4.36899,1.08202 -8.63461,2.11416 -12.9682,2.86951zM256.76048,346.64892c0.18845,-3.38266 0.52371,-6.76069 0.43542,-10.14265c-0.08786,-3.36489 -0.4321,-6.91504 -0.97916,-10.23255c-0.14761,-0.89531 -0.32932,-1.7847 -0.48333,-2.67891c-0.16194,-0.94021 -0.41496,-1.87143 -0.46453,-2.82417c-0.00062,-0.01185 -0.00001,-0.02475 0.0017,-0.03855c-1.13927,1.70471 -4.28654,3.63248 -5.56625,4.86864c-5.5758,4.6779 -10.56795,9.99636 -15.54305,15.33068c4.10204,1.30101 8.14573,2.90284 12.32373,3.79862c3.39567,0.72805 6.83284,1.32476 10.27547,1.91892zM256.64604,351.1506c-3.66308,-0.63457 -7.32339,-1.26209 -10.94058,-2.03433c-5.05365,-1.07893 -9.91836,-3.21067 -14.91989,-4.57439c-2.85544,3.03453 -5.74709,6.0281 -8.78073,8.86413c5.72186,4.92655 11.90803,9.26725 17.3536,14.55284c6.1687,-0.70618 12.30357,-1.9997 18.34116,-3.55308c-0.43049,-4.2912 -0.94238,-8.57565 -1.04668,-12.90898c-0.00277,-0.11542 -0.00509,-0.23082 -0.00689,-0.34623zM218.68762,350.41067c2.41893,-2.24069 4.74461,-4.58525 7.03069,-6.97433c-5.76894,-1.15532 -11.18355,-2.66852 -16.7858,-4.83416c-0.40474,-0.11845 -3.04639,-0.89117 -5.16084,-1.51079c2.29286,1.63254 4.50825,3.37964 6.65184,5.20115c2.97264,2.52595 5.47413,5.43663 8.2641,8.11813zM261.12274,351.94011c0.12655,3.78495 0.5734,7.53763 0.95869,11.29236c1.32899,-0.36858 2.65236,-0.74603 3.96955,-1.1288c3.64446,-1.05908 7.33639,-2.69864 10.6744,-4.50573c0.77945,-0.42197 1.41262,-1.08454 2.10365,-1.64664c-1.62075,-0.16109 -3.68265,-1.01932 -4.79277,-1.09329c-4.24017,-1.23948 -8.5672,-2.1273 -12.91356,-2.91788z" fill="#ffdf00"/></g></g><g stroke="none" stroke-width="0"><path d="M549.05378,377.70505c-10.67586,5.49258 -16.68224,-2.93464 -31.44321,-5.57937c-14.76103,-2.64474 -26.42711,-3.80138 -25.04708,-14.16587c1.32079,-9.91922 19.23536,-6.2318 33.99639,-3.58709c14.76103,2.6447 31.69079,14.36475 22.49391,23.33232z" fill="url(#color-35)"/><path d="M545.74412,335.67303c-6.81191,9.88631 -16.08821,5.2989 -30.3463,9.94523c-14.25811,4.64631 -25.08553,9.14112 -28.76827,-0.64475c-3.52452,-9.36552 14.00552,-14.58358 28.26359,-19.22991c14.25811,-4.64631 34.71699,-2.32021 30.85089,9.92944z" fill="url(#color-36)"/><path d="M501.47541,325.30053c-12.80081,7.81162 -22.29852,14.68403 -28.14035,6.01226c-5.59088,-8.29921 10.26156,-17.42227 23.06236,-25.2339c12.80081,-7.81162 33.24423,-10.27017 32.30967,2.54105c-4.34627,11.19159 -14.43088,8.86898 -27.23168,16.68059z" fill="url(#color-37)"/><path d="M493.06971,387.2797c-13.30408,12.71669 -21.70756,24.75541 -44.46071,0.96518c-21.77567,-22.76818 -9.58658,-32.36934 3.71744,-45.08604c13.30408,-12.71669 19.96998,-28.02674 44.46071,-0.96518c22.57786,24.94785 9.58658,32.36934 -3.71744,45.08604z" fill="url(#color-38)"/><path d="M452.67563,367.28565c-11.74746,5.19591 -16.31991,-14.88067 -13.27744,-29.56484c3.04247,-14.68421 6.29166,-32.68347 15.98924,-30.21538c10.13289,2.57892 6.86198,13.83664 3.81951,28.52085c-3.04247,14.68421 2.54186,23.3968 -6.53127,31.2594z" data-paper-data="{&quot;index&quot;:null}" fill="url(#color-39)"/></g><g data-paper-data="{&quot;index&quot;:null}" stroke="none" stroke-width="0"><path d="M-44.63535,353.26242c14.79219,-2.46419 32.75049,-5.93252 33.95003,4.00208c1.25335,10.38058 -10.42602,11.39462 -25.21824,13.85886c-14.79218,2.46421 -20.90106,10.81744 -31.509,5.19487c-9.08667,-9.07924 7.985,-20.59161 22.77723,-23.05582z" fill="url(#color-40)"/><path d="M-63.58968,334.3298c-3.7162,-12.29595 16.76957,-14.37198 30.96986,-9.55186c14.20029,4.82013 31.66528,10.25196 28.02661,19.5737c-3.80197,9.74017 -14.57366,5.11345 -28.77399,0.29331c-14.20029,-4.82013 -23.53191,-0.34637 -30.22255,-10.31517z" fill="url(#color-41)"/><path d="M-46.22351,307.48683c-0.77802,-12.82169 19.63386,-10.11361 32.33831,-2.1462c12.70445,7.96739 28.44427,17.28341 22.75241,25.51374c-5.94734,8.59976 -15.36037,1.61184 -28.06482,-6.35555c-12.70445,-7.96739 -22.81665,-5.76813 -27.02589,-17.01196z" fill="url(#color-42)"/><path d="M-14.71607,341.44794c24.81946,-26.76042 31.29784,-11.37007 44.4456,1.50818c13.14769,12.87825 25.2186,22.62759 3.16644,45.12809c-23.04203,23.51057 -31.29784,11.37007 -44.4456,-1.50818c-13.14769,-12.87825 -26.04734,-20.45787 -3.16644,-45.12809z" fill="url(#color-43)"/><path d="M29.08566,367.07691c-8.97644,-7.97284 -3.2861,-16.61658 -6.14897,-31.33683c-2.86287,-14.72026 -5.99602,-26.01713 4.16759,-28.47206c9.727,-2.34947 12.75608,15.68816 15.61896,30.40843c2.86287,14.72022 -1.95448,34.73951 -13.63756,29.40044z" data-paper-data="{&quot;index&quot;:null}" fill="url(#color-44)"/></g></g></g></svg>