<svg version="1.1" xmlns="http://www.w3.org/2000/svg" xmlns:xlink="http://www.w3.org/1999/xlink" width="519.23798" height="390.93693" viewBox="0,0,519.23798,390.93693"><defs><linearGradient x1="290.47222" y1="177.97603" x2="502.31606" y2="177.97603" gradientUnits="userSpaceOnUse" id="color-1"><stop offset="0" stop-color="#757575"/><stop offset="1" stop-color="#414141"/></linearGradient><linearGradient x1="348.07808" y1="179.00005" x2="272.92192" y2="179.00005" gradientUnits="userSpaceOnUse" id="color-2"><stop offset="0" stop-color="#545454"/><stop offset="1" stop-color="#0e0e0e"/></linearGradient><linearGradient x1="148.5" y1="-16.20715" x2="148.5" y2="374.20726" gradientUnits="userSpaceOnUse" id="color-3"><stop offset="0" stop-color="#cccccc"/><stop offset="1" stop-color="#858585"/></linearGradient><radialGradient cx="273.04428" cy="72.51134" r="116.36984" gradientUnits="userSpaceOnUse" id="color-4"><stop offset="0" stop-color="#868686"/><stop offset="1" stop-color="#515151"/></radialGradient><linearGradient x1="166.8135" y1="75.06892" x2="166.8135" y2="109.9297" gradientUnits="userSpaceOnUse" id="color-5"><stop offset="0" stop-color="#868686"/><stop offset="1" stop-color="#515151"/></linearGradient><radialGradient cx="235.83333" cy="199.83336" r="48.08095" gradientUnits="userSpaceOnUse" id="color-6"><stop offset="0" stop-color="#636363"/><stop offset="1" stop-color="#595959"/></radialGradient><radialGradient cx="236.77163" cy="199.83078" r="23.19701" gradientUnits="userSpaceOnUse" id="color-7"><stop offset="0" stop-color="#9f0000"/><stop offset="1" stop-color="#690000"/></radialGradient><linearGradient x1="246" y1="372.5" x2="246" y2="218.5" gradientUnits="userSpaceOnUse" id="color-8"><stop offset="0" stop-color="#000000"/><stop offset="1" stop-color="#000000" stop-opacity="0"/></linearGradient><linearGradient x1="246" y1="-6.5" x2="246" y2="227.5" gradientUnits="userSpaceOnUse" id="color-9"><stop offset="0" stop-color="#000000"/><stop offset="1" stop-color="#000000" stop-opacity="0"/></linearGradient><linearGradient x1="-12.5" y1="180" x2="186.5" y2="180" gradientUnits="userSpaceOnUse" id="color-10"><stop offset="0" stop-color="#000000"/><stop offset="1" stop-color="#000000" stop-opacity="0"/></linearGradient><linearGradient x1="490.5" y1="180" x2="288.5" y2="180" gradientUnits="userSpaceOnUse" id="color-11"><stop offset="0" stop-color="#000000"/><stop offset="1" stop-color="#000000" stop-opacity="0"/></linearGradient></defs><g transform="translate(16.92192,16.72968)"><g data-paper-data="{&quot;isPaintingLayer&quot;:true}" fill-rule="nonzero" stroke-width="0" stroke-linecap="butt" stroke-linejoin="miter" stroke-miterlimit="10" stroke-dasharray="" stroke-dashoffset="0" style="mix-blend-mode: normal"><path d="M290.47222,372.68174v-389.41141h211.84384v389.41141z" fill="url(#color-1)" stroke="none"/><path d="M272.92192,374.20726v-390.41441h75.15616v390.41441z" fill="url(#color-2)" stroke="#000000"/><path d="M-16.92192,374.20726v-390.41441h330.84384v390.41441z" fill="url(#color-3)" stroke="#000000"/><path d="M180.40159,282.73972v-232.73968h110.09841v232.73968z" fill="url(#color-4)" stroke="none"/><path d="M71,109.92703v-34.84127h168.63175c0,0 22.99524,-1.21829 22.99524,17.07222c0,18.40664 -22.99524,17.76905 -22.99524,17.76905z" fill="url(#color-5)" stroke="none"/><g stroke="none"><path d="M283.23708,199.83336c0,26.00208 -21.22338,47.08095 -47.40375,47.08095c-26.18037,0 -47.40375,-21.07887 -47.40375,-47.08095c0,-26.00208 21.22338,-47.08095 47.40375,-47.08095c26.18037,0 47.40375,21.07887 47.40375,47.08095z" fill="url(#color-6)"/><path d="M283.24463,201.05923l-46.38666,0.16357l-0.00735,-2.6153l46.38666,-0.16357z" fill="url(#color-7)"/></g><path d="M496,372.5h-500v-154h500z" data-paper-data="{&quot;index&quot;:null}" fill="url(#color-8)" stroke="none"/><path d="M496,227.5h-500v-234h500z" data-paper-data="{&quot;index&quot;:null}" fill="url(#color-9)" stroke="none"/><path d="M-12.5,370v-380h199v380z" fill="url(#color-10)" stroke="none"/><path d="M288.5,370v-380h202v380z" data-paper-data="{&quot;index&quot;:null}" fill="url(#color-11)" stroke="none"/></g></g></svg>