<svg version="1.1" xmlns="http://www.w3.org/2000/svg" xmlns:xlink="http://www.w3.org/1999/xlink" width="386.68882" height="428.76945" viewBox="0,0,386.68882,428.76945"><defs><linearGradient x1="136.30091" y1="188.47162" x2="142.11766" y2="188.47162" gradientUnits="userSpaceOnUse" id="color-1"><stop offset="0" stop-color="#b6b6b6"/><stop offset="1" stop-color="#7e7e7e"/></linearGradient><linearGradient x1="134.48649" y1="189.40264" x2="143.93204" y2="189.40264" gradientUnits="userSpaceOnUse" id="color-2"><stop offset="0" stop-color="#ececec"/><stop offset="1" stop-color="#aeaeae"/></linearGradient><radialGradient cx="139.09189" cy="240.46185" r="4.66562" gradientUnits="userSpaceOnUse" id="color-3"><stop offset="0" stop-color="#b9b9b9"/><stop offset="1" stop-color="#5e5e5e"/></radialGradient><linearGradient x1="120.5239" y1="188.47162" x2="126.34065" y2="188.47162" gradientUnits="userSpaceOnUse" id="color-4"><stop offset="0" stop-color="#b6b6b6"/><stop offset="1" stop-color="#7e7e7e"/></linearGradient><linearGradient x1="118.70948" y1="189.40264" x2="128.15503" y2="189.40264" gradientUnits="userSpaceOnUse" id="color-5"><stop offset="0" stop-color="#ececec"/><stop offset="1" stop-color="#aeaeae"/></linearGradient><radialGradient cx="123.31488" cy="240.46185" r="4.66562" gradientUnits="userSpaceOnUse" id="color-6"><stop offset="0" stop-color="#b9b9b9"/><stop offset="1" stop-color="#5e5e5e"/></radialGradient><linearGradient x1="131.98985" y1="263.25738" x2="131.98985" y2="346.67636" gradientUnits="userSpaceOnUse" id="color-7"><stop offset="0" stop-color="#313131"/><stop offset="1" stop-color="#000000"/></linearGradient><linearGradient x1="130.99971" y1="262.79526" x2="130.99971" y2="281.93494" gradientUnits="userSpaceOnUse" id="color-8"><stop offset="0" stop-color="#b2b2b2"/><stop offset="1" stop-color="#585858"/></linearGradient><linearGradient x1="130.99974" y1="250.49113" x2="130.99974" y2="294.23903" gradientUnits="userSpaceOnUse" id="color-9"><stop offset="0" stop-color="#808080"/><stop offset="1" stop-color="#5a5a5a"/></linearGradient><linearGradient x1="169.45672" y1="289.82006" x2="169.45672" y2="350.96767" gradientUnits="userSpaceOnUse" id="color-10"><stop offset="0" stop-color="#b2b2b2"/><stop offset="1" stop-color="#585858"/></linearGradient><linearGradient x1="132.33726" y1="370.68736" x2="132.33726" y2="418.57805" gradientUnits="userSpaceOnUse" id="color-11"><stop offset="0" stop-color="#505050"/><stop offset="1" stop-color="#1d1d1d"/></linearGradient><linearGradient x1="132.33726" y1="370.68736" x2="132.33726" y2="392.39559" gradientUnits="userSpaceOnUse" id="color-12"><stop offset="0" stop-color="#353535"/><stop offset="1" stop-color="#505050"/></linearGradient><linearGradient x1="94.88646" y1="289.82006" x2="94.88646" y2="350.96767" gradientUnits="userSpaceOnUse" id="color-13"><stop offset="0" stop-color="#b2b2b2"/><stop offset="1" stop-color="#585858"/></linearGradient><linearGradient x1="132.17159" y1="240.0513" x2="132.17159" y2="304.67887" gradientUnits="userSpaceOnUse" id="color-14"><stop offset="0" stop-color="#636363"/><stop offset="1" stop-color="#404040"/></linearGradient><linearGradient x1="132.17159" y1="349.91814" x2="132.17159" y2="379.74624" gradientUnits="userSpaceOnUse" id="color-15"><stop offset="0" stop-color="#404040"/><stop offset="1" stop-color="#1d1d1d"/></linearGradient><radialGradient cx="139.57353" cy="262.014" r="28.03418" gradientUnits="userSpaceOnUse" id="color-16"><stop offset="0" stop-color="#464646"/><stop offset="1" stop-color="#2a2a2a"/></radialGradient><radialGradient cx="138.88327" cy="262.86353" r="25.69801" gradientUnits="userSpaceOnUse" id="color-17"><stop offset="0" stop-color="#848484"/><stop offset="1" stop-color="#4f4f4f"/></radialGradient><linearGradient x1="264.23946" y1="331.27508" x2="271.29205" y2="328.10693" gradientUnits="userSpaceOnUse" id="color-18"><stop offset="0" stop-color="#b2b2b2"/><stop offset="1" stop-color="#585858"/></linearGradient><linearGradient x1="277.05983" y1="314.7334" x2="284.10726" y2="311.56756" gradientUnits="userSpaceOnUse" id="color-19"><stop offset="0" stop-color="#434343"/><stop offset="1" stop-color="#212121"/></linearGradient><linearGradient x1="243.51216" y1="329.3228" x2="250.55956" y2="326.15697" gradientUnits="userSpaceOnUse" id="color-20"><stop offset="0" stop-color="#434343"/><stop offset="1" stop-color="#212121"/></linearGradient><linearGradient x1="267.13594" y1="328.90635" x2="270.7753" y2="337.00787" gradientUnits="userSpaceOnUse" id="color-21"><stop offset="0" stop-color="#989898"/><stop offset="1" stop-color="#585858"/></linearGradient><linearGradient x1="256.39434" y1="304.9946" x2="260.03369" y2="313.09611" gradientUnits="userSpaceOnUse" id="color-22"><stop offset="0" stop-color="#989898"/><stop offset="1" stop-color="#585858"/></linearGradient><linearGradient x1="247.17268" y1="283.93042" x2="250.81133" y2="292.03039" gradientUnits="userSpaceOnUse" id="color-23"><stop offset="0" stop-color="#989898"/><stop offset="1" stop-color="#585858"/></linearGradient><linearGradient x1="276.33161" y1="348.77311" x2="279.97025" y2="356.87301" gradientUnits="userSpaceOnUse" id="color-24"><stop offset="0" stop-color="#989898"/><stop offset="1" stop-color="#585858"/></linearGradient><radialGradient cx="244.07531" cy="265.6499" r="9.09056" gradientUnits="userSpaceOnUse" id="color-25"><stop offset="0" stop-color="#e0e0e0"/><stop offset="1" stop-color="#c3c3c3"/></radialGradient><linearGradient x1="235.06328" y1="338.96836" x2="296.36691" y2="311.42962" gradientUnits="userSpaceOnUse" id="color-26"><stop offset="0" stop-color="#cb7d39"/><stop offset="1" stop-color="#f6923a"/></linearGradient><linearGradient x1="2.53873" y1="329.37358" x2="-4.61335" y2="326.43693" gradientUnits="userSpaceOnUse" id="color-27"><stop offset="0" stop-color="#b2b2b2"/><stop offset="1" stop-color="#585858"/></linearGradient><linearGradient x1="-10.81383" y1="313.25839" x2="-17.9607" y2="310.32388" gradientUnits="userSpaceOnUse" id="color-28"><stop offset="0" stop-color="#434343"/><stop offset="1" stop-color="#212121"/></linearGradient><linearGradient x1="23.19144" y1="326.74686" x2="16.0446" y2="323.81235" gradientUnits="userSpaceOnUse" id="color-29"><stop offset="0" stop-color="#434343"/><stop offset="1" stop-color="#212121"/></linearGradient><linearGradient x1="-0.43339" y1="327.10044" x2="-3.80681" y2="335.31624" gradientUnits="userSpaceOnUse" id="color-30"><stop offset="0" stop-color="#989898"/><stop offset="1" stop-color="#585858"/></linearGradient><linearGradient x1="9.5233" y1="302.85144" x2="6.14987" y2="311.06724" gradientUnits="userSpaceOnUse" id="color-31"><stop offset="0" stop-color="#989898"/><stop offset="1" stop-color="#585858"/></linearGradient><linearGradient x1="18.05367" y1="281.4979" x2="14.6809" y2="289.7121" gradientUnits="userSpaceOnUse" id="color-32"><stop offset="0" stop-color="#989898"/><stop offset="1" stop-color="#585858"/></linearGradient><linearGradient x1="-8.97678" y1="347.25629" x2="-12.34955" y2="355.47049" gradientUnits="userSpaceOnUse" id="color-33"><stop offset="0" stop-color="#989898"/><stop offset="1" stop-color="#585858"/></linearGradient><radialGradient cx="20.5537" cy="263.12611" r="9.09056" gradientUnits="userSpaceOnUse" id="color-34"><stop offset="0" stop-color="#e0e0e0"/><stop offset="1" stop-color="#c3c3c3"/></radialGradient><linearGradient x1="31.95011" y1="336.11204" x2="-30.21835" y2="310.58556" gradientUnits="userSpaceOnUse" id="color-35"><stop offset="0" stop-color="#cb7d39"/><stop offset="1" stop-color="#f6923a"/></linearGradient><radialGradient cx="249.11151" cy="249.3736" r="49.21637" gradientUnits="userSpaceOnUse" id="color-36"><stop offset="0" stop-color="#f0b3f5"/><stop offset="1" stop-color="#c093c4"/></radialGradient><radialGradient cx="42.1261" cy="249.3736" r="49.21637" gradientUnits="userSpaceOnUse" id="color-37"><stop offset="0" stop-color="#f0b3f5"/><stop offset="1" stop-color="#c093c4"/></radialGradient><radialGradient cx="182.80191" cy="232.52683" r="101.27951" gradientUnits="userSpaceOnUse" id="color-38"><stop offset="0" stop-color="#f0b3f5"/><stop offset="1" stop-color="#c093c4"/></radialGradient><radialGradient cx="167.29126" cy="257.88072" r="93.19278" gradientUnits="userSpaceOnUse" id="color-39"><stop offset="0" stop-color="#f0b3f5"/><stop offset="1" stop-color="#ac84b0"/></radialGradient><linearGradient x1="125.36005" y1="247.64434" x2="148.88178" y2="145.43494" gradientUnits="userSpaceOnUse" id="color-40"><stop offset="0" stop-color="#bb7335"/><stop offset="1" stop-color="#f6923a"/></linearGradient><linearGradient x1="148.91639" y1="145.44294" x2="132.30647" y2="217.61831" gradientUnits="userSpaceOnUse" id="color-41"><stop offset="0" stop-color="#8d2727"/><stop offset="1" stop-color="#f53b3b"/></linearGradient><linearGradient x1="123.56941" y1="101.85991" x2="108.90364" y2="165.58731" gradientUnits="userSpaceOnUse" id="color-42"><stop offset="0" stop-color="#d5d5d5"/><stop offset="1" stop-color="#8e8e8e"/></linearGradient><linearGradient x1="190.84165" y1="117.34146" x2="176.1759" y2="181.06886" gradientUnits="userSpaceOnUse" id="color-43"><stop offset="0" stop-color="#d5d5d5"/><stop offset="1" stop-color="#8e8e8e"/></linearGradient><linearGradient x1="115.14985" y1="164.06558" x2="116.89615" y2="156.47739" gradientUnits="userSpaceOnUse" id="color-44"><stop offset="0" stop-color="#ffffff"/><stop offset="1" stop-color="#8b8b8b"/></linearGradient><linearGradient x1="137.28641" y1="169.15992" x2="139.03269" y2="161.57173" gradientUnits="userSpaceOnUse" id="color-45"><stop offset="0" stop-color="#ffffff"/><stop offset="1" stop-color="#8b8b8b"/></linearGradient><linearGradient x1="159.42307" y1="174.2543" x2="161.16936" y2="166.66611" gradientUnits="userSpaceOnUse" id="color-46"><stop offset="0" stop-color="#ffffff"/><stop offset="1" stop-color="#8b8b8b"/></linearGradient><linearGradient x1="126.32999" y1="166.63849" x2="128.07627" y2="159.0503" gradientUnits="userSpaceOnUse" id="color-47"><stop offset="0" stop-color="#ffffff"/><stop offset="1" stop-color="#8b8b8b"/></linearGradient><linearGradient x1="148.4665" y1="171.73283" x2="150.21279" y2="164.14464" gradientUnits="userSpaceOnUse" id="color-48"><stop offset="0" stop-color="#ffffff"/><stop offset="1" stop-color="#8b8b8b"/></linearGradient><linearGradient x1="170.6032" y1="176.82721" x2="172.34948" y2="169.23901" gradientUnits="userSpaceOnUse" id="color-49"><stop offset="0" stop-color="#ffffff"/><stop offset="1" stop-color="#8b8b8b"/></linearGradient><linearGradient x1="142.13133" y1="175.21922" x2="144.03199" y2="166.96024" gradientUnits="userSpaceOnUse" id="color-50"><stop offset="0" stop-color="#9b9b9b"/><stop offset="1" stop-color="#686868"/></linearGradient><linearGradient x1="86.14776" y1="52.29196" x2="87.63089" y2="52.63327" gradientUnits="userSpaceOnUse" id="color-51"><stop offset="0" stop-color="#b2b2b2"/><stop offset="1" stop-color="#848484"/></linearGradient><linearGradient x1="120.35184" y1="68.58141" x2="129.36142" y2="70.6548" gradientUnits="userSpaceOnUse" id="color-52"><stop offset="0" stop-color="#404040"/><stop offset="1" stop-color="#b2b2b2"/></linearGradient><linearGradient x1="125.73085" y1="90.89706" x2="113.81525" y2="142.67417" gradientUnits="userSpaceOnUse" id="color-53"><stop offset="0" stop-color="#636363"/><stop offset="1" stop-color="#353535"/></linearGradient><linearGradient x1="192.95726" y1="106.36806" x2="181.04165" y2="158.14517" gradientUnits="userSpaceOnUse" id="color-54"><stop offset="0" stop-color="#636363"/><stop offset="1" stop-color="#353535"/></linearGradient><linearGradient x1="197.84689" y1="86.41556" x2="206.85649" y2="88.48896" gradientUnits="userSpaceOnUse" id="color-55"><stop offset="0" stop-color="#404040"/><stop offset="1" stop-color="#b2b2b2"/></linearGradient><linearGradient x1="243.73318" y1="88.55753" x2="245.21619" y2="88.89881" gradientUnits="userSpaceOnUse" id="color-56"><stop offset="0" stop-color="#b2b2b2"/><stop offset="1" stop-color="#848484"/></linearGradient><linearGradient x1="90.2503" y1="69.24359" x2="88.54367" y2="76.6594" gradientUnits="userSpaceOnUse" id="color-57"><stop offset="0" stop-color="#909090"/><stop offset="1" stop-color="#404040"/></linearGradient><linearGradient x1="233.69164" y1="102.25414" x2="231.98502" y2="109.66995" gradientUnits="userSpaceOnUse" id="color-58"><stop offset="0" stop-color="#909090"/><stop offset="1" stop-color="#404040"/></linearGradient><linearGradient x1="99.43548" y1="66.58972" x2="95.64481" y2="83.06133" gradientUnits="userSpaceOnUse" id="color-59"><stop offset="0" stop-color="#5d5d5d"/><stop offset="1" stop-color="#262626"/></linearGradient><linearGradient x1="226.5904" y1="95.85223" x2="222.79975" y2="112.32384" gradientUnits="userSpaceOnUse" id="color-60"><stop offset="0" stop-color="#5d5d5d"/><stop offset="1" stop-color="#262626"/></linearGradient><linearGradient x1="159.36437" y1="96.18314" x2="158.11148" y2="101.62734" gradientUnits="userSpaceOnUse" id="color-61"><stop offset="0" stop-color="#636363"/><stop offset="1" stop-color="#353535"/></linearGradient><linearGradient x1="171.57001" y1="45.01093" x2="169.26608" y2="55.02227" gradientUnits="userSpaceOnUse" id="color-62"><stop offset="0" stop-color="#b2b2b2"/><stop offset="1" stop-color="#404040"/></linearGradient><radialGradient cx="133.34717" cy="37.66216" r="39.35914" gradientUnits="userSpaceOnUse" id="color-63"><stop offset="0" stop-color="#ffffff"/><stop offset="1" stop-color="#d4d4d4"/></radialGradient><radialGradient cx="147.48484" cy="29.81674" r="11.71758" gradientUnits="userSpaceOnUse" id="color-64"><stop offset="0" stop-color="#ffffff"/><stop offset="1" stop-color="#ffffff" stop-opacity="0"/></radialGradient><radialGradient cx="209.62832" cy="55.21695" r="39.35914" gradientUnits="userSpaceOnUse" id="color-65"><stop offset="0" stop-color="#ffffff"/><stop offset="1" stop-color="#d4d4d4"/></radialGradient><radialGradient cx="223.76566" cy="47.37146" r="11.71758" gradientUnits="userSpaceOnUse" id="color-66"><stop offset="0" stop-color="#ffffff"/><stop offset="1" stop-color="#ffffff" stop-opacity="0"/></radialGradient><radialGradient cx="152.06135" cy="14.49172" r="41.08469" gradientUnits="userSpaceOnUse" id="color-67"><stop offset="0" stop-color="#6db9dc"/><stop offset="1" stop-color="#4394b1"/></radialGradient><radialGradient cx="152.06135" cy="14.49172" r="41.08469" gradientUnits="userSpaceOnUse" id="color-68"><stop offset="0" stop-color="#b88b5c"/><stop offset="1" stop-color="#8d6a36"/></radialGradient><radialGradient cx="236.07925" cy="39.08504" r="41.08466" gradientUnits="userSpaceOnUse" id="color-69"><stop offset="0" stop-color="#6db9dc"/><stop offset="1" stop-color="#4394b1"/></radialGradient><radialGradient cx="236.07925" cy="39.08504" r="41.08466" gradientUnits="userSpaceOnUse" id="color-70"><stop offset="0" stop-color="#b88b5c"/><stop offset="1" stop-color="#8d6a36"/></radialGradient><linearGradient x1="125.38173" y1="118.24573" x2="123.63545" y2="125.83389" gradientUnits="userSpaceOnUse" id="color-71"><stop offset="0" stop-color="#ffffff"/><stop offset="1" stop-color="#8b8b8b"/></linearGradient><linearGradient x1="147.51828" y1="123.34007" x2="145.772" y2="130.92823" gradientUnits="userSpaceOnUse" id="color-72"><stop offset="0" stop-color="#ffffff"/><stop offset="1" stop-color="#8b8b8b"/></linearGradient><linearGradient x1="169.65497" y1="128.43445" x2="167.90869" y2="136.02262" gradientUnits="userSpaceOnUse" id="color-73"><stop offset="0" stop-color="#ffffff"/><stop offset="1" stop-color="#8b8b8b"/></linearGradient><linearGradient x1="136.56186" y1="120.81864" x2="134.81558" y2="128.4068" gradientUnits="userSpaceOnUse" id="color-74"><stop offset="0" stop-color="#ffffff"/><stop offset="1" stop-color="#8b8b8b"/></linearGradient><linearGradient x1="158.69841" y1="125.91299" x2="156.95212" y2="133.50115" gradientUnits="userSpaceOnUse" id="color-75"><stop offset="0" stop-color="#ffffff"/><stop offset="1" stop-color="#8b8b8b"/></linearGradient><linearGradient x1="180.83508" y1="131.00736" x2="179.08879" y2="138.59552" gradientUnits="userSpaceOnUse" id="color-76"><stop offset="0" stop-color="#ffffff"/><stop offset="1" stop-color="#8b8b8b"/></linearGradient><linearGradient x1="154.52448" y1="120.00808" x2="152.62381" y2="128.26708" gradientUnits="userSpaceOnUse" id="color-77"><stop offset="0" stop-color="#9b9b9b"/><stop offset="1" stop-color="#686868"/></linearGradient><linearGradient x1="10.44431" y1="89.49757" x2="3.77582" y2="122.7906" gradientUnits="userSpaceOnUse" id="color-78"><stop offset="0" stop-color="#f6923a"/><stop offset="1" stop-color="#bb7335"/></linearGradient><linearGradient x1="294.45005" y1="154.85659" x2="285.89487" y2="187.71543" gradientUnits="userSpaceOnUse" id="color-79"><stop offset="0" stop-color="#f6923a"/><stop offset="1" stop-color="#bb7335"/></linearGradient><linearGradient x1="14.72645" y1="71.45879" x2="4.93807" y2="104.10874" gradientUnits="userSpaceOnUse" id="color-80"><stop offset="0" stop-color="#f6923a"/><stop offset="1" stop-color="#bb7335"/></linearGradient><linearGradient x1="298.48374" y1="136.76063" x2="293.01587" y2="170.40487" gradientUnits="userSpaceOnUse" id="color-81"><stop offset="0" stop-color="#f6923a"/><stop offset="1" stop-color="#bb7335"/></linearGradient><linearGradient x1="21.03426" y1="53.43317" x2="8.2233" y2="84.98071" gradientUnits="userSpaceOnUse" id="color-82"><stop offset="0" stop-color="#f6923a"/><stop offset="1" stop-color="#bb7335"/></linearGradient><linearGradient x1="300.69008" y1="117.79113" x2="298.42204" y2="151.76494" gradientUnits="userSpaceOnUse" id="color-83"><stop offset="0" stop-color="#f6923a"/><stop offset="1" stop-color="#bb7335"/></linearGradient><linearGradient x1="30.05974" y1="39.10712" x2="13.32705" y2="68.37919" gradientUnits="userSpaceOnUse" id="color-84"><stop offset="0" stop-color="#f6923a"/><stop offset="1" stop-color="#bb7335"/></linearGradient><linearGradient x1="298.83451" y1="100.96099" x2="301.08853" y2="134.60254" gradientUnits="userSpaceOnUse" id="color-85"><stop offset="0" stop-color="#f6923a"/><stop offset="1" stop-color="#bb7335"/></linearGradient><linearGradient x1="45.87682" y1="28.67565" x2="27.42353" y2="54.75577" gradientUnits="userSpaceOnUse" id="color-86"><stop offset="0" stop-color="#f6923a"/><stop offset="1" stop-color="#bb7335"/></linearGradient><linearGradient x1="289.16809" y1="84.66494" x2="294.36503" y2="116.18776" gradientUnits="userSpaceOnUse" id="color-87"><stop offset="0" stop-color="#f6923a"/><stop offset="1" stop-color="#bb7335"/></linearGradient><linearGradient x1="63.06926" y1="21.10172" x2="44.61249" y2="42.29987" gradientUnits="userSpaceOnUse" id="color-88"><stop offset="0" stop-color="#f6923a"/><stop offset="1" stop-color="#bb7335"/></linearGradient><linearGradient x1="277.0158" y1="70.33783" x2="284.34984" y2="97.47129" gradientUnits="userSpaceOnUse" id="color-89"><stop offset="0" stop-color="#f6923a"/><stop offset="1" stop-color="#bb7335"/></linearGradient><radialGradient cx="242.31306" cy="94.49845" r="118.12114" gradientUnits="userSpaceOnUse" id="color-90"><stop offset="0" stop-color="#f6923a"/><stop offset="1" stop-color="#bb7335"/></radialGradient><radialGradient cx="168.10464" cy="93.10228" r="24.90238" gradientUnits="userSpaceOnUse" id="color-91"><stop offset="0" stop-color="#ffffff"/><stop offset="1" stop-color="#e7a5ed"/></radialGradient><radialGradient cx="87.63893" cy="81.87162" r="9.93947" gradientUnits="userSpaceOnUse" id="color-92"><stop offset="0" stop-color="#291545"/><stop offset="1" stop-color="#4d207d"/></radialGradient><radialGradient cx="75.3363" cy="82.67024" r="9.93947" gradientUnits="userSpaceOnUse" id="color-93"><stop offset="0" stop-color="#291545"/><stop offset="1" stop-color="#4d207d"/></radialGradient><linearGradient x1="81.1391" y1="77.34397" x2="81.91161" y2="86.56727" gradientUnits="userSpaceOnUse" id="color-94"><stop offset="0" stop-color="#60289c"/><stop offset="1" stop-color="#291545"/></linearGradient><radialGradient cx="231.70736" cy="115.02648" r="9.93947" gradientUnits="userSpaceOnUse" id="color-95"><stop offset="0" stop-color="#454015"/><stop offset="1" stop-color="#7d7820"/></radialGradient><radialGradient cx="242.85175" cy="121.09861" r="9.67829" gradientUnits="userSpaceOnUse" id="color-96"><stop offset="0" stop-color="#454015"/><stop offset="1" stop-color="#7d7820"/></radialGradient><linearGradient x1="239.53248" y1="113.79547" x2="234.80587" y2="121.75325" gradientUnits="userSpaceOnUse" id="color-97"><stop offset="0" stop-color="#9c9528"/><stop offset="1" stop-color="#454015"/></linearGradient></defs><g transform="translate(38.28619,10.19139)"><g data-paper-data="{&quot;isPaintingLayer&quot;:true}" stroke-linecap="butt" stroke-linejoin="miter" stroke-miterlimit="10" stroke-dasharray="" stroke-dashoffset="0" style="mix-blend-mode: normal"><path d="M47.02641,276.27192c0,-84.34051 170.02019,-84.34051 170.02019,0c0,7.33977 -2.71853,33.15564 -10.38388,59.34274c-8.97999,30.67829 -23.21718,63.8546 -24.84031,66.44273c-13.99317,18.1918 -82.89239,17.31071 -96.2464,1.62557c-0.88527,-2.07189 -16.87122,-35.88956 -27.20905,-68.74966c-8.21108,-26.10004 -11.34056,-51.2823 -11.34056,-58.66132z" fill="#6f6f6f" fill-rule="nonzero" stroke="none" stroke-width="0"/><g fill-rule="nonzero" stroke="none"><g stroke-width="0"><path d="M136.30091,239.35293v-101.76263h5.81675v101.76263z" fill="url(#color-1)"/><path d="M134.48649,230.35311v-81.90096h9.44555v81.90096z" fill="url(#color-2)"/><path d="M139.09189,234.87573c2.57676,0 4.66562,2.50097 4.66562,5.58612c0,3.08512 -2.08886,5.58612 -4.66562,5.58612c-2.57676,0 -4.66562,-2.50097 -4.66562,-5.58612c0,-3.08512 2.08886,-5.58612 4.66562,-5.58612z" fill="url(#color-3)"/></g><g stroke-width="0"><path d="M120.5239,239.35293v-101.76263h5.81675v101.76263z" fill="url(#color-4)"/><path d="M118.70948,230.35311v-81.90096h9.44555v81.90096z" fill="url(#color-5)"/><path d="M123.31488,234.87573c2.57676,0 4.66562,2.50097 4.66562,5.58612c0,3.08512 -2.08886,5.58612 -4.66562,5.58612c-2.57676,0 -4.66562,-2.50097 -4.66562,-5.58612c0,-3.08512 2.08886,-5.58612 4.66562,-5.58612z" fill="url(#color-6)"/></g><path d="M134.95247,305.01536c0.2011,1.66119 -0.35322,6.56108 0.81467,8.13979c0.7352,0.99384 3.9005,0.08271 4.26264,0.05909c1.37457,-0.08969 2.73903,-0.11854 4.09686,-0.09706c1.00166,-6.55347 1.29543,-13.55768 -3.30967,-16.41503c-2.13095,-1.32219 -5.68756,-2.1563 -8.03632,-3.08139c-0.66973,-0.2638 -1.36592,-0.43379 -2.07744,-0.53708c1.99094,3.71509 3.77907,8.04774 4.24925,11.93169zM156.77689,314.47445c5.5534,2.73455 10.20172,4.99069 14.12498,9.97449c3.26346,4.14563 4.19589,12.37568 9.27251,15.10656c1.37105,-0.01796 2.86782,-0.32888 4.57554,-1.06391c3.26862,-1.40684 2.79122,-6.57307 3.20261,-9.31785c1.28225,-8.55533 0.36897,-17.56127 2.88035,-25.68498c2.87152,-1.63613 8.36437,-5.11952 9.9908,-8.19882c2.41393,-4.57029 -6.34107,-10.10457 -3.71527,-16.43693c0.88059,-2.12364 2.42201,-3.73391 4.3907,-4.93604c0.19725,-0.79003 0.4876,-1.55369 0.89222,-2.28567c3.3857,-6.12487 13.46605,-6.95872 19.55644,-8.31262c0,0 2.91179,-0.64706 3.55885,2.26473c0.64706,2.91179 -2.26473,3.55885 -2.26473,3.55885c-1.79667,0.3991 -5.62713,0.81216 -9.05915,1.66181c6.09388,-0.25232 12.32473,0.61819 16.14333,1.46304c0,0 2.91179,0.64706 2.26473,3.55885c-0.64706,2.91179 -3.55885,2.26473 -3.55885,2.26473c-6.67741,-1.49093 -12.7769,-1.88788 -19.44214,-0.03561c-0.49512,0.1376 -1.23852,0.28417 -2.0613,0.47785c0.52858,2.51171 1.76311,5.16468 1.99872,7.13321c0.52745,4.40683 0.56569,11.13155 -0.95495,15.26244c-1.98786,5.40014 -8.61385,8.49498 -9.48161,14.06649c0.01342,4.55469 1.4268,10.94253 0.73911,15.34728c-1.45627,9.3277 -11.14593,18.91257 -21.00361,15.13842c-8.60377,-0.74182 -16.08466,-7.56384 -26.08104,-3.25359c-9.98794,-0.50574 -10.74492,-10.07322 -10.30877,-18.3697c0.05769,-1.09708 0.25208,-2.43039 0.50514,-3.91428c-4.77676,-0.05852 -9.40301,-0.55427 -11.74186,-2.95042c-2.32904,-2.3861 -1.87643,-8.30754 -2.16815,-11.24848c-0.22544,-2.27272 -1.13296,-4.86183 -2.26342,-7.29464c-0.14681,0.1027 -0.2987,0.18759 -0.44948,0.25774c-0.05092,0.15385 -0.11186,0.2978 -0.17703,0.42991c-0.07651,0.17142 -0.16874,0.33431 -0.27481,0.48682c-1.10254,6.99764 -4.49149,14.48927 -4.3164,21.31227c0.19105,7.44471 8.47676,11.69995 2.41327,20.12842c-1.07581,1.49543 -2.87418,2.30521 -4.31126,3.45779c-8.60594,3.19462 -15.70557,-1.05007 -24.20822,-0.01575c-5.73791,0.69801 -14.37882,4.00236 -20.04654,0.78534c-5.30609,-3.01177 -5.64622,-8.76913 -6.59863,-14.00829c-2.17474,-0.73834 -4.11887,-1.77564 -5.61454,-3.24691c-3.35963,-3.30483 -4.70213,-9.39615 -5.69171,-13.8074c-0.69368,-3.19286 -1.14254,-4.00982 -0.80223,-7.27946c0.31036,-2.98186 1.46966,-9.48322 1.58178,-15.8732c-4.17599,-7.39167 -12.83163,-10.07042 -21.34389,-12.18729c-0.42117,0.12901 -0.85135,0.24146 -1.29281,0.33264c0,0 -2.58156,0.51632 -3.37911,-1.84651c-0.64629,-0.53944 -1.21302,-1.44956 -0.84533,-2.92035c0.72345,-2.89374 3.61719,-2.17032 3.61719,-2.17032c0.56181,0.14359 1.12452,0.28802 1.68735,0.43409c2.78058,-1.06039 5.17336,-2.80757 8.08947,-3.42618c13.59126,-2.88312 19.55868,10.63408 20.15643,22.01905c0.5883,1.53093 1.05049,3.19704 1.37003,5.01437c1.17141,6.66196 -2.01653,14.09703 0.30929,20.48833c2.51731,2.3864 5.2745,4.62437 6.60284,7.97105c0.24957,0.62878 0.43033,1.36443 0.57479,2.16868c7.16665,1.81656 17.15566,1.49248 22.37326,3.62143c6.51523,2.65843 18.01412,4.22139 18.41847,-4.89754c-7.21258,-8.99314 -5.9596,-25.29375 3.04891,-32.74171c0.37261,-1.58575 1.72952,-3.34794 3.96087,-5.26254c13.4971,-1.63318 27.72683,2.81005 29.003,18.18986c0.2119,2.55361 -0.10562,5.09548 -0.58418,7.63608c2.2451,0.24358 4.48576,0.5846 6.73802,0.97439zM166.16096,328.07004c-3.23927,-3.96326 -6.75568,-5.64494 -11.22891,-7.92237c-1.67518,-0.26562 -3.84956,-0.28032 -6.21988,-0.25175c-0.63191,3.28557 -1.01762,6.58378 -0.36545,9.91725c0.34401,1.75846 0.69667,7.17622 3.16002,6.57829c5.17607,-2.38064 10.96911,-3.35122 16.50434,-1.3939c0.83787,0.29628 1.62578,0.63591 2.38037,0.99322c-1.25379,-2.79498 -2.38634,-5.66442 -4.23052,-7.92073zM195.44604,307.2709c-0.1415,0.76154 -0.24319,1.59464 -0.3157,2.48608c0.88473,-1.38086 1.93608,-2.60641 2.99931,-3.82381c-0.87984,0.52906 -1.78232,0.9792 -2.68363,1.33773zM86.31876,333.33789c-3.33016,-0.1571 -7.62362,-0.18025 -11.7682,-0.75844c0.45476,3.09699 1.27017,6.0628 3.67178,7.45825c4.15151,2.41223 12.27784,-0.96882 16.49288,-1.45176c7.35045,-0.8422 14.86919,3.46495 22.02534,0.72995c3.30683,-2.42786 3.65341,-4.83126 2.93303,-7.33327c-4.69482,13.59443 -24.44073,1.77582 -33.35483,1.3553zM46.17577,275.09908c-0.22511,0.05384 -0.44781,0.1137 -0.66848,0.17885c4.25859,1.45185 8.26388,3.25574 11.62884,5.78656c-1.49176,-4.59997 -4.68713,-7.46568 -10.96037,-5.96541zM119.97888,298.69445c-3.85552,3.74504 -4.6162,9.47508 -3.66799,14.93586c1.06585,-4.99021 2.95164,-10.14117 3.66799,-14.93586z" fill="url(#color-7)" stroke-width="0.5"/><path d="M20.73797,281.93494v-19.13968h220.52353v19.13968z" fill="url(#color-8)" stroke-width="0"/><path d="M62.32405,294.23903v-43.74787h137.35132v43.74787z" fill="url(#color-9)" stroke-width="0"/><path d="M164.73392,350.96767v-61.14761h9.44555v61.14761z" fill="url(#color-10)" stroke-width="0"/><path d="M120.98602,418.57805v-47.89069h22.70247v47.89069z" fill="url(#color-11)" stroke-width="0"/><path d="M113.69469,392.39559v-21.70824h37.2851v21.70824z" fill="url(#color-12)" stroke-width="0"/><path d="M90.16366,350.96767v-61.14761h9.44555v61.14761z" fill="url(#color-13)" stroke-width="0"/><path d="M74.25532,304.67887v-64.62754h115.83246v64.62754z" fill="url(#color-14)" stroke-width="0"/><path d="M98.61498,379.74624l-8.45132,-29.8281h84.01581l-8.94843,29.8281z" fill="url(#color-15)" stroke-width="0"/><g stroke-width="0"><path d="M131.29071,244.17408c15.36556,0 27.82181,12.55134 27.82181,28.03418c0,15.48284 -12.45625,28.03418 -27.82181,28.03418c-15.36556,0 -27.82181,-12.55134 -27.82181,-28.03418c0,-15.48284 12.45625,-28.03418 27.82181,-28.03418z" fill="url(#color-16)"/><path d="M131.29071,246.51025c14.0851,0 25.50333,11.50539 25.50333,25.69801c0,14.19263 -11.41823,25.69801 -25.50333,25.69801c-14.0851,0 -25.50333,-11.50539 -25.50333,-25.69801c0,-14.19263 11.41823,-25.69801 25.50333,-25.69801z" fill="url(#color-17)"/></g></g><g fill-rule="nonzero" stroke="none"><path d="M230.67954,329.20972c-17.05503,-37.96596 -6.19553,-50.50578 10.73299,-58.11039c16.92853,-7.60462 33.51563,-7.39429 50.57064,30.57164c11.5108,25.62403 15.29937,50.78174 11.34167,66.76835c-1.90627,7.69997 -23.86481,17.18911 -31.25373,13.05809c-14.32298,-8.00778 -30.14072,-27.24217 -41.39163,-52.28766z" fill="#6f6f6f" stroke-width="0"/><path d="M290.5992,385.2881c-2.52283,1.13331 -3.65616,-1.38951 -3.65616,-1.38951l-0.70991,-1.865c-0.10069,-0.76768 -0.22855,-1.50405 -0.37982,-2.21576l-3.16118,-1.27638c-4.65217,-4.95664 -6.24566,-11.57643 -10.0576,-17.13745c-8.18629,-11.94261 -15.90339,-19.55305 -15.70041,-35.04312c-1.91057,-5.86937 -9.01791,-8.38235 -10.83994,-14.47268c-1.03174,-3.44866 -0.20782,-7.14105 -1.16193,-10.61624c-1.73395,-6.31534 -6.83361,-9.7459 -7.72725,-16.73717c-0.56133,-4.39127 1.58916,-8.29102 0.9303,-12.49329c0,0 -0.36063,-2.74211 2.3815,-3.10268c1.08651,-0.14288 1.79914,0.20139 2.26355,0.66916c0.35502,-0.01835 0.67686,0.04691 0.96118,0.15704c10.16512,-1.62534 14.88729,9.06138 16.85175,17.2612c1.28751,5.37415 5.16262,8.7778 7.92097,13.18744c3.78614,6.05271 3.3303,12.39011 5.49657,18.7594c2.69293,6.02773 9.3488,11.74784 10.41431,18.32246c0.44914,2.7715 -0.76293,5.96409 -0.25541,8.86061c0.74159,4.23211 3.38913,8.14053 4.29211,12.43965c1.22358,5.82554 0.84728,11.32163 3.38075,16.86658l0.61335,1.36536c0,0 0.97662,2.17404 -0.9015,3.39237c0.05956,0.35766 0.11399,0.72158 0.16289,1.0924l0.27141,0.31956c0,0 1.13331,2.52283 -1.38953,3.65613zM264.74432,327.90733c-3.20934,-7.14428 -5.05281,-15.05108 -8.5446,-21.95015c-2.65196,-5.23977 -7.26185,-8.1552 -9.68185,-13.50964c-1.92381,-4.2566 -2.2154,-8.5971 -3.43328,-12.79069c-0.3215,2.56598 -0.47961,5.14478 0.39648,7.9108c1.42507,4.49924 5.44856,7.42615 6.76248,12.15936c0.91061,3.28036 -0.37744,9.67007 1.96372,12.4952c3.81527,4.60399 8.18173,7.3366 10.18841,13.26253c0.04686,14.84337 6.8119,21.04494 14.72142,32.67847c0.2674,0.39332 0.52303,0.79789 0.7692,1.21165c-4.10315,-10.6257 -8.41391,-20.94233 -13.14205,-31.46754zM252.7216,292.83036c2.42766,3.91604 6.21546,6.22865 8.41591,10.63389c3.50864,7.02415 5.39987,14.93583 8.6525,22.17645c3.81178,8.48535 7.35956,16.8445 10.74385,25.33458c-0.56226,-4.45665 -1.03019,-8.82731 -1.5837,-12.89203c-0.7559,-5.55116 -7.74368,-11.89393 -10.09161,-17.09777c-1.31238,-3.97884 -0.90152,-8.19323 -2.44911,-12.02687c-3.49646,-8.66136 -9.14064,-14.58097 -11.3338,-23.88228c-0.72851,-3.08971 -4.25916,-8.63854 -7.80469,-9.84612c2.1207,5.85352 2.05622,12.12469 5.45068,17.60021z" fill="#111111" stroke-width="0.5"/><path d="M290.65151,390.07058l-52.80743,-117.60047l7.036,-3.15848l52.80747,117.60049z" fill="url(#color-18)" stroke-width="0"/><path d="M290.63331,344.94914l-27.13545,-60.43852l7.03582,-3.15895l27.13539,60.43855z" fill="url(#color-19)" stroke-width="0"/><path d="M257.08567,359.53863l-27.13543,-60.43856l7.03578,-3.15898l27.13547,60.43858z" fill="url(#color-20)" stroke-width="0"/><path d="M246.89713,347.72115l-3.63302,-8.09112l47.74999,-21.43693l3.63302,8.09112z" fill="url(#color-21)" stroke-width="0"/><path d="M236.15554,323.80946l-3.63302,-8.09112l47.74999,-21.43693l3.63302,8.09112z" fill="url(#color-22)" stroke-width="0"/><path d="M228.12347,302.21079l6.46774,-12.6285l25.99328,-11.66526l12.90893,3.92417z" fill="url(#color-23)" stroke-width="0"/><path d="M261.68405,365.0762l-7.34332,-6.42438l43.98748,-19.74866l-0.28367,9.85056z" fill="url(#color-24)" stroke-width="0"/><path d="M237.19375,261.24348c4.44542,-1.99592 9.71614,0.099 11.77248,4.67914c2.05636,4.5801 0.11972,9.911 -4.3257,11.90692c-4.44542,1.99592 -9.71617,-0.099 -11.77251,-4.67913c-2.05636,-4.5801 -0.11971,-9.91105 4.32577,-11.90692z" fill="url(#color-25)" stroke-width="0"/><path d="M230.67954,329.20972c-17.05503,-37.96596 -6.19553,-50.50578 10.73299,-58.11039c16.92853,-7.60462 33.51563,-7.39429 50.57064,30.57164c11.5108,25.62403 15.29937,50.78174 11.34167,66.76835c-1.90627,7.69997 -23.86481,17.18911 -31.25373,13.05809c-14.32298,-8.00778 -30.14072,-27.24217 -41.39163,-52.28766z" fill="url(#color-26)" stroke-width="0"/></g><g data-paper-data="{&quot;index&quot;:null}" fill-rule="nonzero" stroke="none"><path d="M36.01357,326.21576c-10.42879,25.39881 -25.61136,45.13846 -39.66578,53.6087c-7.25038,4.3696 -29.50649,-4.39895 -31.66265,-12.03271c-4.47655,-15.84914 -1.50978,-41.11695 9.15992,-67.10247c15.80879,-38.50153 32.38023,-39.25225 49.54756,-32.20332c17.16733,7.04894 28.42969,19.22822 12.62089,57.72978z" fill="#6f6f6f" stroke-width="0"/><path d="M-22.04692,384.21691c-2.55842,-1.05049 -1.50793,-3.60891 -1.50793,-3.60891l0.26085,-0.32823c0.03676,-0.37223 0.07932,-0.73773 0.1272,-1.09713c-1.91682,-1.1565 -1.01157,-3.36119 -1.01157,-3.36119l0.56853,-1.38463c2.35144,-5.62456 1.79624,-11.1055 2.82934,-16.96778c0.76239,-4.32623 3.28117,-8.31885 3.88447,-12.5729c0.41289,-2.9115 -0.90257,-6.0629 -0.54402,-8.84755c0.85071,-6.60586 7.31662,-12.53983 9.81172,-18.6521c1.95757,-6.43649 1.29545,-12.75565 4.88235,-18.92851c2.61317,-4.49719 6.37532,-8.02534 7.48705,-13.43857c1.69625,-8.25946 6.06766,-19.09438 16.28031,-17.80114c0.28059,-0.11937 0.60014,-0.19508 0.95555,-0.18828c0.44892,-0.48265 1.14995,-0.84995 2.24054,-0.74256c2.7524,0.27101 2.48135,3.02343 2.48135,3.02343c-0.52157,4.22151 1.75485,8.0491 1.33691,12.45633c-0.66536,7.01667 -5.65053,10.61159 -7.17774,16.98009c-0.84038,3.50446 0.10342,7.16804 -0.81539,10.64849c-1.62261,6.14647 -8.64426,8.88975 -10.36258,14.81823c0.70764,15.47523 -6.75737,23.33312 -14.55013,35.5361c-3.62871,5.68228 -5.00564,12.35048 -9.49382,17.45609l-3.11791,1.3787c-0.12804,0.71627 -0.2318,1.45641 -0.30742,2.22695l-0.64876,1.88717c0,0 -1.05049,2.55842 -3.60894,1.50792zM1.92444,326.02402c-4.38264,10.6737 -8.3549,21.12533 -12.10966,31.87908c0.23255,-0.42156 0.47487,-0.83423 0.72931,-1.23607c7.52622,-11.88506 14.08557,-18.30379 13.64871,-33.1408c1.81251,-5.98818 6.08761,-8.86162 9.75082,-13.58748c2.24785,-2.89992 0.75227,-9.24426 1.5555,-12.55255c1.15898,-4.77348 5.08497,-7.82998 6.36266,-12.37327c0.78549,-2.79312 0.54343,-5.36538 0.13848,-7.91952c-1.0806,4.23103 -1.23056,8.57875 -3.01465,12.89577c-2.24422,5.43042 -6.75668,8.49455 -9.23649,13.81796c-3.26511,7.00918 -4.84993,14.97183 -7.82478,22.21692zM12.79769,290.57398c3.21423,-5.58322 2.94542,-11.84894 4.87425,-17.76846c-3.5043,1.3225 -6.85226,6.98341 -7.47969,10.09521c-1.8889,9.36783 -7.33719,15.46822 -10.54955,24.23892c-1.42185,3.88203 -0.87388,8.0808 -2.05591,12.10029c-2.17708,5.27761 -8.9545,11.84474 -9.5291,17.41755c-0.42073,4.0806 -0.74603,8.46418 -1.16276,12.93679c3.10584,-8.59585 6.37935,-17.0662 9.91259,-25.67122c3.01497,-7.3428 4.64737,-15.31186 7.92526,-22.44662c2.05574,-4.4746 5.76614,-6.90939 8.06491,-10.90245z" fill="#111111" stroke-width="0.5"/><path d="M-29.07858,386.07098l48.94725,-119.2588l7.1352,2.9275l-48.94724,119.25884z" fill="url(#color-27)" stroke-width="0"/><path d="M-30.53049,340.97249l25.15151,-61.29068l7.13503,2.92801l-25.15156,61.29066z" fill="url(#color-28)" stroke-width="0"/><path d="M3.47471,354.46096l25.15159,-61.29072l7.13498,2.92802l-25.15154,61.29068z" fill="url(#color-29)" stroke-width="0"/><path d="M-28.01539,325.37619l3.36742,-8.20521l48.42319,19.86955l-3.36742,8.20518z" fill="url(#color-30)" stroke-width="0"/><path d="M-18.05871,301.12716l3.36742,-8.20521l48.42319,19.86955l-3.36742,8.20521z" fill="url(#color-31)" stroke-width="0"/><path d="M-8.32116,280.26744l12.7742,-4.34274l26.3596,10.81204l6.87583,12.41104z" fill="url(#color-32)" stroke-width="0"/><path d="M-30.67882,347.94447l-0.60452,-9.83609l44.60767,18.30479l-7.13006,6.66023z" fill="url(#color-33)" stroke-width="0"/><path d="M27.28799,258.49781c4.50815,1.84995 6.61748,7.11496 4.71147,11.75964c-1.90601,4.64474 -7.10568,6.91027 -11.61379,5.0603c-4.50811,-1.84998 -6.61741,-7.11497 -4.71141,-11.75964c1.90601,-4.64474 7.10565,-6.91028 11.61376,-5.06031z" fill="url(#color-34)" stroke-width="0"/><path d="M36.01357,326.21576c-10.42879,25.39881 -25.61136,45.13846 -39.66578,53.6087c-7.25038,4.3696 -29.50649,-4.39895 -31.66265,-12.03271c-4.47655,-15.84914 -1.50978,-41.11695 9.15992,-67.10247c15.80879,-38.50153 32.38023,-39.25225 49.54756,-32.20332c17.16733,7.04894 28.42969,19.22822 12.62089,57.72978z" fill="url(#color-35)" stroke-width="0"/></g><g fill-rule="nonzero" stroke="none" stroke-width="0"><g><path d="M234.57031,218.05409c26.97552,0 48.84352,22.03492 48.84352,49.21637c0,27.18146 -21.868,49.21637 -48.84352,49.21637c-8.81224,0 -17.07942,-2.3515 -24.21726,-6.46572c0.07591,-0.29411 0.15105,-0.59009 0.2255,-0.88792c3.27829,-13.11309 1.80535,-47.10272 -4.74162,-58.74162c-0.65007,-1.15566 -1.43273,-2.17951 -2.32173,-3.09783c-2.46309,-3.24649 -5.57577,-5.97308 -9.14446,-7.98612c8.81412,-12.84109 23.53187,-21.25354 40.1996,-21.25354z" fill="url(#color-36)"/><path d="M27.5849,218.05409c16.752,0 31.53427,8.49776 40.33285,21.44864c-3.39679,2.0321 -6.69578,5.23468 -9.9202,9.98072c-0.76449,1.1253 -1.34516,2.33655 -1.80749,3.60332c-1.92734,3.94709 -3.00897,8.38277 -3.00897,13.07109c0,1.70077 0.14234,3.36825 0.41577,4.99126c-4.7242,14.17256 -2.81118,24.24816 1.21523,36.98786c-7.77938,5.2728 -17.14663,8.34984 -27.22712,8.34984c-26.97555,0 -48.84352,-22.03492 -48.84352,-49.21637c0,-27.18146 21.86797,-49.21637 48.84352,-49.21637z" fill="url(#color-37)"/><path d="M47.02644,276.27192c0,-84.34051 170.02019,-84.34051 170.02019,0c0,7.33977 -2.71853,33.15564 -10.38388,59.34274c-8.97999,30.67829 -23.21718,63.8546 -24.84031,66.44273c-13.99317,18.1918 -82.89239,17.31071 -96.2464,1.62557c-0.88527,-2.07189 -16.87122,-35.88956 -27.20905,-68.74966c-8.21108,-26.10004 -11.34056,-51.2823 -11.34056,-58.66132zM129.91501,405.35391c16.06172,-0.21148 40.88801,-2.67943 46.58816,-12.47713c15.652,-26.60509 35.22353,-115.17639 32.7546,-117.31775c-1.19312,-40.33607 -57.50008,-51.9009 -78.74619,-51.9009c-21.24611,0 -70.22389,12.41705 -73.2067,47.38409c-0.88873,10.41839 21.47009,104.93786 34.16332,124.41869c1.19984,1.44541 22.3851,10.10448 38.44681,9.893z" fill="url(#color-38)"/></g><g fill="url(#color-39)"><path d="M210.29199,279.41527c-0.93076,23.4885 -26.4887,107.1506 -32.63183,115.42023c-12.84007,16.6927 -76.06169,15.88421 -88.31529,1.49161c-9.67662,-16.97049 -32.09316,-110.14081 -32.09316,-116.91179c0,0 -10.52529,-33.37816 35.26526,-49.92297c11.08878,-4.00654 23.9284,-8.37955 38.12178,-8.62847c14.83557,-0.26019 32.39782,4.70771 45.77647,10.66417c41.421,18.44149 33.89469,47.43423 33.87676,47.8872z"/></g></g><g fill-rule="nonzero" stroke-width="0"><g stroke="#000000"><path d="M128.86653,248.44913c-53.98734,-17.94063 -107.56774,-80.89339 -99.64847,-109.26814c2.18152,-7.81639 23.13076,-9.56702 53.24753,-6.56678c20.13234,2.00559 120.72089,24.40631 139.31604,30.90988c25.5699,8.94305 40.63878,18.35272 37.53864,28.61103c-8.3654,27.68092 -76.75564,65.79428 -130.45375,56.31402z" fill="url(#color-40)"/><path d="M134.76484,218.18406c-58.97956,-18.61867 -76.14423,-57.16641 -70.54988,-77.20325c1.54108,-5.51953 16.36459,-6.7489 37.67683,-4.61993c14.24674,1.42317 85.43278,17.27721 98.59327,21.87654c18.09679,6.32453 28.76297,12.9751 26.57268,20.21891c-5.91027,19.54668 -30.86697,51.83193 -92.29294,39.72773z" fill="url(#color-41)"/></g><g stroke="none"><path d="M107.14419,165.18241l14.66576,-63.7274l3.51889,0.80981l-14.66576,63.7274z" fill="url(#color-42)"/><path d="M174.41645,180.66396l14.66576,-63.7274l3.51889,0.80981l-14.66576,63.7274z" fill="url(#color-43)"/><g data-paper-data="{&quot;index&quot;:null}"><path d="M121.76395,157.59763l-1.74629,7.58819l-9.73564,-2.24048l1.74629,-7.58819z" fill="url(#color-44)"/><path d="M143.90047,162.69196l-1.74629,7.58819l-9.73564,-2.24048l1.74629,-7.58819z" fill="url(#color-45)"/><path d="M166.03717,167.78635l-1.74629,7.58819l-9.73564,-2.24048l1.74629,-7.58819z" fill="url(#color-46)"/><path d="M132.94404,160.17053l-1.74629,7.58819l-9.73564,-2.24048l1.74629,-7.58819z" fill="url(#color-47)"/><path d="M155.0806,165.26488l-1.74629,7.58819l-9.73564,-2.24048l1.74629,-7.58819z" fill="url(#color-48)"/><path d="M177.21729,170.35926l-1.74629,7.58819l-9.73564,-2.24048l1.74629,-7.58819z" fill="url(#color-49)"/><path d="M178.97428,175.00161l-1.90067,8.259l-69.88465,-16.08274l1.90067,-8.259z" fill="url(#color-50)"/></g></g></g><path d="M236.8603,78.45759c32.18158,23.99389 33.24379,55.83888 28.08864,86.90907c-1.91046,11.51433 -19.69287,13.89581 -46.65956,11.02224c-9.69926,-1.03358 -40.05293,-17.09927 -69.6084,-24.14263c-30.20277,-7.19762 -59.61313,-5.40295 -69.18187,-9.05189c-28.32172,-10.80027 -46.26976,-22.09078 -44.65242,-30.78169c5.87125,-31.54947 24.21128,-58.81832 64.70649,-65.81755c-0.3107,0.71328 46.60232,-2.84643 74.36993,3.7587c26.14445,6.21901 62.90636,28.83305 62.93721,28.10379z" fill="#6f6f6f" fill-rule="nonzero" stroke="#000000" stroke-width="0"/><g fill-rule="nonzero" stroke="none" stroke-width="0"><path d="M81.45457,72.68541l9.3864,-40.78688l1.48316,0.34132l-9.3864,40.78688z" fill="url(#color-51)"/><g><path d="M115.02861,91.71256l10.64648,-46.26233l9.00957,2.07339l-10.64648,46.26233z" fill="url(#color-52)"/><path d="M109.31056,141.6375l11.91561,-51.77711l9.00957,2.07339l-11.91561,51.77711z" fill="url(#color-53)"/><path d="M176.53697,157.10849l11.91561,-51.77711l9.00957,2.07339l-11.91561,51.77711z" data-paper-data="{&quot;index&quot;:null}" fill="url(#color-54)"/><path d="M192.52366,109.54671l10.64648,-46.26233l9.00957,2.07339l-10.64648,46.26233z" fill="url(#color-55)"/><path d="M239.03998,108.95097l9.3864,-40.78688l1.48316,0.34132l-9.3864,40.78688z" fill="url(#color-56)"/><path d="M78.71775,74.39814l1.70662,-7.41582l19.65185,4.52253l-1.70662,7.41582z" fill="url(#color-57)"/><path d="M222.15927,107.40873l1.70662,-7.41582l19.65185,4.52253l-1.70662,7.41582z" data-paper-data="{&quot;index&quot;:null}" fill="url(#color-58)"/><path d="M88.93109,81.51627l3.79066,-16.47161l9.42225,2.16837l3.10661,4.82653l-2.89203,12.5668z" fill="url(#color-59)"/><path d="M216.08608,110.7788l2.89203,-12.5668l4.90385,-2.98306l9.42225,2.16837l-3.79066,16.47161z" data-paper-data="{&quot;index&quot;:null}" fill="url(#color-60)"/><path d="M87.72817,85.42983l1.25288,-5.4442l140.76646,32.39497l-1.25288,5.4442z" fill="url(#color-61)"/><path d="M87.50682,36.20679l2.30394,-10.01136l163.51829,37.63092l-2.30394,10.01136z" fill="url(#color-62)"/><g><path d="M141.83732,0.76961c21.18375,4.87507 34.55535,25.34448 29.86635,45.71967c-4.68899,20.37519 -25.66298,32.94055 -46.84673,28.06547c-21.18375,-4.87507 -34.55535,-25.34448 -29.86635,-45.71967c4.68899,-20.37519 25.66301,-32.94054 46.84673,-28.06547z" fill="url(#color-63)"/><path d="M150.01244,18.83346c6.30663,1.45136 10.28745,7.54527 8.89149,13.61119c-1.39596,6.06588 -7.64011,9.80672 -13.94671,8.35537c-6.30663,-1.45136 -10.28745,-7.5453 -8.89149,-13.61119c1.39596,-6.06588 7.64008,-9.80673 13.94671,-8.35537z" fill="url(#color-64)"/></g><g><path d="M218.11847,18.32439c21.18372,4.87507 34.55535,25.34448 29.86635,45.71967c-4.68899,20.37519 -25.66298,32.94055 -46.84673,28.06547c-21.18375,-4.87507 -34.55532,-25.34448 -29.86632,-45.71966c4.68899,-20.37519 25.66298,-32.94055 46.8467,-28.06549z" fill="url(#color-65)"/><path d="M226.29328,36.38818c6.3066,1.45136 10.28745,7.54527 8.89149,13.61119c-1.39596,6.06588 -7.64008,9.80673 -13.94671,8.35537c-6.30663,-1.45136 -10.28748,-7.54531 -8.89152,-13.61119c1.39596,-6.06588 7.64011,-9.80672 13.94674,-8.35536z" fill="url(#color-66)"/></g><g><path d="M133.99896,1.38584c28.77509,1.97476 33.49395,12.41782 39.57459,27.61508c2.20139,5.5019 -18.96034,-5.942 -40.94868,-7.15064c-22.33725,-1.22785 -45.01354,8.22755 -40.30618,1.90495c8.55704,-11.4932 11.69243,-24.42737 41.68027,-22.36938z" fill="url(#color-67)"/><path d="M133.07857,17.44531c28.77509,1.97476 37.77259,8.52217 40.32315,12.30253c3.31435,4.91242 -18.84292,-4.79754 -40.83126,-6.00618c-22.33725,-1.22785 -44.95907,6.33618 -40.25171,0.01359c2.66572,-2.2445 10.77197,-8.36792 40.75982,-6.30993z" fill="url(#color-68)"/></g><g><path d="M223.14726,20.898c26.63831,11.05917 27.77573,22.46232 28.68564,38.80557c0.32943,5.91679 -16.07058,-11.68491 -36.52204,-19.8511c-20.77595,-8.29577 -45.28436,-6.57579 -38.80461,-11.0644c11.77887,-8.15938 18.87999,-19.41536 46.64098,-7.89008z" fill="url(#color-69)"/><path d="M217.14731,35.8229c26.63831,11.05914 33.07427,20.13673 34.28428,24.53362c1.57233,5.71355 -16.32475,-10.5629 -36.77618,-18.72906c-20.77595,-8.29577 -44.62882,-8.35075 -38.14907,-12.83935c3.24283,-1.27588 12.87996,-4.49048 40.64098,7.0348z" fill="url(#color-70)"/></g><g><path d="M118.76752,124.71362l1.74629,-7.58819l9.73564,2.24048l-1.74629,7.58819z" fill="url(#color-71)"/><path d="M140.9042,129.80799l1.74629,-7.58819l9.73564,2.24048l-1.74629,7.58819z" fill="url(#color-72)"/><path d="M163.04086,134.90236l1.74629,-7.58819l9.73564,2.24048l-1.74629,7.58819z" fill="url(#color-73)"/><path d="M129.94763,127.28653l1.74629,-7.58819l9.73564,2.24048l-1.74629,7.58819z" fill="url(#color-74)"/><path d="M152.08435,132.38092l1.74629,-7.58819l9.73564,2.24048l-1.74629,7.58819z" fill="url(#color-75)"/><path d="M174.22099,137.47528l1.74629,-7.58819l9.73564,2.24048l-1.74629,7.58819z" fill="url(#color-76)"/><path d="M117.68146,120.2257l1.90067,-8.259l69.88465,16.08274l-1.90067,8.259z" fill="url(#color-77)"/></g></g></g><g><g fill-rule="nonzero" stroke="#000000" stroke-width="0"><path d="M24.17173,123.32339c-56.13036,4.89528 -62.45792,-35.6454 -62.45792,-35.6454c0,0 5.37586,16.07456 61.50623,11.17925c15.73678,-1.37244 34.25599,-3.99022 33.80581,6.63228c-0.41553,9.80492 -13.43888,16.14062 -32.85408,17.83386z" data-paper-data="{&quot;index&quot;:null}" fill="url(#color-78)"/><path d="M267.31775,179.27926c-16.72198,-10.00959 -25.6658,-21.40066 -21.75367,-30.4009c4.23836,-9.75072 19.75035,0.69876 33.3042,8.81194c48.34415,28.93832 60.20567,16.83064 60.20567,16.83064c0,0 -23.41201,33.69663 -71.75614,4.75836z" data-paper-data="{&quot;index&quot;:null}" fill="url(#color-79)"/><path d="M24.82538,107.50825c-55.35523,-2.93801 -57.56042,-44.72297 -57.56042,-44.72297c0,0 3.67719,16.97021 59.03243,19.90819c15.51949,0.8237 33.88141,0.78158 32.39821,11.43435c-1.36904,9.83283 -14.72309,14.39672 -33.87017,13.38053z" data-paper-data="{&quot;index&quot;:null}" fill="url(#color-80)"/><path d="M273.64288,164.76939c-17.66518,-7.45552 -27.68096,-17.39757 -24.61418,-26.83969c3.32248,-10.22948 19.81889,-2.1653 34.13725,3.87764c51.07108,21.55417 61.79629,7.89846 61.79629,7.89846c0,0 -20.24821,36.61769 -71.31925,15.06354z" data-paper-data="{&quot;index&quot;:null}" fill="url(#color-81)"/><path d="M27.32096,91.23454c-53.80522,-10.82535 -51.80766,-53.29177 -51.80766,-53.29177c0,0 1.90712,17.64196 55.71232,28.46738c15.08493,3.03504 33.03369,5.60026 30.52555,16.13622c-2.31512,9.72505 -15.81924,12.43269 -34.43018,8.68828z" data-paper-data="{&quot;index&quot;:null}" fill="url(#color-82)"/><path d="M278.51181,149.04185c-18.37551,-4.76738 -29.33765,-13.10548 -27.1689,-22.86424c2.34959,-10.57245 19.61414,-5.03394 34.50823,-1.16981c53.12465,13.78265 62.5515,-1.251 62.5515,-1.251c0,0 -16.76611,39.06769 -69.89074,25.28499z" data-paper-data="{&quot;index&quot;:null}" fill="url(#color-83)"/><path d="M30.87612,78.47323c-50.38541,-21.58767 -42.56526,-64.01501 -42.56526,-64.01501c0,0 -0.60932,18.16855 49.77603,39.75624c14.12613,6.05233 31.07925,12.19896 27.19823,22.32611c-3.5823,9.34766 -16.98101,9.3998 -34.40902,1.93275z" data-paper-data="{&quot;index&quot;:null}" fill="url(#color-84)"/><path d="M280.89252,136.01028c-18.93883,-0.90219 -30.96692,-6.80582 -30.10285,-16.77904c0.93612,-10.80487 18.87067,-8.92269 34.22135,-8.19145c54.75316,2.60813 62.14689,-13.99911 62.14689,-13.99911c0,0 -11.5122,41.57768 -66.2654,38.96952z" data-paper-data="{&quot;index&quot;:null}" fill="url(#color-85)"/><path d="M42.93377,66.88866c-45.22835,-27.67872 -33.8957,-67.69197 -33.8957,-67.69197c0,0 -2.2833,17.50362 42.94505,45.18234c12.68029,7.76003 28.00349,15.99195 23.4089,25.27165c-4.24095,8.56547 -16.814,6.81196 -32.45825,-2.76196z" data-paper-data="{&quot;index&quot;:null}" fill="url(#color-86)"/><path d="M275.11157,120.32043c-18.25542,1.77249 -30.33021,-2.14627 -30.40045,-11.70389c-0.0761,-10.35459 17.30397,-11.06041 32.10072,-12.49707c52.77742,-5.12438 58.37491,-21.8653 58.37491,-21.8653c0,0 -7.29775,40.94181 -60.0752,46.06619z" data-paper-data="{&quot;index&quot;:null}" fill="url(#color-87)"/><path d="M57.09728,55.22367c-37.09095,-30.7342 -23.62212,-65.41507 -23.62212,-65.41507c0,0 -3.55333,15.51084 33.53761,46.24497c10.39888,8.61667 23.06699,17.99518 18.2238,25.78832c-4.47045,7.19331 -15.30972,4.01255 -28.13929,-6.61823z" data-paper-data="{&quot;index&quot;:null}" fill="url(#color-88)"/><path d="M267.47179,103.63774c-16.18584,3.95338 -27.32513,2.07617 -28.20157,-6.34765c-0.94951,-9.12627 14.54377,-12.02389 27.66306,-15.22825c46.79416,-11.42946 50.3783,-26.93318 50.3783,-26.93318c0,0 -3.04559,37.07961 -49.83979,48.50908z" data-paper-data="{&quot;index&quot;:null}" fill="url(#color-89)"/><path d="M239.68746,80.51359c29.24392,23.7034 30.25131,54.77872 25.26139,84.85304c-1.91046,11.51433 -19.69287,13.89581 -46.65956,11.02224c-3.54205,-0.37745 -22.93093,-0.53115 -30.93724,-3.74651c-13.91747,-5.58936 -19.10298,-12.59454 -37.86515,-17.06574c-15.11338,-3.60168 -25.73789,-0.81946 -38.06763,-1.72663c-12.31011,-0.90571 -27.13972,-8.83264 -31.92026,-10.65564c-28.32172,-10.80027 -46.26976,-22.09078 -44.65242,-30.78169c5.73745,-30.83058 23.38195,-57.5734 61.97269,-65.30771c1.86421,11.64067 10.26989,26.6351 37.25534,27.92871c27.91807,1.33834 35.03296,-25.6328 36.86422,-25.33689c0.52968,0.0856 -0.59748,28.65264 19.41189,37.30343c34.5474,14.9361 48.36839,-7.2715 49.33675,-6.4866z" fill="url(#color-90)"/><path d="M163.25197,80.68252c13.40287,3.08444 22.48204,13.34573 20.27887,22.91922c-2.20317,9.57346 -14.85437,14.83389 -28.25726,11.74945c-13.40287,-3.08444 -22.48201,-13.34572 -20.27884,-22.91919c2.20317,-9.57346 14.85438,-14.83392 28.25724,-11.74948z" fill="url(#color-91)"/></g><g><g><path d="M99.61476,80.44033c0.38699,3.38203 0.07053,6.80708 -0.92865,10.05208c-5.7264,0.47967 -12.18607,-5.36282 -12.18607,-5.36282l-0.59738,-7.13132c0,0 5.39766,-6.83574 11.12403,-7.31545c1.52514,3.03354 2.407,6.35821 2.58804,9.75748z" fill="url(#color-92)" fill-rule="evenodd" stroke="#149948" stroke-width="0"/><g fill="none" fill-rule="nonzero" stroke="none" stroke-width="1" font-family="sans-serif" font-weight="normal" font-size="12" text-anchor="start"/></g><g><path d="M64.50267,73.40727c5.7264,-0.47967 12.18607,5.36282 12.18607,5.36282l0.59738,7.13132c0,0 -5.39766,6.83574 -11.12403,7.31545c-1.52514,-3.03354 -2.407,-6.35821 -2.58804,-9.75748c-0.38699,-3.38203 -0.07053,-6.80708 0.92865,-10.05208z" fill="url(#color-93)" fill-rule="evenodd" stroke="#149948" stroke-width="0"/><g fill="none" fill-rule="nonzero" stroke="none" stroke-width="1" font-family="sans-serif" font-weight="normal" font-size="12" text-anchor="start"/></g><path d="M76.45764,87.02418l-0.77261,-9.22329c0,0 4.01676,-0.72302 5.43497,-0.84183c1.41385,-0.11844 5.47312,-0.07193 5.47312,-0.07193l0.77261,9.22329c0,0 -4.15518,0.81194 -5.55592,0.92927c-1.4307,0.11986 -5.3522,-0.01552 -5.3522,-0.01552z" fill="url(#color-94)" fill-rule="evenodd" stroke="#149948" stroke-width="0"/></g><g data-paper-data="{&quot;index&quot;:null}"><g><path d="M228.15466,100.85967c4.94068,2.93451 6.80732,11.44203 6.80732,11.44203l-3.6545,6.15282c0,0 -8.3637,2.43116 -13.30438,-0.50337c0.51978,-3.35532 1.73227,-6.57417 3.55869,-9.44682c1.64873,-2.97819 3.89514,-5.58293 6.59284,-7.64466z" fill="url(#color-95)" fill-rule="evenodd" stroke="#149948" stroke-width="0"/><g fill="none" fill-rule="nonzero" stroke="none" stroke-width="1" font-family="sans-serif" font-weight="normal" font-size="12" text-anchor="start"/></g><g><path d="M252.65738,126.97363c-1.64873,2.97819 -3.89514,5.58293 -6.59284,7.64466c-4.94068,-2.93451 -6.80732,-11.44203 -6.80732,-11.44203l3.6545,-6.15282c0,0 8.3637,-2.43116 13.30438,0.50337c-0.51978,3.35532 -1.73227,6.57417 -3.55869,9.44682z" fill="url(#color-96)" fill-rule="evenodd" stroke="#149948" stroke-width="0"/><g fill="none" fill-rule="nonzero" stroke="none" stroke-width="1" font-family="sans-serif" font-weight="normal" font-size="12" text-anchor="start"/></g><path d="M234.69097,122.22264c-1.20854,-0.71781 -4.59083,-3.26436 -4.59083,-3.26436l4.72653,-7.95776c0,0 3.67126,1.73253 4.89112,2.45708c1.22362,0.72678 4.52027,3.13286 4.52027,3.13286l-4.72653,7.95776c0,0 -3.5862,-1.59239 -4.82059,-2.32558z" fill="url(#color-97)" fill-rule="evenodd" stroke="#149948" stroke-width="0"/></g></g></g></g></svg>