<svg version="1.1" xmlns="http://www.w3.org/2000/svg" xmlns:xlink="http://www.w3.org/1999/xlink" width="416.53" height="229.17561" viewBox="0,0,416.53,229.17561"><defs><linearGradient x1="226.13584" y1="217.5485" x2="228.64977" y2="217.577" gradientUnits="userSpaceOnUse" id="color-1"><stop offset="0" stop-color="#b1b1b1"/><stop offset="1" stop-color="#dedede"/></linearGradient><radialGradient cx="227.19909" cy="231.99922" r="2.58002" gradientUnits="userSpaceOnUse" id="color-2"><stop offset="0" stop-color="#858585"/><stop offset="1" stop-color="#474747"/></radialGradient><linearGradient x1="222.59283" y1="226.85819" x2="231.78437" y2="226.96241" gradientUnits="userSpaceOnUse" id="color-3"><stop offset="0" stop-color="#b1b1b1"/><stop offset="1" stop-color="#dedede"/></linearGradient><linearGradient x1="222.67407" y1="209.29864" x2="231.86561" y2="209.40288" gradientUnits="userSpaceOnUse" id="color-4"><stop offset="0" stop-color="#b1b1b1"/><stop offset="1" stop-color="#dedede"/></linearGradient><linearGradient x1="222.69439" y1="217.90233" x2="231.88592" y2="218.00655" gradientUnits="userSpaceOnUse" id="color-5"><stop offset="0" stop-color="#b1b1b1"/><stop offset="1" stop-color="#dedede"/></linearGradient><linearGradient x1="255.84075" y1="217.5485" x2="253.32683" y2="217.577" gradientUnits="userSpaceOnUse" id="color-6"><stop offset="0" stop-color="#b1b1b1"/><stop offset="1" stop-color="#dedede"/></linearGradient><radialGradient cx="254.7775" cy="231.99922" r="2.58002" gradientUnits="userSpaceOnUse" id="color-7"><stop offset="0" stop-color="#858585"/><stop offset="1" stop-color="#474747"/></radialGradient><linearGradient x1="259.38377" y1="226.85819" x2="250.19223" y2="226.96241" gradientUnits="userSpaceOnUse" id="color-8"><stop offset="0" stop-color="#b1b1b1"/><stop offset="1" stop-color="#dedede"/></linearGradient><linearGradient x1="259.30252" y1="209.29864" x2="250.11098" y2="209.40288" gradientUnits="userSpaceOnUse" id="color-9"><stop offset="0" stop-color="#b1b1b1"/><stop offset="1" stop-color="#dedede"/></linearGradient><linearGradient x1="259.28221" y1="217.90233" x2="250.09068" y2="218.00655" gradientUnits="userSpaceOnUse" id="color-10"><stop offset="0" stop-color="#b1b1b1"/><stop offset="1" stop-color="#dedede"/></linearGradient><linearGradient x1="226.95583" y1="188.44857" x2="229.46686" y2="188.5724" gradientUnits="userSpaceOnUse" id="color-11"><stop offset="0" stop-color="#b1b1b1"/><stop offset="1" stop-color="#dedede"/></linearGradient><radialGradient cx="227.47023" cy="202.92922" r="2.58002" gradientUnits="userSpaceOnUse" id="color-12"><stop offset="0" stop-color="#858585"/><stop offset="1" stop-color="#474747"/></radialGradient><linearGradient x1="223.06227" y1="197.61718" x2="232.24324" y2="198.06993" gradientUnits="userSpaceOnUse" id="color-13"><stop offset="0" stop-color="#b1b1b1"/><stop offset="1" stop-color="#dedede"/></linearGradient><linearGradient x1="223.80945" y1="180.07336" x2="232.99042" y2="180.52613" gradientUnits="userSpaceOnUse" id="color-14"><stop offset="0" stop-color="#b1b1b1"/><stop offset="1" stop-color="#dedede"/></linearGradient><linearGradient x1="223.50343" y1="188.67161" x2="232.68439" y2="189.12437" gradientUnits="userSpaceOnUse" id="color-15"><stop offset="0" stop-color="#b1b1b1"/><stop offset="1" stop-color="#dedede"/></linearGradient><linearGradient x1="255.02077" y1="188.44857" x2="252.50973" y2="188.5724" gradientUnits="userSpaceOnUse" id="color-16"><stop offset="0" stop-color="#b1b1b1"/><stop offset="1" stop-color="#dedede"/></linearGradient><radialGradient cx="254.50636" cy="202.92922" r="2.58002" gradientUnits="userSpaceOnUse" id="color-17"><stop offset="0" stop-color="#858585"/><stop offset="1" stop-color="#474747"/></radialGradient><linearGradient x1="258.91432" y1="197.61718" x2="249.73335" y2="198.06993" gradientUnits="userSpaceOnUse" id="color-18"><stop offset="0" stop-color="#b1b1b1"/><stop offset="1" stop-color="#dedede"/></linearGradient><linearGradient x1="258.16714" y1="180.07336" x2="248.98617" y2="180.52613" gradientUnits="userSpaceOnUse" id="color-19"><stop offset="0" stop-color="#b1b1b1"/><stop offset="1" stop-color="#dedede"/></linearGradient><linearGradient x1="258.47317" y1="188.67161" x2="249.2922" y2="189.12437" gradientUnits="userSpaceOnUse" id="color-20"><stop offset="0" stop-color="#b1b1b1"/><stop offset="1" stop-color="#dedede"/></linearGradient><linearGradient x1="274.28317" y1="126.36353" x2="272.01668" y2="127.45148" gradientUnits="userSpaceOnUse" id="color-21"><stop offset="0" stop-color="#b1b1b1"/><stop offset="1" stop-color="#dedede"/></linearGradient><radialGradient cx="279.42479" cy="139.9104" r="2.58002" gradientUnits="userSpaceOnUse" id="color-22"><stop offset="0" stop-color="#858585"/><stop offset="1" stop-color="#474747"/></radialGradient><linearGradient x1="281.42771" y1="133.30463" x2="273.14083" y2="137.28244" gradientUnits="userSpaceOnUse" id="color-23"><stop offset="0" stop-color="#b1b1b1"/><stop offset="1" stop-color="#dedede"/></linearGradient><linearGradient x1="273.93531" y1="117.42357" x2="265.64844" y2="121.4014" gradientUnits="userSpaceOnUse" id="color-24"><stop offset="0" stop-color="#b1b1b1"/><stop offset="1" stop-color="#dedede"/></linearGradient><linearGradient x1="277.55188" y1="125.23024" x2="269.26502" y2="129.20805" gradientUnits="userSpaceOnUse" id="color-25"><stop offset="0" stop-color="#b1b1b1"/><stop offset="1" stop-color="#dedede"/></linearGradient><linearGradient x1="182.02686" y1="90.06529" x2="184.38328" y2="89.18899" gradientUnits="userSpaceOnUse" id="color-26"><stop offset="0" stop-color="#b1b1b1"/><stop offset="1" stop-color="#dedede"/></linearGradient><radialGradient cx="178.14458" cy="76.10529" r="2.58002" gradientUnits="userSpaceOnUse" id="color-27"><stop offset="0" stop-color="#858585"/><stop offset="1" stop-color="#474747"/></radialGradient><linearGradient x1="175.54645" y1="82.50041" x2="184.16212" y2="79.29645" gradientUnits="userSpaceOnUse" id="color-28"><stop offset="0" stop-color="#b1b1b1"/><stop offset="1" stop-color="#dedede"/></linearGradient><linearGradient x1="181.55639" y1="98.99963" x2="190.17206" y2="95.79566" gradientUnits="userSpaceOnUse" id="color-29"><stop offset="0" stop-color="#b1b1b1"/><stop offset="1" stop-color="#dedede"/></linearGradient><linearGradient x1="178.66826" y1="90.89516" x2="187.28393" y2="87.6912" gradientUnits="userSpaceOnUse" id="color-30"><stop offset="0" stop-color="#b1b1b1"/><stop offset="1" stop-color="#dedede"/></linearGradient><linearGradient x1="200.93818" y1="108.62713" x2="201.81829" y2="106.27213" gradientUnits="userSpaceOnUse" id="color-31"><stop offset="0" stop-color="#b1b1b1"/><stop offset="1" stop-color="#dedede"/></linearGradient><radialGradient cx="187.84353" cy="102.4236" r="2.58002" gradientUnits="userSpaceOnUse" id="color-32"><stop offset="0" stop-color="#858585"/><stop offset="1" stop-color="#474747"/></radialGradient><linearGradient x1="190.97724" y1="108.57403" x2="194.19509" y2="99.96352" gradientUnits="userSpaceOnUse" id="color-33"><stop offset="0" stop-color="#b1b1b1"/><stop offset="1" stop-color="#dedede"/></linearGradient><linearGradient x1="207.38425" y1="114.83131" x2="210.60209" y2="106.22082" gradientUnits="userSpaceOnUse" id="color-34"><stop offset="0" stop-color="#b1b1b1"/><stop offset="1" stop-color="#dedede"/></linearGradient><linearGradient x1="199.36697" y1="111.70935" x2="202.5848" y2="103.09886" gradientUnits="userSpaceOnUse" id="color-35"><stop offset="0" stop-color="#b1b1b1"/><stop offset="1" stop-color="#dedede"/></linearGradient><linearGradient x1="239.17601" y1="100.125" x2="242.04894" y2="100.125" gradientUnits="userSpaceOnUse" id="color-36"><stop offset="0" stop-color="#b1b1b1"/><stop offset="1" stop-color="#dedede"/></linearGradient><linearGradient x1="225.1035" y1="131.0826" x2="256.10968" y2="131.0826" gradientUnits="userSpaceOnUse" id="color-37"><stop offset="0" stop-color="#b1b1b1"/><stop offset="1" stop-color="#dedede"/></linearGradient><linearGradient x1="226.51287" y1="131.09029" x2="228.34505" y2="131.09029" gradientUnits="userSpaceOnUse" id="color-38"><stop offset="0" stop-color="#858585"/><stop offset="1" stop-color="#474747"/></linearGradient><linearGradient x1="231.2831" y1="131.31072" x2="233.11529" y2="131.31072" gradientUnits="userSpaceOnUse" id="color-39"><stop offset="0" stop-color="#858585"/><stop offset="1" stop-color="#474747"/></linearGradient><linearGradient x1="247.93865" y1="131.15207" x2="249.77084" y2="131.15207" gradientUnits="userSpaceOnUse" id="color-40"><stop offset="0" stop-color="#858585"/><stop offset="1" stop-color="#474747"/></linearGradient><linearGradient x1="252.7089" y1="131.37251" x2="254.54107" y2="131.37251" gradientUnits="userSpaceOnUse" id="color-41"><stop offset="0" stop-color="#858585"/><stop offset="1" stop-color="#474747"/></linearGradient><linearGradient x1="224.96817" y1="139.56606" x2="255.97435" y2="139.56606" gradientUnits="userSpaceOnUse" id="color-42"><stop offset="0" stop-color="#b1b1b1"/><stop offset="1" stop-color="#dedede"/></linearGradient><linearGradient x1="226.37755" y1="139.57374" x2="228.20973" y2="139.57374" gradientUnits="userSpaceOnUse" id="color-43"><stop offset="0" stop-color="#858585"/><stop offset="1" stop-color="#474747"/></linearGradient><linearGradient x1="231.14778" y1="139.79419" x2="232.97996" y2="139.79419" gradientUnits="userSpaceOnUse" id="color-44"><stop offset="0" stop-color="#858585"/><stop offset="1" stop-color="#474747"/></linearGradient><linearGradient x1="247.80333" y1="139.63552" x2="249.63551" y2="139.63552" gradientUnits="userSpaceOnUse" id="color-45"><stop offset="0" stop-color="#858585"/><stop offset="1" stop-color="#474747"/></linearGradient><linearGradient x1="252.57357" y1="139.85598" x2="254.40575" y2="139.85598" gradientUnits="userSpaceOnUse" id="color-46"><stop offset="0" stop-color="#858585"/><stop offset="1" stop-color="#474747"/></linearGradient><linearGradient x1="224.87971" y1="122.59914" x2="255.88588" y2="122.59914" gradientUnits="userSpaceOnUse" id="color-47"><stop offset="0" stop-color="#b1b1b1"/><stop offset="1" stop-color="#dedede"/></linearGradient><linearGradient x1="226.28907" y1="122.60683" x2="228.12126" y2="122.60683" gradientUnits="userSpaceOnUse" id="color-48"><stop offset="0" stop-color="#858585"/><stop offset="1" stop-color="#474747"/></linearGradient><linearGradient x1="231.05931" y1="122.82729" x2="232.89149" y2="122.82729" gradientUnits="userSpaceOnUse" id="color-49"><stop offset="0" stop-color="#858585"/><stop offset="1" stop-color="#474747"/></linearGradient><linearGradient x1="247.71487" y1="122.66861" x2="249.54705" y2="122.66861" gradientUnits="userSpaceOnUse" id="color-50"><stop offset="0" stop-color="#858585"/><stop offset="1" stop-color="#474747"/></linearGradient><linearGradient x1="252.4851" y1="122.88907" x2="254.31728" y2="122.88907" gradientUnits="userSpaceOnUse" id="color-51"><stop offset="0" stop-color="#858585"/><stop offset="1" stop-color="#474747"/></linearGradient><linearGradient x1="215.78701" y1="111.9631" x2="265.25384" y2="111.9631" gradientUnits="userSpaceOnUse" id="color-52"><stop offset="0" stop-color="#b1b1b1"/><stop offset="1" stop-color="#dedede"/></linearGradient><radialGradient cx="214.79767" cy="111.83944" r="3.58635" gradientUnits="userSpaceOnUse" id="color-53"><stop offset="0" stop-color="#858585"/><stop offset="1" stop-color="#474747"/></radialGradient><radialGradient cx="267.35436" cy="111.96131" r="3.58635" gradientUnits="userSpaceOnUse" id="color-54"><stop offset="0" stop-color="#858585"/><stop offset="1" stop-color="#474747"/></radialGradient><linearGradient x1="237.61339" y1="140.23181" x2="243.67368" y2="140.23181" gradientUnits="userSpaceOnUse" id="color-55"><stop offset="0" stop-color="#b1b1b1"/><stop offset="1" stop-color="#dedede"/></linearGradient><radialGradient cx="240.71401" cy="111.91625" r="16.77152" gradientUnits="userSpaceOnUse" id="color-56"><stop offset="0" stop-color="#b5b5b5"/><stop offset="1" stop-color="#787878"/></radialGradient><radialGradient cx="228.42183" cy="173.66718" r="2.58002" gradientUnits="userSpaceOnUse" id="color-57"><stop offset="0" stop-color="#858585"/><stop offset="1" stop-color="#474747"/></radialGradient><radialGradient cx="253.45257" cy="173.53613" r="2.58002" gradientUnits="userSpaceOnUse" id="color-58"><stop offset="0" stop-color="#858585"/><stop offset="1" stop-color="#474747"/></radialGradient><linearGradient x1="237.50263" y1="93.64428" x2="245.00524" y2="94.34728" gradientUnits="userSpaceOnUse" id="color-59"><stop offset="0" stop-color="#b1b1b1"/><stop offset="1" stop-color="#dedede"/></linearGradient><linearGradient x1="230.26721" y1="79.73412" x2="231.6288" y2="78.55084" gradientUnits="userSpaceOnUse" id="color-60"><stop offset="0" stop-color="#b1b1b1"/><stop offset="1" stop-color="#dedede"/></linearGradient><linearGradient x1="254.77117" y1="82.05403" x2="253.6531" y2="80.6384" gradientUnits="userSpaceOnUse" id="color-61"><stop offset="0" stop-color="#b1b1b1"/><stop offset="1" stop-color="#dedede"/></linearGradient><linearGradient x1="243.56037" y1="70.31204" x2="242.02103" y2="86.74033" gradientUnits="userSpaceOnUse" id="color-62"><stop offset="0" stop-color="#b1b1b1"/><stop offset="1" stop-color="#dedede"/></linearGradient><linearGradient x1="226.75583" y1="67.49826" x2="260.8925" y2="70.69689" gradientUnits="userSpaceOnUse" id="color-63"><stop offset="0" stop-color="#b1b1b1"/><stop offset="1" stop-color="#dedede"/></linearGradient><linearGradient x1="244.02312" y1="67.20115" x2="243.75584" y2="70.05366" gradientUnits="userSpaceOnUse" id="color-64"><stop offset="0" stop-color="#515151"/><stop offset="1" stop-color="#878787"/></linearGradient><linearGradient x1="241.05043" y1="73.08016" x2="245.59332" y2="73.50583" gradientUnits="userSpaceOnUse" id="color-65"><stop offset="0" stop-color="#b1b1b1"/><stop offset="1" stop-color="#dedede"/></linearGradient><linearGradient x1="265.99132" y1="61.18307" x2="263.91729" y2="59.01544" gradientUnits="userSpaceOnUse" id="color-66"><stop offset="0" stop-color="#969696"/><stop offset="1" stop-color="#dedede"/></linearGradient><linearGradient x1="223.64002" y1="57.61717" x2="226.08063" y2="55.87255" gradientUnits="userSpaceOnUse" id="color-67"><stop offset="0" stop-color="#969696"/><stop offset="1" stop-color="#dedede"/></linearGradient><linearGradient x1="272.37207" y1="152.92334" x2="270.36703" y2="151.40661" gradientUnits="userSpaceOnUse" id="color-68"><stop offset="0" stop-color="#b1b1b1"/><stop offset="1" stop-color="#dedede"/></linearGradient><radialGradient cx="262.68334" cy="163.69749" r="2.58002" gradientUnits="userSpaceOnUse" id="color-69"><stop offset="0" stop-color="#858585"/><stop offset="1" stop-color="#474747"/></radialGradient><linearGradient x1="269.47301" y1="162.45321" x2="262.14209" y2="156.9077" gradientUnits="userSpaceOnUse" id="color-70"><stop offset="0" stop-color="#b1b1b1"/><stop offset="1" stop-color="#dedede"/></linearGradient><linearGradient x1="280.16037" y1="148.52038" x2="272.82945" y2="142.97485" gradientUnits="userSpaceOnUse" id="color-71"><stop offset="0" stop-color="#b1b1b1"/><stop offset="1" stop-color="#dedede"/></linearGradient><linearGradient x1="274.87634" y1="155.31027" x2="267.54543" y2="149.76475" gradientUnits="userSpaceOnUse" id="color-72"><stop offset="0" stop-color="#b1b1b1"/><stop offset="1" stop-color="#dedede"/></linearGradient></defs><g transform="translate(-22.25,-20.25)"><g data-paper-data="{&quot;isPaintingLayer&quot;:true}" fill-rule="nonzero" stroke-linecap="butt" stroke-linejoin="miter" stroke-miterlimit="10" stroke-dasharray="" stroke-dashoffset="0" style="mix-blend-mode: normal"><text transform="translate(22.5,42) scale(0.5,0.5)" font-size="40" xml:space="preserve" fill="#dbc2ff" fill-rule="nonzero" stroke="none" stroke-width="1" stroke-linecap="butt" stroke-linejoin="miter" stroke-miterlimit="10" stroke-dasharray="" stroke-dashoffset="0" font-family="Sans Serif" font-weight="normal" text-anchor="start" style="mix-blend-mode: normal"><tspan x="0" dy="0">CHARACTERS</tspan></text><path d="M342.53,181.5v-121h95v121z" fill="#505050" stroke="#ffffff" stroke-width="2.5"/><text transform="translate(355.1292,73.97338) scale(0.28101,0.28101)" font-size="40" xml:space="preserve" fill="#ffffff" fill-rule="nonzero" stroke="none" stroke-width="1" stroke-linecap="butt" stroke-linejoin="miter" stroke-miterlimit="10" stroke-dasharray="" stroke-dashoffset="0" font-family="Sans Serif" font-weight="normal" text-anchor="start" style="mix-blend-mode: normal"><tspan x="0" dy="0">CATRINA KAT</tspan></text><text transform="translate(363.43346,89.72338) scale(0.216,0.216)" font-size="40" xml:space="preserve" fill="#ffffff" fill-rule="nonzero" stroke="none" stroke-width="1" stroke-linecap="butt" stroke-linejoin="miter" stroke-miterlimit="10" stroke-dasharray="" stroke-dashoffset="0" font-family="Sans Serif" font-weight="normal" text-anchor="start" style="mix-blend-mode: normal"><tspan x="0" dy="0">Built in: 2001</tspan></text><text transform="translate(363.43346,104.72338) scale(0.216,0.216)" font-size="40" xml:space="preserve" fill="#ffffff" fill-rule="nonzero" stroke="none" stroke-width="1" stroke-linecap="butt" stroke-linejoin="miter" stroke-miterlimit="10" stroke-dasharray="" stroke-dashoffset="0" font-family="Sans Serif" font-weight="normal" text-anchor="start" style="mix-blend-mode: normal"><tspan x="0" dy="0">Height: 6'11"</tspan></text><text transform="translate(367.93346,135.22338) scale(0.216,0.216)" font-size="40" xml:space="preserve" fill="#ffffff" fill-rule="nonzero" stroke="none" stroke-width="1" stroke-linecap="butt" stroke-linejoin="miter" stroke-miterlimit="10" stroke-dasharray="" stroke-dashoffset="0" font-family="Sans Serif" font-weight="normal" text-anchor="start" style="mix-blend-mode: normal"><tspan x="0" dy="0">Voiced by:</tspan></text><text transform="translate(359.06629,148.39239) scale(0.18842,0.18842)" font-size="40" xml:space="preserve" fill="#ffffff" fill-rule="nonzero" stroke="none" stroke-width="1" stroke-linecap="butt" stroke-linejoin="miter" stroke-miterlimit="10" stroke-dasharray="" stroke-dashoffset="0" font-family="Sans Serif" font-weight="normal" text-anchor="start" style="mix-blend-mode: normal"><tspan x="0" dy="0">@AkselAliStudios</tspan></text><text transform="translate(347.80301,118.61122) scale(0.12332,0.12332)" font-size="40" xml:space="preserve" fill="#ffffff" fill-rule="nonzero" stroke="none" stroke-width="1" stroke-linecap="butt" stroke-linejoin="miter" stroke-miterlimit="10" stroke-dasharray="" stroke-dashoffset="0" font-family="Sans Serif" font-weight="normal" text-anchor="start" style="mix-blend-mode: normal"><tspan x="0" dy="0">Brand: Punchline Entertainment Co.</tspan></text><g><g data-paper-data="{&quot;index&quot;:null}"><path d="M220.62637,231.75201c0,0 -1.46471,-9.41049 -1.41375,-13.90384c0.04805,-4.23807 1.71127,-12.33524 1.71127,-12.33524l12.72674,0.1443c0,0 1.31995,8.31762 1.27223,12.52621c-0.05121,4.51607 -1.56975,13.71287 -1.56975,13.71287z" fill="#909090" stroke="#000000" stroke-width="1.5"/><g stroke="none" stroke-width="0"><path d="M225.98352,230.98227l0.30464,-26.86756l2.51392,0.0285l-0.30464,26.86756z" fill="url(#color-1)"/><path d="M229.68999,232.02747c-0.01616,1.42481 -1.14447,2.56721 -2.52014,2.55161c-1.37568,-0.01559 -2.4778,-1.18328 -2.46164,-2.6081c0.01616,-1.42481 1.14446,-2.56721 2.52014,-2.55161c1.37568,0.01559 2.47779,1.18328 2.46164,2.60809z" fill="url(#color-2)"/><path d="M222.58081,227.91875l0.02405,-2.12113l9.19154,0.10423l-0.02405,2.12112z" fill="url(#color-3)"/><path d="M222.66205,210.35923l0.02406,-2.12113l9.19153,0.10422l-0.02405,2.12112z" fill="url(#color-4)"/><path d="M222.68235,218.96289l0.02405,-2.12112l9.19154,0.10422l-0.02405,2.12112z" fill="url(#color-5)"/></g><path d="M220.62637,231.75201c0,0 -1.46471,-9.41049 -1.41375,-13.90384c0.04805,-4.23807 1.71127,-12.33524 1.71127,-12.33524l12.72674,0.1443c0,0 1.31995,8.31762 1.27223,12.52621c-0.05121,4.51607 -1.56975,13.71287 -1.56975,13.71287z" fill="#f500ff" stroke="#000000" stroke-width="1.5"/></g><g data-paper-data="{&quot;index&quot;:null}"><path d="M248.62348,231.89631c0,0 -1.51854,-9.1968 -1.56975,-13.71287c-0.04772,-4.20859 1.27223,-12.52621 1.27223,-12.52621l12.72674,-0.1443c0,0 1.66322,8.09718 1.71127,12.33524c0.05095,4.49335 -1.41375,13.90384 -1.41375,13.90384z" fill="#909090" stroke="#000000" stroke-width="1.5"/><g stroke="none" stroke-width="0"><path d="M253.47915,231.01077l-0.30464,-26.86756l2.51392,-0.0285l0.30464,26.86756z" fill="url(#color-6)"/><path d="M252.2866,232.02746c-0.01616,-1.42481 1.08596,-2.5925 2.46164,-2.60809c1.37568,-0.0156 2.50398,1.1268 2.52014,2.55161c0.01616,1.42481 -1.08596,2.5925 -2.46164,2.6081c-1.37567,0.0156 -2.50398,-1.1268 -2.52014,-2.55161z" fill="url(#color-7)"/><path d="M250.20425,228.02297l-0.02405,-2.12112l9.19154,-0.10423l0.02405,2.12113z" fill="url(#color-8)"/><path d="M250.12301,210.46344l-0.02405,-2.12112l9.19153,-0.10422l0.02406,2.12113z" fill="url(#color-9)"/><path d="M250.10271,219.06711l-0.02405,-2.12112l9.19154,-0.10422l0.02405,2.12112z" fill="url(#color-10)"/></g><path d="M248.62348,231.89631c0,0 -1.51854,-9.1968 -1.56975,-13.71287c-0.04772,-4.20859 1.27223,-12.52621 1.27223,-12.52621l12.72674,-0.1443c0,0 1.66322,8.09718 1.71127,12.33524c0.05095,4.49335 -1.41375,13.90384 -1.41375,13.90384z" fill="#f500ff" stroke="#000000" stroke-width="1.5"/></g><g data-paper-data="{&quot;index&quot;:null}"><path d="M220.91161,202.43288c0,0 -1.10673,-9.45927 -0.8854,-13.94746c0.20876,-4.23319 2.17788,-12.26146 2.17788,-12.26146l12.71211,0.62689c0,0 1.00354,8.3617 0.79623,12.56545c-0.22245,4.51088 -2.08871,13.64347 -2.08871,13.64347z" fill="#909090" stroke="#000000" stroke-width="1.5"/><g stroke="none" stroke-width="0"><path d="M226.29411,201.8669l1.32344,-26.83668l2.51103,0.12383l-1.32344,26.83668z" fill="url(#color-11)"/><path d="M229.95827,203.05192c-0.07019,1.42318 -1.24101,2.52196 -2.6151,2.45419c-1.3741,-0.06776 -2.43114,-1.27641 -2.36095,-2.69959c0.07019,-1.42318 1.241,-2.52196 2.6151,-2.45419c1.3741,0.06776 2.43114,1.2764 2.36095,2.69958z" fill="url(#color-12)"/><path d="M223.01004,198.67652l0.10449,-2.11869l9.18097,0.45276l-0.10449,2.11869z" fill="url(#color-13)"/><path d="M223.75721,181.13271l0.10449,-2.11869l9.18097,0.45276l-0.10448,2.11868z" fill="url(#color-14)"/><path d="M223.45118,189.73095l0.10448,-2.11868l9.18097,0.45276l-0.10449,2.11869z" fill="url(#color-15)"/></g><path d="M220.91161,202.43288c0,0 -1.10673,-9.45927 -0.8854,-13.94746c0.20876,-4.23319 2.17788,-12.26146 2.17788,-12.26146l12.71211,0.62689c0,0 1.00354,8.3617 0.79623,12.56545c-0.22245,4.51088 -2.08871,13.64347 -2.08871,13.64347z" fill="#f500ff" stroke="#000000" stroke-width="1.5"/></g><g data-paper-data="{&quot;index&quot;:null}"><path d="M248.35286,203.05977c0,0 -1.86626,-9.13259 -2.08871,-13.64347c-0.20731,-4.20375 0.79623,-12.56545 0.79623,-12.56545l12.71211,-0.62689c0,0 1.96913,8.02827 2.17788,12.26146c0.22134,4.48819 -0.8854,13.94746 -0.8854,13.94746z" fill="#909090" stroke="#000000" stroke-width="1.5"/><g stroke="none" stroke-width="0"><path d="M253.17146,201.99073l-1.32344,-26.83668l2.51103,-0.12383l1.32344,26.83668z" fill="url(#color-16)"/><path d="M252.01832,203.05191c-0.07019,-1.42318 0.98685,-2.63182 2.36095,-2.69958c1.3741,-0.06776 2.54492,1.03102 2.6151,2.45419c0.07019,1.42318 -0.98685,2.63183 -2.36095,2.69959c-1.37409,0.06777 -2.54492,-1.03102 -2.6151,-2.45419z" fill="url(#color-17)"/><path d="M249.78559,199.12927l-0.10449,-2.11869l9.18097,-0.45276l0.10449,2.11869z" fill="url(#color-18)"/><path d="M249.03841,181.58546l-0.10448,-2.11868l9.18097,-0.45276l0.10449,2.11869z" fill="url(#color-19)"/><path d="M249.34445,190.18372l-0.10449,-2.11869l9.18097,-0.45276l0.10448,2.11868z" fill="url(#color-20)"/></g><path d="M248.35286,203.05977c0,0 -1.86626,-9.13259 -2.08871,-13.64347c-0.20731,-4.20375 0.79623,-12.56545 0.79623,-12.56545l12.71211,-0.62689c0,0 1.96913,8.02827 2.17788,12.26146c0.22134,4.48819 -0.8854,13.94746 -0.8854,13.94746z" fill="#f500ff" stroke="#000000" stroke-width="1.5"/></g><g data-paper-data="{&quot;index&quot;:null}" fill="#f500ff"><path d="M236.10823,241.01746c0,4.22948 -5.9745,7.65815 -13.34443,7.65815c-7.36993,0 -13.34443,-3.42867 -13.34443,-7.65815c0,-4.22948 5.97451,-7.65814 13.34443,-7.65814c7.36993,0 13.34443,3.42867 13.34443,7.65815z" stroke="#000000" stroke-width="1.5"/><path d="M216.24825,240.54579c0,3.90024 -3.24389,7.06201 -7.24542,7.06201c-4.00154,0 -7.24542,-3.16176 -7.24542,-7.06201c0,-3.90024 3.24389,-7.06201 7.24542,-7.06201c4.00154,0 7.24542,3.16176 7.24542,7.06201z" stroke="#000000" stroke-width="1.5"/><path d="M222.11797,240.91265c0,3.90024 -3.24389,7.06201 -7.24542,7.06201c-4.00154,0 -7.24542,-3.16177 -7.24542,-7.06201c0,-3.90024 3.24389,-7.06201 7.24542,-7.06201c4.00154,0 7.24542,3.16176 7.24542,7.06201z" stroke="#000000" stroke-width="1.5"/><path d="M228.72141,240.91265c0,3.90024 -3.24389,7.06201 -7.24543,7.06201c-4.00154,0 -7.24544,-3.16176 -7.24544,-7.06201c0,-3.90024 3.24389,-7.06201 7.24544,-7.06201c4.00154,0 7.24543,3.16176 7.24543,7.06201z" stroke="#000000" stroke-width="1.5"/><path d="M233.67398,240.88712c0,2.69868 -2.79221,4.8864 -6.23657,4.8864c-3.44437,0 -6.23657,-2.18772 -6.23657,-4.8864c0,-2.69868 2.79221,-4.88639 6.23657,-4.88639c3.44437,0 6.23657,2.18772 6.23657,4.88639z" stroke="none" stroke-width="0"/></g><g data-paper-data="{&quot;index&quot;:null}" fill="#f500ff"><path d="M245.86837,241.01747c0,-4.22948 5.9745,-7.65815 13.34443,-7.65815c7.36992,0 13.34443,3.42867 13.34443,7.65814c0,4.22948 -5.9745,7.65815 -13.34443,7.65815c-7.36993,0 -13.34443,-3.42867 -13.34443,-7.65815z" stroke="#000000" stroke-width="1.5"/><path d="M272.97377,233.48378c4.00154,0 7.24542,3.16177 7.24542,7.06201c0,3.90024 -3.24388,7.06201 -7.24542,7.06201c-4.00154,0 -7.24542,-3.16177 -7.24542,-7.06201c0,-3.90024 3.24388,-7.06201 7.24542,-7.06201z" stroke="#000000" stroke-width="1.5"/><path d="M267.10404,233.85065c4.00154,0 7.24542,3.16177 7.24542,7.06201c0,3.90024 -3.24388,7.06201 -7.24542,7.06201c-4.00154,0 -7.24542,-3.16177 -7.24542,-7.06201c0,-3.90024 3.24388,-7.06201 7.24542,-7.06201z" stroke="#000000" stroke-width="1.5"/><path d="M260.50062,233.85065c4.00154,0 7.24544,3.16177 7.24544,7.06201c0,3.90024 -3.24389,7.06201 -7.24544,7.06201c-4.00154,0 -7.24543,-3.16177 -7.24543,-7.06201c0,-3.90024 3.24389,-7.06201 7.24543,-7.06201z" stroke="#000000" stroke-width="1.5"/><path d="M254.53919,236.00072c3.44436,0 6.23657,2.18771 6.23657,4.88639c0,2.69868 -2.7922,4.8864 -6.23657,4.8864c-3.44436,0 -6.23657,-2.18772 -6.23657,-4.8864c0,-2.69867 2.79221,-4.88639 6.23657,-4.88639z" stroke="none" stroke-width="0"/></g><g data-paper-data="{&quot;index&quot;:null}"><path d="M273.80351,142.41714c0,0 -5.26193,-7.6941 -7.21634,-11.76569c-1.82135,-3.79436 -4.13911,-11.89085 -4.13911,-11.89085l11.47413,-5.50773c0,0 4.92847,6.63631 6.76258,10.45725c1.94459,4.0511 4.59288,13.19928 4.59288,13.19928z" fill="#909090" stroke="#000000" stroke-width="1.5"/><g stroke="none" stroke-width="0"><path d="M277.8304,139.56305l-11.62745,-24.22315l2.2665,-1.08794l11.62745,24.22315z" fill="url(#color-21)"/><path d="M277.17905,140.98838c-0.61662,-1.28457 -0.11103,-2.80856 1.12925,-3.40391c1.24028,-0.59535 2.74559,-0.03662 3.36221,1.24795c0.61662,1.28457 0.11104,2.80857 -1.12924,3.40392c-1.24027,0.59535 -2.74559,0.03662 -3.36221,-1.24795z" fill="url(#color-22)"/><path d="M273.59981,138.23861l-0.91796,-1.91235l8.28686,-3.97782l0.91796,1.91236z" fill="url(#color-23)"/><path d="M266.10741,122.35757l-0.91796,-1.91235l8.28686,-3.97781l0.91796,1.91235z" fill="url(#color-24)"/><path d="M269.724,130.16421l-0.91796,-1.91235l8.28687,-3.97781l0.91796,1.91235z" fill="url(#color-25)"/></g><path d="M273.80351,142.41714c0,0 -5.26193,-7.6941 -7.21634,-11.76569c-1.82135,-3.79436 -4.13911,-11.89085 -4.13911,-11.89085l11.47413,-5.50773c0,0 4.92847,6.63631 6.76258,10.45725c1.94459,4.0511 4.59288,13.19928 4.59288,13.19928z" fill="#f500ff" stroke="#000000" stroke-width="1.5"/></g><g data-paper-data="{&quot;index&quot;:null}"><path d="M183.9714,74.12266c0,0 4.53687,8.14273 6.11108,12.37586c1.46702,3.94492 3.03528,12.21931 3.03528,12.21931l-11.92939,4.43626c0,0 -4.30147,-7.05888 -5.77877,-11.03143c-1.56628,-4.21183 -3.3676,-13.56373 -3.3676,-13.56373z" fill="#909090" stroke="#000000" stroke-width="1.5"/><g stroke="none" stroke-width="0"><path d="M179.70056,76.59686l9.36544,25.18427l-2.35642,0.8763l-9.36544,-25.18427z" fill="url(#color-26)"/><path d="M180.47941,75.23701c0.49665,1.33555 -0.14607,2.80696 -1.43556,3.28649c-1.2895,0.47953 -2.73745,-0.2144 -3.23411,-1.54995c-0.49665,-1.33555 0.14606,-2.80696 1.43555,-3.28649c1.2895,-0.47953 2.73746,0.21441 3.23412,1.54995z" fill="url(#color-27)"/><path d="M183.79242,78.30233l0.73938,1.98823l-8.61567,3.20397l-0.73937,-1.98824z" fill="url(#color-28)"/><path d="M189.80237,94.80155l0.73938,1.98823l-8.61567,3.20396l-0.73938,-1.98823z" fill="url(#color-29)"/><path d="M186.91425,86.69709l0.73937,1.98823l-8.61567,3.20396l-0.73937,-1.98823z" fill="url(#color-30)"/></g><path d="M183.9714,74.12266c0,0 4.53687,8.14273 6.11108,12.37586c1.46702,3.94491 3.03528,12.21931 3.03528,12.21931l-11.92939,4.43626c0,0 -4.30146,-7.05888 -5.77876,-11.03143c-1.56629,-4.21183 -3.3676,-13.56373 -3.3676,-13.56373z" fill="#f500ff" stroke="#000000" stroke-width="1.5"/></g><g data-paper-data="{&quot;index&quot;:null}"><path d="M190.15905,96.7209c0,0 9.1255,1.90061 13.3561,3.48163c3.94254,1.47337 11.2243,5.70435 11.2243,5.70435l-4.45547,11.92222c0,0 -8.15206,-1.36907 -12.12223,-2.85277c-4.2093,-1.57306 -12.45817,-6.3332 -12.45817,-6.3332z" fill="#909090" stroke="#000000" stroke-width="1.5"/><g stroke="none" stroke-width="0"><path d="M189.23371,101.56913l25.16915,9.40599l-0.8801,2.35501l-25.16915,-9.40599z" fill="url(#color-31)"/><path d="M188.71556,100.09016c1.33474,0.49881 2.02635,1.94789 1.54474,3.23661c-0.48161,1.28872 -1.95406,1.92907 -3.2888,1.43026c-1.33475,-0.4988 -2.02635,-1.94789 -1.54474,-3.2366c0.48161,-1.28872 1.95406,-1.92907 3.2888,-1.43026z" fill="url(#color-32)"/><path d="M193.20156,99.59224l1.98705,0.74258l-3.21784,8.6105l-1.98704,-0.74258z" fill="url(#color-33)"/><path d="M209.60857,105.84952l1.98704,0.74258l-3.21784,8.6105l-1.98704,-0.74257z" fill="url(#color-34)"/><path d="M201.59128,102.72757l1.98704,0.74257l-3.21784,8.6105l-1.98704,-0.74258z" fill="url(#color-35)"/></g><path d="M190.15905,96.7209c0,0 9.1255,1.90061 13.3561,3.48163c3.94254,1.47337 11.2243,5.70435 11.2243,5.70435l-4.45547,11.92222c0,0 -8.15206,-1.36907 -12.12223,-2.85277c-4.2093,-1.57306 -12.45817,-6.3332 -12.45817,-6.3332z" fill="#f500ff" stroke="#000000" stroke-width="1.5"/></g><path d="M177.84242,74.7824c-3.03443,1.21738 -6.97762,0.64955 -8.96817,-4.90606c-0.89565,-2.49974 -4.11734,-12.25729 -1.16877,-13.08271c3.33054,-1.43157 2.8989,8.76458 4.12827,8.22077c0.34547,-0.15282 -2.5644,-8.83467 -0.36899,-9.807c2.19542,-0.97235 3.71297,8.60476 4.17477,8.44494c0.69404,-0.2402 -2.5635,-8.47875 -0.29128,-9.5512c2.59232,-1.22352 3.90161,7.81583 5.34155,11.3456c0.49109,1.20382 -0.6222,-5.70362 1.97069,-5.54716c5.0599,0.30532 0.89018,9.92226 0.52209,10.52863c-0.91174,1.50192 -3.53424,3.62968 -5.34017,4.35419z" data-paper-data="{&quot;index&quot;:null}" fill="#f500ff" stroke="#000000" stroke-width="1.5"/><g><g><path d="M257.41546,130.50726c3.05668,25.91649 5.23143,33.71118 -16.56128,33.71118c-20.60081,0 -21.22729,-5.84966 -18.21382,-33.78086c-8.39883,-18.41449 -5.80962,-31.77363 18.21382,-31.77363c22.74175,0 28.98102,16.48279 16.56128,31.8433z" fill="#909090" stroke="#000000" stroke-width="1.5"/><g stroke="none" stroke-width="0"><path d="M239.17601,112.96338v-25.67677h2.87293v25.67677z" fill="url(#color-36)"/><g><g><path d="M225.1035,132.77384v-3.38249h31.00618v3.38249z" fill="url(#color-37)"/><path d="M226.51287,133.9795v-5.77843h1.83218v5.77843z" fill="url(#color-38)"/><path d="M231.2831,134.19994v-5.77843h1.83218v5.77843z" fill="url(#color-39)"/><path d="M247.93865,134.04128v-5.77842h1.83218v5.77842z" fill="url(#color-40)"/><path d="M252.7089,134.26172v-5.77843h1.83218v5.77843z" fill="url(#color-41)"/></g><g><path d="M224.96817,141.25731v-3.38249h31.00618v3.38249z" fill="url(#color-42)"/><path d="M226.37755,142.46296v-5.77842h1.83218v5.77842z" fill="url(#color-43)"/><path d="M231.14778,142.6834v-5.77842h1.83218v5.77842z" fill="url(#color-44)"/><path d="M247.80333,142.52474v-5.77842h1.83218v5.77842z" fill="url(#color-45)"/><path d="M252.57357,142.74519v-5.77842h1.83218v5.77842z" fill="url(#color-46)"/></g><g><path d="M224.87971,124.29039v-3.38249h31.00617v3.38249z" fill="url(#color-47)"/><path d="M226.28907,125.49604v-5.77843h1.83218v5.77843z" fill="url(#color-48)"/><path d="M231.05931,125.7165v-5.77843h1.83218v5.77843z" fill="url(#color-49)"/><path d="M247.71487,125.55783v-5.77843h1.83218v5.77843z" fill="url(#color-50)"/><path d="M252.4851,125.77828v-5.77843h1.83218v5.77843z" fill="url(#color-51)"/></g><path d="M215.78701,113.94177v-3.95734h49.46683v3.95734z" fill="url(#color-52)"/><path d="M218.26035,111.83944c0,1.98068 -1.55029,3.58635 -3.46268,3.58635c-1.91238,0 -3.46268,-1.60566 -3.46268,-3.58635c0,-1.98068 1.55029,-3.58635 3.46268,-3.58635c1.91238,0 3.46268,1.60566 3.46268,3.58635z" fill="url(#color-53)"/><path d="M270.81705,111.96131c0,1.98068 -1.55029,3.58635 -3.46268,3.58635c-1.91239,0 -3.46268,-1.60566 -3.46268,-3.58635c0,-1.98068 1.55029,-3.58634 3.46268,-3.58634c1.91239,0 3.46268,1.60566 3.46268,3.58634z" fill="url(#color-54)"/><path d="M237.61339,169.1944v-57.92518h6.0603v57.92518z" fill="url(#color-55)"/><path d="M223.94248,115.58061v-7.32873h33.54305v7.32873z" fill="url(#color-56)"/></g></g></g><path d="M228.59127,173.34703v-4.19363h25.03074v4.19363z" fill="#6f6f6f" stroke="#000000" stroke-width="0"/><path d="M230.58961,174.89441c-0.70198,1.23999 -2.2416,1.69575 -3.43883,1.01797c-1.19723,-0.67778 -1.59871,-2.23244 -0.89672,-3.47243c0.70198,-1.23999 2.2416,-1.69575 3.43883,-1.01797c1.19723,0.67778 1.5987,2.23244 0.89672,3.47243z" fill="url(#color-57)" stroke="none" stroke-width="0"/><path d="M255.62035,174.76336c-0.70198,1.23999 -2.2416,1.69575 -3.43883,1.01797c-1.19723,-0.67778 -1.59871,-2.23244 -0.89672,-3.47243c0.70198,-1.23999 2.2416,-1.69575 3.43883,-1.01797c1.19723,0.67778 1.5987,2.23244 0.89672,3.47243z" fill="url(#color-58)" stroke="none" stroke-width="0"/></g><g stroke="#000000" stroke-width="1.5"><path d="M257.51385,130.51174c3.05668,25.91649 14.14272,34.19163 -16.56128,33.71118c-29.64181,-0.46382 -21.22729,-5.84966 -18.21382,-33.78086c-8.39883,-18.41449 -6.46488,-31.77363 17.55857,-31.77363c22.74175,0 29.63628,16.48279 17.21654,31.8433z" fill="#f500ff"/><path d="M254.03666,130.71712c2.38451,20.21739 11.68172,30.39804 -13.05046,30.49163c-23.80283,0.09008 -16.4283,-8.75693 -14.07751,-30.54599c-6.5519,-14.36509 -5.04323,-24.78652 13.69739,-24.78652c17.74078,0 23.11918,12.85818 13.43057,24.84087z" fill="#f1bdf2"/></g><path d="M219.70311,165.60012c0,-2.96399 10.75711,1.45132 21.51421,1.45132c10.75711,0 21.51421,-4.41531 21.51421,-1.45132c0,5.92797 -9.63224,10.73355 -21.51421,10.73355c-11.88196,0 -21.51421,-4.80558 -21.51421,-10.73355z" fill="#f500ff" stroke="#000000" stroke-width="1.5"/><g><g stroke="#000000" stroke-width="1.5"><path d="M242.22282,82.59713c11.01392,1.03201 21.02694,7.98894 18.744,14.65895c-4.2099,12.29995 -10.12701,11.95371 -21.14093,10.9217c-11.01392,-1.03201 -17.56436,-3.75544 -18.744,-14.65895c-0.7596,-7.02104 10.12701,-11.95371 21.14093,-10.9217z" fill="#f500ff"/><path d="M242.13743,82.65639c8.53011,0.79928 16.28505,6.18731 14.51694,11.35313c-3.2605,9.52612 -7.84321,9.25797 -16.37333,8.45869c-8.53011,-0.79928 -13.60332,-2.90853 -14.51694,-11.35313c-0.5883,-5.43769 7.84321,-9.25797 16.37333,-8.45869z" fill="#ff0000"/></g><g stroke="none" stroke-width="0"><path d="M237.21472,96.71694l0.57582,-6.14531l7.50261,0.703l-0.57582,6.14531z" fill="url(#color-59)"/><path d="M243.81024,93.48407l0.18392,-1.96286l0.84123,0.07882l-0.18392,1.96286z" fill="#ffffff"/><path d="M243.62162,95.90343l0.18392,-1.96286l0.84123,0.07882l-0.18392,1.96286z" fill="#ffffff"/><path d="M241.06901,96.73045l0.08135,-0.86819l2.27562,0.21323l-0.08135,0.86819z" fill="#ffffff"/><path d="M238.53994,96.49347l0.08135,-0.86819l2.27562,0.21323l-0.08135,0.86819z" fill="#ffffff"/><path d="M237.84262,92.96297l0.18392,-1.96286l0.84123,0.07882l-0.18392,1.96286z" fill="#ffffff"/><path d="M237.65401,95.38233l0.18392,-1.96286l0.84123,0.07882l-0.18392,1.96286z" fill="#ffffff"/></g></g><g><path d="M245.48346,51.14488c13.46039,1.26125 23.64226,11.09486 22.53008,21.94299c-1.91777,18.70591 -12.81304,15.20422 -26.25574,13.75423c-13.44139,-1.44985 -25.75703,2.47153 -22.48862,-18.32162c1.69252,-10.76756 12.75389,-18.63685 26.21427,-17.3756z" fill="#909090" stroke="#000000" stroke-width="1.5"/><g stroke="none" stroke-width="0"><path d="M234.23462,84.29945l-7.93483,-9.13065l1.36159,-1.18327l7.93483,9.13065z" fill="url(#color-60)"/><path d="M248.90666,84.38724l9.49292,-7.49765l1.11807,1.41561l-9.49291,7.49765z" data-paper-data="{&quot;index&quot;:null}" fill="url(#color-61)"/><path d="M234.02347,85.99095l1.53935,-16.42829l15.99511,1.49876l-1.53935,16.42829z" fill="url(#color-62)"/><path d="M225.98616,75.7124l1.53935,-16.42829l34.13669,3.19864l-1.53935,16.42829z" fill="url(#color-63)"/><path d="M227.11617,68.4945l0.26728,-2.85252l33.27934,3.1183l-0.26728,2.85252z" fill="url(#color-64)"/><path d="M240.01099,84.17327l2.07887,-22.18623l4.54289,0.42567l-2.07887,22.18623z" fill="url(#color-65)"/></g><g stroke-width="1.5"><path d="M253.57616,62.94569c3.4466,0.32295 5.9721,3.45041 5.64087,6.98538c-0.33123,3.53498 -3.39376,6.13883 -6.84036,5.81588c-3.4466,-0.32295 -5.9721,-3.45041 -5.64087,-6.98538c0.33123,-3.53498 3.39376,-6.13883 6.84036,-5.81588z" data-paper-data="{&quot;index&quot;:null}" fill="#ffffff" stroke="#000000"/><path d="M252.6355,65.78617c1.83902,0.17232 3.18408,1.86766 3.00427,3.78664c-0.17981,1.91898 -1.8164,3.33493 -3.65542,3.16261c-1.83902,-0.17232 -3.18409,-1.86766 -3.00428,-3.78663c0.17981,-1.91898 1.8164,-3.33494 3.65543,-3.16262z" data-paper-data="{&quot;index&quot;:null}" fill="#000000" stroke="#f500ff"/></g><g stroke-width="1.5"><path d="M240.62354,68.36563c-0.33123,3.53497 -3.39376,6.13883 -6.84036,5.81588c-3.4466,-0.32295 -5.9721,-3.45041 -5.64087,-6.98538c0.33123,-3.53497 3.39376,-6.13883 6.84036,-5.81588c3.4466,0.32295 5.9721,3.45041 5.64087,6.98538z" fill="#ffffff" stroke="#000000"/><path d="M238.38356,68.13269c-0.17981,1.91899 -1.8164,3.33493 -3.65542,3.16261c-1.83903,-0.17232 -3.18408,-1.86766 -3.00427,-3.78663c0.17981,-1.91899 1.8164,-3.33493 3.65542,-3.16261c1.83903,0.17232 3.18408,1.86766 3.00427,3.78663z" fill="#000000" stroke="#f500ff"/></g></g><g data-paper-data="{&quot;index&quot;:null}"><path d="M258.92398,63.79311l9.98663,-9.55535l2.07403,2.16764l-9.98663,9.55535z" fill="url(#color-66)" stroke="none" stroke-width="0"/><g stroke="#000000" stroke-width="1.5"><g fill="#f500ff"><path d="M281.15676,44.61085c0,0 -1.74625,11.66503 -6.11116,15.58354c-1.006,0.90311 -3.90892,4.67749 -9.34774,-1.01518c-5.51381,-5.77116 -0.63496,-9.21027 -0.43417,-9.3999c4.2644,-4.02767 15.89308,-5.16845 15.89308,-5.16845z"/></g><g fill="#f1bdf2"><path d="M266.8584,50.81339c3.24508,-3.06494 12.09418,-3.93304 12.09418,-3.93304c0,0 -1.32885,8.87675 -4.65042,11.85862c-0.76553,0.68724 -2.97457,3.55943 -7.11336,-0.77253c-4.19585,-4.39169 -0.48318,-7.00874 -0.33039,-7.15305z"/></g></g></g><g><path d="M227.65886,63.23928l-8.03769,-11.24425l2.44061,-1.74462l8.03769,11.24425z" fill="url(#color-67)" stroke="none" stroke-width="0"/><g stroke="#000000" stroke-width="1.5"><g fill="#f500ff"><path d="M226.4735,46.54707c0.16206,0.22363 4.3171,4.50922 -2.17284,9.15562c-6.40169,4.58321 -8.55291,0.33525 -9.37362,-0.73902c-3.56099,-4.66118 -3.10982,-16.44755 -3.10982,-16.44755c0,0 11.21435,3.28119 14.65629,8.03096z"/></g><g fill="#f1bdf2"><path d="M224.7144,47.26691c0.12332,0.17018 3.28519,3.43139 -1.65347,6.96716c-4.8715,3.48769 -6.50851,0.25511 -7.13305,-0.56238c-2.70981,-3.54702 -2.36649,-12.51612 -2.36649,-12.51612c0,0 8.53379,2.4969 11.15301,6.11132z"/></g></g></g><g stroke="#000000"><g stroke-width="1.5"><path d="M245.38582,51.13955c13.46039,1.26125 23.64226,11.09486 22.53008,21.94299c-1.91777,18.70591 -12.81304,15.20422 -26.25574,13.75423c-13.44139,-1.44985 -25.75703,2.47153 -22.48862,-18.32162c1.69252,-10.76756 12.75389,-18.63685 26.21427,-17.3756zM233.41058,74.89067c4.06522,0.38091 7.66952,-2.6058 8.05043,-6.67102c0.38091,-4.06522 -2.6058,-7.66952 -6.67102,-8.05043c-4.06522,-0.38091 -7.66952,2.6058 -8.05043,6.67102c-0.38091,4.06522 2.6058,7.66952 6.67102,8.05043zM252.40911,76.56325c4.06522,0.38091 7.66952,-2.6058 8.05043,-6.67102c0.38091,-4.06522 -2.6058,-7.66952 -6.67102,-8.05043c-4.06522,-0.38091 -7.66952,2.6058 -8.05043,6.67102c-0.38091,4.06522 2.6058,7.66952 6.67102,8.05043z" fill="#f500ff"/><g fill="#f1bdf2"><path d="M283.63075,77.394c-0.18006,1.92165 -9.29257,6.36866 -16.4387,5.69906c-7.14613,-0.6696 -12.79325,-2.77022 -12.61318,-4.69187c0.18006,-1.92165 6.11911,-2.93663 13.26524,-2.26703c7.14613,0.6696 15.96671,-0.66181 15.78665,1.25984z"/><path d="M284.51413,84.55651c-0.35999,1.8962 -9.85035,5.46646 -16.90183,4.12773c-7.05148,-1.33872 -12.476,-3.96114 -12.11601,-5.85734c0.35999,-1.8962 6.36818,-2.34812 13.41966,-1.00939c7.05148,1.33872 15.95817,0.8428 15.59818,2.739z"/><path d="M283.24853,92.70193c-0.65613,1.81512 -10.59255,3.83527 -17.34253,1.3953c-6.74997,-2.43997 -11.69001,-5.88941 -11.03388,-7.70453c0.65613,-1.81512 6.65995,-1.30857 13.40993,1.13141c6.74997,2.43997 15.62261,3.36271 14.96648,5.17783z"/></g><g data-paper-data="{&quot;index&quot;:null}" fill="#f1bdf2"><path d="M218.73867,71.31355c7.14613,0.6696 12.79325,2.77022 12.61319,4.69187c-0.18006,1.92165 -6.11911,2.93663 -13.26525,2.26703c-7.14613,-0.6696 -15.27389,-6.73203 -15.09383,-8.65368c0.18006,-1.92165 8.59976,1.02518 15.74589,1.69478z"/><path d="M216.6297,76.69886c7.17743,-0.00546 12.99708,1.55473 12.99855,3.4848c0.00147,1.93007 -5.81579,3.49912 -12.99323,3.50459c-7.17743,0.00546 -15.83934,-5.26568 -15.84082,-7.19575c-0.00147,-1.93006 8.65805,0.21183 15.83549,0.20636z"/><path d="M216.19243,82.42388c7.08576,-1.14355 13.07917,-0.52596 13.38668,1.37945c0.30751,1.90541 -5.18733,4.37709 -12.27309,5.52065c-7.08576,1.14355 -16.47393,-2.68733 -16.78144,-4.59274c-0.30751,-1.90541 8.5821,-1.16381 15.66785,-2.30736z"/></g><path d="M261.7622,84.16513c-0.53328,5.6913 -5.32298,9.89672 -10.6981,9.39307c-8.97369,-0.84084 -9.79208,-0.27614 -8.76692,-11.21696c0.53328,-5.6913 2.72116,-10.30552 10.86167,-9.37774c5.36394,0.61133 9.13663,5.51033 8.60335,11.20163z" fill="#f1bdf2"/><path d="M233.23377,70.76648c8.17117,0.60063 9.46378,5.54099 8.9305,11.23229c-1.02516,10.94081 -1.72441,10.23391 -10.69811,9.39307c-5.37512,-0.50365 -9.3002,-5.52566 -8.76692,-11.21696c0.53328,-5.6913 5.1504,-9.80417 10.53453,-9.4084z" data-paper-data="{&quot;index&quot;:null}" fill="#f1bdf2"/><path d="M246.66996,76.94343c-0.13249,1.41399 -1.93541,2.40138 -4.02693,2.2054c-2.09152,-0.19598 -3.67963,-1.50111 -3.54714,-2.9151c0.13249,-1.41399 1.93541,-2.40138 4.02693,-2.2054c2.09152,0.19598 3.67963,1.50111 3.54714,2.9151z" fill="#000000"/></g><g fill="#9966ff" stroke-width="2"><path d="M230.82488,52.32438c10.37009,-9.14025 2.94581,-3.20884 4.70628,1.43589c1.70841,4.50739 10.85485,3.44687 -2.57218,4.1946c-2.14608,0.11952 -4.11695,0.11893 -4.70626,-1.4359c-0.58931,-1.55481 0.9597,-2.77336 2.57217,-4.1946z" data-paper-data="{&quot;index&quot;:null}"/><path d="M228.2825,56.47714c0.58932,1.55482 -0.88602,2.8616 -2.57217,4.1946c-10.54939,8.33993 -2.99786,3.0715 -4.70628,-1.43589c-1.76046,-4.64473 -11.25107,-4.16499 2.57218,-4.1946c2.14941,-0.0046 4.11696,-0.11892 4.70627,1.4359z"/><path d="M231.2351,55.35803c0.60369,1.59274 -0.16736,3.36165 -1.72217,3.95097c-1.55482,0.58932 -3.30464,-0.22412 -3.90833,-1.81686c-0.60369,-1.59274 0.16737,-3.36165 1.72218,-3.95097c1.55482,-0.58932 3.30463,0.22413 3.90832,1.81687z"/></g></g><path d="M270.07854,168.97308c1.14502,2.39579 5.34153,11.77547 2.49209,12.89623c-3.16783,1.76259 -3.7745,-8.42465 -4.94224,-7.75874c-0.32815,0.18713 3.44885,8.52836 1.3636,9.71875c-2.08525,1.19039 -4.56811,-8.18293 -5.01128,-7.97702c-0.66605,0.30948 3.41178,8.17438 1.26029,9.47216c-2.45458,1.4806 -4.6756,-7.37892 -6.46676,-10.74411c-0.61087,-1.14768 1.19853,5.61087 -1.39683,5.71869c-5.06473,0.21042 -1.8938,-9.78044 -1.58923,-10.42107c0.75441,-1.5868 3.14712,-3.97002 4.87009,-4.87429c2.89503,-1.51941 6.87551,-1.3552 9.42027,3.96939z" data-paper-data="{&quot;index&quot;:null}" fill="#f500ff" stroke="#000000" stroke-width="1.5"/><g data-paper-data="{&quot;index&quot;:null}"><path d="M257.8808,159.84806c0,0 4.43054,-8.20107 7.15522,-11.80296c2.53916,-3.35666 8.67559,-9.12462 8.67559,-9.12462l10.15051,7.67841c0,0 -3.64286,7.42024 -6.19981,10.80042c-2.71097,3.58377 -9.631,10.12717 -9.631,10.12717z" fill="#909090" stroke="#000000" stroke-width="1.5"/><g stroke="none" stroke-width="0"><path d="M262.26203,162.12103l16.20998,-21.42885l2.00504,1.51673l-16.20999,21.42884z" fill="url(#color-68)"/><path d="M264.23984,161.63987c1.0972,0.82999 1.2898,2.42405 0.43017,3.56044c-0.85963,1.13639 -2.44596,1.38479 -3.54317,0.5548c-1.0972,-0.82999 -1.2898,-2.42406 -0.43017,-3.56045c0.85963,-1.13639 2.44597,-1.38478 3.54317,-0.5548z" fill="url(#color-69)"/><path d="M261.50223,157.75358l1.27973,-1.69175l7.33092,5.54552l-1.27974,1.69174z" fill="url(#color-70)"/><path d="M272.18959,143.82074l1.27973,-1.69175l7.33092,5.54552l-1.27974,1.69174z" fill="url(#color-71)"/><path d="M266.90556,150.61062l1.27973,-1.69175l7.33092,5.54553l-1.27974,1.69174z" fill="url(#color-72)"/></g><path d="M257.88079,159.84806c0,0 4.43054,-8.20107 7.15522,-11.80296c2.53916,-3.35665 8.67559,-9.12462 8.67559,-9.12462l10.1505,7.67841c0,0 -3.64286,7.42024 -6.19981,10.80041c-2.71096,3.58378 -9.63099,10.12717 -9.63099,10.12717z" fill="#f500ff" stroke="#000000" stroke-width="1.5"/></g></g><text transform="translate(376.878,54.97338) scale(0.28101,0.28101)" font-size="40" xml:space="preserve" fill="#ffffff" fill-rule="nonzero" stroke="none" stroke-width="1" stroke-linecap="butt" stroke-linejoin="miter" stroke-miterlimit="10" stroke-dasharray="" stroke-dashoffset="0" font-family="Sans Serif" font-weight="normal" text-anchor="start" style="mix-blend-mode: normal"><tspan x="0" dy="0">OLD</tspan></text></g></g></svg>