<svg version="1.1" xmlns="http://www.w3.org/2000/svg" xmlns:xlink="http://www.w3.org/1999/xlink" width="301.10735" height="439.81334" viewBox="0,0,301.10735,439.81334"><defs><linearGradient x1="225.45989" y1="296.64072" x2="209.90084" y2="301.74887" gradientUnits="userSpaceOnUse" id="color-1"><stop offset="0" stop-color="#0f0f0f"/><stop offset="1" stop-color="#737373"/></linearGradient><linearGradient x1="207.77873" y1="302.67613" x2="192.31452" y2="307.75315" gradientUnits="userSpaceOnUse" id="color-2"><stop offset="0" stop-color="#0f0f0f"/><stop offset="1" stop-color="#737373"/></linearGradient><linearGradient x1="242.13465" y1="345.81341" x2="226.67048" y2="350.89043" gradientUnits="userSpaceOnUse" id="color-3"><stop offset="0" stop-color="#0f0f0f"/><stop offset="1" stop-color="#737373"/></linearGradient><linearGradient x1="224.50591" y1="351.69187" x2="208.9468" y2="356.80004" gradientUnits="userSpaceOnUse" id="color-4"><stop offset="0" stop-color="#0f0f0f"/><stop offset="1" stop-color="#737373"/></linearGradient><linearGradient x1="204.04922" y1="330.67785" x2="197.14307" y2="332.94519" gradientUnits="userSpaceOnUse" id="color-5"><stop offset="0" stop-color="#595959"/><stop offset="1" stop-color="#afafaf"/></linearGradient><linearGradient x1="236.62779" y1="320.13898" x2="229.72164" y2="322.40631" gradientUnits="userSpaceOnUse" id="color-6"><stop offset="0" stop-color="#afafaf"/><stop offset="1" stop-color="#595959"/></linearGradient><linearGradient x1="222.00682" y1="324.92485" x2="212.29813" y2="328.11227" gradientUnits="userSpaceOnUse" id="color-7"><stop offset="0" stop-color="#afafaf"/><stop offset="1" stop-color="#595959"/></linearGradient><radialGradient cx="232.79852" cy="367.38396" r="10.52378" gradientUnits="userSpaceOnUse" id="color-8"><stop offset="0" stop-color="#656565"/><stop offset="1" stop-color="#404040"/></radialGradient><linearGradient x1="245.10965" y1="321.9785" x2="192.15764" y2="339.36308" gradientUnits="userSpaceOnUse" id="color-9"><stop offset="0" stop-color="#cb80ce"/><stop offset="1" stop-color="#a946ad"/></linearGradient><linearGradient x1="2.377" y1="297.92685" x2="18.4454" y2="301.08643" gradientUnits="userSpaceOnUse" id="color-10"><stop offset="0" stop-color="#0f0f0f"/><stop offset="1" stop-color="#737373"/></linearGradient><linearGradient x1="20.6653" y1="301.7462" x2="36.63578" y2="304.88652" gradientUnits="userSpaceOnUse" id="color-11"><stop offset="0" stop-color="#0f0f0f"/><stop offset="1" stop-color="#737373"/></linearGradient><linearGradient x1="-8.13551" y1="348.77459" x2="7.83495" y2="351.9149" gradientUnits="userSpaceOnUse" id="color-12"><stop offset="0" stop-color="#0f0f0f"/><stop offset="1" stop-color="#737373"/></linearGradient><linearGradient x1="10.08152" y1="352.44455" x2="26.15" y2="355.60415" gradientUnits="userSpaceOnUse" id="color-13"><stop offset="0" stop-color="#0f0f0f"/><stop offset="1" stop-color="#737373"/></linearGradient><linearGradient x1="27.80395" y1="329.0783" x2="34.93618" y2="330.48075" gradientUnits="userSpaceOnUse" id="color-14"><stop offset="0" stop-color="#595959"/><stop offset="1" stop-color="#afafaf"/></linearGradient><linearGradient x1="-5.82194" y1="322.6183" x2="1.31032" y2="324.02074" gradientUnits="userSpaceOnUse" id="color-15"><stop offset="0" stop-color="#afafaf"/><stop offset="1" stop-color="#595959"/></linearGradient><linearGradient x1="9.27595" y1="325.5732" x2="19.30248" y2="327.54473" gradientUnits="userSpaceOnUse" id="color-16"><stop offset="0" stop-color="#afafaf"/><stop offset="1" stop-color="#595959"/></linearGradient><radialGradient cx="3.7779" cy="369.03593" r="10.52378" gradientUnits="userSpaceOnUse" id="color-17"><stop offset="0" stop-color="#656565"/><stop offset="1" stop-color="#404040"/></radialGradient><linearGradient x1="-14.01385" y1="325.4852" x2="40.67172" y2="336.23819" gradientUnits="userSpaceOnUse" id="color-18"><stop offset="0" stop-color="#cb80ce"/><stop offset="1" stop-color="#a946ad"/></linearGradient><linearGradient x1="107.99855" y1="222.73224" x2="119.05148" y2="223.1994" gradientUnits="userSpaceOnUse" id="color-19"><stop offset="0" stop-color="#afafaf"/><stop offset="1" stop-color="#595959"/></linearGradient><linearGradient x1="113.14773" y1="298.36349" x2="112.60424" y2="311.22204" gradientUnits="userSpaceOnUse" id="color-20"><stop offset="0" stop-color="#afafaf"/><stop offset="1" stop-color="#595959"/></linearGradient><linearGradient x1="56.22196" y1="291.42454" x2="55.29353" y2="313.39127" gradientUnits="userSpaceOnUse" id="color-21"><stop offset="0" stop-color="#7c7c7c"/><stop offset="1" stop-color="#111111"/></linearGradient><linearGradient x1="76.86259" y1="293.13645" x2="75.93417" y2="315.10317" gradientUnits="userSpaceOnUse" id="color-22"><stop offset="0" stop-color="#7c7c7c"/><stop offset="1" stop-color="#111111"/></linearGradient><linearGradient x1="149.07979" y1="295.5845" x2="148.15135" y2="317.55123" gradientUnits="userSpaceOnUse" id="color-23"><stop offset="0" stop-color="#7c7c7c"/><stop offset="1" stop-color="#111111"/></linearGradient><linearGradient x1="169.72041" y1="297.29641" x2="168.792" y2="319.26314" gradientUnits="userSpaceOnUse" id="color-24"><stop offset="0" stop-color="#7c7c7c"/><stop offset="1" stop-color="#111111"/></linearGradient><linearGradient x1="111.71931" y1="332.15971" x2="111.17585" y2="345.01831" gradientUnits="userSpaceOnUse" id="color-25"><stop offset="0" stop-color="#afafaf"/><stop offset="1" stop-color="#595959"/></linearGradient><linearGradient x1="59.90054" y1="325.43663" x2="58.97211" y2="347.40336" gradientUnits="userSpaceOnUse" id="color-26"><stop offset="0" stop-color="#7c7c7c"/><stop offset="1" stop-color="#111111"/></linearGradient><linearGradient x1="78.69246" y1="327.07044" x2="77.76404" y2="349.03717" gradientUnits="userSpaceOnUse" id="color-27"><stop offset="0" stop-color="#7c7c7c"/><stop offset="1" stop-color="#111111"/></linearGradient><linearGradient x1="144.4548" y1="329.24565" x2="143.52638" y2="351.21236" gradientUnits="userSpaceOnUse" id="color-28"><stop offset="0" stop-color="#7c7c7c"/><stop offset="1" stop-color="#111111"/></linearGradient><linearGradient x1="163.24677" y1="330.87944" x2="162.31835" y2="352.84617" gradientUnits="userSpaceOnUse" id="color-29"><stop offset="0" stop-color="#7c7c7c"/><stop offset="1" stop-color="#111111"/></linearGradient><linearGradient x1="110.29091" y1="365.95598" x2="109.74744" y2="378.81457" gradientUnits="userSpaceOnUse" id="color-30"><stop offset="0" stop-color="#afafaf"/><stop offset="1" stop-color="#595959"/></linearGradient><linearGradient x1="64.85586" y1="359.50271" x2="63.92745" y2="381.46945" gradientUnits="userSpaceOnUse" id="color-31"><stop offset="0" stop-color="#7c7c7c"/><stop offset="1" stop-color="#111111"/></linearGradient><linearGradient x1="81.33693" y1="361.03882" x2="80.4085" y2="383.00557" gradientUnits="userSpaceOnUse" id="color-32"><stop offset="0" stop-color="#7c7c7c"/><stop offset="1" stop-color="#111111"/></linearGradient><linearGradient x1="139.03071" y1="362.87302" x2="138.10228" y2="384.83976" gradientUnits="userSpaceOnUse" id="color-33"><stop offset="0" stop-color="#7c7c7c"/><stop offset="1" stop-color="#111111"/></linearGradient><linearGradient x1="155.51174" y1="364.40913" x2="154.58332" y2="386.37587" gradientUnits="userSpaceOnUse" id="color-34"><stop offset="0" stop-color="#7c7c7c"/><stop offset="1" stop-color="#111111"/></linearGradient><linearGradient x1="94.57618" y1="350.94979" x2="123.91512" y2="352.18981" gradientUnits="userSpaceOnUse" id="color-35"><stop offset="0" stop-color="#afafaf"/><stop offset="1" stop-color="#595959"/></linearGradient><linearGradient x1="112.90773" y1="280.32075" x2="112.62205" y2="287.08005" gradientUnits="userSpaceOnUse" id="color-36"><stop offset="0" stop-color="#afafaf"/><stop offset="1" stop-color="#595959"/></linearGradient><radialGradient cx="205.25238" cy="284.9761" r="10.52378" gradientUnits="userSpaceOnUse" id="color-37"><stop offset="0" stop-color="#656565"/><stop offset="1" stop-color="#404040"/></radialGradient><linearGradient x1="112.24453" y1="275.86383" x2="111.5462" y2="292.38652" gradientUnits="userSpaceOnUse" id="color-38"><stop offset="0" stop-color="#595959"/><stop offset="1" stop-color="#393939"/></linearGradient><radialGradient cx="25.00573" cy="277.35793" r="10.52378" gradientUnits="userSpaceOnUse" id="color-39"><stop offset="0" stop-color="#656565"/><stop offset="1" stop-color="#404040"/></radialGradient><linearGradient x1="90.33646" y1="438.59586" x2="120.79565" y2="439.88321" gradientUnits="userSpaceOnUse" id="color-40"><stop offset="0" stop-color="#595959"/><stop offset="1" stop-color="#393939"/></linearGradient><linearGradient x1="88.46726" y1="428.11145" x2="123.54283" y2="429.59392" gradientUnits="userSpaceOnUse" id="color-41"><stop offset="0" stop-color="#393939"/><stop offset="1" stop-color="#151515"/></linearGradient><linearGradient x1="87.95509" y1="440.22944" x2="123.03066" y2="441.71192" gradientUnits="userSpaceOnUse" id="color-42"><stop offset="0" stop-color="#393939"/><stop offset="1" stop-color="#151515"/></linearGradient><radialGradient cx="32.75998" cy="263.3806" r="25.49689" gradientUnits="userSpaceOnUse" id="color-43"><stop offset="0" stop-color="#cb80ce"/><stop offset="1" stop-color="#a946ad"/></radialGradient><radialGradient cx="192.18139" cy="270.11857" r="25.49689" gradientUnits="userSpaceOnUse" id="color-44"><stop offset="0" stop-color="#cb80ce"/><stop offset="1" stop-color="#a946ad"/></radialGradient><linearGradient x1="114.84407" y1="243.11066" x2="105.83199" y2="456.33725" gradientUnits="userSpaceOnUse" id="color-45"><stop offset="0" stop-color="#cb80ce"/><stop offset="1" stop-color="#a946ad"/></linearGradient><radialGradient cx="124.63436" cy="312.095" r="90.17984" gradientUnits="userSpaceOnUse" id="color-46"><stop offset="0" stop-color="#d3afd3"/><stop offset="1" stop-color="#c0a0c1"/></radialGradient><linearGradient x1="126.62672" y1="181.64307" x2="118.05878" y2="268.00737" gradientUnits="userSpaceOnUse" id="color-47"><stop offset="0" stop-color="#cb80ce"/><stop offset="1" stop-color="#a946ad"/></linearGradient><linearGradient x1="121.75326" y1="230.76695" x2="116.68041" y2="281.90101" gradientUnits="userSpaceOnUse" id="color-48"><stop offset="0" stop-color="#cb80ce"/><stop offset="1" stop-color="#a946ad"/></linearGradient><linearGradient x1="126.27136" y1="181.83514" x2="118.3065" y2="262.12038" gradientUnits="userSpaceOnUse" id="color-49"><stop offset="0" stop-color="#330000"/><stop offset="1" stop-color="#9c0000"/></linearGradient><linearGradient x1="124.28348" y1="199.05568" x2="124.0634" y2="201.27412" gradientUnits="userSpaceOnUse" id="color-50"><stop offset="0" stop-color="#898989"/><stop offset="1" stop-color="#2e2e2e"/></linearGradient><linearGradient x1="123.50244" y1="206.46932" x2="121.97889" y2="221.82655" gradientUnits="userSpaceOnUse" id="color-51"><stop offset="0" stop-color="#8a8a8a"/><stop offset="1" stop-color="#0f0f0f"/></linearGradient><linearGradient x1="123.64194" y1="205.06321" x2="122.1184" y2="220.42045" gradientUnits="userSpaceOnUse" id="color-52"><stop offset="0" stop-color="#898989"/><stop offset="1" stop-color="#2e2e2e"/></linearGradient><linearGradient x1="132.51484" y1="116.08276" x2="131.9576" y2="121.69971" gradientUnits="userSpaceOnUse" id="color-53"><stop offset="0" stop-color="#afafaf"/><stop offset="1" stop-color="#7a7a7a"/></linearGradient><linearGradient x1="82.88915" y1="106.37808" x2="76.73785" y2="168.38285" gradientUnits="userSpaceOnUse" id="color-54"><stop offset="0" stop-color="#afafaf"/><stop offset="1" stop-color="#7a7a7a"/></linearGradient><linearGradient x1="182.91597" y1="116.30144" x2="176.76468" y2="178.3062" gradientUnits="userSpaceOnUse" id="color-55"><stop offset="0" stop-color="#afafaf"/><stop offset="1" stop-color="#7a7a7a"/></linearGradient><linearGradient x1="129.29018" y1="150.71291" x2="124.49848" y2="199.013" gradientUnits="userSpaceOnUse" id="color-56"><stop offset="0" stop-color="#424242"/><stop offset="1" stop-color="#000000"/></linearGradient><linearGradient x1="130.08816" y1="136.73778" x2="129.3636" y2="144.04129" gradientUnits="userSpaceOnUse" id="color-57"><stop offset="0" stop-color="#b8b8b8"/><stop offset="1" stop-color="#313131"/></linearGradient><radialGradient cx="100.16011" cy="137.56646" r="24.46047" gradientUnits="userSpaceOnUse" id="color-58"><stop offset="0" stop-color="#ffffff"/><stop offset="1" stop-color="#cccccc"/></radialGradient><radialGradient cx="159.29069" cy="143.43263" r="24.46047" gradientUnits="userSpaceOnUse" id="color-59"><stop offset="0" stop-color="#ffffff"/><stop offset="1" stop-color="#cccccc"/></radialGradient><linearGradient x1="132.54066" y1="113.18467" x2="125.93815" y2="176.40353" gradientUnits="userSpaceOnUse" id="color-60"><stop offset="0" stop-color="#9d9d9d"/><stop offset="1" stop-color="#6e6e6e"/></linearGradient><linearGradient x1="139.54193" y1="175.55861" x2="135.6662" y2="214.6257" gradientUnits="userSpaceOnUse" id="color-61"><stop offset="0" stop-color="#afafaf"/><stop offset="1" stop-color="#595959"/></linearGradient><linearGradient x1="114.06337" y1="173.03096" x2="110.18766" y2="212.09805" gradientUnits="userSpaceOnUse" id="color-62"><stop offset="0" stop-color="#afafaf"/><stop offset="1" stop-color="#595959"/></linearGradient><linearGradient x1="190.8628" y1="142.82571" x2="186.27535" y2="184.58687" gradientUnits="userSpaceOnUse" id="color-63"><stop offset="0" stop-color="#afafaf"/><stop offset="1" stop-color="#595959"/></linearGradient><linearGradient x1="65.23201" y1="87.35394" x2="68.43912" y2="84.74963" gradientUnits="userSpaceOnUse" id="color-64"><stop offset="0" stop-color="#d3d3d3"/><stop offset="1" stop-color="#868686"/></linearGradient><linearGradient x1="46.68572" y1="27.49794" x2="40.7746" y2="87.08185" gradientUnits="userSpaceOnUse" id="color-65"><stop offset="0" stop-color="#cb80ce"/><stop offset="1" stop-color="#a946ad"/></linearGradient><radialGradient cx="44.54564" cy="58.94148" r="23.50748" gradientUnits="userSpaceOnUse" id="color-66"><stop offset="0" stop-color="#d3afd3"/><stop offset="1" stop-color="#947b95"/></radialGradient><radialGradient cx="82.94146" cy="105.85085" r="3.92081" gradientUnits="userSpaceOnUse" id="color-67"><stop offset="0" stop-color="#a9a9a9"/><stop offset="1" stop-color="#5d5d5d"/></radialGradient><linearGradient x1="203.96689" y1="101.11739" x2="201.33397" y2="97.93373" gradientUnits="userSpaceOnUse" id="color-68"><stop offset="0" stop-color="#d3d3d3"/><stop offset="1" stop-color="#868686"/></linearGradient><linearGradient x1="233.91214" y1="46.07209" x2="228.00098" y2="105.65601" gradientUnits="userSpaceOnUse" id="color-69"><stop offset="0" stop-color="#cb80ce"/><stop offset="1" stop-color="#a946ad"/></linearGradient><radialGradient cx="230.86711" cy="74.92044" r="23.50748" gradientUnits="userSpaceOnUse" id="color-70"><stop offset="0" stop-color="#d3afd3"/><stop offset="1" stop-color="#947b95"/></radialGradient><radialGradient cx="182.96828" cy="115.7742" r="3.92081" gradientUnits="userSpaceOnUse" id="color-71"><stop offset="0" stop-color="#a9a9a9"/><stop offset="1" stop-color="#5d5d5d"/></radialGradient><linearGradient x1="136.04747" y1="76.19562" x2="123.40958" y2="203.5849" gradientUnits="userSpaceOnUse" id="color-72"><stop offset="0" stop-color="#cb80ce"/><stop offset="1" stop-color="#a946ad"/></linearGradient><linearGradient x1="34.40732" y1="144.10432" x2="30.20109" y2="186.50291" gradientUnits="userSpaceOnUse" id="color-73"><stop offset="0" stop-color="#d3afd3"/><stop offset="1" stop-color="#c0a0c1"/></linearGradient><linearGradient x1="32.35781" y1="161.30731" x2="29.2272" y2="192.86365" gradientUnits="userSpaceOnUse" id="color-74"><stop offset="0" stop-color="#d3afd3"/><stop offset="1" stop-color="#c0a0c1"/></linearGradient><linearGradient x1="27.86647" y1="179.25522" x2="25.75966" y2="200.4918" gradientUnits="userSpaceOnUse" id="color-75"><stop offset="0" stop-color="#d3afd3"/><stop offset="1" stop-color="#c0a0c1"/></linearGradient><linearGradient x1="29.87332" y1="186.25562" x2="27.44527" y2="210.73018" gradientUnits="userSpaceOnUse" id="color-76"><stop offset="0" stop-color="#d3afd3"/><stop offset="1" stop-color="#c0a0c1"/></linearGradient><linearGradient x1="31.54099" y1="183.5138" x2="27.88586" y2="220.35738" gradientUnits="userSpaceOnUse" id="color-77"><stop offset="0" stop-color="#d3afd3"/><stop offset="1" stop-color="#c0a0c1"/></linearGradient><linearGradient x1="219.58638" y1="162.47537" x2="215.38014" y2="204.87397" gradientUnits="userSpaceOnUse" id="color-78"><stop offset="0" stop-color="#d3afd3"/><stop offset="1" stop-color="#c0a0c1"/></linearGradient><linearGradient x1="218.21593" y1="179.74574" x2="215.08532" y2="211.30211" gradientUnits="userSpaceOnUse" id="color-79"><stop offset="0" stop-color="#d3afd3"/><stop offset="1" stop-color="#c0a0c1"/></linearGradient><linearGradient x1="219.09331" y1="198.22624" x2="216.9865" y2="219.46281" gradientUnits="userSpaceOnUse" id="color-80"><stop offset="0" stop-color="#d3afd3"/><stop offset="1" stop-color="#c0a0c1"/></linearGradient><linearGradient x1="215.7501" y1="204.69589" x2="213.32204" y2="229.17044" gradientUnits="userSpaceOnUse" id="color-81"><stop offset="0" stop-color="#d3afd3"/><stop offset="1" stop-color="#c0a0c1"/></linearGradient><linearGradient x1="214.65382" y1="201.67989" x2="210.99868" y2="238.52343" gradientUnits="userSpaceOnUse" id="color-82"><stop offset="0" stop-color="#d3afd3"/><stop offset="1" stop-color="#c0a0c1"/></linearGradient><radialGradient cx="107.95965" cy="179.7165" r="39.4112" gradientUnits="userSpaceOnUse" id="color-83"><stop offset="0" stop-color="#d3afd3"/><stop offset="1" stop-color="#c0a0c1"/></radialGradient><radialGradient cx="171.51235" cy="183.09836" r="39.4112" gradientUnits="userSpaceOnUse" id="color-84"><stop offset="0" stop-color="#d3afd3"/><stop offset="1" stop-color="#c0a0c1"/></radialGradient><radialGradient cx="129.6848" cy="164.53466" r="11.39512" gradientUnits="userSpaceOnUse" id="color-85"><stop offset="0" stop-color="#858585"/><stop offset="1" stop-color="#000000"/></radialGradient><radialGradient cx="62.05002" cy="97.49807" r="25.59881" gradientUnits="userSpaceOnUse" id="color-86"><stop offset="0" stop-color="#2e2540"/><stop offset="1" stop-color="#694da0"/></radialGradient><radialGradient cx="93.63358" cy="81.21614" r="25.59881" gradientUnits="userSpaceOnUse" id="color-87"><stop offset="0" stop-color="#2e2540"/><stop offset="1" stop-color="#694da0"/></radialGradient><radialGradient cx="78.03533" cy="89.75675" r="15.10149" gradientUnits="userSpaceOnUse" id="color-88"><stop offset="0" stop-color="#8461ca"/><stop offset="1" stop-color="#4e3f6d"/></radialGradient></defs><g transform="translate(27.07379,-24.55228)"><g data-paper-data="{&quot;isPaintingLayer&quot;:true}" fill-rule="nonzero" stroke-linecap="butt" stroke-linejoin="miter" stroke-miterlimit="10" stroke-dasharray="" stroke-dashoffset="0" style="mix-blend-mode: normal"><path d="M176.10528,429.84426c-7.52771,31.29874 -133.69802,28.01274 -138.24968,-8.49323c-0.58835,0.97908 9.74535,-37.51211 9.38375,-71.3398c-0.36159,-33.82769 -28.27127,-108.67242 63.10661,-106.23693c103.17928,1.34681 63.83809,76.53227 61.50235,114.11028c-2.42659,39.03993 5.09018,72.34048 4.25696,71.95967z" data-paper-data="{&quot;index&quot;:null}" fill="#484848" stroke="#000000" stroke-width="0"/><g data-paper-data="{&quot;index&quot;:null}" stroke="none"><path d="M231.5931,290.00883c9.11249,6.63463 20.2394,60.12198 18.03027,70.18699c-1.00844,4.59451 -34.9807,16.3749 -38.72132,13.27327c-8.13557,-6.74592 -30.52471,-59.20921 -26.83357,-68.32389c3.69112,-9.11469 38.41213,-21.77099 47.52461,-15.13637z" fill="#484848" stroke-width="0"/><g><g><path d="M208.11287,288.27834c2.50465,0.15871 2.34592,2.66337 2.34592,2.66337l-0.19186,1.90317c0.5592,3.15754 1.0379,6.23383 1.50767,9.32832c2.68295,1.22968 5.80516,2.31135 8.15699,4.51857c3.21902,3.02109 4.33644,10.41626 4.95368,14.52142c-0.1943,2.18163 -0.57554,4.03467 -1.1742,5.76006c5.06981,5.6866 9.6226,11.93435 9.59008,19.94382c-0.01288,3.17397 -0.97911,5.74165 -2.09836,8.32237c1.34114,3.03601 1.36219,6.87997 1.83769,9.9827c0,0 0.3802,2.48072 -2.10051,2.86086c-2.48072,0.3802 -2.86086,-2.10051 -2.86086,-2.10051c-0.1841,-1.20129 -0.23376,-2.8854 -0.41309,-4.56051c-0.4386,0.13491 -0.97816,0.14021 -1.63144,-0.10383c-2.351,-0.87827 -1.47273,-3.22924 -1.47273,-3.22924c0.30037,-0.7926 0.6351,-1.5513 0.97724,-2.29437c-4.72363,-4.6765 -13.87207,-6.64052 -14.42889,-14.76447c-0.3562,-5.19691 3.67411,-8.99771 6.39946,-13.35886c-1.26806,-1.34601 -2.50832,-2.67211 -3.63043,-4.00455c-3.5035,-4.16029 -4.5814,-10.29274 -6.23644,-15.37622c-0.10278,-0.66945 -0.20428,-1.33499 -0.3052,-1.99778c-0.80227,-0.3559 -1.55596,-0.76438 -2.22682,-1.27006c-3.91957,-2.95443 -4.55785,-8.91982 -3.6271,-13.21901l-0.00288,-2.66777c0,0 0.01134,-2.50964 2.521,-2.49827c1.82624,0.00828 2.31754,1.3395 2.44969,2.06387c0.38679,-0.28454 0.92185,-0.4699 1.66142,-0.42306zM228.28187,346.93121c0.03091,-5.98543 -3.16379,-10.76837 -6.95498,-15.11315c-0.45898,0.72914 -0.96522,1.47119 -1.52128,2.24293c-1.3641,1.89321 -3.90618,3.90716 -3.69432,6.54091c0.40369,5.01876 7.20595,7.60821 11.44536,10.50736c0.43098,-1.29502 0.71734,-2.65741 0.7252,-4.17809zM217.63093,320.33209c0.66915,0.75204 1.35963,1.50563 2.06067,2.26394c0.08115,-0.3988 0.14108,-0.80558 0.17694,-1.22134c-0.41124,-2.61209 -1.30109,-9.35689 -3.46091,-11.10871c-1.03905,-0.84273 -2.24694,-1.4419 -3.51162,-1.94347c1.16158,3.976 2.08456,9.03092 4.73491,12.0096z" fill="#000000" stroke-width="0.5"/><path d="M208.97112,298.91717l0.46821,-2.55318l16.9502,3.10843l-0.4682,2.55317z" fill="url(#color-1)" stroke-width="0"/><path d="M195.20525,312.45951l-1.91933,-1.74757l11.60209,-12.74215l1.91933,1.74757z" data-paper-data="{&quot;index&quot;:null}" fill="url(#color-2)" stroke-width="0"/><path d="M239.24392,341.10711l1.91933,1.74757l-11.60209,12.74215l-1.91933,-1.74757z" data-paper-data="{&quot;index&quot;:null}" fill="url(#color-3)" stroke-width="0"/><path d="M225.43558,354.52359l-0.46821,2.55316l-16.95021,-3.1084l0.46821,-2.55318z" data-paper-data="{&quot;index&quot;:null}" fill="url(#color-4)" stroke-width="0"/><path d="M206.66136,360.41204l-18.56721,-55.02914l6.4368,-2.17185l18.56721,55.02914z" fill="url(#color-5)" stroke-width="0"/><path d="M239.2399,349.8731l-18.56721,-55.02914l6.4368,-2.17185l18.56721,55.02914z" fill="url(#color-6)" stroke-width="0"/><path d="M225.67896,366.72527l-26.10189,-77.36024l9.04888,-3.05316l26.10189,77.36024z" fill="url(#color-7)" stroke-width="0"/></g><path d="M241.35798,366.94732c1.68346,5.12769 -1.42837,10.75418 -6.95053,12.56715c-5.52213,1.81296 -11.36343,-0.87414 -13.04687,-6.00184c-1.68346,-5.12769 1.42838,-10.75419 6.95053,-12.56716c5.52213,-1.81296 11.36342,0.87416 13.04688,6.00186z" fill="url(#color-8)" stroke-width="0"/></g><path d="M231.5931,290.00883c9.11249,6.63463 20.2394,60.12198 18.03027,70.18699c-1.00844,4.59451 -34.9807,16.3749 -38.72132,13.27327c-8.13557,-6.74592 -30.52471,-59.20921 -26.83357,-68.32389c3.69112,-9.11469 38.41213,-21.77099 47.52461,-15.13637z" fill="url(#color-9)" stroke-width="0"/></g><g stroke="none"><path d="M44.49933,301.28606c4.78209,8.59264 -10.99764,63.40752 -18.24359,71.10109c-3.3316,3.53737 -38.49299,-3.98371 -40.05782,-8.41965c-3.42793,-9.7177 1.04902,-64.16641 9.27817,-71.86947c8.22914,-7.70306 44.24119,0.59542 49.02325,9.18804z" fill="#484848" stroke-width="0"/><g><g><path d="M18.56628,287.49829c0.72824,-0.1373 1.28199,-0.01901 1.70079,0.2159c0.04222,-0.73512 0.36636,-2.11659 2.1778,-2.34897c2.48927,-0.31936 2.8086,2.16993 2.8086,2.16993l0.32461,2.64796c1.45143,4.15243 1.55025,10.15107 -1.97699,13.5643c-0.60373,0.58422 -1.30157,1.08212 -2.05407,1.53381c-0.01877,0.67016 -0.03783,1.34315 -0.05765,2.02015c-1.0185,5.2482 -1.33545,11.4666 -4.30177,16.02549c-0.95006,1.46011 -2.01816,2.92841 -3.11139,4.41992c3.24008,3.99364 7.70646,7.27096 7.99091,12.47228c0.44464,8.13086 -8.39352,11.20303 -12.50736,16.42401c0.43076,0.69547 0.8561,1.4073 1.2515,2.15706c0,0 1.16022,2.22538 -1.06518,3.3856c-0.61838,0.32238 -1.15452,0.38337 -1.60636,0.30331c0.02766,1.68446 0.18512,3.36192 0.14986,4.57673c0,0 -0.07278,2.50862 -2.5814,2.43582c-2.50862,-0.07278 -2.43582,-2.5814 -2.43582,-2.5814c0.09104,-3.13762 -0.35993,-6.95511 0.59838,-10.13278c-1.42758,-2.4238 -2.70167,-4.85346 -3.10408,-8.00186c-1.01545,-7.9449 2.73595,-14.70426 7.06936,-20.9702c-0.80595,-1.63886 -1.41177,-3.43105 -1.8724,-5.57236c0.10864,-4.1499 0.30982,-11.6263 3.13365,-15.01969c2.06309,-2.47922 5.02892,-3.93597 7.54063,-5.4857c0.08634,-3.12876 0.18382,-6.24054 0.35117,-9.44284l-0.42403,-1.86522c0,0 -0.46499,-2.46623 2.00125,-2.9312zM5.74974,348.18337c0.19447,1.50821 0.6459,2.82514 1.2326,4.05746c3.85145,-3.39763 10.28444,-6.8025 10.06898,-11.83286c-0.11305,-2.63985 -2.88311,-4.3265 -4.4693,-6.03796c-0.64659,-0.69765 -1.24011,-1.37194 -1.78511,-2.03922c-3.22918,4.77728 -5.8126,9.91623 -5.04718,15.8526zM13.05494,320.47808c2.26466,-3.2815 2.56014,-8.41146 3.22487,-12.50001c-1.19355,0.65303 -2.31877,1.39593 -3.2465,2.35984c-1.92843,2.00368 -1.98361,8.80671 -2.07108,11.44954c0.08661,0.40821 0.19603,0.80456 0.32552,1.19038c0.60266,-0.83864 1.19542,-1.67129 1.76719,-2.49978z" fill="#000000" stroke-width="0.5"/><path d="M2.58003,303.32766l-0.77805,-2.4764l16.44044,-5.16562l0.7781,2.4764z" fill="url(#color-10)" stroke-width="0"/><path d="M21.26615,298.69053l1.6903,-1.96997l13.07851,11.22158l-1.6903,1.96997z" data-paper-data="{&quot;index&quot;:null}" fill="url(#color-11)" stroke-width="0"/><path d="M7.23411,354.9706l-1.6903,1.96997l-13.07851,-11.22158l1.6903,-1.96997z" data-paper-data="{&quot;index&quot;:null}" fill="url(#color-12)" stroke-width="0"/><path d="M25.94694,350.20336l0.7781,2.4764l-16.44044,5.1656l-0.77809,-2.47637z" data-paper-data="{&quot;index&quot;:null}" fill="url(#color-13)" stroke-width="0"/><path d="M22.20684,357.54299l11.67173,-56.89216l6.65471,1.36529l-11.67173,56.89216z" fill="url(#color-14)" stroke-width="0"/><path d="M-11.41902,351.08297l11.67173,-56.89216l6.65471,1.36529l-11.67173,56.89216z" fill="url(#color-15)" stroke-width="0"/><path d="M1.4075,365.58898l16.40819,-79.97929l9.35524,1.91928l-16.40819,79.97929z" fill="url(#color-16)" stroke-width="0"/></g><path d="M7.44102,362.09527c5.70294,1.12138 9.48191,6.32335 8.44064,11.61891c-1.04129,5.29558 -6.50853,8.67939 -12.21145,7.558c-5.70294,-1.12138 -9.48192,-6.32332 -8.44062,-11.61889c1.04129,-5.29558 6.50853,-8.67942 12.21146,-7.55802z" fill="url(#color-17)" stroke-width="0"/></g><path d="M44.49933,301.28606c4.78209,8.59264 -10.99764,63.40752 -18.24359,71.10109c-3.3316,3.53737 -38.49299,-3.98371 -40.05782,-8.41965c-3.42793,-9.7177 1.04902,-64.16641 9.27817,-71.86947c8.22914,-7.70306 44.24119,0.59542 49.02325,9.18804z" fill="url(#color-18)" stroke-width="0"/></g><path d="M201.51547,211.33354l-156.3417,-16.46778c0,0 -14.83361,-29.81456 -2.73973,-58.46386c14.32187,-33.92721 8.56151,-68.74509 94.54843,-60.11332c84.11328,8.48666 68.29605,39.26879 77.68839,74.86352c9.24515,35.03687 -13.15538,60.1814 -13.15538,60.1814z" fill="#484848" stroke="none" stroke-width="0"/><g stroke="none"><path d="M115.00256,421.58852c-0.07376,0.67877 -0.58228,3.57733 -3.88245,3.43785c-0.01672,-0.0007 -0.03338,-0.00149 -0.04993,-0.00233c-0.02342,1.13268 -0.45435,3.02617 -2.97302,3.54392c-3.66319,0.75303 -4.4162,-2.91017 -4.4162,-2.91017l-0.70051,-3.96235c0.18381,-4.34907 1.49985,-10.66345 -1.03253,-14.61996c-3.9275,-6.13618 -13.56029,-11.83628 -11.82031,-20.45008c0.98616,-4.88207 3.77814,-7.47204 7.07409,-9.61425c-0.50445,-1.85574 -0.8713,-3.81838 -1.14236,-5.96635c0.02594,-0.64926 0.36741,-10.44004 0.59279,-11.11372c2.09239,-6.25424 9.02047,-10.30149 14.14372,-13.57581c3.03497,-1.93969 6.26872,-3.69429 9.42239,-5.56144c-6.20942,-8.45855 -18.03406,-15.13702 -24.35524,-20.80741c-4.77192,-4.28064 -5.27232,-10.49425 -7.32649,-16.34074c-0.95641,-3.50804 -3.05087,-8.80212 -5.33489,-11.6142c-2.67709,-3.29607 -14.88343,-3.2694 -18.70283,-4.47764c-13.75734,-4.35205 -26.97834,-4.66794 -41.25905,-2.43428c0,0 -3.69485,0.57791 -4.27277,-3.1169c-0.57791,-3.69485 3.11691,-4.27279 3.11691,-4.27279c10.38914,-1.62501 20.81306,-2.40484 31.3341,-1.00425c6.13557,0.81677 11.54915,3.32048 17.50705,4.55925c4.91098,1.02109 13.87654,1.69799 17.56895,5.46134c3.08175,3.14099 5.92266,10.45411 7.16806,14.62573c1.17991,3.34973 1.7077,7.93307 3.10183,10.99567c1.7661,3.87972 9.59325,6.5972 12.82172,9.06578c5.27832,4.036 10.72948,9.4244 14.55585,15.53032c4.02865,-2.93217 7.56775,-6.43803 9.89598,-11.28769c6.06756,-12.63873 -9.04659,-18.9906 -10.31684,-29.50804c-0.53171,-4.40245 2.09247,-7.90296 4.02536,-11.42898c6.48115,-7.74095 23.84325,-18.08374 33.69294,-11.07631c4.16052,2.95995 5.69241,8.82699 9.80323,11.58237c7.89884,5.29434 22.56061,2.05598 31.40621,2.39692c0,0 3.73644,0.15793 3.57852,3.89435c-0.15793,3.73644 -3.89435,3.57852 -3.89435,3.57852c-10.43823,-0.4869 -25.45188,2.73154 -34.89496,-3.4302c-4.53671,-2.96029 -6.38497,-8.47923 -10.37607,-11.95718c-2.32357,-2.0248 -4.56314,-0.62331 -7.42769,0.13756c-5.58448,1.48329 -12.12397,4.52105 -15.69711,9.07135c-4.28645,7.62333 -1.68845,7.3137 2.9785,14.03528c4.89465,7.04953 7.72741,17.52232 3.95534,25.74612c-3.02567,6.5965 -7.90115,11.10022 -13.38613,14.89214c2.4638,6.51619 2.68362,13.5256 -1.12642,20.39761c-4.1006,7.39601 -13.68488,9.12573 -19.63067,14.62904c-0.75149,0.50994 -1.56167,0.96569 -2.39229,1.40491c0.70267,1.30145 1.55039,2.59397 2.56986,3.94249c2.79469,3.69663 7.62223,6.60269 9.18795,11.16613c2.25535,6.5733 0.21808,20.07176 -3.09022,26.43839zM110.34859,408.39491c0.13959,-3.13179 1.8704,-7.55881 0.74963,-10.59532c-1.32324,-3.58517 -5.8611,-6.22183 -8.09948,-9.22629c-1.18145,-1.58581 -2.1774,-3.11833 -3.01809,-4.65439c-1.12039,1.04039 -2.01026,2.31801 -2.4882,4.01148c-1.31396,4.65571 8.77828,11.72863 10.86799,15.29505c1.00635,1.71744 1.61899,3.5498 1.97686,5.44225c0.00344,-0.09001 0.00718,-0.18094 0.01129,-0.2728zM114.80265,352.67113c-3.29411,2.10339 -9.80387,5.32985 -11.03315,9.55916c-0.7923,2.72595 -0.10961,5.67705 -0.23673,8.51299c0.09078,0.75763 0.19992,1.48349 0.33005,2.18393c0.06907,-0.04734 0.13805,-0.09498 0.20685,-0.14292c4.91519,-4.48615 14.58279,-6.68068 17.81558,-12.52469c2.59243,-4.68638 2.89382,-8.96888 1.72585,-12.90461c-2.9445,1.77142 -5.93592,3.48192 -8.80842,5.31615z" fill="#000000" stroke-width="0.5"/><g stroke-width="0"><g><path d="M105.38577,284.55055l5.22553,-123.63663l11.05294,0.46714l-5.22553,123.63663z" fill="url(#color-19)"/><g><path d="M45.40777,308.38197l0.54347,-12.85857l134.39295,5.68015l-0.54347,12.85857z" fill="url(#color-20)"/><path d="M51.32284,313.22345l0.92843,-21.96672l7.94137,0.33565l-0.92843,21.96672z" fill="url(#color-21)"/><path d="M71.96347,314.93536l0.92843,-21.96672l7.94137,0.33565l-0.92843,21.96672z" fill="url(#color-22)"/><path d="M144.18067,317.38339l0.92843,-21.96672l7.94137,0.33565l-0.92843,21.96672z" fill="url(#color-23)"/><path d="M164.82128,319.0953l0.92843,-21.96672l7.94137,0.33565l-0.92843,21.96672z" fill="url(#color-24)"/></g><g><path d="M49.98758,342.43219l0.54347,-12.85857l122.3765,5.17226l-0.54347,12.85857z" fill="url(#color-25)"/><path d="M55.35646,347.25056l0.92843,-21.96672l7.23132,0.30564l-0.92843,21.96672z" fill="url(#color-26)"/><path d="M74.14838,348.88435l0.92843,-21.96672l7.2313,0.30563l-0.92843,21.96672z" fill="url(#color-27)"/><path d="M139.91073,351.05955l0.92843,-21.96672l7.2313,0.30563l-0.92843,21.96672z" fill="url(#color-28)"/><path d="M158.70265,352.69334l0.92843,-21.96672l7.23132,0.30564l-0.92843,21.96672z" fill="url(#color-29)"/></g><g><path d="M56.06945,376.54586l0.54347,-12.85857l107.35594,4.53742l-0.54347,12.85857z" fill="url(#color-30)"/><path d="M60.75558,381.33539l0.92843,-21.96672l6.34374,0.26811l-0.92843,21.96672z" fill="url(#color-31)"/><path d="M77.2366,382.87151l0.92843,-21.96672l6.34374,0.26811l-0.92843,21.96672z" fill="url(#color-32)"/><path d="M134.93038,384.70569l0.92843,-21.96672l6.34374,0.26811l-0.92843,21.96672z" fill="url(#color-33)"/><path d="M151.41148,386.24182l0.92843,-21.96672l6.34374,0.26811l-0.92843,21.96672z" fill="url(#color-34)"/></g><path d="M95.48922,418.35313l1.19242,-30.77832l0.73662,-103.86964l29.33895,1.24002l-8.09875,103.63516l-1.34061,30.69537z" fill="url(#color-35)"/><path d="M24.00077,283.33443l0.28569,-6.75926l177.24255,7.49119l-0.28569,6.75926z" fill="url(#color-36)"/><path d="M212.66741,287.5466c-0.24543,5.80694 -4.8156,10.32964 -10.20776,10.10174c-5.39216,-0.2279 -9.56437,-5.12011 -9.31894,-10.92704c0.24543,-5.80694 4.81556,-10.32964 10.20774,-10.10174c5.39216,0.2279 9.56439,5.12008 9.31898,10.92705z" fill="url(#color-37)"/><path d="M85.84126,291.3001l0.69833,-16.52263l51.40988,2.17284l-0.69833,16.52263z" fill="url(#color-38)"/><path d="M32.4208,279.92844c-0.24543,5.80694 -4.8156,10.32964 -10.20776,10.10174c-5.39216,-0.2279 -9.56439,-5.12008 -9.31898,-10.92705c0.24543,-5.80694 4.8156,-10.32964 10.20776,-10.10174c5.39216,0.2279 9.56439,5.12008 9.31898,10.92705z" fill="url(#color-39)"/></g><path d="M89.30171,463.07825l2.06951,-48.96479l30.4592,1.28736l-2.06951,48.96479z" fill="url(#color-40)"/><path d="M88.28611,432.39718l0.36227,-8.57149l35.07558,1.48248l-0.36227,8.57149z" fill="url(#color-41)"/><path d="M87.77394,444.51519l0.36227,-8.57149l35.07558,1.48248l-0.36227,8.57149z" fill="url(#color-42)"/></g></g><g stroke-width="0"><path d="M32.98984,253.65457c13.33776,5.58414 19.69087,20.76199 14.19009,33.90069c-2.69434,6.43545 -12.84818,-2.85313 -24.72716,-7.67235c-12.37326,-5.01977 -26.37959,-5.84636 -23.57315,-12.5496c5.50078,-13.13869 20.77246,-19.26286 34.11023,-13.67874z" fill="url(#color-43)" stroke="none"/><path d="M228.15979,277.02384c2.23082,6.91613 -11.79532,6.55794 -24.548,10.51574c-12.24326,3.7997 -23.14467,12.19838 -25.28635,5.55852c-4.37252,-13.55598 3.23862,-28.14364 17.00001,-32.58242c13.76138,-4.43879 28.46183,2.95218 32.83436,16.50816z" data-paper-data="{&quot;index&quot;:null}" fill="url(#color-44)" stroke="none"/><path d="M176.10528,429.84426c-7.52771,31.29874 -133.69802,28.01274 -138.24968,-8.49323c-0.58835,0.97908 9.64006,-35.02116 9.27847,-68.84883c-0.36159,-33.82769 -28.166,-111.16337 63.21189,-108.72789c103.17928,1.34681 63.73281,79.02322 61.39708,116.60125c-2.42659,39.03993 5.19547,69.84951 4.36224,69.46871z" data-paper-data="{&quot;index&quot;:null}" fill="url(#color-45)" stroke="#000000"/><path d="M165.7784,420.74302c-6.3617,26.45075 -112.98882,23.6737 -116.83544,-7.17768c-1.68648,-1.25023 9.49097,-39.79091 9.18538,-68.37885c-0.30557,-28.58795 -23.71426,-84.39273 53.50965,-82.33447c73.10386,1.94846 56.3451,44.5828 51.08661,87.55234c-4.28992,35.05502 4.2132,67.37522 3.05378,70.33868z" data-paper-data="{&quot;index&quot;:null}" fill="url(#color-46)" stroke="#000000"/></g><g><path d="M126.54521,181.63498c43.78893,4.34418 83.82284,28.6573 75.00294,51.04796c-16.26453,41.28995 -39.78194,39.66051 -83.57087,35.31634c-43.78893,-4.34418 -69.91066,-14.0656 -75.0029,-51.04796c-3.27901,-23.81385 39.78194,-39.66051 83.57083,-35.31635z" fill="url(#color-47)" stroke="#000000" stroke-width="0"/><g><g fill="url(#color-48)" stroke="#000000" stroke-width="0"><path d="M121.68798,230.76048c35.08461,3.48064 67.57856,18.74792 60.98988,31.86928c-12.14996,24.19669 -30.97814,22.7454 -66.06273,19.26478c-35.08461,-3.48064 -56.16038,-9.79297 -60.98988,-31.86928c-3.10983,-14.21547 30.97812,-22.7454 66.06273,-19.26478z"/></g><g fill="none" stroke="none" stroke-width="1" font-family="sans-serif" font-weight="normal" font-size="12" text-anchor="start"/></g><path d="M126.20827,181.82888c33.91386,3.3645 69.07536,25.76241 61.88987,46.67762c-2.57999,7.50978 -9.8144,13.07056 -12.85066,17.8453c-12.55744,19.74755 -10.63701,23.31053 -57.29945,18.73956c-48.93893,-4.794 -43.73293,-11.27008 -52.15557,-29.3673c-2.52257,-5.42008 -9.65048,-12.49331 -10.43134,-20.38603c-2.18159,-22.05167 36.93324,-36.87368 70.84713,-33.50918z" fill="url(#color-49)" stroke="#000000" stroke-width="0"/><path d="M113.55729,200.23184l0.22008,-2.21845l21.01224,2.08455l-0.22008,2.21845z" fill="url(#color-50)" stroke="none" stroke-width="0"/><g stroke="none" stroke-width="0"><path d="M114.67511,213.34773c0.02372,-0.23909 1.51261,-14.90154 1.51261,-14.90154l16.04372,1.58453c0,0 -1.39517,14.61467 -1.4252,14.91736c-0.42073,4.24079 -4.12483,4.82035 -8.57933,4.37845c-4.4545,-0.4419 -7.97253,-1.73798 -7.55182,-5.97875z" fill="url(#color-51)"/><path d="M114.81461,211.94163c0.02372,-0.23909 1.51261,-14.90154 1.51261,-14.90154l16.04372,1.58453c0,0 -1.39517,14.61467 -1.4252,14.91736c-0.42073,4.24079 -4.12483,4.82035 -8.57933,4.37845c-4.4545,-0.4419 -7.97253,-1.73798 -7.55182,-5.97875z" fill="url(#color-52)"/></g></g><g><path d="M79.3904,116.48467l0.55724,-5.61693l105.13488,10.43012l-0.55724,5.61693z" data-paper-data="{&quot;index&quot;:null}" fill="url(#color-53)" stroke="none" stroke-width="0"/><path d="M74.10159,168.12129l6.1513,-62.00473l5.27252,0.52307l-6.1513,62.00473z" fill="url(#color-54)" stroke="none" stroke-width="0"/><path d="M174.12846,178.04467l6.1513,-62.00473l5.27252,0.52307l-6.1513,62.00473z" data-paper-data="{&quot;index&quot;:null}" fill="url(#color-55)" stroke="none" stroke-width="0"/><path d="M128.49642,165.89842l-0.22898,0.77668c0.48394,1.55728 0.75149,3.18314 0.91769,4.80537c0.05663,0.48169 0.1831,0.93951 0.36044,1.37998c0.08704,0.15855 0.16212,0.32203 0.22166,0.49192c0.88494,1.77865 2.52423,3.29981 3.56095,5.02677c0.86078,1.43384 0.56851,4.83629 1.39088,6.53386c0.43435,0.89664 3.03532,2.00015 3.2901,2.28434c3.36586,3.75409 -1.11342,5.51224 0.65556,8.77047c1.55454,2.86326 12.11959,-3.29181 13.52239,-4.12012c5.586,-6.96244 -0.65521,-8.87002 0.88589,-16.55588c0.79942,-3.98695 7.09151,-8.50891 6.19912,-12.75049c-0.41168,-1.95675 -2.11967,-4.42431 -3.01752,-6.23651c0,0 -0.82966,-1.67575 0.84609,-2.50543c1.67575,-0.82966 2.50543,0.84609 2.50543,0.84609c0.99178,2.00451 3.01063,5.03918 3.3451,7.22478c0.89824,5.86966 -5.05522,9.17734 -6.22968,14.24268c-0.73304,3.1615 1.89696,5.93404 2.39422,9.03288c0.67923,4.23255 -2.01338,6.57422 -4.47887,9.52755c-4.0677,2.51537 -11.182,6.97816 -16.36041,5.08475c-5.14146,-1.87993 -2.56135,-5.49076 -2.35522,-9.16528c0.04792,-0.8546 -3.92031,-2.8843 -4.43006,-3.79119c-0.87595,-1.55838 -0.6543,-5.34266 -1.41429,-6.57449c-0.34778,-0.56371 -0.69962,-1.04237 -1.04633,-1.47492c-1.59517,2.07804 -4.65946,2.77288 -6.09134,5.93412c-1.605,3.54345 2.05632,8.67854 -1.89463,11.60361c-1.9053,1.41059 -4.30148,0.64457 -6.3729,0.86662c-7.85526,0.84206 -11.59428,0.47226 -15.77649,-6.97707c-0.21182,-1.31695 0.0763,-2.77841 -0.53041,-3.96632c-1.5114,-2.95919 -5.94241,-2.33568 -6.7641,-6.25412c-0.82347,-3.92674 3.65043,-8.63076 4.74737,-12.16235c0.78895,-2.54004 -0.72159,-3.43737 -1.16969,-5.65664c-0.64421,-3.19069 1.20229,-7.67804 2.31013,-10.58952c0,0 0.6677,-1.7466 2.41429,-1.0789c1.7466,0.6677 1.0789,2.41429 1.0789,2.41429c-0.76044,1.97918 -2.71853,6.31337 -2.14671,8.47003c0.70422,2.65604 2.00479,4.31064 1.12732,7.40132c-0.82369,2.90124 -4.97555,7.43352 -4.68664,10.50909c0.106,1.12841 3.4244,2.12346 4.06436,2.67751c2.685,2.32458 2.67914,3.8148 3.08858,7.01064c3.49245,5.86637 5.77738,5.15537 11.82572,4.4857c1.49163,-0.16515 3.21086,0.65931 4.50096,-0.10743c1.39812,-0.83092 0.07123,-8.5986 0.7815,-10.19863c1.26097,-2.84051 5.51052,-3.89656 6.53937,-6.31181c0.88839,-2.08553 -1.2,-3.63822 -2.16506,-5.32523c-0.54341,-1.78734 -0.61927,-3.72465 -0.45715,-5.58572l0.45526,-1.437c0,0 0.63039,-1.76044 2.39083,-1.13006c0.397,0.14215 0.67242,0.34179 0.86089,0.56575c1.49661,0.36389 1.33546,1.98832 1.33546,1.98832z" fill="url(#color-56)" stroke="none" stroke-width="0.5"/><path d="M71.84401,138.33497l0.72457,-7.30355l115.03918,11.41269l-0.72457,7.30355z" fill="url(#color-57)" stroke="none" stroke-width="0"/><g stroke="#000000" stroke-width="0"><path d="M123.89254,139.92086c-1.33366,13.44315 -13.04017,23.28687 -26.14724,21.98656c-13.10707,-1.30033 -22.65133,-13.25222 -21.31765,-26.6954c1.33366,-13.44315 13.04017,-23.28687 26.14724,-21.98656c13.10707,1.30033 22.65133,13.25222 21.31765,26.6954z" fill="url(#color-58)"/><g><path d="M99.4056,145.17169c-4.09523,-0.40627 -7.07729,-4.14059 -6.66061,-8.34083c0.41669,-4.20025 4.07434,-7.27583 8.16957,-6.86958c4.09523,0.40627 7.07729,4.14059 6.66061,8.34083c-0.41669,4.20025 -4.07434,7.27583 -8.16957,6.86958z" fill="#f500ff"/><path d="M99.53174,143.90028c-3.41063,-0.33837 -5.89412,-3.44834 -5.54709,-6.94642c0.34703,-3.49804 3.39319,-6.0595 6.8038,-5.72113c3.41063,0.33837 5.89412,3.44834 5.54709,6.94642c-0.34703,3.49804 -3.39319,6.0595 -6.8038,5.72113z" fill="#000000"/></g></g><g stroke="#000000" stroke-width="0"><path d="M183.02315,145.78704c-1.33366,13.44315 -13.04017,23.28687 -26.14724,21.98656c-13.10707,-1.30033 -22.65133,-13.25222 -21.31765,-26.6954c1.33366,-13.44315 13.04017,-23.28687 26.14724,-21.98656c13.10707,1.30033 22.65133,13.25222 21.31765,26.6954z" fill="url(#color-59)"/><g><path d="M158.53621,151.03786c-4.09523,-0.40627 -7.07729,-4.14059 -6.66061,-8.34083c0.41669,-4.20025 4.07434,-7.27583 8.16957,-6.86958c4.09523,0.40627 7.07729,4.14059 6.66061,8.34083c-0.41669,4.20025 -4.07434,7.27583 -8.16957,6.86958z" fill="#f500ff"/><path d="M158.66235,149.76645c-3.41063,-0.33837 -5.89412,-3.44834 -5.54709,-6.94642c0.34703,-3.49804 3.39319,-6.0595 6.8038,-5.72113c3.41063,0.33837 5.89412,3.44834 5.54709,6.94642c-0.34703,3.49804 -3.39319,6.0595 -6.8038,5.72113z" fill="#000000"/></g></g><path d="M121.5276,175.87041l6.60249,-63.21888l8.82114,1.0662l-6.60249,63.21888z" fill="url(#color-60)" stroke="none" stroke-width="0"/><path d="M133.11834,214.37294l3.87573,-39.06709l5.09572,0.50552l-3.87573,39.06709z" fill="url(#color-61)" stroke="none" stroke-width="0"/><path d="M107.63982,211.84529l3.87573,-39.06709l5.09572,0.50552l-3.87573,39.06709z" fill="url(#color-62)" stroke="none" stroke-width="0"/><path d="M75.9242,130.73116l-3.64033,34.04527l109.70084,11.14833l3.75998,-34.28818l7.16375,0.82096l-4.64898,42.38146l-123.83545,-12.83295l4.45791,-42.06104z" fill="url(#color-63)" stroke="none" stroke-width="0"/></g><g stroke-width="0"><g><path d="M81.23359,107.00707l-31.96545,-39.31215l3.16941,-2.59841l31.96541,39.31217z" fill="url(#color-64)" stroke="none"/><g stroke="#000000"><g fill="url(#color-65)"><path d="M67.89781,52.50864c0.52891,0.6405 13.81451,12.71525 -4.78352,27.89432c-18.34516,14.97265 -25.60891,2.63039 -28.2764,-0.43836c-11.57384,-13.31491 -17.84433,-55.41232 -17.84433,-55.41232c0,0 39.67092,14.353 50.90423,27.9564z"/></g><g fill="url(#color-66)"><path d="M62.75436,55.00338c0.40247,0.48742 10.51243,9.67591 -3.64011,21.22675c-13.9601,11.39374 -19.48765,2.00163 -21.51748,-0.33358c-8.80736,-10.13224 -14.86661,-43.75283 -14.86661,-43.75283c0,0 31.47602,12.50782 40.02421,22.85962z"/></g></g></g><path d="M86.84312,106.23791c-0.21377,2.15484 -2.13391,3.72836 -4.28873,3.51458c-2.15484,-0.21377 -3.72836,-2.13391 -3.51458,-4.28873c0.21377,-2.15484 2.13391,-3.72836 4.28873,-3.51458c2.15484,0.21377 3.72836,2.13391 3.51458,4.28873z" fill="url(#color-67)" stroke="none"/></g><g data-paper-data="{&quot;index&quot;:null}" stroke-width="0"><g><path d="M181.81868,114.07298l39.0664,-32.26531l2.59709,3.17048l-39.06641,32.26531z" fill="url(#color-68)" stroke="none"/><g stroke="#000000"><g fill="url(#color-69)"><path d="M208.19945,66.42757c13.68714,-11.13112 55.40487,-17.4098 55.40487,-17.4098c0,0 -14.41958,40.04479 -28.38393,50.82616c-3.21843,2.48482 -12.7656,13.15934 -27.81134,-5.12592c-15.25313,-18.53732 0.14595,-27.76639 0.79039,-28.29047z"/></g><g fill="url(#color-70)"><path d="M212.75244,69.88422c10.41551,-8.47045 43.73555,-14.55006 43.73555,-14.55006c0,0 -12.54693,31.77472 -23.17338,39.979c-2.44908,1.89086 -9.71424,10.01383 -21.16359,-3.90069c-11.60717,-14.10637 0.11109,-21.12935 0.60147,-21.5282z"/></g></g></g><path d="M183.35536,111.87255c2.15484,0.21377 3.72836,2.13391 3.51458,4.28873c-0.21377,2.15484 -2.13391,3.72836 -4.28873,3.51458c-2.15484,-0.21377 -3.72836,-2.13391 -3.51458,-4.28873c0.21377,-2.15484 2.13391,-3.72836 4.28873,-3.51458z" fill="url(#color-71)" stroke="none"/></g><g stroke-width="0"><g><path d="M201.51547,211.33354l-156.3417,-16.46778c0,0 -14.83361,-29.81456 -2.73973,-58.46386c14.32187,-33.92721 8.56151,-68.74509 94.54843,-60.11332c84.11328,8.48666 68.29605,39.26879 77.68839,74.86352c9.24515,35.03687 -13.15538,60.1814 -13.15538,60.1814zM96.93521,166.09567c13.70219,1.35935 25.91203,-8.64653 27.27137,-22.34871c3.16434,-31.89623 -7.04664,-42.03857 -20.74884,-43.39791c-13.70219,-1.35935 -28.14362,10.09542 -28.87124,38.47527c-0.35291,13.76496 8.64653,25.91203 22.34871,27.27137zM156.53862,171.40486c13.70219,1.35935 25.59695,-9.67992 26.95632,-23.38213c1.35935,-13.70219 2.69689,-39.23462 -20.51583,-41.53749c-22.79921,-2.26184 -26.50437,23.03568 -27.86373,36.7379c-1.35935,13.70219 7.72105,26.82238 21.42324,28.18172z" fill="url(#color-72)" stroke="none"/><g><g stroke="#000000"><path d="M82.45043,186.58717c-2.28922,6.97778 -24.5588,3.83804 -50.50748,-4.67505c-25.94868,-8.51306 -49.32234,-42.94541 -49.32234,-42.94541c0,0 29.48758,15.79657 55.43626,24.30963c0,0 46.68282,16.333 44.39358,23.31079z" fill="url(#color-73)"/><path d="M83.73214,190.40061c-1.37545,7.21376 -23.8638,6.9559 -50.69,1.84092c-26.82617,-5.11497 -54.42263,-36.26543 -54.42263,-36.26543c0,0 31.2699,11.88449 58.09611,16.99946c0,0 48.39199,10.21126 47.01654,17.42505z" fill="url(#color-74)"/><path d="M82.15049,191.23368c-0.22143,7.34039 -22.46937,10.62984 -49.76645,9.80648c-27.29705,-0.82337 -59.45784,-27.2354 -59.45784,-27.2354c0,0 32.75211,6.80792 60.04916,7.63129c0,0 49.39652,2.45724 49.17511,9.79763z" fill="url(#color-75)"/><path d="M84.45871,194.52867c0.72177,7.30818 -20.92058,13.42365 -48.09785,16.10785c-27.17722,2.68419 -62.45966,-19.38532 -62.45966,-19.38532c0,0 33.35473,2.5514 60.53197,-0.13278c0,0 49.30377,-3.89791 50.02556,3.41026z" fill="url(#color-76)"/><path d="M83.99624,190.15265c2.29713,6.97517 -17.49231,17.66025 -43.43136,26.20269c-25.93903,8.54244 -65.18307,-5.30746 -65.18307,-5.30746c0,0 33.10903,-4.77892 59.04809,-13.32137c0,0 47.26921,-14.54906 49.56635,-7.57386z" fill="url(#color-77)"/></g><g data-paper-data="{&quot;index&quot;:null}" stroke="#000000"><path d="M212.24115,180.55667c27.11555,-3.24873 59.13203,-12.94369 59.13203,-12.94369c0,0 -29.68334,29.16873 -56.79887,32.41746c-27.11556,3.24872 -49.56794,1.95176 -50.44154,-5.33982c-0.87361,-7.29157 48.10837,-14.13397 48.10837,-14.13397z" fill="url(#color-78)"/><path d="M211.65048,190.33032c27.30827,0.25557 60.30372,-5.25338 60.30372,-5.25338c0,0 -33.179,25.1211 -60.48726,24.86558c-27.30828,-0.25554 -49.40895,-4.42124 -49.34023,-11.76462c0.06871,-7.34341 49.52376,-7.84757 49.52376,-7.84757z" fill="url(#color-79)"/><path d="M213.6555,199.36078c26.92673,4.55602 60.37806,4.31593 60.37806,4.31593c0,0 -36.72335,19.57829 -63.65009,15.02225c-26.92678,-4.55603 -48.09475,-12.15264 -46.86961,-19.39345c1.22513,-7.2408 50.14161,0.05528 50.14161,0.05528z" fill="url(#color-80)"/><path d="M210.32371,208.56798c26.1201,7.97163 59.32597,12.02352 59.32597,12.02352c0,0 -38.93092,14.70702 -65.05101,6.73538c-26.12012,-7.97165 -46.13908,-18.22024 -43.99544,-25.24415c2.14363,-7.0239 49.72049,6.48526 49.72049,6.48526z" fill="url(#color-81)"/><path d="M209.0287,215.04793c23.755,13.47244 55.27972,24.66349 55.27972,24.66349c0,0 -41.20032,5.86926 -64.95533,-7.60319c-23.75503,-13.47245 -41.05933,-27.83744 -37.43648,-34.22533c3.62285,-6.38789 47.11209,17.16503 47.11209,17.16503z" fill="url(#color-82)"/></g><path d="M60.4162,174.65903c10.53448,-16.82253 22.84633,-22.3628 42.39782,-20.83706c10.26955,0.51415 22.92007,4.13244 25.06943,21.82642c0.52589,4.32922 -1.49776,9.31051 -2.11339,15.51589c-2.13436,21.51427 -3.80698,38.41142 -3.80698,38.41142c0,0 -16.66067,3.64248 -32.39384,2.08166c-19.51473,-1.936 -50.66446,-22.64668 -29.15302,-56.9983z" data-paper-data="{&quot;index&quot;:null}" fill="url(#color-83)" stroke="#000000"/><path d="M153.25576,237.97549c-15.86423,-1.57384 -31.89505,-8.17371 -31.89505,-8.17371c0,0 2.23816,-17.2959 4.35594,-38.6428c0.59818,-6.02974 1.01116,-11.05394 2.32057,-15.12995c5.5458,-17.26308 17.28418,-18.49822 27.52503,-16.97408c19.47014,2.3455 30.45348,10.19682 37.47733,28.76124c14.3427,37.9086 -20.2691,52.09529 -39.7838,50.1593z" fill="url(#color-84)" stroke="#000000"/><path d="M128.57557,159.21293c4.68158,0.46446 8.21043,3.52534 7.88194,6.83672c-0.32852,3.31137 -5.45023,16.30666 -10.13183,15.8422c-4.6816,-0.46444 -7.15018,-14.21274 -6.82169,-17.52412c0.32852,-3.31137 4.38999,-5.61926 9.07158,-5.1548z" fill="url(#color-85)" stroke="none"/></g></g><g stroke="#000000"><path d="M78.49336,89.88216c3.54867,7.32773 -2.77926,14.19543 -10.09019,21.2661c-17.39553,16.82383 -18.16651,15.1092 -18.16651,15.1092c0,0 1.60055,-7.21487 -4.77454,-20.37898c-10.60091,-21.89011 -55.20405,-16.14921 10.0903,-21.26616c10.15275,-0.79566 19.39235,-2.05787 22.941,5.26981z" fill="url(#color-86)"/><path d="M88.64122,68.58813c44.50065,-48.05442 12.34014,-16.62033 22.94105,5.26979c6.3751,13.16412 13.02799,16.382 13.02799,16.382c0,0 0.86721,1.66804 -23.11828,4.88413c-10.08062,1.35165 -19.39237,2.05792 -22.94102,-5.26981c-3.54866,-7.32765 3.17071,-13.79401 10.09021,-21.26611z" data-paper-data="{&quot;index&quot;:null}" fill="url(#color-87)"/><path d="M91.67401,82.36854c3.63521,7.50644 0.6418,16.46834 -6.68586,20.01697c-7.32772,3.54869 -16.21486,0.34025 -19.85008,-7.16617c-3.63521,-7.50644 -0.64178,-16.46836 6.68586,-20.01702c7.32772,-3.54869 16.2149,-0.34019 19.85009,7.16622z" fill="url(#color-88)"/></g></g></g></g></svg>