<svg version="1.1" xmlns="http://www.w3.org/2000/svg" xmlns:xlink="http://www.w3.org/1999/xlink" width="416.53" height="229.62785" viewBox="0,0,416.53,229.62785"><defs><linearGradient x1="226.29526" y1="183.93317" x2="224.31918" y2="183.73964" gradientUnits="userSpaceOnUse" id="color-1"><stop offset="0" stop-color="#3e3e3e"/><stop offset="1" stop-color="#646464"/></linearGradient><linearGradient x1="230.80576" y1="184.86121" x2="228.82969" y2="184.66768" gradientUnits="userSpaceOnUse" id="color-2"><stop offset="0" stop-color="#3e3e3e"/><stop offset="1" stop-color="#646464"/></linearGradient><linearGradient x1="221.44747" y1="183.80112" x2="219.4714" y2="183.60758" gradientUnits="userSpaceOnUse" id="color-3"><stop offset="0" stop-color="#3e3e3e"/><stop offset="1" stop-color="#646464"/></linearGradient><linearGradient x1="225.14203" y1="182.49753" x2="224.8546" y2="185.3667" gradientUnits="userSpaceOnUse" id="color-4"><stop offset="0" stop-color="#d0d0d0"/><stop offset="1" stop-color="#575757"/></linearGradient><linearGradient x1="226.25613" y1="172.51142" x2="225.96869" y2="175.3806" gradientUnits="userSpaceOnUse" id="color-5"><stop offset="0" stop-color="#d0d0d0"/><stop offset="1" stop-color="#575757"/></linearGradient><linearGradient x1="224.07396" y1="192.93926" x2="223.78652" y2="195.80844" gradientUnits="userSpaceOnUse" id="color-6"><stop offset="0" stop-color="#d0d0d0"/><stop offset="1" stop-color="#575757"/></linearGradient><radialGradient cx="223.6307" cy="200.81875" r="2.34031" gradientUnits="userSpaceOnUse" id="color-7"><stop offset="0" stop-color="#d0d0d0"/><stop offset="1" stop-color="#717171"/></radialGradient><linearGradient x1="223.59422" y1="217.42774" x2="221.61001" y2="217.35545" gradientUnits="userSpaceOnUse" id="color-8"><stop offset="0" stop-color="#3e3e3e"/><stop offset="1" stop-color="#646464"/></linearGradient><linearGradient x1="228.15305" y1="218.07816" x2="226.16884" y2="218.00585" gradientUnits="userSpaceOnUse" id="color-9"><stop offset="0" stop-color="#3e3e3e"/><stop offset="1" stop-color="#646464"/></linearGradient><linearGradient x1="218.74744" y1="217.59249" x2="216.76323" y2="217.52019" gradientUnits="userSpaceOnUse" id="color-10"><stop offset="0" stop-color="#3e3e3e"/><stop offset="1" stop-color="#646464"/></linearGradient><linearGradient x1="222.35534" y1="216.06534" x2="222.24396" y2="218.94673" gradientUnits="userSpaceOnUse" id="color-11"><stop offset="0" stop-color="#d0d0d0"/><stop offset="1" stop-color="#575757"/></linearGradient><linearGradient x1="222.85652" y1="206.02979" x2="222.74512" y2="208.91117" gradientUnits="userSpaceOnUse" id="color-12"><stop offset="0" stop-color="#d0d0d0"/><stop offset="1" stop-color="#575757"/></linearGradient><linearGradient x1="221.92798" y1="226.55285" x2="221.81658" y2="229.43424" gradientUnits="userSpaceOnUse" id="color-13"><stop offset="0" stop-color="#d0d0d0"/><stop offset="1" stop-color="#575757"/></linearGradient><radialGradient cx="221.96754" cy="234.4447" r="2.34031" gradientUnits="userSpaceOnUse" id="color-14"><stop offset="0" stop-color="#d0d0d0"/><stop offset="1" stop-color="#717171"/></radialGradient><linearGradient x1="251.84502" y1="183.93317" x2="253.82109" y2="183.73964" gradientUnits="userSpaceOnUse" id="color-15"><stop offset="0" stop-color="#3e3e3e"/><stop offset="1" stop-color="#646464"/></linearGradient><linearGradient x1="247.33451" y1="184.86121" x2="249.31059" y2="184.66768" gradientUnits="userSpaceOnUse" id="color-16"><stop offset="0" stop-color="#3e3e3e"/><stop offset="1" stop-color="#646464"/></linearGradient><linearGradient x1="256.69278" y1="183.80112" x2="258.66887" y2="183.60758" gradientUnits="userSpaceOnUse" id="color-17"><stop offset="0" stop-color="#3e3e3e"/><stop offset="1" stop-color="#646464"/></linearGradient><linearGradient x1="252.99822" y1="182.49753" x2="253.28566" y2="185.3667" gradientUnits="userSpaceOnUse" id="color-18"><stop offset="0" stop-color="#d0d0d0"/><stop offset="1" stop-color="#575757"/></linearGradient><linearGradient x1="251.88414" y1="172.51142" x2="252.17157" y2="175.3806" gradientUnits="userSpaceOnUse" id="color-19"><stop offset="0" stop-color="#d0d0d0"/><stop offset="1" stop-color="#575757"/></linearGradient><linearGradient x1="254.06632" y1="192.93926" x2="254.35372" y2="195.80844" gradientUnits="userSpaceOnUse" id="color-20"><stop offset="0" stop-color="#d0d0d0"/><stop offset="1" stop-color="#575757"/></linearGradient><radialGradient cx="254.50958" cy="200.81875" r="2.34031" gradientUnits="userSpaceOnUse" id="color-21"><stop offset="0" stop-color="#d0d0d0"/><stop offset="1" stop-color="#717171"/></radialGradient><linearGradient x1="239.53572" y1="141.0223" x2="239.53572" y2="152.83292" gradientUnits="userSpaceOnUse" id="color-22"><stop offset="0" stop-color="#717171"/><stop offset="1" stop-color="#d0d0d0"/></linearGradient><linearGradient x1="242.58739" y1="130.86858" x2="245.4177" y2="131.38451" gradientUnits="userSpaceOnUse" id="color-23"><stop offset="0" stop-color="#717171"/><stop offset="1" stop-color="#d0d0d0"/></linearGradient><linearGradient x1="236.61431" y1="130.99886" x2="233.78401" y2="131.5148" gradientUnits="userSpaceOnUse" id="color-24"><stop offset="0" stop-color="#717171"/><stop offset="1" stop-color="#d0d0d0"/></linearGradient><linearGradient x1="239.66307" y1="139.62892" x2="239.66307" y2="142.46795" gradientUnits="userSpaceOnUse" id="color-25"><stop offset="0" stop-color="#717171"/><stop offset="1" stop-color="#d0d0d0"/></linearGradient><linearGradient x1="236.99987" y1="97.20551" x2="241.12951" y2="97.20551" gradientUnits="userSpaceOnUse" id="color-26"><stop offset="0" stop-color="#717171"/><stop offset="1" stop-color="#d0d0d0"/></linearGradient><linearGradient x1="239.87635" y1="112.33849" x2="239.87635" y2="115.49364" gradientUnits="userSpaceOnUse" id="color-27"><stop offset="0" stop-color="#717171"/><stop offset="1" stop-color="#d0d0d0"/></linearGradient><radialGradient cx="239.15855" cy="114.66265" r="11.16882" gradientUnits="userSpaceOnUse" id="color-28"><stop offset="0" stop-color="#858585"/><stop offset="1" stop-color="#414141"/></radialGradient><radialGradient cx="248.38047" cy="122.01851" r="1.14998" gradientUnits="userSpaceOnUse" id="color-29"><stop offset="0" stop-color="#ff0000"/><stop offset="1" stop-color="#700000"/></radialGradient><radialGradient cx="235.45858" cy="114.2194" r="5.1112" gradientUnits="userSpaceOnUse" id="color-30"><stop offset="0" stop-color="#b1b1b1"/><stop offset="1" stop-color="#878787"/></radialGradient><radialGradient cx="259.93362" cy="115.43574" r="2.57411" gradientUnits="userSpaceOnUse" id="color-31"><stop offset="0" stop-color="#d0d0d0"/><stop offset="1" stop-color="#717171"/></radialGradient><radialGradient cx="219.05641" cy="114.51467" r="2.57411" gradientUnits="userSpaceOnUse" id="color-32"><stop offset="0" stop-color="#d0d0d0"/><stop offset="1" stop-color="#717171"/></radialGradient><linearGradient x1="210.61065" y1="126.44719" x2="208.94493" y2="125.03485" gradientUnits="userSpaceOnUse" id="color-33"><stop offset="0" stop-color="#3e3e3e"/><stop offset="1" stop-color="#646464"/></linearGradient><linearGradient x1="214.1808" y1="130.02695" x2="212.51509" y2="128.6146" gradientUnits="userSpaceOnUse" id="color-34"><stop offset="0" stop-color="#3e3e3e"/><stop offset="1" stop-color="#646464"/></linearGradient><linearGradient x1="206.36077" y1="123.23328" x2="204.69506" y2="121.82092" gradientUnits="userSpaceOnUse" id="color-35"><stop offset="0" stop-color="#3e3e3e"/><stop offset="1" stop-color="#646464"/></linearGradient><linearGradient x1="210.26942" y1="124.65467" x2="208.64523" y2="126.57024" gradientUnits="userSpaceOnUse" id="color-36"><stop offset="0" stop-color="#d0d0d0"/><stop offset="1" stop-color="#575757"/></linearGradient><linearGradient x1="216.02355" y1="118.06066" x2="214.39935" y2="119.97623" gradientUnits="userSpaceOnUse" id="color-37"><stop offset="0" stop-color="#d0d0d0"/><stop offset="1" stop-color="#575757"/></linearGradient><linearGradient x1="204.33891" y1="131.61182" x2="202.71472" y2="133.5274" gradientUnits="userSpaceOnUse" id="color-38"><stop offset="0" stop-color="#d0d0d0"/><stop offset="1" stop-color="#575757"/></linearGradient><radialGradient cx="200.18637" cy="137.09503" r="2.57411" gradientUnits="userSpaceOnUse" id="color-39"><stop offset="0" stop-color="#d0d0d0"/><stop offset="1" stop-color="#717171"/></radialGradient><linearGradient x1="191.7235" y1="149.24292" x2="190.39757" y2="148.13277" gradientUnits="userSpaceOnUse" id="color-40"><stop offset="0" stop-color="#3e3e3e"/><stop offset="1" stop-color="#646464"/></linearGradient><linearGradient x1="194.51106" y1="152.12664" x2="193.18513" y2="151.01649" gradientUnits="userSpaceOnUse" id="color-41"><stop offset="0" stop-color="#3e3e3e"/><stop offset="1" stop-color="#646464"/></linearGradient><linearGradient x1="188.30227" y1="146.76589" x2="186.97634" y2="145.65573" gradientUnits="userSpaceOnUse" id="color-42"><stop offset="0" stop-color="#3e3e3e"/><stop offset="1" stop-color="#646464"/></linearGradient><linearGradient x1="191.59963" y1="147.64387" x2="189.9831" y2="149.5659" gradientUnits="userSpaceOnUse" id="color-43"><stop offset="0" stop-color="#d0d0d0"/><stop offset="1" stop-color="#575757"/></linearGradient><linearGradient x1="197.30771" y1="141.01016" x2="195.69118" y2="142.93218" gradientUnits="userSpaceOnUse" id="color-44"><stop offset="0" stop-color="#d0d0d0"/><stop offset="1" stop-color="#575757"/></linearGradient><linearGradient x1="185.70077" y1="154.62785" x2="184.08424" y2="156.54989" gradientUnits="userSpaceOnUse" id="color-45"><stop offset="0" stop-color="#d0d0d0"/><stop offset="1" stop-color="#575757"/></linearGradient><radialGradient cx="181.51021" cy="160.0763" r="2.03832" gradientUnits="userSpaceOnUse" id="color-46"><stop offset="0" stop-color="#d0d0d0"/><stop offset="1" stop-color="#717171"/></radialGradient><linearGradient x1="254.54605" y1="217.42774" x2="256.53024" y2="217.35545" gradientUnits="userSpaceOnUse" id="color-47"><stop offset="0" stop-color="#3e3e3e"/><stop offset="1" stop-color="#646464"/></linearGradient><linearGradient x1="249.98722" y1="218.07816" x2="251.97143" y2="218.00585" gradientUnits="userSpaceOnUse" id="color-48"><stop offset="0" stop-color="#3e3e3e"/><stop offset="1" stop-color="#646464"/></linearGradient><linearGradient x1="259.39283" y1="217.59249" x2="261.37704" y2="217.52019" gradientUnits="userSpaceOnUse" id="color-49"><stop offset="0" stop-color="#3e3e3e"/><stop offset="1" stop-color="#646464"/></linearGradient><linearGradient x1="255.78493" y1="216.06534" x2="255.8963" y2="218.94673" gradientUnits="userSpaceOnUse" id="color-50"><stop offset="0" stop-color="#d0d0d0"/><stop offset="1" stop-color="#575757"/></linearGradient><linearGradient x1="255.28376" y1="206.02979" x2="255.39513" y2="208.91117" gradientUnits="userSpaceOnUse" id="color-51"><stop offset="0" stop-color="#d0d0d0"/><stop offset="1" stop-color="#575757"/></linearGradient><linearGradient x1="256.21229" y1="226.55285" x2="256.32369" y2="229.43424" gradientUnits="userSpaceOnUse" id="color-52"><stop offset="0" stop-color="#d0d0d0"/><stop offset="1" stop-color="#575757"/></linearGradient><radialGradient cx="256.17274" cy="234.4447" r="2.34031" gradientUnits="userSpaceOnUse" id="color-53"><stop offset="0" stop-color="#d0d0d0"/><stop offset="1" stop-color="#717171"/></radialGradient><linearGradient x1="265.02986" y1="234.37973" x2="265.02986" y2="248.44695" gradientUnits="userSpaceOnUse" id="color-54"><stop offset="0" stop-color="#717171"/><stop offset="1" stop-color="#d0d0d0"/></linearGradient><linearGradient x1="247.17314" y1="86.81415" x2="249.88394" y2="87.95097" gradientUnits="userSpaceOnUse" id="color-55"><stop offset="0" stop-color="#5a5a5a"/><stop offset="1" stop-color="#858585"/></linearGradient><linearGradient x1="232.40325" y1="88.19173" x2="229.94606" y2="89.80511" gradientUnits="userSpaceOnUse" id="color-56"><stop offset="0" stop-color="#5a5a5a"/><stop offset="1" stop-color="#858585"/></linearGradient><linearGradient x1="237.33283" y1="62.68464" x2="237.6361" y2="65.97335" gradientUnits="userSpaceOnUse" id="color-57"><stop offset="0" stop-color="#717171"/><stop offset="1" stop-color="#d0d0d0"/></linearGradient><linearGradient x1="242.54222" y1="70.99948" x2="246.29373" y2="71.74117" gradientUnits="userSpaceOnUse" id="color-58"><stop offset="0" stop-color="#717171"/><stop offset="1" stop-color="#d0d0d0"/></linearGradient><linearGradient x1="234.07802" y1="71.78" x2="230.5254" y2="73.19524" gradientUnits="userSpaceOnUse" id="color-59"><stop offset="0" stop-color="#717171"/><stop offset="1" stop-color="#d0d0d0"/></linearGradient><linearGradient x1="232.04591" y1="81.54475" x2="232.33321" y2="84.66036" gradientUnits="userSpaceOnUse" id="color-60"><stop offset="0" stop-color="#ffffff"/><stop offset="1" stop-color="#b2b2b2"/></linearGradient><linearGradient x1="236.80586" y1="81.10581" x2="237.09317" y2="84.22143" gradientUnits="userSpaceOnUse" id="color-61"><stop offset="0" stop-color="#ffffff"/><stop offset="1" stop-color="#b2b2b2"/></linearGradient><linearGradient x1="241.47929" y1="80.67486" x2="241.76659" y2="83.79047" gradientUnits="userSpaceOnUse" id="color-62"><stop offset="0" stop-color="#ffffff"/><stop offset="1" stop-color="#b2b2b2"/></linearGradient><linearGradient x1="246.23924" y1="80.23592" x2="246.52655" y2="83.35153" gradientUnits="userSpaceOnUse" id="color-63"><stop offset="0" stop-color="#ffffff"/><stop offset="1" stop-color="#b2b2b2"/></linearGradient><linearGradient x1="251.82929" y1="71.96492" x2="254.30201" y2="71.7369" gradientUnits="userSpaceOnUse" id="color-64"><stop offset="0" stop-color="#717171"/><stop offset="1" stop-color="#d0d0d0"/></linearGradient><linearGradient x1="222.50494" y1="74.41969" x2="224.97764" y2="74.19167" gradientUnits="userSpaceOnUse" id="color-65"><stop offset="0" stop-color="#d0d0d0"/><stop offset="1" stop-color="#717171"/></linearGradient><linearGradient x1="238.91974" y1="78.94707" x2="239.22301" y2="82.23577" gradientUnits="userSpaceOnUse" id="color-66"><stop offset="0" stop-color="#717171"/><stop offset="1" stop-color="#d0d0d0"/></linearGradient><linearGradient x1="240.26609" y1="93.61492" x2="240.58532" y2="97.07671" gradientUnits="userSpaceOnUse" id="color-67"><stop offset="0" stop-color="#5a5a5a"/><stop offset="1" stop-color="#858585"/></linearGradient><linearGradient x1="213.3896" y1="234.64078" x2="213.3896" y2="248.708" gradientUnits="userSpaceOnUse" id="color-68"><stop offset="0" stop-color="#717171"/><stop offset="1" stop-color="#d0d0d0"/></linearGradient><linearGradient x1="268.47999" y1="126.43701" x2="270.14856" y2="125.02804" gradientUnits="userSpaceOnUse" id="color-69"><stop offset="0" stop-color="#3e3e3e"/><stop offset="1" stop-color="#646464"/></linearGradient><linearGradient x1="264.9026" y1="130.00953" x2="266.57116" y2="128.60056" gradientUnits="userSpaceOnUse" id="color-70"><stop offset="0" stop-color="#3e3e3e"/><stop offset="1" stop-color="#646464"/></linearGradient><linearGradient x1="272.73636" y1="123.2317" x2="274.40493" y2="121.82272" gradientUnits="userSpaceOnUse" id="color-71"><stop offset="0" stop-color="#3e3e3e"/><stop offset="1" stop-color="#646464"/></linearGradient><linearGradient x1="268.82485" y1="124.64518" x2="270.44516" y2="126.56403" gradientUnits="userSpaceOnUse" id="color-72"><stop offset="0" stop-color="#d0d0d0"/><stop offset="1" stop-color="#575757"/></linearGradient><linearGradient x1="263.08407" y1="118.03953" x2="264.70439" y2="119.95839" gradientUnits="userSpaceOnUse" id="color-73"><stop offset="0" stop-color="#d0d0d0"/><stop offset="1" stop-color="#575757"/></linearGradient><linearGradient x1="274.74126" y1="131.61432" x2="276.36157" y2="133.53318" gradientUnits="userSpaceOnUse" id="color-74"><stop offset="0" stop-color="#d0d0d0"/><stop offset="1" stop-color="#575757"/></linearGradient><radialGradient cx="278.8827" cy="137.10592" r="2.57411" gradientUnits="userSpaceOnUse" id="color-75"><stop offset="0" stop-color="#d0d0d0"/><stop offset="1" stop-color="#717171"/></radialGradient><linearGradient x1="287.32096" y1="149.27092" x2="288.64913" y2="148.16346" gradientUnits="userSpaceOnUse" id="color-76"><stop offset="0" stop-color="#3e3e3e"/><stop offset="1" stop-color="#646464"/></linearGradient><linearGradient x1="284.52757" y1="152.14899" x2="285.85574" y2="151.04153" gradientUnits="userSpaceOnUse" id="color-77"><stop offset="0" stop-color="#3e3e3e"/><stop offset="1" stop-color="#646464"/></linearGradient><linearGradient x1="290.74718" y1="146.80082" x2="292.07535" y2="145.69335" gradientUnits="userSpaceOnUse" id="color-78"><stop offset="0" stop-color="#3e3e3e"/><stop offset="1" stop-color="#646464"/></linearGradient><linearGradient x1="287.44806" y1="147.67213" x2="289.06069" y2="149.59743" gradientUnits="userSpaceOnUse" id="color-79"><stop offset="0" stop-color="#d0d0d0"/><stop offset="1" stop-color="#575757"/></linearGradient><linearGradient x1="281.75341" y1="141.02687" x2="283.36605" y2="142.95217" gradientUnits="userSpaceOnUse" id="color-80"><stop offset="0" stop-color="#d0d0d0"/><stop offset="1" stop-color="#575757"/></linearGradient><linearGradient x1="293.33277" y1="154.66803" x2="294.94541" y2="156.59334" gradientUnits="userSpaceOnUse" id="color-81"><stop offset="0" stop-color="#d0d0d0"/><stop offset="1" stop-color="#575757"/></linearGradient><radialGradient cx="297.5123" cy="160.12496" r="2.03832" gradientUnits="userSpaceOnUse" id="color-82"><stop offset="0" stop-color="#d0d0d0"/><stop offset="1" stop-color="#717171"/></radialGradient></defs><g transform="translate(-22.25,-20.25)"><g data-paper-data="{&quot;isPaintingLayer&quot;:true}" fill-rule="nonzero" stroke-linejoin="miter" stroke-miterlimit="10" stroke-dasharray="" stroke-dashoffset="0" style="mix-blend-mode: normal"><text transform="translate(22.5,42) scale(0.5,0.5)" font-size="40" xml:space="preserve" fill="#dbc2ff" fill-rule="nonzero" stroke="none" stroke-width="1" stroke-linecap="butt" stroke-linejoin="miter" stroke-miterlimit="10" stroke-dasharray="" stroke-dashoffset="0" font-family="Sans Serif" font-weight="normal" text-anchor="start" style="mix-blend-mode: normal"><tspan x="0" dy="0">CHARACTERS</tspan></text><path d="M342.53,181.5v-121h95v121z" fill="#505050" stroke="#ffffff" stroke-width="2.5" stroke-linecap="butt"/><text transform="translate(378.878,73.97338) scale(0.28101,0.28101)" font-size="40" xml:space="preserve" fill="#ffffff" fill-rule="nonzero" stroke="none" stroke-width="1" stroke-linecap="butt" stroke-linejoin="miter" stroke-miterlimit="10" stroke-dasharray="" stroke-dashoffset="0" font-family="Sans Serif" font-weight="normal" text-anchor="start" style="mix-blend-mode: normal"><tspan x="0" dy="0">ZOE</tspan></text><text transform="translate(376.878,54.97338) scale(0.28101,0.28101)" font-size="40" xml:space="preserve" fill="#ffffff" fill-rule="nonzero" stroke="none" stroke-width="1" stroke-linecap="butt" stroke-linejoin="miter" stroke-miterlimit="10" stroke-dasharray="" stroke-dashoffset="0" font-family="Sans Serif" font-weight="normal" text-anchor="start" style="mix-blend-mode: normal"><tspan x="0" dy="0">OLD</tspan></text><text transform="translate(363.43346,89.72338) scale(0.216,0.216)" font-size="40" xml:space="preserve" fill="#ffffff" fill-rule="nonzero" stroke="none" stroke-width="1" stroke-linecap="butt" stroke-linejoin="miter" stroke-miterlimit="10" stroke-dasharray="" stroke-dashoffset="0" font-family="Sans Serif" font-weight="normal" text-anchor="start" style="mix-blend-mode: normal"><tspan x="0" dy="0">Built in: 2014</tspan></text><text transform="translate(363.43346,104.72338) scale(0.216,0.216)" font-size="40" xml:space="preserve" fill="#ffffff" fill-rule="nonzero" stroke="none" stroke-width="1" stroke-linecap="butt" stroke-linejoin="miter" stroke-miterlimit="10" stroke-dasharray="" stroke-dashoffset="0" font-family="Sans Serif" font-weight="normal" text-anchor="start" style="mix-blend-mode: normal"><tspan x="0" dy="0">Height: 6'10"</tspan></text><text transform="translate(350.42138,118.85204) scale(0.14339,0.14339)" font-size="40" xml:space="preserve" fill="#ffffff" fill-rule="nonzero" stroke="none" stroke-width="1" stroke-linecap="butt" stroke-linejoin="miter" stroke-miterlimit="10" stroke-dasharray="" stroke-dashoffset="0" font-family="Sans Serif" font-weight="normal" text-anchor="start" style="mix-blend-mode: normal"><tspan x="0" dy="0">Brand: Sesame Workshop Co.</tspan></text><text transform="translate(367.93346,134.55671) scale(0.216,0.216)" font-size="40" xml:space="preserve" fill="#ffffff" fill-rule="nonzero" stroke="none" stroke-width="1" stroke-linecap="butt" stroke-linejoin="miter" stroke-miterlimit="10" stroke-dasharray="" stroke-dashoffset="0" font-family="Sans Serif" font-weight="normal" text-anchor="start" style="mix-blend-mode: normal"><tspan x="0" dy="0">Voiced by:</tspan></text><text transform="translate(352.43346,147.72572) scale(0.18842,0.18842)" font-size="40" xml:space="preserve" fill="#ffffff" fill-rule="nonzero" stroke="none" stroke-width="1" stroke-linecap="butt" stroke-linejoin="miter" stroke-miterlimit="10" stroke-dasharray="" stroke-dashoffset="0" font-family="Sans Serif" font-weight="normal" text-anchor="start" style="mix-blend-mode: normal"><tspan x="0" dy="0">@RayatheRaccoon13</tspan></text><g><g data-paper-data="{&quot;index&quot;:null}" stroke-linecap="butt"><path d="M216.92065,198.46724c0,0 -1.09926,-9.85863 -0.58487,-14.99335c0.50704,-5.06136 3.64948,-15.598 3.64948,-15.598l13.31812,1.30436c0,0 0.69239,10.44822 0.18287,15.53419c-0.51202,5.11101 -3.24749,15.05714 -3.24749,15.05714z" fill="#949494" stroke="#000000" stroke-width="1.5"/><path d="M222.76331,199.27057l3.11175,-31.06186l1.97607,0.19353l-3.11174,31.06187z" fill="url(#color-1)" stroke="none" stroke-width="0"/><path d="M227.7362,195.58299l2.18697,-21.83063l1.97607,0.19353l-2.18697,21.83063z" fill="url(#color-2)" stroke="none" stroke-width="0"/><path d="M218.37792,194.5229l2.18697,-21.83063l1.97607,0.19353l-2.18697,21.83063z" fill="url(#color-3)" stroke="none" stroke-width="0"/><path d="M223.15753,194.46238l0.38272,-0.25672c1.52601,-0.61195 -0.9306,-1.35076 -1.11213,-1.89431c-0.03501,-0.10485 0.0528,-1.87554 0.13573,-2.22416c0.24074,-1.01199 0.49522,-1.4574 1.22767,-2.10033c0.5584,-0.49016 1.86411,-0.53272 2.03125,-1.57842c0.20074,-1.25585 -1.57105,-1.90198 -2.18806,-2.46972c-1.07353,-0.9938 -1.99037,-2.14722 -1.09872,-4.01497c0.48033,-1.00614 1.52962,-1.15911 2.0034,-2.07126c0.15813,-0.30442 0.26318,-0.68121 0.49812,-0.8939c0.29361,-0.26581 1.16383,-0.13438 0.99768,-0.51641c-0.40664,-0.93501 -1.84602,-2.0834 -2.6564,-2.13168c0,0 -0.53147,-0.05205 -0.46424,-0.72307c0.06723,-0.67102 0.59869,-0.61897 0.59869,-0.61897c1.13838,0.14042 4.75546,2.57668 3.13036,4.58892c-1.30717,1.61857 -4.80289,3.01034 -2.34672,5.28411c0.79294,0.73919 2.22505,1.20492 2.54327,2.54262c0.77867,3.27328 -2.76904,2.68576 -3.24229,4.99232c-0.08605,0.41945 -0.26958,0.84974 -0.21419,1.26874c0.05068,0.3833 0.62327,0.15279 0.8721,0.37396c1.28524,1.14238 1.01366,2.66413 -0.36042,3.43345l-0.26008,0.1842c0,0 -0.47951,0.32891 -0.71838,-0.25829c-0.23887,-0.5872 0.24062,-0.9161 0.24062,-0.9161z" fill="#000000" stroke="none" stroke-width="0.5"/><path d="M227.74545,194.46803l0.21941,-0.48485c0.20652,-2.36784 0.56538,-4.69458 0.52692,-7.01838c-0.39942,-1.05679 -1.25579,-2.30391 -0.95966,-3.60377c0.26121,-1.14658 1.91724,-2.21444 1.92996,-3.40099c0.02219,-2.07025 -2.3151,-4.12993 -0.09054,-6.02239c0.39779,-0.33841 0.75076,-0.43659 1.18964,-0.60839c0,0 0.51842,-0.20089 0.65339,0.44148c0.13498,0.64236 -0.38345,0.84324 -0.38345,0.84324c-2.72034,1.04147 -0.18324,3.15398 -0.29821,5.32552c-0.08786,1.65934 -1.5727,2.39331 -1.98158,3.77415c-0.21068,0.71152 0.77131,2.26889 0.98438,2.88516c0.10497,2.49296 -0.27481,5.2128 -0.55252,7.74039l-0.30077,0.72391c0,0 -0.25979,0.6037 -0.72829,0.30616c-0.46849,-0.29754 -0.20869,-0.90123 -0.20869,-0.90123z" fill="#000000" stroke="none" stroke-width="0.5"/><path d="M221.6437,173.08504l-0.06249,0.62373c-0.24756,2.47114 -0.46643,4.43128 -1.47507,6.66011c-0.08778,1.00642 -0.41372,2.50445 -0.192,3.46043c0.28045,1.20928 1.42302,2.02489 1.50616,3.34037c0.16228,2.56727 -1.76791,4.38983 -1.79811,7.05751c0,0 -0.00812,0.67266 -0.54376,0.69503c-0.53564,0.02237 -0.52752,-0.65029 -0.52752,-0.65029c0.0103,-0.80598 -0.04721,-2.05957 0.19747,-2.85656c0.44339,-1.44422 1.6081,-2.38928 1.60275,-4.09414c-0.00294,-0.93721 -1.23931,-2.01788 -1.4509,-2.99582c-0.27575,-1.27448 0.04375,-3.00347 0.18759,-4.31256c0.92537,-2.22724 1.18502,-3.95811 1.43046,-6.40819l0.06249,-0.62373c0,0 0.06723,-0.67102 0.59869,-0.61897c0.53147,0.05205 0.46425,0.72307 0.46425,0.72307z" fill="#000000" stroke="none" stroke-width="0.5"/><path d="M217.04913,184.60224l0.28743,-2.86917l15.61093,1.52891l-0.28744,2.86917z" fill="url(#color-4)" stroke="none" stroke-width="0"/><path d="M219.25007,174.72259l0.28744,-2.86917l13.43726,1.31602l-0.28744,2.86917z" fill="url(#color-5)" stroke="none" stroke-width="0"/><path d="M217.1173,195.15526l0.28742,-2.86917l13.33846,1.30634l-0.28744,2.86918z" fill="url(#color-6)" stroke="none" stroke-width="0"/><path d="M223.68053,198.5981c1.24853,0.12228 2.37352,0.81792 2.21082,2.44205c-0.1627,1.62414 -1.19416,2.22057 -2.44269,2.0983c-1.24853,-0.12228 -2.24134,-0.91698 -2.07864,-2.54111c0.1627,-1.62414 1.06198,-2.12152 2.31051,-1.99924z" fill="url(#color-7)" stroke="none" stroke-width="0"/><path d="M216.94212,198.55803c0,0 -1.09926,-9.85863 -0.58486,-14.99334c0.50704,-5.06136 3.64948,-15.598 3.64948,-15.598l13.31813,1.30435c0,0 0.69238,10.44822 0.18287,15.5342c-0.51202,5.11101 -3.24749,15.05715 -3.24749,15.05715z" fill="#f79cff" stroke="#000000" stroke-width="1.5"/></g><g data-paper-data="{&quot;index&quot;:null}" stroke-linecap="butt"><path d="M215.12621,232.50804c0,0 -1.70025,-9.77293 -1.5009,-14.9295c0.19649,-5.08289 2.68854,-15.79203 2.68854,-15.79203l13.37297,0.48727c0,0 1.3302,10.3863 1.13274,15.49392c-0.19843,5.13276 -2.32038,15.2276 -2.32038,15.2276z" fill="#949494" stroke="#000000" stroke-width="1.5"/><path d="M221.00706,232.95248l1.2059,-31.19404l1.98422,0.07229l-1.2059,31.19405z" fill="url(#color-8)" stroke="none" stroke-width="0"/><path d="M225.74508,228.96762l0.84752,-21.92352l1.98421,0.0723l-0.84751,21.92352z" fill="url(#color-9)" stroke="none" stroke-width="0"/><path d="M216.33948,228.48195l0.84751,-21.92351l1.98421,0.07229l-0.84751,21.92352z" fill="url(#color-10)" stroke="none" stroke-width="0"/><path d="M221.10644,228.12918l0.3663,-0.27966c1.48572,-0.70415 -1.01148,-1.29131 -1.22591,-1.82273c-0.04137,-0.10251 -0.06203,-1.87526 -0.00057,-2.2283c0.17838,-1.02482 0.40514,-1.48495 1.0969,-2.17148c0.52738,-0.5234 1.82803,-0.64575 1.93089,-1.69972c0.12355,-1.26577 -1.68445,-1.80232 -2.33503,-2.33126c-1.1323,-0.92627 -2.11799,-2.02145 -1.34226,-3.94024c0.41788,-1.03363 1.45585,-1.25051 1.87295,-2.18993c0.1392,-0.31352 0.22102,-0.69604 0.44251,-0.92269c0.2768,-0.28327 1.15343,-0.20532 0.96423,-0.57648c-0.46307,-0.90839 -1.97,-1.96658 -2.78183,-1.9652c0,0 -0.53365,-0.01944 -0.5076,-0.69331c0.02606,-0.67387 0.55971,-0.65444 0.55971,-0.65444c1.14484,0.07053 4.90416,2.28098 3.4052,4.38885c-1.20572,1.6955 -4.60976,3.29849 -2.01911,5.41776c0.83667,0.6893 2.29459,1.06656 2.69405,2.38228c0.97744,3.21953 -2.59957,2.8501 -2.93085,5.18129c-0.06024,0.42392 -0.2171,0.86464 -0.13618,1.27947c0.07402,0.37948 0.63145,0.11438 0.89334,0.31992c1.35272,1.06162 1.17472,2.59713 -0.14972,3.44907l-0.24833,0.19976c0,0 -0.45848,0.35762 -0.73284,-0.21386c-0.27434,-0.57149 0.18414,-0.9291 0.18414,-0.9291z" fill="#000000" stroke="none" stroke-width="0.5"/><path d="M225.68612,227.85419l0.18934,-0.49737c0.0613,-2.37604 0.27717,-4.72037 0.09663,-7.03747c-0.46332,-1.03039 -1.39437,-2.22278 -1.17831,-3.53832c0.19059,-1.16041 1.7782,-2.32756 1.71832,-3.51267c-0.10449,-2.06773 -2.5634,-3.98058 -0.45876,-6.00558c0.37635,-0.3621 0.72265,-0.48169 1.1502,-0.68001c0,0 0.50515,-0.23223 0.67917,0.40068c0.17401,0.6329 -0.33115,0.86512 -0.33115,0.86512c-2.65154,1.20592 0.01003,3.15929 0.02811,5.3338c0.01381,1.6616 -1.42335,2.48502 -1.747,3.88829c-0.16676,0.72307 0.90865,2.21746 1.15902,2.81954c0.25726,2.48187 0.04457,5.21985 -0.07801,7.75969l-0.25592,0.74095c0,0 -0.22238,0.61847 -0.7082,0.35014c-0.48582,-0.26832 -0.26343,-0.88678 -0.26343,-0.88678z" fill="#000000" stroke="none" stroke-width="0.5"/><path d="M218.28781,206.88447l-0.02421,0.62639c-0.09594,2.48165 -0.19449,4.45152 -1.06491,6.73787c-0.02606,1.0099 -0.25975,2.52507 0.02003,3.4657c0.3539,1.18986 1.54421,1.93405 1.70767,3.24198c0.31901,2.55254 -1.49607,4.48976 -1.36304,7.15428c0,0 0.03303,0.6719 -0.50023,0.72699c-0.53327,0.05509 -0.56631,-0.61681 -0.56631,-0.61681c-0.03902,-0.8051 -0.17311,-2.05283 0.02237,-2.86328c0.35422,-1.46863 1.45895,-2.48318 1.34931,-4.18451c-0.06026,-0.93528 -1.36043,-1.93829 -1.63144,-2.90145c-0.35319,-1.25523 -0.14004,-3.00052 -0.07655,-4.31596c0.7874,-2.27967 0.94068,-4.02319 1.0358,-6.48369l0.02422,-0.62638c0,0 0.02606,-0.67387 0.55971,-0.65443c0.53365,0.01944 0.50761,0.69331 0.50761,0.69331z" fill="#000000" stroke="none" stroke-width="0.5"/><path d="M214.40634,218.66114l0.11139,-2.88138l15.67522,0.57115l-0.11139,2.88138z" fill="url(#color-11)" stroke="none" stroke-width="0"/><path d="M215.99883,208.66537l0.11139,-2.88138l13.4926,0.49161l-0.11139,2.88138z" fill="url(#color-12)" stroke="none" stroke-width="0"/><path d="M215.1199,229.19024l0.11139,-2.88138l13.39339,0.48799l-0.1114,2.88139z" fill="url(#color-13)" stroke="none" stroke-width="0"/><path d="M221.88144,232.22516c1.25367,0.04568 2.41911,0.6712 2.35606,2.30225c-0.06305,1.63104 -1.05609,2.28946 -2.30976,2.24378c-1.25367,-0.04568 -2.29324,-0.77817 -2.23019,-2.40921c0.06305,-1.63104 0.93021,-2.1825 2.18388,-2.13683z" fill="url(#color-14)" stroke="none" stroke-width="0"/><path d="M215.15319,232.59735c0,0 -1.70024,-9.77293 -1.50089,-14.92949c0.19649,-5.08289 2.68853,-15.79204 2.68853,-15.79204l13.37299,0.48725c0,0 1.33019,10.3863 1.13273,15.49392c-0.19843,5.13276 -2.32037,15.2276 -2.32037,15.2276z" fill="#f79cff" stroke="#000000" stroke-width="1.5"/></g><g stroke-linecap="butt"><path d="M247.9015,199.77159c0,0 -2.73547,-9.94613 -3.24749,-15.05714c-0.50951,-5.08598 0.18287,-15.53419 0.18287,-15.53419l13.31812,-1.30436c0,0 3.14244,10.53665 3.64948,15.598c0.51439,5.1347 -0.58486,14.99335 -0.58486,14.99335z" fill="#949494" stroke="#000000" stroke-width="1.5"/><path d="M253.40087,199.4641l-3.11175,-31.06187l1.97607,-0.19353l3.11174,31.06186z" fill="url(#color-15)" stroke="none" stroke-width="0"/><path d="M248.428,195.77652l-2.18697,-21.83063l1.97607,-0.19353l2.18697,21.83063z" fill="url(#color-16)" stroke="none" stroke-width="0"/><path d="M257.78628,194.71643l-2.18697,-21.83063l1.97607,-0.19353l2.18697,21.83063z" fill="url(#color-17)" stroke="none" stroke-width="0"/><path d="M255.22338,195.37848c-0.23888,0.5872 -0.71838,0.25829 -0.71838,0.25829l-0.26007,-0.1842c-1.37407,-0.76932 -1.64567,-2.29107 -0.36042,-3.43345c0.24883,-0.22117 0.82143,0.00934 0.8721,-0.37396c0.0554,-0.419 -0.12813,-0.8493 -0.21419,-1.26874c-0.47325,-2.30656 -4.02096,-1.71903 -3.24229,-4.99232c0.31822,-1.33769 1.75034,-1.80343 2.54327,-2.54262c2.45617,-2.27377 -1.03955,-3.66554 -2.34673,-5.28411c-1.6251,-2.01224 1.99199,-4.4485 3.13037,-4.58892c0,0 0.53147,-0.05205 0.59868,0.61897c0.06722,0.67102 -0.46424,0.72307 -0.46424,0.72307c-0.81039,0.04827 -2.24977,1.19667 -2.6564,2.13168c-0.16614,0.38203 0.70406,0.25061 0.99768,0.51641c0.23494,0.21269 0.34,0.58947 0.49812,0.8939c0.47378,0.91215 1.52308,1.06513 2.0034,2.07126c0.89165,1.86775 -0.0252,3.02117 -1.09872,4.01497c-0.617,0.56774 -2.38879,1.21388 -2.18806,2.46972c0.16715,1.0457 1.47285,1.08826 2.03125,1.57842c0.73245,0.64294 0.98693,1.08834 1.22767,2.10033c0.08293,0.34862 0.17075,2.11931 0.13573,2.22416c-0.18153,0.54355 -2.63814,1.28236 -1.11213,1.89431l0.38272,0.25672c0,0 0.4795,0.32891 0.24062,0.9161z" fill="#000000" stroke="none" stroke-width="0.5"/><path d="M250.18613,195.36927c-0.46849,0.29754 -0.72829,-0.30616 -0.72829,-0.30616l-0.30077,-0.72391c-0.27771,-2.5276 -0.65749,-5.24744 -0.55252,-7.74039c0.21308,-0.61626 1.19507,-2.17364 0.98438,-2.88516c-0.40888,-1.38084 -1.89371,-2.11482 -1.98157,-3.77415c-0.11497,-2.17154 2.42214,-4.28405 -0.29821,-5.32552c0,0 -0.51843,-0.20088 -0.38346,-0.84324c0.13498,-0.64236 0.65339,-0.44148 0.65339,-0.44148c0.43888,0.1718 0.79185,0.26998 1.18964,0.60839c2.22457,1.89246 -0.11273,3.95215 -0.09054,6.02239c0.01272,1.18655 1.66875,2.25441 1.92996,3.40099c0.29613,1.29987 -0.56024,2.54698 -0.95966,3.60377c-0.03847,2.3238 0.32039,4.65054 0.52692,7.01838l0.21941,0.48485c0,0 0.2598,0.60369 -0.20869,0.90123z" fill="#000000" stroke="none" stroke-width="0.5"/><path d="M256.9608,172.36198c0.53147,-0.05205 0.59869,0.61897 0.59869,0.61897l0.06249,0.62373c0.24545,2.45007 0.5051,4.18095 1.43046,6.40819c0.14384,1.30909 0.46334,3.03807 0.18759,4.31256c-0.21159,0.97795 -1.44797,2.05861 -1.45091,2.99582c-0.00536,1.70486 1.15936,2.64992 1.60275,4.09414c0.24468,0.79698 0.18718,2.05057 0.19747,2.85656c0,0 0.00812,0.67266 -0.52752,0.65029c-0.53564,-0.02237 -0.54377,-0.69503 -0.54377,-0.69503c-0.03021,-2.66768 -1.9604,-4.49024 -1.79812,-7.05751c0.08315,-1.31548 1.22571,-2.13109 1.50617,-3.34037c0.22172,-0.95598 -0.10422,-2.45401 -0.192,-3.46043c-1.00865,-2.22883 -1.22751,-4.18897 -1.47507,-6.66011l-0.06249,-0.62373c0,0 -0.06721,-0.67102 0.46425,-0.72307z" fill="#000000" stroke="none" stroke-width="0.5"/><path d="M245.48021,186.13116l-0.28744,-2.86917l15.61093,-1.52891l0.28743,2.86917z" fill="url(#color-18)" stroke="none" stroke-width="0"/><path d="M245.45295,176.03861l-0.28744,-2.86917l13.43726,-1.31602l0.28743,2.86917z" fill="url(#color-19)" stroke="none" stroke-width="0"/><path d="M247.68452,196.46161l-0.28744,-2.86918l13.33846,-1.30634l0.28742,2.86917z" fill="url(#color-20)" stroke="none" stroke-width="0"/><path d="M256.77024,200.59734c0.16271,1.62414 -0.83012,2.41883 -2.07864,2.54111c-1.24853,0.12228 -2.27998,-0.47416 -2.44269,-2.0983c-0.16271,-1.62414 0.9623,-2.31977 2.21082,-2.44205c1.24853,-0.12228 2.1478,0.3751 2.31051,1.99924z" fill="url(#color-21)" stroke="none" stroke-width="0"/><path d="M247.88001,199.86238c0,0 -2.73547,-9.94613 -3.24749,-15.05715c-0.50951,-5.08598 0.18287,-15.5342 0.18287,-15.5342l13.31813,-1.30435c0,0 3.14244,10.53665 3.64948,15.598c0.51439,5.1347 -0.58486,14.99334 -0.58486,14.99334z" fill="#f79cff" stroke="#000000" stroke-width="1.5"/></g><g fill="#ff66ba" stroke="#000000" stroke-width="1.5" stroke-linecap="butt"><path d="M217.51419,163.35335c6.20332,-2.0908 37.41755,-2.15461 43.52875,-0.163c9.88243,3.22063 20.10041,6.35491 20.48622,12.43652c0.04886,0.77015 -3.92211,-2.39014 -5.60284,-1.65699c-1.1817,0.51547 0.32488,4.94335 -1.58109,5.40847c-1.56218,0.38122 -4.87894,-2.42553 -6.83099,-2.0943c-1.73934,0.29513 -2.07812,3.73413 -4.06412,3.97863c-1.75943,0.2166 -4.75807,-3.51967 -6.66727,-3.35044c-1.62912,0.1444 -2.15126,4.20123 -3.86163,4.30632c-1.89859,0.11663 -4.35225,-4.16007 -6.3177,-4.09768c-2.02899,0.06441 -3.5714,4.46605 -5.63373,4.46605c-2.13176,0 -3.3913,-4.50144 -5.54644,-4.54893c-1.94002,-0.04275 -4.77603,4.37281 -6.69295,4.29392c-1.9914,-0.08196 -3.70314,-4.55059 -5.6258,-4.66913c-1.99239,-0.12284 -4.19231,4.10309 -6.06204,3.94367c-2.08074,-0.17741 -2.27501,-4.63517 -4.13881,-4.85426c-1.51254,-0.17781 -4.73751,3.88985 -6.06631,3.68686c-2.22869,-0.34046 -1.4805,-4.64589 -3.05448,-5.04955c-2.77344,-0.71127 -7.08913,2.41776 -7.08913,1.55135c0,-5.98887 11.21549,-10.35022 20.82035,-13.5875z" data-paper-data="{&quot;index&quot;:null}"/><path d="M281.81095,171.5438c0,0.86641 -4.31569,-2.26262 -7.08913,-1.55135c-1.57398,0.40366 -0.82578,4.70909 -3.05447,5.04955c-1.3288,0.20299 -4.55377,-3.86466 -6.06631,-3.68686c-1.8638,0.21909 -2.05806,4.67685 -4.13881,4.85426c-1.86972,0.15941 -4.06966,-4.06652 -6.06204,-3.94367c-1.92265,0.11854 -3.6344,4.58717 -5.6258,4.66913c-1.91692,0.07889 -4.75293,-4.33667 -6.69295,-4.29392c-2.15515,0.04749 -3.41468,4.54893 -5.54644,4.54893c-2.06234,0 -3.60473,-4.40163 -5.63373,-4.46605c-1.96545,-0.06239 -4.41912,4.21432 -6.31771,4.09768c-1.71038,-0.10507 -2.2325,-4.16191 -3.86162,-4.30632c-1.9092,-0.16923 -4.90783,3.56704 -6.66727,3.35044c-1.986,-0.2445 -2.32478,-3.6835 -4.06412,-3.97863c-1.95205,-0.33122 -5.26881,2.47552 -6.83099,2.0943c-1.90597,-0.46512 -0.39938,-4.893 -1.58108,-5.40847c-1.68073,-0.73315 -5.6517,2.42714 -5.60285,1.65699c0.38582,-6.08161 10.6038,-9.2159 20.48623,-12.43652c6.1112,-1.9916 37.32544,-1.92781 43.52876,0.163c9.60486,3.23728 20.82035,7.59864 20.82035,13.5875z" data-paper-data="{&quot;index&quot;:null}"/><path d="M196.02211,166.39363c0,-5.98887 11.21548,-10.35022 20.82035,-13.5875c6.20332,-2.0908 37.41754,-2.1546 43.52874,-0.163c9.88242,3.22063 20.10041,6.35491 20.48623,12.43652c0.04886,0.77015 -3.92211,-2.39014 -5.60284,-1.65699c-1.1817,0.51547 0.32487,4.94335 -1.58109,5.40847c-1.56219,0.38122 -4.87894,-2.42553 -6.83099,-2.0943c-1.73934,0.29513 -2.07812,3.73413 -4.06412,3.97863c-1.75943,0.2166 -4.75807,-3.51967 -6.66727,-3.35044c-1.62912,0.1444 -2.15124,4.20124 -3.86162,4.30632c-1.89859,0.11664 -4.35226,-4.16007 -6.31771,-4.09768c-2.02899,0.06441 -3.57139,4.46605 -5.63373,4.46605c-2.13176,0 -3.3913,-4.50145 -5.54644,-4.54894c-1.94002,-0.04274 -4.77602,4.37282 -6.69295,4.29393c-1.9914,-0.08196 -3.70314,-4.55059 -5.6258,-4.66913c-1.99239,-0.12284 -4.19231,4.10308 -6.06204,3.94367c-2.08074,-0.17741 -2.27499,-4.63517 -4.1388,-4.85426c-1.51254,-0.1778 -4.73752,3.88985 -6.06632,3.68686c-2.22869,-0.34046 -1.4805,-4.64589 -3.05448,-5.04955c-2.77344,-0.71127 -7.08913,2.41776 -7.08913,1.55135z"/></g><g><g><path d="M219.73089,153.23793l5.47021,-35.2499l-11.37043,-7.56535l13.75033,-7.77065h23.10281l15.03048,8.239l-12.72521,6.84513l5.37702,35.18361z" fill="#949494" stroke="#000000" stroke-width="1.5" stroke-linecap="butt"/><path d="M237.11302,152.83292v-11.81061h4.84538v11.81061z" fill="url(#color-22)" stroke="none" stroke-width="0" stroke-linecap="butt"/><path d="M240.57794,141.89184l4.01889,-22.04655l2.83031,0.51594l-4.0189,22.04656z" fill="url(#color-23)" stroke="none" stroke-width="0" stroke-linecap="butt"/><path d="M235.79346,142.53808l-4.0189,-22.04655l2.8303,-0.51594l4.0189,22.04656z" data-paper-data="{&quot;index&quot;:null}" fill="url(#color-24)" stroke="none" stroke-width="0" stroke-linecap="butt"/><path d="M235.95048,142.46795v-2.83904h7.42517v2.83904z" fill="url(#color-25)" stroke="none" stroke-width="0" stroke-linecap="butt"/><path d="M239.82103,152.62522c0.07948,0.09376 0.33516,0.45032 -0.02141,0.80689c-0.41533,0.41533 -0.83065,0 -0.83065,0l-0.32345,-0.56675c0,-1.53212 -1.69308,-2.41329 -0.83227,-3.92342c0.58469,-1.02573 3.0939,-1.40898 2.67943,-2.70465c-0.39243,-1.22675 -2.66699,-0.8772 -3.05523,-2.54655c-0.1126,-0.48414 0.35098,-0.93271 0.46852,-1.41568c0.35367,-1.26677 1.74073,-1.33241 2.12752,-2.29902c0.32777,-0.81915 -1.645,-1.57422 -1.88639,-1.91413c-0.4216,-0.59367 -0.18922,-1.04403 -0.2558,-1.64323c-0.08745,-0.78701 -0.48564,-2.01211 0.142,-2.7154c0.96026,-1.076 3.73425,-1.78936 5.14991,-2.0933c1.31114,-1.4315 1.16404,-2.01261 -0.48976,-3.39069c-0.24977,-0.20813 -0.80788,-0.16117 -0.84682,-0.48395c-0.2271,-1.88206 2.96452,-1.50596 3.78476,-2.23771c0.39311,-0.35069 0.1308,-1.83072 0.1308,-2.31019c0,0 0,-0.58736 0.58736,-0.58736c0.58736,0 0.58737,0.58736 0.58737,0.58736c0,1.57867 0.25651,2.85425 -1.42915,3.57371c-0.22382,0.09552 -1.68941,0.49622 -2.28159,0.62559c0.61401,0.29846 2.10993,2.10845 2.18084,2.47957c0.25656,1.34256 -0.79277,1.95794 -1.64501,2.76592c-1.53555,0.42465 -3.63705,0.92234 -4.8437,1.84356c-0.27731,0.21172 0.11319,1.56777 0.14201,1.82714c0.16679,1.50111 2.64118,2.26194 2.09751,4.01354c-0.35392,1.14024 -1.87751,1.0824 -2.11219,2.24352c-0.09066,0.35491 -0.50948,0.64736 -0.43999,1.00701c0.18574,0.96131 2.55602,1.18571 3.00149,2.29883c0.91175,2.2782 -1.98448,2.28475 -2.77162,3.65491c-0.4831,0.84091 0.66676,1.04851 0.95461,1.79614c0.03073,0.07982 0.03196,0.889 0.03093,1.30836z" fill="#000000" stroke="none" stroke-width="0.5" stroke-linecap="butt"/><path d="M236.99987,110.06373v-25.71644h4.12965v25.71644z" fill="url(#color-26)" stroke="none" stroke-width="0" stroke-linecap="butt"/><path d="M218.65715,115.49364v-3.15515h42.43842v3.15515z" fill="url(#color-27)" stroke="none" stroke-width="0" stroke-linecap="butt"/><path d="M238.7159,77.9176c0.26267,-0.52535 0.78802,-0.26267 0.78802,-0.26267l0.46098,0.29982c0.47082,0.64157 0.51177,1.18089 1.14857,1.65849c0.26714,0.73878 0.53231,1.46195 0.75245,2.17772l0.19503,-0.14712c0,0 0.46989,-0.35242 0.8223,0.11747c0.35242,0.46989 -0.11747,0.8223 -0.11747,0.8223l-0.54351,0.4056c-0.01078,0.00584 -0.02156,0.01168 -0.03233,0.01751c0.3845,1.76159 0.34103,3.50643 -0.78807,5.36c-0.40872,0.67098 -1.1177,1.39763 -1.79483,2.16426c0.67811,0.52044 1.27851,1.00508 1.54706,1.45504c0.98502,1.65043 0.84329,4.00679 0.82096,5.84567c-0.24949,0.64297 -0.60079,1.21441 -0.95729,1.76303c0.82081,1.3635 1.36293,2.90376 0.06639,4.47033c-0.2444,0.2953 -0.50628,0.57562 -0.77806,0.84825c0.62402,0.44474 1.69952,0.68173 2.06866,1.08181c0.75126,0.81424 0.74683,2.33062 1.91366,3.18284c0,0 0.46989,0.35242 0.11747,0.8223c-0.35242,0.46989 -0.8223,0.11747 -0.8223,0.11747c-0.77629,-0.59387 -1.28124,-1.35633 -1.79342,-2.18596c-0.22396,-0.36277 -0.02945,-0.95191 -0.35325,-1.22924c-0.40501,-0.34689 -1.38339,-0.62341 -1.90468,-1.01918c-0.00536,-0.00407 -0.0107,-0.00818 -0.01602,-0.01233c-0.91554,0.85376 -1.85967,1.69891 -2.57774,2.78001c0,0 -0.32581,0.48871 -0.81452,0.1629c-0.48871,-0.32581 -0.1629,-0.81452 -0.1629,-0.81452c0.81817,-1.22309 1.83168,-2.18552 2.84979,-3.14966c-0.44442,-1.09235 -0.50055,-2.61673 -0.26253,-3.53312c0.16188,-0.62327 0.56805,-1.16412 1.00565,-1.6969c-0.20166,-0.26438 -0.3916,-0.50732 -0.53544,-0.72125c-0.65105,-0.96824 -1.02027,-2.10211 -1.78214,-3.05337c-1.1599,-1.93611 -0.31537,-3.50752 0.87034,-4.99831c-1.52227,-1.04356 -3.03012,-1.94588 -2.21417,-4.40471c0.23317,-0.70264 0.34206,-1.23062 0.92981,-1.77722c0.45593,-0.42401 1.48341,-0.87934 2.06997,-1.11853c0.66767,-0.27751 1.29138,-0.59557 1.91728,-0.92853c-0.19937,-0.68108 -0.43807,-1.37952 -0.64912,-2.11771c-0.63587,-0.4769 -0.66488,-1.03122 -1.13537,-1.64053l-0.04656,0.04605c0,0 -0.52535,-0.26267 -0.26267,-0.78802zM238.20087,94.97448c0.75328,0.94267 1.13943,2.07942 1.77065,3.03713c0.1038,0.15749 0.21394,0.31915 0.32681,0.48462c0.20836,-0.28293 0.39253,-0.57508 0.52321,-0.88668c-0.02588,-1.58735 0.14075,-3.63977 -0.70167,-5.06647c-0.2946,-0.49893 -0.69869,-0.90288 -1.1441,-1.26195c-0.92226,1.17148 -1.5406,2.41963 -0.7749,3.69335zM240.18982,103.3034c0.84002,-0.87232 0.64648,-1.82424 0.17389,-2.68968c-0.57283,0.9506 -0.97315,1.92536 -0.67141,3.19119c0.16754,-0.1646 0.33368,-0.33137 0.49752,-0.50151zM240.37964,87.78793c0.93481,-1.50574 0.99014,-2.84297 0.72413,-4.1982c-0.5753,0.30183 -1.15451,0.5882 -1.76737,0.84415c-0.50395,0.19675 -1.33335,0.56585 -1.73659,0.91164c-2.00757,1.7215 -0.50314,3.22531 1.15034,4.52625c0.58954,-0.69164 1.1903,-1.37641 1.6295,-2.08385z" fill="#000000" stroke="none" stroke-width="0.5" stroke-linecap="butt"/><path d="M223.67018,114.11951c0.25943,-0.35321 0.35449,-0.8041 0.57997,-1.1799c1.47897,-3.55829 3.86125,1.32767 6.23298,0.95704c0.33705,-0.05267 0.79358,-1.24534 1.0666,-1.43421c0.83061,-0.57462 3.08973,-1.49372 4.07071,-1.21478c0.90477,0.25726 1.89749,1.70716 2.46121,2.37425c3.57974,3.64627 5.72956,-1.98463 8.87129,-2.27682c1.92937,-0.17944 2.2227,2.39988 3.03775,3.53574c0.46192,0.64374 1.89488,0.8158 2.5974,1.05113c0.73524,0.25307 0.83804,-0.85379 1.08299,-1.43349c0.39407,-0.93261 0.65785,-3.52062 1.52306,-4.124c0.36351,-0.2535 0.89409,-0.39803 1.30781,-0.2392c0.40656,0.15608 1.05644,1.70803 1.26906,2.14315c0.34571,0.70745 1.52825,1.09987 2.27944,1.09614c0,0 0.58736,0 0.58736,0.58736c0,0.58736 -0.58736,0.58736 -0.58736,0.58736c-1.77757,-0.00734 -3.54262,-1.32332 -4.00955,-3.11402c0.00847,0.07077 0.01045,0.13856 -0.00275,0.17958c-0.19143,0.59442 -0.67912,1.06107 -0.8882,1.64951c-0.58321,1.64142 -0.52403,4.14043 -2.86338,3.80296c-1.07625,-0.35713 -2.48171,-0.56099 -3.23933,-1.48658c-0.46025,-0.5623 -1.06431,-3.23207 -2.03767,-3.0623c-1.52178,0.26542 -2.05567,1.96205 -3.33301,2.61031c-2.21477,1.12402 -4.71181,1.01066 -6.45962,-0.71171c-1.6783,-1.98604 -2.50742,-2.56382 -5.00285,-0.98579c-0.6821,0.43134 -0.4474,1.36271 -1.47111,1.61103c-1.16516,0.28263 -3.38225,-0.99226 -4.25982,-1.60508c-0.31515,-0.22007 -0.4558,-0.90139 -0.82742,-0.80319c-0.28999,0.07664 -0.24645,0.54731 -0.35322,0.82761c-0.26112,0.43519 -0.37048,0.9626 -0.68889,1.35781c-2.08162,2.58365 -3.48743,-0.2556 -5.40856,-0.53532l-0.34767,-0.15379c-0.08519,-0.03246 -0.16088,-0.08418 -0.22175,-0.14984c-0.12329,-0.12331 -0.24655,-0.33706 -0.10451,-0.64122c0.00594,-0.01313 0.01236,-0.026 0.01922,-0.03859c0.15773,-0.29782 0.40285,-0.32819 0.5759,-0.30377c0.12258,0.01239 0.23404,0.06247 0.32259,0.13848c1.24441,0.30317 2.97862,2.67604 4.22134,0.98412z" fill="#000000" stroke="none" stroke-width="0.5" stroke-linecap="butt"/><path d="M227.98973,124.14207v-18.95884h22.33763v18.95884z" fill="url(#color-28)" stroke="none" stroke-width="0" stroke-linecap="butt"/><path d="M249.53045,122.01851c0,0.63512 -0.51486,1.14998 -1.14998,1.14998c-0.63512,0 -1.14998,-0.51486 -1.14998,-1.14998c0,-0.63512 0.51486,-1.14998 1.14998,-1.14998c0.63512,0 1.14998,0.51486 1.14998,1.14998z" fill="url(#color-29)" stroke="none" stroke-width="0" stroke-linecap="butt"/><path d="M241.76807,108.60204v-0.86249h7.66655v0.86249z" fill="#000000" stroke="none" stroke-width="0" stroke-linecap="butt"/><path d="M241.75468,110.02614v-0.86249h7.66656v0.86249z" fill="#000000" stroke="none" stroke-width="0" stroke-linecap="butt"/><path d="M241.76264,111.35308v-0.86249h7.66657v0.86249z" fill="#000000" stroke="none" stroke-width="0" stroke-linecap="butt"/><path d="M241.74926,112.77717v-0.86249h7.66655v0.86249z" fill="#000000" stroke="none" stroke-width="0" stroke-linecap="butt"/><g stroke="#000000" stroke-width="0.5"><path d="M235.45858,109.10821c2.82283,0 5.1112,2.28837 5.1112,5.1112c0,2.82283 -2.28837,5.11119 -5.1112,5.11119c-2.82283,0 -5.11119,-2.28837 -5.11119,-5.11119c0,-2.82283 2.28837,-5.1112 5.11119,-5.1112z" fill="url(#color-30)" stroke-linecap="butt"/><path d="M231.5507,111.11951l7.88798,-0.0533" fill="none" stroke-linecap="round"/><path d="M230.91114,112.45195l9.22041,0.05329" fill="none" stroke-linecap="round"/><path d="M230.43146,113.57116l9.85997,0.21319" fill="none" stroke-linecap="round"/><path d="M240.47353,114.82365l-10.01987,-0.10659" fill="none" stroke-linecap="round"/><path d="M232.8486,109.83669l5.34657,0.0574" fill="none" stroke-linecap="round"/><path d="M239.3765,117.40489l-7.88798,-0.0533" data-paper-data="{&quot;index&quot;:null}" fill="none" stroke-linecap="round"/><path d="M240.06937,115.96586l-9.22041,0.05329" data-paper-data="{&quot;index&quot;:null}" fill="none" stroke-linecap="round"/><path d="M238.13298,118.57702l-5.17502,0.0574" data-paper-data="{&quot;index&quot;:null}" fill="none" stroke-linecap="round"/></g></g><path d="M262.43202,115.43574c0,1.42164 -1.11857,2.57411 -2.4984,2.57411c-1.37983,0 -2.49839,-1.15247 -2.49839,-2.57411c0,-1.42164 1.11857,-2.57411 2.49839,-2.57411c1.37983,0 2.4984,1.15247 2.4984,2.57411z" fill="url(#color-31)" stroke="none" stroke-width="0" stroke-linecap="butt"/><path d="M221.55481,114.51467c0,1.42164 -1.11857,2.57411 -2.4984,2.57411c-1.37983,0 -2.4984,-1.15247 -2.4984,-2.57411c0,-1.42164 1.11857,-2.57411 2.4984,-2.57411c1.37983,0 2.4984,1.15246 2.4984,2.57411z" fill="url(#color-32)" stroke="none" stroke-width="0" stroke-linecap="butt"/><path d="M219.81281,153.33378l5.47021,-35.2499l-11.37043,-7.56535l13.75033,-7.77065h23.10281l15.03049,8.239l-12.72522,6.84513l5.37703,35.18361z" fill="#f79cff" stroke="#000000" stroke-width="1.5" stroke-linecap="butt"/></g><g data-paper-data="{&quot;index&quot;:null}" stroke-linecap="butt"><path d="M195.33831,131.05885c0,0 3.72421,-7.92394 6.63089,-11.35208c2.86516,-3.37916 10.6864,-9.07194 10.6864,-9.07194l11.22643,9.51877c0,0 -4.3674,8.09392 -7.24649,11.48952c-2.89327,3.41231 -10.07079,8.93448 -10.07079,8.93448z" fill="#949494" stroke="#000000" stroke-width="1.5"/><path d="M200.15312,135.40391l17.58364,-20.73813l1.66572,1.41234l-17.58364,20.73814z" fill="url(#color-33)" stroke="none" stroke-width="0"/><path d="M206.33611,135.90209l12.35798,-14.575l1.66572,1.41234l-12.35799,14.57499z" fill="url(#color-34)" stroke="none" stroke-width="0"/><path d="M198.51606,129.10843l12.35798,-14.575l1.66572,1.41234l-12.35798,14.575z" fill="url(#color-35)" stroke="none" stroke-width="0"/><path d="M202.79714,132.13753l0.46294,0.05816c1.6495,0.53329 -0.18366,-1.58724 -0.0859,-2.10187c0.01886,-0.09928 0.94152,-1.33906 1.18158,-1.54094c0.69686,-0.58603 1.1357,-0.74845 2.09397,-0.74813c0.73058,0.00024 1.9125,0.80868 2.55996,0.15066c0.77758,-0.79027 -0.49054,-2.40259 -0.76866,-3.21496c-0.48106,-1.41783 -0.74662,-2.85177 0.93748,-3.6457c0.9072,-0.42769 1.9137,0.13505 2.77026,-0.22804c0.28587,-0.12119 0.55904,-0.32945 0.8695,-0.33408c0.388,-0.00579 1.09951,0.65 1.13391,0.26349c0.08419,-0.94595 -0.64861,-2.71221 -1.34655,-3.26865c0,0 -0.44801,-0.37985 -0.06815,-0.82785c0.37986,-0.448 0.82785,-0.06815 0.82785,-0.06815c0.94579,0.83481 3.00175,4.94416 0.59622,5.37226c-1.93494,0.34435 -5.70874,-0.88464 -4.60808,2.35927c0.35288,1.051 1.40484,2.31284 1.04991,3.49674c-0.86846,2.89694 -3.74448,0.18556 -5.26565,1.5698c-0.27662,0.25173 -0.64513,0.4487 -0.79569,0.79106c-0.13774,0.31318 0.48163,0.51263 0.5975,0.83454c0.59855,1.66274 -0.36888,2.6021 -1.95828,2.28173l-0.31924,-0.03239c0,0 -0.58346,-0.06756 -0.51591,-0.65102c0.06755,-0.58346 0.65101,-0.51591 0.65101,-0.51591z" fill="#000000" stroke="none" stroke-width="0.5"/><path d="M206.87613,135.09184l0.42645,-0.21385c1.3131,-1.6006 2.74213,-3.07315 3.81627,-4.79903c0.1487,-1.03047 -0.01836,-2.49408 0.86508,-3.25525c0.77926,-0.6714 2.76188,-0.38827 3.33913,-1.24871c1.00717,-1.50128 -0.08984,-4.51202 2.79188,-4.46696c0.5153,0.00806 0.87615,0.16315 1.34854,0.3196c0,0 0.55704,0.1863 0.37073,0.74333c-0.18631,0.55704 -0.74334,0.37073 -0.74334,0.37073c-2.91691,-0.98683 -1.66734,2.19107 -2.80537,3.70682c-0.8696,1.15824 -2.54066,0.74076 -3.56304,1.48869c-0.5268,0.38539 -0.39596,2.15694 -0.50034,2.74509c-1.09565,1.89249 -2.73077,3.63937 -4.1834,5.31113l-0.61285,0.33654c0,0 -0.51907,0.27488 -0.79396,-0.24419c-0.27488,-0.51907 0.24419,-0.79394 0.24419,-0.79394z" fill="#000000" stroke="none" stroke-width="0.5"/><path d="M211.64648,115.51467l-0.35309,0.41643c-1.39888,1.64982 -2.52849,2.94403 -4.4889,3.92708c-0.55812,0.68031 -1.56259,1.56736 -1.82131,2.40976c-0.32726,1.0656 0.30019,2.39737 -0.25326,3.41384c-1.08012,1.98375 -3.66659,2.0768 -4.96585,4.01028c0,0 -0.32805,0.48721 -0.81526,0.15915c-0.48721,-0.32805 -0.15915,-0.81526 -0.15915,-0.81526c0.39357,-0.58339 0.94032,-1.53808 1.53813,-1.96418c1.08329,-0.77214 2.57026,-0.71503 3.37864,-1.96654c0.4444,-0.68799 -0.14012,-2.2741 0.13809,-3.12607c0.36255,-1.11032 1.47147,-2.17057 2.22381,-3.03641c1.88556,-1.03543 2.94211,-2.13557 4.32907,-3.77133l0.35309,-0.41643c0,0 0.37986,-0.448 0.82786,-0.06814c0.448,0.37986 0.06814,0.82785 0.06814,0.82785z" fill="#000000" stroke="none" stroke-width="0.5"/><path d="M202.06565,120.99149l1.62419,-1.91557l13.15914,11.15749l-1.62419,1.91557z" fill="url(#color-36)" stroke="none" stroke-width="0"/><path d="M208.73594,115.17427l1.62419,-1.91557l11.32686,9.60392l-1.62419,1.91557z" fill="url(#color-37)" stroke="none" stroke-width="0"/><path d="M197.09293,128.76073l1.62419,-1.91557l11.24356,9.5333l-1.62419,1.91557z" fill="url(#color-38)" stroke="none" stroke-width="0"/><path d="M201.85108,135.13167c1.05245,0.89236 1.1603,2.49477 0.2409,3.5791c-0.91939,1.08433 -2.51788,1.23996 -3.57032,0.34761c-1.05245,-0.89236 -1.1603,-2.49477 -0.2409,-3.5791c0.91939,-1.08433 2.51788,-1.23996 3.57032,-0.34761z" fill="url(#color-39)" stroke="none" stroke-width="0"/><path d="M195.31412,131.13913c0,0 3.72421,-7.92393 6.63088,-11.35207c2.86516,-3.37916 10.6864,-9.07194 10.6864,-9.07194l11.22644,9.51877c0,0 -4.36739,8.09391 -7.24649,11.48951c-2.89327,3.41231 -10.07079,8.93449 -10.07079,8.93449z" fill="#f79cff" stroke="#000000" stroke-width="1.5"/></g><g data-paper-data="{&quot;index&quot;:null}" stroke-linecap="butt"><path d="M177.84038,155.08814c0,0 4.05379,-7.62965 6.94676,-11.06933c2.85165,-3.39055 10.28886,-9.42349 10.28886,-9.42349l8.93633,7.48217c0,0 -4.63608,7.85369 -7.5016,11.26074c-2.87962,3.42381 -9.73402,9.23208 -9.73402,9.23208z" fill="#949494" stroke="#000000" stroke-width="1.5"/><path d="M181.6472,158.53678l17.50071,-20.80802l1.32593,1.11016l-17.50071,20.80802z" fill="url(#color-40)" stroke="none" stroke-width="0"/><path d="M187.03528,158.32853l12.29969,-14.62411l1.32593,1.11016l-12.29969,14.62411z" fill="url(#color-41)" stroke="none" stroke-width="0"/><path d="M180.82649,152.96778l12.29969,-14.62411l1.32592,1.11017l-12.29969,14.62411z" fill="url(#color-42)" stroke="none" stroke-width="0"/><path d="M184.29333,155.27284l0.40137,0.00344c1.39808,0.30979 -0.00548,-1.42863 0.13108,-1.9087c0.02634,-0.0926 0.95956,-1.32278 1.19051,-1.53274c0.67038,-0.60945 1.07224,-0.80469 1.91488,-0.90713c0.64241,-0.07809 1.60227,0.53288 2.2363,-0.13697c0.76145,-0.80447 -0.1952,-2.13971 -0.35991,-2.85116c-0.28365,-1.24216 -0.37622,-2.52212 1.18274,-3.42711c0.83981,-0.48751 1.66953,-0.08193 2.45844,-0.50505c0.2633,-0.14122 0.52399,-0.36055 0.79744,-0.39805c0.34175,-0.04688 0.90297,0.47525 0.9712,0.11887c0.16703,-0.87219 -0.30377,-2.40528 -0.86281,-2.83821c0,0 -0.3566,-0.29857 0.02146,-0.74807c0.37806,-0.44951 0.73466,-0.15094 0.73466,-0.15094c0.74963,0.66034 2.15361,4.18964 -0.00378,4.83814c-1.73534,0.52162 -4.93303,-0.19523 -4.28404,2.64677c0.207,0.92119 1.008,1.95981 0.57953,3.07814c-1.04844,2.73649 -3.31097,0.57073 -4.78467,1.99688c-0.26799,0.25935 -0.61141,0.4786 -0.77745,0.80712c-0.1519,0.30053 0.37313,0.41614 0.44339,0.69745c0.3629,1.45304 -0.58015,2.4139 -1.9463,2.29194l-0.27753,0.00467c0,0 -0.50644,0.00089 -0.38968,-0.53873c0.11676,-0.53964 0.62319,-0.54055 0.62319,-0.54055z" fill="#000000" stroke="none" stroke-width="0.5"/><path d="M187.5898,157.5313l0.39602,-0.24085c1.31201,-1.60126 2.71338,-3.09813 3.82757,-4.78811c0.23205,-0.95623 0.22902,-2.27383 1.0807,-3.06307c0.75125,-0.69617 2.46684,-0.65035 3.05902,-1.49738c1.03322,-1.47784 0.36451,-4.10747 2.89413,-4.37529c0.45234,-0.04788 0.7544,0.05493 1.15443,0.14705c0,0 0.47152,0.11029 0.25293,0.63853c-0.21858,0.52825 -0.69011,0.41797 -0.69011,0.41797c-2.46798,-0.58778 -1.68156,2.17804 -2.83127,3.68313c-0.87854,1.15009 -2.30695,0.94828 -3.2795,1.74035c-0.50112,0.40814 -0.56022,2.01059 -0.70981,2.55845c-1.14949,1.84431 -2.75906,3.61357 -4.20075,5.29474l-0.572,0.37279c0,0 -0.48347,0.30647 -0.67417,-0.1377c-0.19069,-0.44416 0.29277,-0.75064 0.29277,-0.75064z" fill="#000000" stroke="none" stroke-width="0.5"/><path d="M193.70898,139.15623l-0.35141,0.41783c-1.39228,1.65538 -2.51283,2.95741 -4.33335,4.06457c-0.55766,0.68059 -1.52814,1.59769 -1.83844,2.3941c-0.39252,1.00741 0.02833,2.15536 -0.55826,3.14221c-1.14479,1.9259 -3.42838,2.28809 -4.76093,4.19162c0,0 -0.33637,0.47973 -0.73255,0.23262c-0.39618,-0.24712 -0.0598,-0.72685 -0.0598,-0.72685c0.40345,-0.57453 0.97807,-1.50427 1.54564,-1.95716c1.0285,-0.82069 2.33045,-0.92798 3.16432,-2.15661c0.45841,-0.67541 0.10032,-2.06005 0.42871,-2.86728c0.42795,-1.05199 1.50729,-2.13833 2.25398,-3.00905c1.75986,-1.14694 2.79707,-2.26405 4.17749,-3.90533l0.35143,-0.41782c0,0 0.37806,-0.44951 0.73466,-0.15094c0.3566,0.29857 -0.02144,0.74809 -0.02144,0.74809z" fill="#000000" stroke="none" stroke-width="0.5"/><path d="M184.74569,145.18076l1.61654,-1.92202l10.47478,8.77028l-1.61653,1.92202z" fill="url(#color-43)" stroke="none" stroke-width="0"/><path d="M191.18304,139.15763l1.61653,-1.92202l9.01628,7.54911l-1.61653,1.92202z" fill="url(#color-44)" stroke="none" stroke-width="0"/><path d="M179.60925,152.8031l1.61653,-1.92202l8.94999,7.49359l-1.61654,1.92202z" fill="url(#color-45)" stroke="none" stroke-width="0"/><path d="M182.63723,158.5039c0.83775,0.70142 1.30494,1.75447 0.38987,2.84246c-0.91506,1.08799 -1.94988,1.01008 -2.78763,0.30864c-0.83775,-0.70142 -1.16122,-1.76075 -0.24615,-2.84874c0.91506,-1.08799 1.80614,-1.00379 2.64389,-0.30237z" fill="url(#color-46)" stroke="none" stroke-width="0"/><path d="M177.81122,155.16399c0,0 4.05379,-7.62964 6.94675,-11.06932c2.85165,-3.39055 10.28887,-9.4235 10.28887,-9.4235l8.93634,7.48218c0,0 -4.63608,7.85369 -7.5016,11.26074c-2.87962,3.42381 -9.73402,9.23209 -9.73402,9.23209z" fill="#ff8f2e" stroke="#000000" stroke-width="1.5"/></g><path d="M181.49076,161.69833c2.22988,1.66406 5.07324,5.5671 5.78203,7.97738c0.28615,0.97309 2.51913,15.79399 -4.58568,14.35888c-3.64076,-0.7354 0.4329,-9.87284 -0.6876,-8.38941c-3.28546,4.34966 -8.41245,16.36145 -11.54597,13.71912c-2.7466,-2.31606 4.77896,-12.50611 3.90796,-13.09278c-0.57953,-0.39036 -6.19173,12.28818 -8.86891,10.13866c-2.67719,-2.14951 4.5306,-13.07982 4.10925,-13.41781c-1.49939,-1.20274 -4.64502,13.04672 -8.72238,9.84593c-3.77198,-2.22289 4.26153,-14.52536 6.41675,-17.65127c4.78991,-6.94725 10.4478,-6.28479 14.19456,-3.48871z" data-paper-data="{&quot;index&quot;:null}" fill="#ff8f2e" stroke="#000000" stroke-width="1.5" stroke-linecap="butt"/><g stroke-linecap="butt"><path d="M249.6411,232.99529c0,0 -2.12195,-10.09484 -2.32038,-15.2276c-0.19745,-5.10762 1.13274,-15.49392 1.13274,-15.49392l13.37297,-0.48727c0,0 2.49205,10.70914 2.68854,15.79203c0.19935,5.15655 -1.50091,14.9295 -1.50091,14.9295z" fill="#949494" stroke="#000000" stroke-width="1.5"/><path d="M255.149,233.02478l-1.2059,-31.19405l1.98421,-0.07229l1.2059,31.19404z" fill="url(#color-47)" stroke="none" stroke-width="0"/><path d="M250.41098,229.03992l-0.84751,-21.92352l1.98421,-0.0723l0.84752,21.92352z" fill="url(#color-48)" stroke="none" stroke-width="0"/><path d="M259.81659,228.55424l-0.84752,-21.92352l1.98421,-0.07229l0.84752,21.92351z" fill="url(#color-49)" stroke="none" stroke-width="0"/><path d="M257.21798,229.05829c-0.27434,0.57149 -0.73284,0.21386 -0.73284,0.21386l-0.24832,-0.19976c-1.32444,-0.85193 -1.50245,-2.38744 -0.14973,-3.44907c0.26189,-0.20553 0.81932,0.05957 0.89334,-0.31992c0.08092,-0.41483 -0.07594,-0.85555 -0.13618,-1.27947c-0.33127,-2.33119 -3.90829,-1.96177 -2.93084,-5.18129c0.39945,-1.31572 1.85737,-1.69298 2.69404,-2.38228c2.59065,-2.11927 -0.81338,-3.72226 -2.0191,-5.41776c-1.49896,-2.10788 2.26036,-4.31832 3.4052,-4.38885c0,0 0.53366,-0.01944 0.55971,0.65444c0.02605,0.67387 -0.5076,0.69331 -0.5076,0.69331c-0.81183,-0.00139 -2.31875,1.05682 -2.78183,1.9652c-0.18921,0.37116 0.68742,0.29321 0.96423,0.57648c0.22149,0.22666 0.3033,0.60917 0.44251,0.92269c0.4171,0.93942 1.45507,1.1563 1.87295,2.18993c0.77573,1.91879 -0.20996,3.01397 -1.34226,3.94024c-0.65057,0.52894 -2.45858,1.06549 -2.33503,2.33126c0.10287,1.05396 1.40352,1.17631 1.9309,1.69972c0.69175,0.68654 0.91851,1.14666 1.0969,2.17148c0.06145,0.35304 0.04079,2.12579 -0.00057,2.2283c-0.21444,0.53143 -2.71164,1.11858 -1.22592,1.82273l0.3663,0.27966c0,0 0.45848,0.35762 0.18413,0.9291z" fill="#000000" stroke="none" stroke-width="0.5"/><path d="M252.19073,228.74097c-0.48582,0.26832 -0.70819,-0.35014 -0.70819,-0.35014l-0.25592,-0.74095c-0.12258,-2.53984 -0.33527,-5.27782 -0.07801,-7.75969c0.25037,-0.60207 1.32579,-2.09647 1.15902,-2.81954c-0.32365,-1.40326 -1.76081,-2.22669 -1.747,-3.88829c0.01808,-2.17451 2.67965,-4.12788 0.02811,-5.3338c0,0 -0.50517,-0.23222 -0.33115,-0.86512c0.17401,-0.6329 0.67917,-0.40068 0.67917,-0.40068c0.42754,0.19832 0.77385,0.31792 1.15019,0.68001c2.10464,2.02499 -0.35427,3.93785 -0.45875,6.00558c-0.05989,1.1851 1.52773,2.35226 1.71832,3.51267c0.21606,1.31554 -0.71498,2.50794 -1.1783,3.53832c-0.18054,2.3171 0.03534,4.66143 0.09662,7.03747l0.18935,0.49737c0,0 0.22238,0.61845 -0.26343,0.88678z" fill="#000000" stroke="none" stroke-width="0.5"/><path d="M260.36005,206.19116c0.53365,-0.01944 0.55971,0.65443 0.55971,0.65443l0.02422,0.62638c0.09512,2.4605 0.2484,4.20402 1.0358,6.48369c0.06349,1.31544 0.27664,3.06073 -0.07655,4.31596c-0.27102,0.96317 -1.57118,1.96617 -1.63144,2.90145c-0.10963,1.70134 0.9951,2.71588 1.34931,4.18451c0.19547,0.81045 0.06139,2.05819 0.02237,2.86328c0,0 -0.03304,0.6719 -0.56631,0.61681c-0.53327,-0.05509 -0.50023,-0.72699 -0.50023,-0.72699c0.13303,-2.66453 -1.68206,-4.60174 -1.36305,-7.15428c0.16347,-1.30793 1.35378,-2.05212 1.70767,-3.24198c0.27978,-0.94062 0.04608,-2.4558 0.02003,-3.4657c-0.87042,-2.28635 -0.96897,-4.25621 -1.06491,-6.73787l-0.02422,-0.62639c0,0 -0.02604,-0.67387 0.50761,-0.69331z" fill="#000000" stroke="none" stroke-width="0.5"/><path d="M248.05871,219.2323l-0.11139,-2.88138l15.67522,-0.57115l0.11139,2.88138z" fill="url(#color-50)" stroke="none" stroke-width="0"/><path d="M248.64885,209.15698l-0.11139,-2.88138l13.4926,-0.49161l0.11139,2.88138z" fill="url(#color-51)" stroke="none" stroke-width="0"/><path d="M249.62699,229.67825l-0.1114,-2.88139l13.39339,-0.48799l0.11138,2.88138z" fill="url(#color-52)" stroke="none" stroke-width="0"/><path d="M258.44272,234.36199c0.06305,1.63104 -0.97652,2.36353 -2.23019,2.40921c-1.25367,0.04568 -2.2467,-0.61275 -2.30976,-2.24378c-0.06305,-1.63104 1.1024,-2.25656 2.35606,-2.30225c1.25367,-0.04568 2.12084,0.50579 2.18389,2.13683z" fill="url(#color-53)" stroke="none" stroke-width="0"/><path d="M249.61409,233.08461c0,0 -2.12195,-10.09484 -2.32037,-15.2276c-0.19745,-5.10762 1.13273,-15.49392 1.13273,-15.49392l13.37299,-0.48725c0,0 2.49203,10.70915 2.68852,15.79204c0.19935,5.15655 -1.50089,14.92949 -1.50089,14.92949z" fill="#f79cff" stroke="#000000" stroke-width="1.5"/></g><g stroke="#000000" stroke-linecap="butt"><path d="M281.96276,242.49691c0,5.45408 -7.78089,6.30898 -17.37911,6.30898c-9.59821,0 -17.3791,-0.8549 -17.3791,-6.30898c0,-5.45408 7.78088,-9.87549 17.3791,-9.87549c9.59821,0 17.37911,4.42142 17.37911,9.87549z" fill="#949494" stroke-width="1.5"/><path d="M280.13542,242.96332c0,4.74058 -6.763,5.48364 -15.10558,5.48364c-8.34258,0 -15.10557,-0.74306 -15.10557,-5.48364c0,-4.74058 6.76299,-8.58359 15.10557,-8.58359c8.34258,0 15.10558,3.84301 15.10558,8.58359z" fill="url(#color-54)" stroke-width="0"/><g stroke-width="1.5"><path d="M282.11941,242.55783c0,5.45408 -7.78089,6.30898 -17.37911,6.30898c-9.59821,0 -17.37911,-0.8549 -17.37911,-6.30898c0,-5.45408 7.78089,-9.87549 17.37911,-9.87549c9.59821,0 17.37911,4.42142 17.37911,9.87549z" fill="#ff66ba"/><path d="M264.26365,239.7385c-1.61236,5.21031 -16.29013,-0.15951 -15.19709,-1.45221c2.80324,-3.31529 8.76812,-5.60397 15.67372,-5.60397c1.07947,0 2.13597,0.05592 3.16099,0.16296c8.08899,0.84463 -1.89729,1.26939 -3.63761,6.89322z" fill="#f79cff"/><path d="M281.75393,242.83628c0,2.16487 -16.19698,4.17349 -15.64944,-1.25303c0.31326,-3.10464 6.37348,-7.76458 9.38645,-6.33845c3.82713,1.8115 6.26299,4.53985 6.26299,7.59149z" fill="#f79cff"/></g></g><path d="M236.3544,59.57497c0.8647,-0.07974 16.39393,2.40438 16.27586,1.97595c10.83843,3.79962 18.18142,12.26494 19.58505,21.46774c0.89846,5.89067 -13.00201,8.47296 -31.45657,10.17473c-18.45454,1.70178 -34.79711,0.30971 -35.37327,-4.01204c-1.25355,-9.40298 5.60719,-19.3386 15.9009,-25.00899c-0.03817,0.44433 14.46193,-4.54149 15.06804,-4.59738z" fill="#949494" stroke="#000000" stroke-width="1.5" stroke-linecap="butt"/><g stroke-linecap="butt"><path d="M243.52861,95.50466l7.28907,-17.38103l2.71079,1.13682l-7.28908,17.38103z" fill="url(#color-55)" stroke="none" stroke-width="0"/><path d="M235.1184,97.68258l-10.34468,-15.75493l2.45718,-1.61339l10.34468,15.75494z" data-paper-data="{&quot;index&quot;:null}" fill="url(#color-56)" stroke="none" stroke-width="0"/><path d="M229.84706,66.69161l-0.30327,-3.2887l15.57806,-1.43652l0.30327,3.2887z" fill="url(#color-57)" stroke="none" stroke-width="NaN"/><path d="M241.0757,78.41723l2.93304,-14.83551l3.7515,0.74169l-2.93304,14.83552z" fill="url(#color-58)" stroke="none" stroke-width="0"/><path d="M233.32371,80.21971l-5.59661,-14.04897l3.55261,-1.41524l5.59661,14.04896z" data-paper-data="{&quot;index&quot;:null}" fill="url(#color-59)" stroke="none" stroke-width="0"/><path d="M230.25614,84.8519l-0.2873,-3.1156l4.15414,-0.38307l0.2873,3.1156z" fill="url(#color-60)" stroke="none" stroke-width="0"/><path d="M235.0161,84.41296l-0.2873,-3.1156l4.15414,-0.38307l0.2873,3.1156z" fill="url(#color-61)" stroke="none" stroke-width="0"/><path d="M239.68951,83.982l-0.2873,-3.1156l4.15414,-0.38307l0.2873,3.1156z" fill="url(#color-62)" stroke="none" stroke-width="0"/><path d="M244.44947,83.54307l-0.2873,-3.1156l4.15414,-0.38307l0.2873,3.1156z" fill="url(#color-63)" stroke="none" stroke-width="0"/><path d="M252.67297,81.11394l-1.68734,-18.29804l2.4727,-0.22802l1.68734,18.29804z" fill="url(#color-64)" stroke="none" stroke-width="0"/><path d="M223.34861,83.5687l-1.68734,-18.29804l2.4727,-0.22802l1.68734,18.29804z" fill="url(#color-65)" stroke="none" stroke-width="0"/><path d="M230.03605,81.99193c-0.64909,0.05986 -0.70894,-0.58923 -0.70894,-0.58923l0.07934,0.11086c-0.88217,-1.44232 -1.69444,-2.02437 -2.32439,-3.77456c-1.48918,-0.70866 -3.71113,-1.1364 -3.19145,-3.12607c0.07197,-0.27554 1.88718,-2.81697 1.85377,-2.83483c-0.74052,-0.39594 -3.92162,-0.93676 -4.34148,-1.68849c-0.81364,-1.45677 1.32014,-3.29728 2.34052,-3.94435c0,0 0.5538,-0.34382 0.89761,0.20997c0.34381,0.55379 -0.20997,0.8976 -0.20997,0.8976c-0.36711,0.22162 -0.70226,0.50857 -0.97434,0.84004c-0.33341,0.4062 -1.47423,0.93562 -1.02087,1.2014c0.75836,0.44456 3.70739,0.77595 4.34988,1.69951c0.7941,1.1415 -0.70999,2.78513 -1.28219,3.66841c-0.16619,0.25655 -0.82107,0.5592 -0.56337,0.72359c0.75718,0.48303 2.21911,0.98329 3.10261,1.47198c0.83311,1.87824 1.39686,2.26942 2.47125,3.96817l0.11126,0.45705c0,0 0.05987,0.64909 -0.58923,0.70894z" fill="#000000" stroke="none" stroke-width="0.5"/><path d="M232.55689,66.26307l-0.02579,0.4697c-0.74562,1.86657 -1.22833,2.35425 -1.70391,4.35317c-0.77923,0.64203 -2.12502,1.40119 -2.78109,2.01454c-0.22328,0.20876 0.47587,0.38653 0.68618,0.60836c0.72408,0.76376 2.50338,2.1046 1.93142,3.37208c-0.46276,1.0255 -3.30149,1.89058 -3.96573,2.46633c-0.3971,0.3442 0.8213,0.65606 1.22337,0.99445c0.32809,0.27612 0.71007,0.49695 1.11153,0.64768c0,0 0.60733,0.23675 0.37058,0.84408c-0.23674,0.60732 -0.84407,0.37058 -0.84407,0.37058c-1.12152,-0.44957 -3.5559,-1.86882 -3.02239,-3.44981c0.27531,-0.81584 3.30387,-1.92927 3.95949,-2.45396c0.02959,-0.02368 -2.21978,-2.1903 -2.34093,-2.44804c-0.87477,-1.8611 1.23149,-2.68794 2.56596,-3.65698c0.29927,-1.83588 0.9914,-2.55665 1.59492,-4.13598l-0.05772,0.1235c0,0 -0.05986,-0.64909 0.58923,-0.70894c0.64909,-0.05986 0.70894,0.58923 0.70894,0.58923z" data-paper-data="{&quot;index&quot;:null}" fill="#000000" stroke="none" stroke-width="0.5"/><path d="M247.16574,80.10684l0.0258,-0.46969c0.74562,-1.86657 1.22832,-2.35425 1.7039,-4.35318c0.77924,-0.64204 2.12502,-1.40118 2.78109,-2.01454c0.22329,-0.20876 -0.47588,-0.38655 -0.68618,-0.60837c-0.72408,-0.76376 -2.50339,-2.10459 -1.93143,-3.37207c0.46276,-1.0255 3.30148,-1.89058 3.96572,-2.46634c0.39711,-0.3442 -0.82128,-0.65606 -1.22336,-0.99444c-0.32809,-0.27612 -0.71007,-0.49696 -1.11153,-0.64769c0,0 -0.60731,-0.23674 -0.37057,-0.84407c0.23674,-0.60732 0.84408,-0.37059 0.84408,-0.37059c1.12151,0.44957 3.5559,1.86882 3.02238,3.44983c-0.27531,0.81584 -3.30387,1.92927 -3.95949,2.45396c-0.02958,0.02368 2.21978,2.19029 2.34092,2.44802c0.87477,1.8611 -1.23148,2.68794 -2.56595,3.65699c-0.29927,1.83588 -0.99139,2.55666 -1.59493,4.13598l0.05772,-0.1235c0,0 0.05986,0.64909 -0.58923,0.70894c-0.64909,0.05986 -0.70894,-0.58923 -0.70894,-0.58923z" data-paper-data="{&quot;index&quot;:null}" fill="#000000" stroke="none" stroke-width="0.5"/><path d="M243.10919,64.98452c0.64909,-0.05986 0.70894,0.58923 0.70894,0.58923l-0.07934,-0.11086c0.88217,1.44232 1.69445,2.02436 2.3244,3.77455c1.48918,0.70866 3.71114,1.13639 3.19146,3.12606c-0.07196,0.27554 -1.88718,2.81697 -1.85376,2.83484c0.74052,0.39594 3.92162,0.93676 4.34148,1.6885c0.81365,1.45677 -1.32015,3.29727 -2.34052,3.94436c0,0 -0.55379,0.34381 -0.8976,-0.20998c-0.34381,-0.55379 0.20997,-0.8976 0.20997,-0.8976c0.36711,-0.22162 0.70226,-0.50857 0.97434,-0.84004c0.33341,-0.4062 1.47424,-0.93561 1.02088,-1.20139c-0.75835,-0.44456 -3.7074,-0.77596 -4.34989,-1.69953c-0.7941,-1.1415 0.71,-2.78512 1.2822,-3.66842c0.16619,-0.25655 0.82105,-0.55921 0.56336,-0.7236c-0.75718,-0.48303 -2.2191,-0.98328 -3.1026,-1.47198c-0.83311,-1.87824 -1.39685,-2.26942 -2.47125,-3.96816l-0.11126,-0.45705c0,0 -0.05986,-0.64909 0.58923,-0.70894z" data-paper-data="{&quot;index&quot;:null}" fill="#000000" stroke="none" stroke-width="0.5"/><g data-paper-data="{&quot;index&quot;:null}" stroke="#000000" stroke-width="0"><path d="M245.26808,56.45053c3.88115,-0.3579 7.31457,2.46532 7.66872,6.30584c0.35415,3.84052 -2.50506,7.24401 -6.38623,7.60191c-3.88116,0.3579 -7.31455,-2.46533 -7.6687,-6.30584c-0.35415,-3.84052 2.50504,-7.24401 6.38621,-7.60191z" fill="#ffffff"/><path d="M244.57979,59.11724c2.33629,-0.21544 4.40305,1.48402 4.61624,3.79585c0.21318,2.31183 -1.50794,4.36061 -3.84423,4.57605c-2.33629,0.21544 -4.40306,-1.48403 -4.61625,-3.79586c-0.21318,-2.31183 1.50795,-4.36059 3.84424,-4.57603z" fill="#000000"/></g><g stroke="#000000" stroke-width="0"><path d="M236.16008,64.25335c0.35415,3.84052 -2.50505,7.24401 -6.38622,7.60191c-3.88116,0.3579 -7.31456,-2.46533 -7.66871,-6.30584c-0.35415,-3.84052 2.50505,-7.24401 6.38622,-7.60191c3.88116,-0.3579 7.31456,2.46533 7.66871,6.30584z" fill="#ffffff"/><path d="M234.27198,64.23923c0.21318,2.31183 -1.50794,4.36061 -3.84424,4.57605c-2.33629,0.21544 -4.40307,-1.48403 -4.61626,-3.79586c-0.21318,-2.31183 1.50796,-4.3606 3.84425,-4.57604c2.33629,-0.21544 4.40306,1.48403 4.61625,3.79587z" fill="#000000"/></g><path d="M225.63548,83.48874l-0.30327,-3.28871l27.17504,-2.50593l0.30327,3.28871z" fill="url(#color-66)" stroke="none" stroke-width="NaN"/><path d="M235.05264,97.5869l-0.31923,-3.46179l11.06535,-1.02039l0.31923,3.46179z" fill="url(#color-67)" stroke="none" stroke-width="0"/></g><g stroke="#000000" stroke-width="1.5" stroke-linecap="butt"><path d="M239.00166,78.02245c14.54234,-1.34101 27.04229,5.2827 27.91942,14.7945c0.87713,9.51179 -16.79183,18.78769 -24.74307,19.65075c-8.57808,0.93109 -27.04229,-5.28271 -27.91942,-14.79451c-0.87713,-9.51179 10.20073,-18.30973 24.74307,-19.65074z" fill="#ff8f2e"/><path d="M238.87129,78.59475c11.333,-1.04507 21.09364,4.32617 21.80099,11.99696c0.70736,7.67079 -11.04183,14.97755 -19.23942,15.78147c-9.1334,0.8957 -21.09363,-4.32616 -21.80098,-11.99695c-0.70736,-7.6708 7.90641,-14.73641 19.23942,-15.78148z" fill="#ff2e2e"/><path d="M239.1437,78.56964c6.06768,-0.55953 11.38501,3.30868 11.87662,8.63989c0.49161,5.3312 -4.02867,10.10659 -10.09633,10.66612c-6.06767,0.55953 -11.38501,-3.30868 -11.87662,-8.63988c-0.49161,-5.3312 4.02867,-10.10658 10.09633,-10.66611z" fill="#f8abff"/></g><g stroke-linecap="butt"><g fill="#ff8f2e" stroke="#000000" stroke-width="1.5"><path d="M211.93835,74.16244c-19.08906,5.32582 -25.08601,-6.97571 -25.08601,-6.97571c0,0 3.29101,5.48922 22.38006,0.1634c5.35184,-1.49316 8.44079,-1.93641 11.06127,-1.81141c0.62995,1.31058 -0.12835,3.03953 1.08391,3.79647c-1.54711,1.65347 -2.83643,2.98509 -9.43923,4.82726z" data-paper-data="{&quot;index&quot;:null}"/><path d="M210.62941,81.22475c-18.64017,6.73057 -25.53528,-5.09096 -25.53528,-5.09096c0,0 3.69008,5.2293 22.33026,-1.50127c18.64017,-6.73057 21.453,0.0033 3.20503,6.59224z" data-paper-data="{&quot;index&quot;:null}"/><path d="M210.40007,88.1743c-17.37106,9.69242 -26.02143,-1.19791 -26.02143,-1.19791c0,0 4.45887,4.71834 21.82994,-4.97409c17.37106,-9.69242 21.19706,-3.31649 4.1915,6.17199z" data-paper-data="{&quot;index&quot;:null}"/><path d="M214.56659,93.97791c-15.5336,12.30705 -25.82905,3.29068 -25.82905,3.29068c0,0 5.16104,3.78496 20.69464,-8.52209c15.5336,-12.30705 20.34119,-6.8167 5.1344,5.2314z" data-paper-data="{&quot;index&quot;:null}"/></g><path d="M264.42672,62.68912c19.7411,1.74512 21.97278,-4.25337 21.97278,-4.25337c0,0 -3.6462,13.19078 -23.38729,11.44566c-3.27883,-0.28985 -5.9726,-0.7386 -8.08906,-1.27548c1.00968,-1.42768 1.53468,-3.20883 1.36153,-5.08657c-0.03216,-0.34873 -0.08738,-0.68976 -0.16401,-1.02175c2.24245,-0.14096 5.01359,-0.09952 8.30606,0.19153z" fill="#ff8f2e" stroke="#000000" stroke-width="1.5"/><path d="M265.59059,76.58526c-19.14518,-3.14075 -17.61122,-10.27545 1.94545,-7.06719c19.55668,3.20826 22.22822,-2.60767 22.22822,-2.60767c0,0 -4.617,12.88311 -24.17366,9.67485z" fill="#ff8f2e" stroke="#000000" stroke-width="1.5"/><path d="M270.07906,76.54125c18.85061,6.35226 22.37144,0.89808 22.37144,0.89808c0,0 -6.51294,12.2886 -25.36355,5.93635c-18.45399,-6.21859 -15.8585,-13.18668 2.99211,-6.83442z" fill="#ff8f2e" stroke="#000000" stroke-width="1.5"/><path d="M264.05202,89.84335c-17.15362,-9.064 -13.43116,-15.34095 4.09114,-6.08213c17.52229,9.25881 21.90412,4.59386 21.90412,4.59386c0,0 -8.47298,10.74709 -25.99526,1.48827z" fill="#ff8f2e" stroke="#000000" stroke-width="1.5"/><path d="M236.70849,59.46087c0.8647,-0.07974 1.72437,-0.13016 2.57771,-0.15246c-0.90677,1.38674 -1.36882,3.07818 -1.20486,4.85623c0.38567,4.18227 4.0887,7.26002 8.27097,6.87435c4.18227,-0.38567 7.26002,-4.0887 6.87435,-8.27097c-0.04223,-0.45801 -0.12425,-0.90277 -0.24233,-1.33119c10.83843,3.79962 18.18143,12.26494 19.58505,21.46774c0.52016,3.41048 -4.06228,5.70601 -11.59468,7.36469c-5.47777,1.20623 -12.8033,-1.04368 -20.57335,-0.32717c-7.39383,0.68182 -14.09297,3.98923 -19.84906,3.69178c-8.61076,-0.44495 -14.46742,-1.97638 -14.81274,-4.56662c-1.25356,-9.40298 5.60719,-19.3386 15.9009,-25.00899c-0.03817,0.44433 -0.03761,0.89823 0.00478,1.35792c0.38567,4.18227 4.0887,7.26002 8.27097,6.87435c4.18227,-0.38567 7.26002,-4.0887 6.87435,-8.27097c-0.15483,-1.67902 -0.84432,-3.18002 -1.88483,-4.35036c0.5956,-0.08282 1.19665,-0.15242 1.80276,-0.20831z" fill="#ff8f2e" stroke="#000000" stroke-width="1.5"/><g fill="#feff00" stroke="#000000" stroke-width="1"><path d="M261.25124,74.25577c-0.52336,1.55143 -2.57341,2.26067 -4.57892,1.58412c-2.0055,-0.67654 -4.20088,0.46345 -2.68366,-4.03411c1.56345,-4.63459 2.57343,-2.26066 4.57892,-1.58411c2.00551,0.67654 3.207,2.48268 2.68366,4.0341z"/><path d="M266.26353,72.97047c2.00551,0.67654 4.24709,-0.6005 2.68366,4.03411c-1.51723,4.49757 -2.57342,2.26067 -4.57892,1.58412c-2.0055,-0.67654 -3.20702,-2.48267 -2.68366,-4.03411c0.52336,-1.55143 2.57343,-2.26066 4.57892,-1.58412z" data-paper-data="{&quot;index&quot;:null}"/><path d="M264.19739,75.24964c-0.53613,1.58926 -2.22844,2.45335 -3.77986,1.92999c-1.55143,-0.52336 -2.37448,-2.236 -1.83835,-3.82525c0.53613,-1.58926 2.22844,-2.45334 3.77985,-1.92999c1.55143,0.52336 2.37448,2.236 1.83836,3.82525z"/></g><g data-paper-data="{&quot;index&quot;:null}" fill="#7d00ff" stroke="#000000" stroke-width="1"><path d="M217.00606,73.85295c1.84796,-1.03189 2.40676,-3.55049 4.7914,0.72004c2.31413,4.14426 -0.05271,3.42495 -1.90067,4.45685c-1.29838,0.72501 -2.74348,0.78148 -3.76505,0.25512c-0.43241,-0.22279 -0.78895,-0.55002 -1.02635,-0.97518c-0.79825,-1.42956 0.05271,-3.42495 1.90067,-4.45685z"/><path d="M214.73398,78.68284c0.79825,1.42956 -0.05271,3.42495 -1.90067,4.45685c-1.84795,1.03189 -2.47727,3.42422 -4.7914,-0.72004c-2.38463,-4.27052 0.05271,-3.42495 1.90067,-4.45685c1.84795,-1.03189 3.99314,-0.70952 4.7914,0.72004z" data-paper-data="{&quot;index&quot;:null}"/><path d="M213.49851,75.72873c1.42954,-0.79825 3.25134,-0.25821 4.06906,1.20621c0.81771,1.46442 0.32174,3.29868 -1.10782,4.09693c-1.42954,0.79825 -3.25134,0.25821 -4.06906,-1.20621c-0.81771,-1.46441 -0.32174,-3.29869 1.10782,-4.09694z"/></g><g data-paper-data="{&quot;index&quot;:null}" stroke="none"><path d="M245.94536,52.99171c5.56497,-0.51317 10.47707,3.41707 10.97146,8.77845c0.4944,5.36138 -3.61611,10.12365 -9.18109,10.63682c-5.56497,0.51317 -10.47707,-3.41707 -10.97146,-8.77846c-0.4944,-5.36138 3.61612,-10.12364 9.18109,-10.63681zM252.66459,63.02978c-0.36141,-3.91923 -3.83156,-6.80342 -7.7508,-6.44201c-3.91923,0.36141 -6.80342,3.83156 -6.44201,7.75079c0.36141,3.91923 3.83156,6.80342 7.75079,6.44201c3.91923,-0.36141 6.80343,-3.83156 6.44202,-7.75079z" fill="#2ec5ff" stroke-width="NaN"/><path d="M245.25895,54.66607c5.03665,-0.46445 9.48242,3.09267 9.92988,7.94506c0.44746,4.85239 -3.27282,9.16255 -8.30948,9.627c-5.03666,0.46445 -9.48241,-3.09268 -9.92987,-7.94507c-0.44746,-4.85238 3.27282,-9.16254 8.30947,-9.62699zM252.66459,63.02978c-0.36141,-3.91923 -3.83156,-6.80342 -7.7508,-6.44201c-3.91923,0.36141 -6.80342,3.83156 -6.44201,7.75079c0.36141,3.91923 3.83156,6.80342 7.75079,6.44201c3.91923,-0.36141 6.80343,-3.83156 6.44202,-7.75079z" fill="#b76721" stroke-width="NaN"/></g><g stroke="none"><path d="M238.00448,63.01542c0.4944,5.36138 -3.61612,10.12364 -9.18109,10.63681c-5.56497,0.51317 -10.47708,-3.41707 -10.97147,-8.77845c-0.4944,-5.36138 3.61613,-10.12364 9.1811,-10.63681c5.56497,-0.51317 10.47707,3.41707 10.97146,8.77845zM229.84051,71.79249c3.91923,-0.36141 6.80342,-3.83156 6.44201,-7.75079c-0.36141,-3.91923 -3.83156,-6.80343 -7.75079,-6.44202c-3.91923,0.36141 -6.80342,3.83156 -6.44201,7.7508c0.36141,3.91923 3.83156,6.80342 7.75079,6.44201z" fill="#2ec5ff" stroke-width="NaN"/><path d="M237.77083,63.71856c0.44746,4.85238 -3.27282,9.16254 -8.30947,9.62699c-5.03666,0.46445 -9.48242,-3.09267 -9.92988,-7.94506c-0.44746,-4.85238 3.27283,-9.16254 8.30948,-9.62699c5.03666,-0.46445 9.48241,3.09268 9.92987,7.94506zM229.84051,71.79249c3.91923,-0.36141 6.80342,-3.83156 6.44201,-7.75079c-0.36141,-3.91923 -3.83156,-6.80343 -7.75079,-6.44202c-3.91923,0.36141 -6.80342,3.83156 -6.44201,7.7508c0.36141,3.91923 3.83156,6.80342 7.75079,6.44201z" fill="#b76721" stroke-width="NaN"/></g><path d="M237.32085,67.14009c4.21865,-0.38902 7.8638,1.7384 8.14167,4.75173c0.27787,3.01333 -2.91676,5.77146 -7.13541,6.16049c-4.21865,0.38902 -7.8638,-1.73839 -8.14167,-4.75172c-0.27787,-3.01333 2.91676,-5.77147 7.13541,-6.1605z" fill="#f8abff" stroke="#000000" stroke-width="1.5"/></g><g data-paper-data="{&quot;index&quot;:null}" stroke="#000000" stroke-linecap="butt"><path d="M213.83582,232.88247c9.59821,0 17.3791,4.42142 17.3791,9.87549c0,5.45409 -7.78088,6.30898 -17.3791,6.30898c-9.59821,0 -17.37911,-0.85491 -17.37911,-6.30898c0,-5.45408 7.78089,-9.87549 17.37911,-9.87549z" fill="#949494" stroke-width="1.5"/><path d="M213.38962,234.64078c8.34258,0 15.10557,3.84301 15.10557,8.58359c0,4.74058 -6.76299,5.48364 -15.10557,5.48364c-8.34258,0 -15.10558,-0.74306 -15.10558,-5.48364c0,-4.74058 6.763,-8.58359 15.10558,-8.58359z" fill="url(#color-68)" stroke-width="0"/><g stroke-width="1.5"><path d="M213.67917,232.94338c9.59821,0 17.37911,4.42142 17.37911,9.87549c0,5.45408 -7.78089,6.30898 -17.37911,6.30898c-9.59821,0 -17.37911,-0.8549 -17.37911,-6.30898c0,-5.45408 7.78089,-9.87549 17.37911,-9.87549z" fill="#ff66ba"/><path d="M214.15579,239.99955c-1.74032,-5.62383 -11.7266,-6.04859 -3.63761,-6.89322c1.02502,-0.10703 2.08152,-0.16296 3.16099,-0.16296c6.9056,0 12.87048,2.28867 15.67372,5.60397c1.09304,1.2927 -13.58472,6.66252 -15.19709,1.45221z" fill="#f79cff"/><path d="M202.92854,235.50584c3.01297,-1.42612 9.07319,3.23381 9.38645,6.33845c0.54754,5.42653 -15.64944,3.4179 -15.64944,1.25303c0,-3.05164 2.43586,-5.77999 6.26299,-7.59149z" fill="#f79cff"/></g></g><g data-paper-data="{&quot;index&quot;:null}" stroke-linecap="butt"><path d="M272.49728,140.57558c0,0 -7.16633,-5.53668 -10.05268,-8.95484c-2.87221,-3.40142 -7.22322,-11.50417 -7.22322,-11.50417l11.24568,-9.49603c0,0 7.8097,5.70859 10.66801,9.09355c2.89974,3.43402 6.6079,11.36548 6.6079,11.36548z" fill="#949494" stroke="#000000" stroke-width="1.5"/><path d="M277.25079,136.82385l-17.54162,-20.7737l1.66858,-1.40897l17.54162,20.77369z" fill="url(#color-69)" stroke="none" stroke-width="0"/><path d="M271.06681,137.3095l-12.32846,-14.59998l1.66858,-1.40897l12.32845,14.59999z" fill="url(#color-70)" stroke="none" stroke-width="0"/><path d="M278.90059,130.53169l-12.32845,-14.59999l1.66858,-1.40897l12.32845,14.59999z" fill="url(#color-71)" stroke="none" stroke-width="0"/><path d="M276.28197,132.14317c0,0 0.58359,-0.06637 0.64996,0.51722c0.06637,0.58359 -0.51723,0.64997 -0.51723,0.64997l-0.31931,0.03175c-1.59004,0.31715 -2.55557,-0.62416 -1.95365,-2.28569c0.11653,-0.32168 0.73629,-0.51988 0.59919,-0.83333c-0.14986,-0.34267 -0.51798,-0.54038 -0.79408,-0.79267c-1.51836,-1.38731 -4.39987,1.31824 -5.26247,-1.58045c-0.35253,-1.18462 0.70198,-2.44432 1.05699,-3.4946c1.10722,-3.24167 -2.66906,-2.02032 -4.6033,-2.36859c-2.40465,-0.43297 -0.34038,-4.53815 0.6071,-5.37104c0,0 0.44876,-0.37895 0.82771,0.06982c0.37895,0.44877 -0.06982,0.82771 -0.06982,0.82771c-0.69906,0.55503 -1.43544,2.3198 -1.35316,3.26592c0.03362,0.38658 0.74646,-0.26777 1.13444,-0.26119c0.31045,0.00526 0.5832,0.21407 0.86883,0.33584c0.85582,0.36482 1.86346,-0.19588 2.76979,0.23364c1.68249,0.79734 1.41403,2.23074 0.9301,3.64759c-0.27977,0.81181 -1.55115,2.42156 -0.77517,3.2134c0.64613,0.65933 1.82968,-0.14671 2.56026,-0.14548c0.95827,0.00162 1.39678,0.16492 2.09245,0.75237c0.23965,0.20237 1.1598,1.44401 1.17846,1.54333c0.09671,0.51483 -1.74074,2.63164 -0.09016,2.1017l0.46306,-0.05723z" fill="#000000" stroke="none" stroke-width="0.5"/><path d="M272.19704,135.08919c0,0 0.51852,0.27592 0.24258,0.79444c-0.27594,0.51851 -0.79446,0.24258 -0.79446,0.24258l-0.61217,-0.33778c-1.44925,-1.6747 -3.08083,-3.42488 -4.17264,-5.31959c-0.10319,-0.58836 0.03124,-2.35964 -0.49478,-2.7461c-1.02086,-0.75 -2.69277,-0.3359 -3.56002,-1.4959c-1.13496,-1.51805 0.12104,-4.69342 -2.79786,-3.71249c0,0 -0.55741,0.18518 -0.74259,-0.37224c-0.18518,-0.55741 0.37223,-0.74258 0.37223,-0.74258c0.47271,-0.15549 0.83387,-0.30985 1.34919,-0.31687c2.8818,-0.03922 1.7787,2.96929 2.78283,4.4726c0.57551,0.86161 2.5587,0.58249 3.3366,1.25547c0.8819,0.76295 0.71188,2.22623 0.85849,3.257c1.07064,1.72806 2.49669,3.2035 3.80654,4.80675l0.42602,0.21471z" fill="#000000" stroke="none" stroke-width="0.5"/><path d="M267.46628,115.50241c0,0 -0.37896,-0.44876 0.06981,-0.82771c0.44877,-0.37895 0.82772,0.06981 0.82772,0.06981l0.35224,0.41715c1.38364,1.63857 2.43796,2.74084 4.32143,3.78009c0.75059,0.86737 1.85735,1.92986 2.21766,3.04091c0.27648,0.85254 -0.31124,2.43746 0.13176,3.12635c0.80585,1.25314 2.29293,1.19905 3.37465,1.97338c0.59694,0.4273 1.14175,1.3831 1.53415,1.96729c0,0 0.32708,0.48787 -0.1608,0.81494c-0.48787,0.32708 -0.81494,-0.1608 -0.81494,-0.1608c-1.29534,-1.9361 -3.88162,-2.03439 -4.95772,-4.02032c-0.5514,-1.01759 0.07876,-2.34809 -0.24635,-3.41434c-0.25701,-0.84292 -1.25969,-1.73201 -1.81643,-2.41345c-1.95841,-0.98701 -3.08541,-2.2835 -4.48094,-3.93615z" fill="#000000" stroke="none" stroke-width="0.5"/><path d="M263.85432,132.12944l-1.62031,-1.91885l13.1817,-11.13083l1.62031,1.91885z" fill="url(#color-72)" stroke="none" stroke-width="0"/><path d="M259.03124,124.74888l-1.62031,-1.91885l11.34628,-9.58098l1.62031,1.91885z" fill="url(#color-73)" stroke="none" stroke-width="0"/><path d="M270.73016,138.28843l-1.62031,-1.91885l11.26284,-9.51052l1.62031,1.91885z" fill="url(#color-74)" stroke="none" stroke-width="0"/><path d="M280.79157,135.49404c0.9172,1.08619 0.8061,2.68838 -0.24815,3.57861c-1.05425,0.89022 -2.65242,0.73135 -3.56961,-0.35484c-0.9172,-1.08619 -0.8061,-2.68838 0.24815,-3.57861c1.05425,-0.89022 2.65242,-0.73135 3.56961,0.35484z" fill="url(#color-75)" stroke="none" stroke-width="0"/><path d="M272.52131,140.65592c0,0 -7.16633,-5.53669 -10.05268,-8.95485c-2.87222,-3.40143 -7.22322,-11.50416 -7.22322,-11.50416l11.24569,-9.49603c0,0 7.8097,5.70859 10.66801,9.09355c2.89973,3.43402 6.60789,11.36547 6.60789,11.36547z" fill="#f79cff" stroke="#000000" stroke-width="1.5"/></g><g data-paper-data="{&quot;index&quot;:null}" stroke-linecap="butt"><path d="M292.24076,162.6083c0,0 -6.84262,-5.82213 -9.71531,-9.25176c-2.85862,-3.41283 -7.47879,-11.27591 -7.47879,-11.27591l8.95146,-7.46406c0,0 7.42499,6.04798 10.26976,9.4443c2.88599,3.44552 6.92434,11.08337 6.92434,11.08337z" fill="#949494" stroke="#000000" stroke-width="1.5"/><path d="M296.05025,159.69264l-17.45856,-20.84341l1.32817,-1.10748l17.45856,20.84341z" fill="url(#color-76)" stroke="none" stroke-width="0"/><path d="M290.6626,159.47348l-12.27006,-14.64898l1.32817,-1.10748l12.27006,14.64898z" fill="url(#color-77)" stroke="none" stroke-width="0"/><path d="M296.88224,154.12531l-12.27006,-14.64898l1.32816,-1.10748l12.27006,14.64898z" fill="url(#color-78)" stroke="none" stroke-width="0"/><path d="M294.73889,155.31587c0,0 0.50642,0.00194 0.62209,0.54181c0.11567,0.53986 -0.39077,0.53794 -0.39077,0.53794l-0.27752,-0.00523c-1.3664,0.11919 -2.3075,-0.84358 -1.94166,-2.29588c0.07083,-0.28117 0.59609,-0.3957 0.4448,-0.69655c-0.16538,-0.32886 -0.50835,-0.5488 -0.77582,-0.80869c-1.47082,-1.42912 -3.73772,0.73204 -4.78062,-2.00656c-0.42621,-1.11919 0.3769,-2.15618 0.58576,-3.07696c0.65474,-2.84069 -2.54439,-2.1303 -4.27868,-2.65544c-2.15607,-0.65287 -0.74495,-4.17931 0.00602,-4.83814c0,0 0.35721,-0.29785 0.73436,0.15242c0.37715,0.45028 0.01994,0.74812 0.01994,0.74812c-0.55992,0.4318 -1.03381,1.96393 -0.86856,2.83646c0.06753,0.35651 0.62978,-0.16447 0.97144,-0.11691c0.27338,0.03806 0.53362,0.25792 0.79663,0.39967c0.78806,0.42472 1.6186,0.02082 2.45741,0.51003c1.55714,0.90814 1.46197,2.18791 1.1758,3.4295c-0.16615,0.71112 -1.12549,2.04442 -0.36568,2.85043c0.63267,0.67113 1.59375,0.0621 2.23602,0.14149c0.84242,0.10414 1.24389,0.3002 1.91304,0.91101c0.23052,0.21041 1.16125,1.44248 1.1874,1.53514c0.13557,0.48035 -1.27149,2.21591 0.12721,1.90896l0.40138,-0.00263z" fill="#000000" stroke="none" stroke-width="0.5"/><path d="M291.43787,157.56764c0,0 0.48284,0.30746 0.29125,0.75123c-0.19159,0.44378 -0.67444,0.13633 -0.67444,0.13633l-0.57124,-0.37395c-1.43829,-1.68409 -3.04427,-3.4566 -4.19003,-5.30324c-0.14848,-0.54817 -0.20433,-2.15073 -0.70463,-2.55988c-0.97093,-0.79404 -2.39976,-0.59512 -3.27597,-1.74698c-1.14666,-1.50741 -0.35465,-4.27163 -2.82381,-3.68885c0,0 -0.47175,0.10933 -0.68926,-0.41936c-0.21752,-0.52869 0.25422,-0.63801 0.25422,-0.63801c0.40021,-0.09131 0.70248,-0.19352 1.15472,-0.14471c2.52907,0.27293 1.85505,2.90121 2.88527,4.38114c0.59046,0.84821 2.30615,0.80587 3.05599,1.50356c0.85008,0.79096 0.84437,2.10856 1.0745,3.06525c1.11077,1.69223 2.50909,3.19193 3.81787,4.79585l0.39553,0.24165z" fill="#000000" stroke="none" stroke-width="0.5"/><path d="M285.33596,138.43209c0.35721,-0.29785 0.73436,0.15242 0.73436,0.15242l0.35058,0.41853c1.37709,1.64407 2.41203,2.76327 4.16957,3.91378c0.74492,0.87222 1.82206,1.96074 2.24788,3.01361c0.32674,0.8079 -0.03414,2.19182 0.4229,2.86814c0.83137,1.23031 2.13311,1.34024 3.15994,2.16301c0.56664,0.45404 1.13939,1.38493 1.54168,1.96028c0,0 0.3354,0.48041 -0.06127,0.72672c-0.39668,0.24631 -0.73208,-0.2341 -0.73208,-0.2341c-1.32869,-1.90622 -3.61154,-2.27303 -4.75243,-4.20125c-0.5846,-0.98803 -0.16143,-2.13512 -0.5519,-3.14333c-0.30869,-0.79703 -1.27732,-1.7161 -1.83359,-2.39781c-1.81827,-1.11084 -2.9362,-2.41514 -4.32511,-4.07333l-0.35057,-0.41854c0,0 -0.37714,-0.45028 -0.01993,-0.74813z" fill="#000000" stroke="none" stroke-width="0.5"/><path d="M283.81444,153.97195l-1.61263,-1.92529l10.49251,-8.74906l1.61264,1.92529z" fill="url(#color-79)" stroke="none" stroke-width="0"/><path d="M278.85028,146.71758l-1.61263,-1.92529l9.03154,-7.53084l1.61263,1.92529z" fill="url(#color-80)" stroke="none" stroke-width="0"/><path d="M290.46284,160.33107l-1.61264,-1.92529l8.96514,-7.47546l1.61263,1.92529z" fill="url(#color-81)" stroke="none" stroke-width="0"/><path d="M296.38846,158.55028c0.83917,-0.69973 1.73042,-0.78213 2.64327,0.30772c0.91286,1.08984 0.58725,2.14851 -0.25192,2.84823c-0.83917,0.69973 -1.87415,0.77555 -2.787,-0.31429c-0.91286,-1.08984 -0.44354,-2.14193 0.39562,-2.84166z" fill="url(#color-82)" stroke="none" stroke-width="0"/><path d="M292.26976,162.68422c0,0 -6.84262,-5.82214 -9.71531,-9.25177c-2.85862,-3.41283 -7.47879,-11.27591 -7.47879,-11.27591l8.95147,-7.46407c0,0 7.42499,6.048 10.26977,9.44431c2.88599,3.44552 6.92433,11.08336 6.92433,11.08336z" fill="#ff8f2e" stroke="#000000" stroke-width="1.5"/></g><path d="M311.45903,164.95249c2.06881,3.18376 9.76241,15.70162 5.93096,17.82038c-4.1635,3.08792 -6.91771,-11.24233 -8.44948,-10.08111c-0.43045,0.32631 6.4753,11.44992 3.74025,13.52532c-2.73505,2.0754 -7.99793,-10.75206 -8.58792,-10.37773c-0.88675,0.5626 6.35693,10.95493 3.54794,13.1949c-3.20472,2.55551 -8.00084,-9.59219 -11.16594,-14.03017c-1.07947,-1.51356 2.74246,7.732 -0.91709,8.36744c-7.14144,1.24 -4.50341,-13.51419 -4.19073,-14.47908c0.77454,-2.38995 3.72371,-6.21366 5.99833,-7.81605c3.82193,-2.69242 9.49584,-3.19971 14.0937,3.87612z" data-paper-data="{&quot;index&quot;:null}" fill="#ff8f2e" stroke="#000000" stroke-width="1.5" stroke-linecap="butt"/></g></g></g></svg>