<svg version="1.1" xmlns="http://www.w3.org/2000/svg" xmlns:xlink="http://www.w3.org/1999/xlink" width="93.38197" height="92.88395" viewBox="0,0,93.38197,92.88395"><defs><linearGradient x1="203.65969" y1="193.02805" x2="203.65969" y2="201.8739" gradientUnits="userSpaceOnUse" id="color-1"><stop offset="0" stop-color="#464646"/><stop offset="1" stop-color="#0f0f0f"/></linearGradient><linearGradient x1="218.24757" y1="192.87285" x2="218.24757" y2="201.71869" gradientUnits="userSpaceOnUse" id="color-2"><stop offset="0" stop-color="#464646"/><stop offset="1" stop-color="#0f0f0f"/></linearGradient><linearGradient x1="232.21468" y1="192.87285" x2="232.21468" y2="201.71869" gradientUnits="userSpaceOnUse" id="color-3"><stop offset="0" stop-color="#464646"/><stop offset="1" stop-color="#0f0f0f"/></linearGradient><linearGradient x1="246.80257" y1="192.71767" x2="246.80257" y2="201.56351" gradientUnits="userSpaceOnUse" id="color-4"><stop offset="0" stop-color="#464646"/><stop offset="1" stop-color="#0f0f0f"/></linearGradient><linearGradient x1="261.23521" y1="192.87285" x2="261.23521" y2="201.71869" gradientUnits="userSpaceOnUse" id="color-5"><stop offset="0" stop-color="#464646"/><stop offset="1" stop-color="#0f0f0f"/></linearGradient><linearGradient x1="275.82309" y1="192.71767" x2="275.82309" y2="201.56351" gradientUnits="userSpaceOnUse" id="color-6"><stop offset="0" stop-color="#464646"/><stop offset="1" stop-color="#0f0f0f"/></linearGradient><linearGradient x1="240.00001" y1="108.98994" x2="240.00001" y2="196.91267" gradientUnits="userSpaceOnUse" id="color-7"><stop offset="0" stop-color="#686868"/><stop offset="1" stop-color="#494949"/></linearGradient><linearGradient x1="239.99998" y1="137.17034" x2="239.99998" y2="168.52158" gradientUnits="userSpaceOnUse" id="color-8"><stop offset="0" stop-color="#ffffff"/><stop offset="1" stop-color="#d1d1d1"/></linearGradient><linearGradient x1="239.99998" y1="137.17034" x2="239.99998" y2="168.52158" gradientUnits="userSpaceOnUse" id="color-9"><stop offset="0" stop-color="#ff7b00"/><stop offset="1" stop-color="#632d00"/></linearGradient><linearGradient x1="241.32758" y1="148.12028" x2="241.32758" y2="165.13894" gradientUnits="userSpaceOnUse" id="color-10"><stop offset="0" stop-color="#ff0000"/><stop offset="1" stop-color="#9c0000"/></linearGradient><linearGradient x1="238.97109" y1="146.51163" x2="238.97109" y2="165.21858" gradientUnits="userSpaceOnUse" id="color-11"><stop offset="0" stop-color="#ff0000"/><stop offset="1" stop-color="#9c0000"/></linearGradient><linearGradient x1="240.75837" y1="153.76811" x2="240.75837" y2="162.60613" gradientUnits="userSpaceOnUse" id="color-12"><stop offset="0" stop-color="#ffac00"/><stop offset="1" stop-color="#b97200"/></linearGradient><linearGradient x1="239.5346" y1="152.93272" x2="239.5346" y2="162.64751" gradientUnits="userSpaceOnUse" id="color-13"><stop offset="0" stop-color="#ffac00"/><stop offset="1" stop-color="#b97200"/></linearGradient></defs><g transform="translate(-193.30903,-108.98995)"><g data-paper-data="{&quot;isPaintingLayer&quot;:true}" fill-rule="nonzero" stroke-linejoin="miter" stroke-miterlimit="10" stroke-dasharray="" stroke-dashoffset="0" style="mix-blend-mode: normal"><path d="M198.53842,201.8739v-8.84584h10.24256v8.84584z" fill="url(#color-1)" stroke="none" stroke-width="0" stroke-linecap="butt"/><path d="M213.12629,201.71869v-8.84585h10.24256v8.84585z" fill="url(#color-2)" stroke="none" stroke-width="0" stroke-linecap="butt"/><path d="M227.09341,201.71869v-8.84585h10.24256v8.84585z" fill="url(#color-3)" stroke="none" stroke-width="0" stroke-linecap="butt"/><path d="M241.68129,201.56351v-8.84585h10.24256v8.84585z" fill="url(#color-4)" stroke="none" stroke-width="0" stroke-linecap="butt"/><path d="M256.11395,201.71869v-8.84585h10.24255v8.84585z" fill="url(#color-5)" stroke="none" stroke-width="0" stroke-linecap="butt"/><path d="M270.70184,201.56351v-8.84585h10.24255v8.84585z" fill="url(#color-6)" stroke="none" stroke-width="0" stroke-linecap="butt"/><path d="M193.30903,196.91267v-87.92273h93.38197v87.92273z" fill="url(#color-7)" stroke="#000000" stroke-width="0" stroke-linecap="butt"/><text transform="translate(200.73051,121.00031) scale(0.16204,0.16204)" font-size="40" xml:space="preserve" fill="#690000" fill-rule="nonzero" stroke="none" stroke-width="1" stroke-linecap="butt" stroke-linejoin="miter" stroke-miterlimit="10" stroke-dasharray="" stroke-dashoffset="0" font-family="Serif" font-weight="normal" text-anchor="start" style="mix-blend-mode: normal"><tspan x="0" dy="0">KEEP THIS DOOR CLOSED</tspan></text><text transform="translate(199.41223,189.28827) scale(0.10489,0.10489)" font-size="40" xml:space="preserve" fill="#690000" fill-rule="nonzero" stroke="none" stroke-width="1" stroke-linecap="butt" stroke-linejoin="miter" stroke-miterlimit="10" stroke-dasharray="" stroke-dashoffset="0" font-family="Serif" font-weight="normal" text-anchor="start" style="mix-blend-mode: normal"><tspan x="0" dy="0">WHEN CONVEYOR IS NOT IN OPERATION</tspan></text><path d="M216.24104,138.33572l-3.16062,16.09044" fill="none" stroke="#353535" stroke-width="0.5" stroke-linecap="round"/><path d="M220.55098,138.91036l-3.44794,16.37776" fill="none" stroke="#353535" stroke-width="0.5" stroke-linecap="round"/><path d="M209.34514,141.78365h13.50447" fill="none" stroke="#353535" stroke-width="0.5" stroke-linecap="round"/><path d="M221.41297,150.40354l-10.91851,-0.57465" fill="none" stroke="#353535" stroke-width="0.5" stroke-linecap="round"/><path d="M263.65033,177.6998l8.04521,-9.19453" fill="none" stroke="#353535" stroke-width="0.5" stroke-linecap="round"/><path d="M264.79966,179.71111l8.61988,-7.75788" fill="none" stroke="#353535" stroke-width="0.5" stroke-linecap="round"/><path d="M264.51231,171.37856l4.59727,6.8959" fill="none" stroke="#353535" stroke-width="0.5" stroke-linecap="round"/><path d="M271.4082,175.97583l-2.58596,-7.18323" fill="none" stroke="#353535" stroke-width="0.5" stroke-linecap="round"/><path d="M267.67292,127.4172l2.29863,6.32124" fill="none" stroke="#353535" stroke-width="0.5" stroke-linecap="round"/><path d="M269.97157,126.55521l2.29863,5.74658" fill="none" stroke="#353535" stroke-width="0.5" stroke-linecap="round"/><path d="M271.98286,127.4172l-5.74658,2.29863" fill="none" stroke="#353535" stroke-width="0.5" stroke-linecap="round"/><path d="M266.81092,131.72713l7.75788,-2.0113" fill="none" stroke="#353535" stroke-width="0.5" stroke-linecap="round"/><g stroke-linecap="butt"><path d="M222.44134,167.69034c-0.63011,-1.12671 0.11995,-2.03589 0.11995,-2.03589l15.90379,-27.41496c0,0 0.4569,-1.0602 1.46186,-1.06909c1.00496,-0.0089 1.44801,1.0456 1.44801,1.0456l15.96509,27.16763c0,0 0.87444,0.96442 0.23934,2.1519c-0.6351,1.1875 -1.82272,0.80865 -1.82272,0.80865l-31.61983,0.12748c0,0 -1.06537,0.34537 -1.69548,-0.78133z" fill="url(#color-8)" stroke="url(#color-9)" stroke-width="2"/><g stroke="none" stroke-width="0"><g><path d="M238.67583,151.10396l3.08458,3.57705l1.5569,-6.56073c0,0 3.97948,7.62128 3.97948,10.96477c0,3.34348 -2.67251,6.0539 -5.96923,6.0539c-3.29671,0 -5.96923,-2.71042 -5.96923,-6.0539c0,-0.98639 3.3175,-7.98108 3.3175,-7.98108z" fill="url(#color-10)"/><path d="M245.50455,158.51281c0,2.3263 -1.29355,6.05242 -3.43488,6.61694c-0.08227,0.02169 -0.66244,0.09135 -1.30616,0.08875c-0.72142,-0.0029 -1.52268,-0.07956 -1.79242,-0.07956c-3.60833,0 -6.53345,-2.96663 -6.53345,-6.62613c0,-3.65952 4.35564,-12.00118 4.35564,-12.00118l1.70405,7.18087l3.37615,-3.91517c0,0 3.63107,7.65585 3.63107,8.73547z" data-paper-data="{&quot;index&quot;:null}" fill="url(#color-11)"/></g><g><path d="M239.38127,155.31758l1.60187,1.85762l0.80852,-3.40709c0,0 2.06661,3.95784 2.06661,5.69414c0,1.73631 -1.38787,3.14387 -3.09991,3.14387c-1.71204,0 -3.09991,-1.40757 -3.09991,-3.14387c0,-0.51225 1.72282,-4.14468 1.72282,-4.14468z" fill="url(#color-12)"/><path d="M242.92751,159.1651c0,1.20809 -0.67175,3.14311 -1.78378,3.43626c-0.04272,0.01126 -0.34401,0.04743 -0.67831,0.04609c-0.37464,-0.0015 -0.79075,-0.04132 -0.93082,-0.04132c-1.87386,0 -3.39292,-1.5406 -3.39292,-3.44105c0,-1.90044 2.26194,-6.23239 2.26194,-6.23239l0.88494,3.72913l1.75328,-2.03319c0,0 1.88566,3.97579 1.88566,4.53645z" data-paper-data="{&quot;index&quot;:null}" fill="url(#color-13)"/></g></g></g></g></g></svg>