<svg version="1.1" xmlns="http://www.w3.org/2000/svg" xmlns:xlink="http://www.w3.org/1999/xlink" width="432.82456" height="407.32981" viewBox="0,0,432.82456,407.32981"><defs><linearGradient x1="300.22506" y1="443.04049" x2="287.45061" y2="453.28697" gradientUnits="userSpaceOnUse" id="color-1"><stop offset="0" stop-color="#0f0f0f"/><stop offset="1" stop-color="#737373"/></linearGradient><linearGradient x1="285.78925" y1="454.90037" x2="273.09266" y2="465.0844" gradientUnits="userSpaceOnUse" id="color-2"><stop offset="0" stop-color="#0f0f0f"/><stop offset="1" stop-color="#737373"/></linearGradient><linearGradient x1="333.10515" y1="483.22633" x2="320.40858" y2="493.41035" gradientUnits="userSpaceOnUse" id="color-3"><stop offset="0" stop-color="#0f0f0f"/><stop offset="1" stop-color="#737373"/></linearGradient><linearGradient x1="318.66329" y1="494.92084" x2="305.88879" y2="505.16736" gradientUnits="userSpaceOnUse" id="color-4"><stop offset="0" stop-color="#0f0f0f"/><stop offset="1" stop-color="#737373"/></linearGradient><linearGradient x1="292.13017" y1="482.4285" x2="286.46" y2="486.97658" gradientUnits="userSpaceOnUse" id="color-5"><stop offset="0" stop-color="#595959"/><stop offset="1" stop-color="#afafaf"/></linearGradient><linearGradient x1="318.93328" y1="461.12066" x2="313.26312" y2="465.66874" gradientUnits="userSpaceOnUse" id="color-6"><stop offset="0" stop-color="#afafaf"/><stop offset="1" stop-color="#595959"/></linearGradient><linearGradient x1="306.924" y1="470.73597" x2="298.95286" y2="477.12968" gradientUnits="userSpaceOnUse" id="color-7"><stop offset="0" stop-color="#afafaf"/><stop offset="1" stop-color="#595959"/></linearGradient><radialGradient cx="331.93816" cy="506.70163" r="10.52378" gradientUnits="userSpaceOnUse" id="color-8"><stop offset="0" stop-color="#656565"/><stop offset="1" stop-color="#404040"/></radialGradient><linearGradient x1="327.52096" y1="459.86461" x2="284.04573" y2="494.73642" gradientUnits="userSpaceOnUse" id="color-9"><stop offset="0" stop-color="#cb80ce"/><stop offset="1" stop-color="#a946ad"/></linearGradient><linearGradient x1="111.54209" y1="326.80056" x2="117.25977" y2="342.14607" gradientUnits="userSpaceOnUse" id="color-10"><stop offset="0" stop-color="#0f0f0f"/><stop offset="1" stop-color="#737373"/></linearGradient><linearGradient x1="117.85945" y1="344.38294" x2="123.54228" y2="359.63493" gradientUnits="userSpaceOnUse" id="color-11"><stop offset="0" stop-color="#0f0f0f"/><stop offset="1" stop-color="#737373"/></linearGradient><linearGradient x1="62.71281" y1="344.45577" x2="68.39564" y2="359.70774" gradientUnits="userSpaceOnUse" id="color-12"><stop offset="0" stop-color="#0f0f0f"/><stop offset="1" stop-color="#737373"/></linearGradient><linearGradient x1="69.12015" y1="361.89924" x2="74.83785" y2="377.24483" gradientUnits="userSpaceOnUse" id="color-13"><stop offset="0" stop-color="#0f0f0f"/><stop offset="1" stop-color="#737373"/></linearGradient><linearGradient x1="98.30608" y1="364.77095" x2="100.84397" y2="371.58233" gradientUnits="userSpaceOnUse" id="color-14"><stop offset="0" stop-color="#595959"/><stop offset="1" stop-color="#afafaf"/></linearGradient><linearGradient x1="86.21139" y1="332.73738" x2="88.74928" y2="339.54876" gradientUnits="userSpaceOnUse" id="color-15"><stop offset="0" stop-color="#afafaf"/><stop offset="1" stop-color="#595959"/></linearGradient><linearGradient x1="91.59552" y1="347.14878" x2="95.1633" y2="356.72424" gradientUnits="userSpaceOnUse" id="color-16"><stop offset="0" stop-color="#afafaf"/><stop offset="1" stop-color="#595959"/></linearGradient><radialGradient cx="51.68346" cy="365.21161" r="10.52378" gradientUnits="userSpaceOnUse" id="color-17"><stop offset="0" stop-color="#656565"/><stop offset="1" stop-color="#404040"/></radialGradient><linearGradient x1="79.481" y1="327.25756" x2="98.93996" y2="379.48291" gradientUnits="userSpaceOnUse" id="color-18"><stop offset="0" stop-color="#cb80ce"/><stop offset="1" stop-color="#a946ad"/></linearGradient><linearGradient x1="236.23742" y1="335.88157" x2="245.26854" y2="342.27098" gradientUnits="userSpaceOnUse" id="color-19"><stop offset="0" stop-color="#afafaf"/><stop offset="1" stop-color="#595959"/></linearGradient><linearGradient x1="199.52752" y1="402.20639" x2="192.09433" y2="412.71284" gradientUnits="userSpaceOnUse" id="color-20"><stop offset="0" stop-color="#afafaf"/><stop offset="1" stop-color="#595959"/></linearGradient><linearGradient x1="155.47415" y1="365.49138" x2="142.77577" y2="383.43992" gradientUnits="userSpaceOnUse" id="color-21"><stop offset="0" stop-color="#7c7c7c"/><stop offset="1" stop-color="#111111"/></linearGradient><linearGradient x1="171.88367" y1="378.1284" x2="159.18529" y2="396.07694" gradientUnits="userSpaceOnUse" id="color-22"><stop offset="0" stop-color="#7c7c7c"/><stop offset="1" stop-color="#111111"/></linearGradient><linearGradient x1="231.21863" y1="419.36768" x2="218.52024" y2="437.31622" gradientUnits="userSpaceOnUse" id="color-23"><stop offset="0" stop-color="#7c7c7c"/><stop offset="1" stop-color="#111111"/></linearGradient><linearGradient x1="247.62815" y1="432.0047" x2="234.92977" y2="449.95324" gradientUnits="userSpaceOnUse" id="color-24"><stop offset="0" stop-color="#7c7c7c"/><stop offset="1" stop-color="#111111"/></linearGradient><linearGradient x1="179.99082" y1="429.82055" x2="172.5576" y2="440.32705" gradientUnits="userSpaceOnUse" id="color-25"><stop offset="0" stop-color="#afafaf"/><stop offset="1" stop-color="#595959"/></linearGradient><linearGradient x1="140.11025" y1="396.05778" x2="127.41187" y2="414.00632" gradientUnits="userSpaceOnUse" id="color-26"><stop offset="0" stop-color="#7c7c7c"/><stop offset="1" stop-color="#111111"/></linearGradient><linearGradient x1="155.00921" y1="407.62613" x2="142.31083" y2="425.57467" gradientUnits="userSpaceOnUse" id="color-27"><stop offset="0" stop-color="#7c7c7c"/><stop offset="1" stop-color="#111111"/></linearGradient><linearGradient x1="209.07006" y1="445.13401" x2="196.37168" y2="463.08255" gradientUnits="userSpaceOnUse" id="color-28"><stop offset="0" stop-color="#7c7c7c"/><stop offset="1" stop-color="#111111"/></linearGradient><linearGradient x1="223.96906" y1="456.70238" x2="211.27068" y2="474.65093" gradientUnits="userSpaceOnUse" id="color-29"><stop offset="0" stop-color="#7c7c7c"/><stop offset="1" stop-color="#111111"/></linearGradient><linearGradient x1="160.45409" y1="457.43476" x2="153.02087" y2="467.94125" gradientUnits="userSpaceOnUse" id="color-30"><stop offset="0" stop-color="#afafaf"/><stop offset="1" stop-color="#595959"/></linearGradient><linearGradient x1="125.78953" y1="427.36226" x2="113.09115" y2="445.3108" gradientUnits="userSpaceOnUse" id="color-31"><stop offset="0" stop-color="#7c7c7c"/><stop offset="1" stop-color="#111111"/></linearGradient><linearGradient x1="138.80035" y1="437.59473" x2="126.10196" y2="455.5433" gradientUnits="userSpaceOnUse" id="color-32"><stop offset="0" stop-color="#7c7c7c"/><stop offset="1" stop-color="#111111"/></linearGradient><linearGradient x1="186.26854" y1="470.43841" x2="173.57016" y2="488.38695" gradientUnits="userSpaceOnUse" id="color-33"><stop offset="0" stop-color="#7c7c7c"/><stop offset="1" stop-color="#111111"/></linearGradient><linearGradient x1="199.27934" y1="480.67087" x2="186.58094" y2="498.61943" gradientUnits="userSpaceOnUse" id="color-34"><stop offset="0" stop-color="#7c7c7c"/><stop offset="1" stop-color="#111111"/></linearGradient><linearGradient x1="155.39546" y1="436.30307" x2="179.36768" y2="453.26313" gradientUnits="userSpaceOnUse" id="color-35"><stop offset="0" stop-color="#afafaf"/><stop offset="1" stop-color="#595959"/></linearGradient><linearGradient x1="209.11539" y1="386.92009" x2="205.20802" y2="392.44297" gradientUnits="userSpaceOnUse" id="color-36"><stop offset="0" stop-color="#afafaf"/><stop offset="1" stop-color="#595959"/></linearGradient><radialGradient cx="284.15999" cy="440.9341" r="10.52378" gradientUnits="userSpaceOnUse" id="color-37"><stop offset="0" stop-color="#656565"/><stop offset="1" stop-color="#404040"/></radialGradient><linearGradient x1="210.97647" y1="382.8164" x2="201.42515" y2="396.31674" gradientUnits="userSpaceOnUse" id="color-38"><stop offset="0" stop-color="#595959"/><stop offset="1" stop-color="#393939"/></linearGradient><radialGradient cx="136.88432" cy="336.73829" r="10.52378" gradientUnits="userSpaceOnUse" id="color-39"><stop offset="0" stop-color="#656565"/><stop offset="1" stop-color="#404040"/></radialGradient><linearGradient x1="104.27991" y1="507.62633" x2="129.16747" y2="525.23398" gradientUnits="userSpaceOnUse" id="color-40"><stop offset="0" stop-color="#595959"/><stop offset="1" stop-color="#393939"/></linearGradient><linearGradient x1="108.39829" y1="497.80514" x2="137.05779" y2="518.0814" gradientUnits="userSpaceOnUse" id="color-41"><stop offset="0" stop-color="#393939"/><stop offset="1" stop-color="#151515"/></linearGradient><linearGradient x1="101.3932" y1="507.7065" x2="130.0527" y2="527.98276" gradientUnits="userSpaceOnUse" id="color-42"><stop offset="0" stop-color="#393939"/><stop offset="1" stop-color="#151515"/></linearGradient><radialGradient cx="150.98166" cy="329.2044" r="25.49689" gradientUnits="userSpaceOnUse" id="color-43"><stop offset="0" stop-color="#cb80ce"/><stop offset="1" stop-color="#a946ad"/></radialGradient><radialGradient cx="281.24148" cy="421.36169" r="25.49689" gradientUnits="userSpaceOnUse" id="color-44"><stop offset="0" stop-color="#cb80ce"/><stop offset="1" stop-color="#a946ad"/></radialGradient><linearGradient x1="230.93101" y1="356.71383" x2="107.67037" y2="530.9367" gradientUnits="userSpaceOnUse" id="color-45"><stop offset="0" stop-color="#cb80ce"/><stop offset="1" stop-color="#a946ad"/></linearGradient><radialGradient cx="201.7261" cy="419.97331" r="90.17984" gradientUnits="userSpaceOnUse" id="color-46"><stop offset="0" stop-color="#d3afd3"/><stop offset="1" stop-color="#c0a0c1"/></radialGradient><linearGradient x1="285.44645" y1="324.83343" x2="210.61653" y2="368.79575" gradientUnits="userSpaceOnUse" id="color-47"><stop offset="0" stop-color="#cb80ce"/><stop offset="1" stop-color="#a946ad"/></linearGradient><linearGradient x1="242.88329" y1="349.83911" x2="198.57846" y2="375.86805" gradientUnits="userSpaceOnUse" id="color-48"><stop offset="0" stop-color="#cb80ce"/><stop offset="1" stop-color="#a946ad"/></linearGradient><linearGradient x1="285.08189" y1="324.65946" x2="215.51914" y2="365.52734" gradientUnits="userSpaceOnUse" id="color-49"><stop offset="0" stop-color="#330000"/><stop offset="1" stop-color="#9c0000"/></linearGradient><linearGradient x1="269.99657" y1="333.19947" x2="268.07442" y2="334.32873" gradientUnits="userSpaceOnUse" id="color-50"><stop offset="0" stop-color="#898989"/><stop offset="1" stop-color="#2e2e2e"/></linearGradient><linearGradient x1="263.54622" y1="336.93647" x2="250.24003" y2="344.75381" gradientUnits="userSpaceOnUse" id="color-51"><stop offset="0" stop-color="#8a8a8a"/><stop offset="1" stop-color="#0f0f0f"/></linearGradient><linearGradient x1="264.76453" y1="336.22071" x2="251.45835" y2="344.03805" gradientUnits="userSpaceOnUse" id="color-52"><stop offset="0" stop-color="#898989"/><stop offset="1" stop-color="#2e2e2e"/></linearGradient><linearGradient x1="341.88796" y1="290.96338" x2="337.02119" y2="293.8226" gradientUnits="userSpaceOnUse" id="color-53"><stop offset="0" stop-color="#afafaf"/><stop offset="1" stop-color="#7a7a7a"/></linearGradient><linearGradient x1="320.49022" y1="245.14825" x2="266.7665" y2="276.71075" gradientUnits="userSpaceOnUse" id="color-54"><stop offset="0" stop-color="#afafaf"/><stop offset="1" stop-color="#7a7a7a"/></linearGradient><linearGradient x1="371.40722" y1="331.81598" x2="317.68351" y2="363.37849" gradientUnits="userSpaceOnUse" id="color-55"><stop offset="0" stop-color="#afafaf"/><stop offset="1" stop-color="#7a7a7a"/></linearGradient><linearGradient x1="312.00708" y1="308.76168" x2="270.15771" y2="333.34805" gradientUnits="userSpaceOnUse" id="color-56"><stop offset="0" stop-color="#424242"/><stop offset="1" stop-color="#000000"/></linearGradient><linearGradient x1="323.76907" y1="301.1724" x2="317.44097" y2="304.89014" gradientUnits="userSpaceOnUse" id="color-57"><stop offset="0" stop-color="#b8b8b8"/><stop offset="1" stop-color="#313131"/></linearGradient><radialGradient cx="305.46614" cy="277.47899" r="24.46047" gradientUnits="userSpaceOnUse" id="color-58"><stop offset="0" stop-color="#ffffff"/><stop offset="1" stop-color="#cccccc"/></radialGradient><radialGradient cx="335.56559" cy="328.71239" r="24.46047" gradientUnits="userSpaceOnUse" id="color-59"><stop offset="0" stop-color="#ffffff"/><stop offset="1" stop-color="#cccccc"/></radialGradient><linearGradient x1="344.24483" y1="289.2767" x2="289.27427" y2="321.18997" gradientUnits="userSpaceOnUse" id="color-60"><stop offset="0" stop-color="#9d9d9d"/><stop offset="1" stop-color="#6e6e6e"/></linearGradient><linearGradient x1="297.97219" y1="331.68391" x2="264.12271" y2="351.57037" gradientUnits="userSpaceOnUse" id="color-61"><stop offset="0" stop-color="#afafaf"/><stop offset="1" stop-color="#595959"/></linearGradient><linearGradient x1="285.00276" y1="309.60815" x2="251.15328" y2="329.49461" gradientUnits="userSpaceOnUse" id="color-62"><stop offset="0" stop-color="#afafaf"/><stop offset="1" stop-color="#595959"/></linearGradient><linearGradient x1="354.65799" y1="353.86486" x2="318.21238" y2="374.76356" gradientUnits="userSpaceOnUse" id="color-63"><stop offset="0" stop-color="#afafaf"/><stop offset="1" stop-color="#595959"/></linearGradient><linearGradient x1="325.45814" y1="219.67252" x2="329.452" y2="220.7294" gradientUnits="userSpaceOnUse" id="color-64"><stop offset="0" stop-color="#d3d3d3"/><stop offset="1" stop-color="#868686"/></linearGradient><linearGradient x1="362.89405" y1="169.42058" x2="311.26787" y2="199.75079" gradientUnits="userSpaceOnUse" id="color-65"><stop offset="0" stop-color="#cb80ce"/><stop offset="1" stop-color="#a946ad"/></linearGradient><radialGradient cx="336.22697" cy="186.2177" r="23.50748" gradientUnits="userSpaceOnUse" id="color-66"><stop offset="0" stop-color="#d3afd3"/><stop offset="1" stop-color="#947b95"/></radialGradient><radialGradient cx="320.94704" cy="244.87987" r="3.92081" gradientUnits="userSpaceOnUse" id="color-67"><stop offset="0" stop-color="#a9a9a9"/><stop offset="1" stop-color="#5d5d5d"/></radialGradient><linearGradient x1="396.07883" y1="339.87864" x2="397.09994" y2="335.87549" gradientUnits="userSpaceOnUse" id="color-68"><stop offset="0" stop-color="#d3d3d3"/><stop offset="1" stop-color="#868686"/></linearGradient><linearGradient x1="458.19857" y1="331.64195" x2="406.57238" y2="361.97216" gradientUnits="userSpaceOnUse" id="color-69"><stop offset="0" stop-color="#cb80ce"/><stop offset="1" stop-color="#a946ad"/></linearGradient><radialGradient cx="433.0952" cy="346.17881" r="23.50748" gradientUnits="userSpaceOnUse" id="color-70"><stop offset="0" stop-color="#d3afd3"/><stop offset="1" stop-color="#947b95"/></radialGradient><radialGradient cx="371.86404" cy="331.5476" r="3.92081" gradientUnits="userSpaceOnUse" id="color-71"><stop offset="0" stop-color="#a9a9a9"/><stop offset="1" stop-color="#5d5d5d"/></radialGradient><linearGradient x1="376.1979" y1="270.31654" x2="265.8221" y2="335.16195" gradientUnits="userSpaceOnUse" id="color-72"><stop offset="0" stop-color="#cb80ce"/><stop offset="1" stop-color="#a946ad"/></linearGradient><linearGradient x1="261.44258" y1="228.20326" x2="224.70653" y2="249.78557" gradientUnits="userSpaceOnUse" id="color-73"><stop offset="0" stop-color="#d3afd3"/><stop offset="1" stop-color="#c0a0c1"/></linearGradient><linearGradient x1="246.33512" y1="236.68313" x2="218.99327" y2="252.74637" gradientUnits="userSpaceOnUse" id="color-74"><stop offset="0" stop-color="#d3afd3"/><stop offset="1" stop-color="#c0a0c1"/></linearGradient><linearGradient x1="229.18708" y1="243.62893" x2="210.78676" y2="254.43906" gradientUnits="userSpaceOnUse" id="color-75"><stop offset="0" stop-color="#d3afd3"/><stop offset="1" stop-color="#c0a0c1"/></linearGradient><linearGradient x1="224.71321" y1="249.37503" x2="203.50735" y2="261.8334" gradientUnits="userSpaceOnUse" id="color-76"><stop offset="0" stop-color="#d3afd3"/><stop offset="1" stop-color="#c0a0c1"/></linearGradient><linearGradient x1="227.91116" y1="249.10704" x2="195.98823" y2="267.86166" gradientUnits="userSpaceOnUse" id="color-77"><stop offset="0" stop-color="#d3afd3"/><stop offset="1" stop-color="#c0a0c1"/></linearGradient><linearGradient x1="355.70491" y1="388.65073" x2="318.96887" y2="410.23303" gradientUnits="userSpaceOnUse" id="color-78"><stop offset="0" stop-color="#d3afd3"/><stop offset="1" stop-color="#c0a0c1"/></linearGradient><linearGradient x1="340.94312" y1="397.71898" x2="313.60126" y2="413.78223" gradientUnits="userSpaceOnUse" id="color-79"><stop offset="0" stop-color="#d3afd3"/><stop offset="1" stop-color="#c0a0c1"/></linearGradient><linearGradient x1="326.52794" y1="409.31645" x2="308.12762" y2="420.12658" gradientUnits="userSpaceOnUse" id="color-80"><stop offset="0" stop-color="#d3afd3"/><stop offset="1" stop-color="#c0a0c1"/></linearGradient><linearGradient x1="319.33072" y1="410.42703" x2="298.12486" y2="422.8854" gradientUnits="userSpaceOnUse" id="color-81"><stop offset="0" stop-color="#d3afd3"/><stop offset="1" stop-color="#c0a0c1"/></linearGradient><linearGradient x1="321.1217" y1="407.76424" x2="289.19879" y2="426.51884" gradientUnits="userSpaceOnUse" id="color-82"><stop offset="0" stop-color="#d3afd3"/><stop offset="1" stop-color="#c0a0c1"/></linearGradient><radialGradient cx="276.00462" cy="308.61542" r="39.4112" gradientUnits="userSpaceOnUse" id="color-83"><stop offset="0" stop-color="#d3afd3"/><stop offset="1" stop-color="#c0a0c1"/></radialGradient><radialGradient cx="310.71685" cy="361.95814" r="39.4112" gradientUnits="userSpaceOnUse" id="color-84"><stop offset="0" stop-color="#d3afd3"/><stop offset="1" stop-color="#c0a0c1"/></radialGradient><radialGradient cx="301.07172" cy="317.22421" r="11.39512" gradientUnits="userSpaceOnUse" id="color-85"><stop offset="0" stop-color="#858585"/><stop offset="1" stop-color="#000000"/></radialGradient><radialGradient cx="315.38695" cy="223.07835" r="25.59881" gradientUnits="userSpaceOnUse" id="color-86"><stop offset="0" stop-color="#2e2540"/><stop offset="1" stop-color="#694da0"/></radialGradient><radialGradient cx="347.15142" cy="239.00445" r="25.59881" gradientUnits="userSpaceOnUse" id="color-87"><stop offset="0" stop-color="#2e2540"/><stop offset="1" stop-color="#694da0"/></radialGradient><radialGradient cx="331.06031" cy="231.43324" r="15.10149" gradientUnits="userSpaceOnUse" id="color-88"><stop offset="0" stop-color="#8461ca"/><stop offset="1" stop-color="#4e3f6d"/></radialGradient></defs><g transform="translate(-40.48832,-143.69395)"><g data-paper-data="{&quot;isPaintingLayer&quot;:true}" fill-rule="nonzero" stroke-linecap="butt" stroke-linejoin="miter" stroke-miterlimit="10" stroke-dasharray="" stroke-dashoffset="0" style="mix-blend-mode: normal"><path d="M181.07497,546.81051c-23.30512,22.20696 -127.50662,-49.00958 -111.523,-82.14457c-1.02544,0.50322 28.53915,-26.22303 46.5893,-54.83483c18.05016,-28.61181 35.21425,-106.62512 110.65122,-55.00036c85.94093,57.11335 12.10052,98.92455 -10.25023,129.22318c-23.22026,31.47736 -34.97399,63.52853 -35.46729,62.75657z" data-paper-data="{&quot;index&quot;:null}" fill="#484848" stroke="#000000" stroke-width="0"/><g data-paper-data="{&quot;index&quot;:null}" stroke="none"><path d="M303.63887,434.67724c10.86197,3.01223 40.06262,49.18611 41.52855,59.3859c0.66915,4.65604 -27.00291,27.61574 -31.59448,26.02515c-9.98633,-3.45947 -49.3724,-44.71973 -49.11699,-54.55012c0.2554,-9.83038 28.32095,-33.87316 39.18292,-30.86093z" fill="#484848" stroke-width="0"/><g><g><path d="M281.04627,441.30214c2.40088,-0.73092 3.13178,1.66997 3.13178,1.66997l0.48867,1.84934c1.63236,2.7601 3.16084,5.47238 4.68734,8.20485c2.9439,0.20925 6.24711,0.12566 9.22425,1.36645c4.07489,1.69833 7.718,8.23015 9.73748,11.85716c0.58417,2.11093 0.87791,3.97983 0.92324,5.80556c6.74383,3.54417 13.2006,7.79532 15.98271,15.30614c1.10249,2.97637 1.09945,5.71983 0.95771,8.52922c2.32184,2.37173 3.69138,5.9635 5.22614,8.70166c0,0 1.2271,2.18922 -0.96214,3.4163c-2.18922,1.2271 -3.4163,-0.96214 -3.4163,-0.96214c-0.59422,-1.06016 -1.23209,-2.61957 -1.98822,-4.12504c-0.36329,0.28034 -0.86663,0.47476 -1.564,0.47567c-2.50969,0.00323 -2.5129,-2.50644 -2.5129,-2.50644c0.00291,-0.84761 0.04991,-1.67552 0.10932,-2.49142c-6.06499,-2.71997 -15.32051,-1.34639 -18.69463,-8.75746c-2.15842,-4.74088 0.28056,-9.71489 1.3009,-14.75534c-1.65996,-0.81501 -3.2869,-1.62113 -4.80545,-2.47469c-4.7413,-2.66508 -7.90398,-8.02849 -11.23872,-12.20708c-0.33131,-0.59072 -0.66007,-1.17824 -0.98729,-1.76338c-0.87615,-0.05152 -1.72528,-0.16933 -2.531,-0.40723c-4.70742,-1.3899 -7.39982,-6.75128 -8.03805,-11.10352l-0.9395,-2.49687c0,0 -0.87065,-2.35381 1.48317,-3.22444c1.71287,-0.63355 2.64032,0.44039 3.01841,1.07223c0.26225,-0.40224 0.69813,-0.7637 1.40707,-0.97953zM320.52706,489.13741c-2.07287,-5.61512 -6.74368,-8.97164 -11.81912,-11.70842c-0.1737,0.84388 -0.38714,1.71644 -0.63679,2.6343c-0.61243,2.25166 -2.28539,5.03001 -1.16217,7.42165c2.14033,4.55739 9.41872,4.59329 14.4062,5.81913c-0.05122,-1.36389 -0.2615,-2.74007 -0.78813,-4.16667zM301.21401,467.97231c0.89062,0.46918 1.80175,0.9323 2.72444,1.39615c-0.06405,-0.4019 -0.15079,-0.80382 -0.26321,-1.20569c-1.30229,-2.30134 -4.50394,-8.30414 -7.14137,-9.18596c-1.2688,-0.42421 -2.61018,-0.56105 -3.97045,-0.58659c2.4838,3.31491 5.12306,7.72381 8.6506,9.58212z" fill="#000000" stroke-width="0.5"/><path d="M285.58573,450.96207l-0.45817,-2.555l16.96232,-3.04167l0.45818,2.55498z" fill="url(#color-1)" stroke-width="0"/><path d="M277.45195,468.47595l-2.41077,-0.9623l6.38878,-16.00483l2.41077,0.9623z" data-paper-data="{&quot;index&quot;:null}" fill="url(#color-2)" stroke-width="0"/><path d="M328.74588,479.83482l2.41077,0.9623l-6.38878,16.00483l-2.41077,-0.9623z" data-paper-data="{&quot;index&quot;:null}" fill="url(#color-3)" stroke-width="0"/><path d="M320.52814,497.24577l0.45815,2.55498l-16.9623,3.04169l-0.45817,-2.555z" data-paper-data="{&quot;index&quot;:null}" fill="url(#color-4)" stroke-width="0"/><path d="M305.01725,509.35189l-36.70853,-45.0048l5.26424,-4.29385l36.70853,45.0048z" fill="url(#color-5)" stroke-width="0"/><path d="M331.82033,488.044l-36.70853,-45.0048l5.26424,-4.29385l36.70853,45.0048z" fill="url(#color-6)" stroke-width="0"/><path d="M325.0407,508.58496l-51.60504,-63.26795l7.4005,-6.03629l51.60504,63.26795z" fill="url(#color-7)" stroke-width="0"/></g><path d="M339.79921,503.28711c3.37687,4.20999 2.43895,10.57091 -2.0949,14.20755c-4.53385,3.63663 -10.94672,3.17184 -14.32359,-1.03816c-3.37687,-4.20999 -2.43897,-10.57093 2.09488,-14.20757c4.53385,-3.63663 10.94674,-3.17182 14.3236,1.03818z" fill="url(#color-8)" stroke-width="0"/></g><path d="M303.63887,434.67724c10.86197,3.01223 40.06262,49.18611 41.52855,59.3859c0.66915,4.65604 -27.00291,27.61574 -31.59448,26.02515c-9.98633,-3.45947 -49.3724,-44.71973 -49.11699,-54.55012c0.2554,-9.83038 28.32095,-33.87316 39.18292,-30.86093z" fill="url(#color-9)" stroke-width="0"/></g><g stroke="none"><path d="M130.72586,364.45102c-4.8189,8.57205 -59.78534,23.81543 -70.13343,21.66787c-4.75789,-0.98744 -16.75212,-34.88477 -13.79125,-38.53986c6.4863,-8.00703 55.22505,-32.68981 66.0958,-29.70943c10.87076,2.98037 22.64778,38.0094 17.82887,46.58143z" fill="#484848" stroke-width="0"/><g><g><path d="M128.90145,335.13725c0.49814,0.54867 0.68717,1.08244 0.7062,1.56224c0.64849,-0.34877 1.99529,-0.79561 3.14138,0.62628c1.57497,1.95396 -0.379,3.52891 -0.379,3.52891l-2.08641,1.6625c-2.77862,3.41007 -7.83832,6.63388 -12.59282,5.41474c-0.81378,-0.20867 -1.60329,-0.5427 -2.38202,-0.9475c-0.58087,0.33475 -1.16429,0.67074 -1.75153,1.00818c-5.00505,1.87896 -10.46961,4.86349 -15.90675,4.72196c-1.7414,-0.04534 -3.55157,-0.18698 -5.39465,-0.33789c-1.70717,4.85107 -2.16211,10.37215 -6.44527,13.33683c-6.69556,4.63444 -13.9391,-1.28861 -20.541,-2.06142c-0.36715,0.73105 -0.7511,1.46604 -1.18302,2.19536c0,0 -1.289,2.15335 -3.44236,0.86433c-0.59835,-0.35819 -0.93092,-0.78311 -1.09919,-1.21002c-1.42084,0.90519 -2.76779,1.91731 -3.82138,2.52309c0,0 -2.17568,1.25096 -3.42662,-0.92473c-1.25096,-2.17568 0.92473,-3.42662 0.92473,-3.42662c2.72121,-1.56461 5.73805,-3.94688 8.9473,-4.79345c1.31815,-2.48501 2.7216,-4.84232 5.19372,-6.83302c6.23835,-5.0235 13.96141,-5.36469 21.56863,-4.95169c0.97464,-1.54449 2.1847,-2.99873 3.7682,-4.51194c3.59297,-2.07942 10.06889,-5.82101 14.43833,-5.19089c3.19233,0.46038 5.98588,2.22511 8.62099,3.55422c2.7112,-1.56397 5.41376,-3.10957 8.23002,-4.643l1.36743,-1.33754c0,0 1.8581,-1.687 3.54508,0.17112zM70.48389,355.97792c-1.18336,0.95508 -2.06923,2.02901 -2.81223,3.1739c4.91089,1.50355 11.17909,5.20301 15.35268,2.38662c2.19023,-1.47798 2.17764,-4.72111 2.80577,-6.96844c0.25605,-0.9161 0.51998,-1.77474 0.80332,-2.58838c-5.76081,-0.25122 -11.49181,0.2371 -16.14956,3.99631zM97.91491,347.70215c3.98144,0.21223 8.50733,-2.22094 12.33906,-3.7944c-1.18113,-0.67522 -2.40307,-1.2452 -3.70998,-1.53122c-2.71664,-0.59451 -8.54235,2.91907 -10.84008,4.22774c-0.3025,0.28746 -0.58296,0.58813 -0.84394,0.9004c1.03002,0.07459 2.04975,0.14389 3.05496,0.19747z" fill="#000000" stroke-width="0.5"/><path d="M107.04633,329.80025l1.7029,-1.95908l13.00628,11.30525l-1.70289,1.95911z" fill="url(#color-10)" stroke-width="0"/><path d="M120.77763,343.29564l2.56327,0.40925l-2.7168,17.01735l-2.56327,-0.40925z" data-paper-data="{&quot;index&quot;:null}" fill="url(#color-11)" stroke-width="0"/><path d="M65.47743,360.79506l-2.56327,-0.40925l2.7168,-17.01735l2.56327,0.40925z" data-paper-data="{&quot;index&quot;:null}" fill="url(#color-12)" stroke-width="0"/><path d="M79.33356,374.24513l-1.70289,1.95911l-13.00626,-11.30525l1.70287,-1.9591z" data-paper-data="{&quot;index&quot;:null}" fill="url(#color-13)" stroke-width="0"/><path d="M71.12197,374.89964l54.58644,-19.83101l2.31963,6.38503l-54.58644,19.83101z" fill="url(#color-14)" stroke-width="0"/><path d="M59.0273,342.86606l54.58644,-19.83101l2.31963,6.38503l-54.58644,19.83101z" fill="url(#color-15)" stroke-width="0"/><path d="M53.37998,361.38773l76.73788,-27.87851l3.26097,8.97609l-76.73788,27.87851z" fill="url(#color-16)" stroke-width="0"/></g><path d="M59.51481,364.70032c2.02929,5.44636 -0.42543,11.38905 -5.48275,13.27339c-5.05733,1.88434 -10.80214,-1.00324 -12.83143,-6.4496c-2.02929,-5.44636 0.4254,-11.38904 5.48273,-13.27338c5.05733,-1.88434 10.80216,1.00323 12.83145,6.44959z" fill="url(#color-17)" stroke-width="0"/></g><path d="M130.72586,364.45102c-4.8189,8.57205 -59.78534,23.81543 -70.13343,21.66787c-4.75789,-0.98744 -16.75212,-34.88477 -13.79125,-38.53986c6.4863,-8.00703 55.22505,-32.68981 66.0958,-29.70943c10.87076,2.98037 22.64778,38.0094 17.82887,46.58143z" fill="url(#color-18)" stroke-width="0"/></g><path d="M305.58062,402.8364l-78.80945,-136.02568c0,0 15.35011,-29.55196 45.62417,-36.66013c35.85127,-8.41766 60.58992,-33.58641 104.27832,40.97618c42.70172,72.96321 8.51058,78.31959 -14.71582,106.88068c-22.86236,28.11346 -56.37721,24.82895 -56.37721,24.82895z" fill="#484848" stroke="none" stroke-width="0"/><g stroke="none"><path d="M134.22737,506.72309c-0.43024,0.53016 -2.43008,2.68907 -5.12658,0.78133c-0.01366,-0.00966 -0.02723,-0.01936 -0.04068,-0.02905c-0.63423,0.93875 -2.02357,2.2955 -4.42019,1.36386c-3.48569,-1.35499 -2.13068,-4.84067 -2.13068,-4.84067l1.56142,-3.70849c2.51408,-3.55353 7.04557,-8.14363 7.06502,-12.84113c0.03016,-7.28539 -4.96877,-17.30001 1.16642,-23.59163c3.47726,-3.56594 7.22777,-4.22668 11.15871,-4.23788c0.58313,-1.83254 1.33984,-3.68021 2.27756,-5.63161c0.37406,-0.53131 5.97308,-8.57039 6.52793,-9.01401c5.151,-4.11836 13.16658,-3.75912 19.2467,-3.72986c3.60183,0.01732 7.2702,0.29798 10.93239,0.44064c-0.62662,-10.47431 -6.9359,-22.49999 -9.16917,-30.69288c-1.68592,-6.18488 1.26507,-11.67589 2.71166,-17.70154c1.09997,-3.46571 2.213,-9.04918 1.82017,-12.6506c-0.46043,-4.22124 -10.72836,-10.82163 -13.28113,-13.90886c-9.19502,-11.12009 -20.12939,-18.55877 -33.33726,-24.43075c0,0 -3.41727,-1.51926 -1.89802,-4.93651c1.51926,-3.41727 4.93653,-1.89804 4.93653,-1.89804c9.60867,4.27182 18.78798,9.27246 26.86585,16.15737c4.71079,4.01508 7.89981,9.05547 12.23239,13.32861c3.57126,3.52228 10.73516,8.95534 11.79494,14.11998c0.8845,4.31053 -0.69698,11.99502 -1.91424,16.17495c-0.82632,3.45399 -2.86976,7.5904 -3.36036,10.91945c-0.62148,4.21724 4.47899,10.74673 5.85155,14.57203c2.24403,6.25414 3.89947,13.73809 3.80078,20.9432c4.97501,-0.27723 9.85008,-1.30198 14.43708,-4.11251c11.95422,-7.32458 2.70452,-20.8607 7.34393,-30.38467c1.94199,-3.98659 6.0456,-5.50326 9.58237,-7.41642c9.64425,-2.986 29.84028,-2.25389 34.3121,8.97657c1.88891,4.74377 -0.00758,10.5033 1.95057,15.04825c3.76255,8.73298 17.83564,13.96776 25.08104,19.05351c0,0 3.05296,2.15994 0.89303,5.2129c-2.15994,3.05296 -5.2129,0.89303 -5.2129,0.89303c-8.50405,-6.07247 -22.8619,-11.51491 -27.45101,-21.81437c-2.20472,-4.94815 -0.76286,-10.58694 -2.22839,-15.6739c-0.85322,-2.96156 -3.4949,-2.9994 -6.31397,-3.91449c-5.49581,-1.784 -12.63725,-2.78039 -18.10758,-0.89675c-7.73686,4.07797 -5.38651,5.22748 -5.11315,13.40582c0.28669,8.57737 -3.01598,18.91159 -10.64656,23.77305c-6.12066,3.89949 -12.6597,5.03737 -19.32452,5.24664c-1.46587,6.81045 -5.08432,12.8177 -12.01334,16.52304c-7.4574,3.98786 -16.44679,0.2407 -24.42725,1.63753c-0.90793,0.02062 -1.83578,-0.03612 -2.77181,-0.11784c-0.11588,1.47449 -0.10507,3.02016 0.01963,4.70606c0.34188,4.62152 2.82033,9.68191 1.65956,14.36477c-1.67197,6.74533 -10.70715,16.97881 -16.9405,20.53186zM137.47644,493.11521c1.81646,-2.555 5.67233,-5.33465 6.3784,-8.49345c0.83367,-3.72952 -1.5476,-8.40646 -1.79774,-12.14471c-0.13202,-1.97312 -0.13711,-3.80082 -0.0099,-5.54726c-1.50563,0.26605 -2.94632,0.85645 -4.26663,2.01966c-3.6298,3.19793 1.01024,14.615 0.83059,18.74465c-0.08649,1.98869 -0.56605,3.86028 -1.29221,5.64413c0.05172,-0.07375 0.1042,-0.1481 0.15749,-0.22303zM171.45197,448.72329c-3.90832,-0.02041 -11.12717,-0.84216 -14.45447,2.04354c-2.14456,1.85996 -3.17228,4.70932 -4.81775,7.02256c-0.33481,0.68567 -0.63696,1.35461 -0.9077,2.0136c0.08371,-0.00229 0.16749,-0.00489 0.2513,-0.00783c6.56286,-1.10158 15.87444,2.30035 21.7608,-0.85467c4.72035,-2.53004 7.29709,-5.96386 8.45138,-9.90361c-3.43453,-0.10957 -6.87542,-0.2958 -10.28355,-0.31357z" fill="#000000" stroke-width="0.5"/><g stroke-width="0"><g><path d="M200.5019,386.39197l71.47106,-101.02084l9.03112,6.38941l-71.47106,101.02084z" fill="url(#color-19)"/><g><path d="M137.18953,373.86834l7.43321,-10.50647l109.80959,77.689l-7.43321,10.50647z" fill="url(#color-20)"/><path d="M139.5314,381.14457l12.69838,-17.94854l6.48873,4.5907l-12.69838,17.94854z" fill="url(#color-21)"/><path d="M155.94092,393.78159l12.69838,-17.94854l6.48873,4.5907l-12.69838,17.94854z" fill="url(#color-22)"/><path d="M215.27588,435.02087l12.69838,-17.94854l6.48873,4.5907l-12.69838,17.94854z" fill="url(#color-23)"/><path d="M231.68538,447.65787l12.69838,-17.94854l6.48873,4.5907l-12.69838,17.94854z" fill="url(#color-24)"/></g><g><path d="M122.56199,404.95574l7.43321,-10.50647l99.99122,70.74261l-7.43321,10.50647z" fill="url(#color-25)"/><path d="M124.4576,411.91621l12.69838,-17.94854l5.90856,4.18024l-12.69838,17.94854z" fill="url(#color-26)"/><path d="M139.35656,423.48456l12.69838,-17.94854l5.90854,4.18023l-12.69838,17.94854z" fill="url(#color-27)"/><path d="M193.41741,460.99244l12.69838,-17.94854l5.90854,4.18023l-12.69838,17.94854z" fill="url(#color-28)"/><path d="M208.31637,472.56078l12.69838,-17.94854l5.90856,4.18024l-12.69838,17.94854z" fill="url(#color-29)"/></g><g><path d="M109.16174,436.91143l7.43321,-10.50647l87.71824,62.05962l-7.43321,10.50647z" fill="url(#color-30)"/><path d="M110.49949,443.47723l12.69838,-17.94854l5.18334,3.66715l-12.69838,17.94854z" fill="url(#color-31)"/><path d="M123.51027,453.70971l12.69838,-17.94854l5.18334,3.66715l-12.69838,17.94854z" fill="url(#color-32)"/><path d="M170.97847,486.55336l12.69838,-17.94854l5.18334,3.66715l-12.69838,17.94854z" fill="url(#color-33)"/><path d="M183.9893,496.78588l12.69838,-17.94854l5.18334,3.66715l-12.69838,17.94854z" fill="url(#color-34)"/></g><path d="M119.59138,493.41796l17.70105,-25.20713l56.97535,-86.85192l23.97222,16.96007l-63.03239,82.66048l-17.78052,25.05705z" fill="url(#color-35)"/><path d="M132.79747,341.21335l3.90735,-5.52285l144.82109,102.45922l-3.90735,5.52285z" fill="url(#color-36)"/><path d="M288.99403,447.11652c-3.35684,4.74473 -9.64971,6.0642 -14.05553,2.94714c-4.40581,-3.11706 -5.25617,-9.49028 -1.89933,-14.23501c3.35684,-4.74473 9.64969,-6.06422 14.05551,-2.94715c4.40581,3.11706 5.25619,9.49029 1.89935,14.23503z" fill="url(#color-37)"/><path d="M180.4222,381.4574l9.5513,-13.50029l42.00592,29.71869l-9.5513,13.50029z" fill="url(#color-38)"/><path d="M141.71838,342.92073c-3.35684,4.74473 -9.64971,6.0642 -14.05553,2.94714c-4.40581,-3.11706 -5.25619,-9.49029 -1.89935,-14.23503c3.35684,-4.74473 9.64971,-6.0642 14.05553,-2.94714c4.40581,3.11706 5.25619,9.49029 1.89935,14.23503z" fill="url(#color-39)"/></g><path d="M90.12728,527.63037l28.30525,-40.00808l24.88756,17.60766l-28.30525,40.00808z" fill="url(#color-40)"/><path d="M105.92081,501.30693l4.95495,-7.00358l28.6595,20.27626l-4.95495,7.00358z" fill="url(#color-41)"/><path d="M98.91572,511.20829l4.95495,-7.00358l28.6595,20.27626l-4.95495,7.00358z" fill="url(#color-42)"/></g></g><g stroke-width="0"><path d="M156.4518,321.15915c8.17407,11.92741 5.2757,28.12398 -6.47368,36.17605c-5.75496,3.94398 -9.24458,-9.3677 -16.60828,-19.86108c-7.67009,-10.93001 -18.98707,-19.22379 -12.99265,-23.33188c11.74938,-8.05207 27.90054,-4.91049 36.07461,7.01691z" fill="url(#color-43)" stroke="none"/><path d="M307.71711,446.683c-1.87858,7.02 -13.46632,-0.89105 -26.32611,-4.48568c-12.34607,-3.45105 -26.06023,-2.31085 -24.2567,-9.05041c3.6821,-13.75957 17.99038,-21.88377 31.95844,-18.14588c13.96806,3.73789 22.30647,17.92241 18.62437,31.68198z" data-paper-data="{&quot;index&quot;:null}" fill="url(#color-44)" stroke="none"/><path d="M181.07497,546.81051c-23.30512,22.20696 -127.50662,-49.00958 -111.523,-82.14457c-1.02544,0.50322 27.09919,-24.18772 45.14934,-52.79952c18.05016,-28.61181 36.65421,-108.66043 112.09117,-57.03567c85.94093,57.11335 10.66056,100.95986 -11.69018,131.25849c-23.22026,31.47736 -33.53403,61.49322 -34.02733,60.72126z" data-paper-data="{&quot;index&quot;:null}" fill="url(#color-45)" stroke="#000000"/><path d="M177.33835,533.56231c-19.69528,18.76723 -107.75643,-41.41823 -94.24859,-69.42076c-0.73832,-1.96525 29.56189,-28.27526 44.81616,-52.45524c15.25429,-24.17996 25.86876,-83.75742 89.6209,-40.12907c60.35083,41.3007 23.14117,68.02119 -4.59001,101.26296c-22.6234,27.11901 -33.01666,58.88185 -35.59847,60.74212z" data-paper-data="{&quot;index&quot;:null}" fill="url(#color-46)" stroke="#000000"/></g><g><path d="M285.40496,324.76281c22.29003,37.9407 26.23286,84.61291 2.94473,90.67889c-42.94492,11.18608 -55.48461,-8.77587 -77.77464,-46.71657c-22.29003,-37.9407 -29.8259,-64.77467 -2.94471,-90.67887c17.30947,-16.68035 55.48461,8.77587 77.77463,46.71654z" fill="url(#color-47)" stroke="#000000" stroke-width="0"/><g><g fill="url(#color-48)" stroke="#000000" stroke-width="0"><path d="M242.85007,349.78255c17.85924,30.39888 24.66857,65.64912 10.1846,68.05652c-26.70941,4.43942 -36.6302,-11.62871 -54.48944,-42.02758c-17.85924,-30.39888 -25.17659,-51.14715 -10.1846,-68.05652c9.65371,-10.88836 36.63019,11.62869 54.48944,42.02758z"/></g><g fill="none" stroke="none" stroke-width="1" font-family="sans-serif" font-weight="normal" font-size="12" text-anchor="start"/></g><path d="M285.04977,324.6048c17.26329,29.3845 19.8828,70.9914 -1.25017,77.50866c-7.58796,2.34008 -16.34349,-0.2289 -21.99039,0.13107c-23.35463,1.48876 -25.102,5.13976 -48.90181,-35.25636c-24.9609,-42.36689 -16.66094,-41.97614 -7.00109,-59.4443c2.8931,-5.23168 4.40851,-15.15849 10.3257,-20.43973c16.53221,-14.75538 51.55444,8.11613 68.81775,37.50064z" fill="url(#color-49)" stroke="#000000" stroke-width="0"/><path d="M262.72646,325.22577l1.92216,-1.12926l10.69594,18.20595l-1.92216,1.12926z" fill="url(#color-50)" stroke="none" stroke-width="0"/><g stroke="none" stroke-width="0"><path d="M252.7875,333.85675c0.20716,-0.12171 12.93156,-7.55769 12.93156,-7.55769l8.17254,13.8968c0,0 -12.63057,7.48357 -12.89283,7.63764c-3.6744,2.1587 -6.32513,-0.49272 -8.59262,-4.35229c-2.26749,-3.85957 -3.29308,-7.46576 0.38133,-9.62445z" fill="url(#color-51)"/><path d="M254.00582,333.14099c0.20716,-0.12171 12.93156,-7.55769 12.93156,-7.55769l8.17254,13.8968c0,0 -12.63057,7.48357 -12.89283,7.63764c-3.6744,2.1587 -6.32513,-0.49272 -8.59262,-4.35229c-2.26749,-3.85957 -3.29308,-7.46576 0.38133,-9.62445z" fill="url(#color-52)"/></g></g><g><path d="M310.26272,248.27601l4.86675,-2.8592l53.51718,91.09359l-4.86675,2.8592z" data-paper-data="{&quot;index&quot;:null}" fill="url(#color-53)" stroke="none" stroke-width="0"/><path d="M265.42456,274.42657l53.72369,-31.56249l2.68388,4.56834l-53.72369,31.56249z" fill="url(#color-54)" stroke="none" stroke-width="0"/><path d="M316.34158,361.09435l53.72369,-31.56249l2.68388,4.56834l-53.72369,31.56249z" data-paper-data="{&quot;index&quot;:null}" fill="url(#color-55)" stroke="none" stroke-width="0"/><path d="M299.26964,317.0675l-0.76247,0.2726c-0.97314,1.30855 -2.12917,2.48268 -3.34201,3.57277c-0.35582,0.32956 -0.65124,0.70149 -0.90265,1.10432c-0.07683,0.16375 -0.16467,0.32073 -0.26686,0.46893c-0.91574,1.76299 -1.17898,3.98379 -1.96351,5.83895c-0.65137,1.54031 -3.57274,3.30885 -4.45983,4.97353c-0.46856,0.87925 0.17228,3.63099 0.09278,4.0043c-1.05014,4.93147 -5.10989,2.34813 -6.70023,5.69718c-1.39757,2.94307 9.80052,7.85304 11.29631,8.49847c8.91683,0.41122 6.78086,-5.75554 13.89901,-9.03878c3.69244,-1.70314 11.0534,0.71651 13.95477,-2.50364c1.33847,-1.48554 2.32591,-4.31946 3.26116,-6.11263c0,0 0.86517,-1.6577 2.52287,-0.79253c1.6577,0.86517 0.79253,2.52287 0.79253,2.52287c-1.03528,1.98241 -2.29779,5.40161 -3.86667,6.95959c-4.21342,4.18414 -10.39372,1.32262 -15.17846,3.35814c-2.98637,1.27045 -3.677,5.02902 -5.88785,7.25662c-3.01967,3.0426 -6.49819,2.24668 -10.33711,1.99466c-4.42906,-1.80464 -12.22666,-4.9235 -13.74787,-10.2232c-1.51033,-5.2619 2.92737,-5.30467 6.0178,-7.30312c0.71875,-0.4648 0.02068,-4.86699 0.4531,-5.8132c0.74306,-1.62595 3.93132,-3.67653 4.47885,-5.01637c0.25056,-0.61313 0.43001,-1.17945 0.57523,-1.71444c-2.6189,-0.06452 -4.98578,-2.13105 -8.3837,-1.42542c-3.80874,0.79095 -5.80064,6.77482 -10.49194,5.3059c-2.26234,-0.70837 -3.05522,-3.09579 -4.4551,-4.63865c-5.30864,-5.85086 -7.21283,-9.08984 -3.65796,-16.85813c0.93928,-0.94708 2.28989,-1.57536 2.89224,-2.76549c1.5005,-2.96474 -1.614,-6.17758 1.06794,-9.15023c2.6876,-2.97896 9.1244,-2.13566 12.62421,-3.33011c2.51716,-0.85909 2.35222,-2.60831 3.88136,-4.27793c2.19848,-2.40044 6.91219,-3.5524 9.91738,-4.3727c0,0 1.80465,-0.48959 2.29424,1.31505c0.48959,1.80465 -1.31505,2.29424 -1.31505,2.29424c-2.04721,0.55168 -6.7029,1.52323 -8.10855,3.25594c-1.73114,2.13392 -2.30176,4.15965 -5.316,5.27166c-2.82949,1.04386 -8.93779,0.35956 -11.25259,2.4051c-0.84929,0.7505 0.30189,4.01802 0.23127,4.86153c-0.29626,3.53908 -1.5038,4.41237 -3.84478,6.62617c-2.68226,6.2783 -0.76152,7.70559 3.34319,12.19804c1.01229,1.10792 1.3591,2.98281 2.73873,3.57346c1.49514,0.64011 6.98958,-5.00868 8.70088,-5.37751c3.03807,-0.65476 6.39515,2.15665 8.95285,1.5649c2.20854,-0.51096 2.23261,-3.11321 3.02711,-4.88693c1.12398,-1.49216 2.64461,-2.6949 4.24387,-3.66043l1.42932,-0.47882c0,0 1.79383,-0.52789 2.32172,1.26595c0.11905,0.40454 0.12001,0.7447 0.05011,1.02892c0.58777,1.42366 -0.81971,2.25055 -0.81971,2.25055z" fill="url(#color-56)" stroke="none" stroke-width="0.5"/><path d="M288.16157,255.05259l6.32813,-3.71775l58.5588,99.67512l-6.32813,3.71775z" fill="url(#color-57)" stroke="none" stroke-width="0"/><g stroke="#000000" stroke-width="0"><path d="M317.54675,298.04184c-11.64775,6.84301 -26.49879,3.18408 -33.17073,-8.17248c-6.67194,-11.35656 -2.63826,-26.11021 9.00951,-32.95323c11.64775,-6.84301 26.49879,-3.18408 33.17073,8.17248c6.67194,11.35656 2.63826,26.11021 -9.00951,32.95323z" fill="url(#color-58)"/><g><path d="M298.87661,281.35031c-2.08462,-3.5483 -0.82432,-8.15799 2.81496,-10.29606c3.63928,-2.13806 8.2794,-0.99483 10.36401,2.55346c2.08462,3.5483 0.82432,8.15799 -2.81496,10.29606c-3.63928,2.13806 -8.2794,0.99483 -10.36401,-2.55346z" fill="#f500ff"/><path d="M299.97823,280.70312c-1.73612,-2.95511 -0.68652,-6.79415 2.34436,-8.57479c3.03086,-1.78062 6.89526,-0.82853 8.63138,2.12657c1.73612,2.95511 0.68652,6.79415 -2.34436,8.57479c-3.03086,1.78062 -6.89526,0.82853 -8.63138,-2.12657z" fill="#000000"/></g></g><g stroke="#000000" stroke-width="0"><path d="M347.6462,349.27525c-11.64775,6.84301 -26.49879,3.18408 -33.17073,-8.17248c-6.67194,-11.35656 -2.63826,-26.11021 9.00951,-32.95323c11.64775,-6.84301 26.49879,-3.18408 33.17073,8.17248c6.67194,11.35656 2.63826,26.11021 -9.00951,32.95323z" fill="url(#color-59)"/><g><path d="M328.97607,332.58372c-2.08462,-3.5483 -0.82432,-8.15799 2.81496,-10.29606c3.63928,-2.13806 8.2794,-0.99483 10.36401,2.55346c2.08462,3.5483 0.82432,8.15799 -2.81496,10.29606c-3.63928,2.13806 -8.2794,0.99483 -10.36401,-2.55346z" fill="#f500ff"/><path d="M330.07768,331.93653c-1.73612,-2.95511 -0.68652,-6.79415 2.34436,-8.57479c3.03086,-1.78062 6.89526,-0.82853 8.63138,2.12657c1.73612,2.95511 0.68652,6.79415 -2.34436,8.57479c-3.03086,1.78062 -6.89526,0.82853 -8.63138,-2.12657z" fill="#000000"/></g></g><path d="M287.10636,317.31217l54.97055,-31.91329l4.33585,7.7556l-54.97055,31.91329z" fill="url(#color-60)" stroke="none" stroke-width="0"/><path d="M262.82576,349.36278l33.84948,-19.88645l2.59389,4.41515l-33.84948,19.88645z" fill="url(#color-61)" stroke="none" stroke-width="0"/><path d="M249.85634,327.28704l33.84948,-19.88645l2.59389,4.41515l-33.84948,19.88645z" fill="url(#color-62)" stroke="none" stroke-width="0"/><path d="M296.7094,253.86925l-29.65319,17.11785l55.62709,95.20603l29.91997,-17.1643l3.5575,6.27197l-36.98306,21.21448l-62.59393,-107.61925l36.61159,-21.18006z" fill="url(#color-63)" stroke="none" stroke-width="0"/></g><g stroke-width="0"><g><path d="M319.00654,244.18116l12.93017,-48.99026l3.96688,1.0299l-12.93019,48.99024z" fill="url(#color-64)" stroke="none"/><g stroke="#000000"><g fill="url(#color-65)"><path d="M355.18356,201.29589c-0.20588,0.80473 -2.13443,18.65375 -25.35682,12.57005c-22.90662,-6.00099 -17.2139,-19.14202 -16.30602,-23.1054c3.93915,-17.19661 34.25904,-47.06659 34.25904,-47.06659c0,0 11.77667,40.5105 7.40379,57.60195z"/></g><g fill="url(#color-66)"><path d="M350.13735,198.6099c-0.1567,0.61238 -1.62423,14.19495 -19.29579,9.56545c-17.43125,-4.56657 -13.09927,-14.56654 -12.40841,-17.5825c2.99756,-13.08611 26.59269,-37.79093 26.59269,-37.79093c0,0 8.43918,32.80192 5.11155,45.80799z"/></g></g></g><path d="M322.93311,248.26043c-1.86704,1.09688 -4.26976,0.47254 -5.36664,-1.3945c-1.09688,-1.86704 -0.47254,-4.26976 1.3945,-5.36664c1.86704,-1.09688 4.26976,-0.47254 5.36664,1.3945c1.09688,1.86704 0.47254,4.26976 -1.3945,5.36664z" fill="url(#color-67)" stroke="none"/></g><g data-paper-data="{&quot;index&quot;:null}" stroke-width="0"><g><path d="M372.56127,329.61639l49.08775,12.55491l-1.03154,3.96645l-49.08776,-12.55493z" fill="url(#color-68)" stroke="none"/><g stroke="#000000"><g fill="url(#color-69)"><path d="M426.60178,322.85957c17.05822,4.50075 46.71111,34.50903 46.71111,34.50903c0,0 -40.85183,11.94316 -57.79077,7.01236c-3.90399,-1.13642 -18.15404,-2.56114 -12.24451,-25.49152c5.99101,-23.24648 22.52102,-16.2418 23.32419,-16.02988z"/></g><g fill="url(#color-70)"><path d="M426.49143,328.57498c12.9808,3.42493 37.52497,26.76522 37.52497,26.76522c0,0 -33.0663,8.58358 -45.95632,4.83137c-2.97077,-0.86476 -13.81466,-1.94897 -9.31768,-19.39829c4.559,-17.68988 17.13782,-12.35949 17.74902,-12.19826z"/></g></g></g><path d="M375.24461,329.56153c1.09688,1.86704 0.47254,4.26976 -1.3945,5.36664c-1.86704,1.09688 -4.26976,0.47254 -5.36664,-1.3945c-1.09688,-1.86704 -0.47254,-4.26976 1.3945,-5.36664c1.86704,-1.09688 4.26976,-0.47254 5.36664,1.3945z" fill="url(#color-71)" stroke="none"/></g><g stroke-width="0"><g><path d="M305.58062,402.8364l-78.80945,-136.02568c0,0 15.35011,-29.55196 45.62417,-36.66013c35.85127,-8.41766 60.58992,-33.58641 104.27832,40.97618c42.70172,72.96321 8.51058,78.31959 -14.71582,106.88068c-22.86236,28.11346 -56.37721,24.82895 -56.37721,24.82895zM280.51464,291.68249c6.97487,11.87219 22.25349,15.84227 34.12568,8.86739c27.63633,-16.23625 29.81504,-30.46244 22.84016,-42.33463c-6.97487,-11.87219 -24.73903,-16.79171 -48.09845,-0.65844c-11.32992,7.82505 -15.84227,22.25349 -8.86739,34.12568zM311.34271,342.96977c6.97487,11.87219 22.90284,14.97883 34.77505,8.00395c11.87219,-6.97487 33.29028,-20.93766 21.47423,-41.05021c-11.60556,-19.75426 -34.22883,-7.8429 -46.10104,-0.86802c-11.87219,6.97487 -17.12311,22.04209 -10.14823,33.91428z" fill="url(#color-72)" stroke="none"/><g><g stroke="#000000"><path d="M255.42334,292.05231c-6.9868,2.26158 -17.57096,-17.58198 -25.98121,-43.5642c-8.41026,-25.98218 5.63926,-65.15522 5.63926,-65.15522c0,0 4.61032,33.13298 13.02058,59.11516c0,0 14.30818,47.34267 7.32139,49.60425z" fill="url(#color-73)"/><path d="M253.09729,295.33478c-6.63909,3.13894 -19.68068,-15.18343 -31.35359,-39.87251c-11.67292,-24.68905 -2.76317,-65.34041 -2.76317,-65.34041c0,0 8.82139,32.26811 20.49432,56.95718c0,0 20.26155,45.11679 13.62246,48.25572z" fill="url(#color-74)"/><path d="M251.49227,294.54765c-6.06145,4.14599 -21.82761,-11.89208 -37.24556,-34.43304c-15.41794,-22.54094 -13.02606,-64.0884 -13.02606,-64.0884c0,0 13.79651,30.47465 29.21445,53.01559c0,0 27.11859,41.35985 21.05716,45.50583z" fill="url(#color-75)"/><path d="M250.18993,298.35405c-5.47968,4.88911 -23.17246,-8.99458 -41.3539,-29.37211c-18.1814,-20.37752 -21.13752,-61.88865 -21.13752,-61.88865c0,0 17.59082,28.45365 35.77222,48.83117c0,0 32.19888,37.54048 26.71921,42.42961z" fill="url(#color-76)"/><path d="M253.45323,295.40208c-4.28246,5.96579 -24.57568,-3.72839 -46.761,-19.65382c-22.18531,-15.92541 -34.11696,-55.79458 -34.11696,-55.79458c0,0 23.36892,23.93616 45.55424,39.86159c0,0 39.6062,29.621 35.32372,35.58681z" fill="url(#color-77)"/></g><g data-paper-data="{&quot;index&quot;:null}" stroke="#000000"><path d="M336.7676,393.36919c18.60121,19.99504 45.29852,40.15195 45.29852,40.15195c0,0 -41.05732,-6.79795 -59.65853,-26.79299c-18.60122,-19.99506 -30.78204,-38.90059 -25.40523,-43.90258c5.37681,-5.002 39.76521,30.54361 39.76521,30.54361z" fill="url(#color-78)"/><path d="M328.52254,398.65049c15.88333,22.21547 39.77516,45.62975 39.77516,45.62975c0,0 -39.84647,-12.00723 -55.72982,-34.22269c-15.88335,-22.21546 -25.53904,-42.52703 -19.56515,-46.79818c5.97391,-4.27116 35.51978,35.39112 35.51978,35.39112z" fill="url(#color-79)"/><path d="M322.40734,405.5912c12.18379,24.44099 32.08703,51.32795 32.08703,51.32795c0,0 -37.45623,-18.13684 -49.64,-42.57784c-12.1838,-24.44101 -18.5178,-46.02045 -11.94543,-49.29678c6.57237,-3.27633 29.49838,40.54665 29.49838,40.54665z" fill="url(#color-80)"/><path d="M313.00491,408.32394c8.94873,25.80168 25.23947,55.01912 25.23947,55.01912c0,0 -34.82095,-22.79065 -43.76968,-48.59233c-8.94874,-25.80171 -12.46295,-48.01529 -5.52467,-50.42166c6.93827,-2.40639 24.05488,43.99487 24.05488,43.99487z" fill="url(#color-81)"/><path d="M307.00615,411.09553c3.11061,27.13173 12.64244,59.19716 12.64244,59.19716c0,0 -29.01723,-29.83145 -32.12784,-56.96318c-3.11063,-27.13175 -1.69936,-49.57725 5.59656,-50.41371c7.29592,-0.83646 13.88884,48.17973 13.88884,48.17973z" fill="url(#color-82)"/></g><path d="M252.07879,267.22084c19.79931,-1.39992 31.52986,5.2837 41.81666,21.98011c5.63531,8.60066 10.16535,20.95406 -2.86488,33.11588c-3.18814,2.97565 -8.40529,4.2755 -13.78192,7.43425c-18.64094,10.95149 -33.2792,19.5557 -33.2792,19.5557c0,0 -12.75943,-11.31558 -20.76815,-24.94752c-9.93365,-16.90844 -11.55274,-54.27977 28.8775,-57.13839z" data-paper-data="{&quot;index&quot;:null}" fill="url(#color-83)" stroke="#000000"/><path d="M255.61987,379.54011c-8.07543,-13.74549 -12.18801,-30.58685 -12.18801,-30.58685c0,0 15.29367,-8.38219 33.78959,-19.24848c5.22443,-3.06934 9.52729,-5.69588 13.59216,-7.03944c17.21598,-5.69031 25.13013,3.0665 29.93247,12.23906c9.57651,17.11369 9.704,30.61407 -1.15754,47.2273c-22.17928,33.92426 -54.03502,14.31684 -63.96866,-2.59158z" fill="url(#color-84)" stroke="#000000"/><path d="M304.7181,313.19242c2.38308,4.05633 1.98907,8.71108 -0.88005,10.39668c-2.86912,1.6856 -16.3869,5.20401 -18.76999,1.14765c-2.38309,-4.05635 7.27096,-14.15135 10.14008,-15.83695c2.86912,-1.6856 7.12687,0.23626 9.50996,4.29261z" fill="url(#color-85)" stroke="none"/></g></g><g stroke="#000000"><path d="M331.22884,231.87721c-3.82993,7.18475 -13.10732,6.11821 -23.12794,4.37702c-23.84285,-4.14299 -22.9117,-5.77619 -22.9117,-5.77619c0,0 6.7726,-2.95771 13.65294,-15.86493c11.44108,-21.46294 -19.47735,-54.11947 23.12804,-4.37696c6.62479,7.73455 13.08856,14.45641 9.25869,21.6411z" fill="url(#color-86)"/><path d="M354.4133,227.53034c65.04707,7.64293 20.69983,0.17818 9.25873,21.64113c-6.88036,12.90723 -5.56055,20.17868 -5.56055,20.17868c0,0 -0.8368,1.68351 -17.56745,-15.80171c-7.03154,-7.34869 -13.08862,-14.45638 -9.2587,-21.64112c3.82985,-7.18468 13.01362,-5.5654 23.12795,-4.377z" data-paper-data="{&quot;index&quot;:null}" fill="url(#color-87)"/><path d="M345.06573,238.10011c-3.9233,7.35996 -12.92815,10.22158 -20.11284,6.3917c-7.18474,-3.8299 -9.82859,-12.90104 -5.9053,-20.26098c3.9233,-7.35996 12.92817,-10.22159 20.11286,-6.39172c7.18474,3.8299 9.82856,12.90109 5.90526,20.26101z" fill="url(#color-88)"/></g></g></g></g></svg>