<svg version="1.1" xmlns="http://www.w3.org/2000/svg" xmlns:xlink="http://www.w3.org/1999/xlink" width="324.91494" height="461.7516" viewBox="0,0,324.91494,461.7516"><defs><linearGradient x1="237.76889" y1="303.24007" x2="224.23634" y2="312.46217" gradientUnits="userSpaceOnUse" id="color-1"><stop offset="0" stop-color="#0f0f0f"/><stop offset="1" stop-color="#737373"/></linearGradient><linearGradient x1="222.45455" y1="313.9415" x2="209.00449" y2="323.10739" gradientUnits="userSpaceOnUse" id="color-2"><stop offset="0" stop-color="#0f0f0f"/><stop offset="1" stop-color="#737373"/></linearGradient><linearGradient x1="267.42454" y1="345.861" x2="253.97451" y2="355.02689" gradientUnits="userSpaceOnUse" id="color-3"><stop offset="0" stop-color="#0f0f0f"/><stop offset="1" stop-color="#737373"/></linearGradient><linearGradient x1="252.11705" y1="356.3971" x2="238.58444" y2="365.61924" gradientUnits="userSpaceOnUse" id="color-4"><stop offset="0" stop-color="#0f0f0f"/><stop offset="1" stop-color="#737373"/></linearGradient><linearGradient x1="226.63567" y1="341.87935" x2="220.62902" y2="345.97274" gradientUnits="userSpaceOnUse" id="color-5"><stop offset="0" stop-color="#595959"/><stop offset="1" stop-color="#afafaf"/></linearGradient><linearGradient x1="255.01454" y1="322.72026" x2="249.00788" y2="326.81364" gradientUnits="userSpaceOnUse" id="color-6"><stop offset="0" stop-color="#afafaf"/><stop offset="1" stop-color="#595959"/></linearGradient><linearGradient x1="242.29392" y1="331.37261" x2="233.84974" y2="337.1271" gradientUnits="userSpaceOnUse" id="color-7"><stop offset="0" stop-color="#afafaf"/><stop offset="1" stop-color="#595959"/></linearGradient><radialGradient cx="264.43563" cy="369.17448" r="10.52378" gradientUnits="userSpaceOnUse" id="color-8"><stop offset="0" stop-color="#656565"/><stop offset="1" stop-color="#404040"/></radialGradient><linearGradient x1="263.67388" y1="322.13579" x2="217.61864" y2="353.52135" gradientUnits="userSpaceOnUse" id="color-9"><stop offset="0" stop-color="#cb80ce"/><stop offset="1" stop-color="#a946ad"/></linearGradient><linearGradient x1="11.036" y1="296.01152" x2="26.87441" y2="300.1734" gradientUnits="userSpaceOnUse" id="color-10"><stop offset="0" stop-color="#0f0f0f"/><stop offset="1" stop-color="#737373"/></linearGradient><linearGradient x1="29.04852" y1="300.9712" x2="44.79041" y2="305.10772" gradientUnits="userSpaceOnUse" id="color-11"><stop offset="0" stop-color="#0f0f0f"/><stop offset="1" stop-color="#737373"/></linearGradient><linearGradient x1="-2.64725" y1="346.09918" x2="13.09462" y2="350.23569" gradientUnits="userSpaceOnUse" id="color-12"><stop offset="0" stop-color="#0f0f0f"/><stop offset="1" stop-color="#737373"/></linearGradient><linearGradient x1="15.30352" y1="350.9053" x2="31.14201" y2="355.06721" gradientUnits="userSpaceOnUse" id="color-13"><stop offset="0" stop-color="#0f0f0f"/><stop offset="1" stop-color="#737373"/></linearGradient><linearGradient x1="34.45759" y1="328.69748" x2="41.48774" y2="330.54481" gradientUnits="userSpaceOnUse" id="color-14"><stop offset="0" stop-color="#595959"/><stop offset="1" stop-color="#afafaf"/></linearGradient><linearGradient x1="1.30347" y1="320.13968" x2="8.33364" y2="321.98701" gradientUnits="userSpaceOnUse" id="color-15"><stop offset="0" stop-color="#afafaf"/><stop offset="1" stop-color="#595959"/></linearGradient><linearGradient x1="16.18612" y1="324.03637" x2="26.06914" y2="326.63333" gradientUnits="userSpaceOnUse" id="color-16"><stop offset="0" stop-color="#afafaf"/><stop offset="1" stop-color="#595959"/></linearGradient><radialGradient cx="7.97097" cy="367.06832" r="10.52378" gradientUnits="userSpaceOnUse" id="color-17"><stop offset="0" stop-color="#656565"/><stop offset="1" stop-color="#404040"/></radialGradient><linearGradient x1="-7.05223" y1="322.48676" x2="46.8506" y2="336.65089" gradientUnits="userSpaceOnUse" id="color-18"><stop offset="0" stop-color="#cb80ce"/><stop offset="1" stop-color="#a946ad"/></linearGradient><linearGradient x1="121.1689" y1="227.59452" x2="132.17072" y2="228.7545" gradientUnits="userSpaceOnUse" id="color-19"><stop offset="0" stop-color="#afafaf"/><stop offset="1" stop-color="#595959"/></linearGradient><linearGradient x1="121.56092" y1="303.39984" x2="120.21144" y2="316.19893" gradientUnits="userSpaceOnUse" id="color-20"><stop offset="0" stop-color="#afafaf"/><stop offset="1" stop-color="#595959"/></linearGradient><linearGradient x1="65.18292" y1="292.90162" x2="62.87757" y2="314.76676" gradientUnits="userSpaceOnUse" id="color-21"><stop offset="0" stop-color="#7c7c7c"/><stop offset="1" stop-color="#111111"/></linearGradient><linearGradient x1="85.6754" y1="295.90566" x2="83.37007" y2="317.7708" gradientUnits="userSpaceOnUse" id="color-22"><stop offset="0" stop-color="#7c7c7c"/><stop offset="1" stop-color="#111111"/></linearGradient><linearGradient x1="157.59656" y1="302.88161" x2="155.29121" y2="324.74676" gradientUnits="userSpaceOnUse" id="color-23"><stop offset="0" stop-color="#7c7c7c"/><stop offset="1" stop-color="#111111"/></linearGradient><linearGradient x1="178.08904" y1="305.88566" x2="175.78371" y2="327.7508" gradientUnits="userSpaceOnUse" id="color-24"><stop offset="0" stop-color="#7c7c7c"/><stop offset="1" stop-color="#111111"/></linearGradient><linearGradient x1="118.01409" y1="337.03977" x2="116.66463" y2="349.83891" gradientUnits="userSpaceOnUse" id="color-25"><stop offset="0" stop-color="#afafaf"/><stop offset="1" stop-color="#595959"/></linearGradient><linearGradient x1="66.71947" y1="327.07753" x2="64.41412" y2="348.94268" gradientUnits="userSpaceOnUse" id="color-26"><stop offset="0" stop-color="#7c7c7c"/><stop offset="1" stop-color="#111111"/></linearGradient><linearGradient x1="85.37179" y1="329.8876" x2="83.06646" y2="351.75274" gradientUnits="userSpaceOnUse" id="color-27"><stop offset="0" stop-color="#7c7c7c"/><stop offset="1" stop-color="#111111"/></linearGradient><linearGradient x1="150.86794" y1="336.1861" x2="148.56261" y2="358.05123" gradientUnits="userSpaceOnUse" id="color-28"><stop offset="0" stop-color="#7c7c7c"/><stop offset="1" stop-color="#111111"/></linearGradient><linearGradient x1="169.52032" y1="338.99615" x2="167.21498" y2="360.8613" gradientUnits="userSpaceOnUse" id="color-29"><stop offset="0" stop-color="#7c7c7c"/><stop offset="1" stop-color="#111111"/></linearGradient><linearGradient x1="114.46728" y1="370.67975" x2="113.11781" y2="383.47888" gradientUnits="userSpaceOnUse" id="color-30"><stop offset="0" stop-color="#afafaf"/><stop offset="1" stop-color="#595959"/></linearGradient><linearGradient x1="69.52686" y1="361.38747" x2="67.22153" y2="383.25262" gradientUnits="userSpaceOnUse" id="color-31"><stop offset="0" stop-color="#7c7c7c"/><stop offset="1" stop-color="#111111"/></linearGradient><linearGradient x1="85.87902" y1="363.95498" x2="83.57367" y2="385.82015" gradientUnits="userSpaceOnUse" id="color-32"><stop offset="0" stop-color="#7c7c7c"/><stop offset="1" stop-color="#111111"/></linearGradient><linearGradient x1="143.34392" y1="369.40673" x2="141.03857" y2="391.27188" gradientUnits="userSpaceOnUse" id="color-33"><stop offset="0" stop-color="#7c7c7c"/><stop offset="1" stop-color="#111111"/></linearGradient><linearGradient x1="159.69604" y1="371.97424" x2="157.3907" y2="393.8394" gradientUnits="userSpaceOnUse" id="color-34"><stop offset="0" stop-color="#7c7c7c"/><stop offset="1" stop-color="#111111"/></linearGradient><linearGradient x1="99.7254" y1="354.71681" x2="128.92867" y2="357.79585" gradientUnits="userSpaceOnUse" id="color-35"><stop offset="0" stop-color="#afafaf"/><stop offset="1" stop-color="#595959"/></linearGradient><linearGradient x1="122.45385" y1="285.37761" x2="121.74449" y2="292.10565" gradientUnits="userSpaceOnUse" id="color-36"><stop offset="0" stop-color="#afafaf"/><stop offset="1" stop-color="#595959"/></linearGradient><radialGradient cx="214.32423" cy="295.81981" r="10.52378" gradientUnits="userSpaceOnUse" id="color-37"><stop offset="0" stop-color="#656565"/><stop offset="1" stop-color="#404040"/></radialGradient><linearGradient x1="122.0717" y1="280.88786" x2="120.3377" y2="297.33413" gradientUnits="userSpaceOnUse" id="color-38"><stop offset="0" stop-color="#595959"/><stop offset="1" stop-color="#393939"/></linearGradient><radialGradient cx="34.91113" cy="276.90345" r="10.52378" gradientUnits="userSpaceOnUse" id="color-39"><stop offset="0" stop-color="#656565"/><stop offset="1" stop-color="#404040"/></radialGradient><linearGradient x1="89.99292" y1="441.92396" x2="120.31126" y2="445.12055" gradientUnits="userSpaceOnUse" id="color-40"><stop offset="0" stop-color="#595959"/><stop offset="1" stop-color="#393939"/></linearGradient><linearGradient x1="88.78546" y1="431.3429" x2="123.69883" y2="435.02398" gradientUnits="userSpaceOnUse" id="color-41"><stop offset="0" stop-color="#393939"/><stop offset="1" stop-color="#151515"/></linearGradient><linearGradient x1="87.51371" y1="443.40486" x2="122.42708" y2="447.08594" gradientUnits="userSpaceOnUse" id="color-42"><stop offset="0" stop-color="#393939"/><stop offset="1" stop-color="#151515"/></linearGradient><radialGradient cx="43.52738" cy="263.44037" r="25.49689" gradientUnits="userSpaceOnUse" id="color-43"><stop offset="0" stop-color="#cb80ce"/><stop offset="1" stop-color="#a946ad"/></radialGradient><radialGradient cx="202.21155" cy="280.17117" r="25.49689" gradientUnits="userSpaceOnUse" id="color-44"><stop offset="0" stop-color="#cb80ce"/><stop offset="1" stop-color="#a946ad"/></radialGradient><linearGradient x1="126.72187" y1="248.36242" x2="104.34436" y2="460.60295" gradientUnits="userSpaceOnUse" id="color-45"><stop offset="0" stop-color="#cb80ce"/><stop offset="1" stop-color="#a946ad"/></linearGradient><radialGradient cx="132.16304" cy="317.82524" r="90.17984" gradientUnits="userSpaceOnUse" id="color-46"><stop offset="0" stop-color="#d3afd3"/><stop offset="1" stop-color="#c0a0c1"/></radialGradient><linearGradient x1="149.24785" y1="187.28278" x2="119.31966" y2="268.74753" gradientUnits="userSpaceOnUse" id="color-47"><stop offset="0" stop-color="#cb80ce"/><stop offset="1" stop-color="#a946ad"/></linearGradient><linearGradient x1="132.22471" y1="233.6198" x2="114.50501" y2="281.85296" gradientUnits="userSpaceOnUse" id="color-48"><stop offset="0" stop-color="#cb80ce"/><stop offset="1" stop-color="#a946ad"/></linearGradient><linearGradient x1="148.85571" y1="187.37971" x2="121.03412" y2="263.11027" gradientUnits="userSpaceOnUse" id="color-49"><stop offset="0" stop-color="#330000"/><stop offset="1" stop-color="#9c0000"/></linearGradient><linearGradient x1="142.61763" y1="203.5533" x2="141.84887" y2="205.64588" gradientUnits="userSpaceOnUse" id="color-50"><stop offset="0" stop-color="#898989"/><stop offset="1" stop-color="#2e2e2e"/></linearGradient><linearGradient x1="140.00445" y1="210.53495" x2="134.68264" y2="225.02094" gradientUnits="userSpaceOnUse" id="color-51"><stop offset="0" stop-color="#8a8a8a"/><stop offset="1" stop-color="#0f0f0f"/></linearGradient><linearGradient x1="140.49172" y1="209.20861" x2="135.16991" y2="223.69461" gradientUnits="userSpaceOnUse" id="color-52"><stop offset="0" stop-color="#898989"/><stop offset="1" stop-color="#2e2e2e"/></linearGradient><linearGradient x1="171.37047" y1="125.28751" x2="169.42401" y2="130.5858" gradientUnits="userSpaceOnUse" id="color-53"><stop offset="0" stop-color="#afafaf"/><stop offset="1" stop-color="#7a7a7a"/></linearGradient><linearGradient x1="125.75782" y1="103.46147" x2="104.27104" y2="161.94864" gradientUnits="userSpaceOnUse" id="color-54"><stop offset="0" stop-color="#afafaf"/><stop offset="1" stop-color="#7a7a7a"/></linearGradient><linearGradient x1="220.10999" y1="138.1242" x2="198.62323" y2="196.61136" gradientUnits="userSpaceOnUse" id="color-55"><stop offset="0" stop-color="#afafaf"/><stop offset="1" stop-color="#7a7a7a"/></linearGradient><linearGradient x1="159.5741" y1="158.00587" x2="142.83646" y2="203.56584" gradientUnits="userSpaceOnUse" id="color-56"><stop offset="0" stop-color="#424242"/><stop offset="1" stop-color="#000000"/></linearGradient><linearGradient x1="163.84728" y1="144.67616" x2="161.31636" y2="151.56534" gradientUnits="userSpaceOnUse" id="color-57"><stop offset="0" stop-color="#b8b8b8"/><stop offset="1" stop-color="#313131"/></linearGradient><radialGradient cx="134.66578" cy="137.98174" r="24.46047" gradientUnits="userSpaceOnUse" id="color-58"><stop offset="0" stop-color="#ffffff"/><stop offset="1" stop-color="#cccccc"/></radialGradient><radialGradient cx="190.44181" cy="158.47252" r="24.46047" gradientUnits="userSpaceOnUse" id="color-59"><stop offset="0" stop-color="#ffffff"/><stop offset="1" stop-color="#cccccc"/></radialGradient><linearGradient x1="172.12142" y1="122.48827" x2="149.89369" y2="182.0378" gradientUnits="userSpaceOnUse" id="color-60"><stop offset="0" stop-color="#9d9d9d"/><stop offset="1" stop-color="#6e6e6e"/></linearGradient><linearGradient x1="163.27541" y1="184.62743" x2="149.73732" y2="221.4782" gradientUnits="userSpaceOnUse" id="color-61"><stop offset="0" stop-color="#afafaf"/><stop offset="1" stop-color="#595959"/></linearGradient><linearGradient x1="139.24229" y1="175.79824" x2="125.70421" y2="212.64901" gradientUnits="userSpaceOnUse" id="color-62"><stop offset="0" stop-color="#afafaf"/><stop offset="1" stop-color="#595959"/></linearGradient><linearGradient x1="221.1594" y1="165.79346" x2="206.25744" y2="205.07413" gradientUnits="userSpaceOnUse" id="color-63"><stop offset="0" stop-color="#afafaf"/><stop offset="1" stop-color="#595959"/></linearGradient><linearGradient x1="113.42897" y1="80.62089" x2="117.18619" y2="78.90296" gradientUnits="userSpaceOnUse" id="color-64"><stop offset="0" stop-color="#d3d3d3"/><stop offset="1" stop-color="#868686"/></linearGradient><linearGradient x1="110.46729" y1="18.02749" x2="89.81943" y2="74.23114" gradientUnits="userSpaceOnUse" id="color-65"><stop offset="0" stop-color="#cb80ce"/><stop offset="1" stop-color="#a946ad"/></linearGradient><radialGradient cx="100.51914" cy="47.93252" r="23.50748" gradientUnits="userSpaceOnUse" id="color-66"><stop offset="0" stop-color="#d3afd3"/><stop offset="1" stop-color="#947b95"/></radialGradient><radialGradient cx="125.94053" cy="102.96415" r="3.92081" gradientUnits="userSpaceOnUse" id="color-67"><stop offset="0" stop-color="#a9a9a9"/><stop offset="1" stop-color="#5d5d5d"/></radialGradient><linearGradient x1="244.29324" y1="128.69728" x2="242.54175" y2="124.9556" gradientUnits="userSpaceOnUse" id="color-68"><stop offset="0" stop-color="#d3d3d3"/><stop offset="1" stop-color="#868686"/></linearGradient><linearGradient x1="287.07213" y1="82.90787" x2="266.42423" y2="139.11151" gradientUnits="userSpaceOnUse" id="color-69"><stop offset="0" stop-color="#cb80ce"/><stop offset="1" stop-color="#a946ad"/></linearGradient><radialGradient cx="276.89794" cy="110.07375" r="23.50748" gradientUnits="userSpaceOnUse" id="color-70"><stop offset="0" stop-color="#d3afd3"/><stop offset="1" stop-color="#947b95"/></radialGradient><radialGradient cx="220.2927" cy="137.62688" r="3.92081" gradientUnits="userSpaceOnUse" id="color-71"><stop offset="0" stop-color="#a9a9a9"/><stop offset="1" stop-color="#5d5d5d"/></radialGradient><linearGradient x1="184.78182" y1="87.55689" x2="140.63706" y2="207.71922" gradientUnits="userSpaceOnUse" id="color-72"><stop offset="0" stop-color="#cb80ce"/><stop offset="1" stop-color="#a946ad"/></linearGradient><linearGradient x1="69.37158" y1="127.84074" x2="54.67902" y2="167.83401" gradientUnits="userSpaceOnUse" id="color-73"><stop offset="0" stop-color="#d3afd3"/><stop offset="1" stop-color="#c0a0c1"/></linearGradient><linearGradient x1="63.07823" y1="143.98191" x2="52.14287" y2="173.74802" gradientUnits="userSpaceOnUse" id="color-74"><stop offset="0" stop-color="#d3afd3"/><stop offset="1" stop-color="#c0a0c1"/></linearGradient><linearGradient x1="54.2343" y1="160.23258" x2="46.87511" y2="180.26438" gradientUnits="userSpaceOnUse" id="color-75"><stop offset="0" stop-color="#d3afd3"/><stop offset="1" stop-color="#c0a0c1"/></linearGradient><linearGradient x1="54.42363" y1="167.5125" x2="45.94236" y2="190.59859" gradientUnits="userSpaceOnUse" id="color-76"><stop offset="0" stop-color="#d3afd3"/><stop offset="1" stop-color="#c0a0c1"/></linearGradient><linearGradient x1="56.72494" y1="165.27583" x2="43.95738" y2="200.02923" gradientUnits="userSpaceOnUse" id="color-77"><stop offset="0" stop-color="#d3afd3"/><stop offset="1" stop-color="#c0a0c1"/></linearGradient><linearGradient x1="244.0452" y1="192.01165" x2="229.35263" y2="232.00492" gradientUnits="userSpaceOnUse" id="color-78"><stop offset="0" stop-color="#d3afd3"/><stop offset="1" stop-color="#c0a0c1"/></linearGradient><linearGradient x1="238.39239" y1="208.38814" x2="227.45702" y2="238.15428" gradientUnits="userSpaceOnUse" id="color-79"><stop offset="0" stop-color="#d3afd3"/><stop offset="1" stop-color="#c0a0c1"/></linearGradient><linearGradient x1="234.6126" y1="226.49924" x2="227.25341" y2="246.53103" gradientUnits="userSpaceOnUse" id="color-80"><stop offset="0" stop-color="#d3afd3"/><stop offset="1" stop-color="#c0a0c1"/></linearGradient><linearGradient x1="229.7554" y1="231.92519" x2="221.27412" y2="255.01126" gradientUnits="userSpaceOnUse" id="color-81"><stop offset="0" stop-color="#d3afd3"/><stop offset="1" stop-color="#c0a0c1"/></linearGradient><linearGradient x1="229.44955" y1="228.73074" x2="216.68199" y2="263.4841" gradientUnits="userSpaceOnUse" id="color-82"><stop offset="0" stop-color="#d3afd3"/><stop offset="1" stop-color="#c0a0c1"/></linearGradient><radialGradient cx="131.65849" cy="180.74171" r="39.4112" gradientUnits="userSpaceOnUse" id="color-83"><stop offset="0" stop-color="#d3afd3"/><stop offset="1" stop-color="#c0a0c1"/></radialGradient><radialGradient cx="192.33795" cy="199.93508" r="39.4112" gradientUnits="userSpaceOnUse" id="color-84"><stop offset="0" stop-color="#d3afd3"/><stop offset="1" stop-color="#c0a0c1"/></radialGradient><radialGradient cx="156.49393" cy="171.48582" r="11.39512" gradientUnits="userSpaceOnUse" id="color-85"><stop offset="0" stop-color="#858585"/><stop offset="1" stop-color="#000000"/></radialGradient><radialGradient cx="107.80741" cy="89.64457" r="25.59881" gradientUnits="userSpaceOnUse" id="color-86"><stop offset="0" stop-color="#2e2540"/><stop offset="1" stop-color="#694da0"/></radialGradient><radialGradient cx="142.46253" cy="81.79309" r="25.59881" gradientUnits="userSpaceOnUse" id="color-87"><stop offset="0" stop-color="#2e2540"/><stop offset="1" stop-color="#694da0"/></radialGradient><radialGradient cx="125.22222" cy="86.15421" r="15.10149" gradientUnits="userSpaceOnUse" id="color-88"><stop offset="0" stop-color="#8461ca"/><stop offset="1" stop-color="#4e3f6d"/></radialGradient></defs><g transform="translate(9.83511,-7.73814)"><g data-paper-data="{&quot;isPaintingLayer&quot;:true}" fill-rule="nonzero" stroke-linecap="butt" stroke-linejoin="miter" stroke-miterlimit="10" stroke-dasharray="" stroke-dashoffset="0" style="mix-blend-mode: normal"><path d="M176.14193,438.57291c-9.47734,30.76455 -135.19264,19.56593 -137.44402,-17.15375c-0.64864,0.94022 12.08059,-36.82648 13.8429,-70.61017c1.76232,-33.78369 -21.39469,-110.2326 69.65016,-102.06657c102.89131,7.82022 58.90866,80.38818 54.21894,117.7455c-4.87215,38.81065 0.53968,72.51733 -0.26799,72.08498z" data-paper-data="{&quot;index&quot;:null}" fill="#484848" stroke="#000000" stroke-width="0"/><g data-paper-data="{&quot;index&quot;:null}" stroke="none"><path d="M241.8227,295.16759c10.59484,3.84774 36.11656,52.15247 36.7849,62.43537c0.30508,4.69397 -29.06858,25.43235 -33.52255,23.48955c-9.68709,-4.22555 -45.74547,-48.42355 -44.72641,-58.20432c1.01904,-9.78077 30.86921,-31.56833 41.46404,-27.72059z" fill="#484848" stroke-width="0"/><g><g><path d="M218.78334,300.01563c2.45045,-0.54201 2.99244,1.90845 2.99244,1.90845l0.34338,1.88174c1.4128,2.87867 2.72573,5.7016 4.03513,8.54449c2.91872,0.43753 6.21843,0.61105 9.09006,2.0796c3.93049,2.01005 7.05465,8.8054 8.78597,12.57844c0.41825,2.14996 0.56577,4.03605 0.46901,5.85978c6.44781,4.05785 12.55447,8.79821 14.74411,16.50263c0.86771,3.05309 0.65134,5.788 0.29157,8.57787c2.13038,2.54509 3.21647,6.23248 4.53366,9.0817c0,0 1.05315,2.27802 -1.22488,3.33112c-2.27802,1.05315 -3.33112,-1.22488 -3.33112,-1.22488c-0.50998,-1.10314 -1.02466,-2.70744 -1.66144,-4.26714c-0.38399,0.25124 -0.90093,0.40594 -1.59626,0.35261c-2.50234,-0.19194 -2.31039,-2.69425 -2.31039,-2.69425c0.06882,-0.84481 0.18005,-1.66657 0.30273,-2.47538c-5.83512,-3.18335 -15.16942,-2.53365 -17.95704,-10.18465c-1.78324,-4.89436 1.03514,-9.66366 2.44435,-14.6095c-1.59156,-0.94162 -3.15089,-1.87182 -4.59847,-2.84087c-4.5197,-3.0257 -7.25575,-8.6188 -10.25546,-13.04404c-0.28438,-0.6147 -0.56644,-1.226 -0.84718,-1.83482c-0.8695,-0.11949 -1.7069,-0.30297 -2.49167,-0.6028c-4.58509,-1.75175 -6.85244,-7.30625 -7.15028,-11.69494l-0.74249,-2.56237c0,0 -0.68498,-2.41438 1.72942,-3.09934c1.75693,-0.49843 2.59808,0.64436 2.92591,1.30369c0.29273,-0.38063 0.75541,-0.70709 1.47897,-0.86715zM254.42489,350.7761c-1.62996,-5.7593 -6.02561,-9.46886 -10.87288,-12.59204c-0.2388,0.82782 -0.51944,1.68114 -0.8397,2.5768c-0.78566,2.19722 -2.66962,4.83707 -1.73578,7.3088c1.77947,4.71003 9.03302,5.31179 13.91008,6.92175c0.055,-1.36374 -0.04764,-2.75211 -0.46175,-4.21534zM236.81612,328.1733c0.85144,0.53701 1.7238,1.06959 2.60762,1.60378c-0.03261,-0.40566 -0.08782,-0.81311 -0.16865,-1.22251c-1.1194,-2.39564 -3.84457,-8.62922 -6.40545,-9.71347c-1.23198,-0.52158 -2.55865,-0.76232 -3.91281,-0.89355c2.21851,3.49801 4.50694,8.09879 7.8793,10.22578z" fill="#000000" stroke-width="0.5"/><path d="M222.55789,309.9993l-0.2581,-2.58289l17.14747,-1.71345l0.25811,2.58288z" fill="url(#color-1)" stroke-width="0"/><path d="M213.08686,326.82766l-2.32864,-1.14685l7.61398,-15.45957l2.32864,1.14685z" data-paper-data="{&quot;index&quot;:null}" fill="url(#color-2)" stroke-width="0"/><path d="M263.34219,342.14079l2.32864,1.14685l-7.61398,15.45957l-2.32864,-1.14685z" data-paper-data="{&quot;index&quot;:null}" fill="url(#color-3)" stroke-width="0"/><path d="M253.79545,358.86l0.2581,2.58287l-17.14747,1.71348l-0.2581,-2.58289z" data-paper-data="{&quot;index&quot;:null}" fill="url(#color-4)" stroke-width="0"/><path d="M237.39016,369.72332l-33.09778,-47.723l5.58219,-3.8715l33.09778,47.723z" fill="url(#color-5)" stroke-width="0"/><path d="M265.76898,350.56417l-33.09778,-47.723l5.58219,-3.8715l33.09778,47.723z" fill="url(#color-6)" stroke-width="0"/><path d="M257.4126,370.51575l-46.52904,-67.08922l7.84747,-5.44254l46.52904,67.08922z" fill="url(#color-7)" stroke-width="0"/></g><path d="M272.53839,366.38157c3.03927,4.45983 1.60958,10.72855 -3.19334,14.00163c-4.8029,3.27306 -11.16023,2.31102 -14.19949,-2.14883c-3.03927,-4.45983 -1.60958,-10.72857 3.19334,-14.00164c4.8029,-3.27306 11.16023,-2.311 14.1995,2.14885z" fill="url(#color-8)" stroke-width="0"/></g><path d="M241.8227,295.16759c10.59484,3.84774 36.11656,52.15247 36.7849,62.43537c0.30508,4.69397 -29.06858,25.43235 -33.52255,23.48955c-9.68709,-4.22555 -45.74547,-48.42355 -44.72641,-58.20432c1.01904,-9.78077 30.86921,-31.56833 41.46404,-27.72059z" fill="url(#color-9)" stroke-width="0"/></g><g stroke="none"><path d="M52.86444,302.00793c4.23334,8.87585 -14.95574,62.59223 -22.67029,69.81584c-3.54705,3.32129 -38.16706,-6.39187 -39.45038,-10.91729c-2.81124,-9.91369 5.07437,-63.97405 13.77078,-71.14542c8.6964,-7.17137 44.11659,3.37105 48.3499,12.24688z" fill="#484848" stroke-width="0"/><g><g><path d="M27.84791,286.61964c0.73542,-0.09132 1.28066,0.06149 1.68389,0.32222c0.08828,-0.73102 0.49849,-2.08942 2.32094,-2.20765c2.50441,-0.16249 2.66687,2.34193 2.66687,2.34193l0.15777,2.66311c1.18794,4.23534 0.91006,10.22836 -2.82446,13.41347c-0.63921,0.54517 -1.36692,0.99829 -2.14629,1.40186c-0.0608,0.66766 -0.12206,1.33813 -0.18433,2.01255c-1.3459,5.17393 -2.05252,11.36017 -5.29913,15.72389c-1.03983,1.3976 -2.19798,2.79597 -3.38267,4.21592c2.98303,4.18913 7.2349,7.74032 7.19233,12.94924c-0.06657,8.14274 -9.08013,10.65412 -13.51356,15.6066c0.38626,0.72114 0.76608,1.45826 1.11364,2.23136c0,0 1.01826,2.29381 -1.27558,3.31207c-0.63739,0.28293 -1.17631,0.31015 -1.62223,0.20189c-0.07812,1.68287 -0.02626,3.36691 -0.13769,4.57711c0,0 -0.23009,2.49911 -2.7292,2.269c-2.49911,-0.23009 -2.269,-2.7292 -2.269,-2.7292c0.28779,-3.12572 0.07732,-6.96399 1.23319,-10.07524c-1.27264,-2.50862 -2.39172,-5.01346 -2.59572,-8.18091c-0.51478,-7.99297 3.65347,-14.50355 8.37162,-20.48514c-0.7015,-1.68621 -1.19364,-3.5129 -1.51896,-5.67889c0.3689,-4.1349 1.03894,-11.58393 4.07018,-14.79339c2.21463,-2.34484 5.26605,-3.61257 7.87007,-5.0016c0.28255,-3.11717 0.57515,-6.2167 0.94316,-9.40218l-0.30612,-1.88816c0,0 -0.30928,-2.49055 2.18128,-2.79981zM11.24773,346.38064c0.09942,1.51744 0.46731,2.86011 0.9755,4.12682c4.05711,-3.14919 10.69112,-6.14358 10.79182,-11.17755c0.05286,-2.64174 -2.60587,-4.49893 -4.08151,-6.30657c-0.60153,-0.73686 -1.15155,-1.44707 -1.6536,-2.14724c-3.52266,4.56518 -6.42353,9.53185 -6.03222,15.50456zM20.27746,319.18849c2.46616,-3.13289 3.08304,-8.23419 4.00308,-12.27295c-1.23218,0.57683 -2.40181,1.24764 -3.38821,2.15142c-2.05039,1.87869 -2.53245,8.66484 -2.78563,11.29697c0.06082,0.41284 0.14515,0.81528 0.25016,1.20846c0.65411,-0.79916 1.29796,-1.59296 1.9206,-2.38393z" fill="#000000" stroke-width="0.5"/><path d="M10.89965,301.41442l-0.62108,-2.52035l16.73225,-4.12355l0.62113,2.52035z" fill="url(#color-10)" stroke-width="0"/><path d="M29.83998,297.95927l1.81061,-1.85999l12.3484,12.02033l-1.81061,1.85999z" data-paper-data="{&quot;index&quot;:null}" fill="url(#color-11)" stroke-width="0"/><path d="M12.30318,353.24765l-1.81061,1.85999l-12.3484,-12.02033l1.81061,-1.85999z" data-paper-data="{&quot;index&quot;:null}" fill="url(#color-12)" stroke-width="0"/><path d="M31.27833,349.66433l0.62113,2.52035l-16.73224,4.12353l-0.62113,-2.52032z" data-paper-data="{&quot;index&quot;:null}" fill="url(#color-13)" stroke-width="0"/><path d="M27.08493,356.75474l15.21956,-56.04741l6.5559,1.78028l-15.21956,56.04741z" fill="url(#color-14)" stroke-width="0"/><path d="M-6.06917,348.19692l15.21956,-56.04741l6.5559,1.78028l-15.21956,56.04741z" fill="url(#color-15)" stroke-width="0"/><path d="M5.82159,363.47939l21.39575,-78.79173l9.21633,2.50268l-21.39575,78.79173z" fill="url(#color-16)" stroke-width="0"/></g><path d="M12.0625,360.37126c5.62131,1.47711 9.06633,6.90602 7.69473,12.12578c-1.37161,5.21978 -7.04046,8.25377 -12.66175,6.77664c-5.62131,-1.47711 -9.06634,-6.90599 -7.69472,-12.12576c1.37161,-5.21978 7.04046,-8.2538 12.66176,-6.77666z" fill="url(#color-17)" stroke-width="0"/></g><path d="M52.86444,302.00793c4.23334,8.87585 -14.95574,62.59223 -22.67029,69.81584c-3.54705,3.32129 -38.16706,-6.39187 -39.45038,-10.91729c-2.81124,-9.91369 5.07437,-63.97405 13.77078,-71.14542c8.6964,-7.17137 44.11659,3.37105 48.3499,12.24688z" fill="url(#color-18)" stroke-width="0"/></g><path d="M214.31191,234.78559l-147.23237,-55.10483c0,0 -6.89245,-32.57972 11.99224,-57.28626c22.36371,-29.25809 25.50854,-64.40886 106.59194,-34.5134c79.30585,29.28565 56.28227,55.12436 56.45904,91.93699c0.17402,36.23568 -27.81083,54.96747 -27.81083,54.96747z" fill="#484848" stroke="none" stroke-width="0"/><g stroke="none"><path d="M115.67786,426.49833c-0.11622,0.6728 -0.80566,3.53373 -4.09057,3.18739c-0.01664,-0.00175 -0.03322,-0.00358 -0.04969,-0.00546c-0.09447,1.12898 -0.64339,2.99169 -3.18959,3.35033c-3.70323,0.52162 -4.22484,-3.18162 -4.22484,-3.18162l-0.45043,-3.99851c0.45642,-4.32896 2.16619,-10.54829 -0.11287,-14.65594c-3.53462,-6.37059 -12.79065,-12.66406 -10.51345,-21.15166c1.29064,-4.81055 4.23967,-7.22017 7.66358,-9.15129c-0.38698,-1.88374 -0.62992,-3.86554 -0.76563,-6.02629c0.06664,-0.64635 1.02196,-10.39639 1.28918,-11.0546c2.48081,-6.11058 9.64926,-9.71501 14.96792,-12.66131c3.15073,-1.74538 6.48823,-3.29355 9.75288,-4.95908c-5.66627,-8.83161 -17.04842,-16.23909 -23.00124,-22.29505c-4.49384,-4.57171 -4.60325,-10.80448 -6.28642,-16.76837c-0.73434,-3.56115 -2.49239,-8.97625 -4.5954,-11.92615c-2.46493,-3.4576 -14.64888,-4.19711 -18.38491,-5.6427c-13.45706,-5.20695 -26.63216,-6.35204 -41.02491,-5.01911c0,0 -3.72384,0.34486 -4.06871,-3.37894c-0.34486,-3.72384 3.37895,-4.06873 3.37895,-4.06873c10.47065,-0.96973 20.92296,-1.09376 31.33535,0.96442c6.07221,1.20026 11.31797,4.03882 17.18637,5.64909c4.83721,1.32732 13.74261,2.56561 17.19153,6.55329c2.87853,3.32822 5.25483,10.80523 6.23594,15.0468c0.96734,3.41718 1.20641,8.02461 2.40557,11.16868c1.51911,3.98292 9.16026,7.18631 12.22742,9.85266c5.01459,4.35934 10.1168,10.07926 13.55239,16.4133c4.20474,-2.67353 7.95691,-5.95035 10.58494,-10.64431c6.84887,-12.23298 -7.8368,-19.52097 -8.44442,-30.0974c-0.25434,-4.42714 2.58437,-7.75604 4.73476,-11.15379c6.95423,-7.3189 24.93127,-16.55156 34.32172,-8.93973c3.96654,3.21525 5.12716,9.16687 9.05693,12.17483c7.55097,5.77967 22.38708,3.46795 31.19384,4.36341c0,0 3.71916,0.39214 3.32703,4.11128c-0.39214,3.71916 -4.11128,3.32703 -4.11128,3.32703c-10.38709,-1.1411 -25.57314,1.12866 -34.61086,-5.61362c-4.34196,-3.2392 -5.84018,-8.86327 -9.60512,-12.58486c-2.1919,-2.16665 -4.51502,-0.90849 -7.42168,-0.32891c-5.66657,1.12985 -12.38383,3.75117 -16.23553,8.06823c-4.75648,7.33926 -2.14417,7.1933 2.0917,14.19455c4.44253,7.34284 6.61238,17.97278 2.33158,25.94361c-3.43373,6.39359 -8.58228,10.58242 -14.29444,14.0226c2.04995,6.65798 1.82939,13.66737 -2.40446,20.28669c-4.55673,7.12405 -14.23068,8.2488 -20.51016,13.36807c-0.78201,0.46177 -1.6192,0.86577 -2.47575,1.25199c0.6196,1.34299 1.38452,2.68617 2.31734,4.09601c2.55716,3.86475 7.19278,7.06808 8.46899,11.7208c1.83833,6.7019 -1.04216,20.04587 -4.74354,26.1923zM111.86116,413.03863c0.33588,-3.11685 2.34114,-7.42651 1.41317,-10.52738c-1.09561,-3.66115 -5.45903,-6.57744 -7.50442,-9.71646c-1.07959,-1.65684 -1.97738,-3.24885 -2.72001,-4.83464c-1.18348,0.96802 -2.15179,2.18727 -2.73508,3.8474c-1.60359,4.56406 8.02482,12.25647 9.88657,15.94702c0.89657,1.77722 1.39299,3.64442 1.63138,5.5556c0.00908,-0.08962 0.01852,-0.18013 0.02839,-0.27155zM119.80395,357.70427c-3.41963,1.89249 -10.11907,4.704 -11.61138,8.84781c-0.96183,2.67085 -0.46572,5.65898 -0.77058,8.48135c0.04305,0.76183 0.10641,1.49311 0.19232,2.20034c0.07191,-0.04291 0.14374,-0.08613 0.21541,-0.12966c5.18707,-4.1688 14.97335,-5.75222 18.56657,-11.3818c2.88146,-4.51443 3.45105,-8.76957 2.53241,-12.77084c-3.04988,1.58312 -6.14276,3.10249 -9.12472,4.75281z" fill="#000000" stroke-width="0.5"/><g stroke-width="0"><g><path d="M114.68124,289.12695l12.9753,-123.06488l11.00183,1.15996l-12.9753,123.06488z" fill="url(#color-19)"/><g><path d="M53.32571,309.14686l1.34947,-12.79911l133.77145,14.10415l-1.34947,12.79911z" fill="url(#color-20)"/><path d="M58.92524,314.35006l2.30534,-21.86514l7.90465,0.83343l-2.30534,21.86514z" fill="url(#color-21)"/><path d="M79.41773,317.3541l2.30534,-21.86514l7.90465,0.83343l-2.30534,21.86514z" fill="url(#color-22)"/><path d="M151.33889,324.33003l2.30534,-21.86514l7.90465,0.83343l-2.30534,21.86514z" fill="url(#color-23)"/><path d="M171.83135,327.33407l2.30534,-21.86514l7.90465,0.83343l-2.30534,21.86514z" fill="url(#color-24)"/></g><g><path d="M55.75933,343.41739l1.34947,-12.79911l121.81058,12.84304l-1.34947,12.79911z" fill="url(#color-25)"/><path d="M60.81519,348.56324l2.30534,-21.86514l7.19788,0.75891l-2.30534,21.86514z" fill="url(#color-26)"/><path d="M79.46752,351.37329l2.30534,-21.86514l7.19786,0.7589l-2.30534,21.86514z" fill="url(#color-27)"/><path d="M144.96368,357.67178l2.30534,-21.86514l7.19786,0.7589l-2.30534,21.86514z" fill="url(#color-28)"/><path d="M163.616,360.48183l2.30534,-21.86514l7.19788,0.75891l-2.30534,21.86514z" fill="url(#color-29)"/></g><g><path d="M59.68805,377.84553l1.34947,-12.79911l106.85948,11.26669l-1.34947,12.79911z" fill="url(#color-30)"/><path d="M64.06433,382.91974l2.30534,-21.86514l6.3144,0.66575l-2.30534,21.86514z" fill="url(#color-31)"/><path d="M80.41644,385.48727l2.30534,-21.86514l6.3144,0.66575l-2.30534,21.86514z" fill="url(#color-32)"/><path d="M137.88134,390.93899l2.30534,-21.86514l6.3144,0.66575l-2.30534,21.86514z" fill="url(#color-33)"/><path d="M154.23353,393.50653l2.30534,-21.86514l6.3144,0.66575l-2.30534,21.86514z" fill="url(#color-34)"/></g><path d="M96.40606,422.04456l3.12188,-30.64279l7.25456,-103.61861l29.20327,3.07904l-14.58746,102.92251l-3.26457,30.5507z" fill="url(#color-35)"/><path d="M33.53303,282.80509l0.70937,-6.728l176.4229,18.60108l-0.70937,6.728z" fill="url(#color-36)"/><path d="M221.56331,298.85065c-0.60942,5.78009 -5.45445,10.00702 -10.82167,9.44113c-5.36722,-0.56589 -9.22415,-5.71032 -8.61473,-11.4904c0.60942,-5.78009 5.45441,-10.00702 10.82165,-9.44113c5.36722,0.56589 9.22417,5.7103 8.61477,11.49041z" fill="url(#color-37)"/><path d="M94.75163,294.63648l1.734,-16.44622l51.17214,5.39531l-1.734,16.44622z" fill="url(#color-38)"/><path d="M42.15024,279.9343c-0.60942,5.78009 -5.45445,10.00702 -10.82167,9.44113c-5.36722,-0.56589 -9.22417,-5.7103 -8.61477,-11.49041c0.60942,-5.78009 5.45445,-10.00702 10.82167,-9.44113c5.36722,0.56589 9.22417,5.7103 8.61477,11.49041z" fill="url(#color-39)"/></g><path d="M87.42357,466.29314l5.13871,-48.73835l30.31834,3.1966l-5.13871,48.73835z" fill="url(#color-40)"/><path d="M88.33568,435.60882l0.89955,-8.53185l34.91337,3.68108l-0.89955,8.53185z" fill="url(#color-41)"/><path d="M87.06393,447.67079l0.89955,-8.53185l34.91337,3.68108l-0.89955,8.53185z" fill="url(#color-42)"/></g></g><g stroke-width="0"><path d="M44.36724,253.74795c12.96097,6.41028 18.34892,21.95696 12.03433,34.72449c-3.09295,6.25365 -12.64377,-3.65392 -24.19685,-9.20923c-12.0338,-5.78648 -25.96063,-7.49055 -22.73899,-14.00443c6.31459,-12.76753 21.94054,-17.92109 34.90152,-11.51084z" fill="url(#color-43)" stroke="none"/><path d="M237.6856,289.32102c1.79233,7.04251 -12.18367,5.80467 -25.15962,8.95425c-12.45761,3.02376 -23.86467,10.72165 -25.58538,3.96046c-3.51306,-13.80369 4.99868,-27.88488 19.01153,-31.45117c14.01285,-3.5663 28.22042,4.73277 31.73348,18.53647z" data-paper-data="{&quot;index&quot;:null}" fill="url(#color-44)" stroke="none"/><path d="M176.14193,438.57291c-9.47734,30.76455 -135.19264,19.56593 -137.44402,-17.15375c-0.64864,0.94022 11.81916,-34.34705 13.58148,-68.13072c1.76232,-33.78369 -21.13328,-112.71204 69.91158,-104.54601c102.89131,7.82022 58.64724,82.86761 53.95753,120.22495c-4.87215,38.81065 0.80111,70.03788 -0.00658,69.60554z" data-paper-data="{&quot;index&quot;:null}" fill="url(#color-45)" stroke="#000000"/><path d="M166.40665,428.84145c-8.00934,25.9993 -114.25193,16.53526 -116.15457,-14.49672c-1.60468,-1.35362 11.96974,-39.11675 13.45908,-67.66751c1.48936,-28.55076 -18.37058,-85.71476 58.57188,-78.81359c72.83743,6.53299 53.43576,48.03141 45.49065,90.58618c-6.4817,34.71665 -0.02392,67.50682 -1.36706,70.39167z" data-paper-data="{&quot;index&quot;:null}" fill="url(#color-46)" stroke="#000000"/></g><g><path d="M149.17097,187.25453c41.30473,15.17438 73.97212,48.74048 59.82476,68.208c-26.08873,35.89948 -48.44822,28.43111 -89.75295,13.25674c-41.30473,-15.17438 -64.15855,-31.12911 -59.82472,-68.208c2.79067,-23.876 48.44822,-28.43111 89.75292,-13.25676z" fill="url(#color-47)" stroke="#000000" stroke-width="0"/><g><g fill="url(#color-48)" stroke="#000000" stroke-width="0"><path d="M132.16314,233.59718c33.09421,12.15803 60.72793,35.07798 51.06253,46.13062c-17.82364,20.38184 -35.68803,14.26054 -68.78223,2.10254c-33.09421,-12.15803 -51.91689,-23.54839 -51.06253,-46.13062c0.55015,-14.54125 35.68801,-14.26055 68.78223,-2.10254z"/></g><g fill="none" stroke="none" stroke-width="1" font-family="sans-serif" font-weight="normal" font-size="12" text-anchor="start"/></g><path d="M148.7962,187.35785c31.98988,11.75233 60.41994,42.24378 48.22448,60.6923c-4.37887,6.6241 -12.77556,10.19545 -16.91105,14.05741c-17.10367,15.97246 -16.13696,19.90291 -60.16677,3.78917c-46.17786,-16.89989 -39.51564,-21.86545 -43.13658,-41.4955c-1.08447,-5.87916 -6.21337,-14.51236 -4.99228,-22.34905c3.41169,-21.89511 44.99227,-26.44671 76.98218,-14.69437z" fill="url(#color-49)" stroke="#000000" stroke-width="0"/><path d="M131.93879,202.00516l0.76877,-2.09259l19.82019,7.28146l-0.76877,2.09259z" fill="url(#color-50)" stroke="none" stroke-width="0"/><g stroke="none" stroke-width="0"><path d="M129.73556,214.98291c0.08285,-0.22553 5.19708,-14.04757 5.19708,-14.04757l15.13532,5.55281c0,0 -5.01152,13.79927 -5.11641,14.08478c-1.46959,4.0002 -5.20078,3.63344 -9.40257,2.08982c-4.20179,-1.54362 -7.28302,-3.67961 -5.81344,-7.6798z" fill="url(#color-51)"/><path d="M130.22283,213.65658c0.08285,-0.22553 5.19708,-14.04757 5.19708,-14.04757l15.13532,5.55281c0,0 -5.01152,13.79927 -5.11641,14.08478c-1.46959,4.0002 -5.20078,3.63344 -9.40257,2.08982c-4.20179,-1.54362 -7.28302,-3.67961 -5.81344,-7.6798z" fill="url(#color-52)"/></g></g><g><path d="M119.83901,112.36945l1.94646,-5.29827l99.17045,36.43285l-1.94646,5.29827z" data-paper-data="{&quot;index&quot;:null}" fill="url(#color-53)" stroke="none" stroke-width="0"/><path d="M101.78434,161.03506l21.48677,-58.48713l4.9734,1.82711l-21.48677,58.48713z" fill="url(#color-54)" stroke="none" stroke-width="0"/><path d="M196.13656,195.69782l21.48677,-58.48713l4.9734,1.82711l-21.48677,58.48713z" data-paper-data="{&quot;index&quot;:null}" fill="url(#color-55)" stroke="none" stroke-width="0"/><path d="M155.00182,172.50842l-0.41623,0.69456c0.07843,1.62885 -0.06981,3.2699 -0.31527,4.88204c-0.06583,0.48051 -0.05808,0.95542 0.00327,1.42627c0.04455,0.1753 0.07629,0.35237 0.09137,0.53176c0.41119,1.94362 1.61718,3.82691 2.18827,5.75849c0.47418,1.60375 -0.66106,4.82451 -0.29013,6.67396c0.19591,0.97685 2.43754,2.6967 2.61301,3.03565c2.31819,4.47752 -2.45869,5.05761 -1.56225,8.65507c0.78776,3.16138 12.55778,-0.15102 14.12334,-0.60154c7.15194,-5.34124 1.58753,-8.75136 5.00474,-15.80615c1.77263,-3.65959 8.99682,-6.46128 9.19535,-10.79117c0.09159,-1.99749 -0.94385,-4.81422 -1.35913,-6.79354c0,0 -0.38345,-1.83015 1.4467,-2.21361c1.83015,-0.38345 2.21361,1.4467 2.21361,1.4467c0.45805,2.18904 1.65238,5.63266 1.42872,7.83236c-0.60069,5.90754 -7.19289,7.61847 -9.59872,12.22814c-1.5016,2.87709 0.35007,6.22003 0.05524,9.34463c-0.40264,4.26776 -3.59597,5.8603 -6.72264,8.10189c-4.5681,1.41626 -12.57347,3.95471 -17.11251,0.82452c-4.50664,-3.10788 -1.10431,-5.95731 0.01568,-9.46305c0.26046,-0.81535 -3.07284,-3.77434 -3.33917,-4.78001c-0.45766,-1.72812 0.70484,-5.33622 0.27765,-6.71916c-0.19548,-0.63286 -0.41622,-1.18439 -0.64352,-1.68999c-2.06484,1.61221 -5.20549,1.51733 -7.38359,4.21912c-2.44143,3.02845 -0.18312,8.91695 -4.74082,10.75909c-2.1979,0.88836 -4.32581,-0.45346 -6.38681,-0.75735c-7.81575,-1.15245 -11.34294,-2.44705 -13.52584,-10.70649c0.12482,-1.32802 0.76984,-2.67072 0.48002,-3.97273c-0.72197,-3.24344 -5.16789,-3.74973 -4.98186,-7.74908c0.1864,-4.00782 5.69597,-7.4412 7.64257,-10.58543c1.40005,-2.26143 0.16244,-3.50853 0.28454,-5.76929c0.17556,-3.25033 3.08723,-7.1321 4.88906,-9.67326c0,0 1.08392,-1.52367 2.60758,-0.43975c1.52367,1.08392 0.43975,2.60758 0.43975,2.60758c-1.23196,1.7256 -4.2133,5.43113 -4.19993,7.66227c0.01645,2.74776 0.8611,4.67539 -0.76258,7.44774c-1.52416,2.60242 -6.67895,5.9502 -7.16964,9.00009c-0.18003,1.11899 2.78332,2.91354 3.26409,3.61023c2.01711,2.92303 1.63816,4.36428 1.23402,7.56079c1.91164,6.55417 4.30182,6.43819 10.32508,7.30492c1.48544,0.21376 2.94335,1.44258 4.38438,1.02345c1.56169,-0.45421 2.22282,-8.30663 3.31124,-9.67773c1.93229,-2.43409 6.31089,-2.392 7.91194,-4.47253c1.38248,-1.79651 -0.25041,-3.82281 -0.76212,-5.69778c-0.07838,-1.86647 0.33346,-3.76102 0.95659,-5.52215l0.8007,-1.27715c0,0 1.05126,-1.54641 2.59767,-0.49515c0.34874,0.23707 0.56537,0.49933 0.69173,0.76336c1.35775,0.72718 0.79483,2.25945 0.79483,2.25945z" fill="url(#color-56)" stroke="none" stroke-width="0.5"/><path d="M107.05992,131.63285l2.53094,-6.88921l108.51286,39.86503l-2.53094,6.88921z" fill="url(#color-57)" stroke="none" stroke-width="0"/><g stroke="#000000" stroke-width="0"><path d="M157.05185,146.20583c-4.65852,12.6805 -18.45757,19.27803 -30.82106,14.73598c-12.36349,-4.54206 -18.60963,-18.50367 -13.95109,-31.18419c4.65852,-12.6805 18.45757,-19.27803 30.82106,-14.73598c12.36349,4.54206 18.60963,18.50367 13.95109,31.18419z" fill="url(#color-58)"/><g><path d="M132.03029,145.15552c-3.86291,-1.41914 -5.81448,-5.78137 -4.35896,-9.74333c1.45553,-3.96196 5.76698,-6.02329 9.62988,-4.60417c3.86291,1.41914 5.81448,5.78137 4.35896,9.74333c-1.45553,3.96196 -5.76698,6.02329 -9.62988,4.60417z" fill="#f500ff"/><path d="M132.47089,143.95623c-3.21714,-1.18191 -4.84243,-4.81483 -3.63023,-8.11446c1.21219,-3.29959 4.80286,-5.01636 8.01997,-3.83445c3.21714,1.18191 4.84243,4.81483 3.63023,8.11446c-1.21219,3.29959 -4.80286,5.01636 -8.01997,3.83445z" fill="#000000"/></g></g><g stroke="#000000" stroke-width="0"><path d="M212.8279,166.69662c-4.65852,12.6805 -18.45757,19.27803 -30.82106,14.73598c-12.36349,-4.54206 -18.60963,-18.50367 -13.95109,-31.18419c4.65852,-12.6805 18.45757,-19.27803 30.82106,-14.73598c12.36349,4.54206 18.60963,18.50367 13.95109,31.18419z" fill="url(#color-59)"/><g><path d="M187.80635,165.6463c-3.86291,-1.41914 -5.81448,-5.78137 -4.35896,-9.74333c1.45553,-3.96196 5.76698,-6.02329 9.62988,-4.60417c3.86291,1.41914 5.81448,5.78137 4.35896,9.74333c-1.45553,3.96196 -5.76698,6.02329 -9.62988,4.60417z" fill="#f500ff"/><path d="M188.24694,164.44703c-3.21714,-1.18191 -4.84243,-4.81483 -3.63023,-8.11446c1.21219,-3.29959 4.80286,-5.01636 8.01997,-3.83445c3.21714,1.18191 4.84243,4.81483 3.63023,8.11446c-1.21219,3.29959 -4.80286,5.01636 -8.01997,3.83445z" fill="#000000"/></g></g><path d="M145.75729,180.41688l22.22771,-59.54955l8.27284,3.24182l-22.22771,59.54955z" fill="url(#color-60)" stroke="none" stroke-width="0"/><path d="M147.33401,220.59528l13.53809,-36.85076l4.80663,1.76583l-13.53809,36.85076z" fill="url(#color-61)" stroke="none" stroke-width="0"/><path d="M123.30091,211.76609l13.53809,-36.85076l4.80663,1.76583l-13.53809,36.85076z" fill="url(#color-62)" stroke="none" stroke-width="0"/><path d="M112.91471,125.29351l-12.05228,32.04801l103.41094,38.2719l12.22896,-32.25321l6.72972,2.58924l-15.1169,39.86578l-116.67294,-43.44339l14.85167,-39.60344z" fill="url(#color-63)" stroke="none" stroke-width="0"/></g><g stroke-width="0"><g><path d="M123.99749,103.65571l-21.09905,-46.06588l3.71924,-1.72167l21.09901,46.06588z" fill="url(#color-64)" stroke="none"/><g stroke="#000000"><g fill="url(#color-65)"><path d="M124.73818,47.55425c0.35161,0.75256 10.18905,15.77028 -11.61827,25.8068c-21.5108,9.90003 -25.45136,-3.86825 -27.26511,-7.50735c-7.8696,-15.78955 -3.39519,-58.11556 -3.39519,-58.11556c0,0 34.81089,23.83259 42.27856,39.81614z"/></g><g fill="url(#color-66)"><path d="M119.1338,48.68107c0.26754,0.57269 7.75356,12.0007 -8.84115,19.63822c-16.36906,7.53363 -19.36776,-2.94365 -20.74793,-5.71286c-5.98854,-12.01537 -3.43299,-46.08189 -3.43299,-46.08189c0,0 27.33945,19.9935 33.0221,32.1565z"/></g></g></g><path d="M129.62084,104.3162c-0.74672,2.03259 -2.99979,3.07497 -5.03237,2.32825c-2.03259,-0.74672 -3.07497,-2.99979 -2.32825,-5.03237c0.74672,-2.03259 2.99979,-3.07497 5.03237,-2.32825c2.03259,0.74672 3.07497,2.99979 2.32825,5.03237z" fill="url(#color-67)" stroke="none"/></g><g data-paper-data="{&quot;index&quot;:null}" stroke-width="0"><g><path d="M219.60589,135.69193l45.90307,-21.45091l1.72011,3.71995l-45.90308,21.45091z" fill="url(#color-68)" stroke="none"/><g stroke="#000000"><g fill="url(#color-69)"><path d="M257.08033,96.17362c16.03902,-7.34776 57.9995,-2.97639 57.9995,-2.97639c0,0 -23.9907,35.15617 -40.21048,42.09588c-3.73824,1.59942 -15.65491,9.54215 -25.6407,-11.92897c-10.12343,-21.7671 7.0965,-26.84461 7.85168,-27.19056z"/></g><g fill="url(#color-70)"><path d="M260.62231,100.66054c12.20522,-5.59142 45.98586,-3.13086 45.98586,-3.13086c0,0 -20.10618,27.61883 -32.44894,32.89973c-2.84464,1.2171 -11.91291,7.26126 -19.51179,-9.07761c-7.70362,-16.56413 5.40025,-20.4279 5.9749,-20.6912z"/></g></g></g><path d="M221.64477,133.94657c2.03259,0.74672 3.07497,2.99979 2.32825,5.03237c-0.74672,2.03259 -2.99979,3.07497 -5.03237,2.32825c-2.03259,-0.74672 -3.07497,-2.99979 -2.32825,-5.03237c0.74672,-2.03259 2.99979,-3.07497 5.03237,-2.32825z" fill="url(#color-71)" stroke="none"/></g><g stroke-width="0"><g><path d="M214.31191,234.78559l-147.23237,-55.10483c0,0 -6.89245,-32.57972 11.99224,-57.28626c22.36371,-29.25809 25.50854,-64.40886 106.59194,-34.5134c79.30585,29.28565 56.28227,55.12436 56.45904,91.93699c0.17402,36.23568 -27.81083,54.96747 -27.81083,54.96747zM124.39741,164.79361c12.92484,4.74828 27.2518,-1.88016 32.00007,-14.805c11.05315,-30.08671 3.70826,-42.46346 -9.2166,-47.21173c-12.92484,-4.74828 -29.77518,2.72387 -37.58848,30.01668c-3.78964,13.23772 1.88016,27.2518 14.805,32.00007zM180.77071,184.86361c12.92484,4.74828 27.20562,-2.95953 31.95392,-15.88439c4.74828,-12.92484 12.4388,-37.30824 -9.45703,-45.35225c-21.50578,-7.90071 -31.4296,15.6622 -36.17789,28.58707c-4.74828,12.92484 0.75616,27.90131 13.681,32.64958z" fill="url(#color-72)" stroke="none"/><g><g stroke="#000000"><path d="M105.2415,181.00353c-3.96411,6.1819 -24.73723,-2.43605 -47.72621,-17.17763c-22.98897,-14.74155 -36.9925,-53.93104 -36.9925,-53.93104c0,0 24.59061,22.67932 47.57958,37.42086c0,0 41.10327,27.50588 37.13915,33.68778z" fill="url(#color-73)"/><path d="M105.52711,185.01645c-3.13858,6.63925 -24.84539,0.75649 -49.53509,-10.91512c-24.68968,-11.67159 -43.60345,-48.74159 -43.60345,-48.74159c0,0 27.29604,19.33841 51.98576,31.01c0,0 44.29139,22.00744 41.15281,28.6467z" fill="url(#color-74)"/><path d="M103.78721,185.42677c-2.05306,7.05091 -24.4157,4.6626 -50.63628,-2.97216c-26.22055,-7.63476 -50.74007,-41.26072 -50.74007,-41.26072c0,0 30.00262,14.79496 56.22317,22.42972c0,0 47.2062,14.75225 45.15315,21.80316z" fill="url(#color-75)"/><path d="M105.19648,189.1949c-1.13186,7.25598 -23.61611,7.75529 -50.59931,3.54628c-26.98315,-4.20902 -55.61256,-34.41283 -55.61256,-34.41283c0,0 31.65225,10.8251 58.63541,15.03412c0,0 48.70831,8.57646 47.57647,15.83245z" fill="url(#color-76)"/><path d="M105.8449,184.84255c0.47668,7.32821 -21.35836,12.71557 -48.61024,14.4882c-27.25187,1.77263 -61.77551,-21.46597 -61.77551,-21.46597c0,0 33.25056,3.66693 60.50245,1.89429c0,0 49.40662,-2.24475 49.88331,5.08348z" fill="url(#color-77)"/></g><g data-paper-data="{&quot;index&quot;:null}" stroke="#000000"><path d="M232.40496,207.67659c27.06485,3.64702 60.48911,2.28096 60.48911,2.28096c0,0 -36.04349,20.80342 -63.10833,17.1564c-27.06486,-3.64703 -48.47657,-10.52675 -47.49585,-17.80469c0.98071,-7.27794 50.11506,-1.63269 50.11506,-1.63269z" fill="url(#color-78)"/><path d="M229.38491,216.99069c26.37365,7.08787 59.69711,10.01959 59.69711,10.01959c0,0 -38.41381,16.0092 -64.78746,8.92138c-26.37366,-7.08785 -46.72627,-16.65674 -44.8203,-23.7488c1.90597,-7.09209 49.91064,4.80783 49.91064,4.80783z" fill="url(#color-79)"/><path d="M229.06397,226.23549c24.92704,11.15565 57.37205,19.30245 57.37205,19.30245c0,0 -40.45675,9.75528 -65.3838,-1.4004c-24.92709,-11.15567 -43.51733,-23.81246 -40.5175,-30.51555c2.99982,-6.70308 48.52921,12.6135 48.52921,12.6135z" fill="url(#color-80)"/><path d="M223.53208,234.31457c23.29055,14.26032 54.42283,26.50078 54.42283,26.50078c0,0 -41.37373,4.48634 -64.66428,-9.77399c-23.29057,-14.26035 -40.10413,-29.19675 -36.26941,-35.45977c3.83471,-6.26302 46.51087,18.733 46.51087,18.733z" fill="url(#color-81)"/><path d="M220.6552,240.26355c19.62295,18.99332 47.3394,37.72422 47.3394,37.72422c0,0 -41.35701,-4.63814 -60.97997,-23.63146c-19.62298,-18.99334 -32.77731,-37.23492 -27.66986,-42.51167c5.10745,-5.27675 41.31044,28.41891 41.31044,28.41891z" fill="url(#color-82)"/></g><path d="M86.89761,163.93631c14.41251,-13.64743 27.71963,-15.92707 46.26562,-9.55252c9.81336,3.07018 21.15423,9.74194 18.80289,27.41022c-0.5753,4.32293 -3.7822,8.63851 -5.93259,14.49185c-7.45543,20.29374 -13.30729,36.23322 -13.30729,36.23322c0,0 -17.04192,-0.64698 -31.88254,-6.09905c-18.40763,-6.76253 -43.37646,-34.61563 -13.94608,-62.48369z" data-paper-data="{&quot;index&quot;:null}" fill="url(#color-83)" stroke="#000000"/><path d="M160.91722,248.48958c-14.96423,-5.4975 -28.83078,-15.90252 -28.83078,-15.90252c0,0 6.49926,-16.18385 13.89671,-36.31972c2.0895,-5.68767 3.74783,-10.44825 6.03649,-14.06632c9.69323,-15.32355 21.36676,-13.57896 30.89935,-9.53818c18.2619,7.1478 26.92839,17.50003 29.07811,37.23201c4.38971,40.29275 -32.67227,45.35723 -51.07987,38.59472z" fill="url(#color-84)" stroke="#000000"/><path d="M156.7531,166.0559c4.41599,1.62234 7.06561,5.46958 5.91812,8.59311c-1.14751,3.12351 -9.36113,14.42156 -13.77713,12.79922c-4.41601,-1.62233 -3.36208,-15.55068 -2.21459,-18.6742c1.14751,-3.12351 5.6576,-4.34046 10.0736,-2.71812z" fill="url(#color-85)" stroke="none"/></g></g><g stroke="#000000"><path d="M125.63424,86.39035c1.60001,7.98303 -6.24647,13.04669 -15.09546,18.06063c-21.05515,11.93007 -21.37205,10.07698 -21.37205,10.07698c0,0 3.35678,-6.58394 0.48241,-20.92525c-4.77968,-23.84766 -49.39888,-29.46243 15.09558,-18.06065c10.02837,1.77287 19.28958,2.86533 20.88959,10.8483z" fill="url(#color-86)"/><path d="M140.79252,68.31714c55.11909,-35.37543 16.10996,-12.99938 20.88964,10.84829c2.87437,14.34134 8.50911,19.12311 8.50911,19.12311c0,0 0.42174,1.83209 -23.60467,-1.06248c-10.09782,-1.21654 -19.28961,-2.86528 -20.88961,-10.84831c-1.60002,-7.98294 6.52489,-12.56001 15.09548,-18.06063z" data-paper-data="{&quot;index&quot;:null}" fill="url(#color-87)"/><path d="M140.27676,82.41789c1.63903,8.17771 -3.50382,16.10408 -11.48677,17.70406c-7.98302,1.60003 -15.78315,-3.73226 -17.42219,-11.90995c-1.63903,-8.17771 3.50384,-16.10409 11.48678,-17.70411c7.98302,-1.60003 15.78317,3.73233 17.42218,11.91z" fill="url(#color-88)"/></g></g></g></g></svg>