<svg version="1.1" xmlns="http://www.w3.org/2000/svg" xmlns:xlink="http://www.w3.org/1999/xlink" width="489.06868" height="917.9256" viewBox="0,0,489.06868,917.9256"><defs><linearGradient x1="29.26777" y1="455.31178" x2="29.26777" y2="595.82916" gradientUnits="userSpaceOnUse" id="color-1"><stop offset="0" stop-color="#c5c5c5"/><stop offset="1" stop-color="#5d5d5d"/></linearGradient><linearGradient x1="239.64077" y1="325.083" x2="239.64077" y2="540.53985" gradientUnits="userSpaceOnUse" id="color-2"><stop offset="0" stop-color="#a3a3a3"/><stop offset="1" stop-color="#5d5d5d"/></linearGradient><linearGradient x1="240.4369" y1="455.34687" x2="240.4369" y2="720.41878" gradientUnits="userSpaceOnUse" id="color-3"><stop offset="0" stop-color="#c5c5c5"/><stop offset="1" stop-color="#5d5d5d"/></linearGradient><linearGradient x1="249.23118" y1="441.57344" x2="249.23118" y2="893.21599" gradientUnits="userSpaceOnUse" id="color-4"><stop offset="0" stop-color="#c5c5c5"/><stop offset="1" stop-color="#5d5d5d"/></linearGradient><linearGradient x1="250.52524" y1="423.75153" x2="250.52524" y2="950.89032" gradientUnits="userSpaceOnUse" id="color-5"><stop offset="0" stop-color="#c5c5c5"/><stop offset="1" stop-color="#5d5d5d"/></linearGradient><linearGradient x1="241.18753" y1="440.14728" x2="241.18753" y2="880.08174" gradientUnits="userSpaceOnUse" id="color-6"><stop offset="0" stop-color="#c0c0c0"/><stop offset="1" stop-color="#9f9f9f"/></linearGradient><linearGradient x1="138.57057" y1="473.9242" x2="138.57057" y2="548.61373" gradientUnits="userSpaceOnUse" id="color-7"><stop offset="0" stop-color="#c0c0c0"/><stop offset="1" stop-color="#838383"/></linearGradient><linearGradient x1="138.57057" y1="520.42911" x2="138.57057" y2="595.11862" gradientUnits="userSpaceOnUse" id="color-8"><stop offset="0" stop-color="#c0c0c0"/><stop offset="1" stop-color="#838383"/></linearGradient><linearGradient x1="138.57057" y1="565.52456" x2="138.57057" y2="640.21415" gradientUnits="userSpaceOnUse" id="color-9"><stop offset="0" stop-color="#c0c0c0"/><stop offset="1" stop-color="#838383"/></linearGradient><linearGradient x1="143.07415" y1="608.65173" x2="143.07415" y2="683.34127" gradientUnits="userSpaceOnUse" id="color-10"><stop offset="0" stop-color="#c0c0c0"/><stop offset="1" stop-color="#838383"/></linearGradient><linearGradient x1="154.3331" y1="662.2479" x2="154.3331" y2="723.51519" gradientUnits="userSpaceOnUse" id="color-11"><stop offset="0" stop-color="#c0c0c0"/><stop offset="1" stop-color="#838383"/></linearGradient><linearGradient x1="344.2345" y1="473.9242" x2="344.2345" y2="548.61373" gradientUnits="userSpaceOnUse" id="color-12"><stop offset="0" stop-color="#c0c0c0"/><stop offset="1" stop-color="#838383"/></linearGradient><linearGradient x1="344.2345" y1="520.42911" x2="344.2345" y2="595.11862" gradientUnits="userSpaceOnUse" id="color-13"><stop offset="0" stop-color="#c0c0c0"/><stop offset="1" stop-color="#838383"/></linearGradient><linearGradient x1="344.2345" y1="565.52456" x2="344.2345" y2="640.21415" gradientUnits="userSpaceOnUse" id="color-14"><stop offset="0" stop-color="#c0c0c0"/><stop offset="1" stop-color="#838383"/></linearGradient><linearGradient x1="339.73095" y1="608.65173" x2="339.73095" y2="683.34127" gradientUnits="userSpaceOnUse" id="color-15"><stop offset="0" stop-color="#c0c0c0"/><stop offset="1" stop-color="#838383"/></linearGradient><linearGradient x1="328.47192" y1="662.2479" x2="328.47192" y2="723.51519" gradientUnits="userSpaceOnUse" id="color-16"><stop offset="0" stop-color="#c0c0c0"/><stop offset="1" stop-color="#838383"/></linearGradient><linearGradient x1="241.18753" y1="440.14728" x2="241.18753" y2="466.04292" gradientUnits="userSpaceOnUse" id="color-17"><stop offset="0" stop-color="#c0c0c0"/><stop offset="1" stop-color="#9f9f9f"/></linearGradient><linearGradient x1="195.23984" y1="831.50173" x2="287.13534" y2="831.50173" gradientUnits="userSpaceOnUse" id="color-18"><stop offset="0" stop-color="#7b7b7b"/><stop offset="1" stop-color="#b9b9b9"/></linearGradient><radialGradient cx="472.37182" cy="445.96445" r="24.98435" gradientUnits="userSpaceOnUse" id="color-19"><stop offset="0" stop-color="#a7a7a7"/><stop offset="1" stop-color="#7a7a7a"/></radialGradient><radialGradient cx="29.51873" cy="444.46324" r="24.98435" gradientUnits="userSpaceOnUse" id="color-20"><stop offset="0" stop-color="#a7a7a7"/><stop offset="1" stop-color="#7a7a7a"/></radialGradient><linearGradient x1="321.64289" y1="297.4285" x2="321.2904" y2="394.88348" gradientUnits="userSpaceOnUse" id="color-21"><stop offset="0" stop-color="#c5c5c5"/><stop offset="1" stop-color="#5d5d5d"/></linearGradient><linearGradient x1="111.36374" y1="23.64584" x2="111.15706" y2="80.78925" gradientUnits="userSpaceOnUse" id="color-22"><stop offset="0" stop-color="#c5c5c5"/><stop offset="1" stop-color="#5d5d5d"/></linearGradient><linearGradient x1="333.40975" y1="58.20989" x2="333.25541" y2="100.88607" gradientUnits="userSpaceOnUse" id="color-23"><stop offset="0" stop-color="#c5c5c5"/><stop offset="1" stop-color="#5d5d5d"/></linearGradient><linearGradient x1="229.93289" y1="64.94594" x2="228.83571" y2="368.29849" gradientUnits="userSpaceOnUse" id="color-24"><stop offset="0" stop-color="#a3a3a3"/><stop offset="1" stop-color="#1a1a1a"/></linearGradient><linearGradient x1="232.87098" y1="1.08576" x2="231.49285" y2="382.12121" gradientUnits="userSpaceOnUse" id="color-25"><stop offset="0" stop-color="#c5c5c5"/><stop offset="1" stop-color="#5d5d5d"/></linearGradient><linearGradient x1="221.64807" y1="23.81164" x2="220.44878" y2="355.39777" gradientUnits="userSpaceOnUse" id="color-26"><stop offset="0" stop-color="#b9b9b9"/><stop offset="1" stop-color="#5c5c5c"/></linearGradient><linearGradient x1="229.50088" y1="357.84988" x2="230.79629" y2="-0.30821" gradientUnits="userSpaceOnUse" id="color-27"><stop offset="0" stop-color="#5d5d5d"/><stop offset="1" stop-color="#a1a1a1"/></linearGradient><linearGradient x1="229.50088" y1="357.84988" x2="230.79629" y2="-0.30821" gradientUnits="userSpaceOnUse" id="color-28"><stop offset="0" stop-color="#c5c5c5"/><stop offset="1" stop-color="#5d5d5d"/></linearGradient><linearGradient x1="232.87098" y1="1.08576" x2="231.49285" y2="382.12121" gradientUnits="userSpaceOnUse" id="color-29"><stop offset="0" stop-color="#c5c5c5"/><stop offset="1" stop-color="#5d5d5d"/></linearGradient><linearGradient x1="175.77267" y1="188.64138" x2="181.59601" y2="188.66245" gradientUnits="userSpaceOnUse" id="color-30"><stop offset="0" stop-color="#cdcdcd"/><stop offset="1" stop-color="#444444"/></linearGradient><linearGradient x1="282.85756" y1="189.02868" x2="288.68094" y2="189.04975" gradientUnits="userSpaceOnUse" id="color-31"><stop offset="0" stop-color="#cdcdcd"/><stop offset="1" stop-color="#444444"/></linearGradient><linearGradient x1="232.65373" y1="161.37119" x2="232.61676" y2="171.59248" gradientUnits="userSpaceOnUse" id="color-32"><stop offset="0" stop-color="#cdcdcd"/><stop offset="1" stop-color="#444444"/></linearGradient><radialGradient cx="285.80212" cy="167.45307" r="25.18914" gradientUnits="userSpaceOnUse" id="color-33"><stop offset="0" stop-color="#ffffff"/><stop offset="1" stop-color="#939393"/></radialGradient><radialGradient cx="291.89146" cy="155.6428" r="25.18914" gradientUnits="userSpaceOnUse" id="color-34"><stop offset="0" stop-color="#b9b097"/><stop offset="1" stop-color="#827c69"/></radialGradient><linearGradient x1="231.2423" y1="274.44594" x2="231.22224" y2="279.99658" gradientUnits="userSpaceOnUse" id="color-35"><stop offset="0" stop-color="#a0a0a0"/><stop offset="1" stop-color="#696969"/></linearGradient><linearGradient x1="249.32079" y1="219.36884" x2="249.09604" y2="281.51057" gradientUnits="userSpaceOnUse" id="color-36"><stop offset="0" stop-color="#cdcdcd"/><stop offset="1" stop-color="#444444"/></linearGradient><linearGradient x1="214.42684" y1="219.03164" x2="214.20208" y2="281.1733" gradientUnits="userSpaceOnUse" id="color-37"><stop offset="0" stop-color="#cdcdcd"/><stop offset="1" stop-color="#444444"/></linearGradient><linearGradient x1="231.70727" y1="272.49319" x2="231.51849" y2="324.68701" gradientUnits="userSpaceOnUse" id="color-38"><stop offset="0" stop-color="#6e6e6e"/><stop offset="1" stop-color="#969696"/></linearGradient><linearGradient x1="236.47101" y1="186.85051" x2="236.32533" y2="227.1285" gradientUnits="userSpaceOnUse" id="color-39"><stop offset="0" stop-color="#cdcdcd"/><stop offset="1" stop-color="#444444"/></linearGradient><linearGradient x1="180.40313" y1="155.63676" x2="180.066" y2="248.84811" gradientUnits="userSpaceOnUse" id="color-40"><stop offset="0" stop-color="#c5c5c5"/><stop offset="1" stop-color="#5d5d5d"/></linearGradient><linearGradient x1="178.88357" y1="156.94136" x2="178.55828" y2="246.88569" gradientUnits="userSpaceOnUse" id="color-41"><stop offset="0" stop-color="#c5c5c5"/><stop offset="1" stop-color="#5d5d5d"/></linearGradient><radialGradient cx="172.90847" cy="252.45496" r="25.18914" gradientUnits="userSpaceOnUse" id="color-42"><stop offset="0" stop-color="#ffffff"/><stop offset="1" stop-color="#939393"/></radialGradient><radialGradient cx="185.13008" cy="155.25667" r="25.18914" gradientUnits="userSpaceOnUse" id="color-43"><stop offset="0" stop-color="#b9b097"/><stop offset="1" stop-color="#827c69"/></radialGradient><linearGradient x1="222.75595" y1="11.50185" x2="221.87657" y2="254.64179" gradientUnits="userSpaceOnUse" id="color-44"><stop offset="0" stop-color="#afafaf"/><stop offset="1" stop-color="#515151"/></linearGradient><linearGradient x1="226.19313" y1="106.39268" x2="225.64175" y2="258.83996" gradientUnits="userSpaceOnUse" id="color-45"><stop offset="0" stop-color="#afafaf"/><stop offset="1" stop-color="#4b4b4b"/></linearGradient><linearGradient x1="232.87098" y1="1.08576" x2="231.49285" y2="382.12121" gradientUnits="userSpaceOnUse" id="color-46"><stop offset="0" stop-color="#c5c5c5"/><stop offset="1" stop-color="#5d5d5d"/></linearGradient><radialGradient cx="285.60585" cy="168.82536" r="38.82642" gradientUnits="userSpaceOnUse" id="color-47"><stop offset="0" stop-color="#ff0000"/><stop offset="1" stop-color="#ff0000" stop-opacity="0"/></radialGradient></defs><g transform="translate(3.34687,0.31204)"><g data-paper-data="{&quot;isPaintingLayer&quot;:true}" fill-rule="nonzero" stroke-linecap="butt" stroke-linejoin="miter" stroke-miterlimit="10" stroke-dasharray="" stroke-dashoffset="0" style="mix-blend-mode: normal"><path d="M29.13781,586.25319c0.67436,0.76908 3.37679,4.2879 -0.14205,7.8068c-3.9806,3.9806 -7.96129,0 -7.96129,0l-3.15,-5.4818c0,-4.43459 0.05918,-8.86925 0.15057,-13.30297c5.22686,-10.83264 18.83838,-37.71295 11.08844,-49.97606c-5.4482,-8.62098 -13.81465,-16.22747 -12.69809,-27.48063c0.67382,-6.79168 17.71366,-28.91709 6.07214,-31.80697c0,0 -5.03512,-2.51756 -2.51762,-7.55274c2.51756,-5.03512 7.55274,-2.51762 7.55274,-2.51762c8.84169,5.42513 13.12077,17.21681 8.6882,28.20618c-1.92714,4.77775 -12.05392,11.44745 -8.86757,18.58345c2.70093,6.04882 8.55207,11.36818 11.56777,17.02099c8.87399,16.63391 -2.17186,43.22222 -9.92826,58.11011c0.08937,2.79605 0.1311,5.59366 0.14497,8.39123z" fill="url(#color-1)" stroke="none" stroke-width="0.5"/><g stroke="none"><g><path d="M250.19468,341.63123h3.00241c13.61907,0 19.7132,1.08269 23.60166,15.45003c0.06041,9.59218 0.58732,20.22206 2.894,29.41835c1.49056,5.94256 6.20305,12.00371 7.506,18.01437c0.01351,0.06249 0.02697,0.12532 0.04023,0.18847c0.00712,-0.00058 0.01419,-0.00117 0.02135,-0.00179c7.85732,-0.65479 18.3943,-3.65406 26.26366,-1.2315c9.91795,3.05324 16.01221,16.02656 25.52035,19.51551c3.4388,1.26187 7.36358,0.36609 10.9172,1.25446c18.03805,-0.14306 44.69173,-4.94025 61.31318,1.80867c2.88286,1.17054 6.10757,2.16245 8.19428,4.47048c2.03041,2.24573 4.31401,15.09205 8.52005,16.62516c7.43123,2.70875 20.08053,-3.38184 27.86961,-3.43094c0,0 5.62947,0 5.62947,5.62947c0,4.44533 -3.51018,5.38035 -4.98699,5.5771c-1.27731,2.69597 -4.58594,3.02685 -4.58594,3.02685c-14.2789,1.4259 -29.36822,2.94225 -43.1652,7.11201c-19.92218,6.02094 -32.45678,26.7336 -51.69136,33.15935c-6.53939,2.1846 -18.93701,1.7901 -25.79935,1.7901c-4.94545,0 -11.77051,0.38627 -16.16709,-2.16731c-3.59034,-2.08536 -5.97677,-5.76499 -8.96516,-8.64749c-9.95538,-7.22629 -23.86333,-15.41457 -29.4903,-26.92283c-2.94156,-6.01614 -3.27768,-12.62341 -2.7007,-19.43389c-4.03955,-6.03517 -7.58478,-12.36814 -10.62574,-17.74177c-1.49118,-2.63506 -2.44943,-5.25079 -3.19797,-7.73423c-1.57432,0.03022 -3.15088,0.05203 -4.73051,0.06557c-0.30706,0.26503 -0.61805,0.52702 -0.93282,0.78597c-0.08378,0.28149 -0.17144,0.56176 -0.26319,0.84055c-0.31908,0.96946 -2.49218,1.60147 -1.87904,2.41742c0.90824,1.20875 3.30613,-0.03513 4.42945,0.97687c8.87865,7.99868 9.89535,17.88628 8.0407,29.17782c-1.93694,11.79279 -8.38764,15.32522 -12.38371,25.39263c-4.97356,12.52999 -4.07506,25.1712 -4.07506,38.378c0,5.00399 0,10.00799 0,15.01195v4.50361c0,0 0,5.62947 -5.62947,5.62947c-5.62947,0 -5.62947,-5.62947 -5.62947,-5.62947c0,-5.00399 0,-14.51154 0,-19.51551c0,-11.97476 -0.45722,-23.42831 2.38167,-34.79523c-5.40581,4.49928 -12.13044,8.05816 -17.13253,12.0691c-7.89446,6.33017 -9.29713,14.07233 -20.5885,16.24446c-16.8424,3.24004 -41.90164,-0.63559 -58.3409,-4.67511c-15.49353,-6.69617 -18.90811,-28.6558 -34.57567,-34.54337c-3.40736,-1.28041 -7.31334,0.75814 -10.9172,0.24672c-8.4822,-1.20373 -12.38188,-7.04479 -20.34463,-9.17326c-15.25308,-4.0772 -33.87003,-1.29299 -49.52379,-1.29299c0,0 -1.06302,0 -2.26519,-0.46195c-0.04922,0.0198 -0.09846,0.03961 -0.14763,0.0593c0,0 -5.22686,2.09075 -7.31757,-3.13612c-2.09075,-5.22686 3.13612,-7.31757 3.13612,-7.31757c13.39486,-5.34835 27.50211,-13.95294 42.06835,-15.3872c30.40089,-2.99353 61.95201,1.6605 92.12775,1.47381c13.17827,0 26.84732,1.07138 39.9776,0.02736c4.32211,-0.34369 7.80314,-3.78655 11.76772,-5.54186c6.69091,-2.96241 13.94173,-5.74624 20.99674,-8.98351c-1.06808,-1.53085 -2.15119,-3.02476 -3.2257,-4.47731c-4.79028,-3.84776 -12.21348,-4.66312 -15.63122,-9.76913c-4.26974,-6.37884 -1.17266,-11.65833 2.51593,-16.36304c-5.2873,-3.65843 -9.62346,-8.00547 -11.86708,-12.73983c-3.90821,-8.2471 -8.66689,-27.55525 -2.4706,-36.01698c2.98123,-4.07123 10.56351,-5.38539 15.11799,-6.54796l2.86649,-0.16804c0,0 5.62947,0 5.62947,5.62947c0,5.62947 -5.62947,5.62947 -5.62947,5.62947l-0.13581,-0.16804c-2.99075,0.72856 -7.19318,-0.10164 -8.90114,2.45924c-3.16846,4.7508 1.88673,19.91689 3.53417,24.03093c0.91747,2.29118 2.79307,4.5174 5.24705,6.57797c0.3629,-5.93011 1.56546,-11.32109 3.54139,-15.23362c3.84992,-2.6114 6.8165,-4.45168 9.68293,-5.89107c0.88109,-2.19381 1.78637,-4.3701 2.74327,-6.49836c-0.75796,-0.54254 -1.55231,-1.13462 -2.38736,-1.78772l-2.27277,-7.75338c0,0 -1.36537,-5.4614 4.09609,-6.82676c5.4614,-1.36537 6.82676,4.09609 6.82676,4.09609l0.10671,0.62267c3.38107,-4.89781 7.51561,-9.02586 12.93104,-11.79848l3.00241,-1.50119c0,0 5.03512,-2.51762 7.55274,2.51762c2.51762,5.03512 -2.51762,7.55274 -2.51762,7.55274l-3.00241,1.50119c-2.8471,1.37934 -4.87534,2.84246 -6.38548,4.43292c0.51992,-0.08559 0.86549,-0.08559 0.86549,-0.08559zM287.30712,435.01796c-0.198,1.82135 -0.57854,3.81888 -0.95916,5.89504c2.90219,3.89105 6.04947,7.42179 9.44926,10.08039c15.91291,12.44358 40.50345,7.73124 59.48122,7.73124c0,0 5.62947,0 5.62947,5.62947c0,5.62947 -5.62947,5.62947 -5.62947,5.62947c-22.52783,0 -47.70419,4.36865 -66.61934,-10.28313c-0.35244,-0.27303 -0.70253,-0.55389 -1.05042,-0.84229c5.54575,9.0738 17.73549,15.84217 25.83866,21.78023c29.27639,30.61312 64.27244,-17.81095 91.74828,-26.26347c3.95132,-1.21557 8.00522,-2.22215 12.11656,-3.07392c-3.12492,-5.68511 -3.9139,-12.7705 -9.94377,-14.69341c-16.92151,-5.39616 -40.87939,-1.08088 -58.78256,-1.19375c-4.27446,-1.06861 -8.98342,-0.18241 -13.10196,-1.74787c-9.40241,-3.57385 -16.26191,-16.85404 -25.52035,-19.51551c-5.89156,-1.69365 -15.94754,1.2646 -21.6912,1.7638c0.10963,6.68555 -0.39656,13.87257 -0.96529,19.10379zM268.73496,389.08645c-2.38274,-9.55638 -3.18944,-20.71266 -3.11082,-30.6295c-1.64933,-7.95379 -5.10555,-5.56671 -12.42704,-5.56671h-0.03584c2.13709,2.21744 4.17256,5.14952 6.47186,9.67596c4.49508,7.84188 7.37803,22.56673 5.7985,35.05421c1.41591,2.54877 2.31748,5.35797 3.09289,8.21914c2.42596,-0.09404 4.84973,-0.20807 7.27461,-0.3431c-1.734,-5.44803 -5.70705,-10.96696 -7.06416,-16.40997zM271.83512,416.97893c0.37578,0.88384 0.79513,1.74244 1.27268,2.56803c1.02419,1.77064 2.10618,3.67927 3.2469,5.66212c0.37664,-2.86587 0.66116,-5.70954 0.73104,-8.50292c-1.75022,0.10145 -3.50011,0.19237 -5.25061,0.27273zM229.9012,380.87662c-0.64277,1.5917 -1.40903,3.13002 -2.26166,4.62468c6.07873,2.60643 12.36941,4.20141 16.55039,4.16824c0.40034,0.00206 0.82881,-0.00153 1.28004,-0.00761c-0.08098,-8.9087 -0.97941,-17.84936 -3.58042,-25.49827c-0.83292,0.21989 -1.62225,0.43699 -2.38248,0.6605c-3.11017,5.41124 -7.14452,9.95736 -9.60581,16.05246zM94.98838,457.76979c5.35257,2.86769 11.93524,-0.79403 17.37518,1.2437c16.24058,6.0835 20.01071,29.50973 34.47937,34.51171c15.17311,3.88551 37.03034,6.36277 52.74771,4.3321c7.60034,-0.98196 10.01227,-9.35983 15.44022,-13.77943c5.94237,-4.83851 17.2016,-9.71618 21.36802,-16.67857c7.71655,-12.89497 4.42481,-25.85806 -1.91475,-37.44598c-7.74289,3.51169 -15.69722,6.46959 -22.52383,9.51605c-5.0434,2.2507 -9.76727,5.83651 -15.25383,6.46769c-13.30548,1.53082 -27.68626,0.02736 -41.08704,0.02736c-29.90463,-0.15393 -60.87816,-3.98418 -91.01829,-1.52859c-4.83211,0.39366 -9.69477,1.7912 -14.514,3.64562c15.49869,0.16192 29.94783,1.67698 44.90138,9.68843zM253.62681,450.06248c0.64232,-4.57897 1.86022,-9.52977 0.26292,-13.86896c-1.00933,-2.74198 -3.99119,-4.07678 -6.76779,-5.57498c3.60272,8.22102 5.6301,16.88093 4.69199,25.67693c0.83764,-1.848 1.48263,-3.87843 1.81285,-6.23302zM244.18991,400.92854c-3.91709,-0.02473 -8.60517,-0.86491 -13.4639,-2.36226c0.34294,0.91225 0.67618,1.79229 0.98894,2.6327c0.87544,2.35226 0.71777,5.58556 2.79746,6.99069c1.38804,0.9378 2.95639,-1.77646 4.61919,-1.97957c1.90534,-0.23269 3.82462,-0.24398 5.74749,-0.19489c0.11851,-1.66213 0.22654,-3.35834 0.31714,-5.0781c-0.32659,-0.00781 -0.66199,-0.01075 -1.00631,-0.00858z" fill="url(#color-2)" stroke-width="0.5"/><path d="M16.38324,463.97883c0,-5.62947 5.62947,-5.62947 5.62947,-5.62947c4.00318,0 9.50758,0 13.5108,0c43.42831,0.4571 77.7256,28.52933 111.37779,52.10328c16.58374,11.61722 27.36348,26.51455 48.76397,30.55479c30.54401,5.09067 67.16858,17.03598 98.66355,10.48887c19.35844,-4.02418 37.40966,-9.98532 55.23833,-18.89359c25.706,-15.25472 24.13882,-54.9383 50.97605,-70.52016c8.43766,-4.89895 18.68977,-2.79475 27.73927,-3.70573c7.84086,-0.78925 15.08289,-3.0061 23.07264,-3.0298c0,0 5.62947,0 5.62947,5.62947c0,1.56728 -0.43637,2.69825 -1.06608,3.51436c0.98881,-0.0846 1.97106,-0.1305 2.94262,-0.13669c0,0 5.62947,0 5.62947,5.62947c0,5.62947 -5.62947,5.62947 -5.62947,5.62947c-4.37612,-0.03475 -5.96053,-0.49384 -10.0564,1.15151c-2.64602,1.06291 -5.31863,2.17564 -7.66867,3.79069c-23.55569,16.1877 8.47537,41.64547 12.69566,58.69119c3.50867,14.17169 -4.51578,27.10785 -10.66246,39.14907c-2.30543,11.97473 -3.97908,24.40467 -2.7251,36.64942c1.27918,12.49091 7.15072,21.29358 5.99858,34.94596c-1.87871,22.26176 -16.59421,38.87279 -16.47954,61.68537l0.90691,0.4848c0,0 2.51756,5.03519 -2.51762,7.55274c-5.03519,2.51756 -7.55274,-2.51762 -7.55274,-2.51762l-2.09548,-5.51996c0.03436,-8.22233 1.08825,-18.88742 3.15298,-26.81372c3.25841,-12.50892 12.267,-22.36113 13.39383,-36.10017c1.04554,-12.7483 -4.6022,-20.6432 -6.01098,-32.60795c-1.62206,-13.77641 0.51276,-27.98205 3.27966,-41.41281c4.82543,-9.81421 13.28025,-21.37503 10.35428,-32.90838c-3.41164,-13.44771 -16.81105,-23.94503 -20.96308,-37.32061c-5.51,-17.75016 7.31075,-31.6949 22.5057,-37.38202c-5.00928,0.7073 -9.85882,1.93666 -15.02456,2.45026c-7.17101,0.71299 -16.56097,-1.44386 -23.30145,2.29907c-3.48635,1.93594 -4.89965,6.29903 -7.52802,9.29801c-17.15054,19.56931 -20.39349,47.25943 -43.57736,61.29423c-18.85408,9.43277 -38.26357,16.15615 -58.85267,20.13756c-33.16138,6.41248 -70.33603,-5.16778 -102.49683,-10.52791c-23.23498,-4.84844 -35.17511,-19.80671 -53.31742,-32.49549c-5.19639,-3.63436 -11.66572,-5.26283 -16.68598,-9.13689c-26.23251,-20.24315 -52.80553,-41.34414 -88.10849,-40.84118c-4.00318,0 -8.00637,0 -12.00954,0h-1.50119c0,0 -5.62947,0 -5.62947,-5.62947z" fill="url(#color-3)" stroke-width="0.5"/><path d="M271.54195,515.27699c-1.77543,-5.62891 -5.04757,-10.65174 -8.27761,-15.50854c-4.20512,-6.32303 -8.86979,-11.46159 -13.54694,-16.65538c-1.7718,0.60049 -3.56739,1.2292 -5.34242,1.90404c0.01035,0.43688 0.01771,0.7589 0.01809,0.93145c0.03192,14.54221 -0.54458,28.34824 4.92199,42.15445c2.91806,7.36974 9.01665,13.0897 11.6162,20.59085c2.09847,6.05516 3.59003,12.46234 4.14941,18.91313c7.93739,-15.86324 12.96111,-31.72236 6.46139,-52.32994zM225.74609,451.83948c0,-10.03204 9.51336,-10.03204 9.51336,-10.03204c4.66744,0.39564 10.00225,-1.37987 14.00229,1.187c1.16028,0.74455 2.23434,1.5933 3.24202,2.52262c1.65324,-0.83629 3.36712,-1.69644 5.13852,-2.65062c0,0 8.509,-4.48645 12.76344,4.48645c0.61049,1.28751 0.95815,2.48271 1.10591,3.58546c1.1576,-0.97162 2.31369,-1.94521 3.46886,-2.91989l-0.66337,-0.66556c0,0 4.25445,-8.97292 12.76344,-4.48645c8.509,4.48645 4.25445,13.45936 4.25445,13.45936l-4.46871,7.36008c-4.0076,3.38022 -8.04933,6.71696 -12.13291,9.99518c18.80717,22.52441 33.59199,54.11332 22.67395,84.10265c-7.21352,19.81392 -21.07404,36.98111 -28.55701,56.73998c8.64976,9.38963 17.12272,19.01739 21.17814,31.03659c3.15497,9.35048 0.40381,26.01981 0.36191,35.99819c-3.25352,17.37903 -8.65869,37.06355 -16.24015,54.84571c0.82657,2.39777 1.64644,4.77432 2.4528,7.1215c3.16999,9.22739 7.43254,19.00632 6.13097,28.72408c-2.51697,18.79286 -17.97025,29.40109 -21.00908,46.65307c-2.50345,14.21251 4.07431,31.52541 -0.3165,45.41625c-1.32089,4.17881 -4.74831,7.24833 -7.12248,10.87245l1.90271,-2.00638c0,0 0,2.39956 -1.11289,4.85162c0.94227,1.65943 1.45005,3.87763 0.98343,6.82969c-1.56397,9.89556 -10.94786,8.24629 -10.94786,8.24629c-4.73503,-0.99393 -10.02804,-0.42888 -14.20518,-2.98184c-20.84859,-12.74187 -23.40161,-47.75069 -20.31029,-70.33816c2.14917,-15.70325 8.84953,-27.31809 13.67555,-41.878c1.38457,-4.17706 0.72409,-9.27173 3.21154,-12.83538c2.94014,-4.21207 7.98477,-6.29849 12.18074,-9.22097c0.65529,-23.6151 -1.01523,-47.17718 -0.31434,-70.65266c-2.06483,-14.07208 -2.18741,-28.16196 -2.18741,-42.75752c0.03052,-10.23741 0.88903,-20.99136 3.14119,-31.28907c-1.95041,-2.35974 -3.74667,-4.75466 -5.30127,-7.2127c-13.11205,-20.73266 -18.62707,-45.93866 -22.44518,-70.20139c-2.52371,-16.03764 -4.39791,-35.70332 5.63832,-49.88625c3.46346,-4.89445 8.19318,-8.53357 13.46157,-11.46173c0.31378,-3.80764 1.00998,-7.51273 2.5083,-10.62028c-2.5006,-0.35316 -8.41902,-2.02479 -8.41902,-9.93741zM255.6532,652.28257c-1.98088,10.45128 -2.96685,20.94759 -3.40279,31.47413c0.7448,4.59226 1.74739,9.18349 3.09725,13.79095c0.93433,3.18921 1.92184,6.41651 2.94621,9.66275c2.98253,-9.35133 5.36196,-18.75484 7.07491,-27.62876c-0.03919,-7.65935 2.82839,-21.3117 0.36191,-28.20687c-1.81686,-5.07915 -4.6987,-9.77424 -8.12869,-14.24967c-0.65558,5.15613 -1.18347,10.31907 -1.94872,15.15754zM251.98543,769.47545c-0.46033,6.83378 -1.2381,13.73485 -2.00978,20.65736c5.83533,-9.25811 10.77308,-18.77839 7.99069,-29.00784c-0.28693,-1.055 -0.58751,-2.10803 -0.90026,-3.15919c-0.99342,1.61385 -2.0109,3.1867 -3.05262,4.71374c-0.55905,0.81954 -1.14983,1.61597 -1.76774,2.39009c-0.07498,1.46881 -0.16135,2.93743 -0.26024,4.40588zM230.75063,555.58414c3.1983,12.65757 5.4686,22.23815 11.42683,32.92594c2.16857,-4.50557 4.22369,-9.09522 4.12195,-14.00135c-0.33417,-16.10615 -8.95606,-24.52048 -14.43899,-38.41993c-4.85141,-12.29862 -6.09801,-24.48454 -6.40376,-37.10377c-7.75859,15.6261 1.69011,42.33651 5.29395,56.59924zM223.39243,822.24447c-1.95379,14.60883 -2.23849,36.94274 8.51168,46.56601l1.07297,-5.65724c0.67286,-0.81153 1.25866,-1.66539 1.76713,-2.55687c-6.86349,-19.88639 -6.38919,-39.97251 -4.64955,-60.28465c-2.89291,6.9371 -5.62412,13.87097 -6.70235,21.93267z" fill="url(#color-4)" stroke-width="0.5"/><path d="M471.71225,441.94941c11.1458,1.59224 9.55356,12.73809 9.55356,12.73809c-1.29078,6.72446 -0.15776,14.42131 -3.87245,20.17327c-5.18235,8.02449 -22.72671,15.10717 -31.23406,19.68635c-19.8297,10.67365 -48.35697,16.49753 -61.03722,36.52476c-11.29571,17.84042 1.99376,40.43783 3.87851,58.27349c2.75308,26.05275 -4.76228,49.0973 -14.26122,72.8448c-12.0734,29.94342 -36.29592,48.7597 -52.66752,76.04696c-7.51328,12.52273 -7.93824,22.5777 -12.38113,35.8431c-6.77663,20.23336 -16.64408,44.05372 -29.78551,64.04971c-2.72761,9.18062 -6.74752,17.61259 -11.24001,27.27751c-1.02716,2.20967 -6.0405,14.2524 -10.07407,23.43945c1.39377,2.80879 2.38337,5.74847 2.7755,8.87908c-17.60709,-0.78369 -32.77271,-8.79903 -49.00244,-9.79694c-1.1721,-2.51386 -2.21368,-5.41397 -3.15112,-8.90944c-1.13051,-4.21523 1.16162,-8.85724 0.10736,-13.0922c-2.032,-8.16239 -8.88038,-14.3145 -13.93365,-21.03898c-12.31962,-16.3936 -24.02874,-32.95422 -36.09226,-49.62548c-6.33254,-8.75122 -11.27722,-13.23084 -13.22968,-24.78722c-2.9875,-17.68262 5.44769,-27.45393 6.60703,-43.77092c0.96778,-13.62142 -0.1045,-27.99073 -0.05479,-41.67474c0.01907,-5.24716 1.49839,-21.54341 -2.61779,-27.53933c-4.79631,-6.98654 -12.86164,-11.21879 -17.98442,-17.96959c-9.89431,-16.62218 -23.7322,-41.37118 -22.13642,-61.33664c1.12234,-14.04229 13.69147,-20.59975 13.46958,-33.07819c-0.32074,-18.04254 -16.74487,-44.37184 -28.65983,-57.48083c-1.80003,-1.9804 -13.56919,-15.29379 -19.38576,-16.92461c-11.43039,-3.2048 -30.99138,0.56512 -42.43133,2.50716c0,0 -11.10579,1.85096 -12.95675,-9.25484c-1.85096,-11.10579 9.25484,-12.95675 9.25484,-12.95675c1.60926,-0.26385 3.33746,-0.54981 5.15759,-0.84327c1.87381,-1.01934 3.49249,-1.34313 3.49249,-1.34313c17.61496,-3.44338 33.02027,-1.92235 50.60518,-0.16384c34.0657,3.40659 65.5986,7.08243 98.75151,16.12421c13.46714,3.67287 16.33781,-0.03167 29.90698,8.02052c5.68074,3.37108 10.48951,7.55614 14.54147,12.31412c12.91948,-20.93101 27.81521,-39.73195 53.21058,-47.39538c11.67498,-3.52312 31.09614,-0.37717 43.42212,-0.37717c32.9842,0 67.92983,2.77633 101.59306,7.66149c3.73942,-5.14851 7.81228,-10.15184 13.24855,-14.41692l10.7274,-5.56679c0,0 10.07034,-5.03512 15.10546,5.03512c2.70498,5.40988 1.05048,9.36672 -1.06015,11.87033c1.1338,-0.16549 2.40853,-0.17128 3.84101,0.03337zM135.46499,512.97931c5.43919,10.07976 10.49947,21.29867 10.39211,32.75187c-0.14855,15.84445 -12.54827,20.42413 -13.55194,34.47564c-1.0173,14.24244 11.23162,34.9331 18.39593,46.74957c5.0507,6.84872 13.63141,10.78308 18.04428,18.05913c12.10405,19.95738 8.21734,60.87433 6.33459,83.90808c-1.07589,13.1624 -9.09651,23.81479 -6.90373,37.29374c2.42544,14.9091 19.50883,28.81109 27.56077,40.88269c3.74294,5.61145 8.45949,11.38477 13.25679,17.32575c1.697,-13.88522 5.56879,-28.27046 9.84779,-41.38551c-0.7624,-1.03636 -1.4566,-2.05255 -2.05556,-3.04526c-9.4218,-25.23432 -17.77808,-59.31552 -2.0646,-84.53129c0.09187,-1.804 0.21402,-3.61312 0.36008,-5.41909c-1.10736,-0.85215 -2.19061,-1.62074 -3.23068,-2.28612c-5.03543,-3.22144 -11.65353,-4.24162 -15.72801,-8.6157c-6.12289,-6.57309 -8.91709,-23.01232 -9.69078,-31.46467c-0.75632,-8.26303 0.20468,-22.11028 2.90686,-29.58847c7.95644,-22.01983 30.87617,-32.72263 37.99566,-55.41016c0.8302,-2.64562 1.15944,-5.72747 1.20518,-9.01587c-0.37667,-0.76211 -0.71813,-1.53902 -1.00429,-2.33913c-4.4952,-12.56712 -5.7643,-25.03876 -4.52,-37.44684c-3.5733,-8.82572 -9.2981,-16.7582 -17.77117,-21.93171c-5.55919,-3.39429 -18.75914,-4.02388 -24.13614,-5.49029c-22.97238,-6.26515 -45.06116,-9.7923 -67.87412,-12.50068c8.92054,12.28186 15.60246,26.7406 22.23098,39.02431zM288.27648,767.11653c4.85056,-14.63007 6.30666,-26.82899 14.64043,-40.71795c6.98331,-11.63841 17.66621,-27.28393 25.90659,-37.56072c2.49161,-3.10745 6.64471,-4.47461 9.48652,-7.26545c7.51289,-7.37834 11.75044,-18.22807 15.522,-27.74534c8.2112,-20.52806 14.84515,-39.7092 12.76027,-62.26296c-0.69006,-7.46499 -5.29574,-14.11697 -6.60703,-21.49824c-2.69894,-15.19233 -1.90271,-37.26368 5.98194,-50.83249c2.70518,-4.65537 5.98862,-8.67718 9.69436,-12.22243c-9.20847,5.3206 -17.84063,12.01011 -24.49443,19.83601c-3.32462,3.91027 1.39174,10.17528 1.81241,15.29061c0.11011,1.33888 -4.29207,25.08378 -5.06588,27.20129c-7.36296,20.14946 -21.79381,40.54692 -32.8314,58.9233c-17.94951,23.98917 -35.87289,47.58 -38.65495,77.9627c-2.3523,25.68972 3.0366,51.17031 5.80793,76.79043c2.28156,-5.35867 4.32292,-10.71585 6.04127,-15.89877zM334.46188,465.88907c-9.48312,3.39335 -18.26574,9.08586 -25.71777,15.86164c-5.84528,5.31477 -14.34777,8.36698 -18.07122,15.33473c-18.83367,35.24356 7.66765,75.56425 1.35203,111.26098c-2.26267,12.78919 -9.4763,20.84462 -17.95695,27.69553c1.08938,3.38795 1.94123,6.81389 2.29202,10.26454c6.00517,-10.39894 12.2401,-20.24315 20.03557,-30.60907c9.99061,-16.67178 23.61698,-35.3929 30.21881,-53.66642c6.60964,-18.2952 -5.35163,-29.98946 5.75369,-47.57994c10.31421,-16.33731 32.91628,-28.85367 50.37543,-35.8287c6.8793,-2.74832 14.82447,-2.68643 21.3363,-6.21836c2.80788,-1.52298 5.28935,-3.24305 7.53266,-5.10939c-23.50708,-3.48051 -46.8638,-6.41605 -70.62306,-7.22391c-2.01233,4.12511 -6.52755,5.81828 -6.52755,5.81828zM269.9134,604.08812c2.48331,-16.60593 -5.28677,-34.44402 -6.90373,-50.80453c-2.01407,-20.37802 -1.92804,-49.17481 8.2558,-67.61761c5.76141,-10.43385 16.94749,-19.91141 28.85056,-27.44367c-3.57064,0.06368 -6.84906,0.41168 -9.50154,1.2511c-20.93331,6.62503 -31.64936,23.7486 -42.20036,41.11052c-1.32837,3.89436 -2.16453,7.53691 -2.60627,11.00741c1.55939,4.88263 2.7378,9.88788 3.59795,14.88448c0.01412,4.4952 0.41866,9.60976 0.77421,14.87871c1.73692,5.17294 3.71424,10.54747 5.5074,16.46987c5.513,18.20843 5.36912,37.30101 10.39306,55.74882c1.9048,-2.66662 3.27566,-5.75761 3.83305,-9.48498zM218.30081,664.10824c4.71691,-11.47385 12.3542,-22.00207 21.51453,-30.36783c2.54298,-2.32238 5.5292,-4.33066 8.61887,-6.28261c-2.02183,-4.7533 -4.09569,-9.39252 -5.31233,-13.64379c-2.16416,-7.56214 -3.18241,-15.44373 -4.16351,-23.2994c-2.46546,4.00905 -5.14442,7.89146 -7.89176,11.65794c-2.40731,3.30026 -6.77905,4.63656 -9.68997,7.50253c-9.96681,9.81291 -13.73575,22.45892 -12.50329,36.14593c0.55229,6.13325 -0.81791,14.02383 3.82004,18.07488c1.48308,1.2954 3.34538,1.96954 5.2646,2.56287c0.11555,-0.79349 0.23008,-1.57722 0.34281,-2.35041zM240.43688,849.4112c9.24472,-6.60571 14.13856,-15.82542 19.66821,-25.4207c0.28105,-1.62987 0.50151,-3.2828 0.65281,-4.96209c1.97268,-21.89021 -2.10378,-44.90184 -5.20958,-67.87214c-1.74437,2.09337 -3.91351,3.98585 -5.02723,6.4352c-2.04245,4.49173 -2.59678,9.52076 -3.89512,14.2811c-0.96323,2.54474 -1.95967,5.21982 -2.96237,7.99783c9.55217,12.81354 19.62999,24.13746 14.37922,43.27278c-2.45043,8.92999 -11.96881,14.15015 -17.47927,21.59217c-1.2598,1.70133 -1.92944,3.82717 -2.26761,6.09591zM240.05494,669.92327c-0.1188,0.8545 -0.24285,1.73181 -0.37007,2.62907c6.90418,-5.64568 12.67916,-11.90408 14.14698,-21.15212c-5.80867,5.00448 -10.83146,10.76647 -13.77689,18.52304zM248.39975,692.09095c1.83141,2.41393 3.47413,4.82457 4.84428,7.15291c0.473,-4.29687 1.18204,-8.5591 2.1778,-12.77832c-2.30683,1.84963 -4.67162,3.69086 -7.02204,5.62544zM235.78791,812.93417c-0.40948,2.27073 -0.7538,4.56384 -1.09922,6.85851c1.61875,-2.15015 2.41504,-5.01426 1.66,-9.83631c-0.19328,0.98653 -0.38065,1.97887 -0.56078,2.97788zM456.60927,448.59143c-0.29289,0.20415 -0.57995,0.41129 -0.86158,0.62116c1.20989,0.21905 2.41684,0.44078 3.62079,0.66503c0.28326,-0.91392 0.75033,-2.10723 1.49617,-3.29531zM439.48982,470.55372c-0.68637,1.07138 -1.39868,2.13953 -2.15155,3.19826c2.25517,-1.14018 4.33968,-2.06164 6.25126,-2.88485c-1.36559,-0.10948 -2.73197,-0.21193 -4.0997,-0.3134z" fill="url(#color-5)" stroke-width="0.5"/><path d="M217.73133,880.08174v-439.93446h46.91241v439.93446z" fill="url(#color-6)" stroke-width="0"/><g stroke-width="0"><path d="M46.97019,506.33672v-32.41245c0,0 28.38051,42.2771 78.21255,42.2771c99.89886,0 104.98819,-16.9109 104.98819,-16.9109v32.41245c0,0 -5.0893,16.9109 -104.98819,16.9109c-49.83207,0 -78.21255,-42.2771 -78.21255,-42.2771z" fill="url(#color-7)"/><path d="M46.97019,552.84144v-32.41245c0,0 28.38051,42.2771 78.21255,42.2771c99.89886,0 104.98819,-16.9109 104.98819,-16.9109v32.41245c0,0 -5.0893,16.9109 -104.98819,16.9109c-49.83207,0 -78.21255,-42.2771 -78.21255,-42.2771z" fill="url(#color-8)"/><path d="M50.34784,597.93704v-32.41245c0,0 27.33398,42.2771 75.32857,42.2771c96.21515,0 101.1168,-16.9109 101.1168,-16.9109v32.41245c0,0 -4.90163,16.9109 -101.1168,16.9109c-47.9945,0 -75.32857,-42.2771 -75.32857,-42.2771z" fill="url(#color-9)"/><path d="M60.48094,641.06416v-32.41245c0,0 25.58979,42.2771 70.52182,42.2771c90.0757,0 94.66451,-16.9109 94.66451,-16.9109v32.41245c0,0 -4.58884,16.9109 -94.66451,16.9109c-44.93197,0 -70.52182,-42.2771 -70.52182,-42.2771z" fill="url(#color-10)"/><path d="M85.25071,688.83558v-26.58772c0,0 21.40375,34.67963 58.98571,34.67963c75.3409,0 79.17912,-13.87187 79.17912,-13.87187v26.58772c0,0 -3.83821,13.87187 -79.17912,13.87187c-37.58189,0 -58.98571,-34.67963 -58.98571,-34.67963z" fill="url(#color-11)"/></g><g data-paper-data="{&quot;index&quot;:null}" stroke-width="0"><path d="M357.6223,548.61373c-99.89886,0 -104.98819,-16.9109 -104.98819,-16.9109v-32.41245c0,0 5.0893,16.9109 104.98819,16.9109c49.83207,0 78.21255,-42.2771 78.21255,-42.2771v32.41245c0,0 -28.38051,42.2771 -78.21255,42.2771z" fill="url(#color-12)"/><path d="M357.6223,595.11862c-99.89886,0 -104.98819,-16.9109 -104.98819,-16.9109v-32.41245c0,0 5.0893,16.9109 104.98819,16.9109c49.83207,0 78.21255,-42.2771 78.21255,-42.2771v32.41245c0,0 -28.38051,42.2771 -78.21255,42.2771z" fill="url(#color-13)"/><path d="M357.12858,640.21415c-96.21515,0 -101.1168,-16.9109 -101.1168,-16.9109v-32.41245c0,0 4.90163,16.9109 101.1168,16.9109c47.99457,0 75.32857,-42.2771 75.32857,-42.2771v32.41245c0,0 -27.33403,42.2771 -75.32857,42.2771z" fill="url(#color-14)"/><path d="M351.80229,683.34127c-90.0757,0 -94.66451,-16.9109 -94.66451,-16.9109v-32.41245c0,0 4.58884,16.9109 94.66451,16.9109c44.93201,0 70.52182,-42.2771 70.52182,-42.2771v32.41245c0,0 -25.58983,42.2771 -70.52182,42.2771z" fill="url(#color-15)"/><path d="M338.56864,723.51519c-75.34093,0 -79.17912,-13.87187 -79.17912,-13.87187v-26.58772c0,0 3.83824,13.87187 79.17912,13.87187c37.58189,0 58.98571,-34.67963 58.98571,-34.67963v26.58772c0,0 -21.40375,34.67963 -58.98571,34.67963z" fill="url(#color-16)"/></g><path d="M16.57095,466.04292v-25.89562h449.23319v25.89562z" fill="url(#color-17)" stroke-width="0"/><path d="M195.23984,917.61356v-172.22383h91.89553v172.22383z" fill="url(#color-18)" stroke-width="0"/></g><path d="M485.72164,453.09c0.00283,13.39271 -11.181,24.25177 -24.97941,24.25462c-13.79854,0.00287 -24.98649,-10.85181 -24.98911,-24.24449c-0.00271,-13.39267 11.181,-24.25158 24.97951,-24.25443c13.79854,-0.00287 24.98649,10.85174 24.98918,24.24441z" fill="url(#color-19)" stroke-width="0"/><path d="M46.62165,453.09c0.00283,13.39271 -11.181,24.25177 -24.97941,24.25462c-13.79854,0.00287 -24.98649,-10.85181 -24.98911,-24.24449c-0.00271,-13.39267 11.181,-24.25158 24.97951,-24.25443c13.79854,-0.00287 24.98649,10.85174 24.98918,24.24441z" fill="url(#color-20)" stroke-width="0"/></g><g><g><path d="M348.84032,392.20195c-3.38309,5.03499 -8.41812,1.652 -8.41812,1.652l-2.44378,-2.28571c-4.24842,-1.0597 -9.36282,-0.39866 -12.74535,-3.17907c-7.52062,-6.18203 -0.2577,-16.49645 -5.5412,-23.42197c-3.46968,-4.54803 -9.54106,-6.97126 -11.88387,-12.51432c-4.21054,-9.96222 6.20791,-23.82225 0.3761,-33.19523c-2.00488,-3.22227 -9.54831,-8.52795 -12.71085,-10.90781c0,0 -4.83963,-3.65715 -1.18245,-8.49679c3.65715,-4.83963 8.49679,-1.18245 8.49679,-1.18245c12.05071,9.14048 19.78173,16.6322 18.35851,32.66063c-0.49101,5.52957 -4.49265,11.50416 -2.1128,16.51956c2.08048,4.38449 7.80577,6.03944 10.52617,10.0584c6.80143,10.04788 -1.82058,21.50417 10.4567,21.69939l7.1721,4.17526c0,0 5.03499,3.38309 1.652,8.41812z" fill="url(#color-21)" stroke="none" stroke-width="0.5"/><path d="M49.81916,40.74083c0.02194,-6.06596 6.08791,-6.04403 6.08791,-6.04403l4.81961,0.01743c5.03127,0.0182 10.15639,1.10265 15.09335,0.13292c11.33751,-2.22696 21.16009,-11.09367 33.14318,-11.20429c30.63936,-0.28291 58.9612,19.96645 63.65853,50.42185c0,0 0.83616,6.00813 -5.17197,6.84425c-6.00813,0.83616 -6.84425,-5.17197 -6.84425,-5.17197c-3.02108,-25.26186 -27.57594,-39.42015 -51.68618,-39.96215c-6.82386,-0.15343 -14.07932,5.13115 -20.19742,7.49792c-10.33683,3.99881 -17.25669,3.61246 -28.03915,3.57347l-4.81961,-0.01743c0,0 -6.06596,-0.02194 -6.04403,-6.08791z" fill="url(#color-22)" stroke="none" stroke-width="0.5"/><path d="M389.11253,62.9885c1.44993,5.89022 -4.44024,7.34013 -4.44024,7.34013l-7.16246,1.71631c-9.79789,-0.42457 -13.78536,9.59404 -24.15437,7.9248c-3.31489,-0.53362 -5.57646,-3.88354 -8.74107,-5.00533c-3.55763,-1.2611 -21.826,-1.84448 -24.98955,-0.32648c-5.41628,2.59898 -8.22839,8.80288 -12.87062,12.61607c-6.23465,5.12128 -13.33213,9.18579 -20.55389,12.78358c0,0 -5.43539,2.69316 -8.12857,-2.74223c-2.69316,-5.43539 2.74223,-8.12857 2.74223,-8.12857c12.72484,-6.26706 22.06133,-20.45439 34.23564,-25.76518c11.90791,-5.19463 29.73403,1.01603 40.13485,4.5747c4.05728,1.38826 14.14392,-7.8076 20.88656,-7.97781l5.70138,-1.45029c0,0 5.89022,-1.44993 7.34013,4.44024z" fill="url(#color-23)" stroke="none" stroke-width="0.5"/><path d="M331.69584,92.16641c-3.80654,4.72301 -8.52961,0.91654 -8.52961,0.91654l-1.7044,-2.08216c-2.63785,-0.69103 -8.78502,-4.32735 -14.1241,-6.6372c0.53219,3.53449 -2.79945,5.73826 -2.79945,5.73826c-9.68214,6.36707 -15.64457,12.1993 -26.51998,16.88163c-1.90333,0.81951 -4.2377,1.58124 -6.77019,2.3655c-6.1165,5.21207 -12.50285,10.09962 -19.23499,14.42367c-2.07547,1.33312 -4.67497,2.93075 -7.45195,4.45621c-2.56485,9.65883 -0.40922,21.85335 -0.44145,30.76216c-0.0059,1.6284 -0.03072,3.22097 -0.0764,4.78214c3.1064,2.27212 4.54615,5.57936 8.23842,7.70139c6.75451,3.88202 20.81753,5.74674 28.31914,6.61518c3.29817,0.38183 7.02934,0.12597 10.84675,-0.1837c-1.6459,-7.55887 -4.39952,-15.23472 -5.35298,-20.91435c-1.76279,-10.50115 2.34309,-16.64137 6.17331,-26.10457c11.22826,-22.27484 21.54065,-31.7143 47.56178,-31.62019l0.80603,0.00292c0,0 6.06596,0.02194 6.04403,6.08791c-0.02194,6.06596 -6.08791,6.04403 -6.08791,6.04403l-0.80603,-0.00292c-21.30699,-0.07707 -27.28017,6.30289 -36.4686,24.49811c-1.87213,4.6381 -5.11504,8.82103 -6.0372,13.73697c-1.69364,9.02872 2.49563,18.39116 5.40924,27.75973c2.172,0.09203 4.2531,0.36948 6.17004,0.95555c12.48092,3.81559 18.43006,18.6188 31.92263,23.67344c0,0 5.67206,2.15044 3.52162,7.82248c-2.15044,5.67206 -7.82252,3.52158 -7.82252,3.52158c-9.25192,-3.54331 -17.51256,-7.94916 -24.21086,-15.55572c-2.42251,-2.75096 -2.43171,-6.92912 -6.56716,-7.74757c-0.16979,-0.03356 -0.33959,-0.06648 -0.50947,-0.09874c0.09899,2.77587 -0.2007,5.5392 -1.08905,8.28133c-6.63843,20.49141 -29.98661,24.65527 -47.62444,29.46874c-1.98394,0.54143 -4.03297,1.11811 -6.12416,1.63746c1.10941,1.56466 2.14739,3.26097 3.11692,5.1818c8.85105,4.21068 17.85792,8.54327 25.54671,16.23323c19.47946,19.48248 25.16543,44.59191 32.01471,70.61673c0,0 1.54179,5.86681 -4.32507,7.40858c-5.86686,1.54179 -7.40863,-4.32506 -7.40863,-4.32506c-6.26018,-23.85786 -11.10399,-47.09495 -28.75321,-65.01647c-3.27626,-3.32677 -7.87828,-6.87437 -12.5626,-9.9897c4.02866,16.38008 8.79868,34.0208 7.37061,50.40795c-0.39406,4.52154 -1.68111,16.16615 -5.96169,20.02368c-4.89873,4.41455 -9.61315,4.12156 -14.53308,3.71034c-2.49928,14.38104 -7.68103,29.95113 -11.50892,40.59843c0,0 -2.06086,5.70524 -7.76613,3.64437c-5.70524,-2.06086 -3.64433,-7.76613 -3.64433,-7.76613c4.09569,-11.28048 5.67405,-22.54216 7.89468,-34.0247c-9.07381,5.53514 -13.55454,18.39115 -14.67949,27.92647c0,0 -0.77418,6.01644 -6.79059,5.24227c-6.0164,-0.7742 -5.24227,-6.79059 -5.24227,-6.79059c2.29633,-16.77037 11.38939,-36.41042 29.75903,-40.50918c0.07565,-0.01683 0.15813,-0.03149 0.24703,-0.044c1.16052,-4.63712 2.11242,-10.21267 -0.02395,-13.58164c-3.74527,-5.90612 -10.231,-9.9301 -13.33667,-16.19617c-7.21663,-14.56011 -6.47071,-35.02995 -2.66402,-52.71459c-6.5486,6.7688 -13.18399,13.44071 -17.54174,21.73533c-3.87621,7.37805 -8.4913,16.68799 -10.92485,24.64849c-2.29282,7.50039 -1.94763,19.10473 -8.06714,25.11007c-6.11919,6.00505 -17.57851,5.71134 -25.26689,5.7155l-5.086,-2.60116c0,0 -4.2738,-4.30482 0.03104,-8.57863c2.90978,-2.8888 5.8054,-1.85813 7.37654,-0.88678c4.45115,0.15175 11.87062,0.33191 14.39767,-2.25864c3.66302,-3.75492 3.60063,-15.49957 4.99248,-19.98051c2.65691,-8.55378 7.5781,-18.91773 11.83036,-26.85525c5.98221,-11.16672 15.66034,-19.30388 23.92192,-28.63408c-0.12727,-0.39554 -0.20707,-0.78875 -0.25363,-1.16294c-2.63182,-0.39765 -5.36945,-0.60408 -7.78511,-1.54713c-2.08577,-4.31451 -3.64951,-8.70998 -4.81452,-13.16738c-2.6267,2.68083 -5.54641,5.14257 -8.53331,8.10842c-16.62447,16.50719 -45.61471,38.54123 -69.98174,34.47308c0,0 -5.96425,-1.10673 -4.8575,-7.07094c1.10667,-5.96419 7.07094,-4.8575 7.07094,-4.8575c19.3023,4.08888 46.27822,-18.30691 59.22075,-31.1543c4.70158,-4.66699 10.79893,-8.28169 13.18023,-14.74293c0.39328,-1.0671 0.74105,-2.13921 1.05017,-3.2156c-0.27814,-4.12075 -0.37015,-8.27064 -0.36534,-12.43599c-23.32765,-5.46445 -54.85746,-16.08629 -71.53772,6.6797l-0.72136,3.11221c0,0 -1.93906,5.74779 -7.68685,3.8087c-5.74779,-1.93906 -3.8087,-7.68685 -3.8087,-7.68685l2.53771,-6.54839c20.73157,-26.80501 53.21239,-18.07924 81.42758,-11.71004c0.35333,-13.58018 0.79975,-27.18047 -1.7172,-40.33111c-3.0168,-15.76212 -26.10616,-33.28531 -39.04505,-41.39433c0,0 -5.13235,-3.23355 -1.89875,-8.36584c3.23357,-5.13235 8.3659,-1.89876 8.3659,-1.89876c16.20009,10.25464 40.20901,29.61622 44.45474,49.1834c1.13733,5.24181 1.36751,10.69675 1.19506,16.2425c0.84625,-1.90291 1.64385,-3.43344 2.19318,-3.89883c5.12328,-4.34108 12.73669,-4.39994 19.32978,-5.67442c1.57649,-0.30471 3.19815,-0.79867 4.84367,-1.44056c1.06831,-2.71184 2.5353,-5.29791 4.54194,-7.69916c6.11528,-7.31788 16.4606,-10.48156 25.86491,-13.60713c9.26048,-9.13176 18.99942,-23.42608 30.20465,-27.57752c10.36556,-3.84038 19.78568,5.72574 29.20394,8.0187l6.33246,4.39517c0,0 4.72305,3.80653 0.91653,8.52955zM219.09877,135.73805c-2.70847,2.32636 -2.31353,6.75688 -3.57924,10.09538c-2.11391,4.74398 -3.04013,9.75995 -3.588,14.88457c6.59729,0.53642 13.43842,-0.41602 19.94514,-0.13066c0.09238,-3.10856 0.1282,-6.32916 0.1404,-9.70028c0.02038,-5.63312 -0.34094,-11.58719 -0.00957,-17.41144c-5.88211,1.26862 -7.79807,-2.1273 -12.90883,2.26244zM254.87921,185.02682c-4.89374,-1.4248 -8.3602,-4.90039 -11.88204,-7.75148c-1.19666,8.92536 -3.44843,17.14413 -7.21951,25.79171l0.39533,0.24985c-0.50431,2.60458 -1.0086,5.20908 -1.51285,7.81369c0.75163,1.46803 1.53093,2.92153 2.61789,4.06294c1.33626,1.40319 2.61615,2.68933 3.84138,3.91264c16.55765,0.26827 39.44061,-8.94451 48.37624,-20.08749c2.27838,-2.84125 3.17207,-6.46135 3.23388,-10.45842c-12.53124,-0.6827 -25.27756,0.12735 -37.85034,-3.53329zM211.7372,185.53797c0.83301,6.84293 -0.36121,12.9395 1.2398,19.65669c1.73153,0.37926 3.58114,0.46782 5.40732,0.60698l0.35956,-0.45663c0.12609,-0.00206 0.25267,-0.00618 0.37966,-0.01214c-0.41888,-1.15938 -0.46472,-2.6176 0.30646,-4.39926c1.37911,-3.18613 3.79248,-3.75935 5.60444,-3.66699c3.46805,-8.40968 5.22112,-16.36706 6.10385,-24.85725c-6.37032,-0.65599 -13.36846,0.31256 -20.15345,0.08911c-0.20386,2.41143 -0.45842,4.81955 -0.84459,7.20821c0.7279,1.90191 1.35274,3.8258 1.59686,5.83117zM231.70671,239.36102c-1.31179,-0.7033 -2.56137,-1.54917 -3.756,-2.50178c-2.46881,13.93469 -2.62938,29.12182 2.77227,40.02808c5.56354,11.23308 13.59255,12.6379 15.26556,25.88219c0.3718,2.94362 0.42507,6.17932 0.22854,9.60277c2.11595,-0.09454 3.90256,-0.44213 4.83014,-1.2834c3.27141,-2.96688 2.68343,-15.7909 2.26173,-19.92982c-1.66045,-16.29631 -5.81715,-32.27389 -9.2919,-48.16546c-0.09801,-0.28158 -0.20806,-0.57613 -0.32947,-0.88216c-4.02816,-0.83518 -8.38101,-0.82037 -11.98086,-2.75049z" fill="url(#color-24)" stroke="none" stroke-width="0.5"/><path d="M184.14962,357.82018c-21.84205,-8.61543 -13.91917,-22.80711 -24.01223,-37.86261c-3.62917,-5.41357 -13.0411,-8.48289 -17.80742,-11.24304c-14.89686,-8.62669 -15.4158,-8.44901 -24.08715,-25.10077c-9.40584,-18.06224 1.30631,-34.35576 -8.37691,-49.87094c-10.48656,-14.11237 -21.17094,-45.89124 -13.29701,-64.02084c0.57938,-1.33405 16.28121,-12.62516 17.34695,-17.95036c1.57754,-7.88275 -4.52924,-15.7702 -3.96317,-23.78935c1.34057,-18.99077 15.56086,-35.59038 24.2189,-50.87352c4.12012,-7.27276 2.27711,-17.02991 6.57541,-24.19879c4.20013,-7.00512 14.08796,-11.57166 17.66321,-19.49335c2.32141,-5.14357 0.92322,-12.06415 4.68866,-16.26727c12.68419,-14.15816 43.10206,-15.07763 60.02564,-13.36467c9.59323,-1.34406 19.39106,0.11274 29.04734,0.88213c22.88421,1.82336 40.27889,-10.91242 61.90311,3.86674c11.33571,7.74744 19.67204,20.83759 17.94249,35.34607c-0.47386,3.9747 -6.68229,5.01855 -8.29708,8.68122c-1.93257,4.38337 7.07136,6.46449 10.612,9.6913c7.92901,7.22624 14.21125,17.1047 16.6239,27.55777c3.80585,16.48925 7.42007,42.46045 4.81758,59.18988c-0.63133,4.05818 -4.11202,7.40669 -4.41626,11.50244c-0.33708,4.53826 12.69402,16.10847 12.7354,16.19297c3.46284,7.07135 4.28018,15.15453 6.42027,22.7318c-4.2492,3.48509 -9.18502,6.2708 -12.74751,10.45522c-9.29291,10.91507 0.94403,33.33165 -1.355,45.59503c-2.13623,11.39519 -10.14581,23.87223 -18.12446,31.78845c-5.03963,5.00015 -12.87763,8.0498 -15.43881,14.67091c-6.33406,16.37474 0.9985,30.59873 -13.45899,45.07912c-5.33376,5.34219 -22.62311,13.06639 -34.598,16.44786c-2.67041,3.51223 -6.943,4.68764 -6.943,4.68764c-12.13367,3.20125 -29.20768,17.03575 -42.10007,13.34531c-7.83507,-2.24279 -11.52888,-10.76734 -16.07067,-18.14331c-2.62307,0.52927 -5.17327,1.00806 -7.5962,1.35969l-4.80255,0.69686c0,0 -10.12551,1.46932 -13.12854,-7.58938zM218.50492,337.03828c7.09921,-1.28984 14.21979,-2.29273 20.68164,-2.03145c8.96088,0.36225 17.28539,5.78626 26.25305,5.88513c6.78182,0.07476 12.54036,-6.01048 17.92564,-8.582c3.05045,-1.4566 6.97709,-1.08582 9.62902,-3.18207c7.02198,-5.55079 4.05181,-28.72588 7.40756,-36.4072c7.5997,-17.39569 19.98956,-18.24422 28.69165,-33.15549c11.64647,-19.95644 -12.67959,-58.67227 18.35996,-67.68699c-10.8348,-5.71764 -19.49269,-17.96982 -20.3451,-30.53254c-0.37549,-5.53372 3.77134,-10.49687 4.6737,-15.96942c1.91624,-11.62126 -1.96683,-27.51804 -2.92627,-39.19907c-0.05168,-0.62932 -2.38635,-18.21973 -3.553,-20.07781c-4.35334,-6.9335 -14.3163,-9.17683 -18.3927,-16.27669c-3.74229,-6.5179 -7.45332,-13.89378 -7.09785,-21.40123c0.20924,-4.41845 6.74417,-6.09492 8.59001,-10.11475c1.7905,-3.89915 -4.7081,-7.45035 -8.23648,-9.89159c-10.67648,-7.38675 -21.34517,-1.0125 -33.15217,-0.05321c-15.37317,1.24901 -28.23852,-2.59503 -43.36442,-0.31869c-13.73418,-1.3902 -21.78658,0.08571 -34.99747,3.32736c-2.29877,0.56409 -5.64328,-0.58616 -6.96609,1.37668c-2.01315,2.98721 0.30353,7.46628 -1.19956,10.73998c-4.00464,8.72174 -13.6926,13.66993 -18.84807,21.76489c-4.33361,6.80437 -2.3571,16.28196 -6.13038,23.41234c-6.12745,11.57931 -20.99507,26.40206 -21.33192,40.73286c-0.23241,9.8896 6.20892,16.85734 3.47036,27.43756c-1.77092,6.84161 -6.36412,12.75429 -10.85246,18.21305c-2.06393,2.51017 -6.68159,2.28364 -8.31196,5.09478c-1.16666,2.0116 1.01225,4.54182 1.39267,6.83593c2.34973,14.17077 0.953,22.30212 10.24705,33.40493c2.80708,5.45578 7.11339,10.37279 8.42114,16.36739c3.18802,14.61447 -5.93336,22.21378 1.27068,35.75087c9.36738,17.60218 28.70714,17.33615 40.15731,33.4771c3.23589,4.56156 4.78059,10.13486 6.6259,15.41438c1.56097,4.46587 0.16977,13.00382 4.88973,13.32343c8.94024,0.60539 19.35598,-1.91398 27.01908,2.32173z" fill="url(#color-25)" stroke="none" stroke-width="0.5"/><g stroke="none" stroke-width="0.5"><path d="M103.7075,184.31682c0.02301,-6.36497 5.59155,-7.14423 6.98984,-7.23959c4.37652,-1.31197 16.20696,-4.88715 18.32875,-4.79816c14.61667,0.61315 26.81583,11.39517 39.52942,16.79148c9.98401,3.45117 20.24951,4.11047 30.63368,3.47132c-0.07092,-0.28878 -0.14185,-0.57757 -0.2126,-0.86638c-3.15473,-2.00215 -6.24862,-4.0149 -9.27247,-5.9952c-3.72525,-3.62062 -8.34029,-6.50904 -11.17574,-10.86186c-9.00441,-13.82337 -4.49566,-33.17108 -11.59592,-48.5514c-4.29595,-9.30571 -13.65085,-16.19709 -22.19869,-21.29371l-4.35529,-2.17332c0,0 -6.49893,-3.27888 -3.22,-9.77784c3.27888,-6.49893 9.77784,-3.22 9.77784,-3.22l5.33278,2.71459c15.75824,9.6467 26.09602,21.00901 32.1116,38.75857c5.28885,15.60523 1.00561,27.33208 10.77231,39.21947c-1.79012,-18.99126 0.05533,-38.94624 0.20901,-57.83041c0.09943,-12.22386 9.45779,-25.32873 6.79949,-37.12581c-4.50346,-19.98549 -18.8965,-30.10584 0.90194,-47.63649c0,0 5.54386,-4.71725 10.26114,0.82668c4.71725,5.54386 -0.82668,10.26114 -0.82668,10.26114c-14.94704,11.95202 6.29797,30.74575 3.87737,47.51394c-0.99898,6.92051 -5.26507,13.06155 -6.50255,19.94338c-4.51868,25.12886 -0.79412,51.59615 3.35288,77.02492c0.09801,0.05985 0.19601,0.11964 0.29411,0.17949c2.56218,-6.58395 6.75029,-12.48581 11.28147,-17.79375c0.1217,-0.10408 0.29467,-0.25279 0.51109,-0.43903c6.24468,-18.72131 11.07439,-37.48176 5.91511,-57.98013c-3.17546,-12.61637 -10.092,-26.98185 -5.32054,-40.86508c3.24986,-9.45593 14.93747,-14.62068 22.65382,-19.05582c7.94058,-4.56402 15.4787,-9.44064 23.35084,-13.86386c-0.35552,-1.12556 -0.42671,-2.49955 -0.00315,-4.16794c1.79097,-7.05544 8.84648,-5.26448 8.84648,-5.26448l4.22044,2.82821c0.64726,-0.26329 6.76383,-2.55214 9.53909,3.75351c2.07879,4.72312 -0.66447,7.57163 -2.43766,8.82976c0.48641,2.71925 0.47344,5.5621 -0.517,9.06366c-3.84314,13.5871 -18.24031,20.10942 -20.11197,35.14056c-2.4295,19.51116 5.1994,38.58422 9.03369,57.71982c6.68075,-7.61138 12.04947,-16.54992 21.08209,-21.79404c8.54208,-4.95933 16.97795,-5.02187 26.43576,-5.00137l0.80881,0.00292c0,0 7.27917,0.02633 7.25286,7.30551c-0.02633,7.27917 -7.30551,7.25286 -7.30551,7.25286l-0.80881,-0.00292c-23.4072,-0.12254 -28.97047,17.26963 -45.40909,29.75355c0.0034,0.27225 0.00512,0.54459 0.00525,0.81695c-0.06839,9.36034 -2.89058,18.12299 -6.13897,26.77275c0.18712,0.04032 0.37408,0.08145 0.56103,0.12349c28.56492,6.42265 35.34277,45.35795 57.82913,60.24906c0,0 6.04207,4.05966 1.98238,10.10174c-4.05966,6.04207 -10.10174,1.98238 -10.10174,1.98238c-9.37503,-6.37398 -19.53278,-15.17603 -25.53303,-24.99101c-6.27474,-10.264 -13.13822,-30.46171 -27.82495,-33.24818c-0.70702,-0.13416 -1.42122,-0.24705 -2.14179,-0.34037c-0.64614,1.84413 -1.2551,3.69495 -1.8045,5.55709c14.58755,11.02599 16.8248,26.722 28.11007,39.71497c14.19106,16.33853 25.08014,22.37234 25.02548,46.05855c0,0 -0.02633,7.27917 -7.30551,7.25286c-7.27917,-0.02633 -7.25286,-7.30551 -7.25286,-7.30551c0.09995,-19.73457 -9.63287,-22.61145 -21.58645,-36.60854c-8.49526,-9.94757 -11.7282,-21.79548 -19.71768,-31.4784c0.01956,1.34004 0.09818,2.69191 0.24295,4.05705c1.38071,13.02102 1.89984,29.05269 5.99069,41.38091c5.20041,15.67178 15.70297,25.90451 12.26364,43.88487c-2.68365,14.02987 -8.96578,25.02057 -16.58483,36.7663c0,0 -3.97654,6.09712 -10.07358,2.12055c-6.09712,-3.97654 -2.12055,-10.07358 -2.12055,-10.07358c6.54913,-9.9814 11.98492,-19.14353 14.39521,-31.06163c3.00727,-14.86984 -7.41167,-23.95681 -11.70777,-37.08272c-4.32664,-13.21917 -5.396,-30.42613 -6.63998,-44.39849c-0.43605,-4.89822 -0.12685,-9.58396 0.65697,-14.13098c-2.24114,-0.04774 -4.62554,0.09101 -7.46499,-0.70807c-4.13158,-1.16261 -8.23781,-2.61287 -12.30386,-4.28129c1.98453,15.37524 7.1788,29.9752 8.4325,46.84943c1.9404,26.11758 -9.8242,50.93894 -7.81944,77.32551c0.94089,1.10345 4.2161,5.58439 -0.26904,10.03722c-5.16578,5.12855 -10.29432,-0.03724 -10.29432,-0.03724l-3.68355,-5.97432c-2.91661,-27.51701 9.85485,-53.47697 7.54634,-80.29359c-1.04452,-12.13363 -3.70425,-23.05353 -5.86843,-33.89089c-0.81214,3.79819 -1.90138,7.53286 -3.49386,11.13834c-0.6221,8.0044 -2.3143,15.89646 -5.88638,23.56644c-3.70969,7.96539 -8.18303,13.9562 -10.02627,23.16109c-4.00717,20.0109 11.20351,43.45611 11.18444,64.38797l-0.00584,1.6176c0,0 -0.02633,7.27917 -7.30551,7.25286c-7.27917,-0.02633 -7.25286,-7.30551 -7.25286,-7.30551l0.00584,-1.6176c0.15271,-22.56348 -15.19496,-44.52325 -10.988,-66.71928c1.47325,-7.77285 4.6106,-14.04511 7.91623,-20.46194c-5.75176,3.61709 -11.95932,6.31216 -17.70914,6.99347c-2.11214,0.25026 -13.43036,-1.61516 -16.08832,-1.63543c-11.66967,-0.08889 -23.04651,4.12046 -33.01971,9.52513c0,0 -6.4216,3.42788 -9.84949,-2.99376c-3.42788,-6.4216 2.99376,-9.84949 2.99376,-9.84949c10.96209,-5.77695 19.19711,-8.34273 31.43972,-10.36805c8.07399,-1.33576 15.32142,1.52278 23.04275,0.83869c8.37314,-0.74183 19.22413,-10.00445 24.44289,-16.04478c1.10986,-1.28451 2.07997,-2.58993 2.92967,-3.91468c0.35951,-8.08506 -0.54081,-16.30964 -1.31439,-24.36412c-0.0179,-0.11994 -0.03605,-0.23975 -0.05443,-0.35948c-13.49852,0.42753 -27.0753,-0.46733 -38.96951,-4.40796c-10.41008,-4.57609 -22.9041,-15.1739 -34.763,-15.82953c-5.11859,-0.28298 -9.79217,3.03985 -14.70756,4.49547l-2.90157,0.2965c0,0 -7.27917,-0.02633 -7.25286,-7.30551zM256.59614,168.69362c-4.14964,0.05344 -8.67696,-2.41178 -12.43305,-0.64715c-2.53907,1.19289 -4.42543,3.3595 -6.37009,5.45163c-1.28271,3.96815 -2.65996,8.03982 -4.10024,12.28673c-0.1217,0.66121 -0.23289,1.31884 -0.3342,1.97312c9.8855,-1.60382 19.71829,-2.91269 29.36038,-2.66197c2.03018,-5.69316 3.79885,-11.44061 4.67682,-17.41346c-2.73368,0.7664 -5.75548,0.94622 -10.79961,1.01115zM256.60976,201.77716c0.12277,-0.36377 0.24698,-0.7271 0.37242,-1.09001c-1.33955,0.15082 -2.68278,0.32884 -4.02521,0.52506c1.20707,0.21075 2.4309,0.38587 3.65272,0.56492zM263.46375,153.66555c1.46816,-0.47497 2.84898,-1.03807 4.15515,-1.67654c-2.25294,-23.17495 -13.98465,-46.06019 -10.63018,-69.85136c1.7997,-12.7641 12.93663,-22.52878 17.4448,-33.17407c-6.2017,3.65741 -12.26318,7.53194 -18.61117,11.17229c-3.72719,2.13741 -14.85949,6.31621 -16.27964,11.53807c-3.92868,14.44507 5.75228,30.72623 6.7436,44.7172c0.9811,13.84706 -0.25664,25.55104 -2.84911,37.07003c6.76943,-0.59634 13.33188,2.36999 20.0266,0.20435z" fill="url(#color-26)"/><path d="M189.46273,22.2233c2.67099,-8.49498 11.46753,-7.04762 11.46753,-7.04762l4.17217,0.68644c2.10491,0.34635 4.31968,0.81303 6.5975,1.32772c3.99833,-6.90323 7.2666,-14.89156 14.09548,-16.94835c11.23664,-3.38438 25.99536,9.73092 36.52706,12.81931c0,0 3.70814,1.13274 6.00768,4.4515c10.39243,3.25669 25.37849,10.6302 29.98228,15.68638c12.47887,13.70522 6.00869,27.02683 11.41028,42.4595c2.18413,6.24023 8.98085,9.15796 13.33114,13.89075c6.88718,7.49292 13.77145,19.27305 15.55478,29.99774c1.91916,11.54187 -7.13063,32.545 0.87996,42.86527c3.07095,3.95646 7.34541,6.60708 11.01814,9.91067c-1.91084,7.10816 -2.67454,14.70048 -5.73249,21.32444c-0.03654,0.07911 -11.4454,10.86906 -11.18194,15.137c0.23778,3.85174 3.243,7.02187 3.76552,10.84045c2.15386,15.74166 -1.15944,40.12926 -4.57732,55.60322c-2.16671,9.80938 -7.69498,19.05344 -14.63815,25.79371c-3.1004,3.00983 -10.94477,4.90708 -9.29272,9.03976c1.38041,3.45329 6.77308,4.47499 7.15911,8.21414c1.40925,13.64836 -5.92655,25.89769 -15.83594,33.10559c-18.90337,13.74991 -33.94816,1.66522 -53.86244,3.22934c-8.40312,0.65997 -16.93384,1.96512 -25.26826,0.639c-14.72966,1.49937 -41.17809,0.43601 -52.11685,-12.9548c-3.24732,-3.9753 -1.98601,-10.47108 -3.9713,-15.32087c-3.05756,-7.46927 -11.62707,-11.82624 -15.23413,-18.4381c-3.69132,-6.76647 -2.02459,-15.92546 -5.56025,-22.78838c-7.42992,-14.42188 -19.68866,-30.11751 -20.73025,-47.97639c-0.4398,-7.54118 4.92288,-14.91484 3.6025,-22.3345c-0.89201,-5.01235 -14.47398,-15.72807 -14.96917,-16.98575c-6.72937,-17.09221 2.77091,-46.89236 11.98347,-60.08846c8.52304,-14.51985 -0.6867,-29.9049 7.61182,-46.82068c7.65051,-15.59484 8.10062,-15.42449 21.1129,-23.43548c4.16331,-2.56316 12.36899,-5.38651 15.56072,-10.45118c8.87649,-14.08512 2.07881,-27.47629 21.13123,-35.43127zM219.20562,41.98172c-6.6923,3.93116 -15.73448,1.49488 -23.51375,2.00543c-4.10707,0.26959 -2.95301,8.30375 -4.33983,12.49119c-1.63943,4.9503 -3.01931,10.17872 -5.86344,14.44516c-10.06386,15.09657 -26.88193,14.71993 -35.14397,31.20352c-6.35396,12.67683 1.52918,19.87947 -1.33914,33.59523c-1.17653,5.62599 -4.95397,10.21945 -7.43102,15.32914c-8.15568,10.37512 -6.99419,18.02723 -9.13049,31.33144c-0.34584,2.15384 -2.25745,4.51774 -1.25592,6.41619c1.39952,2.65298 5.41699,2.47028 7.19557,4.84315c3.8678,5.16025 7.82383,10.74795 9.31923,17.19016c2.31252,9.9627 -3.33509,16.46978 -3.19776,25.76688c0.19916,13.47223 13.0325,27.50198 18.28574,38.42591c3.23496,6.72682 1.45394,15.62223 5.17839,22.04624c4.43073,7.6425 12.82406,12.35685 16.24979,20.58094c1.28581,3.08688 -0.75834,7.28177 0.97296,10.10274c1.13756,1.85357 4.05389,0.79433 6.04943,1.33963c11.46832,3.13341 18.4618,4.57338 30.41552,3.35657c13.14008,2.23864 24.35429,-1.29033 37.71614,-0.01572c10.26228,0.9789 19.49917,7.0402 28.83288,0.16699c3.08464,-2.27151 8.75968,-5.56692 7.22797,-9.24358c-1.57904,-3.79046 -7.25151,-5.40896 -7.40458,-9.56343c-0.25999,-7.05886 3.01583,-13.96745 6.31311,-20.06931c3.59173,-6.64673 12.2712,-8.69009 16.10269,-15.17872c1.02678,-1.73884 3.1724,-18.25742 3.22144,-18.84855c0.91093,-10.97313 4.39206,-25.88974 2.80152,-36.82552c-0.74899,-5.14975 -4.32299,-9.84193 -3.96022,-15.04082c0.82354,-11.80257 8.43355,-23.26223 17.89401,-28.56546c-26.93617,-8.67643 -5.52632,-44.90761 -15.52467,-63.74165c-7.47068,-14.07257 -18.2406,-14.95128 -24.73618,-31.35183c-2.8682,-7.24187 -0.13338,-29.00561 -6.20403,-34.26897c-2.29266,-1.98773 -5.71009,-1.6649 -8.35351,-3.054c-4.66675,-2.45226 -9.63512,-8.20971 -15.53374,-8.18384c-7.79981,0.0342 -15.07516,5.07797 -22.87085,5.35986c-5.62158,0.20329 -11.80778,-0.78602 -17.97351,-2.04482z" data-paper-data="{&quot;index&quot;:null}" fill="url(#color-27)"/></g><path d="M189.46273,22.2233c2.67099,-8.49498 11.46753,-7.04762 11.46753,-7.04762l4.17217,0.68644c2.10491,0.34635 4.31968,0.81303 6.5975,1.32772c3.99833,-6.90323 7.2666,-14.89156 14.09548,-16.94835c11.23664,-3.38438 25.99536,9.73092 36.52706,12.81931c0,0 3.70814,1.13274 6.00768,4.4515c10.39243,3.25669 25.37849,10.6302 29.98228,15.68638c12.47887,13.70522 6.00869,27.02683 11.41028,42.4595c2.18413,6.24023 8.98085,9.15796 13.33114,13.89075c6.88718,7.49292 13.77145,19.27305 15.55478,29.99774c1.91916,11.54187 -7.13063,32.545 0.87996,42.86527c3.07095,3.95646 7.34541,6.60708 11.01814,9.91067c-1.91084,7.10816 -2.67454,14.70048 -5.73249,21.32444c-0.03654,0.07911 -11.4454,10.86906 -11.18194,15.137c0.23778,3.85174 3.243,7.02187 3.76552,10.84045c2.15386,15.74166 -1.15944,40.12926 -4.57732,55.60322c-2.16671,9.80938 -7.69498,19.05344 -14.63815,25.79371c-3.1004,3.00983 -10.94477,4.90708 -9.29272,9.03976c1.38041,3.45329 6.77308,4.47499 7.15911,8.21414c1.40925,13.64836 -5.92655,25.89769 -15.83594,33.10559c-18.90337,13.74991 -33.94816,1.66522 -53.86244,3.22934c-8.40312,0.65997 -16.93384,1.96512 -25.26826,0.639c-14.72966,1.49937 -41.17809,0.43601 -52.11685,-12.9548c-3.24732,-3.9753 -1.98601,-10.47108 -3.9713,-15.32087c-3.05756,-7.46927 -11.62707,-11.82624 -15.23413,-18.4381c-3.69132,-6.76647 -2.02459,-15.92546 -5.56025,-22.78838c-7.42992,-14.42188 -19.68866,-30.11751 -20.73025,-47.97639c-0.4398,-7.54118 4.92288,-14.91484 3.6025,-22.3345c-0.89201,-5.01235 -14.47398,-15.72807 -14.96917,-16.98575c-6.72937,-17.09221 2.77091,-46.89236 11.98347,-60.08846c8.52304,-14.51985 -0.6867,-29.9049 7.61182,-46.82068c7.65051,-15.59484 8.10062,-15.42449 21.1129,-23.43548c4.16331,-2.56316 12.36899,-5.38651 15.56072,-10.45118c8.87649,-14.08512 2.07881,-27.47629 21.13123,-35.43127zM219.20562,41.98172c-6.6923,3.93116 -15.73448,1.49488 -23.51375,2.00543c-4.10707,0.26959 -2.95301,8.30375 -4.33983,12.49119c-1.63943,4.9503 -3.01931,10.17872 -5.86344,14.44516c-10.06386,15.09657 -26.88193,14.71993 -35.14397,31.20352c-6.35396,12.67683 1.52918,19.87947 -1.33914,33.59523c-1.17653,5.62599 -4.95397,10.21945 -7.43102,15.32914c-8.15568,10.37512 -6.99419,18.02723 -9.13049,31.33144c-0.34584,2.15384 -2.25745,4.51774 -1.25592,6.41619c1.39952,2.65298 5.41699,2.47028 7.19557,4.84315c3.8678,5.16025 7.82383,10.74795 9.31923,17.19016c2.31252,9.9627 -3.33509,16.46978 -3.19776,25.76688c0.19916,13.47223 13.0325,27.50198 18.28574,38.42591c3.23496,6.72682 1.45394,15.62223 5.17839,22.04624c4.43073,7.6425 12.82406,12.35685 16.24979,20.58094c1.28581,3.08688 -0.75834,7.28177 0.97296,10.10274c1.13756,1.85357 4.05389,0.79433 6.04943,1.33963c11.46832,3.13341 18.4618,4.57338 30.41552,3.35657c13.14008,2.23864 24.35429,-1.29033 37.71614,-0.01572c10.26228,0.9789 19.49917,7.0402 28.83288,0.16699c3.08464,-2.27151 8.75968,-5.56692 7.22797,-9.24358c-1.57904,-3.79046 -7.25151,-5.40896 -7.40458,-9.56343c-0.25999,-7.05886 3.01583,-13.96745 6.31311,-20.06931c3.59173,-6.64673 12.2712,-8.69009 16.10269,-15.17872c1.02678,-1.73884 3.1724,-18.25742 3.22144,-18.84855c0.91093,-10.97313 4.39206,-25.88974 2.80152,-36.82552c-0.74899,-5.14975 -4.32299,-9.84193 -3.96022,-15.04082c0.82354,-11.80257 8.43355,-23.26223 17.89401,-28.56546c-26.93617,-8.67643 -5.52632,-44.90761 -15.52467,-63.74165c-7.47068,-14.07257 -18.2406,-14.95128 -24.73618,-31.35183c-2.8682,-7.24187 -0.13338,-29.00561 -6.20403,-34.26897c-2.29266,-1.98773 -5.71009,-1.6649 -8.35351,-3.054c-4.66675,-2.45226 -9.63512,-8.20971 -15.53374,-8.18384c-7.79981,0.0342 -15.07516,5.07797 -22.87085,5.35986c-5.62158,0.20329 -11.80778,-0.78602 -17.97351,-2.04482z" data-paper-data="{&quot;index&quot;:null}" fill="url(#color-28)" stroke="none" stroke-width="0.5"/><path d="M184.14962,357.82018c-21.84205,-8.61543 -13.91917,-22.80711 -24.01223,-37.86261c-3.62917,-5.41357 -13.0411,-8.48289 -17.80742,-11.24304c-14.89686,-8.62669 -15.4158,-8.44901 -24.08715,-25.10077c-9.40584,-18.06224 1.30631,-34.35576 -8.37691,-49.87094c-10.48656,-14.11237 -21.17094,-45.89124 -13.29701,-64.02084c0.57938,-1.33405 16.28121,-12.62516 17.34695,-17.95036c1.57754,-7.88275 -4.52924,-15.7702 -3.96317,-23.78935c1.34057,-18.99077 15.56086,-35.59038 24.2189,-50.87352c4.12012,-7.27276 2.27711,-17.02991 6.57541,-24.19879c4.20013,-7.00512 14.08796,-11.57166 17.66321,-19.49335c2.32141,-5.14357 0.92322,-12.06415 4.68866,-16.26727c12.68419,-14.15816 43.10206,-15.07763 60.02564,-13.36467c9.59323,-1.34406 19.39106,0.11274 29.04734,0.88213c22.88421,1.82336 40.27889,-10.91242 61.90311,3.86674c11.33571,7.74744 19.67204,20.83759 17.94249,35.34607c-0.47386,3.9747 -6.68229,5.01855 -8.29708,8.68122c-1.93257,4.38337 7.07136,6.46449 10.612,9.6913c7.92901,7.22624 14.21125,17.1047 16.6239,27.55777c3.80585,16.48925 7.42007,42.46045 4.81758,59.18988c-0.63133,4.05818 -4.11202,7.40669 -4.41626,11.50244c-0.33708,4.53826 12.69402,16.10847 12.7354,16.19297c3.46284,7.07135 4.28018,15.15453 6.42027,22.7318c-4.2492,3.48509 -9.18502,6.2708 -12.74751,10.45522c-9.29291,10.91507 0.94403,33.33165 -1.355,45.59503c-2.13623,11.39519 -10.14581,23.87223 -18.12446,31.78845c-5.03963,5.00015 -12.87763,8.0498 -15.43881,14.67091c-6.33406,16.37474 0.9985,30.59873 -13.45899,45.07912c-5.33376,5.34219 -22.62311,13.06639 -34.598,16.44786c-2.67041,3.51223 -6.943,4.68764 -6.943,4.68764c-12.13367,3.20125 -29.20768,17.03575 -42.10007,13.34531c-7.83507,-2.24279 -11.52888,-10.76734 -16.07067,-18.14331c-2.62307,0.52927 -5.17327,1.00806 -7.5962,1.35969l-4.80255,0.69686c0,0 -10.12551,1.46932 -13.12854,-7.58938zM218.50492,337.03828c7.09921,-1.28984 14.21979,-2.29273 20.68164,-2.03145c8.96088,0.36225 17.28539,5.78626 26.25305,5.88513c6.78182,0.07476 12.54036,-6.01048 17.92564,-8.582c3.05045,-1.4566 6.97709,-1.08582 9.62902,-3.18207c7.02198,-5.55079 4.05181,-28.72588 7.40756,-36.4072c7.5997,-17.39569 19.98956,-18.24422 28.69165,-33.15549c11.64647,-19.95644 -12.67959,-58.67227 18.35996,-67.68699c-10.8348,-5.71764 -19.49269,-17.96982 -20.3451,-30.53254c-0.37549,-5.53372 3.77134,-10.49687 4.6737,-15.96942c1.91624,-11.62126 -1.96683,-27.51804 -2.92627,-39.19907c-0.05168,-0.62932 -2.38635,-18.21973 -3.553,-20.07781c-4.35334,-6.9335 -14.3163,-9.17683 -18.3927,-16.27669c-3.74229,-6.5179 -7.45332,-13.89378 -7.09785,-21.40123c0.20924,-4.41845 6.74417,-6.09492 8.59001,-10.11475c1.7905,-3.89915 -4.7081,-7.45035 -8.23648,-9.89159c-10.67648,-7.38675 -21.34517,-1.0125 -33.15217,-0.05321c-15.37317,1.24901 -28.23852,-2.59503 -43.36442,-0.31869c-13.73418,-1.3902 -21.78658,0.08571 -34.99747,3.32736c-2.29877,0.56409 -5.64328,-0.58616 -6.96609,1.37668c-2.01315,2.98721 0.30353,7.46628 -1.19956,10.73998c-4.00464,8.72174 -13.6926,13.66993 -18.84807,21.76489c-4.33361,6.80437 -2.3571,16.28196 -6.13038,23.41234c-6.12745,11.57931 -20.99507,26.40206 -21.33192,40.73286c-0.23241,9.8896 6.20892,16.85734 3.47036,27.43756c-1.77092,6.84161 -6.36412,12.75429 -10.85246,18.21305c-2.06393,2.51017 -6.68159,2.28364 -8.31196,5.09478c-1.16666,2.0116 1.01225,4.54182 1.39267,6.83593c2.34973,14.17077 0.953,22.30212 10.24705,33.40493c2.80708,5.45578 7.11339,10.37279 8.42114,16.36739c3.18802,14.61447 -5.93336,22.21378 1.27068,35.75087c9.36738,17.60218 28.70714,17.33615 40.15731,33.4771c3.23589,4.56156 4.78059,10.13486 6.6259,15.41438c1.56097,4.46587 0.16977,13.00382 4.88973,13.32343c8.94024,0.60539 19.35598,-1.91398 27.01908,2.32173z" fill="url(#color-29)" stroke="none" stroke-width="0.5"/><g><path d="M175.67963,214.36114l0.18604,-51.43955l5.82336,0.02106l-0.18604,51.43955z" fill="url(#color-30)" stroke="none" stroke-width="0"/><path d="M282.76454,214.74846l0.18604,-51.43955l5.82336,0.02106l-0.18604,51.43955z" fill="url(#color-31)" stroke="none" stroke-width="0"/><path d="M147.08056,171.2831l0.03698,-10.22129l171.07238,0.61874l-0.03698,10.22129z" fill="url(#color-32)" stroke="none" stroke-width="0"/><g stroke-width="0"><path d="M310.99115,167.54417c-0.05263,14.55353 -11.37276,26.31074 -25.28428,26.26043c-13.9115,-0.0503 -25.14626,-11.88912 -25.09361,-26.44263c0.05263,-14.55353 11.37276,-26.31074 25.28423,-26.26041c13.9115,0.0503 25.1463,11.88903 25.09366,26.44262z" fill="url(#color-33)" stroke="none"/><g stroke="#a70000"><path d="M296.02396,167.86648c-0.02103,5.81746 -4.63005,10.51688 -10.29447,10.4964c-5.66446,-0.02049 -10.23932,-4.75312 -10.21828,-10.57058c0.02103,-5.81746 4.63002,-10.51697 10.29448,-10.49648c5.66446,0.02049 10.23932,4.75319 10.21829,10.57067z" fill="#960000"/><path d="M293.57562,167.85762c-0.01601,4.42883 -3.52477,8.00638 -7.83709,7.99078c-4.31226,-0.01561 -7.79507,-3.6185 -7.77905,-8.04727c0.01601,-4.42883 3.52477,-8.00645 7.83705,-7.99084c4.31226,0.01561 7.79509,3.61855 7.77908,8.04733z" fill="#000000"/></g><path d="M310.99115,167.54417c-0.00038,0.10697 -12.73192,-6.00504 -25.40543,-5.9647c-12.51506,0.03987 -24.97411,6.23563 -24.97247,5.78247c0.05263,-14.55353 11.37276,-26.31074 25.28423,-26.26041c13.9115,0.0503 25.1463,11.88903 25.09366,26.44262z" fill="url(#color-34)" stroke="none"/></g><path d="M212.68241,279.77498l0.04199,-5.39604l37.05768,0.28855l-0.04205,5.39604z" fill="url(#color-35)" stroke="none" stroke-width="0"/><path d="M245.76684,281.45933l0.40298,-62.10189l6.48025,0.06262l-0.40298,62.10189z" fill="url(#color-36)" stroke="none" stroke-width="0"/><path d="M210.87288,281.12204l0.40296,-62.10181l6.48025,0.06259l-0.40298,62.10189z" fill="url(#color-37)" stroke="none" stroke-width="0"/><g stroke="none" stroke-width="0"><path d="M218.9993,324.53828l0.40554,-52.08962l24.82162,0.19329l-0.40547,52.08962z" fill="url(#color-38)"/><path d="M218.9993,324.53828l0.05107,-6.55831l24.82162,0.19323l-0.05107,6.55831z" fill="#494949"/></g><path d="M156.33281,211.40458l153.01749,0.87639l-0.04345,15.11149l-153.03538,-0.88048z" fill="url(#color-39)" stroke="none" stroke-width="0"/><g><path d="M183.79553,248.79865c-2.381,0.46726 -2.84827,-1.91375 -2.84827,-1.91375l-0.34542,-1.79381c-1.42942,-11.7812 3.94158,-20.81153 -2.25785,-31.29437c-4.00647,-11.07919 -0.29572,-15.5673 0.18325,-26.03823c0.25586,-5.5935 -3.57866,-10.48404 -4.13547,-15.84244c-0.59775,-5.75227 3.38226,-9.26152 4.63945,-14.42446c0,0 0.59701,-2.35181 2.94881,-1.75478c2.35181,0.59701 1.75478,2.94881 1.75478,2.94881c-1.1266,4.30103 -5.03707,8.11231 -4.51736,12.71835c0.62603,5.54839 4.50595,10.65489 4.15901,16.53994c-0.58519,9.92549 -4.31946,13.49652 -0.64396,23.78143c6.76732,11.29123 1.19111,20.45403 2.68679,32.78119l0.28995,1.44373c0,0 0.46719,2.38101 -1.91375,2.84827z" fill="url(#color-40)" stroke="none" stroke-width="0.5"/><path d="M176.85614,246.87953c-2.42639,-0.00877 -2.41762,-2.43518 -2.41762,-2.43518l0.00703,-1.94112c0.17643,-11.13237 9.45222,-16.87246 9.48265,-27.78871c0.08791,-12.05617 -7.24973,-19.84138 -12.55472,-29.65053c-3.78348,-6.99583 -2.65695,-18.33683 -1.78772,-25.99187c0,0 0.27668,-2.41057 2.68729,-2.1339c2.41057,0.27668 2.1339,2.68729 2.1339,2.68729c-0.6566,5.6546 -1.68746,14.82438 0.14709,20.33861c4.12231,12.3905 14.23246,20.30233 14.227,34.76796c-0.0504,11.18222 -9.62499,17.1452 -9.48265,27.78871l-0.00703,1.94112c0,0 -0.00877,2.42639 -2.43518,2.41762z" fill="url(#color-41)" stroke="none" stroke-width="0.5"/><g stroke-width="0"><path d="M198.09749,252.54606c-0.05263,14.55353 -11.37276,26.31074 -25.28428,26.26043c-13.9115,-0.0503 -25.14626,-11.88904 -25.09361,-26.44263c0.05263,-14.55353 11.37276,-26.31074 25.28423,-26.26041c13.9115,0.0503 25.1463,11.88911 25.09366,26.44262z" fill="url(#color-42)" stroke="none"/><g stroke="#a70000"><path d="M176.9413,264.49286c-0.02103,5.81746 -4.63002,10.51689 -10.29447,10.4964c-5.66446,-0.02049 -10.23932,-4.75312 -10.21828,-10.57058c0.02103,-5.81746 4.63002,-10.51689 10.29447,-10.4964c5.66446,0.02049 10.23932,4.75312 10.21828,10.57058z" fill="#960000"/><path d="M174.49305,264.484c-0.01601,4.42883 -3.52475,8.00638 -7.83706,7.99079c-4.31226,-0.01561 -7.79507,-3.6185 -7.77905,-8.04727c0.01601,-4.42883 3.52477,-8.00645 7.83705,-7.99084c4.31226,0.01561 7.79507,3.61855 7.77906,8.04733z" fill="#000000"/></g></g></g><path d="M204.22974,167.15804c-0.00038,0.10697 -12.74363,-2.76988 -25.41713,-2.7295c-12.51506,0.03987 -24.96241,3.00045 -24.96077,2.54729c0.05263,-14.55353 11.37276,-26.31074 25.28423,-26.26041c13.9115,0.0503 25.1463,11.88903 25.09366,26.44262z" fill="url(#color-43)" stroke="none" stroke-width="0"/></g><path d="M127.91598,122.71147c-1.66082,-5.43721 4.2265,-6.9677 4.2265,-6.9677l3.82743,-0.89441c24.1528,-10.89895 45.15022,-24.77044 73.34198,-24.73979c1.11952,0.27949 2.27386,0.61401 3.45245,0.96904c0.51897,-1.80526 0.81525,-3.54377 0.78855,-5.16102c-0.18863,-11.43138 -7.46951,-19.72427 -10.18538,-30.12672c-4.44485,-17.02494 11.29274,-34.31227 24.90723,-43.16679c0,0 5.02305,-3.22105 8.51427,1.41906c3.49119,4.64009 -1.53185,7.86119 -1.53185,7.86119c-9.01917,5.6837 -23.67989,19.5133 -19.97331,31.33413c3.50498,11.1778 10.70716,20.56989 10.49773,33.02566c-0.04422,2.62963 -0.40459,5.2084 -0.99579,7.75228c1.33138,0.12765 2.65059,0.14548 3.94394,0.00905c5.2585,-0.55459 9.70959,-2.48957 13.87534,-4.88693c3.58731,-15.16057 -5.96818,-30.30742 0.8843,-45.12799c3.53313,-7.64148 12.61304,-14.70129 18.56052,-20.76081c0,0 4.1073,-4.18362 8.64044,-0.38855c4.53314,3.79506 0.42582,7.97876 0.42582,7.97876c-4.98756,5.0791 -13.51475,11.3534 -16.43111,17.73159c-4.62615,10.11776 -0.59473,21.49856 0.23338,32.81828c2.57986,-1.49733 5.25481,-2.8119 8.15295,-3.71889c8.37153,-2.61985 17.59445,2.28126 25.42618,-3.54884c6.9438,-5.16916 19.08437,-18.70182 16.62381,-26.52059c0,0 -1.17965,-5.54315 4.82269,-6.62923c6.00231,-1.08605 7.18195,4.45707 7.18195,4.45707c2.40487,14.89753 -14.0042,36.75293 -30.00581,41.75866c-6.32543,1.97873 -14.61424,-0.68159 -20.2188,1.21415c-4.5936,1.55377 -9.57772,6.2569 -14.19959,8.98937c-7.98957,21.38316 -17.04069,33.08092 -8.76466,56.23655c4.91598,10.05362 10.55403,18.19534 7.83625,29.71373c-1.78959,7.58498 -9.9626,18.15527 -9.02607,25.98607c1.6553,13.83953 7.25998,21.20816 2.41687,36.1723l-1.33648,4.89122c0,0 -1.50342,5.47451 -7.43298,4.08302c-5.92949,-1.3914 -4.42607,-6.8659 -4.42607,-6.8659l1.48897,-5.39689c4.61684,-13.7736 -1.78435,-19.14565 -2.91265,-32.07372c-1.05244,-12.05933 10.43849,-22.83807 9.87953,-34.78713c-0.27334,-5.84287 -5.39718,-12.51248 -7.89006,-17.63465c-8.01143,-22.47396 -2.50092,-35.77966 4.91544,-54.47879c-5.37734,1.21673 -10.51554,1.40941 -16.05466,0.7968c-5.42006,12.73423 -13.93569,25.10252 -13.98685,39.2507c1.63612,5.98422 4.89211,12.94646 6.11784,18.84916c1.76337,8.49157 -3.11759,19.99243 -0.18993,27.98465c3.85627,10.52754 5.98773,16.15985 3.48808,27.73051l-1.23385,2.70119c0,0 -2.75394,5.04223 -8.21607,2.49636c-5.46215,-2.54583 -2.70826,-7.58814 -2.70826,-7.58814l0.16952,0.13167c2.36611,-10.49027 -0.27421,-12.9452 -3.30067,-22.49866c-2.83691,-8.95516 2.00209,-19.60652 0.01494,-28.65573c-1.38708,-6.31647 -4.60949,-13.38576 -6.28918,-19.81467c0.03878,-10.72252 2.16929,-21.81854 6.80822,-31.79132c1.49874,-3.22203 3.91986,-7.21609 6.15355,-11.37874c-0.19098,-0.04957 -0.38277,-0.09971 -0.57524,-0.15039c-24.70697,-0.17681 -45.16152,13.92611 -66.24284,23.67274l-5.94047,1.6448c0,0 -5.88734,1.53051 -7.54817,-3.90671z" fill="url(#color-44)" stroke="none" stroke-width="0.5"/><path d="M351.07282,112.14127c0.73063,6.02189 -5.29127,6.7525 -5.29127,6.7525l-5.73546,0.69245c-17.025,1.38569 -28.66753,14.13358 -45.26002,17.06346c-10.83053,1.91238 -26.33822,-1.70029 -36.33522,1.69224c-11.42794,3.87815 -17.58666,29.79759 -19.8976,39.76701c-3.96675,7.94992 -9.06259,16.76561 -15.42248,24.35597c0.75075,-0.00767 1.49992,-0.01029 2.24727,-0.00727c18.80002,1.71226 25.67962,13.4043 38.92327,25.1388c3.00193,2.65983 8.52096,11.86542 12.56083,12.53133c13.35897,2.20196 27.1361,-3.51696 40.74908,-2.0523c8.50776,0.91537 15.32419,6.2587 23.06479,9.49978c0,0 5.59095,2.35332 3.23763,7.94425c-2.35332,5.59095 -7.94425,3.23759 -7.94425,3.23759c-6.00203,-2.5384 -13.11512,-8.11787 -19.72557,-8.62688c-13.51292,-1.04051 -29.06685,5.41747 -42.21174,1.79498c-20.20372,-5.5678 -26.2644,-35.8299 -49.16339,-37.3461c-5.19353,-0.0165 -10.50818,0.26649 -15.86565,0.61469c-5.64866,3.56657 -11.95983,5.8632 -18.97994,6.17275c-10.67113,0.47058 -17.54924,-6.1608 -28.6391,-3.69064c-18.14729,4.04212 -29.65715,17.3439 -49.511,13.66178c0,0 -5.94392,-1.2112 -4.73272,-7.15504c1.2112,-5.94385 7.15504,-4.7328 7.15504,-4.7328c12.17235,2.8097 22.74437,-4.43598 33.66935,-9.62876c-12.30611,-3.45426 -24.62196,-5.73112 -37.41349,1.51194l-3.63989,0.7502c0,0 -6.06596,-0.02194 -6.04403,-6.08791c0.01635,-4.52052 3.3893,-5.6601 5.10693,-5.9473c13.16273,-6.49473 32.22801,-7.13074 46.47526,-3.95107c7.56125,1.68749 13.16145,6.85705 20.75626,7.57953c10.4488,0.99394 21.30818,0.27675 32.10841,-0.40582c9.76726,-7.29419 16.99348,-19.81262 21.82119,-29.26213c3.26614,-14.88547 11.43796,-41.1323 27.42001,-47.15607c10.46917,-3.94588 27.08453,-0.35934 38.33098,-2.18506c16.77746,-2.72354 28.4521,-15.54041 46.10539,-17.16727l5.32893,-0.65004c0,0 6.02184,-0.73064 6.7525,5.29127z" fill="url(#color-45)" stroke="none" stroke-width="0.5"/><path d="M184.14962,357.82018c-21.84205,-8.61543 -13.91917,-22.80711 -24.01223,-37.86261c-3.62917,-5.41357 -13.0411,-8.48289 -17.80742,-11.24304c-14.89686,-8.62669 -15.4158,-8.44901 -24.08715,-25.10077c-9.40584,-18.06224 1.30631,-34.35576 -8.37691,-49.87094c-10.48656,-14.11237 -21.17094,-45.89124 -13.29701,-64.02084c0.57938,-1.33405 16.28121,-12.62516 17.34695,-17.95036c1.57754,-7.88275 -4.52924,-15.7702 -3.96317,-23.78935c1.34057,-18.99077 15.56086,-35.59038 24.2189,-50.87352c4.12012,-7.27276 2.27711,-17.02991 6.57541,-24.19879c4.20013,-7.00512 14.08796,-11.57166 17.66321,-19.49335c2.32141,-5.14357 0.92322,-12.06415 4.68866,-16.26727c12.68419,-14.15816 43.10206,-15.07763 60.02564,-13.36467c9.59323,-1.34406 19.39106,0.11274 29.04734,0.88213c22.88421,1.82336 40.27889,-10.91242 61.90311,3.86674c11.33571,7.74744 19.67204,20.83759 17.94249,35.34607c-0.47386,3.9747 -6.68229,5.01855 -8.29708,8.68122c-1.93257,4.38337 7.07136,6.46449 10.612,9.6913c7.92901,7.22624 14.21125,17.1047 16.6239,27.55777c3.80585,16.48925 7.42007,42.46045 4.81758,59.18988c-0.63133,4.05818 -4.11202,7.40669 -4.41626,11.50244c-0.33708,4.53826 12.69402,16.10847 12.7354,16.19297c3.46284,7.07135 4.28018,15.15453 6.42027,22.7318c-4.2492,3.48509 -9.18502,6.2708 -12.74751,10.45522c-9.29291,10.91507 0.94403,33.33165 -1.355,45.59503c-2.13623,11.39519 -10.14581,23.87223 -18.12446,31.78845c-5.03963,5.00015 -12.87763,8.0498 -15.43881,14.67091c-6.33406,16.37474 0.9985,30.59873 -13.45899,45.07912c-5.33376,5.34219 -22.62311,13.06639 -34.598,16.44786c-2.67041,3.51223 -6.943,4.68764 -6.943,4.68764c-12.13367,3.20125 -29.20768,17.03575 -42.10007,13.34531c-7.83507,-2.24279 -11.52888,-10.76734 -16.07067,-18.14331c-2.62307,0.52927 -5.17327,1.00806 -7.5962,1.35969l-4.80255,0.69686c0,0 -10.12551,1.46932 -13.12854,-7.58938zM218.50492,337.03828c7.09921,-1.28984 14.21979,-2.29273 20.68164,-2.03145c8.96088,0.36225 17.28539,5.78626 26.25305,5.88513c6.78182,0.07476 12.54036,-6.01048 17.92564,-8.582c3.05045,-1.4566 6.97709,-1.08582 9.62902,-3.18207c7.02198,-5.55079 4.05181,-28.72588 7.40756,-36.4072c7.5997,-17.39569 19.98956,-18.24422 28.69165,-33.15549c11.64647,-19.95644 -12.67959,-58.67227 18.35996,-67.68699c-10.8348,-5.71764 -19.49269,-17.96982 -20.3451,-30.53254c-0.37549,-5.53372 3.77134,-10.49687 4.6737,-15.96942c1.91624,-11.62126 -1.96683,-27.51804 -2.92627,-39.19907c-0.05168,-0.62932 -2.38635,-18.21973 -3.553,-20.07781c-4.35334,-6.9335 -14.3163,-9.17683 -18.3927,-16.27669c-3.74229,-6.5179 -7.45332,-13.89378 -7.09785,-21.40123c0.20924,-4.41845 6.74417,-6.09492 8.59001,-10.11475c1.7905,-3.89915 -4.7081,-7.45035 -8.23648,-9.89159c-10.67648,-7.38675 -21.34517,-1.0125 -33.15217,-0.05321c-15.37317,1.24901 -28.23852,-2.59503 -43.36442,-0.31869c-13.73418,-1.3902 -21.78658,0.08571 -34.99747,3.32736c-2.29877,0.56409 -5.64328,-0.58616 -6.96609,1.37668c-2.01315,2.98721 0.30353,7.46628 -1.19956,10.73998c-4.00464,8.72174 -13.6926,13.66993 -18.84807,21.76489c-4.33361,6.80437 -2.3571,16.28196 -6.13038,23.41234c-6.12745,11.57931 -20.99507,26.40206 -21.33192,40.73286c-0.23241,9.8896 6.20892,16.85734 3.47036,27.43756c-1.77092,6.84161 -6.36412,12.75429 -10.85246,18.21305c-2.06393,2.51017 -6.68159,2.28364 -8.31196,5.09478c-1.16666,2.0116 1.01225,4.54182 1.39267,6.83593c2.34973,14.17077 0.953,22.30212 10.24705,33.40493c2.80708,5.45578 7.11339,10.37279 8.42114,16.36739c3.18802,14.61447 -5.93336,22.21378 1.27068,35.75087c9.36738,17.60218 28.70714,17.33615 40.15731,33.4771c3.23589,4.56156 4.78059,10.13486 6.6259,15.41438c1.56097,4.46587 0.16977,13.00382 4.88973,13.32343c8.94024,0.60539 19.35598,-1.91398 27.01908,2.32173z" fill="url(#color-46)" stroke="none" stroke-width="0.5"/></g><g stroke="none" stroke-width="0"><path d="M285.75071,128.77317c21.44307,0.07756 38.76131,18.07242 38.68131,40.19264c-0.08001,22.12022 -17.52793,39.98935 -38.97102,39.91178c-21.44307,-0.07756 -38.76131,-18.07242 -38.68131,-40.19264c0.08001,-22.12022 17.52793,-39.98935 38.97102,-39.91178z" fill="url(#color-47)"/><path d="M285.61499,166.29578c1.35431,0.00491 2.44806,1.1414 2.44301,2.53848c-0.00505,1.39705 -1.10707,2.52564 -2.46131,2.52075c-1.35431,-0.00491 -2.44806,-1.1414 -2.44301,-2.53848c0.00505,-1.39705 1.10707,-2.52564 2.46131,-2.52075z" fill="#ffffff"/></g></g></g></g></svg>