<svg version="1.1" xmlns="http://www.w3.org/2000/svg" xmlns:xlink="http://www.w3.org/1999/xlink" width="416.53" height="228.67561" viewBox="0,0,416.53,228.67561"><defs><linearGradient x1="224.7648" y1="217.67837" x2="227.25656" y2="217.68238" gradientUnits="userSpaceOnUse" id="color-1"><stop offset="0" stop-color="#b1b1b1"/><stop offset="1" stop-color="#dedede"/></linearGradient><radialGradient cx="225.95791" cy="231.98982" r="2.55711" gradientUnits="userSpaceOnUse" id="color-2"><stop offset="0" stop-color="#858585"/><stop offset="1" stop-color="#474747"/></radialGradient><linearGradient x1="221.34319" y1="226.93911" x2="230.45368" y2="226.95376" gradientUnits="userSpaceOnUse" id="color-3"><stop offset="0" stop-color="#b1b1b1"/><stop offset="1" stop-color="#dedede"/></linearGradient><linearGradient x1="221.25439" y1="209.53556" x2="230.36487" y2="209.55022" gradientUnits="userSpaceOnUse" id="color-4"><stop offset="0" stop-color="#b1b1b1"/><stop offset="1" stop-color="#dedede"/></linearGradient><linearGradient x1="221.35749" y1="218.06223" x2="230.46796" y2="218.07689" gradientUnits="userSpaceOnUse" id="color-5"><stop offset="0" stop-color="#b1b1b1"/><stop offset="1" stop-color="#dedede"/></linearGradient><linearGradient x1="256.97341" y1="217.52035" x2="254.49176" y2="217.74451" gradientUnits="userSpaceOnUse" id="color-6"><stop offset="0" stop-color="#b1b1b1"/><stop offset="1" stop-color="#dedede"/></linearGradient><radialGradient cx="257.04947" cy="231.88125" r="2.55711" gradientUnits="userSpaceOnUse" id="color-7"><stop offset="0" stop-color="#858585"/><stop offset="1" stop-color="#474747"/></radialGradient><linearGradient x1="261.19988" y1="226.44255" x2="252.12631" y2="227.26211" gradientUnits="userSpaceOnUse" id="color-8"><stop offset="0" stop-color="#b1b1b1"/><stop offset="1" stop-color="#dedede"/></linearGradient><linearGradient x1="259.75063" y1="209.09922" x2="250.67708" y2="209.91879" gradientUnits="userSpaceOnUse" id="color-9"><stop offset="0" stop-color="#b1b1b1"/><stop offset="1" stop-color="#dedede"/></linearGradient><linearGradient x1="260.40132" y1="217.60165" x2="251.32777" y2="218.42121" gradientUnits="userSpaceOnUse" id="color-10"><stop offset="0" stop-color="#b1b1b1"/><stop offset="1" stop-color="#dedede"/></linearGradient><linearGradient x1="225.38269" y1="189.09057" x2="227.87423" y2="189.12368" gradientUnits="userSpaceOnUse" id="color-11"><stop offset="0" stop-color="#b1b1b1"/><stop offset="1" stop-color="#dedede"/></linearGradient><radialGradient cx="226.40856" cy="203.41498" r="2.55711" gradientUnits="userSpaceOnUse" id="color-12"><stop offset="0" stop-color="#858585"/><stop offset="1" stop-color="#474747"/></radialGradient><linearGradient x1="221.85316" y1="198.31071" x2="230.96284" y2="198.43177" gradientUnits="userSpaceOnUse" id="color-13"><stop offset="0" stop-color="#b1b1b1"/><stop offset="1" stop-color="#dedede"/></linearGradient><linearGradient x1="221.96763" y1="180.90732" x2="231.07732" y2="181.02839" gradientUnits="userSpaceOnUse" id="color-14"><stop offset="0" stop-color="#b1b1b1"/><stop offset="1" stop-color="#dedede"/></linearGradient><linearGradient x1="221.97112" y1="189.4346" x2="231.08081" y2="189.55567" gradientUnits="userSpaceOnUse" id="color-15"><stop offset="0" stop-color="#b1b1b1"/><stop offset="1" stop-color="#dedede"/></linearGradient><linearGradient x1="253.83205" y1="189.09895" x2="251.35318" y2="189.35208" gradientUnits="userSpaceOnUse" id="color-16"><stop offset="0" stop-color="#b1b1b1"/><stop offset="1" stop-color="#dedede"/></linearGradient><radialGradient cx="254.07583" cy="203.45798" r="2.55711" gradientUnits="userSpaceOnUse" id="color-17"><stop offset="0" stop-color="#858585"/><stop offset="1" stop-color="#474747"/></radialGradient><linearGradient x1="258.16243" y1="197.97118" x2="249.09907" y2="198.89665" gradientUnits="userSpaceOnUse" id="color-18"><stop offset="0" stop-color="#b1b1b1"/><stop offset="1" stop-color="#dedede"/></linearGradient><linearGradient x1="256.51072" y1="180.64597" x2="247.44735" y2="181.57145" gradientUnits="userSpaceOnUse" id="color-19"><stop offset="0" stop-color="#b1b1b1"/><stop offset="1" stop-color="#dedede"/></linearGradient><linearGradient x1="257.26067" y1="189.14021" x2="248.19732" y2="190.06569" gradientUnits="userSpaceOnUse" id="color-20"><stop offset="0" stop-color="#b1b1b1"/><stop offset="1" stop-color="#dedede"/></linearGradient><linearGradient x1="293.2418" y1="151.42853" x2="290.90016" y2="152.28033" gradientUnits="userSpaceOnUse" id="color-21"><stop offset="0" stop-color="#b1b1b1"/><stop offset="1" stop-color="#dedede"/></linearGradient><radialGradient cx="296.99058" cy="165.29171" r="2.55711" gradientUnits="userSpaceOnUse" id="color-22"><stop offset="0" stop-color="#858585"/><stop offset="1" stop-color="#474747"/></radialGradient><linearGradient x1="299.61089" y1="158.97195" x2="291.04925" y2="162.08634" gradientUnits="userSpaceOnUse" id="color-23"><stop offset="0" stop-color="#b1b1b1"/><stop offset="1" stop-color="#dedede"/></linearGradient><linearGradient x1="293.77139" y1="142.5771" x2="285.20974" y2="145.69148" gradientUnits="userSpaceOnUse" id="color-24"><stop offset="0" stop-color="#b1b1b1"/><stop offset="1" stop-color="#dedede"/></linearGradient><linearGradient x1="296.57637" y1="150.62985" x2="288.01473" y2="153.74423" gradientUnits="userSpaceOnUse" id="color-25"><stop offset="0" stop-color="#b1b1b1"/><stop offset="1" stop-color="#dedede"/></linearGradient><linearGradient x1="278.74811" y1="126.2366" x2="276.79668" y2="127.78605" gradientUnits="userSpaceOnUse" id="color-26"><stop offset="0" stop-color="#b1b1b1"/><stop offset="1" stop-color="#dedede"/></linearGradient><radialGradient cx="286.69381" cy="138.19933" r="2.55711" gradientUnits="userSpaceOnUse" id="color-27"><stop offset="0" stop-color="#858585"/><stop offset="1" stop-color="#474747"/></radialGradient><linearGradient x1="287.17811" y1="131.37505" x2="280.04321" y2="137.04024" gradientUnits="userSpaceOnUse" id="color-28"><stop offset="0" stop-color="#b1b1b1"/><stop offset="1" stop-color="#dedede"/></linearGradient><linearGradient x1="276.44761" y1="117.67295" x2="269.31272" y2="123.33814" gradientUnits="userSpaceOnUse" id="color-29"><stop offset="0" stop-color="#b1b1b1"/><stop offset="1" stop-color="#dedede"/></linearGradient><linearGradient x1="281.65817" y1="124.42311" x2="274.52328" y2="130.0883" gradientUnits="userSpaceOnUse" id="color-30"><stop offset="0" stop-color="#b1b1b1"/><stop offset="1" stop-color="#dedede"/></linearGradient><linearGradient x1="186.94515" y1="101.81512" x2="189.40319" y2="101.40658" gradientUnits="userSpaceOnUse" id="color-31"><stop offset="0" stop-color="#b1b1b1"/><stop offset="1" stop-color="#dedede"/></linearGradient><radialGradient cx="185.79868" cy="87.49986" r="2.55711" gradientUnits="userSpaceOnUse" id="color-32"><stop offset="0" stop-color="#858585"/><stop offset="1" stop-color="#474747"/></radialGradient><linearGradient x1="182.0653" y1="93.23283" x2="191.05249" y2="91.73912" gradientUnits="userSpaceOnUse" id="color-33"><stop offset="0" stop-color="#b1b1b1"/><stop offset="1" stop-color="#dedede"/></linearGradient><linearGradient x1="184.80346" y1="110.41985" x2="193.79067" y2="108.92613" gradientUnits="userSpaceOnUse" id="color-34"><stop offset="0" stop-color="#b1b1b1"/><stop offset="1" stop-color="#dedede"/></linearGradient><linearGradient x1="183.52071" y1="101.9896" x2="192.50791" y2="100.49587" gradientUnits="userSpaceOnUse" id="color-35"><stop offset="0" stop-color="#b1b1b1"/><stop offset="1" stop-color="#dedede"/></linearGradient><linearGradient x1="203.04081" y1="112.32679" x2="203.23911" y2="114.81064" gradientUnits="userSpaceOnUse" id="color-36"><stop offset="0" stop-color="#b1b1b1"/><stop offset="1" stop-color="#dedede"/></linearGradient><radialGradient cx="188.87346" cy="114.67781" r="2.55711" gradientUnits="userSpaceOnUse" id="color-37"><stop offset="0" stop-color="#858585"/><stop offset="1" stop-color="#474747"/></radialGradient><linearGradient x1="193.53286" y1="109.6683" x2="194.25788" y2="118.7499" gradientUnits="userSpaceOnUse" id="color-38"><stop offset="0" stop-color="#b1b1b1"/><stop offset="1" stop-color="#dedede"/></linearGradient><linearGradient x1="210.87174" y1="108.1669" x2="211.59676" y2="117.2485" gradientUnits="userSpaceOnUse" id="color-39"><stop offset="0" stop-color="#b1b1b1"/><stop offset="1" stop-color="#dedede"/></linearGradient><linearGradient x1="202.3816" y1="108.96188" x2="203.10661" y2="118.04347" gradientUnits="userSpaceOnUse" id="color-40"><stop offset="0" stop-color="#b1b1b1"/><stop offset="1" stop-color="#dedede"/></linearGradient><linearGradient x1="241.2069" y1="102.07062" x2="244.05019" y2="102.22374" gradientUnits="userSpaceOnUse" id="color-41"><stop offset="0" stop-color="#b1b1b1"/><stop offset="1" stop-color="#dedede"/></linearGradient><linearGradient x1="225.6296" y1="131.95887" x2="256.31593" y2="133.61141" gradientUnits="userSpaceOnUse" id="color-42"><stop offset="0" stop-color="#b1b1b1"/><stop offset="1" stop-color="#dedede"/></linearGradient><linearGradient x1="227.02402" y1="132.04159" x2="228.8373" y2="132.13924" gradientUnits="userSpaceOnUse" id="color-43"><stop offset="0" stop-color="#858585"/><stop offset="1" stop-color="#474747"/></linearGradient><linearGradient x1="231.7333" y1="132.514" x2="233.54659" y2="132.61165" gradientUnits="userSpaceOnUse" id="color-44"><stop offset="0" stop-color="#858585"/><stop offset="1" stop-color="#474747"/></linearGradient><linearGradient x1="248.2255" y1="133.24467" x2="250.03879" y2="133.34232" gradientUnits="userSpaceOnUse" id="color-45"><stop offset="0" stop-color="#858585"/><stop offset="1" stop-color="#474747"/></linearGradient><linearGradient x1="252.93479" y1="133.71707" x2="254.74806" y2="133.81472" gradientUnits="userSpaceOnUse" id="color-46"><stop offset="0" stop-color="#858585"/><stop offset="1" stop-color="#474747"/></linearGradient><linearGradient x1="225.04353" y1="140.3476" x2="255.72987" y2="142.00014" gradientUnits="userSpaceOnUse" id="color-47"><stop offset="0" stop-color="#b1b1b1"/><stop offset="1" stop-color="#dedede"/></linearGradient><linearGradient x1="226.43795" y1="140.43032" x2="228.25123" y2="140.52797" gradientUnits="userSpaceOnUse" id="color-48"><stop offset="0" stop-color="#858585"/><stop offset="1" stop-color="#474747"/></linearGradient><linearGradient x1="231.14723" y1="140.90274" x2="232.96052" y2="141.00039" gradientUnits="userSpaceOnUse" id="color-49"><stop offset="0" stop-color="#858585"/><stop offset="1" stop-color="#474747"/></linearGradient><linearGradient x1="247.63944" y1="141.6334" x2="249.45271" y2="141.73105" gradientUnits="userSpaceOnUse" id="color-50"><stop offset="0" stop-color="#858585"/><stop offset="1" stop-color="#474747"/></linearGradient><linearGradient x1="252.34872" y1="142.10582" x2="254.162" y2="142.20347" gradientUnits="userSpaceOnUse" id="color-51"><stop offset="0" stop-color="#858585"/><stop offset="1" stop-color="#474747"/></linearGradient><linearGradient x1="225.86026" y1="123.55099" x2="256.54659" y2="125.20353" gradientUnits="userSpaceOnUse" id="color-52"><stop offset="0" stop-color="#b1b1b1"/><stop offset="1" stop-color="#dedede"/></linearGradient><linearGradient x1="227.25468" y1="123.63372" x2="229.06796" y2="123.73137" gradientUnits="userSpaceOnUse" id="color-53"><stop offset="0" stop-color="#858585"/><stop offset="1" stop-color="#474747"/></linearGradient><linearGradient x1="231.96396" y1="124.10614" x2="233.77724" y2="124.20379" gradientUnits="userSpaceOnUse" id="color-54"><stop offset="0" stop-color="#858585"/><stop offset="1" stop-color="#474747"/></linearGradient><linearGradient x1="248.45617" y1="124.83679" x2="250.26945" y2="124.93444" gradientUnits="userSpaceOnUse" id="color-55"><stop offset="0" stop-color="#858585"/><stop offset="1" stop-color="#474747"/></linearGradient><linearGradient x1="253.16544" y1="125.30921" x2="254.97872" y2="125.40686" gradientUnits="userSpaceOnUse" id="color-56"><stop offset="0" stop-color="#858585"/><stop offset="1" stop-color="#474747"/></linearGradient><linearGradient x1="217.42822" y1="112.54005" x2="266.38479" y2="115.17649" gradientUnits="userSpaceOnUse" id="color-57"><stop offset="0" stop-color="#b1b1b1"/><stop offset="1" stop-color="#dedede"/></linearGradient><radialGradient cx="216.45568" cy="112.36494" r="3.5545" gradientUnits="userSpaceOnUse" id="color-58"><stop offset="0" stop-color="#858585"/><stop offset="1" stop-color="#474747"/></radialGradient><radialGradient cx="268.46375" cy="115.28666" r="3.55449" gradientUnits="userSpaceOnUse" id="color-59"><stop offset="0" stop-color="#858585"/><stop offset="1" stop-color="#474747"/></radialGradient><linearGradient x1="237.52282" y1="141.68043" x2="243.5206" y2="142.00343" gradientUnits="userSpaceOnUse" id="color-60"><stop offset="0" stop-color="#b1b1b1"/><stop offset="1" stop-color="#dedede"/></linearGradient><radialGradient cx="242.1006" cy="113.82221" r="16.62257" gradientUnits="userSpaceOnUse" id="color-61"><stop offset="0" stop-color="#b5b5b5"/><stop offset="1" stop-color="#787878"/></radialGradient><radialGradient cx="226.64407" cy="174.28103" r="2.55711" gradientUnits="userSpaceOnUse" id="color-62"><stop offset="0" stop-color="#858585"/><stop offset="1" stop-color="#474747"/></radialGradient><radialGradient cx="251.42359" cy="175.48539" r="2.55711" gradientUnits="userSpaceOnUse" id="color-63"><stop offset="0" stop-color="#858585"/><stop offset="1" stop-color="#474747"/></radialGradient><linearGradient x1="239.31981" y1="94.73028" x2="246.77755" y2="95.1319" gradientUnits="userSpaceOnUse" id="color-64"><stop offset="0" stop-color="#b1b1b1"/><stop offset="1" stop-color="#dedede"/></linearGradient><linearGradient x1="231.78387" y1="81.5561" x2="233.08584" y2="80.33079" gradientUnits="userSpaceOnUse" id="color-65"><stop offset="0" stop-color="#b1b1b1"/><stop offset="1" stop-color="#dedede"/></linearGradient><linearGradient x1="256.14223" y1="82.89144" x2="254.97938" y2="81.5334" gradientUnits="userSpaceOnUse" id="color-66"><stop offset="0" stop-color="#b1b1b1"/><stop offset="1" stop-color="#dedede"/></linearGradient><linearGradient x1="244.57867" y1="71.70307" x2="243.69925" y2="88.03311" gradientUnits="userSpaceOnUse" id="color-67"><stop offset="0" stop-color="#b1b1b1"/><stop offset="1" stop-color="#dedede"/></linearGradient><linearGradient x1="227.82596" y1="69.5763" x2="261.7585" y2="71.40365" gradientUnits="userSpaceOnUse" id="color-68"><stop offset="0" stop-color="#b1b1b1"/><stop offset="1" stop-color="#dedede"/></linearGradient><linearGradient x1="244.9148" y1="68.60405" x2="244.7621" y2="71.4395" gradientUnits="userSpaceOnUse" id="color-69"><stop offset="0" stop-color="#515151"/><stop offset="1" stop-color="#878787"/></linearGradient><linearGradient x1="242.20166" y1="74.54301" x2="246.71739" y2="74.78619" gradientUnits="userSpaceOnUse" id="color-70"><stop offset="0" stop-color="#b1b1b1"/><stop offset="1" stop-color="#dedede"/></linearGradient><linearGradient x1="266.4345" y1="61.78152" x2="264.2954" y2="59.71626" gradientUnits="userSpaceOnUse" id="color-71"><stop offset="0" stop-color="#969696"/><stop offset="1" stop-color="#dedede"/></linearGradient><linearGradient x1="224.35226" y1="59.913" x2="226.70079" y2="58.0894" gradientUnits="userSpaceOnUse" id="color-72"><stop offset="0" stop-color="#969696"/><stop offset="1" stop-color="#dedede"/></linearGradient></defs><g transform="translate(-22.25,-20.25)"><g data-paper-data="{&quot;isPaintingLayer&quot;:true}" fill-rule="nonzero" stroke-linecap="butt" stroke-linejoin="miter" stroke-miterlimit="10" stroke-dasharray="" stroke-dashoffset="0" style="mix-blend-mode: normal"><text transform="translate(22.5,42) scale(0.5,0.5)" font-size="40" xml:space="preserve" fill="#dbc2ff" fill-rule="nonzero" stroke="none" stroke-width="1" stroke-linecap="butt" stroke-linejoin="miter" stroke-miterlimit="10" stroke-dasharray="" stroke-dashoffset="0" font-family="Sans Serif" font-weight="normal" text-anchor="start" style="mix-blend-mode: normal"><tspan x="0" dy="0">CHARACTERS</tspan></text><path d="M342.53,181.5v-121h95v121z" fill="#505050" stroke="#ffffff" stroke-width="2.5"/><text transform="translate(359.71133,73.97338) scale(0.28101,0.28101)" font-size="40" xml:space="preserve" fill="#ffffff" fill-rule="nonzero" stroke="none" stroke-width="1" stroke-linecap="butt" stroke-linejoin="miter" stroke-miterlimit="10" stroke-dasharray="" stroke-dashoffset="0" font-family="Sans Serif" font-weight="normal" text-anchor="start" style="mix-blend-mode: normal"><tspan x="0" dy="0">JEREMY KAT</tspan></text><text transform="translate(363.43346,89.72338) scale(0.216,0.216)" font-size="40" xml:space="preserve" fill="#ffffff" fill-rule="nonzero" stroke="none" stroke-width="1" stroke-linecap="butt" stroke-linejoin="miter" stroke-miterlimit="10" stroke-dasharray="" stroke-dashoffset="0" font-family="Sans Serif" font-weight="normal" text-anchor="start" style="mix-blend-mode: normal"><tspan x="0" dy="0">Built in: 2001</tspan></text><text transform="translate(363.43346,104.72338) scale(0.216,0.216)" font-size="40" xml:space="preserve" fill="#ffffff" fill-rule="nonzero" stroke="none" stroke-width="1" stroke-linecap="butt" stroke-linejoin="miter" stroke-miterlimit="10" stroke-dasharray="" stroke-dashoffset="0" font-family="Sans Serif" font-weight="normal" text-anchor="start" style="mix-blend-mode: normal"><tspan x="0" dy="0">Height: 6'11"</tspan></text><text transform="translate(367.93346,135.22338) scale(0.216,0.216)" font-size="40" xml:space="preserve" fill="#ffffff" fill-rule="nonzero" stroke="none" stroke-width="1" stroke-linecap="butt" stroke-linejoin="miter" stroke-miterlimit="10" stroke-dasharray="" stroke-dashoffset="0" font-family="Sans Serif" font-weight="normal" text-anchor="start" style="mix-blend-mode: normal"><tspan x="0" dy="0">Voiced by:</tspan></text><text transform="translate(366.26679,148.39239) scale(0.18842,0.18842)" font-size="40" xml:space="preserve" fill="#ffffff" fill-rule="nonzero" stroke="none" stroke-width="1" stroke-linecap="butt" stroke-linejoin="miter" stroke-miterlimit="10" stroke-dasharray="" stroke-dashoffset="0" font-family="Sans Serif" font-weight="normal" text-anchor="start" style="mix-blend-mode: normal"><tspan x="0" dy="0">@dimber_co</tspan></text><text transform="translate(347.80301,118.61122) scale(0.12332,0.12332)" font-size="40" xml:space="preserve" fill="#ffffff" fill-rule="nonzero" stroke="none" stroke-width="1" stroke-linecap="butt" stroke-linejoin="miter" stroke-miterlimit="10" stroke-dasharray="" stroke-dashoffset="0" font-family="Sans Serif" font-weight="normal" text-anchor="start" style="mix-blend-mode: normal"><tspan x="0" dy="0">Brand: Punchline Entertainment Co.</tspan></text><g><g data-paper-data="{&quot;index&quot;:null}"><path d="M219.44148,231.8082c0,0 -1.54238,-9.31235 -1.53521,-13.76607c0.00675,-4.20069 1.57704,-12.24162 1.57704,-12.24162l12.61451,0.02029c0,0 1.38838,8.23064 1.38166,12.40211c-0.0072,4.47625 -1.4235,13.60558 -1.4235,13.60558z" fill="#909090" stroke="#000000" stroke-width="1.5"/><g stroke="none" stroke-width="0"><path d="M224.74339,230.99368l0.04284,-26.63063l2.49175,0.004l-0.04283,26.63063z" fill="url(#color-1)"/><path d="M228.42684,231.9938c-0.00228,1.41225 -1.1095,2.55533 -2.47304,2.55313c-1.36355,-0.00219 -2.46708,-1.14883 -2.46481,-2.56108c0.00228,-1.41225 1.10949,-2.55533 2.47304,-2.55313c1.36355,0.00219 2.46708,1.14882 2.46481,2.56107z" fill="url(#color-2)"/><path d="M221.34151,227.99031l0.00339,-2.10242l9.11048,0.01466l-0.00338,2.10242z" fill="url(#color-3)"/><path d="M221.2527,210.58679l0.00339,-2.10242l9.11047,0.01466l-0.00338,2.10241z" fill="url(#color-4)"/><path d="M221.35579,219.11344l0.00339,-2.10241l9.11048,0.01465l-0.00338,2.10241z" fill="url(#color-5)"/></g><path d="M219.44148,231.8082c0,0 -1.54238,-9.31235 -1.53521,-13.76607c0.00675,-4.20069 1.57704,-12.24162 1.57704,-12.24162l12.61451,0.02029c0,0 1.38838,8.23064 1.38166,12.40211c-0.0072,4.47625 -1.4235,13.60558 -1.4235,13.60558z" fill="#3ef244" stroke="#000000" stroke-width="1.5"/></g><g data-paper-data="{&quot;index&quot;:null}"><path d="M250.96098,232.25934c0,0 -2.21739,-8.96849 -2.62006,-13.4266c-0.37526,-4.15456 0.28046,-12.47568 0.28046,-12.47568l12.56338,-1.13477c0,0 2.27461,7.87074 2.65249,12.0544c0.40066,4.43568 -0.31289,13.84788 -0.31289,13.84788z" fill="#909090" stroke="#000000" stroke-width="1.5"/><g stroke="none" stroke-width="0"><path d="M255.68957,231.00584l-2.39563,-26.52268l2.48165,-0.22414l2.39564,26.52268z" fill="url(#color-6)"/><path d="M254.59054,232.10335c-0.12705,-1.40652 0.87086,-2.64618 2.22888,-2.76883c1.35802,-0.12267 2.5619,0.91812 2.68895,2.32464c0.12705,1.40652 -0.87086,2.64618 -2.22888,2.76884c-1.35802,0.12267 -2.5619,-0.91812 -2.68895,-2.32464z" fill="url(#color-7)"/><path d="M252.22088,228.30906l-0.18913,-2.0939l9.07355,-0.81957l0.18913,2.09391z" fill="url(#color-8)"/><path d="M250.77164,210.96574l-0.18913,-2.09389l9.07354,-0.81956l0.18914,2.0939z" fill="url(#color-9)"/><path d="M251.42234,219.46816l-0.18914,-2.0939l9.07355,-0.81955l0.18913,2.09389z" fill="url(#color-10)"/></g><path d="M250.96098,232.25934c0,0 -2.21739,-8.96849 -2.62006,-13.4266c-0.37526,-4.15456 0.28046,-12.47568 0.28046,-12.47568l12.56338,-1.13477c0,0 2.27461,7.87074 2.65249,12.0544c0.40066,4.43568 -0.31289,13.84788 -0.31289,13.84788z" fill="#3ef244" stroke="#000000" stroke-width="1.5"/></g><g data-paper-data="{&quot;index&quot;:null}"><path d="M219.8947,203.15725c0,0 -1.43349,-9.32972 -1.37431,-13.78306c0.05582,-4.20032 1.71992,-12.22235 1.71992,-12.22235l12.61341,0.16762c0,0 1.29215,8.24629 1.23671,12.4174c-0.05948,4.47586 -1.58231,13.58803 -1.58231,13.58803z" fill="#909090" stroke="#000000" stroke-width="1.5"/><g stroke="none" stroke-width="0"><path d="M225.20575,202.40472l0.35389,-26.62831l2.49153,0.03311l-0.35389,26.6283z" fill="url(#color-11)"/><path d="M228.87728,203.4478c-0.01877,1.41213 -1.13926,2.54219 -2.50269,2.52407c-1.36343,-0.01812 -2.45351,-1.17757 -2.43473,-2.5897c0.01877,-1.41213 1.13926,-2.54219 2.50269,-2.52407c1.36343,0.01811 2.4535,1.17755 2.43473,2.58968z" fill="url(#color-12)"/><path d="M221.83919,199.36182l0.02795,-2.10224l9.10968,0.12107l-0.02794,2.10224z" fill="url(#color-13)"/><path d="M221.95366,181.95844l0.02794,-2.10224l9.10968,0.12107l-0.02793,2.10223z" fill="url(#color-14)"/><path d="M221.95715,190.48572l0.02794,-2.10223l9.10968,0.12106l-0.02794,2.10224z" fill="url(#color-15)"/></g><path d="M219.8947,203.15725c0,0 -1.43349,-9.32972 -1.37431,-13.78306c0.05582,-4.20032 1.71992,-12.22235 1.71992,-12.22235l12.61341,0.16762c0,0 1.29215,8.24629 1.23671,12.4174c-0.05948,4.47586 -1.58231,13.58803 -1.58231,13.58803z" fill="#3ef244" stroke="#000000" stroke-width="1.5"/></g><g data-paper-data="{&quot;index&quot;:null}"><path d="M247.99217,203.90716c0,0 -2.32198,-8.94198 -2.7767,-13.39508c-0.42376,-4.1499 0.13473,-12.4781 0.13473,-12.4781l12.54927,-1.28143c0,0 2.36638,7.84362 2.7931,12.02259c0.45243,4.43069 -0.15112,13.85059 -0.15112,13.85059z" fill="#909090" stroke="#000000" stroke-width="1.5"/><g stroke="none" stroke-width="0"><path d="M252.70581,202.59852l-2.70526,-26.4929l2.47887,-0.25313l2.70526,26.4929z" fill="url(#color-16)"/><path d="M251.61967,203.70878c-0.14346,-1.40494 0.83989,-2.65616 2.19639,-2.79467c1.3565,-0.13852 2.57245,0.88813 2.71591,2.29307c0.14347,1.40494 -0.83989,2.65617 -2.19639,2.79469c-1.35649,0.13852 -2.57245,-0.88813 -2.71592,-2.29308z" fill="url(#color-17)"/><path d="M249.20585,199.94243l-0.21357,-2.09154l9.06336,-0.92549l0.21358,2.09155z" fill="url(#color-18)"/><path d="M247.55414,182.61722l-0.21358,-2.09154l9.06336,-0.92548l0.21357,2.09155z" fill="url(#color-19)"/><path d="M248.30411,191.11147l-0.21358,-2.09155l9.06336,-0.92548l0.21357,2.09154z" fill="url(#color-20)"/></g><path d="M247.99217,203.90716c0,0 -2.32198,-8.94198 -2.7767,-13.39508c-0.42376,-4.1499 0.13473,-12.4781 0.13473,-12.4781l12.54927,-1.28143c0,0 2.36638,7.84362 2.7931,12.02259c0.45243,4.43069 -0.15112,13.85059 -0.15112,13.85059z" fill="#3ef244" stroke="#000000" stroke-width="1.5"/></g><g data-paper-data="{&quot;index&quot;:null}" fill="#3ef244"><path d="M235.59144,240.58547c0,4.19191 -5.92145,7.59014 -13.22592,7.59014c-7.30448,0 -13.22592,-3.39822 -13.22592,-7.59014c0,-4.19191 5.92145,-7.59013 13.22592,-7.59013c7.30447,0 13.22592,3.39822 13.22592,7.59014z" stroke="#000000" stroke-width="1.5"/><path d="M215.90784,240.11799c0,3.8656 -3.21508,6.99929 -7.18108,6.99929c-3.96601,0 -7.18108,-3.13368 -7.18108,-6.99929c0,-3.8656 3.21508,-6.99928 7.18108,-6.99928c3.966,0 7.18108,3.13368 7.18108,6.99928z" stroke="#000000" stroke-width="1.5"/><path d="M221.72543,240.48159c0,3.8656 -3.21508,6.99928 -7.18108,6.99928c-3.966,0 -7.18107,-3.13369 -7.18107,-6.99928c0,-3.8656 3.21507,-6.99929 7.18107,-6.99929c3.966,0 7.18108,3.13369 7.18108,6.99929z" stroke="#000000" stroke-width="1.5"/><path d="M228.27022,240.48159c0,3.8656 -3.21508,6.99928 -7.18108,6.99928c-3.966,0 -7.18109,-3.13368 -7.18109,-6.99928c0,-3.8656 3.21508,-6.99929 7.18109,-6.99929c3.966,0 7.18108,3.13369 7.18108,6.99929z" stroke="#000000" stroke-width="1.5"/><path d="M233.17881,240.45628c0,2.67471 -2.76742,4.84301 -6.18119,4.84301c-3.41378,0 -6.18118,-2.16829 -6.18118,-4.84301c0,-2.67471 2.76741,-4.843 6.18118,-4.843c3.41378,0 6.18119,2.1683 6.18119,4.843z" stroke="none" stroke-width="0"/></g><g data-paper-data="{&quot;index&quot;:null}" fill="#3ef244"><path d="M249.04569,240.58548c0,-4.19192 5.92145,-7.59014 13.22592,-7.59014c7.30447,0 13.22592,3.39822 13.22592,7.59013c0,4.19192 -5.92145,7.59014 -13.22592,7.59014c-7.30448,0 -13.22592,-3.39823 -13.22592,-7.59014z" stroke="#000000" stroke-width="1.5"/><path d="M275.91036,233.11871c3.966,0 7.18108,3.13369 7.18108,6.99928c0,3.8656 -3.21507,6.99929 -7.18108,6.99929c-3.966,0 -7.18108,-3.13369 -7.18108,-6.99929c0,-3.8656 3.21507,-6.99928 7.18108,-6.99928z" stroke="#000000" stroke-width="1.5"/><path d="M270.09277,233.4823c3.966,0 7.18108,3.13369 7.18108,6.99929c0,3.8656 -3.21507,6.99928 -7.18108,6.99928c-3.966,0 -7.18107,-3.13369 -7.18107,-6.99928c0,-3.8656 3.21507,-6.99929 7.18107,-6.99929z" stroke="#000000" stroke-width="1.5"/><path d="M263.54799,233.4823c3.966,0 7.18109,3.13369 7.18109,6.99929c0,3.8656 -3.21508,6.99928 -7.18109,6.99928c-3.966,0 -7.18108,-3.13369 -7.18108,-6.99928c0,-3.8656 3.21508,-6.99929 7.18108,-6.99929z" stroke="#000000" stroke-width="1.5"/><path d="M257.6395,235.61328c3.41377,0 6.18118,2.16828 6.18118,4.843c0,2.67471 -2.7674,4.84301 -6.18118,4.84301c-3.41377,0 -6.18118,-2.16829 -6.18118,-4.84301c0,-2.6747 2.76741,-4.843 6.18118,-4.843z" stroke="none" stroke-width="0"/></g><g data-paper-data="{&quot;index&quot;:null}"><path d="M291.20162,167.21539c0,0 -4.43876,-8.10235 -5.96895,-12.30894c-1.426,-3.92017 -2.92166,-12.13199 -2.92166,-12.13199l11.85457,-4.31222c0,0 4.21313,7.02649 5.64914,10.97413c1.52249,4.18542 3.24149,13.4668 3.24149,13.4668z" fill="#909090" stroke="#000000" stroke-width="1.5"/><g stroke="none" stroke-width="0"><path d="M295.45194,164.79349l-9.10358,-25.02633l2.34165,-0.8518l9.10357,25.02633z" fill="url(#color-21)"/><path d="M296.11645,162.88865c1.2814,-0.46612 2.71156,0.23189 3.19432,1.55906c0.48276,1.32717 -0.16464,2.78093 -1.44605,3.24705c-1.2814,0.46612 -2.71156,-0.23189 -3.19433,-1.55906c-0.48276,-1.32717 0.16466,-2.78093 1.44606,-3.24705z" fill="url(#color-22)"/><path d="M291.40861,163.07422l-0.7187,-1.97576l8.56164,-3.11438l0.71869,1.97576z" fill="url(#color-23)"/><path d="M285.56911,146.67936l-0.7187,-1.97576l8.56164,-3.11438l0.71869,1.97576z" fill="url(#color-24)"/><path d="M288.37407,154.7321l-0.7187,-1.97576l8.56164,-3.11438l0.71869,1.97576z" fill="url(#color-25)"/></g><path d="M291.20161,167.21539c0,0 -4.43877,-8.10235 -5.96896,-12.30894c-1.426,-3.92017 -2.92166,-12.13199 -2.92166,-12.13199l11.85458,-4.31221c0,0 4.21313,7.02648 5.64913,10.97412c1.52249,4.18542 3.2415,13.46679 3.2415,13.46679z" fill="#3ef244" stroke="#000000" stroke-width="1.5"/></g><g data-paper-data="{&quot;index&quot;:null}"><path d="M281.81187,141.85711c0,0 -6.77599,-6.27985 -9.55946,-9.78544c-2.59396,-3.2669 -6.61295,-10.58254 -6.61295,-10.58254l9.87908,-7.8441c0,0 6.2213,5.33082 8.83343,8.6206c2.76947,3.48794 7.339,11.74737 7.339,11.74737z" fill="#909090" stroke="#000000" stroke-width="1.5"/><g stroke="none" stroke-width="0"><path d="M285.07658,138.21396l-16.55979,-20.85583l1.95143,-1.54945l16.55978,20.85583z" fill="url(#color-26)"/><path d="M284.76025,139.73459c-0.87819,-1.106 -0.72441,-2.68996 0.34346,-3.53785c1.06787,-0.8479 2.64544,-0.63866 3.52363,0.46734c0.87819,1.106 0.72441,2.68996 -0.34345,3.53786c-1.06786,0.84789 -2.64544,0.63866 -3.52363,-0.46734z" fill="url(#color-27)"/><path d="M280.69689,137.8635l-1.30736,-1.64651l7.13488,-5.6652l1.30736,1.64652z" fill="url(#color-28)"/><path d="M269.96639,124.1614l-1.30735,-1.64651l7.13488,-5.66519l1.30736,1.64651z" fill="url(#color-29)"/><path d="M275.17696,130.91155l-1.30736,-1.64651l7.13489,-5.66519l1.30736,1.64651z" fill="url(#color-30)"/></g><path d="M281.81187,141.85711c0,0 -6.77599,-6.27985 -9.55946,-9.78544c-2.59396,-3.2669 -6.61295,-10.58254 -6.61295,-10.58254l9.87908,-7.8441c0,0 6.2213,5.33082 8.83343,8.6206c2.76947,3.48794 7.339,11.74737 7.339,11.74737z" fill="#3ef244" stroke="#000000" stroke-width="1.5"/></g><path d="M306.13421,171.53087c0.86996,2.48382 3.99382,12.17729 1.06565,12.97446c-3.31102,1.39522 -2.81099,-8.70706 -4.03325,-8.17681c-0.34347,0.14901 2.47897,8.77415 0.29622,9.72228c-2.18275,0.94813 -3.61893,-8.55443 -4.07775,-8.39931c-0.68957,0.23314 2.48059,8.4214 0.221,9.46819c-2.57791,1.19425 -3.81148,-7.77387 -5.21357,-11.2824c-0.47819,-1.19657 0.57623,5.65722 -1.99244,5.48379c-5.01267,-0.33845 -0.81195,-9.84019 -0.44283,-10.43854c0.91426,-1.48209 3.52848,-3.57231 5.32346,-4.27757c3.01603,-1.18503 6.92008,-0.59431 8.85353,4.92591z" data-paper-data="{&quot;index&quot;:null}" fill="#3ef244" stroke="#000000" stroke-width="1.5"/><g data-paper-data="{&quot;index&quot;:null}"><path d="M191.84205,86.6689c0,0 2.87981,8.77824 3.61373,13.19391c0.68393,4.11503 0.65039,12.46188 0.65039,12.46188l-12.44382,2.06823c0,0 -2.85504,-7.67925 -3.54378,-11.82311c-0.73022,-4.39346 -0.72035,-13.83267 -0.72035,-13.83267z" fill="#909090" stroke="#000000" stroke-width="1.5"/><g stroke="none" stroke-width="0"><path d="M187.22005,88.27143l4.36626,26.27028l-2.45803,0.40854l-4.36626,-26.27028z" fill="url(#color-31)"/><path d="M188.2342,87.09505c0.23154,1.39314 -0.67118,2.70374 -2.01627,2.9273c-1.3451,0.22356 -2.62322,-0.72456 -2.85477,-2.1177c-0.23154,-1.39314 0.67117,-2.70373 2.01626,-2.9273c1.3451,-0.22356 2.62323,0.72457 2.85478,2.11771z" fill="url(#color-32)"/><path d="M190.88013,90.70213l0.34471,2.07396l-8.9872,1.49372l-0.3447,-2.07397z" fill="url(#color-33)"/><path d="M193.61831,107.88915l0.34471,2.07396l-8.9872,1.49372l-0.34471,-2.07396z" fill="url(#color-34)"/><path d="M192.33556,99.4589l0.3447,2.07396l-8.9872,1.49372l-0.3447,-2.07396z" fill="url(#color-35)"/></g><path d="M191.84204,86.6689c0,0 2.87982,8.77824 3.61374,13.19391c0.68394,4.11503 0.65039,12.46188 0.65039,12.46188l-12.44381,2.06823c0,0 -2.85504,-7.67925 -3.54377,-11.8231c-0.73022,-4.39346 -0.72036,-13.83267 -0.72036,-13.83267z" fill="#3ef244" stroke="#000000" stroke-width="1.5"/></g><g><path d="M188.52547,108.16815c0,0 9.15639,-2.29329 13.596,-2.64772c4.18738,-0.33429 12.32924,0.57802 12.32924,0.57802l1.00387,12.57451c0,0 -8.09076,2.05199 -12.249,2.38396c-4.46206,0.35622 -13.67623,-0.31425 -13.67623,-0.31425z" fill="#909090" stroke="#000000" stroke-width="1.5"/><g stroke="none" stroke-width="0"><path d="M189.76771,113.38643l26.5462,-2.11928l0.1983,2.48386l-26.5462,2.11928z" fill="url(#color-36)"/><path d="M189.06993,117.13892c-1.40777,0.11239 -2.63696,-0.89838 -2.74547,-2.2576c-0.10851,-1.35922 0.94474,-2.55221 2.35252,-2.66459c1.40777,-0.11239 2.63696,0.89838 2.74547,2.2576c0.10851,1.35922 -0.94475,2.5522 -2.35252,2.6646z" fill="url(#color-37)"/><path d="M192.48499,109.75196l2.09575,-0.16731l0.72502,9.08159l-2.09576,0.16731z" fill="url(#color-38)"/><path d="M209.82386,108.25057l2.09576,-0.1673l0.72502,9.08159l-2.09576,0.16731z" fill="url(#color-39)"/><path d="M201.33372,109.04554l2.09575,-0.16731l0.72502,9.08159l-2.09576,0.16731z" fill="url(#color-40)"/></g><path d="M188.52547,108.16815c0,0 9.15639,-2.29329 13.596,-2.64772c4.18738,-0.33429 12.32924,0.57802 12.32924,0.57802l1.00387,12.57451c0,0 -8.09076,2.05199 -12.249,2.38396c-4.46206,0.35622 -13.67623,-0.31425 -13.67623,-0.31425z" fill="#3ef244" stroke="#000000" stroke-width="1.5"/></g><path d="M185.4699,85.44628c-3.20933,-0.44829 -6.32051,-2.87957 -5.29483,-8.63797c0.4615,-2.59099 2.49892,-12.56951 5.44128,-11.82645c3.56951,0.41 -1.82573,8.96556 -0.50056,9.10367c0.37239,0.03881 2.14792,-8.86101 4.51498,-8.61541c2.36707,0.2456 -1.04691,9.22925 -0.57104,9.31935c0.7152,0.13542 1.97331,-8.55449 4.45577,-8.35713c2.83216,0.22517 -0.49595,8.64375 -0.99693,12.38871c-0.17085,1.27721 2.27534,-5.21144 4.42801,-3.79928c4.20085,2.75578 -4.12358,8.97133 -4.7389,9.31141c-1.52411,0.84234 -4.82778,1.37991 -6.7378,1.1131z" data-paper-data="{&quot;index&quot;:null}" fill="#3ef244" stroke="#000000" stroke-width="1.5"/><g><g><path d="M262.21332,132.70755c-5.8063,19.23228 -1.19364,34.0463 -22.76155,32.88481c-20.38831,-1.09796 -16.5536,-17.42878 -18.44288,-35.49812c-1.85346,-17.72683 -1.8389,-30.66054 21.93674,-29.38016c22.50716,1.21207 24.37656,15.07131 19.26769,31.99346z" fill="#909090" stroke="#000000" stroke-width="1.5"/><g stroke="none" stroke-width="0"><path d="M240.52265,114.77658l1.36849,-25.4119l2.8433,0.15312l-1.36849,25.4119z" fill="url(#color-41)"/><g><g><path d="M225.53946,133.63267l0.18028,-3.3476l30.68634,1.65254l-0.18028,3.3476z" fill="url(#color-42)"/><path d="M226.87004,134.901l0.30797,-5.71882l1.81329,0.09765l-0.30797,5.71882z" fill="url(#color-43)"/><path d="M231.57931,135.37341l0.30797,-5.71882l1.81329,0.09765l-0.30797,5.71882z" fill="url(#color-44)"/><path d="M248.07151,136.10407l0.30797,-5.71881l1.81328,0.09765l-0.30797,5.71881z" fill="url(#color-45)"/><path d="M252.7808,136.57649l0.30797,-5.71882l1.81328,0.09765l-0.30797,5.71882z" fill="url(#color-46)"/></g><g><path d="M224.95339,142.02141l0.18028,-3.3476l30.68635,1.65254l-0.18028,3.3476z" fill="url(#color-47)"/><path d="M226.28397,143.28973l0.30797,-5.71881l1.81328,0.09765l-0.30797,5.71881z" fill="url(#color-48)"/><path d="M230.99324,143.76215l0.30797,-5.71881l1.81328,0.09765l-0.30797,5.71881z" fill="url(#color-49)"/><path d="M247.48545,144.49281l0.30797,-5.71881l1.81328,0.09765l-0.30797,5.71881z" fill="url(#color-50)"/><path d="M252.19473,144.96522l0.30797,-5.71881l1.81328,0.09765l-0.30797,5.71881z" fill="url(#color-51)"/></g><g><path d="M225.77012,125.22479l0.18028,-3.3476l30.68634,1.65254l-0.18028,3.3476z" fill="url(#color-52)"/><path d="M227.1007,126.49313l0.30797,-5.71882l1.81328,0.09765l-0.30797,5.71882z" fill="url(#color-53)"/><path d="M231.80998,126.96554l0.30797,-5.71882l1.81328,0.09765l-0.30797,5.71882z" fill="url(#color-54)"/><path d="M248.30218,127.69621l0.30797,-5.71882l1.81328,0.09765l-0.30797,5.71882z" fill="url(#color-55)"/><path d="M253.01146,128.16862l0.30797,-5.71882l1.81329,0.09765l-0.30797,5.71882z" fill="url(#color-56)"/></g><path d="M217.32276,114.49831l0.21091,-3.91652l48.95656,2.63643l-0.21091,3.91652z" fill="url(#color-57)"/><path d="M219.88264,112.54949c-0.10556,1.96025 -1.72545,3.46673 -3.6181,3.3648c-1.89265,-0.10192 -3.34138,-1.77365 -3.23581,-3.7339c0.10556,-1.96025 1.72544,-3.46673 3.6181,-3.36481c1.89265,0.10192 3.34138,1.77365 3.23582,3.73391z" fill="url(#color-58)"/><path d="M271.89071,115.47121c-0.10556,1.96025 -1.72544,3.46673 -3.61811,3.3648c-1.89266,-0.10192 -3.34138,-1.77365 -3.23582,-3.7339c0.10556,-1.96025 1.72544,-3.46672 3.6181,-3.3648c1.89266,0.10192 3.34139,1.77365 3.23582,3.7339z" fill="url(#color-59)"/><path d="M235.9792,170.34427l3.08724,-57.32767l5.99778,0.323l-3.08724,57.32767z" fill="url(#color-60)"/><path d="M225.30677,116.55491l0.3906,-7.25314l33.19704,1.78774l-0.3906,7.25314z" fill="url(#color-61)"/></g></g></g><path d="M226.82883,173.97321l0.22351,-4.15037l24.77255,1.33406l-0.22351,4.15037z" fill="#6f6f6f" stroke="#000000" stroke-width="0"/><path d="M228.72408,175.61114c-0.76083,1.18978 -2.30886,1.55878 -3.45761,0.82419c-1.14875,-0.73459 -1.46324,-2.29462 -0.7024,-3.4844c0.76083,-1.18978 2.30886,-1.55878 3.45761,-0.82419c1.14875,0.73459 1.46323,2.29462 0.7024,3.4844z" fill="url(#color-62)" stroke="none" stroke-width="0"/><path d="M253.50361,176.81551c-0.76083,1.18978 -2.30886,1.55878 -3.45761,0.82419c-1.14875,-0.73459 -1.46324,-2.29461 -0.70239,-3.4844c0.76083,-1.18978 2.30886,-1.55878 3.45761,-0.82419c1.14875,0.73459 1.46323,2.29461 0.7024,3.4844z" fill="url(#color-63)" stroke="none" stroke-width="0"/></g><path d="M222.16019,166.31313c0,-2.93767 8.55091,1.43843 17.10181,1.43843c8.55091,0 17.10181,-4.37609 17.10181,-1.43843c0,5.87533 -7.65675,10.63822 -17.10181,10.63822c-9.44506,0 -17.1018,-4.7629 -17.1018,-10.63822z" fill="#3ef244" stroke="#000000" stroke-width="1.5"/><g><path d="M262.366,132.88296c-5.8063,19.23228 -1.19363,34.0463 -22.76155,32.88481c-20.38831,-1.09796 -16.55359,-17.42878 -18.44287,-35.49812c-1.85346,-17.72683 -1.83891,-30.66053 21.93673,-29.38016c22.50716,1.21207 24.37655,15.07131 19.26769,31.99346z" fill="#3ef244" stroke="#000000" stroke-width="1.5"/><path d="M258.38062,132.97425c-4.68023,15.50239 -0.96214,27.44338 -18.34718,26.50715c-16.43421,-0.88502 -13.3432,-14.04865 -14.86608,-28.61363c-1.49401,-14.2889 -1.48227,-24.71425 17.68234,-23.68219c18.14214,0.977 19.64898,12.14838 15.53092,25.78867z" fill="#bef3c0" stroke="#000000" stroke-width="1.5"/><g fill="#ff0000" stroke="#000000" stroke-width="2"><path d="M246.94277,107.15367c13.06262,-4.13183 3.95599,-1.72888 3.69125,3.18705c-0.25691,4.77058 8.45965,7.47324 -4.01217,2.7722c-1.99341,-0.75138 -3.77987,-1.54144 -3.69125,-3.18705c0.08862,-1.6456 1.98103,-2.12974 4.01217,-2.7722z" data-paper-data="{&quot;index&quot;:null}"/><path d="M242.97437,109.89986c-0.08862,1.64561 -1.94959,2.23924 -4.01217,2.7722c-12.90455,3.33446 -3.94817,1.58353 -3.69126,-3.18705c0.26474,-4.91593 -8.53116,-8.28297 4.01218,-2.7722c1.95039,0.85688 3.77987,1.54145 3.69125,3.18705z"/><path d="M246.09936,110.06815c-0.09078,1.68574 -1.4984,2.98046 -3.144,2.89184c-1.64561,-0.08862 -2.90604,-1.52703 -2.81526,-3.21276c0.09078,-1.68574 1.49841,-2.98046 3.14401,-2.89184c1.64561,0.08862 2.90603,1.52703 2.81525,3.21276z"/></g><path d="M246.13881,121.5507c-0.11573,2.14893 -1.80641,3.80498 -3.77627,3.69889c-1.96985,-0.10608 -3.47292,-1.93412 -3.35719,-4.08305c0.11573,-2.14893 1.80642,-3.80498 3.77627,-3.6989c1.96985,0.10608 3.47291,1.93413 3.35719,4.08305z" fill="#000000" stroke="none" stroke-width="NaN"/><path d="M245.56258,132.25088c-0.11573,2.14893 -1.80642,3.80498 -3.77627,3.6989c-1.96985,-0.10608 -3.47291,-1.93413 -3.35719,-4.08305c0.11573,-2.14893 1.80642,-3.80498 3.77627,-3.69889c1.96985,0.10608 3.47291,1.93412 3.35719,4.08305z" fill="#000000" stroke="none" stroke-width="NaN"/></g><g><g stroke="#000000" stroke-width="1.5"><path d="M243.56064,83.6045c10.94805,0.58958 21.13752,7.08614 19.13853,13.78136c-3.68627,12.34645 -9.55983,12.23589 -20.50788,11.64631c-10.94805,-0.58958 -17.54216,-3.0295 -19.13853,-13.78137c-1.02794,-6.92339 9.55983,-12.23588 20.50788,-11.6463z" fill="#3ef244"/><path d="M243.47839,83.66654c8.4791,0.45662 16.37069,5.4881 14.82251,10.67346c-2.85496,9.56213 -7.40394,9.47651 -15.88304,9.01989c-8.4791,-0.45662 -13.58613,-2.34629 -14.82251,-10.67346c-0.79613,-5.36207 7.40394,-9.47651 15.88304,-9.01989z" fill="#ff0000"/></g><g stroke="none" stroke-width="0"><path d="M239.15533,97.78456l0.32896,-6.10856l7.45774,0.40162l-0.32896,6.10856z" fill="url(#color-64)"/><path d="M245.5602,94.32394l0.10507,-1.95112l0.83619,0.04503l-0.10507,1.95112z" fill="#ffffff"/><path d="M245.4684,96.72735l0.10507,-1.95112l0.8362,0.04503l-0.10507,1.95112z" fill="#ffffff"/><path d="M242.97292,97.64661l0.04647,-0.863l2.26201,0.12181l-0.04647,0.863z" fill="#ffffff"/><path d="M240.45898,97.51122l0.04647,-0.863l2.26201,0.12181l-0.04647,0.863z" fill="#ffffff"/><path d="M239.62977,94.0422l0.10507,-1.95112l0.83619,0.04503l-0.10507,1.95112z" fill="#ffffff"/><path d="M239.53797,96.4456l0.10507,-1.95112l0.8362,0.04503l-0.10507,1.95112z" fill="#ffffff"/></g></g><g><path d="M245.73057,52.64554c13.37989,0.72054 23.84954,10.05937 23.17406,20.84638c-1.16476,18.60053 -12.09228,15.56046 -25.46206,14.65231c-13.36848,-0.90806 -25.41119,3.45902 -22.9908,-17.26162c1.25338,-10.73001 11.89891,-18.95762 25.2788,-18.23708z" fill="#909090" stroke="#000000" stroke-width="1.5"/><g stroke="none" stroke-width="0"><path d="M235.89221,85.92155l-8.2167,-8.73089l1.30197,-1.2253l8.2167,8.73089z" fill="url(#color-65)"/><path d="M250.42598,85.43239l9.10683,-7.79798l1.16285,1.35804l-9.10682,7.79798z" data-paper-data="{&quot;index&quot;:null}" fill="url(#color-66)"/><path d="M235.74952,87.605l0.87941,-16.33004l15.89946,0.85623l-0.87941,16.33004z" fill="url(#color-67)"/><path d="M227.38625,77.74132l0.87941,-16.33005l33.93255,1.82735l-0.87941,16.33005z" fill="url(#color-68)"/><path d="M228.22194,70.54877l0.1527,-2.83546l33.08033,1.78146l-0.1527,2.83546z" fill="url(#color-69)"/><path d="M241.60784,85.56978l1.18764,-22.05355l4.51572,0.24318l-1.18764,22.05355z" fill="url(#color-70)"/></g><g stroke-width="1.5"><path d="M254.20846,64.01459c3.42599,0.1845 6.04989,3.18258 5.86066,6.69642c-0.18923,3.51384 -3.11993,6.21279 -6.54592,6.02829c-3.42599,-0.1845 -6.04989,-3.18258 -5.86066,-6.69642c0.18923,-3.51384 3.11993,-6.21279 6.54592,-6.02829z" data-paper-data="{&quot;index&quot;:null}" fill="#ffffff" stroke="#000000"/><path d="M253.38843,66.86457c1.82803,0.09844 3.22666,1.72459 3.12394,3.6321c-0.10272,1.90751 -1.66791,3.37404 -3.49594,3.2756c-1.82803,-0.09844 -3.22667,-1.72459 -3.12395,-3.63209c0.10272,-1.90751 1.66791,-3.37405 3.49594,-3.2756z" data-paper-data="{&quot;index&quot;:null}" fill="#000000" stroke="#3ef244"/></g><g stroke-width="1.5"><path d="M241.59378,69.89078c-0.18923,3.51383 -3.11993,6.21279 -6.54592,6.02829c-3.42599,-0.1845 -6.04989,-3.18258 -5.86066,-6.69641c0.18923,-3.51383 3.11993,-6.21279 6.54592,-6.02829c3.42599,0.1845 6.04989,3.18258 5.86066,6.69642z" fill="#ffffff" stroke="#000000"/><path d="M239.36628,69.74803c-0.10272,1.90751 -1.66791,3.37404 -3.49593,3.2756c-1.82803,-0.09844 -3.22666,-1.72459 -3.12394,-3.63209c0.10272,-1.90751 1.66791,-3.37404 3.49594,-3.27559c1.82803,0.09844 3.22666,1.72459 3.12394,3.63209z" fill="#000000" stroke="#3ef244"/></g></g><g data-paper-data="{&quot;index&quot;:null}"><path d="M259.53791,64.64385l9.51497,-9.85519l2.13911,2.06527l-9.51497,9.85519z" fill="url(#color-71)" stroke="none" stroke-width="0"/><g stroke="#000000" stroke-width="1.5"><g fill="#3ef244"><path d="M280.80273,44.77389c0,0 -1.27135,11.62092 -5.44024,15.67297c-0.96082,0.93389 -3.6875,4.7858 -9.29732,-0.63833c-5.68715,-5.49892 -0.99046,-9.09637 -0.79907,-9.29206c4.06506,-4.15621 15.53662,-5.74258 15.53662,-5.74258z"/></g><g fill="#bef3c0"><path d="M266.88604,51.47796c3.09339,-3.16275 11.82293,-4.36993 11.82293,-4.36993c0,0 -0.96747,8.84319 -4.13987,11.92668c-0.73115,0.71066 -2.80607,3.64185 -7.07498,-0.48576c-4.32776,-4.18451 -0.75371,-6.92207 -0.60807,-7.07098z"/></g></g></g><g><path d="M228.55303,65.32301l-8.40156,-10.82003l2.34854,-1.8236l8.40156,10.82004z" fill="url(#color-72)" stroke="none" stroke-width="0"/><g stroke="#000000" stroke-width="1.5"><g fill="#3ef244"><path d="M226.7237,48.83857c0.16927,0.21511 4.45245,4.29615 -1.79236,9.1525c-6.15989,4.79031 -8.45712,0.66784 -9.31209,-0.36383c-3.70961,-4.47633 -3.7256,-16.16657 -3.7256,-16.16657c0,0 11.23486,2.80916 14.83005,7.3779z"/></g><g fill="#bef3c0"><path d="M225.00986,49.62053c0.12881,0.1637 3.38818,3.26925 -1.36393,6.96479c-4.6875,3.64528 -6.43563,0.50821 -7.08623,-0.27686c-2.8229,-3.40635 -2.83508,-12.3023 -2.83508,-12.3023c0,0 8.54941,2.13769 11.28524,5.61436z"/></g></g></g><g stroke="#000000" stroke-width="1.5"><path d="M245.63366,52.64409c13.37989,0.72054 23.84954,10.05937 23.17406,20.84638c-1.16476,18.60053 -12.09227,15.56046 -25.46206,14.65231c-13.36848,-0.90806 -25.41119,3.45902 -22.9908,-17.26162c1.25338,-10.73001 11.89891,-18.95762 25.2788,-18.23708zM234.7067,76.63602c4.04091,0.21761 7.49311,-2.88178 7.71073,-6.92269c0.21761,-4.04091 -2.88177,-7.49312 -6.92268,-7.71073c-4.04091,-0.21761 -7.49312,2.88178 -7.71073,6.92269c-0.21761,4.04091 2.88178,7.49312 6.92269,7.71073zM253.58739,77.54644c4.04091,0.21761 7.49312,-2.88178 7.71073,-6.92269c0.21761,-4.04091 -2.88178,-7.49312 -6.92269,-7.71073c-4.04091,-0.21761 -7.49312,2.88178 -7.71073,6.92269c-0.21761,4.04091 2.88178,7.49312 6.92269,7.71073z" fill="#3ef244"/><g fill="#bef3c0"><path d="M284.54007,77.14324c-0.10287,1.91016 -8.95274,6.67202 -16.05614,6.28948c-7.1034,-0.38254 -12.77845,-2.24113 -12.67558,-4.15129c0.10287,-1.91016 5.9447,-3.14854 13.04809,-2.766c7.1034,0.38254 15.78649,-1.28235 15.68363,0.6278z"/><path d="M285.69615,84.20188c-0.28206,1.89202 -9.54055,5.80043 -16.57649,4.75152c-7.03594,-1.04891 -12.51103,-3.43301 -12.22897,-5.32503c0.28206,-1.89202 6.21447,-2.57548 13.25041,-1.52657c7.03594,1.04891 15.83712,0.20806 15.55506,2.10008z"/><path d="M284.76262,92.31832c-0.57852,1.82335 -10.33964,4.21415 -17.12022,2.06278c-6.78058,-2.15137 -11.80834,-5.37351 -11.22982,-7.19686c0.57852,-1.82335 6.54424,-1.55743 13.32482,0.59394c6.78058,2.15137 15.60374,2.7168 15.02522,4.54015z"/></g><g data-paper-data="{&quot;index&quot;:null}" fill="#bef3c0"><path d="M220.03605,73.66954c7.1034,0.38254 12.77845,2.24113 12.67558,4.15129c-0.10287,1.91016 -5.94469,3.14854 -13.04809,2.766c-7.1034,-0.38254 -15.39069,-6.06727 -15.28783,-7.97743c0.10287,-1.91016 8.55694,0.6776 15.66034,1.06014z"/><path d="M218.1589,79.08564c7.10789,-0.28723 12.93259,1.02938 13.00983,2.94074c0.07724,1.91137 -5.62223,3.69369 -12.73012,3.98092c-7.10789,0.28723 -15.8931,-4.59289 -15.97034,-6.50425c-0.07724,-1.91136 8.58274,-0.13018 15.69063,-0.41741z"/><path d="M217.95065,84.77253c6.97241,-1.41073 12.93218,-1.03443 13.31154,0.8405c0.37936,1.87493 -4.96536,4.5385 -11.93777,5.94923c-6.97241,1.41073 -16.42032,-2.01452 -16.79968,-3.88945c-0.37936,-1.87493 8.4535,-1.48955 15.42591,-2.90028z"/></g><path d="M263.14863,84.70764c-0.30466,5.65726 -4.88297,10.01014 -10.22594,9.72241c-8.92003,-0.48037 -9.70834,0.11101 -9.12267,-10.76438c0.30466,-5.65726 2.29023,-10.31282 10.38854,-9.71365c5.33613,0.39481 9.26474,5.09835 8.96009,10.75562z" fill="#bef3c0"/><path d="M234.36965,72.5586c8.11582,0.27399 9.58993,5.11587 9.28527,10.77313c-0.58567,10.87539 -1.30592,10.20277 -10.22595,9.7224c-5.34298,-0.28773 -9.42733,-5.10711 -9.12268,-10.76437c0.30466,-5.65726 4.71569,-9.9117 10.06335,-9.73116z" data-paper-data="{&quot;index&quot;:null}" fill="#bef3c0"/><path d="M247.9186,78.1483c-0.07569,1.40553 -1.82243,2.45418 -3.90144,2.34222c-2.07901,-0.11196 -3.70303,-1.34213 -3.62734,-2.74766c0.07569,-1.40553 1.82243,-2.45418 3.90144,-2.34222c2.07901,0.11196 3.70303,1.34213 3.62734,2.74766z" fill="#000000"/></g></g><text transform="translate(376.878,54.97338) scale(0.28101,0.28101)" font-size="40" xml:space="preserve" fill="#ffffff" fill-rule="nonzero" stroke="none" stroke-width="1" stroke-linecap="butt" stroke-linejoin="miter" stroke-miterlimit="10" stroke-dasharray="" stroke-dashoffset="0" font-family="Sans Serif" font-weight="normal" text-anchor="start" style="mix-blend-mode: normal"><tspan x="0" dy="0">OLD</tspan></text></g></g></svg>