<svg version="1.1" xmlns="http://www.w3.org/2000/svg" xmlns:xlink="http://www.w3.org/1999/xlink" width="745.89885" height="379.1973" viewBox="0,0,745.89885,379.1973"><defs><radialGradient cx="569.73805" cy="412.63005" r="74.31365" gradientUnits="userSpaceOnUse" id="color-1"><stop offset="0" stop-color="#a3a3a3"/><stop offset="1" stop-color="#5d5d5d"/></radialGradient><radialGradient cx="497.53399" cy="426.77426" r="72.60406" gradientUnits="userSpaceOnUse" id="color-2"><stop offset="0" stop-color="#a3a3a3"/><stop offset="1" stop-color="#5d5d5d"/></radialGradient><radialGradient cx="609.77253" cy="421.15703" r="10.19409" gradientUnits="userSpaceOnUse" id="color-3"><stop offset="0" stop-color="#a7a7a7"/><stop offset="1" stop-color="#7a7a7a"/></radialGradient><radialGradient cx="424.97399" cy="431.3878" r="26.49135" gradientUnits="userSpaceOnUse" id="color-4"><stop offset="0" stop-color="#a3a3a3"/><stop offset="1" stop-color="#5d5d5d"/></radialGradient><radialGradient cx="378.45132" cy="378.75022" r="32.3311" gradientUnits="userSpaceOnUse" id="color-5"><stop offset="0" stop-color="#a3a3a3"/><stop offset="1" stop-color="#5d5d5d"/></radialGradient><radialGradient cx="445.74702" cy="405.35164" r="73.19574" gradientUnits="userSpaceOnUse" id="color-6"><stop offset="0" stop-color="#a3a3a3"/><stop offset="1" stop-color="#5d5d5d"/></radialGradient><radialGradient cx="471.45021" cy="406.9821" r="10.19409" gradientUnits="userSpaceOnUse" id="color-7"><stop offset="0" stop-color="#a7a7a7"/><stop offset="1" stop-color="#7a7a7a"/></radialGradient><radialGradient cx="473.54769" cy="404.75052" r="20.60688" gradientUnits="userSpaceOnUse" id="color-8"><stop offset="0" stop-color="#efefef"/><stop offset="1" stop-color="#bdbdbd"/></radialGradient><linearGradient x1="402.03728" y1="371.23463" x2="395.45893" y2="430.29212" gradientUnits="userSpaceOnUse" id="color-9"><stop offset="0" stop-color="#efefef"/><stop offset="1" stop-color="#bdbdbd"/></linearGradient><linearGradient x1="-51.2959" y1="411.3415" x2="-48.70783" y2="429.55955" gradientUnits="userSpaceOnUse" id="color-10"><stop offset="0" stop-color="#c5c5c5"/><stop offset="1" stop-color="#5d5d5d"/></linearGradient><radialGradient cx="-14.61218" cy="414.82806" r="70.7457" gradientUnits="userSpaceOnUse" id="color-11"><stop offset="0" stop-color="#c5c5c5"/><stop offset="1" stop-color="#5d5d5d"/></radialGradient><radialGradient cx="-117.83272" cy="426.42198" r="10.19409" gradientUnits="userSpaceOnUse" id="color-12"><stop offset="0" stop-color="#a7a7a7"/><stop offset="1" stop-color="#7a7a7a"/></radialGradient><radialGradient cx="44.54664" cy="406.67957" r="69.15855" gradientUnits="userSpaceOnUse" id="color-13"><stop offset="0" stop-color="#c5c5c5"/><stop offset="1" stop-color="#5d5d5d"/></radialGradient><linearGradient x1="114.28583" y1="397.86071" x2="117.09551" y2="417.63878" gradientUnits="userSpaceOnUse" id="color-14"><stop offset="0" stop-color="#c5c5c5"/><stop offset="1" stop-color="#5d5d5d"/></linearGradient><radialGradient cx="112.38467" cy="391.01044" r="68.71348" gradientUnits="userSpaceOnUse" id="color-15"><stop offset="0" stop-color="#c5c5c5"/><stop offset="1" stop-color="#5d5d5d"/></radialGradient><radialGradient cx="18.6136" cy="407.03832" r="10.19409" gradientUnits="userSpaceOnUse" id="color-16"><stop offset="0" stop-color="#a7a7a7"/><stop offset="1" stop-color="#7a7a7a"/></radialGradient><linearGradient x1="158.12433" y1="392.83747" x2="158.12433" y2="450.17122" gradientUnits="userSpaceOnUse" id="color-17"><stop offset="0" stop-color="#c5c5c5"/><stop offset="1" stop-color="#5d5d5d"/></linearGradient><linearGradient x1="243.96049" y1="339.70166" x2="243.96049" y2="427.61213" gradientUnits="userSpaceOnUse" id="color-18"><stop offset="0" stop-color="#a3a3a3"/><stop offset="1" stop-color="#5d5d5d"/></linearGradient><linearGradient x1="244.28534" y1="392.85178" x2="244.28534" y2="501.00614" gradientUnits="userSpaceOnUse" id="color-19"><stop offset="0" stop-color="#c5c5c5"/><stop offset="1" stop-color="#5d5d5d"/></linearGradient><linearGradient x1="247.87357" y1="387.23196" x2="247.87357" y2="571.51068" gradientUnits="userSpaceOnUse" id="color-20"><stop offset="0" stop-color="#c5c5c5"/><stop offset="1" stop-color="#5d5d5d"/></linearGradient><linearGradient x1="248.40157" y1="379.96029" x2="248.40157" y2="595.0429" gradientUnits="userSpaceOnUse" id="color-21"><stop offset="0" stop-color="#c5c5c5"/><stop offset="1" stop-color="#5d5d5d"/></linearGradient><linearGradient x1="244.59161" y1="386.65005" x2="244.59161" y2="566.15165" gradientUnits="userSpaceOnUse" id="color-22"><stop offset="0" stop-color="#c0c0c0"/><stop offset="1" stop-color="#9f9f9f"/></linearGradient><linearGradient x1="202.72194" y1="400.43168" x2="202.72194" y2="430.90643" gradientUnits="userSpaceOnUse" id="color-23"><stop offset="0" stop-color="#c0c0c0"/><stop offset="1" stop-color="#838383"/></linearGradient><linearGradient x1="202.72194" y1="419.40656" x2="202.72194" y2="449.8813" gradientUnits="userSpaceOnUse" id="color-24"><stop offset="0" stop-color="#c0c0c0"/><stop offset="1" stop-color="#838383"/></linearGradient><linearGradient x1="202.72194" y1="437.80636" x2="202.72194" y2="468.28113" gradientUnits="userSpaceOnUse" id="color-25"><stop offset="0" stop-color="#c0c0c0"/><stop offset="1" stop-color="#838383"/></linearGradient><linearGradient x1="204.55949" y1="455.40307" x2="204.55949" y2="485.87781" gradientUnits="userSpaceOnUse" id="color-26"><stop offset="0" stop-color="#c0c0c0"/><stop offset="1" stop-color="#838383"/></linearGradient><linearGradient x1="209.15335" y1="477.27132" x2="209.15335" y2="502.26954" gradientUnits="userSpaceOnUse" id="color-27"><stop offset="0" stop-color="#c0c0c0"/><stop offset="1" stop-color="#838383"/></linearGradient><linearGradient x1="286.63672" y1="400.43168" x2="286.63672" y2="430.90643" gradientUnits="userSpaceOnUse" id="color-28"><stop offset="0" stop-color="#c0c0c0"/><stop offset="1" stop-color="#838383"/></linearGradient><linearGradient x1="286.63672" y1="419.40656" x2="286.63672" y2="449.8813" gradientUnits="userSpaceOnUse" id="color-29"><stop offset="0" stop-color="#c0c0c0"/><stop offset="1" stop-color="#838383"/></linearGradient><linearGradient x1="286.63672" y1="437.80636" x2="286.63672" y2="468.28113" gradientUnits="userSpaceOnUse" id="color-30"><stop offset="0" stop-color="#c0c0c0"/><stop offset="1" stop-color="#838383"/></linearGradient><linearGradient x1="284.79918" y1="455.40307" x2="284.79918" y2="485.87781" gradientUnits="userSpaceOnUse" id="color-31"><stop offset="0" stop-color="#c0c0c0"/><stop offset="1" stop-color="#838383"/></linearGradient><linearGradient x1="280.20528" y1="477.27132" x2="280.20528" y2="502.26954" gradientUnits="userSpaceOnUse" id="color-32"><stop offset="0" stop-color="#c0c0c0"/><stop offset="1" stop-color="#838383"/></linearGradient><linearGradient x1="244.59161" y1="386.65005" x2="244.59161" y2="397.21597" gradientUnits="userSpaceOnUse" id="color-33"><stop offset="0" stop-color="#c0c0c0"/><stop offset="1" stop-color="#9f9f9f"/></linearGradient><linearGradient x1="225.84407" y1="546.33008" x2="263.33918" y2="546.33008" gradientUnits="userSpaceOnUse" id="color-34"><stop offset="0" stop-color="#7b7b7b"/><stop offset="1" stop-color="#b9b9b9"/></linearGradient><radialGradient cx="338.91917" cy="389.02359" r="10.19409" gradientUnits="userSpaceOnUse" id="color-35"><stop offset="0" stop-color="#a7a7a7"/><stop offset="1" stop-color="#7a7a7a"/></radialGradient><radialGradient cx="158.22672" cy="388.41106" r="10.19409" gradientUnits="userSpaceOnUse" id="color-36"><stop offset="0" stop-color="#a7a7a7"/><stop offset="1" stop-color="#7a7a7a"/></radialGradient><linearGradient x1="280.94647" y1="323.61543" x2="280.94647" y2="363.37917" gradientUnits="userSpaceOnUse" id="color-37"><stop offset="0" stop-color="#c5c5c5"/><stop offset="1" stop-color="#5d5d5d"/></linearGradient><linearGradient x1="194.74513" y1="212.21797" x2="194.74513" y2="235.53371" gradientUnits="userSpaceOnUse" id="color-38"><stop offset="0" stop-color="#c5c5c5"/><stop offset="1" stop-color="#5d5d5d"/></linearGradient><linearGradient x1="285.39452" y1="225.99299" x2="285.39452" y2="243.40578" gradientUnits="userSpaceOnUse" id="color-39"><stop offset="0" stop-color="#c5c5c5"/><stop offset="1" stop-color="#5d5d5d"/></linearGradient><linearGradient x1="243.18422" y1="228.89411" x2="243.18422" y2="352.66851" gradientUnits="userSpaceOnUse" id="color-40"><stop offset="0" stop-color="#a3a3a3"/><stop offset="1" stop-color="#1a1a1a"/></linearGradient><linearGradient x1="244.28878" y1="202.83377" x2="244.28878" y2="358.30448" gradientUnits="userSpaceOnUse" id="color-41"><stop offset="0" stop-color="#c5c5c5"/><stop offset="1" stop-color="#5d5d5d"/></linearGradient><linearGradient x1="239.74318" y1="212.12286" x2="239.74318" y2="347.41718" gradientUnits="userSpaceOnUse" id="color-42"><stop offset="0" stop-color="#b9b9b9"/><stop offset="1" stop-color="#5c5c5c"/></linearGradient><linearGradient x1="243.4402" y1="348.40431" x2="243.4402" y2="202.26807" gradientUnits="userSpaceOnUse" id="color-43"><stop offset="0" stop-color="#5d5d5d"/><stop offset="1" stop-color="#a1a1a1"/></linearGradient><linearGradient x1="243.4402" y1="348.40431" x2="243.4402" y2="202.26807" gradientUnits="userSpaceOnUse" id="color-44"><stop offset="0" stop-color="#c5c5c5"/><stop offset="1" stop-color="#5d5d5d"/></linearGradient><linearGradient x1="244.28878" y1="202.83377" x2="244.28878" y2="358.30448" gradientUnits="userSpaceOnUse" id="color-45"><stop offset="0" stop-color="#c5c5c5"/><stop offset="1" stop-color="#5d5d5d"/></linearGradient><linearGradient x1="221.26851" y1="279.44378" x2="223.64456" y2="279.44378" gradientUnits="userSpaceOnUse" id="color-46"><stop offset="0" stop-color="#cdcdcd"/><stop offset="1" stop-color="#444444"/></linearGradient><linearGradient x1="264.96146" y1="279.44378" x2="267.33752" y2="279.44378" gradientUnits="userSpaceOnUse" id="color-47"><stop offset="0" stop-color="#cdcdcd"/><stop offset="1" stop-color="#444444"/></linearGradient><linearGradient x1="244.43667" y1="268.23315" x2="244.43667" y2="272.40366" gradientUnits="userSpaceOnUse" id="color-48"><stop offset="0" stop-color="#cdcdcd"/><stop offset="1" stop-color="#444444"/></linearGradient><radialGradient cx="266.13106" cy="270.63623" r="10.27765" gradientUnits="userSpaceOnUse" id="color-49"><stop offset="0" stop-color="#ffffff"/><stop offset="1" stop-color="#939393"/></radialGradient><radialGradient cx="268.59817" cy="265.80847" r="10.27765" gradientUnits="userSpaceOnUse" id="color-50"><stop offset="0" stop-color="#b9b097"/><stop offset="1" stop-color="#827c69"/></radialGradient><linearGradient x1="244.02766" y1="314.37158" x2="244.02766" y2="316.63636" gradientUnits="userSpaceOnUse" id="color-51"><stop offset="0" stop-color="#a0a0a0"/><stop offset="1" stop-color="#696969"/></linearGradient><linearGradient x1="251.32269" y1="291.87255" x2="251.32269" y2="317.22771" gradientUnits="userSpaceOnUse" id="color-52"><stop offset="0" stop-color="#cdcdcd"/><stop offset="1" stop-color="#444444"/></linearGradient><linearGradient x1="237.08489" y1="291.78646" x2="237.08489" y2="317.1416" gradientUnits="userSpaceOnUse" id="color-53"><stop offset="0" stop-color="#cdcdcd"/><stop offset="1" stop-color="#444444"/></linearGradient><linearGradient x1="244.21447" y1="313.57414" x2="244.21447" y2="334.87035" gradientUnits="userSpaceOnUse" id="color-54"><stop offset="0" stop-color="#6e6e6e"/><stop offset="1" stop-color="#969696"/></linearGradient><linearGradient x1="246.03178" y1="278.62351" x2="246.03178" y2="295.05779" gradientUnits="userSpaceOnUse" id="color-55"><stop offset="0" stop-color="#cdcdcd"/><stop offset="1" stop-color="#444444"/></linearGradient><linearGradient x1="223.10911" y1="265.97052" x2="223.10911" y2="304.00277" gradientUnits="userSpaceOnUse" id="color-56"><stop offset="0" stop-color="#c5c5c5"/><stop offset="1" stop-color="#5d5d5d"/></linearGradient><linearGradient x1="222.49104" y1="266.50507" x2="222.49104" y2="303.2043" gradientUnits="userSpaceOnUse" id="color-57"><stop offset="0" stop-color="#c5c5c5"/><stop offset="1" stop-color="#5d5d5d"/></linearGradient><radialGradient cx="220.19405" cy="305.48499" r="10.27765" gradientUnits="userSpaceOnUse" id="color-58"><stop offset="0" stop-color="#ffffff"/><stop offset="1" stop-color="#939393"/></radialGradient><radialGradient cx="225.03722" cy="265.80847" r="10.27765" gradientUnits="userSpaceOnUse" id="color-59"><stop offset="0" stop-color="#b9b097"/><stop offset="1" stop-color="#827c69"/></radialGradient><linearGradient x1="240.17705" y1="207.09864" x2="240.17705" y2="306.30498" gradientUnits="userSpaceOnUse" id="color-60"><stop offset="0" stop-color="#afafaf"/><stop offset="1" stop-color="#515151"/></linearGradient><linearGradient x1="241.7195" y1="245.81057" x2="241.7195" y2="308.01236" gradientUnits="userSpaceOnUse" id="color-61"><stop offset="0" stop-color="#afafaf"/><stop offset="1" stop-color="#4b4b4b"/></linearGradient><linearGradient x1="244.28878" y1="202.83377" x2="244.28878" y2="358.30448" gradientUnits="userSpaceOnUse" id="color-62"><stop offset="0" stop-color="#c5c5c5"/><stop offset="1" stop-color="#5d5d5d"/></linearGradient><radialGradient cx="266.053" cy="271.19644" r="15.84191" gradientUnits="userSpaceOnUse" id="color-63"><stop offset="0" stop-color="#ff0000"/><stop offset="1" stop-color="#ff0000" stop-opacity="0"/></radialGradient></defs><g transform="translate(130.71055,-202.26806)"><g data-paper-data="{&quot;isPaintingLayer&quot;:true}" fill-rule="nonzero" stroke-linecap="butt" stroke-linejoin="miter" stroke-miterlimit="10" stroke-dasharray="" stroke-dashoffset="0" style="mix-blend-mode: normal"><g stroke="none"><path d="M576.69907,409.89248c-1.10226,-0.17952 -2.14055,-1.219 -3.21899,-0.92894c-0.56021,0.1507 -0.60935,0.89241 -0.76303,1.52914c3.28827,0.5201 6.56487,1.09247 9.83985,1.67009c-1.86088,-1.12164 -3.80359,-1.93572 -5.85784,-2.27029zM566.20827,419.97452c-0.25671,0.24826 -0.51407,0.48673 -0.77227,0.71598c9.96112,2.27692 19.99787,3.76928 30.14293,3.09807c-0.05138,-0.04953 -0.10277,-0.09923 -0.15416,-0.14902c-9.40882,-1.4159 -18.73775,-3.31459 -28.15728,-4.72549c-0.32507,0.3385 -0.67638,0.69025 -1.0592,1.06048zM550.57798,427.3629c-9.77997,2.77947 -19.42924,10.49026 -29.89002,6.07093c-6.55957,-2.77121 -8.15252,-8.62021 -10.12399,-14.23955c-1.97014,-1.01491 -3.94344,-2.02159 -5.95667,-2.94075c-2.58314,1.05312 -5.06626,2.29558 -7.30379,3.93629c-7.34718,5.38739 -12.90771,12.84019 -22.9536,6.24814c-4.27401,-2.80459 -6.47854,-8.15448 -10.53633,-11.35313l-1.03233,-1.11597c0,0 -2.86879,-3.588 0.71921,-6.45679c0.94703,-0.75719 1.84393,-1.06457 2.65123,-1.10683c13.75219,-6.7115 32.68898,-14.99748 45.95932,-2.79875c0.07815,0.07182 0.15494,0.14289 0.23046,0.21326c0.55933,-0.19562 1.11659,-0.39362 1.67093,-0.59539c5.47329,-0.87989 7.53045,-1.97672 12.9497,0.2091c5.11498,2.06311 7.44333,7.63893 12.14641,9.96333c1.20077,0.59346 2.49098,1.11644 3.83707,1.58716c2.15793,-1.04418 4.29423,-2.21545 6.57897,-3.13405c3.35151,-1.34754 8.34615,-2.17912 11.74525,-2.87679c0.63149,0.0639 1.26213,0.13164 1.89203,0.20288c1.83095,-3.10193 3.12051,-7.22703 6.81587,-8.70637c2.39645,-0.95938 5.16669,0.07041 7.73854,0.29161c8.9818,0.77253 15.34968,7.88414 21.81414,14.19447c1.665,0.23009 3.334,0.44086 5.00828,0.6263l0.36526,0.04069c0,0 4.56564,0.50856 4.05708,5.07421c-0.13714,1.23116 -0.56927,2.09333 -1.12735,2.69603c0.11831,0.17449 0.29711,0.46253 0.46779,0.83242c0.41841,0.52933 0.75257,1.23368 0.92996,2.16822c0.8566,4.5133 -3.65667,5.36993 -3.65667,5.36993c-17.75909,3.35512 -36.17786,0.26257 -53.49404,-4.79749c-0.49295,0.13147 -0.99365,0.26308 -1.50263,0.39694zM482.05286,419.68803c3.79246,0.50691 7.30739,-5.09261 9.87307,-6.94787c0.07982,-0.05773 0.15991,-0.11505 0.24017,-0.17198c-5.51377,-0.349 -10.72843,1.45858 -16.0033,3.04254c1.83208,2.08577 3.781,3.7954 5.89008,4.07731zM528.89946,417.03741c-3.18423,-3.04956 -5.61378,-5.76576 -11.3161,-5.11451c0.12076,0.37071 0.24574,0.76127 0.3802,1.17662c3.49088,1.69372 7.07285,3.15994 10.9359,3.93789zM524.10153,425.22658c0.57501,0.27081 1.23081,0.46103 1.9849,0.55359c-0.6697,-0.16726 -1.33098,-0.35256 -1.9849,-0.55359z" fill="url(#color-1)" stroke-width="0.5"/><path d="M611.82747,426.92093c0.61396,4.55267 -3.93873,5.16663 -3.93873,5.16663l-6.94777,0.26906c-6.43523,-2.81489 -12.31504,-6.76512 -18.80489,-9.45799c-6.90738,-2.86611 -16.03923,-1.98221 -23.40557,-2.80823c-7.81443,-0.26705 -16.43736,-1.74426 -24.19414,0.01651c-6.00582,1.36333 -12.74178,4.44886 -18.29858,7.10344c-2.10715,1.00661 -3.97816,2.65136 -6.26098,3.14323c-4.53423,0.97696 -15.12339,-1.1368 -19.16058,-2.90202c-7.95772,-3.47945 -10.01039,-10.97451 -19.03016,-11.86545c0,0 -4.56564,-0.50856 -4.05708,-5.07421c0.50856,-4.56564 5.07421,-4.05708 5.07421,-4.05708c4.88851,0.59087 7.10642,0.32118 11.51902,3.36326c3.62842,2.50147 6.06968,7.42697 10.35351,9.29567c2.30495,1.00549 7.80184,1.31393 10.18548,1.63567c1.12787,0.15223 2.25814,0.85466 3.36381,0.58495c1.49729,-0.36526 2.59612,-1.67096 3.96786,-2.37349c5.97558,-3.06033 13.79648,-6.36092 20.34215,-7.82113c8.70152,-1.94113 18.09936,-0.5124 26.86147,-0.21298c8.47877,0.93858 18.17439,0.28589 26.18722,3.45542c6.59696,2.60947 12.51284,6.7506 19.01485,9.54601l2.06237,-0.94602c0,0 4.55267,-0.61396 5.16663,3.93873z" fill="url(#color-2)" stroke-width="0.5"/><path d="M594.86579,422.26792c0.60604,-5.43075 5.63315,-9.32707 11.22848,-8.70263c5.59532,0.62441 9.63995,5.53298 9.03391,10.96374c-0.60602,5.43075 -5.63313,9.3271 -11.22847,8.70267c-5.59529,-0.62441 -9.63994,-5.53302 -9.03386,-10.96382z" fill="url(#color-3)" stroke-width="0"/></g><g><path d="M402.88903,371.32987c19.82742,2.13787 57.90464,16.51077 57.90464,16.51077l-4.05095,38.57853c0,0 -40.25754,6.13195 -60.08496,3.99408c-3.87547,-0.41788 -8.51441,-0.93321 -13.48036,-1.49315c0.01793,-0.20407 0.03783,-0.40897 0.05986,-0.61478c-0.26368,-2.05007 0.11203,-6.99687 -0.42642,-8.66151c-1.54325,-4.7709 -6.84959,-4.6549 -10.81213,-5.09628c-2.62882,-0.29282 -6.16419,-1.25333 -8.67799,0.03545c-2.96299,1.51906 -1.71748,3.18006 -4.87726,4.13169c-3.00272,0.90432 -7.48885,-0.28268 -10.73616,0.72402c-1.61728,0.50137 -3.06596,1.61458 -4.74857,1.80401c0,0 -2.27634,0.30698 -1.96937,2.58331c0.01079,0.08002 0.02402,0.15684 0.03948,0.2306c-3.36593,-0.39453 -5.38763,-0.63281 -5.38763,-0.63281l5.1499,-48.22297c1.37989,0.62915 2.53026,-0.59479 2.53026,-0.59479c6.01446,-6.43378 15.22517,-1.04881 23.05185,-3.6333c2.2417,-0.74024 4.25759,-1.73 6.08554,-2.9241c13.05262,1.40748 26.2496,2.83052 30.43027,3.28129z" fill="#494949" stroke="#000000" stroke-width="0"/><g stroke="none"><path d="M416.66357,435.37024c-0.35556,0.51935 -0.98533,0.99104 -2.09066,0.86792c-2.28281,-0.25428 -2.02853,-2.53709 -2.02853,-2.53709l2.04364,-2.6308c3.40829,-0.43872 6.50995,-1.87088 9.7282,-3.05553c2.77931,-0.3701 1.14695,-5.31059 3.96092,-7.75414c3.4437,-2.99041 7.69123,-1.81094 11.36108,-3.42919c1.66871,-0.73582 3.44795,-1.19578 5.13452,-1.88968c3.43715,-1.41413 5.79364,-5.64141 9.75902,-6.48999c3.22281,-0.68966 8.40116,0.8172 11.6925,1.18381c0,0 2.28281,0.25428 2.02853,2.53709c-0.25428,2.28281 -2.53709,2.02853 -2.53709,2.02853c-2.78255,-0.30995 -7.51942,-1.83576 -10.22259,-1.25726c-3.38117,0.72358 -5.87438,4.85972 -8.91342,6.2214c-1.66875,0.74771 -3.44995,1.2168 -5.14798,1.89542c-3.67011,1.46677 -6.92704,0.52289 -10.28579,2.78786c-1.87233,1.26261 -0.36679,5.21775 -1.6574,6.79187c-0.83731,1.0212 -2.39023,1.12358 -3.58536,1.68536c-3.09284,1.13851 -6.04657,2.39018 -9.23958,3.04442z" fill="url(#color-4)" stroke-width="0.5"/><path d="M396.0821,378.92095c0.30698,2.27634 -1.96937,2.58329 -1.96937,2.58329l-2.50282,0.33753c-4.55924,0.61162 -8.93154,1.85968 -13.52571,2.24897c-4.63381,-0.50022 -8.36535,0.34186 -12.93257,0.40228c-1.32874,0.01757 -2.80071,-1.49121 -3.91274,-0.76369c-2.8311,1.85226 -4.16299,6.35472 -7.56874,8.31042c-3.87292,2.22396 -8.53086,0.82975 -12.60173,1.41391c-3.06763,0.44022 -5.76326,2.84725 -9.05451,3.32042c0,0 -2.27632,0.30699 -2.58331,-1.96935c-0.30698,-2.27634 1.96937,-2.58331 1.96937,-2.58331c3.34166,-0.41179 5.70039,-2.76243 8.93986,-3.30348c3.19573,-0.53375 8.10828,0.94627 11.07333,-0.87938c3.06387,-1.88651 4.74742,-6.99535 7.85805,-8.46034c1.36204,-0.64149 4.24901,0.34282 5.82731,0.32124c4.54699,-0.06213 8.41079,-0.9366 13.04187,-0.40226c4.35268,-0.38803 8.52758,-1.62159 12.85555,-2.20811l2.50284,-0.33753c0,0 2.27632,-0.30698 2.58331,1.96937z" fill="url(#color-5)" stroke-width="0.5"/><path d="M338.09259,399.71014c-3.1379,2.50891 -5.72571,0.07939 -6.3256,-0.56964c-0.39244,-0.05642 -0.78491,-0.10676 -1.17738,-0.14487c0,0 -4.56564,-0.50856 -4.05708,-5.07421c0.50856,-4.56564 5.07421,-4.05708 5.07421,-4.05708c0.02417,0.00317 0.04831,0.00626 0.0725,0.00927c0.32065,-0.84541 0.7326,-1.62862 1.36969,-2.2584c8.70837,-8.60792 27.28443,-3.27431 35.47082,3.41686c0.08429,0.06887 0.16713,0.13718 0.24858,0.20494c1.90498,0.24352 3.78309,0.54808 5.60867,0.95383c5.47796,1.2175 10.01116,4.81569 15.41177,6.03787c1.25458,0.28393 2.52836,0.55834 3.81744,0.8198c6.67896,-7.04862 13.36112,-14.54992 23.50008,-13.2192c2.52228,0.33104 5.37326,-0.02913 7.51154,1.349c2.02233,1.30339 2.63098,4.02894 3.95238,6.03952c1.41472,2.15261 2.93333,5.0223 4.63629,7.78827c10.08088,-0.05291 19.85828,-0.07794 30.16188,1.06976l4.87001,0.54246c0,0 4.56564,0.50856 4.05708,5.07421c-0.50856,4.56564 -5.07421,4.05708 -5.07421,4.05708l-0.64043,-0.07134c-9.76183,1.54238 -19.92908,11.5625 -30.47061,5.58993c-2.98597,-1.69179 -5.32769,-4.25491 -7.37834,-7.07142c-0.80642,0.00242 -1.61602,0.00382 -2.4292,0.00359c-9.27573,1.25465 -19.53455,0.5382 -29.19441,-1.1069c-1.86835,1.52341 -3.7732,2.98216 -5.46615,4.32595c-5.19527,2.42064 -8.59276,5.19675 -14.84289,2.90025c-2.42243,-0.89009 -4.28478,-2.99567 -5.91311,-4.99792c-1.55487,-1.91192 -3.90853,-8.0907 -5.66989,-10.56328c-0.17671,-0.24808 -0.37914,-0.49881 -0.60502,-0.75084c-4.16692,-0.41492 -8.40617,-0.62402 -12.44408,-1.0738c-2.93093,-0.32647 -5.85798,-1.46863 -8.78117,-1.07881c-1.79132,0.23889 -3.38931,1.37799 -5.1485,1.7359c-0.04707,0.03984 -0.09535,0.07957 -0.14488,0.11915zM380.08507,407.7396c1.55868,0.59911 3.63291,-0.41341 5.20434,-1.28681c-3.04527,-1.09714 -5.87659,-2.74786 -8.86227,-3.98559c0.92852,1.99026 2.40211,4.78972 3.65793,5.27241zM420.72102,397.99323c-0.53196,-0.99173 -0.24429,-2.54462 -1.18582,-3.16106c-0.96167,-0.62964 -2.29941,0.21009 -3.44598,0.12845c-1.14892,-0.08181 -2.28118,-0.88908 -3.40014,-0.61594c-3.19304,0.77948 -5.46446,3.82169 -7.50956,6.57509c5.94964,0.69189 11.97431,0.9324 17.7341,0.42177c-0.76333,-1.09673 -1.56185,-2.1725 -2.19259,-3.3483z" fill="url(#color-6)" stroke-width="0.5"/><path d="M457.89662,407.01108c0.60604,-5.43075 5.63315,-9.32707 11.22848,-8.70263c5.59532,0.62441 9.63995,5.53298 9.03391,10.96374c-0.60602,5.43075 -5.63313,9.3271 -11.22847,8.70267c-5.59529,-0.62441 -9.63994,-5.53302 -9.03386,-10.96382z" fill="url(#color-7)" stroke-width="0"/></g><path d="M442.67804,405.31377c1.22509,-10.97805 11.38716,-18.85423 22.69786,-17.59195c11.31068,1.26222 19.48673,11.18466 18.26164,22.1627c-1.22503,10.97805 -11.38713,18.8543 -22.69783,17.59204c-11.3106,-1.26219 -19.48672,-11.18477 -18.26155,-22.16283z" fill="url(#color-8)" stroke="none" stroke-width="0"/><path d="M402.88903,371.32987c19.82742,2.13787 57.90464,16.51077 57.90464,16.51077l-4.05095,38.57853c0,0 -40.25754,6.13195 -60.08496,3.99408c-6.29712,-0.67897 -14.60993,-1.61531 -23.06596,-2.5821c1.64364,-0.0549 3.38802,0.1371 4.7745,0.01503c2.54315,-0.2239 6.60744,-2.32488 9.0177,-2.03217c2.3529,0.28573 4.25351,2.09366 6.40567,3.08658c4.87482,1.78248 9.11136,1.65316 14.01099,0.97472c3.1791,-0.44019 8.27918,0.74005 11.27722,-0.88683c4.43999,-2.40939 4.94489,-8.43508 1.22551,-11.84185c-0.45758,-0.41912 -4.97454,-0.85409 -5.96175,-0.96406c-5.66851,-0.63141 -12.11652,-0.26506 -16.99199,-3.45647c-4.06427,-3.09836 -8.64066,-5.60381 -14.04316,-4.86914c-2.11109,0.28707 -3.82974,1.96407 -5.90509,2.44578c-6.70937,1.55735 -15.06138,-4.38133 -21.85778,-1.63137c-3.14982,1.2745 -6.341,4.20874 -9.48889,6.1588c-0.74217,0.11945 -1.19754,0.45463 -1.47531,0.84514c-0.43828,0.28224 -1.73562,1.30062 -0.84985,3.01431c0.21804,0.42179 0.47817,0.71134 0.75372,0.90525l0.00407,0.02844c-0.18203,1.52435 -0.36265,3.15737 -0.39928,4.79145c-5.16393,-0.60407 -8.44681,-0.99103 -8.44681,-0.99103l5.07909,-47.55992c2.6604,0.44714 5.54822,0.82894 7.71569,-0.03715c1.5429,-0.6165 2.26972,-2.6438 3.84505,-3.17199c2.71471,-0.91019 7.88192,1.5995 10.8901,1.35911c5.57659,-0.44564 12.06251,-3.48972 17.57928,-5.07114c9.98561,1.07675 18.85062,2.03267 22.13865,2.3872z" fill="url(#color-9)" stroke="#000000" stroke-width="0"/></g><g stroke="none"><path d="M23.82995,412.22595c-2.16432,2.88246 -6.18772,1.73737 -6.18772,1.73737l-1.62941,-0.50504c-4.28493,0.52289 -9.21958,0.90861 -13.02099,2.48521c-6.75386,2.80106 -10.677,6.83154 -18.50577,8.59555c-8.07857,1.82032 -17.11543,2.45485 -25.35724,3.62075c-3.21768,0.45517 -8.33529,1.33851 -11.44429,1.00113c-2.8113,-0.3051 -5.07943,-2.05653 -8.18898,-1.98892c-3.53949,0.07694 -7.06283,1.06655 -10.59885,1.56888c-7.51865,1.06106 -13.18183,3.32683 -20.38521,4.93592c-9.44498,2.10984 -18.01064,1.97127 -27.0383,0.7256l-2.79368,-0.50489c0,0 -4.26077,-0.77874 -2.61218,-3.78097c1.2813,-2.33336 4.14049,-2.38283 5.3509,-2.28905c9.17,-3.68354 19.92413,-7.17555 29.75608,-9.73332c6.26363,-1.62947 13.26285,-1.34407 19.57618,-2.79778c13.60074,-3.13173 27.04153,-5.10263 41.01079,-7.08712c8.72912,-1.24006 17.56868,-2.82141 26.3286,-3.73552c1.01044,-0.10545 11.06959,-0.76654 11.907,-0.64568c3.40817,0.49188 6.69965,2.11128 9.56791,3.51035c0.45495,0.12419 0.89738,0.3143 1.26625,0.60081l1.13983,0.25918c0,0 4.02338,1.14511 1.85907,4.02757zM-6.75824,411.34729c-6.8724,0.97952 -13.74572,1.95273 -20.61857,2.92909c-13.60102,1.93217 -26.66275,3.88627 -39.90582,6.88376c-6.16644,1.39574 -13.18803,1.08857 -19.23522,2.71579c-5.61264,1.51031 -11.62069,3.27718 -17.39659,5.22496c3.37446,-0.08298 6.80413,-0.47438 10.45904,-1.28785c7.49125,-1.66725 13.63966,-4.01726 21.49016,-5.13925c0.05279,-0.0075 11.8268,-1.70451 12.44542,-1.70481c3.50285,-0.00178 6.3528,1.60674 9.71037,2.07042c1.07848,0.14893 7.52372,-0.86786 8.07634,-0.94672c7.98118,-1.13887 16.50757,-1.7987 24.36984,-3.44353c6.5933,-1.37937 10.44082,-5.56063 16.27105,-7.89863c0.44577,-0.17876 0.89482,-0.34619 1.34683,-0.5034c-2.55586,0.35029 -5.11322,0.82934 -7.0129,1.10011z" fill="url(#color-10)" stroke-width="0.5"/><path d="M15.66953,405.88621c0.32306,2.2741 -1.95104,2.59716 -1.95104,2.59716l-1.81929,0.25845c-4.75427,0.67539 -11.29083,0.46465 -15.39866,2.93895c-0.40288,0.24453 -0.80566,0.48518 -1.20848,0.72192c4.72484,-0.45074 9.40551,-1.16924 13.95792,-2.77546c0,0 2.16659,-0.76279 2.92936,1.4038c0.76279,2.16659 -1.4038,2.92936 -1.4038,2.92936c-6.84352,2.40448 -13.92818,2.99719 -21.06771,3.49065c-1.97861,0.13677 -3.92812,0.3333 -5.85935,0.55926c-3.32382,1.29555 -6.76203,2.34618 -10.40885,3.15061c-4.45695,0.98317 -9.151,0.91371 -13.59886,1.92844c-8.62369,1.9674 -16.0114,7.96945 -24.37923,10.88168c-8.99135,1.47903 -17.14578,2.39189 -26.18753,2.32437c-5.06582,-0.03782 -8.89519,-2.46038 -13.59319,-3.76686c-3.35123,-0.93195 -9.69426,0.79971 -12.8418,1.92657c0,0 -0.49331,0.17368 -1.09198,0.11991c-0.67801,0.14676 -1.36967,0.27259 -2.07665,0.37531l-0.45482,0.06461c0,0 -2.2741,0.32306 -2.59716,-1.95104c-0.32306,-2.2741 1.95104,-2.59716 1.95104,-2.59716l0.45482,-0.06461c8.48876,-1.17378 14.70836,-6.25794 21.8544,-10.38709c8.68703,-4.33503 17.00101,-7.95812 26.99365,-7.65834c10.31724,0.30952 19.4402,4.62819 29.99955,3.14358c7.64632,0.41172 14.86135,-0.69025 22.25284,-1.64373c4.66885,-1.38169 9.28181,-3.23691 14.0383,-6.13052c4.93902,-2.74694 11.5061,-2.73916 17.09,-3.53242l1.81929,-0.25845c0,0 2.2741,-0.32306 2.59716,1.95104zM-103.32938,428.04258c4.27749,1.04981 7.95623,3.69317 12.51785,3.65977c8.74382,-0.06398 16.43121,-0.81005 25.14011,-2.18325c6.51357,-2.32459 12.40542,-6.40596 18.7901,-9.05003c-5.51862,0.08281 -10.90683,-0.8681 -16.46925,-1.57892c-2.94862,-0.37681 -5.91005,-1.89157 -8.86781,-1.94047c-9.24704,-0.15285 -16.67813,3.09484 -24.7318,7.11382c-2.25067,1.28496 -4.40462,2.63615 -6.55397,3.93804c0.05875,0.0132 0.11699,0.02686 0.17478,0.04105z" fill="url(#color-11)" stroke-width="0.5"/><path d="M-110.4287,428.92538c0.76971,5.41 -3.12497,10.43847 -8.69885,11.23147c-5.57394,0.79302 -10.71636,-2.94983 -11.486,-8.35983c-0.76967,-5.40998 3.12498,-10.4384 8.6989,-11.23139c5.57394,-0.79302 10.71636,2.94979 11.48602,8.35979z" fill="url(#color-12)" stroke-width="0"/></g><g stroke="none"><path d="M154.06587,391.19558c-1.71296,1.53026 -3.24322,-0.18272 -3.24322,-0.18272l-0.49653,-0.75237c-4.77167,-2.68363 -14.89144,-0.615 -19.56849,1.7742c-7.97434,2.74234 -15.77164,6.99155 -23.77798,9.90426c-3.63553,1.3226 -8.90434,1.31234 -12.73081,1.85593c-7.88357,1.11995 -15.76712,2.23989 -23.65069,3.35983c-16.43434,2.33467 -33.26684,2.39188 -49.14143,7.41348c0,0 -2.19005,0.69252 -2.88258,-1.49753c-0.69252,-2.19005 1.49753,-2.88258 1.49753,-2.88258c16.13694,-5.10082 33.18297,-5.20955 49.88036,-7.5816c7.88357,-1.11995 15.76712,-2.23989 23.65069,-3.35983c3.45251,-0.49047 8.54585,-0.4104 11.82953,-1.63313c7.91503,-2.94728 15.66398,-6.98205 23.53355,-9.80884c6.14093,-3.00292 17.42183,-4.8887 23.57237,-1.57044l1.71042,1.7181c0,0 1.53026,1.71296 -0.18272,3.24322z" fill="url(#color-13)" stroke-width="0.5"/><path d="M77.14933,420.60799c-0.32306,-2.2741 1.95104,-2.59716 1.95104,-2.59716l0.45482,-0.06461c7.92137,-1.12532 18.85179,-0.5028 24.78003,-6.42178c5.83294,-4.02157 11.48269,-11.67207 18.27489,-14.03677c8.71828,-3.03524 19.90438,-2.86951 29.07796,-4.17271c0,0 2.2741,-0.32306 2.59716,1.95104c0.32306,2.2741 -1.95104,2.59716 -1.95104,2.59716c-9.0385,1.28402 -19.53897,1.29235 -28.2295,3.96843c-1.53784,0.47355 -1.83605,1.46789 -3.04722,2.44827c-4.46514,3.61426 -9.08962,7.52322 -13.78145,10.77381c-6.67634,6.66593 -18.17742,6.1768 -27.07464,7.44074l-0.45482,0.06461c0,0 -2.2741,0.32306 -2.59716,-1.95104z" fill="url(#color-14)" stroke-width="0.5"/><path d="M150.24779,393.11725c0.91804,3.49945 -3.15712,4.44133 -3.15712,4.44133l-4.15335,0.95961c-12.50721,2.56972 -24.90917,3.92122 -37.52081,5.69772c-8.87343,0.08171 -17.74895,0.09508 -26.63811,-0.0419c-8.76259,4.9029 -15.73181,10.05523 -26.57539,11.62106c-10.94388,0.69737 -23.6398,2.89435 -33.77461,-0.46042l-2.50443,-2.04625c-0.57159,-0.29742 -1.10857,-0.78254 -1.53405,-1.54332c-0.33205,-0.5937 -0.47323,-1.13541 -0.48283,-1.624c-0.00436,-0.21975 0.01759,-0.44828 0.07439,-0.68284c0.05679,-0.23456 0.14317,-0.45361 0.24998,-0.65693c0.23738,-0.45214 0.62203,-0.9162 1.20872,-1.37427c0.56674,-0.44248 1.1192,-0.72107 1.64438,-0.88024c6.27598,-2.88508 11.32363,-6.54415 18.32752,-8.37906c9.41917,-2.46767 19.99774,-1.93637 29.51161,-1.58645c4.01044,0.1475 8.01692,0.25657 12.02028,0.33375c2.13398,-1.20051 4.32794,-2.32657 6.64215,-3.28242c9.7907,-4.04394 20.22147,-5.20851 30.69329,-6.69614c4.65247,-0.66093 10.45421,-2.11923 15.17823,-1.68053c5.90485,0.54836 10.15386,3.02288 15.07532,5.47798c0,0 0.00586,0.00292 0.01696,0.00875l0.70479,-0.16296c0,0 4.07515,-0.94191 4.99317,2.55754zM64.19322,403.80154c-8.53515,-0.3121 -18.29876,-0.95556 -26.75959,1.3003c-4.02881,1.07419 -7.36683,2.83915 -10.72964,4.67547c7.76548,1.05608 17.44235,-0.71902 24.85988,-1.1798c5.02511,-0.69921 9.39036,-2.52727 13.54954,-4.76301c-0.30671,-0.01077 -0.61345,-0.02175 -0.9202,-0.03295zM105.03584,396.99534c9.04357,-1.29606 17.98309,-2.33766 26.93434,-3.80658c-1.13266,-0.36168 -2.31125,-0.62322 -3.55686,-0.73036c-3.97817,-0.34211 -9.26285,1.06199 -13.118,1.60966c-6.10694,0.86756 -12.0919,1.65267 -17.90878,2.97555c2.55043,-0.00814 5.10014,-0.02481 7.64933,-0.04829z" fill="url(#color-15)" stroke-width="0.5"/><path d="M26.01757,409.54172c0.76971,5.41 -3.12497,10.43847 -8.69885,11.23147c-5.57394,0.79302 -10.71636,-2.94983 -11.486,-8.35983c-0.76967,-5.40998 3.12498,-10.4384 8.6989,-11.23139c5.57394,-0.79302 10.71636,2.94979 11.48602,8.35979z" fill="url(#color-16)" stroke-width="0"/></g><path d="M158.07131,446.26404c0.27515,0.3138 1.37779,1.74955 -0.05796,3.18532c-1.62417,1.62417 -3.24836,0 -3.24836,0l-1.28527,-2.23668c0,-1.8094 0.02414,-3.61883 0.06144,-5.42787c2.13266,-4.41993 7.68641,-15.38761 4.5243,-20.39118c-2.22297,-3.51753 -5.63663,-6.62111 -5.18106,-11.21261c0.27493,-2.77113 7.22751,-11.79872 2.47755,-12.97784c0,0 -2.05443,-1.02721 -1.02723,-3.08166c1.02721,-2.05443 3.08166,-1.02723 3.08166,-1.02723c3.60758,2.21355 5.35352,7.02478 3.54495,11.50866c-0.78631,1.94941 -4.91823,4.67078 -3.61813,7.5824c1.10203,2.46804 3.48941,4.63843 4.71987,6.94488c3.62075,6.78695 -0.88617,17.63549 -4.05091,23.71003c0.03647,1.14084 0.0535,2.28232 0.05916,3.42377z" fill="url(#color-17)" stroke="none" stroke-width="0.5"/><g stroke="none"><g><path d="M248.26669,346.45365h1.22503c5.55685,0 8.04335,0.44177 9.62992,6.3039c0.02465,3.91379 0.23964,8.25098 1.1808,12.00324c0.60817,2.42468 2.53097,4.89774 3.06259,7.3502c0.00552,0.0255 0.01101,0.05114 0.01641,0.0769c0.00291,-0.00024 0.0058,-0.00048 0.00871,-0.00073c3.20593,-0.26717 7.50523,-1.49093 10.71607,-0.50248c4.04671,1.24578 6.53329,6.53915 10.41279,7.9627c1.4031,0.51487 3.00448,0.14937 4.45442,0.51184c7.35986,-0.05837 18.23507,-2.01572 25.01693,0.73798c1.17626,0.47761 2.492,0.88233 3.34342,1.82404c0.82845,0.9163 1.7602,6.15784 3.47634,6.78339c3.03208,1.10522 8.19324,-1.37985 11.37133,-1.39989c0,0 2.29693,0 2.29693,2.29693c0,1.81378 -1.43222,2.19529 -2.03479,2.27556c-0.52117,1.10001 -1.87114,1.23501 -1.87114,1.23501c-5.82606,0.5818 -11.98279,1.2005 -17.61221,2.90183c-8.12863,2.45666 -13.24298,10.90782 -21.09106,13.52964c-2.66819,0.89136 -7.72666,0.7304 -10.52662,0.7304c-2.01784,0 -4.80259,0.15761 -6.59647,-0.88431c-1.46493,-0.85086 -2.43864,-2.35223 -3.65795,-3.52834c-4.06198,-2.94846 -9.7367,-6.28943 -12.0326,-10.98502c-1.20022,-2.4547 -1.33736,-5.15059 -1.10195,-7.9294c-1.64821,-2.46246 -3.09473,-5.04644 -4.3355,-7.23898c-0.60843,-1.07516 -0.99941,-2.14243 -1.30483,-3.15571c-0.64235,0.01232 -1.28562,0.02123 -1.93013,0.02675c-0.12528,0.10813 -0.25218,0.21503 -0.3806,0.32069c-0.03418,0.11486 -0.06995,0.22921 -0.10738,0.34296c-0.13019,0.39555 -1.01685,0.65343 -0.76669,0.98636c0.37058,0.49319 1.34896,-0.01434 1.8073,0.39858c3.62265,3.26361 4.03749,7.29794 3.28075,11.90511c-0.79031,4.81168 -3.42231,6.25298 -5.05279,10.36067c-2.02931,5.11247 -1.6627,10.27033 -1.6627,15.65895c0,2.04172 0,4.08344 0,6.12516v1.83756c0,0 0,2.29693 -2.29693,2.29693c-2.29693,0 -2.29693,-2.29693 -2.29693,-2.29693c0,-2.04172 0,-5.92098 0,-7.9627c0,-4.88593 -0.18656,-9.55919 0.97177,-14.19711c-2.20567,1.83578 -4.94945,3.28788 -6.9904,4.92441c-3.22109,2.58283 -3.79341,5.74177 -8.40051,6.62804c-6.87202,1.322 -17.09666,-0.25933 -23.80418,-1.90753c-6.32166,-2.73216 -7.71486,-11.6921 -14.10753,-14.09434c-1.39027,-0.52243 -2.98398,0.30934 -4.45442,0.10067c-3.4609,-0.49115 -5.05204,-2.87441 -8.30099,-3.74286c-6.22355,-1.66357 -13.81961,-0.52756 -20.20664,-0.52756c0,0 -0.43373,0 -0.92424,-0.18848c-0.02008,0.00808 -0.04018,0.01616 -0.06023,0.0242c0,0 -2.13266,0.85306 -2.98571,-1.2796c-0.85306,-2.13266 1.2796,-2.98571 1.2796,-2.98571c5.46535,-2.18223 11.22138,-5.69306 17.16468,-6.27826c12.40414,-1.22141 25.27759,0.67751 37.58987,0.60134c5.37699,0 10.95421,0.43715 16.31162,0.01117c1.76351,-0.14023 3.18383,-1.54499 4.80145,-2.26119c2.73002,-1.20872 5.68849,-2.34457 8.56707,-3.66544c-0.43579,-0.62462 -0.87773,-1.23416 -1.31615,-1.82683c-1.95452,-1.56996 -4.98333,-1.90264 -6.37784,-3.98599c-1.74214,-2.60269 -0.47846,-4.75682 1.02655,-6.67643c-2.15732,-1.49271 -3.92656,-3.26638 -4.842,-5.19809c-1.59463,-3.36498 -3.53626,-11.24306 -1.00806,-14.6956c1.2164,-1.66114 4.3101,-2.19733 6.16843,-2.67169l1.16959,-0.06857c0,0 2.29693,0 2.29693,2.29693c0,2.29693 -2.29693,2.29693 -2.29693,2.29693l-0.05542,-0.06857c-1.22028,0.29726 -2.93496,-0.04148 -3.63183,1.00341c-1.29279,1.93842 0.76982,8.12647 1.44201,9.80507c0.37435,0.93484 1.13963,1.84318 2.1409,2.68393c0.14807,-2.41961 0.63874,-4.61922 1.44496,-6.21561c1.57085,-1.0655 2.78127,-1.81637 3.95082,-2.40367c0.3595,-0.89512 0.72887,-1.78309 1.1193,-2.65146c-0.30926,-0.22137 -0.63338,-0.46295 -0.97408,-0.72943l-0.92733,-3.16353c0,0 -0.55709,-2.22836 1.67128,-2.78545c2.22836,-0.55709 2.78545,1.67128 2.78545,1.67128l0.04354,0.25406c1.37954,-1.9984 3.06651,-3.68272 5.2761,-4.814l1.22503,-0.61251c0,0 2.05443,-1.02723 3.08166,1.02723c1.02723,2.05443 -1.02723,3.08166 -1.02723,3.08166l-1.22503,0.61251c-1.16167,0.56279 -1.98923,1.15977 -2.6054,1.80871c0.21214,-0.03493 0.35314,-0.03493 0.35314,-0.03493zM263.40927,384.5572c-0.08079,0.74315 -0.23606,1.55818 -0.39136,2.40528c1.18415,1.58762 2.4683,3.02824 3.85548,4.11299c6.49276,5.07721 16.52617,3.15449 24.26947,3.15449c0,0 2.29693,0 2.29693,2.29693c0,2.29693 -2.29693,2.29693 -2.29693,2.29693c-9.19178,0 -19.46422,1.78249 -27.18195,-4.19571c-0.14381,-0.1114 -0.28665,-0.226 -0.42858,-0.34368c2.26277,3.70228 7.23642,6.46391 10.54266,8.88675c11.94532,12.49073 26.22437,-7.26721 37.43503,-10.71599c1.61221,-0.49598 3.26628,-0.90668 4.94379,-1.25422c-1.27503,-2.31964 -1.59694,-5.2106 -4.05725,-5.99519c-6.90429,-2.20173 -16.67957,-0.44102 -23.9844,-0.48707c-1.74406,-0.43601 -3.6654,-0.07443 -5.34584,-0.71317c-3.83635,-1.4582 -6.63516,-6.87677 -10.41279,-7.9627c-2.40387,-0.69104 -6.5069,0.51598 -8.85042,0.71967c0.04473,2.72783 -0.16181,5.66027 -0.39385,7.7947zM255.83147,365.81627c-0.9722,-3.89918 -1.30136,-8.45116 -1.26927,-12.49742c-0.67296,-3.24529 -2.08316,-2.27133 -5.07047,-2.27133h-0.01463c0.87197,0.90476 1.70248,2.1011 2.64064,3.94797c1.83407,3.19963 3.01038,9.20766 2.36589,14.30278c0.57772,1.03994 0.94557,2.18615 1.26196,3.35356c0.98984,-0.03837 1.97878,-0.0849 2.96818,-0.13999c-0.70751,-2.2229 -2.32859,-4.47472 -2.88231,-6.69558zM257.0964,377.19693c0.15333,0.36063 0.32443,0.71095 0.51929,1.0478c0.41789,0.72246 0.85936,1.50121 1.32479,2.31025c0.15367,-1.16933 0.26976,-2.3296 0.29827,-3.46935c-0.71412,0.0414 -1.42811,0.07849 -2.14235,0.11128zM239.98657,362.46651c-0.26226,0.64945 -0.57491,1.27711 -0.9228,1.88696c2.48024,1.06348 5.04695,1.71426 6.75288,1.70072c0.16335,0.00085 0.33817,-0.00063 0.52228,-0.00311c-0.03305,-3.63492 -0.39961,-7.28288 -1.46088,-10.40378c-0.33985,0.08972 -0.66191,0.1783 -0.9721,0.2695c-1.26901,2.20789 -2.9151,4.06279 -3.91936,6.54971zM184.93958,393.84038c2.18395,1.17007 4.8698,-0.32397 7.08941,0.50745c6.62647,2.48218 8.16475,12.04052 14.06823,14.08143c6.19092,1.58536 15.10908,2.59613 21.52206,1.76758c3.10108,-0.40066 4.08519,-3.81899 6.2999,-5.62227c2.4246,-1.9742 7.01858,-3.96438 8.71855,-6.80517c3.14849,-5.26139 1.8054,-10.55058 -0.78125,-15.27867c-3.15924,1.43284 -6.40477,2.63971 -9.19015,3.88273c-2.0578,0.91832 -3.98523,2.3814 -6.22385,2.63894c-5.42888,0.6246 -11.29652,0.01117 -16.76429,0.01117c-12.20166,-0.06281 -24.83944,-1.62562 -37.13719,-0.62369c-1.97159,0.16062 -3.95565,0.73085 -5.92199,1.48747c6.32376,0.06607 12.21928,0.68424 18.32061,3.95306zM249.66706,390.69565c0.26208,-1.86831 0.75901,-3.88833 0.10728,-5.65879c-0.41183,-1.11878 -1.62849,-1.66341 -2.76139,-2.27469c1.46998,3.35433 2.29719,6.88774 1.91442,10.47667c0.34178,-0.75402 0.60494,-1.58247 0.73968,-2.54319zM245.81663,370.64807c-1.59825,-0.01008 -3.51107,-0.3529 -5.49353,-0.96385c0.13993,0.37221 0.2759,0.73129 0.40351,1.07419c0.3572,0.95977 0.29287,2.27901 1.14142,2.85233c0.56635,0.38264 1.20626,-0.72483 1.88472,-0.8077c0.77742,-0.09494 1.56051,-0.09954 2.34508,-0.07952c0.04835,-0.67818 0.09243,-1.37027 0.1294,-2.07196c-0.13326,-0.00319 -0.2701,-0.00438 -0.4106,-0.0035z" fill="url(#color-18)" stroke-width="0.5"/><path d="M152.8672,396.37378c0,-2.29693 2.29693,-2.29693 2.29693,-2.29693c1.63338,0 3.87928,0 5.51266,0c17.71958,0.1865 31.71352,11.6405 45.44425,21.25913c6.76648,4.74005 11.16481,10.81844 19.89662,12.46693c12.46253,2.07709 27.40605,6.951 40.25659,4.27965c7.89861,-1.64195 15.26386,-4.0742 22.53828,-7.70894c10.48853,-6.22421 9.84909,-22.41587 20.79919,-28.77357c3.44272,-1.99887 7.62578,-1.14031 11.31814,-1.512c3.19922,-0.32203 6.15411,-1.22654 9.41408,-1.23622c0,0 2.29693,0 2.29693,2.29693c0,0.63949 -0.17805,1.10094 -0.43498,1.43393c0.40345,-0.03451 0.80423,-0.05326 1.20064,-0.05578c0,0 2.29693,0 2.29693,2.29693c0,2.29693 -2.29693,2.29693 -2.29693,2.29693c-1.78554,-0.01418 -2.43201,-0.20149 -4.1032,0.46984c-1.07962,0.43369 -2.17011,0.88771 -3.12896,1.54667c-9.61117,6.60489 3.45811,16.99214 5.18007,23.94712c1.43161,5.78232 -1.84253,11.06052 -4.35049,15.97356c-0.94066,4.88591 -1.62354,9.95756 -1.11189,14.95366c0.52192,5.09653 2.91763,8.68819 2.44753,14.25861c-0.76655,9.08321 -6.77076,15.86084 -6.72397,25.1688l0.37003,0.19781c0,0 1.02721,2.05445 -1.02723,3.08166c-2.05445,1.02721 -3.08166,-1.02723 -3.08166,-1.02723l-0.855,-2.25224c0.01402,-3.35487 0.44402,-7.70643 1.28647,-10.94051c1.3295,-5.10388 5.00517,-9.12376 5.46494,-14.72956c0.4266,-5.20155 -1.87779,-8.42281 -2.4526,-13.30466c-0.66183,-5.62103 0.20921,-11.41721 1.33817,-16.89721c1.96886,-4.00438 5.41859,-8.72142 4.22474,-13.42725c-1.39201,-5.48692 -6.85923,-9.77003 -8.55333,-15.22752c-2.24818,-7.2424 2.98292,-12.93212 9.18275,-15.25257c-2.04388,0.28859 -4.02258,0.7902 -6.13031,0.99976c-2.92591,0.29091 -6.75719,-0.58912 -9.50743,0.93807c-1.4225,0.7899 -1.99915,2.57012 -3.07158,3.79376c-6.99775,7.98464 -8.32093,19.28275 -17.78039,25.00921c-7.69282,3.84875 -15.61226,6.59202 -24.01301,8.21651c-13.53047,2.61641 -28.69843,-2.10855 -41.82065,-4.29558c-9.48031,-1.97826 -14.35211,-8.08151 -21.75452,-13.25877c-2.12023,-1.48289 -4.75983,-2.14734 -6.8082,-3.72803c-10.70336,-8.25959 -21.54566,-16.86918 -35.94994,-16.66398c-1.63338,0 -3.26675,0 -4.90013,0h-0.61251c0,0 -2.29693,0 -2.29693,-2.29693z" fill="url(#color-19)" stroke-width="0.5"/><path d="M256.97678,417.3044c-0.7244,-2.29671 -2.0595,-4.34612 -3.37742,-6.32778c-1.71577,-2.57992 -3.61904,-4.67655 -5.52741,-6.79571c-0.72293,0.24501 -1.45557,0.50153 -2.17981,0.77689c0.00422,0.17826 0.00723,0.30964 0.00739,0.38005c0.01303,5.9335 -0.2222,11.56662 2.00826,17.19982c1.19062,3.00699 3.67896,5.34085 4.73963,8.40146c0.85621,2.47062 1.4648,5.08487 1.69304,7.71692c3.2386,-6.4725 5.28838,-12.94332 2.63637,-21.3516zM238.29121,391.4207c0,-4.09326 3.88164,-4.09326 3.88164,-4.09326c1.90441,0.16143 4.08111,-0.56301 5.7132,0.48432c0.47341,0.3038 0.91165,0.65009 1.32281,1.02927c0.67456,-0.34122 1.37385,-0.69218 2.09661,-1.0815c0,0 3.47183,-1.83055 5.20773,1.83055c0.24909,0.52533 0.39094,1.01299 0.45123,1.46294c0.47232,-0.39644 0.94403,-0.79368 1.41537,-1.19137l-0.27067,-0.27156c0,0 1.7359,-3.66112 5.20773,-1.83055c3.47183,1.83055 1.7359,5.49167 1.7359,5.49167l-1.82332,3.00305c-1.63518,1.3792 -3.28428,2.74064 -4.95046,4.07822c7.67368,9.19039 13.70616,22.07926 9.2514,34.31547c-2.94325,8.08446 -8.59861,15.089 -11.6518,23.15098c3.52927,3.83115 6.9864,7.75945 8.64109,12.66352c1.28729,3.81517 0.16476,10.61658 0.14767,14.68794c-1.3275,7.09097 -3.53291,15.12264 -6.62629,22.37809c0.33726,0.97834 0.67179,1.94801 1.00079,2.90571c1.29342,3.76495 3.03261,7.75494 2.50155,11.71997c-1.02697,7.66784 -7.3322,11.99621 -8.5721,19.03534c-1.02146,5.79897 1.6624,12.86297 -0.12914,18.53069c-0.53895,1.70503 -1.93741,2.95745 -2.90611,4.43617l0.77634,-0.81865c0,0 0,0.97907 -0.45408,1.97955c0.38446,0.67708 0.59164,1.58215 0.40126,2.78665c-0.63813,4.03757 -4.46694,3.36465 -4.46694,3.36465c-1.93199,-0.40555 -4.09164,-0.175 -5.79598,-1.21664c-8.50662,-5.19892 -9.5483,-19.48319 -8.28698,-28.6993c0.8769,-6.40722 3.61077,-11.1463 5.57988,-17.08702c0.56493,-1.70432 0.29544,-3.78305 1.31037,-5.23708c1.19963,-1.7186 3.25794,-2.5699 4.96997,-3.76234c0.26737,-9.6354 -0.41423,-19.24919 -0.12825,-28.82763c-0.84249,-5.74167 -0.8925,-11.49061 -0.8925,-17.44588c0.01245,-4.17706 0.36274,-8.56487 1.28166,-12.76653c-0.7958,-0.96282 -1.52871,-1.93999 -2.16302,-2.94292c-5.34996,-8.45932 -7.6002,-18.74384 -9.15806,-28.6435c-1.02972,-6.54367 -1.79443,-14.56763 2.30055,-20.35453c1.41316,-1.99703 3.34297,-3.48185 5.49258,-4.6766c0.12803,-1.55358 0.41209,-3.06534 1.02344,-4.33327c-1.0203,-0.14409 -3.43512,-0.82615 -3.43512,-4.05465zM250.49388,473.20528c-0.80823,4.26432 -1.21054,8.54701 -1.38841,12.84205c0.3039,1.87373 0.71297,3.74703 1.26374,5.62697c0.38122,1.30126 0.78414,2.61805 1.2021,3.94258c1.21693,-3.81552 2.18779,-7.65233 2.8867,-11.27306c-0.016,-3.12516 1.15403,-8.69558 0.14767,-11.50894c-0.74131,-2.07239 -1.91716,-3.98808 -3.31667,-5.81414c-0.26748,2.1038 -0.48287,4.21038 -0.79511,6.18457zM248.99735,521.02219c-0.18783,2.78832 -0.50517,5.60408 -0.82002,8.42859c2.38092,-3.77749 4.39562,-7.66194 3.26034,-11.83575c-0.11708,-0.43046 -0.23972,-0.86011 -0.36732,-1.28901c-0.40533,0.65848 -0.82049,1.30023 -1.24553,1.9233c-0.2281,0.33439 -0.46915,0.65935 -0.72127,0.97521c-0.03059,0.5993 -0.06584,1.19852 -0.10619,1.79768zM240.33315,433.75048c1.30497,5.16453 2.23129,9.07359 4.66237,13.43441c0.88482,-1.83835 1.72335,-3.71102 1.68183,-5.71282c-0.13635,-6.57162 -3.65425,-10.00482 -5.89138,-15.67606c-1.97947,-5.01806 -2.4881,-9.99015 -2.61285,-15.13905c-3.16565,6.37574 0.68959,17.27409 2.16003,23.09356zM237.33087,542.55295c-0.79719,5.96068 -0.91335,15.07334 3.47292,18.99982l0.43779,-2.30826c0.27453,-0.33112 0.51356,-0.67951 0.72103,-1.04325c-2.80043,-8.11402 -2.60691,-16.30954 -1.8971,-24.59728c-1.18036,2.83047 -2.29475,5.65962 -2.73468,8.94894z" fill="url(#color-20)" stroke-width="0.5"/><path d="M338.65006,387.38536c4.5477,0.64967 3.89803,5.19738 3.89803,5.19738c-0.52667,2.74371 -0.06437,5.88417 -1.58003,8.23108c-2.11449,3.27414 -9.27292,6.16401 -12.74409,8.0324c-8.09089,4.35505 -19.73056,6.7313 -24.90435,14.90279c-4.60887,7.27923 0.8135,16.4994 1.58251,23.77668c1.12332,10.63002 -1.9431,20.03263 -5.81885,29.72205c-4.92617,12.21748 -14.80942,19.89488 -21.48935,31.0286c-3.06556,5.1095 -3.23895,9.21213 -5.05174,14.62466c-2.76499,8.25559 -6.79109,17.97475 -12.15305,26.1335c-1.11292,3.74587 -2.75311,7.18627 -4.58614,11.12974c-0.4191,0.90159 -2.46464,5.81525 -4.11041,9.56375c0.56869,1.14605 0.97246,2.34548 1.13245,3.62283c-7.18403,-0.31976 -13.37188,-3.59017 -19.99392,-3.99733c-0.47824,-1.0257 -0.90322,-2.209 -1.28572,-3.63522c-0.46127,-1.71989 0.47396,-3.61392 0.0438,-5.34186c-0.8291,-3.33041 -3.62336,-5.84059 -5.6852,-8.5843c-5.02664,-6.6889 -9.80418,-13.44594 -14.72633,-20.24814c-2.5838,-3.57067 -4.60132,-5.39843 -5.39797,-10.11366c-1.21895,-7.21484 2.22276,-11.20172 2.69579,-17.85936c0.39488,-5.5578 -0.04263,-11.42075 -0.02235,-17.00408c0.00778,-2.14094 0.61138,-8.79012 -1.06811,-11.23657c-1.95698,-2.85065 -5.24779,-4.57748 -7.33798,-7.33194c-4.03707,-6.78216 -9.68318,-16.88022 -9.03207,-25.0265c0.45794,-5.72951 5.58638,-8.40509 5.49585,-13.49653c-0.13086,-7.3617 -6.83222,-18.10456 -11.69376,-23.45326c-0.73444,-0.80804 -5.53648,-6.24015 -7.90976,-6.90556c-4.66381,-1.30762 -12.64507,0.23058 -17.31278,1.02297c0,0 -4.53137,0.75523 -5.2866,-3.77614c-0.75523,-4.53137 3.77614,-5.2866 3.77614,-5.2866c0.6566,-0.10765 1.36174,-0.22434 2.10439,-0.34407c0.76455,-0.41591 1.425,-0.54802 1.425,-0.54802c7.18724,-1.40496 13.47289,-0.78435 20.64787,-0.06685c13.89945,1.38995 26.76547,2.88977 40.29249,6.57899c5.49484,1.4986 6.66613,-0.01293 12.20261,3.27252c2.31786,1.37546 4.27992,3.08305 5.9332,5.0244c5.27139,-8.54024 11.34913,-16.21139 21.71092,-19.33821c4.76361,-1.43749 12.68782,-0.15389 17.71705,-0.15389c13.45818,0 27.71666,1.1328 41.45189,3.12603c1.52576,-2.10069 3.18755,-4.14215 5.40566,-5.88237l4.37698,-2.27135c0,0 4.10889,-2.05443 6.16332,2.05443c1.10368,2.20733 0.42862,3.8218 -0.43256,4.84332c0.46262,-0.06752 0.98272,-0.06988 1.5672,0.01362zM201.45481,416.36691c2.21929,4.11273 4.28398,8.69027 4.24018,13.36339c-0.06061,6.46484 -5.11994,8.33343 -5.52945,14.06672c-0.41508,5.81119 4.58271,14.25336 7.50589,19.07471c2.06079,2.7944 5.56188,4.3997 7.36241,7.36847c4.93868,8.14299 3.35283,24.83788 2.58463,34.23609c-0.43898,5.37051 -3.71155,9.71688 -2.81685,15.21655c0.98963,6.08319 7.95997,11.75548 11.24532,16.68091c1.52719,2.28958 3.45163,4.6452 5.40902,7.06923c0.6924,-5.66544 2.27216,-11.53488 4.01808,-16.88607c-0.31108,-0.42286 -0.59433,-0.83748 -0.83871,-1.24252c-3.84427,-10.29609 -7.25379,-24.20185 -0.84239,-34.49037c0.03748,-0.73606 0.08732,-1.47422 0.14692,-2.21109c-0.45183,-0.3477 -0.89381,-0.66129 -1.31817,-0.93278c-2.05455,-1.31441 -4.75486,-1.73066 -6.41732,-3.51537c-2.49826,-2.68195 -3.63833,-9.38946 -3.95401,-12.83818c-0.30859,-3.37146 0.08352,-9.02141 1.18605,-12.07266c3.24638,-8.98451 12.59806,-13.35145 15.50295,-22.60839c0.33873,-1.07946 0.47307,-2.33691 0.49174,-3.67864c-0.15369,-0.31095 -0.29301,-0.62795 -0.40977,-0.9544c-1.83413,-5.12762 -2.35195,-10.21629 -1.84425,-15.27902c-1.45797,-3.60106 -3.7938,-6.83766 -7.25098,-8.94855c-2.26826,-1.38494 -7.65409,-1.64181 -9.848,-2.24014c-9.37317,-2.55631 -18.38581,-3.99545 -27.69393,-5.10051c3.63975,5.01123 6.3661,10.91067 9.07066,15.92266zM263.80478,520.05971c1.97911,-5.96934 2.57324,-10.94673 5.97357,-16.61369c2.84932,-4.7487 7.20815,-11.13236 10.57038,-15.32549c1.01663,-1.2679 2.71117,-1.82572 3.87067,-2.96444c3.0654,-3.0105 4.7944,-7.4374 6.33327,-11.32062c3.35033,-8.37584 6.05711,-16.2021 5.20644,-25.40447c-0.28156,-3.04586 -2.16076,-5.75999 -2.69579,-8.77169c-1.10122,-6.19876 -0.77634,-15.20428 2.44074,-20.74062c1.10376,-1.89948 2.44347,-3.54046 3.95549,-4.98698c-3.75723,2.1709 -7.27931,4.90035 -9.99419,8.09347c-1.35651,1.59546 0.56786,4.15171 0.73949,6.23886c0.04493,0.54629 -1.75125,10.23466 -2.06697,11.09864c-3.00422,8.22136 -8.89229,16.54391 -13.39584,24.04182c-7.32374,9.78803 -14.63682,19.41355 -15.77195,31.81026c-0.95979,10.48189 1.23899,20.87845 2.36974,31.33195c0.93092,-2.18644 1.76384,-4.37227 2.46496,-6.487zM282.64931,397.15319c-3.8693,1.38455 -7.45276,3.7072 -10.49334,6.47185c-2.38498,2.16852 -5.85416,3.41389 -7.3734,6.25686c-7.68449,14.38004 3.12855,30.83165 0.55166,45.39659c-0.92321,5.21823 -3.86651,8.505 -7.32677,11.3003c0.4445,1.38235 0.79206,2.7802 0.93519,4.18813c2.45022,-4.24296 4.9942,-8.25959 8.17489,-12.48908c4.07635,-6.8024 9.63618,-14.44097 12.32985,-21.89692c2.69686,-7.46478 -2.18357,-12.23627 2.34762,-19.41351c4.2084,-6.66593 13.43047,-11.77284 20.55412,-14.61878c2.80689,-1.12136 6.04866,-1.09611 8.70562,-2.53721c1.14567,-0.6214 2.15815,-1.32322 3.07346,-2.08473c-9.59133,-1.42011 -19.12132,-2.61787 -28.81555,-2.94749c-0.82108,1.68312 -2.66336,2.37397 -2.66336,2.37397zM256.3123,453.54102c1.01323,-6.77553 -2.1571,-14.05381 -2.81685,-20.72921c-0.82178,-8.31462 -0.78667,-20.06425 3.36853,-27.58927c2.35077,-4.25721 6.9149,-8.12424 11.77157,-11.19754c-1.45688,0.02598 -2.79455,0.16797 -3.87681,0.51047c-8.54119,2.70314 -12.91354,9.68988 -17.21855,16.77388c-0.542,1.58898 -0.88316,3.07521 -1.0634,4.49123c0.63627,1.9922 1.11708,4.03444 1.46804,6.07315c0.00576,1.83413 0.17082,3.92096 0.3159,6.07079c0.7087,2.11065 1.51549,4.30356 2.24713,6.72001c2.24941,7.42938 2.1907,15.21952 4.24056,22.74658c0.77719,-1.08803 1.33653,-2.34922 1.56396,-3.87005zM235.25339,478.03037c1.92458,-4.68155 5.04075,-8.97726 8.77834,-12.39065c1.03758,-0.94757 2.25602,-1.76699 3.51666,-2.56342c-0.82495,-1.93943 -1.67112,-3.83233 -2.16753,-5.56693c-0.88302,-3.0855 -1.29849,-6.30133 -1.69878,-9.5066c-1.00596,1.63577 -2.09902,3.21987 -3.21999,4.75666c-0.98222,1.34657 -2.76598,1.89181 -3.95369,3.06117c-4.06665,4.00385 -5.60445,9.16366 -5.10158,14.74823c0.22535,2.50248 -0.33372,5.72199 1.55865,7.37489c0.60512,0.52855 1.36498,0.8036 2.14805,1.0457c0.04714,-0.32376 0.09387,-0.64353 0.13987,-0.95901zM244.28532,553.63748c3.77202,-2.69525 5.7688,-6.45708 8.025,-10.37212c0.11468,-0.66502 0.20462,-1.33944 0.26636,-2.02463c0.80489,-8.93162 -0.85839,-18.3208 -2.1256,-27.69312c-0.71173,0.85413 -1.59679,1.62631 -2.05121,2.62568c-0.83336,1.83271 -1.05954,3.88465 -1.58928,5.82697c-0.39302,1.0383 -0.79958,2.12979 -1.2087,3.26327c3.89746,5.22817 8.00941,9.84854 5.86699,17.65612c-0.99982,3.6436 -4.8835,5.77353 -7.13186,8.81002c-0.51402,0.69418 -0.78725,1.56156 -0.92523,2.48725zM244.12949,480.40301c-0.04847,0.34865 -0.09908,0.70662 -0.151,1.07271c2.81703,-2.30354 5.17334,-4.85709 5.77224,-8.63047c-2.37005,2.04192 -4.41944,4.39292 -5.62124,7.55775zM247.53433,489.44785c0.74725,0.98493 1.41751,1.96852 1.97656,2.91852c0.19299,-1.75321 0.4823,-3.49228 0.88858,-5.21379c-0.94123,0.75469 -1.90611,1.50594 -2.86512,2.29529zM242.38846,538.75417c-0.16708,0.9265 -0.30756,1.86213 -0.4485,2.7984c0.66048,-0.8773 0.98539,-2.04592 0.67731,-4.01341c-0.07887,0.40252 -0.15531,0.80742 -0.22881,1.21503zM332.48775,390.09544c-0.1195,0.0833 -0.23663,0.16781 -0.35154,0.25345c0.49366,0.08938 0.98612,0.17985 1.47735,0.27135c0.11558,-0.3729 0.30615,-0.85979 0.61047,-1.34455zM325.50269,399.05646c-0.28006,0.43715 -0.57069,0.87296 -0.87787,1.30495c0.92015,-0.46521 1.77067,-0.8412 2.55063,-1.17708c-0.55718,-0.04467 -1.11469,-0.08647 -1.67276,-0.12787z" fill="url(#color-21)" stroke-width="0.5"/><path d="M235.02103,566.15165v-179.50159h19.14116v179.50159z" fill="url(#color-22)" stroke-width="0"/><g stroke-width="0"><path d="M165.34725,413.65661v-13.22489c0,0 11.57979,17.24986 31.9122,17.24986c40.76063,0 42.83716,-6.89996 42.83716,-6.89996v13.22489c0,0 -2.07653,6.89996 -42.83716,6.89996c-20.33243,0 -31.9122,-17.24986 -31.9122,-17.24986z" fill="url(#color-23)"/><path d="M165.34725,432.63142v-13.22489c0,0 11.57979,17.24986 31.9122,17.24986c40.76063,0 42.83716,-6.89996 42.83716,-6.89996v13.22489c0,0 -2.07653,6.89996 -42.83716,6.89996c-20.33243,0 -31.9122,-17.24986 -31.9122,-17.24986z" fill="url(#color-24)"/><path d="M166.7254,451.03127v-13.22489c0,0 11.15279,17.24986 30.73548,17.24986c39.2576,0 41.25757,-6.89996 41.25757,-6.89996v13.22489c0,0 -1.99996,6.89996 -41.25757,6.89996c-19.58267,0 -30.73548,-17.24986 -30.73548,-17.24986z" fill="url(#color-25)"/><path d="M170.85989,468.62795v-13.22489c0,0 10.44112,17.24986 28.77424,17.24986c36.75259,0 38.62492,-6.89996 38.62492,-6.89996v13.22489c0,0 -1.87233,6.89996 -38.62492,6.89996c-18.3331,0 -28.77424,-17.24986 -28.77424,-17.24986z" fill="url(#color-26)"/><path d="M180.96643,488.1196v-10.8483c0,0 8.73314,14.14994 24.06729,14.14994c30.74051,0 32.30658,-5.65999 32.30658,-5.65999v10.8483c0,0 -1.56606,5.65999 -32.30658,5.65999c-15.33413,0 -24.06729,-14.14994 -24.06729,-14.14994z" fill="url(#color-27)"/></g><g data-paper-data="{&quot;index&quot;:null}" stroke-width="0"><path d="M292.0992,430.90643c-40.76063,0 -42.83716,-6.89996 -42.83716,-6.89996v-13.22489c0,0 2.07653,6.89996 42.83716,6.89996c20.33243,0 31.9122,-17.24986 31.9122,-17.24986v13.22489c0,0 -11.57979,17.24986 -31.9122,17.24986z" fill="url(#color-28)"/><path d="M292.0992,449.8813c-40.76063,0 -42.83716,-6.89996 -42.83716,-6.89996v-13.22489c0,0 2.07653,6.89996 42.83716,6.89996c20.33243,0 31.9122,-17.24986 31.9122,-17.24986v13.22489c0,0 -11.57979,17.24986 -31.9122,17.24986z" fill="url(#color-29)"/><path d="M291.89775,468.28113c-39.2576,0 -41.25757,-6.89996 -41.25757,-6.89996v-13.22489c0,0 1.99996,6.89996 41.25757,6.89996c19.58269,0 30.73548,-17.24986 30.73548,-17.24986v13.22489c0,0 -11.15281,17.24986 -30.73548,17.24986z" fill="url(#color-30)"/><path d="M289.72452,485.87781c-36.75259,0 -38.62492,-6.89996 -38.62492,-6.89996v-13.22489c0,0 1.87233,6.89996 38.62492,6.89996c18.33312,0 28.77424,-17.24986 28.77424,-17.24986v13.22489c0,0 -10.44114,17.24986 -28.77424,17.24986z" fill="url(#color-31)"/><path d="M284.32494,502.26954c-30.74053,0 -32.30658,-5.65999 -32.30658,-5.65999v-10.8483c0,0 1.56608,5.65999 32.30658,5.65999c15.33413,0 24.06729,-14.14994 24.06729,-14.14994v10.8483c0,0 -8.73314,14.14994 -24.06729,14.14994z" fill="url(#color-32)"/></g><path d="M152.94379,397.21597v-10.56591h183.29565v10.56591z" fill="url(#color-33)" stroke-width="0"/><path d="M225.84407,581.46535v-70.27058h37.49511v70.27058z" fill="url(#color-34)" stroke-width="0"/></g><path d="M344.36615,391.93094c0.00115,5.46448 -4.56206,9.89519 -10.19207,9.89634c-5.63007,0.00117 -10.19495,-4.42775 -10.19603,-9.89222c-0.00111,-5.46446 4.56206,-9.89511 10.19211,-9.89626c5.63007,-0.00117 10.19495,4.42771 10.19605,9.89218z" fill="url(#color-35)" stroke-width="0"/><path d="M165.20503,391.93094c0.00115,5.46448 -4.56206,9.89519 -10.19207,9.89634c-5.63007,0.00117 -10.19495,-4.42775 -10.19603,-9.89222c-0.00111,-5.46446 4.56206,-9.89511 10.19211,-9.89626c5.63007,-0.00117 10.19495,4.42771 10.19605,9.89218z" fill="url(#color-36)" stroke-width="0"/></g><g><g><path d="M292.18334,362.24441c-1.37292,2.05936 -3.43229,0.68646 -3.43229,0.68646l-1.00048,-0.929c-1.73499,-0.42611 -3.82077,-0.14884 -5.205,-1.2783c-3.07766,-2.51127 -0.12949,-6.73044 -2.29546,-9.54836c-1.4224,-1.85055 -3.9032,-2.83031 -4.86728,-5.08851c-1.73268,-4.05853 2.49778,-9.72902 0.10447,-13.54476c-0.82279,-1.31178 -3.90845,-3.46545 -5.20233,-4.43181c0,0 -1.98004,-1.48503 -0.49501,-3.46508c1.48503,-1.98004 3.46508,-0.49501 3.46508,-0.49501c4.93037,3.71167 8.09582,6.75702 7.53878,13.29898c-0.19218,2.25689 -1.8161,4.70052 -0.83768,6.74337c0.85534,1.78588 3.19379,2.45268 4.3097,4.08845c2.78992,4.08966 -0.71109,8.77674 4.29852,8.83828l2.9325,1.693c0,0 2.05936,1.37292 0.68646,3.43229z" fill="url(#color-37)" stroke="none" stroke-width="0.5"/><path d="M169.65917,219.28383c0,-2.47505 2.47505,-2.47505 2.47505,-2.47505h1.9665c2.05287,0 4.1456,0.43492 6.15853,0.03196c4.62261,-0.92537 8.61729,-4.55762 13.50643,-4.62045c12.50094,-0.16064 24.08659,8.05963 26.04812,20.47899c0,0 0.35003,2.45018 -2.10015,2.8002c-2.45018,0.35003 -2.8002,-2.10015 -2.8002,-2.10015c-1.26992,-10.3028 -11.30961,-16.04336 -21.14777,-16.22893c-2.78448,-0.05253 -5.73702,2.11437 -8.22981,3.08909c-4.21169,1.64684 -7.03567,1.49941 -11.43515,1.49941h-1.9665c0,0 -2.47505,0 -2.47505,-2.47505z" fill="url(#color-38)" stroke="none" stroke-width="0.5"/><path d="M308.12922,227.86053c0.60029,2.40116 -1.80087,3.00145 -1.80087,3.00145l-2.91987,0.71086c-3.99832,-0.15878 -5.61049,3.93486 -9.84369,3.26909c-1.35332,-0.21283 -2.28101,-1.57631 -3.57388,-2.02935c-1.45343,-0.50929 -8.90808,-0.72038 -10.19663,-0.09633c-2.2061,1.06841 -3.34433,3.60386 -5.2328,5.16657c-2.53628,2.09877 -5.42617,3.76763 -8.36746,5.24624c0,0 -2.21375,1.10688 -3.32063,-1.10688c-1.10688,-2.21375 1.10688,-3.32063 1.10688,-3.32063c5.1827,-2.57584 8.9712,-8.37828 13.93067,-10.56313c4.85095,-2.13706 12.13347,0.37068 16.38242,1.80732c1.65749,0.56043 5.75943,-3.2065 8.51028,-3.2859l2.32412,-0.60015c0,0 2.40116,-0.60029 3.00145,1.80087z" fill="url(#color-39)" stroke="none" stroke-width="0.5"/><path d="M284.74534,239.85032c-1.54616,1.93268 -3.47886,0.38654 -3.47886,0.38654l-0.6985,-0.84704c-1.0773,-0.27806 -3.59081,-1.75266 -5.77266,-2.68724c0.22236,1.44135 -1.13375,2.34544 -1.13375,2.34544c-3.94108,2.61217 -6.36523,5.0006 -10.79567,6.92712c-0.77538,0.33718 -1.72672,0.65143 -2.75885,0.97515c-2.48794,2.13563 -5.08645,4.13926 -7.82689,5.91348c-0.84486,0.54699 -1.90314,1.2027 -3.03394,1.8292c-1.03224,3.94474 -0.13472,8.91712 -0.13472,12.55211c0,0.66442 -0.00778,1.31425 -0.02412,1.95131c1.27081,0.92248 1.86314,2.26976 3.37277,3.13013c2.76167,1.57396 8.50236,2.31404 11.56444,2.6573c1.34627,0.15092 2.86827,0.04103 4.42538,-0.09096c-0.68272,-3.08172 -1.81756,-6.20953 -2.21496,-8.52549c-0.73475,-4.28204 0.93147,-6.79341 2.4803,-10.6602c4.54844,-9.10507 8.74213,-12.97174 19.35932,-12.97174h0.32887c0,0 2.47505,0 2.47505,2.47505c0,2.47505 -2.47505,2.47505 -2.47505,2.47505h-0.32887c-8.69372,0 -11.12145,2.61193 -14.84363,10.04945c-0.75701,1.89518 -2.074,3.60667 -2.443,5.61382c-0.67771,3.68637 1.0454,7.50021 2.24802,11.31844c0.88635,0.03435 1.73588,0.14448 2.51889,0.38078c5.09804,1.53841 7.54725,7.56957 13.05989,9.61204c0,0 2.31746,0.86904 1.44842,3.1865c-0.86904,2.31746 -3.18652,1.4484 -3.18652,1.4484c-3.78016,-1.43207 -7.15714,-3.21755 -9.90138,-6.31125c-0.99248,-1.11886 -1.0024,-2.8236 -2.69094,-3.15144c-0.06932,-0.01344 -0.13866,-0.02663 -0.20802,-0.03954c0.04449,1.13245 -0.07372,2.26038 -0.43212,3.38053c-2.67835,8.37063 -12.19863,10.104 -19.38805,12.094c-0.80869,0.22384 -1.64387,0.46216 -2.49634,0.67715c0.45497,0.63676 0.88098,1.32736 1.2794,2.10966c3.61758,1.70496 7.29893,3.45945 10.44742,6.58572c7.97668,7.92041 10.33371,18.15709 13.16673,28.76553c0,0 0.63773,2.39148 -1.75376,3.02921c-2.3915,0.63773 -3.02923,-1.75376 -3.02923,-1.75376c-2.58946,-9.72516 -4.6001,-19.19913 -11.82773,-26.48535c-1.34168,-1.35255 -3.2246,-2.79323 -5.14049,-4.05741c1.66793,6.6774 3.64021,13.86806 3.08172,20.55639c-0.15411,1.84544 -0.66207,6.59853 -2.40292,8.17879c-1.99224,1.80845 -3.91623,1.69585 -5.92425,1.53533c-0.99852,5.87138 -3.08978,12.23189 -4.63591,16.58181c0,0 -0.83245,2.33087 -3.16332,1.49842c-2.33087,-0.83245 -1.4984,-3.16332 -1.4984,-3.16332c1.65446,-4.60867 2.28184,-9.20595 3.17094,-13.89428c-3.69409,2.27182 -5.50333,7.52389 -5.94825,11.41612c0,0 -0.30701,2.45595 -2.76293,2.14896c-2.45593,-0.30701 -2.14896,-2.76293 -2.14896,-2.76293c0.91219,-6.84596 4.59332,-14.87286 12.08238,-16.57233c0.03085,-0.00699 0.06447,-0.01309 0.10072,-0.01832c0.46666,-1.89373 0.84682,-4.17005 -0.02982,-5.54149c-1.53685,-2.40427 -4.18906,-4.03654 -5.46549,-6.58861c-2.96599,-5.93011 -2.69185,-14.28324 -1.16474,-21.50448c-2.66195,2.77145 -5.35944,5.50347 -7.12524,8.89425c-1.57067,3.01608 -3.43997,6.82151 -4.42114,10.07311c-0.92444,3.06366 -0.76647,7.79792 -3.25446,10.25722c-2.48788,2.45919 -7.1639,2.35627 -10.30086,2.3693l-2.07901,-1.0538c0,0 -1.75012,-1.75012 0,-3.50026c1.18298,-1.18298 2.36595,-0.76671 3.00844,-0.3727c1.81637,0.05534 4.8439,0.11791 5.87116,-0.9428c1.48903,-1.53748 1.44624,-6.32939 2.00753,-8.15974c1.07144,-3.494 3.06406,-7.72993 4.78735,-10.97484c2.42436,-4.56503 6.36119,-7.8994 9.71827,-11.71847c-0.05251,-0.1612 -0.08564,-0.32152 -0.1052,-0.47412c-1.07441,-0.15836 -2.19171,-0.23854 -3.17874,-0.61977c-0.8574,-1.75731 -1.5019,-3.54842 -1.98384,-5.3654c-1.06778,1.0977 -2.25545,2.10645 -3.46975,3.32095c-6.7587,6.75973 -18.55467,15.79276 -28.50282,14.16885c0,0 -2.43514,-0.44276 -1.99238,-2.87789c0.44274,-2.43512 2.87789,-1.99238 2.87789,-1.99238c7.88168,1.63985 18.85526,-7.53781 24.11706,-12.79886c1.91143,-1.91114 4.39391,-3.395 5.356,-6.0348c0.15888,-0.43597 0.2992,-0.87393 0.42375,-1.31356c-0.11956,-1.68092 -0.16323,-3.37401 -0.16743,-5.07354c-9.52613,-2.19517 -22.40647,-6.48252 -29.17869,2.83099l-0.28974,1.27089c0,0 -0.78269,2.34805 -3.13073,1.56536c-2.34805,-0.78269 -1.56536,-3.13073 -1.56536,-3.13073l1.02576,-2.67559c8.41926,-10.96748 21.68484,-7.45516 33.20649,-4.89805c0.12413,-5.54145 0.2862,-11.09125 -0.76016,-16.45321c-1.25416,-6.42676 -10.70085,-13.54243 -15.9921,-16.83193c0,0 -2.09885,-1.31176 -0.78707,-3.4106c1.31178,-2.09885 3.41062,-0.78707 3.41062,-0.78707c6.62503,4.16015 16.44964,12.02456 18.21083,20.00202c0.47178,2.13706 0.57376,4.36243 0.51158,6.62544c0.34247,-0.77766 0.66565,-1.40332 0.8891,-1.59403c2.08398,-1.77879 5.19029,-1.81404 7.87849,-2.34378c0.64278,-0.12666 1.30372,-0.33059 1.97416,-0.59492c0.43189,-1.10805 1.02663,-2.16538 1.84182,-3.14809c2.48434,-2.99484 6.70072,-4.30093 10.53322,-5.5901c3.76495,-3.73957 7.7175,-9.58626 12.2833,-11.29666c4.22365,-1.58223 8.08133,2.30699 11.92752,3.22866l2.59023,1.78396c0,0 1.9327,1.54616 0.38654,3.47884zM238.8682,257.79442c-1.10166,0.95319 -0.93399,2.76034 -1.44549,4.12437c-0.8555,1.93874 -1.22602,3.9867 -1.44199,6.07844c2.6926,0.20913 5.48248,-0.18957 8.13776,-0.08275c0.03311,-1.26848 0.04297,-2.58259 0.04297,-3.95807c0,-2.29843 -0.15621,-4.72725 -0.0296,-7.10414c-2.39813,0.5263 -3.18488,-0.85647 -5.26367,0.94216zM253.53994,277.85224c-1.99883,-0.57413 -3.41833,-1.98711 -4.8595,-3.1452c-0.47509,3.64346 -1.38171,7.00017 -2.90761,10.53409l0.16167,0.10136c-0.20192,1.06346 -0.40383,2.12688 -0.60573,3.19034c0.30885,0.59787 0.62896,1.18977 1.07413,1.65387c0.54728,0.57055 1.0714,1.09344 1.57312,1.59075c6.75618,0.08502 16.07922,-3.70771 19.70866,-8.26741c0.92543,-1.16264 1.28471,-2.64102 1.30404,-4.27198c-5.11396,-0.26006 -10.31347,0.08926 -15.44877,-1.38579zM235.93805,278.12446c0.34999,2.79081 -0.12829,5.28006 0.53487,8.01842c0.70705,0.15219 1.46185,0.18559 2.20717,0.23968l0.14603,-0.18684c0.05144,-0.00103 0.10308,-0.00289 0.1549,-0.00552c-0.17262,-0.47244 -0.19347,-1.06734 0.11856,-1.79542c0.558,-1.30202 1.54184,-1.53948 2.28129,-1.50446c1.40262,-3.4364 2.10615,-6.68573 2.45379,-10.15117c-2.60017,-0.25826 -5.45409,0.14726 -8.2228,0.06609c-0.07962,0.9842 -0.17993,1.96713 -0.33397,2.9423c0.2998,0.77493 0.55758,1.55899 0.66015,2.37686zM244.16535,300.05567c-0.53626,-0.28503 -1.04736,-0.62831 -1.5362,-1.01521c-0.98675,5.68922 -1.02986,11.88606 1.1902,16.32801c2.28659,4.57507 5.56463,5.13641 6.26678,10.53783c0.15605,1.2005 0.18256,2.52063 0.10742,3.91775c0.8632,-0.0417 1.59166,-0.18616 1.96888,-0.53077c1.33041,-1.21537 1.07158,-6.4469 0.89342,-8.13503c-0.70153,-6.64671 -2.42112,-13.15968 -3.86233,-19.63858c-0.04041,-0.11474 -0.08574,-0.23475 -0.13573,-0.35946c-1.64478,-0.33483 -3.4208,-0.32235 -4.89245,-1.10457z" fill="url(#color-40)" stroke="none" stroke-width="0.5"/><path d="M224.9361,348.45913c-8.92463,-3.48301 -5.7129,-9.28514 -9.85325,-15.41313c-1.48875,-2.20347 -5.3335,-3.44191 -7.2823,-4.56107c-6.09089,-3.49785 -6.30236,-3.42458 -9.86499,-10.20597c-3.86439,-7.3558 0.4823,-14.01964 -3.49151,-20.3358c-4.29951,-5.7426 -8.70581,-18.69313 -5.51987,-26.10192c0.23444,-0.54517 6.62437,-5.1753 7.05135,-7.34964c0.63203,-3.21862 -1.87128,-6.42781 -1.65215,-9.70059c0.51895,-7.75052 6.29656,-14.54441 9.80664,-20.79297c1.67034,-2.97349 0.90397,-6.95183 2.64716,-9.88321c1.70339,-2.86441 5.73104,-4.74222 7.17811,-7.97967c0.93959,-2.10209 0.35888,-4.92373 1.88906,-6.64423c5.15447,-5.79549 17.56409,-6.21553 24.47171,-5.54159c3.91221,-0.56255 7.91203,0.01738 11.85309,0.31706c9.33982,0.7102 16.41834,-4.51188 25.26319,1.48634c4.63659,3.14435 8.05727,8.47304 7.37299,14.39529c-0.18747,1.62245 -2.71907,2.0575 -3.37253,3.55432c-0.78204,1.79133 2.89476,2.62718 4.34418,3.93856c3.24583,2.93672 5.82366,6.95803 6.82349,11.21948c1.57718,6.72227 3.09017,17.3136 2.05301,24.14332c-0.2516,1.65674 -1.66684,3.02812 -1.78493,4.69969c-0.13084,1.85219 5.20314,6.55378 5.22015,6.5882c1.42333,2.88011 1.76875,6.17698 2.65312,9.26547c-1.7286,1.42824 -3.73838,2.57214 -5.18577,4.28471c-3.77555,4.46723 0.43436,13.59846 -0.48557,18.60552c-0.8548,4.65257 -4.10443,9.75524 -7.34816,12.99694c-2.04887,2.04758 -5.2424,3.30344 -6.27763,6.00876c-2.56024,6.69051 0.45256,12.4833 -5.42496,18.41286c-2.16837,2.18757 -9.21132,5.36469 -14.09228,6.76205c-1.08439,1.437 -2.82594,1.92288 -2.82594,1.92288c-4.94601,1.32407 -11.89206,6.99397 -17.15781,5.50723c-3.20015,-0.90353 -4.71985,-4.37623 -6.58388,-7.37905c-1.06948,0.21982 -2.1093,0.41894 -3.09736,0.56598l-1.95848,0.29142c0,0 -4.1292,0.61445 -5.36786,-3.07722zM238.92295,339.92907c2.89468,-0.53675 5.79852,-0.95646 8.43544,-0.8594c3.65672,0.13458 7.06125,2.33538 10.72035,2.36249c2.76721,0.02049 5.1078,-2.47088 7.30129,-3.52804c1.24248,-0.59882 2.84516,-0.45333 3.92409,-1.31255c2.85689,-2.27517 1.61082,-11.72661 2.96868,-14.86567c3.07513,-7.10893 8.12913,-7.47344 11.65774,-13.57032c4.7225,-8.15974 -5.26006,-23.92053 7.39128,-27.64449c-4.42922,-2.31689 -7.97985,-7.30321 -8.3462,-12.42774c-0.16137,-2.25729 1.52327,-4.28846 1.88338,-6.52268c0.76471,-4.74448 -0.8431,-11.2249 -1.25182,-15.98954c-0.02202,-0.25669 -1.00056,-7.43043 -1.47931,-8.18683c-1.78647,-2.82255 -5.85483,-3.72317 -7.52854,-6.61402c-1.53653,-2.65389 -3.06158,-5.65789 -2.92763,-8.72158c0.07885,-1.80311 2.74274,-2.49678 3.48994,-4.13966c0.72479,-1.59356 -1.93197,-3.03293 -3.37522,-4.02378c-4.36708,-2.99816 -8.71067,-0.38161 -13.5267,0.02721c-6.27066,0.5323 -11.52561,-1.01715 -17.69386,-0.06603c-5.60582,-0.54695 -8.88915,0.06712 -14.27463,1.40926c-0.9371,0.23355 -2.30342,-0.23083 -2.84025,0.57199c-0.81699,1.22181 0.13486,3.04592 -0.47359,4.38386c-1.62108,3.56453 -5.56663,5.59776 -7.65821,8.90823c-1.75814,2.78269 -0.93771,6.64677 -2.46674,9.56167c-2.48301,4.73359 -8.52737,10.80345 -8.64366,16.65115c-0.08023,4.03545 2.55822,6.86891 1.45644,11.18986c-0.71246,2.7941 -2.57784,5.21335 -4.4011,7.44724c-0.83841,1.02723 -2.72284,0.94163 -3.38389,2.09102c-0.47305,0.82249 0.41971,1.85164 0.57831,2.78711c0.97965,5.77844 0.42175,9.09822 4.23026,13.61464c1.15338,2.22191 2.91769,4.22177 3.46011,6.66574c1.32233,5.95823 -2.38813,9.07234 0.57122,14.58506c3.84802,7.16815 11.73857,7.03107 16.43424,13.59995c1.32702,1.85641 1.96551,4.12813 2.72622,6.27953c0.64349,1.81984 0.08845,5.30551 2.01475,5.42896c3.64865,0.23382 7.89473,-0.8095 11.02765,0.90743z" fill="url(#color-41)" stroke="none" stroke-width="0.5"/><g stroke="none" stroke-width="0.5"><path d="M191.85837,277.78565c0,-2.59704 2.27089,-2.92322 2.84128,-2.96418c1.78376,-0.54176 6.6055,-2.01796 7.47134,-1.98478c5.96474,0.2286 10.95811,4.60984 16.15343,6.79287c4.07873,1.3934 8.2682,1.64726 12.50417,1.37114c-0.02936,-0.11773 -0.05873,-0.23545 -0.08803,-0.35318c-1.29014,-0.81225 -2.55546,-1.62892 -3.79216,-2.43246c-1.52531,-1.47177 -3.41258,-2.64348 -4.5759,-4.41532c-3.69434,-5.62687 -1.88324,-13.52771 -4.80297,-19.79265c-1.76655,-3.79054 -5.59366,-6.58853 -9.08885,-8.65542l-1.78022,-0.88033c0,0 -2.65651,-1.32825 -1.32825,-3.98476c1.32825,-2.65651 3.98476,-1.32825 3.98476,-1.32825l2.17987,1.09972c6.44385,3.91276 10.67861,8.53351 13.15925,15.76673c2.18096,6.35938 0.45064,11.15045 4.45316,15.98627c-0.75842,-7.74611 -0.03489,-15.89078 -0.00006,-23.59606c0.02253,-4.98769 3.82156,-10.34848 2.71951,-15.15796c-1.86698,-8.14776 -7.7545,-12.25579 0.2977,-19.43779c0,0 2.25503,-1.9329 4.18793,0.32215c1.9329,2.25503 -0.32215,4.18793 -0.32215,4.18793c-6.08099,4.89867 2.61504,12.53548 1.65215,19.38074c-0.39739,2.82515 -2.12896,5.33709 -2.62372,8.14681c-1.80661,10.25965 -0.24788,21.05324 1.48169,31.42247c0.04008,0.02428 0.08015,0.04853 0.12027,0.07279c1.0357,-2.69013 2.73581,-5.10437 4.57677,-7.27678c0.0495,-0.04265 0.11985,-0.10358 0.20788,-0.17989c2.5203,-7.64782 4.46322,-15.30952 2.3279,-23.66556c-1.31425,-5.143 -4.15752,-10.99415 -2.23117,-16.66577c1.31204,-3.86297 6.07315,-5.98753 9.215,-7.80852c3.23315,-1.87391 6.30163,-3.87479 9.50706,-5.69114c-0.14672,-0.45872 -0.17779,-1.01923 -0.00744,-1.70058c0.72034,-2.88138 3.60174,-2.16104 3.60174,-2.16104l1.72618,1.14773c0.2637,-0.10837 2.75598,-1.0513 3.89764,1.51741c0.85514,1.92405 -0.25994,3.09033 -0.98157,3.60629c0.20248,1.10878 0.20137,2.26873 -0.19757,3.69888c-1.54802,5.54943 -7.41267,8.23189 -8.15415,14.36761c-0.96248,7.96445 2.17838,15.73532 3.77107,23.53729c2.71462,-3.11542 4.89195,-6.77042 8.56967,-8.92344c3.47799,-2.0361 6.91987,-2.07406 10.77884,-2.07966h0.33001c0,0 2.97006,0 2.97006,2.97006c0,2.97006 -2.97006,2.97006 -2.97006,2.97006h-0.33001c-9.5507,-0.01546 -11.79494,7.08903 -18.48374,12.20695c0.00178,0.11108 0.00289,0.2222 0.00335,0.33332c-0.01408,3.81927 -1.15266,7.39873 -2.46529,10.93277c0.07641,0.01618 0.15276,0.03269 0.22909,0.04956c11.66443,2.57839 14.48736,18.45462 23.68413,24.49725c0,0 2.47125,1.64749 0.82376,4.11875c-1.64749,2.47125 -4.11875,0.82376 -4.11875,0.82376c-3.83457,-2.58685 -7.99209,-6.16324 -10.45477,-10.15905c-2.57534,-4.17862 -5.40556,-12.40949 -11.4021,-13.52474c-0.28867,-0.0537 -0.58025,-0.09871 -0.87439,-0.13571c-0.26091,0.75339 -0.50665,1.50945 -0.72808,2.27004c5.96823,4.47725 6.90423,10.87818 11.52797,16.16287c5.8143,6.64544 10.26611,9.09127 10.27878,18.7557c0,0 0,2.97006 -2.97006,2.97006c-2.97006,0 -2.97006,-2.97006 -2.97006,-2.97006c0.01166,-8.05218 -3.96373,-9.21162 -8.86164,-14.90503c-3.48088,-4.04624 -4.81746,-8.8756 -8.09159,-12.8146c0.00996,0.54673 0.04404,1.09819 0.10512,1.65498c0.58257,5.31075 0.81804,11.85117 2.50537,16.87525c2.14498,6.38667 6.4453,10.54628 5.06853,17.88765c-1.07427,5.72838 -3.62126,10.22203 -6.71262,15.02572c0,0 -1.6135,2.49359 -4.10706,0.88009c-2.49359,-1.6135 -0.88009,-4.10706 -0.88009,-4.10706c2.65742,-4.08224 4.8618,-7.82856 5.82764,-12.69489c1.20507,-6.07158 -3.05944,-9.76383 -4.83168,-15.11308c-1.78485,-5.38726 -2.24656,-12.4064 -2.77473,-18.10551c-0.18515,-1.9979 -0.0659,-3.91023 0.24719,-5.76664c-0.91448,-0.01618 -1.88716,0.04396 -3.04689,-0.27788c-1.68747,-0.46826 -3.36502,-1.05394 -5.0265,-1.72868c0.83241,6.27042 2.97331,12.21978 3.50973,19.10288c0.83025,10.65354 -3.93326,20.79841 -3.07635,31.56161c0.38553,0.44884 1.72848,2.2723 -0.09496,4.09574c-2.10015,2.10015 -4.20031,0 -4.20031,0l-1.51176,-2.43219c-1.23064,-11.22308 3.94201,-21.83402 2.96054,-32.77223c-0.44408,-4.94918 -1.54542,-9.40075 -2.44442,-13.81937c-0.32576,1.55093 -0.76467,3.07633 -1.40912,4.54978c-0.24202,3.26685 -0.92082,6.48943 -2.36696,9.62418c-1.50186,3.25549 -3.31822,5.70644 -4.05671,9.4649c-1.60546,8.17069 4.63534,17.71426 4.65845,26.25484v0.66001c0,0 0,2.97006 -2.97006,2.97006c-2.97006,0 -2.97006,-2.97006 -2.97006,-2.97006v-0.66001c0.02901,-9.20649 -6.26549,-18.14379 -4.58174,-27.20633c0.58964,-3.17363 1.86047,-5.73743 3.19975,-8.36049c-2.34148,1.48432 -4.87029,2.59312 -7.2153,2.87958c-0.86142,0.10522 -5.48219,-0.6392 -6.56671,-0.64353c-4.76155,-0.01905 -9.39727,1.71523 -13.45853,3.93514c0,0 -2.61506,1.40811 -4.02317,-1.20696c-1.40811,-2.61506 1.20696,-4.02317 1.20696,-4.02317c4.46419,-2.37326 7.82042,-3.43229 12.81262,-4.27673c3.29234,-0.55693 6.25363,0.59871 9.40305,0.30819c3.41528,-0.31504 7.82899,-4.11035 9.94942,-6.58261c0.45094,-0.52574 0.84484,-1.0598 1.18957,-1.60158c0.13476,-3.29937 -0.24473,-6.6538 -0.57225,-9.93902c-0.00748,-0.04891 -0.01507,-0.09777 -0.02275,-0.1466c-5.50698,0.19436 -11.04785,-0.15072 -15.9067,-1.74101c-4.25424,-1.85176 -9.36764,-6.1574 -14.20723,-6.4074c-2.08889,-0.10791 -3.99088,1.25475 -5.9943,1.85593l-1.18345,0.12526c0,0 -2.97006,0 -2.97006,-2.97006zM254.21636,271.18549c-1.69304,0.02792 -3.5439,-0.97123 -5.07384,-0.2457c-1.03422,0.49046 -1.80069,1.37726 -2.59106,2.23375c-0.5175,1.62096 -1.07344,3.2843 -1.65484,5.01923c-0.04867,0.26996 -0.09308,0.53845 -0.13344,0.80556c4.03109,-0.66898 8.04109,-1.21753 11.97558,-1.12946c0.81994,-2.3259 1.53311,-4.67356 1.88253,-7.11188c-1.11425,0.31673 -2.34693,0.39456 -4.40492,0.4285zM254.27074,284.6841c0.04956,-0.1486 0.0997,-0.29703 0.15034,-0.44529c-0.54635,0.06352 -1.09413,0.13813 -1.64157,0.22018c0.49281,0.08421 0.99242,0.15385 1.49121,0.22511zM256.99629,265.04366c0.59833,-0.19595 1.1609,-0.42775 1.6929,-0.6902c-0.95343,-9.45243 -5.77394,-18.77267 -4.44037,-28.4848c0.71547,-5.21062 5.24511,-9.2112 7.06881,-13.5613c-2.52499,1.50143 -4.99246,3.09124 -7.57717,4.58594c-1.5176,0.87761 -6.05359,2.59904 -6.62534,4.73175c-1.58164,5.89962 2.39237,12.52831 2.81748,18.23539c0.42074,5.64837 -0.067,10.42562 -1.10777,15.12939c2.76117,-0.25331 5.44312,0.94731 8.17148,0.05382z" fill="url(#color-42)"/><path d="M226.6087,211.5223c1.07728,-3.47003 4.66855,-2.89247 4.66855,-2.89247l1.70333,0.27392c0.85934,0.13821 1.7637,0.32536 2.69385,0.532c1.6212,-2.82253 2.94292,-6.08673 5.72617,-6.93601c4.57974,-1.39747 10.62089,3.93201 14.92256,5.17659c0,0 1.51465,0.4567 2.45779,1.80742c4.24509,1.31346 10.37052,4.29984 12.25641,6.35606c5.11182,5.57354 2.49153,11.01852 4.71823,17.30734c0.90037,2.54289 3.67785,3.72335 5.45981,5.64799c2.82115,3.04707 5.64742,7.84339 6.39087,12.21661c0.80008,4.70644 -2.86138,13.28942 0.4223,17.48843c1.25883,1.60976 3.00679,2.68496 4.5102,4.02745c-0.76917,2.90306 -1.06956,6.00199 -2.30748,8.70918c-0.01479,0.03233 -4.65387,4.45165 -4.54008,6.19264c0.1027,1.57122 1.33356,2.86025 1.55239,4.41752c0.90205,6.41968 -0.41385,16.3751 -1.78556,22.69377c-0.86958,4.00559 -3.11156,7.78547 -5.93455,10.54587c-1.26057,1.23264 -4.4584,2.01832 -3.77824,3.70209c0.56831,1.40696 2.77012,1.81588 2.93316,3.34093c0.59514,5.56667 -2.37991,10.57543 -6.41247,13.53098c-7.69259,5.63809 -13.84894,0.72953 -21.972,1.3971c-3.42763,0.28168 -6.90637,0.82679 -10.30892,0.29802c-6.00773,0.6335 -16.80069,0.23867 -21.28364,-5.20886c-1.33083,-1.6172 -0.82578,-4.26943 -1.64296,-6.24531c-1.25856,-3.04307 -4.76149,-4.80814 -6.24298,-7.50056c-1.5161,-2.75539 -0.84956,-6.49486 -2.3023,-9.28983c-3.05281,-5.8734 -8.07774,-12.25938 -8.52908,-19.54455c-0.19058,-3.07627 1.9866,-6.09277 1.43692,-9.11816c-0.37136,-2.0438 -5.92882,-6.39594 -6.13273,-6.90837c-2.77091,-6.96397 1.06138,-19.13694 4.80077,-24.53475c3.45611,-5.93692 -0.32431,-12.20067 3.03665,-19.11484c3.09851,-6.37423 3.28242,-6.30539 8.57982,-9.59321c1.69492,-1.05196 5.03879,-2.21604 6.3336,-4.28721c3.60097,-5.76006 0.80764,-11.21384 8.56961,-14.48772zM238.77343,219.54017c-2.72478,1.61385 -6.41772,0.63316 -9.59103,0.85294c-1.67535,0.11605 -1.19262,3.39243 -1.75228,5.10301c-0.66161,2.02222 -1.21691,4.15754 -2.37106,5.90251c-4.08394,6.17449 -10.94655,6.04563 -14.29326,12.7834c-2.57382,5.18173 0.65326,8.10889 -0.49681,13.70938c-0.47175,2.29723 -2.00622,4.17702 -3.00935,6.26551c-3.31235,4.24525 -2.82713,7.36572 -3.67916,12.79722c-0.13793,0.87932 -0.9144,1.84665 -0.50297,2.61976c0.57495,1.08039 2.21387,0.99992 2.94306,1.96547c1.58574,2.09976 3.20811,4.37378 3.82776,7.00011c0.95824,4.06152 -1.33647,6.72486 -1.26671,10.51803c0.10114,5.4966 5.35806,11.20203 7.51759,15.65141c1.32984,2.73988 0.61629,6.37198 2.1454,8.98759c1.81909,3.11172 5.25066,5.02287 6.66055,8.37338c0.52919,1.2576 -0.29867,2.9722 0.41189,4.12065c0.46689,0.75461 1.65522,0.31811 2.47024,0.53766c4.68387,1.26156 7.53947,1.83877 12.41499,1.32465c5.36467,0.89401 9.93504,-0.56241 15.38878,-0.06207c4.18862,0.38427 7.96637,2.84374 11.76453,0.02558c1.25523,-0.93137 3.56588,-2.28432 2.93549,-3.7822c-0.64987,-1.54424 -2.96672,-2.19624 -3.03529,-3.8911c-0.11649,-2.87974 1.20989,-5.7034 2.54624,-8.19793c1.45567,-2.71727 4.99403,-3.56382 6.54775,-6.21692c0.41638,-0.71099 1.26745,-7.45401 1.28659,-7.69528c0.35548,-4.47856 1.75382,-10.56991 1.08873,-15.02954c-0.3132,-2.10007 -1.77838,-4.00929 -1.63803,-6.13105c0.31861,-4.81685 3.4067,-9.50381 7.2589,-11.68158c-11.00318,-3.50038 -2.32111,-18.31488 -6.42839,-25.98472c-3.06893,-5.73082 -7.46453,-6.07345 -10.13903,-12.75556c-1.18096,-2.95058 -0.09722,-11.83456 -2.58192,-13.97313c-0.93838,-0.80764 -2.33227,-0.67088 -3.41288,-1.23375c-1.90773,-0.99368 -3.94339,-3.33548 -6.3501,-3.31622c-3.1824,0.02548 -6.14342,2.09415 -9.32377,2.22066c-2.29339,0.09124 -4.81893,-0.30328 -7.3365,-0.8078z" data-paper-data="{&quot;index&quot;:null}" fill="url(#color-43)"/></g><path d="M226.6087,211.5223c1.07728,-3.47003 4.66855,-2.89247 4.66855,-2.89247l1.70333,0.27392c0.85934,0.13821 1.7637,0.32536 2.69385,0.532c1.6212,-2.82253 2.94292,-6.08673 5.72617,-6.93601c4.57974,-1.39747 10.62089,3.93201 14.92256,5.17659c0,0 1.51465,0.4567 2.45779,1.80742c4.24509,1.31346 10.37052,4.29984 12.25641,6.35606c5.11182,5.57354 2.49153,11.01852 4.71823,17.30734c0.90037,2.54289 3.67785,3.72335 5.45981,5.64799c2.82115,3.04707 5.64742,7.84339 6.39087,12.21661c0.80008,4.70644 -2.86138,13.28942 0.4223,17.48843c1.25883,1.60976 3.00679,2.68496 4.5102,4.02745c-0.76917,2.90306 -1.06956,6.00199 -2.30748,8.70918c-0.01479,0.03233 -4.65387,4.45165 -4.54008,6.19264c0.1027,1.57122 1.33356,2.86025 1.55239,4.41752c0.90205,6.41968 -0.41385,16.3751 -1.78556,22.69377c-0.86958,4.00559 -3.11156,7.78547 -5.93455,10.54587c-1.26057,1.23264 -4.4584,2.01832 -3.77824,3.70209c0.56831,1.40696 2.77012,1.81588 2.93316,3.34093c0.59514,5.56667 -2.37991,10.57543 -6.41247,13.53098c-7.69259,5.63809 -13.84894,0.72953 -21.972,1.3971c-3.42763,0.28168 -6.90637,0.82679 -10.30892,0.29802c-6.00773,0.6335 -16.80069,0.23867 -21.28364,-5.20886c-1.33083,-1.6172 -0.82578,-4.26943 -1.64296,-6.24531c-1.25856,-3.04307 -4.76149,-4.80814 -6.24298,-7.50056c-1.5161,-2.75539 -0.84956,-6.49486 -2.3023,-9.28983c-3.05281,-5.8734 -8.07774,-12.25938 -8.52908,-19.54455c-0.19058,-3.07627 1.9866,-6.09277 1.43692,-9.11816c-0.37136,-2.0438 -5.92882,-6.39594 -6.13273,-6.90837c-2.77091,-6.96397 1.06138,-19.13694 4.80077,-24.53475c3.45611,-5.93692 -0.32431,-12.20067 3.03665,-19.11484c3.09851,-6.37423 3.28242,-6.30539 8.57982,-9.59321c1.69492,-1.05196 5.03879,-2.21604 6.3336,-4.28721c3.60097,-5.76006 0.80764,-11.21384 8.56961,-14.48772zM238.77343,219.54017c-2.72478,1.61385 -6.41772,0.63316 -9.59103,0.85294c-1.67535,0.11605 -1.19262,3.39243 -1.75228,5.10301c-0.66161,2.02222 -1.21691,4.15754 -2.37106,5.90251c-4.08394,6.17449 -10.94655,6.04563 -14.29326,12.7834c-2.57382,5.18173 0.65326,8.10889 -0.49681,13.70938c-0.47175,2.29723 -2.00622,4.17702 -3.00935,6.26551c-3.31235,4.24525 -2.82713,7.36572 -3.67916,12.79722c-0.13793,0.87932 -0.9144,1.84665 -0.50297,2.61976c0.57495,1.08039 2.21387,0.99992 2.94306,1.96547c1.58574,2.09976 3.20811,4.37378 3.82776,7.00011c0.95824,4.06152 -1.33647,6.72486 -1.26671,10.51803c0.10114,5.4966 5.35806,11.20203 7.51759,15.65141c1.32984,2.73988 0.61629,6.37198 2.1454,8.98759c1.81909,3.11172 5.25066,5.02287 6.66055,8.37338c0.52919,1.2576 -0.29867,2.9722 0.41189,4.12065c0.46689,0.75461 1.65522,0.31811 2.47024,0.53766c4.68387,1.26156 7.53947,1.83877 12.41499,1.32465c5.36467,0.89401 9.93504,-0.56241 15.38878,-0.06207c4.18862,0.38427 7.96637,2.84374 11.76453,0.02558c1.25523,-0.93137 3.56588,-2.28432 2.93549,-3.7822c-0.64987,-1.54424 -2.96672,-2.19624 -3.03529,-3.8911c-0.11649,-2.87974 1.20989,-5.7034 2.54624,-8.19793c1.45567,-2.71727 4.99403,-3.56382 6.54775,-6.21692c0.41638,-0.71099 1.26745,-7.45401 1.28659,-7.69528c0.35548,-4.47856 1.75382,-10.56991 1.08873,-15.02954c-0.3132,-2.10007 -1.77838,-4.00929 -1.63803,-6.13105c0.31861,-4.81685 3.4067,-9.50381 7.2589,-11.68158c-11.00318,-3.50038 -2.32111,-18.31488 -6.42839,-25.98472c-3.06893,-5.73082 -7.46453,-6.07345 -10.13903,-12.75556c-1.18096,-2.95058 -0.09722,-11.83456 -2.58192,-13.97313c-0.93838,-0.80764 -2.33227,-0.67088 -3.41288,-1.23375c-1.90773,-0.99368 -3.94339,-3.33548 -6.3501,-3.31622c-3.1824,0.02548 -6.14342,2.09415 -9.32377,2.22066c-2.29339,0.09124 -4.81893,-0.30328 -7.3365,-0.8078z" data-paper-data="{&quot;index&quot;:null}" fill="url(#color-44)" stroke="none" stroke-width="0.5"/><path d="M224.9361,348.45913c-8.92463,-3.48301 -5.7129,-9.28514 -9.85325,-15.41313c-1.48875,-2.20347 -5.3335,-3.44191 -7.2823,-4.56107c-6.09089,-3.49785 -6.30236,-3.42458 -9.86499,-10.20597c-3.86439,-7.3558 0.4823,-14.01964 -3.49151,-20.3358c-4.29951,-5.7426 -8.70581,-18.69313 -5.51987,-26.10192c0.23444,-0.54517 6.62437,-5.1753 7.05135,-7.34964c0.63203,-3.21862 -1.87128,-6.42781 -1.65215,-9.70059c0.51895,-7.75052 6.29656,-14.54441 9.80664,-20.79297c1.67034,-2.97349 0.90397,-6.95183 2.64716,-9.88321c1.70339,-2.86441 5.73104,-4.74222 7.17811,-7.97967c0.93959,-2.10209 0.35888,-4.92373 1.88906,-6.64423c5.15447,-5.79549 17.56409,-6.21553 24.47171,-5.54159c3.91221,-0.56255 7.91203,0.01738 11.85309,0.31706c9.33982,0.7102 16.41834,-4.51188 25.26319,1.48634c4.63659,3.14435 8.05727,8.47304 7.37299,14.39529c-0.18747,1.62245 -2.71907,2.0575 -3.37253,3.55432c-0.78204,1.79133 2.89476,2.62718 4.34418,3.93856c3.24583,2.93672 5.82366,6.95803 6.82349,11.21948c1.57718,6.72227 3.09017,17.3136 2.05301,24.14332c-0.2516,1.65674 -1.66684,3.02812 -1.78493,4.69969c-0.13084,1.85219 5.20314,6.55378 5.22015,6.5882c1.42333,2.88011 1.76875,6.17698 2.65312,9.26547c-1.7286,1.42824 -3.73838,2.57214 -5.18577,4.28471c-3.77555,4.46723 0.43436,13.59846 -0.48557,18.60552c-0.8548,4.65257 -4.10443,9.75524 -7.34816,12.99694c-2.04887,2.04758 -5.2424,3.30344 -6.27763,6.00876c-2.56024,6.69051 0.45256,12.4833 -5.42496,18.41286c-2.16837,2.18757 -9.21132,5.36469 -14.09228,6.76205c-1.08439,1.437 -2.82594,1.92288 -2.82594,1.92288c-4.94601,1.32407 -11.89206,6.99397 -17.15781,5.50723c-3.20015,-0.90353 -4.71985,-4.37623 -6.58388,-7.37905c-1.06948,0.21982 -2.1093,0.41894 -3.09736,0.56598l-1.95848,0.29142c0,0 -4.1292,0.61445 -5.36786,-3.07722zM238.92295,339.92907c2.89468,-0.53675 5.79852,-0.95646 8.43544,-0.8594c3.65672,0.13458 7.06125,2.33538 10.72035,2.36249c2.76721,0.02049 5.1078,-2.47088 7.30129,-3.52804c1.24248,-0.59882 2.84516,-0.45333 3.92409,-1.31255c2.85689,-2.27517 1.61082,-11.72661 2.96868,-14.86567c3.07513,-7.10893 8.12913,-7.47344 11.65774,-13.57032c4.7225,-8.15974 -5.26006,-23.92053 7.39128,-27.64449c-4.42922,-2.31689 -7.97985,-7.30321 -8.3462,-12.42774c-0.16137,-2.25729 1.52327,-4.28846 1.88338,-6.52268c0.76471,-4.74448 -0.8431,-11.2249 -1.25182,-15.98954c-0.02202,-0.25669 -1.00056,-7.43043 -1.47931,-8.18683c-1.78647,-2.82255 -5.85483,-3.72317 -7.52854,-6.61402c-1.53653,-2.65389 -3.06158,-5.65789 -2.92763,-8.72158c0.07885,-1.80311 2.74274,-2.49678 3.48994,-4.13966c0.72479,-1.59356 -1.93197,-3.03293 -3.37522,-4.02378c-4.36708,-2.99816 -8.71067,-0.38161 -13.5267,0.02721c-6.27066,0.5323 -11.52561,-1.01715 -17.69386,-0.06603c-5.60582,-0.54695 -8.88915,0.06712 -14.27463,1.40926c-0.9371,0.23355 -2.30342,-0.23083 -2.84025,0.57199c-0.81699,1.22181 0.13486,3.04592 -0.47359,4.38386c-1.62108,3.56453 -5.56663,5.59776 -7.65821,8.90823c-1.75814,2.78269 -0.93771,6.64677 -2.46674,9.56167c-2.48301,4.73359 -8.52737,10.80345 -8.64366,16.65115c-0.08023,4.03545 2.55822,6.86891 1.45644,11.18986c-0.71246,2.7941 -2.57784,5.21335 -4.4011,7.44724c-0.83841,1.02723 -2.72284,0.94163 -3.38389,2.09102c-0.47305,0.82249 0.41971,1.85164 0.57831,2.78711c0.97965,5.77844 0.42175,9.09822 4.23026,13.61464c1.15338,2.22191 2.91769,4.22177 3.46011,6.66574c1.32233,5.95823 -2.38813,9.07234 0.57122,14.58506c3.84802,7.16815 11.73857,7.03107 16.43424,13.59995c1.32702,1.85641 1.96551,4.12813 2.72622,6.27953c0.64349,1.81984 0.08845,5.30551 2.01475,5.42896c3.64865,0.23382 7.89473,-0.8095 11.02765,0.90743z" fill="url(#color-45)" stroke="none" stroke-width="0.5"/><g><path d="M221.26851,289.93801v-20.98846h2.37605v20.98846z" fill="url(#color-46)" stroke="none" stroke-width="0"/><path d="M264.96146,289.93801v-20.98846h2.37605v20.98846z" fill="url(#color-47)" stroke="none" stroke-width="0"/><path d="M209.53606,272.40366v-4.17051h69.80123v4.17051z" fill="url(#color-48)" stroke="none" stroke-width="0"/><g stroke-width="0"><path d="M276.40871,270.63623c0,5.93815 -4.60144,10.75199 -10.27765,10.75199c-5.67619,0 -10.27763,-4.81384 -10.27763,-10.75199c0,-5.93815 4.60144,-10.75199 10.27763,-10.75199c5.67619,0 10.27765,4.81382 10.27765,10.75199z" fill="url(#color-49)" stroke="none"/><g stroke="#a70000"><path d="M270.30233,270.78982c0,2.37366 -1.87362,4.2979 -4.18482,4.2979c-2.31121,0 -4.18482,-1.92425 -4.18482,-4.2979c0,-2.37366 1.8736,-4.29792 4.18482,-4.29792c2.31121,0 4.18482,1.92427 4.18482,4.29792z" fill="#960000"/><path d="M269.30336,270.78982c0,1.80705 -1.42636,3.27194 -3.18587,3.27194c-1.75949,0 -3.18585,-1.4649 -3.18585,-3.27194c0,-1.80705 1.42634,-3.27196 3.18585,-3.27196c1.75949,0 3.18587,1.46492 3.18587,3.27196z" fill="#000000"/></g><path d="M276.40871,270.63623c0,0.04364 -5.20369,-2.43137 -10.37463,-2.39619c-5.10629,0.03473 -10.18065,2.58109 -10.18065,2.39619c0,-5.93815 4.60144,-10.75199 10.27763,-10.75199c5.67619,0 10.27765,4.81382 10.27765,10.75199z" fill="url(#color-50)" stroke="none"/></g><path d="M236.46278,316.57331l0.00917,-2.20173l15.12056,0.06304l-0.00919,2.20173z" fill="url(#color-51)" stroke="none" stroke-width="0"/><path d="M249.96424,317.21172l0.07277,-25.33917l2.64413,0.016l-0.07277,25.33917z" fill="url(#color-52)" stroke="none" stroke-width="0"/><path d="M235.72644,317.1256l0.07277,-25.33915l2.64413,0.01598l-0.07277,25.33917z" fill="url(#color-53)" stroke="none" stroke-width="0"/><g stroke="none" stroke-width="0"><path d="M239.10622,334.82814l0.08859,-21.254l10.12792,0.04223l-0.08857,21.254z" fill="url(#color-54)"/><path d="M239.10622,334.82814l0.01115,-2.67597l10.12792,0.04221l-0.01115,2.67597z" fill="#494949"/></g><path d="M213.37033,288.76022l62.43492,0.13177l0.00457,6.1658l-62.44223,-0.13342z" fill="url(#color-55)" stroke="none" stroke-width="0"/><g><path d="M224.63074,303.97709c-0.9708,0.19416 -1.16496,-0.77663 -1.16496,-0.77663l-0.14359,-0.73139c-0.60061,-4.80481 1.57752,-8.49726 -0.96743,-12.76528c-1.65106,-4.51458 -0.14363,-6.35127 0.03635,-10.62428c0.09615,-2.28261 -1.47563,-4.27238 -1.71072,-6.45787c-0.25238,-2.34613 1.36635,-3.78384 1.87168,-5.89227c0,0 0.24012,-0.96046 1.20058,-0.72034c0.96046,0.24012 0.72034,1.20058 0.72034,1.20058c-0.45333,1.75656 -2.04323,3.31738 -1.82439,5.19597c0.26362,2.26291 1.85423,4.34071 1.72135,6.74242c-0.22412,4.05061 -1.7425,5.51317 -0.22765,9.70417c2.77784,4.59701 0.51618,8.34382 1.14462,13.37129l0.12043,0.58865c0,0 0.19414,0.9708 -0.77663,1.16496z" fill="url(#color-56)" stroke="none" stroke-width="0.5"/><path d="M221.79652,303.2043c-0.99002,0 -0.99002,-0.99002 -0.99002,-0.99002v-0.79202c0.05556,-4.54244 3.83176,-6.89819 3.82808,-11.35224c0.01808,-4.91924 -2.98729,-8.08491 -5.16629,-12.07937c-1.55404,-2.84883 -1.11114,-7.47781 -0.76778,-10.60246c0,0 0.10934,-0.98396 1.0933,-0.87464c0.98396,0.10934 0.87464,1.0933 0.87464,1.0933c-0.25956,2.30814 -0.66664,6.05107 0.09003,8.29826c1.70026,5.04945 5.83703,8.26268 5.85616,14.16489c-0.00406,4.56261 -3.90185,7.00973 -3.82808,11.35224v0.79202c0,0 0,0.99002 -0.99002,0.99002z" fill="url(#color-57)" stroke="none" stroke-width="0.5"/><g stroke-width="0"><path d="M230.47171,305.48499c0,5.93815 -4.60144,10.75199 -10.27765,10.75199c-5.67619,0 -10.27763,-4.81382 -10.27763,-10.75199c0,-5.93815 4.60144,-10.75199 10.27763,-10.75199c5.67619,0 10.27765,4.81384 10.27765,10.75199z" fill="url(#color-58)" stroke="none"/><g stroke="#a70000"><path d="M221.85727,310.39069c0,2.37366 -1.8736,4.2979 -4.18482,4.2979c-2.31121,0 -4.18482,-1.92425 -4.18482,-4.2979c0,-2.37366 1.8736,-4.2979 4.18482,-4.2979c2.31121,0 4.18482,1.92425 4.18482,4.2979z" fill="#960000"/><path d="M220.85832,310.39069c0,1.80705 -1.42634,3.27194 -3.18585,3.27194c-1.75949,0 -3.18585,-1.4649 -3.18585,-3.27194c0,-1.80705 1.42634,-3.27196 3.18585,-3.27196c1.75949,0 3.18585,1.46492 3.18585,3.27196z" fill="#000000"/></g></g></g><path d="M232.84776,270.63623c0,0.04364 -5.20369,-1.11134 -10.37463,-1.07617c-5.10629,0.03473 -10.18065,1.26107 -10.18065,1.07617c0,-5.93815 4.60144,-10.75199 10.27763,-10.75199c5.67619,0 10.27765,4.81382 10.27765,10.75199z" fill="url(#color-59)" stroke="none" stroke-width="0"/></g><path d="M201.64491,252.61392c-0.68567,-2.21602 1.7142,-2.84918 1.7142,-2.84918l1.56033,-0.37058c9.83866,-4.4826 18.38547,-10.17338 29.88822,-10.20247c0.45719,0.11239 0.92868,0.24717 1.41009,0.39029c0.20909,-0.73735 0.3274,-1.44711 0.31411,-2.10694c-0.09383,-4.66391 -3.07679,-8.0368 -4.20025,-12.27716c-1.83869,-6.93989 4.55699,-14.01663 10.09885,-17.64951c0,0 2.04473,-1.32166 3.47605,0.56643c1.43131,1.88809 -0.61342,3.20975 -0.61342,3.20975c-3.67159,2.33235 -9.63299,7.99668 -8.10319,12.8143c1.44658,4.55556 4.39904,8.37705 4.33198,13.45952c-0.01416,1.07299 -0.15739,2.12571 -0.39486,3.16452c0.54342,0.05011 1.0817,0.05544 1.6092,-0.00212c2.14474,-0.23404 3.95799,-1.03012 5.65415,-2.01442c1.44131,-6.19106 -2.47985,-12.35711 0.29421,-18.41426c1.4303,-3.12306 5.12463,-6.01698 7.54236,-8.49813c0,0 1.66967,-1.71305 3.52487,-0.17129c1.8552,1.54176 0.18551,3.25483 0.18551,3.25483c-2.02752,2.07972 -5.49749,4.65231 -6.67799,7.25902c-1.87261,4.13504 -0.21093,8.77264 0.14365,13.39004c1.05041,-0.61474 2.13991,-1.15506 3.32105,-1.52939c3.41185,-1.0813 7.18219,0.90482 10.36905,-1.48551c2.82556,-2.11934 7.75914,-7.65881 6.74365,-10.84537c0,0 -0.48949,-2.25996 1.95795,-2.71195c2.44743,-0.45198 2.93692,1.80796 2.93692,1.80796c1.00321,6.07489 -5.6597,15.01647 -12.18123,17.08249c-2.57796,0.81669 -5.96385,-0.25653 -8.24781,0.52523c-1.87197,0.64074 -3.89863,2.56705 -5.7804,3.68876c-3.22832,8.73647 -6.90407,13.5227 -3.49313,22.95836c2.02063,4.09479 4.33307,7.40841 3.24117,12.11212c-0.71899,3.09744 -4.03812,7.42235 -3.64443,10.61606c0.69581,5.64431 2.99349,8.64257 1.0395,14.75532l-0.53808,1.99767c0,0 -0.60534,2.2359 -3.02675,1.67692c-2.42139,-0.55897 -1.81604,-2.79487 -1.81604,-2.79487l0.59956,-2.20422c1.86342,-5.62667 -0.7563,-7.80911 -1.23574,-13.0823c-0.44721,-4.91886 4.22537,-9.33371 3.97967,-14.20829c-0.12015,-2.38358 -2.2206,-5.09732 -3.24529,-7.18358c-3.30196,-9.15792 -1.07322,-14.595 1.92518,-22.23549c-2.19224,0.50438 -4.28844,0.59057 -6.54939,0.3488c-2.19268,5.20377 -5.64894,10.2628 -5.64894,16.03556c0.6764,2.43925 2.01517,5.27515 2.524,7.68174c0.73202,3.46209 -1.24252,8.16184 -0.0362,11.41847c1.58896,4.28972 2.46694,6.58465 1.46412,11.30935l-0.49945,1.10395c0,0 -1.11621,2.06138 -3.34861,1.03069c-2.2324,-1.03069 -1.11621,-3.09209 -1.11621,-3.09209l0.06936,0.05348c0.94993,-4.28368 -0.13098,-5.28145 -1.37993,-9.17495c-1.17072,-3.64967 0.78796,-8.00274 -0.0362,-11.69202c-0.57528,-2.57518 -1.9005,-5.4548 -2.59532,-8.07543c0,-4.37502 0.85292,-8.90552 2.73095,-12.98142c0.60676,-1.31685 1.58871,-2.95007 2.49396,-4.65179c-0.07799,-0.01994 -0.15632,-0.04012 -0.23493,-0.06051c-10.08111,-0.03568 -18.40609,5.74872 -26.99322,9.75662l-2.42138,0.67987c0,0 -2.39987,0.63316 -3.08554,-1.58287z" fill="url(#color-60)" stroke="none" stroke-width="0.5"/><path d="M292.68094,247.9718c0.30699,2.45595 -2.14896,2.76293 -2.14896,2.76293l-2.33914,0.29099c-6.94443,0.59051 -11.67596,5.80903 -18.44165,7.02896c-4.41621,0.79627 -10.74892,-0.65488 -14.82286,0.74408c-4.65706,1.5992 -7.13166,12.18386 -8.05986,16.25495c-1.60677,3.24955 -3.67294,6.85402 -6.25668,9.96039c0.30631,-0.00424 0.61197,-0.00642 0.91692,-0.00628c7.67324,0.67088 10.49748,5.43128 15.91842,10.1996c1.22876,1.08083 3.4942,4.82871 5.1435,5.09445c5.45393,0.87872 11.06678,-1.47503 16.62325,-0.89751c3.47266,0.36092 6.26175,2.53103 9.42483,3.84202c0,0 2.28467,0.95195 1.33273,3.2366c-0.95195,2.28467 -3.2366,1.33271 -3.2366,1.33271c-2.45268,-1.02685 -5.36316,-3.29287 -8.06109,-3.4908c-5.51503,-0.4046 -11.85175,2.25331 -17.22042,0.79467c-8.25167,-2.24194 -10.76918,-14.58042 -20.11457,-15.16527c-2.11908,0.00093 -4.28711,0.12423 -6.47254,0.27422c-2.29948,1.46355 -4.87114,2.40993 -7.735,2.54659c-4.3533,0.20775 -7.16946,-2.48781 -11.69067,-1.46357c-7.39843,1.67603 -12.075,7.12037 -20.18113,5.6473c0,0 -2.427,-0.48541 -1.94159,-2.91239c0.48541,-2.42698 2.91239,-1.94161 2.91239,-1.94161c4.97066,1.12843 9.27353,-1.84352 13.72344,-3.97838c-5.0262,-1.39124 -10.05462,-2.30206 -15.26308,0.67211l-1.48402,0.31148c0,0 -2.47505,0 -2.47505,-2.47505c0,-1.84447 1.37453,-2.31441 2.07493,-2.43413c5.36103,-2.66938 13.13903,-2.95702 18.95683,-1.68068c3.0876,0.67737 5.38021,2.77836 8.48007,3.06194c4.26474,0.39013 8.69449,0.08148 13.10016,-0.21297c3.97444,-2.99056 6.90437,-8.10895 8.86022,-11.97162c1.31067,-6.07834 4.60617,-16.79954 11.11822,-19.28091c4.26577,-1.62544 11.0504,-0.18658 15.63644,-0.9481c6.84146,-1.13601 11.58599,-6.38273 18.78641,-7.07256l2.17333,-0.27309c0,0 2.45593,-0.30699 2.76293,2.14896z" fill="url(#color-61)" stroke="none" stroke-width="0.5"/><path d="M224.9361,348.45913c-8.92463,-3.48301 -5.7129,-9.28514 -9.85325,-15.41313c-1.48875,-2.20347 -5.3335,-3.44191 -7.2823,-4.56107c-6.09089,-3.49785 -6.30236,-3.42458 -9.86499,-10.20597c-3.86439,-7.3558 0.4823,-14.01964 -3.49151,-20.3358c-4.29951,-5.7426 -8.70581,-18.69313 -5.51987,-26.10192c0.23444,-0.54517 6.62437,-5.1753 7.05135,-7.34964c0.63203,-3.21862 -1.87128,-6.42781 -1.65215,-9.70059c0.51895,-7.75052 6.29656,-14.54441 9.80664,-20.79297c1.67034,-2.97349 0.90397,-6.95183 2.64716,-9.88321c1.70339,-2.86441 5.73104,-4.74222 7.17811,-7.97967c0.93959,-2.10209 0.35888,-4.92373 1.88906,-6.64423c5.15447,-5.79549 17.56409,-6.21553 24.47171,-5.54159c3.91221,-0.56255 7.91203,0.01738 11.85309,0.31706c9.33982,0.7102 16.41834,-4.51188 25.26319,1.48634c4.63659,3.14435 8.05727,8.47304 7.37299,14.39529c-0.18747,1.62245 -2.71907,2.0575 -3.37253,3.55432c-0.78204,1.79133 2.89476,2.62718 4.34418,3.93856c3.24583,2.93672 5.82366,6.95803 6.82349,11.21948c1.57718,6.72227 3.09017,17.3136 2.05301,24.14332c-0.2516,1.65674 -1.66684,3.02812 -1.78493,4.69969c-0.13084,1.85219 5.20314,6.55378 5.22015,6.5882c1.42333,2.88011 1.76875,6.17698 2.65312,9.26547c-1.7286,1.42824 -3.73838,2.57214 -5.18577,4.28471c-3.77555,4.46723 0.43436,13.59846 -0.48557,18.60552c-0.8548,4.65257 -4.10443,9.75524 -7.34816,12.99694c-2.04887,2.04758 -5.2424,3.30344 -6.27763,6.00876c-2.56024,6.69051 0.45256,12.4833 -5.42496,18.41286c-2.16837,2.18757 -9.21132,5.36469 -14.09228,6.76205c-1.08439,1.437 -2.82594,1.92288 -2.82594,1.92288c-4.94601,1.32407 -11.89206,6.99397 -17.15781,5.50723c-3.20015,-0.90353 -4.71985,-4.37623 -6.58388,-7.37905c-1.06948,0.21982 -2.1093,0.41894 -3.09736,0.56598l-1.95848,0.29142c0,0 -4.1292,0.61445 -5.36786,-3.07722zM238.92295,339.92907c2.89468,-0.53675 5.79852,-0.95646 8.43544,-0.8594c3.65672,0.13458 7.06125,2.33538 10.72035,2.36249c2.76721,0.02049 5.1078,-2.47088 7.30129,-3.52804c1.24248,-0.59882 2.84516,-0.45333 3.92409,-1.31255c2.85689,-2.27517 1.61082,-11.72661 2.96868,-14.86567c3.07513,-7.10893 8.12913,-7.47344 11.65774,-13.57032c4.7225,-8.15974 -5.26006,-23.92053 7.39128,-27.64449c-4.42922,-2.31689 -7.97985,-7.30321 -8.3462,-12.42774c-0.16137,-2.25729 1.52327,-4.28846 1.88338,-6.52268c0.76471,-4.74448 -0.8431,-11.2249 -1.25182,-15.98954c-0.02202,-0.25669 -1.00056,-7.43043 -1.47931,-8.18683c-1.78647,-2.82255 -5.85483,-3.72317 -7.52854,-6.61402c-1.53653,-2.65389 -3.06158,-5.65789 -2.92763,-8.72158c0.07885,-1.80311 2.74274,-2.49678 3.48994,-4.13966c0.72479,-1.59356 -1.93197,-3.03293 -3.37522,-4.02378c-4.36708,-2.99816 -8.71067,-0.38161 -13.5267,0.02721c-6.27066,0.5323 -11.52561,-1.01715 -17.69386,-0.06603c-5.60582,-0.54695 -8.88915,0.06712 -14.27463,1.40926c-0.9371,0.23355 -2.30342,-0.23083 -2.84025,0.57199c-0.81699,1.22181 0.13486,3.04592 -0.47359,4.38386c-1.62108,3.56453 -5.56663,5.59776 -7.65821,8.90823c-1.75814,2.78269 -0.93771,6.64677 -2.46674,9.56167c-2.48301,4.73359 -8.52737,10.80345 -8.64366,16.65115c-0.08023,4.03545 2.55822,6.86891 1.45644,11.18986c-0.71246,2.7941 -2.57784,5.21335 -4.4011,7.44724c-0.83841,1.02723 -2.72284,0.94163 -3.38389,2.09102c-0.47305,0.82249 0.41971,1.85164 0.57831,2.78711c0.97965,5.77844 0.42175,9.09822 4.23026,13.61464c1.15338,2.22191 2.91769,4.22177 3.46011,6.66574c1.32233,5.95823 -2.38813,9.07234 0.57122,14.58506c3.84802,7.16815 11.73857,7.03107 16.43424,13.59995c1.32702,1.85641 1.96551,4.12813 2.72622,6.27953c0.64349,1.81984 0.08845,5.30551 2.01475,5.42896c3.64865,0.23382 7.89473,-0.8095 11.02765,0.90743z" fill="url(#color-62)" stroke="none" stroke-width="0.5"/></g><g stroke="none" stroke-width="0"><path d="M266.053,254.85428c8.74924,0 15.84191,7.31664 15.84191,16.34217c0,9.02553 -7.09267,16.34217 -15.84191,16.34217c-8.74924,0 -15.84191,-7.31664 -15.84191,-16.34217c0,-9.02553 7.09267,-16.34217 15.84191,-16.34217z" fill="url(#color-63)"/><path d="M266.053,270.16431c0.55259,0 1.00054,0.4621 1.00054,1.03214c0,0.57003 -0.44796,1.03214 -1.00054,1.03214c-0.55259,0 -1.00054,-0.4621 -1.00054,-1.03214c0,-0.57003 0.44796,-1.03214 1.00054,-1.03214z" fill="#ffffff"/></g></g></g></g></svg>