<svg version="1.1" xmlns="http://www.w3.org/2000/svg" xmlns:xlink="http://www.w3.org/1999/xlink" width="57.18736" height="54.99156" viewBox="0,0,57.18736,54.99156"><g transform="translate(-340.22121,-148.63929)"><g data-paper-data="{&quot;isPaintingLayer&quot;:true}" fill="#ff0000" fill-rule="nonzero" stroke-linecap="butt" stroke-linejoin="miter" stroke-miterlimit="10" stroke-dasharray="" stroke-dashoffset="0" style="mix-blend-mode: normal"><g stroke="none" stroke-width="0.5"><path d="M354.33827,182.60263c-0.2959,-0.86486 0.42318,-1.23222 0.60845,-1.31085c0.53229,-0.38365 1.96981,-1.42463 2.26193,-1.51223c2.01239,-0.60348 4.17446,0.2866 6.15331,0.42164c1.51704,-0.0007 2.94113,-0.3935 4.32031,-0.96809c-0.02319,-0.03586 -0.04638,-0.07172 -0.06956,-0.10758c-0.52218,-0.1235 -1.03661,-0.25129 -1.54,-0.37798c-0.67564,-0.31633 -1.43764,-0.4915 -2.02692,-0.949c-1.87139,-1.45291 -2.16847,-4.29037 -3.85461,-6.04401c-1.02017,-1.06103 -2.61347,-1.55675 -4.01291,-1.84682l-0.69315,-0.09033c0,0 -1.03599,-0.13965 -0.89635,-1.17565c0.13965,-1.03599 1.17565,-0.89635 1.17565,-0.89635l0.85123,0.11785c2.59172,0.5688 4.52844,1.62509 6.17867,3.75122c1.45087,1.86928 1.42053,3.66193 3.30443,4.81629c-1.13515,-2.49316 -1.82219,-5.2879 -2.68852,-7.85784c-0.56078,-1.66354 0.09355,-3.88163 -0.82144,-5.35769c-1.55008,-2.50061 -3.97878,-3.19783 -2.11557,-6.507c0,0 0.53073,-0.90062 1.43135,-0.36989c0.90062,0.53073 0.36989,1.43135 0.36989,1.43135c-1.46691,2.32419 2.29912,3.87655 2.7584,6.26584c0.18955,0.98609 -0.10088,2.0199 0.0545,3.01195c0.56733,3.62247 2.31623,7.0393 4.07365,10.29535c0.01611,0.00352 0.03223,0.00702 0.04834,0.01054c0.0384,-1.01386 0.32949,-2.01155 0.69503,-2.94475c0.01162,-0.01984 0.02811,-0.04814 0.04873,-0.08359c-0.03209,-2.834 -0.25802,-5.60683 -1.92119,-8.14623c-1.02365,-1.56296 -2.63717,-3.18752 -2.64189,-5.29574c-0.00321,-1.43592 1.34024,-2.68591 2.17905,-3.6503c0.86317,-0.99242 1.65705,-2.00837 2.51756,-2.97846c-0.10113,-0.13604 -0.17534,-0.31916 -0.19624,-0.56547c-0.08842,-1.04162 0.95321,-1.13003 0.95321,-1.13003l0.70562,0.18553c0.07547,-0.06614 0.79801,-0.66411 1.47087,0.06123c0.504,0.5433 0.26554,1.05875 0.08402,1.31279c0.19376,0.34617 0.32556,0.73258 0.35565,1.2543c0.11678,2.02442 -1.53061,3.58593 -1.07844,5.71371c0.58693,2.76194 2.51829,4.9919 3.93762,7.40861c0.54905,-1.34678 0.85768,-2.81204 1.83711,-3.94806c0.92623,-1.07433 2.06811,-1.47914 3.35257,-1.92068l0.1099,-0.03761c0,0 0.98908,-0.33841 1.32748,0.65068c0.33841,0.98908 -0.65068,1.32748 -0.65068,1.32748l-0.1099,0.03761c-3.18229,1.08304 -3.12019,3.70465 -4.76454,6.17111c0.01325,0.03678 0.02628,0.07366 0.0391,0.11061c0.43047,1.27348 0.45914,2.59522 0.42468,3.92167c0.02728,-0.00332 0.0546,-0.00652 0.08194,-0.0096c4.17822,-0.47039 6.92721,4.495 10.67835,5.45943c0,0 1.01067,0.26707 0.7436,1.27774c-0.26707,1.01067 -1.27774,0.7436 -1.27774,0.7436c-1.57172,-0.42456 -3.36372,-1.14185 -4.63911,-2.19192c-1.33373,-1.09812 -3.21405,-3.51666 -5.33806,-3.20481c-0.10225,0.015 -0.20447,0.03324 -0.30665,0.05444c-0.00105,0.28062 0.00326,0.5604 0.01618,0.83891c2.49765,0.81098 3.53866,2.83595 5.68056,4.06901c2.69342,1.55056 4.45462,1.85783 5.55999,5.07479c0,0 0.33841,0.98908 -0.65068,1.32748c-0.98908,0.33841 -1.32748,-0.65068 -1.32748,-0.65068c-0.91357,-2.68283 -2.36953,-2.61599 -4.64932,-3.95393c-1.62021,-0.95086 -2.61556,-2.40682 -4.1547,-3.34551c0.06561,0.18093 0.13979,0.3607 0.22357,0.53916c0.79911,1.70218 1.62272,3.85342 2.75706,5.33426c1.442,1.88247 3.34801,2.77771 3.72599,5.37936c0.29493,2.03004 -0.04125,3.8167 -0.5234,5.76863c0,0 -0.25321,1.01424 -1.26744,0.76104c-1.01424,-0.25321 -0.76104,-1.26744 -0.76104,-1.26744c0.41984,-1.66223 0.72708,-3.16097 0.49426,-4.89158c-0.29048,-2.15924 -2.13131,-2.90291 -3.33098,-4.48237c-1.2082,-1.59068 -2.16171,-3.87555 -2.98694,-5.71326c-0.28929,-0.64423 -0.46747,-1.29466 -0.57472,-1.94854c-0.30638,0.09881 -0.62344,0.22966 -1.04632,0.25462c-0.61531,0.03633 -1.24068,0.03243 -1.87086,-0.00296c0.99165,1.99331 2.38246,3.7306 3.34535,5.96166c1.49033,3.45319 1.0599,7.37434 2.57161,10.86102c0.17953,0.10554 0.83451,0.55977 0.43503,1.37476c-0.4601,0.93867 -1.39876,0.47858 -1.39876,0.47858l-0.78055,-0.63771c-1.68856,-3.59725 -1.17499,-7.72021 -2.74811,-11.25098c-0.71178,-1.59755 -1.58575,-2.95451 -2.38859,-4.32355c0.06823,0.5536 0.09586,1.11159 0.04914,1.6757c0.29162,1.11549 0.43275,2.26599 0.30833,3.47469c-0.12921,1.25525 -0.45483,2.27841 -0.27253,3.61417c0.39631,2.90389 3.56198,5.37098 4.54277,8.21249l0.0752,0.21979c0,0 0.33841,0.98908 -0.65068,1.32748c-0.98908,0.33841 -1.32748,-0.65068 -1.32748,-0.65068l-0.0752,-0.21979c-1.03931,-3.0692 -4.15378,-5.32828 -4.62564,-8.53809c-0.16524,-1.12405 -0.03415,-2.12263 0.11298,-3.14874c-0.61063,0.76109 -1.32642,1.41846 -2.07471,1.78104c-0.27488,0.13319 -1.89848,0.41177 -2.26014,0.53389c-1.58784,0.53618 -2.934,1.64191 -4.03354,2.84391c0,0 -0.71042,0.76688 -1.4773,0.05646c-0.76688,-0.71042 -0.05646,-1.4773 -0.05646,-1.4773c1.21624,-1.29897 2.21325,-2.03405 3.77952,-2.88407c1.03294,-0.56059 2.15077,-0.51315 3.16647,-0.96873c1.10145,-0.49405 2.13886,-2.26084 2.5633,-3.32573c0.09027,-0.22646 0.1606,-0.44919 0.21366,-0.66889c-0.33104,-1.1141 -0.83962,-2.18793 -1.32301,-3.24465c-0.00806,-0.01543 -0.01616,-0.03085 -0.02428,-0.04623c-1.81176,0.69218 -3.69628,1.20858 -5.49555,1.2326c-1.62771,-0.13194 -3.82113,-0.98317 -5.46127,-0.51502c-0.70793,0.20207 -1.18606,0.87256 -1.78473,1.30104l-0.37984,0.17656c0,0 -0.98908,0.33841 -1.32748,-0.65068zM374.35244,173.2997c-0.56062,0.2022 -1.29083,0.08035 -1.71766,0.49628c-0.28853,0.28116 -0.44274,0.66381 -0.60835,1.03909c0.01236,0.59877 0.01673,1.21603 0.0208,1.86003c0.01455,0.09545 0.03036,0.18992 0.04735,0.28347c1.26619,-0.68207 2.53908,-1.32165 3.85936,-1.74061c0.00804,-0.86798 -0.02195,-1.73104 -0.18341,-2.58286c-0.33498,0.23243 -0.73661,0.3988 -1.41808,0.64459zM375.90855,177.78876c-0.00043,-0.05513 -0.00064,-0.11027 -0.00067,-0.16541c-0.17471,0.0834 -0.34862,0.17066 -0.52158,0.26036c0.17371,-0.02811 0.34802,-0.06184 0.52224,-0.09494zM374.5784,170.93763c0.17692,-0.13342 0.33786,-0.27472 0.48512,-0.42273c-1.3945,-3.03917 -4.06174,-5.59372 -4.72422,-8.97995c-0.35543,-1.81674 0.6972,-3.66509 0.80888,-5.32153c-0.66979,0.78769 -1.31035,1.59827 -2.0008,2.39052c-0.40539,0.46517 -1.71981,1.55525 -1.66721,2.33063c0.14548,2.14488 2.22415,3.89954 3.01597,5.75164c0.78368,1.83305 1.16556,3.47953 1.35491,5.16454c0.89065,-0.39896 1.92058,-0.3047 2.72736,-0.91312z"/><path d="M358.36073,156.57652c-0.03662,-1.27832 1.22513,-1.49517 1.22513,-1.49517l0.59844,-0.10285c0.30192,-0.05189 0.62441,-0.09261 0.95771,-0.12976c0.21829,-1.12466 0.28653,-2.36228 1.11663,-2.96223c1.3659,-0.9872 3.98493,0.0993 5.55925,0.02363c0,0 0.55644,-0.02049 1.02442,0.32187c1.56333,-0.04627 3.94346,0.25031 4.80577,0.72019c2.33736,1.27365 2.08515,3.38545 3.54321,5.22603c0.58957,0.74423 1.64901,0.82088 2.46173,1.25879c1.28667,0.69328 2.77434,1.96852 3.5202,3.34016c0.80268,1.47616 0.56129,4.7516 2.13324,5.7758c0.60263,0.39265 1.30723,0.55154 1.96084,0.82732c0.07463,1.05441 0.32768,2.12062 0.22389,3.1632c-0.00124,0.01245 -1.04259,2.01272 -0.80634,2.57953c0.21322,0.51154 0.76999,0.80057 1.02029,1.29423c1.03184,2.03507 1.72794,5.50032 1.99108,7.76082c0.16681,1.433 -0.14913,2.94721 -0.77471,4.18811c-0.27934,0.55411 -1.25475,1.18011 -0.8364,1.66334c0.34956,0.40378 1.12939,0.28909 1.35745,0.77838c0.83245,1.78597 0.4124,3.79295 -0.59375,5.23665c-1.91936,2.75405 -4.52879,1.82087 -7.15783,2.96871c-1.10936,0.48435 -2.20573,1.06223 -3.39907,1.27383c-1.92849,0.89548 -5.56769,1.99372 -7.68127,0.69039c-0.62744,-0.38692 -0.76145,-1.3277 -1.25871,-1.89259c-0.76584,-0.86999 -2.13348,-1.05867 -2.93361,-1.78648c-0.81883,-0.74484 -1.02293,-2.06609 -1.82517,-2.83134c-1.68584,-1.6081 -4.08683,-3.16219 -5.06719,-5.53684c-0.41397,-1.00273 -0.03263,-2.25534 -0.56039,-3.20021c-0.35654,-0.63831 -2.70313,-1.45443 -2.82942,-1.60184c-1.71622,-2.0034 -1.82698,-6.49382 -1.19672,-8.71745c0.4745,-2.37087 -1.49812,-4.02606 -1.16666,-6.71153c0.30558,-2.47576 0.37467,-2.47378 1.76417,-4.17226c0.44457,-0.54344 1.4255,-1.31209 1.62071,-2.14934c0.54289,-2.32848 -1.00874,-3.8264 1.20311,-5.80104zM363.32532,157.86055c-0.72351,0.8479 -2.06505,0.94208 -3.09678,1.37682c-0.5447,0.22953 -0.01063,1.26561 -0.0021,1.89903c0.01008,0.74881 0.06845,1.52318 -0.11707,2.23578c-0.6565,2.52152 -2.95654,3.26052 -3.30336,5.88562c-0.26672,2.01885 1.14146,2.62595 1.39658,4.62204c0.10464,0.81877 -0.19218,1.6196 -0.28828,2.42939c-0.61937,1.79114 -0.10224,2.77502 0.23287,4.68087c0.05425,0.30854 -0.0941,0.71915 0.13099,0.92973c0.31456,0.29428 0.85119,0.08074 1.20403,0.31921c0.76732,0.51858 1.56669,1.09101 2.07229,1.89501c0.78187,1.24337 0.32115,2.39176 0.77657,3.647c0.65995,1.81893 3.06065,3.11996 4.28677,4.35562c0.75504,0.7609 0.93125,2.05175 1.73848,2.74856c0.96032,0.82898 2.32085,1.07444 3.17212,2.02957c0.31951,0.35851 0.23919,1.02383 0.60666,1.32531c0.24146,0.1981 0.58746,-0.08265 0.88389,-0.1024c1.70354,-0.11355 2.72027,-0.24669 4.28531,-0.97342c1.88838,-0.31352 3.24444,-1.31927 5.11763,-1.77404c1.43866,-0.34928 2.97694,0.03933 3.92068,-1.33192c0.31189,-0.45317 0.92722,-1.16701 0.54663,-1.594c-0.39237,-0.44021 -1.2382,-0.39336 -1.45414,-0.94996c-0.3669,-0.94573 -0.24692,-2.03718 -0.08612,-3.02015c0.17515,-1.07075 1.25703,-1.75582 1.47216,-2.81637c0.05766,-0.28421 -0.42722,-2.62671 -0.44834,-2.70924c-0.3919,-1.53193 -0.62027,-3.71976 -1.34988,-5.12911c-0.34358,-0.66368 -1.04904,-1.13253 -1.24405,-1.8551c-0.44273,-1.64038 0.05163,-3.55307 1.08635,-4.71722c-4.06305,0.08801 -2.85973,-5.83468 -5.10141,-7.92087c-1.67496,-1.55878 -3.1778,-1.17205 -4.8298,-3.09257c-0.72946,-0.84803 -1.38079,-3.93001 -2.45189,-4.35909c-0.40452,-0.16204 -0.85312,0.04232 -1.27711,-0.02199c-0.74852,-0.11355 -1.69325,-0.66147 -2.49253,-0.38083c-1.05688,0.37108 -1.80725,1.39736 -2.85194,1.80185c-0.75334,0.29169 -1.63933,0.44806 -2.53521,0.5669z" data-paper-data="{&quot;index&quot;:null}"/></g><g><path d="M365.51692,183.29861l-2.39139,-6.98948l0.79126,-0.27072l2.39139,6.98948z" stroke="none" stroke-width="0"/><path d="M380.06735,178.3203l-2.39139,-6.98948l0.79126,-0.27072l2.39139,6.98948z" stroke="none" stroke-width="0"/><path d="M359.612,178.79617l-0.47518,-1.38885l23.24489,-7.95304l0.47518,1.38885z" stroke="none" stroke-width="0"/><g stroke-width="0"><path d="M381.68025,170.58823c0.67658,1.97749 -0.30729,4.10486 -2.19756,4.7516c-1.89026,0.64673 -3.97109,-0.43207 -4.64767,-2.40956c-0.67658,-1.97749 0.30729,-4.10486 2.19755,-4.7516c1.89026,-0.64673 3.9711,0.43206 4.64768,2.40956z" stroke="none"/><g stroke="#a70000"><path d="M379.66422,171.33513c0.27045,0.79046 -0.13425,1.64475 -0.90391,1.90808c-0.76967,0.26333 -1.61285,-0.16399 -1.8833,-0.95445c-0.27045,-0.79046 0.13423,-1.64475 0.90391,-1.90808c0.76967,-0.26333 1.61286,0.164 1.88331,0.95446z"/><path d="M379.33155,171.44895c0.2059,0.60178 -0.1022,1.25213 -0.68814,1.4526c-0.58594,0.20047 -1.22785,-0.12484 -1.43374,-0.72661c-0.2059,-0.60178 0.1022,-1.25213 0.68814,-1.45261c0.58594,-0.20047 1.22785,0.12484 1.43374,0.72662z"/></g><path d="M381.68025,170.58823c0.00498,0.01454 -2.00993,-0.21679 -3.72793,0.3841c-1.69652,0.59337 -3.09623,2.01951 -3.11729,1.95794c-0.67658,-1.97749 0.30729,-4.10486 2.19755,-4.7516c1.89026,-0.64673 3.9711,0.43206 4.64768,2.40956z" stroke="none"/></g><path d="M373.61163,190.43736l-0.24781,-0.73425l5.04256,-1.70182l0.2478,0.73425z" stroke="none" stroke-width="0"/><path d="M378.18056,189.11163l-2.86288,-8.44662l0.88236,-0.29594l2.86288,8.44662z" stroke="none" stroke-width="0"/><path d="M373.42934,190.70518l-2.86287,-8.44661l0.88235,-0.29594l2.86288,8.44662z" stroke="none" stroke-width="0"/><g stroke="none" stroke-width="0"><path d="M376.57186,196.21531l-2.39215,-7.088l3.37757,-1.1399l2.39215,7.088z"/><path d="M376.57186,196.21531l-0.30118,-0.89241l3.37756,-1.1399l0.30118,0.89241z"/></g><path d="M362.75251,183.80628l20.8068,-7.06986l0.70404,2.05278l-20.80943,7.07014z" stroke="none" stroke-width="0"/><g><path d="M368.23619,187.59075c-0.30117,0.17527 -0.47644,-0.1259 -0.47644,-0.1259l-0.13115,-0.2272c-0.74746,-1.53164 -0.44282,-3.00946 -1.77662,-4.14081c-1.06421,-1.31531 -0.77149,-2.09871 -1.19841,-3.54219c-0.22806,-0.7711 -0.9782,-1.25464 -1.3055,-1.95565c-0.35136,-0.75255 0.02389,-1.41576 -0.04806,-2.17547c0,0 -0.02947,-0.34721 0.31774,-0.37667c0.34721,-0.02947 0.37667,0.31774 0.37667,0.31774c0.04917,0.63661 -0.30245,1.33754 -0.01553,1.93821c0.34563,0.72355 1.11206,1.23426 1.34146,2.0492c0.38688,1.37446 0.04788,2.03451 1.02987,3.25758c1.44884,1.21437 1.12258,2.71981 1.90468,4.32242l0.10718,0.1823c0,0 0.17526,0.30117 -0.1259,0.47644z" stroke="none" stroke-width="0.5"/><path d="M367.2043,187.65632c-0.32969,0.1128 -0.44249,-0.21689 -0.44249,-0.21689l-0.09024,-0.26376c-0.49906,-1.51903 0.49007,-2.73379 -0.01865,-4.21663c-0.55448,-1.64024 -1.916,-2.35203 -3.09676,-3.43397c-0.84211,-0.77163 -1.22204,-2.36363 -1.46372,-3.4433c0,0 -0.0757,-0.34013 0.26444,-0.41584c0.34013,-0.0757 0.41584,0.26444 0.41584,0.26444c0.17655,0.79822 0.46745,2.09105 0.97547,2.75319c1.14153,1.48782 2.88525,2.08654 3.56412,4.04988c0.5185,1.51989 -0.5007,2.77892 0.01865,4.21663l0.09024,0.26376c0,0 0.1128,0.32969 -0.21689,0.44249z" stroke="none" stroke-width="0.5"/><g stroke-width="0"><path d="M370.35313,187.42739c0.67658,1.97749 -0.30729,4.10486 -2.19756,4.7516c-1.89026,0.64673 -3.97109,-0.43206 -4.64767,-2.40956c-0.67658,-1.97749 0.30729,-4.10486 2.19755,-4.7516c1.89026,-0.64673 3.9711,0.43206 4.64768,2.40956z" stroke="none"/><g stroke="#a70000"><path d="M368.04333,190.04258c0.27045,0.79046 -0.13424,1.64475 -0.90391,1.90808c-0.76967,0.26333 -1.61285,-0.16399 -1.8833,-0.95445c-0.27045,-0.79046 0.13424,-1.64475 0.90391,-1.90808c0.76967,-0.26333 1.61285,0.16399 1.8833,0.95445z"/><path d="M367.71067,190.1564c0.2059,0.60178 -0.1022,1.25212 -0.68814,1.4526c-0.58594,0.20047 -1.22785,-0.12484 -1.43374,-0.72661c-0.2059,-0.60178 0.1022,-1.25213 0.68814,-1.45261c0.58594,-0.20047 1.22785,0.12485 1.43373,0.72663z"/></g></g></g><path d="M367.17377,175.5515c0.00498,0.01454 -1.85954,0.22281 -3.57753,0.82369c-1.69652,0.59337 -3.24663,1.57993 -3.2677,1.51835c-0.67658,-1.97749 0.30729,-4.10486 2.19755,-4.7516c1.89026,-0.64673 3.9711,0.43206 4.64768,2.40956z" stroke="none" stroke-width="0"/></g><path d="M369.03263,182.93633l0.15181,0.09661l0.17566,0.03903l0.04356,0.02178h0.40983l0.28399,0.071c0.00742,-0.01606 0.01484,-0.03212 0.02225,-0.04819l-0.30676,-0.09336l-0.54251,-0.32551l-0.01097,-0.00439c-0.09176,0.07766 -0.18615,0.15247 -0.28326,0.22422zM378.26404,171.11023l0.19231,0.45673l-0.03101,0.07171l0.00916,0.02565l0.17927,0.28172l0.03699,0.11096l0.02593,0.03889l0.62879,0.75455l0.04136,0.08567l0.0388,0.03306c0.043,-0.01874 0.08609,-0.03763 0.12924,-0.05661c-0.4036,-0.66174 -0.88305,-1.30587 -1.2706,-1.88139zM380.91008,172.14501l-0.33447,-0.41809l-0.14097,-0.30757l-0.20472,-0.26937l-0.33816,-0.78903l-0.34782,-0.52174l-0.43474,-0.48908c0.33361,1.01852 1.11759,1.91031 1.811,2.83534zM377.05836,167.58286l0.0148,0.19243l0.09747,0.38988l0,0.69433l0.06821,0.1279l0.0763,0.30519l0.22638,0.45275c-0.2828,-0.77574 -0.25585,-1.47478 -0.19474,-2.27106c-0.09422,0.03729 -0.1905,0.0734 -0.28842,0.10857zM368.25621,187.95443l-0.56075,-0.12461l-0.06231,-0.03115l-0.06966,-0.01742l-0.01393,-0.02438l-0.26662,-0.13331l-1.11716,-0.37239l-0.15181,-0.09661l-0.17566,-0.03903l-0.06169,-0.03084l0.00093,0.01668l0.11159,0.17536l0.54926,0.54926l0.20676,0.34461l0.26154,0.30513l0.10559,0.21119l0.2597,-0.06493l0.1795,-0.11422l0.39725,-0.13242l0.02517,-0.0289l0.646,-0.03076l0.04976,-0.00383c0.01039,-0.09086 0.02114,-0.18125 0.03221,-0.271zM370.52778,188.37946l-0.20416,-0.05104c-0.0021,0.01699 -0.00419,0.03401 -0.00627,0.05104zM380.44639,159.92221c-0.00039,-0.00072 -0.00078,-0.00144 -0.00117,-0.00217c-0.00045,0.00015 -0.0009,0.0003 -0.00135,0.00045c0.00084,0.00057 0.00168,0.00115 0.00252,0.00172zM362.25864,151.88651c0.66026,-0.4772 1.61333,-0.46985 2.59967,-0.34345c0.3968,-0.0986 0.79446,-0.19321 1.18773,-0.2952c3.19123,-0.82766 4.95348,-3.37321 8.58238,-2.38348c1.90232,0.51884 3.6486,1.90363 4.0955,3.95379c0.12243,0.56165 -0.67106,0.99499 -0.71813,1.5679c-0.05572,0.67838 1.23556,0.54795 1.87513,0.80815c1.11174,-0.19137 2.27657,-0.19126 3.11898,-0.1943c0.61583,-0.00222 1.55263,-1.72403 2.45966,-2.0639l0.70558,-0.46467c0,0 0.73123,-0.4735 1.20472,0.25774l0.00001,-0.00001c0.4735,0.73123 -0.25774,1.20472 -0.25774,1.20472l-0.89137,0.56941c-1.34959,0.40269 -1.42005,1.94962 -2.90562,2.21023c-0.46276,0.08119 -0.91543,-0.24748 -1.38438,-0.26766c0.59582,0.49504 1.11868,1.07399 1.52112,1.71573c1.29115,2.05891 3.00176,5.41361 3.43454,7.80619c0.10498,0.58039 -0.21006,1.19832 -0.05893,1.76844c0.16746,0.63172 2.47945,1.58968 2.48903,1.5992c0.80214,0.79695 1.29281,1.8555 1.93922,2.78325c-0.41292,0.67258 -0.95188,1.2825 -1.23875,2.01773c-0.74832,1.91784 1.69404,4.47901 1.95818,6.25124c0.24544,1.64677 -0.25534,3.71629 -0.9662,5.16542c-0.44901,0.91532 -1.36942,1.6974 -1.40592,2.71627c-0.03051,0.85143 0.13921,1.59623 0.32787,2.31127c0.36133,0.45161 0.63751,1.01828 0.82217,1.75777c0.19315,0.77347 -0.06922,1.77227 0.48937,2.34109c0.48833,0.49727 1.34304,0.45289 1.90103,0.87048c1.39506,1.04404 0.7632,3.00381 2.43849,2.45352l1.16947,0.22967c0,0 0.84222,0.22257 0.61967,1.06479l0.00001,-0.00001c-0.22257,0.84222 -1.06479,0.61967 -1.06479,0.61967l-0.43903,-0.19538c-0.62633,0.05578 -1.28933,0.38577 -1.87899,0.16736c-1.31104,-0.48563 -0.80998,-2.22659 -1.85235,-2.91821c-0.68453,-0.4542 -1.6223,-0.49781 -2.20066,-1.13999c-0.1129,-0.12536 -0.20454,-0.26506 -0.27978,-0.4158c-0.71344,1.0236 -2.39751,2.56517 -3.68363,3.46117c-0.19739,0.6021 -0.72199,0.96233 -0.72199,0.96233c-1.49623,1.00448 -3.16336,3.68406 -5.08633,3.78892c-1.16865,0.06373 -2.0704,-0.91958 -3.03329,-1.70718c-0.33111,0.19506 -0.65469,0.37984 -0.96699,0.54139l-0.619,0.3202c0,0 -1.30508,0.6751 -2.13819,-0.41316l-0.00002,0.00001c-3.35474,-0.14244 -2.96379,-2.42191 -5.01138,-3.99034c-0.25568,-0.13391 -0.52336,-0.25208 -0.78575,-0.37257c-0.73474,-0.21091 -1.62669,-0.22808 -2.18509,-0.33642c-2.4269,-0.47085 -2.48898,-0.42236 -4.44805,-2.27475c-2.12501,-2.00929 -1.43676,-4.72371 -3.47975,-6.37432c-2.08611,-1.42249 -5.02904,-5.23318 -4.81221,-8.06342c0.01596,-0.20826 1.61635,-2.47822 1.51081,-3.25097c-0.15625,-1.14386 -1.35554,-1.92735 -1.65546,-3.04221c-0.71026,-2.64017 0.43968,-5.56093 0.89665,-8.04173c0.21746,-1.18053 -0.49104,-2.41807 -0.24453,-3.59287c0.05992,-0.28553 0.17467,-0.56711 0.31501,-0.84818c-1.69467,-0.59262 -3.66798,-0.55086 -5.43929,0.0181c-0.93325,0.29976 -1.6696,1.35778 -2.38869,1.9664c-1.21492,1.02829 -2.17214,1.30096 -3.63723,1.80223l-0.65487,0.22406c0,0 -0.82423,0.282 -1.10623,-0.54223l-0.00003,0.00001c-0.282,-0.82423 0.54223,-1.10623 0.54223,-1.10623l0.65487,-0.22406c0.68363,-0.2339 1.4301,-0.32751 2.05453,-0.69105c1.43396,-0.83486 2.3504,-2.4996 3.9714,-3.07759c2.26775,-0.80858 4.73011,-0.75043 6.83401,0.1089c0.17071,-0.35787 0.30084,-0.72425 0.33552,-1.10558c0.07338,-0.80709 -0.44149,-1.68057 -0.12795,-2.42786c1.00268,-2.38977 4.73488,-3.9112 7.14429,-4.54058c0.13696,-0.27769 0.31844,-0.51777 0.56975,-0.6994zM357.15765,162.37761c0.00294,-0.01261 0.00582,-0.0252 0.00864,-0.03776c-0.02424,0.04672 -0.04827,0.0935 -0.072,0.14038c0.00897,0.00898 0.01792,0.01799 0.02686,0.02702c0.01416,-0.04302 0.02639,-0.08624 0.03651,-0.12964zM387.77166,172.17751c-0.08562,-0.01314 -0.17127,-0.02868 -0.25682,-0.04655c-0.00153,0.08341 -0.00487,0.16669 -0.01029,0.24984c0.08364,-0.06863 0.1726,-0.13641 0.26711,-0.20329z" stroke="none" stroke-width="0.5"/></g></g></svg>