<svg version="1.1" xmlns="http://www.w3.org/2000/svg" xmlns:xlink="http://www.w3.org/1999/xlink" width="351.58709" height="588.08852" viewBox="0,0,351.58709,588.08852"><defs><linearGradient x1="308.37908" y1="350.64217" x2="290.90968" y2="352.41862" gradientUnits="userSpaceOnUse" id="color-1"><stop offset="0" stop-color="#0f0f0f"/><stop offset="1" stop-color="#737373"/></linearGradient><linearGradient x1="288.47408" y1="352.90235" x2="271.11117" y2="354.66799" gradientUnits="userSpaceOnUse" id="color-2"><stop offset="0" stop-color="#0f0f0f"/><stop offset="1" stop-color="#737373"/></linearGradient><linearGradient x1="314.54952" y1="405.97431" x2="297.18661" y2="407.73993" gradientUnits="userSpaceOnUse" id="color-3"><stop offset="0" stop-color="#0f0f0f"/><stop offset="1" stop-color="#737373"/></linearGradient><linearGradient x1="294.73543" y1="408.08214" x2="277.266" y2="409.85859" gradientUnits="userSpaceOnUse" id="color-4"><stop offset="0" stop-color="#0f0f0f"/><stop offset="1" stop-color="#737373"/></linearGradient><linearGradient x1="278.13627" y1="381.37402" x2="270.3822" y2="382.16252" gradientUnits="userSpaceOnUse" id="color-5"><stop offset="0" stop-color="#595959"/><stop offset="1" stop-color="#afafaf"/></linearGradient><linearGradient x1="314.67883" y1="377.81859" x2="306.92473" y2="378.60714" gradientUnits="userSpaceOnUse" id="color-6"><stop offset="0" stop-color="#afafaf"/><stop offset="1" stop-color="#595959"/></linearGradient><linearGradient x1="298.26598" y1="379.473" x2="287.36522" y2="380.5815" gradientUnits="userSpaceOnUse" id="color-7"><stop offset="0" stop-color="#afafaf"/><stop offset="1" stop-color="#595959"/></linearGradient><radialGradient cx="299.81664" cy="426.4223" r="11.28424" gradientUnits="userSpaceOnUse" id="color-8"><stop offset="0" stop-color="#656565"/><stop offset="1" stop-color="#404040"/></radialGradient><linearGradient x1="323.13999" y1="381.69359" x2="263.6865" y2="387.73942" gradientUnits="userSpaceOnUse" id="color-9"><stop offset="0" stop-color="#cb80ce"/><stop offset="1" stop-color="#a946ad"/></linearGradient><linearGradient x1="-14.99801" y1="350.64217" x2="2.4714" y2="352.41862" gradientUnits="userSpaceOnUse" id="color-10"><stop offset="0" stop-color="#0f0f0f"/><stop offset="1" stop-color="#737373"/></linearGradient><linearGradient x1="4.907" y1="352.90235" x2="22.26991" y2="354.66799" gradientUnits="userSpaceOnUse" id="color-11"><stop offset="0" stop-color="#0f0f0f"/><stop offset="1" stop-color="#737373"/></linearGradient><linearGradient x1="-21.16844" y1="405.97431" x2="-3.80553" y2="407.73993" gradientUnits="userSpaceOnUse" id="color-12"><stop offset="0" stop-color="#0f0f0f"/><stop offset="1" stop-color="#737373"/></linearGradient><linearGradient x1="-1.35436" y1="408.08214" x2="16.11507" y2="409.85859" gradientUnits="userSpaceOnUse" id="color-13"><stop offset="0" stop-color="#0f0f0f"/><stop offset="1" stop-color="#737373"/></linearGradient><linearGradient x1="15.24481" y1="381.37402" x2="22.99888" y2="382.16252" gradientUnits="userSpaceOnUse" id="color-14"><stop offset="0" stop-color="#595959"/><stop offset="1" stop-color="#afafaf"/></linearGradient><linearGradient x1="-21.29775" y1="377.81859" x2="-13.54366" y2="378.60714" gradientUnits="userSpaceOnUse" id="color-15"><stop offset="0" stop-color="#afafaf"/><stop offset="1" stop-color="#595959"/></linearGradient><linearGradient x1="-4.8849" y1="379.473" x2="6.01586" y2="380.5815" gradientUnits="userSpaceOnUse" id="color-16"><stop offset="0" stop-color="#afafaf"/><stop offset="1" stop-color="#595959"/></linearGradient><radialGradient cx="-6.43556" cy="426.4223" r="11.28424" gradientUnits="userSpaceOnUse" id="color-17"><stop offset="0" stop-color="#656565"/><stop offset="1" stop-color="#404040"/></radialGradient><linearGradient x1="-29.75892" y1="381.69359" x2="29.69457" y2="387.73942" gradientUnits="userSpaceOnUse" id="color-18"><stop offset="0" stop-color="#cb80ce"/><stop offset="1" stop-color="#a946ad"/></linearGradient><linearGradient x1="268.94389" y1="256.32606" x2="253.20226" y2="264.10664" gradientUnits="userSpaceOnUse" id="color-19"><stop offset="0" stop-color="#0f0f0f"/><stop offset="1" stop-color="#737373"/></linearGradient><linearGradient x1="251.09022" y1="265.41256" x2="235.44455" y2="273.14568" gradientUnits="userSpaceOnUse" id="color-20"><stop offset="0" stop-color="#0f0f0f"/><stop offset="1" stop-color="#737373"/></linearGradient><linearGradient x1="294.09714" y1="305.99528" x2="278.45148" y2="313.72839" gradientUnits="userSpaceOnUse" id="color-21"><stop offset="0" stop-color="#0f0f0f"/><stop offset="1" stop-color="#737373"/></linearGradient><linearGradient x1="276.27529" y1="314.9072" x2="260.53364" y2="322.68778" gradientUnits="userSpaceOnUse" id="color-22"><stop offset="0" stop-color="#0f0f0f"/><stop offset="1" stop-color="#737373"/></linearGradient><linearGradient x1="251.37553" y1="295.70151" x2="244.38836" y2="299.15504" gradientUnits="userSpaceOnUse" id="color-23"><stop offset="0" stop-color="#595959"/><stop offset="1" stop-color="#afafaf"/></linearGradient><linearGradient x1="284.36018" y1="279.57665" x2="277.37299" y2="283.03018" gradientUnits="userSpaceOnUse" id="color-24"><stop offset="0" stop-color="#afafaf"/><stop offset="1" stop-color="#595959"/></linearGradient><linearGradient x1="269.56549" y1="286.87294" x2="259.74285" y2="291.7279" gradientUnits="userSpaceOnUse" id="color-25"><stop offset="0" stop-color="#afafaf"/><stop offset="1" stop-color="#595959"/></linearGradient><radialGradient cx="287.45629" cy="330.30737" r="11.28424" gradientUnits="userSpaceOnUse" id="color-26"><stop offset="0" stop-color="#656565"/><stop offset="1" stop-color="#404040"/></radialGradient><linearGradient x1="293.64246" y1="280.2437" x2="240.06911" y2="306.72326" gradientUnits="userSpaceOnUse" id="color-27"><stop offset="0" stop-color="#cb80ce"/><stop offset="1" stop-color="#a946ad"/></linearGradient><linearGradient x1="24.43719" y1="256.32606" x2="40.17882" y2="264.10664" gradientUnits="userSpaceOnUse" id="color-28"><stop offset="0" stop-color="#0f0f0f"/><stop offset="1" stop-color="#737373"/></linearGradient><linearGradient x1="42.29086" y1="265.41256" x2="57.93653" y2="273.14568" gradientUnits="userSpaceOnUse" id="color-29"><stop offset="0" stop-color="#0f0f0f"/><stop offset="1" stop-color="#737373"/></linearGradient><linearGradient x1="-0.71607" y1="305.99528" x2="14.9296" y2="313.72839" gradientUnits="userSpaceOnUse" id="color-30"><stop offset="0" stop-color="#0f0f0f"/><stop offset="1" stop-color="#737373"/></linearGradient><linearGradient x1="17.10579" y1="314.9072" x2="32.84744" y2="322.68778" gradientUnits="userSpaceOnUse" id="color-31"><stop offset="0" stop-color="#0f0f0f"/><stop offset="1" stop-color="#737373"/></linearGradient><linearGradient x1="42.00555" y1="295.70151" x2="48.99271" y2="299.15504" gradientUnits="userSpaceOnUse" id="color-32"><stop offset="0" stop-color="#595959"/><stop offset="1" stop-color="#afafaf"/></linearGradient><linearGradient x1="9.02089" y1="279.57665" x2="16.00809" y2="283.03018" gradientUnits="userSpaceOnUse" id="color-33"><stop offset="0" stop-color="#afafaf"/><stop offset="1" stop-color="#595959"/></linearGradient><linearGradient x1="23.81559" y1="286.87294" x2="33.63823" y2="291.7279" gradientUnits="userSpaceOnUse" id="color-34"><stop offset="0" stop-color="#afafaf"/><stop offset="1" stop-color="#595959"/></linearGradient><radialGradient cx="5.92479" cy="330.30737" r="11.28424" gradientUnits="userSpaceOnUse" id="color-35"><stop offset="0" stop-color="#656565"/><stop offset="1" stop-color="#404040"/></radialGradient><linearGradient x1="-0.26138" y1="280.2437" x2="53.31197" y2="306.72326" gradientUnits="userSpaceOnUse" id="color-36"><stop offset="0" stop-color="#cb80ce"/><stop offset="1" stop-color="#a946ad"/></linearGradient><linearGradient x1="311.77482" y1="519.89141" x2="279.24631" y2="517.08251" gradientUnits="userSpaceOnUse" id="color-37"><stop offset="0" stop-color="#446b45"/><stop offset="1" stop-color="#235124"/></linearGradient><linearGradient x1="316.71829" y1="523.56297" x2="278.80772" y2="527.41806" gradientUnits="userSpaceOnUse" id="color-38"><stop offset="0" stop-color="#a946ad"/><stop offset="1" stop-color="#68426a"/></linearGradient><linearGradient x1="316.04071" y1="526.99191" x2="283.55863" y2="530.295" gradientUnits="userSpaceOnUse" id="color-39"><stop offset="0" stop-color="#cb80ce"/><stop offset="1" stop-color="#a946ad"/></linearGradient><linearGradient x1="316.31941" y1="468.35635" x2="287.7807" y2="471.25844" gradientUnits="userSpaceOnUse" id="color-40"><stop offset="0" stop-color="#cb80ce"/><stop offset="1" stop-color="#a946ad"/></linearGradient><linearGradient x1="306.45146" y1="464.77165" x2="260.42131" y2="469.45243" gradientUnits="userSpaceOnUse" id="color-41"><stop offset="0" stop-color="#cb80ce"/><stop offset="1" stop-color="#a946ad"/></linearGradient><linearGradient x1="-18.39374" y1="519.89141" x2="14.13477" y2="517.08251" gradientUnits="userSpaceOnUse" id="color-42"><stop offset="0" stop-color="#446b45"/><stop offset="1" stop-color="#235124"/></linearGradient><linearGradient x1="-23.33721" y1="523.56297" x2="14.57336" y2="527.41806" gradientUnits="userSpaceOnUse" id="color-43"><stop offset="0" stop-color="#a946ad"/><stop offset="1" stop-color="#68426a"/></linearGradient><linearGradient x1="-22.65963" y1="526.99191" x2="9.82245" y2="530.295" gradientUnits="userSpaceOnUse" id="color-44"><stop offset="0" stop-color="#cb80ce"/><stop offset="1" stop-color="#a946ad"/></linearGradient><linearGradient x1="-22.93833" y1="468.35635" x2="5.60037" y2="471.25844" gradientUnits="userSpaceOnUse" id="color-45"><stop offset="0" stop-color="#cb80ce"/><stop offset="1" stop-color="#a946ad"/></linearGradient><linearGradient x1="-13.07038" y1="464.77165" x2="32.95977" y2="469.45243" gradientUnits="userSpaceOnUse" id="color-46"><stop offset="0" stop-color="#cb80ce"/><stop offset="1" stop-color="#a946ad"/></linearGradient><linearGradient x1="138.02107" y1="182.27155" x2="149.88329" y2="182.27155" gradientUnits="userSpaceOnUse" id="color-47"><stop offset="0" stop-color="#afafaf"/><stop offset="1" stop-color="#595959"/></linearGradient><linearGradient x1="146.96192" y1="263.06255" x2="146.96192" y2="276.86262" gradientUnits="userSpaceOnUse" id="color-48"><stop offset="0" stop-color="#afafaf"/><stop offset="1" stop-color="#595959"/></linearGradient><linearGradient x1="85.66285" y1="258.20642" x2="85.66285" y2="281.78153" gradientUnits="userSpaceOnUse" id="color-49"><stop offset="0" stop-color="#7c7c7c"/><stop offset="1" stop-color="#111111"/></linearGradient><linearGradient x1="107.8528" y1="259.10583" x2="107.8528" y2="282.68093" gradientUnits="userSpaceOnUse" id="color-50"><stop offset="0" stop-color="#7c7c7c"/><stop offset="1" stop-color="#111111"/></linearGradient><linearGradient x1="185.3303" y1="258.45849" x2="185.3303" y2="282.0336" gradientUnits="userSpaceOnUse" id="color-51"><stop offset="0" stop-color="#7c7c7c"/><stop offset="1" stop-color="#111111"/></linearGradient><linearGradient x1="207.52025" y1="259.35785" x2="207.52025" y2="282.933" gradientUnits="userSpaceOnUse" id="color-52"><stop offset="0" stop-color="#7c7c7c"/><stop offset="1" stop-color="#111111"/></linearGradient><linearGradient x1="146.96192" y1="299.33336" x2="146.96192" y2="313.13343" gradientUnits="userSpaceOnUse" id="color-53"><stop offset="0" stop-color="#afafaf"/><stop offset="1" stop-color="#595959"/></linearGradient><linearGradient x1="91.14377" y1="294.47718" x2="91.14377" y2="318.05232" gradientUnits="userSpaceOnUse" id="color-54"><stop offset="0" stop-color="#7c7c7c"/><stop offset="1" stop-color="#111111"/></linearGradient><linearGradient x1="111.34964" y1="295.37658" x2="111.34964" y2="318.95169" gradientUnits="userSpaceOnUse" id="color-55"><stop offset="0" stop-color="#7c7c7c"/><stop offset="1" stop-color="#111111"/></linearGradient><linearGradient x1="181.89968" y1="294.7292" x2="181.89968" y2="318.30436" gradientUnits="userSpaceOnUse" id="color-56"><stop offset="0" stop-color="#7c7c7c"/><stop offset="1" stop-color="#111111"/></linearGradient><linearGradient x1="202.1056" y1="295.62865" x2="202.1056" y2="319.20376" gradientUnits="userSpaceOnUse" id="color-57"><stop offset="0" stop-color="#7c7c7c"/><stop offset="1" stop-color="#111111"/></linearGradient><linearGradient x1="146.96192" y1="335.60417" x2="146.96192" y2="349.40425" gradientUnits="userSpaceOnUse" id="color-58"><stop offset="0" stop-color="#afafaf"/><stop offset="1" stop-color="#595959"/></linearGradient><linearGradient x1="97.99492" y1="330.74798" x2="97.99492" y2="354.3231" gradientUnits="userSpaceOnUse" id="color-59"><stop offset="0" stop-color="#7c7c7c"/><stop offset="1" stop-color="#111111"/></linearGradient><linearGradient x1="115.72072" y1="331.64739" x2="115.72072" y2="355.22252" gradientUnits="userSpaceOnUse" id="color-60"><stop offset="0" stop-color="#7c7c7c"/><stop offset="1" stop-color="#111111"/></linearGradient><linearGradient x1="177.61142" y1="331.00005" x2="177.61142" y2="354.57519" gradientUnits="userSpaceOnUse" id="color-61"><stop offset="0" stop-color="#7c7c7c"/><stop offset="1" stop-color="#111111"/></linearGradient><linearGradient x1="195.3372" y1="331.89946" x2="195.3372" y2="355.47459" gradientUnits="userSpaceOnUse" id="color-62"><stop offset="0" stop-color="#7c7c7c"/><stop offset="1" stop-color="#111111"/></linearGradient><linearGradient x1="129.44717" y1="320.23947" x2="160.93429" y2="320.23947" gradientUnits="userSpaceOnUse" id="color-63"><stop offset="0" stop-color="#afafaf"/><stop offset="1" stop-color="#595959"/></linearGradient><linearGradient x1="145.88787" y1="243.74414" x2="145.88787" y2="250.99835" gradientUnits="userSpaceOnUse" id="color-64"><stop offset="0" stop-color="#afafaf"/><stop offset="1" stop-color="#595959"/></linearGradient><radialGradient cx="245.02798" cy="244.5502" r="11.28424" gradientUnits="userSpaceOnUse" id="color-65"><stop offset="0" stop-color="#656565"/><stop offset="1" stop-color="#404040"/></radialGradient><linearGradient x1="144.97557" y1="238.99952" x2="144.97557" y2="256.73195" gradientUnits="userSpaceOnUse" id="color-66"><stop offset="0" stop-color="#595959"/><stop offset="1" stop-color="#393939"/></linearGradient><radialGradient cx="51.58382" cy="244.5502" r="11.28424" gradientUnits="userSpaceOnUse" id="color-67"><stop offset="0" stop-color="#656565"/><stop offset="1" stop-color="#404040"/></radialGradient><linearGradient x1="128.87366" y1="414.32716" x2="161.56306" y2="414.32716" gradientUnits="userSpaceOnUse" id="color-68"><stop offset="0" stop-color="#595959"/><stop offset="1" stop-color="#393939"/></linearGradient><linearGradient x1="126.39646" y1="403.17979" x2="164.04023" y2="403.17979" gradientUnits="userSpaceOnUse" id="color-69"><stop offset="0" stop-color="#393939"/><stop offset="1" stop-color="#151515"/></linearGradient><linearGradient x1="126.39646" y1="416.18506" x2="164.04023" y2="416.18506" gradientUnits="userSpaceOnUse" id="color-70"><stop offset="0" stop-color="#393939"/><stop offset="1" stop-color="#151515"/></linearGradient><radialGradient cx="59.25811" cy="229.22507" r="27.33934" gradientUnits="userSpaceOnUse" id="color-71"><stop offset="0" stop-color="#cb80ce"/><stop offset="1" stop-color="#a946ad"/></radialGradient><radialGradient cx="230.35222" cy="229.22507" r="27.33934" gradientUnits="userSpaceOnUse" id="color-72"><stop offset="0" stop-color="#cb80ce"/><stop offset="1" stop-color="#a946ad"/></radialGradient><linearGradient x1="146.27743" y1="203.79312" x2="146.27743" y2="432.63199" gradientUnits="userSpaceOnUse" id="color-73"><stop offset="0" stop-color="#cb80ce"/><stop offset="1" stop-color="#a946ad"/></linearGradient><radialGradient cx="159.88936" cy="277.25316" r="96.6964" gradientUnits="userSpaceOnUse" id="color-74"><stop offset="0" stop-color="#d3afd3"/><stop offset="1" stop-color="#c0a0c1"/></radialGradient><linearGradient x1="147.33895" y1="144.96531" x2="166.30761" y2="229.21289" gradientUnits="userSpaceOnUse" id="color-75"><stop offset="0" stop-color="#cb80ce"/><stop offset="1" stop-color="#a946ad"/></linearGradient><linearGradient x1="158.12827" y1="192.88518" x2="169.35912" y2="242.76598" gradientUnits="userSpaceOnUse" id="color-76"><stop offset="0" stop-color="#cb80ce"/><stop offset="1" stop-color="#a946ad"/></linearGradient><linearGradient x1="151.54718" y1="145.19176" x2="169.18067" y2="223.50926" gradientUnits="userSpaceOnUse" id="color-77"><stop offset="0" stop-color="#330000"/><stop offset="1" stop-color="#9c0000"/></linearGradient><linearGradient x1="150.55189" y1="162.0227" x2="151.03913" y2="164.18675" gradientUnits="userSpaceOnUse" id="color-78"><stop offset="0" stop-color="#898989"/><stop offset="1" stop-color="#2e2e2e"/></linearGradient><linearGradient x1="152.13496" y1="169.25997" x2="155.50795" y2="184.24075" gradientUnits="userSpaceOnUse" id="color-79"><stop offset="0" stop-color="#8a8a8a"/><stop offset="1" stop-color="#0f0f0f"/></linearGradient><linearGradient x1="151.82613" y1="167.8883" x2="155.19912" y2="182.86914" gradientUnits="userSpaceOnUse" id="color-80"><stop offset="0" stop-color="#898989"/><stop offset="1" stop-color="#2e2e2e"/></linearGradient><linearGradient x1="156.46867" y1="54.24185" x2="156.46867" y2="60.29425" gradientUnits="userSpaceOnUse" id="color-81"><stop offset="0" stop-color="#afafaf"/><stop offset="1" stop-color="#7a7a7a"/></linearGradient><linearGradient x1="102.48958" y1="49.13991" x2="102.48958" y2="115.95163" gradientUnits="userSpaceOnUse" id="color-82"><stop offset="0" stop-color="#afafaf"/><stop offset="1" stop-color="#7a7a7a"/></linearGradient><linearGradient x1="210.27103" y1="49.13991" x2="210.27103" y2="115.95163" gradientUnits="userSpaceOnUse" id="color-83"><stop offset="0" stop-color="#afafaf"/><stop offset="1" stop-color="#7a7a7a"/></linearGradient><linearGradient x1="156.69369" y1="91.53443" x2="156.69369" y2="143.57898" gradientUnits="userSpaceOnUse" id="color-84"><stop offset="0" stop-color="#424242"/><stop offset="1" stop-color="#000000"/></linearGradient><linearGradient x1="156.0658" y1="76.53812" x2="156.0658" y2="84.40786" gradientUnits="userSpaceOnUse" id="color-85"><stop offset="0" stop-color="#b8b8b8"/><stop offset="1" stop-color="#313131"/></linearGradient><radialGradient cx="134.05291" cy="80.59043" r="26.22803" gradientUnits="userSpaceOnUse" id="color-86"><stop offset="0" stop-color="#ffffff"/><stop offset="1" stop-color="#cccccc"/></radialGradient><radialGradient cx="195.76764" cy="80.59043" r="26.22803" gradientUnits="userSpaceOnUse" id="color-87"><stop offset="0" stop-color="#ffffff"/><stop offset="1" stop-color="#cccccc"/></radialGradient><linearGradient x1="170.26263" y1="116.96014" x2="170.26263" y2="159.05592" gradientUnits="userSpaceOnUse" id="color-88"><stop offset="0" stop-color="#afafaf"/><stop offset="1" stop-color="#595959"/></linearGradient><linearGradient x1="142.80884" y1="116.96014" x2="142.80884" y2="159.05592" gradientUnits="userSpaceOnUse" id="color-89"><stop offset="0" stop-color="#afafaf"/><stop offset="1" stop-color="#595959"/></linearGradient><linearGradient x1="89.13516" y1="30.70981" x2="92.28153" y2="27.59146" gradientUnits="userSpaceOnUse" id="color-90"><stop offset="0" stop-color="#d3d3d3"/><stop offset="1" stop-color="#868686"/></linearGradient><linearGradient x1="63.0097" y1="-31.19474" x2="63.0097" y2="33.00846" gradientUnits="userSpaceOnUse" id="color-91"><stop offset="0" stop-color="#cb80ce"/><stop offset="1" stop-color="#a946ad"/></linearGradient><radialGradient cx="64.05469" cy="2.58282" r="25.20617" gradientUnits="userSpaceOnUse" id="color-92"><stop offset="0" stop-color="#d3afd3"/><stop offset="1" stop-color="#947b95"/></radialGradient><radialGradient cx="109.98958" cy="48.57181" r="4.20413" gradientUnits="userSpaceOnUse" id="color-93"><stop offset="0" stop-color="#a9a9a9"/><stop offset="1" stop-color="#5d5d5d"/></radialGradient><linearGradient x1="215.62551" y1="30.70981" x2="212.47914" y2="27.59146" gradientUnits="userSpaceOnUse" id="color-94"><stop offset="0" stop-color="#d3d3d3"/><stop offset="1" stop-color="#868686"/></linearGradient><linearGradient x1="241.75093" y1="-31.19474" x2="241.75093" y2="33.00846" gradientUnits="userSpaceOnUse" id="color-95"><stop offset="0" stop-color="#cb80ce"/><stop offset="1" stop-color="#a946ad"/></linearGradient><radialGradient cx="241.55559" cy="-0.09052" r="25.20617" gradientUnits="userSpaceOnUse" id="color-96"><stop offset="0" stop-color="#d3afd3"/><stop offset="1" stop-color="#947b95"/></radialGradient><radialGradient cx="194.77103" cy="48.57181" r="4.20413" gradientUnits="userSpaceOnUse" id="color-97"><stop offset="0" stop-color="#a9a9a9"/><stop offset="1" stop-color="#5d5d5d"/></radialGradient><linearGradient x1="156.01578" y1="11.30737" x2="156.01578" y2="148.57258" gradientUnits="userSpaceOnUse" id="color-98"><stop offset="0" stop-color="#cb80ce"/><stop offset="1" stop-color="#a946ad"/></linearGradient><linearGradient x1="64.75186" y1="94.5268" x2="64.75186" y2="140.21236" gradientUnits="userSpaceOnUse" id="color-99"><stop offset="0" stop-color="#d3afd3"/><stop offset="1" stop-color="#c0a0c1"/></linearGradient><linearGradient x1="64.38602" y1="113.09975" x2="64.38602" y2="147.10253" gradientUnits="userSpaceOnUse" id="color-100"><stop offset="0" stop-color="#d3afd3"/><stop offset="1" stop-color="#c0a0c1"/></linearGradient><linearGradient x1="61.49356" y1="132.72605" x2="61.49356" y2="155.60898" gradientUnits="userSpaceOnUse" id="color-101"><stop offset="0" stop-color="#d3afd3"/><stop offset="1" stop-color="#c0a0c1"/></linearGradient><linearGradient x1="64.37594" y1="139.98322" x2="64.37594" y2="166.35517" gradientUnits="userSpaceOnUse" id="color-102"><stop offset="0" stop-color="#d3afd3"/><stop offset="1" stop-color="#c0a0c1"/></linearGradient><linearGradient x1="65.86515" y1="136.88108" x2="65.86515" y2="176.581" gradientUnits="userSpaceOnUse" id="color-103"><stop offset="0" stop-color="#d3afd3"/><stop offset="1" stop-color="#c0a0c1"/></linearGradient><linearGradient x1="245.99706" y1="94.52682" x2="245.99706" y2="140.21236" gradientUnits="userSpaceOnUse" id="color-104"><stop offset="0" stop-color="#d3afd3"/><stop offset="1" stop-color="#c0a0c1"/></linearGradient><linearGradient x1="246.32071" y1="113.09982" x2="246.32071" y2="147.10257" gradientUnits="userSpaceOnUse" id="color-105"><stop offset="0" stop-color="#d3afd3"/><stop offset="1" stop-color="#c0a0c1"/></linearGradient><linearGradient x1="248.87926" y1="132.72605" x2="248.87926" y2="155.60898" gradientUnits="userSpaceOnUse" id="color-106"><stop offset="0" stop-color="#d3afd3"/><stop offset="1" stop-color="#c0a0c1"/></linearGradient><linearGradient x1="246.32957" y1="139.98322" x2="246.32957" y2="166.35517" gradientUnits="userSpaceOnUse" id="color-107"><stop offset="0" stop-color="#d3afd3"/><stop offset="1" stop-color="#c0a0c1"/></linearGradient><linearGradient x1="245.01243" y1="136.88114" x2="245.01243" y2="176.581" gradientUnits="userSpaceOnUse" id="color-108"><stop offset="0" stop-color="#d3afd3"/><stop offset="1" stop-color="#c0a0c1"/></linearGradient><radialGradient cx="227.17395" cy="121.62096" r="42.25912" gradientUnits="userSpaceOnUse" id="color-109"><stop offset="0" stop-color="#d3afd3"/><stop offset="1" stop-color="#c0a0c1"/></radialGradient><radialGradient cx="189.17331" cy="105.34344" r="12.21857" gradientUnits="userSpaceOnUse" id="color-110"><stop offset="0" stop-color="#858585"/><stop offset="1" stop-color="#000000"/></radialGradient><radialGradient cx="91.31373" cy="41.87068" r="27.44863" gradientUnits="userSpaceOnUse" id="color-111"><stop offset="0" stop-color="#2e2540"/><stop offset="1" stop-color="#694da0"/></radialGradient><radialGradient cx="123.29058" cy="21.15415" r="27.44863" gradientUnits="userSpaceOnUse" id="color-112"><stop offset="0" stop-color="#2e2540"/><stop offset="1" stop-color="#694da0"/></radialGradient><radialGradient cx="107.55096" cy="31.91835" r="16.19275" gradientUnits="userSpaceOnUse" id="color-113"><stop offset="0" stop-color="#8461ca"/><stop offset="1" stop-color="#4e3f6d"/></radialGradient><radialGradient cx="159.0037" cy="124.73987" r="42.25912" gradientUnits="userSpaceOnUse" id="color-114"><stop offset="0" stop-color="#d3afd3"/><stop offset="1" stop-color="#c0a0c1"/></radialGradient></defs><g transform="translate(29.10301,31.19474)"><g data-paper-data="{&quot;isPaintingLayer&quot;:true}" fill-rule="nonzero" stroke-linecap="butt" stroke-linejoin="miter" stroke-miterlimit="10" stroke-dasharray="" stroke-dashoffset="0" style="mix-blend-mode: normal"><path d="M220.36201,401.06801c-6.6473,33.87137 -141.96303,36.06391 -148.4922,-2.83904c-0.58597,1.07554 8.74173,-40.62819 6.82267,-76.8516c-1.91906,-36.22343 -35.20774,-115.14125 62.79616,-116.6696c110.5975,-3.229 71.85538,79.09892 71.05461,119.46221c-0.83192,41.93356 8.72863,77.26826 7.81876,76.89803z" data-paper-data="{&quot;index&quot;:null}" fill="#484848" stroke="#000000" stroke-width="0"/><g data-paper-data="{&quot;index&quot;:null}" stroke="none"><path d="M316.32608,345.1048c8.0203,9.04195 7.38905,67.61884 2.76348,77.65326c-2.11152,4.58053 -40.39891,9.11607 -43.60433,5.00832c-6.97153,-8.93411 -18.37125,-69.02521 -12.41174,-77.72387c5.95948,-8.69866 45.2323,-13.97965 53.25259,-4.9377z" fill="#484848" stroke-width="0"/><g><g><path d="M292.13102,337.8993c2.58685,0.7415 1.84532,3.32835 1.84532,3.32835l-0.63807,1.94926c-0.13956,3.43556 -0.34475,6.76753 -0.56349,10.11653c2.5276,1.90418 5.54928,3.75421 7.50556,6.60617c2.6776,3.90357 2.14941,11.90571 1.85298,16.34713c-0.70459,2.24035 -1.5295,4.09361 -2.55283,5.76322c4.00385,7.12045 7.33729,14.70988 5.46358,23.09131c-0.74251,3.32137 -2.34427,5.78877 -4.10928,8.23466c0.70734,3.48788 -0.1535,7.51878 -0.36812,10.8777c0,0 -0.17157,2.68555 -2.85713,2.51395c-2.68555,-0.17157 -2.51395,-2.85713 -2.51395,-2.85713c0.0831,-1.3005 0.41791,-3.07579 0.61484,-4.87144c-0.49036,0.04057 -1.0567,-0.07782 -1.68487,-0.48347c-2.26065,-1.45987 -0.80078,-3.72048 -0.80078,-3.72048c0.49665,-0.76117 1.0215,-1.47891 1.55051,-2.17861c-3.87327,-5.98299 -13.004,-10.14131 -11.72124,-18.77801c0.8206,-5.52492 5.91482,-8.58005 9.77096,-12.52186c-1.01897,-1.70103 -2.0134,-3.37481 -2.88262,-5.02811c-2.71392,-5.16208 -2.43434,-11.83262 -3.00018,-17.53707c0.04612,-0.72476 0.09265,-1.44516 0.1392,-2.16252c-0.75852,-0.55703 -1.45409,-1.15797 -2.0406,-1.8417c-3.42666,-3.99465 -2.725,-10.38925 -0.76273,-14.67834l0.60972,-2.79482c0,0 0.58831,-2.62593 3.21424,-2.03759c1.91088,0.42813 2.11965,1.93526 2.09168,2.72431c0.47047,-0.20918 1.07345,-0.28044 1.83731,-0.06148zM299.78374,403.96321c1.40715,-6.26188 -0.84033,-12.00519 -3.81319,-17.42655c-0.64819,0.65827 -1.34885,1.31918 -2.10852,1.99977c-1.86357,1.66958 -4.98863,3.19507 -5.37167,6.00225c-0.72993,5.34923 5.79983,9.62374 9.57417,13.63395c0.74884,-1.25739 1.36169,-2.61853 1.7192,-4.20945zM294.73769,373.65768c0.52811,0.94137 1.07822,1.88923 1.6383,2.84449c0.1766,-0.39905 0.33279,-0.81134 0.46584,-1.23855c0.16924,-2.83029 0.78642,-10.099 -1.07334,-12.42987c-0.89469,-1.12132 -2.0222,-2.02629 -3.23158,-2.84212c0.30337,4.43116 0.10904,9.93753 2.20078,13.66607z" fill="#000000" stroke-width="0.5"/><path d="M290.58634,349.23923l1.07682,-2.56659l17.03923,7.14891l-1.07679,2.56659z" fill="url(#color-1)" stroke-width="0"/><path d="M273.05785,360.26126l-1.60887,-2.27121l15.07841,-10.68096l1.60887,2.27121z" data-paper-data="{&quot;index&quot;:null}" fill="url(#color-2)" stroke-width="0"/><path d="M312.60284,400.381l1.60887,2.27121l-15.07841,10.68096l-1.60887,-2.27121z" data-paper-data="{&quot;index&quot;:null}" fill="url(#color-3)" stroke-width="0"/><path d="M295.05875,411.26154l-1.07682,2.56656l-17.03923,-7.14888l1.07682,-2.56659z" data-paper-data="{&quot;index&quot;:null}" fill="url(#color-4)" stroke-width="0"/><path d="M274.04265,413.11675l-6.80738,-61.90066l7.24057,-0.79629l6.80738,61.90066z" fill="url(#color-5)" stroke-width="0"/><path d="M310.58519,409.56143l-6.80738,-61.90066l7.24057,-0.79629l6.80738,61.90066z" fill="url(#color-6)" stroke-width="0"/><path d="M292.51113,424.09716l-9.56987,-87.02024l10.17882,-1.1194l9.56987,87.02024z" fill="url(#color-7)" stroke-width="0"/></g><path d="M308.8819,427.93094c0.58545,5.75727 -3.96614,10.93556 -10.16629,11.56605c-6.20015,0.63049 -11.70095,-3.52557 -12.28641,-9.28284c-0.58545,-5.75727 3.96614,-10.93558 10.16629,-11.56607c6.20015,-0.63049 11.70095,3.5256 12.28641,9.28287z" fill="url(#color-8)" stroke-width="0"/></g><path d="M316.32608,345.1048c8.0203,9.04195 7.38905,67.61884 2.76348,77.65326c-2.11152,4.58053 -40.39891,9.11607 -43.60433,5.00832c-6.97153,-8.93411 -18.37125,-69.02521 -12.41174,-77.72387c5.95948,-8.69866 45.2323,-13.97965 53.25259,-4.9377z" fill="url(#color-9)" stroke-width="0"/></g><g data-paper-data="{&quot;index&quot;:null}" stroke="none"><path d="M30.30759,350.0425c5.95951,8.69867 -5.44021,68.78976 -12.41174,77.72387c-3.20543,4.10776 -41.49282,-0.42779 -43.60433,-5.00832c-4.62557,-10.03441 -5.25682,-68.61131 2.76348,-77.65326c8.0203,-9.04195 47.29311,-3.76097 53.25259,4.9377z" fill="#484848" stroke-width="0"/><g><g><path d="M1.25004,337.89927c0.76386,-0.21896 1.36683,-0.1477 1.83731,0.06148c-0.02797,-0.78905 0.1808,-2.29618 2.09168,-2.72431c2.62593,-0.58834 3.21424,2.03759 3.21424,2.03759l0.60972,2.79482c1.96227,4.28909 2.66393,10.68369 -0.76273,14.67834c-0.58651,0.68373 -1.28207,1.28467 -2.0406,1.8417c0.04655,0.71736 0.09308,1.43776 0.1392,2.16252c-0.56584,5.70445 -0.28626,12.37499 -3.00018,17.53707c-0.86922,1.6533 -1.86365,3.32708 -2.88262,5.02811c3.85614,3.9418 8.95036,6.99694 9.77096,12.52186c1.28276,8.63669 -7.84797,12.79502 -11.72124,18.77801c0.52902,0.6997 1.05387,1.41744 1.55051,2.17861c0,0 1.45987,2.26062 -0.80078,3.72048c-0.62817,0.40564 -1.19451,0.52403 -1.68487,0.48347c0.19693,1.79566 0.53174,3.57094 0.61484,4.87144c0,0 0.1716,2.68556 -2.51395,2.85713c-2.68556,0.1716 -2.85713,-2.51395 -2.85713,-2.51395c-0.21462,-3.35892 -1.07546,-7.38982 -0.36812,-10.8777c-1.76502,-2.44589 -3.36678,-4.91328 -4.10928,-8.23466c-1.87371,-8.38143 1.45972,-15.97086 5.46358,-23.09131c-1.02333,-1.66961 -1.84825,-3.52287 -2.55283,-5.76322c-0.29642,-4.44142 -0.82462,-12.44356 1.85298,-16.34713c1.95628,-2.85196 4.97796,-4.70199 7.50556,-6.60617c-0.21874,-3.34899 -0.42393,-6.68097 -0.56349,-10.11653l-0.63807,-1.94926c0,0 -0.74153,-2.58685 1.84532,-3.32835zM-6.40266,403.96318c0.35751,1.59091 0.97036,2.95206 1.7192,4.20945c3.77434,-4.01021 10.3041,-8.28472 9.57417,-13.63395c-0.38304,-2.80718 -3.5081,-4.33267 -5.37167,-6.00225c-0.75966,-0.68059 -1.46033,-1.34151 -2.10852,-1.99977c-2.97286,5.42136 -5.22033,11.16467 -3.81319,17.42655zM-1.35662,373.6577c2.09174,-3.72854 1.89741,-9.23491 2.20078,-13.66607c-1.20938,0.81582 -2.33689,1.7208 -3.23158,2.84212c-1.85976,2.33087 -1.24258,9.59958 -1.07334,12.42987c0.13305,0.42721 0.28924,0.8395 0.46584,1.23855c0.56008,-0.95526 1.11019,-1.90313 1.6383,-2.84449z" fill="#000000" stroke-width="0.5"/><path d="M-14.24452,356.38813l-1.07679,-2.56659l17.03923,-7.14891l1.07682,2.56659z" fill="url(#color-10)" stroke-width="0"/><path d="M5.24482,349.5803l1.60887,-2.27121l15.07841,10.68096l-1.60887,2.27121z" data-paper-data="{&quot;index&quot;:null}" fill="url(#color-11)" stroke-width="0"/><path d="M-4.14335,411.06197l-1.60887,2.27121l-15.07841,-10.68096l1.60887,-2.27121z" data-paper-data="{&quot;index&quot;:null}" fill="url(#color-12)" stroke-width="0"/><path d="M15.36156,404.11263l1.07682,2.56659l-17.03923,7.14888l-1.07682,-2.56656z" data-paper-data="{&quot;index&quot;:null}" fill="url(#color-13)" stroke-width="0"/><path d="M12.09785,412.32045l6.80738,-61.90066l7.24057,0.79629l-6.80738,61.90066z" fill="url(#color-14)" stroke-width="0"/><path d="M-24.44469,408.76514l6.80738,-61.90066l7.24057,0.79629l-6.80738,61.90066z" fill="url(#color-15)" stroke-width="0"/><path d="M-9.30888,422.97776l9.56987,-87.02024l10.17882,1.1194l-9.56987,87.02024z" fill="url(#color-16)" stroke-width="0"/></g><path d="M-3.21441,418.64807c6.20015,0.63049 10.75174,5.8088 10.16629,11.56607c-0.58545,5.75727 -6.08625,9.91333 -12.28641,9.28284c-6.20015,-0.63049 -10.75175,-5.80877 -10.16629,-11.56605c0.58545,-5.75727 6.08625,-9.91336 12.28641,-9.28287z" fill="url(#color-17)" stroke-width="0"/></g><path d="M30.30759,350.0425c5.95951,8.69867 -5.44021,68.78976 -12.41174,77.72387c-3.20543,4.10776 -41.49282,-0.42779 -43.60433,-5.00832c-4.62557,-10.03441 -5.25682,-68.61131 2.76348,-77.65326c8.0203,-9.04195 47.29311,-3.76097 53.25259,4.9377z" fill="url(#color-18)" stroke-width="0"/></g><g data-paper-data="{&quot;index&quot;:null}" stroke="none"><path d="M274.44907,248.35676c10.67848,5.66146 30.59668,60.75154 29.77725,71.77033c-0.37408,5.02989 -34.6499,22.68388 -39.09068,19.95846c-9.65834,-5.92765 -41.37613,-58.22368 -38.83951,-68.45834c2.5366,-10.23464 37.47446,-28.93191 48.15294,-23.27045z" fill="#484848" stroke-width="0"/><g><g><path d="M249.26265,250.07875c2.68273,-0.21117 2.89387,2.47157 2.89387,2.47157l0.08481,2.04928c1.07216,3.26696 2.04659,6.45986 3.01427,9.67346c3.03431,0.89866 6.51248,1.57361 9.34348,3.56009c3.87487,2.71897 6.1819,10.39953 7.45931,14.6636c0.12443,2.34524 0.00061,4.37001 -0.37337,6.29224c6.24349,5.26787 12.02321,11.20976 13.20269,19.7167c0.4674,3.37111 -0.16906,6.24314 -0.96597,9.1522c1.88377,3.01944 2.48876,7.0966 3.46378,10.31805c0,0 0.77958,2.57564 -1.79607,3.35519c-2.57564,0.77958 -3.35519,-1.79607 -3.35519,-1.79607c-0.37751,-1.24728 -0.68547,-3.02741 -1.12971,-4.77836c-0.44512,0.20969 -1.01706,0.29709 -1.7475,0.13706c-2.62869,-0.57594 -2.05274,-3.20461 -2.05274,-3.20461c0.1987,-0.88688 0.43903,-1.74295 0.68957,-2.58359c-5.72292,-4.24813 -15.73163,-4.9463 -17.55403,-13.48543c-1.16578,-5.46251 2.53629,-10.1079 4.7682,-15.15034c-1.55005,-1.23659 -3.06757,-2.45624 -4.46065,-3.70055c-4.34953,-3.8851 -6.42319,-10.2313 -8.95051,-15.37654c-0.21056,-0.69503 -0.4192,-1.38612 -0.62677,-2.07437c-0.90554,-0.25619 -1.76749,-0.57555 -2.55626,-1.01065c-4.6084,-2.54202 -6.19009,-8.77752 -5.85377,-13.48217l-0.40742,-2.83139c0,0 -0.36834,-2.6657 2.29737,-3.03401c1.93982,-0.26802 2.66307,1.07061 2.91314,1.8195c0.36745,-0.36066 0.90731,-0.63853 1.69948,-0.70088zM279.5619,309.28144c-0.87439,-6.35819 -4.99051,-10.95105 -9.67337,-14.98837c-0.37668,0.84355 -0.80159,1.70795 -1.27487,2.61144c-1.16104,2.21639 -3.55417,4.73949 -2.93009,7.5031c1.1892,5.2662 8.80226,6.98388 13.74179,9.41874c0.26119,-1.43999 0.35868,-2.92955 0.13653,-4.54494zM264.22439,282.66099c0.82429,0.69687 1.67145,1.39213 2.53054,2.09082c0.0257,-0.43562 0.02765,-0.8765 0.0027,-1.32326c-0.83244,-2.71039 -2.79931,-9.73509 -5.35746,-11.26727c-1.23067,-0.73708 -2.60367,-1.19 -4.02214,-1.53074c1.83565,4.04445 3.58156,9.27032 6.84637,12.03047z" fill="#000000" stroke-width="0.5"/><path d="M251.78619,261.24168l0.11002,-2.78115l18.46371,0.73045l-0.11,2.78114z" fill="url(#color-19)" stroke-width="0"/><path d="M239.22638,277.70331l-2.30224,-1.56413l10.38425,-15.28426l2.30224,1.56413z" data-paper-data="{&quot;index&quot;:null}" fill="url(#color-20)" stroke-width="0"/><path d="M290.31534,301.43769l2.30224,1.56413l-10.38425,15.28426l-2.30224,-1.56413z" data-paper-data="{&quot;index&quot;:null}" fill="url(#color-21)" stroke-width="0"/><path d="M277.69134,317.77216l-0.11003,2.78113l-18.4637,-0.73043l0.11002,-2.78115z" data-paper-data="{&quot;index&quot;:null}" fill="url(#color-22)" stroke-width="0"/><path d="M258.65511,326.8683l-28.04973,-55.59896l6.50345,-3.28103l28.04973,55.59896z" fill="url(#color-23)" stroke-width="0"/><path d="M291.63971,310.74339l-28.04973,-55.59896l6.50345,-3.28103l28.04973,55.59896z" fill="url(#color-24)" stroke-width="0"/><path d="M279.79911,330.68728l-39.43246,-78.16128l9.14258,-4.61245l39.43246,78.16128z" fill="url(#color-25)" stroke-width="0"/></g><path d="M296.47596,328.54652c2.56419,5.18786 0.11377,11.63201 -5.47317,14.39345c-5.58694,2.76144 -12.1947,0.79444 -14.75889,-4.39342c-2.56419,-5.18786 -0.11379,-11.63203 5.47315,-14.39347c5.58694,-2.76144 12.19471,-0.79442 14.7589,4.39344z" fill="url(#color-26)" stroke-width="0"/></g><path d="M274.44907,248.35676c10.67848,5.66146 30.59668,60.75154 29.77725,71.77033c-0.37408,5.02989 -34.6499,22.68388 -39.09068,19.95846c-9.65834,-5.92765 -41.37613,-58.22368 -38.83951,-68.45834c2.5366,-10.23464 37.47446,-28.93191 48.15294,-23.27045z" fill="url(#color-27)" stroke-width="0"/></g><g data-paper-data="{&quot;index&quot;:null}" stroke="none"><path d="M67.08495,271.62721c2.53662,10.23465 -29.18117,62.53068 -38.83951,68.45834c-4.44077,2.72543 -38.71659,-14.92857 -39.09068,-19.95846c-0.81943,-11.01879 19.09877,-66.10887 29.77725,-71.77033c10.67848,-5.66146 45.61634,13.03581 48.15294,23.27045z" fill="#484848" stroke-width="0"/><g><g><path d="M44.11842,250.07868c0.79217,0.06235 1.33203,0.34022 1.69948,0.70088c0.25007,-0.74889 0.97332,-2.08753 2.91314,-1.8195c2.66571,0.36832 2.29737,3.03401 2.29737,3.03401l-0.40742,2.83139c0.33633,4.70464 -1.24537,10.94015 -5.85377,13.48217c-0.78877,0.4351 -1.65072,0.75446 -2.55626,1.01065c-0.20757,0.68825 -0.41621,1.37934 -0.62677,2.07437c-2.52732,5.14525 -4.60098,11.49144 -8.95051,15.37654c-1.39307,1.24431 -2.9106,2.46396 -4.46065,3.70055c2.23191,5.04244 5.93398,9.68783 4.7682,15.15034c-1.8224,8.53913 -11.83111,9.2373 -17.55403,13.48543c0.25055,0.84064 0.49087,1.69671 0.68957,2.58359c0,0 0.57595,2.62867 -2.05274,3.20461c-0.73044,0.16003 -1.30238,0.07263 -1.7475,-0.13706c-0.44425,1.75094 -0.75221,3.53108 -1.12971,4.77836c0,0 -0.77955,2.57565 -3.35519,1.79607c-2.57565,-0.77955 -1.79607,-3.35519 -1.79607,-3.35519c0.97503,-3.22145 1.58001,-7.29861 3.46378,-10.31805c-0.79691,-2.90905 -1.43338,-5.78109 -0.96597,-9.1522c1.17948,-8.50693 6.95919,-14.44883 13.20269,-19.7167c-0.37398,-1.92223 -0.4978,-3.947 -0.37337,-6.29224c1.27741,-4.26407 3.58444,-11.94462 7.45931,-14.6636c2.831,-1.98648 6.30917,-2.66143 9.34348,-3.56009c0.96769,-3.2136 1.94211,-6.4065 3.01427,-9.67346l0.08481,-2.04928c0,0 0.21114,-2.68274 2.89387,-2.47157zM13.81919,309.28144c-0.22215,1.61539 -0.12466,3.10495 0.13653,4.54494c4.93953,-2.43486 12.55259,-4.15254 13.74179,-9.41874c0.62408,-2.76361 -1.76905,-5.28671 -2.93009,-7.5031c-0.47328,-0.90349 -0.89819,-1.7679 -1.27487,-2.61144c-4.68286,4.03731 -8.79898,8.63017 -9.67337,14.98837zM29.15668,282.66102c3.26481,-2.76014 5.01072,-7.98602 6.84637,-12.03047c-1.41847,0.34074 -2.79147,0.79366 -4.02214,1.53074c-2.55815,1.53218 -4.52502,8.55688 -5.35746,11.26727c-0.02495,0.44676 -0.023,0.88764 0.0027,1.32326c0.85909,-0.69869 1.70626,-1.39395 2.53054,-2.09082z" fill="#000000" stroke-width="0.5"/><path d="M23.13115,261.97213l-0.11,-2.78114l18.46371,-0.73045l0.11002,2.78115z" fill="url(#color-28)" stroke-width="0"/><path d="M43.77045,262.41905l2.30224,-1.56413l10.38425,15.28426l-2.30224,1.56413z" data-paper-data="{&quot;index&quot;:null}" fill="url(#color-29)" stroke-width="0"/><path d="M13.44999,316.72195l-2.30224,1.56413l-10.38425,-15.28426l2.30224,-1.56413z" data-paper-data="{&quot;index&quot;:null}" fill="url(#color-30)" stroke-width="0"/><path d="M34.15345,317.0417l0.11002,2.78115l-18.4637,0.73043l-0.11003,-2.78113z" data-paper-data="{&quot;index&quot;:null}" fill="url(#color-31)" stroke-width="0"/><path d="M28.22252,323.58727l28.04973,-55.59896l6.50345,3.28103l-28.04973,55.59896z" fill="url(#color-32)" stroke-width="0"/><path d="M-4.76209,307.46236l28.04973,-55.59896l6.50345,3.28103l-28.04973,55.59896z" fill="url(#color-33)" stroke-width="0"/><path d="M4.43938,326.07485l39.43246,-78.16128l9.14258,4.61245l-39.43246,78.16128z" fill="url(#color-34)" stroke-width="0"/></g><path d="M11.66401,324.15311c5.58694,2.76144 8.03734,9.20561 5.47315,14.39347c-2.56419,5.18786 -9.17195,7.15486 -14.75889,4.39342c-5.58694,-2.76144 -8.03735,-9.20559 -5.47317,-14.39345c2.56419,-5.18786 9.17196,-7.15488 14.7589,-4.39344z" fill="url(#color-35)" stroke-width="0"/></g><path d="M67.08495,271.62721c2.53662,10.23465 -29.18117,62.53068 -38.83951,68.45834c-4.44077,2.72543 -38.71659,-14.92857 -39.09068,-19.95846c-0.81943,-11.01879 19.09877,-66.10887 29.77725,-71.77033c10.67848,-5.66146 45.61634,13.03581 48.15294,23.27045z" fill="url(#color-36)" stroke-width="0"/></g><g data-paper-data="{&quot;index&quot;:null}" stroke="none" stroke-width="0"><path d="M313.30402,502.16779c-0.59736,7.6031 -3.37815,16.47937 -9.20276,25.09881c-5.17224,7.65406 -8.79581,12.55025 -11.58392,15.4407c-1.83404,1.90135 -7.96319,3.35873 -11.13337,1.54857c-4.08678,-2.33357 -4.89444,-8.68105 -2.43851,-11.64243c2.46824,-2.97623 6.49665,-7.78898 12.25178,-16.30559c5.22906,-7.73815 6.43677,-13.54951 6.2475,-18.04107c-0.38706,-9.18616 16.89501,-9.28154 15.85928,3.901z" data-paper-data="{&quot;index&quot;:null}" fill="url(#color-37)"/><path d="M315.05417,508.63416c-0.32323,7.61966 -2.78258,16.59033 -8.29302,25.41391c-4.89328,7.83535 -8.3382,12.85882 -11.02041,15.84781c-1.76438,1.96615 -7.83706,3.64332 -11.07038,1.94846c-4.16816,-2.18492 -5.20389,-8.49918 -2.85617,-11.54707c2.35949,-3.06317 6.21197,-8.01787 11.6567,-16.7362c4.94701,-7.92142 5.94471,-13.77248 5.59383,-18.25433c-0.71763,-9.16627 16.54984,-9.88391 15.98948,3.32742z" data-paper-data="{&quot;index&quot;:null}" fill="url(#color-38)"/><path d="M314.23974,509.29387c0.83018,7.58119 -0.24746,16.82022 -4.36351,26.37425c-3.65501,8.48397 -6.30254,13.96972 -8.50308,17.32919c-1.44751,2.20987 -7.19763,4.78407 -10.64966,3.59648c-4.4501,-1.531 -6.42667,-7.61666 -4.56575,-10.98391c1.87028,-3.38411 4.93108,-8.86334 8.998,-18.30338c3.69517,-8.57716 3.79858,-14.51178 2.77548,-18.88936c-2.09244,-8.95303 14.86905,-12.26784 16.30847,0.87675z" data-paper-data="{&quot;index&quot;:null}" fill="url(#color-39)"/><path d="M313.76164,446.77235c2.19074,21.54345 9.91574,58.88126 -7.87914,60.81383c-17.69893,1.92217 -17.76878,-36.43946 -19.95952,-57.98293c-2.19075,-21.54348 25.64792,-24.37438 27.83866,-2.8309z" fill="url(#color-40)"/><path d="M262.38156,479.1075c2.21209,-7.29866 6.82964,-15.37326 14.36534,-22.54501c6.69173,-6.36849 11.27994,-10.37488 14.62248,-12.60101c2.19873,-1.46437 8.4978,-1.57507 11.20665,0.87218c3.49206,3.15483 2.92136,9.52794 -0.1119,11.89452c-3.04848,2.37842 -8.01428,6.21659 -15.4601,13.30278c-6.7652,6.43847 -9.1897,11.85624 -9.96692,16.28407c-1.58959,9.05586 -18.49099,5.44718 -14.65558,-7.20753z" data-paper-data="{&quot;index&quot;:null}" fill="url(#color-41)"/></g><g data-paper-data="{&quot;index&quot;:null}" stroke="none" stroke-width="0"><path d="M-4.06366,498.26678c-0.18927,4.49156 1.01844,10.30292 6.2475,18.04107c5.75513,8.5166 9.78354,13.32936 12.25178,16.30559c2.45594,2.96138 1.64827,9.30886 -2.43851,11.64243c-3.17018,1.81016 -9.29933,0.35278 -11.13337,-1.54857c-2.78811,-2.89044 -6.41168,-7.78663 -11.58392,-15.4407c-5.82461,-8.61944 -8.6054,-17.49572 -9.20276,-25.09881c-1.03573,-13.18255 16.24634,-13.08716 15.85928,-3.901z" data-paper-data="{&quot;index&quot;:null}" fill="url(#color-42)"/><path d="M-21.67312,508.63416c-0.56035,-13.21133 16.70711,-12.49369 15.98948,-3.32742c-0.35088,4.48185 0.64682,10.3329 5.59383,18.25433c5.44472,8.71833 9.29721,13.67303 11.6567,16.7362c2.34772,3.04789 1.31198,9.36215 -2.85617,11.54707c-3.23332,1.69486 -9.30599,0.01769 -11.07038,-1.94846c-2.68221,-2.98899 -6.12713,-8.01246 -11.02041,-15.84781c-5.51044,-8.82358 -7.96979,-17.79425 -8.29302,-25.41391z" data-paper-data="{&quot;index&quot;:null}" fill="url(#color-43)"/><path d="M-20.85861,509.29387c1.43942,-13.14458 18.40091,-9.82978 16.30847,-0.87675c-1.0231,4.37759 -0.91969,10.31221 2.77548,18.88936c4.06692,9.44004 7.12772,14.91927 8.998,18.30338c1.86093,3.36725 -0.11565,9.45291 -4.56575,10.98391c-3.45203,1.18759 -9.20215,-1.38661 -10.64966,-3.59648c-2.20054,-3.35947 -4.84807,-8.84522 -8.50308,-17.32919c-4.11606,-9.55403 -5.19369,-18.79306 -4.36351,-26.37425z" data-paper-data="{&quot;index&quot;:null}" fill="url(#color-44)"/><path d="M7.4581,449.60325c-2.19075,21.54348 -2.26059,59.9051 -19.95952,57.98293c-17.79488,-1.93257 -10.06988,-39.27038 -7.87914,-60.81383c2.19075,-21.54348 30.02941,-18.71258 27.83866,2.8309z" fill="url(#color-45)"/><path d="M30.99954,479.10751c3.83541,12.65471 -13.06598,16.26339 -14.65558,7.20753c-0.77722,-4.42784 -3.20172,-9.84561 -9.96692,-16.28407c-7.44582,-7.08619 -12.41162,-10.92436 -15.4601,-13.30278c-3.03326,-2.36658 -3.60396,-8.7397 -0.1119,-11.89452c2.70885,-2.44725 9.00792,-2.33655 11.20665,-0.87218c3.34254,2.22613 7.93075,6.23252 14.62248,12.60101c7.53571,7.17175 12.15325,15.24635 14.36534,22.54501z" data-paper-data="{&quot;index&quot;:null}" fill="url(#color-46)"/></g><path d="M240.17686,148.57258l-168.56354,-1.02175c0,0 -18.98388,-30.24262 -9.11212,-62.09232c11.69038,-37.71719 1.85824,-74.25893 94.52206,-74.15087c90.64924,0.15155 77.03036,34.67118 90.82015,71.65737c13.57367,36.4065 -7.66654,65.60758 -7.66654,65.60758z" fill="#484848" stroke="none" stroke-width="0"/><g stroke="none"><path d="M154.52853,394.99024c-0.04828,0.73052 -0.46182,3.85879 -4.00363,3.85879c-0.01794,0 -0.03582,-0.00008 -0.0536,-0.00024c0.0262,1.2145 -0.34973,3.26252 -3.02454,3.93123c-3.89031,0.97259 -4.86287,-2.91772 -4.86287,-2.91772l-0.92987,-4.21317c0,-4.6675 1.12398,-11.49172 -1.76812,-15.61568c-4.48539,-6.39587 -15.06315,-12.06628 -13.58912,-21.37308c0.83542,-5.27486 3.70921,-8.17589 7.14318,-10.62011c-0.62444,-1.96523 -1.10631,-4.05119 -1.49397,-6.34005c-0.0016,-0.69673 -0.0791,-11.2011 0.13185,-11.93304c1.95841,-6.79495 9.19724,-11.44448 14.53755,-15.18425c3.16356,-2.21543 6.54844,-4.24156 9.84246,-6.38464c-7.03518,-8.78052 -20.00537,-15.39981 -27.03404,-21.18832c-5.306,-4.3698 -6.12343,-11.00384 -8.58882,-17.17419c-1.18344,-3.71488 -3.66697,-9.29161 -6.24117,-12.2008c-3.01722,-3.40988 -16.09274,-2.82861 -20.23918,-3.95008c-14.93537,-4.03945 -29.1134,-3.77925 -44.31126,-0.73969c0,0 -3.93214,0.78642 -4.71856,-3.1457c-0.78642,-3.93214 3.1457,-4.71859 3.1457,-4.71859c11.05637,-2.21128 22.18826,-3.51871 33.52292,-2.49463c6.61006,0.5972 12.52302,3.03433 18.96182,4.09164c5.30739,0.87154 14.9429,1.19076 19.069,5.05527c3.44372,3.22542 6.81834,10.93136 8.34143,15.34407c1.41572,3.53515 2.18867,8.42141 3.82088,11.63929c2.0677,4.0764 10.57602,6.63324 14.14646,9.13167c5.83744,4.08479 11.92128,9.6106 16.29695,15.97864c4.18314,-3.32366 7.81587,-7.23977 10.09052,-12.54064c5.92796,-13.81467 -10.55151,-19.93511 -12.38858,-31.14498c-0.76896,-4.69228 1.88383,-8.56123 3.79489,-12.42619c6.59279,-8.58638 24.7246,-20.4528 35.59391,-13.3917c4.59123,2.98262 6.49799,9.19866 11.02669,11.96437c8.70179,5.31421 24.2624,1.18106 33.75417,1.1458c0,0 4.01002,0 4.01002,4.01002c0,4.01002 -4.01002,4.01002 -4.01002,4.01002c-11.20458,-0.04898 -27.14306,4.07875 -37.53847,-2.09478c-4.99424,-2.96594 -7.22418,-8.79474 -11.65734,-12.33998c-2.58093,-2.06398 -4.91674,-0.46113 -7.95109,0.48369c-5.91553,1.84191 -12.78378,5.39238 -16.40565,10.42893c-4.24693,8.36099 -1.47769,7.91166 3.82639,14.9012c5.56286,7.33058 9.07181,18.42186 5.40313,27.40286c-2.94274,7.20386 -7.96194,12.24948 -13.66633,16.56014c2.93453,6.86927 3.48741,14.36854 -0.28316,21.90307c-4.05811,8.10906 -14.24749,10.39608 -20.36806,16.56103c-0.78198,0.58033 -1.6293,1.10527 -2.49926,1.61342c0.81171,1.36244 1.77839,2.70874 2.93162,4.10725c3.16134,3.83368 8.46469,6.72836 10.34868,11.54631c2.71379,6.9399 1.14245,21.49311 -2.11347,28.46351zM148.9453,381.0666c0.00773,-3.36141 1.66151,-8.18247 0.32334,-11.38476c-1.57992,-3.78089 -6.56074,-6.4001 -9.09477,-9.51743c-1.3375,-1.64539 -2.47383,-3.2421 -3.44404,-4.84961c-1.15317,1.16531 -2.04864,2.57432 -2.48399,4.41019c-1.19686,5.0472 9.93527,12.16746 12.33548,15.89357c1.15587,1.79435 1.89516,3.72961 2.36425,5.7408c-0.0004,-0.09659 -0.00051,-0.19417 -0.00027,-0.29276zM151.19385,321.16769c-3.43375,2.40254 -10.26161,6.1538 -11.38703,10.74035c-0.72536,2.95621 0.13963,6.08683 0.13185,9.13073c0.13156,0.80754 0.28134,1.58021 0.45246,2.32471c0.07186,-0.05384 0.14359,-0.108 0.21512,-0.16249c5.06254,-5.02859 15.32014,-7.81734 18.51882,-14.22444c2.56507,-5.13793 2.69406,-9.73945 1.2646,-13.90292c-3.07424,2.03107 -6.20152,3.99898 -9.1958,6.09405z" fill="#000000" stroke-width="0.5"/><g stroke-width="0"><g><path d="M138.02107,248.61619v-132.6892h11.86222v132.6892z" fill="url(#color-47)"/><g><path d="M74.84538,276.86262v-13.80008h144.23308v13.80008z" fill="url(#color-48)"/><path d="M81.40143,281.78153v-23.57511h8.52284v23.57511z" fill="url(#color-49)"/><path d="M103.59138,282.68093v-23.57511h8.52284v23.57511z" fill="url(#color-50)"/><path d="M181.06888,282.0336v-23.57511h8.52284v23.57511z" fill="url(#color-51)"/><path d="M203.2588,282.933v-23.57511h8.52284v23.57511z" fill="url(#color-52)"/></g><g><path d="M81.29351,313.13343v-13.80008h131.33681v13.80008z" fill="url(#color-53)"/><path d="M87.26339,318.05232v-23.57511h7.7608v23.57511z" fill="url(#color-54)"/><path d="M107.46925,318.95169v-23.57511h7.76078v23.57511z" fill="url(#color-55)"/><path d="M178.01929,318.30436v-23.57511h7.76078v23.57511z" fill="url(#color-56)"/><path d="M198.22516,319.20376v-23.57511h7.7608v23.57511z" fill="url(#color-57)"/></g><g><path d="M89.35367,349.40425v-13.80008h115.21645v13.80008z" fill="url(#color-58)"/><path d="M94.59081,354.3231v-23.57511h6.80824v23.57511z" fill="url(#color-59)"/><path d="M112.31659,355.22252v-23.57511h6.80824v23.57511z" fill="url(#color-60)"/><path d="M174.20729,354.57519v-23.57511h6.80824v23.57511z" fill="url(#color-61)"/><path d="M191.93312,355.47459v-23.57511h6.80824v23.57511z" fill="url(#color-62)"/></g><path d="M133.47727,392.40771l-0.11616,-33.02696l-3.91396,-111.30947h31.48712l-3.98374,111.39162l-0.04636,32.94481z" fill="url(#color-63)"/><path d="M50.77781,250.99835v-7.25418h190.2201v7.25418z" fill="url(#color-64)"/><path d="M253.08814,246.96827c0,6.23213 -4.69127,11.28424 -10.47823,11.28424c-5.78696,0 -10.4782,-5.05211 -10.4782,-11.28424c0,-6.23213 4.69124,-11.28424 10.4782,-11.28424c5.78696,0 10.47823,5.05211 10.47823,11.28424z" fill="url(#color-65)"/><path d="M117.38854,256.73195v-17.73241h55.17408v17.73241z" fill="url(#color-66)"/><path d="M59.64401,246.96827c0,6.23213 -4.69127,11.28424 -10.47823,11.28424c-5.78696,0 -10.47823,-5.05211 -10.47823,-11.28424c0,-6.23213 4.69127,-11.28424 10.47823,-11.28424c5.78696,0 10.47823,5.05211 10.47823,11.28424z" fill="url(#color-67)"/></g><path d="M128.87366,440.60214v-52.54995h32.6894v52.54995z" fill="url(#color-68)"/><path d="M126.39646,407.77934v-9.19909h37.64378v9.19909z" fill="url(#color-69)"/><path d="M126.39646,420.7846v-9.19909h37.64378v9.19909z" fill="url(#color-70)"/></g></g><g stroke-width="0"><path d="M59.06398,218.79511c14.54166,5.3784 22.03502,21.35086 16.73691,35.67547c-2.59507,7.01633 -13.89351,-2.47482 -26.83774,-7.09982c-13.48283,-4.81745 -28.52532,-5.0688 -25.82227,-12.37708c5.29812,-14.32461 21.38144,-21.57697 35.92311,-16.19857z" fill="url(#color-71)" stroke="none"/><path d="M269.20873,234.99371c2.70305,7.30828 -12.33944,7.55963 -25.82227,12.37708c-12.94423,4.62499 -24.24267,14.11615 -26.83774,7.09982c-5.29812,-14.32461 2.19524,-30.29708 16.73691,-35.67547c14.54166,-5.3784 30.62499,1.87396 35.92311,16.19857z" data-paper-data="{&quot;index&quot;:null}" fill="url(#color-72)" stroke="none"/><path d="M220.36201,401.06801c-6.6473,33.87137 -141.96303,36.06391 -148.4922,-2.83904c-0.58597,1.07554 8.74173,-37.95485 6.82267,-74.17825c-1.91906,-36.22343 -35.20774,-117.8146 62.79616,-119.34295c110.5975,-3.229 71.85538,81.77226 71.05461,122.13555c-0.83192,41.93356 8.72863,74.59492 7.81876,74.22469z" data-paper-data="{&quot;index&quot;:null}" fill="url(#color-73)" stroke="#000000"/><path d="M208.88667,391.78541c-5.61766,28.62487 -119.97362,30.47777 -125.49143,-2.3993c-1.86335,-1.26302 8.36605,-43.05797 6.74424,-73.67056c-1.62178,-30.61258 -29.22643,-89.33663 53.59715,-90.62823c78.40478,-1.22268 62.38147,45.21055 58.69365,91.48215c-3.00856,37.74889 7.56431,71.98867 6.4564,75.21594z" data-paper-data="{&quot;index&quot;:null}" fill="url(#color-74)" stroke="#000000"/></g><g><path d="M147.25544,144.96701c44.86533,-0.90111 92.35496,17.88345 90.72021,40.49217c-3.0146,41.69203 -26.88622,42.85427 -71.75154,43.75538c-44.86532,0.90111 -73.89757,-5.43437 -90.72018,-40.49216c-10.8325,-22.57458 26.88622,-42.85427 71.75151,-43.75538z" fill="url(#color-75)" stroke="#000000" stroke-width="0"/><g><g fill="url(#color-76)" stroke="#000000" stroke-width="0"><path d="M158.06139,192.88652c35.94703,-0.72199 73.07143,10.21894 70.70331,23.63311c-4.36695,24.73663 -23.52543,25.52567 -59.47245,26.24766c-35.94703,0.72199 -58.88395,-2.91366 -70.7033,-23.63311c-7.61077,-13.34177 23.52539,-25.52567 59.47245,-26.24766z"/></g><g fill="none" stroke="none" stroke-width="1" font-family="sans-serif" font-weight="normal" font-size="12" text-anchor="start"/></g><path d="M151.48254,145.19304c34.74751,-0.69789 76.78941,16.80671 76.30827,37.80319c-0.17275,7.53896 -5.58749,17.24006 -7.08346,22.19557c-6.18712,20.49518 -3.1465,20.20659 -50.93744,21.22298c-50.12248,1.06598 -47.01319,-5.78171 -61.13465,-22.24792c-4.22934,-4.93159 -13.55786,-10.92159 -16.84432,-18.43911c-9.18211,-21.00342 24.94404,-39.83682 59.69158,-40.53472z" fill="url(#color-77)" stroke="#000000" stroke-width="0"/><path d="M140.27477,164.40294l-0.48724,-2.16407l21.52876,-0.4324l0.48725,2.16407z" fill="url(#color-78)" stroke="none" stroke-width="0"/><g stroke="none" stroke-width="0"><path d="M145.55762,176.91633c-0.05251,-0.23324 -3.23888,-14.54029 -3.23888,-14.54029l16.43583,-0.33701c0,0 3.26424,14.25011 3.33072,14.54537c0.93142,4.13684 -2.56244,5.12599 -7.12643,5.21765c-4.56399,0.09167 -8.46982,-0.74885 -9.40124,-4.88569z" fill="url(#color-79)"/><path d="M145.24879,175.54464c-0.05251,-0.23324 -3.23888,-14.54029 -3.23888,-14.54029l16.43583,-0.33702c0,0 3.26424,14.25011 3.33072,14.54538c0.93142,4.13684 -2.56244,5.12599 -7.12643,5.21765c-4.56399,0.09167 -8.46981,-0.74885 -9.40124,-4.88569z" fill="url(#color-80)"/></g></g><g><path d="M99.82618,60.29425v-6.05237h113.28552v6.05237z" data-paper-data="{&quot;index&quot;:null}" fill="url(#color-81)" stroke="none" stroke-width="0"/><path d="M99.64894,115.95163v-66.81169h5.68126v66.81169z" fill="url(#color-82)" stroke="none" stroke-width="0"/><path d="M207.43044,115.95163v-66.81169h5.68126v66.81169z" data-paper-data="{&quot;index&quot;:null}" fill="url(#color-83)" stroke="none" stroke-width="0"/><path d="M157.4542,107.82171l-0.16211,0.85298c0.68122,1.61042 1.13882,3.31693 1.48788,5.0303c0.11143,0.50796 0.29482,0.9831 0.53069,1.43433c0.10966,0.15997 0.20708,0.32644 0.28859,0.50141c1.13254,1.80419 3.04272,3.25378 4.33173,4.98672c1.07025,1.43882 1.11855,5.10026 2.17576,6.82457c0.55838,0.91076 3.45049,1.8129 3.75244,2.08917c3.98885,3.64941 -0.60455,5.99958 1.62791,9.28891c1.96183,2.89061 12.58344,-4.79537 13.99258,-5.82768c5.22337,-8.02041 -1.63807,-9.39515 -0.80724,-17.7593c0.43097,-4.33879 6.66609,-9.82989 5.26489,-14.26128c-0.64641,-2.04431 -2.7301,-4.49646 -3.87993,-6.33508c0,0 -1.06265,-1.70025 0.63759,-2.7629c1.70025,-1.06265 2.7629,0.63759 2.7629,0.63759c1.27045,2.03388 3.74584,5.05824 4.33408,7.35491c1.57979,6.168 -4.42257,10.32756 -5.13953,15.85673c-0.44749,3.45099 2.65225,6.13097 3.51088,9.38486c1.1728,4.44433 -1.4524,7.22798 -3.77051,10.64024c-4.07407,3.11455 -11.19279,8.62956 -16.91869,7.1574c-5.68506,-1.46168 -3.31425,-5.58764 -3.48329,-9.53026c-0.03932,-0.91696 -4.48839,-2.66263 -5.12831,-3.57635c-1.09963,-1.57011 -1.26372,-5.63148 -2.20503,-6.86542c-0.43076,-0.56466 -0.85686,-1.03817 -1.27259,-1.46301c-1.4821,2.38617 -4.67822,3.45196 -5.87144,6.97666c-1.33747,3.95086 3.11282,9.04254 -0.79332,12.58189c-1.88369,1.70682 -4.52156,1.14312 -6.70831,1.59933c-8.29261,1.73003 -12.32137,1.73123 -17.57246,-5.77467c-0.36542,-1.38279 -0.21269,-2.97271 -0.98582,-4.17601c-1.92596,-2.99754 -6.58793,-1.86319 -7.8795,-5.95728c-1.29433,-4.10276 2.98148,-9.59565 3.77811,-13.48005c0.57295,-2.79378 -1.13382,-3.59137 -1.84685,-5.91194c-1.02515,-3.33634 0.47011,-8.31993 1.344,-11.54383c0,0 0.52756,-1.93435 2.46191,-1.40679c1.93435,0.52756 1.40679,2.46191 1.40679,2.46191c-0.6019,2.19233 -2.23243,7.0243 -1.39399,9.26496c1.03258,2.75951 2.59547,4.38733 1.98635,7.77804c-0.57178,3.18289 -4.52215,8.45844 -3.8883,11.70955c0.23255,1.19282 3.8787,1.90329 4.62018,2.42673c3.11103,2.19615 3.26252,3.78687 4.03771,7.15358c4.34753,5.88986 6.71034,4.88933 13.09316,3.53454c1.57412,-0.33411 3.49585,0.3636 4.79128,-0.59108c1.40388,-1.03461 -0.83422,-9.18246 -0.24571,-10.96491c1.0448,-3.16439 5.46739,-4.74104 6.30952,-7.42709c0.72718,-2.31937 -1.66557,-3.75503 -2.87387,-5.45296c-0.76904,-1.84961 -1.05506,-3.90873 -1.07907,-5.9117l0.33366,-1.5815c0,0 0.48628,-1.94515 2.43143,-1.45887c0.43867,0.10966 0.75367,0.29353 0.97847,0.51253c1.63545,0.22985 1.63545,1.98023 1.63545,1.98023z" fill="url(#color-84)" stroke="none" stroke-width="0.5"/><path d="M94.08699,84.40786v-7.86977h123.95765v7.86977z" fill="url(#color-85)" stroke="none" stroke-width="0"/><g stroke="#000000" stroke-width="0"><path d="M159.62523,80.59043c0,14.48533 -11.44911,26.22803 -25.57231,26.22803c-14.1232,0 -25.57231,-11.74267 -25.57231,-26.22803c0,-14.48533 11.44911,-26.22803 25.57231,-26.22803c14.1232,0 25.57231,11.74267 25.57231,26.22803z" fill="url(#color-86)"/><g><path d="M123.71957,88.78526c-4.41273,0 -7.98993,-3.66893 -7.98993,-8.19479c0,-4.52587 3.57723,-8.19479 7.98993,-8.19479c4.41273,0 7.98993,3.66893 7.98993,8.19479c0,4.52587 -3.57723,8.19479 -7.98993,8.19479z" fill="#f500ff"/><path d="M123.71957,87.41528c-3.67502,0 -6.6542,-3.05555 -6.6542,-6.82481c0,-3.76923 2.97918,-6.82481 6.6542,-6.82481c3.67502,0 6.6542,3.05555 6.6542,6.82481c0,3.76923 -2.97918,6.82481 -6.6542,6.82481z" fill="#000000"/></g></g><g stroke="#000000" stroke-width="0"><path d="M221.33995,80.59043c0,14.48533 -11.44911,26.22803 -25.57231,26.22803c-14.1232,0 -25.57231,-11.74267 -25.57231,-26.22803c0,-14.48533 11.44911,-26.22803 25.57231,-26.22803c14.1232,0 25.57231,11.74267 25.57231,26.22803z" fill="url(#color-87)"/><g><path d="M185.4343,88.78526c-4.41273,0 -7.98993,-3.66893 -7.98993,-8.19479c0,-4.52587 3.57723,-8.19479 7.98993,-8.19479c4.41273,0 7.98993,3.66893 7.98993,8.19479c0,4.52587 -3.57723,8.19479 -7.98993,8.19479z" fill="#f500ff"/><path d="M185.4343,87.41528c-3.67502,0 -6.6542,-3.05555 -6.6542,-6.82481c0,-3.76923 2.97918,-6.82481 6.6542,-6.82481c3.67502,0 6.6542,3.05555 6.6542,6.82481c0,3.76923 -2.97918,6.82481 -6.6542,6.82481z" fill="#000000"/></g></g><path d="M167.51724,159.05592v-42.09578h5.49076v42.09578z" fill="url(#color-88)" stroke="none" stroke-width="0"/><path d="M140.06348,159.05592v-42.09578h5.49076v42.09578z" fill="url(#color-89)" stroke="none" stroke-width="0"/></g><g stroke-width="0"><g><path d="M108.28963,49.98632l-38.26931,-38.56327l3.10677,-3.10806l38.26929,38.56327z" fill="url(#color-90)" stroke="none"/><g stroke="#000000"><g fill="url(#color-91)"><path d="M88.29102,-6.75314c0.63217,0.62743 16.0864,12.10512 -2.15135,30.27026c-17.98977,17.91812 -27.04688,5.51754 -30.21797,2.52548c-13.75901,-12.98217 -24.90606,-57.23734 -24.90606,-57.23734c0,0 43.84917,11.11558 57.27538,24.44162z"/></g><g fill="url(#color-92)"><path d="M83.06693,-3.54673c0.48104,0.47749 12.24128,9.21163 -1.6371,23.03477c-13.68967,13.63516 -20.5819,4.19868 -22.99497,1.92184c-10.47021,-9.87903 -20.49453,-45.11158 -20.49453,-45.11158c0,0 34.90969,10.01422 45.12663,20.15494z"/></g></g></g><path d="M114.19371,48.57181c0,2.32188 -1.88225,4.20413 -4.20413,4.20413c-2.32188,0 -4.20413,-1.88225 -4.20413,-4.20413c0,-2.32188 1.88225,-4.20413 4.20413,-4.20413c2.32188,0 4.20413,1.88225 4.20413,4.20413z" fill="url(#color-93)" stroke="none"/></g><g data-paper-data="{&quot;index&quot;:null}" stroke-width="0"><g><path d="M231.63358,8.31499l3.10677,3.10806l-25.99936,26.19907c-0.79236,-1.07078 -1.88863,-2.04449 -3.33639,-2.87667z" fill="url(#color-94)" stroke="none"/><g stroke="#000000"><g fill="url(#color-95)"><path d="M216.46964,-6.75311c13.42621,-13.32604 57.27538,-24.44162 57.27538,-24.44162c0,0 -11.14705,44.25517 -24.90606,57.23734c-3.1711,2.99206 -12.2282,15.39264 -30.21797,-2.52548c-18.23775,-18.16514 -2.78351,-29.64283 -2.15135,-30.27026z"/></g><g fill="url(#color-96)"><path d="M221.69371,-3.54676c10.21694,-10.14072 45.12663,-20.15494 45.12663,-20.15494c0,0 -10.02432,35.23255 -20.49453,45.11158c-2.41307,2.27683 -9.3053,11.71332 -22.99497,-1.92184c-13.87838,-13.82315 -2.11815,-22.55729 -1.6371,-23.03477z"/></g></g></g><path d="" fill="url(#color-97)" stroke="none"/></g><path d="M240.17686,148.57258l-168.56354,-1.02175c0,0 -18.98388,-30.24262 -9.11212,-62.09232c11.69038,-37.71719 1.85824,-74.25893 94.52206,-74.15087c90.64924,0.15155 77.03036,34.67118 90.82015,71.65737c13.57367,36.4065 -7.66654,65.60758 -7.66654,65.60758zM133.29852,111.37318c14.76446,0 26.73345,-11.969 26.73345,-26.73345c0,-34.36901 -11.969,-44.11023 -26.73345,-44.11023c-14.76446,0 -28.96126,13.75123 -26.73345,44.11023c1.08054,14.72489 11.969,26.73345 26.73345,26.73345zM195.45881,110.72883c14.76446,0 26.28789,-13.03831 26.28789,-27.80279c0,-14.76446 -1.27559,-42.14975 -26.28789,-42.14975c-24.56673,0 -25.84232,27.38527 -25.84232,42.14975c0,14.76446 11.07786,27.80279 25.84232,27.80279z" fill="url(#color-98)" stroke="none" stroke-width="0"/><g stroke="#000000" stroke-width="0"><path d="M120.51207,134.77136c-1.70402,7.68779 -25.79853,6.69499 -54.38758,0.35815c-28.58902,-6.33682 -57.17417,-40.60272 -57.17417,-40.60272c0,0 33.13612,13.73388 61.72514,20.0707c0,0 51.54063,12.48605 49.83661,20.17384z" fill="url(#color-99)"/><path d="M122.28338,138.70469c-0.70403,7.84287 -24.72692,9.94824 -53.89256,7.33015c-29.16561,-2.61806 -61.90917,-32.93511 -61.90917,-32.93511c0,0 34.62378,9.37093 63.78942,11.98899c0,0 52.71634,5.77306 52.01231,13.61594z" fill="url(#color-100)"/><path d="M120.68389,139.76106c0.54076,7.85581 -22.85013,13.72081 -52.06391,15.73184c-29.21376,2.01102 -66.32597,-22.76685 -66.32597,-22.76685c0,0 35.66793,3.79722 64.88169,1.7862c0,0 52.96739,-2.60697 53.50816,5.24882z" fill="url(#color-101)"/><path d="M123.49561,143.03255c1.54378,7.72158 -20.90179,16.53793 -49.61643,22.27891c-28.71462,5.74096 -68.698,-14.07286 -68.698,-14.07286c0,0 35.86036,-0.80839 64.57498,-6.54935c0,0 52.19568,-9.37828 53.73948,-1.6567z" fill="url(#color-102)"/><path d="M122.53893,138.41221c3.18946,7.19953 -16.79527,20.69557 -43.56858,32.55637c-26.77329,11.8608 -70.11372,1.23685 -70.11372,1.23685c0,0 34.82225,-8.60403 61.59556,-20.46483c0,0 48.89728,-20.52795 52.08674,-13.32839z" fill="url(#color-103)"/></g><g data-paper-data="{&quot;index&quot;:null}" stroke="#000000" stroke-width="0"><path d="M240.75734,114.59752c25.28875,-6.33682 54.59966,-20.0707 54.59966,-20.0707c0,0 -25.28532,34.2659 -50.57407,40.60272c-25.28877,6.33682 -46.60185,7.32964 -48.10916,-0.35815c-1.50731,-7.68779 44.08355,-20.17384 44.08355,-20.17384z" fill="url(#color-104)"/><path d="M241.11502,125.08881c25.7988,-2.61806 56.42567,-11.98899 56.42567,-11.98899c0,0 -28.96368,30.31702 -54.76247,32.93511c-25.7988,2.61809 -47.04853,0.51269 -47.67129,-7.33015c-0.62276,-7.84287 46.00809,-13.61594 46.00809,-13.61594z" fill="url(#color-105)"/><path d="M243.85303,134.51223c25.84137,2.01102 57.39185,-1.7862 57.39185,-1.7862c0,0 -32.82803,24.7779 -58.6694,22.76685c-25.84139,-2.01102 -46.53207,-7.87602 -46.05373,-15.73184c0.47834,-7.85581 47.33126,-5.24882 47.33126,-5.24882z" fill="url(#color-106)"/><path d="M241.57044,144.68925c25.39985,5.74096 57.12054,6.54935 57.12054,6.54935c0,0 -35.36776,19.81382 -60.76761,14.07286c-25.39987,-5.74096 -45.25438,-14.55733 -43.88878,-22.27891c1.36557,-7.72158 47.53586,1.6567 47.53586,1.6567z" fill="url(#color-107)"/><path d="M240.95492,151.74058c23.68262,11.8608 54.48506,20.46483 54.48506,20.46483c0,0 -38.33729,10.62395 -62.0199,-1.23685c-23.68264,-11.8608 -41.36036,-25.35684 -38.53909,-32.55637c2.82127,-7.19953 46.07393,13.32839 46.07393,13.32839z" fill="url(#color-108)"/></g><path d="M213.50281,182.10875c-17.09412,0 -34.89801,-5.34525 -34.89801,-5.34525c0,0 0.55729,-18.69206 0.55729,-41.6939c0,-6.49719 -0.09119,-11.90187 0.8745,-16.38967c4.09008,-19.00716 16.48449,-21.56767 27.57307,-21.02543c21.0234,0.44166 33.57398,7.65654 43.03375,26.72172c19.31687,38.93113 -16.113,57.73252 -37.1406,57.73252z" fill="url(#color-109)" stroke="#000000" stroke-width="0"/><path d="M181.83096,100.67978c5.04452,0 9.13391,2.89251 9.13391,6.46059c0,3.56809 -4.08936,17.97654 -9.13391,17.97654c-5.04455,0 -9.13394,-14.40845 -9.13394,-17.97654c0,-3.56809 4.08939,-6.46059 9.13394,-6.46059z" fill="url(#color-110)" stroke="none" stroke-width="0"/><g stroke="#000000" stroke-width="0"><path d="M108.05297,32.00368c4.5622,7.44324 -1.46285,15.44106 -8.51533,23.75957c-16.78054,19.79286 -17.7847,18.04492 -17.7847,18.04492c0,0 0.94409,-7.86787 -7.2518,-21.23944c-13.62863,-22.2351 -60.61354,-11.38789 8.51543,-23.75962c10.74899,-1.92371 20.47427,-4.24859 25.03644,3.19457z" fill="url(#color-111)"/><path d="M116.62687,8.20824c42.3964,-55.98589 11.40786,-19.04058 25.03649,3.19454c8.19589,13.37159 15.63533,16.10089 15.63533,16.10089c0,0 1.10193,1.68803 -24.15073,7.65871c-10.61318,2.50934 -20.47427,4.24867 -25.03647,-3.19457c-4.56217,-7.44313 1.92304,-15.05417 8.51535,-23.75957z" data-paper-data="{&quot;index&quot;:null}" fill="url(#color-112)"/><path d="M121.32166,22.59121c4.67346,7.62473 2.42809,17.50416 -5.01506,22.06633c-7.44321,4.5622 -17.26564,2.07949 -21.9391,-5.54521c-4.67346,-7.62473 -2.42809,-17.50418 5.01506,-22.06635c7.44321,-4.5622 17.26567,-2.07943 21.9391,5.54527z" fill="url(#color-113)"/></g><path d="M107.73834,124.37624c9.45977,-19.06518 22.01035,-26.28005 43.03375,-26.72172c31.01228,-0.53849 34.44758,37.72863 34.44758,44.4151c0,23.18218 -5.99604,34.38889 -5.99604,34.38889c0,0 -17.39174,5.65025 -34.34466,5.65025c-21.02763,0 -56.45747,-18.8014 -37.1406,-57.73252z" data-paper-data="{&quot;index&quot;:null}" fill="url(#color-114)" stroke="#000000" stroke-width="0"/></g></g></svg>