<svg version="1.1" xmlns="http://www.w3.org/2000/svg" xmlns:xlink="http://www.w3.org/1999/xlink" width="865.9945" height="527.05781" viewBox="0,0,865.9945,527.05781"><defs><linearGradient x1="16.1757" y1="299.71131" x2="19.61635" y2="318.20247" gradientUnits="userSpaceOnUse" id="color-1"><stop offset="0" stop-color="#0f0f0f"/><stop offset="1" stop-color="#737373"/></linearGradient><linearGradient x1="19.85344" y1="320.85168" x2="23.27314" y2="339.23014" gradientUnits="userSpaceOnUse" id="color-2"><stop offset="0" stop-color="#0f0f0f"/><stop offset="1" stop-color="#737373"/></linearGradient><linearGradient x1="-42.5567" y1="310.05028" x2="-39.13701" y2="328.42873" gradientUnits="userSpaceOnUse" id="color-3"><stop offset="0" stop-color="#0f0f0f"/><stop offset="1" stop-color="#737373"/></linearGradient><linearGradient x1="-38.74977" y1="331.05127" x2="-35.30909" y2="349.54249" gradientUnits="userSpaceOnUse" id="color-4"><stop offset="0" stop-color="#0f0f0f"/><stop offset="1" stop-color="#737373"/></linearGradient><linearGradient x1="-6.29407" y1="340.06066" x2="-4.76687" y2="348.26829" gradientUnits="userSpaceOnUse" id="color-5"><stop offset="0" stop-color="#595959"/><stop offset="1" stop-color="#afafaf"/></linearGradient><linearGradient x1="-13.65641" y1="301.42921" x2="-12.12922" y2="309.63684" gradientUnits="userSpaceOnUse" id="color-6"><stop offset="0" stop-color="#afafaf"/><stop offset="1" stop-color="#595959"/></linearGradient><linearGradient x1="-10.40879" y1="318.79759" x2="-8.26183" y2="330.33592" gradientUnits="userSpaceOnUse" id="color-7"><stop offset="0" stop-color="#afafaf"/><stop offset="1" stop-color="#595959"/></linearGradient><radialGradient cx="-59.1322" cy="331.35778" r="12.08693" gradientUnits="userSpaceOnUse" id="color-8"><stop offset="0" stop-color="#656565"/><stop offset="1" stop-color="#404040"/></radialGradient><linearGradient x1="-22.83323" y1="291.13011" x2="-10.29311" y2="358.52478" gradientUnits="userSpaceOnUse" id="color-9"><stop offset="0" stop-color="#80cb83"/><stop offset="1" stop-color="#39853c"/></linearGradient><linearGradient x1="467.56736" y1="298.74081" x2="463.93404" y2="317.19507" gradientUnits="userSpaceOnUse" id="color-10"><stop offset="0" stop-color="#0f0f0f"/><stop offset="1" stop-color="#737373"/></linearGradient><linearGradient x1="463.66933" y1="319.8417" x2="460.05812" y2="338.18347" gradientUnits="userSpaceOnUse" id="color-11"><stop offset="0" stop-color="#0f0f0f"/><stop offset="1" stop-color="#737373"/></linearGradient><linearGradient x1="526.18872" y1="309.69182" x2="522.57752" y2="328.0336" gradientUnits="userSpaceOnUse" id="color-12"><stop offset="0" stop-color="#0f0f0f"/><stop offset="1" stop-color="#737373"/></linearGradient><linearGradient x1="522.16296" y1="330.65196" x2="518.52959" y2="349.10627" gradientUnits="userSpaceOnUse" id="color-13"><stop offset="0" stop-color="#0f0f0f"/><stop offset="1" stop-color="#737373"/></linearGradient><linearGradient x1="489.61506" y1="339.32233" x2="488.00233" y2="347.51359" gradientUnits="userSpaceOnUse" id="color-14"><stop offset="0" stop-color="#595959"/><stop offset="1" stop-color="#afafaf"/></linearGradient><linearGradient x1="497.37994" y1="300.76977" x2="495.76723" y2="308.96103" gradientUnits="userSpaceOnUse" id="color-15"><stop offset="0" stop-color="#afafaf"/><stop offset="1" stop-color="#595959"/></linearGradient><linearGradient x1="493.9513" y1="318.10333" x2="491.68413" y2="329.61865" gradientUnits="userSpaceOnUse" id="color-16"><stop offset="0" stop-color="#afafaf"/><stop offset="1" stop-color="#595959"/></linearGradient><radialGradient cx="542.54108" cy="331.17104" r="12.08693" gradientUnits="userSpaceOnUse" id="color-17"><stop offset="0" stop-color="#656565"/><stop offset="1" stop-color="#404040"/></radialGradient><linearGradient x1="506.66365" y1="290.56694" x2="493.42126" y2="357.82718" gradientUnits="userSpaceOnUse" id="color-18"><stop offset="0" stop-color="#80cb83"/><stop offset="1" stop-color="#39853c"/></linearGradient><linearGradient x1="121.27214" y1="295.12932" x2="121.30931" y2="313.93783" gradientUnits="userSpaceOnUse" id="color-19"><stop offset="0" stop-color="#0f0f0f"/><stop offset="1" stop-color="#737373"/></linearGradient><linearGradient x1="121.06296" y1="316.58621" x2="121.09993" y2="335.28006" gradientUnits="userSpaceOnUse" id="color-20"><stop offset="0" stop-color="#0f0f0f"/><stop offset="1" stop-color="#737373"/></linearGradient><linearGradient x1="61.63847" y1="294.66778" x2="61.67543" y2="313.36161" gradientUnits="userSpaceOnUse" id="color-21"><stop offset="0" stop-color="#0f0f0f"/><stop offset="1" stop-color="#737373"/></linearGradient><linearGradient x1="61.58161" y1="316.01097" x2="61.6188" y2="334.81951" gradientUnits="userSpaceOnUse" id="color-22"><stop offset="0" stop-color="#0f0f0f"/><stop offset="1" stop-color="#737373"/></linearGradient><linearGradient x1="91.87074" y1="330.74559" x2="91.88723" y2="339.09409" gradientUnits="userSpaceOnUse" id="color-23"><stop offset="0" stop-color="#595959"/><stop offset="1" stop-color="#afafaf"/></linearGradient><linearGradient x1="91.62176" y1="291.41962" x2="91.63825" y2="299.76813" gradientUnits="userSpaceOnUse" id="color-24"><stop offset="0" stop-color="#afafaf"/><stop offset="1" stop-color="#595959"/></linearGradient><linearGradient x1="91.67227" y1="309.08895" x2="91.69549" y2="320.82532" gradientUnits="userSpaceOnUse" id="color-25"><stop offset="0" stop-color="#afafaf"/><stop offset="1" stop-color="#595959"/></linearGradient><radialGradient cx="41.48027" cy="312.62345" r="12.08693" gradientUnits="userSpaceOnUse" id="color-26"><stop offset="0" stop-color="#656565"/><stop offset="1" stop-color="#404040"/></radialGradient><linearGradient x1="84.46044" y1="279.62972" x2="84.59598" y2="348.18102" gradientUnits="userSpaceOnUse" id="color-27"><stop offset="0" stop-color="#80cb83"/><stop offset="1" stop-color="#39853c"/></linearGradient><linearGradient x1="358.63038" y1="295.12932" x2="358.59321" y2="313.93783" gradientUnits="userSpaceOnUse" id="color-28"><stop offset="0" stop-color="#0f0f0f"/><stop offset="1" stop-color="#737373"/></linearGradient><linearGradient x1="358.83958" y1="316.58621" x2="358.80261" y2="335.28006" gradientUnits="userSpaceOnUse" id="color-29"><stop offset="0" stop-color="#0f0f0f"/><stop offset="1" stop-color="#737373"/></linearGradient><linearGradient x1="418.26405" y1="294.66778" x2="418.22708" y2="313.36161" gradientUnits="userSpaceOnUse" id="color-30"><stop offset="0" stop-color="#0f0f0f"/><stop offset="1" stop-color="#737373"/></linearGradient><linearGradient x1="418.32092" y1="316.01097" x2="418.28373" y2="334.81951" gradientUnits="userSpaceOnUse" id="color-31"><stop offset="0" stop-color="#0f0f0f"/><stop offset="1" stop-color="#737373"/></linearGradient><linearGradient x1="388.0318" y1="330.74559" x2="388.0153" y2="339.09409" gradientUnits="userSpaceOnUse" id="color-32"><stop offset="0" stop-color="#595959"/><stop offset="1" stop-color="#afafaf"/></linearGradient><linearGradient x1="388.28076" y1="291.41962" x2="388.26428" y2="299.76813" gradientUnits="userSpaceOnUse" id="color-33"><stop offset="0" stop-color="#afafaf"/><stop offset="1" stop-color="#595959"/></linearGradient><linearGradient x1="388.23024" y1="309.08895" x2="388.20704" y2="320.82532" gradientUnits="userSpaceOnUse" id="color-34"><stop offset="0" stop-color="#afafaf"/><stop offset="1" stop-color="#595959"/></linearGradient><radialGradient cx="438.42225" cy="312.62345" r="12.08693" gradientUnits="userSpaceOnUse" id="color-35"><stop offset="0" stop-color="#656565"/><stop offset="1" stop-color="#404040"/></radialGradient><linearGradient x1="395.44207" y1="279.62972" x2="395.30653" y2="348.18102" gradientUnits="userSpaceOnUse" id="color-36"><stop offset="0" stop-color="#80cb83"/><stop offset="1" stop-color="#39853c"/></linearGradient><linearGradient x1="-158.80787" y1="347.24515" x2="-146.1143" y2="379.83218" gradientUnits="userSpaceOnUse" id="color-37"><stop offset="0" stop-color="#446b45"/><stop offset="1" stop-color="#235124"/></linearGradient><linearGradient x1="-166.2193" y1="346.7519" x2="-154.70741" y2="379.77489" gradientUnits="userSpaceOnUse" id="color-38"><stop offset="0" stop-color="#5f9761"/><stop offset="1" stop-color="#2f6e31"/></linearGradient><linearGradient x1="-167.39209" y1="345.00115" x2="-160.99464" y2="379.38304" gradientUnits="userSpaceOnUse" id="color-39"><stop offset="0" stop-color="#80cb83"/><stop offset="1" stop-color="#39853c"/></linearGradient><linearGradient x1="-107.20853" y1="327.03764" x2="-101.58775" y2="357.24555" gradientUnits="userSpaceOnUse" id="color-40"><stop offset="0" stop-color="#80cb83"/><stop offset="1" stop-color="#39853c"/></linearGradient><linearGradient x1="-100.54915" y1="336.09953" x2="-91.48333" y2="384.822" gradientUnits="userSpaceOnUse" id="color-41"><stop offset="0" stop-color="#80cb83"/><stop offset="1" stop-color="#39853c"/></linearGradient><linearGradient x1="642.0456" y1="348.09719" x2="629.01285" y2="380.55005" gradientUnits="userSpaceOnUse" id="color-42"><stop offset="0" stop-color="#446b45"/><stop offset="1" stop-color="#235124"/></linearGradient><linearGradient x1="649.46179" y1="347.68126" x2="637.6061" y2="380.58239" gradientUnits="userSpaceOnUse" id="color-43"><stop offset="0" stop-color="#5f9761"/><stop offset="1" stop-color="#2f6e31"/></linearGradient><linearGradient x1="650.65277" y1="345.94285" x2="643.89706" y2="380.25614" gradientUnits="userSpaceOnUse" id="color-44"><stop offset="0" stop-color="#80cb83"/><stop offset="1" stop-color="#39853c"/></linearGradient><linearGradient x1="590.65986" y1="327.35258" x2="584.72429" y2="357.50022" gradientUnits="userSpaceOnUse" id="color-45"><stop offset="0" stop-color="#80cb83"/><stop offset="1" stop-color="#39853c"/></linearGradient><linearGradient x1="583.90631" y1="336.34453" x2="574.33283" y2="384.96978" gradientUnits="userSpaceOnUse" id="color-46"><stop offset="0" stop-color="#80cb83"/><stop offset="1" stop-color="#39853c"/></linearGradient><linearGradient x1="232.07603" y1="241.56399" x2="244.78207" y2="241.56399" gradientUnits="userSpaceOnUse" id="color-47"><stop offset="0" stop-color="#afafaf"/><stop offset="1" stop-color="#595959"/></linearGradient><linearGradient x1="241.65287" y1="328.10189" x2="241.65287" y2="342.88358" gradientUnits="userSpaceOnUse" id="color-48"><stop offset="0" stop-color="#afafaf"/><stop offset="1" stop-color="#595959"/></linearGradient><linearGradient x1="175.99344" y1="322.90029" x2="175.99344" y2="348.15235" gradientUnits="userSpaceOnUse" id="color-49"><stop offset="0" stop-color="#7c7c7c"/><stop offset="1" stop-color="#111111"/></linearGradient><linearGradient x1="199.76181" y1="323.86364" x2="199.76181" y2="349.1157" gradientUnits="userSpaceOnUse" id="color-50"><stop offset="0" stop-color="#7c7c7c"/><stop offset="1" stop-color="#111111"/></linearGradient><linearGradient x1="282.75052" y1="323.17028" x2="282.75052" y2="348.42234" gradientUnits="userSpaceOnUse" id="color-51"><stop offset="0" stop-color="#7c7c7c"/><stop offset="1" stop-color="#111111"/></linearGradient><linearGradient x1="306.51886" y1="324.13365" x2="306.51886" y2="349.38572" gradientUnits="userSpaceOnUse" id="color-52"><stop offset="0" stop-color="#7c7c7c"/><stop offset="1" stop-color="#111111"/></linearGradient><linearGradient x1="241.65287" y1="366.95269" x2="241.65287" y2="381.7344" gradientUnits="userSpaceOnUse" id="color-53"><stop offset="0" stop-color="#afafaf"/><stop offset="1" stop-color="#595959"/></linearGradient><linearGradient x1="181.86422" y1="361.7511" x2="181.86422" y2="387.00316" gradientUnits="userSpaceOnUse" id="color-54"><stop offset="0" stop-color="#7c7c7c"/><stop offset="1" stop-color="#111111"/></linearGradient><linearGradient x1="203.5074" y1="362.71448" x2="203.5074" y2="387.96654" gradientUnits="userSpaceOnUse" id="color-55"><stop offset="0" stop-color="#7c7c7c"/><stop offset="1" stop-color="#111111"/></linearGradient><linearGradient x1="279.07585" y1="362.0211" x2="279.07585" y2="387.27316" gradientUnits="userSpaceOnUse" id="color-56"><stop offset="0" stop-color="#7c7c7c"/><stop offset="1" stop-color="#111111"/></linearGradient><linearGradient x1="300.71908" y1="362.98447" x2="300.71908" y2="388.23653" gradientUnits="userSpaceOnUse" id="color-57"><stop offset="0" stop-color="#7c7c7c"/><stop offset="1" stop-color="#111111"/></linearGradient><linearGradient x1="241.65287" y1="405.80353" x2="241.65287" y2="420.58523" gradientUnits="userSpaceOnUse" id="color-58"><stop offset="0" stop-color="#afafaf"/><stop offset="1" stop-color="#595959"/></linearGradient><linearGradient x1="189.20273" y1="400.60195" x2="189.20273" y2="425.85398" gradientUnits="userSpaceOnUse" id="color-59"><stop offset="0" stop-color="#7c7c7c"/><stop offset="1" stop-color="#111111"/></linearGradient><linearGradient x1="208.1894" y1="401.56531" x2="208.1894" y2="426.81738" gradientUnits="userSpaceOnUse" id="color-60"><stop offset="0" stop-color="#7c7c7c"/><stop offset="1" stop-color="#111111"/></linearGradient><linearGradient x1="274.48256" y1="400.87194" x2="274.48256" y2="426.124" gradientUnits="userSpaceOnUse" id="color-61"><stop offset="0" stop-color="#7c7c7c"/><stop offset="1" stop-color="#111111"/></linearGradient><linearGradient x1="293.46921" y1="401.83531" x2="293.46921" y2="427.08737" gradientUnits="userSpaceOnUse" id="color-62"><stop offset="0" stop-color="#7c7c7c"/><stop offset="1" stop-color="#111111"/></linearGradient><linearGradient x1="222.89226" y1="389.34591" x2="256.61913" y2="389.34591" gradientUnits="userSpaceOnUse" id="color-63"><stop offset="0" stop-color="#afafaf"/><stop offset="1" stop-color="#595959"/></linearGradient><linearGradient x1="240.50243" y1="307.40933" x2="240.50243" y2="315.1795" gradientUnits="userSpaceOnUse" id="color-64"><stop offset="0" stop-color="#afafaf"/><stop offset="1" stop-color="#595959"/></linearGradient><radialGradient cx="346.69464" cy="308.27266" r="12.08693" gradientUnits="userSpaceOnUse" id="color-65"><stop offset="0" stop-color="#656565"/><stop offset="1" stop-color="#404040"/></radialGradient><linearGradient x1="239.52524" y1="302.32719" x2="239.52524" y2="321.32093" gradientUnits="userSpaceOnUse" id="color-66"><stop offset="0" stop-color="#595959"/><stop offset="1" stop-color="#393939"/></linearGradient><radialGradient cx="139.49027" cy="308.27266" r="12.08692" gradientUnits="userSpaceOnUse" id="color-67"><stop offset="0" stop-color="#656565"/><stop offset="1" stop-color="#404040"/></radialGradient><linearGradient x1="222.27794" y1="490.1263" x2="257.29262" y2="490.1263" gradientUnits="userSpaceOnUse" id="color-68"><stop offset="0" stop-color="#595959"/><stop offset="1" stop-color="#393939"/></linearGradient><linearGradient x1="219.62454" y1="478.18599" x2="259.94603" y2="478.18599" gradientUnits="userSpaceOnUse" id="color-69"><stop offset="0" stop-color="#393939"/><stop offset="1" stop-color="#151515"/></linearGradient><linearGradient x1="219.62454" y1="492.11635" x2="259.94603" y2="492.11635" gradientUnits="userSpaceOnUse" id="color-70"><stop offset="0" stop-color="#393939"/><stop offset="1" stop-color="#151515"/></linearGradient><radialGradient cx="144.90646" cy="292.40598" r="29.28405" gradientUnits="userSpaceOnUse" id="color-71"><stop offset="0" stop-color="#80cb83"/><stop offset="1" stop-color="#39853c"/></radialGradient><radialGradient cx="336.71302" cy="292.40598" r="29.28405" gradientUnits="userSpaceOnUse" id="color-72"><stop offset="0" stop-color="#80cb83"/><stop offset="1" stop-color="#39853c"/></radialGradient><linearGradient x1="240.3078" y1="264.61141" x2="240.3078" y2="509.80117" gradientUnits="userSpaceOnUse" id="color-73"><stop offset="0" stop-color="#80cb83"/><stop offset="1" stop-color="#39853c"/></linearGradient><radialGradient cx="255.49986" cy="343.3019" r="103.57467" gradientUnits="userSpaceOnUse" id="color-74"><stop offset="0" stop-color="#bef3c0"/><stop offset="1" stop-color="#9ecba0"/></radialGradient><radialGradient cx="234.68805" cy="311.76952" r="27.51412" gradientUnits="userSpaceOnUse" id="color-75"><stop offset="0" stop-color="#650000"/><stop offset="1" stop-color="#900000"/></radialGradient><radialGradient cx="246.92045" cy="311.76952" r="27.51413" gradientUnits="userSpaceOnUse" id="color-76"><stop offset="0" stop-color="#650000"/><stop offset="1" stop-color="#900000"/></radialGradient><radialGradient cx="241.40582" cy="311.18609" r="16.2314" gradientUnits="userSpaceOnUse" id="color-77"><stop offset="0" stop-color="#c20000"/><stop offset="1" stop-color="#900000"/></radialGradient><linearGradient x1="228.25261" y1="351.03103" x2="253.24613" y2="351.03103" gradientUnits="userSpaceOnUse" id="color-78"><stop offset="0" stop-color="#383838"/><stop offset="1" stop-color="#0a0a0a"/></linearGradient><linearGradient x1="228.25261" y1="351.03103" x2="253.24613" y2="351.03103" gradientUnits="userSpaceOnUse" id="color-79"><stop offset="0" stop-color="#0a0a0a"/><stop offset="1" stop-color="#383838"/></linearGradient><linearGradient x1="228.25261" y1="389.75765" x2="253.24613" y2="389.75765" gradientUnits="userSpaceOnUse" id="color-80"><stop offset="0" stop-color="#383838"/><stop offset="1" stop-color="#0a0a0a"/></linearGradient><linearGradient x1="228.25261" y1="389.75765" x2="253.24613" y2="389.75765" gradientUnits="userSpaceOnUse" id="color-81"><stop offset="0" stop-color="#0a0a0a"/><stop offset="1" stop-color="#383838"/></linearGradient><linearGradient x1="240.34442" y1="188.36382" x2="227.43104" y2="287.57159" gradientUnits="userSpaceOnUse" id="color-82"><stop offset="0" stop-color="#80cb83"/><stop offset="1" stop-color="#39853c"/></linearGradient><linearGradient x1="232.99931" y1="244.79307" x2="225.35364" y2="303.53138" gradientUnits="userSpaceOnUse" id="color-83"><stop offset="0" stop-color="#80cb83"/><stop offset="1" stop-color="#39853c"/></linearGradient><linearGradient x1="239.92821" y1="188.57262" x2="227.92379" y2="280.79728" gradientUnits="userSpaceOnUse" id="color-84"><stop offset="0" stop-color="#330000"/><stop offset="1" stop-color="#9c0000"/></linearGradient><linearGradient x1="237.03135" y1="208.34421" x2="236.69964" y2="210.8926" gradientUnits="userSpaceOnUse" id="color-85"><stop offset="0" stop-color="#898989"/><stop offset="1" stop-color="#2e2e2e"/></linearGradient><linearGradient x1="235.87036" y1="216.85877" x2="233.57411" y2="234.4998" gradientUnits="userSpaceOnUse" id="color-86"><stop offset="0" stop-color="#8a8a8a"/><stop offset="1" stop-color="#0f0f0f"/></linearGradient><linearGradient x1="236.0806" y1="215.24356" x2="233.78436" y2="232.88459" gradientUnits="userSpaceOnUse" id="color-87"><stop offset="0" stop-color="#898989"/><stop offset="1" stop-color="#2e2e2e"/></linearGradient><linearGradient x1="251.03716" y1="100.74255" x2="250.1973" y2="107.19481" gradientUnits="userSpaceOnUse" id="color-88"><stop offset="0" stop-color="#afafaf"/><stop offset="1" stop-color="#7a7a7a"/></linearGradient><linearGradient x1="194.1999" y1="87.81318" x2="184.92882" y2="159.03881" gradientUnits="userSpaceOnUse" id="color-89"><stop offset="0" stop-color="#afafaf"/><stop offset="1" stop-color="#7a7a7a"/></linearGradient><linearGradient x1="309.10196" y1="102.76941" x2="299.83088" y2="173.99503" gradientUnits="userSpaceOnUse" id="color-90"><stop offset="0" stop-color="#afafaf"/><stop offset="1" stop-color="#7a7a7a"/></linearGradient><linearGradient x1="246.10217" y1="140.53013" x2="238.88025" y2="196.013" gradientUnits="userSpaceOnUse" id="color-91"><stop offset="0" stop-color="#424242"/><stop offset="1" stop-color="#000000"/></linearGradient><linearGradient x1="247.51375" y1="124.45592" x2="246.42171" y2="132.84558" gradientUnits="userSpaceOnUse" id="color-92"><stop offset="0" stop-color="#b8b8b8"/><stop offset="1" stop-color="#313131"/></linearGradient><radialGradient cx="213.00126" cy="124.35686" r="28.19668" gradientUnits="userSpaceOnUse" id="color-93"><stop offset="0" stop-color="#ffffff"/><stop offset="1" stop-color="#cccccc"/></radialGradient><radialGradient cx="280.92531" cy="133.19819" r="28.19668" gradientUnits="userSpaceOnUse" id="color-94"><stop offset="0" stop-color="#ffffff"/><stop offset="1" stop-color="#cccccc"/></radialGradient><linearGradient x1="251.16897" y1="97.40423" x2="241.33523" y2="170.01289" gradientUnits="userSpaceOnUse" id="color-95"><stop offset="0" stop-color="#9d9d9d"/><stop offset="1" stop-color="#6e6e6e"/></linearGradient><linearGradient x1="257.03936" y1="169.51842" x2="251.19797" y2="214.39528" gradientUnits="userSpaceOnUse" id="color-96"><stop offset="0" stop-color="#afafaf"/><stop offset="1" stop-color="#595959"/></linearGradient><linearGradient x1="227.77184" y1="165.70882" x2="221.93045" y2="210.58567" gradientUnits="userSpaceOnUse" id="color-97"><stop offset="0" stop-color="#afafaf"/><stop offset="1" stop-color="#595959"/></linearGradient><linearGradient x1="317.32427" y1="133.61069" x2="310.568" y2="181.56659" gradientUnits="userSpaceOnUse" id="color-98"><stop offset="0" stop-color="#afafaf"/><stop offset="1" stop-color="#595959"/></linearGradient><linearGradient x1="174.52517" y1="65.27165" x2="178.31213" y2="62.38389" gradientUnits="userSpaceOnUse" id="color-99"><stop offset="0" stop-color="#d3d3d3"/><stop offset="1" stop-color="#868686"/></linearGradient><linearGradient x1="127.54046" y1="-1.26835" x2="172.19499" y2="57.2912" gradientUnits="userSpaceOnUse" id="color-100"><stop offset="0" stop-color="#80cb83"/><stop offset="1" stop-color="#39853c"/></linearGradient><radialGradient cx="152.42546" cy="32.32011" r="32.94519" gradientUnits="userSpaceOnUse" id="color-101"><stop offset="0" stop-color="#bef3c0"/><stop offset="1" stop-color="#7da17f"/></radialGradient><radialGradient cx="194.27873" cy="87.20754" r="4.51967" gradientUnits="userSpaceOnUse" id="color-102"><stop offset="0" stop-color="#a9a9a9"/><stop offset="1" stop-color="#5d5d5d"/></radialGradient><linearGradient x1="333.89162" y1="86.01558" x2="330.9701" y2="82.25461" gradientUnits="userSpaceOnUse" id="color-103"><stop offset="0" stop-color="#d3d3d3"/><stop offset="1" stop-color="#868686"/></linearGradient><linearGradient x1="396.3445" y1="33.72052" x2="338.1871" y2="78.89756" gradientUnits="userSpaceOnUse" id="color-104"><stop offset="0" stop-color="#80cb83"/><stop offset="1" stop-color="#39853c"/></linearGradient><radialGradient cx="363.6903" cy="59.81938" r="32.94519" gradientUnits="userSpaceOnUse" id="color-105"><stop offset="0" stop-color="#bef3c0"/><stop offset="1" stop-color="#7da17f"/></radialGradient><radialGradient cx="309.18079" cy="102.16376" r="4.51968" gradientUnits="userSpaceOnUse" id="color-106"><stop offset="0" stop-color="#a9a9a9"/><stop offset="1" stop-color="#5d5d5d"/></radialGradient><linearGradient x1="256.51218" y1="54.90876" x2="237.46467" y2="201.2424" gradientUnits="userSpaceOnUse" id="color-107"><stop offset="0" stop-color="#80cb83"/><stop offset="1" stop-color="#39853c"/></linearGradient><linearGradient x1="138.17169" y1="140.04884" x2="126.20167" y2="173.09064" gradientUnits="userSpaceOnUse" id="color-108"><stop offset="0" stop-color="#bef3c0"/><stop offset="1" stop-color="#9ecba0"/></linearGradient><linearGradient x1="134.79817" y1="151.57781" x2="127.16445" y2="185.88187" gradientUnits="userSpaceOnUse" id="color-109"><stop offset="0" stop-color="#bef3c0"/><stop offset="1" stop-color="#9ecba0"/></linearGradient><linearGradient x1="128.45118" y1="161.9436" x2="126.31906" y2="197.02203" gradientUnits="userSpaceOnUse" id="color-110"><stop offset="0" stop-color="#bef3c0"/><stop offset="1" stop-color="#9ecba0"/></linearGradient><linearGradient x1="128.47751" y1="173.95598" x2="130.86164" y2="209.01822" gradientUnits="userSpaceOnUse" id="color-111"><stop offset="0" stop-color="#bef3c0"/><stop offset="1" stop-color="#9ecba0"/></linearGradient><linearGradient x1="126.27361" y1="183.31028" x2="136.24158" y2="217.01016" gradientUnits="userSpaceOnUse" id="color-112"><stop offset="0" stop-color="#bef3c0"/><stop offset="1" stop-color="#9ecba0"/></linearGradient><linearGradient x1="345.92377" y1="167.09088" x2="349.03648" y2="202.09592" gradientUnits="userSpaceOnUse" id="color-113"><stop offset="0" stop-color="#bef3c0"/><stop offset="1" stop-color="#9ecba0"/></linearGradient><linearGradient x1="346.23356" y1="179.09928" x2="344.83124" y2="214.21445" gradientUnits="userSpaceOnUse" id="color-114"><stop offset="0" stop-color="#bef3c0"/><stop offset="1" stop-color="#9ecba0"/></linearGradient><linearGradient x1="349.71552" y1="190.74446" x2="342.79671" y2="225.19983" gradientUnits="userSpaceOnUse" id="color-115"><stop offset="0" stop-color="#bef3c0"/><stop offset="1" stop-color="#9ecba0"/></linearGradient><linearGradient x1="346.61489" y1="202.34982" x2="335.33454" y2="235.63342" gradientUnits="userSpaceOnUse" id="color-116"><stop offset="0" stop-color="#bef3c0"/><stop offset="1" stop-color="#9ecba0"/></linearGradient><linearGradient x1="346.3508" y1="211.95661" x2="328.08803" y2="241.98184" gradientUnits="userSpaceOnUse" id="color-117"><stop offset="0" stop-color="#bef3c0"/><stop offset="1" stop-color="#9ecba0"/></linearGradient><radialGradient cx="220.50362" cy="173.19699" r="45.43102" gradientUnits="userSpaceOnUse" id="color-118"><stop offset="0" stop-color="#bef3c0"/><stop offset="1" stop-color="#9ecba0"/></radialGradient><radialGradient cx="293.61035" cy="179.33163" r="45.43102" gradientUnits="userSpaceOnUse" id="color-119"><stop offset="0" stop-color="#bef3c0"/><stop offset="1" stop-color="#9ecba0"/></radialGradient><radialGradient cx="246.07013" cy="156.46948" r="13.13568" gradientUnits="userSpaceOnUse" id="color-120"><stop offset="0" stop-color="#858585"/><stop offset="1" stop-color="#000000"/></radialGradient></defs><g transform="translate(191.52202,8.78753)"><g data-paper-data="{&quot;isPaintingLayer&quot;:true}" fill-rule="nonzero" stroke-linecap="butt" stroke-linejoin="miter" stroke-miterlimit="10" stroke-dasharray="" stroke-dashoffset="0" style="mix-blend-mode: normal"><path d="M332.421,391.88562c-4.84643,51.54546 -7.35433,59.61785 -12.14691,84.03837c-7.12014,36.28075 -79.32714,33.62113 -79.32714,33.62113c0,0 -72.73412,5.00811 -79.72773,-36.66211c-3.49115,-20.80149 -9.72648,-43.27957 -11.78204,-82.07964c-2.05556,-38.80012 -16.71313,-124.52471 88.26207,-126.16176c99.37455,-1.54971 100.22905,68.66922 94.72169,127.24403z" data-paper-data="{&quot;index&quot;:null}" fill="#484848" stroke="#000000" stroke-width="0"/><g stroke="none"><path d="M30.45044,346.09707c-7.14415,8.74779 -72.34443,15.14665 -83.62892,10.67446c-5.18847,-2.05627 -12.06928,-42.77663 -7.99782,-46.32781c8.91918,-7.77941 68.93612,-26.0876 80.64763,-20.56995c11.71151,5.51761 18.12324,47.47558 10.97909,56.22333z" fill="#484848" stroke-width="0"/><g><g><path d="M34.17165,312.56991c0.45533,0.7191 0.56386,1.36036 0.49071,1.90696c0.80257,-0.26663 2.41458,-0.50639 3.43073,1.3286c1.39635,2.52164 -1.12529,3.91798 -1.12529,3.91798l-2.68878,1.46925c-3.8169,3.30993 -10.17794,5.95893 -15.31682,3.64116c-0.87956,-0.39668 -1.70692,-0.93045 -2.50813,-1.54217c-0.7233,0.2641 -1.4497,0.52911 -2.18075,0.79503c-6.03379,1.13815 -12.80569,3.43649 -18.92963,2.20328c-1.96137,-0.39502 -3.98151,-0.91249 -6.0371,-1.44701c-2.88898,5.1518 -4.49338,11.30886 -9.92471,13.81792c-8.49036,3.92217 -15.51707,-4.20905 -22.83427,-6.38641c-0.55967,0.75468 -1.13918,1.51051 -1.7718,2.25046c0,0 -1.88341,2.18201 -4.06544,0.29856c-0.6063,-0.52336 -0.89872,-1.06977 -1.00487,-1.58602c-1.78626,0.74374 -3.51005,1.62308 -4.82164,2.10057c0,0 -2.70856,0.98602 -3.69454,-1.72258c-0.98602,-2.70856 1.72259,-3.69455 1.72259,-3.69455c3.3877,-1.2332 7.27127,-3.3332 11.06946,-3.65767c1.98188,-2.55148 4.03504,-4.94171 7.22501,-6.70618c8.04982,-4.45263 16.85543,-3.31441 25.38111,-1.34578c1.4076,-1.55518 3.06372,-2.96175 5.15401,-4.36136c4.47569,-1.64365 12.54129,-4.59897 17.36075,-3.02367c3.5211,1.15095 6.33359,3.69898 9.05276,5.7229c3.37626,-1.23447 6.73912,-2.44989 10.22823,-3.62903l1.81118,-1.24349c0,0 2.4353,-1.54203 3.97732,0.89328zM-36.03809,324.62071c-1.52743,0.84708 -2.7417,1.88734 -3.80831,3.03609c5.25969,2.67041 11.62172,8.09326 16.89978,5.73038c2.76983,-1.24 3.39567,-4.91192 4.5499,-7.3307c0.47052,-0.98599 0.93859,-1.90542 1.41976,-2.77006c-6.46847,-1.42121 -13.04921,-1.99976 -19.06117,1.33431zM-3.36799,320.67095c4.46291,1.02591 10.06396,-0.83385 14.70992,-1.85792c-1.20312,-0.9971 -2.4732,-1.88315 -3.89546,-2.46472c-2.95641,-1.20882 -10.24135,1.61684 -13.09938,2.64407c-0.39898,0.26556 -0.77567,0.55039 -1.13257,0.85221c1.1507,0.28769 2.29079,0.56735 3.41757,0.82638z" fill="#000000" stroke-width="0.5"/><path d="M10.49698,302.21803l2.31338,-1.88052l12.48477,15.35829l-2.31338,1.88054z" fill="url(#color-1)" stroke-width="0"/><path d="M23.36979,320.19739l2.81945,0.96895l-6.4325,18.71811l-2.81945,-0.96895z" data-paper-data="{&quot;index&quot;:null}" fill="url(#color-2)" stroke-width="0"/><path d="M-42.65337,329.08301l-2.81946,-0.96895l6.4325,-18.7181l2.81946,0.96894z" data-paper-data="{&quot;index&quot;:null}" fill="url(#color-3)" stroke-width="0"/><path d="M-29.63038,347.03575l-2.31338,1.88054l-12.48471,-15.35826l2.31336,-1.88055z" data-paper-data="{&quot;index&quot;:null}" fill="url(#color-4)" stroke-width="0"/><path d="M-39.05054,346.15566l65.67575,-11.66453l1.36438,7.68215l-65.67575,11.66453z" fill="url(#color-5)" stroke-width="0"/><path d="M-46.41288,307.52421l65.67574,-11.66452l1.36438,7.68215l-65.67574,11.66452z" fill="url(#color-6)" stroke-width="0"/><path d="M-56.45802,327.366l92.32727,-16.39807l1.91808,10.79958l-92.32726,16.39806z" fill="url(#color-7)" stroke-width="0"/></g><path d="M-50.17051,332.32481c1.22113,6.56279 -2.72911,12.80219 -8.82312,13.93611c-6.09402,1.13391 -12.02409,-3.26707 -13.24523,-9.82986c-1.22113,-6.56279 2.72908,-12.80219 8.82309,-13.9361c6.09402,-1.13391 12.02411,3.26702 13.24527,9.82986z" fill="url(#color-8)" stroke-width="0"/></g><path d="M30.45044,346.09707c-7.14415,8.74779 -72.34443,15.14665 -83.62892,10.67446c-5.18847,-2.05627 -12.06928,-42.77663 -7.99782,-46.32781c8.91918,-7.77941 68.93612,-26.0876 80.64763,-20.56995c11.71151,5.51761 18.12324,47.47558 10.97909,56.22333z" fill="url(#color-9)" stroke-width="0"/></g><g data-paper-data="{&quot;index&quot;:null}" stroke="none"><path d="M452.8096,344.97521c-7.05252,-8.8218 -0.20352,-50.7106 11.56491,-56.10577c11.76843,-5.39518 71.59114,13.53803 80.4287,21.41001c4.03421,3.59345 -3.27098,44.23984 -8.48059,46.24187c-11.33054,4.35426 -76.46051,-2.72433 -83.51303,-11.54615z" fill="#484848" stroke-width="0"/><g><g><path d="M449.43829,311.41108c1.56733,-2.4191 3.98641,-0.85175 3.98641,-0.85175l1.7981,1.26232c3.47663,1.21548 6.82663,2.46591 10.18981,3.73552c2.74014,-1.99545 5.57906,-4.514 9.11197,-5.62815c4.83562,-1.52495 12.86996,1.51433 17.32826,3.20459c2.0756,1.42134 3.71695,2.84512 5.10823,4.41487c8.54575,-1.87961 17.36274,-2.92593 25.3657,1.61043c3.17139,1.79764 5.19952,4.20914 7.15467,6.78118c3.7946,0.36407 7.65604,2.50448 11.03071,3.77294c0,0 2.69818,1.01418 1.68396,3.71231c-1.01418,2.69817 -3.71231,1.68396 -3.71231,1.68396c-1.30656,-0.49114 -3.02108,-1.38841 -4.79946,-2.15075c-0.11153,0.5151 -0.40963,1.05843 -1.02137,1.57545c-2.20156,1.86059 -4.0621,-0.34095 -4.0621,-0.34095c-0.62488,-0.74649 -1.19645,-1.50832 -1.74824,-2.26883c-7.33951,2.10091 -14.45065,10.15841 -22.89963,6.14789c-5.40483,-2.56558 -6.94493,-8.73903 -9.78005,-13.92069c-2.06104,0.51303 -4.08647,1.00943 -6.05187,1.38396c-6.13646,1.16928 -12.88401,-1.19958 -18.90563,-2.40059c-0.72825,-0.27351 -1.45185,-0.54609 -2.17235,-0.81772c-0.80753,0.60332 -1.64042,1.12843 -2.52407,1.51593c-5.16278,2.26404 -11.49583,-0.45117 -15.27802,-3.80072l-2.67331,-1.49722c0,0 -2.50694,-1.42254 -1.08437,-3.9295c1.03524,-1.8243 2.64466,-1.56772 3.4444,-1.29273c-0.06747,-0.54735 0.04775,-1.18743 0.51056,-1.90175zM519.5185,324.19347c-5.97684,-3.3966 -12.56326,-2.88669 -19.0462,-1.53305c0.47215,0.86962 0.93058,1.79389 1.39079,2.78473c1.12896,2.43067 1.71646,6.10893 4.47319,7.37774c5.25312,2.41781 11.67139,-2.93838 16.95863,-5.55379c-1.05457,-1.15981 -2.25792,-2.21268 -3.77642,-3.07565zM486.89133,319.90314c1.12941,-0.24725 2.27238,-0.515 3.42601,-0.79069c-0.35375,-0.30552 -0.72744,-0.59425 -1.12363,-0.86396c-2.84716,-1.05697 -10.10225,-3.95846 -13.07111,-2.78055c-1.42825,0.56669 -2.7075,1.43944 -3.92096,2.42395c4.63504,1.07247 10.21636,2.99054 14.68974,2.01125z" fill="#000000" stroke-width="0.5"/><path d="M460.57534,316.53389l-2.29363,-1.90458l12.64427,-15.22722l2.29363,1.90454z" fill="url(#color-10)" stroke-width="0"/><path d="M466.3969,337.93494l-2.82941,0.93949l-6.23692,-18.78419l2.82941,-0.93949z" data-paper-data="{&quot;index&quot;:null}" fill="url(#color-11)" stroke-width="0"/><path d="M519.84995,309.94033l2.8294,-0.93949l6.23692,18.78419l-2.82941,0.93949z" data-paper-data="{&quot;index&quot;:null}" fill="url(#color-12)" stroke-width="0"/><path d="M525.52158,331.31325l2.29362,1.90458l-12.64423,15.2272l-2.29364,-1.90458z" data-paper-data="{&quot;index&quot;:null}" fill="url(#color-13)" stroke-width="0"/><path d="M520.86172,353.42614l-65.55052,-12.3489l1.44444,-7.6675l65.55051,12.34891z" fill="url(#color-14)" stroke-width="0"/><path d="M528.62661,314.8736l-65.55052,-12.3489l1.44444,-7.6675l65.55052,12.34891z" fill="url(#color-15)" stroke-width="0"/><path d="M537.87805,337.93058l-92.15122,-17.36015l2.03062,-10.77898l92.15121,17.36015z" fill="url(#color-16)" stroke-width="0"/></g><path d="M533.56976,332.04454c1.28954,-6.54973 7.26521,-10.88859 13.34708,-9.69117c6.08183,1.19742 9.96678,7.47768 8.67726,14.02738c-1.28953,6.54972 -7.26518,10.88859 -13.34706,9.69118c-6.08182,-1.19742 -9.96678,-7.47768 -8.67726,-14.02738z" fill="url(#color-17)" stroke-width="0"/></g><path d="M452.8096,344.97521c-7.05252,-8.8218 -0.20352,-50.7106 11.56491,-56.10577c11.76843,-5.39518 71.59114,13.53803 80.4287,21.41001c4.03421,3.59345 -3.27098,44.23984 -8.48059,46.24187c-11.33054,4.35426 -76.46051,-2.72433 -83.51303,-11.54615z" fill="url(#color-18)" stroke-width="0"/></g><g stroke="none"><path d="M126.91591,343.33258c-8.60939,7.31034 -73.89104,1.80313 -84.17977,-4.63754c-4.73062,-2.96135 -4.12796,-44.25457 0.51898,-47.01022c10.17986,-6.03667 72.5192,-13.18025 83.03868,-5.63412c10.51949,7.54611 9.23151,49.97161 0.6221,57.2819z" fill="#484848" stroke-width="0"/><g><g><path d="M136.64361,311.03259c0.31766,0.78963 0.30836,1.43994 0.13746,1.96429c0.83757,-0.11696 2.46636,-0.06103 3.13362,1.92757c0.91691,2.73272 -1.81581,3.64961 -1.81581,3.64961l-2.91029,0.95835c-4.35294,2.56445 -11.08834,4.01844 -15.72288,0.80889c-0.79324,-0.54932 -1.51033,-1.22402 -2.1876,-1.97064c-0.75916,0.12885 -1.52151,0.258 -2.28863,0.3872c-6.14013,0.02731 -13.21618,1.06208 -19.01578,-1.25912c-1.85747,-0.74347 -3.75061,-1.61802 -5.67551,-2.51575c-3.77369,4.54385 -6.46594,10.30887 -12.26167,11.79349c-9.05999,2.32076 -14.49903,-6.94792 -21.30131,-10.41363c-0.68702,0.64092 -1.39374,1.27938 -2.14985,1.89261c0,0 -2.24723,1.80511 -4.05235,-0.44216c-0.50157,-0.62445 -0.69026,-1.21476 -0.70122,-1.74169c-1.89136,0.40818 -3.74583,0.96101 -5.1222,1.19323c0,0 -2.84228,0.47952 -3.32176,-2.36281c-0.47953,-2.84229 2.36281,-3.32176 2.36281,-3.32176c3.55495,-0.59972 7.75445,-1.96216 11.54865,-1.59385c2.41092,-2.15065 4.86279,-4.12981 8.31942,-5.2878c8.72275,-2.92219 17.17694,-0.20907 25.20553,3.27009c1.66581,-1.27473 3.54915,-2.35834 5.85824,-3.35653c4.69925,-0.80647 13.16653,-2.25322 17.62129,0.16832c3.25463,1.76921 5.55953,4.78419 7.8675,7.26681c3.54391,-0.60302 7.07121,-1.18974 10.71612,-1.71794l2.00632,-0.89515c0,0 2.67416,-1.07581 3.74997,1.59838zM65.41231,310.17735c-1.65552,0.55665 -3.038,1.35997 -4.2949,2.2967c4.68952,3.57824 9.96503,10.06299 15.58357,8.69438c2.9485,-0.71821 4.22858,-4.21624 5.80151,-6.38616c0.64119,-0.88454 1.26794,-1.70407 1.89767,-2.46737c-6.10443,-2.56844 -12.47177,-4.32847 -18.98786,-2.13754zM98.25782,312.20565c4.20354,1.81669 10.04867,1.00137 14.80326,0.83506c-1.00278,-1.19837 -2.09153,-2.29967 -3.38506,-3.12904c-2.68882,-1.72391 -10.36486,-0.26341 -13.3616,0.22959c-0.44047,0.18896 -0.86247,0.4009 -1.26812,0.63314c1.07962,0.4912 2.15027,0.97258 3.21157,1.43125z" fill="#000000" stroke-width="0.5"/><path d="M115.23346,296.56685l2.61553,-1.43077l9.49894,17.36424l-2.61553,1.43081z" fill="url(#color-19)" stroke-width="0"/><path d="M124.63968,316.57911l2.59752,1.46323l-9.714,17.24479l-2.59752,-1.46323z" data-paper-data="{&quot;index&quot;:null}" fill="url(#color-20)" stroke-width="0"/><path d="M58.09868,313.3687l-2.59752,-1.46323l9.714,-17.24479l2.59752,1.46323z" data-paper-data="{&quot;index&quot;:null}" fill="url(#color-21)" stroke-width="0"/><path d="M67.65739,333.38196l-2.61553,1.43081l-9.49889,-17.36419l2.6155,-1.43081z" data-paper-data="{&quot;index&quot;:null}" fill="url(#color-22)" stroke-width="0"/><path d="M58.55209,330.81144l66.70228,0.41454l-0.04852,7.80221l-66.70228,-0.41454z" fill="url(#color-23)" stroke-width="0"/><path d="M58.3031,291.4855l66.70228,0.41454l-0.04852,7.80221l-66.70228,-0.41454z" fill="url(#color-24)" stroke-width="0"/><path d="M44.83276,309.18156l93.77037,0.58275l-0.06816,10.96837l-93.77037,-0.58274z" fill="url(#color-25)" stroke-width="0"/></g><path d="M50.11893,315.19645c0.01319,6.67541 -5.00107,12.09683 -11.19965,12.10909c-6.19861,0.01225 -11.23423,-5.3893 -11.24742,-12.06473c-0.01319,-6.67541 5.00103,-12.09683 11.19963,-12.1091c6.19861,-0.01225 11.23426,5.38928 11.24746,12.06473z" fill="url(#color-26)" stroke-width="0"/></g><path d="M126.91591,343.33258c-8.60939,7.31034 -73.89104,1.80313 -84.17977,-4.63754c-4.73062,-2.96135 -4.12796,-44.25457 0.51898,-47.01022c10.17986,-6.03667 72.5192,-13.18025 83.03868,-5.63412c10.51949,7.54611 9.23151,49.97161 0.6221,57.2819z" fill="url(#color-27)" stroke-width="0"/></g><g data-paper-data="{&quot;index&quot;:null}" stroke="none"><path d="M352.98665,343.3326c-8.60939,-7.31029 -9.89739,-49.73579 0.6221,-57.2819c10.51949,-7.54613 72.85881,-0.40256 83.03867,5.63412c4.64694,2.75565 5.2496,44.04889 0.51898,47.01022c-10.28873,6.44067 -75.57037,11.94786 -84.17977,4.63754z" fill="#484848" stroke-width="0"/><g><g><path d="M343.25894,311.03265c1.0758,-2.67419 3.74996,-1.59838 3.74996,-1.59838l2.00632,0.89515c3.6449,0.5282 7.1722,1.11491 10.71612,1.71794c2.30797,-2.48262 4.61286,-5.4976 7.86749,-7.26681c4.45475,-2.42155 12.92203,-0.97479 17.62129,-0.16832c2.3091,0.99817 4.19245,2.08178 5.85825,3.35652c8.02859,-3.47917 16.48278,-6.19228 25.20553,-3.27009c3.45664,1.15799 5.90848,3.13713 8.31942,5.2878c3.7942,-0.36831 7.9937,0.99415 11.54865,1.59385c0,0 2.84234,0.47947 2.36281,3.32177c-0.47947,2.84233 -3.32177,2.36281 -3.32177,2.36281c-1.37637,-0.23222 -3.23084,-0.78505 -5.12219,-1.19323c-0.01096,0.52693 -0.19966,1.11724 -0.70123,1.74169c-1.80512,2.24727 -4.05234,0.44216 -4.05234,0.44216c-0.75611,-0.61322 -1.46282,-1.25169 -2.14986,-1.89261c-6.80228,3.46571 -12.24133,12.7344 -21.30132,10.41363c-5.79572,-1.48465 -8.48796,-7.24963 -12.26166,-11.79349c-1.92489,0.89772 -3.81802,1.77227 -5.67551,2.51575c-5.7996,2.3212 -12.87564,1.28643 -19.01578,1.25912c-0.76711,-0.12921 -1.52949,-0.25836 -2.28863,-0.38721c-0.67726,0.74662 -1.39436,1.42131 -2.18761,1.97064c-4.63454,3.20956 -11.36994,1.75557 -15.72287,-0.80888l-2.91029,-0.95835c0,0 -2.73272,-0.91689 -1.81581,-3.64961c0.66726,-1.98861 2.29603,-2.04455 3.13362,-1.92757c-0.17089,-0.52433 -0.18021,-1.17466 0.13747,-1.96429zM414.49022,310.17737c-6.51609,-2.19093 -12.88342,-0.43089 -18.98786,2.13754c0.62975,0.7633 1.25647,1.58282 1.89767,2.46737c1.57295,2.16992 2.85301,5.66794 5.80151,6.38616c5.61854,1.36861 10.89406,-5.11613 15.58356,-8.69438c-1.25691,-0.93673 -2.6394,-1.74006 -4.2949,-2.2967zM381.64466,312.20567c1.06128,-0.45867 2.13196,-0.94006 3.21158,-1.43126c-0.40564,-0.23224 -0.82765,-0.44419 -1.26812,-0.63315c-2.99676,-0.493 -10.67281,-1.9535 -13.3616,-0.22958c-1.29352,0.82938 -2.38226,1.93065 -3.38506,3.12905c4.75459,0.16629 10.59971,0.98163 14.80326,-0.83506z" fill="#000000" stroke-width="0.5"/><path d="M355.17012,313.93111l-2.61552,-1.43081l9.49894,-17.36423l2.61553,1.43077z" fill="url(#color-28)" stroke-width="0"/><path d="M364.97685,333.82391l-2.59752,1.46323l-9.714,-17.24479l2.59751,-1.46323z" data-paper-data="{&quot;index&quot;:null}" fill="url(#color-29)" stroke-width="0"/><path d="M412.08984,296.1239l2.59752,-1.46323l9.714,17.24479l-2.59752,1.46324z" data-paper-data="{&quot;index&quot;:null}" fill="url(#color-30)" stroke-width="0"/><path d="M421.74406,316.01775l2.6155,1.43081l-9.4989,17.3642l-2.61552,-1.43081z" data-paper-data="{&quot;index&quot;:null}" fill="url(#color-31)" stroke-width="0"/><path d="M421.39897,338.61366l-66.70227,0.41454l-0.04852,-7.80221l66.70228,-0.41454z" fill="url(#color-32)" stroke-width="0"/><path d="M421.64794,299.28771l-66.70228,0.41454l-0.04851,-7.80221l66.70227,-0.41454z" fill="url(#color-33)" stroke-width="0"/><path d="M435.13792,320.14993l-93.77037,0.58275l-0.06817,-10.96838l93.77037,-0.58275z" fill="url(#color-34)" stroke-width="0"/></g><path d="M429.78358,315.19645c0.01321,-6.67546 5.04885,-12.077 11.24746,-12.06473c6.19858,0.01226 11.21282,5.43369 11.19963,12.1091c-0.01319,6.67544 -5.0488,12.07698 -11.24742,12.06473c-6.19857,-0.01226 -11.21283,-5.43369 -11.19966,-12.10909z" fill="url(#color-35)" stroke-width="0"/></g><path d="M352.98665,343.3326c-8.60939,-7.31029 -9.89739,-49.73579 0.6221,-57.2819c10.51949,-7.54613 72.85881,-0.40256 83.03867,5.63412c4.64694,2.75565 5.2496,44.04889 0.51898,47.01022c-10.28873,6.44067 -75.57037,11.94786 -84.17977,4.63754z" fill="url(#color-36)" stroke-width="0"/></g><g stroke="none" stroke-width="0"><path d="M-132.26122,355.45485c-4.67361,1.15954 -10.28266,4.15283 -16.65974,11.86028c-7.01865,8.48284 -10.75088,14.07428 -13.06582,17.50848c-2.30339,3.41708 -9.07104,4.50052 -12.70159,1.00349c-2.81629,-2.71267 -3.1661,-9.4518 -1.76478,-11.9101c2.13037,-3.7371 6.07043,-8.9376 12.37819,-16.56128c7.10341,-8.58526 15.38836,-14.11939 23.02297,-17.02551c13.2372,-5.03874 18.34924,12.75312 8.79072,15.12462z" data-paper-data="{&quot;index&quot;:null}" fill="url(#color-37)"/><path d="M-139.98553,355.91217c-4.71236,0.9905 -10.42546,3.77989 -17.07598,11.25271c-7.31955,8.2246 -11.25072,13.67802 -13.68784,17.02666c-2.42499,3.33189 -9.22718,4.17093 -12.72948,0.54548c-2.71678,-2.81234 -2.82371,-9.55969 -1.33478,-11.96591c2.26353,-3.65798 6.38834,-8.7132 12.96657,-16.1048c7.40793,-8.32388 15.88679,-13.55613 23.6211,-16.18546c13.41009,-4.55881 17.87811,13.40559 8.2404,15.43138z" data-paper-data="{&quot;index&quot;:null}" fill="url(#color-38)"/><path d="M-142.84077,358.0148c-4.80784,0.26817 -10.87648,2.16356 -18.57839,8.54739c-8.47672,7.02603 -13.18571,11.82387 -16.10019,14.76643c-2.89995,2.92786 -9.75085,2.73096 -12.66609,-1.38148c-2.26137,-3.19006 -1.34899,-9.87631 0.48599,-12.03031c2.78956,-3.27454 7.62984,-7.64957 15.24806,-13.964c8.57907,-7.11087 17.75031,-11.00383 25.79283,-12.43608c13.94442,-2.48326 15.65073,15.94965 5.8177,16.49806z" data-paper-data="{&quot;index&quot;:null}" fill="url(#color-39)"/><path d="M-78.76978,352.62653c-22.80353,4.24306 -62.25389,15.73625 -65.614,-3.03476c-3.37831,-18.87277 37.32757,-22.18911 60.13107,-26.43215c22.80353,-4.24306 28.28646,25.22385 5.48289,29.46692z" fill="url(#color-40)"/><path d="M-113.82452,372.82729c4.31682,-2.13373 9.15443,-6.259 13.73257,-15.15354c5.03869,-9.78934 7.48665,-16.05046 9.01222,-19.90081c1.518,-3.83114 7.89647,-6.33906 12.19186,-3.7009c3.33199,2.04647 5.11724,8.5542 4.27498,11.25559c-1.28042,4.10669 -4.01507,10.03042 -8.54347,18.82833c-5.09955,9.90753 -12.00684,17.08788 -18.84175,21.5619c-11.85067,7.75723 -20.65507,-8.52666 -11.82638,-12.8906z" data-paper-data="{&quot;index&quot;:null}" fill="url(#color-41)"/></g><g data-paper-data="{&quot;index&quot;:null}" stroke="none" stroke-width="0"><path d="M615.41485,356.02952c-9.53326,-2.47107 -4.23591,-20.20864 8.94799,-15.0321c7.60388,2.98561 15.83067,8.60585 22.84414,17.26472c6.22793,7.68905 10.1135,12.93038 12.20478,16.68949c1.37563,2.4728 0.95553,9.2079 -1.88889,11.89105c-3.66684,3.45896 -10.42281,2.30498 -12.69044,-1.13592c-2.279,-3.45814 -5.95269,-9.08821 -12.88249,-17.6438c-6.29635,-7.77354 -11.87387,-10.82517 -16.53513,-12.0334z" data-paper-data="{&quot;index&quot;:null}" fill="url(#color-42)"/><path d="M623.13388,356.56747c-9.61607,-2.12622 -4.9609,-20.04302 8.4009,-15.3446c7.70649,2.70986 16.13031,8.03024 23.451,16.43095c6.50079,7.45983 10.5726,12.5578 12.79789,16.23918c1.46375,2.42162 1.28645,9.16748 -1.45951,11.95134c-3.5399,3.58872 -10.33297,2.67879 -12.7231,-0.67822c-2.40206,-3.37387 -6.27615,-8.868 -13.5095,-17.1685c-6.57221,-7.54177 -12.2559,-10.39062 -16.95767,-11.4302z" data-paper-data="{&quot;index&quot;:null}" fill="url(#color-43)"/><path d="M625.96712,358.69971c-9.82679,-0.65095 -7.92829,-19.06504 5.98947,-16.43647c8.02714,1.51608 17.15729,5.50447 25.66172,12.70443c7.55196,6.39355 12.34631,10.81881 15.10158,14.12228c1.81242,2.17301 2.65502,8.86841 0.36048,12.03472c-2.95796,4.0818 -9.81056,4.20725 -12.67982,1.2493c-2.8836,-2.97278 -7.54233,-7.8195 -15.94528,-14.93356c-7.63489,-6.46382 -13.68344,-8.42242 -18.48823,-8.7407z" data-paper-data="{&quot;index&quot;:null}" fill="url(#color-44)"/><path d="M561.95577,352.64346c-22.75805,-4.48069 -16.96808,-33.8888 5.78995,-29.40812c22.75802,4.48066 63.42707,8.22138 59.8521,27.05789c-3.55573,18.73496 -42.88404,6.83089 -65.64207,2.35023z" fill="url(#color-45)"/><path d="M596.79785,373.20873c8.78272,4.4558 -0.19106,20.64697 -11.96018,12.76655c-6.78786,-4.54506 -13.61988,-11.79707 -18.61583,-21.75725c-4.43637,-8.84467 -7.10909,-14.79659 -8.34662,-18.91642c-0.81403,-2.71002 1.03899,-9.19879 4.39215,-11.2104c4.32269,-2.59321 10.67464,-0.01889 12.15259,3.82786c1.48532,3.86606 3.86783,10.15236 8.80415,19.99373c4.48511,8.9418 9.27947,13.11732 13.57379,15.29594z" data-paper-data="{&quot;index&quot;:null}" fill="url(#color-46)"/></g><g stroke="none"><path d="M249.75771,469.41391c-0.05171,0.78247 -0.49468,4.13328 -4.28842,4.13328c-0.01923,0 -0.03839,-0.0001 -0.05742,-0.00028c0.02805,1.30089 -0.37461,3.4946 -3.23968,4.21088c-4.16704,1.04178 -5.20878,-3.12527 -5.20878,-3.12527l-0.99602,-4.51288c0,-4.9995 1.20395,-12.30917 -1.8939,-16.72645c-4.80447,-6.85084 -16.13463,-12.9246 -14.55577,-22.89339c0.89485,-5.65006 3.97305,-8.75748 7.6513,-11.37553c-0.66886,-2.10503 -1.18501,-4.33936 -1.60025,-6.79105c-0.00171,-0.74631 -0.08473,-11.99788 0.14122,-12.78188c2.09773,-7.2783 9.85147,-12.25857 15.57163,-16.26436c3.38861,-2.37302 7.01424,-4.54325 10.54259,-6.8388c-7.53561,-9.40511 -21.4284,-16.49523 -28.95704,-22.6955c-5.68344,-4.68065 -6.55901,-11.78657 -9.19977,-18.39585c-1.26762,-3.97915 -3.9278,-9.95256 -6.68512,-13.06869c-3.23183,-3.65243 -17.23746,-3.02981 -21.67885,-4.23107c-15.99776,-4.32677 -31.18432,-4.04808 -47.46323,-0.7923c0,0 -4.21184,0.84236 -5.0542,-3.36948c-0.84237,-4.21184 3.36948,-5.05424 3.36948,-5.05424c11.84285,-2.36858 23.76657,-3.769 35.90752,-2.67208c7.08025,0.63967 13.41381,3.25018 20.31064,4.38269c5.68492,0.93354 16.00583,1.27546 20.42544,5.41487c3.68868,3.45486 7.30334,11.70893 8.93476,16.43552c1.51641,3.78661 2.34434,9.02044 4.09267,12.46721c2.21478,4.36636 11.32832,7.10509 15.15274,9.78124c6.25268,4.37536 12.76927,10.29424 17.4562,17.11524c4.4807,-3.56009 8.37183,-7.75475 10.80829,-13.43268c6.34964,-14.79735 -11.30207,-21.35314 -13.26982,-33.36039c-0.82366,-5.02606 2.01783,-9.17022 4.06483,-13.31009c7.06177,-9.19716 26.48332,-21.90766 38.12581,-14.34428c4.91781,3.19478 6.9602,9.85298 11.81106,12.81543c9.32077,5.69223 25.98825,1.26506 36.15519,1.22731c0,0 4.29524,0 4.29524,4.29523c0,4.29523 -4.29524,4.29524 -4.29524,4.29524c-12.0016,-0.05246 -29.07382,4.36888 -40.20868,-2.24378c-5.34949,-3.17692 -7.73804,-9.42034 -12.48655,-13.21776c-2.76451,-2.2108 -5.26648,-0.49394 -8.51668,0.5181c-6.33631,1.97294 -13.6931,5.77595 -17.57264,11.17079c-4.54902,8.95573 -1.5828,8.47445 4.09857,15.96116c5.95855,7.85203 9.71712,19.73226 5.78746,29.35209c-3.15206,7.71629 -8.52832,13.12082 -14.63845,17.73814c3.14326,7.35789 3.73548,15.39062 -0.30329,23.46109c-4.34677,8.68588 -15.26094,11.13556 -21.81689,17.73906c-0.8376,0.6216 -1.7452,1.1839 -2.67704,1.72818c0.86944,1.45934 1.90488,2.90141 3.14015,4.39941c3.38622,4.1064 9.06682,7.20696 11.08481,12.36764c2.90685,7.43355 1.22372,23.02197 -2.26379,30.48818zM243.77734,454.49983c0.00826,-3.60051 1.7797,-8.76449 0.34634,-12.19458c-1.69231,-4.04982 -7.02742,-6.85535 -9.7417,-10.19444c-1.43263,-1.76243 -2.6498,-3.47272 -3.68903,-5.19459c-1.23521,1.2482 -2.19437,2.75744 -2.66069,4.72389c-1.28199,5.40623 10.64199,13.03296 13.21291,17.02413c1.2381,1.92197 2.02998,3.99491 2.53243,6.14916c-0.00042,-0.10345 -0.00055,-0.20798 -0.00028,-0.31359zM246.18584,390.34018c-3.67801,2.57343 -10.99153,6.59154 -12.19703,11.50435c-0.77694,3.16649 0.14958,6.51981 0.14122,9.78023c0.14093,0.865 0.30137,1.69263 0.48466,2.49008c0.07699,-0.05768 0.15378,-0.11569 0.23041,-0.17403c5.42266,-5.38628 16.40989,-8.3734 19.83612,-15.23627c2.74755,-5.50338 2.88571,-10.43226 1.35455,-14.89187c-3.29291,2.17556 -6.64266,4.28344 -9.84994,6.52755z" fill="#000000" stroke-width="0.5"/><g stroke-width="0"><g><path d="M232.07603,312.62784v-142.12773h12.70602v142.12773z" fill="url(#color-47)"/><g><path d="M164.40648,342.88358v-14.78172h154.49277v14.78172z" fill="url(#color-48)"/><path d="M171.42889,348.15235v-25.25206h9.12912v25.25206z" fill="url(#color-49)"/><path d="M195.19728,349.1157v-25.25206h9.12912v25.25206z" fill="url(#color-50)"/><path d="M278.18595,348.42234v-25.25206h9.12912v25.25206z" fill="url(#color-51)"/><path d="M301.95435,349.38572v-25.25206h9.12912v25.25206z" fill="url(#color-52)"/></g><g><path d="M171.31328,381.7344v-14.78172h140.67916v14.78172z" fill="url(#color-53)"/><path d="M177.70781,387.00316v-25.25205h8.31283v25.25205z" fill="url(#color-54)"/><path d="M199.35099,387.96654v-25.25206h8.31282v25.25206z" fill="url(#color-55)"/><path d="M274.91944,387.27316v-25.25206h8.31281v25.25206z" fill="url(#color-56)"/><path d="M296.56265,388.23653v-25.25206h8.31282v25.25206z" fill="url(#color-57)"/></g><g><path d="M179.94682,420.58523v-14.78172h123.41211v14.78172z" fill="url(#color-58)"/><path d="M185.55647,425.85398v-25.25206h7.29252v25.25206z" fill="url(#color-59)"/><path d="M204.54312,426.81738v-25.25206h7.29252v25.25206z" fill="url(#color-60)"/><path d="M270.8363,426.124v-25.25206h7.29251v25.25206z" fill="url(#color-61)"/><path d="M289.82299,427.08737v-25.25206h7.29251v25.25206z" fill="url(#color-62)"/></g><path d="M227.20903,466.64766l-0.12441,-35.37628l-4.19239,-119.22721h33.72687l-4.2671,119.31521l-0.04964,35.28826z" fill="url(#color-63)"/><path d="M138.62692,315.1795v-7.77017h203.75097v7.77017z" fill="url(#color-64)"/><path d="M355.32819,310.86271c0,6.67543 -5.02498,12.08693 -11.22357,12.08693c-6.19862,0 -11.22355,-5.41149 -11.22355,-12.08693c0,-6.67543 5.02496,-12.08693 11.22355,-12.08693c6.19862,0 11.22357,5.41149 11.22357,12.08693z" fill="url(#color-65)"/><path d="M209.97587,321.32093v-18.99375h59.09875v18.99375z" fill="url(#color-66)"/><path d="M148.1238,310.86271c0,6.67543 -5.02498,12.08693 -11.22358,12.08693c-6.19862,0 -11.22357,-5.41149 -11.22357,-12.08693c0,-6.67543 5.02498,-12.08693 11.22357,-12.08693c6.19862,0 11.22358,5.41149 11.22358,12.08693z" fill="url(#color-67)"/></g><path d="M222.27794,518.27028v-56.28797h35.01468v56.28797z" fill="url(#color-68)"/><path d="M219.62454,483.11271v-9.85346h40.32148v9.85346z" fill="url(#color-69)"/><path d="M219.62454,497.04306v-9.85346h40.32148v9.85346z" fill="url(#color-70)"/></g></g><g stroke-width="0"><path d="M147.50249,280.68557c15.57605,5.76099 23.60243,22.8696 17.92745,38.21317c-2.77966,7.51541 -14.88179,-2.65087 -28.74677,-7.60485c-14.44192,-5.16014 -30.5544,-5.42933 -27.65907,-13.2575c5.67499,-15.34356 22.90236,-23.1118 38.4784,-17.35082z" fill="url(#color-71)" stroke="none"/><path d="M372.59541,298.03639c2.89531,7.82814 -13.21718,8.09736 -27.65907,13.2575c-13.86499,4.95399 -25.96712,15.12026 -28.74676,7.60485c-5.67498,-15.34356 2.35138,-32.45218 17.92745,-38.21317c15.57605,-5.76099 32.80345,2.00727 38.4784,17.35083z" data-paper-data="{&quot;index&quot;:null}" fill="url(#color-72)" stroke="none"/><g><path d="M332.421,391.88562c-4.84643,51.54546 -7.35433,59.61785 -12.14691,84.03837c-7.12014,36.28075 -79.32714,33.62113 -79.32714,33.62113c0,0 -72.73412,5.00811 -79.72773,-36.66211c-3.49115,-20.80149 -9.72648,-43.27957 -11.78204,-82.07964c-2.05556,-38.80012 -16.71313,-124.52471 88.26207,-126.16176c99.37455,-1.54971 100.22905,68.66922 94.72169,127.24403z" data-paper-data="{&quot;index&quot;:null}" fill="url(#color-73)" stroke="#000000"/><path d="M318.2479,394.95989c-4.09574,43.56133 -6.21522,50.38335 -10.26543,71.02123c-6.01724,30.66103 -67.03969,28.41339 -67.03969,28.41339c0,0 -61.46797,4.23235 -67.37827,-30.98336c-2.95043,-17.57941 -8.2199,-36.57579 -9.95708,-69.36594c-1.73714,-32.79014 -14.12434,-105.23639 74.59071,-106.61988c83.98191,-1.30966 84.70404,58.03267 80.04976,107.53454z" data-paper-data="{&quot;index&quot;:null}" fill="url(#color-74)" stroke="#000000"/><g stroke="#000000"><path d="M240.76982,311.28341c0,8.75097 -9.33864,12.42998 -19.72335,15.84493c-24.70911,8.12534 -24.65165,6.1055 -24.65165,6.1055c0,0 4.92825,-6.22953 4.92825,-21.95044c0,-26.14173 -45.83655,-41.48345 19.72344,-15.84494c10.19407,3.98659 19.72335,7.09405 19.72335,15.84494z" fill="url(#color-75)"/><path d="M260.56201,295.43847c65.55998,-25.63851 19.72341,-10.2968 19.72341,15.84494c0,15.72092 4.92825,21.95044 4.92825,21.95044c0,0 0.0575,2.01984 -24.65165,-6.1055c-10.38476,-3.41492 -19.72339,-7.09397 -19.72339,-15.84493c0,-8.75089 9.52928,-11.85833 19.72339,-15.84494z" data-paper-data="{&quot;index&quot;:null}" fill="url(#color-76)"/><path d="M257.04007,310.18978c0,8.96435 -7.09405,16.2314 -15.84494,16.2314c-8.75097,0 -15.84497,-7.26705 -15.84497,-16.2314c0,-8.96435 7.0941,-16.23141 15.84497,-16.23141c8.75097,0 15.84494,7.26709 15.84494,16.23141z" fill="url(#color-77)"/></g><g stroke="none"><path d="M240.74936,338.41753c6.90177,0 12.49679,5.64727 12.49679,12.61347c0,6.96623 -5.59501,12.61348 -12.49679,12.61348c-6.90177,0 -12.4968,-5.64728 -12.4968,-12.61348c0,-6.96623 5.59502,-12.61347 12.4968,-12.61347zM237.35688,356.26704c1.29579,0 2.34627,-1.05048 2.34627,-2.34627c0,-1.29579 -1.05048,-2.34627 -2.34627,-2.34627c-1.29579,0 -2.34627,1.05048 -2.34627,2.34627c0,1.29579 1.05048,2.34627 2.34627,2.34627zM243.78482,349.7511c1.29579,0 2.34624,-1.05049 2.34624,-2.34628c0,-1.29579 -1.05045,-2.34623 -2.34624,-2.34623c-1.29579,0 -2.34627,1.05044 -2.34627,2.34623c0,1.29579 1.05048,2.34628 2.34627,2.34628zM237.44495,349.7511c1.29579,0 2.34627,-1.05049 2.34627,-2.34628c0,-1.29579 -1.05048,-2.34623 -2.34627,-2.34623c-1.29579,0 -2.34624,1.05044 -2.34624,2.34623c0,1.29579 1.05044,2.34628 2.34624,2.34628zM243.78482,356.35509c1.29579,0 2.34624,-1.05048 2.34624,-2.34627c0,-1.29579 -1.05045,-2.34624 -2.34624,-2.34624c-1.29579,0 -2.34627,1.05045 -2.34627,2.34624c0,1.29579 1.05048,2.34627 2.34627,2.34627z" fill="url(#color-78)"/><path d="M240.74936,338.41753c6.90177,0 12.49679,5.64727 12.49679,12.61347c0,6.96623 -5.59501,12.61348 -12.49679,12.61348c-6.90177,0 -12.4968,-5.64728 -12.4968,-12.61348c0,-6.96623 5.59502,-12.61347 12.4968,-12.61347zM240.79098,361.08426c5.61515,0 10.1671,-4.55196 10.1671,-10.16708c0,-5.61516 -4.55196,-10.16708 -10.1671,-10.16708c-5.61515,0 -10.16709,4.55197 -10.16709,10.16708c0,5.61516 4.55196,10.16708 10.16709,10.16708z" fill="url(#color-79)"/></g><g stroke="none"><path d="M240.74936,377.14419c6.90177,0 12.49679,5.64727 12.49679,12.61347c0,6.96623 -5.59501,12.61348 -12.49679,12.61348c-6.90177,0 -12.4968,-5.64728 -12.4968,-12.61348c0,-6.96623 5.59502,-12.61347 12.4968,-12.61347zM237.35688,394.99365c1.29579,0 2.34627,-1.05048 2.34627,-2.34627c0,-1.29579 -1.05048,-2.34627 -2.34627,-2.34627c-1.29579,0 -2.34627,1.05048 -2.34627,2.34627c0,1.29579 1.05048,2.34627 2.34627,2.34627zM243.78482,388.47772c1.29579,0 2.34624,-1.05048 2.34624,-2.34627c0,-1.29579 -1.05045,-2.34623 -2.34624,-2.34623c-1.29579,0 -2.34627,1.05044 -2.34627,2.34623c0,1.29579 1.05048,2.34627 2.34627,2.34627zM237.44495,388.47772c1.29579,0 2.34627,-1.05048 2.34627,-2.34627c0,-1.29579 -1.05048,-2.34623 -2.34627,-2.34623c-1.29579,0 -2.34624,1.05044 -2.34624,2.34623c0,1.29579 1.05044,2.34627 2.34624,2.34627zM243.78482,395.08174c1.29579,0 2.34624,-1.05045 2.34624,-2.34624c0,-1.29579 -1.05045,-2.34627 -2.34624,-2.34627c-1.29579,0 -2.34627,1.05048 -2.34627,2.34627c0,1.29579 1.05048,2.34624 2.34627,2.34624z" fill="url(#color-80)"/><path d="M240.74936,377.14419c6.90177,0 12.49679,5.64727 12.49679,12.61347c0,6.96623 -5.59501,12.61348 -12.49679,12.61348c-6.90177,0 -12.4968,-5.64728 -12.4968,-12.61348c0,-6.96623 5.59502,-12.61347 12.4968,-12.61347zM240.79098,399.81091c5.61515,0 10.1671,-4.55197 10.1671,-10.16711c0,-5.61516 -4.55196,-10.16708 -10.1671,-10.16708c-5.61515,0 -10.16709,4.55195 -10.16709,10.16708c0,5.61516 4.55196,10.16711 10.16709,10.16711z" fill="url(#color-81)"/></g></g></g><path d="M327.18581,212.92094l-179.55793,-24.47988c0,0 -16.04145,-34.87489 -1.09791,-67.45889c17.69649,-38.58677 12.2855,-78.90699 111.05617,-65.93338c96.61696,12.74045 77.30826,47.65079 86.87671,88.994c9.41851,40.69523 -17.27703,68.87811 -17.27703,68.87811z" fill="#484848" stroke="none" stroke-width="0"/><g><path d="M240.25079,188.35164c50.30086,6.54741 95.572,35.97091 84.62114,61.45901c-20.19414,47.00177 -47.23366,44.29614 -97.53451,37.74873c-50.30086,-6.54741 -80.05617,-18.66838 -84.6211,-61.45901c-2.9395,-27.55396 47.23365,-44.29614 97.53448,-37.74874z" fill="url(#color-82)" stroke="#000000" stroke-width="0"/><g><g fill="url(#color-83)" stroke="#000000" stroke-width="0"><path d="M232.9243,244.78331c40.30212,5.24592 77.2042,23.98124 69.15064,38.86774c-14.85136,27.45172 -36.49418,25.11649 -76.79631,19.87057c-40.30212,-5.24592 -64.36349,-13.26126 -69.15064,-38.86774c-3.08257,-16.48866 36.49414,-25.11649 76.79631,-19.87056z"/></g><g fill="none" stroke="none" stroke-width="1" font-family="sans-serif" font-weight="normal" font-size="12" text-anchor="start"/></g><path d="M239.85571,188.56319c38.95728,5.07087 78.6818,32.1161 69.6661,55.96168c-3.23716,8.56197 -11.76849,14.71438 -15.43504,20.10893c-15.16418,22.31103 -13.07689,26.48396 -66.68069,19.57404c-56.21889,-7.24706 -49.99245,-14.52554 -59.05977,-35.67382c-2.71564,-6.33387 -10.6794,-14.73471 -11.30118,-23.85623c-1.7371,-25.48489 43.85322,-41.18544 82.81052,-36.11457z" fill="url(#color-84)" stroke="#000000" stroke-width="0"/><path d="M224.63114,209.3217l0.33171,-2.54836l24.13703,3.1418l-0.33171,2.54836z" fill="url(#color-85)" stroke="none" stroke-width="0"/><g stroke="none" stroke-width="0"><path d="M225.45723,224.47328c0.03575,-0.27465 2.26758,-17.11638 2.26758,-17.11638l18.42987,2.3907c0,0 -2.12215,16.78996 -2.16741,17.13767c-0.63409,4.87144 -4.92241,5.40879 -10.03933,4.74274c-5.11692,-0.66604 -9.12479,-2.28327 -8.4907,-7.1547z" fill="url(#color-86)"/><path d="M225.66747,222.85807c0.03575,-0.27465 2.26758,-17.11638 2.26758,-17.11638l18.42987,2.3907c0,0 -2.12215,16.78996 -2.16741,17.13766c-0.63409,4.87144 -4.92241,5.40879 -10.03933,4.74275c-5.11692,-0.66604 -9.12479,-2.28327 -8.4907,-7.15471z" fill="url(#color-87)"/></g></g><g><path d="M189.81274,99.33486l0.83985,-6.45223l120.76974,15.71999l-0.83985,6.45223z" data-paper-data="{&quot;index&quot;:null}" fill="url(#color-88)" stroke="none" stroke-width="0"/><path d="M181.90052,158.64464l9.27108,-71.22561l6.05659,0.78836l-9.27108,71.22561z" fill="url(#color-89)" stroke="none" stroke-width="0"/><path d="M296.8026,173.60086l9.27108,-71.22561l6.05659,0.78836l-9.27108,71.22561z" data-paper-data="{&quot;index&quot;:null}" fill="url(#color-90)" stroke="none" stroke-width="0"/><path d="M244.65284,157.99892l-0.29118,0.88684c0.50276,1.81134 0.75377,3.69409 0.88814,5.5691c0.0483,0.55697 0.17787,1.08895 0.36674,1.60275c0.09471,0.18575 0.17547,0.37676 0.23807,0.5746c0.95699,2.08053 2.79223,3.89095 3.92592,5.91727c0.94128,1.68239 0.48473,5.59243 1.37251,7.57735c0.4689,1.04841 3.4269,2.41148 3.71044,2.7479c3.74597,4.44401 -1.47702,6.31205 0.44649,10.12849c1.69034,3.35383 14.08019,-3.36604 15.72569,-4.27101c6.6814,-7.82545 -0.44258,-10.24317 1.60378,-19.04457c1.06151,-4.56562 8.47053,-9.55428 7.59166,-14.47288c-0.40546,-2.26906 -2.28652,-5.17236 -3.25719,-7.29201c0,0 -0.89693,-1.96001 1.0631,-2.85697c1.96001,-0.89693 2.85697,1.06311 2.85697,1.06311c1.07216,2.34454 3.2914,5.91218 3.59979,8.44223c0.82826,6.79471 -6.14783,10.39616 -7.67942,16.19113c-0.95593,3.61688 1.97672,6.90405 2.44056,10.49205c0.63356,4.90066 -2.55135,7.50396 -5.4961,10.81997c-4.77543,2.75499 -13.12973,7.64651 -19.02962,5.28253c-5.8578,-2.34711 -2.75784,-6.41667 -2.39094,-10.64325c0.08532,-0.98299 -4.41544,-3.46136 -4.97083,-4.52426c-0.9544,-1.82642 -0.56575,-6.17887 -1.39805,-7.62496c-0.38086,-0.66175 -0.7694,-1.22566 -1.15364,-1.73627c-1.91114,2.33815 -5.4663,3.03082 -7.22746,6.62282c-1.97406,4.02627 2.06366,10.07189 -2.59165,13.30303c-2.24499,1.55819 -4.97891,0.5912 -7.37343,0.77412c-9.08053,0.69358 -13.37561,0.13583 -17.93206,-8.5946c-0.19769,-1.52486 0.18576,-3.19862 -0.47146,-4.5887c-1.63724,-3.46282 -6.76461,-2.90045 -7.57339,-7.44423c-0.81052,-4.55343 4.50998,-9.81586 5.89826,-13.84634c0.99848,-2.89885 -0.71036,-3.98597 -1.1485,-6.5588c-0.62992,-3.69899 1.65567,-8.80434 3.03466,-12.11999c0,0 0.83083,-1.98894 2.81976,-1.15811c1.98894,0.83084 1.15811,2.81976 1.15811,2.81976c-0.94589,2.25365 -3.35464,7.17858 -2.77172,9.68361c0.71788,3.08512 2.15813,5.03735 1.03824,8.56753c-1.05122,3.31382 -5.99464,8.38972 -5.77005,11.94358c0.08238,1.30389 3.87084,2.56726 4.58868,3.22816c3.01182,2.77293 2.9526,4.48977 3.31181,8.18648c3.81744,6.88225 6.47521,6.14351 13.46769,5.58491c1.72447,-0.13775 3.67634,0.87272 5.18983,0.03474c1.6402,-0.90815 0.38485,-9.90485 1.2596,-11.7234c1.55293,-3.22848 6.4865,-4.2956 7.75698,-7.04223c1.09705,-2.37171 -1.25456,-4.23424 -2.30708,-6.212c-0.56319,-2.07851 -0.58239,-4.31338 -0.33001,-6.45198l0.57516,-1.63966c0,0 0.78834,-2.00618 2.79451,-1.21785c0.45241,0.17777 0.76274,0.4175 0.972,0.68216c1.7116,0.47199 1.46872,2.33799 1.46872,2.33799z" fill="url(#color-91)" stroke="none" stroke-width="0.5"/><path d="M180.34825,124.24513l1.09204,-8.38967l132.14692,17.2009l-1.09204,8.38967z" fill="url(#color-92)" stroke="none" stroke-width="0"/><g stroke="#000000" stroke-width="0"><path d="M240.26302,127.90538c-2.01005,15.44232 -15.84502,26.37208 -30.90126,24.41229c-15.05625,-1.9598 -25.63228,-16.06698 -23.62223,-31.50933c2.01005,-15.44232 15.84502,-26.37208 30.90126,-24.41228c15.05625,1.9598 25.63228,16.06698 23.62223,31.50933z" fill="url(#color-93)"/><g><path d="M213.36411,123.84304c-4.70426,-0.61233 -8.00867,-5.02003 -7.38065,-9.84488c0.62803,-4.82488 4.9507,-8.23977 9.65493,-7.62745c4.70426,0.61233 8.00868,5.02003 7.38065,9.84488c-0.62803,4.82488 -4.9507,8.23977 -9.65494,7.62744z" fill="#00ff4c"/><path d="M213.55422,122.38254c-3.91782,-0.50996 -6.6698,-4.18078 -6.14676,-8.19906c0.52304,-4.01825 4.12304,-6.86229 8.04084,-6.35233c3.91782,0.50996 6.6698,4.18078 6.14676,8.19906c-0.52304,4.01825 -4.12304,6.86229 -8.04084,6.35233z" fill="#000000"/></g></g><g stroke="#000000" stroke-width="0"><path d="M308.18707,136.74672c-2.01005,15.44232 -15.84503,26.37208 -30.90127,24.41229c-15.05625,-1.9598 -25.63228,-16.06698 -23.62223,-31.50933c2.01005,-15.44232 15.84502,-26.37208 30.90126,-24.41228c15.05625,1.9598 25.63228,16.06698 23.62223,31.50933z" fill="url(#color-94)"/><g><path d="M281.28817,132.68437c-4.70426,-0.61233 -8.00868,-5.02003 -7.38065,-9.84488c0.62803,-4.82488 4.9507,-8.23977 9.65494,-7.62744c4.70426,0.61233 8.00867,5.02003 7.38065,9.84488c-0.62803,4.82488 -4.9507,8.23977 -9.65493,7.62745z" fill="#00ff4c"/><path d="M281.47828,131.22387c-3.91782,-0.50996 -6.6698,-4.18078 -6.14676,-8.19906c0.52304,-4.01825 4.12304,-6.86229 8.04084,-6.35233c3.91782,0.50996 6.6698,4.18078 6.14676,8.19906c-0.52304,4.01825 -4.12304,6.86229 -8.04084,6.35233z" fill="#000000"/></g></g><path d="M236.27215,169.24334l9.8337,-72.60867l10.1262,1.53913l-9.8337,72.60867z" fill="url(#color-95)" stroke="none" stroke-width="0"/><path d="M248.2712,214.01432l5.84139,-44.87683l5.85351,0.76192l-5.84139,44.87683z" fill="url(#color-96)" stroke="none" stroke-width="0"/><path d="M219.0037,210.20471l5.84139,-44.87683l5.85351,0.76192l-5.84139,44.87683z" fill="url(#color-97)" stroke="none" stroke-width="0"/><path d="M185.31723,115.62771l-5.39331,39.09898l126.00539,16.70833l5.53973,-39.37465l8.22522,1.19819l-6.84906,48.66846l-142.23201,-19.14709l6.6176,-48.30599z" fill="url(#color-98)" stroke="none" stroke-width="0"/></g><g stroke-width="0"><g><path d="M192.2702,88.47962l-35.44638,-46.42137l3.74329,-2.88228l35.44637,46.42137z" fill="url(#color-99)" stroke="none"/><g stroke="#000000"><g fill="url(#color-100)"><path d="M178.82379,25.21657c0.58686,0.75661 15.46939,15.13707 -6.49389,31.97155c-21.66465,16.60554 -29.59936,2.12891 -32.56478,-1.50084c-12.86655,-15.7491 -18.60898,-64.4748 -18.60898,-64.4748c0,0 45.20364,17.93465 57.66766,34.00414z"/></g><g fill="url(#color-101)"><path d="M172.80963,27.90989c0.44658,0.57577 11.77176,11.51884 -4.94166,24.32942c-16.48616,12.63632 -22.52426,1.62003 -24.78081,-1.14206c-9.79109,-11.98457 -15.58862,-50.93579 -15.58862,-50.93579c0,0 35.82642,15.52002 45.31114,27.74847z"/></g></g></g><path d="M198.7606,87.79092c-0.32219,2.47527 -2.58997,4.22068 -5.06525,3.89848c-2.47527,-0.32219 -4.22068,-2.58997 -3.89848,-5.06525c0.32219,-2.47527 2.58997,-4.22068 5.06525,-3.89848c2.47527,0.32219 4.22068,2.58997 3.89848,5.06525z" fill="url(#color-102)" stroke="none"/></g><g data-paper-data="{&quot;index&quot;:null}" stroke-width="0"><g><path d="M307.9161,100.16315l46.14877,-35.80054l2.88072,3.7445l-46.14879,35.80054z" fill="url(#color-103)" stroke="none"/><g stroke="#000000"><g fill="url(#color-104)"><path d="M339.99003,46.1948c16.1624,-12.34335 64.45091,-18.10858 64.45091,-18.10858c0,0 -18.02452,45.6321 -34.49399,57.56266c-3.79577,2.74969 -15.17201,14.71273 -31.86388,-6.88551c-16.92194,-21.89597 1.14594,-31.98744 1.90697,-32.5686z"/></g><g fill="url(#color-105)"><path d="M345.1143,50.33791c12.2991,-9.39291 50.90472,-15.22455 50.90472,-15.22455c0,0 -15.57561,36.16917 -28.10838,45.24797c-2.88844,2.09239 -11.54543,11.1959 -24.24744,-5.2397c-12.8771,-16.66219 0.87206,-24.34146 1.45115,-24.78376z"/></g></g></g><path d="M309.76417,97.68189c2.47527,0.32219 4.22068,2.58997 3.89848,5.06525c-0.32219,2.47527 -2.58997,4.22068 -5.06525,3.89848c-2.47527,-0.32219 -4.22068,-2.58997 -3.89848,-5.06525c0.32219,-2.47527 2.58997,-4.22068 5.06525,-3.89848z" fill="url(#color-106)" stroke="none"/></g><g stroke-width="0"><path d="M327.18581,212.92094l-179.55793,-24.47988c0,0 -16.04145,-34.87489 -1.09791,-67.45889c17.69649,-38.58677 12.2855,-78.90699 111.05617,-65.93338c96.61696,12.74045 77.30826,47.65079 86.87671,88.994c9.41851,40.69523 -17.27703,68.87811 -17.27703,68.87811zM208.28086,157.11479c15.73987,2.04878 30.16047,-9.05008 32.20924,-24.78994c4.76919,-36.63959 -6.63881,-48.68523 -22.37867,-50.73401c-15.73987,-2.04878 -32.78276,10.64093 -34.62052,43.31471c-0.89137,15.84765 9.05008,30.16046 24.78995,32.20924zM276.76933,165.33102c15.73987,2.04878 29.83385,-10.25184 31.88263,-25.99175c2.04878,-15.73987 4.48902,-45.1114 -22.17571,-48.58221c-26.18974,-3.40899 -31.34969,25.6085 -33.39847,41.3484c-2.04878,15.73987 7.95169,31.17679 23.69155,33.22556z" fill="url(#color-107)" stroke="none"/><g><g stroke="#000000"><path d="M190.86983,180.21512c-2.88338,7.95923 -28.43193,3.55739 -58.0304,-7.16524c-29.59843,-10.7226 -55.31719,-51.21889 -55.31719,-51.21889c0,0 33.41949,19.23932 63.01791,29.96193c0,0 53.21307,20.46295 50.32968,28.42217z" fill="url(#color-108)"/><path d="M192.21232,184.65411c-1.83885,8.2633 -27.74098,7.17425 -58.47012,0.33604c-30.72916,-6.83818 -61.42899,-43.70175 -61.42899,-43.70175c0,0 35.61084,14.79456 66.34003,21.63275c0,0 55.39794,13.4696 53.55909,21.73293z" fill="url(#color-109)"/><path d="M190.3606,185.55831c-0.51361,8.44987 -26.26367,11.4565 -57.68652,9.54655c-31.42282,-1.90994 -67.54859,-33.47464 -67.54859,-33.47464c0,0 37.49742,8.99752 68.92025,10.90747c0,0 56.82844,4.57077 56.31482,13.02062z" fill="url(#color-110)"/><path d="M192.90409,189.43608c0.57428,8.44593 -24.57755,14.73009 -55.98586,16.8658c-31.4083,2.13569 -71.28372,-24.53543 -71.28372,-24.53543c0,0 38.34166,4.11434 69.74994,1.97869c0,0 56.94536,-2.75494 57.51967,5.69097z" fill="url(#color-111)"/><path d="M192.52537,184.37774c2.40112,8.11776 -20.77666,19.73226 -50.9646,28.66145c-30.18792,8.92922 -74.91743,-8.41072 -74.91743,-8.41072c0,0 38.31672,-4.34037 68.50469,-13.26958c0,0 54.9762,-15.09892 57.37736,-6.98113z" fill="url(#color-112)"/></g><g data-paper-data="{&quot;index&quot;:null}" stroke="#000000"><path d="M340.62783,177.83735c31.35708,-2.78833 68.58809,-12.83144 68.58809,-12.83144c0,0 -35.22853,32.56309 -66.58561,35.35142c-31.35709,2.78833 -57.1812,0.50329 -57.931,-7.92887c-0.7498,-8.43214 55.92849,-14.59108 55.92849,-14.59108z" fill="url(#color-113)"/><path d="M339.60308,189.07782c31.45578,1.25612 69.66732,-3.92936 69.66732,-3.92936c0,0 -39.11366,27.77628 -70.56943,26.52018c-31.45578,-1.25609 -56.7736,-6.83409 -56.4358,-15.29276c0.33777,-8.45869 57.33791,-7.29803 57.33791,-7.29803z" fill="url(#color-114)"/><path d="M341.59525,199.55338c30.8647,6.19771 69.41597,7.09906 69.41597,7.09906c0,0 -43.00233,21.265 -73.86705,15.06728c-30.86474,-6.19772 -54.98711,-15.69602 -53.32049,-23.99577c1.66661,-8.29979 57.77152,1.82942 57.77152,1.82942z" fill="url(#color-115)"/><path d="M337.43209,210.04462c29.81502,10.10482 67.93232,15.94271 67.93232,15.94271c0,0 -45.37433,15.57458 -75.18935,5.46977c-29.81504,-10.10482 -52.5201,-22.61828 -49.80282,-30.63578c2.71724,-8.01749 57.05986,9.22327 57.05986,9.22327z" fill="url(#color-116)"/><path d="M335.7118,217.46526c26.89621,16.35957 62.82511,30.36411 62.82511,30.36411c0,0 -47.67797,5.31171 -74.57417,-11.04785c-26.89624,-16.35957 -46.32848,-33.52039 -41.92927,-40.75298c4.3992,-7.23259 53.67835,21.4367 53.67835,21.4367z" fill="url(#color-117)"/></g><path d="M165.9019,165.6955c12.73029,-19.01204 27.11119,-24.962 49.5848,-22.51555c11.81452,0.95406 26.26313,5.56852 28.11653,26.03137c0.45346,5.00667 -2.0536,10.67488 -2.98144,17.80309c-3.21686,24.71373 -5.73906,44.12381 -5.73906,44.12381c0,0 -19.3248,3.61017 -37.3977,1.25771c-22.41685,-2.91789 -57.57836,-27.8778 -31.58309,-66.70042z" data-paper-data="{&quot;index&quot;:null}" fill="url(#color-118)" stroke="#000000"/><path d="M270.64248,241.91847c-18.22344,-2.37205 -36.46184,-10.54098 -36.46184,-10.54098c0,0 3.18788,-19.84962 6.37972,-44.37106c0.90158,-6.92642 1.55434,-12.70081 3.20659,-17.3511c6.99781,-19.69532 20.56638,-20.70508 32.31225,-18.58833c22.35104,3.38814 34.72961,12.82124 42.16876,34.45866c15.19078,44.18359 -25.18873,59.31072 -47.60552,56.39284z" fill="url(#color-119)" stroke="#000000"/><path d="M244.97948,150.29868c5.37779,0.7 9.33598,4.35107 8.84086,8.15486c-0.49512,3.80382 -6.85402,18.5967 -12.23186,17.89669c-5.37782,-0.7 -7.73799,-16.62782 -7.24287,-20.43162c0.49512,-3.80382 5.25606,-6.31993 10.63386,-5.61993z" fill="url(#color-120)" stroke="none"/></g></g></g></g></svg>