<svg version="1.1" xmlns="http://www.w3.org/2000/svg" xmlns:xlink="http://www.w3.org/1999/xlink" width="375.18685" height="245.15711" viewBox="0,0,375.18685,245.15711"><defs><linearGradient x1="234.68344" y1="334.76204" x2="245.61701" y2="334.76204" gradientUnits="userSpaceOnUse" id="color-1"><stop offset="0" stop-color="#7a7a7a"/><stop offset="1" stop-color="#a4a4a4"/></linearGradient><linearGradient x1="212.37512" y1="303.05414" x2="218.29558" y2="303.05414" gradientUnits="userSpaceOnUse" id="color-2"><stop offset="0" stop-color="#7a7a7a"/><stop offset="1" stop-color="#a4a4a4"/></linearGradient><linearGradient x1="260.75158" y1="303.05414" x2="266.67203" y2="303.05414" gradientUnits="userSpaceOnUse" id="color-3"><stop offset="0" stop-color="#7a7a7a"/><stop offset="1" stop-color="#a4a4a4"/></linearGradient><linearGradient x1="240.30706" y1="278.93073" x2="240.30706" y2="298.16854" gradientUnits="userSpaceOnUse" id="color-4"><stop offset="0" stop-color="#a4a4a4"/><stop offset="1" stop-color="#7a7a7a"/></linearGradient><linearGradient x1="239.79128" y1="284.62943" x2="239.79128" y2="290.29619" gradientUnits="userSpaceOnUse" id="color-5"><stop offset="0" stop-color="#6b6b6b"/><stop offset="1" stop-color="#222222"/></linearGradient><linearGradient x1="247.80508" y1="343.31234" x2="247.80508" y2="346.91523" gradientUnits="userSpaceOnUse" id="color-6"><stop offset="0" stop-color="#9a9a9a"/><stop offset="1" stop-color="#dedede"/></linearGradient><linearGradient x1="242.50668" y1="343.27969" x2="242.50668" y2="346.88258" gradientUnits="userSpaceOnUse" id="color-7"><stop offset="0" stop-color="#9a9a9a"/><stop offset="1" stop-color="#dedede"/></linearGradient><linearGradient x1="237.24091" y1="343.27969" x2="237.24091" y2="346.88258" gradientUnits="userSpaceOnUse" id="color-8"><stop offset="0" stop-color="#9a9a9a"/><stop offset="1" stop-color="#dedede"/></linearGradient><linearGradient x1="231.9425" y1="343.24703" x2="231.9425" y2="346.84992" gradientUnits="userSpaceOnUse" id="color-9"><stop offset="0" stop-color="#9a9a9a"/><stop offset="1" stop-color="#dedede"/></linearGradient><linearGradient x1="239.69647" y1="339.60208" x2="239.69647" y2="344.95725" gradientUnits="userSpaceOnUse" id="color-10"><stop offset="0" stop-color="#a4a4a4"/><stop offset="1" stop-color="#3d3d3d"/></linearGradient><linearGradient x1="247.77243" y1="348.02235" x2="247.77243" y2="351.62522" gradientUnits="userSpaceOnUse" id="color-11"><stop offset="0" stop-color="#dedede"/><stop offset="1" stop-color="#9a9a9a"/></linearGradient><linearGradient x1="242.47401" y1="348.05501" x2="242.47401" y2="351.6579" gradientUnits="userSpaceOnUse" id="color-12"><stop offset="0" stop-color="#dedede"/><stop offset="1" stop-color="#9a9a9a"/></linearGradient><linearGradient x1="237.20826" y1="348.05501" x2="237.20826" y2="351.6579" gradientUnits="userSpaceOnUse" id="color-13"><stop offset="0" stop-color="#dedede"/><stop offset="1" stop-color="#9a9a9a"/></linearGradient><linearGradient x1="231.90984" y1="348.08767" x2="231.90984" y2="351.69056" gradientUnits="userSpaceOnUse" id="color-14"><stop offset="0" stop-color="#dedede"/><stop offset="1" stop-color="#9a9a9a"/></linearGradient><linearGradient x1="239.66381" y1="349.98035" x2="239.66381" y2="355.33551" gradientUnits="userSpaceOnUse" id="color-15"><stop offset="0" stop-color="#a4a4a4"/><stop offset="1" stop-color="#3d3d3d"/></linearGradient><radialGradient cx="215.44769" cy="287.70606" r="17.62646" gradientUnits="userSpaceOnUse" id="color-16"><stop offset="0" stop-color="#ffffff"/><stop offset="1" stop-color="#c4bfb5"/></radialGradient><radialGradient cx="220.44151" cy="284.5192" r="6.55043" gradientUnits="userSpaceOnUse" id="color-17"><stop offset="0" stop-color="#ffffff"/><stop offset="1" stop-color="#ffffff" stop-opacity="0"/></radialGradient><radialGradient cx="263.57302" cy="287.89112" r="17.62646" gradientUnits="userSpaceOnUse" id="color-18"><stop offset="0" stop-color="#ffffff"/><stop offset="1" stop-color="#c5c1b7"/></radialGradient><radialGradient cx="268.31665" cy="284.5192" r="6.55043" gradientUnits="userSpaceOnUse" id="color-19"><stop offset="0" stop-color="#ffffff"/><stop offset="1" stop-color="#ffffff" stop-opacity="0"/></radialGradient><linearGradient x1="239.52358" y1="318.02985" x2="239.52358" y2="323.42083" gradientUnits="userSpaceOnUse" id="color-20"><stop offset="0" stop-color="#a4a4a4"/><stop offset="1" stop-color="#686868"/></linearGradient><radialGradient cx="272.00583" cy="269.15678" r="67.3353" gradientUnits="userSpaceOnUse" id="color-21"><stop offset="0" stop-color="#e0c297"/><stop offset="1" stop-color="#b9a17e"/></radialGradient><radialGradient cx="253.67424" cy="249.47876" r="55.6571" gradientUnits="userSpaceOnUse" id="color-22"><stop offset="0" stop-color="#634a14"/><stop offset="1" stop-color="#443014"/></radialGradient><linearGradient x1="240.47265" y1="386.49498" x2="240.47265" y2="481.47094" gradientUnits="userSpaceOnUse" id="color-23"><stop offset="0" stop-color="#a4a4a4"/><stop offset="1" stop-color="#7a7a7a"/></linearGradient><linearGradient x1="240.47265" y1="386.49498" x2="240.47265" y2="394.24293" gradientUnits="userSpaceOnUse" id="color-24"><stop offset="0" stop-color="#a4a4a4"/><stop offset="1" stop-color="#7a7a7a"/></linearGradient><linearGradient x1="240.47265" y1="382.98582" x2="240.47265" y2="397.7521" gradientUnits="userSpaceOnUse" id="color-25"><stop offset="0" stop-color="#303030"/><stop offset="1" stop-color="#4b4b4b"/></linearGradient><radialGradient cx="342.5387" cy="402.02008" r="12.82551" gradientUnits="userSpaceOnUse" id="color-26"><stop offset="0" stop-color="#7582b0"/><stop offset="1" stop-color="#485b9d"/></radialGradient><radialGradient cx="354.73438" cy="409.86038" r="27.6686" gradientUnits="userSpaceOnUse" id="color-27"><stop offset="0" stop-color="#7582b0"/><stop offset="1" stop-color="#485b9d"/></radialGradient><radialGradient cx="137.99991" cy="402.02008" r="12.82551" gradientUnits="userSpaceOnUse" id="color-28"><stop offset="0" stop-color="#7582b0"/><stop offset="1" stop-color="#485b9d"/></radialGradient><radialGradient cx="125.80423" cy="409.86038" r="27.6686" gradientUnits="userSpaceOnUse" id="color-29"><stop offset="0" stop-color="#7582b0"/><stop offset="1" stop-color="#485b9d"/></radialGradient><radialGradient cx="289.23225" cy="386.51913" r="12.75166" gradientUnits="userSpaceOnUse" id="color-30"><stop offset="0" stop-color="#7582b0"/><stop offset="1" stop-color="#485b9d"/></radialGradient><radialGradient cx="303.97457" cy="392.93301" r="28.12149" gradientUnits="userSpaceOnUse" id="color-31"><stop offset="0" stop-color="#7582b0"/><stop offset="1" stop-color="#485b9d"/></radialGradient><radialGradient cx="191.30636" cy="386.51913" r="12.75166" gradientUnits="userSpaceOnUse" id="color-32"><stop offset="0" stop-color="#7582b0"/><stop offset="1" stop-color="#485b9d"/></radialGradient><radialGradient cx="176.56404" cy="392.93301" r="28.12149" gradientUnits="userSpaceOnUse" id="color-33"><stop offset="0" stop-color="#7582b0"/><stop offset="1" stop-color="#485b9d"/></radialGradient><linearGradient x1="187.32001" y1="422.78853" x2="294.69573" y2="422.78853" gradientUnits="userSpaceOnUse" id="color-34"><stop offset="0" stop-color="#7582b0"/><stop offset="1" stop-color="#485b9d"/></linearGradient><linearGradient x1="409.98772" y1="421.78157" x2="409.98772" y2="440.12341" gradientUnits="userSpaceOnUse" id="color-35"><stop offset="0" stop-color="#e0c297"/><stop offset="1" stop-color="#b9a17e"/></linearGradient><linearGradient x1="407.29134" y1="405.4999" x2="407.29134" y2="421.13783" gradientUnits="userSpaceOnUse" id="color-36"><stop offset="0" stop-color="#e0c297"/><stop offset="1" stop-color="#b9a17e"/></linearGradient><linearGradient x1="398.31098" y1="390.57026" x2="398.31098" y2="411.2356" gradientUnits="userSpaceOnUse" id="color-37"><stop offset="0" stop-color="#e0c297"/><stop offset="1" stop-color="#b9a17e"/></linearGradient><linearGradient x1="355.78602" y1="429.2304" x2="403.37425" y2="428.35828" gradientUnits="userSpaceOnUse" id="color-38"><stop offset="0" stop-color="#e0c297"/><stop offset="1" stop-color="#b9a17e"/></linearGradient><linearGradient x1="360.54348" y1="410.43075" x2="373.23674" y2="412.78842" gradientUnits="userSpaceOnUse" id="color-39"><stop offset="0" stop-color="#e0c297"/><stop offset="1" stop-color="#b9a17e"/></linearGradient><linearGradient x1="70.55089" y1="421.78157" x2="70.55089" y2="440.12341" gradientUnits="userSpaceOnUse" id="color-40"><stop offset="0" stop-color="#e0c297"/><stop offset="1" stop-color="#b9a17e"/></linearGradient><linearGradient x1="73.24727" y1="405.4999" x2="73.24727" y2="421.13783" gradientUnits="userSpaceOnUse" id="color-41"><stop offset="0" stop-color="#e0c297"/><stop offset="1" stop-color="#b9a17e"/></linearGradient><linearGradient x1="82.22763" y1="390.57026" x2="82.22763" y2="411.2356" gradientUnits="userSpaceOnUse" id="color-42"><stop offset="0" stop-color="#e0c297"/><stop offset="1" stop-color="#b9a17e"/></linearGradient><linearGradient x1="124.75259" y1="429.2304" x2="77.16436" y2="428.35828" gradientUnits="userSpaceOnUse" id="color-43"><stop offset="0" stop-color="#e0c297"/><stop offset="1" stop-color="#b9a17e"/></linearGradient><linearGradient x1="119.99513" y1="410.43075" x2="107.30187" y2="412.78842" gradientUnits="userSpaceOnUse" id="color-44"><stop offset="0" stop-color="#e0c297"/><stop offset="1" stop-color="#b9a17e"/></linearGradient></defs><g transform="translate(-52.67588,-236.31383)"><g data-paper-data="{&quot;isPaintingLayer&quot;:true}" fill-rule="nonzero" stroke-linecap="butt" stroke-linejoin="miter" stroke-miterlimit="10" stroke-dasharray="" stroke-dashoffset="0" style="mix-blend-mode: normal"><path d="M203.59888,477.56554c0,0 1.01829,-49.80895 -1.99773,-68.84541c-2.0585,-12.99284 -14.34991,-30.07619 -14.34991,-30.07619c0,0 36.09662,-10.54746 54.16602,-10.41737c17.71552,0.12754 53.20972,11.19047 53.20972,11.19047c0,0 -14.20153,14.79371 -16.30381,26.98777c-3.2592,18.90484 -1.35166,71.16072 -1.35166,71.16072z" fill="#191919" stroke="none" stroke-width="0"/><path d="M297.15232,294.25121c0,12.15954 19.41484,23.70324 4.01866,44.8501c-16.00308,21.98047 -42.31289,26.48358 -62.13221,26.48358c-21.23917,0 -40.10389,0.08833 -60.97177,-28.13362c-14.16228,-19.15321 2.85824,-32.4469 2.85824,-43.20006c0,-31.791 26.01831,-57.5627 58.11353,-57.5627c32.09522,0 58.11353,25.7717 58.11353,57.5627z" fill="#191919" stroke="none" stroke-width="0"/><g><path d="M269.16428,330.31788c1.86753,-1.29941 3.87969,-5.6738 4.47122,-7.84173c-0.0163,-2.77073 1.82054,-6.23392 1.19568,-8.84587c-0.67618,-2.82648 -2.50897,-5.53064 -3.45486,-8.29378c-0.86027,-2.51296 -1.77854,-4.93375 -2.91329,-7.22224c0.8091,3.08106 1.19098,6.294 0.7908,8.82153c-0.53859,3.40174 -2.22838,6.6146 -1.64291,10.17885c0.81201,4.94341 4.26034,6.33911 1.70543,11.67735c-0.5199,0.90403 -1.10956,1.62597 -1.7575,2.20248c0.57332,-0.1227 1.1158,-0.33594 1.60539,-0.67659zM265.53642,288.38449c4.35253,4.51467 6.776,9.93467 8.78082,15.84656c0.97285,2.86874 2.92848,5.69133 3.55889,8.65482c0.69258,3.25567 -1.1248,6.72263 -1.14222,10.0397c-0.83647,3.01297 -3.1895,8.27014 -5.81562,10.07536c-2.99362,2.05783 -6.68947,1.13421 -9.93179,0.75311c-6.07003,-0.71346 -12.0869,0.22196 -17.87394,1.6924c-0.34745,0.00205 -0.69488,0.00375 -1.0423,0.00517l0.23109,1.56257c0,0 -0.49469,1.53693 -1.97873,1.02462c-0.92671,-0.31992 -1.08185,-1.03937 -1.06767,-1.53463c-0.37245,-0.23771 -0.74721,-0.4652 -1.12259,-0.68518c-0.43889,0.19389 -1.20971,0.34562 -1.83961,-0.52417c-0.01544,-0.02131 -0.03026,-0.04251 -0.04452,-0.06364c-0.2703,-0.15146 -0.53321,-0.40377 -0.659,-0.82415c-0.23372,-0.12639 -0.46612,-0.25225 -0.69683,-0.37821c0.63317,1.11294 1.18048,2.29221 2.35058,3.06207l1.00603,0.77829c0,0 1.25147,0.97204 0.31287,2.26809c-0.9386,1.29605 -2.19005,0.32401 -2.19005,0.32401l-0.8643,-0.67445c-1.9192,-1.36926 -2.39366,-3.7359 -3.96015,-5.07481c-0.70934,-0.60631 -1.83273,-0.16525 -2.75066,-0.22505c-1.95683,-0.12748 -5.13054,-0.18556 -6.74662,-1.5809c-2.34214,-2.02224 -2.29212,-6.8866 -4.17427,-9.4994c-5.14973,-0.31948 -9.54015,-4.73362 -8.5231,-10.43764c0.25257,-1.41662 1.41639,-2.49429 1.91987,-3.83719c1.04932,-2.79889 -1.50998,-6.80073 -1.92124,-9.39367c-0.55518,-3.50044 0.97392,-6.06829 2.89802,-8.50896c0.07417,-0.19959 0.15077,-0.40149 0.22944,-0.60597c0,0 0.31804,-0.82342 1.07176,-1.00812c-0.00839,-0.18889 -0.01332,-0.37864 -0.0147,-0.56932c0,0 0,-1.62006 1.56432,-1.62006c1.56432,0 1.56433,1.62006 1.56433,1.62006c-0.05459,5.83619 3.8811,9.38098 7.11589,13.48666c0.7382,0.93697 1.74859,3.22269 1.97689,4.38349c0.21157,1.07579 -0.57327,3.33233 0.47097,4.19673c1.51024,1.25014 5.13178,1.17226 6.21763,2.81862c1.22757,1.86122 0.98667,4.4007 1.71795,6.52362c1.4279,2.41239 2.26863,4.66744 3.01416,7.36969l0.21372,0.65913c0,0 0.4947,1.53693 -0.98935,2.04924c-1.48406,0.51232 -1.97873,-1.02462 -1.97873,-1.02462l-0.25388,-0.79361c-0.70515,-2.55599 -1.49358,-4.57348 -2.83021,-6.86589c-0.65349,-1.89323 -0.42592,-4.09059 -1.32178,-5.8743c-0.37701,-0.75065 -5.03573,-1.59225 -5.93954,-2.50806c-2.25531,-2.28526 -0.80884,-4.91307 -1.97753,-7.50994c-0.8071,-1.79342 -2.40341,-2.73896 -3.57158,-4.3106c-1.66519,-2.24035 -3.14634,-4.67536 -4.05478,-7.31238c-0.46574,1.61835 -0.49322,3.13254 0.72596,4.9026c0.89207,1.29514 2.31039,2.21727 2.95766,3.66003c1.32245,2.94768 -0.6238,8.55257 2.21101,10.86577c3.55807,2.9034 7.43776,4.6722 9.3298,9.22783c0.5998,4.15711 2.86785,6.14815 5.67673,7.7759h0.53217c1.98464,0.08721 3.83531,-1.39192 5.64475,-2.26626c3.31834,-1.60346 6.75084,-2.79265 9.69574,-5.08548c2.17962,-2.03046 1.3857,-7.31049 2.09203,-10.11492c0.60693,-2.40969 2.59879,-3.34071 4.09138,-5.00877c1.64583,-1.83932 3.15425,-4.67628 3.95426,-6.98965c1.50112,-4.34077 -0.38368,-8.82872 -0.3902,-13.22332c0,0 0,-1.62006 1.56432,-1.62006c1.24928,0 1.50088,1.03322 1.55154,1.4494c0.78937,-0.18037 1.42494,0.47785 1.42494,0.47785zM257.65032,330.03933c3.18187,0 7.20938,0.51062 8.90762,-2.77622c1.91326,-3.91939 -1.33719,-5.63738 -2.03523,-9.62946c-0.68754,-3.93205 1.01654,-7.38886 1.63018,-11.12794c0.41315,-2.51743 -0.16838,-6.11289 -1.18552,-9.27894c0.06353,1.72625 -0.07651,3.46912 -0.67405,5.27041c-0.88611,2.67113 -2.68542,5.87738 -4.55391,7.98074c-0.93483,1.05234 -3.08142,2.10542 -3.38997,3.70765c-0.78147,4.05787 -0.18414,8.54472 -3.05138,11.67613c-1.55459,1.20517 -3.70129,2.65492 -6.04847,3.99528c3.38138,-0.13853 6.82976,0.18234 10.40074,0.18234zM226.68632,323.86464c-1.56241,-3.79804 -5.64534,-5.153 -8.43836,-7.72077c-2.84099,-2.61184 -2.27647,-6.80048 -2.59861,-10.21483c-0.20047,-2.12491 -1.37345,-2.75801 -2.46848,-4.09071c0.46244,1.32274 0.97542,2.6423 1.13402,3.95811c0.62107,5.15271 -5.36802,12.08222 2.59693,14.37217c0.78795,0.22654 1.61767,0.24914 2.4265,0.3737c1.98105,2.24988 2.81494,3.84109 3.78489,6.70898c0.35148,1.03922 0.05988,2.52122 0.92493,3.16144c1.70022,1.25832 4.25725,0.68587 6.47976,0.78545c-1.94549,-1.6647 -3.38698,-3.85217 -3.84158,-7.33354z" fill="#000000" stroke="none" stroke-width="0.5"/><path d="M234.68344,386.58595v-103.64784h10.93357v103.5194z" fill="url(#color-1)" stroke="none" stroke-width="0"/><path d="M212.37512,323.17018v-40.23207h5.92046v40.18221z" fill="url(#color-2)" stroke="none" stroke-width="0"/><path d="M260.75158,323.17018v-40.23207h5.92046v40.18221z" fill="url(#color-3)" stroke="none" stroke-width="0"/><path d="M206.39915,298.16854v-19.23778h67.81583v19.23778z" fill="url(#color-4)" stroke="none" stroke-width="0"/><path d="M195.41807,290.29619v-5.6668h88.74645v5.6668z" fill="url(#color-5)" stroke="none" stroke-width="0"/><g stroke="none" stroke-width="0"><path d="M245.58793,346.91523v-3.60289h4.43432v3.60289z" fill="url(#color-6)"/><path d="M240.28952,346.88258v-3.60289h4.43433v3.60289z" fill="url(#color-7)"/><path d="M235.02376,346.88258v-3.60289h4.43432v3.60289z" fill="url(#color-8)"/><path d="M229.72535,346.84992v-3.60289h4.43432v3.60289z" fill="url(#color-9)"/><path d="M226.11858,344.95725v-5.35516h27.15579v5.35516z" fill="url(#color-10)"/></g><g data-paper-data="{&quot;index&quot;:null}" stroke="none" stroke-width="0"><path d="M249.9896,348.02235v3.60289h-4.43432v-3.60289z" fill="url(#color-11)"/><path d="M244.69118,348.05501v3.60289h-4.43432v-3.60289z" fill="url(#color-12)"/><path d="M239.42543,348.05501v3.60289h-4.43432v-3.60289z" fill="url(#color-13)"/><path d="M234.12701,348.08767v3.60289h-4.43432v-3.60289z" fill="url(#color-14)"/><path d="M253.24171,349.98035v5.35516h-27.15579v-5.35516z" fill="url(#color-15)"/></g><g stroke-width="0"><g><path d="M232.98603,287.70606c0,9.73483 -7.85218,17.62646 -17.53833,17.62646c-9.68615,0 -17.53833,-7.89164 -17.53833,-17.62646c0,-9.73483 7.85218,-17.62646 17.53833,-17.62646c9.68615,0 17.53833,7.89164 17.53833,17.62646z" fill="url(#color-16)" stroke="#000000"/><path d="M221.38948,287.78933c0,3.6177 -2.73277,6.55043 -6.10381,6.55043c-3.37104,0 -6.1038,-2.93273 -6.1038,-6.55043c0,-3.6177 2.73276,-6.55042 6.1038,-6.55042c3.37104,0 6.10381,2.93272 6.10381,6.55042z" fill="#000000" stroke="none"/></g><path d="M226.54531,284.5192c0,3.6177 -2.73277,6.55043 -6.10381,6.55043c-3.37104,0 -6.1038,-2.93273 -6.1038,-6.55043c0,-3.6177 2.73276,-6.55042 6.1038,-6.55042c3.37104,0 6.10381,2.93272 6.10381,6.55042z" fill="url(#color-17)" stroke="none"/></g><g stroke-width="0"><g><path d="M281.11137,287.89112c0,9.73483 -7.85218,17.62646 -17.53833,17.62646c-9.68615,0 -17.53833,-7.89164 -17.53833,-17.62646c0,-9.73483 7.85218,-17.62646 17.53833,-17.62646c9.68615,0 17.53833,7.89164 17.53833,17.62646z" fill="url(#color-18)" stroke="#000000"/><path d="M269.51481,287.9744c0,3.6177 -2.73277,6.55043 -6.1038,6.55043c-3.37104,0 -6.1038,-2.93273 -6.1038,-6.55043c0,-3.6177 2.73276,-6.55042 6.1038,-6.55042c3.37104,0 6.1038,2.93272 6.1038,6.55042z" fill="#000000" stroke="none"/></g><path d="M274.42045,284.5192c0,3.6177 -2.73277,6.55043 -6.10381,6.55043c-3.37104,0 -6.1038,-2.93273 -6.1038,-6.55043c0,-3.6177 2.73276,-6.55042 6.1038,-6.55042c3.37104,0 6.10381,2.93272 6.10381,6.55042z" fill="url(#color-19)" stroke="none"/></g><path d="M212.37512,323.42083v-5.39099h54.29692v5.3843z" fill="url(#color-20)" stroke="none" stroke-width="0"/></g><g stroke="none" stroke-width="0"><g><path d="M297.15232,294.25121c0,12.15954 19.41484,23.70324 4.01868,44.8501c-16.00308,21.98047 -42.31289,26.48358 -62.13221,26.48358c-21.23917,0 -40.10389,0.08833 -60.97177,-28.13362c-14.16228,-19.15321 2.85824,-32.4469 2.85824,-43.20006c0,-31.791 26.01831,-57.5627 58.11353,-57.5627c32.09522,0 58.11353,25.7717 58.11353,57.5627zM239.62335,356.61662c12.07368,0.2263 23.2282,-4.36635 31.3143,-9.89094c-0.06129,0.37969 -0.12607,0.74453 -0.01273,0.92534c0.85429,1.36285 2.15833,0.06405 2.72206,1.92036l-0.03326,0.29638c0,0 0,0.64803 0.64803,0.64803c0.64803,0 0.64803,-0.64803 0.64803,-0.64803l-0.03326,-0.70624c-0.27316,-0.7718 -0.78351,-1.7931 -1.62006,-2.14836c-0.36012,-0.15293 -1.22103,0.44644 -1.1723,0.05823c0.05316,-0.42363 0.08283,-0.8263 0.0543,-1.18897c7.22907,-5.21773 11.70878,-11.07216 11.70878,-14.43392c0,-1.24177 -0.63643,-1.78729 -1.80492,-1.84101c0.55309,-1.72386 1.37607,-3.71373 -0.26356,-4.40133c-0.86883,-0.36436 -2.50633,0.17033 -2.85193,1.10267c-0.1918,0.51746 0.82669,1.39671 0.32365,1.62368c-0.2033,0.09172 -1.70993,0.1252 -2.00524,0.50131c-0.1829,0.23294 -0.02019,0.83651 -0.31629,0.83029c-0.57819,0.57819 -0.754,1.26165 -1.0828,1.87491c-8.16894,2.9487 -21.58601,9.11125 -35.45102,9.08448c-28.70598,-0.05538 -42.61366,-15.38025 -42.61366,-8.22236c0,1.39183 0.69178,3.15641 1.97942,5.09939c-1.10863,0.10344 -2.0903,0.13654 -3.45555,-0.36422c-0.9695,-0.3556 -1.85627,0.31453 -2.62065,-0.01923c-0.03459,-0.18658 -0.16249,-0.53141 -0.63519,-0.53141c-0.64803,0 -0.64803,0.64803 -0.64803,0.64803l0.28857,0.78985c2.16246,1.27463 5.22901,0.81104 7.90694,0.65307c5.99666,7.9129 20.96758,18.00154 39.02642,18.34002zM215.50589,307.12054c10.73683,0 19.44075,-8.70392 19.44075,-19.44075c0,-10.73683 -8.70392,-19.44075 -19.44075,-19.44075c-10.73683,0 -19.44075,8.70392 -19.44075,19.44075c0,10.73683 8.70392,19.44075 19.44075,19.44075zM264.3363,307.41828c10.73683,0 19.44075,-8.70392 19.44075,-19.44075c0,-10.73683 -8.70392,-19.44075 -19.44075,-19.44075c-10.73683,0 -19.44075,8.70392 -19.44075,19.44075c0,10.73683 8.70392,19.44075 19.44075,19.44075z" fill="url(#color-21)"/><path d="M239.34432,236.31383c25.44832,0 47.23277,14.90097 56.21132,36.01874c-1.88718,-1.72573 -3.90179,-3.33016 -6.05353,-4.80032c-2.63431,-4.03584 -5.88149,-4.80351 -10.48445,-4.80351c-1.09313,0 -2.64021,0.3639 -4.08893,0.44321c-0.97381,-0.21489 -1.94783,-0.42014 -2.92143,-0.62054c-0.28574,-0.21952 -0.52591,-0.50724 -0.70637,-0.87976c-1.47782,-2.01925 -3.66927,-1.28912 -5.94275,-2.16754c-5.17763,-2.00052 -10.73223,-1.96319 -16.29044,-1.29901c-1.57107,-0.19279 -3.1408,-0.35663 -4.71214,-0.49342c-1.71164,-1.1007 -3.30231,-3.06471 -5.14891,-3.92645c-2.82836,-1.3199 -4.86008,1.09838 -7.00273,2.03103c-1.08133,0.47067 -2.49027,0.62362 -3.6536,1.21802c-4.09521,0.49276 -8.43383,-0.21665 -12.49062,0.47048c-0.69842,0.11829 -4.41799,0.94398 -4.94579,0.42803c-1.74231,-1.70314 -3.12898,-1.59951 -5.40356,-0.18979c-2.96369,4.49381 -7.64386,5.19493 -12.306,7.12474c-0.08813,-0.50393 -0.63614,-0.50393 -0.63614,-0.50393c-2.16339,0.0388 -5.52018,2.34577 -8.03615,4.53641c9.79097,-19.2821 30.56597,-32.58636 54.61221,-32.58636z" fill="url(#color-22)"/></g><path d="M263.20309,263.10566c6.99854,-0.23106 13.69779,3.20597 13.74523,4.64318c0.04745,1.4372 -6.46993,-1.24346 -13.46849,-1.0124c-6.99854,0.23106 -12.86283,0.89381 -12.86283,0.89381c0,0 5.58753,-4.29353 12.58609,-4.52459z" fill="#000000"/><path d="M217.20274,266.1696c-6.99854,-0.23106 -13.51592,2.4496 -13.46848,1.0124c0.04745,-1.4372 6.74669,-4.87424 13.74523,-4.64318c6.99854,0.23106 12.63353,3.0874 12.58609,4.5246c0,0 -5.8643,-0.66276 -12.86284,-0.89382z" data-paper-data="{&quot;index&quot;:null}" fill="#000000"/></g><g stroke="none"><path d="M238.64565,392.83761c0.50157,-0.33438 0.94093,-0.35771 1.29494,-0.25517l-0.01112,-1.40471c0,0 0,-1.62006 1.62006,-1.62006c1.62006,0 1.62006,1.62006 1.62006,1.62006l-0.01566,1.52988c0.17896,0.62636 0.33007,1.33712 0.43394,2.08846l0.27134,0.94969c0.26496,0.92874 0.46263,1.85723 0.61006,2.78525c2.65173,5.7041 1.9607,13.26195 1.95717,19.28957c-0.01573,0.16967 -0.03196,0.33915 -0.04863,0.50848c1.82232,4.39235 4.49554,8.60675 4.8096,13.35414c0.30795,4.65508 -2.82619,8.56547 -2.26842,13.16069c0.21845,1.79973 4.66032,8.96516 6.47192,7.43272c1.60818,-1.64461 4.02775,-3.45247 4.6343,-5.82564c0.57155,-2.23622 -0.98721,-4.78804 -1.28109,-6.92371c-0.15318,-1.11326 0.16078,-5.01838 0.27339,-5.58687c0.65348,-3.29902 3.31083,-5.718 4.94709,-8.49103c0.0689,-0.11676 0.13637,-0.2332 0.20244,-0.34931c-0.48874,-3.79346 -1.52041,-7.50015 -3.29816,-10.96645c-1.65165,-4.39741 -4.88585,-9.77778 -3.05835,-14.69948c2.78355,-7.49651 11.36308,-7.8777 17.79591,-10.03676c0.34568,-0.11602 0.685,-0.22656 1.01928,-0.32953c0.17511,-0.065 0.34978,-0.12664 0.52375,-0.18486c0.3522,-0.11786 0.71136,-0.19907 1.07594,-0.24922c2.12844,-0.48209 4.1338,-0.48476 6.40937,0.59362c0,0 0.51607,0.25804 0.77825,0.77412c1.1292,0.36357 2.22225,0.68987 3.23813,0.82571c0,0 1.60378,0.22912 1.37467,1.83289c-0.22912,1.60378 -1.83289,1.37467 -1.83289,1.37467c-2.38489,-0.35787 -6.69109,-2.71233 -9.41429,-2.24302c-0.241,0.06382 -0.48314,0.13526 -0.72707,0.21145c-3.51602,1.41499 -8.08319,4.34345 -8.57288,8.37488c-0.40881,3.36554 0.99154,6.76225 1.01229,10.10009c0,5.48267 -0.42691,10.08597 -2.81667,14.916c1.8208,12.70115 -2.01489,26.17253 -12.67178,33.79114c-5.54936,3.12711 -8.67143,-4.1452 -11.29868,-8.21534c-5.96641,-9.24317 -1.75245,-21.9477 -0.62216,-32.2144c-0.21367,-0.52557 -0.41148,-1.05159 -0.5869,-1.57858c-1.07243,-4.89352 -0.49913,-9.77964 -0.80704,-14.68291c-0.64699,0.4238 -1.37401,0.77741 -1.70082,1.44703c-0.62428,1.27914 -0.23631,3.60358 -0.33442,4.69144c-0.27211,3.01709 -1.79209,5.37069 -1.7467,8.36263c0,3.19439 1.43443,10.05589 -0.8071,12.72806c-0.63653,0.75881 -1.44703,1.17585 -2.35223,1.33272c-1.94652,1.55085 -4.7267,2.22269 -5.1328,4.99531c-0.61702,4.21267 3.46448,5.17048 4.68127,8.45239c1.38429,3.7337 0.01283,7.94436 -3.30978,9.81267c-6.55982,4.7113 -16.64902,2.68339 -17.86632,-6.56588c-0.44014,-3.34419 3.78908,-8.87816 2.3697,-11.83747c-1.4371,-2.99626 -4.60055,-5.43394 -6.19801,-8.62847c-2.85915,-5.08148 -1.1296,-10.74019 -1.92536,-16.29621c-0.63333,-4.42185 -2.32405,-8.60815 -3.90808,-12.67361c-0.95024,-2.4388 -1.61479,-6.04841 -4.54803,-6.48858c-0.47578,0.26122 -0.96693,0.532 -1.50234,0.80061c0,0 -1.44902,0.72451 -2.17354,-0.72452c-0.72451,-1.44902 0.72451,-2.17354 0.72451,-2.17354c0.15614,-0.07779 0.31482,-0.15496 0.47584,-0.23137c0.37311,-0.94228 1.50194,-0.94228 1.50194,-0.94228c0.20886,0.00857 0.41173,0.02254 0.60885,0.04178c6.70138,-2.55213 15.73472,-3.16398 17.76982,6.00441c1.04403,4.70355 -1.17893,7.96064 2.65711,11.83225c3.96927,2.25141 6.5542,5.48036 7.1416,10.11312c0.32038,2.52687 -0.41056,5.02188 1.02665,7.37239c0.66496,1.08753 1.43355,1.55216 2.50039,2.23954c0.24661,0.15888 2.36357,1.1121 3.71273,1.54033c1.14488,-3.61063 -0.40721,-8.73572 -1.17304,-12.20147c-0.39903,-3.94684 -1.96076,-9.23967 -0.97976,-13.16175c0.69335,-2.77204 3.06521,-6.03538 4.84395,-8.18458l0.04619,-0.18868c0,0 0.70974,-1.41947 2.1292,-0.74611c0.10725,-0.13135 0.24692,-0.25899 0.42641,-0.37865zM244.17222,439.55419c0,2.69564 -0.28126,5.53191 1.06302,8.0112c1.46341,2.69902 3.43797,5.12723 5.34314,7.51189c1.10352,1.38127 1.20911,2.79882 2.58365,1.44143c0.48987,-0.34958 0.96855,-0.71945 1.43751,-1.10496c-3.75908,-0.20636 -6.53691,-4.33892 -8.24292,-7.88694c-2.59205,-5.39077 1.95647,-10.30024 1.59694,-15.64226c-0.17454,-2.59354 -1.16541,-5.09892 -2.30939,-7.57185c-0.69704,5.0457 -1.47195,10.04244 -1.47195,15.2415zM263.81141,439.70405c0.46889,-3.12509 0.74205,-6.32523 0.70335,-9.51261c-1.053,1.38405 -2.03857,2.82846 -2.33364,4.44899c-0.54171,2.97506 0.61608,5.83237 1.06052,8.67563c0.24357,-1.27083 0.40662,-2.52463 0.56977,-3.61203zM260.88156,400.46718c-1.51659,3.98521 1.64552,8.86736 2.95737,12.37129c1.04809,2.14232 1.91021,4.39244 2.5786,6.7063c0.7156,-2.85309 0.83337,-5.74772 0.83337,-9.06658c0.02701,-3.46354 -1.44192,-6.93424 -0.99294,-10.45364c0.25874,-2.02828 1.22363,-3.91306 2.59014,-5.55549c-3.47319,1.02165 -6.66712,2.5836 -7.96652,5.99815zM239.29405,396.71662l-0.56554,-0.84099l-0.19554,0.34973c-1.47503,1.75593 -3.6096,4.57294 -4.17965,6.85473c-0.74986,3.0016 0.32581,7.17933 0.84147,10.49767c0.45801,-1.70932 1.07126,-3.33654 1.23339,-5.26445c0.19997,-2.37808 -0.42754,-3.65586 0.6682,-5.83608c0.59152,-1.17698 2.1122,-1.6362 2.87823,-2.70782c0.29597,-0.41405 0.46401,-0.96733 0.54245,-1.58664c-0.36057,-0.51921 -0.76643,-1.00956 -1.22302,-1.46613zM206.45062,397.0748c1.66361,4.28641 3.44611,8.73805 4.11289,13.39454c0.71669,5.00503 -1.02616,10.80153 1.58381,15.28634c1.56761,3.13557 5.13927,5.84056 6.33476,8.91741c1.69311,4.35757 -2.71241,8.53475 -2.14209,12.72675c0.9445,6.94222 8.35303,7.54393 12.94133,4.16062c5.83942,-2.66289 -0.58372,-7.77237 -1.97799,-10.55803c-0.4995,-0.99796 -1.04341,-4.52701 -0.88871,-5.465c0.25488,-1.54544 1.59032,-3.70267 2.81476,-4.74448c0.26397,-0.22459 0.58159,-0.40907 0.92241,-0.57836c-2.50235,-1.12574 -4.83126,-3.07554 -5.77481,-4.60252c-2.3946,-3.87528 -0.50813,-8.45088 -2.56027,-12.37676c-1.03635,-1.98261 -2.9562,-3.15889 -4.81212,-4.22686c-1.73251,-1.72213 -3.24057,-3.49809 -3.85992,-5.96427c-0.61739,-2.4583 0.4791,-5.30165 0,-7.77031c-0.92809,-4.78224 -6.68897,-5.96852 -10.51988,-5.0396c1.85668,1.59542 2.77798,4.14061 3.82585,6.84054z" fill="#303030" stroke-width="0.5"/><path d="M231.98762,481.47094v-94.97596h16.97007v94.97596z" fill="url(#color-23)" stroke-width="0"/><path d="M189.62689,394.24293v-7.74793h101.69153v7.74793z" fill="url(#color-24)" stroke-width="0"/><path d="M204.41555,397.7521v-14.76628h72.11422v14.76628z" fill="url(#color-25)" stroke-width="0"/></g><g data-paper-data="{&quot;index&quot;:null}" stroke="none" stroke-width="0"><path d="M335.27228,418.68432c-5.7146,-4.21027 -7.00366,-12.16159 -2.87916,-17.75976c4.12449,-5.59816 12.10064,-6.72327 17.81525,-2.513c5.71461,4.21027 7.00367,12.16158 2.87918,17.75975c-4.12449,5.59815 -12.10064,6.72327 -17.81525,2.513z" fill="url(#color-26)"/><path d="M376.91857,446.96188l-42.18535,-27.17103l16.22864,-22.02712l38.65693,32.08935z" fill="url(#color-27)"/></g><g data-paper-data="{&quot;index&quot;:null}" stroke="none" stroke-width="0"><path d="M145.26633,418.68431c-5.71461,4.21028 -13.69076,3.08516 -17.81525,-2.513c-4.1245,-5.59817 -2.83543,-13.54948 2.87918,-17.75975c5.71461,-4.21028 13.69076,-3.08517 17.81525,2.513c4.1245,5.59817 2.83543,13.54949 -2.87916,17.75976z" fill="url(#color-28)"/><path d="M90.91983,429.85308l38.65693,-32.08935l16.22864,22.02712l-42.18535,27.17103z" fill="url(#color-29)"/></g><g data-paper-data="{&quot;index&quot;:null}" stroke="none" stroke-width="0"><path d="M288.87119,406.20901c-6.8265,-1.94475 -10.81607,-8.94247 -8.91094,-15.62987c1.90512,-6.6874 8.98349,-10.53209 15.81001,-8.58734c6.8265,1.94475 10.81607,8.94249 8.91095,15.62989c-1.90512,6.6874 -8.98349,10.53209 -15.81001,8.58734z" fill="url(#color-30)"/><path d="M336.95497,421.16601l-48.20158,-13.73178l7.49608,-26.31294l48.20158,13.73178z" fill="url(#color-31)"/></g><g data-paper-data="{&quot;index&quot;:null}" stroke="none" stroke-width="0"><path d="M191.6674,406.20902c-6.8265,1.94475 -13.90488,-1.89993 -15.81001,-8.58734c-1.90512,-6.6874 2.08445,-13.68514 8.91095,-15.62989c6.8265,-1.94475 13.90488,1.89993 15.81001,8.58734c1.90512,6.6874 -2.08445,13.68512 -8.91094,15.62987z" fill="url(#color-32)"/><path d="M136.08756,394.85305l48.20158,-13.73178l7.49608,26.31294l-48.20158,13.73178z" fill="url(#color-33)"/></g><g stroke="none"><path d="M203.42553,477.58008c0,0 1.26041,-50.05107 -1.75562,-69.08752c-2.0585,-12.99284 -14.34991,-30.07619 -14.34991,-30.07619c0,0 36.09662,-10.54746 54.16602,-10.41737c17.71552,0.12754 53.2097,11.19047 53.2097,11.19047c0,0 -14.20153,14.79371 -16.30381,26.98777c-3.2592,18.90484 -1.10954,71.40284 -1.10954,71.40284z" fill="url(#color-34)" stroke-width="0"/><g stroke-width="0.5"><path d="M209.83384,430.722c-0.13872,-1.45149 1.31277,-1.59021 1.31277,-1.59021l0.86384,-0.08256c1.8343,-0.15113 2.78319,-0.94184 4.56293,-1.40955c2.81527,-0.73985 6.05624,-0.49461 8.9703,-0.96277c3.38626,-0.54402 6.64714,-1.50173 10.08567,-1.95904c0.17427,-0.00643 0.34851,-0.01371 0.52274,-0.02185c-3.11806,-2.74599 -6.47565,-5.18609 -9.61315,-7.90613c-1.76865,1.41017 -3.69728,2.62501 -5.43233,4.08201c0,0 -1.11749,0.93663 -2.05412,-0.18088c-0.93663,-1.11749 0.18088,-2.05411 0.18088,-2.05411c1.63352,-1.36666 3.44281,-2.52375 5.12117,-3.83316c-2.21428,-2.12004 -4.23779,-4.35968 -6.66767,-6.29336c-1.57838,-1.25605 -3.53338,-2.29471 -5.03659,-3.61796c-0.68885,-0.60637 -1.96274,-1.07922 -1.89769,-1.99463c0.07907,-1.11291 1.18709,-2.0794 2.21754,-2.50714c0.86774,-0.36022 1.86887,0.22448 2.78561,0.43025c0.04871,0.01093 5.11692,1.50044 5.36922,1.57455c3.91923,1.51053 7.6735,2.51128 11.75422,3.28468c0.22103,0.04189 0.44143,0.08706 0.66127,0.13517c3.66296,-3.92318 7.28115,-7.89905 11.38828,-11.33786c1.16437,-1.11751 4.48614,-4.73902 6.49282,-4.18931c2.57954,0.70662 2.81918,7.05916 3.01343,9.08171c0.37177,3.87095 -0.00446,7.69823 -0.09085,11.55164c3.02102,0.53984 6.03051,1.14055 8.97148,2.00557c1.47597,0.09838 5.92844,0.6565 6.59574,2.15777c0.39769,0.8947 -0.42919,1.94743 -0.93957,2.783c-1.16918,1.91407 -4.50048,2.9781 -6.39387,3.871c-2.38281,1.12371 -4.84364,1.76297 -7.34216,2.34019c0.05835,0.77363 0.10336,1.54824 0.12727,2.32449c1.37265,4.86798 2.45613,10.66898 2.9792,15.73327c0.26739,2.58887 1.34785,7.26417 -3.44157,5.05733c-0.96377,-0.44408 -1.4367,-1.56753 -2.06628,-2.42173c-1.72761,-2.34393 -2.71888,-5.26883 -4.43136,-7.64519c-2.61463,-3.62824 -5.95799,-6.78248 -9.31076,-9.73457c-1.05769,0.11222 -2.12787,0.19162 -3.21598,0.23101c-3.36945,0.45386 -6.54279,1.38782 -9.86266,1.93141c-2.79386,0.45747 -6.0338,0.16158 -8.70628,0.907c-1.86734,0.52084 -3.02861,1.27997 -5.01941,1.4902l-0.86383,0.08256c0,0 -1.4515,0.13872 -1.59021,-1.31277zM242.85299,426.85979c3.58874,3.31422 6.92271,6.90526 9.44721,11.10679c1.00163,1.66699 1.87778,3.51257 2.93504,5.14887c-0.15023,-1.21882 -0.1361,-2.60006 -0.22296,-3.04086c-0.85837,-4.3556 -1.34783,-8.97979 -2.53054,-13.22102c-0.02939,-0.70663 -0.07351,-1.41171 -0.12735,-2.11578c-0.33713,0.0791 -0.67466,0.15997 -1.01249,0.24363c-2.8599,0.70827 -5.65215,1.38391 -8.4889,1.87837zM251.49668,410.42467c0.12337,-2.21426 0.34282,-4.42549 0.28501,-6.63933c-0.05751,-2.20264 -0.28284,-4.52653 -0.64094,-6.69816c-0.09665,-0.58605 -0.21557,-1.16825 -0.31639,-1.75359c-0.106,-0.61544 -0.27163,-1.22503 -0.30408,-1.84869c-0.0004,-0.00776 0,-0.01621 0.00111,-0.02525c-0.74577,1.11589 -2.80595,2.37781 -3.64362,3.18697c-3.64988,3.06213 -6.91773,6.54355 -10.17438,10.03537c2.68516,0.85163 5.33213,1.90017 8.06703,2.48655c2.22278,0.47658 4.47273,0.86717 6.72625,1.25612zM251.42177,413.37142c-2.39784,-0.41538 -4.79384,-0.82615 -7.16162,-1.33165c-3.30809,-0.70626 -6.49249,-2.10169 -9.76646,-2.99437c-1.86915,1.98637 -3.76201,3.94595 -5.74781,5.80242c3.74549,3.2249 7.79491,6.06627 11.35956,9.52619c4.03799,-0.46225 8.05384,-1.30897 12.006,-2.3258c-0.2818,-2.80899 -0.61687,-5.61357 -0.68514,-8.45013c-0.00183,-0.07555 -0.00332,-0.15111 -0.00452,-0.22665zM226.57444,412.88709c1.58341,-1.46674 3.10579,-3.00146 4.60225,-4.56534c-3.7763,-0.75627 -7.32067,-1.74679 -10.98786,-3.16441c-0.26494,-0.07753 -1.99414,-0.58335 -3.37825,-0.98896c1.50088,1.06865 2.95107,2.21231 4.35425,3.40463c1.94586,1.65347 3.58331,3.55877 5.4096,5.31408zM254.35219,413.88823c0.08284,2.47759 0.37534,4.93409 0.62755,7.39191c0.86993,-0.24127 1.73624,-0.48835 2.59845,-0.7389c2.38565,-0.69326 4.80236,-1.76649 6.9874,-2.94941c0.5102,-0.27621 0.92469,-0.70995 1.37705,-1.0779c-1.06095,-0.10546 -2.41065,-0.66723 -3.13732,-0.71567c-2.77558,-0.81135 -5.60804,-1.3925 -8.45311,-1.91003z" fill="#ad9600"/><path d="M211.83847,429.94101c-0.12949,-1.35477 1.2253,-1.48425 1.2253,-1.48425l0.80627,-0.07706c1.7121,-0.14108 2.59776,-0.87908 4.25891,-1.31563c2.62769,-0.69055 5.65271,-0.46165 8.37261,-0.89862c3.16064,-0.50777 6.20426,-1.40168 9.41368,-1.82852c0.16265,-0.006 0.32528,-0.0128 0.4879,-0.0204c-2.91031,-2.56304 -6.04418,-4.84057 -8.97263,-7.37936c-1.65082,1.31622 -3.45095,2.45012 -5.07038,3.81004c0,0 -1.04305,0.87422 -1.91726,-0.16882c-0.87421,-1.04305 0.16882,-1.91726 0.16882,-1.91726c1.52467,-1.27561 3.21341,-2.3556 4.77995,-3.57776c-2.06675,-1.97878 -3.95543,-4.0692 -6.22341,-5.87404c-1.47322,-1.17237 -3.29796,-2.14183 -4.70102,-3.3769c-0.64294,-0.56597 -1.83197,-1.00732 -1.77126,-1.86172c0.07381,-1.03876 1.10801,-1.94085 2.06979,-2.34011c0.80993,-0.33621 1.74435,0.20953 2.60001,0.40159c0.04547,0.01021 4.77598,1.40046 5.01148,1.46963c3.6581,1.4099 7.16222,2.34396 10.97105,3.06583c0.20631,0.0391 0.41201,0.08126 0.61721,0.12616c3.4189,-3.66178 6.79602,-7.37275 10.6295,-10.58243c1.0868,-1.04305 4.18721,-4.42326 6.06021,-3.9102c2.40767,0.65953 2.63134,6.58881 2.81266,8.47661c0.34699,3.61303 -0.00416,7.18532 -0.0848,10.78197c2.81973,0.50388 5.62869,1.06455 8.37372,1.87194c1.37764,0.09181 5.53343,0.61276 6.15628,2.014c0.37119,0.8351 -0.4006,1.81768 -0.87697,2.59757c-1.09127,1.78654 -4.20063,2.77968 -5.96786,3.61309c-2.22405,1.04884 -4.52091,1.6455 -6.85296,2.18427c0.05446,0.72208 0.09647,1.44506 0.1188,2.1696c1.2812,4.54363 2.29248,9.95812 2.7807,14.68499c0.24958,2.41639 1.25805,6.78017 -3.21226,4.72037c-0.89955,-0.41449 -1.34096,-1.46311 -1.9286,-2.26039c-1.61249,-2.18776 -2.53773,-4.91777 -4.13611,-7.13579c-2.44042,-3.3865 -5.56101,-6.33057 -8.69039,-9.08597c-0.98723,0.10475 -1.98609,0.17885 -3.00172,0.21561c-3.14496,0.42361 -6.10685,1.29536 -9.20552,1.80273c-2.6077,0.42697 -5.63177,0.15081 -8.1262,0.84657c-1.74292,0.48614 -2.82683,1.1947 -4.68498,1.39091l-0.80629,0.07705c0,0 -1.35477,0.12948 -1.48426,-1.2253zM242.65759,426.33614c3.34963,3.0934 6.46146,6.44518 8.81776,10.36676c0.93489,1.55592 1.75266,3.27853 2.73947,4.80581c-0.14022,-1.13762 -0.12703,-2.42682 -0.20811,-2.83825c-0.80118,-4.06539 -1.25802,-8.38149 -2.36193,-12.34013c-0.02744,-0.65956 -0.06861,-1.31764 -0.11886,-1.9748c-0.31467,0.07382 -0.6297,0.14932 -0.94502,0.2274c-2.66936,0.66109 -5.27556,1.2917 -7.9233,1.75321zM250.72536,410.99606c0.11514,-2.06673 0.31998,-4.13063 0.26603,-6.19695c-0.05368,-2.05587 -0.26401,-4.22494 -0.59824,-6.25187c-0.09019,-0.54701 -0.2012,-1.09041 -0.29531,-1.63676c-0.09894,-0.57445 -0.25353,-1.1434 -0.28382,-1.72551c-0.00038,-0.00724 -0.00001,-0.01512 0.00104,-0.02356c-0.69608,1.04154 -2.61899,2.21937 -3.40086,2.97463c-3.40669,2.8581 -6.45679,6.10756 -9.49647,9.36672c2.50625,0.79489 4.97686,1.77357 7.52953,2.32088c2.07468,0.44482 4.17472,0.8094 6.27809,1.17242zM250.65544,413.74649c-2.23806,-0.38771 -4.47443,-0.77111 -6.68446,-1.24293c-3.08767,-0.6592 -6.0599,-1.96165 -9.11574,-2.79485c-1.74461,1.85403 -3.51135,3.68304 -5.36484,5.4158c3.49593,3.01002 7.27555,5.66209 10.60268,8.89147c3.76894,-0.43146 7.51722,-1.22177 11.20606,-2.17085c-0.26302,-2.62183 -0.57577,-5.23954 -0.6395,-7.88711c-0.0017,-0.07052 -0.00311,-0.14102 -0.00421,-0.21154zM227.46366,413.29441c1.47791,-1.36902 2.89885,-2.80149 4.2956,-4.26117c-3.5247,-0.70588 -6.83291,-1.63041 -10.25576,-2.95357c-0.24729,-0.07237 -1.86128,-0.54448 -3.15316,-0.92306c1.40089,0.99744 2.75444,2.06489 4.06413,3.17779c1.81622,1.5433 3.34457,3.32166 5.04918,4.96001zM253.39061,414.22886c0.07732,2.31252 0.35034,4.60533 0.58574,6.89939c0.81198,-0.22519 1.62054,-0.45581 2.42531,-0.68967c2.22669,-0.64707 4.48238,-1.64881 6.52183,-2.7529c0.47622,-0.25781 0.86308,-0.66263 1.28529,-1.00607c-0.99025,-0.09842 -2.25002,-0.62278 -2.92828,-0.66798c-2.59065,-0.7573 -5.23438,-1.29973 -7.8899,-1.78277z" fill="#ffdf00"/></g></g><g stroke="none" stroke-width="0"><path d="M426.09248,439.21854c-6.68543,3.01872 -10.08774,-2.31064 -19.0122,-4.3845c-8.92449,-2.07387 -16.00689,-3.14326 -14.84176,-9.42448c1.1151,-6.01137 11.93133,-3.20298 20.85582,-1.12913c8.9245,2.07385 18.88944,9.75291 12.99814,14.93811z" fill="url(#color-35)"/><path d="M425.38309,413.46815c-4.46466,5.82013 -9.98192,2.73184 -18.82678,5.12253c-8.84488,2.39068 -15.59169,4.79585 -17.5338,-1.29011c-1.85869,-5.82453 9.00049,-8.46211 17.84535,-10.8528c8.84488,-2.39068 21.25604,-0.33364 18.51519,7.02038z" fill="url(#color-36)"/><path d="M398.69438,405.75919c-8.05433,4.36752 -14.06387,8.26491 -17.35817,2.79146c-3.15278,-5.23831 6.80447,-10.31093 14.85879,-14.67846c8.05433,-4.36752 20.60518,-5.23047 19.63561,2.55759c-3.00085,6.69345 -9.08192,4.96189 -17.13623,9.32941z" fill="url(#color-37)"/><path d="M391.63351,443.31583c-8.5143,7.34482 -14.0172,14.42872 -27.15925,-0.79689c-12.57747,-14.57149 -4.84063,-20.05003 3.67363,-27.39486c8.5143,-7.34482 13.05892,-16.47898 27.15925,0.79689c12.99901,15.9265 4.84063,20.05003 -3.67363,27.39486z" fill="url(#color-38)"/><path d="M367.60894,429.85674c-7.33005,2.8043 -9.49431,-9.58862 -7.18014,-18.45381c2.31416,-8.86522 4.85779,-19.74679 10.69816,-17.93853c6.10253,1.88945 3.75578,8.65677 1.44162,17.52199c-2.31416,8.86522 0.82173,14.35556 -4.95962,18.87037z" data-paper-data="{&quot;index&quot;:null}" fill="url(#color-39)"/></g><g data-paper-data="{&quot;index&quot;:null}" stroke="none" stroke-width="0"><path d="M67.44427,424.28042c8.92447,-2.07384 19.74072,-4.88223 20.85582,1.12913c1.16514,6.28122 -5.91727,7.35061 -14.84176,9.42448c-8.92446,2.07385 -12.32679,7.40321 -19.0122,4.3845c-5.8913,-5.1852 4.07365,-12.86426 12.99814,-14.93811z" fill="url(#color-40)"/><path d="M55.15555,413.46815c-2.74085,-7.35402 9.67031,-9.41106 18.51519,-7.02038c8.84487,2.39069 19.70405,5.02827 17.84535,10.8528c-1.94211,6.08597 -8.68891,3.6808 -17.5338,1.29011c-8.84487,-2.39069 -14.36212,0.69761 -18.82678,-5.12253z" fill="url(#color-41)"/><path d="M64.708,396.42978c-0.96958,-7.78807 11.58128,-6.92511 19.63561,-2.55759c8.05433,4.36752 18.01157,9.44014 14.85879,14.67846c-3.2943,5.47345 -9.30384,1.57606 -17.35817,-2.79146c-8.05433,-4.36752 -14.13538,-2.63596 -17.13623,-9.32941z" fill="url(#color-42)"/><path d="M85.23147,415.92097c14.10033,-17.27588 18.64495,-8.14171 27.15925,-0.79689c8.51426,7.34483 16.2511,12.82337 3.67363,27.39486c-13.14205,15.22562 -18.64495,8.14171 -27.15925,0.79689c-8.51426,-7.34483 -16.67264,-11.46836 -3.67363,-27.39486z" fill="url(#color-43)"/><path d="M112.92967,429.85676c-5.78136,-4.51482 -2.64546,-10.00516 -4.95962,-18.87037c-2.31416,-8.86522 -4.66091,-15.63254 1.44162,-17.52199c5.84037,-1.80826 8.38399,9.07331 10.69816,17.93853c2.31416,8.86519 0.1499,21.25813 -7.18014,18.45381z" data-paper-data="{&quot;index&quot;:null}" fill="url(#color-44)"/></g></g></g></svg>