<svg version="1.1" xmlns="http://www.w3.org/2000/svg" xmlns:xlink="http://www.w3.org/1999/xlink" width="561.96962" height="412.74232" viewBox="0,0,561.96962,412.74232"><defs><linearGradient x1="240.00005" y1="-34.60652" x2="240.00005" y2="33.01949" gradientUnits="userSpaceOnUse" id="color-1"><stop offset="0" stop-color="#303030"/><stop offset="1" stop-color="#0b0b0b"/></linearGradient><linearGradient x1="240.00005" y1="44.74799" x2="240.00005" y2="315.25201" gradientUnits="userSpaceOnUse" id="color-2"><stop offset="0" stop-color="#303030"/><stop offset="1" stop-color="#afafaf"/></linearGradient><linearGradient x1="121.98778" y1="142.05806" x2="121.98778" y2="212.95109" gradientUnits="userSpaceOnUse" id="color-3"><stop offset="0" stop-color="#7e7e7e"/><stop offset="1" stop-color="#575757"/></linearGradient><linearGradient x1="121.98778" y1="145.1984" x2="121.98778" y2="209.81075" gradientUnits="userSpaceOnUse" id="color-4"><stop offset="0" stop-color="#8f8f8f"/><stop offset="1" stop-color="#6a6a6a"/></linearGradient><linearGradient x1="121.98778" y1="152.45809" x2="121.98778" y2="158.18963" gradientUnits="userSpaceOnUse" id="color-5"><stop offset="0" stop-color="#c5c5c5"/><stop offset="1" stop-color="#848484"/></linearGradient><radialGradient cx="121.98778" cy="155.32386" r="2.3289" gradientUnits="userSpaceOnUse" id="color-6"><stop offset="0" stop-color="#c5c5c5"/><stop offset="1" stop-color="#959595"/></radialGradient><linearGradient x1="121.98778" y1="161.86862" x2="121.98778" y2="167.60015" gradientUnits="userSpaceOnUse" id="color-7"><stop offset="0" stop-color="#c5c5c5"/><stop offset="1" stop-color="#848484"/></linearGradient><radialGradient cx="121.98778" cy="164.73438" r="2.3289" gradientUnits="userSpaceOnUse" id="color-8"><stop offset="0" stop-color="#c5c5c5"/><stop offset="1" stop-color="#959595"/></radialGradient><linearGradient x1="121.98778" y1="171.27914" x2="121.98778" y2="177.01067" gradientUnits="userSpaceOnUse" id="color-9"><stop offset="0" stop-color="#c5c5c5"/><stop offset="1" stop-color="#848484"/></linearGradient><radialGradient cx="121.98778" cy="174.14491" r="2.3289" gradientUnits="userSpaceOnUse" id="color-10"><stop offset="0" stop-color="#c5c5c5"/><stop offset="1" stop-color="#959595"/></radialGradient><linearGradient x1="121.98778" y1="180.68966" x2="121.98778" y2="186.4212" gradientUnits="userSpaceOnUse" id="color-11"><stop offset="0" stop-color="#c5c5c5"/><stop offset="1" stop-color="#848484"/></linearGradient><radialGradient cx="121.98778" cy="183.55543" r="2.3289" gradientUnits="userSpaceOnUse" id="color-12"><stop offset="0" stop-color="#c5c5c5"/><stop offset="1" stop-color="#959595"/></radialGradient><linearGradient x1="121.98778" y1="196.81952" x2="121.98778" y2="202.55106" gradientUnits="userSpaceOnUse" id="color-13"><stop offset="0" stop-color="#c5c5c5"/><stop offset="1" stop-color="#848484"/></linearGradient><radialGradient cx="121.98778" cy="199.68529" r="2.3289" gradientUnits="userSpaceOnUse" id="color-14"><stop offset="0" stop-color="#c5c5c5"/><stop offset="1" stop-color="#959595"/></radialGradient><linearGradient x1="112.30749" y1="152.45809" x2="112.30749" y2="158.18963" gradientUnits="userSpaceOnUse" id="color-15"><stop offset="0" stop-color="#c5c5c5"/><stop offset="1" stop-color="#848484"/></linearGradient><radialGradient cx="112.30749" cy="155.32386" r="2.32891" gradientUnits="userSpaceOnUse" id="color-16"><stop offset="0" stop-color="#c5c5c5"/><stop offset="1" stop-color="#959595"/></radialGradient><linearGradient x1="112.30749" y1="161.86862" x2="112.30749" y2="167.60015" gradientUnits="userSpaceOnUse" id="color-17"><stop offset="0" stop-color="#c5c5c5"/><stop offset="1" stop-color="#848484"/></linearGradient><radialGradient cx="112.30749" cy="164.73438" r="2.32891" gradientUnits="userSpaceOnUse" id="color-18"><stop offset="0" stop-color="#c5c5c5"/><stop offset="1" stop-color="#959595"/></radialGradient><linearGradient x1="112.30749" y1="171.27914" x2="112.30749" y2="177.01067" gradientUnits="userSpaceOnUse" id="color-19"><stop offset="0" stop-color="#c5c5c5"/><stop offset="1" stop-color="#848484"/></linearGradient><radialGradient cx="112.30749" cy="174.14491" r="2.32891" gradientUnits="userSpaceOnUse" id="color-20"><stop offset="0" stop-color="#c5c5c5"/><stop offset="1" stop-color="#959595"/></radialGradient><linearGradient x1="112.30749" y1="180.68966" x2="112.30749" y2="186.4212" gradientUnits="userSpaceOnUse" id="color-21"><stop offset="0" stop-color="#c5c5c5"/><stop offset="1" stop-color="#848484"/></linearGradient><radialGradient cx="112.30749" cy="183.55543" r="2.32891" gradientUnits="userSpaceOnUse" id="color-22"><stop offset="0" stop-color="#c5c5c5"/><stop offset="1" stop-color="#959595"/></radialGradient><linearGradient x1="131.66805" y1="152.45809" x2="131.66805" y2="158.18963" gradientUnits="userSpaceOnUse" id="color-23"><stop offset="0" stop-color="#c5c5c5"/><stop offset="1" stop-color="#848484"/></linearGradient><radialGradient cx="131.66805" cy="155.32386" r="2.3289" gradientUnits="userSpaceOnUse" id="color-24"><stop offset="0" stop-color="#c5c5c5"/><stop offset="1" stop-color="#959595"/></radialGradient><linearGradient x1="131.66805" y1="161.86862" x2="131.66805" y2="167.60015" gradientUnits="userSpaceOnUse" id="color-25"><stop offset="0" stop-color="#c5c5c5"/><stop offset="1" stop-color="#848484"/></linearGradient><radialGradient cx="131.66805" cy="164.73438" r="2.3289" gradientUnits="userSpaceOnUse" id="color-26"><stop offset="0" stop-color="#c5c5c5"/><stop offset="1" stop-color="#959595"/></radialGradient><linearGradient x1="131.66805" y1="171.27914" x2="131.66805" y2="177.01067" gradientUnits="userSpaceOnUse" id="color-27"><stop offset="0" stop-color="#c5c5c5"/><stop offset="1" stop-color="#848484"/></linearGradient><radialGradient cx="131.66805" cy="174.14491" r="2.3289" gradientUnits="userSpaceOnUse" id="color-28"><stop offset="0" stop-color="#c5c5c5"/><stop offset="1" stop-color="#959595"/></radialGradient><linearGradient x1="131.66805" y1="180.68966" x2="131.66805" y2="186.4212" gradientUnits="userSpaceOnUse" id="color-29"><stop offset="0" stop-color="#c5c5c5"/><stop offset="1" stop-color="#848484"/></linearGradient><radialGradient cx="131.66805" cy="183.55543" r="2.3289" gradientUnits="userSpaceOnUse" id="color-30"><stop offset="0" stop-color="#c5c5c5"/><stop offset="1" stop-color="#959595"/></radialGradient><linearGradient x1="239.48769" y1="100.33813" x2="239.48769" y2="296.65815" gradientUnits="userSpaceOnUse" id="color-31"><stop offset="0" stop-color="#959595"/><stop offset="1" stop-color="#2d2d2d"/></linearGradient><linearGradient x1="241.20831" y1="288.79959" x2="241.20831" y2="369.65135" gradientUnits="userSpaceOnUse" id="color-32"><stop offset="0" stop-color="#6c6c6c"/><stop offset="1" stop-color="#303030"/></linearGradient><linearGradient x1="0.4411" y1="44.74799" x2="0.4411" y2="315.25201" gradientUnits="userSpaceOnUse" id="color-33"><stop offset="0" stop-color="#303030"/><stop offset="1" stop-color="#959595"/></linearGradient><linearGradient x1="479.5608" y1="44.74799" x2="479.5608" y2="315.25201" gradientUnits="userSpaceOnUse" id="color-34"><stop offset="0" stop-color="#303030"/><stop offset="1" stop-color="#959595"/></linearGradient><linearGradient x1="240.00005" y1="35" x2="240.00005" y2="85" gradientUnits="userSpaceOnUse" id="color-35"><stop offset="0" stop-color="#424242"/><stop offset="1" stop-color="#787878"/></linearGradient><radialGradient cx="280.34725" cy="42.73715" r="49" gradientUnits="userSpaceOnUse" id="color-36"><stop offset="0" stop-color="#454545"/><stop offset="1" stop-color="#000000"/></radialGradient></defs><g transform="translate(40.98478,43.09097)"><g data-paper-data="{&quot;isPaintingLayer&quot;:true}" fill-rule="nonzero" stroke-linecap="butt" stroke-linejoin="miter" stroke-miterlimit="10" stroke-dasharray="" stroke-dashoffset="0" style="mix-blend-mode: normal"><path d="M136.68946,316.25018v-227.58273h204.62482v227.58273z" fill="#000000" stroke="none" stroke-width="0"/><path d="M-40.98478,26.78092v-69.87189h561.96962v69.87189z" fill="url(#color-1)" stroke="none" stroke-width="0"/><path d="M30.88345,290.29776v-279.48756h418.23316v279.48756h-130.75418l-0.00606,-182.1843l-155.61979,0.04569l-0.113,181.63952z" fill="url(#color-2)" stroke="none" stroke-width="0"/><g stroke="none" stroke-width="0"><path d="M101.76448,212.95109v-70.89303h40.44658v70.89303z" fill="url(#color-3)"/><path d="M103.55614,209.81075v-64.61235h36.86326v64.61235z" fill="url(#color-4)"/><g><path d="M124.79391,155.32386c0,1.58272 -1.25635,2.86577 -2.80613,2.86577c-1.54978,0 -2.80613,-1.28305 -2.80613,-2.86577c0,-1.58272 1.25635,-2.86577 2.80613,-2.86577c1.54978,0 2.80613,1.28305 2.80613,2.86577z" fill="url(#color-5)"/><path d="M124.26822,155.32386c0,1.28622 -1.02099,2.3289 -2.28044,2.3289c-1.25945,0 -2.28044,-1.04268 -2.28044,-2.3289c0,-1.28622 1.02099,-2.3289 2.28044,-2.3289c1.25945,0 2.28044,1.04268 2.28044,2.3289z" fill="url(#color-6)"/></g><g><path d="M124.79391,164.73438c0,1.58272 -1.25635,2.86577 -2.80613,2.86577c-1.54978,0 -2.80613,-1.28305 -2.80613,-2.86577c0,-1.58272 1.25635,-2.86577 2.80613,-2.86577c1.54978,0 2.80613,1.28305 2.80613,2.86577z" fill="url(#color-7)"/><path d="M124.26822,164.73438c0,1.28622 -1.02099,2.3289 -2.28044,2.3289c-1.25945,0 -2.28044,-1.04268 -2.28044,-2.3289c0,-1.28622 1.02099,-2.3289 2.28044,-2.3289c1.25945,0 2.28044,1.04268 2.28044,2.3289z" fill="url(#color-8)"/></g><g><path d="M124.79391,174.14491c0,1.58272 -1.25635,2.86577 -2.80613,2.86577c-1.54978,0 -2.80613,-1.28305 -2.80613,-2.86577c0,-1.58272 1.25635,-2.86577 2.80613,-2.86577c1.54978,0 2.80613,1.28305 2.80613,2.86577z" fill="url(#color-9)"/><path d="M124.26822,174.14491c0,1.28622 -1.02099,2.3289 -2.28044,2.3289c-1.25945,0 -2.28044,-1.04268 -2.28044,-2.3289c0,-1.28622 1.02099,-2.3289 2.28044,-2.3289c1.25945,0 2.28044,1.04268 2.28044,2.3289z" fill="url(#color-10)"/></g><g><path d="M124.79391,183.55543c0,1.58272 -1.25635,2.86577 -2.80613,2.86577c-1.54978,0 -2.80613,-1.28305 -2.80613,-2.86577c0,-1.58272 1.25635,-2.86577 2.80613,-2.86577c1.54978,0 2.80613,1.28305 2.80613,2.86577z" fill="url(#color-11)"/><path d="M124.26822,183.55543c0,1.28622 -1.02099,2.3289 -2.28044,2.3289c-1.25945,0 -2.28044,-1.04268 -2.28044,-2.3289c0,-1.28622 1.02099,-2.32891 2.28044,-2.32891c1.25945,0 2.28044,1.04269 2.28044,2.32891z" fill="url(#color-12)"/></g><g><path d="M124.79391,199.68529c0,1.58272 -1.25635,2.86577 -2.80613,2.86577c-1.54978,0 -2.80613,-1.28305 -2.80613,-2.86577c0,-1.58272 1.25635,-2.86577 2.80613,-2.86577c1.54978,0 2.80613,1.28305 2.80613,2.86577z" fill="url(#color-13)"/><path d="M124.26822,199.68529c0,1.28622 -1.02099,2.3289 -2.28044,2.3289c-1.25945,0 -2.28044,-1.04268 -2.28044,-2.3289c0,-1.28622 1.02099,-2.3289 2.28044,-2.3289c1.25945,0 2.28044,1.04268 2.28044,2.3289z" fill="url(#color-14)"/></g><g><path d="M115.11362,155.32386c0,1.58272 -1.25635,2.86577 -2.80613,2.86577c-1.54978,0 -2.80613,-1.28305 -2.80613,-2.86577c0,-1.58272 1.25635,-2.86577 2.80613,-2.86577c1.54978,0 2.80613,1.28305 2.80613,2.86577z" fill="url(#color-15)"/><path d="M114.58793,155.32386c0,1.28622 -1.02099,2.3289 -2.28044,2.3289c-1.25945,0 -2.28044,-1.04268 -2.28044,-2.3289c0,-1.28622 1.02099,-2.3289 2.28044,-2.3289c1.25945,0 2.28044,1.04268 2.28044,2.3289z" fill="url(#color-16)"/></g><g><path d="M115.11362,164.73438c0,1.58272 -1.25635,2.86577 -2.80613,2.86577c-1.54978,0 -2.80613,-1.28305 -2.80613,-2.86577c0,-1.58272 1.25635,-2.86577 2.80613,-2.86577c1.54978,0 2.80613,1.28305 2.80613,2.86577z" fill="url(#color-17)"/><path d="M114.58793,164.73438c0,1.28622 -1.02099,2.3289 -2.28044,2.3289c-1.25945,0 -2.28044,-1.04268 -2.28044,-2.3289c0,-1.28622 1.02099,-2.3289 2.28044,-2.3289c1.25945,0 2.28044,1.04268 2.28044,2.3289z" fill="url(#color-18)"/></g><g><path d="M115.11362,174.14491c0,1.58272 -1.25635,2.86577 -2.80613,2.86577c-1.54978,0 -2.80613,-1.28305 -2.80613,-2.86577c0,-1.58272 1.25635,-2.86577 2.80613,-2.86577c1.54978,0 2.80613,1.28305 2.80613,2.86577z" fill="url(#color-19)"/><path d="M114.58793,174.14491c0,1.28622 -1.02099,2.3289 -2.28044,2.3289c-1.25945,0 -2.28044,-1.04268 -2.28044,-2.3289c0,-1.28622 1.02099,-2.3289 2.28044,-2.3289c1.25945,0 2.28044,1.04268 2.28044,2.3289z" fill="url(#color-20)"/></g><g><path d="M115.11362,183.55543c0,1.58272 -1.25635,2.86577 -2.80613,2.86577c-1.54978,0 -2.80613,-1.28305 -2.80613,-2.86577c0,-1.58272 1.25635,-2.86577 2.80613,-2.86577c1.54978,0 2.80613,1.28305 2.80613,2.86577z" fill="url(#color-21)"/><path d="M114.58793,183.55543c0,1.28622 -1.02099,2.3289 -2.28044,2.3289c-1.25945,0 -2.28044,-1.04268 -2.28044,-2.3289c0,-1.28622 1.02099,-2.32891 2.28044,-2.32891c1.25945,0 2.28044,1.04269 2.28044,2.32891z" fill="url(#color-22)"/></g><g><path d="M134.47418,155.32386c0,1.58272 -1.25635,2.86577 -2.80613,2.86577c-1.54978,0 -2.80613,-1.28305 -2.80613,-2.86577c0,-1.58272 1.25635,-2.86577 2.80613,-2.86577c1.54978,0 2.80613,1.28305 2.80613,2.86577z" fill="url(#color-23)"/><path d="M133.94849,155.32386c0,1.28622 -1.02099,2.3289 -2.28044,2.3289c-1.25945,0 -2.28044,-1.04268 -2.28044,-2.3289c0,-1.28622 1.02099,-2.3289 2.28044,-2.3289c1.25945,0 2.28044,1.04268 2.28044,2.3289z" fill="url(#color-24)"/></g><g><path d="M134.47418,164.73438c0,1.58272 -1.25635,2.86577 -2.80613,2.86577c-1.54978,0 -2.80613,-1.28305 -2.80613,-2.86577c0,-1.58272 1.25635,-2.86577 2.80613,-2.86577c1.54978,0 2.80613,1.28305 2.80613,2.86577z" fill="url(#color-25)"/><path d="M133.94849,164.73438c0,1.28622 -1.02099,2.3289 -2.28044,2.3289c-1.25945,0 -2.28044,-1.04268 -2.28044,-2.3289c0,-1.28622 1.02099,-2.3289 2.28044,-2.3289c1.25945,0 2.28044,1.04268 2.28044,2.3289z" fill="url(#color-26)"/></g><g><path d="M134.47418,174.14491c0,1.58272 -1.25635,2.86577 -2.80613,2.86577c-1.54978,0 -2.80613,-1.28305 -2.80613,-2.86577c0,-1.58272 1.25635,-2.86577 2.80613,-2.86577c1.54978,0 2.80613,1.28305 2.80613,2.86577z" fill="url(#color-27)"/><path d="M133.94849,174.14491c0,1.28622 -1.02099,2.3289 -2.28044,2.3289c-1.25945,0 -2.28044,-1.04268 -2.28044,-2.3289c0,-1.28622 1.02099,-2.3289 2.28044,-2.3289c1.25945,0 2.28044,1.04268 2.28044,2.3289z" fill="url(#color-28)"/></g><g><path d="M134.47418,183.55543c0,1.58272 -1.25635,2.86577 -2.80613,2.86577c-1.54978,0 -2.80613,-1.28305 -2.80613,-2.86577c0,-1.58272 1.25635,-2.86577 2.80613,-2.86577c1.54978,0 2.80613,1.28305 2.80613,2.86577z" fill="url(#color-29)"/><path d="M133.94849,183.55543c0,1.28622 -1.02099,2.3289 -2.28044,2.3289c-1.25945,0 -2.28044,-1.04268 -2.28044,-2.3289c0,-1.28622 1.02099,-2.32891 2.28044,-2.32891c1.25945,0 2.28044,1.04269 2.28044,2.32891z" fill="url(#color-30)"/></g></g><path d="M152.81805,296.65815l-1,-196.32002h175.33926v196.32002h-10.55959l-0.20363,-186.0844l-153.52726,-0.75349l0.07782,186.83788z" fill="url(#color-31)" stroke="none" stroke-width="0"/><path d="M-38.48844,369.65135v-80.85176h559.39351v80.85176z" fill="url(#color-32)" stroke="none" stroke-width="0"/><path d="M-31.00125,362.16599v-387.2899l62.8847,35.93412v279.48756z" fill="url(#color-33)" stroke="none" stroke-width="0"/><path d="M448.11858,290.29776v-279.48756l62.8847,-35.93412v387.2899z" data-paper-data="{&quot;index&quot;:null}" fill="url(#color-34)" stroke="none" stroke-width="0"/><path d="M188.50005,85v-50h103v50z" fill="url(#color-35)" stroke="none" stroke-width="0"/><path d="M191.00005,83.05825v-46.1165h98v46.1165z" fill="url(#color-36)" stroke="none" stroke-width="0"/><text transform="translate(195.15478,64.7865) scale(0.39797,0.39797)" font-size="40" xml:space="preserve" fill="#07ff00" fill-rule="nonzero" stroke="#0cff00" stroke-width="2" stroke-linecap="butt" stroke-linejoin="miter" stroke-miterlimit="10" stroke-dasharray="" stroke-dashoffset="0" font-family="Malgun Gothic" font-weight="normal" text-anchor="start" style="mix-blend-mode: normal"><tspan x="0" dy="0">FLOOR -1</tspan></text></g></g></svg>