<svg version="1.1" xmlns="http://www.w3.org/2000/svg" xmlns:xlink="http://www.w3.org/1999/xlink" width="433.34181" height="283.15711" viewBox="0,0,433.34181,283.15711"><defs><linearGradient x1="233.81762" y1="271.02177" x2="246.44592" y2="271.02177" gradientUnits="userSpaceOnUse" id="color-1"><stop offset="0" stop-color="#7a7a7a"/><stop offset="1" stop-color="#a4a4a4"/></linearGradient><linearGradient x1="208.05145" y1="234.39906" x2="214.8896" y2="234.39906" gradientUnits="userSpaceOnUse" id="color-2"><stop offset="0" stop-color="#7a7a7a"/><stop offset="1" stop-color="#a4a4a4"/></linearGradient><linearGradient x1="263.92639" y1="234.39906" x2="270.76452" y2="234.39906" gradientUnits="userSpaceOnUse" id="color-3"><stop offset="0" stop-color="#7a7a7a"/><stop offset="1" stop-color="#a4a4a4"/></linearGradient><linearGradient x1="240.31291" y1="206.53646" x2="240.31291" y2="228.75618" gradientUnits="userSpaceOnUse" id="color-4"><stop offset="0" stop-color="#a4a4a4"/><stop offset="1" stop-color="#7a7a7a"/></linearGradient><linearGradient x1="239.71719" y1="213.11848" x2="239.71719" y2="219.6636" gradientUnits="userSpaceOnUse" id="color-5"><stop offset="0" stop-color="#6b6b6b"/><stop offset="1" stop-color="#222222"/></linearGradient><linearGradient x1="248.97315" y1="280.89739" x2="248.97315" y2="285.05874" gradientUnits="userSpaceOnUse" id="color-6"><stop offset="0" stop-color="#9a9a9a"/><stop offset="1" stop-color="#dedede"/></linearGradient><linearGradient x1="242.85348" y1="280.85968" x2="242.85348" y2="285.02103" gradientUnits="userSpaceOnUse" id="color-7"><stop offset="0" stop-color="#9a9a9a"/><stop offset="1" stop-color="#dedede"/></linearGradient><linearGradient x1="236.7715" y1="280.85968" x2="236.7715" y2="285.02103" gradientUnits="userSpaceOnUse" id="color-8"><stop offset="0" stop-color="#9a9a9a"/><stop offset="1" stop-color="#dedede"/></linearGradient><linearGradient x1="230.65182" y1="280.82196" x2="230.65182" y2="284.98331" gradientUnits="userSpaceOnUse" id="color-9"><stop offset="0" stop-color="#9a9a9a"/><stop offset="1" stop-color="#dedede"/></linearGradient><linearGradient x1="239.60768" y1="276.61203" x2="239.60768" y2="282.79727" gradientUnits="userSpaceOnUse" id="color-10"><stop offset="0" stop-color="#a4a4a4"/><stop offset="1" stop-color="#3d3d3d"/></linearGradient><linearGradient x1="248.93544" y1="286.33747" x2="248.93544" y2="290.49879" gradientUnits="userSpaceOnUse" id="color-11"><stop offset="0" stop-color="#dedede"/><stop offset="1" stop-color="#9a9a9a"/></linearGradient><linearGradient x1="242.81575" y1="286.37519" x2="242.81575" y2="290.53654" gradientUnits="userSpaceOnUse" id="color-12"><stop offset="0" stop-color="#dedede"/><stop offset="1" stop-color="#9a9a9a"/></linearGradient><linearGradient x1="236.73379" y1="286.37519" x2="236.73379" y2="290.53654" gradientUnits="userSpaceOnUse" id="color-13"><stop offset="0" stop-color="#dedede"/><stop offset="1" stop-color="#9a9a9a"/></linearGradient><linearGradient x1="230.6141" y1="286.41291" x2="230.6141" y2="290.57426" gradientUnits="userSpaceOnUse" id="color-14"><stop offset="0" stop-color="#dedede"/><stop offset="1" stop-color="#9a9a9a"/></linearGradient><linearGradient x1="239.56996" y1="288.59896" x2="239.56996" y2="294.78419" gradientUnits="userSpaceOnUse" id="color-15"><stop offset="0" stop-color="#a4a4a4"/><stop offset="1" stop-color="#3d3d3d"/></linearGradient><radialGradient cx="211.60028" cy="216.67199" r="20.35861" gradientUnits="userSpaceOnUse" id="color-16"><stop offset="0" stop-color="#ffffff"/><stop offset="1" stop-color="#c4bfb5"/></radialGradient><radialGradient cx="217.36815" cy="212.99116" r="7.56576" gradientUnits="userSpaceOnUse" id="color-17"><stop offset="0" stop-color="#ffffff"/><stop offset="1" stop-color="#ffffff" stop-opacity="0"/></radialGradient><radialGradient cx="267.18516" cy="216.88574" r="20.35861" gradientUnits="userSpaceOnUse" id="color-18"><stop offset="0" stop-color="#ffffff"/><stop offset="1" stop-color="#c5c1b7"/></radialGradient><radialGradient cx="272.66406" cy="212.99116" r="7.56576" gradientUnits="userSpaceOnUse" id="color-19"><stop offset="0" stop-color="#ffffff"/><stop offset="1" stop-color="#ffffff" stop-opacity="0"/></radialGradient><linearGradient x1="239.40799" y1="251.69605" x2="239.40799" y2="257.92265" gradientUnits="userSpaceOnUse" id="color-20"><stop offset="0" stop-color="#a4a4a4"/><stop offset="1" stop-color="#686868"/></linearGradient><radialGradient cx="276.92508" cy="195.24752" r="77.77245" gradientUnits="userSpaceOnUse" id="color-21"><stop offset="0" stop-color="#e0c297"/><stop offset="1" stop-color="#b9a17e"/></radialGradient><radialGradient cx="255.75204" cy="172.51936" r="64.2841" gradientUnits="userSpaceOnUse" id="color-22"><stop offset="0" stop-color="#634a14"/><stop offset="1" stop-color="#443014"/></radialGradient><linearGradient x1="240.50417" y1="330.77346" x2="240.50417" y2="440.47094" gradientUnits="userSpaceOnUse" id="color-23"><stop offset="0" stop-color="#a4a4a4"/><stop offset="1" stop-color="#7a7a7a"/></linearGradient><linearGradient x1="240.50417" y1="330.77346" x2="240.50417" y2="339.72236" gradientUnits="userSpaceOnUse" id="color-24"><stop offset="0" stop-color="#a4a4a4"/><stop offset="1" stop-color="#7a7a7a"/></linearGradient><linearGradient x1="240.50417" y1="326.72037" x2="240.50417" y2="343.77546" gradientUnits="userSpaceOnUse" id="color-25"><stop offset="0" stop-color="#303030"/><stop offset="1" stop-color="#4b4b4b"/></linearGradient><radialGradient cx="358.39073" cy="348.70499" r="14.8135" gradientUnits="userSpaceOnUse" id="color-26"><stop offset="0" stop-color="#7582b0"/><stop offset="1" stop-color="#485b9d"/></radialGradient><radialGradient cx="372.47677" cy="357.76055" r="31.95731" gradientUnits="userSpaceOnUse" id="color-27"><stop offset="0" stop-color="#7582b0"/><stop offset="1" stop-color="#485b9d"/></radialGradient><radialGradient cx="122.14788" cy="348.70499" r="14.8135" gradientUnits="userSpaceOnUse" id="color-28"><stop offset="0" stop-color="#7582b0"/><stop offset="1" stop-color="#485b9d"/></radialGradient><radialGradient cx="108.06184" cy="357.76055" r="31.95731" gradientUnits="userSpaceOnUse" id="color-29"><stop offset="0" stop-color="#7582b0"/><stop offset="1" stop-color="#485b9d"/></radialGradient><radialGradient cx="296.82164" cy="330.80135" r="14.7282" gradientUnits="userSpaceOnUse" id="color-30"><stop offset="0" stop-color="#7582b0"/><stop offset="1" stop-color="#485b9d"/></radialGradient><radialGradient cx="313.84906" cy="338.2094" r="32.4804" gradientUnits="userSpaceOnUse" id="color-31"><stop offset="0" stop-color="#7582b0"/><stop offset="1" stop-color="#485b9d"/></radialGradient><radialGradient cx="183.71698" cy="330.80135" r="14.7282" gradientUnits="userSpaceOnUse" id="color-32"><stop offset="0" stop-color="#7582b0"/><stop offset="1" stop-color="#485b9d"/></radialGradient><radialGradient cx="166.68956" cy="338.2094" r="32.4804" gradientUnits="userSpaceOnUse" id="color-33"><stop offset="0" stop-color="#7582b0"/><stop offset="1" stop-color="#485b9d"/></radialGradient><linearGradient x1="179.11273" y1="372.6926" x2="303.13197" y2="372.6926" gradientUnits="userSpaceOnUse" id="color-34"><stop offset="0" stop-color="#7582b0"/><stop offset="1" stop-color="#485b9d"/></linearGradient><linearGradient x1="436.29452" y1="371.52956" x2="436.29452" y2="392.71443" gradientUnits="userSpaceOnUse" id="color-35"><stop offset="0" stop-color="#e0c297"/><stop offset="1" stop-color="#b9a17e"/></linearGradient><linearGradient x1="433.1802" y1="352.72419" x2="433.1802" y2="370.78604" gradientUnits="userSpaceOnUse" id="color-36"><stop offset="0" stop-color="#e0c297"/><stop offset="1" stop-color="#b9a17e"/></linearGradient><linearGradient x1="422.80786" y1="335.48041" x2="422.80786" y2="359.34894" gradientUnits="userSpaceOnUse" id="color-37"><stop offset="0" stop-color="#e0c297"/><stop offset="1" stop-color="#b9a17e"/></linearGradient><linearGradient x1="373.69142" y1="380.13298" x2="428.65595" y2="379.12568" gradientUnits="userSpaceOnUse" id="color-38"><stop offset="0" stop-color="#e0c297"/><stop offset="1" stop-color="#b9a17e"/></linearGradient><linearGradient x1="379.1863" y1="358.41933" x2="393.84704" y2="361.14245" gradientUnits="userSpaceOnUse" id="color-39"><stop offset="0" stop-color="#e0c297"/><stop offset="1" stop-color="#b9a17e"/></linearGradient><linearGradient x1="44.24409" y1="371.52956" x2="44.24409" y2="392.71443" gradientUnits="userSpaceOnUse" id="color-40"><stop offset="0" stop-color="#e0c297"/><stop offset="1" stop-color="#b9a17e"/></linearGradient><linearGradient x1="47.35841" y1="352.72419" x2="47.35841" y2="370.78604" gradientUnits="userSpaceOnUse" id="color-41"><stop offset="0" stop-color="#e0c297"/><stop offset="1" stop-color="#b9a17e"/></linearGradient><linearGradient x1="57.73075" y1="335.48041" x2="57.73075" y2="359.34894" gradientUnits="userSpaceOnUse" id="color-42"><stop offset="0" stop-color="#e0c297"/><stop offset="1" stop-color="#b9a17e"/></linearGradient><linearGradient x1="106.84719" y1="380.13298" x2="51.88266" y2="379.12568" gradientUnits="userSpaceOnUse" id="color-43"><stop offset="0" stop-color="#e0c297"/><stop offset="1" stop-color="#b9a17e"/></linearGradient><linearGradient x1="101.35232" y1="358.41933" x2="86.69157" y2="361.14245" gradientUnits="userSpaceOnUse" id="color-44"><stop offset="0" stop-color="#e0c297"/><stop offset="1" stop-color="#b9a17e"/></linearGradient></defs><g transform="translate(-23.5984,-157.31383)"><g data-paper-data="{&quot;isPaintingLayer&quot;:true}" fill-rule="nonzero" stroke-linecap="butt" stroke-linejoin="miter" stroke-miterlimit="10" stroke-dasharray="" stroke-dashoffset="0" style="mix-blend-mode: normal"><path d="M197.91487,435.96019c0,0 1.17613,-57.52947 -2.30738,-79.51663c-2.37757,-15.00676 -16.57418,-34.73808 -16.57418,-34.73808c0,0 41.69169,-12.18234 62.5619,-12.03209c20.46147,0.14731 61.45737,12.92502 61.45737,12.92502c0,0 -16.4028,17.08677 -18.83094,31.17095c-3.76438,21.83514 -1.56117,82.19082 -1.56117,82.19082z" fill="#191919" stroke="none" stroke-width="0"/><path d="M305.96934,224.23166c0,14.0443 22.42419,27.3773 4.64156,51.80198c-18.4836,25.3875 -48.8715,30.5886 -71.76287,30.5886c-24.5313,0 -46.3201,0.10202 -70.42256,-32.49441c-16.35747,-22.12201 3.30127,-37.47626 3.30127,-49.89618c0,-36.71869 30.05122,-66.48507 67.12128,-66.48507c37.07006,0 67.12128,29.76638 67.12128,66.48507z" fill="#191919" stroke="none" stroke-width="0"/><g><path d="M273.64308,265.88876c2.157,-1.50082 4.48105,-6.55325 5.16427,-9.05722c-0.01883,-3.2002 2.10273,-7.20019 1.38101,-10.217c-0.78099,-3.26459 -2.89787,-6.3879 -3.99037,-9.57934c-0.99361,-2.90248 -2.05422,-5.69849 -3.36486,-8.34171c0.93451,3.55863 1.37559,7.26959 0.91338,10.18889c-0.62207,3.92902 -2.57378,7.63988 -1.89757,11.7566c0.93787,5.70965 4.9207,7.32169 1.96978,13.48737c-0.60049,1.04416 -1.28154,1.878 -2.02992,2.54387c0.66219,-0.14172 1.28875,-0.38801 1.85423,-0.78146zM269.45289,217.45558c5.02718,5.21446 7.8263,11.47457 10.14187,18.30282c1.12364,3.3134 3.3824,6.5735 4.11053,9.99634c0.79993,3.76031 -1.29915,7.76466 -1.31927,11.59588c-0.96613,3.47999 -3.68388,9.55203 -6.71706,11.63707c-3.45764,2.3768 -7.72636,1.31002 -11.47124,0.86984c-7.0109,-0.82405 -13.9604,0.25636 -20.64445,1.95473c-0.40131,0.00237 -0.80259,0.00433 -1.20386,0.00597l0.26691,1.80477c0,0 -0.57137,1.77516 -2.28544,1.18344c-1.07035,-0.36951 -1.24954,-1.20048 -1.23316,-1.7725c-0.43018,-0.27456 -0.86303,-0.53731 -1.29659,-0.79138c-0.50692,0.22394 -1.39722,0.39919 -2.12475,-0.60542c-0.01783,-0.02461 -0.03495,-0.0491 -0.05142,-0.0735c-0.3122,-0.17494 -0.61586,-0.46636 -0.76115,-0.9519c-0.26995,-0.14598 -0.53837,-0.29135 -0.80484,-0.43683c0.73131,1.28545 1.36346,2.64751 2.71493,3.5367l1.16197,0.89893c0,0 1.44545,1.12271 0.36137,2.61965c-1.08409,1.49694 -2.52951,0.37423 -2.52951,0.37423l-0.99827,-0.77899c-2.21668,-1.5815 -2.76468,-4.31497 -4.57398,-5.86142c-0.81929,-0.70029 -2.11681,-0.19086 -3.17702,-0.25993c-2.26014,-0.14724 -5.92579,-0.21432 -7.79236,-1.82594c-2.70518,-2.33569 -2.6474,-7.95404 -4.82129,-10.97183c-5.94795,-0.369 -11.0189,-5.46734 -9.8442,-12.0555c0.29172,-1.6362 1.63593,-2.88091 2.21745,-4.43196c1.21197,-3.23273 -1.74403,-7.85486 -2.21904,-10.84971c-0.64123,-4.04302 1.12488,-7.00889 3.34722,-9.82787c0.08567,-0.23053 0.17414,-0.46372 0.265,-0.6999c0,0 0.36734,-0.95105 1.23789,-1.16438c-0.00969,-0.21817 -0.01538,-0.43733 -0.01698,-0.65757c0,0 0,-1.87117 1.80679,-1.87117c1.80679,0 1.80681,1.87117 1.80681,1.87117c-0.06305,6.74081 4.48268,10.83506 8.21887,15.57713c0.85262,1.0822 2.01963,3.72222 2.28331,5.06294c0.24436,1.24254 -0.66213,3.84885 0.54397,4.84723c1.74433,1.44392 5.92722,1.35396 7.18138,3.25551c1.41785,2.14971 1.13961,5.08282 1.98424,7.5348c1.64923,2.78632 2.62027,5.39091 3.48136,8.51201l0.24685,0.7613c0,0 0.57138,1.77516 -1.1427,2.36688c-1.71409,0.59173 -2.28544,-1.18344 -2.28544,-1.18344l-0.29323,-0.91662c-0.81445,-2.95218 -1.72509,-5.28238 -3.2689,-7.93012c-0.75478,-2.18669 -0.49194,-4.72464 -1.52666,-6.78483c-0.43545,-0.867 -5.81628,-1.83905 -6.86018,-2.89682c-2.60489,-2.63948 -0.93421,-5.67461 -2.28405,-8.674c-0.9322,-2.0714 -2.77594,-3.16351 -4.12518,-4.97875c-1.9233,-2.58761 -3.63403,-5.40005 -4.68328,-8.44582c-0.53793,1.8692 -0.56967,3.61809 0.83849,5.66252c1.03034,1.49589 2.66851,2.56095 3.41611,4.22734c1.52743,3.40458 -0.72049,9.87824 2.55372,12.54999c4.10958,3.35343 8.59063,5.3964 10.77594,10.65817c0.69277,4.80147 3.31237,7.10113 6.55664,8.98119h0.61466c2.29226,0.10073 4.42979,-1.60767 6.5197,-2.61754c3.83269,-1.852 7.79724,-3.22552 11.19861,-5.87374c2.51747,-2.34519 1.60049,-8.44364 2.4163,-11.68276c0.70101,-2.7832 3.00161,-3.85853 4.72555,-5.78514c1.90094,-2.12442 3.64317,-5.40112 4.56718,-8.07306c1.7338,-5.0136 -0.44315,-10.19719 -0.45068,-15.27297c0,0 0,-1.87117 1.80679,-1.87117c1.44292,0 1.73352,1.19337 1.79203,1.67406c0.91172,-0.20833 1.64581,0.55192 1.64581,0.55192zM260.34442,265.56703c3.67507,0 8.32685,0.58977 10.28832,-3.20654c2.20982,-4.52691 -1.54446,-6.51119 -2.3507,-11.12205c-0.79411,-4.54153 1.17411,-8.53415 1.88286,-12.8528c0.47719,-2.90764 -0.19448,-7.0604 -1.36928,-10.7172c0.07338,1.99382 -0.08837,4.00684 -0.77853,6.08734c-1.02346,3.08516 -3.10167,6.78839 -5.25978,9.21778c-1.07973,1.21546 -3.55905,2.43177 -3.91542,4.28235c-0.9026,4.68685 -0.21268,9.86917 -3.52435,13.48596c-1.79556,1.39197 -4.275,3.06644 -6.986,4.61456c3.9055,-0.16 7.88839,0.2106 12.01288,0.2106zM224.58092,258.43525c-1.80459,-4.38675 -6.52038,-5.95173 -9.74633,-8.91751c-3.28135,-3.01668 -2.62933,-7.85457 -3.0014,-11.79816c-0.23154,-2.45428 -1.58634,-3.18551 -2.8511,-4.72478c0.53412,1.52777 1.12661,3.05186 1.3098,4.57163c0.71734,5.95139 -6.20008,13.955 2.99946,16.59989c0.91008,0.26165 1.86841,0.28776 2.80261,0.43162c2.28812,2.59862 3.25126,4.43647 4.37156,7.74889c0.40596,1.2003 0.06916,2.91202 1.0683,3.65147c1.96376,1.45336 4.91714,0.79218 7.48414,0.9072c-2.24705,-1.92273 -3.91197,-4.44927 -4.43704,-8.47026z" fill="#000000" stroke="none" stroke-width="0.5"/><path d="M233.81762,330.87853v-119.71353h12.6283v119.56518z" fill="url(#color-1)" stroke="none" stroke-width="0"/><path d="M208.05145,257.63314v-46.46815h6.83815v46.41056z" fill="url(#color-2)" stroke="none" stroke-width="0"/><path d="M263.92639,257.63314v-46.46815h6.83815v46.41056z" fill="url(#color-3)" stroke="none" stroke-width="0"/><path d="M201.14919,228.75618v-22.21969h78.32746v22.21969z" fill="url(#color-4)" stroke="none" stroke-width="0"/><path d="M188.46601,219.6636v-6.54517h102.50238v6.54517z" fill="url(#color-5)" stroke="none" stroke-width="0"/><g stroke="none" stroke-width="0"><path d="M246.41233,285.05874v-4.16135h5.12165v4.16135z" fill="url(#color-6)"/><path d="M240.29265,285.02103v-4.16135h5.12166v4.16135z" fill="url(#color-7)"/><path d="M234.21069,285.02103v-4.16135h5.12165v4.16135z" fill="url(#color-8)"/><path d="M228.09101,284.98331v-4.16135h5.12165v4.16135z" fill="url(#color-9)"/><path d="M223.92518,282.79727v-6.18522h31.36501v6.18522z" fill="url(#color-10)"/></g><g data-paper-data="{&quot;index&quot;:null}" stroke="none" stroke-width="0"><path d="M251.49627,286.33747v4.16135h-5.12165v-4.16135z" fill="url(#color-11)"/><path d="M245.37658,286.37519v4.16135h-5.12165v-4.16135z" fill="url(#color-12)"/><path d="M239.29463,286.37519v4.16135h-5.12165v-4.16135z" fill="url(#color-13)"/><path d="M233.17494,286.41291v4.16135h-5.12165v-4.16135z" fill="url(#color-14)"/><path d="M255.25247,288.59896v6.18522h-31.36501v-6.18522z" fill="url(#color-15)"/></g><g stroke-width="0"><g><path d="M231.8571,216.67199c0,11.24375 -9.06929,20.35861 -20.25682,20.35861c-11.18753,0 -20.25682,-9.11487 -20.25682,-20.35861c0,-11.24375 9.06929,-20.35861 20.25682,-20.35861c11.18753,0 20.25682,9.11487 20.25682,20.35861z" fill="url(#color-16)" stroke="#000000"/><path d="M218.46306,216.76817c0,4.17845 -3.15636,7.56576 -7.04992,7.56576c-3.89356,0 -7.04991,-3.38731 -7.04991,-7.56576c0,-4.17845 3.15635,-7.56575 7.04991,-7.56575c3.89356,0 7.04992,3.3873 7.04992,7.56575z" fill="#000000" stroke="none"/></g><path d="M224.41806,212.99116c0,4.17845 -3.15636,7.56576 -7.04992,7.56576c-3.89356,0 -7.04991,-3.38731 -7.04991,-7.56576c0,-4.17845 3.15635,-7.56575 7.04991,-7.56575c3.89356,0 7.04992,3.3873 7.04992,7.56575z" fill="url(#color-17)" stroke="none"/></g><g stroke-width="0"><g><path d="M287.442,216.88574c0,11.24375 -9.06929,20.35861 -20.25682,20.35861c-11.18753,0 -20.25682,-9.11487 -20.25682,-20.35861c0,-11.24375 9.06929,-20.35861 20.25682,-20.35861c11.18753,0 20.25682,9.11487 20.25682,20.35861z" fill="url(#color-18)" stroke="#000000"/><path d="M274.04794,216.98193c0,4.17845 -3.15636,7.56576 -7.04991,7.56576c-3.89356,0 -7.04991,-3.38731 -7.04991,-7.56576c0,-4.17845 3.15635,-7.56575 7.04991,-7.56575c3.89356,0 7.04991,3.3873 7.04991,7.56575z" fill="#000000" stroke="none"/></g><path d="M279.71397,212.99116c0,4.17845 -3.15636,7.56576 -7.04992,7.56576c-3.89356,0 -7.04991,-3.38731 -7.04991,-7.56576c0,-4.17845 3.15635,-7.56575 7.04991,-7.56575c3.89356,0 7.04992,3.3873 7.04992,7.56575z" fill="url(#color-19)" stroke="none"/></g><path d="M208.05145,257.92265v-6.22661h62.71309v6.21888z" fill="url(#color-20)" stroke="none" stroke-width="0"/></g><g stroke="none" stroke-width="0"><g><path d="M305.96934,224.23166c0,14.0443 22.42419,27.3773 4.64159,51.80198c-18.4836,25.3875 -48.8715,30.5886 -71.76287,30.5886c-24.5313,0 -46.3201,0.10202 -70.42256,-32.49441c-16.35747,-22.12201 3.30127,-37.47626 3.30127,-49.89618c0,-36.71869 30.05122,-66.48507 67.12128,-66.48507c37.07006,0 67.12128,29.76638 67.12128,66.48507zM239.52323,296.26387c13.94513,0.26138 26.82863,-5.04315 36.1681,-11.42406c-0.07079,0.43854 -0.14561,0.85993 -0.0147,1.06877c0.98671,1.5741 2.49288,0.07398 3.14399,2.21802l-0.03842,0.34232c0,0 0,0.74848 0.74848,0.74848c0.74848,0 0.74848,-0.74848 0.74848,-0.74848l-0.03842,-0.81571c-0.3155,-0.89143 -0.90496,-2.07104 -1.87117,-2.48136c-0.41594,-0.17663 -1.41029,0.51564 -1.35401,0.06726c0.0614,-0.48929 0.09567,-0.95438 0.06272,-1.37326c8.34959,-6.02649 13.52367,-12.78837 13.52367,-16.67122c0,-1.43425 -0.73508,-2.06432 -2.08469,-2.12637c0.63882,-1.99106 1.58936,-4.28937 -0.30441,-5.08355c-1.0035,-0.42084 -2.89482,0.19673 -3.29399,1.27359c-0.22153,0.59767 0.95483,1.6132 0.37382,1.87535c-0.23481,0.10594 -1.97497,0.14461 -2.31606,0.57901c-0.21125,0.26905 -0.02332,0.96617 -0.36532,0.95899c-0.66781,0.66781 -0.87087,1.45721 -1.25064,2.16553c-9.43515,3.40576 -24.9319,10.52352 -40.94602,10.4926c-33.15548,-0.06396 -49.21889,-17.76423 -49.21889,-9.49685c0,1.60757 0.79901,3.64566 2.28624,5.88981c-1.28047,0.11947 -2.4143,0.1577 -3.99117,-0.42068c-1.11978,-0.41072 -2.144,0.36328 -3.02686,-0.02221c-0.03995,-0.2155 -0.18768,-0.61378 -0.73365,-0.61378c-0.74848,0 -0.74848,0.74848 -0.74848,0.74848l0.3333,0.91228c2.49765,1.4722 6.03952,0.93675 9.13254,0.7543c6.92616,9.13942 24.21761,20.79183 45.07562,21.18277zM211.6675,239.09577c12.40107,0 22.45412,-10.05305 22.45412,-22.45412c0,-12.40107 -10.05305,-22.45412 -22.45412,-22.45412c-12.40107,0 -22.45412,10.05305 -22.45412,22.45412c0,12.40107 10.05305,22.45412 22.45412,22.45412zM268.06675,239.43966c12.40107,0 22.45412,-10.05305 22.45412,-22.45412c0,-12.40107 -10.05305,-22.45412 -22.45412,-22.45412c-12.40107,0 -22.45412,10.05305 -22.45412,22.45412c0,12.40107 10.05305,22.45412 22.45412,22.45412z" fill="url(#color-21)"/><path d="M239.20095,157.31383c29.39288,0 54.55397,17.21066 64.92422,41.60174c-2.1797,-1.99322 -4.50658,-3.84634 -6.99184,-5.54438c-3.04264,-4.66141 -6.79314,-5.54807 -12.10957,-5.54807c-1.26257,0 -3.04945,0.42031 -4.72272,0.51191c-1.12475,-0.2482 -2.24975,-0.48526 -3.37426,-0.71673c-0.33003,-0.25355 -0.60743,-0.58586 -0.81586,-1.01613c-1.70689,-2.33224 -4.23802,-1.48894 -6.86389,-2.50351c-5.98018,-2.31061 -12.39575,-2.26749 -18.8155,-1.50036c-1.81459,-0.22267 -3.62763,-0.41191 -5.44253,-0.5699c-1.97695,-1.27131 -3.81418,-3.53975 -5.947,-4.53506c-3.26676,-1.52449 -5.61341,1.26863 -8.08817,2.34585c-1.24894,0.54363 -2.87627,0.72028 -4.21992,1.40682c-4.72998,0.56914 -9.7411,-0.25023 -14.4267,0.54341c-0.80668,0.13663 -5.10279,1.0903 -5.7124,0.49438c-2.01237,-1.96713 -3.61398,-1.84744 -6.24113,-0.21921c-3.42307,5.19036 -8.82868,6.00016 -14.21346,8.22909c-0.10179,-0.58204 -0.73474,-0.58204 -0.73474,-0.58204c-2.49872,0.04481 -6.37582,2.70937 -9.28177,5.23957c11.3086,-22.27088 35.30378,-37.63733 63.07725,-37.63733z" fill="url(#color-22)"/></g><path d="M266.75789,188.25846c8.08333,-0.26687 15.82098,3.7029 15.87578,5.36289c0.0548,1.65997 -7.47279,-1.4362 -15.55614,-1.16932c-8.08333,0.26687 -14.8566,1.03235 -14.8566,1.03235c0,0 6.45361,-4.95904 14.53697,-5.22591z" fill="#000000"/><path d="M213.62736,191.79732c-8.08333,-0.26687 -15.61092,2.82929 -15.55613,1.16932c0.0548,-1.65997 7.79244,-5.62976 15.87578,-5.36289c8.08333,0.26687 14.59176,3.56596 14.53697,5.22592c0,0 -6.77328,-0.76549 -14.85661,-1.03236z" data-paper-data="{&quot;index&quot;:null}" fill="#000000"/></g><g stroke="none"><path d="M238.39398,338.09921c0.57931,-0.38621 1.08678,-0.41316 1.49566,-0.29472l-0.01284,-1.62244c0,0 0,-1.87117 1.87117,-1.87117c1.87117,0 1.87117,1.87117 1.87117,1.87117l-0.01809,1.76702c0.2067,0.72345 0.38123,1.54438 0.5012,2.41218l0.3134,1.09689c0.30603,1.0727 0.53434,2.14511 0.70462,3.21697c3.06276,6.58825 2.26461,15.31759 2.26054,22.2795c-0.01817,0.19597 -0.03691,0.39172 -0.05617,0.5873c2.10478,5.07318 5.19236,9.94082 5.5551,15.42407c0.35568,5.37663 -3.26426,9.89314 -2.62003,15.20063c0.25231,2.07869 5.38268,10.35478 7.47508,8.58481c1.85745,-1.89953 4.65206,-3.98761 5.35263,-6.72863c0.66014,-2.58284 -1.14023,-5.5302 -1.47966,-7.9969c-0.17692,-1.28582 0.1857,-5.79624 0.31577,-6.45285c0.75477,-3.81038 3.82402,-6.60431 5.7139,-9.80716c0.07958,-0.13486 0.15751,-0.26935 0.23382,-0.40345c-0.5645,-4.38146 -1.75608,-8.66269 -3.80938,-12.66628c-1.90766,-5.07902 -5.64317,-11.29336 -3.5324,-16.97794c3.21501,-8.65849 13.12439,-9.09876 20.55432,-11.59248c0.39926,-0.134 0.79118,-0.26168 1.17727,-0.38061c0.20225,-0.07508 0.404,-0.14627 0.60493,-0.21351c0.40679,-0.13613 0.82162,-0.22993 1.24271,-0.28785c2.45835,-0.55682 4.77455,-0.5599 7.40284,0.68563c0,0 0.59606,0.29804 0.89888,0.89411c1.30423,0.41992 2.5667,0.7968 3.74005,0.9537c0,0 1.85237,0.26463 1.58775,2.11699c-0.26463,1.85237 -2.11699,1.58775 -2.11699,1.58775c-2.75455,-0.41334 -7.72823,-3.13275 -10.87353,-2.59069c-0.27836,0.07371 -0.55803,0.15623 -0.83977,0.24423c-4.06101,1.63432 -9.33611,5.0167 -9.9017,9.67301c-0.47218,3.88721 1.14523,7.81042 1.1692,11.66563c0,6.3325 -0.49308,11.64932 -3.25326,17.22802c2.10303,14.66986 -2.3272,30.22934 -14.63594,39.02886c-6.40953,3.61182 -10.01552,-4.78772 -13.05001,-9.48874c-6.89122,-10.67589 -2.02408,-25.34965 -0.7186,-37.20772c-0.24679,-0.60703 -0.47526,-1.21459 -0.67787,-1.82326c-1.23866,-5.65203 -0.5765,-11.29551 -0.93213,-16.9588c-0.74728,0.48949 -1.58699,0.89791 -1.96445,1.67132c-0.72105,1.47741 -0.27294,4.16214 -0.38626,5.41863c-0.31429,3.48475 -2.06987,6.20316 -2.01744,9.65886c0,3.68953 1.65677,11.61458 -0.9322,14.70094c-0.73519,0.87643 -1.67132,1.35811 -2.71683,1.5393c-2.24824,1.79124 -5.45935,2.56721 -5.9284,5.7696c-0.71266,4.86564 4.00148,5.97192 5.40688,9.76253c1.59886,4.31243 0.01482,9.17576 -3.8228,11.33366c-7.57661,5.44156 -19.22966,3.09932 -20.63565,-7.58361c-0.50836,-3.86255 4.3764,-10.2543 2.73701,-13.67231c-1.65985,-3.46069 -5.31365,-6.27622 -7.15872,-9.96591c-3.30233,-5.86912 -1.30469,-12.40495 -2.2238,-18.82217c-0.7315,-5.10725 -2.68428,-9.94244 -4.51384,-14.63805c-1.09753,-2.81682 -1.86509,-6.98593 -5.25299,-7.49433c-0.54953,0.30171 -1.11681,0.61446 -1.73521,0.92471c0,0 -1.67362,0.83681 -2.51044,-0.83682c-0.83681,-1.67362 0.83681,-2.51044 0.83681,-2.51044c0.18034,-0.08985 0.36362,-0.17898 0.5496,-0.26723c0.43094,-1.08834 1.73474,-1.08834 1.73474,-1.08834c0.24123,0.0099 0.47555,0.02603 0.70322,0.04826c7.74011,-2.94772 18.17364,-3.65441 20.52419,6.93511c1.20586,5.43261 -1.36167,9.19456 3.06897,13.66628c4.58452,2.60038 7.57012,6.32983 8.24857,11.68068c0.37004,2.91854 -0.4742,5.80028 1.18578,8.51513c0.76803,1.2561 1.65575,1.79275 2.88796,2.58667c0.28484,0.18351 2.72993,1.28448 4.28821,1.77909c1.32234,-4.17029 -0.47033,-10.08978 -1.35486,-14.09273c-0.46088,-4.55861 -2.26468,-10.67184 -1.13163,-15.20186c0.80082,-3.20171 3.54033,-6.97088 5.59478,-9.45321l0.05335,-0.21793c0,0 0.81975,-1.63949 2.45923,-0.86176c0.12387,-0.15171 0.28519,-0.29913 0.4925,-0.43734zM244.77718,392.05698c0,3.11347 -0.32486,6.38937 1.22779,9.25296c1.69024,3.11738 3.97086,5.92196 6.17134,8.67625c1.27457,1.59537 1.39653,3.23264 2.98412,1.66486c0.5658,-0.40377 1.11868,-0.83097 1.66033,-1.27623c-4.34175,-0.23835 -7.55015,-5.01146 -9.52059,-9.10944c-2.99382,-6.22635 2.25973,-11.8968 1.84447,-18.06685c-0.20159,-2.99555 -1.34605,-5.88927 -2.66735,-8.74551c-0.80508,5.8278 -1.70011,11.59904 -1.70011,17.60397zM267.4605,392.23007c0.54157,-3.60949 0.85707,-7.30566 0.81237,-10.98709c-1.21622,1.59858 -2.35455,3.26688 -2.69536,5.1386c-0.62568,3.4362 0.71157,6.7364 1.2249,10.02038c0.28132,-1.46781 0.46965,-2.91595 0.65809,-4.1719zM264.07651,346.91138c-1.75167,4.60293 1.90058,10.24182 3.41577,14.28887c1.21055,2.47439 2.2063,5.07328 2.97829,7.74579c0.82652,-3.29533 0.96254,-6.63863 0.96254,-10.47192c0.0312,-4.0004 -1.66542,-8.00907 -1.14685,-12.07398c0.29885,-2.34267 1.4133,-4.51959 2.99162,-6.41661c-4.01154,1.18001 -7.70054,2.98406 -9.20135,6.92788zM239.14288,342.57948l-0.6532,-0.97135l-0.22585,0.40394c-1.70366,2.0281 -4.1691,5.28176 -4.82751,7.91723c-0.86609,3.46686 0.37631,8.29215 0.9719,12.12484c0.529,-1.97427 1.23731,-3.85371 1.42457,-6.08045c0.23097,-2.74669 -0.49381,-4.22253 0.77177,-6.74069c0.68321,-1.35942 2.4396,-1.88982 3.32436,-3.12754c0.34185,-0.47823 0.53593,-1.11727 0.62653,-1.83257c-0.41646,-0.59969 -0.88523,-1.16604 -1.41259,-1.69338zM201.20864,342.99318c1.92147,4.95081 3.98027,10.09247 4.7504,15.47073c0.82778,5.78082 -1.18522,12.4758 1.8293,17.65576c1.81059,3.62159 5.93587,6.74586 7.31666,10.29963c1.95555,5.033 -3.13284,9.85766 -2.47412,14.69943c1.0909,8.01828 9.64777,8.71326 14.94727,4.80553c6.74455,-3.07564 -0.6742,-8.97711 -2.28458,-12.19455c-0.57692,-1.15265 -1.20514,-5.22871 -1.02646,-6.31209c0.29439,-1.78499 1.83682,-4.27659 3.25106,-5.47989c0.30489,-0.2594 0.67174,-0.47248 1.06539,-0.66801c-2.89022,-1.30023 -5.58012,-3.55226 -6.66992,-5.31592c-2.76577,-4.47596 -0.58689,-9.76079 -2.95712,-14.29519c-1.19699,-2.28992 -3.41442,-3.64853 -5.55801,-4.88203c-2.00105,-1.98906 -3.74287,-4.0403 -4.45822,-6.88875c-0.71309,-2.83934 0.55336,-6.12342 0,-8.97473c-1.07195,-5.5235 -7.72578,-6.89366 -12.15049,-5.82075c2.14447,1.84271 3.20857,4.78242 4.41887,7.90084z" fill="#303030" stroke-width="0.5"/><path d="M230.70394,440.47094v-109.69748h19.60048v109.69748z" fill="url(#color-23)" stroke-width="0"/><path d="M181.77718,339.72236v-8.94888h117.45399v8.94888z" fill="url(#color-24)" stroke-width="0"/><path d="M198.85812,343.77546v-17.05509h83.29211v17.05509z" fill="url(#color-25)" stroke-width="0"/></g><g data-paper-data="{&quot;index&quot;:null}" stroke="none" stroke-width="0"><path d="M349.99799,367.95223c-6.60038,-4.86287 -8.08925,-14.04667 -3.32544,-20.51257c4.7638,-6.46589 13.97627,-7.76539 20.57666,-2.90252c6.60039,4.86287 8.08926,14.04666 3.32546,20.51256c-4.7638,6.46588 -13.97627,7.76539 -20.57666,2.90252z" fill="url(#color-26)"/><path d="M398.09957,400.61288l-48.72419,-31.38261l18.74412,-25.44138l44.64886,37.06328z" fill="url(#color-27)"/></g><g data-paper-data="{&quot;index&quot;:null}" stroke="none" stroke-width="0"><path d="M130.54062,367.95222c-6.60039,4.86288 -15.81286,3.56337 -20.57666,-2.90252c-4.76381,-6.4659 -3.27493,-15.64969 3.32546,-20.51256c6.60039,-4.86288 15.81286,-3.56338 20.57666,2.90252c4.76381,6.4659 3.27493,15.6497 -3.32544,20.51257z" fill="url(#color-28)"/><path d="M67.77027,380.85218l44.64886,-37.06328l18.74412,25.44138l-48.72419,31.38261z" fill="url(#color-29)"/></g><g data-paper-data="{&quot;index&quot;:null}" stroke="none" stroke-width="0"><path d="M296.40461,353.54321c-7.88463,-2.24619 -12.49259,-10.32858 -10.29216,-18.05254c2.20042,-7.72396 10.37595,-12.16459 18.2606,-9.9184c7.88463,2.24619 12.49259,10.3286 10.29217,18.05256c-2.20042,7.72396 -10.37595,12.16459 -18.2606,9.9184z" fill="url(#color-30)"/><path d="M351.9415,370.81859l-55.67295,-15.86024l8.65799,-30.39152l55.67295,15.86024z" fill="url(#color-31)"/></g><g data-paper-data="{&quot;index&quot;:null}" stroke="none" stroke-width="0"><path d="M184.13398,353.54322c-7.88463,2.24619 -16.06017,-2.19442 -18.2606,-9.9184c-2.20042,-7.72396 2.40755,-15.80637 10.29217,-18.05256c7.88463,-2.24619 16.06017,2.19442 18.2606,9.9184c2.20042,7.72396 -2.40755,15.80635 -10.29216,18.05254z" fill="url(#color-32)"/><path d="M119.93912,340.42705l55.67295,-15.86024l8.65799,30.39152l-55.67295,15.86024z" fill="url(#color-33)"/></g><g stroke="none"><path d="M197.71465,435.97699c0,0 1.45578,-57.80912 -2.02775,-79.79627c-2.37757,-15.00676 -16.57418,-34.73808 -16.57418,-34.73808c0,0 41.69169,-12.18234 62.5619,-12.03209c20.46147,0.14731 61.45734,12.92502 61.45734,12.92502c0,0 -16.4028,17.08677 -18.83094,31.17095c-3.76438,21.83514 -1.28152,82.47047 -1.28152,82.47047z" fill="url(#color-34)" stroke-width="0"/><g stroke-width="0.5"><path d="M205.11626,381.85578c-0.16022,-1.67647 1.51625,-1.8367 1.51625,-1.8367l0.99774,-0.09536c2.11862,-0.17456 3.21459,-1.08783 5.2702,-1.62803c3.25164,-0.85453 6.99497,-0.57128 10.36072,-1.112c3.91114,-0.62834 7.67746,-1.7345 11.64898,-2.2627c0.20128,-0.00743 0.40253,-0.01584 0.60377,-0.02524c-3.60137,-3.17163 -7.47939,-5.98995 -11.10321,-9.1316c-2.0428,1.62875 -4.27037,3.03189 -6.27436,4.71473c0,0 -1.2907,1.08181 -2.37251,-0.20892c-1.08181,-1.2907 0.20892,-2.3725 0.20892,-2.3725c1.88672,-1.5785 3.97645,-2.91494 5.91496,-4.42731c-2.5575,-2.44865 -4.89466,-5.03544 -7.70118,-7.26885c-1.82303,-1.45074 -4.08106,-2.6504 -5.81727,-4.17875c-0.79562,-0.70036 -2.26697,-1.2465 -2.19184,-2.3038c0.09133,-1.28541 1.37109,-2.40171 2.56126,-2.89575c1.00224,-0.41606 2.15855,0.25927 3.21739,0.49694c0.05626,0.01262 5.91006,1.73301 6.20146,1.81861c4.52672,1.74467 8.86291,2.90054 13.57616,3.79381c0.25529,0.04838 0.50985,0.10055 0.76377,0.15612c4.23073,-4.53128 8.40975,-9.12342 13.15349,-13.09526c1.34485,-1.29073 5.1815,-5.47358 7.49922,-4.83866c2.97938,0.81615 3.25616,8.15335 3.48052,10.4894c0.4294,4.47096 -0.00515,8.89148 -0.10493,13.34217c3.48929,0.62352 6.96525,1.31734 10.36208,2.31644c1.70475,0.11363 6.84736,0.75826 7.6181,2.49223c0.45933,1.03338 -0.49572,2.24929 -1.08521,3.21437c-1.35041,2.21076 -5.19807,3.43971 -7.38494,4.47102c-2.75215,1.29789 -5.59442,2.03624 -8.48021,2.70293c0.06739,0.89354 0.11938,1.78822 0.147,2.68479c1.58541,5.62253 2.83684,12.3227 3.44098,18.17197c0.30884,2.99015 1.55677,8.39014 -3.97502,5.84123c-1.11316,-0.51291 -1.65939,-1.8105 -2.38656,-2.7971c-1.99539,-2.70725 -3.14031,-6.08551 -5.11823,-8.83021c-3.0199,-4.19063 -6.88149,-7.83378 -10.75395,-11.24345c-1.22163,0.12961 -2.4577,0.22132 -3.71447,0.26682c-3.89172,0.52421 -7.55694,1.60294 -11.3914,2.23078c-3.22692,0.52838 -6.96905,0.18663 -10.05578,1.04759c-2.15678,0.60157 -3.49805,1.47837 -5.79743,1.72118l-0.99773,0.09536c0,0 -1.67649,0.16022 -1.8367,-1.51625zM243.25347,377.39492c4.145,3.82793 7.99575,7.97559 10.91155,12.82837c1.15689,1.92538 2.16884,4.05703 3.38998,5.94696c-0.17352,-1.40774 -0.1572,-3.00308 -0.25752,-3.5122c-0.99142,-5.03073 -1.55675,-10.37168 -2.92278,-15.27031c-0.03395,-0.81616 -0.0849,-1.63053 -0.14709,-2.44373c-0.38939,0.09136 -0.77923,0.18477 -1.16943,0.28139c-3.30319,0.81805 -6.52825,1.59842 -9.8047,2.16952zM253.23695,358.41231c0.14249,-2.55748 0.39596,-5.11145 0.32919,-7.66844c-0.06642,-2.54406 -0.32668,-5.22815 -0.74029,-7.73639c-0.11163,-0.67689 -0.24898,-1.34933 -0.36543,-2.0254c-0.12243,-0.71083 -0.31373,-1.41491 -0.35121,-2.13524c-0.00046,-0.00896 0,-0.01872 0.00128,-0.02916c-0.86137,1.28886 -3.24088,2.74638 -4.20839,3.68096c-4.21562,3.53677 -7.99,7.55782 -11.75144,11.59088c3.10137,0.98363 6.15862,2.1947 9.31744,2.87197c2.56732,0.55045 5.16601,1.00158 7.76884,1.45082zM253.15043,361.81581c-2.76951,-0.47976 -5.5369,-0.95421 -8.27169,-1.53806c-3.82085,-0.81573 -7.49884,-2.42746 -11.28029,-3.45851c-2.15887,2.29426 -4.34513,4.55758 -6.63874,6.70181c4.32605,3.72477 9.00314,7.00656 13.12032,11.00277c4.66389,-0.5339 9.30221,-1.51186 13.86696,-2.68631c-0.32548,-3.24439 -0.71249,-6.48369 -0.79134,-9.75992c-0.00211,-0.08726 -0.00383,-0.17453 -0.00522,-0.26178zM224.4517,361.25641c1.82884,-1.69409 3.5872,-3.46669 5.31561,-5.27298c-4.36164,-0.87349 -8.45539,-2.01755 -12.69101,-3.6549c-0.30601,-0.08955 -2.30324,-0.67377 -3.90189,-1.14225c1.73352,1.23429 3.40849,2.55522 5.02917,3.93236c2.24747,1.90976 4.13873,4.11039 6.2481,6.13778zM256.53508,362.41273c0.09568,2.86162 0.43352,5.69889 0.72482,8.53768c1.00477,-0.27867 2.00536,-0.56405 3.00122,-0.85343c2.75543,-0.80072 5.54674,-2.0403 8.07047,-3.40658c0.58928,-0.31902 1.06802,-0.81999 1.5905,-1.24498c-1.2254,-0.12181 -2.78431,-0.77065 -3.62361,-0.8266c-3.2058,-0.93711 -6.4773,-1.60834 -9.76336,-2.20609z" fill="#ad9600"/><path d="M207.43162,380.95373c-0.14956,-1.56476 1.41522,-1.71431 1.41522,-1.71431l0.93124,-0.089c1.97748,-0.16295 3.00042,-1.01534 4.91905,-1.51956c3.03499,-0.79759 6.52889,-0.53321 9.67039,-1.03791c3.65055,-0.58648 7.16594,-1.61894 10.87283,-2.11195c0.18786,-0.00693 0.3757,-0.01478 0.56353,-0.02356c-3.36142,-2.96032 -6.98104,-5.59087 -10.36341,-8.52318c-1.9067,1.52024 -3.98586,2.8299 -5.8563,4.40061c0,0 -1.20473,1.00973 -2.21444,-0.19499c-1.00971,-1.20473 0.19499,-2.21444 0.19499,-2.21444c1.761,-1.47333 3.7115,-2.72072 5.52085,-4.13232c-2.3871,-2.2855 -4.56853,-4.69994 -7.18805,-6.78453c-1.70157,-1.35409 -3.80915,-2.47382 -5.42969,-3.90033c-0.7426,-0.6537 -2.11593,-1.16346 -2.04581,-2.15029c0.08525,-1.19977 1.27975,-2.24169 2.39061,-2.70283c0.93547,-0.38832 2.01473,0.24201 3.00302,0.46384c0.05252,0.01179 5.51627,1.61754 5.78827,1.69743c4.22512,1.62844 8.27238,2.70728 12.67159,3.54104c0.23829,0.04516 0.47587,0.09386 0.71288,0.14572c3.94884,-4.22937 7.84942,-8.51555 12.2771,-12.22273c1.25526,-1.20473 4.83624,-5.10888 6.99956,-4.51629c2.78087,0.76176 3.0392,7.61009 3.24863,9.79051c0.40077,4.17306 -0.0048,8.29906 -0.09794,12.4532c3.2568,0.58198 6.50115,1.22956 9.67167,2.1621c1.59118,0.10604 6.39113,0.70774 7.11052,2.32618c0.42873,0.96454 -0.46269,2.09943 -1.0129,3.0002c-1.26042,2.06346 -4.85174,3.21054 -6.89289,4.17313c-2.56878,1.21141 -5.22166,1.90056 -7.91519,2.52284c0.0629,0.834 0.11142,1.66905 0.13721,2.50589c1.47979,5.2479 2.64782,11.50165 3.21172,16.9612c0.28827,2.79094 1.45305,7.83111 -3.71017,5.45204c-1.03898,-0.47874 -1.54881,-1.6899 -2.22754,-2.61076c-1.86243,-2.52687 -2.93108,-5.68004 -4.77722,-8.24186c-2.81869,-3.91142 -6.42298,-7.31183 -10.03742,-10.49432c-1.14025,0.12099 -2.29394,0.20657 -3.46699,0.24903c-3.63244,0.48927 -7.05343,1.49614 -10.6324,2.08216c-3.0119,0.49315 -6.50471,0.17419 -9.38578,0.97779c-2.01308,0.56149 -3.265,1.37988 -5.41116,1.6065l-0.93127,0.08899c0,0 -1.56476,0.14955 -1.71432,-1.41522zM243.02778,376.7901c3.86883,3.57289 7.463,7.4442 10.18454,11.97364c1.0798,1.79709 2.02433,3.78671 3.1641,5.55072c-0.16195,-1.31395 -0.14672,-2.80298 -0.24037,-3.27819c-0.92537,-4.69554 -1.45302,-9.68064 -2.72804,-14.25288c-0.03169,-0.76179 -0.07924,-1.52188 -0.13728,-2.2809c-0.36344,0.08526 -0.72731,0.17246 -1.0915,0.26265c-3.08312,0.76356 -6.09329,1.49192 -9.15143,2.02496zM252.34608,359.07227c0.13299,-2.38708 0.36958,-4.77089 0.30727,-7.15749c-0.062,-2.37454 -0.30493,-4.87982 -0.69097,-7.22093c-0.10417,-0.6318 -0.23239,-1.25943 -0.34108,-1.89046c-0.11428,-0.66349 -0.29283,-1.32063 -0.32781,-1.99297c-0.00044,-0.00836 -0.00001,-0.01746 0.0012,-0.02721c-0.80397,1.20298 -3.02494,2.56338 -3.928,3.43571c-3.93474,3.30111 -7.45761,7.05425 -10.96845,10.81859c2.89473,0.9181 5.74829,2.04848 8.69663,2.68062c2.39626,0.51377 4.82181,0.93486 7.25121,1.35415zM252.26532,362.24902c-2.58497,-0.44781 -5.16798,-0.89063 -7.72057,-1.43559c-3.56627,-0.76138 -6.9992,-2.26571 -10.5287,-3.22806c-2.01503,2.14141 -4.05562,4.25392 -6.1964,6.25526c4.03781,3.47658 8.40328,6.53973 12.24612,10.26967c4.35314,-0.49834 8.68241,-1.41115 12.94303,-2.50734c-0.30379,-3.02822 -0.66502,-6.05168 -0.73862,-9.10963c-0.00196,-0.08145 -0.00359,-0.16288 -0.00486,-0.24433zM225.47875,361.72687c1.70699,-1.58122 3.34818,-3.23573 4.96143,-4.92166c-4.07104,-0.81529 -7.89203,-1.88313 -11.84543,-3.41138c-0.28562,-0.08359 -2.14978,-0.62888 -3.64191,-1.06614c1.61803,1.15205 3.18139,2.38495 4.69408,3.67036c2.09774,1.78252 3.86299,3.83653 5.83182,5.72882zM255.42445,362.80616c0.0893,2.67097 0.40464,5.31917 0.67653,7.96881c0.93784,-0.2601 1.87173,-0.52646 2.80124,-0.79657c2.57183,-0.74737 5.17716,-1.90438 7.53273,-3.17961c0.55004,-0.29777 0.99686,-0.76534 1.48451,-1.16201c-1.14374,-0.11368 -2.59878,-0.71931 -3.38217,-0.77152c-2.99221,-0.87468 -6.04572,-1.50119 -9.11286,-2.0591z" fill="#ffdf00"/></g></g><g stroke="none" stroke-width="0"><path d="M454.89556,391.66931c-7.72169,3.48663 -11.65137,-2.6688 -21.95914,-5.06411c-10.30781,-2.39533 -18.488,-3.63047 -17.14227,-10.8853c1.28794,-6.94315 13.78072,-3.69945 24.08853,-1.30415c10.30782,2.3953 21.81735,11.26464 15.01289,17.25356z" fill="url(#color-35)"/><path d="M454.07622,361.92754c-5.15669,6.72227 -11.52914,3.15528 -21.74498,5.91654c-10.21586,2.76124 -18.00844,5.53922 -20.25159,-1.49008c-2.14679,-6.72735 10.39559,-9.77376 20.61143,-12.53501c10.21586,-2.76124 24.55078,-0.38536 21.38509,8.10856z" fill="url(#color-36)"/><path d="M423.25069,353.02367c-9.30277,5.0445 -16.24381,9.54599 -20.04873,3.22414c-3.64147,-6.05026 7.85918,-11.90915 17.16194,-16.95366c9.30277,-5.0445 23.79904,-6.04121 22.67918,2.95402c-3.46599,7.73095 -10.48964,5.731 -19.79239,10.77549z" fill="url(#color-37)"/><path d="M415.09536,396.40169c-9.83404,8.48329 -16.1899,16.66521 -31.36901,-0.92041c-14.52701,-16.83011 -5.59094,-23.15784 4.24305,-31.64114c9.83404,-8.48329 15.08309,-19.03327 31.36901,0.92041c15.01389,18.39515 5.59094,23.15784 -4.24305,31.64114z" fill="url(#color-38)"/><path d="M387.34692,380.8564c-8.46623,3.23897 -10.96595,-11.07488 -8.29308,-21.3142c2.67286,-10.23935 5.61076,-22.80759 12.3564,-20.71905c7.04844,2.18232 4.33794,9.99859 1.66507,20.23794c-2.67286,10.23935 0.9491,16.58071 -5.72837,21.79533z" data-paper-data="{&quot;index&quot;:null}" fill="url(#color-39)"/></g><g data-paper-data="{&quot;index&quot;:null}" stroke="none" stroke-width="0"><path d="M40.65593,374.41574c10.30779,-2.39529 22.80058,-5.63899 24.08853,1.30415c1.34574,7.25483 -6.83446,8.48997 -17.14227,10.8853c-10.30777,2.3953 -14.23748,8.55073 -21.95914,5.06411c-6.80447,-5.98892 4.70508,-14.85825 15.01289,-17.25356z" fill="url(#color-40)"/><path d="M26.46243,361.92754c-3.16569,-8.49391 11.16923,-10.8698 21.38509,-8.10856c10.21585,2.76125 22.75823,5.80767 20.61143,12.53501c-2.24314,7.02931 -10.03571,4.25133 -20.25159,1.49008c-10.21585,-2.76125 -16.58829,0.80574 -21.74498,-5.91654z" fill="url(#color-41)"/><path d="M37.49553,342.24818c-1.11987,-8.99524 13.37641,-7.99852 22.67918,-2.95402c9.30277,5.0445 20.80341,10.90339 17.16194,16.95366c-3.80493,6.32185 -10.74596,1.82035 -20.04873,-3.22414c-9.30277,-5.0445 -16.3264,-3.04454 -19.79239,-10.77549z" fill="url(#color-42)"/><path d="M61.2002,364.76055c16.28592,-19.95369 21.53497,-9.4037 31.36901,-0.92041c9.83399,8.4833 18.77006,14.81103 4.24305,31.64114c-15.1791,17.58563 -21.53497,9.4037 -31.36901,0.92041c-9.83399,-8.4833 -19.25694,-13.24599 -4.24305,-31.64114z" fill="url(#color-43)"/><path d="M93.19169,380.85643c-6.67749,-5.21463 -3.05551,-11.55599 -5.72837,-21.79533c-2.67286,-10.23935 -5.38336,-18.05563 1.66507,-20.23794c6.74564,-2.08855 9.68353,10.4797 12.3564,20.71905c2.67286,10.23932 0.17313,24.5532 -8.29308,21.3142z" data-paper-data="{&quot;index&quot;:null}" fill="url(#color-44)"/></g></g></g></svg>