<svg version="1.1" xmlns="http://www.w3.org/2000/svg" xmlns:xlink="http://www.w3.org/1999/xlink" width="239.74359" height="214.90959" viewBox="0,0,239.74359,214.90959"><defs><linearGradient x1="255.75506" y1="121.77613" x2="255.75506" y2="178.91091" gradientUnits="userSpaceOnUse" id="color-1"><stop offset="0" stop-color="#ff8500" stop-opacity="0"/><stop offset="1" stop-color="#ff8500"/></linearGradient><linearGradient x1="255.75506" y1="128.86109" x2="255.75506" y2="174.85911" gradientUnits="userSpaceOnUse" id="color-2"><stop offset="0" stop-color="#ffda00" stop-opacity="0"/><stop offset="1" stop-color="#ffda00"/></linearGradient><linearGradient x1="230.47279" y1="115.89974" x2="230.47279" y2="173.03453" gradientUnits="userSpaceOnUse" id="color-3"><stop offset="0" stop-color="#ff8500" stop-opacity="0"/><stop offset="1" stop-color="#ff8500"/></linearGradient><linearGradient x1="230.47279" y1="122.9847" x2="230.47279" y2="168.98272" gradientUnits="userSpaceOnUse" id="color-4"><stop offset="0" stop-color="#ffda00" stop-opacity="0"/><stop offset="1" stop-color="#ffda00"/></linearGradient><linearGradient x1="213.145" y1="142.26038" x2="213.145" y2="199.39514" gradientUnits="userSpaceOnUse" id="color-5"><stop offset="0" stop-color="#ff8500" stop-opacity="0"/><stop offset="1" stop-color="#ff8500"/></linearGradient><linearGradient x1="213.145" y1="149.34535" x2="213.145" y2="195.34337" gradientUnits="userSpaceOnUse" id="color-6"><stop offset="0" stop-color="#ffda00" stop-opacity="0"/><stop offset="1" stop-color="#ffda00"/></linearGradient><linearGradient x1="262.09965" y1="136.23318" x2="262.09965" y2="193.36794" gradientUnits="userSpaceOnUse" id="color-7"><stop offset="0" stop-color="#ff8500" stop-opacity="0"/><stop offset="1" stop-color="#ff8500"/></linearGradient><linearGradient x1="262.09965" y1="143.31815" x2="262.09965" y2="189.31614" gradientUnits="userSpaceOnUse" id="color-8"><stop offset="0" stop-color="#ffda00" stop-opacity="0"/><stop offset="1" stop-color="#ffda00"/></linearGradient><linearGradient x1="251.6638" y1="147.22796" x2="251.6638" y2="204.36272" gradientUnits="userSpaceOnUse" id="color-9"><stop offset="0" stop-color="#ff8500" stop-opacity="0"/><stop offset="1" stop-color="#ff8500"/></linearGradient><linearGradient x1="251.6638" y1="154.31292" x2="251.6638" y2="200.31094" gradientUnits="userSpaceOnUse" id="color-10"><stop offset="0" stop-color="#ffda00" stop-opacity="0"/><stop offset="1" stop-color="#ffda00"/></linearGradient><linearGradient x1="233.64734" y1="148.03467" x2="233.64734" y2="205.16943" gradientUnits="userSpaceOnUse" id="color-11"><stop offset="0" stop-color="#ff8500" stop-opacity="0"/><stop offset="1" stop-color="#ff8500"/></linearGradient><linearGradient x1="233.64734" y1="155.11964" x2="233.64734" y2="201.11763" gradientUnits="userSpaceOnUse" id="color-12"><stop offset="0" stop-color="#ffda00" stop-opacity="0"/><stop offset="1" stop-color="#ffda00"/></linearGradient><linearGradient x1="231.97953" y1="164.71272" x2="231.97953" y2="221.84751" gradientUnits="userSpaceOnUse" id="color-13"><stop offset="0" stop-color="#ff8500" stop-opacity="0"/><stop offset="1" stop-color="#ff8500"/></linearGradient><linearGradient x1="231.97953" y1="171.79769" x2="231.97953" y2="217.79571" gradientUnits="userSpaceOnUse" id="color-14"><stop offset="0" stop-color="#ffda00" stop-opacity="0"/><stop offset="1" stop-color="#ffda00"/></linearGradient><linearGradient x1="231.97953" y1="164.71272" x2="231.97953" y2="221.84751" gradientUnits="userSpaceOnUse" id="color-15"><stop offset="0" stop-color="#ff8500" stop-opacity="0"/><stop offset="1" stop-color="#ff8500"/></linearGradient><linearGradient x1="231.97953" y1="171.79769" x2="231.97953" y2="217.79571" gradientUnits="userSpaceOnUse" id="color-16"><stop offset="0" stop-color="#ffda00" stop-opacity="0"/><stop offset="1" stop-color="#ffda00"/></linearGradient><linearGradient x1="251.71523" y1="141.12019" x2="251.71523" y2="198.25498" gradientUnits="userSpaceOnUse" id="color-17"><stop offset="0" stop-color="#ff8500" stop-opacity="0"/><stop offset="1" stop-color="#ff8500"/></linearGradient><linearGradient x1="251.71523" y1="148.20515" x2="251.71523" y2="194.20317" gradientUnits="userSpaceOnUse" id="color-18"><stop offset="0" stop-color="#ffda00" stop-opacity="0"/><stop offset="1" stop-color="#ffda00"/></linearGradient><linearGradient x1="247.82372" y1="153.87194" x2="247.82372" y2="211.0067" gradientUnits="userSpaceOnUse" id="color-19"><stop offset="0" stop-color="#ff8500" stop-opacity="0"/><stop offset="1" stop-color="#ff8500"/></linearGradient><linearGradient x1="247.82372" y1="160.9569" x2="247.82372" y2="206.9549" gradientUnits="userSpaceOnUse" id="color-20"><stop offset="0" stop-color="#ffda00" stop-opacity="0"/><stop offset="1" stop-color="#ffda00"/></linearGradient><linearGradient x1="228.18538" y1="134.2872" x2="228.18538" y2="191.42199" gradientUnits="userSpaceOnUse" id="color-21"><stop offset="0" stop-color="#ff8500" stop-opacity="0"/><stop offset="1" stop-color="#ff8500"/></linearGradient><linearGradient x1="228.18538" y1="141.37216" x2="228.18538" y2="187.37018" gradientUnits="userSpaceOnUse" id="color-22"><stop offset="0" stop-color="#ffda00" stop-opacity="0"/><stop offset="1" stop-color="#ffda00"/></linearGradient><linearGradient x1="222.7532" y1="169.65007" x2="222.7532" y2="226.78486" gradientUnits="userSpaceOnUse" id="color-23"><stop offset="0" stop-color="#ff8500" stop-opacity="0"/><stop offset="1" stop-color="#ff8500"/></linearGradient><linearGradient x1="222.7532" y1="176.73503" x2="222.7532" y2="222.73305" gradientUnits="userSpaceOnUse" id="color-24"><stop offset="0" stop-color="#ffda00" stop-opacity="0"/><stop offset="1" stop-color="#ffda00"/></linearGradient><linearGradient x1="219.54097" y1="153.91702" x2="219.54097" y2="213.20279" gradientUnits="userSpaceOnUse" id="color-25"><stop offset="0" stop-color="#ff8500" stop-opacity="0"/><stop offset="1" stop-color="#ff8500"/></linearGradient><linearGradient x1="219.54097" y1="161.26871" x2="219.54097" y2="208.99845" gradientUnits="userSpaceOnUse" id="color-26"><stop offset="0" stop-color="#ffda00" stop-opacity="0"/><stop offset="1" stop-color="#ffda00"/></linearGradient><linearGradient x1="264.59835" y1="154.62375" x2="264.59835" y2="211.75851" gradientUnits="userSpaceOnUse" id="color-27"><stop offset="0" stop-color="#ff8500" stop-opacity="0"/><stop offset="1" stop-color="#ff8500"/></linearGradient><linearGradient x1="264.59835" y1="161.70871" x2="264.59835" y2="207.7067" gradientUnits="userSpaceOnUse" id="color-28"><stop offset="0" stop-color="#ffda00" stop-opacity="0"/><stop offset="1" stop-color="#ffda00"/></linearGradient><linearGradient x1="253.65588" y1="170.13649" x2="253.65588" y2="227.27128" gradientUnits="userSpaceOnUse" id="color-29"><stop offset="0" stop-color="#ff8500" stop-opacity="0"/><stop offset="1" stop-color="#ff8500"/></linearGradient><linearGradient x1="253.65588" y1="177.22146" x2="253.65588" y2="223.21948" gradientUnits="userSpaceOnUse" id="color-30"><stop offset="0" stop-color="#ffda00" stop-opacity="0"/><stop offset="1" stop-color="#ffda00"/></linearGradient></defs><g transform="translate(-120.12821,-72.5452)"><g data-paper-data="{&quot;isPaintingLayer&quot;:true}" fill-rule="nonzero" stroke-width="0" stroke-linecap="butt" stroke-linejoin="miter" stroke-miterlimit="10" stroke-dasharray="" stroke-dashoffset="0" style="mix-blend-mode: normal"><path d="M120.12821,287.45479v-214.90959h239.74359v214.90959z" fill="#ca6800" stroke="none"/><g data-paper-data="{&quot;index&quot;:null}" stroke="#000000"><path d="M276.16704,130.3545c3.19261,7.05893 5.06213,14.8592 5.06213,19.98901c0,15.77732 -11.40514,28.56739 -25.47411,28.56739c-14.06897,0 -25.47408,-12.79004 -25.47408,-28.56739c0,-1.4168 0.77383,-7.79685 3.22016,-14.91389c3.62976,-10.55993 10.86682,-16.91969 10.86682,-16.91969c0,0 3.08056,19.4654 4.701,18.13245c4.24023,-3.48791 4.87991,-10.13534 4.87991,-10.13534c0,0 2.00664,18.37832 7.81081,16.7401c5.80416,-1.63821 4.8591,-22.22902 4.8591,-22.22902c0,0 5.2404,-0.18843 9.54826,9.33639z" fill="url(#color-1)"/><path d="M278.54014,151.86012c0,12.70199 -10.20125,22.999 -22.78509,22.999c-12.58384,0 -22.78509,-10.29701 -22.78509,-22.999c0,-1.14067 0.69216,-6.27708 2.88025,-12.00685c3.24661,-8.50157 6.65324,-13.62169 6.65324,-13.62169c0,0 5.82185,15.67117 7.27126,14.59804c3.79262,-2.80808 2.00258,-7.54343 2.00258,-7.54343c0,0 4.15702,14.17967 9.3485,12.86079c5.19146,-1.31891 7.76846,-10.85876 7.76846,-10.85876c0,0 1.26495,-7.18907 5.11808,0.47916c2.85559,5.68298 4.52778,11.96283 4.52778,16.09271z" fill="url(#color-2)"/></g><g data-paper-data="{&quot;index&quot;:null}" stroke="#000000"><path d="M210.06081,124.47812c4.30786,-9.52482 9.54826,-9.33639 9.54826,-9.33639c0,0 -0.94506,20.59081 4.8591,22.22902c5.80417,1.63822 7.81081,-16.7401 7.81081,-16.7401c0,0 0.63968,6.64743 4.87991,10.13534c1.62044,1.33295 4.701,-18.13245 4.701,-18.13245c0,0 7.23706,6.35976 10.86682,16.91969c2.44633,7.11704 3.22016,13.49709 3.22016,14.91389c0,15.77735 -11.40511,28.56739 -25.47408,28.56739c-14.06897,0 -25.47411,-12.79007 -25.47411,-28.56739c0,-5.12981 1.86952,-12.93008 5.06213,-19.98901z" fill="url(#color-3)"/><path d="M207.68773,145.9837c0,-4.12988 1.67219,-10.40973 4.52778,-16.09271c3.85313,-7.66823 5.11808,-0.47916 5.11808,-0.47916c0,0 2.577,9.53985 7.76846,10.85876c5.19148,1.31888 9.3485,-12.86079 9.3485,-12.86079c0,0 -1.79004,4.73535 2.00258,7.54343c1.44941,1.07313 7.27126,-14.59804 7.27126,-14.59804c0,0 3.40663,5.12012 6.65324,13.62169c2.18809,5.72977 2.88025,10.86618 2.88025,12.00685c0,12.70199 -10.20125,22.999 -22.78509,22.999c-12.58384,0 -22.78509,-10.29701 -22.78509,-22.999z" fill="url(#color-4)"/></g><g data-paper-data="{&quot;index&quot;:null}" stroke="#000000"><path d="M192.73302,150.83876c4.30786,-9.52479 10.27795,-17.84916 10.27795,-17.84916c0,0 -1.6747,29.10358 4.12944,30.7418c5.80414,1.63822 3.91927,-19.90197 3.91927,-19.90197c0,0 4.53122,9.80927 8.77145,13.29722c1.62047,1.33295 4.701,-18.13242 4.701,-18.13242c0,0 7.23706,6.35977 10.86682,16.91969c2.44634,7.11704 3.22016,13.49705 3.22016,14.91389c0,15.77732 -11.40517,28.56739 -25.47411,28.56739c-14.06897,0 -25.47408,-12.79004 -25.47408,-28.56739c0,-5.12981 1.86955,-12.93008 5.06213,-19.98901z" fill="url(#color-5)"/><path d="M194.8877,156.25162c3.85313,-7.66823 5.84771,-8.99193 5.84771,-8.99193c0,0 1.84734,18.05263 7.03879,19.37151c5.19148,1.31892 5.45699,-16.02266 5.45699,-16.02266c0,0 2.10149,7.89723 5.89412,10.7053c1.44941,1.07313 7.27126,-14.59804 7.27126,-14.59804c0,0 3.40664,5.12012 6.65321,13.62169c2.18812,5.72977 2.88025,10.86621 2.88025,12.00685c0,12.70199 -10.20122,22.999 -22.78506,22.999c-12.58384,0 -22.78509,-10.29701 -22.78509,-22.999c0,-4.1299 1.67219,-10.40976 4.52778,-16.09274z" fill="url(#color-6)"/></g><g data-paper-data="{&quot;index&quot;:null}" stroke="#000000"><path d="M236.62557,164.80049c0,-5.12978 1.86955,-12.93005 5.06213,-19.98898c4.30786,-9.52482 10.27792,-17.84916 10.27792,-17.84916c0,0 -1.6747,29.10361 4.12944,30.74183c5.80414,1.63824 3.91927,-19.90197 3.91927,-19.90197c0,0 4.53122,9.8093 8.77145,13.29722c1.62047,1.33295 4.701,-18.13245 4.701,-18.13245c0,0 7.23706,6.35979 10.86682,16.91972c2.44633,7.11704 3.22016,13.49706 3.22016,14.91387c0,15.77732 -11.40514,28.56739 -25.47411,28.56739c-14.06894,0 -25.47408,-12.79007 -25.47408,-28.56739z" fill="url(#color-7)"/><path d="M239.31456,166.31711c0,-4.12988 1.67219,-10.40973 4.52778,-16.09271c3.85313,-7.66823 5.84774,-8.99193 5.84774,-8.99193c0,0 1.84731,18.05262 7.03879,19.37154c5.19148,1.31888 5.45696,-16.02269 5.45696,-16.02269c0,0 2.10152,7.89726 5.89415,10.70533c1.44941,1.07313 7.27126,-14.59804 7.27126,-14.59804c0,0 3.40663,5.12012 6.65324,13.62169c2.18809,5.72977 2.88022,10.86618 2.88022,12.00685c0,12.70199 -10.20119,22.999 -22.78506,22.999c-12.58384,0 -22.78506,-10.29701 -22.78506,-22.999z" fill="url(#color-8)"/></g><g data-paper-data="{&quot;index&quot;:null}" stroke="#000000"><path d="M231.25185,155.80634c4.30786,-9.52479 10.27792,-17.84916 10.27792,-17.84916c0,0 -1.67473,29.10358 4.12941,30.7418c5.80414,1.63822 3.9193,-19.90197 3.9193,-19.90197c0,0 4.53122,9.80927 8.77145,13.29722c1.62047,1.33295 4.701,-18.13242 4.701,-18.13242c0,0 7.23706,6.35976 10.86682,16.91969c2.44633,7.11704 3.22016,13.49706 3.22016,14.91389c0,15.77732 -11.40514,28.56739 -25.47411,28.56739c-14.06897,0 -25.47408,-12.79004 -25.47408,-28.56739c0,-5.12981 1.86955,-12.93005 5.06213,-19.98898z" fill="url(#color-9)"/><path d="M233.40652,161.2192c3.85313,-7.66823 5.84771,-8.99193 5.84771,-8.99193c0,0 1.84734,18.05262 7.03879,19.37151c5.19148,1.31891 5.45696,-16.02266 5.45696,-16.02266c0,0 2.10152,7.89723 5.89415,10.7053c1.44941,1.07313 7.27126,-14.59804 7.27126,-14.59804c0,0 3.40663,5.12012 6.65324,13.62169c2.18812,5.72977 2.88025,10.86621 2.88025,12.00685c0,12.70199 -10.20125,22.999 -22.78509,22.999c-12.58387,0 -22.78506,-10.29701 -22.78506,-22.999c0,-4.12991 1.67219,-10.40976 4.52778,-16.09274z" fill="url(#color-10)"/></g><g data-paper-data="{&quot;index&quot;:null}" stroke="#000000"><path d="M259.12145,176.60204c0,15.77732 -11.40514,28.56739 -25.47411,28.56739c-14.06897,0 -25.47408,-12.79004 -25.47408,-28.56739c0,-1.41681 0.77382,-7.79685 3.22016,-14.91389c3.62976,-10.55992 10.86682,-16.91969 10.86682,-16.91969c0,0 3.08056,19.4654 4.701,18.13245c4.24023,-3.48792 8.77145,-13.29722 8.77145,-13.29722c0,0 -1.88487,21.54019 3.91927,19.90197c5.80414,-1.63822 4.12944,-30.7418 4.12944,-30.7418c0,0 5.97006,8.32434 10.27792,17.84916c3.19258,7.05893 5.06213,14.8592 5.06213,19.98901z" fill="url(#color-11)"/><path d="M256.4324,178.11863c0,12.70199 -10.20122,22.999 -22.78506,22.999c-12.58384,0 -22.78509,-10.29701 -22.78509,-22.999c0,-1.14067 0.69216,-6.27708 2.88025,-12.00685c3.2466,-8.50157 6.65324,-13.62169 6.65324,-13.62169c0,0 5.82185,15.67117 7.27126,14.59804c3.79263,-2.80807 5.89415,-10.7053 5.89415,-10.7053c0,0 0.26548,17.34155 5.45696,16.02266c5.19148,-1.31891 7.03879,-19.37154 7.03879,-19.37154c0,0 1.99461,1.3237 5.84774,8.99193c2.85559,5.68298 4.52778,11.96284 4.52778,16.09271z" fill="url(#color-12)"/></g><g data-paper-data="{&quot;index&quot;:null}" stroke="#000000"><path d="M206.50545,193.28012c0,-5.12981 1.86955,-12.93008 5.06213,-19.98901c4.30786,-9.52482 10.27792,-17.84916 10.27792,-17.84916c0,0 -1.6747,29.10358 4.12944,30.7418c5.80414,1.63822 3.91927,-19.90197 3.91927,-19.90197c0,0 4.53122,9.8093 8.77145,13.29722c1.62047,1.33295 4.701,-18.13245 4.701,-18.13245c0,0 7.23706,6.35976 10.86682,16.91969c2.44633,7.11704 3.22016,13.49706 3.22016,14.91389c0,15.77735 -11.40514,28.56739 -25.47408,28.56739c-14.06897,0 -25.47411,-12.79007 -25.47411,-28.56739z" fill="url(#color-13)"/><path d="M209.19444,194.79671c0,-4.12991 1.67219,-10.40973 4.52778,-16.09271c3.85313,-7.66823 5.84774,-8.99193 5.84774,-8.99193c0,0 1.84734,18.05265 7.03879,19.37154c5.19148,1.31888 5.45696,-16.02266 5.45696,-16.02266c0,0 2.10152,7.89726 5.89415,10.7053c1.44941,1.07313 7.27126,-14.59804 7.27126,-14.59804c0,0 3.40663,5.12012 6.65324,13.62169c2.18809,5.72977 2.88025,10.86621 2.88025,12.00685c0,12.70199 -10.20122,22.999 -22.78509,22.999c-12.58384,0 -22.78506,-10.29701 -22.78506,-22.999z" fill="url(#color-14)"/></g><g data-paper-data="{&quot;index&quot;:null}" stroke="#000000"><path d="M206.50545,193.28012c0,-5.12981 1.86955,-12.93008 5.06213,-19.98901c4.30786,-9.52482 10.27792,-17.84916 10.27792,-17.84916c0,0 -1.6747,29.10358 4.12944,30.7418c5.80414,1.63822 3.91927,-19.90197 3.91927,-19.90197c0,0 4.53122,9.8093 8.77145,13.29722c1.62047,1.33295 4.701,-18.13245 4.701,-18.13245c0,0 7.23706,6.35976 10.86682,16.91969c2.44633,7.11704 3.22016,13.49706 3.22016,14.91389c0,15.77735 -11.40514,28.56739 -25.47408,28.56739c-14.06897,0 -25.47411,-12.79007 -25.47411,-28.56739z" fill="url(#color-15)"/><path d="M209.19444,194.79671c0,-4.12991 1.67219,-10.40973 4.52778,-16.09271c3.85313,-7.66823 5.84774,-8.99193 5.84774,-8.99193c0,0 1.84734,18.05265 7.03879,19.37154c5.19148,1.31888 5.45696,-16.02266 5.45696,-16.02266c0,0 2.10152,7.89726 5.89415,10.7053c1.44941,1.07313 7.27126,-14.59804 7.27126,-14.59804c0,0 3.40663,5.12012 6.65324,13.62169c2.18809,5.72977 2.88025,10.86621 2.88025,12.00685c0,12.70199 -10.20122,22.999 -22.78509,22.999c-12.58384,0 -22.78506,-10.29701 -22.78506,-22.999z" fill="url(#color-16)"/></g><g data-paper-data="{&quot;index&quot;:null}" stroke="#000000"><path d="M226.24115,169.68758c0,-5.12981 1.86955,-12.93008 5.06213,-19.98901c4.30786,-9.52482 10.27792,-17.84916 10.27792,-17.84916c0,0 -1.6747,29.10358 4.12944,30.7418c5.80414,1.63822 3.91927,-19.90197 3.91927,-19.90197c0,0 4.53122,9.8093 8.77145,13.29722c1.62047,1.33295 4.701,-18.13245 4.701,-18.13245c0,0 7.23706,6.35976 10.86682,16.91969c2.44633,7.11704 3.22016,13.49706 3.22016,14.91389c0,15.77735 -11.40514,28.56739 -25.47408,28.56739c-14.06897,0 -25.47411,-12.79007 -25.47411,-28.56739z" fill="url(#color-17)"/><path d="M228.93014,171.20418c0,-4.12991 1.67219,-10.40973 4.52778,-16.09271c3.85313,-7.66823 5.84774,-8.99193 5.84774,-8.99193c0,0 1.84734,18.05265 7.03879,19.37154c5.19148,1.31888 5.45696,-16.02266 5.45696,-16.02266c0,0 2.10152,7.89726 5.89415,10.7053c1.44941,1.07313 7.27126,-14.59804 7.27126,-14.59804c0,0 3.40663,5.12012 6.65324,13.62169c2.18809,5.72977 2.88025,10.86621 2.88025,12.00685c0,12.70199 -10.20122,22.999 -22.78509,22.999c-12.58384,0 -22.78506,-10.29701 -22.78506,-22.999z" fill="url(#color-18)"/></g><g data-paper-data="{&quot;index&quot;:null}" stroke="#000000"><path d="M227.41174,162.4503c4.30786,-9.52482 10.27792,-17.84916 10.27792,-17.84916c0,0 -1.6747,29.10358 4.12944,30.7418c5.80414,1.63822 3.91927,-19.90197 3.91927,-19.90197c0,0 4.53122,9.8093 8.77145,13.29722c1.62044,1.33295 4.701,-18.13245 4.701,-18.13245c0,0 7.23706,6.35976 10.86682,16.91969c2.44633,7.11704 3.22016,13.49709 3.22016,14.91389c0,15.77735 -11.40511,28.56739 -25.47408,28.56739c-14.06897,0 -25.47411,-12.79007 -25.47411,-28.56739c0,-5.12981 1.86952,-12.93008 5.06213,-19.98901z" fill="url(#color-19)"/><path d="M225.03863,183.95587c0,-4.12988 1.67219,-10.40973 4.52778,-16.09271c3.85313,-7.66823 5.84774,-8.99193 5.84774,-8.99193c0,0 1.84731,18.05262 7.03879,19.37154c5.19148,1.31888 5.45696,-16.02266 5.45696,-16.02266c0,0 2.10152,7.89723 5.89415,10.7053c1.44941,1.07313 7.27126,-14.59804 7.27126,-14.59804c0,0 3.40663,5.12012 6.65324,13.62169c2.18809,5.72977 2.88025,10.86618 2.88025,12.00685c0,12.70199 -10.20125,22.999 -22.78509,22.999c-12.58384,0 -22.78506,-10.29701 -22.78506,-22.999z" fill="url(#color-20)"/></g><g data-paper-data="{&quot;index&quot;:null}" stroke="#000000"><path d="M202.7113,162.85459c0,-5.12981 1.86955,-12.93008 5.06213,-19.98901c4.30786,-9.52482 10.27792,-17.84916 10.27792,-17.84916c0,0 -1.6747,29.10358 4.12944,30.7418c5.80414,1.63822 3.91927,-19.90197 3.91927,-19.90197c0,0 4.53122,9.8093 8.77145,13.29722c1.62047,1.33295 4.701,-18.13245 4.701,-18.13245c0,0 7.23706,6.35976 10.86682,16.91969c2.44633,7.11704 3.22016,13.49706 3.22016,14.91389c0,15.77735 -11.40514,28.56739 -25.47408,28.56739c-14.06897,0 -25.47411,-12.79007 -25.47411,-28.56739z" fill="url(#color-21)"/><path d="M205.40029,164.37119c0,-4.12991 1.67219,-10.40973 4.52778,-16.09271c3.85313,-7.66823 5.84774,-8.99193 5.84774,-8.99193c0,0 1.84734,18.05265 7.03879,19.37154c5.19148,1.31888 5.45696,-16.02266 5.45696,-16.02266c0,0 2.10152,7.89726 5.89415,10.7053c1.44941,1.07313 7.27126,-14.59804 7.27126,-14.59804c0,0 3.40663,5.12012 6.65324,13.62169c2.18809,5.72977 2.88025,10.86621 2.88025,12.00685c0,12.70199 -10.20122,22.999 -22.78509,22.999c-12.58384,0 -22.78506,-10.29701 -22.78506,-22.999z" fill="url(#color-22)"/></g><g data-paper-data="{&quot;index&quot;:null}" stroke="#000000"><path d="M222.75317,226.78486c-14.06894,0 -25.47408,-12.79004 -25.47408,-28.56739c0,-1.41684 0.77382,-7.79685 3.22016,-14.91389c3.62976,-10.55992 10.86682,-16.91969 10.86682,-16.91969c0,0 3.08053,19.4654 4.701,18.13245c4.24023,-3.48792 8.77145,-13.29722 8.77145,-13.29722c0,0 -1.88487,21.54019 3.91927,19.90197c5.80414,-1.63822 4.12944,-30.7418 4.12944,-30.7418c0,0 5.97006,8.32434 10.27792,17.84916c3.19258,7.05893 5.06213,14.8592 5.06213,19.98901c0,15.77732 -11.40514,28.56739 -25.47411,28.56739z" fill="url(#color-23)"/><path d="M245.53826,199.73409c0,12.70199 -10.20122,22.999 -22.78506,22.999c-12.58387,0 -22.78509,-10.29701 -22.78509,-22.999c0,-1.14064 0.69216,-6.27708 2.88025,-12.00685c3.2466,-8.50157 6.65324,-13.62169 6.65324,-13.62169c0,0 5.82185,15.67117 7.27126,14.59804c3.79263,-2.80804 5.89415,-10.7053 5.89415,-10.7053c0,0 0.26548,17.34155 5.45696,16.02266c5.19145,-1.31888 7.03879,-19.37154 7.03879,-19.37154c0,0 1.99461,1.3237 5.84774,8.99193c2.85559,5.68298 4.52778,11.96281 4.52778,16.09271z" fill="url(#color-24)"/></g><g data-paper-data="{&quot;index&quot;:null}" stroke="#000000"><path d="M193.10784,183.5599c0,-5.32293 1.93993,-13.41686 5.25271,-20.74155c4.47004,-9.88341 10.66486,-18.52114 10.66486,-18.52114c0,0 -1.73775,30.19926 4.2849,31.89915c6.02265,1.69989 4.06682,-20.65123 4.06682,-20.65123c0,0 4.70181,10.1786 9.10167,13.79783c1.68145,1.38313 4.87798,-18.81509 4.87798,-18.81509c0,0 7.50952,6.5992 11.27593,17.55667c2.53844,7.38498 3.34139,14.00521 3.34139,15.47536c0,16.37133 -11.83448,29.64288 -26.43311,29.64288c-14.59863,0 -26.43315,-13.27158 -26.43315,-29.64288z" fill="url(#color-25)"/><path d="M195.8981,185.13355c0,-4.28535 1.73514,-10.80163 4.69824,-16.69856c3.99819,-7.95692 6.06789,-9.33045 6.06789,-9.33045c0,0 1.91686,18.73227 7.30378,20.10083c5.38693,1.36854 5.6624,-16.62587 5.6624,-16.62587c0,0 2.18064,8.19454 6.11605,11.10833c1.50398,1.11353 7.545,-15.14762 7.545,-15.14762c0,0 3.53489,5.31288 6.90372,14.13451c2.27047,5.94548 2.98868,11.27526 2.98868,12.45888c0,13.18019 -10.5853,23.86485 -23.64289,23.86485c-13.05759,0 -23.64286,-10.68467 -23.64286,-23.86485z" fill="url(#color-26)"/></g><g data-paper-data="{&quot;index&quot;:null}" stroke="#000000"><path d="M290.07246,183.19111c0,15.77732 -11.40514,28.56739 -25.47411,28.56739c-14.06897,0 -25.47408,-12.79004 -25.47408,-28.56739c0,-1.41681 0.77382,-7.79685 3.22016,-14.91389c3.62976,-10.55992 10.86682,-16.91969 10.86682,-16.91969c0,0 3.08056,19.4654 4.701,18.13245c4.24023,-3.48792 8.77145,-13.29722 8.77145,-13.29722c0,0 -1.88487,21.54019 3.91927,19.90197c5.80414,-1.63822 4.12944,-30.7418 4.12944,-30.7418c0,0 5.97006,8.32434 10.27792,17.84916c3.19261,7.05893 5.06213,14.8592 5.06213,19.98901z" fill="url(#color-27)"/><path d="M287.38341,184.70771c0,12.70199 -10.20122,22.999 -22.78506,22.999c-12.58384,0 -22.78509,-10.29701 -22.78509,-22.999c0,-1.14067 0.69216,-6.27708 2.88025,-12.00685c3.2466,-8.50157 6.65324,-13.62169 6.65324,-13.62169c0,0 5.82185,15.67117 7.27126,14.59804c3.79263,-2.80807 5.89415,-10.7053 5.89415,-10.7053c0,0 0.26548,17.34155 5.45696,16.02266c5.19148,-1.31891 7.03879,-19.37154 7.03879,-19.37154c0,0 1.99461,1.3237 5.84774,8.99193c2.85559,5.68298 4.52778,11.96284 4.52778,16.09271z" fill="url(#color-28)"/></g><g data-paper-data="{&quot;index&quot;:null}" stroke="#000000"><path d="M253.65591,227.27127c-14.06897,0 -25.47411,-12.79007 -25.47411,-28.56739c0,-5.12981 1.86955,-12.93008 5.06213,-19.98901c4.30786,-9.52482 10.27792,-17.84916 10.27792,-17.84916c0,0 -1.6747,29.10358 4.12944,30.7418c5.80414,1.63822 3.91927,-19.90197 3.91927,-19.90197c0,0 4.53122,9.8093 8.77145,13.29722c1.62047,1.33295 4.701,-18.13245 4.701,-18.13245c0,0 7.23706,6.35977 10.86682,16.91969c2.44634,7.11704 3.22016,13.49705 3.22016,14.91389c0,15.77735 -11.40514,28.56739 -25.47408,28.56739z" fill="url(#color-29)"/><path d="M230.8708,200.22047c0,-4.1299 1.67219,-10.40973 4.52778,-16.09271c3.85313,-7.66823 5.84774,-8.99193 5.84774,-8.99193c0,0 1.84734,18.05266 7.03879,19.37154c5.19148,1.31889 5.45696,-16.02266 5.45696,-16.02266c0,0 2.10152,7.89726 5.89415,10.7053c1.44941,1.07313 7.27126,-14.59804 7.27126,-14.59804c0,0 3.40664,5.12012 6.65324,13.62169c2.18809,5.72977 2.88025,10.86621 2.88025,12.00685c0,12.70199 -10.20122,22.999 -22.78509,22.999c-12.58384,0 -22.78506,-10.29701 -22.78506,-22.999z" fill="url(#color-30)"/></g></g></g></svg>