<svg version="1.1" xmlns="http://www.w3.org/2000/svg" xmlns:xlink="http://www.w3.org/1999/xlink" width="478.37982" height="305.15711" viewBox="0,0,478.37982,305.15711"><defs><linearGradient x1="233.2004" y1="253.85635" x2="246.80986" y2="253.85635" gradientUnits="userSpaceOnUse" id="color-1"><stop offset="0" stop-color="#7a7a7a"/><stop offset="1" stop-color="#a4a4a4"/></linearGradient><linearGradient x1="205.43232" y1="214.38823" x2="212.80176" y2="214.38823" gradientUnits="userSpaceOnUse" id="color-2"><stop offset="0" stop-color="#7a7a7a"/><stop offset="1" stop-color="#a4a4a4"/></linearGradient><linearGradient x1="265.64848" y1="214.38823" x2="273.0179" y2="214.38823" gradientUnits="userSpaceOnUse" id="color-3"><stop offset="0" stop-color="#7a7a7a"/><stop offset="1" stop-color="#a4a4a4"/></linearGradient><linearGradient x1="240.20034" y1="184.36083" x2="240.20034" y2="208.30692" gradientUnits="userSpaceOnUse" id="color-4"><stop offset="0" stop-color="#a4a4a4"/><stop offset="1" stop-color="#7a7a7a"/></linearGradient><linearGradient x1="239.55834" y1="191.45424" x2="239.55834" y2="198.50789" gradientUnits="userSpaceOnUse" id="color-5"><stop offset="0" stop-color="#6b6b6b"/><stop offset="1" stop-color="#222222"/></linearGradient><linearGradient x1="249.53345" y1="264.49926" x2="249.53345" y2="268.98393" gradientUnits="userSpaceOnUse" id="color-6"><stop offset="0" stop-color="#9a9a9a"/><stop offset="1" stop-color="#dedede"/></linearGradient><linearGradient x1="242.93831" y1="264.45862" x2="242.93831" y2="268.94329" gradientUnits="userSpaceOnUse" id="color-7"><stop offset="0" stop-color="#9a9a9a"/><stop offset="1" stop-color="#dedede"/></linearGradient><linearGradient x1="236.38378" y1="264.45862" x2="236.38378" y2="268.94329" gradientUnits="userSpaceOnUse" id="color-8"><stop offset="0" stop-color="#9a9a9a"/><stop offset="1" stop-color="#dedede"/></linearGradient><linearGradient x1="229.78863" y1="264.41797" x2="229.78863" y2="268.90264" gradientUnits="userSpaceOnUse" id="color-9"><stop offset="0" stop-color="#9a9a9a"/><stop offset="1" stop-color="#dedede"/></linearGradient><linearGradient x1="239.44032" y1="259.88095" x2="239.44032" y2="266.54675" gradientUnits="userSpaceOnUse" id="color-10"><stop offset="0" stop-color="#a4a4a4"/><stop offset="1" stop-color="#3d3d3d"/></linearGradient><linearGradient x1="249.49281" y1="272.36201" x2="249.49281" y2="276.84665" gradientUnits="userSpaceOnUse" id="color-11"><stop offset="0" stop-color="#dedede"/><stop offset="1" stop-color="#9a9a9a"/></linearGradient><linearGradient x1="242.89764" y1="272.40266" x2="242.89764" y2="276.88733" gradientUnits="userSpaceOnUse" id="color-12"><stop offset="0" stop-color="#dedede"/><stop offset="1" stop-color="#9a9a9a"/></linearGradient><linearGradient x1="236.34314" y1="272.40266" x2="236.34314" y2="276.88733" gradientUnits="userSpaceOnUse" id="color-13"><stop offset="0" stop-color="#dedede"/><stop offset="1" stop-color="#9a9a9a"/></linearGradient><linearGradient x1="229.74798" y1="272.44331" x2="229.74798" y2="276.92798" gradientUnits="userSpaceOnUse" id="color-14"><stop offset="0" stop-color="#dedede"/><stop offset="1" stop-color="#9a9a9a"/></linearGradient><linearGradient x1="239.39967" y1="274.79921" x2="239.39967" y2="281.465" gradientUnits="userSpaceOnUse" id="color-15"><stop offset="0" stop-color="#a4a4a4"/><stop offset="1" stop-color="#3d3d3d"/></linearGradient><radialGradient cx="209.25688" cy="195.28385" r="21.94038" gradientUnits="userSpaceOnUse" id="color-16"><stop offset="0" stop-color="#ffffff"/><stop offset="1" stop-color="#c4bfb5"/></radialGradient><radialGradient cx="215.47288" cy="191.31703" r="8.15358" gradientUnits="userSpaceOnUse" id="color-17"><stop offset="0" stop-color="#ffffff"/><stop offset="1" stop-color="#ffffff" stop-opacity="0"/></radialGradient><radialGradient cx="269.16044" cy="195.5142" r="21.94038" gradientUnits="userSpaceOnUse" id="color-18"><stop offset="0" stop-color="#ffffff"/><stop offset="1" stop-color="#c5c1b7"/></radialGradient><radialGradient cx="275.06503" cy="191.31703" r="8.15358" gradientUnits="userSpaceOnUse" id="color-19"><stop offset="0" stop-color="#ffffff"/><stop offset="1" stop-color="#ffffff" stop-opacity="0"/></radialGradient><linearGradient x1="239.22512" y1="233.02911" x2="239.22512" y2="239.73949" gradientUnits="userSpaceOnUse" id="color-20"><stop offset="0" stop-color="#a4a4a4"/><stop offset="1" stop-color="#686868"/></linearGradient><radialGradient cx="279.65711" cy="172.19479" r="83.81501" gradientUnits="userSpaceOnUse" id="color-21"><stop offset="0" stop-color="#e0c297"/><stop offset="1" stop-color="#b9a17e"/></radialGradient><radialGradient cx="256.83902" cy="147.70076" r="69.27868" gradientUnits="userSpaceOnUse" id="color-22"><stop offset="0" stop-color="#634a14"/><stop offset="1" stop-color="#443014"/></radialGradient><linearGradient x1="240.40646" y1="318.25047" x2="240.40646" y2="436.47094" gradientUnits="userSpaceOnUse" id="color-23"><stop offset="0" stop-color="#a4a4a4"/><stop offset="1" stop-color="#7a7a7a"/></linearGradient><linearGradient x1="240.40646" y1="318.25047" x2="240.40646" y2="327.89466" gradientUnits="userSpaceOnUse" id="color-24"><stop offset="0" stop-color="#a4a4a4"/><stop offset="1" stop-color="#7a7a7a"/></linearGradient><linearGradient x1="240.40646" y1="313.88248" x2="240.40646" y2="332.26267" gradientUnits="userSpaceOnUse" id="color-25"><stop offset="0" stop-color="#303030"/><stop offset="1" stop-color="#4b4b4b"/></linearGradient><radialGradient cx="368.65734" cy="322.18245" r="15.96444" gradientUnits="userSpaceOnUse" id="color-26"><stop offset="0" stop-color="#7582b0"/><stop offset="1" stop-color="#485b9d"/></radialGradient><radialGradient cx="385.40372" cy="328.90896" r="34.44025" gradientUnits="userSpaceOnUse" id="color-27"><stop offset="0" stop-color="#7582b0"/><stop offset="1" stop-color="#485b9d"/></radialGradient><radialGradient cx="114.91621" cy="321.14332" r="15.96444" gradientUnits="userSpaceOnUse" id="color-28"><stop offset="0" stop-color="#7582b0"/><stop offset="1" stop-color="#485b9d"/></radialGradient><radialGradient cx="98.1546" cy="327.83178" r="34.44025" gradientUnits="userSpaceOnUse" id="color-29"><stop offset="0" stop-color="#7582b0"/><stop offset="1" stop-color="#485b9d"/></radialGradient><radialGradient cx="299.85854" cy="315.7254" r="15.87251" gradientUnits="userSpaceOnUse" id="color-30"><stop offset="0" stop-color="#7582b0"/><stop offset="1" stop-color="#485b9d"/></radialGradient><radialGradient cx="319.38386" cy="320.11133" r="35.00398" gradientUnits="userSpaceOnUse" id="color-31"><stop offset="0" stop-color="#7582b0"/><stop offset="1" stop-color="#485b9d"/></radialGradient><radialGradient cx="183.7295" cy="314.84253" r="15.87251" gradientUnits="userSpaceOnUse" id="color-32"><stop offset="0" stop-color="#7582b0"/><stop offset="1" stop-color="#485b9d"/></radialGradient><radialGradient cx="164.19428" cy="319.18411" r="35.00398" gradientUnits="userSpaceOnUse" id="color-33"><stop offset="0" stop-color="#7582b0"/><stop offset="1" stop-color="#485b9d"/></radialGradient><linearGradient x1="174.24519" y1="363.42654" x2="307.90016" y2="363.42654" gradientUnits="userSpaceOnUse" id="color-34"><stop offset="0" stop-color="#7582b0"/><stop offset="1" stop-color="#485b9d"/></linearGradient><linearGradient x1="455.74362" y1="330.53356" x2="460.0421" y2="352.9561" gradientUnits="userSpaceOnUse" id="color-35"><stop offset="0" stop-color="#e0c297"/><stop offset="1" stop-color="#b9a17e"/></linearGradient><linearGradient x1="448.63169" y1="311.26145" x2="452.29649" y2="330.37851" gradientUnits="userSpaceOnUse" id="color-36"><stop offset="0" stop-color="#e0c297"/><stop offset="1" stop-color="#b9a17e"/></linearGradient><linearGradient x1="434.15455" y1="295.11482" x2="438.99755" y2="320.37781" gradientUnits="userSpaceOnUse" id="color-37"><stop offset="0" stop-color="#e0c297"/><stop offset="1" stop-color="#b9a17e"/></linearGradient><linearGradient x1="391.22877" y1="352.34198" x2="449.20006" y2="340.12335" gradientUnits="userSpaceOnUse" id="color-38"><stop offset="0" stop-color="#e0c297"/><stop offset="1" stop-color="#b9a17e"/></linearGradient><linearGradient x1="392.6389" y1="328.24484" x2="408.70868" y2="328.15234" gradientUnits="userSpaceOnUse" id="color-39"><stop offset="0" stop-color="#e0c297"/><stop offset="1" stop-color="#b9a17e"/></linearGradient><linearGradient x1="27.81119" y1="329.29664" x2="23.4618" y2="351.70936" gradientUnits="userSpaceOnUse" id="color-40"><stop offset="0" stop-color="#e0c297"/><stop offset="1" stop-color="#b9a17e"/></linearGradient><linearGradient x1="34.96687" y1="310.04073" x2="31.25866" y2="329.14942" gradientUnits="userSpaceOnUse" id="color-41"><stop offset="0" stop-color="#e0c297"/><stop offset="1" stop-color="#b9a17e"/></linearGradient><linearGradient x1="49.48063" y1="293.92703" x2="44.58027" y2="319.17895" gradientUnits="userSpaceOnUse" id="color-42"><stop offset="0" stop-color="#e0c297"/><stop offset="1" stop-color="#b9a17e"/></linearGradient><linearGradient x1="92.27635" y1="351.25151" x2="34.33295" y2="338.90127" gradientUnits="userSpaceOnUse" id="color-43"><stop offset="0" stop-color="#e0c297"/><stop offset="1" stop-color="#b9a17e"/></linearGradient><linearGradient x1="90.92095" y1="327.15124" x2="74.85141" y2="327.02224" gradientUnits="userSpaceOnUse" id="color-44"><stop offset="0" stop-color="#e0c297"/><stop offset="1" stop-color="#b9a17e"/></linearGradient></defs><g transform="translate(-2.57185,-131.31383)"><g data-paper-data="{&quot;isPaintingLayer&quot;:true}" fill-rule="nonzero" stroke-linecap="butt" stroke-linejoin="miter" stroke-miterlimit="10" stroke-dasharray="" stroke-dashoffset="0" style="mix-blend-mode: normal"><path d="M194.50817,431.60973c0,0 1.26751,-61.99924 -2.48665,-85.6947c-2.5623,-16.17272 -17.86192,-37.43707 -17.86192,-37.43707c0,0 44.93094,-13.12885 67.42267,-12.96693c22.05123,0.15876 66.23232,13.92923 66.23232,13.92923c0,0 -17.67722,18.41433 -20.29402,33.59279c-4.05685,23.53163 -1.68247,88.57667 -1.68247,88.57667z" fill="#191919" stroke="none" stroke-width="0"/><path d="M310.95798,203.43087c0,15.13548 24.16645,29.50439 5.00219,55.82675c-19.91969,27.35999 -52.66859,32.96519 -77.33851,32.96519c-26.43727,0 -49.91896,0.10995 -75.89407,-35.01908c-17.62837,-23.84079 3.55776,-40.38799 3.55776,-53.77288c0,-39.57156 32.38606,-71.65065 72.33629,-71.65065c39.95023,0 72.33629,32.07909 72.33629,71.65065z" fill="#191919" stroke="none" stroke-width="0"/><g><path d="M276.12011,248.32453c2.32459,-1.61743 4.82921,-7.06241 5.56551,-9.76092c-0.02029,-3.44884 2.2661,-7.75961 1.48831,-11.01081c-0.84167,-3.51823 -3.12302,-6.88421 -4.3004,-10.32361c-1.07081,-3.12799 -2.21382,-6.14124 -3.62629,-8.98982c1.00712,3.83512 1.48247,7.8344 0.98435,10.98052c-0.6704,4.23429 -2.77375,8.23346 -2.045,12.67003c1.01074,6.15326 5.30302,7.89055 2.12282,14.53528c-0.64715,1.12529 -1.38111,2.02391 -2.18764,2.74152c0.71364,-0.15273 1.38888,-0.41816 1.9983,-0.84218zM271.60437,196.12832c5.41777,5.6196 8.43437,12.36609 10.92985,19.72486c1.21094,3.57084 3.6452,7.08423 4.4299,10.77301c0.86208,4.05247 -1.40009,8.36794 -1.42177,12.49683c-1.04119,3.75037 -3.9701,10.29418 -7.23894,12.54122c-3.72628,2.56147 -8.32666,1.4118 -12.3625,0.93742c-7.55561,-0.88807 -15.04506,0.27628 -22.24843,2.1066c-0.43249,0.00255 -0.86495,0.00467 -1.29739,0.00643l0.28765,1.94499c0,0 -0.61576,1.91308 -2.46301,1.27539c-1.15351,-0.39822 -1.34662,-1.29375 -1.32897,-1.91022c-0.4636,-0.29589 -0.93008,-0.57906 -1.39733,-0.85287c-0.54631,0.24134 -1.50578,0.43021 -2.28983,-0.65246c-0.01922,-0.02652 -0.03767,-0.05291 -0.05542,-0.07921c-0.33646,-0.18853 -0.66371,-0.50259 -0.82029,-1.02586c-0.29092,-0.15732 -0.5802,-0.31399 -0.86737,-0.47077c0.78813,1.38532 1.46939,2.85321 2.92587,3.81149l1.25225,0.96877c0,0 1.55775,1.20994 0.38945,2.82318c-1.16832,1.61325 -2.72604,0.40331 -2.72604,0.40331l-1.07583,-0.83951c-2.38891,-1.70438 -2.97948,-4.65022 -4.92936,-6.31683c-0.88295,-0.7547 -2.28128,-0.20569 -3.42386,-0.28013c-2.43574,-0.15868 -6.3862,-0.23097 -8.39779,-1.96781c-2.91536,-2.51716 -2.85309,-8.57203 -5.19588,-11.82429c-6.41008,-0.39767 -11.87502,-5.89213 -10.60905,-12.99216c0.31439,-1.76333 1.76303,-3.10474 2.38974,-4.7763c1.30613,-3.4839 -1.87953,-8.46515 -2.39145,-11.69268c-0.69105,-4.35714 1.21228,-7.55345 3.60728,-10.59145c0.09233,-0.24844 0.18767,-0.49975 0.28559,-0.75428c0,0 0.39588,-1.02494 1.33407,-1.25485c-0.01044,-0.23512 -0.01657,-0.47131 -0.0183,-0.70866c0,0 0,-2.01655 1.94717,-2.01655c1.94717,0 1.94719,2.01655 1.94719,2.01655c-0.06795,7.26454 4.83096,11.67689 8.85744,16.7874c0.91886,1.16628 2.17655,4.01142 2.46071,5.45631c0.26335,1.33908 -0.71357,4.14789 0.58623,5.22384c1.87986,1.55611 6.38774,1.45916 7.73934,3.50845c1.52801,2.31673 1.22815,5.47773 2.13841,8.12022c1.77737,3.0028 2.82385,5.80976 3.75185,9.17335l0.26603,0.82045c0,0 0.61577,1.91308 -1.23148,2.55078c-1.84727,0.6377 -2.46301,-1.27539 -2.46301,-1.27539l-0.31601,-0.98784c-0.87773,-3.18155 -1.85912,-5.6928 -3.52288,-8.54625c-0.81342,-2.35659 -0.53016,-5.09172 -1.64527,-7.31198c-0.46928,-0.93436 -6.26818,-1.98194 -7.39318,-3.12189c-2.80728,-2.84456 -1.00679,-6.1155 -2.46151,-9.34793c-1.00463,-2.23234 -2.99162,-3.4093 -4.44569,-5.36558c-2.07273,-2.78866 -3.91638,-5.81961 -5.04715,-9.10202c-0.57972,2.01443 -0.61393,3.8992 0.90364,6.10247c1.11039,1.61211 2.87584,2.75992 3.68153,4.55578c1.6461,3.6691 -0.77647,10.64573 2.75213,13.52507c4.42888,3.61398 9.25808,5.81568 11.61318,11.48626c0.7466,5.17452 3.56973,7.65286 7.06606,9.67899h0.66242c2.47036,0.10856 4.77396,-1.73258 7.02625,-2.82091c4.13047,-1.99589 8.40305,-3.47613 12.06869,-6.3301c2.71307,-2.5274 1.72484,-9.09967 2.60404,-12.59046c0.75548,-2.99944 3.23482,-4.15832 5.0927,-6.23462c2.04863,-2.28948 3.92623,-5.82076 4.92203,-8.7003c1.86851,-5.40313 -0.47758,-10.98946 -0.4857,-16.45961c0,0 0,-2.01655 1.94717,-2.01655c1.55503,0 1.86821,1.28609 1.93126,1.80413c0.98256,-0.22452 1.77368,0.5948 1.77368,0.5948zM261.78821,247.9778c3.96061,0 8.97381,0.63559 11.08767,-3.45567c2.38151,-4.87863 -1.66446,-7.01708 -2.53334,-11.98618c-0.85581,-4.89439 1.26533,-9.19721 2.02915,-13.8514c0.51427,-3.13355 -0.20959,-7.60896 -1.47567,-11.54988c0.07908,2.14873 -0.09524,4.31815 -0.83902,6.5603c-1.10298,3.32486 -3.34266,7.31582 -5.66844,9.93396c-1.16362,1.3099 -3.83557,2.62071 -4.21963,4.61507c-0.97273,5.051 -0.2292,10.63596 -3.79818,14.53376c-1.93507,1.50012 -4.60715,3.30469 -7.52878,4.97309c4.20894,-0.17243 8.50128,0.22696 12.94623,0.22696zM223.24605,240.29192c-1.9448,-4.72758 -7.02698,-6.41415 -10.50357,-9.61036c-3.5363,-3.25106 -2.83362,-8.46483 -3.23459,-12.71482c-0.24953,-2.64497 -1.70959,-3.43301 -3.07262,-5.09187c0.57562,1.64647 1.21414,3.28898 1.41157,4.92682c0.77307,6.41379 -6.6818,15.03924 3.2325,17.88962c0.98079,0.28198 2.01358,0.31012 3.02036,0.46515c2.4659,2.80052 3.50387,4.78116 4.71121,8.35094c0.4375,1.29356 0.07453,3.13827 1.1513,3.93517c2.11634,1.56628 5.29918,0.85373 8.06562,0.97769c-2.42164,-2.07212 -4.21591,-4.79496 -4.78178,-9.12836z" fill="#000000" stroke="none" stroke-width="0.5"/><path d="M233.2004,318.36371v-129.01472h13.60946v128.85484z" fill="url(#color-1)" stroke="none" stroke-width="0"/><path d="M205.43232,239.42749v-50.07851h7.36944v50.01645z" fill="url(#color-2)" stroke="none" stroke-width="0"/><path d="M265.64848,239.42749v-50.07851h7.36944v50.01645z" fill="url(#color-3)" stroke="none" stroke-width="0"/><path d="M197.99378,208.30692v-23.94606h84.41314v23.94606z" fill="url(#color-4)" stroke="none" stroke-width="0"/><path d="M184.32518,198.50789v-7.0537h110.46634v7.0537z" fill="url(#color-5)" stroke="none" stroke-width="0"/><g stroke="none" stroke-width="0"><path d="M246.77366,268.98393v-4.48467h5.51958v4.48467z" fill="url(#color-6)"/><path d="M240.17851,268.94329v-4.48467h5.51959v4.48467z" fill="url(#color-7)"/><path d="M233.62401,268.94329v-4.48467h5.51958v4.48467z" fill="url(#color-8)"/><path d="M227.02886,268.90264v-4.48467h5.51958v4.48467z" fill="url(#color-9)"/><path d="M222.53936,266.54675v-6.66578h33.80193v6.66578z" fill="url(#color-10)"/></g><g data-paper-data="{&quot;index&quot;:null}" stroke="none" stroke-width="0"><path d="M252.2526,272.36201v4.48467h-5.51958v-4.48467z" fill="url(#color-11)"/><path d="M245.65744,272.40266v4.48467h-5.51958v-4.48467z" fill="url(#color-12)"/><path d="M239.10295,272.40266v4.48467h-5.51958v-4.48467z" fill="url(#color-13)"/><path d="M232.50779,272.44331v4.48467h-5.51958v-4.48467z" fill="url(#color-14)"/><path d="M256.30064,274.79921v6.66578h-33.80193v-6.66578c0,0 9.45422,0 14.66796,0c5.9548,0 19.13397,0 19.13397,0z" fill="url(#color-15)"/></g><g stroke-width="0"><g><path d="M231.08756,195.28385c0,12.11734 -9.77393,21.94038 -21.83068,21.94038c-12.05675,0 -21.83068,-9.82305 -21.83068,-21.94038c0,-12.11734 9.77393,-21.94038 21.83068,-21.94038c12.05675,0 21.83068,9.82305 21.83068,21.94038z" fill="url(#color-16)" stroke="#000000"/><path d="M216.65286,195.3875c0,4.5031 -3.40159,8.15358 -7.59767,8.15358c-4.19607,0 -7.59766,-3.65049 -7.59766,-8.15358c0,-4.5031 3.40158,-8.15357 7.59766,-8.15357c4.19607,0 7.59767,3.65048 7.59767,8.15357z" fill="#000000" stroke="none"/></g><path d="M223.07054,191.31703c0,4.5031 -3.40159,8.15358 -7.59767,8.15358c-4.19607,0 -7.59766,-3.65049 -7.59766,-8.15358c0,-4.5031 3.40158,-8.15357 7.59766,-8.15357c4.19607,0 7.59767,3.65048 7.59767,8.15357z" fill="url(#color-17)" stroke="none"/></g><g stroke-width="0"><g><path d="M290.99115,195.5142c0,12.11734 -9.77393,21.94038 -21.83068,21.94038c-12.05675,0 -21.83068,-9.82305 -21.83068,-21.94038c0,-12.11734 9.77393,-21.94038 21.83068,-21.94038c12.05675,0 21.83068,9.82305 21.83068,21.94038z" fill="url(#color-18)" stroke="#000000"/><path d="M276.55643,195.61787c0,4.5031 -3.40159,8.15358 -7.59766,8.15358c-4.19607,0 -7.59766,-3.65049 -7.59766,-8.15358c0,-4.5031 3.40158,-8.15357 7.59766,-8.15357c4.19607,0 7.59766,3.65048 7.59766,8.15357z" fill="#000000" stroke="none"/></g><path d="M282.66268,191.31703c0,4.5031 -3.40159,8.15358 -7.59767,8.15358c-4.19607,0 -7.59766,-3.65049 -7.59766,-8.15358c0,-4.5031 3.40158,-8.15357 7.59766,-8.15357c4.19607,0 7.59767,3.65048 7.59767,8.15357z" fill="url(#color-19)" stroke="none"/></g><path d="M205.43232,239.73949v-6.71039h67.58561v6.70206z" fill="url(#color-20)" stroke="none" stroke-width="0"/></g><g stroke="none" stroke-width="0"><g><path d="M310.95798,203.43087c0,15.13548 24.16645,29.50439 5.00222,55.82675c-19.91969,27.35999 -52.66859,32.96519 -77.33851,32.96519c-26.43727,0 -49.91896,0.10995 -75.89407,-35.01908c-17.62837,-23.84079 3.55776,-40.38799 3.55776,-53.77288c0,-39.57156 32.38606,-71.65065 72.33629,-71.65065c39.95023,0 72.33629,32.07909 72.33629,71.65065zM239.34931,281.05965c15.0286,0.28169 28.91309,-5.43498 38.97819,-12.31166c-0.07629,0.47261 -0.15692,0.92674 -0.01584,1.15181c1.06337,1.6964 2.68657,0.07973 3.38826,2.39035l-0.04141,0.36892c0,0 0,0.80663 0.80663,0.80663c0.80663,0 0.80663,-0.80663 0.80663,-0.80663l-0.04141,-0.87909c-0.34001,-0.96069 -0.97527,-2.23195 -2.01655,-2.67415c-0.44826,-0.19035 -1.51986,0.5557 -1.45921,0.07249c0.06617,-0.52731 0.1031,-1.02853 0.06759,-1.47996c8.99831,-6.49472 14.5744,-13.78197 14.5744,-17.9665c0,-1.54568 -0.79219,-2.22471 -2.24666,-2.29158c0.68845,-2.14576 1.71285,-4.62263 -0.32806,-5.47852c-1.08147,-0.45354 -3.11973,0.21202 -3.54992,1.37254c-0.23874,0.64411 1.02902,1.73854 0.40286,2.02106c-0.25305,0.11417 -2.12842,0.15585 -2.49601,0.624c-0.22766,0.28995 -0.02513,1.04124 -0.3937,1.0335c-0.7197,0.7197 -0.93853,1.57043 -1.34781,2.33378c-10.16822,3.67037 -26.86899,11.34115 -44.12734,11.30783c-35.73151,-0.06893 -53.04297,-19.14443 -53.04297,-10.23471c0,1.73247 0.86109,3.92891 2.46387,6.34742c-1.37996,0.12875 -2.60188,0.16995 -4.30127,-0.45336c-1.20678,-0.44263 -2.31058,0.39151 -3.26203,-0.02394c-0.04305,-0.23224 -0.20226,-0.66147 -0.79065,-0.66147c-0.80663,0 -0.80663,0.80663 -0.80663,0.80663l0.3592,0.98316c2.69171,1.58658 6.50876,1.00953 9.8421,0.81291c7.46429,9.84951 26.09921,22.40726 48.57779,22.82857zM209.32932,219.44985c13.36458,0 24.1987,-10.83413 24.1987,-24.1987c0,-13.36458 -10.83413,-24.1987 -24.1987,-24.1987c-13.36458,0 -24.1987,10.83413 -24.1987,24.1987c0,13.36458 10.83413,24.1987 24.1987,24.1987zM270.11053,219.82046c13.36458,0 24.1987,-10.83413 24.1987,-24.1987c0,-13.36458 -10.83413,-24.1987 -24.1987,-24.1987c-13.36458,0 -24.1987,10.83413 -24.1987,24.1987c0,13.36458 10.83413,24.1987 24.1987,24.1987z" fill="url(#color-21)"/><path d="M239.00199,131.31383c31.67657,0 58.79256,18.54785 69.96853,44.834c-2.34905,-2.14808 -4.85672,-4.14518 -7.53507,-5.97515c-3.27904,-5.02358 -7.32094,-5.97913 -13.05043,-5.97913c-1.36067,0 -3.28638,0.45297 -5.08965,0.55168c-1.21214,-0.26748 -2.42455,-0.52296 -3.63642,-0.77242c-0.35567,-0.27325 -0.65462,-0.63138 -0.87925,-1.09508c-1.83951,-2.51344 -4.56729,-1.60462 -7.39718,-2.69802c-6.44481,-2.49013 -13.35884,-2.44366 -20.27738,-1.61693c-1.95558,-0.23997 -3.90948,-0.44391 -5.86539,-0.61418c-2.13055,-1.37008 -4.11052,-3.81477 -6.40905,-4.88741c-3.52057,-1.64294 -6.04955,1.3672 -8.71658,2.52811c-1.34598,0.58587 -3.09974,0.77624 -4.54779,1.51612c-5.09748,0.61336 -10.49794,-0.26967 -15.54759,0.58563c-0.86936,0.14725 -5.49925,1.17501 -6.15623,0.53279c-2.16872,-2.11997 -3.89477,-1.99098 -6.72604,-0.23624c-3.68903,5.59363 -9.51463,6.46634 -15.31778,8.86845c-0.1097,-0.62726 -0.79183,-0.62726 -0.79183,-0.62726c-2.69286,0.04829 -6.87119,2.91988 -10.00292,5.64666c12.18723,-24.00122 38.04672,-40.56158 67.97806,-40.56158z" fill="url(#color-22)"/></g><path d="M268.69998,164.66272c8.71137,-0.2876 17.0502,3.9906 17.10925,5.77956c0.05906,1.78894 -8.05339,-1.54779 -16.76478,-1.26017c-8.71137,0.2876 -16.01089,1.11256 -16.01089,1.11256c0,0 6.95503,-5.34433 15.66643,-5.63194z" fill="#000000"/><path d="M211.44145,168.47653c-8.71137,-0.2876 -16.82382,3.04911 -16.76477,1.26017c0.05906,-1.78894 8.39788,-6.06717 17.10925,-5.77956c8.71137,0.2876 15.72547,3.84302 15.66643,5.63195c0,0 -7.29953,-0.82497 -16.0109,-1.11257z" data-paper-data="{&quot;index&quot;:null}" fill="#000000"/></g><g stroke="none"><path d="M238.13232,326.1454c0.62432,-0.41622 1.17122,-0.44526 1.61187,-0.31762l-0.01384,-1.7485c0,0 0,-2.01655 2.01655,-2.01655c2.01655,0 2.01655,2.01655 2.01655,2.01655l-0.0195,1.90431c0.22276,0.77966 0.41085,1.66437 0.54014,2.5996l0.33775,1.18211c0.32981,1.15604 0.57586,2.31178 0.75937,3.46691c3.30072,7.10013 2.44056,16.5077 2.43617,24.01051c-0.01958,0.2112 -0.03978,0.42215 -0.06053,0.63293c2.26831,5.46734 5.59578,10.71318 5.98671,16.62245c0.38331,5.79437 -3.51788,10.66179 -2.82359,16.38165c0.27191,2.24019 5.80089,11.1593 8.05586,9.25181c2.00177,-2.04711 5.0135,-4.29743 5.7685,-7.25141c0.71143,-2.78351 -1.22882,-5.95987 -1.59462,-8.61822c-0.19067,-1.38572 0.20013,-6.24658 0.3403,-6.95421c0.81341,-4.10643 4.12113,-7.11743 6.15784,-10.56913c0.08576,-0.14534 0.16975,-0.29028 0.25199,-0.4348c-0.60836,-4.72188 -1.89252,-9.33574 -4.10535,-13.65039c-2.05588,-5.47364 -6.08162,-12.1708 -3.80685,-18.29705c3.4648,-9.33121 14.14409,-9.80569 22.1513,-12.49316c0.43028,-0.14441 0.85265,-0.28201 1.26874,-0.41018c0.21796,-0.08091 0.43539,-0.15763 0.65193,-0.2301c0.4384,-0.14671 0.88546,-0.24779 1.33926,-0.31021c2.64935,-0.60008 5.14551,-0.6034 7.97801,0.7389c0,0 0.64237,0.3212 0.96872,0.96358c1.40556,0.45255 2.76612,0.85871 4.03063,1.0278c0,0 1.99629,0.28519 1.71111,2.28147c-0.28519,1.99629 -2.28147,1.71111 -2.28147,1.71111c-2.96857,-0.44545 -8.32868,-3.37615 -11.71835,-2.79197c-0.29999,0.07944 -0.60139,0.16837 -0.90502,0.26321c-4.37653,1.7613 -10.06148,5.40647 -10.67102,10.42456c-0.50887,4.18923 1.23421,8.41725 1.26004,12.572c0,6.82451 -0.53139,12.55442 -3.50602,18.56656c2.26643,15.80964 -2.50801,32.57802 -15.77308,42.06122c-6.90752,3.89244 -10.79368,-5.1597 -14.06394,-10.22597c-7.42664,-11.50536 -2.18134,-27.3192 -0.77443,-40.09859c-0.26596,-0.65419 -0.51219,-1.30896 -0.73054,-1.96492c-1.3349,-6.09117 -0.62129,-12.17312 -1.00455,-18.27642c-0.80534,0.52752 -1.71029,0.96767 -2.11708,1.80117c-0.77707,1.5922 -0.29415,4.48552 -0.41627,5.83963c-0.33871,3.7555 -2.23069,6.68512 -2.17419,10.40931c0,3.97619 1.78549,12.51698 -1.00463,15.84314c-0.79231,0.94452 -1.80117,1.46363 -2.92792,1.6589c-2.42292,1.93041 -5.88352,2.76667 -6.38901,6.21787c-0.76803,5.24368 4.31238,6.43591 5.82697,10.52103c1.72308,4.64749 0.01597,9.88867 -4.11981,12.21423c-8.16528,5.86434 -20.72372,3.34012 -22.23894,-8.17282c-0.54786,-4.16265 4.71643,-11.05101 2.94966,-14.73459c-1.78881,-3.72957 -5.7265,-6.76385 -7.71492,-10.74022c-3.55891,-6.32512 -1.40606,-13.36876 -2.39658,-20.28457c-0.78833,-5.50406 -2.89284,-10.71492 -4.86454,-15.77536c-1.1828,-3.03567 -2.01,-7.5287 -5.66112,-8.0766c-0.59223,0.32515 -1.20358,0.6622 -1.87003,0.99656c0,0 -1.80365,0.90183 -2.70549,-0.90184c-0.90183,-1.80365 0.90183,-2.70549 0.90183,-2.70549c0.19435,-0.09683 0.39187,-0.19289 0.5923,-0.28799c0.46442,-1.1729 1.86952,-1.1729 1.86952,-1.1729c0.25997,0.01067 0.5125,0.02805 0.75786,0.05201c8.34148,-3.17674 19.58565,-3.93834 22.11882,7.47394c1.29955,5.8547 -1.46747,9.90893 3.30741,14.72809c4.94072,2.80242 8.15828,6.82163 8.88945,12.58821c0.39879,3.1453 -0.51104,6.25093 1.27791,9.17672c0.8277,1.35369 1.78439,1.93204 3.11234,2.78764c0.30697,0.19777 2.94203,1.38428 4.62138,1.91732c1.42508,-4.4943 -0.50687,-10.87371 -1.46013,-15.18767c-0.49669,-4.91279 -2.44064,-11.50099 -1.21955,-16.38297c0.86304,-3.45047 3.8154,-7.51249 6.02947,-10.18768l0.0575,-0.23486c0,0 0.88344,-1.76687 2.6503,-0.92871c0.13349,-0.1635 0.30735,-0.32237 0.53076,-0.47132zM245.01147,384.29544c0,3.35537 -0.3501,6.88579 1.32318,9.97187c1.82156,3.35959 4.27938,6.38207 6.65082,9.35035c1.3736,1.71932 1.50503,3.4838 3.21597,1.79421c0.60976,-0.43514 1.2056,-0.89553 1.78933,-1.37539c-4.67908,-0.25687 -8.13676,-5.40083 -10.2603,-9.8172c-3.22643,-6.71011 2.4353,-12.82113 1.98778,-19.47056c-0.21725,-3.22829 -1.45063,-6.34684 -2.87459,-9.425c-0.86763,6.28059 -1.8322,12.50023 -1.8322,18.97172zM269.45718,384.48198c0.58365,-3.88993 0.92366,-7.87328 0.87549,-11.84074c-1.31071,1.72278 -2.53749,3.5207 -2.90478,5.53785c-0.67429,3.70318 0.76686,7.25979 1.32007,10.79892c0.30318,-1.58185 0.50614,-3.14251 0.70922,-4.49604zM265.81027,335.64223c-1.88777,4.96056 2.04825,11.03756 3.68116,15.39905c1.3046,2.66664 2.37772,5.46745 3.20969,8.3476c0.89074,-3.55136 1.03732,-7.15442 1.03732,-11.28554c0.03362,-4.31121 -1.79482,-8.63134 -1.23595,-13.01207c0.32207,-2.52468 1.52311,-4.87074 3.22406,-6.91515c-4.32322,1.27169 -8.29884,3.21591 -9.91625,7.46614zM238.93941,330.97377l-0.70395,-1.04682l-0.2434,0.43532c-1.83603,2.18567 -4.49302,5.69213 -5.20259,8.53236c-0.93338,3.73622 0.40555,8.93641 1.04741,13.06688c0.5701,-2.12766 1.33344,-4.15313 1.53525,-6.55287c0.24892,-2.9601 -0.53218,-4.5506 0.83173,-7.26441c0.73629,-1.46504 2.62915,-2.03665 3.58265,-3.37054c0.36841,-0.51539 0.57757,-1.20408 0.67521,-1.97495c-0.44882,-0.64628 -0.95401,-1.25664 -1.52234,-1.82495zM198.05785,331.41961c2.07076,5.33547 4.28952,10.87661 5.11948,16.67273c0.89209,6.22996 -1.27731,13.44511 1.97143,19.02753c1.95126,3.90297 6.39706,7.26998 7.88513,11.09986c2.10749,5.42404 -3.37625,10.62355 -2.66635,15.84151c1.17566,8.64126 10.39736,9.39024 16.1086,5.1789c7.26857,-3.3146 -0.72658,-9.67459 -2.46208,-13.14201c-0.62174,-1.24221 -1.29877,-5.63496 -1.10621,-6.80251c0.31726,-1.92368 1.97953,-4.60886 3.50365,-5.90565c0.32858,-0.27955 0.72393,-0.50919 1.14817,-0.71991c-3.11478,-1.40125 -6.01367,-3.82825 -7.18814,-5.72894c-2.98066,-4.82372 -0.63249,-10.51916 -3.18687,-15.40586c-1.28999,-2.46784 -3.6797,-3.932 -5.98984,-5.26134c-2.15652,-2.1436 -4.03367,-4.35421 -4.8046,-7.42397c-0.76849,-3.05994 0.59635,-6.59918 0,-9.67203c-1.15524,-5.95265 -8.32604,-7.42927 -13.09453,-6.273c2.31109,1.98588 3.45786,5.15399 4.7622,8.5147z" fill="#303030" stroke-width="0.5"/><path d="M229.8448,436.47094v-118.22047h21.12335v118.22047z" fill="url(#color-23)" stroke-width="0"/><path d="M177.11666,327.89466v-9.64417h126.57962v9.64417z" fill="url(#color-24)" stroke-width="0"/><path d="M195.52471,332.26267v-18.38019h89.76352v18.38019z" fill="url(#color-25)" stroke-width="0"/></g><g data-paper-data="{&quot;index&quot;:null}" stroke="none" stroke-width="0"><path d="M363.6796,344.25707c-7.97268,-3.80773 -11.41196,-13.22597 -7.68178,-21.03622c3.73016,-7.81023 13.21717,-11.05489 21.18986,-7.24716c7.97269,3.80773 11.41196,13.22596 7.6818,21.0362c-3.73016,7.81022 -13.21717,11.05489 -21.18986,7.24716z" fill="url(#color-26)"/><path d="M421.21833,369.06587l-57.9384,-23.32976l14.67706,-30.73096l54.7776,30.16921z" fill="url(#color-27)"/></g><g data-paper-data="{&quot;index&quot;:null}" stroke="none" stroke-width="0"><path d="M119.8438,343.22918c-7.98132,3.78963 -17.46094,0.52342 -21.17335,-7.29526c-3.71242,-7.8187 -0.25176,-17.22909 7.72956,-21.0187c7.98132,-3.78963 17.46094,-0.52343 21.17335,7.29526c3.71242,7.8187 0.25176,17.2291 -7.72954,21.01872z" fill="url(#color-28)"/><path d="M50.78692,343.98966l54.84597,-30.04473l14.60723,30.76421l-57.99123,23.19813z" fill="url(#color-29)"/></g><g data-paper-data="{&quot;index&quot;:null}" stroke="none" stroke-width="0"><path d="M304.03154,339.88051c-8.80103,-0.7776 -15.31814,-8.39721 -14.55637,-17.0189c0.76176,-8.62168 8.5139,-14.98059 17.31495,-14.20299c8.80103,0.7776 15.31814,8.39723 14.55638,17.01892c-0.76176,8.62168 -8.5139,14.98059 -17.31495,14.20299z" fill="url(#color-30)"/><path d="M366.31825,346.89655l-62.14358,-5.49062l2.99728,-33.92379l62.14358,5.49062z" fill="url(#color-31)"/></g><g data-paper-data="{&quot;index&quot;:null}" stroke="none" stroke-width="0"><path d="M179.50162,338.9881c-8.80277,0.75761 -16.54047,-5.61886 -17.28265,-14.24227c-0.74218,-8.62339 5.79223,-16.2282 14.59499,-16.98582c8.80277,-0.75761 16.54047,5.61886 17.28265,14.24227c0.74218,8.62339 -5.79223,16.22818 -14.59498,16.9858z" fill="url(#color-32)"/><path d="M114.27894,311.93213l62.15589,-5.34948l2.92023,33.93051l-62.15589,5.34948z" fill="url(#color-33)"/></g><g stroke="none"><path d="M194.2924,431.62783c0,0 1.56889,-62.30062 -2.1853,-85.99607c-2.5623,-16.17272 -17.86192,-37.43707 -17.86192,-37.43707c0,0 44.93094,-13.12885 67.42267,-12.96693c22.05123,0.15876 66.23229,13.92923 66.23229,13.92923c0,0 -17.67722,18.41433 -20.29402,33.59279c-4.05685,23.53163 -1.38109,88.87804 -1.38109,88.87804z" fill="url(#color-34)" stroke-width="0"/><g stroke-width="0.5"><path d="M202.26908,373.30165c-0.17267,-1.80672 1.63406,-1.9794 1.63406,-1.9794l1.07526,-0.10277c2.28323,-0.18812 3.46435,-1.17235 5.67967,-1.75452c3.50428,-0.92092 7.53845,-0.61567 11.1657,-1.1984c4.21502,-0.67716 8.27396,-1.86926 12.55405,-2.4385c0.21692,-0.00801 0.4338,-0.01707 0.65068,-0.0272c-3.88118,-3.41805 -8.0605,-6.45534 -11.96588,-9.84108c-2.20152,1.7553 -4.60216,3.26745 -6.76185,5.08104c0,0 -1.39098,1.16586 -2.55684,-0.22515c-1.16586,-1.39098 0.22515,-2.55683 0.22515,-2.55683c2.03331,-1.70114 4.2854,-3.14142 6.37453,-4.77129c-2.75621,-2.6389 -5.27495,-5.42667 -8.29953,-7.83361c-1.96467,-1.56346 -4.39814,-2.85632 -6.26925,-4.50342c-0.85744,-0.75477 -2.4431,-1.34335 -2.36214,-2.48279c0.09843,-1.38528 1.47762,-2.58831 2.76026,-3.12074c1.08011,-0.44839 2.32626,0.27941 3.46737,0.53555c0.06063,0.0136 6.36924,1.86766 6.68328,1.95991c4.87843,1.88022 9.55152,3.1259 14.63096,4.08857c0.27512,0.05214 0.54946,0.10836 0.82311,0.16825c4.55944,-4.88334 9.06315,-9.83227 14.17546,-14.1127c1.44934,-1.39101 5.58408,-5.89885 8.08187,-5.2146c3.21086,0.87956 3.50915,8.78683 3.75094,11.30438c0.46276,4.81833 -0.00555,9.58231 -0.11308,14.3788c3.76039,0.67196 7.50642,1.41969 11.16717,2.49642c1.8372,0.12246 7.37937,0.81717 8.20999,2.68586c0.49502,1.11367 -0.53424,2.42405 -1.16953,3.46411c-1.45533,2.38253 -5.60194,3.70696 -7.95872,4.8184c-2.96598,1.39873 -6.02908,2.19445 -9.13908,2.91294c0.07263,0.96296 0.12866,1.92716 0.15842,2.89339c1.70859,6.05937 3.05725,13.28012 3.70833,19.58385c0.33284,3.22247 1.67772,9.04202 -4.28386,6.29507c-1.19965,-0.55276 -1.78832,-1.95117 -2.57198,-3.01442c-2.15042,-2.91759 -3.3843,-6.55833 -5.51589,-9.51628c-3.25453,-4.51622 -7.41615,-8.44243 -11.58948,-12.11701c-1.31655,0.13968 -2.64865,0.23852 -4.00307,0.28755c-4.19409,0.56494 -8.14408,1.72748 -12.27646,2.4041c-3.47764,0.56943 -7.51051,0.20113 -10.83707,1.12898c-2.32435,0.64831 -3.76983,1.59323 -6.24786,1.85491l-1.07525,0.10277c0,0 -1.80675,0.17267 -1.9794,-1.63406zM243.36937,368.4942c4.46705,4.12534 8.61698,8.59526 11.75933,13.82508c1.24678,2.07497 2.33735,4.37224 3.65337,6.40901c-0.187,-1.51711 -0.16941,-3.23641 -0.27753,-3.78508c-1.06845,-5.42159 -1.6777,-11.17751 -3.14987,-16.45674c-0.03659,-0.87957 -0.0915,-1.75721 -0.15852,-2.6336c-0.41964,0.09846 -0.83977,0.19913 -1.26029,0.30325c-3.55983,0.88161 -7.03546,1.72261 -10.56648,2.33808zM254.12852,348.03673c0.15356,-2.75618 0.42672,-5.50859 0.35477,-8.26424c-0.07158,-2.74172 -0.35206,-5.63435 -0.79781,-8.33747c-0.1203,-0.72948 -0.26832,-1.45417 -0.39382,-2.18276c-0.13194,-0.76606 -0.33811,-1.52484 -0.3785,-2.30114c-0.0005,-0.00966 0,-0.02017 0.00138,-0.03143c-0.92829,1.389 -3.49268,2.95976 -4.53536,3.96695c-4.54315,3.81156 -8.61079,8.14503 -12.66447,12.49144c3.34233,1.06005 6.63712,2.36522 10.04136,3.09511c2.76679,0.59322 5.56739,1.0794 8.37244,1.56354zM254.03528,351.70467c-2.98469,-0.51704 -5.96709,-1.02835 -8.91436,-1.65756c-4.11771,-0.87911 -8.08147,-2.61606 -12.15672,-3.72722c-2.3266,2.47251 -4.68273,4.91168 -7.15454,7.22251c4.66216,4.01417 9.70264,7.55094 14.13971,11.85763c5.02625,-0.57538 10.02495,-1.62932 14.94436,-2.89502c-0.35077,-3.49646 -0.76785,-6.98744 -0.85282,-10.51822c-0.00227,-0.09404 -0.00413,-0.18809 -0.00563,-0.28212zM223.10679,351.10181c1.97093,-1.82571 3.86591,-3.73604 5.72861,-5.68267c-4.70052,-0.94136 -9.11233,-2.1743 -13.67704,-3.93887c-0.32979,-0.09651 -2.48219,-0.72612 -4.20505,-1.231c1.86821,1.33019 3.67331,2.75375 5.41991,4.23789c2.42209,2.05814 4.46029,4.42975 6.73355,6.61466zM257.6829,352.34797c0.10311,3.08395 0.4672,6.14167 0.78114,9.20102c1.08284,-0.30032 2.16117,-0.60787 3.2344,-0.91974c2.96951,-0.86293 5.9777,-2.19882 8.69751,-3.67126c0.63506,-0.34381 1.151,-0.8837 1.71407,-1.34171c-1.32061,-0.13127 -3.00064,-0.83053 -3.90515,-0.89082c-3.45488,-1.00992 -6.98056,-1.7333 -10.52193,-2.37749z" fill="#ad9600"/><path d="M204.76433,372.32952c-0.16118,-1.68633 1.52518,-1.8475 1.52518,-1.8475l1.00359,-0.09591c2.13112,-0.17561 3.23354,-1.09423 5.30124,-1.63762c3.27079,-0.85956 7.03615,-0.57464 10.42173,-1.11855c3.93418,-0.63205 7.7227,-1.74472 11.7176,-2.27604c0.20246,-0.00747 0.40489,-0.01593 0.60731,-0.02539c-3.62259,-3.19032 -7.52343,-6.02525 -11.1686,-9.18539c-2.05484,1.63836 -4.29554,3.04977 -6.31131,4.74252c0,0 -1.29833,1.08818 -2.38649,-0.21014c-1.08816,-1.29833 0.21014,-2.38649 0.21014,-2.38649c1.89782,-1.5878 3.99987,-2.93211 5.94979,-4.45338c-2.57257,-2.46307 -4.92348,-5.0651 -7.74653,-7.31166c-1.83377,-1.4593 -4.1051,-2.66602 -5.85155,-4.20337c-0.8003,-0.70449 -2.28033,-1.25386 -2.20476,-2.31736c0.09187,-1.29299 1.37918,-2.41586 2.57635,-2.91283c1.00815,-0.41849 2.17127,0.26081 3.23634,0.49988c0.0566,0.01271 5.94486,1.74322 6.23799,1.82931c4.55339,1.75496 8.91511,2.91762 13.65611,3.81616c0.2568,0.04867 0.51284,0.10115 0.76827,0.15704c4.25565,-4.55797 8.45928,-9.17717 13.23097,-13.17238c1.35279,-1.29833 5.21199,-5.50582 7.54339,-4.86718c2.99693,0.82095 3.27533,8.20136 3.50103,10.55119c0.43191,4.49729 -0.00517,8.94386 -0.10555,13.42076c3.50984,0.6272 7.00626,1.32509 10.42311,2.33009c1.71481,0.11428 6.88769,0.76273 7.66297,2.50691c0.46204,1.03948 -0.49864,2.26255 -1.0916,3.2333c-1.35835,2.22378 -5.2287,3.45998 -7.42844,4.49736c-2.76836,1.30553 -5.62736,2.04822 -8.53016,2.71885c0.06779,0.8988 0.12008,1.79873 0.14787,2.70059c1.59476,5.65564 2.85354,12.39528 3.46126,18.27901c0.31067,3.00778 1.56595,8.43955 -3.99843,5.87564c-1.1197,-0.51594 -1.66915,-1.8212 -2.40061,-2.8136c-2.00713,-2.7232 -3.15881,-6.12135 -5.14839,-8.88221c-3.03769,-4.21532 -6.92202,-7.87993 -10.81728,-11.30968c-1.22884,0.13039 -2.47217,0.22262 -3.73636,0.26838c-3.91466,0.52728 -7.60145,1.61238 -11.45849,2.24393c-3.24591,0.53147 -7.0101,0.18772 -10.11501,1.05376c-2.16949,0.60512 -3.51868,1.48709 -5.83158,1.73132l-1.00363,0.0959c0,0 -1.68633,0.16117 -1.84751,-1.52518zM243.12615,367.84239c4.16942,3.85049 8.04284,8.02258 10.97583,12.90394c1.1637,1.93672 2.18161,4.08092 3.40994,5.98199c-0.17453,-1.41604 -0.15812,-3.02076 -0.25905,-3.53289c-0.99727,-5.06036 -1.56591,-10.43278 -2.94,-15.36026c-0.03415,-0.82098 -0.0854,-1.64012 -0.14795,-2.45812c-0.39168,0.09188 -0.78382,0.18586 -1.1763,0.28306c-3.32266,0.82289 -6.56671,1.60784 -9.86245,2.18229zM253.16844,348.74797c0.14332,-2.57255 0.39829,-5.14157 0.33114,-7.71359c-0.06682,-2.55903 -0.32862,-5.25896 -0.74466,-7.78196c-0.11226,-0.68089 -0.25045,-1.35728 -0.36758,-2.03734c-0.12316,-0.71504 -0.31558,-1.42324 -0.35328,-2.14781c-0.00047,-0.00901 -0.00001,-0.01882 0.00129,-0.02932c-0.86643,1.29645 -3.25996,2.76254 -4.23319,3.70265c-4.24045,3.55759 -8.03703,7.60233 -11.82065,11.65914c3.11964,0.98943 6.19491,2.20764 9.37232,2.88889c2.58244,0.55369 5.19644,1.00749 7.8146,1.45936zM253.0814,352.17154c-2.78581,-0.4826 -5.56951,-0.95983 -8.32042,-1.54713c-3.84335,-0.82054 -7.54301,-2.44175 -11.34673,-3.47887c-2.17159,2.30779 -4.37072,4.58443 -6.67783,6.74126c4.35153,3.74669 9.05618,7.04784 13.19759,11.06758c4.69136,-0.53706 9.35699,-1.52079 13.94864,-2.70215c-0.32739,-3.2635 -0.71669,-6.52187 -0.79601,-9.81741c-0.00211,-0.08778 -0.00387,-0.17554 -0.00524,-0.26331zM224.21364,351.60882c1.83962,-1.70407 3.60832,-3.48713 5.34691,-5.30405c-4.38734,-0.87863 -8.5052,-2.02944 -12.76577,-3.67643c-0.30781,-0.09008 -2.31681,-0.67774 -3.92487,-1.14897c1.74374,1.24156 3.42857,2.57025 5.05879,3.95553c2.26072,1.92101 4.16313,4.13461 6.28493,6.17392zM256.48598,352.77197c0.09624,2.87849 0.43608,5.73244 0.72909,8.58795c1.01071,-0.28031 2.01715,-0.56736 3.01888,-0.85846c2.77165,-0.80544 5.5794,-2.05234 8.11799,-3.42665c0.59278,-0.32091 1.07431,-0.8248 1.59985,-1.25229c-1.2326,-0.12251 -2.80069,-0.7752 -3.64495,-0.83146c-3.22469,-0.94264 -6.51544,-1.61783 -9.82089,-2.21908z" fill="#ffdf00"/></g></g><g stroke="none" stroke-width="0"><path d="M479.51779,348.07571c-7.46536,5.25708 -12.87358,-0.46062 -24.26957,-0.90439c-11.39604,-0.44378 -20.30474,-0.0913 -20.35242,-8.04302c-0.0456,-7.61011 13.83519,-6.71173 25.23122,-6.26798c11.39604,0.44375 25.3776,7.49594 19.39078,15.21539z" fill="url(#color-35)"/><path d="M472.61589,316.76261c-4.09399,8.16131 -11.56248,5.67892 -21.81489,10.67432c-10.25243,4.99539 -17.93661,9.5168 -21.73708,2.53198c-3.63721,-6.68479 9.0198,-12.45406 19.2722,-17.44946c10.25243,-4.99539 25.9069,-5.3893 24.27971,4.24318z" fill="url(#color-36)"/><path d="M438.18284,313.59315c-8.82271,7.22677 -15.2559,13.39961 -20.56583,7.48045c-5.08183,-5.66486 5.90193,-14.19956 14.72463,-21.42634c8.82271,-7.22677 23.96365,-11.22305 24.60353,-1.47508c-2.09985,8.88587 -9.93963,8.1942 -18.76233,15.42096z" fill="url(#color-37)"/><path d="M438.35259,361.16015c-8.68728,10.97426 -13.75433,20.92381 -33.38841,5.39069c-18.79059,-14.86579 -10.61637,-23.37635 -1.92915,-34.35061c8.68728,-10.97426 12.10237,-23.20564 33.38841,-5.39069c19.62347,16.42347 10.61637,23.37635 1.92915,34.35061z" fill="url(#color-38)"/><path d="M405.82883,350.33692c-8.30365,5.14602 -13.85373,-9.49687 -13.1023,-20.87673c0.75142,-11.37989 1.31082,-25.2785 8.87433,-24.43666c7.90303,0.87967 6.62012,9.70255 5.86869,21.08244c-0.75142,11.37989 4.36883,17.35682 -1.64069,24.23097z" data-paper-data="{&quot;index&quot;:null}" fill="url(#color-39)"/></g><g data-paper-data="{&quot;index&quot;:null}" stroke="none" stroke-width="0"><path d="M23.42251,331.61343c11.39698,-0.41786 25.27979,-1.28472 25.21692,6.32526c-0.06572,7.9516 -8.97362,7.57888 -20.37063,7.99678c-11.39697,0.41788 -16.81818,6.12328 -24.27156,0.84927c-5.96929,-7.73303 8.02827,-14.75343 19.42528,-15.17131z" fill="url(#color-40)"/><path d="M10.97028,315.48742c-1.60532,-9.63614 14.04822,-9.20669 24.28928,-4.18803c10.24105,5.01867 22.88492,10.81668 19.23253,17.49318c-3.81631,6.97619 -11.49019,2.43734 -21.73127,-2.58133c-10.24105,-5.01867 -17.71515,-2.55324 -21.79059,-10.72384z" fill="url(#color-41)"/><path d="M26.68314,296.93263c0.662,-9.74651 15.79384,-5.71584 24.60012,1.53095c8.80628,7.24679 19.77062,15.80641 14.67593,21.45973c-5.32337,5.90708 -11.74251,-0.28036 -20.54879,-7.52714c-8.80628,-7.24679 -16.64759,-6.57291 -18.72726,-15.46352z" fill="url(#color-42)"/><path d="M47.13977,325.6165c21.32645,-17.76658 24.71375,-5.52746 33.37608,5.4665c8.66228,10.99396 16.81715,19.52307 -2.00715,34.34615c-19.6693,15.48851 -24.71375,5.52746 -33.37608,-5.4665c-8.66228,-10.99396 -17.65356,-17.96728 2.00715,-34.34615z" fill="url(#color-43)"/><path d="M77.68086,349.21333c-5.99391,-6.88779 -0.86009,-12.85308 -1.58566,-24.23463c-0.72557,-11.38156 -1.98844,-20.20735 5.91655,-21.06906c7.5654,-0.82468 8.09323,13.07518 8.81881,24.45675c0.72558,11.38153 -4.85776,26.01182 -13.14967,20.84692z" data-paper-data="{&quot;index&quot;:null}" fill="url(#color-44)"/></g></g></g></svg>