<svg version="1.1" xmlns="http://www.w3.org/2000/svg" xmlns:xlink="http://www.w3.org/1999/xlink" width="47.43343" height="55.15757" viewBox="0,0,47.43343,55.15757"><g transform="translate(-199.20194,-153.60562)"><g data-paper-data="{&quot;isPaintingLayer&quot;:true}" fill="#ff0000" fill-rule="nonzero" stroke-linecap="butt" stroke-linejoin="miter" stroke-miterlimit="10" stroke-dasharray="" stroke-dashoffset="0" style="mix-blend-mode: normal"><g stroke="none" stroke-width="0.5"><path d="M206.79445,179.4511c0.00031,-0.88903 0.77772,-1.00042 0.97298,-1.01437c0.61069,-0.18524 2.26145,-0.69003 2.55784,-0.67857c2.04184,0.07895 3.75069,1.57933 5.52891,2.32724c1.39608,0.47746 2.8302,0.56486 4.2803,0.47083c-0.01003,-0.04031 -0.02007,-0.08061 -0.0301,-0.12091c-0.44155,-0.27821 -0.87461,-0.55791 -1.29786,-0.83313c-0.52198,-0.504 -1.16791,-0.90533 -1.56593,-1.512c-1.264,-1.92664 -0.6431,-4.63107 -1.64187,-6.77604c-0.60429,-1.29779 -1.91408,-2.25606 -3.11032,-2.96401l-0.60931,-0.30156c0,0 -0.90923,-0.455 -0.45423,-1.36423c0.455,-0.90922 1.36424,-0.45423 1.36424,-0.45423l0.74609,0.37671c2.20543,1.34018 3.65455,2.92246 4.50289,5.39885c0.74586,2.17722 0.15297,3.81711 1.52257,5.473c-0.25873,-2.65176 -0.01009,-5.43979 0.00272,-8.07748c0.00829,-1.70739 1.30941,-3.54208 0.93271,-5.18861c-0.63816,-2.78939 -2.65312,-4.19635 0.10417,-6.65397c0,0 0.77217,-0.66141 1.43359,0.11077c0.66141,0.77217 -0.11077,1.43359 -0.11077,1.43359c-2.08223,1.67623 0.89373,4.29148 0.56332,6.63467c-0.13637,0.96706 -0.72941,1.82676 -0.8991,2.78854c-0.61964,3.51191 -0.0873,7.20698 0.50356,10.75682c0.01372,0.00831 0.02744,0.01662 0.04116,0.02493c0.35486,-0.92077 0.93712,-1.74703 1.56758,-2.49048c0.01695,-0.01459 0.04104,-0.03544 0.07119,-0.06156c0.86365,-2.61773 1.52964,-5.24028 0.79964,-8.101c-0.4493,-1.76072 -1.42193,-3.76403 -0.76185,-5.70533c0.44959,-1.32223 2.07968,-2.04897 3.15541,-2.67197c1.10699,-0.64111 2.15765,-1.3257 3.25515,-1.9471c-0.05017,-0.15705 -0.06074,-0.34892 -0.00235,-0.58214c0.24692,-0.98628 1.23321,-0.73936 1.23321,-0.73936l0.59078,0.39309c0.09029,-0.03706 0.94356,-0.35956 1.33408,0.5199c0.29251,0.65875 -0.08934,1.05787 -0.33644,1.23441c0.06918,0.37958 0.06867,0.77666 -0.06806,1.26619c-0.53057,1.89952 -2.53849,2.8171 -2.79303,4.91743c-0.33041,2.7263 0.74388,5.38682 1.28819,8.0578c0.92964,-1.06617 1.67542,-2.3171 2.93464,-3.05371c1.19083,-0.6966 2.36908,-0.70919 3.69009,-0.71066l0.11297,0.00003c0,0 1.01672,0.00035 1.01638,1.01708c-0.00034,1.01672 -1.01708,1.01637 -1.01708,1.01637l-0.11297,-0.00003c-3.26942,-0.0064 -4.03851,2.42537 -6.32884,4.17658c0.0006,0.03802 0.00096,0.07607 0.00111,0.11411c-0.00527,1.30742 -0.39545,2.53261 -0.8452,3.74225c0.02615,0.00555 0.05229,0.01121 0.07842,0.01699c3.99271,0.88399 4.95722,6.31913 8.10478,8.38874c0,0 0.84577,0.56426 0.2815,1.41003c-0.56426,0.84577 -1.41004,0.28151 -1.41004,0.28151c-1.31237,-0.88598 -2.73516,-2.11075 -3.57773,-3.4789c-0.88111,-1.43074 -1.849,-4.24869 -3.90163,-4.63116c-0.09881,-0.01842 -0.19861,-0.03386 -0.2993,-0.04656c-0.0894,0.25787 -0.17362,0.51666 -0.24951,0.77701c2.04255,1.53336 2.36222,3.72466 3.94441,5.53426c1.9896,2.27557 3.51328,3.11335 3.51649,6.42171c0,0 -0.00035,1.01672 -1.01708,1.01637c-1.01672,-0.00034 -1.01637,-1.01708 -1.01637,-1.01708c0.00493,-2.75645 -1.3558,-3.15381 -3.03182,-5.10337c-1.19111,-1.38553 -1.64811,-3.03889 -2.76845,-4.38768c0.00335,0.18716 0.01496,0.37595 0.0358,0.56656c0.19881,1.81806 0.27866,4.05702 0.85569,5.77708c0.73353,2.18657 2.20515,3.61099 1.73299,6.12395c-0.36842,1.96083 -1.24083,3.49882 -2.29964,5.14288c0,0 -0.55263,0.85343 -1.40605,0.3008c-0.85343,-0.55263 -0.3008,-1.40604 -0.3008,-1.40604c0.91017,-1.39713 1.66521,-2.67933 1.99641,-4.34508c0.41323,-2.07831 -1.04618,-3.34274 -1.65224,-5.17411c-0.61037,-1.8444 -0.76761,-4.24726 -0.94775,-6.19826c-0.06315,-0.68394 -0.0221,-1.33857 0.08529,-1.97402c-0.31305,-0.00564 -0.64602,0.01483 -1.04299,-0.09547c-0.57761,-0.16049 -1.1518,-0.36118 -1.72049,-0.59235c0.28423,2.14661 1.01641,4.18346 1.19924,6.53977c0.28297,3.64705 -1.34886,7.11932 -1.05677,10.80391c0.13193,0.15369 0.59143,0.77806 -0.03299,1.40205c-0.71918,0.71869 -1.43786,-0.00048 -1.43786,-0.00048l-0.51722,-0.83277c-0.41997,-3.84207 1.35198,-7.47383 1.01727,-11.21836c-0.15144,-1.69427 -0.52793,-3.21828 -0.83517,-4.73097c-0.11169,0.53088 -0.26213,1.05301 -0.4829,1.55733c-0.08323,1.1183 -0.31597,2.22138 -0.81138,3.29431c-0.5145,1.11425 -1.13657,1.95307 -1.38981,3.23958c-0.55054,2.79683 1.58473,6.06454 1.59164,8.98819l-0.00008,0.22594c0,0 -0.00035,1.01672 -1.01708,1.01638c-1.01672,-0.00034 -1.01637,-1.01708 -1.01637,-1.01708l0.00008,-0.22594c0.011,-3.15159 -2.14272,-6.21176 -1.56527,-9.31389c0.20221,-1.08634 0.63755,-1.96384 1.09632,-2.86162c-0.80171,0.50785 -1.66751,0.88712 -2.4703,0.9849c-0.29489,0.03591 -1.87661,-0.21944 -2.24786,-0.22106c-1.62999,-0.00708 -3.2171,0.58607 -4.60763,1.34553c0,0 -0.89536,0.48173 -1.37708,-0.41363c-0.48173,-0.89536 0.41363,-1.37708 0.41363,-1.37708c1.52847,-0.8119 2.67752,-1.17405 4.38656,-1.46254c1.1271,-0.19027 2.14068,0.20568 3.21884,0.1066c1.16917,-0.10745 2.68053,-1.40616 3.40669,-2.25222c0.15443,-0.17992 0.28933,-0.36269 0.40739,-0.54812c0.04652,-1.12943 -0.08301,-2.27778 -0.19474,-3.40243c-0.00256,-0.01674 -0.00515,-0.03348 -0.00777,-0.05018c-1.88518,0.06589 -3.78193,-0.05288 -5.44504,-0.59784c-1.4561,-0.63439 -3.20604,-2.1089 -4.86271,-2.19506c-0.71506,-0.03719 -1.36632,0.42906 -2.05221,0.63463l-0.40514,0.04274c0,0 -1.01672,-0.00035 -1.01637,-1.01708zM228.14181,177.19896c-0.57956,0.00936 -1.21304,-0.33288 -1.73686,-0.0847c-0.3541,0.16778 -0.61659,0.47125 -0.88725,0.76436c-0.17734,0.55484 -0.36785,1.12417 -0.56708,1.71801c-0.0167,0.09241 -0.03192,0.18431 -0.04577,0.27575c1.38001,-0.22854 2.75279,-0.41585 4.09965,-0.38524c0.28095,-0.79612 0.52536,-1.59969 0.64526,-2.43435c-0.38147,0.1083 -0.80346,0.1348 -1.50796,0.14617zM228.15885,181.81985c0.01699,-0.05087 0.03416,-0.10167 0.05151,-0.15241c-0.18704,0.02168 -0.37456,0.04716 -0.56197,0.07518c0.1687,0.02889 0.33971,0.05278 0.51045,0.07723zM229.09416,175.09678c0.20484,-0.06701 0.39746,-0.1463 0.5796,-0.23607c-0.32528,-3.2359 -1.97438,-6.42699 -1.51673,-9.75153c0.24552,-1.78363 1.7966,-3.1526 2.4214,-4.64153c-0.86454,0.51368 -1.7094,1.05763 -2.59437,1.56899c-0.51962,0.30026 -2.07259,0.889 -2.26856,1.61902c-0.54212,2.0194 0.8175,4.28901 0.96237,6.24273c0.14337,1.93361 -0.02415,3.56893 -0.38098,5.17901c0.94524,-0.08639 1.8632,0.32493 2.79728,0.01938z"/><path d="M218.69801,156.77165c0.36918,-1.18774 1.59849,-0.98962 1.59849,-0.98962l0.58306,0.09397c0.29416,0.04742 0.60372,0.11159 0.92211,0.18244c0.55531,-0.96602 1.00814,-2.08328 1.96101,-2.3737c1.56792,-0.47786 3.63532,1.34725 5.10774,1.7738c0,0 0.51845,0.15652 0.84115,0.61902c1.45304,0.45012 3.54957,1.47314 4.19492,2.17725c1.74925,1.90855 0.85163,3.77218 1.61314,5.92525c0.30792,0.8706 1.25858,1.27501 1.86836,1.93407c0.9654,1.04341 1.93233,2.68564 2.18632,4.18277c0.27333,1.61122 -0.98106,4.54895 0.14253,5.98675c0.43074,0.55121 1.02899,0.91948 1.54347,1.37921c-0.26365,0.9937 -0.36683,2.05449 -0.79091,2.98108c-0.00507,0.01107 -1.59365,1.52336 -1.5549,2.11936c0.03498,0.53788 0.45618,0.97928 0.5309,1.5124c0.30805,2.19771 -0.14357,5.60553 -0.61387,7.7684c-0.29814,1.37111 -1.06607,2.66479 -2.03276,3.60941c-0.43167,0.42182 -1.52645,0.6904 -1.29381,1.26687c0.19438,0.4817 0.94807,0.62194 1.00371,1.14402c0.20308,1.90567 -0.81592,3.61993 -2.19671,4.63122c-2.63401,1.92916 -4.7409,0.24813 -7.52169,0.4757c-1.17339,0.09603 -2.36431,0.28222 -3.52902,0.10082c-2.05665,0.21616 -5.75129,0.07975 -7.28528,-1.7856c-0.45538,-0.55376 -0.28219,-1.46162 -0.5617,-2.1381c-0.43048,-1.04186 -1.62941,-1.6465 -2.13624,-2.56834c-0.51867,-0.94341 -0.29007,-2.22344 -0.78704,-3.18039c-1.04437,-2.01096 -2.76378,-4.1976 -2.91744,-6.69154c-0.06488,-1.0531 0.68077,-2.08547 0.49295,-3.1212c-0.12689,-0.69968 -2.02882,-2.19016 -2.09857,-2.36561c-0.94774,-2.38425 0.36555,-6.5509 1.64627,-8.39826c1.1838,-2.03194 -0.1096,-4.17661 1.04175,-6.54311c1.06143,-2.18169 1.12438,-2.1581 2.93819,-3.28298c0.58034,-0.35991 1.72516,-0.75802 2.16864,-1.46688c1.23337,-1.97138 0.27777,-3.83866 2.93526,-4.95848zM222.86134,159.51777c-0.93294,0.55215 -2.197,0.216 -3.28333,0.29086c-0.57353,0.03953 -0.40866,1.16116 -0.60044,1.74668c-0.22672,0.69217 -0.41706,1.42308 -0.81235,2.02029c-1.39874,2.1132 -3.74797,2.06829 -4.89441,4.37439c-0.88168,1.77353 0.22269,2.77594 -0.17166,4.69298c-0.16176,0.78634 -0.68726,1.42966 -1.0309,2.14448c-1.13439,1.45286 -0.96865,2.52113 -1.26095,4.38035c-0.04732,0.301 -0.31323,0.63205 -0.17249,0.89675c0.19669,0.36991 0.75775,0.34256 1.00725,0.67317c0.54259,0.71898 1.0977,1.49762 1.30952,2.39675c0.32755,1.39047 -0.45829,2.30193 -0.43486,3.60042c0.03398,1.88163 1.83289,3.83533 2.57163,5.35871c0.45492,0.93808 0.21023,2.18135 0.73337,3.07691c0.62235,1.06542 1.79684,1.72006 2.27909,2.86718c0.181,0.43057 -0.10259,1.01743 0.14052,1.41064c0.15973,0.25838 0.56659,0.1091 0.84557,0.18435c1.60325,0.43241 2.58072,0.63034 4.24979,0.4549c1.83634,0.30667 3.40106,-0.19136 5.26794,-0.01946c1.43382,0.13203 2.72675,0.9744 4.02727,0.01011c0.4298,-0.31868 1.22094,-0.78156 1.00533,-1.29439c-0.22229,-0.52871 -1.01533,-0.75217 -1.0386,-1.33237c-0.03954,-0.98582 0.41484,-1.95226 0.87259,-2.80604c0.49862,-0.93002 1.70999,-1.2194 2.24217,-2.12743c0.14262,-0.24334 0.43474,-2.55153 0.44132,-2.63412c0.1222,-1.53307 0.6016,-3.61811 0.37445,-5.14483c-0.10697,-0.71895 -0.60831,-1.37268 -0.56002,-2.09899c0.10962,-1.64888 1.16729,-3.25299 2.48625,-3.99804c-3.76623,-1.19954 -0.79243,-6.26988 -2.19757,-8.89592c-1.0499,-1.96215 -2.55458,-2.07995 -3.46935,-4.3677c-0.40393,-1.01018 -0.03191,-4.05126 -0.88223,-4.78364c-0.32114,-0.27658 -0.79831,-0.22993 -1.16816,-0.42273c-0.65295,-0.34038 -1.34953,-1.14227 -2.17341,-1.13596c-1.08941,0.00835 -2.10327,0.71616 -3.192,0.7591c-0.78509,0.03096 -1.6496,-0.10439 -2.51136,-0.27738z" data-paper-data="{&quot;index&quot;:null}"/></g><g><path d="M216.86081,183.61456l0.00244,-7.18484l0.81338,0.00027l-0.00244,7.18484z" stroke="none" stroke-width="0"/><path d="M231.81792,183.61963l0.00244,-7.18483l0.81338,0.00027l-0.00244,7.18483z" stroke="none" stroke-width="0"/><path d="M212.84656,177.61077l0.00049,-1.42767l23.89458,0.00812l-0.00048,1.42767z" stroke="none" stroke-width="0"/><g stroke-width="0"><path d="M235.73884,177.01351c-0.00069,2.03276 -1.57643,3.68012 -3.51953,3.67946c-1.94309,-0.00066 -3.51772,-1.64909 -3.51702,-3.68185c0.00069,-2.03276 1.57643,-3.68013 3.51953,-3.67946c1.94309,0.00066 3.51772,1.64909 3.51703,3.68186z" stroke="none"/><g stroke="#a70000"><path d="M233.64846,177.06538c-0.00028,0.81255 -0.64188,1.47106 -1.43306,1.47079c-0.79118,-0.00027 -1.43234,-0.6592 -1.43206,-1.47176c0.00028,-0.81255 0.64187,-1.47106 1.43306,-1.47078c0.79118,0.00027 1.43235,0.65921 1.43207,1.47176z"/><path d="M233.30648,177.06526c-0.0002,0.6186 -0.48866,1.11989 -1.09098,1.11969c-0.60231,-0.0002 -1.09042,-0.50183 -1.09022,-1.12043c0.0002,-0.6186 0.48865,-1.1199 1.09097,-1.1197c0.60231,0.0002 1.09042,0.50184 1.09021,1.12044z"/></g><path d="M235.73884,177.01351c-0.00001,0.01495 -1.78106,-0.83292 -3.5512,-0.82147c-1.74801,0.0113 -3.48538,0.88239 -3.48534,0.81909c0.00069,-2.03276 1.57643,-3.68013 3.51953,-3.67946c1.94309,0.00066 3.51772,1.64909 3.51702,3.68186z" stroke="none"/></g><path d="M222.05906,192.7342l0.0034,-0.7537l5.1761,0.02334l-0.0034,0.7537z" stroke="none" stroke-width="0"/><path d="M226.68085,192.95431l0.02785,-8.67418l0.90515,0.00579l-0.02785,8.67418z" stroke="none" stroke-width="0"/><path d="M221.80694,192.92318l0.02786,-8.67416l0.90514,0.00578l-0.02785,8.67418z" stroke="none" stroke-width="0"/><g stroke="none" stroke-width="0"><path d="M222.96186,198.98356l0.03279,-7.27573l3.46702,0.01563l-0.03278,7.27573z"/><path d="M222.96186,198.98356l0.00413,-0.91604l3.46701,0.01562l-0.00413,0.91604z"/></g><path d="M214.15723,183.21045l21.37291,0.05236l0.00085,2.1107l-21.37541,-0.05293z" stroke="none" stroke-width="0"/><g><path d="M218.01015,188.42085c-0.33235,0.06635 -0.3987,-0.26599 -0.3987,-0.26599l-0.04907,-0.25038c-0.20504,-1.64487 0.54101,-2.90863 -0.32969,-4.36997c-0.56467,-1.54564 -0.04843,-2.17421 0.01368,-3.63694c0.03318,-0.78138 -0.50465,-1.46271 -0.58487,-2.21087c-0.08612,-0.80317 0.46818,-1.29513 0.6414,-2.01684c0,0 0.08231,-0.32876 0.41107,-0.24645c0.32876,0.08232 0.24645,0.41107 0.24645,0.41107c-0.15539,0.60125 -0.69983,1.13538 -0.62514,1.77849c0.08998,0.77467 0.63425,1.48614 0.58848,2.30829c-0.0772,1.38659 -0.59714,1.88709 -0.07906,3.32194c0.95038,1.57398 0.17573,2.85634 0.39028,4.57743l0.04116,0.20153c0,0 0.06635,0.33234 -0.26599,0.3987z" stroke="none" stroke-width="0.5"/><path d="M217.04003,188.15597c-0.33891,-0.00012 -0.33879,-0.33902 -0.33879,-0.33902l0.00009,-0.27113c0.01954,-1.55497 1.3125,-2.36097 1.31176,-3.88569c0.00675,-1.68397 -1.02168,-2.768 -1.76714,-4.13565c-0.53165,-0.9754 -0.3795,-2.55996 -0.2616,-3.62956c0,0 0.03754,-0.33681 0.37437,-0.29929c0.33681,0.03754 0.29929,0.37437 0.29929,0.37437c-0.08912,0.7901 -0.22891,2.07134 0.02986,2.8407c0.58145,1.72874 1.99719,2.82918 2.00305,4.84965c-0.00192,1.56189 -1.33651,2.39914 -1.31176,3.88569l-0.00009,0.27113c0,0 -0.00012,0.33891 -0.33902,0.33879z" stroke="none" stroke-width="0.5"/><g stroke-width="0"><path d="M220.00947,188.93771c-0.00069,2.03276 -1.57643,3.68013 -3.51953,3.67946c-1.94309,-0.00066 -3.51771,-1.64909 -3.51702,-3.68186c0.00069,-2.03276 1.57643,-3.68012 3.51953,-3.67946c1.94309,0.00066 3.51772,1.64908 3.51702,3.68185z" stroke="none"/><g stroke="#a70000"><path d="M217.05997,190.61605c-0.00028,0.81255 -0.64188,1.47105 -1.43306,1.47078c-0.79118,-0.00027 -1.43234,-0.6592 -1.43206,-1.47175c0.00028,-0.81255 0.64187,-1.47106 1.43305,-1.47079c0.79118,0.00027 1.43235,0.6592 1.43207,1.47176z"/><path d="M216.71801,190.61593c-0.0002,0.6186 -0.48864,1.11989 -1.09097,1.11969c-0.60231,-0.0002 -1.09042,-0.50183 -1.09022,-1.12043c0.0002,-0.6186 0.48865,-1.1199 1.09097,-1.1197c0.60231,0.0002 1.09042,0.50184 1.09021,1.12044z"/></g></g></g><path d="M220.82689,177.00845c-0.00001,0.01495 -1.78122,-0.38104 -3.55135,-0.36961c-1.74801,0.0113 -3.48522,0.43052 -3.4852,0.36722c0.00069,-2.03276 1.57643,-3.68013 3.51953,-3.67946c1.94309,0.00066 3.51772,1.64909 3.51702,3.68186z" stroke="none" stroke-width="0"/></g><path d="M214.62785,184.18786l0.06712,0.13423c0.13306,-0.09201 0.26474,-0.18573 0.39477,-0.28067c-0.07338,0.01132 -0.14804,0.02545 -0.22411,0.04266c-0.08313,0.0188 -0.16525,0.03899 -0.24645,0.06045zM215.76909,185.87351l0.77958,0.89095l0.54084,0.43268l0.23341,0.30635l0.28498,0.25907l0.1484,0.2226l0.13587,0.13587l0.15384,0.01765l0.25638,0.33734l0.0963,0.08254c0.08728,-0.17323 0.17412,-0.34164 0.25934,-0.50349l-0.12056,-0.09645l-0.32516,-0.42677l-0.34917,-0.40736l-0.02857,-0.05714l-0.1697,-0.19798l-0.37626,-0.32251l-0.00595,-0.10713l-0.23693,-0.23693l-0.23526,-0.39209l-0.28151,-0.36033l-0.12874,-0.28967c-0.24714,0.18393 -0.5002,0.36406 -0.75807,0.53828zM219.54804,190.74251l0.02438,0.01393l0.01742,0.06966l0.02109,0.04217l0.03077,-0.10942l0.19895,-0.1061l0.14674,-0.17119l0.19451,-0.01081l0.59669,-0.31824l0.57143,-0.14286l0.19063,0l-0.40572,-0.10143l-0.02265,-0.03963l-0.01359,-0.00414l-0.63196,-0.37917l-0.19984,-0.09992l-0.26831,-0.22998c-0.2041,0.40065 -0.41479,0.82944 -0.61218,1.26384zM229.36287,166.79216l0.1035,-0.02587l-0.49781,-0.49781c-0.24713,0.15498 -0.49745,0.34188 -0.74563,0.52369zM218.86289,177.38889l0.08238,0.57668l0.24714,0.49428l0.05973,0.26876l0.12956,0.24293l0.14286,0.57143v0.03379l0.01511,0.03022l0.04946,0.22255c0.03667,-0.0739 0.06979,-0.1505 0.09886,-0.23018c0.05444,-0.14923 0.10252,-0.29914 0.14521,-0.44962c-0.04072,-0.57544 -0.05548,-1.15502 -0.05672,-1.73681c-0.30379,-0.07011 -0.61755,-0.14645 -0.93866,-0.22466zM221.87754,171.22073l0.07237,0.01206c0.00673,-0.00406 0.01349,-0.00808 0.02026,-0.01206zM223.76267,153.68474c0.75795,-0.231 1.63262,0.07617 2.50038,0.50336c0.39613,0.03433 0.79178,0.0726 1.18572,0.10269c3.19716,0.24421 5.6209,-1.54261 8.64801,0.51175c1.58684,1.07693 2.7572,2.90146 2.52228,4.9287c-0.06436,0.55538 -0.93104,0.70402 -1.15491,1.21633c-0.26507,0.60661 0.96408,0.89356 1.47059,1.33451c1.08327,0.17429 2.15506,0.54151 2.93115,0.80421c0.56733,0.19204 1.97195,-1.09699 2.91365,-1.12385l0.79567,-0.20518c0,0 0.82204,-0.20521 1.02726,0.61684l0,-0.00002c0.20522,0.82204 -0.61683,1.02726 -0.61683,1.02726l-0.99963,0.243c-1.3687,-0.05482 -1.92105,1.34635 -3.3701,1.11794c-0.45141,-0.07114 -0.76435,-0.51627 -1.1895,-0.68261c0.39224,0.6433 0.69089,1.34081 0.85893,2.05815c0.53913,2.30137 1.05582,5.92721 0.69998,8.26507c-0.08632,0.56712 -0.57095,1.0364 -0.61157,1.60861c-0.04501,0.63403 1.78039,2.24412 1.78621,2.2559c0.4869,0.9861 0.60476,2.11473 0.90714,3.1721c-0.59191,0.48872 -1.28004,0.88006 -1.77571,1.46615c-1.29297,1.5288 0.14711,4.65512 -0.16839,6.36904c-0.29317,1.59258 -1.40617,3.33897 -2.51696,4.4483c-0.70161,0.70069 -1.79498,1.13023 -2.14967,2.0562c-0.29638,0.77373 -0.37497,1.51245 -0.42673,2.22976c0.19018,0.52945 0.26573,1.13795 0.20258,1.87665c-0.06605,0.77256 -0.62224,1.60889 -0.28754,2.30832c0.2926,0.61144 1.09303,0.83999 1.47484,1.40007c0.95458,1.40032 -0.24445,3.00441 1.47045,3.02606l1.00367,0.57989c0,0 0.70481,0.47022 0.2346,1.17503l-0.00003,-0.00001c-0.47022,0.70481 -1.17503,0.23459 -1.17503,0.23459l-0.34238,-0.31813c-0.59388,-0.14607 -1.30792,-0.05139 -1.78164,-0.4382c-1.05326,-0.86002 -0.04355,-2.30401 -0.78468,-3.26889c-0.4867,-0.63365 -1.33582,-0.96934 -1.66559,-1.74249c-0.06437,-0.15093 -0.10466,-0.30835 -0.12639,-0.47076c-0.97903,0.717 -3.01447,1.6047 -4.48026,2.0238c-0.37138,0.4918 -0.96761,0.65792 -0.96761,0.65792c-1.69329,0.45268 -4.07174,2.39282 -5.87415,1.88326c-1.09539,-0.30966 -1.6152,-1.49864 -2.25296,-2.52678c-0.36613,0.07513 -0.72211,0.14316 -1.06037,0.19339l-0.67046,0.09954c0,0 -1.4136,0.20986 -1.83718,-1.05403l0,-0.00006c-3.04195,-1.18837 -1.96369,-3.16262 -3.35359,-5.25115c-0.19295,-0.20368 -0.40189,-0.39667 -0.60524,-0.59013c-0.6096,-0.4257 -1.42504,-0.72265 -1.90475,-0.99834c-2.08464,-1.1981 -2.15705,-1.17305 -3.37583,-3.49489c-1.32202,-2.51851 0.16673,-4.79919 -1.19286,-6.96182c-1.47116,-1.96633 -2.97803,-6.4001 -1.88654,-8.93593c0.08032,-0.1866 2.26827,-1.77086 2.41469,-2.51513c0.21673,-1.10174 -0.63983,-2.20061 -0.56444,-3.32094c0.17855,-2.65313 2.15715,-4.97816 3.35945,-7.11677c0.57215,-1.0177 0.31026,-2.37967 0.90733,-3.38294c0.14512,-0.24385 0.33947,-0.46679 0.5572,-0.68119c-1.37253,-1.07938 -3.20138,-1.66286 -5.01051,-1.6976c-0.95318,-0.01831 -1.96416,0.72314 -2.81762,1.05651c-1.44195,0.56326 -2.40864,0.51246 -3.91469,0.51195l-0.67317,-0.00023c0,0 -0.84727,-0.00029 -0.84698,-0.84756l-0.00002,0.00002c0.0003,-0.84727 0.84757,-0.84698 0.84757,-0.84698l0.67317,0.00023c0.70274,0.00024 1.41908,0.14936 2.10821,0.01166c1.58253,-0.31624 2.95044,-1.55918 4.62411,-1.58013c2.34143,-0.02929 4.58877,0.80025 6.25379,2.254c0.26984,-0.27546 0.50503,-0.57155 0.6571,-0.91147c0.32188,-0.71949 0.12342,-1.68547 0.64744,-2.27425c1.67576,-1.88287 5.58933,-2.10654 8.00465,-1.92628c0.21354,-0.21237 0.4562,-0.37609 0.74469,-0.46402zM240.84278,180.39562c-0.07464,-0.03907 -0.14854,-0.08036 -0.22163,-0.12376c-0.02769,0.07626 -0.05701,0.15184 -0.08821,0.22663c0.09859,-0.03679 0.2018,-0.07111 0.30984,-0.10287z" stroke="none" stroke-width="0.5"/></g></g></svg>