<svg version="1.1" xmlns="http://www.w3.org/2000/svg" xmlns:xlink="http://www.w3.org/1999/xlink" width="412.75238" height="500.84224" viewBox="0,0,412.75238,500.84224"><defs><linearGradient x1="251.11284" y1="308.83089" x2="233.89538" y2="313.6458" gradientUnits="userSpaceOnUse" id="color-1"><stop offset="0" stop-color="#0f0f0f"/><stop offset="1" stop-color="#737373"/></linearGradient><linearGradient x1="231.53587" y1="314.55396" x2="214.42338" y2="319.33952" gradientUnits="userSpaceOnUse" id="color-2"><stop offset="0" stop-color="#0f0f0f"/><stop offset="1" stop-color="#737373"/></linearGradient><linearGradient x1="266.90896" y1="363.2706" x2="249.79649" y2="368.05616" gradientUnits="userSpaceOnUse" id="color-3"><stop offset="0" stop-color="#0f0f0f"/><stop offset="1" stop-color="#737373"/></linearGradient><linearGradient x1="247.3968" y1="368.82504" x2="230.17928" y2="373.63996" gradientUnits="userSpaceOnUse" id="color-4"><stop offset="0" stop-color="#0f0f0f"/><stop offset="1" stop-color="#737373"/></linearGradient><linearGradient x1="226.10741" y1="344.91224" x2="218.46515" y2="347.04943" gradientUnits="userSpaceOnUse" id="color-5"><stop offset="0" stop-color="#595959"/><stop offset="1" stop-color="#afafaf"/></linearGradient><linearGradient x1="262.15083" y1="335.00161" x2="254.50858" y2="337.13878" gradientUnits="userSpaceOnUse" id="color-6"><stop offset="0" stop-color="#afafaf"/><stop offset="1" stop-color="#595959"/></linearGradient><linearGradient x1="245.97214" y1="339.51062" x2="235.22862" y2="342.51506" gradientUnits="userSpaceOnUse" id="color-7"><stop offset="0" stop-color="#afafaf"/><stop offset="1" stop-color="#595959"/></linearGradient><radialGradient cx="255.67831" cy="386.34236" r="11.48896" gradientUnits="userSpaceOnUse" id="color-8"><stop offset="0" stop-color="#656565"/><stop offset="1" stop-color="#404040"/></radialGradient><linearGradient x1="271.31201" y1="337.42009" x2="212.71596" y2="353.80667" gradientUnits="userSpaceOnUse" id="color-9"><stop offset="0" stop-color="#cb80ce"/><stop offset="1" stop-color="#a946ad"/></linearGradient><linearGradient x1="12.25101" y1="239.99942" x2="25.98601" y2="251.44375" gradientUnits="userSpaceOnUse" id="color-10"><stop offset="0" stop-color="#0f0f0f"/><stop offset="1" stop-color="#737373"/></linearGradient><linearGradient x1="27.76658" y1="253.23866" x2="41.41788" y2="264.61325" gradientUnits="userSpaceOnUse" id="color-11"><stop offset="0" stop-color="#0f0f0f"/><stop offset="1" stop-color="#737373"/></linearGradient><linearGradient x1="-24.45655" y1="283.19384" x2="-10.80526" y2="294.56842" gradientUnits="userSpaceOnUse" id="color-12"><stop offset="0" stop-color="#0f0f0f"/><stop offset="1" stop-color="#737373"/></linearGradient><linearGradient x1="-8.93098" y1="296.25267" x2="4.80409" y2="307.69707" gradientUnits="userSpaceOnUse" id="color-13"><stop offset="0" stop-color="#0f0f0f"/><stop offset="1" stop-color="#737373"/></linearGradient><linearGradient x1="20.28491" y1="283.15717" x2="26.38141" y2="288.23694" gradientUnits="userSpaceOnUse" id="color-14"><stop offset="0" stop-color="#595959"/><stop offset="1" stop-color="#afafaf"/></linearGradient><linearGradient x1="-8.53756" y1="259.35347" x2="-2.44102" y2="264.43325" gradientUnits="userSpaceOnUse" id="color-15"><stop offset="0" stop-color="#afafaf"/><stop offset="1" stop-color="#595959"/></linearGradient><linearGradient x1="4.37512" y1="270.09333" x2="12.94564" y2="277.23447" gradientUnits="userSpaceOnUse" id="color-16"><stop offset="0" stop-color="#afafaf"/><stop offset="1" stop-color="#595959"/></linearGradient><radialGradient cx="-23.66066" cy="308.84145" r="11.48896" gradientUnits="userSpaceOnUse" id="color-17"><stop offset="0" stop-color="#656565"/><stop offset="1" stop-color="#404040"/></radialGradient><linearGradient x1="-17.8857" y1="257.80771" x2="28.85863" y2="296.75621" gradientUnits="userSpaceOnUse" id="color-18"><stop offset="0" stop-color="#cb80ce"/><stop offset="1" stop-color="#a946ad"/></linearGradient><linearGradient x1="146.97816" y1="199.93919" x2="158.51286" y2="203.51891" gradientUnits="userSpaceOnUse" id="color-19"><stop offset="0" stop-color="#afafaf"/><stop offset="1" stop-color="#595959"/></linearGradient><linearGradient x1="131.2915" y1="281.19773" x2="127.12698" y2="294.61675" gradientUnits="userSpaceOnUse" id="color-20"><stop offset="0" stop-color="#afafaf"/><stop offset="1" stop-color="#595959"/></linearGradient><linearGradient x1="73.15034" y1="257.97712" x2="66.03597" y2="280.90134" gradientUnits="userSpaceOnUse" id="color-21"><stop offset="0" stop-color="#7c7c7c"/><stop offset="1" stop-color="#111111"/></linearGradient><linearGradient x1="94.4562" y1="265.54804" x2="87.34185" y2="288.47225" gradientUnits="userSpaceOnUse" id="color-22"><stop offset="0" stop-color="#7c7c7c"/><stop offset="1" stop-color="#111111"/></linearGradient><linearGradient x1="169.98995" y1="288.29933" x2="162.87558" y2="311.22354" gradientUnits="userSpaceOnUse" id="color-23"><stop offset="0" stop-color="#7c7c7c"/><stop offset="1" stop-color="#111111"/></linearGradient><linearGradient x1="191.29581" y1="295.87024" x2="184.18146" y2="318.79446" gradientUnits="userSpaceOnUse" id="color-24"><stop offset="0" stop-color="#7c7c7c"/><stop offset="1" stop-color="#111111"/></linearGradient><linearGradient x1="120.3459" y1="316.46706" x2="116.1814" y2="329.88614" gradientUnits="userSpaceOnUse" id="color-25"><stop offset="0" stop-color="#afafaf"/><stop offset="1" stop-color="#595959"/></linearGradient><linearGradient x1="67.53434" y1="294.90048" x2="60.41997" y2="317.8247" gradientUnits="userSpaceOnUse" id="color-26"><stop offset="0" stop-color="#7c7c7c"/><stop offset="1" stop-color="#111111"/></linearGradient><linearGradient x1="86.9109" y1="301.87269" x2="79.79655" y2="324.79691" gradientUnits="userSpaceOnUse" id="color-27"><stop offset="0" stop-color="#7c7c7c"/><stop offset="1" stop-color="#111111"/></linearGradient><linearGradient x1="155.70844" y1="322.53342" x2="148.59409" y2="345.45762" gradientUnits="userSpaceOnUse" id="color-28"><stop offset="0" stop-color="#7c7c7c"/><stop offset="1" stop-color="#111111"/></linearGradient><linearGradient x1="175.08506" y1="329.50562" x2="167.97071" y2="352.42984" gradientUnits="userSpaceOnUse" id="color-29"><stop offset="0" stop-color="#7c7c7c"/><stop offset="1" stop-color="#111111"/></linearGradient><linearGradient x1="109.40031" y1="351.73645" x2="105.2358" y2="365.15552" gradientUnits="userSpaceOnUse" id="color-30"><stop offset="0" stop-color="#afafaf"/><stop offset="1" stop-color="#595959"/></linearGradient><linearGradient x1="63.25072" y1="332.23736" x2="56.13637" y2="355.1616" gradientUnits="userSpaceOnUse" id="color-31"><stop offset="0" stop-color="#7c7c7c"/><stop offset="1" stop-color="#111111"/></linearGradient><linearGradient x1="80.21572" y1="338.46112" x2="73.10135" y2="361.38536" gradientUnits="userSpaceOnUse" id="color-32"><stop offset="0" stop-color="#7c7c7c"/><stop offset="1" stop-color="#111111"/></linearGradient><linearGradient x1="140.593" y1="356.5087" x2="133.47863" y2="379.43293" gradientUnits="userSpaceOnUse" id="color-33"><stop offset="0" stop-color="#7c7c7c"/><stop offset="1" stop-color="#111111"/></linearGradient><linearGradient x1="157.55796" y1="362.73245" x2="150.4436" y2="385.65668" gradientUnits="userSpaceOnUse" id="color-34"><stop offset="0" stop-color="#7c7c7c"/><stop offset="1" stop-color="#111111"/></linearGradient><linearGradient x1="97.00581" y1="331.51049" x2="127.62357" y2="341.0125" gradientUnits="userSpaceOnUse" id="color-35"><stop offset="0" stop-color="#afafaf"/><stop offset="1" stop-color="#595959"/></linearGradient><linearGradient x1="136.07689" y1="262.08856" x2="133.88776" y2="269.14248" gradientUnits="userSpaceOnUse" id="color-36"><stop offset="0" stop-color="#afafaf"/><stop offset="1" stop-color="#595959"/></linearGradient><radialGradient cx="232.23655" cy="292.79028" r="11.48896" gradientUnits="userSpaceOnUse" id="color-37"><stop offset="0" stop-color="#656565"/><stop offset="1" stop-color="#404040"/></radialGradient><linearGradient x1="136.62161" y1="257.19955" x2="131.27041" y2="274.44244" gradientUnits="userSpaceOnUse" id="color-38"><stop offset="0" stop-color="#595959"/><stop offset="1" stop-color="#393939"/></linearGradient><radialGradient cx="44.13329" cy="234.41379" r="11.48896" gradientUnits="userSpaceOnUse" id="color-39"><stop offset="0" stop-color="#656565"/><stop offset="1" stop-color="#404040"/></radialGradient><linearGradient x1="68.05488" y1="422.82739" x2="99.84173" y2="432.69219" gradientUnits="userSpaceOnUse" id="color-40"><stop offset="0" stop-color="#595959"/><stop offset="1" stop-color="#393939"/></linearGradient><linearGradient x1="69.01006" y1="411.24023" x2="105.61451" y2="422.60015" gradientUnits="userSpaceOnUse" id="color-41"><stop offset="0" stop-color="#393939"/><stop offset="1" stop-color="#151515"/></linearGradient><linearGradient x1="65.0854" y1="423.88642" x2="101.68985" y2="435.24635" gradientUnits="userSpaceOnUse" id="color-42"><stop offset="0" stop-color="#393939"/><stop offset="1" stop-color="#151515"/></linearGradient><radialGradient cx="56.22042" cy="221.82772" r="27.83531" gradientUnits="userSpaceOnUse" id="color-43"><stop offset="0" stop-color="#cb80ce"/><stop offset="1" stop-color="#a946ad"/></radialGradient><radialGradient cx="222.59071" cy="273.45952" r="27.83531" gradientUnits="userSpaceOnUse" id="color-44"><stop offset="0" stop-color="#cb80ce"/><stop offset="1" stop-color="#a946ad"/></radialGradient><linearGradient x1="148.51191" y1="223.3581" x2="79.4542" y2="445.87883" gradientUnits="userSpaceOnUse" id="color-45"><stop offset="0" stop-color="#cb80ce"/><stop offset="1" stop-color="#a946ad"/></linearGradient><radialGradient cx="139.57968" cy="298.89764" r="98.45057" gradientUnits="userSpaceOnUse" id="color-46"><stop offset="0" stop-color="#d3afd3"/><stop offset="1" stop-color="#c0a0c1"/></radialGradient><linearGradient x1="179.56464" y1="168.00962" x2="136.18257" y2="252.24243" gradientUnits="userSpaceOnUse" id="color-47"><stop offset="0" stop-color="#cb80ce"/><stop offset="1" stop-color="#a946ad"/></linearGradient><linearGradient x1="154.88895" y1="215.9211" x2="129.20356" y2="265.79317" gradientUnits="userSpaceOnUse" id="color-48"><stop offset="0" stop-color="#cb80ce"/><stop offset="1" stop-color="#a946ad"/></linearGradient><linearGradient x1="179.12675" y1="168.06189" x2="138.79828" y2="246.36567" gradientUnits="userSpaceOnUse" id="color-49"><stop offset="0" stop-color="#330000"/><stop offset="1" stop-color="#9c0000"/></linearGradient><linearGradient x1="170.1929" y1="184.74518" x2="169.07855" y2="186.90887" gradientUnits="userSpaceOnUse" id="color-50"><stop offset="0" stop-color="#898989"/><stop offset="1" stop-color="#2e2e2e"/></linearGradient><linearGradient x1="166.42267" y1="191.95756" x2="158.7085" y2="206.93576" gradientUnits="userSpaceOnUse" id="color-51"><stop offset="0" stop-color="#8a8a8a"/><stop offset="1" stop-color="#0f0f0f"/></linearGradient><linearGradient x1="167.12899" y1="190.58615" x2="159.41482" y2="205.56437" gradientUnits="userSpaceOnUse" id="color-52"><stop offset="0" stop-color="#898989"/><stop offset="1" stop-color="#2e2e2e"/></linearGradient><linearGradient x1="214.88153" y1="96.71152" x2="212.06006" y2="102.18984" gradientUnits="userSpaceOnUse" id="color-53"><stop offset="0" stop-color="#afafaf"/><stop offset="1" stop-color="#7a7a7a"/></linearGradient><linearGradient x1="168.40087" y1="66.92984" x2="137.25495" y2="127.40432" gradientUnits="userSpaceOnUse" id="color-54"><stop offset="0" stop-color="#afafaf"/><stop offset="1" stop-color="#7a7a7a"/></linearGradient><linearGradient x1="265.95901" y1="117.17479" x2="234.81311" y2="177.64927" gradientUnits="userSpaceOnUse" id="color-55"><stop offset="0" stop-color="#afafaf"/><stop offset="1" stop-color="#7a7a7a"/></linearGradient><linearGradient x1="197.70038" y1="130.57168" x2="173.43854" y2="177.67972" gradientUnits="userSpaceOnUse" id="color-56"><stop offset="0" stop-color="#424242"/><stop offset="1" stop-color="#000000"/></linearGradient><linearGradient x1="204.12293" y1="116.70514" x2="200.45427" y2="123.8284" gradientUnits="userSpaceOnUse" id="color-57"><stop offset="0" stop-color="#b8b8b8"/><stop offset="1" stop-color="#313131"/></linearGradient><radialGradient cx="173.40831" cy="105.52717" r="26.70383" gradientUnits="userSpaceOnUse" id="color-58"><stop offset="0" stop-color="#ffffff"/><stop offset="1" stop-color="#cccccc"/></radialGradient><radialGradient cx="231.07954" cy="135.22934" r="26.70383" gradientUnits="userSpaceOnUse" id="color-59"><stop offset="0" stop-color="#ffffff"/><stop offset="1" stop-color="#cccccc"/></radialGradient><linearGradient x1="216.07163" y1="93.77985" x2="183.98008" y2="155.30563" gradientUnits="userSpaceOnUse" id="color-60"><stop offset="0" stop-color="#9d9d9d"/><stop offset="1" stop-color="#6e6e6e"/></linearGradient><linearGradient x1="198.12944" y1="159.91123" x2="178.50546" y2="198.01414" gradientUnits="userSpaceOnUse" id="color-61"><stop offset="0" stop-color="#afafaf"/><stop offset="1" stop-color="#595959"/></linearGradient><linearGradient x1="173.2797" y1="147.11297" x2="153.65574" y2="185.21588" gradientUnits="userSpaceOnUse" id="color-62"><stop offset="0" stop-color="#afafaf"/><stop offset="1" stop-color="#595959"/></linearGradient><linearGradient x1="263.37408" y1="147.2927" x2="241.94564" y2="187.84469" gradientUnits="userSpaceOnUse" id="color-63"><stop offset="0" stop-color="#afafaf"/><stop offset="1" stop-color="#595959"/></linearGradient><linearGradient x1="158.11618" y1="40.52608" x2="162.41782" y2="39.17027" gradientUnits="userSpaceOnUse" id="color-64"><stop offset="0" stop-color="#d3d3d3"/><stop offset="1" stop-color="#868686"/></linearGradient><linearGradient x1="163.32709" y1="-27.6857" x2="133.39722" y2="30.42768" gradientUnits="userSpaceOnUse" id="color-65"><stop offset="0" stop-color="#cb80ce"/><stop offset="1" stop-color="#a946ad"/></linearGradient><radialGradient cx="148.52672" cy="3.37512" r="25.66344" gradientUnits="userSpaceOnUse" id="color-66"><stop offset="0" stop-color="#d3afd3"/><stop offset="1" stop-color="#947b95"/></radialGradient><radialGradient cx="168.66571" cy="66.41562" r="4.2804" gradientUnits="userSpaceOnUse" id="color-67"><stop offset="0" stop-color="#a9a9a9"/><stop offset="1" stop-color="#5d5d5d"/></radialGradient><linearGradient x1="293.42707" y1="110.21466" x2="292.03279" y2="105.92534" gradientUnits="userSpaceOnUse" id="color-68"><stop offset="0" stop-color="#d3d3d3"/><stop offset="1" stop-color="#868686"/></linearGradient><linearGradient x1="345.93273" y1="66.3609" x2="316.00283" y2="124.47427" gradientUnits="userSpaceOnUse" id="color-69"><stop offset="0" stop-color="#cb80ce"/><stop offset="1" stop-color="#a946ad"/></linearGradient><radialGradient cx="331.25594" cy="94.42375" r="25.66344" gradientUnits="userSpaceOnUse" id="color-70"><stop offset="0" stop-color="#d3afd3"/><stop offset="1" stop-color="#947b95"/></radialGradient><radialGradient cx="266.22385" cy="116.66057" r="4.2804" gradientUnits="userSpaceOnUse" id="color-71"><stop offset="0" stop-color="#a9a9a9"/><stop offset="1" stop-color="#5d5d5d"/></radialGradient><linearGradient x1="234.48655" y1="57.63834" x2="170.49703" y2="181.88364" gradientUnits="userSpaceOnUse" id="color-72"><stop offset="0" stop-color="#cb80ce"/><stop offset="1" stop-color="#a946ad"/></linearGradient><linearGradient x1="104.03297" y1="85.75758" x2="82.73553" y2="127.10977" gradientUnits="userSpaceOnUse" id="color-73"><stop offset="0" stop-color="#d3afd3"/><stop offset="1" stop-color="#c0a0c1"/></linearGradient><linearGradient x1="95.0436" y1="102.39831" x2="79.19238" y2="133.17584" gradientUnits="userSpaceOnUse" id="color-74"><stop offset="0" stop-color="#d3afd3"/><stop offset="1" stop-color="#c0a0c1"/></linearGradient><linearGradient x1="83.27622" y1="118.8146" x2="72.60877" y2="139.52706" gradientUnits="userSpaceOnUse" id="color-75"><stop offset="0" stop-color="#d3afd3"/><stop offset="1" stop-color="#c0a0c1"/></linearGradient><linearGradient x1="82.50211" y1="126.7271" x2="70.20817" y2="150.59762" gradientUnits="userSpaceOnUse" id="color-76"><stop offset="0" stop-color="#d3afd3"/><stop offset="1" stop-color="#c0a0c1"/></linearGradient><linearGradient x1="85.29619" y1="124.61345" x2="66.78912" y2="160.54773" gradientUnits="userSpaceOnUse" id="color-77"><stop offset="0" stop-color="#d3afd3"/><stop offset="1" stop-color="#c0a0c1"/></linearGradient><linearGradient x1="284.64178" y1="178.77578" x2="263.34433" y2="220.12797" gradientUnits="userSpaceOnUse" id="color-78"><stop offset="0" stop-color="#d3afd3"/><stop offset="1" stop-color="#c0a0c1"/></linearGradient><linearGradient x1="276.31471" y1="195.75762" x2="260.46347" y2="226.53517" gradientUnits="userSpaceOnUse" id="color-79"><stop offset="0" stop-color="#d3afd3"/><stop offset="1" stop-color="#c0a0c1"/></linearGradient><linearGradient x1="269.78355" y1="214.87067" x2="259.11611" y2="235.58312" gradientUnits="userSpaceOnUse" id="color-80"><stop offset="0" stop-color="#d3afd3"/><stop offset="1" stop-color="#c0a0c1"/></linearGradient><linearGradient x1="263.79142" y1="220.09577" x2="251.49747" y2="243.96628" gradientUnits="userSpaceOnUse" id="color-81"><stop offset="0" stop-color="#d3afd3"/><stop offset="1" stop-color="#c0a0c1"/></linearGradient><linearGradient x1="263.88976" y1="216.59377" x2="245.38269" y2="252.528" gradientUnits="userSpaceOnUse" id="color-82"><stop offset="0" stop-color="#d3afd3"/><stop offset="1" stop-color="#c0a0c1"/></linearGradient><radialGradient cx="164.39849" cy="151.4486" r="43.02575" gradientUnits="userSpaceOnUse" id="color-83"><stop offset="0" stop-color="#d3afd3"/><stop offset="1" stop-color="#c0a0c1"/></radialGradient><radialGradient cx="227.55659" cy="180.40474" r="43.02575" gradientUnits="userSpaceOnUse" id="color-84"><stop offset="0" stop-color="#d3afd3"/><stop offset="1" stop-color="#c0a0c1"/></radialGradient><radialGradient cx="192.55012" cy="144.76148" r="12.44021" gradientUnits="userSpaceOnUse" id="color-85"><stop offset="0" stop-color="#858585"/><stop offset="1" stop-color="#000000"/></radialGradient><radialGradient cx="150.81202" cy="49.54612" r="27.94657" gradientUnits="userSpaceOnUse" id="color-86"><stop offset="0" stop-color="#2e2540"/><stop offset="1" stop-color="#694da0"/></radialGradient><radialGradient cx="189.41333" cy="45.7014" r="27.94657" gradientUnits="userSpaceOnUse" id="color-87"><stop offset="0" stop-color="#2e2540"/><stop offset="1" stop-color="#694da0"/></radialGradient><radialGradient cx="170.14864" cy="48.10719" r="16.4865" gradientUnits="userSpaceOnUse" id="color-88"><stop offset="0" stop-color="#8461ca"/><stop offset="1" stop-color="#4e3f6d"/></radialGradient></defs><g transform="translate(37.86026,42.6005)"><g data-paper-data="{&quot;isPaintingLayer&quot;:true}" fill-rule="nonzero" stroke-linecap="butt" stroke-linejoin="miter" stroke-miterlimit="10" stroke-dasharray="" stroke-dashoffset="0" style="mix-blend-mode: normal"><path d="M161.01855,437.54314c-16.68528,30.9302 -148.92666,-7.7726 -143.53565,-47.57179c-0.89436,0.86901 20.76093,-36.86843 29.82614,-72.67086c9.06523,-35.80243 0.51101,-122.58706 96.27028,-94.49814c108.51839,30.23563 46.00148,98.59915 33.04219,137.60636c-13.46344,40.52474 -14.82993,77.76901 -15.60296,77.13442z" data-paper-data="{&quot;index&quot;:null}" fill="#484848" stroke="#000000" stroke-width="0"/><g data-paper-data="{&quot;index&quot;:null}" stroke="none"><path d="M258.12424,301.89603c9.61591,7.67882 19.15166,66.55459 16.25313,77.42444c-1.32314,4.96191 -38.9469,16.15884 -42.87579,12.59431c-8.54504,-7.75271 -30.41351,-66.05898 -25.94485,-75.82035c4.46865,-9.76137 42.95159,-21.87721 52.56749,-14.19841z" fill="#484848" stroke-width="0"/><g><g><path d="M232.60006,298.86751c2.72393,0.29483 2.42909,3.01877 2.42909,3.01877l-0.30174,2.06633c0.45642,3.47089 0.82899,6.84926 1.19093,10.24703c2.86635,1.47152 6.21895,2.80298 8.67665,5.32454c3.36393,3.45135 4.22321,11.57106 4.69687,16.07827c-0.31794,2.36991 -0.8238,4.37237 -1.56057,6.22504c5.25291,6.44839 9.91468,13.48365 9.48993,22.21745c-0.16831,3.461 -1.34691,6.21444 -2.69303,8.97465c1.31513,3.37635 1.15127,7.56972 1.51906,10.97676c0,0 0.29409,2.72403 -2.42992,3.01805c-2.72403,0.29409 -3.01805,-2.42992 -3.01805,-2.42992c-0.1424,-1.31911 -0.11471,-3.15827 -0.22888,-4.99391c-0.48491,0.12582 -1.07363,0.10538 -1.77425,-0.19253c-2.52139,-1.07213 -1.44926,-3.59349 -1.44926,-3.59349c0.36611,-0.84983 0.76806,-1.66103 1.17732,-2.45481c-4.92445,-5.32992 -14.80657,-7.91657 -15.01901,-16.80387c-0.1359,-5.68523 4.44441,-9.63462 7.62872,-14.25857c-1.31757,-1.52963 -2.60579,-3.03619 -3.76483,-4.54393c-3.61883,-4.70762 -4.49637,-11.44825 -6.05433,-17.07289c-0.07956,-0.73511 -0.15791,-1.46591 -0.23577,-2.19367c-0.85768,-0.42715 -1.65982,-0.90928 -2.36691,-1.4934c-4.13121,-3.41269 -4.53741,-9.94976 -3.31335,-14.59335l0.12652,-2.9097c0,0 0.13434,-2.73655 2.87091,-2.60217c1.99136,0.09779 2.46248,1.57354 2.5714,2.36998c0.43568,-0.29153 1.02824,-0.46768 1.83255,-0.38065zM251.74635,363.81643c0.32462,-6.5264 -2.92716,-11.89809 -6.85079,-16.8209c-0.53602,0.77291 -1.1242,1.55761 -1.76816,2.37227c-1.57974,1.99849 -4.4501,4.07142 -4.34704,6.95417c0.19635,5.49324 7.48926,8.64798 11.97199,12.01593c0.53298,-1.39145 0.91151,-2.86339 0.99399,-4.52151zM241.42288,334.28894c0.69325,0.85272 1.40967,1.70817 2.1374,2.56927c0.10789,-0.431 0.19302,-0.87173 0.25234,-1.32343c-0.32156,-2.86881 -0.96425,-10.26816 -3.23467,-12.28371c-1.09226,-0.96961 -2.3805,-1.68179 -3.73542,-2.29028c1.07361,4.3928 1.83457,9.95072 4.58035,13.32818z" fill="#000000" stroke-width="0.5"/><path d="M233.01903,310.51227l0.63474,-2.76182l18.33534,4.21396l-0.63472,2.76181z" fill="url(#color-1)" stroke-width="0"/><path d="M217.34735,324.61292l-2.00834,-1.99924l13.2729,-13.3331l2.00834,1.99924z" data-paper-data="{&quot;index&quot;:null}" fill="url(#color-2)" stroke-width="0"/><path d="M263.98498,357.99726l2.00834,1.99924l-13.2729,13.3331l-2.00834,-1.99924z" data-paper-data="{&quot;index&quot;:null}" fill="url(#color-3)" stroke-width="0"/><path d="M248.27309,371.95858l-0.63473,2.7618l-18.33536,-4.21394l0.63474,-2.76182z" data-paper-data="{&quot;index&quot;:null}" fill="url(#color-4)" stroke-width="0"/><path d="M227.51115,377.46824l-17.57544,-60.91891l7.12573,-2.05585l17.57544,60.91891z" fill="url(#color-5)" stroke-width="0"/><path d="M263.55454,367.55753l-17.57544,-60.91891l7.12573,-2.05585l17.57544,60.91891z" fill="url(#color-6)" stroke-width="0"/><path d="M247.9455,385.27795l-24.70766,-85.64011l10.01739,-2.89008l24.70766,85.64011z" fill="url(#color-7)" stroke-width="0"/></g><path d="M265.03474,386.28216c1.58682,5.67424 -2.0805,11.65943 -8.19126,13.36832c-6.11072,1.70888 -12.35083,-1.50565 -13.93763,-7.1799c-1.58682,-5.67424 2.08051,-11.65943 8.19126,-13.36833c6.11072,-1.70888 12.35081,1.50567 13.93763,7.17992z" fill="url(#color-8)" stroke-width="0"/></g><path d="M258.12424,301.89603c9.61591,7.67882 19.15166,66.55459 16.25313,77.42444c-1.32314,4.96191 -38.9469,16.15884 -42.87579,12.59431c-8.54504,-7.75271 -30.41351,-66.05898 -25.94485,-75.82035c4.46865,-9.76137 42.95159,-21.87721 52.56749,-14.19841z" fill="url(#color-9)" stroke-width="0"/></g><g stroke="none"><path d="M50.83582,265.28438c0.07866,10.73531 -43.75218,54.97001 -54.72293,58.5428c-5.0442,1.64268 -34.78147,-23.98174 -33.95631,-29.05028c1.80775,-11.10345 34.62098,-60.90887 46.53842,-63.97566c11.91742,-3.06679 42.06218,23.74788 42.14082,34.48315z" fill="#484848" stroke-width="0"/><g><g><path d="M33.2205,238.49238c0.76943,0.25002 1.23785,0.65342 1.51591,1.09782c0.42556,-0.68198 1.45976,-1.83533 3.31649,-1.10891c2.55153,0.99822 1.55326,3.54976 1.55326,3.54976l-1.07634,2.70627c-0.78525,4.73758 -3.83323,10.53484 -8.99977,11.95613c-0.88432,0.24328 -1.81355,0.35457 -2.77093,0.39297c-0.36907,0.63205 -0.7399,1.26664 -1.11356,1.90469c-3.72501,4.49313 -7.28635,10.28306 -12.51585,13.09551c-1.6749,0.90076 -3.46716,1.74753 -5.29564,2.60336c1.0111,5.52255 3.57204,11.00146 1.11955,16.1323c-3.83381,8.02066 -13.90847,6.33294 -20.58392,9.17838c0.04823,0.89179 0.0827,1.79641 0.06861,2.72168c0,0 -0.0546,2.73929 -2.79392,2.68468c-0.76117,-0.01518 -1.30664,-0.23765 -1.69747,-0.55105c-0.85599,1.62786 -1.58398,3.31702 -2.25417,4.46209c0,0 -1.38396,2.36462 -3.74856,0.98065c-2.36462,-1.38396 -0.98065,-3.74856 -0.98065,-3.74856c1.73097,-2.95751 3.29898,-6.85016 5.8816,-9.39167c-0.09753,-3.06941 -0.04496,-6.06402 1.21903,-9.29036c3.18967,-8.1416 10.32392,-12.65037 17.75713,-16.38163c0.08665,-1.99193 0.44531,-4.02587 1.12593,-6.31813c2.27815,-3.91785 6.38766,-10.97333 10.87009,-12.74413c3.27486,-1.29376 6.87871,-1.13525 10.09631,-1.30372c1.72182,-2.95148 3.44543,-5.88088 5.28337,-8.86036l0.57104,-2.00865c0,0 0.84667,-2.60575 3.45243,-1.75906zM-10.84755,289.90194c-0.60388,1.54644 -0.86142,3.04429 -0.94509,4.53198c5.4689,-1.2365 13.41419,-1.12749 15.84318,-6.05844c1.27472,-2.58767 -0.49481,-5.65435 -1.11745,-8.12457c-0.25381,-1.00695 -0.46903,-1.96372 -0.64145,-2.88836c-5.59568,2.88393 -10.76232,6.45257 -13.13922,12.53941zM10.66392,267.19301c3.88824,-1.95658 6.85879,-6.71525 9.63742,-10.283c-1.4853,0.00018 -2.95223,0.12223 -4.3458,0.55944c-2.89675,0.90884 -6.51366,7.39585 -7.98199,9.88133c-0.1309,0.43636 -0.23375,0.8733 -0.31185,1.31068c1.01658,-0.48752 2.02055,-0.97449 3.00222,-1.46846z" fill="#000000" stroke-width="0.5"/><path d="M9.61603,245.27866l0.55215,-2.7795l18.45284,3.66539l-0.5521,2.77953z" fill="url(#color-10)" stroke-width="0"/><path d="M29.94291,250.62673l2.65102,-1.0013l6.64768,17.59973l-2.65102,1.0013z" data-paper-data="{&quot;index&quot;:null}" fill="url(#color-11)" stroke-width="0"/><path d="M-12.9816,297.18038l-2.65102,1.0013l-6.64768,-17.59973l2.65102,-1.0013z" data-paper-data="{&quot;index&quot;:null}" fill="url(#color-12)" stroke-width="0"/><path d="M7.43903,302.41782l-0.5521,2.77953l-18.45283,-3.66541l0.5521,-2.7795z" data-paper-data="{&quot;index&quot;:null}" fill="url(#color-13)" stroke-width="0"/><path d="M0.0116,307.4883l40.98447,-48.37647l5.65861,4.79402l-40.98447,48.37647z" fill="url(#color-14)" stroke-width="0"/><path d="M-28.81082,283.6846l40.98447,-48.37647l5.65861,4.79402l-40.98447,48.37647z" fill="url(#color-15)" stroke-width="0"/><path d="M-24.12519,304.29813l57.6162,-68.00787l7.95493,6.73941l-57.6162,68.00787z" fill="url(#color-16)" stroke-width="0"/></g><path d="M-16.51598,304.11277c4.87478,4.06178 5.769,11.02398 1.99738,15.55055c-3.77165,4.52657 -10.78091,4.90334 -15.65567,0.84156c-4.87478,-4.06178 -5.76903,-11.02396 -1.99737,-15.55051c3.77165,-4.52657 10.78093,-4.90337 15.65569,-0.84157z" fill="url(#color-17)" stroke-width="0"/></g><path d="M50.83582,265.28438c0.07866,10.73531 -43.75218,54.97001 -54.72293,58.5428c-5.0442,1.64268 -34.78147,-23.98174 -33.95631,-29.05028c1.80775,-11.10345 34.62098,-60.90887 46.53842,-63.97566c11.91742,-3.06679 42.06218,23.74788 42.14082,34.48315z" fill="url(#color-18)" stroke-width="0"/></g><path d="M246.67526,221.11737l-152.09859,-79.50487c0,0 -3.08487,-36.22383 20.69804,-60.45056c28.16431,-28.68989 36.29961,-66.34905 120.12368,-23.05374c81.98031,42.39554 53.56105,67.29212 48.80081,107.19853c-4.68562,39.28097 -37.52392,55.8106 -37.52392,55.8106z" fill="#484848" stroke="none" stroke-width="0"/><g stroke="none"><path d="M98.8368,411.76634c-0.2674,0.69577 -1.61355,3.61287 -5.05757,2.54405c-0.01745,-0.00541 -0.03481,-0.01089 -0.05205,-0.0164c-0.34103,1.18888 -1.32462,3.06691 -4.12739,2.90997c-4.07639,-0.22825 -3.84811,-4.30465 -3.84811,-4.30465l0.36723,-4.37746c1.40853,-4.53864 4.56084,-10.83526 2.9931,-15.71813c-2.43144,-7.57288 -11.00597,-16.2788 -6.76409,-24.88382c2.40417,-4.8771 6.07409,-6.83083 10.15084,-8.17126c-0.01415,-2.09941 0.14677,-4.27321 0.46055,-6.61585c0.20869,-0.67798 3.30328,-10.91572 3.72928,-11.56378c3.95487,-6.01634 12.39696,-8.35301 18.71839,-10.37796c3.74477,-1.19958 7.64763,-2.1483 11.49742,-3.23816c-4.1912,-10.66114 -14.80577,-21.01174 -19.89355,-28.76149c-3.84082,-5.85037 -2.6337,-12.54791 -3.16894,-19.2919c-0.02972,-3.96945 -0.76175,-10.14168 -2.38697,-13.74737c-1.9049,-4.22626 -14.79482,-7.6069 -18.48836,-9.94868c-13.30401,-8.43504 -27.16912,-12.46057 -42.86463,-14.09127c0,0 -4.0609,-0.42192 -3.63901,-4.48278c0.42192,-4.0609 4.48279,-3.63903 4.48279,-3.63903c11.41841,1.18629 22.63751,3.27428 33.35019,7.6906c6.24733,2.57545 11.26158,6.72966 17.20355,9.70088c4.89785,2.44911 14.17099,5.66726 17.01696,10.67022c2.37529,4.17559 3.33127,12.68716 3.48067,17.43765c0.30981,3.86478 -0.41313,8.84939 0.20295,12.47096c0.78046,4.58783 8.28227,9.64167 11.00019,13.14859c4.44358,5.7336 8.69191,12.94278 11.02506,20.45548c5.07065,-1.96953 9.78484,-4.68124 13.59637,-9.14934c9.93319,-11.64436 -4.24431,-22.5689 -2.64778,-34.02365c0.66828,-4.79479 4.41538,-7.75636 7.44003,-10.93791c9.00191,-6.35978 30.21409,-12.42687 38.65244,-2.28063c3.56437,4.28579 3.54266,10.90561 7.11171,14.96162c6.85785,7.79346 23.23611,8.47022 32.47647,11.3003c0,0 3.8993,1.21013 2.68919,5.10941c-1.21013,3.8993 -5.10941,2.68919 -5.10941,2.68919c-10.88044,-3.42889 -27.62451,-4.22494 -35.86991,-13.3651c-3.9613,-4.3912 -4.3707,-10.732 -7.61161,-15.51716c-1.88682,-2.78584 -4.64183,-1.93216 -7.87753,-1.9291c-6.30804,0.00591 -14.0581,1.38569 -19.09989,5.19019c-6.6528,6.84855 -3.82443,7.24729 -0.77606,15.6445c3.19709,8.80691 3.26209,20.65089 -3.01552,28.27681c-5.03543,6.11693 -11.43869,9.50857 -18.28644,11.97877c0.78054,7.56518 -0.94494,15.02424 -6.88512,21.21289c-6.39317,6.66054 -16.99139,5.80953 -24.8034,9.95723c-0.93552,0.32832 -1.91785,0.58306 -2.91714,0.81465c0.37814,1.56977 0.91187,3.17062 1.61121,4.87854c1.91716,4.68185 6.20054,9.09703 6.57859,14.3505c0.54459,7.56724 -5.37515,21.24446 -10.64467,27.03986zM97.60954,396.54223c1.02192,-3.26628 4.0849,-7.45517 3.75004,-10.97286c-0.39533,-4.15329 -4.44822,-8.20326 -5.97155,-11.99924c-0.80403,-2.00359 -1.42717,-3.89913 -1.88546,-5.75505c-1.47299,0.78513 -2.76895,1.88501 -3.74629,3.53882c-2.68691,4.54665 5.98914,14.82975 7.19863,19.1773c0.58247,2.09361 0.71734,4.19855 0.56654,6.29577c0.02877,-0.09404 0.05811,-0.18896 0.0881,-0.28476zM117.87194,338.9757c-4.06398,1.29997 -11.83535,2.88721 -14.31382,7.0075c-1.59745,2.65568 -1.70108,5.9609 -2.62721,8.91843c-0.11577,0.82495 -0.20329,1.62149 -0.26156,2.39707c0.08612,-0.03067 0.17222,-0.06169 0.25822,-0.09307c6.44027,-3.36201 17.25622,-2.97829 22.3001,-8.2432c4.04476,-4.22199 5.55879,-8.65754 5.42524,-13.13745c-3.60229,1.04725 -7.23709,2.0171 -10.78094,3.15075z" fill="#000000" stroke-width="0.5"/><g stroke-width="0"><g><path d="M126.95705,264.45204l40.0422,-129.02572l11.53472,3.5797l-40.0422,129.02572z" fill="url(#color-19)"/><g><path d="M57.00154,272.85384l4.1645,-13.41905l140.25088,43.52585l-4.1645,13.41905z" fill="url(#color-20)"/><path d="M61.8922,279.61536l7.11436,-22.92421l8.28752,2.57198l-7.11436,22.92421z" fill="url(#color-21)"/><path d="M83.19807,287.18627l7.11436,-22.92421l8.28752,2.57198l-7.11436,22.92421z" fill="url(#color-22)"/><path d="M158.73183,309.93754l7.11436,-22.92421l8.28752,2.57198l-7.11436,22.92421z" fill="url(#color-23)"/><path d="M180.03767,317.50845l7.11436,-22.92421l8.28752,2.57198l-7.11436,22.92421z" fill="url(#color-24)"/></g><g><path d="M52.32604,310.06912l4.1645,-13.41905l127.71066,39.63407l-4.1645,13.41905z" fill="url(#color-25)"/><path d="M56.64672,316.65372l7.11436,-22.92421l7.54652,2.34201l-7.11436,22.92421z" fill="url(#color-26)"/><path d="M76.02329,323.6259l7.11436,-22.92421l7.5465,2.342l-7.11436,22.92421z" fill="url(#color-27)"/><path d="M144.82084,344.28662l7.11436,-22.92421l7.5465,2.342l-7.11436,22.92421z" fill="url(#color-28)"/><path d="M164.19741,351.25881l7.11436,-22.92421l7.54652,2.34201l-7.11436,22.92421z" fill="url(#color-29)"/></g><g><path d="M49.21809,347.77083l4.1645,-13.41905l112.03538,34.76936l-4.1645,13.41905z" fill="url(#color-30)"/><path d="M52.82625,354.13432l7.11436,-22.92421l6.62025,2.05454l-7.11436,22.92421z" fill="url(#color-31)"/><path d="M69.79119,360.35808l7.11436,-22.92421l6.62025,2.05454l-7.11436,22.92421z" fill="url(#color-32)"/><path d="M130.16848,378.40563l7.11436,-22.92421l6.62025,2.05454l-7.11436,22.92421z" fill="url(#color-33)"/><path d="M147.1335,384.62943l7.11436,-22.92421l6.62025,2.05454l-7.11436,22.92421z" fill="url(#color-34)"/></g><path d="M79.14612,402.90237l9.85374,-32.15017l29.78444,-109.4174l30.61778,9.50201l-37.48888,107.11395l-9.98697,32.02124z" fill="url(#color-35)"/><path d="M41.40365,240.44069l2.18913,-7.05388l184.96822,57.40354l-2.18913,7.05388z" fill="url(#color-36)"/><path d="M239.34446,297.57391c-1.88069,6.06005 -7.96704,9.55699 -13.59423,7.81063c-5.62719,-1.74636 -8.66429,-8.0747 -6.7836,-14.13474c1.88069,-6.06005 7.96699,-9.557 13.59421,-7.81064c5.62719,1.74636 8.66432,8.07467 6.78364,14.13477z" fill="url(#color-37)"/><path d="M104.44504,266.11739l5.35118,-17.24282l53.65074,16.65011l-5.35118,17.24282z" fill="url(#color-38)"/><path d="M51.24124,239.19744c-1.88069,6.06005 -7.96704,9.55699 -13.59423,7.81063c-5.62719,-1.74636 -8.66432,-8.07467 -6.78364,-14.13477c1.88069,-6.06005 7.96704,-9.55699 13.59423,-7.81063c5.62719,1.74636 8.66432,8.07467 6.78364,14.13477z" fill="url(#color-39)"/></g><path d="M60.12577,448.37692l15.85823,-51.09907l31.78686,9.86482l-15.85823,51.09907z" fill="url(#color-40)"/><path d="M67.62203,415.71277l2.77604,-8.94511l36.60446,11.35993l-2.77604,8.94511z" fill="url(#color-41)"/><path d="M63.69737,428.35898l2.77604,-8.94511l36.60446,11.35993l-2.77604,8.94511z" fill="url(#color-42)"/></g></g><g stroke-width="0"><path d="M59.17914,211.62714c12.51711,9.6182 14.9835,27.41097 5.50887,39.74127c-4.64077,6.03949 -12.76308,-6.5992 -23.95422,-15.00273c-11.65679,-8.75322 -26.20811,-13.53706 -21.37425,-19.82786c9.47463,-12.33029 27.30249,-14.52886 39.81961,-4.91068z" fill="url(#color-43)" stroke="none"/><path d="M258.63361,290.79474c0.42296,7.92221 -14.28007,3.62719 -28.84441,4.24286c-13.98255,0.59107 -27.83325,6.4106 -28.23929,-1.19514c-0.82903,-15.52795 11.27751,-28.79812 27.04075,-29.63972c15.76323,-0.84161 29.21393,11.06406 30.04297,26.59201z" data-paper-data="{&quot;index&quot;:null}" fill="url(#color-44)" stroke="none"/><path d="M161.01855,437.54314c-16.68528,30.9302 -148.92666,-7.7726 -143.53565,-47.57179c-0.89436,0.86901 19.95417,-34.26891 29.01939,-70.07131c9.06523,-35.80243 1.31774,-125.18659 97.07702,-97.09768c108.51839,30.23563 45.19474,101.19867 32.23545,140.20591c-13.46344,40.52474 -14.02318,75.16947 -14.79622,74.53488z" data-paper-data="{&quot;index&quot;:null}" fill="url(#color-45)" stroke="#000000"/><path d="M152.66129,425.05385c-14.10082,26.1393 -125.85862,-6.56865 -121.30264,-40.20315c-1.43075,-1.79045 21.12884,-39.3445 28.7899,-69.6013c7.66108,-30.25681 -1.46,-95.68988 79.46664,-71.95178c76.60904,22.47164 47.01577,62.78744 29.46618,106.66861c-14.31714,35.79874 -14.36888,72.28381 -16.4201,75.08764z" data-paper-data="{&quot;index&quot;:null}" fill="url(#color-46)" stroke="#000000"/></g><g><path d="M179.48514,167.96867c42.7082,21.99584 73.58486,62.75536 55.63906,81.9434c-33.09333,35.38408 -56.31291,24.28525 -99.02113,2.28942c-42.7082,-21.99584 -65.32183,-42.35524 -55.63902,-81.94338c6.235,-25.49177 56.31291,-24.28525 99.02109,-2.28945z" fill="url(#color-47)" stroke="#000000" stroke-width="0"/><g><g fill="url(#color-48)" stroke="#000000" stroke-width="0"><path d="M154.82528,215.88832c34.21871,17.62352 61.07393,46.17197 49.11577,56.84624c-22.05166,19.68409 -40.58246,10.64932 -74.80116,-6.97417c-34.21871,-17.62352 -53.07897,-32.49566 -49.11577,-56.84624c2.552,-15.67992 40.58244,-10.64933 74.80116,6.97417z"/></g><g fill="none" stroke="none" stroke-width="1" font-family="sans-serif" font-weight="normal" font-size="12" text-anchor="start"/></g><path d="M179.06522,168.0302c33.07686,17.03544 59.77638,53.89394 44.08232,72.24054c-5.63506,6.5875 -15.21238,9.32723 -20.21223,12.95499c-20.67852,15.00384 -20.15988,19.3921 -65.69409,-3.98799c-47.75564,-24.52074 -39.8699,-29.00426 -41.15232,-50.75843c-0.38409,-6.51533 -4.77943,-16.5584 -2.40239,-24.88438c6.64137,-23.26215 52.30182,-22.60022 85.37871,-5.56476z" fill="url(#color-49)" stroke="#000000" stroke-width="0"/><path d="M158.83173,181.63149l1.11436,-2.1637l20.49366,10.55475l-1.11436,2.1637z" fill="url(#color-50)" stroke="none" stroke-width="0"/><g stroke="none" stroke-width="0"><path d="M154.69911,195.39516c0.1201,-0.23319 7.52006,-14.52 7.52006,-14.52l15.65062,8.05177c0,0 -7.28563,14.27595 -7.43767,14.57117c-2.13023,4.13612 -6.12324,3.23689 -10.46781,0.99934c-4.34457,-2.23755 -7.39543,-4.96613 -5.26523,-9.10224z" fill="url(#color-51)"/><path d="M155.40542,194.02377c0.1201,-0.23319 7.52006,-14.52 7.52006,-14.52l15.65062,8.05177c0,0 -7.28563,14.27594 -7.43768,14.57116c-2.13023,4.13612 -6.12324,3.2369 -10.46781,0.99935c-4.34457,-2.23755 -7.39543,-4.96613 -5.26523,-9.10224z" fill="url(#color-52)"/></g></g><g><path d="M160.79023,75.78455l2.82147,-5.4783l102.54013,52.81082l-2.82147,5.47831z" data-paper-data="{&quot;index&quot;:null}" fill="url(#color-53)" stroke="none" stroke-width="0"/><path d="M134.68377,126.08006l31.1459,-60.47445l5.1424,2.64847l-31.1459,60.47444z" fill="url(#color-54)" stroke="none" stroke-width="0"/><path d="M232.24195,176.32506l31.1459,-60.47444l5.14239,2.64846l-31.1459,60.47444z" data-paper-data="{&quot;index&quot;:null}" fill="url(#color-55)" stroke="none" stroke-width="0"/><path d="M190.79603,145.66866l-0.54437,0.6965c-0.13413,1.77524 -0.51548,3.53321 -0.99825,5.24678c-0.13596,0.51173 -0.19143,1.02729 -0.1883,1.54566c0.02469,0.19591 0.03525,0.39202 0.02746,0.5884c0.18405,2.16101 1.23728,4.36358 1.59617,6.53307c0.29799,1.80127 -1.36514,5.13794 -1.21205,7.19151c0.08084,1.08467 2.27808,3.24947 2.42259,3.64029c1.90924,5.16275 -3.34404,5.14866 -2.85675,9.16672c0.42821,3.53098 13.62534,1.52556 15.38206,1.24806c8.46683,-4.82464 2.89709,-9.26764 7.54823,-16.45112c2.41271,-3.72635 10.61624,-5.78995 11.41375,-10.45422c0.36791,-2.15175 -0.37498,-5.34266 -0.55866,-7.54291c0,0 -0.16925,-2.03435 1.86511,-2.20362c2.03435,-0.16925 2.20362,1.8651 2.20362,1.8651c0.2018,2.43321 1.03253,6.32466 0.49432,8.67773c-1.44542,6.31939 -8.81752,7.28629 -12.04405,11.95676c-2.01383,2.91504 -0.45741,6.78583 -1.19711,10.13136c-1.01028,4.5695 -4.68414,5.86531 -8.37308,7.87327c-5.13956,0.9199 -14.15399,2.59323 -18.65052,-1.40856c-4.46443,-3.97326 -0.39508,-6.60266 1.28988,-10.25011c0.39186,-0.84831 -2.8214,-4.50244 -2.97467,-5.6278c-0.26338,-1.93379 1.48141,-5.68644 1.20461,-7.24216c-0.12667,-0.71192 -0.29161,-1.33914 -0.46986,-1.91749c-2.4539,1.46892 -5.8437,0.94366 -8.56686,3.57778c-3.0524,2.9526 -1.39784,9.63595 -6.58341,11.01865c-2.50069,0.6668 -4.62556,-1.07315 -6.81756,-1.67962c-8.31253,-2.29987 -11.95973,-4.17688 -13.21367,-13.41875c0.31386,-1.42198 1.19328,-2.7899 1.05444,-4.23947c-0.34589,-3.61104 -5.09449,-4.75758 -4.35498,-9.06543c0.74104,-4.31698 7.17192,-7.29559 9.70379,-10.44019c1.821,-2.26171 0.64793,-3.77928 1.08431,-6.21216c0.62742,-3.49778 4.30405,-7.31161 6.59794,-9.82232c0,0 1.37926,-1.50494 2.88418,-0.12568c1.50493,1.37927 0.12567,2.88419 0.12567,2.88419c-1.56682,1.70379 -5.29522,5.31732 -5.58086,7.73632c-0.35178,2.97913 0.30402,5.18113 -1.82798,7.96627c-2.00133,2.61443 -8.03632,5.54803 -8.97819,8.78626c-0.34557,1.18809 2.62353,3.53091 3.05068,4.35037c1.79215,3.43813 1.18772,4.94859 0.31991,8.35732c1.18945,7.3579 3.79456,7.55375 10.20354,9.30297c1.58057,0.43139 2.99476,1.9588 4.61235,1.69854c1.75302,-0.28203 3.52554,-8.70036 4.88915,-10.0394c2.42085,-2.37717 7.15894,-1.7426 9.17336,-3.78127c1.73941,-1.76037 0.24293,-4.1753 -0.05925,-6.27547c0.16615,-2.03267 0.86718,-4.02982 1.77917,-5.854l1.03926,-1.27595c0,0 1.34695,-1.53397 2.88092,-0.18703c0.34593,0.30374 0.54535,0.61702 0.64673,0.92007c1.37316,0.97045 0.55719,2.55479 0.55719,2.55479z" fill="url(#color-56)" stroke="none" stroke-width="0.5"/><path d="M144.35426,94.93548l3.66869,-7.12329l112.19999,57.78589l-3.66869,7.12329z" fill="url(#color-57)" stroke="none" stroke-width="0"/><g stroke="#000000" stroke-width="0"><path d="M196.55504,117.44829c-6.7527,13.11137 -22.58998,18.40296 -35.37357,11.81909c-12.78358,-6.58389 -17.67262,-22.55001 -10.91989,-35.6614c6.7527,-13.11137 22.58998,-18.40295 35.37356,-11.81908c12.78358,6.58389 17.67263,22.55 10.91989,35.66139z" fill="url(#color-58)"/><g><path d="M172.92142,106.94469c-3.99416,-2.05709 -5.52172,-7.04564 -3.41189,-11.14222c2.10985,-4.09659 7.05811,-5.74987 11.05228,-3.6928c3.99416,2.05709 5.52172,7.04564 3.41189,11.14222c-2.10985,4.09659 -7.05812,5.74988 -11.05228,3.69281z" fill="#f500ff"/><path d="M173.56007,105.70466c-3.32645,-1.71322 -4.59862,-5.86772 -2.84148,-9.27947c1.75712,-3.41171 5.87815,-4.78866 9.20458,-3.07544c3.32645,1.71322 4.59862,5.86772 2.84149,9.27947c-1.75712,3.41171 -5.87816,4.78865 -9.20459,3.07544z" fill="#000000"/></g></g><g stroke="#000000" stroke-width="0"><path d="M254.22628,147.15049c-6.7527,13.11137 -22.58997,18.40296 -35.37356,11.81908c-12.78358,-6.58389 -17.67263,-22.55 -10.91989,-35.66139c6.7527,-13.11137 22.58998,-18.40296 35.37357,-11.81909c12.78358,6.58389 17.67262,22.55001 10.91988,35.6614z" fill="url(#color-59)"/><g><path d="M230.59267,136.64688c-3.99416,-2.05709 -5.52172,-7.04564 -3.41189,-11.14222c2.10985,-4.09659 7.05811,-5.74987 11.05228,-3.6928c3.99416,2.05709 5.52172,7.04564 3.41189,11.14222c-2.10985,4.09659 -7.05811,5.74987 -11.05228,3.6928z" fill="#f500ff"/><path d="M231.23133,135.40685c-3.32645,-1.71322 -4.59862,-5.86772 -2.84148,-9.27947c1.75712,-3.41171 5.87815,-4.78866 9.20458,-3.07544c3.32645,1.71322 4.59862,5.86772 2.84149,9.27947c-1.75712,3.41171 -5.87816,4.78865 -9.20459,3.07544z" fill="#000000"/></g></g><path d="M179.71677,152.99313l32.09153,-61.5258l8.52669,4.62497l-32.09153,61.5258z" fill="url(#color-60)" stroke="none" stroke-width="0"/><path d="M176.02048,196.73431l19.62398,-38.10291l4.96996,2.55964l-19.62398,38.10291z" fill="url(#color-61)" stroke="none" stroke-width="0"/><path d="M151.17077,183.93607l19.62398,-38.10291l4.96996,2.55964l-19.62398,38.10291z" fill="url(#color-62)" stroke="none" stroke-width="0"/><path d="M151.55003,88.855l-17.36823,33.09949l106.88688,55.37363l17.58725,-33.29802l6.94267,3.71039l-21.74002,41.15699l-120.55925,-62.76029l21.41737,-40.90845z" fill="url(#color-63)" stroke="none" stroke-width="0"/></g><g stroke-width="0"><g><path d="M166.4676,66.90348l-16.66219,-52.74563l4.26099,-1.36496l16.66215,52.74564z" fill="url(#color-64)" stroke="none"/><g stroke="#000000"><g fill="url(#color-65)"><path d="M174.8164,6.22306c0.2797,0.86263 8.91747,18.456 -16.05851,26.39617c-24.63638,7.83218 -27.05355,-7.61437 -28.52907,-11.80092c-6.402,-18.16488 4.13891,-63.41881 4.13891,-63.41881c0,0 34.50818,30.50261 40.44863,48.8236z"/></g><g fill="url(#color-66)"><path d="M168.59307,6.69c0.21282,0.65644 6.78593,14.04445 -12.22005,20.0867c-18.74753,5.96006 -20.58698,-5.79434 -21.70975,-8.98014c-4.87175,-13.82293 2.47929,-50.38668 2.47929,-50.38668c0,0 26.93007,25.33835 31.45054,39.28008z"/></g></g></g><path d="M172.47108,68.37547c-1.0824,2.10166 -3.66359,2.9279 -5.76522,1.8455c-2.10166,-1.0824 -2.9279,-3.66359 -1.8455,-5.76523c1.0824,-2.10166 3.66359,-2.9279 5.76522,-1.84549c2.10166,1.0824 2.9279,3.66359 1.8455,5.76522z" fill="url(#color-67)" stroke="none"/></g><g data-paper-data="{&quot;index&quot;:null}" stroke-width="0"><g><path d="M265.74004,114.47187l52.61658,-17.0653l1.36319,4.26155l-52.61659,17.06529z" fill="url(#color-68)" stroke="none"/><g stroke="#000000"><g fill="url(#color-69)"><path d="M311.65536,76.69869c18.36496,-5.80308 63.23675,4.57704 63.23675,4.57704c0,0 -30.72034,34.86097 -49.22625,40.19768c-4.26514,1.22996 -18.24399,8.23215 -26.17442,-16.37277c-8.03974,-24.94409 11.29925,-28.12876 12.16393,-28.40198z"/></g><g fill="url(#color-70)"><path d="M314.88918,82.03625c13.97519,-4.41597 50.24202,2.7937 50.24202,2.7937c0,0 -25.49801,27.21758 -39.58044,31.27863c-3.24559,0.93597 -13.88311,6.26438 -19.91793,-12.45921c-6.11798,-18.98173 8.5984,-21.40509 9.25639,-21.61305z"/></g></g></g><path d="M268.18372,112.85522c2.10166,1.0824 2.9279,3.66359 1.8455,5.76523c-1.0824,2.10166 -3.66359,2.9279 -5.76522,1.84549c-2.10166,-1.0824 -2.9279,-3.66359 -1.8455,-5.76522c1.0824,-2.10166 3.66359,-2.9279 5.76522,-1.8455z" fill="url(#color-71)" stroke="none"/></g><g stroke-width="0"><g><path d="M246.67526,221.11737l-152.09859,-79.50487c0,0 -3.08487,-36.22383 20.69804,-60.45056c28.16431,-28.68989 36.29961,-66.34905 120.12368,-23.05374c81.98031,42.39554 53.56105,67.29212 48.80081,107.19853c-4.68562,39.28097 -37.52392,55.8106 -37.52392,55.8106zM158.67708,133.1938c13.36402,6.88281 29.77738,1.62874 36.66018,-11.73527c16.02196,-31.10902 9.72937,-45.5059 -3.63467,-52.3887c-13.36402,-6.88281 -32.62469,-1.0541 -44.76079,27.46382c-5.88632,13.83193 -1.62874,29.77738 11.73527,36.66017zM217.05199,162.52044c13.36402,6.88281 29.87253,0.45314 36.75537,-12.91089c6.88281,-13.36402 18.49455,-38.7464 -4.14527,-50.4065c-22.23652,-11.45238 -36.15744,12.74069 -43.04027,26.10473c-6.88281,13.36402 -2.93385,30.32986 10.43017,37.21266z" fill="url(#color-72)" stroke="none"/><g><g stroke="#000000"><path d="M135.74322,148.17884c-5.12623,6.16422 -26.47252,-5.96668 -49.39574,-25.02993c-22.92323,-19.06322 -32.82312,-63.40457 -32.82312,-63.40457c0,0 23.5907,27.8784 46.51393,46.94162c0,0 40.83122,35.32863 35.70496,41.49285z" fill="url(#color-73)"/><path d="M135.51287,152.56484c-4.29338,6.77075 -27.01912,-2.52243 -52.19786,-18.48846c-25.17871,-15.96601 -40.68344,-58.67161 -40.68344,-58.67161c0,0 26.97115,24.62279 52.1499,40.58882c0,0 45.02482,29.80048 40.73142,36.57126z" fill="url(#color-74)"/><path d="M133.57268,152.77534c-3.17271,7.36276 -27.07903,1.76722 -54.45932,-10.03123c-27.38025,-11.79845 -49.42148,-51.52683 -49.42148,-51.52683c0,0 30.5146,20.06451 57.89486,31.86296c0,0 49.15862,22.33232 45.98592,29.69509z" fill="url(#color-75)"/><path d="M134.59262,157.04728c-2.20228,7.70885 -26.62876,5.22539 -55.29607,-2.9642c-28.66726,-8.18959 -55.62144,-44.76327 -55.62144,-44.76327c0,0 32.83579,15.98547 61.50306,24.17507c0,0 51.61672,15.84357 49.41446,23.55242z" fill="url(#color-76)"/><path d="M135.88056,152.41918c-0.46929,8.00346 -24.84995,10.90304 -54.61295,9.15777c-29.76299,-1.74525 -64.03986,-31.5657 -64.03986,-31.5657c0,0 35.53025,8.44533 65.29327,10.19059c0,0 53.82885,4.21384 53.35955,12.21734z" fill="url(#color-77)"/></g><g data-paper-data="{&quot;index&quot;:null}" stroke="#000000"><path d="M269.92367,194.18135c28.83137,7.59172 65.22681,10.6077 65.22681,10.6077c0,0 -41.84766,17.69004 -70.67902,10.09833c-28.83138,-7.59173 -51.10331,-17.92532 -49.06183,-25.67829c2.04146,-7.75297 54.51403,4.97224 54.51403,4.97224z" fill="url(#color-78)"/><path d="M265.39891,203.86597c27.61967,11.22655 63.32781,18.88517 63.32781,18.88517c0,0 -43.77078,12.17717 -71.39046,0.95068c-27.6197,-11.22652 -48.38249,-24.33109 -45.3636,-31.75822c3.01889,-7.42716 53.42624,11.92237 53.42624,11.92237z" fill="url(#color-79)"/><path d="M263.80766,213.83857c25.50527,15.43897 59.5602,28.62942 59.5602,28.62942c0,0 -45.14285,5.12689 -70.64813,-10.3121c-25.50532,-15.439 -43.9434,-31.65193 -39.79175,-38.5105c4.15164,-6.85856 50.87965,20.19318 50.87965,20.19318z" fill="url(#color-80)"/><path d="M256.72771,221.84731c23.31469,18.58242 55.39676,36.03135 55.39676,36.03135c0,0 -45.42758,-0.7048 -68.74225,-19.28723c-23.3147,-18.58245 -39.52131,-37.02612 -34.52434,-43.29563c4.99695,-6.26951 47.86983,26.55152 47.86983,26.55152z" fill="url(#color-81)"/><path d="M252.81069,227.90542c18.70458,23.2168 46.2129,47.23797 46.2129,47.23797c0,0 -44.1821,-10.58795 -62.8867,-33.80477c-18.70461,-23.21683 -30.50224,-44.74909 -24.25906,-49.77888c6.24318,-5.02979 40.93285,36.34567 40.93285,36.34567z" fill="url(#color-82)"/></g><path d="M118.1653,127.22082c17.45019,-12.8469 32.17371,-13.52669 51.40889,-4.12587c10.21877,4.64624 21.60797,13.39988 16.68395,32.22533c-1.20477,4.60606 -5.2596,8.85017 -8.37667,14.90239c-10.80693,20.98329 -19.29087,37.46491 -19.29087,37.46491c0,0 -18.37611,-2.99328 -33.72099,-10.89627c-19.0331,-9.80254 -42.33763,-43.33708 -6.7043,-69.57045z" data-paper-data="{&quot;index&quot;:null}" fill="url(#color-83)" stroke="#000000"/><path d="M186.98434,228.78198c-15.4727,-7.96883 -29.09604,-21.10681 -29.09604,-21.10681c0,0 9.21819,-16.65928 19.94108,-37.47933c3.02881,-5.88093 5.4658,-10.81545 8.432,-14.4274c12.5628,-15.2976 24.97519,-11.83729 34.75921,-6.17728c18.82338,10.20034 26.82013,22.58165 26.49493,44.24834c-0.66408,44.24344 -41.49808,44.74499 -60.53116,34.94248z" fill="url(#color-84)" stroke="#000000"/><path d="M193.5613,138.91359c4.56603,2.35164 6.91913,6.87613 5.25579,10.10579c-1.66336,3.22964 -12.08169,14.36506 -16.64774,12.01341c-4.56606,-2.35163 -1.5507,-17.29977 0.11264,-20.52943c1.66336,-3.22964 6.71327,-3.94142 11.27931,-1.58977z" fill="url(#color-85)" stroke="none"/></g></g><g stroke="#000000"><path d="M170.56325,48.41844c0.65963,8.86399 -8.52234,13.29449 -18.78372,17.53627c-24.41579,10.0928 -24.50986,8.04255 -24.50986,8.04255c0,0 4.52234,-6.68148 3.33734,-22.60544c-1.97049,-26.47937 -49.55546,-38.56421 18.78385,-17.53629c10.62622,3.26966 20.51282,5.69897 21.17245,14.5629z" fill="url(#color-86)"/><path d="M189.41674,30.87698c64.47419,-30.91138 19.20203,-11.91647 21.17251,14.5629c1.185,15.92398 6.64644,21.86247 6.64644,21.86247c0,0 0.21047,2.0416 -25.43028,-4.32621c-10.77629,-2.67627 -20.51285,-5.69892 -21.17247,-14.56291c-0.65965,-8.8639 8.75851,-12.72978 18.78374,-17.53627z" data-paper-data="{&quot;index&quot;:null}" fill="url(#color-87)"/><path d="M186.96124,46.0843c0.67571,9.08017 -5.96222,16.97578 -14.82612,17.6354c-8.86399,0.65966 -16.59734,-6.16654 -17.27308,-15.24669c-0.67571,-9.08017 5.96224,-16.97579 14.82614,-17.63545c8.86399,-0.65966 16.59736,6.16662 17.27307,15.24674z" fill="url(#color-88)"/></g></g></g></g></svg>