<svg version="1.1" xmlns="http://www.w3.org/2000/svg" xmlns:xlink="http://www.w3.org/1999/xlink" width="61.77265" height="61.884" viewBox="0,0,61.77265,61.884"><defs><radialGradient cx="41" cy="321" r="30.88633" gradientUnits="userSpaceOnUse" id="color-1"><stop offset="0" stop-color="#404040" stop-opacity="0"/><stop offset="1" stop-color="#404040"/></radialGradient></defs><g transform="translate(-10.11369,-290.058)"><g data-paper-data="{&quot;isPaintingLayer&quot;:true}" fill-rule="nonzero" stroke="none" stroke-linecap="butt" stroke-linejoin="miter" stroke-miterlimit="10" stroke-dasharray="" stroke-dashoffset="0" style="mix-blend-mode: normal"><path d="M71.88634,294.374v53.252c0,2.379 -1.70845,4.316 -3.80872,4.316h-54.15432c-2.10027,0 -3.80961,-1.937 -3.80961,-4.316v-53.252c0,-2.38 1.71022,-4.316 3.80961,-4.316h54.15255c2.10115,0 3.81049,1.936 3.81049,4.316z" fill="url(#color-1)" stroke-width="1"/><path d="M57.23631,323.76865c0,11.63055 -7.26924,21.05897 -16.2363,21.05897c-8.96706,0 -16.2363,-9.42842 -16.2363,-21.05897c0,-2.93171 0.43052,-5.73404 1.29641,-8.25963c0.32021,-0.93397 29.54447,-0.763 29.87002,-0.02961c1.08706,2.44888 1.30618,5.34612 1.30618,8.28924z" fill="#cecece" stroke-width="0"/><path d="M26.19738,314.10229c0.22451,-4.14537 2.26526,-10.05284 5.79722,-13.17067c3.89418,-3.43758 8.2551,-3.75924 8.2551,-3.75924l0.18925,16.63105c0,0 -2.78272,-0.07614 -6.28727,0.05394c-3.88098,0.14405 -7.9673,0.48522 -7.95429,0.24492z" fill="#828282" stroke-width="0"/><path d="M47.69518,313.85737c-3.50456,-0.13007 -6.28727,-0.05394 -6.28727,-0.05394l-0.05715,-16.56945c0,0 4.60732,0.26005 8.50149,3.69764c3.53196,3.11783 5.57271,9.0253 5.79722,13.17067c0.01301,0.2403 -4.07331,-0.10087 -7.95429,-0.24492z" data-paper-data="{&quot;index&quot;:null}" fill="#cecece" stroke-width="0"/></g></g></svg>