<svg version="1.1" xmlns="http://www.w3.org/2000/svg" xmlns:xlink="http://www.w3.org/1999/xlink" width="620.95067" height="367.88565" viewBox="0,0,620.95067,367.88565"><defs><linearGradient x1="406.10779" y1="374.39872" x2="403.37115" y2="387.81453" gradientUnits="userSpaceOnUse" id="color-1"><stop offset="0" stop-color="#0f0f0f"/><stop offset="1" stop-color="#737373"/></linearGradient><linearGradient x1="403.16531" y1="389.73983" x2="400.44535" y2="403.07387" gradientUnits="userSpaceOnUse" id="color-2"><stop offset="0" stop-color="#0f0f0f"/><stop offset="1" stop-color="#737373"/></linearGradient><linearGradient x1="448.72705" y1="382.66198" x2="446.00708" y2="395.99602" gradientUnits="userSpaceOnUse" id="color-3"><stop offset="0" stop-color="#0f0f0f"/><stop offset="1" stop-color="#737373"/></linearGradient><linearGradient x1="445.69229" y1="397.90002" x2="442.95564" y2="411.31586" gradientUnits="userSpaceOnUse" id="color-4"><stop offset="0" stop-color="#0f0f0f"/><stop offset="1" stop-color="#737373"/></linearGradient><linearGradient x1="421.95581" y1="404.04984" x2="420.7411" y2="410.0047" gradientUnits="userSpaceOnUse" id="color-5"><stop offset="0" stop-color="#595959"/><stop offset="1" stop-color="#afafaf"/></linearGradient><linearGradient x1="427.79991" y1="376.02392" x2="426.58521" y2="381.97876" gradientUnits="userSpaceOnUse" id="color-6"><stop offset="0" stop-color="#afafaf"/><stop offset="1" stop-color="#595959"/></linearGradient><linearGradient x1="425.21786" y1="388.62494" x2="423.51022" y2="396.99629" gradientUnits="userSpaceOnUse" id="color-7"><stop offset="0" stop-color="#afafaf"/><stop offset="1" stop-color="#595959"/></linearGradient><radialGradient cx="460.52407" cy="398.37919" r="8.79894" gradientUnits="userSpaceOnUse" id="color-8"><stop offset="0" stop-color="#656565"/><stop offset="1" stop-color="#404040"/></radialGradient><linearGradient x1="434.60881" y1="368.64287" x2="424.63456" y2="417.53945" gradientUnits="userSpaceOnUse" id="color-9"><stop offset="0" stop-color="#80cb83"/><stop offset="1" stop-color="#39853c"/></linearGradient><linearGradient x1="332.05125" y1="359.29218" x2="329.3146" y2="372.70799" gradientUnits="userSpaceOnUse" id="color-10"><stop offset="0" stop-color="#0f0f0f"/><stop offset="1" stop-color="#737373"/></linearGradient><linearGradient x1="329.10879" y1="374.63329" x2="326.38882" y2="387.96733" gradientUnits="userSpaceOnUse" id="color-11"><stop offset="0" stop-color="#0f0f0f"/><stop offset="1" stop-color="#737373"/></linearGradient><linearGradient x1="374.67048" y1="367.55543" x2="371.95052" y2="380.88947" gradientUnits="userSpaceOnUse" id="color-12"><stop offset="0" stop-color="#0f0f0f"/><stop offset="1" stop-color="#737373"/></linearGradient><linearGradient x1="371.63573" y1="382.79347" x2="368.89908" y2="396.20931" gradientUnits="userSpaceOnUse" id="color-13"><stop offset="0" stop-color="#0f0f0f"/><stop offset="1" stop-color="#737373"/></linearGradient><linearGradient x1="347.89925" y1="388.9433" x2="346.68454" y2="394.89815" gradientUnits="userSpaceOnUse" id="color-14"><stop offset="0" stop-color="#595959"/><stop offset="1" stop-color="#afafaf"/></linearGradient><linearGradient x1="353.74339" y1="360.91738" x2="352.52868" y2="366.87222" gradientUnits="userSpaceOnUse" id="color-15"><stop offset="0" stop-color="#afafaf"/><stop offset="1" stop-color="#595959"/></linearGradient><linearGradient x1="351.16135" y1="373.5184" x2="349.45371" y2="381.88975" gradientUnits="userSpaceOnUse" id="color-16"><stop offset="0" stop-color="#afafaf"/><stop offset="1" stop-color="#595959"/></linearGradient><radialGradient cx="386.46754" cy="383.27265" r="8.79894" gradientUnits="userSpaceOnUse" id="color-17"><stop offset="0" stop-color="#656565"/><stop offset="1" stop-color="#404040"/></radialGradient><linearGradient x1="360.55225" y1="353.53633" x2="350.57801" y2="402.43291" gradientUnits="userSpaceOnUse" id="color-18"><stop offset="0" stop-color="#80cb83"/><stop offset="1" stop-color="#39853c"/></linearGradient><linearGradient x1="532.87474" y1="411.19532" x2="523.22614" y2="434.75475" gradientUnits="userSpaceOnUse" id="color-19"><stop offset="0" stop-color="#446b45"/><stop offset="1" stop-color="#235124"/></linearGradient><linearGradient x1="538.27545" y1="410.92941" x2="529.48147" y2="434.821" gradientUnits="userSpaceOnUse" id="color-20"><stop offset="0" stop-color="#5f9761"/><stop offset="1" stop-color="#2f6e31"/></linearGradient><linearGradient x1="539.15107" y1="409.66984" x2="534.06263" y2="434.61479" gradientUnits="userSpaceOnUse" id="color-21"><stop offset="0" stop-color="#80cb83"/><stop offset="1" stop-color="#39853c"/></linearGradient><linearGradient x1="495.57134" y1="395.83873" x2="491.10065" y2="417.75534" gradientUnits="userSpaceOnUse" id="color-22"><stop offset="0" stop-color="#80cb83"/><stop offset="1" stop-color="#39853c"/></linearGradient><linearGradient x1="490.61036" y1="402.35087" x2="483.39956" y2="437.70027" gradientUnits="userSpaceOnUse" id="color-23"><stop offset="0" stop-color="#80cb83"/><stop offset="1" stop-color="#39853c"/></linearGradient><linearGradient x1="78.74595" y1="381.7435" x2="82.89968" y2="394.79032" gradientUnits="userSpaceOnUse" id="color-24"><stop offset="0" stop-color="#0f0f0f"/><stop offset="1" stop-color="#737373"/></linearGradient><linearGradient x1="83.30997" y1="396.68262" x2="87.43838" y2="409.64993" gradientUnits="userSpaceOnUse" id="color-25"><stop offset="0" stop-color="#0f0f0f"/><stop offset="1" stop-color="#737373"/></linearGradient><linearGradient x1="37.2529" y1="394.511" x2="41.38131" y2="407.47831" gradientUnits="userSpaceOnUse" id="color-26"><stop offset="0" stop-color="#0f0f0f"/><stop offset="1" stop-color="#737373"/></linearGradient><linearGradient x1="41.89767" y1="409.33779" x2="46.05141" y2="422.38465" gradientUnits="userSpaceOnUse" id="color-27"><stop offset="0" stop-color="#0f0f0f"/><stop offset="1" stop-color="#737373"/></linearGradient><linearGradient x1="66.15518" y1="412.91752" x2="67.99889" y2="418.70859" gradientUnits="userSpaceOnUse" id="color-28"><stop offset="0" stop-color="#595959"/><stop offset="1" stop-color="#afafaf"/></linearGradient><linearGradient x1="57.35145" y1="385.676" x2="59.19515" y2="391.46706" gradientUnits="userSpaceOnUse" id="color-29"><stop offset="0" stop-color="#afafaf"/><stop offset="1" stop-color="#595959"/></linearGradient><linearGradient x1="61.26446" y1="397.9292" x2="63.85635" y2="406.07031" gradientUnits="userSpaceOnUse" id="color-30"><stop offset="0" stop-color="#afafaf"/><stop offset="1" stop-color="#595959"/></linearGradient><radialGradient cx="27.20188" cy="411.39817" r="8.79894" gradientUnits="userSpaceOnUse" id="color-31"><stop offset="0" stop-color="#656565"/><stop offset="1" stop-color="#404040"/></radialGradient><linearGradient x1="49.79327" y1="379.06431" x2="64.93236" y2="426.61606" gradientUnits="userSpaceOnUse" id="color-32"><stop offset="0" stop-color="#80cb83"/><stop offset="1" stop-color="#39853c"/></linearGradient><linearGradient x1="150.7657" y1="358.81451" x2="154.91943" y2="371.86134" gradientUnits="userSpaceOnUse" id="color-33"><stop offset="0" stop-color="#0f0f0f"/><stop offset="1" stop-color="#737373"/></linearGradient><linearGradient x1="155.32968" y1="373.75365" x2="159.45809" y2="386.72095" gradientUnits="userSpaceOnUse" id="color-34"><stop offset="0" stop-color="#0f0f0f"/><stop offset="1" stop-color="#737373"/></linearGradient><linearGradient x1="109.27266" y1="371.58201" x2="113.40107" y2="384.54931" gradientUnits="userSpaceOnUse" id="color-35"><stop offset="0" stop-color="#0f0f0f"/><stop offset="1" stop-color="#737373"/></linearGradient><linearGradient x1="113.9174" y1="386.40881" x2="118.07114" y2="399.45566" gradientUnits="userSpaceOnUse" id="color-36"><stop offset="0" stop-color="#0f0f0f"/><stop offset="1" stop-color="#737373"/></linearGradient><linearGradient x1="138.17491" y1="389.98854" x2="140.01862" y2="395.77961" gradientUnits="userSpaceOnUse" id="color-37"><stop offset="0" stop-color="#595959"/><stop offset="1" stop-color="#afafaf"/></linearGradient><linearGradient x1="129.37119" y1="362.74701" x2="131.21489" y2="368.53808" gradientUnits="userSpaceOnUse" id="color-38"><stop offset="0" stop-color="#afafaf"/><stop offset="1" stop-color="#595959"/></linearGradient><linearGradient x1="133.28417" y1="375.00022" x2="135.87606" y2="383.14134" gradientUnits="userSpaceOnUse" id="color-39"><stop offset="0" stop-color="#afafaf"/><stop offset="1" stop-color="#595959"/></linearGradient><radialGradient cx="99.22159" cy="388.4692" r="8.79894" gradientUnits="userSpaceOnUse" id="color-40"><stop offset="0" stop-color="#656565"/><stop offset="1" stop-color="#404040"/></radialGradient><linearGradient x1="121.81299" y1="356.13533" x2="136.95208" y2="403.68707" gradientUnits="userSpaceOnUse" id="color-41"><stop offset="0" stop-color="#80cb83"/><stop offset="1" stop-color="#39853c"/></linearGradient><linearGradient x1="-43.36633" y1="431.86766" x2="-31.2569" y2="454.26194" gradientUnits="userSpaceOnUse" id="color-42"><stop offset="0" stop-color="#446b45"/><stop offset="1" stop-color="#235124"/></linearGradient><linearGradient x1="-48.76455" y1="432.18004" x2="-37.46937" y2="454.99585" gradientUnits="userSpaceOnUse" id="color-43"><stop offset="0" stop-color="#5f9761"/><stop offset="1" stop-color="#2f6e31"/></linearGradient><linearGradient x1="-49.76968" y1="431.02119" x2="-42.04637" y2="455.28006" gradientUnits="userSpaceOnUse" id="color-44"><stop offset="0" stop-color="#80cb83"/><stop offset="1" stop-color="#39853c"/></linearGradient><linearGradient x1="-7.91628" y1="412.6151" x2="-1.13058" y2="433.92893" gradientUnits="userSpaceOnUse" id="color-45"><stop offset="0" stop-color="#80cb83"/><stop offset="1" stop-color="#39853c"/></linearGradient><linearGradient x1="-2.28821" y1="418.5602" x2="8.65647" y2="452.93736" gradientUnits="userSpaceOnUse" id="color-46"><stop offset="0" stop-color="#80cb83"/><stop offset="1" stop-color="#39853c"/></linearGradient><linearGradient x1="235.03628" y1="316.8359" x2="244.28591" y2="316.8359" gradientUnits="userSpaceOnUse" id="color-47"><stop offset="0" stop-color="#afafaf"/><stop offset="1" stop-color="#595959"/></linearGradient><linearGradient x1="242.00795" y1="379.83305" x2="242.00795" y2="390.59371" gradientUnits="userSpaceOnUse" id="color-48"><stop offset="0" stop-color="#afafaf"/><stop offset="1" stop-color="#595959"/></linearGradient><linearGradient x1="194.20973" y1="376.04644" x2="194.20973" y2="394.42923" gradientUnits="userSpaceOnUse" id="color-49"><stop offset="0" stop-color="#7c7c7c"/><stop offset="1" stop-color="#111111"/></linearGradient><linearGradient x1="211.51244" y1="376.74774" x2="211.51244" y2="395.13053" gradientUnits="userSpaceOnUse" id="color-50"><stop offset="0" stop-color="#7c7c7c"/><stop offset="1" stop-color="#111111"/></linearGradient><linearGradient x1="271.92587" y1="376.24299" x2="271.92587" y2="394.62578" gradientUnits="userSpaceOnUse" id="color-51"><stop offset="0" stop-color="#7c7c7c"/><stop offset="1" stop-color="#111111"/></linearGradient><linearGradient x1="289.22857" y1="376.94429" x2="289.22857" y2="395.32709" gradientUnits="userSpaceOnUse" id="color-52"><stop offset="0" stop-color="#7c7c7c"/><stop offset="1" stop-color="#111111"/></linearGradient><linearGradient x1="242.00795" y1="408.11534" x2="242.00795" y2="418.87601" gradientUnits="userSpaceOnUse" id="color-53"><stop offset="0" stop-color="#afafaf"/><stop offset="1" stop-color="#595959"/></linearGradient><linearGradient x1="198.4835" y1="404.32873" x2="198.4835" y2="422.71152" gradientUnits="userSpaceOnUse" id="color-54"><stop offset="0" stop-color="#7c7c7c"/><stop offset="1" stop-color="#111111"/></linearGradient><linearGradient x1="214.23912" y1="405.03004" x2="214.23912" y2="423.41283" gradientUnits="userSpaceOnUse" id="color-55"><stop offset="0" stop-color="#7c7c7c"/><stop offset="1" stop-color="#111111"/></linearGradient><linearGradient x1="269.25082" y1="404.52528" x2="269.25082" y2="422.90807" gradientUnits="userSpaceOnUse" id="color-56"><stop offset="0" stop-color="#7c7c7c"/><stop offset="1" stop-color="#111111"/></linearGradient><linearGradient x1="285.00648" y1="405.22659" x2="285.00648" y2="423.60938" gradientUnits="userSpaceOnUse" id="color-57"><stop offset="0" stop-color="#7c7c7c"/><stop offset="1" stop-color="#111111"/></linearGradient><linearGradient x1="242.00795" y1="436.39766" x2="242.00795" y2="447.15832" gradientUnits="userSpaceOnUse" id="color-58"><stop offset="0" stop-color="#afafaf"/><stop offset="1" stop-color="#595959"/></linearGradient><linearGradient x1="203.82572" y1="432.61105" x2="203.82572" y2="450.99382" gradientUnits="userSpaceOnUse" id="color-59"><stop offset="0" stop-color="#7c7c7c"/><stop offset="1" stop-color="#111111"/></linearGradient><linearGradient x1="217.64748" y1="433.31235" x2="217.64748" y2="451.69515" gradientUnits="userSpaceOnUse" id="color-60"><stop offset="0" stop-color="#7c7c7c"/><stop offset="1" stop-color="#111111"/></linearGradient><linearGradient x1="265.90703" y1="432.8076" x2="265.90703" y2="451.19039" gradientUnits="userSpaceOnUse" id="color-61"><stop offset="0" stop-color="#7c7c7c"/><stop offset="1" stop-color="#111111"/></linearGradient><linearGradient x1="279.72879" y1="433.5089" x2="279.72879" y2="451.8917" gradientUnits="userSpaceOnUse" id="color-62"><stop offset="0" stop-color="#7c7c7c"/><stop offset="1" stop-color="#111111"/></linearGradient><linearGradient x1="228.35075" y1="424.41698" x2="252.90296" y2="424.41698" gradientUnits="userSpaceOnUse" id="color-63"><stop offset="0" stop-color="#afafaf"/><stop offset="1" stop-color="#595959"/></linearGradient><linearGradient x1="241.17046" y1="364.76945" x2="241.17046" y2="370.42592" gradientUnits="userSpaceOnUse" id="color-64"><stop offset="0" stop-color="#afafaf"/><stop offset="1" stop-color="#595959"/></linearGradient><radialGradient cx="318.47539" cy="365.39793" r="8.79894" gradientUnits="userSpaceOnUse" id="color-65"><stop offset="0" stop-color="#656565"/><stop offset="1" stop-color="#404040"/></radialGradient><linearGradient x1="240.45908" y1="361.0698" x2="240.45908" y2="374.8967" gradientUnits="userSpaceOnUse" id="color-66"><stop offset="0" stop-color="#595959"/><stop offset="1" stop-color="#393939"/></linearGradient><radialGradient cx="167.63646" cy="365.39793" r="8.79894" gradientUnits="userSpaceOnUse" id="color-67"><stop offset="0" stop-color="#656565"/><stop offset="1" stop-color="#404040"/></radialGradient><linearGradient x1="227.90355" y1="497.78225" x2="253.39325" y2="497.78225" gradientUnits="userSpaceOnUse" id="color-68"><stop offset="0" stop-color="#595959"/><stop offset="1" stop-color="#393939"/></linearGradient><linearGradient x1="225.97194" y1="489.09005" x2="255.32484" y2="489.09005" gradientUnits="userSpaceOnUse" id="color-69"><stop offset="0" stop-color="#393939"/><stop offset="1" stop-color="#151515"/></linearGradient><linearGradient x1="225.97194" y1="499.23096" x2="255.32484" y2="499.23096" gradientUnits="userSpaceOnUse" id="color-70"><stop offset="0" stop-color="#393939"/><stop offset="1" stop-color="#151515"/></linearGradient><radialGradient cx="171.57929" cy="353.84745" r="21.31797" gradientUnits="userSpaceOnUse" id="color-71"><stop offset="0" stop-color="#80cb83"/><stop offset="1" stop-color="#39853c"/></radialGradient><radialGradient cx="311.20905" cy="353.84745" r="21.31797" gradientUnits="userSpaceOnUse" id="color-72"><stop offset="0" stop-color="#80cb83"/><stop offset="1" stop-color="#39853c"/></radialGradient><linearGradient x1="241.02877" y1="333.61378" x2="241.02877" y2="512.105" gradientUnits="userSpaceOnUse" id="color-73"><stop offset="0" stop-color="#80cb83"/><stop offset="1" stop-color="#39853c"/></linearGradient><radialGradient cx="252.08816" cy="390.89823" r="75.39944" gradientUnits="userSpaceOnUse" id="color-74"><stop offset="0" stop-color="#bef3c0"/><stop offset="1" stop-color="#9ecba0"/></radialGradient><radialGradient cx="236.93775" cy="367.94355" r="20.02951" gradientUnits="userSpaceOnUse" id="color-75"><stop offset="0" stop-color="#650000"/><stop offset="1" stop-color="#900000"/></radialGradient><radialGradient cx="245.84259" cy="367.94355" r="20.02951" gradientUnits="userSpaceOnUse" id="color-76"><stop offset="0" stop-color="#650000"/><stop offset="1" stop-color="#900000"/></radialGradient><radialGradient cx="241.82811" cy="367.51883" r="11.81599" gradientUnits="userSpaceOnUse" id="color-77"><stop offset="0" stop-color="#c20000"/><stop offset="1" stop-color="#900000"/></radialGradient><linearGradient x1="232.25293" y1="396.52483" x2="250.44751" y2="396.52483" gradientUnits="userSpaceOnUse" id="color-78"><stop offset="0" stop-color="#383838"/><stop offset="1" stop-color="#0a0a0a"/></linearGradient><linearGradient x1="232.25293" y1="396.52483" x2="250.44751" y2="396.52483" gradientUnits="userSpaceOnUse" id="color-79"><stop offset="0" stop-color="#0a0a0a"/><stop offset="1" stop-color="#383838"/></linearGradient><linearGradient x1="232.25293" y1="424.71671" x2="250.44751" y2="424.71671" gradientUnits="userSpaceOnUse" id="color-80"><stop offset="0" stop-color="#383838"/><stop offset="1" stop-color="#0a0a0a"/></linearGradient><linearGradient x1="232.25293" y1="424.71671" x2="250.44751" y2="424.71671" gradientUnits="userSpaceOnUse" id="color-81"><stop offset="0" stop-color="#0a0a0a"/><stop offset="1" stop-color="#383838"/></linearGradient><linearGradient x1="240.57627" y1="281.02651" x2="240.57627" y2="353.59026" gradientUnits="userSpaceOnUse" id="color-82"><stop offset="0" stop-color="#80cb83"/><stop offset="1" stop-color="#39853c"/></linearGradient><linearGradient x1="240.57627" y1="322.30066" x2="240.57627" y2="365.26375" gradientUnits="userSpaceOnUse" id="color-83"><stop offset="0" stop-color="#80cb83"/><stop offset="1" stop-color="#39853c"/></linearGradient><linearGradient x1="240.29646" y1="281.21564" x2="240.29646" y2="348.67173" gradientUnits="userSpaceOnUse" id="color-84"><stop offset="0" stop-color="#330000"/><stop offset="1" stop-color="#9c0000"/></linearGradient><linearGradient x1="240.06394" y1="295.70749" x2="240.06394" y2="297.57144" gradientUnits="userSpaceOnUse" id="color-85"><stop offset="0" stop-color="#898989"/><stop offset="1" stop-color="#2e2e2e"/></linearGradient><linearGradient x1="240.02603" y1="301.94025" x2="240.02603" y2="314.84346" gradientUnits="userSpaceOnUse" id="color-86"><stop offset="0" stop-color="#8a8a8a"/><stop offset="1" stop-color="#0f0f0f"/></linearGradient><linearGradient x1="240.02603" y1="300.75883" x2="240.02603" y2="313.66204" gradientUnits="userSpaceOnUse" id="color-87"><stop offset="0" stop-color="#898989"/><stop offset="1" stop-color="#2e2e2e"/></linearGradient><linearGradient x1="240.06383" y1="217.00418" x2="240.06383" y2="221.72357" gradientUnits="userSpaceOnUse" id="color-88"><stop offset="0" stop-color="#afafaf"/><stop offset="1" stop-color="#7a7a7a"/></linearGradient><linearGradient x1="197.97339" y1="213.02592" x2="197.97339" y2="265.12265" gradientUnits="userSpaceOnUse" id="color-89"><stop offset="0" stop-color="#afafaf"/><stop offset="1" stop-color="#7a7a7a"/></linearGradient><linearGradient x1="282.01645" y1="213.02592" x2="282.01645" y2="265.12265" gradientUnits="userSpaceOnUse" id="color-90"><stop offset="0" stop-color="#afafaf"/><stop offset="1" stop-color="#7a7a7a"/></linearGradient><linearGradient x1="240.23929" y1="246.08326" x2="240.23929" y2="286.66521" gradientUnits="userSpaceOnUse" id="color-91"><stop offset="0" stop-color="#424242"/><stop offset="1" stop-color="#000000"/></linearGradient><linearGradient x1="239.74969" y1="234.38979" x2="239.74969" y2="240.52625" gradientUnits="userSpaceOnUse" id="color-92"><stop offset="0" stop-color="#b8b8b8"/><stop offset="1" stop-color="#313131"/></linearGradient><radialGradient cx="214.91745" cy="237.54962" r="20.45143" gradientUnits="userSpaceOnUse" id="color-93"><stop offset="0" stop-color="#ffffff"/><stop offset="1" stop-color="#cccccc"/></radialGradient><radialGradient cx="264.59928" cy="237.54962" r="20.45143" gradientUnits="userSpaceOnUse" id="color-94"><stop offset="0" stop-color="#ffffff"/><stop offset="1" stop-color="#cccccc"/></radialGradient><linearGradient x1="239.8461" y1="214.59077" x2="239.57089" y2="267.7349" gradientUnits="userSpaceOnUse" id="color-95"><stop offset="0" stop-color="#9d9d9d"/><stop offset="1" stop-color="#6e6e6e"/></linearGradient><linearGradient x1="250.81973" y1="265.90904" x2="250.81973" y2="298.73341" gradientUnits="userSpaceOnUse" id="color-96"><stop offset="0" stop-color="#afafaf"/><stop offset="1" stop-color="#595959"/></linearGradient><linearGradient x1="229.41252" y1="265.90904" x2="229.41252" y2="298.73341" gradientUnits="userSpaceOnUse" id="color-97"><stop offset="0" stop-color="#afafaf"/><stop offset="1" stop-color="#595959"/></linearGradient><linearGradient x1="290.8177" y1="234.43862" x2="290.44795" y2="269.56324" gradientUnits="userSpaceOnUse" id="color-98"><stop offset="0" stop-color="#afafaf"/><stop offset="1" stop-color="#595959"/></linearGradient><linearGradient x1="181.71207" y1="198.65497" x2="184.16546" y2="196.22343" gradientUnits="userSpaceOnUse" id="color-99"><stop offset="0" stop-color="#d3d3d3"/><stop offset="1" stop-color="#868686"/></linearGradient><linearGradient x1="141.68898" y1="155.19507" x2="179.28896" y2="193.13322" gradientUnits="userSpaceOnUse" id="color-100"><stop offset="0" stop-color="#80cb83"/><stop offset="1" stop-color="#39853c"/></linearGradient><radialGradient cx="162.73198" cy="177.02369" r="23.8956" gradientUnits="userSpaceOnUse" id="color-101"><stop offset="0" stop-color="#bef3c0"/><stop offset="1" stop-color="#7da17f"/></radialGradient><radialGradient cx="197.97339" cy="212.58293" r="3.27819" gradientUnits="userSpaceOnUse" id="color-102"><stop offset="0" stop-color="#a9a9a9"/><stop offset="1" stop-color="#5d5d5d"/></radialGradient><linearGradient x1="298.27782" y1="198.65497" x2="295.82443" y2="196.22343" gradientUnits="userSpaceOnUse" id="color-103"><stop offset="0" stop-color="#d3d3d3"/><stop offset="1" stop-color="#868686"/></linearGradient><linearGradient x1="338.30091" y1="155.19507" x2="300.70093" y2="193.13322" gradientUnits="userSpaceOnUse" id="color-104"><stop offset="0" stop-color="#80cb83"/><stop offset="1" stop-color="#39853c"/></linearGradient><radialGradient cx="317.25791" cy="177.02369" r="23.8956" gradientUnits="userSpaceOnUse" id="color-105"><stop offset="0" stop-color="#bef3c0"/><stop offset="1" stop-color="#7da17f"/></radialGradient><radialGradient cx="282.01645" cy="212.58293" r="3.27819" gradientUnits="userSpaceOnUse" id="color-106"><stop offset="0" stop-color="#a9a9a9"/><stop offset="1" stop-color="#5d5d5d"/></radialGradient><linearGradient x1="239.71071" y1="183.52583" x2="239.71071" y2="290.55897" gradientUnits="userSpaceOnUse" id="color-107"><stop offset="0" stop-color="#80cb83"/><stop offset="1" stop-color="#39853c"/></linearGradient><linearGradient x1="162.56566" y1="255.84162" x2="157.04966" y2="280.72744" gradientUnits="userSpaceOnUse" id="color-108"><stop offset="0" stop-color="#bef3c0"/><stop offset="1" stop-color="#9ecba0"/></linearGradient><linearGradient x1="161.2186" y1="264.4496" x2="158.93966" y2="289.83735" gradientUnits="userSpaceOnUse" id="color-109"><stop offset="0" stop-color="#bef3c0"/><stop offset="1" stop-color="#9ecba0"/></linearGradient><linearGradient x1="157.62401" y1="272.49936" x2="159.37456" y2="297.92901" gradientUnits="userSpaceOnUse" id="color-110"><stop offset="0" stop-color="#bef3c0"/><stop offset="1" stop-color="#9ecba0"/></linearGradient><linearGradient x1="158.76756" y1="281.13677" x2="163.76488" y2="306.13193" gradientUnits="userSpaceOnUse" id="color-111"><stop offset="0" stop-color="#bef3c0"/><stop offset="1" stop-color="#9ecba0"/></linearGradient><linearGradient x1="158.05817" y1="288.07114" x2="168.3826" y2="311.37645" gradientUnits="userSpaceOnUse" id="color-112"><stop offset="0" stop-color="#bef3c0"/><stop offset="1" stop-color="#9ecba0"/></linearGradient><linearGradient x1="314.52222" y1="255.84162" x2="320.03824" y2="280.72744" gradientUnits="userSpaceOnUse" id="color-113"><stop offset="0" stop-color="#bef3c0"/><stop offset="1" stop-color="#9ecba0"/></linearGradient><linearGradient x1="315.86927" y1="264.4496" x2="318.14817" y2="289.83735" gradientUnits="userSpaceOnUse" id="color-114"><stop offset="0" stop-color="#bef3c0"/><stop offset="1" stop-color="#9ecba0"/></linearGradient><linearGradient x1="319.46388" y1="272.49936" x2="317.7133" y2="297.92901" gradientUnits="userSpaceOnUse" id="color-115"><stop offset="0" stop-color="#bef3c0"/><stop offset="1" stop-color="#9ecba0"/></linearGradient><linearGradient x1="318.32027" y1="281.13677" x2="313.32296" y2="306.13193" gradientUnits="userSpaceOnUse" id="color-116"><stop offset="0" stop-color="#bef3c0"/><stop offset="1" stop-color="#9ecba0"/></linearGradient><linearGradient x1="319.02972" y1="288.07114" x2="308.70528" y2="311.37645" gradientUnits="userSpaceOnUse" id="color-117"><stop offset="0" stop-color="#bef3c0"/><stop offset="1" stop-color="#9ecba0"/></linearGradient><radialGradient cx="224.88592" cy="271.97533" r="32.95173" gradientUnits="userSpaceOnUse" id="color-118"><stop offset="0" stop-color="#bef3c0"/><stop offset="1" stop-color="#9ecba0"/></radialGradient><radialGradient cx="278.04199" cy="269.54334" r="32.95173" gradientUnits="userSpaceOnUse" id="color-119"><stop offset="0" stop-color="#bef3c0"/><stop offset="1" stop-color="#9ecba0"/></radialGradient><radialGradient cx="241.7085" cy="257.55057" r="9.52747" gradientUnits="userSpaceOnUse" id="color-120"><stop offset="0" stop-color="#858585"/><stop offset="1" stop-color="#000000"/></radialGradient></defs><g transform="translate(64.60785,-150.38463)"><g data-paper-data="{&quot;isPaintingLayer&quot;:true}" fill-rule="nonzero" stroke-linecap="butt" stroke-linejoin="miter" stroke-miterlimit="10" stroke-dasharray="" stroke-dashoffset="0" style="mix-blend-mode: normal"><path d="M308.08458,426.26582c-3.52806,37.52364 -5.35376,43.40012 -8.84261,61.17756c-5.18326,26.41135 -57.74791,24.47524 -57.74791,24.47524c0,0 -52.94839,3.64576 -58.03954,-26.68899c-2.54146,-15.1429 -7.0806,-31.50631 -8.577,-59.75166c-1.4964,-28.24538 -12.16668,-90.65047 64.2523,-91.84219c72.34187,-1.12814 72.96393,49.98926 68.95473,92.63006z" data-paper-data="{&quot;index&quot;:null}" fill="#484848" stroke="#000000" stroke-width="0"/><g data-paper-data="{&quot;index&quot;:null}" stroke="none"><path d="M403.83263,367.19692c8.5937,-3.86894 52.0478,10.21096 58.44203,15.98536c2.91884,2.63593 -2.60107,32.18834 -6.40337,33.61984c-8.26976,3.11336 -55.64626,-2.36329 -60.73631,-8.82025c-5.09006,-6.45694 0.10396,-36.91602 8.69765,-40.78496z" fill="#484848" stroke-width="0"/><g><g><path d="M392.8477,383.53197c1.15297,-1.7532 2.90616,-0.60021 2.90616,-0.60021l1.30266,0.92784c2.52477,0.90211 4.9572,1.82901 7.39915,2.76994c2.00461,-1.43895 4.08373,-3.25825 6.66107,-4.05174c3.52769,-1.08605 9.36123,1.16635 12.59826,2.41893c1.50387,1.04498 2.69164,2.08959 3.69662,3.23921c6.23026,-1.32581 12.65385,-2.04363 18.45708,1.29842c2.29969,1.32437 3.7641,3.08991 5.17457,4.97195c2.76049,0.28389 5.56082,1.86121 8.01111,2.80138c0,0 1.95909,0.75168 1.20738,2.71077c-0.75168,1.95909 -2.71077,1.20738 -2.71077,1.20738c-0.9487,-0.36402 -2.19231,-1.02571 -3.48312,-1.5895c-0.08374,0.37442 -0.30344,0.76845 -0.75133,1.14178c-1.61187,1.34348 -2.95534,-0.26839 -2.95534,-0.26839c-0.45117,-0.54653 -0.86346,-1.10395 -1.26136,-1.66029c-5.35327,1.49289 -10.56993,7.32304 -16.70047,4.36154c-3.92172,-1.89449 -5.01214,-6.39612 -7.05021,-10.18224c-1.50289,0.36322 -2.97979,0.71452 -4.41235,0.97738c-4.47288,0.82068 -9.37303,-0.93729 -13.7505,-1.84151c-0.52875,-0.20272 -1.05415,-0.40474 -1.57729,-0.60607c-0.59086,0.43517 -1.19976,0.81328 -1.84496,1.09098c-3.76952,1.62244 -8.36621,-0.38558 -11.1028,-2.84271l-1.93861,-1.1032c0,0 -1.81787,-1.04802 -0.76983,-2.86589c0.76266,-1.32285 1.93297,-1.12809 2.51379,-0.92393c-0.04639,-0.39879 0.04067,-0.86416 0.38112,-1.38186zM443.79938,393.18538c-4.33398,-2.5023 -9.13112,-2.16385 -13.85715,-1.21068c0.33937,0.63541 0.66851,1.3105 0.9986,2.03408c0.80974,1.77504 1.21912,4.45556 3.2196,5.39291c3.81201,1.78618 8.51083,-2.08099 12.37272,-3.9586c-0.76193,-0.84954 -1.63268,-1.62196 -2.73378,-2.25771zM420.06956,389.90001c0.8234,-0.17437 1.65674,-0.36361 2.4979,-0.55854c-0.25599,-0.22416 -0.52658,-0.43622 -0.81366,-0.63451c-2.06735,-0.78358 -7.3343,-2.93181 -9.50136,-2.0891c-1.04251,0.40542 -1.97808,1.03439 -2.86633,1.74503c3.36875,0.80374 7.42218,2.22777 10.68346,1.53712z" fill="#000000" stroke-width="0.5"/><path d="M400.9295,387.31649l-1.6602,-1.39785l9.28015,-11.02187l1.66021,1.39782z" fill="url(#color-1)" stroke-width="0"/><path d="M405.06091,402.92445l-2.06435,0.66983l-4.44681,-13.70504l2.06435,-0.66983z" data-paper-data="{&quot;index&quot;:null}" fill="url(#color-2)" stroke-width="0"/><path d="M444.11149,382.8114l2.06435,-0.66983l4.44681,13.70504l-2.06435,0.66983z" data-paper-data="{&quot;index&quot;:null}" fill="url(#color-3)" stroke-width="0"/><path d="M448.13394,398.39808l1.66018,1.39784l-9.28013,11.02187l-1.6602,-1.39785z" data-paper-data="{&quot;index&quot;:null}" fill="url(#color-4)" stroke-width="0"/><path d="M444.63185,414.47215l-47.65642,-9.31532l1.0896,-5.57442l47.65642,9.31532z" fill="url(#color-5)" stroke-width="0"/><path d="M450.47599,386.44622l-47.65642,-9.31532l1.0896,-5.57442l47.65642,9.31532z" fill="url(#color-6)" stroke-width="0"/><path d="M457.096,403.27665l-66.99561,-13.09551l1.53179,-7.83653l66.99561,13.09551z" fill="url(#color-7)" stroke-width="0"/></g><path d="M463.75328,391.98209c4.42136,0.9019 7.21819,5.49295 6.24692,10.25443c-0.97128,4.76148 -5.34286,7.89027 -9.76422,6.98837c-4.42136,-0.9019 -7.21821,-5.49295 -6.24694,-10.25443c0.97128,-4.76148 5.34288,-7.89027 9.76424,-6.98837z" fill="url(#color-8)" stroke-width="0"/></g><path d="M403.83263,367.19692c8.5937,-3.86894 52.0478,10.21096 58.44203,15.98536c2.91884,2.63593 -2.60107,32.18834 -6.40337,33.61984c-8.26976,3.11336 -55.64626,-2.36329 -60.73631,-8.82025c-5.09006,-6.45694 0.10396,-36.91602 8.69765,-40.78496z" fill="url(#color-9)" stroke-width="0"/></g><g data-paper-data="{&quot;index&quot;:null}" stroke="none"><path d="M329.77607,352.09038c8.5937,-3.86894 52.0478,10.21096 58.44203,15.98536c2.91884,2.63593 -2.60107,32.18834 -6.40337,33.61984c-8.26976,3.11336 -55.64626,-2.36329 -60.73631,-8.82025c-5.09006,-6.45694 0.10396,-36.91602 8.69765,-40.78496z" fill="#484848" stroke-width="0"/><g><g><path d="M318.79115,368.42543c1.15297,-1.7532 2.90616,-0.60021 2.90616,-0.60021l1.30266,0.92784c2.52477,0.90211 4.9572,1.82901 7.39915,2.76994c2.00461,-1.43895 4.08373,-3.25825 6.66107,-4.05174c3.52769,-1.08605 9.36123,1.16635 12.59826,2.41893c1.50387,1.04498 2.69164,2.08959 3.69662,3.23921c6.23026,-1.32581 12.65385,-2.04363 18.45708,1.29842c2.29969,1.32437 3.7641,3.08991 5.17457,4.97195c2.76049,0.28389 5.56082,1.86121 8.01111,2.80138c0,0 1.95909,0.75168 1.20738,2.71077c-0.75168,1.95909 -2.71077,1.20738 -2.71077,1.20738c-0.9487,-0.36402 -2.19231,-1.02571 -3.48312,-1.5895c-0.08374,0.37442 -0.30344,0.76845 -0.75133,1.14178c-1.61187,1.34348 -2.95534,-0.26839 -2.95534,-0.26839c-0.45117,-0.54653 -0.86346,-1.10395 -1.26136,-1.66029c-5.35327,1.49289 -10.56993,7.32304 -16.70047,4.36154c-3.92172,-1.89449 -5.01214,-6.39612 -7.05021,-10.18224c-1.50289,0.36322 -2.97979,0.71452 -4.41235,0.97738c-4.47288,0.82068 -9.37303,-0.93729 -13.7505,-1.84151c-0.52875,-0.20272 -1.05415,-0.40474 -1.57729,-0.60607c-0.59086,0.43517 -1.19976,0.81328 -1.84496,1.09098c-3.76952,1.62244 -8.36621,-0.38558 -11.1028,-2.84271l-1.93861,-1.1032c0,0 -1.81787,-1.04802 -0.76983,-2.86589c0.76266,-1.32285 1.93297,-1.12809 2.51379,-0.92393c-0.04639,-0.39879 0.04067,-0.86416 0.38112,-1.38186zM369.74285,378.07884c-4.33398,-2.5023 -9.13112,-2.16385 -13.85715,-1.21068c0.33937,0.63541 0.66851,1.3105 0.9986,2.03408c0.80974,1.77504 1.21912,4.45556 3.2196,5.39291c3.81201,1.78618 8.51083,-2.08099 12.37272,-3.9586c-0.76193,-0.84954 -1.63268,-1.62196 -2.73378,-2.25771zM346.01301,374.79346c0.8234,-0.17437 1.65674,-0.36361 2.4979,-0.55854c-0.25599,-0.22416 -0.52658,-0.43622 -0.81366,-0.63451c-2.06735,-0.78358 -7.3343,-2.93181 -9.50136,-2.0891c-1.04251,0.40542 -1.97808,1.03439 -2.86633,1.74503c3.36875,0.80374 7.42218,2.22777 10.68346,1.53712z" fill="#000000" stroke-width="0.5"/><path d="M326.87296,372.20995l-1.6602,-1.39785l9.28015,-11.02187l1.66021,1.39782z" fill="url(#color-10)" stroke-width="0"/><path d="M331.00439,387.81792l-2.06435,0.66983l-4.44681,-13.70504l2.06435,-0.66983z" data-paper-data="{&quot;index&quot;:null}" fill="url(#color-11)" stroke-width="0"/><path d="M370.05496,367.70486l2.06435,-0.66983l4.44681,13.70504l-2.06435,0.66983z" data-paper-data="{&quot;index&quot;:null}" fill="url(#color-12)" stroke-width="0"/><path d="M374.07739,383.29154l1.66018,1.39784l-9.28013,11.02187l-1.6602,-1.39785z" data-paper-data="{&quot;index&quot;:null}" fill="url(#color-13)" stroke-width="0"/><path d="M370.57533,399.36561l-47.65642,-9.31532l1.0896,-5.57442l47.65642,9.31532z" fill="url(#color-14)" stroke-width="0"/><path d="M376.41942,371.33967l-47.65642,-9.31532l1.0896,-5.57442l47.65642,9.31532z" fill="url(#color-15)" stroke-width="0"/><path d="M383.03945,388.17011l-66.99561,-13.09551l1.53179,-7.83653l66.99561,13.09551z" fill="url(#color-16)" stroke-width="0"/></g><path d="M389.69675,376.87555c4.42136,0.9019 7.21819,5.49295 6.24692,10.25443c-0.97128,4.76148 -5.34286,7.89027 -9.76422,6.98837c-4.42136,-0.9019 -7.21821,-5.49295 -6.24694,-10.25443c0.97128,-4.76148 5.34288,-7.89027 9.76424,-6.98837z" fill="url(#color-17)" stroke-width="0"/></g><path d="M329.77607,352.09038c8.5937,-3.86894 52.0478,10.21096 58.44203,15.98536c2.91884,2.63593 -2.60107,32.18834 -6.40337,33.61984c-8.26976,3.11336 -55.64626,-2.36329 -60.73631,-8.82025c-5.09006,-6.45694 0.10396,-36.91602 8.69765,-40.78496z" fill="url(#color-18)" stroke-width="0"/></g><g data-paper-data="{&quot;index&quot;:null}" stroke="none" stroke-width="0"><path d="M520.03775,405.9391c5.52045,2.21118 11.48126,6.34337 16.54368,12.6815c4.49544,5.62825 7.29792,9.46301 8.80157,12.20987c0.98911,1.80691 0.64981,6.70766 -1.43412,8.64675c-2.6865,2.49973 -7.59879,1.6261 -9.23243,-0.88999c-1.64183,-2.5287 -4.28815,-6.6454 -9.29016,-12.90793c-4.54482,-5.69009 -8.58981,-7.93926 -11.97701,-8.84197c-6.9275,-1.84625 -2.9831,-14.73205 6.58847,-10.89822z" data-paper-data="{&quot;index&quot;:null}" fill="url(#color-19)"/><path d="M525.25752,406.13883c5.59647,2.01097 11.70222,5.92584 16.9896,12.07756c4.69518,5.46274 7.63392,9.19409 9.23553,11.88502c1.05352,1.77011 0.89095,6.6799 -1.12184,8.69277c-2.59476,2.59484 -7.53533,1.89869 -9.25849,-0.55696c-1.7318,-2.46796 -4.52465,-6.48669 -9.74895,-12.56504c-4.74677,-5.52273 -8.8701,-7.62481 -12.28762,-8.40497c-6.9895,-1.59558 -3.51167,-14.61507 6.19178,-11.12841z" data-paper-data="{&quot;index&quot;:null}" fill="url(#color-20)"/><path d="M525.55934,406.89831c5.83582,1.14352 12.46237,4.09228 18.6174,9.37583c5.46568,4.69175 8.93378,7.93698 10.92305,10.35547c1.30855,1.59088 1.88861,6.46899 0.20259,8.76253c-2.17353,2.95664 -7.16255,3.0139 -9.23653,0.84639c-2.08436,-2.1784 -5.45157,-5.72972 -11.53318,-10.95021c-5.52572,-4.74329 -9.91903,-6.19914 -13.41513,-6.45473c-7.15021,-0.52271 -5.67662,-13.91791 4.44177,-11.93524z" data-paper-data="{&quot;index&quot;:null}" fill="url(#color-21)"/><path d="M478.91135,392.72763c16.54453,3.37486 46.13118,6.30013 43.43512,19.99448c-2.68151,13.62052 -31.2516,4.75939 -47.79615,1.38452c-16.54455,-3.37487 -12.18352,-24.75386 4.36103,-21.379z" fill="url(#color-22)"/><path d="M491.04162,438.48446c-4.91867,-3.34234 -9.85601,-8.65542 -13.4433,-15.93083c-3.1855,-6.46056 -5.10153,-10.80659 -5.98191,-13.81178c-0.57912,-1.97682 0.80204,-6.69115 3.253,-8.13884c3.1596,-1.86625 7.77074,0.03929 8.8275,2.84693c1.06204,2.8217 2.76514,7.40969 6.30963,14.5983c3.22051,6.53151 6.68982,9.59494 9.80503,11.20223c6.37125,3.28727 -0.24175,15.0291 -8.76995,9.23401z" data-paper-data="{&quot;index&quot;:null}" fill="url(#color-23)"/></g><g stroke="none"><path d="M93.24254,413.96275c-4.37138,6.96362 -50.89206,17.4685 -59.44701,15.25611c-3.93344,-1.01724 -12.57782,-29.81115 -9.95716,-32.74372c5.74098,-6.42425 47.44292,-25.06428 56.40066,-22.13523c8.95773,2.92905 17.37491,32.65926 13.00352,39.62285z" fill="#484848" stroke-width="0"/><g><g><path d="M92.90564,389.40837c0.3938,0.47838 0.53006,0.93179 0.52652,1.33325c0.55569,-0.26501 1.69851,-0.58366 2.59808,0.65019c1.23618,1.69555 -0.45937,2.93171 -0.45937,2.93171l-1.8097,1.30392c-2.45854,2.73533 -6.81449,5.22277 -10.73572,4.01217c-0.67115,-0.2072 -1.31697,-0.51812 -1.95092,-0.88771c-0.49865,0.25604 -0.99947,0.51302 -1.50355,0.77105c-4.25589,1.36655 -8.94027,3.63777 -13.4752,3.29946c-1.45245,-0.10837 -2.95842,-0.29992 -4.4915,-0.50057c-1.62207,3.98211 -2.22552,8.57447 -5.92249,10.87694c-5.77921,3.59926 -11.58866,-1.64043 -17.07075,-2.55308c-0.3362,0.59565 -0.68661,1.19391 -1.07684,1.7855c0,0 -1.16364,1.74612 -2.90978,0.58247c-0.48519,-0.32335 -0.74572,-0.69168 -0.86897,-1.05501c-1.22322,0.69842 -2.38906,1.48914 -3.29345,1.95239c0,0 -1.8676,0.95663 -2.8242,-0.91098c-0.95663,-1.8676 0.91098,-2.8242 0.91098,-2.8242c2.33588,-1.19647 4.95174,-3.06382 7.66613,-3.6409c1.20141,-2.02191 2.46889,-3.93374 4.614,-5.49613c5.41313,-3.94269 11.87663,-3.91497 18.21286,-3.26211c0.87646,-1.25038 1.94588,-2.41586 3.32955,-3.61547c3.08475,-1.59111 8.64438,-4.45363 12.26788,-3.75052c2.64734,0.51371 4.90886,2.10056 7.05568,3.3172c2.32749,-1.19634 4.64703,-2.37771 7.06102,-3.54429l1.19612,-1.06165c0,0 1.62003,-1.33362 2.95364,0.28642zM43.27628,404.44795c-1.02692,0.7497 -1.8102,1.6107 -2.47704,2.53675c4.04032,1.45445 9.12526,4.79769 12.72472,2.61463c1.88894,-1.14563 2.00971,-3.85454 2.62526,-5.7059c0.25092,-0.75469 0.50609,-1.46107 0.77566,-2.12909c-4.80079,-0.44301 -9.60664,-0.26721 -13.64861,2.68362zM66.51946,398.64718c3.31639,0.33841 7.19456,-1.51035 10.45821,-2.66926c-0.95905,-0.61171 -1.95644,-1.13717 -3.03629,-1.42894c-2.24466,-0.60646 -7.25207,2.09196 -9.22391,3.09184c-0.26426,0.22782 -0.51066,0.46756 -0.74124,0.71778c0.85717,0.10399 1.70596,0.20315 2.54327,0.28859z" fill="#000000" stroke-width="0.5"/><path d="M74.87005,384.06659l1.50143,-1.56713l10.40415,9.96777l-1.50142,1.56715z" fill="url(#color-24)" stroke-width="0"/><path d="M85.791,395.89274l2.12408,0.44554l-2.95776,14.10156l-2.12408,-0.44554z" data-paper-data="{&quot;index&quot;:null}" fill="url(#color-25)" stroke-width="0"/><path d="M38.90028,408.26819l-2.12408,-0.44554l2.95776,-14.10156l2.12408,0.44554z" data-paper-data="{&quot;index&quot;:null}" fill="url(#color-26)" stroke-width="0"/><path d="M49.9273,420.06153l-1.50142,1.56715l-10.40413,-9.96777l1.5014,-1.56715z" data-paper-data="{&quot;index&quot;:null}" fill="url(#color-27)" stroke-width="0"/><path d="M43.04317,420.27571l46.38905,-14.35149l1.67868,5.42617l-46.38905,14.35149z" fill="url(#color-28)" stroke-width="0"/><path d="M34.23944,393.03419l46.38905,-14.35149l1.67868,5.42617l-46.38905,14.35149z" fill="url(#color-29)" stroke-width="0"/><path d="M28.77343,408.27339l65.21395,-20.17538l2.35993,7.62812l-65.21395,20.17538z" fill="url(#color-30)" stroke-width="0"/></g><path d="M33.76268,411.28815c1.47422,4.63052 -0.81634,9.49401 -5.11609,10.86293c-4.29976,1.36892 -8.98047,-1.27512 -10.4547,-5.90564c-1.47422,-4.63052 0.81632,-9.494 5.11607,-10.86292c4.29976,-1.36892 8.98049,1.27511 10.45472,5.90564z" fill="url(#color-31)" stroke-width="0"/></g><path d="M93.24254,413.96275c-4.37138,6.96362 -50.89206,17.4685 -59.44701,15.25611c-3.93344,-1.01724 -12.57782,-29.81115 -9.95716,-32.74372c5.74098,-6.42425 47.44292,-25.06428 56.40066,-22.13523c8.95773,2.92905 17.37491,32.65926 13.00352,39.62285z" fill="url(#color-32)" stroke-width="0"/></g><g stroke="none"><path d="M165.26227,391.03377c-4.37138,6.96362 -50.89206,17.4685 -59.44701,15.25611c-3.93344,-1.01724 -12.57782,-29.81115 -9.95716,-32.74372c5.74098,-6.42425 47.44292,-25.06428 56.40066,-22.13523c8.95773,2.92905 17.37491,32.65926 13.00352,39.62285z" fill="#484848" stroke-width="0"/><g><g><path d="M164.92536,366.47939c0.3938,0.47838 0.53006,0.93179 0.52652,1.33325c0.55569,-0.26501 1.69851,-0.58366 2.59808,0.65019c1.23618,1.69555 -0.45937,2.93171 -0.45937,2.93171l-1.8097,1.30392c-2.45854,2.73533 -6.81449,5.22277 -10.73572,4.01217c-0.67115,-0.2072 -1.31697,-0.51812 -1.95092,-0.88771c-0.49865,0.25604 -0.99947,0.51302 -1.50355,0.77105c-4.25589,1.36655 -8.94027,3.63777 -13.4752,3.29946c-1.45245,-0.10837 -2.95842,-0.29992 -4.4915,-0.50057c-1.62207,3.98211 -2.22552,8.57447 -5.92249,10.87694c-5.77921,3.59926 -11.58866,-1.64043 -17.07075,-2.55308c-0.3362,0.59565 -0.68661,1.19391 -1.07684,1.7855c0,0 -1.16364,1.74612 -2.90978,0.58247c-0.48519,-0.32335 -0.74572,-0.69168 -0.86897,-1.05501c-1.22322,0.69842 -2.38906,1.48914 -3.29345,1.95239c0,0 -1.8676,0.95663 -2.8242,-0.91098c-0.95663,-1.8676 0.91098,-2.8242 0.91098,-2.8242c2.33588,-1.19647 4.95174,-3.06382 7.66613,-3.6409c1.20141,-2.02191 2.46889,-3.93374 4.614,-5.49613c5.41313,-3.94269 11.87663,-3.91497 18.21286,-3.26211c0.87646,-1.25038 1.94588,-2.41586 3.32955,-3.61547c3.08475,-1.59111 8.64438,-4.45363 12.26788,-3.75052c2.64734,0.51371 4.90886,2.10056 7.05568,3.3172c2.32749,-1.19634 4.64703,-2.37771 7.06102,-3.54429l1.19612,-1.06165c0,0 1.62003,-1.33362 2.95364,0.28642zM115.29599,381.51897c-1.02692,0.7497 -1.8102,1.6107 -2.47704,2.53675c4.04032,1.45445 9.12526,4.79769 12.72472,2.61463c1.88894,-1.14563 2.00971,-3.85454 2.62526,-5.7059c0.25092,-0.75469 0.50609,-1.46107 0.77566,-2.12909c-4.80079,-0.44301 -9.60664,-0.26721 -13.64861,2.68362zM138.53922,375.71818c3.31639,0.33841 7.19456,-1.51035 10.45821,-2.66926c-0.95905,-0.61171 -1.95644,-1.13717 -3.03629,-1.42894c-2.24466,-0.60646 -7.25207,2.09196 -9.22391,3.09184c-0.26426,0.22782 -0.51066,0.46756 -0.74124,0.71778c0.85717,0.10399 1.70596,0.20315 2.54327,0.28859z" fill="#000000" stroke-width="0.5"/><path d="M146.88976,361.13761l1.50143,-1.56713l10.40415,9.96777l-1.50142,1.56715z" fill="url(#color-33)" stroke-width="0"/><path d="M157.81072,372.96375l2.12408,0.44554l-2.95776,14.10156l-2.12408,-0.44554z" data-paper-data="{&quot;index&quot;:null}" fill="url(#color-34)" stroke-width="0"/><path d="M110.92,385.33921l-2.12408,-0.44554l2.95776,-14.10156l2.12408,0.44554z" data-paper-data="{&quot;index&quot;:null}" fill="url(#color-35)" stroke-width="0"/><path d="M121.94703,397.13255l-1.50142,1.56715l-10.40413,-9.96777l1.5014,-1.56715z" data-paper-data="{&quot;index&quot;:null}" fill="url(#color-36)" stroke-width="0"/><path d="M115.06288,397.34673l46.38905,-14.35149l1.67868,5.42617l-46.38905,14.35149z" fill="url(#color-37)" stroke-width="0"/><path d="M106.25917,370.10521l46.38905,-14.35149l1.67868,5.42617l-46.38905,14.35149z" fill="url(#color-38)" stroke-width="0"/><path d="M100.79317,385.34441l65.21395,-20.17538l2.35993,7.62812l-65.21395,20.17538z" fill="url(#color-39)" stroke-width="0"/></g><path d="M105.78239,388.35918c1.47422,4.63052 -0.81634,9.49401 -5.11609,10.86293c-4.29976,1.36892 -8.98047,-1.27512 -10.4547,-5.90564c-1.47422,-4.63052 0.81632,-9.494 5.11607,-10.86292c4.29976,-1.36892 8.98049,1.27511 10.45472,5.90564z" fill="url(#color-40)" stroke-width="0"/></g><path d="M165.26227,391.03377c-4.37138,6.96362 -50.89206,17.4685 -59.44701,15.25611c-3.93344,-1.01724 -12.57782,-29.81115 -9.95716,-32.74372c5.74098,-6.42425 47.44292,-25.06428 56.40066,-22.13523c8.95773,2.92905 17.37491,32.65926 13.00352,39.62285z" fill="url(#color-41)" stroke-width="0"/></g><path d="M305.33566,290.55897l-131.43816,-0.79672c0,0 -14.80276,-23.58182 -7.10521,-48.41676c9.11562,-29.41014 1.44897,-57.90373 73.70399,-57.81948c70.68415,0.11818 60.06476,27.035 70.81741,55.87514c10.58413,28.38813 -5.97802,51.1578 -5.97802,51.1578z" fill="#484848" stroke="none" stroke-width="0"/><g stroke="none" stroke-width="0"><path d="M-23.44942,435.40287c-3.2714,1.25928 -7.05308,3.92758 -10.96424,10.07049c-4.30463,6.7609 -6.49616,11.13667 -7.85854,13.82625c-1.35559,2.67617 -6.14649,4.06941 -9.08458,1.87087c-2.27912,-1.70544 -3.13985,-6.54193 -2.34937,-8.44414c1.20172,-2.89174 3.57863,-7.00385 7.44729,-13.08c4.35661,-6.84253 9.84202,-11.58767 15.09475,-14.37575c9.10739,-4.83409 14.40538,7.5568 7.71466,10.13228z" data-paper-data="{&quot;index&quot;:null}" fill="url(#color-42)"/><path d="M-28.98787,436.43013c-3.31465,1.14067 -7.1899,3.67106 -11.31972,9.66915c-4.54528,6.60152 -6.89298,10.89552 -8.35132,13.53432c-1.4511,2.62562 -6.28903,3.84541 -9.14604,1.54252c-2.21623,-1.78641 -2.90224,-6.65075 -2.04379,-8.52324c1.30507,-2.84659 3.82853,-6.87044 7.91348,-12.80336c4.60016,-6.6812 10.25288,-11.22574 15.60262,-13.82289c9.27558,-4.503 14.12393,8.07061 7.3448,10.40352z" data-paper-data="{&quot;index&quot;:null}" fill="url(#color-43)"/><path d="M-30.86067,438.20661c-3.44881,0.62749 -7.66152,2.54419 -12.64908,7.85048c-5.48932,5.84011 -8.45803,9.73074 -10.29782,12.11928c-1.83064,2.37661 -6.79723,2.85249 -9.2741,0.14486c-1.92134,-2.10034 -1.86554,-7.01252 -0.73436,-8.73405c1.71962,-2.61708 4.82131,-6.21413 9.75469,-11.46275c5.5556,-5.91064 11.8293,-9.55022 17.50965,-11.31044c9.84882,-3.05192 12.74449,10.1093 5.69099,11.39262z" data-paper-data="{&quot;index&quot;:null}" fill="url(#color-44)"/><path d="M14.93544,428.5336c-16.08952,5.12243 -43.54988,16.98401 -47.67067,3.72776c-4.14313,-13.32811 24.96192,-19.39634 41.05142,-24.51876c16.08952,-5.12243 22.70877,15.66857 6.61925,20.791z" fill="url(#color-45)"/><path d="M-8.56408,446.28858c2.92576,-1.93079 6.04808,-5.34719 8.55264,-12.1853c2.75652,-7.52603 3.95991,-12.26967 4.71453,-15.18865c0.75088,-2.90442 5.13215,-5.29153 8.473,-3.77338c2.59152,1.17766 4.46827,5.71752 4.10358,7.74489c-0.55441,3.08203 -1.99535,7.60782 -4.47269,14.37164c-2.78981,7.61689 -7.13152,13.42689 -11.66512,17.2754c-7.86056,6.67272 -15.6897,-4.29574 -9.70593,-8.24462z" data-paper-data="{&quot;index&quot;:null}" fill="url(#color-46)"/></g><g stroke="none"><path d="M247.90804,482.70423c-0.03765,0.56962 -0.36011,3.00891 -3.12185,3.00891c-0.01399,0 -0.02793,-0.00006 -0.0418,-0.00019c0.02043,0.94701 -0.2727,2.54397 -2.3584,3.0654c-3.03349,0.75838 -3.79184,-2.2751 -3.79184,-2.2751l-0.72507,-3.28524c0,-3.6395 0.87643,-8.96072 -1.3787,-12.17639c-3.49751,-4.98721 -11.74556,-9.40874 -10.59618,-16.66575c0.65143,-4.11309 2.89227,-6.37519 5.56993,-8.28107c-0.48691,-1.53239 -0.86265,-3.15893 -1.16493,-4.94369c-0.00125,-0.54328 -0.06168,-8.73411 0.10281,-9.30484c1.52708,-5.29839 7.17159,-8.92388 11.33571,-11.83999c2.4668,-1.72749 5.10617,-3.30737 7.6747,-4.97845c-5.48571,-6.84665 -15.59927,-12.00806 -21.07991,-16.52168c-4.13738,-3.40737 -4.77478,-8.58029 -6.69717,-13.39165c-0.92279,-2.8967 -2.85934,-7.24517 -4.86658,-9.51363c-2.35269,-2.65887 -12.54839,-2.20562 -15.78159,-3.0801c-11.64592,-3.14978 -22.7013,-2.94689 -34.5519,-0.57677c0,0 -3.0661,0.61322 -3.67932,-2.45288c-0.61322,-3.0661 2.45288,-3.67934 2.45288,-3.67934c8.62125,-1.72426 17.30139,-2.74373 26.13965,-1.9452c5.15422,0.46567 9.76488,2.36603 14.78557,3.19047c4.13846,0.67959 11.6518,0.9285 14.86914,3.94187c2.68526,2.51504 5.31663,8.52378 6.50426,11.9646c1.10391,2.75655 1.70662,6.56663 2.97935,9.07578c1.6123,3.17859 8.2467,5.1723 11.03076,7.12045c4.55177,3.18514 9.29567,7.49391 12.70762,12.45941c3.26183,-2.59165 6.09446,-5.64524 7.86813,-9.77861c4.62235,-10.77205 -8.22758,-15.54449 -9.66005,-24.28543c-0.5996,-3.65883 1.46893,-6.67566 2.95908,-9.68938c5.14076,-6.69527 19.27911,-15.94816 27.75451,-10.44223c3.58003,2.32571 5.06683,7.1727 8.59811,9.32927c6.78526,4.14378 18.91871,0.92093 26.31996,0.89344c0,0 3.12682,0 3.12682,3.12682c0,3.12682 -3.12682,3.12682 -3.12682,3.12682c-8.73682,-0.03819 -21.16492,3.18042 -29.27079,-1.63341c-3.89428,-2.31271 -5.63308,-6.85774 -9.08986,-9.62215c-2.01249,-1.6094 -3.83385,-0.35957 -6.1999,0.37716c-4.61266,1.43624 -9.9682,4.20473 -12.79238,8.13201c-3.31156,6.51952 -1.15224,6.16915 2.98364,11.61927c4.33766,5.71605 7.07379,14.36453 4.21311,21.3675c-2.29461,5.61724 -6.20836,9.55159 -10.65638,12.91285c2.28821,5.35634 2.71932,11.20393 -0.22079,17.07901c-3.16433,6.32308 -11.10954,8.10638 -15.88208,12.91354c-0.60975,0.45252 -1.27046,0.86184 -1.94881,1.25807c0.63293,1.06237 1.3867,2.11215 2.28595,3.20265c2.46507,2.98933 6.60039,5.24647 8.06943,9.00329c2.11609,5.41141 0.89083,16.75935 -1.64798,22.19454zM243.55449,471.84719c0.00602,-2.62108 1.29557,-6.38031 0.25213,-8.87731c-1.23195,-2.94816 -5.11576,-4.9905 -7.09169,-7.42126c-1.04292,-1.283 -1.92898,-2.52804 -2.68551,-3.78151c-0.89919,0.90866 -1.59744,2.00734 -1.9369,3.43887c-0.93326,3.93558 7.74707,9.48763 9.61864,12.39308c0.9013,1.39915 1.47776,2.90818 1.84354,4.47641c-0.00031,-0.07531 -0.0004,-0.1514 -0.00021,-0.22828zM245.30782,425.14078c-2.67748,1.87339 -8.00153,4.79846 -8.87909,8.37484c-0.5656,2.30512 0.10888,4.74623 0.10281,7.11973c0.10259,0.62969 0.21938,1.23218 0.35281,1.81271c0.05604,-0.04199 0.11196,-0.08422 0.16774,-0.12669c3.94754,-3.92106 11.94594,-6.09561 14.44014,-11.09157c2.00013,-4.00632 2.10071,-7.59438 0.98608,-10.84086c-2.39715,1.58374 -4.83567,3.11822 -7.17047,4.75187z" fill="#000000" stroke-width="0.5"/><g stroke-width="0"><g><path d="M235.03628,368.56839v-103.46498h9.24962v103.46498z" fill="url(#color-47)"/><g><path d="M185.77476,390.59371v-10.76067h112.46638v10.76067z" fill="url(#color-48)"/><path d="M190.88687,394.42923v-18.38279h6.64573v18.38279z" fill="url(#color-49)"/><path d="M208.18958,395.13053v-18.38279h6.64573v18.38279z" fill="url(#color-50)"/><path d="M268.603,394.62578v-18.38279h6.64573v18.38279z" fill="url(#color-51)"/><path d="M285.90571,395.32709v-18.38279h6.64573v18.38279z" fill="url(#color-52)"/></g><g><path d="M190.80272,418.87601v-10.76067h102.41046v10.76067z" fill="url(#color-53)"/><path d="M195.45775,422.71152v-18.38279h6.05151v18.38279z" fill="url(#color-54)"/><path d="M211.21337,423.41283v-18.38279h6.05149v18.38279z" fill="url(#color-55)"/><path d="M266.22507,422.90807v-18.38279h6.05149v18.38279z" fill="url(#color-56)"/><path d="M281.98071,423.60938v-18.38279h6.05151v18.38279z" fill="url(#color-57)"/></g><g><path d="M197.08767,447.15832v-10.76067h89.84054v10.76067z" fill="url(#color-58)"/><path d="M201.17134,450.99382v-18.38279h5.30875v18.38279z" fill="url(#color-59)"/><path d="M214.9931,451.69515v-18.38279h5.30875v18.38279z" fill="url(#color-60)"/><path d="M263.25265,451.19039v-18.38279h5.30875v18.38279z" fill="url(#color-61)"/><path d="M277.07443,451.8917v-18.38279h5.30875v18.38279z" fill="url(#color-62)"/></g><path d="M231.49323,480.69047l-0.09057,-25.75292l-3.05193,-86.79405h24.55221l-3.10634,86.8581l-0.03614,25.68887z" fill="url(#color-63)"/><path d="M167.00796,370.42592v-5.65647h148.32496v5.65647z" fill="url(#color-64)"/><path d="M324.76038,367.28343c0,4.85953 -3.65804,8.79894 -8.17045,8.79894c-4.51241,0 -8.17043,-3.93941 -8.17043,-8.79894c0,-4.85953 3.65802,-8.79894 8.17043,-8.79894c4.51241,0 8.17045,3.93941 8.17045,8.79894z" fill="url(#color-65)"/><path d="M218.94798,374.8967v-13.82692h43.02223v13.82692z" fill="url(#color-66)"/><path d="M173.92143,367.28343c0,4.85953 -3.65804,8.79894 -8.17045,8.79894c-4.51241,0 -8.17045,-3.93941 -8.17045,-8.79894c0,-4.85953 3.65804,-8.79894 8.17045,-8.79894c4.51241,0 8.17045,3.93941 8.17045,8.79894z" fill="url(#color-67)"/></g><path d="M227.90355,518.27028v-40.97605h25.48971v40.97605z" fill="url(#color-68)"/><path d="M225.97194,492.67656v-7.17303h29.3529v7.17303z" fill="url(#color-69)"/><path d="M225.97194,502.81747v-7.17303h29.3529v7.17303z" fill="url(#color-70)"/></g></g><g stroke-width="0"><path d="M173.46912,345.31531c11.33893,4.19383 17.18191,16.64843 13.05068,27.81811c-2.02352,5.47101 -10.83352,-1.92975 -20.92684,-5.53611c-10.5133,-3.75643 -22.24274,-3.95241 -20.13503,-9.65108c4.13123,-11.16968 16.67227,-16.82474 28.01119,-12.63091z" fill="url(#color-71)" stroke="none"/><path d="M337.33042,357.94622c2.10771,5.69867 -9.62173,5.89466 -20.13503,9.65108c-10.09332,3.60636 -18.90333,11.00712 -20.92684,5.53611c-4.13123,-11.16968 1.71175,-23.62428 13.05068,-27.81811c11.33893,-4.19383 23.87998,1.46123 28.01119,12.63091z" data-paper-data="{&quot;index&quot;:null}" fill="url(#color-72)" stroke="none"/><g><path d="M308.08458,426.26582c-3.52806,37.52364 -5.35376,43.40012 -8.84261,61.17756c-5.18326,26.41135 -57.74791,24.47524 -57.74791,24.47524c0,0 -52.94839,3.64576 -58.03954,-26.68899c-2.54146,-15.1429 -7.0806,-31.50631 -8.577,-59.75166c-1.4964,-28.24538 -12.16668,-90.65047 64.2523,-91.84219c72.34187,-1.12814 72.96393,49.98926 68.95473,92.63006z" data-paper-data="{&quot;index&quot;:null}" fill="url(#color-73)" stroke="#000000"/><path d="M297.76696,428.5038c-2.98158,31.71141 -4.5245,36.67766 -7.47293,51.70146c-4.38039,22.32037 -48.803,20.68414 -48.803,20.68414c0,0 -44.74695,3.08103 -49.04948,-22.55501c-2.14782,-12.79732 -5.98385,-26.62614 -7.24847,-50.49644c-1.26459,-23.8703 -10.28212,-76.60913 54.29993,-77.61626c61.13647,-0.95339 61.66215,42.24615 58.27397,78.28211z" data-paper-data="{&quot;index&quot;:null}" fill="url(#color-74)" stroke="#000000"/><g stroke="#000000"><path d="M241.36511,367.58967c0,6.37046 -6.79827,9.04869 -14.35805,11.53466c-17.98754,5.91502 -17.94571,4.44464 -17.94571,4.44464c0,0 3.58762,-4.53492 3.58762,-15.9793c0,-19.03045 -33.36771,-30.19877 14.35811,-11.53466c7.42099,2.90212 14.35805,5.16427 14.35805,11.53466z" fill="url(#color-75)"/><path d="M255.77327,356.05501c47.72581,-18.66411 14.35809,-7.49578 14.35809,11.53466c0,11.44438 3.58762,15.9793 3.58762,15.9793c0,0 0.04186,1.47038 -17.94571,-4.44464c-7.5598,-2.48597 -14.35807,-5.16421 -14.35807,-11.53466c0,-6.3704 6.93705,-8.63252 14.35807,-11.53466z" data-paper-data="{&quot;index&quot;:null}" fill="url(#color-76)"/><path d="M253.20939,366.79355c0,6.52579 -5.16427,11.81599 -11.53466,11.81599c-6.37046,0 -11.53468,-5.2902 -11.53468,-11.81599c0,-6.52579 5.1643,-11.81601 11.53468,-11.81601c6.37046,0 11.53466,5.29024 11.53466,11.81601z" fill="url(#color-77)"/></g><g stroke="none"><path d="M241.35023,387.34256c5.02429,0 9.09731,4.11106 9.09731,9.18226c0,5.07122 -4.07301,9.18226 -9.09731,9.18226c-5.02429,0 -9.09731,-4.11106 -9.09731,-9.18226c0,-5.07122 4.07301,-9.18226 9.09731,-9.18226zM238.88059,400.33649c0.9433,0 1.70802,-0.76472 1.70802,-1.70802c0,-0.9433 -0.76472,-1.70802 -1.70802,-1.70802c-0.9433,0 -1.70802,0.76472 -1.70802,1.70802c0,0.9433 0.76472,1.70802 1.70802,1.70802zM243.55994,395.59306c0.9433,0 1.708,-0.76472 1.708,-1.70802c0,-0.9433 -0.7647,-1.708 -1.708,-1.708c-0.9433,0 -1.70802,0.7647 -1.70802,1.708c0,0.9433 0.76472,1.70802 1.70802,1.70802zM238.94469,395.59306c0.9433,0 1.70802,-0.76472 1.70802,-1.70802c0,-0.9433 -0.76472,-1.708 -1.70802,-1.708c-0.9433,0 -1.708,0.7647 -1.708,1.708c0,0.9433 0.7647,1.70802 1.708,1.70802zM243.55994,400.4006c0.9433,0 1.708,-0.76472 1.708,-1.70802c0,-0.9433 -0.7647,-1.708 -1.708,-1.708c-0.9433,0 -1.70802,0.7647 -1.70802,1.708c0,0.9433 0.76472,1.70802 1.70802,1.70802z" fill="url(#color-78)"/><path d="M241.35023,387.34256c5.02429,0 9.09731,4.11106 9.09731,9.18226c0,5.07122 -4.07301,9.18226 -9.09731,9.18226c-5.02429,0 -9.09731,-4.11106 -9.09731,-9.18226c0,-5.07122 4.07301,-9.18226 9.09731,-9.18226zM241.38051,403.8433c4.08767,0 7.40138,-3.31371 7.40138,-7.40135c0,-4.08767 -3.31371,-7.40135 -7.40138,-7.40135c-4.08767,0 -7.40135,3.31371 -7.40135,7.40135c0,4.08767 3.31369,7.40135 7.40135,7.40135z" fill="url(#color-79)"/></g><g stroke="none"><path d="M241.35023,415.53447c5.02429,0 9.09731,4.11106 9.09731,9.18226c0,5.07122 -4.07301,9.18226 -9.09731,9.18226c-5.02429,0 -9.09731,-4.11106 -9.09731,-9.18226c0,-5.07122 4.07301,-9.18226 9.09731,-9.18226zM238.88059,428.52838c0.9433,0 1.70802,-0.76472 1.70802,-1.70802c0,-0.9433 -0.76472,-1.70802 -1.70802,-1.70802c-0.9433,0 -1.70802,0.76472 -1.70802,1.70802c0,0.9433 0.76472,1.70802 1.70802,1.70802zM243.55994,423.78496c0.9433,0 1.708,-0.76472 1.708,-1.70802c0,-0.9433 -0.7647,-1.708 -1.708,-1.708c-0.9433,0 -1.70802,0.7647 -1.70802,1.708c0,0.9433 0.76472,1.70802 1.70802,1.70802zM238.94469,423.78496c0.9433,0 1.70802,-0.76472 1.70802,-1.70802c0,-0.9433 -0.76472,-1.708 -1.70802,-1.708c-0.9433,0 -1.708,0.7647 -1.708,1.708c0,0.9433 0.7647,1.70802 1.708,1.70802zM243.55994,428.59249c0.9433,0 1.708,-0.7647 1.708,-1.708c0,-0.9433 -0.7647,-1.70802 -1.708,-1.70802c-0.9433,0 -1.70802,0.76472 -1.70802,1.70802c0,0.9433 0.76472,1.708 1.70802,1.708z" fill="url(#color-80)"/><path d="M241.35023,415.53447c5.02429,0 9.09731,4.11106 9.09731,9.18226c0,5.07122 -4.07301,9.18226 -9.09731,9.18226c-5.02429,0 -9.09731,-4.11106 -9.09731,-9.18226c0,-5.07122 4.07301,-9.18226 9.09731,-9.18226zM241.38051,432.03521c4.08767,0 7.40138,-3.31371 7.40138,-7.40138c0,-4.08767 -3.31371,-7.40135 -7.40138,-7.40135c-4.08767,0 -7.40135,3.31369 -7.40135,7.40135c0,4.08767 3.31369,7.40138 7.40135,7.40138z" fill="url(#color-81)"/></g></g></g><g><path d="M240.50779,281.02651c36.79168,0 72.10741,16.92444 66.61726,36.28187c-10.12421,35.69643 -29.82558,36.28187 -66.61726,36.28187c-36.79168,0 -59.32783,-5.93226 -66.61724,-36.28187c-4.69383,-19.54288 29.82558,-36.28187 66.61724,-36.28187z" fill="url(#color-82)" stroke="#000000" stroke-width="0"/><g><g fill="url(#color-83)" stroke="#000000" stroke-width="0"><path d="M240.52141,322.30066c29.47826,0 57.77396,10.02051 53.37515,21.48155c-8.11173,21.13493 -23.89687,21.48155 -53.37515,21.48155c-29.47826,0 -47.53471,-3.51235 -53.37515,-21.48155c-3.7608,-11.57081 23.89685,-21.48155 53.37515,-21.48155z"/></g><g fill="none" stroke="none" stroke-width="1" font-family="sans-serif" font-weight="normal" font-size="12" text-anchor="start"/></g><path d="M240.24345,281.21564c28.49461,0 59.59831,15.73314 55.34625,33.72805c-1.52673,6.46122 -7.08688,11.68503 -9.21898,15.90831c-8.81801,17.4668 -6.92607,20.27276 -46.1273,20.32123c-41.11369,0.05082 -37.31677,-5.76711 -45.81832,-20.12905c-2.5462,-4.30137 -9.06059,-9.59807 -10.36175,-16.10048c-3.63532,-18.16728 27.68545,-33.72805 56.18007,-33.72805z" fill="url(#color-84)" stroke="#000000" stroke-width="0"/><path d="M231.23665,297.57144v-1.86395h17.6546v1.86395z" fill="url(#color-85)" stroke="none" stroke-width="0"/><g stroke="none" stroke-width="0"><path d="M233.2493,308.39183c0,-0.20089 0.02851,-12.52318 0.02851,-12.52318l13.47943,-0.00592c0,0 0.04553,12.2748 0.04553,12.52912c0,3.56312 -3.03405,4.35109 -6.77673,4.35109c-3.74269,0 -6.77673,-0.78796 -6.77673,-4.35109z" fill="url(#color-86)"/><path d="M233.2493,307.21041c0,-0.20089 0.02851,-12.52318 0.02851,-12.52318l13.47943,-0.00592c0,0 0.04553,12.2748 0.04553,12.52912c0,3.56312 -3.03405,4.35109 -6.77673,4.35109c-3.74269,0 -6.77673,-0.78796 -6.77673,-4.35109z" fill="url(#color-87)"/></g></g><g><path d="M195.89659,221.72357v-4.71937h88.33488v4.71937z" data-paper-data="{&quot;index&quot;:null}" fill="url(#color-88)" stroke="none" stroke-width="0"/><path d="M195.75839,265.12265v-52.09671h4.42999v52.09671z" fill="url(#color-89)" stroke="none" stroke-width="0"/><path d="M279.80149,265.12265v-52.09671h4.42999v52.09671z" data-paper-data="{&quot;index&quot;:null}" fill="url(#color-90)" stroke="none" stroke-width="0"/><path d="M240.8323,258.78331l-0.1264,0.66512c0.53118,1.25574 0.888,2.58639 1.16018,3.9224c0.08689,0.39608 0.22989,0.76658 0.41381,1.11843c0.08551,0.12474 0.16147,0.25455 0.22503,0.39098c0.8831,1.40683 2.37257,2.53715 3.37769,3.88842c0.83453,1.12193 0.8722,3.97695 1.69656,5.32149c0.4354,0.71017 2.69054,1.41362 2.92598,1.62904c3.11032,2.84564 -0.4714,4.67819 1.26937,7.24307c1.52975,2.25397 9.81199,-3.73921 10.91078,-4.54416c4.07295,-6.25395 -1.27729,-7.32592 -0.62946,-13.84789c0.33605,-3.38319 5.19791,-7.6649 4.10531,-11.1203c-0.50405,-1.59406 -2.12881,-3.50614 -3.0254,-4.93981c0,0 -0.8286,-1.32577 0.49717,-2.15439c1.32577,-0.8286 2.15439,0.49717 2.15439,0.49717c0.99064,1.58592 2.92083,3.94418 3.37951,5.73502c1.23185,4.80952 -3.44851,8.05296 -4.00757,12.36436c-0.34893,2.69093 2.0681,4.78065 2.73762,7.31789c0.91449,3.46548 -1.13252,5.63605 -2.94007,8.29677c-3.17678,2.42859 -8.72763,6.72894 -13.19242,5.58101c-4.43294,-1.13975 -2.58431,-4.35698 -2.71611,-7.43127c-0.03066,-0.715 -3.49984,-2.07619 -3.99882,-2.78868c-0.85744,-1.2243 -0.98539,-4.39117 -1.71938,-5.35334c-0.33588,-0.4403 -0.66814,-0.80952 -0.99231,-1.1408c-1.15568,1.86063 -3.64786,2.69167 -4.57828,5.44008c-1.0429,3.0807 2.42723,7.05096 -0.61859,9.81078c-1.46882,1.33091 -3.52571,0.89135 -5.23083,1.24709c-6.4662,1.34899 -9.60764,1.34993 -13.7022,-4.50282c-0.28494,-1.07824 -0.16584,-2.31798 -0.7687,-3.25626c-1.50177,-2.33735 -5.13696,-1.45283 -6.14407,-4.64522c-1.00926,-3.19914 2.32482,-7.48225 2.94599,-10.51112c0.44676,-2.17847 -0.8841,-2.80039 -1.44009,-4.60986c-0.79936,-2.60152 0.36657,-6.4875 1.04799,-9.00135c0,0 0.41136,-1.50832 1.91969,-1.09695c1.50832,0.41136 1.09695,1.91969 1.09695,1.91969c-0.46934,1.70948 -1.74075,5.47723 -1.08697,7.22439c0.80516,2.15174 2.02383,3.42104 1.54886,6.06497c-0.44585,2.48187 -3.52617,6.5955 -3.03192,9.13057c0.18133,0.9301 3.02444,1.4841 3.60261,1.89225c2.42583,1.71246 2.54397,2.95283 3.14843,5.57803c3.39,4.59265 5.23242,3.81248 10.20945,2.75607c1.22742,-0.26053 2.72591,0.28352 3.73602,-0.4609c1.09469,-0.80674 -0.65049,-7.16006 -0.19159,-8.54994c0.81468,-2.46745 4.26323,-3.69685 4.91988,-5.79131c0.56702,-1.80854 -1.29874,-2.92801 -2.24092,-4.25197c-0.59966,-1.44224 -0.82269,-3.04785 -0.84141,-4.60967l0.26017,-1.23317c0,0 0.37918,-1.51674 1.89592,-1.13756c0.34205,0.08551 0.58768,0.22888 0.76297,0.39965c1.27525,0.17923 1.27525,1.54409 1.27525,1.54409z" fill="url(#color-91)" stroke="none" stroke-width="0.5"/><path d="M191.42143,240.52625v-6.13648h96.65652v6.13648z" fill="url(#color-92)" stroke="none" stroke-width="0"/><g stroke="#000000" stroke-width="0"><path d="M234.85757,237.54962c0,11.29501 -8.9275,20.45143 -19.94012,20.45143c-11.01263,0 -19.94012,-9.1564 -19.94012,-20.45143c0,-11.29501 8.9275,-20.45143 19.94012,-20.45143c11.01263,0 19.94012,9.1564 19.94012,20.45143z" fill="url(#color-93)"/><g><path d="M214.91745,243.93954c-3.44084,0 -6.23019,-2.86086 -6.23019,-6.38992c0,-3.52907 2.78936,-6.38992 6.23019,-6.38992c3.44084,0 6.23019,2.86086 6.23019,6.38992c0,3.52907 -2.78936,6.38992 -6.23019,6.38992z" fill="#00ff4c"/><path d="M214.91745,242.87129c-2.86562,0 -5.18863,-2.38258 -5.18863,-5.32168c0,-2.93907 2.32303,-5.32168 5.18863,-5.32168c2.86562,0 5.18863,2.38258 5.18863,5.32168c0,2.93907 -2.32303,5.32168 -5.18863,5.32168z" fill="#000000"/></g></g><g stroke="#000000" stroke-width="0"><path d="M284.53941,237.54962c0,11.29501 -8.9275,20.45143 -19.94012,20.45143c-11.01263,0 -19.94012,-9.1564 -19.94012,-20.45143c0,-11.29501 8.9275,-20.45143 19.94012,-20.45143c11.01263,0 19.94012,9.1564 19.94012,20.45143z" fill="url(#color-94)"/><g><path d="M264.59928,243.93954c-3.44084,0 -6.23019,-2.86086 -6.23019,-6.38992c0,-3.52907 2.78936,-6.38992 6.23019,-6.38992c3.44084,0 6.23019,2.86086 6.23019,6.38992c0,3.52907 -2.78936,6.38992 -6.23019,6.38992z" fill="#00ff4c"/><path d="M264.59928,242.87129c-2.86562,0 -5.18863,-2.38258 -5.18863,-5.32168c0,-2.93907 2.32303,-5.32168 5.18863,-5.32168c2.86562,0 5.18863,2.38258 5.18863,5.32168c0,2.93907 -2.32303,5.32168 -5.18863,5.32168z" fill="#000000"/></g></g><path d="M235.85724,267.6554l0.27518,-53.14413l7.42732,0.15899l-0.27518,53.14413z" fill="url(#color-95)" stroke="none" stroke-width="0"/><path d="M248.67899,298.73341v-32.82437h4.28144v32.82437z" fill="url(#color-96)" stroke="none" stroke-width="0"/><path d="M227.2718,298.73341v-32.82437h4.28144v32.82437z" fill="url(#color-97)" stroke="none" stroke-width="0"/><path d="M194.18858,233.863l-0.21864,28.62671l92.19312,0.22069l0.29815,-28.8387l6.02814,0.09174l-0.36978,35.64582l-104.09239,-0.45562l0.23726,-35.36344z" fill="url(#color-98)" stroke="none" stroke-width="0"/></g><g stroke-width="0"><g><path d="M196.64785,213.68591l-29.84067,-30.06988l2.42252,-2.42353l29.84065,30.06988z" fill="url(#color-99)" stroke="none"/><g stroke="#000000"><g fill="url(#color-100)"><path d="M181.05385,169.44307c0.49293,0.48925 12.54344,9.43902 -1.67752,23.60337c-14.0276,13.97173 -21.08992,4.30233 -23.5626,1.96926c-10.72865,-10.1229 -19.42062,-44.63107 -19.42062,-44.63107c0,0 34.19159,8.66743 44.66073,19.05846z"/></g><g fill="url(#color-101)"><path d="M176.98034,171.94329c0.3751,0.37232 9.54519,7.1828 -1.27654,17.96147c-10.67458,10.63208 -16.04882,3.27393 -17.93043,1.49857c-8.1642,-7.70321 -15.9807,-35.17595 -15.9807,-35.17595c0,0 27.22099,7.80863 35.18769,15.71591z"/></g></g></g><path d="M201.25158,212.58293c0,1.8105 -1.46769,3.27819 -3.27819,3.27819c-1.8105,0 -3.27819,-1.46769 -3.27819,-3.27819c0,-1.8105 1.46769,-3.27819 3.27819,-3.27819c1.8105,0 3.27819,1.46769 3.27819,3.27819z" fill="url(#color-102)" stroke="none"/></g><g data-paper-data="{&quot;index&quot;:null}" stroke-width="0"><g><path d="M280.91954,211.26239l29.84065,-30.06988l2.42252,2.42353l-29.84067,30.06988z" fill="url(#color-103)" stroke="none"/><g stroke="#000000"><g fill="url(#color-104)"><path d="M298.93604,169.44309c10.46915,-10.39104 44.66073,-19.05846 44.66073,-19.05846c0,0 -8.69196,34.50817 -19.42062,44.63107c-2.47267,2.33307 -9.53499,12.00248 -23.5626,-1.96926c-14.22097,-14.16435 -2.17046,-23.11413 -1.67752,-23.60337z"/></g><g fill="url(#color-105)"><path d="M303.00953,171.94327c7.96671,-7.90727 35.18769,-15.71591 35.18769,-15.71591c0,0 -7.81651,27.47274 -15.9807,35.17595c-1.88161,1.77537 -7.25585,9.13351 -17.93043,-1.49857c-10.82173,-10.77866 -1.65164,-17.58914 -1.27654,-17.96147z"/></g></g></g><path d="M282.01645,209.30474c1.8105,0 3.27819,1.46769 3.27819,3.27819c0,1.8105 -1.46769,3.27819 -3.27819,3.27819c-1.8105,0 -3.27819,-1.46769 -3.27819,-3.27819c0,-1.8105 1.46769,-3.27819 3.27819,-3.27819z" fill="url(#color-106)" stroke="none"/></g><g stroke-width="0"><path d="M305.33566,290.55897l-131.43816,-0.79672c0,0 -14.80276,-23.58182 -7.10521,-48.41676c9.11562,-29.41014 1.44897,-57.90373 73.70399,-57.81948c70.68415,0.11818 60.06476,27.035 70.81741,55.87514c10.58413,28.38813 -5.97802,51.1578 -5.97802,51.1578zM214.58913,261.55256c11.51265,0 20.84553,-9.33288 20.84553,-20.84553c0,-26.79938 -9.33288,-34.39514 -20.84553,-34.39514c-11.51265,0 -22.58267,10.72259 -20.84553,34.39514c0.84256,11.4818 9.33288,20.84553 20.84553,20.84553zM264.6184,261.05011c11.51265,0 20.49809,-10.16667 20.49809,-21.67935c0,-11.51265 -0.99465,-32.86646 -20.49809,-32.86646c-19.15602,0 -20.15066,21.35378 -20.15066,32.86646c0,11.51265 8.63801,21.67935 20.15066,21.67935z" fill="url(#color-107)" stroke="none"/><g><g stroke="#000000"><path d="M204.22897,279.79742c-1.32871,5.99459 -20.11651,5.22045 -42.40896,0.27926c-22.29241,-4.94116 -44.58181,-31.66015 -44.58181,-31.66015c0,0 25.83803,10.70905 48.13044,15.65021c0,0 40.18904,9.73605 38.86032,15.73064z" fill="url(#color-108)"/><path d="M205.61015,282.86446c-0.54897,6.11551 -19.28093,7.75718 -42.02295,5.71571c-22.74202,-2.04145 -48.27395,-25.6813 -48.27395,-25.6813c0,0 26.99804,7.30702 49.74008,9.34847c0,0 41.10579,4.50157 40.55683,10.61709z" fill="url(#color-109)"/><path d="M204.36294,283.68816c0.42167,6.12561 -17.81748,10.69887 -40.59706,12.26696c-22.77956,1.56811 -51.71797,-17.75255 -51.71797,-17.75255c0,0 27.81223,2.9609 50.59178,1.3928c0,0 41.30156,-2.0328 41.72322,4.09279z" fill="url(#color-110)"/><path d="M206.55539,286.23911c1.20376,6.02093 -16.29826,12.89552 -38.68863,17.37208c-22.39035,4.47654 -53.56756,-10.97338 -53.56756,-10.97338c0,0 27.96228,-0.63034 50.35262,-5.10688c0,0 40.69981,-7.31275 41.9036,-1.29182z" fill="url(#color-111)"/><path d="M205.80942,282.63637c2.48699,5.61387 -13.09618,16.13747 -33.97279,25.38597c-20.87659,9.24852 -54.67149,0.96444 -54.67149,0.96444c0,0 27.1528,-6.70903 48.02941,-15.95754c0,0 38.12786,-16.00676 40.61487,-10.39287z" fill="url(#color-112)"/></g><g data-paper-data="{&quot;index&quot;:null}" stroke="#000000"><path d="M311.71923,264.06678c22.29241,-4.94116 48.13042,-15.65021 48.13042,-15.65021c0,0 -22.2894,26.71899 -44.58181,31.66015c-22.29243,4.94116 -41.08024,5.71532 -42.40896,-0.27926c-1.32871,-5.99459 38.86032,-15.73064 38.86032,-15.73064z" fill="url(#color-113)"/><path d="M312.03452,272.24738c22.74204,-2.04145 49.74008,-9.34847 49.74008,-9.34847c0,0 -25.53191,23.63983 -48.27395,25.6813c-22.74204,2.04147 -41.47399,0.39978 -42.02295,-5.71571c-0.54897,-6.11551 40.55683,-10.61709 40.55683,-10.61709z" fill="url(#color-114)"/><path d="M314.44812,279.59537c22.77956,1.56811 50.59178,-1.3928 50.59178,-1.3928c0,0 -28.93841,19.32068 -51.71797,17.75255c-22.77958,-1.56811 -41.01873,-6.14137 -40.59706,-12.26696c0.42167,-6.12561 41.72322,-4.09279 41.72322,-4.09279z" fill="url(#color-115)"/><path d="M312.43598,287.53092c22.39035,4.47654 50.35262,5.10688 50.35262,5.10688c0,0 -31.17722,15.44992 -53.56756,10.97338c-22.39037,-4.47654 -39.89242,-11.35114 -38.68863,-17.37208c1.20376,-6.02093 41.90358,1.29182 41.90358,1.29182z" fill="url(#color-116)"/><path d="M311.89339,293.02924c20.87659,9.24852 48.02941,15.95754 48.02941,15.95754c0,0 -33.7949,8.28407 -54.67149,-0.96444c-20.87661,-9.24852 -36.45979,-19.7721 -33.97279,-25.38597c2.48699,-5.61387 40.61487,10.39287 40.61487,10.39287z" fill="url(#color-117)"/></g><path d="M184.91155,271.69176c7.37629,-14.86615 17.16266,-20.49199 33.55575,-20.83638c8.58687,-0.41989 19.41098,1.54638 22.65977,16.09067c0.79488,3.55858 -0.47765,7.87012 -0.47765,13.08392c0,18.07641 0.00309,32.27317 0.00309,32.27317c0,0 -13.56129,4.40581 -26.7804,4.40581c-16.39639,0 -44.02296,-14.66047 -28.96055,-45.01719z" data-paper-data="{&quot;index&quot;:null}" fill="url(#color-118)" stroke="#000000"/><path d="M267.38185,316.70895c-13.32921,0 -27.21188,-4.16798 -27.21188,-4.16798c0,0 0.43454,-14.57521 0.43454,-32.511c0,-5.06621 -0.07111,-9.28054 0.6819,-12.77991c3.18926,-14.82092 12.85386,-16.81748 21.50022,-16.39468c16.39309,0.34439 26.17946,5.97022 33.55575,20.83638c15.06241,30.35671 -12.56419,45.01719 -28.96055,45.01719z" fill="url(#color-119)" stroke="#000000"/><path d="M240.34633,253.21435c3.93349,0 7.12221,2.25545 7.12221,5.03767c0,2.78224 -3.18869,14.01728 -7.12221,14.01728c-3.93351,0 -7.12223,-11.23506 -7.12223,-14.01728c0,-2.78224 3.18872,-5.03767 7.12223,-5.03767z" fill="url(#color-120)" stroke="none"/></g></g></g></g></svg>