<svg version="1.1" xmlns="http://www.w3.org/2000/svg" xmlns:xlink="http://www.w3.org/1999/xlink" width="710.7246" height="427.09872" viewBox="0,0,710.7246,427.09872"><defs><linearGradient x1="239.21285" y1="226.40877" x2="239.21285" y2="367.54991" gradientUnits="userSpaceOnUse" id="color-1"><stop offset="0" stop-color="#000000"/><stop offset="1" stop-color="#c2c2c2"/></linearGradient><linearGradient x1="386.47432" y1="150.97745" x2="380.4897" y2="150.97745" gradientUnits="userSpaceOnUse" id="color-2"><stop offset="0" stop-color="#242424"/><stop offset="1" stop-color="#373737"/></linearGradient><linearGradient x1="433.97735" y1="150.97745" x2="427.99275" y2="150.97745" gradientUnits="userSpaceOnUse" id="color-3"><stop offset="0" stop-color="#242424"/><stop offset="1" stop-color="#373737"/></linearGradient><linearGradient x1="433.97735" y1="187.25179" x2="433.97735" y2="253.5362" gradientUnits="userSpaceOnUse" id="color-4"><stop offset="0" stop-color="#393939"/><stop offset="1" stop-color="#8b8b8b"/></linearGradient><linearGradient x1="433.97735" y1="131.14577" x2="433.97735" y2="186.9571" gradientUnits="userSpaceOnUse" id="color-5"><stop offset="0" stop-color="#393939"/><stop offset="1" stop-color="#8b8b8b"/></linearGradient><linearGradient x1="433.97735" y1="75.03978" x2="433.97735" y2="113.64526" gradientUnits="userSpaceOnUse" id="color-6"><stop offset="0" stop-color="#393939"/><stop offset="1" stop-color="#8b8b8b"/></linearGradient><linearGradient x1="482.97663" y1="195.48824" x2="488.96127" y2="195.48824" gradientUnits="userSpaceOnUse" id="color-7"><stop offset="0" stop-color="#494949"/><stop offset="1" stop-color="#6d6d6d"/></linearGradient><linearGradient x1="435.47352" y1="195.48824" x2="441.45817" y2="195.48824" gradientUnits="userSpaceOnUse" id="color-8"><stop offset="0" stop-color="#494949"/><stop offset="1" stop-color="#6d6d6d"/></linearGradient><linearGradient x1="462.48969" y1="216.02318" x2="469.81241" y2="216.02318" gradientUnits="userSpaceOnUse" id="color-9"><stop offset="0" stop-color="#494949"/><stop offset="1" stop-color="#6d6d6d"/></linearGradient><linearGradient x1="520.61385" y1="216.02318" x2="527.93657" y2="216.02318" gradientUnits="userSpaceOnUse" id="color-10"><stop offset="0" stop-color="#494949"/><stop offset="1" stop-color="#6d6d6d"/></linearGradient><linearGradient x1="527.93657" y1="289.40801" x2="527.93657" y2="370.51297" gradientUnits="userSpaceOnUse" id="color-11"><stop offset="0" stop-color="#787878"/><stop offset="1" stop-color="#a9a9a9"/></linearGradient><linearGradient x1="527.93657" y1="217.75734" x2="527.93657" y2="286.04742" gradientUnits="userSpaceOnUse" id="color-12"><stop offset="0" stop-color="#787878"/><stop offset="1" stop-color="#a9a9a9"/></linearGradient><linearGradient x1="527.93657" y1="139.10664" x2="527.93657" y2="186.34385" gradientUnits="userSpaceOnUse" id="color-13"><stop offset="0" stop-color="#787878"/><stop offset="1" stop-color="#a9a9a9"/></linearGradient><linearGradient x1="587.89154" y1="270.486" x2="595.21426" y2="270.486" gradientUnits="userSpaceOnUse" id="color-14"><stop offset="0" stop-color="#494949"/><stop offset="1" stop-color="#6d6d6d"/></linearGradient><linearGradient x1="529.76726" y1="270.486" x2="537.08998" y2="270.486" gradientUnits="userSpaceOnUse" id="color-15"><stop offset="0" stop-color="#494949"/><stop offset="1" stop-color="#6d6d6d"/></linearGradient><linearGradient x1="299.36504" y1="237.82143" x2="339.47309" y2="237.82143" gradientUnits="userSpaceOnUse" id="color-16"><stop offset="0" stop-color="#675b4e"/><stop offset="1" stop-color="#877867"/></linearGradient><linearGradient x1="350.86517" y1="180.82215" x2="350.86517" y2="215.00233" gradientUnits="userSpaceOnUse" id="color-17"><stop offset="0" stop-color="#443d34"/><stop offset="1" stop-color="#988672"/></linearGradient><linearGradient x1="309.00652" y1="176.77458" x2="337.71185" y2="176.77458" gradientUnits="userSpaceOnUse" id="color-18"><stop offset="0" stop-color="#675b4e"/><stop offset="1" stop-color="#877867"/></linearGradient><linearGradient x1="345.86516" y1="135.9802" x2="345.86516" y2="160.44296" gradientUnits="userSpaceOnUse" id="color-19"><stop offset="0" stop-color="#443d34"/><stop offset="1" stop-color="#988672"/></linearGradient><linearGradient x1="93.2297" y1="150.97745" x2="99.21433" y2="150.97745" gradientUnits="userSpaceOnUse" id="color-20"><stop offset="0" stop-color="#242424"/><stop offset="1" stop-color="#373737"/></linearGradient><linearGradient x1="45.72666" y1="150.97745" x2="51.71127" y2="150.97745" gradientUnits="userSpaceOnUse" id="color-21"><stop offset="0" stop-color="#242424"/><stop offset="1" stop-color="#373737"/></linearGradient><linearGradient x1="45.72665" y1="187.25179" x2="45.72665" y2="253.5362" gradientUnits="userSpaceOnUse" id="color-22"><stop offset="0" stop-color="#393939"/><stop offset="1" stop-color="#8b8b8b"/></linearGradient><linearGradient x1="45.72665" y1="131.14577" x2="45.72665" y2="186.9571" gradientUnits="userSpaceOnUse" id="color-23"><stop offset="0" stop-color="#393939"/><stop offset="1" stop-color="#8b8b8b"/></linearGradient><linearGradient x1="45.72665" y1="75.03978" x2="45.72665" y2="113.64526" gradientUnits="userSpaceOnUse" id="color-24"><stop offset="0" stop-color="#393939"/><stop offset="1" stop-color="#8b8b8b"/></linearGradient><linearGradient x1="-3.27261" y1="195.48824" x2="-9.25725" y2="195.48824" gradientUnits="userSpaceOnUse" id="color-25"><stop offset="0" stop-color="#494949"/><stop offset="1" stop-color="#6d6d6d"/></linearGradient><linearGradient x1="88.15116" y1="67.95503" x2="69.54533" y2="68.30962" gradientUnits="userSpaceOnUse" id="color-26"><stop offset="0" stop-color="#28241f"/><stop offset="1" stop-color="#877867"/></linearGradient><linearGradient x1="63.75673" y1="41.96879" x2="64.0589" y2="57.82472" gradientUnits="userSpaceOnUse" id="color-27"><stop offset="0" stop-color="#1a1713"/><stop offset="1" stop-color="#988672"/></linearGradient><linearGradient x1="21.53105" y1="173.09147" x2="21.53105" y2="198.80542" gradientUnits="userSpaceOnUse" id="color-28"><stop offset="0" stop-color="#f1f1f1"/><stop offset="1" stop-color="#b9b9b9"/></linearGradient><linearGradient x1="44.23049" y1="195.48824" x2="38.24584" y2="195.48824" gradientUnits="userSpaceOnUse" id="color-29"><stop offset="0" stop-color="#494949"/><stop offset="1" stop-color="#6d6d6d"/></linearGradient><linearGradient x1="17.21431" y1="216.02318" x2="9.89157" y2="216.02318" gradientUnits="userSpaceOnUse" id="color-30"><stop offset="0" stop-color="#494949"/><stop offset="1" stop-color="#6d6d6d"/></linearGradient><linearGradient x1="-40.90989" y1="216.02318" x2="-48.23263" y2="216.02318" gradientUnits="userSpaceOnUse" id="color-31"><stop offset="0" stop-color="#494949"/><stop offset="1" stop-color="#6d6d6d"/></linearGradient><linearGradient x1="-48.23262" y1="289.40801" x2="-48.23262" y2="370.51297" gradientUnits="userSpaceOnUse" id="color-32"><stop offset="0" stop-color="#787878"/><stop offset="1" stop-color="#a9a9a9"/></linearGradient><linearGradient x1="-48.23262" y1="217.75734" x2="-48.23262" y2="286.04742" gradientUnits="userSpaceOnUse" id="color-33"><stop offset="0" stop-color="#787878"/><stop offset="1" stop-color="#a9a9a9"/></linearGradient><linearGradient x1="-48.23262" y1="139.10664" x2="-48.23262" y2="186.34385" gradientUnits="userSpaceOnUse" id="color-34"><stop offset="0" stop-color="#787878"/><stop offset="1" stop-color="#a9a9a9"/></linearGradient><linearGradient x1="-108.18758" y1="270.486" x2="-115.51031" y2="270.486" gradientUnits="userSpaceOnUse" id="color-35"><stop offset="0" stop-color="#494949"/><stop offset="1" stop-color="#6d6d6d"/></linearGradient><linearGradient x1="-50.0633" y1="270.486" x2="-57.38604" y2="270.486" gradientUnits="userSpaceOnUse" id="color-36"><stop offset="0" stop-color="#494949"/><stop offset="1" stop-color="#6d6d6d"/></linearGradient><linearGradient x1="323.45966" y1="216.97214" x2="329.43416" y2="216.97214" gradientUnits="userSpaceOnUse" id="color-37"><stop offset="0" stop-color="#494949"/><stop offset="1" stop-color="#6d6d6d"/></linearGradient><linearGradient x1="452.8786" y1="215.47214" x2="458.85311" y2="215.47214" gradientUnits="userSpaceOnUse" id="color-38"><stop offset="0" stop-color="#494949"/><stop offset="1" stop-color="#6d6d6d"/></linearGradient><linearGradient x1="376.85676" y1="290.35698" x2="376.85676" y2="371.46191" gradientUnits="userSpaceOnUse" id="color-39"><stop offset="0" stop-color="#787878"/><stop offset="1" stop-color="#a9a9a9"/></linearGradient><linearGradient x1="376.85676" y1="218.7063" x2="376.85676" y2="286.99639" gradientUnits="userSpaceOnUse" id="color-40"><stop offset="0" stop-color="#787878"/><stop offset="1" stop-color="#a9a9a9"/></linearGradient><linearGradient x1="376.85676" y1="140.0556" x2="376.85676" y2="187.29281" gradientUnits="userSpaceOnUse" id="color-41"><stop offset="0" stop-color="#787878"/><stop offset="1" stop-color="#a9a9a9"/></linearGradient><linearGradient x1="477.17374" y1="247.43499" x2="483.14824" y2="247.43499" gradientUnits="userSpaceOnUse" id="color-42"><stop offset="0" stop-color="#494949"/><stop offset="1" stop-color="#6d6d6d"/></linearGradient><linearGradient x1="347.75473" y1="248.93499" x2="353.72924" y2="248.93499" gradientUnits="userSpaceOnUse" id="color-43"><stop offset="0" stop-color="#494949"/><stop offset="1" stop-color="#6d6d6d"/></linearGradient><linearGradient x1="423.34069" y1="366.10238" x2="419.22425" y2="391.31676" gradientUnits="userSpaceOnUse" id="color-44"><stop offset="0" stop-color="#006b0d"/><stop offset="1" stop-color="#00c92b"/></linearGradient><linearGradient x1="334.65636" y1="350.77851" x2="330.2296" y2="377.89373" gradientUnits="userSpaceOnUse" id="color-45"><stop offset="0" stop-color="#000000"/><stop offset="1" stop-color="#9c9c9c"/></linearGradient><linearGradient x1="359.35417" y1="355.0548" x2="354.92741" y2="382.17003" gradientUnits="userSpaceOnUse" id="color-46"><stop offset="0" stop-color="#000000"/><stop offset="1" stop-color="#9c9c9c"/></linearGradient><linearGradient x1="386.46938" y1="359.48157" x2="382.04262" y2="386.59679" gradientUnits="userSpaceOnUse" id="color-47"><stop offset="0" stop-color="#000000"/><stop offset="1" stop-color="#9c9c9c"/></linearGradient><linearGradient x1="411.16718" y1="363.75793" x2="406.74044" y2="390.87311" gradientUnits="userSpaceOnUse" id="color-48"><stop offset="0" stop-color="#000000"/><stop offset="1" stop-color="#9c9c9c"/></linearGradient><linearGradient x1="435.74367" y1="367.28184" x2="431.3169" y2="394.39702" gradientUnits="userSpaceOnUse" id="color-49"><stop offset="0" stop-color="#000000"/><stop offset="1" stop-color="#9c9c9c"/></linearGradient><linearGradient x1="460.44146" y1="371.55811" x2="456.01472" y2="398.67327" gradientUnits="userSpaceOnUse" id="color-50"><stop offset="0" stop-color="#000000"/><stop offset="1" stop-color="#9c9c9c"/></linearGradient><linearGradient x1="487.59546" y1="375.74707" x2="483.16871" y2="402.86221" gradientUnits="userSpaceOnUse" id="color-51"><stop offset="0" stop-color="#000000"/><stop offset="1" stop-color="#9c9c9c"/></linearGradient><linearGradient x1="512.29329" y1="380.02333" x2="507.86653" y2="407.13849" gradientUnits="userSpaceOnUse" id="color-52"><stop offset="0" stop-color="#000000"/><stop offset="1" stop-color="#9c9c9c"/></linearGradient><linearGradient x1="155.82092" y1="216.97214" x2="149.84642" y2="216.97214" gradientUnits="userSpaceOnUse" id="color-53"><stop offset="0" stop-color="#494949"/><stop offset="1" stop-color="#6d6d6d"/></linearGradient><linearGradient x1="26.40198" y1="215.47214" x2="20.42745" y2="215.47214" gradientUnits="userSpaceOnUse" id="color-54"><stop offset="0" stop-color="#494949"/><stop offset="1" stop-color="#6d6d6d"/></linearGradient><linearGradient x1="102.42382" y1="290.35698" x2="102.42382" y2="371.46191" gradientUnits="userSpaceOnUse" id="color-55"><stop offset="0" stop-color="#787878"/><stop offset="1" stop-color="#a9a9a9"/></linearGradient><linearGradient x1="102.42382" y1="218.7063" x2="102.42382" y2="286.99639" gradientUnits="userSpaceOnUse" id="color-56"><stop offset="0" stop-color="#787878"/><stop offset="1" stop-color="#a9a9a9"/></linearGradient><linearGradient x1="102.42382" y1="140.0556" x2="102.42382" y2="187.29281" gradientUnits="userSpaceOnUse" id="color-57"><stop offset="0" stop-color="#787878"/><stop offset="1" stop-color="#a9a9a9"/></linearGradient><linearGradient x1="2.10684" y1="247.43499" x2="-3.86766" y2="247.43499" gradientUnits="userSpaceOnUse" id="color-58"><stop offset="0" stop-color="#494949"/><stop offset="1" stop-color="#6d6d6d"/></linearGradient><linearGradient x1="61.43983" y1="296.95077" x2="87.51251" y2="296.95077" gradientUnits="userSpaceOnUse" id="color-59"><stop offset="0" stop-color="#675b4e"/><stop offset="1" stop-color="#877867"/></linearGradient><linearGradient x1="131.52585" y1="248.93499" x2="125.55134" y2="248.93499" gradientUnits="userSpaceOnUse" id="color-60"><stop offset="0" stop-color="#494949"/><stop offset="1" stop-color="#6d6d6d"/></linearGradient></defs><g transform="translate(115.51031,18.80153)"><g data-paper-data="{&quot;isPaintingLayer&quot;:true}" fill-rule="nonzero" stroke-linejoin="miter" stroke-miterlimit="10" stroke-dasharray="" stroke-dashoffset="0" style="mix-blend-mode: normal"><path d="M-14.97935,260.45673v-279.25826h517.84985v279.25826c0,0 -187.35399,0 -276.37045,0c-83.2079,0 -241.4794,0 -241.4794,0z" fill="#000000" stroke="none" stroke-width="0" stroke-linecap="butt"/><path d="M-13.0394,367.54991l6.6066,-141.14114l489.26126,1.50151l8.63664,139.63963z" fill="url(#color-1)" stroke="none" stroke-width="0" stroke-linecap="butt"/><g data-paper-data="{&quot;index&quot;:null}" stroke="none" stroke-width="0" stroke-linecap="butt"><path d="M380.4897,242.61729v-183.27957h5.98463v183.27957z" fill="url(#color-2)"/><path d="M427.99275,242.61729v-183.27957h5.98464v183.27957z" fill="url(#color-3)"/><path d="M437.06038,253.5362l-53.95243,-66.28441h47.78644l53.95243,66.28441z" fill="url(#color-4)"/><path d="M437.06038,186.9571l-53.95243,-55.81129h47.78644l53.95243,55.81129z" fill="url(#color-5)"/><path d="M437.06038,113.64526l-53.95243,-38.60546h47.78644l53.95243,38.60546z" fill="url(#color-6)"/><path d="M482.97663,302.83763v-214.69893h5.98464v214.69893z" fill="url(#color-7)"/><path d="M435.47352,302.83763v-214.69893h5.98464v214.69893z" fill="url(#color-8)"/></g><g data-paper-data="{&quot;index&quot;:null}" stroke="none" stroke-width="0" stroke-linecap="butt"><path d="M462.48969,328.15264v-224.25891h7.32273v224.25891z" fill="url(#color-9)"/><path d="M520.61385,328.15264v-224.25891h7.32274v224.25891z" fill="url(#color-10)"/><path d="M531.7089,370.51297l-66.01561,-81.10489h58.47097l66.01561,81.10489z" fill="url(#color-11)"/><path d="M531.7089,286.04742l-66.01561,-68.29009h58.47097l66.01561,68.29009z" fill="url(#color-12)"/><path d="M531.7089,186.34385l-66.01561,-50.23723h58.47097l66.01561,50.23723z" fill="url(#color-13)"/><path d="M587.89154,401.83776v-262.7033h7.32274v262.7033z" fill="url(#color-14)"/><path d="M529.76726,401.83776v-262.7033h7.32274v262.7033z" fill="url(#color-15)"/></g><g data-paper-data="{&quot;index&quot;:null}" stroke="none" stroke-width="0" stroke-linecap="butt"><path d="M339.07253,282.76644v-68.09003l63.3813,-11.02207v68.09004z" fill="#9f8d79"/><path d="M299.36504,258.55949v-65.68315l40.10803,21.80013v68.09004z" fill="url(#color-16)"/><path d="M402.45386,203.98027l-62.98077,11.02207l-40.19665,-22.07536l63.96559,-12.10481z" fill="url(#color-17)"/></g><g data-paper-data="{&quot;index&quot;:null}" stroke="none" stroke-width="0" stroke-linecap="butt"><path d="M337.42517,208.94176v-48.73204l45.362,-7.8885v48.73205z" fill="#9f8d79"/><path d="M309.00652,191.61682v-47.00943l28.70532,15.60236v48.73204z" fill="url(#color-18)"/><path d="M382.78719,152.55445l-45.07535,7.8885l-28.76874,-15.79934l45.78018,-8.66342z" fill="url(#color-19)"/></g><g stroke="none" stroke-linecap="butt"><path d="M93.2297,242.61729v-183.27957h5.98463v183.27957z" fill="url(#color-20)" stroke-width="0"/><path d="M45.72664,242.61729v-183.27957h5.98464v183.27957z" fill="url(#color-21)" stroke-width="0"/><path d="M-5.14281,253.5362l53.95243,-66.28441h47.78644l-53.95243,66.28441z" fill="url(#color-22)" stroke-width="0"/><path d="M-5.14281,186.9571l53.95243,-55.81129h47.78644l-53.95243,55.81129z" fill="url(#color-23)" stroke-width="0"/><path d="M-5.14281,113.64526l53.95243,-38.60546h47.78644l-53.95243,38.60546z" fill="url(#color-24)" stroke-width="0"/><path d="M-9.25725,302.83763v-214.69893h5.98464v214.69893z" fill="url(#color-25)" stroke-width="0"/><g data-paper-data="{&quot;index&quot;:null}" stroke-width="0"><path d="M40.62889,84.60303l-0.60194,-31.58648l29.49957,4.55274l0.60194,31.58647z" fill="#9f8d79"/><path d="M69.94267,89.15932l-0.60194,-31.58648l18.4131,-10.46749l0.58066,30.46994z" fill="url(#color-26)"/><path d="M58.01518,42.07821l29.78018,5.04985l-18.45178,10.59595l-29.31376,-4.55628z" fill="url(#color-27)"/></g><path d="M1.44722,198.10129c0,0 -1.46958,-9.85889 1.4642,-12.97809c3.46111,-3.67986 11.31651,-12.03173 11.31651,-12.03173l27.75501,0.70411c0,0 -7.8669,8.3641 -11.3294,12.04544c-2.93097,3.11621 -2.11798,12.96439 -2.11798,12.96439z" fill="url(#color-28)" stroke-width="NaN"/><path d="M38.24584,302.83763v-214.69893h5.98464v214.69893z" fill="url(#color-29)" stroke-width="0"/></g><g data-paper-data="{&quot;index&quot;:null}" stroke="none" stroke-width="0" stroke-linecap="butt"><path d="M9.89157,328.15264v-224.25891h7.32273v224.25891z" fill="url(#color-30)"/><path d="M-48.23263,328.15264v-224.25891h7.32274v224.25891z" fill="url(#color-31)"/><path d="M-110.47592,370.51297l66.01561,-81.10489h58.47097l-66.01561,81.10489z" fill="url(#color-32)"/><path d="M-110.47592,286.04742l66.01561,-68.29009h58.47097l-66.01561,68.29009z" fill="url(#color-33)"/><path d="M-110.47592,186.34385l66.01561,-50.23723h58.47097l-66.01561,50.23723z" fill="url(#color-34)"/><path d="M-115.51031,401.83776v-262.7033h7.32274v262.7033z" fill="url(#color-35)"/><path d="M-57.38604,401.83776v-262.7033h7.32274v262.7033z" fill="url(#color-36)"/></g><g data-paper-data="{&quot;index&quot;:null}" stroke="none" stroke-width="0" stroke-linecap="butt"><path d="M323.45967,329.10159v-224.25891h5.9745v224.25891z" fill="url(#color-37)"/><path d="M452.8786,327.60159v-224.25891h5.97451v224.25891z" fill="url(#color-38)"/><path d="M353.01037,340.96191l-26.93691,-50.60489l129.70187,-1l26.52897,50.60489z" fill="url(#color-39)"/><path d="M353.01037,256.49639l-26.93691,-37.79009l129.70187,-1l26.52897,37.79009z" fill="url(#color-40)"/><path d="M353.01037,156.79281l-26.93691,-19.73723l129.70187,-1l26.93691,19.73723z" fill="url(#color-41)"/><path d="M477.17374,378.7867v-262.7033h5.97451v262.7033z" fill="url(#color-42)"/><path d="M347.75473,380.2867v-262.7033h5.97451v262.7033z" fill="url(#color-43)"/></g><g fill="#4a81a0" stroke="none" stroke-width="0" stroke-linecap="butt"><path d="M338.23559,363.29724c0,7.1797 -21.93805,13 -49,13c-27.06195,0 -49,-5.8203 -49,-13c0,-7.1797 21.93805,-13 49,-13c27.06195,0 49,5.8203 49,13z"/><path d="M288.23559,348.29719c0,3.58985 -7.94695,6.5 -17.75,6.5c-9.80305,0 -17.75,-2.91015 -17.75,-6.5c0,-3.58985 7.94695,-6.5 17.75,-6.5c9.80305,0 17.75,2.91015 17.75,6.5z"/></g><g><path d="M526.11115,387.77514l-202.49492,-34.0356" fill="none" stroke="#909090" stroke-width="2" stroke-linecap="round"/><path d="M325.66388,350.15598l201.69883,32.92887c0,0 7.86516,1.59032 6.56071,13.60239c-1.16198,10.70022 -10.67682,11.60996 -10.67682,11.60996l-201.69883,-32.92887c0,0 -6.25932,-0.54921 -4.24584,-13.87953c1.89737,-12.56156 8.36195,-11.33282 8.36195,-11.33282z" fill="url(#color-44)" stroke="none" stroke-width="0" stroke-linecap="butt"/><path d="M333.11032,350.52607l4.75705,0.77662c0,0 -3.30958,8.30616 -4.03299,12.73725c-0.75114,4.60092 -0.15591,14.41676 -0.15591,14.41676l-4.5192,-0.73779c0,0 -0.83307,-9.85467 -0.08193,-14.45559c0.72341,-4.4311 4.03298,-12.73725 4.03298,-12.73725z" fill="url(#color-45)" stroke="none" stroke-width="0" stroke-linecap="butt"/><path d="M357.80813,354.80239l4.75705,0.77662c0,0 -3.30958,8.30616 -4.03299,12.73725c-0.75114,4.60092 -0.15591,14.41676 -0.15591,14.41676l-4.5192,-0.73779c0,0 -0.83308,-9.85467 -0.08194,-14.45559c0.72341,-4.4311 4.03299,-12.73725 4.03299,-12.73725z" fill="url(#color-46)" stroke="none" stroke-width="0" stroke-linecap="butt"/><path d="M384.92334,359.2292l4.75705,0.77662c0,0 -3.30958,8.30616 -4.03299,12.73725c-0.75114,4.60092 -0.15591,14.41676 -0.15591,14.41676l-4.5192,-0.73779c0,0 -0.83308,-9.85467 -0.08194,-14.45559c0.72341,-4.4311 4.03299,-12.73725 4.03299,-12.73725z" fill="url(#color-47)" stroke="none" stroke-width="0" stroke-linecap="butt"/><path d="M409.62113,363.50552l4.75705,0.77662c0,0 -3.30958,8.30616 -4.03299,12.73725c-0.75114,4.60092 -0.15591,14.41675 -0.15591,14.41675l-4.5192,-0.73779c0,0 -0.83307,-9.85466 -0.08193,-14.45558c0.72341,-4.4311 4.03298,-12.73725 4.03298,-12.73725z" fill="url(#color-48)" stroke="none" stroke-width="0" stroke-linecap="butt"/><path d="M434.19762,367.02945l4.75704,0.77662c0,0 -3.30957,8.30616 -4.03298,12.73725c-0.75114,4.60092 -0.15592,14.41676 -0.15592,14.41676l-4.5192,-0.73779c0,0 -0.83307,-9.85467 -0.08193,-14.45559c0.72341,-4.4311 4.03299,-12.73725 4.03299,-12.73725z" fill="url(#color-49)" stroke="none" stroke-width="0" stroke-linecap="butt"/><path d="M458.89543,371.30571l4.75705,0.77662c0,0 -3.30958,8.30616 -4.03299,12.73725c-0.75114,4.60092 -0.15591,14.41676 -0.15591,14.41676l-4.5192,-0.73779c0,0 -0.83308,-9.85467 -0.08194,-14.45559c0.72341,-4.4311 4.03298,-12.73725 4.03298,-12.73725z" fill="url(#color-50)" stroke="none" stroke-width="0" stroke-linecap="butt"/><path d="M486.04944,375.49464l4.75705,0.77662c0,0 -3.30957,8.30616 -4.03298,12.73725c-0.75114,4.60092 -0.15591,14.41676 -0.15591,14.41676l-4.5192,-0.73779c0,0 -0.83308,-9.85467 -0.08194,-14.45559c0.72341,-4.4311 4.03299,-12.73725 4.03299,-12.73725z" fill="url(#color-51)" stroke="none" stroke-width="0" stroke-linecap="butt"/><path d="M510.74725,379.77092l4.75705,0.77662c0,0 -3.30957,8.30616 -4.03298,12.73725c-0.75114,4.60092 -0.15591,14.41676 -0.15591,14.41676l-4.5192,-0.73779c0,0 -0.83307,-9.85467 -0.08193,-14.45559c0.72341,-4.4311 4.03298,-12.73725 4.03298,-12.73725z" fill="url(#color-52)" stroke="none" stroke-width="0" stroke-linecap="butt"/></g><g stroke="none" stroke-width="0" stroke-linecap="butt"><path d="M149.84642,329.10159v-224.25891h5.9745v224.25891z" fill="url(#color-53)"/><path d="M20.42745,327.60159v-224.25891h5.97451v224.25891z" fill="url(#color-54)"/><path d="M-3.02372,339.96191l26.52897,-50.60489l129.70187,1l-26.93691,50.60489z" fill="url(#color-55)"/><path d="M-3.02372,255.49641l26.52897,-37.79009l129.70187,1l-26.93691,37.79009z" fill="url(#color-56)"/><path d="M-3.43166,155.79281l26.93691,-19.73723l129.70187,1l-26.93691,19.73723z" fill="url(#color-57)"/><path d="M-3.86766,378.7867v-262.7033h5.97451v262.7033z" fill="url(#color-58)"/><g data-paper-data="{&quot;index&quot;:null}"><path d="M52.14633,323.26648v-44.26268l76.30751,-4.26371v44.26269z" fill="#9f8d79"/><path d="M26.33403,307.53048v-42.69806l26.07267,14.17142v44.26268z" fill="url(#color-59)"/><path d="M128.45386,274.95195l-76.04714,4.26371l-26.13028,-14.35033l76.68733,-4.96756z" fill="#8f7e6b"/></g><path d="M125.55134,380.2867v-262.7033h5.97451v262.7033z" fill="url(#color-60)"/></g></g></g></svg>