<svg version="1.1" xmlns="http://www.w3.org/2000/svg" xmlns:xlink="http://www.w3.org/1999/xlink" width="1018.62145" height="514.33242" viewBox="0,0,1018.62145,514.33242"><defs><radialGradient cx="694.03167" cy="276.71711" r="100.79692" gradientUnits="userSpaceOnUse" id="color-1"><stop offset="0" stop-color="#a3a3a3"/><stop offset="1" stop-color="#5d5d5d"/></radialGradient><radialGradient cx="602.07888" cy="315.49998" r="98.47809" gradientUnits="userSpaceOnUse" id="color-2"><stop offset="0" stop-color="#a3a3a3"/><stop offset="1" stop-color="#5d5d5d"/></radialGradient><radialGradient cx="749.55086" cy="276.94844" r="13.82697" gradientUnits="userSpaceOnUse" id="color-3"><stop offset="0" stop-color="#a7a7a7"/><stop offset="1" stop-color="#7a7a7a"/></radialGradient><radialGradient cx="507.01324" cy="341.72683" r="35.93212" gradientUnits="userSpaceOnUse" id="color-4"><stop offset="0" stop-color="#a3a3a3"/><stop offset="1" stop-color="#5d5d5d"/></radialGradient><radialGradient cx="430.65934" cy="284.72373" r="43.85299" gradientUnits="userSpaceOnUse" id="color-5"><stop offset="0" stop-color="#a3a3a3"/><stop offset="1" stop-color="#5d5d5d"/></radialGradient><radialGradient cx="527.38254" cy="301.40184" r="99.28063" gradientUnits="userSpaceOnUse" id="color-6"><stop offset="0" stop-color="#a3a3a3"/><stop offset="1" stop-color="#5d5d5d"/></radialGradient><radialGradient cx="561.9624" cy="296.44626" r="13.82697" gradientUnits="userSpaceOnUse" id="color-7"><stop offset="0" stop-color="#a7a7a7"/><stop offset="1" stop-color="#7a7a7a"/></radialGradient><radialGradient cx="564.12919" cy="292.90215" r="27.95059" gradientUnits="userSpaceOnUse" id="color-8"><stop offset="0" stop-color="#efefef"/><stop offset="1" stop-color="#bdbdbd"/></radialGradient><linearGradient x1="459.89428" y1="268.21074" x2="467.5202" y2="348.44848" gradientUnits="userSpaceOnUse" id="color-9"><stop offset="0" stop-color="#efefef"/><stop offset="1" stop-color="#bdbdbd"/></linearGradient><linearGradient x1="-149.77751" y1="275.05532" x2="-152.60341" y2="299.85336" gradientUnits="userSpaceOnUse" id="color-10"><stop offset="0" stop-color="#c5c5c5"/><stop offset="1" stop-color="#5d5d5d"/></linearGradient><radialGradient cx="-102.81547" cy="292.1628" r="95.95746" gradientUnits="userSpaceOnUse" id="color-11"><stop offset="0" stop-color="#c5c5c5"/><stop offset="1" stop-color="#5d5d5d"/></radialGradient><radialGradient cx="-242.26866" cy="272.12235" r="13.82697" gradientUnits="userSpaceOnUse" id="color-12"><stop offset="0" stop-color="#a7a7a7"/><stop offset="1" stop-color="#7a7a7a"/></radialGradient><radialGradient cx="-22.377" cy="301.67482" r="93.80469" gradientUnits="userSpaceOnUse" id="color-13"><stop offset="0" stop-color="#c5c5c5"/><stop offset="1" stop-color="#5d5d5d"/></radialGradient><linearGradient x1="72.17884" y1="313.92104" x2="69.11095" y2="340.84255" gradientUnits="userSpaceOnUse" id="color-14"><stop offset="0" stop-color="#c5c5c5"/><stop offset="1" stop-color="#5d5d5d"/></linearGradient><radialGradient cx="72.02326" cy="304.27958" r="93.20101" gradientUnits="userSpaceOnUse" id="color-15"><stop offset="0" stop-color="#c5c5c5"/><stop offset="1" stop-color="#5d5d5d"/></radialGradient><radialGradient cx="-56.54064" cy="293.28723" r="13.82697" gradientUnits="userSpaceOnUse" id="color-16"><stop offset="0" stop-color="#a7a7a7"/><stop offset="1" stop-color="#7a7a7a"/></radialGradient><linearGradient x1="128.14829" y1="321.11135" x2="128.14829" y2="398.87722" gradientUnits="userSpaceOnUse" id="color-17"><stop offset="0" stop-color="#c5c5c5"/><stop offset="1" stop-color="#5d5d5d"/></linearGradient><linearGradient x1="244.57402" y1="249.03945" x2="244.57402" y2="368.27872" gradientUnits="userSpaceOnUse" id="color-18"><stop offset="0" stop-color="#a3a3a3"/><stop offset="1" stop-color="#5d5d5d"/></linearGradient><linearGradient x1="245.01463" y1="321.13077" x2="245.01463" y2="467.82827" gradientUnits="userSpaceOnUse" id="color-19"><stop offset="0" stop-color="#c5c5c5"/><stop offset="1" stop-color="#5d5d5d"/></linearGradient><linearGradient x1="249.88161" y1="313.5082" x2="249.88161" y2="563.45862" gradientUnits="userSpaceOnUse" id="color-20"><stop offset="0" stop-color="#c5c5c5"/><stop offset="1" stop-color="#5d5d5d"/></linearGradient><linearGradient x1="250.59777" y1="303.64511" x2="250.59777" y2="595.37705" gradientUnits="userSpaceOnUse" id="color-21"><stop offset="0" stop-color="#c5c5c5"/><stop offset="1" stop-color="#5d5d5d"/></linearGradient><linearGradient x1="245.43005" y1="312.71892" x2="245.43005" y2="556.18979" gradientUnits="userSpaceOnUse" id="color-22"><stop offset="0" stop-color="#c0c0c0"/><stop offset="1" stop-color="#9f9f9f"/></linearGradient><linearGradient x1="188.63922" y1="331.41193" x2="188.63922" y2="372.74701" gradientUnits="userSpaceOnUse" id="color-23"><stop offset="0" stop-color="#c0c0c0"/><stop offset="1" stop-color="#838383"/></linearGradient><linearGradient x1="188.63922" y1="357.14892" x2="188.63922" y2="398.48399" gradientUnits="userSpaceOnUse" id="color-24"><stop offset="0" stop-color="#c0c0c0"/><stop offset="1" stop-color="#838383"/></linearGradient><linearGradient x1="188.63922" y1="382.10589" x2="188.63922" y2="423.44099" gradientUnits="userSpaceOnUse" id="color-25"><stop offset="0" stop-color="#c0c0c0"/><stop offset="1" stop-color="#838383"/></linearGradient><linearGradient x1="191.13162" y1="405.97355" x2="191.13162" y2="447.30863" gradientUnits="userSpaceOnUse" id="color-26"><stop offset="0" stop-color="#c0c0c0"/><stop offset="1" stop-color="#838383"/></linearGradient><linearGradient x1="197.36261" y1="435.63503" x2="197.36261" y2="469.5419" gradientUnits="userSpaceOnUse" id="color-27"><stop offset="0" stop-color="#c0c0c0"/><stop offset="1" stop-color="#838383"/></linearGradient><linearGradient x1="302.45885" y1="331.41193" x2="302.45885" y2="372.74701" gradientUnits="userSpaceOnUse" id="color-28"><stop offset="0" stop-color="#c0c0c0"/><stop offset="1" stop-color="#838383"/></linearGradient><linearGradient x1="302.45885" y1="357.14892" x2="302.45885" y2="398.48399" gradientUnits="userSpaceOnUse" id="color-29"><stop offset="0" stop-color="#c0c0c0"/><stop offset="1" stop-color="#838383"/></linearGradient><linearGradient x1="302.45885" y1="382.10589" x2="302.45885" y2="423.44099" gradientUnits="userSpaceOnUse" id="color-30"><stop offset="0" stop-color="#c0c0c0"/><stop offset="1" stop-color="#838383"/></linearGradient><linearGradient x1="299.96646" y1="405.97355" x2="299.96646" y2="447.30863" gradientUnits="userSpaceOnUse" id="color-31"><stop offset="0" stop-color="#c0c0c0"/><stop offset="1" stop-color="#838383"/></linearGradient><linearGradient x1="293.73543" y1="435.63503" x2="293.73543" y2="469.5419" gradientUnits="userSpaceOnUse" id="color-32"><stop offset="0" stop-color="#c0c0c0"/><stop offset="1" stop-color="#838383"/></linearGradient><linearGradient x1="245.43005" y1="312.71892" x2="245.43005" y2="327.05023" gradientUnits="userSpaceOnUse" id="color-33"><stop offset="0" stop-color="#c0c0c0"/><stop offset="1" stop-color="#9f9f9f"/></linearGradient><linearGradient x1="220.00143" y1="529.30438" x2="270.85872" y2="529.30438" gradientUnits="userSpaceOnUse" id="color-34"><stop offset="0" stop-color="#7b7b7b"/><stop offset="1" stop-color="#b9b9b9"/></linearGradient><radialGradient cx="373.37328" cy="315.93831" r="13.82697" gradientUnits="userSpaceOnUse" id="color-35"><stop offset="0" stop-color="#a7a7a7"/><stop offset="1" stop-color="#7a7a7a"/></radialGradient><radialGradient cx="128.28717" cy="315.1075" r="13.82697" gradientUnits="userSpaceOnUse" id="color-36"><stop offset="0" stop-color="#a7a7a7"/><stop offset="1" stop-color="#7a7a7a"/></radialGradient><linearGradient x1="294.74076" y1="227.22056" x2="294.74076" y2="281.15496" gradientUnits="userSpaceOnUse" id="color-37"><stop offset="0" stop-color="#c5c5c5"/><stop offset="1" stop-color="#5d5d5d"/></linearGradient><linearGradient x1="177.8197" y1="76.1242" x2="177.8197" y2="107.74901" gradientUnits="userSpaceOnUse" id="color-38"><stop offset="0" stop-color="#c5c5c5"/><stop offset="1" stop-color="#5d5d5d"/></linearGradient><linearGradient x1="300.77397" y1="94.80824" x2="300.77397" y2="118.42646" gradientUnits="userSpaceOnUse" id="color-39"><stop offset="0" stop-color="#c5c5c5"/><stop offset="1" stop-color="#5d5d5d"/></linearGradient><linearGradient x1="243.52111" y1="98.74324" x2="243.52111" y2="266.62732" gradientUnits="userSpaceOnUse" id="color-40"><stop offset="0" stop-color="#a3a3a3"/><stop offset="1" stop-color="#1a1a1a"/></linearGradient><linearGradient x1="245.0193" y1="63.39574" x2="245.0193" y2="274.27179" gradientUnits="userSpaceOnUse" id="color-41"><stop offset="0" stop-color="#c5c5c5"/><stop offset="1" stop-color="#5d5d5d"/></linearGradient><linearGradient x1="238.85378" y1="75.9952" x2="238.85378" y2="259.50456" gradientUnits="userSpaceOnUse" id="color-42"><stop offset="0" stop-color="#b9b9b9"/><stop offset="1" stop-color="#5c5c5c"/></linearGradient><linearGradient x1="243.86831" y1="260.84349" x2="243.86831" y2="62.62844" gradientUnits="userSpaceOnUse" id="color-43"><stop offset="0" stop-color="#5d5d5d"/><stop offset="1" stop-color="#a1a1a1"/></linearGradient><linearGradient x1="243.86831" y1="260.84349" x2="243.86831" y2="62.62844" gradientUnits="userSpaceOnUse" id="color-44"><stop offset="0" stop-color="#c5c5c5"/><stop offset="1" stop-color="#5d5d5d"/></linearGradient><linearGradient x1="245.0193" y1="63.39574" x2="245.0193" y2="274.27179" gradientUnits="userSpaceOnUse" id="color-45"><stop offset="0" stop-color="#c5c5c5"/><stop offset="1" stop-color="#5d5d5d"/></linearGradient><linearGradient x1="213.79526" y1="167.30738" x2="217.01808" y2="167.30738" gradientUnits="userSpaceOnUse" id="color-46"><stop offset="0" stop-color="#cdcdcd"/><stop offset="1" stop-color="#444444"/></linearGradient><linearGradient x1="273.05914" y1="167.30738" x2="276.28197" y2="167.30738" gradientUnits="userSpaceOnUse" id="color-47"><stop offset="0" stop-color="#cdcdcd"/><stop offset="1" stop-color="#444444"/></linearGradient><linearGradient x1="245.2199" y1="152.1016" x2="245.2199" y2="157.75836" gradientUnits="userSpaceOnUse" id="color-48"><stop offset="0" stop-color="#cdcdcd"/><stop offset="1" stop-color="#444444"/></linearGradient><radialGradient cx="274.64555" cy="155.36107" r="13.94031" gradientUnits="userSpaceOnUse" id="color-49"><stop offset="0" stop-color="#ffffff"/><stop offset="1" stop-color="#939393"/></radialGradient><radialGradient cx="277.99186" cy="148.81283" r="13.94031" gradientUnits="userSpaceOnUse" id="color-50"><stop offset="0" stop-color="#b9b097"/><stop offset="1" stop-color="#827c69"/></radialGradient><linearGradient x1="244.66512" y1="214.68246" x2="244.66512" y2="217.75434" gradientUnits="userSpaceOnUse" id="color-51"><stop offset="0" stop-color="#a0a0a0"/><stop offset="1" stop-color="#696969"/></linearGradient><linearGradient x1="254.5599" y1="184.16542" x2="254.5599" y2="218.55643" gradientUnits="userSpaceOnUse" id="color-52"><stop offset="0" stop-color="#cdcdcd"/><stop offset="1" stop-color="#444444"/></linearGradient><linearGradient x1="235.24815" y1="184.04864" x2="235.24815" y2="218.43963" gradientUnits="userSpaceOnUse" id="color-53"><stop offset="0" stop-color="#cdcdcd"/><stop offset="1" stop-color="#444444"/></linearGradient><linearGradient x1="244.91852" y1="213.60083" x2="244.91852" y2="242.4864" gradientUnits="userSpaceOnUse" id="color-54"><stop offset="0" stop-color="#6e6e6e"/><stop offset="1" stop-color="#969696"/></linearGradient><linearGradient x1="247.38346" y1="166.19479" x2="247.38346" y2="188.48578" gradientUnits="userSpaceOnUse" id="color-55"><stop offset="0" stop-color="#cdcdcd"/><stop offset="1" stop-color="#444444"/></linearGradient><linearGradient x1="216.2918" y1="149.03264" x2="216.2918" y2="200.6185" gradientUnits="userSpaceOnUse" id="color-56"><stop offset="0" stop-color="#c5c5c5"/><stop offset="1" stop-color="#5d5d5d"/></linearGradient><linearGradient x1="215.45346" y1="149.75768" x2="215.45346" y2="199.53547" gradientUnits="userSpaceOnUse" id="color-57"><stop offset="0" stop-color="#c5c5c5"/><stop offset="1" stop-color="#5d5d5d"/></linearGradient><radialGradient cx="212.33789" cy="202.62893" r="13.94031" gradientUnits="userSpaceOnUse" id="color-58"><stop offset="0" stop-color="#ffffff"/><stop offset="1" stop-color="#939393"/></radialGradient><radialGradient cx="218.90703" cy="148.81283" r="13.94031" gradientUnits="userSpaceOnUse" id="color-59"><stop offset="0" stop-color="#b9b097"/><stop offset="1" stop-color="#827c69"/></radialGradient><linearGradient x1="239.44227" y1="69.18048" x2="239.44227" y2="203.74115" gradientUnits="userSpaceOnUse" id="color-60"><stop offset="0" stop-color="#afafaf"/><stop offset="1" stop-color="#515151"/></linearGradient><linearGradient x1="241.53441" y1="121.68825" x2="241.53441" y2="206.05698" gradientUnits="userSpaceOnUse" id="color-61"><stop offset="0" stop-color="#afafaf"/><stop offset="1" stop-color="#4b4b4b"/></linearGradient><linearGradient x1="245.0193" y1="63.39574" x2="245.0193" y2="274.27179" gradientUnits="userSpaceOnUse" id="color-62"><stop offset="0" stop-color="#c5c5c5"/><stop offset="1" stop-color="#5d5d5d"/></linearGradient><radialGradient cx="274.53967" cy="156.12092" r="21.48752" gradientUnits="userSpaceOnUse" id="color-63"><stop offset="0" stop-color="#ff0000"/><stop offset="1" stop-color="#ff0000" stop-opacity="0"/></radialGradient></defs><g transform="translate(260.96623,-62.62843)"><g data-paper-data="{&quot;isPaintingLayer&quot;:true}" fill-rule="nonzero" stroke-linecap="butt" stroke-linejoin="miter" stroke-miterlimit="10" stroke-dasharray="" stroke-dashoffset="0" style="mix-blend-mode: normal"><g stroke="none"><path d="M702.516,271.15383c-1.5133,0.067 -3.17988,-1.02557 -4.53144,-0.34167c-0.70208,0.35529 -0.56187,1.35373 -0.58952,2.24175c4.51017,-0.22037 9.01934,-0.36809 13.52782,-0.5084c-2.78157,-0.97378 -5.58658,-1.51652 -8.40686,-1.39167zM691.37952,287.44679c-0.27208,0.40075 -0.54775,0.78868 -0.82705,1.1646c13.85694,0.26374 27.59697,-0.53518 40.88143,-4.23684c-0.08194,-0.05153 -0.16394,-0.10328 -0.24597,-0.15515c-12.88509,0.7265 -25.79785,0.78982 -38.69576,1.52592c-0.33784,0.5395 -0.70686,1.10388 -1.11259,1.70151zM672.67271,301.58695c-12.21567,6.39984 -22.89167,19.31118 -38.00556,16.34121c-9.47737,-1.86238 -13.21279,-9.18727 -17.38717,-16.10238c-2.89707,-0.80179 -5.79606,-1.59179 -8.72381,-2.2545c-3.1381,2.11391 -6.09094,4.45152 -8.60737,7.24987c-8.26299,9.18864 -13.58152,20.62473 -28.74643,14.65492c-6.45189,-2.53987 -10.86108,-9.03263 -17.13505,-12.15561l-1.67987,-1.19578c0,0 -4.8031,-3.96935 -0.83375,-8.77243c1.04769,-1.26773 2.15342,-1.92433 3.21362,-2.2041c16.40062,-12.72113 39.24906,-28.96909 60.24854,-16.44809c0.12365,0.07371 0.24531,0.1468 0.36508,0.21931c0.68846,-0.41469 1.37354,-0.83196 2.05369,-1.25344c7.02357,-2.68454 9.45118,-4.71079 17.25228,-3.30979c7.3631,1.32237 11.99929,8.08082 18.88788,9.86423c1.75876,0.45535 3.61676,0.79232 5.53447,1.04443c2.57598,-1.98425 5.08806,-4.13125 7.86721,-5.98389c4.07677,-2.71769 10.47818,-5.20549 14.79816,-7.07349c0.85618,-0.0901 1.71229,-0.17485 2.5684,-0.25476c1.57178,-4.62589 2.14127,-10.46037 6.63807,-13.44833c2.91619,-1.93773 6.87974,-1.33782 10.35586,-1.75659c12.13987,-1.46245 22.56512,6.21612 32.89663,12.80403c2.2745,-0.15574 4.54895,-0.33824 6.82339,-0.55583l0.49626,-0.04716c0,0 6.20305,-0.58956 6.79259,5.61351c0.15898,1.6727 -0.17597,2.93718 -0.74999,3.89204c0.20544,0.19891 0.52263,0.53183 0.85172,0.97568c0.7022,0.58692 1.34102,1.42957 1.83545,2.62129c2.38768,5.75537 -3.36763,8.14308 -3.36763,8.14308c-22.6507,9.37461 -47.9635,10.37088 -72.35736,8.44928c-0.6181,0.31113 -1.24647,0.62459 -1.8852,0.94332zM579.56028,310.37973c5.17598,-0.37755 8.29182,-8.78621 11.18451,-11.96036c0.09,-0.09876 0.18045,-0.19707 0.27125,-0.29489c-7.41775,1.06407 -13.84092,4.90873 -20.406,8.47317c3.01041,2.26191 6.07176,3.99201 8.95026,3.78206zM641.02797,293.88251c-5.07277,-3.16703 -9.05115,-6.1005 -16.44215,-3.65607c0.26304,0.45877 0.53719,0.94272 0.83077,1.45696c5.10433,1.28182 10.26659,2.23634 15.61138,2.19911zM636.926,306.08507c0.8385,0.2003 1.76196,0.27117 2.78887,0.18518c-0.93555,-0.03655 -1.86492,-0.0994 -2.78887,-0.18518z" fill="url(#color-1)" stroke-width="0.5"/><path d="M753.87612,284.03235c2.07642,5.87486 -3.79847,7.95128 -3.79847,7.95128l-9.15058,2.28197c-9.32437,-1.95483 -18.22579,-5.571 -27.58888,-7.34867c-9.96547,-1.89203 -21.8457,1.81137 -31.8554,2.75527c-10.44981,1.81022 -22.30841,2.23759 -32.11992,6.72435c-7.59673,3.47397 -15.68583,9.43693 -22.32864,14.50101c-2.51898,1.92029 -4.54762,4.62248 -7.44244,5.90797c-5.74983,2.55329 -20.39546,2.68016 -26.24498,1.45475c-11.53,-2.41544 -16.33183,-11.7986 -28.55492,-10.48284c0,0 -6.20305,0.58956 -6.79259,-5.61351c-0.58956,-6.20305 5.61351,-6.79259 5.61351,-6.79259c6.65455,-0.5697 9.52474,-1.54221 16.22644,1.27459c5.51072,2.31623 10.11667,8.17992 16.32234,9.4744c3.33902,0.69654 10.72313,-0.41671 13.97721,-0.64984c1.53973,-0.11032 3.23507,0.50924 4.62845,-0.15519c1.88689,-0.89978 2.98417,-2.93786 4.61092,-4.25067c7.08647,-5.71884 16.55654,-12.2679 24.84324,-16.02007c11.01596,-4.98796 23.89002,-5.69436 35.60712,-7.72414c11.51795,-1.10262 24.2108,-4.65519 35.72811,-2.66652c9.4822,1.63726 18.4844,5.49693 27.89204,7.40738l2.4763,-1.82744c0,0 5.87486,-2.07642 7.95128,3.79847z" fill="url(#color-2)" stroke-width="0.5"/><path d="M730.06573,282.55301c-0.69978,-7.37873 4.89573,-13.94483 12.49809,-14.66577c7.60233,-0.72098 14.33251,4.67606 15.0323,12.05479c0.6998,7.37872 -4.8957,13.94487 -12.49806,14.66583c-7.6023,0.72097 -14.33252,-4.67611 -15.03225,-12.05491z" fill="url(#color-3)" stroke-width="0"/></g><g><path d="M461.05161,268.10124c26.9187,-2.65411 81.45855,5.88152 81.45855,5.88152l5.30853,52.34603c0,0 -51.75444,19.29431 -78.67314,21.94842c-5.26154,0.51876 -11.56378,1.11962 -18.31259,1.75184c-0.03273,-0.27593 -0.06307,-0.5535 -0.09082,-0.83288c-0.91802,-2.64899 -1.78957,-9.32133 -2.96567,-11.38244c-3.37077,-5.90719 -10.38428,-4.28316 -15.76793,-3.77149c-3.57162,0.33945 -8.53189,0.0435 -11.51264,2.4511c-3.51338,2.83781 -1.39947,4.69822 -5.33134,6.83711c-3.73644,2.03257 -10.02186,1.69928 -14.05468,3.93555c-2.0085,1.11374 -3.62365,2.99316 -5.8053,3.7108c0,0 -2.93743,1.03821 -1.89925,3.97563c0.0365,0.10325 0.07534,0.20159 0.1163,0.29525c-4.57851,0.4086 -7.32889,0.65228 -7.32889,0.65228l-6.52113,-65.45616c2.00648,0.45311 3.19485,-1.4907 3.19485,-1.4907c6.20355,-10.20882 19.92513,-5.61037 29.60127,-11.21021c2.77142,-1.60389 5.17388,-3.47653 7.2702,-5.56842c17.72092,-1.7471 35.63782,-3.51355 41.31371,-4.07317z" fill="#494949" stroke="#000000" stroke-width="0"/><g stroke="none"><path d="M497.08208,349.31685c-0.32823,0.78808 -1.03375,1.58885 -2.5355,1.73158c-3.10151,0.29477 -3.39629,-2.80674 -3.39629,-2.80674l1.9847,-4.05926c4.40392,-1.52672 8.12551,-4.28755 12.07045,-6.75204c3.58779,-1.26135 0.05172,-7.36903 3.11113,-11.39307c3.74405,-4.92461 9.71059,-4.53521 14.13504,-7.70054c2.01184,-1.43928 4.24685,-2.54292 6.29402,-3.93148c4.17202,-2.82984 6.12986,-9.09555 11.15992,-11.32078c4.08813,-1.80852 11.38128,-1.24229 15.85301,-1.66729c0,0 3.10151,-0.29477 3.39629,2.80674c0.29477,3.10151 -2.80674,3.39629 -2.80674,3.39629c-3.78048,0.3593 -10.49269,-0.3544 -13.92165,1.16257c-4.289,1.89743 -6.45361,8.07999 -10.11157,10.72991c-2.0086,1.45508 -4.24368,2.57138 -6.3103,3.94284c-4.46676,2.96426 -9.05273,2.61326 -12.88496,6.5511c-2.13627,2.19516 0.95844,7.02964 -0.31913,9.47725c-0.82886,1.58788 -2.86244,2.15402 -4.29368,3.23103c-3.79121,2.3685 -7.36638,4.8487 -11.42474,6.60194z" fill="url(#color-4)" stroke-width="0.5"/><path d="M454.11644,280.06622c1.03821,2.93743 -1.89925,3.97561 -1.89925,3.97561l-3.22969,1.14151c-5.88424,2.07513 -11.34394,4.94352 -17.33614,6.73313c-6.29126,0.61951 -11.01265,2.77135 -17.06017,4.11681c-1.75941,0.39143 -4.13184,-1.20412 -5.40682,0.06992c-3.24596,3.24368 -3.76711,9.59094 -7.74741,13.13116c-4.52629,4.02583 -11.09724,3.46502 -16.34064,5.36838c-3.95118,1.43433 -6.86357,5.3771 -11.10255,6.91713c0,0 -2.93741,1.03823 -3.97562,-1.89922c-1.03821,-2.93743 1.89925,-3.97563 1.89925,-3.97563c4.32291,-1.47251 6.8036,-5.24706 10.95501,-6.86288c4.09535,-1.59401 11.02815,-0.98978 14.45933,-4.23524c3.54552,-3.35365 4.36562,-10.60344 8.09001,-13.41037c1.63078,-1.22908 5.73671,-0.7219 7.82638,-1.18778c6.02019,-1.34213 10.90821,-3.57362 17.2053,-4.14707c5.67192,-1.72103 10.87352,-4.51548 16.45763,-6.49322l3.22972,-1.14151c0,0 2.93741,-1.03821 3.97563,1.89925z" fill="url(#color-5)" stroke-width="0.5"/><path d="M382.87828,323.73436c-3.47141,4.20057 -7.5805,1.69159 -8.55682,0.996c-0.5367,0.0338 -1.07175,0.07568 -1.60344,0.13381c0,0 -6.20305,0.58956 -6.79259,-5.61351c-0.58956,-6.20305 5.61351,-6.79259 5.61351,-6.79259c0.03297,-0.00249 0.06588,-0.00507 0.09884,-0.00777c0.19155,-1.21135 0.52155,-2.3654 1.19301,-3.3781c9.17818,-13.84188 35.32065,-11.9061 48.04401,-5.28954c0.131,0.0681 0.25991,0.13585 0.38684,0.20325c2.59685,-0.20439 5.17495,-0.32029 7.71132,-0.28727c7.61081,0.09904 14.62669,3.62081 22.1361,3.74749c1.74447,0.02945 3.51177,0.04092 5.29582,0.03098c6.91553,-11.20927 13.7099,-23.02049 27.54086,-24.06235c3.44074,-0.25919 7.12644,-1.52722 10.34738,-0.28972c3.04628,1.17037 4.60949,4.62069 6.921,6.92424c2.47476,2.46628 5.28613,5.8559 8.31353,9.05672c13.37053,-2.86293 26.34584,-5.60476 40.34469,-6.93524l6.61657,-0.62886c0,0 6.20305,-0.58956 6.79259,5.61351c0.58956,6.20305 -5.61351,6.79259 -5.61351,6.79259l-0.87012,0.0827c-12.53428,4.75224 -23.25831,20.87335 -38.90971,15.86338c-4.43339,-1.41912 -8.25273,-4.17367 -11.7558,-7.3453c-1.07008,0.22661 -2.14466,0.45275 -3.22445,0.67772c-11.96856,4.23553 -25.78849,6.12621 -39.0704,6.61793c-2.05874,2.54034 -4.18384,5.00493 -6.05944,7.25818c-6.2276,4.65331 -9.96966,9.28056 -18.90465,7.96277c-3.46304,-0.51077 -6.51913,-2.79059 -9.23586,-4.99805c-2.59418,-2.10787 -7.43101,-9.65991 -10.45468,-12.455c-0.30335,-0.28043 -0.6416,-0.55728 -1.01133,-0.82935c-5.64769,0.60343 -11.33442,1.50017 -16.82048,2.02158c-3.98208,0.37846 -8.18496,-0.3272 -11.95832,1.0002c-2.3123,0.81344 -4.11852,2.7686 -6.35519,3.73116c-0.05147,0.06594 -0.10456,0.13206 -0.15936,0.19834zM440.85945,322.76266c2.23555,0.36368 4.70917,-1.55533 6.55374,-3.15034c-4.34738,-0.61314 -8.56404,-2.02058 -12.87126,-2.8369c1.78423,2.3854 4.51635,5.69425 6.31752,5.98726zM492.11504,298.56438c-0.98107,-1.16943 -1.02928,-3.31101 -2.4502,-3.86869c-1.45131,-0.56962 -2.99492,0.91595 -4.53992,1.12518c-1.54817,0.20966 -3.27521,-0.54855 -4.68528,0.1241c-4.02372,1.91953 -6.19689,6.58818 -8.14956,10.81063c8.09148,-0.72953 16.15756,-2.07918 23.66383,-4.35281c-1.31736,-1.24476 -2.67563,-2.45193 -3.83884,-3.8384z" fill="url(#color-6)" stroke-width="0.5"/><path d="M543.97424,300.23945c-0.69978,-7.37873 4.89573,-13.94483 12.49809,-14.66577c7.60233,-0.72098 14.33251,4.67606 15.0323,12.05479c0.6998,7.37872 -4.8957,13.94487 -12.49806,14.66583c-7.6023,0.72097 -14.33252,-4.67611 -15.03225,-12.05491z" fill="url(#color-7)" stroke-width="0"/></g><path d="M523.29711,302.20175c-1.41456,-14.91582 9.89651,-28.18882 25.26432,-29.64616c15.36777,-1.45742 28.97255,9.45242 30.38711,24.36822c1.41464,14.91581 -9.89644,28.18891 -25.26425,29.64627c-15.36765,1.45743 -28.97257,-9.45257 -30.38703,-24.36842z" fill="url(#color-8)" stroke="none" stroke-width="0"/><path d="M461.05161,268.10124c26.9187,-2.65411 81.45855,5.88152 81.45855,5.88152l5.30853,52.34603c0,0 -51.75444,19.29431 -78.67314,21.94842c-8.54929,0.84295 -19.84625,1.90257 -31.34183,2.96143c2.16718,-0.52823 4.53652,-0.75653 6.34364,-1.3027c3.31471,-1.00181 8.12917,-4.91737 11.41055,-5.19642c3.20329,-0.27243 6.22773,1.60159 9.36038,2.32376c6.96649,1.01629 12.55585,-0.32906 18.87353,-2.58721c4.0992,-1.46517 11.19794,-1.31093 14.72799,-4.30161c5.22787,-4.42914 4.22898,-12.56981 -1.65331,-16.06287c-0.72367,-0.42973 -6.8417,0.24404 -8.18297,0.3715c-7.70145,0.73195 -16.1615,3.00466 -23.51916,0.11782c-6.25479,-2.98803 -13.02531,-5.04693 -19.99511,-2.57482c-2.72353,0.966 -4.54095,3.6688 -7.16311,4.88333c-8.47714,3.9265 -21.21194,-1.64503 -29.47426,3.8891c-3.82919,2.56484 -7.25352,7.34491 -10.893,10.80621c-0.95235,0.3642 -1.46413,0.9354 -1.72476,1.53086c-0.50375,0.49617 -1.94422,2.20775 -0.29337,4.23777c0.40635,0.49964 0.83197,0.81203 1.25156,0.99318l0.01328,0.03663c0.18059,2.07443 0.39316,4.29276 0.79721,6.4726c-7.02391,0.62848 -11.49006,1.02412 -11.49006,1.02412l-6.43147,-64.55615c3.65629,-0.14331 7.59646,-0.43635 10.23445,-2.18678c1.87784,-1.246 2.28129,-4.13915 4.22666,-5.27688c3.35239,-1.96057 10.90857,-0.05972 14.83617,-1.21225c7.28102,-2.13658 15.04961,-7.97522 21.93658,-11.60329c13.55698,-1.3366 25.59259,-2.5232 30.05658,-2.96333z" fill="url(#color-9)" stroke="#000000" stroke-width="0"/></g><g stroke="none"><path d="M-51.46544,301.87866c-3.82562,3.04435 -8.7158,0.16688 -8.7158,0.16688l-1.96633,-1.21953c-5.80324,-0.77733 -12.41249,-1.95664 -17.94097,-1.18564c-9.8223,1.36976 -16.3488,5.32027 -27.22784,4.96156c-11.22617,-0.37012 -23.30519,-2.62412 -34.52209,-3.90902c-4.37918,-0.50164 -11.39857,-1.09027 -15.36437,-2.59513c-3.58604,-1.36081 -5.96503,-4.4346 -10.0699,-5.40804c-4.67241,-1.10807 -9.63537,-1.01259 -14.44853,-1.56109c-10.23183,-1.1755 -18.43958,-0.13582 -28.44478,-0.48427c-13.1187,-0.45684 -24.3151,-3.56468 -35.73978,-8.28359l-3.49467,-1.61705c0,0 -5.32691,-2.47766 -2.13734,-5.8554c2.47896,-2.62521 6.24898,-1.71348 7.8058,-1.1769c13.2953,-1.70282 28.60458,-2.61309 42.38424,-2.61204c8.77859,0.00067 17.86866,2.76618 26.65243,3.01454c18.92283,0.53502 37.23918,2.53918 56.25386,4.70601c11.88191,1.35402 24.02536,2.29778 35.83634,4.09019c1.36238,0.20674 14.79238,2.77507 15.85032,3.21977c4.30573,1.80988 8.07313,5.05992 11.36025,7.87619c0.55477,0.31843 1.07059,0.71911 1.45691,1.22119l1.40766,0.72957c0,0 4.89014,2.87749 1.06453,5.92184zM-91.31698,290.2766c-9.35568,-1.06179 -18.7104,-2.13216 -28.06559,-3.19825c-18.51344,-2.10973 -36.32647,-4.00644 -54.73394,-4.59549c-8.57117,-0.27427 -17.68316,-3.07601 -26.17686,-3.0057c-7.88336,0.06528 -16.37339,0.33227 -24.6205,0.91604c4.45784,1.04376 9.09351,1.70153 14.16902,1.88221c10.40293,0.37042 19.2764,-0.61408 29.96465,0.59481c0.07185,0.00819 16.10673,1.8025 16.91888,2.01343c4.59864,1.1942 7.79017,4.27916 12.03911,6.03473c1.3648,0.56389 10.17249,1.43084 10.92482,1.5161c10.86555,1.23136 22.28313,3.27778 33.16544,3.80437c9.1259,0.44158 15.60465,-3.73268 24.05636,-4.81011c0.64621,-0.08238 1.29285,-0.14876 1.93987,-0.20072c-3.47461,-0.41324 -6.99518,-0.658 -9.5813,-0.95148z" fill="url(#color-10)" stroke-width="0.5"/><path d="M-60.01163,290.76924c-0.35275,3.09546 -3.4482,2.74271 -3.4482,2.74271l-2.47639,-0.2822c-6.47141,-0.73746 -14.97967,-3.24693 -21.21703,-1.40224c-0.61238,0.18336 -1.22328,0.36166 -1.83292,0.53482c6.35605,1.0223 12.74558,1.67804 19.26999,1.12469c0,0 3.10454,-0.26118 3.36571,2.84334c0.26118,3.10454 -2.84334,3.36571 -2.84334,3.36571c-9.80452,0.81856 -19.30668,-0.82348 -28.84698,-2.61454c-2.64395,-0.49635 -5.27012,-0.90432 -7.88233,-1.26738c-4.80558,0.56522 -9.67763,0.76987 -14.73944,0.58009c-6.18627,-0.23189 -12.3242,-1.92652 -18.50933,-2.11388c-11.99197,-0.36326 -23.73971,4.99176 -35.71857,5.95613c-12.30775,-1.12992 -23.32352,-2.71713 -35.16914,-5.89435c-6.63674,-1.78008 -10.83585,-6.26816 -16.55641,-9.58791c-4.08065,-2.36808 -12.99837,-2.26174 -17.51494,-1.85774c0,0 -0.70687,0.05948 -1.47435,-0.21561c-0.94012,-0.03896 -1.89102,-0.11006 -2.85413,-0.21671l-0.61909,-0.07056c0,0 -3.09546,-0.35275 -2.74271,-3.4482c0.35275,-3.09546 3.4482,-2.74271 3.4482,-2.74271l0.61909,0.07056c11.54375,1.35892 21.44464,-3.19026 32.23539,-6.16938c12.88387,-2.72297 25.03486,-4.63886 38.04933,-0.83195c13.43723,3.93058 23.9373,12.71581 38.30519,14.37402c9.89634,3.15237 19.74359,4.17045 29.77175,5.44373c6.60055,-0.21885 13.2895,-1.07835 20.52156,-3.25189c7.42155,-1.91866 16.03919,0.33483 23.63989,1.20096l2.47639,0.2822c0,0 3.09546,0.35275 2.74271,3.4482zM-223.78438,279.20384c5.25626,2.83919 9.18222,7.56564 15.18146,9.08c11.49946,2.90283 21.84519,4.54945 33.74603,5.7218c9.34412,-0.8264 18.47224,-4.17123 27.75631,-5.46102c-7.27232,-1.77641 -14.02035,-4.8652 -21.07907,-7.69834c-3.74181,-1.50185 -7.1117,-4.5018 -10.97751,-5.57633c-12.08594,-3.35936 -22.94977,-1.63466 -34.8943,0.88981c-3.39328,0.9179 -6.68223,1.95577 -9.9483,2.9305c0.0726,0.03739 0.14439,0.07522 0.21541,0.11359z" fill="url(#color-11)" stroke-width="0.5"/><path d="M-233.40489,277.93759c-0.83765,7.36438 -7.6677,12.63464 -15.25515,11.77158c-7.58754,-0.86305 -13.05923,-7.53272 -12.2215,-14.89708c0.8377,-7.36434 7.66768,-12.63454 15.25519,-11.77145c7.58754,0.86305 13.05924,7.53268 12.22153,14.89703z" fill="url(#color-12)" stroke-width="0"/></g><g stroke="none"><path d="M126.673,318.76055c-2.77125,1.42357 -4.19481,-1.34771 -4.19481,-1.34771l-0.39477,-1.15722c-5.34685,-5.15264 -19.33721,-5.89407 -26.2927,-4.35552c-11.4043,0.87578 -23.09095,3.79002 -34.59545,4.87851c-5.22399,0.49425 -12.13659,-1.319 -17.34511,-1.91255c-10.73096,-1.22285 -21.46189,-2.44572 -32.19285,-3.66858c-22.37009,-2.54922 -44.48487,-8.22396 -67.03805,-7.05497c0,0 -3.11133,0.16093 -3.27228,-2.95039c-0.16093,-3.11133 2.95039,-3.27228 2.95039,-3.27228c22.92461,-1.18336 45.33727,4.49668 68.06544,7.08669c10.73096,1.22285 21.46189,2.44572 32.19285,3.66858c4.69948,0.53553 11.35793,2.38048 16.08593,1.89713c11.39646,-1.16505 22.94638,-3.81434 34.24201,-4.83674c9.08668,-1.84411 24.53877,-0.46602 31.47881,5.99068l1.65831,2.83953c0,0 1.42357,2.77125 -1.34771,4.19481z" fill="url(#color-13)" stroke-width="0.5"/><path d="M15.6612,331.09481c0.35275,-3.09546 3.4482,-2.74271 3.4482,-2.74271l0.61909,0.07056c10.78241,1.22871 24.91762,5.7796 34.72122,0.03508c9.03036,-3.28645 19.05988,-11.399 28.78344,-12.18286c12.48089,-1.00612 27.10775,3.03249 39.59465,4.45547c0,0 3.09546,0.35275 2.74271,3.4482c-0.35275,3.09546 -3.4482,2.74271 -3.4482,2.74271c-12.30303,-1.402 -26.08936,-4.97795 -38.41113,-4.43379c-2.18041,0.09629 -2.91151,1.29966 -4.83625,2.17282c-7.09578,3.21902 -14.5014,6.77044 -21.77051,9.43464c-11.04074,6.46948 -25.97059,1.89875 -38.08132,0.51863l-0.61909,-0.07056c0,0 -3.09546,-0.35275 -2.74271,-3.4482z" fill="url(#color-14)" stroke-width="0.5"/><path d="M121.00475,319.97881c0.00968,4.90716 -5.66132,4.75149 -5.66132,4.75149l-5.77971,-0.15912c-17.29543,-0.8992 -34.03656,-3.36156 -51.19812,-5.33767c-11.67565,-2.92383 -23.33071,-5.93809 -34.9523,-9.15436c-13.17703,3.44258 -24.08519,7.82517 -38.85393,6.1765c-14.60374,-2.82293 -32.01955,-4.27588 -44.17708,-12.14149l-2.58847,-3.54151c-0.64869,-0.58567 -1.18786,-1.40588 -1.48649,-2.54987c-0.23306,-0.89274 -0.23335,-1.65204 -0.07904,-2.29667c0.06934,-0.28994 0.17622,-0.58242 0.3309,-0.87093c0.15467,-0.28851 0.34288,-0.54652 0.55254,-0.77693c0.46605,-0.51242 1.12948,-0.99017 2.05607,-1.39105c0.89509,-0.38723 1.71543,-0.56421 2.45918,-0.59374c9.22371,-1.64329 17.09943,-4.72215 26.91989,-4.73828c13.20703,-0.02168 26.91154,4.28927 39.28043,7.99846c5.21393,1.56354 10.4358,3.07531 15.66445,4.54412c3.21126,-0.84691 6.47582,-1.57559 9.84009,-2.03979c14.23318,-1.96387 28.32297,0.07052 42.577,1.69485c6.33284,0.72167 14.44666,0.78926 20.49781,2.97881c7.56371,2.73685 12.29591,7.43647 17.91744,12.3403c0,0 0.0067,0.00583 0.01927,0.01728l0.98081,0.02684c0,0 5.67101,0.15564 5.68067,5.0628zM4.39526,304.60807c-11.09708,-3.32521 -23.69351,-7.50502 -35.57024,-7.434c-5.65536,0.03383 -10.63992,1.21037 -15.6814,2.47211c9.83264,4.03889 23.14136,5.01433 33.03541,6.94325c6.83508,0.79871 13.18959,-0.10976 19.41285,-1.62377c-0.39893,-0.1189 -0.79781,-0.2381 -1.19665,-0.35758zM60.3324,309.62538c12.3138,1.38793 24.4041,3.07433 36.65575,4.20382c-1.36325,-0.86167 -2.82098,-1.60758 -4.41944,-2.1737c-5.10509,-1.80798 -12.52167,-1.77009 -17.76923,-2.36808c-8.31265,-0.94727 -16.43701,-1.96111 -24.52444,-2.21162c3.35061,0.86052 6.7032,1.7096 10.05741,2.54957z" fill="url(#color-15)" stroke-width="0.5"/><path d="M-47.67693,299.10245c-0.83765,7.36438 -7.6677,12.63464 -15.25515,11.77158c-7.58754,-0.86305 -13.05923,-7.53272 -12.2215,-14.89708c0.8377,-7.36434 7.66768,-12.63454 15.25519,-11.77145c7.58754,0.86305 13.05924,7.53268 12.22153,14.89703z" fill="url(#color-16)" stroke-width="0"/></g><path d="M128.07637,393.57764c0.37321,0.42563 1.8688,2.37303 -0.07862,4.32048c-2.20297,2.20297 -4.40598,0 -4.40598,0l-1.7433,-3.03377c0,-2.45422 0.03275,-4.90847 0.08333,-7.3622c2.89268,-5.99506 10.42563,-20.87131 6.13663,-27.65801c-3.01517,-4.77107 -7.64537,-8.98069 -7.02744,-15.20847c0.37291,-3.75868 9.80319,-16.00345 3.36048,-17.60278c0,0 -2.78657,-1.39328 -1.39331,-4.17988c1.39328,-2.78657 4.17988,-1.39331 4.17988,-1.39331c4.89322,3.0024 7.26136,9.52822 4.80827,15.61002c-1.06653,2.64412 -6.67095,6.33531 -4.90753,10.28455c1.49476,3.34757 4.73293,6.29144 6.4019,9.41984c4.91109,9.20563 -1.20197,23.92028 -5.49454,32.15961c0.04946,1.54741 0.07256,3.09567 0.08024,4.64391z" fill="url(#color-17)" stroke="none" stroke-width="0.5"/><g stroke="none"><g><path d="M250.41483,258.19766h1.6616c7.53715,0 10.90978,0.5992 13.06175,8.55043c0.03343,5.30856 0.32504,11.1914 1.60161,16.28085c0.82491,3.28877 3.43293,6.64316 4.15401,9.96961c0.00748,0.03459 0.01493,0.06936 0.02226,0.10431c0.00394,-0.00033 0.00786,-0.00065 0.01182,-0.00099c4.34844,-0.36238 10.17988,-2.02225 14.53497,-0.68155c5.48884,1.68974 8.86156,8.86951 14.12361,10.80038c1.90312,0.69835 4.07519,0.2026 6.04185,0.69425c9.98271,-0.07917 24.73353,-2.73407 33.93226,1.00097c1.59544,0.64781 3.38008,1.19676 4.53492,2.47407c1.12368,1.24284 2.38749,8.35232 4.71521,9.20079c4.11263,1.49909 11.11307,-1.87159 15.42375,-1.89877c0,0 3.11549,0 3.11549,3.11549c0,2.46016 -1.94262,2.97762 -2.75993,3.0865c-0.7069,1.49202 -2.53797,1.67514 -2.53797,1.67514c-7.9023,0.78913 -16.25312,1.62832 -23.88871,3.93596c-11.02544,3.33214 -17.9624,14.79505 -28.60731,18.35122c-3.61906,1.20902 -10.48022,0.99069 -14.27801,0.99069c-2.73694,0 -6.5141,0.21377 -8.94727,-1.19945c-1.98699,-1.15409 -3.3077,-3.19049 -4.96154,-4.78574c-5.50956,-3.99921 -13.20658,-8.53081 -16.32068,-14.89977c-1.62794,-3.32949 -1.81395,-6.98611 -1.49465,-10.75521c-2.23559,-3.34002 -4.19761,-6.84484 -5.88055,-9.81874c-0.82526,-1.45831 -1.35558,-2.90593 -1.76984,-4.28032c-0.87127,0.01672 -1.74378,0.02879 -2.61798,0.03629c-0.16993,0.14667 -0.34205,0.29166 -0.51624,0.43498c-0.04636,0.15579 -0.09488,0.31089 -0.14565,0.46518c-0.17658,0.53652 -1.37923,0.8863 -1.03991,1.33787c0.50265,0.66895 1.82969,-0.01945 2.45137,0.54062c4.91366,4.42667 5.47634,9.89872 4.44992,16.14775c-1.07195,6.52643 -4.64193,8.48137 -6.85346,14.05292c-2.7525,6.93441 -2.25524,13.93038 -2.25524,21.23936c0,2.76933 0,5.53867 0,8.30799v2.49241c0,0 0,3.11549 -3.11549,3.11549c-3.11549,0 -3.11549,-3.11549 -3.11549,-3.11549c0,-2.76933 0,-8.03105 0,-10.80038c0,-6.62714 -0.25304,-12.96582 1.31808,-19.25656c-2.99171,2.49001 -6.71329,4.45959 -9.48158,6.67934c-4.369,3.50328 -5.14527,7.78798 -11.39421,8.99009c-9.32101,1.79312 -23.18943,-0.35175 -32.28732,-2.58732c-8.57452,-3.70583 -10.46422,-15.85884 -19.13505,-19.11717c-1.88572,-0.70861 -4.04739,0.41958 -6.04185,0.13654c-4.69426,-0.66618 -6.85245,-3.89877 -11.25923,-5.07671c-8.44144,-2.25642 -18.74453,-0.71557 -27.40771,-0.71557c0,0 -0.5883,0 -1.25361,-0.25565c-0.02724,0.01096 -0.05449,0.02192 -0.0817,0.03282c0,0 -2.89268,1.15707 -4.04973,-1.73561c-1.15707,-2.89268 1.73561,-4.04973 1.73561,-4.04973c7.41305,-2.95992 15.22036,-7.72191 23.28169,-8.51566c16.82462,-1.65669 34.28581,0.91896 50.98583,0.81564c7.29319,0 14.85798,0.59294 22.12462,0.01515c2.39197,-0.19021 4.31845,-2.09557 6.51255,-3.06701c3.70292,-1.63947 7.71571,-3.18011 11.62013,-4.9717c-0.5911,-0.84721 -1.19052,-1.67398 -1.78518,-2.47786c-2.65106,-2.12945 -6.75925,-2.58069 -8.65072,-5.40648c-2.36299,-3.53021 -0.64897,-6.45201 1.39238,-9.05572c-2.92612,-2.02467 -5.32587,-4.43043 -6.56755,-7.05054c-2.16291,-4.56416 -4.79648,-15.24977 -1.3673,-19.9327c1.64989,-2.25312 5.8461,-2.9804 8.36668,-3.6238l1.58639,-0.093c0,0 3.11549,0 3.11549,3.11549c0,3.11549 -3.11549,3.11549 -3.11549,3.11549l-0.07516,-0.093c-1.65515,0.4032 -3.98089,-0.05626 -4.92612,1.361c-1.7535,2.62921 1.04416,11.02251 1.9559,13.29932c0.50775,1.26799 1.54576,2.50004 2.90385,3.64041c0.20084,-3.28188 0.86637,-6.26538 1.9599,-8.43067c2.13065,-1.44521 3.77243,-2.46367 5.35878,-3.26027c0.48762,-1.21411 0.98862,-2.41853 1.51819,-3.59636c-0.41947,-0.30026 -0.85909,-0.62793 -1.32122,-0.98937l-1.2578,-4.29092c0,0 -0.75563,-3.02248 2.26688,-3.77811c3.02248,-0.75563 3.77811,2.26688 3.77811,2.26688l0.05906,0.3446c1.87117,-2.71057 4.15933,-4.99514 7.15636,-6.52957l1.6616,-0.83079c0,0 2.78657,-1.39331 4.17988,1.39331c1.39331,2.78657 -1.39331,4.17988 -1.39331,4.17988l-1.6616,0.83079c-1.57566,0.76336 -2.69814,1.57309 -3.53389,2.45328c0.28774,-0.04737 0.47899,-0.04737 0.47899,-0.04737zM270.9538,309.88023c-0.10958,1.00798 -0.32018,2.11347 -0.53083,3.26246c1.60615,2.1534 3.34793,4.10741 5.22946,5.57874c8.8066,6.88659 22.41563,4.27866 32.91841,4.27866c0,0 3.11549,0 3.11549,3.11549c0,3.11549 -3.11549,3.11549 -3.11549,3.11549c-12.46747,0 -26.40071,2.41772 -36.86882,-5.69094c-0.19505,-0.1511 -0.3888,-0.30654 -0.58132,-0.46615c3.06916,5.02167 9.81527,8.76746 14.29977,12.05373c16.20229,16.94207 35.56999,-9.85703 50.77582,-14.53486c2.18676,-0.67273 4.43029,-1.22979 6.70561,-1.70119c-1.72941,-3.14629 -2.16604,-7.06752 -5.50314,-8.1317c-9.36479,-2.98637 -22.62369,-0.59819 -32.53176,-0.66065c-2.3656,-0.59139 -4.97165,-0.10095 -7.25095,-0.96732c-5.20352,-1.97786 -8.99975,-9.32746 -14.12361,-10.80038c-3.26054,-0.93731 -8.82578,0.69986 -12.00446,0.97614c0.06067,3.69995 -0.21947,7.67743 -0.53421,10.57251zM260.67549,284.46057c-1.31867,-5.28874 -1.76512,-11.46291 -1.72161,-16.95114c-0.91278,-4.40182 -2.82554,-3.08076 -6.87744,-3.08076h-0.01984c1.18272,1.22719 2.3092,2.84987 3.58169,5.35492c2.48769,4.33989 4.08319,12.489 3.20903,19.39989c0.7836,1.41055 1.28255,2.96523 1.71168,4.54867c1.34259,-0.05204 2.68396,-0.11515 4.02596,-0.18988c-0.95964,-3.01508 -3.15843,-6.06939 -3.90949,-9.0817zM262.3912,299.89698c0.20797,0.48914 0.44005,0.96431 0.70434,1.42121c0.56681,0.97992 1.16561,2.0362 1.79691,3.13356c0.20844,-1.58604 0.3659,-3.15981 0.40457,-4.70573c-0.96862,0.05615 -1.93705,0.10646 -2.90582,0.15094zM239.1839,279.91705c-0.35573,0.8809 -0.77979,1.73223 -1.25166,2.55942c3.36413,1.44247 6.84554,2.32517 9.15941,2.30681c0.22156,0.00115 0.45868,-0.00085 0.70841,-0.00421c-0.04482,-4.9303 -0.54203,-9.87829 -1.9815,-14.11139c-0.46096,0.1217 -0.8978,0.24184 -1.31853,0.36554c-1.72125,2.99472 -3.95396,5.51066 -5.3161,8.88384zM164.51974,322.47168c2.96225,1.58705 6.60526,-0.43943 9.61587,0.68829c8.98795,3.36676 11.07444,16.33142 19.08175,19.09965c8.39718,2.15034 20.49353,3.52132 29.19192,2.39749c4.20622,-0.54344 5.54104,-5.17997 8.54501,-7.62589c3.28866,-2.67775 9.5198,-5.37718 11.8256,-9.23034c4.27053,-7.1364 2.4488,-14.3105 -1.05967,-20.72355c-4.28511,1.94346 -8.68724,3.58043 -12.46526,5.26642c-2.79114,1.24559 -5.40546,3.23007 -8.44186,3.57938c-7.36358,0.84719 -15.32228,0.01515 -22.73861,0.01515c-16.54998,-0.08519 -33.69151,-2.20494 -50.37182,-0.84596c-2.67421,0.21786 -5.36533,0.9913 -8.03242,2.01757c8.57737,0.08962 16.57389,0.92808 24.84956,5.36182zM252.31425,318.20626c0.35548,-2.53412 1.0295,-5.27402 0.14551,-7.67543c-0.55859,-1.51748 -2.20883,-2.2562 -3.74547,-3.08533c1.99384,4.54972 3.11584,9.34233 2.59666,14.21026c0.46358,-1.02273 0.82052,-2.14642 1.00328,-3.44951zM247.09164,291.01429c-2.16782,-0.01368 -4.76232,-0.47867 -7.45126,-1.30733c0.18979,0.50486 0.37422,0.9919 0.54731,1.457c0.48449,1.3018 0.39724,3.09119 1.54819,3.86882c0.76818,0.519 1.63614,-0.98314 2.55638,-1.09554c1.05447,-0.12878 2.11664,-0.13502 3.1808,-0.10786c0.06558,-0.91986 0.12537,-1.85859 0.17552,-2.81035c-0.18074,-0.00432 -0.36636,-0.00595 -0.55692,-0.00475z" fill="url(#color-18)" stroke-width="0.5"/><path d="M121.01767,325.90791c0,-3.11549 3.11549,-3.11549 3.11549,-3.11549c2.21546,0 5.26174,0 7.47721,0c24.03433,0.25297 43.01531,15.78885 61.63929,28.83527c9.17786,6.42926 15.14364,14.67382 26.98721,16.90979c16.90383,2.81731 37.17279,9.42814 54.60289,5.8048c10.71345,-2.22709 20.70346,-5.52613 30.57029,-10.45619c14.22635,-8.44235 13.35903,-30.40424 28.21143,-39.02765c4.66961,-2.71121 10.34339,-1.54669 15.35161,-2.05084c4.33933,-0.43679 8.34726,-1.66365 12.76899,-1.67677c0,0 3.11549,0 3.11549,3.11549c0,0.86738 -0.2415,1.49328 -0.59,1.94494c0.54723,-0.04681 1.09084,-0.07223 1.62852,-0.07565c0,0 3.11549,0 3.11549,3.11549c0,3.11549 -3.11549,3.11549 -3.11549,3.11549c-2.42185,-0.01923 -3.29871,-0.2733 -5.56547,0.63728c-1.46437,0.58824 -2.94347,1.20406 -4.24403,2.09786c-13.03632,8.95868 4.69048,23.04766 7.0261,32.48119c1.94179,7.84297 -2.49915,15.00217 -5.90088,21.66609c-1.27588,6.62711 -2.20212,13.50616 -1.50814,20.28272c0.70792,6.91279 3.95739,11.78441 3.31976,19.33998c-1.03973,12.32021 -9.18366,21.51319 -9.1202,34.13824l0.5019,0.2683c0,0 1.39328,2.7866 -1.39331,4.17988c-2.7866,1.39328 -4.17988,-1.39331 -4.17988,-1.39331l-1.15969,-3.05488c0.01901,-4.55045 0.60226,-10.45278 1.74493,-14.8394c1.80329,-6.92275 6.78887,-12.37521 7.41248,-19.97875c0.57863,-7.05523 -2.54698,-11.42446 -3.32663,-18.04606c-0.89769,-7.62421 0.28377,-15.48598 1.81505,-22.91889c2.67051,-5.43143 7.34963,-11.82948 5.73032,-18.21233c-1.88808,-7.4423 -9.30366,-13.25179 -11.6015,-20.65417c-3.04937,-9.82338 4.04595,-17.54076 12.45522,-20.68815c-2.77226,0.39144 -5.45612,1.0718 -8.31497,1.35604c-3.96862,0.39458 -9.16526,-0.79907 -12.89561,1.27237c-1.92943,1.0714 -2.71159,3.48604 -4.1662,5.14575c-9.49155,10.83014 -11.28627,26.15457 -24.11681,33.92178c-10.43432,5.22034 -21.17603,8.94122 -32.57056,11.14464c-18.35235,3.54882 -38.92574,-2.85998 -56.72434,-5.82641c-12.85882,-2.68325 -19.4668,-10.96153 -29.50721,-17.98382c-2.87582,-2.01135 -6.4561,-2.91259 -9.23445,-5.05659c-14.51773,-11.20307 -29.22392,-22.88088 -48.76147,-22.60254c-2.21546,0 -4.43093,0 -6.64639,0h-0.83079c0,0 -3.11549,0 -3.11549,-3.11549z" fill="url(#color-19)" stroke-width="0.5"/><path d="M262.22895,354.29761c-0.98256,-3.11519 -2.79345,-5.89495 -4.58104,-8.58282c-2.32722,-3.49933 -4.90877,-6.34313 -7.49722,-9.21751c-0.98056,0.33232 -1.97429,0.68027 -2.95663,1.05375c0.00573,0.24178 0.0098,0.41999 0.01002,0.51549c0.01767,8.04803 -0.30139,15.68863 2.72395,23.32934c1.61493,4.0786 4.99004,7.24418 6.4287,11.3955c1.16134,3.35108 1.98681,6.89698 2.29639,10.46701c4.39275,-8.77911 7.17301,-17.55595 3.5759,-28.96071zM236.88437,319.18969c0,-5.55198 5.26494,-5.55198 5.26494,-5.55198c2.58308,0.21896 5.5355,-0.76365 7.74922,0.65692c0.64212,0.41206 1.23654,0.88177 1.79422,1.39608c0.91495,-0.46282 1.86345,-0.93885 2.84378,-1.46692c0,0 4.7091,-2.48291 7.06362,2.48291c0.33786,0.71254 0.53026,1.37399 0.61204,1.98429c0.64065,-0.53772 1.28046,-1.07653 1.91976,-1.61594l-0.36713,-0.36834c0,0 2.35452,-4.96584 7.06362,-2.48291c4.7091,2.48291 2.35452,7.44875 2.35452,7.44875l-2.4731,4.07325c-2.21791,1.8707 -4.4547,3.71733 -6.71466,5.53159c10.40836,12.46558 18.59065,29.94768 12.54833,46.54453c-3.99214,10.96553 -11.66291,20.46628 -15.80417,31.40134c4.787,5.19646 9.47615,10.5247 11.72053,17.17644c1.74604,5.17479 0.22348,14.40002 0.20029,19.92231c-1.80058,9.61799 -4.79194,20.51191 -8.98771,30.353c0.45745,1.32699 0.91119,2.64223 1.35744,3.94122c1.75435,5.10667 4.11335,10.51858 3.39303,15.89664c-1.39295,10.40044 -9.94519,16.27131 -11.62695,25.81899c-1.38548,7.86556 2.25483,17.44696 -0.17516,25.1345c-0.73101,2.31266 -2.62784,4.01141 -3.94176,6.01709l1.053,-1.11039c0,0 0,1.32798 -0.6159,2.685c0.52148,0.91837 0.80249,2.14598 0.54426,3.77973c-0.86554,5.47645 -6.05882,4.56371 -6.05882,4.56371c-2.62049,-0.55007 -5.54978,-0.23736 -7.86151,-1.65022c-11.53814,-7.05167 -12.95104,-26.42644 -11.24023,-38.92691c1.1894,-8.69058 4.89755,-15.11852 7.56839,-23.17635c0.76625,-2.31169 0.40073,-5.13122 1.77735,-7.10343c1.62714,-2.33106 4.41898,-3.48574 6.74113,-5.10312c0.36265,-13.06919 -0.56185,-26.10905 -0.17396,-39.10097c-1.14273,-7.78784 -1.21056,-15.58554 -1.21056,-23.66309c0.01689,-5.66565 0.49201,-11.61715 1.73841,-17.31616c-1.0794,-1.30594 -2.0735,-2.63135 -2.93386,-3.99169c-7.25654,-11.47398 -10.30869,-25.42361 -12.42173,-38.85123c-1.39669,-8.87564 -2.43391,-19.75912 3.12039,-27.60831c1.91677,-2.70871 4.53431,-4.72269 7.44998,-6.34321c0.17365,-2.10724 0.55895,-4.15774 1.38816,-5.87752c-1.3839,-0.19545 -4.6593,-1.12057 -4.6593,-5.49961zM253.43572,430.11996c-1.09626,5.784 -1.64194,11.59293 -1.88319,17.41859c0.4122,2.54147 0.96705,5.08237 1.7141,7.63226c0.51708,1.76499 1.06359,3.55105 1.6305,5.34761c1.65061,-5.17526 2.96745,-10.3794 3.91544,-15.29046c-0.0217,-4.23888 1.5653,-11.79444 0.20029,-15.6104c-1.00549,-2.81093 -2.60038,-5.40931 -4.49863,-7.88613c-0.36281,2.85353 -0.65496,5.71084 -1.07846,8.38857zM251.40588,494.97747c-0.25476,3.78199 -0.6852,7.60121 -1.11226,11.4323c3.22942,-5.12367 5.9621,-10.39244 4.42224,-16.05367c-0.1588,-0.58387 -0.32515,-1.16663 -0.49823,-1.74837c-0.54978,0.89315 -1.11289,1.7636 -1.6894,2.60871c-0.30939,0.45355 -0.63635,0.89432 -0.97831,1.32274c-0.04149,0.81288 -0.0893,1.62564 -0.14403,2.43832zM239.654,376.60461c1.77002,7.00502 3.02646,12.30716 6.3239,18.22205c1.20014,-2.49349 2.3375,-5.03353 2.28119,-7.74871c-0.18494,-8.91355 -4.95652,-13.57026 -7.9909,-21.26256c-2.6849,-6.80636 -3.37479,-13.55036 -3.544,-20.53417c-4.2938,8.64788 0.93535,23.43009 2.92981,31.32345zM235.58179,524.18118c-1.08129,8.0849 -1.23884,20.44505 4.71057,25.77081l0.59381,-3.13086c0.37237,-0.44912 0.69658,-0.92167 0.97798,-1.41504c-3.79843,-11.00563 -3.53594,-22.1218 -2.57317,-33.36305c-1.60101,3.83917 -3.11253,7.67655 -3.70925,12.13809z" fill="url(#color-20)" stroke-width="0.5"/><path d="M373.00826,313.71627c6.16837,0.88119 5.28718,7.04958 5.28718,7.04958c-0.71436,3.72149 -0.08731,7.98112 -2.14311,11.1644c-2.86804,4.44095 -12.57753,8.36069 -17.28572,10.89492c-10.97426,5.90707 -26.76197,9.13015 -33.77955,20.21372c-6.25134,9.87334 1.1034,22.37932 2.14647,32.25002c1.52363,14.41825 -2.63556,27.17169 -7.89252,40.31415c-6.68172,16.57145 -20.08708,26.98485 -29.14754,42.08631c-4.15804,6.93039 -4.39322,12.49507 -6.85203,19.83647c-3.75036,11.19765 -9.21125,24.38044 -16.48405,35.44673c-1.50953,5.08079 -3.73424,9.74725 -6.22051,15.09607c-0.56846,1.22289 -3.34297,7.88764 -5.57525,12.97199c0.77135,1.55446 1.31902,3.18135 1.53603,4.91391c-9.74421,-0.43371 -18.13724,-4.86961 -27.11919,-5.42187c-0.64867,-1.39123 -1.2251,-2.99622 -1.74391,-4.93071c-0.62565,-2.33281 0.64287,-4.90182 0.05941,-7.24555c-1.12456,-4.51728 -4.91463,-7.92201 -7.71124,-11.6435c-6.81799,-9.07264 -13.29811,-18.23769 -19.97438,-27.464c-3.50459,-4.84315 -6.2411,-7.32228 -7.32165,-13.71788c-1.65335,-9.78601 3.01489,-15.1937 3.6565,-24.22393c0.5356,-7.53844 -0.05783,-15.49078 -0.03032,-23.06385c0.01055,-2.90391 0.82925,-11.92267 -1.44875,-15.24096c-2.65439,-3.86653 -7.11795,-6.20876 -9.95303,-9.94483c-5.47576,-9.19913 -13.134,-22.89585 -12.25085,-33.94524c0.62113,-7.77135 7.57721,-11.40042 7.45441,-18.30631c-0.1775,-9.9852 -9.26703,-24.55651 -15.86108,-31.81134c-0.99618,-1.096 -7.50953,-8.46396 -10.72857,-9.36651c-6.32586,-1.77362 -17.15141,0.31275 -23.48257,1.38753c0,0 -6.14622,1.02437 -7.17059,-5.12186c-1.02437,-6.14622 5.12186,-7.17059 5.12186,-7.17059c0.8906,-0.14602 1.84703,-0.30428 2.85434,-0.46669c1.03702,-0.56413 1.93283,-0.74332 1.93283,-0.74332c9.74857,-1.90565 18.27424,-1.06387 28.00618,-0.09067c18.85282,1.88529 36.30392,3.9196 54.65158,8.92355c7.45305,2.03266 9.04175,-0.01753 16.55128,4.43876c3.14387,1.86564 5.80516,4.18176 8.04762,6.81495c7.14997,-11.58374 15.39364,-21.98867 29.44807,-26.2298c6.46123,-1.94978 17.20939,-0.20873 24.0309,-0.20873c18.25429,0 37.59409,1.53649 56.22417,4.24006c2.06949,-2.84932 4.32351,-5.61829 7.33208,-7.97869l5.93681,-3.0808c0,0 5.57318,-2.78657 8.35975,2.78657c1.497,2.99396 0.58137,5.18378 -0.58671,6.56934c0.62748,-0.09159 1.33294,-0.09479 2.12571,0.01847zM186.92052,353.02602c3.01019,5.57839 5.81067,11.78723 5.75126,18.12572c-0.08221,8.76872 -6.94454,11.30323 -7.49999,19.07969c-0.563,7.88213 6.21586,19.33286 10.18078,25.8724c2.79519,3.79025 7.54397,5.96763 9.98616,9.99438c6.69869,11.04492 4.54768,33.68939 3.50572,46.43685c-0.59542,7.2844 -5.03424,13.1797 -3.8207,20.6393c1.3423,8.25107 10.79668,15.94479 15.25283,22.62551c2.07144,3.10552 4.6817,6.30062 7.33664,9.5885c0.93916,-7.68444 3.0819,-15.64559 5.45001,-22.90379c-0.42194,-0.57355 -0.80613,-1.13593 -1.1376,-1.68532c-5.21426,-13.96532 -9.83884,-32.8267 -1.1426,-46.78176c0.05084,-0.99837 0.11844,-1.99959 0.19928,-2.99906c-0.61284,-0.47161 -1.21234,-0.89696 -1.78793,-1.2652c-2.78673,-1.78283 -6.44936,-2.34742 -8.70428,-4.76814c-3.38856,-3.63772 -4.93493,-12.7356 -5.36311,-17.41334c-0.41856,-4.57296 0.11328,-12.23638 1.60873,-16.37501c4.4033,-12.18633 17.08765,-18.10953 21.02776,-30.66538c0.45945,-1.46415 0.64166,-3.16972 0.66698,-4.98961c-0.20846,-0.42177 -0.39743,-0.85173 -0.5558,-1.29453c-2.48776,-6.95496 -3.19011,-13.85708 -2.50148,-20.72403c-1.97755,-4.88437 -5.1458,-9.27441 -9.83502,-12.13756c-3.0766,-1.87849 -10.38179,-2.22691 -13.35755,-3.03847c-12.7135,-3.4673 -24.93799,-5.41931 -37.56326,-6.91819c4.93685,6.79709 8.6348,14.79892 12.30318,21.59704zM271.49026,493.67199c2.68441,-8.09665 3.49027,-14.84784 8.10238,-22.53434c3.86474,-6.441 9.77693,-15.09962 14.33736,-20.78705c1.37892,-1.71974 3.67735,-2.47636 5.25007,-4.02088c4.15782,-4.08336 6.50299,-10.08787 8.59027,-15.35497c4.54429,-11.36075 8.21569,-21.97607 7.06186,-34.4579c-0.3819,-4.13132 -2.9308,-7.81269 -3.6565,-11.89767c-1.49366,-8.40782 -1.053,-20.62266 3.31055,-28.13199c1.49711,-2.5764 3.31425,-4.80217 5.36511,-6.7642c-5.0962,2.94455 -9.87345,6.6467 -13.55584,10.97775c-1.83993,2.16404 0.77023,5.63126 1.00303,8.46221c0.06094,0.74097 -2.37534,13.882 -2.80358,15.05388c-4.07484,11.15122 -12.06125,22.43969 -18.16973,32.60964c-9.93371,13.27621 -19.85297,26.33198 -21.39262,43.14653c-1.30183,14.21734 1.68053,28.31894 3.21425,42.49777c1.26267,-2.96562 2.39242,-5.93042 3.3434,-8.79878zM297.05043,326.96508c-5.2482,1.87797 -10.10872,5.02834 -14.23287,8.77823c-3.23492,2.94132 -7.94042,4.6305 -10.00107,8.48663c-10.42303,19.50468 4.24348,41.81917 0.74825,61.57464c-1.25222,7.07786 -5.24442,11.53594 -9.93783,15.32741c0.6029,1.87498 1.07433,3.77098 1.26847,5.68066c3.32341,-5.75503 6.77399,-11.20307 11.08819,-16.93983c5.52905,-9.22658 13.07024,-19.58732 16.72385,-29.70036c3.65794,-10.12502 -2.96173,-16.59693 3.18424,-26.33194c5.70815,-9.04148 18.21671,-15.96835 27.87903,-19.8285c3.80718,-1.52099 8.20423,-1.48674 11.80805,-3.4414c1.55395,-0.84285 2.92726,-1.79478 4.16876,-2.82767c-13.00941,-1.9262 -25.93561,-3.55081 -39.08459,-3.99789c-1.11368,2.28294 -3.61251,3.21998 -3.61251,3.21998zM261.32767,403.44793c1.37432,-9.19014 -2.92583,-19.06219 -3.8207,-28.11651c-1.11464,-11.27771 -1.06702,-27.21458 4.56897,-37.4213c3.18851,-5.77436 9.37917,-11.01948 15.96663,-15.18802c-1.97608,0.03524 -3.79044,0.22783 -5.2584,0.69239c-11.58503,3.66646 -17.51556,13.14308 -23.35475,22.75161c-0.73515,2.15524 -1.1979,4.17112 -1.44237,6.09178c0.86301,2.70217 1.51517,5.4722 1.9912,8.23745c0.00781,2.48776 0.2317,5.31828 0.42847,8.23425c0.96126,2.86283 2.05556,5.83723 3.04794,9.11484c3.05103,10.077 2.97141,20.64333 5.75178,30.85281c1.05416,-1.47577 1.81283,-3.18641 2.12131,-5.24923zM232.76396,436.66459c2.61045,-6.34992 6.83713,-12.1765 11.90669,-16.80633c1.40735,-1.28526 3.06,-2.3967 4.7699,-3.47695c-1.11893,-2.63059 -2.26666,-5.19806 -2.93998,-7.55082c-1.1977,-4.18508 -1.76124,-8.54695 -2.30418,-12.89448c-1.36445,2.21871 -2.84705,4.36734 -4.3675,6.4518c-1.33226,1.82645 -3.7517,2.566 -5.36267,4.15209c-5.51588,5.43071 -7.60171,12.42933 -6.91964,20.00408c0.30565,3.39429 -0.45265,7.76114 2.11411,10.00309c0.82077,0.71691 1.85142,1.08999 2.91356,1.41836c0.06394,-0.43914 0.12733,-0.87287 0.18972,-1.30078zM245.01461,539.21593c5.11626,-3.65577 7.82463,-8.75819 10.88488,-14.06845c0.15554,-0.90201 0.27755,-1.81678 0.36128,-2.74615c1.09173,-12.1146 -1.16429,-24.84981 -2.88311,-37.56216c-0.96537,1.15852 -2.16584,2.20588 -2.7822,3.5614c-1.13035,2.48583 -1.43713,5.26903 -2.15566,7.90353c-0.53308,1.40832 -1.08453,2.88878 -1.63945,4.4262c5.28641,7.09134 10.86373,13.35828 7.95782,23.94825c-1.35613,4.94208 -6.62384,7.83105 -9.67346,11.94966c-0.6972,0.94156 -1.0678,2.11805 -1.25495,3.37363zM244.80324,439.88277c-0.06574,0.4729 -0.1344,0.95843 -0.20481,1.45499c3.82094,-3.12446 7.01697,-6.58802 7.8293,-11.70612c-3.21467,2.7696 -5.9944,5.95843 -7.62449,10.25112zM249.42147,452.15093c1.01355,1.33593 1.92267,2.67004 2.68095,3.9586c0.26177,-2.378 0.65417,-4.73683 1.20525,-7.07184c-1.27666,1.02364 -2.58539,2.04262 -3.88617,3.11326zM242.44176,519.02863c-0.22662,1.25668 -0.41717,2.52574 -0.60834,3.79567c0.89586,-1.18995 1.33655,-2.77502 0.91868,-5.44367c-0.10697,0.54597 -0.21066,1.09516 -0.31035,1.64803zM364.64988,317.39214c-0.16209,0.11299 -0.32096,0.22762 -0.47682,0.34377c0.66958,0.12123 1.33754,0.24394 2.00384,0.36805c0.15676,-0.50579 0.41525,-1.1662 0.82802,-1.82371zM355.17554,329.54662c-0.37986,0.59294 -0.77406,1.18406 -1.19072,1.77c1.24807,-0.631 2.40169,-1.14097 3.4596,-1.59655c-0.75575,-0.06059 -1.51194,-0.11729 -2.26888,-0.17344z" fill="url(#color-21)" stroke-width="0.5"/><path d="M232.44879,556.18979v-243.47086h25.96252v243.47086z" fill="url(#color-22)" stroke-width="0"/><g stroke-width="0"><path d="M137.94526,349.34984v-17.93787c0,0 15.70649,23.39722 43.2848,23.39722c55.28656,0 58.10311,-9.35891 58.10311,-9.35891v17.93787c0,0 -2.81655,9.35891 -58.10311,9.35891c-27.57833,0 -43.2848,-23.39722 -43.2848,-23.39722z" fill="url(#color-23)"/><path d="M137.94526,375.08674v-17.93787c0,0 15.70649,23.39722 43.2848,23.39722c55.28656,0 58.10311,-9.35891 58.10311,-9.35891v17.93787c0,0 -2.81655,9.35891 -58.10311,9.35891c-27.57833,0 -43.2848,-23.39722 -43.2848,-23.39722z" fill="url(#color-24)"/><path d="M139.81454,400.04378v-17.93787c0,0 15.12732,23.39722 41.68873,23.39722c53.2479,0 55.96059,-9.35891 55.96059,-9.35891v17.93787c0,0 -2.71269,9.35891 -55.96059,9.35891c-26.56137,0 -41.68873,-23.39722 -41.68873,-23.39722z" fill="url(#color-25)"/><path d="M145.42245,423.91141v-17.93787c0,0 14.16204,23.39722 39.02856,23.39722c49.85017,0 52.38974,-9.35891 52.38974,-9.35891v17.93787c0,0 -2.53958,9.35891 -52.38974,9.35891c-24.86649,0 -39.02856,-23.39722 -39.02856,-23.39722z" fill="url(#color-26)"/><path d="M159.13067,450.34933v-14.71432c0,0 11.84538,19.19258 32.64419,19.19258c41.69556,0 43.81973,-7.67705 43.81973,-7.67705v14.71432c0,0 -2.12416,7.67705 -43.81973,7.67705c-20.79877,0 -32.64419,-19.19258 -32.64419,-19.19258z" fill="url(#color-27)"/></g><g data-paper-data="{&quot;index&quot;:null}" stroke-width="0"><path d="M309.868,372.74701c-55.28656,0 -58.10311,-9.35891 -58.10311,-9.35891v-17.93787c0,0 2.81655,9.35891 58.10311,9.35891c27.57833,0 43.2848,-23.39722 43.2848,-23.39722v17.93787c0,0 -15.70649,23.39722 -43.2848,23.39722z" fill="url(#color-28)"/><path d="M309.868,398.48399c-55.28656,0 -58.10311,-9.35891 -58.10311,-9.35891v-17.93787c0,0 2.81655,9.35891 58.10311,9.35891c27.57833,0 43.2848,-23.39722 43.2848,-23.39722v17.93787c0,0 -15.70649,23.39722 -43.2848,23.39722z" fill="url(#color-29)"/><path d="M309.59476,423.44099c-53.2479,0 -55.96059,-9.35891 -55.96059,-9.35891v-17.93787c0,0 2.71269,9.35891 55.96059,9.35891c26.56141,0 41.68873,-23.39722 41.68873,-23.39722v17.93787c0,0 -15.12735,23.39722 -41.68873,23.39722z" fill="url(#color-30)"/><path d="M306.64705,447.30863c-49.85017,0 -52.38974,-9.35891 -52.38974,-9.35891v-17.93787c0,0 2.53958,9.35891 52.38974,9.35891c24.86652,0 39.02856,-23.39722 39.02856,-23.39722v17.93787c0,0 -14.16206,23.39722 -39.02856,23.39722z" fill="url(#color-31)"/><path d="M299.32321,469.5419c-41.69558,0 -43.81973,-7.67705 -43.81973,-7.67705v-14.71432c0,0 2.12418,7.67705 43.81973,7.67705c20.79877,0 32.64419,-19.19258 32.64419,-19.19258v14.71432c0,0 -11.84538,19.19258 -32.64419,19.19258z" fill="url(#color-32)"/></g><path d="M121.12156,327.05023v-14.33129h248.61701v14.33129z" fill="url(#color-33)" stroke-width="0"/><path d="M220.00143,576.96085v-95.31302h50.85731v95.31302z" fill="url(#color-34)" stroke-width="0"/></g><path d="M380.76141,319.88176c0.00156,7.41186 -6.18785,13.42155 -13.82424,13.42312c-7.63646,0.00159 -13.82815,-6.00567 -13.82961,-13.41752c-0.0015,-7.41184 6.18785,-13.42144 13.82429,-13.42301c7.63646,-0.00159 13.82815,6.00563 13.82964,13.41747z" fill="url(#color-35)" stroke-width="0"/><path d="M137.75236,319.88176c0.00156,7.41186 -6.18785,13.42155 -13.82424,13.42312c-7.63646,0.00159 -13.82815,-6.00567 -13.82961,-13.41752c-0.0015,-7.41184 6.18785,-13.42144 13.82429,-13.42301c7.63646,-0.00159 13.82815,6.00563 13.82964,13.41747z" fill="url(#color-36)" stroke-width="0"/></g><g><g><path d="M309.98212,279.61579c-1.86219,2.79325 -4.65546,0.9311 -4.65546,0.9311l-1.35702,-1.26007c-2.35329,-0.57796 -5.18238,-0.20188 -7.05991,-1.73385c-4.17445,-3.40622 -0.17564,-9.12898 -3.1135,-12.95113c-1.9293,-2.51003 -5.29419,-3.83895 -6.60184,-6.90191c-2.35015,-5.50487 3.38792,-13.19617 0.1417,-18.37172c-1.116,-1.77926 -5.30131,-4.70044 -7.05629,-6.01118c0,0 -2.68567,-2.01426 -0.67141,-4.69994c2.01426,-2.68567 4.69994,-0.67141 4.69994,-0.67141c6.68742,5.03441 10.98094,9.16503 10.22538,18.03835c-0.26067,3.06118 -2.4633,6.37565 -1.1362,9.14652c1.16016,2.42231 4.33197,3.32674 5.84555,5.54546c3.78417,5.5471 -0.9645,11.90452 5.83039,11.98799l3.97756,2.29633c0,0 2.79325,1.86219 0.9311,4.65546z" fill="url(#color-37)" stroke="none" stroke-width="0.5"/><path d="M143.79382,85.70813c0,-3.35709 3.35709,-3.35709 3.35709,-3.35709h2.66731c2.78445,0 5.62298,0.58991 8.35325,0.04335c6.26997,-1.25515 11.68825,-6.18183 18.31973,-6.26704c16.95592,-0.21789 32.67037,10.93185 35.33094,27.77712c0,0 0.47477,3.32335 -2.84859,3.79811c-3.32335,0.47477 -3.79811,-2.84859 -3.79811,-2.84859c-1.72249,-13.97442 -15.34003,-21.76076 -28.68424,-22.01246c-3.77679,-0.07125 -7.78153,2.86787 -11.16268,4.18995c-5.71261,2.23373 -9.54298,2.03376 -15.51031,2.03376h-2.66731c0,0 -3.35709,0 -3.35709,-3.35709z" fill="url(#color-38)" stroke="none" stroke-width="0.5"/><path d="M331.61066,97.34133c0.81421,3.25687 -2.44264,4.07108 -2.44264,4.07108l-3.96043,0.96419c-5.42321,-0.21536 -7.60991,5.33713 -13.3517,4.4341c-1.8356,-0.28868 -3.0939,-2.13807 -4.84751,-2.75256c-1.97139,-0.69079 -12.08267,-0.9771 -13.83042,-0.13066c-2.99229,1.44917 -4.53615,4.88817 -7.09763,7.00778c-3.44014,2.84671 -7.35991,5.1103 -11.34938,7.11585c0,0 -3.00267,1.50134 -4.50401,-1.50134c-1.50134,-3.00267 1.50134,-4.50401 1.50134,-4.50401c7.02966,-3.4938 12.16828,-11.36406 18.89517,-14.32753c6.57969,-2.89865 16.45749,0.50278 22.22065,2.4514c2.24817,0.76016 7.81192,-4.34921 11.5431,-4.4569l3.15237,-0.81403c0,0 3.25687,-0.81421 4.07108,2.44264z" fill="url(#color-39)" stroke="none" stroke-width="0.5"/><path d="M299.89343,113.60394c-2.09716,2.62143 -4.71863,0.5243 -4.71863,0.5243l-0.94742,-1.1489c-1.46122,-0.37715 -4.87048,-2.37726 -7.82987,-3.6449c0.3016,1.955 -1.53779,3.18129 -1.53779,3.18129c-5.34557,3.54307 -8.63362,6.78267 -14.64294,9.39575c-1.05171,0.45734 -2.34207,0.88358 -3.74203,1.32267c-3.37457,2.89671 -6.89912,5.61437 -10.61618,8.02087c-1.14594,0.74193 -2.58136,1.6313 -4.11515,2.48108c-1.40011,5.35054 -0.18273,12.09493 -0.18273,17.02533c0,0.90121 -0.01055,1.78261 -0.03271,2.6467c1.7237,1.25123 2.52711,3.07864 4.57473,4.24562c3.74585,2.13488 11.53236,3.1387 15.68567,3.60429c1.82604,0.2047 3.89044,0.05565 6.00246,-0.12337c-0.92602,-4.17995 -2.46528,-8.42243 -3.00431,-11.56373c-0.99659,-5.80803 1.26342,-9.21438 3.3642,-14.45919c6.16937,-12.34986 11.85758,-17.5945 26.25843,-17.5945h0.44607c0,0 3.35709,0 3.35709,3.35709c0,3.35709 -3.35709,3.35709 -3.35709,3.35709h-0.44607c-11.79191,0 -15.08482,3.54275 -20.13348,13.63078c-1.02679,2.57057 -2.81312,4.89199 -3.31362,7.61442c-0.91923,5.00008 1.41795,10.17308 3.04915,15.35201c1.20222,0.04659 2.3545,0.19597 3.41655,0.51648c6.91484,2.08666 10.23687,10.26715 17.71407,13.0375c0,0 3.14334,1.17874 1.9646,4.32208c-1.17874,3.14334 -4.3221,1.96457 -4.3221,1.96457c-5.1273,-1.94242 -9.70774,-4.36419 -13.42995,-8.56041c-1.34617,-1.51759 -1.35963,-3.82986 -3.64992,-4.27452c-0.09403,-0.01823 -0.18807,-0.03612 -0.28215,-0.05363c0.06034,1.53603 -0.09999,3.06591 -0.58612,4.58525c-3.63284,11.35368 -16.54588,13.70478 -26.29741,16.40396c-1.09688,0.30361 -2.2297,0.62686 -3.38596,0.91847c0.6171,0.86369 1.19494,1.8004 1.73534,2.86148c4.90679,2.31256 9.90006,4.6923 14.17059,8.93269c10.81934,10.74303 14.01635,24.62776 17.85898,39.01675c0,0 0.865,3.24374 -2.37875,4.10873c-3.24376,0.865 -4.10876,-2.37875 -4.10876,-2.37875c-3.51227,-13.19093 -6.23945,-26.04115 -16.04279,-35.92397c-1.81981,-1.83456 -4.37376,-3.78866 -6.97241,-5.50336c2.26234,9.05703 4.93747,18.81024 4.17995,27.8821c-0.20903,2.50311 -0.89801,8.95006 -3.25925,11.09348c-2.70222,2.45292 -5.31187,2.3002 -8.03549,2.08247c-1.35437,7.96378 -4.19089,16.59098 -6.28802,22.49109c0,0 -1.12911,3.16153 -4.29064,2.03241c-3.16153,-1.12911 -2.03239,-4.29064 -2.03239,-4.29064c2.24406,-6.25107 3.09502,-12.48668 4.30098,-18.8458c-5.01056,3.08143 -7.46456,10.20519 -8.06804,15.4845c0,0 -0.41642,3.33118 -3.74756,2.91479c-3.33115,-0.41642 -2.91479,-3.74756 -2.91479,-3.74756c1.23727,-9.28567 6.23025,-20.17312 16.3882,-22.47823c0.04184,-0.00947 0.08745,-0.01775 0.13662,-0.02485c0.63297,-2.5686 1.14861,-5.65614 -0.04045,-7.51632c-2.08454,-3.26108 -5.68193,-5.47505 -7.41324,-8.93661c-4.02298,-8.04343 -3.65115,-19.37338 -1.57983,-29.16807c-3.61059,3.75911 -7.2694,7.46476 -9.66447,12.06391c-2.13041,4.09093 -4.66587,9.2525 -5.99671,13.66288c-1.25388,4.15546 -1.03962,10.57687 -4.41426,13.9126c-3.37448,3.33557 -9.71691,3.19597 -13.9718,3.21365l-2.81991,-1.42935c0,0 -2.37382,-2.37382 0,-4.74766c1.60456,-1.60456 3.20911,-1.03995 4.08056,-0.50552c2.46367,0.07507 6.57013,0.15993 7.96347,-1.27879c2.01968,-2.08539 1.96164,-8.58501 2.72296,-11.06764c1.45327,-4.73916 4.15601,-10.48466 6.49343,-14.88596c3.28833,-6.19188 8.62813,-10.71453 13.18159,-15.8946c-0.07122,-0.21864 -0.11617,-0.4361 -0.14269,-0.64309c-1.4573,-0.2148 -2.97278,-0.32355 -4.31155,-0.84063c-1.16295,-2.38356 -2.03714,-4.81298 -2.69082,-7.27748c-1.44831,1.48889 -3.05922,2.85712 -4.70628,4.50445c-9.1673,9.16871 -25.16703,21.42085 -38.66041,19.21823c0,0 -3.30296,-0.60055 -2.70241,-3.90348c0.60052,-3.30292 3.90348,-2.70241 3.90348,-2.70241c10.69049,2.22424 25.57473,-10.22408 32.7117,-17.36c2.59261,-2.59222 5.95978,-4.60488 7.26473,-8.18544c0.21551,-0.59134 0.40582,-1.18537 0.57476,-1.78168c-0.16217,-2.27996 -0.2214,-4.57641 -0.22709,-6.88161c-12.92097,-2.97746 -30.3915,-8.7927 -39.57715,3.83988l-0.39299,1.72381c0,0 -1.06162,3.18483 -4.24644,2.12321c-3.18483,-1.06162 -2.12321,-4.24644 -2.12321,-4.24644l1.39132,-3.6291c11.41964,-14.87598 29.4127,-10.11196 45.04034,-6.64357c0.16836,-7.51627 0.38819,-15.04386 -1.03106,-22.31667c-1.70111,-8.71707 -14.51433,-18.36856 -21.69123,-22.83036c0,0 -2.84682,-1.77924 -1.06756,-4.62604c1.77926,-2.84682 4.62607,-1.06756 4.62607,-1.06756c8.986,5.64271 22.31182,16.30978 24.70066,27.13017c0.63991,2.89865 0.77823,5.91708 0.69389,8.98656c0.46452,-1.0548 0.90287,-1.90343 1.20596,-2.16209c2.82665,-2.4127 7.03996,-2.46051 10.68616,-3.17904c0.87185,-0.17179 1.76832,-0.4484 2.6777,-0.80693c0.5858,-1.50293 1.39249,-2.93706 2.49819,-4.26998c3.36969,-4.06211 9.08867,-5.83366 14.28696,-7.58225c5.10667,-5.07225 10.4678,-13.00253 16.66071,-15.32246c5.72884,-2.14609 10.96129,3.12914 16.17815,4.37927l3.51331,2.41971c0,0 2.62146,2.09716 0.5243,4.7186zM237.66698,137.9428c-1.49426,1.29288 -1.26683,3.74404 -1.96062,5.59417c-1.16038,2.62965 -1.66294,5.40745 -1.95588,8.24462c3.65216,0.28366 7.43628,-0.25713 11.03782,-0.11223c0.04491,-1.72053 0.05828,-3.50295 0.05828,-5.36862c0,-3.11753 -0.21188,-6.41191 -0.04015,-9.63585c-3.25275,0.71386 -4.31988,-1.16169 -7.13949,1.27792zM257.56731,165.14866c-2.71115,-0.77873 -4.63652,-2.69526 -6.59129,-4.26606c-0.64439,4.94188 -1.87411,9.49484 -3.9438,14.28814l0.21928,0.13748c-0.27388,1.44245 -0.54774,2.88484 -0.8216,4.32729c0.41891,0.81094 0.8531,1.61377 1.45692,2.24327c0.74232,0.77388 1.45322,1.48311 2.13373,2.15765c9.1639,0.11532 21.80939,-5.02903 26.73226,-11.21368c1.25522,-1.57697 1.74255,-3.5822 1.76876,-5.79439c-6.93643,-0.35273 -13.9889,0.12107 -20.95427,-1.87964zM233.69261,165.51789c0.47471,3.78537 -0.174,7.16173 0.72548,10.87596c0.95902,0.20642 1.98282,0.25173 2.99374,0.32509l0.19807,-0.25343c0.06977,-0.00139 0.13982,-0.00392 0.2101,-0.00748c-0.23414,-0.6408 -0.26242,-1.44771 0.16081,-2.43526c0.75686,-1.76603 2.09131,-2.0881 3.09428,-2.04061c1.90247,-4.66104 2.85672,-9.06833 3.32825,-13.76876c-3.52679,-0.35029 -7.39777,0.19974 -11.15317,0.08965c-0.108,1.33494 -0.24405,2.66816 -0.45299,3.99086c0.40664,1.0511 0.75629,2.11457 0.89541,3.22391zM244.85189,195.26476c-0.72737,-0.3866 -1.42061,-0.85222 -2.08366,-1.37701c-1.3384,7.7167 -1.39687,16.12191 1.61435,22.14685c3.10147,6.20549 7.54771,6.96688 8.50009,14.29321c0.21166,1.62832 0.24762,3.41892 0.1457,5.31393c1.17082,-0.05656 2.15888,-0.2525 2.67053,-0.71992c1.80453,-1.64849 1.45346,-8.7444 1.2118,-11.03412c-0.95154,-9.01541 -3.28394,-17.84942 -5.23875,-26.63721c-0.05481,-0.15563 -0.1163,-0.31841 -0.1841,-0.48756c-2.23093,-0.45415 -4.63988,-0.43723 -6.63598,-1.4982z" fill="url(#color-40)" stroke="none" stroke-width="0.5"/><path d="M218.76988,260.91783c-12.10511,-4.72426 -7.74882,-12.59409 -13.36467,-20.90593c-2.0193,-2.98872 -7.23421,-4.66851 -9.87751,-6.1865c-8.26151,-4.74438 -8.54834,-4.64501 -13.38059,-13.84309c-5.24155,-9.9772 0.65417,-19.01584 -4.73579,-27.5829c-5.83173,-7.7891 -11.80831,-25.35483 -7.48699,-35.4039c0.31798,-0.73945 8.98511,-7.01963 9.56425,-9.96884c0.85726,-4.36564 -2.53815,-8.7185 -2.24093,-13.15761c0.70389,-10.51259 8.54048,-19.72763 13.30144,-28.20299c2.2656,-4.03315 1.22611,-9.42927 3.59053,-13.4053c2.31043,-3.8852 7.77342,-6.43222 9.73619,-10.8234c1.27443,-2.85121 0.48678,-6.67841 2.56226,-9.01204c6.99137,-7.86083 23.82343,-8.43056 33.19274,-7.51645c5.30641,-0.76303 10.73166,0.02358 16.0772,0.43005c12.66827,0.96329 22.26937,-6.11979 34.26627,2.01603c6.28893,4.26491 10.92865,11.4926 10.00051,19.52536c-0.25429,2.20064 -3.68807,2.79074 -4.57441,4.82098c-1.06074,2.42971 3.92638,3.56343 5.89232,5.34215c4.40255,3.98329 7.89905,9.43767 9.25519,15.21779c2.13924,9.1179 4.19142,23.48368 2.78464,32.74732c-0.34127,2.24715 -2.26085,4.10725 -2.42103,6.37453c-0.17747,2.51225 7.05739,8.88937 7.08046,8.93605c1.93057,3.9065 2.39908,8.37828 3.59861,12.56742c-2.34462,1.93722 -5.07063,3.48878 -7.03383,5.81166c-5.12105,6.05923 0.58916,18.44457 -0.65862,25.236c-1.15942,6.31062 -5.56713,13.23172 -9.96684,17.62869c-2.77903,2.77728 -7.11064,4.4807 -8.5148,8.15011c-3.47264,9.07481 0.61384,16.932 -7.35826,24.97469c-2.94112,2.96716 -12.49397,7.27651 -19.11437,9.17186c-1.47084,1.9491 -3.83303,2.60814 -3.83303,2.60814c-6.70863,1.79593 -16.13006,9.48642 -23.27237,7.46985c-4.34059,-1.22553 -6.40188,-5.9358 -8.93018,-10.00873c-1.45061,0.29816 -2.86099,0.56824 -4.20117,0.76768l-2.65643,0.39527c0,0 -5.60073,0.83342 -7.28081,-4.17385zM237.74125,249.34791c3.92627,-0.72803 7.86495,-1.29731 11.44159,-1.16566c4.95987,0.18254 9.57768,3.16765 14.54078,3.20441c3.75336,0.02779 6.92808,-3.35143 9.90326,-4.78534c1.68527,-0.81222 3.8591,-0.61488 5.32253,-1.7803c3.87501,-3.08598 2.18487,-15.90564 4.02663,-20.16337c4.17101,-9.64236 11.02613,-10.13676 15.81223,-18.4064c6.40547,-11.06764 -7.1346,-32.44513 10.02532,-37.4962c-6.00766,-3.14257 -10.82365,-9.90587 -11.32054,-16.85664c-0.21888,-3.06173 2.06612,-5.81675 2.55456,-8.84718c1.03723,-6.43528 -1.14356,-15.22514 -1.69793,-21.68776c-0.02987,-0.34817 -1.35713,-10.07842 -2.00649,-11.10438c-2.42312,-3.82843 -7.94132,-5.05 -10.2115,-8.97106c-2.08411,-3.59966 -4.15264,-7.67421 -3.97095,-11.8297c0.10695,-2.44568 3.72017,-3.38656 4.73365,-5.61492c0.98309,-2.16146 -2.62047,-4.11377 -4.57805,-5.45774c-5.92338,-4.06662 -11.8149,-0.51761 -18.34723,0.03691c-8.50535,0.722 -15.63301,-1.37963 -23.99945,-0.08956c-7.60357,-0.74187 -12.05699,0.09104 -19.3617,1.91148c-1.27106,0.31678 -3.12429,-0.31309 -3.85243,0.77583c-1.10814,1.65722 0.18292,4.13139 -0.64237,5.94614c-2.19879,4.83482 -7.55042,7.59264 -10.38737,12.08288c-2.38469,3.77436 -1.27188,9.0155 -3.34582,12.96917c-3.36788,6.42051 -11.56628,14.65349 -11.72401,22.58514c-0.10883,5.47358 3.46989,9.31679 1.97548,15.1776c-0.96636,3.78984 -3.49651,7.07124 -5.96953,10.10122c-1.1372,1.39331 -3.69318,1.2772 -4.58982,2.8362c-0.64163,1.1156 0.56928,2.51151 0.78441,3.78036c1.32876,7.83771 0.57205,12.34057 5.7378,18.46651c1.56442,3.01374 3.95747,5.72629 4.6932,9.04122c1.79357,8.08158 -3.23919,12.30546 0.77478,19.78276c5.21934,9.72267 15.92186,9.53674 22.29093,18.44658c1.79993,2.51798 2.66596,5.59928 3.69777,8.51738c0.87281,2.46838 0.11998,7.19625 2.73275,7.36369c4.94893,0.31714 10.70819,-1.09798 14.95759,1.23081z" fill="url(#color-41)" stroke="none" stroke-width="0.5"/><g stroke="none" stroke-width="0.5"><path d="M173.90418,165.05833c0,-3.52256 3.08018,-3.96497 3.85384,-4.02053c2.41944,-0.73483 8.95951,-2.7371 10.13392,-2.69209c8.09041,0.31007 14.86327,6.25266 21.91005,9.21365c5.53227,1.88997 11.21475,2.23429 16.9603,1.85978c-0.03983,-0.15968 -0.07966,-0.31935 -0.1194,-0.47905c-1.74991,-1.10172 -3.46616,-2.20942 -5.14358,-3.29932c-2.06888,-1.99627 -4.62873,-3.58555 -6.20663,-5.98881c-5.0109,-7.63213 -2.55438,-18.3486 -6.51461,-26.84618c-2.3961,-5.14138 -7.58709,-8.9365 -12.32786,-11.73997l-2.41465,-1.19405c0,0 -3.60321,-1.80159 -1.80159,-5.40481c1.80159,-3.60321 5.40481,-1.80159 5.40481,-1.80159l2.95671,1.49163c8.74026,5.30715 14.48416,11.57461 17.84883,21.38555c2.9582,8.62568 0.61123,15.12415 6.04014,21.68333c-1.0287,-10.5066 -0.04733,-21.5538 -0.00009,-32.00502c0.03056,-6.76516 5.18345,-14.03639 3.68867,-20.55983c-2.53231,-11.05139 -10.51798,-16.6234 0.4038,-26.36487c0,0 3.05866,-2.62173 5.68039,0.43696c2.62173,3.05866 -0.43696,5.68039 -0.43696,5.68039c-8.24809,6.64442 3.54696,17.00276 2.24093,26.28749c-0.53901,3.83196 -2.88766,7.23908 -3.55873,11.05011c-2.45043,13.9159 -0.33621,28.55602 2.00973,42.62055c0.05436,0.03293 0.10872,0.06582 0.16313,0.09873c1.40479,-3.64882 3.71077,-6.92343 6.2078,-9.87002c0.06714,-0.05785 0.16256,-0.14049 0.28197,-0.24399c3.41847,-10.37328 6.05378,-20.76539 3.1575,-32.0993c-1.78261,-6.97582 -5.63914,-14.91215 -3.02629,-22.60497c1.77962,-5.23962 8.23745,-8.12131 12.49897,-10.59125c4.38535,-2.54172 8.54735,-5.25565 12.89511,-7.7193c-0.19901,-0.6222 -0.24115,-1.38245 -0.01009,-2.30662c0.97704,-3.90822 4.8853,-2.93118 4.8853,-2.93118l2.34134,1.55675c0.35768,-0.147 3.73813,-1.42595 5.28665,2.05818c1.15989,2.60972 -0.35258,4.19164 -1.33138,4.89146c0.27464,1.50392 0.27314,3.07724 -0.26797,5.01706c-2.09969,7.52709 -10.05433,11.1655 -11.06006,19.48781c-1.30548,10.80276 2.95469,21.34294 5.11497,31.92532c3.68203,-4.22567 6.63531,-9.1832 11.62366,-12.1035c4.71745,-2.7617 9.38591,-2.81319 14.62011,-2.82079h0.44762c0,0 4.0285,0 4.0285,4.0285c0,4.0285 -4.0285,4.0285 -4.0285,4.0285h-0.44762c-12.9543,-0.02096 -15.99832,9.61536 -25.07082,16.55716c0.00242,0.15067 0.00392,0.30139 0.00454,0.45211c-0.0191,5.18035 -1.56344,10.03543 -3.34385,14.8289c0.10364,0.02194 0.2072,0.04433 0.31073,0.06722c15.8213,3.49726 19.65024,25.03133 32.12448,33.22738c0,0 3.35193,2.23461 1.11732,5.58655c-2.23461,3.35193 -5.58655,1.11732 -5.58655,1.11732c-5.2011,-3.50873 -10.84024,-8.35965 -14.18055,-13.77945c-3.49312,-5.66776 -7.33195,-16.83187 -15.46548,-18.34457c-0.39155,-0.07283 -0.78703,-0.13388 -1.18599,-0.18408c-0.35389,1.02188 -0.6872,2.04737 -0.98754,3.07902c8.09513,6.07282 9.3647,14.75486 15.63621,21.92286c7.88635,9.01369 13.92467,12.33114 13.94184,25.4397c0,0 0,4.0285 -4.0285,4.0285c-4.0285,0 -4.0285,-4.0285 -4.0285,-4.0285c0.01581,-10.92174 -5.37629,-12.49438 -12.01968,-20.21676c-4.72137,-5.4882 -6.53427,-12.03861 -10.9752,-17.38136c0.0135,0.74157 0.05973,1.48956 0.14258,2.24477c0.79018,7.20335 1.10957,16.07459 3.39821,22.88911c2.90939,8.6627 8.74222,14.30468 6.87481,24.26229c-1.45711,7.76981 -4.91177,13.86487 -9.10481,20.38046c0,0 -2.1885,3.38224 -5.57069,1.19373c-3.38224,-2.1885 -1.19373,-5.57069 -1.19373,-5.57069c3.60445,-5.53703 6.5944,-10.61843 7.90445,-17.21899c1.63453,-8.23531 -4.14973,-13.24338 -6.55355,-20.49895c-2.42092,-7.30712 -3.04717,-16.82769 -3.76357,-24.5578c-0.25113,-2.7099 -0.08939,-5.30372 0.33529,-7.8217c-1.24038,-0.02194 -2.55969,0.05962 -4.13271,-0.37691c-2.28883,-0.63514 -4.56421,-1.42953 -6.8178,-2.34473c1.12906,8.50502 4.03291,16.57456 4.7605,25.91061c1.12613,14.45016 -5.33497,28.21037 -4.17268,42.80927c0.52292,0.60879 2.34446,3.08208 -0.1288,5.55535c-2.84859,2.84859 -5.69718,0 -5.69718,0l-2.05051,-3.29895c-1.6692,-15.22267 5.34684,-29.61504 4.01559,-44.45132c-0.60234,-6.71293 -2.09616,-12.75091 -3.31555,-18.7442c-0.44185,2.10363 -1.03718,4.17265 -1.91129,6.17119c-0.32827,4.43106 -1.24897,8.80208 -3.21048,13.05396c-2.03708,4.41565 -4.50073,7.74005 -5.5024,12.83792c-2.1776,11.08249 6.28725,24.02712 6.31859,35.61131v0.89522c0,0 0,4.0285 -4.0285,4.0285c-4.0285,0 -4.0285,-4.0285 -4.0285,-4.0285v-0.89522c0.03935,-12.48742 -8.49833,-24.60972 -6.21454,-36.9019c0.79977,-4.30462 2.52349,-7.78209 4.34005,-11.33993c-3.17591,2.01329 -6.60592,3.51723 -9.78663,3.90578c-1.16841,0.14272 -7.43589,-0.86699 -8.9069,-0.87287c-6.45843,-0.02584 -12.74619,2.32649 -18.25476,5.33751c0,0 -3.54699,1.90992 -5.45691,-1.63709c-1.90992,-3.54699 1.63709,-5.45691 1.63709,-5.45691c6.0551,-3.21903 10.6074,-4.65546 17.37867,-5.80084c4.46564,-0.75541 8.48225,0.81207 12.75403,0.41802c4.63239,-0.42731 10.61902,-5.57516 13.49511,-8.92846c0.61165,-0.7131 1.14592,-1.43748 1.6135,-2.17234c0.18278,-4.47517 -0.33194,-9.02502 -0.77619,-13.481c-0.01015,-0.06634 -0.02044,-0.13261 -0.03085,-0.19884c-7.46952,0.26363 -14.98499,-0.20443 -21.57539,-2.36146c-5.77033,-2.51168 -12.706,-8.35172 -19.27028,-8.69082c-2.83331,-0.14636 -5.41311,1.70191 -8.13049,2.51733l-1.6052,0.1699c0,0 -4.0285,0 -4.0285,-4.0285zM258.48479,156.10607c-2.29639,0.03788 -4.80685,-1.31735 -6.88201,-0.33326c-1.40279,0.66525 -2.4424,1.86808 -3.51444,3.0298c-0.70193,2.19863 -1.45598,4.45473 -2.24457,6.80794c-0.06602,0.36617 -0.12625,0.73034 -0.18099,1.09263c5.46765,-0.90738 10.9067,-1.65142 16.24334,-1.53196c1.11215,-3.15479 2.07947,-6.33908 2.55341,-9.64635c-1.51134,0.42961 -3.18331,0.53518 -5.97471,0.58121zM258.55856,174.4152c0.06722,-0.20156 0.13523,-0.40288 0.20392,-0.60398c-0.74105,0.08615 -1.48405,0.18735 -2.22658,0.29864c0.66844,0.11422 1.34609,0.20868 2.02263,0.30533zM262.25541,147.77547c0.81156,-0.26579 1.57461,-0.58019 2.2962,-0.93616c-1.29321,-12.82101 -7.8316,-25.46272 -6.02279,-38.63597c0.97044,-7.06754 7.11432,-12.49381 9.58794,-18.39417c-3.42483,2.0365 -6.77163,4.19287 -10.27746,6.22024c-2.05843,1.19036 -8.21092,3.52527 -8.98642,6.41801c-2.14529,8.00208 3.24494,16.99305 3.82155,24.73397c0.57068,7.66129 -0.09088,14.14101 -1.50255,20.52107c3.74517,-0.34358 7.3829,1.28491 11.08356,0.073z" fill="url(#color-42)"/><path d="M221.03854,75.18061c1.46119,-4.70665 6.33229,-3.92326 6.33229,-3.92326l2.31035,0.37154c1.16559,0.18746 2.39223,0.44131 3.65386,0.72159c2.19894,-3.8284 3.99169,-8.25586 7.76682,-9.4078c6.21183,-1.89549 14.40587,5.33327 20.24053,7.02137c0,0 2.05443,0.61945 3.33368,2.45153c5.75792,1.78153 14.06628,5.83218 16.62424,8.62117c6.93352,7.55979 3.37944,14.94521 6.39968,23.47518c1.22124,3.4491 4.98853,5.05024 7.40554,7.66077c3.82652,4.13296 7.66,10.63856 8.66839,16.57026c1.08521,6.38368 -3.88109,18.02539 0.57279,23.72081c1.70744,2.18344 4.07833,3.6418 6.11751,5.46272c-1.04328,3.93763 -1.45072,8.14093 -3.1298,11.81289c-0.02006,0.04385 -6.31238,6.03809 -6.15803,8.39953c0.1393,2.13115 1.8088,3.87956 2.10562,5.9918c1.22351,8.70747 -0.56133,22.21072 -2.42189,30.78118c-1.17947,5.43306 -4.22043,10.55999 -8.04945,14.30411c-1.7098,1.67191 -6.04725,2.73759 -5.1247,5.0214c0.77084,1.90836 3.75732,2.46301 3.97845,4.53154c0.80723,7.55047 -3.22804,14.34421 -8.69769,18.35304c-10.43401,7.64734 -18.78431,0.98951 -29.80219,1.89499c-4.64915,0.38206 -9.36761,1.12144 -13.98272,0.40422c-8.14871,0.85927 -22.78798,0.32372 -28.86852,-7.06515c-1.8051,-2.19352 -1.12007,-5.79094 -2.22847,-8.47096c-1.70708,-4.12754 -6.45835,-6.52162 -8.4678,-10.17355c-2.05639,-3.73733 -1.15232,-8.80944 -3.12278,-12.60046c-4.14075,-7.96651 -10.95642,-16.62827 -11.5686,-26.50968c-0.2585,-4.17257 2.69457,-8.26406 1.94899,-12.36761c-0.5037,-2.77215 -8.04169,-8.67528 -8.31826,-9.37032c-3.75838,-9.44573 1.43963,-25.9568 6.51163,-33.27824c4.68777,-8.05267 -0.43989,-16.54864 4.11883,-25.92682c4.20274,-8.64583 4.45219,-8.55246 11.63742,-13.01196c2.29894,-1.42685 6.83448,-3.00577 8.59071,-5.81505c4.88425,-7.81278 1.09546,-15.21013 11.62357,-19.65073zM237.53844,86.05582c-3.69581,2.18898 -8.70481,0.8588 -13.009,1.15691c-2.2724,0.15741 -1.61764,4.60139 -2.37675,6.92158c-0.89738,2.74289 -1.65058,5.63917 -3.21604,8.006c-5.53934,8.3749 -14.84759,8.20013 -19.38697,17.33904c-3.49105,7.02835 0.88607,10.99867 -0.67386,18.59501c-0.63986,3.1159 -2.72118,5.66559 -4.0818,8.49835c-4.49277,5.75814 -3.83464,9.99066 -4.9903,17.35778c-0.18708,1.19268 -1.24027,2.50474 -0.68221,3.55337c0.77985,1.46541 3.00283,1.35626 3.99188,2.6659c2.15085,2.84805 4.35139,5.93248 5.19187,9.49475c1.29973,5.50894 -1.81275,9.12141 -1.71813,14.26636c0.13718,7.45543 7.26752,15.19411 10.19664,21.22913c1.80376,3.71629 0.83592,8.64277 2.90996,12.19051c2.46736,4.22065 7.12185,6.81288 9.03418,11.35742c0.71778,1.70577 -0.4051,4.03141 0.55868,5.58913c0.63327,1.02353 2.2451,0.43148 3.35057,0.72927c6.35307,1.71114 10.22632,2.49406 16.83933,1.79672c7.27649,1.21261 13.47561,-0.76284 20.8729,-0.08419c5.68133,0.52121 10.80536,3.85717 15.95708,0.0347c1.70256,-1.26328 4.83665,-3.09839 3.98161,-5.13007c-0.88146,-2.09456 -4.02397,-2.97892 -4.11699,-5.27778c-0.15801,-3.906 1.64106,-7.73593 3.45364,-11.11943c1.97443,-3.68563 6.77376,-4.83386 8.88119,-8.43246c0.56476,-0.96437 1.71913,-10.1104 1.7451,-10.43765c0.48216,-6.07459 2.37883,-14.33673 1.47672,-20.38564c-0.42481,-2.84848 -2.41214,-5.43808 -2.22178,-8.31599c0.43215,-6.53344 4.62075,-12.8907 9.84576,-15.84456c-14.92441,-4.74781 -3.14828,-24.84178 -8.71928,-35.24494c-4.16261,-7.77312 -10.12467,-8.23785 -13.7523,-17.30127c-1.60182,-4.00208 -0.13187,-16.05206 -3.50204,-18.95276c-1.27279,-1.09546 -3.16342,-0.90996 -4.62913,-1.67343c-2.58759,-1.3478 -5.3487,-4.52415 -8.61309,-4.49802c-4.31652,0.03455 -8.33276,2.84044 -12.6465,3.01204c-3.11069,0.12376 -6.53626,-0.41137 -9.95102,-1.09567z" data-paper-data="{&quot;index&quot;:null}" fill="url(#color-43)"/></g><path d="M221.03854,75.18061c1.46119,-4.70665 6.33229,-3.92326 6.33229,-3.92326l2.31035,0.37154c1.16559,0.18746 2.39223,0.44131 3.65386,0.72159c2.19894,-3.8284 3.99169,-8.25586 7.76682,-9.4078c6.21183,-1.89549 14.40587,5.33327 20.24053,7.02137c0,0 2.05443,0.61945 3.33368,2.45153c5.75792,1.78153 14.06628,5.83218 16.62424,8.62117c6.93352,7.55979 3.37944,14.94521 6.39968,23.47518c1.22124,3.4491 4.98853,5.05024 7.40554,7.66077c3.82652,4.13296 7.66,10.63856 8.66839,16.57026c1.08521,6.38368 -3.88109,18.02539 0.57279,23.72081c1.70744,2.18344 4.07833,3.6418 6.11751,5.46272c-1.04328,3.93763 -1.45072,8.14093 -3.1298,11.81289c-0.02006,0.04385 -6.31238,6.03809 -6.15803,8.39953c0.1393,2.13115 1.8088,3.87956 2.10562,5.9918c1.22351,8.70747 -0.56133,22.21072 -2.42189,30.78118c-1.17947,5.43306 -4.22043,10.55999 -8.04945,14.30411c-1.7098,1.67191 -6.04725,2.73759 -5.1247,5.0214c0.77084,1.90836 3.75732,2.46301 3.97845,4.53154c0.80723,7.55047 -3.22804,14.34421 -8.69769,18.35304c-10.43401,7.64734 -18.78431,0.98951 -29.80219,1.89499c-4.64915,0.38206 -9.36761,1.12144 -13.98272,0.40422c-8.14871,0.85927 -22.78798,0.32372 -28.86852,-7.06515c-1.8051,-2.19352 -1.12007,-5.79094 -2.22847,-8.47096c-1.70708,-4.12754 -6.45835,-6.52162 -8.4678,-10.17355c-2.05639,-3.73733 -1.15232,-8.80944 -3.12278,-12.60046c-4.14075,-7.96651 -10.95642,-16.62827 -11.5686,-26.50968c-0.2585,-4.17257 2.69457,-8.26406 1.94899,-12.36761c-0.5037,-2.77215 -8.04169,-8.67528 -8.31826,-9.37032c-3.75838,-9.44573 1.43963,-25.9568 6.51163,-33.27824c4.68777,-8.05267 -0.43989,-16.54864 4.11883,-25.92682c4.20274,-8.64583 4.45219,-8.55246 11.63742,-13.01196c2.29894,-1.42685 6.83448,-3.00577 8.59071,-5.81505c4.88425,-7.81278 1.09546,-15.21013 11.62357,-19.65073zM237.53844,86.05582c-3.69581,2.18898 -8.70481,0.8588 -13.009,1.15691c-2.2724,0.15741 -1.61764,4.60139 -2.37675,6.92158c-0.89738,2.74289 -1.65058,5.63917 -3.21604,8.006c-5.53934,8.3749 -14.84759,8.20013 -19.38697,17.33904c-3.49105,7.02835 0.88607,10.99867 -0.67386,18.59501c-0.63986,3.1159 -2.72118,5.66559 -4.0818,8.49835c-4.49277,5.75814 -3.83464,9.99066 -4.9903,17.35778c-0.18708,1.19268 -1.24027,2.50474 -0.68221,3.55337c0.77985,1.46541 3.00283,1.35626 3.99188,2.6659c2.15085,2.84805 4.35139,5.93248 5.19187,9.49475c1.29973,5.50894 -1.81275,9.12141 -1.71813,14.26636c0.13718,7.45543 7.26752,15.19411 10.19664,21.22913c1.80376,3.71629 0.83592,8.64277 2.90996,12.19051c2.46736,4.22065 7.12185,6.81288 9.03418,11.35742c0.71778,1.70577 -0.4051,4.03141 0.55868,5.58913c0.63327,1.02353 2.2451,0.43148 3.35057,0.72927c6.35307,1.71114 10.22632,2.49406 16.83933,1.79672c7.27649,1.21261 13.47561,-0.76284 20.8729,-0.08419c5.68133,0.52121 10.80536,3.85717 15.95708,0.0347c1.70256,-1.26328 4.83665,-3.09839 3.98161,-5.13007c-0.88146,-2.09456 -4.02397,-2.97892 -4.11699,-5.27778c-0.15801,-3.906 1.64106,-7.73593 3.45364,-11.11943c1.97443,-3.68563 6.77376,-4.83386 8.88119,-8.43246c0.56476,-0.96437 1.71913,-10.1104 1.7451,-10.43765c0.48216,-6.07459 2.37883,-14.33673 1.47672,-20.38564c-0.42481,-2.84848 -2.41214,-5.43808 -2.22178,-8.31599c0.43215,-6.53344 4.62075,-12.8907 9.84576,-15.84456c-14.92441,-4.74781 -3.14828,-24.84178 -8.71928,-35.24494c-4.16261,-7.77312 -10.12467,-8.23785 -13.7523,-17.30127c-1.60182,-4.00208 -0.13187,-16.05206 -3.50204,-18.95276c-1.27279,-1.09546 -3.16342,-0.90996 -4.62913,-1.67343c-2.58759,-1.3478 -5.3487,-4.52415 -8.61309,-4.49802c-4.31652,0.03455 -8.33276,2.84044 -12.6465,3.01204c-3.11069,0.12376 -6.53626,-0.41137 -9.95102,-1.09567z" data-paper-data="{&quot;index&quot;:null}" fill="url(#color-44)" stroke="none" stroke-width="0.5"/><path d="M218.76988,260.91783c-12.10511,-4.72426 -7.74882,-12.59409 -13.36467,-20.90593c-2.0193,-2.98872 -7.23421,-4.66851 -9.87751,-6.1865c-8.26151,-4.74438 -8.54834,-4.64501 -13.38059,-13.84309c-5.24155,-9.9772 0.65417,-19.01584 -4.73579,-27.5829c-5.83173,-7.7891 -11.80831,-25.35483 -7.48699,-35.4039c0.31798,-0.73945 8.98511,-7.01963 9.56425,-9.96884c0.85726,-4.36564 -2.53815,-8.7185 -2.24093,-13.15761c0.70389,-10.51259 8.54048,-19.72763 13.30144,-28.20299c2.2656,-4.03315 1.22611,-9.42927 3.59053,-13.4053c2.31043,-3.8852 7.77342,-6.43222 9.73619,-10.8234c1.27443,-2.85121 0.48678,-6.67841 2.56226,-9.01204c6.99137,-7.86083 23.82343,-8.43056 33.19274,-7.51645c5.30641,-0.76303 10.73166,0.02358 16.0772,0.43005c12.66827,0.96329 22.26937,-6.11979 34.26627,2.01603c6.28893,4.26491 10.92865,11.4926 10.00051,19.52536c-0.25429,2.20064 -3.68807,2.79074 -4.57441,4.82098c-1.06074,2.42971 3.92638,3.56343 5.89232,5.34215c4.40255,3.98329 7.89905,9.43767 9.25519,15.21779c2.13924,9.1179 4.19142,23.48368 2.78464,32.74732c-0.34127,2.24715 -2.26085,4.10725 -2.42103,6.37453c-0.17747,2.51225 7.05739,8.88937 7.08046,8.93605c1.93057,3.9065 2.39908,8.37828 3.59861,12.56742c-2.34462,1.93722 -5.07063,3.48878 -7.03383,5.81166c-5.12105,6.05923 0.58916,18.44457 -0.65862,25.236c-1.15942,6.31062 -5.56713,13.23172 -9.96684,17.62869c-2.77903,2.77728 -7.11064,4.4807 -8.5148,8.15011c-3.47264,9.07481 0.61384,16.932 -7.35826,24.97469c-2.94112,2.96716 -12.49397,7.27651 -19.11437,9.17186c-1.47084,1.9491 -3.83303,2.60814 -3.83303,2.60814c-6.70863,1.79593 -16.13006,9.48642 -23.27237,7.46985c-4.34059,-1.22553 -6.40188,-5.9358 -8.93018,-10.00873c-1.45061,0.29816 -2.86099,0.56824 -4.20117,0.76768l-2.65643,0.39527c0,0 -5.60073,0.83342 -7.28081,-4.17385zM237.74125,249.34791c3.92627,-0.72803 7.86495,-1.29731 11.44159,-1.16566c4.95987,0.18254 9.57768,3.16765 14.54078,3.20441c3.75336,0.02779 6.92808,-3.35143 9.90326,-4.78534c1.68527,-0.81222 3.8591,-0.61488 5.32253,-1.7803c3.87501,-3.08598 2.18487,-15.90564 4.02663,-20.16337c4.17101,-9.64236 11.02613,-10.13676 15.81223,-18.4064c6.40547,-11.06764 -7.1346,-32.44513 10.02532,-37.4962c-6.00766,-3.14257 -10.82365,-9.90587 -11.32054,-16.85664c-0.21888,-3.06173 2.06612,-5.81675 2.55456,-8.84718c1.03723,-6.43528 -1.14356,-15.22514 -1.69793,-21.68776c-0.02987,-0.34817 -1.35713,-10.07842 -2.00649,-11.10438c-2.42312,-3.82843 -7.94132,-5.05 -10.2115,-8.97106c-2.08411,-3.59966 -4.15264,-7.67421 -3.97095,-11.8297c0.10695,-2.44568 3.72017,-3.38656 4.73365,-5.61492c0.98309,-2.16146 -2.62047,-4.11377 -4.57805,-5.45774c-5.92338,-4.06662 -11.8149,-0.51761 -18.34723,0.03691c-8.50535,0.722 -15.63301,-1.37963 -23.99945,-0.08956c-7.60357,-0.74187 -12.05699,0.09104 -19.3617,1.91148c-1.27106,0.31678 -3.12429,-0.31309 -3.85243,0.77583c-1.10814,1.65722 0.18292,4.13139 -0.64237,5.94614c-2.19879,4.83482 -7.55042,7.59264 -10.38737,12.08288c-2.38469,3.77436 -1.27188,9.0155 -3.34582,12.96917c-3.36788,6.42051 -11.56628,14.65349 -11.72401,22.58514c-0.10883,5.47358 3.46989,9.31679 1.97548,15.1776c-0.96636,3.78984 -3.49651,7.07124 -5.96953,10.10122c-1.1372,1.39331 -3.69318,1.2772 -4.58982,2.8362c-0.64163,1.1156 0.56928,2.51151 0.78441,3.78036c1.32876,7.83771 0.57205,12.34057 5.7378,18.46651c1.56442,3.01374 3.95747,5.72629 4.6932,9.04122c1.79357,8.08158 -3.23919,12.30546 0.77478,19.78276c5.21934,9.72267 15.92186,9.53674 22.29093,18.44658c1.79993,2.51798 2.66596,5.59928 3.69777,8.51738c0.87281,2.46838 0.11998,7.19625 2.73275,7.36369c4.94893,0.31714 10.70819,-1.09798 14.95759,1.23081z" fill="url(#color-45)" stroke="none" stroke-width="0.5"/><g><path d="M213.79526,181.54145v-28.46814h3.22281v28.46814z" fill="url(#color-46)" stroke="none" stroke-width="0"/><path d="M273.05914,181.54145v-28.46814h3.22281v28.46814z" fill="url(#color-47)" stroke="none" stroke-width="0"/><path d="M197.8817,157.75836v-5.65676h94.6764v5.65676z" fill="url(#color-48)" stroke="none" stroke-width="0"/><g stroke-width="0"><path d="M288.58587,155.36107c0,8.05434 -6.24127,14.5837 -13.94031,14.5837c-7.69903,0 -13.94028,-6.52936 -13.94028,-14.5837c0,-8.05434 6.24127,-14.5837 13.94028,-14.5837c7.69903,0 13.94031,6.52932 13.94031,14.5837z" fill="url(#color-49)" stroke="none"/><g stroke="#a70000"><path d="M280.30335,155.5694c0,3.21956 -2.54132,5.82955 -5.67618,5.82955c-3.13486,0 -5.67618,-2.60999 -5.67618,-5.82955c0,-3.21956 2.5413,-5.82958 5.67618,-5.82958c3.13486,0 5.67618,2.61003 5.67618,5.82958z" fill="#960000"/><path d="M278.94837,155.5694c0,2.45103 -1.93467,4.43796 -4.32122,4.43796c-2.38653,0 -4.3212,-1.98695 -4.3212,-4.43796c0,-2.45103 1.93465,-4.438 4.3212,-4.438c2.38653,0 4.32122,1.98698 4.32122,4.438z" fill="#000000"/></g><path d="M288.58587,155.36107c0,0.05919 -7.05814,-3.29784 -14.07186,-3.25013c-6.92603,0.04711 -13.80874,3.50092 -13.80874,3.25013c0,-8.05434 6.24127,-14.5837 13.94028,-14.5837c7.69903,0 13.94031,6.52932 13.94031,14.5837z" fill="url(#color-50)" stroke="none"/></g><path d="M234.40434,217.66882l0.01244,-2.98637l20.50909,0.08551l-0.01247,2.98637z" fill="url(#color-51)" stroke="none" stroke-width="0"/><path d="M252.71734,218.53474l0.09871,-34.36933l3.58643,0.0217l-0.09871,34.36933z" fill="url(#color-52)" stroke="none" stroke-width="0"/><path d="M233.40559,218.41793l0.09871,-34.3693l3.58643,0.02167l-0.09871,34.36933z" fill="url(#color-53)" stroke="none" stroke-width="0"/><g stroke="none" stroke-width="0"><path d="M237.98983,242.42915l0.12016,-28.82833l13.73722,0.05728l-0.12013,28.82833z" fill="url(#color-54)"/><path d="M237.98983,242.42915l0.01513,-3.62961l13.73722,0.05725l-0.01513,3.62961z" fill="#494949"/></g><path d="M203.0824,179.94394l84.68495,0.17873l0.0062,8.36312l-84.69486,-0.18096z" fill="url(#color-55)" stroke="none" stroke-width="0"/><g><path d="M218.3557,200.58366c-1.31676,0.26336 -1.58012,-1.0534 -1.58012,-1.0534l-0.19476,-0.99204c-0.81465,-6.5171 2.1397,-11.52544 -1.31219,-17.31446c-2.23944,-6.12345 -0.19481,-8.61468 0.0493,-14.41048c0.13041,-3.09607 -2.0015,-5.79493 -2.32037,-8.75927c-0.34232,-3.18223 1.85328,-5.13229 2.5387,-7.9921c0,0 0.32569,-1.30274 1.62843,-0.97704c1.30274,0.32569 0.97704,1.62843 0.97704,1.62843c-0.61488,2.38255 -2.77138,4.4996 -2.47455,7.04766c0.35757,3.06935 2.51502,5.88762 2.33479,9.14523c-0.30399,5.49414 -2.36347,7.47791 -0.30878,13.16246c3.76778,6.23526 0.70013,11.31732 1.55254,18.13644l0.16335,0.79842c0,0 0.26332,1.31676 -1.0534,1.58012z" fill="url(#color-56)" stroke="none" stroke-width="0.5"/><path d="M214.51144,199.53547c-1.34283,0 -1.34283,-1.34283 -1.34283,-1.34283v-1.07427c0.07536,-6.16124 5.19729,-9.35651 5.19229,-15.39786c0.02452,-6.67232 -4.05187,-10.96614 -7.00741,-16.38411c-2.10786,-3.86407 -1.50711,-10.14268 -1.04139,-14.38088c0,0 0.1483,-1.33461 1.48293,-1.18633c1.33461,0.1483 1.18633,1.48293 1.18633,1.48293c-0.35206,3.1307 -0.90421,8.2075 0.12211,11.25553c2.30618,6.84893 7.91718,11.20726 7.94313,19.21286c-0.00551,6.18859 -5.29236,9.5078 -5.19229,15.39786v1.07427c0,0 0,1.34283 -1.34283,1.34283z" fill="url(#color-57)" stroke="none" stroke-width="0.5"/><g stroke-width="0"><path d="M226.27822,202.62893c0,8.05434 -6.24127,14.5837 -13.94031,14.5837c-7.69903,0 -13.94028,-6.52932 -13.94028,-14.5837c0,-8.05434 6.24127,-14.5837 13.94028,-14.5837c7.69903,0 13.94031,6.52936 13.94031,14.5837z" fill="url(#color-58)" stroke="none"/><g stroke="#a70000"><path d="M214.59384,209.28289c0,3.21956 -2.5413,5.82955 -5.67618,5.82955c-3.13486,0 -5.67618,-2.60999 -5.67618,-5.82955c0,-3.21956 2.5413,-5.82955 5.67618,-5.82955c3.13486,0 5.67618,2.60999 5.67618,5.82955z" fill="#960000"/><path d="M213.23889,209.28289c0,2.45103 -1.93465,4.43796 -4.3212,4.43796c-2.38653,0 -4.3212,-1.98695 -4.3212,-4.43796c0,-2.45103 1.93465,-4.438 4.3212,-4.438c2.38653,0 4.3212,1.98698 4.3212,4.438z" fill="#000000"/></g></g></g><path d="M229.50103,155.36107c0,0.05919 -7.05814,-1.5074 -14.07186,-1.45969c-6.92603,0.04711 -13.80874,1.71048 -13.80874,1.45969c0,-8.05434 6.24127,-14.5837 13.94028,-14.5837c7.69903,0 13.94031,6.52932 13.94031,14.5837z" fill="url(#color-59)" stroke="none" stroke-width="0"/></g><path d="M187.17837,130.91613c-0.93002,-3.00574 2.3251,-3.86454 2.3251,-3.86454l2.11639,-0.50265c13.34487,-6.08007 24.93753,-13.79888 40.53953,-13.83834c0.62012,0.15244 1.25963,0.33525 1.91261,0.52938c0.2836,-1.00012 0.44408,-1.96282 0.42606,-2.85779c-0.12726,-6.32599 -4.17327,-10.90089 -5.6971,-16.65239c-2.49395,-9.41307 6.18097,-19.01176 13.69779,-23.93929c0,0 2.77341,-1.79266 4.71481,0.76829c1.94139,2.56095 -0.83202,4.35362 -0.83202,4.35362c-4.98004,3.16353 -13.06591,10.84647 -10.99094,17.38096c1.9621,6.17903 5.96674,11.36239 5.87577,18.25611c-0.01921,1.45537 -0.21348,2.88325 -0.53558,4.29226c0.73708,0.06797 1.46719,0.0752 2.18267,-0.00288c2.90906,-0.31745 5.36851,-1.39722 7.66913,-2.7323c1.95495,-8.39738 -3.36359,-16.76084 0.39906,-24.97658c1.94002,-4.23603 6.9509,-8.16126 10.23024,-11.52663c0,0 2.2647,-2.32353 4.78104,-0.23233c2.51634,2.0912 0.25162,4.41476 0.25162,4.41476c-2.75007,2.82087 -7.45664,6.31026 -9.05784,9.84593c-2.53996,5.60865 -0.2861,11.89896 0.19485,18.16187c1.42475,-0.83382 2.90251,-1.56669 4.50458,-2.07443c4.62774,-1.46664 9.74172,1.22727 14.06429,-2.0149c3.83251,-2.87461 10.52427,-10.38819 9.1469,-14.71035c0,0 -0.66393,-3.06534 2.65571,-3.67842c3.31963,-0.61305 3.98356,2.45226 3.98356,2.45226c1.36073,8.23981 -7.67666,20.36791 -16.52228,23.17021c-3.49667,1.10774 -8.0892,-0.34795 -11.18709,0.7124c-2.53909,0.86908 -5.288,3.48187 -7.84037,5.00333c-4.3788,11.8499 -9.36448,18.34181 -4.73799,31.14007c2.74073,5.55405 5.87725,10.04856 4.39623,16.42853c-0.97522,4.20128 -5.47719,10.06746 -4.9432,14.39932c0.94378,7.65578 4.06028,11.72253 1.40995,20.0137l-0.72984,2.70958c0,0 -0.82106,3.03272 -4.1054,2.27452c-3.2843,-0.75817 -2.46323,-3.79088 -2.46323,-3.79088l0.81322,-2.98974c2.52749,-7.63186 -1.02582,-10.59206 -1.67613,-17.74446c-0.60658,-6.6718 5.73117,-12.65998 5.39791,-19.27172c-0.16297,-3.23302 -3.01196,-6.91387 -4.40182,-9.7436c-4.47868,-12.42154 -1.45569,-19.79624 2.61126,-30.15958c-2.9735,0.68413 -5.81671,0.80104 -8.88341,0.4731c-2.97408,7.05825 -7.66206,13.92017 -7.66206,21.75018c0.91745,3.30853 2.73331,7.15506 3.42348,10.41929c0.99289,4.69589 -1.68532,11.07048 -0.0491,15.48769c2.15522,5.81846 3.34608,8.93123 1.98589,15.33968l-0.67743,1.49737c0,0 -1.514,2.796 -4.54195,1.39799c-3.02797,-1.39799 -1.514,-4.19402 -1.514,-4.19402l0.09408,0.07254c1.28846,-5.81027 -0.17766,-7.16361 -1.87169,-12.44464c-1.58793,-4.9503 1.06876,-10.85469 -0.0491,-15.85873c-0.78029,-3.4929 -2.57778,-7.39874 -3.52022,-10.95328c0,-5.93415 1.15687,-12.0792 3.70418,-17.60764c0.82299,-1.78614 2.15488,-4.00139 3.38274,-6.30956c-0.10579,-0.02705 -0.21203,-0.05442 -0.31866,-0.08208c-13.67373,-0.0484 -24.96549,7.7974 -36.61284,13.2336l-3.28429,0.92216c0,0 -3.25512,0.8588 -4.18514,-2.14695z" fill="url(#color-60)" stroke="none" stroke-width="0.5"/><path d="M310.65705,124.61968c0.4164,3.33118 -2.91479,3.74756 -2.91479,3.74756l-3.17274,0.39469c-9.41923,0.80095 -15.83694,7.8792 -25.01373,9.53388c-5.99002,1.08003 -14.57954,-0.88826 -20.10531,1.00925c-6.3167,2.16912 -9.67319,16.52584 -10.93217,22.04776c-2.17937,4.4076 -4.98187,9.29659 -8.48639,13.50999c0.41547,-0.00575 0.83006,-0.00871 1.24368,-0.00852c10.40776,0.90996 14.23849,7.36683 21.59129,13.83445c1.66665,1.466 4.73944,6.54952 6.9765,6.90997c7.39755,1.19187 15.01067,-2.00069 22.54731,-1.21736c4.71022,0.48955 8.49326,3.43302 12.78357,5.21121c0,0 3.09886,1.29119 1.80768,4.39004c-1.29119,3.09886 -4.39004,1.80765 -4.39004,1.80765c-3.32674,-1.39279 -7.27444,-4.46635 -10.93383,-4.73482c-7.48043,-0.54879 -16.07538,3.05633 -23.35729,1.07787c-11.19233,-3.04091 -14.60701,-19.77647 -27.28284,-20.56974c-2.87425,0.00126 -5.81492,0.1685 -8.77917,0.37194c-3.11895,1.98512 -6.60708,3.26876 -10.49154,3.45412c-5.9047,0.28178 -9.72446,-3.3744 -15.85689,-1.98515c-10.03502,2.27332 -16.37819,9.65786 -27.37312,7.65983c0,0 -3.29191,-0.6584 -2.63352,-3.95028c0.6584,-3.29188 3.95028,-2.63355 3.95028,-2.63355c6.74206,1.53057 12.57836,-2.50049 18.61408,-5.39616c-6.81739,-1.88704 -13.6378,-3.12245 -20.70241,0.91163l-2.01289,0.42248c0,0 -3.35709,0 -3.35709,-3.35709c0,-2.50179 1.86438,-3.1392 2.81438,-3.30158c7.27154,-3.62067 17.82141,-4.01082 25.71251,-2.27963c4.18794,0.91876 7.29756,3.76849 11.50213,4.15313c5.78458,0.52916 11.79296,0.11051 17.76868,-0.28886c5.39082,-4.05631 9.3649,-10.99875 12.01775,-16.23797c1.77776,-8.24448 6.24768,-22.78641 15.08044,-26.15208c5.78597,-2.2047 14.98845,-0.25308 21.20882,-1.28598c9.27956,-1.54085 15.7149,-8.65735 25.48135,-9.59302l2.94784,-0.37041c0,0 3.33115,-0.4164 3.74756,2.91479z" fill="url(#color-61)" stroke="none" stroke-width="0.5"/><path d="M218.76988,260.91783c-12.10511,-4.72426 -7.74882,-12.59409 -13.36467,-20.90593c-2.0193,-2.98872 -7.23421,-4.66851 -9.87751,-6.1865c-8.26151,-4.74438 -8.54834,-4.64501 -13.38059,-13.84309c-5.24155,-9.9772 0.65417,-19.01584 -4.73579,-27.5829c-5.83173,-7.7891 -11.80831,-25.35483 -7.48699,-35.4039c0.31798,-0.73945 8.98511,-7.01963 9.56425,-9.96884c0.85726,-4.36564 -2.53815,-8.7185 -2.24093,-13.15761c0.70389,-10.51259 8.54048,-19.72763 13.30144,-28.20299c2.2656,-4.03315 1.22611,-9.42927 3.59053,-13.4053c2.31043,-3.8852 7.77342,-6.43222 9.73619,-10.8234c1.27443,-2.85121 0.48678,-6.67841 2.56226,-9.01204c6.99137,-7.86083 23.82343,-8.43056 33.19274,-7.51645c5.30641,-0.76303 10.73166,0.02358 16.0772,0.43005c12.66827,0.96329 22.26937,-6.11979 34.26627,2.01603c6.28893,4.26491 10.92865,11.4926 10.00051,19.52536c-0.25429,2.20064 -3.68807,2.79074 -4.57441,4.82098c-1.06074,2.42971 3.92638,3.56343 5.89232,5.34215c4.40255,3.98329 7.89905,9.43767 9.25519,15.21779c2.13924,9.1179 4.19142,23.48368 2.78464,32.74732c-0.34127,2.24715 -2.26085,4.10725 -2.42103,6.37453c-0.17747,2.51225 7.05739,8.88937 7.08046,8.93605c1.93057,3.9065 2.39908,8.37828 3.59861,12.56742c-2.34462,1.93722 -5.07063,3.48878 -7.03383,5.81166c-5.12105,6.05923 0.58916,18.44457 -0.65862,25.236c-1.15942,6.31062 -5.56713,13.23172 -9.96684,17.62869c-2.77903,2.77728 -7.11064,4.4807 -8.5148,8.15011c-3.47264,9.07481 0.61384,16.932 -7.35826,24.97469c-2.94112,2.96716 -12.49397,7.27651 -19.11437,9.17186c-1.47084,1.9491 -3.83303,2.60814 -3.83303,2.60814c-6.70863,1.79593 -16.13006,9.48642 -23.27237,7.46985c-4.34059,-1.22553 -6.40188,-5.9358 -8.93018,-10.00873c-1.45061,0.29816 -2.86099,0.56824 -4.20117,0.76768l-2.65643,0.39527c0,0 -5.60073,0.83342 -7.28081,-4.17385zM237.74125,249.34791c3.92627,-0.72803 7.86495,-1.29731 11.44159,-1.16566c4.95987,0.18254 9.57768,3.16765 14.54078,3.20441c3.75336,0.02779 6.92808,-3.35143 9.90326,-4.78534c1.68527,-0.81222 3.8591,-0.61488 5.32253,-1.7803c3.87501,-3.08598 2.18487,-15.90564 4.02663,-20.16337c4.17101,-9.64236 11.02613,-10.13676 15.81223,-18.4064c6.40547,-11.06764 -7.1346,-32.44513 10.02532,-37.4962c-6.00766,-3.14257 -10.82365,-9.90587 -11.32054,-16.85664c-0.21888,-3.06173 2.06612,-5.81675 2.55456,-8.84718c1.03723,-6.43528 -1.14356,-15.22514 -1.69793,-21.68776c-0.02987,-0.34817 -1.35713,-10.07842 -2.00649,-11.10438c-2.42312,-3.82843 -7.94132,-5.05 -10.2115,-8.97106c-2.08411,-3.59966 -4.15264,-7.67421 -3.97095,-11.8297c0.10695,-2.44568 3.72017,-3.38656 4.73365,-5.61492c0.98309,-2.16146 -2.62047,-4.11377 -4.57805,-5.45774c-5.92338,-4.06662 -11.8149,-0.51761 -18.34723,0.03691c-8.50535,0.722 -15.63301,-1.37963 -23.99945,-0.08956c-7.60357,-0.74187 -12.05699,0.09104 -19.3617,1.91148c-1.27106,0.31678 -3.12429,-0.31309 -3.85243,0.77583c-1.10814,1.65722 0.18292,4.13139 -0.64237,5.94614c-2.19879,4.83482 -7.55042,7.59264 -10.38737,12.08288c-2.38469,3.77436 -1.27188,9.0155 -3.34582,12.96917c-3.36788,6.42051 -11.56628,14.65349 -11.72401,22.58514c-0.10883,5.47358 3.46989,9.31679 1.97548,15.1776c-0.96636,3.78984 -3.49651,7.07124 -5.96953,10.10122c-1.1372,1.39331 -3.69318,1.2772 -4.58982,2.8362c-0.64163,1.1156 0.56928,2.51151 0.78441,3.78036c1.32876,7.83771 0.57205,12.34057 5.7378,18.46651c1.56442,3.01374 3.95747,5.72629 4.6932,9.04122c1.79357,8.08158 -3.23919,12.30546 0.77478,19.78276c5.21934,9.72267 15.92186,9.53674 22.29093,18.44658c1.79993,2.51798 2.66596,5.59928 3.69777,8.51738c0.87281,2.46838 0.11998,7.19625 2.73275,7.36369c4.94893,0.31714 10.70819,-1.09798 14.95759,1.23081z" fill="url(#color-62)" stroke="none" stroke-width="0.5"/></g><g stroke="none" stroke-width="0"><path d="M274.53967,133.95488c11.86722,0 21.48752,9.92408 21.48752,22.16606c0,12.24197 -9.62029,22.16606 -21.48752,22.16606c-11.86722,0 -21.48752,-9.92408 -21.48752,-22.16606c0,-12.24197 9.62029,-22.16606 21.48752,-22.16606z" fill="url(#color-63)"/><path d="M274.53967,154.72097c0.74952,0 1.3571,0.62677 1.3571,1.39996c0,0.77317 -0.60761,1.39996 -1.3571,1.39996c-0.74952,0 -1.3571,-0.62677 -1.3571,-1.39996c0,-0.77317 0.60761,-1.39996 1.3571,-1.39996z" fill="#ffffff"/></g></g></g></g></svg>