<svg version="1.1" xmlns="http://www.w3.org/2000/svg" xmlns:xlink="http://www.w3.org/1999/xlink" width="882.42777" height="744.87841" viewBox="0,0,882.42777,744.87841"><defs><linearGradient x1="219.68311" y1="259.39081" x2="245.36243" y2="260.68763" gradientUnits="userSpaceOnUse" id="color-1"><stop offset="0" stop-color="#7a7a7a"/><stop offset="1" stop-color="#a4a4a4"/></linearGradient><linearGradient x1="171.04916" y1="182.27365" x2="184.95435" y2="182.97586" gradientUnits="userSpaceOnUse" id="color-2"><stop offset="0" stop-color="#7a7a7a"/><stop offset="1" stop-color="#a4a4a4"/></linearGradient><linearGradient x1="284.66926" y1="188.01146" x2="298.57441" y2="188.71369" gradientUnits="userSpaceOnUse" id="color-3"><stop offset="0" stop-color="#7a7a7a"/><stop offset="1" stop-color="#a4a4a4"/></linearGradient><linearGradient x1="239.51315" y1="128.92881" x2="237.2314" y2="174.11197" gradientUnits="userSpaceOnUse" id="color-4"><stop offset="0" stop-color="#a4a4a4"/><stop offset="1" stop-color="#7a7a7a"/></linearGradient><linearGradient x1="237.62585" y1="142.25195" x2="236.95373" y2="155.56127" gradientUnits="userSpaceOnUse" id="color-5"><stop offset="0" stop-color="#6b6b6b"/><stop offset="1" stop-color="#222222"/></linearGradient><linearGradient x1="249.48732" y1="281.02893" x2="249.06001" y2="289.4909" gradientUnits="userSpaceOnUse" id="color-6"><stop offset="0" stop-color="#9a9a9a"/><stop offset="1" stop-color="#dedede"/></linearGradient><linearGradient x1="237.04706" y1="280.32382" x2="236.6197" y2="288.78579" gradientUnits="userSpaceOnUse" id="color-7"><stop offset="0" stop-color="#9a9a9a"/><stop offset="1" stop-color="#dedede"/></linearGradient><linearGradient x1="224.67949" y1="279.69925" x2="224.25215" y2="288.16124" gradientUnits="userSpaceOnUse" id="color-8"><stop offset="0" stop-color="#9a9a9a"/><stop offset="1" stop-color="#dedede"/></linearGradient><linearGradient x1="212.23919" y1="278.99411" x2="211.81187" y2="287.4561" gradientUnits="userSpaceOnUse" id="color-9"><stop offset="0" stop-color="#9a9a9a"/><stop offset="1" stop-color="#dedede"/></linearGradient><linearGradient x1="230.88298" y1="271.35305" x2="230.24783" y2="283.93053" gradientUnits="userSpaceOnUse" id="color-10"><stop offset="0" stop-color="#a4a4a4"/><stop offset="1" stop-color="#3d3d3d"/></linearGradient><linearGradient x1="248.88065" y1="295.90777" x2="248.45331" y2="304.36969" gradientUnits="userSpaceOnUse" id="color-11"><stop offset="0" stop-color="#dedede"/><stop offset="1" stop-color="#9a9a9a"/></linearGradient><linearGradient x1="236.43255" y1="295.35607" x2="236.00522" y2="303.81805" gradientUnits="userSpaceOnUse" id="color-12"><stop offset="0" stop-color="#dedede"/><stop offset="1" stop-color="#9a9a9a"/></linearGradient><linearGradient x1="224.06507" y1="294.73152" x2="223.63777" y2="303.19349" gradientUnits="userSpaceOnUse" id="color-13"><stop offset="0" stop-color="#dedede"/><stop offset="1" stop-color="#9a9a9a"/></linearGradient><linearGradient x1="211.61699" y1="294.17978" x2="211.18966" y2="302.64175" gradientUnits="userSpaceOnUse" id="color-14"><stop offset="0" stop-color="#dedede"/><stop offset="1" stop-color="#9a9a9a"/></linearGradient><linearGradient x1="229.60397" y1="299.54471" x2="228.96883" y2="312.1222" gradientUnits="userSpaceOnUse" id="color-15"><stop offset="0" stop-color="#a4a4a4"/><stop offset="1" stop-color="#3d3d3d"/></linearGradient><radialGradient cx="180.08603" cy="146.59059" r="41.4514" gradientUnits="userSpaceOnUse" id="color-16"><stop offset="0" stop-color="#ffffff"/><stop offset="1" stop-color="#c4bfb5"/></radialGradient><radialGradient cx="192.19282" cy="139.69804" r="15.40437" gradientUnits="userSpaceOnUse" id="color-17"><stop offset="0" stop-color="#ffffff"/><stop offset="1" stop-color="#ffffff" stop-opacity="0"/></radialGradient><radialGradient cx="293.09431" cy="152.7333" r="41.4514" gradientUnits="userSpaceOnUse" id="color-18"><stop offset="0" stop-color="#ffffff"/><stop offset="1" stop-color="#c5c1b7"/></radialGradient><radialGradient cx="304.63546" cy="145.37641" r="15.40437" gradientUnits="userSpaceOnUse" id="color-19"><stop offset="0" stop-color="#ffffff"/><stop offset="1" stop-color="#ffffff" stop-opacity="0"/></radialGradient><linearGradient x1="233.03554" y1="220.66659" x2="232.39615" y2="233.32819" gradientUnits="userSpaceOnUse" id="color-20"><stop offset="0" stop-color="#a4a4a4"/><stop offset="1" stop-color="#686868"/></linearGradient><radialGradient cx="418.55524" cy="2.84844" r="104.60042" gradientUnits="userSpaceOnUse" id="color-21"><stop offset="0" stop-color="#634a14"/><stop offset="1" stop-color="#443014"/></radialGradient><linearGradient x1="357.284" y1="-0.24678" x2="351.14256" y2="121.36566" gradientUnits="userSpaceOnUse" id="color-22"><stop offset="0" stop-color="#4a4a4a"/><stop offset="1" stop-color="#000000"/></linearGradient><radialGradient cx="72.3919" cy="-14.63282" r="104.60042" gradientUnits="userSpaceOnUse" id="color-23"><stop offset="0" stop-color="#634a14"/><stop offset="1" stop-color="#443014"/></radialGradient><linearGradient x1="133.66327" y1="-11.53964" x2="127.52182" y2="110.07279" gradientUnits="userSpaceOnUse" id="color-24"><stop offset="0" stop-color="#4a4a4a"/><stop offset="1" stop-color="#000000"/></linearGradient><radialGradient cx="306.79214" cy="95.55572" r="158.34957" gradientUnits="userSpaceOnUse" id="color-25"><stop offset="0" stop-color="#e0c297"/><stop offset="1" stop-color="#b9a17e"/></radialGradient><radialGradient cx="310.58642" cy="40.95712" r="153.14894" gradientUnits="userSpaceOnUse" id="color-26"><stop offset="0" stop-color="#634a14"/><stop offset="1" stop-color="#443014"/></radialGradient><linearGradient x1="226.8453" y1="383.81868" x2="227.081" y2="607.16948" gradientUnits="userSpaceOnUse" id="color-27"><stop offset="0" stop-color="#a4a4a4"/><stop offset="1" stop-color="#7a7a7a"/></linearGradient><linearGradient x1="226.8453" y1="383.81868" x2="226.86454" y2="402.03916" gradientUnits="userSpaceOnUse" id="color-28"><stop offset="0" stop-color="#a4a4a4"/><stop offset="1" stop-color="#7a7a7a"/></linearGradient><linearGradient x1="226.83662" y1="375.56635" x2="226.87324" y2="410.29156" gradientUnits="userSpaceOnUse" id="color-29"><stop offset="0" stop-color="#303030"/><stop offset="1" stop-color="#4b4b4b"/></linearGradient><linearGradient x1="-175.81086" y1="437.0956" x2="-214.64991" y2="457.87263" gradientUnits="userSpaceOnUse" id="color-30"><stop offset="0" stop-color="#9f896a"/><stop offset="1" stop-color="#6e604b"/></linearGradient><linearGradient x1="-187.04196" y1="431.39565" x2="-235.47649" y2="457.3058" gradientUnits="userSpaceOnUse" id="color-31"><stop offset="0" stop-color="#b9a17e"/><stop offset="1" stop-color="#9f896a"/></linearGradient><linearGradient x1="-198.94119" y1="419.74895" x2="-248.53864" y2="446.28121" gradientUnits="userSpaceOnUse" id="color-32"><stop offset="0" stop-color="#e0c297"/><stop offset="1" stop-color="#b9a17e"/></linearGradient><linearGradient x1="-152.89562" y1="411.35213" x2="-206.61433" y2="440.08918" gradientUnits="userSpaceOnUse" id="color-33"><stop offset="0" stop-color="#e0c297"/><stop offset="1" stop-color="#b9a17e"/></linearGradient><linearGradient x1="-160.33615" y1="439.56994" x2="-177.89365" y2="448.96234" gradientUnits="userSpaceOnUse" id="color-34"><stop offset="0" stop-color="#e0c297"/><stop offset="1" stop-color="#b9a17e"/></linearGradient><linearGradient x1="559.77327" y1="549.19675" x2="589.05839" y2="582.09869" gradientUnits="userSpaceOnUse" id="color-35"><stop offset="0" stop-color="#9f896a"/><stop offset="1" stop-color="#6e604b"/></linearGradient><linearGradient x1="572.28134" y1="547.72198" x2="608.80162" y2="588.75256" gradientUnits="userSpaceOnUse" id="color-36"><stop offset="0" stop-color="#b9a17e"/><stop offset="1" stop-color="#9f896a"/></linearGradient><linearGradient x1="587.46835" y1="540.89612" x2="624.86546" y2="582.91186" gradientUnits="userSpaceOnUse" id="color-37"><stop offset="0" stop-color="#e0c297"/><stop offset="1" stop-color="#b9a17e"/></linearGradient><linearGradient x1="547.14757" y1="517.12768" x2="587.65218" y2="562.63477" gradientUnits="userSpaceOnUse" id="color-38"><stop offset="0" stop-color="#e0c297"/><stop offset="1" stop-color="#b9a17e"/></linearGradient><linearGradient x1="544.39511" y1="546.17987" x2="557.63369" y2="561.05341" gradientUnits="userSpaceOnUse" id="color-39"><stop offset="0" stop-color="#e0c297"/><stop offset="1" stop-color="#b9a17e"/></linearGradient><radialGradient cx="-19.49844" cy="416.85046" r="30.2241" gradientUnits="userSpaceOnUse" id="color-40"><stop offset="0" stop-color="#bb8c8c"/><stop offset="1" stop-color="#9d7070"/></radialGradient><radialGradient cx="-37.50328" cy="413.84695" r="59.13989" gradientUnits="userSpaceOnUse" id="color-41"><stop offset="0" stop-color="#bb8c8c"/><stop offset="1" stop-color="#9d7070"/></radialGradient><radialGradient cx="462.89001" cy="439.92389" r="30.2241" gradientUnits="userSpaceOnUse" id="color-42"><stop offset="0" stop-color="#bb8c8c"/><stop offset="1" stop-color="#9d7070"/></radialGradient><radialGradient cx="481.13455" cy="440.49982" r="59.13989" gradientUnits="userSpaceOnUse" id="color-43"><stop offset="0" stop-color="#bb8c8c"/><stop offset="1" stop-color="#9d7070"/></radialGradient><radialGradient cx="106.9331" cy="390.19837" r="30.22414" gradientUnits="userSpaceOnUse" id="color-44"><stop offset="0" stop-color="#bb8c8c"/><stop offset="1" stop-color="#9d7070"/></radialGradient><radialGradient cx="86.19362" cy="387.83374" r="59.04094" gradientUnits="userSpaceOnUse" id="color-45"><stop offset="0" stop-color="#bb8c8c"/><stop offset="1" stop-color="#9d7070"/></radialGradient><radialGradient cx="344.11295" cy="389.05851" r="30.22414" gradientUnits="userSpaceOnUse" id="color-46"><stop offset="0" stop-color="#bb8c8c"/><stop offset="1" stop-color="#9d7070"/></radialGradient><radialGradient cx="364.91438" cy="390.79582" r="59.04094" gradientUnits="userSpaceOnUse" id="color-47"><stop offset="0" stop-color="#bb8c8c"/><stop offset="1" stop-color="#9d7070"/></radialGradient><linearGradient x1="148.08014" y1="477.45255" x2="312.93852" y2="477.2786" gradientUnits="userSpaceOnUse" id="color-48"><stop offset="0" stop-color="#bb8c8c"/><stop offset="1" stop-color="#9d7070"/></linearGradient><linearGradient x1="148.08095" y1="478.21452" x2="312.93932" y2="478.04056" gradientUnits="userSpaceOnUse" id="color-49"><stop offset="0" stop-color="#d8d8d8"/><stop offset="1" stop-color="#a7a7a7"/></linearGradient></defs><g transform="translate(251.66167,25.25945)"><g data-paper-data="{&quot;isPaintingLayer&quot;:true}" fill-rule="nonzero" stroke-linecap="butt" stroke-linejoin="miter" stroke-miterlimit="10" stroke-dasharray="" stroke-dashoffset="0" style="mix-blend-mode: normal"><path d="M371.20648,171.65376c-1.44222,28.55868 42.78757,57.97373 4.11893,105.81449c-40.19292,49.72667 -102.51995,57.18242 -149.06887,54.83169c-49.88367,-2.51914 -94.20107,-4.54919 -139.86538,-73.30819c-30.99072,-46.66424 10.56151,-75.86787 11.83691,-101.12344c3.77066,-74.66639 67.93567,-132.10949 143.31659,-128.30273c75.38092,3.80675 133.43247,67.42178 129.66181,142.08817z" fill="#191919" stroke="none" stroke-width="0"/><path d="M301.19416,253.04267c4.54033,-2.83039 9.78505,-12.86568 11.43149,-17.88725c0.29033,-6.50945 5.01523,-14.42546 3.85745,-20.63417c-1.25285,-6.71863 -5.23676,-13.2872 -7.13059,-19.88906c-1.72241,-6.00414 -3.59202,-11.79868 -5.98572,-17.30816c1.53486,7.33236 2.05072,14.92375 0.81103,20.81259c-1.66844,7.92567 -6.01825,15.27115 -5.06596,23.71187c1.32082,11.70671 9.25423,15.39376 2.62048,27.62844c-1.3283,2.06161 -2.79884,3.68726 -4.38898,4.96442c1.36109,-0.22019 2.66047,-0.65667 3.85076,-1.39867zM297.64716,154.12493c9.68714,11.1197 14.73621,24.13688 18.74369,38.25972c1.94464,6.8531 6.20298,13.71438 7.33209,20.74937c1.24049,7.72862 -3.43914,15.6558 -3.87349,23.4444c-2.32196,6.97722 -8.47196,19.04547 -14.85395,22.97387c-7.27509,4.47807 -15.84584,1.87048 -23.41577,0.59082c-14.17184,-2.39564 -28.4144,-0.91231 -42.18063,1.8549c-0.81627,-0.03641 -1.63247,-0.07362 -2.44861,-0.11146l0.35742,3.69737c0,0 -1.34416,3.55107 -4.7689,2.1718c-2.13858,-0.86129 -2.41764,-2.56944 -2.32558,-3.73097c-0.84656,-0.60249 -1.69975,-1.18123 -2.55532,-1.7424c-1.0538,0.40332 -2.88217,0.66824 -4.25846,-1.44931c-0.03372,-0.05187 -0.06606,-0.10344 -0.09702,-0.15473c-0.61691,-0.38777 -1.20443,-1.01155 -1.45,-2.01381c-0.53394,-0.32456 -1.06484,-0.64775 -1.59177,-0.97093c1.35512,2.68903 2.50068,5.52364 5.15756,7.47059l2.27052,1.94728c0,0 2.82398,2.4314 0.46582,5.36407c-2.35818,2.93267 -5.18213,0.50124 -5.18213,0.50124l-1.94995,-1.68655c-4.34515,-3.44357 -5.1788,-9.05827 -8.69914,-12.38875c-1.5941,-1.50813 -4.28486,-0.60548 -6.43371,-0.8548c-4.58081,-0.53149 -12.0279,-1.04432 -15.65801,-4.51322c-5.26107,-5.02737 -4.56662,-16.44619 -8.67725,-22.806c-12.05709,-1.36114 -21.84515,-12.2492 -18.77994,-25.52542c0.76123,-3.29721 3.62247,-5.69025 4.96425,-8.78456c2.79647,-6.44921 -2.73982,-16.15171 -3.39817,-22.29045c-0.88875,-8.28721 3.00713,-14.13685 7.8157,-19.64096c0.19789,-0.45998 0.40173,-0.92508 0.61074,-1.396c0,0 0.84464,-1.89623 2.63677,-2.24063c0.0027,-0.44462 0.0136,-0.89088 0.03299,-1.33888c0,0 0.19215,-3.80498 3.8662,-3.61943c3.67406,0.18554 3.48193,3.99052 3.48193,3.99052c-0.82043,13.70078 8.00275,22.49311 15.11321,32.51965c1.62266,2.28816 3.72462,7.77643 4.12313,10.5298c0.36928,2.55176 -1.74164,7.75851 0.6084,9.91257c3.39875,3.11531 11.91378,3.36191 14.26884,7.35747c2.66239,4.51699 1.79538,10.4528 3.26116,15.52556c3.06755,5.83526 4.77466,11.23133 6.20515,17.66644l0.42378,1.57343c0,0 0.97957,3.66841 -2.56672,4.69564c-3.5463,1.02724 -4.52586,-2.64119 -4.52586,-2.64119l-0.50216,-1.89404c-1.35302,-6.08681 -2.96547,-10.91873 -5.83288,-16.46138c-1.31026,-4.52406 -0.51517,-9.65795 -2.40768,-13.95353c-0.79643,-1.80774 -11.63837,-4.33696 -13.6525,-6.59507c-5.02589,-5.6348 -1.31698,-11.63509 -3.75382,-17.87288c-1.68288,-4.30787 -5.31994,-6.71794 -7.87717,-10.54777c-3.64525,-5.45933 -6.83519,-11.35403 -8.65603,-17.65526c-1.2858,3.74571 -1.52998,7.2988 1.12354,11.60065c1.9416,3.14766 5.16334,5.48165 6.51245,8.947c2.75639,7.07998 -2.47952,20.01314 3.90415,25.7823c8.01237,7.24112 16.91463,11.8556 20.81806,22.77965c0.91567,9.83482 6.0064,14.78009 12.41045,18.93627l1.2499,0.06312c4.65091,0.44021 9.17297,-2.81427 13.52644,-4.65318c7.98388,-3.37241 16.18667,-5.75829 23.37521,-10.79409c5.36005,-4.51036 4.1216,-17.00554 6.11318,-23.50843c1.71129,-5.58759 6.49992,-7.53797 10.20337,-11.27863c4.08366,-4.12475 7.96291,-10.6089 10.1163,-15.94733c4.04049,-10.01695 0.14603,-20.7812 0.65194,-31.10343c0,0 0.19215,-3.80498 3.8662,-3.61943c2.93411,0.14818 3.40252,2.6047 3.47215,3.58817c1.87536,-0.33 3.29005,1.29133 3.29005,1.29133zM274.18479,251.02281c7.47314,0.3774 16.87188,2.05436 21.25029,-5.46391c4.95845,-8.97838 -2.47196,-13.39892 -3.63794,-22.85775c-1.14843,-9.31662 3.26387,-17.23338 5.14863,-25.94244c1.26892,-5.86362 0.32957,-14.37709 -1.68383,-21.93375c-0.05553,4.06193 -0.59117,8.13875 -2.20823,12.2985c-2.398,6.16851 -7.00423,13.4855 -11.64217,18.20395c-2.3204,2.36073 -7.48694,4.57946 -8.40169,8.30595c-2.31669,9.43787 -1.44596,20.04684 -8.55154,27.06138c-3.79414,2.64616 -9.00797,5.79654 -14.67971,8.66618c7.95817,0.07566 16.01917,1.23833 24.40621,1.66187zM202.1931,232.84796c-3.21909,-9.10563 -12.64783,-12.77227 -18.90315,-19.13434c-6.36276,-6.47131 -4.54009,-16.24204 -4.8917,-24.29945c-0.21883,-5.01447 -2.89865,-6.64055 -5.31245,-9.9005c0.92923,3.16152 1.97752,6.32159 2.19398,9.43077c0.84752,12.17565 -14.04072,27.74042 4.39468,34.06343c1.82377,0.62553 3.76979,0.77699 5.65472,1.16551c4.38597,5.51916 6.15577,9.35532 8.09371,16.20607c0.70222,2.48248 -0.1584,5.92861 1.79737,7.53486c3.84401,3.15706 9.91752,2.11582 15.12563,2.61331c-4.37187,-4.14056 -7.49798,-9.44918 -8.15278,-17.67969z" fill="#000000" stroke="none" stroke-width="0.5"/><path d="M213.5364,381.10779l12.29345,-243.43404l25.67931,1.2968l-12.27823,243.13236z" fill="url(#color-1)" stroke="none" stroke-width="0"/><path d="M168.66325,229.51949l4.77183,-94.49164l13.90518,0.7022l-4.76592,94.37454z" fill="url(#color-2)" stroke="none" stroke-width="0"/><path d="M282.28333,235.25731l4.77183,-94.49164l13.90518,0.7022l-4.76592,94.37454z" fill="url(#color-3)" stroke="none" stroke-width="0"/><path d="M157.59309,170.09023l2.28175,-45.18308l159.27665,8.04347l-2.28175,45.18308z" fill="url(#color-4)" stroke="none" stroke-width="0"/><path d="M132.73594,150.29827l0.67213,-13.30942l208.43567,10.52602l-0.67213,13.30942z" fill="url(#color-5)" stroke="none" stroke-width="0"/><g stroke="none" stroke-width="0"><path d="M243.85265,289.22794l0.42736,-8.462l10.41472,0.52593l-0.42736,8.462z" fill="url(#color-6)"/><path d="M231.41234,288.52282l0.42736,-8.462l10.41476,0.52594l-0.42736,8.462z" fill="url(#color-7)"/><path d="M219.04484,287.89828l0.42736,-8.462l10.41472,0.52593l-0.42736,8.462z" fill="url(#color-8)"/><path d="M206.6045,287.19312l0.42736,-8.462l10.41472,0.52593l-0.42736,8.462z" fill="url(#color-9)"/><path d="M198.35791,282.32008l0.63516,-12.5775l63.77985,3.22088l-0.63516,12.5775z" fill="url(#color-10)"/></g><g data-paper-data="{&quot;index&quot;:null}" stroke="none" stroke-width="0"><path d="M254.08802,296.17075l-0.42736,8.462l-10.41472,-0.52593l0.42736,-8.462z" fill="url(#color-11)"/><path d="M241.63994,295.61903l-0.42736,8.462l-10.41472,-0.52593l0.42736,-8.462z" fill="url(#color-12)"/><path d="M229.27247,294.99447l-0.42736,8.462l-10.41472,-0.52593l0.42736,-8.462z" fill="url(#color-13)"/><path d="M216.82437,294.44276l-0.42736,8.462l-10.41472,-0.52593l0.42736,-8.462z" fill="url(#color-14)"/><path d="M261.4939,301.15514l-0.63516,12.5775l-63.77985,-3.22088l0.63516,-12.5775z" fill="url(#color-15)"/></g><g stroke-width="0"><g><path d="M221.27768,148.67078c-1.15463,22.86385 -20.53279,40.46731 -43.28231,39.31847c-22.74953,-1.14885 -40.25566,-20.61497 -39.10102,-43.47883c1.15463,-22.86385 20.53279,-40.46731 43.28231,-39.31847c22.74953,1.14885 40.25566,20.61497 39.10102,43.47883z" fill="url(#color-16)" stroke="#000000"/><path d="M194.0314,147.49091c-0.42908,8.49677 -7.1953,15.06066 -15.11274,14.6608c-7.91742,-0.39984 -13.98795,-7.61195 -13.55884,-16.10873c0.42908,-8.49677 7.19528,-15.06059 15.1127,-14.66078c7.91742,0.39984 13.98797,7.61193 13.55886,16.10868z" fill="#000000" stroke="none"/></g><path d="M206.52858,140.422c-0.42908,8.49677 -7.1953,15.06066 -15.11274,14.6608c-7.91742,-0.39984 -13.98795,-7.61195 -13.55884,-16.10873c0.42908,-8.49677 7.19528,-15.06059 15.1127,-14.66078c7.91742,0.39984 13.98797,7.61193 13.55886,16.10868z" fill="url(#color-17)" stroke="none"/></g><g stroke-width="0"><g><path d="M334.28599,154.81345c-1.15463,22.86385 -20.53279,40.46731 -43.28231,39.31847c-22.74953,-1.14885 -40.25566,-20.61497 -39.10102,-43.47883c1.15463,-22.86385 20.53279,-40.46731 43.28231,-39.31847c22.74953,1.14885 40.25566,20.61497 39.10102,43.47883z" fill="url(#color-18)" stroke="#000000"/><path d="M307.03973,153.63364c-0.42908,8.49677 -7.1953,15.06066 -15.11271,14.6608c-7.91742,-0.39984 -13.98795,-7.61195 -13.55884,-16.10873c0.42908,-8.49677 7.19528,-15.06059 15.1127,-14.66078c7.91742,0.39984 13.98795,7.61193 13.55885,16.10867z" fill="#000000" stroke="none"/></g><path d="M318.97123,146.10034c-0.42908,8.49677 -7.1953,15.06066 -15.11274,14.6608c-7.91742,-0.39984 -13.98795,-7.61195 -13.55884,-16.10873c0.42908,-8.49677 7.19528,-15.06059 15.1127,-14.66078c7.91742,0.39984 13.98797,7.61193 13.55886,16.10868z" fill="url(#color-19)" stroke="none"/></g><path d="M168.63354,230.10817l0.63941,-12.66164l127.52526,6.44003l-0.63861,12.64592z" fill="url(#color-20)" stroke="none" stroke-width="0"/><g data-paper-data="{&quot;index&quot;:null}" stroke="none" stroke-width="0"><path d="M516.03079,135.64273c0,0 -3.78513,24.03212 -11.89003,32.1475c-9.09942,9.11114 -20.87616,19.02938 -29.8724,20.08262c-11.20957,1.31234 -23.02046,-1.09688 -31.35672,-12.70285c-4.70482,-6.5502 -16.27763,-21.66213 -22.12191,-37.92612c-7.94782,-22.11786 -10.53974,-45.46336 -19.45088,-43.92724c-44.70434,7.70625 -106.35934,-32.39375 -101.36879,-42.9546c4.17877,-8.84303 28.27192,-36.18346 53.69117,-44.62794c111.45495,-53.74581 90.76648,54.03156 104.74792,94.83041c4.34564,12.68081 10.20256,22.97028 16.47609,33.14399c4.1564,6.74043 11.76383,11.03988 19.45842,13.77543c11.83836,4.20877 21.6872,-11.84121 21.6872,-11.84121z" fill="url(#color-21)"/><path d="M300.59576,17.09032l24.20929,-18.97735l83.02575,105.91557l-24.20927,18.9773z" fill="url(#color-22)"/></g><g stroke="none" stroke-width="0"><path d="M3.16527,109.88665c7.2665,-9.48999 14.13027,-19.13704 19.73127,-31.31551c18.02053,-39.18275 8.29515,-148.49601 113.76855,-83.79528c24.43917,10.96227 45.6554,40.59086 48.92204,49.80988c3.90121,11.0099 -61.47992,44.69455 -105.18047,32.52382c-8.71103,-2.42605 -13.64166,20.53958 -23.77729,41.74423c-7.45304,15.59248 -20.48944,29.46166 -25.83021,35.50456c-9.46308,10.70714 -21.4566,11.91419 -32.47692,9.47924c-8.84434,-1.95418 -19.56199,-13.00838 -27.69726,-22.98986c-1.17406,-1.44052 -2.19316,-3.28527 -3.07676,-5.36555c2.42655,1.71261 4.72231,3.4993 8.37725,3.74967c4.63526,0.23409 6.23636,-0.8216 4.93836,-4.61052c0.7603,-1.01146 1.37354,-2.97195 1.58091,-3.48396c0.48009,-1.18513 7.49174,0.0481 8.95685,-3.61596c1.18213,-2.95642 -3.06806,-4.67208 -6.94473,-6.42546c7.24044,-2.03302 14.3067,-5.46078 18.70835,-11.20927z" fill="url(#color-23)"/><path d="M95.04283,108.43261l-22.17426,-21.31968l93.27365,-97.01243l22.17425,21.3197z" fill="url(#color-24)"/></g><path d="M371.60974,170.97303c-1.44222,28.55868 42.78757,57.97373 4.11894,105.8145c-40.19292,49.72667 -102.51995,57.18242 -149.06887,54.83169c-49.88367,-2.51914 -94.20107,-4.54919 -139.86538,-73.30819c-30.99072,-46.66424 10.56151,-75.86787 11.83691,-101.12344c3.77066,-74.66639 67.93567,-132.10949 143.31659,-128.30273c75.38092,3.80675 133.43247,67.42178 129.66181,142.08817zM292.9742,198.00582c25.21721,1.27345 46.69216,-18.1368 47.96563,-43.35398c1.27345,-25.21721 -18.1368,-46.69216 -43.35398,-47.96563c-25.21721,-1.27345 -46.69216,18.1368 -47.96563,43.35398c-1.27345,25.21721 18.1368,46.69216 43.35398,47.96563zM178.3232,191.51484c25.21721,1.27345 46.69216,-18.1368 47.96563,-43.35398c1.27345,-25.21721 -18.1368,-46.69216 -43.35398,-47.96563c-25.21721,-1.27345 -46.69216,18.1368 -47.96563,43.35398c-1.27345,25.21721 18.1368,46.69216 43.35398,47.96563zM229.09644,310.62499c56.1153,3.88929 90.88067,-29.68034 91.72966,-46.4918c0.849,-16.81146 -35.58923,10.82812 -87.97271,8.08141c-67.41416,-3.53481 -86.41812,-33.96721 -87.2671,-17.15567c-0.849,16.81146 28.26173,51.73691 83.51016,55.56613z" fill="url(#color-25)" stroke="none" stroke-width="0"/><path d="M385.11903,113.11254c4.11086,30.8531 10.80752,52.42786 -18.06107,72.07583c-31.55062,21.47339 46.93056,-123.95532 -126.00795,-131.98347c-175.5323,-9.63994 -113.24852,142.1473 -142.5139,115.41232c-23.9329,-21.86357 -15.92726,-43.45106 -6.05799,-71.04602c23.98619,-67.06679 56.92885,-85.47717 148.88761,-80.83323c91.9588,4.64393 134.90135,29.9383 143.75331,96.37461z" fill="url(#color-26)" stroke="none" stroke-width="0"/><path d="M140.35687,598.07684c0,0 2.27108,-117.13605 -4.8688,-161.8958c-4.87315,-30.54957 -33.82069,-70.69327 -33.82069,-70.69327c0,0 84.86066,-24.89359 127.35401,-24.63248c41.66111,0.25597 125.15872,26.18412 125.15872,26.18412c0,0 -33.36039,34.82495 -38.27398,63.50642c-7.61763,44.46577 -3.00207,167.34891 -3.00207,167.34891z" fill="#191919" stroke="none" stroke-width="0"/><g stroke="none"><path d="M222.56458,398.73891c1.17868,-0.78759 2.21187,-0.84356 3.0446,-0.60328l-0.02963,-3.30338c0,0 -0.00403,-3.80985 3.80582,-3.81386c3.80985,-0.00403 3.81386,3.80582 3.81386,3.80582l-0.03301,3.5978c0.4224,1.47252 0.77953,3.14363 1.02568,4.91024l0.64045,2.23269c0.6254,2.18341 1.09253,4.3664 1.44156,6.54844c6.25011,13.4075 4.6438,31.18268 4.65045,45.35758c-0.03658,0.39903 -0.07433,0.79766 -0.11309,1.19589c4.29638,10.3248 10.59335,20.22895 11.34367,31.39239c0.73575,10.9464 -6.62499,20.15006 -5.30188,30.95505c0.51817,4.2318 10.98172,21.07138 15.23817,17.46314c3.7778,-3.87155 9.46331,-8.12902 10.88383,-13.71141c1.33854,-5.26023 -2.33347,-11.25737 -3.02987,-16.279c-0.36301,-2.61762 0.36565,-11.80189 0.62906,-13.13907c1.52856,-7.7598 7.77172,-13.45499 11.61277,-19.98026c0.16174,-0.27476 0.32011,-0.54874 0.47521,-0.82198c-1.15877,-8.9197 -3.5941,-17.63401 -7.78337,-25.78113c-3.89499,-10.33708 -11.5141,-22.98186 -7.22869,-34.5605c6.52737,-17.63611 26.70251,-18.55385 41.82495,-23.64715c0.81264,-0.27371 1.61032,-0.53449 2.39616,-0.77748c0.41164,-0.15328 0.82225,-0.29865 1.23121,-0.43603c0.82795,-0.27804 1.67238,-0.46991 2.52962,-0.58876c5.00416,-1.13898 9.72008,-1.15025 15.0741,1.38008c0,0 1.21426,0.60554 1.83211,1.81854c2.65639,0.8522 5.22767,1.61682 7.61701,1.93376c0,0 3.77212,0.53482 3.23728,4.30692c-0.53482,3.77212 -4.30692,3.23728 -4.30692,3.23728c-5.60935,-0.83564 -15.74187,-6.36188 -22.14473,-5.25145c-0.56658,0.15069 -1.13586,0.31927 -1.70929,0.49907c-8.26496,3.33629 -18.9981,10.23436 -20.13969,19.7161c-0.95303,7.91565 2.34855,15.90003 2.40564,23.74945c0.01362,12.89336 -0.97891,23.71978 -6.58681,35.08429c4.31339,29.86422 -4.67338,61.5538 -29.71584,79.4966c-13.04245,7.36767 -20.40252,-9.72655 -26.59098,-19.29161c-14.05386,-21.72195 -4.17564,-51.6091 -1.54304,-75.75566c-0.50378,-1.23542 -0.97028,-2.47196 -1.38412,-3.71082c-2.53411,-11.50524 -1.19807,-22.99711 -1.9343,-34.52719c-1.52042,0.99823 -3.22925,1.8316 -3.99615,3.40714c-1.46492,3.00965 -0.54676,8.47497 -0.77482,11.03348c-0.63242,7.09582 -4.20104,12.63448 -4.08689,19.67038c0.00791,7.51209 3.39825,23.64442 -1.86644,29.93404c-1.49502,1.78603 -3.39997,2.7688 -5.52832,3.13994c-4.57373,3.6519 -11.11005,5.23872 -12.0582,11.76c-1.44058,9.90828 8.1601,12.15058 11.02971,19.86549c3.26465,8.77693 0.04991,18.68238 -7.75911,23.08424c-15.41474,11.09564 -39.1461,6.35173 -42.03173,-15.39636c-1.04335,-7.86329 8.8886,-20.88779 5.54336,-27.84354c-3.38701,-7.04263 -10.83239,-12.76735 -14.597,-20.27584c-6.73636,-11.94279 -2.68306,-25.25442 -4.56822,-38.31831c-1.50033,-10.39711 -5.48672,-20.23763 -9.22191,-29.79426c-2.24067,-5.73286 -3.81243,-14.21977 -10.71151,-15.24764c-1.11822,0.61549 -2.27257,1.25349 -3.531,1.88645c0,0 -3.40581,1.70738 -5.11322,-1.69843c-1.70738,-3.40581 1.69839,-5.11323 1.69839,-5.11323c0.367,-0.18332 0.73996,-0.36518 1.11845,-0.54527c0.87508,-2.21686 3.52969,-2.21966 3.52969,-2.21966c0.4912,0.01962 0.96831,0.05198 1.43189,0.09675c15.75301,-6.01836 36.99481,-7.47967 41.8034,14.07622c2.46689,11.05855 -2.75267,18.7236 6.27798,27.81879c9.33995,5.28469 15.42685,12.87165 16.8197,23.76486c0.75969,5.94154 -0.95303,11.81076 2.43262,17.33477c1.56646,2.55582 3.37505,3.64658 5.88562,5.26042c0.58036,0.37303 5.56107,2.60941 8.73487,3.61311c2.6834,-8.49379 -0.97929,-20.5424 -2.78887,-28.69076c-0.94817,-9.28062 -4.63396,-21.72366 -2.33672,-30.94948c1.62366,-6.52062 7.19336,-14.20074 11.37098,-19.25935l0.10814,-0.44381c0,0 1.66554,-3.33987 5.00531,-1.75989c0.25189,-0.30916 0.58003,-0.60967 1.00184,-0.89152zM235.67711,508.58653c0.00667,6.33923 -0.64768,13.00984 2.51976,18.83694c3.44814,6.34355 8.09762,12.04895 12.58385,17.65214c2.59853,3.2455 2.85036,6.57887 6.07944,3.38334c1.15114,-0.82333 2.27593,-1.69429 3.3778,-2.60206c-8.84058,-0.47596 -15.38334,-10.1874 -19.40411,-18.52692c-6.109,-12.6708 4.57537,-24.22749 3.71662,-36.78919c-0.41688,-6.09865 -2.7533,-11.98801 -5.4497,-17.80067c-1.62668,11.86752 -3.43659,23.62005 -3.4237,35.84638zM281.8621,508.89021c1.09492,-7.35028 1.72936,-14.8766 1.63045,-22.37213c-2.47287,3.25743 -4.787,6.65664 -5.47689,10.4683c-1.26651,6.99767 1.46327,13.7142 2.51551,20.39946c0.56962,-2.98916 0.94999,-5.93805 1.33094,-8.49567zM274.87474,416.62584c-3.55659,9.37561 3.8917,20.84886 6.98542,29.08569c2.47007,5.0354 4.50305,10.3248 6.0806,15.76451c1.67576,-6.71125 1.94556,-13.51875 1.93731,-21.32354c0.0549,-8.14511 -3.40809,-16.30338 -2.36102,-24.58091c0.60346,-4.77047 2.86787,-9.2052 6.07734,-13.07102c-8.16522,2.4112 -15.67236,6.09228 -18.71963,14.12535zM224.09902,407.8594l-1.33206,-1.97631l-0.45896,0.82291c-3.46442,4.13301 -8.4772,10.76296 -9.81209,16.13034c-1.75597,7.0606 0.78401,16.88252 2.0049,24.68479c1.07283,-4.02089 2.51096,-7.84905 2.88743,-12.38323c0.46435,-5.59291 -1.01449,-8.59627 1.55692,-13.7261c1.38814,-2.76933 4.96311,-3.85303 6.76189,-6.37501c0.69499,-0.97444 1.08881,-2.27599 1.27173,-3.73255c-0.84922,-1.22011 -1.80489,-2.37223 -2.87977,-3.44479zM146.86346,408.78318c3.92285,10.07604 8.12573,20.54035 9.70532,31.48913c1.6978,11.76833 -2.38639,25.40402 3.76252,35.94428c3.69426,7.36991 12.10028,13.72223 14.91931,20.95497c3.99242,10.2433 -6.35747,20.07751 -5.00588,29.93424c2.23835,16.32336 19.66218,17.72002 30.4439,9.75223c13.72571,-6.2767 -1.39197,-18.2765 -4.67777,-24.82393c-1.17715,-2.3456 -2.46499,-10.64339 -2.10351,-12.84959c0.59555,-3.63494 3.73069,-8.71133 6.60757,-11.16434c0.6202,-0.52882 1.36668,-0.96347 2.16776,-1.36239c-5.88747,-2.64113 -11.36911,-7.22062 -13.59179,-10.80922c-5.6409,-9.10739 -1.21592,-19.8723 -6.05158,-29.09953c-2.44205,-4.65986 -6.95981,-7.42128 -11.32692,-9.92818c-4.07854,-4.04556 -7.62935,-8.21827 -9.09201,-14.01631c-1.45798,-5.77954 1.11352,-12.46884 -0.01928,-18.27311c-2.19442,-11.24388 -15.74496,-14.0193 -24.75164,-11.8253c4.37023,3.74731 6.54313,9.7304 9.01407,16.07711z" fill="#303030" stroke-width="0.5"/><path d="M207.12711,607.19055l-0.23567,-223.35079l39.90777,-0.04211l0.23567,223.35079z" fill="url(#color-27)" stroke-width="0"/><path d="M107.29278,402.16533l-0.01923,-18.22045l239.14352,-0.25234l0.01923,18.22045z" fill="url(#color-28)" stroke-width="0"/><path d="M142.07934,410.38105l-0.03665,-34.72522l169.58784,-0.17897l0.03665,34.72522z" fill="url(#color-29)" stroke-width="0"/></g><g data-paper-data="{&quot;index&quot;:null}" stroke="none" stroke-width="0"><path d="M-198.78904,475.21561c-11.71338,3.05161 -12.92248,-16.31376 -7.86678,-29.50958c5.05569,-13.19579 10.80614,-29.44338 19.45124,-25.67781c9.03313,3.93461 4.28439,13.90897 -0.77128,27.10481c-5.05569,13.19579 -1.18279,22.14546 -10.81318,28.08257z" fill="url(#color-30)"/><path d="M-226.81764,467.53463c-11.82355,-2.59226 -4.1189,-20.4001 6.3713,-29.86815c10.4902,-9.46807 22.9837,-21.341 28.98095,-14.06432c6.26647,7.60325 -2.48925,14.33944 -12.97947,23.80748c-10.4902,9.46807 -11.09717,19.2009 -22.3728,20.12501z" fill="url(#color-31)"/><path d="M-249.38245,443.93637c-8.36529,-8.74856 7.96489,-19.2273 21.95323,-21.23098c13.98836,-2.00369 30.981,-4.88524 31.89756,4.49969c0.95777,9.80618 -10.0669,10.5106 -24.05527,12.51429c-13.98836,2.00369 -19.92284,9.74177 -29.79553,4.21701z" fill="url(#color-32)"/><path d="M-210.73093,430.52083c-2.50608,-15.05872 12.13357,-14.42518 29.29783,-16.88376c17.16421,-2.45855 31.50493,-5.13889 32.8593,7.98048c1.41518,13.70828 -12.13357,14.42518 -29.29783,16.88376c-17.16421,2.45855 -30.54903,5.90198 -32.8593,-7.98048z" fill="url(#color-33)"/><path d="M-177.75284,446.00151c-7.54104,-11.95079 -14.1505,-20.80258 -6.06234,-26.42936c7.74069,-5.38505 16.56052,9.42251 24.10157,21.3733c7.54104,11.95079 10.14626,31.17818 -1.93784,30.47857c-10.60628,-3.93705 -8.56029,-13.47176 -16.10137,-25.42253z" data-paper-data="{&quot;index&quot;:null}" fill="url(#color-34)"/></g><g data-paper-data="{&quot;index&quot;:null}" stroke="none" stroke-width="0"><path d="M567.72795,562.81511c-0.19219,-14.12983 -1.20782,-25.13016 8.62818,-25.70641c9.41344,-0.55147 9.20483,16.68245 9.39704,30.81228c0.19222,14.12982 -7.62436,31.88879 -17.5655,24.98306c-6.99047,-8.89533 -0.26748,-15.95912 -0.45969,-30.08896z" fill="url(#color-35)"/><path d="M597.14522,595.3657c-10.26433,-4.75783 -7.47586,-14.10238 -14.05508,-26.6085c-6.57923,-12.5061 -12.47306,-21.84964 -3.96801,-26.82385c8.13967,-4.76054 15.76938,10.69393 22.34855,23.20005c6.57918,12.50608 7.66637,31.87868 -4.32549,30.23225z" fill="url(#color-36)"/><path d="M599.95572,566.76367c-12.43798,-6.70708 -22.54258,-11.17212 -18.26018,-20.04566c4.09841,-8.49235 19.0533,0.07528 31.49129,6.78238c12.43798,6.70708 24.14983,22.17678 13.27968,27.50179c-11.17269,1.77907 -14.0728,-7.53144 -26.51082,-14.23852z" fill="url(#color-37)"/><path d="M561.22245,551.22721c-15.26189,-8.22986 -27.73126,-13.57752 -21.67315,-25.9557c5.79781,-11.8464 18.33309,-4.38264 33.59496,3.84718c15.26189,8.22986 29.2211,12.6864 21.67315,25.9557c-6.95833,12.23284 -18.33309,4.38264 -33.59496,-3.84718z" fill="url(#color-38)"/><path d="M558.52316,558.22582c-11.20142,8.61494 -12.57087,18.27007 -23.88424,18.3058c-11.58343,-3.51278 -2.50406,-20.66055 8.6973,-29.27549c11.20141,-8.61495 24.58875,-19.47006 29.996,-11.74493c5.65003,8.07195 -3.6077,14.09968 -14.80911,22.71463z" data-paper-data="{&quot;index&quot;:null}" fill="url(#color-39)"/></g><g stroke="none" stroke-width="0"><path d="M-14.4368,461.34532c-16.28833,3.65025 -32.39144,-6.32591 -35.96727,-22.28233c-3.57589,-15.95644 6.72963,-31.85073 23.01796,-35.50099c16.28833,-3.65025 32.3914,6.32589 35.96727,22.28233c3.57589,15.95644 -6.72963,31.85073 -23.01795,35.50102z" fill="url(#color-40)"/><path d="M-141.99584,433.91374l113.60141,-32.45985l14.06996,62.7838l-116.53818,18.53133z" fill="url(#color-41)"/></g><g data-paper-data="{&quot;index&quot;:null}" stroke="none" stroke-width="0"><path d="M449.22358,482.56946c-15.25979,-6.76552 -22.25758,-24.36845 -15.62995,-39.31732c6.62763,-14.94888 24.37088,-21.58284 39.63071,-14.81734c15.2598,6.76549 22.25759,24.36842 15.62994,39.3173c-6.62758,14.94886 -24.37088,21.58284 -39.63071,14.81734z" fill="url(#color-42)"/><path d="M559.21075,526.35044l-110.663,-40.96647l26.07776,-58.81938l105.05877,54.05162z" fill="url(#color-43)"/></g><g stroke="none" stroke-width="0"><path d="M111.39745,431.87281c-16.24167,3.85256 -32.46761,-5.92251 -36.24169,-21.83324c-3.77408,-15.91073 6.33291,-31.932 22.5746,-35.78457c16.24167,-3.85256 32.46761,5.92251 36.24169,21.83324c3.77408,15.91073 -6.33291,31.932 -22.5746,35.78453z" fill="url(#color-44)"/><path d="M-17.98558,399.36238l114.68154,-27.20275l14.84979,62.60394l-114.68154,27.20275z" fill="url(#color-45)"/></g><g data-paper-data="{&quot;index&quot;:null}" stroke="none" stroke-width="0"><path d="M331.58395,429.05487c-15.17448,-6.95476 -21.95275,-24.64338 -15.13969,-39.50866c6.81304,-14.8653 24.63747,-21.27803 39.81195,-14.32326c15.17452,6.95478 21.95277,24.6434 15.13971,39.5087c-6.81304,14.8653 -24.63747,21.27803 -39.81195,14.32326z" fill="url(#color-46)"/><path d="M438.0194,480.96812l-107.14627,-49.10729l26.80736,-58.49047l107.14627,49.10729z" fill="url(#color-47)"/></g><g><g><path d="M139.94864,597.53769c0,0 2.83986,-117.70604 -4.30006,-162.46576c-4.87315,-30.54957 -33.8194,-69.48099 -33.8194,-69.48099c0,0 84.85937,-26.10584 127.35275,-25.84475c41.66111,0.25597 125.15999,27.39638 125.15999,27.39638c0,0 -33.3617,33.6127 -38.27523,62.29416c-7.61763,44.46577 -2.43207,167.91768 -2.43207,167.91768l70.44378,85.00823c0,0 9.67762,36.03775 -156.57098,37.25631c-159.70038,-1.82007 -162.34666,-35.90009 -162.34666,-35.90009z" fill="url(#color-48)" stroke="none" stroke-width="0"/><path d="" fill="#ffdf00" stroke="#ffdf00" stroke-width="2"/></g><g><path d="M139.5634,577.36823l0.10298,-52.55044l172.27971,-0.18986l1.22577,53.32402z" fill="url(#color-49)" stroke="none" stroke-width="0"/><path d="" fill="#ffdf00" stroke="#ffdf00" stroke-width="2"/></g></g></g></g></svg>