<svg version="1.1" xmlns="http://www.w3.org/2000/svg" xmlns:xlink="http://www.w3.org/1999/xlink" width="416.53" height="228.19709" viewBox="0,0,416.53,228.19709"><defs><radialGradient cx="203.96927" cy="233.09292" r="3.17344" gradientUnits="userSpaceOnUse" id="color-1"><stop offset="0" stop-color="#aab7d5"/><stop offset="1" stop-color="#848fa2"/></radialGradient><radialGradient cx="203.96797" cy="239.69232" r="6.5378" gradientUnits="userSpaceOnUse" id="color-2"><stop offset="0" stop-color="#aab7d5"/><stop offset="1" stop-color="#848fa2"/></radialGradient><radialGradient cx="202.46497" cy="219.85931" r="3.17344" gradientUnits="userSpaceOnUse" id="color-3"><stop offset="0" stop-color="#aab7d5"/><stop offset="1" stop-color="#848fa2"/></radialGradient><radialGradient cx="203.00312" cy="226.43673" r="6.5378" gradientUnits="userSpaceOnUse" id="color-4"><stop offset="0" stop-color="#aab7d5"/><stop offset="1" stop-color="#848fa2"/></radialGradient><linearGradient x1="212.60182" y1="246.05547" x2="199.95892" y2="246.05547" gradientUnits="userSpaceOnUse" id="color-5"><stop offset="0" stop-color="#b7b7b7"/><stop offset="1" stop-color="#e0e0e0"/></linearGradient><radialGradient cx="189.45162" cy="233.41299" r="3.17344" gradientUnits="userSpaceOnUse" id="color-6"><stop offset="0" stop-color="#aab7d5"/><stop offset="1" stop-color="#848fa2"/></radialGradient><radialGradient cx="189.45292" cy="240.0124" r="6.5378" gradientUnits="userSpaceOnUse" id="color-7"><stop offset="0" stop-color="#aab7d5"/><stop offset="1" stop-color="#848fa2"/></radialGradient><radialGradient cx="191.14948" cy="220.20248" r="3.17344" gradientUnits="userSpaceOnUse" id="color-8"><stop offset="0" stop-color="#aab7d5"/><stop offset="1" stop-color="#848fa2"/></radialGradient><radialGradient cx="190.37665" cy="226.75648" r="6.5378" gradientUnits="userSpaceOnUse" id="color-9"><stop offset="0" stop-color="#aab7d5"/><stop offset="1" stop-color="#848fa2"/></radialGradient><linearGradient x1="187.8672" y1="215.88706" x2="205.86543" y2="215.88706" gradientUnits="userSpaceOnUse" id="color-10"><stop offset="0" stop-color="#848fa2"/><stop offset="1" stop-color="#aab7d5"/></linearGradient><linearGradient x1="196.87477" y1="194.23455" x2="196.87477" y2="215.82048" gradientUnits="userSpaceOnUse" id="color-11"><stop offset="0" stop-color="#636363"/><stop offset="1" stop-color="#cfcfcf"/></linearGradient><linearGradient x1="196.90467" y1="193.33763" x2="196.90467" y2="195.25107" gradientUnits="userSpaceOnUse" id="color-12"><stop offset="0" stop-color="#939393"/><stop offset="1" stop-color="#b5b5b5"/></linearGradient><linearGradient x1="227.61893" y1="218.81727" x2="222.17748" y2="220.41867" gradientUnits="userSpaceOnUse" id="color-13"><stop offset="0" stop-color="#ad8b5c"/><stop offset="1" stop-color="#80633b"/></linearGradient><linearGradient x1="227.0033" y1="221.34423" x2="224.90296" y2="220.68128" gradientUnits="userSpaceOnUse" id="color-14"><stop offset="0" stop-color="#d6a763"/><stop offset="1" stop-color="#ad8b5c"/></linearGradient><linearGradient x1="228.59608" y1="221.35686" x2="226.4832" y2="221.97867" gradientUnits="userSpaceOnUse" id="color-15"><stop offset="0" stop-color="#ffcd86"/><stop offset="1" stop-color="#d6a763"/></linearGradient><linearGradient x1="227.54179" y1="216.79369" x2="224.98792" y2="217.54529" gradientUnits="userSpaceOnUse" id="color-16"><stop offset="0" stop-color="#ffcd86"/><stop offset="1" stop-color="#d6a763"/></linearGradient><linearGradient x1="224.20663" y1="215.94848" x2="223.91146" y2="218.13109" gradientUnits="userSpaceOnUse" id="color-17"><stop offset="0" stop-color="#ffcd86"/><stop offset="1" stop-color="#d6a763"/></linearGradient><radialGradient cx="219.79125" cy="203.86431" r="3.23624" gradientUnits="userSpaceOnUse" id="color-18"><stop offset="0" stop-color="#87b3ff"/><stop offset="1" stop-color="#6388d6"/></radialGradient><radialGradient cx="222.89246" cy="209.28428" r="6.23102" gradientUnits="userSpaceOnUse" id="color-19"><stop offset="0" stop-color="#87b3ff"/><stop offset="1" stop-color="#6388d6"/></radialGradient><radialGradient cx="209.89347" cy="194.4926" r="3.23624" gradientUnits="userSpaceOnUse" id="color-20"><stop offset="0" stop-color="#87b3ff"/><stop offset="1" stop-color="#6388d6"/></radialGradient><radialGradient cx="214.44442" cy="198.76732" r="4.84338" gradientUnits="userSpaceOnUse" id="color-21"><stop offset="0" stop-color="#87b3ff"/><stop offset="1" stop-color="#6388d6"/></radialGradient><linearGradient x1="166.69707" y1="217.82309" x2="172.2269" y2="219.08595" gradientUnits="userSpaceOnUse" id="color-22"><stop offset="0" stop-color="#ad8b5c"/><stop offset="1" stop-color="#80633b"/></linearGradient><linearGradient x1="167.46732" y1="220.30728" x2="169.52279" y2="219.5161" gradientUnits="userSpaceOnUse" id="color-23"><stop offset="0" stop-color="#d6a763"/><stop offset="1" stop-color="#ad8b5c"/></linearGradient><linearGradient x1="165.87835" y1="220.41809" x2="168.02555" y2="220.90845" gradientUnits="userSpaceOnUse" id="color-24"><stop offset="0" stop-color="#ffcd86"/><stop offset="1" stop-color="#d6a763"/></linearGradient><linearGradient x1="166.64931" y1="215.7986" x2="169.24465" y2="216.39131" gradientUnits="userSpaceOnUse" id="color-25"><stop offset="0" stop-color="#ffcd86"/><stop offset="1" stop-color="#d6a763"/></linearGradient><linearGradient x1="169.92601" y1="214.74937" x2="170.35519" y2="216.90963" gradientUnits="userSpaceOnUse" id="color-26"><stop offset="0" stop-color="#ffcd86"/><stop offset="1" stop-color="#d6a763"/></linearGradient><radialGradient cx="174.86317" cy="202.73423" r="3.23624" gradientUnits="userSpaceOnUse" id="color-27"><stop offset="0" stop-color="#87b3ff"/><stop offset="1" stop-color="#6388d6"/></radialGradient><radialGradient cx="171.34357" cy="207.89233" r="6.23102" gradientUnits="userSpaceOnUse" id="color-28"><stop offset="0" stop-color="#87b3ff"/><stop offset="1" stop-color="#6388d6"/></radialGradient><linearGradient x1="194.02472" y1="165.77146" x2="196.15955" y2="189.72104" gradientUnits="userSpaceOnUse" id="color-29"><stop offset="0" stop-color="#b1b1b1"/><stop offset="1" stop-color="#dedede"/></linearGradient><linearGradient x1="186.02475" y1="169.90288" x2="202.70645" y2="168.4159" gradientUnits="userSpaceOnUse" id="color-30"><stop offset="0" stop-color="#b1b1b1"/><stop offset="1" stop-color="#dedede"/></linearGradient><linearGradient x1="194.25331" y1="168.19742" x2="194.37757" y2="169.59136" gradientUnits="userSpaceOnUse" id="color-31"><stop offset="0" stop-color="#222222"/><stop offset="1" stop-color="#494949"/></linearGradient><linearGradient x1="195.33482" y1="181.73093" x2="195.45224" y2="183.04822" gradientUnits="userSpaceOnUse" id="color-32"><stop offset="0" stop-color="#b1b1b1"/><stop offset="1" stop-color="#dedede"/></linearGradient><linearGradient x1="195.67177" y1="185.60184" x2="195.55435" y2="184.28455" gradientUnits="userSpaceOnUse" id="color-33"><stop offset="0" stop-color="#b1b1b1"/><stop offset="1" stop-color="#dedede"/></linearGradient><radialGradient cx="185.47021" cy="194.17353" r="3.23624" gradientUnits="userSpaceOnUse" id="color-34"><stop offset="0" stop-color="#87b3ff"/><stop offset="1" stop-color="#6388d6"/></radialGradient><radialGradient cx="180.59586" cy="198.07547" r="4.84338" gradientUnits="userSpaceOnUse" id="color-35"><stop offset="0" stop-color="#87b3ff"/><stop offset="1" stop-color="#6388d6"/></radialGradient><linearGradient x1="188.62272" y1="203.22216" x2="205.93543" y2="203.22216" gradientUnits="userSpaceOnUse" id="color-36"><stop offset="0" stop-color="#87b3ff"/><stop offset="1" stop-color="#6388d6"/></linearGradient><linearGradient x1="180.81907" y1="246.37554" x2="193.46197" y2="246.37554" gradientUnits="userSpaceOnUse" id="color-37"><stop offset="0" stop-color="#b7b7b7"/><stop offset="1" stop-color="#e0e0e0"/></linearGradient><linearGradient x1="179.88357" y1="171.86394" x2="208.47372" y2="169.31545" gradientUnits="userSpaceOnUse" id="color-38"><stop offset="0" stop-color="#ffcd86"/><stop offset="1" stop-color="#d6a763"/></linearGradient><linearGradient x1="179.22977" y1="171.72798" x2="209.04236" y2="169.07052" gradientUnits="userSpaceOnUse" id="color-39"><stop offset="0" stop-color="#683d00"/><stop offset="1" stop-color="#966701"/></linearGradient><radialGradient cx="267.45056" cy="233.52795" r="3.14016" gradientUnits="userSpaceOnUse" id="color-40"><stop offset="0" stop-color="#ffcd86"/><stop offset="1" stop-color="#d6a763"/></radialGradient><radialGradient cx="267.74524" cy="240.0515" r="6.46925" gradientUnits="userSpaceOnUse" id="color-41"><stop offset="0" stop-color="#ffcccc"/><stop offset="1" stop-color="#a38484"/></radialGradient><radialGradient cx="278.34912" cy="233.52795" r="3.14016" gradientUnits="userSpaceOnUse" id="color-42"><stop offset="0" stop-color="#ffcd86"/><stop offset="1" stop-color="#d6a763"/></radialGradient><radialGradient cx="278.05444" cy="240.0515" r="6.46925" gradientUnits="userSpaceOnUse" id="color-43"><stop offset="0" stop-color="#ffcccc"/><stop offset="1" stop-color="#a38484"/></radialGradient><radialGradient cx="267.38864" cy="220.40946" r="3.14016" gradientUnits="userSpaceOnUse" id="color-44"><stop offset="0" stop-color="#aab7d5"/><stop offset="1" stop-color="#848fa2"/></radialGradient><radialGradient cx="267.68591" cy="226.92691" r="6.46925" gradientUnits="userSpaceOnUse" id="color-45"><stop offset="0" stop-color="#ffcd86"/><stop offset="1" stop-color="#d6a763"/></radialGradient><radialGradient cx="278.41104" cy="220.40946" r="3.14016" gradientUnits="userSpaceOnUse" id="color-46"><stop offset="0" stop-color="#aab7d5"/><stop offset="1" stop-color="#848fa2"/></radialGradient><radialGradient cx="278.11377" cy="226.92691" r="6.46925" gradientUnits="userSpaceOnUse" id="color-47"><stop offset="0" stop-color="#ffcd86"/><stop offset="1" stop-color="#d6a763"/></radialGradient><linearGradient x1="263.921" y1="215.84662" x2="281.7305" y2="215.84662" gradientUnits="userSpaceOnUse" id="color-48"><stop offset="0" stop-color="#848fa2"/><stop offset="1" stop-color="#aab7d5"/></linearGradient><linearGradient x1="272.83411" y1="194.42117" x2="272.83411" y2="215.78073" gradientUnits="userSpaceOnUse" id="color-49"><stop offset="0" stop-color="#636363"/><stop offset="1" stop-color="#cfcfcf"/></linearGradient><linearGradient x1="272.86369" y1="193.53365" x2="272.86369" y2="195.42702" gradientUnits="userSpaceOnUse" id="color-50"><stop offset="0" stop-color="#939393"/><stop offset="1" stop-color="#b5b5b5"/></linearGradient><linearGradient x1="295.83387" y1="222.91185" x2="290.5627" y2="224.83993" gradientUnits="userSpaceOnUse" id="color-51"><stop offset="0" stop-color="#ad8b5c"/><stop offset="1" stop-color="#80633b"/></linearGradient><linearGradient x1="295.38699" y1="225.44635" x2="293.27074" y2="224.92556" gradientUnits="userSpaceOnUse" id="color-52"><stop offset="0" stop-color="#d6a763"/><stop offset="1" stop-color="#ad8b5c"/></linearGradient><linearGradient x1="296.96061" y1="225.35733" x2="294.91385" y2="226.10599" gradientUnits="userSpaceOnUse" id="color-53"><stop offset="0" stop-color="#ffcd86"/><stop offset="1" stop-color="#d6a763"/></linearGradient><linearGradient x1="295.62873" y1="220.91857" x2="293.15479" y2="221.82349" gradientUnits="userSpaceOnUse" id="color-54"><stop offset="0" stop-color="#ffcd86"/><stop offset="1" stop-color="#d6a763"/></linearGradient><linearGradient x1="292.28154" y1="220.29649" x2="292.12916" y2="222.47054" gradientUnits="userSpaceOnUse" id="color-55"><stop offset="0" stop-color="#ffcd86"/><stop offset="1" stop-color="#d6a763"/></linearGradient><radialGradient cx="289.16251" cy="207.47652" r="3.2023" gradientUnits="userSpaceOnUse" id="color-56"><stop offset="0" stop-color="#ff8787"/><stop offset="1" stop-color="#d66363"/></radialGradient><radialGradient cx="291.41542" cy="213.23017" r="6.16568" gradientUnits="userSpaceOnUse" id="color-57"><stop offset="0" stop-color="#ff8787"/><stop offset="1" stop-color="#d66363"/></radialGradient><radialGradient cx="284.45701" cy="195.20761" r="3.2023" gradientUnits="userSpaceOnUse" id="color-58"><stop offset="0" stop-color="#ff8787"/><stop offset="1" stop-color="#d66363"/></radialGradient><radialGradient cx="286.80032" cy="200.92425" r="4.79259" gradientUnits="userSpaceOnUse" id="color-59"><stop offset="0" stop-color="#ff8787"/><stop offset="1" stop-color="#d66363"/></radialGradient><linearGradient x1="251.31415" y1="223.15101" x2="256.60189" y2="225.03314" gradientUnits="userSpaceOnUse" id="color-60"><stop offset="0" stop-color="#ad8b5c"/><stop offset="1" stop-color="#80633b"/></linearGradient><linearGradient x1="251.78306" y1="225.68152" x2="253.89469" y2="225.14234" gradientUnits="userSpaceOnUse" id="color-61"><stop offset="0" stop-color="#d6a763"/><stop offset="1" stop-color="#ad8b5c"/></linearGradient><linearGradient x1="250.20873" y1="225.60619" x2="252.26193" y2="226.33701" gradientUnits="userSpaceOnUse" id="color-62"><stop offset="0" stop-color="#ffcd86"/><stop offset="1" stop-color="#d6a763"/></linearGradient><linearGradient x1="251.50193" y1="221.15601" x2="253.98365" y2="222.03937" gradientUnits="userSpaceOnUse" id="color-63"><stop offset="0" stop-color="#ffcd86"/><stop offset="1" stop-color="#d6a763"/></linearGradient><linearGradient x1="254.84358" y1="220.50483" x2="255.01488" y2="222.67747" gradientUnits="userSpaceOnUse" id="color-64"><stop offset="0" stop-color="#ffcd86"/><stop offset="1" stop-color="#d6a763"/></linearGradient><radialGradient cx="257.85093" cy="207.6582" r="3.2023" gradientUnits="userSpaceOnUse" id="color-65"><stop offset="0" stop-color="#ff8787"/><stop offset="1" stop-color="#d66363"/></radialGradient><radialGradient cx="255.64818" cy="213.43124" r="6.16568" gradientUnits="userSpaceOnUse" id="color-66"><stop offset="0" stop-color="#ff8787"/><stop offset="1" stop-color="#d66363"/></radialGradient><linearGradient x1="274.15819" y1="165.40026" x2="273.11346" y2="189.16971" gradientUnits="userSpaceOnUse" id="color-67"><stop offset="0" stop-color="#b1b1b1"/><stop offset="1" stop-color="#dedede"/></linearGradient><linearGradient x1="265.77042" y1="168.40395" x2="282.32666" y2="169.13164" gradientUnits="userSpaceOnUse" id="color-68"><stop offset="0" stop-color="#b1b1b1"/><stop offset="1" stop-color="#dedede"/></linearGradient><linearGradient x1="274.06448" y1="167.80958" x2="274.00367" y2="169.19304" gradientUnits="userSpaceOnUse" id="color-69"><stop offset="0" stop-color="#222222"/><stop offset="1" stop-color="#494949"/></linearGradient><linearGradient x1="273.35166" y1="181.22495" x2="273.2942" y2="182.53233" gradientUnits="userSpaceOnUse" id="color-70"><stop offset="0" stop-color="#b1b1b1"/><stop offset="1" stop-color="#dedede"/></linearGradient><linearGradient x1="273.17486" y1="185.06568" x2="273.23233" y2="183.7583" gradientUnits="userSpaceOnUse" id="color-71"><stop offset="0" stop-color="#b1b1b1"/><stop offset="1" stop-color="#dedede"/></linearGradient><radialGradient cx="261.61061" cy="195.35085" r="3.2023" gradientUnits="userSpaceOnUse" id="color-72"><stop offset="0" stop-color="#ff8787"/><stop offset="1" stop-color="#d66363"/></radialGradient><radialGradient cx="259.7321" cy="201.23662" r="4.79259" gradientUnits="userSpaceOnUse" id="color-73"><stop offset="0" stop-color="#ff8787"/><stop offset="1" stop-color="#d66363"/></radialGradient><linearGradient x1="259.14468" y1="246.34872" x2="271.655" y2="246.34872" gradientUnits="userSpaceOnUse" id="color-74"><stop offset="0" stop-color="#f8c7c7"/><stop offset="1" stop-color="#a38484"/></linearGradient><linearGradient x1="286.655" y1="246.34872" x2="274.14468" y2="246.34872" gradientUnits="userSpaceOnUse" id="color-75"><stop offset="0" stop-color="#f8c7c7"/><stop offset="1" stop-color="#a38484"/></linearGradient><linearGradient x1="245.95716" y1="168.54798" x2="263.24443" y2="169.3078" gradientUnits="userSpaceOnUse" id="color-76"><stop offset="0" stop-color="#683d00"/><stop offset="1" stop-color="#966701"/></linearGradient><linearGradient x1="302.1561" y1="171.17658" x2="284.86883" y2="170.41676" gradientUnits="userSpaceOnUse" id="color-77"><stop offset="0" stop-color="#683d00"/><stop offset="1" stop-color="#966701"/></linearGradient><linearGradient x1="259.49017" y1="169.52256" x2="287.8653" y2="170.76972" gradientUnits="userSpaceOnUse" id="color-78"><stop offset="0" stop-color="#ffcd86"/><stop offset="1" stop-color="#d6a763"/></linearGradient><linearGradient x1="258.06635" y1="162.77625" x2="289.8644" y2="164.17385" gradientUnits="userSpaceOnUse" id="color-79"><stop offset="0" stop-color="#683d00"/><stop offset="1" stop-color="#966701"/></linearGradient><linearGradient x1="264.6686" y1="203.26174" x2="281.79976" y2="203.26174" gradientUnits="userSpaceOnUse" id="color-80"><stop offset="0" stop-color="#ff8787"/><stop offset="1" stop-color="#d66363"/></linearGradient><linearGradient x1="264.6686" y1="203.34092" x2="281.79976" y2="203.34092" gradientUnits="userSpaceOnUse" id="color-81"><stop offset="0" stop-color="#ffffff"/><stop offset="1" stop-color="#d6d6d6"/></linearGradient></defs><g transform="translate(-22.25,-20.25)"><g data-paper-data="{&quot;isPaintingLayer&quot;:true}" fill-rule="nonzero" stroke-linecap="butt" stroke-linejoin="miter" stroke-miterlimit="10" stroke-dasharray="" stroke-dashoffset="0" style="mix-blend-mode: normal"><text transform="translate(22.5,42) scale(0.5,0.5)" font-size="40" xml:space="preserve" fill="#dbc2ff" fill-rule="nonzero" stroke="none" stroke-width="1" stroke-linecap="butt" stroke-linejoin="miter" stroke-miterlimit="10" stroke-dasharray="" stroke-dashoffset="0" font-family="Sans Serif" font-weight="normal" text-anchor="start" style="mix-blend-mode: normal"><tspan x="0" dy="0">CHARACTERS</tspan></text><path d="M342.53,181.5v-121h95v121z" fill="#505050" stroke="#ffffff" stroke-width="2.5"/><text transform="translate(348.256,73.55928) scale(0.2465,0.2465)" font-size="40" xml:space="preserve" fill="#ffffff" fill-rule="nonzero" stroke="none" stroke-width="1" stroke-linecap="butt" stroke-linejoin="miter" stroke-miterlimit="10" stroke-dasharray="" stroke-dashoffset="0" font-family="Sans Serif" font-weight="normal" text-anchor="start" style="mix-blend-mode: normal"><tspan x="0" dy="0">ANDY AND ANNIE</tspan></text><text transform="translate(362.76679,89.72338) scale(0.216,0.216)" font-size="40" xml:space="preserve" fill="#ffffff" fill-rule="nonzero" stroke="none" stroke-width="1" stroke-linecap="butt" stroke-linejoin="miter" stroke-miterlimit="10" stroke-dasharray="" stroke-dashoffset="0" font-family="Sans Serif" font-weight="normal" text-anchor="start" style="mix-blend-mode: normal"><tspan x="0" dy="0">Built in: 2010</tspan></text><text transform="translate(363.46968,118.77978) scale(0.13737,0.13737)" font-size="40" xml:space="preserve" fill="#ffffff" fill-rule="nonzero" stroke="none" stroke-width="1" stroke-linecap="butt" stroke-linejoin="miter" stroke-miterlimit="10" stroke-dasharray="" stroke-dashoffset="0" font-family="Sans Serif" font-weight="normal" text-anchor="start" style="mix-blend-mode: normal"><tspan x="0" dy="0">Brand: [UNKNOWN]</tspan></text><text transform="translate(376.878,54.97338) scale(0.28101,0.28101)" font-size="40" xml:space="preserve" fill="#ffffff" fill-rule="nonzero" stroke="none" stroke-width="1" stroke-linecap="butt" stroke-linejoin="miter" stroke-miterlimit="10" stroke-dasharray="" stroke-dashoffset="0" font-family="Sans Serif" font-weight="normal" text-anchor="start" style="mix-blend-mode: normal"><tspan x="0" dy="0">OLD</tspan></text><g data-paper-data="{&quot;index&quot;:null}" stroke="none" stroke-width="0"><path d="M200.66704,233.82708c-0.05963,-1.75194 1.28332,-3.21952 2.99956,-3.27794c1.71624,-0.05841 3.15587,1.31446 3.2155,3.0664c0.05963,1.75194 -1.28332,3.21952 -2.99956,3.27794c-1.71624,0.05841 -3.15587,-1.31446 -3.2155,-3.0664z" fill="url(#color-1)"/><path d="M200.79115,246.2625l-0.42104,-12.37036l6.7529,-0.22984l0.42104,12.37036z" fill="url(#color-2)"/></g><g data-paper-data="{&quot;index&quot;:null}" stroke="none" stroke-width="0"><path d="M199.23381,220.86095c-0.20264,-1.7412 1.01586,-3.31365 2.72158,-3.51215c1.70573,-0.19851 3.25276,1.0521 3.45539,2.7933c0.20264,1.7412 -1.01586,3.31365 -2.72158,3.51216c-1.70573,0.19851 -3.25276,-1.0521 -3.45539,-2.7933z" fill="url(#color-3)"/><path d="M200.37398,233.2446l-1.4308,-12.29455l6.71152,-0.78107l1.4308,12.29455z" fill="url(#color-4)"/></g><path d="M206.71208,241.05432c3.49124,0 5.88974,2.23909 5.88974,5.00115c0,2.76206 -12.6429,2.76206 -12.6429,0c0,-2.76206 3.26192,-5.00115 6.75316,-5.00115z" data-paper-data="{&quot;index&quot;:null}" fill="url(#color-5)" stroke="#000000" stroke-width="0"/><g stroke="none" stroke-width="0"><path d="M192.75385,234.14716c-0.05963,1.75194 -1.49926,3.12481 -3.2155,3.0664c-1.71624,-0.05842 -3.05919,-1.526 -2.99956,-3.27794c0.05963,-1.75194 1.49926,-3.12481 3.2155,-3.0664c1.71624,0.05842 3.05919,1.526 2.99956,3.27794z" fill="url(#color-6)"/><path d="M185.87684,246.35273l0.42104,-12.37036l6.7529,0.22984l-0.42104,12.37036z" fill="url(#color-7)"/></g><g stroke="none" stroke-width="0"><path d="M194.3428,221.31894c-0.26472,1.73285 -1.85545,2.92738 -3.553,2.66805c-1.69754,-0.25933 -2.85907,-1.87431 -2.59435,-3.60716c0.26472,-1.73285 1.85545,-2.92738 3.553,-2.66805c1.69754,0.25933 2.85907,1.87431 2.59434,3.60716z" fill="url(#color-8)"/><path d="M186.08153,232.63356l1.8692,-12.23557l6.67932,1.02039l-1.8692,12.23557z" fill="url(#color-9)"/></g><path d="M187.8672,215.88706c0,-2.6678 17.99823,-2.6678 17.99823,0c0,2.6678 -4.02904,4.83048 -8.99912,4.83048c-4.97007,0 -8.99912,-2.16268 -8.99912,-4.83048z" fill="url(#color-10)" stroke="none" stroke-width="0"/><g stroke="none" stroke-width="0"><path d="M187.79829,215.82848c0,0 0.25148,-12.30085 -0.49336,-17.00211c-0.50837,-3.20872 -3.54386,-8.47997 -3.54386,-8.47997c0,0 8.91445,-1.55247 13.37688,-1.52035c4.37504,0.0315 13.14071,1.71127 13.14071,1.71127c0,0 -3.50722,4.7058 -4.0264,7.71725c-0.8049,4.66875 -0.33381,17.5739 -0.33381,17.5739z" fill="#5a5a5a"/><path d="M192.65924,215.82048v-11.83937l-2.92995,-9.74655l14.29096,0.05979l-2.87015,9.56717v11.95896z" fill="url(#color-11)"/><path d="M184.34776,195.25107v-1.91343h25.11381v1.91343z" fill="url(#color-12)"/></g><g data-paper-data="{&quot;index&quot;:null}" stroke="none" stroke-width="0"><path d="M224.60916,218.88606c1.03989,-1.0587 1.78545,-1.94753 2.55544,-1.25635c0.73691,0.66149 -0.56418,1.91972 -1.60407,2.97843c-1.03989,1.0587 -2.94246,1.78819 -3.16206,0.53615c0.14692,-1.17896 1.1708,-1.19953 2.21069,-2.25823z" fill="url(#color-13)"/><path d="M225.30133,220.47128c0.44668,-1.41517 0.70809,-2.54545 1.7078,-2.27862c0.95676,0.25537 0.36777,1.96682 -0.07891,3.38199c-0.44668,1.41517 -1.81154,2.92814 -2.57506,1.91184c-0.40372,-1.11739 0.49949,-1.60004 0.94618,-3.01521z" fill="url(#color-14)"/><path d="M226.69661,221.58213c-0.41896,-1.42362 -0.83272,-2.50745 0.14578,-2.84384c0.93646,-0.32194 1.40265,1.42696 1.82161,2.85058c0.41896,1.42362 0.13056,3.44073 -1.07013,3.02339c-0.95852,-0.70199 -0.4783,-1.60651 -0.89726,-3.03012z" fill="url(#color-15)"/><path d="M224.99279,217.54426c-0.51408,-1.74683 -1.03678,-3.07231 0.3344,-3.53527c1.31228,-0.44307 1.68199,1.04373 2.19607,2.79056c0.51409,1.74683 1.21337,3.11759 -0.3344,3.53527c-1.42689,0.38506 -1.68199,-1.04373 -2.19607,-2.79056z" fill="url(#color-16)"/><path d="M221.14022,217.43141c-0.5941,-1.12377 1.35621,-1.71387 2.82682,-1.51499c1.4706,0.19888 3.26989,0.39526 3.09325,1.36963c-0.18457,1.01811 -1.3185,0.773 -2.7891,0.57411c-1.4706,-0.19888 -2.2921,0.41258 -3.13096,-0.42876z" data-paper-data="{&quot;index&quot;:null}" fill="url(#color-17)"/></g><g data-paper-data="{&quot;index&quot;:null}" stroke="none" stroke-width="0"><path d="M218.27878,201.07383c1.50974,-0.81829 3.41077,-0.23231 4.24608,1.30883c0.83531,1.54114 0.28859,3.45383 -1.22115,4.27212c-1.50973,0.81829 -3.41077,0.23231 -4.24608,-1.30883c-0.83531,-1.54114 -0.28858,-3.45383 1.22115,-4.27212z" fill="url(#color-18)"/><path d="M223.39771,216.03956l-6.57676,-10.50286l5.94035,-3.21974l5.27165,11.23177z" fill="url(#color-19)"/></g><g data-paper-data="{&quot;index&quot;:null}" stroke="none" stroke-width="0"><path d="M207.56962,192.33065c1.16968,-1.25728 3.15832,-1.30856 4.44175,-0.11454c1.28343,1.19401 1.37564,3.18117 0.20596,4.43845c-1.16968,1.25727 -3.15832,1.30856 -4.44175,0.11455c-1.28343,-1.19401 -1.37564,-3.18117 -0.20595,-4.43845z" fill="url(#color-20)"/><path d="M216.67434,205.45626l-9.06221,-8.43086l4.60235,-4.947l9.06221,8.43086z" fill="url(#color-21)"/></g><g data-paper-data="{&quot;index&quot;:null}" stroke="none" stroke-width="0"><path d="M172.05107,219.82382c-0.14199,1.26319 -2.08592,0.6524 -3.1891,-0.34018c-1.10318,-0.99258 -2.47937,-2.1682 -1.78465,-2.87386c0.72591,-0.73734 1.52485,0.10383 2.62804,1.09641c1.10318,0.99258 2.12638,0.94997 2.34571,2.11764z" fill="url(#color-22)"/><path d="M170.24251,222.2822c-0.69941,1.06143 -2.15495,-0.36451 -2.68803,-1.74945c-0.53308,-1.38493 -1.22647,-3.05682 -0.28728,-3.37069c0.98135,-0.32796 1.31195,0.78406 1.84503,2.169c0.53308,1.38493 1.46434,1.81098 1.13027,2.95114z" fill="url(#color-23)"/><path d="M167.07936,223.60549c-1.17267,0.49057 -1.58489,-1.50492 -1.25449,-2.95166c0.3304,-1.44674 0.68788,-3.22106 1.6424,-2.95746c0.99737,0.27543 0.65122,1.3827 0.32083,2.82944c-0.3304,1.44674 0.20467,2.31993 -0.70874,3.07968z" fill="url(#color-24)"/><path d="M167.21989,219.31123c-1.57059,-0.32146 -0.95714,-1.73273 -0.55173,-3.50793c0.40541,-1.7752 0.68274,-3.28197 2.01985,-2.92065c1.39712,0.37754 0.95714,1.73273 0.55173,3.50793c-0.40541,1.7752 -0.57193,3.217 -2.01985,2.92065z" fill="url(#color-25)"/><path d="M169.97945,216.66141c-1.45554,0.28917 -2.5722,0.60373 -2.81919,-0.40106c-0.23638,-0.96163 1.54738,-1.26857 3.00292,-1.55774c1.45554,-0.28917 3.43852,0.17956 2.91484,1.33782c-0.78539,0.89146 -1.64303,0.33181 -3.09857,0.62098z" data-paper-data="{&quot;index&quot;:null}" fill="url(#color-26)"/></g><g stroke="none" stroke-width="0"><path d="M177.47122,204.42715c-0.95442,1.47035 -2.8958,1.90435 -4.33619,0.96938c-1.44039,-0.93498 -1.83434,-2.88488 -0.87991,-4.35522c0.95442,-1.47035 2.8958,-1.90435 4.33619,-0.96938c1.44039,0.93498 1.83434,2.88488 0.87992,4.35522z" fill="url(#color-27)"/><path d="M165.88232,211.73746l6.14227,-10.78032l5.6675,3.67885l-7.38574,9.95061z" fill="url(#color-28)"/></g><g><path d="M208.47372,169.31545c0.26662,2.99107 5.29551,5.40494 1.97195,10.94435c-3.45456,5.75777 -9.82765,7.44236 -14.70291,7.87694c-5.22452,0.46571 -9.86303,0.90108 -15.61505,-5.58354c-3.90368,-4.40088 -0.00837,-8.04414 -0.24415,-10.68926c-0.69708,-7.82012 5.13796,-14.73008 13.03291,-15.43383c7.89495,-0.70375 14.86017,5.06522 15.55725,12.88534z" fill="#5a5a5a" stroke="none" stroke-width="0"/><g><path d="M202.90546,178.75417c0.44726,-0.36204 0.86394,-1.48377 0.9671,-2.03048c-0.06491,-0.68119 0.32709,-1.5748 0.11064,-2.20311c-0.23423,-0.67992 -0.76043,-1.30348 -1.06198,-1.96169c-0.27425,-0.59862 -0.56126,-1.17324 -0.90052,-1.71041c0.27367,0.73952 0.44141,1.52119 0.39488,2.15201c-0.06262,0.84901 -0.42264,1.6777 -0.19534,2.54116c0.31525,1.19757 1.22432,1.46258 0.69051,2.83373c-0.11262,0.23419 -0.24701,0.42516 -0.39943,0.58169c0.14336,-0.0432 0.27688,-0.10797 0.39414,-0.20289zM201.06179,168.52155c1.2078,1.01171 1.94403,2.28991 2.58438,3.69863c0.31074,0.68358 0.87082,1.33348 1.0964,2.04814c0.24782,0.78512 -0.13914,1.67921 -0.07084,2.49556c-0.14703,0.76014 -0.63119,2.10676 -1.26061,2.61045c-0.71751,0.57418 -1.67928,0.43091 -2.51362,0.41079c-1.56199,-0.03766 -3.07428,0.32907 -4.51629,0.82219c-0.08847,0.00839 -0.17694,0.0167 -0.26541,0.02494l0.09313,0.37912c0,0 -0.09232,0.3893 -0.48162,0.29697c-0.2431,-0.05765 -0.29839,-0.2311 -0.30564,-0.35325c-0.10009,-0.05002 -0.20055,-0.09747 -0.30101,-0.14305c-0.10756,0.05766 -0.30059,0.11249 -0.48013,-0.08717c-0.0044,-0.00489 -0.00864,-0.00977 -0.01274,-0.01464c-0.07218,-0.03112 -0.14469,-0.08721 -0.18595,-0.18776c-0.06231,-0.02578 -0.12428,-0.05146 -0.18581,-0.07721c0.1857,0.25939 0.35099,0.53704 0.66595,0.69985l0.27335,0.1686c0,0 0.34012,0.21069 0.12943,0.55081c-0.21069,0.34012 -0.55081,0.12943 -0.55081,0.12943l-0.23497,-0.14628c-0.51894,-0.29324 -0.6917,-0.86462 -1.12012,-1.1584c-0.194,-0.13303 -0.47051,0.00097 -0.70567,0.0071c-0.5013,0.01308 -1.31108,0.07086 -1.75337,-0.23567c-0.64101,-0.44426 -0.73492,-1.64195 -1.27169,-2.24192c-1.3189,0.03835 -2.53415,-0.94776 -2.40013,-2.37396c0.03328,-0.3542 0.30613,-0.64572 0.40495,-0.98749c0.20594,-0.71231 -0.53379,-1.63859 -0.69541,-2.26708c-0.21818,-0.84845 0.11505,-1.51483 0.5517,-2.15889c0.01452,-0.05078 0.0296,-0.10218 0.04516,-0.15427c0,0 0.06296,-0.20977 0.25093,-0.27232c-0.00628,-0.04627 -0.01169,-0.09284 -0.01623,-0.13971c0,0 -0.03552,-0.39851 0.36299,-0.43403c0.39851,-0.03552 0.43403,0.36299 0.43403,0.36299c0.11406,1.43686 1.19441,2.21945 2.1085,3.15593c0.2086,0.21372 0.51612,0.75303 0.59973,1.03338c0.07749,0.25982 -0.07297,0.83272 0.212,1.02164c0.41214,0.27322 1.33303,0.17183 1.64575,0.55215c0.35353,0.42996 0.34785,1.0601 0.58069,1.5657c0.41665,0.56099 0.68028,1.09661 0.92945,1.74439l0.0689,0.15728c0,0 0.15972,0.36683 -0.20711,0.52655c-0.36683,0.15972 -0.52655,-0.20711 -0.52655,-0.20711l-0.08208,-0.18945c-0.23568,-0.61272 -0.48077,-1.09109 -0.87155,-1.62464c-0.20799,-0.45087 -0.1982,-0.99655 -0.46553,-1.41498c-0.1125,-0.17609 -1.31777,-0.27732 -1.5681,-0.48207c-0.62465,-0.51093 -0.31378,-1.19018 -0.66845,-1.80243c-0.24493,-0.42283 -0.67233,-0.61917 -1.00438,-0.97924c-0.47333,-0.51328 -0.90405,-1.07862 -1.1933,-1.70666c-0.08316,0.40867 -0.05696,0.78176 0.29244,1.18948c0.25565,0.29833 0.63719,0.49295 0.83372,0.83315c0.40153,0.69506 0.02862,2.11797 0.80151,2.62261c0.97008,0.6334 1.99722,0.98039 2.57911,2.05805c0.24395,1.00897 0.8654,1.44723 1.61665,1.78385l0.13557,-0.01208c0.5075,-0.02361 0.94653,-0.42948 1.38831,-0.68565c0.81019,-0.46978 1.65855,-0.84025 2.35849,-1.47113c0.51074,-0.54896 0.19271,-1.82974 0.31116,-2.53563c0.10178,-0.60653 0.58879,-0.88078 0.93245,-1.32499c0.37895,-0.48982 0.70101,-1.22192 0.85409,-1.80915c0.28723,-1.10185 -0.29133,-2.16302 -0.38935,-3.24388c0,0 -0.03552,-0.39851 0.36299,-0.43403c0.31825,-0.02837 0.405,0.22008 0.42704,0.3213c0.19714,-0.06229 0.37348,0.08519 0.37348,0.08519zM199.96616,178.94711c0.81058,-0.07225 1.84779,-0.03811 2.20835,-0.88518c0.40146,-1.00756 -0.46426,-1.35635 -0.72962,-2.32249c-0.26137,-0.95161 0.09695,-1.84064 0.17129,-2.77433c0.05005,-0.62863 -0.17693,-1.49986 -0.50547,-2.25556c0.05404,0.42319 0.05658,0.85509 -0.05615,1.31175c-0.16717,0.67718 -0.55524,1.50673 -0.98512,2.06656c-0.21507,0.28009 -0.73883,0.58788 -0.7823,0.98901c-0.1101,1.01592 0.14045,2.10606 -0.52132,2.94145c-0.36961,0.33176 -0.88469,0.73712 -1.45325,1.12013c0.85837,-0.11086 1.74388,-0.11024 2.65359,-0.19133zM191.94267,178.13136c-0.48131,-0.89878 -1.55114,-1.13937 -2.31897,-1.70758c-0.78101,-0.57796 -0.72905,-1.62112 -0.88598,-2.45369c-0.09766,-0.51815 -0.41036,-0.64724 -0.71854,-0.9502c0.14681,0.31487 0.30642,0.62782 0.37568,0.94789c0.2712,1.25339 -1.10258,3.09395 0.97671,3.47637c0.2057,0.03783 0.41757,0.02455 0.62635,0.03682c0.554,0.50845 0.80133,0.88093 1.11131,1.56436c0.11232,0.24765 0.07053,0.61882 0.30495,0.75667c0.46072,0.27092 1.09958,0.07204 1.66794,0.04606c-0.53212,-0.36531 -0.9473,-0.87067 -1.13945,-1.71671z" fill="#000000" stroke="none" stroke-width="0.5"/><path d="M195.1319,193.39819l-2.45193,-27.50686l2.6895,-0.23974l2.44889,27.47277z" fill="url(#color-29)" stroke="none" stroke-width="0"/><path d="M186.23566,172.26899l-0.42182,-4.73221l16.6817,-1.48699l0.42182,4.73221z" fill="url(#color-30)" stroke="none" stroke-width="0"/><path d="M183.06021,170.60018l-0.12425,-1.39395l22.63473,-2.01763l0.12425,1.39395z" fill="url(#color-31)" stroke="none" stroke-width="0"/><g stroke="none" stroke-width="0"><path d="M196.94439,183.40067l-0.079,-0.88626l1.09078,-0.09723l0.079,0.88626z" fill="#ffffff"/><path d="M195.64034,183.50882l-0.079,-0.88626l1.09078,-0.09723l0.079,0.88626z" fill="#ffffff"/><path d="M194.34504,183.62428l-0.079,-0.88626l1.09078,-0.09723l0.079,0.88626z" fill="#ffffff"/><path d="M193.04099,183.73243l-0.079,-0.88626l1.09078,-0.09723l0.079,0.88626z" fill="#ffffff"/><path d="M192.11228,183.34594l-0.11742,-1.31729l6.67993,-0.59544l0.11742,1.31729z" fill="url(#color-32)"/></g><g data-paper-data="{&quot;index&quot;:null}" stroke="none" stroke-width="0"><path d="M198.05141,183.5765l0.079,0.88626l-1.09078,0.09723l-0.079,-0.88626z" fill="#ffffff"/><path d="M196.74879,183.70071l0.079,0.88626l-1.09078,0.09723l-0.079,-0.88626z" fill="#ffffff"/><path d="M195.45349,183.81617l0.079,0.88626l-1.09078,0.09723l-0.079,-0.88626z" fill="#ffffff"/><path d="M194.15088,183.94038l0.079,0.88626l-1.09078,0.09723l-0.079,-0.88626z" fill="#ffffff"/><path d="M198.89431,183.98683l0.11742,1.31729l-6.67993,0.59544l-0.11742,-1.31729z" fill="url(#color-33)"/></g><g><path d="M192.54623,169.1124c0.21345,2.39463 -1.54503,4.50803 -3.92768,4.72041c-2.38265,0.21239 -4.48721,-1.55667 -4.70067,-3.95129c-0.21345,-2.39463 1.54503,-4.50803 3.92768,-4.72041c2.38265,-0.21239 4.48721,1.55667 4.70067,3.95129z" fill="#ffffff" stroke="#000000" stroke-width="0.5"/><path d="M189.69548,169.38717c0.07932,0.8899 -0.52859,1.67123 -1.35782,1.74515c-0.82923,0.07392 -1.56575,-0.58757 -1.64508,-1.47747c-0.07932,-0.8899 0.52859,-1.67123 1.35782,-1.74514c0.82923,-0.07392 1.56575,0.58757 1.64508,1.47747z" fill="#000000" stroke="none" stroke-width="0"/></g><g><path d="M204.38842,168.10269c0.21345,2.39463 -1.54503,4.50803 -3.92768,4.72041c-2.38265,0.21239 -4.48721,-1.55667 -4.70067,-3.95129c-0.21345,-2.39463 1.54503,-4.50803 3.92768,-4.72041c2.38265,-0.21239 4.48721,1.55667 4.70067,3.95129z" fill="#ffffff" stroke="#000000" stroke-width="0.5"/><path d="M201.53767,168.37745c0.07932,0.8899 -0.52859,1.67123 -1.35782,1.74515c-0.82923,0.07392 -1.56575,-0.58757 -1.64508,-1.47747c-0.07932,-0.8899 0.52859,-1.67123 1.35782,-1.74514c0.82923,-0.07392 1.56575,0.58757 1.64508,1.47747z" fill="#000000" stroke="none" stroke-width="0"/></g></g></g><g stroke="none" stroke-width="0"><path d="M187.40169,196.6102c-1.37372,1.08892 -3.3521,0.88073 -4.41883,-0.465c-1.06673,-1.34573 -0.81786,-3.3194 0.55586,-4.40832c1.37372,-1.08892 3.3521,-0.88073 4.41883,0.465c1.06673,1.34573 0.81786,3.3194 -0.55586,4.40831z" fill="url(#color-34)"/><path d="M173.64734,199.27233l9.69978,-7.68878l4.19726,5.29505l-9.69978,7.68878z" fill="url(#color-35)"/></g><g><path d="M187.75548,215.83207c0,0 0.31127,-12.36065 -0.43357,-17.0619c-0.50837,-3.20872 -3.54386,-8.47997 -3.54386,-8.47997c0,0 8.91445,-1.55247 13.37688,-1.52035c4.37504,0.0315 13.14071,1.71127 13.14071,1.71127c0,0 -3.50722,4.7058 -4.0264,7.71725c-0.8049,4.66875 -0.27401,17.6337 -0.27401,17.6337z" fill="url(#color-36)" stroke="none" stroke-width="0"/><path d="M201.05879,205.44665c-0.07405,0.15337 -0.22437,0.07783 -0.22437,0.07783l-0.08737,-0.04391c-1.09017,-0.54787 -1.95983,-1.43236 -2.90463,-2.21238c-0.10199,0.05355 -0.20451,0.10599 -0.30768,0.15711c-0.70983,0.35164 -1.40713,0.72638 -2.16982,0.95219c-0.49044,0.1452 -1.00667,0.10981 -1.50145,0.23341c-0.58307,0.14566 -1.06202,0.48719 -1.50182,0.87693l-0.14111,0.25354c-0.03217,0.06105 -0.09909,0.09838 -0.17035,0.08843c-0.09169,-0.0128 -0.15586,-0.09901 -0.14332,-0.19256c0.00142,-0.01058 0.00376,-0.02081 0.00693,-0.03061l0.05419,-0.17804c0.18863,-0.67379 0.54337,-1.27278 0.75727,-1.93051c0.30491,-0.93759 0.46978,-1.93995 0.60684,-2.92935c-0.62677,-0.33867 -1.23067,-0.7222 -1.83466,-1.101c-0.67039,-0.42092 -1.27602,-0.94389 -1.82114,-1.52274c-0.12172,-0.12926 -0.41465,-0.42214 -0.302,-0.63703c0.05697,-0.10866 0.55072,-0.01675 0.64815,-0.00315c0.77472,0.10811 1.49738,0.32704 2.25561,0.49062c0.50046,0.10811 1.00538,0.18347 1.50458,0.29179c0.15973,-0.55627 0.36849,-1.09689 0.63278,-1.55491c0.32781,-0.56811 0.79508,-1.01529 1.15376,-1.55379c0.15486,-0.23249 0.34054,-0.45067 0.48301,-0.69007c0.04279,-0.0719 0.04916,-0.17789 0.12022,-0.22054c0.13122,-0.07876 0.29474,-0.07797 0.44211,-0.11695c0.33774,0.66634 0.55151,1.38571 0.87089,2.06121c0.51887,1.09746 1.13943,2.14282 1.65015,3.24341c1.05545,0.19366 2.11747,0.29623 3.1887,0.36184c0.30389,0.01861 0.66352,0.00997 0.96101,0.07736c0.16027,0.0363 0.37742,0.01403 0.46913,0.15295c0.06627,0.10038 -0.08137,0.23085 -0.15118,0.32869c-0.16171,0.22662 -0.53356,0.39255 -0.77879,0.49189c-0.88845,0.27684 -1.70685,0.69964 -2.50675,1.16156c0.55029,1.11142 1.1117,2.21588 1.50683,3.40156c0,0 0.05394,0.16187 -0.10472,0.2169c-0.15865,0.05503 -0.21259,-0.10684 -0.21259,-0.10684c-0.388,-1.16452 -0.93796,-2.25064 -1.47934,-3.34232c-0.6212,0.36657 -1.23493,0.74908 -1.86568,1.09678c0.88182,0.74362 1.7103,1.56387 2.733,2.07782l0.08737,0.04391c0,0 0.15033,0.07555 0.07628,0.22892zM197.8799,202.86278c0.67759,-0.36594 1.33364,-0.77521 1.99791,-1.16699c-0.27798,-0.56462 -0.54947,-1.13279 -0.79097,-1.71609c-0.05822,-0.14064 -0.11854,-0.28044 -0.1806,-0.41953c-0.02841,-0.00548 -0.05681,-0.01103 -0.0852,-0.01664c-0.90435,-0.17352 -1.82828,-0.26075 -2.72846,-0.44426c-0.65949,-0.13445 -1.29283,-0.39515 -1.94189,-0.57159c-0.04367,-0.01187 -0.0874,-0.02332 -0.1312,-0.0344c-0.10703,0.42611 -0.18526,0.85383 -0.2381,1.24922c-0.0282,0.20998 -0.05613,0.42158 -0.08489,0.63406c0.1525,0.07907 0.3065,0.15514 0.46235,0.22748c0.45389,0.21068 0.95643,0.3352 1.39925,0.55847c0.64362,0.32451 1.17628,0.85739 1.75962,1.27432c0.19214,0.13489 0.37884,0.27797 0.56219,0.42596zM193.38115,200.20787c0.02296,-0.17139 0.04549,-0.3421 0.06818,-0.51172c0.05469,-0.4068 0.13519,-0.84357 0.24456,-1.27885c-0.4928,-0.10646 -0.99133,-0.18065 -1.48525,-0.28734c-0.61998,-0.13409 -1.22037,-0.3042 -1.84409,-0.43255c-0.1386,-0.02852 -0.32038,-0.02419 -0.47937,-0.04624c0.12045,0.11946 0.24046,0.26622 0.24875,0.27458c0.46827,0.47216 0.97753,0.89897 1.539,1.25069c0.56316,0.35319 1.12614,0.71099 1.70822,1.03143zM199.3049,199.63273c0.03078,0.07102 0.06103,0.14232 0.09067,0.21392c0.23627,0.57078 0.50093,1.12709 0.77232,1.6797c0.8122,-0.46913 1.64296,-0.89928 2.54591,-1.18079c0.19491,-0.07805 0.33068,-0.16464 0.49773,-0.29341c0.00007,-0.00005 0.00014,-0.00011 0.00021,-0.00016c-0.28979,0.0259 -0.71161,-0.08123 -0.90759,-0.09322c-1.00704,-0.06162 -2.00613,-0.15588 -2.99925,-0.32605zM197.55278,203.0349c-0.13956,-0.10932 -0.28134,-0.2155 -0.42622,-0.31721c-0.56899,-0.40678 -1.08993,-0.93049 -1.71673,-1.24853c-0.43806,-0.22228 -0.93965,-0.34501 -1.38978,-0.55388c-0.1254,-0.05819 -0.24962,-0.11874 -0.37283,-0.18129c-0.13694,0.97248 -0.30385,1.95445 -0.60496,2.87504c-0.14009,0.4283 -0.33964,0.831 -0.51321,1.24617c0.22241,-0.15759 0.49278,-0.27974 0.68287,-0.36754c0.66967,-0.30931 1.37253,-0.23296 2.05914,-0.43843c0.74422,-0.22271 1.42401,-0.58798 2.11726,-0.93152c0.05499,-0.02724 0.1098,-0.05486 0.16444,-0.08281zM194.10837,198.1635c0.04293,0.01089 0.0858,0.02212 0.1286,0.03376c0.64204,0.17454 1.26898,0.43372 1.92127,0.56669c0.84864,0.17301 1.71859,0.26028 2.57317,0.41526c-0.39827,-0.84559 -0.84969,-1.66889 -1.27244,-2.4997c-0.36917,-0.72552 -0.87332,-1.60288 -0.986,-2.41858c-0.25014,0.20131 -0.44684,0.64104 -0.62681,0.91008c-0.35587,0.53199 -0.81659,0.97481 -1.1422,1.5352c-0.24818,0.42713 -0.44457,0.93427 -0.59559,1.45727z" fill="#ffdf00" stroke="#ffdf00" stroke-width="0.5"/></g><path d="M193.46197,246.37554c0,2.76206 -12.6429,2.76206 -12.6429,0c0,-2.76206 2.3985,-5.00115 5.88974,-5.00115c3.49124,0 6.75316,2.23909 6.75316,5.00115z" fill="url(#color-37)" stroke="#000000" stroke-width="0"/><g stroke="none" stroke-width="0"><path d="M208.47372,169.31545c0.26662,2.99107 5.29551,5.40494 1.97196,10.94435c-3.45456,5.75777 -9.82765,7.44236 -14.70291,7.87694c-5.22452,0.46571 -9.86303,0.90108 -15.61505,-5.58354c-3.90368,-4.40088 -0.00837,-8.04414 -0.24415,-10.68926c-0.69708,-7.82012 5.13796,-14.73008 13.03291,-15.43383c7.89495,-0.70375 14.86017,5.06522 15.55725,12.88534zM200.69017,173.27391c2.6411,-0.23542 4.59129,-2.56731 4.35587,-5.20842c-0.23542,-2.6411 -2.56731,-4.59129 -5.20842,-4.35587c-2.6411,0.23542 -4.59129,2.56731 -4.35587,5.20842c0.23542,2.6411 2.56731,4.59129 5.20842,4.35587zM188.67207,174.27137c2.6411,-0.23542 4.59129,-2.56731 4.35587,-5.20842c-0.23542,-2.6411 -2.56731,-4.59129 -5.20842,-4.35587c-2.6411,0.23542 -4.59129,2.56731 -4.35587,5.20842c0.23542,2.6411 2.56731,4.59129 5.20842,4.35587zM195.68991,185.91786c5.89259,-0.41412 10.48352,-5.39994 10.32657,-7.16067c-0.15695,-1.76073 -5.00836,2.63278 -10.49618,3.11129c-7.06247,0.61581 -10.81958,-2.84893 -10.66263,-1.0882c0.15695,1.76073 5.03068,5.54531 10.83224,5.13759z" fill="url(#color-38)"/><path d="M192.8739,156.23967c6.28723,-0.56044 11.99491,2.65765 14.65174,7.69307c-0.09523,-0.02603 -0.3629,-0.10541 -0.77343,-0.21732c-0.47205,-0.5187 -1.10992,-0.87847 -1.8206,-1.00155c-0.25635,-0.04439 -0.52218,-0.05799 -0.79312,-0.03715c-0.26216,-0.07294 -0.44828,-0.38452 -0.74251,-0.43525c-1.46129,-0.25196 -2.91933,-0.35163 -4.36448,-0.55052c-3.17134,-0.43647 -6.15161,-0.36294 -9.31473,0.02561c-0.61217,0.0752 -1.32428,0.81421 -1.90127,0.80707c-0.04767,-0.00059 -1.04796,-0.17818 -1.28698,-0.06426c-1.39141,0.66311 -2.65859,1.41026 -4.00379,1.9427c-0.36345,0.14386 -0.51529,0.66764 -0.90273,0.74716c-0.46482,0.0954 -1.0038,0.26149 -1.54291,0.49638c1.93687,-5.05367 6.80339,-8.87188 12.79481,-9.40595z" fill="url(#color-39)"/></g><path d="M199.40997,162.24357c1.67282,-0.43838 3.47416,0.023 3.56418,0.36653c0.09002,0.34353 -1.62615,0.05436 -3.29898,0.49274c-1.67282,0.43838 -3.04109,0.90002 -3.13112,0.55649c-0.09002,-0.34353 1.19309,-0.97738 2.86591,-1.41576z" fill="#000000" stroke="none" stroke-width="0"/><path d="M191.35487,163.98007c-0.00779,0.35504 -1.44587,0.22373 -3.17475,0.18577c-1.72889,-0.03796 -3.33101,0.6418 -3.32322,0.28676c0.00779,-0.35504 1.65276,-1.22208 3.38165,-1.18412c1.72889,0.03796 3.12412,0.35655 3.11632,0.71159z" data-paper-data="{&quot;index&quot;:null}" fill="#000000" stroke="none" stroke-width="0"/><g stroke="none" stroke-width="0"><path d="M270.7475,234.10688c0.01894,1.73447 -1.34312,3.15558 -3.04224,3.17414c-1.69913,0.01856 -3.0919,-1.37247 -3.11084,-3.10694c-0.01894,-1.73447 1.34311,-3.15558 3.04224,-3.17414c1.69913,-0.01856 3.0919,1.37247 3.11084,3.10693z" fill="url(#color-40)"/><path d="M264.49211,246.478l-0.13376,-12.247l6.68556,-0.07302l0.13376,12.247z" fill="url(#color-41)"/></g><g data-paper-data="{&quot;index&quot;:null}" stroke="none" stroke-width="0"><path d="M275.05218,234.10687c0.01894,-1.73447 1.41171,-3.12549 3.11084,-3.10693c1.69913,0.01856 3.06119,1.43967 3.04224,3.17414c-0.01894,1.73447 -1.41171,3.12549 -3.11084,3.10694c-1.69913,-0.01856 -3.06119,-1.43967 -3.04224,-3.17414z" fill="url(#color-42)"/><path d="M274.62201,246.40498l0.13376,-12.247l6.68556,0.07302l-0.13376,12.247z" fill="url(#color-43)"/></g><g stroke="none" stroke-width="0"><path d="M270.67861,221.02678c-0.00128,1.73457 -1.37981,3.13971 -3.07904,3.13846c-1.69923,-0.00125 -3.07569,-1.40841 -3.07441,-3.14299c0.00128,-1.73457 1.37981,-3.13971 3.07904,-3.13846c1.69923,0.00125 3.07569,1.40841 3.07441,3.14298z" fill="url(#color-44)"/><path d="M264.3581,233.31505l0.00901,-12.24773l6.68596,0.00492l-0.00901,12.24773z" fill="url(#color-45)"/></g><g data-paper-data="{&quot;index&quot;:null}" stroke="none" stroke-width="0"><path d="M275.12107,221.02678c-0.00128,-1.73457 1.37518,-3.14173 3.07441,-3.14298c1.69923,-0.00125 3.07776,1.40389 3.07904,3.13846c0.00128,1.73457 -1.37519,3.14174 -3.07441,3.14299c-1.69923,0.00125 -3.07776,-1.40389 -3.07904,-3.13846z" fill="url(#color-46)"/><path d="M274.75562,233.31997l-0.00901,-12.24773l6.68596,-0.00492l0.00901,12.24773z" fill="url(#color-47)"/></g><path d="M263.92099,215.84662c0,-2.63982 17.8095,-2.63982 17.8095,0c0,2.63982 -3.98679,4.77982 -8.90475,4.77982c-4.91795,0 -8.90475,-2.14 -8.90475,-4.77982z" fill="url(#color-48)" stroke="none" stroke-width="0"/><g stroke="none" stroke-width="0"><path d="M263.85281,215.78865c0,0 0.24884,-12.17186 -0.48819,-16.82382c-0.50304,-3.17507 -3.5067,-8.39105 -3.5067,-8.39105c0,0 8.82097,-1.5362 13.23661,-1.5044c4.32916,0.03117 13.00291,1.69333 13.00291,1.69333c0,0 -3.47044,4.65645 -3.98418,7.63633c-0.79645,4.61979 -0.33031,17.38962 -0.33031,17.38962z" fill="#5a5a5a"/><path d="M268.66278,215.78073v-11.71522l-2.89922,-9.64435l14.1411,0.05917l-2.84005,9.46685v11.83355z" fill="url(#color-49)"/><path d="M260.43846,195.42702v-1.89337h24.85046v1.89337z" fill="url(#color-50)"/></g><g data-paper-data="{&quot;index&quot;:null}" stroke="none" stroke-width="0"><path d="M292.86622,223.17159c0.95938,-1.1117 1.63895,-2.03689 2.44333,-1.40344c0.76982,0.60623 -0.43477,1.9316 -1.39415,3.0433c-0.95938,1.1117 -2.7916,1.95328 -3.08824,0.73093c0.06994,-1.17354 1.07967,-1.2591 2.03905,-2.37079z" fill="url(#color-51)"/><path d="M293.65073,224.69282c0.3509,-1.42589 0.537,-2.55866 1.54117,-2.35888c0.96103,0.19119 0.4885,1.91872 0.1376,3.3446c-0.3509,1.42589 -1.60222,3.00686 -2.42093,2.05197c-0.46987,-1.07765 0.39126,-1.61181 0.74216,-3.03769z" fill="url(#color-52)"/><path d="M295.09931,225.70081c-0.50443,-1.37906 -0.98207,-2.42293 -0.03728,-2.81747c0.9042,-0.37758 1.47599,1.31968 1.98043,2.69874c0.50443,1.37906 0.34819,3.38926 -0.86403,3.05367c-0.99123,-0.63211 -0.57468,-1.55588 -1.07911,-2.93494z" fill="url(#color-53)"/><path d="M293.15953,221.82216c-0.61896,-1.69217 -1.21957,-2.96771 0.10492,-3.51225c1.26759,-0.52114 1.72741,0.92345 2.34637,2.61562c0.61896,1.69217 1.39683,3.00117 -0.10492,3.51225c-1.38446,0.47116 -1.72741,-0.92345 -2.34637,-2.61562z" fill="url(#color-54)"/><path d="M289.34808,221.95624c-0.65826,-1.07182 1.22999,-1.7788 2.69482,-1.67613c1.46483,0.10267 3.25407,0.18193 3.14174,1.15533c-0.11737,1.0171 -1.2527,0.84733 -2.71754,0.74466c-1.46483,-0.10267 -2.23706,0.55348 -3.11902,-0.22386z" data-paper-data="{&quot;index&quot;:null}" fill="url(#color-55)"/></g><g data-paper-data="{&quot;index&quot;:null}" stroke="none" stroke-width="0"><path d="M288.08502,204.52641c1.5961,-0.58295 3.3724,0.26528 3.96749,1.89457c0.59508,1.6293 -0.2164,3.42269 -1.81251,4.00564c-1.5961,0.58295 -3.3724,-0.26528 -3.96749,-1.89458c-0.59508,-1.6293 0.21641,-3.42269 1.81251,-4.00564z" fill="url(#color-56)"/><path d="M290.93422,219.91599l-4.92094,-11.2314l6.28018,-2.29376l3.53805,11.75642z" fill="url(#color-57)"/></g><g data-paper-data="{&quot;index&quot;:null}" stroke="none" stroke-width="0"><path d="M283.25189,192.3073c1.56916,-0.65201 3.38077,0.11795 4.04633,1.71975c0.66557,1.6018 -0.06693,3.42887 -1.63608,4.08088c-1.56916,0.65201 -3.38077,-0.11795 -4.04634,-1.71974c-0.66557,-1.6018 0.06693,-3.42887 1.63609,-4.08088z" fill="url(#color-58)"/><path d="M286.06302,207.86209l-4.69957,-11.31021l6.17418,-2.56546l4.69957,11.31022z" fill="url(#color-59)"/></g><g data-paper-data="{&quot;index&quot;:null}" stroke="none" stroke-width="0"><path d="M256.34355,225.73786c-0.28599,1.22487 -2.12546,0.39927 -3.09448,-0.70403c-0.96902,-1.10331 -2.18509,-2.41814 -1.42058,-3.03105c0.79883,-0.64042 1.48643,0.27882 2.45545,1.38213c0.96902,1.10331 1.97945,1.18007 2.0596,2.35296z" fill="url(#color-60)"/><path d="M254.28126,227.94402c-0.81037,0.96198 -2.0754,-0.60805 -2.43869,-2.03082c-0.36329,-1.42278 -0.85085,-3.14613 0.10849,-3.34567c1.0024,-0.20851 1.19835,0.9226 1.56164,2.34538c0.36329,1.42278 1.22904,1.94942 0.76857,3.03112z" fill="url(#color-61)"/><path d="M251.01942,228.87769c-1.20926,0.34613 -1.38299,-1.66263 -0.89058,-3.04604c0.49241,-1.3834 1.04942,-3.08557 1.95687,-2.71587c0.94818,0.38629 0.47965,1.43428 -0.01276,2.81769c-0.49241,1.3834 -0.06784,2.30352 -1.05353,2.94423z" fill="url(#color-62)"/><path d="M251.65538,224.67402c-1.50615,-0.49799 -0.73969,-1.81372 -0.13548,-3.51121c0.60421,-1.69749 1.05144,-3.14603 2.32352,-2.63594c1.32918,0.53299 0.73969,1.81372 0.13548,3.51121c-0.60421,1.69749 -0.93501,3.09503 -2.32352,2.63594z" fill="url(#color-63)"/><path d="M254.67442,222.38998c-1.46388,0.11542 -2.59769,0.29506 -2.72391,-0.72098c-0.1208,-0.97239 1.66768,-1.06722 3.13157,-1.18263c1.46388,-0.11542 3.35821,0.57511 2.7093,1.65262c-0.87516,0.78498 -1.65307,0.13558 -3.11695,0.25099z" data-paper-data="{&quot;index&quot;:null}" fill="url(#color-64)"/></g><g stroke="none" stroke-width="0"><path d="M260.75,208.68855c-0.58088,1.63442 -2.34974,2.49807 -3.95085,1.92903c-1.60111,-0.56904 -2.42817,-2.3553 -1.84729,-3.98972c0.58088,-1.63442 2.34973,-2.49807 3.95085,-1.92903c1.60111,0.56904 2.42817,2.3553 1.8473,3.98972z" fill="url(#color-65)"/><path d="M251.27504,218.38656l3.43561,-11.78676l6.29991,2.23902l-4.82302,11.2738z" fill="url(#color-66)"/></g><g><path d="M287.8653,170.76972c-0.13048,2.96857 4.4855,5.99513 0.49984,10.99262c-4.14278,5.19449 -10.61425,6.01154 -15.45284,5.79887c-5.18523,-0.2279 -9.79172,-0.40877 -14.58348,-7.52266c-3.25199,-4.82794 1.04597,-7.89076 1.16135,-10.51599c0.34113,-7.7613 6.96966,-13.7739 14.80523,-13.42951c7.83558,0.34439 13.91102,6.91536 13.5699,14.67667z" fill="#5a5a5a" stroke="none" stroke-width="0"/><g><path d="M281.16703,179.29747c0.48612,-0.29648 1.0418,-1.34206 1.21462,-1.86475c0.02561,-0.67662 0.52719,-1.50169 0.39723,-2.1463c-0.14063,-0.69756 -0.57501,-1.3781 -0.78451,-2.0632c-0.19054,-0.62306 -0.39673,-1.22427 -0.65908,-1.79558c0.17151,0.76119 0.23358,1.54982 0.10528,2.16243c-0.17268,0.8245 -0.63439,1.59009 -0.52461,2.46676c0.15226,1.21588 1.00914,1.59495 0.30589,2.8698c-0.14115,0.21493 -0.29798,0.38463 -0.46799,0.51817c0.14627,-0.02358 0.28572,-0.06961 0.41316,-0.14734zM280.69974,169.01974c1.05203,1.15056 1.6066,2.5007 2.05006,3.96628c0.21519,0.71117 0.67935,1.422 0.80694,2.1525c0.14017,0.80252 -0.35653,1.62873 -0.39653,2.43835c-0.24382,0.72628 -0.89515,1.98359 -1.5785,2.39512c-0.77897,0.46912 -1.7035,0.20256 -2.51918,0.07349c-1.52706,-0.24164 -3.05837,-0.08013 -4.53731,0.21454c-0.08787,-0.00336 -0.17573,-0.00681 -0.26359,-0.01032l0.04166,0.38405c0,0 -0.14157,0.36972 -0.51129,0.22816c-0.23087,-0.0884 -0.26238,-0.26577 -0.25348,-0.38652c-0.09162,-0.06217 -0.18393,-0.12188 -0.27648,-0.17975c-0.11305,0.04246 -0.30956,0.07093 -0.45949,-0.14841c-0.00367,-0.00537 -0.00719,-0.01071 -0.01057,-0.01603c-0.06672,-0.03998 -0.13048,-0.1045 -0.15778,-0.20853c-0.05773,-0.03345 -0.11515,-0.06676 -0.17213,-0.10008c0.14815,0.27875 0.27387,0.57273 0.56145,0.77368l0.24601,0.20119c0,0 0.30598,0.25122 0.05477,0.5572c-0.25122,0.30598 -0.5572,0.05477 -0.5572,0.05477l-0.21129,-0.17426c-0.47055,-0.35561 -0.56511,-0.93867 -0.94681,-1.28295c-0.17284,-0.1559 -0.46161,-0.06071 -0.69305,-0.08551c-0.49339,-0.05287 -1.29519,-0.10232 -1.68882,-0.46093c-0.57048,-0.51973 -0.50563,-1.70673 -0.95347,-2.36553c-1.2986,-0.13522 -2.36129,-1.26166 -2.04293,-2.64291c0.07906,-0.34304 0.38488,-0.5932 0.52658,-0.91546c0.29534,-0.67165 -0.3088,-1.67708 -0.38496,-2.31468c-0.10281,-0.86075 0.31136,-1.47066 0.82403,-2.04513c0.0209,-0.0479 0.04243,-0.09634 0.06451,-0.14539c0,0 0.08925,-0.19749 0.2818,-0.23421c-0.00009,-0.04621 0.0007,-0.09259 0.00239,-0.13915c0,0 0.01738,-0.39551 0.4129,-0.37813c0.39551,0.01738 0.37813,0.4129 0.37813,0.4129c-0.07643,1.42421 0.88062,2.33336 1.65443,3.37165c0.17659,0.23695 0.40753,0.80621 0.45279,1.09213c0.04195,0.26499 -0.1807,0.80717 0.07405,1.0298c0.36842,0.32199 1.28491,0.34322 1.54179,0.75722c0.2904,0.46803 0.20224,1.08533 0.36436,1.61174c0.33514,0.60482 0.52351,1.1647 0.683,1.8327l0.04696,0.16329c0,0 0.10858,0.38072 -0.27213,0.4893c-0.38072,0.10858 -0.4893,-0.27213 -0.4893,-0.27213l-0.05567,-0.19657c-0.15086,-0.63184 -0.32856,-1.13314 -0.6419,-1.70766c-0.14491,-0.46947 -0.06379,-1.00339 -0.27116,-1.44881c-0.08726,-0.18745 -1.25612,-0.44469 -1.47481,-0.67831c-0.5457,-0.58298 -0.15178,-1.20844 -0.4194,-1.85542c-0.18482,-0.44681 -0.57828,-0.69538 -0.85677,-1.09206c-0.39698,-0.56545 -0.74533,-1.17638 -0.94672,-1.83027c-0.13512,0.38992 -0.15832,0.75928 0.13094,1.20496c0.21165,0.3261 0.56035,0.56699 0.70853,0.92641c0.30273,0.73433 -0.24949,2.08105 0.44243,2.67729c0.86845,0.74836 1.83039,1.2233 2.25988,2.35652c0.10704,1.02156 0.65912,1.53285 1.35184,1.96146l0.13455,0.00591c0.50085,0.04335 0.98464,-0.2972 1.45151,-0.49055c0.8562,-0.35459 1.73681,-0.60676 2.50599,-1.1338c0.57287,-0.47148 0.4288,-1.76935 0.63748,-2.44616c0.17931,-0.58155 0.69291,-0.78671 1.08819,-1.17735c0.43586,-0.43075 0.84768,-1.10659 1.07478,-1.66248c0.42611,-1.04305 -0.00227,-2.15967 0.04323,-3.23261c0,0 0.01738,-0.39551 0.4129,-0.37813c0.31586,0.01388 0.36839,0.26893 0.37673,0.37109c0.20152,-0.03526 0.35515,0.1325 0.35515,0.1325zM278.25889,179.10152c0.80449,0.03536 1.8173,0.20478 2.28194,-0.57878c0.52579,-0.9356 -0.27759,-1.39114 -0.41125,-2.37351c-0.13164,-0.96759 0.3363,-1.79259 0.53157,-2.69861c0.13147,-0.61 0.02302,-1.49424 -0.20018,-2.27849c-0.00246,0.42214 -0.05657,0.84609 -0.22698,1.2792c-0.2527,0.64227 -0.74203,1.40503 -1.23702,1.89777c-0.24765,0.24653 -0.80168,0.47976 -0.89689,0.8675c-0.24112,0.98198 -0.13825,2.08402 -0.89679,2.81665c-0.40598,0.27695 -0.9643,0.60703 -1.57214,0.90817c0.85642,0.00376 1.72484,0.12041 2.62771,0.1601zM270.49637,177.24996c-0.35428,-0.9446 -1.37205,-1.32077 -2.05067,-1.97868c-0.69028,-0.66921 -0.5026,-1.68553 -0.54741,-2.52268c-0.02788,-0.52099 -0.31766,-0.68859 -0.58022,-1.02612c0.10273,0.32807 0.21826,0.65592 0.24424,0.97892c0.10174,1.26486 -1.48687,2.89004 0.50238,3.53761c0.19679,0.06406 0.40633,0.0788 0.6095,0.1182c0.47673,0.57129 0.6705,0.96903 0.88496,1.67996c0.07771,0.25762 -0.01192,0.61618 0.19993,0.7821c0.41637,0.32609 1.06902,0.21475 1.62988,0.26376c-0.47402,-0.42803 -0.81501,-0.97809 -0.89259,-1.83307z" fill="#000000" stroke="none" stroke-width="0.5"/><path d="M271.62365,192.64158l1.19991,-27.29998l2.66927,0.11732l-1.19842,27.26615z" fill="url(#color-67)" stroke="none" stroke-width="0"/><path d="M265.66721,170.75226l0.20643,-4.69662l16.55624,0.72769l-0.20643,4.69662z" fill="url(#color-68)" stroke="none" stroke-width="0"/><path d="M262.77143,168.69936l0.06081,-1.38347l22.46449,0.98737l-0.06081,1.38347z" fill="url(#color-69)" stroke="none" stroke-width="0"/><g stroke="none" stroke-width="0"><path d="M274.7115,183.07356l0.03866,-0.87959l1.08257,0.04758l-0.03866,0.87959z" fill="#ffffff"/><path d="M273.41832,183.00874l0.03866,-0.87959l1.08258,0.04758l-0.03866,0.87959z" fill="#ffffff"/><path d="M272.13276,182.95223l0.03866,-0.87959l1.08257,0.04758l-0.03866,0.87959z" fill="#ffffff"/><path d="M270.83959,182.88741l0.03866,-0.87959l1.08257,0.04758l-0.03866,0.87959z" fill="#ffffff"/><path d="M269.97936,182.38664l0.05746,-1.30738l6.62969,0.29139l-0.05746,1.30738z" fill="url(#color-70)"/></g><g data-paper-data="{&quot;index&quot;:null}" stroke="none" stroke-width="0"><path d="M275.77423,183.39108l-0.03866,0.87959l-1.08257,-0.04758l0.03866,-0.87959z" fill="#ffffff"/><path d="M274.48034,183.3422l-0.03866,0.87959l-1.08257,-0.04758l0.03866,-0.87959z" fill="#ffffff"/><path d="M273.19479,183.2857l-0.03866,0.87959l-1.08257,-0.04758l0.03866,-0.87959z" fill="#ffffff"/><path d="M271.90091,183.23682l-0.03866,0.87959l-1.08257,-0.04758l0.03866,-0.87959z" fill="#ffffff"/><path d="M276.54717,183.90399l-0.05746,1.30738l-6.62969,-0.29139l0.05746,-1.30738z" fill="url(#color-71)"/></g><g><path d="M272.27027,168.48329c-0.10446,2.37662 -2.10613,4.21899 -4.47087,4.11505c-2.36473,-0.10394 -4.19705,-2.11482 -4.09259,-4.49144c0.10446,-2.37662 2.10613,-4.21899 4.47087,-4.11505c2.36473,0.10394 4.19705,2.11482 4.09259,4.49144z" fill="#ffffff" stroke="#000000" stroke-width="1"/><path d="M269.43825,168.37919c-0.03882,0.88321 -0.73746,1.56987 -1.56045,1.5337c-0.82299,-0.03617 -1.45868,-0.78148 -1.41986,-1.66469c0.03882,-0.88321 0.73745,-1.56987 1.56044,-1.53369c0.82299,0.03617 1.45869,0.78148 1.41987,1.66468z" fill="#000000" stroke="none" stroke-width="0"/></g><g><path d="M284.01738,169.04487c-0.10446,2.37662 -2.10613,4.21899 -4.47087,4.11505c-2.36473,-0.10394 -4.19705,-2.11482 -4.09259,-4.49144c0.10446,-2.37662 2.10613,-4.21899 4.47087,-4.11505c2.36473,0.10394 4.19705,2.11482 4.09259,4.49144z" fill="#ffffff" stroke="#000000" stroke-width="1"/><path d="M281.18536,168.94077c-0.03882,0.88321 -0.73746,1.56987 -1.56044,1.5337c-0.82299,-0.03617 -1.45868,-0.78148 -1.41986,-1.66469c0.03882,-0.88321 0.73745,-1.56987 1.56044,-1.53369c0.82299,0.03617 1.45868,0.78148 1.41986,1.66468z" fill="#000000" stroke="none" stroke-width="0"/></g></g></g><g stroke="none" stroke-width="0"><path d="M264.53716,196.30036c-0.5353,1.64991 -2.27952,2.56231 -3.8958,2.03791c-1.61629,-0.5244 -2.49259,-2.28702 -1.95729,-3.93693c0.5353,-1.64991 2.27952,-2.56231 3.8958,-2.03791c1.61629,0.5244 2.49259,2.28702 1.95729,3.93692z" fill="url(#color-72)"/><path d="M254.66242,206.0299l3.77976,-11.6499l6.35961,2.06335l-3.77976,11.6499z" fill="url(#color-73)"/></g><path d="M271.655,246.34872c0,2.73309 -12.51033,2.73309 -12.51033,0c0,-2.73309 2.37335,-4.9487 5.82798,-4.9487c3.45463,0 6.68234,2.21561 6.68234,4.9487z" fill="url(#color-74)" stroke="#000000" stroke-width="0"/><path d="M280.82702,241.40002c3.45463,0 5.82798,2.21561 5.82798,4.9487c0,2.73309 -12.51033,2.73309 -12.51033,0c0,-2.73309 3.22771,-4.9487 6.68234,-4.9487z" data-paper-data="{&quot;index&quot;:null}" fill="url(#color-75)" stroke="#000000" stroke-width="0"/><g stroke="none"><g><path d="M258.90688,164.0441c-1.33733,-0.15298 -2.16922,-0.19214 -3.44242,0.16311c-0.34172,0.09535 -0.7584,0.02764 -1.03211,0.25335c-1.38882,1.1453 -0.26482,2.34514 -0.26725,3.71128c-0.00078,0.43926 0.67782,3.71792 0.72839,3.91769c0.13576,0.53627 0.16572,1.09991 0.15955,1.65306c-0.01482,1.32887 -0.56719,2.55875 -1.0234,3.78413c-0.77427,1.32702 -1.70143,2.9907 -3.06383,3.81428c-0.20766,0.12553 -0.49383,0.07864 -0.69759,0.21041c-0.15799,0.10217 -0.78687,0.89884 -1.06782,1.01963c-0.47656,0.2049 -1.57736,0.49039 -2.09291,0.55848c-0.10964,0.01448 -0.4838,-0.15451 -0.80224,-0.24505c0.16507,-0.13697 0.32368,-0.32332 0.4577,-0.4896c0.2063,-0.25597 0.4101,-0.50285 0.49616,-0.82014c0.05588,-0.206 0.44346,-0.56704 0.62671,-0.72496c0.26475,-0.22815 0.29196,-0.60424 0.44299,-0.91942c0.37458,-1.04055 0.48355,-2.16709 0.15553,-3.262c-0.06694,-0.22344 -0.21512,-1.67337 -0.27591,-2.21071c-0.13603,-1.20234 -1.07092,-2.46112 -1.47098,-3.56342c-0.23942,-0.6597 -0.34716,-1.36502 -0.50597,-2.04861c-0.56242,-2.42094 0.19647,-4.46975 0.59356,-6.82795c0.24848,-1.12921 0.6488,-2.24291 1.10749,-3.3066c0.29136,-0.67565 0.87249,-1.20608 1.43667,-1.67842c0.82188,-0.6881 3.68903,-2.5859 3.86377,-2.61079c0.55713,-0.07935 2.04062,0.00223 2.23726,0.01504c0.2225,0.0145 2.61434,0.87334 3.63125,1.25599c1.10022,0.414 2.22472,0.73021 3.33719,1.10759c1.0588,0.25272 1.17975,2.75504 1.18676,3.70504c0.00725,0.98243 -0.30732,1.66202 -0.56854,2.58599c-0.00379,0.01339 -0.05319,0.81922 -0.23934,0.93357c-0.81885,0.50303 -1.86697,0.49665 -2.75543,0.70348c-0.21418,0.04986 -1.15525,-0.68447 -1.15525,-0.68447z" data-paper-data="{&quot;noHover&quot;:false,&quot;origItem&quot;:[&quot;Path&quot;,{&quot;applyMatrix&quot;:true,&quot;segments&quot;:[[[237.04526,74.30192],[0.00262,-0.46037],[1.20955,-0.98219]],[[240.24754,70.82579],[-1.30664,0.87266],[5.42037,-3.62007]],[[256.76997,59.33414],[-4.20911,5.42549],[0.95686,-1.23338]],[[256.02433,52.49269],[0.0084,0.09909],[-0.57964,-6.83624]],[[253.32639,33.7769],[2.5221,6.55124],[-2.43884,-6.33498]],[[236.08284,11.99931],[7.71648,-0.97599],[-8.38924,0.2775]],[[211,13],[8.39953,-0.0018],[-7.76351,0.00166]],[[188.35445,13.98742],[7.67609,-0.4929],[-1.58991,0.10209]],[[183.58114,13.74342],[1.52434,-0.46324],[-1.34721,0.40941]],[[180.32053,16.4289],[1.26321,-0.62201],[-3.60743,1.77632]],[[168.59731,19.27247],[3.52576,-1.93336],[-1.10585,0.60639]],[[166.59033,22.47988],[0.87933,-0.90409],[-1.45621,1.49722]],[[161.68549,26.37892],[1.40101,-1.54899],[-5.23249,5.78515]],[[149.36098,46.44579],[3.76339,-6.67065],[-2.58337,4.57904]],[[143.99235,61.2765],[0.24712,-5.25169],[-0.38904,8.26777]],[[144.92822,86.15583],[-1.18161,-8.17663],[3.28221,16.76909]],[[158.16008,133.22624],[-9.85649,-14.7727],[2.78316,4.17134]],[[166.68549,145.62108],[-3.26205,-3.80856],[5.45059,6.36375]],[[185.44584,165.71209],[-3.93697,-7.69754],[1.75947,3.44011]],[[188.83876,176.79626],[-2.46528,-2.97531],[1.06337,1.28336]],[[192.83876,179.79626],[-1.01023,-1.3256],[4.95032,6.4957]],[[200,202],[-0.11517,-7.90128],[-0.21633,2.48783]],[[199.351,209.46349],[1.19592,-2.19223],[-0.82777,1.51738]],[[194.68943,211.73473],[0.61282,-1.6162],[-0.54071,1.42601]],[[196.99034,215.68931],[-0.14501,-1.51817],[0.22335,2.33839]],[[195.72937,222.62268],[0.73504,-2.23107],[-0.47751,1.44939]],[[193.91212,226.84935],[0.75898,-1.33153],[2.35735,-0.19629]],[[199.88811,226.4679],[-0.69672,0.3729],[3.27602,-1.75339]],[[212.46447,217.46447],[-2.67086,2.57008],[1.57455,-1.51514]],[[217.03141,207.95856],[-0.79921,1.08101],[1.03074,-1.39418]],[[221.16124,204.79626],[-1.07254,1.36229],[7.03666,-8.93758]],[[232.01704,171.5876],[-1.83632,10.82327],[-0.0347,-9.34273]],[[229.30793,143.72756],[3.24681,8.92346],[-1.35151,-3.71447]],[[224.06879,133.0896],[2.25805,3.24424],[-0.84119,-1.20858]],[[220.46447,130.53553],[1.03881,1.04362],[-1.51443,-1.52145]],[[211.43345,118.03633],[0.03499,0.07863],[-1.27601,-2.86755]],[[209.35583,108.85249],[1.10077,2.93928],[-3.42352,-9.14149]],[[201.86702,83.18603],[-6.40332,11.15546],[1.26197,-2.19853]],[[208.14559,78.89484],[-2.04502,1.49799],[7.6194,-5.58124]],[[230.78732,69.14929],[-9.32791,2.34422],[0,0]],[[236.85071,72.78732],[-1.21268,-4.85071],[0.13764,0.55055]]],&quot;closed&quot;:true}]}" fill="url(#color-76)" stroke-width="0.5"/><path d="M251.60729,173.85886c4.05738,-0.30844 4.2256,-0.06279 4.26562,0.3551c0.04002,0.41789 0.15708,0.83064 -4.12069,1.15822c-4.40487,0.33732 -4.2256,0.06279 -4.26562,-0.3551c-0.04002,-0.41789 -0.69399,-0.79221 4.12069,-1.15822z" fill="#000000" stroke-width="0"/></g><g data-paper-data="{&quot;index&quot;:null}"><path d="M288.44062,166.13439c-0.86689,-0.28398 -1.91152,-0.36959 -2.68308,-0.94252c-0.1754,-0.13024 -0.15391,-0.9373 -0.15651,-0.95098c-0.17915,-0.94332 -0.43288,-1.64789 -0.33947,-2.6259c0.09033,-0.94572 0.43036,-3.42778 1.50725,-3.58663c1.14129,-0.27832 2.28919,-0.49466 3.4215,-0.81053c1.04656,-0.29195 3.50453,-0.93763 3.72744,-0.93255c0.19701,0.00448 1.68193,0.05338 2.22995,0.1813c0.17189,0.04012 2.86147,2.18216 3.61981,2.93971c0.52056,0.52002 1.05291,1.09939 1.28387,1.798c0.3636,1.09983 0.66466,2.24436 0.81311,3.39102c0.18867,2.38395 0.76488,4.49144 -0.00778,6.8537c-0.21817,0.66703 -0.38737,1.36018 -0.68375,1.99632c-0.49523,1.06295 -1.53695,2.23484 -1.77794,3.42062c-0.1077,0.52993 -0.38252,1.96127 -0.4688,2.17797c-0.42282,1.06191 -0.4131,2.19366 -0.13127,3.26307c0.12279,0.32721 0.1169,0.70424 0.36061,0.95474c0.16869,0.17339 0.5231,0.56704 0.56069,0.77715c0.0579,0.32362 0.23925,0.58743 0.4223,0.86051c0.11891,0.1774 0.26055,0.37695 0.41298,0.52787c-0.32515,0.06226 -0.7127,0.19777 -0.82064,0.17372c-0.50758,-0.11306 -1.57909,-0.49403 -2.03584,-0.73995c-0.26927,-0.14498 -0.82583,-0.99375 -0.97424,-1.10939c-0.19141,-0.14914 -0.48059,-0.12753 -0.67644,-0.2708c-1.28489,-0.93993 -2.0625,-2.67855 -2.71737,-4.06838c-0.34694,-1.26068 -0.78928,-2.53428 -0.68745,-3.85933c0.04239,-0.55156 0.12169,-1.11039 0.30397,-1.63269c0.06791,-0.19457 1.03154,-3.40105 1.06931,-3.83868c0.11744,-1.36109 1.34238,-2.45769 0.05939,-3.72042c-0.25285,-0.24886 -0.67387,-0.21797 -1.00591,-0.34293c-1.23712,-0.46558 -2.06924,-0.49956 -3.41484,-0.4645c0,0 -1.00188,0.64893 -1.21085,0.58047z" data-paper-data="{&quot;noHover&quot;:false,&quot;origItem&quot;:[&quot;Path&quot;,{&quot;applyMatrix&quot;:true,&quot;segments&quot;:[[[237.04526,74.30192],[0.00262,-0.46037],[1.20955,-0.98219]],[[240.24754,70.82579],[-1.30664,0.87266],[5.42037,-3.62007]],[[256.76997,59.33414],[-4.20911,5.42549],[0.95686,-1.23338]],[[256.02433,52.49269],[0.0084,0.09909],[-0.57964,-6.83624]],[[253.32639,33.7769],[2.5221,6.55124],[-2.43884,-6.33498]],[[236.08284,11.99931],[7.71648,-0.97599],[-8.38924,0.2775]],[[211,13],[8.39953,-0.0018],[-7.76351,0.00166]],[[188.35445,13.98742],[7.67609,-0.4929],[-1.58991,0.10209]],[[183.58114,13.74342],[1.52434,-0.46324],[-1.34721,0.40941]],[[180.32053,16.4289],[1.26321,-0.62201],[-3.60743,1.77632]],[[168.59731,19.27247],[3.52576,-1.93336],[-1.10585,0.60639]],[[166.59033,22.47988],[0.87933,-0.90409],[-1.45621,1.49722]],[[161.68549,26.37892],[1.40101,-1.54899],[-5.23249,5.78515]],[[149.36098,46.44579],[3.76339,-6.67065],[-2.58337,4.57904]],[[143.99235,61.2765],[0.24712,-5.25169],[-0.38904,8.26777]],[[144.92822,86.15583],[-1.18161,-8.17663],[3.28221,16.76909]],[[158.16008,133.22624],[-9.85649,-14.7727],[2.78316,4.17134]],[[166.68549,145.62108],[-3.26205,-3.80856],[5.45059,6.36375]],[[185.44584,165.71209],[-3.93697,-7.69754],[1.75947,3.44011]],[[188.83876,176.79626],[-2.46528,-2.97531],[1.06337,1.28336]],[[192.83876,179.79626],[-1.01023,-1.3256],[4.95032,6.4957]],[[200,202],[-0.11517,-7.90128],[-0.21633,2.48783]],[[199.351,209.46349],[1.19592,-2.19223],[-0.82777,1.51738]],[[194.68943,211.73473],[0.61282,-1.6162],[-0.54071,1.42601]],[[196.99034,215.68931],[-0.14501,-1.51817],[0.22335,2.33839]],[[195.72937,222.62268],[0.73504,-2.23107],[-0.47751,1.44939]],[[193.91212,226.84935],[0.75898,-1.33153],[2.35735,-0.19629]],[[199.88811,226.4679],[-0.69672,0.3729],[3.27602,-1.75339]],[[212.46447,217.46447],[-2.67086,2.57008],[1.57455,-1.51514]],[[217.03141,207.95856],[-0.79921,1.08101],[1.03074,-1.39418]],[[221.16124,204.79626],[-1.07254,1.36229],[7.03666,-8.93758]],[[232.01704,171.5876],[-1.83632,10.82327],[-0.0347,-9.34273]],[[229.30793,143.72756],[3.24681,8.92346],[-1.35151,-3.71447]],[[224.06879,133.0896],[2.25805,3.24424],[-0.84119,-1.20858]],[[220.46447,130.53553],[1.03881,1.04362],[-1.51443,-1.52145]],[[211.43345,118.03633],[0.03499,0.07863],[-1.27601,-2.86755]],[[209.35583,108.85249],[1.10077,2.93928],[-3.42352,-9.14149]],[[201.86702,83.18603],[-6.40332,11.15546],[1.26197,-2.19853]],[[208.14559,78.89484],[-2.04502,1.49799],[7.6194,-5.58124]],[[230.78732,69.14929],[-9.32791,2.34422],[0,0]],[[236.85071,72.78732],[-1.21268,-4.85071],[0.13764,0.55055]]],&quot;closed&quot;:true}]}" fill="url(#color-77)" stroke-width="0.5"/><path d="M300.06499,177.48655c-0.07653,0.41277 0.07797,0.70196 -4.28032,-0.02052c-4.23253,-0.70163 -4.07971,-1.10252 -4.00318,-1.51528c0.07653,-0.41277 0.26565,-0.64271 4.28032,0.02052c4.76401,0.78702 4.07972,1.10252 4.00318,1.51528z" fill="#000000" stroke-width="0"/></g><g fill="url(#color-78)" stroke-width="0"><g><path d="M287.8653,170.76972c-0.13048,2.96857 4.4855,5.99513 0.49984,10.99262c-4.14278,5.19449 -10.61425,6.01154 -15.45284,5.79887c-5.18523,-0.2279 -9.79172,-0.40877 -14.58348,-7.52266c-3.25199,-4.82794 1.04597,-7.89076 1.16135,-10.51599c0.34113,-7.7613 6.96966,-13.7739 14.80523,-13.42951c7.83558,0.34439 13.91102,6.91536 13.5699,14.67667zM279.71246,173.63214c2.62124,0.11521 4.83957,-1.91633 4.95478,-4.53757c0.11521,-2.62124 -1.91633,-4.83957 -4.53757,-4.95478c-2.62124,-0.11521 -4.83957,1.91633 -4.95478,4.53757c-0.11521,2.62124 1.91633,4.83957 4.53757,4.95478zM267.79443,173.03548c2.62124,0.11521 4.83957,-1.91633 4.95478,-4.53757c0.11521,-2.62124 -1.91633,-4.83957 -4.53757,-4.95478c-2.62124,-0.11521 -4.83957,1.91633 -4.95478,4.53757c-0.11521,2.62124 1.91633,4.83957 4.53757,4.95478zM273.15124,185.37801c5.8337,0.36605 9.42346,-3.14585 9.50027,-4.89334c0.07681,-1.74749 -3.6908,1.14934 -9.13595,0.89948c-7.00755,-0.32155 -9.00295,-3.47094 -9.07976,-1.72344c-0.07681,1.74749 2.97185,5.35691 8.71544,5.7173z"/></g></g><path d="M289.26824,164.74563c0.44811,3.20322 1.15862,5.44055 -1.82783,7.50182c-3.26392,2.25276 4.82454,-13.64116 -13.15132,-14.35799c-16.06637,-0.64068 -11.70344,15.57656 -14.76261,12.81833c-2.50176,-2.25565 -1.68453,-4.50428 -0.67773,-7.37843c2.44693,-6.98534 5.84712,-8.68305 15.40591,-8.26292c9.55879,0.42013 14.04866,2.78166 15.01359,9.67919z" fill="url(#color-79)" stroke-width="0"/></g><g><g><path d="M263.81045,215.73942c0,0 0.30801,-12.23103 -0.42902,-16.88299c-0.50304,-3.17507 -3.5067,-8.39105 -3.5067,-8.39105c0,0 8.82097,-1.5362 13.23661,-1.5044c4.32916,0.03117 13.00291,1.69333 13.00291,1.69333c0,0 -3.47044,4.65645 -3.98418,7.63633c-0.79645,4.61979 -0.27114,17.44878 -0.27114,17.44878c0,0 8.36616,9.38044 7.31079,9.71227c-0.99173,0.31182 -8.65818,2.24149 -16.11569,2.27071c-7.88524,0.0309 -15.57425,-1.84803 -16.31195,-1.84803c-0.96777,0 7.06837,-10.13495 7.06837,-10.13495z" fill="url(#color-80)" stroke="none" stroke-width="0"/><path d="" fill="#ffdf00" stroke="#ffdf00" stroke-width="2"/></g><g><path d="M263.77263,213.64348l0.01646,-5.46073l17.90235,-0.00084l0.12153,5.54126z" fill="url(#color-81)" stroke="none" stroke-width="0"/><path d="" fill="#ffdf00" stroke="#ffdf00" stroke-width="2"/></g></g><text transform="translate(364.43346,104.72338) scale(0.216,0.216)" font-size="40" xml:space="preserve" fill="#ffffff" fill-rule="nonzero" stroke="none" stroke-width="1" stroke-linecap="butt" stroke-linejoin="miter" stroke-miterlimit="10" stroke-dasharray="" stroke-dashoffset="0" font-family="Sans Serif" font-weight="normal" text-anchor="start" style="mix-blend-mode: normal"><tspan x="0" dy="0">Height: 4'1"</tspan></text></g></g></svg>