<svg version="1.1" xmlns="http://www.w3.org/2000/svg" xmlns:xlink="http://www.w3.org/1999/xlink" width="881.24049" height="706.52462" viewBox="0,0,881.24049,706.52462"><defs><radialGradient cx="604.73454" cy="355.81654" r="49.35898" gradientUnits="userSpaceOnUse" id="color-1"><stop offset="0" stop-color="#a3a3a3"/><stop offset="1" stop-color="#5d5d5d"/></radialGradient><radialGradient cx="488.39872" cy="295.83022" r="60.23967" gradientUnits="userSpaceOnUse" id="color-2"><stop offset="0" stop-color="#a3a3a3"/><stop offset="1" stop-color="#5d5d5d"/></radialGradient><radialGradient cx="623.22348" cy="296.57545" r="136.37914" gradientUnits="userSpaceOnUse" id="color-3"><stop offset="0" stop-color="#a3a3a3"/><stop offset="1" stop-color="#5d5d5d"/></radialGradient><radialGradient cx="668.95835" cy="282.04805" r="18.99374" gradientUnits="userSpaceOnUse" id="color-4"><stop offset="0" stop-color="#a7a7a7"/><stop offset="1" stop-color="#7a7a7a"/></radialGradient><radialGradient cx="671.09355" cy="276.75635" r="38.39497" gradientUnits="userSpaceOnUse" id="color-5"><stop offset="0" stop-color="#efefef"/><stop offset="1" stop-color="#bdbdbd"/></radialGradient><linearGradient x1="524.28021" y1="266.85054" x2="552.74149" y2="373.84695" gradientUnits="userSpaceOnUse" id="color-6"><stop offset="0" stop-color="#efefef"/><stop offset="1" stop-color="#bdbdbd"/></linearGradient><radialGradient cx="-118.2881" cy="282.70902" r="128.85698" gradientUnits="userSpaceOnUse" id="color-7"><stop offset="0" stop-color="#c5c5c5"/><stop offset="1" stop-color="#5d5d5d"/></radialGradient><linearGradient x1="3.81555" y1="330.08824" x2="-9.11542" y2="364.99054" gradientUnits="userSpaceOnUse" id="color-8"><stop offset="0" stop-color="#c5c5c5"/><stop offset="1" stop-color="#5d5d5d"/></linearGradient><radialGradient cx="6.7735" cy="317.17679" r="128.02772" gradientUnits="userSpaceOnUse" id="color-9"><stop offset="0" stop-color="#c5c5c5"/><stop offset="1" stop-color="#5d5d5d"/></radialGradient><radialGradient cx="-161.10383" cy="260.30457" r="18.99374" gradientUnits="userSpaceOnUse" id="color-10"><stop offset="0" stop-color="#a7a7a7"/><stop offset="1" stop-color="#7a7a7a"/></radialGradient><linearGradient x1="81.75155" y1="359.14091" x2="81.75155" y2="465.96579" gradientUnits="userSpaceOnUse" id="color-11"><stop offset="0" stop-color="#c5c5c5"/><stop offset="1" stop-color="#5d5d5d"/></linearGradient><linearGradient x1="241.68245" y1="260.13767" x2="241.68245" y2="423.93345" gradientUnits="userSpaceOnUse" id="color-12"><stop offset="0" stop-color="#a3a3a3"/><stop offset="1" stop-color="#5d5d5d"/></linearGradient><linearGradient x1="242.2877" y1="359.16758" x2="242.2877" y2="560.68199" gradientUnits="userSpaceOnUse" id="color-13"><stop offset="0" stop-color="#c5c5c5"/><stop offset="1" stop-color="#5d5d5d"/></linearGradient><linearGradient x1="248.97334" y1="348.69666" x2="248.97334" y2="692.04683" gradientUnits="userSpaceOnUse" id="color-14"><stop offset="0" stop-color="#c5c5c5"/><stop offset="1" stop-color="#5d5d5d"/></linearGradient><linearGradient x1="249.95711" y1="335.148" x2="249.95711" y2="735.89232" gradientUnits="userSpaceOnUse" id="color-15"><stop offset="0" stop-color="#c5c5c5"/><stop offset="1" stop-color="#5d5d5d"/></linearGradient><linearGradient x1="242.85835" y1="347.61246" x2="242.85835" y2="682.06184" gradientUnits="userSpaceOnUse" id="color-16"><stop offset="0" stop-color="#c0c0c0"/><stop offset="1" stop-color="#9f9f9f"/></linearGradient><linearGradient x1="164.84632" y1="373.29053" x2="164.84632" y2="430.07142" gradientUnits="userSpaceOnUse" id="color-17"><stop offset="0" stop-color="#c0c0c0"/><stop offset="1" stop-color="#838383"/></linearGradient><linearGradient x1="164.84632" y1="408.64475" x2="164.84632" y2="465.42562" gradientUnits="userSpaceOnUse" id="color-18"><stop offset="0" stop-color="#c0c0c0"/><stop offset="1" stop-color="#838383"/></linearGradient><linearGradient x1="164.84632" y1="442.92746" x2="164.84632" y2="499.70838" gradientUnits="userSpaceOnUse" id="color-19"><stop offset="0" stop-color="#c0c0c0"/><stop offset="1" stop-color="#838383"/></linearGradient><linearGradient x1="168.27006" y1="475.71383" x2="168.27006" y2="532.49472" gradientUnits="userSpaceOnUse" id="color-20"><stop offset="0" stop-color="#c0c0c0"/><stop offset="1" stop-color="#838383"/></linearGradient><linearGradient x1="176.8294" y1="516.45901" x2="176.8294" y2="563.03596" gradientUnits="userSpaceOnUse" id="color-21"><stop offset="0" stop-color="#c0c0c0"/><stop offset="1" stop-color="#838383"/></linearGradient><linearGradient x1="321.19728" y1="373.29053" x2="321.19728" y2="430.07142" gradientUnits="userSpaceOnUse" id="color-22"><stop offset="0" stop-color="#c0c0c0"/><stop offset="1" stop-color="#838383"/></linearGradient><linearGradient x1="321.19728" y1="408.64475" x2="321.19728" y2="465.42562" gradientUnits="userSpaceOnUse" id="color-23"><stop offset="0" stop-color="#c0c0c0"/><stop offset="1" stop-color="#838383"/></linearGradient><linearGradient x1="321.19728" y1="442.92746" x2="321.19728" y2="499.70838" gradientUnits="userSpaceOnUse" id="color-24"><stop offset="0" stop-color="#c0c0c0"/><stop offset="1" stop-color="#838383"/></linearGradient><linearGradient x1="317.77356" y1="475.71383" x2="317.77356" y2="532.49472" gradientUnits="userSpaceOnUse" id="color-25"><stop offset="0" stop-color="#c0c0c0"/><stop offset="1" stop-color="#838383"/></linearGradient><linearGradient x1="309.21416" y1="516.45901" x2="309.21416" y2="563.03596" gradientUnits="userSpaceOnUse" id="color-26"><stop offset="0" stop-color="#c0c0c0"/><stop offset="1" stop-color="#838383"/></linearGradient><linearGradient x1="242.85835" y1="347.61246" x2="242.85835" y2="367.29899" gradientUnits="userSpaceOnUse" id="color-27"><stop offset="0" stop-color="#c0c0c0"/><stop offset="1" stop-color="#9f9f9f"/></linearGradient><linearGradient x1="207.92774" y1="645.13008" x2="277.78904" y2="645.13008" gradientUnits="userSpaceOnUse" id="color-28"><stop offset="0" stop-color="#7b7b7b"/><stop offset="1" stop-color="#b9b9b9"/></linearGradient><radialGradient cx="418.61053" cy="352.03483" r="18.99374" gradientUnits="userSpaceOnUse" id="color-29"><stop offset="0" stop-color="#a7a7a7"/><stop offset="1" stop-color="#7a7a7a"/></radialGradient><radialGradient cx="81.94234" cy="350.89357" r="18.99374" gradientUnits="userSpaceOnUse" id="color-30"><stop offset="0" stop-color="#a7a7a7"/><stop offset="1" stop-color="#7a7a7a"/></radialGradient><linearGradient x1="310.59515" y1="230.16565" x2="310.59515" y2="304.25389" gradientUnits="userSpaceOnUse" id="color-31"><stop offset="0" stop-color="#c5c5c5"/><stop offset="1" stop-color="#5d5d5d"/></linearGradient><linearGradient x1="149.98384" y1="22.60865" x2="149.98384" y2="66.0508" gradientUnits="userSpaceOnUse" id="color-32"><stop offset="0" stop-color="#c5c5c5"/><stop offset="1" stop-color="#5d5d5d"/></linearGradient><linearGradient x1="318.88281" y1="48.27441" x2="318.88281" y2="80.71813" gradientUnits="userSpaceOnUse" id="color-33"><stop offset="0" stop-color="#c5c5c5"/><stop offset="1" stop-color="#5d5d5d"/></linearGradient><linearGradient x1="240.2361" y1="53.67981" x2="240.2361" y2="284.29765" gradientUnits="userSpaceOnUse" id="color-34"><stop offset="0" stop-color="#a3a3a3"/><stop offset="1" stop-color="#1a1a1a"/></linearGradient><linearGradient x1="242.29412" y1="5.12391" x2="242.29412" y2="294.79866" gradientUnits="userSpaceOnUse" id="color-35"><stop offset="0" stop-color="#c5c5c5"/><stop offset="1" stop-color="#5d5d5d"/></linearGradient><linearGradient x1="233.82471" y1="22.43144" x2="233.82471" y2="274.51332" gradientUnits="userSpaceOnUse" id="color-36"><stop offset="0" stop-color="#b9b9b9"/><stop offset="1" stop-color="#5c5c5c"/></linearGradient><linearGradient x1="240.71304" y1="276.35257" x2="240.71304" y2="4.06989" gradientUnits="userSpaceOnUse" id="color-37"><stop offset="0" stop-color="#5d5d5d"/><stop offset="1" stop-color="#a1a1a1"/></linearGradient><linearGradient x1="240.71304" y1="276.35257" x2="240.71304" y2="4.06989" gradientUnits="userSpaceOnUse" id="color-38"><stop offset="0" stop-color="#c5c5c5"/><stop offset="1" stop-color="#5d5d5d"/></linearGradient><linearGradient x1="242.29412" y1="5.12391" x2="242.29412" y2="294.79866" gradientUnits="userSpaceOnUse" id="color-39"><stop offset="0" stop-color="#c5c5c5"/><stop offset="1" stop-color="#5d5d5d"/></linearGradient><linearGradient x1="199.4025" y1="147.86453" x2="203.82959" y2="147.86453" gradientUnits="userSpaceOnUse" id="color-40"><stop offset="0" stop-color="#cdcdcd"/><stop offset="1" stop-color="#444444"/></linearGradient><linearGradient x1="280.81169" y1="147.86453" x2="285.2388" y2="147.86453" gradientUnits="userSpaceOnUse" id="color-41"><stop offset="0" stop-color="#cdcdcd"/><stop offset="1" stop-color="#444444"/></linearGradient><linearGradient x1="242.56967" y1="126.97676" x2="242.56967" y2="134.7473" gradientUnits="userSpaceOnUse" id="color-42"><stop offset="0" stop-color="#cdcdcd"/><stop offset="1" stop-color="#444444"/></linearGradient><radialGradient cx="282.99089" cy="131.45421" r="19.14942" gradientUnits="userSpaceOnUse" id="color-43"><stop offset="0" stop-color="#ffffff"/><stop offset="1" stop-color="#939393"/></radialGradient><radialGradient cx="287.58764" cy="122.45906" r="19.14942" gradientUnits="userSpaceOnUse" id="color-44"><stop offset="0" stop-color="#b9b097"/><stop offset="1" stop-color="#827c69"/></radialGradient><linearGradient x1="241.80758" y1="212.9424" x2="241.80758" y2="217.16217" gradientUnits="userSpaceOnUse" id="color-45"><stop offset="0" stop-color="#a0a0a0"/><stop offset="1" stop-color="#696969"/></linearGradient><linearGradient x1="255.39978" y1="171.02196" x2="255.39978" y2="218.26397" gradientUnits="userSpaceOnUse" id="color-46"><stop offset="0" stop-color="#cdcdcd"/><stop offset="1" stop-color="#444444"/></linearGradient><linearGradient x1="228.87175" y1="170.86154" x2="228.87175" y2="218.10353" gradientUnits="userSpaceOnUse" id="color-47"><stop offset="0" stop-color="#cdcdcd"/><stop offset="1" stop-color="#444444"/></linearGradient><linearGradient x1="242.15568" y1="211.45659" x2="242.15568" y2="251.13593" gradientUnits="userSpaceOnUse" id="color-48"><stop offset="0" stop-color="#6e6e6e"/><stop offset="1" stop-color="#969696"/></linearGradient><linearGradient x1="245.5417" y1="146.33619" x2="245.5417" y2="176.95673" gradientUnits="userSpaceOnUse" id="color-49"><stop offset="0" stop-color="#cdcdcd"/><stop offset="1" stop-color="#444444"/></linearGradient><linearGradient x1="202.83192" y1="122.76101" x2="202.83192" y2="193.62312" gradientUnits="userSpaceOnUse" id="color-50"><stop offset="0" stop-color="#c5c5c5"/><stop offset="1" stop-color="#5d5d5d"/></linearGradient><linearGradient x1="201.68032" y1="123.75697" x2="201.68032" y2="192.13539" gradientUnits="userSpaceOnUse" id="color-51"><stop offset="0" stop-color="#c5c5c5"/><stop offset="1" stop-color="#5d5d5d"/></linearGradient><radialGradient cx="197.40054" cy="196.38479" r="19.14942" gradientUnits="userSpaceOnUse" id="color-52"><stop offset="0" stop-color="#ffffff"/><stop offset="1" stop-color="#939393"/></radialGradient><radialGradient cx="206.4244" cy="122.45906" r="19.14942" gradientUnits="userSpaceOnUse" id="color-53"><stop offset="0" stop-color="#b9b097"/><stop offset="1" stop-color="#827c69"/></radialGradient><linearGradient x1="234.6331" y1="13.07025" x2="234.6331" y2="197.91262" gradientUnits="userSpaceOnUse" id="color-54"><stop offset="0" stop-color="#afafaf"/><stop offset="1" stop-color="#515151"/></linearGradient><linearGradient x1="237.50702" y1="85.19875" x2="237.50702" y2="201.09381" gradientUnits="userSpaceOnUse" id="color-55"><stop offset="0" stop-color="#afafaf"/><stop offset="1" stop-color="#4b4b4b"/></linearGradient><linearGradient x1="242.29412" y1="5.12391" x2="242.29412" y2="294.79866" gradientUnits="userSpaceOnUse" id="color-56"><stop offset="0" stop-color="#c5c5c5"/><stop offset="1" stop-color="#5d5d5d"/></linearGradient><radialGradient cx="282.84545" cy="132.49799" r="29.51683" gradientUnits="userSpaceOnUse" id="color-57"><stop offset="0" stop-color="#ff0000"/><stop offset="1" stop-color="#ff0000" stop-opacity="0"/></radialGradient></defs><g transform="translate(187.93446,-4.06986)"><g data-paper-data="{&quot;isPaintingLayer&quot;:true}" fill-rule="nonzero" stroke-linecap="butt" stroke-linejoin="miter" stroke-miterlimit="10" stroke-dasharray="" stroke-dashoffset="0" style="mix-blend-mode: normal"><g><path d="M525.82361,266.44068c35.87426,-9.67808 111.70236,-10.435 111.70236,-10.435l19.01962,69.72769c0,0 -65.76625,37.83622 -101.64051,47.51427c-7.012,1.89166 -15.41557,4.1297 -24.41714,6.51112c-0.10669,-0.36648 -0.21051,-0.73572 -0.31124,-1.10801c-1.84238,-3.38188 -4.53081,-12.22575 -6.59006,-14.75277c-5.90192,-7.24246 -15.03805,-3.45737 -22.21711,-1.54773c-4.76273,1.26689 -11.55059,1.98658 -15.04544,5.92225c-4.11936,4.63892 -0.83476,6.68211 -5.67904,10.46858c-4.60353,3.59825 -13.19535,4.56675 -18.15444,8.50796c-2.46982,1.96286 -4.23367,4.87434 -7.02759,6.33962c0,0 -3.74555,2.07041 -1.6752,5.81595c0.07279,0.13165 0.14764,0.25612 0.22429,0.37378c-6.1114,1.58808 -9.78302,2.53966 -9.78302,2.53966l-23.62467,-87.2175c2.82108,0.16061 3.9921,-2.74168 3.9921,-2.74168c6.09908,-15.2342 25.73029,-12.10362 37.57594,-21.87738c3.3928,-2.79937 6.22496,-5.87953 8.59278,-9.1876c23.6165,-6.37102 47.49419,-12.81252 55.05839,-14.85318z" fill="#494949" stroke="#000000" stroke-width="0"/><g stroke="none"><path d="M592.99301,368.34453c-0.2667,1.14198 -1.04172,2.38639 -3.04429,2.91909c-4.13584,1.10014 -5.23599,-3.0357 -5.23599,-3.0357l1.77208,-5.94856c5.62223,-3.06364 10.04108,-7.64531 14.82953,-11.8759c4.57635,-2.51969 -1.59484,-9.99647 1.64139,-16.14013c3.96042,-7.51858 12.13285,-8.33901 17.41268,-13.62755c2.40079,-2.40472 5.1798,-4.40507 7.63992,-6.74905c5.01359,-4.77694 6.25076,-13.7091 12.56356,-17.86067c5.13067,-3.37413 15.14056,-4.25468 21.10359,-5.84085c0,0 4.13584,-1.10014 5.23599,3.0357c1.10014,4.13584 -3.0357,5.23599 -3.0357,5.23599c-5.04123,1.34098 -14.2973,1.89046 -18.6007,4.72061c-5.38275,3.53998 -6.91888,12.40619 -11.27657,16.8232c-2.39283,2.4254 -5.16908,4.44293 -7.65942,6.76812c-5.38259,5.02567 -11.67572,5.5862 -15.97856,11.78767c-2.39861,3.45703 2.8869,9.30837 1.70882,12.91345c-0.76432,2.33879 -3.39184,3.56535 -5.08779,5.34802c-4.60183,4.0658 -8.8857,8.23415 -13.98852,11.52664z" fill="url(#color-1)" stroke-width="0.5"/><path d="M519.12999,284.2197c2.07041,3.74555 -1.6752,5.81593 -1.6752,5.81593l-4.11821,2.2764c-7.5041,4.14117 -14.25374,9.26128 -21.96864,13.03998c-8.38446,2.26081 -14.29562,6.24321 -22.18582,9.4326c-2.29551,0.92789 -5.87055,-0.69802 -7.31025,1.31631c-3.6653,5.12845 -2.93738,13.84652 -7.5307,19.54267c-5.2234,6.4775 -14.25351,7.20223 -20.92811,10.96588c-5.02965,2.83617 -8.08503,8.83649 -13.48076,11.88091c0,0 -3.74552,2.07042 -5.81593,-1.67515c-2.07041,-3.74555 1.6752,-5.81595 1.6752,-5.81595c5.52471,-2.97188 8.03315,-8.64675 13.2931,-11.77408c5.18892,-3.08511 14.71914,-3.83274 18.63501,-9.00545c4.04636,-5.34514 3.51958,-15.35364 7.93183,-19.99839c1.93196,-2.03381 7.60995,-2.27427 10.33611,-3.37765c7.85391,-3.1787 13.97285,-7.30666 22.37563,-9.50639c7.29641,-3.61341 13.71305,-8.57501 20.83249,-12.51643l4.11826,-2.27641c0,0 3.74552,-2.0704 5.81595,1.6752z" fill="url(#color-2)" stroke-width="0.5"/><path d="M432.47084,359.48365c-3.75459,6.47594 -9.88913,4.00473 -11.36917,3.28282c-0.71957,0.16705 -1.43509,0.34469 -2.14238,0.54358c0,0 -8.27171,2.20031 -10.47201,-6.07144c-2.20031,-8.27171 6.07144,-10.47201 6.07144,-10.47201c0.04412,-0.01083 0.08812,-0.02175 0.13217,-0.03286c-0.01414,-1.68462 0.17225,-3.32287 0.85325,-4.84675c9.30877,-20.82893 45.16827,-24.11248 63.9029,-18.02191c0.1929,0.06267 0.38287,0.12535 0.57008,0.18799c3.47246,-0.86366 6.93951,-1.60318 10.38366,-2.13149c10.33477,-1.58535 20.63672,1.60141 30.84034,0.07644c2.37036,-0.35423 4.76757,-0.73799 7.18265,-1.15453c6.83775,-16.75062 13.37533,-34.2895 31.88042,-38.82607c4.60353,-1.12858 9.31103,-3.67943 13.95489,-2.73039c4.39203,0.89756 7.28967,5.21944 10.94214,7.81842c3.91043,2.78259 8.48558,6.74023 13.31076,10.39323c17.46978,-6.90003 34.4314,-13.54668 53.09876,-18.51224l8.82315,-2.34698c0,0 8.27171,-2.20031 10.47201,6.07144c2.20031,8.27171 -6.07144,10.47201 -6.07144,10.47201l-1.16031,0.30864c-15.90982,9.27104 -26.79822,33.53751 -49.13725,30.28536c-6.32772,-0.92121 -12.12514,-3.79061 -17.58826,-7.2966c-1.39872,0.54881 -2.80365,1.09802 -4.2159,1.6468c-15.26003,8.44309 -33.55839,14.1273 -51.44384,17.79438c-2.21558,3.90722 -4.53818,7.72678 -6.57047,11.20362c-7.38684,7.7121 -11.41176,14.82732 -23.81609,15.06048c-4.80771,0.09034 -9.46368,-2.30826 -13.64351,-4.6855c-3.99127,-2.26997 -12.25126,-11.40993 -16.97974,-14.51403c-0.47439,-0.31143 -0.99526,-0.61014 -1.55769,-0.89525c-7.5161,2.09363 -15.01881,4.59351 -22.33443,6.53949c-5.31008,1.41249 -11.16427,1.40592 -15.97713,4.05703c-2.94931,1.62461 -4.95493,4.68187 -7.76807,6.49144c-0.05484,0.10098 -0.11183,0.20257 -0.17112,0.30475zM510.8138,345.06712c3.11127,-0.01231 6.02936,-3.17139 8.16832,-5.74932c-6.02907,0.15143 -12.0605,-0.8029 -18.08107,-0.93584c2.95651,2.82901 7.40602,6.69511 9.91274,6.68519zM574.79615,300.69891c-1.59353,-1.36287 -2.14271,-4.25375 -4.194,-4.68836c-2.09517,-0.44391 -3.85106,1.91774 -5.89722,2.5503c-2.05035,0.63387 -4.56173,-0.00328 -6.32036,1.22671c-5.01831,3.50998 -6.90809,10.32685 -8.59989,16.48929c10.79884,-2.81663 21.42318,-6.46776 31.08022,-11.24437c-2.06621,-1.38897 -4.17936,-2.71776 -6.06872,-4.33358z" fill="url(#color-3)" stroke-width="0.5"/><path d="M645.44203,291.25181c-2.61529,-9.83983 3.48294,-20.00088 13.62099,-22.69535c10.13801,-2.69453 20.47653,3.0977 23.09183,12.93752c2.6153,9.8398 -3.48289,20.00092 -13.62093,22.69542c-10.13796,2.69451 -20.47655,-3.09778 -23.09179,-12.93769z" fill="url(#color-4)" stroke-width="0"/></g><path d="M617.86858,298.58233c-5.28668,-19.89082 7.04062,-40.43085 27.53421,-45.8776c20.49351,-5.44685 41.39243,6.26183 46.6791,26.15262c5.28677,19.8908 -7.04051,40.43094 -27.53409,45.87772c-20.49336,5.44683 -41.39248,-6.26202 -46.67903,-26.15291z" fill="url(#color-5)" stroke="none" stroke-width="0"/><path d="M525.82361,266.44068c35.87426,-9.67808 111.70236,-10.435 111.70236,-10.435l19.01962,69.72769c0,0 -65.76625,37.83622 -101.64051,47.51427c-11.39355,3.07373 -26.46112,7.06185 -41.79801,11.09381c2.81712,-1.20538 5.97591,-2.05002 8.30109,-3.19836c4.26498,-2.10632 9.90375,-8.49952 14.28686,-9.619c4.27879,-1.09286 8.80021,0.76304 13.20801,1.03379c9.66897,-0.19693 16.9384,-3.28266 24.98844,-7.76975c5.22324,-2.9114 14.87664,-4.30627 18.98404,-9.15608c6.0829,-7.18248 2.89018,-17.98714 -5.86932,-21.3911c-1.07765,-0.41877 -9.21513,1.87644 -11.0037,2.35218c-10.26983,2.73178 -21.21942,7.72264 -31.84104,5.47342c-9.15013,-2.63551 -18.78912,-3.89556 -27.67443,1.02878c-3.47203,1.92423 -5.32393,5.99705 -8.60245,8.23512c-10.5991,7.23555 -29.11312,2.56354 -39.05793,11.92882c-4.60894,4.34041 -8.16881,11.59091 -12.31815,17.10314c-1.20812,0.70865 -1.77251,1.59824 -1.99113,2.46394c-0.57046,0.78611 -2.13554,3.4307 0.55995,5.80831c0.66348,0.58519 1.31076,0.9123 1.92021,1.06295l0.02627,0.04663c0.71337,2.76998 1.50259,5.72771 2.54257,8.59004c-9.37516,2.43852 -15.33725,3.98365 -15.33725,3.98365l-23.29985,-86.01828c4.92177,-1.02027 10.19436,-2.30754 13.37326,-5.27532c2.26289,-2.11256 2.1559,-6.12383 4.53476,-8.10495c4.09942,-3.41392 14.76724,-2.54554 19.82861,-4.99455c9.3828,-4.54002 18.58983,-14.20637 27.10174,-20.67828c18.06726,-4.87403 34.107,-9.20108 40.05611,-10.80601z" fill="url(#color-6)" stroke="#000000" stroke-width="0"/></g><g stroke="none"><path d="M74.91427,354.43492c-4.16384,0.98899 -5.15282,-3.17489 -5.15282,-3.17489l-0.14663,-1.67318c-5.44025,-8.62837 -23.85801,-14.21064 -33.6408,-14.44205c-15.49929,-2.57607 -32.04444,-2.52584 -47.74722,-4.85108c-7.13035,-1.05588 -15.75547,-5.74404 -22.50804,-8.2458c-13.91212,-5.15428 -27.8242,-10.30859 -41.73632,-15.46289c-29.00162,-10.74483 -56.63653,-25.57484 -87.10314,-31.42021c0,0 -4.20291,-0.80685 -3.3961,-5.00976c0.80685,-4.20291 5.00976,-3.3961 5.00976,-3.3961c30.96676,5.94814 58.99725,20.88303 88.46313,31.79982c13.91212,5.15428 27.8242,10.30859 41.73632,15.46289c6.09262,2.25725 14.36834,6.90426 20.83353,7.81181c15.5838,2.18766 31.85959,2.44593 47.26207,4.79076c12.72582,0.52355 32.88431,7.43494 40.0215,18.32582l1.27969,4.33199c0,0 0.98899,4.16384 -3.17489,5.15282z" fill="url(#color-7)" stroke-width="0.5"/><path d="M-77.20959,334.43985c1.48682,-4.01311 5.49991,-2.52629 5.49991,-2.52629l0.80261,0.29737c13.97883,5.17899 31.33908,15.89011 46.30175,11.44643c13.12425,-1.41883 29.16574,-8.94695 42.39297,-6.8001c16.9781,2.7557 35.16233,12.94491 51.35093,18.94265c0,0 4.01311,1.48682 2.52629,5.49991c-1.48682,4.01311 -5.49991,2.52629 -5.49991,2.52629c-15.95023,-5.90939 -33.16522,-15.20553 -49.77941,-18.52515c-2.93998,-0.58743 -4.31025,0.77765 -7.16426,1.3104c-10.52164,1.96404 -21.56571,4.26973 -32.1364,5.43683c-16.85086,5.0045 -35.26455,-5.99396 -50.96545,-11.81104l-0.80261,-0.29737c0,0 -4.01311,-1.48682 -2.52629,-5.49991z" fill="url(#color-8)" stroke-width="0.5"/><path d="M66.95364,354.19893c-1.5982,6.54864 -9.11141,4.47911 -9.11141,4.47911l-7.65709,-2.10984c-22.77447,-6.87782 -44.29636,-15.6587 -66.53871,-23.92902c-14.61374,-7.73331 -29.17033,-15.5805 -43.61595,-23.68614c-18.70659,0.26566 -34.69544,2.53006 -53.8536,-4.51788c-18.55254,-8.56008 -41.30577,-16.21605 -54.93979,-30.69923l-2.28991,-5.57373c-0.67298,-0.99419 -1.12286,-2.26524 -1.1456,-3.88922c-0.01777,-1.26731 0.23114,-2.28021 0.64861,-3.08939c0.18768,-0.36397 0.42627,-0.71901 0.72731,-1.05305c0.30103,-0.33405 0.63678,-0.6164 0.9921,-0.85491c0.78989,-0.53048 1.83166,-0.94992 3.19922,-1.18043c1.32106,-0.22263 2.47339,-0.18937 3.47515,0.01543c12.84267,0.8364 24.35863,-0.68462 37.46305,2.51811c17.62346,4.3072 34.488,14.55686 49.76858,23.56534c6.44132,3.79737 12.91022,7.52831 19.40227,11.20416c4.56143,-0.07534 9.15514,0.02452 13.79501,0.5099c19.62985,2.0535 37.75575,9.39303 56.23533,16.23953c8.21019,3.04179 19.01071,5.79587 26.36322,10.70313c9.19038,6.13389 13.95951,13.95619 19.84781,22.34288c0,0 0.00702,0.00998 0.02004,0.02937l1.29945,0.35781c0,0 7.51324,2.06951 5.91501,8.61815zM-83.54069,295.4114c-13.71023,-8.07875 -29.13981,-17.78969 -45.00502,-21.59431c-7.55457,-1.81164 -14.58956,-1.87882 -21.72844,-1.85105c11.78933,8.61556 29.22106,14.28617 41.78504,20.10748c8.85481,3.30946 17.62911,4.18399 26.42715,4.20772c-0.49308,-0.28957 -0.98599,-0.57952 -1.47877,-0.86984zM-10.5756,320.46901c15.96921,5.89415 31.54232,12.11306 47.51347,17.64209c-1.53548,-1.59694 -3.235,-3.07048 -5.18125,-4.3504c-6.21589,-4.08769 -16.12101,-6.47216 -22.92419,-8.99267c-10.77691,-3.99272 -21.28081,-8.01244 -31.98608,-11.00183c4.18673,2.24789 8.37985,4.48116 12.57811,6.70281z" fill="url(#color-9)" stroke-width="0.5"/><path d="M-151.19014,270.97139c-3.53517,9.54804 -14.37583,14.3354 -24.21308,10.69309c-9.83736,-3.64233 -14.94606,-14.33518 -11.41079,-23.88319c3.53523,-9.54797 14.37578,-14.33527 24.21309,-10.6929c9.83736,3.64233 14.94608,14.33515 11.41085,23.88313z" fill="url(#color-10)" stroke-width="0"/></g><path d="M81.65275,458.6859c0.51267,0.58467 2.56712,3.25977 -0.10799,5.93493c-3.02616,3.02616 -6.05238,0 -6.05238,0l-2.39472,-4.16741c0,-3.37129 0.04499,-6.74263 0.11447,-10.11326c3.97359,-8.23525 14.32141,-28.67035 8.42972,-37.99307c-4.14186,-6.55389 -10.50224,-12.33653 -9.65341,-20.89147c0.51226,-5.1632 13.46638,-21.98351 4.6162,-24.18046c0,0 -3.82783,-1.91392 -1.91395,-5.74179c1.91392,-3.82783 5.74179,-1.91395 5.74179,-1.91395c6.72168,4.12432 9.97474,13.08866 6.60499,21.44306c-1.46506,3.63216 -9.1637,8.70265 -6.74135,14.12761c2.05331,4.59847 6.5015,8.64238 8.79412,12.93979c6.74624,12.64553 -1.65111,32.85864 -7.54771,44.17679c0.06794,2.12563 0.09967,4.25244 0.11022,6.37922z" fill="url(#color-11)" stroke="none" stroke-width="0.5"/><g stroke="none"><g><path d="M249.70581,272.71806h2.2825c10.35357,0 14.98648,0.8231 17.94258,11.7455c0.04592,7.29222 0.4465,15.37333 2.20009,22.36457c1.13316,4.51769 4.71572,9.12553 5.70625,13.69498c0.01028,0.04751 0.02051,0.09528 0.03058,0.14328c0.00541,-0.00045 0.01079,-0.00089 0.01623,-0.00136c5.97333,-0.49779 13.98382,-2.77791 19.9663,-0.93622c7.53987,2.32115 12.17289,12.1838 19.40122,14.83619c2.61426,0.9593 5.59798,0.27831 8.29953,0.95367c13.71298,-0.10876 33.97579,-3.75571 46.61184,1.375c2.19162,0.88988 4.64312,1.64395 6.2295,3.39857c1.54357,1.70726 3.27963,11.47336 6.47716,12.63887c5.64941,2.05926 15.26573,-2.57096 21.18719,-2.60829c0,0 4.27967,0 4.27967,4.27967c0,3.37945 -2.66853,4.09028 -3.79124,4.23985c-0.97105,2.04955 -3.48635,2.30109 -3.48635,2.30109c-10.85518,1.084 -22.32647,2.23678 -32.81528,5.40673c-15.14535,4.57727 -24.67447,20.32356 -39.29709,25.20858c-4.97141,1.66079 -14.3964,1.36088 -19.61332,1.36088c-3.75966,0 -8.94824,0.29365 -12.29063,-1.64765c-2.72947,-1.58535 -4.54369,-4.38269 -6.81554,-6.57404c-7.56834,-5.49361 -18.14152,-11.71855 -22.41928,-20.46742c-2.23626,-4.57363 -2.49178,-9.59663 -2.05315,-14.77414c-3.07097,-4.58809 -5.76615,-9.40257 -8.07796,-13.48774c-1.13364,-2.00324 -1.86212,-3.99179 -2.43118,-5.87976c-1.19684,0.02297 -2.39538,0.03955 -3.59625,0.04985c-0.23343,0.20148 -0.46986,0.40065 -0.70915,0.59752c-0.06369,0.214 -0.13033,0.42706 -0.20008,0.63901c-0.24257,0.73701 -1.89461,1.21748 -1.42849,1.83779c0.69047,0.91892 2.5134,-0.02671 3.36738,0.74264c6.74977,6.0808 7.5227,13.5976 6.11274,22.18172c-1.47251,8.96518 -6.3765,11.65063 -9.41442,19.30412c-3.78103,9.52562 -3.09797,19.13579 -3.09797,29.17593c0,3.80416 0,7.60833 0,11.41246v3.42376c0,0 0,4.27967 -4.27967,4.27967c-4.27967,0 -4.27967,-4.27967 -4.27967,-4.27967c0,-3.80416 0,-11.03204 0,-14.83619c0,-9.10352 -0.34759,-17.8108 1.81061,-26.45222c-4.10964,3.42047 -9.22187,6.12602 -13.02459,9.17524c-6.00157,4.81236 -7.06792,10.69814 -15.65191,12.34945c-12.80402,2.46316 -31.85469,-0.48319 -44.35223,-3.55414c-11.77858,-5.0906 -14.37442,-21.78487 -26.2853,-26.26075c-2.59036,-0.9734 -5.55979,0.57636 -8.29953,0.18756c-6.44838,-0.91511 -9.41302,-5.35563 -15.4665,-6.97374c-11.59578,-3.09959 -25.74886,-0.98296 -37.64924,-0.98296c0,0 -0.80814,0 -1.72205,-0.35118c-0.03742,0.01505 -0.07485,0.03011 -0.11223,0.04508c0,0 -3.97359,1.58944 -5.56301,-2.38416c-1.58944,-3.97359 2.38416,-5.56301 2.38416,-5.56301c10.18311,-4.06596 20.9078,-10.60738 31.98143,-11.69774c23.11153,-2.27575 47.0975,1.26235 70.03786,1.12043c10.01846,0 20.41001,0.8145 30.39199,0.02081c3.28578,-0.26128 5.93214,-2.87863 8.94612,-4.21307c5.0866,-2.2521 10.59886,-4.36844 15.96226,-6.82949c-0.81198,-1.16379 -1.63539,-2.2995 -2.45226,-3.40377c-3.64169,-2.92517 -9.285,-3.54502 -11.88326,-7.42674c-3.24597,-4.84935 -0.89148,-8.86296 1.91268,-12.4396c-4.01953,-2.78123 -7.316,-6.08596 -9.02166,-9.68514c-2.97113,-6.26966 -6.5888,-20.9482 -1.87822,-27.38102c2.26641,-3.09505 8.03064,-4.0941 11.49308,-4.97792l2.17918,-0.12775c0,0 4.27967,0 4.27967,4.27967c0,4.27967 -4.27967,4.27967 -4.27967,4.27967l-0.10325,-0.12775c-2.27364,0.55387 -5.46844,-0.07728 -6.76688,1.86957c-2.40874,3.61168 1.43434,15.14133 2.68676,18.26892c0.69748,1.74181 2.12336,3.43424 3.98894,5.00073c0.27589,-4.50822 1.19011,-8.60658 2.69226,-11.58099c2.92681,-1.98525 5.18208,-3.38428 7.36121,-4.47854c0.66983,-1.66779 1.35804,-3.32226 2.0855,-4.94022c-0.57622,-0.41246 -1.1801,-0.86257 -1.81493,-1.35907l-1.72781,-5.89432c0,0 -1.03799,-4.1519 3.11395,-5.18988c4.1519,-1.03799 5.18988,3.11395 5.18988,3.11395l0.08113,0.47337c2.57037,-3.72344 5.71356,-6.86169 9.8305,-8.9695l2.2825,-1.14124c0,0 3.82783,-1.91395 5.74179,1.91395c1.91395,3.82783 -1.91395,5.74179 -1.91395,5.74179l-2.2825,1.14124c-2.16444,1.04861 -3.70636,2.16091 -4.85441,3.37001c0.39526,-0.06507 0.65797,-0.06507 0.65797,-0.06507zM277.91964,343.71302c-0.15052,1.38464 -0.43982,2.90321 -0.72918,4.48156c2.20632,2.95807 4.59896,5.64223 7.18357,7.66337c12.09739,9.45993 30.79175,5.87748 45.21914,5.87748c0,0 4.27967,0 4.27967,4.27967c0,4.27967 -4.27967,4.27967 -4.27967,4.27967c-17.12623,0 -36.26594,3.32116 -50.64571,-7.81749c-0.26794,-0.20756 -0.53408,-0.42108 -0.79855,-0.64033c4.21602,6.89813 13.48297,12.04362 19.64321,16.55788c22.25665,23.27287 48.86154,-13.54033 69.74938,-19.96615c3.00389,-0.92411 6.08577,-1.68933 9.21131,-2.33688c-2.37564,-4.32197 -2.97544,-9.70846 -7.55951,-11.1703c-12.86416,-4.10229 -31.07755,-0.82172 -44.688,-0.90752c-3.24956,-0.81238 -6.82942,-0.13867 -9.96044,-1.32878c-7.14794,-2.71693 -12.36271,-12.81288 -19.40122,-14.83619c-4.47892,-1.28756 -12.12373,0.96138 -16.4902,1.34089c0.08334,5.08252 -0.30148,10.54628 -0.73384,14.52318zM263.8006,308.79472c-1.81142,-7.26501 -2.42469,-15.74629 -2.36493,-23.28532c-1.25386,-6.04667 -3.88137,-4.23195 -9.44736,-4.23195h-0.02725c1.62467,1.68575 3.17209,3.91479 4.92007,7.35591c3.41727,5.9616 5.60897,17.1558 4.40816,26.6491c1.07641,1.93764 1.76181,4.07326 2.35129,6.24839c1.84428,-0.07149 3.68689,-0.15818 5.53035,-0.26083c-1.31823,-4.14173 -4.33864,-8.33736 -5.37036,-12.47528zM266.15743,329.9993c0.28568,0.67191 0.60448,1.32465 0.96753,1.95228c0.77861,1.34609 1.60117,2.79707 2.46837,4.30449c0.28633,-2.1787 0.50263,-4.34054 0.55575,-6.46413c-1.33057,0.07713 -2.66087,0.14624 -3.99165,0.20734zM234.27819,302.55341c-0.48865,1.21006 -1.07118,2.37952 -1.71937,3.5158c4.62121,1.98148 9.40354,3.19402 12.58203,3.1688c0.30435,0.00157 0.63008,-0.00117 0.97312,-0.00578c-0.06156,-6.77262 -0.74457,-13.56954 -2.72193,-19.38444c-0.63321,0.16717 -1.23328,0.33221 -1.81123,0.50213c-2.36443,4.11376 -5.43145,7.56984 -7.30258,12.20349zM131.71404,361.00955c4.06916,2.18009 9.07347,-0.60364 13.20906,0.94549c12.3465,4.62483 15.21266,22.43404 26.21209,26.23668c11.53498,2.95386 28.15141,4.83714 40.10015,3.29337c5.77797,-0.74651 7.61158,-7.11558 11.73805,-10.47548c4.51754,-3.67836 13.07709,-7.38649 16.24451,-12.67947c5.86632,-9.80308 3.36385,-19.65795 -1.45564,-28.46738c-5.88634,2.66968 -11.93342,4.91835 -17.1232,7.23434c-3.83412,1.71104 -7.42533,4.43706 -11.59635,4.9169c-10.11516,1.16377 -21.0478,0.02081 -31.23542,0.02081c-22.73426,-0.11702 -46.28112,-3.02887 -69.19442,-1.16207c-3.67349,0.29927 -7.37021,1.36172 -11.03392,2.77149c11.78251,0.1231 22.7671,1.27488 34.13517,7.36539zM252.315,355.15026c0.48831,-3.48105 1.41419,-7.24478 0.19988,-10.54354c-0.76732,-2.08452 -3.03421,-3.09928 -5.14505,-4.23824c2.73888,6.24983 4.28015,12.83331 3.56697,19.52025c0.6368,-1.4049 1.12713,-2.94848 1.37818,-4.7385zM245.14083,317.79738c-2.97788,-0.0188 -6.54187,-0.65753 -10.2356,-1.79585c0.26071,0.69351 0.51406,1.36255 0.75182,2.00144c0.66553,1.78825 0.54567,4.24629 2.1267,5.3145c1.05522,0.71294 2.24752,-1.35052 3.51163,-1.50492c1.44849,-0.1769 2.90758,-0.18548 4.36938,-0.14816c0.09009,-1.26359 0.17222,-2.55309 0.2411,-3.8605c-0.24828,-0.00594 -0.50326,-0.00817 -0.76502,-0.00652z" fill="url(#color-12)" stroke-width="0.5"/><path d="M71.95641,365.72982c0,-4.27967 4.27967,-4.27967 4.27967,-4.27967c3.04332,0 7.22791,0 10.27125,0c33.01531,0.3475 59.08898,21.68872 84.67223,39.61024c12.60738,8.8317 20.80242,20.15703 37.07161,23.22853c23.22034,3.87006 51.06326,12.95119 75.00653,7.9739c14.71678,-3.05929 28.43978,-7.59109 41.99358,-14.36339c19.54236,-11.59703 18.35094,-41.76549 38.75329,-53.61123c6.41452,-3.72431 14.20844,-2.12464 21.0881,-2.81719c5.96082,-0.60001 11.4664,-2.28531 17.54041,-2.30333c0,0 4.27967,0 4.27967,4.27967c0,1.19149 -0.33174,2.05128 -0.81046,2.67171c0.75171,-0.06431 1.49845,-0.09921 2.23706,-0.10391c0,0 4.27967,0 4.27967,4.27967c0,4.27967 -4.27967,4.27967 -4.27967,4.27967c-3.32683,-0.02642 -4.53135,-0.37543 -7.64513,0.87541c-2.01157,0.80805 -4.04336,1.65398 -5.82991,2.88178c-17.90764,12.3063 6.44319,31.65995 9.65156,44.61854c2.66738,10.77368 -3.43301,20.60808 -8.10588,29.76212c-1.75264,9.10349 -3.02499,18.55305 -2.07169,27.86182c0.97246,9.49591 5.43616,16.18793 4.56027,26.56681c-1.42825,16.92395 -12.61534,29.55209 -12.52817,46.89479l0.68945,0.36856c0,0 1.91392,3.82788 -1.91395,5.74179c-3.82788,1.91392 -5.74179,-1.91395 -5.74179,-1.91395l-1.59304,-4.19641c0.02612,-6.25083 0.82731,-14.3587 2.39697,-20.38448c2.47713,-9.5096 9.32569,-16.9995 10.18233,-27.44427c0.79485,-9.69158 -3.49871,-15.69348 -4.5697,-24.78939c-1.23313,-10.47317 0.38981,-21.27267 2.49328,-31.48307c3.66841,-7.46101 10.09599,-16.24984 7.87159,-25.01779c-2.59361,-10.22329 -12.78019,-18.20362 -15.93667,-28.37208c-4.18884,-13.49412 5.55781,-24.09527 17.1094,-28.41876c-3.80818,0.53771 -7.49492,1.4723 -11.42205,1.86275c-5.45159,0.54203 -12.59007,-1.09766 -17.71435,1.74782c-2.65041,1.47175 -3.72484,4.78868 -5.723,7.06858c-13.03828,14.87708 -15.50365,35.92783 -33.12862,46.59744c-14.33335,7.17104 -29.08894,12.28231 -44.7413,15.30909c-25.21013,4.87492 -53.47124,-3.92868 -77.9207,-8.00359c-17.66382,-3.68591 -26.74102,-15.05756 -40.53326,-24.70389c-3.95043,-2.76293 -8.86858,-4.00094 -12.68511,-6.9461c-19.94262,-15.38936 -40.14411,-31.43086 -66.98232,-31.0485c-3.04332,0 -6.08665,0 -9.12996,0h-1.14124c0,0 -4.27967,0 -4.27967,-4.27967z" fill="url(#color-13)" stroke-width="0.5"/><path d="M265.93455,404.72798c-1.34972,-4.27925 -3.83729,-8.09773 -6.29285,-11.78999c-3.19684,-4.80693 -6.74304,-8.71339 -10.29873,-12.66184c-1.34696,0.4565 -2.71203,0.93447 -4.06144,1.4475c0.00787,0.33212 0.01346,0.57693 0.01376,0.70811c0.02427,11.05536 -0.41401,21.55105 3.74182,32.04688c2.21838,5.60266 6.85468,9.95113 8.83094,15.65369c1.59531,4.60329 2.72923,9.47419 3.15449,14.37825c6.0342,-12.05963 9.85337,-24.11614 4.91212,-39.78255zM231.11938,356.50117c0,-7.62661 7.2323,-7.62661 7.2323,-7.62661c3.5483,0.30078 7.60396,-1.04901 10.6449,0.90239c0.88207,0.56603 1.6986,1.21127 2.46467,1.91776c1.25684,-0.63577 2.55977,-1.28967 3.90643,-2.01507c0,0 6.46876,-3.41071 9.7031,3.41071c0.46411,0.9788 0.72841,1.88742 0.84074,2.72576c0.88004,-0.73865 1.75893,-1.4788 2.63712,-2.21978l-0.50431,-0.50598c0,0 3.23434,-6.82144 9.7031,-3.41071c6.46876,3.41071 3.23434,10.23215 3.23434,10.23215l-3.39723,5.59532c-3.04668,2.56973 -6.1193,5.1064 -9.22375,7.59859c14.29769,17.12363 25.53748,41.13832 17.23731,63.93697c-5.4839,15.06305 -16.02102,28.11398 -21.70977,43.13517c6.57577,7.13824 13.01713,14.4575 16.10017,23.59481c2.39849,7.10847 0.30699,19.78092 0.27513,27.36674c-2.47341,13.21198 -6.58256,28.17665 -12.34618,41.6951c0.62838,1.82285 1.25167,3.62956 1.86468,5.41395c2.40991,7.0149 5.6504,14.44909 4.66092,21.83678c-1.91346,14.28681 -13.66144,22.35146 -15.97163,35.46685c-1.90319,10.80471 3.09739,23.96642 -0.24061,34.52659c-1.00417,3.17684 -3.60979,5.51036 -5.41469,8.26551l1.44648,-1.52531c0,0 0,1.82421 -0.84605,3.68832c0.71634,1.26154 1.10236,2.94788 0.74763,5.19211c-1.18897,7.52285 -8.32284,6.26904 -8.32284,6.26904c-3.59969,-0.75561 -7.62358,-0.32605 -10.79914,-2.26686c-15.84963,-9.68669 -17.7905,-36.30129 -15.4404,-53.47285c1.63385,-11.93801 6.72763,-20.7679 10.3965,-31.83673c1.05258,-3.17551 0.55047,-7.04861 2.4415,-9.75779c2.23516,-3.20212 6.07023,-4.78827 9.26011,-7.01002c0.49816,-17.95279 -0.7718,-35.8653 -0.23897,-53.71195c-1.56974,-10.69795 -1.66292,-21.40944 -1.66292,-32.50535c0.0232,-7.78275 0.67586,-15.95817 2.38801,-23.78674c-1.48275,-1.79394 -2.84831,-3.61461 -4.03016,-5.48328c-9.96812,-15.76149 -14.16077,-34.92373 -17.0634,-53.36889c-1.91859,-12.19222 -3.3434,-27.14257 4.2864,-37.92479c2.63301,-3.72088 6.22866,-6.48744 10.23383,-8.7135c0.23854,-2.89466 0.76781,-5.71137 1.90688,-8.0738c-1.90102,-0.26848 -6.40035,-1.5393 -6.40035,-7.55467zM253.85552,508.88311c-1.50591,7.94533 -2.25548,15.92489 -2.58689,23.92744c0.56622,3.49115 1.32841,6.98152 2.35461,10.48423c0.7103,2.42451 1.46103,4.87799 2.23978,7.34587c2.2674,-7.10912 4.0763,-14.2579 5.37853,-21.00409c-0.0298,-5.82283 2.15021,-16.2017 0.27513,-21.44358c-1.38122,-3.8613 -3.57207,-7.43063 -6.17964,-10.83296c-0.49839,3.91982 -0.89971,7.84482 -1.48146,11.52315zM251.06719,597.97612c-0.34995,5.19521 -0.94124,10.44158 -1.52789,15.70425c4.43617,-7.03825 8.18997,-14.27581 6.07472,-22.05249c-0.21814,-0.80204 -0.44665,-1.60257 -0.6844,-2.40169c-0.75522,1.22689 -1.52874,2.42261 -2.32068,3.58351c-0.425,0.62303 -0.87414,1.2285 -1.34388,1.81701c-0.057,1.11663 -0.12267,2.2331 -0.19784,3.34946zM234.92395,435.3705c2.43143,9.6226 4.15737,16.90601 8.68697,25.03114c1.6486,-3.42524 3.21096,-6.91442 3.13361,-10.64419c-0.25404,-12.24431 -6.80863,-18.6411 -10.97689,-29.20781c-3.68817,-9.34972 -4.63586,-18.61377 -4.8683,-28.20723c-5.89828,11.87936 1.28486,32.18529 4.0246,43.02818zM229.33006,638.09247c-1.48533,11.10601 -1.70176,28.08481 6.47079,35.40067l0.8157,-4.30078c0.51152,-0.61695 0.95687,-1.26607 1.34342,-1.9438c-5.2178,-15.11814 -4.85722,-30.38812 -3.5347,-45.82993c-2.19926,5.27376 -4.2756,10.54507 -5.0953,16.67377z" fill="url(#color-14)" stroke-width="0.5"/><path d="M418.10911,348.98249c8.47333,1.21047 7.26286,9.68382 7.26286,9.68382c-0.98129,5.11211 -0.11993,10.96345 -2.94393,15.33624c-3.93975,6.10042 -17.27742,11.48485 -23.74492,14.96606c-15.07504,8.11438 -36.7622,12.54184 -46.40205,27.76705c-8.58729,13.56274 1.51571,30.74187 2.94854,44.30098c2.09296,19.80596 -3.6204,37.32502 -10.84174,55.37847c-9.1785,22.76375 -27.59308,37.06837 -40.03919,57.81283c-5.71179,9.5201 -6.03485,17.16414 -9.41245,27.24883c-5.15177,15.38192 -12.65325,33.49076 -22.6437,48.69222c-2.0736,6.97935 -5.12963,13.38954 -8.54494,20.73706c-0.78087,1.67985 -4.59215,10.83504 -7.65857,17.81927c1.05958,2.13531 1.8119,4.37013 2.11001,6.7501c-13.38536,-0.59578 -24.91464,-6.68925 -37.2529,-7.44788c-0.89106,-1.9111 -1.68289,-4.11583 -2.39556,-6.77318c-0.85944,-3.20452 0.88309,-6.7335 0.08161,-9.95302c-1.54477,-6.20526 -6.75109,-10.88225 -10.59272,-15.99437c-9.36569,-12.46284 -18.26726,-25.05263 -27.43826,-37.72655c-4.81416,-6.6529 -8.57323,-10.05842 -10.05755,-18.84388c-2.27117,-13.44278 4.14147,-20.87118 5.02283,-33.27577c0.73574,-10.35535 -0.07944,-21.27926 -0.04165,-31.68219c0.01449,-3.98903 1.13911,-16.37785 -1.99011,-20.9361c-3.64627,-5.31135 -9.77774,-8.52881 -13.67221,-13.66094c-7.52191,-12.6366 -18.04182,-31.45142 -16.82867,-46.62967c0.85323,-10.6753 10.40861,-15.66045 10.23992,-25.14688c-0.24383,-13.7164 -12.72987,-33.73261 -21.78794,-43.69838c-1.36842,-1.50555 -10.31564,-11.62672 -14.73755,-12.86652c-8.68967,-2.43637 -23.56043,0.42962 -32.25737,1.90601c0,0 -8.4429,1.40714 -9.85005,-7.03576c-1.40714,-8.4429 7.03576,-9.85005 7.03576,-9.85005c1.2234,-0.20059 2.53722,-0.41798 3.92093,-0.64108c1.42452,-0.77493 2.65507,-1.02108 2.65507,-1.02108c13.39135,-2.61774 25.10284,-1.46141 38.47134,-0.12455c25.89762,2.58978 49.86972,5.38424 75.07341,12.25804c10.23806,2.79221 12.42041,-0.02408 22.73605,6.0974c4.31864,2.56278 7.97439,5.74437 11.0548,9.36151c9.82172,-15.91228 21.14583,-30.20524 40.45203,-36.03117c8.87562,-2.67837 23.64008,-0.28673 33.0106,-0.28673c25.07543,0 51.64199,2.11064 77.23363,5.82446c2.8428,-3.91403 5.93909,-7.71769 10.07188,-10.96011l8.15524,-4.23201c0,0 7.65572,-3.82783 11.48356,3.82783c2.05639,4.11273 0.79861,7.12082 -0.80595,9.02413c0.86195,-0.12581 1.83103,-0.13021 2.92003,0.02537zM162.48538,402.98123c4.13502,7.66289 7.98196,16.1918 7.90035,24.89881c-0.11293,12.04535 -9.53952,15.52694 -10.30253,26.20926c-0.77338,10.82746 8.53856,26.55703 13.98506,35.54022c3.83967,5.20657 10.36295,8.19757 13.71772,13.72901c9.20181,15.17211 6.24703,46.27821 4.81571,63.78905c-0.81792,10.00639 -6.9154,18.1046 -5.24839,28.35165c1.84388,11.33427 14.83111,21.90292 20.9524,31.08006c2.84548,4.26597 6.43112,8.65499 10.07815,13.17147c1.2901,-10.5559 4.23353,-21.49192 7.48654,-31.46232c-0.5796,-0.78787 -1.10735,-1.5604 -1.56269,-2.31508c-7.16269,-19.18378 -13.51535,-45.09316 -1.56956,-64.26284c0.06984,-1.37144 0.1627,-2.74679 0.27374,-4.11973c-0.84184,-0.64783 -1.66536,-1.23213 -2.45604,-1.73797c-3.82806,-2.44902 -8.85931,-3.22459 -11.95683,-6.54987c-4.65477,-4.99703 -6.77899,-17.49455 -7.36717,-23.92024c-0.57497,-6.28176 0.15561,-16.80879 2.20987,-22.49391c6.04869,-16.74003 23.47285,-24.87657 28.88527,-42.12421c0.63114,-2.01126 0.88143,-4.35416 0.91621,-6.8541c-0.28636,-0.57938 -0.54594,-1.17 -0.76348,-1.77827c-3.41736,-9.55385 -4.38216,-19.0351 -3.43622,-28.46805c-2.71651,-6.70953 -7.06865,-12.74001 -13.5101,-16.67304c-4.22624,-2.58043 -14.26118,-3.05905 -18.34891,-4.17386c-17.46419,-4.76293 -34.25664,-7.44436 -51.59964,-9.50333c6.78162,9.33698 11.86139,20.32888 16.90055,29.66727zM278.65657,596.18281c3.68751,-11.12215 4.79449,-20.39608 11.13002,-30.95482c5.30889,-8.84782 13.4303,-20.74194 19.69485,-28.55461c1.89419,-2.36236 5.05148,-3.40171 7.21189,-5.52338c5.71149,-5.6092 8.93298,-13.85744 11.80022,-21.09271c6.24236,-15.60596 11.28567,-30.18794 9.70068,-47.33389c-0.5246,-5.67508 -4.02596,-10.73208 -5.02283,-16.34351c-2.0518,-11.5496 -1.44648,-28.3288 4.54762,-38.64416c2.05654,-3.53913 4.5527,-6.59661 7.36991,-9.2918c-7.00052,4.04485 -13.5629,9.13039 -18.62129,15.07984c-2.52746,2.97268 1.05804,7.73551 1.37783,11.62431c0.08371,1.01785 -3.26294,19.06933 -3.85121,20.67911c-5.5975,15.31813 -16.56821,30.8248 -24.95927,44.79499c-13.64567,18.23717 -27.27149,36.17153 -29.38647,59.26923c-1.78828,19.52998 2.3085,38.90097 4.41533,58.37804c1.7345,-4.0738 3.2864,-8.14646 4.59273,-12.08665zM313.76788,367.18202c-7.20931,2.57971 -13.88608,6.9073 -19.55131,12.05842c-4.44373,4.04042 -10.90754,6.36079 -13.7382,11.65785c-14.31783,26.79305 5.82915,57.44587 1.02785,84.58343c-1.72014,9.72266 -7.20412,15.84661 -13.65133,21.05485c0.82818,2.57561 1.47578,5.18009 1.74246,7.80337c4.56528,-7.90553 9.30524,-15.38936 15.23155,-23.26979c7.59511,-12.67431 17.95423,-26.90658 22.9731,-40.79858c5.02481,-13.90847 -4.06844,-22.79875 4.3741,-36.17148c7.84113,-12.42004 25.0238,-21.93529 38.29668,-27.23788c5.22982,-2.08934 11.26993,-2.04229 16.2204,-4.72736c2.13462,-1.1578 4.0211,-2.46545 5.72652,-3.88429c-17.87068,-2.64597 -35.62705,-4.87765 -53.68944,-5.4918c-1.52983,3.13601 -4.96241,4.4232 -4.96241,4.4232zM264.69649,472.24446c1.88787,-12.62425 -4.01913,-26.18522 -5.24839,-38.6229c-1.53115,-15.49189 -1.46574,-37.38394 6.27627,-51.40463c4.37997,-7.93208 12.88391,-15.13716 21.93293,-20.86337c-2.71449,0.04841 -5.20683,0.31297 -7.22332,0.95112c-15.91404,5.03652 -24.06065,18.05429 -32.08179,31.25327c-1.00986,2.9606 -1.64553,5.72976 -1.98135,8.36811c1.18549,3.7119 2.08135,7.51702 2.73525,11.31556c0.01073,3.41736 0.31828,7.30558 0.58857,11.31117c1.32045,3.93259 2.82366,8.01845 4.18687,12.52082c4.19112,13.84251 4.08174,28.35718 7.90107,42.38167c1.44808,-2.02723 2.49024,-4.37708 2.91398,-7.21073zM225.45928,517.87328c3.58591,-8.72272 9.39198,-16.72653 16.3559,-23.0864c1.93324,-1.76553 4.20344,-3.29228 6.55228,-4.7762c-1.53705,-3.61358 -3.11365,-7.14044 -4.03857,-10.37236c-1.64525,-5.74893 -2.41936,-11.74072 -3.1652,-17.7128c-1.87431,3.04778 -3.91092,5.99929 -5.99952,8.86266c-1.83009,2.50894 -5.15361,3.52484 -7.36656,5.70362c-7.57702,7.46002 -10.44227,17.07384 -9.50532,27.47906c0.41986,4.66265 -0.62179,10.66127 2.90409,13.74098c1.12747,0.9848 2.54324,1.4973 4.00228,1.94836c0.08784,-0.60323 0.17491,-1.19904 0.26061,-1.78684zM242.28768,658.74531c7.02807,-5.02183 10.74849,-12.03088 14.95227,-19.32546c0.21366,-1.23907 0.38126,-2.49567 0.49628,-3.77231c1.49968,-16.6415 -1.59935,-34.13552 -3.96045,-51.59813c-1.32611,1.59143 -2.97515,3.03015 -3.82183,4.8922c-1.55273,3.41472 -1.97414,7.23792 -2.96117,10.85686c-0.73227,1.93457 -1.48979,3.96824 -2.25207,6.08015c7.2618,9.74118 14.92322,18.34991 10.93144,32.89707c-1.86288,6.7888 -9.09899,10.7573 -13.28818,16.41492c-0.95773,1.29339 -1.46681,2.90951 -1.72389,4.63426zM241.99732,522.29402c-0.09031,0.64961 -0.18462,1.31656 -0.28134,1.99868c5.24873,-4.29199 9.63902,-9.04978 10.75489,-16.08038c-4.4159,3.80453 -8.23435,8.18494 -10.47355,14.08169zM248.34126,539.14645c1.39228,1.83513 2.64112,3.66776 3.68275,5.43782c0.35959,-3.26659 0.89862,-6.50685 1.65562,-9.7144c-1.75371,1.40614 -3.55148,2.80589 -5.33833,4.2766zM238.75342,631.01455c-0.3113,1.72627 -0.57306,3.46954 -0.83566,5.21401c1.23062,-1.6346 1.83598,-3.81197 1.26197,-7.47782c-0.14694,0.74998 -0.28938,1.50439 -0.42632,2.26386zM406.62743,354.03192c-0.22266,0.15521 -0.44089,0.31267 -0.65499,0.47223c0.91979,0.16653 1.83734,0.33509 2.75262,0.50558c0.21534,-0.69479 0.57042,-1.60197 1.13743,-2.50518zM393.61279,370.72821c-0.5218,0.8145 -1.06331,1.62652 -1.63566,2.4314c1.71444,-0.86679 3.29914,-1.56731 4.75236,-2.19313c-1.03816,-0.08323 -2.07691,-0.16112 -3.1167,-0.23825z" fill="url(#color-15)" stroke-width="0.5"/><path d="M225.02635,682.06184v-334.44937h35.66401v334.44937z" fill="url(#color-16)" stroke-width="0"/><g stroke-width="0"><path d="M95.20939,397.93136v-24.64077c0,0 21.57558,32.14013 59.45917,32.14013c75.94566,0 79.81469,-12.85609 79.81469,-12.85609v24.64077c0,0 -3.86902,12.85609 -79.81469,12.85609c-37.88361,0 -59.45917,-32.14013 -59.45917,-32.14013z" fill="url(#color-17)"/><path d="M95.20939,433.28544v-24.64077c0,0 21.57558,32.14013 59.45917,32.14013c75.94566,0 79.81469,-12.85609 79.81469,-12.85609v24.64077c0,0 -3.86902,12.85609 -79.81469,12.85609c-37.88361,0 -59.45917,-32.14013 -59.45917,-32.14013z" fill="url(#color-18)"/><path d="M97.77716,467.56826v-24.64077c0,0 20.77999,32.14013 57.26669,32.14013c73.14521,0 76.87156,-12.85609 76.87156,-12.85609v24.64077c0,0 -3.72635,12.85609 -76.87156,12.85609c-36.48664,0 -57.26669,-32.14013 -57.26669,-32.14013z" fill="url(#color-19)"/><path d="M105.4806,500.35459v-24.64077c0,0 19.45401,32.14013 53.61248,32.14013c68.47784,0 71.96638,-12.85609 71.96638,-12.85609v24.64077c0,0 -3.48855,12.85609 -71.96638,12.85609c-34.15843,0 -53.61248,-32.14013 -53.61248,-32.14013z" fill="url(#color-20)"/><path d="M124.31121,536.67164v-20.21266c0,0 16.27167,26.36433 44.84244,26.36433c57.27607,0 60.19398,-10.54575 60.19398,-10.54575v20.21266c0,0 -2.9179,10.54575 -60.19398,10.54575c-28.57071,0 -44.84244,-26.36433 -44.84244,-26.36433z" fill="url(#color-21)"/></g><g data-paper-data="{&quot;index&quot;:null}" stroke-width="0"><path d="M331.37503,430.07142c-75.94566,0 -79.81469,-12.85609 -79.81469,-12.85609v-24.64077c0,0 3.86902,12.85609 79.81469,12.85609c37.88361,0 59.45917,-32.14013 59.45917,-32.14013v24.64077c0,0 -21.57558,32.14013 -59.45917,32.14013z" fill="url(#color-22)"/><path d="M331.37503,465.42562c-75.94566,0 -79.81469,-12.85609 -79.81469,-12.85609v-24.64077c0,0 3.86902,12.85609 79.81469,12.85609c37.88361,0 59.45917,-32.14013 59.45917,-32.14013v24.64077c0,0 -21.57558,32.14013 -59.45917,32.14013z" fill="url(#color-23)"/><path d="M330.99969,499.70838c-73.14521,0 -76.87156,-12.85609 -76.87156,-12.85609v-24.64077c0,0 3.72635,12.85609 76.87156,12.85609c36.4867,0 57.26669,-32.14013 57.26669,-32.14013v24.64077c0,0 -20.78003,32.14013 -57.26669,32.14013z" fill="url(#color-24)"/><path d="M326.9505,532.49472c-68.47784,0 -71.96638,-12.85609 -71.96638,-12.85609v-24.64077c0,0 3.48855,12.85609 71.96638,12.85609c34.15846,0 53.61248,-32.14013 53.61248,-32.14013v24.64077c0,0 -19.45404,32.14013 -53.61248,32.14013z" fill="url(#color-25)"/><path d="M316.88994,563.03596c-57.27609,0 -60.19398,-10.54575 -60.19398,-10.54575v-20.21266c0,0 2.91793,10.54575 60.19398,10.54575c28.57071,0 44.84244,-26.36433 44.84244,-26.36433v20.21266c0,0 -16.27167,26.36433 -44.84244,26.36433z" fill="url(#color-26)"/></g><path d="M72.09912,367.29899v-19.68651h341.5185v19.68651z" fill="url(#color-27)" stroke-width="0"/><path d="M207.92774,710.59448v-130.92893h69.86132v130.92893z" fill="url(#color-28)" stroke-width="0"/></g><path d="M428.7594,357.45185c0.00215,10.18148 -8.50008,18.43682 -18.98998,18.43898c-10.49,0.00218 -18.99536,-8.24983 -18.99736,-18.43128c-0.00206,-10.18144 8.50008,-18.43667 18.99005,-18.43883c10.49,-0.00218 18.99536,8.24977 18.9974,18.43121z" fill="url(#color-29)" stroke-width="0"/><path d="M94.94441,357.45185c0.00215,10.18148 -8.50008,18.43682 -18.98998,18.43898c-10.49,0.00218 -18.99536,-8.24983 -18.99736,-18.43128c-0.00206,-10.18144 8.50008,-18.43667 18.99005,-18.43883c10.49,-0.00218 18.99536,8.24977 18.9974,18.43121z" fill="url(#color-30)" stroke-width="0"/></g><g><g><path d="M331.53179,302.13958c-2.55804,3.83701 -6.39508,1.27903 -6.39508,1.27903l-1.8641,-1.73092c-3.23265,-0.79393 -7.1189,-0.27732 -9.69801,-2.38175c-5.73433,-4.67903 -0.24127,-12.54023 -4.27693,-17.79062c-2.65023,-3.44796 -7.27248,-5.27346 -9.06877,-9.48097c-3.22833,-7.5619 4.65389,-18.12722 0.19465,-25.23673c-1.53301,-2.44412 -7.28226,-6.45687 -9.69304,-8.2574c0,0 -3.68924,-2.76693 -0.92229,-6.45618c2.76693,-3.68924 6.45618,-0.92229 6.45618,-0.92229c9.18633,6.91564 15.08422,12.58975 14.04633,24.7788c-0.35807,4.20506 -3.38377,8.75805 -1.56077,12.56432c1.59368,3.32746 5.95071,4.56985 8.02987,7.61765c5.19821,7.61991 -1.32491,16.35292 8.00905,16.46758l5.46386,3.1544c0,0 3.83701,2.55804 1.27903,6.39508z" fill="url(#color-31)" stroke="none" stroke-width="0.5"/><path d="M103.2434,35.77383c0,-4.61154 4.61154,-4.61154 4.61154,-4.61154h3.66401c3.82492,0 7.72413,0.81034 11.47463,0.05955c8.61289,-1.72417 16.05583,-8.49181 25.16532,-8.60887c23.29189,-0.29931 44.87841,15.01679 48.53316,38.15669c0,0 0.65218,4.5652 -3.91303,5.21736c-4.5652,0.65218 -5.21736,-3.91303 -5.21736,-3.91303c-2.36614,-19.19628 -21.07219,-29.89218 -39.40277,-30.23792c-5.18807,-0.09788 -10.68928,3.93952 -15.33388,5.75562c-7.84726,3.06841 -13.10894,2.79372 -21.3061,2.79372h-3.66401c0,0 -4.61154,0 -4.61154,-4.61154z" fill="url(#color-32)" stroke="none" stroke-width="0.5"/><path d="M361.24234,51.75405c1.11846,4.47388 -3.35538,5.59233 -3.35538,5.59233l-5.44033,1.32448c-7.44972,-0.29583 -10.45353,7.33147 -18.34087,6.09101c-2.52151,-0.39655 -4.25001,-2.93701 -6.65889,-3.78112c-2.70805,-0.94893 -16.59764,-1.34222 -18.99847,-0.17948c-4.11042,1.99068 -6.23119,6.71475 -9.74982,9.62639c-4.72563,3.91044 -10.11011,7.01988 -15.59034,9.77485c0,0 -4.12469,2.06235 -6.18704,-2.06235c-2.06235,-4.12469 2.06235,-6.18704 2.06235,-6.18704c9.65646,-4.79934 16.71524,-15.61051 25.95579,-19.68135c9.03835,-3.9818 22.60721,0.69065 30.52391,3.36742c3.08825,1.04422 10.73103,-5.97439 15.85645,-6.12233l4.33032,-1.11821c0,0 4.47388,-1.11846 5.59233,3.35538z" fill="url(#color-33)" stroke="none" stroke-width="0.5"/><path d="M317.67323,74.09356c-2.88081,3.60099 -6.48185,0.72022 -6.48185,0.72022l-1.30144,-1.57821c-2.00724,-0.51808 -6.69045,-3.26558 -10.75568,-5.0069c0.41429,2.68553 -2.11242,4.37005 -2.11242,4.37005c-7.34306,4.86701 -11.85977,9.31717 -20.11462,12.90669c-1.4447,0.62824 -3.21724,1.21375 -5.14033,1.81692c-4.63556,3.97913 -9.47714,7.71231 -14.58317,11.01806c-1.57415,1.01917 -3.54594,2.24087 -5.65287,3.40819c-1.92329,7.3499 -0.25101,16.61448 -0.25101,23.38724c0,1.23797 -0.01449,2.44873 -0.04494,3.6357c2.36781,1.71878 3.47143,4.22904 6.28419,5.8321c5.14558,2.93262 15.8417,4.31155 21.54698,4.95112c2.50838,0.28119 5.3442,0.07645 8.24542,-0.16947c-1.27204,-5.74189 -3.38649,-11.56966 -4.12694,-15.88479c-1.36899,-7.97834 1.73552,-12.65755 4.62131,-19.8622c8.4747,-16.96467 16.28844,-24.16909 36.0705,-24.16909h0.61276c0,0 4.61154,0 4.61154,4.61154c0,4.61154 -4.61154,4.61154 -4.61154,4.61154h-0.61276c-16.19823,0 -20.72162,4.86659 -27.65682,18.72424c-1.41047,3.53112 -3.8643,6.72 -4.55183,10.45972c-1.26272,6.86848 1.9478,13.97448 4.18854,21.08865c1.65145,0.064 3.23431,0.2692 4.69322,0.70947c9.49874,2.86638 14.06211,14.10371 24.33334,17.90926c0,0 4.31792,1.61921 2.69872,5.93712c-1.61921,4.31792 -5.93716,2.69868 -5.93716,2.69868c-7.04324,-2.66825 -13.33526,-5.99496 -18.44836,-11.7592c-1.84919,-2.08468 -1.86769,-5.26097 -5.0138,-5.87179c-0.12916,-0.02505 -0.25835,-0.04961 -0.38758,-0.07367c0.08289,2.11001 -0.13735,4.21156 -0.80514,6.29863c-4.99033,15.59624 -22.72863,18.82589 -36.12404,22.53368c-1.50675,0.41706 -3.06288,0.8611 -4.6512,1.26168c0.8477,1.18643 1.64146,2.47316 2.38379,3.93074c6.74032,3.1767 13.59945,6.44568 19.46576,12.27059c14.86224,14.75741 19.25389,33.83049 24.5324,53.59626c0,0 1.18823,4.45583 -3.26763,5.64405c-4.45587,1.18823 -5.64409,-3.26763 -5.64409,-3.26763c-4.82471,-18.12003 -8.57097,-35.77203 -22.03755,-49.34779c-2.49983,-2.52008 -6.00812,-5.20438 -9.57781,-7.55982c3.10771,12.4414 6.78247,25.83912 5.74189,38.30089c-0.28714,3.43845 -1.23357,12.29446 -4.47714,15.23881c-3.71197,3.3695 -7.29678,3.15972 -11.03814,2.86063c-1.86046,10.93963 -5.75692,22.79058 -8.63768,30.8954c0,0 -1.55102,4.34291 -5.89394,2.79187c-4.34291,-1.55102 -2.79184,-5.89394 -2.79184,-5.89394c3.08261,-8.58692 4.25155,-17.15262 5.90814,-25.88797c-6.88288,4.23288 -10.25387,14.0186 -11.08285,21.27064c0,0 -0.57202,4.57595 -5.14793,4.00397c-4.57591,-0.57202 -4.00397,-5.14793 -4.00397,-5.14793c1.6996,-12.75548 8.55833,-27.71127 22.51203,-30.87774c0.05747,-0.01301 0.12013,-0.02438 0.18767,-0.03413c0.8695,-3.52842 1.57781,-7.76969 -0.05556,-10.32496c-2.86347,-4.47966 -7.80511,-7.52093 -10.18336,-12.27598c-5.52626,-11.04904 -5.01548,-26.61269 -2.17018,-40.06739c-4.95976,5.16379 -9.98578,10.25415 -13.27582,16.57187c-2.92649,5.6196 -6.40938,12.70991 -8.23752,18.76833c-1.72242,5.70825 -1.4281,14.52916 -6.06376,19.11137c-4.63543,4.58199 -13.34785,4.39021 -19.19268,4.41451l-3.87364,-1.96346c0,0 -3.26086,-3.26086 0,-6.52174c2.20414,-2.20414 4.40827,-1.42855 5.60536,-0.69442c3.38428,0.10313 9.02521,0.21969 10.9392,-1.75664c2.77438,-2.86464 2.69466,-11.79299 3.74046,-15.20332c1.99631,-6.51006 5.709,-14.40249 8.91985,-20.44844c4.51709,-8.50562 11.85223,-14.71827 18.1072,-21.83398c-0.09783,-0.30034 -0.15959,-0.59906 -0.19601,-0.88339c-2.00185,-0.29507 -4.08363,-0.44446 -5.92266,-1.15475c-1.59751,-3.27424 -2.79837,-6.61146 -3.69631,-9.99688c-1.9895,2.04525 -4.20236,3.92474 -6.4649,6.18765c-12.59287,12.59481 -34.57127,29.42525 -53.10676,26.39957c0,0 -4.53718,-0.82496 -3.71223,-5.36211c0.82492,-4.53713 5.36211,-3.71223 5.36211,-3.71223c14.68524,3.05538 35.13131,-14.04454 44.93518,-23.84697c3.5614,-3.56086 8.18679,-6.3256 9.97936,-11.24412c0.29605,-0.81231 0.55747,-1.62831 0.78953,-2.44745c-0.22277,-3.13192 -0.30413,-6.28649 -0.31194,-9.45308c-17.74918,-4.09005 -41.74798,-12.07829 -54.36607,5.27474l-0.53984,2.36795c0,0 -1.45832,4.37491 -5.83322,2.91659c-4.37491,-1.45832 -2.91659,-5.83322 -2.91659,-5.83322l1.91122,-4.98519c15.68686,-20.43473 40.40344,-13.89052 61.87071,-9.1261c0.23127,-10.3249 0.53325,-20.66535 -1.41634,-30.65581c-2.33677,-11.9744 -19.93794,-25.23239 -29.79666,-31.36146c0,0 -3.9106,-2.4441 -1.46648,-6.35466c2.44412,-3.9106 6.35471,-1.46648 6.35471,-1.46648c12.34383,7.75124 30.64915,22.4043 33.93064,37.26799c0.87903,3.9818 1.06903,8.12813 0.95318,12.34459c0.6381,-1.44895 1.24025,-2.61469 1.65659,-2.97001c3.88289,-3.31426 9.6706,-3.37994 14.67929,-4.36696c1.19764,-0.23599 2.42909,-0.61596 3.67829,-1.10846c0.8047,-2.06453 1.91283,-4.03456 3.4317,-5.86555c4.62885,-5.58001 12.48486,-8.01355 19.62562,-10.41553c7.0149,-6.96761 14.37933,-17.86123 22.88636,-21.04805c7.86955,-2.94803 15.05723,4.29842 22.22349,6.01568l4.82614,3.32389c0,0 3.60103,2.88081 0.72022,6.48182zM232.19443,107.5272c-2.05263,1.776 -1.74021,5.14308 -2.69325,7.68456c-1.59398,3.61228 -2.28433,7.42807 -2.68674,11.32541c5.01688,0.38966 10.21502,-0.35321 15.16235,-0.15417c0.06169,-2.36344 0.08006,-4.8119 0.08006,-7.37473c0,-4.28247 -0.29105,-8.80787 -0.05515,-13.23651c-4.46821,0.98061 -5.93411,-1.59578 -9.80733,1.75544zM259.53098,144.89916c-3.72424,-1.06971 -6.36907,-3.7024 -9.05428,-5.86017c-0.88518,6.78853 -2.57442,13.0428 -5.4175,19.62724l0.30122,0.18885c-0.37623,1.98145 -0.75242,3.96282 -1.12861,5.94428c0.57544,1.11396 1.17188,2.21679 2.00134,3.08152c1.01971,1.06306 1.99625,2.0373 2.93105,2.9639c12.5882,0.15842 29.95897,-6.90824 36.72138,-15.40393c1.72426,-2.16624 2.3937,-4.92077 2.4297,-7.9596c-9.52838,-0.48454 -19.21617,0.16631 -28.78432,-2.58201zM226.73495,145.40636c0.65209,5.19986 -0.23901,9.83787 0.99657,14.94001c1.31738,0.28356 2.72374,0.34579 4.11242,0.44657l0.27209,-0.34813c0.09584,-0.00191 0.19207,-0.00539 0.2886,-0.01028c-0.32163,-0.88025 -0.36048,-1.98868 0.2209,-3.34525c1.03967,-2.42595 2.87278,-2.86836 4.25053,-2.80313c2.61337,-6.40275 3.9242,-12.45693 4.57192,-18.91377c-4.84465,-0.48119 -10.16212,0.27438 -15.32081,0.12315c-0.14835,1.83377 -0.33525,3.66518 -0.62226,5.48214c0.55859,1.44387 1.0389,2.90473 1.23,4.42859zM242.06415,186.26883c-0.99917,-0.53106 -1.95146,-1.17067 -2.86227,-1.89157c-1.83853,10.60022 -1.91884,22.14623 2.21759,30.42254c4.26041,8.52431 10.36809,9.57022 11.67634,19.6342c0.29075,2.23678 0.34015,4.69648 0.20015,7.2996c1.60833,-0.0777 2.9656,-0.34685 3.66844,-0.98894c2.47884,-2.26449 1.99658,-12.01195 1.66462,-15.15727c-1.30711,-12.38422 -4.51106,-24.51927 -7.19633,-36.59081c-0.07529,-0.21379 -0.15975,-0.4374 -0.2529,-0.66974c-3.06457,-0.62385 -6.37368,-0.60061 -9.11566,-2.05803z" fill="url(#color-34)" stroke="none" stroke-width="0.5"/><path d="M206.236,276.45469c-16.62846,-6.48958 -10.64435,-17.30016 -18.35869,-28.71792c-2.77386,-4.10552 -9.93744,-6.413 -13.56847,-8.49823c-11.34862,-6.51723 -11.74263,-6.38072 -18.38056,-19.01589c-7.20017,-13.70542 0.89862,-26.12154 -6.50543,-37.88988c-8.01089,-10.69967 -16.22076,-34.82925 -10.28468,-48.63339c0.4368,-1.01576 12.3426,-9.64267 13.13816,-13.69393c1.1776,-5.99696 -3.48658,-11.97637 -3.0783,-18.07426c0.96691,-14.44086 11.73182,-27.09932 18.27183,-38.74169c3.1122,-5.54023 1.68428,-12.95274 4.93222,-18.4145c3.17377,-5.33699 10.67814,-8.83577 13.37434,-14.86781c1.75064,-3.91663 0.66868,-9.17395 3.5197,-12.3796c9.60385,-10.79821 32.72561,-11.58084 45.59597,-10.32514c7.28928,-1.04815 14.7418,0.03239 22.08481,0.59074c17.40206,1.32324 30.59083,-8.40659 47.07065,2.76936c8.63894,5.85859 15.01239,15.78707 13.73743,26.82146c-0.34931,3.02296 -5.06621,3.83357 -6.28375,6.62245c-1.45712,3.33763 5.39356,4.89499 8.09412,7.33836c6.04767,5.47174 10.85071,12.96427 12.7136,20.90427c2.93862,12.52501 5.75764,32.2589 3.82518,44.98412c-0.4688,3.08685 -3.10567,5.64202 -3.3257,8.75652c-0.24378,3.45101 9.69454,12.21109 9.72624,12.27521c2.65197,5.36626 3.29555,11.50902 4.94332,17.26352c-3.22074,2.66111 -6.96539,4.79244 -9.66218,7.98332c-7.03465,8.3234 0.80932,25.33681 -0.90473,34.66601c-1.59267,8.66873 -7.64742,18.17606 -13.69118,24.21606c-3.81748,3.81507 -9.7677,6.15502 -11.69656,11.19558c-4.77027,12.46582 0.84321,23.25904 -10.10785,34.30707c-4.04014,4.07591 -17.16263,9.99555 -26.25689,12.59914c-2.02045,2.67742 -5.26533,3.58273 -5.26533,3.58273c-9.21546,2.46702 -22.15743,13.03124 -31.96863,10.26113c-5.96255,-1.68348 -8.7941,-8.15385 -12.26714,-13.74872c-1.99266,0.40957 -3.93006,0.78057 -5.77104,1.05454l-3.64907,0.54297c0,0 -7.69358,1.14485 -10.00145,-5.73351zM232.29646,260.5614c5.39342,-1.00008 10.80387,-1.78208 15.71701,-1.60123c6.81324,0.25075 13.15661,4.35131 19.97428,4.40181c5.15589,0.03818 9.51692,-4.60377 13.60384,-6.5735c2.31501,-1.11573 5.30114,-0.84464 7.31142,-2.44555c5.32299,-4.23913 3.00129,-21.84915 5.53127,-27.69787c5.72961,-13.24546 15.1463,-13.9246 21.72083,-25.28438c8.79902,-15.20332 -9.80061,-44.569 13.77151,-51.50752c-8.25256,-4.31687 -14.86816,-13.60743 -15.55072,-23.15552c-0.30067,-4.20581 2.83818,-7.99031 3.50913,-12.15313c1.42482,-8.83998 -1.57088,-20.91437 -2.3324,-29.79189c-0.04103,-0.47827 -1.86425,-13.84445 -2.75626,-15.25379c-3.32857,-5.25901 -10.90878,-6.93704 -14.02726,-12.3233c-2.86289,-4.94476 -5.70437,-10.54185 -5.45479,-16.25014c0.14692,-3.35957 5.1103,-4.65203 6.50249,-7.71306c1.35045,-2.96914 -3.59967,-5.65098 -6.28874,-7.49715c-8.13679,-5.5862 -16.22981,-0.71103 -25.2031,0.0507c-11.68357,0.99179 -21.47464,-1.89516 -32.9674,-0.12303c-10.44482,-1.01909 -16.56237,0.12506 -26.59665,2.62575c-1.74602,0.43515 -4.29175,-0.43009 -5.29198,1.06573c-1.52222,2.27647 0.25127,5.67517 -0.8824,8.16805c-3.02042,6.64146 -10.37181,10.42981 -14.26885,16.59793c-3.27579,5.18474 -1.74715,12.38436 -4.59606,17.8154c-4.62637,8.81968 -15.88829,20.12911 -16.10496,31.0246c-0.1495,7.51892 4.7665,12.79822 2.71367,20.84906c-1.32747,5.20601 -4.80307,9.71358 -8.20018,13.87577c-1.56214,1.91395 -5.07322,1.75445 -6.30492,3.89601c-0.88139,1.53247 0.78201,3.44999 1.07753,5.19298c1.82528,10.76645 0.78581,16.95191 7.88186,25.36694c2.14901,4.13989 5.43627,7.86605 6.44692,12.41968c2.46378,11.10145 -4.44958,16.90368 1.0643,27.17505c7.16967,13.35577 21.87143,13.10036 30.62045,25.33957c2.47252,3.45888 3.66216,7.69158 5.07953,11.7001c1.19896,3.39075 0.16481,9.88529 3.7539,10.1153c6.79821,0.43564 14.70955,-1.50827 20.54684,1.69073z" fill="url(#color-35)" stroke="none" stroke-width="0.5"/><g stroke="none" stroke-width="0.5"><path d="M144.60519,144.77506c0,-4.83884 4.23117,-5.44657 5.29392,-5.5229c3.32352,-1.00942 12.30744,-3.75988 13.9207,-3.69805c11.11358,0.42593 20.41727,8.58911 30.09725,12.65655c7.59953,2.59621 15.4054,3.06919 23.2979,2.55473c-0.05472,-0.21935 -0.10942,-0.43868 -0.16402,-0.65806c-2.4038,-1.51341 -4.76137,-3.03502 -7.0656,-4.53218c-2.84197,-2.74222 -6.35836,-4.92537 -8.52589,-8.22667c-6.88334,-10.48405 -3.50889,-25.20497 -8.94895,-36.87788c-3.29146,-7.06258 -10.42219,-12.27583 -16.93445,-16.12688l-3.31695,-1.64023c0,0 -4.94963,-2.4748 -2.4748,-7.42445c2.4748,-4.94963 7.42445,-2.4748 7.42445,-2.4748l4.06155,2.04902c12.00626,7.29029 19.8965,15.89973 24.51846,29.37676c4.0636,11.84887 0.83963,20.77564 8.29718,29.78581c-1.4131,-14.43263 -0.06501,-29.60788 -0.00012,-43.96443c0.04198,-9.29311 7.12036,-19.28141 5.06703,-28.24249c-3.47857,-15.18099 -14.44827,-22.83512 0.55469,-36.21671c0,0 4.2016,-3.6014 7.803,0.60024c3.6014,4.2016 -0.60024,7.803 -0.60024,7.803c-11.33018,9.12726 4.87237,23.35624 3.0783,36.11041c-0.74042,5.26386 -3.9667,9.94413 -4.88853,15.17924c-3.36609,19.1159 -0.46184,39.22664 2.76072,58.5467c0.07467,0.04524 0.14934,0.09041 0.22408,0.13563c1.92972,-5.01229 5.09738,-9.51053 8.52748,-13.55819c0.09223,-0.07946 0.22331,-0.19299 0.38733,-0.33516c4.69586,-14.24949 8.31591,-28.52485 4.33737,-44.09394c-2.44873,-9.58249 -7.74634,-20.48441 -4.15714,-31.05184c2.44461,-7.19753 11.31556,-11.15602 17.1695,-14.54891c6.02404,-3.4915 11.74127,-7.21954 17.71367,-10.6038c-0.27337,-0.8547 -0.33126,-1.89903 -0.01386,-3.16855c1.34213,-5.36862 6.7108,-4.02649 6.7108,-4.02649l3.21624,2.13846c0.49134,-0.20194 5.13497,-1.95879 7.26213,2.82726c1.59331,3.5849 -0.48433,5.75794 -1.82888,6.71927c0.37726,2.06589 0.3752,4.22712 -0.3681,6.8918c-2.88428,10.33976 -13.81136,15.33775 -15.19291,26.76988c-1.79331,14.83946 4.05878,29.31822 7.0263,43.85495c5.05791,-5.80469 9.11475,-12.61471 15.96711,-16.62625c6.48023,-3.79367 12.89318,-3.86441 20.08325,-3.87484h0.61488c0,0 5.53385,0 5.53385,5.53385c0,5.53385 -5.53385,5.53385 -5.53385,5.53385h-0.61488c-17.79497,-0.02879 -21.97646,13.20837 -34.43911,22.74412c0.00333,0.20697 0.00539,0.41401 0.00624,0.62105c-0.02624,7.11611 -2.14766,13.78541 -4.59335,20.37007c0.14236,0.03014 0.28462,0.0609 0.42684,0.09233c21.7333,4.80409 26.99301,34.38486 44.12854,45.64356c0,0 4.60446,3.06962 1.53483,7.67409c-3.06962,4.60446 -7.67409,1.53483 -7.67409,1.53483c-7.14461,-4.81985 -14.89095,-11.48342 -19.47944,-18.92847c-4.7984,-7.78565 -10.0717,-23.12149 -21.24451,-25.19944c-0.53786,-0.10005 -1.08112,-0.1839 -1.62916,-0.25286c-0.48613,1.40373 -0.94399,2.81242 -1.35655,4.22957c11.12006,8.34207 12.86404,20.26836 21.47904,30.11484c10.83326,12.38186 19.12794,16.93895 19.15153,34.94584c0,0 0,5.53385 -5.53385,5.53385c-5.53385,0 -5.53385,-5.53385 -5.53385,-5.53385c0.02172,-15.0029 -7.38527,-17.1632 -16.51111,-27.77122c-6.48562,-7.53899 -8.97595,-16.53712 -15.07634,-23.8763c0.01855,1.01867 0.08205,2.04617 0.19585,3.08358c1.08545,9.89505 1.52419,22.08123 4.66802,31.44215c3.99655,11.89972 12.00895,19.64996 9.44374,33.32846c-2.0016,10.67317 -6.74717,19.0458 -12.50703,27.99609c0,0 -3.00628,4.64609 -7.65231,1.63979c-4.64609,-3.00628 -1.63979,-7.65231 -1.63979,-7.65231c4.95133,-7.60607 9.05855,-14.58625 10.85813,-23.65326c2.24531,-11.31263 -5.70037,-18.19208 -9.00244,-28.15886c-3.32556,-10.0376 -4.18581,-23.11574 -5.16992,-33.73439c-0.34497,-3.72252 -0.12279,-7.28558 0.46058,-10.74446c-1.70388,-0.03014 -3.51617,0.0819 -5.67699,-0.51776c-3.14411,-0.87248 -6.26973,-1.96371 -9.36542,-3.22089c1.55096,11.68311 5.53989,22.76803 6.53938,35.59271c1.54693,19.84979 -7.3285,38.75183 -5.7319,58.80594c0.71832,0.83628 3.22052,4.23377 -0.17693,7.63124c-3.91303,3.91303 -7.82606,0 -7.82606,0l-2.81673,-4.53168c-2.29293,-20.91097 7.34482,-40.68138 5.51611,-61.06158c-0.82742,-9.22137 -2.87944,-17.51558 -4.55449,-25.74841c-0.60695,2.8897 -1.42475,5.73186 -2.62548,8.4772c-0.45093,6.08683 -1.71568,12.09118 -4.41015,17.93187c-2.79828,6.06566 -6.18253,10.6323 -7.5585,17.63511c-2.99131,15.22371 8.63662,33.00541 8.67968,48.91829v1.22974c0,0 0,5.53385 -5.53385,5.53385c-5.53385,0 -5.53385,-5.53385 -5.53385,-5.53385v-1.22974c0.05405,-17.15363 -11.67393,-33.80571 -8.53675,-50.69115c1.09862,-5.91314 3.46645,-10.69005 5.96181,-15.57735c-4.36266,2.76561 -9.07437,4.83152 -13.44363,5.36527c-1.60501,0.19606 -10.21448,-1.19096 -12.23517,-1.19904c-8.87177,-0.03549 -17.5091,3.19583 -25.07607,7.33199c0,0 -4.87241,2.6236 -7.49601,-2.24883c-2.6236,-4.87241 2.24883,-7.49601 2.24883,-7.49601c8.31772,-4.42189 14.5711,-6.39508 23.87261,-7.96845c6.13434,-1.03768 11.65184,1.11552 17.51987,0.57423c6.36339,-0.58699 14.58707,-7.65845 18.53787,-12.26478c0.84021,-0.97956 1.57412,-1.97463 2.21643,-2.98408c0.25108,-6.14742 -0.45598,-12.39743 -1.06623,-18.51849c-0.01394,-0.09113 -0.02807,-0.18216 -0.04237,-0.27314c-10.26068,0.36214 -20.58448,-0.28082 -29.63754,-3.24387c-7.92654,-3.45022 -17.45389,-11.47253 -26.47107,-11.93835c-3.89204,-0.20105 -7.43585,2.33787 -11.16864,3.45799l-2.20502,0.23339c0,0 -5.53385,0 -5.53385,-5.53385zM260.7913,132.47759c-3.15449,0.05203 -6.60304,-1.80961 -9.45363,-0.45779c-1.92697,0.91384 -3.35506,2.56613 -4.82769,4.16196c-0.96423,3.0202 -2.00004,6.11934 -3.08331,9.35189c-0.09069,0.503 -0.17343,1.00325 -0.24863,1.50092c7.51076,-1.24644 14.98224,-2.26851 22.31304,-2.10441c1.52773,-4.33365 2.85651,-8.70782 3.50755,-13.25093c-2.07609,0.59015 -4.37283,0.73516 -8.2073,0.79839zM260.89263,157.62835c0.09233,-0.27688 0.18576,-0.55343 0.28012,-0.82967c-1.01795,0.11834 -2.0386,0.25736 -3.0586,0.41023c0.91822,0.1569 1.84908,0.28666 2.77843,0.41942zM265.97089,121.03408c1.11482,-0.36511 2.163,-0.797 3.15422,-1.28597c-1.77645,-17.61188 -10.75805,-34.97745 -8.27335,-53.07319c1.33307,-9.70849 9.77275,-17.16241 13.17069,-25.26757c-4.7046,2.79748 -9.30201,5.75964 -14.11787,8.54457c-2.82761,1.63516 -11.27912,4.84257 -12.3444,8.81624c-2.94693,10.99224 4.45749,23.34289 5.24956,33.97639c0.78393,10.52411 -0.12484,19.42512 -2.06401,28.18924c5.14463,-0.47197 10.14169,1.76505 15.22519,0.10028z" fill="url(#color-36)"/><path d="M209.35239,21.31246c2.0072,-6.4654 8.69849,-5.38928 8.69849,-5.38928l3.17366,0.51037c1.60114,0.25751 3.28614,0.60621 5.01921,0.99123c3.02063,-5.25897 5.48328,-11.34085 10.66907,-12.92324c8.53302,-2.60378 19.78896,7.32617 27.80387,9.64507c0,0 2.82211,0.85093 4.57939,3.3676c7.9095,2.44723 19.32247,8.01151 22.83627,11.84266c9.52439,10.38468 4.64224,20.52983 8.79107,32.24722c1.67758,4.73794 6.85261,6.93738 10.1728,10.52339c5.25638,5.67733 10.52233,14.6139 11.90753,22.76212c1.49072,8.76909 -5.33135,24.76099 0.78682,32.58464c2.34547,2.99934 5.60229,5.00264 8.40346,7.504c-1.43312,5.40902 -1.99282,11.18297 -4.29932,16.22705c-0.02756,0.06024 -8.67115,8.29436 -8.45912,11.53821c0.19136,2.92751 2.48469,5.32925 2.89243,8.23077c1.6807,11.96121 -0.77108,30.51027 -3.32688,42.28328c-1.62021,7.46324 -5.79749,14.50598 -11.05731,19.64917c-2.34871,2.29665 -8.30694,3.76055 -7.03966,6.89776c1.05889,2.62147 5.16133,3.38337 5.46509,6.22486c1.10887,10.37188 -4.43427,19.70426 -11.94778,25.21108c-14.33292,10.50494 -25.80351,1.35926 -40.93846,2.6031c-6.38641,0.52483 -12.86804,1.54049 -19.20768,0.55526c-11.19366,1.18035 -31.30323,0.44468 -39.65591,-9.7052c-2.47961,-3.01318 -1.53861,-7.95486 -3.06119,-11.63633c-2.34497,-5.66989 -8.87166,-8.95857 -11.63199,-13.97513c-2.82481,-5.13386 -1.58291,-12.10129 -4.28968,-17.30891c-5.68804,-10.94338 -15.05054,-22.84181 -15.89148,-36.41563c-0.35509,-5.73175 3.70146,-11.35211 2.67728,-16.98905c-0.69191,-3.80803 -11.04666,-11.917 -11.42657,-12.87176c-5.16279,-12.97535 1.97758,-35.65615 8.94486,-45.71342c6.43947,-11.06173 -0.60427,-22.73242 5.65793,-35.61497c5.7732,-11.87655 6.11585,-11.74828 15.98602,-17.87418c3.15799,-1.96002 9.38835,-4.12895 11.80083,-7.98798c6.70936,-10.73221 1.50481,-20.89375 15.96698,-26.99368zM232.01786,36.25144c-5.07683,3.00695 -11.95756,1.17971 -17.87012,1.58921c-3.12153,0.21624 -2.22211,6.3208 -3.26488,9.50799c-1.23271,3.76783 -2.26736,7.74637 -4.41779,10.99763c-7.60924,11.50438 -20.39573,11.2643 -26.63136,23.81818c-4.79556,9.65466 1.21717,15.10858 -0.92567,25.54347c-0.87895,4.28023 -3.73801,7.78266 -5.60706,11.67396c-6.17159,7.9098 -5.26755,13.7239 -6.85504,23.84391c-0.25699,1.63835 -1.70373,3.44069 -0.93713,4.88117c1.07125,2.013 4.1249,1.86306 5.48354,3.66208c2.95457,3.91229 5.97739,8.14929 7.13193,13.04269c1.78541,7.56748 -2.49012,12.52983 -2.36015,19.59731c0.18844,10.24132 9.98319,20.87174 14.00685,29.16188c2.47778,5.10497 1.14828,11.87234 3.99734,16.74578c3.38935,5.79779 9.78309,9.35867 12.41001,15.60138c0.98599,2.34317 -0.55648,5.53784 0.76744,7.67764c0.8699,1.406 3.08404,0.59271 4.60259,1.00178c8.72705,2.35055 14.04762,3.42602 23.13174,2.46811c9.99552,1.66573 18.51108,-1.04789 28.67254,-0.11565c7.80429,0.71597 14.84303,5.29849 21.91981,0.04767c2.33876,-1.73533 6.64398,-4.25617 5.46943,-7.04704c-1.21084,-2.87724 -5.52762,-4.09206 -5.6554,-7.24994c-0.21706,-5.36557 2.25428,-10.62664 4.74417,-15.27446c2.71222,-5.06286 9.30493,-6.64014 12.19986,-11.58345c0.77579,-1.32473 2.36152,-13.88839 2.39719,-14.33791c0.66233,-8.3445 3.26774,-19.69398 2.02853,-28.00321c-0.58355,-3.91288 -3.31349,-7.47015 -3.052,-11.42346c0.59363,-8.97481 6.3474,-17.70761 13.52485,-21.76525c-20.50127,-6.52194 -4.3247,-34.12449 -11.97744,-48.41503c-5.71806,-10.67773 -13.90798,-11.31611 -18.89116,-23.76628c-2.20037,-5.49754 -0.18115,-22.05029 -4.81066,-26.0349c-1.7484,-1.50481 -4.3455,-1.24999 -6.35891,-2.29874c-3.5545,-1.85143 -7.34737,-6.21471 -11.83157,-6.17881c-5.92949,0.04745 -11.44649,3.90183 -17.37216,4.13756c-4.27307,0.17001 -8.97868,-0.56509 -13.66945,-1.50509z" data-paper-data="{&quot;index&quot;:null}" fill="url(#color-37)"/></g><path d="M209.35239,21.31246c2.0072,-6.4654 8.69849,-5.38928 8.69849,-5.38928l3.17366,0.51037c1.60114,0.25751 3.28614,0.60621 5.01921,0.99123c3.02063,-5.25897 5.48328,-11.34085 10.66907,-12.92324c8.53302,-2.60378 19.78896,7.32617 27.80387,9.64507c0,0 2.82211,0.85093 4.57939,3.3676c7.9095,2.44723 19.32247,8.01151 22.83627,11.84266c9.52439,10.38468 4.64224,20.52983 8.79107,32.24722c1.67758,4.73794 6.85261,6.93738 10.1728,10.52339c5.25638,5.67733 10.52233,14.6139 11.90753,22.76212c1.49072,8.76909 -5.33135,24.76099 0.78682,32.58464c2.34547,2.99934 5.60229,5.00264 8.40346,7.504c-1.43312,5.40902 -1.99282,11.18297 -4.29932,16.22705c-0.02756,0.06024 -8.67115,8.29436 -8.45912,11.53821c0.19136,2.92751 2.48469,5.32925 2.89243,8.23077c1.6807,11.96121 -0.77108,30.51027 -3.32688,42.28328c-1.62021,7.46324 -5.79749,14.50598 -11.05731,19.64917c-2.34871,2.29665 -8.30694,3.76055 -7.03966,6.89776c1.05889,2.62147 5.16133,3.38337 5.46509,6.22486c1.10887,10.37188 -4.43427,19.70426 -11.94778,25.21108c-14.33292,10.50494 -25.80351,1.35926 -40.93846,2.6031c-6.38641,0.52483 -12.86804,1.54049 -19.20768,0.55526c-11.19366,1.18035 -31.30323,0.44468 -39.65591,-9.7052c-2.47961,-3.01318 -1.53861,-7.95486 -3.06119,-11.63633c-2.34497,-5.66989 -8.87166,-8.95857 -11.63199,-13.97513c-2.82481,-5.13386 -1.58291,-12.10129 -4.28968,-17.30891c-5.68804,-10.94338 -15.05054,-22.84181 -15.89148,-36.41563c-0.35509,-5.73175 3.70146,-11.35211 2.67728,-16.98905c-0.69191,-3.80803 -11.04666,-11.917 -11.42657,-12.87176c-5.16279,-12.97535 1.97758,-35.65615 8.94486,-45.71342c6.43947,-11.06173 -0.60427,-22.73242 5.65793,-35.61497c5.7732,-11.87655 6.11585,-11.74828 15.98602,-17.87418c3.15799,-1.96002 9.38835,-4.12895 11.80083,-7.98798c6.70936,-10.73221 1.50481,-20.89375 15.96698,-26.99368zM232.01786,36.25144c-5.07683,3.00695 -11.95756,1.17971 -17.87012,1.58921c-3.12153,0.21624 -2.22211,6.3208 -3.26488,9.50799c-1.23271,3.76783 -2.26736,7.74637 -4.41779,10.99763c-7.60924,11.50438 -20.39573,11.2643 -26.63136,23.81818c-4.79556,9.65466 1.21717,15.10858 -0.92567,25.54347c-0.87895,4.28023 -3.73801,7.78266 -5.60706,11.67396c-6.17159,7.9098 -5.26755,13.7239 -6.85504,23.84391c-0.25699,1.63835 -1.70373,3.44069 -0.93713,4.88117c1.07125,2.013 4.1249,1.86306 5.48354,3.66208c2.95457,3.91229 5.97739,8.14929 7.13193,13.04269c1.78541,7.56748 -2.49012,12.52983 -2.36015,19.59731c0.18844,10.24132 9.98319,20.87174 14.00685,29.16188c2.47778,5.10497 1.14828,11.87234 3.99734,16.74578c3.38935,5.79779 9.78309,9.35867 12.41001,15.60138c0.98599,2.34317 -0.55648,5.53784 0.76744,7.67764c0.8699,1.406 3.08404,0.59271 4.60259,1.00178c8.72705,2.35055 14.04762,3.42602 23.13174,2.46811c9.99552,1.66573 18.51108,-1.04789 28.67254,-0.11565c7.80429,0.71597 14.84303,5.29849 21.91981,0.04767c2.33876,-1.73533 6.64398,-4.25617 5.46943,-7.04704c-1.21084,-2.87724 -5.52762,-4.09206 -5.6554,-7.24994c-0.21706,-5.36557 2.25428,-10.62664 4.74417,-15.27446c2.71222,-5.06286 9.30493,-6.64014 12.19986,-11.58345c0.77579,-1.32473 2.36152,-13.88839 2.39719,-14.33791c0.66233,-8.3445 3.26774,-19.69398 2.02853,-28.00321c-0.58355,-3.91288 -3.31349,-7.47015 -3.052,-11.42346c0.59363,-8.97481 6.3474,-17.70761 13.52485,-21.76525c-20.50127,-6.52194 -4.3247,-34.12449 -11.97744,-48.41503c-5.71806,-10.67773 -13.90798,-11.31611 -18.89116,-23.76628c-2.20037,-5.49754 -0.18115,-22.05029 -4.81066,-26.0349c-1.7484,-1.50481 -4.3455,-1.24999 -6.35891,-2.29874c-3.5545,-1.85143 -7.34737,-6.21471 -11.83157,-6.17881c-5.92949,0.04745 -11.44649,3.90183 -17.37216,4.13756c-4.27307,0.17001 -8.97868,-0.56509 -13.66945,-1.50509z" data-paper-data="{&quot;index&quot;:null}" fill="url(#color-38)" stroke="none" stroke-width="0.5"/><path d="M206.236,276.45469c-16.62846,-6.48958 -10.64435,-17.30016 -18.35869,-28.71792c-2.77386,-4.10552 -9.93744,-6.413 -13.56847,-8.49823c-11.34862,-6.51723 -11.74263,-6.38072 -18.38056,-19.01589c-7.20017,-13.70542 0.89862,-26.12154 -6.50543,-37.88988c-8.01089,-10.69967 -16.22076,-34.82925 -10.28468,-48.63339c0.4368,-1.01576 12.3426,-9.64267 13.13816,-13.69393c1.1776,-5.99696 -3.48658,-11.97637 -3.0783,-18.07426c0.96691,-14.44086 11.73182,-27.09932 18.27183,-38.74169c3.1122,-5.54023 1.68428,-12.95274 4.93222,-18.4145c3.17377,-5.33699 10.67814,-8.83577 13.37434,-14.86781c1.75064,-3.91663 0.66868,-9.17395 3.5197,-12.3796c9.60385,-10.79821 32.72561,-11.58084 45.59597,-10.32514c7.28928,-1.04815 14.7418,0.03239 22.08481,0.59074c17.40206,1.32324 30.59083,-8.40659 47.07065,2.76936c8.63894,5.85859 15.01239,15.78707 13.73743,26.82146c-0.34931,3.02296 -5.06621,3.83357 -6.28375,6.62245c-1.45712,3.33763 5.39356,4.89499 8.09412,7.33836c6.04767,5.47174 10.85071,12.96427 12.7136,20.90427c2.93862,12.52501 5.75764,32.2589 3.82518,44.98412c-0.4688,3.08685 -3.10567,5.64202 -3.3257,8.75652c-0.24378,3.45101 9.69454,12.21109 9.72624,12.27521c2.65197,5.36626 3.29555,11.50902 4.94332,17.26352c-3.22074,2.66111 -6.96539,4.79244 -9.66218,7.98332c-7.03465,8.3234 0.80932,25.33681 -0.90473,34.66601c-1.59267,8.66873 -7.64742,18.17606 -13.69118,24.21606c-3.81748,3.81507 -9.7677,6.15502 -11.69656,11.19558c-4.77027,12.46582 0.84321,23.25904 -10.10785,34.30707c-4.04014,4.07591 -17.16263,9.99555 -26.25689,12.59914c-2.02045,2.67742 -5.26533,3.58273 -5.26533,3.58273c-9.21546,2.46702 -22.15743,13.03124 -31.96863,10.26113c-5.96255,-1.68348 -8.7941,-8.15385 -12.26714,-13.74872c-1.99266,0.40957 -3.93006,0.78057 -5.77104,1.05454l-3.64907,0.54297c0,0 -7.69358,1.14485 -10.00145,-5.73351zM232.29646,260.5614c5.39342,-1.00008 10.80387,-1.78208 15.71701,-1.60123c6.81324,0.25075 13.15661,4.35131 19.97428,4.40181c5.15589,0.03818 9.51692,-4.60377 13.60384,-6.5735c2.31501,-1.11573 5.30114,-0.84464 7.31142,-2.44555c5.32299,-4.23913 3.00129,-21.84915 5.53127,-27.69787c5.72961,-13.24546 15.1463,-13.9246 21.72083,-25.28438c8.79902,-15.20332 -9.80061,-44.569 13.77151,-51.50752c-8.25256,-4.31687 -14.86816,-13.60743 -15.55072,-23.15552c-0.30067,-4.20581 2.83818,-7.99031 3.50913,-12.15313c1.42482,-8.83998 -1.57088,-20.91437 -2.3324,-29.79189c-0.04103,-0.47827 -1.86425,-13.84445 -2.75626,-15.25379c-3.32857,-5.25901 -10.90878,-6.93704 -14.02726,-12.3233c-2.86289,-4.94476 -5.70437,-10.54185 -5.45479,-16.25014c0.14692,-3.35957 5.1103,-4.65203 6.50249,-7.71306c1.35045,-2.96914 -3.59967,-5.65098 -6.28874,-7.49715c-8.13679,-5.5862 -16.22981,-0.71103 -25.2031,0.0507c-11.68357,0.99179 -21.47464,-1.89516 -32.9674,-0.12303c-10.44482,-1.01909 -16.56237,0.12506 -26.59665,2.62575c-1.74602,0.43515 -4.29175,-0.43009 -5.29198,1.06573c-1.52222,2.27647 0.25127,5.67517 -0.8824,8.16805c-3.02042,6.64146 -10.37181,10.42981 -14.26885,16.59793c-3.27579,5.18474 -1.74715,12.38436 -4.59606,17.8154c-4.62637,8.81968 -15.88829,20.12911 -16.10496,31.0246c-0.1495,7.51892 4.7665,12.79822 2.71367,20.84906c-1.32747,5.20601 -4.80307,9.71358 -8.20018,13.87577c-1.56214,1.91395 -5.07322,1.75445 -6.30492,3.89601c-0.88139,1.53247 0.78201,3.44999 1.07753,5.19298c1.82528,10.76645 0.78581,16.95191 7.88186,25.36694c2.14901,4.13989 5.43627,7.86605 6.44692,12.41968c2.46378,11.10145 -4.44958,16.90368 1.0643,27.17505c7.16967,13.35577 21.87143,13.10036 30.62045,25.33957c2.47252,3.45888 3.66216,7.69158 5.07953,11.7001c1.19896,3.39075 0.16481,9.88529 3.7539,10.1153c6.79821,0.43564 14.70955,-1.50827 20.54684,1.69073z" fill="url(#color-39)" stroke="none" stroke-width="0.5"/><g><path d="M199.4025,167.41749v-39.10592h4.42709v39.10592z" fill="url(#color-40)" stroke="none" stroke-width="0"/><path d="M280.81169,167.41749v-39.10592h4.42709v39.10592z" fill="url(#color-41)" stroke="none" stroke-width="0"/><path d="M177.54246,134.7473v-7.77054h130.05442v7.77054z" fill="url(#color-42)" stroke="none" stroke-width="0"/><g stroke-width="0"><path d="M302.14034,131.45421c0,11.06403 -8.57346,20.03323 -19.14942,20.03323c-10.57595,0 -19.14939,-8.96921 -19.14939,-20.03323c0,-11.06403 8.57346,-20.03323 19.14939,-20.03323c10.57595,0 19.14942,8.96915 19.14942,20.03323z" fill="url(#color-43)" stroke="none"/><g stroke="#a70000"><path d="M290.76287,131.74038c0,4.42262 -3.49094,8.00789 -7.79721,8.00789c-4.30628,0 -7.79721,-3.58527 -7.79721,-8.00789c0,-4.42262 3.49091,-8.00794 7.79721,-8.00794c4.30628,0 7.79721,3.58532 7.79721,8.00794z" fill="#960000"/><path d="M288.90156,131.74038c0,3.36692 -2.6576,6.0963 -5.93594,6.0963c-3.27832,0 -5.93592,-2.72942 -5.93592,-6.0963c0,-3.36692 2.65758,-6.09636 5.93592,-6.09636c3.27832,0 5.93594,2.72946 5.93594,6.09636z" fill="#000000"/></g><path d="M302.14034,131.45421c0,0.08131 -9.69558,-4.53016 -19.33013,-4.46462c-9.5141,0.06471 -18.96869,4.80912 -18.96869,4.46462c0,-11.06403 8.57346,-20.03323 19.14939,-20.03323c10.57595,0 19.14942,8.96915 19.14942,20.03323z" fill="url(#color-44)" stroke="none"/></g><path d="M227.71263,217.04468l0.01709,-4.10229l28.17279,0.11746l-0.01713,4.10229z" fill="url(#color-45)" stroke="none" stroke-width="0"/><path d="M252.86871,218.23418l0.13559,-47.21223l4.92659,0.0298l-0.13559,47.21223z" fill="url(#color-46)" stroke="none" stroke-width="0"/><path d="M226.34068,218.07371l0.13559,-47.21218l4.92659,0.02977l-0.13559,47.21223z" fill="url(#color-47)" stroke="none" stroke-width="0"/><g stroke="none" stroke-width="0"><path d="M232.63792,251.05729l0.16506,-39.60071l18.87044,0.07869l-0.16502,39.60071z" fill="url(#color-48)"/><path d="M232.63792,251.05729l0.02079,-4.9859l18.87044,0.07864l-0.02079,4.9859z" fill="#494949"/></g><path d="M184.68652,165.22303l116.32943,0.24551l0.00852,11.48819l-116.34305,-0.24858z" fill="url(#color-49)" stroke="none" stroke-width="0"/><g><path d="M205.66705,193.57526c-1.8088,0.36177 -2.17057,-1.44703 -2.17057,-1.44703l-0.26754,-1.36274c-1.11907,-8.95237 2.93925,-15.83219 -1.80252,-23.78441c-3.07626,-8.41162 -0.2676,-11.83376 0.06772,-19.79529c0.17914,-4.25299 -2.74941,-7.96034 -3.18743,-12.03238c-0.47024,-4.37135 2.5458,-7.05009 3.48735,-10.97853c0,0 0.44739,-1.78954 2.23693,-1.34213c1.78954,0.44739 1.34213,2.23693 1.34213,2.23693c-0.84464,3.27284 -3.80697,6.18098 -3.39922,9.68118c0.49118,4.21628 3.45481,8.08767 3.20724,12.56256c-0.41759,7.54716 -3.24664,10.2722 -0.42416,18.08091c5.1757,8.56521 0.96175,15.5463 2.13268,24.91354l0.22439,1.09676c0,0 0.36171,1.8088 -1.44703,2.17057z" fill="url(#color-50)" stroke="none" stroke-width="0.5"/><path d="M200.38629,192.13539c-1.84461,0 -1.84461,-1.84461 -1.84461,-1.84461v-1.4757c0.10352,-8.46354 7.13937,-12.85278 7.1325,-21.15163c0.03368,-9.16559 -5.56594,-15.06389 -9.62589,-22.50641c-2.89551,-5.30796 -2.07028,-13.93273 -1.43053,-19.75463c0,0 0.20371,-1.83332 2.03707,-1.62963c1.83332,0.20371 1.62963,2.03707 1.62963,2.03707c-0.48361,4.30055 -1.24208,11.27443 0.16774,15.46142c3.16794,9.40819 10.87562,15.39511 10.91126,26.39219c-0.00757,8.5011 -7.26998,13.06061 -7.1325,21.15163v1.4757c0,0 0,1.84461 -1.84461,1.84461z" fill="url(#color-51)" stroke="none" stroke-width="0.5"/><g stroke-width="0"><path d="M216.55,196.38479c0,11.06403 -8.57346,20.03323 -19.14942,20.03323c-10.57595,0 -19.14939,-8.96915 -19.14939,-20.03323c0,-11.06403 8.57346,-20.03323 19.14939,-20.03323c10.57595,0 19.14942,8.96921 19.14942,20.03323z" fill="url(#color-52)" stroke="none"/><g stroke="#a70000"><path d="M200.49948,205.52516c0,4.42262 -3.49091,8.00789 -7.79721,8.00789c-4.30628,0 -7.79721,-3.58527 -7.79721,-8.00789c0,-4.42262 3.49091,-8.00789 7.79721,-8.00789c4.30628,0 7.79721,3.58527 7.79721,8.00789z" fill="#960000"/><path d="M198.63823,205.52516c0,3.36692 -2.65758,6.0963 -5.93592,6.0963c-3.27832,0 -5.93592,-2.72942 -5.93592,-6.0963c0,-3.36692 2.65758,-6.09636 5.93592,-6.09636c3.27832,0 5.93592,2.72946 5.93592,6.09636z" fill="#000000"/></g></g></g><path d="M220.97708,131.45421c0,0.08131 -9.69558,-2.07067 -19.33013,-2.00514c-9.5141,0.06471 -18.96869,2.34964 -18.96869,2.00514c0,-11.06403 8.57346,-20.03323 19.14939,-20.03323c10.57595,0 19.14942,8.96915 19.14942,20.03323z" fill="url(#color-53)" stroke="none" stroke-width="0"/></g><path d="M162.83959,97.87485c-1.27754,-4.12891 3.19393,-5.30862 3.19393,-5.30862l2.90723,-0.69047c18.33148,-8.35202 34.25601,-18.95514 55.68806,-19.00936c0.85185,0.2094 1.73032,0.46052 2.6273,0.72719c0.38957,-1.37383 0.61002,-2.69628 0.58527,-3.92567c-0.17482,-8.68985 -5.73271,-14.97426 -7.82596,-22.87494c-3.42587,-12.93048 8.49063,-26.11594 18.81629,-32.88476c0,0 3.80976,-2.46252 6.47661,1.05538c2.66683,3.5179 -1.14292,5.98045 -1.14292,5.98045c-6.84094,4.34566 -17.94829,14.89951 -15.09796,23.87576c2.69529,8.48797 8.19635,15.6082 8.07139,25.07792c-0.02639,1.9992 -0.29325,3.96064 -0.73571,5.89617c1.0125,0.09337 2.01544,0.10331 2.99828,-0.00396c3.9961,-0.43607 7.37458,-1.91932 10.53488,-3.75329c2.68546,-11.53525 -4.62047,-23.02391 0.54818,-34.30965c2.66495,-5.81892 9.54827,-11.21091 14.05301,-15.83383c0,0 3.11095,-3.19177 6.56758,-0.31915c3.45663,2.87262 0.34565,6.06444 0.34565,6.06444c-3.77769,3.87495 -10.24298,8.66824 -12.44251,13.52509c-3.48908,7.70445 -0.39301,16.34528 0.26766,24.94848c1.95714,-1.1454 3.98709,-2.15212 6.18782,-2.84959c6.357,-2.01468 13.38194,1.68587 19.31974,-2.76781c5.26461,-3.94878 14.4569,-14.26998 12.56485,-20.20721c0,0 -0.91203,-4.21077 3.64808,-5.05294c4.56009,-0.84213 5.47211,3.3686 5.47211,3.3686c1.8692,11.3188 -10.54522,27.97884 -22.69621,31.8283c-4.80328,1.52167 -11.11192,-0.47797 -15.3674,0.97861c-3.48788,1.19383 -7.26398,4.78295 -10.77011,6.87294c-6.01504,16.27789 -12.86373,25.19565 -6.50845,42.77628c3.76487,7.62945 8.07342,13.80344 6.03898,22.56743c-1.33963,5.77118 -7.52386,13.8294 -6.79034,19.77995c1.29644,10.51654 5.5775,16.10293 1.93681,27.49228l-1.00256,3.72208c0,0 -1.12787,4.16596 -5.63948,3.12444c-4.51155,-1.04147 -3.38367,-5.20743 -3.38367,-5.20743l1.1171,-4.10693c3.47194,-10.48368 -1.40914,-14.55002 -2.30245,-24.37508c-0.83324,-9.16487 7.87276,-17.39067 7.41497,-26.47305c-0.22387,-4.44112 -4.13745,-9.4974 -6.04667,-13.38452c-6.15224,-17.06314 -1.99964,-27.19356 3.58702,-41.42941c-4.08462,0.93977 -7.99025,1.10037 -12.2029,0.64989c-4.08541,9.69573 -10.52517,19.12177 -10.52517,29.87764c1.26027,4.54484 3.75468,9.82871 4.70274,14.3127c1.36391,6.45062 -2.31508,15.20722 -0.06744,21.27502c2.96056,7.99266 4.59642,12.26859 2.72797,21.07171l-0.93057,2.0569c0,0 -2.07974,3.84079 -6.23916,1.92038c-4.15944,-1.92038 -2.07974,-5.76121 -2.07974,-5.76121l0.12923,0.09964c1.76992,-7.98142 -0.24405,-9.84046 -2.57109,-17.09486c-2.1813,-6.8001 1.46812,-14.91079 -0.06744,-21.78471c-1.07186,-4.7981 -3.54103,-10.16345 -4.83564,-15.04623c0,-8.15158 1.58916,-16.59287 5.08833,-24.18714c1.13051,-2.45357 2.9601,-5.4966 4.64678,-8.66727c-0.14532,-0.03716 -0.29126,-0.07475 -0.43773,-0.11275c-18.78324,-0.06649 -34.29442,10.71108 -50.29407,18.17864l-4.51154,1.26675c0,0 -4.47147,1.17971 -5.74901,-2.94921z" fill="url(#color-54)" stroke="none" stroke-width="0.5"/><path d="M332.45893,89.22559c0.572,4.57595 -4.00397,5.14793 -4.00397,5.14793l-4.35831,0.54218c-12.93894,1.10025 -21.75478,10.82345 -34.36069,13.09644c-8.22833,1.4836 -20.02752,-1.22018 -27.61812,1.38638c-8.67708,2.97966 -13.28781,22.7011 -15.01722,30.28641c-2.99374,6.0546 -6.84346,12.77048 -11.65752,18.55831c0.57072,-0.0079 1.14023,-0.01196 1.70841,-0.0117c14.29686,1.24999 19.55903,10.11962 29.65938,19.00401c2.28944,2.01381 6.51044,8.9969 9.58344,9.49204c10.16181,1.63724 20.61975,-2.74829 30.97264,-1.67225c6.4703,0.67249 11.66697,4.71585 17.56045,7.1585c0,0 4.25682,1.77367 2.48316,6.03048c-1.77367,4.25682 -6.03048,2.48312 -6.03048,2.48312c-4.56985,-1.91324 -9.9927,-6.1353 -15.01951,-6.5041c-10.27566,-0.75386 -22.08232,4.1984 -32.08529,1.48065c-15.3746,-4.17721 -20.06525,-27.1664 -37.4777,-28.25609c-3.94827,0.00173 -7.9878,0.23147 -12.05971,0.51092c-4.28442,2.72691 -9.07597,4.4902 -14.41195,4.74483c-8.11113,0.38708 -13.35823,-4.63532 -21.78218,-2.72695c-13.78483,3.1228 -22.49828,13.26674 -37.60172,10.5221c0,0 -4.52201,-0.90443 -3.61759,-5.42639c0.90443,-4.52196 5.42639,-3.61764 5.42639,-3.61764c9.26139,2.10251 17.27855,-3.43486 25.56966,-7.41256c-9.36486,-2.59217 -18.73388,-4.28922 -28.43834,1.25228l-2.76506,0.58034c0,0 -4.61154,0 -4.61154,-4.61154c0,-3.43664 2.56105,-4.31224 3.86604,-4.5353c9.98871,-4.97361 24.48079,-5.50955 35.32058,-3.13147c5.75286,1.26207 10.02446,5.17667 15.80017,5.70504c7.94613,0.72689 16.19968,0.15181 24.40836,-0.3968c7.40522,-5.57205 12.86432,-15.10868 16.50846,-22.30566c2.44206,-11.32522 8.58227,-31.30107 20.71559,-35.92441c7.94803,-3.02853 20.58923,-0.34765 29.13399,-1.76652c12.74708,-2.11663 21.58714,-11.89237 35.00305,-13.17768l4.04937,-0.50882c0,0 4.57591,-0.572 5.14793,4.00397z" fill="url(#color-55)" stroke="none" stroke-width="0.5"/><path d="M206.236,276.45469c-16.62846,-6.48958 -10.64435,-17.30016 -18.35869,-28.71792c-2.77386,-4.10552 -9.93744,-6.413 -13.56847,-8.49823c-11.34862,-6.51723 -11.74263,-6.38072 -18.38056,-19.01589c-7.20017,-13.70542 0.89862,-26.12154 -6.50543,-37.88988c-8.01089,-10.69967 -16.22076,-34.82925 -10.28468,-48.63339c0.4368,-1.01576 12.3426,-9.64267 13.13816,-13.69393c1.1776,-5.99696 -3.48658,-11.97637 -3.0783,-18.07426c0.96691,-14.44086 11.73182,-27.09932 18.27183,-38.74169c3.1122,-5.54023 1.68428,-12.95274 4.93222,-18.4145c3.17377,-5.33699 10.67814,-8.83577 13.37434,-14.86781c1.75064,-3.91663 0.66868,-9.17395 3.5197,-12.3796c9.60385,-10.79821 32.72561,-11.58084 45.59597,-10.32514c7.28928,-1.04815 14.7418,0.03239 22.08481,0.59074c17.40206,1.32324 30.59083,-8.40659 47.07065,2.76936c8.63894,5.85859 15.01239,15.78707 13.73743,26.82146c-0.34931,3.02296 -5.06621,3.83357 -6.28375,6.62245c-1.45712,3.33763 5.39356,4.89499 8.09412,7.33836c6.04767,5.47174 10.85071,12.96427 12.7136,20.90427c2.93862,12.52501 5.75764,32.2589 3.82518,44.98412c-0.4688,3.08685 -3.10567,5.64202 -3.3257,8.75652c-0.24378,3.45101 9.69454,12.21109 9.72624,12.27521c2.65197,5.36626 3.29555,11.50902 4.94332,17.26352c-3.22074,2.66111 -6.96539,4.79244 -9.66218,7.98332c-7.03465,8.3234 0.80932,25.33681 -0.90473,34.66601c-1.59267,8.66873 -7.64742,18.17606 -13.69118,24.21606c-3.81748,3.81507 -9.7677,6.15502 -11.69656,11.19558c-4.77027,12.46582 0.84321,23.25904 -10.10785,34.30707c-4.04014,4.07591 -17.16263,9.99555 -26.25689,12.59914c-2.02045,2.67742 -5.26533,3.58273 -5.26533,3.58273c-9.21546,2.46702 -22.15743,13.03124 -31.96863,10.26113c-5.96255,-1.68348 -8.7941,-8.15385 -12.26714,-13.74872c-1.99266,0.40957 -3.93006,0.78057 -5.77104,1.05454l-3.64907,0.54297c0,0 -7.69358,1.14485 -10.00145,-5.73351zM232.29646,260.5614c5.39342,-1.00008 10.80387,-1.78208 15.71701,-1.60123c6.81324,0.25075 13.15661,4.35131 19.97428,4.40181c5.15589,0.03818 9.51692,-4.60377 13.60384,-6.5735c2.31501,-1.11573 5.30114,-0.84464 7.31142,-2.44555c5.32299,-4.23913 3.00129,-21.84915 5.53127,-27.69787c5.72961,-13.24546 15.1463,-13.9246 21.72083,-25.28438c8.79902,-15.20332 -9.80061,-44.569 13.77151,-51.50752c-8.25256,-4.31687 -14.86816,-13.60743 -15.55072,-23.15552c-0.30067,-4.20581 2.83818,-7.99031 3.50913,-12.15313c1.42482,-8.83998 -1.57088,-20.91437 -2.3324,-29.79189c-0.04103,-0.47827 -1.86425,-13.84445 -2.75626,-15.25379c-3.32857,-5.25901 -10.90878,-6.93704 -14.02726,-12.3233c-2.86289,-4.94476 -5.70437,-10.54185 -5.45479,-16.25014c0.14692,-3.35957 5.1103,-4.65203 6.50249,-7.71306c1.35045,-2.96914 -3.59967,-5.65098 -6.28874,-7.49715c-8.13679,-5.5862 -16.22981,-0.71103 -25.2031,0.0507c-11.68357,0.99179 -21.47464,-1.89516 -32.9674,-0.12303c-10.44482,-1.01909 -16.56237,0.12506 -26.59665,2.62575c-1.74602,0.43515 -4.29175,-0.43009 -5.29198,1.06573c-1.52222,2.27647 0.25127,5.67517 -0.8824,8.16805c-3.02042,6.64146 -10.37181,10.42981 -14.26885,16.59793c-3.27579,5.18474 -1.74715,12.38436 -4.59606,17.8154c-4.62637,8.81968 -15.88829,20.12911 -16.10496,31.0246c-0.1495,7.51892 4.7665,12.79822 2.71367,20.84906c-1.32747,5.20601 -4.80307,9.71358 -8.20018,13.87577c-1.56214,1.91395 -5.07322,1.75445 -6.30492,3.89601c-0.88139,1.53247 0.78201,3.44999 1.07753,5.19298c1.82528,10.76645 0.78581,16.95191 7.88186,25.36694c2.14901,4.13989 5.43627,7.86605 6.44692,12.41968c2.46378,11.10145 -4.44958,16.90368 1.0643,27.17505c7.16967,13.35577 21.87143,13.10036 30.62045,25.33957c2.47252,3.45888 3.66216,7.69158 5.07953,11.7001c1.19896,3.39075 0.16481,9.88529 3.7539,10.1153c6.79821,0.43564 14.70955,-1.50827 20.54684,1.69073z" fill="url(#color-56)" stroke="none" stroke-width="0.5"/></g><g stroke="none" stroke-width="0"><path d="M282.84545,102.0491c16.30168,0 29.51683,13.63244 29.51683,30.44892c0,16.81647 -13.21514,30.44892 -29.51683,30.44892c-16.30168,0 -29.51683,-13.63244 -29.51683,-30.44892c0,-16.81647 13.21514,-30.44892 29.51683,-30.44892z" fill="url(#color-57)"/><path d="M282.84545,130.57492c1.02959,0 1.86421,0.86098 1.86421,1.92309c0,1.06208 -0.83466,1.92309 -1.86421,1.92309c-1.02959,0 -1.86421,-0.86098 -1.86421,-1.92309c0,-1.06208 0.83466,-1.92309 1.86421,-1.92309z" fill="#ffffff"/></g></g></g></g></svg>