<svg version="1.1" xmlns="http://www.w3.org/2000/svg" xmlns:xlink="http://www.w3.org/1999/xlink" width="500" height="379" viewBox="0,0,500,379"><defs><linearGradient x1="240.66735" y1="243.57557" x2="240.66735" y2="186.36891" gradientUnits="userSpaceOnUse" id="color-1"><stop offset="0" stop-color="#bb7335"/><stop offset="1" stop-color="#f6923a"/></linearGradient><linearGradient x1="240.68673" y1="186.36892" x2="240.68673" y2="226.76553" gradientUnits="userSpaceOnUse" id="color-2"><stop offset="0" stop-color="#8d2727"/><stop offset="1" stop-color="#f53b3b"/></linearGradient><linearGradient x1="221.88218" y1="166.30301" x2="221.88218" y2="201.97128" gradientUnits="userSpaceOnUse" id="color-3"><stop offset="0" stop-color="#d5d5d5"/><stop offset="1" stop-color="#8e8e8e"/></linearGradient><linearGradient x1="259.5345" y1="166.30301" x2="259.5345" y2="201.97128" gradientUnits="userSpaceOnUse" id="color-4"><stop offset="0" stop-color="#d5d5d5"/><stop offset="1" stop-color="#8e8e8e"/></linearGradient><linearGradient x1="225.0162" y1="200.39833" x2="225.0162" y2="196.15121" gradientUnits="userSpaceOnUse" id="color-5"><stop offset="0" stop-color="#ffffff"/><stop offset="1" stop-color="#8b8b8b"/></linearGradient><linearGradient x1="237.40604" y1="200.39833" x2="237.40604" y2="196.15121" gradientUnits="userSpaceOnUse" id="color-6"><stop offset="0" stop-color="#ffffff"/><stop offset="1" stop-color="#8b8b8b"/></linearGradient><linearGradient x1="249.79595" y1="200.39833" x2="249.79595" y2="196.15121" gradientUnits="userSpaceOnUse" id="color-7"><stop offset="0" stop-color="#ffffff"/><stop offset="1" stop-color="#8b8b8b"/></linearGradient><linearGradient x1="231.27373" y1="200.39833" x2="231.27373" y2="196.15121" gradientUnits="userSpaceOnUse" id="color-8"><stop offset="0" stop-color="#ffffff"/><stop offset="1" stop-color="#8b8b8b"/></linearGradient><linearGradient x1="243.66355" y1="200.39833" x2="243.66355" y2="196.15121" gradientUnits="userSpaceOnUse" id="color-9"><stop offset="0" stop-color="#ffffff"/><stop offset="1" stop-color="#8b8b8b"/></linearGradient><linearGradient x1="256.05347" y1="200.39833" x2="256.05347" y2="196.15121" gradientUnits="userSpaceOnUse" id="color-10"><stop offset="0" stop-color="#ffffff"/><stop offset="1" stop-color="#8b8b8b"/></linearGradient><linearGradient x1="240.72257" y1="203.02648" x2="240.72257" y2="198.40393" gradientUnits="userSpaceOnUse" id="color-11"><stop offset="0" stop-color="#9b9b9b"/><stop offset="1" stop-color="#686868"/></linearGradient><linearGradient x1="196.20974" y1="150.62458" x2="197.03985" y2="150.62458" gradientUnits="userSpaceOnUse" id="color-12"><stop offset="0" stop-color="#b2b2b2"/><stop offset="1" stop-color="#848484"/></linearGradient><linearGradient x1="216.38353" y1="155.09914" x2="221.4262" y2="155.09914" gradientUnits="userSpaceOnUse" id="color-13"><stop offset="0" stop-color="#404040"/><stop offset="1" stop-color="#b2b2b2"/></linearGradient><linearGradient x1="221.97254" y1="166.30301" x2="221.97254" y2="195.2827" gradientUnits="userSpaceOnUse" id="color-14"><stop offset="0" stop-color="#636363"/><stop offset="1" stop-color="#353535"/></linearGradient><linearGradient x1="259.59921" y1="166.30301" x2="259.59921" y2="195.2827" gradientUnits="userSpaceOnUse" id="color-15"><stop offset="0" stop-color="#636363"/><stop offset="1" stop-color="#353535"/></linearGradient><linearGradient x1="259.75756" y1="155.09914" x2="264.80024" y2="155.09914" gradientUnits="userSpaceOnUse" id="color-16"><stop offset="0" stop-color="#404040"/><stop offset="1" stop-color="#b2b2b2"/></linearGradient><linearGradient x1="284.41041" y1="150.62458" x2="285.24044" y2="150.62458" gradientUnits="userSpaceOnUse" id="color-17"><stop offset="0" stop-color="#b2b2b2"/><stop offset="1" stop-color="#848484"/></linearGradient><linearGradient x1="200.46408" y1="159.13335" x2="200.46408" y2="163.28399" gradientUnits="userSpaceOnUse" id="color-18"><stop offset="0" stop-color="#909090"/><stop offset="1" stop-color="#404040"/></linearGradient><linearGradient x1="280.74829" y1="159.13335" x2="280.74829" y2="163.28399" gradientUnits="userSpaceOnUse" id="color-19"><stop offset="0" stop-color="#909090"/><stop offset="1" stop-color="#404040"/></linearGradient><linearGradient x1="205.02181" y1="156.5991" x2="205.02181" y2="165.81826" gradientUnits="userSpaceOnUse" id="color-20"><stop offset="0" stop-color="#5d5d5d"/><stop offset="1" stop-color="#262626"/></linearGradient><linearGradient x1="276.19051" y1="156.5991" x2="276.19051" y2="165.81826" gradientUnits="userSpaceOnUse" id="color-21"><stop offset="0" stop-color="#5d5d5d"/><stop offset="1" stop-color="#262626"/></linearGradient><linearGradient x1="240.49704" y1="164.99854" x2="240.49704" y2="168.04566" gradientUnits="userSpaceOnUse" id="color-22"><stop offset="0" stop-color="#636363"/><stop offset="1" stop-color="#353535"/></linearGradient><linearGradient x1="240.72521" y1="136.30491" x2="240.72521" y2="141.90827" gradientUnits="userSpaceOnUse" id="color-23"><stop offset="0" stop-color="#b2b2b2"/><stop offset="1" stop-color="#404040"/></linearGradient><radialGradient cx="226.62207" cy="122.46888" r="22.40937" gradientUnits="userSpaceOnUse" id="color-24"><stop offset="0" stop-color="#6db9dc"/><stop offset="1" stop-color="#4394b1"/></radialGradient><radialGradient cx="226.62207" cy="122.46888" r="22.40937" gradientUnits="userSpaceOnUse" id="color-25"><stop offset="0" stop-color="#b88b5c"/><stop offset="1" stop-color="#8d6a36"/></radialGradient><radialGradient cx="274.29015" cy="125.2638" r="22.40936" gradientUnits="userSpaceOnUse" id="color-26"><stop offset="0" stop-color="#6db9dc"/><stop offset="1" stop-color="#4394b1"/></radialGradient><radialGradient cx="274.29015" cy="125.2638" r="22.40936" gradientUnits="userSpaceOnUse" id="color-27"><stop offset="0" stop-color="#b88b5c"/><stop offset="1" stop-color="#8d6a36"/></radialGradient><linearGradient x1="225.13245" y1="180.88288" x2="225.13245" y2="185.12998" gradientUnits="userSpaceOnUse" id="color-28"><stop offset="0" stop-color="#ffffff"/><stop offset="1" stop-color="#8b8b8b"/></linearGradient><linearGradient x1="237.52229" y1="180.88288" x2="237.52229" y2="185.12998" gradientUnits="userSpaceOnUse" id="color-29"><stop offset="0" stop-color="#ffffff"/><stop offset="1" stop-color="#8b8b8b"/></linearGradient><linearGradient x1="249.91221" y1="180.88288" x2="249.91221" y2="185.12998" gradientUnits="userSpaceOnUse" id="color-30"><stop offset="0" stop-color="#ffffff"/><stop offset="1" stop-color="#8b8b8b"/></linearGradient><linearGradient x1="231.38997" y1="180.88288" x2="231.38997" y2="185.12998" gradientUnits="userSpaceOnUse" id="color-31"><stop offset="0" stop-color="#ffffff"/><stop offset="1" stop-color="#8b8b8b"/></linearGradient><linearGradient x1="243.77981" y1="180.88288" x2="243.77981" y2="185.12998" gradientUnits="userSpaceOnUse" id="color-32"><stop offset="0" stop-color="#ffffff"/><stop offset="1" stop-color="#8b8b8b"/></linearGradient><linearGradient x1="256.16972" y1="180.88288" x2="256.16972" y2="185.12998" gradientUnits="userSpaceOnUse" id="color-33"><stop offset="0" stop-color="#ffffff"/><stop offset="1" stop-color="#8b8b8b"/></linearGradient><linearGradient x1="240.83883" y1="178.25472" x2="240.83883" y2="182.87728" gradientUnits="userSpaceOnUse" id="color-34"><stop offset="0" stop-color="#9b9b9b"/><stop offset="1" stop-color="#686868"/></linearGradient><linearGradient x1="160.52088" y1="179.66176" x2="161.04887" y2="198.17438" gradientUnits="userSpaceOnUse" id="color-35"><stop offset="0" stop-color="#f6923a"/><stop offset="1" stop-color="#bb7335"/></linearGradient><linearGradient x1="319.47908" y1="179.66176" x2="318.9511" y2="198.17438" gradientUnits="userSpaceOnUse" id="color-36"><stop offset="0" stop-color="#f6923a"/><stop offset="1" stop-color="#bb7335"/></linearGradient><linearGradient x1="160.59041" y1="169.54944" x2="159.38137" y2="188.10187" gradientUnits="userSpaceOnUse" id="color-37"><stop offset="0" stop-color="#f6923a"/><stop offset="1" stop-color="#bb7335"/></linearGradient><linearGradient x1="319.40956" y1="169.54944" x2="320.61871" y2="188.10187" gradientUnits="userSpaceOnUse" id="color-38"><stop offset="0" stop-color="#f6923a"/><stop offset="1" stop-color="#bb7335"/></linearGradient><linearGradient x1="161.73831" y1="159.19632" x2="158.78776" y2="177.53251" gradientUnits="userSpaceOnUse" id="color-39"><stop offset="0" stop-color="#f6923a"/><stop offset="1" stop-color="#bb7335"/></linearGradient><linearGradient x1="318.26185" y1="159.19632" x2="321.21219" y2="177.53251" gradientUnits="userSpaceOnUse" id="color-40"><stop offset="0" stop-color="#f6923a"/><stop offset="1" stop-color="#bb7335"/></linearGradient><linearGradient x1="164.78333" y1="150.47726" x2="159.46985" y2="168.08367" gradientUnits="userSpaceOnUse" id="color-41"><stop offset="0" stop-color="#f6923a"/><stop offset="1" stop-color="#bb7335"/></linearGradient><linearGradient x1="315.21675" y1="150.47726" x2="320.53014" y2="168.08367" gradientUnits="userSpaceOnUse" id="color-42"><stop offset="0" stop-color="#f6923a"/><stop offset="1" stop-color="#bb7335"/></linearGradient><linearGradient x1="171.91484" y1="142.99756" x2="165.29631" y2="159.11777" gradientUnits="userSpaceOnUse" id="color-43"><stop offset="0" stop-color="#f6923a"/><stop offset="1" stop-color="#bb7335"/></linearGradient><linearGradient x1="308.08513" y1="142.99756" x2="314.70364" y2="159.11777" gradientUnits="userSpaceOnUse" id="color-44"><stop offset="0" stop-color="#f6923a"/><stop offset="1" stop-color="#bb7335"/></linearGradient><linearGradient x1="180.12697" y1="136.86855" x2="172.9094" y2="150.39417" gradientUnits="userSpaceOnUse" id="color-45"><stop offset="0" stop-color="#f6923a"/><stop offset="1" stop-color="#bb7335"/></linearGradient><linearGradient x1="299.87299" y1="136.86855" x2="307.09055" y2="150.39417" gradientUnits="userSpaceOnUse" id="color-46"><stop offset="0" stop-color="#f6923a"/><stop offset="1" stop-color="#bb7335"/></linearGradient><radialGradient cx="284.38228" cy="153.95619" r="64.42839" gradientUnits="userSpaceOnUse" id="color-47"><stop offset="0" stop-color="#f6923a"/><stop offset="1" stop-color="#bb7335"/></radialGradient><radialGradient cx="244.76606" cy="162.29174" r="13.58284" gradientUnits="userSpaceOnUse" id="color-48"><stop offset="0" stop-color="#ffffff"/><stop offset="1" stop-color="#e7a5ed"/></radialGradient><radialGradient cx="200.62076" cy="166.16521" r="5.42142" gradientUnits="userSpaceOnUse" id="color-49"><stop offset="0" stop-color="#291545"/><stop offset="1" stop-color="#4d207d"/></radialGradient><radialGradient cx="194.17899" cy="168.09467" r="5.42142" gradientUnits="userSpaceOnUse" id="color-50"><stop offset="0" stop-color="#291545"/><stop offset="1" stop-color="#4d207d"/></radialGradient><linearGradient x1="196.61192" y1="164.55365" x2="198.15081" y2="169.36179" gradientUnits="userSpaceOnUse" id="color-51"><stop offset="0" stop-color="#60289c"/><stop offset="1" stop-color="#291545"/></linearGradient><radialGradient cx="281.25595" cy="166.16521" r="5.42142" gradientUnits="userSpaceOnUse" id="color-52"><stop offset="0" stop-color="#454015"/><stop offset="1" stop-color="#7d7820"/></radialGradient><radialGradient cx="287.92253" cy="168.02959" r="5.27896" gradientUnits="userSpaceOnUse" id="color-53"><stop offset="0" stop-color="#454015"/><stop offset="1" stop-color="#7d7820"/></radialGradient><linearGradient x1="285.2648" y1="164.55365" x2="283.72583" y2="169.36179" gradientUnits="userSpaceOnUse" id="color-54"><stop offset="0" stop-color="#9c9528"/><stop offset="1" stop-color="#454015"/></linearGradient><radialGradient cx="240" cy="180" r="250" gradientUnits="userSpaceOnUse" id="color-55"><stop offset="0" stop-color="#000000" stop-opacity="0"/><stop offset="1" stop-color="#000000"/></radialGradient><radialGradient cx="240" cy="180" r="250" gradientUnits="userSpaceOnUse" id="color-56"><stop offset="0" stop-color="#000000" stop-opacity="0"/><stop offset="1" stop-color="#000000"/></radialGradient><radialGradient cx="240" cy="180" r="250" gradientUnits="userSpaceOnUse" id="color-57"><stop offset="0" stop-color="#000000" stop-opacity="0"/><stop offset="1" stop-color="#000000"/></radialGradient></defs><g transform="translate(10,9.5)"><g data-paper-data="{&quot;isPaintingLayer&quot;:true}" stroke-linecap="butt" stroke-linejoin="miter" stroke-miterlimit="10" stroke-dasharray="" stroke-dashoffset="0" style="mix-blend-mode: normal"><path d="M-10,369.5v-379h500v379z" fill="#000000" fill-rule="nonzero" stroke="none" stroke-width="0"/><g fill-rule="nonzero" stroke-width="0"><g stroke="#000000"><path d="M242.62967,243.57442c-30.89155,-2.93223 -67.07299,-29.84039 -66.3345,-45.89171c0.20343,-4.42165 11.12484,-7.91486 27.50039,-10.00417c10.94667,-1.39666 67.15465,-1.79425 77.83444,-0.61198c14.68564,1.62578 23.84654,4.78416 23.45354,10.61618c-1.0605,15.73709 -32.75099,44.36217 -62.45387,45.89167z" fill="url(#color-1)"/><path d="M242.06268,226.76553c-33.6281,-2.68195 -47.4674,-21.07228 -46.94477,-32.40719c0.14397,-3.12242 7.87301,-5.58921 19.46195,-7.06461c7.74694,-0.98628 47.5252,-1.26704 55.08326,-0.43215c10.393,1.14808 16.87613,3.37842 16.59801,7.49679c-0.75051,11.11301 -10.06688,31.32708 -44.19847,32.40715z" fill="url(#color-2)"/></g><g stroke="none"><path d="M220.89742,201.97128v-35.66827h1.96953v35.66827z" fill="url(#color-3)"/><path d="M258.54974,201.97128v-35.66827h1.96953v35.66827z" fill="url(#color-4)"/><g data-paper-data="{&quot;index&quot;:null}"><path d="M227.74071,196.15121v4.24711h-5.44904v-4.24711z" fill="url(#color-5)"/><path d="M240.13054,196.15121v4.24711h-5.44904v-4.24711z" fill="url(#color-6)"/><path d="M252.52046,196.15121v4.24711h-5.44904v-4.24711z" fill="url(#color-7)"/><path d="M233.99822,196.15121v4.24711h-5.44904v-4.24711z" fill="url(#color-8)"/><path d="M246.38806,196.15121v4.24711h-5.44904v-4.24711z" fill="url(#color-9)"/><path d="M258.77799,196.15121v4.24711h-5.44904v-4.24711z" fill="url(#color-10)"/><path d="M260.2798,198.40393v4.62257h-39.11448v-4.62257z" fill="url(#color-11)"/></g></g></g><path d="M279.52164,146.0967c20.0412,8.81726 24.50131,25.61451 25.56181,42.76045c0.39301,6.35413 -8.7679,9.79527 -23.45354,11.56659c-5.28207,0.63708 -23.3818,-4.18955 -39.95358,-4.31802c-16.93472,-0.13128 -32.34824,4.42035 -37.88086,3.65128c-16.37555,-2.27637 -27.29695,-6.0823 -27.50039,-10.8998c-0.73849,-17.48831 5.67443,-34.22653 26.34343,-42.90062c-0.0779,0.41715 24.42323,-7.21374 39.99107,-7.09951c14.65782,0.10754 36.96489,7.63105 36.89208,7.23964z" fill="#6f6f6f" fill-rule="nonzero" stroke="#000000" stroke-width="0"/><g fill-rule="nonzero" stroke="none" stroke-width="0"><path d="M196.20974,162.0388v-22.82844h0.83012v22.82844z" fill="url(#color-12)"/><g><path d="M216.38353,168.04566v-25.89306h5.04266v25.89306z" fill="url(#color-13)"/><path d="M219.45127,195.2827v-28.97968h5.04266v28.97968z" fill="url(#color-14)"/><path d="M257.07793,195.2827v-28.97968h5.04266v28.97968z" data-paper-data="{&quot;index&quot;:null}" fill="url(#color-15)"/><path d="M259.75756,168.04566v-25.89306h5.04266v25.89306z" fill="url(#color-16)"/><path d="M284.41041,162.0388v-22.82844h0.83012v22.82844z" fill="url(#color-17)"/><path d="M194.9645,163.28399v-4.15064h10.99915v4.15064z" fill="url(#color-18)"/><path d="M275.24882,163.28399v-4.15064h10.99915v4.15064z" data-paper-data="{&quot;index&quot;:null}" fill="url(#color-19)"/><path d="M201.26413,165.81826v-9.21917h5.27364l2.24173,2.18552v7.03365z" fill="url(#color-20)"/><path d="M272.43287,165.81826v-7.03365l2.24173,-2.18552h5.27364v9.21917z" data-paper-data="{&quot;index&quot;:null}" fill="url(#color-21)"/><path d="M201.10346,168.04566v-3.04712h78.78708v3.04712z" fill="url(#color-22)"/><path d="M194.9645,141.90827v-5.60336h91.52129v5.60336z" fill="url(#color-23)"/><g fill="#000000"><path d="M219.50891,116.42558c11.85656,0 21.46818,9.24479 21.46818,20.6488c0,11.404 -9.61162,20.6488 -21.46818,20.6488c-11.85656,0 -21.46818,-9.24479 -21.46818,-20.6488c0,-11.404 9.61164,-20.6488 21.46818,-20.6488z"/><path d="M219.50893,128.18987c5.10149,0 9.23706,3.97772 9.23706,8.8845c0,4.90678 -4.13557,8.88452 -9.23706,8.88452c-5.10149,0 -9.23708,-3.97774 -9.23708,-8.8845c0,-4.90678 4.13559,-8.8845 9.23708,-8.8845z"/><path d="M226.06409,125.02737c3.52982,0 6.39128,2.75225 6.39128,6.14735c0,3.39508 -2.86147,6.14735 -6.39128,6.14735c-3.52982,0 -6.39128,-2.75227 -6.39128,-6.14735c0,-3.39508 2.86145,-6.14735 6.39128,-6.14735z"/></g><g fill="#000000"><path d="M262.20352,116.42558c11.85654,0 21.46818,9.24479 21.46818,20.6488c0,11.404 -9.61162,20.6488 -21.46818,20.6488c-11.85656,0 -21.46816,-9.24479 -21.46816,-20.6488c0,-11.404 9.61162,-20.6488 21.46816,-20.6488z"/><path d="M262.20354,128.18987c5.10149,0 9.23708,3.97772 9.23708,8.8845c0,4.90678 -4.13559,8.88452 -9.23708,8.88452c-5.10149,0 -9.23708,-3.97774 -9.23708,-8.8845c0,-4.90678 4.13557,-8.8845 9.23708,-8.8845z"/><path d="M268.75852,125.02737c3.52981,0 6.39128,2.75225 6.39128,6.14735c0,3.39508 -2.86145,6.14735 -6.39128,6.14735c-3.52982,0 -6.39129,-2.75227 -6.39129,-6.14735c0,-3.39508 2.86147,-6.14735 6.39129,-6.14735z"/></g><g><path d="M215.41782,117.71198c15.53694,-2.47029 19.32272,2.50348 24.41391,9.83774c1.84318,2.65524 -10.80522,-0.8391 -22.64095,1.20821c-12.02355,2.07978 -22.92046,9.87971 -21.1917,5.9431c3.14256,-7.15596 3.22698,-14.41465 19.41874,-16.98905z" fill="url(#color-24)"/><path d="M216.89309,126.36097c15.53694,-2.47029 21.12048,-0.09065 22.93867,1.6068c2.36266,2.20576 -10.60281,-0.24513 -22.43854,1.80218c-12.02355,2.07978 -23.12287,8.8677 -21.3941,4.93109c1.1424,-1.51915 4.70221,-5.76567 20.89398,-8.34006z" fill="url(#color-25)"/></g><g><path d="M265.19139,117.17842c15.51241,2.61992 17.51192,8.54211 19.99479,17.11805c0.89889,3.10477 -9.97168,-4.24524 -21.84158,-6.08421c-12.05824,-1.86815 -24.87527,2.04414 -21.98004,-1.13443c5.26294,-5.77798 7.66063,-12.62975 23.82681,-9.89941z" fill="url(#color-26)"/><path d="M263.82784,125.84569c15.51241,2.6199 20.04386,6.65779 21.2249,8.84694c1.53469,2.8447 -9.96954,-3.61774 -21.83942,-5.45671c-12.05824,-1.86815 -24.74394,1.02047 -21.84871,-2.15809c1.56765,-1.07488 6.29703,-3.96248 22.46323,-1.23214z" fill="url(#color-27)"/></g><g><path d="M222.40787,185.12998v-4.24711h5.44904v4.24711z" fill="url(#color-28)"/><path d="M234.79777,185.12998v-4.24711h5.44904v4.24711z" fill="url(#color-29)"/><path d="M247.18768,185.12998v-4.24711h5.44904v4.24711z" fill="url(#color-30)"/><path d="M228.66538,185.12998v-4.24711h5.44904v4.24711z" fill="url(#color-31)"/><path d="M241.05532,185.12998v-4.24711h5.44904v4.24711z" fill="url(#color-32)"/><path d="M253.44521,185.12998v-4.24711h5.44904v4.24711z" fill="url(#color-33)"/><path d="M221.28158,182.87728v-4.62257h39.11448v4.62257z" fill="url(#color-34)"/></g></g></g><g><g fill-rule="nonzero" stroke="#000000" stroke-width="0"><path d="M171.95548,195.96262c-29.23723,9.46834 -37.55985,-11.30701 -37.55985,-11.30701c0,0 4.82389,7.88681 34.06111,-1.58155c8.19699,-2.65455 17.72064,-6.31143 18.78076,-0.60998c0.97853,5.26263 -5.169,10.22347 -15.282,13.49851z" data-paper-data="{&quot;index&quot;:null}" fill="url(#color-35)"/><path d="M308.04447,195.96262c-10.113,-3.27504 -16.26051,-8.23589 -15.282,-13.49851c1.06012,-5.70145 10.58376,-2.04458 18.78076,0.60998c29.23723,9.46835 34.06111,1.58155 34.06111,1.58155c0,0 -8.32263,20.77534 -37.55985,11.30701z" data-paper-data="{&quot;index&quot;:null}" fill="url(#color-36)"/><path d="M170.36831,187.47613c-29.78343,5.20973 -36.06702,-16.73127 -36.06702,-16.73127c0,0 4.03052,8.57068 33.81395,3.36093c8.35013,-1.46061 18.10525,-3.72916 18.61997,2.11475c0.4751,5.3941 -6.06494,9.4536 -16.36687,11.25564z" data-paper-data="{&quot;index&quot;:null}" fill="url(#color-37)"/><path d="M309.63164,187.47618c-10.30192,-1.80205 -16.84198,-5.86154 -16.36687,-11.25564c0.51472,-5.84391 10.26984,-3.57535 18.61997,-2.11475c29.78345,5.20973 33.81396,-3.36093 33.81396,-3.36093c0,0 -6.28359,21.94101 -36.06702,16.73127z" data-paper-data="{&quot;index&quot;:null}" fill="url(#color-38)"/><path d="M169.70412,178.52058c-29.92436,0.82762 -34.05734,-21.98973 -34.05734,-21.98973c0,0 3.17181,9.14428 33.09617,8.3167c8.38965,-0.23202 18.24409,-1.06409 18.19973,4.8431c-0.04097,5.45254 -6.88786,8.54371 -17.23852,8.82998z" data-paper-data="{&quot;index&quot;:null}" fill="url(#color-39)"/><path d="M310.29581,178.52061c-10.35067,-0.28628 -17.19756,-3.37743 -17.23852,-8.82998c-0.04437,-5.90719 9.81009,-5.07512 18.19973,-4.8431c29.92436,0.82758 33.09617,-8.3167 33.09617,-8.3167c0,0 -4.13298,22.81735 -34.05734,21.98973z" data-paper-data="{&quot;index&quot;:null}" fill="url(#color-40)"/><path d="M170.03281,171.30242c-29.42307,-5.31142 -30.45629,-28.82026 -30.45629,-28.82026c0,0 1.89862,9.73202 31.32167,15.04345c8.2491,1.4891 18.01242,2.68252 17.18828,8.54035c-0.7607,5.40695 -7.87639,7.07369 -18.05366,5.2365z" data-paper-data="{&quot;index&quot;:null}" fill="url(#color-41)"/><path d="M309.96717,171.30247c-10.17728,1.83717 -17.29298,0.17046 -18.05368,-5.2365c-0.82413,-5.85783 8.9392,-7.05124 17.1883,-8.54035c29.42304,-5.31144 31.32167,-15.04345 31.32167,-15.04345c0,0 -1.03323,23.50884 -30.4563,28.82026z" data-paper-data="{&quot;index&quot;:null}" fill="url(#color-42)"/><path d="M175.02494,163.66968c-27.42695,-9.17996 -26.29778,-31.83526 -26.29778,-31.83526c0,0 0.92748,9.58335 28.35443,18.7633c7.68946,2.57369 16.84148,5.07493 15.53439,10.56959c-1.20648,5.07175 -8.10418,5.6777 -17.59102,2.5024z" data-paper-data="{&quot;index&quot;:null}" fill="url(#color-43)"/><path d="M304.97502,163.66971c-9.48683,3.17529 -16.38455,2.56935 -17.59103,-2.5024c-1.30709,-5.49466 7.84493,-7.99589 15.53439,-10.56959c27.42695,-9.17996 28.35443,-18.7633 28.35443,-18.7633c0,0 1.12917,22.6553 -26.29779,31.83526z" data-paper-data="{&quot;index&quot;:null}" fill="url(#color-44)"/><path d="M181.12661,155.73658c-23.47529,-11.79952 -20.55834,-31.88171 -20.55834,-31.88171c0,0 0.00862,8.67944 23.4839,20.47893c6.58157,3.30812 14.46253,6.74361 12.84145,11.4785c-1.49633,4.37045 -7.64703,4.00566 -15.76701,-0.07572z" data-paper-data="{&quot;index&quot;:null}" fill="url(#color-45)"/><path d="M298.87336,155.73658c-8.11997,4.08138 -14.27068,4.44619 -15.76701,0.07572c-1.6211,-4.73491 6.25988,-8.17038 12.84145,-11.4785c23.47527,-11.7995 23.4839,-20.47893 23.4839,-20.47893c0,0 2.91695,20.08219 -20.55834,31.88171z" data-paper-data="{&quot;index&quot;:null}" fill="url(#color-46)"/><path d="M281.27592,146.84373c18.44414,9.02221 22.78097,25.41704 23.80748,42.01342c0.39301,6.35413 -8.7679,9.79527 -23.45354,11.56659c-1.92895,0.23265 -12.25389,2.52274 -16.90296,1.793c-8.08155,-1.26854 -11.69482,-4.35781 -22.21479,-4.43936c-8.47409,-0.0657 -13.7812,2.71285 -20.44603,3.7389c-6.65423,1.02443 -15.50656,-1.37507 -18.27066,-1.75929c-16.37555,-2.27637 -27.29695,-6.0823 -27.50039,-10.8998c-0.72167,-17.08982 5.38589,-33.46334 24.95264,-42.29519c2.41489,5.95955 8.71714,12.90158 23.21948,10.28816c15.00354,-2.70374 15.48616,-17.91057 16.49577,-17.97729c0.29202,-0.0193 3.1874,15.30337 14.88159,17.45401c20.19073,3.7132 24.82068,-9.78192 25.43142,-9.48316z" fill="url(#color-47)"/><path d="M240.66735,156.28365c7.50159,0 13.58285,4.34376 13.58285,9.70205c0,5.35828 -6.08125,9.70203 -13.58285,9.70203c-7.50159,0 -13.58284,-4.34376 -13.58284,-9.70203c0,-5.35828 6.08125,-9.70205 13.58284,-9.70205z" fill="url(#color-48)"/></g><g><g><path d="M206.81141,163.93944c0.61941,1.75037 0.87018,3.60967 0.73602,5.45677c-2.98518,0.95546 -7.13351,-1.35992 -7.13351,-1.35992l-1.18989,-3.71757c0,0 2.03293,-4.29381 5.0181,-5.24929c1.18177,1.42591 2.05722,3.08526 2.56927,4.86999z" fill="url(#color-49)" fill-rule="evenodd" stroke="#149948" stroke-width="0"/><g fill="none" fill-rule="nonzero" stroke="none" stroke-width="1" font-family="sans-serif" font-weight="normal" font-size="12" text-anchor="start"/></g><g><path d="M187.28728,164.49618c2.98518,-0.95546 7.13351,1.35992 7.13351,1.35992l1.18989,3.71757c0,0 -2.03293,4.29381 -5.0181,5.24929c-1.18177,-1.42591 -2.05722,-3.08526 -2.56927,-4.86999c-0.61941,-1.75037 -0.87018,-3.60967 -0.73602,-5.45677z" fill="url(#color-50)" fill-rule="evenodd" stroke="#149948" stroke-width="0"/><g fill="none" fill-rule="nonzero" stroke="none" stroke-width="1" font-family="sans-serif" font-weight="normal" font-size="12" text-anchor="start"/></g><path d="M195.30764,170.27182l-1.53894,-4.80812c0,0 2.04666,-0.87568 2.78598,-1.11232c0.73704,-0.23591 2.90044,-0.70774 2.90044,-0.70774l1.53894,4.80812c0,0 -2.10936,0.93988 -2.83957,1.17359c-0.74583,0.23872 -2.84686,0.64647 -2.84686,0.64647z" fill="url(#color-51)" fill-rule="evenodd" stroke="#149948" stroke-width="0"/></g><g data-paper-data="{&quot;index&quot;:null}"><g><path d="M277.63453,159.06945c2.98518,0.95546 5.0181,5.24929 5.0181,5.24929l-1.18989,3.71757c0,0 -4.14833,2.31538 -7.13351,1.35992c-0.13416,-1.8471 0.11659,-3.7064 0.73602,-5.45677c0.51207,-1.78474 1.38752,-3.44408 2.56927,-4.86999z" fill="url(#color-52)" fill-rule="evenodd" stroke="#149948" stroke-width="0"/><g fill="none" fill-rule="nonzero" stroke="none" stroke-width="1" font-family="sans-serif" font-weight="normal" font-size="12" text-anchor="start"/></g><g><path d="M293.85338,169.95296c-0.51207,1.78474 -1.38752,3.44408 -2.56927,4.86999c-2.98518,-0.95546 -5.0181,-5.24929 -5.0181,-5.24929l1.18989,-3.71757c0,0 4.14833,-2.31538 7.13351,-1.35992c0.13416,1.8471 -0.11659,3.7064 -0.73602,5.45677z" fill="url(#color-53)" fill-rule="evenodd" stroke="#149948" stroke-width="0"/><g fill="none" fill-rule="nonzero" stroke="none" stroke-width="1" font-family="sans-serif" font-weight="normal" font-size="12" text-anchor="start"/></g><path d="M283.72217,169.62535c-0.73021,-0.23371 -2.83957,-1.17359 -2.83957,-1.17359l1.53894,-4.80812c0,0 2.16339,0.47183 2.90044,0.70774c0.73932,0.23664 2.78598,1.11232 2.78598,1.11232l-1.53894,4.80812c0,0 -2.10103,-0.40775 -2.84686,-0.64647z" fill="url(#color-54)" fill-rule="evenodd" stroke="#149948" stroke-width="0"/></g></g><path d="M-10,369.5v-379h500v379z" fill="url(#color-55)" fill-rule="nonzero" stroke="none" stroke-width="0"/><path d="M-10,369.5v-379h500v379z" fill="url(#color-56)" fill-rule="nonzero" stroke="none" stroke-width="0"/><path d="M-10,369.5v-379h500v379z" fill="url(#color-57)" fill-rule="nonzero" stroke="none" stroke-width="0"/><g fill="#ffffff" fill-rule="nonzero" stroke="#712aff" stroke-width="0" font-family="Sans Serif" font-weight="normal" font-size="40" text-anchor="start"><text transform="translate(45.13954,187.96331) scale(0.62627,0.66361)" font-size="40" xml:space="preserve" fill="#ffffff" fill-rule="nonzero" stroke="#712aff" stroke-width="0" stroke-linecap="butt" stroke-linejoin="miter" stroke-miterlimit="10" stroke-dasharray="" stroke-dashoffset="0" font-family="Sans Serif" font-weight="normal" text-anchor="start" style="mix-blend-mode: normal"><tspan x="0" dy="0">B E N E A T H</tspan></text><text transform="translate(288.23921,187.96331) scale(0.62627,0.66361)" font-size="40" xml:space="preserve" fill="#ffffff" fill-rule="nonzero" stroke="#712aff" stroke-width="0" stroke-linecap="butt" stroke-linejoin="miter" stroke-miterlimit="10" stroke-dasharray="" stroke-dashoffset="0" font-family="Sans Serif" font-weight="normal" text-anchor="start" style="mix-blend-mode: normal"><tspan x="0" dy="0">S U R F A C E</tspan></text><text transform="translate(211.45482,187.96331) scale(0.62627,0.66361)" font-size="40" xml:space="preserve" fill="#ffffff" fill-rule="nonzero" stroke="#712aff" stroke-width="0" stroke-linecap="butt" stroke-linejoin="miter" stroke-miterlimit="10" stroke-dasharray="" stroke-dashoffset="0" font-family="Sans Serif" font-weight="normal" text-anchor="start" style="mix-blend-mode: normal"><tspan x="0" dy="0">T H E</tspan></text></g><text transform="translate(419.12149,211.41507) scale(0.61169,0.64818)" font-size="40" xml:space="preserve" fill="#863fdf" fill-rule="nonzero" stroke="#712aff" stroke-width="0" stroke-linecap="butt" stroke-linejoin="miter" stroke-miterlimit="10" stroke-dasharray="" stroke-dashoffset="0" font-family="Sans Serif" font-weight="normal" text-anchor="start" style="mix-blend-mode: normal"><tspan x="0" dy="0">R</tspan></text></g></g></svg>