<svg version="1.1" xmlns="http://www.w3.org/2000/svg" xmlns:xlink="http://www.w3.org/1999/xlink" width="523" height="406.92529" viewBox="0,0,523,406.92529"><defs><linearGradient x1="241.50005" y1="298.78019" x2="241.50005" y2="374.78019" gradientUnits="userSpaceOnUse" id="color-1"><stop offset="0" stop-color="#1a1a1a"/><stop offset="1" stop-color="#7b7b7b"/></linearGradient><linearGradient x1="226.50005" y1="312.78019" x2="226.50005" y2="332.78019" gradientUnits="userSpaceOnUse" id="color-2"><stop offset="0" stop-color="#5f5f5f"/><stop offset="1" stop-color="#d7d7d7"/></linearGradient><linearGradient x1="227.50005" y1="298.78019" x2="227.50005" y2="307.78019" gradientUnits="userSpaceOnUse" id="color-3"><stop offset="0" stop-color="#000000"/><stop offset="1" stop-color="#d7d7d7"/></linearGradient><linearGradient x1="228.50005" y1="341.78019" x2="228.50005" y2="361.78019" gradientUnits="userSpaceOnUse" id="color-4"><stop offset="0" stop-color="#8e8e8e"/><stop offset="1" stop-color="#d7d7d7"/></linearGradient><linearGradient x1="-20.49995" y1="173.61352" x2="118.50005" y2="173.61352" gradientUnits="userSpaceOnUse" id="color-5"><stop offset="0" stop-color="#7b7b7b"/><stop offset="1" stop-color="#000000"/></linearGradient><linearGradient x1="497.50006" y1="173.61352" x2="358.50009" y2="173.61352" gradientUnits="userSpaceOnUse" id="color-6"><stop offset="0" stop-color="#7b7b7b"/><stop offset="1" stop-color="#000000"/></linearGradient><radialGradient cx="240" cy="180" r="251.5" gradientUnits="userSpaceOnUse" id="color-7"><stop offset="0" stop-color="#000000" stop-opacity="0"/><stop offset="1" stop-color="#000000"/></radialGradient></defs><g transform="translate(20.49995,28.88648)"><g data-paper-data="{&quot;isPaintingLayer&quot;:true}" fill-rule="nonzero" stroke-width="0" stroke-linecap="butt" stroke-linejoin="miter" stroke-miterlimit="10" stroke-dasharray="" stroke-dashoffset="0" style="mix-blend-mode: normal"><path d="M73.00001,330v-355h334v355z" fill="#000000" stroke="none"/><path d="M-19.49995,374.78019l138,-76h242l142,76z" data-paper-data="{&quot;index&quot;:null}" fill="url(#color-1)" stroke="#000000"/><path d="M2.50004,332.78019v-20h448v20z" fill="url(#color-2)" stroke="none"/><path d="M3.50004,307.78019v-9h448v9z" fill="url(#color-3)" stroke="none"/><path d="M-16.49997,361.78019v-20h490v20z" fill="url(#color-4)" stroke="none"/><path d="M-20.49995,376.11352v-405h139v327.8279z" data-paper-data="{&quot;index&quot;:null}" fill="url(#color-5)" stroke="#000000"/><path d="M358.50009,298.94142v-327.8279h139v405z" data-paper-data="{&quot;index&quot;:null}" fill="url(#color-6)" stroke="#000000"/><path d="M-11.5,378.03882v-396.07763h503v396.07763z" fill="url(#color-7)" stroke="none"/></g></g></svg>