<svg version="1.1" xmlns="http://www.w3.org/2000/svg" xmlns:xlink="http://www.w3.org/1999/xlink" width="210.15629" height="223.12604" viewBox="0,0,210.15629,223.12604"><defs><linearGradient x1="240" y1="60.919" x2="240" y2="242.12604" gradientUnits="userSpaceOnUse" id="color-1"><stop offset="0" stop-color="#006eff"/><stop offset="1" stop-color="#005ec9"/></linearGradient><linearGradient x1="240" y1="60.919" x2="240" y2="242.12604" gradientUnits="userSpaceOnUse" id="color-2"><stop offset="0" stop-color="#006eff"/><stop offset="1" stop-color="#005ec9"/></linearGradient></defs><g transform="translate(-22.25,-20.25)"><g data-paper-data="{&quot;isPaintingLayer&quot;:true}" fill-rule="nonzero" stroke-linejoin="miter" stroke-miterlimit="10" stroke-dasharray="" stroke-dashoffset="0" style="mix-blend-mode: normal"><path d="M109,242.12604v-181.20705h112.49514c0.60805,0.67932 1.16497,1.0506 1.16497,1.0506c0.03445,0.02297 0.06851,0.04695 0.10225,0.07176c-0.27889,0.41163 -0.49249,0.87661 -0.78692,1.27841c-0.64974,0.88669 -1.69832,1.55421 -2.02293,2.60445c-0.51548,1.66779 -0.51604,3.48041 -0.39605,5.22192c0.11687,1.69611 1.32274,6.32561 3.3622,7.38244c-0.39715,0.87782 -0.03462,2.02551 0.10036,3.00522c0.14034,1.01865 0.45676,2.00534 0.70616,3.00291c0.09432,0.3773 0.10078,0.8043 0.21713,1.1734c-0.07983,0.04757 -0.1591,0.09134 -0.23559,0.11626c-1.70497,2.89184 -3.61606,2.66769 -5.10006,6.60312c-0.93099,2.46891 -0.0702,5.39575 0.40399,7.79055c0.29787,1.50432 -0.35556,4.29363 -0.60837,5.87269c-0.38703,2.41742 -0.62033,4.57693 -0.62033,7.05313c0,0.76946 0.49704,1.54309 0.57709,2.30837c0.00883,0.08439 0.29051,-0.01425 0.24762,0.05896c-0.23639,0.40346 -0.72496,0.63885 -0.90848,1.06895c-1.32116,3.09635 -2.54702,8.19144 -1.39989,11.50918c0.47135,1.36324 1.47639,2.47844 2.21459,3.71766c0.38472,0.38472 0.71273,0.83614 1.15419,1.15419c0.07351,0.05296 0.09979,-0.3455 0.09378,-0.2551c-0.04267,0.64162 -0.26086,1.2777 -0.20438,1.91825c0.06967,0.79007 0.45171,1.5252 0.57709,2.30837c0.02229,0.13921 -0.09111,1.1606 -0.02643,1.63356c-1.15446,0.84554 -1.32811,2.04208 -2.12268,3.42113c-0.99112,1.72018 -2.01958,3.49369 -2.43636,5.43474c-0.12115,0.56423 0.09487,1.16204 0,1.73128c-0.31194,1.87164 -0.80088,3.80696 -0.99855,5.65894c-0.02287,0.21423 0.36943,0.42062 0.24644,0.59752c-0.12805,0.18417 -0.48813,-0.11179 -0.67273,0.01562c-0.58731,0.40533 -3.36735,3.44103 -3.55871,3.73731c-0.22946,0.35527 -0.2102,1.28071 -0.60046,1.11771c-0.94236,0.73913 -2.31257,0.64132 -3.49419,0.83657c-0.60017,0.09917 -1.13455,0.45893 -1.73128,0.57709c-1.06055,0.21 -2.17125,-0.17143 -3.24327,-0.03128c-0.78644,0.10282 -1.51979,0.49218 -2.30837,0.57709c-1.35379,0.14577 -2.74949,-0.16247 -4.08333,0.11114c-1.02611,0.21048 -1.86199,0.97986 -2.85536,1.31217c-3.02458,1.01182 -5.62216,1.11479 -8.52591,2.7756c-2.84736,1.62856 -6.6253,4.87398 -8.36048,7.7283c-0.23675,0.38945 -0.5235,0.80033 -0.75487,1.22471c-1.01471,0.26798 -2.10582,0.57682 -2.5434,0.69829c-4.06079,-0.1711 -9.09409,-0.72957 -12.71651,1.39574c-1.72911,1.01448 -3.57023,3.5174 -4.45852,5.25904c-1.73089,3.39367 -2.3877,7.95023 -2.85195,11.64093c-0.16565,1.31695 -0.93528,2.50637 -1.12291,3.82036c-0.15237,1.06706 -0.05834,2.15501 -0.07452,3.23277c-0.02345,1.56237 -0.01025,4.57007 0.43929,5.671c1.49364,3.65795 5.11819,5.19091 8.44689,6.37343c4.53963,0.10464 9.07973,0.07451 13.62043,0.07451c1.15419,0 2.30837,0 3.46256,0c0.25526,0 0.54047,0.0766 0.81589,0.12815c0.23901,0.69002 0.16476,1.49272 0.51027,2.13809c0.41068,0.76711 1.16805,1.29134 1.71315,1.96956c0.62601,0.7789 1.01116,1.78274 1.79787,2.39891c5.45805,4.27487 12.05962,2.68529 18.34763,3.7333c1.27015,0.01132 2.552,-0.19534 3.81052,-0.02357c0.72906,0.0995 1.41125,0.46248 2.13774,0.55951c1.47687,1.96401 4.24261,2.93473 6.39299,3.74836c3.35875,1.27082 6.74724,2.62272 9.91576,4.10697c0.95597,0.44781 1.33881,1.64672 2.1383,2.33609c0.72842,0.6281 1.58312,1.09952 2.30837,1.73128c1.99481,1.73765 3.62346,4.0853 5.70942,5.73945z" fill="url(#color-1)" stroke="#ffffff" stroke-width="0" stroke-linecap="butt"/><path d="M223.55286,61.20754c-0.03957,-0.14486 0.5509,-0.00053 0.43928,0.09994c-0.08968,0.08072 -0.21104,0.10775 -0.33811,0.12467c-0.04376,-0.07005 -0.07918,-0.14408 -0.10117,-0.2246z" fill="url(#color-2)" stroke="#ffffff" stroke-width="0" stroke-linecap="butt"/><path d="M232.40628,242.12604h-123.40627v-181.20705h112.49514" fill="none" stroke="#ffffff" stroke-width="2.5" stroke-linecap="butt"/><text transform="translate(112.7511,110.72869) scale(0.13288,0.13288)" font-size="40" xml:space="preserve" fill="#ffffff" fill-rule="nonzero" stroke="none" stroke-width="1" stroke-linecap="butt" stroke-linejoin="miter" stroke-miterlimit="10" stroke-dasharray="" stroke-dashoffset="0" font-family="Sans Serif" font-weight="normal" text-anchor="start" style="mix-blend-mode: normal"><tspan x="0" dy="0">Model Name: E643612 Codename "Edwar</tspan></text><text transform="translate(112.7511,119.38507) scale(0.13288,0.13288)" font-size="40" xml:space="preserve" fill="#ffffff" fill-rule="nonzero" stroke="none" stroke-width="1" stroke-linecap="butt" stroke-linejoin="miter" stroke-miterlimit="10" stroke-dasharray="" stroke-dashoffset="0" font-family="Sans Serif" font-weight="normal" text-anchor="start" style="mix-blend-mode: normal"><tspan x="0" dy="0">A. Cameras Disguised as Eyes</tspan><tspan x="0" dy="48px">B. Movable Jaw</tspan><tspan x="0" dy="48px">C. Mechanical Arms and Hands</tspan><tspan x="0" dy="48px">D. Microphone Prop Glued to Right Hand</tspan><tspan x="0" dy="48px">E. Animatronic CPU</tspan><tspan x="0" dy="48px">F. Mechanical Legs</tspan></text><g><path d="M163.88405,70.89955c3.57628,-0.88794 7.6669,-1.3043 11.2043,0.20775c1.24298,0.60376 -0.41525,3.65652 0.43767,4.9446c0.47023,0.70969 1.65859,-1.13558 2.25836,-0.4363c2.39981,2.41663 5.86687,5.07757 5.88227,8.89198c0.0161,3.91995 -2.77379,7.94502 -5.79789,9.61995c-4.23453,2.34058 -9.35454,1.14388 -14.01975,0.80941c-4.35952,-0.31248 -8.59473,-1.83658 -12.90246,-2.70084c-2.13652,-0.33325 -4.55174,0.34446 -6.44248,-0.89334c-1.1509,-0.75333 -1.80843,-2.76651 -1.48807,-4.34213c0.46708,-1.83115 3.36481,-1.74845 3.8865,-3.59417c0.53326,-1.88933 -1.83505,-4.13145 -1.19047,-6.14957c0.48809,-1.36994 2.39351,-1.26318 3.74644,-1.49586c2.31861,-0.39514 4.78424,0.71302 7.03772,0c2.71388,-0.87049 4.63438,-4.17797 7.38785,-4.86149z" fill="none" stroke="#ffffff" stroke-width="1" stroke-linecap="round"/><g fill="none" stroke="#ffffff" stroke-width="1"><g stroke-linecap="butt"><g><path d="M177.57381,86.96834c-0.19003,0.16739 0.04588,0.82601 -0.15128,0.99988c-0.25211,0.22221 -0.5213,0.45575 -0.69425,0.74926c-0.21497,0.36447 -0.06852,0.49018 -0.13971,-0.02158c0.04066,0.29194 0.15216,0.59438 0.40172,0.77519c0.48828,0.3538 1.01891,0.23086 1.16338,-0.38239c-0.05019,0.32725 -0.10015,0.65433 -0.15018,0.98183c0.02517,-0.23369 0.14658,-0.6692 -0.21161,-0.39905c-0.18151,0.13677 -0.3661,0.27901 -0.48524,0.47818c-0.23231,0.38826 -0.2809,0.30131 -0.16784,0.75806c0.053,0.21461 0.10614,0.44033 0.22321,0.63174c0.00604,0.01012 0.39244,0.52585 0.40848,0.42947c0.03589,-0.21528 0.09098,-0.398 0.22367,-0.57305c-0.0505,0.33335 -0.10099,0.6665 -0.15149,0.99985c-1.59942,0.86129 -1.22515,2.50639 -0.30906,3.83979c0.14229,0.20711 -0.28772,0.80144 -0.15146,0.99986c-1.04968,-1.52794 -1.31148,-4.80374 0.61201,-5.83951c-0.16261,0.08768 -0.02366,0.83122 -0.15149,0.99985c-0.13934,0.18384 -0.18306,0.34825 -0.22142,0.57848c-0.00325,0.02282 -0.00754,0.0457 -0.01297,0.068c-0.89872,-0.88239 -0.68312,-2.14623 -0.43561,-3.25732c0.08711,-0.39142 1.09545,-1.75691 0.99632,-0.83525c-0.04038,0.37458 -0.0931,0.75095 -0.16291,1.12126c-0.20477,1.08281 -1.55424,0.50627 -1.56921,-0.3752c-0.01809,-1.08506 0.3131,-2.00182 1.13693,-2.72737z"/></g></g><path d="M178.08883,91.61828c0,0 -0.0577,0.60766 -0.13876,0.89972c-0.03719,0.13382 -0.21054,0.35989 -0.21054,0.35989" stroke-linecap="round"/></g><path d="M186.77295,80.68193c-1.33693,4.88311 -7.74453,7.67827 -9.52904,7.3804c-1.94604,-0.32474 -6.05831,-6.39862 -4.72155,-11.28214c1.33713,-4.8831 5.61106,-7.96852 9.54613,-6.89121c3.93505,1.07731 6.04138,5.90983 4.70447,10.79296z" fill="none" stroke="#ffffff" stroke-width="1" stroke-linecap="butt"/><g data-paper-data="{&quot;index&quot;:null}" fill="none" stroke="#ffffff" stroke-width="1"><g stroke-linecap="butt"><g><path d="M151.6854,84.94298c1.00258,0.88297 1.40562,1.99865 1.38361,3.31912c-0.01821,1.07272 -1.66048,1.77435 -1.90967,0.45661c-0.08495,-0.45065 -0.14911,-0.90868 -0.19825,-1.36454c-0.12065,-1.12163 1.10647,0.54011 1.21248,1.01647c0.30121,1.35216 0.5636,2.89021 -0.53012,3.96404c-0.0066,-0.02713 -0.01182,-0.05497 -0.01578,-0.08276c-0.04669,-0.28019 -0.0999,-0.48026 -0.26947,-0.704c-0.15557,-0.20523 0.01354,-1.11009 -0.18435,-1.21679c2.34083,1.2605 2.02222,5.24703 0.7448,7.10649c0.16582,-0.24147 -0.3575,-0.96475 -0.18433,-1.21679c1.11486,-1.6227 1.57033,-3.62474 -0.37612,-4.6729c-0.06146,-0.40568 -0.12289,-0.81112 -0.18435,-1.21679c0.16149,0.21303 0.22852,0.43538 0.2722,0.69738c0.01952,0.11729 0.48977,-0.51034 0.49711,-0.52266c0.14246,-0.23293 0.20715,-0.50762 0.27164,-0.7688c0.1376,-0.55584 0.07845,-0.45003 -0.20426,-0.92253c-0.14499,-0.24238 -0.36962,-0.41549 -0.59052,-0.58193c-0.43591,-0.32876 -0.28817,0.20124 -0.25753,0.48563c-0.06087,-0.39856 -0.12167,-0.7966 -0.18276,-1.19486c0.17581,0.74631 0.82156,0.89593 1.41579,0.46536c0.30371,-0.22004 0.4394,-0.5881 0.48888,-0.94338c-0.08663,0.62279 0.0916,0.46981 -0.17002,0.02626c-0.21047,-0.3572 -0.53806,-0.64141 -0.84488,-0.91183c-0.23994,-0.2116 0.04715,-1.01312 -0.18411,-1.21682z"/></g></g><path d="M151.48372,92.13471c0,0 -0.21096,-0.27512 -0.25622,-0.43798c-0.09865,-0.35543 -0.16887,-1.09492 -0.16887,-1.09492" stroke-linecap="round"/></g><path d="M146.21552,64.15797c4.78885,-1.31105 9.99007,2.44381 11.61732,8.38638c1.62679,5.94308 -3.37771,13.3348 -5.74597,13.72998c-2.1717,0.36251 -9.96954,-3.03912 -11.59653,-8.98169c-1.62697,-5.9426 0.93636,-11.82362 5.72518,-13.13467z" data-paper-data="{&quot;index&quot;:null}" fill="none" stroke="#ffffff" stroke-width="1" stroke-linecap="butt"/><text transform="translate(151.78588,87.64781) scale(0.3029,0.3029)" font-size="40" xml:space="preserve" fill="#ffffff" fill-rule="nonzero" stroke="none" stroke-width="2" stroke-linecap="butt" stroke-linejoin="miter" stroke-miterlimit="10" stroke-dasharray="" stroke-dashoffset="0" font-family="Marker" font-weight="normal" text-anchor="start" style="mix-blend-mode: normal"><tspan x="0" dy="0">Ed's</tspan></text><text transform="translate(149.81646,101.96549) scale(0.07798,0.07798)" font-size="40" xml:space="preserve" fill="#ffffff" fill-rule="nonzero" stroke="none" stroke-width="2" stroke-linecap="butt" stroke-linejoin="miter" stroke-miterlimit="10" stroke-dasharray="" stroke-dashoffset="0" font-family="Marker" font-weight="normal" text-anchor="start" style="mix-blend-mode: normal"><tspan x="0" dy="0">Entertainment Inc.</tspan></text></g><text transform="translate(22.5,42) scale(0.5,0.5)" font-size="40" xml:space="preserve" fill="#dbc2ff" fill-rule="nonzero" stroke="none" stroke-width="1" stroke-linecap="butt" stroke-linejoin="miter" stroke-miterlimit="10" stroke-dasharray="" stroke-dashoffset="0" font-family="Sans Serif" font-weight="normal" text-anchor="start" style="mix-blend-mode: normal"><tspan x="0" dy="0">BLUEPRINTS</tspan></text></g></g></svg>