<svg version="1.1" xmlns="http://www.w3.org/2000/svg" xmlns:xlink="http://www.w3.org/1999/xlink" width="620.65361" height="352.48181" viewBox="0,0,620.65361,352.48181"><defs><linearGradient x1="400.12833" y1="380.01611" x2="400.12833" y2="393.13489" gradientUnits="userSpaceOnUse" id="color-1"><stop offset="0" stop-color="#0f0f0f"/><stop offset="1" stop-color="#737373"/></linearGradient><linearGradient x1="400.30379" y1="394.98177" x2="400.30379" y2="408.02059" gradientUnits="userSpaceOnUse" id="color-2"><stop offset="0" stop-color="#0f0f0f"/><stop offset="1" stop-color="#737373"/></linearGradient><linearGradient x1="441.72154" y1="379.61196" x2="441.72154" y2="392.65078" gradientUnits="userSpaceOnUse" id="color-3"><stop offset="0" stop-color="#0f0f0f"/><stop offset="1" stop-color="#737373"/></linearGradient><linearGradient x1="441.79063" y1="394.49853" x2="441.79063" y2="407.61734" gradientUnits="userSpaceOnUse" id="color-4"><stop offset="0" stop-color="#0f0f0f"/><stop offset="1" stop-color="#737373"/></linearGradient><linearGradient x1="420.68462" y1="404.81754" x2="420.68462" y2="410.64055" gradientUnits="userSpaceOnUse" id="color-5"><stop offset="0" stop-color="#595959"/><stop offset="1" stop-color="#afafaf"/></linearGradient><linearGradient x1="420.80403" y1="377.38776" x2="420.80403" y2="383.21076" gradientUnits="userSpaceOnUse" id="color-6"><stop offset="0" stop-color="#afafaf"/><stop offset="1" stop-color="#595959"/></linearGradient><linearGradient x1="420.79313" y1="389.71201" x2="420.79313" y2="397.89802" gradientUnits="userSpaceOnUse" id="color-7"><stop offset="0" stop-color="#afafaf"/><stop offset="1" stop-color="#595959"/></linearGradient><radialGradient cx="455.80641" cy="392.10806" r="8.43052" gradientUnits="userSpaceOnUse" id="color-8"><stop offset="0" stop-color="#656565"/><stop offset="1" stop-color="#404040"/></radialGradient><linearGradient x1="425.78271" y1="369.15455" x2="425.78271" y2="416.96854" gradientUnits="userSpaceOnUse" id="color-9"><stop offset="0" stop-color="#80cb83"/><stop offset="1" stop-color="#39853c"/></linearGradient><linearGradient x1="327.71142" y1="380.01611" x2="327.71142" y2="393.13489" gradientUnits="userSpaceOnUse" id="color-10"><stop offset="0" stop-color="#0f0f0f"/><stop offset="1" stop-color="#737373"/></linearGradient><linearGradient x1="327.8869" y1="394.98177" x2="327.8869" y2="408.02059" gradientUnits="userSpaceOnUse" id="color-11"><stop offset="0" stop-color="#0f0f0f"/><stop offset="1" stop-color="#737373"/></linearGradient><linearGradient x1="369.30461" y1="379.61196" x2="369.30461" y2="392.65078" gradientUnits="userSpaceOnUse" id="color-12"><stop offset="0" stop-color="#0f0f0f"/><stop offset="1" stop-color="#737373"/></linearGradient><linearGradient x1="369.37371" y1="394.49853" x2="369.37371" y2="407.61734" gradientUnits="userSpaceOnUse" id="color-13"><stop offset="0" stop-color="#0f0f0f"/><stop offset="1" stop-color="#737373"/></linearGradient><linearGradient x1="348.2677" y1="404.81754" x2="348.2677" y2="410.64055" gradientUnits="userSpaceOnUse" id="color-14"><stop offset="0" stop-color="#595959"/><stop offset="1" stop-color="#afafaf"/></linearGradient><linearGradient x1="348.38714" y1="377.38776" x2="348.38714" y2="383.21076" gradientUnits="userSpaceOnUse" id="color-15"><stop offset="0" stop-color="#afafaf"/><stop offset="1" stop-color="#595959"/></linearGradient><linearGradient x1="348.37625" y1="389.71201" x2="348.37625" y2="397.89802" gradientUnits="userSpaceOnUse" id="color-16"><stop offset="0" stop-color="#afafaf"/><stop offset="1" stop-color="#595959"/></linearGradient><radialGradient cx="383.38951" cy="392.10806" r="8.43052" gradientUnits="userSpaceOnUse" id="color-17"><stop offset="0" stop-color="#656565"/><stop offset="1" stop-color="#404040"/></radialGradient><linearGradient x1="353.36579" y1="369.15455" x2="353.36579" y2="416.96854" gradientUnits="userSpaceOnUse" id="color-18"><stop offset="0" stop-color="#80cb83"/><stop offset="1" stop-color="#39853c"/></linearGradient><linearGradient x1="526.18323" y1="390.28451" x2="521.63684" y2="414.24973" gradientUnits="userSpaceOnUse" id="color-19"><stop offset="0" stop-color="#446b45"/><stop offset="1" stop-color="#235124"/></linearGradient><linearGradient x1="531.20247" y1="389.00063" x2="527.522" y2="413.11402" gradientUnits="userSpaceOnUse" id="color-20"><stop offset="0" stop-color="#5f9761"/><stop offset="1" stop-color="#2f6e31"/></linearGradient><linearGradient x1="531.78329" y1="387.65047" x2="531.78329" y2="412.04313" gradientUnits="userSpaceOnUse" id="color-21"><stop offset="0" stop-color="#80cb83"/><stop offset="1" stop-color="#39853c"/></linearGradient><linearGradient x1="488.22214" y1="383.01147" x2="488.22214" y2="404.44284" gradientUnits="userSpaceOnUse" id="color-22"><stop offset="0" stop-color="#80cb83"/><stop offset="1" stop-color="#39853c"/></linearGradient><linearGradient x1="484.81188" y1="390.07508" x2="484.81188" y2="424.64183" gradientUnits="userSpaceOnUse" id="color-23"><stop offset="0" stop-color="#80cb83"/><stop offset="1" stop-color="#39853c"/></linearGradient><linearGradient x1="83.7743" y1="380.01611" x2="83.7743" y2="393.13489" gradientUnits="userSpaceOnUse" id="color-24"><stop offset="0" stop-color="#0f0f0f"/><stop offset="1" stop-color="#737373"/></linearGradient><linearGradient x1="83.59886" y1="394.98177" x2="83.59886" y2="408.02059" gradientUnits="userSpaceOnUse" id="color-25"><stop offset="0" stop-color="#0f0f0f"/><stop offset="1" stop-color="#737373"/></linearGradient><linearGradient x1="42.18109" y1="379.61196" x2="42.18109" y2="392.65078" gradientUnits="userSpaceOnUse" id="color-26"><stop offset="0" stop-color="#0f0f0f"/><stop offset="1" stop-color="#737373"/></linearGradient><linearGradient x1="42.11203" y1="394.49853" x2="42.11203" y2="407.61734" gradientUnits="userSpaceOnUse" id="color-27"><stop offset="0" stop-color="#0f0f0f"/><stop offset="1" stop-color="#737373"/></linearGradient><linearGradient x1="63.21804" y1="404.81754" x2="63.21804" y2="410.64055" gradientUnits="userSpaceOnUse" id="color-28"><stop offset="0" stop-color="#595959"/><stop offset="1" stop-color="#afafaf"/></linearGradient><linearGradient x1="63.0986" y1="377.38776" x2="63.0986" y2="383.21076" gradientUnits="userSpaceOnUse" id="color-29"><stop offset="0" stop-color="#afafaf"/><stop offset="1" stop-color="#595959"/></linearGradient><linearGradient x1="63.10951" y1="389.71201" x2="63.10951" y2="397.89802" gradientUnits="userSpaceOnUse" id="color-30"><stop offset="0" stop-color="#afafaf"/><stop offset="1" stop-color="#595959"/></linearGradient><radialGradient cx="28.09625" cy="392.10806" r="8.43052" gradientUnits="userSpaceOnUse" id="color-31"><stop offset="0" stop-color="#656565"/><stop offset="1" stop-color="#404040"/></radialGradient><linearGradient x1="58.11995" y1="369.15455" x2="58.11995" y2="416.96854" gradientUnits="userSpaceOnUse" id="color-32"><stop offset="0" stop-color="#80cb83"/><stop offset="1" stop-color="#39853c"/></linearGradient><linearGradient x1="156.19123" y1="380.01611" x2="156.19123" y2="393.13489" gradientUnits="userSpaceOnUse" id="color-33"><stop offset="0" stop-color="#0f0f0f"/><stop offset="1" stop-color="#737373"/></linearGradient><linearGradient x1="156.01575" y1="394.98177" x2="156.01575" y2="408.02059" gradientUnits="userSpaceOnUse" id="color-34"><stop offset="0" stop-color="#0f0f0f"/><stop offset="1" stop-color="#737373"/></linearGradient><linearGradient x1="114.59803" y1="379.61196" x2="114.59803" y2="392.65078" gradientUnits="userSpaceOnUse" id="color-35"><stop offset="0" stop-color="#0f0f0f"/><stop offset="1" stop-color="#737373"/></linearGradient><linearGradient x1="114.52894" y1="394.49853" x2="114.52894" y2="407.61734" gradientUnits="userSpaceOnUse" id="color-36"><stop offset="0" stop-color="#0f0f0f"/><stop offset="1" stop-color="#737373"/></linearGradient><linearGradient x1="135.63495" y1="404.81754" x2="135.63495" y2="410.64055" gradientUnits="userSpaceOnUse" id="color-37"><stop offset="0" stop-color="#595959"/><stop offset="1" stop-color="#afafaf"/></linearGradient><linearGradient x1="135.51552" y1="377.38776" x2="135.51552" y2="383.21076" gradientUnits="userSpaceOnUse" id="color-38"><stop offset="0" stop-color="#afafaf"/><stop offset="1" stop-color="#595959"/></linearGradient><linearGradient x1="135.5264" y1="389.71201" x2="135.5264" y2="397.89802" gradientUnits="userSpaceOnUse" id="color-39"><stop offset="0" stop-color="#afafaf"/><stop offset="1" stop-color="#595959"/></linearGradient><radialGradient cx="100.51314" cy="392.10806" r="8.43052" gradientUnits="userSpaceOnUse" id="color-40"><stop offset="0" stop-color="#656565"/><stop offset="1" stop-color="#404040"/></radialGradient><linearGradient x1="130.53686" y1="369.15455" x2="130.53686" y2="416.96854" gradientUnits="userSpaceOnUse" id="color-41"><stop offset="0" stop-color="#80cb83"/><stop offset="1" stop-color="#39853c"/></linearGradient><linearGradient x1="-42.28057" y1="390.28451" x2="-37.73419" y2="414.24973" gradientUnits="userSpaceOnUse" id="color-42"><stop offset="0" stop-color="#446b45"/><stop offset="1" stop-color="#235124"/></linearGradient><linearGradient x1="-47.29981" y1="389.00063" x2="-43.61934" y2="413.11402" gradientUnits="userSpaceOnUse" id="color-43"><stop offset="0" stop-color="#5f9761"/><stop offset="1" stop-color="#2f6e31"/></linearGradient><linearGradient x1="-47.88064" y1="387.65047" x2="-47.88064" y2="412.04313" gradientUnits="userSpaceOnUse" id="color-44"><stop offset="0" stop-color="#80cb83"/><stop offset="1" stop-color="#39853c"/></linearGradient><linearGradient x1="-4.3195" y1="383.01147" x2="-4.3195" y2="404.44284" gradientUnits="userSpaceOnUse" id="color-45"><stop offset="0" stop-color="#80cb83"/><stop offset="1" stop-color="#39853c"/></linearGradient><linearGradient x1="-0.90924" y1="390.07508" x2="-0.90924" y2="424.64183" gradientUnits="userSpaceOnUse" id="color-46"><stop offset="0" stop-color="#80cb83"/><stop offset="1" stop-color="#39853c"/></linearGradient><linearGradient x1="235.4898" y1="345.56829" x2="244.35213" y2="345.56829" gradientUnits="userSpaceOnUse" id="color-47"><stop offset="0" stop-color="#afafaf"/><stop offset="1" stop-color="#595959"/></linearGradient><linearGradient x1="242.16955" y1="405.92767" x2="242.16955" y2="416.23777" gradientUnits="userSpaceOnUse" id="color-48"><stop offset="0" stop-color="#afafaf"/><stop offset="1" stop-color="#595959"/></linearGradient><linearGradient x1="196.37271" y1="402.29961" x2="196.37271" y2="419.91269" gradientUnits="userSpaceOnUse" id="color-49"><stop offset="0" stop-color="#7c7c7c"/><stop offset="1" stop-color="#111111"/></linearGradient><linearGradient x1="212.95093" y1="402.97155" x2="212.95093" y2="420.58463" gradientUnits="userSpaceOnUse" id="color-50"><stop offset="0" stop-color="#7c7c7c"/><stop offset="1" stop-color="#111111"/></linearGradient><linearGradient x1="270.83477" y1="402.48793" x2="270.83477" y2="420.10101" gradientUnits="userSpaceOnUse" id="color-51"><stop offset="0" stop-color="#7c7c7c"/><stop offset="1" stop-color="#111111"/></linearGradient><linearGradient x1="287.41299" y1="403.15987" x2="287.41299" y2="420.77296" gradientUnits="userSpaceOnUse" id="color-52"><stop offset="0" stop-color="#7c7c7c"/><stop offset="1" stop-color="#111111"/></linearGradient><linearGradient x1="242.16955" y1="433.02575" x2="242.16955" y2="443.33585" gradientUnits="userSpaceOnUse" id="color-53"><stop offset="0" stop-color="#afafaf"/><stop offset="1" stop-color="#595959"/></linearGradient><linearGradient x1="200.46753" y1="429.39769" x2="200.46753" y2="447.01077" gradientUnits="userSpaceOnUse" id="color-54"><stop offset="0" stop-color="#7c7c7c"/><stop offset="1" stop-color="#111111"/></linearGradient><linearGradient x1="215.56344" y1="430.06963" x2="215.56344" y2="447.68271" gradientUnits="userSpaceOnUse" id="color-55"><stop offset="0" stop-color="#7c7c7c"/><stop offset="1" stop-color="#111111"/></linearGradient><linearGradient x1="268.27173" y1="429.58601" x2="268.27173" y2="447.19909" gradientUnits="userSpaceOnUse" id="color-56"><stop offset="0" stop-color="#7c7c7c"/><stop offset="1" stop-color="#111111"/></linearGradient><linearGradient x1="283.36768" y1="430.25795" x2="283.36768" y2="447.87103" gradientUnits="userSpaceOnUse" id="color-57"><stop offset="0" stop-color="#7c7c7c"/><stop offset="1" stop-color="#111111"/></linearGradient><linearGradient x1="242.16955" y1="460.12385" x2="242.16955" y2="470.43395" gradientUnits="userSpaceOnUse" id="color-58"><stop offset="0" stop-color="#afafaf"/><stop offset="1" stop-color="#595959"/></linearGradient><linearGradient x1="205.58606" y1="456.49579" x2="205.58606" y2="474.10885" gradientUnits="userSpaceOnUse" id="color-59"><stop offset="0" stop-color="#7c7c7c"/><stop offset="1" stop-color="#111111"/></linearGradient><linearGradient x1="218.82909" y1="457.16773" x2="218.82909" y2="474.78081" gradientUnits="userSpaceOnUse" id="color-60"><stop offset="0" stop-color="#7c7c7c"/><stop offset="1" stop-color="#111111"/></linearGradient><linearGradient x1="265.06795" y1="456.68411" x2="265.06795" y2="474.29719" gradientUnits="userSpaceOnUse" id="color-61"><stop offset="0" stop-color="#7c7c7c"/><stop offset="1" stop-color="#111111"/></linearGradient><linearGradient x1="278.31097" y1="457.35605" x2="278.31097" y2="474.96913" gradientUnits="userSpaceOnUse" id="color-62"><stop offset="0" stop-color="#7c7c7c"/><stop offset="1" stop-color="#111111"/></linearGradient><linearGradient x1="229.0842" y1="448.64482" x2="252.60838" y2="448.64482" gradientUnits="userSpaceOnUse" id="color-63"><stop offset="0" stop-color="#afafaf"/><stop offset="1" stop-color="#595959"/></linearGradient><linearGradient x1="241.36713" y1="391.4948" x2="241.36713" y2="396.91443" gradientUnits="userSpaceOnUse" id="color-64"><stop offset="0" stop-color="#afafaf"/><stop offset="1" stop-color="#595959"/></linearGradient><radialGradient cx="315.4352" cy="392.09697" r="8.43052" gradientUnits="userSpaceOnUse" id="color-65"><stop offset="0" stop-color="#656565"/><stop offset="1" stop-color="#404040"/></radialGradient><linearGradient x1="240.68554" y1="387.95006" x2="240.68554" y2="401.19801" gradientUnits="userSpaceOnUse" id="color-66"><stop offset="0" stop-color="#595959"/><stop offset="1" stop-color="#393939"/></linearGradient><radialGradient cx="170.91209" cy="392.09697" r="8.43052" gradientUnits="userSpaceOnUse" id="color-67"><stop offset="0" stop-color="#656565"/><stop offset="1" stop-color="#404040"/></radialGradient><linearGradient x1="228.65572" y1="518.93819" x2="253.07814" y2="518.93819" gradientUnits="userSpaceOnUse" id="color-68"><stop offset="0" stop-color="#595959"/><stop offset="1" stop-color="#393939"/></linearGradient><linearGradient x1="226.80499" y1="510.60994" x2="254.92885" y2="510.60994" gradientUnits="userSpaceOnUse" id="color-69"><stop offset="0" stop-color="#393939"/><stop offset="1" stop-color="#151515"/></linearGradient><linearGradient x1="226.80499" y1="520.32624" x2="254.92885" y2="520.32624" gradientUnits="userSpaceOnUse" id="color-70"><stop offset="0" stop-color="#393939"/><stop offset="1" stop-color="#151515"/></linearGradient><radialGradient cx="174.68983" cy="381.03012" r="20.42536" gradientUnits="userSpaceOnUse" id="color-71"><stop offset="0" stop-color="#80cb83"/><stop offset="1" stop-color="#39853c"/></radialGradient><radialGradient cx="308.47312" cy="381.03012" r="20.42536" gradientUnits="userSpaceOnUse" id="color-72"><stop offset="0" stop-color="#80cb83"/><stop offset="1" stop-color="#39853c"/></radialGradient><linearGradient x1="241.23137" y1="361.64366" x2="241.23137" y2="532.66123" gradientUnits="userSpaceOnUse" id="color-73"><stop offset="0" stop-color="#80cb83"/><stop offset="1" stop-color="#39853c"/></linearGradient><radialGradient cx="251.82769" cy="416.52954" r="72.24237" gradientUnits="userSpaceOnUse" id="color-74"><stop offset="0" stop-color="#bef3c0"/><stop offset="1" stop-color="#9ecba0"/></radialGradient><radialGradient cx="237.31165" cy="394.536" r="19.19085" gradientUnits="userSpaceOnUse" id="color-75"><stop offset="0" stop-color="#650000"/><stop offset="1" stop-color="#900000"/></radialGradient><radialGradient cx="245.84363" cy="394.536" r="19.19085" gradientUnits="userSpaceOnUse" id="color-76"><stop offset="0" stop-color="#650000"/><stop offset="1" stop-color="#900000"/></radialGradient><radialGradient cx="241.99724" cy="394.12906" r="11.32124" gradientUnits="userSpaceOnUse" id="color-77"><stop offset="0" stop-color="#c20000"/><stop offset="1" stop-color="#900000"/></radialGradient><linearGradient x1="232.82299" y1="421.92055" x2="250.25574" y2="421.92055" gradientUnits="userSpaceOnUse" id="color-78"><stop offset="0" stop-color="#383838"/><stop offset="1" stop-color="#0a0a0a"/></linearGradient><linearGradient x1="232.82299" y1="421.92055" x2="250.25574" y2="421.92055" gradientUnits="userSpaceOnUse" id="color-79"><stop offset="0" stop-color="#0a0a0a"/><stop offset="1" stop-color="#383838"/></linearGradient><linearGradient x1="232.82299" y1="448.932" x2="250.25574" y2="448.932" gradientUnits="userSpaceOnUse" id="color-80"><stop offset="0" stop-color="#383838"/><stop offset="1" stop-color="#0a0a0a"/></linearGradient><linearGradient x1="232.82299" y1="448.932" x2="250.25574" y2="448.932" gradientUnits="userSpaceOnUse" id="color-81"><stop offset="0" stop-color="#0a0a0a"/><stop offset="1" stop-color="#383838"/></linearGradient><linearGradient x1="240.79782" y1="311.25829" x2="240.79782" y2="380.7837" gradientUnits="userSpaceOnUse" id="color-82"><stop offset="0" stop-color="#80cb83"/><stop offset="1" stop-color="#39853c"/></linearGradient><linearGradient x1="240.79782" y1="350.80424" x2="240.79782" y2="391.96841" gradientUnits="userSpaceOnUse" id="color-83"><stop offset="0" stop-color="#80cb83"/><stop offset="1" stop-color="#39853c"/></linearGradient><linearGradient x1="240.52973" y1="311.4395" x2="240.52973" y2="376.07112" gradientUnits="userSpaceOnUse" id="color-84"><stop offset="0" stop-color="#330000"/><stop offset="1" stop-color="#9c0000"/></linearGradient><linearGradient x1="240.30694" y1="325.32456" x2="240.30694" y2="327.11046" gradientUnits="userSpaceOnUse" id="color-85"><stop offset="0" stop-color="#898989"/><stop offset="1" stop-color="#2e2e2e"/></linearGradient><linearGradient x1="240.27062" y1="331.29634" x2="240.27062" y2="343.65928" gradientUnits="userSpaceOnUse" id="color-86"><stop offset="0" stop-color="#8a8a8a"/><stop offset="1" stop-color="#0f0f0f"/></linearGradient><linearGradient x1="240.27062" y1="330.16439" x2="240.27062" y2="342.52733" gradientUnits="userSpaceOnUse" id="color-87"><stop offset="0" stop-color="#898989"/><stop offset="1" stop-color="#2e2e2e"/></linearGradient><linearGradient x1="240.30684" y1="249.91666" x2="240.30684" y2="254.43844" gradientUnits="userSpaceOnUse" id="color-88"><stop offset="0" stop-color="#afafaf"/><stop offset="1" stop-color="#7a7a7a"/></linearGradient><linearGradient x1="199.97878" y1="246.10497" x2="199.97878" y2="296.02034" gradientUnits="userSpaceOnUse" id="color-89"><stop offset="0" stop-color="#afafaf"/><stop offset="1" stop-color="#7a7a7a"/></linearGradient><linearGradient x1="280.50285" y1="246.10497" x2="280.50285" y2="296.02034" gradientUnits="userSpaceOnUse" id="color-90"><stop offset="0" stop-color="#afafaf"/><stop offset="1" stop-color="#7a7a7a"/></linearGradient><linearGradient x1="240.47495" y1="277.77816" x2="240.47495" y2="316.66089" gradientUnits="userSpaceOnUse" id="color-91"><stop offset="0" stop-color="#424242"/><stop offset="1" stop-color="#000000"/></linearGradient><linearGradient x1="240.00585" y1="266.57431" x2="240.00585" y2="272.45383" gradientUnits="userSpaceOnUse" id="color-92"><stop offset="0" stop-color="#b8b8b8"/><stop offset="1" stop-color="#313131"/></linearGradient><radialGradient cx="216.21337" cy="269.60183" r="19.5951" gradientUnits="userSpaceOnUse" id="color-93"><stop offset="0" stop-color="#ffffff"/><stop offset="1" stop-color="#cccccc"/></radialGradient><radialGradient cx="263.81496" cy="269.60183" r="19.5951" gradientUnits="userSpaceOnUse" id="color-94"><stop offset="0" stop-color="#ffffff"/><stop offset="1" stop-color="#cccccc"/></radialGradient><linearGradient x1="240.09822" y1="247.6043" x2="239.83454" y2="298.52322" gradientUnits="userSpaceOnUse" id="color-95"><stop offset="0" stop-color="#9d9d9d"/><stop offset="1" stop-color="#6e6e6e"/></linearGradient><linearGradient x1="250.61237" y1="296.77381" x2="250.61237" y2="328.22378" gradientUnits="userSpaceOnUse" id="color-96"><stop offset="0" stop-color="#afafaf"/><stop offset="1" stop-color="#595959"/></linearGradient><linearGradient x1="230.10151" y1="296.77381" x2="230.10151" y2="328.22378" gradientUnits="userSpaceOnUse" id="color-97"><stop offset="0" stop-color="#afafaf"/><stop offset="1" stop-color="#595959"/></linearGradient><linearGradient x1="288.93558" y1="266.62109" x2="288.58131" y2="300.275" gradientUnits="userSpaceOnUse" id="color-98"><stop offset="0" stop-color="#afafaf"/><stop offset="1" stop-color="#595959"/></linearGradient><linearGradient x1="184.39834" y1="232.33575" x2="186.749" y2="230.00602" gradientUnits="userSpaceOnUse" id="color-99"><stop offset="0" stop-color="#d3d3d3"/><stop offset="1" stop-color="#868686"/></linearGradient><linearGradient x1="146.05107" y1="190.69557" x2="182.07669" y2="227.0452" gradientUnits="userSpaceOnUse" id="color-100"><stop offset="0" stop-color="#80cb83"/><stop offset="1" stop-color="#39853c"/></linearGradient><radialGradient cx="166.21297" cy="211.6102" r="22.89506" gradientUnits="userSpaceOnUse" id="color-101"><stop offset="0" stop-color="#bef3c0"/><stop offset="1" stop-color="#7da17f"/></radialGradient><radialGradient cx="199.97878" cy="245.68053" r="3.14093" gradientUnits="userSpaceOnUse" id="color-102"><stop offset="0" stop-color="#a9a9a9"/><stop offset="1" stop-color="#5d5d5d"/></radialGradient><linearGradient x1="296.08333" y1="232.33575" x2="293.73267" y2="230.00602" gradientUnits="userSpaceOnUse" id="color-103"><stop offset="0" stop-color="#d3d3d3"/><stop offset="1" stop-color="#868686"/></linearGradient><linearGradient x1="334.4306" y1="190.69557" x2="298.40498" y2="227.0452" gradientUnits="userSpaceOnUse" id="color-104"><stop offset="0" stop-color="#80cb83"/><stop offset="1" stop-color="#39853c"/></linearGradient><radialGradient cx="314.2687" cy="211.6102" r="22.89506" gradientUnits="userSpaceOnUse" id="color-105"><stop offset="0" stop-color="#bef3c0"/><stop offset="1" stop-color="#7da17f"/></radialGradient><radialGradient cx="280.50285" cy="245.68053" r="3.14093" gradientUnits="userSpaceOnUse" id="color-106"><stop offset="0" stop-color="#a9a9a9"/><stop offset="1" stop-color="#5d5d5d"/></radialGradient><linearGradient x1="239.9685" y1="217.84009" x2="239.9685" y2="320.39161" gradientUnits="userSpaceOnUse" id="color-107"><stop offset="0" stop-color="#80cb83"/><stop offset="1" stop-color="#39853c"/></linearGradient><linearGradient x1="166.05361" y1="287.12792" x2="160.76858" y2="310.97174" gradientUnits="userSpaceOnUse" id="color-108"><stop offset="0" stop-color="#bef3c0"/><stop offset="1" stop-color="#9ecba0"/></linearGradient><linearGradient x1="164.76296" y1="295.37548" x2="162.57944" y2="319.70021" gradientUnits="userSpaceOnUse" id="color-109"><stop offset="0" stop-color="#bef3c0"/><stop offset="1" stop-color="#9ecba0"/></linearGradient><linearGradient x1="161.31888" y1="303.08818" x2="162.99613" y2="327.45306" gradientUnits="userSpaceOnUse" id="color-110"><stop offset="0" stop-color="#bef3c0"/><stop offset="1" stop-color="#9ecba0"/></linearGradient><linearGradient x1="162.41455" y1="311.36393" x2="167.20262" y2="335.31251" gradientUnits="userSpaceOnUse" id="color-111"><stop offset="0" stop-color="#bef3c0"/><stop offset="1" stop-color="#9ecba0"/></linearGradient><linearGradient x1="161.73486" y1="318.00795" x2="171.62699" y2="340.33744" gradientUnits="userSpaceOnUse" id="color-112"><stop offset="0" stop-color="#bef3c0"/><stop offset="1" stop-color="#9ecba0"/></linearGradient><linearGradient x1="311.64756" y1="287.12792" x2="316.93262" y2="310.97174" gradientUnits="userSpaceOnUse" id="color-113"><stop offset="0" stop-color="#bef3c0"/><stop offset="1" stop-color="#9ecba0"/></linearGradient><linearGradient x1="312.93821" y1="295.37548" x2="315.12169" y2="319.70021" gradientUnits="userSpaceOnUse" id="color-114"><stop offset="0" stop-color="#bef3c0"/><stop offset="1" stop-color="#9ecba0"/></linearGradient><linearGradient x1="316.38231" y1="303.08818" x2="314.70502" y2="327.45306" gradientUnits="userSpaceOnUse" id="color-115"><stop offset="0" stop-color="#bef3c0"/><stop offset="1" stop-color="#9ecba0"/></linearGradient><linearGradient x1="315.28658" y1="311.36393" x2="310.49851" y2="335.31251" gradientUnits="userSpaceOnUse" id="color-116"><stop offset="0" stop-color="#bef3c0"/><stop offset="1" stop-color="#9ecba0"/></linearGradient><linearGradient x1="315.96632" y1="318.00795" x2="306.07418" y2="340.33744" gradientUnits="userSpaceOnUse" id="color-117"><stop offset="0" stop-color="#bef3c0"/><stop offset="1" stop-color="#9ecba0"/></linearGradient><radialGradient cx="225.76445" cy="302.58609" r="31.572" gradientUnits="userSpaceOnUse" id="color-118"><stop offset="0" stop-color="#bef3c0"/><stop offset="1" stop-color="#9ecba0"/></radialGradient><radialGradient cx="276.6948" cy="300.25593" r="31.572" gradientUnits="userSpaceOnUse" id="color-119"><stop offset="0" stop-color="#bef3c0"/><stop offset="1" stop-color="#9ecba0"/></radialGradient><radialGradient cx="241.88264" cy="288.76532" r="9.12854" gradientUnits="userSpaceOnUse" id="color-120"><stop offset="0" stop-color="#858585"/><stop offset="1" stop-color="#000000"/></radialGradient></defs><g transform="translate(68.37549,-186.08655)"><g data-paper-data="{&quot;isPaintingLayer&quot;:true}" fill-rule="nonzero" stroke-linecap="butt" stroke-linejoin="miter" stroke-miterlimit="10" stroke-dasharray="" stroke-dashoffset="0" style="mix-blend-mode: normal"><path d="M305.47947,450.41624c-3.38034,35.95248 -5.12959,41.5829 -8.47236,58.61598c-4.96623,25.30547 -55.32993,23.45043 -55.32993,23.45043c0,0 -50.73137,3.49311 -55.60935,-25.57149c-2.43505,-14.50885 -6.78413,-30.1871 -8.21787,-57.24978c-1.43374,-27.06271 -11.65725,-86.85482 61.56197,-87.99664c69.31282,-1.0809 69.90884,47.89615 66.06751,88.75152z" data-paper-data="{&quot;index&quot;:null}" fill="#484848" stroke="#000000" stroke-width="0"/><g data-paper-data="{&quot;index&quot;:null}" stroke="none"><path d="M396.61326,373.69079c7.32682,-5.27785 50.81768,-0.38124 57.92636,3.81524c3.24498,1.91564 3.72225,30.71639 0.4268,32.78842c-7.1674,4.50648 -52.69305,8.43771 -58.70809,3.3507c-6.01504,-5.08699 -6.97189,-34.67652 0.35493,-39.95437z" fill="#484848" stroke-width="0"/><g><g><path d="M389.42884,391.1297c0.74666,-1.86669 2.61335,-1.12001 2.61335,-1.12001l1.40061,0.62159c2.543,0.3634 5.00406,0.76775 7.47674,1.18346c1.60636,-1.73477 3.20983,-3.84087 5.47747,-5.07936c3.1038,-1.69514 9.01164,-0.69773 12.29042,-0.14171c1.61194,0.69303 2.92706,1.44624 4.09069,2.33305c5.59505,-2.43777 11.48802,-4.34179 17.57608,-2.31561c2.41256,0.80292 4.12544,2.17996 5.81,3.67671c2.6459,-0.26212 5.5769,0.68239 8.05727,1.09578c0,0 1.98313,0.33051 1.6526,2.31364c-0.33051,1.98313 -2.31364,1.6526 -2.31364,1.6526c-0.96035,-0.16006 -2.25456,-0.5431 -3.57433,-0.82519c-0.00691,0.36754 -0.13771,0.77953 -0.48669,1.21578c-1.25594,1.56993 -2.82586,0.31399 -2.82586,0.31399c-0.52822,-0.42668 -1.02202,-0.87103 -1.50211,-1.31712c-4.73974,2.42668 -8.52063,8.899 -14.84309,7.29277c-4.04449,-1.02752 -5.93025,-5.04482 -8.56863,-8.20892c-1.34135,0.6288 -2.66058,1.24142 -3.95513,1.76253c-4.04196,1.62702 -8.97885,0.91503 -13.26157,0.90444c-0.53521,-0.08906 -1.06714,-0.1781 -1.59682,-0.26692c-0.47136,0.52169 -0.97059,0.99326 -1.52312,1.37752c-3.22811,2.24501 -7.928,1.24016 -10.96765,-0.54252l-2.03122,-0.66443c0,0 -1.90731,-0.63575 -1.27154,-2.54306c0.46265,-1.38794 1.59863,-1.42921 2.183,-1.34878c-0.11992,-0.3655 -0.12731,-0.81906 0.09317,-1.37027zM439.11071,390.43494c-4.54792,-1.51918 -8.98664,-0.28279 -13.24088,1.51709c0.44028,0.53153 0.87856,1.10227 1.32701,1.71835c1.1001,1.51133 1.99775,3.9494 4.0553,4.44628c3.92076,0.94685 7.59142,-3.58346 10.85738,-6.08572c-0.87798,-0.65163 -1.84336,-1.21003 -2.99882,-1.596zM416.2041,391.89495c0.73961,-0.32138 1.48571,-0.65862 2.23806,-1.00271c-0.28325,-0.16142 -0.57789,-0.30868 -0.88537,-0.43986c-2.09088,-0.33972 -7.44686,-1.34784 -9.3199,-0.14171c-0.90107,0.58025 -1.65893,1.34989 -2.35672,2.18713c3.31649,0.10943 7.39453,0.67006 10.32395,-0.60286z" fill="#000000" stroke-width="0.5"/><path d="M397.74074,393.13491l-1.82628,-0.99436l6.60146,-12.12445l1.82628,0.99434z" fill="url(#color-1)" stroke-width="0"/><path d="M404.60825,406.99643l-1.80973,1.02416l-6.79919,-12.01466l1.80973,-1.02416z" data-paper-data="{&quot;index&quot;:null}" fill="url(#color-2)" stroke-width="0"/><path d="M437.41708,380.63612l1.80973,-1.02416l6.79919,12.01466l-1.80973,1.02416z" data-paper-data="{&quot;index&quot;:null}" fill="url(#color-3)" stroke-width="0"/><path d="M444.17822,394.49853l1.82626,0.99436l-6.60144,12.12445l-1.82628,-0.99436z" data-paper-data="{&quot;index&quot;:null}" fill="url(#color-4)" stroke-width="0"/><path d="M443.96869,410.25945l-46.52355,0.3811l-0.0446,-5.4419l46.52355,-0.3811z" fill="url(#color-5)" stroke-width="0"/><path d="M444.08813,382.82966l-46.52355,0.3811l-0.0446,-5.4419l46.52355,-0.3811z" fill="url(#color-6)" stroke-width="0"/><path d="M453.52602,397.36226l-65.40302,0.53577l-0.06267,-7.65024l65.40302,-0.53577z" fill="url(#color-7)" stroke-width="0"/></g><path d="M457.61292,385.48409c4.32347,0 7.82832,3.77446 7.82832,8.43052c0,4.65606 -3.50485,8.43052 -7.82832,8.43052c-4.32347,0 -7.82834,-3.77446 -7.82834,-8.43052c0,-4.65606 3.50487,-8.43052 7.82834,-8.43052z" fill="url(#color-8)" stroke-width="0"/></g><path d="M396.61326,373.69079c7.32682,-5.27785 50.81768,-0.38124 57.92636,3.81524c3.24498,1.91564 3.72225,30.71639 0.4268,32.78842c-7.1674,4.50648 -52.69305,8.43771 -58.70809,3.3507c-6.01504,-5.08699 -6.97189,-34.67652 0.35493,-39.95437z" fill="url(#color-9)" stroke-width="0"/></g><g data-paper-data="{&quot;index&quot;:null}" stroke="none"><path d="M324.19633,373.69079c7.32682,-5.27785 50.81768,-0.38124 57.92636,3.81524c3.24498,1.91564 3.72225,30.71639 0.4268,32.78842c-7.1674,4.50648 -52.69305,8.43771 -58.70809,3.3507c-6.01504,-5.08699 -6.97189,-34.67652 0.35493,-39.95437z" fill="#484848" stroke-width="0"/><g><g><path d="M317.01193,391.1297c0.74666,-1.86669 2.61335,-1.12001 2.61335,-1.12001l1.40061,0.62159c2.543,0.3634 5.00406,0.76775 7.47674,1.18346c1.60636,-1.73477 3.20983,-3.84087 5.47747,-5.07936c3.1038,-1.69514 9.01164,-0.69773 12.29042,-0.14171c1.61194,0.69303 2.92706,1.44624 4.09069,2.33305c5.59505,-2.43777 11.48802,-4.34179 17.57608,-2.31561c2.41256,0.80292 4.12544,2.17996 5.81,3.67671c2.6459,-0.26212 5.5769,0.68239 8.05727,1.09578c0,0 1.98313,0.33051 1.6526,2.31364c-0.33051,1.98313 -2.31364,1.6526 -2.31364,1.6526c-0.96035,-0.16006 -2.25456,-0.5431 -3.57433,-0.82519c-0.00691,0.36754 -0.13771,0.77953 -0.48669,1.21578c-1.25594,1.56993 -2.82586,0.31399 -2.82586,0.31399c-0.52822,-0.42668 -1.02202,-0.87103 -1.50211,-1.31712c-4.73974,2.42668 -8.52063,8.899 -14.84309,7.29277c-4.04449,-1.02752 -5.93025,-5.04482 -8.56863,-8.20892c-1.34135,0.6288 -2.66058,1.24142 -3.95513,1.76253c-4.04196,1.62702 -8.97885,0.91503 -13.26157,0.90444c-0.53521,-0.08906 -1.06714,-0.1781 -1.59682,-0.26692c-0.47136,0.52169 -0.97059,0.99326 -1.52312,1.37752c-3.22811,2.24501 -7.928,1.24016 -10.96765,-0.54252l-2.03122,-0.66443c0,0 -1.90731,-0.63575 -1.27154,-2.54306c0.46265,-1.38794 1.59863,-1.42921 2.183,-1.34878c-0.11992,-0.3655 -0.12731,-0.81906 0.09317,-1.37027zM366.69382,390.43494c-4.54792,-1.51918 -8.98664,-0.28279 -13.24088,1.51709c0.44028,0.53153 0.87856,1.10227 1.32701,1.71835c1.1001,1.51133 1.99775,3.9494 4.0553,4.44628c3.92076,0.94685 7.59142,-3.58346 10.85738,-6.08572c-0.87798,-0.65163 -1.84336,-1.21003 -2.99882,-1.596zM343.78719,391.89495c0.73961,-0.32138 1.48571,-0.65862 2.23806,-1.00271c-0.28325,-0.16142 -0.57789,-0.30868 -0.88537,-0.43986c-2.09088,-0.33972 -7.44686,-1.34784 -9.3199,-0.14171c-0.90107,0.58025 -1.65893,1.34989 -2.35672,2.18713c3.31649,0.10943 7.39453,0.67006 10.32395,-0.60286z" fill="#000000" stroke-width="0.5"/><path d="M325.32384,393.13491l-1.82628,-0.99436l6.60146,-12.12445l1.82628,0.99434z" fill="url(#color-10)" stroke-width="0"/><path d="M332.19136,406.99643l-1.80973,1.02416l-6.79919,-12.01466l1.80973,-1.02416z" data-paper-data="{&quot;index&quot;:null}" fill="url(#color-11)" stroke-width="0"/><path d="M365.00019,380.63612l1.80973,-1.02416l6.79919,12.01466l-1.80973,1.02416z" data-paper-data="{&quot;index&quot;:null}" fill="url(#color-12)" stroke-width="0"/><path d="M371.76131,394.49853l1.82626,0.99436l-6.60144,12.12445l-1.82628,-0.99436z" data-paper-data="{&quot;index&quot;:null}" fill="url(#color-13)" stroke-width="0"/><path d="M371.5518,410.25945l-46.52355,0.3811l-0.0446,-5.4419l46.52355,-0.3811z" fill="url(#color-14)" stroke-width="0"/><path d="M371.67119,382.82966l-46.52355,0.3811l-0.0446,-5.4419l46.52355,-0.3811z" fill="url(#color-15)" stroke-width="0"/><path d="M381.10911,397.36226l-65.40302,0.53577l-0.06267,-7.65024l65.40302,-0.53577z" fill="url(#color-16)" stroke-width="0"/></g><path d="M385.19603,385.48409c4.32347,0 7.82832,3.77446 7.82832,8.43052c0,4.65606 -3.50485,8.43052 -7.82832,8.43052c-4.32347,0 -7.82834,-3.77446 -7.82834,-8.43052c0,-4.65606 3.50487,-8.43052 7.82834,-8.43052z" fill="url(#color-17)" stroke-width="0"/></g><path d="M324.19633,373.69079c7.32682,-5.27785 50.81768,-0.38124 57.92636,3.81524c3.24498,1.91564 3.72225,30.71639 0.4268,32.78842c-7.1674,4.50648 -52.69305,8.43771 -58.70809,3.3507c-6.01504,-5.08699 -6.97189,-34.67652 0.35493,-39.95437z" fill="url(#color-18)" stroke-width="0"/></g><g data-paper-data="{&quot;index&quot;:null}" stroke="none" stroke-width="0"><path d="M513.12534,387.8083c5.60602,1.01867 11.99333,3.75645 17.95967,8.7372c5.29812,4.42289 8.66344,7.48627 10.60109,9.77706c1.2746,1.5069 1.89457,6.17268 0.30952,8.39217c-2.04337,2.86121 -6.82231,2.98176 -8.8378,0.93251c-2.02559,-2.05952 -5.2983,-5.41749 -11.19346,-10.33883c-5.35632,-4.47149 -9.58446,-5.80838 -12.93722,-6.00719c-6.85707,-0.40662 -5.62174,-13.25912 4.0982,-11.49291z" data-paper-data="{&quot;index&quot;:null}" fill="url(#color-19)"/><path d="M518.06389,386.99621c5.63905,0.81616 12.12081,3.32216 18.26264,8.08483c5.45394,4.22926 8.92738,7.16946 10.94628,9.38899c1.32802,1.46002 2.11563,6.10044 0.6115,8.37557c-1.93903,2.93293 -6.71053,3.22551 -8.79849,1.25015c-2.09843,-1.98527 -5.48994,-5.2232 -11.5585,-9.92907c-5.51386,-4.2757 -9.78738,-5.4595 -13.14513,-5.53745c-6.86727,-0.15942 -6.09555,-13.04808 3.68171,-11.63304z" data-paper-data="{&quot;index&quot;:null}" fill="url(#color-20)"/><path d="M518.49268,387.65141c5.69763,-0.04404 12.4833,1.45525 19.27343,5.23672c6.02964,3.35791 9.90694,5.74037 12.23761,7.62989c1.53312,1.24292 3.01184,5.71139 1.86823,8.18743c-1.4743,3.19192 -6.147,4.20108 -8.50913,2.5634c-2.37396,-1.64591 -6.21516,-4.33505 -12.92429,-8.07139c-6.09587,-3.3948 -10.49909,-3.92022 -13.83016,-3.49065c-6.81269,0.87856 -7.99449,-11.97899 1.8843,-12.05536z" data-paper-data="{&quot;index&quot;:null}" fill="url(#color-21)"/><path d="M471.98603,383.2812c16.17823,0 44.51425,-2.91967 44.60569,10.45283c0.09096,13.3004 -28.42744,10.45283 -44.60569,10.45283c-16.17825,0 -16.17825,-20.90566 0,-20.90566z" fill="url(#color-22)"/><path d="M492.13639,423.91456c-5.25769,-2.19584 -10.91031,-6.23823 -15.6713,-12.38138c-4.22774,-5.45512 -6.85878,-9.16823 -8.26077,-11.8209c-0.92224,-1.74493 -0.52842,-6.43522 1.4953,-8.26366c2.60883,-2.3571 7.30266,-1.45122 8.83241,0.9822c1.5374,2.44562 4.01487,6.42666 8.71906,12.49652c4.2742,5.51502 8.11782,7.72658 11.35017,8.63893c6.61082,1.86597 2.65114,14.15555 -6.46486,10.34831z" data-paper-data="{&quot;index&quot;:null}" fill="url(#color-23)"/></g><g stroke="none"><path d="M87.64433,413.64516c-6.01504,5.08701 -51.54069,1.15578 -58.70809,-3.3507c-3.29546,-2.07203 -2.81819,-30.87278 0.4268,-32.78842c7.10868,-4.19648 50.59954,-9.09309 57.92636,-3.81524c7.32682,5.27785 6.36997,34.86738 0.35493,39.95437z" fill="#484848" stroke-width="0"/><g><g><path d="M94.47384,391.12968c0.22048,0.55121 0.21309,1.00477 0.09317,1.37027c0.58436,-0.08043 1.72035,-0.03917 2.183,1.34878c0.63577,1.90731 -1.27154,2.54306 -1.27154,2.54306l-2.03122,0.66443c-3.03965,1.78268 -7.73954,2.78753 -10.96765,0.54252c-0.55252,-0.38425 -1.05176,-0.85583 -1.52312,-1.37752c-0.52968,0.08882 -1.06161,0.17786 -1.59682,0.26692c-4.28273,0.01059 -9.21962,0.72257 -13.26157,-0.90444c-1.29455,-0.52111 -2.61379,-1.13373 -3.95513,-1.76253c-2.63837,3.16409 -4.52414,7.1814 -8.56863,8.20892c-6.32246,1.60622 -10.10335,-4.86609 -14.84309,-7.29277c-0.48008,0.44609 -0.97389,0.89044 -1.50211,1.31712c0,0 -1.56991,1.25594 -2.82586,-0.31399c-0.34898,-0.43624 -0.47978,-0.84824 -0.48669,-1.21578c-1.31978,0.28209 -2.61399,0.66513 -3.57433,0.82519c0,0 -1.98313,0.33053 -2.31364,-1.6526c-0.33053,-1.98313 1.6526,-2.31364 1.6526,-2.31364c2.48037,-0.41339 5.41136,-1.3579 8.05727,-1.09578c1.68456,-1.49675 3.39744,-2.87379 5.81,-3.67671c6.08806,-2.02617 11.98102,-0.12215 17.57608,2.31561c1.16363,-0.88681 2.47875,-1.64002 4.09069,-2.33305c3.27878,-0.55602 9.18662,-1.55344 12.29042,0.14171c2.26764,1.23849 3.87111,3.34459 5.47747,5.07936c2.47268,-0.41571 4.93374,-0.82006 7.47674,-1.18346l1.40061,-0.62159c0,0 1.86669,-0.74668 2.61335,1.12001zM44.79197,390.43494c-1.15546,0.38597 -2.12084,0.94437 -2.99882,1.596c3.26596,2.50226 6.93662,7.03257 10.85738,6.08572c2.05755,-0.49688 2.9552,-2.93495 4.0553,-4.44628c0.44845,-0.61608 0.88673,-1.18682 1.32701,-1.71835c-4.25424,-1.79988 -8.69296,-3.03627 -13.24088,-1.51709zM67.69851,391.89495c2.92942,1.27292 7.00746,0.71229 10.32395,0.60286c-0.69779,-0.83724 -1.45565,-1.60688 -2.35672,-2.18713c-1.87304,-1.20613 -7.22902,-0.19801 -9.3199,0.14171c-0.30748,0.13118 -0.60212,0.27844 -0.88537,0.43986c0.75235,0.34409 1.49845,0.68133 2.23806,1.00271z" fill="#000000" stroke-width="0.5"/><path d="M79.56046,381.01045l1.82628,-0.99434l6.60146,12.12445l-1.82628,0.99436z" fill="url(#color-24)" stroke-width="0"/><path d="M86.09357,394.98177l1.80973,1.02416l-6.79919,12.01466l-1.80973,-1.02416z" data-paper-data="{&quot;index&quot;:null}" fill="url(#color-25)" stroke-width="0"/><path d="M39.68638,392.65078l-1.80973,-1.02416l6.79919,-12.01466l1.80973,1.02416z" data-paper-data="{&quot;index&quot;:null}" fill="url(#color-26)" stroke-width="0"/><path d="M46.32587,406.62298l-1.82628,0.99436l-6.60144,-12.12445l1.82626,-0.99436z" data-paper-data="{&quot;index&quot;:null}" fill="url(#color-27)" stroke-width="0"/><path d="M39.97857,404.81754l46.52355,0.3811l-0.0446,5.4419l-46.52355,-0.3811z" fill="url(#color-28)" stroke-width="0"/><path d="M39.85913,377.38776l46.52355,0.3811l-0.0446,5.4419l-46.52355,-0.3811z" fill="url(#color-29)" stroke-width="0"/><path d="M30.4393,389.71201l65.40302,0.53577l-0.06267,7.65024l-65.40302,-0.53577z" fill="url(#color-30)" stroke-width="0"/></g><path d="M34.11808,393.91461c0,4.65606 -3.50487,8.43052 -7.82834,8.43052c-4.32347,0 -7.82832,-3.77446 -7.82832,-8.43052c0,-4.65606 3.50485,-8.43052 7.82832,-8.43052c4.32347,0 7.82834,3.77446 7.82834,8.43052z" fill="url(#color-31)" stroke-width="0"/></g><path d="M87.64433,413.64516c-6.01504,5.08701 -51.54069,1.15578 -58.70809,-3.3507c-3.29546,-2.07203 -2.81819,-30.87278 0.4268,-32.78842c7.10868,-4.19648 50.59954,-9.09309 57.92636,-3.81524c7.32682,5.27785 6.36997,34.86738 0.35493,39.95437z" fill="url(#color-32)" stroke-width="0"/></g><g stroke="none"><path d="M160.06124,413.64516c-6.01504,5.08701 -51.54069,1.15578 -58.70809,-3.3507c-3.29546,-2.07203 -2.81819,-30.87278 0.4268,-32.78842c7.10868,-4.19648 50.59954,-9.09309 57.92636,-3.81524c7.32682,5.27785 6.36997,34.86738 0.35493,39.95437z" fill="#484848" stroke-width="0"/><g><g><path d="M166.89075,391.12968c0.22048,0.55121 0.21309,1.00477 0.09317,1.37027c0.58436,-0.08043 1.72035,-0.03917 2.183,1.34878c0.63577,1.90731 -1.27154,2.54306 -1.27154,2.54306l-2.03122,0.66443c-3.03965,1.78268 -7.73954,2.78753 -10.96765,0.54252c-0.55252,-0.38425 -1.05176,-0.85583 -1.52312,-1.37752c-0.52968,0.08882 -1.06161,0.17786 -1.59682,0.26692c-4.28273,0.01059 -9.21962,0.72257 -13.26157,-0.90444c-1.29455,-0.52111 -2.61379,-1.13373 -3.95513,-1.76253c-2.63837,3.16409 -4.52414,7.1814 -8.56863,8.20892c-6.32246,1.60622 -10.10335,-4.86609 -14.84309,-7.29277c-0.48008,0.44609 -0.97389,0.89044 -1.50211,1.31712c0,0 -1.56991,1.25594 -2.82586,-0.31399c-0.34898,-0.43624 -0.47978,-0.84824 -0.48669,-1.21578c-1.31978,0.28209 -2.61399,0.66513 -3.57433,0.82519c0,0 -1.98313,0.33053 -2.31364,-1.6526c-0.33053,-1.98313 1.6526,-2.31364 1.6526,-2.31364c2.48037,-0.41339 5.41136,-1.3579 8.05727,-1.09578c1.68456,-1.49675 3.39744,-2.87379 5.81,-3.67671c6.08806,-2.02617 11.98102,-0.12215 17.57608,2.31561c1.16363,-0.88681 2.47875,-1.64002 4.09069,-2.33305c3.27878,-0.55602 9.18662,-1.55344 12.29042,0.14171c2.26764,1.23849 3.87111,3.34459 5.47747,5.07936c2.47268,-0.41571 4.93374,-0.82006 7.47674,-1.18346l1.40061,-0.62159c0,0 1.86669,-0.74668 2.61335,1.12001zM117.20886,390.43494c-1.15546,0.38597 -2.12084,0.94437 -2.99882,1.596c3.26596,2.50226 6.93662,7.03257 10.85738,6.08572c2.05755,-0.49688 2.9552,-2.93495 4.0553,-4.44628c0.44845,-0.61608 0.88673,-1.18682 1.32701,-1.71835c-4.25424,-1.79988 -8.69296,-3.03627 -13.24088,-1.51709zM140.11545,391.89495c2.92942,1.27292 7.00746,0.71229 10.32395,0.60286c-0.69779,-0.83724 -1.45565,-1.60688 -2.35672,-2.18713c-1.87304,-1.20613 -7.22902,-0.19801 -9.3199,0.14171c-0.30748,0.13118 -0.60212,0.27844 -0.88537,0.43986c0.75235,0.34409 1.49845,0.68133 2.23806,1.00271z" fill="#000000" stroke-width="0.5"/><path d="M151.97735,381.01045l1.82628,-0.99434l6.60146,12.12445l-1.82628,0.99436z" fill="url(#color-33)" stroke-width="0"/><path d="M158.51048,394.98177l1.80973,1.02416l-6.79919,12.01466l-1.80973,-1.02416z" data-paper-data="{&quot;index&quot;:null}" fill="url(#color-34)" stroke-width="0"/><path d="M112.10328,392.65078l-1.80973,-1.02416l6.79919,-12.01466l1.80973,1.02416z" data-paper-data="{&quot;index&quot;:null}" fill="url(#color-35)" stroke-width="0"/><path d="M118.74278,406.62298l-1.82628,0.99436l-6.60144,-12.12445l1.82626,-0.99436z" data-paper-data="{&quot;index&quot;:null}" fill="url(#color-36)" stroke-width="0"/><path d="M112.39546,404.81754l46.52355,0.3811l-0.0446,5.4419l-46.52355,-0.3811z" fill="url(#color-37)" stroke-width="0"/><path d="M112.27604,377.38776l46.52355,0.3811l-0.0446,5.4419l-46.52355,-0.3811z" fill="url(#color-38)" stroke-width="0"/><path d="M102.85622,389.71201l65.40302,0.53577l-0.06267,7.65024l-65.40302,-0.53577z" fill="url(#color-39)" stroke-width="0"/></g><path d="M106.53497,393.91461c0,4.65606 -3.50487,8.43052 -7.82834,8.43052c-4.32347,0 -7.82832,-3.77446 -7.82832,-8.43052c0,-4.65606 3.50485,-8.43052 7.82832,-8.43052c4.32347,0 7.82834,3.77446 7.82834,8.43052z" fill="url(#color-40)" stroke-width="0"/></g><path d="M160.06124,413.64516c-6.01504,5.08701 -51.54069,1.15578 -58.70809,-3.3507c-3.29546,-2.07203 -2.81819,-30.87278 0.4268,-32.78842c7.10868,-4.19648 50.59954,-9.09309 57.92636,-3.81524c7.32682,5.27785 6.36997,34.86738 0.35493,39.95437z" fill="url(#color-41)" stroke-width="0"/></g><path d="M302.84565,320.39161l-125.93468,-0.76336c0,0 -14.18295,-22.59442 -6.80771,-46.38949c8.73394,-28.1787 1.3883,-55.47923 70.61791,-55.3985c67.72451,0.11323 57.54977,25.90301 67.85219,53.53558c10.14096,27.19948 -5.72771,49.01576 -5.72771,49.01576z" fill="#484848" stroke="none" stroke-width="0"/><g stroke="none" stroke-width="0"><path d="M-25.12448,399.30121c-3.35274,0.19881 -7.5809,1.5357 -12.93722,6.00719c-5.89518,4.92133 -9.16787,8.2793 -11.19346,10.33883c-2.01549,2.04926 -6.79443,1.9287 -8.8378,-0.93251c-1.58507,-2.21949 -0.9651,-6.88527 0.3095,-8.39217c1.93767,-2.29079 5.30297,-5.35416 10.60109,-9.77706c5.96636,-4.98075 12.35365,-7.71853 17.95967,-8.7372c9.71993,-1.76621 10.95527,11.08631 4.0982,11.49291z" data-paper-data="{&quot;index&quot;:null}" fill="url(#color-42)"/><path d="M-30.47954,398.62924c-3.35775,0.07795 -7.63125,1.26174 -13.14511,5.53745c-6.06856,4.70587 -9.46007,7.9438 -11.5585,9.92907c-2.08799,1.97534 -6.85946,1.68276 -8.79847,-1.25015c-1.50412,-2.27513 -0.71654,-6.91555 0.61148,-8.37557c2.0189,-2.21953 5.49235,-5.15973 10.9463,-9.38899c6.14182,-4.76267 12.62356,-7.26868 18.26264,-8.08483c9.77724,-1.41505 10.54896,11.4736 3.68169,11.63304z" data-paper-data="{&quot;index&quot;:null}" fill="url(#color-43)"/><path d="M-32.70572,399.70677c-3.33107,-0.42957 -7.73429,0.09585 -13.83016,3.49065c-6.70913,3.73633 -10.55036,6.42548 -12.92431,8.07139c-2.36213,1.63768 -7.03482,0.62854 -8.50913,-2.5634c-1.14364,-2.47602 0.3351,-6.94451 1.86823,-8.18743c2.33067,-1.8895 6.20797,-4.27196 12.23761,-7.62987c6.79014,-3.78145 13.57578,-5.28076 19.27343,-5.23672c9.87882,0.07638 8.69699,12.93392 1.8843,12.05536z" data-paper-data="{&quot;index&quot;:null}" fill="url(#color-44)"/><path d="M11.91662,404.18687c-16.17825,0 -44.69664,2.84757 -44.60569,-10.45283c0.09144,-13.3725 28.42746,-10.45283 44.60569,-10.45283c16.17825,0 16.17825,20.90566 0,20.90566z" fill="url(#color-45)"/><path d="M-14.69862,413.56625c3.23236,-0.91235 7.07599,-3.12389 11.35019,-8.63893c4.70419,-6.06986 7.18166,-10.0509 8.71906,-12.49652c1.52975,-2.43341 6.22359,-3.3393 8.83243,-0.9822c2.02369,1.82844 2.41754,6.51873 1.4953,8.26366c-1.402,2.65267 -4.03303,6.36578 -8.26079,11.8209c-4.76099,6.14314 -10.41363,10.18554 -15.67132,12.38138c-9.11602,3.80724 -13.07569,-8.48235 -6.46486,-10.34831z" data-paper-data="{&quot;index&quot;:null}" fill="url(#color-46)"/></g><g stroke="none"><path d="M247.8226,504.4915c-0.03607,0.54577 -0.34503,2.88292 -2.99113,2.88292c-0.0134,0 -0.02676,-0.00006 -0.04005,-0.00018c0.01957,0.90736 -0.26128,2.43745 -2.25965,2.93705c-2.90647,0.72663 -3.63307,-2.17984 -3.63307,-2.17984l-0.69471,-3.14768c0,-3.48711 0.83973,-8.58552 -1.32097,-11.66655c-3.35106,-4.77839 -11.25376,-9.01478 -10.1525,-15.96793c0.62415,-3.94087 2.77117,-6.10825 5.33671,-7.93433c-0.46652,-1.46823 -0.82653,-3.02666 -1.11615,-4.73669c-0.0012,-0.52053 -0.0591,-8.3684 0.09851,-8.91523c1.46314,-5.07654 6.87131,-8.55023 10.86107,-11.34423c2.36351,-1.65516 4.89237,-3.16889 7.35335,-4.77c-5.25602,-6.55997 -14.94611,-11.50527 -20.19727,-15.8299c-3.96414,-3.2647 -4.57485,-8.22102 -6.41675,-12.83092c-0.88415,-2.77541 -2.73962,-6.94181 -4.66281,-9.11528c-2.25418,-2.54754 -12.02297,-2.11327 -15.12079,-2.95113c-11.15829,-3.01789 -21.75077,-2.8235 -33.10517,-0.55262c0,0 -2.93772,0.58754 -3.52526,-2.35017c-0.58754,-2.93772 2.35017,-3.52528 2.35017,-3.52528c8.26027,-1.65206 16.57696,-2.62885 25.04515,-1.86375c4.93841,0.44617 9.35601,2.26696 14.16648,3.05688c3.96518,0.65113 11.16392,0.88962 14.24655,3.77682c2.57282,2.40973 5.09402,8.16688 6.23192,11.46363c1.05769,2.64113 1.63516,6.29168 2.8546,8.69577c1.54479,3.0455 7.9014,4.95573 10.56889,6.82231c4.36118,3.05177 8.90645,7.18013 12.17554,11.93772c3.12525,-2.48313 5.83928,-5.40887 7.53868,-9.36917c4.42881,-10.32101 -7.88308,-14.89362 -9.25557,-23.26857c-0.57449,-3.50563 1.40742,-6.39614 2.83518,-9.28367c4.92551,-6.41493 18.47187,-15.28039 26.59239,-10.005c3.43013,2.22833 4.85468,6.87237 8.2381,8.93864c6.50115,3.97027 18.12656,0.88237 25.21791,0.85603c0,0 2.9959,0 2.9959,2.9959c0,2.9959 -2.9959,2.9959 -2.9959,2.9959c-8.371,-0.03659 -20.27872,3.04725 -28.04518,-1.56502c-3.73122,-2.21587 -5.39722,-6.5706 -8.70926,-9.21926c-1.92822,-1.54201 -3.67332,-0.34451 -5.9403,0.36137c-4.41952,1.3761 -9.55082,4.02867 -12.25675,7.79151c-3.1729,6.24654 -1.10399,5.91084 2.85871,11.13276c4.15604,5.47671 6.7776,13.76307 4.0367,20.47282c-2.19853,5.38204 -5.94841,9.15165 -10.21018,12.37217c2.1924,5.13206 2.60546,10.73481 -0.21155,16.36389c-3.03184,6.05832 -10.64437,7.76696 -15.21708,12.37283c-0.58422,0.43357 -1.21726,0.82575 -1.86721,1.20539c0.60643,1.01789 1.32864,2.02371 2.19023,3.06855c2.36185,2.86416 6.32402,5.02679 7.73155,8.62631c2.02749,5.18483 0.85353,16.05761 -1.57898,21.26523zM243.65134,494.08906c0.00577,-2.51133 1.24132,-6.11316 0.24157,-8.50561c-1.18037,-2.82472 -4.90156,-4.78154 -6.79475,-7.11052c-0.99925,-1.22928 -1.84821,-2.42219 -2.57306,-3.62317c-0.86154,0.87061 -1.53055,1.92329 -1.8558,3.29488c-0.89418,3.77079 7.42269,9.09037 9.2159,11.87417c0.86356,1.34057 1.41588,2.78641 1.76635,4.28898c-0.0003,-0.07216 -0.00038,-0.14506 -0.0002,-0.21872zM245.33125,449.33831c-2.56537,1.79495 -7.6665,4.59754 -8.50731,8.02417c-0.54192,2.2086 0.10432,4.5475 0.09851,6.82162c0.09829,0.60332 0.21019,1.18059 0.33804,1.73681c0.05369,-0.04023 0.10727,-0.08069 0.16072,-0.12139c3.78225,-3.75688 11.44575,-5.84038 13.83551,-10.62715c1.91638,-3.83857 2.01275,-7.27639 0.94479,-10.38694c-2.29678,1.51743 -4.63319,2.98766 -6.87023,4.5529z" fill="#000000" stroke-width="0.5"/><g stroke-width="0"><g><path d="M235.4898,395.13468v-99.13277h8.86233v99.13277z" fill="url(#color-47)"/><g><path d="M188.29092,416.23777v-10.31011h107.75727v10.31011z" fill="url(#color-48)"/><path d="M193.18898,419.91269v-17.61308h6.36746v17.61308z" fill="url(#color-49)"/><path d="M209.7672,420.58463v-17.61308h6.36746v17.61308z" fill="url(#color-50)"/><path d="M267.65104,420.10101v-17.61308h6.36746v17.61308z" fill="url(#color-51)"/><path d="M284.22926,420.77296v-17.61308h6.36746v17.61308z" fill="url(#color-52)"/></g><g><path d="M193.10835,443.33585v-10.31011h98.1224v10.31011z" fill="url(#color-53)"/><path d="M197.56847,447.01077v-17.61308h5.79813v17.61308z" fill="url(#color-54)"/><path d="M212.66438,447.68271v-17.61308h5.79811v17.61308z" fill="url(#color-55)"/><path d="M265.37267,447.19909v-17.61308h5.79811v17.61308z" fill="url(#color-56)"/><path d="M280.4686,447.87103v-17.61308h5.79813v17.61308z" fill="url(#color-57)"/></g><g><path d="M199.13014,470.43395v-10.31011h86.0788v10.31011z" fill="url(#color-58)"/><path d="M203.04283,474.10885v-17.61308h5.08647v17.61308z" fill="url(#color-59)"/><path d="M216.28585,474.78081v-17.61308h5.08647v17.61308z" fill="url(#color-60)"/><path d="M262.52471,474.29719v-17.61308h5.08647v17.61308z" fill="url(#color-61)"/><path d="M275.76776,474.96913v-17.61308h5.08647v17.61308z" fill="url(#color-62)"/></g><path d="M232.0951,502.56206l-0.08678,-24.67461l-2.92414,-83.15987h23.52418l-2.97627,83.22124l-0.03463,24.61324z" fill="url(#color-63)"/><path d="M170.30991,396.91443v-5.41963h142.1144v5.41963z" fill="url(#color-64)"/><path d="M321.45703,393.90352c0,4.65606 -3.50487,8.43052 -7.82834,8.43052c-4.32347,0 -7.82832,-3.77446 -7.82832,-8.43052c0,-4.65606 3.50485,-8.43052 7.82832,-8.43052c4.32347,0 7.82834,3.77446 7.82834,8.43052z" fill="url(#color-65)"/><path d="M220.07513,401.19801v-13.24797h41.22083v13.24797z" fill="url(#color-66)"/><path d="M176.9339,393.90352c0,4.65606 -3.50487,8.43052 -7.82834,8.43052c-4.32347,0 -7.82834,-3.77446 -7.82834,-8.43052c0,-4.65606 3.50487,-8.43052 7.82834,-8.43052c4.32347,0 7.82834,3.77446 7.82834,8.43052z" fill="url(#color-67)"/></g><path d="M228.65572,538.56836v-39.26033h24.42242v39.26033z" fill="url(#color-68)"/><path d="M226.80499,514.04628v-6.87269h28.12386v6.87269z" fill="url(#color-69)"/><path d="M226.80499,523.76258v-6.87269h28.12386v6.87269z" fill="url(#color-70)"/></g></g><g stroke-width="0"><path d="M176.50053,372.85523c10.86415,4.01823 16.46248,15.95134 12.50423,26.65333c-1.93879,5.24193 -10.37991,-1.84895 -20.05061,-5.30431c-10.07309,-3.59914 -21.31141,-3.78692 -19.29195,-9.24698c3.95825,-10.70199 15.97418,-16.12027 26.83833,-12.10204z" fill="url(#color-71)" stroke="none"/><path d="M333.50075,384.95727c2.01946,5.46006 -9.21886,5.64784 -19.29195,9.24698c-9.6707,3.45536 -18.11182,10.54624 -20.05061,5.30431c-3.95825,-10.70199 1.64008,-22.6351 12.50423,-26.65333c10.86415,-4.01823 22.88009,1.40005 26.83833,12.10204z" data-paper-data="{&quot;index&quot;:null}" fill="url(#color-72)" stroke="none"/><g><path d="M305.47947,450.41624c-3.38034,35.95248 -5.12959,41.5829 -8.47236,58.61598c-4.96623,25.30547 -55.32993,23.45043 -55.32993,23.45043c0,0 -50.73137,3.49311 -55.60935,-25.57149c-2.43505,-14.50885 -6.78413,-30.1871 -8.21787,-57.24978c-1.43374,-27.06271 -11.65725,-86.85482 61.56197,-87.99664c69.31282,-1.0809 69.90884,47.89615 66.06751,88.75152z" data-paper-data="{&quot;index&quot;:null}" fill="url(#color-73)" stroke="#000000"/><path d="M295.59386,452.56052c-2.85674,30.38361 -4.33505,35.14192 -7.16003,49.53665c-4.19698,21.38579 -46.75956,19.81807 -46.75956,19.81807c0,0 -42.87334,2.95202 -46.99572,-21.6106c-2.05789,-12.26148 -5.7333,-25.51127 -6.94497,-48.38209c-1.21164,-22.87082 -9.85159,-73.40141 52.02632,-74.36637c58.57661,-0.91347 59.08028,40.47725 55.83396,75.00434z" data-paper-data="{&quot;index&quot;:null}" fill="url(#color-74)" stroke="#000000"/><g stroke="#000000"><path d="M241.55363,394.19694c0,6.10372 -6.51362,8.66981 -13.75686,11.05169c-17.23438,5.66735 -17.1943,4.25854 -17.1943,4.25854c0,0 3.4374,-4.34504 3.4374,-15.31023c0,-18.23362 -31.97056,-28.93431 13.75692,-11.05169c7.11026,2.7806 13.75686,4.94804 13.75686,11.05169z" fill="url(#color-75)"/><path d="M255.3585,383.14525c45.72747,-17.88262 13.7569,-7.18192 13.7569,11.05169c0,10.96519 3.4374,15.31023 3.4374,15.31023c0,0 0.04011,1.40881 -17.1943,-4.25854c-7.24326,-2.38188 -13.75688,-4.94798 -13.75688,-11.05169c0,-6.10366 6.64659,-8.27107 13.75688,-11.05169z" data-paper-data="{&quot;index&quot;:null}" fill="url(#color-76)"/><path d="M252.90198,393.43415c0,6.25255 -4.94804,11.32124 -11.05169,11.32124c-6.10372,0 -11.05171,-5.06869 -11.05171,-11.32124c0,-6.25255 4.94806,-11.32126 11.05171,-11.32126c6.10372,0 11.05169,5.06873 11.05169,11.32126z" fill="url(#color-77)"/></g><g stroke="none"><path d="M241.53937,413.12275c4.81392,0 8.71639,3.93892 8.71639,8.79779c0,4.85888 -3.90247,8.79779 -8.71639,8.79779c-4.81392,0 -8.71639,-3.93892 -8.71639,-8.79779c0,-4.85888 3.90247,-8.79779 8.71639,-8.79779zM239.17314,425.57261c0.9038,0 1.6365,-0.7327 1.6365,-1.6365c0,-0.9038 -0.7327,-1.6365 -1.6365,-1.6365c-0.9038,0 -1.6365,0.7327 -1.6365,1.6365c0,0.9038 0.7327,1.6365 1.6365,1.6365zM243.65656,421.02779c0.9038,0 1.63648,-0.7327 1.63648,-1.6365c0,-0.9038 -0.73268,-1.63648 -1.63648,-1.63648c-0.9038,0 -1.6365,0.73268 -1.6365,1.63648c0,0.9038 0.7327,1.6365 1.6365,1.6365zM239.23456,421.02779c0.9038,0 1.6365,-0.7327 1.6365,-1.6365c0,-0.9038 -0.7327,-1.63648 -1.6365,-1.63648c-0.9038,0 -1.63648,0.73268 -1.63648,1.63648c0,0.9038 0.73268,1.6365 1.63648,1.6365zM243.65656,425.63403c0.9038,0 1.63648,-0.7327 1.63648,-1.6365c0,-0.9038 -0.73268,-1.63648 -1.63648,-1.63648c-0.9038,0 -1.6365,0.73268 -1.6365,1.63648c0,0.9038 0.7327,1.6365 1.6365,1.6365z" fill="url(#color-78)"/><path d="M241.53937,413.12275c4.81392,0 8.71639,3.93892 8.71639,8.79779c0,4.85888 -3.90247,8.79779 -8.71639,8.79779c-4.81392,0 -8.71639,-3.93892 -8.71639,-8.79779c0,-4.85888 3.90247,-8.79779 8.71639,-8.79779zM241.56839,428.93258c3.91651,0 7.09147,-3.17496 7.09147,-7.09145c0,-3.91651 -3.17496,-7.09145 -7.09147,-7.09145c-3.91651,0 -7.09145,3.17496 -7.09145,7.09145c0,3.91651 3.17494,7.09145 7.09145,7.09145z" fill="url(#color-79)"/></g><g stroke="none"><path d="M241.53937,440.13423c4.81392,0 8.71639,3.93892 8.71639,8.79779c0,4.85888 -3.90247,8.79779 -8.71639,8.79779c-4.81392,0 -8.71639,-3.93892 -8.71639,-8.79779c0,-4.85888 3.90247,-8.79779 8.71639,-8.79779zM239.17314,452.58407c0.9038,0 1.6365,-0.7327 1.6365,-1.6365c0,-0.9038 -0.7327,-1.6365 -1.6365,-1.6365c-0.9038,0 -1.6365,0.7327 -1.6365,1.6365c0,0.9038 0.7327,1.6365 1.6365,1.6365zM243.65656,448.03926c0.9038,0 1.63648,-0.7327 1.63648,-1.6365c0,-0.9038 -0.73268,-1.63648 -1.63648,-1.63648c-0.9038,0 -1.6365,0.73268 -1.6365,1.63648c0,0.9038 0.7327,1.6365 1.6365,1.6365zM239.23456,448.03926c0.9038,0 1.6365,-0.7327 1.6365,-1.6365c0,-0.9038 -0.7327,-1.63648 -1.6365,-1.63648c-0.9038,0 -1.63648,0.73268 -1.63648,1.63648c0,0.9038 0.73268,1.6365 1.63648,1.6365zM243.65656,452.64549c0.9038,0 1.63648,-0.73268 1.63648,-1.63648c0,-0.9038 -0.73268,-1.6365 -1.63648,-1.6365c-0.9038,0 -1.6365,0.7327 -1.6365,1.6365c0,0.9038 0.7327,1.63648 1.6365,1.63648z" fill="url(#color-80)"/><path d="M241.53937,440.13423c4.81392,0 8.71639,3.93892 8.71639,8.79779c0,4.85888 -3.90247,8.79779 -8.71639,8.79779c-4.81392,0 -8.71639,-3.93892 -8.71639,-8.79779c0,-4.85888 3.90247,-8.79779 8.71639,-8.79779zM241.56839,455.94406c3.91651,0 7.09147,-3.17496 7.09147,-7.09147c0,-3.91651 -3.17496,-7.09145 -7.09147,-7.09145c-3.91651,0 -7.09145,3.17494 -7.09145,7.09145c0,3.91651 3.17494,7.09147 7.09145,7.09147z" fill="url(#color-81)"/></g></g></g><g><path d="M240.73221,311.25829c35.25117,0 69.08818,16.21579 63.82791,34.7627c-9.7003,34.20177 -28.57674,34.7627 -63.82791,34.7627c-35.25117,0 -56.8437,-5.68387 -63.82789,-34.7627c-4.49729,-18.72459 28.57674,-34.7627 63.82789,-34.7627z" fill="url(#color-82)" stroke="#000000" stroke-width="0"/><g><g fill="url(#color-83)" stroke="#000000" stroke-width="0"><path d="M240.74526,350.80424c28.24397,0 55.35489,9.60094 51.14026,20.58209c-7.77208,20.24998 -22.89628,20.58209 -51.14026,20.58209c-28.24397,0 -45.54437,-3.36528 -51.14026,-20.58209c-3.60333,-11.08633 22.89626,-20.58209 51.14026,-20.58209z"/></g><g fill="none" stroke="none" stroke-width="1" font-family="sans-serif" font-weight="normal" font-size="12" text-anchor="start"/></g><path d="M240.47894,311.4395c27.3015,0 57.10285,15.07437 53.02883,32.31581c-1.4628,6.19068 -6.79014,11.19576 -8.83297,15.24221c-8.44879,16.73544 -6.63607,19.42391 -44.19589,19.47035c-39.39221,0.04869 -35.75427,-5.52563 -43.89985,-19.28622c-2.43959,-4.12127 -8.68121,-9.19619 -9.92789,-15.42633c-3.4831,-17.40659 26.52622,-32.31581 53.82774,-32.31581z" fill="url(#color-84)" stroke="#000000" stroke-width="0"/><path d="M231.84926,327.11046v-1.7859h16.91538v1.7859z" fill="url(#color-85)" stroke="none" stroke-width="0"/><g stroke="none" stroke-width="0"><path d="M233.77764,337.47779c0,-0.19248 0.02732,-11.99882 0.02732,-11.99882l12.91503,-0.00567c0,0 0.04362,11.76084 0.04362,12.00451c0,3.41393 -2.90701,4.1689 -6.49298,4.1689c-3.58598,0 -6.49298,-0.75497 -6.49298,-4.1689z" fill="url(#color-86)"/><path d="M233.77764,336.34584c0,-0.19248 0.02732,-11.99882 0.02732,-11.99882l12.91503,-0.00567c0,0 0.04362,11.76084 0.04362,12.00451c0,3.41393 -2.90701,4.1689 -6.49298,4.1689c-3.58598,0 -6.49298,-0.75497 -6.49298,-4.1689z" fill="url(#color-87)"/></g></g><g><path d="M197.98894,254.43844v-4.52176h84.63619v4.52176z" data-paper-data="{&quot;index&quot;:null}" fill="url(#color-88)" stroke="none" stroke-width="0"/><path d="M197.85652,296.02034v-49.91535h4.2445v49.91535z" fill="url(#color-89)" stroke="none" stroke-width="0"/><path d="M278.38063,296.02034v-49.91535h4.2445v49.91535z" data-paper-data="{&quot;index&quot;:null}" fill="url(#color-90)" stroke="none" stroke-width="0"/><path d="M241.04313,289.94644l-0.12111,0.63727c0.50894,1.20316 0.85082,2.47809 1.1116,3.75816c0.08325,0.3795 0.22026,0.73448 0.39648,1.0716c0.08193,0.11952 0.15471,0.24389 0.21561,0.37461c0.84612,1.34792 2.27323,2.43092 3.23626,3.72561c0.79959,1.07495 0.83568,3.81043 1.62552,5.09867c0.41717,0.68043 2.57788,1.35443 2.80347,1.56083c2.98009,2.72649 -0.45166,4.48231 1.21622,6.93979c1.4657,2.15959 9.40115,-3.58264 10.45393,-4.35389c3.90241,-5.99209 -1.22381,-7.01917 -0.6031,-13.26806c0.32198,-3.24153 4.98027,-7.34396 3.93342,-10.65468c-0.48294,-1.52731 -2.03967,-3.35933 -2.89872,-4.73297c0,0 -0.79391,-1.27026 0.47635,-2.06418c1.27026,-0.79391 2.06418,0.47635 2.06418,0.47635c0.94916,1.51952 2.79853,3.77903 3.23801,5.49489c1.18027,4.60814 -3.30412,7.71577 -3.83977,11.84665c-0.33432,2.57826 1.98151,4.58048 2.62299,7.01148c0.8762,3.32038 -1.0851,5.40006 -2.81697,7.94937c-3.04376,2.3269 -8.36219,6.44719 -12.64004,5.34733c-4.24733,-1.09203 -2.4761,-4.17455 -2.60238,-7.12011c-0.02938,-0.68506 -3.3533,-1.98926 -3.83138,-2.67191c-0.82154,-1.17304 -0.94413,-4.20731 -1.64739,-5.12919c-0.32182,-0.42186 -0.64016,-0.77562 -0.95076,-1.09303c-1.10729,1.78272 -3.49512,2.57897 -4.38658,5.2123c-0.99923,2.95171 2.3256,6.75573 -0.59269,9.39999c-1.40732,1.27518 -3.37808,0.85403 -5.01181,1.19487c-6.19545,1.29251 -9.20536,1.29341 -13.12847,-4.31428c-0.27301,-1.03309 -0.1589,-2.22092 -0.73651,-3.11992c-1.43889,-2.23948 -4.92187,-1.392 -5.88681,-4.45072c-0.967,-3.06519 2.22748,-7.16896 2.82264,-10.07101c0.42805,-2.08725 -0.84708,-2.68313 -1.37979,-4.41684c-0.76589,-2.49259 0.35122,-6.21586 1.00411,-8.62445c0,0 0.39414,-1.44516 1.83931,-1.05102c1.44516,0.39414 1.05102,1.83931 1.05102,1.83931c-0.44969,1.6379 -1.66786,5.24789 -1.04146,6.9219c0.77145,2.06164 1.93909,3.2778 1.48401,5.81102c-0.42718,2.37795 -3.37852,6.31934 -2.90497,8.74826c0.17374,0.89116 2.8978,1.42196 3.45176,1.81302c2.32426,1.64076 2.43745,2.82919 3.0166,5.34447c3.24806,4.40035 5.01333,3.65285 9.78197,2.64067c1.17603,-0.24962 2.61177,0.27165 3.57959,-0.4416c1.04885,-0.77296 -0.62325,-6.86026 -0.18357,-8.19194c0.78057,-2.36413 4.08472,-3.54206 4.71388,-5.54882c0.54328,-1.73281 -1.24436,-2.80541 -2.14709,-4.07393c-0.57455,-1.38185 -0.78824,-2.92023 -0.80618,-4.41666l0.24928,-1.18154c0,0 0.3633,-1.45323 1.81654,-1.08993c0.32773,0.08193 0.56307,0.2193 0.73102,0.38292c1.22185,0.17173 1.22185,1.47944 1.22185,1.47944z" fill="url(#color-91)" stroke="none" stroke-width="0.5"/><path d="M193.70116,272.45383v-5.87954h92.60939v5.87954z" fill="url(#color-92)" stroke="none" stroke-width="0"/><g stroke="#000000" stroke-width="0"><path d="M235.31857,269.60183c0,10.82207 -8.55369,19.5951 -19.1052,19.5951c-10.55152,0 -19.1052,-8.77301 -19.1052,-19.5951c0,-10.82207 8.55369,-19.5951 19.1052,-19.5951c10.55152,0 19.1052,8.77301 19.1052,19.5951z" fill="url(#color-93)"/><g><path d="M216.21337,275.7242c-3.29677,0 -5.96932,-2.74107 -5.96932,-6.12237c0,-3.3813 2.67257,-6.12237 5.96932,-6.12237c3.29677,0 5.96932,2.74107 5.96932,6.12237c0,3.3813 -2.67257,6.12237 -5.96932,6.12237z" fill="#00ff4c"/><path d="M216.21337,274.70068c-2.74563,0 -4.97138,-2.28282 -4.97138,-5.09885c0,-2.81601 2.22576,-5.09885 4.97138,-5.09885c2.74563,0 4.97138,2.28282 4.97138,5.09885c0,2.81601 -2.22576,5.09885 -4.97138,5.09885z" fill="#000000"/></g></g><g stroke="#000000" stroke-width="0"><path d="M282.92017,269.60183c0,10.82207 -8.55369,19.5951 -19.1052,19.5951c-10.55152,0 -19.1052,-8.77301 -19.1052,-19.5951c0,-10.82207 8.55369,-19.5951 19.1052,-19.5951c10.55152,0 19.1052,8.77301 19.1052,19.5951z" fill="url(#color-94)"/><g><path d="M263.81496,275.7242c-3.29677,0 -5.96932,-2.74107 -5.96932,-6.12237c0,-3.3813 2.67257,-6.12237 5.96932,-6.12237c3.29677,0 5.96932,2.74107 5.96932,6.12237c0,3.3813 -2.67257,6.12237 -5.96932,6.12237z" fill="#00ff4c"/><path d="M263.81496,274.70068c-2.74563,0 -4.97138,-2.28282 -4.97138,-5.09885c0,-2.81601 2.22576,-5.09885 4.97138,-5.09885c2.74563,0 4.97138,2.28282 4.97138,5.09885c0,2.81601 -2.22576,5.09885 -4.97138,5.09885z" fill="#000000"/></g></g><path d="M236.27638,298.44704l0.26366,-50.91892l7.11633,0.15233l-0.26366,50.91892z" fill="url(#color-95)" stroke="none" stroke-width="0"/><path d="M248.56127,328.22378v-31.44997h4.10217v31.44997z" fill="url(#color-96)" stroke="none" stroke-width="0"/><path d="M228.05043,328.22378v-31.44997h4.10217v31.44997z" fill="url(#color-97)" stroke="none" stroke-width="0"/><path d="M196.35244,266.06958l-0.20949,27.42807l88.33288,0.21145l0.28567,-27.63119l5.77573,0.0879l-0.3543,34.15328l-99.73391,-0.43654l0.22733,-33.88273z" fill="url(#color-98)" stroke="none" stroke-width="0"/></g><g stroke-width="0"><g><path d="M198.70874,246.73733l-28.5912,-28.81082l2.32109,-2.32205l28.59118,28.81082z" fill="url(#color-99)" stroke="none"/><g stroke="#000000"><g fill="url(#color-100)"><path d="M183.76768,204.34699c0.47229,0.46876 12.01823,9.0438 -1.60728,22.61507c-13.44025,13.38672 -20.20686,4.12219 -22.576,1.8868c-10.27943,-9.69904 -18.60745,-42.76231 -18.60745,-42.76231c0,0 32.75994,8.30451 42.79073,18.26046z"/></g><g fill="url(#color-101)"><path d="M179.86473,206.74252c0.35939,0.35673 9.14552,6.88205 -1.22309,17.2094c-10.22762,10.1869 -15.37684,3.13685 -17.17966,1.43582c-7.82235,-7.38067 -15.31157,-33.70309 -15.31157,-33.70309c0,0 26.08121,7.48167 33.71434,15.05786z"/></g></g></g><path d="M203.11971,245.68053c0,1.73469 -1.40624,3.14093 -3.14093,3.14093c-1.73469,0 -3.14093,-1.40624 -3.14093,-3.14093c0,-1.73469 1.40624,-3.14093 3.14093,-3.14093c1.73469,0 3.14093,1.40624 3.14093,3.14093z" fill="url(#color-102)" stroke="none"/></g><g data-paper-data="{&quot;index&quot;:null}" stroke-width="0"><g><path d="M279.45187,244.41528l28.59118,-28.81082l2.32109,2.32205l-28.5912,28.81082z" fill="url(#color-103)" stroke="none"/><g stroke="#000000"><g fill="url(#color-104)"><path d="M296.71399,204.34701c10.03079,-9.95595 42.79073,-18.26046 42.79073,-18.26046c0,0 -8.32802,33.06327 -18.60745,42.76231c-2.36914,2.23538 -9.13575,11.49992 -22.576,-1.8868c-13.62552,-13.57127 -2.07958,-22.14631 -1.60728,-22.61507z"/></g><g fill="url(#color-105)"><path d="M300.61692,206.7425c7.63313,-7.57618 33.71434,-15.05786 33.71434,-15.05786c0,0 -7.48922,26.32242 -15.31157,33.70309c-1.80282,1.70103 -6.95204,8.75108 -17.17966,-1.43582c-10.36861,-10.32734 -1.58248,-16.85266 -1.22309,-17.2094z"/></g></g></g><path d="M280.50285,242.5396c1.73469,0 3.14093,1.40624 3.14093,3.14093c0,1.73469 -1.40624,3.14093 -3.14093,3.14093c-1.73469,0 -3.14093,-1.40624 -3.14093,-3.14093c0,-1.73469 1.40624,-3.14093 3.14093,-3.14093z" fill="url(#color-106)" stroke="none"/></g><g stroke-width="0"><path d="M302.84565,320.39161l-125.93468,-0.76336c0,0 -14.18295,-22.59442 -6.80771,-46.38949c8.73394,-28.1787 1.3883,-55.47923 70.61791,-55.3985c67.72451,0.11323 57.54977,25.90301 67.85219,53.53558c10.14096,27.19948 -5.72771,49.01576 -5.72771,49.01576zM215.8988,292.59974c11.0306,0 19.9727,-8.9421 19.9727,-19.9727c0,-25.67726 -8.9421,-32.95497 -19.9727,-32.95497c-11.0306,0 -21.6371,10.27362 -19.9727,32.95497c0.80728,11.00104 8.9421,19.9727 19.9727,19.9727zM263.83328,292.11833c11.0306,0 19.63981,-9.74098 19.63981,-20.77161c0,-11.0306 -0.953,-31.4903 -19.63981,-31.4903c-18.35393,0 -19.30693,20.45967 -19.30693,31.4903c0,11.0306 8.27633,20.77161 19.30693,20.77161z" fill="url(#color-107)" stroke="none"/><g><g stroke="#000000"><path d="M205.97243,310.08066c-1.27308,5.74359 -19.27421,5.00186 -40.63324,0.26757c-21.359,-4.73427 -42.71511,-30.3345 -42.71511,-30.3345c0,0 24.75616,10.26065 46.11516,14.99492c0,0 38.50627,9.32839 37.23319,15.07198z" fill="url(#color-108)"/><path d="M207.29578,313.01928c-0.52598,5.85945 -18.47361,7.43238 -40.2634,5.47639c-21.78978,-1.95597 -46.25266,-24.60599 -46.25266,-24.60599c0,0 25.8676,7.00107 47.6574,8.95704c0,0 39.38464,4.31308 38.85866,10.17254z" fill="url(#color-109)"/><path d="M206.10079,313.80849c0.40401,5.86912 -17.07144,10.25089 -38.89721,11.75333c-21.82575,1.50245 -49.55247,-17.00923 -49.55247,-17.00923c0,0 26.6477,2.83692 48.47344,1.33448c0,0 39.57221,-1.94768 39.97622,3.92142z" fill="url(#color-110)"/><path d="M208.20144,316.25263c1.15336,5.76883 -15.61583,12.35557 -37.06869,16.64469c-21.45284,4.2891 -51.32462,-10.51391 -51.32462,-10.51391c0,0 26.79146,-0.60395 48.24429,-4.89305c0,0 38.99566,-7.00656 40.14904,-1.23773z" fill="url(#color-111)"/><path d="M207.4867,312.80074c2.38286,5.37881 -12.54783,15.46177 -32.55031,24.32303c-20.00246,8.86127 -52.38232,0.92406 -52.38232,0.92406c0,0 26.01588,-6.42811 46.01836,-15.28938c0,0 36.5314,-15.33654 38.91427,-9.95771z" fill="url(#color-112)"/></g><g data-paper-data="{&quot;index&quot;:null}" stroke="#000000"><path d="M308.96193,295.00868c21.359,-4.73427 46.11514,-14.99492 46.11514,-14.99492c0,0 -21.35611,25.60023 -42.71511,30.3345c-21.35902,4.73427 -39.36016,5.47601 -40.63324,-0.26757c-1.27308,-5.74359 37.23319,-15.07198 37.23319,-15.07198z" fill="url(#color-113)"/><path d="M309.26402,302.84675c21.7898,-1.95597 47.6574,-8.95704 47.6574,-8.95704c0,0 -24.46286,22.65 -46.25266,24.60599c-21.7898,1.95599 -39.73742,0.38304 -40.2634,-5.47639c-0.52598,-5.85945 38.85866,-10.17254 38.85866,-10.17254z" fill="url(#color-114)"/><path d="M311.57656,309.88707c21.82575,1.50245 48.47344,-1.33448 48.47344,-1.33448c0,0 -27.72672,18.5117 -49.55247,17.00923c-21.82577,-1.50245 -39.30122,-5.88422 -38.89721,-11.75333c0.40401,-5.86912 39.97622,-3.92142 39.97622,-3.92142z" fill="url(#color-115)"/><path d="M309.64867,317.49035c21.45284,4.2891 48.24429,4.89305 48.24429,4.89305c0,0 -29.87179,14.80301 -51.32462,10.51391c-21.45286,-4.2891 -38.22207,-10.87585 -37.06869,-16.64469c1.15336,-5.76883 40.14902,1.23773 40.14902,1.23773z" fill="url(#color-116)"/><path d="M309.1288,322.75845c20.00246,8.86127 46.01836,15.28938 46.01836,15.28938c0,0 -32.37986,7.93721 -52.38232,-0.92406c-20.00248,-8.86127 -34.93317,-18.94422 -32.55031,-24.32303c2.38286,-5.37881 38.91427,9.95771 38.91427,9.95771z" fill="url(#color-117)"/></g><path d="M187.46385,302.3144c7.06744,-14.24369 16.44404,-19.63396 32.15073,-19.96393c8.22733,-0.40231 18.59822,1.48163 21.71098,15.41693c0.7616,3.40958 -0.45765,7.54059 -0.45765,12.53608c0,17.31953 0.00296,30.92185 0.00296,30.92185c0,0 -12.99346,4.22133 -25.65907,4.22133c-15.70985,0 -42.17966,-14.04662 -27.74793,-43.13226z" data-paper-data="{&quot;index&quot;:null}" fill="url(#color-118)" stroke="#000000"/><path d="M266.48102,345.44666c-12.7711,0 -26.07248,-3.99346 -26.07248,-3.99346c0,0 0.41635,-13.96493 0.41635,-31.14972c0,-4.85408 -0.06813,-8.89195 0.65335,-12.2448c3.05572,-14.20035 12.31565,-16.11331 20.59998,-15.70821c15.70669,0.32997 25.08329,5.72024 32.15073,19.96393c14.43173,29.08564 -12.03811,43.13226 -27.74793,43.13226z" fill="url(#color-119)" stroke="#000000"/><path d="M240.57751,284.61066c3.76879,0 6.82399,2.16101 6.82399,4.82674c0,2.66574 -3.05518,13.43036 -6.82399,13.43036c-3.76881,0 -6.82401,-10.76463 -6.82401,-13.43036c0,-2.66574 3.0552,-4.82674 6.82401,-4.82674z" fill="url(#color-120)" stroke="none"/></g></g></g></g></svg>