<svg version="1.1" xmlns="http://www.w3.org/2000/svg" xmlns:xlink="http://www.w3.org/1999/xlink" width="237.27047" height="242.64518" viewBox="0,0,237.27047,242.64518"><defs><linearGradient x1="-110.34158" y1="125.51211" x2="-101.9207" y2="125.00611" gradientUnits="userSpaceOnUse" id="color-1"><stop offset="0" stop-color="#7a7a7a"/><stop offset="1" stop-color="#a4a4a4"/></linearGradient><linearGradient x1="-128.99055" y1="102.12356" x2="-124.4307" y2="101.84956" gradientUnits="userSpaceOnUse" id="color-2"><stop offset="0" stop-color="#7a7a7a"/><stop offset="1" stop-color="#a4a4a4"/></linearGradient><linearGradient x1="-91.73169" y1="99.88472" x2="-87.17184" y2="99.61072" gradientUnits="userSpaceOnUse" id="color-3"><stop offset="0" stop-color="#7a7a7a"/><stop offset="1" stop-color="#a4a4a4"/></linearGradient><linearGradient x1="-108.59419" y1="82.25137" x2="-107.70387" y2="97.06806" gradientUnits="userSpaceOnUse" id="color-4"><stop offset="0" stop-color="#a4a4a4"/><stop offset="1" stop-color="#7a7a7a"/></linearGradient><linearGradient x1="-108.72771" y1="86.6643" x2="-108.46545" y2="91.02875" gradientUnits="userSpaceOnUse" id="color-5"><stop offset="0" stop-color="#6b6b6b"/><stop offset="1" stop-color="#222222"/></linearGradient><linearGradient x1="-99.83977" y1="131.49017" x2="-99.67303" y2="134.26506" gradientUnits="userSpaceOnUse" id="color-6"><stop offset="0" stop-color="#9a9a9a"/><stop offset="1" stop-color="#dedede"/></linearGradient><linearGradient x1="-103.92203" y1="131.71023" x2="-103.75529" y2="134.48513" gradientUnits="userSpaceOnUse" id="color-7"><stop offset="0" stop-color="#9a9a9a"/><stop offset="1" stop-color="#dedede"/></linearGradient><linearGradient x1="-107.97766" y1="131.95393" x2="-107.81092" y2="134.72882" gradientUnits="userSpaceOnUse" id="color-8"><stop offset="0" stop-color="#9a9a9a"/><stop offset="1" stop-color="#dedede"/></linearGradient><linearGradient x1="-112.05993" y1="132.17398" x2="-111.89319" y2="134.94888" gradientUnits="userSpaceOnUse" id="color-9"><stop offset="0" stop-color="#9a9a9a"/><stop offset="1" stop-color="#dedede"/></linearGradient><linearGradient x1="-106.25662" y1="129.00785" x2="-106.00878" y2="133.13232" gradientUnits="userSpaceOnUse" id="color-10"><stop offset="0" stop-color="#a4a4a4"/><stop offset="1" stop-color="#3d3d3d"/></linearGradient><linearGradient x1="-99.64694" y1="135.11927" x2="-99.4802" y2="137.89414" gradientUnits="userSpaceOnUse" id="color-11"><stop offset="0" stop-color="#dedede"/><stop offset="1" stop-color="#9a9a9a"/></linearGradient><linearGradient x1="-103.7262" y1="135.38963" x2="-103.55946" y2="138.16452" gradientUnits="userSpaceOnUse" id="color-12"><stop offset="0" stop-color="#dedede"/><stop offset="1" stop-color="#9a9a9a"/></linearGradient><linearGradient x1="-107.7818" y1="135.63333" x2="-107.61506" y2="138.40822" gradientUnits="userSpaceOnUse" id="color-13"><stop offset="0" stop-color="#dedede"/><stop offset="1" stop-color="#9a9a9a"/></linearGradient><linearGradient x1="-111.86106" y1="135.90369" x2="-111.69432" y2="138.67858" gradientUnits="userSpaceOnUse" id="color-14"><stop offset="0" stop-color="#dedede"/><stop offset="1" stop-color="#9a9a9a"/></linearGradient><linearGradient x1="-105.80147" y1="137.00255" x2="-105.55364" y2="141.12702" gradientUnits="userSpaceOnUse" id="color-15"><stop offset="0" stop-color="#a4a4a4"/><stop offset="1" stop-color="#3d3d3d"/></linearGradient><radialGradient cx="-127.3344" cy="90.16048" r="13.60014" gradientUnits="userSpaceOnUse" id="color-16"><stop offset="0" stop-color="#ffffff"/><stop offset="1" stop-color="#c4bfb5"/></radialGradient><radialGradient cx="-123.63573" cy="87.4749" r="5.05415" gradientUnits="userSpaceOnUse" id="color-17"><stop offset="0" stop-color="#ffffff"/><stop offset="1" stop-color="#ffffff" stop-opacity="0"/></radialGradient><radialGradient cx="-90.2604" cy="88.0758" r="13.60014" gradientUnits="userSpaceOnUse" id="color-18"><stop offset="0" stop-color="#ffffff"/><stop offset="1" stop-color="#c5c1b7"/></radialGradient><radialGradient cx="-86.76297" cy="85.25926" r="5.05415" gradientUnits="userSpaceOnUse" id="color-19"><stop offset="0" stop-color="#ffffff"/><stop offset="1" stop-color="#ffffff" stop-opacity="0"/></radialGradient><linearGradient x1="-107.38813" y1="112.40121" x2="-107.13864" y2="116.55328" gradientUnits="userSpaceOnUse" id="color-20"><stop offset="0" stop-color="#a4a4a4"/><stop offset="1" stop-color="#686868"/></linearGradient><radialGradient cx="-54.76953" cy="34.66036" r="34.31923" gradientUnits="userSpaceOnUse" id="color-21"><stop offset="0" stop-color="#634a14"/><stop offset="1" stop-color="#443014"/></radialGradient><linearGradient x1="-74.86194" y1="35.86735" x2="-72.46561" y2="75.74712" gradientUnits="userSpaceOnUse" id="color-22"><stop offset="0" stop-color="#4a4a4a"/><stop offset="1" stop-color="#000000"/></linearGradient><radialGradient cx="-168.28514" cy="41.48138" r="34.31923" gradientUnits="userSpaceOnUse" id="color-23"><stop offset="0" stop-color="#634a14"/><stop offset="1" stop-color="#443014"/></radialGradient><linearGradient x1="-148.19277" y1="40.27371" x2="-145.79644" y2="80.15348" gradientUnits="userSpaceOnUse" id="color-24"><stop offset="0" stop-color="#4a4a4a"/><stop offset="1" stop-color="#000000"/></linearGradient><radialGradient cx="-87.98168" cy="68.95531" r="51.95424" gradientUnits="userSpaceOnUse" id="color-25"><stop offset="0" stop-color="#e0c297"/><stop offset="1" stop-color="#b9a17e"/></radialGradient><radialGradient cx="-88.59949" cy="50.99305" r="50.24792" gradientUnits="userSpaceOnUse" id="color-26"><stop offset="0" stop-color="#634a14"/><stop offset="1" stop-color="#443014"/></radialGradient><linearGradient x1="-103.58322" y1="163.51405" x2="-99.18778" y2="236.66319" gradientUnits="userSpaceOnUse" id="color-27"><stop offset="0" stop-color="#a4a4a4"/><stop offset="1" stop-color="#7a7a7a"/></linearGradient><linearGradient x1="-103.58322" y1="163.51405" x2="-103.22465" y2="169.4814" gradientUnits="userSpaceOnUse" id="color-28"><stop offset="0" stop-color="#a4a4a4"/><stop offset="1" stop-color="#7a7a7a"/></linearGradient><linearGradient x1="-103.74562" y1="160.81135" x2="-103.06225" y2="172.18412" gradientUnits="userSpaceOnUse" id="color-29"><stop offset="0" stop-color="#303030"/><stop offset="1" stop-color="#4b4b4b"/></linearGradient><linearGradient x1="-230.60635" y1="181.06216" x2="-243.92046" y2="186.68263" gradientUnits="userSpaceOnUse" id="color-30"><stop offset="0" stop-color="#9f896a"/><stop offset="1" stop-color="#6e604b"/></linearGradient><linearGradient x1="-234.10438" y1="178.8622" x2="-250.70783" y2="185.87124" gradientUnits="userSpaceOnUse" id="color-31"><stop offset="0" stop-color="#b9a17e"/><stop offset="1" stop-color="#9f896a"/></linearGradient><linearGradient x1="-237.64188" y1="174.69924" x2="-254.64399" y2="181.87657" gradientUnits="userSpaceOnUse" id="color-32"><stop offset="0" stop-color="#e0c297"/><stop offset="1" stop-color="#b9a17e"/></linearGradient><linearGradient x1="-222.3455" y1="173.34031" x2="-240.7604" y2="181.11406" gradientUnits="userSpaceOnUse" id="color-33"><stop offset="0" stop-color="#e0c297"/><stop offset="1" stop-color="#b9a17e"/></linearGradient><linearGradient x1="-225.62489" y1="182.33585" x2="-231.64363" y2="184.87661" gradientUnits="userSpaceOnUse" id="color-34"><stop offset="0" stop-color="#e0c297"/><stop offset="1" stop-color="#b9a17e"/></linearGradient><radialGradient cx="-183.3747" cy="170.42267" r="9.91648" gradientUnits="userSpaceOnUse" id="color-35"><stop offset="0" stop-color="#bb8c8c"/><stop offset="1" stop-color="#9d7070"/></radialGradient><radialGradient cx="-189.03121" cy="168.45495" r="19.4037" gradientUnits="userSpaceOnUse" id="color-36"><stop offset="0" stop-color="#bb8c8c"/><stop offset="1" stop-color="#9d7070"/></radialGradient><radialGradient cx="-141.0121" cy="168.80019" r="9.91649" gradientUnits="userSpaceOnUse" id="color-37"><stop offset="0" stop-color="#bb8c8c"/><stop offset="1" stop-color="#9d7070"/></radialGradient><radialGradient cx="-147.58834" cy="166.88774" r="19.37124" gradientUnits="userSpaceOnUse" id="color-38"><stop offset="0" stop-color="#bb8c8c"/><stop offset="1" stop-color="#9d7070"/></radialGradient><radialGradient cx="-65.75621" cy="162.45578" r="9.91649" gradientUnits="userSpaceOnUse" id="color-39"><stop offset="0" stop-color="#bb8c8c"/><stop offset="1" stop-color="#9d7070"/></radialGradient><radialGradient cx="-59.95765" cy="166.10012" r="19.37124" gradientUnits="userSpaceOnUse" id="color-40"><stop offset="0" stop-color="#bb8c8c"/><stop offset="1" stop-color="#9d7070"/></radialGradient><radialGradient cx="-76.9053" cy="236.39896" r="28.11579" gradientUnits="userSpaceOnUse" id="color-41"><stop offset="0" stop-color="#bb8c8c"/><stop offset="1" stop-color="#9d7070"/></radialGradient><linearGradient x1="-127.57073" y1="195.70462" x2="-73.57832" y2="192.46028" gradientUnits="userSpaceOnUse" id="color-42"><stop offset="0" stop-color="#bb8c8c"/><stop offset="1" stop-color="#9d7070"/></linearGradient><linearGradient x1="-127.55573" y1="195.95417" x2="-73.56332" y2="192.70983" gradientUnits="userSpaceOnUse" id="color-43"><stop offset="0" stop-color="#d8d8d8"/><stop offset="1" stop-color="#a7a7a7"/></linearGradient><linearGradient x1="-91.5006" y1="189.37632" x2="-105.84871" y2="191.10453" gradientUnits="userSpaceOnUse" id="color-44"><stop offset="0" stop-color="#9f896a"/><stop offset="1" stop-color="#6e604b"/></linearGradient><linearGradient x1="-94.25572" y1="186.2965" x2="-112.14864" y2="188.45167" gradientUnits="userSpaceOnUse" id="color-45"><stop offset="0" stop-color="#b9a17e"/><stop offset="1" stop-color="#9f896a"/></linearGradient><linearGradient x1="-96.50711" y1="181.319" x2="-114.82964" y2="183.52592" gradientUnits="userSpaceOnUse" id="color-46"><stop offset="0" stop-color="#e0c297"/><stop offset="1" stop-color="#b9a17e"/></linearGradient><linearGradient x1="-81.42965" y1="184.23386" x2="-101.27471" y2="186.62419" gradientUnits="userSpaceOnUse" id="color-47"><stop offset="0" stop-color="#e0c297"/><stop offset="1" stop-color="#b9a17e"/></linearGradient><linearGradient x1="-87.06403" y1="191.97519" x2="-93.55019" y2="192.75643" gradientUnits="userSpaceOnUse" id="color-48"><stop offset="0" stop-color="#e0c297"/><stop offset="1" stop-color="#b9a17e"/></linearGradient><radialGradient cx="-43.16689" cy="192.18349" r="9.91648" gradientUnits="userSpaceOnUse" id="color-49"><stop offset="0" stop-color="#bb8c8c"/><stop offset="1" stop-color="#9d7070"/></radialGradient><radialGradient cx="-48.06077" cy="188.73126" r="19.4037" gradientUnits="userSpaceOnUse" id="color-50"><stop offset="0" stop-color="#bb8c8c"/><stop offset="1" stop-color="#9d7070"/></radialGradient></defs><g transform="translate(255.44985,-31.20426)"><g data-paper-data="{&quot;isPaintingLayer&quot;:true}" fill-rule="nonzero" stroke-linecap="butt" stroke-linejoin="miter" stroke-miterlimit="10" stroke-dasharray="" stroke-dashoffset="0" style="mix-blend-mode: normal"><path d="M-64.10375,91.42022c0.56274,9.36511 16.05001,17.35739 5.17076,34.35693c-11.3081,17.66966 -31.36314,22.3555 -46.6277,23.27273c-16.3581,0.98294 -30.88336,1.92402 -48.26161,-18.84637c-11.79399,-14.09611 0.69975,-25.12242 0.2021,-33.40436c-1.47127,-24.48498 17.37496,-45.53809 42.09424,-47.02344c24.71928,-1.48535 45.95092,17.15953 47.42219,41.64451z" fill="#191919" stroke="none" stroke-width="0"/><g><path d="M-83.99059,120.49353c1.37821,-1.08721 2.7255,-4.54943 3.08076,-6.24651c-0.14079,-2.13323 1.11365,-4.88553 0.51152,-6.8683c-0.65159,-2.14562 -2.18833,-4.1435 -3.04471,-6.22786c-0.77886,-1.89564 -1.59814,-3.7176 -2.57801,-5.42764c0.76575,2.33555 1.20856,4.79243 1.01732,6.75762c-0.25738,2.6449 -1.41014,5.1976 -0.79428,7.91564c0.85418,3.76976 3.57462,4.68513 1.85392,8.9148c-0.35858,0.72033 -0.77932,1.30365 -1.25167,1.77766c0.43589,-0.12103 0.84382,-0.31037 1.20514,-0.5954zM-88.72538,88.36492c3.56119,3.27571 5.67855,7.33795 7.49623,11.79842c0.88204,2.16444 2.51886,4.24786 3.14155,6.50111c0.68409,2.47541 -0.55519,5.22973 -0.41509,7.78529c-0.5048,2.35926 -2.07377,6.51715 -4.01283,8.02905c-2.21041,1.72345 -5.09965,1.18314 -7.61447,1.03967c-4.70807,-0.26858 -9.29889,0.73033 -13.68794,2.13066c-0.2675,0.01766 -0.53501,0.03504 -0.80252,0.05222l0.25029,1.19277c0,0 -0.30987,1.20662 -1.47657,0.88072c-0.72855,-0.20351 -0.88133,-0.75044 -0.89333,-1.13254c-0.29785,-0.16584 -0.59702,-0.32371 -0.89631,-0.47577c-0.32906,0.16964 -0.9157,0.32217 -1.4411,-0.31858c-0.01287,-0.0157 -0.02528,-0.03134 -0.03723,-0.04695c-0.21519,-0.10414 -0.42936,-0.2863 -0.5457,-0.60425c-0.18585,-0.08653 -0.37068,-0.17271 -0.5542,-0.25905c0.53917,0.82787 1.01527,1.71079 1.9521,2.24958l0.81085,0.55287c0,0 1.00885,0.69073 0.34593,1.73237c-0.66292,1.04164 -1.67175,0.3509 -1.67175,0.3509l-0.69688,-0.47945c-1.54151,-0.96577 -2.01646,-2.76656 -3.28491,-3.72528c-0.57438,-0.43414 -1.41919,-0.04245 -2.12893,-0.04603c-1.51302,-0.00762 -3.96006,0.09453 -5.26931,-0.90535c-1.89747,-1.44911 -2.08406,-5.19789 -3.65459,-7.12312c-3.98103,-0.00773 -7.56676,-3.20425 -7.04742,-7.64448c0.12897,-1.10275 0.97545,-1.98661 1.30107,-3.0442c0.67864,-2.20422 -1.4777,-5.16794 -1.91445,-7.14596c-0.58959,-2.67029 0.46926,-4.71878 1.83822,-6.6876c0.04789,-0.15716 0.09754,-0.3162 0.14867,-0.47733c0,0 0.20684,-0.6489 0.7788,-0.82604c-0.0152,-0.14509 -0.02778,-0.29101 -0.03767,-0.4378c0,0 -0.07498,-1.24775 1.12984,-1.32015c1.20482,-0.0724 1.2798,1.17535 1.2798,1.17535c0.22805,4.49748 3.42332,7.04548 6.10471,10.05791c0.61192,0.68747 1.49589,2.40115 1.72544,3.28461c0.21273,0.81876 -0.28731,2.59304 0.55696,3.21046c1.22102,0.89295 4.00667,0.66537 4.91918,1.88312c1.03159,1.37667 0.96358,3.34369 1.62505,4.94489c1.21139,1.79191 1.96328,3.4898 2.66253,5.53654l0.19511,0.49776c0,0 0.45214,1.16083 -0.66715,1.62408c-1.11929,0.46326 -1.57141,-0.69757 -1.57141,-0.69757l-0.23227,-0.59948c-0.66139,-1.93595 -1.36199,-3.4533 -2.49754,-5.15703c-0.59093,-1.4279 -0.51735,-3.13081 -1.28987,-4.46313c-0.32511,-0.56069 -3.95213,-0.99328 -4.69062,-1.6568c-1.84277,-1.6557 -0.85033,-3.74654 -1.87062,-5.69253c-0.70462,-1.34392 -1.97783,-1.99828 -2.95027,-3.15467c-1.38619,-1.64842 -2.63964,-3.45528 -3.46135,-5.44424c-0.28381,1.26799 -0.2349,2.43546 0.78601,3.74231c0.747,0.95622 1.88204,1.60079 2.44734,2.68203c1.15495,2.20906 -0.08463,6.61594 2.20575,8.26634c2.87475,2.07149 5.94468,3.25424 7.61274,6.67536c0.65435,3.17399 2.49331,4.6025 4.732,5.72617l0.40987,-0.02463c1.53258,-0.02468 2.88948,-1.24953 4.24263,-2.00668c2.48153,-1.38853 5.07016,-2.46329 7.23217,-4.36548c1.58474,-1.6647 0.72892,-5.69456 1.14314,-7.88719c0.35593,-1.884 1.84694,-2.69324 2.91932,-4.04703c1.18247,-1.49278 2.21294,-3.74758 2.72204,-5.56633c0.95526,-3.41267 -0.7041,-6.782 -0.9125,-10.16635c0,0 -0.07498,-1.24775 1.12984,-1.32015c0.96217,-0.05782 1.20377,0.72631 1.26205,1.0445c0.59962,-0.17545 1.11959,0.30209 1.11959,0.30209zM-92.87138,120.81185c2.45063,-0.14726 5.5762,0.05962 6.73204,-2.55044c1.29217,-3.1072 -1.29078,-4.27994 -2.01315,-7.32228c-0.71151,-2.99659 0.44097,-5.73784 0.74055,-8.64603c0.2017,-1.95801 -0.41259,-4.70027 -1.3425,-7.09164c0.12882,1.32659 0.10163,2.67541 -0.27523,4.09039c-0.55885,2.09828 -1.79627,4.65096 -3.13801,6.35741c-0.67129,0.85376 -2.27583,1.76417 -2.43932,3.01247c-0.41408,3.16148 0.25362,6.58954 -1.80977,9.13401c-1.14155,1.00015 -2.72781,2.21608 -4.47355,3.35703c2.59788,-0.26319 5.26862,-0.17564 8.01894,-0.3409zM-117.00517,117.48919c-1.37912,-2.85289 -4.58644,-3.70751 -6.85642,-5.5559c-2.30897,-1.88012 -2.06803,-5.13228 -2.47415,-7.74706c-0.25274,-1.6273 -1.18545,-2.06062 -2.09051,-3.03637c0.41738,0.99735 0.87354,1.98992 1.05658,2.996c0.7168,3.9398 -3.57521,9.55398 2.66526,10.94906c0.61735,0.13801 1.25743,0.11702 1.88615,0.17552c1.6299,1.64114 2.34579,2.82808 3.22556,4.992c0.3188,0.78413 0.1628,1.93904 0.85868,2.39209c1.36772,0.89046 3.31062,0.33122 5.02697,0.30506c-1.57543,-1.19209 -2.78688,-2.81014 -3.29813,-5.47041z" fill="#000000" stroke="none" stroke-width="0.5"/><path d="M-107.94319,165.42616l-4.79677,-79.8281l8.42088,-0.506l4.79083,79.72918z" fill="url(#color-1)" stroke="none" stroke-width="0"/><path d="M-128.05959,117.61664l-1.86192,-30.98617l4.55986,-0.274l1.85961,30.94777z" fill="url(#color-2)" stroke="none" stroke-width="0"/><path d="M-90.80073,115.3778l-1.86192,-30.98617l4.55986,-0.274l1.85961,30.94777z" fill="url(#color-3)" stroke="none" stroke-width="0"/><path d="M-133.81927,98.6373l-0.89032,-14.81667l52.23079,-3.13849l0.89032,14.81667z" fill="url(#color-4)" stroke="none" stroke-width="0"/><path d="M-142.64107,93.08232l-0.26226,-4.36449l68.35126,-4.10714l0.26226,4.36449z" fill="url(#color-5)" stroke="none" stroke-width="0"/><g stroke="none" stroke-width="0"><path d="M-101.38065,134.36767l-0.16674,-2.77489l3.41525,-0.20522l0.16674,2.77489z" fill="url(#color-6)"/><path d="M-105.46292,134.58774l-0.16674,-2.77489l3.41526,-0.20522l0.16674,2.77489z" fill="url(#color-7)"/><path d="M-109.51854,134.83143l-0.16674,-2.77489l3.41525,-0.20522l0.16674,2.77489z" fill="url(#color-8)"/><path d="M-113.60081,135.05149l-0.16674,-2.77489l3.41525,-0.20522l0.16674,2.77489z" fill="url(#color-9)"/><path d="M-116.46628,133.76069l-0.24783,-4.12447l20.91501,-1.25676l0.24783,4.12447z" fill="url(#color-10)"/></g><g data-paper-data="{&quot;index&quot;:null}" stroke="none" stroke-width="0"><path d="M-97.93931,135.01666l0.16674,2.77489l-3.41525,0.20522l-0.16674,-2.77489z" fill="url(#color-11)"/><path d="M-102.01857,135.28702l0.16674,2.77489l-3.41525,0.20522l-0.16674,-2.77489z" fill="url(#color-12)"/><path d="M-106.07417,135.53072l0.16674,2.77489l-3.41525,0.20522l-0.16674,-2.77489z" fill="url(#color-13)"/><path d="M-110.15343,135.80108l0.16674,2.77489l-3.41525,0.20522l-0.16674,-2.77489z" fill="url(#color-14)"/><path d="M-95.34396,136.37417l0.24783,4.12447l-20.91501,1.25676l-0.24783,-4.12447z" fill="url(#color-15)"/></g><g stroke-width="0"><g><path d="M-113.82663,89.34881c0.45052,7.49763 -5.2319,13.93905 -12.69203,14.38732c-7.46013,0.44827 -13.873,-5.26636 -14.32352,-12.76399c-0.45052,-7.49763 5.2319,-13.93905 12.69203,-14.38732c7.46013,-0.44827 13.873,5.26636 14.32352,12.76399z" fill="url(#color-16)" stroke="#000000"/><path d="M-122.75428,89.94963c0.16743,2.7863 -1.80159,5.17152 -4.39792,5.32753c-2.59633,0.15601 -4.83679,-1.97626 -5.00421,-4.76257c-0.16743,-2.7863 1.80158,-5.17151 4.39791,-5.32752c2.59633,-0.15601 4.8368,1.97625 5.00422,4.76256z" fill="#000000" stroke="none"/></g><path d="M-118.93467,87.19242c0.16743,2.7863 -1.80159,5.17152 -4.39792,5.32753c-2.59633,0.15601 -4.83679,-1.97626 -5.00421,-4.76257c-0.16743,-2.7863 1.80158,-5.17151 4.39791,-5.32752c2.59633,-0.15601 4.8368,1.97625 5.00422,4.76256z" fill="url(#color-17)" stroke="none"/></g><g stroke-width="0"><g><path d="M-76.75261,87.26413c0.45052,7.49763 -5.2319,13.93905 -12.69203,14.38732c-7.46013,0.44827 -13.873,-5.26636 -14.32352,-12.76399c-0.45052,-7.49763 5.2319,-13.93905 12.69203,-14.38732c7.46013,-0.44827 13.873,5.26636 14.32352,12.76399z" fill="url(#color-18)" stroke="#000000"/><path d="M-85.68026,87.86496c0.16743,2.7863 -1.80159,5.17152 -4.39791,5.32753c-2.59633,0.15601 -4.83679,-1.97626 -5.00421,-4.76257c-0.16743,-2.7863 1.80158,-5.17151 4.39791,-5.32752c2.59633,-0.15601 4.83679,1.97625 5.00421,4.76256z" fill="#000000" stroke="none"/></g><path d="M-82.06191,84.97678c0.16743,2.7863 -1.80159,5.17152 -4.39792,5.32753c-2.59633,0.15601 -4.83679,-1.97626 -5.00421,-4.76257c-0.16743,-2.7863 1.80158,-5.17151 4.39791,-5.32752c2.59633,-0.15601 4.8368,1.97625 5.00422,4.76256z" fill="url(#color-19)" stroke="none"/></g><path d="M-128.04799,117.80969l-0.24949,-4.15206l41.81872,-2.51284l0.24918,4.14691z" fill="url(#color-20)" stroke="none" stroke-width="0"/></g><g data-paper-data="{&quot;index&quot;:null}" stroke="none" stroke-width="0"><path d="M-18.1794,74.43841c0,0 -0.36502,7.97375 -2.71447,10.91333c-2.63774,3.30028 -6.11934,6.96059 -9.0149,7.62947c-3.60795,0.83344 -7.54661,0.47503 -10.68487,-3.00812c-1.77117,-1.96582 -6.09168,-6.47518 -8.58581,-11.56743c-3.39183,-6.9251 -5.08153,-14.44427 -7.93186,-13.62102c-14.29925,4.13006 -35.85536,-6.71625 -34.60997,-10.34065c1.04282,-3.03485 7.91058,-12.82204 15.89429,-16.49524c34.40114,-21.55804 31.55325,14.33634 37.58838,27.13503c1.8758,3.978 4.15793,7.12152 6.57173,10.21222c1.59921,2.0477 4.23551,3.17455 6.84366,3.78828c4.01271,0.94425 6.64383,-4.64588 6.64383,-4.64588z" fill="url(#color-21)"/><path d="M-92.72075,43.57151l7.20814,-7.06419l30.9058,31.53563l-7.20814,7.06418z" fill="url(#color-22)"/></g><g stroke="none" stroke-width="0"><path d="M-186.35563,84.59107c2.02632,-3.35752 3.91562,-6.75169 5.30157,-10.92567c4.45912,-13.42928 -2.66645,-48.72436 34.06863,-31.4408c8.36611,2.69075 16.35642,11.58514 17.75514,14.47328c1.67043,3.4492 -18.43178,16.7987 -33.1227,14.41063c-2.92841,-0.47603 -3.70555,7.19138 -6.24373,14.47281c-1.86641,5.35428 -5.61587,10.34856 -7.1389,12.51231c-2.69859,3.83389 -6.56599,4.66134 -10.24778,4.26594c-2.95481,-0.31733 -6.84968,-3.53441 -9.86363,-6.49508c-0.43496,-0.42728 -0.83402,-0.99199 -1.19741,-1.6384c0.85325,0.47071 1.66652,0.9703 2.86744,0.91974c1.52002,-0.09134 2.00395,-0.49351 1.44362,-1.68211c0.21135,-0.35733 0.3404,-1.01883 0.38951,-1.19329c0.11368,-0.40384 2.44479,-0.25531 2.79001,-1.50314c0.27855,-1.00684 -1.16949,-1.41258 -2.49709,-1.84412c2.28756,-0.92486 4.46786,-2.29826 5.69529,-4.33206z" fill="url(#color-23)"/><path d="M-156.44711,80.79346l-8.00218,-6.15021l26.90718,-35.00953l8.00218,6.15022z" fill="url(#color-24)"/></g><path d="M-64.11673,91.20415c0.56274,9.36511 16.05001,17.35739 5.17077,34.35693c-11.3081,17.66966 -31.36314,22.3555 -46.6277,23.27273c-16.3581,0.98294 -30.88336,1.92402 -48.26161,-18.84637c-11.79399,-14.09611 0.69975,-25.12242 0.2021,-33.40436c-1.47127,-24.48498 17.37496,-45.53809 42.09424,-47.02344c24.71928,-1.48535 45.95092,17.15953 47.42219,41.64451zM-88.7818,102.86394c8.26935,-0.4969 14.57018,-7.60335 14.07328,-15.8727c-0.4969,-8.26935 -7.60335,-14.57018 -15.8727,-14.07328c-8.26935,0.4969 -14.57018,7.60335 -14.07328,15.8727c0.4969,8.26935 7.60335,14.57018 15.8727,14.07328zM-126.40409,104.89447c8.26935,-0.4969 14.57018,-7.60335 14.07328,-15.8727c-0.4969,-8.26935 -7.60335,-14.57018 -15.8727,-14.07328c-8.26935,0.4969 -14.57018,7.60335 -14.07328,15.8727c0.4969,8.26935 7.60335,14.57018 15.8727,14.07328zM-105.53851,141.89949c18.43979,-0.76155 28.56242,-12.96611 28.23116,-18.479c-0.33126,-5.5129 -11.2139,4.81839 -28.39543,5.81754c-22.1115,1.28585 -29.40948,-7.95068 -29.07821,-2.43776c0.33126,5.5129 11.08755,15.84902 29.24248,15.09923z" fill="url(#color-25)" stroke="none" stroke-width="0"/><path d="M-61.68447,71.82677c2.45658,9.91245 5.42077,16.7057 -3.28251,24.15712c-9.51186,8.1437 10.82019,-42.11922 -45.86516,-38.48154c-57.58949,3.20588 -31.78831,50.4505 -42.29878,42.79086c-8.59534,-6.26396 -6.76559,-13.59318 -4.54542,-22.94885c5.39588,-22.73801 15.47246,-29.93322 45.62805,-31.74523c30.15559,-1.81201 45.07404,4.88309 50.36383,26.22766z" fill="url(#color-26)" stroke="none" stroke-width="0"/><path d="M-127.76817,235.36181c0,0 -1.52086,-38.40927 -4.72476,-52.93131c-2.18673,-9.91163 -12.44401,-22.50015 -12.44401,-22.50015c0,0 27.31297,-9.79404 41.23579,-10.53009c13.65014,-0.72163 41.49926,6.15622 41.49926,6.15622c0,0 -10.25318,12.05115 -11.30798,21.54013c-1.63529,14.71107 2.25225,54.86954 2.25225,54.86954z" fill="#191919" stroke="none" stroke-width="0"/><g stroke="none"><path d="M-104.69682,168.4836c0.37083,-0.28075 0.70814,-0.31905 0.98553,-0.25645l-0.07357,-1.08137c0,0 -0.07498,-1.24775 1.17277,-1.32273c1.24775,-0.07498 1.32273,1.17277 1.32273,1.17277l0.05874,1.17902c0.16682,0.47413 0.31609,1.01456 0.43087,1.58842l0.25293,0.71888c0.24705,0.70304 0.44226,1.409 0.59876,2.11693c2.30631,4.2705 2.12386,10.12343 2.40009,14.76598c-0.00427,0.1314 -0.00892,0.26269 -0.01392,0.39387c1.6068,3.29859 3.86072,6.42074 4.32231,10.06258c0.45262,3.57102 -1.78029,6.7278 -1.13804,10.24116c0.25154,1.37602 4.00422,6.68916 5.32856,5.42506c1.16248,-1.34108 2.94234,-2.84545 3.29966,-4.7013c0.3367,-1.74875 -0.98193,-3.64199 -1.30711,-5.27325c-0.1695,-0.85032 -0.10842,-3.87253 -0.048,-4.31558c0.35063,-2.5711 2.28532,-4.55715 3.41722,-6.76862c0.04766,-0.09312 0.09424,-0.18592 0.13975,-0.2784c-0.55198,-2.89905 -1.5181,-5.70615 -3.04772,-8.29357c-1.47559,-3.31038 -4.21552,-7.30459 -3.03579,-11.17979c1.79692,-5.90253 8.38711,-6.59317 13.24166,-8.55375c0.26087,-0.10536 0.51709,-0.2062 0.76978,-0.30097c0.13186,-0.05816 0.26353,-0.11372 0.39483,-0.16661c0.26581,-0.10708 0.53867,-0.18625 0.81714,-0.24174c1.61698,-0.4698 3.16136,-0.56467 4.96388,0.16057c0,0 0.40942,0.17486 0.63522,0.5602c0.88652,0.22776 1.74347,0.42849 2.53218,0.48609c0,0 1.24582,0.10224 1.14358,1.34804c-0.10224,1.24582 -1.34804,1.14358 -1.34804,1.14358c-1.85337,-0.16525 -5.27891,-1.77934 -7.35456,-1.29186c-0.18266,0.0603 -0.36585,0.12653 -0.55019,0.1965c-2.6425,1.25252 -6.02455,3.71935 -6.21512,6.84696c-0.15911,2.61101 1.07663,5.1623 1.24708,7.7321c0.25374,4.22267 0.13798,7.78783 -1.47905,11.61844c1.99015,9.69798 -0.34059,20.25096 -8.19579,26.6119c-4.12932,2.66528 -6.87045,-2.79126 -9.08229,-5.80444c-5.02301,-6.84284 -2.36545,-16.82271 -1.97004,-24.78229c-0.18889,-0.3949 -0.36559,-0.79088 -0.52508,-1.18864c-1.05244,-3.71929 -0.83702,-7.50904 -1.30109,-11.27122c-0.47869,0.35634 -1.02226,0.66234 -1.24298,1.19319c-0.42161,1.01406 -0.01523,2.78636 -0.04045,3.62876c-0.06994,2.33631 -1.13169,4.21937 -0.95826,6.52162c0.14783,2.46027 1.57016,7.67852 -0.03257,9.84032c-0.45513,0.61388 -1.06006,0.97259 -1.74997,1.1353c-1.42741,1.28453 -3.53757,1.93063 -3.72203,4.08486c-0.28026,3.27309 2.90758,3.82189 3.99662,6.29326c1.23895,2.81158 0.37754,6.11804 -2.09502,7.71075c-4.83424,3.93216 -12.69866,2.83722 -14.06426,-4.2301c-0.49376,-2.55527 2.50742,-7.01319 1.27728,-9.22672c-1.2455,-2.24117 -3.79476,-3.97223 -5.17294,-6.35868c-2.43725,-3.78136 -1.36705,-8.21966 -2.23707,-12.46201c-0.69242,-3.37634 -2.18833,-6.52232 -3.59648,-9.58017c-0.84473,-1.83436 -1.5236,-4.58367 -3.80312,-4.78694c-0.35435,0.22321 -0.7201,0.45449 -1.12003,0.68615c0,0 -1.08249,0.62506 -1.70756,-0.45742c-0.62506,-1.08249 0.45741,-1.70756 0.45741,-1.70756c0.11665,-0.06714 0.2353,-0.13391 0.35578,-0.20022c0.24375,-0.743 1.11317,-0.79524 1.11317,-0.79524c0.16126,-0.00307 0.31815,-0.0017 0.47086,0.004c5.0432,-2.27575 11.97223,-3.16505 13.96395,3.80213c1.02178,3.57429 -0.53958,6.18573 2.59406,8.99006c3.16127,1.55031 5.30158,3.91757 5.96839,7.45847c0.3637,1.93133 -0.0838,3.88678 1.1319,5.6306c0.56248,0.80682 1.17593,1.12911 2.02941,1.60914c0.19729,0.11096 1.87185,0.74714 2.93078,1.01452c0.71467,-2.83384 -0.71791,-6.70928 -1.46814,-9.34311c-0.48998,-3.02133 -1.93775,-7.02552 -1.36372,-10.09165c0.40572,-2.16708 2.08147,-4.79022 3.35196,-6.52783l0.02684,-0.14746c0,0 0.48094,-1.1261 1.60535,-0.67318c0.07652,-0.10613 0.17819,-0.2109 0.31089,-0.31137zM-98.2783,204.20829c0.12475,2.07615 0.03939,4.27361 1.18948,6.12091c1.25201,2.01102 2.88516,3.78981 4.46285,5.53828c0.91384,1.01276 1.06077,2.09965 2.0566,0.9906c0.36111,-0.29192 0.71267,-0.59893 1.05602,-0.91755c-2.90474,0.01504 -5.23544,-3.03925 -6.71358,-5.69294c-2.24584,-4.03193 1.03015,-8.02365 0.50602,-12.12136c-0.25446,-1.98943 -1.13356,-3.87318 -2.12908,-5.72485c-0.30334,3.91839 -0.66892,7.80267 -0.42831,11.80691zM-83.14554,203.41482c0.2165,-2.4286 0.27879,-4.90594 0.10147,-7.35903c-0.74695,1.11471 -1.43918,2.27278 -1.59144,3.53455c-0.27953,2.31642 0.74441,4.4635 1.2183,6.63277c0.12878,-0.99005 0.19634,-1.96325 0.27167,-2.8083zM-87.21794,173.33073c-0.98362,3.13954 1.67773,6.75336 2.85026,9.39133c0.90637,1.60148 1.6745,3.29459 2.29636,5.04576c0.41911,-2.23052 0.37585,-4.46538 0.22225,-7.02152c-0.13949,-2.66882 -1.43146,-5.27393 -1.24854,-8.00529c0.10541,-1.57413 0.76133,-3.07041 1.73779,-4.39863c-2.62772,0.9476 -5.01535,2.2984 -5.85811,4.98837zM-104.01791,171.44116l-0.4745,-0.62155l-0.13441,0.2784c-1.05479,1.42065 -2.56843,3.68907 -2.90187,5.47285c-0.43862,2.34649 0.58319,5.51434 1.13392,8.04621c0.27365,-1.33769 0.67066,-2.61933 0.7063,-4.11169c0.04396,-1.84082 -0.49848,-2.7959 0.24455,-4.52579c0.40111,-0.93387 1.55106,-1.35793 2.09145,-2.21873c0.20879,-0.33259 0.31261,-0.7665 0.34436,-1.24711c-0.30174,-0.3832 -0.63702,-0.74208 -1.0098,-1.07259zM-129.29688,173.23699c1.47966,3.22434 3.05854,6.57044 3.78758,10.12594c0.78362,3.82164 -0.29044,8.36667 1.92727,11.70003c1.35247,2.34243 4.22849,4.26047 5.29163,6.57489c1.50567,3.27778 -1.69408,6.69887 -1.06082,9.90109c1.04872,5.30309 6.78252,5.42366 10.15978,2.60553c4.3742,-2.32117 -0.80927,-5.95916 -2.01204,-8.0401c-0.43089,-0.7455 -1.01313,-3.43835 -0.93739,-4.16794c0.12478,-1.20207 1.05348,-2.92535 1.94832,-3.78439c0.19291,-0.18519 0.429,-0.34198 0.68366,-0.48814c-1.97937,-0.75122 -3.8633,-2.14515 -4.66068,-3.27754c-2.02363,-2.87387 -0.78246,-6.48523 -2.54467,-9.41392c-0.88993,-1.47901 -2.42302,-2.29612 -3.90184,-3.03277c-1.41405,-1.24618 -2.65773,-2.54421 -3.24888,-4.41496c-0.58927,-1.86477 0.12364,-4.10543 -0.35961,-5.98459c-0.93612,-3.64027 -5.42797,-4.28731 -8.3355,-3.39457c1.50383,1.14285 2.33119,3.06047 3.26319,5.09143z" fill="#303030" stroke-width="0.5"/><path d="M-105.72283,237.05587l-4.39544,-73.14914l13.07011,-0.78537l4.39544,73.14914z" fill="url(#color-27)" stroke-width="0"/><path d="M-142.38534,171.83452l-0.35857,-5.96735l78.32138,-4.70624l0.35857,5.96735z" fill="url(#color-28)" stroke-width="0"/><path d="M-130.83292,173.85283l-0.68338,-11.37278l55.54135,-3.33741l0.68338,11.37278z" fill="url(#color-29)" stroke-width="0"/></g><g data-paper-data="{&quot;index&quot;:null}" stroke="none" stroke-width="0"><path d="M-239.25989,192.82576c-3.91872,0.64483 -3.7315,-5.71854 -1.68296,-9.87783c2.04854,-4.15929 4.41583,-9.29477 7.12712,-7.80456c2.83299,1.5571 0.98158,4.67313 -1.06695,8.83243c-2.04854,4.15929 -1.05229,7.19976 -4.37721,8.84996z" fill="url(#color-30)"/><path d="M-248.18639,189.47352c-3.78502,-1.20244 -0.73235,-6.78892 2.97966,-9.56689c3.71201,-2.77798 8.15084,-6.28143 9.89146,-3.7237c1.81876,2.67253 -1.24442,4.61011 -4.95644,7.38808c-3.71201,2.77798 -4.20296,5.93962 -7.91468,5.90251z" fill="url(#color-31)"/><path d="M-254.84919,181.08509c-2.47005,-3.10983 3.18038,-6.04242 7.81087,-6.27647c4.63049,-0.23405 10.26893,-0.66459 10.28621,2.42919c0.01807,3.23266 -3.60506,3.13132 -8.23555,3.36537c-4.63049,0.23405 -6.80205,2.58379 -9.86153,0.48191z" fill="url(#color-32)"/><path d="M-241.81768,177.86413c-0.36601,-4.9953 4.39797,-4.34814 10.07976,-4.63534c5.68177,-0.28718 10.44773,-0.73171 10.49577,3.59534c0.0502,4.52129 -4.39797,4.34814 -10.07976,4.63534c-5.68177,0.28718 -10.15836,1.00977 -10.49577,-3.59534z" fill="url(#color-33)"/><path d="M-231.50861,183.91349c-2.10448,-4.13127 -3.99775,-7.22204 -1.18603,-8.81723c2.69093,-1.52665 5.12731,3.57643 7.23178,7.7077c2.10448,4.13127 2.37754,10.49153 -1.54952,9.89963c-3.34689,-1.6052 -2.39175,-4.65884 -4.49623,-8.79011z" data-paper-data="{&quot;index&quot;:null}" fill="url(#color-34)"/></g><g stroke="none" stroke-width="0"><path d="M-184.20012,185.09231c-5.46962,0.27908 -10.12524,-3.83833 -10.39862,-9.19648c-0.2734,-5.35816 3.93897,-9.92804 9.40858,-10.20712c5.46962,-0.27908 10.12523,3.83832 10.39862,9.19648c0.2734,5.35816 -3.93897,9.92804 -9.40858,10.20713z" fill="url(#color-35)"/><path d="M-223.93435,169.16186l38.53476,-4.21072l1.07572,21.08277l-38.71369,-0.45625z" fill="url(#color-36)"/></g><g stroke="none" stroke-width="0"><path d="M-141.87461,182.52466c-5.46572,0.34709 -10.1722,-3.71209 -10.51222,-9.06643c-0.34002,-5.35435 3.81518,-9.97627 9.2809,-10.32336c5.46572,-0.34709 10.1722,3.71209 10.51222,9.06643c0.34002,5.35435 -3.81518,9.97627 -9.28089,10.32335z" fill="url(#color-37)"/><path d="M-181.91765,164.85078l38.59314,-2.4508l1.33788,21.06776l-38.59314,2.4508z" fill="url(#color-38)"/></g><g data-paper-data="{&quot;index&quot;:null}" stroke="none" stroke-width="0"><path d="M-75.44057,172.21886c-3.37199,-4.31557 -2.67834,-10.49187 1.54931,-13.79515c4.22765,-3.30327 10.38836,-2.48264 13.76035,1.83295c3.37199,4.31559 2.67833,10.49189 -1.54931,13.79516c-4.22765,3.30327 -10.38836,2.48264 -13.76035,-1.83295z" fill="url(#color-39)"/><path d="M-52.2616,203.40128l-23.80939,-30.47212l16.63454,-12.9974l23.80939,30.47212z" fill="url(#color-40)"/></g><path d="M-127.54361,235.51005c-0.49994,-8.31995 55.63039,-11.69276 56.13033,-3.3728c0.49994,8.31995 -11.65998,15.81964 -27.15994,16.75101c-15.49995,0.93137 -28.47044,-5.05825 -28.97037,-13.37821z" fill="url(#color-41)" stroke="none" stroke-width="0"/><g><g><path d="M-127.91231,235.19312c0,0 -1.34559,-38.60696 -4.54949,-53.12899c-2.18673,-9.91163 -12.42015,-22.10313 -12.42015,-22.10313c0,0 27.28912,-10.19107 41.21194,-10.92711c13.65014,-0.72163 41.52311,6.55325 41.52311,6.55325c0,0 -10.27703,11.65413 -11.33184,21.14311c-1.63529,14.71107 2.44994,55.04481 2.44994,55.04481l24.71586,26.48064c0,0 3.86644,11.61627 -50.5611,15.22963c-52.34158,2.49152 -53.86721,-8.61949 -53.86721,-8.61949z" fill="url(#color-42)" stroke="none" stroke-width="0"/><path d="" fill="#ffdf00" stroke="#ffdf00" stroke-width="2"/></g><g><path d="M-128.42844,228.5945l-0.98228,-17.21374l56.4228,-3.39302l1.43244,17.44142z" fill="url(#color-43)" stroke="none" stroke-width="0"/><path d="" fill="#ffdf00" stroke="#ffdf00" stroke-width="2"/></g></g><g data-paper-data="{&quot;index&quot;:null}" stroke="none" stroke-width="0"><path d="M-103.06429,198.29521c-3.9445,-0.46158 -2.00858,-6.52621 1.10817,-9.95871c3.11676,-3.4325 6.80927,-7.71532 9.00405,-5.5348c2.29331,2.2784 -0.34608,4.76255 -3.46282,8.19506c-3.11676,3.4325 -2.9982,6.62983 -6.6494,7.29845z" fill="url(#color-44)"/><path d="M-110.71915,192.60988c-3.30624,-2.20022 1.16948,-6.72741 5.50394,-8.37319c4.33446,-1.64579 9.56772,-3.78832 10.53495,-0.84957c1.01066,3.07065 -2.46826,4.08771 -6.80273,5.73349c-4.33446,1.64579 -5.6788,4.54919 -9.23617,3.48928z" fill="url(#color-45)"/><path d="M-114.80846,182.70856c-1.51598,-3.67069 4.72429,-4.93018 9.23958,-3.87736c4.51528,1.05282 10.0536,2.19492 9.21649,5.17335c-0.87468,3.11213 -4.32917,2.01492 -8.84445,0.9621c-4.51528,-1.05282 -7.25094,0.60645 -9.61161,-2.25809z" fill="url(#color-46)"/><path d="M-101.39412,183.2087c1.02665,-4.90234 5.42708,-2.96569 10.9675,-1.67385c5.54041,1.29185 10.24398,2.17975 9.09611,6.35204c-1.1994,4.35959 -5.42708,2.96569 -10.9675,1.67385c-5.54041,-1.29185 -10.04258,-1.83263 -9.09611,-6.35204z" fill="url(#color-47)"/><path d="M-93.15465,191.86796c-0.88274,-4.55159 -1.84961,-8.0448 1.29313,-8.80216c3.00772,-0.72482 3.94131,4.85244 4.82405,9.40403c0.88274,4.55159 -0.60991,10.74025 -4.22116,9.08765c-2.77398,-2.46645 -1.01327,-5.13795 -1.89602,-9.68954z" data-paper-data="{&quot;index&quot;:null}" fill="url(#color-48)"/></g><g data-paper-data="{&quot;index&quot;:null}" stroke="none" stroke-width="0"><path d="M-48.00834,206.05577c-5.33426,-1.24109 -8.67291,-6.48335 -7.4571,-11.7089c1.2158,-5.22556 6.52567,-8.45559 11.85992,-7.2145c5.33426,1.24109 8.6729,6.48334 7.4571,11.7089c-1.2158,5.22556 -6.52567,8.45559 -11.85992,7.21451z" fill="url(#color-49)"/><path d="M-81.80377,179.77922l38.20048,6.58643l-4.78383,20.56101l-37.08461,-11.12156z" fill="url(#color-50)"/></g></g></g></svg>