<svg version="1.1" xmlns="http://www.w3.org/2000/svg" xmlns:xlink="http://www.w3.org/1999/xlink" width="738.90718" height="592.4105" viewBox="0,0,738.90718,592.4105"><defs><radialGradient cx="547.87349" cy="332.03731" r="41.38678" gradientUnits="userSpaceOnUse" id="color-1"><stop offset="0" stop-color="#a3a3a3"/><stop offset="1" stop-color="#5d5d5d"/></radialGradient><radialGradient cx="450.32761" cy="281.73967" r="50.51008" gradientUnits="userSpaceOnUse" id="color-2"><stop offset="0" stop-color="#a3a3a3"/><stop offset="1" stop-color="#5d5d5d"/></radialGradient><radialGradient cx="563.37619" cy="282.36453" r="114.3519" gradientUnits="userSpaceOnUse" id="color-3"><stop offset="0" stop-color="#a3a3a3"/><stop offset="1" stop-color="#5d5d5d"/></radialGradient><radialGradient cx="601.72421" cy="270.18352" r="15.92597" gradientUnits="userSpaceOnUse" id="color-4"><stop offset="0" stop-color="#a7a7a7"/><stop offset="1" stop-color="#7a7a7a"/></radialGradient><radialGradient cx="603.51454" cy="265.74651" r="32.19362" gradientUnits="userSpaceOnUse" id="color-5"><stop offset="0" stop-color="#efefef"/><stop offset="1" stop-color="#bdbdbd"/></radialGradient><linearGradient x1="480.41371" y1="257.44063" x2="504.27808" y2="347.15555" gradientUnits="userSpaceOnUse" id="color-6"><stop offset="0" stop-color="#efefef"/><stop offset="1" stop-color="#bdbdbd"/></linearGradient><radialGradient cx="-58.37037" cy="270.73773" r="108.04468" gradientUnits="userSpaceOnUse" id="color-7"><stop offset="0" stop-color="#c5c5c5"/><stop offset="1" stop-color="#5d5d5d"/></radialGradient><linearGradient x1="44.01175" y1="310.46451" x2="33.16932" y2="339.72958" gradientUnits="userSpaceOnUse" id="color-8"><stop offset="0" stop-color="#c5c5c5"/><stop offset="1" stop-color="#5d5d5d"/></linearGradient><radialGradient cx="46.49195" cy="299.63845" r="107.34936" gradientUnits="userSpaceOnUse" id="color-9"><stop offset="0" stop-color="#c5c5c5"/><stop offset="1" stop-color="#5d5d5d"/></radialGradient><radialGradient cx="-94.27073" cy="251.95193" r="15.92597" gradientUnits="userSpaceOnUse" id="color-10"><stop offset="0" stop-color="#a7a7a7"/><stop offset="1" stop-color="#7a7a7a"/></radialGradient><linearGradient x1="109.35994" y1="334.82475" x2="109.35994" y2="424.39584" gradientUnits="userSpaceOnUse" id="color-11"><stop offset="0" stop-color="#c5c5c5"/><stop offset="1" stop-color="#5d5d5d"/></linearGradient><linearGradient x1="243.45965" y1="251.81199" x2="243.45965" y2="389.15234" gradientUnits="userSpaceOnUse" id="color-12"><stop offset="0" stop-color="#a3a3a3"/><stop offset="1" stop-color="#5d5d5d"/></linearGradient><linearGradient x1="243.96714" y1="334.84711" x2="243.96714" y2="503.81398" gradientUnits="userSpaceOnUse" id="color-13"><stop offset="0" stop-color="#c5c5c5"/><stop offset="1" stop-color="#5d5d5d"/></linearGradient><linearGradient x1="249.57295" y1="326.0674" x2="249.57295" y2="613.96147" gradientUnits="userSpaceOnUse" id="color-14"><stop offset="0" stop-color="#c5c5c5"/><stop offset="1" stop-color="#5d5d5d"/></linearGradient><linearGradient x1="250.39783" y1="314.70705" x2="250.39783" y2="650.72527" gradientUnits="userSpaceOnUse" id="color-15"><stop offset="0" stop-color="#c5c5c5"/><stop offset="1" stop-color="#5d5d5d"/></linearGradient><linearGradient x1="244.44562" y1="325.15831" x2="244.44562" y2="605.5892" gradientUnits="userSpaceOnUse" id="color-16"><stop offset="0" stop-color="#c0c0c0"/><stop offset="1" stop-color="#9f9f9f"/></linearGradient><linearGradient x1="179.03368" y1="346.689" x2="179.03368" y2="394.29894" gradientUnits="userSpaceOnUse" id="color-17"><stop offset="0" stop-color="#c0c0c0"/><stop offset="1" stop-color="#838383"/></linearGradient><linearGradient x1="179.03368" y1="376.33299" x2="179.03368" y2="423.94292" gradientUnits="userSpaceOnUse" id="color-18"><stop offset="0" stop-color="#c0c0c0"/><stop offset="1" stop-color="#838383"/></linearGradient><linearGradient x1="179.03368" y1="405.07854" x2="179.03368" y2="452.68851" gradientUnits="userSpaceOnUse" id="color-19"><stop offset="0" stop-color="#c0c0c0"/><stop offset="1" stop-color="#838383"/></linearGradient><linearGradient x1="181.90444" y1="432.56943" x2="181.90444" y2="480.17937" gradientUnits="userSpaceOnUse" id="color-20"><stop offset="0" stop-color="#c0c0c0"/><stop offset="1" stop-color="#838383"/></linearGradient><linearGradient x1="189.08132" y1="466.73366" x2="189.08132" y2="505.78775" gradientUnits="userSpaceOnUse" id="color-21"><stop offset="0" stop-color="#c0c0c0"/><stop offset="1" stop-color="#838383"/></linearGradient><linearGradient x1="310.13166" y1="346.689" x2="310.13166" y2="394.29894" gradientUnits="userSpaceOnUse" id="color-22"><stop offset="0" stop-color="#c0c0c0"/><stop offset="1" stop-color="#838383"/></linearGradient><linearGradient x1="310.13166" y1="376.33299" x2="310.13166" y2="423.94292" gradientUnits="userSpaceOnUse" id="color-23"><stop offset="0" stop-color="#c0c0c0"/><stop offset="1" stop-color="#838383"/></linearGradient><linearGradient x1="310.13166" y1="405.07854" x2="310.13166" y2="452.68851" gradientUnits="userSpaceOnUse" id="color-24"><stop offset="0" stop-color="#c0c0c0"/><stop offset="1" stop-color="#838383"/></linearGradient><linearGradient x1="307.26092" y1="432.56943" x2="307.26092" y2="480.17937" gradientUnits="userSpaceOnUse" id="color-25"><stop offset="0" stop-color="#c0c0c0"/><stop offset="1" stop-color="#838383"/></linearGradient><linearGradient x1="300.08399" y1="466.73366" x2="300.08399" y2="505.78775" gradientUnits="userSpaceOnUse" id="color-26"><stop offset="0" stop-color="#c0c0c0"/><stop offset="1" stop-color="#838383"/></linearGradient><linearGradient x1="244.44562" y1="325.15831" x2="244.44562" y2="341.66518" gradientUnits="userSpaceOnUse" id="color-27"><stop offset="0" stop-color="#c0c0c0"/><stop offset="1" stop-color="#9f9f9f"/></linearGradient><linearGradient x1="215.15682" y1="574.62246" x2="273.73449" y2="574.62246" gradientUnits="userSpaceOnUse" id="color-28"><stop offset="0" stop-color="#7b7b7b"/><stop offset="1" stop-color="#b9b9b9"/></linearGradient><radialGradient cx="391.81124" cy="328.86641" r="15.92597" gradientUnits="userSpaceOnUse" id="color-29"><stop offset="0" stop-color="#a7a7a7"/><stop offset="1" stop-color="#7a7a7a"/></radialGradient><radialGradient cx="109.51991" cy="327.90948" r="15.92597" gradientUnits="userSpaceOnUse" id="color-30"><stop offset="0" stop-color="#a7a7a7"/><stop offset="1" stop-color="#7a7a7a"/></radialGradient><linearGradient x1="301.24193" y1="226.68089" x2="301.24193" y2="288.80279" gradientUnits="userSpaceOnUse" id="color-31"><stop offset="0" stop-color="#c5c5c5"/><stop offset="1" stop-color="#5d5d5d"/></linearGradient><linearGradient x1="166.57171" y1="52.6474" x2="166.57171" y2="89.073" gradientUnits="userSpaceOnUse" id="color-32"><stop offset="0" stop-color="#c5c5c5"/><stop offset="1" stop-color="#5d5d5d"/></linearGradient><linearGradient x1="308.19101" y1="74.16776" x2="308.19101" y2="101.37134" gradientUnits="userSpaceOnUse" id="color-33"><stop offset="0" stop-color="#c5c5c5"/><stop offset="1" stop-color="#5d5d5d"/></linearGradient><linearGradient x1="242.2469" y1="78.70011" x2="242.2469" y2="272.06978" gradientUnits="userSpaceOnUse" id="color-34"><stop offset="0" stop-color="#a3a3a3"/><stop offset="1" stop-color="#1a1a1a"/></linearGradient><linearGradient x1="243.97252" y1="37.9867" x2="243.97252" y2="280.87472" gradientUnits="userSpaceOnUse" id="color-35"><stop offset="0" stop-color="#c5c5c5"/><stop offset="1" stop-color="#5d5d5d"/></linearGradient><linearGradient x1="236.87105" y1="52.49881" x2="236.87105" y2="263.86576" gradientUnits="userSpaceOnUse" id="color-36"><stop offset="0" stop-color="#b9b9b9"/><stop offset="1" stop-color="#5c5c5c"/></linearGradient><linearGradient x1="242.64681" y1="265.40794" x2="242.64681" y2="37.10292" gradientUnits="userSpaceOnUse" id="color-37"><stop offset="0" stop-color="#5d5d5d"/><stop offset="1" stop-color="#a1a1a1"/></linearGradient><linearGradient x1="242.64681" y1="265.40794" x2="242.64681" y2="37.10292" gradientUnits="userSpaceOnUse" id="color-38"><stop offset="0" stop-color="#c5c5c5"/><stop offset="1" stop-color="#5d5d5d"/></linearGradient><linearGradient x1="243.97252" y1="37.9867" x2="243.97252" y2="280.87472" gradientUnits="userSpaceOnUse" id="color-39"><stop offset="0" stop-color="#c5c5c5"/><stop offset="1" stop-color="#5d5d5d"/></linearGradient><linearGradient x1="208.00853" y1="157.67261" x2="211.72058" y2="157.67261" gradientUnits="userSpaceOnUse" id="color-40"><stop offset="0" stop-color="#cdcdcd"/><stop offset="1" stop-color="#444444"/></linearGradient><linearGradient x1="276.26894" y1="157.67261" x2="279.98101" y2="157.67261" gradientUnits="userSpaceOnUse" id="color-41"><stop offset="0" stop-color="#cdcdcd"/><stop offset="1" stop-color="#444444"/></linearGradient><linearGradient x1="244.20357" y1="140.15852" x2="244.20357" y2="146.67401" gradientUnits="userSpaceOnUse" id="color-42"><stop offset="0" stop-color="#cdcdcd"/><stop offset="1" stop-color="#444444"/></linearGradient><radialGradient cx="278.09617" cy="143.9128" r="16.05651" gradientUnits="userSpaceOnUse" id="color-43"><stop offset="0" stop-color="#ffffff"/><stop offset="1" stop-color="#939393"/></radialGradient><radialGradient cx="281.95047" cy="136.3705" r="16.05651" gradientUnits="userSpaceOnUse" id="color-44"><stop offset="0" stop-color="#b9b097"/><stop offset="1" stop-color="#827c69"/></radialGradient><linearGradient x1="243.56457" y1="212.23945" x2="243.56457" y2="215.77766" gradientUnits="userSpaceOnUse" id="color-45"><stop offset="0" stop-color="#a0a0a0"/><stop offset="1" stop-color="#696969"/></linearGradient><linearGradient x1="254.96143" y1="177.08978" x2="254.96143" y2="216.70151" gradientUnits="userSpaceOnUse" id="color-46"><stop offset="0" stop-color="#cdcdcd"/><stop offset="1" stop-color="#444444"/></linearGradient><linearGradient x1="232.71806" y1="176.95527" x2="232.71806" y2="216.56698" gradientUnits="userSpaceOnUse" id="color-47"><stop offset="0" stop-color="#cdcdcd"/><stop offset="1" stop-color="#444444"/></linearGradient><linearGradient x1="243.85644" y1="210.99362" x2="243.85644" y2="244.26416" gradientUnits="userSpaceOnUse" id="color-48"><stop offset="0" stop-color="#6e6e6e"/><stop offset="1" stop-color="#969696"/></linearGradient><linearGradient x1="246.69557" y1="156.39112" x2="246.69557" y2="182.06599" gradientUnits="userSpaceOnUse" id="color-49"><stop offset="0" stop-color="#cdcdcd"/><stop offset="1" stop-color="#444444"/></linearGradient><linearGradient x1="210.88405" y1="136.62368" x2="210.88405" y2="196.04052" gradientUnits="userSpaceOnUse" id="color-50"><stop offset="0" stop-color="#c5c5c5"/><stop offset="1" stop-color="#5d5d5d"/></linearGradient><linearGradient x1="209.91845" y1="137.45878" x2="209.91845" y2="194.79308" gradientUnits="userSpaceOnUse" id="color-51"><stop offset="0" stop-color="#c5c5c5"/><stop offset="1" stop-color="#5d5d5d"/></linearGradient><radialGradient cx="206.32992" cy="198.35614" r="16.05651" gradientUnits="userSpaceOnUse" id="color-52"><stop offset="0" stop-color="#ffffff"/><stop offset="1" stop-color="#939393"/></radialGradient><radialGradient cx="213.89629" cy="136.3705" r="16.05651" gradientUnits="userSpaceOnUse" id="color-53"><stop offset="0" stop-color="#b9b097"/><stop offset="1" stop-color="#827c69"/></radialGradient><linearGradient x1="237.54887" y1="44.64959" x2="237.54887" y2="199.6372" gradientUnits="userSpaceOnUse" id="color-54"><stop offset="0" stop-color="#afafaf"/><stop offset="1" stop-color="#515151"/></linearGradient><linearGradient x1="239.95861" y1="105.12828" x2="239.95861" y2="202.30458" gradientUnits="userSpaceOnUse" id="color-55"><stop offset="0" stop-color="#afafaf"/><stop offset="1" stop-color="#4b4b4b"/></linearGradient><linearGradient x1="243.97252" y1="37.9867" x2="243.97252" y2="280.87472" gradientUnits="userSpaceOnUse" id="color-56"><stop offset="0" stop-color="#c5c5c5"/><stop offset="1" stop-color="#5d5d5d"/></linearGradient><radialGradient cx="277.97422" cy="144.78799" r="24.74943" gradientUnits="userSpaceOnUse" id="color-57"><stop offset="0" stop-color="#ff0000"/><stop offset="1" stop-color="#ff0000" stop-opacity="0"/></radialGradient></defs><g transform="translate(116.76781,-37.1029)"><g data-paper-data="{&quot;isPaintingLayer&quot;:true}" fill-rule="nonzero" stroke-linecap="butt" stroke-linejoin="miter" stroke-miterlimit="10" stroke-dasharray="" stroke-dashoffset="0" style="mix-blend-mode: normal"><g><path d="M481.70783,257.09697c30.08004,-8.11493 93.66079,-8.74959 93.66079,-8.74959l15.94767,58.46564c0,0 -55.14403,31.72511 -85.22407,39.84002c-5.87946,1.58613 -12.92573,3.46269 -20.47341,5.45948c-0.08946,-0.30729 -0.17651,-0.61689 -0.26097,-0.92905c-1.54481,-2.83566 -3.79902,-10.25111 -5.52567,-12.36998c-4.94867,-6.0727 -12.60918,-2.89895 -18.62872,-1.29775c-3.99348,1.06227 -9.685,1.66572 -12.61538,4.96572c-3.45402,3.88967 -0.69993,5.60285 -4.76179,8.77775c-3.85999,3.01708 -11.06411,3.82915 -15.22223,7.1338c-2.07091,1.64583 -3.54987,4.08706 -5.89253,5.31568c0,0 -3.14059,1.73601 -1.40463,4.87659c0.06103,0.11039 0.12379,0.21475 0.18806,0.31341c-5.12432,1.33158 -8.20292,2.12947 -8.20292,2.12947l-19.80894,-73.13059c2.36543,0.13467 3.34732,-2.29886 3.34732,-2.29886c5.11399,-12.77365 21.57447,-10.14871 31.50687,-18.34386c2.84481,-2.34723 5.21954,-4.9299 7.20492,-7.70367c19.80209,-5.34201 39.82318,-10.74311 46.16565,-12.45417z" fill="#494949" stroke="#000000" stroke-width="0"/><g stroke="none"><path d="M538.02839,342.54185c-0.22362,0.95753 -0.87347,2.00095 -2.55259,2.44761c-3.46784,0.92245 -4.3903,-2.54539 -4.3903,-2.54539l1.48586,-4.98778c4.71416,-2.56882 8.4193,-6.41048 12.43434,-9.95777c3.8372,-2.11272 -1.33725,-8.38189 1.37628,-13.53326c3.32075,-6.30422 10.17322,-6.99214 14.60028,-11.4265c2.01303,-2.01632 4.34319,-3.69359 6.40596,-5.65898c4.20382,-4.00539 5.24117,-11.49488 10.53436,-14.97591c4.30199,-2.82916 12.69514,-3.56749 17.69505,-4.89747c0,0 3.46784,-0.92245 4.3903,2.54539c0.92245,3.46784 -2.54539,4.3903 -2.54539,4.3903c-4.227,1.12439 -11.98808,1.58512 -15.59641,3.95816c-4.51336,2.96822 -5.80138,10.40241 -9.45524,14.10601c-2.00635,2.03366 -4.3342,3.72533 -6.42231,5.67497c-4.51322,4.21395 -9.78992,4.68395 -13.39779,9.88379c-2.0112,2.89867 2.42062,7.80493 1.43282,10.82774c-0.64087,1.96104 -2.84401,2.98949 -4.26604,4.48424c-3.85857,3.40911 -7.45053,6.90421 -11.72917,9.66492z" fill="url(#color-1)" stroke-width="0.5"/><path d="M476.09533,272.00442c1.73601,3.14059 -1.40463,4.87657 -1.40463,4.87657l-3.45306,1.90873c-6.29208,3.47231 -11.95155,7.76545 -18.42038,10.93383c-7.03025,1.89566 -11.98667,5.23484 -18.60248,7.9091c-1.92475,0.77802 -4.92237,-0.58528 -6.12954,1.10371c-3.0733,4.30013 -2.46295,11.6101 -6.31438,16.38624c-4.37974,5.43129 -11.95136,6.03896 -17.54791,9.19473c-4.21729,2.37809 -6.77918,7.40927 -11.30342,9.96197c0,0 -3.14056,1.73602 -4.87657,-1.40459c-1.73601,-3.14059 1.40463,-4.87659 1.40463,-4.87659c4.63239,-2.49188 6.73568,-7.25017 11.14607,-9.87239c4.35083,-2.58682 12.34178,-3.2137 15.62518,-7.55094c3.39281,-4.48182 2.95112,-12.8738 6.65072,-16.76836c1.61992,-1.70532 6.38083,-1.90694 8.66668,-2.83211c6.58539,-2.66529 11.71603,-6.12653 18.76164,-7.97097c6.11793,-3.02979 11.49819,-7.19002 17.46774,-10.49484l3.4531,-1.90874c0,0 3.14056,-1.736 4.87659,1.40463z" fill="url(#color-2)" stroke-width="0.5"/><path d="M403.43291,335.11213c-3.14817,5.42998 -8.29189,3.35791 -9.53288,2.7526c-0.60335,0.14007 -1.2033,0.28902 -1.79635,0.45578c0,0 -6.93571,1.84493 -8.78063,-5.09081c-1.84493,-6.93571 5.09081,-8.78063 5.09081,-8.78063c0.03699,-0.00908 0.07389,-0.01824 0.11082,-0.02755c-0.01186,-1.41253 0.14443,-2.78618 0.71544,-4.06393c7.80527,-17.46475 37.87293,-20.21796 53.58164,-15.11111c0.16174,0.05255 0.32103,0.1051 0.478,0.15763c2.91161,-0.72417 5.81868,-1.34424 8.70655,-1.78722c8.66555,-1.32929 17.30359,1.34276 25.85917,0.06409c1.98751,-0.29702 3.99754,-0.61879 6.02255,-0.96806c5.73335,-14.04515 11.21502,-28.75124 26.73126,-32.55509c3.85999,-0.9463 7.80716,-3.08515 11.70097,-2.28939c3.68265,0.75259 6.11228,4.37642 9.17482,6.55563c3.27884,2.33316 7.11503,5.65158 11.16088,8.71457c14.64815,-5.78557 28.87022,-11.35869 44.52253,-15.52224l7.39808,-1.96791c0,0 6.93571,-1.84493 8.78063,5.09081c1.84493,6.93571 -5.09081,8.78063 -5.09081,8.78063l-0.9729,0.25879c-13.34015,7.77363 -22.46991,28.12071 -41.20086,25.39383c-5.3057,-0.77242 -10.16675,-3.17837 -14.7475,-6.11809c-1.17281,0.46017 -2.35082,0.92067 -3.53497,1.38082c-12.79531,7.07941 -28.13822,11.84553 -43.1349,14.92033c-1.85773,3.27615 -3.8052,6.47879 -5.50924,9.39407c-6.19376,6.46648 -9.56859,12.43249 -19.96944,12.62799c-4.03119,0.07575 -7.93516,-1.93544 -11.43988,-3.92872c-3.34662,-1.90334 -10.2725,-9.56706 -14.23726,-12.1698c-0.39777,-0.26113 -0.83451,-0.51159 -1.3061,-0.75065c-6.30214,1.75548 -12.59305,3.85159 -18.72709,5.48327c-4.45242,1.18435 -9.36108,1.17884 -13.39659,3.40176c-2.47295,1.36221 -4.15464,3.92568 -6.51341,5.44298c-0.04598,0.08467 -0.09377,0.16985 -0.14348,0.25553zM469.12233,323.02408c2.60875,-0.01032 5.05553,-2.65916 6.84902,-4.82072c-5.05529,0.12697 -10.11255,-0.67322 -15.16071,-0.78469c2.47899,2.37208 6.20984,5.61375 8.31169,5.60543zM522.77059,285.82199c-1.33615,-1.14275 -1.79663,-3.56671 -3.51661,-3.93112c-1.75677,-0.37221 -3.22906,1.608 -4.94473,2.13839c-1.71919,0.53149 -3.82494,-0.00275 -5.29953,1.02858c-4.20778,2.94307 -5.79233,8.65891 -7.21088,13.82603c9.05467,-2.3617 17.96302,-5.42312 26.06031,-9.42824c-1.73249,-1.16463 -3.50433,-2.2788 -5.08853,-3.63364z" fill="url(#color-3)" stroke-width="0.5"/><path d="M582.00612,277.90074c-2.19288,-8.25055 2.92039,-16.77044 11.421,-19.02972c8.50057,-2.25932 17.16927,2.59738 19.36216,10.84792c2.19289,8.25053 -2.92035,16.77048 -11.42095,19.02978c-8.50053,2.25931 -17.16929,-2.59744 -19.36213,-10.84806z" fill="url(#color-4)" stroke-width="0"/></g><path d="M558.88619,284.04727c-4.4328,-16.67816 5.90346,-33.90067 23.08703,-38.46769c17.18351,-4.5671 34.70694,5.25045 39.13974,21.92859c4.43288,16.67814 -5.90336,33.90075 -23.08693,38.46779c-17.18338,4.56709 -34.70699,-5.25061 -39.13968,-21.92883z" fill="url(#color-5)" stroke="none" stroke-width="0"/><path d="M481.70783,257.09697c30.08004,-8.11493 93.66079,-8.74959 93.66079,-8.74959l15.94767,58.46564c0,0 -55.14403,31.72511 -85.22407,39.84002c-9.55332,2.57728 -22.18726,5.92126 -35.04702,9.302c2.36211,-1.01069 5.01071,-1.71891 6.96034,-2.68178c3.57612,-1.76612 8.30415,-7.12672 11.97932,-8.06539c3.5877,-0.91635 7.37885,0.6398 11.07472,0.86682c8.10729,-0.16512 14.2026,-2.75246 20.95244,-6.51482c4.37961,-2.44117 12.47384,-3.61074 15.91784,-7.67724c5.10042,-6.0224 2.42337,-15.08195 -4.92134,-17.93612c-0.90359,-0.35113 -7.72675,1.57337 -9.22644,1.97227c-8.6111,2.29056 -17.79217,6.47532 -26.69824,4.58938c-7.67225,-2.20984 -15.7544,-3.26637 -23.2046,0.86262c-2.91125,1.61344 -4.46404,5.02844 -7.21303,6.90503c-8.88719,6.0669 -24.41092,2.14949 -32.7495,10.00214c-3.86453,3.63937 -6.84943,9.71881 -10.32859,14.34073c-1.01299,0.59419 -1.48622,1.3401 -1.66953,2.06598c-0.47832,0.65914 -1.79062,2.87659 0.46951,4.87018c0.55632,0.49067 1.09905,0.76495 1.61007,0.89127l0.02203,0.0391c0.59815,2.32259 1.2599,4.8026 2.13191,7.20262c-7.86093,2.04466 -12.86006,3.34023 -12.86006,3.34023l-19.53658,-72.12506c4.12683,-0.85548 8.54782,-1.93484 11.21328,-4.42328c1.8974,-1.77135 1.80769,-5.13474 3.80233,-6.79588c3.4373,-2.86252 12.38211,-2.1344 16.626,-4.18786c7.86734,-3.80674 15.5873,-11.91183 22.72441,-17.33843c15.14913,-4.0868 28.59822,-7.71497 33.58646,-9.06068z" fill="url(#color-6)" stroke="#000000" stroke-width="0"/></g><g stroke="none"><path d="M103.62698,330.87885c-3.49132,0.82925 -4.32056,-2.6621 -4.32056,-2.6621l-0.12295,-1.40294c-4.56157,-7.23476 -20.00459,-11.91541 -28.20732,-12.10945c-12.99593,-2.16 -26.86879,-2.11788 -40.03534,-4.06756c-5.97869,-0.88534 -13.21073,-4.81629 -18.87266,-6.91398c-11.66511,-4.32179 -23.33018,-8.6436 -34.99529,-12.96541c-24.31743,-9.00938 -47.4889,-21.44413 -73.0347,-26.34538c0,0 -3.52408,-0.67653 -2.84758,-4.20061c0.67653,-3.52408 4.20061,-2.84758 4.20061,-2.84758c25.96517,4.98743 49.46833,17.51011 74.17503,26.66368c11.66511,4.32179 23.33018,8.6436 34.99529,12.96541c5.10857,1.89267 12.04764,5.78912 17.46861,6.55009c13.06679,1.83432 26.7138,2.05088 39.62855,4.01698c10.67041,0.43899 27.57301,6.23409 33.55744,15.36593l1.073,3.63231c0,0 0.82925,3.49132 -2.6621,4.32056z" fill="url(#color-7)" stroke-width="0.5"/><path d="M-23.92664,314.11327c1.24668,-3.36493 4.61159,-2.11826 4.61159,-2.11826l0.67298,0.24934c11.72104,4.34251 26.27736,13.32362 38.82334,9.59766c11.00449,-1.18967 24.45504,-7.50189 35.54588,-5.70178c14.23589,2.31061 29.4831,10.85412 43.057,15.88313c0,0 3.36493,1.24668 2.11826,4.61159c-1.24668,3.36493 -4.61159,2.11826 -4.61159,2.11826c-13.37403,-4.95494 -27.80855,-12.74961 -41.7393,-15.53307c-2.46513,-0.49255 -3.61408,0.65205 -6.00713,1.09875c-8.82224,1.64682 -18.08253,3.58011 -26.9459,4.5587c-14.1292,4.1962 -29.56881,-5.02585 -42.73378,-9.90338l-0.67298,-0.24934c0,0 -3.36493,-1.24668 -2.11826,-4.61159z" fill="url(#color-8)" stroke-width="0.5"/><path d="M96.95211,330.68097c-1.34007,5.49094 -7.63978,3.75567 -7.63978,3.75567l-6.42036,-1.76907c-19.09606,-5.76695 -37.14185,-13.12959 -55.79173,-20.06413c-12.25341,-6.48427 -24.45889,-13.06402 -36.57133,-19.86048c-15.6852,0.22275 -29.09162,2.12142 -45.15545,-3.78818c-15.55603,-7.1775 -34.63428,-13.59692 -46.06621,-25.74085l-1.92006,-4.67349c-0.56428,-0.83361 -0.9415,-1.89937 -0.96057,-3.26105c-0.0149,-1.06262 0.19381,-1.91192 0.54385,-2.59041c0.15737,-0.30518 0.35742,-0.60288 0.60984,-0.88297c0.25241,-0.2801 0.53393,-0.51684 0.83186,-0.71683c0.66231,-0.4448 1.53582,-0.79649 2.6825,-0.98977c1.10769,-0.18667 2.0739,-0.15878 2.91386,0.01294c10.76839,0.70131 20.42435,-0.57404 31.41222,2.1114c14.77701,3.61152 28.91768,12.20571 41.73022,19.75919c5.40095,3.18404 10.82503,6.31238 16.26852,9.39452c3.82469,-0.06317 7.67645,0.02056 11.56691,0.42754c16.45934,1.72183 31.65764,7.87592 47.1525,13.61661c6.88412,2.5505 15.9402,4.85975 22.10517,8.97442c7.706,5.14318 11.70484,11.70206 16.6421,18.73418c0,0 0.00589,0.00837 0.0168,0.02463l1.08957,0.30002c0,0 6.29974,1.73525 4.95965,7.22619zM-29.23517,281.38849c-11.49583,-6.77391 -24.4333,-14.91639 -37.73605,-18.10651c-6.3344,-1.51903 -12.23313,-1.57536 -18.21898,-1.55208c9.88518,7.22402 24.50143,11.97874 35.03614,16.85983c7.42463,2.77493 14.78175,3.50821 22.15878,3.52811c-0.41344,-0.2428 -0.82674,-0.48592 -1.23993,-0.72935zM31.94498,302.39893c13.38995,4.94216 26.44777,10.15662 39.83935,14.79263c-1.28748,-1.33901 -2.7125,-2.57455 -4.3444,-3.64775c-5.21193,-3.42747 -13.51723,-5.42681 -19.2216,-7.54022c-9.03628,-3.34784 -17.84365,-6.71831 -26.81986,-9.22487c3.51051,1.88482 7.02638,3.75739 10.54656,5.62021z" fill="url(#color-9)" stroke-width="0.5"/><path d="M-85.95824,260.8959c-2.96419,8.00589 -12.05392,12.02002 -20.30231,8.966c-8.24848,-3.05404 -12.53205,-12.01984 -9.56778,-20.0257c2.96424,-8.00583 12.05388,-12.01991 20.30232,-8.96584c8.24848,3.05404 12.53207,12.01981 9.56783,20.02565z" fill="url(#color-10)" stroke-width="0"/></g><path d="M109.2771,418.29176c0.42987,0.49024 2.15249,2.73327 -0.09055,4.97635c-2.53739,2.53739 -5.07483,0 -5.07483,0l-2.00794,-3.49431c0,-2.82678 0.03772,-5.6536 0.09598,-8.47982c3.3318,-6.90514 12.00829,-24.03967 7.0682,-31.85663c-3.47289,-5.49534 -8.80597,-10.344 -8.09424,-17.51719c0.42952,-4.32927 11.29136,-18.43285 3.87062,-20.27496c0,0 -3.20958,-1.60479 -1.60482,-4.81441c1.60479,-3.20958 4.81441,-1.60482 4.81441,-1.60482c5.63603,3.45818 8.36367,10.97465 5.53819,17.97969c-1.22843,3.04551 -7.68363,7.29704 -5.65252,11.84579c1.72167,3.85575 5.45141,7.24651 7.37374,10.84982c5.65662,10.60309 -1.38443,27.55149 -6.32864,37.04159c0.05697,1.78231 0.08357,3.56561 0.09242,5.34888z" fill="url(#color-11)" stroke="none" stroke-width="0.5"/><g stroke="none"><g><path d="M250.18712,262.36046h1.91384c8.68132,0 12.56594,0.69016 15.04459,9.84843c0.0385,6.11442 0.37438,12.89031 1.84474,18.75236c0.95014,3.78802 3.95406,7.65162 4.78461,11.48304c0.00862,0.03984 0.0172,0.07989 0.02564,0.12014c0.00454,-0.00038 0.00905,-0.00075 0.01361,-0.00114c5.00855,-0.41739 11.72523,-2.32924 16.74145,-0.78501c6.32207,1.94625 10.20679,10.21594 16.26764,12.43993c2.19202,0.80436 4.69382,0.23336 6.95903,0.79964c11.49813,-0.09119 28.4882,-3.14911 39.08334,1.15292c1.83764,0.74615 3.89319,1.37843 5.22334,2.84965c1.29426,1.43151 2.74992,9.62024 5.431,10.59751c4.73695,1.72666 12.80009,-2.15571 17.76515,-2.18701c0,0 3.58844,0 3.58844,3.58844c0,2.83362 -2.23752,3.42964 -3.1789,3.55505c-0.81421,1.71852 -2.92325,1.92943 -2.92325,1.92943c-9.10191,0.90892 -18.72042,1.87551 -27.51513,4.53346c-12.69915,3.83797 -20.68918,17.04101 -32.95003,21.13702c-4.16845,1.39255 -12.07117,1.14108 -16.44548,1.14108c-3.15242,0 -7.50297,0.24622 -10.30551,-1.38153c-2.28862,-1.32929 -3.80982,-3.67482 -5.71473,-5.51224c-6.34594,-4.60631 -15.2114,-9.82583 -18.79824,-17.16163c-1.87507,-3.83492 -2.08932,-8.04663 -1.72154,-12.3879c-2.57496,-3.84705 -4.83483,-7.88392 -6.77325,-11.30927c-0.95054,-1.67969 -1.56136,-3.34706 -2.03851,-4.93009c-1.00353,0.01926 -2.00849,0.03316 -3.0154,0.0418c-0.19573,0.16894 -0.39397,0.33594 -0.59461,0.50101c-0.0534,0.17944 -0.10928,0.35808 -0.16776,0.5358c-0.20339,0.61797 -1.5886,1.02084 -1.19777,1.54096c0.57895,0.7705 2.10745,-0.0224 2.8235,0.62269c5.65958,5.09866 6.30767,11.40139 5.12544,18.59905c-1.23468,7.51717 -5.3466,9.76888 -7.89385,16.18622c-3.17034,7.98709 -2.5976,16.04508 -2.5976,24.46359c0,3.18973 0,6.37947 0,9.56918v2.87077c0,0 0,3.58844 -3.58844,3.58844c-3.58844,0 -3.58844,-3.58844 -3.58844,-3.58844c0,-3.18973 0,-9.2502 0,-12.43993c0,-7.63317 -0.29145,-14.93409 1.51817,-22.1798c-3.44587,2.86801 -7.7324,5.13658 -10.92093,7.6933c-5.03223,4.03509 -5.92635,8.97023 -13.1239,10.35483c-10.73598,2.06532 -26.70969,-0.40515 -37.18869,-2.98009c-9.87617,-4.26839 -12.05274,-18.26629 -22.03984,-22.01925c-2.17198,-0.81618 -4.6618,0.48327 -6.95903,0.15727c-5.40687,-0.76731 -7.89268,-4.49062 -12.96843,-5.84738c-9.72289,-2.59896 -21.59004,-0.8242 -31.56833,-0.8242c0,0 -0.67761,0 -1.44391,-0.29446c-0.03138,0.01262 -0.06276,0.02525 -0.0941,0.0378c0,0 -3.3318,1.33272 -4.6645,-1.99908c-1.33272,-3.3318 1.99908,-4.6645 1.99908,-4.6645c8.53839,-3.40925 17.53088,-8.89413 26.81596,-9.80838c19.37868,-1.90818 39.49056,1.05846 58.72572,0.93946c8.40033,0 17.11349,0.68295 25.48324,0.01745c2.75508,-0.21908 4.97401,-2.41369 7.50119,-3.5326c4.26504,-1.88835 8.88699,-3.66287 13.38412,-5.72643c-0.68083,-0.97582 -1.37125,-1.9281 -2.05618,-2.85401c-3.0535,-2.45271 -7.78534,-2.97245 -9.96394,-6.22721c-2.7217,-4.06611 -0.74749,-7.43146 1.60375,-10.43042c-3.37032,-2.33202 -6.13436,-5.10299 -7.56453,-8.12085c-2.49125,-5.25702 -5.52461,-17.56476 -1.57486,-22.95858c1.90035,-2.59515 6.73357,-3.43284 9.63678,-4.17391l1.82721,-0.10712c0,0 3.58844,0 3.58844,3.58844c0,3.58844 -3.58844,3.58844 -3.58844,3.58844l-0.08657,-0.10712c-1.90641,0.46441 -4.58521,-0.0648 -5.67393,1.56761c-2.01969,3.02834 1.20267,12.69578 2.25281,15.31822c0.58483,1.46048 1.78041,2.87956 3.34467,4.19304c0.23133,-3.78008 0.99789,-7.21649 2.25742,-9.71049c2.45409,-1.6646 4.3451,-2.83767 6.17227,-3.75519c0.56164,-1.39842 1.1387,-2.78567 1.74866,-4.1423c-0.48315,-0.34584 -0.9895,-0.72325 -1.52179,-1.13956l-1.44874,-4.9423c0,0 -0.87034,-3.48131 2.611,-4.35164c3.48131,-0.87034 4.35164,2.611 4.35164,2.611l0.06803,0.39691c2.15522,-3.12205 4.79074,-5.75343 8.24273,-7.52079l1.91384,-0.95691c0,0 3.20958,-1.60482 4.81441,1.60482c1.60482,3.20958 -1.60482,4.81441 -1.60482,4.81441l-1.91384,0.95691c-1.81485,0.87924 -3.10773,1.81189 -4.07035,2.8257c0.33142,-0.05456 0.5517,-0.05456 0.5517,-0.05456zM273.844,321.88869c-0.12621,1.161 -0.36878,2.4343 -0.61141,3.75772c1.84997,2.4803 3.85616,4.73093 6.02332,6.42562c10.14348,7.93201 25.81843,4.92818 37.91558,4.92818c0,0 3.58844,0 3.58844,3.58844c0,3.58844 -3.58844,3.58844 -3.58844,3.58844c-14.36009,0 -30.40846,2.78474 -42.46568,-6.55485c-0.22466,-0.17404 -0.44782,-0.35307 -0.66957,-0.53691c3.53507,5.78398 11.30527,10.0984 16.47054,13.88354c18.66187,19.51396 40.96968,-11.35337 58.48383,-16.74132c2.51872,-0.77485 5.10283,-1.41648 7.72355,-1.95944c-1.99194,-3.62391 -2.49486,-8.1404 -6.33854,-9.36613c-10.78641,-3.43971 -26.05807,-0.689 -37.47023,-0.76094c-2.72471,-0.68117 -5.72637,-0.11627 -8.35168,-1.11416c-5.99344,-2.27811 -10.36595,-10.74341 -16.26764,-12.43993c-3.75551,-1.0796 -10.16557,0.8061 -13.82679,1.12432c0.06988,4.26162 -0.25279,8.8429 -0.61531,12.17747zM262.00539,292.61021c-1.51885,-6.0916 -2.03307,-13.20303 -1.98296,-19.5244c-1.05134,-5.07004 -3.25447,-3.54843 -7.92147,-3.54843h-0.02285c1.36226,1.41348 2.65975,3.28249 4.12541,6.16782c2.86533,4.99871 4.70304,14.38489 3.69618,22.34488c0.90255,1.62468 1.47725,3.41537 1.97152,5.23918c1.5464,-0.05994 3.0914,-0.13263 4.63712,-0.2187c-1.10532,-3.47278 -3.63789,-6.99075 -4.50297,-10.46034zM263.98156,310.38994c0.23954,0.56339 0.50685,1.1107 0.81126,1.63696c0.65285,1.12868 1.34256,2.3453 2.06969,3.60925c0.24008,-1.82681 0.42145,-3.63948 0.46599,-5.42008c-1.11566,0.06467 -2.2311,0.12262 -3.34694,0.17385zM237.25128,287.37696c-0.40973,1.01462 -0.89817,1.99519 -1.44167,2.94795c3.87482,1.66144 7.88473,2.67814 10.54985,2.65699c0.25519,0.00132 0.52831,-0.00098 0.81595,-0.00485c-0.05162,-5.67874 -0.62431,-11.37786 -2.2823,-16.25357c-0.53094,0.14017 -1.03409,0.27855 -1.51869,0.42103c-1.98254,3.44933 -4.55419,6.3472 -6.12311,10.23245zM151.25275,336.39158c3.41193,1.82797 7.60797,-0.50614 11.0756,0.79278c10.35236,3.87785 12.75559,18.81061 21.97845,21.99907c9.67191,2.47677 23.60454,4.05587 33.62339,2.76144c4.84474,-0.62594 6.3822,-5.96631 9.84218,-8.78354c3.78789,-3.08425 10.96495,-6.19346 13.62078,-10.63155c4.91882,-8.21974 2.82054,-16.4829 -1.22053,-23.86948c-4.93561,2.23849 -10.006,4.12396 -14.35755,6.06589c-3.21485,1.43468 -6.22603,3.72041 -9.72337,4.12275c-8.48141,0.9758 -17.64827,0.01745 -26.19044,0.01745c-19.06234,-0.09812 -38.80604,-2.53966 -58.0185,-0.97438c-3.08017,0.25093 -6.17981,1.14178 -9.25178,2.32385c9.87946,0.10322 19.08988,1.06897 28.62184,6.17577zM252.37488,331.47865c0.40944,-2.91881 1.18578,-6.07464 0.1676,-8.8406c-0.64339,-1.74784 -2.54414,-2.5987 -4.31405,-3.5537c2.29651,5.24039 3.58884,10.76054 2.99085,16.36744c0.53395,-1.17799 0.94508,-2.47226 1.15558,-3.97316zM246.35945,300.15881c-2.49691,-0.01576 -5.48526,-0.55133 -8.5824,-1.50579c0.2186,0.5815 0.43103,1.14248 0.63039,1.67818c0.55804,1.49942 0.45754,3.56045 1.78321,4.45613c0.88479,0.59779 1.88451,-1.13239 2.94445,-1.26185c1.21454,-0.14833 2.43796,-0.15552 3.66366,-0.12423c0.07554,-1.0595 0.1444,-2.14073 0.20216,-3.23697c-0.20818,-0.00498 -0.42198,-0.00685 -0.64146,-0.00547z" fill="url(#color-12)" stroke-width="0.5"/><path d="M101.14686,340.34945c0,-3.58844 3.58844,-3.58844 3.58844,-3.58844c2.55178,0 6.0605,0 8.61229,0c27.68285,0.29137 49.54524,18.18567 70.99642,33.2126c10.5711,7.40525 17.44252,16.90137 31.084,19.47678c19.46991,3.24499 42.81579,10.85938 62.89187,6.686c12.3398,-2.56517 23.84634,-6.36502 35.211,-12.04349c16.38598,-9.72394 15.38699,-35.01975 32.49406,-44.95223c5.37848,-3.12278 11.91357,-1.78148 17.68206,-2.36217c4.99806,-0.5031 9.61441,-1.9162 14.70738,-1.93131c0,0 3.58844,0 3.58844,3.58844c0,0.99905 -0.27816,1.71997 -0.67956,2.24019c0.6303,-0.05392 1.25643,-0.08319 1.87574,-0.08713c0,0 3.58844,0 3.58844,3.58844c0,3.58844 -3.58844,3.58844 -3.58844,3.58844c-2.7895,-0.02215 -3.79947,-0.31479 -6.41033,0.73402c-1.68667,0.67754 -3.3903,1.38684 -4.88829,2.41633c-15.01529,10.31865 5.40252,26.5464 8.09269,37.41199c2.23656,9.03357 -2.87853,17.27957 -6.79666,24.9551c-1.46956,7.63314 -2.53641,15.55646 -1.73708,23.36173c0.81539,7.96218 4.55814,13.57334 3.82372,22.27588c-1.19757,14.19048 -10.57778,24.77899 -10.50469,39.32059l0.57809,0.30903c0,0 1.60479,3.20962 -1.60482,4.81441c-3.20962,1.60479 -4.81441,-1.60482 -4.81441,-1.60482l-1.33574,-3.51863c0.0219,-5.24123 0.69369,-12.03956 2.00982,-17.09209c2.07704,-7.97366 7.81945,-14.25383 8.53773,-23.01162c0.66647,-8.12625 -2.93362,-13.15875 -3.83163,-20.78554c-1.03396,-8.7816 0.32685,-17.83682 2.09058,-26.39809c3.07591,-6.25595 8.46534,-13.62525 6.60021,-20.97705c-2.1747,-8.57208 -10.716,-15.26347 -13.36266,-23.78957c-3.51228,-11.31462 4.66014,-20.20353 14.34598,-23.82871c-3.1931,0.45086 -6.28438,1.2345 -9.57722,1.56189c-4.57108,0.45448 -10.55659,-0.92037 -14.85322,1.46552c-2.22233,1.23404 -3.12322,4.01524 -4.79865,5.9269c-10.93241,12.47421 -12.99958,30.12496 -27.77786,39.07127c-12.0183,6.01281 -24.39065,10.29854 -37.51492,12.83645c-21.13832,4.08755 -44.83485,-3.29414 -65.33536,-6.71089c-14.81085,-3.09058 -22.42195,-12.62554 -33.98654,-20.71385c-3.31238,-2.31668 -7.43617,-3.35473 -10.63628,-5.8242c-16.72159,-12.90375 -33.66025,-26.35431 -56.16369,-26.03371c-2.55178,0 -5.10357,0 -7.65534,0h-0.95691c0,0 -3.58844,0 -3.58844,-3.58844z" fill="url(#color-13)" stroke-width="0.5"/><path d="M263.79468,373.04884c-1.13172,-3.58809 -3.21751,-6.78983 -5.27646,-9.88573c-2.6805,-4.03054 -5.65394,-7.30605 -8.63533,-10.61677c-1.12941,0.38277 -2.274,0.78354 -3.40546,1.21371c0.0066,0.27848 0.01129,0.48375 0.01154,0.59374c0.02035,9.26976 -0.34714,18.07024 3.13746,26.87084c1.86008,4.69775 5.74755,8.34388 7.40461,13.12539c1.33764,3.85979 2.28842,7.94397 2.64499,12.05595c5.05959,-10.11182 8.26191,-20.22103 4.11874,-33.35708zM234.60267,332.61137c0,-6.3948 6.06418,-6.3948 6.06418,-6.3948c2.9752,0.2522 6.37581,-0.87958 8.92559,0.75664c0.7396,0.47461 1.42425,1.01563 2.06659,1.60801c1.05384,-0.53308 2.14633,-1.08137 3.27548,-1.68961c0,0 5.42396,-2.85983 8.13591,2.85983c0.38915,0.82071 0.61076,1.58257 0.70495,2.28551c0.7379,-0.61935 1.47484,-1.23995 2.21119,-1.86125l-0.42286,-0.42426c0,0 2.71195,-5.71968 8.13591,-2.85983c5.42396,2.85983 2.71195,8.57951 2.71195,8.57951l-2.84853,4.69159c-2.5546,2.15468 -5.13094,4.28164 -7.73398,6.37131c11.9884,14.35791 21.4128,34.49388 14.45323,53.61021c-4.59817,12.63015 -13.43339,23.57316 -18.20332,36.16821c5.51369,5.98531 10.91467,12.1224 13.49976,19.7839c2.0111,5.96035 0.25741,16.58601 0.23069,22.94661c-2.07392,11.07805 -5.51938,23.62571 -10.35209,34.96073c0.52689,1.52843 1.04951,3.04333 1.56351,4.53952c2.02067,5.88189 4.73778,12.11535 3.90811,18.30982c-1.60441,11.97928 -11.45492,18.74137 -13.39198,29.73843c-1.5958,9.05959 2.59712,20.09549 -0.20175,28.95004c-0.84198,2.66373 -3.02676,4.62036 -4.54014,6.93051l1.21285,-1.27895c0,0 0,1.52957 -0.7094,3.0926c0.60064,1.05778 0.92431,2.47175 0.62688,4.35351c-0.99693,6.3078 -6.97858,5.2565 -6.97858,5.2565c-3.01829,-0.63357 -6.39226,-0.27339 -9.05492,-1.90073c-13.28968,-8.12215 -14.91707,-30.4381 -12.94655,-44.8362c1.36996,-10.00985 5.64102,-17.41358 8.71731,-26.69463c0.88257,-2.66262 0.46156,-5.91016 2.04716,-8.18176c1.87415,-2.68493 5.0898,-4.01489 7.76447,-5.8778c0.4177,-15.05315 -0.64714,-30.07253 -0.20037,-45.03668c-1.3162,-8.97007 -1.39433,-17.9515 -1.39433,-27.25526c0.01945,-6.52572 0.5667,-13.38069 2.00231,-19.94483c-1.24326,-1.50419 -2.38827,-3.0308 -3.37923,-4.59765c-8.35812,-13.21578 -11.8736,-29.28303 -14.30741,-44.74903c-1.60871,-10.223 -2.80339,-22.75865 3.59408,-31.79938c2.20774,-3.1199 5.22264,-5.43962 8.58092,-7.30614c0.20001,-2.42713 0.6438,-4.7889 1.59889,-6.76976c-1.59398,-0.22512 -5.3666,-1.29068 -5.3666,-6.33448zM253.66659,460.38138c-1.26268,6.66204 -1.89119,13.35279 -2.16907,20.06281c0.47477,2.92728 1.11385,5.8539 1.97431,8.79087c0.59558,2.03292 1.22505,4.09012 1.87802,6.1594c1.90118,-5.96089 3.41792,-11.95504 4.50982,-17.61162c-0.02499,-4.88236 1.80292,-13.58489 0.23069,-17.98013c-1.15813,-3.23764 -2.99513,-6.23047 -5.18154,-9.08328c-0.41789,3.28671 -0.75439,6.57777 -1.24218,9.66199zM251.32861,535.08456c-0.29343,4.35611 -0.78922,8.75511 -1.28111,13.16778c3.71966,-5.90147 6.86717,-11.97006 5.09356,-18.49069c-0.18291,-0.6725 -0.37451,-1.34373 -0.57386,-2.01378c-0.63324,1.02873 -1.28183,2.03132 -1.94586,3.00472c-0.35636,0.5224 -0.73295,1.03008 -1.12682,1.52354c-0.04779,0.93628 -0.10286,1.87242 -0.16589,2.80847zM237.79274,398.74214c2.03872,8.06841 3.48589,14.17544 7.2839,20.98824c1.38233,-2.87201 2.69234,-5.79764 2.62749,-8.925c-0.21301,-10.26667 -5.70894,-15.63029 -9.20396,-24.49032c-3.09248,-7.8396 -3.8871,-15.60737 -4.082,-23.65135c-4.94562,9.96067 1.07734,26.98689 3.37457,36.0785zM233.10235,568.72153c-1.24543,9.31223 -1.4269,23.5487 5.42566,29.68294l0.68395,-3.60614c0.4289,-0.5173 0.80232,-1.06158 1.12644,-1.62985c-4.37505,-12.67634 -4.07271,-25.47999 -2.96379,-38.42772c-1.84405,4.42197 -3.58503,8.84189 -4.27233,13.98071z" fill="url(#color-14)" stroke-width="0.5"/><path d="M391.39081,326.30706c7.10476,1.01496 6.0898,8.11974 6.0898,8.11974c-0.8228,4.28643 -0.10056,9.19269 -2.46844,12.85921c-3.30342,5.11511 -14.48686,9.62988 -19.90977,12.54882c-12.6402,6.80379 -30.82456,10.51615 -38.90744,23.28226c-7.20032,11.37216 1.2709,25.77661 2.47231,37.14572c1.75492,16.60701 -3.03565,31.29648 -9.09064,46.43403c-7.69604,19.08707 -23.13639,31.08128 -33.57227,48.47521c-4.78925,7.98246 -5.06013,14.39188 -7.8922,22.84774c-4.31968,12.89751 -10.60956,28.08151 -18.98641,40.82771c-1.73868,5.85208 -4.30112,11.22693 -7.16481,17.38772c-0.65475,1.40853 -3.85045,9.08502 -6.4216,14.9412c0.88844,1.79043 1.51925,3.66429 1.76921,5.65986c-11.22343,-0.49955 -20.89056,-5.60884 -31.23601,-6.24494c-0.74714,-1.60243 -1.41108,-3.45106 -2.00864,-5.67921c-0.72063,-2.68694 0.74046,-5.64594 0.06843,-8.34546c-1.29527,-5.20302 -5.66069,-9.12461 -8.88184,-13.41104c-7.85299,-10.44991 -15.31683,-21.00626 -23.00658,-31.63316c-4.0366,-5.57836 -7.18853,-8.43384 -8.43311,-15.80032c-1.90434,-11.27157 3.47256,-17.50018 4.21157,-27.90124c0.61691,-8.68281 -0.06661,-17.84235 -0.03492,-26.56505c0.01215,-3.34474 0.95513,-13.73259 -1.66868,-17.55461c-3.05734,-4.45349 -8.19849,-7.15128 -11.46395,-11.4545c-6.30701,-10.5956 -15.1278,-26.37155 -14.11059,-39.09829c0.71542,-8.95108 8.72747,-13.13106 8.58602,-21.08529c-0.20445,-11.501 -10.67381,-28.2843 -18.26887,-36.64045c-1.1474,-1.26238 -8.64951,-9.74883 -12.35722,-10.78839c-7.28616,-2.04286 -19.75507,0.36023 -27.04733,1.59816c0,0 -7.07925,1.17987 -8.25912,-5.89938c-1.17987,-7.07925 5.89938,-8.25912 5.89938,-8.25912c1.0258,-0.16819 2.12742,-0.35047 3.28764,-0.53754c1.19444,-0.64977 2.22624,-0.85616 2.22624,-0.85616c11.22845,-2.19494 21.04836,-1.22537 32.25765,-0.10443c21.71477,2.17149 41.81503,4.51461 62.94795,10.27819c8.58446,2.34123 10.41433,-0.02019 19.06384,5.11258c3.62112,2.14885 6.68641,4.81657 9.26929,7.84949c8.23537,-13.34221 17.73047,-25.32665 33.91843,-30.21161c7.44208,-2.24577 19.82186,-0.24042 27.6789,-0.24042c21.02538,0 43.30105,1.76974 64.75926,4.88372c2.38365,-3.28186 4.97984,-6.47117 8.44512,-9.18989l6.83805,-3.54848c0,0 6.41921,-3.20958 9.6288,3.20958c1.72425,3.44846 0.66962,5.9707 -0.67578,7.5666c0.72273,-0.10549 1.53529,-0.10918 2.4484,0.02127zM177.05407,371.58421c3.46715,6.42522 6.69276,13.57659 6.62433,20.87729c-0.09469,10.09985 -7.99875,13.01911 -8.63852,21.97608c-0.64847,9.07867 7.15946,22.26768 11.72627,29.79995c3.21951,4.36563 8.68918,6.87354 11.50211,11.51157c7.71558,12.72159 5.23804,38.8036 4.0379,53.48618c-0.68581,8.39021 -5.79846,15.18044 -4.4007,23.77244c1.54607,9.50362 12.43567,18.36528 17.56828,26.06017c2.38589,3.57695 5.3924,7.25708 8.45038,11.04408c1.08173,-8.85097 3.54975,-18.02066 6.27735,-26.38069c-0.48599,-0.66062 -0.9285,-1.30837 -1.31029,-1.94116c-6.00581,-16.08532 -11.33242,-37.80995 -1.31605,-53.88345c0.05856,-1.14993 0.13642,-2.30314 0.22953,-3.45433c-0.70587,-0.5432 -1.39638,-1.03312 -2.05935,-1.45726c-3.20977,-2.05347 -7.4284,-2.70377 -10.02563,-5.49197c-3.90296,-4.18994 -5.68408,-14.66892 -6.17726,-20.05677c-0.4821,-5.26716 0.13048,-14.09392 1.85294,-18.86081c5.07174,-14.03627 19.68164,-20.85864 24.21987,-35.32053c0.5292,-1.68641 0.73907,-3.6509 0.76823,-5.74706c-0.24011,-0.4858 -0.45776,-0.98103 -0.64017,-1.49105c-2.86541,-8.01076 -3.67438,-15.96065 -2.88122,-23.87004c-2.27775,-5.62584 -5.92696,-10.68231 -11.32802,-13.9801c-3.54364,-2.16365 -11.95779,-2.56497 -15.38529,-3.49972c-14.64347,-3.99365 -28.72369,-6.24199 -43.26554,-7.9684c5.68629,7.82892 9.9456,17.04547 14.17086,24.87557zM274.4619,533.5809c3.09192,-9.32576 4.02011,-17.10181 9.33236,-25.95516c4.45143,-7.41877 11.26111,-17.39181 16.51384,-23.94262c1.58825,-1.9808 4.23559,-2.85228 6.04706,-4.63127c4.789,-4.70323 7.49017,-11.61926 9.89431,-17.68593c5.23413,-13.08537 9.46287,-25.31214 8.13388,-39.68877c-0.43987,-4.75847 -3.37571,-8.99869 -4.21157,-13.70379c-1.7204,-9.68417 -1.21285,-23.75328 3.81311,-32.40256c1.72438,-2.96751 3.81737,-5.53116 6.17956,-7.79104c-5.86983,3.39155 -11.37229,7.6557 -15.61368,12.64422c-2.11924,2.49255 0.88715,6.48611 1.15529,9.74681c0.07019,0.85345 -2.73593,15.98935 -3.22918,17.33913c-4.69342,12.84403 -13.8922,25.84614 -20.92798,37.55994c-11.44169,15.2916 -22.86674,30.3293 -24.64012,49.69638c-1.49945,16.3756 1.93564,32.61789 3.70219,48.94913c1.45435,-3.41582 2.7556,-6.83069 3.85094,-10.13448zM303.90222,341.5671c-6.0449,2.16305 -11.64327,5.79167 -16.39349,10.11081c-3.726,3.38783 -9.14581,5.33343 -11.51928,9.77494c-12.00529,22.46558 4.88766,48.16752 0.86184,70.92196c-1.44231,8.15231 -6.04055,13.28715 -11.44644,17.65418c0.69442,2.15961 1.23742,4.34343 1.46103,6.54301c3.82792,-6.62867 7.80231,-12.90375 12.77143,-19.51138c6.36839,-10.62722 15.05436,-22.56077 19.26261,-34.20901c4.21323,-11.66205 -3.41133,-19.11642 3.66762,-30.32925c6.57467,-10.41402 20.98209,-18.39242 32.1112,-22.83856c4.38513,-1.75188 9.44967,-1.71243 13.60057,-3.96382c1.78985,-0.9708 3.37163,-2.06724 4.8016,-3.25692c-14.9843,-2.21861 -29.87276,-4.08984 -45.01781,-4.60479c-1.28274,2.6295 -4.16091,3.70879 -4.16091,3.70879zM262.75658,429.66041c1.58295,-10.58525 -3.36998,-21.95592 -4.4007,-32.38473c-1.28385,-12.98972 -1.229,-31.34588 5.26256,-43.10203c3.67254,-6.65093 10.80297,-12.69229 18.39044,-17.49363c-2.27606,0.04059 -4.36585,0.26242 -6.05665,0.7975c-13.34369,4.22305 -20.1745,15.13826 -26.90011,26.20541c-0.84675,2.48242 -1.37975,4.80432 -1.66133,7.01654c0.99402,3.11237 1.74518,6.30291 2.29347,9.48793c0.009,2.86541 0.26687,6.12562 0.49351,9.48425c1.10718,3.29742 2.3676,6.72335 3.51063,10.49852c3.51419,11.60674 3.42248,23.77708 6.62493,35.53641c1.21419,-1.6998 2.08803,-3.67012 2.44333,-6.04609zM229.85676,467.91951c3.00673,-7.31387 7.87504,-14.02495 13.71418,-19.35761c1.62099,-1.48037 3.52452,-2.76053 5.49399,-4.00477c-1.28879,-3.02993 -2.61075,-5.98715 -3.38628,-8.69707c-1.37952,-4.82039 -2.0286,-9.84442 -2.65397,-14.85192c-1.57158,2.55552 -3.27925,5.03032 -5.03051,7.43121c-1.5345,2.10371 -4.32123,2.95553 -6.17675,4.7824c-6.35322,6.25512 -8.75569,14.31616 -7.97007,23.04079c0.35205,3.90956 -0.52136,8.93932 2.43504,11.52161c0.94537,0.82574 2.13247,1.25546 3.35585,1.63367c0.07365,-0.5058 0.14666,-1.00538 0.21852,-1.49824zM243.96712,586.03863c5.89293,-4.21073 9.01245,-10.08772 12.53726,-16.20411c0.17915,-1.03894 0.31968,-2.09258 0.41612,-3.16303c1.25746,-13.95365 -1.34103,-28.62213 -3.32078,-43.26427c-1.11192,1.33439 -2.49462,2.54074 -3.20455,4.10204c-1.30194,2.86319 -1.65529,6.06889 -2.4829,9.10332c-0.614,1.62211 -1.24917,3.32731 -1.88833,5.09812c6.08891,8.16784 12.5129,15.38613 9.16585,27.58371c-1.562,5.69231 -7.62937,9.01984 -11.14194,13.76367c-0.80304,1.08449 -1.2299,2.43958 -1.44546,3.88576zM243.72366,471.62623c-0.07572,0.54469 -0.1548,1.10392 -0.2359,1.67586c4.40098,-3.59877 8.08218,-7.58811 9.01782,-13.48316c-3.70267,3.19004 -6.90438,6.86295 -8.78192,11.80729zM249.04296,485.75675c1.16741,1.53873 2.21454,3.07536 3.08793,4.55953c0.30151,-2.73899 0.75348,-5.4559 1.38821,-8.14538c-1.47046,1.17903 -2.97786,2.3527 -4.47611,3.58587zM241.0037,562.7868c-0.26102,1.44745 -0.4805,2.90916 -0.70069,4.37187c1.03186,-1.37059 1.53944,-3.19628 1.05814,-6.27004c-0.12321,0.62885 -0.24264,1.26141 -0.35746,1.89821zM381.76359,330.54094c-0.1867,0.13014 -0.36968,0.26217 -0.5492,0.39596c0.77123,0.13963 1.54058,0.28097 2.30803,0.42392c0.18056,-0.58257 0.47829,-1.34323 0.95372,-2.10056zM370.851,344.54053c-0.43752,0.68295 -0.89157,1.36381 -1.37148,2.03869c1.43753,-0.72679 2.76628,-1.31417 3.98478,-1.83891c-0.87048,-0.06979 -1.74146,-0.1351 -2.61331,-0.19977z" fill="url(#color-15)" stroke-width="0.5"/><path d="M229.49375,605.5892v-280.43088h29.90375v280.43088z" fill="url(#color-16)" stroke-width="0"/><g stroke-width="0"><path d="M120.64414,367.34997v-20.66092c0,0 18.09081,26.94903 49.85564,26.94903c63.67932,0 66.92344,-10.77964 66.92344,-10.77964v20.66092c0,0 -3.24412,10.77964 -66.92344,10.77964c-31.76485,0 -49.85564,-26.94903 -49.85564,-26.94903z" fill="url(#color-17)"/><path d="M120.64414,396.99385v-20.66092c0,0 18.09081,26.94903 49.85564,26.94903c63.67932,0 66.92344,-10.77964 66.92344,-10.77964v20.66092c0,0 -3.24412,10.77964 -66.92344,10.77964c-31.76485,0 -49.85564,-26.94903 -49.85564,-26.94903z" fill="url(#color-18)"/><path d="M122.79718,425.73949v-20.66092c0,0 17.42372,26.94903 48.01728,26.94903c61.33118,0 64.45567,-10.77964 64.45567,-10.77964v20.66092c0,0 -3.12449,10.77964 -64.45567,10.77964c-30.59351,0 -48.01728,-26.94903 -48.01728,-26.94903z" fill="url(#color-19)"/><path d="M129.2564,453.23034v-20.66092c0,0 16.3119,26.94903 44.95328,26.94903c57.41766,0 60.34275,-10.77964 60.34275,-10.77964v20.66092c0,0 -2.9251,10.77964 -60.34275,10.77964c-28.64134,0 -44.95328,-26.94903 -44.95328,-26.94903z" fill="url(#color-20)"/><path d="M145.04559,483.68166v-16.94802c0,0 13.64356,22.1061 37.59973,22.1061c48.02514,0 50.47177,-8.84246 50.47177,-8.84246v16.94802c0,0 -2.44662,8.84246 -50.47177,8.84246c-23.95612,0 -37.59973,-22.1061 -37.59973,-22.1061z" fill="url(#color-21)"/></g><g data-paper-data="{&quot;index&quot;:null}" stroke-width="0"><path d="M318.66556,394.29894c-63.67932,0 -66.92344,-10.77964 -66.92344,-10.77964v-20.66092c0,0 3.24412,10.77964 66.92344,10.77964c31.76485,0 49.85564,-26.94903 49.85564,-26.94903v20.66092c0,0 -18.09081,26.94903 -49.85564,26.94903z" fill="url(#color-22)"/><path d="M318.66556,423.94292c-63.67932,0 -66.92344,-10.77964 -66.92344,-10.77964v-20.66092c0,0 3.24412,10.77964 66.92344,10.77964c31.76485,0 49.85564,-26.94903 49.85564,-26.94903v20.66092c0,0 -18.09081,26.94903 -49.85564,26.94903z" fill="url(#color-23)"/><path d="M318.35084,452.68851c-61.33118,0 -64.45567,-10.77964 -64.45567,-10.77964v-20.66092c0,0 3.12449,10.77964 64.45567,10.77964c30.59356,0 48.01728,-26.94903 48.01728,-26.94903v20.66092c0,0 -17.42375,26.94903 -48.01728,26.94903z" fill="url(#color-24)"/><path d="M314.95565,480.17937c-57.41766,0 -60.34275,-10.77964 -60.34275,-10.77964v-20.66092c0,0 2.9251,10.77964 60.34275,10.77964c28.64137,0 44.95328,-26.94903 44.95328,-26.94903v20.66092c0,0 -16.31193,26.94903 -44.95328,26.94903z" fill="url(#color-25)"/><path d="M306.52002,505.78775c-48.02516,0 -50.47177,-8.84246 -50.47177,-8.84246v-16.94802c0,0 2.44664,8.84246 50.47177,8.84246c23.95612,0 37.59973,-22.1061 37.59973,-22.1061v16.94802c0,0 -13.64356,22.1061 -37.59973,22.1061z" fill="url(#color-26)"/></g><path d="M101.26652,341.66518v-16.50685h286.35824v16.50685z" fill="url(#color-27)" stroke-width="0"/><path d="M215.15682,629.5134v-109.78198h58.57769v109.78198z" fill="url(#color-28)" stroke-width="0"/></g><path d="M400.32092,333.4085c0.0018,8.53702 -7.12719,15.459 -15.92282,15.46081c-8.79571,0.00183 -15.92733,-6.91736 -15.92901,-15.45436c-0.00173,-8.53699 7.12719,-15.45888 15.92288,-15.46069c8.79571,-0.00183 15.92733,6.91731 15.92904,15.4543z" fill="url(#color-29)" stroke-width="0"/><path d="M120.42196,333.4085c0.0018,8.53702 -7.12719,15.459 -15.92282,15.46081c-8.79571,0.00183 -15.92733,-6.91736 -15.92901,-15.45436c-0.00173,-8.53699 7.12719,-15.45888 15.92288,-15.46069c8.79571,-0.00183 15.92733,6.91731 15.92904,15.4543z" fill="url(#color-30)" stroke-width="0"/></g><g><g><path d="M318.797,287.02997c-2.14488,3.21728 -5.36218,1.07245 -5.36218,1.07245l-1.56302,-1.45135c-2.71053,-0.6657 -5.96909,-0.23253 -8.13164,-1.99706c-4.80815,-3.9233 -0.2023,-10.5148 -3.58614,-14.91717c-2.22218,-2.89106 -6.09787,-4.42172 -7.60403,-7.94965c-2.70691,-6.34054 3.90222,-15.19941 0.16321,-21.16063c-1.28541,-2.04936 -6.10607,-5.41399 -8.12747,-6.92371c0,0 -3.09337,-2.32003 -0.77333,-5.41341c2.32003,-3.09337 5.41341,-0.77333 5.41341,-0.77333c7.7026,5.79866 12.6479,10.55632 11.77764,20.77666c-0.30024,3.52588 -2.83724,7.3435 -1.30868,10.535c1.33628,2.79003 4.98958,3.83175 6.73293,6.38729c4.35862,6.38918 -1.11092,13.71168 6.71547,13.80782l4.58137,2.64492c0,0 3.21728,2.14488 1.07245,5.36218z" fill="url(#color-31)" stroke="none" stroke-width="0.5"/><path d="M127.38054,63.68621c0,-3.86671 3.86671,-3.86671 3.86671,-3.86671h3.07222c3.20714,0 6.47657,0.67946 9.62131,0.04993c7.22178,-1.44569 13.46258,-7.12026 21.10075,-7.21841c19.52991,-0.25097 37.62989,12.59136 40.69434,31.99382c0,0 0.54684,3.82785 -3.28102,4.37468c-3.82785,0.54684 -4.37468,-3.28102 -4.37468,-3.28102c-1.98397,-16.0958 -17.66872,-25.06415 -33.03864,-25.35405c-4.35012,-0.08207 -8.9628,3.30323 -12.85723,4.826c-6.57981,2.57282 -10.99165,2.34249 -17.86485,2.34249h-3.07222c0,0 -3.86671,0 -3.86671,-3.86671z" fill="url(#color-32)" stroke="none" stroke-width="0.5"/><path d="M343.70886,77.08539c0.93781,3.75128 -2.81344,4.68909 -2.81344,4.68909l-4.56164,1.11056c-6.24648,-0.24805 -8.76513,6.14733 -15.37855,5.10722c-2.11425,-0.3325 -3.56357,-2.46264 -5.58338,-3.17041c-2.27066,-0.79566 -13.91688,-1.12543 -15.92994,-0.15049c-3.44653,1.66916 -5.22476,5.63022 -8.17508,8.07159c-3.96237,3.27885 -8.47718,5.88607 -13.07227,8.19607c0,0 -3.45849,1.72925 -5.18774,-1.72925c-1.72925,-3.45849 1.72925,-5.18774 1.72925,-5.18774c8.0968,-4.02418 14.01548,-13.08918 21.76355,-16.50252c7.57852,-3.33868 18.95581,0.5791 25.59385,2.82353c2.58945,0.87556 8.99781,-5.00944 13.2954,-5.13348l3.63091,-0.9376c0,0 3.75128,-0.93781 4.68909,2.81344z" fill="url(#color-33)" stroke="none" stroke-width="0.5"/><path d="M307.1768,95.81674c-2.41552,3.01938 -5.43494,0.60389 -5.43494,0.60389l-1.09124,-1.32331c-1.68304,-0.4344 -5.60984,-2.73814 -9.01848,-4.19821c0.34738,2.25178 -1.77123,3.66422 -1.77123,3.66422c-6.15705,4.08092 -9.94424,7.81231 -16.86581,10.82207c-1.21136,0.52677 -2.69761,1.01771 -4.31009,1.52346c-3.88685,3.33644 -7.94644,6.46666 -12.22777,9.23848c-1.3199,0.85456 -2.97322,1.87894 -4.73985,2.85772c-1.61265,6.16278 -0.21047,13.931 -0.21047,19.60986c0,1.03802 -0.01215,2.05322 -0.03768,3.04848c1.98537,1.44117 2.91074,3.54599 5.2692,4.89013c4.31449,2.45896 13.28303,3.61517 18.06683,4.15144c2.10324,0.23577 4.48103,0.0641 6.91366,-0.1421c-1.06659,-4.81449 -2.83952,-9.70099 -3.46038,-13.31916c-1.14788,-6.68972 1.45521,-10.61317 3.8749,-16.65416c7.10591,-14.22463 13.65762,-20.26543 30.24458,-20.26543h0.51379c0,0 3.86671,0 3.86671,3.86671c0,3.86671 -3.86671,3.86671 -3.86671,3.86671h-0.51379c-13.58198,0 -17.37477,4.08056 -23.18984,15.7c-1.18266,2.96079 -3.24016,5.63462 -3.81664,8.77032c-1.05877,5.75912 1.6332,11.7174 3.51203,17.68252c1.38472,0.05366 2.71192,0.22572 3.9352,0.59488c7.96455,2.40342 11.79087,11.82575 20.40315,15.01665c0,0 3.62051,1.35768 2.26284,4.97819c-1.35768,3.62051 -4.97822,2.2628 -4.97822,2.2628c-5.90565,-2.23729 -11.18142,-5.02669 -15.46868,-9.85992c-1.55052,-1.74797 -1.56603,-4.41125 -4.204,-4.92341c-0.1083,-0.021 -0.21662,-0.0416 -0.32498,-0.06177c0.0695,1.76921 -0.11517,3.53133 -0.6751,5.28131c-4.18432,13.07722 -19.05762,15.78523 -30.28948,18.89416c-1.26339,0.3497 -2.56818,0.72202 -3.89996,1.0579c0.71078,0.9948 1.37634,2.07371 1.99877,3.29587c5.65166,2.66362 11.40294,5.40461 16.32175,10.28871c12.46177,12.37387 16.1441,28.36637 20.57006,44.93968c0,0 0.99631,3.73615 -2.73986,4.73245c-3.73618,0.99631 -4.73249,-2.73986 -4.73249,-2.73986c-4.04545,-15.19338 -7.18663,-29.99432 -18.47816,-41.3774c-2.09607,-2.11305 -5.03772,-4.3638 -8.03085,-6.3388c2.60577,10.43193 5.687,21.66572 4.81449,32.11473c-0.24076,2.88309 -1.03433,10.30872 -3.75402,12.77752c-3.11243,2.82528 -6.11824,2.64938 -9.25532,2.3986c-1.55997,9.17272 -4.82709,19.10957 -7.24257,25.90534c0,0 -1.30051,3.64147 -4.94198,2.34094c-3.64147,-1.30051 -2.34092,-4.94198 -2.34092,-4.94198c2.58472,-7.20001 3.56486,-14.38222 4.95389,-21.70668c-5.77119,3.54921 -8.59772,11.75439 -9.29281,17.83512c0,0 -0.47963,3.83687 -4.31646,3.35727c-3.83683,-0.47963 -3.35727,-4.31646 -3.35727,-4.31646c1.42509,-10.69528 7.17603,-23.23549 18.87601,-25.89053c0.04819,-0.01091 0.10073,-0.02044 0.15736,-0.02862c0.72906,-2.95853 1.32297,-6.51477 -0.04659,-8.65733c-2.40098,-3.75613 -6.54447,-6.30619 -8.5386,-10.29323c-4.63369,-9.26446 -4.20541,-22.31435 -1.81966,-33.59592c-4.15869,4.32976 -8.37293,8.59795 -11.13158,13.89527c-2.45382,4.71195 -5.37417,10.65707 -6.90704,15.73697c-1.44422,4.78628 -1.19744,12.18249 -5.08437,16.0246c-3.88674,3.84193 -11.19198,3.68113 -16.09278,3.7015l-3.24799,-1.64633c0,0 -2.73418,-2.73418 0,-5.46838c1.84814,-1.84814 3.69627,-1.19782 4.70001,-0.58226c2.83767,0.08647 7.56751,0.18421 9.17236,-1.47292c2.32628,-2.40196 2.25943,-9.88825 3.13632,-12.74776c1.67388,-5.45859 4.78691,-12.07628 7.47916,-17.14572c3.78751,-7.13184 9.93792,-12.34105 15.18262,-18.30747c-0.08203,-0.25183 -0.13381,-0.5023 -0.16435,-0.74071c-1.67852,-0.24741 -3.42406,-0.37267 -4.96606,-0.96824c-1.33949,-2.7454 -2.34639,-5.54361 -3.0993,-8.38224c-1.66817,1.71491 -3.52362,3.29084 -5.42072,5.18825c-10.55894,10.56056 -28.9875,24.67264 -44.52924,22.13565c0,0 -3.80436,-0.69172 -3.11265,-4.49605c0.69168,-3.80432 4.49605,-3.11265 4.49605,-3.11265c12.31336,2.56189 29.45709,-11.77614 37.67749,-19.99533c2.98618,-2.98573 6.8645,-5.30392 8.36755,-9.42803c0.24823,-0.68111 0.46743,-1.36531 0.66201,-2.05215c-0.18679,-2.62607 -0.25501,-5.27113 -0.26156,-7.92627c-14.88243,-3.42945 -35.00507,-10.12747 -45.58515,4.42279l-0.45265,1.98549c0,0 -1.22278,3.6683 -4.89107,2.44552c-3.6683,-1.22278 -2.44552,-4.89107 -2.44552,-4.89107l1.60253,-4.18001c13.1532,-17.13422 33.87769,-11.647 51.87768,-7.6521c0.19392,-8.65728 0.44712,-17.32759 -1.18758,-25.70445c-1.95935,-10.04036 -16.71767,-21.15699 -24.98406,-26.29612c0,0 -3.27898,-2.04934 -1.22962,-5.32829c2.04936,-3.27898 5.32833,-1.22962 5.32833,-1.22962c10.35012,6.4993 25.69886,18.78568 28.45034,31.24866c0.73705,3.33868 0.89637,6.81532 0.79923,10.35076c0.53504,-1.21492 1.03993,-2.19238 1.38903,-2.49031c3.25575,-2.77896 8.10866,-2.83403 12.30837,-3.66163c1.0042,-0.19787 2.03676,-0.51647 3.08419,-0.92943c0.67473,-1.73108 1.60388,-3.38292 2.87743,-4.91818c3.88122,-4.67876 10.46837,-6.71924 16.45579,-8.73327c5.88189,-5.84224 12.05686,-14.97638 19.18988,-17.64848c6.5985,-2.47188 12.62527,3.60416 18.63407,5.04406l4.04665,2.78703c0,0 3.01941,2.41552 0.60389,5.43491zM235.50408,123.85035c-1.7211,1.48915 -1.45914,4.3124 -2.25825,6.44339c-1.33653,3.02884 -1.91538,6.22833 -2.25279,9.49619c4.20658,0.32672 8.56514,-0.29616 12.71341,-0.12927c0.05173,-1.98171 0.06713,-4.03471 0.06713,-6.1836c0,-3.59079 -0.24404,-7.38527 -0.04624,-11.09862c-3.74653,0.82223 -4.97566,-1.33804 -8.2233,1.47191zM258.42538,155.18619c-3.12272,-0.89694 -5.34037,-3.10441 -7.59188,-4.91367c-0.74221,5.69208 -2.15861,10.9362 -4.54249,16.45715l0.25257,0.15835c-0.31546,1.66142 -0.63089,3.32277 -0.94632,4.98419c0.4825,0.93404 0.9826,1.85875 1.67809,2.58381c0.85501,0.89136 1.67383,1.70825 2.45764,2.48519c10.55502,0.13283 25.12016,-5.79246 30.79034,-12.91597c1.44577,-1.81636 2.00708,-4.12599 2.03727,-6.67401c-7.98941,-0.40628 -16.11248,0.13945 -24.13523,-2.16498zM230.92639,155.61147c0.54677,4.36001 -0.20041,8.24891 0.83561,12.52698c1.1046,0.23776 2.28382,0.28994 3.4482,0.37444l0.22814,-0.2919c0.08036,-0.0016 0.16105,-0.00452 0.24199,-0.00862c-0.26968,-0.73808 -0.30226,-1.66748 0.18522,-2.80494c0.87175,-2.03412 2.40878,-2.40508 3.56401,-2.35038c2.19127,-5.36861 3.29038,-10.44495 3.83349,-15.85892c-4.06217,-0.40347 -8.52079,0.23006 -12.84627,0.10326c-0.12439,1.53759 -0.2811,3.0732 -0.52176,4.59669c0.46837,1.21066 0.8711,2.43557 1.03134,3.71331zM243.7797,189.87405c-0.83779,-0.44529 -1.63627,-0.98159 -2.39997,-1.58605c-1.54158,8.88813 -1.60892,18.56929 1.85942,25.50885c3.57229,7.14751 8.69349,8.02449 9.79044,16.46299c0.24379,1.87551 0.28521,3.93793 0.16782,6.12061c1.34856,-0.06515 2.48661,-0.29083 3.07593,-0.82921c2.07847,-1.89874 1.6741,-10.07184 1.39576,-12.70915c-1.09599,-10.38399 -3.78246,-20.55905 -6.03402,-30.68086c-0.06313,-0.17926 -0.13395,-0.36675 -0.21205,-0.56157c-2.5696,-0.52309 -5.34424,-0.5036 -7.64335,-1.72563z" fill="url(#color-34)" stroke="none" stroke-width="0.5"/><path d="M213.73832,265.49357c-13.94272,-5.44142 -8.92513,-14.50593 -15.39349,-24.07955c-2.32584,-3.44242 -8.3324,-5.37721 -11.37696,-7.12564c-9.51565,-5.4646 -9.84602,-5.35014 -15.41183,-15.94454c-6.03724,-11.49179 0.75348,-21.90253 -5.45471,-31.77011c-6.71701,-8.97152 -13.60087,-29.20381 -8.62355,-40.77838c0.36625,-0.8517 10.34909,-8.08524 11.01615,-11.48216c0.9874,-5.02836 -2.92345,-10.04201 -2.58111,-15.155c0.81074,-12.10845 9.83696,-22.72238 15.32066,-32.48434c2.60953,-4.6454 1.41224,-10.86068 4.13559,-15.44029c2.66116,-4.47499 8.95346,-7.40866 11.21419,-12.46644c1.46789,-3.28404 0.56068,-7.69222 2.95122,-10.38011c8.05269,-9.05414 27.43994,-9.71036 38.23155,-8.65748c6.11195,-0.87886 12.36078,0.02716 18.51779,0.49533c14.59137,1.10952 25.64996,-7.0488 39.46805,2.32207c7.24362,4.91234 12.58767,13.23723 11.51863,22.4894c-0.29289,2.53471 -4.24794,3.21439 -5.26883,5.55283c-1.22177,2.79855 4.52242,4.10438 6.7868,6.15311c5.07088,4.58797 9.09816,10.87035 10.66017,17.52792c2.46399,10.50204 4.8277,27.04861 3.20736,37.71852c-0.39308,2.58828 -2.60406,4.73075 -2.78855,7.34221c-0.20441,2.89362 8.12873,10.23882 8.15531,10.29258c2.22364,4.49953 2.76327,9.65014 4.1449,14.47521c-2.70054,2.2313 -5.84038,4.01839 -8.1016,6.6939c-5.89845,6.97905 0.6786,21.24454 -0.7586,29.06694c-1.33543,7.2686 -6.41225,15.24036 -11.47985,20.30481c-3.2009,3.19888 -8.19007,5.16089 -9.80739,9.38733c-3.9998,10.45241 0.70702,19.50236 -8.47528,28.76597c-3.3876,3.41759 -14.39061,8.38112 -22.01602,10.56419c-1.69412,2.24498 -4.4149,3.00407 -4.4149,3.00407c-7.72703,2.06856 -18.57868,10.9265 -26.80523,8.60381c-4.99951,-1.41157 -7.37372,-6.83688 -10.28582,-11.5281c-1.67082,0.34342 -3.2953,0.6545 -4.83893,0.88422l-3.05969,0.45527c0,0 -6.45095,0.95994 -8.38607,-4.80746zM235.58963,252.16728c4.5223,-0.83855 9.05889,-1.49425 13.17848,-1.34261c5.7128,0.21025 11.03162,3.64851 16.74814,3.69085c4.32314,0.03201 7.9798,-3.86019 11.40662,-5.51178c1.9411,-0.93552 4.44493,-0.70822 6.13052,-2.05056c4.46325,-3.55445 2.51654,-18.32019 4.63789,-23.22426c4.80419,-11.10612 12.69995,-11.67557 18.2126,-21.20058c7.37785,-12.74776 -8.21767,-37.37045 11.54721,-43.1883c-6.91965,-3.61963 -12.46673,-11.40963 -13.03905,-19.41556c-0.25211,-3.52651 2.37977,-6.69976 2.94235,-10.19022c1.19469,-7.41219 -1.31716,-17.53639 -1.95568,-24.98006c-0.0344,-0.40102 -1.56315,-11.60837 -2.31108,-12.79008c-2.79096,-4.4096 -9.14685,-5.81661 -11.76165,-10.33291c-2.40049,-4.14611 -4.78303,-8.83919 -4.57376,-13.6255c0.12319,-2.81695 4.28491,-3.90066 5.45224,-6.46729c1.13233,-2.48958 -3.01827,-4.73826 -5.27302,-6.28625c-6.82258,-4.68395 -13.60846,-0.59619 -21.13243,0.04251c-9.7965,0.8316 -18.00617,-1.58906 -27.64268,-0.10316c-8.75783,-0.85449 -13.8873,0.10486 -22.3009,2.20165c-1.46401,0.36487 -3.59857,-0.36062 -4.43725,0.8936c-1.27636,1.90879 0.21069,4.75855 -0.73988,6.84879c-2.53258,5.56877 -8.69661,8.74524 -11.96422,13.91712c-2.7467,4.34733 -1.46496,10.3841 -3.85373,14.93795c-3.87914,7.39517 -13.3221,16.87796 -13.50377,26.01367c-0.12535,6.3045 3.99664,10.73112 2.27537,17.48163c-1.11306,4.36516 -4.0273,8.14469 -6.87573,11.63463c-1.30983,1.60482 -4.25382,1.47108 -5.28658,3.26675c-0.73903,1.28495 0.6557,2.89277 0.90349,4.35424c1.53047,9.02751 0.65889,14.21393 6.60882,21.26981c1.80191,3.47124 4.55823,6.59557 5.40565,10.41372c2.06584,9.3084 -3.73091,14.17349 0.8924,22.78588c6.01166,11.19862 18.33887,10.98446 25.6748,21.24686c2.07317,2.90022 3.07067,6.44928 4.25911,9.81036c1.00531,2.84309 0.13819,8.28867 3.14759,8.48153c5.7002,0.36528 12.33374,-1.26466 17.22822,1.41765z" fill="url(#color-35)" stroke="none" stroke-width="0.5"/><g stroke="none" stroke-width="0.5"><path d="M162.06179,155.08214c0,-4.0573 3.54777,-4.56687 4.43887,-4.63087c2.78672,-0.84638 10.31961,-3.1526 11.6723,-3.10076c9.31857,0.35714 17.11958,7.20184 25.2361,10.61233c6.37209,2.17688 12.9172,2.57347 19.53495,2.1421c-0.04588,-0.18392 -0.09175,-0.36783 -0.13753,-0.55177c-2.01555,-1.26897 -3.99234,-2.54482 -5.9244,-3.80017c-2.38295,-2.29931 -5.33139,-4.12985 -7.14883,-6.89794c-5.77158,-8.79072 -2.94215,-21.134 -7.50356,-30.92156c-2.75984,-5.92187 -8.73885,-10.2931 -14.19929,-13.52215l-2.78121,-1.37531c0,0 -4.15019,-2.07508 -2.07508,-6.22529c2.07508,-4.15019 6.22529,-2.07508 6.22529,-2.07508l3.40555,1.71807c10.06707,6.1128 16.68292,13.33169 20.55837,24.63198c3.40727,9.9351 0.70402,17.42007 6.95706,24.97496c-1.18486,-12.10155 -0.05451,-24.82577 -0.0001,-36.86353c0.0352,-7.79214 5.97032,-16.16718 4.24863,-23.68091c-2.91673,-12.72904 -12.11466,-19.14691 0.4651,-30.36718c0,0 3.52298,-3.01972 6.5427,0.50329c3.01972,3.52298 -0.50329,6.5427 -0.50329,6.5427c-9.50019,7.65307 4.08541,19.58386 2.58111,30.27805c-0.62083,4.41367 -3.32602,8.33801 -4.09896,12.72757c-2.82242,16.0284 -0.38725,32.89096 2.31482,49.09055c0.06261,0.03793 0.12522,0.07581 0.18789,0.11372c1.61804,-4.20273 4.27408,-7.97444 7.15017,-11.36834c0.07733,-0.06663 0.18724,-0.16182 0.32477,-0.28103c3.93741,-11.94799 6.97277,-23.91767 3.63682,-36.97212c-2.05322,-8.03478 -6.49519,-17.17588 -3.4857,-26.03651c2.04977,-6.03502 9.48793,-9.35416 14.39637,-12.19905c5.05107,-2.92757 9.84488,-6.05348 14.85265,-8.89113c-0.22922,-0.71665 -0.27776,-1.59231 -0.01162,-2.65678c1.12536,-4.50151 5.62691,-3.37615 5.62691,-3.37615l2.69677,1.79307c0.41198,-0.16932 4.3056,-1.64242 6.08919,2.37062c1.33597,3.00589 -0.4061,4.82795 -1.53349,5.63401c0.31633,1.73222 0.3146,3.54438 -0.30865,5.77867c-2.41843,8.66974 -11.58062,12.86048 -12.73903,22.44615c-1.50366,12.44267 3.40323,24.5829 5.89145,36.77173c4.24098,-4.86715 7.64258,-10.57725 13.38819,-13.94087c5.43358,-3.18094 10.81074,-3.24025 16.83951,-3.249h0.51557c0,0 4.64005,0 4.64005,4.64005c0,4.64005 -4.64005,4.64005 -4.64005,4.64005h-0.51557c-14.92082,-0.02414 -18.42694,11.07502 -28.87669,19.07061c0.00279,0.17354 0.00452,0.34714 0.00523,0.52074c-0.022,5.96675 -1.80078,11.55886 -3.85146,17.08c0.11937,0.02527 0.23865,0.05106 0.3579,0.07742c18.22305,4.02816 22.63324,28.8312 37.00113,38.27145c0,0 3.86077,2.57383 1.28693,6.43461c-2.57383,3.86077 -6.43461,1.28693 -6.43461,1.28693c-5.99065,-4.04137 -12.48584,-9.62868 -16.33322,-15.87124c-4.02339,-6.52815 -8.44497,-19.38703 -17.81321,-21.12936c-0.45099,-0.08389 -0.9065,-0.1542 -1.36603,-0.21202c-0.40761,1.17701 -0.79152,2.35817 -1.13745,3.54643c9.32401,6.9947 10.78631,16.99472 18.00986,25.25085c9.08353,10.38201 16.0385,14.20306 16.05828,29.30157c0,0 0,4.64005 -4.64005,4.64005c-4.64005,0 -4.64005,-4.64005 -4.64005,-4.64005c0.01821,-12.57971 -6.19244,-14.39109 -13.84432,-23.28576c-5.4381,-6.32133 -7.5262,-13.86613 -12.64129,-20.01993c0.01555,0.85414 0.0688,1.71568 0.16422,2.58554c0.91013,8.29685 1.27801,18.51479 3.91407,26.36378c3.35105,9.97774 10.06933,16.4762 7.91844,27.94542c-1.67831,8.9493 -5.6574,15.96962 -10.48696,23.47431c0,0 -2.52072,3.89568 -6.41635,1.37494c-3.89568,-2.52072 -1.37494,-6.41635 -1.37494,-6.41635c4.15162,-6.37758 7.59546,-12.23036 9.10438,-19.83291c1.88266,-9.48547 -4.77968,-15.25379 -7.54841,-23.61079c-2.78843,-8.41638 -3.50974,-19.38221 -4.3349,-28.28579c-0.28925,-3.12128 -0.10296,-6.10885 0.38619,-9.00907c-1.42868,-0.02527 -2.94826,0.06867 -4.76007,-0.43413c-2.63629,-0.73156 -5.25708,-1.64654 -7.85277,-2.70067c1.30046,9.79612 4.64512,19.09066 5.48317,29.84396c1.29708,16.64376 -6.14484,32.49284 -4.80611,49.30792c0.6023,0.70121 2.70036,3.54995 -0.14835,6.39868c-3.28102,3.28102 -6.56204,0 -6.56204,0l-2.36179,-3.79975c-1.92259,-17.53354 6.15852,-34.11074 4.62518,-51.19924c-0.69378,-7.73198 -2.41437,-14.68656 -3.81887,-21.58966c-0.50892,2.42297 -1.19463,4.80608 -2.20143,7.10801c-0.3781,5.10372 -1.43857,10.13828 -3.69785,15.03561c-2.34632,5.08597 -5.18396,8.91503 -6.33769,14.78678c-2.50817,12.76486 7.24168,27.67455 7.27778,41.01727v1.03112c0,0 0,4.64005 -4.64005,4.64005c-4.64005,0 -4.64005,-4.64005 -4.64005,-4.64005v-1.03112c0.04532,-14.38307 -9.78842,-28.34559 -7.15794,-42.50378c0.92118,-4.95808 2.90657,-8.96345 4.99889,-13.06138c-3.65803,2.31892 -7.60873,4.05116 -11.27229,4.4987c-1.34578,0.16439 -8.56469,-0.9986 -10.25901,-1.00538c-7.43885,-0.02976 -14.68112,2.67966 -21.02592,6.14777c0,0 -4.08544,2.19985 -6.28529,-1.88561c-2.19985,-4.08544 1.88561,-6.28529 1.88561,-6.28529c6.97429,-3.70769 12.21765,-5.36218 20.01683,-6.68143c5.14355,-0.87008 9.7699,0.93535 14.69015,0.48148c5.33561,-0.49218 12.23104,-6.4215 15.54373,-10.28384c0.7045,-0.82135 1.31988,-1.6557 1.85844,-2.50211c0.21053,-5.15452 -0.38233,-10.39506 -0.89402,-15.52748c-0.01169,-0.07641 -0.02354,-0.15274 -0.03553,-0.22902c-8.60343,0.30365 -17.25978,-0.23546 -24.85064,-2.71994c-6.64629,-2.89296 -14.63483,-9.61955 -22.1956,-10.01013c-3.26342,-0.16858 -6.23485,1.96027 -9.36474,2.89947l-1.84888,0.19569c0,0 -4.64005,0 -4.64005,-4.64005zM259.48214,144.77089c-2.64499,0.04363 -5.53655,-1.51733 -7.92673,-0.38385c-1.61574,0.76624 -2.81317,2.15166 -4.04795,3.48974c-0.80849,2.53239 -1.677,5.13098 -2.58531,7.84142c-0.07604,0.42176 -0.14542,0.84121 -0.20847,1.2585c6.29766,-1.04512 12.56239,-1.90211 18.70916,-1.76452c1.28098,-3.6337 2.39514,-7.30138 2.94103,-11.11071c-1.74077,0.49483 -3.66655,0.61642 -6.8817,0.66944zM259.5671,165.85943c0.07742,-0.23216 0.15576,-0.46404 0.23488,-0.69567c-0.85354,0.09923 -1.70934,0.21579 -2.56459,0.34397c0.76991,0.13156 1.55043,0.24036 2.32967,0.35168zM263.82515,135.17567c0.93476,-0.30614 1.81364,-0.66827 2.64477,-1.07827c-1.48953,-14.7673 -9.02047,-29.32808 -6.93708,-44.50109c1.11776,-8.14043 8.19431,-14.39043 11.04343,-21.18649c-3.94474,2.34565 -7.7996,4.82937 -11.83763,7.1645c-2.37091,1.37106 -9.45738,4.06042 -10.3506,7.39229c-2.47096,9.21683 3.73754,19.57267 4.40168,28.4887c0.65731,8.82431 -0.10468,16.28768 -1.73064,23.63626c4.3137,-0.39574 8.50366,1.47997 12.7661,0.08408z" fill="url(#color-36)"/><path d="M216.35137,51.56056c1.68301,-5.42114 7.29356,-4.51883 7.29356,-4.51883l2.66107,0.42794c1.34253,0.21592 2.75538,0.5083 4.20853,0.83113c2.53275,-4.40957 4.59765,-9.50914 8.94586,-10.83595c7.15481,-2.18323 16.59275,6.14289 23.31314,8.08725c0,0 2.3663,0.71349 3.83975,2.82368c6.632,2.05197 16.20161,6.71753 19.14788,9.9299c7.98606,8.7074 3.89245,17.21396 7.37118,27.03882c1.40663,3.97269 5.74581,5.81689 8.52974,8.82371c4.4074,4.76036 8.82282,12.25354 9.98429,19.0857c1.24995,7.35275 -4.47026,20.76173 0.65974,27.32174c1.96664,2.5149 4.69744,4.19464 7.04618,6.29199c-1.20165,4.53538 -1.67095,9.37676 -3.60492,13.60614c-0.02311,0.05051 -7.27063,6.9547 -7.09285,9.67462c0.16045,2.45467 2.08338,4.4685 2.42526,6.90138c1.40924,10.0293 -0.64654,25.58241 -2.78954,35.45391c-1.35852,6.25782 -4.86111,12.16305 -9.27139,16.47554c-1.96936,1.92571 -6.96525,3.15317 -5.90265,5.78367c0.88786,2.19806 4.3277,2.83691 4.5824,5.21945c0.92977,8.69667 -3.71807,16.52173 -10.01804,21.13912c-12.01794,8.80824 -21.63586,1.13972 -34.3263,2.18266c-5.35491,0.44006 -10.78966,1.29168 -16.10536,0.46558c-9.38572,0.98971 -26.2473,0.37286 -33.2509,-8.13767c-2.07912,-2.52651 -1.2901,-6.67003 -2.56676,-9.75689c-1.96622,-4.75412 -7.43876,-7.51163 -9.75325,-11.71794c-2.36856,-4.30467 -1.32725,-10.14675 -3.59683,-14.51327c-4.76934,-9.17586 -12.61966,-19.15252 -13.32477,-30.53397c-0.29774,-4.80599 3.10362,-9.51858 2.24486,-14.24507c-0.58016,-3.19298 -9.26246,-9.99223 -9.58101,-10.79278c-4.32892,-10.87964 1.65817,-29.89716 7.50013,-38.33003c5.3994,-9.2751 -0.50667,-19.0608 4.74409,-29.86263c4.84074,-9.95831 5.12805,-9.85076 13.40404,-14.98724c2.64793,-1.64345 7.87199,-3.46206 9.89482,-6.6978c5.6257,-8.9988 1.26176,-17.5191 13.38808,-22.6338zM235.35603,64.08668c-4.25685,2.52128 -10.02624,0.98917 -14.98383,1.33253c-2.61736,0.18131 -1.86321,5.2999 -2.73755,7.97231c-1.03361,3.15927 -1.90115,6.49522 -3.70425,9.22135c-6.38024,9.64625 -17.10152,9.44495 -22.33,19.97119c-4.02101,8.09529 1.02058,12.66832 -0.77616,21.41782c-0.73699,3.58891 -3.13427,6.52565 -4.70144,9.78844c-5.17479,6.63225 -4.41676,11.50729 -5.74785,19.99277c-0.21548,1.37373 -1.42855,2.88497 -0.78577,4.09279c0.89823,1.68787 3.45867,1.56215 4.59787,3.0706c2.47736,3.2804 5.01195,6.83306 5.98002,10.9361c1.49704,6.34522 -2.08793,10.50608 -1.97895,16.43206c0.158,8.5872 8.37076,17.50065 11.74454,24.45181c2.07758,4.28044 0.96282,9.95478 3.35171,14.04109c2.84192,4.86136 8.20298,7.84711 10.40561,13.08153c0.82674,1.96471 -0.4666,4.6434 0.64349,6.43759c0.7294,1.17891 2.58592,0.49698 3.8592,0.83998c7.3175,1.9709 11.77872,2.87267 19.39562,2.06947c8.3811,1.39669 15.52127,-0.87864 24.0415,-0.09697c6.54378,0.60033 12.44566,4.44271 18.37944,0.03997c1.96102,-1.45505 5.57088,-3.56874 4.58604,-5.90884c-1.01527,-2.41252 -4.63483,-3.43113 -4.74197,-6.07897c-0.182,-4.49895 1.89018,-8.91028 3.97792,-12.80741c2.27416,-4.24513 7.80205,-5.56766 10.2294,-9.71255c0.65049,-1.11077 1.9801,-11.64521 2.01001,-12.02213c0.55535,-6.99674 2.73995,-16.51311 1.70089,-23.48028c-0.4893,-3.28089 -2.77831,-6.26361 -2.55906,-9.5784c0.49775,-7.52525 5.3222,-14.84757 11.34039,-18.24984c-17.19001,-5.46855 -3.6262,-28.61288 -10.04291,-40.59529c-4.79451,-8.95312 -11.66164,-9.48839 -15.83996,-19.92768c-1.84498,-4.60961 -0.15189,-18.48884 -4.03367,-21.82988c-1.46601,-1.26176 -3.64364,-1.0481 -5.33185,-1.92746c-2.9804,-1.5524 -6.16066,-5.21094 -9.9206,-5.18084c-4.97179,0.03979 -9.59771,3.27163 -14.5663,3.46928c-3.58291,0.14255 -7.52849,-0.47382 -11.46163,-1.262z" data-paper-data="{&quot;index&quot;:null}" fill="url(#color-37)"/></g><path d="M216.35137,51.56056c1.68301,-5.42114 7.29356,-4.51883 7.29356,-4.51883l2.66107,0.42794c1.34253,0.21592 2.75538,0.5083 4.20853,0.83113c2.53275,-4.40957 4.59765,-9.50914 8.94586,-10.83595c7.15481,-2.18323 16.59275,6.14289 23.31314,8.08725c0,0 2.3663,0.71349 3.83975,2.82368c6.632,2.05197 16.20161,6.71753 19.14788,9.9299c7.98606,8.7074 3.89245,17.21396 7.37118,27.03882c1.40663,3.97269 5.74581,5.81689 8.52974,8.82371c4.4074,4.76036 8.82282,12.25354 9.98429,19.0857c1.24995,7.35275 -4.47026,20.76173 0.65974,27.32174c1.96664,2.5149 4.69744,4.19464 7.04618,6.29199c-1.20165,4.53538 -1.67095,9.37676 -3.60492,13.60614c-0.02311,0.05051 -7.27063,6.9547 -7.09285,9.67462c0.16045,2.45467 2.08338,4.4685 2.42526,6.90138c1.40924,10.0293 -0.64654,25.58241 -2.78954,35.45391c-1.35852,6.25782 -4.86111,12.16305 -9.27139,16.47554c-1.96936,1.92571 -6.96525,3.15317 -5.90265,5.78367c0.88786,2.19806 4.3277,2.83691 4.5824,5.21945c0.92977,8.69667 -3.71807,16.52173 -10.01804,21.13912c-12.01794,8.80824 -21.63586,1.13972 -34.3263,2.18266c-5.35491,0.44006 -10.78966,1.29168 -16.10536,0.46558c-9.38572,0.98971 -26.2473,0.37286 -33.2509,-8.13767c-2.07912,-2.52651 -1.2901,-6.67003 -2.56676,-9.75689c-1.96622,-4.75412 -7.43876,-7.51163 -9.75325,-11.71794c-2.36856,-4.30467 -1.32725,-10.14675 -3.59683,-14.51327c-4.76934,-9.17586 -12.61966,-19.15252 -13.32477,-30.53397c-0.29774,-4.80599 3.10362,-9.51858 2.24486,-14.24507c-0.58016,-3.19298 -9.26246,-9.99223 -9.58101,-10.79278c-4.32892,-10.87964 1.65817,-29.89716 7.50013,-38.33003c5.3994,-9.2751 -0.50667,-19.0608 4.74409,-29.86263c4.84074,-9.95831 5.12805,-9.85076 13.40404,-14.98724c2.64793,-1.64345 7.87199,-3.46206 9.89482,-6.6978c5.6257,-8.9988 1.26176,-17.5191 13.38808,-22.6338zM235.35603,64.08668c-4.25685,2.52128 -10.02624,0.98917 -14.98383,1.33253c-2.61736,0.18131 -1.86321,5.2999 -2.73755,7.97231c-1.03361,3.15927 -1.90115,6.49522 -3.70425,9.22135c-6.38024,9.64625 -17.10152,9.44495 -22.33,19.97119c-4.02101,8.09529 1.02058,12.66832 -0.77616,21.41782c-0.73699,3.58891 -3.13427,6.52565 -4.70144,9.78844c-5.17479,6.63225 -4.41676,11.50729 -5.74785,19.99277c-0.21548,1.37373 -1.42855,2.88497 -0.78577,4.09279c0.89823,1.68787 3.45867,1.56215 4.59787,3.0706c2.47736,3.2804 5.01195,6.83306 5.98002,10.9361c1.49704,6.34522 -2.08793,10.50608 -1.97895,16.43206c0.158,8.5872 8.37076,17.50065 11.74454,24.45181c2.07758,4.28044 0.96282,9.95478 3.35171,14.04109c2.84192,4.86136 8.20298,7.84711 10.40561,13.08153c0.82674,1.96471 -0.4666,4.6434 0.64349,6.43759c0.7294,1.17891 2.58592,0.49698 3.8592,0.83998c7.3175,1.9709 11.77872,2.87267 19.39562,2.06947c8.3811,1.39669 15.52127,-0.87864 24.0415,-0.09697c6.54378,0.60033 12.44566,4.44271 18.37944,0.03997c1.96102,-1.45505 5.57088,-3.56874 4.58604,-5.90884c-1.01527,-2.41252 -4.63483,-3.43113 -4.74197,-6.07897c-0.182,-4.49895 1.89018,-8.91028 3.97792,-12.80741c2.27416,-4.24513 7.80205,-5.56766 10.2294,-9.71255c0.65049,-1.11077 1.9801,-11.64521 2.01001,-12.02213c0.55535,-6.99674 2.73995,-16.51311 1.70089,-23.48028c-0.4893,-3.28089 -2.77831,-6.26361 -2.55906,-9.5784c0.49775,-7.52525 5.3222,-14.84757 11.34039,-18.24984c-17.19001,-5.46855 -3.6262,-28.61288 -10.04291,-40.59529c-4.79451,-8.95312 -11.66164,-9.48839 -15.83996,-19.92768c-1.84498,-4.60961 -0.15189,-18.48884 -4.03367,-21.82988c-1.46601,-1.26176 -3.64364,-1.0481 -5.33185,-1.92746c-2.9804,-1.5524 -6.16066,-5.21094 -9.9206,-5.18084c-4.97179,0.03979 -9.59771,3.27163 -14.5663,3.46928c-3.58291,0.14255 -7.52849,-0.47382 -11.46163,-1.262z" data-paper-data="{&quot;index&quot;:null}" fill="url(#color-38)" stroke="none" stroke-width="0.5"/><path d="M213.73832,265.49357c-13.94272,-5.44142 -8.92513,-14.50593 -15.39349,-24.07955c-2.32584,-3.44242 -8.3324,-5.37721 -11.37696,-7.12564c-9.51565,-5.4646 -9.84602,-5.35014 -15.41183,-15.94454c-6.03724,-11.49179 0.75348,-21.90253 -5.45471,-31.77011c-6.71701,-8.97152 -13.60087,-29.20381 -8.62355,-40.77838c0.36625,-0.8517 10.34909,-8.08524 11.01615,-11.48216c0.9874,-5.02836 -2.92345,-10.04201 -2.58111,-15.155c0.81074,-12.10845 9.83696,-22.72238 15.32066,-32.48434c2.60953,-4.6454 1.41224,-10.86068 4.13559,-15.44029c2.66116,-4.47499 8.95346,-7.40866 11.21419,-12.46644c1.46789,-3.28404 0.56068,-7.69222 2.95122,-10.38011c8.05269,-9.05414 27.43994,-9.71036 38.23155,-8.65748c6.11195,-0.87886 12.36078,0.02716 18.51779,0.49533c14.59137,1.10952 25.64996,-7.0488 39.46805,2.32207c7.24362,4.91234 12.58767,13.23723 11.51863,22.4894c-0.29289,2.53471 -4.24794,3.21439 -5.26883,5.55283c-1.22177,2.79855 4.52242,4.10438 6.7868,6.15311c5.07088,4.58797 9.09816,10.87035 10.66017,17.52792c2.46399,10.50204 4.8277,27.04861 3.20736,37.71852c-0.39308,2.58828 -2.60406,4.73075 -2.78855,7.34221c-0.20441,2.89362 8.12873,10.23882 8.15531,10.29258c2.22364,4.49953 2.76327,9.65014 4.1449,14.47521c-2.70054,2.2313 -5.84038,4.01839 -8.1016,6.6939c-5.89845,6.97905 0.6786,21.24454 -0.7586,29.06694c-1.33543,7.2686 -6.41225,15.24036 -11.47985,20.30481c-3.2009,3.19888 -8.19007,5.16089 -9.80739,9.38733c-3.9998,10.45241 0.70702,19.50236 -8.47528,28.76597c-3.3876,3.41759 -14.39061,8.38112 -22.01602,10.56419c-1.69412,2.24498 -4.4149,3.00407 -4.4149,3.00407c-7.72703,2.06856 -18.57868,10.9265 -26.80523,8.60381c-4.99951,-1.41157 -7.37372,-6.83688 -10.28582,-11.5281c-1.67082,0.34342 -3.2953,0.6545 -4.83893,0.88422l-3.05969,0.45527c0,0 -6.45095,0.95994 -8.38607,-4.80746zM235.58963,252.16728c4.5223,-0.83855 9.05889,-1.49425 13.17848,-1.34261c5.7128,0.21025 11.03162,3.64851 16.74814,3.69085c4.32314,0.03201 7.9798,-3.86019 11.40662,-5.51178c1.9411,-0.93552 4.44493,-0.70822 6.13052,-2.05056c4.46325,-3.55445 2.51654,-18.32019 4.63789,-23.22426c4.80419,-11.10612 12.69995,-11.67557 18.2126,-21.20058c7.37785,-12.74776 -8.21767,-37.37045 11.54721,-43.1883c-6.91965,-3.61963 -12.46673,-11.40963 -13.03905,-19.41556c-0.25211,-3.52651 2.37977,-6.69976 2.94235,-10.19022c1.19469,-7.41219 -1.31716,-17.53639 -1.95568,-24.98006c-0.0344,-0.40102 -1.56315,-11.60837 -2.31108,-12.79008c-2.79096,-4.4096 -9.14685,-5.81661 -11.76165,-10.33291c-2.40049,-4.14611 -4.78303,-8.83919 -4.57376,-13.6255c0.12319,-2.81695 4.28491,-3.90066 5.45224,-6.46729c1.13233,-2.48958 -3.01827,-4.73826 -5.27302,-6.28625c-6.82258,-4.68395 -13.60846,-0.59619 -21.13243,0.04251c-9.7965,0.8316 -18.00617,-1.58906 -27.64268,-0.10316c-8.75783,-0.85449 -13.8873,0.10486 -22.3009,2.20165c-1.46401,0.36487 -3.59857,-0.36062 -4.43725,0.8936c-1.27636,1.90879 0.21069,4.75855 -0.73988,6.84879c-2.53258,5.56877 -8.69661,8.74524 -11.96422,13.91712c-2.7467,4.34733 -1.46496,10.3841 -3.85373,14.93795c-3.87914,7.39517 -13.3221,16.87796 -13.50377,26.01367c-0.12535,6.3045 3.99664,10.73112 2.27537,17.48163c-1.11306,4.36516 -4.0273,8.14469 -6.87573,11.63463c-1.30983,1.60482 -4.25382,1.47108 -5.28658,3.26675c-0.73903,1.28495 0.6557,2.89277 0.90349,4.35424c1.53047,9.02751 0.65889,14.21393 6.60882,21.26981c1.80191,3.47124 4.55823,6.59557 5.40565,10.41372c2.06584,9.3084 -3.73091,14.17349 0.8924,22.78588c6.01166,11.19862 18.33887,10.98446 25.6748,21.24686c2.07317,2.90022 3.07067,6.44928 4.25911,9.81036c1.00531,2.84309 0.13819,8.28867 3.14759,8.48153c5.7002,0.36528 12.33374,-1.26466 17.22822,1.41765z" fill="url(#color-39)" stroke="none" stroke-width="0.5"/><g><path d="M208.00853,174.06748v-32.78974h3.71205v32.78974z" fill="url(#color-40)" stroke="none" stroke-width="0"/><path d="M276.26894,174.06748v-32.78974h3.71205v32.78974z" fill="url(#color-41)" stroke="none" stroke-width="0"/><path d="M189.67921,146.67401v-6.51548h109.04872v6.51548z" fill="url(#color-42)" stroke="none" stroke-width="0"/><g stroke-width="0"><path d="M294.1527,143.9128c0,9.27703 -7.18872,16.79757 -16.05651,16.79757c-8.86778,0 -16.05648,-7.52055 -16.05648,-16.79757c0,-9.27703 7.18872,-16.79757 16.05648,-16.79757c8.86778,0 16.05651,7.5205 16.05651,16.79757z" fill="url(#color-43)" stroke="none"/><g stroke="#a70000"><path d="M284.61286,144.15275c0,3.7083 -2.9271,6.7145 -6.53785,6.7145c-3.61075,0 -6.53785,-3.0062 -6.53785,-6.7145c0,-3.7083 2.92708,-6.71454 6.53785,-6.71454c3.61075,0 6.53785,3.00624 6.53785,6.71454z" fill="#960000"/><path d="M283.05218,144.15275c0,2.82311 -2.22836,5.11166 -4.9772,5.11166c-2.74882,0 -4.97718,-2.28858 -4.97718,-5.11166c0,-2.82311 2.22834,-5.11171 4.97718,-5.11171c2.74882,0 4.9772,2.28861 4.9772,5.11171z" fill="#000000"/></g><path d="M294.1527,143.9128c0,0.06818 -8.1296,-3.79847 -16.20803,-3.74352c-7.97743,0.05426 -15.90497,4.03238 -15.90497,3.74352c0,-9.27703 7.18872,-16.79757 16.05648,-16.79757c8.86778,0 16.05651,7.5205 16.05651,16.79757z" fill="url(#color-44)" stroke="none"/></g><path d="M231.74616,215.67915l0.01433,-3.43971l23.62247,0.09849l-0.01436,3.43971z" fill="url(#color-45)" stroke="none" stroke-width="0"/><path d="M252.83916,216.67653l0.11369,-39.58676l4.13087,0.02499l-0.11369,39.58676z" fill="url(#color-46)" stroke="none" stroke-width="0"/><path d="M230.5958,216.54198l0.11369,-39.58672l4.13087,0.02496l-0.11369,39.58676z" fill="url(#color-47)" stroke="none" stroke-width="0"/><g stroke="none" stroke-width="0"><path d="M235.87594,244.19822l0.1384,-33.20461l15.82259,0.06598l-0.13837,33.20461z" fill="url(#color-48)"/><path d="M235.87594,244.19822l0.01743,-4.1806l15.82259,0.06594l-0.01743,4.1806z" fill="#494949"/></g><path d="M195.6694,172.22746l97.54052,0.20586l0.00714,9.63268l-97.55194,-0.20843z" fill="url(#color-49)" stroke="none" stroke-width="0"/><g><path d="M213.26126,196.00039c-1.51665,0.30334 -1.81999,-1.21331 -1.81999,-1.21331l-0.22433,-1.14264c-0.93832,-7.50643 2.46452,-13.27506 -1.51139,-19.94288c-2.5794,-7.05302 -0.22438,-9.92243 0.05678,-16.59806c0.15021,-3.56607 -2.30534,-6.67463 -2.67261,-10.08897c-0.39429,-3.66531 2.13462,-5.9114 2.92409,-9.20534c0,0 0.37513,-1.5005 1.87563,-1.12536c1.5005,0.37513 1.12536,1.87563 1.12536,1.87563c-0.70822,2.74423 -3.19209,5.18266 -2.8502,8.11753c0.41185,3.53529 2.89681,6.78139 2.68922,10.53352c-0.35014,6.32818 -2.72226,8.61309 -0.35565,15.16058c4.33975,7.1818 0.80641,13.03534 1.78822,20.88964l0.18815,0.91962c0,0 0.30329,1.51665 -1.21331,1.81999z" fill="url(#color-50)" stroke="none" stroke-width="0.5"/><path d="M208.83342,194.79308c-1.54668,0 -1.54668,-1.54668 -1.54668,-1.54668v-1.23735c0.0868,-7.09655 5.98626,-10.77687 5.9805,-17.73533c0.02824,-7.68521 -4.66696,-12.63085 -8.07117,-18.87129c-2.42784,-4.45065 -1.7359,-11.68239 -1.19948,-16.56397c0,0 0.17081,-1.53721 1.70805,-1.36642c1.53721,0.17081 1.36642,1.70805 1.36642,1.70805c-0.4055,3.60595 -1.04147,9.45344 0.14065,12.96417c2.65627,7.88863 9.11905,12.90857 9.14893,22.12946c-0.00635,7.12805 -6.09577,10.95113 -5.9805,17.73533v1.23735c0,0 0,1.54668 -1.54668,1.54668z" fill="url(#color-51)" stroke="none" stroke-width="0.5"/><g stroke-width="0"><path d="M222.38646,198.35614c0,9.27703 -7.18872,16.79757 -16.05651,16.79757c-8.86778,0 -16.05648,-7.5205 -16.05648,-16.79757c0,-9.27703 7.18872,-16.79757 16.05648,-16.79757c8.86778,0 16.05651,7.52055 16.05651,16.79757z" fill="url(#color-52)" stroke="none"/><g stroke="#a70000"><path d="M208.92833,206.0202c0,3.7083 -2.92708,6.7145 -6.53785,6.7145c-3.61075,0 -6.53785,-3.0062 -6.53785,-6.7145c0,-3.7083 2.92708,-6.7145 6.53785,-6.7145c3.61075,0 6.53785,3.0062 6.53785,6.7145z" fill="#960000"/><path d="M207.3677,206.0202c0,2.82311 -2.22834,5.11166 -4.97718,5.11166c-2.74882,0 -4.97718,-2.28858 -4.97718,-5.11166c0,-2.82311 2.22834,-5.11171 4.97718,-5.11171c2.74882,0 4.97718,2.28861 4.97718,5.11171z" fill="#000000"/></g></g></g><path d="M226.0985,143.9128c0,0.06818 -8.1296,-1.73623 -16.20803,-1.68128c-7.97743,0.05426 -15.90497,1.97014 -15.90497,1.68128c0,-9.27703 7.18872,-16.79757 16.05648,-16.79757c8.86778,0 16.05651,7.5205 16.05651,16.79757z" fill="url(#color-53)" stroke="none" stroke-width="0"/></g><path d="M177.35107,115.757c-1.0712,-3.46203 2.67806,-4.4512 2.67806,-4.4512l2.43767,-0.57895c15.37068,-7.00305 28.72316,-15.89361 46.69362,-15.93907c0.71426,0.17558 1.45085,0.38614 2.20295,0.60974c0.32665,-1.15194 0.51149,-2.26079 0.49074,-3.29162c-0.14658,-7.28631 -4.80679,-12.5557 -6.56195,-19.1803c-2.87254,-10.84202 7.11927,-21.89783 15.77718,-27.57339c0,0 3.19443,-2.06479 5.43054,0.88492c2.2361,2.94971 -0.95832,5.01452 -0.95832,5.01452c-5.73603,3.64377 -15.04938,12.49302 -12.65942,20.01947c2.25996,7.11704 6.87252,13.08725 6.76774,21.02747c-0.02213,1.6763 -0.24589,3.32094 -0.61688,4.94385c0.84897,0.07829 1.68992,0.08662 2.51401,-0.00332c3.35067,-0.36564 6.18348,-1.60932 8.83334,-3.14708c2.25172,-9.67214 -3.8742,-19.30521 0.45964,-28.76814c2.23452,-4.87908 8.00608,-9.40018 11.78324,-13.27643c0,0 2.60849,-2.67625 5.50682,-0.2676c2.89833,2.40865 0.28982,5.08494 0.28982,5.08494c-3.16754,3.24909 -8.58859,7.26819 -10.43286,11.34059c-2.92554,6.46007 -0.32953,13.70528 0.22443,20.91893c1.64103,-0.9604 3.34312,-1.80452 5.1884,-2.38934c5.33025,-1.68928 11.22056,1.41358 16.19932,-2.32077c4.4143,-3.31099 12.1219,-11.96517 10.53544,-16.94345c0,0 -0.76472,-3.53067 3.05886,-4.23682c3.82357,-0.70611 4.58828,2.82452 4.58828,2.82452c1.5673,9.49065 -8.84201,23.45985 -19.03044,26.68756c-4.02748,1.2759 -9.31718,-0.40077 -12.88534,0.82055c-2.92454,1.00101 -6.09074,4.01043 -9.03058,5.76286c-5.04352,13.64877 -10.78605,21.12618 -5.45724,35.86728c3.15679,6.39718 6.76944,11.57398 5.0636,18.92246c-1.12326,4.83905 -6.30865,11.59575 -5.6936,16.5852c1.08705,8.81796 4.67665,13.50207 1.62399,23.05187l-0.84063,3.12091c0,0 -0.9457,3.4931 -4.72862,2.6198c-3.78287,-0.87326 -2.83716,-4.36635 -2.83716,-4.36635l0.93667,-3.4436c2.91117,-8.79041 -1.18154,-12.19998 -1.93057,-20.43815c-0.69866,-7.68461 6.60119,-14.58182 6.21734,-22.19726c-0.18771,-3.72381 -3.46919,-7.96343 -5.07004,-11.22272c-5.15856,-14.30719 -1.67667,-22.8014 3.00766,-34.73795c-3.42489,0.78798 -6.69971,0.92264 -10.23195,0.54492c-3.42556,8.12973 -8.8252,16.03332 -8.8252,25.05196c1.05672,3.81078 3.14824,8.24123 3.94318,12.00099c1.14362,5.40875 -1.94116,12.75103 -0.05655,17.83879c2.48239,6.70173 3.85403,10.28703 2.28736,17.66832l-0.78027,1.72468c0,0 -1.74383,3.22045 -5.23144,1.61021c-3.48763,-1.61021 -1.74383,-4.83069 -1.74383,-4.83069l0.10836,0.08355c1.48405,-6.6923 -0.20463,-8.25108 -2.15582,-14.33379c-1.82899,-5.70178 1.231,-12.50248 -0.05655,-18.26616c-0.89874,-4.02314 -2.9691,-8.5219 -4.05461,-12.61604c0,-6.83498 1.33249,-13.91288 4.26649,-20.28056c0.94792,-2.05728 2.482,-4.60882 3.89626,-7.26738c-0.12185,-0.03116 -0.24422,-0.06268 -0.36703,-0.09454c-15.74947,-0.05575 -28.75537,8.98108 -42.17084,15.24252l-3.78286,1.06215c0,0 -3.74926,0.98917 -4.82046,-2.47287z" fill="url(#color-54)" stroke="none" stroke-width="0.5"/><path d="M319.57439,108.50472c0.47961,3.83687 -3.35727,4.31646 -3.35727,4.31646l-3.65438,0.45461c-10.84911,0.92254 -18.24106,9.0753 -28.81093,10.98117c-6.89933,1.24398 -16.79278,-1.0231 -23.15739,1.16246c-7.2756,2.4984 -11.14163,19.03454 -12.59172,25.39471c-2.51021,5.07669 -5.73814,10.70786 -9.77466,15.56087c0.47854,-0.00662 0.95607,-0.01003 1.43248,-0.00981c11.98771,1.0481 16.39996,8.48515 24.86895,15.93458c1.91966,1.68855 5.45891,7.54377 8.03557,7.95894c8.52053,1.3728 17.28936,-2.3044 25.9701,-1.40216c5.42525,0.56387 9.78258,3.95417 14.72418,6.0023c0,0 3.56928,1.4872 2.08209,5.05647c-1.4872,3.56928 -5.05647,2.08206 -5.05647,2.08206c-3.83175,-1.60422 -8.37873,-5.14436 -12.59364,-5.45359c-8.61599,-0.6321 -18.5157,3.5203 -26.90304,1.2415c-12.89138,-3.50253 -16.82442,-22.77863 -31.4245,-23.69232c-3.31057,0.00145 -6.69765,0.19408 -10.11189,0.4284c-3.59242,2.28647 -7.61007,3.76497 -12.08421,3.97847c-6.80106,0.32456 -11.20068,-3.88665 -18.26404,-2.28651c-11.55838,2.61842 -18.86448,11.12397 -31.52849,8.82263c0,0 -3.79164,-0.75835 -3.0333,-4.54995c0.75835,-3.7916 4.54995,-3.03334 4.54995,-3.03334c7.76554,1.76292 14.48781,-2.88008 21.43978,-6.21532c-7.8523,-2.1735 -15.70808,-3.59645 -23.84513,1.05002l-2.31846,0.48661c0,0 -3.86671,0 -3.86671,-3.86671c0,-2.88157 2.1474,-3.61575 3.24162,-3.80278c8.37539,-4.1703 20.52678,-4.61968 29.61579,-2.62569c4.82369,1.05823 8.40536,4.34056 13.24821,4.78359c6.66271,0.60949 13.58319,0.12729 20.46605,-0.33271c6.20917,-4.67208 10.78654,-12.66841 13.8421,-18.70297c2.04763,-9.49603 7.19611,-26.24549 17.36972,-30.12209c6.66431,-2.53938 17.26377,-0.2915 24.42842,-1.4812c10.68824,-1.77476 18.1005,-9.97158 29.34954,-11.04929l3.39534,-0.42664c0,0 3.83683,-0.47961 4.31646,3.35727z" fill="url(#color-55)" stroke="none" stroke-width="0.5"/><path d="M213.73832,265.49357c-13.94272,-5.44142 -8.92513,-14.50593 -15.39349,-24.07955c-2.32584,-3.44242 -8.3324,-5.37721 -11.37696,-7.12564c-9.51565,-5.4646 -9.84602,-5.35014 -15.41183,-15.94454c-6.03724,-11.49179 0.75348,-21.90253 -5.45471,-31.77011c-6.71701,-8.97152 -13.60087,-29.20381 -8.62355,-40.77838c0.36625,-0.8517 10.34909,-8.08524 11.01615,-11.48216c0.9874,-5.02836 -2.92345,-10.04201 -2.58111,-15.155c0.81074,-12.10845 9.83696,-22.72238 15.32066,-32.48434c2.60953,-4.6454 1.41224,-10.86068 4.13559,-15.44029c2.66116,-4.47499 8.95346,-7.40866 11.21419,-12.46644c1.46789,-3.28404 0.56068,-7.69222 2.95122,-10.38011c8.05269,-9.05414 27.43994,-9.71036 38.23155,-8.65748c6.11195,-0.87886 12.36078,0.02716 18.51779,0.49533c14.59137,1.10952 25.64996,-7.0488 39.46805,2.32207c7.24362,4.91234 12.58767,13.23723 11.51863,22.4894c-0.29289,2.53471 -4.24794,3.21439 -5.26883,5.55283c-1.22177,2.79855 4.52242,4.10438 6.7868,6.15311c5.07088,4.58797 9.09816,10.87035 10.66017,17.52792c2.46399,10.50204 4.8277,27.04861 3.20736,37.71852c-0.39308,2.58828 -2.60406,4.73075 -2.78855,7.34221c-0.20441,2.89362 8.12873,10.23882 8.15531,10.29258c2.22364,4.49953 2.76327,9.65014 4.1449,14.47521c-2.70054,2.2313 -5.84038,4.01839 -8.1016,6.6939c-5.89845,6.97905 0.6786,21.24454 -0.7586,29.06694c-1.33543,7.2686 -6.41225,15.24036 -11.47985,20.30481c-3.2009,3.19888 -8.19007,5.16089 -9.80739,9.38733c-3.9998,10.45241 0.70702,19.50236 -8.47528,28.76597c-3.3876,3.41759 -14.39061,8.38112 -22.01602,10.56419c-1.69412,2.24498 -4.4149,3.00407 -4.4149,3.00407c-7.72703,2.06856 -18.57868,10.9265 -26.80523,8.60381c-4.99951,-1.41157 -7.37372,-6.83688 -10.28582,-11.5281c-1.67082,0.34342 -3.2953,0.6545 -4.83893,0.88422l-3.05969,0.45527c0,0 -6.45095,0.95994 -8.38607,-4.80746zM235.58963,252.16728c4.5223,-0.83855 9.05889,-1.49425 13.17848,-1.34261c5.7128,0.21025 11.03162,3.64851 16.74814,3.69085c4.32314,0.03201 7.9798,-3.86019 11.40662,-5.51178c1.9411,-0.93552 4.44493,-0.70822 6.13052,-2.05056c4.46325,-3.55445 2.51654,-18.32019 4.63789,-23.22426c4.80419,-11.10612 12.69995,-11.67557 18.2126,-21.20058c7.37785,-12.74776 -8.21767,-37.37045 11.54721,-43.1883c-6.91965,-3.61963 -12.46673,-11.40963 -13.03905,-19.41556c-0.25211,-3.52651 2.37977,-6.69976 2.94235,-10.19022c1.19469,-7.41219 -1.31716,-17.53639 -1.95568,-24.98006c-0.0344,-0.40102 -1.56315,-11.60837 -2.31108,-12.79008c-2.79096,-4.4096 -9.14685,-5.81661 -11.76165,-10.33291c-2.40049,-4.14611 -4.78303,-8.83919 -4.57376,-13.6255c0.12319,-2.81695 4.28491,-3.90066 5.45224,-6.46729c1.13233,-2.48958 -3.01827,-4.73826 -5.27302,-6.28625c-6.82258,-4.68395 -13.60846,-0.59619 -21.13243,0.04251c-9.7965,0.8316 -18.00617,-1.58906 -27.64268,-0.10316c-8.75783,-0.85449 -13.8873,0.10486 -22.3009,2.20165c-1.46401,0.36487 -3.59857,-0.36062 -4.43725,0.8936c-1.27636,1.90879 0.21069,4.75855 -0.73988,6.84879c-2.53258,5.56877 -8.69661,8.74524 -11.96422,13.91712c-2.7467,4.34733 -1.46496,10.3841 -3.85373,14.93795c-3.87914,7.39517 -13.3221,16.87796 -13.50377,26.01367c-0.12535,6.3045 3.99664,10.73112 2.27537,17.48163c-1.11306,4.36516 -4.0273,8.14469 -6.87573,11.63463c-1.30983,1.60482 -4.25382,1.47108 -5.28658,3.26675c-0.73903,1.28495 0.6557,2.89277 0.90349,4.35424c1.53047,9.02751 0.65889,14.21393 6.60882,21.26981c1.80191,3.47124 4.55823,6.59557 5.40565,10.41372c2.06584,9.3084 -3.73091,14.17349 0.8924,22.78588c6.01166,11.19862 18.33887,10.98446 25.6748,21.24686c2.07317,2.90022 3.07067,6.44928 4.25911,9.81036c1.00531,2.84309 0.13819,8.28867 3.14759,8.48153c5.7002,0.36528 12.33374,-1.26466 17.22822,1.41765z" fill="url(#color-56)" stroke="none" stroke-width="0.5"/></g><g stroke="none" stroke-width="0"><path d="M277.97422,119.25705c13.66872,0 24.74943,11.4306 24.74943,25.53097c0,14.10036 -11.0807,25.53097 -24.74943,25.53097c-13.66872,0 -24.74943,-11.4306 -24.74943,-25.53097c0,-14.10036 11.0807,-25.53097 24.74943,-25.53097z" fill="url(#color-57)"/><path d="M277.97422,143.17553c0.8633,0 1.56311,0.72192 1.56311,1.61248c0,0.89054 -0.69985,1.61248 -1.56311,1.61248c-0.8633,0 -1.56311,-0.72192 -1.56311,-1.61248c0,-0.89054 0.69985,-1.61248 1.56311,-1.61248z" fill="#ffffff"/></g></g></g></g></svg>