<svg version="1.1" xmlns="http://www.w3.org/2000/svg" xmlns:xlink="http://www.w3.org/1999/xlink" width="469.91946" height="469.66999" viewBox="0,0,469.91946,469.66999"><defs><linearGradient x1="140.82637" y1="161.98183" x2="134.04703" y2="250.86571" gradientUnits="userSpaceOnUse" id="color-1"><stop offset="0" stop-color="#a3a3a3"/><stop offset="1" stop-color="#5d5d5d"/></linearGradient><linearGradient x1="137.05607" y1="215.74552" x2="128.71558" y2="325.09743" gradientUnits="userSpaceOnUse" id="color-2"><stop offset="0" stop-color="#c5c5c5"/><stop offset="1" stop-color="#5d5d5d"/></linearGradient><linearGradient x1="141.11741" y1="210.34018" x2="126.90649" y2="396.65937" gradientUnits="userSpaceOnUse" id="color-3"><stop offset="0" stop-color="#c5c5c5"/><stop offset="1" stop-color="#5d5d5d"/></linearGradient><linearGradient x1="142.21202" y1="203.02872" x2="125.62561" y2="420.49287" gradientUnits="userSpaceOnUse" id="color-4"><stop offset="0" stop-color="#c5c5c5"/><stop offset="1" stop-color="#5d5d5d"/></linearGradient><linearGradient x1="137.84399" y1="209.49873" x2="124.00146" y2="390.98791" gradientUnits="userSpaceOnUse" id="color-5"><stop offset="0" stop-color="#c0c0c0"/><stop offset="1" stop-color="#9f9f9f"/></linearGradient><linearGradient x1="94.44791" y1="220.20413" x2="92.0978" y2="251.01631" gradientUnits="userSpaceOnUse" id="color-6"><stop offset="0" stop-color="#c0c0c0"/><stop offset="1" stop-color="#838383"/></linearGradient><linearGradient x1="92.98463" y1="239.3891" x2="90.63453" y2="270.20129" gradientUnits="userSpaceOnUse" id="color-7"><stop offset="0" stop-color="#c0c0c0"/><stop offset="1" stop-color="#838383"/></linearGradient><linearGradient x1="91.5657" y1="257.99265" x2="89.2156" y2="288.80485" gradientUnits="userSpaceOnUse" id="color-8"><stop offset="0" stop-color="#c0c0c0"/><stop offset="1" stop-color="#838383"/></linearGradient><linearGradient x1="92.06661" y1="275.9259" x2="89.71651" y2="306.73808" gradientUnits="userSpaceOnUse" id="color-9"><stop offset="0" stop-color="#c0c0c0"/><stop offset="1" stop-color="#838383"/></linearGradient><linearGradient x1="95.02494" y1="298.39055" x2="93.09716" y2="323.66557" gradientUnits="userSpaceOnUse" id="color-10"><stop offset="0" stop-color="#c0c0c0"/><stop offset="1" stop-color="#838383"/></linearGradient><linearGradient x1="179.29186" y1="226.67534" x2="176.94175" y2="257.48752" gradientUnits="userSpaceOnUse" id="color-11"><stop offset="0" stop-color="#c0c0c0"/><stop offset="1" stop-color="#838383"/></linearGradient><linearGradient x1="177.82858" y1="245.86031" x2="175.47848" y2="276.6725" gradientUnits="userSpaceOnUse" id="color-12"><stop offset="0" stop-color="#c0c0c0"/><stop offset="1" stop-color="#838383"/></linearGradient><linearGradient x1="176.40965" y1="264.46386" x2="174.05955" y2="295.27606" gradientUnits="userSpaceOnUse" id="color-13"><stop offset="0" stop-color="#c0c0c0"/><stop offset="1" stop-color="#838383"/></linearGradient><linearGradient x1="173.19477" y1="282.1137" x2="170.84467" y2="312.92588" gradientUnits="userSpaceOnUse" id="color-14"><stop offset="0" stop-color="#c0c0c0"/><stop offset="1" stop-color="#838383"/></linearGradient><linearGradient x1="166.86362" y1="303.86983" x2="164.93585" y2="329.14485" gradientUnits="userSpaceOnUse" id="color-15"><stop offset="0" stop-color="#c0c0c0"/><stop offset="1" stop-color="#838383"/></linearGradient><linearGradient x1="137.84399" y1="209.49873" x2="137.02918" y2="220.18165" gradientUnits="userSpaceOnUse" id="color-16"><stop offset="0" stop-color="#c0c0c0"/><stop offset="1" stop-color="#9f9f9f"/></linearGradient><linearGradient x1="106.5749" y1="369.50111" x2="144.48518" y2="372.3926" gradientUnits="userSpaceOnUse" id="color-17"><stop offset="0" stop-color="#7b7b7b"/><stop offset="1" stop-color="#b9b9b9"/></linearGradient><radialGradient cx="324.19265" cy="444.79719" r="75.35474" gradientUnits="userSpaceOnUse" id="color-18"><stop offset="0" stop-color="#a3a3a3"/><stop offset="1" stop-color="#5d5d5d"/></radialGradient><radialGradient cx="292.98192" cy="377.03202" r="73.6212" gradientUnits="userSpaceOnUse" id="color-19"><stop offset="0" stop-color="#a3a3a3"/><stop offset="1" stop-color="#5d5d5d"/></radialGradient><radialGradient cx="325.36763" cy="486.28649" r="10.33691" gradientUnits="userSpaceOnUse" id="color-20"><stop offset="0" stop-color="#a7a7a7"/><stop offset="1" stop-color="#7a7a7a"/></radialGradient><radialGradient cx="253.85874" cy="322.08966" r="26.86248" gradientUnits="userSpaceOnUse" id="color-21"><stop offset="0" stop-color="#a3a3a3"/><stop offset="1" stop-color="#5d5d5d"/></radialGradient><radialGradient cx="269.38475" cy="252.56801" r="32.78403" gradientUnits="userSpaceOnUse" id="color-22"><stop offset="0" stop-color="#a3a3a3"/><stop offset="1" stop-color="#5d5d5d"/></radialGradient><radialGradient cx="287.59704" cy="323.64823" r="74.22117" gradientUnits="userSpaceOnUse" id="color-23"><stop offset="0" stop-color="#a3a3a3"/><stop offset="1" stop-color="#5d5d5d"/></radialGradient><radialGradient cx="301.55589" cy="345.72035" r="10.33691" gradientUnits="userSpaceOnUse" id="color-24"><stop offset="0" stop-color="#a7a7a7"/><stop offset="1" stop-color="#7a7a7a"/></radialGradient><radialGradient cx="304.6363" cy="346.11419" r="20.89557" gradientUnits="userSpaceOnUse" id="color-25"><stop offset="0" stop-color="#efefef"/><stop offset="1" stop-color="#bdbdbd"/></radialGradient><linearGradient x1="289.5922" y1="267.45856" x2="237.19219" y2="297.20634" gradientUnits="userSpaceOnUse" id="color-26"><stop offset="0" stop-color="#efefef"/><stop offset="1" stop-color="#bdbdbd"/></linearGradient><linearGradient x1="-94.6943" y1="359.54051" x2="-78.39642" y2="368.625" gradientUnits="userSpaceOnUse" id="color-27"><stop offset="0" stop-color="#c5c5c5"/><stop offset="1" stop-color="#5d5d5d"/></linearGradient><radialGradient cx="-69.3786" cy="332.05818" r="71.7368" gradientUnits="userSpaceOnUse" id="color-28"><stop offset="0" stop-color="#c5c5c5"/><stop offset="1" stop-color="#5d5d5d"/></radialGradient><radialGradient cx="-123.32854" cy="422.51652" r="10.33691" gradientUnits="userSpaceOnUse" id="color-29"><stop offset="0" stop-color="#a7a7a7"/><stop offset="1" stop-color="#7a7a7a"/></radialGradient><radialGradient cx="-31.78527" cy="282.4623" r="70.12742" gradientUnits="userSpaceOnUse" id="color-30"><stop offset="0" stop-color="#c5c5c5"/><stop offset="1" stop-color="#5d5d5d"/></radialGradient><linearGradient x1="21.00781" y1="234.57038" x2="34.84635" y2="249.36299" gradientUnits="userSpaceOnUse" id="color-31"><stop offset="0" stop-color="#c5c5c5"/><stop offset="1" stop-color="#5d5d5d"/></linearGradient><radialGradient cx="15.44397" cy="229.98668" r="69.67611" gradientUnits="userSpaceOnUse" id="color-32"><stop offset="0" stop-color="#c5c5c5"/><stop offset="1" stop-color="#5d5d5d"/></radialGradient><radialGradient cx="-53.11569" cy="297.84551" r="10.33691" gradientUnits="userSpaceOnUse" id="color-33"><stop offset="0" stop-color="#a7a7a7"/><stop offset="1" stop-color="#7a7a7a"/></radialGradient><linearGradient x1="49.94213" y1="209.08661" x2="45.52075" y2="267.0552" gradientUnits="userSpaceOnUse" id="color-34"><stop offset="0" stop-color="#c5c5c5"/><stop offset="1" stop-color="#5d5d5d"/></linearGradient><radialGradient cx="233.03296" cy="219.17276" r="10.33691" gradientUnits="userSpaceOnUse" id="color-35"><stop offset="0" stop-color="#a7a7a7"/><stop offset="1" stop-color="#7a7a7a"/></radialGradient><radialGradient cx="50.387" cy="204.61909" r="10.33691" gradientUnits="userSpaceOnUse" id="color-36"><stop offset="0" stop-color="#a7a7a7"/><stop offset="1" stop-color="#7a7a7a"/></radialGradient><linearGradient x1="179.35661" y1="145.04579" x2="180.15251" y2="185.35874" gradientUnits="userSpaceOnUse" id="color-37"><stop offset="0" stop-color="#c5c5c5"/><stop offset="1" stop-color="#5d5d5d"/></linearGradient><linearGradient x1="89.73496" y1="33.83511" x2="90.20165" y2="57.47289" gradientUnits="userSpaceOnUse" id="color-38"><stop offset="0" stop-color="#c5c5c5"/><stop offset="1" stop-color="#5d5d5d"/></linearGradient><linearGradient x1="181.9121" y1="45.98597" x2="182.26063" y2="63.63927" gradientUnits="userSpaceOnUse" id="color-39"><stop offset="0" stop-color="#c5c5c5"/><stop offset="1" stop-color="#5d5d5d"/></linearGradient><linearGradient x1="139.17686" y1="49.77203" x2="141.65431" y2="175.25598" gradientUnits="userSpaceOnUse" id="color-40"><stop offset="0" stop-color="#a3a3a3"/><stop offset="1" stop-color="#1a1a1a"/></linearGradient><linearGradient x1="139.77507" y1="23.32965" x2="142.88694" y2="180.94769" gradientUnits="userSpaceOnUse" id="color-41"><stop offset="0" stop-color="#c5c5c5"/><stop offset="1" stop-color="#5d5d5d"/></linearGradient><linearGradient x1="135.35261" y1="32.83802" x2="138.06063" y2="170.00099" gradientUnits="userSpaceOnUse" id="color-42"><stop offset="0" stop-color="#b9b9b9"/><stop offset="1" stop-color="#5c5c5c"/></linearGradient><linearGradient x1="141.82847" y1="170.92776" x2="138.90344" y2="22.77312" gradientUnits="userSpaceOnUse" id="color-43"><stop offset="0" stop-color="#5d5d5d"/><stop offset="1" stop-color="#a1a1a1"/></linearGradient><linearGradient x1="141.82847" y1="170.92776" x2="138.90344" y2="22.77312" gradientUnits="userSpaceOnUse" id="color-44"><stop offset="0" stop-color="#c5c5c5"/><stop offset="1" stop-color="#5d5d5d"/></linearGradient><linearGradient x1="139.77507" y1="23.32965" x2="142.88694" y2="180.94769" gradientUnits="userSpaceOnUse" id="color-45"><stop offset="0" stop-color="#c5c5c5"/><stop offset="1" stop-color="#5d5d5d"/></linearGradient><linearGradient x1="117.97025" y1="101.45855" x2="120.37912" y2="101.41099" gradientUnits="userSpaceOnUse" id="color-46"><stop offset="0" stop-color="#cdcdcd"/><stop offset="1" stop-color="#444444"/></linearGradient><linearGradient x1="162.26669" y1="100.584" x2="164.67556" y2="100.53644" gradientUnits="userSpaceOnUse" id="color-47"><stop offset="0" stop-color="#cdcdcd"/><stop offset="1" stop-color="#444444"/></linearGradient><linearGradient x1="141.23402" y1="89.62935" x2="141.3175" y2="93.85746" gradientUnits="userSpaceOnUse" id="color-48"><stop offset="0" stop-color="#cdcdcd"/><stop offset="1" stop-color="#444444"/></linearGradient><radialGradient cx="163.27614" cy="91.63139" r="10.42164" gradientUnits="userSpaceOnUse" id="color-49"><stop offset="0" stop-color="#ffffff"/><stop offset="1" stop-color="#939393"/></radialGradient><radialGradient cx="165.6807" cy="86.68757" r="10.42164" gradientUnits="userSpaceOnUse" id="color-50"><stop offset="0" stop-color="#b9b097"/><stop offset="1" stop-color="#827c69"/></radialGradient><linearGradient x1="141.74285" y1="136.41322" x2="141.78818" y2="138.70928" gradientUnits="userSpaceOnUse" id="color-51"><stop offset="0" stop-color="#a0a0a0"/><stop offset="1" stop-color="#696969"/></linearGradient><linearGradient x1="148.68831" y1="113.45742" x2="149.19581" y2="139.16279" gradientUnits="userSpaceOnUse" id="color-52"><stop offset="0" stop-color="#cdcdcd"/><stop offset="1" stop-color="#444444"/></linearGradient><linearGradient x1="134.25214" y1="113.65512" x2="134.75964" y2="139.36047" gradientUnits="userSpaceOnUse" id="color-53"><stop offset="0" stop-color="#cdcdcd"/><stop offset="1" stop-color="#444444"/></linearGradient><linearGradient x1="141.91629" y1="135.60103" x2="142.34255" y2="157.19138" gradientUnits="userSpaceOnUse" id="color-54"><stop offset="0" stop-color="#6e6e6e"/><stop offset="1" stop-color="#969696"/></linearGradient><linearGradient x1="143.05913" y1="100.13129" x2="143.38807" y2="116.79255" gradientUnits="userSpaceOnUse" id="color-55"><stop offset="0" stop-color="#cdcdcd"/><stop offset="1" stop-color="#444444"/></linearGradient><linearGradient x1="119.5666" y1="87.76235" x2="120.32785" y2="126.3199" gradientUnits="userSpaceOnUse" id="color-56"><stop offset="0" stop-color="#c5c5c5"/><stop offset="1" stop-color="#5d5d5d"/></linearGradient><linearGradient x1="118.95069" y1="88.31666" x2="119.68526" y2="125.52277" gradientUnits="userSpaceOnUse" id="color-57"><stop offset="0" stop-color="#c5c5c5"/><stop offset="1" stop-color="#5d5d5d"/></linearGradient><radialGradient cx="117.40219" cy="127.88094" r="10.42164" gradientUnits="userSpaceOnUse" id="color-58"><stop offset="0" stop-color="#ffffff"/><stop offset="1" stop-color="#939393"/></radialGradient><radialGradient cx="121.5181" cy="87.55947" r="10.42164" gradientUnits="userSpaceOnUse" id="color-59"><stop offset="0" stop-color="#b9b097"/><stop offset="1" stop-color="#827c69"/></radialGradient><linearGradient x1="135.69191" y1="27.73573" x2="137.6776" y2="128.31228" gradientUnits="userSpaceOnUse" id="color-60"><stop offset="0" stop-color="#afafaf"/><stop offset="1" stop-color="#515151"/></linearGradient><linearGradient x1="138.03051" y1="66.95146" x2="139.27553" y2="130.01236" gradientUnits="userSpaceOnUse" id="color-61"><stop offset="0" stop-color="#afafaf"/><stop offset="1" stop-color="#4b4b4b"/></linearGradient><linearGradient x1="139.77507" y1="23.32965" x2="142.88694" y2="180.94769" gradientUnits="userSpaceOnUse" id="color-62"><stop offset="0" stop-color="#c5c5c5"/><stop offset="1" stop-color="#5d5d5d"/></linearGradient></defs><g transform="translate(131.90408,-22.78012)"><g data-paper-data="{&quot;isPaintingLayer&quot;:true}" fill-rule="nonzero" stroke-linecap="butt" stroke-linejoin="miter" stroke-miterlimit="10" stroke-dasharray="" stroke-dashoffset="0" style="mix-blend-mode: normal"><g stroke="none"><path d="M144.65956,169.14066l1.2386,0.09447c5.61838,0.42852 8.09835,1.06693 9.25041,7.11633c-0.27689,3.95903 -0.39399,8.36082 0.26823,12.22721c0.42792,2.49843 2.1813,5.14715 2.52968,7.66776c0.00362,0.02621 0.00719,0.05256 0.01067,0.07902c0.00296,-0.00002 0.0059,-0.00003 0.00887,-0.00007c3.26203,-0.0229 7.70331,-0.92866 10.87348,0.31835c3.99545,1.57165 6.10136,7.11538 9.91403,8.85387c1.37893,0.62877 3.02623,0.38272 4.46428,0.86102c7.44586,0.50855 18.59243,-0.63182 25.23703,2.67537c1.15246,0.5736 2.45155,1.08427 3.23978,2.10207c0.76696,0.99034 1.30482,6.36176 2.99172,7.12658c2.98042,1.35128 8.39037,-0.7633 11.60519,-0.53847c0,0 2.32236,0.17713 2.14523,2.49949c-0.13987,1.83386 -1.61738,2.10915 -2.23281,2.14385c-0.61177,1.072 -1.9871,1.10439 -1.9871,1.10439c-5.93544,0.13895 -12.20805,0.28972 -18.031,1.57577c-8.40809,1.85701 -14.23079,10.00735 -22.36796,12.05298c-2.76647,0.69546 -7.86854,0.14263 -10.69951,-0.07329c-2.04019,-0.15561 -4.86793,-0.211 -6.60132,-1.4028c-1.41554,-0.97326 -2.28425,-2.56634 -3.42636,-3.84949c-3.87958,-3.29436 -9.3595,-7.10993 -11.31871,-12.03457c-1.02421,-2.57444 -0.95497,-5.31075 -0.50267,-8.10218c-1.47656,-2.61683 -2.73983,-5.34097 -3.82526,-7.65347c-0.53225,-1.13399 -0.84526,-2.24322 -1.07592,-3.29128c-0.65041,-0.03708 -1.30149,-0.07768 -1.95356,-0.1218c-0.135,0.09967 -0.27155,0.19797 -0.40955,0.29489c-0.04341,0.1135 -0.08841,0.22635 -0.13501,0.33848c-0.16213,0.38989 -1.0785,0.58225 -0.85125,0.93816c0.33666,0.52723 1.36501,0.08953 1.79658,0.54237c3.41108,3.57911 3.5194,7.69011 2.399,12.28993c-1.17013,4.80402 -3.94241,6.0583 -5.90772,10.08574c-2.44603,5.01259 -2.47312,10.25582 -2.88868,15.70412c-0.15745,2.06433 -0.3149,4.12866 -0.47235,6.19299l-0.14171,1.85791c0,0 -0.17713,2.32236 -2.49949,2.14523c-2.32236,-0.17713 -2.14523,-2.49949 -2.14523,-2.49949c0.15745,-2.06433 0.45661,-5.98654 0.61406,-8.05087c0.37679,-4.94004 0.54855,-9.67943 2.07736,-14.27937c-2.37166,1.68601 -5.25781,2.9426 -7.44756,4.43986c-3.45594,2.36303 -4.27819,5.51281 -9.00466,6.05361c-7.05006,0.80669 -17.26597,-1.58063 -23.92065,-3.76435c-6.18097,-3.24992 -6.89863,-12.4165 -13.17683,-15.33833c-1.36537,-0.63543 -3.04088,0.08265 -4.51151,-0.24173c-3.46134,-0.76348 -4.88632,-3.29583 -8.10427,-4.42444c-6.16418,-2.16193 -13.93195,-1.59912 -20.3897,-2.09167c0,0 -0.43853,-0.03345 -0.91994,-0.26184c-0.02092,0.00662 -0.04187,0.01324 -0.06277,0.01982c0,0 -2.22206,0.69804 -2.92009,-1.52402c-0.69804,-2.22206 1.52402,-2.92009 1.52402,-2.92009c5.69416,-1.78492 11.78466,-4.89074 17.83889,-5.0241c12.63568,-0.27837 25.50523,2.63433 37.95972,3.5068c5.43652,0.41465 11.04179,1.28674 16.49137,1.26919c1.79385,-0.00578 3.33823,-1.31657 5.02899,-1.91596c2.85346,-1.01157 5.93228,-1.93185 8.9446,-3.04536c-0.39244,-0.66515 -0.79228,-1.31551 -1.18985,-1.94855c-1.85509,-1.73807 -4.89179,-2.30801 -6.14107,-4.52196c-1.56072,-2.76585 -0.11693,-4.84638 1.55278,-6.67119c-2.06609,-1.67561 -3.71815,-3.60535 -4.49475,-5.62904c-1.35279,-3.52522 -2.70839,-11.64026 0.11405,-14.93606c1.35797,-1.58573 4.52727,-1.88928 6.44276,-2.22559l1.18783,0.02087c0,0 2.32236,0.17713 2.14523,2.49949c-0.17713,2.32236 -2.49949,2.14523 -2.49949,2.14523l-0.05075,-0.0736c-1.25672,0.20645 -2.96426,-0.26827 -3.74943,0.73444c-1.45659,1.86019 0.15166,8.27582 0.70184,10.02485c0.3064,0.97406 1.01011,1.95148 1.95763,2.87875c0.3363,-2.43499 1.00203,-4.62111 1.94028,-6.17301c1.67041,-0.95616 2.95214,-1.622 4.17993,-2.12562c0.43251,-0.87731 0.87445,-1.74662 1.33616,-2.5945c-0.29562,-0.24767 -0.60469,-0.51692 -0.92862,-0.81262l-0.69364,-3.27008c0,0 -0.39141,-2.29599 1.90458,-2.68741c2.29599,-0.39141 2.68741,1.90458 2.68741,1.90458l0.02443,0.26023c1.54892,-1.91414 3.38447,-3.48702 5.70576,-4.46043l1.28583,-0.52482c0,0 2.1564,-0.88017 3.03657,1.27625c0.88017,2.1564 -1.27625,3.03657 -1.27625,3.03657l-1.28583,0.52482c-1.21793,0.47944 -2.10069,1.01921 -2.77373,1.62782c0.21718,-0.01896 0.35974,-0.00808 0.35974,-0.00808zM157.0314,208.83386c-0.13899,0.74515 -0.35884,1.55722 -0.58118,2.40173c1.07483,1.69651 2.26211,3.25212 3.58099,4.45585c6.17312,5.63412 16.4659,4.46385 24.29493,5.06099c0,0 2.32236,0.17713 2.14523,2.49949c-0.17713,2.32236 -2.49949,2.14523 -2.49949,2.14523c-9.29355,-0.70884 -19.8172,0.30122 -27.15937,-6.33835c-0.13681,-0.12372 -0.2724,-0.25061 -0.40682,-0.38053c2.00232,3.91778 6.81808,7.09353 9.97408,9.79816c11.11435,13.55021 27.07516,-5.32535 38.67592,-7.94779c1.66831,-0.37714 3.37237,-0.66484 5.09525,-0.88686c-1.11026,-2.44365 -1.2128,-5.39145 -3.63984,-6.37446c-6.81095,-2.75854 -16.83025,-1.73217 -24.21241,-2.34206c-1.72975,-0.57533 -3.70024,-0.35792 -5.35004,-1.13332c-3.76638,-1.7702 -6.17832,-7.46459 -9.91403,-8.85387c-2.3772,-0.88406 -6.61874,0.0199 -9.00391,0.04512c-0.16514,2.76148 -0.6001,5.71047 -0.99931,7.85063zM150.81492,189.30105c-0.68228,-4.01733 -0.66405,-8.64509 -0.31956,-12.73368c-0.43014,-3.33312 -1.93107,-2.45712 -4.95146,-2.68749l-0.01479,-0.00113c0.81185,0.98202 1.5593,2.25566 2.36543,4.19532c1.60764,3.3765 2.33365,9.54176 1.28911,14.6436c0.50392,1.096 0.78745,2.28327 1.01732,3.48801c1.00376,0.03754 2.00723,0.06675 3.01185,0.08736c-0.54392,-2.30207 -2.0093,-4.70384 -2.39789,-6.99199zM151.21622,200.90526c0.12722,0.37644 0.2732,0.74385 0.44423,1.09945c0.3668,0.76268 0.75311,1.5841 1.1613,2.438c0.24555,-1.17043 0.4524,-2.33459 0.56912,-3.48477c-0.72522,-0.01321 -1.44997,-0.03077 -2.17465,-0.0527zM135.0529,184.6923c-0.31524,0.63642 -0.67976,1.24691 -1.07853,1.83669c2.42569,1.26652 4.97064,2.12245 6.6965,2.24031c0.1651,0.01346 0.34196,0.02544 0.5283,0.03713c0.2469,-3.67772 0.15759,-7.39433 -0.67475,-10.63164c-0.35054,0.0645 -0.68299,0.12923 -1.00365,0.19752c-1.45333,2.13447 -3.26068,3.88298 -4.46784,6.31998zM76.97695,212.16852c2.1179,1.35144 4.9487,0.04798 7.12877,1.05977c6.50843,3.02068 7.32663,12.80348 13.13809,15.32225c6.13721,2.08034 15.07617,3.79004 21.62406,3.44686c3.16632,-0.16595 4.42493,-3.54624 6.80323,-5.1987c2.60369,-1.80909 7.40201,-3.46703 9.33987,-6.20818c3.58909,-5.07685 2.63902,-10.52818 0.38834,-15.50809c-3.30471,1.20507 -6.67925,2.17503 -9.59133,3.21701c-2.1514,0.7698 -4.21301,2.10044 -6.49627,2.1882c-5.53716,0.21286 -11.42247,-0.85986 -16.95078,-1.28151c-12.33192,-1.00445 -24.98912,-3.55915 -37.50031,-3.49449c-2.00581,0.01036 -4.05581,0.4339 -6.10227,1.04726c6.38869,0.55447 12.30182,1.63413 18.21862,5.40965zM142.66365,213.98053c0.40906,-1.86879 1.06727,-3.87285 0.54485,-5.71317c-0.33011,-1.16293 -1.51824,-1.80742 -2.61655,-2.51283c1.22759,3.50483 1.79146,7.14116 1.1277,10.7403c0.40371,-0.73601 0.73368,-1.55334 0.944,-2.51431zM140.31658,193.41404c-1.61517,-0.13344 -3.52273,-0.62757 -5.48003,-1.39816c0.11278,0.38712 0.22256,0.76066 0.32514,1.1172c0.28714,0.99794 0.12036,2.32683 0.93409,2.97194c0.54311,0.43056 1.27552,-0.63984 1.96788,-0.6713c0.79335,-0.03604 1.58547,0.0197 2.37718,0.10045c0.10119,-0.68197 0.19912,-1.37831 0.29061,-2.08492c-0.13449,-0.0135 -0.27275,-0.02525 -0.41488,-0.03521z" fill="url(#color-1)" stroke-width="0.5"/><path d="M44.35408,212.25667c0.17713,-2.32236 2.49949,-2.14523 2.49949,-2.14523c1.65146,0.12596 3.92223,0.29916 5.5737,0.42512c17.90141,1.55504 31.167,14.21502 44.30801,24.99903c6.47587,5.31434 10.45415,11.79922 19.15553,14.13933c12.44035,3.06115 27.17348,9.14143 40.37231,7.43148c8.11269,-1.05102 15.74706,-2.94221 23.38232,-6.05623c11.08465,-5.48429 11.68678,-21.90455 23.24841,-27.48821c3.63499,-1.75552 7.79815,-0.56486 11.56007,-0.65593c3.25947,-0.07889 6.31684,-0.76554 9.61365,-0.52393c0,0 2.32236,0.17713 2.14523,2.49949c-0.04932,0.64658 -0.26492,1.0994 -0.55037,1.41626c0.41058,-0.00378 0.81725,0.00817 1.21823,0.03619c0,0 2.32236,0.17713 2.14523,2.49949c-0.17713,2.32236 -2.49949,2.14523 -2.49949,2.14523c-1.80422,-0.15203 -2.4434,-0.39127 -4.18487,0.15862c-1.12502,0.35523 -2.26259,0.73019 -3.28288,1.3225c-10.22694,5.93684 2.18602,17.44696 3.39071,24.61175c1.00155,5.95675 -2.71588,11.0409 -5.63049,15.81494c-1.32786,4.86747 -2.40941,9.94261 -2.27738,15.03349c0.13467,5.19321 2.27994,9.00939 1.37506,14.60523c-1.47551,9.12467 -8.06886,15.51432 -8.73935,24.92896l0.35887,0.22853c0,0 0.88015,2.15642 -1.27625,3.03657c-2.15642,0.88015 -3.03657,-1.27625 -3.03657,-1.27625l-0.69078,-2.34311c0.27289,-3.39093 1.04323,-7.75752 2.14441,-10.96244c1.73781,-5.05787 5.76419,-8.83881 6.66134,-14.47122c0.83245,-5.22625 -1.24905,-8.66088 -1.45375,-13.64112c-0.23568,-5.7343 1.09198,-11.52749 2.65604,-16.98112c2.29946,-3.89689 6.15115,-8.40012 5.30698,-13.25013c-0.98429,-5.65502 -6.18175,-10.40717 -7.47375,-16.05573c-1.71457,-7.49597 4.01322,-12.84528 10.46065,-14.71332c-2.08877,0.13417 -4.12805,0.48874 -6.27529,0.53809c-2.98074,0.06849 -6.78658,-1.11674 -9.68505,0.21527c-1.49917,0.68895 -2.21948,2.44441 -3.39815,3.5989c-7.69098,7.53341 -9.90009,18.85458 -19.90589,23.91497c-8.07481,3.29812 -16.29349,5.46105 -24.91253,6.45569c-13.88205,1.60196 -28.85359,-4.34502 -41.95246,-7.56821c-9.43272,-2.73125 -13.8878,-9.27777 -20.97293,-15.08321c-2.02935,-1.66282 -4.64693,-2.53817 -6.59609,-4.29433c-10.18493,-9.17645 -20.48334,-18.71749 -35.06294,-19.62083c-1.65146,-0.12596 -3.30293,-0.25192 -4.95439,-0.37788l-0.61929,-0.04723c0,0 -2.32236,-0.17713 -2.14523,-2.49949z" fill="url(#color-2)" stroke-width="0.5"/><path d="M148.00234,241.44762c-0.55531,-2.37801 -1.74715,-4.55306 -2.92684,-6.6583c-1.53581,-2.7408 -3.29848,-5.00742 -5.06455,-7.29721c-0.74983,0.19197 -1.51036,0.39483 -2.26386,0.61739c-0.00948,0.18056 -0.01657,0.31363 -0.02184,0.38483c-0.4444,6.0002 -1.11664,11.67756 0.70411,17.54514c0.97191,3.1321 3.30783,5.6837 4.14422,8.85999c0.67517,2.564 1.08889,5.25413 1.11668,7.93293c3.77359,-6.29442 6.34508,-12.67882 4.31212,-21.38471zM131.10593,213.83635c0.31566,-4.13859 4.24028,-3.83925 4.24028,-3.83925c1.91304,0.31008 4.16971,-0.25452 5.73911,0.93026c0.45522,0.34367 0.87161,0.72759 1.25808,1.14267c0.70834,-0.29298 1.44244,-0.5939 2.20322,-0.93179c0,0 3.65144,-1.58308 5.12423,2.25242c0.21134,0.55035 0.31715,1.05435 0.34341,1.51393c0.50812,-0.36441 1.01568,-0.72967 1.52292,-1.09542l-0.25273,-0.29544c0,0 2.03746,-3.56779 5.40656,-1.44922c3.3691,2.11855 1.33163,5.68634 1.33163,5.68634l-2.0751,2.8957c-1.75964,1.26837 -3.53199,2.51771 -5.31978,3.74161c7.04992,9.88392 12.15525,23.38071 6.70755,35.40888c-3.59929,7.947 -9.85743,14.59298 -13.56614,22.50878c3.2729,4.14573 6.46538,8.38414 7.7602,13.47011c1.00733,3.95668 -0.65213,10.74684 -0.98338,14.86196c-1.88903,7.06711 -4.73824,15.01764 -8.42538,22.11488c0.26555,1.01518 0.529,2.02138 0.7878,3.01507c1.01741,3.90639 2.46816,8.07467 1.62544,12.04266c-1.62966,7.67354 -8.33849,11.56361 -10.13496,18.58507c-1.47997,5.78441 0.68886,13.1336 -1.55959,18.72592c-0.6764,1.68235 -2.18693,2.84079 -3.28039,4.26118l0.84806,-0.76785c0,0 -0.0755,0.98991 -0.61177,1.96645c0.33651,0.71422 0.47618,1.6453 0.1908,2.84845c-0.95656,4.03306 -4.77587,3.05743 -4.77587,3.05743c-1.92211,-0.55903 -4.12345,-0.49247 -5.76634,-1.67707c-8.19989,-5.91249 -8.15155,-20.43525 -6.16555,-29.65614c1.38071,-6.41054 4.51031,-10.99127 6.95936,-16.84592c0.70261,-1.67963 0.59045,-3.80216 1.72875,-5.19401c1.34544,-1.64512 3.4922,-2.34711 5.31514,-3.42073c1.01337,-9.72148 1.06562,-19.49427 2.09342,-29.15672c-0.40904,-5.87022 -0.01627,-11.68667 0.44298,-17.70788c0.33471,-4.22235 1.02725,-8.63174 2.28036,-12.80905c-0.73036,-1.03485 -1.39603,-2.07936 -1.96002,-3.14231c-4.75684,-8.96556 -6.23889,-19.53749 -7.05057,-29.6669c-0.5365,-6.69553 -0.6909,-14.86732 3.8957,-20.4025c1.58281,-1.91017 3.64849,-3.2626 5.91404,-4.30482c0.24925,-1.56091 0.65304,-3.06751 1.36894,-4.30232c-1.02048,-0.22436 -3.40944,-1.10021 -3.16047,-4.36445zM137.13678,297.46753c-1.14603,4.24921 -1.88306,8.5483 -2.39411,12.87717c0.16277,1.91792 0.43191,3.84351 0.8438,5.78673c0.28509,1.34507 0.59092,2.70751 0.91138,4.07894c1.52465,-3.76393 2.80213,-7.56835 3.78801,-11.17527c0.22483,-3.161 1.83738,-8.70287 1.03684,-11.62499c-0.5897,-2.15251 -1.63084,-4.18009 -2.90503,-6.13429c-0.43268,2.10646 -0.81291,4.21977 -1.28084,6.19173zM131.9362,345.6985c-0.40493,2.80471 -0.94293,5.62717 -1.47908,8.45868c2.69859,-3.63571 5.03515,-7.4078 4.20917,-11.71538c-0.08518,-0.44426 -0.17605,-0.88812 -0.27198,-1.33161c-0.4606,0.63452 -0.92984,1.25136 -1.40764,1.84854c-0.25641,0.3205 -0.52519,0.63048 -0.80446,0.93039c-0.07715,0.60358 -0.15899,1.20671 -0.246,1.8094zM129.90615,256.7923c0.92115,5.32235 1.55627,9.34613 3.67798,13.94272c1.03639,-1.79047 2.02861,-3.61921 2.141,-5.64638c0.36892,-6.6549 -2.92317,-10.3974 -4.74773,-16.30396c-1.61441,-5.22628 -1.74525,-10.29264 -1.47431,-15.50818c-3.69238,6.20221 -0.63489,17.51854 0.40305,23.51584zM118.48017,366.56798c-1.26568,5.96521 -2.08587,15.1698 2.04617,19.47802l0.62064,-2.30005c0.30311,-0.31362 0.57165,-0.64743 0.80947,-0.99919c-2.20572,-8.41982 -1.37804,-16.69116 -0.02125,-25.01594c-1.41171,2.77079 -2.75661,5.54532 -3.45507,8.83714z" fill="url(#color-3)" stroke-width="0.5"/><path d="M232.88721,217.49564c4.54796,1.00757 3.54039,5.55553 3.54039,5.55553c-0.74409,2.73347 -0.51885,5.94436 -2.23228,8.20037c-2.39039,3.14733 -9.85094,5.51717 -13.50463,7.13856c-8.51633,3.77933 -20.46812,5.28428 -26.32936,13.14727c-5.22125,7.00441 -0.44987,16.74483 -0.23354,24.16199c0.31601,10.83435 -3.50946,20.1046 -8.17534,29.60243c-5.92288,11.97287 -16.50762,18.97312 -24.12011,29.71499c-3.49353,4.92967 -3.98523,9.06436 -6.23548,14.39702c-3.43225,8.13378 -8.25244,17.65008 -14.30294,25.48567c-1.41411,3.70152 -3.33778,7.05353 -5.4952,10.89931c-0.49326,0.87926 -2.94038,5.68957 -4.89345,9.35266c0.48661,1.20259 0.80235,2.44644 0.86561,3.75027c-7.23892,-0.8773 -13.24309,-4.66112 -19.90705,-5.58345c-0.40444,-1.07394 -0.74287,-2.30311 -1.01962,-3.77462c-0.33375,-1.7745 0.7579,-3.61738 0.45623,-5.39763c-0.58145,-3.43123 -3.21307,-6.18468 -5.08616,-9.11777c-4.56647,-7.1506 -8.87584,-14.35089 -13.32793,-21.60798c-2.33705,-3.80946 -4.23596,-5.81304 -4.67781,-10.64192c-0.67607,-7.38873 3.11121,-11.15434 4.10289,-17.84922c0.82785,-5.58889 0.83763,-11.5505 1.28869,-17.19408c0.17297,-2.16405 1.29601,-8.84031 -0.21342,-11.44336c-1.75881,-3.03313 -4.9529,-5.03286 -6.85382,-7.97901c-3.55876,-7.16858 -8.48866,-17.81387 -7.20212,-26.00013c0.90485,-5.75764 6.2964,-8.06735 6.59751,-13.22215c0.4354,-7.45331 -5.51171,-18.83191 -10.01461,-24.61473c-0.68026,-0.87362 -5.11656,-6.73619 -7.46481,-7.59199c-4.61462,-1.68176 -12.80287,-0.74201 -17.58337,-0.3008c0,0 -4.63978,0.41415 -5.05393,-4.22564c-0.41415,-4.63978 4.22564,-5.05393 4.22564,-5.05393c0.67217,-0.05821 1.39411,-0.12181 2.15422,-0.1856c0.80509,-0.36155 1.48304,-0.44419 1.48304,-0.44419c7.37517,-0.86626 13.68256,0.24594 20.88165,1.5247c13.94616,2.47722 26.83899,4.98583 40.23129,9.75905c5.44011,1.93893 6.74094,0.501 12.08536,4.24977c2.23745,1.56943 4.08956,3.44724 5.61143,5.53758c5.98835,-8.2283 12.72496,-15.51568 23.44261,-17.87807c4.92721,-1.08606 12.84018,0.82285 17.92509,1.21068c13.60719,1.03785 27.93621,3.28276 41.6698,6.35727c1.70465,-2.00629 3.54228,-3.9422 5.91914,-5.53064l4.60061,-1.95896c0,0 4.31281,-1.76032 6.07313,2.55248c0.94568,2.31689 0.13864,3.89717 -0.81085,4.8636c0.47295,-0.03259 0.99899,0.00513 1.58351,0.13463zM91.93788,236.21809c1.92671,4.32941 3.66125,9.11686 3.2566,13.83835c-0.55983,6.53175 -5.81927,8.03087 -6.67545,13.79607c-0.86781,5.84353 3.53429,14.76459 6.11802,19.86474c1.86811,2.98426 5.28418,4.87732 6.87571,8.01783c4.36541,8.61401 1.47454,25.37146 -0.02692,34.8145c-0.85799,5.39612 -4.50198,9.53825 -4.02149,15.16782c0.53147,6.22686 7.14157,12.49949 10.08346,17.73282c1.36753,2.43271 3.13163,4.96281 4.92376,7.56463c1.13697,-5.67477 3.18685,-11.48738 5.36477,-16.76318c-0.28192,-0.45153 -0.53633,-0.89258 -0.75217,-1.32095c-3.09284,-10.70655 -5.46775,-25.02922 1.80806,-34.93724c0.09466,-0.74132 0.20197,-1.48381 0.31906,-2.22425c-0.43002,-0.38639 -0.85271,-0.73754 -1.26084,-1.04476c-1.97594,-1.48741 -4.67404,-2.1165 -6.21728,-4.04917c-2.3191,-2.9043 -2.95453,-9.77401 -3.00775,-13.28526c-0.05201,-3.43259 0.78014,-9.11486 2.13018,-12.11487c3.97518,-8.83364 13.76718,-12.52777 17.41808,-21.66319c0.42572,-1.06529 0.65852,-2.3263 0.78087,-3.68145c-0.13141,-0.32624 -0.24783,-0.6575 -0.34071,-0.99657c-1.45902,-5.32584 -1.59015,-10.51079 -0.68641,-15.59043c-1.19641,-3.75337 -3.30851,-7.20594 -6.64119,-9.6068c-2.18657,-1.5752 -7.61224,-2.25025 -9.78429,-3.02439c-9.27982,-3.30745 -18.28128,-5.45754 -27.60725,-7.29265c3.29361,5.3474 5.59519,11.52241 7.94319,16.79846zM146.98182,345.86726c2.46136,-5.88281 3.44591,-10.8695 7.32091,-16.33699c3.24707,-4.58155 8.14645,-10.69976 11.86927,-14.68004c1.12567,-1.20354 2.88199,-1.63686 4.14213,-2.69877c3.33151,-2.80744 5.42103,-7.15002 7.2764,-10.95757c4.03334,-8.21022 7.37363,-15.9144 7.2232,-25.28426c-0.04979,-3.1013 -1.7405,-5.99039 -2.0492,-9.07671c-0.63539,-6.35232 0.38757,-15.4325 4.06721,-20.78205c1.26246,-1.83539 2.74356,-3.39123 4.38387,-4.73716c-3.96625,1.90519 -7.73781,4.39325 -10.72899,7.41237c-1.49456,1.50852 0.25398,4.24148 0.26656,6.36497c0.0033,0.55581 -2.5599,10.21294 -2.94574,11.06213c-3.67149,8.08071 -10.26656,16.04136 -15.39819,23.27499c-8.15966,9.33163 -16.29599,18.49977 -18.39969,30.94621c-1.77874,10.52394 -0.35736,21.20517 -0.02023,31.86162c1.10984,-2.13886 2.12055,-4.28466 2.9925,-6.36874zM175.51314,223.05305c-4.01892,1.10149 -7.82117,3.17351 -11.10861,5.7343c-2.57862,2.00861 -6.18224,3.00024 -7.93755,5.75753c-8.87851,13.94667 0.78556,31.4143 -2.94306,45.94179c-1.33585,5.20481 -4.5652,8.301 -8.27934,10.86041c0.34282,1.43193 0.58643,2.87206 0.62258,4.30662c2.80456,-4.10098 5.68645,-7.96591 9.22852,-11.99695c4.64607,-6.56337 10.85651,-13.85776 14.15499,-21.18855c3.30238,-7.33947 -1.26413,-12.54015 3.87071,-19.44743c4.76906,-6.41521 14.48707,-10.86749 21.90905,-13.19559c2.92444,-0.91732 6.20016,-0.6418 8.99767,-1.89395c1.20628,-0.53993 2.28409,-1.17145 3.26826,-1.8708c-9.58802,-2.17548 -19.13116,-4.12143 -28.90731,-5.20228c-0.95997,1.63843 -2.87592,2.19487 -2.87592,2.19487zM144.53606,278.03422c1.54695,-6.77242 -1.0972,-14.37577 -1.24948,-21.17596c-0.18968,-8.47006 0.7519,-20.34708 5.53341,-27.63499c2.7051,-4.12307 7.61798,-7.68094 12.76543,-10.41375c-1.47501,-0.08608 -2.83845,-0.04568 -3.9591,0.21716c-8.84422,2.0744 -13.80378,8.80132 -18.70275,15.63177c-0.67054,1.56478 -1.13009,3.04115 -1.42152,4.45896c0.48968,2.06333 0.81833,4.16525 1.01596,6.25361c-0.13562,1.85489 -0.12966,3.97755 -0.14876,6.16237c0.55378,2.18867 1.20039,4.46809 1.75379,6.96771c1.70139,7.68511 1.04128,15.55698 2.53338,23.32546c0.8697,-1.04015 1.53249,-2.27217 1.87972,-3.7923zM121.35544,301.17075c2.30692,-4.58498 5.78886,-8.68794 9.83107,-11.8509c1.12214,-0.87805 2.41727,-1.61258 3.75328,-2.32062c-0.68452,-2.02452 -1.39408,-4.00364 -1.76223,-5.79572c-0.65485,-3.18776 -0.82693,-6.47124 -0.98447,-9.74287c-1.14324,1.57631 -2.37057,3.09365 -3.62246,4.56101c-1.09694,1.28573 -2.9425,1.69946 -4.23354,2.79017c-4.42044,3.73457 -6.37318,8.83293 -6.2954,14.51812c0.03486,2.54756 -0.77867,5.75961 1.00718,7.57675c0.57106,0.58107 1.31813,0.91776 2.09119,1.22293c0.07263,-0.32371 0.14454,-0.64342 0.21537,-0.95885zM124.65682,378.31155c4.02164,-2.43421 6.33062,-6.08371 8.91372,-9.86811c0.16724,-0.66354 0.31018,-1.33849 0.42544,-2.02651c1.50257,-8.96845 0.54494,-18.58986 -0.01354,-28.16368c-0.78547,0.8087 -1.73988,1.52118 -2.2764,2.49657c-0.98392,1.78874 -1.37084,3.84595 -2.05623,5.76893c-0.47744,1.01948 -0.97268,2.09172 -1.47373,3.20619c3.53744,5.58661 7.33861,10.57524 4.57037,18.30407c-1.29187,3.60684 -5.38281,5.46086 -7.89023,8.35759c-0.57324,0.66223 -0.91638,1.51814 -1.12729,2.44344zM130.14685,304.25416c-0.07589,0.34877 -0.15467,0.7068 -0.23539,1.07294c3.02586,-2.11181 5.60518,-4.51192 6.50171,-8.2809c-2.55376,1.88176 -4.80714,4.10075 -6.26631,7.20794zM132.89189,313.66172c0.67957,1.05346 1.2814,2.09963 1.77338,3.10327c0.33033,-1.75774 0.75695,-3.49376 1.30049,-5.203c-1.00985,0.69047 -2.04335,1.37562 -3.07385,2.09975zM123.8867,363.11716c-0.24037,0.92388 -0.45457,1.85903 -0.66927,2.79479c0.73545,-0.83608 1.15407,-1.99258 0.99431,-4.00562c-0.11078,0.4009 -0.2193,0.80439 -0.32505,1.21084zM226.44767,219.76052c-0.12724,0.07501 -0.2522,0.15142 -0.37497,0.22914c0.49224,0.12844 0.98317,0.25788 1.47278,0.38828c0.14561,-0.36812 0.37585,-0.8457 0.72091,-1.31236zM218.69425,228.2821c-0.31687,0.4204 -0.64433,0.83862 -0.98823,1.2517c0.96621,-0.3994 1.85515,-0.71397 2.66965,-0.99341c-0.55991,-0.08813 -1.12036,-0.17339 -1.68142,-0.25828z" fill="url(#color-4)" stroke-width="0.5"/><path d="M114.32491,390.24986l13.84253,-181.48916l19.3531,1.4761l-13.84253,181.48916z" fill="url(#color-5)" stroke-width="0"/><g stroke-width="0"><path d="M55.63953,230.69329l1.01986,-13.37132c0,0 10.37776,18.33385 30.9353,19.90182c41.21197,3.14332 43.84359,-3.67291 43.84359,-3.67291l-1.01986,13.37132c0,0 -2.63162,6.81622 -43.84359,3.67291c-20.55757,-1.56797 -30.9353,-19.90182 -30.9353,-19.90182z" fill="url(#color-6)"/><path d="M54.17626,249.8782l1.01986,-13.37132c0,0 10.37776,18.33385 30.9353,19.90182c41.21197,3.14332 43.84359,-3.67291 43.84359,-3.67291l-1.01986,13.37132c0,0 -2.63162,6.81622 -43.84359,3.67291c-20.55757,-1.56797 -30.9353,-19.90182 -30.9353,-19.90182z" fill="url(#color-7)"/><path d="M54.15073,268.58806l1.01986,-13.37132c0,0 9.94603,18.30093 29.74555,19.81107c39.69229,3.02741 42.2465,-3.79472 42.2465,-3.79472l-1.01986,13.37132c0,0 -2.55421,6.82213 -42.2465,3.79472c-19.7995,-1.51015 -29.74555,-19.81107 -29.74555,-19.81107z" fill="url(#color-8)"/><path d="M56.97401,286.69843l1.01986,-13.37132c0,0 9.22649,18.24604 27.76261,19.65983c37.15954,2.83423 39.5847,-3.99774 39.5847,-3.99774l-1.01986,13.37132c0,0 -2.42516,6.83197 -39.5847,3.99774c-18.5361,-1.41378 -27.76261,-19.65983 -27.76261,-19.65983z" fill="url(#color-9)"/><path d="M65.68933,307.18528l0.83658,-10.96842c0,0 7.73864,14.98009 23.24258,16.16261c31.08089,2.3706 33.10078,-3.2313 33.10078,-3.2313l-0.83658,10.96842c0,0 -2.01987,5.6019 -33.10078,3.2313c-15.50392,-1.18251 -23.24258,-16.16261 -23.24258,-16.16261z" fill="url(#color-10)"/></g><g data-paper-data="{&quot;index&quot;:null}" stroke-width="0"><path d="M182.46472,257.90877c-41.21197,-3.14332 -42.77939,-10.27981 -42.77939,-10.27981l1.01986,-13.37132c0,0 1.56742,7.13649 42.77939,10.27981c20.55757,1.56797 33.5958,-14.97991 33.5958,-14.97991l-1.01986,13.37132c0,0 -13.03826,16.54787 -33.5958,14.97991z" fill="url(#color-11)"/><path d="M181.00144,277.09375c-41.21197,-3.14332 -42.77939,-10.27981 -42.77939,-10.27981l1.01986,-13.37132c0,0 1.56742,7.13649 42.77939,10.27981c20.55757,1.56797 33.5958,-14.97991 33.5958,-14.97991l-1.01986,13.37132c0,0 -13.03826,16.54787 -33.5958,14.97991z" fill="url(#color-12)"/><path d="M179.37883,295.68177c-39.69229,-3.02741 -41.1823,-10.15799 -41.1823,-10.15799l1.01986,-13.37132c0,0 1.49001,7.13059 41.1823,10.15799c19.79952,1.51015 32.40605,-15.07065 32.40605,-15.07065l-1.01986,13.37132c0,0 -12.60655,16.5808 -32.40605,15.07065z" fill="url(#color-13)"/><path d="M175.82454,313.30571c-37.15954,-2.83423 -38.5205,-9.95497 -38.5205,-9.95497l1.01986,-13.37132c0,0 1.36096,7.12074 38.5205,9.95497c18.53612,1.41379 30.4231,-15.22189 30.4231,-15.22189l-1.01986,13.37132c0,0 -11.887,16.63568 -30.4231,15.22189z" fill="url(#color-14)"/><path d="M169.1011,329.46254c-31.08091,-2.3706 -32.22783,-8.21403 -32.22783,-8.21403l0.83658,-10.96842c0,0 1.14694,5.84343 32.22783,8.21403c15.50392,1.18251 25.42497,-12.45064 25.42497,-12.45064l-0.83658,10.96842c0,0 -9.92103,13.63315 -25.42497,12.45064z" fill="url(#color-15)"/></g><path d="M44.36657,213.1141l0.81481,-10.6829l185.32523,14.13511l-0.81481,10.6829z" fill="url(#color-16)" stroke-width="0"/><path d="M103.86539,405.02542l5.41902,-71.04867l37.91028,2.89149l-5.41902,71.04867z" fill="url(#color-17)" stroke-width="0"/></g><g stroke="none"><path d="M328.55547,451.00159c-0.08679,-1.1291 0.6891,-2.40088 0.14529,-3.39417c-0.28251,-0.51597 -1.02514,-0.38696 -1.68933,-0.38607c0.27415,3.36464 0.49399,6.73028 0.70828,10.09558c0.66008,-2.10201 0.99751,-4.21108 0.83576,-6.31535zM316.11109,443.076c-0.30604,-0.19357 -0.6026,-0.39012 -0.89026,-0.5897c0.13933,10.36025 1.06986,20.60734 4.15823,30.44356c0.03652,-0.06248 0.07319,-0.125 0.10996,-0.18756c-0.85565,-9.61004 -1.21644,-19.25686 -2.07956,-28.87625c-0.41132,-0.23934 -0.84198,-0.50137 -1.29837,-0.79003zM305.09148,429.44163c-5.07849,-8.97211 -14.98497,-16.63574 -13.13272,-28.00087c1.16147,-7.12666 6.54392,-10.09556 11.60951,-13.38253c0.52877,-2.18415 1.04867,-4.36943 1.47278,-6.57313c-1.65569,-2.29346 -3.47403,-4.44306 -5.62604,-6.25538c-7.0663,-5.95099 -15.74042,-9.64735 -11.64797,-21.12343c1.74114,-4.88248 6.48547,-8.33463 8.66663,-13.09834l0.8527,-1.28422c0,0 2.84927,-3.68521 6.53448,-0.83594c0.97268,0.75204 1.49013,1.5623 1.72491,2.34769c9.90332,11.94564 22.59841,28.62344 13.7526,44.61811c-0.05208,0.09419 -0.10374,0.18686 -0.15502,0.27811c0.32657,0.50436 0.65499,1.00611 0.98642,1.50408c2.17639,5.1828 3.74932,6.94751 2.89188,12.81047c-0.80932,5.53379 -5.74664,9.16199 -6.91196,14.3524c-0.29752,1.32519 -0.50421,2.72166 -0.64603,4.16069c1.54516,1.87659 3.21037,3.70148 4.66212,5.73307c2.12962,2.98016 4.1439,7.70287 5.64454,10.88539c0.0881,0.63755 0.17222,1.27518 0.25271,1.91292c3.49462,1.06212 7.86793,1.346 10.20968,4.63345c1.51865,2.13191 1.16664,5.10803 1.56392,7.69521c1.38745,9.03534 -4.09686,17.01147 -8.76849,24.89106c0.17159,1.69572 0.36317,3.39074 0.58097,5.08492l0.04729,0.36965c0,0 0.5911,4.62058 -4.02948,5.21168c-1.24597,0.15939 -2.19892,-0.06017 -2.92632,-0.46591c-0.14364,0.15832 -0.3847,0.40342 -0.70835,0.66009c-0.42151,0.53893 -1.03561,1.03671 -1.91406,1.43506c-4.24241,1.92379 -6.16623,-2.3186 -6.16623,-2.3186c-7.55455,-16.69692 -8.91349,-35.58633 -8.06987,-53.85996c-0.24748,-0.4543 -0.49694,-0.9162 -0.75061,-1.38571zM296.26108,360.08192c0.40776,3.8583 6.76632,5.98231 9.20824,8.06667c0.07598,0.06485 0.15163,0.13005 0.22692,0.19551c-0.97515,-5.51668 -4.0038,-10.22271 -6.8265,-15.04156c-1.617,2.30428 -2.83541,4.63371 -2.60865,6.7794zM310.07996,405.60979c2.24323,-3.86724 4.33852,-6.91107 2.33264,-12.37425c-0.3364,0.20768 -0.69136,0.42427 -1.06847,0.65612c-0.83385,3.84504 -1.42173,7.72542 -1.26417,11.71813zM300.86269,402.84106c-0.12929,0.63139 -0.15984,1.32311 -0.07066,2.08832c0.0046,-0.69993 0.02901,-1.39588 0.07066,-2.08832z" fill="url(#color-18)" stroke-width="0.5"/><path d="M320.17957,489.69029c-4.33926,1.69412 -6.03338,-2.64516 -6.03338,-2.64516l-1.92723,-6.78187c1.23427,-7.01459 3.72016,-13.75347 4.82112,-20.79268c1.17179,-7.49208 -1.88378,-16.27903 -2.83208,-23.73532c-1.60628,-7.76412 -2.21351,-16.61441 -5.80418,-23.83662c-2.78017,-5.59191 -7.43203,-11.49127 -11.37716,-16.33182c-1.49598,-1.83554 -3.5643,-3.28574 -4.5951,-5.41754c-2.0474,-4.23425 -2.49775,-15.17433 -1.72413,-19.5748c1.52489,-8.67381 8.41936,-12.4895 7.1395,-21.59058c0,0 -0.5911,-4.62058 4.02948,-5.21168c4.62058,-0.5911 5.21168,4.02948 5.21168,4.02948c0.58724,4.95842 1.38357,7.0794 -0.55844,12.15526c-1.59689,4.17382 -5.86639,7.75772 -6.68298,12.42598c-0.43939,2.5118 0.57168,8.00215 0.82488,10.42792c0.11981,1.14781 -0.30196,2.42959 0.22831,3.45459c0.71811,1.38803 2.2676,2.15844 3.28802,3.34207c4.44513,5.15613 9.56846,12.07315 12.57324,18.17383c3.9944,8.10998 4.83479,17.71227 6.63588,26.41796c1.10349,8.5794 4.0661,17.97718 2.85979,26.63114c-0.99316,7.1248 -3.65852,13.9449 -4.85763,21.02063l1.42557,1.80591c0,0 1.69412,4.33926 -2.64516,6.03338z" fill="url(#color-19)" stroke-width="0.5"/><path d="M320.70687,471.86335c5.49637,-0.702 10.53836,3.31953 11.26161,8.98248c0.72327,5.66293 -3.14598,10.82271 -8.64235,11.52472c-5.49637,0.70202 -10.5384,-3.31951 -11.26165,-8.98246c-0.72326,-5.66289 3.14602,-10.82272 8.64243,-11.52469z" fill="url(#color-20)" stroke-width="0"/></g><g><path d="M290.02093,268.21454c10.04528,17.55023 20.90735,57.36488 20.90735,57.36488l-34.08305,19.63452c0,0 -28.99373,-29.40106 -39.039,-46.95129c-1.96344,-3.43038 -4.30126,-7.54555 -6.79708,-11.95573c0.1782,-0.10673 0.35826,-0.21235 0.54035,-0.31676c1.52613,-1.43659 5.81095,-4.07225 6.85712,-5.50504c2.99833,-4.1064 -0.25501,-8.39376 -2.25097,-11.9096c-1.32416,-2.33248 -2.63971,-5.80659 -5.19387,-7.10334c-3.01056,-1.52847 -3.63293,0.48262 -6.29476,-1.54512c-2.52951,-1.92695 -4.22495,-6.31642 -6.9841,-8.38324c-1.37415,-1.02936 -3.15025,-1.55615 -4.30719,-2.82479c0,0 -1.60679,-1.68612 -3.29292,-0.07933c-0.05927,0.05648 -0.11446,0.11307 -0.16582,0.16966c-1.67936,-2.99817 -2.68695,-4.79974 -2.68695,-4.79974l42.65496,-24.47226c0.30474,1.5073 1.9942,1.72329 1.9942,1.72329c8.86154,1.10863 9.9224,11.87532 16.70232,16.76267c1.94189,1.39982 3.95422,2.46576 6.02247,3.25579c6.61284,11.55357 13.29883,23.23492 15.4169,26.93544z" fill="#494949" stroke="#000000" stroke-width="0"/><g stroke="none"><path d="M245.64324,317.63714c-0.63799,0.01719 -1.40005,-0.2191 -1.95681,-1.19983c-1.14987,-2.02547 0.8756,-3.17534 0.8756,-3.17534l3.37611,0.11205c2.38865,2.53701 5.41038,4.23105 8.29832,6.16811c1.95797,2.06148 5.04249,-2.21901 8.72334,-1.3631c4.5046,1.04744 6.06422,5.23653 9.57691,7.28628c1.59723,0.93204 3.03378,2.11901 4.60723,3.09066c3.2066,1.98019 8.07958,1.39893 11.13628,4.14938c2.48427,2.2354 4.32911,7.38353 5.98698,10.30382c0,0 1.14987,2.02547 -0.8756,3.17534c-2.02547,1.14987 -3.17534,-0.8756 -3.17534,-0.8756c-1.4016,-2.46888 -2.96812,-7.26584 -5.05185,-9.14078c-2.60636,-2.34522 -7.48589,-1.93044 -10.41251,-3.61501c-1.60702,-0.925 -3.05222,-2.10815 -4.61995,-3.09831c-3.38848,-2.14012 -4.55196,-5.37574 -8.41042,-6.78519c-2.15091,-0.7857 -4.50195,2.80425 -6.56237,2.68154c-1.33671,-0.07964 -2.34499,-1.29362 -3.51749,-1.94045c-2.77542,-1.86156 -5.56094,-3.54156 -7.9984,-5.77358z" fill="url(#color-21)" stroke-width="0.5"/><path d="M279.73764,267.14406c-1.68612,1.60679 -3.2929,-0.07934 -3.2929,-0.07934l-1.76667,-1.85387c-3.21559,-3.37903 -6.84242,-6.22579 -9.89627,-9.76581c-2.34718,-4.10196 -5.25935,-6.6643 -8.02717,-10.37792c-0.80524,-1.08041 -0.44262,-3.18682 -1.70172,-3.66678c-3.20561,-1.22189 -7.69471,0.36433 -11.32725,-1.26776c-4.13081,-1.85597 -5.7584,-6.50982 -8.66078,-9.50424c-2.18713,-2.25646 -5.76757,-3.03694 -8.11483,-5.45738c0,0 -1.6068,-1.6861 0.07931,-3.29291c1.68612,-1.60679 3.29292,0.07933 3.29292,0.07933c2.32687,2.49835 5.66052,3.03581 8.03269,5.37333c2.34016,2.30596 4.04884,7.2199 7.31231,8.56759c3.37227,1.3926 8.56848,-0.2658 11.62252,1.41604c1.33728,0.73641 2.24738,3.69236 3.20442,4.97528c2.75718,3.69599 5.77467,6.34765 8.0922,10.46767c2.90908,3.34252 6.40653,6.03585 9.46387,9.23995l1.76668,1.85389c0,0 1.60678,1.68611 -0.07933,3.29292z" fill="url(#color-22)" stroke-width="0.5"/><path d="M228.15737,231.90884c-3.9273,-1.08295 -3.47287,-4.65344 -3.29706,-5.5322c-0.18724,-0.35576 -0.3795,-0.70792 -0.58179,-1.05283c0,0 -2.29975,-4.05096 1.75121,-6.35072c4.05096,-2.29975 6.35072,1.75121 6.35072,1.75121c0.01178,0.02173 0.02362,0.04339 0.03554,0.06504c0.8849,-0.2399 1.77307,-0.36784 2.66928,-0.21961c12.24975,2.02632 18.92663,20.45118 18.30552,31.15431c-0.00638,0.1102 -0.01315,0.21886 -0.02031,0.32605c0.93384,1.70887 1.80157,3.43203 2.55497,5.17227c2.26071,5.22188 2.00464,11.08503 4.21546,16.2462c0.51357,1.19896 1.04639,2.40803 1.59894,3.62193c9.76178,1.28825 19.89712,2.30969 24.83888,11.42554c1.22938,2.26776 3.22185,4.39399 3.36304,6.96967c0.13355,2.43601 -1.74183,4.55783 -2.60602,6.83928c-0.92526,2.44259 -2.37741,5.39726 -3.63467,8.44153c6.04314,8.24468 11.88277,16.2568 17.07279,25.39889l2.45307,4.32102c0,0 2.29975,4.05096 -1.75121,6.35072c-4.05096,2.29975 -6.35072,-1.75121 -6.35072,-1.75121l-0.32259,-0.56823c-7.07608,-7.09628 -21.35347,-9.47983 -22.72398,-21.6888c-0.3882,-3.45829 0.32238,-6.90626 1.41421,-10.26605c-0.48193,-0.66062 -0.96492,-1.32443 -1.4487,-1.99218c-6.55055,-6.86845 -12.06797,-15.71711 -16.46651,-24.62673c-2.36264,-0.62721 -4.69393,-1.32286 -6.80472,-1.91297c-5.07928,-2.82454 -9.38045,-3.96159 -11.21488,-10.45958c-0.71098,-2.51851 -0.09074,-5.3006 0.58395,-7.82907c0.64426,-2.41441 4.31609,-8.02405 5.29774,-10.94166c0.09849,-0.29273 0.18386,-0.60813 0.25635,-0.94358c-2.13933,-3.66789 -4.49068,-7.27266 -6.52461,-10.85539c-1.47633,-2.60053 -2.2807,-5.68334 -4.34048,-7.8512c-1.26224,-1.32846 -3.14847,-1.96242 -4.48929,-3.19367c-0.06073,-0.01493 -0.12207,-0.03092 -0.18405,-0.04803zM246.55746,271.16249c0.4358,1.6362 2.50155,2.73649 4.15384,3.5068c-0.91169,-3.15307 -1.24156,-6.45996 -2.00236,-9.64777c-1.08135,1.94681 -2.50262,4.82272 -2.15149,6.14098zM278.74374,298.72305c0.49758,-1.02696 1.94369,-1.71501 1.88941,-2.85486c-0.05543,-1.16424 -1.54099,-1.76273 -2.15636,-2.75263c-0.61662,-0.99193 -0.62774,-2.40193 -1.51795,-3.15802c-2.54029,-2.1575 -6.38973,-2.21169 -9.86737,-2.25197c2.97294,5.29631 6.36111,10.38556 10.2083,14.81031c0.44609,-1.2794 0.85403,-2.57522 1.44394,-3.79282z" fill="url(#color-23)" stroke-width="0.5"/><path d="M293.46558,334.6104c4.81921,-2.7346 11.00991,-0.92637 13.82737,4.03891c2.81746,4.96526 1.19482,11.20717 -3.62439,13.94177c-4.8192,2.73462 -11.00994,0.92641 -13.82739,-4.03887c-2.81744,-4.96522 -1.19479,-11.20719 3.62448,-13.94178z" fill="url(#color-24)" stroke-width="0"/></g><path d="M285.80161,321.10614c9.74184,-5.52789 22.25604,-1.87261 27.95138,8.16446c5.69538,10.03703 2.4153,22.65478 -7.32654,28.18267c-9.74181,5.52794 -22.25608,1.87268 -27.95143,-8.16439c-5.69535,-10.03695 -2.4152,-22.65484 7.3267,-28.18267z" fill="url(#color-25)" stroke="none" stroke-width="0"/><path d="M290.02093,268.21454c10.04528,17.55023 20.90735,57.36488 20.90735,57.36488l-34.08305,19.63452c0,0 -28.99373,-29.40106 -39.039,-46.95129c-3.19035,-5.57389 -7.36906,-12.95578 -11.60801,-20.47338c1.02329,1.31672 1.90385,2.86308 2.82924,3.9287c1.69739,1.95462 5.84113,4.04089 7.03531,6.19386c1.16576,2.10174 0.81265,4.73809 1.27837,7.0959c1.4379,5.06297 4.06548,8.4641 7.53852,12.08282c2.25345,2.34799 4.31984,7.23747 7.43978,8.73054c4.62055,2.21117 9.86799,-0.96055 10.45126,-6.04164c0.07176,-0.62511 -2.25944,-4.5923 -2.75671,-5.46822c-2.85528,-5.02951 -6.99362,-10.10515 -7.27521,-16.00718c0.1248,-5.18068 -0.54194,-10.42893 -4.36042,-14.42702c-1.4921,-1.56231 -3.89176,-1.9752 -5.52239,-3.39232c-5.27168,-4.58138 -5.36691,-14.97263 -11.66949,-18.91566c-2.92097,-1.82741 -7.22917,-2.70096 -10.70361,-4.12472c-0.53977,-0.53821 -1.08597,-0.71258 -1.57188,-0.70821c-0.49256,-0.19184 -2.10075,-0.65083 -2.98047,1.09627c-0.21652,0.43003 -0.29941,0.81592 -0.29462,1.15755l-0.02093,0.02026c-1.35979,0.75778 -2.80796,1.5814 -4.1713,2.52387c-2.57741,-4.59898 -4.21356,-7.52446 -4.21356,-7.52446l42.06847,-24.13577c1.21627,2.45025 2.62152,5.0483 4.62254,6.3123c1.42441,0.89977 3.52135,0.28991 4.89254,1.26887c2.36293,1.68701 3.37782,7.42283 5.36551,9.7494c3.6848,4.31303 10.04407,7.82612 14.62571,11.41407c5.05902,8.83879 9.5503,16.68569 11.21612,19.5961z" fill="url(#color-26)" stroke="#000000" stroke-width="0"/></g><g stroke="none"><path d="M-47.90074,299.42144c0.99998,3.51561 -2.39244,6.06202 -2.39244,6.06202l-1.40722,1.00592c-2.20601,3.78065 -4.92127,8.00181 -5.97987,12.03834c-1.8808,7.17159 -1.03264,12.81152 -4.41014,20.21497c-3.48524,7.63968 -8.51576,15.32584 -12.62956,22.69594c-1.60607,2.87734 -4.03175,7.55145 -6.21113,9.85493c-1.9707,2.08289 -4.77611,2.84007 -6.62881,5.39239c-2.10887,2.90521 -3.47087,6.35717 -5.23412,9.5205c-3.75489,6.72187 -5.39894,12.68442 -8.51794,19.48787c-4.08958,8.92059 -9.45532,15.75208 -15.99839,22.27756l-2.12122,1.94612c0,0 -3.2422,2.96278 -4.65522,-0.20985c-1.09821,-2.4658 0.61556,-4.80484 1.43371,-5.72469c2.6502,-9.66381 6.42671,-20.48927 10.39195,-29.99708c2.52614,-6.05712 7.04964,-11.5337 9.74818,-17.52315c5.81343,-12.90302 12.46607,-24.96488 19.43189,-37.46178c4.3528,-7.80907 8.49778,-15.91665 13.13268,-23.55067c0.53462,-0.88057 6.17072,-9.40849 6.78195,-10.01053c2.48762,-2.45028 5.8141,-4.11475 8.70309,-5.57265c0.37932,-0.29118 0.80421,-0.53182 1.2618,-0.65394l0.90841,-0.76141c0,0 3.39243,-2.54638 4.39241,0.96923zM-67.37189,323.58142c-3.42435,6.15003 -6.85435,12.29693 -10.28152,18.44538c-6.7822,12.16748 -13.21591,23.91295 -18.91834,36.44483c-2.65524,5.83529 -7.21006,11.31657 -9.60526,17.19755c-2.22306,5.45838 -4.48149,11.39342 -6.45143,17.25194c2.00277,-2.77566 3.79035,-5.78506 5.37529,-9.23523c3.24861,-7.07156 5.12226,-13.4776 9.0315,-20.5048c0.02633,-0.04723 5.87779,-10.59521 6.25699,-11.09492c2.14708,-2.82952 5.19396,-4.14415 7.62777,-6.57087c0.78176,-0.77948 3.91401,-6.60745 4.18928,-7.10204c3.97576,-7.14307 8.67274,-14.43256 12.16701,-21.78995c2.93029,-6.16992 1.91399,-11.84129 3.60219,-17.98304c0.12907,-0.46959 0.26931,-0.93488 0.41962,-1.39629c-1.28482,2.27862 -2.46659,4.63744 -3.41315,6.33745z" fill="url(#color-27)" stroke-width="0.5"/><path d="M-58.02516,302.12215c2.03441,1.13399 0.90042,3.16839 0.90042,3.16839l-0.9072,1.62754c-2.37073,4.25317 -6.55019,9.40196 -7.07186,14.23654c-0.04967,0.4753 -0.1024,0.94813 -0.15831,1.4186c2.53408,-4.09162 4.82487,-8.3118 6.32018,-12.97291c0,0 0.71298,-2.21731 2.93028,-1.50432c2.21731,0.71298 1.50432,2.93028 1.50432,2.93028c-2.25603,7.00073 -6.1229,13.0849 -10.10356,19.15249c-1.10317,1.68155 -2.14023,3.37626 -3.14233,5.07425c-0.99259,3.47851 -2.25311,6.89917 -3.84039,10.33725c-1.93986,4.20188 -4.87509,7.94956 -6.78388,12.16344c-3.70084,8.17006 -3.38573,17.81682 -6.16672,26.35981c-4.3207,8.16739 -8.58522,15.31172 -14.1856,22.57121c-3.13772,4.06728 -7.44265,5.67346 -11.37917,8.66558c-2.80804,2.13438 -5.30035,8.3183 -6.32104,11.55101c0,0 -0.16234,0.50486 -0.57296,0.95529c-0.29736,0.63748 -0.61999,1.27315 -0.97069,1.90702l-0.2268,0.40689c0,0 -1.13399,2.03441 -3.16839,0.90042c-2.03441,-1.13399 -0.90042,-3.16839 -0.90042,-3.16839l0.2268,-0.40689c4.2589,-7.57434 3.96848,-15.71488 5.01746,-24.01774c1.82791,-9.67342 4.00187,-18.60895 10.37306,-26.49379c6.57813,-8.14097 15.661,-12.85854 20.93894,-22.29545c5.02242,-5.92161 8.55805,-12.4234 12.32181,-18.97662c1.74803,-4.61741 3.07942,-9.48014 3.66039,-15.09568c0.81135,-5.67296 4.84563,-10.97088 7.63007,-15.96625l0.9072,-1.62754c0,0 1.13399,-2.03441 3.16839,-0.90042zM-113.12415,411.79959c3.47135,-2.81002 7.86216,-4.15913 10.63313,-7.86297c5.31147,-7.09957 9.42421,-13.76449 13.6571,-21.63891c2.11815,-6.6853 2.43642,-13.94613 4.21756,-20.72331c-3.31806,4.50689 -7.3908,8.27443 -11.37655,12.32992c-2.11283,2.14979 -5.15238,3.61194 -7.00605,5.97025c-5.7952,7.37292 -7.73077,15.36528 -9.4254,24.33343c-0.34292,2.60548 -0.57303,5.1735 -0.84012,7.70755c0.04669,-0.03935 0.09345,-0.07799 0.14035,-0.11596z" fill="url(#color-28)" stroke-width="0.5"/><path d="M-116.76577,418.07352c4.8405,2.69678 6.51197,8.92587 3.73347,13.91299c-2.77851,4.98718 -8.95491,6.84378 -13.79536,4.14695c-4.84047,-2.69681 -6.5119,-8.92583 -3.73338,-13.91299c2.77851,-4.98718 8.95487,-6.8438 13.79534,-4.14699z" fill="url(#color-29)" stroke-width="0"/></g><g stroke="none"><path d="M50.17067,205.8945c-0.53258,2.2674 -2.79999,1.73481 -2.79999,1.73481l-0.85005,-0.33606c-5.52425,0.54675 -12.72608,8.15155 -15.22088,12.85658c-5.028,6.91637 -9.0324,14.9813 -13.98788,22.0578c-2.25019,3.21329 -6.63226,6.26963 -9.49419,8.94698c-5.89636,5.51606 -11.7927,11.03211 -17.68905,16.54817c-12.29172,11.49895 -26.23896,21.33793 -36.50278,34.74296c0,0 -1.41614,1.84914 -3.26528,0.433c-1.84914,-1.41614 -0.433,-3.26528 -0.433,-3.26528c10.43566,-13.62343 24.53025,-23.62941 37.01872,-35.31242c5.89636,-5.51606 11.7927,-11.03211 17.68905,-16.54817c2.58223,-2.41569 6.85916,-5.31198 8.87522,-8.23766c4.85952,-7.05208 8.94852,-14.9108 13.84037,-21.83636c3.35365,-6.06631 11.62623,-14.19467 18.66489,-15.0164l2.42004,0.43205c0,0 2.2674,0.53258 1.73481,2.79999z" fill="url(#color-30)" stroke-width="0.5"/><path d="M3.39559,275.0658c-1.59116,-1.70086 0.1097,-3.29203 0.1097,-3.29203l0.34018,-0.31824c5.92462,-5.54251 15.36518,-11.38369 16.84591,-19.74825c2.5053,-6.7332 2.74749,-16.37391 7.01332,-22.28896c5.47551,-7.59239 14.86271,-13.96169 21.72391,-20.38036c0,0 1.70086,-1.59116 3.29203,0.1097c1.59116,1.70086 -0.1097,3.29203 -0.1097,3.29203c-6.76016,6.32415 -15.47664,12.4392 -21.13804,19.71713c-1.00181,1.28788 -0.6711,2.28721 -1.10676,3.80602c-1.60618,5.59926 -3.17327,11.53596 -5.17929,16.96503c-1.66757,9.42012 -11.50451,15.70405 -18.159,21.92935l-0.34018,0.31824c0,0 -1.70086,1.59116 -3.29203,-0.1097z" fill="url(#color-31)" stroke-width="0.5"/><path d="M48.11734,209.71154c2.79812,2.3725 -0.03867,5.52531 -0.03867,5.52531l-2.89143,3.21303c-8.89327,9.40976 -18.40774,17.74649 -27.84915,26.55818c-7.32244,5.22954 -14.68637,10.40353 -22.14909,15.46058c-4.42589,9.16938 -7.21718,17.50273 -15.31265,25.11095c-8.68396,6.94527 -17.95078,16.15522 -28.31987,19.26428l-3.27039,-0.24272c-0.64776,0.08546 -1.37594,-0.0051 -2.17189,-0.38947c-0.62115,-0.29996 -1.05351,-0.66776 -1.34571,-1.06798c-0.13145,-0.17998 -0.24615,-0.38256 -0.33542,-0.61042c-0.08927,-0.22785 -0.14495,-0.46003 -0.17451,-0.69104c-0.06586,-0.51362 -0.01631,-1.1228 0.20451,-1.84453c0.21332,-0.69718 0.51012,-1.24994 0.85374,-1.68763c3.53438,-6.04699 5.59829,-12.0223 10.34812,-17.62048c6.3878,-7.52869 15.48306,-13.24096 23.5885,-18.48456c3.41674,-2.21036 6.80784,-4.45034 10.17778,-6.71499c1.07409,-2.23844 2.24128,-4.44993 3.60736,-6.59c5.77947,-9.054 13.76548,-16.08884 21.59766,-23.41587c3.47972,-3.25529 7.45016,-7.84137 11.62896,-10.22497c5.22335,-2.97941 10.19186,-3.39579 15.70759,-4.21949c0,0 0.00657,-0.00097 0.01918,-0.0026l0.49057,-0.54532c0,0 2.83678,-3.15283 5.63488,-0.78032zM-17.14163,268.6435c-7.27055,4.70568 -15.75418,9.85072 -21.46922,16.64603c-2.72134,3.23576 -4.46711,6.64339 -6.19195,10.12473c7.06407,-3.64003 14.06877,-10.7434 19.96148,-15.44089c3.76696,-3.50385 6.3292,-7.56144 8.48315,-11.83776c-0.26101,0.16948 -0.52216,0.33878 -0.78346,0.50792zM12.82171,239.23235c6.75737,-6.3371 13.57633,-12.40234 20.15647,-18.82931c-1.15113,0.35847 -2.28218,0.82682 -3.37906,1.46241c-3.50313,2.02996 -7.07565,6.27026 -9.95903,8.96767c-4.56756,4.27297 -9.08177,8.40651 -13.14355,12.88894c2.11356,-1.49035 4.22157,-2.98736 6.32518,-4.48972z" fill="url(#color-32)" stroke-width="0.5"/><path d="M-45.50997,295.61787c3.78629,4.04563 3.47657,10.48763 -0.69164,14.3886c-4.16823,3.90102 -10.61657,3.78367 -14.4028,-0.26198c-3.78625,-4.04564 -3.47651,-10.48758 0.69172,-14.38856c4.16823,-3.90102 10.61654,-3.7837 14.40279,0.26194z" fill="url(#color-33)" stroke-width="0"/></g><path d="M45.76845,263.10067c0.25399,0.33849 1.25813,1.87517 -0.30424,3.21612c-1.7674,1.5169 -3.28433,-0.2505 -3.28433,-0.2505l-1.12701,-2.36056c0.13953,-1.82944 0.30348,-3.65703 0.4807,-5.48324c2.49713,-4.30441 8.95816,-14.96524 6.14689,-20.26807c-1.97633,-3.7279 -5.18845,-7.1291 -4.37375,-11.73631c0.49167,-2.78061 8.21742,-11.372 3.50579,-12.93048c0,0 -1.99797,-1.19701 -0.80095,-3.195c1.19701,-1.99797 3.195,-0.80095 3.195,-0.80095c3.47682,2.51626 4.87107,7.51541 2.6967,11.90947c-0.94535,1.91036 -5.33288,4.34323 -4.24292,7.38734c0.92391,2.58036 3.17035,4.95888 4.23657,7.38576c3.13745,7.14132 -2.25597,17.76243 -5.9242,23.66017c-0.0511,1.15629 -0.12191,2.31171 -0.20421,3.46624z" fill="url(#color-34)" stroke="none" stroke-width="0.5"/><path d="M238.31607,222.53236c-0.42024,5.52508 -5.37566,9.65294 -11.0681,9.21994c-5.6925,-0.43299 -9.96638,-5.26298 -9.54608,-10.78803c0.42028,-5.52506 5.37565,-9.65286 11.06813,-9.21985c5.6925,0.43299 9.96638,5.26294 9.5461,10.78799z" fill="url(#color-35)" stroke="none" stroke-width="0"/><path d="M57.17113,208.71609c-0.42024,5.52508 -5.37566,9.65294 -11.0681,9.21994c-5.6925,-0.43299 -9.96638,-5.26298 -9.54608,-10.78803c0.42028,-5.52506 5.37565,-9.65286 11.06813,-9.21985c5.6925,0.43299 9.96638,5.26294 9.5461,10.78799z" fill="url(#color-36)" stroke="none" stroke-width="0"/><g><path d="M191.52186,183.98339c-1.35067,2.11529 -3.46595,0.76464 -3.46595,0.76464l-1.03289,-0.9218c-1.76749,-0.39726 -3.87652,-0.07442 -5.30248,-1.19177c-3.17043,-2.48435 -0.266,-6.82081 -2.51829,-9.6343c-1.47909,-1.84764 -4.01376,-2.79128 -5.03636,-5.06137c-1.83784,-4.07991 2.33755,-9.91339 -0.1652,-13.73393c-0.86041,-1.31343 -4.03179,-3.43509 -5.36289,-4.38889c0,0 -2.03712,-1.46591 -0.5712,-3.50303c1.46591,-2.03712 3.50303,-0.5712 3.50303,-0.5712c5.07276,3.66425 8.34289,6.6883 7.90909,13.33177c-0.14966,2.29191 -1.74709,4.8018 -0.71427,6.85328c0.9029,1.79343 3.28699,2.42263 4.45106,4.05866c2.91031,4.0903 -0.54524,8.9122 4.53479,8.87431l3.00689,1.65768c0,0 2.11529,1.35067 0.76464,3.46595z" fill="url(#color-37)" stroke="none" stroke-width="0.5"/><path d="M64.44395,41.50068c-0.04954,-2.50924 2.4597,-2.55878 2.4597,-2.55878l1.99366,-0.03936c2.08122,-0.04109 4.21156,0.35795 6.24423,-0.09087c4.66793,-1.03068 8.64508,-4.79305 13.60049,-4.95461c12.67039,-0.41308 24.58059,7.68883 26.8178,20.24047c0,0 0.40391,2.47702 -2.07311,2.88091c-2.47702,0.40391 -2.88091,-2.07311 -2.88091,-2.07311c-1.49368,-10.41968 -11.78694,-16.03858 -21.7647,-16.02979c-2.82399,0.00248 -5.77393,2.2584 -8.28165,3.29648c-4.2369,1.75389 -7.10283,1.66094 -11.56307,1.749l-1.99366,0.03936c0,0 -2.50924,0.04954 -2.55878,-2.4597z" fill="url(#color-38)" stroke="none" stroke-width="0.5"/><path d="M204.99818,47.42425c0.65664,2.42231 -1.76567,3.07895 -1.76567,3.07895l-2.94597,0.77912c-4.05672,-0.08094 -5.60922,4.10151 -9.91421,3.51127c-1.37627,-0.18869 -2.34407,-1.55243 -3.66386,-1.98584c-1.4837,-0.48723 -9.04553,-0.55203 -10.33939,0.10643c-2.21519,1.12733 -3.31839,3.72057 -5.20166,5.34266c-2.5293,2.17852 -5.4257,3.92827 -8.37803,5.48618c0,0 -2.22217,1.16648 -3.38865,-1.05571c-1.16648,-2.22217 1.05571,-3.38865 1.05571,-3.38865c5.20273,-2.71515 8.92741,-8.67356 13.91165,-10.98786c4.87517,-2.26367 12.30847,0.13294 16.64487,1.50438c1.6916,0.535 5.7748,-3.36607 8.56206,-3.50163l2.3442,-0.65496c0,0 2.42231,-0.65664 3.07895,1.76567z" fill="url(#color-39)" stroke="none" stroke-width="0.5"/><path d="M181.53134,60.04769c-1.52883,1.99032 -3.51917,0.46151 -3.51917,0.46151l-0.7251,-0.84476c-1.09775,-0.26033 -3.67548,-1.70499 -5.90618,-2.60881c0.25428,1.45681 -1.10247,2.40053 -1.10247,2.40053c-3.94323,2.72713 -6.35305,5.19707 -10.80613,7.23888c-0.77935,0.35736 -1.73753,0.69499 -2.77744,1.04384c-2.47956,2.21493 -5.07386,4.29824 -7.81663,6.15182c-0.84559,0.57145 -1.90535,1.2574 -3.03923,1.91519c-0.96754,4.01989 0.0419,9.04298 0.11466,12.72817c0.0133,0.6736 0.01842,1.33256 0.01461,1.97875c1.30683,0.90979 1.93431,2.26382 3.482,3.10586c2.83131,1.54042 8.66612,2.17582 11.77736,2.46253c1.36789,0.12606 2.90871,-0.01582 4.48468,-0.1808c-0.75383,-3.11062 -1.96695,-6.25892 -2.41619,-8.59891c-0.83061,-4.32648 0.80836,-6.90588 2.30119,-10.85708c4.42901,-9.32187 8.60323,-13.32588 19.36706,-13.53839l0.33341,-0.00658c0,0 2.50924,-0.04954 2.55878,2.4597c0.04954,2.50924 -2.4597,2.55878 -2.4597,2.55878l-0.33341,0.00658c-8.81379,0.17401 -11.22277,2.87061 -14.8475,10.48536c-0.72953,1.93651 -2.03045,3.698 -2.36437,5.74025c-0.61328,3.75085 1.20996,7.58287 2.50562,11.42977c0.89928,0.01709 1.76275,0.11173 2.5613,0.33562c5.19924,1.45762 7.803,7.52305 13.43266,9.4834c0,0 2.36687,0.83466 1.53221,3.20152c-0.83466,2.36687 -3.20154,1.53219 -3.20154,1.53219c-3.86103,-1.37618 -7.3204,-3.11873 -10.16446,-6.20023c-1.02858,-1.11445 -1.07276,-2.84254 -2.79118,-3.1411c-0.07055,-0.01224 -0.14111,-0.02422 -0.21169,-0.03592c0.06777,1.1472 -0.02949,2.29307 -0.37043,3.43587c-2.54779,8.53986 -12.16488,10.48772 -19.41376,12.64911c-0.81538,0.24312 -1.65733,0.50145 -2.51726,0.73647c0.474,0.63645 0.91972,1.32806 1.3393,2.11319c3.70167,1.6561 7.46899,3.36114 10.72354,6.46757c8.24539,7.87015 10.83986,18.20104 13.92435,28.89929c0,0 0.69441,2.41174 -1.71735,3.10615c-2.41176,0.69441 -3.10617,-1.71735 -3.10617,-1.71735c-2.81988,-9.80765 -5.04792,-19.37223 -12.52122,-26.61442c-1.38728,-1.34437 -3.32505,-2.76726 -5.2927,-4.01055c1.82462,6.73624 3.96807,13.98675 3.53574,20.77863c-0.1193,1.87401 -0.53914,6.70292 -2.2724,8.33985c-1.98356,1.87331 -3.93637,1.79766 -5.97534,1.67511c-0.89479,5.97246 -2.88762,12.46268 -4.36805,16.90363c0,0 -0.79729,2.37972 -3.17702,1.58243c-2.37972,-0.79729 -1.58241,-3.17702 -1.58241,-3.17702c1.58507,-4.70544 2.12909,-9.37878 2.93663,-14.14965c-3.69964,2.37714 -5.42875,7.73796 -5.8019,11.69285c0,0 -0.26209,2.49601 -2.75808,2.23394c-2.49599,-0.26209 -2.23394,-2.75808 -2.23394,-2.75808c0.78776,-6.95877 4.35907,-15.17022 11.91755,-17.04306c0.03114,-0.0077 0.0651,-0.01456 0.10175,-0.02058c0.4352,-1.92923 0.77505,-4.2446 -0.14115,-5.61743c-1.6062,-2.40671 -4.32771,-4.00844 -5.67286,-6.57022c-3.12565,-5.95265 -3.01492,-14.42664 -1.61126,-21.77818c-2.64324,2.86301 -5.32331,5.68676 -7.04563,9.15972c-1.53199,3.08918 -3.35094,6.98458 -4.28058,10.30073c-0.87589,3.12448 -0.62098,7.92097 -3.0941,10.46403c-2.47302,2.54296 -7.21568,2.53221 -10.39571,2.6082l-2.12881,-1.02674c0,0 -1.80932,-1.73926 -0.07006,-3.54861c1.17564,-1.22299 2.38329,-0.82466 3.04253,-0.43807c1.84257,0.01975 4.91316,0.02259 5.93339,-1.07334c1.47882,-1.58852 1.33953,-6.44575 1.87193,-8.31262c1.0163,-3.56371 2.95166,-7.89802 4.6338,-11.22225c2.36648,-4.67661 6.29093,-8.13583 9.61794,-12.07484c-0.05646,-0.16237 -0.09326,-0.32425 -0.11614,-0.47856c-1.09242,-0.13905 -2.22676,-0.19796 -3.23505,-0.56471c-0.90441,-1.76442 -1.59367,-3.56736 -2.11864,-5.3998c-1.06055,1.13423 -2.24444,2.18069 -3.4512,3.43627c-6.71675,6.98837 -18.49484,16.38228 -28.61289,14.93506c0,0 -2.47763,-0.40013 -2.0775,-2.87776c0.40011,-2.47761 2.87776,-2.0775 2.87776,-2.0775c8.02336,1.50474 18.96481,-8.01932 24.19399,-13.45836c1.89958,-1.97579 4.38665,-3.52984 5.30918,-6.22535c0.15235,-0.44517 0.28584,-0.89199 0.40331,-1.34018c-0.15485,-1.70174 -0.23302,-3.41735 -0.2713,-5.14027c-9.70164,-2.03482 -22.84569,-6.12357 -29.52503,3.45412l-0.2683,1.29424c0,0 -0.7465,2.39615 -3.14263,1.64965c-2.39615,-0.7465 -1.64965,-3.14263 -1.64965,-3.14263l0.98637,-2.73308c8.31602,-11.28748 21.83512,-7.99217 33.5671,-5.63036c0.01493,-5.62047 0.06815,-11.25017 -1.09998,-16.66524c-1.40012,-6.49043 -11.11971,-13.51529 -16.54988,-16.74432c0,0 -2.15409,-1.28787 -0.8662,-3.44196c1.28789,-2.15409 3.44198,-0.8662 3.44198,-0.8662c6.7998,4.085 16.91752,11.86139 18.86271,19.91378c0.52108,2.15713 0.669,4.4112 0.65126,6.70671c0.33163,-0.79526 0.64676,-1.43602 0.86947,-1.63385c2.07716,-1.84507 5.22566,-1.94298 7.9404,-2.53384c0.64912,-0.14128 1.31511,-0.36125 1.98952,-0.64266c0.41567,-1.132 0.99747,-2.21583 1.80424,-3.22844c2.45871,-3.08593 6.70719,-4.49445 10.56681,-5.87814c3.7421,-3.86658 7.63221,-9.87314 12.22684,-11.69855c4.25032,-1.68863 8.23912,2.1771 12.15689,3.03451l2.66172,1.75675c0,0 1.99034,1.52883 0.46151,3.51915zM135.3797,79.1579c-1.09779,0.98841 -0.89164,2.81716 -1.3829,4.21027c-0.82851,1.98264 -1.16316,4.0663 -1.34024,6.19125c2.73398,0.15813 5.55441,-0.30192 8.2485,-0.24677c0.00817,-1.28666 -0.00813,-2.61912 -0.03566,-4.01359c-0.046,-2.33018 -0.25298,-4.78942 -0.17221,-7.20167c-2.42072,0.58157 -3.24601,-0.80455 -5.31751,1.06053zM150.65556,99.19909c-2.03793,-0.54205 -3.50531,-1.94614 -4.98957,-3.09137c-0.40873,3.70329 -1.26068,7.12451 -2.73693,10.73778l0.16593,0.09952c-0.18343,1.08219 -0.36684,2.16434 -0.55024,3.24653c0.32508,0.59995 0.66146,1.19361 1.12207,1.65521c0.56626,0.56748 1.10809,1.0871 1.62669,1.58123c6.8512,-0.04903 16.22709,-4.08076 19.81539,-8.77609c0.91494,-1.19722 1.24959,-2.70321 1.23654,-4.35709c-5.18979,-0.16129 -10.45413,0.29693 -15.68989,-1.09571zM132.816,99.82738c0.41069,2.82235 -0.02437,5.35556 0.70275,8.11847c0.71987,0.14014 1.48575,0.15889 2.24246,0.19882l0.14431,-0.19234c0.05213,-0.00207 0.10445,-0.00499 0.15693,-0.0087c-0.18446,-0.47551 -0.21751,-1.07821 0.08427,-1.8226c0.53964,-1.33117 1.53232,-1.59161 2.28268,-1.5709c1.35321,-3.51194 2.00142,-6.82023 2.2845,-10.34049c-2.64126,-0.20978 -5.52647,0.25846 -8.33505,0.23159c-0.06102,0.99939 -0.14304,1.9979 -0.27969,2.98963c0.31945,0.77963 0.59649,1.56936 0.71684,2.39648zM141.5959,121.89683c-0.54937,-0.27823 -1.07441,-0.61602 -1.57773,-0.99848c-0.88651,5.78755 -0.80618,12.07084 1.53346,16.52971c2.40975,4.59249 5.7443,5.09597 6.56426,10.55794c0.18223,1.21396 0.23553,2.55179 0.18732,3.96971c0.87429,-0.05955 1.60992,-0.22059 1.98545,-0.57751c1.32446,-1.25879 0.95734,-6.55739 0.74293,-8.26527c-0.84426,-6.72447 -2.71796,-13.29298 -4.30876,-19.83252c-0.04327,-0.11552 -0.09162,-0.23628 -0.1448,-0.36171c-1.6742,-0.30653 -3.4745,-0.25833 -4.98213,-1.0219z" fill="url(#color-40)" stroke="none" stroke-width="0.5"/><path d="M123.0699,171.35372c-9.11761,-3.35249 -5.97765,-9.29903 -10.29785,-15.42879c-1.55342,-2.20411 -5.47606,-3.38269 -7.47418,-4.4783c-6.24503,-3.42424 -6.45795,-3.34574 -10.20552,-10.14948c-4.065,-7.38005 0.20835,-14.22293 -3.94677,-20.54678c-4.47383,-5.73586 -9.20022,-18.77706 -6.11856,-26.35195c0.22676,-0.55739 6.61228,-5.37937 7.00163,-7.59229c0.57634,-3.27573 -2.02578,-6.47914 -1.86913,-9.8015c0.37098,-7.86796 6.09241,-14.87132 9.5259,-21.27644c1.6339,-3.04799 0.77731,-7.06594 2.4859,-10.0727c1.66958,-2.93807 5.71527,-4.92243 7.11754,-8.23356c0.91049,-2.14993 0.26529,-4.99892 1.78216,-6.77381c5.10966,-5.9787 17.68227,-6.65294 24.69879,-6.10795c3.95498,-0.64863 8.02166,-0.14074 12.02315,0.08419c9.48304,0.53307 16.5548,-4.90283 25.64187,1.00121c4.76356,3.09497 8.33815,8.4288 7.76296,14.44654c-0.15759,1.64861 -2.71545,2.14034 -3.34797,3.67091c-0.75698,1.83172 2.98733,2.60553 4.48301,3.90601c3.34944,2.91231 6.04337,6.93757 7.1423,11.23786c1.73352,6.78354 3.4794,17.49088 2.56461,24.43569c-0.22192,1.68466 -1.62925,3.10331 -1.71551,4.80033c-0.09558,1.88039 5.40618,6.54016 5.42411,6.57471c1.50064,2.8914 1.91682,6.22689 2.87522,9.34034c-1.72389,1.48257 -3.73853,2.68249 -5.17164,4.44769c-3.73828,4.60451 0.71255,13.77759 -0.11987,18.87221c-0.77349,4.73394 -3.96586,9.97213 -7.18951,13.32353c-2.03618,2.11687 -5.24869,3.454 -6.24406,6.2174c-2.46168,6.83416 0.70867,12.64666 -5.13134,18.77576c-2.15453,2.26119 -9.23117,5.62316 -14.15158,7.13751c-1.07061,1.47855 -2.82648,2.006 -2.82648,2.006c-4.98782,1.44136 -11.91632,7.3286 -17.28456,5.92672c-3.26243,-0.85196 -4.87263,-4.3422 -6.82251,-7.34918c-1.07985,0.24427 -2.13005,0.46694 -3.12881,0.63579l-1.9797,0.33465c0,0 -4.17393,0.70558 -5.50359,-3.01228zM137.07919,162.42588c2.92392,-0.6021 5.85946,-1.08573 8.53475,-1.04011c3.70992,0.06325 7.20552,2.2263 10.9157,2.18054c2.80584,-0.03461 5.12889,-2.60724 7.33152,-3.72291c1.24765,-0.63196 2.87539,-0.51654 3.95202,-1.40922c2.8508,-2.36378 1.39836,-11.92082 2.71213,-15.13041c2.97531,-7.26867 8.09182,-7.73937 11.54714,-13.99109c4.6244,-8.36696 -5.8115,-24.14563 6.94004,-28.17425c-4.53677,-2.26023 -8.23625,-7.24436 -8.71023,-12.43233c-0.20878,-2.28524 1.45847,-4.37818 1.77883,-6.65047c0.68031,-4.82532 -1.07942,-11.36307 -1.58916,-16.18533c-0.02746,-0.2598 -1.1631,-7.51303 -1.66361,-8.27029c-1.86764,-2.82578 -6.01022,-3.65741 -7.76491,-6.55468c-1.61088,-2.65979 -3.21712,-5.67476 -3.14264,-8.78344c0.04384,-1.82959 2.73064,-2.58616 3.45529,-4.26669c0.70291,-1.63008 -2.01936,-3.03615 -3.50238,-4.0118c-4.48741,-2.95216 -8.83861,-0.21253 -13.71299,0.29833c-6.34661,0.66516 -11.70516,-0.8005 -17.93957,0.28721c-5.69419,-0.4423 -9.01058,0.24597 -14.44358,1.71444c-0.94536,0.25553 -2.33986,-0.18792 -2.86803,0.63675c-0.80381,1.25503 0.19769,3.08529 -0.39238,4.45388c-1.57212,3.64621 -5.53148,5.7865 -7.58568,9.18456c-1.72672,2.85632 -0.81762,6.75734 -2.30942,9.74311c-2.42256,4.84867 -8.42891,11.12335 -8.42976,17.05415c-0.00057,4.09279 2.73104,6.91258 1.70053,11.31526c-0.66637,2.84695 -2.50909,5.33696 -4.31283,7.63819c-0.82943,1.0582 -2.7416,1.00913 -3.38878,2.18764c-0.46312,0.84332 0.46257,1.86881 0.64208,2.81403c1.10884,5.83864 0.60968,9.21544 4.5612,13.71801c1.21378,2.22951 3.04249,4.22168 3.64132,6.68855c1.45985,6.01405 -2.23952,9.24545 0.87104,14.77507c4.04464,7.19014 12.04143,6.89323 16.93344,13.45884c1.38251,1.85549 2.07528,4.14581 2.88957,6.31169c0.68881,1.83209 0.19586,5.37701 2.15125,5.46362c3.70372,0.16402 7.98757,-0.9787 11.19813,0.69924z" fill="url(#color-41)" stroke="none" stroke-width="0.5"/><g stroke="none" stroke-width="0.5"><path d="M88.12072,100.36618c-0.05198,-2.63291 2.24375,-3.00905 2.8212,-3.062c1.79755,-0.58495 6.65635,-2.17805 7.5348,-2.16173c6.0517,0.11236 11.20173,4.45417 16.5125,6.56337c4.16296,1.331 8.41537,1.50451 12.70432,1.1398c-0.03213,-0.11877 -0.06425,-0.23752 -0.09632,-0.3563c-1.32421,-0.79765 -2.62336,-1.60027 -3.89322,-2.39016c-1.57583,-1.46156 -3.51263,-2.61168 -4.72748,-4.38471c-3.858,-5.63064 -2.18002,-13.67686 -5.26547,-19.96989c-1.86682,-3.80753 -5.80279,-6.56757 -9.38763,-8.59305l-1.82243,-0.85685c0,0 -2.71978,-1.29343 -1.42636,-4.01321c1.29343,-2.71978 4.01321,-1.42636 4.01321,-1.42636l2.23199,1.07127c6.61117,3.83783 10.99691,8.43763 13.65658,15.7211c2.33837,6.40356 0.68005,11.29544 4.83464,16.11794c-0.92394,-7.83791 -0.35344,-16.10956 -0.47235,-23.92196c-0.07699,-5.05703 3.66721,-10.5679 2.45367,-15.42175c-2.05585,-8.22292 -8.10692,-12.26986 -0.08725,-19.71222c0,0 2.24749,-2.00473 4.25222,0.24278c2.00473,2.24749 -0.24278,4.25222 -0.24278,4.25222c-6.06693,5.08804 2.90207,12.65627 2.06289,19.61536c-0.34634,2.87212 -2.05154,5.45342 -2.49689,8.31185c-1.62621,10.43752 0.17009,21.34899 2.1311,31.82682c0.04112,0.02381 0.08223,0.0476 0.12339,0.07138c0.99616,-2.74801 2.67142,-5.22963 4.49433,-7.46889c0.04933,-0.04423 0.11943,-0.10741 0.20716,-0.18653c2.40203,-7.80389 4.21843,-15.6103 1.88636,-24.03901c-1.43535,-5.18773 -4.435,-11.06278 -2.59557,-16.85129c1.25284,-3.94258 6.03718,-6.19179 9.18598,-8.10081c3.2403,-1.96451 6.31111,-4.05444 9.52446,-5.96004c-0.15793,-0.46212 -0.20064,-1.02975 -0.04159,-1.72392c0.67262,-2.93559 3.60823,-2.26298 3.60823,-2.26298l1.773,1.12903c0.26518,-0.11514 2.773,-1.12099 3.98184,1.46035c0.90546,1.93351 -0.20167,3.13822 -0.92294,3.67575c0.22747,1.12005 0.24956,2.29604 -0.12626,3.75392c-1.45832,5.65706 -7.35028,8.49396 -7.9792,14.72926c-0.81636,8.09371 2.52343,15.90905 4.29427,23.7869c2.68976,-3.21278 4.82401,-6.96185 8.50942,-9.21822c3.48527,-2.13384 6.97394,-2.24121 10.88609,-2.32413l0.33457,-0.00661c0,0 3.01109,-0.05945 3.07053,2.95164c0.05945,3.01109 -2.95164,3.07053 -2.95164,3.07053l-0.33457,0.00661c-9.68292,0.17549 -11.81596,7.42303 -18.4947,12.74551c0.00403,0.11258 0.00738,0.22521 0.01006,0.33786c0.06217,3.8723 -1.02049,7.52399 -2.28051,11.13311c0.07779,0.01487 0.15552,0.03008 0.23325,0.04566c11.87715,2.38053 15.05684,18.41953 24.50158,24.36155c0,0 2.53836,1.62079 0.91757,4.15915c-1.62079,2.53836 -4.15915,0.91757 -4.15915,0.91757c-3.93931,-2.54582 -8.22584,-6.0884 -10.80251,-10.0901c-2.69455,-4.18479 -5.7286,-12.47269 -11.83029,-13.48332c-0.29373,-0.04866 -0.59024,-0.08845 -0.88918,-0.12009c-0.24943,0.76901 -0.48344,1.54044 -0.6927,2.31597c6.14027,4.41963 7.21733,10.89023 12.0107,16.15537c6.02762,6.62085 10.58987,9.01135 10.79616,18.80901c0,0 0.05945,3.01109 -2.95164,3.07053c-3.01109,0.05945 -3.07053,-2.95164 -3.07053,-2.95164c-0.14935,-8.16363 -4.20285,-9.25951 -9.28237,-14.93352c-3.60994,-4.03245 -5.06165,-8.90177 -8.45984,-12.82963c0.02104,0.55408 0.06663,1.11248 0.1397,1.67573c0.69691,5.37244 1.06654,11.99848 2.87774,17.05819c2.30244,6.43195 6.74541,10.56294 5.49658,18.03326c-0.97445,5.82901 -3.46668,10.4357 -6.50459,15.36761c0,0 -1.58587,2.56032 -4.14618,0.97445c-2.56032,-1.58587 -0.97445,-4.14618 -0.97445,-4.14618c2.61241,-4.19181 4.77225,-8.034 5.65404,-12.98687c1.10019,-6.17956 -3.29713,-9.83745 -5.20092,-15.2251c-1.91733,-5.42594 -2.52591,-12.53278 -3.17545,-18.30005c-0.2277,-2.02179 -0.14507,-3.96292 0.13518,-5.85123c-0.92744,0.0019 -1.91234,0.08234 -3.09454,-0.22073c-1.72015,-0.44095 -3.4326,-1.00114 -5.13052,-1.65194c0.96941,6.34036 3.25897,12.32904 3.94056,19.29648c1.05496,10.78407 -3.57129,21.1644 -2.48711,32.05911c0.39984,0.44732 1.79783,2.26909 -0.01429,4.15421c-2.08712,2.1712 -4.25832,0.08407 -4.25832,0.08407l-1.58133,-2.43552c-1.47227,-11.35346 3.55943,-22.21448 2.34547,-33.28413c-0.54928,-5.00865 -1.75493,-9.49966 -2.75479,-13.96132c-0.29921,1.57887 -0.71366,3.13413 -1.33751,4.64083c-0.17997,3.31682 -0.80365,6.59749 -2.20702,9.80448c-1.45744,3.33051 -3.24983,5.85168 -3.9233,9.67683c-1.46409,8.31567 5.05393,17.86614 5.2483,26.52422l0.01321,0.66912c0,0 0.05945,3.01109 -2.95164,3.07053c-3.01109,0.05945 -3.07053,-2.95164 -3.07053,-2.95164l-0.01321,-0.66912c-0.15487,-9.33423 -6.71519,-18.26898 -5.18958,-27.49039c0.53426,-3.22927 1.77133,-5.85392 3.0766,-8.54001c-2.34411,1.55169 -4.88566,2.72642 -7.25732,3.06377c-0.87121,0.12391 -5.5707,-0.5383 -6.67029,-0.52098c-4.8277,0.076 -9.49273,1.92702 -13.56565,4.25887c0,0 -2.623,1.4799 -4.1029,-1.1431c-1.4799,-2.623 1.1431,-4.1029 1.1431,-4.1029c4.47834,-2.49539 7.85973,-3.63622 12.90398,-4.59226c3.32666,-0.63052 6.35199,0.4818 9.53909,0.12424c3.45614,-0.38776 7.85485,-4.32383 9.95508,-6.87268c0.44664,-0.54203 0.8353,-1.09135 1.17394,-1.64751c0.07058,-3.34763 -0.38129,-6.7408 -0.77909,-10.06485c-0.00857,-0.04943 -0.01723,-0.09882 -0.026,-0.14817c-5.57915,0.30727 -11.20346,0.06833 -16.16124,-1.44667c-4.35006,-1.79218 -9.62027,-6.05494 -14.5317,-6.21153c-2.1199,-0.06759 -4.02088,1.35196 -6.03995,2.00155l-1.19729,0.15068c0,0 -3.01109,0.05945 -3.07053,-2.95164zM151.20788,92.42672c-1.71586,0.06219 -3.61229,-0.91371 -5.14884,-0.14754c-1.03868,0.51793 -1.79799,1.43232 -2.58214,2.31646c-0.49221,1.65371 -1.02253,3.35115 -1.57723,5.12168c-0.04394,0.27466 -0.08359,0.54775 -0.11915,0.81936c4.07338,-0.7589 8.12779,-1.39529 12.11838,-1.38476c0.78471,-2.37443 1.46074,-4.76879 1.76618,-7.24779c-1.1233,0.3434 -2.37144,0.44699 -4.45719,0.52259zM151.53319,106.11068c0.04727,-0.15165 0.09513,-0.30312 0.14351,-0.45445c-0.55263,0.07533 -1.10648,0.16194 -1.65984,0.25608c0.50131,0.07551 1.0092,0.13611 1.51631,0.19837zM153.90326,86.14441c0.60267,-0.21063 1.16837,-0.45689 1.70246,-0.73362c-1.1558,-9.5639 -6.22944,-18.91638 -5.07184,-28.78935c0.62106,-5.29691 5.13319,-9.44341 6.89501,-13.89009c-2.52981,1.5727 -4.99954,3.23387 -7.59003,4.80094c-1.521,0.92011 -6.08517,2.75611 -6.62214,4.92971c-1.4854,6.01276 2.67617,12.65346 3.22139,18.43086c0.53961,5.71796 0.14075,10.57096 -0.82025,15.36053c2.79424,-0.31207 5.53726,0.85145 8.28542,-0.109z" fill="url(#color-42)"/><path d="M122.0247,32.49206c1.02271,-3.53952 4.67513,-3.02586 4.67513,-3.02586l1.73234,0.24361c0.87397,0.12292 1.79458,0.29455 2.7417,0.48543c1.5871,-2.89397 2.86173,-6.22971 5.66642,-7.14642c4.61502,-1.50844 10.84629,3.77373 15.23228,4.9494c0,0 1.54472,0.43269 2.52791,1.78319c4.33002,1.24663 10.59982,4.15166 12.55291,6.19852c5.29398,5.54821 2.74648,11.12084 5.12981,17.45195c0.9637,2.55999 3.80317,3.70116 5.64827,5.61672c2.9211,3.03269 5.88241,7.83868 6.72366,12.25742c0.90533,4.75543 -2.6349,13.53024 0.77818,17.72153c1.30844,1.60679 3.10207,2.66186 4.65311,3.9928c-0.72168,2.95855 -0.9642,6.10629 -2.16503,8.87566c-0.01435,0.03308 -4.62905,4.60629 -4.47884,6.36905c0.13557,1.59087 1.40923,2.87306 1.66225,4.44746c1.043,6.49029 -0.0918,16.60955 -1.35599,23.04295c-0.80141,4.07832 -2.9987,7.95528 -5.80543,10.81031c-1.25331,1.27489 -4.47958,2.13543 -3.75632,3.82884c0.60432,1.41502 2.84473,1.78551 3.04054,3.32836c0.71478,5.63165 -2.20111,10.76913 -6.2302,13.84622c-7.68598,5.86994 -14.02561,1.0168 -22.24751,1.85618c-3.46934,0.35418 -6.98521,0.97644 -10.44534,0.50847c-6.07803,0.76249 -17.02796,0.57825 -21.68187,-4.85479c-1.38158,-1.6129 -0.92264,-4.31187 -1.79066,-6.29869c-1.33685,-3.05991 -4.92349,-4.77924 -6.47933,-7.4792c-1.59219,-2.7631 -0.99129,-6.56756 -2.52004,-9.37205c-3.21254,-5.89342 -8.43469,-12.26702 -9.03808,-19.64378c-0.25479,-3.11495 1.89208,-6.21669 1.27426,-9.27286c-0.41739,-2.0646 -6.13873,-6.3656 -6.35571,-6.88104c-2.94857,-7.00469 0.693,-19.4225 4.376,-24.96971c3.38501,-6.0881 -0.573,-12.36269 2.696,-19.43963c3.01372,-6.52429 3.20155,-6.45818 8.50631,-9.89744c1.69727,-1.10041 5.06403,-2.34751 6.33527,-4.4732c3.53541,-5.9117 0.59434,-11.38488 8.39799,-14.85935zM134.51793,40.37718c-2.73011,1.69068 -6.49368,0.77036 -9.70643,1.0567c-1.69617,0.15119 -1.14119,3.46315 -1.67434,5.20856c-0.63027,2.06339 -1.15051,4.23932 -2.28567,6.03149c-4.01676,6.34151 -10.97673,6.34823 -14.2348,13.24605c-2.50565,5.30482 0.82458,8.20781 -0.22927,13.90868c-0.43228,2.3384 -1.95032,4.27487 -2.9255,6.41228c-3.27313,4.37019 -2.71874,7.52404 -3.47383,13.04761c-0.12223,0.89422 -0.89007,1.89046 -0.45748,2.66601c0.60451,1.0838 2.26446,0.96942 3.02305,1.93371c1.64967,2.09702 3.33996,4.36997 4.02074,7.02017c1.05277,4.09844 -1.22033,6.84449 -1.07368,10.68866c0.21256,5.57049 5.65628,11.24951 7.9347,15.71711c1.40305,2.75111 0.75234,6.44765 2.35492,9.06879c1.90649,3.11829 5.42372,4.98715 6.92014,8.35572c0.56167,1.26438 -0.2433,3.01923 0.50006,4.16932c0.48845,0.75569 1.68445,0.28938 2.51512,0.49564c4.77382,1.18524 7.68041,1.71326 12.61298,1.09445c5.45666,0.79898 10.06101,-0.76904 15.60008,-0.37095c4.25417,0.30574 8.13332,2.72356 11.92753,-0.20954c1.25392,-0.96936 3.56941,-2.38724 2.90033,-3.89319c-0.68975,-1.55256 -3.05165,-2.1672 -3.15509,-3.88409c-0.17574,-2.91718 1.11244,-5.80639 2.41732,-8.36213c1.42139,-2.78394 4.99167,-3.713 6.51374,-6.43384c0.4079,-0.72915 1.13575,-7.58233 1.15034,-7.82732c0.27074,-4.54753 1.56648,-10.751 0.80294,-15.25891c-0.35956,-2.12281 -1.88319,-4.02907 -1.78337,-6.18294c0.2266,-4.88976 3.26353,-9.70326 7.12534,-11.98822c-11.22522,-3.32849 -2.71975,-18.52139 -7.03728,-26.21495c-3.22602,-5.74855 -7.68919,-6.00792 -10.53438,-12.72879c-1.25633,-2.9677 -0.33544,-11.99607 -2.89726,-14.11444c-0.96751,-0.80001 -2.37791,-0.63346 -3.48471,-1.18247c-1.95397,-0.96922 -4.06462,-3.30262 -6.50418,-3.23492c-3.22585,0.08953 -6.18636,2.24604 -9.4081,2.43795c-2.32323,0.1384 -4.89156,-0.21102 -7.45399,-0.67211z" data-paper-data="{&quot;index&quot;:null}" fill="url(#color-43)"/></g><path d="M122.0247,32.49206c1.02271,-3.53952 4.67513,-3.02586 4.67513,-3.02586l1.73234,0.24361c0.87397,0.12292 1.79458,0.29455 2.7417,0.48543c1.5871,-2.89397 2.86173,-6.22971 5.66642,-7.14642c4.61502,-1.50844 10.84629,3.77373 15.23228,4.9494c0,0 1.54472,0.43269 2.52791,1.78319c4.33002,1.24663 10.59982,4.15166 12.55291,6.19852c5.29398,5.54821 2.74648,11.12084 5.12981,17.45195c0.9637,2.55999 3.80317,3.70116 5.64827,5.61672c2.9211,3.03269 5.88241,7.83868 6.72366,12.25742c0.90533,4.75543 -2.6349,13.53024 0.77818,17.72153c1.30844,1.60679 3.10207,2.66186 4.65311,3.9928c-0.72168,2.95855 -0.9642,6.10629 -2.16503,8.87566c-0.01435,0.03308 -4.62905,4.60629 -4.47884,6.36905c0.13557,1.59087 1.40923,2.87306 1.66225,4.44746c1.043,6.49029 -0.0918,16.60955 -1.35599,23.04295c-0.80141,4.07832 -2.9987,7.95528 -5.80543,10.81031c-1.25331,1.27489 -4.47958,2.13543 -3.75632,3.82884c0.60432,1.41502 2.84473,1.78551 3.04054,3.32836c0.71478,5.63165 -2.20111,10.76913 -6.2302,13.84622c-7.68598,5.86994 -14.02561,1.0168 -22.24751,1.85618c-3.46934,0.35418 -6.98521,0.97644 -10.44534,0.50847c-6.07803,0.76249 -17.02796,0.57825 -21.68187,-4.85479c-1.38158,-1.6129 -0.92264,-4.31187 -1.79066,-6.29869c-1.33685,-3.05991 -4.92349,-4.77924 -6.47933,-7.4792c-1.59219,-2.7631 -0.99129,-6.56756 -2.52004,-9.37205c-3.21254,-5.89342 -8.43469,-12.26702 -9.03808,-19.64378c-0.25479,-3.11495 1.89208,-6.21669 1.27426,-9.27286c-0.41739,-2.0646 -6.13873,-6.3656 -6.35571,-6.88104c-2.94857,-7.00469 0.693,-19.4225 4.376,-24.96971c3.38501,-6.0881 -0.573,-12.36269 2.696,-19.43963c3.01372,-6.52429 3.20155,-6.45818 8.50631,-9.89744c1.69727,-1.10041 5.06403,-2.34751 6.33527,-4.4732c3.53541,-5.9117 0.59434,-11.38488 8.39799,-14.85935zM134.51793,40.37718c-2.73011,1.69068 -6.49368,0.77036 -9.70643,1.0567c-1.69617,0.15119 -1.14119,3.46315 -1.67434,5.20856c-0.63027,2.06339 -1.15051,4.23932 -2.28567,6.03149c-4.01676,6.34151 -10.97673,6.34823 -14.2348,13.24605c-2.50565,5.30482 0.82458,8.20781 -0.22927,13.90868c-0.43228,2.3384 -1.95032,4.27487 -2.9255,6.41228c-3.27313,4.37019 -2.71874,7.52404 -3.47383,13.04761c-0.12223,0.89422 -0.89007,1.89046 -0.45748,2.66601c0.60451,1.0838 2.26446,0.96942 3.02305,1.93371c1.64967,2.09702 3.33996,4.36997 4.02074,7.02017c1.05277,4.09844 -1.22033,6.84449 -1.07368,10.68866c0.21256,5.57049 5.65628,11.24951 7.9347,15.71711c1.40305,2.75111 0.75234,6.44765 2.35492,9.06879c1.90649,3.11829 5.42372,4.98715 6.92014,8.35572c0.56167,1.26438 -0.2433,3.01923 0.50006,4.16932c0.48845,0.75569 1.68445,0.28938 2.51512,0.49564c4.77382,1.18524 7.68041,1.71326 12.61298,1.09445c5.45666,0.79898 10.06101,-0.76904 15.60008,-0.37095c4.25417,0.30574 8.13332,2.72356 11.92753,-0.20954c1.25392,-0.96936 3.56941,-2.38724 2.90033,-3.89319c-0.68975,-1.55256 -3.05165,-2.1672 -3.15509,-3.88409c-0.17574,-2.91718 1.11244,-5.80639 2.41732,-8.36213c1.42139,-2.78394 4.99167,-3.713 6.51374,-6.43384c0.4079,-0.72915 1.13575,-7.58233 1.15034,-7.82732c0.27074,-4.54753 1.56648,-10.751 0.80294,-15.25891c-0.35956,-2.12281 -1.88319,-4.02907 -1.78337,-6.18294c0.2266,-4.88976 3.26353,-9.70326 7.12534,-11.98822c-11.22522,-3.32849 -2.71975,-18.52139 -7.03728,-26.21495c-3.22602,-5.74855 -7.68919,-6.00792 -10.53438,-12.72879c-1.25633,-2.9677 -0.33544,-11.99607 -2.89726,-14.11444c-0.96751,-0.80001 -2.37791,-0.63346 -3.48471,-1.18247c-1.95397,-0.96922 -4.06462,-3.30262 -6.50418,-3.23492c-3.22585,0.08953 -6.18636,2.24604 -9.4081,2.43795c-2.32323,0.1384 -4.89156,-0.21102 -7.45399,-0.67211z" data-paper-data="{&quot;index&quot;:null}" fill="url(#color-44)" stroke="none" stroke-width="0.5"/><path d="M123.0699,171.35372c-9.11761,-3.35249 -5.97765,-9.29903 -10.29785,-15.42879c-1.55342,-2.20411 -5.47606,-3.38269 -7.47418,-4.4783c-6.24503,-3.42424 -6.45795,-3.34574 -10.20552,-10.14948c-4.065,-7.38005 0.20835,-14.22293 -3.94677,-20.54678c-4.47383,-5.73586 -9.20022,-18.77706 -6.11856,-26.35195c0.22676,-0.55739 6.61228,-5.37937 7.00163,-7.59229c0.57634,-3.27573 -2.02578,-6.47914 -1.86913,-9.8015c0.37098,-7.86796 6.09241,-14.87132 9.5259,-21.27644c1.6339,-3.04799 0.77731,-7.06594 2.4859,-10.0727c1.66958,-2.93807 5.71527,-4.92243 7.11754,-8.23356c0.91049,-2.14993 0.26529,-4.99892 1.78216,-6.77381c5.10966,-5.9787 17.68227,-6.65294 24.69879,-6.10795c3.95498,-0.64863 8.02166,-0.14074 12.02315,0.08419c9.48304,0.53307 16.5548,-4.90283 25.64187,1.00121c4.76356,3.09497 8.33815,8.4288 7.76296,14.44654c-0.15759,1.64861 -2.71545,2.14034 -3.34797,3.67091c-0.75698,1.83172 2.98733,2.60553 4.48301,3.90601c3.34944,2.91231 6.04337,6.93757 7.1423,11.23786c1.73352,6.78354 3.4794,17.49088 2.56461,24.43569c-0.22192,1.68466 -1.62925,3.10331 -1.71551,4.80033c-0.09558,1.88039 5.40618,6.54016 5.42411,6.57471c1.50064,2.8914 1.91682,6.22689 2.87522,9.34034c-1.72389,1.48257 -3.73853,2.68249 -5.17164,4.44769c-3.73828,4.60451 0.71255,13.77759 -0.11987,18.87221c-0.77349,4.73394 -3.96586,9.97213 -7.18951,13.32353c-2.03618,2.11687 -5.24869,3.454 -6.24406,6.2174c-2.46168,6.83416 0.70867,12.64666 -5.13134,18.77576c-2.15453,2.26119 -9.23117,5.62316 -14.15158,7.13751c-1.07061,1.47855 -2.82648,2.006 -2.82648,2.006c-4.98782,1.44136 -11.91632,7.3286 -17.28456,5.92672c-3.26243,-0.85196 -4.87263,-4.3422 -6.82251,-7.34918c-1.07985,0.24427 -2.13005,0.46694 -3.12881,0.63579l-1.9797,0.33465c0,0 -4.17393,0.70558 -5.50359,-3.01228zM137.07919,162.42588c2.92392,-0.6021 5.85946,-1.08573 8.53475,-1.04011c3.70992,0.06325 7.20552,2.2263 10.9157,2.18054c2.80584,-0.03461 5.12889,-2.60724 7.33152,-3.72291c1.24765,-0.63196 2.87539,-0.51654 3.95202,-1.40922c2.8508,-2.36378 1.39836,-11.92082 2.71213,-15.13041c2.97531,-7.26867 8.09182,-7.73937 11.54714,-13.99109c4.6244,-8.36696 -5.8115,-24.14563 6.94004,-28.17425c-4.53677,-2.26023 -8.23625,-7.24436 -8.71023,-12.43233c-0.20878,-2.28524 1.45847,-4.37818 1.77883,-6.65047c0.68031,-4.82532 -1.07942,-11.36307 -1.58916,-16.18533c-0.02746,-0.2598 -1.1631,-7.51303 -1.66361,-8.27029c-1.86764,-2.82578 -6.01022,-3.65741 -7.76491,-6.55468c-1.61088,-2.65979 -3.21712,-5.67476 -3.14264,-8.78344c0.04384,-1.82959 2.73064,-2.58616 3.45529,-4.26669c0.70291,-1.63008 -2.01936,-3.03615 -3.50238,-4.0118c-4.48741,-2.95216 -8.83861,-0.21253 -13.71299,0.29833c-6.34661,0.66516 -11.70516,-0.8005 -17.93957,0.28721c-5.69419,-0.4423 -9.01058,0.24597 -14.44358,1.71444c-0.94536,0.25553 -2.33986,-0.18792 -2.86803,0.63675c-0.80381,1.25503 0.19769,3.08529 -0.39238,4.45388c-1.57212,3.64621 -5.53148,5.7865 -7.58568,9.18456c-1.72672,2.85632 -0.81762,6.75734 -2.30942,9.74311c-2.42256,4.84867 -8.42891,11.12335 -8.42976,17.05415c-0.00057,4.09279 2.73104,6.91258 1.70053,11.31526c-0.66637,2.84695 -2.50909,5.33696 -4.31283,7.63819c-0.82943,1.0582 -2.7416,1.00913 -3.38878,2.18764c-0.46312,0.84332 0.46257,1.86881 0.64208,2.81403c1.10884,5.83864 0.60968,9.21544 4.5612,13.71801c1.21378,2.22951 3.04249,4.22168 3.64132,6.68855c1.45985,6.01405 -2.23952,9.24545 0.87104,14.77507c4.04464,7.19014 12.04143,6.89323 16.93344,13.45884c1.38251,1.85549 2.07528,4.14581 2.88957,6.31169c0.68881,1.83209 0.19586,5.37701 2.15125,5.46362c3.70372,0.16402 7.98757,-0.9787 11.19813,0.69924z" fill="url(#color-45)" stroke="none" stroke-width="0.5"/><g><path d="M118.1803,112.09772l-0.4201,-21.27835l2.40887,-0.04756l0.4201,21.27835z" fill="url(#color-46)" stroke="none" stroke-width="0"/><path d="M162.47674,111.22317l-0.4201,-21.27835l2.40887,-0.04756l0.4201,21.27835z" fill="url(#color-47)" stroke="none" stroke-width="0"/><path d="M105.93484,94.55602l-0.08348,-4.22811l70.76531,-1.39713l0.08348,4.22811z" fill="url(#color-48)" stroke="none" stroke-width="0"/><g stroke-width="0"><path d="M173.69575,91.42567c0.11886,6.02017 -4.44979,10.9926 -10.20439,11.10621c-5.75459,0.11361 -10.51594,-4.67461 -10.63479,-10.69478c-0.11886,-6.02017 4.44979,-10.9926 10.20437,-11.10621c5.75459,-0.11361 10.51596,4.67459 10.63481,10.69478z" fill="url(#color-49)" stroke="none"/><g stroke="#a70000"><path d="M167.50811,91.70361c0.04751,2.40644 -1.81347,4.39477 -4.1566,4.44103c-2.34313,0.04626 -4.28114,-1.86706 -4.32865,-4.2735c-0.04751,-2.40644 1.81345,-4.39478 4.15659,-4.44105c2.34313,-0.04626 4.28114,1.86708 4.32865,4.27352z" fill="#960000"/><path d="M166.49534,91.72361c0.03617,1.83201 -1.38057,3.34568 -3.16438,3.3809c-1.78379,0.03522 -3.25917,-1.42136 -3.29534,-3.25337c-0.03617,-1.83201 1.38055,-3.3457 3.16436,-3.38092c1.78379,-0.03522 3.25919,1.42138 3.29536,3.25339z" fill="#000000"/></g><path d="M173.69575,91.42567c0.00087,0.04424 -5.32423,-2.3608 -10.56589,-2.22163c-5.17613,0.13742 -10.2696,2.82051 -10.2733,2.63306c-0.11886,-6.02017 4.44979,-10.9926 10.20437,-11.10621c5.75459,-0.11361 10.51596,4.67459 10.63481,10.69478z" fill="url(#color-50)" stroke="none"/></g><path d="M134.11756,138.79678l-0.03478,-2.23232l15.33066,-0.23873l0.03476,2.23232z" fill="url(#color-51)" stroke="none" stroke-width="0"/><path d="M147.81828,139.17376l-0.43341,-25.6906l2.68097,-0.0367l0.43341,25.6906z" fill="url(#color-52)" stroke="none" stroke-width="0"/><path d="M133.38211,139.37144l-0.43341,-25.69058l2.68097,-0.03672l0.43341,25.6906z" fill="url(#color-53)" stroke="none" stroke-width="0"/><g stroke="none" stroke-width="0"><path d="M137.1629,157.25083l-0.33561,-21.54933l10.26865,-0.1599l0.33563,21.54933z" fill="url(#color-54)"/><path d="M137.1629,157.25083l-0.04226,-2.71315l10.26865,-0.15992l0.04226,2.71315z" fill="#494949"/></g><path d="M110.14946,111.06175l63.2999,-1.11609l0.12805,6.25086l-63.30734,1.11457z" fill="url(#color-55)" stroke="none" stroke-width="0"/><g><path d="M121.86997,126.26341c-0.98032,0.21628 -1.19659,-0.76404 -1.19659,-0.76404l-0.16022,-0.73862c-0.70507,-4.85915 1.42923,-8.64619 -1.2363,-12.92223c-1.76423,-4.54388 -0.27274,-6.43611 -0.1758,-10.77175c0.05179,-2.31607 -1.58152,-4.30185 -1.86361,-6.51282c-0.30282,-2.37349 1.30948,-3.86345 1.77959,-6.01112c0,0 0.22421,-0.97853 1.20274,-0.75432c0.97853,0.22421 0.75432,1.20274 0.75432,1.20274c-0.42443,1.78989 -2.00505,3.4041 -1.74559,5.30425c0.31256,2.28889 1.96672,4.36355 1.88008,6.80109c-0.14614,4.11105 -1.65621,5.6242 -0.03655,9.84276c2.90822,4.6049 0.69032,8.44873 1.42807,13.53306l0.13387,0.59437c0,0 0.21626,0.98032 -0.76404,1.19659z" fill="url(#color-56)" stroke="none" stroke-width="0.5"/><path d="M118.98115,125.53667c-1.0037,0.01982 -1.02351,-0.98388 -1.02351,-0.98388l-0.01585,-0.80296c-0.03459,-4.60629 3.74661,-7.07017 3.65373,-11.58566c-0.08014,-4.98754 -3.19038,-8.13679 -5.47942,-12.1428c-1.63252,-2.85707 -1.27616,-7.55885 -0.9906,-10.73353c0,0 0.09115,-0.99974 1.09089,-0.90861c0.99974,0.09115 0.90861,1.09089 0.90861,1.09089c-0.21695,2.34521 -0.55473,6.14799 0.25737,8.41107c1.82482,5.08516 6.08303,8.25997 6.22056,14.24332c0.08721,4.62571 -3.81544,7.18464 -3.65373,11.58566l0.01585,0.80296c0,0 0.01982,1.0037 -0.98388,1.02351z" fill="url(#color-57)" stroke="none" stroke-width="0.5"/><g stroke-width="0"><path d="M127.8218,127.67522c0.11886,6.02017 -4.44979,10.9926 -10.20439,11.10621c-5.75459,0.11361 -10.51594,-4.67459 -10.63479,-10.69478c-0.11886,-6.02017 4.44979,-10.9926 10.20437,-11.10621c5.75459,-0.11361 10.51596,4.67461 10.63481,10.69478z" fill="url(#color-58)" stroke="none"/><g stroke="#a70000"><path d="M119.18657,132.8211c0.04751,2.40644 -1.81345,4.39476 -4.1566,4.44103c-2.34313,0.04626 -4.28114,-1.86706 -4.32865,-4.2735c-0.04751,-2.40644 1.81345,-4.39476 4.1566,-4.44103c2.34313,-0.04626 4.28114,1.86706 4.32865,4.2735z" fill="#960000"/><path d="M118.17382,132.8411c0.03617,1.83201 -1.38055,3.34568 -3.16436,3.3809c-1.78379,0.03522 -3.25917,-1.42136 -3.29534,-3.25337c-0.03617,-1.83201 1.38055,-3.3457 3.16436,-3.38092c1.78379,-0.03522 3.25917,1.42138 3.29534,3.25339z" fill="#000000"/></g></g></g><path d="M129.53314,92.29758c0.00087,0.04424 -5.29781,-1.02253 -10.53947,-0.88338c-5.17613,0.13742 -10.29602,1.48226 -10.29972,1.29481c-0.11886,-6.02017 4.44979,-10.9926 10.20437,-11.10621c5.75459,-0.11361 10.51596,4.67459 10.63481,10.69478z" fill="url(#color-59)" stroke="none" stroke-width="0"/></g><path d="M97.5386,74.6509c-0.73949,-2.23291 1.68085,-2.92285 1.68085,-2.92285l1.57447,-0.40693c9.88482,-4.74144 18.43578,-10.6819 30.09682,-10.94162c0.46576,0.10479 0.94645,0.23199 1.43738,0.36745c0.19722,-0.75172 0.30296,-1.47365 0.27628,-2.14233c-0.18848,-4.72645 -3.28015,-8.08622 -4.504,-12.36266c-2.00299,-6.99894 4.33938,-14.30143 9.88507,-18.09542c0,0 2.04652,-1.38084 3.53539,0.50468c1.48887,1.88552 -0.55764,3.26636 -0.55764,3.26636c-3.67562,2.43806 -9.60598,8.29994 -7.95862,13.15349c1.55774,4.58953 4.62747,8.4047 4.66121,13.55871c0.00712,1.08809 -0.11702,2.15823 -0.33697,3.21614c0.55193,0.03993 1.09775,0.03456 1.63138,-0.03436c2.16968,-0.2802 3.99204,-1.12357 5.69193,-2.15541c1.3373,-6.30542 -2.76143,-12.47815 -0.0703,-18.67449c1.38755,-3.19483 5.07497,-6.20265 7.47644,-8.76647c0,0 1.65844,-1.77013 3.57013,-0.24421c1.91168,1.52592 0.25322,3.29608 0.25322,3.29608c-2.0139,2.14903 -5.4803,4.8266 -6.62493,7.49294c-1.8157,4.22964 -0.03826,8.89803 0.41365,13.57211c1.05262,-0.64426 2.14635,-1.21384 3.3363,-1.61698c3.43733,-1.16453 7.2995,0.77356 10.48253,-1.71357c2.82217,-2.20517 7.71301,-7.91989 6.61971,-11.13014c0,0 -0.54148,-2.28138 1.93071,-2.78859c2.47219,-0.50721 3.01367,1.77414 3.01367,1.77414c1.13866,6.13872 -5.4373,15.33716 -12.00755,17.56224c-2.59722,0.87957 -6.05136,-0.14071 -8.35121,0.69757c-1.885,0.68706 -3.90109,2.68054 -5.7864,3.85541c-3.09804,8.92175 -6.72876,13.84767 -3.08185,23.34538c2.1305,4.1109 4.5412,7.424 3.52837,12.21454c-0.66693,3.15461 -3.94533,7.60569 -3.48228,10.83563c0.81839,5.70834 3.20782,8.70202 1.3492,14.93831l-0.50552,2.03603c0,0 -0.56895,2.2789 -3.03499,1.76066c-2.46603,-0.51822 -1.89706,-2.79712 -1.89706,-2.79712l0.56372,-2.24667c1.77653,-5.74168 -0.92305,-7.90183 -1.51467,-13.23826c-0.55184,-4.97785 4.09691,-9.5472 3.75024,-14.48419c-0.16952,-2.41409 -2.3533,-5.12328 -3.4339,-7.21784c-3.53087,-9.21831 -1.38018,-14.7751 1.50671,-22.58113c-2.21243,0.55522 -4.33585,0.68456 -6.63287,0.48471c-2.11881,5.31953 -5.52155,10.51762 -5.406,16.37011c0.73457,2.45941 2.14859,5.30768 2.71262,7.73731c0.81143,3.49525 -1.09631,8.29944 0.19185,11.57691c1.69677,4.31717 2.63281,6.62622 1.71071,11.43625l-0.48425,1.1292c0,0 -1.09037,2.1122 -3.37423,1.11195c-2.28386,-1.00024 -1.19352,-3.11246 -1.19352,-3.11246l0.07139,0.05283c0.8773,-4.36186 -0.2385,-5.35177 -1.58263,-9.27405c-1.25994,-3.67665 0.63866,-8.12904 -0.27072,-11.85278c-0.63477,-2.59924 -2.03594,-5.4921 -2.7928,-8.13502c-0.08757,-4.43545 0.68645,-9.04559 2.50884,-13.21538c0.58879,-1.34718 1.5516,-3.02261 2.4353,-4.76596c-0.07947,-0.01865 -0.15929,-0.03754 -0.23939,-0.05664c-10.22107,0.16561 -18.54524,6.19653 -27.17075,10.43167l-2.44121,0.73772c0,0 -2.42035,0.68994 -3.15984,-1.54297z" fill="url(#color-60)" stroke="none" stroke-width="0.5"/><path d="M189.7391,68.12251c0.36038,2.48372 -2.12334,2.84411 -2.12334,2.84411l-2.36563,0.34183c-7.02852,0.73766 -11.72095,6.12297 -18.55567,7.49516c-4.46127,0.89567 -10.91049,-0.44878 -15.0127,1.05105c-4.68937,1.7145 -6.98629,12.49489 -7.84583,16.64078c-1.56392,3.32659 -3.58648,7.0222 -6.14373,10.22319c0.31046,-0.01043 0.6203,-0.01875 0.92946,-0.02472c7.79265,0.52656 10.75118,5.29618 16.34243,10.02185c1.26736,1.07116 3.63911,4.82547 5.31651,5.06187c5.54685,0.7817 11.19011,-1.71692 16.83489,-1.24264c3.52785,0.2964 6.39889,2.44065 9.6319,3.70644c0,0 2.33528,0.91936 1.41592,3.25463c-0.91936,2.33528 -3.25463,1.4159 -3.25463,1.4159c-2.50711,-0.99194 -5.50315,-3.231 -8.2423,-3.37766c-5.59931,-0.2998 -11.97034,2.52165 -17.44235,1.15033c-8.41052,-2.10774 -11.20976,-14.56625 -20.69593,-14.97212c-2.14833,0.04336 -4.34384,0.21175 -6.55645,0.40756c-2.30195,1.52979 -4.89019,2.54072 -7.79086,2.73659c-4.40927,0.29775 -7.31828,-2.37866 -11.88143,-1.24979c-7.46707,1.84726 -12.09925,7.46041 -20.34684,6.12924c0,0 -2.47024,-0.44353 -2.0267,-2.91375c0.44353,-2.47022 2.91375,-2.02672 2.91375,-2.02672c5.0619,1.04452 9.36472,-2.0546 13.83336,-4.30802c-5.12347,-1.30985 -10.23957,-2.1326 -15.46044,0.98689l-1.49829,0.34549c0,0 -2.50924,0.04954 -2.55878,-2.4597c-0.03692,-1.86995 1.34719,-2.37389 2.05486,-2.50928c5.38164,-2.81355 13.26132,-3.26085 19.18502,-2.08333c3.1438,0.62493 5.51013,2.70904 8.65848,2.93449c4.33145,0.31015 8.81621,-0.09142 13.27684,-0.47813c3.96948,-3.11141 6.83743,-8.35915 8.74297,-12.31431c1.20711,-6.18852 4.33354,-17.12377 10.88586,-19.76975c4.29215,-1.73327 11.19929,-0.41034 15.83343,-1.27417c6.91322,-1.28864 11.61825,-6.70279 18.90432,-7.54627l2.19789,-0.32036c0,0 2.4837,-0.36038 2.84411,2.12334z" fill="url(#color-61)" stroke="none" stroke-width="0.5"/><path d="M123.0699,171.35372c-9.11761,-3.35249 -5.97765,-9.29903 -10.29785,-15.42879c-1.55342,-2.20411 -5.47606,-3.38269 -7.47418,-4.4783c-6.24503,-3.42424 -6.45795,-3.34574 -10.20552,-10.14948c-4.065,-7.38005 0.20835,-14.22293 -3.94677,-20.54678c-4.47383,-5.73586 -9.20022,-18.77706 -6.11856,-26.35195c0.22676,-0.55739 6.61228,-5.37937 7.00163,-7.59229c0.57634,-3.27573 -2.02578,-6.47914 -1.86913,-9.8015c0.37098,-7.86796 6.09241,-14.87132 9.5259,-21.27644c1.6339,-3.04799 0.77731,-7.06594 2.4859,-10.0727c1.66958,-2.93807 5.71527,-4.92243 7.11754,-8.23356c0.91049,-2.14993 0.26529,-4.99892 1.78216,-6.77381c5.10966,-5.9787 17.68227,-6.65294 24.69879,-6.10795c3.95498,-0.64863 8.02166,-0.14074 12.02315,0.08419c9.48304,0.53307 16.5548,-4.90283 25.64187,1.00121c4.76356,3.09497 8.33815,8.4288 7.76296,14.44654c-0.15759,1.64861 -2.71545,2.14034 -3.34797,3.67091c-0.75698,1.83172 2.98733,2.60553 4.48301,3.90601c3.34944,2.91231 6.04337,6.93757 7.1423,11.23786c1.73352,6.78354 3.4794,17.49088 2.56461,24.43569c-0.22192,1.68466 -1.62925,3.10331 -1.71551,4.80033c-0.09558,1.88039 5.40618,6.54016 5.42411,6.57471c1.50064,2.8914 1.91682,6.22689 2.87522,9.34034c-1.72389,1.48257 -3.73853,2.68249 -5.17164,4.44769c-3.73828,4.60451 0.71255,13.77759 -0.11987,18.87221c-0.77349,4.73394 -3.96586,9.97213 -7.18951,13.32353c-2.03618,2.11687 -5.24869,3.454 -6.24406,6.2174c-2.46168,6.83416 0.70867,12.64666 -5.13134,18.77576c-2.15453,2.26119 -9.23117,5.62316 -14.15158,7.13751c-1.07061,1.47855 -2.82648,2.006 -2.82648,2.006c-4.98782,1.44136 -11.91632,7.3286 -17.28456,5.92672c-3.26243,-0.85196 -4.87263,-4.3422 -6.82251,-7.34918c-1.07985,0.24427 -2.13005,0.46694 -3.12881,0.63579l-1.9797,0.33465c0,0 -4.17393,0.70558 -5.50359,-3.01228zM137.07919,162.42588c2.92392,-0.6021 5.85946,-1.08573 8.53475,-1.04011c3.70992,0.06325 7.20552,2.2263 10.9157,2.18054c2.80584,-0.03461 5.12889,-2.60724 7.33152,-3.72291c1.24765,-0.63196 2.87539,-0.51654 3.95202,-1.40922c2.8508,-2.36378 1.39836,-11.92082 2.71213,-15.13041c2.97531,-7.26867 8.09182,-7.73937 11.54714,-13.99109c4.6244,-8.36696 -5.8115,-24.14563 6.94004,-28.17425c-4.53677,-2.26023 -8.23625,-7.24436 -8.71023,-12.43233c-0.20878,-2.28524 1.45847,-4.37818 1.77883,-6.65047c0.68031,-4.82532 -1.07942,-11.36307 -1.58916,-16.18533c-0.02746,-0.2598 -1.1631,-7.51303 -1.66361,-8.27029c-1.86764,-2.82578 -6.01022,-3.65741 -7.76491,-6.55468c-1.61088,-2.65979 -3.21712,-5.67476 -3.14264,-8.78344c0.04384,-1.82959 2.73064,-2.58616 3.45529,-4.26669c0.70291,-1.63008 -2.01936,-3.03615 -3.50238,-4.0118c-4.48741,-2.95216 -8.83861,-0.21253 -13.71299,0.29833c-6.34661,0.66516 -11.70516,-0.8005 -17.93957,0.28721c-5.69419,-0.4423 -9.01058,0.24597 -14.44358,1.71444c-0.94536,0.25553 -2.33986,-0.18792 -2.86803,0.63675c-0.80381,1.25503 0.19769,3.08529 -0.39238,4.45388c-1.57212,3.64621 -5.53148,5.7865 -7.58568,9.18456c-1.72672,2.85632 -0.81762,6.75734 -2.30942,9.74311c-2.42256,4.84867 -8.42891,11.12335 -8.42976,17.05415c-0.00057,4.09279 2.73104,6.91258 1.70053,11.31526c-0.66637,2.84695 -2.50909,5.33696 -4.31283,7.63819c-0.82943,1.0582 -2.7416,1.00913 -3.38878,2.18764c-0.46312,0.84332 0.46257,1.86881 0.64208,2.81403c1.10884,5.83864 0.60968,9.21544 4.5612,13.71801c1.21378,2.22951 3.04249,4.22168 3.64132,6.68855c1.45985,6.01405 -2.23952,9.24545 0.87104,14.77507c4.04464,7.19014 12.04143,6.89323 16.93344,13.45884c1.38251,1.85549 2.07528,4.14581 2.88957,6.31169c0.68881,1.83209 0.19586,5.37701 2.15125,5.46362c3.70372,0.16402 7.98757,-0.9787 11.19813,0.69924z" fill="url(#color-62)" stroke="none" stroke-width="0.5"/></g></g></g></svg>