<svg version="1.1" xmlns="http://www.w3.org/2000/svg" xmlns:xlink="http://www.w3.org/1999/xlink" width="1031.065" height="818.66641" viewBox="0,0,1031.065,818.66641"><defs><radialGradient cx="664.58828" cy="412.61591" r="57.75077" gradientUnits="userSpaceOnUse" id="color-1"><stop offset="0" stop-color="#a3a3a3"/><stop offset="1" stop-color="#5d5d5d"/></radialGradient><radialGradient cx="528.47357" cy="342.43099" r="70.48134" gradientUnits="userSpaceOnUse" id="color-2"><stop offset="0" stop-color="#a3a3a3"/><stop offset="1" stop-color="#5d5d5d"/></radialGradient><radialGradient cx="686.22062" cy="343.30292" r="159.5657" gradientUnits="userSpaceOnUse" id="color-3"><stop offset="0" stop-color="#a3a3a3"/><stop offset="1" stop-color="#5d5d5d"/></radialGradient><radialGradient cx="739.73113" cy="326.30564" r="22.22297" gradientUnits="userSpaceOnUse" id="color-4"><stop offset="0" stop-color="#a7a7a7"/><stop offset="1" stop-color="#7a7a7a"/></radialGradient><radialGradient cx="742.22934" cy="320.11427" r="44.92271" gradientUnits="userSpaceOnUse" id="color-5"><stop offset="0" stop-color="#efefef"/><stop offset="1" stop-color="#bdbdbd"/></radialGradient><linearGradient x1="570.45546" y1="308.52432" x2="603.7556" y2="433.71177" gradientUnits="userSpaceOnUse" id="color-6"><stop offset="0" stop-color="#efefef"/><stop offset="1" stop-color="#bdbdbd"/></linearGradient><radialGradient cx="-181.3594" cy="327.07899" r="150.76466" gradientUnits="userSpaceOnUse" id="color-7"><stop offset="0" stop-color="#c5c5c5"/><stop offset="1" stop-color="#5d5d5d"/></radialGradient><linearGradient x1="-38.49624" y1="382.51341" x2="-53.62568" y2="423.34964" gradientUnits="userSpaceOnUse" id="color-8"><stop offset="0" stop-color="#c5c5c5"/><stop offset="1" stop-color="#5d5d5d"/></linearGradient><radialGradient cx="-35.0354" cy="367.40681" r="149.79441" gradientUnits="userSpaceOnUse" id="color-9"><stop offset="0" stop-color="#c5c5c5"/><stop offset="1" stop-color="#5d5d5d"/></radialGradient><radialGradient cx="-231.45447" cy="300.86543" r="22.22297" gradientUnits="userSpaceOnUse" id="color-10"><stop offset="0" stop-color="#a7a7a7"/><stop offset="1" stop-color="#7a7a7a"/></radialGradient><linearGradient x1="52.69009" y1="416.50547" x2="52.69009" y2="541.49224" gradientUnits="userSpaceOnUse" id="color-11"><stop offset="0" stop-color="#c5c5c5"/><stop offset="1" stop-color="#5d5d5d"/></linearGradient><linearGradient x1="239.81172" y1="300.67016" x2="239.81172" y2="492.31375" gradientUnits="userSpaceOnUse" id="color-12"><stop offset="0" stop-color="#a3a3a3"/><stop offset="1" stop-color="#5d5d5d"/></linearGradient><linearGradient x1="240.51986" y1="416.53668" x2="240.51986" y2="652.31166" gradientUnits="userSpaceOnUse" id="color-13"><stop offset="0" stop-color="#c5c5c5"/><stop offset="1" stop-color="#5d5d5d"/></linearGradient><linearGradient x1="248.34216" y1="404.28555" x2="248.34216" y2="806.01055" gradientUnits="userSpaceOnUse" id="color-14"><stop offset="0" stop-color="#c5c5c5"/><stop offset="1" stop-color="#5d5d5d"/></linearGradient><linearGradient x1="249.49319" y1="388.4334" x2="249.49319" y2="857.31046" gradientUnits="userSpaceOnUse" id="color-15"><stop offset="0" stop-color="#c5c5c5"/><stop offset="1" stop-color="#5d5d5d"/></linearGradient><linearGradient x1="241.18753" y1="403.01702" x2="241.18753" y2="794.32796" gradientUnits="userSpaceOnUse" id="color-16"><stop offset="0" stop-color="#c0c0c0"/><stop offset="1" stop-color="#9f9f9f"/></linearGradient><linearGradient x1="149.91225" y1="433.06076" x2="149.91225" y2="499.49527" gradientUnits="userSpaceOnUse" id="color-17"><stop offset="0" stop-color="#c0c0c0"/><stop offset="1" stop-color="#838383"/></linearGradient><linearGradient x1="149.91225" y1="474.42574" x2="149.91225" y2="540.86023" gradientUnits="userSpaceOnUse" id="color-18"><stop offset="0" stop-color="#c0c0c0"/><stop offset="1" stop-color="#838383"/></linearGradient><linearGradient x1="149.91225" y1="514.53704" x2="149.91225" y2="580.9716" gradientUnits="userSpaceOnUse" id="color-19"><stop offset="0" stop-color="#c0c0c0"/><stop offset="1" stop-color="#838383"/></linearGradient><linearGradient x1="153.91808" y1="552.8976" x2="153.91808" y2="619.33212" gradientUnits="userSpaceOnUse" id="color-20"><stop offset="0" stop-color="#c0c0c0"/><stop offset="1" stop-color="#838383"/></linearGradient><linearGradient x1="163.93264" y1="600.57009" x2="163.93264" y2="655.06584" gradientUnits="userSpaceOnUse" id="color-21"><stop offset="0" stop-color="#c0c0c0"/><stop offset="1" stop-color="#838383"/></linearGradient><linearGradient x1="332.84529" y1="433.06076" x2="332.84529" y2="499.49527" gradientUnits="userSpaceOnUse" id="color-22"><stop offset="0" stop-color="#c0c0c0"/><stop offset="1" stop-color="#838383"/></linearGradient><linearGradient x1="332.84529" y1="474.42574" x2="332.84529" y2="540.86023" gradientUnits="userSpaceOnUse" id="color-23"><stop offset="0" stop-color="#c0c0c0"/><stop offset="1" stop-color="#838383"/></linearGradient><linearGradient x1="332.84529" y1="514.53704" x2="332.84529" y2="580.9716" gradientUnits="userSpaceOnUse" id="color-24"><stop offset="0" stop-color="#c0c0c0"/><stop offset="1" stop-color="#838383"/></linearGradient><linearGradient x1="328.83949" y1="552.8976" x2="328.83949" y2="619.33212" gradientUnits="userSpaceOnUse" id="color-25"><stop offset="0" stop-color="#c0c0c0"/><stop offset="1" stop-color="#838383"/></linearGradient><linearGradient x1="318.82486" y1="600.57009" x2="318.82486" y2="655.06584" gradientUnits="userSpaceOnUse" id="color-26"><stop offset="0" stop-color="#c0c0c0"/><stop offset="1" stop-color="#838383"/></linearGradient><linearGradient x1="241.18753" y1="403.01702" x2="241.18753" y2="426.05056" gradientUnits="userSpaceOnUse" id="color-27"><stop offset="0" stop-color="#c0c0c0"/><stop offset="1" stop-color="#9f9f9f"/></linearGradient><linearGradient x1="200.31818" y1="751.11723" x2="282.05698" y2="751.11723" gradientUnits="userSpaceOnUse" id="color-28"><stop offset="0" stop-color="#7b7b7b"/><stop offset="1" stop-color="#b9b9b9"/></linearGradient><radialGradient cx="446.8203" cy="408.19125" r="22.22297" gradientUnits="userSpaceOnUse" id="color-29"><stop offset="0" stop-color="#a7a7a7"/><stop offset="1" stop-color="#7a7a7a"/></radialGradient><radialGradient cx="52.91331" cy="406.85596" r="22.22297" gradientUnits="userSpaceOnUse" id="color-30"><stop offset="0" stop-color="#a7a7a7"/><stop offset="1" stop-color="#7a7a7a"/></radialGradient><linearGradient x1="301.705" y1="265.18081" x2="315.27967" y2="350.7957" gradientUnits="userSpaceOnUse" id="color-31"><stop offset="0" stop-color="#c5c5c5"/><stop offset="1" stop-color="#5d5d5d"/></linearGradient><linearGradient x1="78.07654" y1="54.75974" x2="86.03614" y2="104.96063" gradientUnits="userSpaceOnUse" id="color-32"><stop offset="0" stop-color="#c5c5c5"/><stop offset="1" stop-color="#5d5d5d"/></linearGradient><linearGradient x1="277.9554" y1="53.4724" x2="283.89984" y2="90.96373" gradientUnits="userSpaceOnUse" id="color-33"><stop offset="0" stop-color="#c5c5c5"/><stop offset="1" stop-color="#5d5d5d"/></linearGradient><linearGradient x1="188.06321" y1="74.12866" x2="230.31771" y2="340.62606" gradientUnits="userSpaceOnUse" id="color-34"><stop offset="0" stop-color="#a3a3a3"/><stop offset="1" stop-color="#1a1a1a"/></linearGradient><linearGradient x1="181.54485" y1="17.64136" x2="234.61994" y2="352.38375" gradientUnits="userSpaceOnUse" id="color-35"><stop offset="0" stop-color="#c5c5c5"/><stop offset="1" stop-color="#5d5d5d"/></linearGradient><linearGradient x1="174.92891" y1="39.19339" x2="221.11612" y2="330.4942" gradientUnits="userSpaceOnUse" id="color-36"><stop offset="0" stop-color="#b9b9b9"/><stop offset="1" stop-color="#5c5c5c"/></linearGradient><linearGradient x1="229.41314" y1="331.35751" x2="179.52468" y2="16.71304" gradientUnits="userSpaceOnUse" id="color-37"><stop offset="0" stop-color="#5d5d5d"/><stop offset="1" stop-color="#a1a1a1"/></linearGradient><linearGradient x1="229.41314" y1="331.35751" x2="179.52468" y2="16.71304" gradientUnits="userSpaceOnUse" id="color-38"><stop offset="0" stop-color="#c5c5c5"/><stop offset="1" stop-color="#5d5d5d"/></linearGradient><linearGradient x1="181.54485" y1="17.64136" x2="234.61994" y2="352.38375" gradientUnits="userSpaceOnUse" id="color-39"><stop offset="0" stop-color="#c5c5c5"/><stop offset="1" stop-color="#5d5d5d"/></linearGradient><linearGradient x1="158.13352" y1="190.44832" x2="163.24938" y2="189.63717" gradientUnits="userSpaceOnUse" id="color-40"><stop offset="0" stop-color="#cdcdcd"/><stop offset="1" stop-color="#444444"/></linearGradient><linearGradient x1="252.20837" y1="175.53228" x2="257.32425" y2="174.72113" gradientUnits="userSpaceOnUse" id="color-41"><stop offset="0" stop-color="#cdcdcd"/><stop offset="1" stop-color="#444444"/></linearGradient><linearGradient x1="204.18953" y1="158.40161" x2="205.61327" y2="167.38109" gradientUnits="userSpaceOnUse" id="color-42"><stop offset="0" stop-color="#cdcdcd"/><stop offset="1" stop-color="#444444"/></linearGradient><radialGradient cx="251.71985" cy="156.16955" r="22.40512" gradientUnits="userSpaceOnUse" id="color-43"><stop offset="0" stop-color="#ffffff"/><stop offset="1" stop-color="#939393"/></radialGradient><radialGradient cx="255.38366" cy="144.93271" r="22.40512" gradientUnits="userSpaceOnUse" id="color-44"><stop offset="0" stop-color="#b9b097"/><stop offset="1" stop-color="#827c69"/></radialGradient><linearGradient x1="219.05976" y1="257.88143" x2="219.83292" y2="262.7577" gradientUnits="userSpaceOnUse" id="color-45"><stop offset="0" stop-color="#a0a0a0"/><stop offset="1" stop-color="#696969"/></linearGradient><linearGradient x1="227.08584" y1="206.94859" x2="235.74167" y2="261.54053" gradientUnits="userSpaceOnUse" id="color-46"><stop offset="0" stop-color="#cdcdcd"/><stop offset="1" stop-color="#444444"/></linearGradient><linearGradient x1="196.40119" y1="211.62376" x2="205.05701" y2="266.21567" gradientUnits="userSpaceOnUse" id="color-47"><stop offset="0" stop-color="#cdcdcd"/><stop offset="1" stop-color="#444444"/></linearGradient><linearGradient x1="219.18978" y1="256.10068" x2="226.45995" y2="301.95333" gradientUnits="userSpaceOnUse" id="color-48"><stop offset="0" stop-color="#6e6e6e"/><stop offset="1" stop-color="#969696"/></linearGradient><linearGradient x1="211.17104" y1="180.22843" x2="216.78143" y2="215.61293" gradientUnits="userSpaceOnUse" id="color-49"><stop offset="0" stop-color="#cdcdcd"/><stop offset="1" stop-color="#444444"/></linearGradient><linearGradient x1="157.49695" y1="160.81084" x2="170.48052" y2="242.69769" gradientUnits="userSpaceOnUse" id="color-50"><stop offset="0" stop-color="#c5c5c5"/><stop offset="1" stop-color="#5d5d5d"/></linearGradient><linearGradient x1="156.34866" y1="162.17275" x2="168.87717" y2="241.18949" gradientUnits="userSpaceOnUse" id="color-51"><stop offset="0" stop-color="#c5c5c5"/><stop offset="1" stop-color="#5d5d5d"/></linearGradient><radialGradient cx="164.71013" cy="246.88418" r="22.40512" gradientUnits="userSpaceOnUse" id="color-52"><stop offset="0" stop-color="#ffffff"/><stop offset="1" stop-color="#939393"/></radialGradient><radialGradient cx="161.59303" cy="159.80369" r="22.40512" gradientUnits="userSpaceOnUse" id="color-53"><stop offset="0" stop-color="#b9b097"/><stop offset="1" stop-color="#827c69"/></radialGradient><linearGradient x1="174.14788" y1="28.22766" x2="208.01527" y2="241.82785" gradientUnits="userSpaceOnUse" id="color-54"><stop offset="0" stop-color="#afafaf"/><stop offset="1" stop-color="#515151"/></linearGradient><linearGradient x1="190.68453" y1="111.05136" x2="211.91918" y2="244.97739" gradientUnits="userSpaceOnUse" id="color-55"><stop offset="0" stop-color="#afafaf"/><stop offset="1" stop-color="#4b4b4b"/></linearGradient><linearGradient x1="181.54485" y1="17.64136" x2="234.61994" y2="352.38375" gradientUnits="userSpaceOnUse" id="color-56"><stop offset="0" stop-color="#c5c5c5"/><stop offset="1" stop-color="#5d5d5d"/></linearGradient><radialGradient cx="251.74303" cy="157.40238" r="34.53515" gradientUnits="userSpaceOnUse" id="color-57"><stop offset="0" stop-color="#ff0000"/><stop offset="1" stop-color="#ff0000" stop-opacity="0"/></radialGradient></defs><g transform="translate(262.84672,-9.04518)"><g data-paper-data="{&quot;isPaintingLayer&quot;:true}" fill-rule="nonzero" stroke-linecap="butt" stroke-linejoin="miter" stroke-miterlimit="10" stroke-dasharray="" stroke-dashoffset="0" style="mix-blend-mode: normal"><g><path d="M572.26126,308.04477c41.97344,-11.3235 130.69349,-12.20911 130.69349,-12.20911l22.25325,81.58247c0,0 -76.94753,44.26897 -118.92097,55.59243c-8.20415,2.21327 -18.03646,4.83182 -28.56843,7.61811c-0.12483,-0.42879 -0.2463,-0.8608 -0.36416,-1.29639c-2.15561,-3.95685 -5.30112,-14.30432 -7.71048,-17.26096c-6.90533,-8.4738 -17.59475,-4.04518 -25.99436,-1.81086c-5.57247,1.48228 -13.51437,2.32433 -17.6034,6.92912c-4.81971,5.42761 -0.97669,7.81818 -6.64457,12.2484c-5.38621,4.21001 -15.43876,5.34317 -21.24098,9.95445c-2.88973,2.29658 -4.95346,5.70305 -8.22239,7.41745c0,0 -4.38235,2.42241 -1.96001,6.80475c0.08517,0.15403 0.17274,0.29967 0.26243,0.43733c-7.15043,1.85808 -11.44629,2.97144 -11.44629,2.97144l-27.64123,-102.04583c3.30071,0.18792 4.67082,-3.2078 4.67082,-3.2078c7.13602,-17.82425 30.10483,-14.16143 43.96443,-25.59687c3.96963,-3.2753 7.28329,-6.87914 10.05368,-10.74963c27.63167,-7.45419 55.56894,-14.99085 64.41917,-17.37845z" fill="#494949" stroke="#000000" stroke-width="0"/><g stroke="none"><path d="M650.8505,427.27385c-0.31204,1.33614 -1.21883,2.79211 -3.56187,3.41538c-4.839,1.28718 -6.12618,-3.55182 -6.12618,-3.55182l2.07336,-6.9599c6.57809,-3.58451 11.74821,-8.94513 17.35078,-13.89498c5.3544,-2.94807 -1.86599,-11.69602 1.92045,-18.8842c4.63376,-8.79686 14.19562,-9.75677 20.3731,-15.94444c2.80896,-2.81356 6.06044,-5.15401 8.93882,-7.89649c5.86597,-5.5891 7.31349,-16.03986 14.69956,-20.89726c6.00296,-3.94778 17.71469,-4.97804 24.69152,-6.83389c0,0 4.839,-1.28718 6.12618,3.55182c1.28718,4.839 -3.55182,6.12618 -3.55182,6.12618c-5.89831,1.56896 -16.72806,2.21187 -21.7631,5.52319c-6.2979,4.14183 -8.09519,14.51544 -13.19377,19.68341c-2.79965,2.83775 -6.0479,5.1983 -8.96164,7.9188c-6.29772,5.88011 -13.66078,6.53594 -18.69517,13.79176c-2.80642,4.04478 3.37772,10.89094 1.99934,15.10893c-0.89427,2.73642 -3.9685,4.17151 -5.9528,6.25727c-5.38421,4.75705 -10.39641,9.63408 -16.36678,13.48635z" fill="url(#color-1)" stroke-width="0.5"/><path d="M564.42963,328.8465c2.42241,4.38235 -1.96001,6.80473 -1.96001,6.80473l-4.81837,2.66342c-8.77991,4.84524 -16.6771,10.83584 -25.70365,15.25697c-9.80995,2.64518 -16.72609,7.30465 -25.95775,11.03629c-2.68579,1.08565 -6.86864,-0.8167 -8.5531,1.5401c-4.28846,6.00036 -3.43679,16.20064 -8.81103,22.86523c-6.11146,7.57877 -16.67683,8.42672 -24.48621,12.83025c-5.88477,3.31836 -9.45961,10.33883 -15.77269,13.90084c0,0 -4.38232,2.42242 -6.80473,-1.95995c-2.42241,-4.38235 1.96001,-6.80475 1.96001,-6.80475c6.464,-3.47715 9.39891,-10.11683 15.55313,-13.77585c6.07111,-3.60963 17.22162,-4.48436 21.80325,-10.53651c4.73431,-6.25389 4.11796,-17.96399 9.28037,-23.39843c2.26043,-2.37959 8.90376,-2.66093 12.09341,-3.95191c9.1892,-3.71913 16.34845,-8.5489 26.17984,-11.12262c8.53691,-4.22774 16.04448,-10.03289 24.37433,-14.64441l4.81843,-2.66344c0,0 4.38232,-2.4224 6.80475,1.96001z" fill="url(#color-2)" stroke-width="0.5"/><path d="M463.03708,416.90649c-4.39292,7.57695 -11.57043,4.6856 -13.30211,3.84096c-0.8419,0.19545 -1.67907,0.4033 -2.50662,0.636c0,0 -9.67803,2.5744 -12.25241,-7.10368c-2.5744,-9.67803 7.10368,-12.25241 7.10368,-12.25241c0.05162,-0.01267 0.1031,-0.02545 0.15464,-0.03844c-0.01654,-1.97103 0.20154,-3.88781 0.99831,-5.67077c10.89141,-24.37017 52.84757,-28.21198 74.76738,-21.08591c0.2257,0.07333 0.44796,0.14666 0.667,0.21995c4.06283,-1.0105 8.11934,-1.87575 12.14905,-2.49387c12.09185,-1.85488 24.14528,1.87367 36.08368,0.08943c2.77335,-0.41446 5.57813,-0.86345 8.40381,-1.35082c8.00027,-19.59848 15.64935,-40.11924 37.30058,-45.4271c5.38621,-1.32046 10.89405,-4.30499 16.32743,-3.1946c5.13874,1.05015 8.52903,6.10683 12.80247,9.14767c4.57526,3.25567 9.92826,7.88618 15.5738,12.16024c20.43992,-8.07314 40.28528,-15.84983 62.12637,-21.65961l10.32322,-2.746c0,0 9.67803,-2.5744 12.25241,7.10368c2.5744,9.67803 -7.10368,12.25241 -7.10368,12.25241l-1.35758,0.36111c-18.61474,10.84726 -31.35433,39.23941 -57.49134,35.43434c-7.40353,-1.07783 -14.1866,-4.43508 -20.57854,-8.53714c-1.63653,0.64212 -3.28031,1.2847 -4.93267,1.92678c-17.85447,9.87855 -39.26383,16.52916 -60.19009,20.8197c-2.59226,4.57151 -5.30974,9.04045 -7.68755,13.10841c-8.64272,9.02328 -13.35193,17.34819 -27.86519,17.621c-5.6251,0.1057 -11.07265,-2.7007 -15.96311,-5.48211c-4.66985,-2.6559 -14.33416,-13.34979 -19.86656,-16.98164c-0.55505,-0.36437 -1.16447,-0.71388 -1.82252,-1.04746c-8.79396,2.44958 -17.57224,5.37448 -26.13163,7.6513c-6.21288,1.65263 -13.06237,1.64495 -18.69349,4.74679c-3.45074,1.90082 -5.79735,5.47786 -9.08876,7.59509c-0.06416,0.11815 -0.13084,0.23701 -0.20021,0.35656zM554.69956,400.03893c3.64023,-0.0144 7.05444,-3.71057 9.55706,-6.7268c-7.05411,0.17717 -14.11097,-0.9394 -21.15514,-1.09495c3.45917,3.30998 8.66515,7.83339 11.59806,7.82178zM629.55989,348.12743c-1.86445,-1.59458 -2.507,-4.97695 -4.90704,-5.48545c-2.45138,-0.51939 -4.50579,2.24379 -6.89984,2.98389c-2.39894,0.74164 -5.33729,-0.00384 -7.39492,1.43527c-5.8715,4.10673 -8.08257,12.08257 -10.06201,19.29272c12.63481,-3.2955 25.06546,-7.56738 36.36434,-13.15609c-2.4175,-1.62511 -4.88992,-3.17983 -7.10049,-5.07036z" fill="url(#color-3)" stroke-width="0.5"/><path d="M712.21667,337.07418c-3.05993,-11.51275 4.0751,-23.40134 15.93677,-26.55391c11.86163,-3.15264 23.95785,3.62436 27.0178,15.1371c3.05994,11.51272 -4.07503,23.40139 -15.9367,26.55399c-11.86157,3.15262 -23.95789,-3.62445 -27.01775,-15.13729z" fill="url(#color-4)" stroke-width="0"/></g><path d="M679.95531,345.65101c-6.1855,-23.27256 8.23763,-47.30471 32.21545,-53.6775c23.97772,-6.3729 48.42979,7.32644 54.61527,30.59897c6.1856,23.27254 -8.2375,47.30482 -32.21531,53.67765c-23.97755,6.37288 -48.42984,-7.32666 -54.61519,-30.59931z" fill="url(#color-5)" stroke="none" stroke-width="0"/><path d="M572.26126,308.04477c41.97344,-11.3235 130.69349,-12.20911 130.69349,-12.20911l22.25325,81.58247c0,0 -76.94753,44.26897 -118.92097,55.59243c-13.33063,3.59631 -30.95992,8.26248 -48.90432,12.97993c3.29608,-1.41032 6.99191,-2.39856 9.71241,-3.74213c4.99009,-2.46443 11.58754,-9.94457 16.71585,-11.25438c5.00625,-1.27867 10.29638,0.89276 15.45358,1.20955c11.31285,-0.23041 19.81819,-3.84076 29.23686,-9.09073c6.11127,-3.40639 17.4059,-5.03841 22.21162,-10.71276c7.11709,-8.40361 3.38155,-21.04523 -6.8672,-25.02792c-1.26087,-0.48997 -10.78184,2.19547 -12.8745,2.75209c-12.01586,3.19623 -24.82705,9.03561 -37.2545,6.40399c-10.7058,-3.08358 -21.98356,-4.55787 -32.37951,1.20369c-4.06233,2.25138 -6.22908,7.01665 -10.065,9.63522c-12.40111,8.46571 -34.0628,2.99938 -45.69838,13.95691c-5.39254,5.07834 -9.55763,13.56154 -14.41243,20.01093c-1.41351,0.82913 -2.07387,1.86996 -2.32965,2.88285c-0.66745,0.91976 -2.49862,4.01397 0.65515,6.79581c0.77628,0.68468 1.53361,1.06741 2.24668,1.24367l0.03074,0.05456c0.83466,3.24092 1.75805,6.7015 2.97485,10.05048c-10.96909,2.85311 -17.94482,4.66093 -17.94482,4.66093l-27.26119,-100.64272c5.75855,-1.19373 11.92756,-2.69985 15.64693,-6.17221c2.64762,-2.47173 2.52244,-7.16498 5.30574,-9.48292c4.79638,-3.99434 17.2779,-2.97832 23.19978,-5.8437c10.97802,-5.3119 21.75039,-16.62167 31.70946,-24.19391c21.13898,-5.70269 39.90572,-10.76541 46.86627,-12.6432z" fill="url(#color-6)" stroke="#000000" stroke-width="0"/></g><g stroke="none"><path d="M44.69036,410.99939c-4.87175,1.15713 -6.02888,-3.71467 -6.02888,-3.71467l-0.17155,-1.95765c-6.36517,-10.09533 -27.91424,-16.62667 -39.36026,-16.89742c-18.13441,-3.01404 -37.49249,-2.95527 -55.86499,-5.67584c-8.34261,-1.23539 -18.43415,-6.72061 -26.33475,-9.64771c-16.27739,-6.03059 -32.55474,-12.06121 -48.83214,-18.09183c-33.93235,-12.57161 -66.26561,-29.92296 -101.91202,-36.76214c0,0 -4.91747,-0.94403 -3.97349,-5.8615c0.94403,-4.91747 5.8615,-3.97349 5.8615,-3.97349c36.23159,6.95941 69.0277,24.43347 103.50323,37.20629c16.27739,6.03059 32.55474,12.06121 48.83214,18.09183c7.12846,2.64102 16.81118,8.07809 24.37555,9.13993c18.23328,2.55959 37.27621,2.86177 55.29736,5.60526c14.8894,0.61256 38.47515,8.69899 46.82578,21.44149l1.49726,5.06849c0,0 1.15713,4.87175 -3.71467,6.02888z" fill="url(#color-7)" stroke-width="0.5"/><path d="M-133.29691,387.60486c1.7396,-4.6954 6.43497,-2.9558 6.43497,-2.9558l0.93906,0.34793c16.35544,6.0595 36.6672,18.59167 54.17377,13.3925c15.35557,-1.66005 34.12437,-10.46807 49.60043,-7.95622c19.86464,3.22421 41.14047,15.14574 60.08138,22.16319c0,0 4.6954,1.7396 2.9558,6.43497c-1.7396,4.6954 -6.43497,2.9558 -6.43497,2.9558c-18.66202,-6.91408 -38.80383,-17.79071 -58.24268,-21.67471c-3.43982,-0.68731 -5.04305,0.90986 -8.38229,1.53319c-12.31048,2.29795 -25.23221,4.99565 -37.60009,6.36118c-19.71577,5.85534 -41.26007,-7.01302 -59.63037,-13.8191l-0.93906,-0.34793c0,0 -4.6954,-1.7396 -2.9558,-6.43497z" fill="url(#color-8)" stroke-width="0.5"/><path d="M35.3763,410.72328c-1.86992,7.66201 -10.66049,5.24063 -10.66049,5.24063l-8.95892,-2.46855c-26.64649,-8.04716 -51.82742,-18.32092 -77.85132,-27.99732c-17.0983,-9.04809 -34.12974,-18.22942 -51.03134,-27.71315c-21.887,0.31083 -40.5942,2.96021 -63.00955,-5.28599c-21.70676,-10.01542 -48.32839,-18.97303 -64.2804,-35.91857l-2.67923,-6.52135c-0.7874,-1.16322 -1.31376,-2.65037 -1.34037,-4.55045c-0.02079,-1.48277 0.27044,-2.66788 0.75889,-3.61464c0.21959,-0.42585 0.49874,-0.84125 0.85096,-1.23209c0.35221,-0.39085 0.74504,-0.7212 1.16078,-1.00025c0.92418,-0.62067 2.14307,-1.11142 3.74313,-1.38112c1.54567,-0.26048 2.89391,-0.22156 4.06598,0.01805c15.02613,0.97861 28.49997,-0.80102 43.83235,2.94623c20.61972,5.03949 40.35149,17.03175 58.23001,27.57181c7.53645,4.44298 15.10516,8.80824 22.70095,13.10904c5.33694,-0.08814 10.71166,0.02869 16.14037,0.59659c22.96723,2.40263 44.17481,10.98999 65.7962,19.0005c9.60605,3.55894 22.24283,6.78126 30.84538,12.52283c10.75289,7.17674 16.33285,16.32896 23.22224,26.14152c0,0 0.00822,0.01168 0.02345,0.03436l1.52037,0.41864c0,0 8.79061,2.42136 6.92066,10.08337zM-140.7044,341.94097c-16.04118,-9.45226 -34.09403,-20.81421 -52.65657,-25.26568c-8.83897,-2.11964 -17.07001,-2.19825 -25.42261,-2.16576c13.7937,10.08034 34.18909,16.71504 48.88914,23.52607c10.36027,3.87212 20.62633,4.89533 30.92018,4.9231c-0.57691,-0.3388 -1.15362,-0.67804 -1.73018,-1.01772zM-55.33411,371.25875c18.68422,6.89625 36.905,14.17247 55.59149,20.64152c-1.79654,-1.86845 -3.785,-3.59251 -6.06214,-5.09004c-7.27269,-4.78266 -18.86183,-7.57253 -26.82165,-10.52156c-12.60915,-4.67154 -24.89888,-9.37468 -37.4242,-12.87231c4.89854,2.63006 9.80455,5.24302 14.71658,7.84239z" fill="url(#color-9)" stroke-width="0.5"/><path d="M-219.8553,313.34577c-4.1362,11.17136 -16.81995,16.77264 -28.32967,12.51109c-11.50986,-4.26158 -17.48712,-16.77238 -13.3508,-27.9437c4.13627,-11.17127 16.81988,-16.77249 28.3297,-12.51086c11.50986,4.26158 17.48714,16.77235 13.35087,27.94363z" fill="url(#color-10)" stroke-width="0"/></g><path d="M52.57449,532.97465c0.59983,0.68408 3.00357,3.81398 -0.12635,6.94396c-3.54065,3.54065 -7.08137,0 -7.08137,0l-2.80185,-4.87593c0,-3.94446 0.05264,-7.88898 0.13393,-11.83267c4.64916,-9.63537 16.75628,-33.54475 9.8629,-44.45248c-4.84604,-7.66815 -12.28779,-14.43394 -11.29464,-24.44335c0.59935,-6.04103 15.75587,-25.72104 5.40102,-28.29152c0,0 -4.47862,-2.23931 -2.23936,-6.71798c2.23931,-4.47862 6.71798,-2.23936 6.71798,-2.23936c7.86447,4.82552 11.6706,15.31393 7.72794,25.08871c-1.71414,4.24969 -10.72167,10.18223 -7.88749,16.52952c2.40241,5.38028 7.60686,10.11172 10.28925,15.13975c7.8932,14.79546 -1.93182,38.44511 -8.83094,51.68752c0.07949,2.48702 0.11661,4.97542 0.12895,7.46379z" fill="url(#color-11)" stroke="none" stroke-width="0.5"/><g stroke="none"><g><path d="M249.19917,315.3894h2.67057c12.11383,0 17.53441,0.96303 20.9931,13.74242c0.05373,8.53201 0.52241,17.98703 2.57414,26.1669c1.32582,5.28576 5.51746,10.67701 6.6764,16.02334c0.01202,0.05558 0.02399,0.11147 0.03578,0.16764c0.00633,-0.00052 0.01262,-0.00104 0.01899,-0.00159c6.98889,-0.58242 16.36128,-3.2502 23.36088,-1.09539c8.82177,2.71578 14.24247,14.25523 22.69973,17.35857c3.05873,1.1224 6.54972,0.32563 9.71058,1.11581c16.0444,-0.12725 39.7522,-4.39423 54.53657,1.60877c2.56423,1.04117 5.43253,1.92345 7.28861,3.97638c1.806,1.99752 3.83721,13.42401 7.57838,14.78767c6.6099,2.40937 17.86114,-3.00806 24.78934,-3.05174c0,0 5.00728,0 5.00728,5.00728c0,3.95401 -3.12222,4.78569 -4.43581,4.96069c-1.13614,2.398 -4.07908,2.69231 -4.07908,2.69231c-12.70073,1.2683 -26.12231,2.61706 -38.39439,6.32596c-17.72029,5.35548 -28.86951,23.77888 -45.9782,29.49443c-5.81663,1.94315 -16.84401,1.59225 -22.94789,1.59225c-4.39886,0 -10.46958,0.34358 -14.38023,-1.92777c-3.19352,-1.85488 -5.31619,-5.12782 -7.97429,-7.69173c-8.85507,-6.42761 -21.22585,-13.71088 -26.2309,-23.9472c-2.61645,-5.35121 -2.91542,-11.22821 -2.40221,-17.28597c-3.59308,-5.36814 -6.74648,-11.00116 -9.45134,-15.78087c-1.32637,-2.34382 -2.17871,-4.67045 -2.84452,-6.87941c-1.40032,0.02688 -2.80263,0.04628 -4.20767,0.05832c-0.27312,0.23574 -0.54974,0.46877 -0.82972,0.6991c-0.07452,0.25038 -0.15249,0.49967 -0.2341,0.74765c-0.28381,0.86231 -2.21673,1.42447 -1.67136,2.15024c0.80786,1.07515 2.94072,-0.03125 3.93989,0.8689c7.89734,7.11463 8.80167,15.90941 7.15201,25.95296c-1.72286,10.4894 -7.4606,13.63141 -11.01501,22.58612c-4.42386,11.14512 -3.62467,22.38917 -3.62467,34.13629c0,4.45093 0,8.90186 0,13.35276v4.00585c0,0 0,5.00728 -5.00728,5.00728c-5.00728,0 -5.00728,-5.00728 -5.00728,-5.00728c0,-4.45093 0,-12.90766 0,-17.35857c0,-10.65126 -0.40669,-20.83891 2.11844,-30.94951c-4.80834,4.002 -10.78973,7.16754 -15.23897,10.73517c-7.02193,5.63053 -8.26957,12.51699 -18.31297,14.44905c-14.9809,2.88194 -37.27048,-0.56534 -51.8928,-4.1584c-13.78112,-5.95608 -16.8183,-25.48863 -30.75421,-30.72548c-3.03076,-1.13889 -6.50504,0.67435 -9.71058,0.21945c-7.54471,-1.07069 -11.01338,-6.26617 -18.09605,-8.15939c-13.56724,-3.62657 -30.12656,-1.15008 -44.0502,-1.15008c0,0 -0.94553,0 -2.01483,-0.41089c-0.04378,0.01761 -0.08758,0.03523 -0.13131,0.05275c0,0 -4.64916,1.85967 -6.5088,-2.7895c-1.85967,-4.64916 2.7895,-6.5088 2.7895,-6.5088c11.9144,-4.75723 24.46245,-12.4108 37.41877,-13.68654c27.04085,-2.66267 55.1048,1.47697 81.94538,1.31092c11.72175,0 23.88003,0.95297 35.5591,0.02434c3.84441,-0.3057 6.9407,-3.36804 10.4671,-4.92935c5.9514,-2.63499 12.40083,-5.11114 18.67609,-7.99061c-0.95003,-1.36165 -1.91343,-2.69045 -2.86918,-3.98246c-4.26084,-3.42249 -10.86359,-4.14773 -13.90359,-8.6894c-3.79783,-5.67382 -1.04305,-10.3698 2.23786,-14.55452c-4.70292,-3.25408 -8.55983,-7.12067 -10.55548,-11.33177c-3.47626,-7.33559 -7.70899,-24.50972 -2.19754,-32.03622c2.65173,-3.62126 9.39598,-4.79017 13.44708,-5.82425l2.54967,-0.14947c0,0 5.00728,0 5.00728,5.00728c0,5.00728 -5.00728,5.00728 -5.00728,5.00728l-0.1208,-0.14947c-2.6602,0.64804 -6.39816,-0.09041 -7.91735,2.18743c-2.81827,4.22572 1.6782,17.71559 3.14356,21.37492c0.81607,2.03795 2.48437,4.01812 4.66712,5.85094c0.32279,-5.27469 1.39244,-10.06983 3.14998,-13.54993c3.42441,-2.32278 6.06311,-3.95966 8.61273,-5.23996c0.78371,-1.95134 1.58893,-3.8871 2.44007,-5.78013c-0.67419,-0.48258 -1.38074,-1.00922 -2.1235,-1.59013l-2.02157,-6.89644c0,0 -1.21446,-4.85778 3.64337,-6.07224c4.85778,-1.21446 6.07224,3.64337 6.07224,3.64337l0.09492,0.55385c3.00738,-4.35648 6.68495,-8.02828 11.50184,-10.49446l2.67057,-1.33527c0,0 4.47862,-2.23936 6.71798,2.23936c2.23936,4.47862 -2.23936,6.71798 -2.23936,6.71798l-2.67057,1.33527c-2.53243,1.22689 -4.3365,2.5283 -5.67973,3.94297c0.46246,-0.07613 0.76983,-0.07613 0.76983,-0.07613zM282.20978,398.45461c-0.17612,1.62005 -0.5146,3.3968 -0.85315,5.24349c2.58143,3.46099 5.38086,6.6015 8.40489,8.96626c14.15414,11.06826 36.02683,6.87675 52.90709,6.87675c0,0 5.00728,0 5.00728,5.00728c0,5.00728 -5.00728,5.00728 -5.00728,5.00728c-20.03795,0 -42.43171,3.88581 -59.25627,-9.14659c-0.31349,-0.24285 -0.62488,-0.49267 -0.93432,-0.7492c4.93281,8.07092 15.77528,14.09122 22.98286,19.37298c26.04063,27.22962 57.16876,-15.8424 81.60785,-23.36071c3.5146,-1.08122 7.12045,-1.97655 10.77738,-2.73418c-2.77954,-5.05677 -3.48132,-11.35905 -8.84474,-13.06943c-15.05127,-4.79975 -36.36122,-0.96142 -52.28565,-1.06181c-3.80203,-0.9505 -7.99053,-0.16225 -11.65387,-1.55469c-8.36321,-3.17885 -14.46457,-14.99126 -22.69973,-17.35857c-5.2404,-1.50646 -14.18495,1.12483 -19.29379,1.56886c0.09751,5.94663 -0.35273,12.33931 -0.8586,16.99235zM265.69029,357.59966c-2.11939,-8.50017 -2.83693,-18.4234 -2.767,-27.24419c-1.46704,-7.0747 -4.54126,-4.95145 -11.05355,-4.95145h-0.03188c1.90089,1.97236 3.71139,4.58037 5.75656,8.60653c3.99826,6.97516 6.56258,20.07255 5.15762,31.17986c1.25942,2.26707 2.06134,4.76578 2.75105,7.31072c2.15783,-0.08365 4.31372,-0.18507 6.47059,-0.30518c-1.54235,-4.84589 -5.07628,-9.75484 -6.2834,-14.59627zM268.44781,382.40934c0.33425,0.78615 0.70725,1.54986 1.13202,2.2842c0.91099,1.57494 1.8734,3.27262 2.88804,5.03632c0.33501,-2.54912 0.58809,-5.0785 0.65024,-7.56314c-1.55678,0.09024 -3.11326,0.17111 -4.67029,0.24259zM231.14861,350.29722c-0.57173,1.41578 -1.2533,2.78408 -2.01169,4.11354c5.40688,2.31836 11.00229,3.73705 14.72117,3.70755c0.35609,0.00183 0.73721,-0.00136 1.13856,-0.00677c-0.07203,-7.92407 -0.87116,-15.87657 -3.1847,-22.68009c-0.74086,0.19559 -1.44295,0.38869 -2.11916,0.5875c-2.76642,4.81317 -6.35488,8.85683 -8.54413,14.27827zM111.14696,418.69181c4.76098,2.55074 10.6161,-0.70627 15.4548,1.10624c14.4456,5.41112 17.79904,26.24818 30.66856,30.69732c13.49611,3.45607 32.93758,5.65953 46.9178,3.8533c6.76032,-0.87343 8.90567,-8.32534 13.7337,-12.25647c5.28559,-4.30374 15.3004,-8.6423 19.00633,-14.83518c6.86368,-11.46976 3.93576,-23.00011 -1.70312,-33.30728c-6.88711,3.12356 -13.96229,5.75454 -20.0344,8.46429c-4.48598,2.00194 -8.68775,5.19143 -13.56791,5.75285c-11.8349,1.36163 -24.62625,0.02434 -36.54592,0.02434c-26.59944,-0.13692 -54.14963,-3.54383 -80.95854,-1.35964c-4.29804,0.35015 -8.62326,1.59323 -12.90985,3.24269c13.78571,0.14402 26.63786,1.49163 39.93868,8.61762zM252.25196,411.83635c0.57133,-4.07288 1.65462,-8.4765 0.23386,-12.3361c-0.89777,-2.43892 -3.55007,-3.6262 -6.01978,-4.95881c3.20453,7.3124 5.00784,15.01517 4.17341,22.839c0.74506,-1.64375 1.31876,-3.44977 1.61249,-5.54412zM243.85807,368.13291c-3.48416,-0.022 -7.65409,-0.76932 -11.97581,-2.10117c0.30504,0.81142 0.60145,1.5942 0.87964,2.34172c0.77868,2.09228 0.63844,4.96822 2.48827,6.21805c1.23463,0.83415 2.62964,-1.58012 4.10866,-1.76078c1.69475,-0.20697 3.40191,-0.21701 5.11225,-0.17335c0.10541,-1.47842 0.2015,-2.98716 0.28209,-4.51685c-0.29049,-0.00695 -0.58882,-0.00956 -0.89509,-0.00763z" fill="url(#color-12)" stroke-width="0.5"/><path d="M41.22961,424.2146c0,-5.00728 5.00728,-5.00728 5.00728,-5.00728c3.56073,0 8.45676,0 12.01753,0c38.62842,0.40658 69.13502,25.37614 99.06782,46.34459c14.75083,10.33323 24.33915,23.58404 43.37436,27.17774c27.16815,4.52803 59.74481,15.15309 87.75881,9.32959c17.21886,-3.57941 33.27498,-8.8817 49.13314,-16.80539c22.86486,-13.5687 21.47089,-48.86627 45.34195,-62.72596c7.50509,-4.3575 16.62409,-2.48586 24.6734,-3.29616c6.97425,-0.70202 13.41586,-2.67385 20.52255,-2.69493c0,0 5.00728,0 5.00728,5.00728c0,1.39406 -0.38814,2.40003 -0.94825,3.12594c0.87952,-0.07525 1.75321,-0.11608 2.61739,-0.12158c0,0 5.00728,0 5.00728,5.00728c0,5.00728 -5.00728,5.00728 -5.00728,5.00728c-3.89245,-0.03091 -5.30175,-0.43926 -8.94492,1.02424c-2.35357,0.94543 -4.73079,1.93518 -6.82109,3.37173c-20.95221,14.39856 7.53863,37.04263 11.29248,52.20438c3.12088,12.60537 -4.01668,24.11177 -9.484,34.82214c-2.05062,10.65123 -3.53929,21.70736 -2.42391,32.59876c1.1378,11.11036 6.36039,18.94012 5.33559,31.08358c-1.67107,19.80129 -14.76014,34.5764 -14.65815,54.86763l0.80667,0.43122c0,0 2.23931,4.47868 -2.23936,6.71798c-4.47868,2.23931 -6.71798,-2.23936 -6.71798,-2.23936l-1.86388,-4.90987c0.03056,-7.31356 0.96797,-16.7999 2.8045,-23.85015c2.89828,-11.12638 10.9112,-19.88968 11.91348,-32.11022c0.92998,-11.3393 -4.09354,-18.36162 -5.34662,-29.00397c-1.44278,-12.25378 0.45609,-24.88935 2.91718,-36.83568c4.2921,-8.7295 11.81246,-19.01257 9.20988,-29.2712c-3.03457,-11.96141 -14.95302,-21.29852 -18.64615,-33.19577c-4.90101,-15.78833 6.50273,-28.19184 20.01827,-33.25039c-4.45563,0.62913 -8.76918,1.72261 -13.36398,2.17945c-6.37844,0.63419 -14.73058,-1.28428 -20.72607,2.04497c-3.10102,1.72197 -4.35812,5.60283 -6.69599,8.27035c-15.25499,17.40642 -18.13951,42.03611 -38.761,54.51972c-16.77024,8.39022 -34.03451,14.3705 -52.34801,17.91187c-29.49624,5.70374 -62.56218,-4.59661 -91.16842,-9.36432c-20.66695,-4.31257 -31.2874,-17.61758 -47.42454,-28.90394c-4.62206,-3.23267 -10.37637,-4.68116 -14.84177,-8.12704c-23.33318,-18.00579 -46.96923,-36.7746 -78.37035,-36.32723c-3.56073,0 -7.12147,0 -10.68219,0h-1.33527c0,0 -5.00728,0 -5.00728,-5.00728z" fill="url(#color-13)" stroke-width="0.5"/><path d="M268.18704,469.84306c-1.5792,-5.00678 -4.48969,-9.47446 -7.36273,-13.79447c-3.74035,-5.62418 -7.88946,-10.1948 -12.04967,-14.81455c-1.57597,0.53412 -3.17311,1.09334 -4.75195,1.6936c0.00921,0.38859 0.01575,0.67502 0.01609,0.8285c0.02839,12.93494 -0.48439,25.21507 4.37799,37.49535c2.59554,6.5552 8.02009,11.64297 10.33233,18.31506c1.86654,5.38592 3.19324,11.08495 3.6908,16.82277c7.06011,-14.10996 11.52859,-28.21626 5.74725,-46.5462zM227.45275,413.41694c0,-8.92325 8.4619,-8.92325 8.4619,-8.92325c4.15157,0.35191 8.89676,-1.22736 12.45469,1.05581c1.03204,0.66226 1.98739,1.4172 2.8837,2.24381c1.47052,-0.74386 2.99497,-1.50894 4.57059,-2.35766c0,0 7.56855,-3.99059 11.35277,3.99059c0.54302,1.14521 0.85225,2.20831 0.98368,3.18918c1.02966,-0.86423 2.05797,-1.73022 3.08547,-2.59717l-0.59005,-0.592c0,0 3.78423,-7.98119 11.35277,-3.99059c7.56855,3.99059 3.78423,11.97177 3.78423,11.97177l-3.97481,6.54661c-3.56466,3.00662 -7.15968,5.97457 -10.79193,8.89047c16.72852,20.03491 29.87925,48.13247 20.16792,74.80725c-6.41625,17.624 -18.74484,32.89379 -25.40076,50.46882c7.69375,8.35185 15.23024,16.9155 18.83744,27.60629c2.80627,8.31702 0.35918,23.14398 0.32191,32.01951c-2.89393,15.45822 -7.70169,32.96712 -14.44522,48.78392c0.73521,2.13276 1.46447,4.24664 2.18171,6.3344c2.81963,8.20754 6.61106,16.90566 5.45335,25.54937c-2.23878,16.71579 -15.9841,26.15155 -18.68706,41.49676c-2.22676,12.64168 3.624,28.04108 -0.28152,40.39664c-1.1749,3.71695 -4.22351,6.44721 -6.33527,9.67078l1.69241,-1.78463c0,0 0,2.13435 -0.98989,4.3154c0.83813,1.47602 1.28978,3.44906 0.87474,6.07484c-1.39111,8.80186 -9.73785,7.33487 -9.73785,7.33487c-4.21169,-0.88408 -8.9197,-0.38148 -12.63516,-2.65227c-18.54431,-11.33358 -20.81516,-42.47307 -18.06551,-62.56407c1.91163,-13.96766 7.87144,-24.29877 12.16407,-37.24946c1.23154,-3.71539 0.64406,-8.24698 2.85659,-11.41676c2.61518,-3.74653 7.10226,-5.60235 10.83447,-8.20183c0.58286,-21.00505 -0.90302,-41.96295 -0.2796,-62.84381c-1.83662,-12.51677 -1.94565,-25.04937 -1.94565,-38.03177c0.02715,-9.10593 0.79077,-18.6713 2.79401,-27.83086c-1.73484,-2.09893 -3.33257,-4.22915 -4.71535,-6.41552c-11.66285,-18.44119 -16.56832,-40.86131 -19.96444,-62.44242c-2.24478,-14.26509 -3.91183,-31.75723 5.01515,-44.3726c3.08066,-4.35349 7.28763,-7.5904 11.97374,-10.19493c0.2791,-3.3868 0.89835,-6.68239 2.23107,-9.44648c-2.22422,-0.31413 -7.48851,-1.801 -7.48851,-8.83908zM254.05439,591.70617c-1.76194,9.29616 -2.63894,18.63237 -3.0267,27.99547c0.66248,4.0847 1.55426,8.16849 2.75493,12.26671c0.83106,2.83672 1.70943,5.70733 2.62058,8.59478c2.65289,-8.31778 4.76933,-16.68197 6.29296,-24.57511c-0.03486,-6.8128 2.51578,-18.95624 0.32191,-25.08932c-1.61605,-4.51778 -4.17938,-8.69395 -7.23027,-12.67473c-0.58312,4.58625 -1.05267,9.17856 -1.73334,13.48226zM250.792,695.94637c-0.40945,6.07848 -1.10126,12.21681 -1.78765,18.37422c5.19038,-8.23486 9.58239,-16.70292 7.10752,-25.80176c-0.25522,-0.9384 -0.52258,-1.87504 -0.80076,-2.81002c-0.88362,1.43548 -1.78865,2.83449 -2.71523,4.19276c-0.49726,0.72896 -1.02275,1.43737 -1.57236,2.12593c-0.06669,1.30647 -0.14352,2.61277 -0.23148,3.91892zM231.90416,505.69528c2.84481,11.2586 4.86419,19.78029 10.16389,29.28682c1.92889,-4.00759 3.75687,-8.08998 3.66637,-12.45386c-0.29724,-14.32603 -7.9662,-21.81037 -12.84313,-34.17359c-4.31521,-10.93932 -5.42403,-21.7784 -5.69599,-33.0029c-6.90108,13.89903 1.50331,37.65729 4.70884,50.34364zM225.35922,742.88312c-1.73785,12.9942 -1.99108,32.85966 7.57093,41.41933l0.95438,-5.03198c0.59849,-0.72184 1.11955,-1.48132 1.57182,-2.27427c-6.10491,-17.68846 -5.68303,-35.55457 -4.13566,-53.62172c-2.57317,6.17038 -5.00252,12.33789 -5.96158,19.50857z" fill="url(#color-14)" stroke-width="0.5"/><path d="M446.23363,404.61997c9.91392,1.41626 8.49766,11.33022 8.49766,11.33022c-1.14812,5.98124 -0.14032,12.8274 -3.44445,17.94363c-4.60957,7.13759 -20.21485,13.43746 -27.78193,17.51053c-17.63803,9.49395 -43.01234,14.67415 -54.29111,32.48788c-10.04726,15.86862 1.7734,35.96846 3.44984,51.83284c2.4488,23.17328 -4.23593,43.67085 -12.68501,64.79367c-10.73899,26.63394 -32.28433,43.37056 -46.84647,67.64191c-6.68288,11.13866 -7.06087,20.08231 -11.01271,31.88156c-6.02765,17.99708 -14.8045,39.18471 -26.49348,56.97065c-2.42614,8.16594 -6.00175,15.66597 -9.99771,24.26268c-0.91363,1.96545 -5.37288,12.67716 -8.96064,20.84882c1.23972,2.49835 2.11995,5.11312 2.46874,7.89772c-15.66108,-0.69707 -29.15052,-7.82652 -43.58647,-8.71414c-1.04255,-2.23602 -1.96901,-4.81559 -2.80284,-7.92473c-1.00556,-3.74934 1.03323,-7.8783 0.09549,-11.64519c-1.80741,-7.26025 -7.89888,-12.7324 -12.39364,-18.71366c-10.958,-14.58171 -21.37298,-29.31197 -32.10318,-44.14065c-5.63264,-7.784 -10.03081,-11.76851 -11.76748,-22.04763c-2.65731,-15.72826 4.84559,-24.4196 5.87679,-38.93316c0.86082,-12.11592 -0.09295,-24.89707 -0.04873,-37.06866c0.01696,-4.66722 1.33278,-19.16234 -2.32846,-24.49556c-4.2662,-6.21436 -11.44011,-9.97884 -15.9967,-15.98351c-8.80075,-14.78502 -21.10921,-36.79865 -19.6898,-54.55744c0.99829,-12.49027 12.17823,-18.32297 11.98086,-29.42224c-0.28529,-16.0484 -14.89415,-39.46767 -25.49222,-51.12779c-1.60108,-1.76152 -12.06946,-13.60345 -17.24316,-15.05403c-10.16705,-2.85059 -27.56607,0.50266 -37.74163,2.23006c0,0 -9.87833,1.64638 -11.52471,-8.23195c-1.64638,-9.87833 8.23195,-11.52471 8.23195,-11.52471c1.4314,-0.23469 2.96859,-0.48904 4.58755,-0.75007c1.66671,-0.90668 3.10648,-1.19468 3.10648,-1.19468c15.66808,-3.0628 29.37072,-1.70988 45.01207,-0.14573c30.30061,3.03008 58.34835,6.29965 87.83705,14.34209c11.97869,3.26693 14.53208,-0.02817 26.60153,7.13406c5.05288,2.99849 9.33016,6.721 12.93428,10.95311c11.49156,-18.61762 24.74095,-35.3406 47.32951,-42.15703c10.38461,-3.13373 27.65926,-0.33548 38.62291,-0.33548c29.33864,0 60.42192,2.46948 90.36454,6.81471c3.32612,-4.57947 6.94883,-9.02981 11.78426,-12.8235l9.54176,-4.95152c0,0 8.95732,-4.47862 13.43594,4.47862c2.40601,4.81196 0.93438,8.33147 -0.94298,10.55837c1.00849,-0.1472 2.14233,-0.15235 3.41648,0.02968zM147.14992,467.79933c4.83803,8.9657 9.33902,18.94465 9.24353,29.13199c-0.13213,14.09325 -11.16138,18.16676 -12.05412,30.66524c-0.90486,12.6683 9.99025,31.07214 16.36273,41.5826c4.49247,6.09177 12.12481,9.59129 16.04995,16.06315c10.76626,17.7516 7.30912,54.14623 5.63446,74.63418c-0.95698,11.70763 -8.09112,21.18267 -6.1407,33.17187c2.15737,13.26128 17.35263,25.62676 24.51463,36.36415c3.32925,4.99125 7.52451,10.12647 11.79159,15.41083c1.50944,-12.35056 4.9533,-25.14588 8.75937,-36.8114c-0.67814,-0.92182 -1.29561,-1.82569 -1.82837,-2.70868c-8.38046,-22.44531 -15.81317,-52.7597 -1.83641,-75.18851c0.08172,-1.60461 0.19037,-3.21378 0.32028,-4.82015c-0.98497,-0.75797 -1.94849,-1.44161 -2.87361,-2.03345c-4.47889,-2.86539 -10.36553,-3.77282 -13.98968,-7.66345c-5.44616,-5.8466 -7.93153,-20.4689 -8.61971,-27.98705c-0.67273,-7.34976 0.18206,-19.66655 2.58558,-26.31822c7.07706,-19.5861 27.4636,-29.10598 33.79621,-49.28598c0.73844,-2.35321 1.03129,-5.09444 1.07198,-8.0194c-0.33504,-0.67788 -0.63876,-1.36892 -0.89329,-2.0806c-3.99837,-11.17815 -5.1272,-22.27136 -4.02043,-33.30805c-3.17836,-7.85026 -8.27043,-14.90601 -15.80702,-19.50772c-4.94476,-3.01914 -16.6858,-3.57914 -21.46851,-4.88348c-20.43337,-5.5727 -40.0808,-8.71001 -60.37237,-11.11905c7.9346,10.92441 13.87801,23.78511 19.77391,34.71117zM283.072,693.84817c4.31445,-13.01309 5.60962,-23.86373 13.0223,-36.21762c6.21148,-10.35208 15.71366,-24.26839 23.04328,-33.40934c2.21623,-2.764 5.91031,-3.98006 8.43803,-6.46244c6.68253,-6.56285 10.45173,-16.21342 13.80644,-24.6788c7.30366,-18.25921 13.2044,-35.32036 11.34995,-55.38138c-0.61379,-6.63993 -4.71043,-12.5567 -5.87679,-19.12216c-2.40064,-13.51321 -1.69241,-33.14513 5.32079,-45.21426c2.40619,-4.14084 5.32673,-7.71814 8.6229,-10.87155c-8.19071,4.73254 -15.8688,10.6827 -21.7872,17.64365c-2.95717,3.47809 1.23792,9.05066 1.61209,13.60062c0.09794,1.1909 -3.81769,22.31141 -4.50598,24.19488c-6.54917,17.92245 -19.38506,36.06549 -29.20273,52.41083c-15.96565,21.33778 -31.90806,42.32125 -34.38263,69.34591c-2.09231,22.85038 2.70098,45.51474 5.16601,68.30321c2.02939,-4.76641 3.84513,-9.53149 5.37356,-14.14157zM324.15278,425.91371c-8.435,3.0183 -16.24693,8.08165 -22.87533,14.10854c-5.19923,4.72736 -12.76199,7.44222 -16.07391,13.63987c-16.75209,31.34828 6.82019,67.21255 1.2026,98.96392c-2.01259,11.37567 -8.42894,18.54078 -15.97227,24.6345c0.96898,3.0135 1.72668,6.06079 2.0387,9.13006c5.34145,-9.2496 10.88727,-18.00579 17.82115,-27.22602c8.8864,-14.82914 21.00673,-31.48112 26.87889,-47.73497c5.87911,-16.27313 -4.76014,-26.67489 5.11777,-42.32119c9.17424,-14.53164 29.27823,-25.66463 44.80771,-31.86875c6.11897,-2.44456 13.186,-2.38951 18.97812,-5.53108c2.49754,-1.35465 4.70475,-2.88461 6.70012,-4.54468c-20.90897,-3.09583 -41.6842,-5.70692 -62.81748,-6.42549c-1.78992,3.66918 -5.8061,5.17522 -5.8061,5.17522zM266.73849,548.83838c2.20884,-14.77057 -4.70245,-30.63711 -6.1407,-45.18939c-1.79147,-18.12575 -1.71494,-43.73979 7.34333,-60.14421c5.12463,-9.28065 15.07438,-17.71071 25.66187,-24.41047c-3.176,0.05664 -6.09207,0.36618 -8.45139,1.11282c-18.61967,5.8928 -28.15133,21.1238 -37.53619,36.5668c-1.18155,3.46394 -1.9253,6.7039 -2.31821,9.79082c1.38704,4.34298 2.43521,8.79503 3.20029,13.23938c0.01256,3.99837 0.37239,8.54765 0.68864,13.23425c1.54495,4.6012 3.30373,9.38172 4.8987,14.64955c4.90368,16.19595 4.7757,33.17834 9.24437,49.58721c1.69427,-2.37189 2.91362,-5.12125 3.4094,-8.43666zM220.83035,602.22481c4.19558,-10.20571 10.98876,-19.5703 19.13665,-27.01144c2.26192,-2.0657 4.91809,-3.85202 7.66627,-5.58823c-1.79837,-4.22794 -3.64302,-8.35442 -4.72519,-12.13582c-1.92497,-6.72634 -2.83068,-13.73682 -3.70334,-20.72425c-2.19297,3.56595 -4.57584,7.01926 -7.01953,10.36945c-2.14124,2.9355 -6.0298,4.12411 -8.61899,6.67332c-8.86523,8.72834 -12.21761,19.97666 -11.12137,32.15092c0.49125,5.45538 -0.72751,12.47385 3.39783,16.07716c1.31916,1.15223 2.97563,1.75186 4.68273,2.27961c0.10278,-0.70579 0.20465,-1.4029 0.30492,-2.09063zM240.51984,767.04726c8.22295,-5.87562 12.5759,-14.07632 17.49439,-22.61109c0.24999,-1.44973 0.44608,-2.91997 0.58066,-4.41366c1.75465,-19.47081 -1.87126,-39.93909 -4.63379,-60.37061c-1.55157,1.862 -3.48097,3.54532 -4.4716,5.72395c-1.81671,3.99528 -2.30977,8.46848 -3.46461,12.70269c-0.85677,2.26348 -1.74308,4.6429 -2.63496,7.11387c8.49642,11.39733 17.4604,21.46968 12.78996,38.49008c-2.1796,7.94301 -10.64596,12.58621 -15.54738,19.20571c-1.12056,1.51329 -1.71619,3.40417 -2.01698,5.42216zM240.18012,607.39714c-0.10567,0.76006 -0.21601,1.5404 -0.32917,2.33849c6.1411,-5.02169 11.2778,-10.58839 12.58339,-18.81429c-5.16667,4.45136 -9.63432,9.57651 -12.25421,16.47579zM247.60262,627.11475c1.62899,2.14713 3.09015,4.29134 4.30887,6.36234c0.42072,-3.82196 1.0514,-7.61311 1.9371,-11.366c-2.05187,1.6452 -4.15529,3.28293 -6.24593,5.00369zM236.3847,734.60184c-0.36422,2.01976 -0.67049,4.05942 -0.97773,6.10048c1.43984,-1.91251 2.14812,-4.46006 1.47653,-8.74916c-0.17192,0.87749 -0.33858,1.76016 -0.4988,2.64875zM432.7999,410.52788c-0.26052,0.18159 -0.51585,0.36583 -0.76635,0.55251c1.07617,0.19484 2.14972,0.39206 3.2206,0.59153c0.25195,-0.81291 0.6674,-1.87433 1.33081,-2.9311zM417.57256,430.0628c-0.61051,0.95297 -1.24409,1.90306 -1.91375,2.84477c2.00592,-1.01416 3.86004,-1.83378 5.56034,-2.566c-1.21466,-0.09738 -2.43002,-0.18851 -3.64658,-0.27876z" fill="url(#color-15)" stroke-width="0.5"/><path d="M220.32381,794.32796v-391.31094h41.72744v391.31094z" fill="url(#color-16)" stroke-width="0"/><g stroke-width="0"><path d="M68.43596,461.89091v-28.83008c0,0 25.24377,37.60445 69.56815,37.60445c88.85759,0 93.38443,-15.04183 93.38443,-15.04183v28.83008c0,0 -4.52681,15.04183 -93.38443,15.04183c-44.32441,0 -69.56815,-37.60445 -69.56815,-37.60445z" fill="url(#color-17)"/><path d="M68.43596,503.25572v-28.83008c0,0 25.24377,37.60445 69.56815,37.60445c88.85759,0 93.38443,-15.04183 93.38443,-15.04183v28.83008c0,0 -4.52681,15.04183 -93.38443,15.04183c-44.32441,0 -69.56815,-37.60445 -69.56815,-37.60445z" fill="url(#color-18)"/><path d="M71.44029,543.36715v-28.83008c0,0 24.31291,37.60445 67.00292,37.60445c85.58102,0 89.94092,-15.04183 89.94092,-15.04183v28.83008c0,0 -4.35988,15.04183 -89.94092,15.04183c-42.68993,0 -67.00292,-37.60445 -67.00292,-37.60445z" fill="url(#color-19)"/><path d="M80.45344,581.72767v-28.83008c0,0 22.76149,37.60445 62.72743,37.60445c80.12013,0 84.20177,-15.04183 84.20177,-15.04183v28.83008c0,0 -4.08166,15.04183 -84.20177,15.04183c-39.96589,0 -62.72743,-37.60445 -62.72743,-37.60445z" fill="url(#color-20)"/><path d="M102.48554,624.21918v-23.64913c0,0 19.03811,30.84668 52.46635,30.84668c67.01389,0 70.42789,-12.33869 70.42789,-12.33869v23.64913c0,0 -3.41399,12.33869 -70.42789,12.33869c-33.42817,0 -52.46635,-30.84668 -52.46635,-30.84668z" fill="url(#color-21)"/></g><g data-paper-data="{&quot;index&quot;:null}" stroke-width="0"><path d="M344.75341,499.49527c-88.85759,0 -93.38443,-15.04183 -93.38443,-15.04183v-28.83008c0,0 4.52681,15.04183 93.38443,15.04183c44.32441,0 69.56815,-37.60445 69.56815,-37.60445v28.83008c0,0 -25.24377,37.60445 -69.56815,37.60445z" fill="url(#color-22)"/><path d="M344.75341,540.86023c-88.85759,0 -93.38443,-15.04183 -93.38443,-15.04183v-28.83008c0,0 4.52681,15.04183 93.38443,15.04183c44.32441,0 69.56815,-37.60445 69.56815,-37.60445v28.83008c0,0 -25.24377,37.60445 -69.56815,37.60445z" fill="url(#color-23)"/><path d="M344.31426,580.9716c-85.58102,0 -89.94092,-15.04183 -89.94092,-15.04183v-28.83008c0,0 4.35988,15.04183 89.94092,15.04183c42.69,0 67.00292,-37.60445 67.00292,-37.60445v28.83008c0,0 -24.31295,37.60445 -67.00292,37.60445z" fill="url(#color-24)"/><path d="M339.57665,619.33212c-80.12013,0 -84.20177,-15.04183 -84.20177,-15.04183v-28.83008c0,0 4.08166,15.04183 84.20177,15.04183c39.96592,0 62.72743,-37.60445 62.72743,-37.60445v28.83008c0,0 -22.76153,37.60445 -62.72743,37.60445z" fill="url(#color-25)"/><path d="M327.80564,655.06584c-67.01391,0 -70.42789,-12.33869 -70.42789,-12.33869v-23.64913c0,0 3.41402,12.33869 70.42789,12.33869c33.42817,0 52.46635,-30.84668 52.46635,-30.84668v23.64913c0,0 -19.03811,30.84668 -52.46635,30.84668z" fill="url(#color-26)"/></g><path d="M41.39658,426.05056v-23.03352h399.58193v23.03352z" fill="url(#color-27)" stroke-width="0"/><path d="M200.31818,827.71159v-153.18888h81.73883v153.18888z" fill="url(#color-28)" stroke-width="0"/></g><path d="M458.69464,414.52925c0.00252,11.91249 -9.94523,21.57136 -22.21857,21.57389c-12.27346,0.00255 -22.22487,-9.65242 -22.2272,-21.56488c-0.00241,-11.91245 9.94523,-21.57119 22.21866,-21.57372c12.27346,-0.00255 22.22487,9.65236 22.22726,21.56481z" fill="url(#color-29)" stroke-width="0"/><path d="M68.12594,414.52925c0.00252,11.91249 -9.94523,21.57136 -22.21857,21.57389c-12.27346,0.00255 -22.22487,-9.65242 -22.2272,-21.56488c-0.00241,-11.91245 9.94523,-21.57119 22.21866,-21.57372c12.27346,-0.00255 22.22487,9.65236 22.22726,21.56481z" fill="url(#color-30)" stroke-width="0"/></g><g><g><path d="M339.08625,344.51638c-2.253,4.90266 -7.15569,2.64975 -7.15569,2.64975l-2.47126,-1.65867c-3.88105,-0.32515 -8.27728,0.98388 -11.64323,-0.97541c-7.48378,-4.35634 -2.57647,-14.44703 -8.20199,-19.77485c-3.6943,-3.49881 -9.37015,-4.76142 -12.21682,-9.29441c-5.11611,-8.14688 2.05661,-21.80016 -4.39902,-29.19872c-2.21934,-2.54349 -9.59829,-6.12715 -12.71403,-7.76609c0,0 -4.77018,-2.52145 -2.2487,-7.29165c2.52145,-4.77018 7.29165,-2.2487 7.29165,-2.2487c11.88265,6.30843 19.73776,11.78469 20.7717,26.06028c0.35669,4.92488 -2.30554,10.74062 0.49847,14.80504c2.45129,3.55315 7.71383,4.19051 10.67489,7.33155c7.40309,7.85298 1.4652,19.13986 12.27235,17.56216l6.89189,2.64406c0,0 4.90266,2.253 2.64975,7.15569z" fill="url(#color-31)" stroke="none" stroke-width="0.5"/><path d="M26.47637,78.53708c-0.84494,-5.329 4.48406,-6.17394 4.48406,-6.17394l4.23406,-0.67133c4.42001,-0.70081 9.07432,-0.47883 13.27077,-2.03361c9.63698,-3.57049 16.9979,-12.75477 27.5032,-14.5591c26.8608,-4.61349 54.61202,9.13034 63.07514,35.20072c0,0 1.5901,5.15597 -3.56587,6.74603c-5.15597,1.5901 -6.74603,-3.56587 -6.74603,-3.56587c-6.25147,-21.74931 -29.82753,-30.68191 -51.07334,-27.72285c-6.01316,0.83747 -11.63051,6.51095 -16.66496,9.46059c-8.50594,4.98359 -14.63657,5.63022 -24.10904,7.13213l-4.23406,0.67133c0,0 -5.329,0.84494 -6.17394,-4.48406z" fill="url(#color-32)" stroke="none" stroke-width="0.5"/><path d="M327.54277,49.73216c2.11219,4.965 -2.85277,7.07717 -2.85277,7.07717l-6.04406,2.52733c-8.66295,1.0231 -10.7366,10.38744 -20.07833,10.39912c-2.98647,0.00375 -5.44936,-2.61525 -8.38768,-3.14933c-3.30324,-0.60039 -19.42583,1.49004 -21.98714,3.27355c-4.38518,3.05352 -5.97033,8.90113 -9.50292,12.91046c-4.74436,5.38468 -10.39683,9.96444 -16.2249,14.15214c0,0 -4.38855,3.13895 -7.52749,-1.2496c-3.13895,-4.38855 1.2496,-7.52749 1.2496,-7.52749c10.27946,-7.3153 16.45559,-21.10181 26.38792,-27.49908c9.71498,-6.25733 26.25099,-3.34406 35.88981,-1.70135c3.76004,0.64084 11.30592,-8.87006 17.20165,-9.98011l4.79915,-2.0856c0,0 4.965,-2.11219 7.07717,2.85277z" fill="url(#color-33)" stroke="none" stroke-width="0.5"/><path d="M281.28829,83.53013c-2.66923,4.68907 -7.35834,2.0199 -7.35834,2.0199l-1.79309,-1.58529c-2.41446,-0.23091 -8.32968,-2.5478 -13.34643,-3.81519c0.9708,3.02744 -1.64038,5.43698 -1.64038,5.43698c-7.59374,6.96963 -11.9978,12.93973 -20.87925,18.60017c-1.55436,0.99068 -3.49539,1.99205 -5.60716,3.04142c-4.62769,5.44755 -9.53853,10.64863 -14.83326,15.40422c-1.63232,1.46615 -3.68704,3.23921 -5.90789,4.97417c-0.87585,8.84579 2.75409,19.24536 3.99501,27.07182c0.22682,1.43057 0.43191,2.83237 0.61421,4.20957c3.05111,1.55235 4.78637,4.25096 8.33046,5.58805c6.48346,2.44609 19.09634,2.07978 25.80642,1.77352c2.95016,-0.13465 6.18965,-0.89084 9.49719,-1.70659c-2.52198,-6.40215 -6.03319,-12.74918 -7.67948,-17.6c-3.04379,-8.96878 -0.31363,-14.9448 1.70108,-23.79909c6.68488,-21.1568 14.39427,-30.91374 37.25402,-34.53827l0.70809,-0.11227c0,0 5.329,-0.84494 6.17394,4.48406c0.84494,5.329 -4.48406,6.17394 -4.48406,6.17394l-0.70809,0.11227c-18.71835,2.96789 -23.05382,9.42041 -28.52896,26.70473c-0.98294,4.33893 -3.23425,8.47352 -3.34354,12.92104c-0.20071,8.16843 4.81128,15.79175 8.70412,23.60218c1.92011,-0.22863 3.78683,-0.28152 5.55338,-0.04006c11.50175,1.57193 18.83402,13.72147 31.40051,16.23716c0,0 5.28639,1.07998 4.2064,6.36636c-1.07998,5.28639 -6.3664,4.20637 -6.3664,4.20637c-8.62791,-1.7929 -16.50838,-4.48433 -23.47312,-10.20854c-2.51886,-2.0702 -3.12219,-5.73727 -6.86969,-5.86669c-0.15385,-0.00528 -0.30764,-0.00999 -0.46138,-0.01411c0.48239,2.42309 0.61294,4.89196 0.22365,7.4261c-2.90913,18.93705 -22.81542,25.91923 -37.61554,32.65824c-1.66475,0.75802 -3.38162,1.55626 -5.14367,2.31017c1.19696,1.2157 2.34998,2.55717 3.47486,4.10551c8.37103,2.43595 16.89625,4.95676 24.7425,10.61307c19.87841,14.33027 28.44794,35.56609 38.16923,57.43987c0,0 2.18951,4.93136 -2.74189,7.12086c-4.93141,2.18952 -7.1209,-2.74188 -7.1209,-2.74188c-8.89535,-20.05514 -16.4587,-39.76704 -34.50781,-52.98754c-3.35049,-2.45413 -7.89643,-4.91325 -12.45307,-6.98111c5.87076,13.80763 12.57202,28.61647 13.65282,43.2077c0.29819,4.02602 0.82715,14.43325 -2.38159,18.42998c-3.67211,4.57385 -7.85309,4.98825 -12.23133,5.32813c-0.14552,12.9825 -2.47683,27.39114 -4.32078,37.28474c0,0 -0.99661,5.30276 -6.29939,4.30614c-5.30276,-0.99661 -4.30611,-6.2994 -4.30611,-6.2994c1.98888,-10.48768 1.77025,-20.60021 2.08405,-30.99814c-7.17815,6.15253 -9.28064,18.07836 -8.90986,26.61056c0,0 0.17741,5.39268 -5.21523,5.57012c-5.39264,0.1774 -5.57012,-5.21523 -5.57012,-5.21523c-0.37307,-15.05139 4.8125,-33.59067 20.35694,-39.80642c0.06403,-0.02556 0.13435,-0.05018 0.21062,-0.07383c0.35829,-4.23668 0.39971,-9.26759 -1.95597,-11.92115c-4.12974,-4.65195 -10.39744,-7.26097 -14.01692,-12.32006c-8.41048,-11.75552 -10.67185,-29.83415 -9.84908,-45.90345c-4.78528,6.87592 -9.66058,13.67911 -12.30493,21.58257c-2.35215,7.0301 -5.0778,15.86166 -6.08033,23.19762c-0.94451,6.91193 1.01179,17.05127 -3.50552,23.19574c-4.51708,6.14417 -14.62012,7.51887 -21.36985,8.61787l-4.83605,-1.5592c0,0 -4.36565,-3.17072 -1.19493,-7.5364c2.1432,-2.9509 4.83237,-2.4585 6.3502,-1.8295c3.9297,-0.50091 10.4696,-1.39976 12.31926,-4.03426c2.68115,-3.81865 0.95315,-14.12147 1.5368,-18.25399c1.11411,-7.88867 3.95834,-17.68925 6.56097,-25.26413c3.66144,-10.65656 10.99947,-19.17974 16.92383,-28.54858c-0.16808,-0.32914 -0.29418,-0.66302 -0.38836,-0.98492c-2.36737,0.02581 -4.8004,0.2346 -7.05568,-0.24924c-2.44597,-3.49095 -4.44512,-7.12735 -6.10304,-10.87494c-1.92428,2.72797 -4.13706,5.30532 -6.33699,8.33485c-12.24442,16.86162 -34.55849,40.33749 -56.53211,40.2372c0,0 -5.39423,-0.122 -5.27223,-5.51618c0.12195,-5.39417 5.51618,-5.27223 5.51618,-5.27223c17.52979,0.84006 38.02377,-22.66646 47.55688,-35.79024c3.46305,-4.7674 8.3015,-8.80975 9.47176,-14.82193c0.19327,-0.99293 0.34586,-1.98379 0.46393,-2.97288c-0.83127,-3.57836 -1.50328,-7.20882 -2.09249,-10.86664c-21.26,-1.47432 -50.45617,-6.30824 -61.85791,16.0565l-0.18996,2.83527c0,0 -0.88361,5.32276 -6.20637,4.43913c-5.32276,-0.88361 -4.43913,-6.20637 -4.43913,-6.20637l1.29517,-6.11097c14.38331,-26.48816 44.14435,-23.45445 69.82446,-21.88208c-1.62451,-11.97362 -3.17016,-23.97817 -7.25355,-35.16574c-4.89431,-13.40923 -27.66305,-25.50496 -40.17857,-30.78124c0,0 -4.96683,-2.10784 -2.85895,-7.07463c2.10786,-4.96684 7.07469,-2.85896 7.07469,-2.85896c15.68449,6.6955 39.52253,20.27434 46.03793,36.84928c1.74535,4.44023 2.72461,9.19684 3.36328,14.09052c0.4719,-1.7913 0.95414,-3.24873 1.37015,-3.7356c3.87974,-4.54133 10.55587,-5.67767 16.16297,-7.73596c1.34073,-0.49214 2.69416,-1.15686 4.04747,-1.95486c0.55162,-2.53318 1.4712,-5.01272 2.8909,-7.40688c4.32661,-7.29626 12.95899,-11.54782 20.77061,-15.63184c6.82965,-9.33693 13.34388,-23.2747 22.59054,-28.51601c8.55375,-4.84857 18.1874,2.20834 26.78323,2.87975l6.18601,2.95676c0,0 4.68911,2.66922 2.01989,7.3583zM188.6365,137.82707c-2.04658,2.4284 -1.06862,6.26208 -1.70428,9.37359c-1.18013,4.46633 -1.27873,9.00228 -1.02966,13.5797c5.86879,-0.46892 11.73956,-2.27979 17.49306,-2.95625c-0.36175,-2.74245 -0.78914,-5.57521 -1.25871,-8.53676c-0.78465,-4.94874 -1.95013,-10.12488 -2.48896,-15.28574c-4.98371,1.95185 -7.14972,-0.75679 -11.01151,3.82548zM227.07348,176.00468c-4.49965,-0.55376 -8.03833,-3.11145 -11.53667,-5.11294c0.22092,8.00688 -0.58521,15.5437 -2.66419,23.67347l0.38269,0.16304c-0.07172,2.35865 -0.14341,4.71722 -0.21507,7.07588c0.86907,1.18184 1.76037,2.34696 2.87732,3.19426c1.37314,1.04161 2.6801,1.9885 3.93012,2.88799c14.5757,-2.12338 33.35424,-13.4722 39.61214,-24.52868c1.59561,-2.81919 1.86452,-6.12493 1.34933,-9.64313c-11.09958,1.18589 -22.17535,3.71303 -33.73567,2.29023zM189.26796,182.59978c1.70628,5.88937 1.52632,11.41224 3.88897,17.08178c1.5743,0.0863 3.21086,-0.09946 4.83406,-0.23744l0.25064,-0.45214c0.11041,-0.01977 0.22097,-0.04142 0.33161,-0.06475c-0.53295,-0.95826 -0.78094,-2.23203 -0.35767,-3.90618c0.75693,-2.99387 2.79418,-3.84098 4.39824,-4.01803c1.84682,-7.87772 2.25233,-15.11399 1.81778,-22.69406c-5.68655,0.3316 -11.69287,2.179 -17.68187,2.94944c0.16456,2.14625 0.28414,4.29683 0.28539,6.44907c0.91005,1.56616 1.73275,3.1663 2.23278,4.89222zM214.46904,227.01097c-1.25193,-0.43061 -2.46956,-0.99525 -3.65416,-1.66143c-0.18236,12.58627 1.84033,25.94332 8.13672,34.74937c6.48509,9.06992 13.73464,9.15948 17.09039,20.54952c0.74581,2.5315 1.25357,5.36483 1.56874,8.3986c1.84432,-0.38447 3.36343,-0.94418 4.05798,-1.81495c2.44959,-3.07097 0.10634,-14.24658 -0.85356,-17.82044c-3.77955,-14.07147 -9.70539,-27.50746 -15.02022,-40.96509c-0.12617,-0.23326 -0.26475,-0.47619 -0.41495,-0.7276c-3.65567,-0.15941 -7.47534,0.47374 -10.91096,-0.70802z" fill="url(#color-34)" stroke="none" stroke-width="0.5"/><path d="M189.59086,337.7925c-20.40456,-4.4525 -15.47018,-18.04143 -26.47673,-29.82212c-3.95764,-4.23602 -12.65852,-5.58997 -17.23653,-7.33433c-14.30835,-5.45185 -14.73865,-5.22191 -24.72436,-18.60664c-10.83152,-14.51848 -3.74764,-30.35018 -14.45984,-42.59284c-11.21766,-10.89655 -25.12591,-37.27597 -20.79554,-54.31539c0.31864,-1.25383 12.4961,-13.40433 12.67315,-18.23165c0.26203,-7.14574 -6.22337,-13.20084 -6.86884,-20.32224c-1.52856,-16.86473 8.59184,-33.46497 14.01619,-48.11694c2.58131,-6.97241 -0.42692,-15.27653 2.32562,-22.18313c2.68969,-6.74883 10.72053,-12.16691 12.73099,-19.63144c1.30539,-4.84674 -0.90816,-10.72376 1.79906,-14.95052c9.11954,-14.23784 35.69519,-19.37867 50.798,-20.28576c8.2313,-2.54679 17.04126,-2.6636 25.62901,-3.3638c20.35192,-1.65935 33.80988,-15.31943 54.90131,-5.42421c11.05641,5.18722 20.24057,15.49261 20.78902,28.47734c0.15022,3.55727 -5.15202,5.35825 -6.04799,8.8041c-1.0723,4.12388 7.12957,4.66833 10.69795,6.99703c7.99111,5.21496 14.91422,12.99315 18.52173,21.82714c5.69068,13.93522 12.56399,36.22281 12.66242,51.2819c0.02385,3.653 -2.55511,7.08884 -2.23872,10.72821c0.3506,4.03259 13.44017,12.33463 13.48855,12.40291c4.04778,5.71525 5.917,12.69577 8.87548,19.04365c-3.23425,3.66524 -7.17099,6.81427 -9.70269,10.9957c-6.60406,10.90727 5.57752,29.13043 5.30612,40.22512c-0.25215,10.30923 -5.50693,22.40508 -11.38431,30.49214c-3.71239,5.10807 -10.15962,8.90229 -11.46502,15.08047c-3.2284,15.27929 5.23599,26.72319 -5.39458,41.49656c-3.92191,5.45029 -18.00138,14.69524 -28.03348,19.37018c-1.84423,3.46416 -5.42806,5.10486 -5.42806,5.10486c-10.19719,4.53932 -23.21707,19.11839 -35.06224,17.71495c-7.19865,-0.85291 -11.65626,-7.81115 -16.69474,-13.64013c-2.22763,0.83839 -4.39848,1.62209 -6.47569,2.276l-4.11731,1.29604c0,0 -8.68079,2.73261 -12.60799,-4.79303zM216.7938,314.65165c6.04929,-2.14387 12.15821,-4.03885 17.86889,-4.73007c7.91918,-0.95858 16.00078,2.61769 23.88839,1.4269c5.96504,-0.90056 10.15404,-7.06374 14.51592,-10.08875c2.47074,-1.71348 5.97113,-1.94734 8.00086,-4.16565c5.37443,-5.87395 -0.53504,-25.79835 1.31694,-33.02056c4.19415,-16.35598 14.95146,-18.86614 20.46747,-33.19788c7.38237,-19.18084 -19.49146,-49.70735 6.47672,-62.04433c-10.32744,-3.47643 -19.67454,-13.00029 -22.21273,-23.90881c-1.11805,-4.80507 1.81574,-9.75346 1.82835,-14.68687c0.0268,-10.47637 -5.64728,-23.88041 -8.15383,-33.99957c-0.13504,-0.54517 -4.69091,-15.6568 -5.97993,-17.12197c-4.81,-5.46734 -13.87699,-6.01757 -18.46753,-11.67044c-4.21429,-5.18951 -8.52337,-11.13678 -9.28084,-17.7789c-0.44577,-3.90917 5.053,-6.31212 6.10094,-10.10447c1.01654,-3.67851 -5.1951,-5.87061 -8.64079,-7.51131c-10.42623,-4.96445 -18.88513,2.15202 -29.11492,4.67638c-13.31958,3.28679 -25.1629,1.74464 -38.11902,5.89821c-12.25655,0.73608 -19.11623,3.17913 -30.25346,7.90739c-1.93794,0.82276 -5.03827,0.28934 -5.92004,2.20115c-1.34194,2.90955 1.33019,6.51208 0.47689,9.60052c-2.27347,8.22815 -10.07448,13.95284 -13.44768,21.79463c-2.83548,6.59158 0.25013,14.63124 -2.04693,21.42922c-3.73018,11.0395 -14.67207,26.1719 -12.92615,38.80221c1.20489,8.7161 7.853,13.91604 6.9559,23.59555c-0.58014,6.25918 -3.77057,12.10485 -6.93361,17.53703c-1.45449,2.49795 -5.54105,2.95693 -6.572,5.65736c-0.73773,1.93238 1.5358,3.84346 2.19665,5.80348c4.08192,12.10707 4.01405,19.44532 13.75593,27.86939c3.24187,4.39022 7.72329,8.0938 9.7255,13.1707c4.88114,12.3772 -2.04471,20.34882 6.20897,31.20795c10.73222,14.12002 27.67448,11.13117 40.02718,23.67153c3.49095,3.544 5.6412,8.21725 8.01353,12.58972c2.00676,3.69861 2.00167,11.39306 6.19129,11.00124c7.93571,-0.74217 16.72171,-4.43806 24.0533,-1.81088z" fill="url(#color-35)" stroke="none" stroke-width="0.5"/><g stroke="none" stroke-width="0.5"><path d="M94.24477,196.91832c-0.88659,-5.59167 3.89151,-7.06919 5.10563,-7.35212c3.65564,-1.77541 13.53333,-6.59985 15.40891,-6.82399c12.92067,-1.54406 25.16751,6.18449 37.09875,9.11115c9.25755,1.60771 18.36451,0.72407 27.39068,-1.31651c-0.10342,-0.24345 -0.20683,-0.48689 -0.3101,-0.73039c-3.05507,-1.30843 -6.05823,-2.63482 -8.99528,-3.94271c-3.78656,-2.64814 -8.25004,-4.52666 -11.35966,-7.94444c-9.87518,-10.85397 -8.67294,-28.48345 -17.09811,-40.97569c-5.09757,-7.55831 -14.29289,-12.27612 -22.52393,-15.53312l-4.13353,-1.28768c0,0 -6.17313,-1.95294 -4.22016,-8.12612c1.95294,-6.17313 8.12612,-4.22016 8.12612,-4.22016l5.06887,1.62364c15.20994,6.22469 25.90519,14.72792 33.71555,29.45485c6.8668,12.94777 4.77684,23.85408 15.0455,32.89966c-4.27734,-16.41915 -5.49998,-34.20236 -8.05543,-50.8044c-1.65421,-10.74662 4.69535,-23.58583 0.68069,-33.56487c-6.80127,-16.9055 -20.88006,-23.74056 -5.99474,-41.95295c0,0 4.19542,-4.93153 9.12697,-0.73606c4.93153,4.19542 0.73606,9.12697 0.73606,9.12697c-11.42061,12.62323 9.90982,26.09727 10.17348,41.16445c0.10885,6.21848 -2.76185,12.21803 -2.86791,18.43652c-0.38732,22.7067 6.65353,45.41414 13.91733,67.14957c0.09458,0.03859 0.18914,0.07711 0.2838,0.11568c1.31158,-6.14567 4.14788,-11.92414 7.37002,-17.23001c0.09202,-0.10872 0.2227,-0.26393 0.38619,-0.45828c2.81561,-17.32681 4.38329,-34.48642 -3.06685,-51.7488c-4.58544,-10.62467 -12.70472,-22.25206 -10.49332,-35.1212c1.50619,-8.76523 11.032,-14.96495 17.17504,-19.95828c6.32154,-5.13844 12.24519,-10.49402 18.52671,-15.49909c-0.47249,-0.93759 -0.73075,-2.13379 -0.59656,-3.65897c0.56729,-6.44978 7.01712,-5.88251 7.01712,-5.88251l4.10844,1.88187c0.53078,-0.32338 5.57498,-3.20439 8.91,1.93654c2.49804,3.85071 0.4953,6.7425 -0.88229,8.09975c0.81447,2.31818 1.20808,4.81603 0.83736,8.03147c-1.43853,12.47689 -13.1499,20.25455 -12.65177,33.71843c0.64662,17.47676 10.06201,33.13589 16.15469,49.39053c4.78127,-7.63451 8.22152,-16.24735 15.40497,-22.13851c6.79334,-5.57122 14.19105,-6.82796 22.49785,-8.1574l0.71054,-0.11266c0,0 6.39481,-1.01393 7.40874,5.38088c1.01393,6.39481 -5.38088,7.40874 -5.38088,7.40874l-0.71054,0.11266c-20.56879,3.22718 -22.97548,19.28993 -35.6299,32.59269c0.04177,0.23855 0.08209,0.47743 0.121,0.71652c1.2735,8.22805 0.04402,16.32365 -1.57572,24.38086c0.17004,0.00875 0.34006,0.01822 0.51017,0.02849c25.99478,1.56947 37.49269,34.78872 59.35702,44.65943c0,0 5.88325,2.70355 3.17968,8.58681c-2.70355,5.88325 -8.58681,3.17968 -8.58681,3.17968c-9.13928,-4.26067 -19.31171,-10.54165 -25.97819,-18.30429c-6.97145,-8.11776 -15.87505,-24.87337 -29.16686,-25.22749c-0.63987,-0.01707 -1.28302,-0.01443 -1.92896,0.0063c-0.30457,1.7112 -0.57555,3.42294 -0.79264,5.13616c14.37859,7.60248 18.57905,21.06472 30.33849,30.86466c14.78734,12.32333 25.20748,16.06963 28.53401,36.87373c0,0 1.01393,6.39481 -5.38088,7.40874c-6.39481,1.01393 -7.40874,-5.38088 -7.40874,-5.38088c-2.72378,-17.34104 -11.67897,-18.4803 -24.16824,-29.06665c-8.87597,-7.52359 -13.40241,-17.46537 -21.79661,-24.82865c0.20808,1.17376 0.46972,2.34948 0.79131,3.52744c3.06732,11.23564 5.80711,25.23736 11.1552,35.47863c6.79864,13.01881 17.47763,20.50679 17.01954,36.78339c-0.35743,12.70045 -4.30727,23.24519 -9.32335,34.6433c0,0 -2.62272,5.91975 -8.54241,3.29699c-5.91975,-2.62272 -3.29699,-8.54241 -3.29699,-8.54241c4.32806,-9.69662 7.79534,-18.51532 8.21362,-29.3227c0.5219,-13.48404 -9.92044,-19.97797 -15.5624,-30.89036c-5.68206,-10.98993 -9.07237,-25.94515 -12.15518,-38.03554c-1.08069,-4.23847 -1.47677,-8.39657 -1.43639,-12.50048c-1.9745,0.27736 -4.04822,0.73889 -6.65509,0.44184c-3.79312,-0.43214 -7.60497,-1.12046 -11.41263,-2.00604c3.93288,13.2166 10.57341,25.29525 14.07818,39.93206c5.42455,22.65459 -1.36844,46.1236 4.15094,69.00519c0.9833,0.83478 4.49729,4.30239 1.19376,8.85093c-3.80486,5.23877 -9.04364,1.43391 -9.04364,1.43391l-4.08527,-4.72062c-6.48103,-23.74419 1.03376,-48.35634 -4.81357,-71.57223c-2.64572,-10.50442 -6.53668,-19.71308 -9.98078,-28.91987c-0.17193,3.45048 -0.59621,6.88467 -1.48073,10.27713c0.59417,7.11643 0.23278,14.28668 -1.81075,21.52976c-2.12227,7.52206 -5.19633,13.41925 -5.50329,21.76367c-0.66737,18.14029 16.02766,36.55797 18.99302,54.93869l0.22532,1.42107c0,0 1.01393,6.39481 -5.38088,7.40874c-6.39481,1.01393 -7.40874,-5.38088 -7.40874,-5.38088l-0.22532,-1.42107c-3.08048,-19.8323 -19.68415,-36.92627 -19.15269,-57.01356c0.18612,-7.03439 2.0471,-12.98835 4.03522,-19.09322c-4.53468,3.99522 -9.60091,7.24584 -14.55215,8.66318c-1.81879,0.52064 -12.02186,0.49528 -14.35841,0.85617c-10.25854,1.5845 -19.64762,6.90111 -27.63402,13.06721c0,0 -5.14975,3.92451 -9.07428,-1.22526c-3.92451,-5.14975 1.22526,-9.07428 1.22526,-9.07428c8.8016,-6.63385 15.66634,-10.0598 26.12671,-13.58219c6.8986,-2.32307 13.66902,-0.84582 20.35083,-2.54647c7.24586,-1.84423 15.45333,-11.52264 19.1748,-17.5695c0.79145,-1.28591 1.45722,-2.57026 2.01451,-3.85445c-0.8362,-7.14983 -2.79842,-14.24268 -4.62512,-21.20424c-0.03281,-0.10275 -0.06581,-0.20536 -0.099,-0.30787c-11.79068,2.29847 -23.83847,3.44704 -34.84291,1.68173c-9.79191,-2.53468 -22.2714,-10.05948 -32.77682,-8.94561c-4.5344,0.48078 -8.16437,4.06402 -12.27267,6.04233l-2.50532,0.67371c0,0 -6.39481,1.01393 -7.40874,-5.38088zM226.25397,161.41964c-3.63573,0.6381 -7.96191,-0.88133 -11.00831,1.20311c-2.05934,1.40908 -3.40687,3.58009 -4.81621,5.69402c-0.56087,3.66675 -1.19001,7.43784 -1.84953,11.3718c-0.01264,0.59788 -0.01659,1.19111 -0.01232,1.77999c8.4509,-2.8165 16.89754,-5.36654 25.39893,-6.52008c0.97139,-5.28779 1.70545,-10.58597 1.62537,-15.95518c-2.29096,1.06235 -4.91846,1.65074 -9.33791,2.42637zM230.97925,190.46478c0.05597,-0.33688 0.11326,-0.67357 0.17168,-1.01008c-1.15463,0.32326 -2.30861,0.67092 -3.4593,1.03445c1.08982,0.01308 2.18928,-0.00754 3.28755,-0.0244zM230.14268,147.24672c1.22136,-0.62617 2.35349,-1.31731 3.40933,-2.06397c-5.27973,-20.02645 -18.84047,-38.44813 -19.28474,-59.81447c-0.23835,-11.46318 8.14865,-21.62314 10.59019,-31.61188c-4.92398,4.09471 -9.69391,8.36007 -14.74877,12.46066c-2.96792,2.40764 -12.14665,7.66257 -12.6496,12.44965c-1.39139,13.24236 9.42794,26.15787 12.29155,38.3006c2.83415,12.01783 3.41487,22.47016 2.77978,32.9531c5.85855,-1.48801 12.04293,0.18147 17.6123,-2.67372z" fill="url(#color-36)"/><path d="M146.44416,42.3842c1.13486,-7.83905 9.06435,-7.82151 9.06435,-7.82151l3.76093,0.00829c1.89743,0.00421 3.90847,0.09842 5.98171,0.22581c2.52701,-6.63061 4.25846,-14.10992 9.96113,-16.88866c9.38352,-4.57232 24.21005,4.84018 33.8968,6.05134c0,0 3.41709,0.46625 5.90888,3.05248c9.58844,1.37877 23.79656,5.71762 28.55899,9.50102c12.9089,10.25524 9.12602,22.8733 16.06722,35.65351c2.80668,5.1677 9.18983,6.76114 13.68361,10.29672c7.11439,5.59752 14.837,14.9596 17.93066,24.12172c3.32934,9.86025 -1.62403,29.59013 6.87949,37.51c3.25993,3.03623 7.39049,4.75448 11.08578,7.13176c-0.66502,6.51314 -0.25389,13.28794 -1.99504,19.53939c-0.02081,0.07466 -8.50049,11.17355 -7.66112,14.88323c0.75752,3.34791 3.8477,5.70312 4.8505,8.98136c4.13375,13.5142 4.69914,35.39835 3.9028,49.47129c-0.50484,8.92124 -4.04164,17.82506 -9.17742,24.73214c-2.29333,3.08431 -8.91032,5.86764 -6.87106,9.26075c1.70395,2.8353 6.58425,2.96407 7.45589,6.192c3.18175,11.78237 -1.51389,23.58231 -9.18737,31.32254c-14.63809,14.76542 -29.56897,6.29854 -46.83072,10.50896c-7.28385,1.77662 -14.5878,4.13788 -22.09428,4.16093c-12.71891,3.41493 -36.09191,6.24933 -47.6038,-3.94926c-3.41747,-3.02764 -3.23549,-8.91057 -5.66949,-12.88583c-3.74865,-6.12236 -11.89333,-8.72686 -16.00226,-14.01814c-4.20494,-5.41502 -4.04642,-13.69399 -8.12846,-19.21586c-8.57807,-11.60377 -21.57725,-23.63794 -25.03605,-39.1695c-1.46052,-6.55844 2.19736,-13.79646 -0.01897,-20.12275c-1.49728,-4.27372 -14.94877,-11.74704 -15.56272,-12.78074c-8.34341,-14.04811 -4.24778,-41.56588 1.96075,-54.46443c5.41456,-13.96257 -4.86338,-26.15843 0.0127,-42.19262c4.49533,-14.78209 4.9148,-14.69664 15.19817,-23.58406c3.29019,-2.84357 10.09247,-6.49149 12.17323,-11.39294c5.78682,-13.63124 -2.08929,-24.42012 13.50526,-34.11888zM175.3731,55.49456c-5.31573,4.40496 -13.60177,3.55415 -20.35917,5.11068c-3.56756,0.82182 -1.40971,7.71133 -2.03075,11.58544c-0.73414,4.57989 -1.2008,9.36699 -3.09009,13.51809c-6.68522,14.68843 -21.50502,16.75377 -26.41063,32.4033c-3.7727,12.03539 4.17478,17.23616 3.61046,29.68713c-0.23147,5.10719 -2.89361,9.67837 -4.34047,14.51754c-5.68251,10.27119 -3.57255,16.8242 -3.55279,28.80955c0.00321,1.94033 -1.33839,4.28816 -0.18858,5.81229c1.60673,2.12991 5.10801,1.39714 7.00764,3.22712c4.13107,3.97962 8.40049,8.32197 10.63124,13.76514c3.44972,8.4177 -0.58178,14.93547 0.86333,23.07869c2.09421,11.80014 15.36056,22.28982 21.52917,31.13251c3.79863,5.44522 3.50221,13.50905 7.68746,18.61868c4.97895,6.07881 13.01986,9.02221 17.19929,15.75484c1.56871,2.52707 0.3716,6.50138 2.29355,8.73152c1.26285,1.46536 3.67245,0.11986 5.50221,0.31434c10.51549,1.11725 16.86087,1.38519 27.18279,-1.38617c11.85582,0.09348 21.19904,-4.60258 33.11223,-5.38712c9.14966,-0.60257 18.12312,3.40324 25.33883,-3.96113c2.38467,-2.43382 6.89782,-6.13568 5.02919,-9.14554c-1.9264,-3.10303 -7.13737,-3.71592 -7.86363,-7.34169c-1.23392,-6.16058 0.65796,-12.69297 2.68364,-18.5201c2.20656,-6.34748 9.53596,-9.37808 11.97556,-15.6209c0.65377,-1.67297 0.18426,-16.48183 0.14311,-17.00783c-0.76353,-9.7641 0.16775,-23.3567 -2.78671,-32.73163c-1.39128,-4.41473 -5.1977,-8.02525 -5.61987,-12.64152c-0.95841,-10.47988 4.09048,-21.62555 11.64115,-27.62956c-24.88583,-3.78032 -11.24993,-38.6412 -22.71164,-53.7529c-8.56408,-11.29129 -18.14516,-10.52841 -26.18478,-24.00255c-3.54998,-5.94968 -4.24946,-25.44769 -10.32929,-29.20399c-2.29613,-1.41858 -5.2506,-0.64827 -7.76941,-1.49128c-4.44673,-1.48821 -9.62916,-5.83538 -14.80443,-4.97229c-6.8433,1.14125 -12.51243,6.60614 -19.31682,7.96426c-4.90673,0.97938 -10.47913,0.9921 -16.07191,0.7653z" data-paper-data="{&quot;index&quot;:null}" fill="url(#color-37)"/></g><path d="M146.44416,42.3842c1.13486,-7.83905 9.06435,-7.82151 9.06435,-7.82151l3.76093,0.00829c1.89743,0.00421 3.90847,0.09842 5.98171,0.22581c2.52701,-6.63061 4.25846,-14.10992 9.96113,-16.88866c9.38352,-4.57232 24.21005,4.84018 33.8968,6.05134c0,0 3.41709,0.46625 5.90888,3.05248c9.58844,1.37877 23.79656,5.71762 28.55899,9.50102c12.9089,10.25524 9.12602,22.8733 16.06722,35.65351c2.80668,5.1677 9.18983,6.76114 13.68361,10.29672c7.11439,5.59752 14.837,14.9596 17.93066,24.12172c3.32934,9.86025 -1.62403,29.59013 6.87949,37.51c3.25993,3.03623 7.39049,4.75448 11.08578,7.13176c-0.66502,6.51314 -0.25389,13.28794 -1.99504,19.53939c-0.02081,0.07466 -8.50049,11.17355 -7.66112,14.88323c0.75752,3.34791 3.8477,5.70312 4.8505,8.98136c4.13375,13.5142 4.69914,35.39835 3.9028,49.47129c-0.50484,8.92124 -4.04164,17.82506 -9.17742,24.73214c-2.29333,3.08431 -8.91032,5.86764 -6.87106,9.26075c1.70395,2.8353 6.58425,2.96407 7.45589,6.192c3.18175,11.78237 -1.51389,23.58231 -9.18737,31.32254c-14.63809,14.76542 -29.56897,6.29854 -46.83072,10.50896c-7.28385,1.77662 -14.5878,4.13788 -22.09428,4.16093c-12.71891,3.41493 -36.09191,6.24933 -47.6038,-3.94926c-3.41747,-3.02764 -3.23549,-8.91057 -5.66949,-12.88583c-3.74865,-6.12236 -11.89333,-8.72686 -16.00226,-14.01814c-4.20494,-5.41502 -4.04642,-13.69399 -8.12846,-19.21586c-8.57807,-11.60377 -21.57725,-23.63794 -25.03605,-39.1695c-1.46052,-6.55844 2.19736,-13.79646 -0.01897,-20.12275c-1.49728,-4.27372 -14.94877,-11.74704 -15.56272,-12.78074c-8.34341,-14.04811 -4.24778,-41.56588 1.96075,-54.46443c5.41456,-13.96257 -4.86338,-26.15843 0.0127,-42.19262c4.49533,-14.78209 4.9148,-14.69664 15.19817,-23.58406c3.29019,-2.84357 10.09247,-6.49149 12.17323,-11.39294c5.78682,-13.63124 -2.08929,-24.42012 13.50526,-34.11888zM175.3731,55.49456c-5.31573,4.40496 -13.60177,3.55415 -20.35917,5.11068c-3.56756,0.82182 -1.40971,7.71133 -2.03075,11.58544c-0.73414,4.57989 -1.2008,9.36699 -3.09009,13.51809c-6.68522,14.68843 -21.50502,16.75377 -26.41063,32.4033c-3.7727,12.03539 4.17478,17.23616 3.61046,29.68713c-0.23147,5.10719 -2.89361,9.67837 -4.34047,14.51754c-5.68251,10.27119 -3.57255,16.8242 -3.55279,28.80955c0.00321,1.94033 -1.33839,4.28816 -0.18858,5.81229c1.60673,2.12991 5.10801,1.39714 7.00764,3.22712c4.13107,3.97962 8.40049,8.32197 10.63124,13.76514c3.44972,8.4177 -0.58178,14.93547 0.86333,23.07869c2.09421,11.80014 15.36056,22.28982 21.52917,31.13251c3.79863,5.44522 3.50221,13.50905 7.68746,18.61868c4.97895,6.07881 13.01986,9.02221 17.19929,15.75484c1.56871,2.52707 0.3716,6.50138 2.29355,8.73152c1.26285,1.46536 3.67245,0.11986 5.50221,0.31434c10.51549,1.11725 16.86087,1.38519 27.18279,-1.38617c11.85582,0.09348 21.19904,-4.60258 33.11223,-5.38712c9.14966,-0.60257 18.12312,3.40324 25.33883,-3.96113c2.38467,-2.43382 6.89782,-6.13568 5.02919,-9.14554c-1.9264,-3.10303 -7.13737,-3.71592 -7.86363,-7.34169c-1.23392,-6.16058 0.65796,-12.69297 2.68364,-18.5201c2.20656,-6.34748 9.53596,-9.37808 11.97556,-15.6209c0.65377,-1.67297 0.18426,-16.48183 0.14311,-17.00783c-0.76353,-9.7641 0.16775,-23.3567 -2.78671,-32.73163c-1.39128,-4.41473 -5.1977,-8.02525 -5.61987,-12.64152c-0.95841,-10.47988 4.09048,-21.62555 11.64115,-27.62956c-24.88583,-3.78032 -11.24993,-38.6412 -22.71164,-53.7529c-8.56408,-11.29129 -18.14516,-10.52841 -26.18478,-24.00255c-3.54998,-5.94968 -4.24946,-25.44769 -10.32929,-29.20399c-2.29613,-1.41858 -5.2506,-0.64827 -7.76941,-1.49128c-4.44673,-1.48821 -9.62916,-5.83538 -14.80443,-4.97229c-6.8433,1.14125 -12.51243,6.60614 -19.31682,7.96426c-4.90673,0.97938 -10.47913,0.9921 -16.07191,0.7653z" data-paper-data="{&quot;index&quot;:null}" fill="url(#color-38)" stroke="none" stroke-width="0.5"/><path d="M189.59086,337.7925c-20.40456,-4.4525 -15.47018,-18.04143 -26.47673,-29.82212c-3.95764,-4.23602 -12.65852,-5.58997 -17.23653,-7.33433c-14.30835,-5.45185 -14.73865,-5.22191 -24.72436,-18.60664c-10.83152,-14.51848 -3.74764,-30.35018 -14.45984,-42.59284c-11.21766,-10.89655 -25.12591,-37.27597 -20.79554,-54.31539c0.31864,-1.25383 12.4961,-13.40433 12.67315,-18.23165c0.26203,-7.14574 -6.22337,-13.20084 -6.86884,-20.32224c-1.52856,-16.86473 8.59184,-33.46497 14.01619,-48.11694c2.58131,-6.97241 -0.42692,-15.27653 2.32562,-22.18313c2.68969,-6.74883 10.72053,-12.16691 12.73099,-19.63144c1.30539,-4.84674 -0.90816,-10.72376 1.79906,-14.95052c9.11954,-14.23784 35.69519,-19.37867 50.798,-20.28576c8.2313,-2.54679 17.04126,-2.6636 25.62901,-3.3638c20.35192,-1.65935 33.80988,-15.31943 54.90131,-5.42421c11.05641,5.18722 20.24057,15.49261 20.78902,28.47734c0.15022,3.55727 -5.15202,5.35825 -6.04799,8.8041c-1.0723,4.12388 7.12957,4.66833 10.69795,6.99703c7.99111,5.21496 14.91422,12.99315 18.52173,21.82714c5.69068,13.93522 12.56399,36.22281 12.66242,51.2819c0.02385,3.653 -2.55511,7.08884 -2.23872,10.72821c0.3506,4.03259 13.44017,12.33463 13.48855,12.40291c4.04778,5.71525 5.917,12.69577 8.87548,19.04365c-3.23425,3.66524 -7.17099,6.81427 -9.70269,10.9957c-6.60406,10.90727 5.57752,29.13043 5.30612,40.22512c-0.25215,10.30923 -5.50693,22.40508 -11.38431,30.49214c-3.71239,5.10807 -10.15962,8.90229 -11.46502,15.08047c-3.2284,15.27929 5.23599,26.72319 -5.39458,41.49656c-3.92191,5.45029 -18.00138,14.69524 -28.03348,19.37018c-1.84423,3.46416 -5.42806,5.10486 -5.42806,5.10486c-10.19719,4.53932 -23.21707,19.11839 -35.06224,17.71495c-7.19865,-0.85291 -11.65626,-7.81115 -16.69474,-13.64013c-2.22763,0.83839 -4.39848,1.62209 -6.47569,2.276l-4.11731,1.29604c0,0 -8.68079,2.73261 -12.60799,-4.79303zM216.7938,314.65165c6.04929,-2.14387 12.15821,-4.03885 17.86889,-4.73007c7.91918,-0.95858 16.00078,2.61769 23.88839,1.4269c5.96504,-0.90056 10.15404,-7.06374 14.51592,-10.08875c2.47074,-1.71348 5.97113,-1.94734 8.00086,-4.16565c5.37443,-5.87395 -0.53504,-25.79835 1.31694,-33.02056c4.19415,-16.35598 14.95146,-18.86614 20.46747,-33.19788c7.38237,-19.18084 -19.49146,-49.70735 6.47672,-62.04433c-10.32744,-3.47643 -19.67454,-13.00029 -22.21273,-23.90881c-1.11805,-4.80507 1.81574,-9.75346 1.82835,-14.68687c0.0268,-10.47637 -5.64728,-23.88041 -8.15383,-33.99957c-0.13504,-0.54517 -4.69091,-15.6568 -5.97993,-17.12197c-4.81,-5.46734 -13.87699,-6.01757 -18.46753,-11.67044c-4.21429,-5.18951 -8.52337,-11.13678 -9.28084,-17.7789c-0.44577,-3.90917 5.053,-6.31212 6.10094,-10.10447c1.01654,-3.67851 -5.1951,-5.87061 -8.64079,-7.51131c-10.42623,-4.96445 -18.88513,2.15202 -29.11492,4.67638c-13.31958,3.28679 -25.1629,1.74464 -38.11902,5.89821c-12.25655,0.73608 -19.11623,3.17913 -30.25346,7.90739c-1.93794,0.82276 -5.03827,0.28934 -5.92004,2.20115c-1.34194,2.90955 1.33019,6.51208 0.47689,9.60052c-2.27347,8.22815 -10.07448,13.95284 -13.44768,21.79463c-2.83548,6.59158 0.25013,14.63124 -2.04693,21.42922c-3.73018,11.0395 -14.67207,26.1719 -12.92615,38.80221c1.20489,8.7161 7.853,13.91604 6.9559,23.59555c-0.58014,6.25918 -3.77057,12.10485 -6.93361,17.53703c-1.45449,2.49795 -5.54105,2.95693 -6.572,5.65736c-0.73773,1.93238 1.5358,3.84346 2.19665,5.80348c4.08192,12.10707 4.01405,19.44532 13.75593,27.86939c3.24187,4.39022 7.72329,8.0938 9.7255,13.1707c4.88114,12.3772 -2.04471,20.34882 6.20897,31.20795c10.73222,14.12002 27.67448,11.13117 40.02718,23.67153c3.49095,3.544 5.6412,8.21725 8.01353,12.58972c2.00676,3.69861 2.00167,11.39306 6.19129,11.00124c7.93571,-0.74217 16.72171,-4.43806 24.0533,-1.81088z" fill="url(#color-39)" stroke="none" stroke-width="0.5"/><g><path d="M161.71607,213.04332l-7.16511,-45.19002l5.11586,-0.81115l7.16511,45.19002z" fill="url(#color-40)" stroke="none" stroke-width="0"/><path d="M255.79092,198.12728l-7.16511,-45.19002l5.11586,-0.81115l7.16511,45.19002z" fill="url(#color-41)" stroke="none" stroke-width="0"/><path d="M130.46911,179.29557l-1.42374,-8.97948l150.28831,-23.82897l1.42374,8.97948z" fill="url(#color-42)" stroke="none" stroke-width="0"/><g stroke-width="0"><path d="M273.84859,152.66093c2.02719,12.78538 -6.23677,24.72086 -18.45814,26.65862c-12.22135,1.93776 -23.77202,-6.85603 -25.7992,-19.6414c-2.02719,-12.78538 6.23677,-24.72086 18.4581,-26.65861c12.22135,-1.93776 23.77205,6.85595 25.79924,19.64139z" fill="url(#color-43)" stroke="none"/><g stroke="#a70000"><path d="M260.75344,155.07625c0.81033,5.11069 -2.56683,9.89337 -7.54308,10.68238c-4.97626,0.78901 -9.66721,-2.71444 -10.47753,-7.82512c-0.81033,-5.11069 2.56679,-9.89344 7.54306,-10.68245c4.97626,-0.78901 9.66722,2.7145 10.47754,7.82519z" fill="#960000"/><path d="M258.60255,155.41728c0.6169,3.89075 -1.95408,7.5317 -5.74247,8.13237c-3.78836,0.60066 -7.35953,-2.06647 -7.97642,-5.95717c-0.6169,-3.89075 1.95405,-7.53176 5.74244,-8.13242c3.78836,-0.60066 7.35955,2.06651 7.97645,5.95723z" fill="#000000"/></g><path d="M273.84859,152.66093c0.0149,0.09397 -12.03405,-3.4585 -23.15554,-1.61751c-10.98245,1.81799 -21.0387,9.03282 -21.10182,8.63473c-2.02719,-12.78538 6.23677,-24.72086 18.4581,-26.65861c12.22135,-1.93776 23.77205,6.85595 25.79924,19.64139z" fill="url(#color-44)" stroke="none"/></g><path d="M203.52354,265.20446l-0.73189,-4.74366l32.57744,-5.02617l0.73184,4.74367z" fill="url(#color-45)" stroke="none" stroke-width="0"/><path d="M232.81136,261.96985l-8.49368,-54.58236l5.69853,-0.86824l8.49368,54.58236z" fill="url(#color-46)" stroke="none" stroke-width="0"/><path d="M202.12669,266.64496l-8.49367,-54.5823l5.69853,-0.86827l8.49368,54.58236z" fill="url(#color-47)" stroke="none" stroke-width="0"/><g stroke="none" stroke-width="0"><path d="M215.44701,303.60633l-7.06501,-45.79204l21.82072,-3.36656l7.06507,45.79203z" fill="url(#color-48)"/><path d="M215.44701,303.60633l-0.88951,-5.76542l21.82071,-3.36662l0.88951,5.76542z" fill="#494949"/></g><path d="M144.3085,213.20377l134.47297,-21.03053l2.11475,13.27396l-134.48927,21.02948z" fill="url(#color-49)" stroke="none" stroke-width="0"/><g><path d="M173.74798,242.12293c-2.02393,0.74947 -2.7734,-1.27446 -2.7734,-1.27446l-0.55884,-1.52574c-2.93346,-10.14014 0.49572,-18.83391 -6.4408,-27.15453c-5.09607,-9.15665 -2.47746,-13.62583 -3.5487,-22.88746c-0.57224,-4.9475 -4.63568,-8.69506 -5.88794,-13.32037c-1.34433,-4.96529 1.65013,-8.6134 2.01839,-13.32553c0,0 0.18912,-2.14993 2.33904,-1.9608c2.14993,0.18912 1.9608,2.33904 1.9608,2.33904c-0.37639,3.93678 -3.26677,7.84015 -2.15426,11.81019c1.34012,4.78225 5.47416,8.71295 6.00797,13.92941c0.90026,8.79786 -1.86965,12.46521 2.82268,20.97165c7.55028,8.94948 3.95982,17.78878 7.02922,28.39884l0.46025,1.22628c0,0 0.7494,2.02395 -1.27446,2.7734z" fill="url(#color-50)" stroke="none" stroke-width="0.5"/><path d="M167.38182,241.42659c-2.1316,0.33798 -2.46958,-1.79363 -2.46958,-1.79363l-0.27038,-1.70529c-1.43109,-9.79927 5.8952,-16.16051 4.36671,-25.74924c-1.64043,-10.59774 -9.19195,-16.38773 -15.24718,-24.24428c-4.31853,-5.60325 -4.94517,-15.72106 -5.2726,-22.56595c0,0 -0.10051,-2.15587 2.05541,-2.2564c2.15587,-0.10051 2.2564,2.05541 2.2564,2.05541c0.22911,5.05824 0.63042,13.25609 3.02673,17.83618c5.3846,10.29147 15.3884,15.79762 17.44449,28.4991c1.54885,9.82509 -6.00803,16.4246 -4.36671,25.74924l0.27038,1.70529c0,0 0.33798,2.1316 -1.79363,2.46958z" fill="url(#color-51)" stroke="none" stroke-width="0.5"/><g stroke-width="0"><path d="M186.83886,243.37555c2.02719,12.78538 -6.23677,24.72086 -18.45814,26.65862c-12.22135,1.93776 -23.77201,-6.85596 -25.7992,-19.6414c-2.02719,-12.78538 6.23677,-24.72086 18.4581,-26.65861c12.22135,-1.93776 23.77206,6.85602 25.79924,19.64139z" fill="url(#color-52)" stroke="none"/><g stroke="#a70000"><path d="M169.96592,256.87881c0.81033,5.11069 -2.5668,9.89337 -7.54308,10.68238c-4.97626,0.78901 -9.66721,-2.71444 -10.47753,-7.82512c-0.81033,-5.11069 2.5668,-9.89337 7.54308,-10.68238c4.97626,-0.78901 9.66721,2.71444 10.47753,7.82512z" fill="#960000"/><path d="M167.81511,257.21983c0.6169,3.89075 -1.95406,7.5317 -5.74245,8.13237c-3.78836,0.60066 -7.35953,-2.06647 -7.97642,-5.95717c-0.6169,-3.89075 1.95405,-7.53176 5.74244,-8.13242c3.78836,-0.60066 7.35953,2.06651 7.97643,5.95723z" fill="#000000"/></g></g></g><path d="M180.05793,167.53191c0.0149,0.09397 -11.58342,-0.61638 -22.7049,1.22463c-10.98245,1.81799 -21.48933,6.1907 -21.55245,5.7926c-2.02719,-12.78538 6.23677,-24.72086 18.4581,-26.65861c12.22135,-1.93776 23.77205,6.85595 25.79924,19.64139z" fill="url(#color-53)" stroke="none" stroke-width="0"/></g><path d="M106.72288,139.3804c-2.23281,-4.53721 2.71817,-6.71973 2.71817,-6.71973l3.23303,-1.33057c19.65322,-13.01018 36.11255,-28.18067 60.86906,-32.17017c1.02275,0.0859 2.0839,0.21514 3.16929,0.35894c0.19846,-1.65895 0.21091,-3.22754 -0.04294,-4.64367c-1.7942,-10.00979 -9.36824,-16.2536 -13.23475,-24.99993c-6.32803,-14.31451 5.02655,-31.73475 15.71849,-41.44856c0,0 3.9513,-3.54367 7.67762,0.03291c3.7263,3.57659 -0.22498,7.1203 -0.22498,7.1203c-7.10902,6.27518 -18.01075,20.50612 -13.07232,30.35665c4.66981,9.31468 12.33133,16.53477 13.92199,27.50068c0.3358,2.31508 0.3868,4.63057 0.23014,6.9483c1.18713,-0.07761 2.34793,-0.2499 3.46403,-0.55394c4.53791,-1.23609 8.17025,-3.56912 11.48621,-6.26746c0.98974,-13.82194 -9.55783,-25.7594 -5.65285,-39.74799c2.0134,-7.21251 8.9797,-14.70457 13.33826,-20.8721c0,0 3.01015,-4.25834 7.53089,-1.57213c4.52074,2.68621 1.51058,6.94462 1.51058,6.94462c-3.65544,5.16997 -10.24836,11.8936 -11.90021,17.90909c-2.62028,9.54239 2.54068,18.96029 4.88044,28.78093c2.05178,-1.68219 4.21308,-3.21747 6.62841,-4.42668c6.97689,-3.49287 15.77279,-0.50371 21.81839,-6.73825c5.36017,-5.52774 14.09152,-19.13895 10.81727,-25.65321c0,0 -1.82544,-4.69878 3.28983,-6.50749c5.11526,-1.80867 6.94067,2.89007 6.94067,2.89007c4.23387,12.7373 -7.05948,34.26392 -20.39562,40.93862c-5.27177,2.63849 -12.92829,1.48362 -17.57896,3.94653c-3.81178,2.01863 -7.51776,6.85802 -11.18644,9.91557c-3.96838,19.9125 -10.24864,31.47252 0.31656,50.62392c5.7485,8.12663 11.8586,14.47175 11.1134,24.972c-0.49064,6.91451 -6.16055,17.35953 -4.22265,24.10147c3.42502,11.91517 9.39567,17.58629 7.27536,31.41467l-0.47657,4.48485c0,0 -0.54005,5.02076 -5.9444,4.64382c-5.40427,-0.37688 -4.86422,-5.39763 -4.86422,-5.39763l0.53842,-4.95056c2.09125,-12.75086 -4.29428,-16.55552 -7.12675,-27.7455c-2.6421,-10.43807 5.91123,-21.53878 3.71812,-31.95033c-1.07242,-5.09105 -6.5213,-10.21694 -9.43977,-14.359c-10.23577,-18.59059 -7.29323,-31.05795 -3.44573,-48.53223c-4.54792,1.83437 -9.03177,2.73556 -13.98235,2.98685c-2.94455,11.95273 -8.65913,24.02518 -6.6884,36.45447c2.28906,5.02101 6.13968,10.66992 8.0568,15.67782c2.758,7.20431 0.11105,17.99734 3.82015,24.59734c4.8856,8.69371 7.55942,13.33517 7.0132,23.85023l-0.69848,2.54741c0,0 -1.69958,4.81939 -6.85799,3.36231c-5.15842,-1.45704 -3.45889,-6.27649 -3.45889,-6.27649l0.16759,0.09146c0.58291,-9.54746 -2.08502,-11.32672 -6.10328,-19.28341c-3.7666,-7.45839 -1.03547,-17.4996 -4.06939,-25.16163c-2.11774,-5.3482 -5.95412,-11.09589 -8.34479,-16.50112c-1.49356,-9.41981 -1.2038,-19.46556 1.44834,-28.88248c0.85685,-3.04244 2.41354,-6.89412 3.78168,-10.86712c-0.17474,-0.01632 -0.35027,-0.03302 -0.52649,-0.05009c-21.71772,3.36469 -37.66743,18.66104 -54.78808,30.22191l-4.98135,2.29045c0,0 -4.95099,2.18253 -7.1838,-2.3547z" fill="url(#color-54)" stroke="none" stroke-width="0.5"/><path d="M301.14688,98.30731c1.49941,5.18307 -3.68368,6.68247 -3.68368,6.68247l-4.93704,1.42508c-14.75039,3.64214 -23.15629,16.49335 -37.30696,21.42965c-9.23666,3.22204 -23.36697,2.25949 -31.66094,6.66235c-9.48112,5.03308 -11.19576,28.66757 -11.80443,37.74988c-2.35016,7.54509 -5.56833,16.01119 -10.07089,23.58154c0.65806,-0.11369 1.31544,-0.22273 1.97205,-0.32654c16.7502,-1.17505 24.45618,8.11036 37.75577,16.52637c3.01461,1.90764 9.17177,9.20379 12.8136,9.2129c12.04277,0.03008 23.32422,-6.95388 35.48498,-7.60732c7.60016,-0.4084 14.34618,3.31189 21.60411,5.05475c0,0 5.24407,1.26967 3.97441,6.51373c-1.26967,5.24407 -6.51373,3.97437 -6.51373,3.97437c-5.63137,-1.3736 -12.6715,-5.25894 -18.54795,-4.76408c-12.01247,1.01159 -24.74864,8.89757 -36.80583,7.58978c-18.53194,-2.01012 -28.16452,-27.71654 -48.48565,-25.7854c-4.56223,0.72542 -9.18813,1.73104 -13.84234,2.80003c-4.45136,3.93617 -9.66531,6.85172 -15.78481,8.12364c-9.30213,1.93345 -16.28581,-2.90894 -25.6707,0.83979c-15.3573,6.13434 -23.5678,19.45298 -41.52391,19.04863c0,0 -5.39126,-0.21661 -5.17465,-5.6078c0.21662,-5.3912 5.60779,-5.17472 5.60779,-5.17472c11.08751,0.73272 19.3374,-7.13509 28.18964,-13.25076c-11.29679,-1.2796 -22.43438,-1.52406 -32.63334,6.65767l-3.08891,1.17724c0,0 -5.329,0.84494 -6.17394,-4.48406c-0.62967,-3.97131 2.1694,-5.45239 3.63655,-5.94926c10.63148,-7.57758 27.28005,-10.85217 40.242,-10.09021c6.87913,0.40437 12.53255,4.14535 19.30367,3.69768c9.31557,-0.61594 18.74784,-2.79273 28.13311,-4.9307c7.5364,-7.79576 12.09749,-19.81633 14.98993,-28.80071c0.74695,-13.53464 4.18242,-37.74337 17.35635,-45.3091c8.62969,-4.95597 23.72881,-4.17416 33.343,-7.37937c14.34246,-4.78149 22.76671,-17.69784 38.03438,-21.64123l4.58614,-1.32992c0,0 5.18303,-1.49941 6.68247,3.68368z" fill="url(#color-55)" stroke="none" stroke-width="0.5"/><path d="M189.59086,337.7925c-20.40456,-4.4525 -15.47018,-18.04143 -26.47673,-29.82212c-3.95764,-4.23602 -12.65852,-5.58997 -17.23653,-7.33433c-14.30835,-5.45185 -14.73865,-5.22191 -24.72436,-18.60664c-10.83152,-14.51848 -3.74764,-30.35018 -14.45984,-42.59284c-11.21766,-10.89655 -25.12591,-37.27597 -20.79554,-54.31539c0.31864,-1.25383 12.4961,-13.40433 12.67315,-18.23165c0.26203,-7.14574 -6.22337,-13.20084 -6.86884,-20.32224c-1.52856,-16.86473 8.59184,-33.46497 14.01619,-48.11694c2.58131,-6.97241 -0.42692,-15.27653 2.32562,-22.18313c2.68969,-6.74883 10.72053,-12.16691 12.73099,-19.63144c1.30539,-4.84674 -0.90816,-10.72376 1.79906,-14.95052c9.11954,-14.23784 35.69519,-19.37867 50.798,-20.28576c8.2313,-2.54679 17.04126,-2.6636 25.62901,-3.3638c20.35192,-1.65935 33.80988,-15.31943 54.90131,-5.42421c11.05641,5.18722 20.24057,15.49261 20.78902,28.47734c0.15022,3.55727 -5.15202,5.35825 -6.04799,8.8041c-1.0723,4.12388 7.12957,4.66833 10.69795,6.99703c7.99111,5.21496 14.91422,12.99315 18.52173,21.82714c5.69068,13.93522 12.56399,36.22281 12.66242,51.2819c0.02385,3.653 -2.55511,7.08884 -2.23872,10.72821c0.3506,4.03259 13.44017,12.33463 13.48855,12.40291c4.04778,5.71525 5.917,12.69577 8.87548,19.04365c-3.23425,3.66524 -7.17099,6.81427 -9.70269,10.9957c-6.60406,10.90727 5.57752,29.13043 5.30612,40.22512c-0.25215,10.30923 -5.50693,22.40508 -11.38431,30.49214c-3.71239,5.10807 -10.15962,8.90229 -11.46502,15.08047c-3.2284,15.27929 5.23599,26.72319 -5.39458,41.49656c-3.92191,5.45029 -18.00138,14.69524 -28.03348,19.37018c-1.84423,3.46416 -5.42806,5.10486 -5.42806,5.10486c-10.19719,4.53932 -23.21707,19.11839 -35.06224,17.71495c-7.19865,-0.85291 -11.65626,-7.81115 -16.69474,-13.64013c-2.22763,0.83839 -4.39848,1.62209 -6.47569,2.276l-4.11731,1.29604c0,0 -8.68079,2.73261 -12.60799,-4.79303zM216.7938,314.65165c6.04929,-2.14387 12.15821,-4.03885 17.86889,-4.73007c7.91918,-0.95858 16.00078,2.61769 23.88839,1.4269c5.96504,-0.90056 10.15404,-7.06374 14.51592,-10.08875c2.47074,-1.71348 5.97113,-1.94734 8.00086,-4.16565c5.37443,-5.87395 -0.53504,-25.79835 1.31694,-33.02056c4.19415,-16.35598 14.95146,-18.86614 20.46747,-33.19788c7.38237,-19.18084 -19.49146,-49.70735 6.47672,-62.04433c-10.32744,-3.47643 -19.67454,-13.00029 -22.21273,-23.90881c-1.11805,-4.80507 1.81574,-9.75346 1.82835,-14.68687c0.0268,-10.47637 -5.64728,-23.88041 -8.15383,-33.99957c-0.13504,-0.54517 -4.69091,-15.6568 -5.97993,-17.12197c-4.81,-5.46734 -13.87699,-6.01757 -18.46753,-11.67044c-4.21429,-5.18951 -8.52337,-11.13678 -9.28084,-17.7789c-0.44577,-3.90917 5.053,-6.31212 6.10094,-10.10447c1.01654,-3.67851 -5.1951,-5.87061 -8.64079,-7.51131c-10.42623,-4.96445 -18.88513,2.15202 -29.11492,4.67638c-13.31958,3.28679 -25.1629,1.74464 -38.11902,5.89821c-12.25655,0.73608 -19.11623,3.17913 -30.25346,7.90739c-1.93794,0.82276 -5.03827,0.28934 -5.92004,2.20115c-1.34194,2.90955 1.33019,6.51208 0.47689,9.60052c-2.27347,8.22815 -10.07448,13.95284 -13.44768,21.79463c-2.83548,6.59158 0.25013,14.63124 -2.04693,21.42922c-3.73018,11.0395 -14.67207,26.1719 -12.92615,38.80221c1.20489,8.7161 7.853,13.91604 6.9559,23.59555c-0.58014,6.25918 -3.77057,12.10485 -6.93361,17.53703c-1.45449,2.49795 -5.54105,2.95693 -6.572,5.65736c-0.73773,1.93238 1.5358,3.84346 2.19665,5.80348c4.08192,12.10707 4.01405,19.44532 13.75593,27.86939c3.24187,4.39022 7.72329,8.0938 9.7255,13.1707c4.88114,12.3772 -2.04471,20.34882 6.20897,31.20795c10.73222,14.12002 27.67448,11.13117 40.02718,23.67153c3.49095,3.544 5.6412,8.21725 8.01353,12.58972c2.00676,3.69861 2.00167,11.39306 6.19129,11.00124c7.93571,-0.74217 16.72171,-4.43806 24.0533,-1.81088z" fill="url(#color-56)" stroke="none" stroke-width="0.5"/></g><g stroke="none" stroke-width="0"><path d="M246.16409,122.21624c18.83789,-2.98684 36.60684,10.34521 39.68801,29.778c3.08116,19.43278 -9.69221,37.60748 -28.53012,40.59432c-18.83789,2.98684 -36.60684,-10.34521 -39.68801,-29.778c-3.08116,-19.43278 9.69221,-37.60748 28.53012,-40.59432z" fill="url(#color-57)"/><path d="M251.39068,155.18013c1.18977,-0.18864 2.31199,0.65337 2.50659,1.88072c0.1946,1.22732 -0.61217,2.37522 -1.80188,2.56386c-1.18977,0.18864 -2.31199,-0.65337 -2.50659,-1.88072c-0.1946,-1.22732 0.61217,-2.37522 1.80188,-2.56386z" fill="#ffffff"/></g></g></g></g></svg>