<svg version="1.1" xmlns="http://www.w3.org/2000/svg" xmlns:xlink="http://www.w3.org/1999/xlink" width="103.90849" height="186.15502" viewBox="0,0,103.90849,186.15502"><defs><linearGradient x1="242.95939" y1="334.00374" x2="251.39546" y2="334.00374" gradientUnits="userSpaceOnUse" id="color-1"><stop offset="0" stop-color="#7a7a7a"/><stop offset="1" stop-color="#a4a4a4"/></linearGradient><linearGradient x1="225.74685" y1="309.53872" x2="230.31493" y2="309.53872" gradientUnits="userSpaceOnUse" id="color-2"><stop offset="0" stop-color="#7a7a7a"/><stop offset="1" stop-color="#a4a4a4"/></linearGradient><linearGradient x1="263.07292" y1="309.53872" x2="267.64099" y2="309.53872" gradientUnits="userSpaceOnUse" id="color-3"><stop offset="0" stop-color="#7a7a7a"/><stop offset="1" stop-color="#a4a4a4"/></linearGradient><linearGradient x1="247.29844" y1="290.9257" x2="247.29844" y2="305.76911" gradientUnits="userSpaceOnUse" id="color-4"><stop offset="0" stop-color="#a4a4a4"/><stop offset="1" stop-color="#7a7a7a"/></linearGradient><linearGradient x1="246.90047" y1="295.32267" x2="246.90047" y2="299.695" gradientUnits="userSpaceOnUse" id="color-5"><stop offset="0" stop-color="#6b6b6b"/><stop offset="1" stop-color="#222222"/></linearGradient><linearGradient x1="257.08372" y1="340.60094" x2="257.08372" y2="343.38084" gradientUnits="userSpaceOnUse" id="color-6"><stop offset="0" stop-color="#9a9a9a"/><stop offset="1" stop-color="#dedede"/></linearGradient><linearGradient x1="252.99561" y1="340.57575" x2="252.99561" y2="343.35565" gradientUnits="userSpaceOnUse" id="color-7"><stop offset="0" stop-color="#9a9a9a"/><stop offset="1" stop-color="#dedede"/></linearGradient><linearGradient x1="248.93267" y1="340.57575" x2="248.93267" y2="343.35565" gradientUnits="userSpaceOnUse" id="color-8"><stop offset="0" stop-color="#9a9a9a"/><stop offset="1" stop-color="#dedede"/></linearGradient><linearGradient x1="244.84455" y1="340.55055" x2="244.84455" y2="343.33045" gradientUnits="userSpaceOnUse" id="color-9"><stop offset="0" stop-color="#9a9a9a"/><stop offset="1" stop-color="#dedede"/></linearGradient><linearGradient x1="250.82732" y1="337.7382" x2="250.82732" y2="341.87011" gradientUnits="userSpaceOnUse" id="color-10"><stop offset="0" stop-color="#a4a4a4"/><stop offset="1" stop-color="#3d3d3d"/></linearGradient><linearGradient x1="257.05853" y1="344.23507" x2="257.05853" y2="347.01495" gradientUnits="userSpaceOnUse" id="color-11"><stop offset="0" stop-color="#dedede"/><stop offset="1" stop-color="#9a9a9a"/></linearGradient><linearGradient x1="252.9704" y1="344.26027" x2="252.9704" y2="347.04017" gradientUnits="userSpaceOnUse" id="color-12"><stop offset="0" stop-color="#dedede"/><stop offset="1" stop-color="#9a9a9a"/></linearGradient><linearGradient x1="248.90748" y1="344.26027" x2="248.90748" y2="347.04017" gradientUnits="userSpaceOnUse" id="color-13"><stop offset="0" stop-color="#dedede"/><stop offset="1" stop-color="#9a9a9a"/></linearGradient><linearGradient x1="244.81935" y1="344.28547" x2="244.81935" y2="347.06537" gradientUnits="userSpaceOnUse" id="color-14"><stop offset="0" stop-color="#dedede"/><stop offset="1" stop-color="#9a9a9a"/></linearGradient><linearGradient x1="250.80212" y1="345.74581" x2="250.80212" y2="349.87772" gradientUnits="userSpaceOnUse" id="color-15"><stop offset="0" stop-color="#a4a4a4"/><stop offset="1" stop-color="#3d3d3d"/></linearGradient><radialGradient cx="232.11757" cy="297.69652" r="13.60014" gradientUnits="userSpaceOnUse" id="color-16"><stop offset="0" stop-color="#ffffff"/><stop offset="1" stop-color="#c4bfb5"/></radialGradient><radialGradient cx="235.97067" cy="295.23762" r="5.05415" gradientUnits="userSpaceOnUse" id="color-17"><stop offset="0" stop-color="#ffffff"/><stop offset="1" stop-color="#ffffff" stop-opacity="0"/></radialGradient><radialGradient cx="269.24987" cy="297.83931" r="13.60014" gradientUnits="userSpaceOnUse" id="color-18"><stop offset="0" stop-color="#ffffff"/><stop offset="1" stop-color="#c5c1b7"/></radialGradient><radialGradient cx="272.90994" cy="295.23762" r="5.05415" gradientUnits="userSpaceOnUse" id="color-19"><stop offset="0" stop-color="#ffffff"/><stop offset="1" stop-color="#ffffff" stop-opacity="0"/></radialGradient><linearGradient x1="246.69392" y1="321.0936" x2="246.69392" y2="325.25315" gradientUnits="userSpaceOnUse" id="color-20"><stop offset="0" stop-color="#a4a4a4"/><stop offset="1" stop-color="#686868"/></linearGradient><radialGradient cx="271.75642" cy="283.38436" r="51.95424" gradientUnits="userSpaceOnUse" id="color-21"><stop offset="0" stop-color="#e0c297"/><stop offset="1" stop-color="#b9a17e"/></radialGradient><radialGradient cx="257.61222" cy="268.20129" r="42.94363" gradientUnits="userSpaceOnUse" id="color-22"><stop offset="0" stop-color="#634a14"/><stop offset="1" stop-color="#443014"/></radialGradient><linearGradient x1="206.41495" y1="401.92279" x2="289.26338" y2="401.92279" gradientUnits="userSpaceOnUse" id="color-23"><stop offset="0" stop-color="#7582b0"/><stop offset="1" stop-color="#485b9d"/></linearGradient></defs><g transform="translate(-194.93149,-258.04356)"><g data-paper-data="{&quot;isPaintingLayer&quot;:true}" fill-rule="nonzero" stroke-linecap="butt" stroke-linejoin="miter" stroke-miterlimit="10" stroke-dasharray="" stroke-dashoffset="0" style="mix-blend-mode: normal"><path d="M218.97532,444.18736c0,0 0.78569,-38.43134 -1.5414,-53.1194c-1.58829,-10.02495 -11.07203,-23.20604 -11.07203,-23.20604c0,0 27.85125,-8.13816 41.79315,-8.03778c13.66885,0.09841 41.05529,8.63429 41.05529,8.63429c0,0 -10.95755,11.41446 -12.57961,20.82309c-2.51472,14.5865 -1.04291,54.90584 -1.04291,54.90584z" fill="#191919" stroke="none" stroke-width="0"/><path d="M291.15882,302.7466c0,9.382 14.98001,18.28883 3.1007,34.60522c-12.34758,16.95958 -32.64757,20.43407 -47.93966,20.43407c-16.38761,0 -30.94316,0.06815 -47.0443,-21.7072c-10.92726,-14.77814 2.20535,-25.03522 2.20535,-33.33209c0,-24.52914 20.07508,-44.41394 44.83895,-44.41394c24.76387,0 44.83895,19.8848 44.83895,44.41394z" fill="#191919" stroke="none" stroke-width="0"/><path d="M269.56395,330.57474c1.44094,-1.00259 2.99347,-4.37776 3.44988,-6.05048c-0.01258,-2.13783 1.40468,-4.80994 0.92256,-6.82525c-0.52172,-2.18084 -1.93586,-4.2673 -2.66568,-6.39927c-0.66376,-1.93894 -1.37228,-3.80676 -2.24782,-5.5725c0.62428,2.37727 0.91893,4.85629 0.61016,6.80647c-0.41556,2.6247 -1.71936,5.10366 -1.26763,7.85375c0.62653,3.81421 3.28717,4.8911 1.31587,9.00995c-0.40114,0.69753 -0.85611,1.25456 -1.35604,1.69938c0.44236,-0.09467 0.86092,-0.2592 1.23868,-0.52204zM266.76478,298.21998c3.3583,3.48341 5.22819,7.66534 6.77506,12.22681c0.75063,2.21345 2.25954,4.39129 2.74595,6.67784c0.53438,2.51199 -0.86787,5.18701 -0.88131,7.74638c-0.6454,2.32473 -2.46094,6.38103 -4.48719,7.7739c-2.3098,1.58777 -5.16143,0.87513 -7.66312,0.58108c-4.68348,-0.55049 -9.32595,0.17126 -13.79109,1.30581c-0.26808,0.00158 -0.53615,0.00289 -0.80421,0.00399l0.1783,1.20564c0,0 -0.38169,1.18586 -1.52674,0.79057c-0.71503,-0.24684 -0.83473,-0.80195 -0.82379,-1.18408c-0.28737,-0.18341 -0.57653,-0.35894 -0.86616,-0.52867c-0.33864,0.1496 -0.93338,0.26667 -1.4194,-0.40444c-0.01191,-0.01644 -0.02335,-0.0328 -0.03435,-0.0491c-0.20856,-0.11686 -0.41141,-0.31154 -0.50847,-0.63589c-0.18033,-0.09752 -0.35965,-0.19463 -0.53766,-0.29182c0.48854,0.85872 0.91083,1.76861 1.81365,2.36262l0.77623,0.60051c0,0 0.9656,0.75 0.2414,1.75c-0.7242,1 -1.68979,0.25 -1.68979,0.25l-0.66687,-0.52039c-1.48081,-1.05649 -1.84689,-2.88253 -3.05555,-3.9156c-0.54731,-0.46781 -1.41409,-0.1275 -2.12234,-0.17364c-1.50984,-0.09836 -3.9586,-0.14317 -5.20552,-1.21978c-1.80714,-1.56031 -1.76854,-5.31353 -3.22076,-7.3295c-3.9734,-0.2465 -7.36094,-3.65234 -6.57621,-8.05342c0.19488,-1.09303 1.09285,-1.92453 1.48132,-2.96068c0.80963,-2.15955 -1.16506,-5.24727 -1.48238,-7.24792c-0.42836,-2.70085 0.75145,-4.68214 2.23604,-6.5653c0.05723,-0.154 0.11633,-0.30978 0.17703,-0.46755c0,0 0.24539,-0.63533 0.82694,-0.77784c-0.00647,-0.14574 -0.01028,-0.29215 -0.01134,-0.43927c0,0 0,-1.25 1.20699,-1.25c1.20699,0 1.207,1.25 1.207,1.25c-0.04212,4.50306 2.99456,7.23813 5.49044,10.40597c0.56958,0.72294 1.34917,2.48655 1.52532,3.38219c0.16324,0.83005 -0.44232,2.57114 0.36339,3.23809c1.16526,0.96458 3.95955,0.90449 4.79737,2.17478c0.94716,1.43607 0.76129,3.39547 1.32553,5.03346c1.10173,1.86134 1.75042,3.60128 2.32565,5.68627l0.1649,0.50857c0,0 0.3817,1.18586 -0.76336,1.58114c-1.14506,0.39529 -1.52674,-0.79057 -1.52674,-0.79057l-0.19589,-0.61233c-0.54408,-1.97214 -1.15241,-3.52878 -2.18372,-5.29755c-0.50422,-1.46077 -0.32863,-3.1562 -1.01985,-4.53246c-0.29089,-0.57918 -3.88544,-1.22854 -4.5828,-1.93516c-1.74014,-1.76325 -0.62408,-3.7908 -1.52581,-5.79448c-0.62274,-1.38376 -1.85441,-2.11331 -2.75574,-3.32595c-1.28482,-1.7286 -2.42764,-3.60739 -3.12857,-5.64205c-0.35935,1.24868 -0.38056,2.41699 0.56013,3.78272c0.6883,0.9993 1.78264,1.71079 2.28206,2.82399c1.02037,2.27436 -0.48131,6.59895 1.70596,8.38376c2.74532,2.24019 5.73879,3.60495 7.19864,7.11996c0.46279,3.20752 2.21276,4.74376 4.38002,5.99969h0.41061c1.5313,0.06729 2.95923,-1.07397 4.35535,-1.74859c2.56035,-1.23719 5.20878,-2.15474 7.48099,-3.92383c1.68174,-1.56665 1.06917,-5.64059 1.61416,-7.80442c0.46829,-1.85926 2.00516,-2.57761 3.15681,-3.86464c1.26988,-1.41917 2.43374,-3.6081 3.05101,-5.39304c1.15823,-3.34923 -0.29604,-6.81202 -0.30107,-10.20278c0,0 0,-1.25 1.20699,-1.25c0.96391,0 1.15804,0.79721 1.19713,1.11832c0.60906,-0.13917 1.09945,0.3687 1.09945,0.3687zM260.68006,330.35982c2.45505,0 5.56258,0.39398 6.8729,-2.14206c1.47622,-3.0241 -1.03174,-4.34966 -1.57033,-7.42985c-0.53049,-3.03387 0.78434,-5.70106 1.25781,-8.58604c0.31878,-1.94239 -0.12992,-4.71655 -0.91472,-7.1594c0.04902,1.33193 -0.05903,2.67669 -0.52008,4.06652c-0.6837,2.06098 -2.072,4.53484 -3.51368,6.15774c-0.72129,0.81196 -2.37755,1.62449 -2.61562,2.86073c-0.60296,3.13095 -0.14208,6.59289 -2.35437,9.00901c-1.19948,0.92988 -2.85582,2.04847 -4.66685,3.08266c2.60899,-0.10689 5.26967,0.14069 8.02495,0.14069zM236.78901,325.59558c-1.20552,-2.93047 -4.3558,-3.97593 -6.51083,-5.95715c-2.19204,-2.01523 -1.75647,-5.24708 -2.00502,-7.88151c-0.15468,-1.63953 -1.05972,-2.12801 -1.90462,-3.15629c0.35681,1.02059 0.75261,2.03873 0.87498,3.05398c0.4792,3.9757 -4.14183,9.32234 2.00373,11.08921c0.60796,0.17479 1.24815,0.19223 1.87223,0.28834c1.52853,1.73595 2.17194,2.96369 2.92033,5.17648c0.27119,0.80184 0.0462,1.94531 0.71365,2.43929c1.31185,0.97089 3.28479,0.5292 4.99962,0.60603c-1.50109,-1.28444 -2.61331,-2.97224 -2.96407,-5.65838z" fill="#000000" stroke="none" stroke-width="0.5"/><path d="M242.95939,373.98978v-79.97209h8.43607v79.87299z" fill="url(#color-1)" stroke="none" stroke-width="0"/><path d="M225.74685,325.05975v-31.04206h4.56808v31.00359z" fill="url(#color-2)" stroke="none" stroke-width="0"/><path d="M263.07292,325.05975v-31.04206h4.56808v31.00359z" fill="url(#color-3)" stroke="none" stroke-width="0"/><path d="M221.13594,305.76911v-14.84339h52.325v14.84339z" fill="url(#color-4)" stroke="none" stroke-width="0"/><path d="M212.66321,299.695v-4.37236h68.47455v4.37236z" fill="url(#color-5)" stroke="none" stroke-width="0"/><g stroke="none" stroke-width="0"><path d="M255.37302,343.38084v-2.7799h3.42141v2.7799z" fill="url(#color-6)"/><path d="M251.2849,343.35565v-2.7799h3.42142v2.7799z" fill="url(#color-7)"/><path d="M247.22197,343.35565v-2.7799h3.42141v2.7799z" fill="url(#color-8)"/><path d="M243.13385,343.33045v-2.7799h3.42141v2.7799z" fill="url(#color-9)"/><path d="M240.35096,341.87011v-4.13191h20.95273v4.13191z" fill="url(#color-10)"/></g><g data-paper-data="{&quot;index&quot;:null}" stroke="none" stroke-width="0"><path d="M258.76924,344.23507v2.7799h-3.42141v-2.7799z" fill="url(#color-11)"/><path d="M254.68111,344.26027v2.7799h-3.42141v-2.7799z" fill="url(#color-12)"/><path d="M250.61819,344.26027v2.7799h-3.42141v-2.7799z" fill="url(#color-13)"/><path d="M246.53006,344.28547v2.7799h-3.42141v-2.7799z" fill="url(#color-14)"/><path d="M261.27849,345.74581v4.13191h-20.95273v-4.13191z" fill="url(#color-15)"/></g><g stroke-width="0"><g><path d="M245.64971,297.69652c0,7.51115 -6.05855,13.60014 -13.53214,13.60014c-7.47359,0 -13.53214,-6.08899 -13.53214,-13.60014c0,-7.51115 6.05855,-13.60014 13.53214,-13.60014c7.47359,0 13.53214,6.08899 13.53214,13.60014z" fill="url(#color-16)" stroke="#000000"/><path d="M239.03543,297.76077c0,2.79133 -2.10854,5.05415 -4.70955,5.05415c-2.60101,0 -4.70954,-2.26282 -4.70954,-5.05415c0,-2.79133 2.10853,-5.05414 4.70954,-5.05414c2.60101,0 4.70955,2.26281 4.70955,5.05414z" fill="#000000" stroke="none"/></g><path d="M240.68021,295.23762c0,2.79133 -2.10854,5.05415 -4.70955,5.05415c-2.60101,0 -4.70954,-2.26282 -4.70954,-5.05415c0,-2.79133 2.10853,-5.05414 4.70954,-5.05414c2.60101,0 4.70955,2.26281 4.70955,5.05414z" fill="url(#color-17)" stroke="none"/></g><g stroke-width="0"><g><path d="M282.78202,297.83931c0,7.51115 -6.05855,13.60014 -13.53214,13.60014c-7.47359,0 -13.53214,-6.08899 -13.53214,-13.60014c0,-7.51115 6.05855,-13.60014 13.53214,-13.60014c7.47359,0 13.53214,6.08899 13.53214,13.60014z" fill="url(#color-18)" stroke="#000000"/><path d="M276.83441,297.90357c0,2.79133 -2.10854,5.05415 -4.70954,5.05415c-2.60101,0 -4.70954,-2.26282 -4.70954,-5.05415c0,-2.79133 2.10853,-5.05414 4.70954,-5.05414c2.60101,0 4.70954,2.26281 4.70954,5.05414z" fill="#000000" stroke="none"/></g><path d="M277.61948,295.23762c0,2.79133 -2.10854,5.05415 -4.70955,5.05415c-2.60101,0 -4.70954,-2.26282 -4.70954,-5.05415c0,-2.79133 2.10853,-5.05414 4.70954,-5.05414c2.60101,0 4.70955,2.26281 4.70955,5.05414z" fill="url(#color-19)" stroke="none"/></g><path d="M225.74685,325.25315v-4.15955h41.89415v4.15439z" fill="url(#color-20)" stroke="none" stroke-width="0"/><g stroke="none" stroke-width="0"><g><path d="M291.15882,302.7466c0,9.382 14.98001,18.28883 3.10071,34.60522c-12.34758,16.95958 -32.64757,20.43407 -47.93966,20.43407c-16.38761,0 -30.94316,0.06815 -47.0443,-21.7072c-10.92726,-14.77814 2.20535,-25.03522 2.20535,-33.33209c0,-24.52914 20.07508,-44.41394 44.83895,-44.41394c24.76387,0 44.83895,19.8848 44.83895,44.41394zM252.10423,350.86619c9.31575,0.17461 17.9223,-3.36897 24.16133,-7.6316c-0.04729,0.29296 -0.09727,0.57446 -0.00982,0.71397c0.65915,1.05154 1.66531,0.04942 2.10027,1.4817l-0.02566,0.22868c0,0 0,0.5 0.5,0.5c0.5,0 0.5,-0.5 0.5,-0.5l-0.02566,-0.54492c-0.21076,-0.5955 -0.60454,-1.38351 -1.25,-1.65762c-0.27786,-0.118 -0.94212,0.34446 -0.90452,0.04493c0.04102,-0.32686 0.06391,-0.63755 0.0419,-0.91738c5.57777,-4.02587 9.0342,-8.543 9.0342,-11.13685c0,-0.95812 -0.49105,-1.37903 -1.39263,-1.42048c0.42675,-1.33009 1.06174,-2.86542 -0.20336,-3.39596c-0.67037,-0.28113 -1.93382,0.13142 -2.20048,0.85079c-0.14799,0.39926 0.63785,1.07767 0.24972,1.25279c-0.15686,0.07077 -1.31934,0.0966 -1.54719,0.3868c-0.14112,0.17973 -0.01558,0.64543 -0.24404,0.64063c-0.44612,0.44612 -0.58177,0.97346 -0.83546,1.44663c-6.30295,2.27514 -16.65523,7.03001 -27.35312,7.00936c-22.14882,-0.04273 -32.87964,-11.86702 -32.87964,-6.34417c0,1.0739 0.53376,2.43541 1.52727,3.93456c-0.85539,0.07981 -1.61282,0.10535 -2.66622,-0.28102c-0.74804,-0.27437 -1.43225,0.24268 -2.02203,-0.01484c-0.02669,-0.14396 -0.12537,-0.41002 -0.4901,-0.41002c-0.5,0 -0.5,0.5 -0.5,0.5l0.22265,0.60943c1.6685,0.98347 4.03457,0.62578 6.1008,0.50389c4.62687,6.1054 16.17806,13.88954 30.11181,14.1507zM232.16247,312.67625c8.28427,0 15,-6.71573 15,-15c0,-8.28427 -6.71573,-15 -15,-15c-8.28427,0 -15,6.71573 -15,15c0,8.28427 6.71573,15 15,15zM269.8388,312.90598c8.28427,0 15,-6.71573 15,-15c0,-8.28427 -6.71573,-15 -15,-15c-8.28427,0 -15,6.71573 -15,15c0,8.28427 6.71573,15 15,15z" fill="url(#color-21)"/><path d="M246.55561,258.04356c19.63529,0 36.44363,11.49722 43.37125,27.79116c-1.4561,-1.33153 -3.01052,-2.56947 -4.67075,-3.70381c-2.03257,-3.11395 -4.53801,-3.70627 -8.08954,-3.70627c-0.84343,0 -2.03712,0.28078 -3.15492,0.34197c-0.75137,-0.1658 -1.5029,-0.32417 -2.2541,-0.47879c-0.22047,-0.16938 -0.40578,-0.39137 -0.54502,-0.6788c-1.14025,-1.558 -2.83112,-0.99465 -4.58528,-1.67242c-3.99493,-1.54355 -8.28072,-1.51475 -12.5693,-1.00228c-1.2122,-0.14875 -2.42336,-0.27517 -3.63577,-0.38071c-1.32066,-0.84927 -2.54798,-2.36465 -3.97277,-3.02955c-2.18229,-1.0184 -3.74992,0.84748 -5.40313,1.56709c-0.83433,0.36316 -1.92143,0.48117 -2.81903,0.93979c-3.15976,0.3802 -6.50733,-0.16716 -9.63745,0.36301c-0.53888,0.09127 -3.40881,0.72835 -3.81605,0.33026c-1.34432,-1.3141 -2.41424,-1.23414 -4.16925,-0.14644c-2.28671,3.46731 -5.89781,4.00828 -9.495,5.49727c-0.068,-0.38882 -0.49083,-0.38882 -0.49083,-0.38882c-1.66922,0.02994 -4.25923,1.80994 -6.20049,3.50018c7.55447,-14.87759 23.58394,-25.14282 42.13742,-25.14282z" fill="url(#color-22)"/></g><path d="M268.6311,278.71547c5.3999,-0.17828 10.56887,2.47365 10.60548,3.58256c0.03661,1.10891 -4.99204,-0.95942 -10.39195,-0.78114c-5.3999,0.17828 -9.92464,0.68964 -9.92464,0.68964c0,0 4.3112,-3.31278 9.71111,-3.49106z" fill="#000000"/><path d="M232.80505,281.07953c-5.3999,-0.17828 -10.42855,1.89005 -10.39194,0.78114c0.03661,-1.10891 5.20558,-3.76084 10.60548,-3.58256c5.3999,0.17828 9.74772,2.38216 9.71111,3.49107c0,0 -4.52475,-0.51137 -9.92465,-0.68965z" data-paper-data="{&quot;index&quot;:null}" fill="#000000"/></g><g stroke="none"><path d="M218.84157,444.19858c0,0 0.9725,-38.61816 -1.35459,-53.30621c-1.58829,-10.02495 -11.07203,-23.20604 -11.07203,-23.20604c0,0 27.85125,-8.13816 41.79315,-8.03778c13.66885,0.09841 41.05528,8.63429 41.05528,8.63429c0,0 -10.95755,11.41446 -12.57961,20.82309c-2.51472,14.5865 -0.85609,55.09265 -0.85609,55.09265z" fill="url(#color-23)" stroke-width="0"/><g stroke-width="0.5"><path d="M223.78606,408.04405c-0.10703,-1.11993 1.0129,-1.22697 1.0129,-1.22697l0.66652,-0.0637c1.4153,-0.11661 2.14744,-0.7267 3.52064,-1.08757c2.17219,-0.57085 4.67284,-0.38163 6.92126,-0.74285c2.61275,-0.41975 5.12877,-1.1587 7.78185,-1.51155c0.13446,-0.00496 0.2689,-0.01058 0.40333,-0.01686c-2.40582,-2.11874 -4.99645,-4.00146 -7.41727,-6.10017c-1.36465,1.08805 -2.85273,2.02539 -4.19145,3.14958c0,0 -0.86223,0.72268 -1.58491,-0.13956c-0.72268,-0.86223 0.13956,-1.5849 0.13956,-1.5849c1.26038,-1.05448 2.65639,-1.94726 3.95137,-2.95757c-1.70848,-1.63577 -3.26977,-3.36382 -5.14461,-4.8558c-1.21784,-0.96914 -2.72627,-1.77054 -3.88611,-2.79153c-0.5315,-0.46786 -1.5144,-0.8327 -1.46421,-1.53901c0.06101,-0.85869 0.91593,-1.60441 1.711,-1.93445c0.66953,-0.27794 1.44197,0.1732 2.14931,0.33197c0.03758,0.00843 3.94809,1.1577 4.14276,1.21488c3.02398,1.16549 5.92068,1.93764 9.06926,2.53438c0.17054,0.03232 0.3406,0.06717 0.51022,0.10429c2.82625,-3.02703 5.61795,-6.09471 8.78691,-8.74801c0.8984,-0.86224 3.46139,-3.65651 5.0097,-3.23237c1.99031,0.54521 2.17521,5.44667 2.32509,7.00722c0.28685,2.98673 -0.00344,5.93976 -0.0701,8.91296c2.33094,0.41653 4.65299,0.88002 6.92217,1.54745c1.13882,0.07591 4.57424,0.50654 5.08911,1.66488c0.30685,0.69033 -0.33115,1.50259 -0.72495,2.14729c-0.90211,1.47685 -3.47246,2.29783 -4.93335,2.98677c-1.83852,0.86703 -3.73723,1.36026 -5.66503,1.80563c0.04502,0.59691 0.07975,1.19458 0.0982,1.79352c1.0591,3.75601 1.89509,8.23192 2.29868,12.1394c0.20631,1.99751 1.03997,5.60485 -2.65543,3.90211c-0.74362,-0.34264 -1.10852,-1.20947 -1.59429,-1.86855c-1.33298,-1.80852 -2.09782,-4.0653 -3.41913,-5.89884c-2.01738,-2.79946 -4.59704,-5.23319 -7.18395,-7.51095c-0.81609,0.08659 -1.64181,0.14785 -2.48137,0.17824c-2.59978,0.35019 -5.04825,1.07081 -7.60978,1.49023c-2.15567,0.35297 -4.65553,0.12467 -6.71755,0.69982c-1.44079,0.40187 -2.3368,0.98759 -3.87285,1.1498l-0.66651,0.0637c0,0 -1.11994,0.10703 -1.22697,-1.0129zM249.26281,405.06407c2.76898,2.55717 5.34139,5.32793 7.28923,8.56972c0.77283,1.28621 1.44885,2.71021 2.2646,3.97274c-0.11591,-0.94041 -0.10501,-2.00614 -0.17203,-2.34625c-0.6623,-3.36067 -1.03995,-6.92858 -1.9525,-10.20101c-0.02268,-0.54522 -0.05672,-1.08924 -0.09826,-1.63248c-0.26012,0.06103 -0.52055,0.12343 -0.78121,0.18798c-2.20663,0.54648 -4.36106,1.06779 -6.54982,1.4493zM255.93207,392.38314c0.09519,-1.70847 0.26451,-3.4146 0.21991,-5.12274c-0.04437,-1.6995 -0.21823,-3.49256 -0.49453,-5.16813c-0.07457,-0.45218 -0.16633,-0.90139 -0.24412,-1.35303c-0.08179,-0.47486 -0.20958,-0.9452 -0.23462,-1.4264c-0.00031,-0.00599 0,-0.01251 0.00086,-0.01948c-0.57542,0.86099 -2.165,1.83466 -2.81133,2.45899c-2.81616,2.36266 -5.33755,5.04884 -7.8503,7.74304c2.0718,0.6571 4.11414,1.46612 6.22432,1.91856c1.71504,0.36772 3.45105,0.66909 5.18981,0.96919zM255.87427,394.65678c-1.85011,-0.3205 -3.69881,-0.63744 -5.52573,-1.02747c-2.55244,-0.54493 -5.00944,-1.62161 -7.53556,-2.31038c-1.44219,1.53263 -2.90267,3.0446 -4.43487,4.477c2.88993,2.48825 6.01436,4.68058 8.76475,7.35017c3.11561,-0.35666 6.21414,-1.00997 9.26353,-1.79453c-0.21743,-2.16735 -0.47596,-4.33129 -0.52864,-6.51991c-0.00141,-0.05829 -0.00256,-0.11659 -0.00349,-0.17488zM236.70269,394.28308c1.22172,-1.1317 2.39635,-2.31585 3.55098,-3.5225c-2.9137,-0.58352 -5.64845,-1.34778 -8.47796,-2.44158c-0.20442,-0.05982 -1.53863,-0.4501 -2.60657,-0.76306c1.15804,0.82454 2.27697,1.70696 3.35963,2.62693c1.50138,1.27578 2.76479,2.74586 4.17391,4.10021zM258.13531,395.05554c0.06392,1.91165 0.2896,3.80702 0.4842,5.70341c0.67122,-0.18616 1.33964,-0.3768 2.0049,-0.57012c1.84071,-0.5349 3.70538,-1.36298 5.3913,-2.27569c0.39366,-0.21312 0.71347,-0.54778 1.0625,-0.83168c-0.8186,-0.08137 -1.86,-0.51482 -2.42068,-0.55219c-2.14157,-0.62602 -4.32702,-1.07442 -6.52221,-1.47373z" fill="#ad9600"/><path d="M225.33278,407.44146c-0.09991,-1.04531 0.94541,-1.14521 0.94541,-1.14521l0.6221,-0.05946c1.32101,-0.10885 2.00437,-0.67828 3.28607,-1.01511c2.02746,-0.53281 4.36149,-0.3562 6.4601,-0.69335c2.43867,-0.39178 4.78705,-1.0815 7.26336,-1.41084c0.1255,-0.00463 0.25098,-0.00988 0.37645,-0.01574c-2.24552,-1.97758 -4.66354,-3.73486 -6.92306,-5.69373c-1.27373,1.01556 -2.66267,1.89045 -3.91218,2.93973c0,0 -0.80479,0.67453 -1.47931,-0.13026c-0.67452,-0.80479 0.13026,-1.47931 0.13026,-1.47931c1.1764,-0.98423 2.47939,-1.81752 3.68809,-2.76051c-1.59465,-1.52678 -3.05191,-3.13969 -4.80183,-4.53226c-1.1367,-0.90457 -2.54462,-1.65258 -3.62719,-2.60553c-0.49608,-0.43669 -1.4135,-0.77722 -1.36666,-1.43646c0.05695,-0.80148 0.85491,-1.49751 1.597,-1.80557c0.62492,-0.25941 1.3459,0.16167 2.0061,0.30986c0.03508,0.00788 3.68503,1.08056 3.86673,1.13393c2.8225,1.08784 5.52619,1.80854 8.46499,2.36552c0.15918,0.03017 0.3179,0.0627 0.47622,0.09734c2.63794,-2.82534 5.24364,-5.68863 8.20146,-8.16514c0.83855,-0.80479 3.23075,-3.41288 4.67591,-3.01701c1.8577,0.50888 2.03028,5.08376 2.17018,6.54034c0.26773,2.78772 -0.00321,5.54401 -0.06543,8.3191c2.17563,0.38878 4.34296,0.82138 6.46095,1.44434c1.06295,0.07084 4.26946,0.47279 4.75003,1.55395c0.2864,0.64434 -0.30909,1.40248 -0.67665,2.00422c-0.842,1.37845 -3.2411,2.14473 -4.60465,2.78777c-1.71602,0.80926 -3.48822,1.26963 -5.28757,1.68533c0.04202,0.55714 0.07443,1.11497 0.09166,1.67401c0.98854,3.50575 1.76882,7.68344 2.14552,11.33057c0.19257,1.86443 0.97068,5.23141 -2.4785,3.64212c-0.69407,-0.31981 -1.03465,-1.1289 -1.48806,-1.74406c-1.24416,-1.68802 -1.95805,-3.79443 -3.19132,-5.5058c-1.88297,-2.61294 -4.29074,-4.88451 -6.70529,-7.01051c-0.76172,0.08082 -1.53242,0.138 -2.31605,0.16636c-2.42657,0.32685 -4.71189,0.99947 -7.10275,1.39094c-2.01204,0.32944 -4.34533,0.11636 -6.26997,0.65319c-1.34479,0.37509 -2.18111,0.9218 -3.61481,1.07319l-0.62211,0.05945c0,0 -1.04531,0.0999 -1.14522,-0.94541zM249.11205,404.66003c2.58449,2.38679 4.9855,4.97294 6.80356,7.99873c0.72134,1.20051 1.35231,2.52963 2.11371,3.70804c-0.10819,-0.87776 -0.09801,-1.87247 -0.16057,-2.18992c-0.61817,-3.13675 -0.97066,-6.46695 -1.82241,-9.52134c-0.02117,-0.5089 -0.05294,-1.01666 -0.09171,-1.52371c-0.24279,0.05696 -0.48586,0.11521 -0.72915,0.17546c-2.05961,0.51008 -4.07049,0.99664 -6.11342,1.35273zM255.33694,392.82401c0.08884,-1.59464 0.24689,-3.18709 0.20526,-4.78141c-0.04142,-1.58626 -0.2037,-3.25986 -0.46159,-4.82379c-0.06959,-0.42206 -0.15524,-0.84133 -0.22785,-1.26288c-0.07634,-0.44323 -0.19562,-0.88222 -0.21899,-1.33136c-0.00029,-0.00559 -0.00001,-0.01167 0.0008,-0.01818c-0.53708,0.80363 -2.02075,1.71241 -2.62402,2.29515c-2.62852,2.20524 -4.9819,4.71244 -7.32724,7.22713c1.93376,0.61332 3.84002,1.36844 5.8096,1.79073c1.60077,0.34321 3.22111,0.62451 4.84402,0.90461zM255.28299,394.94617c-1.72683,-0.29915 -3.45236,-0.59497 -5.15756,-0.95901c-2.38237,-0.50862 -4.67567,-1.51356 -7.03348,-2.15644c-1.3461,1.43052 -2.70927,2.84174 -4.13938,4.1787c2.69737,2.32246 5.61363,4.36873 8.18076,6.86044c2.90802,-0.3329 5.8001,-0.94269 8.64632,-1.67497c-0.20294,-2.02294 -0.44425,-4.0427 -0.49342,-6.0855c-0.00131,-0.05441 -0.0024,-0.10881 -0.00325,-0.16322zM237.38879,394.59736c1.14032,-1.0563 2.23668,-2.16156 3.31438,-3.28781c-2.71957,-0.54464 -5.2721,-1.25798 -7.91309,-2.2789c-0.1908,-0.05584 -1.43612,-0.42011 -2.4329,-0.71221c1.08089,0.7696 2.12526,1.59322 3.13578,2.4519c1.40135,1.19077 2.58059,2.56291 3.89582,3.82702zM257.39338,395.31836c0.05966,1.78428 0.27031,3.55336 0.45194,5.3234c0.6265,-0.17375 1.25037,-0.35169 1.87131,-0.53213c1.71806,-0.49926 3.45849,-1.27218 5.03208,-2.12407c0.36744,-0.19892 0.66593,-0.51127 0.9917,-0.77626c-0.76405,-0.07594 -1.73606,-0.48052 -2.25939,-0.5154c-1.99888,-0.58431 -4.03872,-1.00284 -6.08765,-1.37554z" fill="#ffdf00"/></g></g></g></g></svg>