<svg version="1.1" xmlns="http://www.w3.org/2000/svg" xmlns:xlink="http://www.w3.org/1999/xlink" width="129.03372" height="129.03373" viewBox="0,0,129.03372,129.03373"><defs><radialGradient cx="385.91602" cy="299.55021" r="8.5" gradientUnits="userSpaceOnUse" id="color-1"><stop offset="0" stop-color="#5a5a5a"/><stop offset="1" stop-color="#2b2b2b"/></radialGradient><linearGradient x1="385.98752" y1="283.15504" x2="378.15477" y2="285.46642" gradientUnits="userSpaceOnUse" id="color-2"><stop offset="0" stop-color="#c2c2c2"/><stop offset="1" stop-color="#7b7b7b"/></linearGradient><radialGradient cx="370.57608" cy="247.56631" r="8.5" gradientUnits="userSpaceOnUse" id="color-3"><stop offset="0" stop-color="#8d8d8d"/><stop offset="1" stop-color="#636363"/></radialGradient><linearGradient x1="369.29259" y1="242.0068" x2="372.51907" y2="252.94068" gradientUnits="userSpaceOnUse" id="color-4"><stop offset="0" stop-color="#bebebe"/><stop offset="1" stop-color="#828282"/></linearGradient></defs><g transform="translate(-321.7289,-234.94078)"><g data-paper-data="{&quot;isPaintingLayer&quot;:true}" fill-rule="nonzero" stroke="none" stroke-width="0" stroke-linecap="butt" stroke-linejoin="miter" stroke-miterlimit="10" stroke-dasharray="" stroke-dashoffset="0" style="mix-blend-mode: normal"><g><path d="M448.10853,281.20255c10.08201,34.16586 -9.4418,70.03584 -43.60767,80.11786c-34.16586,10.08201 -70.03584,-9.4418 -80.11786,-43.60767c-10.08201,-34.16586 9.44181,-70.03585 43.60767,-80.11786c34.16586,-10.08201 70.03584,9.44181 80.11785,43.60767z" data-paper-data="{&quot;index&quot;:null}" fill="none"/><path d="M383.84006,291.30519c4.50248,-1.32864 9.22953,1.24427 10.55816,5.74675c1.32864,4.50248 -1.24427,9.22953 -5.74674,10.55817c-4.50248,1.32864 -9.22953,-1.24427 -10.55817,-5.74675c-1.32864,-4.50248 1.24428,-9.22953 5.74675,-10.55817z" data-paper-data="{&quot;index&quot;:null}" fill="url(#color-1)"/><path d="M389.78478,296.02314c0,0 1.7545,4.22274 -2.65839,5.65008c-4.36352,1.41137 -5.17437,-3.33871 -5.17437,-3.33871l-14.78332,-50.09764l7.83275,-2.31137l14.78332,50.09765z" data-paper-data="{&quot;index&quot;:null}" fill="url(#color-2)"/><path d="M368.50012,239.32128c4.50248,-1.32863 9.22953,1.24427 10.55817,5.74675c1.32864,4.50248 -1.24427,9.22953 -5.74675,10.55817c-4.50248,1.32864 -9.22953,-1.24427 -10.55817,-5.74675c-1.32864,-4.50248 1.24428,-9.22953 5.74675,-10.55817z" data-paper-data="{&quot;index&quot;:null}" fill="url(#color-3)"/><path d="M369.29259,242.0068c3.0193,-0.89096 6.18922,0.83439 7.08018,3.8537c0.89096,3.01931 -0.8344,6.18922 -3.8537,7.08019c-3.0193,0.89096 -6.18921,-0.83439 -7.08018,-3.8537c-0.89096,-3.01931 0.83439,-6.18922 3.8537,-7.08018z" data-paper-data="{&quot;index&quot;:null}" fill="url(#color-4)"/></g></g></g></svg>