<svg version="1.1" xmlns="http://www.w3.org/2000/svg" xmlns:xlink="http://www.w3.org/1999/xlink" width="676.7068" height="400.91868" viewBox="0,0,676.7068,400.91868"><defs><linearGradient x1="420.49602" y1="359.97876" x2="417.51366" y2="374.5992" gradientUnits="userSpaceOnUse" id="color-1"><stop offset="0" stop-color="#0f0f0f"/><stop offset="1" stop-color="#737373"/></linearGradient><linearGradient x1="417.28933" y1="376.69737" x2="414.32514" y2="391.2287" gradientUnits="userSpaceOnUse" id="color-2"><stop offset="0" stop-color="#0f0f0f"/><stop offset="1" stop-color="#737373"/></linearGradient><linearGradient x1="466.94213" y1="368.98399" x2="463.97793" y2="383.51532" gradientUnits="userSpaceOnUse" id="color-3"><stop offset="0" stop-color="#0f0f0f"/><stop offset="1" stop-color="#737373"/></linearGradient><linearGradient x1="463.63488" y1="385.59028" x2="460.6525" y2="400.21075" gradientUnits="userSpaceOnUse" id="color-4"><stop offset="0" stop-color="#0f0f0f"/><stop offset="1" stop-color="#737373"/></linearGradient><linearGradient x1="437.76706" y1="392.2923" x2="436.44328" y2="398.78186" gradientUnits="userSpaceOnUse" id="color-5"><stop offset="0" stop-color="#595959"/><stop offset="1" stop-color="#afafaf"/></linearGradient><linearGradient x1="444.13591" y1="361.74989" x2="442.81214" y2="368.23943" gradientUnits="userSpaceOnUse" id="color-6"><stop offset="0" stop-color="#afafaf"/><stop offset="1" stop-color="#595959"/></linearGradient><linearGradient x1="441.32202" y1="375.48238" x2="439.46105" y2="384.6054" gradientUnits="userSpaceOnUse" id="color-7"><stop offset="0" stop-color="#afafaf"/><stop offset="1" stop-color="#595959"/></linearGradient><radialGradient cx="479.79843" cy="386.11248" r="9.58901" gradientUnits="userSpaceOnUse" id="color-8"><stop offset="0" stop-color="#656565"/><stop offset="1" stop-color="#404040"/></radialGradient><linearGradient x1="451.5562" y1="353.70609" x2="440.68634" y2="406.99317" gradientUnits="userSpaceOnUse" id="color-9"><stop offset="0" stop-color="#80cb83"/><stop offset="1" stop-color="#39853c"/></linearGradient><linearGradient x1="339.78983" y1="343.51578" x2="336.80745" y2="358.13622" gradientUnits="userSpaceOnUse" id="color-10"><stop offset="0" stop-color="#0f0f0f"/><stop offset="1" stop-color="#737373"/></linearGradient><linearGradient x1="336.58316" y1="360.23439" x2="333.61896" y2="374.76572" gradientUnits="userSpaceOnUse" id="color-11"><stop offset="0" stop-color="#0f0f0f"/><stop offset="1" stop-color="#737373"/></linearGradient><linearGradient x1="386.23591" y1="352.521" x2="383.27172" y2="367.05233" gradientUnits="userSpaceOnUse" id="color-12"><stop offset="0" stop-color="#0f0f0f"/><stop offset="1" stop-color="#737373"/></linearGradient><linearGradient x1="382.92866" y1="369.12729" x2="379.94629" y2="383.74776" gradientUnits="userSpaceOnUse" id="color-13"><stop offset="0" stop-color="#0f0f0f"/><stop offset="1" stop-color="#737373"/></linearGradient><linearGradient x1="357.06085" y1="375.82932" x2="355.73707" y2="382.31887" gradientUnits="userSpaceOnUse" id="color-14"><stop offset="0" stop-color="#595959"/><stop offset="1" stop-color="#afafaf"/></linearGradient><linearGradient x1="363.42974" y1="345.28691" x2="362.10596" y2="351.77645" gradientUnits="userSpaceOnUse" id="color-15"><stop offset="0" stop-color="#afafaf"/><stop offset="1" stop-color="#595959"/></linearGradient><linearGradient x1="360.61586" y1="359.0194" x2="358.75489" y2="368.14242" gradientUnits="userSpaceOnUse" id="color-16"><stop offset="0" stop-color="#afafaf"/><stop offset="1" stop-color="#595959"/></linearGradient><radialGradient cx="399.09225" cy="369.6495" r="9.58901" gradientUnits="userSpaceOnUse" id="color-17"><stop offset="0" stop-color="#656565"/><stop offset="1" stop-color="#404040"/></radialGradient><linearGradient x1="370.84998" y1="337.24311" x2="359.98014" y2="390.53019" gradientUnits="userSpaceOnUse" id="color-18"><stop offset="0" stop-color="#80cb83"/><stop offset="1" stop-color="#39853c"/></linearGradient><linearGradient x1="558.64558" y1="400.07939" x2="548.13062" y2="425.75426" gradientUnits="userSpaceOnUse" id="color-19"><stop offset="0" stop-color="#446b45"/><stop offset="1" stop-color="#235124"/></linearGradient><linearGradient x1="564.53123" y1="399.7896" x2="554.94762" y2="425.82645" gradientUnits="userSpaceOnUse" id="color-20"><stop offset="0" stop-color="#5f9761"/><stop offset="1" stop-color="#2f6e31"/></linearGradient><linearGradient x1="565.48547" y1="398.41693" x2="559.94013" y2="425.60173" gradientUnits="userSpaceOnUse" id="color-21"><stop offset="0" stop-color="#80cb83"/><stop offset="1" stop-color="#39853c"/></linearGradient><linearGradient x1="517.99265" y1="383.3439" x2="513.12053" y2="407.22844" gradientUnits="userSpaceOnUse" id="color-22"><stop offset="0" stop-color="#80cb83"/><stop offset="1" stop-color="#39853c"/></linearGradient><linearGradient x1="512.58621" y1="390.44078" x2="504.72794" y2="428.96426" gradientUnits="userSpaceOnUse" id="color-23"><stop offset="0" stop-color="#80cb83"/><stop offset="1" stop-color="#39853c"/></linearGradient><linearGradient x1="63.73985" y1="367.98304" x2="68.26655" y2="382.20136" gradientUnits="userSpaceOnUse" id="color-24"><stop offset="0" stop-color="#0f0f0f"/><stop offset="1" stop-color="#737373"/></linearGradient><linearGradient x1="68.71368" y1="384.26357" x2="73.21279" y2="398.39523" gradientUnits="userSpaceOnUse" id="color-25"><stop offset="0" stop-color="#0f0f0f"/><stop offset="1" stop-color="#737373"/></linearGradient><linearGradient x1="18.52107" y1="381.89696" x2="23.02018" y2="396.02862" gradientUnits="userSpaceOnUse" id="color-26"><stop offset="0" stop-color="#0f0f0f"/><stop offset="1" stop-color="#737373"/></linearGradient><linearGradient x1="23.5829" y1="398.05507" x2="28.10961" y2="412.27342" gradientUnits="userSpaceOnUse" id="color-27"><stop offset="0" stop-color="#0f0f0f"/><stop offset="1" stop-color="#737373"/></linearGradient><linearGradient x1="50.01853" y1="401.95623" x2="52.02779" y2="408.26729" gradientUnits="userSpaceOnUse" id="color-28"><stop offset="0" stop-color="#595959"/><stop offset="1" stop-color="#afafaf"/></linearGradient><linearGradient x1="40.4243" y1="372.26865" x2="42.43355" y2="378.5797" gradientUnits="userSpaceOnUse" id="color-29"><stop offset="0" stop-color="#afafaf"/><stop offset="1" stop-color="#595959"/></linearGradient><linearGradient x1="44.68867" y1="385.62208" x2="47.51329" y2="394.49419" gradientUnits="userSpaceOnUse" id="color-30"><stop offset="0" stop-color="#afafaf"/><stop offset="1" stop-color="#595959"/></linearGradient><radialGradient cx="7.56755" cy="400.30045" r="9.58901" gradientUnits="userSpaceOnUse" id="color-31"><stop offset="0" stop-color="#656565"/><stop offset="1" stop-color="#404040"/></radialGradient><linearGradient x1="32.18746" y1="365.06328" x2="48.68591" y2="416.88478" gradientUnits="userSpaceOnUse" id="color-32"><stop offset="0" stop-color="#80cb83"/><stop offset="1" stop-color="#39853c"/></linearGradient><linearGradient x1="142.22637" y1="342.99522" x2="146.75307" y2="357.21355" gradientUnits="userSpaceOnUse" id="color-33"><stop offset="0" stop-color="#0f0f0f"/><stop offset="1" stop-color="#737373"/></linearGradient><linearGradient x1="147.20015" y1="359.27577" x2="151.69926" y2="373.40742" gradientUnits="userSpaceOnUse" id="color-34"><stop offset="0" stop-color="#0f0f0f"/><stop offset="1" stop-color="#737373"/></linearGradient><linearGradient x1="97.0076" y1="356.90914" x2="101.50671" y2="371.04079" gradientUnits="userSpaceOnUse" id="color-35"><stop offset="0" stop-color="#0f0f0f"/><stop offset="1" stop-color="#737373"/></linearGradient><linearGradient x1="102.0694" y1="373.06726" x2="106.59611" y2="387.2856" gradientUnits="userSpaceOnUse" id="color-36"><stop offset="0" stop-color="#0f0f0f"/><stop offset="1" stop-color="#737373"/></linearGradient><linearGradient x1="128.50503" y1="376.96842" x2="130.51429" y2="383.27948" gradientUnits="userSpaceOnUse" id="color-37"><stop offset="0" stop-color="#595959"/><stop offset="1" stop-color="#afafaf"/></linearGradient><linearGradient x1="118.91081" y1="347.28083" x2="120.92006" y2="353.59189" gradientUnits="userSpaceOnUse" id="color-38"><stop offset="0" stop-color="#afafaf"/><stop offset="1" stop-color="#595959"/></linearGradient><linearGradient x1="123.17514" y1="360.63427" x2="125.99976" y2="369.5064" gradientUnits="userSpaceOnUse" id="color-39"><stop offset="0" stop-color="#afafaf"/><stop offset="1" stop-color="#595959"/></linearGradient><radialGradient cx="86.05403" cy="375.31265" r="9.58901" gradientUnits="userSpaceOnUse" id="color-40"><stop offset="0" stop-color="#656565"/><stop offset="1" stop-color="#404040"/></radialGradient><linearGradient x1="110.67395" y1="340.07547" x2="127.1724" y2="391.89696" gradientUnits="userSpaceOnUse" id="color-41"><stop offset="0" stop-color="#80cb83"/><stop offset="1" stop-color="#39853c"/></linearGradient><linearGradient x1="-69.33709" y1="422.60793" x2="-56.14033" y2="447.01303" gradientUnits="userSpaceOnUse" id="color-42"><stop offset="0" stop-color="#446b45"/><stop offset="1" stop-color="#235124"/></linearGradient><linearGradient x1="-75.22002" y1="422.94836" x2="-62.91063" y2="447.81284" gradientUnits="userSpaceOnUse" id="color-43"><stop offset="0" stop-color="#5f9761"/><stop offset="1" stop-color="#2f6e31"/></linearGradient><linearGradient x1="-76.3154" y1="421.68545" x2="-67.8986" y2="448.12257" gradientUnits="userSpaceOnUse" id="color-44"><stop offset="0" stop-color="#80cb83"/><stop offset="1" stop-color="#39853c"/></linearGradient><linearGradient x1="-30.70392" y1="401.62665" x2="-23.30892" y2="424.85428" gradientUnits="userSpaceOnUse" id="color-45"><stop offset="0" stop-color="#80cb83"/><stop offset="1" stop-color="#39853c"/></linearGradient><linearGradient x1="-24.5705" y1="408.10557" x2="-12.64308" y2="445.56951" gradientUnits="userSpaceOnUse" id="color-46"><stop offset="0" stop-color="#80cb83"/><stop offset="1" stop-color="#39853c"/></linearGradient><linearGradient x1="234.06373" y1="297.24729" x2="244.1439" y2="297.24729" gradientUnits="userSpaceOnUse" id="color-47"><stop offset="0" stop-color="#afafaf"/><stop offset="1" stop-color="#595959"/></linearGradient><linearGradient x1="241.6614" y1="365.90105" x2="241.6614" y2="377.62793" gradientUnits="userSpaceOnUse" id="color-48"><stop offset="0" stop-color="#afafaf"/><stop offset="1" stop-color="#595959"/></linearGradient><linearGradient x1="189.5713" y1="361.77443" x2="189.5713" y2="381.80784" gradientUnits="userSpaceOnUse" id="color-49"><stop offset="0" stop-color="#7c7c7c"/><stop offset="1" stop-color="#111111"/></linearGradient><linearGradient x1="208.42765" y1="362.5387" x2="208.42765" y2="382.57211" gradientUnits="userSpaceOnUse" id="color-50"><stop offset="0" stop-color="#7c7c7c"/><stop offset="1" stop-color="#111111"/></linearGradient><linearGradient x1="274.2657" y1="361.98863" x2="274.2657" y2="382.02204" gradientUnits="userSpaceOnUse" id="color-51"><stop offset="0" stop-color="#7c7c7c"/><stop offset="1" stop-color="#111111"/></linearGradient><linearGradient x1="293.12203" y1="362.7529" x2="293.12203" y2="382.78632" gradientUnits="userSpaceOnUse" id="color-52"><stop offset="0" stop-color="#7c7c7c"/><stop offset="1" stop-color="#111111"/></linearGradient><linearGradient x1="241.6614" y1="396.72285" x2="241.6614" y2="408.44974" gradientUnits="userSpaceOnUse" id="color-53"><stop offset="0" stop-color="#afafaf"/><stop offset="1" stop-color="#595959"/></linearGradient><linearGradient x1="194.22882" y1="392.59624" x2="194.22882" y2="412.62964" gradientUnits="userSpaceOnUse" id="color-54"><stop offset="0" stop-color="#7c7c7c"/><stop offset="1" stop-color="#111111"/></linearGradient><linearGradient x1="211.39916" y1="393.36052" x2="211.39916" y2="413.39393" gradientUnits="userSpaceOnUse" id="color-55"><stop offset="0" stop-color="#7c7c7c"/><stop offset="1" stop-color="#111111"/></linearGradient><linearGradient x1="271.35045" y1="392.81043" x2="271.35045" y2="412.84384" gradientUnits="userSpaceOnUse" id="color-56"><stop offset="0" stop-color="#7c7c7c"/><stop offset="1" stop-color="#111111"/></linearGradient><linearGradient x1="288.52084" y1="393.57472" x2="288.52084" y2="413.60813" gradientUnits="userSpaceOnUse" id="color-57"><stop offset="0" stop-color="#7c7c7c"/><stop offset="1" stop-color="#111111"/></linearGradient><linearGradient x1="241.6614" y1="427.54469" x2="241.6614" y2="439.27156" gradientUnits="userSpaceOnUse" id="color-58"><stop offset="0" stop-color="#afafaf"/><stop offset="1" stop-color="#595959"/></linearGradient><linearGradient x1="200.05073" y1="423.41807" x2="200.05073" y2="443.45146" gradientUnits="userSpaceOnUse" id="color-59"><stop offset="0" stop-color="#7c7c7c"/><stop offset="1" stop-color="#111111"/></linearGradient><linearGradient x1="215.11357" y1="424.18234" x2="215.11357" y2="444.21576" gradientUnits="userSpaceOnUse" id="color-60"><stop offset="0" stop-color="#7c7c7c"/><stop offset="1" stop-color="#111111"/></linearGradient><linearGradient x1="267.70642" y1="423.63227" x2="267.70642" y2="443.66568" gradientUnits="userSpaceOnUse" id="color-61"><stop offset="0" stop-color="#7c7c7c"/><stop offset="1" stop-color="#111111"/></linearGradient><linearGradient x1="282.76925" y1="424.39654" x2="282.76925" y2="444.42996" gradientUnits="userSpaceOnUse" id="color-62"><stop offset="0" stop-color="#7c7c7c"/><stop offset="1" stop-color="#111111"/></linearGradient><linearGradient x1="226.7779" y1="414.48824" x2="253.53469" y2="414.48824" gradientUnits="userSpaceOnUse" id="color-63"><stop offset="0" stop-color="#afafaf"/><stop offset="1" stop-color="#595959"/></linearGradient><linearGradient x1="240.74871" y1="349.48486" x2="240.74871" y2="355.64924" gradientUnits="userSpaceOnUse" id="color-64"><stop offset="0" stop-color="#afafaf"/><stop offset="1" stop-color="#595959"/></linearGradient><radialGradient cx="324.99497" cy="350.16978" r="9.58901" gradientUnits="userSpaceOnUse" id="color-65"><stop offset="0" stop-color="#656565"/><stop offset="1" stop-color="#404040"/></radialGradient><linearGradient x1="239.97346" y1="345.45302" x2="239.97346" y2="360.52146" gradientUnits="userSpaceOnUse" id="color-66"><stop offset="0" stop-color="#595959"/><stop offset="1" stop-color="#393939"/></linearGradient><radialGradient cx="160.61198" cy="350.16978" r="9.58901" gradientUnits="userSpaceOnUse" id="color-67"><stop offset="0" stop-color="#656565"/><stop offset="1" stop-color="#404040"/></radialGradient><linearGradient x1="226.29054" y1="494.44109" x2="254.069" y2="494.44109" gradientUnits="userSpaceOnUse" id="color-68"><stop offset="0" stop-color="#595959"/><stop offset="1" stop-color="#393939"/></linearGradient><linearGradient x1="224.18549" y1="484.96841" x2="256.17404" y2="484.96841" gradientUnits="userSpaceOnUse" id="color-69"><stop offset="0" stop-color="#393939"/><stop offset="1" stop-color="#151515"/></linearGradient><linearGradient x1="224.18549" y1="496.01989" x2="256.17404" y2="496.01989" gradientUnits="userSpaceOnUse" id="color-70"><stop offset="0" stop-color="#393939"/><stop offset="1" stop-color="#151515"/></linearGradient><radialGradient cx="164.90884" cy="337.58216" r="23.23214" gradientUnits="userSpaceOnUse" id="color-71"><stop offset="0" stop-color="#80cb83"/><stop offset="1" stop-color="#39853c"/></radialGradient><radialGradient cx="317.07618" cy="337.58216" r="23.23214" gradientUnits="userSpaceOnUse" id="color-72"><stop offset="0" stop-color="#80cb83"/><stop offset="1" stop-color="#39853c"/></radialGradient><linearGradient x1="240.5943" y1="315.53168" x2="240.5943" y2="510.04991" gradientUnits="userSpaceOnUse" id="color-73"><stop offset="0" stop-color="#80cb83"/><stop offset="1" stop-color="#39853c"/></linearGradient><radialGradient cx="252.64673" cy="377.95979" r="82.16967" gradientUnits="userSpaceOnUse" id="color-74"><stop offset="0" stop-color="#bef3c0"/><stop offset="1" stop-color="#9ecba0"/></radialGradient><radialGradient cx="236.13594" cy="352.94397" r="21.82799" gradientUnits="userSpaceOnUse" id="color-75"><stop offset="0" stop-color="#650000"/><stop offset="1" stop-color="#900000"/></radialGradient><radialGradient cx="245.84036" cy="352.94397" r="21.82799" gradientUnits="userSpaceOnUse" id="color-76"><stop offset="0" stop-color="#650000"/><stop offset="1" stop-color="#900000"/></radialGradient><radialGradient cx="241.46541" cy="352.48112" r="12.87697" gradientUnits="userSpaceOnUse" id="color-77"><stop offset="0" stop-color="#c20000"/><stop offset="1" stop-color="#900000"/></radialGradient><linearGradient x1="231.03046" y1="384.09161" x2="250.85876" y2="384.09161" gradientUnits="userSpaceOnUse" id="color-78"><stop offset="0" stop-color="#383838"/><stop offset="1" stop-color="#0a0a0a"/></linearGradient><linearGradient x1="231.03046" y1="384.09161" x2="250.85876" y2="384.09161" gradientUnits="userSpaceOnUse" id="color-79"><stop offset="0" stop-color="#0a0a0a"/><stop offset="1" stop-color="#383838"/></linearGradient><linearGradient x1="231.03046" y1="414.81488" x2="250.85876" y2="414.81488" gradientUnits="userSpaceOnUse" id="color-80"><stop offset="0" stop-color="#383838"/><stop offset="1" stop-color="#0a0a0a"/></linearGradient><linearGradient x1="231.03046" y1="414.81488" x2="250.85876" y2="414.81488" gradientUnits="userSpaceOnUse" id="color-81"><stop offset="0" stop-color="#0a0a0a"/><stop offset="1" stop-color="#383838"/></linearGradient><linearGradient x1="240.10117" y1="258.22251" x2="240.10117" y2="337.30188" gradientUnits="userSpaceOnUse" id="color-82"><stop offset="0" stop-color="#80cb83"/><stop offset="1" stop-color="#39853c"/></linearGradient><linearGradient x1="240.10117" y1="303.20274" x2="240.10117" y2="350.02355" gradientUnits="userSpaceOnUse" id="color-83"><stop offset="0" stop-color="#80cb83"/><stop offset="1" stop-color="#39853c"/></linearGradient><linearGradient x1="239.79623" y1="258.42863" x2="239.79623" y2="331.94171" gradientUnits="userSpaceOnUse" id="color-84"><stop offset="0" stop-color="#330000"/><stop offset="1" stop-color="#9c0000"/></linearGradient><linearGradient x1="239.54283" y1="274.22172" x2="239.54283" y2="276.25304" gradientUnits="userSpaceOnUse" id="color-85"><stop offset="0" stop-color="#898989"/><stop offset="1" stop-color="#2e2e2e"/></linearGradient><linearGradient x1="239.50152" y1="281.01413" x2="239.50152" y2="295.07594" gradientUnits="userSpaceOnUse" id="color-86"><stop offset="0" stop-color="#8a8a8a"/><stop offset="1" stop-color="#0f0f0f"/></linearGradient><linearGradient x1="239.50152" y1="279.72663" x2="239.50152" y2="293.78844" gradientUnits="userSpaceOnUse" id="color-87"><stop offset="0" stop-color="#898989"/><stop offset="1" stop-color="#2e2e2e"/></linearGradient><linearGradient x1="239.54272" y1="188.45152" x2="239.54272" y2="193.59467" gradientUnits="userSpaceOnUse" id="color-88"><stop offset="0" stop-color="#afafaf"/><stop offset="1" stop-color="#7a7a7a"/></linearGradient><linearGradient x1="193.67291" y1="184.11604" x2="193.67291" y2="240.89062" gradientUnits="userSpaceOnUse" id="color-89"><stop offset="0" stop-color="#afafaf"/><stop offset="1" stop-color="#7a7a7a"/></linearGradient><linearGradient x1="285.26233" y1="184.11604" x2="285.26233" y2="240.89062" gradientUnits="userSpaceOnUse" id="color-90"><stop offset="0" stop-color="#afafaf"/><stop offset="1" stop-color="#7a7a7a"/></linearGradient><linearGradient x1="239.73393" y1="220.14165" x2="239.73393" y2="264.36752" gradientUnits="userSpaceOnUse" id="color-91"><stop offset="0" stop-color="#424242"/><stop offset="1" stop-color="#000000"/></linearGradient><linearGradient x1="239.20037" y1="207.39821" x2="239.20037" y2="214.08567" gradientUnits="userSpaceOnUse" id="color-92"><stop offset="0" stop-color="#b8b8b8"/><stop offset="1" stop-color="#313131"/></linearGradient><radialGradient cx="212.1384" cy="210.84177" r="22.2878" gradientUnits="userSpaceOnUse" id="color-93"><stop offset="0" stop-color="#ffffff"/><stop offset="1" stop-color="#cccccc"/></radialGradient><radialGradient cx="266.28124" cy="210.84177" r="22.2878" gradientUnits="userSpaceOnUse" id="color-94"><stop offset="0" stop-color="#ffffff"/><stop offset="1" stop-color="#cccccc"/></radialGradient><linearGradient x1="239.30543" y1="185.8214" x2="239.00551" y2="243.73743" gradientUnits="userSpaceOnUse" id="color-95"><stop offset="0" stop-color="#9d9d9d"/><stop offset="1" stop-color="#6e6e6e"/></linearGradient><linearGradient x1="251.2644" y1="241.74762" x2="251.2644" y2="277.51934" gradientUnits="userSpaceOnUse" id="color-96"><stop offset="0" stop-color="#afafaf"/><stop offset="1" stop-color="#595959"/></linearGradient><linearGradient x1="227.93501" y1="241.74762" x2="227.93501" y2="277.51934" gradientUnits="userSpaceOnUse" id="color-97"><stop offset="0" stop-color="#afafaf"/><stop offset="1" stop-color="#595959"/></linearGradient><linearGradient x1="294.85386" y1="207.45142" x2="294.4509" y2="245.72994" gradientUnits="userSpaceOnUse" id="color-98"><stop offset="0" stop-color="#afafaf"/><stop offset="1" stop-color="#595959"/></linearGradient><linearGradient x1="175.95146" y1="168.4547" x2="178.62514" y2="165.80483" gradientUnits="userSpaceOnUse" id="color-99"><stop offset="0" stop-color="#d3d3d3"/><stop offset="1" stop-color="#868686"/></linearGradient><linearGradient x1="132.33463" y1="121.09247" x2="173.31077" y2="162.43715" gradientUnits="userSpaceOnUse" id="color-100"><stop offset="0" stop-color="#80cb83"/><stop offset="1" stop-color="#39853c"/></linearGradient><radialGradient cx="155.26712" cy="144.88112" r="26.04122" gradientUnits="userSpaceOnUse" id="color-101"><stop offset="0" stop-color="#bef3c0"/><stop offset="1" stop-color="#7da17f"/></radialGradient><radialGradient cx="193.67291" cy="183.63328" r="3.57254" gradientUnits="userSpaceOnUse" id="color-102"><stop offset="0" stop-color="#a9a9a9"/><stop offset="1" stop-color="#5d5d5d"/></radialGradient><linearGradient x1="302.98383" y1="168.4547" x2="300.31015" y2="165.80483" gradientUnits="userSpaceOnUse" id="color-103"><stop offset="0" stop-color="#d3d3d3"/><stop offset="1" stop-color="#868686"/></linearGradient><linearGradient x1="346.60066" y1="121.09247" x2="305.62452" y2="162.43715" gradientUnits="userSpaceOnUse" id="color-104"><stop offset="0" stop-color="#80cb83"/><stop offset="1" stop-color="#39853c"/></linearGradient><radialGradient cx="323.66817" cy="144.88112" r="26.04122" gradientUnits="userSpaceOnUse" id="color-105"><stop offset="0" stop-color="#bef3c0"/><stop offset="1" stop-color="#7da17f"/></radialGradient><radialGradient cx="285.26233" cy="183.63328" r="3.57254" gradientUnits="userSpaceOnUse" id="color-106"><stop offset="0" stop-color="#a9a9a9"/><stop offset="1" stop-color="#5d5d5d"/></radialGradient><linearGradient x1="239.15789" y1="151.96709" x2="239.15789" y2="268.61091" gradientUnits="userSpaceOnUse" id="color-107"><stop offset="0" stop-color="#80cb83"/><stop offset="1" stop-color="#39853c"/></linearGradient><linearGradient x1="155.08586" y1="230.77623" x2="149.07457" y2="257.89659" gradientUnits="userSpaceOnUse" id="color-108"><stop offset="0" stop-color="#bef3c0"/><stop offset="1" stop-color="#9ecba0"/></linearGradient><linearGradient x1="153.61785" y1="240.15714" x2="151.13428" y2="267.82449" gradientUnits="userSpaceOnUse" id="color-109"><stop offset="0" stop-color="#bef3c0"/><stop offset="1" stop-color="#9ecba0"/></linearGradient><linearGradient x1="149.70049" y1="248.9297" x2="151.60823" y2="276.64272" gradientUnits="userSpaceOnUse" id="color-110"><stop offset="0" stop-color="#bef3c0"/><stop offset="1" stop-color="#9ecba0"/></linearGradient><linearGradient x1="150.94672" y1="258.34267" x2="156.39276" y2="285.58219" gradientUnits="userSpaceOnUse" id="color-111"><stop offset="0" stop-color="#bef3c0"/><stop offset="1" stop-color="#9ecba0"/></linearGradient><linearGradient x1="150.17364" y1="265.89969" x2="161.42511" y2="291.29762" gradientUnits="userSpaceOnUse" id="color-112"><stop offset="0" stop-color="#bef3c0"/><stop offset="1" stop-color="#9ecba0"/></linearGradient><linearGradient x1="320.68684" y1="230.77623" x2="326.69815" y2="257.89659" gradientUnits="userSpaceOnUse" id="color-113"><stop offset="0" stop-color="#bef3c0"/><stop offset="1" stop-color="#9ecba0"/></linearGradient><linearGradient x1="322.15485" y1="240.15714" x2="324.63837" y2="267.82449" gradientUnits="userSpaceOnUse" id="color-114"><stop offset="0" stop-color="#bef3c0"/><stop offset="1" stop-color="#9ecba0"/></linearGradient><linearGradient x1="326.07222" y1="248.9297" x2="324.16445" y2="276.64272" gradientUnits="userSpaceOnUse" id="color-115"><stop offset="0" stop-color="#bef3c0"/><stop offset="1" stop-color="#9ecba0"/></linearGradient><linearGradient x1="324.82592" y1="258.34267" x2="319.3799" y2="285.58219" gradientUnits="userSpaceOnUse" id="color-116"><stop offset="0" stop-color="#bef3c0"/><stop offset="1" stop-color="#9ecba0"/></linearGradient><linearGradient x1="325.59908" y1="265.89969" x2="314.34759" y2="291.29762" gradientUnits="userSpaceOnUse" id="color-117"><stop offset="0" stop-color="#bef3c0"/><stop offset="1" stop-color="#9ecba0"/></linearGradient><radialGradient cx="223.00196" cy="248.35861" r="35.91052" gradientUnits="userSpaceOnUse" id="color-118"><stop offset="0" stop-color="#bef3c0"/><stop offset="1" stop-color="#9ecba0"/></radialGradient><radialGradient cx="280.93099" cy="245.70825" r="35.91052" gradientUnits="userSpaceOnUse" id="color-119"><stop offset="0" stop-color="#bef3c0"/><stop offset="1" stop-color="#9ecba0"/></radialGradient><radialGradient cx="241.33506" cy="232.63863" r="10.38296" gradientUnits="userSpaceOnUse" id="color-120"><stop offset="0" stop-color="#858585"/><stop offset="1" stop-color="#000000"/></radialGradient></defs><g transform="translate(92.48591,-115.85009)"><g data-paper-data="{&quot;isPaintingLayer&quot;:true}" fill-rule="nonzero" stroke-linecap="butt" stroke-linejoin="miter" stroke-miterlimit="10" stroke-dasharray="" stroke-dashoffset="0" style="mix-blend-mode: normal"><path d="M313.67116,416.50309c-3.84485,40.89295 -5.83448,47.29709 -9.6366,66.67079c-5.64867,28.78287 -62.93319,26.67291 -62.93319,26.67291c0,0 -57.70271,3.97312 -63.251,-29.08544c-2.76966,-16.5026 -7.71638,-34.33531 -9.34714,-65.11686c-1.63076,-30.78158 -13.25915,-98.79012 70.02162,-100.08885c78.83756,-1.22944 79.51548,54.47787 75.14628,100.94746z" data-paper-data="{&quot;index&quot;:null}" fill="#484848" stroke="#000000" stroke-width="0"/><g data-paper-data="{&quot;index&quot;:null}" stroke="none"><path d="M418.01657,352.1303c9.36534,-4.21634 56.72125,11.12782 63.68963,17.42071c3.18093,2.87261 -2.83462,35.07858 -6.97834,36.63862c-9.01231,3.39291 -60.64283,-2.57549 -66.18992,-9.61223c-5.5471,-7.03672 0.11329,-40.23077 9.47863,-44.44711z" fill="#484848" stroke-width="0"/><g><g><path d="M406.04529,369.9321c1.2565,-1.91062 3.16711,-0.6541 3.16711,-0.6541l1.41963,1.01115c2.75147,0.98311 5.40231,1.99324 8.06353,3.01866c2.18461,-1.56816 4.45041,-3.55081 7.25918,-4.41555c3.84445,-1.18357 10.20179,1.27108 13.72948,2.63613c1.6389,1.13881 2.93333,2.27722 4.02855,3.53006c6.78968,-1.44486 13.79006,-2.22713 20.11437,1.41501c2.50618,1.44329 4.10208,3.36736 5.6392,5.41839c3.00836,0.30938 6.06013,2.02833 8.73044,3.05292c0,0 2.135,0.81917 1.31579,2.95417c-0.81917,2.135 -2.95417,1.31579 -2.95417,1.31579c-1.03389,-0.39671 -2.38916,-1.11781 -3.79587,-1.73222c-0.09126,0.40804 -0.33069,0.83745 -0.81879,1.2443c-1.7566,1.46411 -3.2207,-0.29249 -3.2207,-0.29249c-0.49168,-0.5956 -0.94099,-1.20308 -1.37462,-1.80937c-5.83395,1.62694 -11.51902,7.98059 -18.20003,4.75317c-4.27386,-2.0646 -5.46219,-6.97044 -7.68326,-11.09652c-1.63784,0.39583 -3.24735,0.77868 -4.80854,1.06514c-4.87451,0.89437 -10.21465,-1.02145 -14.98518,-2.00686c-0.57623,-0.22092 -1.1488,-0.44108 -1.71892,-0.66049c-0.64391,0.47424 -1.30749,0.88631 -2.01062,1.18894c-4.10799,1.76812 -9.11743,-0.4202 -12.09974,-3.09796l-2.11268,-1.20226c0,0 -1.9811,-1.14212 -0.83895,-3.12322c0.83114,-1.44163 2.10653,-1.22938 2.73951,-1.00689c-0.05056,-0.4346 0.04432,-0.94175 0.41534,-1.50594zM461.572,380.45231c-4.72313,-2.72699 -9.95102,-2.35815 -15.10141,-1.31939c0.36984,0.69246 0.72854,1.42817 1.08827,2.21672c0.88245,1.93442 1.32859,4.85563 3.50869,5.87715c4.1543,1.94656 9.27503,-2.26785 13.48369,-4.31405c-0.83034,-0.92582 -1.77928,-1.7676 -2.97925,-2.46043zM435.71144,376.87194c0.89733,-0.19003 1.8055,-0.39626 2.72219,-0.60869c-0.27898,-0.24429 -0.57386,-0.47539 -0.88672,-0.69148c-2.25298,-0.85394 -7.99286,-3.19506 -10.3545,-2.27668c-1.13612,0.44182 -2.15569,1.12727 -3.1237,1.90172c3.67124,0.87591 8.08863,2.4278 11.64274,1.67514z" fill="#000000" stroke-width="0.5"/><path d="M414.85277,374.05644l-1.80927,-1.52337l10.11343,-12.01154l1.80928,1.52333z" fill="url(#color-1)" stroke-width="0"/><path d="M419.35514,391.06586l-2.24971,0.72998l-4.8461,-14.93564l2.24971,-0.72998z" data-paper-data="{&quot;index&quot;:null}" fill="url(#color-2)" stroke-width="0"/><path d="M461.91214,369.14683l2.24971,-0.72998l4.8461,14.93564l-2.24971,0.72998z" data-paper-data="{&quot;index&quot;:null}" fill="url(#color-3)" stroke-width="0"/><path d="M466.29577,386.13306l1.80925,1.52335l-10.11341,12.01154l-1.80927,-1.52337z" data-paper-data="{&quot;index&quot;:null}" fill="url(#color-4)" stroke-width="0"/><path d="M462.47922,403.65045l-51.93557,-10.15176l1.18744,-6.07496l51.93557,10.15176z" fill="url(#color-5)" stroke-width="0"/><path d="M468.84811,373.10803l-51.93557,-10.15176l1.18744,-6.07496l51.93557,10.15176z" fill="url(#color-6)" stroke-width="0"/><path d="M476.06255,391.44969l-73.01125,-14.27138l1.66933,-8.54018l73.01125,14.27138z" fill="url(#color-7)" stroke-width="0"/></g><path d="M483.31759,379.14097c4.81836,0.98288 7.86632,5.98617 6.80784,11.17519c-1.05849,5.18902 -5.8226,8.59875 -10.64096,7.61587c-4.81836,-0.98288 -7.86634,-5.98617 -6.80786,-11.17519c1.05849,-5.18902 5.82263,-8.59875 10.64099,-7.61587z" fill="url(#color-8)" stroke-width="0"/></g><path d="M418.01657,352.1303c9.36534,-4.21634 56.72125,11.12782 63.68963,17.42071c3.18093,2.87261 -2.83462,35.07858 -6.97834,36.63862c-9.01231,3.39291 -60.64283,-2.57549 -66.18992,-9.61223c-5.5471,-7.03672 0.11329,-40.23077 9.47863,-44.44711z" fill="url(#color-9)" stroke-width="0"/></g><g data-paper-data="{&quot;index&quot;:null}" stroke="none"><path d="M337.31036,335.66732c9.36534,-4.21634 56.72125,11.12782 63.68963,17.42071c3.18093,2.87261 -2.83462,35.07858 -6.97834,36.63862c-9.01231,3.39291 -60.64283,-2.57549 -66.18992,-9.61223c-5.5471,-7.03672 0.11329,-40.23077 9.47863,-44.44711z" fill="#484848" stroke-width="0"/><g><g><path d="M325.33909,353.46912c1.2565,-1.91062 3.16711,-0.6541 3.16711,-0.6541l1.41963,1.01115c2.75147,0.98311 5.40231,1.99324 8.06353,3.01866c2.18461,-1.56816 4.45041,-3.55081 7.25918,-4.41555c3.84445,-1.18357 10.20179,1.27108 13.72948,2.63613c1.6389,1.13881 2.93333,2.27722 4.02855,3.53006c6.78968,-1.44486 13.79006,-2.22713 20.11437,1.41501c2.50618,1.44329 4.10208,3.36736 5.6392,5.41839c3.00836,0.30938 6.06013,2.02833 8.73044,3.05292c0,0 2.135,0.81917 1.31579,2.95417c-0.81917,2.135 -2.95417,1.31579 -2.95417,1.31579c-1.03389,-0.39671 -2.38916,-1.11781 -3.79587,-1.73222c-0.09126,0.40804 -0.33069,0.83745 -0.81879,1.2443c-1.7566,1.46411 -3.2207,-0.29249 -3.2207,-0.29249c-0.49168,-0.5956 -0.94099,-1.20308 -1.37462,-1.80937c-5.83395,1.62694 -11.51902,7.98059 -18.20003,4.75317c-4.27386,-2.0646 -5.46219,-6.97044 -7.68326,-11.09652c-1.63784,0.39583 -3.24735,0.77868 -4.80854,1.06514c-4.87451,0.89437 -10.21465,-1.02145 -14.98518,-2.00686c-0.57623,-0.22092 -1.1488,-0.44108 -1.71892,-0.66049c-0.64391,0.47424 -1.30749,0.88631 -2.01062,1.18894c-4.10799,1.76812 -9.11743,-0.4202 -12.09974,-3.09796l-2.11268,-1.20226c0,0 -1.9811,-1.14212 -0.83895,-3.12322c0.83114,-1.44163 2.10653,-1.22938 2.73951,-1.00689c-0.05056,-0.4346 0.04432,-0.94175 0.41534,-1.50594zM380.86582,363.98933c-4.72313,-2.72699 -9.95102,-2.35815 -15.10141,-1.31939c0.36984,0.69246 0.72854,1.42817 1.08827,2.21672c0.88245,1.93442 1.32859,4.85563 3.50869,5.87715c4.1543,1.94656 9.27503,-2.26785 13.48369,-4.31405c-0.83034,-0.92582 -1.77928,-1.7676 -2.97925,-2.46043zM355.00524,360.40895c0.89733,-0.19003 1.8055,-0.39626 2.72219,-0.60869c-0.27898,-0.24429 -0.57386,-0.47539 -0.88672,-0.69148c-2.25298,-0.85394 -7.99286,-3.19506 -10.3545,-2.27668c-1.13612,0.44182 -2.15569,1.12727 -3.1237,1.90172c3.67124,0.87591 8.08863,2.4278 11.64274,1.67514z" fill="#000000" stroke-width="0.5"/><path d="M334.14657,357.59346l-1.80927,-1.52337l10.11343,-12.01154l1.80928,1.52333z" fill="url(#color-10)" stroke-width="0"/><path d="M338.64897,374.60289l-2.24971,0.72998l-4.8461,-14.93564l2.24971,-0.72998z" data-paper-data="{&quot;index&quot;:null}" fill="url(#color-11)" stroke-width="0"/><path d="M381.20595,352.68385l2.24971,-0.72998l4.8461,14.93564l-2.24971,0.72998z" data-paper-data="{&quot;index&quot;:null}" fill="url(#color-12)" stroke-width="0"/><path d="M385.58956,369.67008l1.80925,1.52335l-10.11341,12.01154l-1.80927,-1.52337z" data-paper-data="{&quot;index&quot;:null}" fill="url(#color-13)" stroke-width="0"/><path d="M381.77305,387.18747l-51.93557,-10.15176l1.18744,-6.07496l51.93557,10.15176z" fill="url(#color-14)" stroke-width="0"/><path d="M388.14189,356.64504l-51.93557,-10.15176l1.18744,-6.07496l51.93557,10.15176z" fill="url(#color-15)" stroke-width="0"/><path d="M395.35634,374.98671l-73.01125,-14.27138l1.66933,-8.54018l73.01125,14.27138z" fill="url(#color-16)" stroke-width="0"/></g><path d="M402.61141,362.67799c4.81836,0.98288 7.86632,5.98617 6.80784,11.17519c-1.05849,5.18902 -5.8226,8.59875 -10.64096,7.61587c-4.81836,-0.98288 -7.86634,-5.98617 -6.80786,-11.17519c1.05849,-5.18902 5.82263,-8.59875 10.64099,-7.61587z" fill="url(#color-17)" stroke-width="0"/></g><path d="M337.31036,335.66732c9.36534,-4.21634 56.72125,11.12782 63.68963,17.42071c3.18093,2.87261 -2.83462,35.07858 -6.97834,36.63862c-9.01231,3.39291 -60.64283,-2.57549 -66.18992,-9.61223c-5.5471,-7.03672 0.11329,-40.23077 9.47863,-44.44711z" fill="url(#color-18)" stroke-width="0"/></g><g data-paper-data="{&quot;index&quot;:null}" stroke="none" stroke-width="0"><path d="M544.65594,394.3512c6.01614,2.40973 12.51218,6.91295 18.02916,13.82019c4.89909,6.13362 7.95321,10.31271 9.59188,13.30621c1.07792,1.96916 0.70816,7.30995 -1.56289,9.42316c-2.92773,2.72418 -8.2811,1.77211 -10.06142,-0.9699c-1.78925,-2.75576 -4.67319,-7.2421 -10.12434,-14.06695c-4.95291,-6.20101 -9.3611,-8.65214 -13.05244,-9.6359c-7.54953,-2.01203 -3.25096,-16.05486 7.18006,-11.87679z" data-paper-data="{&quot;index&quot;:null}" fill="url(#color-19)"/><path d="M550.3444,394.56887c6.09899,2.19154 12.75298,6.45793 18.51512,13.16202c5.11677,5.95325 8.31938,10.01964 10.0648,12.95219c1.14812,1.92905 0.97095,7.2797 -1.22257,9.47331c-2.82775,2.82783 -8.21194,2.06918 -10.08982,-0.60697c-1.8873,-2.68956 -4.93093,-7.06914 -10.62432,-13.69327c-5.17299,-6.01862 -9.66656,-8.30945 -13.39094,-9.15967c-7.6171,-1.73885 -3.82699,-15.92738 6.74775,-12.12765z" data-paper-data="{&quot;index&quot;:null}" fill="url(#color-20)"/><path d="M550.67332,395.39654c6.35983,1.2462 13.58139,4.45973 20.28909,10.2177c5.95645,5.11303 9.73596,8.64965 11.90385,11.2853c1.42605,1.73373 2.05819,7.04985 0.22078,9.54933c-2.36869,3.22212 -7.80569,3.28452 -10.06589,0.92239c-2.27152,-2.374 -5.94108,-6.2442 -12.56876,-11.93345c-6.02188,-5.1692 -10.80968,-6.75577 -14.6197,-7.03431c-7.79224,-0.56964 -6.18633,-15.16762 4.8406,-13.00692z" data-paper-data="{&quot;index&quot;:null}" fill="url(#color-21)"/><path d="M499.83673,379.95345c18.03009,3.67789 50.27337,6.86583 47.33523,21.78982c-2.92229,14.84353 -34.05773,5.18674 -52.08784,1.50884c-18.03011,-3.6779 -13.2775,-26.97655 4.75261,-23.29865z" fill="url(#color-22)"/><path d="M513.0562,429.81886c-5.36033,-3.64245 -10.741,-9.4326 -14.6504,-17.36128c-3.47153,-7.04066 -5.5596,-11.77693 -6.51904,-15.05196c-0.63112,-2.15432 0.87406,-7.29196 3.54509,-8.86964c3.44331,-2.03382 8.46849,0.04282 9.62014,3.10256c1.1574,3.07506 3.01343,8.07502 6.87618,15.9091c3.50968,7.11798 7.29051,10.45648 10.68544,12.2081c6.94333,3.58244 -0.26346,16.37859 -9.55742,10.06315z" data-paper-data="{&quot;index&quot;:null}" fill="url(#color-23)"/></g><g stroke="none"><path d="M79.53811,403.09531c-4.76389,7.58889 -55.46174,19.03702 -64.78485,16.62598c-4.28663,-1.10858 -13.7072,-32.48794 -10.85123,-35.68383c6.25647,-7.00109 51.70289,-27.31484 61.46496,-24.12279c9.76206,3.19205 18.93503,35.59179 14.17113,43.18065z" fill="#484848" stroke-width="0"/><g><g><path d="M79.17096,376.33615c0.42916,0.52133 0.57765,1.01546 0.5738,1.45296c0.60559,-0.28881 1.85102,-0.63607 2.83137,0.70857c1.34718,1.8478 -0.50062,3.19495 -0.50062,3.19495l-1.9722,1.421c-2.6793,2.98094 -7.42637,5.69173 -11.6997,4.37243c-0.73141,-0.2258 -1.43522,-0.56464 -2.1261,-0.96742c-0.54342,0.27903 -1.08921,0.55908 -1.63856,0.84028c-4.63803,1.48925 -9.74303,3.96441 -14.68516,3.59572c-1.58287,-0.1181 -3.22406,-0.32685 -4.8948,-0.54552c-1.76772,4.33967 -2.42535,9.34439 -6.45428,11.8536c-6.29813,3.92244 -12.62922,-1.78773 -18.60356,-2.78233c-0.36639,0.64913 -0.74826,1.30111 -1.17353,1.94582c0,0 -1.26813,1.90291 -3.17105,0.63477c-0.52876,-0.35238 -0.81268,-0.75379 -0.947,-1.14974c-1.33305,0.76113 -2.60358,1.62285 -3.58917,2.1277c0,0 -2.03529,1.04253 -3.07779,-0.99278c-1.04253,-2.03529 0.99278,-3.07779 0.99278,-3.07779c2.54562,-1.3039 5.39636,-3.33893 8.35448,-3.96782c1.30929,-2.20346 2.69058,-4.28696 5.0283,-5.98964c5.89918,-4.29671 12.94305,-4.2665 19.84822,-3.55502c0.95516,-1.36265 2.1206,-2.63278 3.62852,-3.94011c3.36173,-1.73398 9.42057,-4.85353 13.36943,-4.08729c2.88505,0.55984 5.34963,2.28917 7.68922,3.61506c2.53648,-1.30376 5.06429,-2.59121 7.69504,-3.86254l1.30352,-1.15698c0,0 1.7655,-1.45337 3.21885,0.31214zM25.0853,392.72616c-1.11913,0.81702 -1.97274,1.75533 -2.69946,2.76453c4.40311,1.58505 9.94463,5.22848 13.86729,2.8494c2.05855,-1.2485 2.19017,-4.20065 2.86099,-6.21824c0.27345,-0.82245 0.55153,-1.59226 0.84531,-2.32026c-5.23186,-0.48279 -10.46924,-0.2912 -14.87414,2.92459zM50.41552,386.40453c3.61417,0.3688 7.84057,-1.64597 11.39727,-2.90894c-1.04516,-0.66664 -2.13211,-1.23928 -3.30892,-1.55725c-2.44621,-0.66092 -7.90324,2.2798 -10.05214,3.36946c-0.28799,0.24828 -0.55651,0.50954 -0.8078,0.78223c0.93414,0.11333 1.85914,0.22139 2.77163,0.3145z" fill="#000000" stroke-width="0.5"/><path d="M59.51592,370.51473l1.63625,-1.70785l11.33836,10.86279l-1.63623,1.70787z" fill="url(#color-24)" stroke-width="0"/><path d="M71.41748,383.40276l2.3148,0.48555l-3.22334,15.36776l-2.3148,-0.48555z" data-paper-data="{&quot;index&quot;:null}" fill="url(#color-25)" stroke-width="0"/><path d="M20.31637,396.88943l-2.3148,-0.48555l3.22334,-15.36776l2.3148,0.48555z" data-paper-data="{&quot;index&quot;:null}" fill="url(#color-26)" stroke-width="0"/><path d="M32.33353,409.74171l-1.63623,1.70787l-11.33833,-10.86279l1.63621,-1.70787z" data-paper-data="{&quot;index&quot;:null}" fill="url(#color-27)" stroke-width="0"/><path d="M24.83126,409.97512l50.5544,-15.64013l1.82941,5.91339l-50.5544,15.64013z" fill="url(#color-28)" stroke-width="0"/><path d="M15.23703,380.28754l50.5544,-15.64013l1.82941,5.91339l-50.5544,15.64013z" fill="url(#color-29)" stroke-width="0"/><path d="M9.28022,396.89509l71.06961,-21.98696l2.57183,8.31306l-71.06961,21.98696z" fill="url(#color-30)" stroke-width="0"/></g><path d="M14.71746,400.18055c1.60659,5.0463 -0.88964,10.34649 -5.57547,11.83833c-4.68584,1.49184 -9.78684,-1.38962 -11.39344,-6.43592c-1.60659,-5.0463 0.88962,-10.34648 5.57545,-11.83832c4.68584,-1.49184 9.78686,1.3896 11.39347,6.43592z" fill="url(#color-31)" stroke-width="0"/></g><path d="M79.53811,403.09531c-4.76389,7.58889 -55.46174,19.03702 -64.78485,16.62598c-4.28663,-1.10858 -13.7072,-32.48794 -10.85123,-35.68383c6.25647,-7.00109 51.70289,-27.31484 61.46496,-24.12279c9.76206,3.19205 18.93503,35.59179 14.17113,43.18065z" fill="url(#color-32)" stroke-width="0"/></g><g stroke="none"><path d="M158.0246,378.1075c-4.76389,7.58889 -55.46174,19.03702 -64.78485,16.62598c-4.28663,-1.10858 -13.7072,-32.48794 -10.85123,-35.68383c6.25647,-7.00109 51.70289,-27.31484 61.46496,-24.12279c9.76206,3.19205 18.93503,35.59179 14.17113,43.18065z" fill="#484848" stroke-width="0"/><g><g><path d="M157.65744,351.34834c0.42916,0.52133 0.57765,1.01546 0.5738,1.45296c0.60559,-0.28881 1.85102,-0.63607 2.83137,0.70857c1.34718,1.8478 -0.50062,3.19495 -0.50062,3.19495l-1.9722,1.421c-2.6793,2.98094 -7.42637,5.69173 -11.6997,4.37243c-0.73141,-0.2258 -1.43522,-0.56464 -2.1261,-0.96742c-0.54342,0.27903 -1.08921,0.55908 -1.63856,0.84028c-4.63803,1.48925 -9.74303,3.96441 -14.68516,3.59572c-1.58287,-0.1181 -3.22406,-0.32685 -4.8948,-0.54552c-1.76772,4.33967 -2.42535,9.34439 -6.45428,11.8536c-6.29813,3.92244 -12.62922,-1.78773 -18.60356,-2.78233c-0.36639,0.64913 -0.74826,1.30111 -1.17353,1.94582c0,0 -1.26813,1.90291 -3.17105,0.63477c-0.52876,-0.35238 -0.81268,-0.75379 -0.947,-1.14974c-1.33305,0.76113 -2.60358,1.62285 -3.58917,2.1277c0,0 -2.03529,1.04253 -3.07779,-0.99278c-1.04253,-2.03529 0.99278,-3.07779 0.99278,-3.07779c2.54562,-1.3039 5.39636,-3.33893 8.35448,-3.96782c1.30929,-2.20346 2.69058,-4.28696 5.0283,-5.98964c5.89918,-4.29671 12.94305,-4.2665 19.84822,-3.55502c0.95516,-1.36265 2.1206,-2.63278 3.62852,-3.94011c3.36173,-1.73398 9.42057,-4.85353 13.36943,-4.08729c2.88505,0.55984 5.34963,2.28917 7.68922,3.61506c2.53648,-1.30376 5.06429,-2.59121 7.69504,-3.86254l1.30352,-1.15698c0,0 1.7655,-1.45337 3.21885,0.31214zM103.57177,367.73835c-1.11913,0.81702 -1.97274,1.75533 -2.69946,2.76453c4.40311,1.58505 9.94463,5.22848 13.86729,2.8494c2.05855,-1.2485 2.19017,-4.20065 2.86099,-6.21824c0.27345,-0.82245 0.55153,-1.59226 0.84531,-2.32026c-5.23186,-0.48279 -10.46924,-0.2912 -14.87414,2.92459zM128.90205,361.4167c3.61417,0.3688 7.84057,-1.64597 11.39727,-2.90894c-1.04516,-0.66664 -2.13211,-1.23928 -3.30892,-1.55725c-2.44621,-0.66092 -7.90324,2.2798 -10.05214,3.36946c-0.28799,0.24828 -0.55651,0.50954 -0.8078,0.78223c0.93414,0.11333 1.85914,0.22139 2.77163,0.3145z" fill="#000000" stroke-width="0.5"/><path d="M138.0024,345.52692l1.63625,-1.70785l11.33836,10.86279l-1.63623,1.70787z" fill="url(#color-33)" stroke-width="0"/><path d="M149.90397,358.41494l2.3148,0.48555l-3.22334,15.36776l-2.3148,-0.48555z" data-paper-data="{&quot;index&quot;:null}" fill="url(#color-34)" stroke-width="0"/><path d="M98.80286,371.90162l-2.3148,-0.48555l3.22334,-15.36776l2.3148,0.48555z" data-paper-data="{&quot;index&quot;:null}" fill="url(#color-35)" stroke-width="0"/><path d="M110.82002,384.7539l-1.63623,1.70787l-11.33833,-10.86279l1.63621,-1.70787z" data-paper-data="{&quot;index&quot;:null}" fill="url(#color-36)" stroke-width="0"/><path d="M103.31773,384.98731l50.5544,-15.64013l1.82941,5.91339l-50.5544,15.64013z" fill="url(#color-37)" stroke-width="0"/><path d="M93.72352,355.29973l50.5544,-15.64013l1.82941,5.91339l-50.5544,15.64013z" fill="url(#color-38)" stroke-width="0"/><path d="M87.76672,371.90728l71.06961,-21.98696l2.57183,8.31306l-71.06961,21.98696z" fill="url(#color-39)" stroke-width="0"/></g><path d="M93.20393,375.19275c1.60659,5.0463 -0.88964,10.34649 -5.57547,11.83833c-4.68584,1.49184 -9.78684,-1.38962 -11.39344,-6.43592c-1.60659,-5.0463 0.88962,-10.34648 5.57545,-11.83832c4.68584,-1.49184 9.78686,1.3896 11.39347,6.43592z" fill="url(#color-40)" stroke-width="0"/></g><path d="M158.0246,378.1075c-4.76389,7.58889 -55.46174,19.03702 -64.78485,16.62598c-4.28663,-1.10858 -13.7072,-32.48794 -10.85123,-35.68383c6.25647,-7.00109 51.70289,-27.31484 61.46496,-24.12279c9.76206,3.19205 18.93503,35.59179 14.17113,43.18065z" fill="url(#color-41)" stroke-width="0"/></g><path d="M310.67541,268.61091l-143.2402,-0.86826c0,0 -16.13192,-25.69927 -7.7432,-52.76418c9.93413,-32.05092 1.57908,-63.103 80.32199,-63.01118c77.03099,0.12879 65.45807,29.46252 77.17622,60.89226c11.5345,30.93714 -6.5148,55.75134 -6.5148,55.75134z" fill="#484848" stroke="none" stroke-width="0"/><g stroke="none" stroke-width="0"><path d="M-47.63181,426.46057c-3.56514,1.37235 -7.68639,4.28024 -11.94874,10.97474c-4.69115,7.36797 -7.07946,12.13665 -8.56417,15.06773c-1.47731,2.91647 -6.69839,4.43481 -9.9003,2.03886c-2.48377,-1.85857 -3.42178,-7.12934 -2.56032,-9.20235c1.30962,-3.15139 3.89996,-7.63274 8.11599,-14.25447c4.7478,-7.45693 10.72575,-12.62815 16.45013,-15.66657c9.92516,-5.26815 15.69886,8.23534 8.40737,11.04207z" data-paper-data="{&quot;index&quot;:null}" fill="url(#color-42)"/><path d="M-53.66756,427.58007c-3.61228,1.24309 -7.83549,4.00069 -12.33614,10.53736c-4.95341,7.19428 -7.51191,11.87385 -9.1012,14.74959c-1.5814,2.86138 -6.85373,4.1907 -9.96728,1.68103c-2.41523,-1.94681 -3.16284,-7.24793 -2.22731,-9.28856c1.42225,-3.10219 4.1723,-7.48735 8.62404,-13.95299c5.01322,-7.28112 11.1735,-12.23372 17.0036,-15.06407c10.10845,-4.90733 15.39214,8.79528 8.0043,11.33767z" data-paper-data="{&quot;index&quot;:null}" fill="url(#color-43)"/><path d="M-55.70852,429.51606c-3.75848,0.68383 -8.34946,2.77264 -13.78486,8.55539c-5.98221,6.3645 -9.21749,10.60448 -11.22248,13.20749c-1.99502,2.59001 -7.40756,3.10862 -10.10684,0.15787c-2.09386,-2.28893 -2.03305,-7.64219 -0.8003,-9.51829c1.87403,-2.85207 5.25422,-6.77211 10.63058,-12.49201c6.05445,-6.44137 12.89147,-10.40775 19.08187,-12.32602c10.73316,-3.32596 13.88884,11.01703 6.20199,12.41558z" data-paper-data="{&quot;index&quot;:null}" fill="url(#color-44)"/><path d="M-5.80031,418.9745c-17.53422,5.58238 -47.46029,18.50903 -51.95109,4.06248c-4.51515,-14.52486 27.20329,-21.13797 44.73749,-26.72034c17.53422,-5.58238 24.74783,17.07548 7.2136,22.65786z" fill="url(#color-45)"/><path d="M-31.40989,438.32373c3.18847,-2.10416 6.59115,-5.82732 9.3206,-13.27944c3.00403,-8.2018 4.31548,-13.37138 5.13786,-16.55246c0.8183,-3.16521 5.59297,-5.76666 9.2338,-4.1122c2.82422,1.2834 4.86948,6.23091 4.47205,8.44032c-0.60419,3.35877 -2.17452,8.29094 -4.8743,15.66209c-3.04031,8.30082 -7.77187,14.63251 -12.71255,18.82659c-8.56637,7.27187 -17.0985,-4.68146 -10.57744,-8.98492z" data-paper-data="{&quot;index&quot;:null}" fill="url(#color-46)"/></g><g stroke="none"><path d="M248.09127,478.00919c-0.04103,0.62077 -0.39244,3.27908 -3.40217,3.27908c-0.01525,0 -0.03044,-0.00007 -0.04555,-0.00021c0.02226,1.03204 -0.29719,2.7724 -2.57016,3.34065c-3.30587,0.82648 -4.13232,-2.47938 -4.13232,-2.47938l-0.79018,-3.58023c0,-3.9663 0.95513,-9.76532 -1.5025,-13.26973c-3.81156,-5.43502 -12.80021,-10.25357 -11.54763,-18.16219c0.70992,-4.48241 3.15197,-6.94763 6.07006,-9.02464c-0.53063,-1.66999 -0.94011,-3.44258 -1.26953,-5.38759c-0.00136,-0.59206 -0.06722,-9.51836 0.11204,-10.14034c1.6642,-5.77414 7.81554,-9.72517 12.35356,-12.90312c2.6883,-1.8826 5.56466,-3.60434 8.36382,-5.42547c-5.97828,-7.46142 -16.99995,-13.08628 -22.97271,-18.00519c-4.50888,-3.71332 -5.20352,-9.35073 -7.29852,-14.59411c-1.00565,-3.1568 -3.11608,-7.89573 -5.30356,-10.36787c-2.56394,-2.89761 -13.67513,-2.40367 -17.19864,-3.35667c-12.69163,-3.4326 -24.73969,-3.2115 -37.65437,-0.62856c0,0 -3.34141,0.66828 -4.00969,-2.67313c-0.66828,-3.34141 2.67313,-4.00971 2.67313,-4.00971c9.39537,-1.87908 18.85491,-2.99009 28.48677,-2.11986c5.61703,0.50748 10.64168,2.57848 16.11319,3.47695c4.51006,0.74061 12.69803,1.01187 16.20426,4.29582c2.92637,2.74087 5.79402,9.28914 7.08829,13.03892c1.20303,3.00406 1.85986,7.15626 3.24687,9.89071c1.75707,3.464 8.98718,5.63673 12.02123,7.75981c4.96048,3.47114 10.13034,8.1668 13.84866,13.57816c3.55471,-2.82436 6.64169,-6.15214 8.57462,-10.65665c5.0374,-11.73929 -8.96635,-16.94025 -10.52744,-26.46606c-0.65344,-3.98736 1.60083,-7.27508 3.22478,-10.5594c5.60236,-7.29645 21.01021,-17.38017 30.24663,-11.37985c3.90149,2.53454 5.52179,7.81675 9.37015,10.16696c7.39452,4.51586 20.61745,1.00362 28.68327,0.97366c0,0 3.40758,0 3.40758,3.40758c0,3.40758 -3.40758,3.40758 -3.40758,3.40758c-9.52131,-0.04162 -23.06535,3.46599 -31.89906,-1.78008c-4.24395,-2.52037 -6.13888,-7.47351 -9.90605,-10.48614c-2.19319,-1.75391 -4.1781,-0.39186 -6.7566,0.41103c-5.02684,1.5652 -10.86326,4.58228 -13.94103,8.8622c-3.60891,7.10492 -1.2557,6.72309 3.25155,12.66258c4.72715,6.2293 7.70896,15.65434 4.59141,23.28612c-2.50065,6.12162 -6.76582,10.40924 -11.61323,14.07232c2.49367,5.83729 2.96349,12.20995 -0.24062,18.61256c-3.44846,6.89084 -12.10708,8.83426 -17.30816,14.07307c-0.6645,0.49315 -1.38454,0.93923 -2.1238,1.37103c0.68976,1.15776 1.51121,2.3018 2.49121,3.49022c2.68641,3.25775 7.19305,5.71756 8.794,9.81171c2.3061,5.89731 0.97082,18.2642 -1.79595,24.18742zM243.34681,466.17728c0.00656,-2.85643 1.4119,-6.95321 0.27477,-9.67442c-1.34257,-3.21288 -5.57511,-5.4386 -7.72846,-8.08763c-1.13657,-1.3982 -2.10219,-2.75504 -2.92665,-4.12106c-0.97993,0.99025 -1.74088,2.18758 -2.11082,3.74765c-1.01706,4.28896 8.44269,10.33954 10.48231,13.50587c0.98223,1.52478 1.61045,3.16931 2.00907,4.87835c-0.00034,-0.08207 -0.00044,-0.16499 -0.00023,-0.24878zM245.25757,415.27703c-2.9179,2.0416 -8.72,5.22932 -9.67636,9.12683c-0.61639,2.5121 0.11866,5.1724 0.11204,7.75902c0.1118,0.68623 0.23908,1.34282 0.38449,1.97548c0.06107,-0.04576 0.12201,-0.09178 0.1828,-0.13807c4.302,-4.27314 13.01858,-6.64294 15.73674,-12.0875c2.17972,-4.36605 2.28934,-8.27629 1.07462,-11.81428c-2.61239,1.72595 -5.26987,3.39821 -7.81432,5.17855z" fill="#000000" stroke-width="0.5"/><g stroke-width="0"><g><path d="M234.06373,353.62492v-112.75526h10.08016v112.75526z" fill="url(#color-47)"/><g><path d="M180.37894,377.62793v-11.72689h122.56491v11.72689z" fill="url(#color-48)"/><path d="M185.95008,381.80784v-20.03341h7.24246v20.03341z" fill="url(#color-49)"/><path d="M204.80643,382.57211v-20.03341h7.24246v20.03341z" fill="url(#color-50)"/><path d="M270.64446,382.02204v-20.03341h7.24246v20.03341z" fill="url(#color-51)"/><path d="M289.50081,382.78632v-20.03341h7.24246v20.03341z" fill="url(#color-52)"/></g><g><path d="M185.85837,408.44974v-11.72689h111.60606v11.72689z" fill="url(#color-53)"/><path d="M190.93138,412.62964v-20.03341h6.59488v20.03341z" fill="url(#color-54)"/><path d="M208.10173,413.39393v-20.03341h6.59486v20.03341z" fill="url(#color-55)"/><path d="M268.05301,412.84384v-20.03341h6.59486v20.03341z" fill="url(#color-56)"/><path d="M285.22338,413.60813v-20.03341h6.59488v20.03341z" fill="url(#color-57)"/></g><g><path d="M192.70766,439.27156v-11.72689h97.90746v11.72689z" fill="url(#color-58)"/><path d="M197.15801,443.45146v-20.03341h5.78543v20.03341z" fill="url(#color-59)"/><path d="M212.22084,444.21576v-20.03341h5.78543v20.03341z" fill="url(#color-60)"/><path d="M264.8137,443.66568v-20.03341h5.78543v20.03341z" fill="url(#color-61)"/><path d="M279.87656,444.42996v-20.03341h5.78543v20.03341z" fill="url(#color-62)"/></g><path d="M230.20255,475.81462l-0.0987,-28.06532l-3.32597,-94.58742h26.75679l-3.38526,94.65723l-0.03939,27.99551z" fill="url(#color-63)"/><path d="M159.92704,355.64924v-6.16437h161.64329v6.16437z" fill="url(#color-64)"/><path d="M331.8443,352.22458c0,5.29587 -3.9865,9.58901 -8.90409,9.58901c-4.91759,0 -8.90407,-4.29314 -8.90407,-9.58901c0,-5.29587 3.98648,-9.58901 8.90407,-9.58901c4.91759,0 8.90409,4.29314 8.90409,9.58901z" fill="url(#color-65)"/><path d="M216.53084,360.52146v-15.06846h46.88526v15.06846z" fill="url(#color-66)"/><path d="M167.46128,352.22458c0,5.29587 -3.9865,9.58901 -8.90409,9.58901c-4.91759,0 -8.90409,-4.29314 -8.90409,-9.58901c0,-5.29587 3.9865,-9.58901 8.90409,-9.58901c4.91759,0 8.90409,4.29314 8.90409,9.58901z" fill="url(#color-67)"/></g><path d="M226.29054,516.76878v-44.65535h27.77847v44.65535z" fill="url(#color-68)"/><path d="M224.18549,488.87696v-7.81711h31.98854v7.81711z" fill="url(#color-69)"/><path d="M224.18549,499.92843v-7.81711h31.98854v7.81711z" fill="url(#color-70)"/></g></g><g stroke-width="0"><path d="M166.96836,328.28391c12.35707,4.5704 18.7247,18.14332 14.22252,30.31594c-2.20522,5.96226 -11.80628,-2.10303 -22.80589,-6.03321c-11.45731,-4.09373 -24.23995,-4.3073 -21.94299,-10.51767c4.50218,-12.17262 18.1693,-18.33546 30.52636,-13.76506z" fill="url(#color-71)" stroke="none"/><path d="M345.54303,342.04897c2.29696,6.21036 -10.48568,6.42395 -21.94299,10.51767c-10.99962,3.93018 -20.60069,11.99547 -22.80589,6.03321c-4.50218,-12.17262 1.86545,-25.74554 14.22252,-30.31594c12.35707,-4.5704 26.0242,1.59244 30.52636,13.76506z" data-paper-data="{&quot;index&quot;:null}" fill="url(#color-72)" stroke="none"/><g><path d="M313.67116,416.50309c-3.84485,40.89295 -5.83448,47.29709 -9.6366,66.67079c-5.64867,28.78287 -62.93319,26.67291 -62.93319,26.67291c0,0 -57.70271,3.97312 -63.251,-29.08544c-2.76966,-16.5026 -7.71638,-34.33531 -9.34714,-65.11686c-1.63076,-30.78158 -13.25915,-98.79012 70.02162,-100.08885c78.83756,-1.22944 79.51548,54.47787 75.14628,100.94746z" data-paper-data="{&quot;index&quot;:null}" fill="url(#color-73)" stroke="#000000"/><path d="M302.4271,418.94202c-3.2493,34.55883 -4.93076,39.971 -8.14394,56.34382c-4.77371,24.32455 -53.1851,22.5414 -53.1851,22.5414c0,0 -48.76485,3.35768 -53.45371,-24.58026c-2.34068,-13.94641 -6.52115,-29.01694 -7.89932,-55.0306c-1.37814,-26.01365 -11.20537,-83.48798 59.17561,-84.58555c66.62601,-1.039 67.19889,46.0395 63.50648,85.31118z" data-paper-data="{&quot;index&quot;:null}" fill="url(#color-74)" stroke="#000000"/><g stroke="#000000"><path d="M240.96084,352.55832c0,6.94247 -7.4087,9.86119 -15.64728,12.57038c-19.60267,6.44614 -19.55708,4.84373 -19.55708,4.84373c0,0 3.90976,-4.94212 3.90976,-17.41411c0,-20.73922 -36.36385,-32.91037 15.64735,-12.57038c8.08733,3.16271 15.64728,5.62798 15.64728,12.57038z" fill="url(#color-75)"/><path d="M256.66273,339.98794c52.01119,-20.33999 15.64733,-8.16884 15.64733,12.57038c0,12.47199 3.90976,17.41411 3.90976,17.41411c0,0 0.04562,1.60241 -19.55708,-4.84373c-8.23861,-2.70919 -15.6473,-5.62791 -15.6473,-12.57038c0,-6.94241 7.55994,-9.40765 15.6473,-12.57038z" data-paper-data="{&quot;index&quot;:null}" fill="url(#color-76)"/><path d="M253.86864,351.69071c0,7.11175 -5.62798,12.87697 -12.57038,12.87697c-6.94247,0 -12.5704,-5.76522 -12.5704,-12.87697c0,-7.11175 5.62801,-12.87699 12.5704,-12.87699c6.94247,0 12.57038,5.76526 12.57038,12.87699z" fill="url(#color-77)"/></g><g stroke="none"><path d="M240.94462,374.08485c5.47543,0 9.91417,4.4802 9.91417,10.00675c0,5.52657 -4.43873,10.00675 -9.91417,10.00675c-5.47543,0 -9.91417,-4.4802 -9.91417,-10.00675c0,-5.52657 4.43873,-10.00675 9.91417,-10.00675zM238.25323,388.24553c1.028,0 1.86139,-0.83339 1.86139,-1.86139c0,-1.028 -0.83339,-1.86139 -1.86139,-1.86139c-1.028,0 -1.86139,0.83339 -1.86139,1.86139c0,1.028 0.83339,1.86139 1.86139,1.86139zM243.35275,383.07618c1.028,0 1.86136,-0.83339 1.86136,-1.86139c0,-1.028 -0.83336,-1.86136 -1.86136,-1.86136c-1.028,0 -1.86139,0.83336 -1.86139,1.86136c0,1.028 0.83339,1.86139 1.86139,1.86139zM238.32309,383.07618c1.028,0 1.86139,-0.83339 1.86139,-1.86139c0,-1.028 -0.83339,-1.86136 -1.86139,-1.86136c-1.028,0 -1.86136,0.83336 -1.86136,1.86136c0,1.028 0.83336,1.86139 1.86136,1.86139zM243.35275,388.31539c1.028,0 1.86136,-0.83339 1.86136,-1.86139c0,-1.028 -0.83336,-1.86136 -1.86136,-1.86136c-1.028,0 -1.86139,0.83336 -1.86139,1.86136c0,1.028 0.83339,1.86139 1.86139,1.86139z" fill="url(#color-78)"/><path d="M240.94462,374.08485c5.47543,0 9.91417,4.4802 9.91417,10.00675c0,5.52657 -4.43873,10.00675 -9.91417,10.00675c-5.47543,0 -9.91417,-4.4802 -9.91417,-10.00675c0,-5.52657 4.43873,-10.00675 9.91417,-10.00675zM240.97762,392.06722c4.45471,0 8.06596,-3.61125 8.06596,-8.06593c0,-4.45471 -3.61125,-8.06593 -8.06596,-8.06593c-4.45471,0 -8.06593,3.61125 -8.06593,8.06593c0,4.45471 3.61123,8.06593 8.06593,8.06593z" fill="url(#color-79)"/></g><g stroke="none"><path d="M240.94462,404.80816c5.47543,0 9.91417,4.4802 9.91417,10.00675c0,5.52657 -4.43873,10.00675 -9.91417,10.00675c-5.47543,0 -9.91417,-4.4802 -9.91417,-10.00675c0,-5.52657 4.43873,-10.00675 9.91417,-10.00675zM238.25323,418.96881c1.028,0 1.86139,-0.83339 1.86139,-1.86139c0,-1.028 -0.83339,-1.86139 -1.86139,-1.86139c-1.028,0 -1.86139,0.83339 -1.86139,1.86139c0,1.028 0.83339,1.86139 1.86139,1.86139zM243.35275,413.79947c1.028,0 1.86136,-0.83339 1.86136,-1.86139c0,-1.028 -0.83336,-1.86136 -1.86136,-1.86136c-1.028,0 -1.86139,0.83336 -1.86139,1.86136c0,1.028 0.83339,1.86139 1.86139,1.86139zM238.32309,413.79947c1.028,0 1.86139,-0.83339 1.86139,-1.86139c0,-1.028 -0.83339,-1.86136 -1.86139,-1.86136c-1.028,0 -1.86136,0.83336 -1.86136,1.86136c0,1.028 0.83336,1.86139 1.86136,1.86139zM243.35275,419.03868c1.028,0 1.86136,-0.83336 1.86136,-1.86136c0,-1.028 -0.83336,-1.86139 -1.86136,-1.86139c-1.028,0 -1.86139,0.83339 -1.86139,1.86139c0,1.028 0.83339,1.86136 1.86139,1.86136z" fill="url(#color-80)"/><path d="M240.94462,404.80816c5.47543,0 9.91417,4.4802 9.91417,10.00675c0,5.52657 -4.43873,10.00675 -9.91417,10.00675c-5.47543,0 -9.91417,-4.4802 -9.91417,-10.00675c0,-5.52657 4.43873,-10.00675 9.91417,-10.00675zM240.97762,422.79052c4.45471,0 8.06596,-3.61125 8.06596,-8.06596c0,-4.45471 -3.61125,-8.06593 -8.06596,-8.06593c-4.45471,0 -8.06593,3.61123 -8.06593,8.06593c0,4.45471 3.61123,8.06596 8.06593,8.06596z" fill="url(#color-81)"/></g></g></g><g><path d="M240.02654,258.22251c40.09526,0 78.58205,18.44411 72.59893,39.53968c-11.03328,38.90167 -32.50367,39.53968 -72.59893,39.53968c-40.09526,0 -64.65497,-6.46493 -72.59891,-39.53968c-5.1153,-21.29767 32.50367,-39.53968 72.59891,-39.53968z" fill="url(#color-82)" stroke="#000000" stroke-width="0"/><g><g fill="url(#color-83)" stroke="#000000" stroke-width="0"><path d="M240.04138,303.20274c32.12516,0 62.96158,10.92027 58.16779,23.41041c-8.8401,23.03267 -26.04261,23.41041 -58.16779,23.41041c-32.12516,0 -51.80293,-3.82773 -58.16779,-23.41041c-4.09849,-12.60977 26.04259,-23.41041 58.16779,-23.41041z"/></g><g fill="none" stroke="none" stroke-width="1" font-family="sans-serif" font-weight="normal" font-size="12" text-anchor="start"/></g><path d="M239.73846,258.42863c31.05319,0 64.94974,17.14584 60.31588,36.75654c-1.66382,7.04138 -7.72322,12.73425 -10.04677,17.33674c-9.60979,19.03517 -7.54797,22.09308 -50.26914,22.14591c-44.80535,0.05538 -40.6675,-6.28495 -49.93242,-21.93647c-2.77483,-4.6876 -9.87415,-10.4599 -11.29215,-17.54617c-3.96174,-19.79855 30.17137,-36.75654 61.22457,-36.75654z" fill="url(#color-84)" stroke="#000000" stroke-width="0"/><path d="M229.92293,276.25304v-2.03132h19.23983v2.03132z" fill="url(#color-85)" stroke="none" stroke-width="0"/><g stroke="none" stroke-width="0"><path d="M232.1163,288.04501c0,-0.21893 0.03107,-13.64766 0.03107,-13.64766l14.68977,-0.00645c0,0 0.04962,13.37697 0.04962,13.65413c0,3.88306 -3.30648,4.74178 -7.38522,4.74178c-4.07875,0 -7.38522,-0.85871 -7.38522,-4.74178z" fill="url(#color-86)"/><path d="M232.1163,286.75751c0,-0.21893 0.03107,-13.64766 0.03107,-13.64766l14.68977,-0.00645c0,0 0.04962,13.37697 0.04962,13.65413c0,3.88306 -3.30648,4.74178 -7.38522,4.74178c-4.07875,0 -7.38522,-0.85871 -7.38522,-4.74178z" fill="url(#color-87)"/></g></g><g><path d="M191.40963,193.59467v-5.14313h96.26661v5.14313z" data-paper-data="{&quot;index&quot;:null}" fill="url(#color-88)" stroke="none" stroke-width="0"/><path d="M191.25902,240.89062v-56.77456h4.82777v56.77456z" fill="url(#color-89)" stroke="none" stroke-width="0"/><path d="M282.84848,240.89062v-56.77456h4.82777v56.77456z" data-paper-data="{&quot;index&quot;:null}" fill="url(#color-90)" stroke="none" stroke-width="0"/><path d="M240.38019,233.98206l-0.13775,0.72484c0.57888,1.36849 0.96773,2.81863 1.26435,4.2746c0.09469,0.43164 0.25053,0.83541 0.45097,1.21886c0.09319,0.13594 0.17597,0.27741 0.24524,0.42609c0.96239,1.53315 2.58561,2.76496 3.68098,4.23757c0.90946,1.22267 0.95052,4.33405 1.8489,5.79931c0.4745,0.77394 2.93213,1.54055 3.18871,1.77531c3.3896,3.10115 -0.51373,5.09825 1.38335,7.89344c1.66711,2.45636 10.69302,-4.07496 11.89048,-4.95219c4.43867,-6.8155 -1.39198,-7.98373 -0.68598,-15.09131c0.36622,-3.68697 5.66464,-8.35314 4.47393,-12.11881c-0.54931,-1.73719 -2.31996,-3.82096 -3.29706,-5.38336c0,0 -0.903,-1.44481 0.54181,-2.34784c1.44481,-0.903 2.34784,0.54181 2.34784,0.54181c1.07959,1.72832 3.1831,4.29833 3.68296,6.24998c1.34246,5.24137 -3.75816,8.77605 -4.36742,13.47458c-0.38026,2.93255 2.2538,5.20991 2.98344,7.97497c0.9966,3.77665 -1.23421,6.14212 -3.20406,9.04175c-3.46203,2.64666 -9.5113,7.33314 -14.37699,6.08214c-4.83098,-1.24209 -2.81636,-4.7482 -2.95999,-8.09854c-0.03341,-0.7792 -3.8141,-2.26261 -4.35788,-3.03908c-0.93443,-1.33423 -1.07387,-4.78546 -1.87377,-5.83402c-0.36604,-0.47984 -0.72813,-0.88221 -1.08141,-1.24323c-1.25945,2.0277 -3.97541,2.93336 -4.98937,5.92855c-1.13654,3.35732 2.64517,7.68408 -0.67413,10.69171c-1.60071,1.45041 -3.84229,0.97139 -5.70051,1.35907c-7.04681,1.47012 -10.47033,1.47114 -14.93254,-4.90714c-0.31053,-1.17506 -0.18073,-2.52612 -0.83772,-3.54864c-1.63662,-2.54722 -5.59822,-1.58328 -6.69576,-5.06232c-1.09988,-3.4864 2.53357,-8.15409 3.21052,-11.45493c0.48688,-2.37408 -0.96348,-3.05184 -1.5694,-5.02379c-0.87114,-2.83511 0.39948,-7.07002 1.14209,-9.8096c0,0 0.4483,-1.64375 2.09206,-1.19545c1.64375,0.4483 1.19545,2.09206 1.19545,2.09206c-0.51148,1.86298 -1.89705,5.96904 -1.18457,7.87308c0.87746,2.34495 2.20555,3.72822 1.68793,6.60955c-0.48588,2.70472 -3.84279,7.18772 -3.30416,9.95042c0.19761,1.01362 3.29601,1.61736 3.92609,2.06216c2.64365,1.86622 2.7724,3.21797 3.43113,6.07889c3.69439,5.00503 5.70225,4.15481 11.12617,3.00354c1.33763,-0.28392 2.97067,0.30898 4.07148,-0.50228c1.19298,-0.87918 -0.7089,-7.80297 -0.20879,-9.31765c0.88783,-2.68901 4.64603,-4.0288 5.36164,-6.31132c0.61793,-1.97093 -1.41536,-3.19092 -2.44214,-4.63376c-0.6535,-1.57174 -0.89656,-3.32152 -0.91696,-5.02358l0.28353,-1.3439c0,0 0.41323,-1.65293 2.06616,-1.2397c0.37276,0.09319 0.64045,0.24943 0.83148,0.43554c1.38976,0.19532 1.38976,1.68274 1.38976,1.68274z" fill="url(#color-91)" stroke="none" stroke-width="0.5"/><path d="M186.53264,214.08567v-6.68748h105.33546v6.68748z" fill="url(#color-92)" stroke="none" stroke-width="0"/><g stroke="#000000" stroke-width="0"><path d="M233.86898,210.84177c0,12.30921 -9.72911,22.2878 -21.73057,22.2878c-12.00147,0 -21.73057,-9.97857 -21.73057,-22.2878c0,-12.30921 9.72911,-22.2878 21.73057,-22.2878c12.00147,0 21.73057,9.97857 21.73057,22.2878z" fill="url(#color-93)"/><g><path d="M212.1384,217.80545c-3.7498,0 -6.78961,-3.11774 -6.78961,-6.96368c0,-3.84595 3.03982,-6.96368 6.78961,-6.96368c3.7498,0 6.78961,3.11774 6.78961,6.96368c0,3.84595 -3.03982,6.96368 -6.78961,6.96368z" fill="#00ff4c"/><path d="M212.1384,216.64128c-3.12293,0 -5.65453,-2.59652 -5.65453,-5.79952c0,-3.20297 2.53162,-5.79952 5.65453,-5.79952c3.12293,0 5.65453,2.59652 5.65453,5.79952c0,3.20297 -2.53162,5.79952 -5.65453,5.79952z" fill="#000000"/></g></g><g stroke="#000000" stroke-width="0"><path d="M288.01183,210.84177c0,12.30921 -9.72911,22.2878 -21.73057,22.2878c-12.00147,0 -21.73057,-9.97857 -21.73057,-22.2878c0,-12.30921 9.72911,-22.2878 21.73057,-22.2878c12.00147,0 21.73057,9.97857 21.73057,22.2878z" fill="url(#color-94)"/><g><path d="M266.28124,217.80545c-3.7498,0 -6.78961,-3.11774 -6.78961,-6.96368c0,-3.84595 3.03982,-6.96368 6.78961,-6.96368c3.7498,0 6.78961,3.11774 6.78961,6.96368c0,3.84595 -3.03982,6.96368 -6.78961,6.96368z" fill="#00ff4c"/><path d="M266.28124,216.64128c-3.12293,0 -5.65453,-2.59652 -5.65453,-5.79952c0,-3.20297 2.53162,-5.79952 5.65453,-5.79952c3.12293,0 5.65453,2.59652 5.65453,5.79952c0,3.20297 -2.53162,5.79952 -5.65453,5.79952z" fill="#000000"/></g></g><path d="M234.95841,243.65079l0.29989,-57.91603l8.09423,0.17327l-0.29989,57.91603z" fill="url(#color-95)" stroke="none" stroke-width="0"/><path d="M248.93144,277.51934v-35.77172h4.66588v35.77172z" fill="url(#color-96)" stroke="none" stroke-width="0"/><path d="M225.60207,277.51934v-35.77172h4.66588v35.77172z" fill="url(#color-97)" stroke="none" stroke-width="0"/><path d="M189.54825,206.82412l-0.23827,31.19715l100.47129,0.24051l0.32492,-31.42817l6.56942,0.09998l-0.40298,38.84651l-113.43901,-0.49653l0.25856,-38.53878z" fill="url(#color-98)" stroke="none" stroke-width="0"/></g><g stroke-width="0"><g><path d="M192.22835,184.8353l-32.52011,-32.7699l2.64004,-2.64114l32.52009,32.7699z" fill="url(#color-99)" stroke="none"/><g stroke="#000000"><g fill="url(#color-100)"><path d="M175.23414,136.61982c0.53719,0.53318 13.66974,10.28656 -1.82815,25.72275c-15.28716,15.22627 -22.98362,4.68864 -25.67832,2.14608c-11.69199,-11.03185 -21.16443,-48.63856 -21.16443,-48.63856c0,0 37.26171,9.44569 48.67089,20.76975z"/></g><g fill="url(#color-101)"><path d="M170.79486,139.34454c0.40878,0.40575 10.40227,7.82775 -1.39116,19.57426c-11.63307,11.58675 -17.48987,3.5679 -19.54043,1.63313c-8.89728,-8.39489 -17.41563,-38.33445 -17.41563,-38.33445c0,0 29.66521,8.50978 38.34725,17.12707z"/></g></g></g><path d="M197.24545,183.63328c0,1.97307 -1.59948,3.57254 -3.57254,3.57254c-1.97307,0 -3.57254,-1.59948 -3.57254,-3.57254c0,-1.97307 1.59948,-3.57254 3.57254,-3.57254c1.97307,0 3.57254,1.59948 3.57254,3.57254z" fill="url(#color-102)" stroke="none"/></g><g data-paper-data="{&quot;index&quot;:null}" stroke-width="0"><g><path d="M284.06692,182.19416l32.52009,-32.7699l2.64004,2.64114l-32.52011,32.7699z" fill="url(#color-103)" stroke="none"/><g stroke="#000000"><g fill="url(#color-104)"><path d="M303.70115,136.61984c11.40919,-11.32407 48.67089,-20.76975 48.67089,-20.76975c0,0 -9.47242,37.60671 -21.16443,48.63856c-2.69469,2.54256 -10.39115,13.0802 -25.67832,-2.14608c-15.49789,-15.43619 -2.36535,-25.18958 -1.82815,-25.72275z"/></g><g fill="url(#color-105)"><path d="M308.14041,139.34452c8.68205,-8.61728 38.34725,-17.12707 38.34725,-17.12707c0,0 -8.51837,29.93956 -17.41563,38.33445c-2.05056,1.93478 -7.90736,9.95362 -19.54043,-1.63313c-11.79343,-11.74649 -1.79994,-19.1685 -1.39116,-19.57426z"/></g></g></g><path d="M285.26233,180.06073c1.97307,0 3.57254,1.59948 3.57254,3.57254c0,1.97307 -1.59948,3.57254 -3.57254,3.57254c-1.97307,0 -3.57254,-1.59948 -3.57254,-3.57254c0,-1.97307 1.59948,-3.57254 3.57254,-3.57254z" fill="url(#color-106)" stroke="none"/></g><g stroke-width="0"><path d="M310.67541,268.61091l-143.2402,-0.86826c0,0 -16.13192,-25.69927 -7.7432,-52.76418c9.93413,-32.05092 1.57908,-63.103 80.32199,-63.01118c77.03099,0.12879 65.45807,29.46252 77.17622,60.89226c11.5345,30.93714 -6.5148,55.75134 -6.5148,55.75134zM211.7806,236.99997c12.54639,0 22.71728,-10.17089 22.71728,-22.71728c0,-29.20574 -10.17089,-37.48353 -22.71728,-37.48353c-12.54639,0 -24.6104,11.68539 -22.71728,37.48353c0.91821,12.51277 10.17089,22.71728 22.71728,22.71728zM266.30208,236.4524c12.54639,0 22.33865,-11.07955 22.33865,-23.62597c0,-12.54639 -1.08396,-35.81759 -22.33865,-35.81759c-20.87607,0 -21.96002,23.27117 -21.96002,35.81759c0,12.54639 9.41363,23.62597 21.96002,23.62597z" fill="url(#color-107)" stroke="none"/><g><g stroke="#000000"><path d="M200.49019,256.88306c-1.44802,6.53285 -21.9228,5.6892 -46.21693,0.30434c-24.29408,-5.38483 -48.58488,-34.50296 -48.58488,-34.50296c0,0 28.15807,11.67063 52.45215,17.05547c0,0 43.79768,10.61027 42.34965,17.14312z" fill="url(#color-108)"/><path d="M201.99538,260.2255c-0.59826,6.66463 -21.0122,8.45371 -45.79626,6.22893c-24.78406,-2.22476 -52.60854,-27.98726 -52.60854,-27.98726c0,0 29.42224,7.96313 54.20632,10.18788c0,0 44.79674,4.90577 44.19849,11.57042z" fill="url(#color-109)"/><path d="M200.63619,261.12316c0.45953,6.67564 -19.41734,11.65954 -44.24233,13.36843c-24.82497,1.70891 -56.36181,-19.34658 -56.36181,-19.34658c0,0 30.30953,3.22676 55.1345,1.51786c0,0 45.01009,-2.21533 45.46961,4.46029z" fill="url(#color-110)"/><path d="M203.0255,263.90316c1.31185,6.56156 -17.76171,14.05343 -42.16254,18.93195c-24.40081,4.8785 -58.37748,-11.9587 -58.37748,-11.9587c0,0 30.47306,-0.68694 54.87386,-5.56543c0,0 44.35431,-7.96937 45.66619,-1.40781z" fill="url(#color-111)"/><path d="M202.21255,259.97693c2.7103,6.11795 -14.27211,17.58648 -37.02326,27.66542c-22.75113,10.07896 -59.58053,1.05104 -59.58053,1.05104c0,0 29.59089,-7.31144 52.34205,-17.39039c0,0 41.55142,-17.44403 44.26174,-11.32606z" fill="url(#color-112)"/></g><g data-paper-data="{&quot;index&quot;:null}" stroke="#000000"><path d="M317.63217,239.73994c24.29408,-5.38483 52.45213,-17.05547 52.45213,-17.05547c0,0 -24.2908,29.11813 -48.58488,34.50296c-24.2941,5.38483 -44.7689,6.22851 -46.21693,-0.30434c-1.44802,-6.53285 42.34965,-17.14312 42.34965,-17.14312z" fill="url(#color-113)"/><path d="M317.97577,248.65509c24.78408,-2.22476 54.20632,-10.18788 54.20632,-10.18788c0,0 -27.82446,25.76249 -52.60854,27.98726c-24.78408,2.22478 -45.19801,0.43568 -45.79626,-6.22893c-0.59826,-6.66463 44.19849,-11.57042 44.19849,-11.57042z" fill="url(#color-114)"/><path d="M320.60609,256.66287c24.82497,1.70891 55.1345,-1.51786 55.1345,-1.51786c0,0 -31.53684,21.05551 -56.36181,19.34658c-24.82499,-1.70891 -44.70187,-6.69281 -44.24233,-13.36843c0.45953,-6.67564 45.46961,-4.46029 45.46961,-4.46029z" fill="url(#color-115)"/><path d="M318.41327,265.31097c24.40081,4.8785 54.87386,5.56543 54.87386,5.56543c0,0 -33.97667,16.83719 -58.37748,11.9587c-24.40084,-4.8785 -43.47442,-12.37038 -42.16254,-18.93195c1.31185,-6.56156 45.66617,1.40781 45.66617,1.40781z" fill="url(#color-116)"/><path d="M317.82196,271.30299c22.75113,10.07896 52.34205,17.39039 52.34205,17.39039c0,0 -36.8294,9.02791 -59.58053,-1.05104c-22.75115,-10.07896 -39.73357,-21.54747 -37.02326,-27.66542c2.7103,-6.11795 44.26174,11.32606 44.26174,11.32606z" fill="url(#color-117)"/></g><path d="M179.43822,248.04958c8.03862,-16.20101 18.70372,-22.332 36.56877,-22.70731c9.3579,-0.45759 21.15392,1.68523 24.69443,17.53548c0.86625,3.87811 -0.52054,8.57679 -0.52054,14.25875c0,19.69952 0.00337,35.17103 0.00337,35.17103c0,0 -14.77898,4.80141 -29.18505,4.80141c-17.86865,0 -47.97585,-15.97686 -31.56096,-49.05935z" data-paper-data="{&quot;index&quot;:null}" fill="url(#color-118)" stroke="#000000"/><path d="M269.31366,297.10894c-14.52606,0 -29.65528,-4.54223 -29.65528,-4.54223c0,0 0.47356,-15.88394 0.47356,-35.43021c0,-5.52111 -0.0775,-10.11385 0.74313,-13.92744c3.47563,-16.15171 14.00803,-18.32755 23.43076,-17.86678c17.86505,0.37531 28.53016,6.5063 36.56877,22.70731c16.41489,33.08249 -13.69235,49.05935 -31.56096,49.05935z" fill="url(#color-119)" stroke="#000000"/><path d="M239.85058,227.91306c4.28668,0 7.76172,2.45797 7.76172,5.49001c0,3.03206 -3.47501,15.27591 -7.76172,15.27591c-4.28671,0 -7.76175,-12.24387 -7.76175,-15.27591c0,-3.03206 3.47504,-5.49001 7.76175,-5.49001z" fill="url(#color-120)" stroke="none"/></g></g></g></g></svg>