<svg version="1.1" xmlns="http://www.w3.org/2000/svg" xmlns:xlink="http://www.w3.org/1999/xlink" width="540.92457" height="402" viewBox="0,0,540.92457,402"><defs><linearGradient x1="304.47222" y1="177.97605" x2="516.31606" y2="177.97605" gradientUnits="userSpaceOnUse" id="color-1"><stop offset="0" stop-color="#757575"/><stop offset="1" stop-color="#414141"/></linearGradient><linearGradient x1="362.07808" y1="179.00006" x2="286.92192" y2="179.00006" gradientUnits="userSpaceOnUse" id="color-2"><stop offset="0" stop-color="#545454"/><stop offset="1" stop-color="#0e0e0e"/></linearGradient><linearGradient x1="162.5" y1="-16.20714" x2="162.5" y2="374.20728" gradientUnits="userSpaceOnUse" id="color-3"><stop offset="0" stop-color="#cccccc"/><stop offset="1" stop-color="#858585"/></linearGradient><radialGradient cx="287.04428" cy="72.51135" r="116.36984" gradientUnits="userSpaceOnUse" id="color-4"><stop offset="0" stop-color="#868686"/><stop offset="1" stop-color="#515151"/></radialGradient><linearGradient x1="180.8135" y1="75.06892" x2="180.8135" y2="109.92971" gradientUnits="userSpaceOnUse" id="color-5"><stop offset="0" stop-color="#868686"/><stop offset="1" stop-color="#515151"/></linearGradient><radialGradient cx="249.83333" cy="199.83338" r="48.08095" gradientUnits="userSpaceOnUse" id="color-6"><stop offset="0" stop-color="#636363"/><stop offset="1" stop-color="#595959"/></radialGradient><radialGradient cx="250.77163" cy="199.8308" r="23.19701" gradientUnits="userSpaceOnUse" id="color-7"><stop offset="0" stop-color="#9f0000"/><stop offset="1" stop-color="#690000"/></radialGradient><linearGradient x1="260" y1="372.50001" x2="260" y2="218.50002" gradientUnits="userSpaceOnUse" id="color-8"><stop offset="0" stop-color="#000000"/><stop offset="1" stop-color="#000000" stop-opacity="0"/></linearGradient><linearGradient x1="260" y1="-6.49999" x2="260" y2="227.50002" gradientUnits="userSpaceOnUse" id="color-9"><stop offset="0" stop-color="#000000"/><stop offset="1" stop-color="#000000" stop-opacity="0"/></linearGradient><linearGradient x1="1.5" y1="180.00002" x2="200.5" y2="180.00002" gradientUnits="userSpaceOnUse" id="color-10"><stop offset="0" stop-color="#000000"/><stop offset="1" stop-color="#000000" stop-opacity="0"/></linearGradient><linearGradient x1="504.5" y1="180.00002" x2="302.5" y2="180.00002" gradientUnits="userSpaceOnUse" id="color-11"><stop offset="0" stop-color="#000000"/><stop offset="1" stop-color="#000000" stop-opacity="0"/></linearGradient><linearGradient x1="249.5" y1="158.63063" x2="249.5" y2="242.36271" gradientUnits="userSpaceOnUse" id="color-12"><stop offset="0" stop-color="#828282"/><stop offset="1" stop-color="#464646"/></linearGradient></defs><g transform="translate(22.60851,22.10496)"><g data-paper-data="{&quot;isPaintingLayer&quot;:true}" fill-rule="nonzero" stroke-linejoin="miter" stroke-miterlimit="10" stroke-dasharray="" stroke-dashoffset="0" style="mix-blend-mode: normal"><path d="M306.47222,372.68176v-389.41141h211.84384v389.41141z" fill="url(#color-1)" stroke="none" stroke-width="0" stroke-linecap="butt"/><path d="M288.92192,374.20728v-390.41441h75.15616v390.41441z" fill="url(#color-2)" stroke="#000000" stroke-width="0" stroke-linecap="butt"/><path d="M-0.92192,374.20728v-390.41441h330.84384v390.41441z" fill="url(#color-3)" stroke="#000000" stroke-width="0" stroke-linecap="butt"/><path d="M196.40159,282.73974v-232.73968h110.09841v232.73968z" fill="url(#color-4)" stroke="none" stroke-width="0" stroke-linecap="butt"/><path d="M87,109.92705v-34.84127h168.63175c0,0 22.99524,-1.21829 22.99524,17.07222c0,18.40664 -22.99524,17.76905 -22.99524,17.76905z" fill="url(#color-5)" stroke="none" stroke-width="0" stroke-linecap="butt"/><g stroke="none" stroke-width="0" stroke-linecap="butt"><path d="M299.23708,199.83338c0,26.00208 -21.22338,47.08095 -47.40375,47.08095c-26.18037,0 -47.40375,-21.07887 -47.40375,-47.08095c0,-26.00208 21.22338,-47.08095 47.40375,-47.08095c26.18037,0 47.40375,21.07887 47.40375,47.08095z" fill="url(#color-6)"/><path d="M299.24463,201.05924l-46.38666,0.16357l-0.00735,-2.6153l46.38666,-0.16357z" fill="url(#color-7)"/></g><path d="M512,372.50001h-500v-154h500z" data-paper-data="{&quot;index&quot;:null}" fill="url(#color-8)" stroke="none" stroke-width="0" stroke-linecap="butt"/><path d="M512,227.50002h-500v-234h500z" data-paper-data="{&quot;index&quot;:null}" fill="url(#color-9)" stroke="none" stroke-width="0" stroke-linecap="butt"/><path d="M3.5,370.00001v-380h199v380z" fill="url(#color-10)" stroke="none" stroke-width="0" stroke-linecap="butt"/><path d="M304.5,370.00001v-380h202v380z" data-paper-data="{&quot;index&quot;:null}" fill="url(#color-11)" stroke="none" stroke-width="0" stroke-linecap="butt"/><g><path d="M251.5,242.36271c-22.96451,0 -41.58095,-18.74406 -41.58095,-41.86604c0,-23.12198 18.61644,-41.86604 41.58095,-41.86604c22.96451,0 41.58095,18.74406 41.58095,41.86604c0,23.12198 -18.61644,41.86604 -41.58095,41.86604z" fill="url(#color-12)" stroke="none" stroke-width="0" stroke-linecap="butt"/><path d="M251.5,235.24884c-19.06239,0 -34.51551,-15.55907 -34.51551,-34.75216c0,-19.19309 15.45312,-34.75216 34.51551,-34.75216c19.06238,0 34.51551,15.55907 34.51551,34.75216c0,19.19309 -15.45312,34.75216 -34.51551,34.75216z" fill="#696969" stroke="none" stroke-width="0" stroke-linecap="butt"/><path d="M250.82521,181.66181l-3.17945,18.37014" fill="none" stroke="#717171" stroke-width="0.5" stroke-linecap="round"/><path d="M248.35231,204.62449l6.71217,-19.78323" fill="none" stroke="#717171" stroke-width="0.5" stroke-linecap="round"/><path d="M259.65701,197.02914l-13.60097,-12.54115" fill="none" stroke="#717171" stroke-width="0.5" stroke-linecap="round"/><path d="M243.75977,190.4936l12.54115,13.77761" fill="none" stroke="#717171" stroke-width="0.5" stroke-linecap="round"/><path d="M226.44944,212.21983l5.47572,7.59535" fill="none" stroke="#717171" stroke-width="0.5" stroke-linecap="round"/><path d="M231.21861,213.27965l4.4159,8.12526" fill="none" stroke="#717171" stroke-width="0.5" stroke-linecap="round"/><path d="M226.62608,219.28526l8.30189,-1.23645" fill="none" stroke="#717171" stroke-width="0.5" stroke-linecap="round"/></g><path d="M-22.6085,379.89505v-402h29v402z" fill="#000000" stroke="none" stroke-width="NaN" stroke-linecap="butt"/></g></g></svg>