<svg version="1.1" xmlns="http://www.w3.org/2000/svg" xmlns:xlink="http://www.w3.org/1999/xlink" width="489.06868" height="918.97017" viewBox="0,0,489.06868,918.97017"><defs><linearGradient x1="29.26777" y1="467.3238" x2="29.26777" y2="607.84118" gradientUnits="userSpaceOnUse" id="color-1"><stop offset="0" stop-color="#c5c5c5"/><stop offset="1" stop-color="#5d5d5d"/></linearGradient><linearGradient x1="239.64077" y1="337.09502" x2="239.64077" y2="552.55187" gradientUnits="userSpaceOnUse" id="color-2"><stop offset="0" stop-color="#a3a3a3"/><stop offset="1" stop-color="#5d5d5d"/></linearGradient><linearGradient x1="240.4369" y1="467.35889" x2="240.4369" y2="732.4308" gradientUnits="userSpaceOnUse" id="color-3"><stop offset="0" stop-color="#c5c5c5"/><stop offset="1" stop-color="#5d5d5d"/></linearGradient><linearGradient x1="249.23118" y1="453.58546" x2="249.23118" y2="905.22801" gradientUnits="userSpaceOnUse" id="color-4"><stop offset="0" stop-color="#c5c5c5"/><stop offset="1" stop-color="#5d5d5d"/></linearGradient><linearGradient x1="250.52524" y1="435.76355" x2="250.52524" y2="962.90234" gradientUnits="userSpaceOnUse" id="color-5"><stop offset="0" stop-color="#c5c5c5"/><stop offset="1" stop-color="#5d5d5d"/></linearGradient><linearGradient x1="241.18753" y1="452.1593" x2="241.18753" y2="892.09376" gradientUnits="userSpaceOnUse" id="color-6"><stop offset="0" stop-color="#c0c0c0"/><stop offset="1" stop-color="#9f9f9f"/></linearGradient><linearGradient x1="138.57057" y1="485.93622" x2="138.57057" y2="560.62575" gradientUnits="userSpaceOnUse" id="color-7"><stop offset="0" stop-color="#c0c0c0"/><stop offset="1" stop-color="#838383"/></linearGradient><linearGradient x1="138.57057" y1="532.44113" x2="138.57057" y2="607.13064" gradientUnits="userSpaceOnUse" id="color-8"><stop offset="0" stop-color="#c0c0c0"/><stop offset="1" stop-color="#838383"/></linearGradient><linearGradient x1="138.57057" y1="577.53658" x2="138.57057" y2="652.22617" gradientUnits="userSpaceOnUse" id="color-9"><stop offset="0" stop-color="#c0c0c0"/><stop offset="1" stop-color="#838383"/></linearGradient><linearGradient x1="143.07415" y1="620.66375" x2="143.07415" y2="695.35329" gradientUnits="userSpaceOnUse" id="color-10"><stop offset="0" stop-color="#c0c0c0"/><stop offset="1" stop-color="#838383"/></linearGradient><linearGradient x1="154.3331" y1="674.25992" x2="154.3331" y2="735.52721" gradientUnits="userSpaceOnUse" id="color-11"><stop offset="0" stop-color="#c0c0c0"/><stop offset="1" stop-color="#838383"/></linearGradient><linearGradient x1="344.2345" y1="485.93622" x2="344.2345" y2="560.62575" gradientUnits="userSpaceOnUse" id="color-12"><stop offset="0" stop-color="#c0c0c0"/><stop offset="1" stop-color="#838383"/></linearGradient><linearGradient x1="344.2345" y1="532.44113" x2="344.2345" y2="607.13064" gradientUnits="userSpaceOnUse" id="color-13"><stop offset="0" stop-color="#c0c0c0"/><stop offset="1" stop-color="#838383"/></linearGradient><linearGradient x1="344.2345" y1="577.53658" x2="344.2345" y2="652.22617" gradientUnits="userSpaceOnUse" id="color-14"><stop offset="0" stop-color="#c0c0c0"/><stop offset="1" stop-color="#838383"/></linearGradient><linearGradient x1="339.73095" y1="620.66375" x2="339.73095" y2="695.35329" gradientUnits="userSpaceOnUse" id="color-15"><stop offset="0" stop-color="#c0c0c0"/><stop offset="1" stop-color="#838383"/></linearGradient><linearGradient x1="328.47192" y1="674.25992" x2="328.47192" y2="735.52721" gradientUnits="userSpaceOnUse" id="color-16"><stop offset="0" stop-color="#c0c0c0"/><stop offset="1" stop-color="#838383"/></linearGradient><linearGradient x1="241.18753" y1="452.1593" x2="241.18753" y2="478.05494" gradientUnits="userSpaceOnUse" id="color-17"><stop offset="0" stop-color="#c0c0c0"/><stop offset="1" stop-color="#9f9f9f"/></linearGradient><linearGradient x1="195.23984" y1="843.51375" x2="287.13534" y2="843.51375" gradientUnits="userSpaceOnUse" id="color-18"><stop offset="0" stop-color="#7b7b7b"/><stop offset="1" stop-color="#b9b9b9"/></linearGradient><radialGradient cx="472.37182" cy="457.97647" r="24.98435" gradientUnits="userSpaceOnUse" id="color-19"><stop offset="0" stop-color="#a7a7a7"/><stop offset="1" stop-color="#7a7a7a"/></radialGradient><radialGradient cx="29.51873" cy="456.47526" r="24.98435" gradientUnits="userSpaceOnUse" id="color-20"><stop offset="0" stop-color="#a7a7a7"/><stop offset="1" stop-color="#7a7a7a"/></radialGradient><linearGradient x1="321.67206" y1="295.87562" x2="340.42278" y2="391.51038" gradientUnits="userSpaceOnUse" id="color-21"><stop offset="0" stop-color="#c5c5c5"/><stop offset="1" stop-color="#5d5d5d"/></linearGradient><linearGradient x1="61.82154" y1="68.60491" x2="72.81615" y2="124.68102" gradientUnits="userSpaceOnUse" id="color-22"><stop offset="0" stop-color="#c5c5c5"/><stop offset="1" stop-color="#5d5d5d"/></linearGradient><linearGradient x1="286.33577" y1="58.98883" x2="294.54684" y2="100.86792" gradientUnits="userSpaceOnUse" id="color-23"><stop offset="0" stop-color="#c5c5c5"/><stop offset="1" stop-color="#5d5d5d"/></linearGradient><linearGradient x1="186.18486" y1="85.87065" x2="244.55109" y2="383.55733" gradientUnits="userSpaceOnUse" id="color-24"><stop offset="0" stop-color="#a3a3a3"/><stop offset="1" stop-color="#1a1a1a"/></linearGradient><linearGradient x1="176.55255" y1="22.67276" x2="249.86529" y2="396.59141" gradientUnits="userSpaceOnUse" id="color-25"><stop offset="0" stop-color="#c5c5c5"/><stop offset="1" stop-color="#5d5d5d"/></linearGradient><linearGradient x1="170.00036" y1="47.1572" x2="233.79884" y2="372.55013" gradientUnits="userSpaceOnUse" id="color-26"><stop offset="0" stop-color="#b9b9b9"/><stop offset="1" stop-color="#5c5c5c"/></linearGradient><linearGradient x1="243.15596" y1="373.18094" x2="174.24492" y2="21.71235" gradientUnits="userSpaceOnUse" id="color-27"><stop offset="0" stop-color="#5d5d5d"/><stop offset="1" stop-color="#a1a1a1"/></linearGradient><linearGradient x1="243.15596" y1="373.18094" x2="174.24492" y2="21.71235" gradientUnits="userSpaceOnUse" id="color-28"><stop offset="0" stop-color="#c5c5c5"/><stop offset="1" stop-color="#5d5d5d"/></linearGradient><linearGradient x1="176.55255" y1="22.67276" x2="249.86529" y2="396.59141" gradientUnits="userSpaceOnUse" id="color-29"><stop offset="0" stop-color="#c5c5c5"/><stop offset="1" stop-color="#5d5d5d"/></linearGradient><linearGradient x1="157.3128" y1="217.78084" x2="163.02739" y2="216.6604" gradientUnits="userSpaceOnUse" id="color-30"><stop offset="0" stop-color="#cdcdcd"/><stop offset="1" stop-color="#444444"/></linearGradient><linearGradient x1="262.39762" y1="197.17727" x2="268.11223" y2="196.05683" gradientUnits="userSpaceOnUse" id="color-31"><stop offset="0" stop-color="#cdcdcd"/><stop offset="1" stop-color="#444444"/></linearGradient><linearGradient x1="207.74755" y1="179.89342" x2="209.71417" y2="189.9238" gradientUnits="userSpaceOnUse" id="color-32"><stop offset="0" stop-color="#cdcdcd"/><stop offset="1" stop-color="#444444"/></linearGradient><radialGradient cx="261.05734" cy="175.44293" r="25.18914" gradientUnits="userSpaceOnUse" id="color-33"><stop offset="0" stop-color="#ffffff"/><stop offset="1" stop-color="#939393"/></radialGradient><radialGradient cx="264.71439" cy="162.66842" r="25.18914" gradientUnits="userSpaceOnUse" id="color-34"><stop offset="0" stop-color="#b9b097"/><stop offset="1" stop-color="#827c69"/></radialGradient><linearGradient x1="228.52056" y1="291.05266" x2="229.58853" y2="296.49962" gradientUnits="userSpaceOnUse" id="color-35"><stop offset="0" stop-color="#a0a0a0"/><stop offset="1" stop-color="#696969"/></linearGradient><linearGradient x1="235.45617" y1="233.5008" x2="247.41249" y2="294.48187" gradientUnits="userSpaceOnUse" id="color-36"><stop offset="0" stop-color="#cdcdcd"/><stop offset="1" stop-color="#444444"/></linearGradient><linearGradient x1="201.17261" y1="240.00762" x2="213.12891" y2="300.98865" gradientUnits="userSpaceOnUse" id="color-37"><stop offset="0" stop-color="#cdcdcd"/><stop offset="1" stop-color="#444444"/></linearGradient><linearGradient x1="228.59386" y1="289.04665" x2="238.63616" y2="340.26562" gradientUnits="userSpaceOnUse" id="color-38"><stop offset="0" stop-color="#6e6e6e"/><stop offset="1" stop-color="#969696"/></linearGradient><linearGradient x1="216.48352" y1="204.13081" x2="224.23316" y2="243.6565" gradientUnits="userSpaceOnUse" id="color-39"><stop offset="0" stop-color="#cdcdcd"/><stop offset="1" stop-color="#444444"/></linearGradient><linearGradient x1="155.38622" y1="184.50871" x2="173.32045" y2="275.97911" gradientUnits="userSpaceOnUse" id="color-40"><stop offset="0" stop-color="#c5c5c5"/><stop offset="1" stop-color="#5d5d5d"/></linearGradient><linearGradient x1="154.15177" y1="186.08577" x2="171.45743" y2="274.35016" gradientUnits="userSpaceOnUse" id="color-41"><stop offset="0" stop-color="#c5c5c5"/><stop offset="1" stop-color="#5d5d5d"/></linearGradient><radialGradient cx="167.00845" cy="280.91855" r="25.18914" gradientUnits="userSpaceOnUse" id="color-42"><stop offset="0" stop-color="#ffffff"/><stop offset="1" stop-color="#939393"/></radialGradient><radialGradient cx="159.94706" cy="183.20974" r="25.18914" gradientUnits="userSpaceOnUse" id="color-43"><stop offset="0" stop-color="#b9b097"/><stop offset="1" stop-color="#827c69"/></radialGradient><linearGradient x1="168.67465" y1="34.86897" x2="215.45575" y2="273.46765" gradientUnits="userSpaceOnUse" id="color-44"><stop offset="0" stop-color="#afafaf"/><stop offset="1" stop-color="#515151"/></linearGradient><linearGradient x1="190.63912" y1="127.2467" x2="219.97058" y2="276.84664" gradientUnits="userSpaceOnUse" id="color-45"><stop offset="0" stop-color="#afafaf"/><stop offset="1" stop-color="#4b4b4b"/></linearGradient><linearGradient x1="176.55255" y1="22.67276" x2="249.86529" y2="396.59141" gradientUnits="userSpaceOnUse" id="color-46"><stop offset="0" stop-color="#c5c5c5"/><stop offset="1" stop-color="#5d5d5d"/></linearGradient><radialGradient cx="261.13377" cy="176.82708" r="38.82642" gradientUnits="userSpaceOnUse" id="color-47"><stop offset="0" stop-color="#ff0000"/><stop offset="1" stop-color="#ff0000" stop-opacity="0"/></radialGradient></defs><g transform="translate(3.34687,-10.65541)"><g data-paper-data="{&quot;isPaintingLayer&quot;:true}" fill-rule="nonzero" stroke-linecap="butt" stroke-linejoin="miter" stroke-miterlimit="10" stroke-dasharray="" stroke-dashoffset="0" style="mix-blend-mode: normal"><path d="M29.13781,598.26521c0.67436,0.76908 3.37679,4.2879 -0.14205,7.8068c-3.9806,3.9806 -7.96129,0 -7.96129,0l-3.15,-5.4818c0,-4.43459 0.05918,-8.86925 0.15057,-13.30297c5.22686,-10.83264 18.83838,-37.71295 11.08844,-49.97606c-5.4482,-8.62098 -13.81465,-16.22747 -12.69809,-27.48063c0.67382,-6.79168 17.71366,-28.91709 6.07214,-31.80697c0,0 -5.03512,-2.51756 -2.51762,-7.55274c2.51756,-5.03512 7.55274,-2.51762 7.55274,-2.51762c8.84169,5.42513 13.12077,17.21681 8.6882,28.20618c-1.92714,4.77775 -12.05392,11.44745 -8.86757,18.58345c2.70093,6.04882 8.55207,11.36818 11.56777,17.02099c8.87399,16.63391 -2.17186,43.22222 -9.92826,58.11011c0.08937,2.79605 0.1311,5.59366 0.14497,8.39123z" fill="url(#color-1)" stroke="none" stroke-width="0.5"/><g stroke="none"><g><path d="M250.19468,353.64325h3.00241c13.61907,0 19.7132,1.08269 23.60166,15.45003c0.06041,9.59218 0.58732,20.22206 2.894,29.41835c1.49056,5.94256 6.20305,12.00371 7.506,18.01437c0.01351,0.06249 0.02697,0.12532 0.04023,0.18847c0.00712,-0.00058 0.01419,-0.00117 0.02135,-0.00179c7.85732,-0.65479 18.3943,-3.65406 26.26366,-1.2315c9.91795,3.05324 16.01221,16.02656 25.52035,19.51551c3.4388,1.26187 7.36358,0.36609 10.9172,1.25446c18.03805,-0.14306 44.69173,-4.94025 61.31318,1.80867c2.88286,1.17054 6.10757,2.16245 8.19428,4.47048c2.03041,2.24573 4.31401,15.09205 8.52005,16.62516c7.43123,2.70875 20.08053,-3.38184 27.86961,-3.43094c0,0 5.62947,0 5.62947,5.62947c0,4.44533 -3.51018,5.38035 -4.98699,5.5771c-1.27731,2.69597 -4.58594,3.02685 -4.58594,3.02685c-14.2789,1.4259 -29.36822,2.94225 -43.1652,7.11201c-19.92218,6.02094 -32.45678,26.7336 -51.69136,33.15935c-6.53939,2.1846 -18.93701,1.7901 -25.79935,1.7901c-4.94545,0 -11.77051,0.38627 -16.16709,-2.16731c-3.59034,-2.08536 -5.97677,-5.76499 -8.96516,-8.64749c-9.95538,-7.22629 -23.86333,-15.41457 -29.4903,-26.92283c-2.94156,-6.01614 -3.27768,-12.62341 -2.7007,-19.43389c-4.03955,-6.03517 -7.58478,-12.36814 -10.62574,-17.74177c-1.49118,-2.63506 -2.44943,-5.25079 -3.19797,-7.73423c-1.57432,0.03022 -3.15088,0.05203 -4.73051,0.06557c-0.30706,0.26503 -0.61805,0.52702 -0.93282,0.78597c-0.08378,0.28149 -0.17144,0.56176 -0.26319,0.84055c-0.31908,0.96946 -2.49218,1.60147 -1.87904,2.41742c0.90824,1.20875 3.30613,-0.03513 4.42945,0.97687c8.87865,7.99868 9.89535,17.88628 8.0407,29.17782c-1.93694,11.79279 -8.38764,15.32522 -12.38371,25.39263c-4.97356,12.52999 -4.07506,25.1712 -4.07506,38.378c0,5.00399 0,10.00799 0,15.01195v4.50361c0,0 0,5.62947 -5.62947,5.62947c-5.62947,0 -5.62947,-5.62947 -5.62947,-5.62947c0,-5.00399 0,-14.51154 0,-19.51551c0,-11.97476 -0.45722,-23.42831 2.38167,-34.79523c-5.40581,4.49928 -12.13044,8.05816 -17.13253,12.0691c-7.89446,6.33017 -9.29713,14.07233 -20.5885,16.24446c-16.8424,3.24004 -41.90164,-0.63559 -58.3409,-4.67511c-15.49353,-6.69617 -18.90811,-28.6558 -34.57567,-34.54337c-3.40736,-1.28041 -7.31334,0.75814 -10.9172,0.24672c-8.4822,-1.20373 -12.38188,-7.04479 -20.34463,-9.17326c-15.25308,-4.0772 -33.87003,-1.29299 -49.52379,-1.29299c0,0 -1.06302,0 -2.26519,-0.46195c-0.04922,0.0198 -0.09846,0.03961 -0.14763,0.0593c0,0 -5.22686,2.09075 -7.31757,-3.13612c-2.09075,-5.22686 3.13612,-7.31757 3.13612,-7.31757c13.39486,-5.34835 27.50211,-13.95294 42.06835,-15.3872c30.40089,-2.99353 61.95201,1.6605 92.12775,1.47381c13.17827,0 26.84732,1.07138 39.9776,0.02736c4.32211,-0.34369 7.80314,-3.78655 11.76772,-5.54186c6.69091,-2.96241 13.94173,-5.74624 20.99674,-8.98351c-1.06808,-1.53085 -2.15119,-3.02476 -3.2257,-4.47731c-4.79028,-3.84776 -12.21348,-4.66312 -15.63122,-9.76913c-4.26974,-6.37884 -1.17266,-11.65833 2.51593,-16.36304c-5.2873,-3.65843 -9.62346,-8.00547 -11.86708,-12.73983c-3.90821,-8.2471 -8.66689,-27.55525 -2.4706,-36.01698c2.98123,-4.07123 10.56351,-5.38539 15.11799,-6.54796l2.86649,-0.16804c0,0 5.62947,0 5.62947,5.62947c0,5.62947 -5.62947,5.62947 -5.62947,5.62947l-0.13581,-0.16804c-2.99075,0.72856 -7.19318,-0.10164 -8.90114,2.45924c-3.16846,4.7508 1.88673,19.91689 3.53417,24.03093c0.91747,2.29118 2.79307,4.5174 5.24705,6.57797c0.3629,-5.93011 1.56546,-11.32109 3.54139,-15.23362c3.84992,-2.6114 6.8165,-4.45168 9.68293,-5.89107c0.88109,-2.19381 1.78637,-4.3701 2.74327,-6.49836c-0.75796,-0.54254 -1.55231,-1.13462 -2.38736,-1.78772l-2.27277,-7.75338c0,0 -1.36537,-5.4614 4.09609,-6.82676c5.4614,-1.36537 6.82676,4.09609 6.82676,4.09609l0.10671,0.62267c3.38107,-4.89781 7.51561,-9.02586 12.93104,-11.79848l3.00241,-1.50119c0,0 5.03512,-2.51762 7.55274,2.51762c2.51762,5.03512 -2.51762,7.55274 -2.51762,7.55274l-3.00241,1.50119c-2.8471,1.37934 -4.87534,2.84246 -6.38548,4.43292c0.51992,-0.08559 0.86549,-0.08559 0.86549,-0.08559zM287.30712,447.02998c-0.198,1.82135 -0.57854,3.81888 -0.95916,5.89504c2.90219,3.89105 6.04947,7.42179 9.44926,10.08039c15.91291,12.44358 40.50345,7.73124 59.48122,7.73124c0,0 5.62947,0 5.62947,5.62947c0,5.62947 -5.62947,5.62947 -5.62947,5.62947c-22.52783,0 -47.70419,4.36865 -66.61934,-10.28313c-0.35244,-0.27303 -0.70253,-0.55389 -1.05042,-0.84229c5.54575,9.0738 17.73549,15.84217 25.83866,21.78023c29.27639,30.61312 64.27244,-17.81095 91.74828,-26.26347c3.95132,-1.21557 8.00522,-2.22215 12.11656,-3.07392c-3.12492,-5.68511 -3.9139,-12.7705 -9.94377,-14.69341c-16.92151,-5.39616 -40.87939,-1.08088 -58.78256,-1.19375c-4.27446,-1.06861 -8.98342,-0.18241 -13.10196,-1.74787c-9.40241,-3.57385 -16.26191,-16.85404 -25.52035,-19.51551c-5.89156,-1.69365 -15.94754,1.2646 -21.6912,1.7638c0.10963,6.68555 -0.39656,13.87257 -0.96529,19.10379zM268.73496,401.09847c-2.38274,-9.55638 -3.18944,-20.71266 -3.11082,-30.6295c-1.64933,-7.95379 -5.10555,-5.56671 -12.42704,-5.56671h-0.03584c2.13709,2.21744 4.17256,5.14952 6.47186,9.67596c4.49508,7.84188 7.37803,22.56673 5.7985,35.05421c1.41591,2.54877 2.31748,5.35797 3.09289,8.21914c2.42596,-0.09404 4.84973,-0.20807 7.27461,-0.3431c-1.734,-5.44803 -5.70705,-10.96696 -7.06416,-16.40997zM271.83512,428.99095c0.37578,0.88384 0.79513,1.74244 1.27268,2.56803c1.02419,1.77064 2.10618,3.67927 3.2469,5.66212c0.37664,-2.86587 0.66116,-5.70954 0.73104,-8.50292c-1.75022,0.10145 -3.50011,0.19237 -5.25061,0.27273zM229.9012,392.88864c-0.64277,1.5917 -1.40903,3.13002 -2.26166,4.62468c6.07873,2.60643 12.36941,4.20141 16.55039,4.16824c0.40034,0.00206 0.82881,-0.00153 1.28004,-0.00761c-0.08098,-8.9087 -0.97941,-17.84936 -3.58042,-25.49827c-0.83292,0.21989 -1.62225,0.43699 -2.38248,0.6605c-3.11017,5.41124 -7.14452,9.95736 -9.60581,16.05246zM94.98838,469.78181c5.35257,2.86769 11.93524,-0.79403 17.37518,1.2437c16.24058,6.0835 20.01071,29.50973 34.47937,34.51171c15.17311,3.88551 37.03034,6.36277 52.74771,4.3321c7.60034,-0.98196 10.01227,-9.35983 15.44022,-13.77943c5.94237,-4.83851 17.2016,-9.71618 21.36802,-16.67857c7.71655,-12.89497 4.42481,-25.85806 -1.91475,-37.44598c-7.74289,3.51169 -15.69722,6.46959 -22.52383,9.51605c-5.0434,2.2507 -9.76727,5.83651 -15.25383,6.46769c-13.30548,1.53082 -27.68626,0.02736 -41.08704,0.02736c-29.90463,-0.15393 -60.87816,-3.98418 -91.01829,-1.52859c-4.83211,0.39366 -9.69477,1.7912 -14.514,3.64562c15.49869,0.16192 29.94783,1.67698 44.90138,9.68843zM253.62681,462.0745c0.64232,-4.57897 1.86022,-9.52977 0.26292,-13.86896c-1.00933,-2.74198 -3.99119,-4.07678 -6.76779,-5.57498c3.60272,8.22102 5.6301,16.88093 4.69199,25.67693c0.83764,-1.848 1.48263,-3.87843 1.81285,-6.23302zM244.18991,412.94056c-3.91709,-0.02473 -8.60517,-0.86491 -13.4639,-2.36226c0.34294,0.91225 0.67618,1.79229 0.98894,2.6327c0.87544,2.35226 0.71777,5.58556 2.79746,6.99069c1.38804,0.9378 2.95639,-1.77646 4.61919,-1.97957c1.90534,-0.23269 3.82462,-0.24398 5.74749,-0.19489c0.11851,-1.66213 0.22654,-3.35834 0.31714,-5.0781c-0.32659,-0.00781 -0.66199,-0.01075 -1.00631,-0.00858z" fill="url(#color-2)" stroke-width="0.5"/><path d="M16.38324,475.99085c0,-5.62947 5.62947,-5.62947 5.62947,-5.62947c4.00318,0 9.50758,0 13.5108,0c43.42831,0.4571 77.7256,28.52933 111.37779,52.10328c16.58374,11.61722 27.36348,26.51455 48.76397,30.55479c30.54401,5.09067 67.16858,17.03598 98.66355,10.48887c19.35844,-4.02418 37.40966,-9.98532 55.23833,-18.89359c25.706,-15.25472 24.13882,-54.9383 50.97605,-70.52016c8.43766,-4.89895 18.68977,-2.79475 27.73927,-3.70573c7.84086,-0.78925 15.08289,-3.0061 23.07264,-3.0298c0,0 5.62947,0 5.62947,5.62947c0,1.56728 -0.43637,2.69825 -1.06608,3.51436c0.98881,-0.0846 1.97106,-0.1305 2.94262,-0.13669c0,0 5.62947,0 5.62947,5.62947c0,5.62947 -5.62947,5.62947 -5.62947,5.62947c-4.37612,-0.03475 -5.96053,-0.49384 -10.0564,1.15151c-2.64602,1.06291 -5.31863,2.17564 -7.66867,3.79069c-23.55569,16.1877 8.47537,41.64547 12.69566,58.69119c3.50867,14.17169 -4.51578,27.10785 -10.66246,39.14907c-2.30543,11.97473 -3.97908,24.40467 -2.7251,36.64942c1.27918,12.49091 7.15072,21.29358 5.99858,34.94596c-1.87871,22.26176 -16.59421,38.87279 -16.47954,61.68537l0.90691,0.4848c0,0 2.51756,5.03519 -2.51762,7.55274c-5.03519,2.51756 -7.55274,-2.51762 -7.55274,-2.51762l-2.09548,-5.51996c0.03436,-8.22233 1.08825,-18.88742 3.15298,-26.81372c3.25841,-12.50892 12.267,-22.36113 13.39383,-36.10017c1.04554,-12.7483 -4.6022,-20.6432 -6.01098,-32.60795c-1.62206,-13.77641 0.51276,-27.98205 3.27966,-41.41281c4.82543,-9.81421 13.28025,-21.37503 10.35428,-32.90838c-3.41164,-13.44771 -16.81105,-23.94503 -20.96308,-37.32061c-5.51,-17.75016 7.31075,-31.6949 22.5057,-37.38202c-5.00928,0.7073 -9.85882,1.93666 -15.02456,2.45026c-7.17101,0.71299 -16.56097,-1.44386 -23.30145,2.29907c-3.48635,1.93594 -4.89965,6.29903 -7.52802,9.29801c-17.15054,19.56931 -20.39349,47.25943 -43.57736,61.29423c-18.85408,9.43277 -38.26357,16.15615 -58.85267,20.13756c-33.16138,6.41248 -70.33603,-5.16778 -102.49683,-10.52791c-23.23498,-4.84844 -35.17511,-19.80671 -53.31742,-32.49549c-5.19639,-3.63436 -11.66572,-5.26283 -16.68598,-9.13689c-26.23251,-20.24315 -52.80553,-41.34414 -88.10849,-40.84118c-4.00318,0 -8.00637,0 -12.00954,0h-1.50119c0,0 -5.62947,0 -5.62947,-5.62947z" fill="url(#color-3)" stroke-width="0.5"/><path d="M271.54195,527.28901c-1.77543,-5.62891 -5.04757,-10.65174 -8.27761,-15.50854c-4.20512,-6.32303 -8.86979,-11.46159 -13.54694,-16.65538c-1.7718,0.60049 -3.56739,1.2292 -5.34242,1.90404c0.01035,0.43688 0.01771,0.7589 0.01809,0.93145c0.03192,14.54221 -0.54458,28.34824 4.92199,42.15445c2.91806,7.36974 9.01665,13.0897 11.6162,20.59085c2.09847,6.05516 3.59003,12.46234 4.14941,18.91313c7.93739,-15.86324 12.96111,-31.72236 6.46139,-52.32994zM225.74609,463.8515c0,-10.03204 9.51336,-10.03204 9.51336,-10.03204c4.66744,0.39564 10.00225,-1.37987 14.00229,1.187c1.16028,0.74455 2.23434,1.5933 3.24202,2.52262c1.65324,-0.83629 3.36712,-1.69644 5.13852,-2.65062c0,0 8.509,-4.48645 12.76344,4.48645c0.61049,1.28751 0.95815,2.48271 1.10591,3.58546c1.1576,-0.97162 2.31369,-1.94521 3.46886,-2.91989l-0.66337,-0.66556c0,0 4.25445,-8.97292 12.76344,-4.48645c8.509,4.48645 4.25445,13.45936 4.25445,13.45936l-4.46871,7.36008c-4.0076,3.38022 -8.04933,6.71696 -12.13291,9.99518c18.80717,22.52441 33.59199,54.11332 22.67395,84.10265c-7.21352,19.81392 -21.07404,36.98111 -28.55701,56.73998c8.64976,9.38963 17.12272,19.01739 21.17814,31.03659c3.15497,9.35048 0.40381,26.01981 0.36191,35.99819c-3.25352,17.37903 -8.65869,37.06355 -16.24015,54.84571c0.82657,2.39777 1.64644,4.77432 2.4528,7.1215c3.16999,9.22739 7.43254,19.00632 6.13097,28.72408c-2.51697,18.79286 -17.97025,29.40109 -21.00908,46.65307c-2.50345,14.21251 4.07431,31.52541 -0.3165,45.41625c-1.32089,4.17881 -4.74831,7.24833 -7.12248,10.87245l1.90271,-2.00638c0,0 0,2.39956 -1.11289,4.85162c0.94227,1.65943 1.45005,3.87763 0.98343,6.82969c-1.56397,9.89556 -10.94786,8.24629 -10.94786,8.24629c-4.73503,-0.99393 -10.02804,-0.42888 -14.20518,-2.98184c-20.84859,-12.74187 -23.40161,-47.75069 -20.31029,-70.33816c2.14917,-15.70325 8.84953,-27.31809 13.67555,-41.878c1.38457,-4.17706 0.72409,-9.27173 3.21154,-12.83538c2.94014,-4.21207 7.98477,-6.29849 12.18074,-9.22097c0.65529,-23.6151 -1.01523,-47.17718 -0.31434,-70.65266c-2.06483,-14.07208 -2.18741,-28.16196 -2.18741,-42.75752c0.03052,-10.23741 0.88903,-20.99136 3.14119,-31.28907c-1.95041,-2.35974 -3.74667,-4.75466 -5.30127,-7.2127c-13.11205,-20.73266 -18.62707,-45.93866 -22.44518,-70.20139c-2.52371,-16.03764 -4.39791,-35.70332 5.63832,-49.88625c3.46346,-4.89445 8.19318,-8.53357 13.46157,-11.46173c0.31378,-3.80764 1.00998,-7.51273 2.5083,-10.62028c-2.5006,-0.35316 -8.41902,-2.02479 -8.41902,-9.93741zM255.6532,664.29459c-1.98088,10.45128 -2.96685,20.94759 -3.40279,31.47413c0.7448,4.59226 1.74739,9.18349 3.09725,13.79095c0.93433,3.18921 1.92184,6.41651 2.94621,9.66275c2.98253,-9.35133 5.36196,-18.75484 7.07491,-27.62876c-0.03919,-7.65935 2.82839,-21.3117 0.36191,-28.20687c-1.81686,-5.07915 -4.6987,-9.77424 -8.12869,-14.24967c-0.65558,5.15613 -1.18347,10.31907 -1.94872,15.15754zM251.98543,781.48747c-0.46033,6.83378 -1.2381,13.73485 -2.00978,20.65736c5.83533,-9.25811 10.77308,-18.77839 7.99069,-29.00784c-0.28693,-1.055 -0.58751,-2.10803 -0.90026,-3.15919c-0.99342,1.61385 -2.0109,3.1867 -3.05262,4.71374c-0.55905,0.81954 -1.14983,1.61597 -1.76774,2.39009c-0.07498,1.46881 -0.16135,2.93743 -0.26024,4.40588zM230.75063,567.59616c3.1983,12.65757 5.4686,22.23815 11.42683,32.92594c2.16857,-4.50557 4.22369,-9.09522 4.12195,-14.00135c-0.33417,-16.10615 -8.95606,-24.52048 -14.43899,-38.41993c-4.85141,-12.29862 -6.09801,-24.48454 -6.40376,-37.10377c-7.75859,15.6261 1.69011,42.33651 5.29395,56.59924zM223.39243,834.25649c-1.95379,14.60883 -2.23849,36.94274 8.51168,46.56601l1.07297,-5.65724c0.67286,-0.81153 1.25866,-1.66539 1.76713,-2.55687c-6.86349,-19.88639 -6.38919,-39.97251 -4.64955,-60.28465c-2.89291,6.9371 -5.62412,13.87097 -6.70235,21.93267z" fill="url(#color-4)" stroke-width="0.5"/><path d="M471.71225,453.96143c11.1458,1.59224 9.55356,12.73809 9.55356,12.73809c-1.29078,6.72446 -0.15776,14.42131 -3.87245,20.17327c-5.18235,8.02449 -22.72671,15.10717 -31.23406,19.68635c-19.8297,10.67365 -48.35697,16.49753 -61.03722,36.52476c-11.29571,17.84042 1.99376,40.43783 3.87851,58.27349c2.75308,26.05275 -4.76228,49.0973 -14.26122,72.8448c-12.0734,29.94342 -36.29592,48.7597 -52.66752,76.04696c-7.51328,12.52273 -7.93824,22.5777 -12.38113,35.8431c-6.77663,20.23336 -16.64408,44.05372 -29.78551,64.04971c-2.72761,9.18062 -6.74752,17.61259 -11.24001,27.27751c-1.02716,2.20967 -6.0405,14.2524 -10.07407,23.43945c1.39377,2.80879 2.38337,5.74847 2.7755,8.87908c-17.60709,-0.78369 -32.77271,-8.79903 -49.00244,-9.79694c-1.1721,-2.51386 -2.21368,-5.41397 -3.15112,-8.90944c-1.13051,-4.21523 1.16162,-8.85724 0.10736,-13.0922c-2.032,-8.16239 -8.88038,-14.3145 -13.93365,-21.03898c-12.31962,-16.3936 -24.02874,-32.95422 -36.09226,-49.62548c-6.33254,-8.75122 -11.27722,-13.23084 -13.22968,-24.78722c-2.9875,-17.68262 5.44769,-27.45393 6.60703,-43.77092c0.96778,-13.62142 -0.1045,-27.99073 -0.05479,-41.67474c0.01907,-5.24716 1.49839,-21.54341 -2.61779,-27.53933c-4.79631,-6.98654 -12.86164,-11.21879 -17.98442,-17.96959c-9.89431,-16.62218 -23.7322,-41.37118 -22.13642,-61.33664c1.12234,-14.04229 13.69147,-20.59975 13.46958,-33.07819c-0.32074,-18.04254 -16.74487,-44.37184 -28.65983,-57.48083c-1.80003,-1.9804 -13.56919,-15.29379 -19.38576,-16.92461c-11.43039,-3.2048 -30.99138,0.56512 -42.43133,2.50716c0,0 -11.10579,1.85096 -12.95675,-9.25484c-1.85096,-11.10579 9.25484,-12.95675 9.25484,-12.95675c1.60926,-0.26385 3.33746,-0.54981 5.15759,-0.84327c1.87381,-1.01934 3.49249,-1.34313 3.49249,-1.34313c17.61496,-3.44338 33.02027,-1.92235 50.60518,-0.16384c34.0657,3.40659 65.5986,7.08243 98.75151,16.12421c13.46714,3.67287 16.33781,-0.03167 29.90698,8.02052c5.68074,3.37108 10.48951,7.55614 14.54147,12.31412c12.91948,-20.93101 27.81521,-39.73195 53.21058,-47.39538c11.67498,-3.52312 31.09614,-0.37717 43.42212,-0.37717c32.9842,0 67.92983,2.77633 101.59306,7.66149c3.73942,-5.14851 7.81228,-10.15184 13.24855,-14.41692l10.7274,-5.56679c0,0 10.07034,-5.03512 15.10546,5.03512c2.70498,5.40988 1.05048,9.36672 -1.06015,11.87033c1.1338,-0.16549 2.40853,-0.17128 3.84101,0.03337zM135.46499,524.99133c5.43919,10.07976 10.49947,21.29867 10.39211,32.75187c-0.14855,15.84445 -12.54827,20.42413 -13.55194,34.47564c-1.0173,14.24244 11.23162,34.9331 18.39593,46.74957c5.0507,6.84872 13.63141,10.78308 18.04428,18.05913c12.10405,19.95738 8.21734,60.87433 6.33459,83.90808c-1.07589,13.1624 -9.09651,23.81479 -6.90373,37.29374c2.42544,14.9091 19.50883,28.81109 27.56077,40.88269c3.74294,5.61145 8.45949,11.38477 13.25679,17.32575c1.697,-13.88522 5.56879,-28.27046 9.84779,-41.38551c-0.7624,-1.03636 -1.4566,-2.05255 -2.05556,-3.04526c-9.4218,-25.23432 -17.77808,-59.31552 -2.0646,-84.53129c0.09187,-1.804 0.21402,-3.61312 0.36008,-5.41909c-1.10736,-0.85215 -2.19061,-1.62074 -3.23068,-2.28612c-5.03543,-3.22144 -11.65353,-4.24162 -15.72801,-8.6157c-6.12289,-6.57309 -8.91709,-23.01232 -9.69078,-31.46467c-0.75632,-8.26303 0.20468,-22.11028 2.90686,-29.58847c7.95644,-22.01983 30.87617,-32.72263 37.99566,-55.41016c0.8302,-2.64562 1.15944,-5.72747 1.20518,-9.01587c-0.37667,-0.76211 -0.71813,-1.53902 -1.00429,-2.33913c-4.4952,-12.56712 -5.7643,-25.03876 -4.52,-37.44684c-3.5733,-8.82572 -9.2981,-16.7582 -17.77117,-21.93171c-5.55919,-3.39429 -18.75914,-4.02388 -24.13614,-5.49029c-22.97238,-6.26515 -45.06116,-9.7923 -67.87412,-12.50068c8.92054,12.28186 15.60246,26.7406 22.23098,39.02431zM288.27648,779.12855c4.85056,-14.63007 6.30666,-26.82899 14.64043,-40.71795c6.98331,-11.63841 17.66621,-27.28393 25.90659,-37.56072c2.49161,-3.10745 6.64471,-4.47461 9.48652,-7.26545c7.51289,-7.37834 11.75044,-18.22807 15.522,-27.74534c8.2112,-20.52806 14.84515,-39.7092 12.76027,-62.26296c-0.69006,-7.46499 -5.29574,-14.11697 -6.60703,-21.49824c-2.69894,-15.19233 -1.90271,-37.26368 5.98194,-50.83249c2.70518,-4.65537 5.98862,-8.67718 9.69436,-12.22243c-9.20847,5.3206 -17.84063,12.01011 -24.49443,19.83601c-3.32462,3.91027 1.39174,10.17528 1.81241,15.29061c0.11011,1.33888 -4.29207,25.08378 -5.06588,27.20129c-7.36296,20.14946 -21.79381,40.54692 -32.8314,58.9233c-17.94951,23.98917 -35.87289,47.58 -38.65495,77.9627c-2.3523,25.68972 3.0366,51.17031 5.80793,76.79043c2.28156,-5.35867 4.32292,-10.71585 6.04127,-15.89877zM334.46188,477.90109c-9.48312,3.39335 -18.26574,9.08586 -25.71777,15.86164c-5.84528,5.31477 -14.34777,8.36698 -18.07122,15.33473c-18.83367,35.24356 7.66765,75.56425 1.35203,111.26098c-2.26267,12.78919 -9.4763,20.84462 -17.95695,27.69553c1.08938,3.38795 1.94123,6.81389 2.29202,10.26454c6.00517,-10.39894 12.2401,-20.24315 20.03557,-30.60907c9.99061,-16.67178 23.61698,-35.3929 30.21881,-53.66642c6.60964,-18.2952 -5.35163,-29.98946 5.75369,-47.57994c10.31421,-16.33731 32.91628,-28.85367 50.37543,-35.8287c6.8793,-2.74832 14.82447,-2.68643 21.3363,-6.21836c2.80788,-1.52298 5.28935,-3.24305 7.53266,-5.10939c-23.50708,-3.48051 -46.8638,-6.41605 -70.62306,-7.22391c-2.01233,4.12511 -6.52755,5.81828 -6.52755,5.81828zM269.9134,616.10014c2.48331,-16.60593 -5.28677,-34.44402 -6.90373,-50.80453c-2.01407,-20.37802 -1.92804,-49.17481 8.2558,-67.61761c5.76141,-10.43385 16.94749,-19.91141 28.85056,-27.44367c-3.57064,0.06368 -6.84906,0.41168 -9.50154,1.2511c-20.93331,6.62503 -31.64936,23.7486 -42.20036,41.11052c-1.32837,3.89436 -2.16453,7.53691 -2.60627,11.00741c1.55939,4.88263 2.7378,9.88788 3.59795,14.88448c0.01412,4.4952 0.41866,9.60976 0.77421,14.87871c1.73692,5.17294 3.71424,10.54747 5.5074,16.46987c5.513,18.20843 5.36912,37.30101 10.39306,55.74882c1.9048,-2.66662 3.27566,-5.75761 3.83305,-9.48498zM218.30081,676.12026c4.71691,-11.47385 12.3542,-22.00207 21.51453,-30.36783c2.54298,-2.32238 5.5292,-4.33066 8.61887,-6.28261c-2.02183,-4.7533 -4.09569,-9.39252 -5.31233,-13.64379c-2.16416,-7.56214 -3.18241,-15.44373 -4.16351,-23.2994c-2.46546,4.00905 -5.14442,7.89146 -7.89176,11.65794c-2.40731,3.30026 -6.77905,4.63656 -9.68997,7.50253c-9.96681,9.81291 -13.73575,22.45892 -12.50329,36.14593c0.55229,6.13325 -0.81791,14.02383 3.82004,18.07488c1.48308,1.2954 3.34538,1.96954 5.2646,2.56287c0.11555,-0.79349 0.23008,-1.57722 0.34281,-2.35041zM240.43688,861.42322c9.24472,-6.60571 14.13856,-15.82542 19.66821,-25.4207c0.28105,-1.62987 0.50151,-3.2828 0.65281,-4.96209c1.97268,-21.89021 -2.10378,-44.90184 -5.20958,-67.87214c-1.74437,2.09337 -3.91351,3.98585 -5.02723,6.4352c-2.04245,4.49173 -2.59678,9.52076 -3.89512,14.2811c-0.96323,2.54474 -1.95967,5.21982 -2.96237,7.99783c9.55217,12.81354 19.62999,24.13746 14.37922,43.27278c-2.45043,8.92999 -11.96881,14.15015 -17.47927,21.59217c-1.2598,1.70133 -1.92944,3.82717 -2.26761,6.09591zM240.05494,681.93529c-0.1188,0.8545 -0.24285,1.73181 -0.37007,2.62907c6.90418,-5.64568 12.67916,-11.90408 14.14698,-21.15212c-5.80867,5.00448 -10.83146,10.76647 -13.77689,18.52304zM248.39975,704.10297c1.83141,2.41393 3.47413,4.82457 4.84428,7.15291c0.473,-4.29687 1.18204,-8.5591 2.1778,-12.77832c-2.30683,1.84963 -4.67162,3.69086 -7.02204,5.62544zM235.78791,824.94619c-0.40948,2.27073 -0.7538,4.56384 -1.09922,6.85851c1.61875,-2.15015 2.41504,-5.01426 1.66,-9.83631c-0.19328,0.98653 -0.38065,1.97887 -0.56078,2.97788zM456.60927,460.60345c-0.29289,0.20415 -0.57995,0.41129 -0.86158,0.62116c1.20989,0.21905 2.41684,0.44078 3.62079,0.66503c0.28326,-0.91392 0.75033,-2.10723 1.49617,-3.29531zM439.48982,482.56574c-0.68637,1.07138 -1.39868,2.13953 -2.15155,3.19826c2.25517,-1.14018 4.33968,-2.06164 6.25126,-2.88485c-1.36559,-0.10948 -2.73197,-0.21193 -4.0997,-0.3134z" fill="url(#color-5)" stroke-width="0.5"/><path d="M217.73133,892.09376v-439.93446h46.91241v439.93446z" fill="url(#color-6)" stroke-width="0"/><g stroke-width="0"><path d="M46.97019,518.34874v-32.41245c0,0 28.38051,42.2771 78.21255,42.2771c99.89886,0 104.98819,-16.9109 104.98819,-16.9109v32.41245c0,0 -5.0893,16.9109 -104.98819,16.9109c-49.83207,0 -78.21255,-42.2771 -78.21255,-42.2771z" fill="url(#color-7)"/><path d="M46.97019,564.85346v-32.41245c0,0 28.38051,42.2771 78.21255,42.2771c99.89886,0 104.98819,-16.9109 104.98819,-16.9109v32.41245c0,0 -5.0893,16.9109 -104.98819,16.9109c-49.83207,0 -78.21255,-42.2771 -78.21255,-42.2771z" fill="url(#color-8)"/><path d="M50.34784,609.94906v-32.41245c0,0 27.33398,42.2771 75.32857,42.2771c96.21515,0 101.1168,-16.9109 101.1168,-16.9109v32.41245c0,0 -4.90163,16.9109 -101.1168,16.9109c-47.9945,0 -75.32857,-42.2771 -75.32857,-42.2771z" fill="url(#color-9)"/><path d="M60.48094,653.07618v-32.41245c0,0 25.58979,42.2771 70.52182,42.2771c90.0757,0 94.66451,-16.9109 94.66451,-16.9109v32.41245c0,0 -4.58884,16.9109 -94.66451,16.9109c-44.93197,0 -70.52182,-42.2771 -70.52182,-42.2771z" fill="url(#color-10)"/><path d="M85.25071,700.8476v-26.58772c0,0 21.40375,34.67963 58.98571,34.67963c75.3409,0 79.17912,-13.87187 79.17912,-13.87187v26.58772c0,0 -3.83821,13.87187 -79.17912,13.87187c-37.58189,0 -58.98571,-34.67963 -58.98571,-34.67963z" fill="url(#color-11)"/></g><g data-paper-data="{&quot;index&quot;:null}" stroke-width="0"><path d="M357.6223,560.62575c-99.89886,0 -104.98819,-16.9109 -104.98819,-16.9109v-32.41245c0,0 5.0893,16.9109 104.98819,16.9109c49.83207,0 78.21255,-42.2771 78.21255,-42.2771v32.41245c0,0 -28.38051,42.2771 -78.21255,42.2771z" fill="url(#color-12)"/><path d="M357.6223,607.13064c-99.89886,0 -104.98819,-16.9109 -104.98819,-16.9109v-32.41245c0,0 5.0893,16.9109 104.98819,16.9109c49.83207,0 78.21255,-42.2771 78.21255,-42.2771v32.41245c0,0 -28.38051,42.2771 -78.21255,42.2771z" fill="url(#color-13)"/><path d="M357.12858,652.22617c-96.21515,0 -101.1168,-16.9109 -101.1168,-16.9109v-32.41245c0,0 4.90163,16.9109 101.1168,16.9109c47.99457,0 75.32857,-42.2771 75.32857,-42.2771v32.41245c0,0 -27.33403,42.2771 -75.32857,42.2771z" fill="url(#color-14)"/><path d="M351.80229,695.35329c-90.0757,0 -94.66451,-16.9109 -94.66451,-16.9109v-32.41245c0,0 4.58884,16.9109 94.66451,16.9109c44.93201,0 70.52182,-42.2771 70.52182,-42.2771v32.41245c0,0 -25.58983,42.2771 -70.52182,42.2771z" fill="url(#color-15)"/><path d="M338.56864,735.52721c-75.34093,0 -79.17912,-13.87187 -79.17912,-13.87187v-26.58772c0,0 3.83824,13.87187 79.17912,13.87187c37.58189,0 58.98571,-34.67963 58.98571,-34.67963v26.58772c0,0 -21.40375,34.67963 -58.98571,34.67963z" fill="url(#color-16)"/></g><path d="M16.57095,478.05494v-25.89562h449.23319v25.89562z" fill="url(#color-17)" stroke-width="0"/><path d="M195.23984,929.62558v-172.22383h91.89553v172.22383z" fill="url(#color-18)" stroke-width="0"/></g><path d="M485.72164,465.10202c0.00283,13.39271 -11.181,24.25177 -24.97941,24.25462c-13.79854,0.00287 -24.98649,-10.85181 -24.98911,-24.24449c-0.00271,-13.39267 11.181,-24.25158 24.97951,-24.25443c13.79854,-0.00287 24.98649,10.85174 24.98918,24.24441z" fill="url(#color-19)" stroke-width="0"/><path d="M46.62165,465.10202c0.00283,13.39271 -11.181,24.25177 -24.97941,24.25462c-13.79854,0.00287 -24.98649,-10.85181 -24.98911,-24.24449c-0.00271,-13.39267 11.181,-24.25158 24.97951,-24.25443c13.79854,-0.00287 24.98649,10.85174 24.98918,24.24441z" fill="url(#color-20)" stroke-width="0"/></g><g><g><path d="M366.91316,383.48241c-2.33089,5.6003 -7.93122,3.26951 -7.93122,3.26951l-2.84429,-1.76253c-4.37371,-0.20668 -9.25943,1.44372 -13.12121,-0.61999c-8.5862,-4.58852 -3.4852,-16.12615 -10.02332,-21.8821c-4.29361,-3.77997 -10.72212,-4.96654 -14.10568,-9.94306c-6.08101,-8.94403 1.41958,-24.57687 -6.13582,-32.62539c-2.59742,-2.76694 -11.03426,-6.49163 -14.60183,-8.20565c0,0 -5.46243,-2.63792 -2.82448,-8.10036c2.63792,-5.46243 8.10036,-2.82448 8.10036,-2.82448c13.60818,6.60193 22.65734,12.43352 24.40248,28.4301c0.60204,5.51859 -2.1513,12.16148 1.16518,16.61331c2.89929,3.89182 8.83788,4.39281 12.29306,7.80079c8.63846,8.52035 2.42848,21.44403 14.50599,19.22973l7.85121,2.68894c0,0 5.6003,2.33089 3.26951,7.93122z" fill="url(#color-21)" stroke="none" stroke-width="0.5"/><path d="M4.81985,97.42819c-1.16712,-5.95267 4.78556,-7.11979 4.78556,-7.11979l4.72959,-0.92731c4.9373,-0.96803 10.17556,-0.90887 14.82679,-2.82721c10.68135,-4.40539 18.57606,-15.02494 30.30517,-17.48151c29.98994,-6.28122 61.7306,8.02589 72.30463,36.97043c0,0 1.99725,5.72782 -3.73057,7.72502c-5.72782,1.99725 -7.72502,-3.73057 -7.72502,-3.73057c-7.91259,-24.18015 -34.76575,-33.25242 -58.51478,-29.05949c-6.72164,1.18668 -12.80092,7.79053 -18.33664,11.31027c-9.35286,5.9468 -16.21428,6.92389 -26.79535,8.99848l-4.72959,0.92731c0,0 -5.95267,1.16712 -7.11979,-4.78556z" fill="url(#color-22)" stroke="none" stroke-width="0.5"/><path d="M341.89504,52.7598c2.57601,5.49192 -2.91586,8.0679 -2.91586,8.0679l-6.68729,3.08653c-9.69114,1.50356 -11.63815,12.10929 -22.13325,12.50423c-3.35519,0.12628 -6.22933,-2.71554 -9.5524,-3.19548c-3.73578,-0.53953 -21.76431,2.46809 -24.56907,4.57657c-4.80201,3.60991 -6.34394,10.24458 -10.14898,14.89351c-5.11027,6.24368 -11.27371,11.62015 -17.65047,16.5633c0,0 -4.8023,3.70603 -8.50832,-1.09627c-3.70603,-4.8023 1.09627,-8.50832 1.09627,-8.50832c11.25012,-8.639 17.62559,-24.38079 28.52323,-31.97419c10.65917,-7.42729 29.35669,-4.83007 40.25319,-3.37843c4.25065,0.56631 12.33982,-10.42775 18.91839,-11.91589l5.30667,-2.53936c0,0 5.49192,-2.57601 8.0679,2.91586z" fill="url(#color-23)" stroke="none" stroke-width="0.5"/><path d="M291.30888,92.6229c-2.80727,5.37734 -8.18465,2.57015 -8.18465,2.57015l-2.07936,-1.70781c-2.72212,-0.16074 -9.46266,-2.52203 -15.15085,-3.74091c1.21445,3.36169 -1.62076,6.17557 -1.62076,6.17557c-8.24681,8.14087 -12.95082,15.02837 -22.69789,21.75097c-1.70585,1.17658 -3.8457,2.38097 -6.17542,3.64627c-4.97662,6.30955 -10.28144,12.35376 -16.03576,17.91316c-1.77401,1.71396 -4.01005,3.79 -6.43429,5.83003c-0.62247,9.97417 3.88089,21.50987 5.59497,30.2523c0.3133,1.59799 0.60103,3.16455 0.86214,4.70441c3.49141,1.61937 5.5513,4.58038 9.5878,5.93776c7.38425,2.48322 21.54003,1.55613 29.06638,0.93778c3.30905,-0.27186 6.91775,-1.25387 10.60048,-2.30556c-3.09516,-7.08982 -7.29948,-14.07729 -9.34738,-19.45998c-3.78632,-9.95215 -0.96322,-16.77788 0.93843,-26.80816c6.64581,-24.04321 14.90862,-35.32039 40.44374,-40.32696l0.79097,-0.15508c0,0 5.95267,-1.16712 7.11979,4.78556c1.16712,5.95267 -4.78556,7.11979 -4.78556,7.11979l-0.79097,0.15508c-20.90903,4.09955 -25.51626,11.52626 -30.96119,31.16923c-0.927,4.91503 -3.28739,9.65232 -3.22839,14.65364c0.10837,9.18556 6.05101,17.54561 10.74391,26.16163c2.14793,-0.33535 4.24305,-0.47108 6.23767,-0.272c12.98663,1.29597 21.72114,14.64647 35.9426,16.95924c0,0 5.98348,0.9973 4.98617,6.98077c-0.9973,5.98348 -6.98081,4.98614 -6.98081,4.98614c-9.76687,-1.6617 -18.7307,-4.36346 -26.78966,-10.51002c-2.91459,-2.22294 -3.74233,-6.31829 -7.95799,-6.31053c-0.17307,0.00036 -0.34604,0.00135 -0.51894,0.003c0.64101,2.70266 0.8886,5.47114 0.5548,8.33419c-2.49442,21.39496 -24.57406,30.05319 -40.92676,38.22949c-1.83938,0.91969 -3.73569,1.8867 -5.68457,2.80575c1.39449,1.31694 2.74476,2.77697 4.07187,4.47057c9.50454,2.39468 19.18578,4.87838 28.23236,10.91263c22.91942,15.28777 33.41539,38.79626 45.23146,62.97444c0,0 2.66151,5.45096 -2.7895,8.11246c-5.45101,2.66152 -8.11251,-2.78949 -8.11251,-2.78949c-10.81378,-22.16866 -20.11701,-44.00613 -40.93582,-58.12183c-3.86463,-2.6203 -9.07258,-5.19735 -14.27655,-7.33438c7.16025,15.27312 15.2945,31.63716 17.10519,47.98645c0.49958,4.5111 1.51925,16.18216 -1.92246,20.80369c-3.93872,5.28888 -8.61917,5.92536 -13.5243,6.48617c0.36715,14.59198 -1.66318,30.87559 -3.33051,42.06656c0,0 -0.90296,5.99846 -6.90145,5.09549c-5.99846,-0.90296 -5.09546,-6.90147 -5.09546,-6.90147c1.80587,-11.86435 1.1469,-23.21699 1.07446,-34.91205c-7.81329,7.20586 -9.68801,20.69063 -8.92269,30.26153c0,0 0.41974,6.0515 -5.63172,6.47127c-6.05146,0.41973 -6.47127,-5.63172 -6.47127,-5.63172c-1.03435,-16.89522 4.03395,-37.93632 21.2443,-45.55516c0.07089,-0.03133 0.14889,-0.06187 0.23361,-0.09155c0.22938,-4.77462 0.07028,-10.42861 -2.68482,-13.31364c-4.82997,-5.05774 -11.97846,-7.73283 -16.25178,-13.26885c-9.92979,-12.86374 -13.20941,-33.08291 -12.94183,-51.17063c-5.09529,7.92079 -10.29469,15.76355 -12.94262,24.75128c-2.35533,7.99456 -5.05666,18.02836 -5.88317,26.31139c-0.77866,7.80426 1.83371,19.116 -2.99041,26.20404c-4.82387,7.08769 -16.11859,9.04514 -23.6571,10.55577l-5.4971,-1.55412c0,0 -5.03447,-3.38391 -1.65056,-8.41841c2.28731,-3.40298 5.32875,-2.95968 7.05977,-2.31503c4.3946,-0.7234 11.70554,-2.00058 13.67598,-5.03608c2.85623,-4.3999 0.49368,-15.90464 0.98051,-20.57144c0.92928,-8.90857 3.72424,-20.03592 6.33871,-28.65279c3.67811,-12.12246 11.57413,-21.99831 17.84729,-32.76649c-0.2023,-0.36293 -0.35761,-0.73289 -0.47659,-1.0907c-2.65872,0.12576 -5.38373,0.45978 -7.93735,0.00836c-2.89077,-3.82216 -5.28548,-7.826 -7.30135,-11.96871c-2.05046,3.14357 -4.4312,6.1297 -6.77903,9.62334c-13.06759,19.44476 -37.17824,46.73229 -61.87003,47.51775c0,0 -6.06549,0.08341 -6.14889,-5.98202c-0.08347,-6.06542 5.98202,-6.14889 5.98202,-6.14889c19.72932,0.22732 41.79381,-27.02026 51.96798,-42.15468c3.69593,-5.49779 8.96677,-10.2372 10.03583,-17.0398c0.17656,-1.12347 0.3075,-2.24295 0.39972,-3.35904c-1.08021,-3.98637 -1.9836,-8.03777 -2.7951,-12.12331c-23.94618,-0.78745 -56.94609,-5.02508 -68.84199,20.56807l-0.09753,3.19323c0,0 -0.77519,6.01632 -6.7915,5.24111c-6.01632,-0.77519 -5.24111,-6.7915 -5.24111,-6.7915l1.20536,-6.9187c15.0772,-30.34773 48.63816,-28.15575 77.55441,-27.43881c-2.31456,-13.38614 -4.54179,-26.81026 -9.58682,-39.21275c-6.04691,-14.86542 -32.12233,-27.52451 -46.39936,-32.94094c0,0 -5.66646,-2.16518 -3.50124,-7.8316c2.1652,-5.66647 7.83166,-3.50125 7.83166,-3.50125c17.89543,6.88142 45.23283,21.1631 53.23045,39.51898c2.14242,4.91733 3.43704,10.22142 4.35462,15.69344c0.45697,-2.03184 0.9392,-3.68899 1.38669,-4.253c4.17333,-5.26083 11.62761,-6.8104 17.84314,-9.3521c1.48622,-0.60772 2.97965,-1.40987 4.46749,-2.36175c0.51621,-2.86861 1.44802,-5.692 2.94523,-8.4399c4.56278,-8.3743 14.08762,-13.50383 22.69716,-18.41158c7.29158,-10.76933 14.04073,-26.69488 24.21526,-32.96152c9.41209,-5.79706 20.52408,1.73772 30.20906,2.14072l7.07093,3.06912c0,0 5.37738,2.80725 2.57013,8.1846zM189.43254,157.41332c-2.20011,2.81199 -0.94466,7.07922 -1.53165,10.60103c-1.14334,5.06623 -1.06872,10.16646 -0.60179,15.29908c6.57451,-0.76672 13.09639,-3.04122 19.53288,-4.03639c-0.51853,-3.0664 -1.11449,-6.23158 -1.7631,-9.53973c-1.08383,-5.52791 -2.60484,-11.29575 -3.42117,-17.07202c-5.51949,2.39663 -8.06375,-0.55803 -12.21524,4.74807zM234.1775,198.73537c-5.07806,-0.43824 -9.15836,-3.1672 -13.1706,-5.27292c0.57548,8.98682 -0.02217,17.48749 -2.02564,26.70638l0.43662,0.16754c0.01583,2.65291 0.03168,5.30573 0.04758,7.95865c1.02472,1.29229 2.07373,2.5649 3.36327,3.4712c1.58532,1.11414 3.09241,2.12456 4.53359,3.08406c16.28922,-2.98141 36.92332,-16.49952 43.50225,-29.17742c1.67746,-3.23262 1.84447,-6.95766 1.12185,-10.88935c-12.42208,1.78604 -24.76257,5.07803 -37.80891,3.952zM191.97201,207.69031c2.15775,6.54705 2.1813,12.75943 5.06751,19.03268c1.77228,0.03261 3.60339,-0.24298 5.42143,-0.46436l0.26311,-0.51823c0.12324,-0.02672 0.24657,-0.05557 0.36992,-0.0863c-0.63794,-1.05483 -0.96863,-2.4758 -0.56151,-4.37403c0.72805,-3.3946 2.98231,-4.42961 4.77725,-4.69409c1.75294,-8.92622 1.91277,-17.07285 1.11472,-25.57141c-6.37537,0.60499 -13.04805,2.92607 -19.74529,4.03646c0.27261,2.40462 0.49486,4.81594 0.58424,7.23396c1.08647,1.72241 2.07619,3.48656 2.70852,5.40522zM222.10104,256.55689c-1.42417,-0.43262 -2.81527,-1.01724 -4.17341,-1.71729c0.30956,14.14831 3.12803,29.07248 10.56205,38.70886c7.65681,9.92513 15.80545,9.72943 20.04124,22.38914c0.9414,2.81369 1.62768,5.97623 2.10578,9.37183c2.0564,-0.50734 3.74027,-1.19827 4.48502,-2.20499c2.62663,-3.5504 -0.46283,-16.01059 -1.68737,-19.98664c-4.82153,-15.65502 -12.02847,-30.50834 -18.54983,-45.41096c-0.15129,-0.25691 -0.31692,-0.52419 -0.49594,-0.8005c-4.11372,-0.02967 -8.37929,0.83779 -12.28756,-0.3495z" fill="url(#color-24)" stroke="none" stroke-width="0.5"/><path d="M198.67806,382.03842c-23.10681,-4.16844 -18.1184,-19.63749 -30.96594,-32.42339c-4.61961,-4.59747 -14.45051,-5.76302 -19.66528,-7.53571c-16.29848,-5.5404 -16.77253,-5.26447 -28.5387,-19.89426c-12.7628,-15.869 -5.45105,-33.9457 -17.98676,-47.26266c-13.04859,-11.78393 -29.75293,-40.85312 -25.58416,-60.17415c0.30674,-1.42172 13.49167,-15.57072 13.49328,-21.00152c0.00232,-8.03905 -7.53161,-14.57697 -8.54788,-22.55158c-2.40668,-18.8853 8.28523,-37.94957 13.78069,-54.63298c2.61515,-7.93911 -1.10406,-17.14596 1.70617,-25.01813c2.74606,-7.69234 11.54737,-14.10788 13.50105,-22.57657c1.26852,-5.49874 -1.45865,-12.01118 1.41019,-16.87066c9.66399,-16.36917 39.312,-23.23121 56.24315,-24.86764c9.14389,-3.1978 19.03724,-3.68913 28.65708,-4.82682c22.79786,-2.69616 37.35974,-18.59354 61.46073,-8.33819c12.63406,5.37601 23.37381,16.57888 24.52074,31.14499c0.31417,3.9905 -5.56936,6.23065 -6.43515,10.13874c-1.03618,4.67707 8.20099,4.95353 12.3053,7.424c9.19128,5.53246 17.28742,13.9884 21.70159,23.76607c6.96315,15.42383 15.59638,40.18333 16.32249,57.09841c0.17611,4.10322 -2.58096,8.06886 -2.07673,12.14481c0.55873,4.51634 15.60439,13.30879 15.66153,13.38353c4.78134,6.25572 7.16675,14.02204 10.75012,21.03305c-3.48392,4.25015 -7.77819,7.94904 -10.45168,12.75041c-6.97394,12.52441 7.45709,32.5005 7.60564,44.97663c0.13808,11.59288 -5.27134,25.39752 -11.54412,34.72369c-3.96214,5.89073 -11.05062,10.41712 -12.26473,17.41175c-3.00263,17.29846 6.97498,29.80988 -4.36478,46.8425c-4.18355,6.28378 -19.62417,17.2461 -30.7043,22.90851c-1.93042,3.96741 -5.88985,5.95725 -5.88985,5.95725c-11.27115,5.51679 -25.30329,22.42875 -38.66888,21.33613c-8.12265,-0.66403 -13.41525,-8.29951 -19.31431,-14.64252c-2.46851,1.033 -4.87545,2.00222 -7.18251,2.82181l-4.57289,1.62441c0,0 -9.6413,3.42494 -14.36117,-4.86971zM228.29512,354.92746c6.70884,-2.65593 13.49485,-5.03466 19.88263,-6.04466c8.85814,-1.40066 18.08411,2.287 26.89729,0.62674c6.665,-1.2556 11.11949,-8.35125 15.89648,-11.92818c2.70588,-2.02611 6.62906,-2.43193 8.81882,-5.00719c5.79816,-6.81914 -1.65559,-28.96296 0.12994,-37.15292c4.04367,-18.54762 16.02706,-21.8075 21.63859,-38.13488c7.51022,-21.8517 -23.93066,-55.05026 4.74073,-69.97244c-11.74513,-3.4837 -22.636,-13.80185 -25.93356,-25.95399c-1.45255,-5.35287 1.64136,-11.03237 1.45387,-16.57565c-0.3981,-11.77145 -7.32088,-26.59917 -10.55063,-37.86574c-0.174,-0.60699 -5.91026,-17.39891 -7.41838,-18.99236c-5.62757,-5.94604 -15.83697,-6.19363 -21.22556,-12.35708c-4.94693,-5.65824 -10.03133,-12.16395 -11.15384,-19.59552c-0.66061,-4.37379 5.41912,-7.29829 6.44149,-11.60189c0.99175,-4.17441 -6.07673,-6.38337 -10.01507,-8.08589c-11.91694,-5.15148 -21.12977,3.18973 -32.5199,6.44401c-14.8304,4.23718 -28.19958,2.98863 -42.5862,8.18478c-13.74033,1.32797 -21.34742,4.35314 -33.667,10.12064c-2.14367,1.0036 -5.64874,0.53101 -6.56129,2.715c-1.38877,3.32378 1.76066,7.26205 0.9282,10.76683c-2.21797,9.33738 -10.74852,16.088 -14.21784,25.03624c-2.91628,7.52163 0.87906,16.42819 -1.42387,24.15971c-3.73969,12.5555 -15.41455,30.00422 -12.93674,44.1232c1.70997,9.74342 9.39176,15.3139 8.77949,26.22564c-0.39596,7.05599 -3.74153,13.75409 -7.07321,19.98652c-1.53204,2.86594 -6.10459,3.54863 -7.1525,6.62475c-0.74987,2.20121 1.88259,4.25541 2.70518,6.43051c5.08095,13.43562 5.30464,21.68303 16.59411,30.74942c3.82173,4.79997 9.00805,8.77783 11.46508,14.39996c5.98993,13.70646 -1.46553,22.94578 8.25145,34.80881c12.63494,15.42539 31.54765,11.37488 45.93867,24.95926c4.06699,3.83905 6.67384,9.00162 9.51791,13.8172c2.4058,4.07342 2.71458,12.71846 7.40567,12.107c8.88555,-1.1582 18.60569,-5.6697 26.95022,-3.01769z" fill="url(#color-25)" stroke="none" stroke-width="0.5"/><g stroke="none" stroke-width="0.5"><path d="M85.79731,227.66133c-1.22465,-6.24609 4.08323,-8.1014 5.43574,-8.4689c4.0346,-2.14412 14.93513,-7.96818 17.03322,-8.29667c14.45345,-2.26289 28.52886,5.91968 42.0534,8.72015c10.46671,1.4279 20.6624,0.06288 30.72002,-2.59867c-0.12614,-0.26929 -0.25227,-0.53857 -0.37825,-0.80792c-3.4859,-1.34517 -6.91421,-2.71264 -10.26748,-4.06203c-4.36249,-2.82046 -9.45406,-4.74856 -13.08747,-8.46139c-11.53855,-11.79096 -10.9084,-31.64709 -20.8848,-45.33794c-6.03613,-8.28351 -16.56004,-13.2082 -25.94086,-16.53106l-4.69672,-1.27777c0,0 -7.01543,-1.94184 -5.07356,-8.95733c1.94184,-7.01543 8.95733,-5.07356 8.95733,-5.07356l5.76132,1.617c17.34302,6.37185 29.70684,15.4882 39.08384,31.71489c8.24417,14.26634 6.34185,26.60517 18.24856,36.3483c-5.47677,-18.27232 -7.57728,-38.20206 -11.12695,-56.75025c-2.29778,-12.00637 4.31126,-26.69095 -0.60715,-37.73845c-8.33232,-18.71559 -24.42942,-25.81942 -8.44994,-46.88973c0,0 4.51204,-5.71213 10.2242,-1.20002c5.71213,4.51204 1.20002,10.2242 1.20002,10.2242c-12.31527,14.64919 12.20052,28.91562 13.11259,45.83305c0.37647,6.9821 -2.60358,13.84003 -2.46857,20.83093c0.49294,25.52715 9.33157,50.7515 18.38096,74.87469c0.10784,0.03949 0.21565,0.07891 0.32358,0.11837c1.22238,-6.95836 4.17282,-13.56648 7.57607,-19.65941c0.09894,-0.12591 0.23942,-0.30563 0.41516,-0.53067c2.45517,-19.58202 3.51512,-38.92517 -5.56081,-58.01519c-5.58608,-11.74955 -15.18346,-24.48123 -13.22493,-39.03029c1.33396,-9.90942 11.78295,-17.26425 18.48064,-23.12543c6.89232,-6.0315 13.32873,-12.29069 20.18153,-18.1707c-0.56917,-1.03408 -0.90823,-2.36748 -0.8198,-4.08652c0.37373,-7.26961 7.6434,-6.8959 7.6434,-6.8959l4.69281,1.94638c0.58312,-0.38502 6.1326,-3.82805 10.08967,1.81155c2.96398,4.22422 0.83207,7.55505 -0.6602,9.13625c1.00982,2.57122 1.55415,5.3615 1.26906,8.98925c-1.10623,14.07677 -13.94624,23.29377 -12.83626,38.40028c1.44082,19.60897 12.6592,36.81739 20.1688,54.83069c5.05978,-8.77292 8.57291,-18.59018 16.40283,-25.50259c7.4047,-6.53702 15.66477,-8.25135 24.94325,-10.08452l0.7937,-0.15562c0,0 7.14322,-1.40054 8.54377,5.74268c1.40054,7.14322 -5.74268,8.54377 -5.74268,8.54377l-0.7937,0.15562c-22.97743,4.4665 -25.02485,22.61161 -38.69855,38.07469c0.05668,0.2663 0.11174,0.53304 0.16523,0.80008c1.7671,9.19229 0.71666,18.33806 -0.77382,27.45666c0.1914,0.00288 0.3828,0.00657 0.57435,0.01116c29.26967,0.70083 43.54553,37.55319 68.51388,47.7494c0,0 6.72043,2.79701 3.92339,9.51745c-2.79701,6.72043 -9.51745,3.92339 -9.51745,3.92339c-10.44226,-4.41337 -22.12786,-11.05437 -29.93504,-19.50332c-8.16433,-8.83548 -18.85251,-27.29673 -33.80053,-27.15131c-0.7196,0.00698 -1.44208,0.03623 -2.16696,0.08592c-0.27225,1.935 -0.50674,3.86925 -0.68061,5.80295c16.4653,7.95379 21.73483,22.90713 35.34729,33.43686c17.11749,13.24103 28.9778,17.02415 33.56553,40.26189c0,0 1.40054,7.14322 -5.74268,8.54377c-7.14322,1.40054 -8.54377,-5.74268 -8.54377,-5.74268c-3.76899,-19.37158 -13.87685,-20.28553 -28.34143,-31.66897c-10.2798,-8.09007 -15.77167,-19.0748 -25.50365,-27.00446c0.28176,1.31023 0.62377,2.62048 1.03323,3.93079c3.90542,12.49804 7.55591,28.11719 13.98317,39.40481c8.17049,14.34894 20.47456,22.32531 20.62517,40.63103c0.11753,14.28375 -3.88917,26.29237 -9.05893,39.30334c0,0 -2.70471,6.75813 -9.46277,4.05337c-6.75813,-2.70471 -4.05337,-9.46277 -4.05337,-9.46277c4.46631,-11.0712 8.00139,-21.12086 8.0296,-33.28021c0.03522,-15.17085 -11.96233,-22.04006 -18.74718,-34.06968c-6.83307,-12.1151 -11.25341,-28.77893 -15.21117,-42.23666c-1.38741,-4.71781 -2.00237,-9.37331 -2.12474,-13.98577c-2.20705,0.39233 -4.51803,0.99562 -7.45903,0.76843c-4.27929,-0.33048 -8.5901,-0.94801 -12.90425,-1.78734c4.95885,14.6883 12.91329,27.98741 17.44921,44.28884c7.02054,25.23104 0.34777,51.87648 7.48413,77.35868c1.13887,0.89769 5.22863,4.64998 1.70298,9.89536c-4.06069,6.04136 -10.10205,1.98066 -10.10205,1.98066l-4.78281,-5.13671c-8.25204,-26.41205 -0.81505,-54.37132 -8.33353,-80.21571c-3.40186,-11.69373 -8.1498,-21.88076 -12.39561,-32.08395c-0.05214,3.8837 -0.38845,7.7594 -1.24356,11.60703c0.95843,7.97113 0.84548,16.04178 -1.15441,24.26301c-2.07695,8.53789 -5.28966,15.28911 -5.29347,24.67674c-0.00834,20.40817 19.50157,40.41832 23.58448,60.94812l0.31124,1.58739c0,0 1.40054,7.14322 -5.74268,8.54377c-7.14322,1.40054 -8.54377,-5.74268 -8.54377,-5.74268l-0.31124,-1.58739c-4.27158,-22.15598 -23.62474,-40.68265 -23.84867,-63.27274c-0.07841,-7.91085 1.76907,-14.67628 3.75323,-21.61645c-4.93149,4.67403 -10.4906,8.53323 -15.99546,10.32801c-2.02215,0.65928 -13.48649,1.04783 -16.09689,1.54879c-11.46086,2.19951 -21.79232,8.55656 -30.51313,15.81071c0,0 -5.62541,4.61974 -10.24517,-1.0057c-4.61974,-5.62541 1.0057,-10.24517 1.0057,-10.24517c9.61758,-7.81298 17.19019,-11.94268 28.7986,-16.32768c7.65573,-2.89197 15.32278,-1.50899 22.76038,-3.69281c8.06545,-2.36818 16.89107,-13.57749 20.82505,-20.52334c0.83664,-1.47709 1.53215,-2.94729 2.10579,-4.41287c-1.23172,-7.99876 -3.72621,-15.88748 -6.06308,-23.63423c-0.04106,-0.1141 -0.08233,-0.22804 -0.12381,-0.34185c-13.15305,3.06429 -26.64198,4.84716 -39.07778,3.3136c-11.10496,-2.44752 -25.43341,-10.39167 -37.19088,-8.71082c-5.07481,0.7255 -9.00668,4.8997 -13.54155,7.29027l-2.78722,0.85932c0,0 -7.14322,1.40054 -8.54377,-5.74268zM232.66064,182.38237c-4.05872,0.86552 -8.98134,-0.66476 -12.31883,1.80166c-2.2561,1.6673 -3.68134,4.16154 -5.17835,6.59417c-0.48028,4.14257 -1.03298,8.40517 -1.61317,12.85198c0.01023,0.67224 0.03005,1.3389 0.05892,2.00035c9.37959,-3.5098 18.76529,-6.72004 28.26957,-8.36355c0.87524,-5.98061 1.48341,-11.9632 1.17398,-17.99231c-2.53051,1.28721 -5.45849,2.05566 -10.39211,3.10774zM239.15673,214.82187c0.04912,-0.38078 0.09972,-0.7614 0.1516,-1.14186c-1.28403,0.41038 -2.56634,0.84815 -3.84429,1.30362c1.22496,-0.02985 2.45938,-0.09795 3.69261,-0.16179zM236.45036,166.29993c1.34662,-0.75344 2.59034,-1.57621 3.74607,-2.45825c-6.75041,-22.28421 -22.73906,-42.42696 -24.11152,-66.41421c-0.73633,-12.86931 8.27131,-24.62698 10.60614,-35.94927c-5.3648,4.80173 -10.54955,9.78889 -16.06115,14.60257c-3.2361,2.82632 -13.33375,9.10549 -13.70315,14.5044c-1.02199,14.93486 11.66159,29.0034 15.37522,42.52889c3.67542,13.38637 4.75509,25.10598 4.47003,36.90967c6.52135,-1.91126 13.53783,-0.28835 19.6784,-3.72384z" fill="url(#color-26)"/><path d="M138.12774,51.9064c0.95462,-8.85367 9.86424,-9.15807 9.86424,-9.15807l4.2258,-0.14441c2.13197,-0.07283 4.39525,-0.04918 6.72977,0.0092c2.56812,-7.55288 4.20772,-16.02676 10.50118,-19.38181c10.35563,-5.5206 27.39818,4.44846 38.33089,5.41329c0,0 3.85821,0.38417 6.76348,3.18799c10.82911,1.15715 26.96949,5.45118 32.47479,9.50723c14.9225,10.99429 11.18813,25.32548 19.50904,39.40052c3.36457,5.69127 10.60126,7.22062 15.7946,11.00922c8.22191,5.99811 17.28104,16.2009 21.1313,26.36822c4.14359,10.94205 -0.61517,33.31133 9.26238,41.86185c3.78668,3.278 8.49766,5.03965 12.74653,7.55952c-0.48095,7.34479 0.25788,14.93957 -1.44282,22.03433c-0.02033,0.08473 -9.09372,12.90109 -7.99906,17.03466c0.98793,3.73047 4.55606,6.25027 5.81671,9.89244c5.1967,15.01444 6.7264,39.5785 6.40691,55.4222c-0.20255,10.04378 -3.81227,20.19191 -9.30007,28.16203c-2.45052,3.55901 -9.77104,6.95658 -7.34122,10.68543c2.03031,3.11585 7.51865,3.06105 8.62989,6.65206c4.05633,13.10762 -0.73699,26.55695 -9.04188,35.56686c-15.8426,17.18748 -32.96373,8.28509 -52.18546,13.72111c-8.11089,2.29377 -16.22048,5.24522 -24.65318,5.57794c-14.1503,4.35659 -40.29437,8.49642 -53.645,-2.49132c-3.96333,-3.26192 -3.99933,-9.87892 -6.89644,-14.24569c-4.4619,-6.72534 -13.71903,-9.31864 -18.55175,-15.09552c-4.94565,-5.91198 -5.10594,-15.22001 -9.91786,-21.25707c-10.11187,-12.6864 -25.20852,-25.67564 -29.72937,-42.9842c-1.90898,-7.30881 1.90486,-15.59034 -0.8438,-22.60743c-1.8569,-4.74039 -17.27531,-12.58697 -18.00734,-13.72325c-9.94814,-15.44223 -6.47139,-46.52626 -0.02322,-61.27174c5.51264,-15.90846 -6.53327,-29.1906 -1.71029,-47.40455c4.44638,-16.79164 4.92114,-16.71278 16.1114,-27.11824c3.58035,-3.32927 11.07371,-7.7058 13.21114,-13.2977c5.94442,-15.55142 -3.34548,-27.35097 13.7788,-38.88507zM171.1657,65.45364c-5.79225,5.16631 -15.13652,4.54909 -22.66493,6.57408c-3.97462,1.06914 -1.26864,8.72141 -1.80804,13.09942c-0.63763,5.17558 -0.96625,10.57303 -2.91923,15.31407c-6.91057,16.77592 -23.47642,19.70209 -28.3483,37.48508c-3.74675,13.67614 5.39493,19.19444 5.26983,33.20636c-0.05131,5.74746 -2.85542,10.99207 -4.2832,16.48808c-5.96456,11.77209 -3.32615,19.04826 -2.81407,32.51317c0.08291,2.17986 -1.32843,4.87251 0.02569,6.5379c1.89225,2.32731 5.79603,1.36092 8.00509,3.33929c4.80398,4.30231 9.77822,9.0065 12.50699,15.0308c4.21988,9.31641 -0.04317,16.804 1.91327,25.89396c2.83519,13.17203 18.16888,24.4151 25.46083,34.09786c4.49038,5.96252 4.48694,15.03447 9.39798,20.60414c5.84239,6.62613 14.99678,9.60442 19.96761,16.9978c1.86576,2.77509 0.68323,7.2892 2.93373,9.71624c1.47872,1.59474 4.13095,-0.01544 6.19466,0.12827c11.85998,0.82544 19.00005,0.86711 30.4836,-2.66844c13.32401,-0.37956 23.62931,-6.03755 36.98188,-7.40592c10.25515,-1.05097 20.50069,3.08284 28.30664,-5.48607c2.57973,-2.8319 7.49902,-7.17547 5.27656,-10.48071c-2.29117,-3.40757 -8.17082,-3.88316 -9.13499,-7.92709c-1.63813,-6.87107 0.22043,-14.28763 2.25813,-20.9173c2.21966,-7.22168 10.33048,-10.92618 12.81624,-18.03979c0.66614,-1.90633 -0.46665,-18.52511 -0.53439,-19.1144c-1.25692,-10.9389 -0.7662,-26.24846 -4.46877,-36.66057c-1.74357,-4.90315 -6.16771,-8.80404 -6.83071,-13.97323c-1.50514,-11.73513 3.7118,-24.46382 11.94969,-31.51803c-28.11412,-3.23007 -14.21887,-42.95413 -27.71393,-59.46387c-10.08338,-12.33588 -20.81669,-11.08717 -30.40006,-25.89696c-4.23164,-6.53945 -5.81447,-28.41716 -12.79878,-32.38893c-2.63771,-1.49994 -5.92563,-0.51373 -8.79,-1.35791c-5.0568,-1.49027 -11.05702,-6.16255 -16.83623,-4.98133c-7.6419,1.56192 -13.78788,7.93352 -21.3772,9.73751c-5.47276,1.3009 -11.7329,1.54296 -18.02575,1.51674z" data-paper-data="{&quot;index&quot;:null}" fill="url(#color-27)"/></g><path d="M138.12774,51.9064c0.95462,-8.85367 9.86424,-9.15807 9.86424,-9.15807l4.2258,-0.14441c2.13197,-0.07283 4.39525,-0.04918 6.72977,0.0092c2.56812,-7.55288 4.20772,-16.02676 10.50118,-19.38181c10.35563,-5.5206 27.39818,4.44846 38.33089,5.41329c0,0 3.85821,0.38417 6.76348,3.18799c10.82911,1.15715 26.96949,5.45118 32.47479,9.50723c14.9225,10.99429 11.18813,25.32548 19.50904,39.40052c3.36457,5.69127 10.60126,7.22062 15.7946,11.00922c8.22191,5.99811 17.28104,16.2009 21.1313,26.36822c4.14359,10.94205 -0.61517,33.31133 9.26238,41.86185c3.78668,3.278 8.49766,5.03965 12.74653,7.55952c-0.48095,7.34479 0.25788,14.93957 -1.44282,22.03433c-0.02033,0.08473 -9.09372,12.90109 -7.99906,17.03466c0.98793,3.73047 4.55606,6.25027 5.81671,9.89244c5.1967,15.01444 6.7264,39.5785 6.40691,55.4222c-0.20255,10.04378 -3.81227,20.19191 -9.30007,28.16203c-2.45052,3.55901 -9.77104,6.95658 -7.34122,10.68543c2.03031,3.11585 7.51865,3.06105 8.62989,6.65206c4.05633,13.10762 -0.73699,26.55695 -9.04188,35.56686c-15.8426,17.18748 -32.96373,8.28509 -52.18546,13.72111c-8.11089,2.29377 -16.22048,5.24522 -24.65318,5.57794c-14.1503,4.35659 -40.29437,8.49642 -53.645,-2.49132c-3.96333,-3.26192 -3.99933,-9.87892 -6.89644,-14.24569c-4.4619,-6.72534 -13.71903,-9.31864 -18.55175,-15.09552c-4.94565,-5.91198 -5.10594,-15.22001 -9.91786,-21.25707c-10.11187,-12.6864 -25.20852,-25.67564 -29.72937,-42.9842c-1.90898,-7.30881 1.90486,-15.59034 -0.8438,-22.60743c-1.8569,-4.74039 -17.27531,-12.58697 -18.00734,-13.72325c-9.94814,-15.44223 -6.47139,-46.52626 -0.02322,-61.27174c5.51264,-15.90846 -6.53327,-29.1906 -1.71029,-47.40455c4.44638,-16.79164 4.92114,-16.71278 16.1114,-27.11824c3.58035,-3.32927 11.07371,-7.7058 13.21114,-13.2977c5.94442,-15.55142 -3.34548,-27.35097 13.7788,-38.88507zM171.1657,65.45364c-5.79225,5.16631 -15.13652,4.54909 -22.66493,6.57408c-3.97462,1.06914 -1.26864,8.72141 -1.80804,13.09942c-0.63763,5.17558 -0.96625,10.57303 -2.91923,15.31407c-6.91057,16.77592 -23.47642,19.70209 -28.3483,37.48508c-3.74675,13.67614 5.39493,19.19444 5.26983,33.20636c-0.05131,5.74746 -2.85542,10.99207 -4.2832,16.48808c-5.96456,11.77209 -3.32615,19.04826 -2.81407,32.51317c0.08291,2.17986 -1.32843,4.87251 0.02569,6.5379c1.89225,2.32731 5.79603,1.36092 8.00509,3.33929c4.80398,4.30231 9.77822,9.0065 12.50699,15.0308c4.21988,9.31641 -0.04317,16.804 1.91327,25.89396c2.83519,13.17203 18.16888,24.4151 25.46083,34.09786c4.49038,5.96252 4.48694,15.03447 9.39798,20.60414c5.84239,6.62613 14.99678,9.60442 19.96761,16.9978c1.86576,2.77509 0.68323,7.2892 2.93373,9.71624c1.47872,1.59474 4.13095,-0.01544 6.19466,0.12827c11.85998,0.82544 19.00005,0.86711 30.4836,-2.66844c13.32401,-0.37956 23.62931,-6.03755 36.98188,-7.40592c10.25515,-1.05097 20.50069,3.08284 28.30664,-5.48607c2.57973,-2.8319 7.49902,-7.17547 5.27656,-10.48071c-2.29117,-3.40757 -8.17082,-3.88316 -9.13499,-7.92709c-1.63813,-6.87107 0.22043,-14.28763 2.25813,-20.9173c2.21966,-7.22168 10.33048,-10.92618 12.81624,-18.03979c0.66614,-1.90633 -0.46665,-18.52511 -0.53439,-19.1144c-1.25692,-10.9389 -0.7662,-26.24846 -4.46877,-36.66057c-1.74357,-4.90315 -6.16771,-8.80404 -6.83071,-13.97323c-1.50514,-11.73513 3.7118,-24.46382 11.94969,-31.51803c-28.11412,-3.23007 -14.21887,-42.95413 -27.71393,-59.46387c-10.08338,-12.33588 -20.81669,-11.08717 -30.40006,-25.89696c-4.23164,-6.53945 -5.81447,-28.41716 -12.79878,-32.38893c-2.63771,-1.49994 -5.92563,-0.51373 -8.79,-1.35791c-5.0568,-1.49027 -11.05702,-6.16255 -16.83623,-4.98133c-7.6419,1.56192 -13.78788,7.93352 -21.3772,9.73751c-5.47276,1.3009 -11.7329,1.54296 -18.02575,1.51674z" data-paper-data="{&quot;index&quot;:null}" fill="url(#color-28)" stroke="none" stroke-width="0.5"/><path d="M198.67806,382.03842c-23.10681,-4.16844 -18.1184,-19.63749 -30.96594,-32.42339c-4.61961,-4.59747 -14.45051,-5.76302 -19.66528,-7.53571c-16.29848,-5.5404 -16.77253,-5.26447 -28.5387,-19.89426c-12.7628,-15.869 -5.45105,-33.9457 -17.98676,-47.26266c-13.04859,-11.78393 -29.75293,-40.85312 -25.58416,-60.17415c0.30674,-1.42172 13.49167,-15.57072 13.49328,-21.00152c0.00232,-8.03905 -7.53161,-14.57697 -8.54788,-22.55158c-2.40668,-18.8853 8.28523,-37.94957 13.78069,-54.63298c2.61515,-7.93911 -1.10406,-17.14596 1.70617,-25.01813c2.74606,-7.69234 11.54737,-14.10788 13.50105,-22.57657c1.26852,-5.49874 -1.45865,-12.01118 1.41019,-16.87066c9.66399,-16.36917 39.312,-23.23121 56.24315,-24.86764c9.14389,-3.1978 19.03724,-3.68913 28.65708,-4.82682c22.79786,-2.69616 37.35974,-18.59354 61.46073,-8.33819c12.63406,5.37601 23.37381,16.57888 24.52074,31.14499c0.31417,3.9905 -5.56936,6.23065 -6.43515,10.13874c-1.03618,4.67707 8.20099,4.95353 12.3053,7.424c9.19128,5.53246 17.28742,13.9884 21.70159,23.76607c6.96315,15.42383 15.59638,40.18333 16.32249,57.09841c0.17611,4.10322 -2.58096,8.06886 -2.07673,12.14481c0.55873,4.51634 15.60439,13.30879 15.66153,13.38353c4.78134,6.25572 7.16675,14.02204 10.75012,21.03305c-3.48392,4.25015 -7.77819,7.94904 -10.45168,12.75041c-6.97394,12.52441 7.45709,32.5005 7.60564,44.97663c0.13808,11.59288 -5.27134,25.39752 -11.54412,34.72369c-3.96214,5.89073 -11.05062,10.41712 -12.26473,17.41175c-3.00263,17.29846 6.97498,29.80988 -4.36478,46.8425c-4.18355,6.28378 -19.62417,17.2461 -30.7043,22.90851c-1.93042,3.96741 -5.88985,5.95725 -5.88985,5.95725c-11.27115,5.51679 -25.30329,22.42875 -38.66888,21.33613c-8.12265,-0.66403 -13.41525,-8.29951 -19.31431,-14.64252c-2.46851,1.033 -4.87545,2.00222 -7.18251,2.82181l-4.57289,1.62441c0,0 -9.6413,3.42494 -14.36117,-4.86971zM228.29512,354.92746c6.70884,-2.65593 13.49485,-5.03466 19.88263,-6.04466c8.85814,-1.40066 18.08411,2.287 26.89729,0.62674c6.665,-1.2556 11.11949,-8.35125 15.89648,-11.92818c2.70588,-2.02611 6.62906,-2.43193 8.81882,-5.00719c5.79816,-6.81914 -1.65559,-28.96296 0.12994,-37.15292c4.04367,-18.54762 16.02706,-21.8075 21.63859,-38.13488c7.51022,-21.8517 -23.93066,-55.05026 4.74073,-69.97244c-11.74513,-3.4837 -22.636,-13.80185 -25.93356,-25.95399c-1.45255,-5.35287 1.64136,-11.03237 1.45387,-16.57565c-0.3981,-11.77145 -7.32088,-26.59917 -10.55063,-37.86574c-0.174,-0.60699 -5.91026,-17.39891 -7.41838,-18.99236c-5.62757,-5.94604 -15.83697,-6.19363 -21.22556,-12.35708c-4.94693,-5.65824 -10.03133,-12.16395 -11.15384,-19.59552c-0.66061,-4.37379 5.41912,-7.29829 6.44149,-11.60189c0.99175,-4.17441 -6.07673,-6.38337 -10.01507,-8.08589c-11.91694,-5.15148 -21.12977,3.18973 -32.5199,6.44401c-14.8304,4.23718 -28.19958,2.98863 -42.5862,8.18478c-13.74033,1.32797 -21.34742,4.35314 -33.667,10.12064c-2.14367,1.0036 -5.64874,0.53101 -6.56129,2.715c-1.38877,3.32378 1.76066,7.26205 0.9282,10.76683c-2.21797,9.33738 -10.74852,16.088 -14.21784,25.03624c-2.91628,7.52163 0.87906,16.42819 -1.42387,24.15971c-3.73969,12.5555 -15.41455,30.00422 -12.93674,44.1232c1.70997,9.74342 9.39176,15.3139 8.77949,26.22564c-0.39596,7.05599 -3.74153,13.75409 -7.07321,19.98652c-1.53204,2.86594 -6.10459,3.54863 -7.1525,6.62475c-0.74987,2.20121 1.88259,4.25541 2.70518,6.43051c5.08095,13.43562 5.30464,21.68303 16.59411,30.74942c3.82173,4.79997 9.00805,8.77783 11.46508,14.39996c5.98993,13.70646 -1.46553,22.94578 8.25145,34.80881c12.63494,15.42539 31.54765,11.37488 45.93867,24.95926c4.06699,3.83905 6.67384,9.00162 9.51791,13.8172c2.4058,4.07342 2.71458,12.71846 7.40567,12.107c8.88555,-1.1582 18.60569,-5.6697 26.95022,-3.01769z" fill="url(#color-29)" stroke="none" stroke-width="0.5"/><g><path d="M162.26138,243.02022l-9.89718,-50.47879l5.71459,-1.12044l9.89718,50.47879z" fill="url(#color-30)" stroke="none" stroke-width="0"/><path d="M267.3462,222.41666l-9.89718,-50.47879l5.71459,-1.12044l9.89718,50.47879z" fill="url(#color-31)" stroke="none" stroke-width="0"/><path d="M125.77557,206.3813l-1.96661,-10.03038l167.87717,-32.915l1.96661,10.03038z" fill="url(#color-32)" stroke="none" stroke-width="0"/><g stroke-width="0"><path d="M285.7759,170.59646c2.80016,14.28171 -5.99668,28.02917 -19.64836,30.70581c-13.65166,2.67663 -26.98845,-6.7312 -29.7886,-21.0129c-2.80016,-14.28171 5.99668,-28.02917 19.64832,-30.70579c13.65166,-2.67663 26.98847,6.73111 29.78864,21.01288z" fill="url(#color-33)" stroke="none"/><g stroke="#a70000"><path d="M271.16202,173.84535c1.11931,5.70881 -2.4795,11.22026 -8.03813,12.31012c-5.55866,1.08986 -10.9722,-2.65458 -12.0915,-8.36338c-1.11931,-5.70881 2.47945,-11.22034 8.03811,-12.3102c5.55866,-1.08986 10.97221,2.65465 12.09152,8.36346z" fill="#960000"/><path d="M268.75941,174.31643c0.85213,4.3461 -1.88759,8.54184 -6.11935,9.37155c-4.23172,0.82969 -8.353,-2.0209 -9.20512,-6.36694c-0.85213,-4.3461 1.88756,-8.54191 6.11931,-9.3716c4.23172,-0.82969 8.35303,2.02094 9.20515,6.36701z" fill="#000000"/></g><path d="M285.7759,170.59646c0.02058,0.10497 -13.66179,-3.3938 -26.08171,-0.87085c-12.26463,2.49143 -23.26808,11.00843 -23.35527,10.56375c-2.80016,-14.28171 5.99668,-28.02917 19.64832,-30.70579c13.65166,-2.67663 26.98847,6.73111 29.78864,21.01288z" fill="url(#color-34)" stroke="none"/></g><path d="M211.3647,299.91521l-1.01618,-5.29966l36.3958,-6.97853l1.01612,5.29967z" fill="url(#color-35)" stroke="none" stroke-width="0"/><path d="M244.13779,295.08399l-11.77375,-60.97693l6.36689,-1.2084l11.77375,60.97693z" fill="url(#color-36)" stroke="none" stroke-width="0"/><path d="M209.8542,301.59073l-11.77374,-60.97685l6.36689,-1.20843l11.77375,60.97693z" fill="url(#color-37)" stroke="none" stroke-width="0"/><g stroke="none" stroke-width="0"><path d="M226.33052,342.57292l-9.80932,-51.15926l24.3783,-4.67427l9.80939,51.15925z" fill="url(#color-38)"/><path d="M226.33052,342.57292l-1.23503,-6.44118l24.37829,-4.67433l1.23503,6.44118z" fill="#494949"/></g><path d="M142.71028,243.912l150.22278,-29.12449l2.9185,14.82705l-150.24113,29.12398z" fill="url(#color-39)" stroke="none" stroke-width="0"/><g><path d="M176.968,275.1998c-2.24328,0.92476 -3.16805,-1.31852 -3.16805,-1.31852l-0.69023,-1.69135c-3.71025,-11.2727 -0.21286,-21.18043 -8.34623,-30.24526c-6.09978,-10.07934 -3.3404,-15.20756 -4.92251,-25.56935c-0.84515,-5.5352 -5.56365,-9.57955 -7.15964,-14.72497c-1.71333,-5.52363 1.50189,-9.74473 1.72303,-15.05393c0,0 0.1246,-2.42321 2.5478,-2.29859c2.42321,0.1246 2.29859,2.5478 2.29859,2.5478c-0.26197,4.43841 -3.34981,8.94205 -1.93762,13.35697c1.70111,5.31815 6.50643,9.56538 7.31939,15.40433c1.37106,9.84773 -1.59108,14.08127 4.02851,23.44658c8.84865,9.74627 5.176,19.82411 9.05819,31.61921l0.56722,1.35893c0,0 0.92469,2.24331 -1.31852,3.16805z" fill="url(#color-40)" stroke="none" stroke-width="0.5"/><path d="M169.78707,274.67766c-2.38107,0.46685 -2.84792,-1.91423 -2.84792,-1.91423l-0.37348,-1.90487c-2.00838,-10.95113 5.96281,-18.39753 3.85361,-29.10813c-2.27621,-11.83967 -10.99711,-18.03615 -18.12138,-26.61561c-5.08096,-6.11883 -6.19855,-17.46072 -6.84619,-25.13767c0,0 -0.20104,-2.41805 2.21706,-2.61911c2.41805,-0.20104 2.61911,2.21706 2.61911,2.21706c0.46415,5.67364 1.2501,14.86765 4.1296,19.9155c6.47033,11.34253 17.9348,17.11988 20.764,31.30615c2.14174,10.97532 -6.07878,18.69885 -3.85361,29.10813l0.37348,1.90487c0,0 0.46685,2.38107 -1.91423,2.84792z" fill="url(#color-41)" stroke="none" stroke-width="0.5"/><g stroke-width="0"><path d="M191.727,276.07207c2.80016,14.28171 -5.99668,28.02917 -19.64836,30.70581c-13.65166,2.67663 -26.98843,-6.73113 -29.7886,-21.0129c-2.80016,-14.28171 5.99668,-28.02917 19.64832,-30.70579c13.65166,-2.67663 26.98849,6.73119 29.78864,21.01288z" fill="url(#color-42)" stroke="none"/><g stroke="#a70000"><path d="M173.32193,291.93284c1.11931,5.70881 -2.47947,11.22026 -8.03813,12.31012c-5.55866,1.08986 -10.9722,-2.65458 -12.0915,-8.36338c-1.11931,-5.70881 2.47947,-11.22026 8.03813,-12.31012c5.55866,-1.08986 10.9722,2.65458 12.0915,8.36338z" fill="#960000"/><path d="M170.9194,292.40389c0.85213,4.3461 -1.88757,8.54185 -6.11933,9.37155c-4.23172,0.82969 -8.353,-2.0209 -9.20512,-6.36694c-0.85213,-4.3461 1.88756,-8.54191 6.11931,-9.3716c4.23172,-0.82969 8.35301,2.02095 9.20513,6.36701z" fill="#000000"/></g></g></g><path d="M181.00853,191.13778c0.02058,0.10497 -13.03933,-0.21906 -25.45923,2.30392c-12.26463,2.49143 -23.89054,7.83369 -23.97773,7.38899c-2.80016,-14.28171 5.99668,-28.02917 19.64832,-30.70579c13.65166,-2.67663 26.98847,6.73111 29.78864,21.01288z" fill="url(#color-43)" stroke="none" stroke-width="0"/></g><path d="M97.46487,162.5066c-2.69405,-5.00636 2.77924,-7.66081 2.77924,-7.66081l3.57797,-1.62706c21.54891,-15.42042 39.42114,-33.13745 67.07238,-38.63159c1.15258,0.0547 2.35008,0.15654 3.57541,0.27373c0.15517,-1.87196 0.10504,-3.63481 -0.23805,-5.21548c-2.42495,-11.17281 -11.18969,-17.87824 -15.89127,-27.54684c-7.69472,-15.82392 4.3503,-35.85991 15.96581,-47.21054c0,0 4.2945,-4.14287 8.62727,-0.27683c4.33274,3.86604 0.03826,8.00896 0.03826,8.00896c-7.7306,7.34082 -19.39719,23.77509 -13.44616,34.64046c5.62733,10.27431 14.53027,18.07304 16.76561,30.32838c0.47191,2.58731 0.62385,5.18671 0.54257,7.79711c1.33058,-0.13571 2.62772,-0.37673 3.86925,-0.76394c5.04789,-1.57425 9.03352,-4.34391 12.64875,-7.51107c0.54704,-15.5696 -11.79124,-28.5504 -7.9757,-44.4264c1.96728,-8.18566 9.4878,-16.88783 14.13261,-23.99529c0,0 3.20789,-4.90734 8.3968,-2.07412c5.18891,2.83322 1.98101,7.74064 1.98101,7.74064c-3.89562,5.95795 -11.02805,13.78152 -12.63805,20.60753c-2.55389,10.82811 3.62946,21.19832 6.65962,32.13632c2.23645,-1.97382 4.60195,-3.78708 7.26618,-5.24437c7.69587,-4.20946 17.70038,-1.21061 24.23787,-8.46232c5.79629,-6.42959 15.04976,-22.07886 11.10482,-29.2639c0,0 -2.24297,-5.20453 3.43019,-7.44573c5.67314,-2.24115 7.91608,2.96335 7.91608,2.96335c5.27743,14.13749 -6.53095,38.78456 -21.24147,46.82878c-5.81507,3.17985 -14.46449,2.1953 -19.58892,5.1525c-4.20009,2.42377 -8.166,8.01236 -12.16284,11.59752c-3.64464,22.53419 -10.22811,35.77874 2.42484,56.86378c6.79069,8.89543 13.91482,15.77453 13.50676,27.60217c-0.26862,7.78861 -6.21192,19.75549 -3.7591,27.25096c4.33508,13.24688 11.27499,19.37442 9.458,34.99747l-0.35213,5.05827c0,0 -0.40154,5.66297 -6.48881,5.46037c-6.08718,-0.20254 -5.68564,-5.8655 -5.68564,-5.8655l0.40258,-5.58403c1.82838,-14.41125 -5.50137,-18.42485 -9.14106,-30.88119c-3.39508,-11.61933 5.76099,-24.44075 2.87144,-36.04864c-1.41296,-5.67604 -7.74438,-11.21234 -11.19262,-15.74671c-12.2599,-20.46843 -9.46349,-34.59596 -5.85501,-54.38584c-5.03468,2.24683 -10.03552,3.44261 -15.58729,3.92728c-2.8197,13.54942 -8.74667,27.34657 -6.0245,41.23052c2.77702,5.54761 7.33414,11.73686 9.69274,17.28495c3.39312,7.98142 0.86038,20.21574 5.29737,27.47934c5.84439,9.56782 9.03818,14.67328 8.85428,26.50943l-0.68063,2.8906c0,0 -1.71252,5.48412 -7.56763,4.05791c-5.85512,-1.42616 -4.14266,-6.91035 -4.14266,-6.91035l0.19203,0.09591c0.26467,-10.75054 -2.80551,-12.64051 -7.64531,-21.41573c-4.53668,-8.22566 -1.87863,-19.61873 -5.60046,-28.10313c-2.59791,-5.92222 -7.14307,-12.22303 -10.04995,-18.19817c-2.06305,-10.52225 -2.14812,-21.82064 0.4467,-32.50909c0.83833,-3.45324 2.42986,-7.8443 3.80459,-12.36394c-0.19699,-0.01119 -0.39488,-0.02278 -0.59356,-0.03476c-24.26265,4.66796 -41.55717,22.50556 -60.31995,36.19414l-5.503,2.77696c0,0 -5.4733,2.65447 -8.16736,-2.35191z" fill="url(#color-44)" stroke="none" stroke-width="0.5"/><path d="M314.2243,108.41359c1.89646,5.76197 -3.86554,7.65842 -3.86554,7.65842l-5.48859,1.80289c-16.42342,4.69489 -25.34229,19.477 -41.03901,25.6014c-10.24583,3.99755 -26.16079,3.49366 -35.29922,8.77934c-10.44646,6.04227 -11.40686,32.66605 -11.71948,42.89503c-2.33205,8.57308 -5.60167,18.21641 -10.35093,26.90585c0.73469,-0.15463 1.46882,-0.304 2.20228,-0.44748c18.77107,-2.00482 27.80838,8.1125 43.09465,17.02442c3.46493,2.02004 10.68081,9.96571 14.77284,9.82709c13.53146,-0.45843 25.92088,-8.76612 39.55696,-9.99733c8.5222,-0.76948 16.25351,3.13458 24.47914,4.79605c0,0 5.94369,1.21215 4.73154,7.15582c-1.21215,5.94369 -7.15583,4.7315 -7.15583,4.7315c-6.38307,-1.31309 -14.45157,-5.39057 -21.03362,-4.5944c-13.45484,1.62753 -27.44179,11.00812 -41.04168,10.03161c-20.90306,-1.50093 -32.77613,-29.98876 -55.52828,-26.9885c-5.09608,1.00149 -10.25224,2.3204 -15.43763,3.71166c-4.84029,4.60429 -10.57907,8.09307 -17.40243,9.77221c-10.37205,2.55247 -18.41625,-2.60258 -28.80708,1.99276c-17.00342,7.51973 -25.68366,22.81901 -45.87414,23.09865c0,0 -6.06602,-0.02301 -6.04301,-6.08895c0.02302,-6.06595 6.08893,-6.04308 6.08893,-6.04308c12.48693,0.37004 21.43421,-8.80676 31.12987,-16.03963c-12.74441,-0.97591 -25.26765,-0.79533 -36.39192,8.81383l-3.42232,1.4489c0,0 -5.95267,1.16712 -7.11979,-4.78556c-0.86976,-4.43609 2.21449,-6.21451 3.84255,-6.83272c11.63491,-8.94807 30.20597,-13.3076 44.80006,-12.98133c7.74533,0.17314 14.24994,4.14512 21.83909,3.36539c10.44101,-1.07278 20.94932,-3.90396 31.40643,-6.68961c8.14861,-9.06669 12.78175,-22.75841 15.66423,-32.97072c0.286,-15.2369 3.15631,-42.57618 17.64817,-51.61486c9.49302,-5.92083 26.48906,-5.65961 37.15973,-9.65368c15.91853,-5.9583 24.85536,-20.81434 41.84764,-25.86884l5.09824,-1.68164c0,0 5.76193,-1.89646 7.65842,3.86554z" fill="url(#color-45)" stroke="none" stroke-width="0.5"/><path d="M198.67806,382.03842c-23.10681,-4.16844 -18.1184,-19.63749 -30.96594,-32.42339c-4.61961,-4.59747 -14.45051,-5.76302 -19.66528,-7.53571c-16.29848,-5.5404 -16.77253,-5.26447 -28.5387,-19.89426c-12.7628,-15.869 -5.45105,-33.9457 -17.98676,-47.26266c-13.04859,-11.78393 -29.75293,-40.85312 -25.58416,-60.17415c0.30674,-1.42172 13.49167,-15.57072 13.49328,-21.00152c0.00232,-8.03905 -7.53161,-14.57697 -8.54788,-22.55158c-2.40668,-18.8853 8.28523,-37.94957 13.78069,-54.63298c2.61515,-7.93911 -1.10406,-17.14596 1.70617,-25.01813c2.74606,-7.69234 11.54737,-14.10788 13.50105,-22.57657c1.26852,-5.49874 -1.45865,-12.01118 1.41019,-16.87066c9.66399,-16.36917 39.312,-23.23121 56.24315,-24.86764c9.14389,-3.1978 19.03724,-3.68913 28.65708,-4.82682c22.79786,-2.69616 37.35974,-18.59354 61.46073,-8.33819c12.63406,5.37601 23.37381,16.57888 24.52074,31.14499c0.31417,3.9905 -5.56936,6.23065 -6.43515,10.13874c-1.03618,4.67707 8.20099,4.95353 12.3053,7.424c9.19128,5.53246 17.28742,13.9884 21.70159,23.76607c6.96315,15.42383 15.59638,40.18333 16.32249,57.09841c0.17611,4.10322 -2.58096,8.06886 -2.07673,12.14481c0.55873,4.51634 15.60439,13.30879 15.66153,13.38353c4.78134,6.25572 7.16675,14.02204 10.75012,21.03305c-3.48392,4.25015 -7.77819,7.94904 -10.45168,12.75041c-6.97394,12.52441 7.45709,32.5005 7.60564,44.97663c0.13808,11.59288 -5.27134,25.39752 -11.54412,34.72369c-3.96214,5.89073 -11.05062,10.41712 -12.26473,17.41175c-3.00263,17.29846 6.97498,29.80988 -4.36478,46.8425c-4.18355,6.28378 -19.62417,17.2461 -30.7043,22.90851c-1.93042,3.96741 -5.88985,5.95725 -5.88985,5.95725c-11.27115,5.51679 -25.30329,22.42875 -38.66888,21.33613c-8.12265,-0.66403 -13.41525,-8.29951 -19.31431,-14.64252c-2.46851,1.033 -4.87545,2.00222 -7.18251,2.82181l-4.57289,1.62441c0,0 -9.6413,3.42494 -14.36117,-4.86971zM228.29512,354.92746c6.70884,-2.65593 13.49485,-5.03466 19.88263,-6.04466c8.85814,-1.40066 18.08411,2.287 26.89729,0.62674c6.665,-1.2556 11.11949,-8.35125 15.89648,-11.92818c2.70588,-2.02611 6.62906,-2.43193 8.81882,-5.00719c5.79816,-6.81914 -1.65559,-28.96296 0.12994,-37.15292c4.04367,-18.54762 16.02706,-21.8075 21.63859,-38.13488c7.51022,-21.8517 -23.93066,-55.05026 4.74073,-69.97244c-11.74513,-3.4837 -22.636,-13.80185 -25.93356,-25.95399c-1.45255,-5.35287 1.64136,-11.03237 1.45387,-16.57565c-0.3981,-11.77145 -7.32088,-26.59917 -10.55063,-37.86574c-0.174,-0.60699 -5.91026,-17.39891 -7.41838,-18.99236c-5.62757,-5.94604 -15.83697,-6.19363 -21.22556,-12.35708c-4.94693,-5.65824 -10.03133,-12.16395 -11.15384,-19.59552c-0.66061,-4.37379 5.41912,-7.29829 6.44149,-11.60189c0.99175,-4.17441 -6.07673,-6.38337 -10.01507,-8.08589c-11.91694,-5.15148 -21.12977,3.18973 -32.5199,6.44401c-14.8304,4.23718 -28.19958,2.98863 -42.5862,8.18478c-13.74033,1.32797 -21.34742,4.35314 -33.667,10.12064c-2.14367,1.0036 -5.64874,0.53101 -6.56129,2.715c-1.38877,3.32378 1.76066,7.26205 0.9282,10.76683c-2.21797,9.33738 -10.74852,16.088 -14.21784,25.03624c-2.91628,7.52163 0.87906,16.42819 -1.42387,24.15971c-3.73969,12.5555 -15.41455,30.00422 -12.93674,44.1232c1.70997,9.74342 9.39176,15.3139 8.77949,26.22564c-0.39596,7.05599 -3.74153,13.75409 -7.07321,19.98652c-1.53204,2.86594 -6.10459,3.54863 -7.1525,6.62475c-0.74987,2.20121 1.88259,4.25541 2.70518,6.43051c5.08095,13.43562 5.30464,21.68303 16.59411,30.74942c3.82173,4.79997 9.00805,8.77783 11.46508,14.39996c5.98993,13.70646 -1.46553,22.94578 8.25145,34.80881c12.63494,15.42539 31.54765,11.37488 45.93867,24.95926c4.06699,3.83905 6.67384,9.00162 9.51791,13.8172c2.4058,4.07342 2.71458,12.71846 7.40567,12.107c8.88555,-1.1582 18.60569,-5.6697 26.95022,-3.01769z" fill="url(#color-46)" stroke="none" stroke-width="0.5"/></g><g stroke="none" stroke-width="0"><path d="M253.42757,137.52297c21.04256,-4.12573 41.55118,10.12675 45.8072,31.83383c4.25601,21.70707 -9.35219,42.64871 -30.39478,46.77444c-21.04256,4.12573 -41.55118,-10.12675 -45.8072,-31.83383c-4.25601,-21.70707 9.35219,-42.64871 30.39478,-46.77444z" fill="url(#color-47)"/><path d="M260.64707,174.34476c1.32901,-0.26057 2.62426,0.63957 2.89306,2.01056c0.2688,1.37096 -0.5907,2.69362 -1.91965,2.95418c-1.32901,0.26057 -2.62426,-0.63957 -2.89306,-2.01056c-0.2688,-1.37096 0.5907,-2.69362 1.91965,-2.95418z" fill="#ffffff"/></g></g></g></g></svg>