<svg version="1.1" xmlns="http://www.w3.org/2000/svg" xmlns:xlink="http://www.w3.org/1999/xlink" width="837.20188" height="692.32604" viewBox="0,0,837.20188,692.32604"><defs><linearGradient x1="586.40278" y1="473.5477" x2="617.14324" y2="501.03808" gradientUnits="userSpaceOnUse" id="color-1"><stop offset="0" stop-color="#9f896a"/><stop offset="1" stop-color="#6e604b"/></linearGradient><linearGradient x1="597.88087" y1="470.84547" x2="636.21604" y2="505.12752" gradientUnits="userSpaceOnUse" id="color-2"><stop offset="0" stop-color="#b9a17e"/><stop offset="1" stop-color="#9f896a"/></linearGradient><linearGradient x1="611.28172" y1="462.88074" x2="650.5373" y2="497.98592" gradientUnits="userSpaceOnUse" id="color-3"><stop offset="0" stop-color="#e0c297"/><stop offset="1" stop-color="#b9a17e"/></linearGradient><linearGradient x1="571.24743" y1="445.0601" x2="613.76492" y2="483.08239" gradientUnits="userSpaceOnUse" id="color-4"><stop offset="0" stop-color="#e0c297"/><stop offset="1" stop-color="#b9a17e"/></linearGradient><linearGradient x1="571.77719" y1="472.37709" x2="585.67365" y2="484.8043" gradientUnits="userSpaceOnUse" id="color-5"><stop offset="0" stop-color="#e0c297"/><stop offset="1" stop-color="#b9a17e"/></linearGradient><linearGradient x1="196.76743" y1="258.99439" x2="219.75838" y2="254.78319" gradientUnits="userSpaceOnUse" id="color-6"><stop offset="0" stop-color="#7a7a7a"/><stop offset="1" stop-color="#a4a4a4"/></linearGradient><linearGradient x1="137.64517" y1="200.91191" x2="150.09461" y2="198.63156" gradientUnits="userSpaceOnUse" id="color-7"><stop offset="0" stop-color="#7a7a7a"/><stop offset="1" stop-color="#a4a4a4"/></linearGradient><linearGradient x1="239.37037" y1="182.27906" x2="251.81977" y2="179.99872" gradientUnits="userSpaceOnUse" id="color-8"><stop offset="0" stop-color="#7a7a7a"/><stop offset="1" stop-color="#a4a4a4"/></linearGradient><linearGradient x1="187.08853" y1="139.42728" x2="194.49823" y2="179.8802" gradientUnits="userSpaceOnUse" id="color-9"><stop offset="0" stop-color="#a4a4a4"/><stop offset="1" stop-color="#7a7a7a"/></linearGradient><linearGradient x1="188.19887" y1="151.60904" x2="190.3815" y2="163.52499" gradientUnits="userSpaceOnUse" id="color-10"><stop offset="0" stop-color="#6b6b6b"/><stop offset="1" stop-color="#222222"/></linearGradient><linearGradient x1="227.65265" y1="271.91984" x2="229.04038" y2="279.49594" gradientUnits="userSpaceOnUse" id="color-11"><stop offset="0" stop-color="#9a9a9a"/><stop offset="1" stop-color="#dedede"/></linearGradient><linearGradient x1="216.49873" y1="273.89195" x2="217.88639" y2="281.46804" gradientUnits="userSpaceOnUse" id="color-12"><stop offset="0" stop-color="#9a9a9a"/><stop offset="1" stop-color="#dedede"/></linearGradient><linearGradient x1="205.42592" y1="275.92012" x2="206.81362" y2="283.49623" gradientUnits="userSpaceOnUse" id="color-13"><stop offset="0" stop-color="#9a9a9a"/><stop offset="1" stop-color="#dedede"/></linearGradient><linearGradient x1="194.27193" y1="277.8922" x2="195.65966" y2="285.4683" gradientUnits="userSpaceOnUse" id="color-14"><stop offset="0" stop-color="#9a9a9a"/><stop offset="1" stop-color="#dedede"/></linearGradient><linearGradient x1="209.17296" y1="267.24113" x2="211.23558" y2="278.50189" gradientUnits="userSpaceOnUse" id="color-15"><stop offset="0" stop-color="#a4a4a4"/><stop offset="1" stop-color="#3d3d3d"/></linearGradient><linearGradient x1="229.82166" y1="282.90749" x2="231.20934" y2="290.48354" gradientUnits="userSpaceOnUse" id="color-16"><stop offset="0" stop-color="#dedede"/><stop offset="1" stop-color="#9a9a9a"/></linearGradient><linearGradient x1="218.6928" y1="285.01697" x2="220.0805" y2="292.59307" gradientUnits="userSpaceOnUse" id="color-17"><stop offset="0" stop-color="#dedede"/><stop offset="1" stop-color="#9a9a9a"/></linearGradient><linearGradient x1="207.62007" y1="287.04515" x2="209.00781" y2="294.62123" gradientUnits="userSpaceOnUse" id="color-18"><stop offset="0" stop-color="#dedede"/><stop offset="1" stop-color="#9a9a9a"/></linearGradient><linearGradient x1="196.49124" y1="289.15456" x2="197.87892" y2="296.73066" gradientUnits="userSpaceOnUse" id="color-19"><stop offset="0" stop-color="#dedede"/><stop offset="1" stop-color="#9a9a9a"/></linearGradient><linearGradient x1="213.52512" y1="290.1479" x2="215.58776" y2="301.40867" gradientUnits="userSpaceOnUse" id="color-20"><stop offset="0" stop-color="#a4a4a4"/><stop offset="1" stop-color="#3d3d3d"/></linearGradient><radialGradient cx="138.19461" cy="167.45477" r="37.68127" gradientUnits="userSpaceOnUse" id="color-21"><stop offset="0" stop-color="#ffffff"/><stop offset="1" stop-color="#c4bfb5"/></radialGradient><radialGradient cx="147.46806" cy="158.83009" r="14.0033" gradientUnits="userSpaceOnUse" id="color-22"><stop offset="0" stop-color="#ffffff"/><stop offset="1" stop-color="#ffffff" stop-opacity="0"/></radialGradient><radialGradient cx="239.46297" cy="149.30785" r="37.68127" gradientUnits="userSpaceOnUse" id="color-23"><stop offset="0" stop-color="#ffffff"/><stop offset="1" stop-color="#c5c1b7"/></radialGradient><radialGradient cx="248.13909" cy="140.39033" r="14.0033" gradientUnits="userSpaceOnUse" id="color-24"><stop offset="0" stop-color="#ffffff"/><stop offset="1" stop-color="#ffffff" stop-opacity="0"/></radialGradient><linearGradient x1="200.50056" y1="221.94598" x2="202.57699" y2="233.28203" gradientUnits="userSpaceOnUse" id="color-25"><stop offset="0" stop-color="#a4a4a4"/><stop offset="1" stop-color="#686868"/></linearGradient><radialGradient cx="319.1903" cy="-9.48648" r="95.08669" gradientUnits="userSpaceOnUse" id="color-26"><stop offset="0" stop-color="#634a14"/><stop offset="1" stop-color="#443014"/></radialGradient><linearGradient x1="264.33332" y1="0.56065" x2="284.27686" y2="109.44149" gradientUnits="userSpaceOnUse" id="color-27"><stop offset="0" stop-color="#4a4a4a"/><stop offset="1" stop-color="#000000"/></linearGradient><radialGradient cx="9.26678" cy="47.28176" r="95.08669" gradientUnits="userSpaceOnUse" id="color-28"><stop offset="0" stop-color="#634a14"/><stop offset="1" stop-color="#443014"/></radialGradient><linearGradient x1="64.12344" y1="37.2328" x2="84.06696" y2="146.11363" gradientUnits="userSpaceOnUse" id="color-29"><stop offset="0" stop-color="#4a4a4a"/><stop offset="1" stop-color="#000000"/></linearGradient><radialGradient cx="239.65099" cy="95.86035" r="143.94718" gradientUnits="userSpaceOnUse" id="color-30"><stop offset="0" stop-color="#e0c297"/><stop offset="1" stop-color="#b9a17e"/></radialGradient><radialGradient cx="231.61477" cy="46.76126" r="139.21955" gradientUnits="userSpaceOnUse" id="color-31"><stop offset="0" stop-color="#634a14"/><stop offset="1" stop-color="#443014"/></radialGradient><linearGradient x1="231.14345" y1="368.76095" x2="238.6937" y2="571.65697" gradientUnits="userSpaceOnUse" id="color-32"><stop offset="0" stop-color="#a4a4a4"/><stop offset="1" stop-color="#7a7a7a"/></linearGradient><linearGradient x1="231.14345" y1="368.76095" x2="231.75939" y2="385.31277" gradientUnits="userSpaceOnUse" id="color-33"><stop offset="0" stop-color="#a4a4a4"/><stop offset="1" stop-color="#7a7a7a"/></linearGradient><linearGradient x1="230.8645" y1="361.26437" x2="232.03835" y2="392.8094" gradientUnits="userSpaceOnUse" id="color-34"><stop offset="0" stop-color="#303030"/><stop offset="1" stop-color="#4b4b4b"/></linearGradient><linearGradient x1="-113.65055" y1="462.4362" x2="-146.58278" y2="485.21223" gradientUnits="userSpaceOnUse" id="color-35"><stop offset="0" stop-color="#9f896a"/><stop offset="1" stop-color="#6e604b"/></linearGradient><linearGradient x1="-124.38268" y1="458.44808" x2="-165.4511" y2="486.8511" gradientUnits="userSpaceOnUse" id="color-36"><stop offset="0" stop-color="#b9a17e"/><stop offset="1" stop-color="#9f896a"/></linearGradient><linearGradient x1="-136.33241" y1="449.15808" x2="-178.38686" y2="478.24307" gradientUnits="userSpaceOnUse" id="color-37"><stop offset="0" stop-color="#e0c297"/><stop offset="1" stop-color="#b9a17e"/></linearGradient><linearGradient x1="-95.61297" y1="436.81917" x2="-141.1619" y2="468.32104" gradientUnits="userSpaceOnUse" id="color-38"><stop offset="0" stop-color="#e0c297"/><stop offset="1" stop-color="#b9a17e"/></linearGradient><linearGradient x1="-99.41885" y1="463.07282" x2="-114.30613" y2="473.36888" gradientUnits="userSpaceOnUse" id="color-39"><stop offset="0" stop-color="#e0c297"/><stop offset="1" stop-color="#b9a17e"/></linearGradient><radialGradient cx="8.43663" cy="406.86013" r="27.47512" gradientUnits="userSpaceOnUse" id="color-40"><stop offset="0" stop-color="#bb8c8c"/><stop offset="1" stop-color="#9d7070"/></radialGradient><radialGradient cx="-8.01857" cy="404.72297" r="53.76093" gradientUnits="userSpaceOnUse" id="color-41"><stop offset="0" stop-color="#bb8c8c"/><stop offset="1" stop-color="#9d7070"/></radialGradient><radialGradient cx="447.42185" cy="411.97683" r="27.47512" gradientUnits="userSpaceOnUse" id="color-42"><stop offset="0" stop-color="#bb8c8c"/><stop offset="1" stop-color="#9d7070"/></radialGradient><radialGradient cx="464.01508" cy="411.90079" r="53.76093" gradientUnits="userSpaceOnUse" id="color-43"><stop offset="0" stop-color="#bb8c8c"/><stop offset="1" stop-color="#9d7070"/></radialGradient><radialGradient cx="122.41836" cy="378.49522" r="27.47516" gradientUnits="userSpaceOnUse" id="color-44"><stop offset="0" stop-color="#bb8c8c"/><stop offset="1" stop-color="#9d7070"/></radialGradient><radialGradient cx="103.49985" cy="377.02825" r="53.67098" gradientUnits="userSpaceOnUse" id="color-45"><stop offset="0" stop-color="#bb8c8c"/><stop offset="1" stop-color="#9d7070"/></radialGradient><radialGradient cx="337.84772" cy="369.66934" r="27.47516" gradientUnits="userSpaceOnUse" id="color-46"><stop offset="0" stop-color="#bb8c8c"/><stop offset="1" stop-color="#9d7070"/></radialGradient><radialGradient cx="356.80191" cy="370.56437" r="53.67098" gradientUnits="userSpaceOnUse" id="color-47"><stop offset="0" stop-color="#bb8c8c"/><stop offset="1" stop-color="#9d7070"/></radialGradient><linearGradient x1="162.66446" y1="456.41004" x2="312.42488" y2="450.83711" gradientUnits="userSpaceOnUse" id="color-48"><stop offset="0" stop-color="#bb8c8c"/><stop offset="1" stop-color="#9d7070"/></linearGradient><linearGradient x1="162.69023" y1="457.10222" x2="312.45062" y2="451.5293" gradientUnits="userSpaceOnUse" id="color-49"><stop offset="0" stop-color="#d8d8d8"/><stop offset="1" stop-color="#a7a7a7"/></linearGradient></defs><g transform="translate(182.01099,18.23722)"><g data-paper-data="{&quot;isPaintingLayer&quot;:true}" fill-rule="nonzero" stroke-linecap="butt" stroke-linejoin="miter" stroke-miterlimit="10" stroke-dasharray="" stroke-dashoffset="0" style="mix-blend-mode: normal"><g data-paper-data="{&quot;index&quot;:null}" stroke="none" stroke-width="0"><path d="M595.25068,485.36937c-1.68167,-13.12307 -3.79645,-23.24751 5.29166,-24.82972c8.69769,-1.51423 10.33669,14.53889 12.01839,27.66195c1.6817,13.12306 -3.70033,30.47376 -13.68206,25.10747c-7.44865,-7.53087 -1.94627,-14.81665 -3.62797,-27.93973z" fill="url(#color-1)"/><path d="M626.0767,512.51884c-10.0539,-3.33396 -8.45399,-12.32282 -15.90416,-23.25616c-7.45016,-10.93333 -13.92639,-18.99778 -6.54411,-24.52938c7.06513,-5.29401 15.80605,8.27016 23.25617,19.20351c7.45013,10.93331 10.52196,28.838 -0.80794,28.58198z" fill="url(#color-2)"/><path d="M625.64881,485.61444c-12.28315,-4.91595 -22.15732,-7.99456 -19.11768,-16.70416c2.90905,-8.33547 17.7313,-1.95656 30.01446,2.95941c12.28315,4.91595 24.82288,18.06008 15.2779,24.16957c-10.20356,2.84326 -13.89153,-5.50887 -26.17471,-10.42483z" fill="url(#color-3)"/><path d="M587.96676,475.28229c-15.0719,-6.03206 -27.23965,-9.68016 -22.92101,-21.83865c4.13308,-11.63615 16.58721,-6.02668 31.65909,0.00535c15.0719,6.03206 28.5307,8.69277 22.92101,21.83865c-5.17149,12.11904 -16.58721,6.02668 -31.65909,-0.00535z" fill="url(#color-4)"/><path d="M586.20029,482.07947c-9.5032,9.205 -9.7501,18.33182 -20.26995,19.5684c-11.14849,-2.0355 -4.52679,-18.95202 4.97635,-28.15701c9.50319,-9.20502 20.80144,-20.72632 26.65292,-14.11557c6.1142,6.90752 -1.85617,13.4992 -11.35936,22.7042z" data-paper-data="{&quot;index&quot;:null}" fill="url(#color-5)"/></g><path d="M312.52264,149.74819c4.6834,25.56888 49.95484,42.36487 25.72501,92.76218c-25.18492,52.38396 -78.77429,71.98661 -120.45003,79.62028c-44.66136,8.18055 -84.29575,15.63229 -139.04647,-35.67482c-37.15731,-34.82026 -6.48712,-69.32967 -10.62884,-91.94122c-12.24473,-66.84956 32.53982,-131.06315 100.02908,-143.42505c67.48927,-12.36189 132.12645,31.80905 144.37118,98.65863z" fill="#191919" stroke="none" stroke-width="0"/><path d="M267.56143,236.36854c3.42652,-3.45169 5.9728,-13.42505 6.38165,-18.2116c-1.10148,-5.81996 1.42714,-13.80978 -0.89284,-19.06148c-2.51047,-5.68302 -7.40604,-10.66337 -10.45926,-16.10932c-2.77683,-4.95287 -5.64019,-9.68957 -8.90775,-14.06471c2.88807,6.16719 4.92859,12.7762 5.06062,18.24515c0.17768,7.36057 -2.13809,14.76732 0.46583,22.03673c3.61151,10.08215 11.40016,11.68884 8.08386,23.89806c-0.74505,2.10122 -1.7069,3.84642 -2.84729,5.30825c1.1583,-0.47884 2.21688,-1.13616 3.11519,-2.04105zM243.78162,149.58905c10.89131,7.81694 18.07493,18.28056 24.56767,29.9398c3.15063,5.65764 8.35005,10.83968 10.81707,16.82844c2.71031,6.57922 0.22412,14.56945 1.46508,21.55125c-0.59843,6.65779 -3.52148,18.61878 -8.34831,23.42627c-5.50234,5.48018 -13.62964,4.96154 -20.59433,5.40898c-13.03876,0.83768 -25.33063,5.12217 -36.93317,10.44316c-0.72981,0.13812 -1.45973,0.27553 -2.18974,0.41235l1.08777,3.19672c0,0 -0.44826,3.42237 -3.76619,2.91669c-2.07189,-0.31577 -2.67523,-1.76887 -2.83617,-2.81576c-0.87474,-0.35641 -1.75038,-0.69043 -2.62447,-1.00842c-0.84821,0.57673 -2.41062,1.19267 -4.07021,-0.39369c-0.04067,-0.03885 -0.08,-0.07774 -0.11811,-0.11665c-0.62674,-0.21437 -1.27673,-0.64367 -1.70317,-1.47919c-0.54014,-0.17576 -1.07731,-0.3509 -1.61096,-0.52689c1.76009,2.09641 3.36516,4.36532 6.12217,5.53352l2.41525,1.24912c0,0 3.00594,1.56194 1.53148,4.64878c-1.47449,3.08683 -4.4804,1.52487 -4.4804,1.52487l-2.07721,-1.08533c-4.56305,-2.14005 -6.47229,-6.93382 -10.28197,-9.14592c-1.72513,-1.00172 -3.91748,0.35842 -5.87074,0.58622c-4.16389,0.48565 -10.85988,1.58592 -14.79555,-0.72575c-5.70392,-3.35023 -7.4723,-13.59818 -12.4364,-18.36741c-10.95181,1.31169 -21.88406,-6.27923 -21.94245,-18.66529c-0.01453,-3.07613 2.01765,-5.79049 2.55912,-8.80825c1.12845,-6.28963 -5.79456,-13.71885 -7.65803,-19.01286c-2.51566,-7.14683 -0.28935,-13.13542 2.81656,-19.00871c0.07909,-0.44828 0.16241,-0.90231 0.24906,-1.36257c0,0 0.35162,-1.85398 1.86539,-2.53266c-0.09039,-0.39396 -0.17387,-0.79107 -0.2502,-1.1915c0,0 -0.624,-3.40664 2.66543,-4.00915c3.28944,-0.60253 3.91344,2.80411 3.91344,2.80411c2.13308,12.29327 11.77433,18.23131 20.15773,25.61874c1.91315,1.68588 4.91818,6.10313 5.84533,8.45608c0.85922,2.18068 0.07804,7.22796 2.6068,8.64341c3.65721,2.04711 11.24252,0.48844 14.15997,3.53215c3.29819,3.44093 3.76972,8.8737 6.12516,13.05605c3.93175,4.52274 6.56817,8.94082 9.17666,14.3359l0.70326,1.3037c0,0 1.63221,3.0413 -1.2911,4.69017c-2.92331,1.64888 -4.5555,-1.39241 -4.5555,-1.39241l-0.83955,-1.57099c-2.46726,-5.10309 -4.90221,-9.04177 -8.59582,-13.3474c-2.10335,-3.72933 -2.47117,-8.43758 -5.04198,-11.84328c-1.08189,-1.43324 -11.2023,-1.4086 -13.45557,-2.98621c-5.6226,-3.93675 -3.59315,-10.01959 -7.05086,-15.0301c-2.3879,-3.4603 -6.10879,-4.83372 -9.17055,-7.68861c-4.36445,-4.06959 -8.41687,-8.61939 -11.34281,-13.81457c-0.35601,3.58241 0.16938,6.77705 3.41483,10.02947c2.37472,2.3798 5.71225,3.77257 7.62902,6.55707c3.91618,5.68898 1.98241,18.22446 8.83437,21.99676c8.60016,4.73475 17.43955,6.95987 23.17275,15.81062c2.86243,8.51048 8.39851,11.82362 14.93192,14.16455l1.11905,-0.20496c4.20685,-0.58105 7.52873,-4.40414 10.99681,-6.93959c6.36017,-4.64984 13.11991,-8.47251 18.42929,-14.4281c3.80123,-5.10913 0.09807,-15.90611 0.50319,-22.07526c0.34811,-5.30085 4.17796,-8.02573 6.6741,-12.10819c2.75239,-4.50161 4.83157,-11.0481 5.62282,-16.22077c1.48464,-9.70586 -4.2073,-18.4171 -5.91365,-27.65547c0,0 -0.62399,-3.40664 2.66543,-4.00915c2.62694,-0.48117 3.55399,1.59455 3.8208,2.45017c1.59038,-0.68333 3.1804,0.45599 3.1804,0.45599zM243.24279,240.21757c6.69079,-1.22553 15.35646,-1.70309 17.6615,-9.2687c2.51354,-8.97851 -4.98313,-11.33915 -7.98856,-19.46475c-2.96022,-8.00344 -0.70835,-15.9287 -0.85814,-24.02751c-0.10088,-5.45275 -2.70853,-12.78922 -6.0668,-19.055c0.79849,3.60545 1.17528,7.32429 0.6126,11.34216c-0.83449,5.95813 -3.38308,13.39319 -6.50198,18.53576c-1.56041,2.57292 -5.66863,5.61411 -5.70035,9.10209c-0.0803,8.8338 2.90391,18.03861 -1.91917,25.72763c-2.80478,3.13298 -6.76042,7.00834 -11.17979,10.73087c7.05696,-1.59372 14.43172,-2.24714 21.94071,-3.62256zM175.75395,239.15974c-4.74827,-7.38464 -13.85569,-8.66129 -20.71783,-12.98494c-6.97998,-4.39788 -7.40624,-13.4231 -9.3987,-20.47869c-1.23999,-4.39101 -3.95035,-5.2705 -6.76627,-7.65111c1.48189,2.6033 3.0688,5.1805 3.90913,7.88626c3.2906,10.59581 -6.63414,27.47387 10.99643,29.22133c1.74415,0.17289 3.49755,-0.0992 5.24634,-0.14878c5.03229,3.96796 7.39866,6.99277 10.54287,12.64973c1.13933,2.04989 1.09698,5.27852 3.16259,6.29157c4.05987,1.99113 9.21625,-0.19751 13.92806,-0.84415c-4.73214,-2.75116 -8.60579,-6.79573 -10.90262,-13.94122z" fill="#000000" stroke="none" stroke-width="0.5"/><path d="M216.72812,367.96883l-39.92138,-217.94892l22.99093,-4.21122l39.87188,217.67885z" fill="url(#color-6)" stroke="none" stroke-width="0"/><path d="M145.39313,243.21158l-15.49593,-84.5993l12.44943,-2.28037l15.47672,84.49447z" fill="url(#color-7)" stroke="none" stroke-width="0"/><path d="M247.11832,224.57873l-15.49593,-84.59931l12.44944,-2.28036l15.47672,84.49447z" fill="url(#color-8)" stroke="none" stroke-width="0"/><path d="M123.19724,192.94027l-7.40969,-40.45288l142.60196,-26.12021l7.4097,40.45289z" fill="url(#color-9)" stroke="none" stroke-width="0"/><path d="M97.07425,180.61597l-2.18265,-11.91607l186.61452,-34.1819l2.18266,11.91607z" fill="url(#color-10)" stroke="none" stroke-width="0"/><g stroke="none" stroke-width="0"><path d="M224.37819,280.34989l-1.38768,-7.57612l9.32442,-1.70796l1.38768,7.57612z" fill="url(#color-11)"/><path d="M213.2242,282.32202l-1.38768,-7.57613l9.32444,-1.70795l1.38769,7.57612z" fill="url(#color-12)"/><path d="M202.15146,284.3502l-1.38768,-7.57613l9.32439,-1.70795l1.38768,7.57612z" fill="url(#color-13)"/><path d="M190.99744,286.32228l-1.38768,-7.57613l9.32441,-1.70795l1.38768,7.57612z" fill="url(#color-14)"/><path d="M182.68423,283.73156l-2.06261,-11.26076l57.10274,-10.45942l2.06261,11.26076z" fill="url(#color-15)"/></g><g data-paper-data="{&quot;index&quot;:null}" stroke="none" stroke-width="0"><path d="M234.48388,282.05354l1.38769,7.57613l-9.32442,1.70796l-1.38768,-7.57613z" fill="url(#color-16)"/><path d="M223.35502,284.16298l1.38768,7.57613l-9.32441,1.70795l-1.38768,-7.57613z" fill="url(#color-17)"/><path d="M212.28232,286.19116l1.38768,7.57612l-9.32442,1.70796l-1.38768,-7.57613z" fill="url(#color-18)"/><path d="M201.15344,288.3006l1.38768,7.57613l-9.32442,1.70796l-1.38768,-7.57613z" fill="url(#color-19)"/><path d="M242.0765,284.91819l2.06261,11.26075l-57.10274,10.45943l-2.06261,-11.26076z" fill="url(#color-20)"/></g><g stroke-width="0"><g><path d="M175.07391,160.69967c3.74951,20.47024 -9.72236,40.089 -30.09024,43.81976c-20.36788,3.73075 -39.9189,-9.83926 -43.66838,-30.3095c-3.74951,-20.47024 9.72236,-40.089 30.09024,-43.81976c20.36788,-3.73075 39.9189,9.83926 43.66839,30.3095z" fill="url(#color-21)" stroke="#000000"/><path d="M150.72095,165.34133c1.39341,7.60725 -3.22343,14.82672 -10.312,16.1251c-7.08854,1.2984 -13.96455,-3.81592 -15.35794,-11.42317c-1.39341,-7.60725 3.22342,-14.82664 10.31197,-16.12507c7.08854,-1.29839 13.96457,3.8159 15.35795,11.42313z" fill="#000000" stroke="none"/></g><path d="M160.30301,156.47913c1.39341,7.60725 -3.22344,14.82672 -10.31201,16.1251c-7.08854,1.2984 -13.96455,-3.81592 -15.35793,-11.42317c-1.39341,-7.60725 3.22343,-14.82665 10.31197,-16.12507c7.08854,-1.29839 13.96456,3.81591 15.35795,11.42313z" fill="url(#color-22)" stroke="none"/></g><g stroke-width="0"><g><path d="M276.3423,142.55268c3.74951,20.47024 -9.72236,40.089 -30.09024,43.81976c-20.36788,3.73075 -39.9189,-9.83925 -43.66839,-30.3095c-3.74951,-20.47024 9.72237,-40.08899 30.09024,-43.81976c20.36788,-3.73075 39.9189,9.83925 43.66838,30.30949z" fill="url(#color-23)" stroke="#000000"/><path d="M251.98939,147.19439c1.39341,7.60725 -3.22344,14.82672 -10.31199,16.1251c-7.08856,1.29839 -13.96455,-3.81592 -15.35793,-11.42317c-1.39341,-7.60725 3.22342,-14.82664 10.31197,-16.12507c7.08856,-1.29838 13.96455,3.8159 15.35794,11.42312z" fill="#000000" stroke="none"/></g><path d="M260.97405,138.03936c1.39341,7.60725 -3.22344,14.82672 -10.31201,16.1251c-7.08856,1.29839 -13.96455,-3.81592 -15.35794,-11.42317c-1.39341,-7.60725 3.22343,-14.82665 10.31198,-16.12507c7.08856,-1.29838 13.96456,3.81591 15.35795,11.42313z" fill="url(#color-24)" stroke="none"/></g><path d="M145.48967,243.73864l-2.0764,-11.3361l114.17464,-20.9132l2.07383,11.32202z" fill="url(#color-25)" stroke="none" stroke-width="0"/><g data-paper-data="{&quot;index&quot;:null}" stroke="none" stroke-width="0"><path d="M433.14458,87.66561c0,0 1.66588,22.0528 -3.81164,30.92435c-6.14967,9.96009 -14.49973,21.19296 -22.23955,24.00211c-9.64406,3.50027 -20.59674,3.83329 -30.3943,-4.6958c-5.52953,-4.81365 -18.9223,-15.76933 -27.48702,-28.93971c-11.64741,-17.91075 -18.81229,-38.02533 -26.37605,-34.80671c-37.94506,16.1469 -100.86348,-6.46669 -98.65175,-16.85204c1.85195,-8.69608 17.46369,-37.91373 38.19176,-50.68948c87.39689,-70.8105 91.58258,28.86505 112.46663,62.04515c6.49106,10.3128 13.82022,18.19447 21.49385,25.88676c5.08401,5.09641 12.71205,7.31296 20.09082,8.12766c11.35252,1.25344 16.71728,-15.00231 16.71728,-15.00231z" fill="url(#color-26)"/><path d="M217.79496,27.72937l17.45963,-21.84247l95.56064,76.38585l-17.45962,21.84244z" fill="url(#color-27)"/></g><g stroke="none" stroke-width="0"><path d="M-25.99905,171.89887c4.44889,-9.91281 8.50868,-19.88052 10.92295,-31.82448c7.76767,-38.4282 -23.64789,-133.11608 83.17336,-97.88019c23.91064,4.5993 48.86487,26.38658 53.67887,33.86164c5.74917,8.92717 -45.06913,52.37373 -86.27386,50.72457c-8.21353,-0.32875 -7.78368,21.0195 -12.32657,41.89582c-3.3405,15.35104 -11.98061,30.34247 -15.44498,36.80352c-6.13836,11.44808 -16.49801,15.01878 -26.7566,15.16405c-8.23301,0.11659 -20.02241,-7.42737 -29.30312,-14.56112c-1.33938,-1.02953 -2.626,-2.44905 -3.84188,-4.10524c2.50432,1.00891 4.90837,2.11066 8.19441,1.5695c4.14998,-0.76014 5.34632,-2.0283 3.40722,-5.10976c0.46163,-1.05356 0.5951,-2.91611 0.67176,-3.41239c0.17746,-1.14875 6.63854,-1.52077 7.17021,-5.06836c0.42898,-2.86244 -3.68947,-3.4935 -7.48532,-4.23588c5.9819,-3.30966 11.51866,-7.81697 14.21355,-13.82158z" fill="url(#color-28)"/><path d="M54.98821,151.43996l-24.06803,-14.23587l62.28197,-105.29762l24.06803,14.23589z" fill="url(#color-29)"/></g><path d="M312.7374,149.06174c4.6834,25.56888 49.95484,42.36487 25.72502,92.76219c-25.18492,52.38398 -78.77429,71.98662 -120.45003,79.62028c-44.66136,8.18055 -84.29575,15.6323 -139.04646,-35.67481c-37.15731,-34.82026 -6.48712,-69.32968 -10.62884,-91.94122c-12.24473,-66.84956 32.53983,-131.06315 100.02909,-143.42507c67.48927,-12.36189 132.12647,31.80905 144.37118,98.65863zM248.8039,189.38875c22.57724,-4.13545 37.52726,-25.79035 33.39181,-48.36756c-4.13546,-22.57724 -25.79035,-37.52726 -48.36756,-33.39181c-22.57724,4.13545 -37.52726,25.79035 -33.39181,48.36756c4.13545,22.57724 25.79035,37.52726 48.36756,33.39181zM146.0094,207.57035c22.57724,-4.13545 37.52726,-25.79035 33.39181,-48.36755c-4.13545,-22.57724 -25.79036,-37.52725 -48.36756,-33.3918c-22.57724,4.13545 -37.52726,25.79035 -33.39181,48.36755c4.13545,22.57724 25.79036,37.52725 48.36756,33.39181zM215.78729,302.36065c50.46084,-8.26867 74.21516,-45.22472 71.45822,-60.27621c-2.75694,-15.05147 -29.22881,17.00695 -76.14939,25.50779c-60.38378,10.94005 -83.54838,-12.02005 -80.79141,3.03148c2.75694,15.05147 35.8013,39.87791 85.48263,31.73698z" fill="url(#color-30)" stroke="none" stroke-width="0"/><path d="M312.61608,95.04938c10.0754,26.44013 20.50249,44.13146 -0.93961,67.53953c-23.43418,25.58284 15.65665,-119.46536 -139.02978,-90.48074c-157.31767,28.0998 -70.53672,149.39992 -102.00878,131.85245c-25.7375,-14.3501 -23.15907,-35.12067 -20.18537,-61.59538c7.22723,-64.3441 32.5322,-87.50735 114.86382,-102.58791c82.33165,-15.08056 125.60429,-1.66178 147.29974,55.27202z" fill="url(#color-31)" stroke="none" stroke-width="0"/><path d="M159.61023,566.24524c0,0 -1.78426,-106.48723 -9.74068,-146.91485c-5.43045,-27.59279 -33.04649,-63.11067 -33.04649,-63.11067c0,0 76.27428,-25.40197 114.8861,-26.56049c37.85559,-1.13585 114.5609,19.67611 114.5609,19.67611c0,0 -29.1625,32.73258 -32.6842,58.94975c-5.45974,40.64528 2.76947,152.12726 2.76947,152.12726z" fill="#191919" stroke="none" stroke-width="0"/><g stroke="none"><path d="M227.74468,382.45587c1.04491,-0.75421 1.98167,-0.83898 2.74607,-0.64806l-0.13542,-2.99998c0,0 -0.1288,-3.46093 3.33214,-3.58972c3.46093,-0.1288 3.58972,3.33214 3.58972,3.33214l0.08817,3.26951c0.43211,1.32384 0.81141,2.83023 1.09306,4.42704l0.65515,2.00726c0.63986,1.96298 1.13594,3.93078 1.52468,5.9016c6.11832,11.97478 5.2429,28.17548 5.71451,41.0525c-0.02013,0.3637 -0.04131,0.72708 -0.06346,1.09012c4.24218,9.23848 10.28799,18.02911 11.3363,28.14593c1.02794,9.92012 -5.35665,18.52299 -3.79977,28.29536c0.60974,3.82737 10.66849,18.78165 14.41676,15.36395c3.3048,-3.6412 8.32997,-7.69566 9.43708,-12.81366c1.04322,-4.82265 -2.48961,-10.15015 -3.2872,-14.68919c-0.41575,-2.36606 -0.05546,-10.73349 0.1399,-11.95689c1.13374,-7.09962 6.61831,-12.47849 9.89339,-18.53256c0.1379,-0.25491 0.27278,-0.50901 0.40471,-0.76234c-1.34567,-8.06507 -3.84428,-15.90162 -7.91762,-23.16531c-3.87795,-9.26282 -11.21488,-20.49976 -7.70209,-31.15917c5.35053,-16.23597 23.64857,-17.73236 37.21931,-22.8561c0.72925,-0.27535 1.44534,-0.53845 2.15128,-0.78501c0.36892,-0.15276 0.73716,-0.29833 1.10418,-0.43654c0.74303,-0.27979 1.50384,-0.48183 2.2787,-0.61795c4.50863,-1.19908 8.79245,-1.36421 13.73944,0.75861c0,0 1.123,0.51023 1.72411,1.59188c2.4412,0.68693 4.8022,1.29709 6.98321,1.50655c0,0 3.44436,0.36197 3.08238,3.80631c-0.36197,3.44436 -3.80631,3.08238 -3.80631,3.08238c-5.12328,-0.57489 -14.50972,-5.26242 -20.28994,-4.04333c-0.50977,0.1555 -1.02139,0.32736 -1.53642,0.50952c-7.39874,3.30234 -16.92274,9.92145 -17.64837,18.57266c-0.6058,7.2223 2.6558,14.3673 2.96548,21.49624c0.43587,11.71257 -0.1102,21.58047 -4.83143,32.08878c4.89943,26.98858 -2.22377,56.07225 -24.38432,73.19498c-11.60646,7.12156 -18.85421,-8.16598 -24.79032,-16.65212c-13.48075,-19.27175 -5.48852,-46.7473 -3.89004,-68.76978c-0.49824,-1.10577 -0.96265,-2.2138 -1.37928,-3.32564c-2.68003,-10.36874 -1.84374,-20.85245 -2.8913,-31.30279c-1.34845,0.95678 -2.87347,1.76999 -3.5184,3.22648c-1.23195,2.78224 -0.21833,7.71708 -0.34147,10.04886c-0.34146,6.46699 -3.40146,11.61582 -3.06667,18.00387c0.25392,6.82412 3.86377,21.36823 -0.71237,27.25497c-1.29949,1.67164 -2.99777,2.627 -4.91909,3.03406c-4.03507,3.46781 -9.92089,5.12404 -10.56804,11.07947c-0.98325,9.04852 7.81216,10.7702 10.67246,17.68457c3.25407,7.86619 0.65897,16.97043 -6.29057,21.22581c-13.63911,10.58617 -35.35378,7.05603 -38.68958,-12.60632c-1.2061,-7.10916 7.3888,-19.26752 4.12133,-25.47664c-3.30826,-6.28664 -10.26008,-11.24273 -13.92667,-17.94019c-6.51194,-10.6282 -3.26693,-22.85434 -5.40861,-34.66035c-1.70449,-9.39601 -5.64916,-18.20472 -9.35628,-26.7638c-2.22385,-5.13443 -3.93046,-12.79277 -10.23173,-13.49994c-0.99564,0.59586 -2.02336,1.21338 -3.14579,1.82974c0,0 -3.03794,1.66293 -4.70091,-1.37499c-1.66293,-3.03794 1.37496,-4.70092 1.37496,-4.70092c0.32738,-0.1786 0.66023,-0.35605 0.99815,-0.53209c0.72215,-2.04264 3.13366,-2.1324 3.13366,-2.1324c0.44686,0.00169 0.88137,0.01542 1.30399,0.04087c14.11319,-5.98483 33.36238,-8.01005 38.43878,11.41452c2.60428,9.96515 -1.88569,17.09992 6.61698,25.06586c8.65848,4.49412 14.43735,11.18659 16.0605,21.03681c0.8853,5.37266 -0.47786,10.76083 2.77929,15.66794c1.507,2.27039 3.18585,3.20189 5.51959,4.58552c0.53948,0.31982 5.13768,2.18788 8.0539,2.99544c2.15875,-7.80435 -1.56437,-18.62964 -3.47594,-25.97262c-1.1662,-8.39986 -4.92325,-19.58273 -3.13937,-28.0394c1.26084,-5.977 6.06839,-13.13698 9.69743,-17.8697l0.08367,-0.40674c0,0 1.40336,-3.08882 4.48929,-1.76318c0.21867,-0.28914 0.5069,-0.57291 0.88084,-0.8428zM243.26483,481.81662c0.21428,5.75868 -0.16107,11.8401 2.90779,17.02972c3.34083,5.64956 7.75207,10.67994 12.01164,15.62282c2.46723,2.86303 2.8055,5.88298 5.63402,2.87392c1.01871,-0.78577 2.01192,-1.61393 2.98311,-2.4748c-8.04688,-0.14201 -14.30966,-8.7495 -18.23625,-16.1935c-5.96591,-11.31018 3.36074,-22.15983 2.16801,-33.54334c-0.57904,-5.52665 -2.89499,-10.80012 -5.53548,-15.99207c-1.08796,10.83451 -2.34617,21.57059 -1.93287,32.67723zM285.23172,480.57551c0.75325,-6.71335 1.0824,-13.5715 0.74635,-20.37758c-2.1395,3.04044 -4.13013,6.20447 -4.63166,9.68986c-0.92073,6.39865 1.77977,12.41065 2.95526,18.44933c0.4193,-2.73422 0.66798,-5.42564 0.93005,-7.76164zM275.85352,396.98716c-2.92305,8.63413 4.22023,18.81239 7.30126,26.19357c2.40933,4.4933 4.42994,9.23169 6.04174,14.12161c1.3019,-6.1519 1.32342,-12.34505 1.05956,-19.43508c-0.21765,-7.40126 -3.6316,-14.69891 -2.95226,-22.25307c0.39152,-4.35356 2.30298,-8.4567 5.09165,-12.07402c-7.33853,2.45866 -14.0375,6.04931 -16.54195,13.44707zM229.43821,390.69102l-1.27503,-1.75163l-0.38992,0.76265c-3.01151,3.86844 -7.34762,10.05608 -8.38401,14.97595c-1.3633,6.4719 1.26676,15.31121 2.63214,22.35913c0.84254,-3.68803 2.02328,-7.21297 2.21636,-11.34443c0.23814,-5.09615 -1.20397,-7.77598 0.96354,-12.52066c1.1701,-2.56139 4.3822,-3.66332 5.93347,-6.0135c0.59936,-0.90807 0.91438,-2.10339 1.03271,-3.43262c-0.81157,-1.08052 -1.71757,-2.09578 -2.72929,-3.03485zM159.30367,394.06709c3.89468,9.02475 8.05651,18.39305 9.85111,28.28763c1.92892,10.63522 -1.3335,23.15675 4.59868,32.53012c3.59813,6.57388 11.44326,12.06857 14.24177,18.54657c3.96338,9.17442 -5.116,18.4483 -3.56439,27.35828c2.5696,14.75549 18.4442,15.45199 27.97719,7.85948c12.263,-6.15292 -1.86485,-16.55763 -5.06488,-22.39774c-1.14642,-2.0922 -2.58892,-9.58805 -2.33299,-11.60416c0.42163,-3.32174 3.10303,-8.03638 5.63597,-10.35931c0.54605,-0.50078 1.20992,-0.92016 1.92455,-1.30887c-5.43524,-2.20597 -10.56548,-6.18616 -12.70254,-9.37323c-5.42364,-8.08835 -1.75732,-18.01312 -6.45337,-26.23679c-2.37154,-4.15305 -6.56642,-6.51328 -10.61607,-8.64724c-3.83804,-3.54123 -7.20086,-7.21533 -8.72005,-12.43453c-1.51435,-5.20254 0.60203,-11.36394 -0.61771,-16.59964c-2.36284,-10.14246 -14.76404,-12.21874 -22.87413,-9.92975c4.09324,3.2607 6.26373,8.62471 8.71692,14.30924z" fill="#303030" stroke-width="0.5"/><path d="M220.56721,572.33151l-7.55023,-202.89602l36.25296,-1.34906l7.55023,202.89602z" fill="url(#color-32)" stroke-width="0"/><path d="M123.13819,389.35482l-0.61593,-16.55179l217.24241,-8.08409l0.61593,16.55179z" fill="url(#color-33)" stroke-width="0"/><path d="M155.00999,395.67582l-1.17387,-31.54502l154.05674,-5.73284l1.17387,31.54502z" fill="url(#color-34)" stroke-width="0"/></g><g data-paper-data="{&quot;index&quot;:null}" stroke="none" stroke-width="0"><path d="M-130.46681,499.23773c-10.26393,3.96575 -13.35584,-13.39943 -10.1525,-25.83949c3.20335,-12.44005 6.71901,-27.7081 14.91582,-25.2c8.56471,2.62071 5.30591,12.1196 2.10259,24.55967c-3.20335,12.44005 1.21877,20.12308 -6.8659,26.47981z" fill="url(#color-35)"/><path d="M-156.57439,495.19515c-10.94629,-1.12019 -5.8268,-17.99922 2.66976,-27.63375c8.49655,-9.63454 18.55407,-21.64795 24.72202,-15.69529c6.44484,6.21981 -0.76733,13.20791 -9.2639,22.84242c-8.49655,9.63454 -8.03961,18.48755 -18.1279,20.48663z" fill="url(#color-36)"/><path d="M-179.39112,476.21243c-8.4587,-7.03746 5.20792,-18.18792 17.63473,-21.44218c12.42682,-3.25427 27.47635,-7.61165 29.27335,0.76981c1.87773,8.75765 -8.00658,10.53241 -20.43341,13.78667c-12.42682,3.25427 -16.9875,10.85586 -26.47468,6.88569z" fill="url(#color-37)"/><path d="M-145.86801,460.1044c-3.81855,-13.34166 9.46886,-14.28133 24.71704,-18.27443c15.24815,-3.99307 27.92334,-7.89484 30.50143,3.8142c2.69383,12.23464 -9.46886,14.28133 -24.71704,18.27443c-15.24815,3.99307 -26.98119,8.48531 -30.50143,-3.8142z" fill="url(#color-38)"/><path d="M-114.48473,470.68023c-8.04497,-10.01471 -14.92853,-17.32673 -8.20471,-23.24392c6.43496,-5.66296 15.9299,6.7998 23.97489,16.81452c8.04497,10.01471 12.38357,27.11111 1.39742,27.7272c-9.98577,-2.46046 -9.12259,-11.28314 -17.16759,-21.29783z" data-paper-data="{&quot;index&quot;:null}" fill="url(#color-39)"/></g><g stroke="none" stroke-width="0"><path d="M14.49636,447.11537c-14.6773,3.85107 -29.63388,-4.68287 -33.40646,-19.06108c-3.77263,-14.37823 5.06739,-29.15594 19.74469,-33.00703c14.6773,-3.85107 29.63386,4.68285 33.40646,19.06108c3.77263,14.37823 -5.06739,29.15594 -19.74469,33.00706z" fill="url(#color-40)"/><path d="M-102.28608,426.38484l102.13539,-33.21959l14.84409,56.57401l-105.26081,20.66264z" fill="url(#color-41)"/></g><g data-paper-data="{&quot;index&quot;:null}" stroke="none" stroke-width="0"><path d="M436.40726,451.16722c-14.08503,-5.64494 -21.02037,-21.40654 -15.49048,-35.20457c5.52989,-13.79805 21.4309,-20.40748 35.51597,-14.76256c14.08504,5.64491 21.02038,21.40651 15.49048,35.20456c-5.52984,13.79804 -21.4309,20.40748 -35.51597,14.76256z" fill="url(#color-42)"/><path d="M537.76348,487.32759l-101.87773,-33.5813l21.75846,-54.2912l97.21634,45.65262z" fill="url(#color-43)"/></g><g stroke="none" stroke-width="0"><path d="M127.84285,416.20785c-14.62826,4.03334 -29.68984,-4.31389 -33.64101,-18.64409c-3.95118,-14.33019 4.70432,-29.21674 19.3326,-33.25009c14.62826,-4.03334 29.68984,4.31389 33.64101,18.64409c3.95118,14.33019 -4.70432,29.21674 -19.33259,33.25005z" fill="url(#color-44)"/><path d="M9.23658,390.92333l103.28932,-28.47922l15.54661,56.38498l-103.28932,28.47922z" fill="url(#color-45)"/></g><g data-paper-data="{&quot;index&quot;:null}" stroke="none" stroke-width="0"><path d="M327.77943,406.41568c-14.01374,-5.81966 -20.75248,-21.6663 -15.0514,-35.3945c5.70106,-13.7282 21.68309,-20.13934 35.69684,-14.31966c14.01377,5.81968 20.7525,21.66632 15.05141,35.39453c-5.70106,13.7282 -21.68309,20.13934 -35.69684,14.31966z" fill="url(#color-46)"/><path d="M426.1762,450.08049l-98.95034,-41.09236l22.43207,-54.01637l98.95034,41.09236z" fill="url(#color-47)"/></g><g><g><path d="M159.22167,565.76887c0,0 -1.28628,-107.02372 -9.24273,-147.45131c-5.43045,-27.59279 -33.00551,-62.00941 -33.00551,-62.00941c0,0 76.2333,-26.50321 114.84512,-27.66174c37.85559,-1.13585 114.60185,20.77735 114.60185,20.77735c0,0 -29.20351,31.63135 -32.72517,57.84851c-5.45974,40.64528 3.30597,152.62525 3.30597,152.62525l66.78704,74.91222c0,0 9.97535,32.42074 -141.0137,38.9883c-145.14011,3.59203 -148.66352,-27.28114 -148.66352,-27.28114z" fill="url(#color-48)" stroke="none" stroke-width="0"/><path d="" fill="#ffdf00" stroke="#ffdf00" stroke-width="2"/></g><g><path d="M158.20921,547.45851l-1.63251,-47.74299l156.50182,-5.83113l2.86503,48.40212z" fill="url(#color-49)" stroke="none" stroke-width="0"/><path d="" fill="#ffdf00" stroke="#ffdf00" stroke-width="2"/></g></g></g></g></svg>