<svg version="1.1" xmlns="http://www.w3.org/2000/svg" xmlns:xlink="http://www.w3.org/1999/xlink" width="866.94018" height="517.88349" viewBox="0,0,866.94018,517.88349"><defs><linearGradient x1="-11.89344" y1="365.4014" x2="-46.28335" y2="371.85169" gradientUnits="userSpaceOnUse" id="color-1"><stop offset="0" stop-color="#5c5c5c"/><stop offset="1" stop-color="#9b9b9b"/></linearGradient><linearGradient x1="-93.62897" y1="432.16682" x2="-109.93839" y2="409.29922" gradientUnits="userSpaceOnUse" id="color-2"><stop offset="0" stop-color="#5c5c5c"/><stop offset="1" stop-color="#9b9b9b"/></linearGradient><linearGradient x1="50.17033" y1="357.44941" x2="39.76715" y2="331.35924" gradientUnits="userSpaceOnUse" id="color-3"><stop offset="0" stop-color="#5c5c5c"/><stop offset="1" stop-color="#9b9b9b"/></linearGradient><linearGradient x1="498.60137" y1="366.44034" x2="532.99126" y2="372.89062" gradientUnits="userSpaceOnUse" id="color-4"><stop offset="0" stop-color="#5c5c5c"/><stop offset="1" stop-color="#9b9b9b"/></linearGradient><linearGradient x1="580.33689" y1="433.20576" x2="596.6463" y2="410.33815" gradientUnits="userSpaceOnUse" id="color-5"><stop offset="0" stop-color="#5c5c5c"/><stop offset="1" stop-color="#9b9b9b"/></linearGradient><linearGradient x1="436.53759" y1="358.48834" x2="446.94077" y2="332.39817" gradientUnits="userSpaceOnUse" id="color-6"><stop offset="0" stop-color="#5c5c5c"/><stop offset="1" stop-color="#9b9b9b"/></linearGradient><linearGradient x1="242.99254" y1="304.40039" x2="242.99254" y2="321.11457" gradientUnits="userSpaceOnUse" id="color-7"><stop offset="0" stop-color="#5c5c5c"/><stop offset="1" stop-color="#9b9b9b"/></linearGradient><linearGradient x1="269.81599" y1="350.30084" x2="283.31115" y2="358.31693" gradientUnits="userSpaceOnUse" id="color-8"><stop offset="0" stop-color="#5c5c5c"/><stop offset="1" stop-color="#9b9b9b"/></linearGradient><linearGradient x1="217.25044" y1="351.59497" x2="203.75521" y2="359.61106" gradientUnits="userSpaceOnUse" id="color-9"><stop offset="0" stop-color="#5c5c5c"/><stop offset="1" stop-color="#9b9b9b"/></linearGradient><linearGradient x1="233.18633" y1="479.50799" x2="253.08415" y2="479.50799" gradientUnits="userSpaceOnUse" id="color-10"><stop offset="0" stop-color="#5c5c5c"/><stop offset="1" stop-color="#9b9b9b"/></linearGradient><linearGradient x1="343.12553" y1="313.05312" x2="378.11515" y2="313.05312" gradientUnits="userSpaceOnUse" id="color-11"><stop offset="0" stop-color="#5c5c5c"/><stop offset="1" stop-color="#9b9b9b"/></linearGradient><linearGradient x1="111.11933" y1="313.05312" x2="146.10891" y2="313.05312" gradientUnits="userSpaceOnUse" id="color-12"><stop offset="0" stop-color="#5c5c5c"/><stop offset="1" stop-color="#9b9b9b"/></linearGradient><linearGradient x1="147.82786" y1="219.94436" x2="326.26629" y2="204.79399" gradientUnits="userSpaceOnUse" id="color-13"><stop offset="0" stop-color="#6c6c6c"/><stop offset="1" stop-color="#c4c4c4"/></linearGradient><linearGradient x1="207.12178" y1="207.16224" x2="277.30757" y2="201.20308" gradientUnits="userSpaceOnUse" id="color-14"><stop offset="0" stop-color="#6e6e6e"/><stop offset="1" stop-color="#c0c0c0"/></linearGradient><linearGradient x1="233.85369" y1="116.83382" x2="240.36834" y2="193.56239" gradientUnits="userSpaceOnUse" id="color-15"><stop offset="0" stop-color="#a6a6a6"/><stop offset="1" stop-color="#707070"/></linearGradient><linearGradient x1="183.5494" y1="109.70466" x2="213.91518" y2="192.75386" gradientUnits="userSpaceOnUse" id="color-16"><stop offset="0" stop-color="#a6a6a6"/><stop offset="1" stop-color="#707070"/></linearGradient><linearGradient x1="281.74608" y1="102.61357" x2="265.9615" y2="191.29752" gradientUnits="userSpaceOnUse" id="color-17"><stop offset="0" stop-color="#a6a6a6"/><stop offset="1" stop-color="#707070"/></linearGradient><linearGradient x1="239.15068" y1="175.69318" x2="241.01925" y2="197.70069" gradientUnits="userSpaceOnUse" id="color-18"><stop offset="0" stop-color="#a6a6a6"/><stop offset="1" stop-color="#707070"/></linearGradient><linearGradient x1="239.62768" y1="195.4224" x2="241.44832" y2="216.86577" gradientUnits="userSpaceOnUse" id="color-19"><stop offset="0" stop-color="#707070"/><stop offset="1" stop-color="#a6a6a6"/></linearGradient><linearGradient x1="233.13188" y1="104.80478" x2="236.51543" y2="144.65595" gradientUnits="userSpaceOnUse" id="color-20"><stop offset="0" stop-color="#a6a6a6"/><stop offset="1" stop-color="#707070"/></linearGradient></defs><g transform="translate(190.11614,-63.252)"><g data-paper-data="{&quot;isPaintingLayer&quot;:true}" fill-rule="nonzero" stroke-linejoin="miter" stroke-miterlimit="10" stroke-dasharray="" stroke-dashoffset="0" style="mix-blend-mode: normal"><g data-paper-data="{&quot;index&quot;:null}" stroke-linecap="butt"><path d="M-32.31356,351.4316c9.49654,-1.78121 18.63892,4.47328 20.42013,13.9698c1.78118,9.49651 -4.47334,18.63894 -13.96984,20.42012c-9.49651,1.78121 -18.6389,-4.47328 -20.4201,-13.96984c-1.78121,-9.49653 4.47331,-18.63889 13.9698,-20.42007z" data-paper-data="{&quot;index&quot;:null}" fill="url(#color-1)" stroke="none" stroke-width="0"/><g data-paper-data="{&quot;index&quot;:null}"><path d="M-188.79547,430.50062c0,0 38.68315,-36.45188 60.0292,-50.94755c20.77258,-14.10628 68.81992,-31.45985 68.81992,-31.45985l42.81238,60.02747c0,0 -31.78738,36.86062 -52.21138,50.73014c-21.6399,14.69521 -72.96819,36.82259 -72.96819,36.82259z" fill="#696969" stroke="#000000" stroke-width="2"/><path d="M-172.6653,451.89565l125.4536,-85.19301l16.30951,22.86766l-125.45351,85.19297z" fill="url(#color-2)" stroke="none" stroke-width="0"/><path d="M-154.07466,481.86486c-3.04601,-1.87985 -0.87198,-4.90944 -0.87198,-4.90944l3.13536,-4.2683c1.75558,-6.95262 0.98171,-13.6765 1.89682,-20.68402c0.60805,-4.65625 2.69287,-8.98069 3.5613,-13.55565c0.95003,-5.00451 0.2308,-10.02067 3.14694,-14.76544c7.34546,-11.95156 24.84418,-18.18138 37.17073,-13.92708c7.01131,2.05168 14.43674,2.79209 21.32374,5.04664c1.15992,0.37972 6.14293,2.57675 8.29538,2.09807c3.45321,-0.7679 8.1236,-7.56191 9.54837,-9.64029c7.99448,-11.6616 8.42904,-26.46785 15.98407,-38.51006c0,0 1.99957,-3.13036 5.16289,-1.42374c3.16337,1.70674 1.16387,4.83712 1.16387,4.83712c-7.83,11.97442 -7.9131,26.82994 -16.0694,38.64076c-2.99159,4.33213 -8.4783,11.6517 -14.37741,12.99766c-5.9658,1.36129 -10.80983,-2.17447 -16.14657,-3.36321c-5.95229,-1.32589 -11.83385,-2.19684 -17.69154,-3.91354c-8.93921,-3.26099 -22.57022,1.51761 -27.93231,10.40187c-2.29459,3.80174 -1.44177,8.29708 -2.20754,12.30231c-0.85478,4.47051 -2.92891,8.72337 -3.51374,13.26015c-1.0125,7.85464 -0.33238,15.00432 -2.53755,22.80018l-3.82137,5.4262c0,0 -2.1741,3.02955 -5.22013,1.14983z" fill="#000000" stroke="none" stroke-width="0.5"/><path d="M-188.79547,430.50062c0,0 38.68315,-36.45188 60.0292,-50.94755c20.77258,-14.10628 68.81992,-31.45985 68.81992,-31.45985l42.81238,60.02747c0,0 -31.78738,36.86062 -52.21138,50.73014c-21.6399,14.69521 -72.96819,36.82259 -72.96819,36.82259z" fill="#0096ff" stroke="#000000" stroke-width="2"/></g><g data-paper-data="{&quot;index&quot;:null}"><path d="M-41.86966,333.19885c0,0 46.24225,-26.20651 70.4232,-35.20984c23.53133,-8.76148 74.32717,-14.19068 74.32717,-14.19068l27.30849,68.48681c0,0 -39.64152,28.24346 -62.77796,36.85787c-24.51383,9.12724 -79.63176,18.413 -79.63176,18.413z" fill="#696969" stroke="#000000" stroke-width="2"/><path d="M-31.29033,357.81597l142.11472,-52.91372l10.40324,26.09026l-142.11464,52.9137z" fill="url(#color-3)" stroke="none" stroke-width="0"/><path d="M-20.36032,391.34656c-2.51158,-2.55031 0.32058,-4.97596 0.32058,-4.97596l4.06048,-3.40019c3.35866,-6.33566 4.20605,-13.05061 6.76144,-19.63946c1.69794,-4.37805 4.7514,-8.08262 6.68289,-12.3198c2.11293,-4.635 2.60726,-9.67827 6.56813,-13.59341c9.97701,-9.86179 28.45525,-11.75136 39.41639,-4.68763c6.32222,3.66022 13.35855,6.14529 19.5118,9.97302c1.03634,0.64467 5.35387,3.96371 7.55843,4.01066c3.53678,0.07538 9.68887,-5.41302 11.56705,-7.09291c10.53844,-9.42577 14.48173,-23.70393 24.68388,-33.60389c0,0 2.68669,-2.56501 5.35335,-0.15505c2.66673,2.41005 -0.0199,4.97513 -0.0199,4.97513c-10.4531,9.76877 -14.06671,24.17831 -24.79784,33.71058c-3.93601,3.49635 -11.00603,9.30113 -17.05598,9.20556c-6.11837,-0.09654 -9.98256,-4.68286 -14.8835,-7.10667c-5.46617,-2.70344 -10.97188,-4.94811 -16.25322,-8.00862c-7.90723,-5.29336 -22.28358,-3.89354 -29.60465,3.46063c-3.13285,3.14697 -3.37359,7.71615 -5.0699,11.42436c-1.89342,4.13896 -4.91947,7.77657 -6.56644,12.04411c-2.85141,7.38852 -3.89114,14.49478 -7.88702,21.54253l-5.00217,4.36174c0,0 -2.83218,2.42559 -5.34382,-0.12462z" fill="#000000" stroke="none" stroke-width="0.5"/><path d="M-41.86966,333.19885c0,0 46.24225,-26.20651 70.4232,-35.20984c23.53133,-8.76148 74.32717,-14.19068 74.32717,-14.19068l27.30849,68.48681c0,0 -39.64152,28.24346 -62.77796,36.85787c-24.51383,9.12724 -79.63176,18.413 -79.63176,18.413z" fill="#0096ff" stroke="#000000" stroke-width="2"/></g></g><g data-paper-data="{&quot;index&quot;:null}" stroke-linecap="butt"><path d="M519.02148,352.47053c9.49648,1.78118 15.751,10.92354 13.9698,20.42007c-1.7812,9.49656 -10.92358,15.75105 -20.42009,13.96984c-9.49648,-1.78118 -15.75101,-10.92362 -13.96984,-20.42012c1.78121,-9.49652 10.92359,-15.751 20.42013,-13.9698z" data-paper-data="{&quot;index&quot;:null}" fill="url(#color-4)" stroke="none" stroke-width="0"/><g data-paper-data="{&quot;index&quot;:null}"><path d="M629.02143,496.71232c0,0 -51.32829,-22.12738 -72.96819,-36.82259c-20.42401,-13.86951 -52.21138,-50.73014 -52.21138,-50.73014l42.81238,-60.02747c0,0 48.04733,17.35358 68.81992,31.45984c21.34605,14.49566 60.02921,50.94755 60.02921,50.94755z" fill="#696969" stroke="#000000" stroke-width="2"/><path d="M643.06366,475.80219l-125.45351,-85.19297l16.30951,-22.86766l125.4536,85.19301z" fill="url(#color-5)" stroke="none" stroke-width="0"/><path d="M640.78267,482.9038c-3.04604,1.87972 -5.22012,-1.14983 -5.22012,-1.14983l-3.82137,-5.4262c-2.20517,-7.79584 -1.52506,-14.94553 -2.53755,-22.80019c-0.58483,-4.53679 -2.65894,-8.78966 -3.51374,-13.26015c-0.76577,-4.00521 0.08704,-8.50056 -2.20755,-12.30231c-5.36209,-8.88424 -18.99309,-13.66286 -27.93231,-10.40187c-5.85769,1.71671 -11.73924,2.58765 -17.69154,3.91355c-5.33675,1.18875 -10.18077,4.7245 -16.14657,3.36321c-5.89911,-1.34594 -11.38583,-8.66553 -14.37741,-12.99766c-8.1563,-11.81083 -8.23939,-26.66635 -16.06941,-38.64076c0,0 -1.99952,-3.13038 1.16386,-4.83712c3.16332,-1.70664 5.16289,1.42374 5.16289,1.42374c7.55502,12.0422 7.98956,26.84846 15.98407,38.51006c1.42478,2.07839 6.09515,8.8724 9.54837,9.64029c2.15246,0.4787 7.13545,-1.71836 8.29538,-2.09807c6.88701,-2.25455 14.31242,-2.99497 21.32374,-5.04664c12.32654,-4.2543 29.82527,1.97554 37.17073,13.92708c2.91614,4.74478 2.19692,9.76093 3.14694,14.76545c0.86844,4.57496 2.95325,8.89938 3.5613,13.55565c0.91509,7.00749 0.14124,13.73138 1.89682,20.68401l3.13536,4.2683c0,0 2.17403,3.0296 -0.87198,4.90944z" fill="#000000" stroke="none" stroke-width="0.5"/><path d="M629.02143,496.71232c0,0 -51.32829,-22.12738 -72.96819,-36.82259c-20.42401,-13.86951 -52.21138,-50.73014 -52.21138,-50.73014l42.81238,-60.02747c0,0 48.04733,17.35358 68.81992,31.45984c21.34605,14.49566 60.02921,50.94755 60.02921,50.94755z" fill="#0096ff" stroke="#000000" stroke-width="2"/></g><g data-paper-data="{&quot;index&quot;:null}"><path d="M498.92847,408.59494c0,0 -55.11794,-9.28575 -79.63177,-18.41298c-23.13644,-8.61442 -62.77796,-36.85787 -62.77796,-36.85787l27.30849,-68.48681c0,0 50.79584,5.42919 74.32717,14.19068c24.18095,9.00333 70.4232,35.20984 70.4232,35.20984z" fill="#696969" stroke="#000000" stroke-width="2"/><path d="M507.59493,384.94513l-142.11464,-52.9137l10.40324,-26.09026l142.11471,52.91372z" fill="url(#color-6)" stroke="none" stroke-width="0"/><path d="M507.06828,392.38558c-2.51161,2.5502 -5.34382,0.12462 -5.34382,0.12462l-5.00218,-4.36175c-3.99588,-7.04777 -5.0356,-14.15405 -7.88701,-21.54254c-1.64696,-4.26756 -4.67302,-7.90515 -6.56644,-12.04411c-1.69633,-3.7082 -1.93706,-8.27738 -5.0699,-11.42437c-7.32106,-7.35417 -21.69744,-8.75399 -29.60467,-3.46063c-5.28136,3.06051 -10.78705,5.3052 -16.25322,8.00862c-4.90094,2.42381 -8.76516,7.01013 -14.8835,7.10667c-6.04997,0.09557 -13.11997,-5.7092 -17.05598,-9.20556c-10.73114,-9.53225 -14.34474,-23.94178 -24.79784,-33.71056c0,0 -2.68662,-2.56507 -0.01989,-4.97513c2.66668,-2.40995 5.35335,0.15505 5.35335,0.15505c10.20214,9.89997 14.14541,24.17811 24.68388,33.60389c1.87819,1.6799 8.0303,7.16829 11.56706,7.09291c2.20456,-0.04694 6.52208,-3.366 7.55843,-4.01066c6.15325,-3.82773 13.18956,-6.31277 19.51179,-9.97301c10.96117,-7.06373 29.43939,-5.17416 39.4164,4.68763c3.96089,3.91513 4.45523,8.95841 6.56813,13.59341c1.93149,4.23717 4.98495,7.94174 6.68289,12.31979c2.55537,6.58884 3.40278,13.3038 6.76144,19.63947l4.06048,3.40019c0,0 2.83217,2.42565 0.32058,4.97596z" fill="#000000" stroke="none" stroke-width="0.5"/><path d="M498.92847,408.59494c0,0 -55.11794,-9.28575 -79.63177,-18.41298c-23.13644,-8.61442 -62.77796,-36.85787 -62.77796,-36.85787l27.30849,-68.48681c0,0 50.79584,5.42919 74.32717,14.19068c24.18095,9.00333 70.4232,35.20984 70.4232,35.20984z" fill="#0096ff" stroke="#000000" stroke-width="2"/></g></g><path d="M245.70712,254.48333c56.70366,1.22778 179.94679,84.38413 179.94679,188.47725c0,33.93831 -8.56398,65.78151 -23.55221,93.2881c-30.98239,56.85975 -280.33314,57.81941 -311.6052,2.14013c-15.72026,-27.98961 -24.73621,-60.60612 -24.73621,-95.42823c0,-104.09312 112.98635,-189.92712 179.94683,-188.47724z" fill="#696969" stroke="#000000" stroke-width="2" stroke-linecap="butt"/><path d="M124.89013,321.11457v-16.7142h236.20487v16.7142z" fill="url(#color-7)" stroke="none" stroke-width="0" stroke-linecap="butt"/><path d="M234.12798,390.0026l71.37601,-79.40377l13.4952,8.01614l-71.37601,79.40377z" fill="url(#color-8)" stroke="none" stroke-width="0" stroke-linecap="butt"/><path d="M239.44322,399.3128l-71.37601,-79.40377l13.4952,-8.01614l71.37605,79.4038z" data-paper-data="{&quot;index&quot;:null}" fill="url(#color-9)" stroke="none" stroke-width="0" stroke-linecap="butt"/><path d="M233.18633,577.72773v-196.43924h19.89783v196.43924z" fill="url(#color-10)" stroke="none" stroke-width="0" stroke-linecap="butt"/><path d="M269.85172,384.51975c0.82063,-2.92803 4.9711,-2.34914 4.9711,-2.34914l3.24129,0.52462c1.58208,0.49988 3.16403,0.99973 4.74613,1.49963c8.17385,4.64473 16.07306,10.7892 23.33843,16.72892c2.97463,-1.04153 5.60263,-2.60354 7.67061,-4.87423c4.8352,-5.30942 -0.39752,-11.15417 -1.53092,-16.49425c-1.38078,-6.50562 1.15955,-13.21251 0.00072,-19.74616c-1.68827,-9.5188 -11.93845,-19.35537 -20.49087,-26.48529c-8.16386,-6.91897 -23.47587,-8.0323 -29.95371,-15.5253c-5.46082,-6.31658 -2.13037,-14.11249 -5.65995,-20.64697c-0.55621,2.81275 -1.86224,5.50412 -4.18051,7.99984c-5.71985,6.15778 -17.783,12.1912 -26.49784,15.93944c-5.65898,2.43389 -16.13354,4.40555 -20.54676,8.04556c-3.39498,2.80007 -4.08599,6.78257 -6.21618,10.14677c-8.36892,13.2169 -22.01161,28.3064 -1.11401,38.77619c4.69636,2.35291 8.74079,3.80806 14.53777,3.72526h1.88814c0,0 4.2309,0 4.2309,2.98466c0,2.98466 -4.2309,2.98467 -4.2309,2.98467h-1.88814c-15.22282,-0.15586 -36.80316,-11.06394 -35.36275,-23.36561c1.08376,-9.25586 8.92655,-19.19087 14.21299,-27.53979c0.61176,-0.96619 7.02935,-11.19703 7.58826,-11.65446c5.17998,-4.23939 15.8818,-6.36554 22.50144,-9.2025c7.74889,-3.32093 18.77012,-8.76147 23.91495,-14.21245c4.93644,-5.23032 3.54117,-12.4103 0.34254,-19.59677c-5.60515,-6.26977 -12.43202,-12.00295 -20.57578,-16.12971c0,0 -3.42555,-1.75177 -0.94233,-4.16825c2.48311,-2.41653 5.90866,-0.66481 5.90866,-0.66481c2.14124,1.10388 4.21219,2.30599 6.20955,3.59123c-0.33907,-0.66354 -0.65007,-1.30483 -0.92616,-1.92083c0,0 -1.27532,-2.8459 2.75876,-3.74555c4.03409,-0.89968 5.30938,1.94619 5.30938,1.94619c2.35795,5.26165 6.18904,11.32951 9.15258,17.54166c4.6319,5.05858 8.4867,10.45783 11.47575,15.76464c3.64544,6.47231 0.45994,14.26305 5.43225,20.41003c2.96337,3.66343 11.16044,4.54916 15.87864,6.46541c5.08671,2.06592 9.4149,5.05234 13.22212,8.20379c9.64986,8.10278 20.47078,18.82714 22.41216,29.56171c1.18263,6.53942 -1.40578,13.27471 0.00065,19.7538c1.55549,7.16577 6.75008,13.25192 0.35726,20.37241c-2.5714,2.86415 -5.73682,4.92529 -9.29173,6.37495c0.13513,0.11176 0.26996,0.22326 0.40442,0.33452c5.2037,4.30288 8.47793,8.86437 15.50384,11.89681c21.87861,9.44295 25.39332,-15.33005 22.52611,-24.60519c-12.41957,-24.15135 -28.49249,-49.54604 -9.08825,-74.67144c2.77666,-3.59535 6.68367,-6.39802 10.77757,-9.11221c0.23792,1.48927 2.02938,2.64668 4.20405,2.64668c0.25136,0 0.49762,-0.01546 0.73689,-0.04509c0.345,0.48004 0.86835,0.88537 1.5087,1.17266c-3.77426,2.45609 -7.37064,5.01111 -9.7997,8.1976c-18.03643,23.66091 -1.74616,47.54756 9.79263,70.16174c1.83206,5.99148 3.58744,13.15175 0.90584,19.18444c-5.11663,11.51047 -20.26946,18.74653 -35.96673,12.16857c-7.9582,-3.33489 -11.74576,-8.31536 -17.53797,-13.1198c-0.76402,-0.63378 -1.53877,-1.27908 -2.3234,-1.93262c-9.50612,1.5554 -20.35543,0.47066 -29.83414,-0.71196c-1.79178,-0.33972 -3.5835,-0.67951 -5.3753,-1.01925l0.15733,0.10291c0,0 -4.23086,0 -4.23086,-2.98472c0,-2.98466 4.23086,-2.98466 4.23086,-2.98466l2.04533,0.10288c1.66967,0.31856 3.33946,0.63717 5.00915,0.95575c6.55815,0.80979 14.47005,1.85204 21.72316,1.35418c-5.92104,-4.8153 -12.24562,-9.63997 -18.70475,-13.33689c-1.25017,-0.37788 -2.50024,-0.75578 -3.75027,-1.13366l-1.47887,-0.13376c0,0 -4.15051,-0.57891 -3.32999,-3.50686z" fill="#000000" stroke="none" stroke-width="0.5" stroke-linecap="butt"/><path d="M230.53974,397.77061c2.33596,2.67571 -2.39044,3.99816 -2.39044,3.99816l-3.33525,0.76356c-8.46686,4.66017 -13.45834,10.9694 -19.60923,16.7064c-22.4678,20.7328 -73.20307,18.22863 -92.32798,-3.33037c-10.74205,-12.10924 -0.21105,-30.851 12.01326,-41.12136c18.22851,-17.44663 20.06395,-32.30208 11.13023,-51.61533c-2.27253,-4.91289 -7.1312,-12.47042 -15.38045,-16.10661c1.37688,-0.5702 1.98138,-1.4257 1.98138,-1.4257c0.85329,-1.25314 1.9291,-2.48153 3.26774,-3.59878c8.03636,3.30382 13.35732,8.84504 17.17615,14.3094c15.10964,21.62026 11.35867,41.80395 -9.25935,61.62425c-10.54874,8.84674 -17.56159,21.98538 -13.46296,32.89651c1.14295,3.04271 5.50946,5.455 9.18232,7.4956c6.51444,3.61922 13.35612,8.25021 22.83293,9.42673c18.72219,2.32439 34.65297,-2.98273 43.83288,-11.6515c6.68716,-6.23692 12.11779,-12.69541 21.21032,-17.85438l6.07603,-1.86969c0,0 4.7264,-1.32246 7.0624,1.35326z" fill="#000000" stroke="none" stroke-width="0.5" stroke-linecap="butt"/><path d="M247.45894,385.9153c2.98467,0 2.98467,4.10463 2.98467,4.10463l-0.15646,3.12232c-2.18028,8.86288 -2.97797,18.54889 -5.78125,27.12313c-1.53963,4.70909 -6.13839,11.14753 -5.72287,17.0286c0.42754,6.05208 4.83831,11.46037 7.56502,15.61986c6.15138,9.38368 13.60783,16.65889 19.94304,25.88614c1.25728,4.37689 3.11013,8.76781 2.42377,13.77012c-2.47326,18.02626 -21.80176,28.24713 -31.87972,37.00638c-2.93602,2.55185 -7.0957,3.18911 -9.02551,7.16052c-0.57269,1.17851 0.33814,2.80101 0.60476,4.17025c1.39566,7.16805 2.98294,12.7303 6.00547,18.88339c2.97402,6.05434 5.59406,9.76555 10.01956,13.75992c0,0 2.49221,2.25859 0.84986,5.68598c-1.64237,3.42738 -4.13454,1.16873 -4.13454,1.16873c-5.05099,-4.59426 -8.28899,-9.10111 -11.68271,-16.02214c-3.03901,-6.19757 -10.22898,-23.10308 -6.98465,-31.36336c0.51609,-1.31396 9.73396,-9.14443 11.15872,-10.38272c9.62982,-8.36972 33.00831,-19.89065 27.61395,-39.41877c-8.7344,-12.23302 -27.20215,-26.3686 -28.43456,-45.40901c-0.51474,-7.95249 4.10348,-14.42984 6.26482,-20.99676c2.71657,-8.25404 3.44768,-17.7328 5.54049,-26.29337l-0.15647,-0.49921c0,0 0,-4.10461 2.98467,-4.10461z" fill="#000000" stroke="none" stroke-width="0.5" stroke-linecap="butt"/><g><path d="M197.19158,425.88446v-81.18316h84.56578v81.18316z" fill="#323232" stroke="none" stroke-width="0" stroke-linecap="butt"/><g stroke="#000000"><path d="M239.15739,350.43535c18.06634,0 32.71204,14.6457 32.71204,32.71207c0,18.06634 -14.64572,32.71204 -32.71204,32.71204c-18.06634,0 -32.71204,-14.64572 -32.71204,-32.71204c0,-18.06634 14.64572,-32.71207 32.71204,-32.71207z" fill="#878787" stroke-width="1" stroke-linecap="butt"/><path d="M264.63029,362.96669l-50.48366,0.34113" fill="none" stroke-width="1.5" stroke-linecap="round"/><path d="M269.06467,372.17657l-59.01128,-0.3411" fill="none" stroke-width="1.5" stroke-linecap="round"/><path d="M206.98338,378.99848l63.10458,1.36445" fill="none" stroke-width="1.5" stroke-linecap="round"/><path d="M271.25341,387.01439l-64.12787,-0.6822" fill="none" stroke-width="1.5" stroke-linecap="round"/><path d="M254.47585,355.46502l-29.38759,-0.36736" fill="none" stroke-width="1.5" stroke-linecap="round"/><path d="M213.7487,403.19358l50.48361,0.34112" data-paper-data="{&quot;index&quot;:null}" fill="none" stroke-width="1.5" stroke-linecap="round"/><path d="M268.66668,394.32484l-59.01127,0.3411" data-paper-data="{&quot;index&quot;:null}" fill="none" stroke-width="1.5" stroke-linecap="round"/><path d="M254.07788,411.03642l-29.38759,0.36731" data-paper-data="{&quot;index&quot;:null}" fill="none" stroke-width="1.5" stroke-linecap="round"/></g></g><path d="M378.11515,313.05312c0,9.66217 -7.83269,17.49483 -17.49476,17.49483c-9.6621,0 -17.49483,-7.83272 -17.49483,-17.49483c0,-9.66213 7.83269,-17.49476 17.49483,-17.49476c9.6621,0 17.49476,7.83267 17.49476,17.49476z" fill="url(#color-11)" stroke="none" stroke-width="0" stroke-linecap="butt"/><path d="M146.10891,313.05312c0,9.66217 -7.83271,17.49483 -17.49476,17.49483c-9.6621,0 -17.49483,-7.83272 -17.49483,-17.49483c0,-9.66213 7.83271,-17.49476 17.49483,-17.49476c9.6621,0 17.49476,7.83267 17.49476,17.49476z" fill="url(#color-12)" stroke="none" stroke-width="0" stroke-linecap="butt"/><path d="M249.25822,253.29962c0.1386,0.00178 0.91966,42.42645 1.7809,96.61968c-3.73123,-1.3317 -7.75052,-2.05695 -11.93925,-2.05695c-19.61224,0 -35.51115,15.89892 -35.51115,35.51115c0,19.61226 15.89893,35.51115 35.51115,35.51115c4.56737,0 8.93335,-0.86227 12.944,-2.4329c1.15812,81.06081 2.05346,161.90679 1.20564,161.85693c-71.08374,-4.18273 -143.32126,-12.82837 -159.20188,-41.1036c-15.72026,-27.98961 -24.73621,-60.60612 -24.73621,-95.42821c0,-104.09313 112.98635,-189.92713 179.94683,-188.47725z" fill="#0096ff" stroke="#000000" stroke-width="2" stroke-linecap="butt"/><path d="M421.09908,442.96057c0,34.82215 -9.01595,67.4386 -24.73621,95.42823c-15.88063,28.2752 -88.1181,36.92085 -159.20188,41.10355c-0.8435,0.04961 0.03843,-79.97275 1.1879,-160.61547c0.24968,0.00518 0.50004,0.00778 0.751,0.00778c19.61226,0 35.51115,-15.89893 35.51115,-35.51115c0,-19.50447 -15.72459,-35.33625 -35.18808,-35.5097c0.84062,-52.63502 1.59348,-93.37872 1.72928,-93.38047c66.96051,-1.4499 179.94687,84.38413 179.94687,188.47725z" data-paper-data="{&quot;index&quot;:null}" fill="#0096ff" stroke="#000000" stroke-width="2" stroke-linecap="butt"/><path d="M228.93498,127.30362c56.82982,-4.82517 106.15542,29.6103 110.17175,76.91377c4.01634,47.30346 -38.79748,89.56205 -95.62734,94.38721c-56.82986,4.82514 -106.15543,-29.61029 -110.17176,-76.91375c-4.01634,-47.30346 38.79749,-89.56206 95.62736,-94.38722z" fill="#696969" stroke="#000000" stroke-width="2" stroke-linecap="butt"/><path d="M230.95329,140.59709c49.27444,-4.18366 91.94758,24.55821 95.3131,64.19673c3.36553,39.63854 -33.85101,75.16346 -83.12547,79.34712c-49.27444,4.18366 -91.94753,-24.55823 -95.31307,-64.19673c-3.36552,-39.63855 33.85096,-75.16346 83.12538,-79.34713z" fill="none" stroke="url(#color-13)" stroke-width="4.5" stroke-linecap="butt"/><g stroke="none" stroke-width="0" stroke-linecap="butt"><path d="M210.25285,244.0395l-6.26216,-73.75458l70.18581,-5.95916l6.26216,73.75458z" fill="url(#color-14)"/><path d="M264.9459,189.67171l-1.81804,-21.41261l8.3271,-0.70701l1.81804,21.41261z" fill="#ffffff"/><path d="M267.01649,214.05849l-1.81804,-21.41261l8.3271,-0.70701l1.81804,21.41261z" fill="#ffffff"/><path d="M269.03655,237.85031l-1.81804,-21.41261l8.3271,-0.70701l1.81804,21.41261z" fill="#ffffff"/><path d="M209.57947,193.77347l-1.81804,-21.41261l8.32715,-0.70704l1.81804,21.41261z" fill="#ffffff"/><path d="M211.65003,218.16033l-1.81804,-21.41261l8.32715,-0.70704l1.81804,21.41261z" fill="#ffffff"/><path d="M213.67009,241.95211l-1.81805,-21.41261l8.32715,-0.70704l1.81805,21.41261z" fill="#ffffff"/><path d="M247.2173,239.58306l-0.60601,-7.13756l16.05943,-1.36354l0.60601,7.13756z" fill="#ffffff"/><path d="M228.68923,241.03637l-0.60601,-7.13756l16.05948,-1.36354l0.60601,7.13756z" fill="#ffffff"/></g><path d="M148.19415,168.16162c30.01666,-36.77973 90.1704,-37.36177 134.35717,-1.30007c23.08958,18.84389 -69.27793,-38.06814 -121.3075,23.55878c-44.81315,51.31342 28.08518,92.3754 21.99947,90.98335c2.84059,8.29804 -6.08375,19.29427 -11.77692,14.64798c-44.18675,-36.0617 -53.2889,-91.1102 -23.27222,-127.88991z" fill="#0096ff" stroke="#000000" stroke-width="2" stroke-linecap="butt"/><path d="M316.99208,146.16656c37.40321,29.23609 40.69262,84.93504 5.56874,129.87078c-4.52547,5.78965 -15.65944,-2.9622 -14.72303,-11.68285c5.52398,-4.35606 47.60532,-58.07058 1.34686,-93.59561c-64.36323,-48.60369 -141.86831,27.31551 -123.51446,3.83449c35.12391,-44.93577 93.91871,-57.6629 131.32194,-28.42681z" data-paper-data="{&quot;index&quot;:null}" fill="#0096ff" stroke="#000000" stroke-width="2" stroke-linecap="butt"/><path d="M230.16192,77.54353c69.45565,-5.89717 128.87328,25.98267 132.71296,71.20561c3.83967,45.22294 -14.01612,84.15501 -118.80827,92.56116c-110.6924,8.87944 -128.87324,-25.98266 -132.7129,-71.20565c-3.83967,-45.22294 49.35257,-86.66394 118.80822,-92.5611z" fill="#696969" stroke="#000000" stroke-width="2" stroke-linecap="butt"/><path d="M209.43903,196.18846l-6.51468,-76.72857l61.85869,-5.25213l6.51468,76.72857z" fill="url(#color-15)" stroke="none" stroke-width="0" stroke-linecap="butt"/><path d="M206.83577,194.99009l-30.36577,-83.04918l14.15878,-4.47229l30.36578,83.04921z" fill="url(#color-16)" stroke="none" stroke-width="0" stroke-linecap="butt"/><path d="M258.6037,190.25435l15.7847,-88.68402l14.71565,2.08627l-15.78474,88.68408z" data-paper-data="{&quot;index&quot;:null}" fill="url(#color-17)" stroke="none" stroke-width="0" stroke-linecap="butt"/><path d="M192.54346,201.81656l-1.86854,-22.00742l96.95158,-8.23171l1.86854,22.00742z" fill="url(#color-18)" stroke="none" stroke-width="0" stroke-linecap="butt"/><path d="M178.41456,208.82918c-2.73736,1.18951 -3.92693,-1.54789 -3.92693,-1.54789l-0.38302,-0.98884c-1.76434,-2.69644 -3.51258,-6.51805 -5.97944,-8.7011c-0.95254,-0.8429 -4.46897,-2.05742 -5.21945,-2.54734c-10.31636,-6.73472 -27.24689,-18.9985 -18.97825,-32.90996c3.75048,-1.58309 15.7,-3.95404 16.32438,-9.60843c0.88641,-8.0271 -5.2311,-13.95458 -2.26405,-22.549c3.43643,-9.95419 14.44197,-16.01642 22.74441,-21.68387c0,0 2.46523,-1.68258 4.14779,0.78269c1.68256,2.46524 -0.78266,4.14775 -0.78266,4.14775c-6.99646,4.77427 -17.55467,10.23612 -20.45026,18.65246c-3.59862,10.45962 8.44352,20.57551 -2.65821,29.30972c-1.1744,0.92394 -2.58346,1.51441 -3.94799,2.12339c-2.01671,0.90013 -6.90543,2.55691 -9.23976,3.36713c-1.92071,3.42704 1.54692,8.30682 3.53863,11.11157c5.24662,7.38817 14.16651,9.5914 20.62128,15.23017c3.00562,2.62571 4.98468,6.71547 7.13846,10.00617l0.86295,1.87853c0,0 1.18949,2.73739 -1.54789,3.92693z" fill="#000000" stroke="none" stroke-width="0.5" stroke-linecap="butt"/><path d="M157.20917,220.22404c-2.97999,0.16739 -3.14732,-2.81257 -3.14732,-2.81257l-0.01668,-1.06033c-0.72077,-3.14072 -1.03652,-7.33139 -2.59423,-10.23385c-0.60147,-1.1207 -3.47927,-3.47841 -4.0135,-4.19808c-7.34383,-9.89201 -18.97633,-27.26228 -6.39975,-37.44706c4.06672,-0.18557 16.09748,1.73079 18.64233,-3.35702c3.61279,-7.22271 -0.07191,-14.90263 5.68913,-21.93666c6.67259,-8.1469 19.09686,-10.02039 28.84874,-12.46002c0,0 2.89552,-0.72419 3.61963,2.17132c0.72416,2.89552 -2.17138,3.6196 -2.17138,3.6196c-8.21727,2.05435 -20.01392,3.51962 -25.6463,10.41128c-6.99979,8.56482 0.79132,22.22653 -12.64896,26.57307c-1.42181,0.45978 -2.94814,0.52545 -4.43911,0.6239c-2.20367,0.14558 -7.36355,0.00584 -9.83403,-0.04289c-2.98911,2.54926 -1.42721,8.32821 -0.5306,11.64935c2.36173,8.7484 9.96566,13.90578 14.06686,21.43176c1.90971,3.50443 2.34909,8.02656 3.22927,11.85967l0.15863,2.06117c0,0 0.16739,2.97993 -2.81266,3.14728z" fill="#000000" stroke="none" stroke-width="0.5" stroke-linecap="butt"/><path d="M297.18201,192.55328l0.53395,-1.99717c1.56816,-3.60668 2.82936,-7.97158 5.3493,-11.06644c5.4117,-6.64628 13.8324,-10.32182 17.75833,-18.4888c1.49038,-3.10033 4.08556,-8.49497 1.61463,-11.54909c-2.43749,-0.40507 -7.53555,-1.21392 -9.67517,-1.76113c-1.44767,-0.3702 -2.93611,-0.71469 -4.24942,-1.42737c-12.41532,-6.73746 -2.25109,-18.73882 -7.56163,-28.44193c-4.27311,-7.80763 -15.60106,-11.41135 -23.30222,-14.93767c0,0 -2.71362,-1.24279 -1.47081,-3.95641c1.24284,-2.71363 3.95645,-1.47077 3.95645,-1.47077c9.13907,4.18652 21.00916,8.30651 26.07466,17.53885c4.37351,7.97115 -0.657,14.84523 1.57004,22.60797c1.56877,5.46819 13.7469,5.79049 17.71058,6.71865c10.49571,12.31829 -4.12481,27.26096 -13.15809,35.6385c-0.65714,0.60947 -3.91853,2.39945 -4.71526,3.39084c-2.06348,2.56768 -3.1424,6.62936 -4.42685,9.58464l-0.21082,1.03928c0,0 -0.71097,2.89878 -3.60973,2.18779c-2.89876,-0.71099 -2.18779,-3.60976 -2.18779,-3.60976z" data-paper-data="{&quot;index&quot;:null}" fill="#000000" stroke="none" stroke-width="0.5" stroke-linecap="butt"/><path d="M318.88977,201.19161l-0.19113,-2.05841c0.22135,-3.92663 -0.10795,-8.45816 1.18359,-12.23432c2.77359,-8.10965 9.39917,-14.4752 10.25214,-23.49656c0.32379,-3.42474 0.88906,-9.38436 -2.48706,-11.39314c-2.42687,0.46461 -7.48934,1.47221 -9.68602,1.70032c-1.48626,0.15431 -3.0018,0.34693 -4.48072,0.13346c-13.98072,-2.01837 -8.6044,-16.79809 -16.948,-24.06014c-6.71361,-5.84348 -18.58852,-5.29883 -27.03445,-5.9384c0,0 -2.97614,-0.22555 -2.75054,-3.20171c0.22562,-2.97615 3.20178,-2.75056 3.20178,-2.75056c10.02351,0.76058 22.58581,0.51255 30.53642,7.41789c6.86448,5.96205 4.52735,14.15332 9.30612,20.6635c3.36624,4.58588 14.90171,0.66863 18.94149,0.16597c14.11366,7.91861 5.57626,27.00146 0.00526,37.99001c-0.40528,0.79939 -2.84438,3.60856 -3.2483,4.81467c-1.04605,3.12353 -0.65075,7.30743 -0.83172,10.52471l0.16228,1.04795c0,0 0.33749,2.96553 -2.62806,3.30297c-2.96557,0.33743 -3.30297,-2.62804 -3.30297,-2.62804z" data-paper-data="{&quot;index&quot;:null}" fill="#000000" stroke="none" stroke-width="0.5" stroke-linecap="butt"/><path d="M138.25139,225.62775l-1.82065,-21.44324l206.39388,-17.52396l1.82065,21.44324c0,0 -32.95987,27.25833 -99.16389,32.35222c-72.88329,5.60782 -107.22997,-14.82827 -107.22997,-14.82827z" fill="url(#color-19)" stroke="none" stroke-width="0" stroke-linecap="butt"/><path d="M193.98764,148.26677l-3.38359,-39.85128l85.05568,-7.22167l3.38359,39.85128z" fill="url(#color-20)" stroke="#000000" stroke-width="0" stroke-linecap="butt"/><path d="M196.52471,104.80039c13.31407,-1.13044 24.99591,8.41933 26.09207,21.3299c1.09619,12.9106 -8.80838,24.29315 -22.12245,25.42356c-13.31407,1.13044 -24.9959,-8.41929 -26.09206,-21.32989c-1.09619,-12.9106 8.80837,-24.29313 22.12244,-25.42357z" fill="#ffffff" stroke="#000000" stroke-width="2" stroke-linecap="butt"/><path d="M171.35411,129.2042c-1.24441,-14.6565 9.6898,-27.61971 24.34628,-28.86413c14.6565,-1.24441 27.61971,9.6898 28.86413,24.34627c1.24441,14.6565 -9.6898,27.61971 -24.34626,28.86413c-14.6565,1.24441 -27.61971,-9.6898 -28.86413,-24.34627z" data-paper-data="{&quot;noHover&quot;:false,&quot;origItem&quot;:[&quot;Path&quot;,{&quot;applyMatrix&quot;:true,&quot;segments&quot;:[[[384.72744,349.27406],[-21.77325,0],[21.77325,0]],[[424.15135,309.85014],[0,21.77325],[0,-21.77325]],[[384.72744,270.42623],[21.77325,0],[-21.77325,0]],[[345.30352,309.85014],[0,-21.77325],[0,21.77325]]],&quot;closed&quot;:true,&quot;fillColor&quot;:[0,0,0,1]}]}" fill="#000000" stroke="none" stroke-width="0.5" stroke-linecap="butt"/><path d="M217.58298,258.68679c-96.98698,14.53272 -122.74507,-16.22055 -129.87582,-53.78085c16.49311,3.42414 34.40407,1.03981 51.1167,0.5993c9.56828,-0.53195 58.46169,-5.26409 73.6078,-5.50158c0,0 1.14243,-0.02206 1.95685,-0.67328c2.52776,31.86169 4.23347,59.20069 3.19457,59.3564z" fill="#0096ff" stroke="#000000" stroke-width="2" stroke-linecap="butt"/><path d="M265.00435,98.3081c13.31407,-1.13044 24.99589,8.41933 26.09206,21.32989c1.09619,12.9106 -8.80841,24.29314 -22.12244,25.42357c-13.31407,1.13044 -24.9959,-8.41929 -26.09206,-21.32989c-1.09619,-12.9106 8.80837,-24.29313 22.12244,-25.42357z" fill="#ffffff" stroke="#000000" stroke-width="2" stroke-linecap="butt"/><path d="M269.21887,148.58301c-14.65645,1.24442 -27.61971,-9.68984 -28.86413,-24.34627c-1.24442,-14.65645 9.68984,-27.61971 24.34627,-28.86413c14.65645,-1.24442 27.61971,9.68984 28.86413,24.34627c1.24442,14.65645 -9.68984,27.61971 -24.34626,28.86413z" data-paper-data="{&quot;noHover&quot;:false,&quot;origItem&quot;:[&quot;Path&quot;,{&quot;applyMatrix&quot;:true,&quot;segments&quot;:[[[526.54509,311.16443],[0,21.7732],[0,-21.7732]],[[487.12118,271.74051],[21.7732,0],[-21.7732,0]],[[447.69726,311.16443],[0,-21.7732],[0,21.7732]],[[487.12118,350.58835],[-21.7732,0],[21.7732,0]]],&quot;closed&quot;:true,&quot;fillColor&quot;:[0,0,0,1]}]}" fill="#000000" stroke="none" stroke-width="0.5" stroke-linecap="butt"/><path d="M268.74276,251.45807c-1.05028,0.0217 -3.97823,-27.21355 -6.8584,-59.04532c0.91258,0.5046 2.04235,0.33371 2.04235,0.33371c14.96931,-2.3195 63.96067,-5.89828 73.48167,-6.98712c16.54763,-2.3835 34.60424,-3.05299 50.28393,-9.20877c-0.69617,38.22485 -20.9007,72.88055 -118.94949,74.90745z" data-paper-data="{&quot;index&quot;:null}" fill="#0096ff" stroke="#000000" stroke-width="2" stroke-linecap="butt"/><path d="M273.65754,121.97568c0.31565,3.71766 -2.29153,6.9745 -5.8233,7.27438c-3.53179,0.29986 -6.65073,-2.47078 -6.96637,-6.18845c-0.31565,-3.71766 2.29153,-6.9745 5.8233,-7.27438c3.53179,-0.29986 6.65073,2.47078 6.96637,6.18845z" fill="#000000" stroke="#ff0000" stroke-width="1" stroke-linecap="butt"/><path d="M205.61305,127.07501c0.31565,3.71766 -2.29153,6.9745 -5.8233,7.27438c-3.53179,0.29986 -6.65073,-2.47078 -6.96637,-6.18845c-0.31565,-3.71766 2.29153,-6.9745 5.8233,-7.27438c3.53179,-0.29986 6.65073,2.47078 6.96637,6.18845z" fill="#000000" stroke="#ff0000" stroke-width="1" stroke-linecap="butt"/><path d="M247.23277,64.96878c68.64031,-5.82794 127.26228,24.52182 130.9358,67.78812c0.26228,3.08904 0.44637,6.17854 0.52224,9.25359c-15.48402,6.8183 -34.00011,7.26779 -50.61229,9.65259c-9.2592,1.05908 -57.96222,4.73157 -73.1424,6.96153c0,0 -0.86796,0.13136 -1.54622,0.66847c-3.90107,-43.64536 -7.57773,-94.20369 -6.15718,-94.32432zM309.57615,104.7452c-1.24442,-14.65645 -14.13465,-25.52909 -28.79108,-24.28468c-14.65645,1.24442 -25.52909,14.13465 -24.28469,28.79112c1.24442,14.65645 14.13465,25.52909 28.79112,24.28469c14.65645,-1.24442 25.52908,-14.13465 24.28467,-28.7911z" data-paper-data="{&quot;index&quot;:null}" fill="#0096ff" stroke="#000000" stroke-width="2" stroke-linecap="butt"/><path d="M209.80668,67.71236c1.42056,-0.12062 6.32041,50.33391 9.83363,94.01218c-0.75913,-0.41508 -1.63682,-0.39821 -1.63682,-0.39821c-15.33885,0.36129 -63.9639,4.95243 -73.26908,5.4696c-16.7764,0.45004 -35.10327,3.12871 -51.51514,-0.98142c-0.44366,-3.04385 -0.78307,-6.12014 -1.04534,-9.20918c-3.67355,-43.26627 48.99243,-83.06499 117.63275,-88.89294zM183.85272,141.7148c14.6565,-1.24441 25.52909,-14.13461 24.28467,-28.7911c-1.24441,-14.65649 -14.13461,-25.52909 -28.79108,-24.28467c-14.6565,1.24441 -25.5291,14.13462 -24.28468,28.79108c1.24441,14.6565 14.13462,25.5291 28.79112,24.28469z" fill="#0096ff" stroke="#000000" stroke-width="2" stroke-linecap="butt"/></g></g></svg>