<svg version="1.1" xmlns="http://www.w3.org/2000/svg" xmlns:xlink="http://www.w3.org/1999/xlink" width="597.40472" height="390.42945" viewBox="0,0,597.40472,390.42945"><defs><linearGradient x1="86.14738" y1="306.22117" x2="84.6143" y2="330.84216" gradientUnits="userSpaceOnUse" id="color-1"><stop offset="0" stop-color="#ff0000"/><stop offset="1" stop-color="#8c0a0a"/></linearGradient><linearGradient x1="88.19864" y1="311.21637" x2="86.66557" y2="335.83737" gradientUnits="userSpaceOnUse" id="color-2"><stop offset="0" stop-color="#ff0000"/><stop offset="1" stop-color="#8c0a0a"/></linearGradient><linearGradient x1="89.94605" y1="315.47156" x2="88.41297" y2="340.09256" gradientUnits="userSpaceOnUse" id="color-3"><stop offset="0" stop-color="#ff0000"/><stop offset="1" stop-color="#8c0a0a"/></linearGradient><linearGradient x1="91.84537" y1="320.09678" x2="90.3123" y2="344.71777" gradientUnits="userSpaceOnUse" id="color-4"><stop offset="0" stop-color="#ff0000"/><stop offset="1" stop-color="#8c0a0a"/></linearGradient><linearGradient x1="82.15204" y1="324.76293" x2="95.69518" y2="325.60623" gradientUnits="userSpaceOnUse" id="color-5"><stop offset="0" stop-color="#333333"/><stop offset="1" stop-color="#696969"/></linearGradient><linearGradient x1="355.41682" y1="127.26152" x2="378.18688" y2="127.26152" gradientUnits="userSpaceOnUse" id="color-6"><stop offset="0" stop-color="#696969"/><stop offset="1" stop-color="#8b8b8b"/></linearGradient><linearGradient x1="330.72296" y1="183.87132" x2="401.87154" y2="183.87132" gradientUnits="userSpaceOnUse" id="color-7"><stop offset="0" stop-color="#696969"/><stop offset="1" stop-color="#8b8b8b"/></linearGradient><linearGradient x1="326.93845" y1="133.15903" x2="406.41294" y2="133.15903" gradientUnits="userSpaceOnUse" id="color-8"><stop offset="0" stop-color="#8b8b8b"/><stop offset="1" stop-color="#696969"/></linearGradient><linearGradient x1="383.72583" y1="182.97194" x2="393.18706" y2="182.97194" gradientUnits="userSpaceOnUse" id="color-9"><stop offset="0" stop-color="#8b8b8b"/><stop offset="1" stop-color="#696969"/></linearGradient><linearGradient x1="368.96629" y1="182.59349" x2="378.42753" y2="182.59349" gradientUnits="userSpaceOnUse" id="color-10"><stop offset="0" stop-color="#8b8b8b"/><stop offset="1" stop-color="#696969"/></linearGradient><linearGradient x1="354.96364" y1="182.59349" x2="364.42488" y2="182.59349" gradientUnits="userSpaceOnUse" id="color-11"><stop offset="0" stop-color="#8b8b8b"/><stop offset="1" stop-color="#696969"/></linearGradient><linearGradient x1="340.2041" y1="182.21504" x2="349.66534" y2="182.21504" gradientUnits="userSpaceOnUse" id="color-12"><stop offset="0" stop-color="#8b8b8b"/><stop offset="1" stop-color="#696969"/></linearGradient><linearGradient x1="291.85823" y1="141.78104" x2="314.62832" y2="141.78104" gradientUnits="userSpaceOnUse" id="color-13"><stop offset="0" stop-color="#696969"/><stop offset="1" stop-color="#8b8b8b"/></linearGradient><linearGradient x1="267.1644" y1="198.39084" x2="338.31298" y2="198.39084" gradientUnits="userSpaceOnUse" id="color-14"><stop offset="0" stop-color="#696969"/><stop offset="1" stop-color="#8b8b8b"/></linearGradient><linearGradient x1="263.37989" y1="147.67855" x2="342.85438" y2="147.67855" gradientUnits="userSpaceOnUse" id="color-15"><stop offset="0" stop-color="#8b8b8b"/><stop offset="1" stop-color="#696969"/></linearGradient><linearGradient x1="320.16727" y1="197.49146" x2="329.6285" y2="197.49146" gradientUnits="userSpaceOnUse" id="color-16"><stop offset="0" stop-color="#8b8b8b"/><stop offset="1" stop-color="#696969"/></linearGradient><linearGradient x1="305.40772" y1="197.11301" x2="314.86895" y2="197.11301" gradientUnits="userSpaceOnUse" id="color-17"><stop offset="0" stop-color="#8b8b8b"/><stop offset="1" stop-color="#696969"/></linearGradient><linearGradient x1="291.40506" y1="197.11301" x2="300.86632" y2="197.11301" gradientUnits="userSpaceOnUse" id="color-18"><stop offset="0" stop-color="#8b8b8b"/><stop offset="1" stop-color="#696969"/></linearGradient><linearGradient x1="276.64552" y1="196.73456" x2="286.10677" y2="196.73456" gradientUnits="userSpaceOnUse" id="color-19"><stop offset="0" stop-color="#8b8b8b"/><stop offset="1" stop-color="#696969"/></linearGradient></defs><g transform="translate(40.52626,10.62893)"><g data-paper-data="{&quot;isPaintingLayer&quot;:true}" fill-rule="nonzero" stroke-linecap="butt" stroke-linejoin="miter" stroke-miterlimit="10" stroke-dasharray="" stroke-dashoffset="0" style="mix-blend-mode: normal"><path d="M-40.52626,367.25247v-204.20421h552.55255v204.20421z" fill="#aeaeae" stroke="none" stroke-width="0"/><path d="M52.07701,362.80052c27.89038,0 50.5,3.80558 50.5,8.5c0,4.69442 -22.60962,8.5 -50.5,8.5c-27.89038,0 -50.5,-3.80558 -50.5,-8.5c0,-4.69442 22.60962,-8.5 50.5,-8.5z" fill="#5e5e5e" stroke="#696969" stroke-width="0"/><path d="M-16.75674,313.6954l3.003,-324.32433h522.3974l1.5015,186.18619z" fill="#a79b6b" stroke="none" stroke-width="0"/><path d="M51.24819,344.01181c0.67573,-11.54093 -11.31751,-38.71457 -11.31751,-38.71457l12.41269,-2.47674c0,0 12.90519,24.48625 12.29175,34.96314c-0.63291,10.80957 -1.92888,32.94358 -1.92888,32.94358l-12.31225,-0.72089c0,0 0.31317,-16.75437 0.8542,-25.99452z" data-paper-data="{&quot;index&quot;:null}" fill="#333232" stroke="none" stroke-width="0"/><path d="M85.31779,367.79319c0.17872,7.3852 -34.47094,8.79078 -34.64966,1.40557c-0.17872,-7.3852 6.69357,-16.67922 16.26181,-17.06736c9.56824,-0.38814 18.20913,8.27657 18.38785,15.66178z" fill="#333232" stroke="none" stroke-width="0"/><path d="M81.30333,224.87028c0,13.62302 -9.92435,24.66667 -22.16667,24.66667c-12.24231,0 -22.16667,-11.04364 -22.16667,-24.66667c0,-13.62302 9.92435,-24.66667 22.16667,-24.66667c12.24231,0 22.16667,11.04364 22.16667,24.66667z" fill="#000000" stroke="none" stroke-width="0"/><path d="M65.69801,223.58326c0,15.64807 3.06467,29.12037 -10.26293,29.12037c-13.3276,0 -24.13176,-12.68527 -24.13176,-28.33333c0,-15.64807 10.80416,-28.33333 24.13176,-28.33333c13.3276,0 10.26293,11.89823 10.26293,27.5463z" fill="#333232" stroke="none" stroke-width="0"/><path d="M50.80667,248.28017c20.99963,0.17398 19.82901,17.36311 19.021,37.78166c-0.80801,20.41855 -1.2026,38.02763 -22.83232,34.59887c-25.27701,-4.00692 -18.94377,-15.80152 -18.13575,-36.22007c0.80801,-20.41855 4.58194,-36.84764 21.94707,-36.16046z" fill="#333232" stroke="none" stroke-width="0"/><path d="M32.36732,293.07436c0.28325,9.25164 0.12926,26.00822 0.12926,26.00822l-12.32756,0.37741c0,0 -0.67846,-22.16154 -1.00981,-32.98455c-0.32114,-10.4899 19.2732,-34.93945 19.2732,-34.93945l14.19867,7.87559c0,0 -20.61752,22.1075 -20.26376,33.66278z" data-paper-data="{&quot;index&quot;:null}" fill="#333232" stroke="none" stroke-width="0"/><path d="M22.25531,333.33163c-6.02294,-2.01563 -9.34257,-8.31991 -7.41458,-14.08098c1.92799,-5.76109 8.37351,-8.79738 14.39646,-6.78176c6.02294,2.01563 9.34257,8.31991 7.41458,14.08098c-1.92798,5.76107 -8.37351,8.79738 -14.39646,6.78177z" data-paper-data="{&quot;index&quot;:null}" fill="#000000" stroke="none" stroke-width="0"/><path d="M71.77076,295.62835c6.0643,6.99265 16.53097,20.07914 16.53097,20.07914l-9.31752,8.08052c0,0 -14.52656,-16.75034 -21.62087,-24.93069c-6.87598,-7.92858 -7.13309,-39.25992 -7.13309,-39.25992l15.9818,-2.86513c0,0 -2.01561,30.16225 5.55871,38.89607z" data-paper-data="{&quot;index&quot;:null}" fill="#333232" stroke="none" stroke-width="0"/><g data-paper-data="{&quot;index&quot;:null}"><path d="M64.28514,323.62717l39.68427,-16.29628l2.50712,6.10526l-39.68428,16.29628z" fill="url(#color-1)" stroke="#000000" stroke-width="0.5"/><path d="M66.33641,328.62236l39.68427,-16.29627l2.50712,6.10527l-39.68428,16.29627z" fill="url(#color-2)" stroke="#000000" stroke-width="0.5"/><path d="M68.08381,332.87756l39.68428,-16.29627l2.50712,6.10526l-39.68427,16.29629z" fill="url(#color-3)" stroke="#000000" stroke-width="0.5"/><path d="M69.98313,337.50278l39.68427,-16.29629l2.50712,6.10527l-39.68427,16.29628z" fill="url(#color-4)" stroke="#000000" stroke-width="0.5"/><path d="M82.69346,316.06783l4.25519,-1.74737l8.20512,19.98089l-4.25519,1.74739z" fill="url(#color-5)" stroke="none" stroke-width="0"/><path d="M82.76591,319.92977l7.03032,-2.88698l5.47007,13.32059l-7.03032,2.88698z" fill="#33481f" stroke="#333333" stroke-width="1"/></g><path d="M92.94989,330.88909c-5.31916,3.47062 -12.32237,2.15955 -15.64209,-2.92835c-3.31972,-5.08789 -1.69886,-12.02594 3.62031,-15.49656c5.31916,-3.47061 12.32237,-2.15954 15.64209,2.92836c3.31973,5.0879 1.69886,12.02594 -3.62031,15.49656z" data-paper-data="{&quot;index&quot;:null}" fill="#000000" stroke="none" stroke-width="0"/><text transform="translate(6.27028,22.01046) scale(0.40204,0.40204)" font-size="40" xml:space="preserve" fill="#ffffff" fill-rule="nonzero" stroke="none" stroke-width="1" stroke-linecap="butt" stroke-linejoin="miter" stroke-miterlimit="10" stroke-dasharray="" stroke-dashoffset="0" font-family="Pixel" font-weight="normal" text-anchor="start" style="mix-blend-mode: normal"><tspan x="0" dy="0">FEB 04 2019  4:48 PM</tspan><tspan x="0" dy="46.150000000000006px">BACK_ALLEY</tspan></text><g fill="#696969" stroke="#696969"><path d="M389.27955,253.78283l7.29728,1.17326l-10.07254,6.65659l-7.29728,-1.17326z" stroke-width="0"/><path d="M304.59238,233.94252l93.63082,12.303l-31.47321,20.79954l-87.60403,-16.28588c0,0 -0.20544,-2.5489 9.15292,-8.83758c11.06618,-7.43631 16.2935,-7.97908 16.2935,-7.97908z" stroke-width="0"/><path d="M395.14561,244.37517l10.18225,1.63711l-35.15624,23.23354l-10.18225,-1.63711z" stroke-width="0"/><path d="M295.65286,249.01872l69.5787,11.18692l-4.18527,2.7659l-69.5787,-11.18692z" stroke-width="2"/><path d="M302.52128,244.75849l69.57869,11.18692l-4.18526,2.7659l-69.5787,-11.18692z" stroke-width="2"/><path d="M308.71547,240.66496l69.5787,11.18692l-4.18527,2.7659l-69.5787,-11.18692z" stroke-width="2"/><path d="M315.58392,236.40473l69.5787,11.18692l-4.18527,2.7659l-69.5787,-11.18692z" stroke-width="2"/></g><g fill="#696969" stroke="#696969"><path d="M461.27955,239.78283l7.29728,1.17326l-10.07254,6.65659l-7.29728,-1.17326z" stroke-width="0"/><path d="M376.59241,219.94252l93.63082,12.303l-31.47321,20.79954l-87.60403,-16.28588c0,0 -0.20544,-2.5489 9.15292,-8.83758c11.06618,-7.43631 16.2935,-7.97908 16.2935,-7.97908z" stroke-width="0"/><path d="M467.14561,230.37517l10.18225,1.63711l-35.15624,23.23354l-10.18225,-1.63711z" stroke-width="0"/><path d="M367.65288,235.01872l69.5787,11.18692l-4.18527,2.7659l-69.5787,-11.18692z" stroke-width="2"/><path d="M374.5213,230.75849l69.57869,11.18692l-4.18526,2.7659l-69.5787,-11.18692z" stroke-width="2"/><path d="M380.71549,226.66496l69.5787,11.18692l-4.18527,2.7659l-69.5787,-11.18692z" stroke-width="2"/><path d="M387.58392,222.40473l69.5787,11.18692l-4.18527,2.7659l-69.5787,-11.18692z" stroke-width="2"/></g><g><path d="M355.41682,131.32986v-8.13668h22.77007v8.13668z" fill="url(#color-6)" stroke="none" stroke-width="0"/><path d="M338.29196,234.20515l-7.569,-100.66766h71.14857l-6.05519,100.66767c0,0 -6.92197,3.64328 -28.36385,3.7845c-25.35485,0.16699 -29.16053,-3.7845 -29.16053,-3.7845z" fill="url(#color-7)" stroke="none" stroke-width="0"/><path d="M326.93845,138.83578v-11.3535h79.47447v11.3535z" fill="url(#color-8)" stroke="none" stroke-width="0"/><path d="M383.72583,221.76305v-77.58222h9.46124v77.58222z" fill="url(#color-9)" stroke="#494949" stroke-width="2"/><path d="M368.96629,221.3846v-77.58222h9.46124v77.58222z" fill="url(#color-10)" stroke="#494949" stroke-width="2"/><path d="M354.96364,221.3846v-77.58222h9.46125v77.58222z" fill="url(#color-11)" stroke="#494949" stroke-width="2"/><path d="M340.2041,221.00615v-77.58222h9.46125v77.58222z" fill="url(#color-12)" stroke="#494949" stroke-width="2"/></g><g><path d="M291.85823,145.84938v-8.13667h22.77007v8.13667z" fill="url(#color-13)" stroke="none" stroke-width="0"/><path d="M274.73339,248.72467l-7.569,-100.66766h71.14857l-6.05519,100.66767c0,0 -6.92197,3.64328 -28.36385,3.7845c-25.35485,0.16699 -29.16053,-3.7845 -29.16053,-3.7845z" fill="url(#color-14)" stroke="none" stroke-width="0"/><path d="M263.37989,153.3553v-11.3535h79.47447v11.3535z" fill="url(#color-15)" stroke="none" stroke-width="0"/><path d="M320.16727,236.28257v-77.58222h9.46124v77.58222z" fill="url(#color-16)" stroke="#494949" stroke-width="2"/><path d="M305.40772,235.90412v-77.58222h9.46124v77.58222z" fill="url(#color-17)" stroke="#494949" stroke-width="2"/><path d="M291.40506,235.90412v-77.58222h9.46125v77.58222z" fill="url(#color-18)" stroke="#494949" stroke-width="2"/><path d="M276.64552,235.52567v-77.58222h9.46125v77.58222z" fill="url(#color-19)" stroke="#494949" stroke-width="2"/></g><g data-paper-data="{&quot;index&quot;:null}" fill="#696969" stroke="none" stroke-width="0"><path d="M316.1237,275.83409c-14.27501,-8.2122 -2.6306,-14.79631 14.93498,-21.07647c17.56558,-6.28016 35.10283,-9.84049 49.37784,-1.62829c14.27501,8.2122 7.54519,21.27436 3.07303,23.01186c-7.43858,2.89 -53.11084,7.9051 -67.38586,-0.3071z"/><path d="M380.40259,274.24033l22.42864,-0.86911c0,0 -3.52407,1.21945 -8.98503,2.41579c-0.88114,0.19304 2.12008,1.64526 1.37686,1.93807c-0.86836,0.34211 -3.96717,-0.60559 -4.70484,-0.23676c-1.0186,0.50928 1.10643,2.11008 0.16598,2.49712c-2.86228,1.17796 -4.24111,0.01364 -5.47814,0.69191c-1.68106,0.92174 -1.80683,3.34856 -1.80683,3.34856z"/><path d="M387.35468,272.54505l2.13299,0.82265l-9.58794,5.11314l-2.133,-0.82265z"/></g><g data-paper-data="{&quot;index&quot;:null}" stroke="none" stroke-width="0"><path d="M300.72373,198.00159c5.8839,0.23998 29,18.69211 29,41.75c0,23.05789 -18.63247,27.75 -41,27.75c-22.36753,0 -40.5,-4.19211 -40.5,-27.25c0,-23.05789 42.71324,-42.64916 52.5,-42.25z" fill="#5e883f"/><path d="M289.87372,184.41662c0,0 3.4116,4.12445 5.99002,4.6798c1.89737,0.40866 1.39078,-2.46111 5.24659,-2.19336c1.26687,0.08797 1.7833,4.17553 3.27844,4.42679c1.08277,0.18196 2.22264,-3.37752 3.37159,-3.32272c0.98337,0.0469 0.60889,4.41963 1.56437,4.20838c5.9217,-1.30926 10.35388,-1.37937 10.35388,-1.37937l-18.8,12.38049z" fill="#5e883f"/><path d="M294.14295,198.9301l0.55207,-2.74503l14.50947,2.91811l-0.55207,2.74503z" fill="#515151"/></g><g data-paper-data="{&quot;index&quot;:null}" stroke="none" stroke-width="0"><path d="M374.72375,245.25158c0,23.05789 -18.13247,27.25 -40.5,27.25c-22.36753,0 -41,-4.69211 -41,-27.75c0,-23.05789 23.1161,-41.51002 29,-41.75c9.78676,-0.39916 52.5,19.19211 52.5,42.25z" fill="#689645"/><path d="M322.06886,208.21663l-18.8,-12.38049c0,0 4.43218,0.07012 10.35387,1.37938c0.95548,0.21125 0.581,-4.16148 1.56437,-4.20838c1.14895,-0.0548 2.28881,3.50469 3.37158,3.32272c1.49514,-0.25126 2.01156,-4.33882 3.27844,-4.42679c3.85582,-0.26775 3.34923,2.60203 5.2466,2.19337c2.57842,-0.55535 5.99002,-4.6798 5.99002,-4.6798z" fill="#689645"/><path d="M314.29504,206.8482l-0.55208,-2.74503l14.50947,-2.91811l0.55208,2.74504z" fill="#515151"/></g><path d="M406.41444,203.16603l-2,-121.59459l64.66967,43v94.59459z" fill="#337600" stroke="none" stroke-width="0"/><path d="M468.41444,219.16603v-94.59459l62.66967,-16v94.59459z" data-paper-data="{&quot;index&quot;:null}" fill="#409600" stroke="none" stroke-width="0"/><path d="M556.87847,101.27118l-90.2831,28.23296l-64.64196,-47.3712l99.94976,-20.89962z" data-paper-data="{&quot;index&quot;:null}" fill="#595959" stroke="none" stroke-width="0"/><path d="M28.81692,337.76479c5.38877,-10.22794 5.70908,-39.92882 5.70908,-39.92882l12.32555,2.87918c0,0 1.62154,27.63134 -3.27041,36.91629c-5.04728,9.57979 -15.38226,29.19566 -15.38226,29.19566l-10.91151,-5.74892c0,0 7.21506,-15.12448 11.52955,-23.3134z" data-paper-data="{&quot;index&quot;:null}" fill="#333232" stroke="none" stroke-width="0"/><path d="M15.97728,362.48289c3.91024,-6.26764 15.75705,-9.33277 23.79773,-4.13185c1.97484,1.27737 2.94931,-3.60242 9.62738,0.51995c6.28115,3.87735 5.04256,13.21331 3.62309,14.67693c-2.22835,3.57177 -20.57348,6.76064 -28.3968,0.99972c-5.90478,-4.34814 -10.33329,-9.36889 -8.65141,-12.06474z" data-paper-data="{&quot;index&quot;:null}" fill="#333232" stroke="none" stroke-width="0"/></g></g></svg>