<svg version="1.1" xmlns="http://www.w3.org/2000/svg" xmlns:xlink="http://www.w3.org/1999/xlink" width="626.51651" height="462.0019" viewBox="0,0,626.51651,462.0019"><defs><linearGradient x1="241.00001" y1="-6.69442" x2="241.00001" y2="280.09236" gradientUnits="userSpaceOnUse" id="color-1"><stop offset="0" stop-color="#707273"/><stop offset="1" stop-color="#aab1b3"/></linearGradient><linearGradient x1="310.66433" y1="157.56237" x2="374.66433" y2="157.56237" gradientUnits="userSpaceOnUse" id="color-2"><stop offset="0" stop-color="#8c8c8c"/><stop offset="1" stop-color="#757575"/></linearGradient><linearGradient x1="368.95918" y1="157.23163" x2="368.95918" y2="185.23166" gradientUnits="userSpaceOnUse" id="color-3"><stop offset="0" stop-color="#404040"/><stop offset="1" stop-color="#5b5b5b"/></linearGradient><linearGradient x1="364.48629" y1="166.59059" x2="364.48629" y2="171.51367" gradientUnits="userSpaceOnUse" id="color-4"><stop offset="0" stop-color="#404040"/><stop offset="1" stop-color="#5b5b5b"/></linearGradient><linearGradient x1="340.66432" y1="156.56235" x2="386.66433" y2="156.56235" gradientUnits="userSpaceOnUse" id="color-5"><stop offset="0" stop-color="#000000" stop-opacity="0"/><stop offset="1" stop-color="#000000"/></linearGradient><linearGradient x1="135.74131" y1="115.56474" x2="128.06031" y2="116.09435" gradientUnits="userSpaceOnUse" id="color-6"><stop offset="0" stop-color="#5c5c5c"/><stop offset="1" stop-color="#9b9b9b"/></linearGradient><linearGradient x1="78.34341" y1="137.58961" x2="77.85204" y2="141.09621" gradientUnits="userSpaceOnUse" id="color-7"><stop offset="0" stop-color="#5c5c5c"/><stop offset="1" stop-color="#9b9b9b"/></linearGradient><linearGradient x1="57.30963" y1="135.81748" x2="64.15573" y2="136.77686" gradientUnits="userSpaceOnUse" id="color-8"><stop offset="0" stop-color="#5c5c5c"/><stop offset="1" stop-color="#9b9b9b"/></linearGradient><linearGradient x1="35.30777" y1="154.66481" x2="27.62677" y2="155.19439" gradientUnits="userSpaceOnUse" id="color-9"><stop offset="0" stop-color="#5c5c5c"/><stop offset="1" stop-color="#9b9b9b"/></linearGradient><linearGradient x1="47.44471" y1="147.26097" x2="45.45518" y2="144.33639" gradientUnits="userSpaceOnUse" id="color-10"><stop offset="0" stop-color="#5c5c5c"/><stop offset="1" stop-color="#9b9b9b"/></linearGradient><linearGradient x1="92.92399" y1="141.67372" x2="100.26461" y2="142.70241" gradientUnits="userSpaceOnUse" id="color-11"><stop offset="0" stop-color="#5c5c5c"/><stop offset="1" stop-color="#9b9b9b"/></linearGradient><linearGradient x1="124.6875" y1="146.20243" x2="132.3685" y2="145.67282" gradientUnits="userSpaceOnUse" id="color-12"><stop offset="0" stop-color="#5c5c5c"/><stop offset="1" stop-color="#9b9b9b"/></linearGradient><linearGradient x1="113.11858" y1="147.02029" x2="113.58152" y2="143.51358" gradientUnits="userSpaceOnUse" id="color-13"><stop offset="0" stop-color="#5c5c5c"/><stop offset="1" stop-color="#9b9b9b"/></linearGradient><linearGradient x1="83.48644" y1="149.51414" x2="86.02777" y2="151.97967" gradientUnits="userSpaceOnUse" id="color-14"><stop offset="0" stop-color="#5c5c5c"/><stop offset="1" stop-color="#9b9b9b"/></linearGradient><linearGradient x1="72.41169" y1="148.3027" x2="69.29054" y2="149.97474" gradientUnits="userSpaceOnUse" id="color-15"><stop offset="0" stop-color="#5c5c5c"/><stop offset="1" stop-color="#9b9b9b"/></linearGradient><linearGradient x1="72.44142" y1="172.41642" x2="76.61587" y2="173.0014" gradientUnits="userSpaceOnUse" id="color-16"><stop offset="0" stop-color="#5c5c5c"/><stop offset="1" stop-color="#9b9b9b"/></linearGradient><linearGradient x1="63.04009" y1="123.59303" x2="100.97725" y2="123.5779" gradientUnits="userSpaceOnUse" id="color-17"><stop offset="0" stop-color="#6c6c6c"/><stop offset="1" stop-color="#c4c4c4"/></linearGradient><linearGradient x1="75.21255" y1="117.92821" x2="90.1345" y2="117.92227" gradientUnits="userSpaceOnUse" id="color-18"><stop offset="0" stop-color="#6e6e6e"/><stop offset="1" stop-color="#c0c0c0"/></linearGradient><linearGradient x1="82.52782" y1="93.96432" x2="82.53118" y2="102.43697" gradientUnits="userSpaceOnUse" id="color-19"><stop offset="0" stop-color="#a6a6a6"/><stop offset="1" stop-color="#707070"/></linearGradient><linearGradient x1="82.46674" y1="99.33747" x2="82.47324" y2="115.65046" gradientUnits="userSpaceOnUse" id="color-20"><stop offset="0" stop-color="#a6a6a6"/><stop offset="1" stop-color="#707070"/></linearGradient><linearGradient x1="71.97435" y1="95.08913" x2="76.90359" y2="114.97336" gradientUnits="userSpaceOnUse" id="color-21"><stop offset="0" stop-color="#a6a6a6"/><stop offset="1" stop-color="#707070"/></linearGradient><linearGradient x1="92.82953" y1="95.71312" x2="87.91612" y2="115.60126" gradientUnits="userSpaceOnUse" id="color-22"><stop offset="0" stop-color="#a6a6a6"/><stop offset="1" stop-color="#707070"/></linearGradient><linearGradient x1="82.53494" y1="111.85672" x2="82.53678" y2="116.53563" gradientUnits="userSpaceOnUse" id="color-23"><stop offset="0" stop-color="#a6a6a6"/><stop offset="1" stop-color="#707070"/></linearGradient><linearGradient x1="82.28369" y1="116.02991" x2="82.28551" y2="120.58888" gradientUnits="userSpaceOnUse" id="color-24"><stop offset="0" stop-color="#707070"/><stop offset="1" stop-color="#a6a6a6"/></linearGradient><linearGradient x1="129.22798" y1="131.72677" x2="132.76493" y2="131.76538" gradientUnits="userSpaceOnUse" id="color-25"><stop offset="0" stop-color="#5c5c5c"/><stop offset="1" stop-color="#9b9b9b"/></linearGradient><linearGradient x1="67.58442" y1="157.71352" x2="66.10365" y2="157.11994" gradientUnits="userSpaceOnUse" id="color-26"><stop offset="0" stop-color="#5c5c5c"/><stop offset="1" stop-color="#9b9b9b"/></linearGradient><linearGradient x1="74.22012" y1="154.54213" x2="72.73936" y2="153.94849" gradientUnits="userSpaceOnUse" id="color-27"><stop offset="0" stop-color="#5c5c5c"/><stop offset="1" stop-color="#9b9b9b"/></linearGradient><linearGradient x1="77.1633" y1="152.93667" x2="76.6824" y2="151.92944" gradientUnits="userSpaceOnUse" id="color-28"><stop offset="0" stop-color="#5c5c5c"/><stop offset="1" stop-color="#9b9b9b"/></linearGradient><linearGradient x1="70.42369" y1="156.29017" x2="69.89448" y2="155.30748" gradientUnits="userSpaceOnUse" id="color-29"><stop offset="0" stop-color="#5c5c5c"/><stop offset="1" stop-color="#9b9b9b"/></linearGradient><linearGradient x1="81.3703" y1="169.39507" x2="80.03951" y2="169.64393" gradientUnits="userSpaceOnUse" id="color-30"><stop offset="0" stop-color="#5c5c5c"/><stop offset="1" stop-color="#9b9b9b"/></linearGradient><linearGradient x1="77.16204" y1="172.5723" x2="77.11745" y2="171.21916" gradientUnits="userSpaceOnUse" id="color-31"><stop offset="0" stop-color="#5c5c5c"/><stop offset="1" stop-color="#9b9b9b"/></linearGradient><linearGradient x1="59.007" y1="164.23568" x2="63.09411" y2="159.75473" gradientUnits="userSpaceOnUse" id="color-32"><stop offset="0" stop-color="#5c5c5c"/><stop offset="1" stop-color="#9b9b9b"/></linearGradient><linearGradient x1="71.52673" y1="159.10822" x2="69.9611" y2="158.80199" gradientUnits="userSpaceOnUse" id="color-33"><stop offset="0" stop-color="#5c5c5c"/><stop offset="1" stop-color="#9b9b9b"/></linearGradient><linearGradient x1="74.99102" y1="162.1109" x2="73.80661" y2="161.04217" gradientUnits="userSpaceOnUse" id="color-34"><stop offset="0" stop-color="#5c5c5c"/><stop offset="1" stop-color="#9b9b9b"/></linearGradient><linearGradient x1="74.97762" y1="166.2496" x2="73.79321" y2="165.18088" gradientUnits="userSpaceOnUse" id="color-35"><stop offset="0" stop-color="#5c5c5c"/><stop offset="1" stop-color="#9b9b9b"/></linearGradient><linearGradient x1="73.13979" y1="169.92591" x2="71.95537" y2="168.85723" gradientUnits="userSpaceOnUse" id="color-36"><stop offset="0" stop-color="#5c5c5c"/><stop offset="1" stop-color="#9b9b9b"/></linearGradient><linearGradient x1="87.28311" y1="170.64393" x2="86.18198" y2="171.43155" gradientUnits="userSpaceOnUse" id="color-37"><stop offset="0" stop-color="#5c5c5c"/><stop offset="1" stop-color="#9b9b9b"/></linearGradient><linearGradient x1="89.64041" y1="170.0768" x2="89.81851" y2="171.00714" gradientUnits="userSpaceOnUse" id="color-38"><stop offset="0" stop-color="#5c5c5c"/><stop offset="1" stop-color="#9b9b9b"/></linearGradient><linearGradient x1="83.74653" y1="169.87666" x2="83.51502" y2="170.7951" gradientUnits="userSpaceOnUse" id="color-39"><stop offset="0" stop-color="#5c5c5c"/><stop offset="1" stop-color="#9b9b9b"/></linearGradient><linearGradient x1="84.38442" y1="174.41863" x2="83.19929" y2="175.07313" gradientUnits="userSpaceOnUse" id="color-40"><stop offset="0" stop-color="#5c5c5c"/><stop offset="1" stop-color="#9b9b9b"/></linearGradient><linearGradient x1="86.79158" y1="174.12892" x2="86.8605" y2="175.07365" gradientUnits="userSpaceOnUse" id="color-41"><stop offset="0" stop-color="#5c5c5c"/><stop offset="1" stop-color="#9b9b9b"/></linearGradient><linearGradient x1="80.96076" y1="173.24611" x2="80.62424" y2="174.1315" gradientUnits="userSpaceOnUse" id="color-42"><stop offset="0" stop-color="#5c5c5c"/><stop offset="1" stop-color="#9b9b9b"/></linearGradient><linearGradient x1="88.49129" y1="165.42494" x2="87.52249" y2="166.37061" gradientUnits="userSpaceOnUse" id="color-43"><stop offset="0" stop-color="#5c5c5c"/><stop offset="1" stop-color="#9b9b9b"/></linearGradient><linearGradient x1="90.66684" y1="164.8617" x2="90.98408" y2="165.75417" gradientUnits="userSpaceOnUse" id="color-44"><stop offset="0" stop-color="#5c5c5c"/><stop offset="1" stop-color="#9b9b9b"/></linearGradient><linearGradient x1="82.45743" y1="165.08807" x2="81.17986" y2="165.53605" gradientUnits="userSpaceOnUse" id="color-45"><stop offset="0" stop-color="#5c5c5c"/><stop offset="1" stop-color="#9b9b9b"/></linearGradient><linearGradient x1="84.87925" y1="165.2034" x2="84.78984" y2="166.14637" gradientUnits="userSpaceOnUse" id="color-46"><stop offset="0" stop-color="#5c5c5c"/><stop offset="1" stop-color="#9b9b9b"/></linearGradient><linearGradient x1="79.30402" y1="163.46432" x2="78.81866" y2="164.27772" gradientUnits="userSpaceOnUse" id="color-47"><stop offset="0" stop-color="#5c5c5c"/><stop offset="1" stop-color="#9b9b9b"/></linearGradient><linearGradient x1="78.49989" y1="167.3114" x2="77.89669" y2="168.04169" gradientUnits="userSpaceOnUse" id="color-48"><stop offset="0" stop-color="#5c5c5c"/><stop offset="1" stop-color="#9b9b9b"/></linearGradient><linearGradient x1="76.0473" y1="170.08925" x2="75.36342" y2="170.74466" gradientUnits="userSpaceOnUse" id="color-49"><stop offset="0" stop-color="#5c5c5c"/><stop offset="1" stop-color="#9b9b9b"/></linearGradient><linearGradient x1="46.34879" y1="157.17735" x2="45.79372" y2="160.67071" gradientUnits="userSpaceOnUse" id="color-50"><stop offset="0" stop-color="#5c5c5c"/><stop offset="1" stop-color="#9b9b9b"/></linearGradient><linearGradient x1="132.62563" y1="83.53593" x2="131.38995" y2="84.43833" gradientUnits="userSpaceOnUse" id="color-51"><stop offset="0" stop-color="#5c5c5c"/><stop offset="1" stop-color="#9b9b9b"/></linearGradient><linearGradient x1="132.59589" y1="80.5942" x2="131.52558" y2="80.57304" gradientUnits="userSpaceOnUse" id="color-52"><stop offset="0" stop-color="#5c5c5c"/><stop offset="1" stop-color="#9b9b9b"/></linearGradient><linearGradient x1="132.21247" y1="90.6451" x2="131.01101" y2="91.59262" gradientUnits="userSpaceOnUse" id="color-53"><stop offset="0" stop-color="#5c5c5c"/><stop offset="1" stop-color="#9b9b9b"/></linearGradient><linearGradient x1="132.19506" y1="87.60327" x2="131.12732" y2="87.52606" gradientUnits="userSpaceOnUse" id="color-54"><stop offset="0" stop-color="#5c5c5c"/><stop offset="1" stop-color="#9b9b9b"/></linearGradient><linearGradient x1="131.85123" y1="94.63758" x2="130.78111" y2="94.60787" gradientUnits="userSpaceOnUse" id="color-55"><stop offset="0" stop-color="#5c5c5c"/><stop offset="1" stop-color="#9b9b9b"/></linearGradient><linearGradient x1="125.81553" y1="104.31238" x2="125.89405" y2="106.1137" gradientUnits="userSpaceOnUse" id="color-56"><stop offset="0" stop-color="#5c5c5c"/><stop offset="1" stop-color="#9b9b9b"/></linearGradient><linearGradient x1="128.19642" y1="99.71033" x2="127.33614" y2="101.29488" gradientUnits="userSpaceOnUse" id="color-57"><stop offset="0" stop-color="#5c5c5c"/><stop offset="1" stop-color="#9b9b9b"/></linearGradient><linearGradient x1="132.74714" y1="98.62814" x2="131.88689" y2="100.2127" gradientUnits="userSpaceOnUse" id="color-58"><stop offset="0" stop-color="#5c5c5c"/><stop offset="1" stop-color="#9b9b9b"/></linearGradient><linearGradient x1="137.27344" y1="99.67301" x2="136.41314" y2="101.25757" gradientUnits="userSpaceOnUse" id="color-59"><stop offset="0" stop-color="#5c5c5c"/><stop offset="1" stop-color="#9b9b9b"/></linearGradient><linearGradient x1="124.54033" y1="84.13004" x2="123.58296" y2="85.32365" gradientUnits="userSpaceOnUse" id="color-60"><stop offset="0" stop-color="#5c5c5c"/><stop offset="1" stop-color="#9b9b9b"/></linearGradient><linearGradient x1="123.74387" y1="81.29801" x2="122.70513" y2="81.55692" gradientUnits="userSpaceOnUse" id="color-61"><stop offset="0" stop-color="#5c5c5c"/><stop offset="1" stop-color="#9b9b9b"/></linearGradient><linearGradient x1="125.99681" y1="91.10065" x2="125.08428" y2="92.32889" gradientUnits="userSpaceOnUse" id="color-62"><stop offset="0" stop-color="#5c5c5c"/><stop offset="1" stop-color="#9b9b9b"/></linearGradient><linearGradient x1="125.18615" y1="88.16879" x2="124.13526" y2="88.37291" gradientUnits="userSpaceOnUse" id="color-63"><stop offset="0" stop-color="#5c5c5c"/><stop offset="1" stop-color="#9b9b9b"/></linearGradient><linearGradient x1="126.69005" y1="95.04905" x2="125.64925" y2="95.29965" gradientUnits="userSpaceOnUse" id="color-64"><stop offset="0" stop-color="#5c5c5c"/><stop offset="1" stop-color="#9b9b9b"/></linearGradient><linearGradient x1="118.33934" y1="103.76911" x2="118.79158" y2="105.51452" gradientUnits="userSpaceOnUse" id="color-65"><stop offset="0" stop-color="#5c5c5c"/><stop offset="1" stop-color="#9b9b9b"/></linearGradient><linearGradient x1="115.42928" y1="101.93834" x2="114.81365" y2="103.0394" gradientUnits="userSpaceOnUse" id="color-66"><stop offset="0" stop-color="#5c5c5c"/><stop offset="1" stop-color="#9b9b9b"/></linearGradient><linearGradient x1="122.47465" y1="106.05242" x2="121.93504" y2="107.19268" gradientUnits="userSpaceOnUse" id="color-67"><stop offset="0" stop-color="#5c5c5c"/><stop offset="1" stop-color="#9b9b9b"/></linearGradient><linearGradient x1="140.11933" y1="85.24585" x2="138.73263" y2="85.89261" gradientUnits="userSpaceOnUse" id="color-68"><stop offset="0" stop-color="#5c5c5c"/><stop offset="1" stop-color="#9b9b9b"/></linearGradient><linearGradient x1="140.65823" y1="82.35373" x2="139.61216" y2="82.12627" gradientUnits="userSpaceOnUse" id="color-69"><stop offset="0" stop-color="#5c5c5c"/><stop offset="1" stop-color="#9b9b9b"/></linearGradient><linearGradient x1="138.34102" y1="92.14138" x2="136.9792" y2="92.83904" gradientUnits="userSpaceOnUse" id="color-70"><stop offset="0" stop-color="#5c5c5c"/><stop offset="1" stop-color="#9b9b9b"/></linearGradient><linearGradient x1="138.91136" y1="89.15345" x2="137.87864" y2="88.87149" gradientUnits="userSpaceOnUse" id="color-71"><stop offset="0" stop-color="#5c5c5c"/><stop offset="1" stop-color="#9b9b9b"/></linearGradient><linearGradient x1="137.21556" y1="95.98894" x2="136.1713" y2="95.75312" gradientUnits="userSpaceOnUse" id="color-72"><stop offset="0" stop-color="#5c5c5c"/><stop offset="1" stop-color="#9b9b9b"/></linearGradient><linearGradient x1="401.30075" y1="71.46755" x2="345.95198" y2="64.87181" gradientUnits="userSpaceOnUse" id="color-73"><stop offset="0" stop-color="#8b8b8b"/><stop offset="1" stop-color="#7c7c7c"/></linearGradient><linearGradient x1="366.31496" y1="59.14949" x2="366.31496" y2="62.91106" gradientUnits="userSpaceOnUse" id="color-74"><stop offset="0" stop-color="#8b8b8b"/><stop offset="1" stop-color="#7c7c7c"/></linearGradient><linearGradient x1="331.15116" y1="53.62355" x2="331.15116" y2="64.02355" gradientUnits="userSpaceOnUse" id="color-75"><stop offset="0" stop-color="#8b8b8b"/><stop offset="1" stop-color="#7c7c7c"/></linearGradient><linearGradient x1="331.30062" y1="64.85099" x2="331.30062" y2="83.98294" gradientUnits="userSpaceOnUse" id="color-76"><stop offset="0" stop-color="#7c7c7c"/><stop offset="1" stop-color="#5a5a5a"/></linearGradient><linearGradient x1="240.81081" y1="-58.21621" x2="240.81081" y2="39.38138" gradientUnits="userSpaceOnUse" id="color-77"><stop offset="0" stop-color="#505050"/><stop offset="1" stop-color="#505050" stop-opacity="0"/></linearGradient><linearGradient x1="312.38396" y1="74.41697" x2="323.88396" y2="74.41697" gradientUnits="userSpaceOnUse" id="color-78"><stop offset="0" stop-color="#7c7c7c"/><stop offset="1" stop-color="#5a5a5a"/></linearGradient></defs><g transform="translate(71.6967,71.25899)"><g data-paper-data="{&quot;isPaintingLayer&quot;:true}" fill-rule="nonzero" stroke-linejoin="miter" stroke-miterlimit="10" stroke-dasharray="" stroke-dashoffset="0" style="mix-blend-mode: normal"><path d="M-45.03602,280.09236v-351.35135h572.07207v351.35135z" fill="url(#color-1)" stroke="none" stroke-width="0" stroke-linecap="butt"/><path d="M299.76097,255.3966v-204h136v204z" fill="#3c3c3c" stroke="none" stroke-width="0" stroke-linecap="butt"/><path d="M311.66433,249.98098v-185.83727c0,0 64.25951,0 84.9281,0c11.88286,0 28.0719,0 28.0719,0v185.83727z" fill="#000000" stroke="none" stroke-width="0" stroke-linecap="butt"/><path d="M310.66433,250.48098v-185.83727h64v185.83727z" fill="url(#color-2)" stroke="none" stroke-width="0" stroke-linecap="butt"/><path d="M338.58334,159.66667v-72h14.83333v72z" fill="#000000" stroke="#3c3c3c" stroke-width="5" stroke-linecap="butt"/><path d="M366.34515,185.23166v-28h5.22805v28z" fill="url(#color-3)" stroke="none" stroke-width="0" stroke-linecap="butt"/><path d="M359.17111,171.51367v-4.92308h10.63037v4.92308z" fill="url(#color-4)" stroke="none" stroke-width="0" stroke-linecap="butt"/><path d="M340.66432,249.48098v-185.83727h46v185.83727z" fill="url(#color-5)" stroke="none" stroke-width="0" stroke-linecap="butt"/><path d="M-71.6967,390.74291v-146.67005h626.51651v146.67005z" fill="#6b6b6b" stroke="none" stroke-width="0" stroke-linecap="butt"/><g><path d="M24.66668,180.33338v-140.66667h108.66667v107.5873c-0.06874,0.54535 -0.07773,1.04369 0,1.52269v31.55668h-40.26113c-1.8102,-0.23433 -3.77782,-0.22501 -5.60961,0z" fill="#960000" stroke="#000000" stroke-width="1.5" stroke-linecap="butt"/><g><path d="M131.63601,111.989c0.67766,-0.04673 1.32644,0.0849 1.90038,0.35485c0.03935,0.14046 0.08193,0.28014 0.12786,0.41898c-0.68775,2.30227 -1.1141,4.59823 -1.35525,6.89464c-0.04752,0.00503 -0.09532,0.00922 -0.14339,0.01253c-2.12105,0.14624 -3.95905,-1.45464 -4.1053,-3.57571c-0.14625,-2.12105 1.45465,-3.95906 3.5757,-4.1053z" data-paper-data="{&quot;index&quot;:null}" fill="url(#color-6)" stroke="none" stroke-width="0" stroke-linecap="butt"/><path d="M60.15237,138.61583l0.4914,-3.50655l35.39934,4.96071l-0.49139,3.50654z" fill="url(#color-7)" stroke="none" stroke-width="0" stroke-linecap="butt"/><path d="M64.15573,136.77686c-0.26493,1.8905 -2.01223,3.20829 -3.90273,2.94336c-1.8905,-0.26493 -3.20829,-2.01224 -2.94336,-3.90275c0.26493,-1.8905 2.01224,-3.20829 3.90274,-2.94336c1.8905,0.26493 3.20828,2.01225 2.94335,3.90275z" fill="url(#color-8)" stroke="none" stroke-width="0" stroke-linecap="butt"/><path d="M31.20247,151.08905c2.12105,-0.14624 3.95906,1.45466 4.10531,3.5757c0.14624,2.12105 -1.45466,3.95907 -3.5757,4.10531c-2.12105,0.14624 -3.95906,-1.45465 -4.1053,-3.57571c-0.14624,-2.12105 1.45465,-3.95906 3.5757,-4.1053z" data-paper-data="{&quot;index&quot;:null}" fill="url(#color-9)" stroke="none" stroke-width="0" stroke-linecap="butt"/><g data-paper-data="{&quot;index&quot;:null}" stroke-linecap="butt"><path d="M30.68378,150.07567c0,0 8.26466,-6.74579 12.60554,-9.62049c4.22427,-2.79747 13.39787,-6.96359 13.39787,-6.96359l5.22254,7.67701c0,0 -7.06141,6.58528 -11.21479,9.3358c-4.40064,2.91427 -14.34098,7.90632 -14.34098,7.90632z" fill="#696969" stroke="#000000" stroke-width="2"/><path d="M32.69917,152.78384l25.51197,-16.89494l1.98954,2.92458l-25.51195,16.89493z" fill="url(#color-10)" stroke="none" stroke-width="0"/><path d="M34.81436,156.70635c-0.46506,-0.18547 0.03778,-0.7126 0.03778,-0.7126l0.72123,-0.74497c0.58223,-1.10551 0.7083,-2.09501 1.14408,-3.18171c0.28956,-0.72209 0.82725,-1.44168 1.15966,-2.15988c0.36363,-0.78564 0.4326,-1.51925 1.13371,-2.32905c1.76601,-2.03979 5.10347,-3.54345 7.11656,-3.29874c1.15944,0.08364 2.44336,-0.04389 3.57287,0.07437c0.19025,0.01993 0.98538,0.19084 1.38465,0.04928c0.64058,-0.22711 1.73195,-1.40259 2.06513,-1.76206c1.86943,-2.01695 2.52518,-4.26478 4.33178,-6.32499c0,0 0.47592,-0.5367 0.96849,-0.38114c0.49257,0.15557 0.01665,0.69228 0.01665,0.69228c-1.85259,2.05885 -2.4481,4.30277 -4.35198,6.34746c-0.69832,0.74997 -1.95459,2.03104 -3.05021,2.42416c-1.10803,0.39758 -1.82623,0.02021 -2.72333,0.0128c-1.00056,-0.00826 -2.00641,0.04984 -2.97496,-0.02044c-1.45302,-0.20398 -4.0499,0.95613 -5.34532,2.46925c-0.55434,0.64748 -0.57931,1.29823 -0.8713,1.92717c-0.32592,0.70201 -0.85892,1.41047 -1.1397,2.11378c-0.48612,1.21766 -0.64542,2.27442 -1.34011,3.52161l-0.8878,0.94177c0,0 -0.50284,0.52714 -0.96791,0.34167z" fill="#000000" stroke="none" stroke-width="0.5"/><path d="M30.68378,150.07567c0,0 8.26466,-6.74579 12.60554,-9.62049c4.22427,-2.79747 13.39787,-6.96359 13.39787,-6.96359l5.22254,7.67701c0,0 -7.06141,6.58528 -11.21479,9.3358c-4.40064,2.91427 -14.34098,7.90632 -14.34098,7.90632z" fill="#ff0000" stroke="#000000" stroke-width="2"/></g><path d="M100.26461,142.70241c-0.28406,2.02706 -2.1576,3.44003 -4.18464,3.15597c-2.02705,-0.28406 -3.44003,-2.1576 -3.15597,-4.18465c0.28406,-2.02706 2.15759,-3.44003 4.18465,-3.15596c2.02705,0.28406 3.44003,2.15758 3.15596,4.18464z" fill="url(#color-11)" stroke="none" stroke-width="0" stroke-linecap="butt"/><path d="M132.3685,145.67282c0.14625,2.12106 -1.45465,3.95906 -3.5757,4.1053c-2.12105,0.14624 -3.95906,-1.45465 -4.1053,-3.5757c-0.14625,-2.12105 1.45466,-3.95906 3.57571,-4.1053c2.12104,-0.14624 3.95905,1.45464 4.1053,3.5757z" data-paper-data="{&quot;index&quot;:null}" fill="url(#color-12)" stroke="none" stroke-width="0" stroke-linecap="butt"/><g stroke-linecap="butt"><path d="M128.03712,151.99624c0,0 -11.12344,0.00786 -16.36435,-0.61779c-4.94643,-0.5905 -14.21409,-3.29974 -14.21409,-3.29974l1.21522,-9.20515c0,0 10.06731,-0.40109 15.09817,0.19949c5.16974,0.61715 15.58442,2.92903 15.58442,2.92903z" fill="#696969" stroke="#000000" stroke-width="2"/><path d="M128.31022,148.83386l-30.38326,-3.62709l0.46294,-3.50673l30.38328,3.62708z" fill="url(#color-13)" stroke="none" stroke-width="0"/><path d="M128.64648,149.78179c-0.3321,0.37469 -1.0182,0.12978 -1.0182,0.12978l-1.21634,-0.44231c-1.1811,-0.80195 -1.79832,-1.67439 -2.77982,-2.54367c-0.56691,-0.50208 -1.36144,-0.89543 -1.96809,-1.37608c-0.5435,-0.43061 -0.85827,-1.00071 -1.64445,-1.33c-1.83725,-0.76952 -4.67847,-0.63879 -5.88482,0.19645c-0.83364,0.49808 -1.7583,0.89821 -2.64841,1.35527c-0.79806,0.40979 -1.27006,1.06969 -2.43856,1.21248c-1.15542,0.14121 -2.85342,-0.43862 -3.81429,-0.79474c-2.61969,-0.97093 -4.16013,-2.70783 -6.74038,-3.71447c0,0 -0.66636,-0.26556 -0.29624,-0.62591c0.37011,-0.36034 1.03647,-0.09479 1.03647,-0.09479c2.53978,1.02851 4.13578,2.74184 6.71223,3.70347c0.45918,0.17139 1.96242,0.73099 2.63673,0.64598c0.42031,-0.05298 1.05381,-0.56302 1.21479,-0.66631c0.95587,-0.61327 2.16014,-1.07636 3.15831,-1.67216c1.68836,-1.12331 5.34555,-1.27998 7.83989,-0.25147c0.99025,0.40831 1.38155,1.03267 2.05948,1.57108c0.61973,0.4922 1.42346,0.89338 2.00664,1.4083c0.87768,0.77492 1.435,1.60221 2.45195,2.32812l0.97909,0.34136c0,0 0.6861,0.24491 0.35401,0.6196z" fill="#000000" stroke="none" stroke-width="0.5"/><path d="M128.03712,151.99624c0,0 -11.12344,0.00786 -16.36435,-0.61779c-4.94643,-0.5905 -14.21409,-3.29974 -14.21409,-3.29974l1.21522,-9.20515c0,0 10.06731,-0.40109 15.09817,0.19949c5.16974,0.61715 15.58442,2.92903 15.58442,2.92903z" fill="#ff0000" stroke="#000000" stroke-width="2"/></g><path d="M79.99259,131.32009c7.46438,1.26396 21.72437,18.02291 19.18497,36.14401c-0.59806,4.26772 -1.76004,8.26236 -3.35874,11.85181c-0.87277,-0.21686 -1.70847,-0.26282 -2.44033,-0.06322c-0.51871,0.14147 -0.97109,0.42266 -1.40168,0.75251c-0.45163,-0.18882 -0.9024,-0.37948 -1.35636,-0.4502c-0.61542,-0.09588 -1.71215,0.18424 -2.83517,0.45819c-1.26879,-0.10409 -2.53203,-0.09816 -3.78669,0.10415c-3.09521,-1.34181 -8.96262,-1.66047 -12.02119,-0.84241c-1.17283,0.31369 -2.28364,0.53325 -3.29149,0.81602c-0.46436,-0.01351 -0.93037,-0.02019 -1.39825,-0.01895c-2.62594,-0.21192 -5.17633,-0.25679 -7.5496,0.04354c-0.28753,-0.17403 -0.58982,-0.29449 -0.92556,-0.30056c-0.1959,-0.00354 -0.49688,0.07234 -0.87138,0.2083c-1.0331,-0.36098 -2.14351,-0.55722 -3.29976,-0.55722c-0.45378,0 -0.9005,0.03023 -1.33826,0.08877c-0.33973,-0.54229 -0.59329,-1.10465 -0.75023,-1.68562c-1.39487,-5.16375 -1.79078,-11.00879 -0.94128,-17.07082c2.53941,-18.1211 19.56641,-30.97092 28.38099,-29.47833z" fill="#696969" stroke="#000000" stroke-width="2" stroke-linecap="butt"/><path d="M74.56342,158.71128l17.84602,-18.39423l2.5413,2.46557l-17.84602,18.39422z" fill="url(#color-14)" stroke="none" stroke-width="0" stroke-linecap="butt"/><path d="M75.3418,161.27029l-12.10252,-22.59109l3.12113,-1.67206l12.10253,22.59109z" data-paper-data="{&quot;index&quot;:null}" fill="url(#color-15)" stroke="none" stroke-width="0" stroke-linecap="butt"/><path d="M74.55908,157.30489l4.17445,0.58499l-2.9346,20.94115c-1.44976,0.02257 -2.79411,0.16911 -3.82152,0.44391c-0.17334,0.04636 -0.34532,0.09067 -0.51581,0.13342z" fill="url(#color-16)" stroke="none" stroke-width="0" stroke-linecap="butt"/><path d="M79.38859,157.72339c0.20754,-0.59726 0.80479,-0.38974 0.80479,-0.38974l0.46428,0.17729c0.21945,0.13769 0.43889,0.27536 0.65834,0.41305c1.07317,1.14396 2.06161,2.59687 2.96227,3.99367c0.47087,-0.15681 0.90574,-0.43001 1.27856,-0.8635c0.87171,-1.0136 0.26909,-2.34832 0.25834,-3.49215c-0.01309,-1.39347 0.56006,-2.74786 0.58064,-4.14262c0.02999,-2.032 -1.19785,-4.30824 -2.25399,-5.98144c-1.00484,-1.62088 -3.23829,-2.17202 -3.97672,-3.87836c-0.62249,-1.43844 0.09961,-3.00491 -0.23066,-4.449c-0.16502,0.57856 -0.43742,1.11612 -0.85391,1.59162c-1.02758,1.17324 -2.99031,2.18882 -4.3903,2.79443c-0.90909,0.39325 -2.51729,0.58965 -3.27747,1.26177c-0.58478,0.51703 -0.80414,1.33819 -1.21831,1.99981c-1.62717,2.59925 -4.08991,5.48199 -1.30488,8.11191c0.62589,0.59103 1.18168,0.9802 2.04207,1.08306l0.27945,0.03916c0,0 0.62617,0.08774 0.53842,0.71391c-0.08775,0.62617 -0.71392,0.53842 -0.71392,0.53842l-0.27944,-0.03916c-2.2484,-0.34842 -5.1216,-3.08445 -4.54676,-5.6354c0.43252,-1.91934 1.88533,-3.84099 2.91318,-5.48291c0.11894,-0.19001 1.36954,-2.20328 1.4657,-2.28765c0.89128,-0.78197 2.53765,-1.00607 3.60076,-1.46395c1.24447,-0.536 3.03556,-1.44881 3.95726,-2.48569c0.88437,-0.99491 0.88896,-2.53016 0.62683,-4.10418c-0.64523,-1.43161 -1.48706,-2.77599 -2.57101,-3.81066c0,0 -0.45548,-0.43856 -0.01692,-0.89402c0.43855,-0.45548 0.89403,-0.01693 0.89403,-0.01693c0.28446,0.27599 0.55561,0.57114 0.81343,0.88221c-0.03068,-0.14623 -0.05785,-0.28723 -0.0806,-0.42219c0,0 -0.10508,-0.6235 0.51842,-0.72858c0.62349,-0.10508 0.72857,0.51842 0.72857,0.51842c0.19429,1.15277 0.58289,2.50522 0.83886,3.86996c0.5368,1.15732 0.94859,2.37 1.23494,3.54534c0.34924,1.43346 -0.35126,3.00185 0.20392,4.39457c0.33087,0.83003 1.518,1.18586 2.15995,1.68573c0.69209,0.53892 1.24488,1.25522 1.71569,1.99533c1.18996,1.90006 2.47617,4.3744 2.4479,6.66671c-0.01722,1.39646 -0.59832,2.7558 -0.58066,4.14424c0.01954,1.5356 0.60942,2.92017 -0.54606,4.28142c-0.46478,0.54755 -0.99385,0.91432 -1.5626,1.14472c0.01671,0.02624 0.03339,0.05244 0.05003,0.07857c0.64364,1.01065 0.99412,2.03552 1.94481,2.81743c2.96042,2.43484 4.20891,-2.68949 4.05725,-4.69483c-1.12805,-5.3244 -2.76025,-10.98541 0.85025,-15.85413c0.51664,-0.6967 1.17728,-1.20364 1.86298,-1.68815c-0.00857,0.31737 0.22253,0.59735 0.54438,0.64245c0.0372,0.00521 0.0741,0.00708 0.11039,0.00582c0.03694,0.10787 0.10249,0.20376 0.18881,0.27731c-0.63079,0.43699 -1.23818,0.89843 -1.69137,1.51656c-3.36501,4.58984 -1.65631,9.93899 -0.61341,14.92263c0.095,1.29497 0.14429,2.83356 -0.42995,4.04357c-1.09566,2.30872 -3.55102,3.51252 -5.68083,1.80695c-1.07977,-0.8647 -1.49391,-1.98812 -2.20991,-3.1162c-0.09445,-0.14881 -0.19013,-0.30026 -0.28704,-0.45364c-1.45263,0.12915 -3.02645,-0.32343 -4.39453,-0.76813c-0.25519,-0.10843 -0.51039,-0.21688 -0.76558,-0.32531l0.02026,0.02486c0,0 -0.62617,-0.08775 -0.53842,-0.71393c0.08775,-0.62617 0.71392,-0.53842 0.71392,-0.53842l0.29968,0.06401c0.23774,0.10146 0.4755,0.20294 0.71326,0.3044c0.94681,0.30591 2.08712,0.68866 3.17522,0.73464c-0.73474,-1.13303 -1.52894,-2.27638 -2.37621,-3.18594c-0.17391,-0.10521 -0.34782,-0.21042 -0.52171,-0.31562l-0.21495,-0.05874c0,0 -0.59725,-0.20753 -0.38973,-0.80478z" fill="#000000" stroke="none" stroke-width="0.5" stroke-linecap="butt"/><path d="M73.82664,160.72802c0.19878,0.60023 -0.40145,0.799 -0.40145,0.799l-0.41857,0.10468c-1.1426,0.83676 -1.92092,2.07733 -2.82011,3.17854c-3.27799,3.97567 -9.23009,2.6059 -10.86769,-2.23537c-0.9198,-2.71923 0.88195,-6.47587 2.63575,-8.42708c2.67789,-3.35682 3.33262,-6.44286 2.83938,-10.64335c-0.12547,-1.06852 -0.48033,-2.73491 -1.35317,-3.63506c0.18029,-0.09671 0.27724,-0.26613 0.27724,-0.26613c0.13818,-0.24871 0.30208,-0.4885 0.49391,-0.70061c0.85733,0.82688 1.32637,2.07796 1.61928,3.2879c1.15892,4.78728 0.12003,8.95928 -2.91144,12.7743c-1.51294,1.68043 -2.73211,4.32012 -2.56611,6.67743c0.04629,0.65736 0.49397,1.23613 0.8702,1.72536c0.6673,0.86772 1.34373,1.95314 2.43467,2.35769c2.15526,0.79925 4.20336,-0.049 5.5485,-1.71488c0.97758,-1.19717 1.81244,-2.46175 3.04402,-3.39273l0.77661,-0.29112c0,0 0.60022,-0.19878 0.799,0.40145z" fill="#000000" stroke="none" stroke-width="0.5" stroke-linecap="butt"/><path d="M77.6657,158.72999c0.62617,0.08775 0.53842,0.71392 0.53842,0.71392l-0.09957,0.47171c-0.64688,1.28794 -1.0213,2.7421 -1.79271,3.96769c-0.42368,0.67311 -1.52611,1.5201 -1.56466,2.42948c-0.03968,0.93582 0.77005,1.89054 1.25317,2.60524c1.08992,1.61234 2.49872,2.9414 3.63055,4.53527c0.1702,0.70467 0.46505,1.42897 0.21412,2.1719c-0.5034,1.49044 -2.05104,2.45826 -3.72133,3.20286c-1.57303,0.00449 -3.04255,0.15168 -4.14628,0.44689c-0.26734,0.07151 -0.53144,0.13811 -0.79185,0.2017c0.31083,-0.14047 0.56307,-0.25216 0.65947,-0.29572c2.19921,-0.9937 7.35017,-2.0639 6.63593,-5.20153c-1.57091,-2.12294 -5.14315,-4.82229 -4.99466,-7.76315c0.06202,-1.22829 1.16936,-2.08065 1.76318,-3.0189c0.74638,-1.17929 1.10239,-2.60379 1.72446,-3.84819l-0.02215,-0.08075c0,0 0.08774,-0.62617 0.71391,-0.53842z" fill="#000000" stroke="none" stroke-width="0.5" stroke-linecap="butt"/><g><path d="M66.47155,163.68558l2.38675,-17.03176l17.74141,2.4862l-2.38675,17.03176z" fill="#323232" stroke="none" stroke-width="0" stroke-linecap="butt"/><g stroke="#000000"><path d="M77.49392,149.09058c3.79021,0.53115 6.43222,4.0343 5.90107,7.82452c-0.53115,3.79021 -4.03431,6.43222 -7.82451,5.90107c-3.79021,-0.53115 -6.43222,-4.03431 -5.90107,-7.82451c0.53115,-3.79021 4.03431,-6.43222 7.82451,-5.90107z" fill="#878787" stroke-width="1" stroke-linecap="butt"/><path d="M71.86835,151.05584l10.6012,1.41263" fill="none" stroke-width="1.5" stroke-linecap="round"/><path d="M83.1291,154.53103l-12.37019,-1.80647" fill="none" stroke-width="1.5" stroke-linecap="round"/><path d="M83.10311,156.27855l-13.19886,-2.1415" fill="none" stroke-width="1.5" stroke-linecap="round"/><path d="M69.71846,155.67986l13.43359,2.02845" fill="none" stroke-width="1.5" stroke-linecap="round"/><path d="M74.40523,149.65508l6.15454,0.94106" fill="none" stroke-width="1.5" stroke-linecap="round"/><path d="M70.61225,159.41196l10.58114,1.55577" data-paper-data="{&quot;index&quot;:null}" fill="none" stroke-width="1.5" stroke-linecap="round"/><path d="M70.00421,157.50254l12.39025,1.66335" data-paper-data="{&quot;index&quot;:null}" fill="none" stroke-width="1.5" stroke-linecap="round"/><path d="M72.66636,161.45608l6.17614,0.78692" data-paper-data="{&quot;index&quot;:null}" fill="none" stroke-width="1.5" stroke-linecap="round"/></g></g><g stroke="#000000" stroke-width="2" stroke-linecap="butt"><path d="M80.13617,131.51047c0.10062,0.00153 -0.95331,6.75292 -2.13348,17.15554c-0.46281,-0.22418 -7.65599,-0.70184 -8.6018,6.17804c-0.67022,7.03111 5.7887,8.40779 6.46505,8.20513c-0.64906,5.7392 -1.50778,11.15374 -2.32358,15.93171c-0.57323,0.07216 -1.10136,0.17004 -1.56496,0.29404c-1.17283,0.31369 -2.28364,0.53325 -3.29149,0.81602c-0.46436,-0.01351 -0.93037,-0.02019 -1.39825,-0.01895c-2.62594,-0.21192 -5.17633,-0.25679 -7.5496,0.04354c-0.28753,-0.17403 -0.58982,-0.29449 -0.92556,-0.30056c-0.1959,-0.00354 -0.49688,0.07234 -0.87138,0.2083c-1.0331,-0.36098 -2.14351,-0.55722 -3.29976,-0.55722c-0.38245,0 -0.7599,0.02147 -1.13118,0.06327c-0.42858,-0.56415 -0.70568,-1.06972 -0.81373,-1.46974c-1.39488,-5.16375 -1.79078,-11.0088 -0.94128,-17.07083c2.53941,-18.1211 19.56642,-30.9709 28.38099,-29.47831z" fill="#ff0000"/><path d="M51.97928,176.50253c0,0 -3.13924,-14.46627 2.24152,-25.50128c6.25395,-12.82577 20.88798,-19.26995 20.88798,-19.26995c0,0 -8.5961,10.31357 -9.54023,17.05084c-1.20353,8.58837 -4.10663,29.30463 -4.10663,29.30463z" fill="#000000"/></g><g data-paper-data="{&quot;index&quot;:null}" stroke="#000000" stroke-width="2" stroke-linecap="butt"><path d="M99.25449,167.64515c-0.59004,4.21049 -1.72899,8.15519 -3.29467,11.7072c-0.92365,-0.24763 -1.81014,-0.30996 -2.58132,-0.09964c-0.51871,0.14147 -0.97109,0.42266 -1.40168,0.75251c-0.45163,-0.18882 -0.9024,-0.37948 -1.35636,-0.4502c-0.61542,-0.09588 -1.71215,0.18424 -2.83517,0.45819c-1.26879,-0.10409 -2.53203,-0.09816 -3.78669,0.10415c-2.67749,-1.16073 -7.42941,-1.55582 -10.6431,-1.11179c0.52987,-4.83052 1.1938,-10.29052 2.15061,-16.00679c0.59458,0.38075 7.18312,0.83249 8.47139,-6.11201c0.98171,-6.87484 -6.06567,-8.3928 -6.57228,-8.30447c1.72469,-10.32632 2.56714,-17.10735 2.66431,-17.08115c8.88531,0.98779 21.72438,18.0229 19.18496,36.14401z" fill="#ff0000"/><path d="M89.32849,152.11172c0.94413,-6.73727 -4.48593,-19.0164 -4.48593,-19.0164c0,0 12.29899,10.21845 14.78659,24.26922c1.50187,8.48311 -1.49445,17.43755 -3.41554,22.02461c-0.02807,0.00342 -0.05611,0.00696 -0.08411,0.01062c-0.98459,-0.28644 -1.93271,-0.37025 -2.751,-0.14708c-0.51871,0.14147 -0.97109,0.42266 -1.40168,0.75251c-0.45163,-0.18882 -0.9024,-0.37948 -1.35636,-0.4502c-0.61542,-0.09588 -1.71215,0.18424 -2.83517,0.45819c-0.78919,-0.06474 -1.57622,-0.08692 -2.36038,-0.04576c0.68014,-4.85344 2.89209,-20.63775 3.90358,-27.85572z" fill="#000000"/></g><g fill="#8b0000" stroke="#000000" stroke-width="2" stroke-linecap="butt"><path d="M78.1941,142.74163c-0.26493,1.8905 -2.46079,3.14542 -4.9046,2.80295c-2.44381,-0.34247 -4.71325,1.43739 -3.94523,-4.04313c0.79142,-5.6475 2.4608,-3.14543 4.90461,-2.80296c2.44381,0.34247 4.21015,2.15265 3.94522,4.04314z"/><path d="M83.65972,140.18755c2.44381,0.34247 4.73663,-1.60437 3.94522,4.04313c-0.76802,5.48052 -2.46079,3.14543 -4.9046,2.80296c-2.44381,-0.34247 -4.21016,-2.15265 -3.94523,-4.04314c0.26493,-1.8905 2.4608,-3.14542 4.90461,-2.80295z" data-paper-data="{&quot;index&quot;:null}"/><path d="M81.78414,143.24469c-0.27139,1.9366 -2.02395,3.29178 -3.91444,3.02685c-1.8905,-0.26493 -3.20305,-2.04962 -2.93166,-3.98623c0.27139,-1.9366 2.02396,-3.29177 3.91445,-3.02685c1.8905,0.26493 3.20304,2.04962 2.93165,3.98622z"/></g><path d="M81.81368,105.48417c12.08238,-0.00482 21.88034,8.14411 21.88434,18.20112c0.00401,10.05702 -9.78746,18.21374 -21.86984,18.21855c-12.08238,0.00482 -21.88034,-8.14411 -21.88435,-18.20112c-0.00401,-10.05702 9.78746,-18.21374 21.86985,-18.21856z" fill="#696969" stroke="#000000" stroke-width="2" stroke-linecap="butt"/><path d="M82.00257,108.32631c10.47605,-0.00418 18.97131,6.82421 18.97467,15.2516c0.00336,8.42741 -8.48644,15.26255 -18.96251,15.26673c-10.47606,0.00418 -18.9713,-6.82421 -18.97466,-15.25161c-0.00336,-8.42741 8.48643,-15.26255 18.9625,-15.26673z" fill="none" stroke="url(#color-17)" stroke-width="4.5" stroke-linecap="butt"/><g stroke="none" stroke-width="0" stroke-linecap="butt"><path d="M75.21567,125.76856l-0.00624,-15.68069l14.92194,-0.00594l0.00625,15.68069z" fill="url(#color-18)"/><path d="M87.73075,115.26763l-0.00181,-4.55245l1.7704,-0.00071l0.00181,4.55246z" fill="#ffffff"/><path d="M87.73282,120.45237l-0.00181,-4.55246l1.77039,-0.00071l0.00181,4.55246z" fill="#ffffff"/><path d="M87.73485,125.51065l-0.00181,-4.55246l1.7704,-0.00071l0.00181,4.55246z" fill="#ffffff"/><path d="M75.97016,115.14585l-0.00181,-4.55246l1.77041,-0.0007l0.00181,4.55246z" fill="#ffffff"/><path d="M75.97225,120.3306l-0.00181,-4.55246l1.77041,-0.0007l0.00181,4.55246z" fill="#ffffff"/><path d="M75.97427,125.38891l-0.00181,-4.55246l1.7704,-0.0007l0.00181,4.55246z" fill="#ffffff"/><path d="M83.09807,125.48722l-0.00061,-1.51749l3.41434,-0.00136l0.00061,1.51749z" fill="#ffffff"/><path d="M79.16102,125.46349l-0.0006,-1.51749l3.41435,-0.00136l0.00061,1.51749z" fill="#ffffff"/></g><path d="M60.19684,123.95555c-0.00401,-10.05702 9.78746,-18.21373 21.86985,-18.21855c6.31359,-0.00251 -16.468,3.03809 -16.74588,20.12176c-0.476,14.42445 16.98721,11.39239 15.80217,11.97954c1.57808,0.9808 1.58747,3.98091 0.03074,3.98153c-12.08238,0.00482 -20.95284,-7.80725 -20.95685,-17.86427z" fill="#ff0000" stroke="#000000" stroke-width="2" stroke-linecap="butt"/><path d="M104.42395,123.76931c0.00401,10.05702 -8.86024,17.87616 -20.94262,17.88097c-1.55673,0.00062 -1.54974,-2.99949 0.02756,-3.98155c1.44786,0.3531 15.90316,0.3633 15.79263,-11.99214c-0.29149,-17.08343 -23.07552,-20.10589 -16.76193,-20.1084c12.08239,-0.00482 21.88034,8.14411 21.88435,18.20112z" data-paper-data="{&quot;index&quot;:null}" fill="#ff0000" stroke="#000000" stroke-width="2" stroke-linecap="butt"/><path d="M82.47938,83.64297c16.2728,-0.00648 29.46829,9.4244 29.47293,21.06446c0.00464,11.64006 -4.91397,21.20371 -29.45613,21.08794c-25.92399,-0.12228 -29.46828,-9.42439 -29.47291,-21.06446c-0.00464,-11.64006 13.18331,-21.08146 29.45612,-21.08794z" fill="#696969" stroke="#000000" stroke-width="2" stroke-linecap="butt"/><path d="M73.4895,102.44058l-0.00337,-8.47263l18.08337,-0.0072l0.00338,8.47263z" fill="url(#color-19)" stroke="#000000" stroke-width="0" stroke-linecap="butt"/><path d="M75.89745,115.65309l-0.00651,-16.31297l13.15155,-0.00525l0.0065,16.31297z" fill="url(#color-20)" stroke="none" stroke-width="0" stroke-linecap="butt"/><path d="M75.36929,115.3537l-4.92925,-19.8842l3.06856,-0.76068l4.92925,19.8842z" fill="url(#color-21)" stroke="none" stroke-width="0" stroke-linecap="butt"/><path d="M86.38155,115.22213l4.9134,-19.88811l3.06916,0.75824l-4.91341,19.88813z" data-paper-data="{&quot;index&quot;:null}" fill="url(#color-22)" stroke="none" stroke-width="0" stroke-linecap="butt"/><path d="M72.23055,116.53974l-0.00186,-4.67891l20.61252,-0.00821l0.00186,4.67891z" fill="url(#color-23)" stroke="none" stroke-width="0" stroke-linecap="butt"/><path d="M69.12296,117.76799c-0.59905,0.20227 -0.80133,-0.39679 -0.80133,-0.39679l-0.06321,-0.21557c-0.32434,-0.60067 -0.6252,-1.43857 -1.10699,-1.94339c-0.18604,-0.19492 -0.90667,-0.51402 -1.05635,-0.63083c-2.05757,-1.60567 -5.41269,-4.49646 -3.4191,-7.28556c0.81993,-0.26728 3.38467,-0.55462 3.61733,-1.73707c0.3303,-1.67864 -0.85532,-3.03901 -0.07569,-4.8003c0.90296,-2.03995 3.33428,-3.12331 5.18796,-4.17156c0,0 0.55041,-0.3112 0.8616,0.2392c0.3112,0.55041 -0.2392,0.86159 -0.2392,0.86159c-1.56205,0.883 -3.88824,1.84762 -4.64961,3.57259c-0.94621,2.14374 1.41533,4.49394 -1.08396,6.13962c-0.26439,0.17408 -0.57236,0.27359 -0.87127,0.3778c-0.44177,0.15403 -1.50329,0.41656 -2.01049,0.54595c-0.46658,0.68916 0.17836,1.78109 0.54877,2.40868c0.97573,1.65318 2.81935,2.27738 4.08131,3.58282c0.58762,0.60789 0.93244,1.50649 1.32838,2.23955l0.14865,0.41193c0,0 0.20227,0.59906 -0.39679,0.80133z" fill="#000000" stroke="none" stroke-width="0.5" stroke-linecap="butt"/><path d="M64.44342,119.79511c-0.63204,-0.01782 -0.6142,-0.64986 -0.6142,-0.64986l0.0154,-0.22412c-0.09613,-0.67584 -0.08802,-1.56608 -0.36507,-2.20656c-0.10698,-0.24731 -0.67239,-0.79633 -0.77233,-0.95777c-1.37376,-2.21912 -3.51944,-6.09335 -0.68295,-8.01893c0.86176,0.03337 3.36717,0.65251 3.99513,-0.37609c0.89147,-1.46022 0.25066,-3.14711 1.59224,-4.52917c1.55385,-1.60072 4.20994,-1.77457 6.31199,-2.1156c0,0 0.62414,-0.10122 0.72534,0.52292c0.10121,0.62414 -0.52292,0.72533 -0.52292,0.72533c-1.77124,0.28707 -4.28756,0.38595 -5.59944,1.74025c-1.63037,1.6831 -0.22943,4.70595 -3.1441,5.38372c-0.30833,0.0717 -0.6317,0.05833 -0.94819,0.05252c-0.46777,-0.00859 -1.5545,-0.13012 -2.07512,-0.18447c-0.67645,0.4848 -0.44983,1.73256 -0.31981,2.44961c0.34249,1.88885 1.85562,3.11317 2.58709,4.775c0.34061,0.77382 0.35269,1.73624 0.47011,2.56108l-0.00328,0.43792c0,0 -0.01783,0.63203 -0.64988,0.6142z" fill="#000000" stroke="none" stroke-width="0.5" stroke-linecap="butt"/><path d="M94.48414,116.4509l0.14834,-0.41206c0.39537,-0.73337 0.73946,-1.63227 1.3266,-2.24061c1.26092,-1.30644 3.10403,-1.93211 4.07844,-3.58605c0.36991,-0.62787 1.01397,-1.72034 0.54685,-2.40912c-0.50731,-0.12899 -1.56904,-0.39067 -2.01094,-0.54435c-0.29899,-0.10397 -0.60703,-0.20324 -0.87156,-0.37711c-2.50059,-1.64369 -0.14092,-3.99577 -1.08885,-6.13874c-0.76274,-1.72436 -3.0897,-2.68712 -4.65245,-3.56889c0,0 -0.55066,-0.31076 -0.2399,-0.86141c0.31076,-0.55065 0.86142,-0.23989 0.86142,-0.23989c1.8545,1.04676 4.28668,2.1282 5.19128,4.16743c0.78102,1.76066 -0.4035,3.12198 -0.07187,4.80036c0.23361,1.18227 2.79857,1.46755 3.61872,1.73417c1.99582,2.78751 -1.357,5.68099 -3.41329,7.28828c-0.14959,0.11694 -0.86996,0.4366 -1.05584,0.63166c-0.48138,0.5052 -0.7816,1.34334 -1.10545,1.94427l-0.06304,0.21563c0,0 -0.20178,0.59922 -0.80101,0.39743c-0.59922,-0.20179 -0.39743,-0.80101 -0.39743,-0.80101z" data-paper-data="{&quot;index&quot;:null}" fill="#000000" stroke="none" stroke-width="0.5" stroke-linecap="butt"/><path d="M98.91238,118.6616l-0.00362,-0.43793c0.11677,-0.82493 0.1281,-1.78736 0.46808,-2.56145c0.73014,-1.66241 2.2423,-2.88792 2.58328,-4.77705c0.12945,-0.71715 0.35507,-1.9651 -0.32177,-2.44937c-0.52058,0.05479 -1.6072,0.17717 -2.07497,0.18614c-0.31649,0.00607 -0.63985,0.01969 -0.94823,-0.05175c-2.91521,-0.67545 -1.51666,-3.69943 -3.14839,-5.38122c-1.31296,-1.35327 -3.82936,-1.45013 -5.60082,-1.73579c0,0 -0.62422,-0.1007 -0.52351,-0.72492c0.10072,-0.62421 0.72493,-0.5235 0.72493,-0.5235c2.10231,0.33935 4.75854,0.51109 6.31367,2.11058c1.34268,1.38099 0.70322,3.0684 1.59585,4.5279c0.62878,1.0281 3.13369,0.40696 3.99543,0.37291c2.83803,1.92331 0.69545,5.79926 -0.67656,8.01947c-0.09981,0.16152 -0.6648,0.711 -0.77158,0.95839c-0.27654,0.64069 -0.26772,1.53094 -0.36331,2.20685l0.01556,0.22411c0,0 0.01835,0.63201 -0.61368,0.65035c-0.63202,0.01833 -0.65035,-0.61368 -0.65035,-0.61368z" data-paper-data="{&quot;index&quot;:null}" fill="#000000" stroke="none" stroke-width="0.5" stroke-linecap="butt"/><path d="M98.13072,95.94163c0.00143,3.57583 -2.98679,6.47579 -6.67437,6.47726c-3.68757,0.00147 -6.67808,-2.89612 -6.67951,-6.47194c-0.00143,-3.57583 2.98679,-6.47581 6.67435,-6.47728c3.68757,-0.00147 6.67809,2.89613 6.67952,6.47196z" data-paper-data="{&quot;index&quot;:null}" fill="#ff0000" stroke="#000000" stroke-width="2" stroke-linecap="butt"/><path d="M73.90135,89.30802c3.68758,-0.00147 6.67809,2.89613 6.67952,6.47195c0.00143,3.57583 -2.98679,6.4758 -6.67436,6.47727c-3.68758,0.00147 -6.67809,-2.89612 -6.67952,-6.47195c-0.00143,-3.57583 2.98678,-6.4758 6.67436,-6.47727z" fill="#ffffff" stroke="#000000" stroke-width="2" stroke-linecap="butt"/><path d="M73.95306,92.14068c1.81584,-0.00072 3.28849,1.53337 3.28925,3.42649c0.00075,1.89312 -1.47067,3.42838 -3.28652,3.4291c-1.81584,0.00072 -3.2885,-1.53337 -3.28926,-3.42648c-0.00075,-1.89312 1.47069,-3.42838 3.28653,-3.4291z" fill="#000000" stroke="none" stroke-width="0" stroke-linecap="butt"/><path d="M60.3452,120.59761l-0.00182,-4.55897l43.88065,-0.01748l0.00182,4.55897c0,0 -7.4438,5.16607 -21.50979,5.0604c-15.48509,-0.11634 -22.37086,-5.04291 -22.37086,-5.04291z" fill="url(#color-24)" stroke="none" stroke-width="0" stroke-linecap="butt"/><path d="M81.84709,83.55677c0.32955,-0.00014 0.47685,13.58771 0.43654,25.33421c-0.16679,-0.12802 -0.36928,-0.14334 -0.36928,-0.14334c-3.54011,-0.24996 -14.82943,-0.12189 -16.98281,-0.19393c-3.87295,-0.25872 -8.14636,0.04285 -11.84665,-1.42574c-0.04299,-0.82308 -0.06134,-1.65248 -0.06167,-2.48353c-0.00464,-11.64006 12.90024,-21.08134 28.82384,-21.08768zM66.19311,95.98265c-0.03189,2.79176 3.0824,7.07708 8.34986,7.39988c1.88481,0.11551 7.38804,-2.90848 6.69451,-8.61127c-0.17458,-1.43553 -1.61625,-6.5641 -7.80702,-6.19294c-3.32385,0.19927 -7.17943,2.33403 -7.23735,7.40433z" fill="#ff0000" stroke="#000000" stroke-width="2" stroke-linecap="butt"/><path d="M81.86347,124.70612c-22.47557,1.6815 -27.77585,-7.0643 -28.68187,-17.19957c3.70816,1.27975 7.85303,1.04876 11.68608,1.30709c2.19991,0.0736 13.48024,-0.08515 16.9509,0.19192c0,0 0.26186,0.0198 0.46082,-0.13486c-0.03723,8.51849 -0.17516,15.81741 -0.41592,15.83542z" fill="#ff0000" stroke="#000000" stroke-width="2" stroke-linecap="butt"/><path d="M111.96542,104.78958c0.00034,0.83105 -0.01736,1.66046 -0.05969,2.48358c-3.69912,1.47153 -7.97277,1.17337 -11.84551,1.43518c-2.15332,0.07376 -13.44273,-0.04531 -16.98263,0.20747c0,0 -0.20246,0.01548 -0.36916,0.14363c-0.04966,-11.74645 0.08682,-25.33442 0.41635,-25.33455c15.92361,-0.00634 28.836,9.42465 28.84064,21.06472zM92.04677,88.36334c-6.19106,-0.36622 -7.62864,4.7635 -7.80208,6.19916c-0.68898,5.70334 4.81665,8.72294 6.70136,8.60593c5.26719,-0.32699 8.37807,-4.61481 8.34396,-7.40652c-0.06196,-5.07026 -3.91924,-7.20193 -7.24325,-7.39856z" data-paper-data="{&quot;index&quot;:null}" fill="#ff0000" stroke="#000000" stroke-width="2" stroke-linecap="butt"/><path d="M82.71263,109.03269c0.19908,0.15451 0.46092,0.13449 0.46092,0.13449c3.47044,-0.27984 14.75089,-0.13008 16.95075,-0.20543c3.83287,-0.26138 7.97793,-0.03369 11.68505,-1.31641c-0.89795,10.13599 -6.19127,18.88601 -28.66818,17.22241c-0.24078,-0.01782 -0.38452,-7.31662 -0.42853,-15.83507z" data-paper-data="{&quot;index&quot;:null}" fill="#ff0000" stroke="#000000" stroke-width="2" stroke-linecap="butt"/><path d="M82.41393,100.59128c4.74914,-0.00189 8.60061,3.84651 8.60251,8.59566c0.00189,4.74914 -3.8465,8.60062 -8.59566,8.60252c-4.74914,0.00189 -8.60062,-3.84651 -8.60252,-8.59565c-0.00189,-4.74914 3.84652,-8.60063 8.59567,-8.60252z" fill="#ff7b00" stroke="#000000" stroke-width="2" stroke-linecap="butt"/><g data-paper-data="{&quot;index&quot;:null}" stroke-linecap="butt"><path d="M125.96139,147.07871c0,0 -1.36876,-9.55804 -1.25242,-14.53823c0.12327,-5.27668 1.70714,-16.28678 1.70714,-16.28678l6.38169,0.06967c-1.41735,7.43095 -0.51175,14.83242 0.13861,22.432c-0.12732,2.2356 -0.14157,4.64398 0.07516,7.03417c-0.27781,0.55408 -0.49216,1.02712 -0.60676,1.35951z" fill="#696969" stroke="#000000" stroke-width="2"/><path d="M132.40765,147.0607l-3.53695,-0.03861l0.71459,-30.59064l3.18555,0.03475c-1.19576,6.40293 -0.67896,12.78505 -0.09918,19.29199z" fill="url(#color-25)" stroke="none" stroke-width="0"/><path d="M130.32477,135.23913c-0.12506,0.14473 -0.71971,0.69956 -0.83171,1.10813c-0.17969,0.65546 0.16126,2.22282 0.26585,2.70166c0.58686,2.68671 2.05677,4.50938 2.71504,7.16927c0,0 0.16845,0.69727 -0.24069,1.01258c-0.40915,0.31531 -0.57762,-0.38195 -0.57762,-0.38195c-0.63088,-2.69683 -2.13199,-4.46784 -2.72193,-7.19868c-0.21639,-1.00163 -0.54978,-2.76466 -0.24628,-3.88842c0.30692,-1.13647 1.02704,-1.51021 1.54577,-2.24216c0.57857,-0.81636 1.1057,-1.675 1.71686,-2.42966c0.10892,-0.11745 0.21231,-0.25538 0.30939,-0.41043c0.03859,0.57334 0.08107,1.14737 0.12631,1.72218c-0.71349,0.89458 -1.33265,1.99455 -2.06099,2.83747z" fill="#000000" stroke="none" stroke-width="0.5"/><path d="M128.69457,115.96427c0.41797,-0.27565 0.56319,0.43823 0.56319,0.43823l0.19918,1.01758c0.57448,1.10955 1.31446,1.77847 1.9572,2.75709c0.2817,0.42891 0.50083,0.9458 0.732,1.44406c-0.04339,0.70289 -0.07146,1.40599 -0.08641,2.10952c-0.0577,-0.08178 -0.11321,-0.16601 -0.16497,-0.2548c-0.38984,-0.66863 -0.66663,-1.51088 -1.08333,-2.14321c-0.72144,-1.09477 -1.49762,-1.82939 -2.12412,-3.1122l-0.2655,-1.26674c0,0 -0.14521,-0.71386 0.27275,-0.98953z" fill="#000000" stroke="none" stroke-width="0.5"/><path d="M125.96139,147.07871c0,0 -1.36876,-9.55804 -1.25242,-14.53823c0.12327,-5.27668 1.70714,-16.28678 1.70714,-16.28678l6.38169,0.06967c-1.41735,7.43095 -0.51175,14.83242 0.13861,22.432c-0.12732,2.2356 -0.14157,4.64398 0.07516,7.03417c-0.27781,0.55408 -0.49216,1.02712 -0.60676,1.35951z" fill="#ff0000" stroke="#000000" stroke-width="2"/></g><g stroke-linecap="butt"><path d="M66.10367,157.11995c0.16391,-0.40891 0.62827,-0.60749 1.03717,-0.44358c0.4089,0.16392 0.6075,0.62828 0.44358,1.03717c-0.16391,0.40891 -0.62828,0.60749 -1.03717,0.44358c-0.4089,-0.16392 -0.60749,-0.62828 -0.44358,-1.03717z" data-paper-data="{&quot;index&quot;:null}" fill="url(#color-26)" stroke="none" stroke-width="0"/><path d="M72.73936,153.94851c0.16391,-0.40891 0.62828,-0.6075 1.03717,-0.44358c0.4089,0.16392 0.6075,0.62828 0.44358,1.03717c-0.16392,0.4089 -0.62828,0.60748 -1.03717,0.44358c-0.4089,-0.16392 -0.6075,-0.62828 -0.44358,-1.03717z" data-paper-data="{&quot;index&quot;:null}" fill="url(#color-27)" stroke="none" stroke-width="0"/><g data-paper-data="{&quot;index&quot;:null}" stroke-width="1"><path d="M73.33641,152.34828c0,0 1.84318,-1.2511 2.81675,-1.71596c0.94741,-0.45237 3.02047,-0.88559 3.02047,-0.88559l1.26241,2.64396c0,0 -1.56813,1.3053 -2.49963,1.75007c-0.98697,0.47125 -3.22939,1.07811 -3.22939,1.07811z" fill="#696969" stroke="#000000"/><path d="M73.82148,153.29544l5.72181,-2.73196l0.48091,1.00722l-5.7218,2.73197z" fill="url(#color-28)" stroke="none"/><path d="M74.34225,154.39833l0.15958,-0.15413c0.12469,-0.26943 0.14557,-0.54358 0.23677,-0.81982c0.06062,-0.18356 0.17821,-0.34571 0.2487,-0.52458c0.0771,-0.19566 0.08694,-0.40094 0.24137,-0.5754c0.38895,-0.43946 1.14326,-0.59361 1.60767,-0.35531c0.26701,0.12077 0.56086,0.19118 0.82128,0.31941c0.04387,0.0216 0.2279,0.13709 0.31846,0.12966c0.14527,-0.01191 0.38636,-0.25899 0.45994,-0.33461c0.4129,-0.42426 0.54514,-1.01616 0.94325,-1.4581c0,0 0.10493,-0.11469 0.21934,-0.02885c0.11441,0.08584 0.00949,0.20052 0.00949,0.20052c-0.40868,0.43773 -0.52713,1.03351 -0.9477,1.46288c-0.15426,0.15748 -0.43235,0.4212 -0.68079,0.4429c-0.25125,0.02194 -0.41932,-0.14652 -0.62544,-0.22347c-0.22988,-0.08583 -0.46045,-0.15302 -0.6835,-0.25403c-0.33542,-0.17987 -0.92243,-0.06277 -1.2076,0.26444c-0.12202,0.14002 -0.12244,0.32514 -0.18438,0.48169c-0.06913,0.17475 -0.18574,0.33409 -0.24448,0.51297c-0.10171,0.30972 -0.12964,0.60042 -0.27902,0.90124l-0.19621,0.19685c0,0 -0.11119,0.10969 -0.21953,0.01755c-0.10834,-0.09215 0.00285,-0.20184 0.00285,-0.20184z" fill="#000000" stroke="none"/><path d="M73.33641,152.34828c0,0 1.84318,-1.2511 2.81675,-1.71596c0.94741,-0.45237 3.02047,-0.88559 3.02047,-0.88559l1.26241,2.64396c0,0 -1.56813,1.3053 -2.49963,1.75007c-0.98697,0.47125 -3.22939,1.07811 -3.22939,1.07811z" fill="#ff0000" stroke="#000000"/></g><g data-paper-data="{&quot;index&quot;:null}" stroke-width="1"><path d="M66.57273,155.88817c0,0 1.78031,-1.33906 2.73018,-1.8506c0.92435,-0.4978 2.97395,-1.03111 2.97395,-1.03111l1.3892,2.57959c0,0 -1.50293,1.37984 -2.41176,1.86928c-0.96294,0.51858 -3.17329,1.23353 -3.17329,1.23353z" fill="#696969" stroke="#000000"/><path d="M67.10322,156.81067l5.58252,-3.00636l0.52922,0.9827l-5.5825,3.00637z" fill="url(#color-29)" stroke="none"/><path d="M67.67691,157.88705l0.1519,-0.16169c0.11147,-0.27518 0.11901,-0.54998 0.19671,-0.83033c0.05163,-0.1863 0.16125,-0.35394 0.22296,-0.53602c0.0675,-0.19916 0.06738,-0.40469 0.21314,-0.58644c0.36719,-0.4578 1.11312,-0.64837 1.58852,-0.43288c0.27255,0.10768 0.56948,0.16374 0.83582,0.27917c0.04486,0.01943 0.23428,0.12588 0.32437,0.11406c0.14453,-0.01893 0.37333,-0.27743 0.44316,-0.35653c0.39182,-0.44378 0.49518,-1.04141 0.87139,-1.50214c0,0 0.09924,-0.11964 0.21768,-0.03947c0.11844,0.08017 0.01921,0.19983 0.01921,0.19983c-0.38698,0.45703 -0.47635,1.05787 -0.87562,1.50714c-0.14643,0.1648 -0.41141,0.44169 -0.6585,0.47543c-0.2499,0.03411 -0.42594,-0.12599 -0.63554,-0.19286c-0.23379,-0.07459 -0.46734,-0.1305 -0.69502,-0.22056c-0.34375,-0.1634 -0.92439,-0.01795 -1.19335,0.32272c-0.11509,0.14577 -0.10651,0.33068 -0.16078,0.49006c-0.06055,0.17789 -0.16933,0.3427 -0.21932,0.52424c-0.08655,0.31429 -0.10035,0.60599 -0.23495,0.91371l-0.18643,0.20614c0,0 -0.10574,0.11496 -0.21842,0.02818c-0.11268,-0.08678 -0.00694,-0.20174 -0.00694,-0.20174z" fill="#000000" stroke="none"/><path d="M66.57273,155.88817c0,0 1.78031,-1.33906 2.73018,-1.8506c0.92435,-0.4978 2.97395,-1.03111 2.97395,-1.03111l1.3892,2.57959c0,0 -1.50293,1.37984 -2.41176,1.86928c-0.96294,0.51858 -3.17329,1.23353 -3.17329,1.23353z" fill="#ff0000" stroke="#000000"/></g><path d="M80.82935,170.18486c-0.36748,0.06873 -0.7211,-0.17346 -0.78982,-0.54094c-0.06871,-0.36748 0.17347,-0.7211 0.54094,-0.78982c0.36747,-0.06873 0.72111,0.17346 0.78982,0.54094c0.06872,0.36748 -0.17348,0.7211 -0.54095,0.78982z" data-paper-data="{&quot;index&quot;:null}" fill="url(#color-30)" stroke="none" stroke-width="0"/><path d="M77.81628,171.87344c0.01232,0.37365 -0.28061,0.68653 -0.65425,0.69885c-0.37364,0.01232 -0.68653,-0.28062 -0.69885,-0.65426c-0.01232,-0.37365 0.28061,-0.68653 0.65425,-0.69885c0.37364,-0.01232 0.68653,0.28061 0.69885,0.65426z" data-paper-data="{&quot;index&quot;:null}" fill="url(#color-31)" stroke="none" stroke-width="0"/><path d="M63.09412,159.75471c1.23739,1.12864 1.32556,3.04667 0.19693,4.28405c-1.12862,1.23738 -3.04666,1.32555 -4.28405,0.19692c-1.23738,-1.12862 -1.32556,-3.04665 -0.19693,-4.28403c1.12862,-1.23738 3.04667,-1.32556 4.28405,-0.19693z" data-paper-data="{&quot;index&quot;:null}" fill="url(#color-32)" stroke="none" stroke-width="0"/><path d="M70.897,158.17228c0.43234,0.08457 0.71427,0.50358 0.62971,0.93592c-0.08455,0.43234 -0.50359,0.71427 -0.93593,0.62971c-0.43234,-0.08457 -0.71426,-0.50358 -0.62971,-0.93594c0.08455,-0.43234 0.50358,-0.71428 0.93592,-0.62971z" data-paper-data="{&quot;index&quot;:null}" fill="url(#color-33)" stroke="none" stroke-width="0"/><path d="M74.93318,160.98431c0.32707,0.29512 0.35297,0.7995 0.05785,1.12656c-0.29511,0.32707 -0.7995,0.35296 -1.12655,0.05784c-0.32707,-0.29512 -0.35298,-0.79949 -0.05785,-1.12655c0.29512,-0.32707 0.79951,-0.35298 1.12657,-0.05786z" data-paper-data="{&quot;index&quot;:null}" fill="url(#color-34)" stroke="none" stroke-width="0"/><path d="M74.91978,165.12302c0.32707,0.29513 0.35297,0.7995 0.05785,1.12656c-0.29512,0.32707 -0.79949,0.35298 -1.12657,0.05786c-0.32707,-0.29512 -0.35298,-0.79951 -0.05785,-1.12657c0.29512,-0.32707 0.79951,-0.35297 1.12656,-0.05785z" data-paper-data="{&quot;index&quot;:null}" fill="url(#color-35)" stroke="none" stroke-width="0"/><path d="M73.08191,168.79938c0.32707,0.29512 0.35297,0.7995 0.05785,1.12657c-0.29511,0.32707 -0.79951,0.35296 -1.12656,0.05784c-0.32707,-0.29512 -0.35297,-0.79949 -0.05785,-1.12655c0.29512,-0.32707 0.7995,-0.35297 1.12656,-0.05786z" data-paper-data="{&quot;index&quot;:null}" fill="url(#color-36)" stroke="none" stroke-width="0"/><path d="M87.12636,171.58834c-0.30406,0.2175 -0.72688,0.14732 -0.94438,-0.15675c-0.2175,-0.30407 -0.14732,-0.72688 0.15675,-0.94439c0.30406,-0.2175 0.72689,-0.14732 0.94438,0.15675c0.21749,0.30407 0.14731,0.72688 -0.15675,0.94438z" data-paper-data="{&quot;index&quot;:null}" fill="url(#color-37)" stroke="none" stroke-width="0"/><g data-paper-data="{&quot;index&quot;:null}" stroke-width="1"><path d="M86.81349,169.75292c0,0 1.83786,-0.71346 2.74946,-0.88797c0.86039,-0.16471 2.58877,-0.06158 2.58877,-0.06158l0.46747,2.44206c0,0 -1.63473,0.74691 -2.5098,0.91441c-0.89923,0.17213 -2.78834,0.24445 -2.78834,0.24445z" fill="#696969" stroke="#000000"/><path d="M86.99799,170.58267l5.2849,-1.01166l0.17808,0.93031l-5.2849,1.01166z" fill="url(#color-38)" stroke="none"/><path d="M86.97706,170.49718c0,0 -0.13119,-0.01902 -0.1035,-0.1365c0.02769,-0.11748 0.15887,-0.09847 0.15887,-0.09847l0.23314,0.03583c0.25342,0.13044 0.41877,0.31504 0.6441,0.47554c0.13014,0.09271 0.29003,0.14293 0.42518,0.22757c0.1211,0.07584 0.2145,0.20214 0.36834,0.23643c0.35952,0.08014 0.81963,-0.13516 0.95835,-0.42686c0.10162,-0.18125 0.22538,-0.34318 0.33931,-0.51749c0.10215,-0.1563 0.13225,-0.35598 0.315,-0.46738c0.1807,-0.11016 0.50344,-0.06985 0.6881,-0.03983c0.50347,0.08184 0.88415,0.42944 1.38369,0.52295c0,0 0.12941,0.02559 0.09442,0.14181c-0.03501,0.11624 -0.16443,0.09065 -0.16443,0.09065c-0.49444,-0.10174 -0.8826,-0.43972 -1.37824,-0.52193c-0.08832,-0.01466 -0.37741,-0.06224 -0.48268,0.00272c-0.06561,0.0405 -0.13329,0.21201 -0.15239,0.24884c-0.11345,0.21865 -0.27887,0.41463 -0.40058,0.63148c-0.19747,0.39651 -0.79055,0.67065 -1.27747,0.56602c-0.1933,-0.04155 -0.30331,-0.17687 -0.45444,-0.27182c-0.13816,-0.08678 -0.30012,-0.13843 -0.4339,-0.23338c-0.20131,-0.1429 -0.35349,-0.31975 -0.57426,-0.44116l-0.18661,-0.02505z" fill="#000000" stroke="none"/><path d="M86.81349,169.75292c0,0 1.83786,-0.71346 2.74946,-0.88797c0.86039,-0.16471 2.58877,-0.06158 2.58877,-0.06158l0.46747,2.44206c0,0 -1.63473,0.74691 -2.5098,0.91441c-0.89923,0.17213 -2.78834,0.24445 -2.78834,0.24445z" fill="#ff0000" stroke="#000000"/></g><g data-paper-data="{&quot;index&quot;:null}" stroke-width="1"><path d="M81.32094,168.38909c0,0 1.96721,0.12953 2.86723,0.35638c0.84945,0.2141 2.37257,1.0376 2.37257,1.0376l-0.60771,2.41101c0,0 -1.79725,-0.01343 -2.66118,-0.2312c-0.8878,-0.22376 -2.6307,-0.95612 -2.6307,-0.95612z" fill="#696969" stroke="#000000"/><path d="M81.13773,169.21907l5.21766,1.31513l-0.23152,0.91849l-5.21766,-1.31513z" fill="url(#color-39)" stroke="none"/><path d="M81.11871,168.96531c0.07471,-0.0948 0.18558,-0.02215 0.18558,-0.02215l0.1962,0.13092c0.17463,0.22528 0.24653,0.46246 0.38299,0.7031c0.0788,0.13899 0.20252,0.25204 0.28928,0.38585c0.07772,0.11989 0.10905,0.27382 0.23401,0.36989c0.29202,0.22449 0.8,0.22366 1.04895,0.01786c0.16866,-0.12137 0.34923,-0.21586 0.52613,-0.32575c0.1586,-0.09853 0.27021,-0.26682 0.48293,-0.29062c0.21033,-0.02354 0.48584,0.14932 0.64053,0.25453c0.4218,0.28681 0.62004,0.76269 1.03334,1.05844c0,0 0.1065,0.07785 0.02569,0.16843c-0.08083,0.09057 -0.18732,0.01271 -0.18732,0.01271c-0.4052,-0.30104 -0.61428,-0.77135 -1.02883,-1.05521c-0.07387,-0.05059 -0.31582,-0.21582 -0.43867,-0.2014c-0.07658,0.00899 -0.21035,0.13587 -0.24323,0.16118c-0.1952,0.15028 -0.4279,0.25804 -0.62983,0.40321c-0.34647,0.27599 -0.99984,0.27401 -1.397,-0.0265c-0.15766,-0.1193 -0.20021,-0.28843 -0.29711,-0.43831c-0.08858,-0.13701 -0.21359,-0.25224 -0.29473,-0.3948c-0.12213,-0.21456 -0.18537,-0.43911 -0.3342,-0.64241l-0.15856,-0.10153c0,0 -0.11086,-0.07264 -0.03616,-0.16744z" fill="#000000" stroke="none"/><path d="M81.32094,168.38909c0,0 1.96721,0.12953 2.86723,0.35638c0.84945,0.2141 2.37257,1.0376 2.37257,1.0376l-0.60771,2.41101c0,0 -1.79725,-0.01343 -2.66118,-0.2312c-0.8878,-0.22376 -2.6307,-0.95612 -2.6307,-0.95612z" fill="#ff0000" stroke="#000000"/></g><path d="M84.11912,175.33843c-0.32727,0.18075 -0.73908,0.06196 -0.91982,-0.26529c-0.18073,-0.32725 -0.06195,-0.73907 0.2653,-0.91981c0.32726,-0.18074 0.73905,-0.06196 0.9198,0.26529c0.18074,0.32726 0.06197,0.73908 -0.26529,0.91982z" data-paper-data="{&quot;index&quot;:null}" fill="url(#color-40)" stroke="none" stroke-width="0"/><g data-paper-data="{&quot;index&quot;:null}" stroke-width="1"><path d="M84.02136,173.47919c0,0 1.90823,-0.49534 2.83392,-0.56287c0.8737,-0.06374 2.57844,0.23927 2.57844,0.23927l0.18089,2.47983c0,0 -1.71038,0.55213 -2.59897,0.61696c-0.91313,0.06661 -2.79787,-0.08082 -2.79787,-0.08082z" fill="#696969" stroke="#000000"/><path d="M84.10829,174.32471l5.36659,-0.39148l0.06891,0.94469l-5.36659,0.39148z" fill="url(#color-41)" stroke="none"/><path d="M84.09746,174.23735c0,0 -0.12809,-0.03412 -0.08695,-0.14758c0.04113,-0.11347 0.16921,-0.07937 0.16921,-0.07937l0.22742,0.06263c0.23657,0.15897 0.37937,0.36152 0.58455,0.54709c0.11851,0.10717 0.27148,0.1756 0.3959,0.27537c0.11146,0.08939 0.18959,0.22568 0.33842,0.2776c0.34778,0.12132 0.82975,-0.03913 1.0014,-0.31274c0.12196,-0.16822 0.2637,-0.31468 0.39708,-0.47461c0.1196,-0.14338 0.17266,-0.33821 0.36712,-0.42767c0.19226,-0.08844 0.50814,-0.01094 0.68807,0.0403c0.49057,0.1397 0.82835,0.52915 1.31365,0.68001c0,0 0.12556,0.04043 0.0773,0.15181c-0.04826,0.11138 -0.17383,0.07093 -0.17383,0.07093c-0.47929,-0.15842 -0.8256,-0.53919 -1.30835,-0.67837c-0.08603,-0.02481 -0.36763,-0.10562 -0.47974,-0.05331c-0.06988,0.0326 -0.15699,0.19511 -0.18025,0.22947c-0.13806,0.20401 -0.32511,0.37946 -0.47116,0.58074c-0.24216,0.37091 -0.86304,0.57438 -1.33452,0.41394c-0.18718,-0.0637 -0.28073,-0.21088 -0.41983,-0.32272c-0.12715,-0.10223 -0.28202,-0.17233 -0.40387,-0.28216c-0.18338,-0.16529 -0.314,-0.35862 -0.51919,-0.50483l-0.18245,-0.04655z" fill="#000000" stroke="none"/><path d="M84.02136,173.47919c0,0 1.90823,-0.49534 2.83392,-0.56287c0.8737,-0.06374 2.57844,0.23927 2.57844,0.23927l0.18089,2.47983c0,0 -1.71038,0.55213 -2.59897,0.61696c-0.91313,0.06661 -2.79787,-0.08082 -2.79787,-0.08082z" fill="#ff0000" stroke="#000000"/></g><g data-paper-data="{&quot;index&quot;:null}" stroke-width="1"><path d="M78.72422,171.48707c0,0 1.93889,0.35698 2.80649,0.68675c0.81886,0.31124 2.23611,1.30593 2.23611,1.30593l-0.88342,2.32418c0,0 -1.78352,-0.22191 -2.61636,-0.53848c-0.85583,-0.32529 -2.50195,-1.25496 -2.50195,-1.25496z" fill="#696969" stroke="#000000"/><path d="M78.44589,172.29022l5.02977,1.91179l-0.33654,0.88541l-5.02977,-1.91179z" fill="url(#color-42)" stroke="none"/><path d="M78.47294,172.20652c0,0 -0.10169,-0.08503 -0.01648,-0.17051c0.0852,-0.08549 0.1869,-0.00046 0.1869,-0.00046l0.17968,0.15281c0.14731,0.24402 0.19121,0.48794 0.29881,0.74281c0.06215,0.1472 0.1719,0.27383 0.24254,0.41681c0.06329,0.1281 0.07654,0.28463 0.18951,0.39455c0.26399,0.25687 0.76863,0.31499 1.03978,0.13948c0.18162,-0.10098 0.37192,-0.17387 0.56038,-0.26248c0.16896,-0.07948 0.29937,-0.23365 0.51339,-0.23261c0.21164,0.00105 0.46521,0.20471 0.60666,0.32715c0.38564,0.33382 0.52734,0.82949 0.90351,1.17121c0,0 0.09676,0.08968 0.00596,0.17025c-0.0908,0.08058 -0.18754,-0.00912 -0.18754,-0.00912c-0.36752,-0.34604 -0.52062,-0.83743 -0.89941,-1.16747c-0.0675,-0.05882 -0.28861,-0.251 -0.41232,-0.25095c-0.07711,0.00005 -0.22471,0.11056 -0.2603,0.13188c-0.21132,0.12662 -0.45496,0.20664 -0.67236,0.32739c-0.37616,0.23392 -1.02487,0.15612 -1.38449,-0.18845c-0.14276,-0.13679 -0.16539,-0.30973 -0.24424,-0.46984c-0.07208,-0.14637 -0.18285,-0.27532 -0.24691,-0.42634c-0.09639,-0.2273 -0.13314,-0.45767 -0.25739,-0.67687l-0.14571,-0.11924z" fill="#000000" stroke="none"/><path d="M78.72422,171.48707c0,0 1.93889,0.35698 2.80649,0.68675c0.81886,0.31124 2.23611,1.30593 2.23611,1.30593l-0.88342,2.32418c0,0 -1.78352,-0.22191 -2.61636,-0.53848c-0.85583,-0.32529 -2.50195,-1.25496 -2.50195,-1.25496z" fill="#ff0000" stroke="#000000"/></g><path d="M88.47972,166.38216c-0.26752,0.26114 -0.6961,0.25596 -0.95723,-0.01157c-0.26113,-0.26752 -0.25596,-0.6961 0.01157,-0.95723c0.26754,-0.26114 0.6961,-0.25596 0.95723,0.01157c0.26113,0.26752 0.25596,0.6961 -0.01157,0.95723z" data-paper-data="{&quot;index&quot;:null}" fill="url(#color-43)" stroke="none" stroke-width="0"/><g data-paper-data="{&quot;index&quot;:null}" stroke-width="1"><path d="M87.82351,164.97064c0,0 1.70825,-0.98416 2.5828,-1.29503c0.82541,-0.2934 2.54943,-0.45382 2.54943,-0.45382l0.83276,2.3428c0,0 -1.50244,0.98639 -2.34194,1.2848c-0.86267,0.30664 -2.71893,0.66486 -2.71893,0.66486z" fill="#696969" stroke="#000000"/><path d="M88.1318,165.76276l5.07009,-1.80216l0.31723,0.89248l-5.07009,1.80218z" fill="url(#color-44)" stroke="none"/><path d="M88.09821,165.68149c0,0 -0.13255,0.0011 -0.12301,-0.11923c0.00953,-0.12032 0.14207,-0.12143 0.14207,-0.12143h0.23588c0.27028,0.09046 0.46175,0.24783 0.70882,0.37226c0.14272,0.07187 0.30837,0.09723 0.4548,0.16039c0.1312,0.05657 0.24271,0.16722 0.39997,0.17777c0.3675,0.02464 0.78958,-0.25801 0.88245,-0.56738c0.07292,-0.19456 0.17069,-0.37338 0.25683,-0.56298c0.07725,-0.16999 0.07667,-0.37192 0.24039,-0.50979c0.16189,-0.13632 0.48701,-0.14546 0.67409,-0.14382c0.51003,0.00446 0.93909,0.29024 1.44703,0.30685c0,0 0.1318,0.00564 0.11485,0.12584c-0.01696,0.1202 -0.14877,0.11455 -0.14877,0.11455c-0.50413,-0.0255 -0.93911,-0.30066 -1.44148,-0.30668c-0.08954,-0.00108 -0.38248,-0.00423 -0.47668,0.07596c-0.05872,0.04998 -0.09956,0.22977 -0.11286,0.26908c-0.07896,0.23335 -0.21271,0.45214 -0.3001,0.68498c-0.13501,0.42189 -0.67958,0.78288 -1.17674,0.75337c-0.19738,-0.01172 -0.32666,-0.12879 -0.49045,-0.19968c-0.14973,-0.06482 -0.31766,-0.09125 -0.46429,-0.16481c-0.22069,-0.11069 -0.39793,-0.26239 -0.63459,-0.34887l-0.18825,0.00358z" fill="#000000" stroke="none"/><path d="M87.82351,164.97064c0,0 1.70825,-0.98416 2.5828,-1.29503c0.82541,-0.2934 2.54943,-0.45382 2.54943,-0.45382l0.83276,2.3428c0,0 -1.50244,0.98639 -2.34194,1.2848c-0.86267,0.30664 -2.71893,0.66486 -2.71893,0.66486z" fill="#ff0000" stroke="#000000"/></g><path d="M82.04263,165.95085c-0.35278,0.12371 -0.73907,-0.062 -0.86276,-0.4148c-0.12371,-0.35279 0.06201,-0.73908 0.4148,-0.86277c0.35279,-0.12371 0.73908,0.062 0.86277,0.41479c0.12371,0.35278 -0.06202,0.73907 -0.4148,0.86277z" data-paper-data="{&quot;index&quot;:null}" fill="url(#color-45)" stroke="none" stroke-width="0"/><g data-paper-data="{&quot;index&quot;:null}" stroke-width="1"><path d="M82.25593,164.10127c0,0 1.96408,-0.17058 2.8881,-0.08298c0.8721,0.08267 2.50257,0.66541 2.50257,0.66541l-0.23469,2.4753c0,0 -1.77845,0.25955 -2.66543,0.17544c-0.91147,-0.08641 -2.74532,-0.54573 -2.74532,-0.54573z" fill="#696969" stroke="#000000"/><path d="M82.20082,164.94946l5.35683,0.50789l-0.0894,0.94298l-5.35683,-0.5079z" fill="url(#color-46)" stroke="none"/><path d="M82.20467,164.86156c0,0 -0.12061,-0.05498 -0.06116,-0.16001c0.05946,-0.10503 0.18007,-0.05007 0.18007,-0.05007l0.2138,0.09963c0.20681,0.19616 0.31388,0.41965 0.48528,0.6368c0.099,0.12544 0.23843,0.21838 0.34449,0.33748c0.09502,0.10671 0.14935,0.2541 0.28744,0.33006c0.32271,0.17757 0.82468,0.09964 1.03951,-0.14155c0.14827,-0.14557 0.31241,-0.26637 0.47058,-0.40185c0.14182,-0.12145 0.2266,-0.30474 0.43323,-0.36056c0.20432,-0.05518 0.50286,0.07384 0.67174,0.15434c0.46045,0.21946 0.72865,0.65973 1.18203,0.88931c0,0 0.11707,0.06079 0.05095,0.16257c-0.06614,0.1018 -0.18322,0.04101 -0.18322,0.04101c-0.4462,-0.23604 -0.72425,-0.66917 -1.17708,-0.8868c-0.0807,-0.03877 -0.34492,-0.16537 -0.46416,-0.13247c-0.07432,0.02051 -0.18729,0.16623 -0.21595,0.19624c-0.17011,0.17817 -0.38375,0.32 -0.56131,0.49415c-0.30058,0.32538 -0.94665,0.42261 -1.38483,0.18586c-0.17396,-0.09399 -0.24168,-0.25469 -0.36021,-0.38813c-0.10834,-0.12197 -0.24938,-0.2169 -0.35124,-0.34549c-0.15329,-0.19355 -0.24988,-0.4059 -0.42785,-0.58425l-0.17213,-0.07627z" fill="#000000" stroke="none"/><path d="M82.25593,164.10127c0,0 1.96408,-0.17058 2.8881,-0.08298c0.8721,0.08267 2.50257,0.66541 2.50257,0.66541l-0.23469,2.4753c0,0 -1.77845,0.25955 -2.66543,0.17544c-0.91147,-0.08641 -2.74532,-0.54573 -2.74532,-0.54573z" fill="#ff0000" stroke="#000000"/></g><g data-paper-data="{&quot;index&quot;:null}" stroke-width="1"><path d="M77.40739,161.34317c0,0 1.84729,0.68867 2.64433,1.16429c0.75226,0.44888 1.97495,1.67485 1.97495,1.67485l-1.27408,2.13517c0,0 -1.71778,-0.52868 -2.48287,-0.98523c-0.78621,-0.46915 -2.2456,-1.67089 -2.2456,-1.67089z" fill="#696969" stroke="#000000"/><path d="M76.99365,162.08567l4.62072,2.75725l-0.48537,0.81339l-4.62071,-2.75726z" fill="url(#color-47)" stroke="none"/><path d="M77.03485,162.00793c0,0 -0.08535,-0.10141 0.01343,-0.17077c0.09878,-0.06936 0.18414,0.03206 0.18414,0.03206l0.15037,0.18173c0.10264,0.26592 0.10343,0.51374 0.16508,0.78343c0.0356,0.15575 0.12168,0.29956 0.16637,0.45264c0.04004,0.13715 0.02588,0.2936 0.11801,0.42148c0.21531,0.29886 0.70215,0.44385 0.99969,0.31816c0.19641,-0.06785 0.3965,-0.10655 0.5975,-0.16106c0.18021,-0.04886 0.33542,-0.17803 0.54602,-0.13978c0.20823,0.03782 0.42253,0.28248 0.54054,0.42765c0.32173,0.39579 0.37508,0.90854 0.6861,1.31046c0,0 0.07967,0.10515 -0.02374,0.16871c-0.10342,0.06357 -0.18309,-0.04158 -0.18309,-0.04158c-0.30176,-0.40468 -0.36707,-0.9152 -0.68271,-1.30608c-0.05625,-0.06966 -0.2406,-0.29738 -0.36242,-0.31883c-0.07593,-0.01336 -0.24051,0.06979 -0.27926,0.08459c-0.23012,0.08793 -0.48396,0.12437 -0.71904,0.20548c-0.41111,0.16494 -1.03641,-0.02447 -1.33063,-0.42632c-0.11679,-0.15954 -0.10902,-0.33375 -0.15882,-0.50515c-0.04553,-0.15667 -0.1322,-0.30291 -0.16902,-0.46277c-0.05541,-0.24059 -0.05153,-0.47386 -0.13578,-0.71131l-0.12275,-0.14276z" fill="#000000" stroke="none"/><path d="M77.40739,161.34317c0,0 1.84729,0.68867 2.64433,1.16429c0.75226,0.44888 1.97495,1.67485 1.97495,1.67485l-1.27408,2.13517c0,0 -1.71778,-0.52868 -2.48287,-0.98523c-0.78621,-0.46915 -2.2456,-1.67089 -2.2456,-1.67089z" fill="#ff0000" stroke="#000000"/></g><g data-paper-data="{&quot;index&quot;:null}" stroke-width="1"><path d="M76.94723,164.92694c0,0 1.72135,0.96111 2.43696,1.5522c0.67541,0.55787 1.69785,1.95523 1.69785,1.95523l-1.58342,1.91702c0,0 -1.61763,-0.78328 -2.30456,-1.35068c-0.70591,-0.58306 -1.96596,-1.99241 -1.96596,-1.99241z" fill="#696969" stroke="#000000"/><path d="M76.42561,165.59803l4.14863,3.42672l-0.60322,0.73028l-4.14864,-3.4267z" fill="url(#color-48)" stroke="none"/><path d="M76.47813,165.52745c0,0 -0.06896,-0.11319 0.0392,-0.16675c0.10817,-0.05356 0.17713,0.05963 0.17713,0.05963l0.12104,0.20244c0.06107,0.27841 0.02427,0.52349 0.04426,0.79942c0.01155,0.15937 0.07478,0.31455 0.09572,0.47265c0.01877,0.14165 -0.01899,0.29414 0.05267,0.43453c0.16746,0.32808 0.62664,0.54529 0.93982,0.46623c0.20443,-0.03726 0.40807,-0.04514 0.61501,-0.0685c0.18553,-0.02095 0.35856,-0.12505 0.56091,-0.05528c0.20009,0.06899 0.37475,0.34334 0.46936,0.50475c0.2579,0.44004 0.23282,0.95496 0.47923,1.39944c0,0 0.06278,0.11601 -0.04908,0.16314c-0.11186,0.04712 -0.17465,-0.06889 -0.17465,-0.06889c-0.23684,-0.44579 -0.22389,-0.96031 -0.47654,-1.39458c-0.04502,-0.07739 -0.19266,-0.33046 -0.30981,-0.37015c-0.07303,-0.02473 -0.24832,0.03248 -0.28887,0.04122c-0.24079,0.05198 -0.49722,0.04947 -0.7419,0.09397c-0.43139,0.10064 -1.0207,-0.18151 -1.25051,-0.62336c-0.09123,-0.17542 -0.0571,-0.34646 -0.08031,-0.52341c-0.02122,-0.16176 -0.08469,-0.31946 -0.09681,-0.48306c-0.01825,-0.24622 0.02099,-0.4762 -0.02623,-0.72369l-0.09965,-0.15974z" fill="#000000" stroke="none"/><path d="M76.94723,164.92694c0,0 1.72135,0.96111 2.43696,1.5522c0.67541,0.55787 1.69785,1.95523 1.69785,1.95523l-1.58342,1.91702c0,0 -1.61763,-0.78328 -2.30456,-1.35068c-0.70591,-0.58306 -1.96596,-1.99241 -1.96596,-1.99241z" fill="#ff0000" stroke="#000000"/></g><g data-paper-data="{&quot;index&quot;:null}" stroke-width="1"><path d="M74.78185,167.54073c0,0 1.59817,1.15437 2.24033,1.82451c0.60609,0.63249 1.45945,2.13906 1.45945,2.13906l-1.79521,1.7203c0,0 -1.51579,-0.96573 -2.13223,-1.60901c-0.63346,-0.66103 -1.72144,-2.2071 -1.72144,-2.2071z" fill="#696969" stroke="#000000"/><path d="M74.18585,168.14678l3.72292,3.88504l-0.68389,0.65535l-3.72292,-3.88504z" fill="url(#color-49)" stroke="none"/><path d="M74.24622,168.08277c0,0 -0.05536,-0.12043 0.05828,-0.16108c0.11363,-0.04066 0.16902,0.07978 0.16902,0.07978l0.09672,0.21513c0.02835,0.28361 -0.03668,0.52277 -0.04882,0.79915c-0.00702,0.15964 0.03778,0.3211 0.04023,0.48057c0.0022,0.14285 -0.053,0.28992 0.00188,0.43767c0.12824,0.34529 0.55912,0.61433 0.87936,0.57215c0.20738,-0.01327 0.41056,0.00254 0.61881,0.00335c0.1867,0.00073 0.37065,-0.08259 0.56354,0.01019c0.19072,0.09175 0.33237,0.38452 0.4076,0.55582c0.20511,0.467 0.12043,0.97553 0.31359,1.44559c0,0 0.04891,0.12252 -0.06767,0.15635c-0.11658,0.03383 -0.16549,-0.0887 -0.16549,-0.0887c-0.18349,-0.47026 -0.11093,-0.97982 -0.31146,-1.44047c-0.03573,-0.08211 -0.15303,-0.35057 -0.26478,-0.40359c-0.06966,-0.03305 -0.25041,0.00342 -0.2917,0.00741c-0.24519,0.02369 -0.49961,-0.00856 -0.7478,0.00723c-0.44015,0.04989 -0.99273,-0.29873 -1.1697,-0.76427c-0.07026,-0.18482 -0.0165,-0.35073 -0.01901,-0.52919c-0.00231,-0.16314 -0.04706,-0.32714 -0.0401,-0.49103c0.01046,-0.24666 0.07612,-0.47054 0.05794,-0.72185l-0.08046,-0.17022z" fill="#000000" stroke="none"/><path d="M74.78185,167.54073c0,0 1.59817,1.15437 2.24033,1.82451c0.60609,0.63249 1.45945,2.13906 1.45945,2.13906l-1.79521,1.7203c0,0 -1.51579,-0.96573 -2.13223,-1.60901c-0.63346,-0.66103 -1.72144,-2.2071 -1.72144,-2.2071z" fill="#ff0000" stroke="#000000"/></g><path d="M69.38545,170.59776c-4.89245,-1.23997 -8.10843,-5.20504 -7.18304,-8.8562c0.92537,-3.65118 5.64166,-5.60584 10.53412,-4.36587c4.89247,1.23997 5.19773,3.94742 4.27237,7.5986c-0.92537,3.65118 -2.73097,6.86344 -7.62344,5.62346z" data-paper-data="{&quot;index&quot;:null}" fill="#ff0000" stroke="#000000" stroke-width="1"/></g><g data-paper-data="{&quot;index&quot;:null}" stroke-linecap="butt"><path d="M60.48471,166.6128c0,0 -10.64177,-0.75033 -15.77315,-1.63126c-4.99353,-0.85726 -14.52957,-4.10923 -14.52957,-4.10923l1.45704,-9.16998c0,0 9.65545,0.04272 14.56518,0.88559c5.20202,0.89306 15.86246,4.0689 15.86246,4.0689z" fill="#696969" stroke="#000000" stroke-width="2"/><path d="M60.87265,163.25936l-30.15783,-5.17733l0.55507,-3.49333l30.15782,5.17731z" fill="url(#color-50)" stroke="none" stroke-width="0"/><path d="M62.02003,158.95315c0.21161,0.45377 -0.51582,0.49309 -0.51582,0.49309l-1.03578,0.04834c-1.18159,0.40618 -1.95146,1.04045 -3.0135,1.53328c-0.70569,0.32747 -1.59041,0.48311 -2.32466,0.7784c-0.8032,0.32301 -1.35614,0.81005 -2.42166,0.91939c-2.68397,0.27543 -6.14505,-0.91642 -7.44351,-2.47411c-0.7871,-0.85542 -1.80959,-1.64234 -2.55119,-2.50248c-0.1249,-0.14487 -0.58687,-0.81421 -0.97468,-0.98472c-0.62217,-0.27355 -2.22252,-0.16531 -2.71151,-0.13181c-2.74363,0.18794 -4.76154,1.3757 -7.48906,1.6382c0,0 -0.71439,0.06476 -0.96654,-0.38608c-0.25214,-0.45084 0.46226,-0.5156 0.46226,-0.5156c2.76009,-0.23 4.73145,-1.45618 7.51918,-1.64071c1.02251,-0.06769 2.81532,-0.13986 3.88265,0.3246c1.07942,0.46971 1.34392,1.23671 1.9922,1.85684c0.72305,0.69166 1.49543,1.3386 2.15267,2.05348c0.91847,1.14424 3.60477,2.07883 5.5851,1.86451c0.84742,-0.09172 1.31153,-0.54855 1.95517,-0.80652c0.71842,-0.28794 1.59208,-0.43868 2.27851,-0.7585c1.18845,-0.55371 2.0286,-1.2142 3.3892,-1.64652l1.29193,-0.07754c0,0 0.72743,-0.03933 0.93905,0.41443z" fill="#000000" stroke="none" stroke-width="0.5"/><path d="M60.48471,166.6128c0,0 -10.64177,-0.75033 -15.77315,-1.63126c-4.99353,-0.85726 -14.52957,-4.10923 -14.52957,-4.10923l1.45704,-9.16998c0,0 9.65545,0.04272 14.56518,0.88559c5.20202,0.89306 15.86246,4.0689 15.86246,4.0689z" fill="#ff0000" stroke="#000000" stroke-width="2"/></g><g data-paper-data="{&quot;index&quot;:null}" stroke-linecap="butt"><path d="M131.55659,83.36928c0.34123,-0.2492 0.81986,-0.17458 1.06905,0.16664c0.24919,0.34123 0.17459,0.81986 -0.16664,1.06905c-0.34124,0.2492 -0.81986,0.17458 -1.06905,-0.16664c-0.24919,-0.34123 -0.17459,-0.81987 0.16664,-1.06905z" data-paper-data="{&quot;index&quot;:null}" fill="url(#color-51)" stroke="none" stroke-width="0"/><g data-paper-data="{&quot;index&quot;:null}" stroke-width="1"><path d="M130.44484,83.6215c0,0 -0.27935,-2.11834 -0.25888,-3.15291c0.01992,-1.00678 0.54057,-2.97025 0.54057,-2.97025l2.80963,0.05556c0,0 0.05671,0.24336 0.12871,0.60131c-0.06673,0.38162 -0.10236,0.76837 -0.10236,1.15981c0,0.18273 0.00777,0.36444 0.02283,0.5451c-0.30969,1.23436 -0.40788,2.5387 -0.28941,3.81777z" fill="#696969" stroke="#000000"/><path d="M131.46544,83.6132l0.12023,-6.08034l1.07033,0.02117l-0.12023,6.08035z" fill="url(#color-52)" stroke="none"/><path d="M132.63498,83.6414l-0.06345,-0.20312c-0.1773,-0.22284 -0.40332,-0.35866 -0.60087,-0.55572c-0.13127,-0.13092 -0.21964,-0.30152 -0.34265,-0.43891c-0.13454,-0.15028 -0.30628,-0.24706 -0.38939,-0.4545c-0.20933,-0.52253 -0.01689,-1.23545 0.38721,-1.531c0.21842,-0.17691 0.40521,-0.39852 0.62718,-0.56658c0.03739,-0.02831 0.21558,-0.13637 0.24818,-0.21719c0.05232,-0.12967 -0.05576,-0.44263 -0.08892,-0.53825c-0.18601,-0.53651 -0.63648,-0.90454 -0.84402,-1.43598c0,0 -0.05316,-0.13931 0.06965,-0.20045c0.12282,-0.06114 0.17597,0.07816 0.17597,0.07816c0.19934,0.53867 0.65911,0.89657 0.84619,1.44185c0.06862,0.2 0.17503,0.55187 0.08673,0.77416c-0.08931,0.22483 -0.30603,0.2964 -0.46069,0.43997c-0.17251,0.16012 -0.3293,0.32886 -0.51185,0.47659c-0.29854,0.21012 -0.45073,0.7637 -0.29297,1.14895c0.06752,0.16485 0.22602,0.24487 0.33357,0.36532c0.12006,0.13444 0.20645,0.303 0.33452,0.43033c0.22173,0.22045 0.4589,0.36948 0.65249,0.62696l0.08431,0.25292c0,0 0.04618,0.14251 -0.07942,0.19573c-0.12561,0.05322 -0.17181,-0.08929 -0.17181,-0.08929z" fill="#000000" stroke="none"/><path d="M130.44484,83.6215c0,0 -0.27935,-2.11834 -0.25888,-3.15291c0.01992,-1.00678 0.54057,-2.97025 0.54057,-2.97025l2.80963,0.05556c0,0 0.05671,0.24336 0.12871,0.60131c-0.06673,0.38162 -0.10236,0.76837 -0.10236,1.15981c0,0.18273 0.00777,0.36444 0.02283,0.5451c-0.30969,1.23436 -0.40788,2.5387 -0.28941,3.81777z" fill="#ff0000" stroke="#000000"/></g><path d="M131.01101,91.59263c-0.26165,-0.33176 -0.20482,-0.81283 0.12695,-1.07448c0.33177,-0.26166 0.81285,-0.20481 1.0745,0.12695c0.26166,0.33176 0.20482,0.81284 -0.12695,1.07449c-0.33176,0.26165 -0.81285,0.2048 -1.0745,-0.12696z" data-paper-data="{&quot;index&quot;:null}" fill="url(#color-53)" stroke="none" stroke-width="0"/><g data-paper-data="{&quot;index&quot;:null}" stroke-width="1"><path d="M129.88832,90.51367c0,0 -0.16795,-2.13008 -0.09331,-3.16215c0.07264,-1.00436 0.69548,-2.93784 0.69548,-2.93784l2.80285,0.2027c0,0 0.34368,1.92652 0.27224,2.91403c-0.07568,1.04629 -0.63418,3.20335 -0.63418,3.20335z" fill="#696969" stroke="#000000"/><path d="M130.90795,90.55889l0.43867,-6.06568l1.06777,0.07722l-0.43868,6.06569z" fill="url(#color-54)" stroke="none"/><path d="M132.07439,90.6483l-0.05272,-0.20614c-0.16539,-0.23181 -0.38396,-0.37931 -0.57092,-0.58644c-0.12423,-0.13763 -0.20355,-0.31264 -0.31919,-0.45627c-0.12649,-0.15713 -0.29292,-0.26276 -0.36505,-0.47427c-0.18167,-0.53277 0.04786,-1.23462 0.4669,-1.5086c0.2274,-0.16522 0.42554,-0.37674 0.65602,-0.53292c0.03882,-0.02632 0.22242,-0.1249 0.25922,-0.20388c0.05904,-0.12673 -0.03249,-0.44495 -0.06059,-0.54217c-0.15763,-0.5455 -0.58821,-0.93665 -0.76761,-1.47824c0,0 -0.04578,-0.14189 0.08007,-0.19652c0.12585,-0.05462 0.17164,0.08728 0.17164,0.08728c0.17084,0.54838 0.61124,0.92988 0.76947,1.48423c0.05805,0.20333 0.14586,0.56026 0.04604,0.77764c-0.10095,0.21982 -0.32116,0.27994 -0.48312,0.41522c-0.18066,0.15088 -0.34607,0.31116 -0.53612,0.44912c-0.30912,0.1942 -0.49012,0.73904 -0.35274,1.13203c0.05878,0.16816 0.21287,0.25636 0.31396,0.38228c0.11285,0.14055 0.19029,0.31339 0.31152,0.44725c0.20986,0.23176 0.4389,0.39303 0.61873,0.66031l0.07094,0.25698c0,0 0.03866,0.14473 -0.08956,0.1913c-0.12822,0.04656 -0.16687,-0.09817 -0.16687,-0.09817z" fill="#000000" stroke="none"/><path d="M129.88832,90.51367c0,0 -0.16795,-2.13008 -0.09331,-3.16215c0.07264,-1.00436 0.69548,-2.93784 0.69548,-2.93784l2.80285,0.2027c0,0 0.34368,1.92652 0.27224,2.91403c-0.07568,1.04629 -0.63418,3.20335 -0.63418,3.20335z" fill="#ff0000" stroke="#000000"/></g><g data-paper-data="{&quot;index&quot;:null}" stroke-width="1"><path d="M129.67604,97.6476c0,0 -0.26242,-2.1205 -0.23371,-3.15488c0.02793,-1.00659 0.56425,-2.96586 0.56425,-2.96586l2.8091,0.07799c0,0 0.42893,1.90933 0.40147,2.89904c-0.0291,1.04862 -0.49123,3.22836 -0.49123,3.22836z" fill="#696969" stroke="#000000"/><path d="M130.69672,97.64747l0.16874,-6.07918l1.07013,0.02971l-0.16875,6.07917z" fill="url(#color-55)" stroke="none"/><path d="M131.866,97.68495l-0.06183,-0.20361c-0.17552,-0.22424 -0.40044,-0.36187 -0.59642,-0.5605c-0.13021,-0.13197 -0.21724,-0.30328 -0.33913,-0.44163c-0.13335,-0.15134 -0.30428,-0.24948 -0.38574,-0.45757c-0.20516,-0.52417 -0.00705,-1.23554 0.39941,-1.52785c0.21982,-0.17516 0.4084,-0.39527 0.6317,-0.56155c0.03761,-0.02801 0.21666,-0.13466 0.24991,-0.21521c0.05334,-0.12922 -0.05224,-0.44308 -0.08462,-0.53895c-0.18172,-0.53797 -0.62924,-0.90959 -0.83253,-1.44267c0,0 -0.05205,-0.13972 0.07124,-0.19988c0.12329,-0.06016 0.17535,0.07957 0.17535,0.07957c0.19504,0.54026 0.65193,0.90182 0.83465,1.44857c0.06702,0.20054 0.17061,0.55323 0.08055,0.77483c-0.0911,0.22412 -0.30838,0.29395 -0.46418,0.43628c-0.17378,0.15875 -0.33192,0.32623 -0.51566,0.47251c-0.30018,0.20774 -0.4568,0.76009 -0.3021,1.14658c0.06619,0.16539 0.22404,0.24665 0.33064,0.36796c0.11898,0.1354 0.20403,0.30464 0.33107,0.43297c0.21997,0.22222 0.45593,0.37313 0.64747,0.63216l0.08229,0.25357c0,0 0.04505,0.14289 -0.08098,0.19511c-0.12602,0.05221 -0.17107,-0.09066 -0.17107,-0.09066z" fill="#000000" stroke="none"/><path d="M129.67604,97.6476c0,0 -0.26242,-2.1205 -0.23371,-3.15488c0.02793,-1.00659 0.56425,-2.96586 0.56425,-2.96586l2.8091,0.07799c0,0 0.42893,1.90933 0.40147,2.89904c-0.0291,1.04862 -0.49123,3.22836 -0.49123,3.22836z" fill="#ff0000" stroke="#000000"/></g><path d="M124.95413,105.25229c-0.02168,-0.49742 0.364,-0.91825 0.86141,-0.93992c0.49743,-0.02168 0.91824,0.36399 0.93992,0.86141c0.02167,0.49742 -0.36399,0.91823 -0.86142,0.93993c-0.49743,0.02168 -0.91823,-0.36399 -0.93991,-0.86141z" data-paper-data="{&quot;index&quot;:null}" fill="url(#color-56)" stroke="none" stroke-width="0"/><path d="M126.97398,100.07246c0.23756,-0.43757 0.78487,-0.59969 1.22243,-0.36214c0.43757,0.23755 0.59969,0.78486 0.36214,1.22242c-0.23756,0.43757 -0.78485,0.59969 -1.22242,0.36214c-0.43757,-0.23755 -0.5997,-0.78487 -0.36215,-1.22243z" data-paper-data="{&quot;index&quot;:null}" fill="url(#color-57)" stroke="none" stroke-width="0"/><path d="M131.52472,98.99029c0.23757,-0.43756 0.78487,-0.5997 1.22242,-0.36214c0.19405,0.10536 0.33395,0.27163 0.40882,0.46223c0.00182,0.19993 0.00889,0.40032 0.02109,0.60093c-0.01713,0.05416 -0.03964,0.10748 -0.06775,0.15927c-0.23755,0.43757 -0.78486,0.59969 -1.22243,0.36214c-0.43757,-0.23755 -0.59971,-0.78487 -0.36215,-1.22242z" data-paper-data="{&quot;index&quot;:null}" fill="url(#color-58)" stroke="none" stroke-width="0"/><path d="" data-paper-data="{&quot;index&quot;:null}" fill="url(#color-59)" stroke="none" stroke-width="0"/><path d="M123.46483,84.24816c0.26436,-0.32961 0.74588,-0.3825 1.07549,-0.11814c0.32961,0.26437 0.3825,0.74588 0.11813,1.07549c-0.26438,0.32961 -0.74588,0.3825 -1.07549,0.11814c-0.32961,-0.26436 -0.38251,-0.74589 -0.11814,-1.0755z" data-paper-data="{&quot;index&quot;:null}" fill="url(#color-60)" stroke="none" stroke-width="0"/><g data-paper-data="{&quot;index&quot;:null}" stroke-width="1"><path d="M122.45744,84.78178c0,0 -0.82251,-1.97202 -1.07276,-2.97608c-0.24353,-0.97709 -0.25335,-3.00841 -0.25335,-3.00841l2.72677,-0.67962c0,0 0.92615,1.72391 1.1656,2.68458c0.25369,1.01788 0.39421,3.24163 0.39421,3.24163z" fill="#696969" stroke="#000000"/><path d="M123.44052,84.50741l-1.47078,-5.90099l1.03876,-0.2589l1.47079,5.901z" fill="url(#color-61)" stroke="none"/><path d="M124.57687,84.2294l-0.11427,-0.17952c-0.22932,-0.16885 -0.48294,-0.24097 -0.72508,-0.37965c-0.16089,-0.09213 -0.29072,-0.23376 -0.44533,-0.33428c-0.1691,-0.10996 -0.36015,-0.15857 -0.49451,-0.33712c-0.33845,-0.44978 -0.33874,-1.18823 -0.02577,-1.57899c0.16469,-0.22778 0.28716,-0.49045 0.45758,-0.71062c0.02871,-0.03708 0.17252,-0.18791 0.18291,-0.27443c0.01666,-0.13883 -0.16935,-0.41274 -0.22631,-0.49639c-0.31957,-0.46937 -0.85049,-0.70709 -1.18952,-1.16594c0,0 -0.08768,-0.12061 0.01492,-0.21168c0.10261,-0.09107 0.19027,0.02953 0.19027,0.02953c0.33302,0.46798 0.87026,0.69347 1.19316,1.17104c0.11843,0.17516 0.31299,0.48707 0.28576,0.72471c-0.02754,0.24034 -0.21807,0.366 -0.3299,0.54496c-0.12475,0.19959 -0.23206,0.4034 -0.36973,0.59365c-0.23334,0.28074 -0.2358,0.85487 0.01704,1.18559c0.1082,0.14151 0.2821,0.17739 0.41735,0.2656c0.15099,0.09845 0.27838,0.23862 0.43524,0.32811c0.27158,0.15494 0.53942,0.23692 0.7935,0.43495l0.14739,0.22215c0,0 0.08178,0.12552 -0.02558,0.20968c-0.10737,0.08417 -0.18915,-0.04136 -0.18915,-0.04136z" fill="#000000" stroke="none"/><path d="M122.45744,84.78178c0,0 -0.82251,-1.97202 -1.07276,-2.97608c-0.24353,-0.97709 -0.25335,-3.00841 -0.25335,-3.00841l2.72677,-0.67962c0,0 0.92615,1.72391 1.1656,2.68458c0.25369,1.01788 0.39421,3.24163 0.39421,3.24163z" fill="#ff0000" stroke="#000000"/></g><path d="M125.08429,92.3289c-0.33918,-0.25198 -0.40985,-0.7312 -0.15787,-1.07038c0.25198,-0.33918 0.73122,-0.40985 1.07039,-0.15787c0.33918,0.25198 0.40985,0.73122 0.15787,1.07039c-0.25198,0.33917 -0.73122,0.40984 -1.07039,0.15786z" data-paper-data="{&quot;index&quot;:null}" fill="url(#color-62)" stroke="none" stroke-width="0"/><g data-paper-data="{&quot;index&quot;:null}" stroke-width="1"><path d="M123.71891,91.58033c0,0 -0.71804,-2.01242 -0.91533,-3.02821c-0.192,-0.98851 -0.09534,-3.01753 -0.09534,-3.01753l2.75862,-0.53581c0,0 0.83455,1.77006 1.0233,2.74198c0.20001,1.02978 0.22382,3.25785 0.22382,3.25785z" fill="#696969" stroke="#000000"/><path d="M124.71502,91.35788l-1.15955,-5.96996l1.05092,-0.20412l1.15953,5.96997z" fill="url(#color-63)" stroke="none"/><path d="M125.86438,91.13978l-0.10469,-0.18524c-0.22015,-0.18061 -0.46964,-0.26596 -0.70418,-0.41712c-0.15584,-0.10044 -0.27808,-0.24868 -0.42719,-0.35715c-0.16311,-0.11867 -0.35134,-0.1772 -0.47616,-0.36257c-0.31441,-0.46689 -0.27601,-1.20432 0.05701,-1.57816c0.17639,-0.21885 0.31247,-0.47475 0.4942,-0.68567c0.03061,-0.03554 0.18213,-0.17862 0.19703,-0.26447c0.02391,-0.13774 -0.14749,-0.42105 -0.19998,-0.50757c-0.29453,-0.48546 -0.81227,-0.75067 -1.12679,-1.22667c0,0 -0.08124,-0.12502 0.026,-0.21061c0.10723,-0.08555 0.18847,0.03946 0.18847,0.03946c0.30804,0.48479 0.83274,0.73813 1.13016,1.23198c0.1091,0.18113 0.28701,0.50278 0.24738,0.73868c-0.0401,0.23855 -0.23696,0.35406 -0.35801,0.52692c-0.13502,0.19279 -0.25288,0.39069 -0.40033,0.57346c-0.24773,0.26814 -0.28027,0.84133 -0.04509,1.18486c0.10063,0.14699 0.27239,0.19191 0.40285,0.28709c0.14561,0.10622 0.26549,0.25287 0.41745,0.35045c0.26308,0.16897 0.52626,0.26487 0.76961,0.47595l0.13555,0.22956c0,0 0.07509,0.12963 -0.03654,0.20805c-0.11162,0.07841 -0.1867,-0.05122 -0.1867,-0.05122z" fill="#000000" stroke="none"/><path d="M123.71891,91.58033c0,0 -0.71804,-2.01242 -0.91533,-3.02821c-0.192,-0.98851 -0.09534,-3.01753 -0.09534,-3.01753l2.75862,-0.53581c0,0 0.83455,1.77006 1.0233,2.74198c0.20001,1.02978 0.22382,3.25785 0.22382,3.25785z" fill="#ff0000" stroke="#000000"/></g><g data-paper-data="{&quot;index&quot;:null}" stroke-width="1"><path d="M125.37581,98.52242c0,0 -0.80673,-1.97851 -1.04897,-2.98454c-0.23573,-0.97898 -0.22933,-3.01033 -0.22933,-3.01033l2.7321,-0.65783c0,0 0.91236,1.73123 1.14414,2.6938c0.24558,1.01988 0.36834,3.24468 0.36834,3.24468z" fill="#696969" stroke="#000000"/><path d="M126.36108,98.25593l-1.42365,-5.91254l1.0408,-0.25061l1.42363,5.91254z" fill="url(#color-64)" stroke="none"/><path d="M127.49959,97.98696l-0.11284,-0.18043c-0.22796,-0.17066 -0.481,-0.24482 -0.72202,-0.38542c-0.16014,-0.09341 -0.28886,-0.23607 -0.44263,-0.33782c-0.16823,-0.1113 -0.35886,-0.16143 -0.4918,-0.34105c-0.33484,-0.45247 -0.32925,-1.19089 -0.01317,-1.57915c0.16649,-0.22646 0.29107,-0.48815 0.46326,-0.70695c0.029,-0.03685 0.17401,-0.18653 0.18509,-0.27297c0.01777,-0.13867 -0.16605,-0.41409 -0.22233,-0.49819c-0.31582,-0.4719 -0.84482,-0.71384 -1.18018,-1.1754c0,0 -0.08671,-0.12128 0.01662,-0.21154c0.10332,-0.09026 0.19003,0.03104 0.19003,0.03104c0.32929,0.47063 0.8647,0.70042 1.18378,1.18054c0.11703,0.1761 0.30908,0.48954 0.27996,0.72696c-0.02945,0.24012 -0.22099,0.36424 -0.33424,0.5423c-0.12633,0.1986 -0.23528,0.40153 -0.37447,0.5907c-0.23557,0.27889 -0.2426,0.85296 0.0076,1.18569c0.10705,0.14238 0.28064,0.17964 0.41521,0.26892c0.15019,0.09966 0.27647,0.24084 0.43261,0.33157c0.27033,0.15711 0.53751,0.24122 0.79001,0.44128l0.14561,0.2233c0,0 0.08078,0.12618 -0.02725,0.20948c-0.10803,0.08329 -0.18881,-0.04287 -0.18881,-0.04287z" fill="#000000" stroke="none"/><path d="M125.37581,98.52242c0,0 -0.80673,-1.97851 -1.04897,-2.98454c-0.23573,-0.97898 -0.22933,-3.01033 -0.22933,-3.01033l2.7321,-0.65783c0,0 0.91236,1.73123 1.14414,2.6938c0.24558,1.01988 0.36834,3.24468 0.36834,3.24468z" fill="#ff0000" stroke="#000000"/></g><path d="M118.7916,105.51452c-0.48199,0.12489 -0.97394,-0.1646 -1.09883,-0.64657c-0.12488,-0.48198 0.16461,-0.97395 0.64658,-1.09883c0.48198,-0.1249 0.97393,0.1646 1.09882,0.64658c0.12488,0.48198 -0.1646,0.97393 -0.64658,1.09882z" data-paper-data="{&quot;index&quot;:null}" fill="url(#color-65)" stroke="none" stroke-width="0"/><g data-paper-data="{&quot;index&quot;:null}" stroke-width="1"><path d="M117.38363,105.85375c0,0 -2.35729,-0.88444 -3.42157,-1.4795c-1.03569,-0.57907 -2.78829,-2.20937 -2.78829,-2.20937l1.61602,-2.8903c0,0 2.22781,0.59526 3.24612,1.1646c1.07892,0.60325 3.10227,2.27652 3.10227,2.27652z" fill="#696969" stroke="#000000"/><path d="M117.94109,104.78804l-6.2549,-3.49724l0.61563,-1.10107l6.25489,3.49724z" fill="url(#color-66)" stroke="none"/><path d="M118.61901,103.58773l-0.24636,-0.04667c-0.33,0.06076 -0.59659,0.22039 -0.91103,0.31649c-0.20895,0.06386 -0.43532,0.06115 -0.64638,0.11282c-0.23087,0.05654 -0.42672,0.18142 -0.68847,0.15276c-0.65935,-0.07216 -1.29384,-0.66763 -1.37698,-1.25169c-0.06279,-0.32521 -0.18958,-0.64231 -0.2412,-0.9663c-0.00869,-0.05457 -0.02221,-0.29976 -0.08815,-0.37849c-0.1058,-0.1263 -0.49113,-0.1875 -0.60892,-0.20607c-0.66095,-0.10417 -1.29344,0.16007 -1.96105,0.08109c0,0 -0.17431,-0.02198 -0.16977,-0.18357c0.00455,-0.1616 0.17885,-0.13961 0.17885,-0.13961c0.67061,0.09149 1.29769,-0.18801 1.96837,-0.08009c0.24599,0.03958 0.67082,0.12409 0.85297,0.3392c0.18421,0.21753 0.13842,0.48256 0.20192,0.72298c0.07081,0.26816 0.15926,0.52477 0.21161,0.7965c0.0529,0.42691 0.54404,0.89217 1.03208,0.9418c0.20883,0.02122 0.37992,-0.09919 0.56481,-0.1442c0.20635,-0.05025 0.4295,-0.0466 0.63291,-0.10913c0.35217,-0.10826 0.63866,-0.27217 1.01373,-0.33064l0.3097,0.05261c0,0 0.17379,0.03101 0.15945,0.19112c-0.01433,0.16012 -0.18811,0.12909 -0.18811,0.12909z" fill="#000000" stroke="none"/><path d="M117.38363,105.85375c0,0 -2.35729,-0.88444 -3.42157,-1.4795c-1.03569,-0.57907 -2.78829,-2.20937 -2.78829,-2.20937l1.61602,-2.8903c0,0 2.22781,0.59526 3.24612,1.1646c1.07892,0.60325 3.10227,2.27652 3.10227,2.27652z" fill="#ff0000" stroke="#000000"/></g><g data-paper-data="{&quot;index&quot;:null}" stroke-width="1"><path d="M124.68982,109.82641c0,0 -2.41182,-0.72269 -3.51397,-1.24427c-1.07254,-0.50756 -2.93159,-2.01537 -2.93159,-2.01537l1.41647,-2.99314c0,0 2.26303,0.44293 3.31757,0.94198c1.11732,0.52875 3.24939,2.0611 3.24939,2.0611z" fill="#696969" stroke="#000000"/><path d="M125.17378,108.72537l-6.47748,-3.0654l0.53961,-1.14024l6.47748,3.0654z" fill="url(#color-67)" stroke="none"/><path d="M125.7688,107.4819l-0.24896,-0.02987c-0.32513,0.08299 -0.58027,0.2603 -0.88748,0.37749c-0.20414,0.07789 -0.43018,0.0905 -0.63725,0.15636c-0.22649,0.07206 -0.41344,0.2099 -0.67654,0.19907c-0.66271,-0.02732 -1.3361,-0.57844 -1.45862,-1.15551c-0.08468,-0.3202 -0.23269,-0.62801 -0.30613,-0.94774c-0.01238,-0.05385 -0.04248,-0.29757 -0.1136,-0.37164c-0.1141,-0.11884 -0.5027,-0.15381 -0.62148,-0.16434c-0.66647,-0.05914 -1.27963,0.24734 -1.95105,0.21378c0,0 -0.17539,-0.01013 -0.18181,-0.17165c-0.00641,-0.16153 0.16897,-0.15141 0.16897,-0.15141c0.67529,0.04585 1.28199,-0.27552 1.95844,-0.21327c0.24812,0.02282 0.67769,0.07836 0.874,0.28063c0.19853,0.20455 0.17082,0.47206 0.25045,0.70762c0.08881,0.26274 0.19447,0.51276 0.2651,0.78032c0.0817,0.42235 0.60322,0.85327 1.09351,0.86971c0.2098,0.00705 0.37233,-0.1247 0.55374,-0.18213c0.20249,-0.06411 0.42536,-0.07559 0.62408,-0.15177c0.34402,-0.13189 0.61875,-0.31483 0.989,-0.39857l0.31255,0.0315c0,0 0.17548,0.01918 0.17203,0.17989c-0.00345,0.16071 -0.17894,0.14152 -0.17894,0.14152z" fill="#000000" stroke="none"/><path d="M124.68982,109.82641c0,0 -2.41182,-0.72269 -3.51397,-1.24427c-1.07254,-0.50756 -2.93159,-2.01537 -2.93159,-2.01537l1.41647,-2.99314c0,0 2.26303,0.44293 3.31757,0.94198c1.11732,0.52875 3.24939,2.0611 3.24939,2.0611z" fill="#ff0000" stroke="#000000"/></g><path d="" data-paper-data="{&quot;index&quot;:null}" fill="url(#color-68)" stroke="none" stroke-width="0"/><g data-paper-data="{&quot;index&quot;:null}" stroke-width="1"><path d="" fill="#696969" stroke="#000000"/><path d="" fill="url(#color-69)" stroke="none"/><path d="" fill="#000000" stroke="none"/><path d="" fill="#ff0000" stroke="#000000"/></g><path d="" data-paper-data="{&quot;index&quot;:null}" fill="url(#color-70)" stroke="none" stroke-width="0"/><g data-paper-data="{&quot;index&quot;:null}" stroke-width="1"><path d="" fill="#696969" stroke="#000000"/><path d="" fill="url(#color-71)" stroke="none"/><path d="" fill="#000000" stroke="none"/><path d="" fill="#ff0000" stroke="#000000"/></g><g data-paper-data="{&quot;index&quot;:null}" stroke-width="1"><path d="" fill="#696969" stroke="#000000"/><path d="" fill="url(#color-72)" stroke="none"/><path d="" fill="#000000" stroke="none"/><path d="" fill="#ff0000" stroke="#000000"/></g><path d="M131.16485,113.98499c-4.25682,-0.04901 -7.65439,-4.71275 -7.58872,-10.41674c0.06567,-5.70399 2.95944,-6.75698 7.21625,-6.70798c0.86624,0.00997 1.72218,0.06482 2.53557,0.19392c-0.3252,1.76876 -0.18039,3.65254 0.34915,5.45045c-0.01236,0.25275 -0.02321,0.50597 -0.03247,0.75969c-0.28081,0.92257 -0.43185,1.90168 -0.43185,2.91606c0,0.36452 0.01951,0.72449 0.05753,1.07892c-0.23071,1.88567 -0.18269,3.76049 0.39392,5.50352c-0.07912,0.26484 -0.15477,0.52958 -0.22708,0.79426c-0.72017,0.28689 -1.48332,0.43698 -2.27231,0.4279z" data-paper-data="{&quot;index&quot;:null}" fill="#ff0000" stroke="#000000" stroke-width="1"/></g></g><path d="M133.33335,148.77664v31.5567h-40.26106" fill="none" stroke="#000000" stroke-width="1.5" stroke-linecap="butt"/><path d="M87.46253,180.33338h-62.79585v-140.66667h108.66667v107.5873" fill="none" stroke="#000000" stroke-width="1.5" stroke-linecap="butt"/><text transform="translate(29.45353,73.73584) rotate(-15.40301) scale(0.3386,0.3386)" font-size="40" xml:space="preserve" fill="#4a0000" fill-rule="nonzero" stroke="none" stroke-width="1" stroke-linecap="butt" stroke-linejoin="miter" stroke-miterlimit="10" stroke-dasharray="" stroke-dashoffset="0" font-family="Marker" font-weight="normal" text-anchor="start" style="mix-blend-mode: normal"><tspan x="0" dy="0">CELEBRATE</tspan><tspan x="0" dy="46.15px">WITH ELMO!</tspan></text><text transform="translate(27.85353,71.33584) rotate(-15.40301) scale(0.3386,0.3386)" font-size="40" xml:space="preserve" fill="#ff0000" fill-rule="nonzero" stroke="none" stroke-width="1" stroke-linecap="butt" stroke-linejoin="miter" stroke-miterlimit="10" stroke-dasharray="" stroke-dashoffset="0" font-family="Marker" font-weight="normal" text-anchor="start" style="mix-blend-mode: normal"><tspan x="0" dy="0">CELEBRATE</tspan><tspan x="0" dy="46.15px">WITH ELMO!</tspan></text></g><path d="M345.91889,74.09379l-0.54999,-4.32902l52.90387,-8.66551l4.86064,1.88097z" data-paper-data="{&quot;index&quot;:null}" fill="url(#color-73)" stroke="none" stroke-width="0" stroke-linecap="butt"/><path d="M329.20385,62.91106v-3.76157h74.22222v3.76157c0,0 -2.02054,0 -4.33364,0c-9.28905,0 -69.88858,0 -69.88858,0z" data-paper-data="{&quot;index&quot;:null}" fill="url(#color-74)" stroke="none" stroke-width="0" stroke-linecap="butt"/><path d="M312.95116,64.02355v-10.4h36.4v10.4z" data-paper-data="{&quot;index&quot;:null}" fill="url(#color-75)" stroke="none" stroke-width="0" stroke-linecap="butt"/><path d="M312.38396,83.98294v-19.13194h37.83334v19.13194z" data-paper-data="{&quot;index&quot;:null}" fill="url(#color-76)" stroke="none" stroke-width="0" stroke-linecap="butt"/><path d="M-19.69972,39.38138v-97.59759h521.02103v97.5976z" fill="url(#color-77)" stroke="none" stroke-width="0" stroke-linecap="butt"/><path d="M312.38396,83.98294v-19.13194h11.5v19.13194z" data-paper-data="{&quot;index&quot;:null}" fill="url(#color-78)" stroke="none" stroke-width="0" stroke-linecap="butt"/></g></g></svg>