<svg version="1.1" xmlns="http://www.w3.org/2000/svg" xmlns:xlink="http://www.w3.org/1999/xlink" width="798.57253" height="780.96609" viewBox="0,0,798.57253,780.96609"><defs><linearGradient x1="237.91113" y1="322.13138" x2="236.51371" y2="343.58548" gradientUnits="userSpaceOnUse" id="color-1"><stop offset="0" stop-color="#5c5c5c"/><stop offset="1" stop-color="#9b9b9b"/></linearGradient><linearGradient x1="109.74921" y1="320.86686" x2="151.63562" y2="323.59506" gradientUnits="userSpaceOnUse" id="color-2"><stop offset="0" stop-color="#5c5c5c"/><stop offset="1" stop-color="#9b9b9b"/></linearGradient><linearGradient x1="170.05695" y1="680.88888" x2="126.17751" y2="709.51198" gradientUnits="userSpaceOnUse" id="color-3"><stop offset="0" stop-color="#5c5c5c"/><stop offset="1" stop-color="#9b9b9b"/></linearGradient><linearGradient x1="328.03766" y1="340.29969" x2="372.94969" y2="343.22498" gradientUnits="userSpaceOnUse" id="color-4"><stop offset="0" stop-color="#5c5c5c"/><stop offset="1" stop-color="#9b9b9b"/></linearGradient><linearGradient x1="260.8009" y1="683.74777" x2="300.59666" y2="717.82096" gradientUnits="userSpaceOnUse" id="color-5"><stop offset="0" stop-color="#5c5c5c"/><stop offset="1" stop-color="#9b9b9b"/></linearGradient><linearGradient x1="274.41972" y1="392.02245" x2="290.91757" y2="405.80813" gradientUnits="userSpaceOnUse" id="color-6"><stop offset="0" stop-color="#5c5c5c"/><stop offset="1" stop-color="#9b9b9b"/></linearGradient><linearGradient x1="206.81447" y1="389.67094" x2="188.66778" y2="401.20029" gradientUnits="userSpaceOnUse" id="color-7"><stop offset="0" stop-color="#5c5c5c"/><stop offset="1" stop-color="#9b9b9b"/></linearGradient><linearGradient x1="217.8466" y1="535.67158" x2="243.38708" y2="537.33511" gradientUnits="userSpaceOnUse" id="color-8"><stop offset="0" stop-color="#5c5c5c"/><stop offset="1" stop-color="#9b9b9b"/></linearGradient><linearGradient x1="129.13551" y1="236.88028" x2="359.41359" y2="242.70131" gradientUnits="userSpaceOnUse" id="color-9"><stop offset="0" stop-color="#6c6c6c"/><stop offset="1" stop-color="#c4c4c4"/></linearGradient><linearGradient x1="203.90442" y1="204.3924" x2="294.48041" y2="206.682" gradientUnits="userSpaceOnUse" id="color-10"><stop offset="0" stop-color="#6e6e6e"/><stop offset="1" stop-color="#c0c0c0"/></linearGradient><linearGradient x1="252.04243" y1="60.07347" x2="250.7424" y2="111.50239" gradientUnits="userSpaceOnUse" id="color-11"><stop offset="0" stop-color="#a6a6a6"/><stop offset="1" stop-color="#707070"/></linearGradient><linearGradient x1="250.83421" y1="92.67873" x2="248.33117" y2="191.69829" gradientUnits="userSpaceOnUse" id="color-12"><stop offset="0" stop-color="#a6a6a6"/><stop offset="1" stop-color="#707070"/></linearGradient><linearGradient x1="187.80838" y1="65.25617" x2="214.62941" y2="186.72024" gradientUnits="userSpaceOnUse" id="color-13"><stop offset="0" stop-color="#a6a6a6"/><stop offset="1" stop-color="#707070"/></linearGradient><linearGradient x1="314.30044" y1="72.29428" x2="281.37681" y2="192.24792" gradientUnits="userSpaceOnUse" id="color-14"><stop offset="0" stop-color="#a6a6a6"/><stop offset="1" stop-color="#707070"/></linearGradient><linearGradient x1="249.29704" y1="168.68016" x2="248.57911" y2="197.08114" gradientUnits="userSpaceOnUse" id="color-15"><stop offset="0" stop-color="#a6a6a6"/><stop offset="1" stop-color="#707070"/></linearGradient><linearGradient x1="243.69682" y1="193.88539" x2="242.99727" y2="221.55825" gradientUnits="userSpaceOnUse" id="color-16"><stop offset="0" stop-color="#707070"/><stop offset="1" stop-color="#a6a6a6"/></linearGradient><linearGradient x1="575.41493" y1="668.74434" x2="620.43147" y2="681.35382" gradientUnits="userSpaceOnUse" id="color-17"><stop offset="0" stop-color="#5c5c5c"/><stop offset="1" stop-color="#9b9b9b"/></linearGradient><linearGradient x1="483.59788" y1="480.80194" x2="528.61435" y2="493.41143" gradientUnits="userSpaceOnUse" id="color-18"><stop offset="0" stop-color="#5c5c5c"/><stop offset="1" stop-color="#9b9b9b"/></linearGradient><linearGradient x1="420.55483" y1="421.83176" x2="435.98619" y2="406.89358" gradientUnits="userSpaceOnUse" id="color-19"><stop offset="0" stop-color="#5c5c5c"/><stop offset="1" stop-color="#9b9b9b"/></linearGradient><linearGradient x1="541.34345" y1="585.93289" x2="560.76097" y2="576.75497" gradientUnits="userSpaceOnUse" id="color-20"><stop offset="0" stop-color="#5c5c5c"/><stop offset="1" stop-color="#9b9b9b"/></linearGradient><linearGradient x1="-130.41572" y1="619.33748" x2="-176.68774" y2="626.001" gradientUnits="userSpaceOnUse" id="color-21"><stop offset="0" stop-color="#5c5c5c"/><stop offset="1" stop-color="#9b9b9b"/></linearGradient><linearGradient x1="-14.99495" y1="444.89337" x2="-61.26676" y2="451.55688" gradientUnits="userSpaceOnUse" id="color-22"><stop offset="0" stop-color="#5c5c5c"/><stop offset="1" stop-color="#9b9b9b"/></linearGradient><linearGradient x1="55.16492" y1="394.59926" x2="41.80173" y2="377.78555" gradientUnits="userSpaceOnUse" id="color-23"><stop offset="0" stop-color="#5c5c5c"/><stop offset="1" stop-color="#9b9b9b"/></linearGradient><linearGradient x1="-85.89002" y1="541.64541" x2="-103.9529" y2="530.02623" gradientUnits="userSpaceOnUse" id="color-24"><stop offset="0" stop-color="#5c5c5c"/><stop offset="1" stop-color="#9b9b9b"/></linearGradient></defs><g transform="translate(176.9293,51.90923)"><g data-paper-data="{&quot;isPaintingLayer&quot;:true}" fill-rule="nonzero" stroke-linejoin="miter" stroke-miterlimit="10" stroke-dasharray="" stroke-dashoffset="0" style="mix-blend-mode: normal"><path d="M128.22198,336.53196l1.3974,-21.45408l216.58345,14.10701l-1.39739,21.45406z" fill="url(#color-1)" stroke="none" stroke-width="0" stroke-linecap="butt"/><path d="M151.63562,323.59506c-0.75338,11.56666 -10.74069,20.33247 -22.3073,19.57912c-11.56666,-0.75338 -20.33247,-10.74069 -19.57914,-22.30732c0.75338,-11.56659 10.74074,-20.33252 22.30733,-19.57915c11.56659,0.75338 20.33244,10.74072 19.57904,22.30732z" fill="url(#color-2)" stroke="none" stroke-width="0" stroke-linecap="butt"/><path d="M126.17747,709.51199c-6.29109,-13.38928 -1.56822,-30.65086 10.54871,-38.55493c12.117,-7.904 27.03964,-3.45734 33.33077,9.93192c6.2911,13.38926 1.56831,30.6509 -10.54865,38.55495c-12.11694,7.90401 -27.03963,3.45732 -33.33075,-9.93195z" data-paper-data="{&quot;index&quot;:null}" fill="url(#color-3)" stroke="none" stroke-width="0" stroke-linecap="butt"/><path d="M372.94969,343.22498c-0.80779,12.40218 -11.51656,21.8012 -23.91863,20.99338c-12.40208,-0.8078 -21.80119,-11.5166 -20.99338,-23.91867c0.80781,-12.40216 11.51657,-21.80113 23.91868,-20.99333c12.40208,0.8078 21.80116,11.51651 20.99335,23.91865z" fill="url(#color-4)" stroke="none" stroke-width="0" stroke-linecap="butt"/><path d="M300.59666,717.82096c-7.97481,12.46009 -23.34821,14.93344 -34.33747,5.52443c-10.98929,-9.40906 -13.43307,-27.13749 -5.45823,-39.59756c7.97481,-12.46009 23.34816,-14.93342 34.33751,-5.52437c10.98929,9.40906 13.43306,27.13744 5.45833,39.59751z" fill="url(#color-5)" stroke="none" stroke-width="0" stroke-linecap="butt"/><path d="M99.97147,616.26156c3.04551,-46.7574 236.9965,-31.51917 233.95101,15.2382c-3.04551,46.7574 -100.79413,78.45575 -122.48985,77.04259c-28.84703,-1.87892 -114.50659,-45.52341 -111.4611,-92.28082z" fill="#1300d2" stroke="#000000" stroke-width="2" stroke-linecap="butt"/><path d="M245.07567,283.42582c45.76734,4.29426 139.65702,99.35581 132.4356,210.22601c-2.35447,36.14787 -11.48871,69.61325 -25.51696,98.12125c-28.99803,58.92983 -230.69826,46.81872 -252.12313,-14.13275c-10.77015,-30.6399 -15.79804,-65.85481 -13.38224,-102.94403c7.22144,-110.87019 104.54085,-196.34154 158.58678,-191.27049z" fill="#696969" stroke="#000000" stroke-width="2" stroke-linecap="butt"/><path d="M224.52798,451.72876l99.78348,-119.41261l16.49774,13.78585l-99.78348,119.41261z" fill="url(#color-6)" stroke="none" stroke-width="0" stroke-linecap="butt"/><path d="M230.39299,466.87403l-83.45041,-131.34747l18.14663,-11.52935l83.45047,131.34745z" data-paper-data="{&quot;index&quot;:null}" fill="url(#color-7)" stroke="none" stroke-width="0" stroke-linecap="butt"/><path d="M211.82454,628.12813l12.04421,-184.91316l25.54046,1.66357l-12.04416,184.91317z" fill="url(#color-8)" stroke="none" stroke-width="0" stroke-linecap="butt"/><path d="M253.30089,443.57542c0.98787,-3.70997 4.69778,-2.72211 4.69778,-2.72211l2.89114,0.86453c1.39078,0.73496 2.78151,1.46988 4.1723,2.20485c7.01313,6.44396 13.65222,14.7968 19.7345,22.84943c2.78064,-1.16139 5.29093,-3.0114 7.35334,-5.80405c4.82221,-6.52989 0.57259,-14.34072 -0.00727,-21.26202c-0.7064,-8.43194 2.1546,-16.89093 1.65153,-25.34578c-0.73294,-12.31773 -9.19214,-25.5483 -16.34031,-35.20458c-6.81397,-9.36252 -20.58602,-11.69473 -25.8253,-21.69464c-4.41673,-8.42992 -0.74917,-18.24019 -3.39893,-26.83588c-0.73883,3.57757 -2.14642,6.95515 -4.45434,10.0219c-5.69418,7.56663 -17.12192,14.59956 -25.32662,18.89676c-5.32776,2.79036 -14.97737,4.70331 -19.2779,9.11526c-3.30826,3.39391 -4.26693,8.46499 -6.47714,12.65759c-8.6831,16.47136 -22.29825,35.03537 -4.25065,49.70673c4.05583,3.29711 7.59646,5.40351 12.85262,5.6391l1.70975,0.11136c0,0 3.83111,0.24954 3.58159,4.08061c-0.24955,3.83108 -4.08067,3.58153 -4.08067,3.58153l-1.70975,-0.11136c-13.77135,-1.0979 -32.40057,-16.37208 -30.06777,-32.07733c1.75522,-11.81671 9.68753,-24.10657 15.17245,-34.5113c0.63472,-1.20409 7.30127,-13.95771 7.8456,-14.51187c5.04495,-5.13608 14.91327,-7.23402 21.14463,-10.48506c7.29434,-3.80565 17.72901,-10.13899 22.84339,-16.83235c4.9073,-6.42241 4.24416,-15.72077 1.94856,-25.13384c-4.5513,-8.37835 -10.2538,-16.14002 -17.28297,-21.91736c0,0 -2.95543,-2.45055 -0.5048,-5.40588c2.45052,-2.95537 5.40593,-0.50482 5.40593,-0.50482c1.84666,1.54318 3.6214,3.20834 5.32255,4.97591c-0.25154,-0.87166 -0.47954,-1.7132 -0.67806,-2.52016c0,0 -0.91685,-3.72817 2.81125,-4.64501c3.72809,-0.91687 4.64493,2.81125 4.64493,2.81125c1.69522,6.89284 4.657,14.90736 6.82114,23.05597c3.77132,6.76627 6.81047,13.924 9.07339,20.91204c2.75985,8.52271 -0.77601,18.33493 3.21255,26.51833c2.37706,4.87709 9.72556,6.49747 13.83769,9.23539c4.43333,2.95179 8.10286,7.04039 11.28689,11.31009c8.06057,10.96974 16.96244,25.3735 17.8229,39.26671c0.52417,8.46362 -2.38274,16.95628 -1.65093,25.35566c0.8094,9.28956 5.00435,17.40803 -1.37972,26.1707c-2.56789,3.52471 -5.60652,5.98364 -8.94672,7.63477c0.11298,0.15141 0.22577,0.3025 0.33828,0.45323c4.35226,5.83 6.93572,11.87817 13.04419,16.18493c19.02177,13.41117 24.27552,-18.17969 22.45469,-30.2542c-9.22682,-31.73273 -21.65786,-65.2769 -1.98658,-96.38294c2.81488,-4.45118 6.58704,-7.81817 10.52101,-11.06061c0.09096,1.92563 1.61635,3.51696 3.58547,3.64517c0.2276,0.01483 0.45192,0.00956 0.67104,-0.01441c0.27224,0.63651 0.71232,1.18764 1.26809,1.59415c-3.62294,2.92999 -7.09314,5.99747 -9.55906,9.94432c-18.31029,29.30695 -5.55636,60.9282 3.00143,90.63591c1.15803,7.79861 2.1489,17.09289 -0.78368,24.67823c-5.59548,14.47288 -19.92144,22.86718 -33.58551,13.49805c-6.92737,-4.74998 -9.94068,-11.36623 -14.78388,-17.87472c-0.63885,-0.85859 -1.28646,-1.73258 -1.94227,-2.61771c-8.73793,1.43581 -18.47137,-0.59641 -26.95554,-2.67346c-1.59407,-0.54176 -3.1881,-1.08356 -4.78215,-1.62531l0.13383,0.14137c0,0 -3.83107,-0.24952 -3.58154,-4.08064c0.24955,-3.83108 4.08059,-3.58154 4.08059,-3.58154l1.84347,0.25268c1.48527,0.50736 2.97061,1.01483 4.45594,1.5222c5.87078,1.42624 12.94793,3.23068 19.55729,3.0194c-4.95892,-6.53007 -10.28256,-13.09591 -15.82227,-18.22222c-1.10042,-0.55876 -2.20079,-1.11758 -3.3011,-1.67631l-1.32794,-0.25895c0,0 -3.70991,-0.98785 -2.72211,-4.69776z" fill="#000000" stroke="none" stroke-width="0.5" stroke-linecap="butt"/><path d="M220.97416,464.2724c1.47374,3.54509 -2.07128,5.01883 -2.07128,5.01883l-2.48741,0.82223c-6.5421,5.58098 -10.6967,13.44313 -15.64592,20.51593c-18.05974,25.54886 -54.71749,19.9332 -66.8123,-8.64472c-6.79337,-16.05162 2.42593,-39.60974 12.16751,-52.21401c14.70452,-21.53142 17.28023,-40.51278 12.40315,-65.72569c-1.24064,-6.41365 -4.13934,-16.34433 -9.82969,-21.40212c1.04817,-0.66671 1.55897,-1.73622 1.55897,-1.73622c0.7248,-1.56815 1.60927,-3.09393 2.67541,-4.46464c5.56346,4.62107 8.96667,11.98557 11.2848,19.18025c9.17197,28.46651 4.75883,54.1964 -11.88048,78.66153c-8.40493,10.85626 -14.59931,27.38884 -12.53324,41.58817c0.57613,3.95966 3.54745,7.26274 6.04574,10.05581c4.43116,4.95388 9.0156,11.22194 15.80357,13.18066c13.41029,3.86965 25.43014,-2.18844 32.82559,-12.88105c5.3807,-7.68912 9.86687,-15.72204 16.90531,-21.91366l4.57152,-2.11233c0,0 3.54503,-1.47381 5.01879,2.07128z" fill="#000000" stroke="none" stroke-width="0.5" stroke-linecap="butt"/><path d="M243.32136,450.44622c3.83108,0.24955 3.58152,4.0806 3.58152,4.0806l-0.39065,2.90115c-3.33735,8.08987 -4.95011,17.06366 -9.06963,24.83206c-2.26252,4.26651 -8.55679,9.89135 -8.38098,15.4152c0.1809,5.68449 5.51368,11.10107 8.76072,15.21128c7.32533,9.27251 16.45402,16.68626 24.0248,25.82819c1.34773,4.19032 3.4591,8.44343 2.27398,13.05495c-4.27051,16.61807 -29.70157,24.54176 -43.16995,31.87467c-3.92378,2.1363 -9.30179,2.38331 -12.02029,5.92865c-0.80673,1.05206 0.26374,2.6426 0.52273,3.94285c1.35568,6.80693 3.05496,12.1312 6.56054,18.12688c3.44932,5.89946 6.58676,9.58235 12.0244,13.68051c0,0 3.06165,2.3164 0.74521,5.37805c-2.31647,3.06164 -5.37806,0.74514 -5.37806,0.74514c-6.20404,-4.71032 -10.0863,-9.18755 -14.02163,-15.93101c-3.52405,-6.03861 -11.72526,-22.41842 -7.05871,-29.85692c0.74232,-1.1832 13.05029,-7.72115 14.95432,-8.75782c12.86946,-7.0068 43.57804,-15.80528 37.84114,-34.48287c-10.46764,-12.14795 -33.31316,-26.88539 -33.73755,-44.7598c-0.17723,-7.46548 6.14438,-13.12504 9.31785,-19.07359c3.98872,-7.47681 5.50339,-16.26266 8.71012,-24.07772l-0.17047,-0.47901c0,0 0.24954,-3.83103 4.0806,-3.58149z" fill="#000000" stroke="none" stroke-width="0.5" stroke-linecap="butt"/><g><path d="M177.76855,485.49106l6.78733,-104.20525l108.54712,7.07012l-6.78733,104.20525z" fill="#323232" stroke="none" stroke-width="0" stroke-linecap="butt"/><g stroke="#000000"><path d="M237.94301,392.1546c23.18963,1.51044 40.7641,21.53382 39.25367,44.72348c-1.51044,23.18963 -21.53389,40.7641 -44.72348,39.25368c-23.18963,-1.51044 -40.7641,-21.53389 -39.25365,-44.72342c1.51043,-23.18963 21.53388,-40.76415 44.72346,-39.2537z" fill="#878787" stroke-width="1" stroke-linecap="butt"/><path d="M269.59192,410.36923l-64.82843,-3.78285" fill="none" stroke-width="1.5" stroke-linecap="round"/><path d="M198.79649,417.19021l75.7173,5.37145" fill="none" stroke-width="1.5" stroke-linecap="round"/><path d="M275.14283,433.15516l-80.8858,-7.02723" fill="none" stroke-width="1.5" stroke-linecap="round"/><path d="M193.82634,435.55344l82.25633,6.23706" fill="none" stroke-width="1.5" stroke-linecap="round"/><path d="M257.18497,399.89127l-37.69065,-2.92851" fill="none" stroke-width="1.5" stroke-linecap="round"/><path d="M200.91803,457.74974l64.77133,4.65855" data-paper-data="{&quot;index&quot;:null}" fill="none" stroke-width="1.5" stroke-linecap="round"/><path d="M196.37692,446.4617l75.77431,4.49584" data-paper-data="{&quot;index&quot;:null}" fill="none" stroke-width="1.5" stroke-linecap="round"/><path d="M214.27604,469.20308l37.75207,1.98545" data-paper-data="{&quot;index&quot;:null}" fill="none" stroke-width="1.5" stroke-linecap="round"/></g></g><path d="M246.03069,284.51395c0.60997,-0.03601 -2.73339,41.31944 -5.19794,104.84082c-2.9033,-1.14918 -46.6746,-0.80429 -49.30541,41.2806c-0.894,42.87659 38.83575,48.30588 42.83997,46.77442c-2.26243,58.84865 -8.51726,112.41957 -12.18564,151.23103c-0.49899,5.27926 -37.50364,-0.0916 -74.00807,-14.23295c-26.25723,-10.17173 -44.23848,-26.83475 -47.34739,-35.67933c-10.77021,-30.63991 -15.79804,-65.85481 -13.38225,-102.94403c7.22144,-110.87019 104.54087,-196.34148 158.58678,-191.27046z" fill="#1300d2" stroke="#000000" stroke-width="2" stroke-linecap="butt"/><path d="M378.0585,494.71343c-2.41577,37.08922 -11.96919,71.3544 -26.62287,100.33832c-4.22997,8.36659 -24.22079,22.55638 -51.57563,29.23605c-38.03037,9.28665 -75.41909,9.81188 -75.22905,4.51252c1.39726,-38.95944 2.14427,-92.88918 7.53475,-151.53398c3.7717,2.03801 43.87006,1.80818 48.54546,-40.82207c2.85052,-42.07053 -40.50607,-48.09047 -43.53399,-47.32761c5.79612,-63.30437 7.84553,-104.74409 8.44574,-104.62926c54.2471,1.98254 139.65701,99.35575 132.4356,210.22602z" fill="#1300d2" stroke="#000000" stroke-width="2" stroke-linecap="butt"/><g fill="#8b0000" stroke="#000000" stroke-width="2" stroke-linecap="butt"><path d="M239.32546,353.39507c-0.75338,11.56666 -13.48506,20.1537 -28.43701,19.17981c-14.95196,-0.97389 -27.89286,10.82484 -25.70882,-22.70656c2.2506,-34.55307 13.48509,-20.15371 28.43706,-19.17981c14.95196,0.97389 26.46214,11.14 25.70878,22.70658z"/><path d="M271.27165,335.46979c14.95196,0.97389 27.95935,-11.84647 25.70875,22.70656c-2.18406,33.53142 -13.48506,20.1537 -28.43701,19.17981c-14.95196,-0.97389 -26.46219,-11.13998 -25.70882,-22.70656c0.75338,-11.56666 13.48509,-20.15371 28.43706,-19.17982z" data-paper-data="{&quot;index&quot;:null}"/><path d="M261.29036,354.82571c-0.77176,11.84874 -10.77399,20.84327 -22.34056,20.0899c-11.56666,-0.75338 -20.3176,-10.96941 -19.54584,-22.81815c0.77176,-11.84874 10.77402,-20.84327 22.3406,-20.0899c11.56666,0.75338 20.31756,10.96943 19.54579,22.81813z"/></g><path d="M245.91221,129.88686c73.33988,1.85391 131.54273,52.84429 129.99963,113.89023c-1.54312,61.04596 -62.24783,109.03058 -135.58774,107.17669c-73.33993,-1.85393 -131.54273,-52.84426 -129.99963,-113.89023c1.54312,-61.04596 62.24785,-109.0306 135.58778,-107.17667z" fill="#696969" stroke="#000000" stroke-width="2" stroke-linecap="butt"/><path d="M246.61587,147.16785c63.58953,1.60742 114.09079,44.37925 112.79768,95.53345c-1.29311,51.15424 -53.89083,91.31985 -117.48038,89.71244c-63.58953,-1.60742 -114.09074,-44.37923 -112.79765,-95.53344c1.29311,-51.15424 53.89079,-91.31983 117.48032,-89.71241z" fill="none" stroke="url(#color-9)" stroke-width="4.5" stroke-linecap="butt"/><g stroke="none" stroke-width="0" stroke-linecap="butt"><path d="M202.7014,251.98312l2.40601,-95.18162l90.57603,2.28961l-2.40601,95.18162z" fill="url(#color-10)"/><path d="M280.30361,190.19391l0.69853,-27.63334l10.74625,0.27162l-0.69853,27.63334z" fill="#ffffff"/><path d="M279.50807,221.66524l0.69853,-27.63334l10.74625,0.27164l-0.69849,27.63331z" fill="#ffffff"/><path d="M278.73196,252.36891l0.69849,-27.63331l10.74625,0.27162l-0.69853,27.63334z" fill="#ffffff"/><path d="M208.9368,187.62175l0.69853,-27.63334l10.74627,0.27162l-0.69853,27.63334z" fill="#ffffff"/><path d="M208.14127,219.09316l0.69849,-27.63331l10.74627,0.27162l-0.69853,27.63334z" fill="#ffffff"/><path d="M207.36516,249.79693l0.69853,-27.63334l10.74627,0.27162l-0.69851,27.63336z" fill="#ffffff"/><path d="M250.59075,251.50395l0.23283,-9.21113l20.72502,0.52391l-0.23282,9.21115z" fill="#ffffff"/><path d="M226.69687,250.7464l0.23282,-9.21115l20.72506,0.52388l-0.23283,9.21113z" fill="#ffffff"/></g><path d="M251.07405,-2.64154c77.96985,1.97092 139.72904,60.84591 137.94299,131.50092c-1.78603,70.65498 -26.83848,128.09816 -144.41079,124.36358c-124.19216,-3.94481 -139.72904,-60.84591 -137.943,-131.50094c1.78603,-70.65498 66.44093,-126.33446 144.41079,-124.36352z" fill="#696969" stroke="#000000" stroke-width="2" stroke-linecap="butt"/><path d="M195.85949,110.11504l1.30002,-51.42877l109.76583,2.77466l-1.30002,51.42877z" fill="url(#color-11)" stroke="#000000" stroke-width="0" stroke-linecap="butt"/><path d="M208.41633,190.68932l2.50305,-99.01955l79.82972,2.01794l-2.50305,99.01955z" fill="url(#color-12)" stroke="none" stroke-width="0" stroke-linecap="butt"/><path d="M205.25722,188.78973l-26.82106,-121.46382l18.74446,-4.139l26.82106,121.46382z" fill="url(#color-13)" stroke="none" stroke-width="0" stroke-linecap="butt"/><path d="M272.12112,189.70751l32.92365,-119.9536l18.5114,5.0808l-32.92371,119.95363z" data-paper-data="{&quot;index&quot;:null}" fill="url(#color-14)" stroke="none" stroke-width="0" stroke-linecap="butt"/><path d="M186.0203,195.49977l0.71793,-28.40098l125.11769,3.16274l-0.71793,28.40098z" fill="url(#color-15)" stroke="none" stroke-width="0" stroke-linecap="butt"/><path d="M166.96599,202.47082c-3.66773,1.13439 -4.80219,-2.53341 -4.80219,-2.53341l-0.3501,-1.31838c-1.87508,-3.69656 -3.57075,-8.82945 -6.41648,-11.96878c-1.09884,-1.21213 -5.42328,-3.26138 -6.31359,-3.9937c-12.23899,-10.06702 -32.15384,-28.13679 -19.6182,-44.75568c5.01861,-1.49459 20.63115,-2.83889 22.22769,-9.98007c2.26653,-10.13774 -4.71806,-18.57988 0.28872,-29.14922c5.79887,-12.24161 20.72566,-18.43865 32.14066,-24.51251c0,0 3.38941,-1.80316 5.19256,1.58626c1.80317,3.38942 -1.58624,5.19252 -1.58624,5.19252c-9.6192,5.1163 -23.88925,10.60892 -28.77955,20.96068c-6.07759,12.8649 7.89052,27.49845 -7.53647,37.09807c-1.63197,1.01549 -3.51683,1.5715 -5.3474,2.15746c-2.70548,0.8661 -9.18975,2.29418 -12.28865,3.00055c-2.9395,4.11041 0.80505,10.83891 2.95556,14.70602c5.66493,10.18674 16.75825,14.26285 24.21482,22.38352c3.4721,3.7814 5.42504,9.28967 7.71411,13.80095l0.83807,2.52359c0,0 1.13437,3.66779 -2.53341,4.80219z" fill="#000000" stroke="none" stroke-width="0.5" stroke-linecap="butt"/><path d="M138.24559,214.0459c-3.83362,-0.20668 -3.62688,-4.04028 -3.62688,-4.04028l0.1284,-1.35804c-0.4781,-4.11724 -0.29019,-9.51973 -1.87203,-13.45054c-0.61079,-1.51777 -3.95727,-4.93845 -4.5387,-5.93396c-7.99277,-13.68403 -20.41306,-37.5347 -2.89567,-48.78072c5.22564,0.33685 20.33674,4.48547 24.30875,-1.66018c5.63875,-8.72443 2.01196,-19.06368 10.37065,-27.24354c9.68126,-9.47404 25.83057,-10.11531 38.64306,-11.85771c0,0 3.80424,-0.51711 4.32128,3.2871c0.51708,3.80424 -3.28715,4.32123 -3.28715,4.32123c-10.79605,1.46648 -26.08532,1.67445 -34.25946,9.69052c-10.15857,9.96219 -2.1261,28.52904 -19.92356,32.18877c-1.88272,0.38714 -3.84343,0.2556 -5.76364,0.17099c-2.83801,-0.12501 -9.41539,-1.03211 -12.56706,-1.44318c-4.18157,2.8373 -3.00045,10.4464 -2.32304,14.81914c1.78449,11.51852 10.77828,19.18588 14.95927,29.38708c1.94687,4.75012 1.87022,10.59382 2.45439,15.61885l-0.08814,2.65768c0,0 -0.2067,3.83357 -4.0404,3.62685z" fill="#000000" stroke="none" stroke-width="0.5" stroke-linecap="butt"/><path d="M321.11169,198.42884l0.96463,-2.47808c2.51414,-4.38989 4.74282,-9.79253 8.40153,-13.39357c7.85733,-7.73349 19.14238,-11.24395 25.31475,-21.13143c2.34318,-3.75347 6.42282,-10.2843 3.69481,-14.53795c-3.05921,-0.86201 -9.46305,-2.61588 -12.1214,-3.61756c-1.79858,-0.67774 -3.653,-1.32824 -5.2315,-2.42487c-14.92221,-10.36681 -0.23261,-24.27592 -5.65243,-37.43143c-4.36105,-10.58557 -18.3354,-16.79222 -27.68376,-22.38804c0,0 -3.29402,-1.97207 -1.32192,-5.26605c1.97212,-3.29396 5.26609,-1.32189 5.26609,-1.32189c11.09352,6.64278 25.68819,13.58612 30.8612,26.10509c4.46636,10.80877 -2.93579,18.88736 -1.18437,29.12665c1.23373,7.21269 16.75836,9.34406 21.69503,11.09027c11.68,17.23103 -9.12229,34.27168 -21.85432,43.70736c-0.92622,0.68646 -5.3487,2.51455 -6.50732,3.66962c-3.00071,2.99151 -4.95359,8.0322 -7.01298,11.62927l-0.41629,1.29898c0,0 -1.31821,3.60582 -4.92402,2.28756c-3.60578,-1.31827 -2.28756,-4.92406 -2.28756,-4.92406z" data-paper-data="{&quot;index&quot;:null}" fill="#000000" stroke="none" stroke-width="0.5" stroke-linecap="butt"/><path d="M347.64628,212.53785l0.04623,-2.65875c0.83737,-4.98907 1.05612,-10.82925 3.24043,-15.47489c4.69098,-9.97687 14.06069,-17.18004 16.42486,-28.5937c0.89751,-4.33288 2.46154,-11.87268 -1.57135,-14.91762c-3.16844,0.25143 -9.78317,0.82499 -12.62394,0.80646c-1.92201,-0.01253 -3.88687,0.01977 -5.7476,-0.46196c-17.58982,-4.55427 -8.6295,-22.69161 -18.27186,-33.1543c-7.75865,-8.41889 -23.01794,-9.39898 -33.72605,-11.40905c0,0 -3.77327,-0.70854 -3.06461,-4.48177c0.70864,-3.77327 4.48188,-3.06462 4.48188,-3.06462c12.70799,2.38752 28.80431,3.84388 37.99455,13.79507c7.93476,8.59174 3.79021,18.73457 8.98097,27.7327c3.65638,6.33842 18.95791,2.95864 24.19383,2.88623c16.92682,12.11671 3.31749,35.30942 -5.35657,48.57215c-0.631,0.96483 -4.14607,4.2121 -4.83278,5.69713c-1.77838,3.84588 -1.86365,9.25091 -2.54918,13.33877l0.05954,1.36272c0,0 0.01285,3.83918 -3.82635,3.85194c-3.83919,0.01278 -3.85194,-3.82635 -3.85194,-3.82635z" data-paper-data="{&quot;index&quot;:null}" fill="#000000" stroke="none" stroke-width="0.5" stroke-linecap="butt"/><path d="M346.44272,74.50739c-0.54866,21.70522 -19.1389,38.84212 -41.52239,38.27627c-22.38356,-0.56581 -40.08413,-18.62003 -39.53544,-40.32525c0.54866,-21.70522 19.13885,-38.84214 41.52237,-38.27634c22.38349,0.56583 40.08414,18.62012 39.5355,40.32531z" data-paper-data="{&quot;index&quot;:null}" fill="#000000" stroke="#000000" stroke-width="2" stroke-linecap="butt"/><path d="M200.40626,30.46574c22.38356,0.56581 40.08414,18.62012 39.53546,40.32527c-0.54866,21.70522 -19.1389,38.84212 -41.52239,38.27627c-22.38356,-0.56581 -40.08417,-18.62007 -39.53546,-40.32527c0.54866,-21.70522 19.13887,-38.8421 41.52242,-38.27627z" fill="#000000" stroke="#000000" stroke-width="2" stroke-linecap="butt"/><path d="M136.07635,218.8555l0.69952,-27.67288l213.84191,5.40553l-0.69952,27.67288c0,0 -37.07781,30.42269 -105.6078,28.01447c-75.44387,-2.65118 -108.23408,-33.42004 -108.23408,-33.42004z" fill="url(#color-16)" stroke="none" stroke-width="0" stroke-linecap="butt"/><path d="M183.95892,306.80224c-111.1142,7.35007 -135.89699,-46.41001 -138.79057,-108.04562c18.09032,8.23936 38.5693,7.364 57.43448,9.41923c10.83892,0.72634 66.49984,1.19641 83.57464,3.31938c0,0 1.28844,0.15349 2.29379,-0.76007c-1.50742,51.70197 -3.32203,95.98836 -4.51224,96.06712z" fill="#1300d2" stroke="#000000" stroke-width="2" stroke-linecap="butt"/><path d="M306.96864,310.17889c-1.18475,-0.13879 -0.75948,-44.46027 0.34722,-96.17239c0.95793,0.96316 2.2524,0.87495 2.2524,0.87495c17.16023,-1.25757 72.77384,1.08519 83.63561,0.90742c18.94486,-1.09942 39.35356,0.80945 57.83703,-6.50538c-6.00401,61.41068 -33.47125,113.85002 -144.07221,100.89537z" data-paper-data="{&quot;index&quot;:null}" fill="#1300d2" stroke="#000000" stroke-width="2" stroke-linecap="butt"/><path d="M191.23556,157.09046c21.89194,0.55339 39.04814,24.3711 38.31943,53.19838c-0.72871,28.82724 -19.0663,51.74772 -40.95829,51.19435c-21.89194,-0.55339 -39.04823,-24.37111 -38.31953,-53.19832c0.72871,-28.82724 19.06643,-51.74775 40.95836,-51.19437z" fill="#ff00cc" stroke="#000000" stroke-width="2" stroke-linecap="butt"/><path d="M199.128,59.0909c6.48759,0.16401 11.61789,5.39682 11.45891,11.6878c-0.15903,6.29099 -5.54717,11.25793 -12.03478,11.09394c-6.48759,-0.16401 -11.6179,-5.39681 -11.45891,-11.6878c0.15903,-6.29099 5.54717,-11.25793 12.03478,-11.09394z" fill="#000000" stroke="#ff0000" stroke-width="1.5" stroke-linecap="butt"/><path d="M306.83307,62.461c6.4876,0.164 11.61789,5.39682 11.45891,11.6878c-0.15903,6.29099 -5.54718,11.25793 -12.03478,11.09394c-6.4876,-0.164 -11.6179,-5.39681 -11.45891,-11.6878c0.15903,-6.29099 5.54715,-11.2579 12.03478,-11.09394z" fill="#000000" stroke="#ff0000" stroke-width="1.5" stroke-linecap="butt"/><g stroke-linecap="butt"><path d="M620.43147,681.35382c-3.48207,12.43105 -16.3822,19.68551 -28.81309,16.20349c-12.43095,-3.48208 -19.6855,-16.38214 -16.20344,-28.81308c3.48207,-12.43095 16.38214,-19.6855 28.81303,-16.20347c12.43098,3.48209 19.68552,16.38212 16.2035,28.81308z" fill="url(#color-17)" stroke="none" stroke-width="0"/><path d="M528.61435,493.41143c-3.48207,12.43105 -16.38214,19.6855 -28.81303,16.20347c-12.43095,-3.48208 -19.68552,-16.38212 -16.20349,-28.81309c3.48209,-12.43096 16.38214,-19.6855 28.81308,-16.20346c12.43098,3.48209 19.6855,16.38209 16.20346,28.81309z" fill="url(#color-18)" stroke="none" stroke-width="0"/><g><path d="M472.76374,501.78548c0,0 -52.95337,-41.92476 -75.52863,-64.67239c-21.30681,-21.46948 -55.18061,-69.32106 -55.18061,-69.32106l40.50748,-39.21243c0,0 49.4119,36.06971 71.08233,57.90563c22.26871,22.43869 63.09887,72.72678 63.09887,72.72678z" fill="#696969" stroke="#000000" stroke-width="2"/><path d="M485.99291,487.7696l-130.87625,-131.87533l15.43144,-14.9381l130.8764,131.87535z" fill="url(#color-19)" stroke="none" stroke-width="0"/><path d="M484.01686,493.54819c-2.99359,0.5299 -5.33405,-3.22361 -5.33405,-3.22361l-4.11857,-6.69297c-2.5942,-8.27111 -2.23967,-14.7505 -3.63025,-22.58903c-0.80322,-4.52745 -3.0996,-9.39624 -4.17276,-13.9716c-0.96146,-4.09911 -0.30846,-7.99897 -2.80676,-12.53154c-5.8384,-10.59215 -19.84971,-20.68838 -28.74018,-21.26527c-5.84529,-0.77509 -11.75414,-2.35948 -17.71334,-3.54272c-5.34294,-1.06089 -10.07809,0.29823 -16.17633,-3.43046c-6.03002,-3.6869 -11.92148,-12.85114 -15.14975,-18.17034c-8.80136,-14.50211 -9.57823,-28.5772 -18.05724,-43.10037c0,0 -2.16862,-3.77726 0.9517,-4.09557c3.12033,-0.31822 5.28896,3.45904 5.28896,3.45904c8.2039,14.4746 9.33409,28.64713 17.96481,42.94189c1.53815,2.54765 6.57933,10.88102 10.10825,13.02033c2.19964,1.33351 7.13775,1.29664 8.29342,1.41247c6.86141,0.68809 14.33807,3.02777 21.33481,3.95854c12.2706,1.02463 30.262,14.07562 38.24973,28.37881c3.17115,5.67834 2.6776,10.12511 3.87198,15.24422c1.09182,4.67967 3.40244,9.62041 4.23463,14.27032c1.2525,6.99797 0.78331,13.03653 2.88338,20.32664l3.37063,5.31769c0,0 2.34048,3.75349 -0.6531,4.28341z" fill="#000000" stroke="none" stroke-width="0.5"/><path d="M472.76374,501.78548c0,0 -52.95337,-41.92476 -75.52863,-64.67239c-21.30681,-21.46948 -55.18061,-69.32106 -55.18061,-69.32106l40.50748,-39.21243c0,0 49.4119,36.06971 71.08233,57.90563c22.26871,22.43869 63.09887,72.72678 63.09887,72.72678z" fill="#1300d2" stroke="#000000" stroke-width="2"/></g><g><path d="M565.04736,678.43411c0,0 -36.64592,-56.7346 -50.70056,-85.53678c-13.26492,-27.1838 -29.93892,-83.39054 -29.93892,-83.39054l50.97105,-24.092c0,0 35.1769,50.05137 48.66825,77.69919c13.86379,28.41103 36.3402,89.16297 36.3402,89.16297z" fill="#696969" stroke="#000000" stroke-width="2"/><path d="M582.08315,669.42065l-81.47935,-166.97551l19.41758,-9.17791l81.47939,166.97559z" fill="url(#color-20)" stroke="none" stroke-width="0"/><path d="M578.35266,674.256c-3.00484,-0.46161 -4.01302,-4.76849 -4.01302,-4.76849l-1.7458,-7.66228c0.20529,-8.66602 2.62597,-14.68665 3.83172,-22.55574c0.69646,-4.54513 0.08885,-9.89389 0.54506,-14.57119c0.40877,-4.19047 2.28196,-7.67272 1.37497,-12.76817c-2.11942,-11.9075 -12.13669,-25.97544 -20.36864,-29.38244c-5.28493,-2.61484 -10.36974,-6.01633 -15.63124,-9.05422c-4.71739,-2.72381 -9.63801,-2.9607 -14.21201,-8.45339c-4.52293,-5.43117 -7.15207,-16.00381 -8.49692,-22.07888c-3.66666,-16.56293 0.12697,-30.13941 -3.22758,-46.61852c0,0 -0.83779,-4.27421 2.21897,-3.57147c3.05672,0.70275 3.8946,4.97694 3.8946,4.97694c3.10985,16.34465 -0.3807,30.12707 3.19109,46.43874c0.63653,2.90714 2.72804,12.41939 5.38086,15.5805c1.65353,1.97039 6.34086,3.52451 7.39777,4.00611c6.27503,2.85939 12.6012,7.48054 18.92622,10.61325c11.28822,4.9186 24.12301,23.06501 27.08335,39.17779c1.17522,6.39674 -0.72299,10.44824 -1.23938,15.67931c-0.4721,4.78209 0.12573,10.20357 -0.5826,14.87399c-1.06596,7.02878 -3.45336,12.59513 -3.81081,20.17333l1.4802,6.1195c0,0 1.00815,4.30693 -1.9967,3.84541z" fill="#000000" stroke="none" stroke-width="0.5"/><path d="M565.04736,678.43411c0,0 -36.64592,-56.7346 -50.70056,-85.53678c-13.26492,-27.1838 -29.93892,-83.39054 -29.93892,-83.39054l50.97105,-24.092c0,0 35.1769,50.05137 48.66825,77.69919c13.86379,28.41103 36.3402,89.16297 36.3402,89.16297z" fill="#1300d2" stroke="#000000" stroke-width="2"/></g></g><g stroke-linecap="butt"><path d="M-156.88351,599.53331c12.77762,-1.84013 24.62762,7.0265 26.46778,19.80414c1.84013,12.77762 -7.0265,24.62769 -19.8041,26.46775c-12.77762,1.84013 -24.62763,-7.02645 -26.46778,-19.80414c-1.84013,-12.77762 7.02653,-24.62767 19.80414,-26.46778z" data-paper-data="{&quot;index&quot;:null}" fill="url(#color-21)" stroke="none" stroke-width="0"/><path d="M-41.46263,425.08903c12.77761,-1.84012 24.62764,7.0265 26.46775,19.8041c1.84013,12.77762 -7.02653,24.62767 -19.80414,26.46778c-12.77761,1.84012 -24.6276,-7.02646 -26.46771,-19.80414c-1.84013,-12.77762 7.0265,-24.62763 19.80412,-26.46775z" data-paper-data="{&quot;index&quot;:null}" fill="url(#color-22)" stroke="none" stroke-width="0"/><g data-paper-data="{&quot;index&quot;:null}"><path d="M-45.05954,419.18605c0,0 47.00846,-44.56675 71.99972,-63.92722c24.31987,-18.84038 77.99317,-48.19572 77.99317,-48.19572l35.07865,44.13568c0,0 -39.79482,43.05329 -63.70657,61.5775c-25.33529,19.62701 -83.27966,54.32852 -83.27966,54.32852z" fill="#696969" stroke="#000000" stroke-width="2"/><path d="M-31.63703,434.67778l146.87724,-113.78409l13.36331,16.8136l-146.87708,113.78407z" fill="url(#color-23)" stroke="none" stroke-width="0"/><path d="M-17.0638,457.47743c-2.89951,-0.91379 -0.09193,-4.33196 -0.09193,-4.33196l4.03195,-4.83553c3.02802,-6.95615 3.34606,-13.00455 5.49577,-19.78086c1.42833,-4.50271 4.36039,-9.10198 6.05,-13.60045c1.84833,-4.92088 1.93577,-9.39413 5.81668,-14.61312c9.7756,-13.14617 29.30799,-23.75317 41.60783,-23.17739c7.05829,-0.0153 14.77531,-1.36536 21.66801,-1.15761c1.16094,0.03508 6.05256,0.71216 8.40655,-0.32475c3.77666,-1.66351 9.85613,-9.27246 11.71183,-11.59912c10.41212,-13.0544 13.37119,-26.96059 23.38339,-40.24869c0,0 2.64029,-3.46407 5.69293,-2.74377c3.05264,0.72033 0.41239,4.1844 0.41239,4.1844c-10.29128,13.30057 -12.88734,27.15598 -23.49558,40.39388c-3.89093,4.85548 -10.92143,13.17806 -17.37876,16.05162c-6.53044,2.90611 -11.04916,0.94425 -16.48464,1.3031c-6.06235,0.40023 -12.12675,1.20476 -18.02326,1.21505c-8.89014,-0.5812 -24.09276,7.6122 -31.25586,17.35748c-3.06522,4.17013 -2.92357,8.1218 -4.40863,12.06157c-1.65758,4.39752 -4.56618,8.92728 -5.94986,13.31227c-2.3956,7.59195 -2.88456,14.0626 -6.52976,21.92729l-4.95199,6.10215c0,0 -2.80761,3.41819 -5.70713,2.50445z" fill="#000000" stroke="none" stroke-width="0.5"/><path d="M-45.05954,419.18605c0,0 47.00846,-44.56675 71.99972,-63.92722c24.31987,-18.84038 77.99317,-48.19572 77.99317,-48.19572l35.07865,44.13568c0,0 -39.79482,43.05329 -63.70657,61.5775c-25.33529,19.62701 -83.27966,54.32852 -83.27966,54.32852z" fill="#1300d2" stroke="#000000" stroke-width="2"/></g><g data-paper-data="{&quot;index&quot;:null}"><path d="M-172.87201,597.17563c0,0 30.16713,-57.32306 47.5992,-83.69565c16.96377,-25.66416 58.33605,-70.72955 58.33605,-70.72955l47.41521,30.50032c0,0 -23.8242,53.56889 -40.50329,78.80232c-17.67205,26.73566 -61.36786,78.23729 -61.36786,78.23729z" fill="#696969" stroke="#000000" stroke-width="2"/><path d="M-155.17838,607.52407l102.45076,-154.99544l18.06293,11.61917l-102.45063,154.99539z" fill="url(#color-24)" stroke="none" stroke-width="0"/><path d="M-134.04372,624.42149c-3.03935,0.06782 -1.48101,-4.0719 -1.48101,-4.0719l2.26155,-5.87582c0.62857,-7.56053 -1.01659,-13.38956 -1.16181,-20.49721c-0.09647,-4.72282 1.19951,-10.02097 1.35175,-14.82388c0.16655,-5.25398 -1.19013,-9.51738 0.80498,-15.70764c5.02541,-15.59263 20.10562,-31.92076 31.93651,-35.33351c6.67796,-2.28574 13.55009,-6.04724 20.14308,-8.06852c1.11042,-0.34044 5.95974,-1.27337 7.85493,-3.01264c3.04051,-2.79034 6.3482,-11.95084 7.35649,-14.75089c5.65754,-15.71051 3.98437,-29.82929 9.1881,-45.63245c0,0 1.38519,-4.12939 4.50726,-4.4297c3.12209,-0.30026 1.73694,3.82914 1.73694,3.82914c-5.46394,15.90469 -3.46345,29.8586 -9.24764,45.806c-2.12159,5.84929 -6.09996,15.99151 -11.28917,20.79015c-5.24792,4.85293 -10.15765,4.44956 -15.18849,6.53839c-5.61112,2.32977 -11.09419,5.04294 -16.67365,6.95008c-8.60434,2.31042 -20.36181,14.96005 -24.00801,26.49203c-1.56029,4.93472 -0.15457,8.6306 -0.29287,12.83867c-0.15438,4.69698 -1.45061,9.92181 -1.34967,14.51881c0.17479,7.95902 1.79396,14.24277 0.87344,22.86219l-2.72495,7.37111c0,0 -1.55833,4.13978 -4.59769,4.20765z" fill="#000000" stroke="none" stroke-width="0.5"/><path d="M-172.87201,597.17563c0,0 30.16713,-57.32306 47.5992,-83.69565c16.96377,-25.66416 58.33605,-70.72955 58.33605,-70.72955l47.41521,30.50032c0,0 -23.8242,53.56889 -40.50329,78.80232c-17.67205,26.73566 -61.36786,78.23729 -61.36786,78.23729z" fill="#1300d2" stroke="#000000" stroke-width="2"/></g></g><path d="M176.89706,-45.81373c1.6147,0.04081 0.22508,82.53676 -1.79773,153.83215c-0.79731,-0.79811 -1.78705,-0.91668 -1.78705,-0.91668c-17.30674,-1.96426 -72.64143,-2.61249 -83.18124,-3.32165c-18.93623,-2.05951 -39.92166,-0.76861 -57.82395,-10.1501c-0.08267,-5.00147 -0.04375,-10.03814 0.08375,-15.08265c1.78603,-70.65498 66.48363,-126.3334 144.50614,-124.36113zM130.23313,68.30111c14.95291,-2.67881 37.59677,-11.5906 35.08483,-46.29374c-0.63229,-8.7356 -12.36646,-36.42304 -37.35794,-35.8906c-16.31692,0.78984 -44.60167,11.96298 -43.99692,38.46763c0.75776,33.21052 20.51099,41.0922 46.26999,43.71669z" fill="#1300d2" stroke="#000000" stroke-width="2" stroke-linecap="butt"/><path d="M335.66609,-50.84629c78.0225,1.97228 139.8244,60.8483 138.03837,131.50333c-0.12753,5.04449 -0.34305,10.0767 -0.67838,15.0676c-18.35343,8.465 -39.24685,6.1155 -58.26293,7.21562c-10.56216,0.17574 -65.85892,-1.97258 -83.24278,-0.88524c0,0 -0.99446,0.06839 -1.83105,0.82522c1.58188,-71.30653 4.3621,-153.76733 5.97678,-153.72652zM424.92445,24.15743c1.94312,-26.44026 -25.74098,-39.02816 -41.99718,-40.64139c-24.93267,-1.7945 -38.05068,25.26472 -39.12356,33.95727c-4.2621,34.53191 17.90264,44.57642 32.70111,48.00725c25.85867,-1.31972 45.98491,-8.19331 48.41965,-41.32313z" data-paper-data="{&quot;index&quot;:null}" fill="#1300d2" stroke="#000000" stroke-width="2" stroke-linecap="butt"/></g></g></svg>