<svg version="1.1" xmlns="http://www.w3.org/2000/svg" xmlns:xlink="http://www.w3.org/1999/xlink" width="790.86636" height="438.3964" viewBox="0,0,790.86636,438.3964"><defs><linearGradient x1="240.00003" y1="-68.4985" x2="240.00003" y2="294.86487" gradientUnits="userSpaceOnUse" id="color-1"><stop offset="0" stop-color="#001f2d"/><stop offset="1" stop-color="#001f2d" stop-opacity="0"/></linearGradient><linearGradient x1="-109.06903" y1="180" x2="113.09311" y2="180" gradientUnits="userSpaceOnUse" id="color-2"><stop offset="0" stop-color="#007eb2"/><stop offset="1" stop-color="#00405c"/></linearGradient></defs><g transform="translate(126.36635,68.4985)"><g data-paper-data="{&quot;isPaintingLayer&quot;:true}" fill-rule="nonzero" stroke-width="0" stroke-linecap="butt" stroke-linejoin="miter" stroke-miterlimit="10" stroke-dasharray="" stroke-dashoffset="0" style="mix-blend-mode: normal"><path d="M-126.36634,294.86487v-363.36337h732.73273v363.36337z" fill="url(#color-1)" stroke="none"/><g><path d="M-109.06904,369.8979v-379.7958h698.13813v379.7958z" fill="#007eb2" stroke="none"/><path d="M-109.06903,369.8979v-379.7958h222.16215v379.7958z" fill="url(#color-2)" stroke="none"/><g fill="#cccccc" stroke="#000000"><path d="M553.08773,77.84243c0,32.25803 -28.10459,58.40832 -62.77335,58.40832c-34.66877,0 -62.77335,-26.15029 -62.77335,-58.40832c0,-32.25803 28.10458,-58.40831 62.77335,-58.40831c34.66877,0 62.77335,26.15029 62.77335,58.40831z"/><path d="M593.93013,30.6585c0,23.41864 -20.40332,42.40319 -45.5721,42.40319c-25.16878,0 -45.57211,-18.98455 -45.57211,-42.40319c0,-23.41863 20.40333,-42.40319 45.57211,-42.40319c25.16878,0 45.57211,18.98456 45.57211,42.40319z"/><path d="M548.09912,12.15906c0,32.25803 -28.10459,58.40832 -62.77335,58.40832c-34.66877,0 -62.77335,-26.15029 -62.77335,-58.40831c0,-32.25803 28.10458,-58.40831 62.77335,-58.40831c34.66877,0 62.77335,26.15029 62.77335,58.40832z"/><path d="M664.50001,77.84243c0,32.25803 -28.10459,58.40832 -62.77335,58.40832c-34.66877,0 -62.77334,-26.15029 -62.77334,-58.40832c0,-32.25803 28.10458,-58.40831 62.77334,-58.40831c34.66877,0 62.77335,26.15029 62.77335,58.40831z"/></g><g fill="#ffffff" stroke="#000000"><path d="M544.08773,76.84244c0,32.25803 -28.10458,58.40831 -62.77335,58.40831c-34.66876,0 -62.77335,-26.15029 -62.77335,-58.40831c0,-32.25803 28.10458,-58.40831 62.77335,-58.40831c34.66876,0 62.77335,26.15029 62.77335,58.40831z"/><path d="M584.93013,29.65849c0,23.41864 -20.40333,42.40319 -45.5721,42.40319c-25.16879,0 -45.57211,-18.98456 -45.57211,-42.40319c0,-23.41863 20.40333,-42.40319 45.57211,-42.40319c25.16878,0 45.57211,18.98456 45.57211,42.40319z"/><path d="M539.09912,11.15906c0,32.25803 -28.10458,58.40831 -62.77335,58.40831c-34.66876,0 -62.77335,-26.15029 -62.77335,-58.40831c0,-32.25803 28.10458,-58.40831 62.77335,-58.40831c34.66876,0 62.77335,26.15029 62.77335,58.40831z"/><path d="M655.50001,76.84244c0,32.25803 -28.10458,58.40831 -62.77335,58.40831c-34.66876,0 -62.77335,-26.15029 -62.77335,-58.40831c0,-32.25803 28.10458,-58.40831 62.77335,-58.40831c34.66876,0 62.77335,26.15029 62.77335,58.40831z"/></g><g stroke="#000000"><g fill="#cccccc"><path d="M383.18112,101.20448c0,30.87053 -26.89574,55.89603 -60.07332,55.89603c-33.17758,0 -60.07331,-25.02551 -60.07331,-55.89603c0,-30.87053 26.89574,-55.89604 60.07331,-55.89604c33.17758,0 60.07332,25.02551 60.07332,55.89604z"/><path d="M288.49602,110.35472c0,30.87053 -26.89573,55.89603 -60.07331,55.89603c-33.17758,0 -60.07332,-25.02551 -60.07332,-55.89603c0,-30.87053 26.89574,-55.89603 60.07332,-55.89603c33.17758,0 60.07331,25.0255 60.07331,55.89603z"/><path d="M340.7103,41.33008c0,22.41135 -19.52573,40.57933 -43.61194,40.57933c-24.08621,0 -43.61195,-18.16799 -43.61195,-40.57933c0,-22.41135 19.52574,-40.57932 43.61195,-40.57932c24.08621,0 43.61194,18.16798 43.61194,40.57932z"/><path d="M299.73314,62.01758c0,22.41134 -19.52573,40.57933 -43.61194,40.57933c-24.08622,0 -43.61195,-18.16799 -43.61195,-40.57933c0,-22.41134 19.52573,-40.57932 43.61195,-40.57932c24.08621,0 43.61194,18.16798 43.61194,40.57932z"/></g><g fill="#ffffff"><path d="M378.51445,100.20448c0,30.87053 -26.89574,55.89603 -60.07332,55.89603c-33.17758,0 -60.07332,-25.02551 -60.07332,-55.89603c0,-30.87053 26.89574,-55.89603 60.07332,-55.89603c33.17758,0 60.07332,25.02551 60.07332,55.89603z"/><path d="M283.82935,109.35472c0,30.87053 -26.89574,55.89603 -60.07332,55.89603c-33.17758,0 -60.07332,-25.02551 -60.07332,-55.89603c0,-30.87053 26.89574,-55.89603 60.07332,-55.89603c33.17758,0 60.07332,25.02551 60.07332,55.89603z"/><path d="M336.04363,40.33008c0,22.41135 -19.52573,40.57933 -43.61194,40.57933c-24.08621,0 -43.61195,-18.16798 -43.61195,-40.57933c0,-22.41135 19.52573,-40.57933 43.61195,-40.57933c24.08621,0 43.61194,18.16798 43.61194,40.57933z"/><path d="M295.06647,61.01758c0,22.41135 -19.52573,40.57933 -43.61194,40.57933c-24.08621,0 -43.61195,-18.16798 -43.61195,-40.57933c0,-22.41135 19.52573,-40.57933 43.61195,-40.57933c24.08621,0 43.61194,18.16798 43.61194,40.57933z"/></g></g></g></g></g></svg>