<svg version="1.1" xmlns="http://www.w3.org/2000/svg" xmlns:xlink="http://www.w3.org/1999/xlink" width="523.20427" height="559.94277" viewBox="0,0,523.20427,559.94277"><defs><linearGradient x1="335.08767" y1="250.50071" x2="335.08767" y2="265.49615" gradientUnits="userSpaceOnUse" id="color-1"><stop offset="0" stop-color="#5c5c5c"/><stop offset="1" stop-color="#9b9b9b"/></linearGradient><linearGradient x1="389.63053" y1="260.56162" x2="421.02198" y2="260.56162" gradientUnits="userSpaceOnUse" id="color-2"><stop offset="0" stop-color="#5c5c5c"/><stop offset="1" stop-color="#9b9b9b"/></linearGradient><linearGradient x1="446.09491" y1="381.92369" x2="472.01495" y2="401.70581" gradientUnits="userSpaceOnUse" id="color-3"><stop offset="0" stop-color="#5c5c5c"/><stop offset="1" stop-color="#9b9b9b"/></linearGradient><linearGradient x1="425.87435" y1="330.02788" x2="439.72726" y2="324.32753" gradientUnits="userSpaceOnUse" id="color-4"><stop offset="0" stop-color="#5c5c5c"/><stop offset="1" stop-color="#9b9b9b"/></linearGradient><linearGradient x1="352.34136" y1="289.81418" x2="362.81948" y2="300.54119" gradientUnits="userSpaceOnUse" id="color-5"><stop offset="0" stop-color="#5c5c5c"/><stop offset="1" stop-color="#9b9b9b"/></linearGradient><linearGradient x1="305.59432" y1="283.42539" x2="292.19073" y2="290.14895" gradientUnits="userSpaceOnUse" id="color-6"><stop offset="0" stop-color="#5c5c5c"/><stop offset="1" stop-color="#9b9b9b"/></linearGradient><linearGradient x1="302.97641" y1="385.51417" x2="320.58234" y2="388.4657" gradientUnits="userSpaceOnUse" id="color-7"><stop offset="0" stop-color="#5c5c5c"/><stop offset="1" stop-color="#9b9b9b"/></linearGradient><linearGradient x1="465.79254" y1="460.38813" x2="480.57164" y2="457.94358" gradientUnits="userSpaceOnUse" id="color-8"><stop offset="0" stop-color="#5c5c5c"/><stop offset="1" stop-color="#9b9b9b"/></linearGradient><linearGradient x1="254.24645" y1="235.49333" x2="283.12021" y2="240.33384" gradientUnits="userSpaceOnUse" id="color-9"><stop offset="0" stop-color="#5c5c5c"/><stop offset="1" stop-color="#9b9b9b"/></linearGradient><linearGradient x1="185.10406" y1="336.4688" x2="153.91445" y2="345.97611" gradientUnits="userSpaceOnUse" id="color-10"><stop offset="0" stop-color="#5c5c5c"/><stop offset="1" stop-color="#9b9b9b"/></linearGradient><linearGradient x1="222.14466" y1="294.87506" x2="211.14727" y2="284.7038" gradientUnits="userSpaceOnUse" id="color-11"><stop offset="0" stop-color="#5c5c5c"/><stop offset="1" stop-color="#9b9b9b"/></linearGradient><linearGradient x1="139.29316" y1="403.14735" x2="126.29289" y2="395.70491" gradientUnits="userSpaceOnUse" id="color-12"><stop offset="0" stop-color="#5c5c5c"/><stop offset="1" stop-color="#9b9b9b"/></linearGradient><linearGradient x1="271.73395" y1="209.2208" x2="426.3536" y2="165.56367" gradientUnits="userSpaceOnUse" id="color-13"><stop offset="0" stop-color="#6c6c6c"/><stop offset="1" stop-color="#c4c4c4"/></linearGradient><linearGradient x1="307.33335" y1="155.62572" x2="368.15042" y2="138.45392" gradientUnits="userSpaceOnUse" id="color-14"><stop offset="0" stop-color="#6e6e6e"/><stop offset="1" stop-color="#c0c0c0"/></linearGradient><linearGradient x1="309.61323" y1="49.53928" x2="319.36332" y2="84.07108" gradientUnits="userSpaceOnUse" id="color-15"><stop offset="0" stop-color="#a6a6a6"/><stop offset="1" stop-color="#707070"/></linearGradient><linearGradient x1="315.5388" y1="71.51116" x2="334.31138" y2="137.99768" gradientUnits="userSpaceOnUse" id="color-16"><stop offset="0" stop-color="#a6a6a6"/><stop offset="1" stop-color="#707070"/></linearGradient><linearGradient x1="267.88842" y1="66.25171" x2="310.83068" y2="141.63805" gradientUnits="userSpaceOnUse" id="color-17"><stop offset="0" stop-color="#a6a6a6"/><stop offset="1" stop-color="#707070"/></linearGradient><linearGradient x1="353.61402" y1="44.82938" x2="356.44082" y2="131.54242" gradientUnits="userSpaceOnUse" id="color-18"><stop offset="0" stop-color="#a6a6a6"/><stop offset="1" stop-color="#707070"/></linearGradient><linearGradient x1="330.20335" y1="122.46295" x2="335.58772" y2="141.5327" gradientUnits="userSpaceOnUse" id="color-19"><stop offset="0" stop-color="#a6a6a6"/><stop offset="1" stop-color="#707070"/></linearGradient><linearGradient x1="333.97484" y1="139.76215" x2="339.22119" y2="158.34305" gradientUnits="userSpaceOnUse" id="color-20"><stop offset="0" stop-color="#707070"/><stop offset="1" stop-color="#a6a6a6"/></linearGradient><linearGradient x1="-13.19821" y1="176.11111" x2="501.81682" y2="176.11111" gradientUnits="userSpaceOnUse" id="color-21"><stop offset="0" stop-color="#000000" stop-opacity="0"/><stop offset="1" stop-color="#000000"/></linearGradient></defs><g transform="translate(16.00601,31.84685)"><g data-paper-data="{&quot;isPaintingLayer&quot;:true}" fill-rule="nonzero" stroke-linejoin="miter" stroke-miterlimit="10" stroke-dasharray="" stroke-dashoffset="0" style="mix-blend-mode: normal"><path d="M-16.00601,375.1952v-390.39039h512.01201v390.39039z" fill="#000000" stroke="none" stroke-width="NaN" stroke-linecap="butt"/><path d="M259.39669,265.49615v-14.99541h151.38195v14.99541z" fill="url(#color-1)" stroke="none" stroke-width="0" stroke-linecap="butt"/><path d="M421.02198,260.56162c0,8.66856 -7.02722,15.69574 -15.69571,15.69574c-8.66849,0 -15.69574,-7.02725 -15.69574,-15.69574c0,-8.66852 7.02722,-15.69571 15.69574,-15.69571c8.66849,0 15.69571,7.02719 15.69571,15.69571z" fill="url(#color-2)" stroke="none" stroke-width="0" stroke-linecap="butt"/><path d="M472.01495,401.70581c-5.46271,7.15767 -15.69349,8.53165 -22.85109,3.06901c-7.15762,-5.46268 -8.53167,-15.69349 -3.06899,-22.85112c5.46268,-7.15762 15.69348,-8.53165 22.8511,-3.06897c7.15762,5.46268 8.53166,15.69346 3.06897,22.85111z" fill="url(#color-3)" stroke="none" stroke-width="0" stroke-linecap="butt"/><g stroke-linecap="butt"><path d="M439.08603,395.30648c0,0 -23.5025,-40.82646 -32.26505,-61.39035c-8.2702,-19.40842 -17.8798,-59.15471 -17.8798,-59.15471l36.36396,-14.96343c0,0 22.71762,36.11875 31.12895,55.85847c8.64356,20.28461 22.13272,63.404 22.13272,63.404z" fill="#696969" stroke="#000000" stroke-width="2"/><path d="M451.27401,389.63568l-50.79941,-119.2155l13.85294,-5.70037l50.79948,119.21557z" fill="url(#color-4)" stroke="none" stroke-width="0"/><path d="M448.503,392.87083c-2.07663,-0.4287 -2.62523,-3.46477 -2.62523,-3.46477l-0.94275,-5.39953c0.45215,-6.02908 2.35304,-10.1365 3.47362,-15.57483c0.64721,-3.14111 0.41482,-6.88854 0.89944,-10.13035c0.43417,-2.90434 1.86322,-5.26317 1.41325,-8.84481c-1.05158,-8.36993 -7.52741,-18.52645 -13.13998,-21.19332c-3.58807,-2.0099 -7.00856,-4.56065 -10.56516,-6.86444c-3.1888,-2.06556 -6.60787,-2.40608 -9.59806,-6.39524c-2.95674,-3.9445 -4.41101,-11.40278 -5.1311,-15.68244c-1.96324,-11.66793 1.16356,-20.98948 -0.58533,-32.58792c0,0 -0.43112,-3.00715 1.67305,-2.40861c2.10416,0.59857 2.53528,3.60572 2.53528,3.60572c1.58315,11.49599 -1.33981,20.97183 0.5663,32.46136c0.33969,2.04771 1.45722,8.74821 3.19235,11.04475c1.08151,1.43149 4.2911,2.68124 5.01013,3.05436c4.26899,2.21558 8.51068,5.66018 12.80474,8.06795c7.68752,3.82882 15.98049,16.92669 17.46775,28.25584c0.59047,4.49767 -0.87629,7.25205 -1.42258,10.87745c-0.49944,3.31421 -0.27639,7.11194 -0.93639,10.33989c-0.99323,4.85796 -2.85476,8.65017 -3.37409,13.91608l0.81277,4.3154c0,0 0.54861,3.03606 -1.52799,2.60737z" fill="#000000" stroke="none" stroke-width="0.5"/><path d="M439.08603,395.30648c0,0 -23.5025,-40.82646 -32.26505,-61.39035c-8.2702,-19.40842 -17.8798,-59.15471 -17.8798,-59.15471l36.36396,-14.96343c0,0 22.71762,36.11875 31.12895,55.85847c8.64356,20.28461 22.13272,63.404 22.13272,63.404z" fill="#ff0000" stroke="#000000" stroke-width="2"/></g><path d="M339.62035,212.39227c31.45661,6.20027 89.91938,78.77174 77.10692,155.19843c-4.17735,24.918 -12.87056,47.49747 -24.61097,66.2926c-24.26885,38.85202 -163.38007,16.25532 -173.95835,-27.54756c-5.31764,-22.01943 -6.32867,-46.80945 -2.04254,-72.37636c12.81245,-76.42669 86.3583,-128.88895 123.50495,-121.56712z" fill="#696969" stroke="#000000" stroke-width="2" stroke-linecap="butt"/><path d="M313.51935,327.73485l77.644,-75.84132l10.47804,10.72713l-77.644,75.84132z" fill="url(#color-5)" stroke="none" stroke-width="0" stroke-linecap="butt"/><path d="M316.52349,338.65712l-48.6655,-97.01634l13.40354,-6.72354l48.66553,97.01635z" data-paper-data="{&quot;index&quot;:null}" fill="url(#color-6)" stroke="none" stroke-width="0" stroke-linecap="butt"/><path d="M292.2919,449.24767l21.36905,-127.46709l17.60595,2.95153l-21.36905,127.46709z" fill="url(#color-7)" stroke="none" stroke-width="0" stroke-linecap="butt"/><path d="M334.0591,324.10177c0.94655,-2.50491 3.45143,-1.55836 3.45143,-1.55836l1.94538,0.80335c0.91338,0.60787 1.82669,1.21569 2.74007,1.82356c4.41313,4.96506 8.43235,11.22841 12.08633,17.24424c2.01125,-0.61027 3.88338,-1.71737 5.51103,-3.51012c3.8057,-4.1919 1.40641,-9.911 1.49106,-14.75461c0.10313,-5.90077 2.68364,-11.56931 2.92947,-17.47168c0.35814,-8.59907 -4.58091,-18.37524 -8.86168,-25.57887c-4.06956,-6.97631 -13.46212,-9.56371 -16.39411,-16.8715c-2.47167,-6.16046 0.7636,-12.70991 -0.47028,-18.86108c-0.76442,2.43055 -1.97883,4.67528 -3.79613,6.64094c-4.48374,4.84997 -12.90849,8.92612 -18.90426,11.33068c-3.89337,1.56138 -10.72402,2.20985 -14.01869,4.96877c-2.53447,2.12231 -3.55655,5.57376 -5.38525,8.32757c-7.18437,10.8188 -17.93841,22.74265 -6.44721,34.19329c2.58243,2.57333 4.89112,4.28411 8.52186,4.81745l1.17857,0.19758c0,0 2.64093,0.44273 2.1982,3.08363c-0.44273,2.6409 -3.08366,2.19816 -3.08366,2.19816l-1.17857,-0.19758c-9.47894,-1.73087 -21.33132,-13.64075 -18.60745,-24.37475c2.04945,-8.07632 8.41859,-16.04632 12.95681,-22.8804c0.52517,-0.79088 6.04861,-9.17175 6.46533,-9.518c3.86218,-3.20904 10.85762,-3.97043 15.41041,-5.78792c5.32945,-2.12755 13.01591,-5.78813 17.03585,-10.0729c3.85716,-4.11132 4.05127,-10.6103 3.12068,-17.30372c-2.56869,-6.13415 -5.9796,-11.92134 -10.45077,-16.42495c0,0 -1.87838,-1.90845 0.03009,-3.78676c1.90841,-1.87835 3.7868,0.03007 3.7868,0.03007c1.17284,1.20079 2.28718,2.48116 3.34328,3.82738c-0.11323,-0.62258 -0.21222,-1.22255 -0.29319,-1.7965c0,0 -0.3739,-2.65156 2.27762,-3.02544c2.65152,-0.37391 3.0254,2.27761 3.0254,2.27761c0.69133,4.90234 2.18262,10.67219 3.11098,16.47892c2.14087,4.9606 3.74615,10.14134 4.82471,15.14969c1.31541,6.10827 -1.8286,12.66834 0.36328,18.62761c1.3063,3.55157 6.29153,5.19304 8.95237,7.38229c2.86866,2.36026 5.12734,5.45561 7.03633,8.64246c4.8215,8.17928 9.98514,18.8007 9.60461,28.50198c-0.23181,5.90994 -2.84655,11.5986 -2.92975,17.47857c-0.09199,6.50316 2.24767,12.43187 -2.79893,18.06324c-2.02992,2.26517 -4.3115,3.75767 -6.74551,4.66837c0.06776,0.11302 0.13539,0.22579 0.20285,0.33831c2.60987,4.3518 3.97702,8.7305 7.91275,12.14887c12.25588,10.64473 18.12444,-10.90708 17.71055,-19.41391c-4.16979,-22.66916 -10.43558,-46.82076 5.40344,-67.02164c2.26649,-2.89068 5.12098,-4.96167 8.07899,-6.93484c-0.07238,1.34263 0.87414,2.55419 2.23156,2.78175c0.15689,0.0263 0.31291,0.03841 0.46666,0.03721c0.14412,0.46085 0.41072,0.87426 0.76777,1.19545c-2.7202,1.77825 -5.34406,3.66264 -7.33294,6.22792c-14.76802,19.0482 -8.14285,41.8882 -4.29482,63.10508c0.25482,5.49308 0.28843,12.01228 -2.28029,17.06952c-4.90117,9.64926 -15.43291,14.4662 -24.25538,7.00331c-4.47281,-3.78354 -6.09824,-8.58669 -9.00105,-13.44386c-0.3829,-0.64072 -0.77078,-1.29278 -1.16359,-1.95315c-6.16443,0.38149 -12.77564,-1.71359 -18.5168,-3.75188c-1.06803,-0.4881 -2.13603,-0.97623 -3.20406,-1.46433l0.08292,0.10752c0,0 -2.6409,-0.44273 -2.19816,-3.08366c0.44273,-2.6409 3.08363,-2.19817 3.08363,-2.19817l1.26143,0.30505c0.99495,0.45659 1.98995,0.91323 2.98492,1.36983c3.97349,1.40279 8.75747,3.15292 13.35869,3.47138c-2.98161,-4.88026 -6.21376,-9.81103 -9.69715,-13.75804c-0.72429,-0.46517 -1.44854,-0.93036 -2.17276,-1.39552l-0.90327,-0.27312c0,0 -2.50488,-0.94654 -1.55837,-3.4514z" fill="#000000" stroke="none" stroke-width="0.5" stroke-linecap="butt"/><path d="M310.17069,336.18899c0.77321,2.56369 -1.79045,3.33691 -1.79045,3.33691l-1.78391,0.39554c-4.93239,3.4124 -8.36856,8.57576 -12.30059,13.13544c-14.32972,16.45803 -39.37205,9.98183 -45.75397,-10.69996c-3.58458,-11.61652 4.47055,-27.31522 12.11727,-35.37609c11.71878,-13.90636 14.84173,-26.8966 13.23155,-44.7355c-0.4096,-4.53786 -1.7223,-11.63288 -5.31506,-15.54299c0.77427,-0.3889 1.20398,-1.0951 1.20398,-1.0951c0.61331,-1.03716 1.33441,-2.03369 2.17066,-2.90985c3.53542,3.59812 5.37877,8.94793 6.48113,14.10357c4.36155,20.39881 -0.51129,37.94271 -13.77908,53.74868c-6.59623,6.94194 -12.05794,17.97834 -11.62339,27.97687c0.12118,2.78821 1.95057,5.28934 3.48767,7.40331c2.7263,3.7494 5.46645,8.4215 10.03894,10.25831c9.03335,3.62884 17.80045,0.27079 23.68464,-6.62861c4.27481,-4.957 7.95308,-10.21554 13.27285,-14.01674l3.3209,-1.14411c0,0 2.56366,-0.77325 3.33688,1.79044z" fill="#000000" stroke="none" stroke-width="0.5" stroke-linecap="butt"/><path d="M326.65065,328.16721c2.6409,0.44273 2.19817,3.08362 2.19817,3.08362l-0.47521,1.98566c-2.8851,5.37889 -4.63565,11.49246 -8.04087,16.59323c-1.87021,2.80141 -6.63373,6.2617 -6.90041,10.10716c-0.27448,3.95729 3.04491,8.0912 5.00889,11.17184c4.43073,6.94983 10.24362,12.73668 14.85386,19.61313c0.64036,3.00256 1.80621,6.10246 0.65935,9.21909c-4.1327,11.23109 -22.33734,14.94003 -32.19927,19.08075c-2.87309,1.20633 -6.62238,0.99932 -8.75827,3.26821c-0.63384,0.6733 -0.00293,1.8523 0.08529,2.7728c0.46176,4.81886 1.26626,8.63302 3.27698,13.04021c1.97844,4.33646 3.89642,7.11284 7.38132,10.33924c0,0 1.96154,1.82283 0.13867,3.78437c-1.82287,1.96153 -3.78436,0.13864 -3.78436,0.13864c-3.97365,-3.70512 -6.35258,-7.08514 -8.60891,-12.04145c-2.0205,-4.43826 -6.55889,-16.38159 -2.79729,-21.21494c0.59836,-0.76883 9.59911,-4.43956 10.99331,-5.02493c9.42339,-3.95658 31.35174,-7.9012 28.68503,-21.26561c-6.40889,-9.16623 -21.22482,-21.00034 -20.26157,-33.43357c0.40231,-5.1929 5.18726,-8.67534 7.80794,-12.57985c3.29395,-4.90761 4.96323,-10.89772 7.73833,-16.09508l-0.08459,-0.34439c0,0 0.44272,-2.64086 3.08362,-2.19813z" fill="#000000" stroke="none" stroke-width="0.5" stroke-linecap="butt"/><g><path d="M278.69646,347.87292l12.04223,-71.8323l74.8253,12.54399l-12.04223,71.8323z" fill="#323232" stroke="none" stroke-width="0" stroke-linecap="butt"/><g stroke="#000000"><path d="M327.0202,287.33921c15.98542,2.67985 26.77172,17.81108 24.09186,33.79652c-2.67985,15.98542 -17.81111,26.77172 -33.79649,24.09187c-15.98542,-2.67985 -26.77172,-17.81111 -24.09187,-33.79649c2.67985,-15.98542 17.81112,-26.77175 33.7965,-24.0919z" fill="#878787" stroke-width="1" stroke-linecap="butt"/><path d="M347.70027,302.20565l-44.71943,-7.18662" fill="none" stroke-width="1.5" stroke-linecap="round"/><path d="M350.25773,311.01255l-52.16362,-9.05518" fill="none" stroke-width="1.5" stroke-linecap="round"/><path d="M294.31519,307.83989l55.63365,10.56785" fill="none" stroke-width="1.5" stroke-linecap="round"/><path d="M293.3531,314.35015l56.64027,10.11598" fill="none" stroke-width="1.5" stroke-linecap="round"/><path d="M339.82817,294.06179l-25.94815,-4.68423" fill="none" stroke-width="1.5" stroke-linecap="round"/><path d="M296.71231,330.25168l44.6182,7.79027" data-paper-data="{&quot;index&quot;:null}" fill="none" stroke-width="1.5" stroke-linecap="round"/><path d="M346.62026,330.55058l-52.26481,-8.45159" data-paper-data="{&quot;index&quot;:null}" fill="none" stroke-width="1.5" stroke-linecap="round"/><path d="M331.2329,343.17336l-26.05714,-4.03417" data-paper-data="{&quot;index&quot;:null}" fill="none" stroke-width="1.5" stroke-linecap="round"/></g></g><g stroke="#000000" stroke-width="2" stroke-linecap="butt"><path d="M340.20649,213.21457c0.4258,0.01792 -4.80421,28.47996 -10.98406,72.38516c-1.9338,-1.0017 -32.33174,-3.84236 -37.11863,25.17598c-3.63736,29.68992 23.5498,36.25301 26.43616,35.47203c-5.71082,40.67694 -13.82067,77.41067 -19.09716,104.08451c-0.71773,3.62826 -26.01801,-2.70249 -50.35404,-15.08407c-17.50465,-8.90593 -28.80965,-21.73397 -30.34464,-28.09013c-5.31767,-22.01943 -6.32867,-46.80946 -2.04254,-72.37636c12.81245,-76.42669 86.35832,-128.88891 123.50494,-121.56708z" fill="#ff0000"/><path d="M215.88512,400.48437c0,0 -11.64394,-61.60006 12.3911,-107.70452c27.93543,-53.58628 90.62172,-79.20261 90.62172,-79.20261c0,0 -37.56507,42.68437 -42.32863,71.09915c-6.07237,36.22186 -20.71972,123.5938 -20.71972,123.5938z" fill="#000000"/></g><g data-paper-data="{&quot;index&quot;:null}" stroke="#000000" stroke-width="2" stroke-linecap="butt"><path d="M417.03233,368.36587c-4.28613,25.5669 -13.32646,48.67189 -25.53439,67.75326c-3.52396,5.50809 -18.39443,13.94797 -37.84644,16.65832c-27.0434,3.76817 -53.02508,1.5018 -52.52032,-2.16217c3.71095,-26.93633 8.0241,-64.30658 15.89116,-104.62198c2.47386,1.67959 30.31497,4.34164 36.55901,-24.91129c4.9383,-28.99292 -24.72401,-36.22105 -26.8788,-35.90474c8.47643,-43.5202 12.81446,-72.13177 13.22286,-72.00984c37.50354,5.1928 89.91938,78.7717 77.10692,155.19843z" fill="#ff0000"/><path d="M356.05836,425.06959c0,0 14.64736,-87.37194 20.71972,-123.5938c4.76356,-28.41477 -16.82744,-81.01629 -16.82744,-81.01629c0,0 50.90504,44.65921 59.83755,104.42613c7.68528,51.42217 -23.41119,105.85707 -23.41119,105.85707z" fill="#000000"/></g><g fill="#8b0000" stroke="#000000" stroke-width="2" stroke-linecap="butt"><path d="M334.53405,258.50591c-1.15957,8.00098 -10.48396,13.27184 -20.82664,11.77289c-10.34268,-1.49895 -19.98908,5.99354 -16.62752,-17.20107c3.46399,-23.90132 10.484,-13.27183 20.82668,-11.77288c10.34268,1.49895 17.78705,9.20014 16.62748,17.20106z"/><path d="M357.73172,247.79817c10.34268,1.49895 20.09147,-6.70022 16.62748,17.20107c-3.36156,23.19461 -10.48396,13.27184 -20.82664,11.77289c-10.34268,-1.49895 -17.78708,-9.20015 -16.62752,-17.20107c1.15957,-8.00098 10.484,-13.27184 20.82668,-11.77289z" data-paper-data="{&quot;index&quot;:null}"/><path d="M349.72778,260.70792c-1.18785,8.19609 -8.63685,13.90032 -16.63777,12.74076c-8.00098,-1.15957 -13.52407,-8.74383 -12.33622,-16.93992c1.18785,-8.19609 8.63688,-13.90031 16.6378,-12.74075c8.00098,1.15957 13.52403,8.74386 12.33619,16.93991z"/></g><g stroke-linecap="butt"><path d="M464.01048,526.96636c0,0 -13.73598,-45.06094 -17.65778,-67.0672c-3.70144,-20.76975 -4.14174,-61.65888 -4.14174,-61.65888l38.79517,-6.4169c0,0 14.02814,40.29721 17.79274,61.42146c3.86855,21.70742 7.33209,66.7545 7.33209,66.7545z" fill="#696969" stroke="#000000" stroke-width="2"/><path d="M477.16053,524.17685l-22.73596,-127.5774l14.77914,-2.44454l22.73597,127.57749z" fill="url(#color-8)" stroke="none" stroke-width="0"/><path d="M473.73395,526.70715c-1.92733,-0.88403 -1.7803,-3.96569 -1.7803,-3.96569l0.29364,-5.47337c1.79425,-5.77366 4.56883,-9.34942 6.88182,-14.39728c1.33597,-2.91561 1.95087,-6.61955 3.15097,-9.66975c1.07521,-2.73271 2.99734,-4.71044 3.36299,-8.30169c0.8545,-8.39234 -3.17564,-19.74354 -8.0461,-23.60244c-3.04515,-2.7642 -5.80568,-6.01781 -8.75425,-9.06129c-2.64362,-2.7288 -5.89894,-3.82828 -7.91711,-8.38696c-1.99565,-4.50765 -1.73823,-12.10203 -1.47903,-16.43409c0.70657,-11.81082 5.84645,-20.19237 6.74633,-31.88731c0,0 0.25506,-3.02715 2.17112,-1.97147c1.91602,1.05569 1.66101,4.08286 1.66101,4.08286c-1.03835,11.55797 -6.01426,20.13558 -6.73645,31.75976c-0.12873,2.07171 -0.54412,8.85205 0.63107,11.47953c0.73249,1.63778 3.57955,3.57622 4.19641,4.10129c3.66254,3.11751 7.02259,7.42651 10.66639,10.73688c6.6316,5.45705 11.77207,20.08254 10.67773,31.45639c-0.43447,4.51542 -2.48219,6.87015 -3.8285,10.28032c-1.23078,3.11743 -1.86614,6.86829 -3.23401,9.86567c-2.05861,4.51094 -4.72401,7.78833 -6.41239,12.80323l-0.1769,4.38773c0,0 -0.14704,3.08169 -2.07439,2.19771z" fill="#000000" stroke="none" stroke-width="0.5"/><path d="M464.01048,526.96636c0,0 -13.73598,-45.06094 -17.65778,-67.0672c-3.70144,-20.76975 -4.14174,-61.65888 -4.14174,-61.65888l38.79517,-6.4169c0,0 14.02814,40.29721 17.79274,61.42146c3.86855,21.70742 7.33209,66.7545 7.33209,66.7545z" fill="#ff0000" stroke="#000000" stroke-width="2"/></g><path d="M283.12021,240.33384c-1.33667,7.9733 -8.88385,13.35332 -16.85712,12.01665c-7.9733,-1.33667 -13.35332,-8.88385 -12.01665,-16.85716c1.33667,-7.97327 8.88388,-13.35331 16.85716,-12.01665c7.97327,1.33667 13.35328,8.88388 12.01661,16.85715z" fill="url(#color-9)" stroke="none" stroke-width="0" stroke-linecap="butt"/><path d="M153.91445,345.97614c-2.62537,-8.6128 2.22839,-17.72311 10.84117,-20.34848c8.61277,-2.62537 17.72311,2.22839 20.34848,10.84117c2.62537,8.61277 -2.22842,17.72311 -10.8412,20.34849c-8.61274,2.62534 -17.72307,-2.22837 -20.34845,-10.8412z" data-paper-data="{&quot;index&quot;:null}" fill="url(#color-10)" stroke="none" stroke-width="0" stroke-linecap="butt"/><g data-paper-data="{&quot;index&quot;:null}" stroke-linecap="butt"><path d="M155.66636,322.46717c0,0 27.67235,-35.71386 42.844,-51.71379c14.76406,-15.57014 48.64614,-41.50583 48.64614,-41.50583l28.8682,26.69959c0,0 -22.86039,33.90448 -37.3767,49.2133c-15.38052,16.22022 -51.6391,46.29484 -51.6391,46.29484z" fill="#696969" stroke="#000000" stroke-width="2"/><path d="M166.56424,331.72078l89.16599,-94.03385l10.99741,10.17129l-89.1659,94.03381z" fill="url(#color-11)" stroke="none" stroke-width="0"/><path d="M179.03139,345.89007c-2.09579,-0.32198 -0.52338,-2.97644 -0.52338,-2.97644l2.26592,-3.7615c1.34865,-5.11671 0.92561,-9.31994 1.68788,-14.21945c0.50648,-3.25558 2.03922,-6.73742 2.72625,-10.01787c0.75158,-3.58847 0.33683,-6.68136 2.45791,-10.69118c5.34272,-10.10035 17.68086,-19.4864 26.22083,-20.39567c4.864,-0.7601 10.04031,-2.51028 14.81383,-3.09898c0.80399,-0.09911 4.2479,-0.1518 5.76053,-1.11657c2.42677,-1.54775 5.80965,-7.43858 6.84176,-9.23948c5.79121,-10.10468 6.3543,-20.00508 11.84506,-30.22839c0,0 1.45222,-2.66831 3.63306,-2.49595c2.18084,0.17239 0.72863,2.84071 0.72863,2.84071c-5.6818,10.26155 -6.00005,20.0884 -11.907,30.34038c-2.16659,3.76031 -6.12922,10.24401 -10.27539,12.9106c-4.19308,2.69679 -7.51644,1.82425 -11.22522,2.64884c-4.13655,0.91968 -8.23159,2.11829 -12.29521,2.75155c-6.19015,0.54339 -15.79989,7.8059 -19.70283,15.28444c-1.67011,3.20021 -1.15284,5.90921 -1.75819,8.78275c-0.67568,3.20743 -2.19965,6.63886 -2.68785,9.80859c-0.84519,5.48787 -0.49513,10.00028 -2.17274,15.80888l-2.76561,4.73234c0,0 -1.57242,2.65446 -3.66824,2.33248z" fill="#000000" stroke="none" stroke-width="0.5"/><path d="M155.66636,322.46717c0,0 27.67235,-35.71386 42.844,-51.71379c14.76406,-15.57014 48.64614,-41.50583 48.64614,-41.50583l28.8682,26.69959c0,0 -22.86039,33.90448 -37.3767,49.2133c-15.38052,16.22022 -51.6391,46.29484 -51.6391,46.29484z" fill="#ff0000" stroke="#000000" stroke-width="2"/></g><g data-paper-data="{&quot;index&quot;:null}" stroke-linecap="butt"><path d="M80.70709,444.9607c0,0 18.94731,-41.01507 30.13929,-60.01289c10.8913,-18.48745 38.08517,-51.36826 38.08517,-51.36826l34.12581,19.53639c0,0 -14.66441,38.17158 -25.37295,56.34878c-11.34606,19.25936 -39.92647,56.707 -39.92647,56.707z" fill="#696969" stroke="#000000" stroke-width="2"/><path d="M93.40441,451.53136l65.7768,-111.65281l13.00034,7.44245l-65.77677,111.65274z" fill="url(#color-12)" stroke="none" stroke-width="0"/><path d="M108.73451,462.53969c-2.11459,0.15677 -1.1783,-2.78291 -1.1783,-2.78291l1.36352,-4.17425c0.16542,-5.2889 -1.19052,-9.28978 -1.54777,-14.23537c-0.23737,-3.28619 0.47446,-7.0233 0.40742,-10.37422c-0.07328,-3.66558 -1.17187,-6.58637 -0.00527,-10.97007c2.93859,-11.04204 12.85436,-22.95871 20.97214,-25.76214c4.56912,-1.83275 9.22035,-4.70041 13.73981,-6.34586c0.76119,-0.27713 4.10535,-1.10169 5.36275,-2.38146c2.01729,-2.05311 3.9912,-8.55305 4.59263,-10.53971c3.37465,-11.14697 1.70046,-20.92102 4.7557,-32.11613c0,0 0.81609,-2.92622 2.97991,-3.24789c2.16386,-0.32164 1.34783,2.60458 1.34783,2.60458c-3.23276,11.27523 -1.33655,20.92266 -4.7909,32.23912c-1.26698,4.15075 -3.67269,11.35863 -7.11431,14.88803c-3.48052,3.56938 -6.91493,3.46529 -10.34388,5.10155c-3.82446,1.82492 -7.54591,3.91233 -11.36356,5.44182c-5.91005,1.91934 -13.64387,11.15404 -15.76807,19.31795c-0.90899,3.4935 0.20328,6.01715 0.25859,8.95327c0.06171,3.27722 -0.65294,6.96321 -0.41697,10.16163c0.40854,5.5375 1.76281,9.8561 1.43217,15.89308l-1.63249,5.23249c0,0 -0.93629,2.93965 -3.05088,3.09649z" fill="#000000" stroke="none" stroke-width="0.5"/><path d="M80.70709,444.9607c0,0 18.94731,-41.01507 30.13929,-60.01289c10.8913,-18.48745 38.08517,-51.36826 38.08517,-51.36826l34.12581,19.53639c0,0 -14.66441,38.17158 -25.37295,56.34878c-11.34606,19.25936 -39.92647,56.707 -39.92647,56.707z" fill="#ff0000" stroke="#000000" stroke-width="2"/></g><path d="M327.44784,113.83295c49.2439,-13.9041 98.54608,8.05267 110.11944,49.04183c11.57336,40.98916 -18.96466,85.48895 -68.20859,99.39306c-49.24393,13.90411 -98.54608,-8.05267 -110.11944,-49.04183c-11.57336,-40.98916 18.96467,-85.48895 68.20859,-99.39306z" fill="#696969" stroke="#000000" stroke-width="2" stroke-linecap="butt"/><path d="M331.48391,125.20079c42.69705,-12.05559 85.17167,6.01552 94.86971,40.36288c9.69805,34.3474 -17.05292,71.96444 -59.74998,84.02003c-42.69705,12.05559 -85.17164,-6.01553 -94.86968,-40.3629c-9.69805,-34.3474 17.0529,-71.96443 59.74995,-84.02001z" fill="none" stroke="url(#color-13)" stroke-width="4.5" stroke-linecap="butt"/><g stroke="none" stroke-width="0" stroke-linecap="butt"><path d="M316.3558,187.58042l-18.04495,-63.90946l60.81706,-17.1718l18.04495,63.90946z" fill="url(#color-14)"/><path d="M355.30185,130.39551l-5.23885,-18.55435l7.21555,-2.03732l5.23885,18.55435z" fill="#ffffff"/><path d="M361.26832,151.52685l-5.23885,-18.55435l7.21555,-2.03732l5.23885,18.55435z" fill="#ffffff"/><path d="M367.08925,172.14279l-5.23885,-18.55435l7.21555,-2.03732l5.23885,18.55435z" fill="#ffffff"/><path d="M307.22418,143.41379l-5.23885,-18.55435l7.21558,-2.03733l5.23885,18.55435z" fill="#ffffff"/><path d="M313.19068,164.54516l-5.23885,-18.55435l7.21558,-2.03733l5.23885,18.55435z" fill="#ffffff"/><path d="M319.01164,185.16113l-5.23885,-18.55434l7.21558,-2.03733l5.23885,18.55434z" fill="#ffffff"/><path d="M348.1622,177.37558l-1.74629,-6.1848l13.91576,-3.92914l1.74629,6.1848z" fill="#ffffff"/><path d="M332.08698,181.80314l-1.74629,-6.1848l13.91579,-3.92915l1.74629,6.1848z" fill="#ffffff"/></g><path d="M260.56109,213.96578c-11.57336,-40.98916 18.96467,-85.48892 68.2086,-99.39303c25.73218,-7.26553 -63.63457,31.30791 -45.13554,101.26258c14.63566,59.34302 82.33376,26.91607 78.17809,30.67115c7.55957,2.18438 11.0454,14.40249 4.70067,16.19393c-49.24393,13.90411 -94.37838,-7.74543 -105.95174,-48.73459z" fill="#ff0000" stroke="#000000" stroke-width="2" stroke-linecap="butt"/><path d="M440.62278,162.38307c11.57336,40.98916 -15.57313,83.04738 -64.81703,96.95148c-6.34473,1.79145 -9.76382,-10.44547 -4.46304,-16.26099c6.30744,-0.22448 65.24092,-16.79424 50.59213,-67.02969c-20.81957,-69.29942 -117.16365,-55.43708 -91.43146,-62.70261c49.24393,-13.90411 98.54605,8.05267 110.11941,49.04184z" data-paper-data="{&quot;index&quot;:null}" fill="#ff0000" stroke="#000000" stroke-width="2" stroke-linecap="butt"/><path d="M297.55512,7.52368c66.32273,-18.72634 130.9468,4.55161 144.34189,51.99275c13.39509,47.44115 4.33627,92.07611 -95.83397,119.80686c-105.81027,29.29214 -130.94677,-4.55162 -144.34187,-51.99279c-13.39509,-47.44115 29.51123,-101.08048 95.83395,-119.80682z" fill="#696969" stroke="#000000" stroke-width="2" stroke-linecap="butt"/><path d="M282.51234,94.47602l-9.75009,-34.53173l73.70201,-20.80989l9.75009,34.53173z" fill="url(#color-15)" stroke="#000000" stroke-width="0" stroke-linecap="butt"/><path d="M307.51065,145.56491l-18.77257,-66.48646l53.60148,-15.13447l18.77257,66.48646z" fill="url(#color-16)" stroke="none" stroke-width="0" stroke-linecap="butt"/><path d="M305.01381,144.95149l-42.94222,-75.38625l11.6337,-6.62687l42.94222,75.38625z" fill="url(#color-17)" stroke="none" stroke-width="0" stroke-linecap="butt"/><path d="M349.75,131.76051l-2.82676,-86.71292l13.38164,-0.43625l2.82674,86.71296z" data-paper-data="{&quot;index&quot;:null}" fill="url(#color-18)" stroke="none" stroke-width="0" stroke-linecap="butt"/><path d="M293.58275,153.39288l-5.38438,-19.06975l84.00999,-23.72037l5.38438,19.06975z" fill="url(#color-19)" stroke="none" stroke-width="0" stroke-linecap="butt"/><path d="M282.32723,161.97051c-2.20938,1.51289 -3.72232,-0.69654 -3.72232,-0.69654l-0.50537,-0.80606c-2.0123,-2.07569 -4.20157,-5.14534 -6.74553,-6.64942c-0.98229,-0.58073 -4.28636,-1.05333 -5.03072,-1.35744c-10.23207,-4.1805 -27.22998,-12.10818 -22.30894,-25.76787c3.03502,-2.0317 13.15904,-6.15015 12.74861,-11.23738c-0.58267,-7.22193 -6.97867,-11.40454 -5.82478,-19.47968c1.3364,-9.35276 10.00185,-16.56267 16.35306,-22.96562c0,0 1.88591,-1.90098 3.78689,-0.01507c1.90099,1.88591 0.01506,3.78686 0.01506,3.78686c-5.35245,5.39429 -13.72579,11.99933 -14.84698,19.90545c-1.39342,9.82554 10.93329,16.69147 2.637,26.27155c-0.87763,1.01342 -2.01863,1.77293 -3.11723,2.5412c-1.62371,1.13552 -5.64891,3.42545 -7.56769,4.53574c-1.10989,3.34527 2.77377,7.05502 5.00478,9.1875c5.87696,5.6173 14.10907,6.04302 20.75316,9.914c3.09379,1.80254 5.53194,5.06917 7.98824,7.60221l1.07929,1.50829c0,0 1.51286,2.20942 -0.69655,3.72232z" fill="#000000" stroke="none" stroke-width="0.5" stroke-linecap="butt"/><path d="M265.58221,175.61082c-2.59676,0.65365 -3.25036,-1.94309 -3.25036,-1.94309l-0.19481,-0.93126c-1.16845,-2.64433 -2.15847,-6.28242 -4.02373,-8.57471c-0.72023,-0.8851 -3.65586,-2.47324 -4.24874,-3.01648c-8.14975,-7.46679 -21.3479,-20.79295 -11.99876,-31.90144c3.551,-0.85429 14.47487,-1.20969 15.8525,-6.12401c1.95574,-6.97646 -2.5948,-13.1161 1.28548,-20.29123c4.49424,-8.31035 15.12102,-12.07123 23.29741,-15.87689c0,0 2.42774,-1.12982 3.5575,1.29795c1.12978,2.42776 -1.29799,3.55748 -1.29799,3.55748c-6.88993,3.20559 -17.03316,6.50025 -20.82429,13.52812c-4.7115,8.7341 4.47264,19.44576 -6.62909,25.55785c-1.17442,0.64656 -2.50787,0.96367 -3.80459,1.30368c-1.91657,0.50255 -6.48586,1.25596 -8.67045,1.63268c-2.20018,2.75348 0.1574,7.57907 1.51137,10.35247c3.56659,7.30563 11.14125,10.55729 16.03254,16.49058c2.27761,2.76279 3.43283,6.67187 4.85931,9.89909l0.48988,1.78882c0,0 0.65363,2.5967 -1.94316,3.25035z" fill="#000000" stroke="none" stroke-width="0.5" stroke-linecap="butt"/><path d="M384.1893,127.45802l0.13112,-1.85008c0.7688,-3.44365 1.13839,-7.50309 2.83258,-10.65749c3.63839,-6.77423 10.43217,-11.44253 12.50337,-19.30401c0.78629,-2.98436 2.15612,-8.17755 -0.53943,-10.4483c-2.21608,0.0572 -6.84453,0.21065 -8.82238,0.09203c-1.33818,-0.08024 -2.70792,-0.13084 -3.98594,-0.53561c-12.08159,-3.82635 -5.16616,-16.12534 -11.49264,-23.77111c-5.09058,-6.15218 -15.68194,-7.40257 -23.06521,-9.20091c0,0 -2.60163,-0.63389 -1.96775,-3.23552c0.63392,-2.60164 3.23556,-1.96772 3.23556,-1.96772c8.76209,2.13565 19.91875,3.74879 25.94939,11.02144c5.20681,6.27916 1.94291,13.18932 5.22341,19.64951c2.31084,4.55064 13.09377,2.76594 16.7432,2.91028c11.3385,9.06878 0.997,24.71587 -5.53769,33.63042c-0.47538,0.64854 -3.04439,2.77938 -3.57787,3.78809c-1.38164,2.61248 -1.64216,6.37383 -2.27167,9.19544l-0.0092,0.95136c0,0 -0.13391,2.67442 -2.80831,2.54048c-2.6744,-0.13395 -2.54049,-2.80834 -2.54049,-2.80834z" data-paper-data="{&quot;index&quot;:null}" fill="#000000" stroke="none" stroke-width="0.5" stroke-linecap="butt"/><path d="M404.77986,131.38044l-0.51803,-1.78087c-0.47199,-3.49672 -1.53183,-7.43276 -1.03554,-10.97873c1.06581,-7.61525 5.82125,-14.34834 5.04025,-22.44049c-0.29649,-3.07199 -0.81085,-8.41807 -4.12624,-9.61419c-2.059,0.82154 -6.34755,2.56912 -8.24395,3.1432c-1.28309,0.3884 -2.58548,0.81552 -3.92459,0.87869c-12.65898,0.59679 -10.43335,-13.33648 -19.01712,-18.3166c-6.90691,-4.00733 -17.27541,-1.51039 -24.8244,-0.63913c0,0 -2.66011,0.30685 -2.9669,-2.35328c-0.30679,-2.66013 2.35334,-2.96692 2.35334,-2.96692c8.95929,-1.03263 19.98376,-3.38502 28.16075,1.34762c7.05992,4.08615 6.39246,11.69913 11.70813,16.62246c3.74441,3.46808 13.24105,-1.94226 16.71447,-3.07133c13.77836,4.57838 9.49896,22.83937 6.45783,33.46593c-0.22123,0.77306 -1.89275,3.66208 -2.0437,4.79319c-0.39093,2.92933 0.668,6.54796 1.0551,9.41291l0.32097,0.8956c0,0 0.80105,2.5551 -1.75409,3.35614c-2.55515,0.801 -3.35614,-1.75409 -3.35614,-1.75409z" data-paper-data="{&quot;index&quot;:null}" fill="#000000" stroke="none" stroke-width="0.5" stroke-linecap="butt"/><path d="M375.48503,39.66896c4.11497,14.57392 -4.73289,29.8285 -19.76225,34.07207c-15.02939,4.24357 -30.54888,-4.13085 -34.66385,-18.70477c-4.11497,-14.57392 4.73286,-29.82853 19.76221,-34.07209c15.02935,-4.24356 30.54891,4.13087 34.66389,18.70479z" data-paper-data="{&quot;index&quot;:null}" fill="#ffffff" stroke="#000000" stroke-width="2" stroke-linecap="butt"/><path d="M361.21973,42.75423c2.17855,7.71575 -2.05493,15.66459 -9.45576,17.75423c-7.4008,2.08963 -15.16642,-2.47125 -17.34498,-10.18699c-2.17855,-7.71575 2.05492,-15.6646 9.45573,-17.75422c7.4008,-2.08963 15.16646,2.47124 17.34501,10.18699z" data-paper-data="{&quot;index&quot;:null}" fill="#000000" stroke="none" stroke-width="0" stroke-linecap="butt"/><path d="M269.09986,40.47268c15.02939,-4.24357 30.54892,4.13087 34.66388,18.70476c4.11497,14.57392 -4.7329,29.82851 -19.76225,34.07207c-15.02939,4.24357 -30.5489,-4.13084 -34.66388,-18.70476c-4.11497,-14.57392 4.73286,-29.8285 19.76225,-34.07207z" fill="#ffffff" stroke="#000000" stroke-width="2" stroke-linecap="butt"/><path d="M272.56577,51.95956c7.4008,-2.08963 15.16641,2.47122 17.34497,10.18697c2.17855,7.71575 -2.05493,15.66457 -9.45573,17.7542c-7.4008,2.08963 -15.16646,-2.47124 -17.345,-10.18696c-2.17855,-7.71575 2.05497,-15.66457 9.45577,-17.7542z" fill="#000000" stroke="none" stroke-width="0" stroke-linecap="butt"/><path d="M249.79952,183.59141l-5.24635,-18.5809l178.84341,-50.49675l5.24635,18.5809c0,0 -24.40532,29.61163 -81.86166,45.34483c-63.25305,17.32049 -96.98172,5.1519 -96.98172,5.1519z" fill="url(#color-20)" stroke="none" stroke-width="0" stroke-linecap="butt"/><path d="M294.87863,7.89892c1.34312,-0.37923 17.55806,54.8374 30.89223,102.76404c-0.82696,-0.33015 -1.66991,-0.15991 -1.66991,-0.15991c-14.71719,3.04925 -60.58688,16.54442 -69.4471,18.72533c-16.08397,3.396 -33.15643,9.53604 -49.92695,7.80208c-1.12107,-3.30558 -2.14896,-6.66521 -3.10532,-10.05232c-13.39509,-47.44115 28.35749,-100.75472 93.25698,-119.07921zM245.35008,76.53733c3.07816,11.41623 20.69696,25.30498 42.53875,20.56765c7.81544,-1.6951 26.77236,-20.34533 17.39207,-42.79371c-2.36123,-5.65079 -14.13122,-24.89886 -38.93911,-16.27186c-13.31946,4.63186 -26.5822,17.76407 -20.99172,38.49788z" fill="#ff0000" stroke="#000000" stroke-width="2" stroke-linecap="butt"/><path d="M245.30235,76.55225c-5.59048,-20.73381 7.70423,-33.92843 21.02368,-38.56029c24.8079,-8.62699 36.63955,10.64874 39.00078,16.29954c9.38029,22.44838 -9.60412,41.16487 -17.41957,42.85997c-21.84179,4.73733 -39.52672,-9.18295 -42.60489,-20.59918z" data-paper-data="{&quot;noHover&quot;:false,&quot;origItem&quot;:[&quot;Path&quot;,{&quot;applyMatrix&quot;:true,&quot;segments&quot;:[[[245.35009,76.53733],[0,0],[3.07816,11.41623]],[[287.88883,97.10498],[-21.84179,4.73733],[7.81544,-1.6951]],[[305.28091,54.31128],[9.38029,22.44838],[-2.36123,-5.65079]],[[266.34179,38.03942],[24.8079,-8.62699],[-13.31946,4.63186]],[[245.35008,76.53729],[-5.59048,-20.73381],[0,0]]],&quot;closed&quot;:true,&quot;fillColor&quot;:[0,0,0,1]}]}" fill="#000000" stroke="none" stroke-width="0.5" stroke-linecap="butt"/><path d="M342.23228,175.61046c-89.68119,32.68187 -121.3361,3.12359 -136.67614,-37.14799c16.58557,0.95524 33.2152,-4.7494 49.13614,-8.10119c9.0517,-2.22802 54.84944,-15.83792 69.31471,-18.69683c0,0 1.09015,-0.22021 1.72341,-1.07929c9.63731,34.76531 17.46259,64.67518 16.50195,65.02527z" fill="#ff0000" stroke="#000000" stroke-width="2" stroke-linecap="butt"/><path d="M442.04472,59.83627c0.95636,3.38711 1.83737,6.78821 2.6107,10.19198c-13.38713,10.24902 -31.14972,13.94473 -46.63468,19.46226c-8.69244,2.77515 -54.84647,15.26304 -68.98513,20.36125c0,0 -0.80748,0.29576 -1.33968,1.00967c-13.70086,-47.82308 -28.7592,-103.36631 -27.41611,-103.74553c64.89949,-18.32448 128.36981,5.27923 141.76491,52.7204zM341.97742,15.7702c-25.65645,5.6217 -25.62142,28.18312 -24.67858,34.2344c3.74563,24.03933 29.65733,30.02083 37.2052,27.37807c21.09402,-7.38567 28.84707,-28.43828 25.49992,-39.77846c-6.07906,-20.59586 -24.25146,-24.85226 -38.02654,-21.83394z" data-paper-data="{&quot;index&quot;:null}" fill="#ff0000" stroke="#000000" stroke-width="2" stroke-linecap="butt"/><path d="M341.96641,15.72149c13.77508,-3.01833 32.00658,1.27321 38.08563,21.86907c3.34715,11.34019 -4.44507,32.45563 -25.53909,39.8413c-7.54787,2.64276 -33.51818,-3.38231 -37.26381,-27.42164c-0.94284,-6.05128 -0.93917,-28.6671 24.71728,-34.2888z" data-paper-data="{&quot;noHover&quot;:false,&quot;origItem&quot;:[&quot;Path&quot;,{&quot;applyMatrix&quot;:true,&quot;segments&quot;:[[[341.97741,15.7702],[0,0],[-25.65645,5.6217]],[[317.29883,50.0046],[-0.94284,-6.05128],[3.74563,24.03933]],[[354.50402,77.38267],[-7.54787,2.64276],[21.09402,-7.38567]],[[380.00394,37.60421],[3.34715,11.34019],[-6.07906,-20.59586]],[[341.9774,15.77027],[13.77508,-3.01833],[0,0]]],&quot;closed&quot;:true,&quot;fillColor&quot;:[0,0,0,1]}]}" fill="#000000" stroke="none" stroke-width="0.5" stroke-linecap="butt"/><path d="M327.68237,110.7476c0.98905,0.40102 2.03334,0.01853 2.03334,0.01853c13.82438,-5.12872 59.97715,-17.48121 68.85748,-20.31633c15.32293,-5.46997 32.48036,-9.30519 46.11707,-18.79375c7.98762,42.34755 -3.5336,84.09668 -97.06421,103.14498c-1.00191,0.20407 -9.97527,-29.38163 -19.94366,-64.05346z" data-paper-data="{&quot;index&quot;:null}" fill="#ff0000" stroke="#000000" stroke-width="2" stroke-linecap="butt"/><path d="M316.76439,76.68251c19.35597,-5.46519 39.47752,5.79552 44.94272,25.15152c5.46519,19.35597 -5.79549,39.47751 -25.15149,44.94271c-19.35597,5.46519 -39.47758,-5.7955 -44.94278,-25.15147c-5.46519,-19.35597 5.79555,-39.47756 25.15155,-44.94276z" fill="#ff7b00" stroke="#000000" stroke-width="2" stroke-linecap="butt"/><path d="M-13.19821,384.06907v-415.91592h515.01502v415.91592z" fill="url(#color-21)" stroke="none" stroke-width="NaN" stroke-linecap="butt"/><path d="M282.67643,69.36111c0,3.03757 -2.46243,5.5 -5.5,5.5c-3.03757,0 -5.5,-2.46243 -5.5,-5.5c0,-3.03757 2.46243,-5.5 5.5,-5.5c3.03757,0 5.5,2.46243 5.5,5.5z" fill="#000000" stroke="#ff0000" stroke-width="1.5" stroke-linecap="butt"/><path d="M352.67643,47.86111c0,3.03757 -2.46244,5.5 -5.5,5.5c-3.03756,0 -5.5,-2.46243 -5.5,-5.5c0,-3.03757 2.46244,-5.5 5.5,-5.5c3.03756,0 5.5,2.46243 5.5,5.5z" fill="#000000" stroke="#ff0000" stroke-width="1.5" stroke-linecap="butt"/><text transform="translate(-7.6725,344.47593) scale(5.90571,5.90571)" font-size="40" xml:space="preserve" fill="#ff0000" fill-rule="nonzero" stroke="none" stroke-width="1" stroke-linecap="butt" stroke-linejoin="miter" stroke-miterlimit="10" stroke-dasharray="" stroke-dashoffset="0" font-family="&quot;Microsoft YaHei&quot;, &quot;微软雅黑&quot;, STXihei, &quot;华文细黑&quot;" font-weight="normal" text-anchor="start" style="mix-blend-mode: normal"><tspan x="0" dy="0">3</tspan></text><text transform="translate(110.87905,346.8358) scale(1.23271,1.05272)" font-size="40" xml:space="preserve" fill="#ffffff" fill-rule="nonzero" stroke="none" stroke-width="1" stroke-linecap="butt" stroke-linejoin="miter" stroke-miterlimit="10" stroke-dasharray="" stroke-dashoffset="0" font-family="&quot;Microsoft YaHei&quot;, &quot;微软雅黑&quot;, STXihei, &quot;华文细黑&quot;" font-weight="normal" text-anchor="start" style="mix-blend-mode: normal"><tspan x="0" dy="0">R</tspan></text></g></g></svg>