<svg version="1.1" xmlns="http://www.w3.org/2000/svg" xmlns:xlink="http://www.w3.org/1999/xlink" width="762.90737" height="500.8929" viewBox="0,0,762.90737,500.8929"><defs><linearGradient x1="469.86968" y1="389.34201" x2="500.32899" y2="404.17902" gradientUnits="userSpaceOnUse" id="color-1"><stop offset="0" stop-color="#5c5c5c"/><stop offset="1" stop-color="#9b9b9b"/></linearGradient><linearGradient x1="529.08087" y1="472.63418" x2="550.17101" y2="455.46094" gradientUnits="userSpaceOnUse" id="color-2"><stop offset="0" stop-color="#5c5c5c"/><stop offset="1" stop-color="#9b9b9b"/></linearGradient><linearGradient x1="413.95405" y1="366.01015" x2="430.35501" y2="344.31403" gradientUnits="userSpaceOnUse" id="color-3"><stop offset="0" stop-color="#5c5c5c"/><stop offset="1" stop-color="#9b9b9b"/></linearGradient><linearGradient x1="6.58287" y1="387.34501" x2="-23.87645" y2="402.18202" gradientUnits="userSpaceOnUse" id="color-4"><stop offset="0" stop-color="#5c5c5c"/><stop offset="1" stop-color="#9b9b9b"/></linearGradient><linearGradient x1="-52.62833" y1="470.63718" x2="-73.71846" y2="453.46395" gradientUnits="userSpaceOnUse" id="color-5"><stop offset="0" stop-color="#5c5c5c"/><stop offset="1" stop-color="#9b9b9b"/></linearGradient><linearGradient x1="62.4985" y1="364.01316" x2="46.09753" y2="342.31703" gradientUnits="userSpaceOnUse" id="color-6"><stop offset="0" stop-color="#5c5c5c"/><stop offset="1" stop-color="#9b9b9b"/></linearGradient><linearGradient x1="235.6779" y1="296.65369" x2="235.6779" y2="312.8382" gradientUnits="userSpaceOnUse" id="color-7"><stop offset="0" stop-color="#5c5c5c"/><stop offset="1" stop-color="#9b9b9b"/></linearGradient><linearGradient x1="261.65131" y1="341.09955" x2="274.71881" y2="348.8616" gradientUnits="userSpaceOnUse" id="color-8"><stop offset="0" stop-color="#5c5c5c"/><stop offset="1" stop-color="#9b9b9b"/></linearGradient><linearGradient x1="210.75159" y1="342.35267" x2="197.68402" y2="350.11471" gradientUnits="userSpaceOnUse" id="color-9"><stop offset="0" stop-color="#5c5c5c"/><stop offset="1" stop-color="#9b9b9b"/></linearGradient><linearGradient x1="226.18246" y1="466.21207" x2="245.44971" y2="466.21207" gradientUnits="userSpaceOnUse" id="color-10"><stop offset="0" stop-color="#5c5c5c"/><stop offset="1" stop-color="#9b9b9b"/></linearGradient><linearGradient x1="332.63766" y1="305.03221" x2="366.51843" y2="305.03221" gradientUnits="userSpaceOnUse" id="color-11"><stop offset="0" stop-color="#5c5c5c"/><stop offset="1" stop-color="#9b9b9b"/></linearGradient><linearGradient x1="107.98379" y1="305.03221" x2="141.86455" y2="305.03221" gradientUnits="userSpaceOnUse" id="color-12"><stop offset="0" stop-color="#5c5c5c"/><stop offset="1" stop-color="#9b9b9b"/></linearGradient><linearGradient x1="142.70185" y1="187.58439" x2="301.55781" y2="257.11276" gradientUnits="userSpaceOnUse" id="color-13"><stop offset="0" stop-color="#6c6c6c"/><stop offset="1" stop-color="#c4c4c4"/></linearGradient><linearGradient x1="208.61744" y1="179.763" x2="271.1008" y2="207.11082" gradientUnits="userSpaceOnUse" id="color-14"><stop offset="0" stop-color="#6e6e6e"/><stop offset="1" stop-color="#c0c0c0"/></linearGradient><linearGradient x1="273.09062" y1="115.23773" x2="243.1934" y2="183.54583" gradientUnits="userSpaceOnUse" id="color-15"><stop offset="0" stop-color="#a6a6a6"/><stop offset="1" stop-color="#707070"/></linearGradient><linearGradient x1="233.57276" y1="85.93465" x2="221.0542" y2="170.63884" gradientUnits="userSpaceOnUse" id="color-16"><stop offset="0" stop-color="#a6a6a6"/><stop offset="1" stop-color="#707070"/></linearGradient><linearGradient x1="320.41731" y1="125.25758" x2="266.0203" y2="193.43999" gradientUnits="userSpaceOnUse" id="color-17"><stop offset="0" stop-color="#a6a6a6"/><stop offset="1" stop-color="#707070"/></linearGradient><linearGradient x1="250.41102" y1="167.776" x2="241.83582" y2="187.36833" gradientUnits="userSpaceOnUse" id="color-18"><stop offset="0" stop-color="#a6a6a6"/><stop offset="1" stop-color="#707070"/></linearGradient><linearGradient x1="241.7039" y1="184.78664" x2="233.34851" y2="203.87673" gradientUnits="userSpaceOnUse" id="color-19"><stop offset="0" stop-color="#707070"/><stop offset="1" stop-color="#a6a6a6"/></linearGradient><linearGradient x1="278.03263" y1="104.66714" x2="262.50465" y2="140.1449" gradientUnits="userSpaceOnUse" id="color-20"><stop offset="0" stop-color="#a6a6a6"/><stop offset="1" stop-color="#707070"/></linearGradient></defs><g transform="translate(143.2274,-63.72604)"><g data-paper-data="{&quot;isPaintingLayer&quot;:true}" fill-rule="nonzero" stroke-linejoin="miter" stroke-miterlimit="10" stroke-dasharray="" stroke-dashoffset="0" style="mix-blend-mode: normal"><g data-paper-data="{&quot;index&quot;:null}" stroke-linecap="butt"><path d="M492.51785,381.53088c8.41109,4.09711 11.90829,14.23701 7.81115,22.64813c-4.09714,8.41115 -14.23706,11.90831 -22.64816,7.81118c-8.41109,-4.09711 -11.90828,-14.23708 -7.81117,-22.64819c4.09714,-8.41111 14.23706,-11.90827 22.64819,-7.81113z" data-paper-data="{&quot;index&quot;:null}" fill="url(#color-1)" stroke="none" stroke-width="0"/><g data-paper-data="{&quot;index&quot;:null}"><path d="M558.26507,544.41259c0,0 -42.25805,-33.81708 -58.69859,-53.08526c-15.51679,-18.18554 -35.75197,-60.75197 -35.75197,-60.75197l55.36177,-45.07972c0,0 40.41786,28.51854 56.19947,47.0145c16.2173,19.00654 42.99636,62.95864 42.99636,62.95864z" fill="#696969" stroke="#000000" stroke-width="2"/><path d="M576.73647,528.48612l-95.31117,-111.70397l21.09024,-17.17326l95.31122,111.70403z" fill="url(#color-2)" stroke="none" stroke-width="0"/><path d="M572.78645,534.53284c-3.32607,0.97456 -4.57974,-2.41156 -4.57974,-2.41156l-2.17761,-6.04624c-0.06112,-7.84475 2.40636,-14.34664 3.47401,-21.94062c0.61665,-4.38623 -0.23014,-8.88903 0.11744,-13.28256c0.31145,-3.93624 2.25991,-7.91532 1.09164,-12.05338c-2.73002,-9.67016 -14.2336,-17.62584 -23.4166,-16.87186c-5.90974,0.10174 -11.62502,-0.5924 -17.52294,-0.87983c-5.288,-0.25775 -10.71743,1.80237 -15.93925,-0.99776c-5.16349,-2.76872 -8.4109,-11.00977 -10.09408,-15.82172c-4.58913,-13.11906 -0.85937,-27.01209 -5.10189,-40.20029c0,0 -1.0648,-3.43554 2.3265,-4.2185c3.39123,-0.78287 4.45609,2.65266 4.45609,2.65266c3.96837,13.18102 0.57941,27.11812 5.05569,40.05637c0.79774,2.3059 3.41757,9.84697 6.4453,11.44905c1.88723,0.99865 7.10332,0.22421 8.28375,0.16692c7.00874,-0.34017 14.13218,0.87153 21.20501,0.75268c12.60058,-0.81336 27.34381,9.4887 31.13973,22.53136c1.50698,5.17795 -0.45022,9.67757 -0.84573,14.59415c-0.36161,4.49455 0.47683,9.06693 -0.14876,13.57067c-0.94148,6.77797 -3.38736,12.85824 -3.52995,19.80037l1.83379,4.78921c0,0 1.2536,3.38616 -2.07248,4.36084z" fill="#000000" stroke="none" stroke-width="0.5"/><path d="M558.26507,544.41259c0,0 -42.25805,-33.81708 -58.69859,-53.08526c-15.51679,-18.18554 -35.75197,-60.75197 -35.75197,-60.75197l55.36177,-45.07972c0,0 40.41786,28.51854 56.19947,47.0145c16.2173,19.00654 42.99636,62.95864 42.99636,62.95864z" fill="#0096ff" stroke="#000000" stroke-width="2"/></g><g data-paper-data="{&quot;index&quot;:null}"><path d="M459.3712,428.78881c0,0 -49.08795,-22.79713 -69.63913,-37.60264c-19.39644,-13.97363 -49.17415,-50.50653 -49.17415,-50.50653l43.05268,-56.95238c0,0 46.04048,18.08825 65.76797,32.30042c20.27211,14.60449 56.73547,50.92705 56.73547,50.92705z" fill="#696969" stroke="#000000" stroke-width="2"/><path d="M473.525,408.92633l-119.14185,-85.83247l16.40104,-21.69618l119.14193,85.83252z" fill="url(#color-3)" stroke="none" stroke-width="0"/><path d="M471.12631,415.73907c-2.99889,1.7376 -5.02186,-1.25322 -5.02186,-1.25322l-3.55303,-5.35491c-1.92497,-7.60514 -1.07454,-14.5073 -1.84351,-22.1373c-0.44416,-4.40704 -2.33752,-8.57931 -3.04477,-12.92943c-0.6336,-3.89739 0.31266,-8.22568 -1.80617,-11.96718c-4.95142,-8.74348 -18.01696,-13.73514 -26.75719,-10.8189c-5.71599,1.50427 -11.43238,2.18922 -17.22943,3.31268c-5.19759,1.00722 -9.98133,4.29945 -15.71925,2.82151c-5.6738,-1.46132 -10.78789,-8.69366 -13.56715,-12.96725c-7.57743,-11.6513 -7.25868,-26.03272 -14.51586,-37.83362c0,0 -1.85129,-3.08376 1.25651,-4.65075c3.10773,-1.56691 4.95909,1.5168 4.95909,1.5168c6.98923,11.85908 7.01198,26.20231 14.43678,37.7048c1.32326,2.05001 5.66131,8.75169 8.98318,9.58775c2.0706,0.52118 6.95284,-1.47152 8.08578,-1.80789c6.72677,-1.99721 13.93402,-2.51434 20.77565,-4.31183c12.04566,-3.78668 28.8159,2.7136 35.60469,14.47933c2.69516,4.67101 1.8642,9.50699 2.64928,14.37657c0.71762,4.45159 2.61942,8.69341 3.08285,13.2167c0.69747,6.80743 -0.23224,13.29488 1.28021,20.07177l2.92014,4.21569c0,0 2.02293,2.99088 -0.97595,4.72859z" fill="#000000" stroke="none" stroke-width="0.5"/><path d="M459.3712,428.78881c0,0 -49.08795,-22.79713 -69.63913,-37.60264c-19.39644,-13.97363 -49.17415,-50.50653 -49.17415,-50.50653l43.05268,-56.95238c0,0 46.04048,18.08825 65.76797,32.30042c20.27211,14.60449 56.73547,50.92705 56.73547,50.92705z" fill="#0096ff" stroke="#000000" stroke-width="2"/></g></g><g stroke-linecap="butt"><path d="M-16.06532,379.53388c8.41113,-4.09713 18.55105,-0.59998 22.64819,7.81113c4.09711,8.4111 0.59992,18.55107 -7.81117,22.64818c-8.4111,4.09713 -18.55102,0.59997 -22.64816,-7.81118c-4.09713,-8.41113 -0.59994,-18.55102 7.81115,-22.64813z" data-paper-data="{&quot;index&quot;:null}" fill="url(#color-4)" stroke="none" stroke-width="0"/><g data-paper-data="{&quot;index&quot;:null}"><path d="M-141.91955,493.47178c0,0 26.77906,-43.9521 42.99636,-62.95864c15.7816,-18.49596 56.19947,-47.01449 56.19947,-47.01449l55.36177,45.07972c0,0 -20.23519,42.56643 -35.75197,60.75197c-16.44055,19.26818 -58.69859,53.08526 -58.69859,53.08526z" fill="#696969" stroke="#000000" stroke-width="2"/><path d="M-121.37421,509.31592l95.31122,-111.70403l21.09023,17.17326l-95.31118,111.70397z" fill="url(#color-5)" stroke="none" stroke-width="0"/><path d="M-96.33383,532.5358c-3.32609,-0.97468 -2.07248,-4.36084 -2.07248,-4.36084l1.83379,-4.7892c-0.14259,-6.94213 -2.58847,-13.0224 -3.52995,-19.80037c-0.62559,-4.50374 0.21285,-9.07612 -0.14876,-13.57067c-0.39551,-4.91658 -2.35271,-9.41619 -0.84573,-14.59414c3.79592,-13.04266 18.53914,-23.34472 31.13972,-22.53136c7.07283,0.11885 14.19628,-1.09286 21.20501,-0.75269c1.18043,0.05729 6.39652,0.83174 8.28375,-0.16692c3.02773,-1.60209 5.64756,-9.14315 6.4453,-11.44905c4.47628,-12.93825 1.08732,-26.87535 5.05569,-40.05636c0,0 1.06486,-3.43553 4.45609,-2.65266c3.3913,0.78295 2.3265,4.2185 2.3265,4.2185c-4.24252,13.1882 -0.51276,27.08124 -5.10189,40.20029c-1.68318,4.81195 -4.93058,13.053 -10.09407,15.82172c-5.22182,2.80012 -10.65125,0.74 -15.93925,0.99776c-5.89792,0.28743 -11.6132,0.98157 -17.52294,0.87984c-9.183,-0.75397 -20.68658,7.2017 -23.4166,16.87186c-1.16827,4.13805 0.78019,8.11714 1.09165,12.05337c0.34759,4.39353 -0.49921,8.89634 0.11744,13.28257c1.06765,7.59397 3.53513,14.09587 3.47401,21.94062l-2.17761,6.04624c0,0 -1.25367,3.38613 -4.57974,2.41156z" fill="#000000" stroke="none" stroke-width="0.5"/><path d="M-141.91955,493.47178c0,0 26.77906,-43.9521 42.99636,-62.95864c15.7816,-18.49596 56.19947,-47.01449 56.19947,-47.01449l55.36177,45.07972c0,0 -20.23519,42.56643 -35.75197,60.75197c-16.44055,19.26818 -58.69859,53.08526 -58.69859,53.08526z" fill="#0096ff" stroke="#000000" stroke-width="2"/></g><g data-paper-data="{&quot;index&quot;:null}"><path d="M-29.66149,364.95771c0,0 36.46335,-36.32255 56.73546,-50.92705c19.72749,-14.21217 65.76797,-32.30042 65.76797,-32.30042l43.05268,56.95238c0,0 -29.7777,36.53291 -49.17414,50.50653c-20.55118,14.80551 -69.63913,37.60265 -69.63913,37.60265z" fill="#696969" stroke="#000000" stroke-width="2"/><path d="M-13.47358,385.23321l119.14193,-85.83252l16.40104,21.69618l-119.14185,85.83247z" fill="url(#color-6)" stroke="none" stroke-width="0"/><path d="M5.32625,413.74197c-2.99888,-1.73771 -0.97595,-4.72859 -0.97595,-4.72859l2.92013,-4.21569c1.51245,-6.77689 0.58274,-13.26434 1.28021,-20.07177c0.46343,-4.52329 2.36523,-8.76511 3.08285,-13.2167c0.78508,-4.86957 -0.04587,-9.70556 2.64928,-14.37657c6.78879,-11.76574 23.55903,-18.26602 35.60469,-14.47934c6.84164,1.79749 14.04888,2.31461 20.77565,4.31183c1.13295,0.33637 6.01519,2.32907 8.08579,1.80789c3.32187,-0.83607 7.65991,-7.53775 8.98318,-9.58776c7.4248,-11.5025 7.44755,-25.84571 14.43677,-37.7048c0,0 1.85136,-3.08372 4.95909,-1.5168c3.10781,1.56699 1.25652,4.65074 1.25652,4.65074c-7.25718,11.80091 -6.93844,26.18232 -14.51586,37.83362c-2.77926,4.27359 -7.89335,11.50594 -13.56714,12.96726c-5.73792,1.47795 -10.52166,-1.81429 -15.71925,-2.82151c-5.79705,-1.12346 -11.51344,-1.80841 -17.22943,-3.31268c-8.74023,-2.91624 -21.80577,2.07542 -26.75719,10.8189c-2.11884,3.74149 -1.17258,8.06979 -1.80618,11.96718c-0.70724,4.35012 -2.6006,8.52238 -3.04477,12.92943c-0.76897,7.63001 0.08146,14.53217 -1.84351,22.13731l-3.55303,5.3549c0,0 -2.02296,2.99083 -5.02185,1.25323z" fill="#000000" stroke="none" stroke-width="0.5"/><path d="M-29.66149,364.95771c0,0 36.46335,-36.32255 56.73546,-50.92705c19.72749,-14.21217 65.76797,-32.30042 65.76797,-32.30042l43.05268,56.95238c0,0 -29.7777,36.53291 -49.17414,50.50653c-20.55118,14.80551 -69.63913,37.60265 -69.63913,37.60265z" fill="#0096ff" stroke="#000000" stroke-width="2"/></g></g><path d="M238.30645,248.31851c54.9067,1.18887 174.24423,81.70998 174.24423,182.50435c0,32.86278 -8.29258,63.69688 -22.80583,90.33177c-30.00055,55.05785 -271.44931,55.98709 -301.73033,2.0723c-15.22208,-27.10261 -23.95232,-58.68549 -23.95232,-92.40407c0,-100.79437 109.40577,-183.90828 174.24426,-182.50434z" fill="#696969" stroke="#000000" stroke-width="2" stroke-linecap="butt"/><path d="M121.31819,312.8382v-16.18452h228.71946v16.18452z" fill="url(#color-7)" stroke="none" stroke-width="0" stroke-linecap="butt"/><path d="M227.09427,379.54314l69.11408,-76.88743l13.06753,7.76211l-69.11408,76.88743z" fill="url(#color-8)" stroke="none" stroke-width="0" stroke-linecap="butt"/><path d="M232.24106,388.5583l-69.11408,-76.88743l13.06753,-7.76211l69.11412,76.88748z" data-paper-data="{&quot;index&quot;:null}" fill="url(#color-9)" stroke="none" stroke-width="0" stroke-linecap="butt"/><path d="M226.18246,561.31921v-190.21402h19.26726v190.21402z" fill="url(#color-10)" stroke="none" stroke-width="0" stroke-linecap="butt"/><path d="M261.68591,374.23404c0.79462,-2.83524 4.81356,-2.27469 4.81356,-2.27469l3.13857,0.50799c1.53195,0.48404 3.06377,0.96805 4.59573,1.45211c7.91482,4.49753 15.56369,10.4473 22.59883,16.19877c2.88036,-1.00851 5.42508,-2.52103 7.42753,-4.71977c4.68197,-5.14116 -0.38492,-10.80069 -1.48241,-15.97154c-1.33701,-6.29945 1.1228,-12.7938 0.0007,-19.1204c-1.63477,-9.21714 -11.56012,-18.74199 -19.84151,-25.64596c-7.90516,-6.6997 -22.73191,-7.77775 -29.00446,-15.03329c-5.28777,-6.11641 -2.06284,-13.66526 -5.48057,-19.99266c-0.53858,2.72361 -1.80323,5.32969 -4.04803,7.74632c-5.5386,5.96264 -17.21945,11.80486 -25.65811,15.43432c-5.47964,2.35676 -15.62226,4.26594 -19.89563,7.79059c-3.28739,2.71135 -3.9565,6.56763 -6.01919,9.82522c-8.10371,12.79805 -21.31405,27.40937 -1.07871,37.54736c4.54753,2.27834 8.46379,3.68739 14.07707,3.6072h1.8283c0,0 4.09682,0 4.09682,2.89008c0,2.89008 -4.09682,2.89009 -4.09682,2.89009h-1.8283c-14.7404,-0.15092 -35.63686,-10.71332 -34.2421,-22.62514c1.04942,-8.96253 8.64367,-18.58271 13.76257,-26.66705c0.59236,-0.93558 6.8066,-10.84219 7.34779,-11.28512c5.01582,-4.10504 15.3785,-6.16382 21.78836,-8.91087c7.50333,-3.21569 18.1753,-8.48381 23.15708,-13.76206c4.78,-5.06457 3.42895,-12.01701 0.33168,-18.97573c-5.42752,-6.07108 -12.03806,-11.62258 -19.92372,-15.61855c0,0 -3.31699,-1.69625 -0.91247,-4.03616c2.40442,-2.33996 5.72141,-0.64374 5.72141,-0.64374c2.07339,1.06889 4.0787,2.23291 6.01277,3.47743c-0.32832,-0.6425 -0.62947,-1.26348 -0.89681,-1.85996c0,0 -1.2349,-2.75571 2.67133,-3.62684c3.90625,-0.87117 5.14113,1.88452 5.14113,1.88452c2.28322,5.09491 5.9929,10.97048 8.86253,16.98576c4.48511,4.89826 8.21776,10.12642 11.11208,15.26506c3.52991,6.26719 0.44536,13.81105 5.2601,19.76323c2.86946,3.54734 10.80677,4.405 15.37544,6.26052c4.92552,2.00045 9.11654,4.89224 12.80311,7.94381c9.34406,7.84601 19.82206,18.2305 21.70191,28.62488c1.14515,6.33218 -1.36123,12.85403 0.00063,19.12779c1.50619,6.93868 6.53616,12.83196 0.34593,19.72679c-2.48991,2.77338 -5.55502,4.76921 -8.99728,6.17293c0.13085,0.10822 0.2614,0.21619 0.39161,0.32392c5.03879,4.16652 8.20927,8.58346 15.01251,11.51979c21.18527,9.1437 24.5886,-14.84424 21.81225,-23.82544c-12.02599,-23.38599 -27.58955,-47.97592 -8.80025,-72.30508c2.68867,-3.48142 6.47186,-6.19526 10.43602,-8.82344c0.23038,1.44208 1.96508,2.56281 4.07083,2.56281c0.24339,0 0.48185,-0.01497 0.71354,-0.04367c0.33406,0.46483 0.84084,0.85731 1.46088,1.13549c-3.65466,2.37826 -7.13706,4.85231 -9.48915,7.93781c-17.46485,22.91109 -1.69082,46.04076 9.4823,67.93829c1.774,5.80161 3.47376,12.73496 0.87714,18.57648c-4.95448,11.1457 -19.62711,18.15244 -34.82693,11.78295c-7.706,-3.22921 -11.37354,-8.05184 -16.98218,-12.70403c-0.73981,-0.61369 -1.49,-1.23855 -2.24976,-1.87138c-9.20486,1.5061 -19.71036,0.45575 -28.88869,-0.6894c-1.735,-0.32896 -3.46995,-0.65798 -5.20495,-0.98695l0.15234,0.09965c0,0 -4.0968,0 -4.0968,-2.89013c0,-2.89008 4.0968,-2.89008 4.0968,-2.89008l1.98051,0.09961c1.61676,0.30847 3.23362,0.61698 4.85041,0.92546c6.35032,0.78413 14.01149,1.79335 21.03475,1.31126c-5.7334,-4.66271 -11.85756,-9.33447 -18.11199,-12.91424c-1.21056,-0.3659 -2.421,-0.73183 -3.63142,-1.09773l-1.432,-0.12952c0,0 -4.01897,-0.56056 -3.22446,-3.39573z" fill="#000000" stroke="none" stroke-width="0.5" stroke-linecap="butt"/><path d="M223.61975,387.06498c2.26193,2.59093 -2.31469,3.87145 -2.31469,3.87145l-3.22955,0.73937c-8.19854,4.5125 -13.03184,10.62178 -18.98781,16.17697c-21.75579,20.07577 -70.88323,17.65096 -89.40208,-3.22484c-10.40164,-11.72549 -0.20436,-29.87332 11.63257,-39.81821c17.65084,-16.89374 19.42812,-31.27842 10.77751,-49.97962c-2.20051,-4.7572 -6.90522,-12.07523 -14.89304,-15.59619c1.33324,-0.55213 1.91859,-1.38052 1.91859,-1.38052c0.82625,-1.21343 1.86797,-2.40289 3.16418,-3.48473c7.78168,3.19912 12.93401,8.56474 16.63182,13.85593c14.63081,20.9351 10.99871,40.47917 -8.96592,59.67136c-10.21444,8.56639 -17.00506,21.28866 -13.03631,31.85401c1.10673,2.94629 5.33486,5.28213 8.89133,7.25806c6.308,3.50453 12.93286,7.98875 22.10934,9.12799c18.12889,2.25072 33.5548,-2.8882 42.44381,-11.28226c6.47523,-6.03927 11.73377,-12.29309 20.53817,-17.28857l5.88348,-1.81044c0,0 4.57661,-1.28056 6.83859,1.31038z" fill="#000000" stroke="none" stroke-width="0.5" stroke-linecap="butt"/><path d="M240.00276,375.58537c2.89009,0 2.89009,3.97455 2.89009,3.97455l-0.1515,3.02337c-2.11118,8.58202 -2.88359,17.96107 -5.59804,26.26359c-1.49084,4.55986 -5.94386,10.79426 -5.5415,16.48896c0.414,5.86029 4.68499,11.09719 7.32528,15.12486c5.95644,9.08631 13.1766,16.13096 19.31104,25.0658c1.21743,4.23819 3.01157,8.48996 2.34697,13.33374c-2.39488,17.45501 -21.11085,27.35197 -30.86944,35.83364c-2.84298,2.47097 -6.87084,3.08805 -8.73949,6.9336c-0.55454,1.14116 0.32742,2.71225 0.58559,4.03809c1.35143,6.94089 2.88841,12.32687 5.81515,18.28496c2.87977,5.86247 5.41679,9.45607 9.70204,13.32386c0,0 2.41323,2.18701 0.82293,5.50578c-1.59031,3.31877 -4.00351,1.13168 -4.00351,1.13168c-4.89091,-4.44866 -8.0263,-8.8127 -11.31248,-15.51439c-2.9427,-6.00117 -9.90483,-22.37093 -6.76331,-30.36945c0.49974,-1.27231 9.42549,-8.85464 10.80509,-10.05369c9.32464,-8.10448 31.96226,-19.26031 26.73885,-38.16958c-8.4576,-11.84536 -26.3401,-25.53297 -27.53346,-43.96999c-0.49842,-7.70047 3.97344,-13.97256 6.06628,-20.33136c2.63048,-7.99247 3.33842,-17.17083 5.36491,-25.46014l-0.15151,-0.48339c0,0 0,-3.97453 2.89009,-3.97453z" fill="#000000" stroke="none" stroke-width="0.5" stroke-linecap="butt"/><g><path d="M191.32839,414.2879v-78.61044h81.88587v78.61044z" fill="#323232" stroke="none" stroke-width="0" stroke-linecap="butt"/><g stroke="#000000"><path d="M231.96429,341.2298c17.49382,0 31.67538,14.18157 31.67538,31.67541c0,17.49382 -14.18159,31.67538 -31.67538,31.67538c-17.49382,0 -31.67538,-14.18159 -31.67538,-31.67538c0,-17.49382 14.18159,-31.67541 31.67538,-31.67541z" fill="#878787" stroke-width="1" stroke-linecap="butt"/><path d="M207.74613,353.69432l48.88382,-0.33032" fill="none" stroke-width="1.5" stroke-linecap="round"/><path d="M203.78261,361.95174l57.14119,0.33029" fill="none" stroke-width="1.5" stroke-linecap="round"/><path d="M261.91466,370.20895l-61.10477,-1.32121" fill="none" stroke-width="1.5" stroke-linecap="round"/><path d="M263.04317,376.64963l-62.09563,-0.66058" fill="none" stroke-width="1.5" stroke-linecap="round"/><path d="M246.7973,346.10007l-28.45628,-0.35572" fill="none" stroke-width="1.5" stroke-linecap="round"/><path d="M256.24459,392.64641l-48.88378,-0.33031" data-paper-data="{&quot;index&quot;:null}" fill="none" stroke-width="1.5" stroke-linecap="round"/><path d="M260.53843,383.72841l-57.14118,0.33029" data-paper-data="{&quot;index&quot;:null}" fill="none" stroke-width="1.5" stroke-linecap="round"/><path d="M217.95566,400.26606l28.45628,-0.35567" data-paper-data="{&quot;index&quot;:null}" fill="none" stroke-width="1.5" stroke-linecap="round"/></g></g><path d="M366.51843,305.03221c0,9.35598 -7.58446,16.94041 -16.94036,16.94041c-9.3559,0 -16.94041,-7.58451 -16.94041,-16.94041c0,-9.35593 7.58446,-16.94036 16.94041,-16.94036c9.3559,0 16.94036,7.58444 16.94036,16.94036z" fill="url(#color-11)" stroke="none" stroke-width="0" stroke-linecap="butt"/><path d="M141.86455,305.03221c0,9.35598 -7.58449,16.94041 -16.94036,16.94041c-9.3559,0 -16.94041,-7.58451 -16.94041,-16.94041c0,-9.35593 7.58449,-16.94036 16.94041,-16.94036c9.3559,0 16.94036,7.58444 16.94036,16.94036z" fill="url(#color-12)" stroke="none" stroke-width="0" stroke-linecap="butt"/><path d="M241.74502,247.17233c0.13421,0.00173 0.89052,41.08195 1.72446,93.55777c-3.61299,-1.2895 -7.50491,-1.99177 -11.56088,-1.99177c-18.99072,0 -34.3858,15.39507 -34.3858,34.3858c0,18.99074 15.39508,34.3858 34.3858,34.3858c4.42262,0 8.65024,-0.83495 12.5338,-2.35581c1.12143,78.49197 1.98839,156.77593 1.16743,156.72763c-68.83108,-4.05018 -138.77937,-12.42184 -154.15673,-39.80101c-15.22208,-27.10261 -23.95232,-58.68549 -23.95232,-92.40406c0,-100.79438 109.40578,-183.90829 174.24426,-182.50435z" fill="#0096ff" stroke="#000000" stroke-width="2" stroke-linecap="butt"/><path d="M408.14021,430.82286c0,33.71862 -8.73024,65.30145 -23.95232,92.40407c-15.37736,27.37915 -85.32561,35.75081 -154.15673,39.80097c-0.81677,0.04804 0.03721,-77.43839 1.15026,-155.52552c0.24177,0.00501 0.48419,0.00753 0.7272,0.00753c18.99074,0 34.3858,-15.39508 34.3858,-34.3858c0,-18.88637 -15.22628,-34.21643 -34.07296,-34.38438c0.81398,-50.967 1.54299,-90.41952 1.67448,-90.42121c64.83852,-1.40395 174.2443,81.70998 174.2443,182.50435z" data-paper-data="{&quot;index&quot;:null}" fill="#0096ff" stroke="#000000" stroke-width="2" stroke-linecap="butt"/><path d="M254.5185,146.20753c50.59311,22.14369 76.66511,74.23341 58.23336,116.34562c-18.43174,42.11221 -74.38746,58.29989 -124.98061,36.15618c-50.59315,-22.14371 -76.66512,-74.2334 -58.23337,-116.34561c18.43174,-42.11221 74.38747,-58.29989 124.98063,-36.15619z" fill="#696969" stroke="#000000" stroke-width="2" stroke-linecap="butt"/><path d="M250.09579,158.45303c43.86689,19.19974 66.90729,63.37119 51.46217,98.65963c-15.44511,35.28847 -63.52701,48.33096 -107.3939,29.13121c-43.86689,-19.19974 -66.90725,-63.37119 -51.46214,-98.65962c15.44512,-35.28848 63.52697,-48.33097 107.39386,-29.13124z" fill="none" stroke="url(#color-13)" stroke-width="4.5" stroke-linecap="butt"/><g stroke="none" stroke-width="0" stroke-linecap="butt"><path d="M194.24825,212.59322l28.73841,-65.66049l62.48337,27.34784l-28.73841,65.66049z" fill="url(#color-14)"/><path d="M265.90698,191.58724l8.3434,-19.0627l7.41325,3.24464l-8.3434,19.0627z" fill="#ffffff"/><path d="M256.4047,213.29774l8.3434,-19.0627l7.41325,3.24464l-8.3434,19.0627z" fill="#ffffff"/><path d="M247.13424,234.47857l8.3434,-19.0627l7.41325,3.24464l-8.3434,19.0627z" fill="#ffffff"/><path d="M216.89338,169.50387l8.3434,-19.0627l7.41329,3.24466l-8.3434,19.0627z" fill="#ffffff"/><path d="M207.39107,191.21443l8.3434,-19.0627l7.41329,3.24466l-8.3434,19.0627z" fill="#ffffff"/><path d="M198.12062,212.39522l8.3434,-19.06272l7.41329,3.24466l-8.3434,19.06272z" fill="#ffffff"/><path d="M227.76486,225.87473l2.78115,-6.35425l14.29703,6.25755l-2.78115,6.35425z" fill="#ffffff"/><path d="M211.32548,218.55332l2.78115,-6.35425l14.29705,6.25756l-2.78115,6.35425z" fill="#ffffff"/></g><path d="M130.13328,183.88649c18.43174,-42.11221 74.38746,-58.29987 124.98061,-36.15616c26.43722,11.57109 -74.51824,-17.48945 -107.0198,53.52355c-28.45292,59.51648 50.2208,78.85678 44.18243,79.14113c4.80766,7.00104 -0.65644,19.57857 -7.17502,16.72551c-50.59315,-22.14371 -73.39996,-71.12172 -54.96821,-113.23394z" fill="#0096ff" stroke="#000000" stroke-width="2" stroke-linecap="butt"/><path d="M315.63677,264.2367c-18.43174,42.11221 -69.8863,58.58742 -120.4794,36.44375c-6.51857,-2.85306 -0.98592,-15.40057 7.41912,-16.61863c5.41388,4.13428 65.91397,30.69366 88.11596,-21.23657c30.1174,-72.05645 -59.72623,-126.5052 -33.289,-114.93412c50.59314,22.1437 76.66509,74.23338 58.23334,116.34561z" data-paper-data="{&quot;index&quot;:null}" fill="#0096ff" stroke="#000000" stroke-width="2" stroke-linecap="butt"/><path d="M288.09724,80.09493c61.83335,27.06334 97.6745,81.63968 80.05343,121.89969c-17.62107,40.26 -50.80002,65.14498 -143.86498,23.89471c-98.30493,-43.57283 -97.67446,-81.63967 -80.05337,-121.89971c17.62107,-40.26 82.03158,-50.95803 143.86493,-23.89469z" fill="#696969" stroke="#000000" stroke-width="2" stroke-linecap="butt"/><path d="M215.65837,171.49425l29.89721,-68.3081l55.07009,24.10318l-29.89721,68.3081z" fill="url(#color-15)" stroke="none" stroke-width="0" stroke-linecap="butt"/><path d="M213.99644,169.27193l12.51855,-84.70418l14.11543,2.73396l-12.51856,84.70421z" fill="url(#color-16)" stroke="none" stroke-width="0" stroke-linecap="butt"/><path d="M260.24038,189.1536l54.39713,-68.18241l11.55991,8.57275l-54.39719,68.18244z" data-paper-data="{&quot;index&quot;:null}" fill="url(#color-17)" stroke="none" stroke-width="0" stroke-linecap="butt"/><path d="M198.67995,168.47979l8.57517,-19.59224l86.31177,37.77709l-8.57517,19.59224z" fill="url(#color-18)" stroke="none" stroke-width="0" stroke-linecap="butt"/><path d="M183.41654,167.92156c-2.87904,-0.25207 -2.62698,-3.13119 -2.62698,-3.13119l0.1308,-1.01847c-0.25602,-3.10973 0.02139,-7.1696 -1.06963,-10.1669c-0.4213,-1.15731 -2.85293,-3.81518 -3.26532,-4.57878c-5.6688,-10.49671 -14.4126,-28.75396 -0.94989,-36.77383c3.92305,0.38509 15.18769,3.88689 18.33087,-0.6368c4.46212,-6.42192 1.99386,-14.29216 8.48874,-20.23584c7.52244,-6.88409 19.68877,-6.95973 29.37228,-7.94799c0,0 2.87519,-0.29323 3.16839,2.58198c0.2932,2.87519 -2.58195,3.16837 -2.58195,3.16837c-8.15951,0.83138 -19.66783,0.60272 -26.01966,6.42784c-7.89393,7.2393 -2.31821,21.41066 -15.80059,23.71584c-1.42624,0.24384 -2.89814,0.09549 -4.34069,-0.01651c-2.13208,-0.1655 -7.05783,-1.01364 -9.41868,-1.40235c-3.21756,2.02934 -2.52049,7.78394 -2.12099,11.09088c1.05243,8.71107 7.62591,14.70625 10.51458,22.48657c1.34506,3.6229 1.14024,8.01759 1.45319,11.81292l-0.1333,1.99729c0,0 -0.25213,2.87906 -3.13119,2.62698z" fill="#000000" stroke="none" stroke-width="0.5" stroke-linecap="butt"/><path d="M160.10658,167.82411c-2.6134,-1.23404 -1.37935,-3.84738 -1.37935,-3.84738l0.47558,-0.91009c0.83732,-3.0058 2.5043,-6.71807 2.5193,-9.90768c0.00579,-1.23159 -1.35428,-4.56734 -1.47652,-5.42658c-1.68069,-11.81064 -3.55695,-31.96654 11.85062,-34.82496c3.54665,1.7205 12.9001,8.9085 17.41597,5.75407c6.41084,-4.47804 6.82243,-12.71593 14.97437,-16.04109c9.44173,-3.85121 20.88063,0.29324 30.30673,2.72149c0,0 2.79871,0.72114 2.0775,3.51981c-0.72118,2.79869 -3.51983,2.07744 -3.51983,2.07744c-7.94212,-2.04727 -18.65834,-6.24924 -26.63502,-2.98581c-9.91323,4.05574 -9.59314,19.28114 -23.03903,16.77206c-1.4224,-0.26546 -2.75169,-0.91459 -4.06604,-1.51949c-1.94264,-0.89401 -6.26937,-3.3963 -8.34932,-4.57891c-3.72136,0.78883 -5.06146,6.4284 -5.83249,9.66894c-2.03103,8.53612 2.05799,16.43756 2.07195,24.73681c0.00652,3.86451 -1.70836,7.91596 -2.72984,11.58464l-0.81707,1.82742c0,0 -1.234,2.61334 -3.84743,1.37928z" fill="#000000" stroke="none" stroke-width="0.5" stroke-linecap="butt"/><path d="M292.0101,208.92966l1.37691,-1.45303c3.00052,-2.34508 6.09003,-5.47722 9.66411,-6.94708c7.67553,-3.15654 16.53962,-2.39497 23.65311,-7.53198c2.70043,-1.95009 7.40085,-5.34239 6.70871,-9.08291c-1.88729,-1.47062 -5.85232,-4.5138 -7.42046,-5.96782c-1.06101,-0.98375 -2.16861,-1.96442 -2.9571,-3.17759c-7.45384,-11.46856 6.73982,-16.98724 6.70229,-27.69795c-0.03018,-8.61836 -8.00612,-16.91771 -12.93127,-23.47598c0,0 -1.73533,-2.31111 0.57578,-4.04644c2.31115,-1.73532 4.04646,0.57582 4.04646,0.57582c5.84391,7.78428 14.04276,16.77343 14.08922,26.9703c0.04011,8.80389 -7.41624,12.33038 -9.10662,19.96545c-1.1907,5.37825 9.02446,11.27772 11.969,13.89846c3.24234,15.33137 -16.10239,21.29483 -27.6597,24.25191c-0.84077,0.21515 -4.44313,0.23202 -5.57912,0.70773c-2.94213,1.23206 -5.73645,4.19033 -8.19462,6.1121l-0.65948,0.78709c0,0 -1.94402,2.13858 -4.08257,0.19454c-2.13855,-1.94404 -0.19453,-4.0826 -0.19453,-4.0826z" data-paper-data="{&quot;index&quot;:null}" fill="#000000" stroke="none" stroke-width="0.5" stroke-linecap="butt"/><path d="M306.49412,226.30816l0.78814,-1.84008c2.00211,-3.23947 3.81502,-7.24806 6.65839,-9.86517c6.10634,-5.62049 14.68525,-7.9774 19.5782,-15.26093c1.85748,-2.76502 5.09134,-7.57578 3.14599,-10.84479c-2.27996,-0.72558 -7.05373,-2.20647 -9.02856,-3.027c-1.33614,-0.55518 -2.7149,-1.0913 -3.87492,-1.9561c-10.96581,-8.1755 0.43649,-18.27025 -3.30985,-28.30449c-3.01441,-8.07409 -13.37196,-13.09567 -20.26437,-17.54119c0,0 -2.42863,-1.56665 -0.86191,-3.99527c1.56672,-2.4286 3.99532,-0.8619 3.99532,-0.8619c8.17908,5.27722 18.98464,10.86875 22.56128,20.4179c3.08803,8.24469 -2.68457,14.13621 -1.62475,21.88399c0.74654,5.45765 12.37307,7.45223 16.04328,8.89043c8.3536,13.25823 -7.72654,25.55499 -17.54337,32.33338c-0.71415,0.49311 -4.0875,1.75718 -4.98835,2.59705c-2.33302,2.17507 -3.92917,5.91832 -5.56926,8.57276l-0.34595,0.9668c0,0 -1.08258,2.67967 -3.76224,1.59705c-2.67967,-1.08264 -1.59705,-3.76223 -1.59705,-3.76223z" data-paper-data="{&quot;index&quot;:null}" fill="#000000" stroke="none" stroke-width="0.5" stroke-linecap="butt"/><path d="M141.47677,163.66615l8.35533,-19.08998l183.74348,80.42118l-8.35533,19.08998c0,0 -40.6409,7.97349 -99.33596,-18.2715c-64.61674,-28.89284 -84.40751,-62.14967 -84.40751,-62.14967z" fill="url(#color-19)" stroke="none" stroke-width="0" stroke-linecap="butt"/><path d="M224.644,123.57398l15.52802,-35.47785l75.72136,33.14187l-15.52802,35.47785z" fill="url(#color-20)" stroke="#000000" stroke-width="0" stroke-linecap="butt"/><path d="M246.88057,87.75431c11.85295,5.18782 17.38352,18.71094 12.35292,30.20466c-5.0306,11.49375 -18.71743,16.60574 -30.57037,11.41791c-11.85295,-5.18782 -17.38353,-18.71089 -12.35291,-30.20465c5.0306,-11.49375 18.71742,-16.60574 30.57036,-11.41792z" fill="#ffffff" stroke="#000000" stroke-width="2" stroke-linecap="butt"/><path d="M283.80218,79.89807c1.26466,0.55352 -17.87065,45.75552 -35.05607,84.55016c-0.45432,-0.7039 -1.20906,-1.09495 -1.20906,-1.09495c-13.22083,-6.77766 -56.72327,-25.33065 -64.88122,-29.18864c-14.48523,-7.36614 -31.3194,-13.55178 -43.38802,-24.63043c1.02841,-2.79536 2.16052,-5.57018 3.36415,-8.32022c16.85866,-38.51808 80.06271,-48.06153 141.17019,-21.31589zM227.53215,130.88862c13.04803,5.71089 28.25509,-0.23703 33.96598,-13.28506c5.71089,-13.04802 -0.23703,-28.25509 -13.28505,-33.96597c-13.04803,-5.71089 -28.2551,0.23703 -33.96598,13.28505c-5.71089,13.04803 0.23703,28.2551 13.28506,33.966z" fill="#0096ff" stroke="#000000" stroke-width="2" stroke-linecap="butt"/><path d="M214.18714,96.89641c5.71089,-13.04803 21.00411,-19.02964 34.05215,-13.31876c13.04803,5.71089 19.02965,21.00411 13.31877,34.05215c-5.71089,13.04803 -21.00411,19.02965 -34.05214,13.31877c-13.04803,-5.71089 -19.02965,-21.00411 -13.31877,-34.05215z" data-paper-data="{&quot;noHover&quot;:false,&quot;origItem&quot;:[&quot;Path&quot;,{&quot;applyMatrix&quot;:true,&quot;segments&quot;:[[[384.72744,349.27406],[-21.77325,0],[21.77325,0]],[[424.15135,309.85014],[0,21.77325],[0,-21.77325]],[[384.72744,270.42623],[21.77325,0],[-21.77325,0]],[[345.30352,309.85014],[0,-21.77325],[0,21.77325]]],&quot;closed&quot;:true,&quot;fillColor&quot;:[0,0,0,1]}]}" fill="#000000" stroke="none" stroke-width="0.5" stroke-linecap="butt"/><path d="M223.64573,219.44488c-89.25238,-32.43104 -96.96836,-70.50108 -85.68753,-105.76006c12.45464,10.53235 28.79888,16.77641 43.22544,24.12117c8.38869,3.96695 52.18466,22.5239 65.18425,29.31789c0,0 0.98243,0.50892 1.97636,0.33089c-12.56592,28.28311 -23.74236,52.3375 -24.69844,51.99013z" fill="#0096ff" stroke="#000000" stroke-width="2" stroke-linecap="butt"/><path d="M308.15818,113.86032c11.85295,5.18782 17.38351,18.71094 12.35291,30.20465c-5.0306,11.49375 -18.71744,16.60573 -30.57036,11.41792c-11.85295,-5.18782 -17.38353,-18.71089 -12.35291,-30.20465c5.0306,-11.49375 18.71742,-16.60574 30.57036,-11.41792z" fill="#ffffff" stroke="#000000" stroke-width="2" stroke-linecap="butt"/><path d="M287.83118,82.59985c61.10748,26.74564 96.97825,79.65232 80.11957,118.17041c-1.20364,2.75004 -2.47403,5.46435 -3.82986,8.11639c-16.3269,-1.34955 -32.29244,-9.51973 -47.53158,-15.16343c-8.36913,-3.37558 -51.51359,-22.7464 -65.46255,-27.86045c0,0 -0.79933,-0.28913 -1.62467,-0.14532c16.84014,-38.9458 37.0644,-83.67114 38.32906,-83.11763zM322.51477,145.24793c5.71086,-13.048 -0.23707,-28.25511 -13.28505,-33.96598c-13.048,-5.71086 -28.25511,0.23707 -33.966,13.28506c-5.71086,13.048 0.23707,28.25511 13.28506,33.966c13.048,5.71086 28.2551,-0.23707 33.96598,-13.28506z" data-paper-data="{&quot;index&quot;:null}" fill="#0096ff" stroke="#000000" stroke-width="2" stroke-linecap="butt"/><path d="M288.52257,158.59292c-13.048,-5.71086 -19.02963,-21.00415 -13.31877,-34.05215c5.71086,-13.048 21.00415,-19.02963 34.05215,-13.31877c13.048,5.71086 19.02963,21.00415 13.31877,34.05215c-5.71086,13.048 -21.00415,19.02963 -34.05214,13.31877z" data-paper-data="{&quot;noHover&quot;:false,&quot;origItem&quot;:[&quot;Path&quot;,{&quot;applyMatrix&quot;:true,&quot;segments&quot;:[[[526.54509,311.16443],[0,21.7732],[0,-21.7732]],[[487.12118,271.74051],[21.7732,0],[-21.7732,0]],[[447.69726,311.16443],[0,-21.7732],[0,21.7732]],[[487.12118,350.58835],[-21.7732,0],[21.7732,0]]],&quot;closed&quot;:true,&quot;fillColor&quot;:[0,0,0,1]}]}" fill="#000000" stroke="none" stroke-width="0.5" stroke-linecap="butt"/><path d="M226.12932,221.47029c-0.90385,-0.46667 9.1845,-24.99733 21.43668,-53.41775c0.54356,0.85097 1.58397,1.22739 1.58397,1.22739c13.81085,4.94045 57.15741,24.5242 65.76309,27.99538c15.18362,5.61501 30.85974,13.38572 47.04713,15.38948c-18.24878,32.20922 -51.45131,52.36996 -135.8308,8.80552z" data-paper-data="{&quot;index&quot;:null}" fill="#0096ff" stroke="#000000" stroke-width="2" stroke-linecap="butt"/><path d="M304.59016,137.99931c-1.44858,3.30968 -5.17174,4.8771 -8.31594,3.50095c-3.1442,-1.37616 -4.51875,-5.17475 -3.07016,-8.48443c1.44858,-3.30968 5.17174,-4.8771 8.31594,-3.50095c3.1442,1.37616 4.51875,5.17475 3.07016,8.48443z" fill="#000000" stroke="#ff0000" stroke-width="1" stroke-linecap="butt"/><path d="M244.3263,110.90883c-1.44858,3.30968 -5.17174,4.8771 -8.31594,3.50095c-3.1442,-1.37616 -4.51875,-5.17475 -3.07016,-8.48443c1.44858,-3.30968 5.17174,-4.8771 8.31594,-3.50095c3.1442,1.37616 4.51875,5.17475 3.07016,8.48443z" fill="#000000" stroke="#ff0000" stroke-width="1" stroke-linecap="butt"/></g></g></svg>