<svg version="1.1" xmlns="http://www.w3.org/2000/svg" xmlns:xlink="http://www.w3.org/1999/xlink" width="450.23568" height="408.55984" viewBox="0,0,450.23568,408.55984"><defs><linearGradient x1="105.49002" y1="449.55692" x2="85.13635" y2="448.35545" gradientUnits="userSpaceOnUse" id="color-1"><stop offset="0" stop-color="#5c5c5c"/><stop offset="1" stop-color="#9b9b9b"/></linearGradient><linearGradient x1="65.93415" y1="488.46026" x2="54.58686" y2="476.44578" gradientUnits="userSpaceOnUse" id="color-2"><stop offset="0" stop-color="#5c5c5c"/><stop offset="1" stop-color="#9b9b9b"/></linearGradient><linearGradient x1="138.23835" y1="439.70597" x2="131.21141" y2="424.74834" gradientUnits="userSpaceOnUse" id="color-3"><stop offset="0" stop-color="#5c5c5c"/><stop offset="1" stop-color="#9b9b9b"/></linearGradient><linearGradient x1="370.38184" y1="450.61505" x2="390.73548" y2="449.41358" gradientUnits="userSpaceOnUse" id="color-4"><stop offset="0" stop-color="#5c5c5c"/><stop offset="1" stop-color="#9b9b9b"/></linearGradient><linearGradient x1="409.93772" y1="489.5184" x2="421.28499" y2="477.50391" gradientUnits="userSpaceOnUse" id="color-5"><stop offset="0" stop-color="#5c5c5c"/><stop offset="1" stop-color="#9b9b9b"/></linearGradient><linearGradient x1="337.63352" y1="440.7641" x2="344.66046" y2="425.80647" gradientUnits="userSpaceOnUse" id="color-6"><stop offset="0" stop-color="#5c5c5c"/><stop offset="1" stop-color="#9b9b9b"/></linearGradient><linearGradient x1="241.33467" y1="406.61976" x2="241.33467" y2="417.99973" gradientUnits="userSpaceOnUse" id="color-7"><stop offset="0" stop-color="#5c5c5c"/><stop offset="1" stop-color="#9b9b9b"/></linearGradient><linearGradient x1="259.59427" y1="442.27979" x2="268.78261" y2="448.99374" gradientUnits="userSpaceOnUse" id="color-8"><stop offset="0" stop-color="#5c5c5c"/><stop offset="1" stop-color="#9b9b9b"/></linearGradient><linearGradient x1="223.80464" y1="443.36359" x2="214.61632" y2="450.07764" gradientUnits="userSpaceOnUse" id="color-9"><stop offset="0" stop-color="#5c5c5c"/><stop offset="1" stop-color="#9b9b9b"/></linearGradient><linearGradient x1="234.65471" y1="533.81495" x2="248.20228" y2="533.81495" gradientUnits="userSpaceOnUse" id="color-10"><stop offset="0" stop-color="#5c5c5c"/><stop offset="1" stop-color="#9b9b9b"/></linearGradient><linearGradient x1="243.93382" y1="366.95158" x2="243.93382" y2="384.95151" gradientUnits="userSpaceOnUse" id="color-11"><stop offset="0" stop-color="#a6a6a6"/><stop offset="1" stop-color="#707070"/></linearGradient><linearGradient x1="243.41475" y1="362.4414" x2="243.41475" y2="370.56512" gradientUnits="userSpaceOnUse" id="color-12"><stop offset="0" stop-color="#a6a6a6"/><stop offset="1" stop-color="#707070"/></linearGradient><linearGradient x1="288.02265" y1="412.27672" x2="304.91365" y2="412.27672" gradientUnits="userSpaceOnUse" id="color-13"><stop offset="0" stop-color="#5c5c5c"/><stop offset="1" stop-color="#9b9b9b"/></linearGradient><linearGradient x1="187.84922" y1="411.21859" x2="170.95821" y2="411.21859" gradientUnits="userSpaceOnUse" id="color-14"><stop offset="0" stop-color="#5c5c5c"/><stop offset="1" stop-color="#9b9b9b"/></linearGradient><linearGradient x1="222.75865" y1="482.44511" x2="259.58895" y2="482.44511" gradientUnits="userSpaceOnUse" id="color-15"><stop offset="0" stop-color="#004184"/><stop offset="1" stop-color="#0023e3"/></linearGradient><linearGradient x1="230.83198" y1="406.70532" x2="251.69339" y2="406.70532" gradientUnits="userSpaceOnUse" id="color-16"><stop offset="0" stop-color="#004184"/><stop offset="1" stop-color="#0023e3"/></linearGradient><linearGradient x1="260.63161" y1="337.08175" x2="260.40001" y2="375.81488" gradientUnits="userSpaceOnUse" id="color-17"><stop offset="0" stop-color="#a6a6a6"/><stop offset="1" stop-color="#707070"/></linearGradient><linearGradient x1="223.45074" y1="337.54845" x2="223.21915" y2="376.2816" gradientUnits="userSpaceOnUse" id="color-18"><stop offset="0" stop-color="#a6a6a6"/><stop offset="1" stop-color="#707070"/></linearGradient><linearGradient x1="239.41501" y1="301.46026" x2="239.41501" y2="317.47981" gradientUnits="userSpaceOnUse" id="color-19"><stop offset="0" stop-color="#a6a6a6"/><stop offset="1" stop-color="#707070"/></linearGradient><linearGradient x1="242.56242" y1="311.61943" x2="242.56242" y2="342.46304" gradientUnits="userSpaceOnUse" id="color-20"><stop offset="0" stop-color="#a6a6a6"/><stop offset="1" stop-color="#707070"/></linearGradient><linearGradient x1="219.46029" y1="303.57902" x2="228.76524" y2="341.1786" gradientUnits="userSpaceOnUse" id="color-21"><stop offset="0" stop-color="#a6a6a6"/><stop offset="1" stop-color="#707070"/></linearGradient><linearGradient x1="265.89211" y1="304.77453" x2="256.58716" y2="342.37409" gradientUnits="userSpaceOnUse" id="color-22"><stop offset="0" stop-color="#a6a6a6"/><stop offset="1" stop-color="#707070"/></linearGradient><linearGradient x1="242.21525" y1="335.2901" x2="242.21525" y2="344.13671" gradientUnits="userSpaceOnUse" id="color-23"><stop offset="0" stop-color="#a6a6a6"/><stop offset="1" stop-color="#707070"/></linearGradient></defs><g transform="translate(-12.81809,-192.57667)"><g data-paper-data="{&quot;isPaintingLayer&quot;:true}" fill-rule="nonzero" stroke-linejoin="miter" stroke-miterlimit="10" stroke-dasharray="" stroke-dashoffset="0" style="mix-blend-mode: normal"><path d="M85.13635,448.35547c0.33176,-5.62054 5.15707,-9.90789 10.77757,-9.5761c5.62051,0.33179 9.90787,5.15707 9.5761,10.77759c-0.33176,5.62052 -5.15709,9.90788 -10.77761,9.57609c-5.62047,-0.33179 -9.90787,-5.15703 -9.57606,-10.77759z" data-paper-data="{&quot;index&quot;:null}" fill="url(#color-1)" stroke="none" stroke-width="0" stroke-linecap="butt"/><g data-paper-data="{&quot;index&quot;:null}" stroke-linecap="butt"><path d="M14.11974,493.16234c0,0 17.00452,-22.9903 27.00189,-32.48665c9.72878,-9.24123 33.90064,-21.94481 33.90064,-21.94481l29.78666,31.53802c0,0 -13.21859,22.81309 -22.78414,31.89924c-10.13501,9.62708 -35.56528,25.23552 -35.56528,25.23552z" fill="#696969" stroke="#000000" stroke-width="2"/><path d="M25.20885,504.35144l58.75593,-55.81137l11.34731,12.01449l-58.75589,55.81135z" fill="url(#color-2)" stroke="none" stroke-width="0"/><path d="M38.56961,520.2622c-1.85801,-0.88644 -1.00952,-2.73543 -1.00952,-2.73543l1.23471,-2.60927c0.19282,-4.05135 -0.96173,-7.8227 -1.23092,-11.85532c-0.17887,-2.67954 0.47974,-5.25836 0.45102,-7.90718c-0.03137,-2.89754 -0.96965,-5.70263 0.09404,-8.56943c2.67938,-7.22109 11.49255,-11.79642 18.64513,-10.11272c4.02815,0.74867 8.1377,0.72831 12.12058,1.59956c0.67082,0.14674 3.61441,1.09832 4.72991,0.69881c1.78964,-0.64089 3.58118,-4.77517 4.12711,-6.03968c3.06319,-7.095 1.68116,-15.52663 4.46432,-22.81161c0,0 0.74283,-1.89583 2.64554,-1.11467c1.90275,0.7812 1.15997,2.67705 1.15997,2.67705c-2.93977,7.26286 -1.36165,15.70156 -4.49634,22.89088c-1.14974,2.63699 -3.32676,7.11809 -6.38023,8.23232c-3.088,1.12691 -6.10246,-0.59293 -9.12778,-0.95106c-3.37427,-0.39951 -6.66047,-0.54488 -10.02611,-1.17184c-5.20628,-1.32078 -12.0796,2.20108 -14.01806,7.5631c-0.82951,2.29452 0.12438,4.79598 0.14653,7.11527c0.02472,2.58871 -0.6359,5.12629 -0.4575,7.73661c0.30889,4.51934 1.4591,8.53799 1.11451,13.09473l-1.48037,3.30738c0,0 -0.84849,1.84896 -2.70651,0.96258z" fill="#000000" stroke="none" stroke-width="0.5"/><path d="M14.11974,493.16234c0,0 17.00452,-22.9903 27.00189,-32.48665c9.72878,-9.24123 33.90064,-21.94481 33.90064,-21.94481l29.78666,31.53802c0,0 -13.21859,22.81309 -22.78414,31.89924c-10.13501,9.62708 -35.56528,25.23552 -35.56528,25.23552z" fill="#ffe400" stroke="#000000" stroke-width="2"/></g><g data-paper-data="{&quot;index&quot;:null}" stroke-linecap="butt"><path d="M87.54757,427.98897c0,0 23.33462,-16.52887 35.79795,-22.42751c12.12849,-5.74019 39.05885,-10.25832 39.05885,-10.25832l18.44579,39.26377c0,0 -19.68274,17.54303 -31.60771,23.18689c-12.63491,5.97983 -41.66805,12.86448 -41.66805,12.86448z" fill="#696969" stroke="#000000" stroke-width="2"/><path d="M94.58706,442.0819l73.24858,-34.6672l7.02696,14.95765l-73.24855,34.66718z" fill="url(#color-3)" stroke="none" stroke-width="0"/><path d="M102.30979,461.36974c-1.4882,-1.42244 -0.10463,-2.91388 -0.10463,-2.91388l1.98793,-2.09309c1.44856,-3.78843 1.52972,-7.73172 2.53357,-11.64666c0.66701,-2.60138 2.09814,-4.84546 2.89818,-7.37073c0.87522,-2.76238 0.86003,-5.72017 2.76593,-8.11129c4.80078,-6.02294 14.60208,-7.61662 20.87094,-3.78314c3.59278,1.96937 7.5031,3.23361 11.01459,5.30528c0.59143,0.34893 3.09051,2.1723 4.27498,2.14119c1.90027,-0.04984 4.8935,-3.4177 5.80707,-4.44844c5.12599,-5.78328 6.44666,-14.22472 11.36599,-20.27594c0,0 1.2978,-1.56895 2.86136,-0.2326c1.56356,1.33642 0.26578,2.90543 0.26578,2.90543c-5.06119,5.98128 -6.19777,14.49068 -11.42115,20.34126c-1.91585,2.14596 -5.3836,5.7229 -8.63234,5.82766c-3.28547,0.106 -5.61192,-2.46934 -8.37404,-3.7545c-3.08067,-1.43345 -6.15706,-2.59794 -9.15849,-4.24478c-4.53326,-2.88085 -12.16274,-1.68198 -15.679,2.80629c-1.50468,1.92064 -1.37985,4.59489 -2.08321,6.80507c-0.78509,2.46695 -2.20523,4.6712 -2.85107,7.20666c-1.11813,4.38972 -1.28066,8.56657 -3.03127,12.78771l-2.43935,2.67953c0,0 -1.38357,1.49143 -2.87177,0.06905z" fill="#000000" stroke="none" stroke-width="0.5"/><path d="M87.54757,427.98897c0,0 23.33462,-16.52887 35.79795,-22.42751c12.12849,-5.74019 39.05885,-10.25832 39.05885,-10.25832l18.44579,39.26377c0,0 -19.68274,17.54303 -31.60771,23.18689c-12.63491,5.97983 -41.66805,12.86448 -41.66805,12.86448z" fill="#ffe400" stroke="#000000" stroke-width="2"/></g><path d="M390.73548,449.41358c0.33179,5.62056 -3.95558,10.44581 -9.57606,10.7776c-5.62052,0.33179 -10.44583,-3.95559 -10.77762,-9.57609c-0.33177,-5.62052 3.95561,-10.4458 9.57611,-10.77759c5.62052,-0.33179 10.4458,3.95559 10.77757,9.5761z" fill="url(#color-4)" stroke="none" stroke-width="0" stroke-linecap="butt"/><g stroke-linecap="butt"><path d="M429.41237,528.46178c0,0 -25.43027,-15.60842 -35.56529,-25.23551c-9.56554,-9.08615 -22.78414,-31.89924 -22.78414,-31.89924l29.78666,-31.53802c0,0 24.17183,12.70356 33.90063,21.94481c9.99739,9.49635 27.00189,32.48665 27.00189,32.48665z" fill="#696969" stroke="#000000" stroke-width="2"/><path d="M439.31569,517.42406l-58.7559,-55.81134l11.34731,-12.01449l58.75594,55.81137z" fill="url(#color-5)" stroke="none" stroke-width="0"/><path d="M437.30219,521.32037c-1.85802,0.88639 -2.70651,-0.96258 -2.70651,-0.96258l-1.48037,-3.30738c-0.34459,-4.55673 0.80561,-8.57539 1.11451,-13.09473c0.1784,-2.61032 -0.48221,-5.14789 -0.45749,-7.73661c0.02215,-2.31929 0.97604,-4.82076 0.14653,-7.11527c-1.93845,-5.36201 -8.81178,-8.88387 -14.01806,-7.56309c-3.36564,0.62696 -6.65183,0.77232 -10.02611,1.17183c-3.02533,0.35814 -6.03977,2.07798 -9.12778,0.95107c-3.05347,-1.11424 -5.23049,-5.59533 -6.38023,-8.23232c-3.13469,-7.18935 -1.55657,-15.62805 -4.49633,-22.89089c0,0 -0.74277,-1.89585 1.15996,-2.67705c1.90271,-0.78116 2.64554,1.11467 2.64554,1.11467c2.78316,7.28498 1.40113,15.71661 4.46431,22.81161c0.54593,1.26451 2.33747,5.39879 4.12712,6.03968c1.1155,0.39951 4.05909,-0.55205 4.7299,-0.69881c3.98287,-0.87124 8.09242,-0.85088 12.12058,-1.59956c7.15258,-1.68367 15.96576,2.89163 18.64513,10.11273c1.06369,2.86679 0.12541,5.67188 0.09404,8.56943c-0.02872,2.64882 0.62989,5.22763 0.45102,7.90717c-0.26916,4.03262 -1.42372,7.80398 -1.23093,11.85533l1.23471,2.60927c0,0 0.8485,1.849 -1.00952,2.73544z" fill="#000000" stroke="none" stroke-width="0.5"/><path d="M429.41237,528.46178c0,0 -25.43027,-15.60842 -35.56529,-25.23551c-9.56554,-9.08615 -22.78414,-31.89924 -22.78414,-31.89924l29.78666,-31.53802c0,0 24.17183,12.70356 33.90063,21.94481c9.99739,9.49635 27.00189,32.48665 27.00189,32.48665z" fill="#ffe400" stroke="#000000" stroke-width="2"/></g><g stroke-linecap="butt"><path d="M368.29747,471.6764c0,0 -29.03314,-6.88462 -41.66805,-12.86448c-11.92494,-5.64386 -31.60771,-23.18689 -31.60771,-23.18689l18.44578,-39.26377c0,0 26.93036,4.51813 39.05885,10.25832c12.4633,5.89865 35.79795,22.42751 35.79795,22.42751z" fill="#696969" stroke="#000000" stroke-width="2"/><path d="M374.25778,458.09766l-73.24854,-34.66719l7.02696,-14.95763l73.24858,34.66719z" fill="url(#color-6)" stroke="none" stroke-width="0"/><path d="M373.56204,462.42794c-1.4882,1.42236 -2.87177,-0.06906 -2.87177,-0.06906l-2.43935,-2.67952c-1.75061,-4.22114 -1.91314,-8.39799 -3.03127,-12.78771c-0.64584,-2.53545 -2.06598,-4.73973 -2.85107,-7.20666c-0.70336,-2.21018 -0.57852,-4.88443 -2.08321,-6.80507c-3.51626,-4.48829 -11.14574,-5.68714 -15.679,-2.80629c-3.00143,1.64684 -6.07782,2.81133 -9.15849,4.24478c-2.76211,1.28514 -5.08857,3.86051 -8.37404,3.7545c-3.24874,-0.10476 -6.71646,-3.68172 -8.63234,-5.82765c-5.22338,-5.85057 -6.35996,-14.35998 -11.42115,-20.34126c0,0 -1.29778,-1.56902 0.26578,-2.90544c1.56356,-1.33635 2.86136,0.2326 2.86136,0.2326c4.91933,6.05122 6.23998,14.49266 11.36599,20.27594c0.91357,1.03073 3.90679,4.39858 5.80707,4.44844c1.18447,0.03111 3.68357,-1.79224 4.27498,-2.14119c3.51149,-2.07167 7.42181,-3.3359 11.01459,-5.30527c6.26887,-3.83348 16.07016,-2.23981 20.87094,3.78314c1.90591,2.39114 1.89073,5.34893 2.76593,8.11129c0.80005,2.52527 2.23117,4.76935 2.89818,7.37073c1.00385,3.91494 1.08501,7.85823 2.53357,11.64666l1.98793,2.09309c0,0 1.38355,1.49146 -0.10462,2.91388z" fill="#000000" stroke="none" stroke-width="0.5"/><path d="M368.29747,471.6764c0,0 -29.03314,-6.88462 -41.66805,-12.86448c-11.92494,-5.64386 -31.60771,-23.18689 -31.60771,-23.18689l18.44578,-39.26377c0,0 26.93036,4.51813 39.05885,10.25832c12.4633,5.89865 35.79795,22.42751 35.79795,22.42751z" fill="#ffe400" stroke="#000000" stroke-width="2"/></g><path d="M240.76779,358.42099c10.88677,0.23702 25.48925,26.49628 47.96188,59.30835c17.14905,25.03916 44.60913,52.82026 44.60913,82.11959c0,67.69403 -41.44545,97.71384 -92.57101,97.71384c-51.12554,0 -92.571,-30.01981 -92.571,-97.71384c0,-36.07001 26.9934,-61.97003 49.42624,-89.44757c19.66778,-24.09066 34.44206,-52.16984 43.14476,-51.98037z" fill="#696969" stroke="#000000" stroke-width="2" stroke-linecap="butt"/><path d="M183.89293,417.99973v-11.37998h114.8835v11.37998z" fill="url(#color-7)" stroke="none" stroke-width="0" stroke-linecap="butt"/><path d="M235.29581,475.53276l48.59684,-66.50598l9.1883,6.71405l-48.59686,66.50596z" fill="url(#color-8)" stroke="none" stroke-width="0" stroke-linecap="butt"/><path d="M238.91475,483.33064l-48.59686,-66.50601l9.1883,-6.71403l48.59686,66.50601z" data-paper-data="{&quot;index&quot;:null}" fill="url(#color-9)" stroke="none" stroke-width="0" stroke-linecap="butt"/><path d="M234.65471,596.57141v-125.51289h13.54759v125.51291z" fill="url(#color-10)" stroke="none" stroke-width="0" stroke-linecap="butt"/><path d="M233.85028,482.28053c0.90039,1.82179 -0.92135,2.72217 -0.92135,2.72217l-1.28557,0.51986c-3.26348,3.17289 -5.18745,7.46861 -7.55828,11.3747c-8.66008,14.11608 -28.2157,12.41107 -35.58729,-2.26751c-4.14047,-8.24466 -0.08133,-21.00513 4.63047,-27.99776c7.02607,-11.87866 7.73354,-21.99309 4.29006,-35.14265c-0.87594,-3.34499 -2.74869,-8.49057 -5.92829,-10.96632c0.53071,-0.38823 0.76372,-0.97071 0.76372,-0.97071c0.32889,-0.85321 0.74359,-1.68956 1.25953,-2.45025c3.09757,2.24944 5.14851,6.02222 6.62045,9.74266c5.82393,14.7203 4.37812,28.46251 -3.56897,41.95732c-4.06596,6.02337 -6.76899,14.96889 -5.1892,22.3978c0.44054,2.07165 2.12358,3.71409 3.53928,5.10343c2.51099,2.46417 5.14804,5.61719 8.80082,6.41826c7.21634,1.58259 13.35678,-2.03083 16.89516,-7.93302c2.57752,-4.24647 4.67074,-8.64374 8.1754,-12.15628l2.34196,-1.27301c0,0 1.82177,-0.90041 2.72217,0.92138z" fill="#000000" stroke="none" stroke-width="0.5" stroke-linecap="butt"/><path d="M245.17827,474.20879c2.03214,0 2.03214,2.03214 2.03214,2.03214l-0.10653,1.5458c-1.48447,4.38786 -2.02755,9.18325 -3.93621,13.42819c-1.04827,2.33138 -4.17936,5.51894 -3.89646,8.43056c0.29111,2.99629 3.2942,5.67382 5.15068,7.73311c4.18821,4.64566 9.26501,8.24752 13.57835,12.81577c0.85603,2.16692 2.11756,4.34077 1.65024,6.81734c-1.68393,8.92451 -14.84388,13.98466 -21.70554,18.3212c-1.999,1.26337 -4.83113,1.57888 -6.14507,3.54503c-0.38994,0.58346 0.23023,1.38673 0.41176,2.06461c0.95024,3.54876 2.03096,6.30253 4.08885,9.34882c2.02488,2.99741 3.80876,4.83475 6.82188,6.81229c0,0 1.69684,1.11817 0.57865,2.81501c-1.11821,1.69684 -2.81503,0.57861 -2.81503,0.57861c-3.43897,-2.27452 -5.6436,-4.50582 -7.95425,-7.93228c-2.06913,-3.06831 -6.96449,-11.43788 -4.75558,-15.52742c0.35136,-0.65052 6.62743,-4.52723 7.59751,-5.14029c6.55652,-4.1437 22.47392,-9.84747 18.80113,-19.51553c-5.94687,-6.05636 -18.52076,-13.05465 -19.35986,-22.48118c-0.35046,-3.93711 2.79392,-7.14397 4.26544,-10.39512c1.84959,-4.08641 2.34735,-8.77918 3.77225,-13.01736l-0.10653,-0.24716c0,0 0,-2.03212 2.03214,-2.03212z" fill="#000000" stroke="none" stroke-width="0.5" stroke-linecap="butt"/><path d="M289.44475,410.56545c0.26277,2.12669 -1.86389,2.38945 -1.86389,2.38945l-1.56614,0.16405c-5.71299,1.69356 -9.85695,4.50688 -14.60098,8.12679c-0.10454,0.07978 -4.55583,3.03423 -4.26931,4.35351c0.14814,0.68218 1.34453,0.4201 1.94519,0.77578c1.22923,0.72786 2.35019,1.62493 3.51229,2.45578c4.97931,3.56002 11.40263,2.51164 17.4731,2.80798c1.77637,0.18101 3.73505,-0.26153 5.32907,0.54303c1.10244,0.55643 1.35462,2.06704 1.96686,3.1395c1.31086,2.29627 6.68412,10.33652 6.17679,12.81064c-0.37921,1.84923 -2.66672,2.67523 -4.07126,3.93646c-2.75414,2.47315 -7.1085,6.94218 -10.46495,8.41425c-5.10937,2.24086 -15.63594,2.44678 -21.02845,1.36019c-3.19363,-0.64351 -6.13284,-2.21651 -9.19522,-3.4228c-2.25626,3.10762 -4.99863,5.76442 -8.49112,7.40808c-0.23541,0.49245 -0.9979,1.70004 -2.63206,1.14896c-2.03049,-0.68474 -1.34577,-2.71525 -1.34577,-2.71525l1.48165,-2.01697c2.77512,-1.06651 4.97305,-3.00795 6.81394,-5.34033c-0.49732,-0.37638 -0.97164,-1.04224 -0.69506,-2.1614c0.5141,-2.08026 2.59435,-1.56616 2.59435,-1.56616c0.17931,0.04451 0.35886,0.09001 0.53861,0.13648c1.30809,-2.1945 2.43707,-4.50158 3.51977,-6.62919c-0.60504,-4.11437 -4.97112,-3.38744 -8.43995,-3.46411c-1.47074,-0.03251 -3.06337,0.03274 -4.72204,0.13629c2.84276,4.81858 5.2434,9.67266 2.88256,14.93062c-1.18902,2.64817 -1.96034,3.05 -3.96547,5.03516l-2.11116,1.32038c0,0 -1.82299,1.12625 -2.94926,-0.69676c-1.12628,-1.82299 0.69676,-2.94926 0.69676,-2.94926l1.71403,-1.04283c5.21407,-5.1427 2.44344,-10.65411 -0.85091,-16.26896c-4.75768,0.34192 -9.63453,0.57061 -13.47117,-0.54574c-5.75274,-1.67392 -2.93566,-7.83199 -1.97352,-11.79012c2.12522,-8.74278 4.73884,-15.83451 12.83579,-20.49957c1.13977,-0.64764 2.92349,-1.54168 4.80597,-2.61993c0.83061,-1.82066 1.80189,-3.5845 3.02117,-5.27059c0.96999,-1.34131 2.67119,-2.13981 2.24829,-4.11025c-1.25778,-5.86039 -8.45089,-10.82923 -11.24859,-16.08531c-3.9623,-7.444 0.75644,-14.23895 -1.36745,-21.70242c0,0 -0.56988,-2.06566 1.49578,-2.63557c0.61873,-0.1707 1.10325,-0.10494 1.47846,0.07092c0.35602,-0.52672 1.01875,-1.06846 2.19118,-0.8049c2.09067,0.47 1.6207,2.56068 1.6207,2.56068c-1.59334,7.0666 -3.0328,14.94133 -0.12192,21.95592c2.78398,6.70878 17.23579,12.03228 12.38731,21.2916c-0.79284,1.51412 -2.1882,2.64161 -3.45666,3.78712c-1.11106,1.00332 -2.42811,1.75182 -3.64399,2.62516c-0.34495,0.24779 -0.69206,0.49271 -1.0412,0.73479c-1.12962,2.55205 -1.90718,5.21574 -2.81453,7.88919c-2.2826,4.24027 -4.75684,8.76166 -3.70051,13.79714c0.4653,2.21797 1.49148,4.38766 2.69593,6.54173c6.12126,-0.30244 16.81734,-1.43201 19.35499,4.062c0.61579,1.33321 0.46167,2.90057 0.69249,4.35084c-1.05557,2.39603 -2.20744,4.87418 -3.54644,7.24088c8.4164,2.59674 17.2192,5.88995 26.02143,2.02947c3.34668,-1.4678 6.47693,-5.68709 9.4816,-7.81389c0.80773,-0.57173 2.3788,-0.5035 2.5776,-1.47292c0.19878,-0.96942 -1.27236,-1.52502 -1.78989,-2.3685c-2.67221,-4.35525 -2.40425,-9.18792 -7.69346,-8.98317c-4.33603,-0.21167 -11.67993,0.86322 -15.67304,-0.84905c-0.30883,-0.13243 -7.03689,-4.77499 -7.55916,-5.183c-1.25115,-0.97744 -3.33297,-1.54452 -3.60941,-3.10794c-0.78535,-4.44132 3.07512,-6.79621 5.75858,-8.91691c5.07263,-4.00883 9.82511,-7.01662 16.01325,-8.85235l2.25904,-0.30857c0,0 2.1267,-0.26278 2.38948,1.8639zM242.33772,414.57411c-6.9912,3.92237 -8.97435,10.29422 -10.79417,17.79916c-0.42985,1.77271 -1.75021,4.71607 -1.60144,6.55889c0.11491,1.42352 2.85645,0.01739 4.28455,0.00281c1.95403,-0.01993 3.9082,-0.01261 5.86238,-0.00599c-0.99907,-1.88307 -1.82337,-3.76936 -2.19698,-5.64905c-1.19939,-6.03431 1.16629,-11.30526 3.94977,-16.45245c0.27367,-0.81742 0.54342,-1.63041 0.81724,-2.43742c-0.10702,0.06159 -0.21413,0.12293 -0.32136,0.18405z" fill="#000000" stroke="none" stroke-width="0.5" stroke-linecap="butt"/><g><path d="M211.7593,494.97454v-55.27414h57.57722v55.27414z" fill="#323232" stroke="none" stroke-width="0" stroke-linecap="butt"/><g stroke="#000000"><path d="M240.33201,443.60453c12.30058,0 22.27221,9.97163 22.27221,22.27224c0,12.30058 -9.97163,22.27222 -22.27221,22.27222c-12.30058,0 -22.27221,-9.97166 -22.27221,-22.27222c0,-12.30058 9.97165,-22.27224 22.27221,-22.27224z" fill="#878787" stroke-width="1" stroke-linecap="butt"/><path d="M223.30327,452.36884l34.37215,-0.23226" fill="none" stroke-width="1.5" stroke-linecap="round"/><path d="M260.69459,458.40719l-40.17824,-0.23224" fill="none" stroke-width="1.5" stroke-linecap="round"/><path d="M261.39131,463.98098l-42.96517,-0.92897" fill="none" stroke-width="1.5" stroke-linecap="round"/><path d="M218.52289,468.04532l43.66191,0.46447" fill="none" stroke-width="1.5" stroke-linecap="round"/><path d="M250.76169,447.029l-20.00872,-0.25012" fill="none" stroke-width="1.5" stroke-linecap="round"/><path d="M223.03233,479.52528l34.37213,0.23226" data-paper-data="{&quot;index&quot;:null}" fill="none" stroke-width="1.5" stroke-linecap="round"/><path d="M260.42365,473.48697l-40.17824,0.23224" data-paper-data="{&quot;index&quot;:null}" fill="none" stroke-width="1.5" stroke-linecap="round"/><path d="M250.49072,484.86518l-20.00875,0.2501" data-paper-data="{&quot;index&quot;:null}" fill="none" stroke-width="1.5" stroke-linecap="round"/></g></g><path d="M241.62492,360.99242c-1.93705,0.16848 -1.38666,39.20004 -0.41263,85.67915c-0.12564,-0.00216 -0.25158,-0.00326 -0.37773,-0.00326c-11.83463,0 -21.42849,9.59386 -21.42849,21.42848c0,11.83463 9.59386,21.42847 21.42849,21.42847c0.43959,0 0.87607,-0.01323 1.3091,-0.03932c1.2327,56.88216 2.19577,111.05668 -0.51872,110.64828c-50.55659,-7.60621 -92.57101,-30.01981 -92.57101,-97.71384c0,-35.39755 22.78939,-58.84325 44.74468,-86.18572c20.03186,-24.94707 38.93856,-55.43571 47.82633,-55.24222z" fill="#ffe400" stroke="#000000" stroke-width="2" stroke-linecap="butt"/><path d="M335.08296,502.42033c0,67.69403 -42.01445,90.10764 -92.57101,97.71385c-2.71448,0.4084 -1.75142,-53.76611 -0.51871,-110.64827c0.43303,0.02609 0.86952,0.03934 1.30909,0.03934c11.83463,0 21.42849,-9.59386 21.42849,-21.42848c0,-11.83463 -9.59386,-21.42848 -21.42849,-21.42848c-0.12617,0 -0.25209,0.0011 -0.37773,0.00326c0.97399,-46.4791 1.52441,-85.51067 -0.41263,-85.67915c9.71233,-0.21146 20.74534,25.83948 42.21037,54.67545c19.7064,26.4734 50.36064,54.35127 50.36064,86.75249z" data-paper-data="{&quot;index&quot;:null}" fill="#ffe400" stroke="#000000" stroke-width="2" stroke-linecap="butt"/><path d="M233.64815,384.95151v-17.99991h20.57134v17.99991z" fill="url(#color-11)" stroke="none" stroke-width="0" stroke-linecap="butt"/><path d="M223.59204,370.56512v-8.12372h39.64541v8.12372z" fill="url(#color-12)" stroke="none" stroke-width="0" stroke-linecap="butt"/><path d="M304.91365,412.27672c0,4.66434 -3.78118,8.44552 -8.44549,8.44552c-4.66431,0 -8.44551,-3.78121 -8.44551,-8.44551c0,-4.66433 3.78117,-8.4455 8.44552,-8.4455c4.66431,0 8.44549,3.78117 8.44549,8.4455z" fill="url(#color-13)" stroke="none" stroke-width="0" stroke-linecap="butt"/><path d="M179.40371,402.77308c4.66432,0 8.44552,3.78116 8.44552,8.44549c0,4.66431 -3.78119,8.44552 -8.44551,8.44552c-4.66431,0 -8.44549,-3.78117 -8.44549,-8.44551c0,-4.66432 3.78119,-8.44549 8.44549,-8.44549z" data-paper-data="{&quot;index&quot;:null}" fill="url(#color-14)" stroke="none" stroke-width="0" stroke-linecap="butt"/><path d="M241.17379,400.859c10.17039,0 11.79117,86.37647 18.41514,130.94569c0.81586,5.48952 -8.24473,32.22652 -18.41514,32.22652c-10.1704,0 -18.41514,-18.17048 -17.59928,-35.08203c2.17122,-45.00641 7.42886,-128.09017 17.59928,-128.09017z" fill="url(#color-15)" stroke="#000000" stroke-width="1" stroke-linecap="butt"/><path d="M211.48264,398.2957c0,-7.24644 13.549,-13.12082 30.26254,-13.12082c16.71354,0 30.26254,5.87438 30.26254,13.12082c0,5.18903 -6.94752,9.67451 -17.02956,11.80326c-1.8986,0.40089 -7.35099,-16.77476 -13.02483,-16.81478c-6.27233,-0.04423 -12.81534,16.99881 -15.12708,16.42979c-9.16246,-2.25526 -15.34362,-6.52378 -15.34362,-11.41825z" fill="#ffffff" stroke="#000000" stroke-width="2" stroke-linecap="butt"/><path d="M241.2627,395.96783c5.76074,0 10.60761,0.36047 10.43071,10.73749c-0.15341,8.998 -4.66999,10.73749 -10.43071,10.73749c-5.76074,0 -10.34042,-1.28 -10.43071,-10.73749c-0.09617,-10.07245 4.66999,-10.73749 10.43071,-10.73749z" fill="url(#color-16)" stroke="#000000" stroke-width="1" stroke-linecap="butt"/><path d="M265.72486,230.75878c-9.21875,12.61158 -18.87619,21.23874 -21.57049,19.26928c-2.6943,-1.96945 2.59482,-13.78973 11.81357,-26.40132c9.21875,-12.61159 27.80271,-14.71367 30.49701,-12.74422c2.6943,1.96946 -11.52134,7.26467 -20.74009,19.87625z" fill="#ffe400" stroke="#000000" stroke-width="1" stroke-linecap="butt"/><path d="M248.66915,221.72808c1.60749,15.53876 0.21957,28.41383 -3.10011,28.75725c-3.31966,0.34343 -7.31391,-11.97482 -8.9214,-27.5136c-1.60749,-15.53878 10.77884,-29.55163 14.09849,-29.89506c3.31966,-0.34342 -3.68449,13.11265 -2.077,28.65141z" fill="#ffe400" stroke="#000000" stroke-width="1" stroke-linecap="butt"/><path d="M234.00957,222.37765c9.45033,12.43899 14.9571,24.15947 12.29967,26.17839c-2.65743,2.01893 -12.47272,-6.42819 -21.92305,-18.86718c-9.45033,-12.43898 -6.15274,-30.84845 -3.49532,-32.86738c2.65743,-2.01893 3.66835,13.11719 13.11868,25.55617z" fill="#ffe400" stroke="#000000" stroke-width="1" stroke-linecap="butt"/><path d="M164.00691,323.84449c0,-39.02578 53.95928,-83.70591 79.4858,-84.28411c24.05223,0.00927 75.9531,45.25836 75.9531,84.28411c0,39.0258 -34.79619,70.66245 -77.71944,70.66245c-42.92325,0 -77.71944,-31.63665 -77.71944,-70.66243z" data-paper-data="{&quot;index&quot;:null}" fill="#696969" stroke="#000000" stroke-width="2" stroke-linecap="butt"/><path d="M257.41134,375.797l0.23158,-38.73309l5.97734,0.03576l-0.23156,38.73309z" fill="url(#color-17)" stroke="none" stroke-width="0" stroke-linecap="butt"/><path d="M220.23046,376.2637l0.23158,-38.73309l5.97734,0.03574l-0.23158,38.73312z" fill="url(#color-18)" stroke="none" stroke-width="0" stroke-linecap="butt"/><path d="M230.87941,323.27955c0.03236,0.93285 -0.90051,0.96523 -0.90051,0.96523l-0.64544,0.02232c-4.56865,0.19785 -9.59327,0.49563 -12.61844,4.39497c-3.12902,3.93542 -7.17049,2.88886 -10.44206,5.88173c-1.23823,1.13275 -1.9651,4.15651 -3.44985,5.18675c0.71813,2.04131 2.43643,3.42633 5.50209,3.11154c0.11184,-0.01149 2.56841,-0.50883 2.8504,-0.74259c1.41231,-1.17073 2.07662,-6.68684 3.58884,-8.69142c2.24819,-1.13057 4.29138,-0.77591 6.64764,-1.3564c3.32511,-0.81923 5.67061,-3.24326 8.1733,-5.38743l0.65473,-0.57793c0,0 0.69985,-0.61761 1.31748,0.08226c0.61763,0.69987 -0.08224,1.3175 -0.08224,1.3175l-0.67543,0.59587c-2.76134,2.36562 -5.32301,4.87878 -8.98106,5.7917c-1.96144,0.48951 -3.99157,0.06933 -5.8489,0.95979c-1.52123,2.23953 -1.70382,6.92684 -3.44049,8.55133c-2.37586,2.22237 -8.71485,2.16379 -10.35273,-0.71892c-0.46395,-0.81658 -0.82737,-1.63367 -1.09436,-2.44896c-4.07486,0.36804 -6.56896,-3.22246 -8.5942,-6.19688c-0.32834,-0.48221 -2.28182,-3.26541 -2.26201,-3.65848c0.01981,-0.39308 2.2432,-2.96582 2.61835,-3.41258c0.25736,-0.30652 2.47319,-2.97544 2.68022,-3.08466c2.05948,-1.08643 5.38894,0.29915 7.38426,-0.70812c2.23246,-1.127 3.96714,-6.89897 5.59121,-8.88887c2.39999,-2.94061 6.42548,-3.60491 9.74585,-5.06369c0,0 0.85459,-0.37544 1.23001,0.47915c0.02432,0.05536 0.04351,0.10869 0.05805,0.16007c0.11955,-0.01909 0.23766,-0.03896 0.35415,-0.05993c0,0 0.91869,-0.16513 1.0838,0.75358c0.16509,0.91869 -0.75358,1.0838 -0.75358,1.0838c-2.1894,0.39335 -5.98327,0.23679 -7.5438,2.14616c-3.31527,4.05632 0.71332,10.30146 -2.73573,14.03454c-1.39142,1.50601 -3.84211,2.18696 -5.67306,3.03366c-1.21268,1.90597 -1.92527,4.42766 -1.84056,6.67162c1.1026,-1.52955 2.79971,-4.97764 4.04103,-5.62432c3.68568,-1.92017 6.00847,-0.88039 8.78687,-4.38102c3.50072,-4.32276 8.78063,-4.87284 13.99939,-5.09884l0.66152,-0.02298c0,0 0.93285,-0.03236 0.96519,0.90049zM203.87373,324.75442c-4.0112,2.18709 -6.3042,-0.52949 -9.59951,3.39501c-0.68074,0.8107 -2.13022,1.24881 -2.18354,2.30603c-0.05327,1.05724 1.34487,1.63887 1.94066,2.51388c1.82997,2.68766 3.21375,5.19873 6.59488,5.3052c-0.43493,-3.04056 0.44044,-6.02979 2.41125,-8.84557c1.67342,-0.86543 4.20062,-1.52748 5.52179,-2.88548c2.44828,-2.51659 0.62677,-7.21273 1.34139,-11.03806c-1.85618,2.3642 -3.38502,7.80852 -6.02694,9.24901z" fill="#000000" stroke="none" stroke-width="0.5" stroke-linecap="butt"/><path d="M248.75113,321.13451l0.6615,0.02299c5.21877,0.22601 10.49867,0.77606 13.99939,5.09882c2.77844,3.50065 5.10121,2.46092 8.78687,4.38104c1.24133,0.64668 2.93842,4.09474 4.04102,5.62431c0.08472,-2.24396 -0.6279,-4.76563 -1.84058,-6.67162c-1.83094,-0.84669 -4.28162,-1.52765 -5.67304,-3.03366c-3.44906,-3.73307 0.57952,-9.97818 -2.73575,-14.0345c-1.56053,-1.90938 -5.3544,-1.75284 -7.5438,-2.14619c0,0 -0.91871,-0.16511 -0.75358,-1.0838c0.16509,-0.91869 1.08382,-0.75358 1.08382,-0.75358c0.1165,0.02095 0.2346,0.04086 0.35415,0.05993c0.01456,-0.05138 0.03371,-0.10469 0.05803,-0.16008c0.37545,-0.85457 1.23001,-0.47914 1.23001,-0.47914c3.32038,1.45876 7.34586,2.12306 9.74585,5.06369c1.62406,1.98992 3.35874,7.76188 5.59121,8.88887c1.99532,1.0073 5.32477,-0.3783 7.38425,0.70812c0.20706,0.10922 2.42289,2.77814 2.68025,3.08466c0.37513,0.44676 2.59852,3.0195 2.61833,3.41258c0.01981,0.39308 -1.93367,3.17625 -2.26201,3.65848c-2.02524,2.97445 -4.51936,6.56492 -8.59422,6.19688c-0.26697,0.81527 -0.63039,1.63238 -1.09434,2.44896c-1.63788,2.88275 -7.97688,2.94129 -10.35273,0.71891c-1.73667,-1.62448 -1.91924,-6.31179 -3.44049,-8.55133c-1.85732,-0.89046 -3.88747,-0.47027 -5.84891,-0.95979c-3.65802,-0.91291 -6.21967,-3.42608 -8.98105,-5.79172l-0.67539,-0.5959c0,0 -0.69987,-0.61761 -0.08224,-1.31748c0.61763,-0.69987 1.31748,-0.08226 1.31748,-0.08226l0.65473,0.57793c2.50271,2.14418 4.84821,4.56822 8.1733,5.38743c2.35627,0.58054 4.39947,0.22583 6.64765,1.3564c1.51222,2.00459 2.17653,7.52071 3.58884,8.69142c0.28202,0.23376 2.73857,0.73111 2.85039,0.7426c3.06566,0.3148 4.78394,-1.07025 5.50207,-3.11154c-1.48475,-1.03024 -2.2116,-4.05401 -3.44983,-5.18673c-3.27157,-2.99286 -7.31302,-1.94633 -10.44206,-5.88175c-3.02517,-3.89934 -8.04982,-4.19712 -12.61847,-4.39497l-0.64542,-0.02234c0,0 -0.93284,-0.03235 -0.90051,-0.9652c0.03236,-0.93285 0.96521,-0.90049 0.96521,-0.90049zM268.76466,314.26087c0.71462,3.82536 -1.10686,8.52147 1.34142,11.03804c1.32118,1.35802 3.84838,2.02006 5.52179,2.88548c1.97079,2.81579 2.84616,5.80507 2.41125,8.84561c3.38113,-0.10647 4.76489,-2.61758 6.59488,-5.30521c0.59577,-0.87503 1.99394,-1.45662 1.94065,-2.51389c-0.05327,-1.05724 -1.5028,-1.49535 -2.18354,-2.30607c-3.29532,-3.92446 -5.58828,-1.2079 -9.59949,-3.39499c-2.6419,-1.44049 -4.17077,-6.88479 -6.02695,-9.24899z" data-paper-data="{&quot;index&quot;:null}" fill="#000000" stroke="none" stroke-width="0.5" stroke-linecap="butt"/><path d="M222.31955,317.47981v-16.01955h34.19094v16.01955z" fill="url(#color-19)" stroke="#000000" stroke-width="0" stroke-linecap="butt"/><path d="M226.8624,342.46304v-30.84359h31.40002v30.84359z" fill="url(#color-20)" stroke="none" stroke-width="0" stroke-linecap="butt"/><path d="M225.86404,341.89656l-9.30493,-37.59952l5.80239,-1.43595l9.30495,37.59954z" fill="url(#color-21)" stroke="none" stroke-width="0" stroke-linecap="butt"/><path d="M253.68598,341.65613l9.30494,-37.59954l5.80239,1.43595l-9.30495,37.59956z" data-paper-data="{&quot;index&quot;:null}" fill="url(#color-22)" stroke="none" stroke-width="0" stroke-linecap="butt"/><path d="M277.31521,305.21057c0,6.76097 -5.65213,12.24177 -12.62437,12.24177c-6.97226,0 -12.62432,-5.48082 -12.62432,-12.24177c0,-6.76097 5.65209,-12.24181 12.62433,-12.24181c6.97224,0 12.62437,5.48086 12.62437,12.24181z" data-paper-data="{&quot;index&quot;:null}" fill="#ffffff" stroke="#000000" stroke-width="2" stroke-linecap="butt"/><path d="M270.81179,304.80564c0,3.57938 -2.78325,6.48108 -6.21656,6.48108c-3.43329,0 -6.21654,-2.90167 -6.21654,-6.48108c0,-3.57938 2.78325,-6.48109 6.21654,-6.48109c3.43329,0 6.21656,2.90169 6.21656,6.48109z" data-paper-data="{&quot;index&quot;:null}" fill="#000000" stroke="none" stroke-width="0" stroke-linecap="butt"/><path d="M219.92856,344.13671v-8.84661h44.57338v8.84661z" fill="url(#color-23)" stroke="none" stroke-width="0" stroke-linecap="butt"/><path d="M223.10815,292.64996c6.97225,0 12.62435,5.48084 12.62435,12.24179c0,6.76097 -5.65214,12.24179 -12.62435,12.24179c-6.97226,0 -12.62437,-5.48084 -12.62437,-12.24179c0,-6.76097 5.65208,-12.24179 12.62437,-12.24179z" fill="#ffffff" stroke="#000000" stroke-width="2" stroke-linecap="butt"/><path d="M223.20379,298.00575c3.43328,0 6.21654,2.90167 6.21654,6.48107c0,3.57938 -2.78327,6.48107 -6.21654,6.48107c-3.43327,0 -6.21654,-2.90169 -6.21654,-6.48107c0,-3.57938 2.78323,-6.48107 6.21654,-6.48107z" fill="#000000" stroke="none" stroke-width="0" stroke-linecap="butt"/><path d="M228.10636,369.11782c0.56093,0 12.93741,-0.03299 13.48112,-0.09713c-0.36652,15.48915 -0.92172,25.95295 -1.72791,25.95295c-38.23812,0 -69.78545,-27.01914 -74.35143,-61.91977c0.02988,0.03665 0.0598,0.07328 0.08979,0.10987c4.49585,5.48485 9.3738,11.02423 24.817,19.12493c15.5753,4.70348 26.72735,4.80616 34.27305,4.6916c-0.0507,6.54631 0.78151,12.13754 3.4184,12.13754z" data-paper-data="{&quot;index&quot;:null}" fill="#ffe400" stroke="#000000" stroke-width="2" stroke-linecap="butt"/><path d="M259.41404,356.9803c7.5457,0.11455 18.69772,0.01187 34.27303,-4.69161c15.44323,-8.10071 20.32117,-13.64009 24.817,-19.12493c0.03001,-0.03661 0.05993,-0.07322 0.08979,-0.10987c-4.56599,34.90063 -36.11328,61.91977 -74.35143,61.91977c-0.80619,0 -1.36141,-10.4638 -1.72793,-25.95295c0.54371,0.06415 12.92019,0.09714 13.48112,0.09714c2.63689,0 3.4691,-5.59123 3.41839,-12.13754z" data-paper-data="{&quot;index&quot;:null}" fill="#ffe400" stroke="#000000" stroke-width="2" stroke-linecap="butt"/><g stroke="#000000" stroke-linecap="butt"><path d="M243.04245,341.677c47.58029,0.16775 7.04053,52.03767 0,52.03767c-7.39932,0 -53.34064,-52.22572 0,-52.03767z" fill="#ffe400" stroke-width="2"/><path d="M242.82522,344.01039c31.79148,0.11208 4.70421,34.76972 0,34.76972c-4.94397,0 -35.6403,-34.89539 0,-34.76972z" fill="#ff0700" stroke-width="1"/></g><g stroke="#000000" stroke-linecap="butt"><path d="M163.90703,323.84449c0,-39.02578 54.01513,-83.70591 78.62193,-84.28411c0.47366,-0.27645 -1.11234,56.37269 -1.54465,101.24307c-0.6812,-0.10186 -1.37844,-0.15465 -2.08805,-0.15465c-7.52341,0 -22.25794,0.14299 -22.40413,14.6221c-7.38091,0.13049 -7.38513,0.66141 -28.08622,-5.32397c-17.99036,-6.1383 -24.49884,-25.49281 -24.49884,-26.10244zM222.13883,318.71363c7.73263,0 14.00117,-6.26856 14.00117,-14.00117c0,-7.73261 -6.26856,-14.00115 -14.00117,-14.00115c-7.73263,0 -14.00114,6.26853 -14.00114,14.00115c0,7.73261 6.26853,14.00117 14.00114,14.00117z" data-paper-data="{&quot;index&quot;:null}" fill="#ffe400" stroke-width="2"/><path d="M208.08768,304.71246c0,-7.73261 6.31852,-14.05115 14.05114,-14.05115c7.73261,0 14.05117,6.31853 14.05117,14.05115c0,7.73261 -6.31854,14.05117 -14.05117,14.05117c-7.73261,0 -14.05114,-6.31856 -14.05114,-14.05117z" data-paper-data="{&quot;noHover&quot;:false,&quot;origItem&quot;:[&quot;Path&quot;,{&quot;applyMatrix&quot;:true,&quot;segments&quot;:[[[474.30468,304.09393],[-15.46522,0],[15.46526,0]],[[502.30702,276.09159],[0,15.46522],[0,-15.46522]],[[474.30468,248.0893],[15.46522,0],[-15.46526,0]],[[446.30239,276.09159],[0,-15.46522],[0,15.46522]]],&quot;closed&quot;:true,&quot;fillColor&quot;:[1,0.89412,0],&quot;strokeColor&quot;:[0,0,0],&quot;strokeWidth&quot;:2}]}" fill="#000000" stroke-width="1"/><path d="M239.88102,314.20227c1.85393,0 4.09412,50.232 0,50.232c-6.88731,0 -8.28828,-13.76224 -12.49697,-18.4865c-3.54072,-3.97445 -10.46496,-3.45698 -10.46496,-9.15696c0,-12.4753 10.28042,-22.58854 22.96193,-22.58854z" fill="#ffe400" stroke-width="2"/></g><g data-paper-data="{&quot;index&quot;:null}" stroke="#000000" stroke-linecap="butt"><path d="M319.43967,324.31119c0,0.60963 -6.47037,19.96414 -24.35536,26.10246c-20.57982,5.98538 -22.43993,7.32125 -29.7776,7.19076c-0.14533,-14.47908 -12.93768,-16.48892 -20.41701,-16.48892c-0.70542,0 -1.3986,0.0528 -2.07582,0.15466c-0.42979,-44.87038 -0.0182,-101.51952 0.45269,-101.24307c24.46265,0.5782 76.17311,45.25833 76.17311,84.28411zM277.788,304.71246c0,-7.73261 -6.23182,-14.00115 -13.91916,-14.00115c-7.68732,0 -13.91916,6.26853 -13.91916,14.00115c0,7.73261 6.23182,14.00117 13.91916,14.00117c7.68732,0 13.91916,-6.26856 13.91916,-14.00117z" data-paper-data="{&quot;index&quot;:null}" fill="#ffe400" stroke-width="2"/><path d="M263.86884,318.76363c-7.68734,0 -13.96916,-6.31856 -13.96916,-14.05117c0,-7.73261 6.28184,-14.05115 13.96916,-14.05115c7.68734,0 13.96916,6.31853 13.96916,14.05115c0,7.73261 -6.28184,14.05117 -13.96916,14.05117z" data-paper-data="{&quot;noHover&quot;:false,&quot;origItem&quot;:[&quot;Path&quot;,{&quot;applyMatrix&quot;:true,&quot;segments&quot;:[[[584.60302,276.09159],[0,15.46522],[0,-15.46522]],[[556.7647,248.0893],[15.37468,0],[-15.37464,0]],[[528.92637,276.09159],[0,-15.46522],[0,15.46522]],[[556.7647,304.09393],[-15.37468,0],[15.37464,0]]],&quot;closed&quot;:true,&quot;fillColor&quot;:[1,0.89412,0],&quot;strokeColor&quot;:[0,0,0],&quot;strokeWidth&quot;:2}]}" fill="#000000" stroke-width="1"/><path d="M265.3462,338.06056c0,5.69998 -7.28462,5.18251 -10.80457,9.15696c-4.18402,4.72426 -4.32934,17.21675 -11.17631,17.21675c-4.07015,0 -2.6896,-50.232 -0.84651,-50.232c12.60723,0 22.8274,11.38299 22.8274,23.8583z" fill="#ffe400" stroke-width="2"/></g><path d="M229.70264,304.72022c0,2.33909 -1.79086,4.2353 -4,4.2353c-2.20914,0 -4,-1.89621 -4,-4.2353c0,-2.33909 1.79086,-4.2353 4,-4.2353c2.20914,0 4,1.89621 4,4.2353z" fill="#000000" stroke="#ff0000" stroke-width="2" stroke-linecap="butt"/><path d="M267.03598,305.05355c0,2.33909 -1.79086,4.2353 -4,4.2353c-2.20914,0 -4,-1.89621 -4,-4.2353c0,-2.33909 1.79086,-4.2353 4,-4.2353c2.20914,0 4,1.89621 4,4.2353z" fill="#000000" stroke="#ff0000" stroke-width="2" stroke-linecap="butt"/></g></g></svg>