<svg version="1.1" xmlns="http://www.w3.org/2000/svg" xmlns:xlink="http://www.w3.org/1999/xlink" width="526.15088" height="479.92662" viewBox="0,0,526.15088,479.92662"><defs><linearGradient x1="410.91808" y1="438.445" x2="431.6154" y2="461.02309" gradientUnits="userSpaceOnUse" id="color-1"><stop offset="0" stop-color="#5c5c5c"/><stop offset="1" stop-color="#9b9b9b"/></linearGradient><linearGradient x1="433.09783" y1="528.12918" x2="456.52951" y2="520.67922" gradientUnits="userSpaceOnUse" id="color-2"><stop offset="0" stop-color="#5c5c5c"/><stop offset="1" stop-color="#9b9b9b"/></linearGradient><linearGradient x1="371.62813" y1="400.28163" x2="392.61582" y2="387.47295" gradientUnits="userSpaceOnUse" id="color-3"><stop offset="0" stop-color="#5c5c5c"/><stop offset="1" stop-color="#9b9b9b"/></linearGradient><linearGradient x1="66.44436" y1="437.85894" x2="45.74704" y2="460.43703" gradientUnits="userSpaceOnUse" id="color-4"><stop offset="0" stop-color="#5c5c5c"/><stop offset="1" stop-color="#9b9b9b"/></linearGradient><linearGradient x1="44.26461" y1="527.54314" x2="20.83293" y2="520.09317" gradientUnits="userSpaceOnUse" id="color-5"><stop offset="0" stop-color="#5c5c5c"/><stop offset="1" stop-color="#9b9b9b"/></linearGradient><linearGradient x1="105.73431" y1="399.69558" x2="84.74662" y2="386.8869" gradientUnits="userSpaceOnUse" id="color-6"><stop offset="0" stop-color="#5c5c5c"/><stop offset="1" stop-color="#9b9b9b"/></linearGradient><linearGradient x1="240.69039" y1="326.94807" x2="240.69039" y2="341.57934" gradientUnits="userSpaceOnUse" id="color-7"><stop offset="0" stop-color="#5c5c5c"/><stop offset="1" stop-color="#9b9b9b"/></linearGradient><linearGradient x1="264.17112" y1="367.12844" x2="275.98453" y2="374.14556" gradientUnits="userSpaceOnUse" id="color-8"><stop offset="0" stop-color="#5c5c5c"/><stop offset="1" stop-color="#9b9b9b"/></linearGradient><linearGradient x1="218.15627" y1="368.2613" x2="206.3428" y2="375.27841" gradientUnits="userSpaceOnUse" id="color-9"><stop offset="0" stop-color="#5c5c5c"/><stop offset="1" stop-color="#9b9b9b"/></linearGradient><linearGradient x1="232.10623" y1="480.23387" x2="249.5244" y2="480.23387" gradientUnits="userSpaceOnUse" id="color-10"><stop offset="0" stop-color="#5c5c5c"/><stop offset="1" stop-color="#9b9b9b"/></linearGradient><linearGradient x1="328.34489" y1="334.5225" x2="358.97411" y2="334.5225" gradientUnits="userSpaceOnUse" id="color-11"><stop offset="0" stop-color="#5c5c5c"/><stop offset="1" stop-color="#9b9b9b"/></linearGradient><linearGradient x1="125.25113" y1="334.5225" x2="155.88034" y2="334.5225" gradientUnits="userSpaceOnUse" id="color-12"><stop offset="0" stop-color="#5c5c5c"/><stop offset="1" stop-color="#9b9b9b"/></linearGradient><linearGradient x1="153.35644" y1="228.54232" x2="306.1907" y2="263.42068" gradientUnits="userSpaceOnUse" id="color-13"><stop offset="0" stop-color="#6c6c6c"/><stop offset="1" stop-color="#c4c4c4"/></linearGradient><linearGradient x1="206.00524" y1="226.60245" x2="266.12007" y2="240.32127" gradientUnits="userSpaceOnUse" id="color-14"><stop offset="0" stop-color="#6e6e6e"/><stop offset="1" stop-color="#c0c0c0"/></linearGradient><linearGradient x1="252.34854" y1="158.3952" x2="237.35084" y2="224.11398" gradientUnits="userSpaceOnUse" id="color-15"><stop offset="0" stop-color="#a6a6a6"/><stop offset="1" stop-color="#707070"/></linearGradient><linearGradient x1="212.29794" y1="139.0558" x2="215.50675" y2="216.39613" gradientUnits="userSpaceOnUse" id="color-16"><stop offset="0" stop-color="#a6a6a6"/><stop offset="1" stop-color="#707070"/></linearGradient><linearGradient x1="296.07252" y1="159.28908" x2="259.29608" y2="229.03991" gradientUnits="userSpaceOnUse" id="color-17"><stop offset="0" stop-color="#a6a6a6"/><stop offset="1" stop-color="#707070"/></linearGradient><linearGradient x1="241.0934" y1="208.88857" x2="236.79171" y2="227.73822" gradientUnits="userSpaceOnUse" id="color-18"><stop offset="0" stop-color="#a6a6a6"/><stop offset="1" stop-color="#707070"/></linearGradient><linearGradient x1="236.23791" y1="225.46782" x2="232.04649" y2="243.83427" gradientUnits="userSpaceOnUse" id="color-19"><stop offset="0" stop-color="#707070"/><stop offset="1" stop-color="#a6a6a6"/></linearGradient><linearGradient x1="254.94956" y1="148.17195" x2="247.16007" y2="182.30487" gradientUnits="userSpaceOnUse" id="color-20"><stop offset="0" stop-color="#a6a6a6"/><stop offset="1" stop-color="#707070"/></linearGradient></defs><g transform="translate(24.39422,-119.44452)"><g data-paper-data="{&quot;isPaintingLayer&quot;:true}" fill-rule="nonzero" stroke-linejoin="miter" stroke-miterlimit="10" stroke-dasharray="" stroke-dashoffset="0" style="mix-blend-mode: normal"><g data-paper-data="{&quot;index&quot;:null}" stroke-linecap="butt"><path d="M431.6154,461.02309c-6.23479,5.71544 -15.9223,5.2944 -21.63771,-0.94036c-5.7154,-6.23477 -5.29438,-15.92232 0.94038,-21.63773c6.23477,-5.71542 15.92229,-5.29436 21.63771,0.94041c5.7154,6.23475 5.2944,15.92226 -0.94038,21.63768z" data-paper-data="{&quot;index&quot;:null}" fill="url(#color-1)" stroke="none" stroke-width="0"/><g data-paper-data="{&quot;index&quot;:null}"><path d="M433.84189,598.17356c0,0 -24.32684,-42.45305 -31.76474,-64.10948c-7.01997,-20.43958 -9.92392,-62.94865 -9.92392,-62.94865l61.50829,-19.55609c0,0 24.53612,37.38669 31.67588,58.17515c7.33689,21.36235 15.28494,67.20663 15.28494,67.20663z" fill="#696969" stroke="#000000" stroke-width="2"/><path d="M454.65777,590.90384l-43.11983,-125.54938l23.43177,-7.44995l43.11983,125.54944z" fill="url(#color-2)" stroke="none" stroke-width="0"/><path d="M449.33066,594.67951c-3.12046,-0.28325 -3.05204,-3.54675 -3.05204,-3.54675l0.17341,-5.80709c2.54979,-6.61788 6.78091,-11.26796 10.19687,-17.30067c1.97302,-3.48444 2.75391,-7.5522 4.50305,-11.13202c1.56712,-3.20721 4.52522,-5.90763 4.91479,-9.77521c0.91045,-9.03809 -6.12637,-19.54337 -14.09949,-21.9542c-5.00397,-1.87401 -9.58048,-4.35288 -14.44548,-6.55026c-4.36187,-1.97019 -9.61127,-2.03789 -13.07446,-6.12433c-3.42456,-4.04069 -3.42309,-12.04841 -3.24313,-16.65349c0.49049,-12.55514 8.23399,-23.00278 9.03894,-35.50113c0,0 0.24366,-3.24244 3.35543,-2.77643c3.11169,0.46605 2.8681,3.70852 2.8681,3.70852c-1.0331,12.4014 -8.50461,22.99912 -9.03006,35.36476c-0.09367,2.20384 -0.39082,9.41476 1.62435,11.76609c1.25608,1.46568 5.89972,2.5439 6.91149,2.88714c6.00731,2.0379 11.59652,5.419 17.58434,7.66427c10.86709,3.49408 19.85051,17.04698 18.71824,29.27484c-0.44952,4.85447 -3.58756,7.98978 -5.55046,11.9936c-1.79445,3.66011 -2.60543,7.78361 -4.62492,11.36393c-3.03927,5.38826 -7.11243,9.69089 -9.53424,15.48212l-0.04576,4.63589c0,0 -0.06849,3.26353 -3.18899,2.98037z" fill="#000000" stroke="none" stroke-width="0.5"/><path d="M433.84189,598.17356c0,0 -24.32684,-42.45305 -31.76474,-64.10948c-7.01997,-20.43958 -9.92392,-62.94865 -9.92392,-62.94865l61.50829,-19.55609c0,0 24.53612,37.38669 31.67588,58.17515c7.33689,21.36235 15.28494,67.20663 15.28494,67.20663z" fill="#0096ff" stroke="#000000" stroke-width="2"/></g><g data-paper-data="{&quot;index&quot;:null}"><path d="M389.00869,468.13959c0,0 -33.725,-35.44971 -46.09979,-54.71593c-11.67945,-18.1837 -24.60952,-58.78256 -24.60952,-58.78256l55.09283,-33.62278c0,0 32.72339,30.47892 44.60219,48.97301c12.20672,19.00463 30.82934,61.64344 30.82934,61.64344z" fill="#696969" stroke="#000000" stroke-width="2"/><path d="M407.49847,456.12794l-71.74057,-111.69267l20.98777,-12.8087l71.74061,111.69273z" fill="url(#color-3)" stroke="none" stroke-width="0"/><path d="M403.22212,461.06222c-3.09829,0.46699 -3.80794,-2.71916 -3.80794,-2.71916l-1.2126,-5.68173c0.90279,-7.03441 3.90666,-12.5573 5.78993,-19.22929c1.08775,-3.85371 0.87884,-7.99048 1.72646,-11.88356c0.75943,-3.48787 2.99046,-6.81431 2.44908,-10.66359c-1.26507,-8.99529 -10.59836,-17.52571 -18.91609,-17.9712c-5.30608,-0.63021 -10.34082,-1.9496 -15.5888,-2.92695c-4.70527,-0.87634 -9.82016,0.30631 -14.15583,-2.83929c-4.28725,-3.11034 -6.1902,-10.88865 -7.11057,-15.40442c-2.50943,-12.31159 2.52729,-24.30101 0.3368,-36.63223c0,0 -0.53446,-3.20736 2.59888,-3.49475c3.13324,-0.28734 3.66777,2.92002 3.66777,2.92002c1.94581,12.2913 -2.79102,24.36183 -0.36061,36.49765c0.43315,2.16288 1.85938,9.23758 4.37592,11.04221c1.5686,1.12489 6.33544,1.06786 7.39981,1.16063c6.3196,0.5508 12.55256,2.50567 18.90255,3.26251c11.38628,0.80946 23.33507,11.83709 25.14329,23.9834c0.71786,4.8221 -1.58453,8.61374 -2.53892,12.9695c-0.87254,3.98185 -0.67959,8.17993 -1.78969,12.13779c-1.67064,5.95649 -4.60369,11.10432 -5.57879,17.30535l1.05805,4.51377c0,0 0.70962,3.18617 -2.38872,3.65325z" fill="#000000" stroke="none" stroke-width="0.5"/><path d="M389.00869,468.13959c0,0 -33.725,-35.44971 -46.09979,-54.71593c-11.67945,-18.1837 -24.60952,-58.78256 -24.60952,-58.78256l55.09283,-33.62278c0,0 32.72339,30.47892 44.60219,48.97301c12.20672,19.00463 30.82934,61.64344 30.82934,61.64344z" fill="#0096ff" stroke="#000000" stroke-width="2"/></g></g><g stroke-linecap="butt"><path d="M44.80664,438.79935c5.71542,-6.23478 15.40294,-6.65582 21.63772,-0.94041c6.23475,5.71541 6.65578,15.40298 0.94038,21.63773c-5.7154,6.23477 -15.40292,6.6558 -21.63771,0.94036c-6.23478,-5.71542 -6.65578,-15.40293 -0.94038,-21.63768z" data-paper-data="{&quot;index&quot;:null}" fill="url(#color-4)" stroke="none" stroke-width="0"/><g data-paper-data="{&quot;index&quot;:null}"><path d="M-23.25991,576.35509c0,0 7.94805,-45.84428 15.28494,-67.20663c7.13976,-20.78847 31.67589,-58.17515 31.67589,-58.17515l61.50829,19.55609c0,0 -2.90396,42.50906 -9.92393,62.94865c-7.43789,21.65642 -31.76475,64.10948 -31.76475,64.10948z" fill="#696969" stroke="#000000" stroke-width="2"/><path d="M-0.72712,582.8679l43.11985,-125.54944l23.43177,7.44996l-43.11983,125.54937z" fill="url(#color-5)" stroke="none" stroke-width="0"/><path d="M28.03178,594.09341c-3.12051,0.28315 -3.18899,-2.98037 -3.18899,-2.98037l-0.04576,-4.63589c-2.42182,-5.79122 -6.49498,-10.09386 -9.53425,-15.48212c-2.0195,-3.58032 -2.83048,-7.70382 -4.62492,-11.36394c-1.96289,-4.00382 -5.10094,-7.13913 -5.55046,-11.9936c-1.13227,-12.22786 7.85115,-25.78075 18.71824,-29.27484c5.98783,-2.24528 11.57704,-5.62637 17.58435,-7.66426c1.01177,-0.34323 5.65542,-1.42147 6.91149,-2.88714c2.01517,-2.35134 1.71802,-9.56225 1.62434,-11.76609c-0.52545,-12.36564 -7.99696,-22.96336 -9.03007,-35.36476c0,0 -0.24359,-3.24246 2.8681,-3.70852c3.11178,-0.46602 3.35543,2.77643 3.35543,2.77643c0.80493,12.49835 8.54845,22.946 9.03894,35.50113c0.17997,4.60508 0.18142,12.61279 -3.24314,16.65348c-3.4632,4.08644 -8.71259,4.15414 -13.07446,6.12433c-4.86499,2.19739 -9.44151,4.67627 -14.44548,6.55028c-7.97313,2.41082 -15.00995,12.91613 -14.0995,21.9542c0.38957,3.86758 3.34767,6.56801 4.9148,9.77521c1.74915,3.57981 2.53003,7.64757 4.50305,11.13202c3.41596,6.0327 7.64709,10.68278 10.19687,17.30067l0.17341,5.80709c0,0 0.06842,3.26351 -3.05204,3.54675z" fill="#000000" stroke="none" stroke-width="0.5"/><path d="M-23.25991,576.35509c0,0 7.94805,-45.84428 15.28494,-67.20663c7.13976,-20.78847 31.67589,-58.17515 31.67589,-58.17515l61.50829,19.55609c0,0 -2.90396,42.50906 -9.92393,62.94865c-7.43789,21.65642 -31.76475,64.10948 -31.76475,64.10948z" fill="#0096ff" stroke="#000000" stroke-width="2"/></g><g data-paper-data="{&quot;index&quot;:null}"><path d="M28.53871,431.04871c0,0 18.62261,-42.6388 30.82934,-61.64343c11.87878,-18.49409 44.60218,-48.97301 44.60218,-48.97301l55.09282,33.62278c0,0 -12.93006,40.59886 -24.60952,58.78256c-12.37478,19.26623 -46.09979,54.71593 -46.09979,54.71593z" fill="#696969" stroke="#000000" stroke-width="2"/><path d="M48.87616,442.73325l71.74062,-111.69274l20.98777,12.8087l-71.74057,111.69267z" fill="url(#color-6)" stroke="none" stroke-width="0"/><path d="M74.14031,460.4761c-3.09833,-0.46708 -2.38872,-3.65325 -2.38872,-3.65325l1.05805,-4.51377c-0.9751,-6.20103 -3.90814,-11.34886 -5.57878,-17.30534c-1.11009,-3.95786 -0.91715,-8.15594 -1.78969,-12.13779c-0.9544,-4.35575 -3.25678,-8.1474 -2.53892,-12.9695c1.80821,-12.14632 13.75701,-23.17395 25.1433,-23.9834c6.35,-0.75684 12.58294,-2.71173 18.90256,-3.26251c1.06437,-0.09277 5.8312,-0.03573 7.39981,-1.16063c2.51655,-1.80463 3.94278,-8.87933 4.37593,-11.04221c2.4304,-12.13582 -2.30644,-24.20636 -0.36061,-36.49765c0,0 0.53453,-3.20736 3.66777,-2.92002c3.13333,0.28738 2.59887,3.49475 2.59887,3.49475c-2.19048,12.33121 2.84623,24.32064 0.33681,36.63222c-0.92037,4.51575 -2.82332,12.29408 -7.11057,15.40442c-4.33567,3.14559 -9.45056,1.96295 -14.15584,2.83929c-5.24798,0.97735 -10.28272,2.29675 -15.5888,2.92695c-8.31772,0.44549 -17.65101,8.97591 -18.91608,17.9712c-0.54138,3.84926 1.68964,7.1757 2.44908,10.66359c0.84762,3.89307 0.63871,8.02985 1.72646,11.88356c1.88326,6.672 4.88714,12.1949 5.78993,19.22929l-1.21259,5.68173c0,0 -0.70965,3.18614 -3.80795,2.71916z" fill="#000000" stroke="none" stroke-width="0.5"/><path d="M28.53871,431.04871c0,0 18.62261,-42.6388 30.82934,-61.64343c11.87878,-18.49409 44.60218,-48.97301 44.60218,-48.97301l55.09282,33.62278c0,0 -12.93006,40.59886 -24.60952,58.78256c-12.37478,19.26623 -46.09979,54.71593 -46.09979,54.71593z" fill="#0096ff" stroke="#000000" stroke-width="2"/></g></g><path d="M243.06668,283.25163c49.63728,1.07477 157.52195,73.86824 157.52195,164.98934c0,29.70893 -7.49674,57.58387 -20.61715,81.6626c-27.12139,49.77393 -245.39822,50.61399 -272.77316,1.87342c-13.76121,-24.50156 -21.65361,-53.05342 -21.65361,-83.53602c0,-91.1211 98.90606,-166.25854 157.52198,-164.98933z" fill="#696969" stroke="#000000" stroke-width="2" stroke-linecap="butt"/><path d="M137.30582,341.57934v-14.63129h206.76917v14.63129z" fill="url(#color-7)" stroke="none" stroke-width="0" stroke-linecap="butt"/><path d="M232.93054,401.88259l62.48118,-69.50852l11.81343,7.01718l-62.48118,69.50852z" fill="url(#color-8)" stroke="none" stroke-width="0" stroke-linecap="butt"/><path d="M237.58339,410.03256l-62.48118,-69.50852l11.81343,-7.01718l62.48121,69.50856z" data-paper-data="{&quot;index&quot;:null}" fill="url(#color-9)" stroke="none" stroke-width="0" stroke-linecap="butt"/><path d="M232.10623,566.21354v-171.95911h17.41817v171.95911z" fill="url(#color-10)" stroke="none" stroke-width="0" stroke-linecap="butt"/><path d="M264.2024,397.083c0.71836,-2.56314 4.3516,-2.05639 4.3516,-2.05639l2.83736,0.45924c1.38493,0.43759 2.76974,0.87515 4.15468,1.31275c7.15523,4.0659 14.07004,9.44467 20.43001,14.64417c2.60393,-0.91172 4.90443,-2.27909 6.71471,-4.26681c4.23264,-4.64776 -0.34798,-9.76414 -1.34014,-14.43875c-1.2087,-5.69489 1.01504,-11.56597 0.00063,-17.28541c-1.47788,-8.33257 -10.45069,-16.94331 -17.93731,-23.18471c-7.1465,-6.05673 -20.55032,-7.03132 -26.22089,-13.59054c-4.7803,-5.52942 -1.86487,-12.3538 -4.9546,-18.07396c-0.48689,2.46222 -1.63017,4.8182 -3.65954,7.0029c-5.00706,5.3904 -15.56689,10.67194 -23.19569,13.95308c-4.95376,2.13058 -14.12299,3.85654 -17.98624,7.04292c-2.9719,2.45114 -3.57679,5.93733 -5.44153,8.88229c-7.32599,11.56982 -19.26853,24.77888 -0.97519,33.94393c4.1111,2.05969 7.65152,3.33351 12.72609,3.26102h1.65284c0,0 3.70365,0 3.70365,2.61272c0,2.61272 -3.70365,2.61273 -3.70365,2.61273h-1.65284c-13.32576,-0.13644 -32.21678,-9.68516 -30.95587,-20.4538c0.94871,-8.10239 7.81413,-16.79932 12.44177,-24.1078c0.53551,-0.84579 6.15337,-9.80166 6.64262,-10.20208c4.53445,-3.71108 13.90262,-5.57228 19.69732,-8.05569c6.78323,-2.90708 16.43101,-7.66962 20.93469,-12.44131c4.32126,-4.57852 3.09987,-10.86373 0.29985,-17.15462c-4.90664,-5.48844 -10.88276,-10.50716 -18.01163,-14.11963c0,0 -2.99866,-1.53346 -0.8249,-3.64881c2.17367,-2.11539 5.17232,-0.58196 5.17232,-0.58196c1.87441,0.96631 3.68727,2.01862 5.43572,3.1437c-0.29681,-0.58084 -0.56906,-1.14222 -0.81074,-1.68146c0,0 -1.11639,-2.49124 2.41496,-3.27877c3.53137,-0.78756 4.64773,1.70366 4.64773,1.70366c2.0641,4.60595 5.41776,9.91764 8.01199,15.35563c4.05467,4.42817 7.4291,9.15458 10.04565,13.80007c3.19114,5.66573 0.40262,12.4856 4.75529,17.86655c2.59408,3.2069 9.76964,3.98225 13.89985,5.6597c4.45282,1.80847 8.24162,4.42273 11.57439,7.18144c8.44731,7.09303 17.91973,16.48091 19.61917,25.87774c1.03525,5.72448 -1.23059,11.62042 0.00057,17.29209c1.36164,6.27277 5.90888,11.60047 0.31273,17.8336c-2.25095,2.50722 -5.0219,4.31151 -8.13381,5.58051c0.11829,0.09783 0.23631,0.19544 0.35403,0.29283c4.55522,3.76666 7.42142,7.7597 13.57175,10.41423c19.15211,8.26618 22.22882,-13.41963 19.71892,-21.5389c-10.87185,-21.14163 -24.94177,-43.37165 -7.95569,-65.36594c2.43064,-3.14731 5.85075,-5.6007 9.43447,-7.97665c0.20827,1.30368 1.77649,2.31686 3.68015,2.31686c0.22003,0 0.43561,-0.01353 0.64506,-0.03948c0.302,0.42022 0.76014,0.77503 1.32068,1.02652c-3.30392,2.15002 -6.45211,4.38663 -8.57847,7.17602c-15.78874,20.7123 -1.52855,41.62221 8.57228,61.41823c1.60375,5.24483 3.14038,11.51278 0.79296,16.79369c-4.479,10.07604 -17.74349,16.41034 -31.48458,10.65214c-6.96645,-2.9193 -10.28202,-7.2791 -15.35239,-11.48482c-0.66881,-0.55479 -1.347,-1.11969 -2.03385,-1.69178c-8.32147,1.36156 -17.81875,0.41201 -26.11623,-0.62324c-1.56849,-0.29739 -3.13694,-0.59483 -4.70543,-0.89223l0.13772,0.09009c0,0 -3.70363,0 -3.70363,-2.61276c0,-2.61272 3.70363,-2.61272 3.70363,-2.61272l1.79044,0.09005c1.4616,0.27887 2.92329,0.55777 4.38491,0.83664c5.74088,0.70888 12.6668,1.62124 19.01604,1.18542c-5.18316,-4.21523 -10.71959,-8.43864 -16.37378,-11.67486c-1.09438,-0.33078 -2.18866,-0.6616 -3.28291,-0.99238l-1.29457,-0.11709c0,0 -3.63327,-0.50676 -2.91501,-3.06984z" fill="#000000" stroke="none" stroke-width="0.5" stroke-linecap="butt"/><path d="M229.78947,408.68255c2.04485,2.34228 -2.09255,3.49991 -2.09255,3.49991l-2.91961,0.66841c-7.41172,4.07943 -11.78117,9.6024 -17.16554,14.62446c-19.66788,18.14909 -64.08054,15.95699 -80.82213,-2.91535c-9.40339,-10.60019 -0.18475,-27.00637 10.51619,-35.99684c15.95688,-15.27244 17.5636,-28.27662 9.74319,-45.18306c-1.98933,-4.30065 -6.24252,-10.91637 -13.46375,-14.09942c1.20529,-0.49914 1.73446,-1.24803 1.73446,-1.24803c0.74695,-1.09698 1.6887,-2.17228 2.86051,-3.1503c7.03487,2.8921 11.69273,7.74278 15.03566,12.52617c13.22669,18.92595 9.94316,36.59437 -8.10546,53.94468c-9.23416,7.74427 -15.37308,19.24558 -11.78521,28.79697c1.00052,2.66353 4.82287,4.7752 8.03803,6.5615c5.70262,3.1682 11.69169,7.22207 19.9875,8.25197c16.38905,2.03472 30.33453,-2.61102 38.37046,-10.1995c5.8538,-5.45968 10.60768,-11.11332 18.56711,-15.62938l5.31884,-1.63669c0,0 4.13739,-1.15766 6.18229,1.18462z" fill="#000000" stroke="none" stroke-width="0.5" stroke-linecap="butt"/><path d="M244.60019,398.30464c2.61273,0 2.61273,3.59311 2.61273,3.59311l-0.13696,2.73322c-1.90857,7.7584 -2.60685,16.23734 -5.06079,23.74306c-1.34776,4.12225 -5.37343,9.75833 -5.00968,14.90651c0.37427,5.29788 4.23537,10.03219 6.62227,13.67332c5.3848,8.21429 11.91204,14.58287 17.45775,22.66023c1.10059,3.83145 2.72255,7.67518 2.12173,12.0541c-2.16504,15.77985 -19.08483,24.72699 -27.90689,32.39467c-2.57014,2.23383 -6.21144,2.79169 -7.90076,6.26818c-0.50132,1.03164 0.296,2.45195 0.52939,3.65055c1.22173,6.27477 2.61121,11.14386 5.25707,16.53015c2.6034,5.29985 4.89694,8.54857 8.77093,12.04516c0,0 2.18163,1.97712 0.74395,4.97739c-1.43769,3.00027 -3.61929,1.02307 -3.61929,1.02307c-4.42153,-4.02172 -7.25601,-7.96694 -10.22682,-14.02547c-2.66029,-5.42524 -8.95426,-20.22398 -6.11423,-27.45488c0.45178,-1.15021 8.52092,-8.00486 9.76812,-9.08883c8.42975,-7.32669 28.89483,-17.41189 24.17271,-34.50643c-7.64592,-10.70856 -23.81223,-23.08256 -24.89106,-39.75017c-0.45059,-6.96145 3.59211,-12.63161 5.4841,-18.38015c2.37803,-7.22543 3.01803,-15.52294 4.85004,-23.01672l-0.13697,-0.437c0,0 0,-3.59309 2.61273,-3.59309z" fill="#000000" stroke="none" stroke-width="0.5" stroke-linecap="butt"/><g><path d="M200.59712,433.29288v-71.06617h74.02725v71.06617z" fill="#323232" stroke="none" stroke-width="0" stroke-linecap="butt"/><g stroke="#000000"><path d="M237.33318,367.24619c15.81493,0 28.63548,12.82056 28.63548,28.63551c0,15.81493 -12.82058,28.63548 -28.63548,28.63548c-15.81493,0 -28.63548,-12.82058 -28.63548,-28.63548c0,-15.81493 12.82058,-28.63551 28.63548,-28.63551z" fill="#878787" stroke-width="1" stroke-linecap="butt"/><path d="M259.63167,378.21587l-44.19242,0.29862" fill="none" stroke-width="1.5" stroke-linecap="round"/><path d="M263.51343,386.27803l-51.65733,-0.29859" fill="none" stroke-width="1.5" stroke-linecap="round"/><path d="M209.16868,392.24979l55.24052,1.19441" fill="none" stroke-width="1.5" stroke-linecap="round"/><path d="M265.42941,399.26677l-56.13629,-0.59718" fill="none" stroke-width="1.5" stroke-linecap="round"/><path d="M250.74266,371.64906l-25.72532,-0.32158" fill="none" stroke-width="1.5" stroke-linecap="round"/><path d="M259.28329,413.72833l-44.19239,-0.29861" data-paper-data="{&quot;index&quot;:null}" fill="none" stroke-width="1.5" stroke-linecap="round"/><path d="M211.50773,405.96478l51.65732,-0.29859" data-paper-data="{&quot;index&quot;:null}" fill="none" stroke-width="1.5" stroke-linecap="round"/><path d="M250.39428,420.29518l-25.72532,0.32154" data-paper-data="{&quot;index&quot;:null}" fill="none" stroke-width="1.5" stroke-linecap="round"/></g></g><path d="M358.97411,334.5225c0,8.45808 -6.85658,15.31463 -15.31459,15.31463c-8.45801,0 -15.31463,-6.85662 -15.31463,-15.31463c0,-8.45804 6.85658,-15.31459 15.31463,-15.31459c8.45801,0 15.31459,6.85656 15.31459,15.31459z" fill="url(#color-11)" stroke="none" stroke-width="0" stroke-linecap="butt"/><path d="M155.88034,334.5225c0,8.45808 -6.8566,15.31463 -15.31459,15.31463c-8.45801,0 -15.31463,-6.85662 -15.31463,-15.31463c0,-8.45804 6.8566,-15.31459 15.31463,-15.31459c8.45801,0 15.31459,6.85656 15.31459,15.31459z" fill="url(#color-12)" stroke="none" stroke-width="0" stroke-linecap="butt"/><path d="M246.17525,282.21545c0.12133,0.00156 0.80506,37.1393 1.55896,84.579c-3.26625,-1.16575 -6.78466,-1.80062 -10.45138,-1.80062c-17.16817,0 -31.08578,13.9176 -31.08578,31.08578c0,17.16819 13.91761,31.08578 31.08578,31.08578c3.99818,0 7.82007,-0.75482 11.33093,-2.12972c1.01381,70.95907 1.79756,141.73009 1.05539,141.68642c-62.22534,-3.66148 -125.46066,-11.22971 -139.36225,-35.98129c-13.76121,-24.50156 -21.65361,-53.05342 -21.65361,-83.53601c0,-91.12111 98.90607,-166.25855 157.52198,-164.98934z" fill="#0096ff" stroke="#000000" stroke-width="2" stroke-linecap="butt"/><path d="M396.60143,448.24097c0,30.48263 -7.8924,59.03445 -21.65361,83.53602c-13.90159,24.75156 -77.13688,32.31979 -139.36225,35.98126c-0.73838,0.04343 0.03364,-70.0066 1.03987,-140.59968c0.21857,0.00453 0.43772,0.00681 0.65741,0.00681c17.16819,0 31.08578,-13.91761 31.08578,-31.08578c0,-17.07384 -13.76501,-30.93267 -30.80297,-31.0845c0.73586,-46.07568 1.39491,-81.74193 1.51378,-81.74345c58.61594,-1.26921 157.52201,73.86824 157.52201,164.98934z" data-paper-data="{&quot;index&quot;:null}" fill="#0096ff" stroke="#000000" stroke-width="2" stroke-linecap="butt"/><path d="M245.65906,172.88516c48.6753,11.10821 80.639,52.95781 71.39286,93.47369c-9.24614,40.51588 -56.20076,64.3555 -104.8761,53.24728c-48.67534,-11.10822 -80.63901,-52.9578 -71.39286,-93.47368c9.24614,-40.51588 56.20077,-64.35551 104.8761,-53.24729z" fill="#696969" stroke="#000000" stroke-width="2" stroke-linecap="butt"/><path d="M243.80249,184.508c42.20405,9.6314 70.13625,44.96178 62.38833,78.91256c-7.74792,33.9508 -48.242,53.66557 -90.44605,44.03417c-42.20405,-9.6314 -70.13622,-44.96178 -62.3883,-78.91255c7.74793,-33.95081 48.24196,-53.66558 90.44601,-44.03418z" fill="none" stroke="url(#color-13)" stroke-width="4.5" stroke-linecap="butt"/><g stroke="none" stroke-width="0" stroke-linecap="butt"><path d="M198.79705,258.18818l14.4164,-63.17153l60.11484,13.71883l-14.4164,63.17153z" fill="url(#color-14)"/><path d="M258.88209,227.41371l4.1854,-18.3401l7.13224,1.62765l-4.1854,18.3401z" fill="#ffffff"/><path d="M254.11534,248.30124l4.1854,-18.3401l7.13224,1.62765l-4.1854,18.3401z" fill="#ffffff"/><path d="M249.46489,268.67917l4.1854,-18.3401l7.13224,1.62765l-4.1854,18.3401z" fill="#ffffff"/><path d="M211.6197,216.09192l4.1854,-18.3401l7.13227,1.62766l-4.1854,18.3401z" fill="#ffffff"/><path d="M206.85294,236.97951l4.1854,-18.3401l7.13227,1.62766l-4.1854,18.3401z" fill="#ffffff"/><path d="M202.20249,257.35741l4.1854,-18.34011l7.13227,1.62766l-4.1854,18.34011z" fill="#ffffff"/><path d="M230.80839,264.31435l1.39514,-6.11338l13.75508,3.13905l-1.39514,6.11338z" fill="#ffffff"/><path d="M214.97083,260.59286l1.39514,-6.11338l13.7551,3.13906l-1.39514,6.11338z" fill="#ffffff"/></g><path d="M141.56927,227.38406c9.24614,-40.51588 56.20076,-64.35548 104.8761,-53.24726c25.43507,5.80455 -69.13526,-2.92844 -85.98831,65.63294c-15.20201,57.66694 57.93662,61.53625 52.62224,62.81004c5.45363,5.40427 2.72839,17.49812 -3.54309,16.06691c-48.67534,-11.10822 -77.21305,-50.74666 -67.9669,-91.26255z" fill="#0096ff" stroke="#000000" stroke-width="2" stroke-linecap="butt"/><path d="M319.89866,267.36603c-9.24614,40.51588 -52.15479,63.84956 -100.83008,52.74136c-6.27147,-1.43122 -3.48028,-13.51 3.77794,-16.01327c5.50713,2.75586 63.72732,16.10993 74.66116,-33.76269c14.55928,-69.0848 -74.43693,-102.2436 -49.00185,-96.43906c48.67533,11.10821 80.63898,52.9578 71.39284,93.47369z" data-paper-data="{&quot;index&quot;:null}" fill="#0096ff" stroke="#000000" stroke-width="2" stroke-linecap="butt"/><path d="M259.73169,124.64793c59.48946,13.57611 100.54939,55.98174 91.70992,94.71562c-8.83947,38.73388 -34.09579,66.44502 -123.72049,45.55221c-94.67096,-22.06917 -100.54936,-55.98173 -91.70988,-94.71565c8.83947,-38.73388 64.23099,-59.12829 123.72045,-45.55218z" fill="#696969" stroke="#000000" stroke-width="2" stroke-linecap="butt"/><path d="M210.85956,218.06839l14.9977,-65.71877l52.98257,12.09117l-14.9977,65.71877z" fill="url(#color-15)" stroke="none" stroke-width="0" stroke-linecap="butt"/><path d="M209.00779,216.37591l-3.20882,-77.34032l12.99786,0.04058l3.20881,77.34035z" fill="url(#color-16)" stroke="none" stroke-width="0" stroke-linecap="butt"/><path d="M253.43815,226.21088l36.77655,-69.75086l11.7159,5.65804l-36.77659,69.75089z" data-paper-data="{&quot;index&quot;:null}" fill="url(#color-17)" stroke="none" stroke-width="0" stroke-linecap="butt"/><path d="M195.27174,218.26293l4.30167,-18.84957l83.03998,18.95058l-4.30167,18.84957z" fill="url(#color-18)" stroke="none" stroke-width="0" stroke-linecap="butt"/><path d="M181.62238,220.3487c-2.59942,0.26308 -2.86252,-2.33641 -2.86252,-2.33641l-0.05609,-0.9266c-0.75332,-2.71835 -1.19361,-6.37071 -2.66945,-8.84799c-0.56988,-0.95651 -3.17886,-2.90562 -3.67424,-3.514c-6.8096,-8.36302 -17.66256,-23.09784 -7.06318,-32.49699c3.54906,-0.32153 14.14509,0.8831 16.17135,-3.66585c2.87652,-6.45779 -0.64657,-13.02963 4.11606,-19.40651c5.51612,-7.38582 16.30785,-9.5107 24.74031,-12.02613c0,0 2.50377,-0.74669 3.25044,1.7571c0.74667,2.50378 -1.75708,3.25042 -1.75708,3.25042c-7.10559,2.11835 -17.36442,3.86171 -22.02006,10.1091c-5.78595,7.7641 1.56249,19.4062 -10.0209,23.73364c-1.22535,0.45777 -2.55759,0.57497 -3.85762,0.71948c-1.92142,0.21362 -6.43927,0.29352 -8.60161,0.34761c-2.51419,2.34638 -0.92186,7.33896 -0.00777,10.20817c2.40795,7.55802 9.25961,11.77037 13.14084,18.19126c1.80725,2.98989 2.36864,6.92731 3.28847,10.24489l0.21942,1.79628c0,0 0.26304,2.59945 -2.33641,2.86252z" fill="#000000" stroke="none" stroke-width="0.5" stroke-linecap="butt"/><path d="M160.90508,224.20462c-2.52959,-0.6539 -1.87567,-3.18345 -1.87567,-3.18345l0.26842,-0.88866c0.23522,-2.81097 1.08775,-6.38965 0.56161,-9.22479c-0.20316,-1.09471 -1.97517,-3.82706 -2.22906,-4.56944c-3.49011,-10.20439 -8.56536,-27.78686 4.63416,-32.93124c3.44066,0.92807 12.96287,5.72954 16.43975,2.16442c4.93588,-5.06108 3.90812,-12.4465 10.5852,-16.77821c7.73353,-5.01703 18.59301,-3.27115 27.37471,-2.70895c0,0 2.60741,0.16707 2.44027,2.77446c-0.16711,2.6074 -2.77449,2.44022 -2.77449,2.44022c-7.3994,-0.47485 -17.62681,-2.39404 -24.1587,1.85322c-8.11766,5.27841 -5.25831,18.74546 -17.62354,18.79135c-1.30808,0.00483 -2.59837,-0.34682 -3.86791,-0.66171c-1.8764,-0.46538 -6.14205,-1.9558 -8.1892,-2.65425c-3.1714,1.32994 -3.40768,6.5649 -3.54432,9.57313c-0.35996,7.92417 4.60774,14.24959 6.0238,21.61753c0.6594,3.43084 -0.1783,7.31884 -0.46496,10.74965l-0.41654,1.76106c0,0 -0.65388,2.52953 -3.1835,1.87562z" fill="#000000" stroke="none" stroke-width="0.5" stroke-linecap="butt"/><path d="M284.99657,238.40009l0.97704,-1.52327c2.26804,-2.59007 4.48199,-5.89416 7.40741,-7.80398c6.28252,-4.1014 14.28324,-4.92426 19.73167,-10.68939c2.06834,-2.18854 5.66889,-5.99612 4.42158,-9.20089c-1.92477,-0.98681 -5.96068,-3.01875 -7.59922,-4.0448c-1.10863,-0.69419 -2.25812,-1.37775 -3.16354,-2.32178c-8.55921,-8.92418 3.11234,-16.22573 1.2675,-25.73122c-1.48443,-7.64858 -9.97129,-13.66998 -15.45437,-18.66117c0,0 -1.93197,-1.75892 -0.17305,-3.69089c1.75896,-1.93197 3.69092,-0.17301 3.69092,-0.17301c6.50636,5.92458 15.30783,12.52087 17.0737,21.56852c1.52463,7.81167 -4.50067,12.20453 -4.71051,19.27089c-0.14779,4.97764 9.92175,8.48906 12.97995,10.31844c5.47243,13.06691 -10.69839,21.63467 -20.46193,26.21547c-0.71027,0.33327 -3.90656,0.95752 -4.83494,1.57212c-2.40443,1.59176 -4.38564,4.69151 -6.24363,6.81393l-0.45254,0.81052c0,0 -1.36472,2.228 -3.59269,0.86325c-2.22797,-1.36474 -0.86325,-3.59272 -0.86325,-3.59272z" data-paper-data="{&quot;index&quot;:null}" fill="#000000" stroke="none" stroke-width="0.5" stroke-linecap="butt"/><path d="M300.7986,251.38368l0.3887,-1.76742c1.23012,-3.21549 2.16212,-7.08201 4.24459,-9.88709c4.47224,-6.02415 11.69227,-9.56821 14.80566,-16.86402c1.18192,-2.76968 3.24015,-7.58891 0.95966,-10.16299c-2.14748,-0.25875 -6.63737,-0.76648 -8.52994,-1.16117c-1.28048,-0.26706 -2.59559,-0.50998 -3.77203,-1.08178c-11.12112,-5.40573 -2.70244,-16.29904 -7.72655,-24.5765c-4.04259,-6.66051 -14.0901,-9.36822 -20.9629,-12.15043c0,0 -2.42175,-0.98054 -1.44116,-3.40229c0.9806,-2.42175 3.40234,-1.44116 3.40234,-1.44116c8.15612,3.30319 18.69789,6.44129 23.48926,14.31666c4.13681,6.79956 0.0068,13.00795 2.25838,19.70926c1.58603,4.7205 12.24853,4.52541 15.75117,5.18188c9.66094,10.36135 -2.53954,24.00136 -10.11111,31.68136c-0.55081,0.5587 -3.33278,2.25182 -3.99075,3.15004c-1.70401,2.3262 -2.4884,5.92042 -3.49596,8.55513l-0.14371,0.9171c0,0 -0.50818,2.56282 -3.07102,2.0546c-2.56284,-0.50824 -2.0546,-3.07101 -2.0546,-3.07101z" data-paper-data="{&quot;index&quot;:null}" fill="#000000" stroke="none" stroke-width="0.5" stroke-linecap="butt"/><path d="M143.65731,223.66295l4.19139,-18.36635l176.77839,40.34266l-4.19139,18.36635c0,0 -34.7433,13.95465 -91.30734,0.5745c-62.27072,-14.73007 -85.47104,-40.91715 -85.47104,-40.91715z" fill="url(#color-19)" stroke="none" stroke-width="0" stroke-linecap="butt"/><path d="M210.73459,173.9922l7.78951,-34.13301l72.85102,16.62536l-7.78951,34.13301z" fill="url(#color-20)" stroke="#000000" stroke-width="0" stroke-linecap="butt"/><path d="M224.42394,138.421c11.40365,2.60243 18.60235,13.67648 16.07879,24.73452c-2.52356,11.05806 -13.81379,17.91272 -25.21743,15.31029c-11.40365,-2.60243 -18.60235,-13.67644 -16.07878,-24.73451c2.52356,-11.05806 13.81378,-17.91272 25.21742,-15.31029z" fill="#ffffff" stroke="#000000" stroke-width="2" stroke-linecap="butt"/><path d="M255.88409,125.19953c1.21672,0.27767 -8.13165,43.65649 -16.83208,81.01534c-0.52252,-0.54827 -1.25892,-0.7679 -1.25892,-0.7679c-12.88731,-3.78297 -54.65831,-12.90165 -62.55563,-14.94804c-14.10971,-4.09172 -30.10578,-6.7378 -42.69728,-14.53521c0.44051,-2.65641 0.97659,-5.31211 1.58038,-7.95791c8.45702,-37.05799 62.97239,-56.22301 121.7635,-42.80627zM214.53659,179.99962c12.55343,2.86482 25.05234,-4.98932 27.91716,-17.54275c2.86482,-12.55342 -4.98932,-25.05234 -17.54274,-27.91716c-12.55343,-2.86482 -25.05235,4.98932 -27.91717,17.54274c-2.86482,12.55343 4.98932,25.05235 17.54275,27.91718z" fill="#0096ff" stroke="#000000" stroke-width="2" stroke-linecap="butt"/><path d="M196.93618,152.06929c2.86482,-12.55343 15.43456,-20.45206 27.98799,-17.58724c12.55343,2.86482 20.45207,15.43456 17.58725,27.98799c-2.86482,12.55343 -15.43456,20.45207 -27.98798,17.58725c-12.55343,-2.86482 -20.45207,-15.43456 -17.58725,-27.98799z" data-paper-data="{&quot;noHover&quot;:false,&quot;origItem&quot;:[&quot;Path&quot;,{&quot;applyMatrix&quot;:true,&quot;segments&quot;:[[[384.72744,349.27406],[-21.77325,0],[21.77325,0]],[[424.15135,309.85014],[0,21.77325],[0,-21.77325]],[[384.72744,270.42623],[21.77325,0],[-21.77325,0]],[[345.30352,309.85014],[0,-21.77325],[0,21.77325]]],&quot;closed&quot;:true,&quot;fillColor&quot;:[0,0,0,1]}]}" fill="#000000" stroke="none" stroke-width="0.5" stroke-linecap="butt"/><path d="M226.06283,259.30088c-84.74726,-13.70558 -98.03841,-46.20934 -93.98367,-79.42964c12.84191,7.24697 28.41277,10.02779 42.46676,14.11045c8.12066,2.10413 50.15301,11.17668 62.8466,15.01157c0,0 0.95854,0.2858 1.81111,-0.04042c-6.37582,27.24261 -12.23291,50.49482 -13.14072,50.34804z" fill="#0096ff" stroke="#000000" stroke-width="2" stroke-linecap="butt"/><path d="M283.25794,151.24094c11.40365,2.60243 18.60234,13.67648 16.07878,24.73451c-2.52356,11.05806 -13.8138,17.91272 -25.21742,15.31029c-11.40365,-2.60243 -18.60235,-13.67644 -16.07878,-24.73451c2.52356,-11.05806 13.81378,-17.91272 25.21742,-15.31029z" fill="#ffffff" stroke="#000000" stroke-width="2" stroke-linecap="butt"/><path d="M259.91907,126.91747c58.7911,13.41674 99.59495,54.33459 91.13793,91.39258c-0.6038,2.6458 -1.27292,5.27115 -2.02844,7.85566c-14.72764,1.5629 -30.28795,-2.9925 -44.77587,-5.42707c-8.00327,-1.58226 -49.59468,-11.48778 -62.84725,-13.67019c0,0 -0.75876,-0.12157 -1.4674,0.14573c8.36823,-37.4347 18.76428,-80.57439 19.981,-80.29672zM301.3162,176.68711c2.86481,-12.55339 -4.98936,-25.05236 -17.54274,-27.91717c-12.55339,-2.86481 -25.05236,4.98936 -27.91718,17.54275c-2.86481,12.55339 4.98936,25.05236 17.54275,27.91718c12.55339,2.86481 25.05235,-4.98936 27.91716,-17.54275z" data-paper-data="{&quot;index&quot;:null}" fill="#0096ff" stroke="#000000" stroke-width="2" stroke-linecap="butt"/><path d="M273.38588,194.28752c-12.55339,-2.86481 -20.45206,-15.43459 -17.58725,-27.98799c2.86481,-12.55339 15.43459,-20.45206 27.98799,-17.58725c12.55339,2.86481 20.45206,15.43459 17.58725,27.98799c-2.86481,12.55339 -15.43459,20.45206 -27.98798,17.58725z" data-paper-data="{&quot;noHover&quot;:false,&quot;origItem&quot;:[&quot;Path&quot;,{&quot;applyMatrix&quot;:true,&quot;segments&quot;:[[[526.54509,311.16443],[0,21.7732],[0,-21.7732]],[[487.12118,271.74051],[21.7732,0],[-21.7732,0]],[[447.69726,311.16443],[0,-21.7732],[0,21.7732]],[[487.12118,350.58835],[-21.7732,0],[21.7732,0]]],&quot;closed&quot;:true,&quot;fillColor&quot;:[0,0,0,1]}]}" fill="#000000" stroke="none" stroke-width="0.5" stroke-linecap="butt"/><path d="M228.61099,260.67953c-0.88161,-0.26156 3.92862,-23.75271 10.0026,-51.06419c0.62664,0.66378 1.61427,0.82211 1.61427,0.82211c13.10056,2.0516 54.90746,12.11203 63.13697,13.73919c14.43376,2.41849 29.66948,6.66808 44.38388,5.70976c-10.75856,31.69041 -36.83484,55.2101 -119.13765,30.79315z" data-paper-data="{&quot;index&quot;:null}" fill="#0096ff" stroke="#000000" stroke-width="2" stroke-linecap="butt"/><path d="M284.17197,173.28146c-0.72667,3.18422 -3.76799,5.2059 -6.793,4.51556c-3.02501,-0.69034 -4.88817,-3.83127 -4.1615,-7.01549c0.72667,-3.18422 3.76799,-5.2059 6.793,-4.51556c3.02501,0.69034 4.88817,3.83127 4.1615,7.01549z" fill="#000000" stroke="#ff0000" stroke-width="1" stroke-linecap="butt"/><path d="M226.07173,159.4158c-0.72667,3.18422 -3.76799,5.2059 -6.793,4.51556c-3.02501,-0.69034 -4.88817,-3.83127 -4.1615,-7.01549c0.72667,-3.18422 3.76799,-5.2059 6.793,-4.51556c3.02501,0.69034 4.88817,3.83127 4.1615,7.01549z" fill="#000000" stroke="#ff0000" stroke-width="1" stroke-linecap="butt"/></g></g></svg>