<svg version="1.1" xmlns="http://www.w3.org/2000/svg" xmlns:xlink="http://www.w3.org/1999/xlink" width="935.26798" height="834.43309" viewBox="0,0,935.26798,834.43309"><defs><linearGradient x1="235.46398" y1="367.65214" x2="235.40279" y2="390.83127" gradientUnits="userSpaceOnUse" id="color-1"><stop offset="0" stop-color="#5c5c5c"/><stop offset="1" stop-color="#9b9b9b"/></linearGradient><linearGradient x1="272.46405" y1="440.38389" x2="291.14307" y2="454.10851" gradientUnits="userSpaceOnUse" id="color-2"><stop offset="0" stop-color="#5c5c5c"/><stop offset="1" stop-color="#9b9b9b"/></linearGradient><linearGradient x1="199.56068" y1="442.39899" x2="180.80948" y2="456.025" gradientUnits="userSpaceOnUse" id="color-3"><stop offset="0" stop-color="#5c5c5c"/><stop offset="1" stop-color="#9b9b9b"/></linearGradient><linearGradient x1="221.17417" y1="626.69176" x2="248.7683" y2="626.76459" gradientUnits="userSpaceOnUse" id="color-4"><stop offset="0" stop-color="#5c5c5c"/><stop offset="1" stop-color="#9b9b9b"/></linearGradient><linearGradient x1="240.97129" y1="286.86861" x2="240.87452" y2="323.53148" gradientUnits="userSpaceOnUse" id="color-5"><stop offset="0" stop-color="#a6a6a6"/><stop offset="1" stop-color="#707070"/></linearGradient><linearGradient x1="239.93826" y1="277.67932" x2="239.89459" y2="294.22598" gradientUnits="userSpaceOnUse" id="color-6"><stop offset="0" stop-color="#a6a6a6"/><stop offset="1" stop-color="#707070"/></linearGradient><linearGradient x1="330.52922" y1="379.42542" x2="364.93343" y2="379.51624" gradientUnits="userSpaceOnUse" id="color-7"><stop offset="0" stop-color="#5c5c5c"/><stop offset="1" stop-color="#9b9b9b"/></linearGradient><linearGradient x1="126.49826" y1="376.73164" x2="92.09406" y2="376.64084" gradientUnits="userSpaceOnUse" id="color-8"><stop offset="0" stop-color="#5c5c5c"/><stop offset="1" stop-color="#9b9b9b"/></linearGradient><linearGradient x1="197.22003" y1="521.99596" x2="272.23726" y2="522.19396" gradientUnits="userSpaceOnUse" id="color-9"><stop offset="0" stop-color="#004184"/><stop offset="1" stop-color="#0023e3"/></linearGradient><linearGradient x1="214.07129" y1="367.76993" x2="256.56251" y2="367.88209" gradientUnits="userSpaceOnUse" id="color-10"><stop offset="0" stop-color="#004184"/><stop offset="1" stop-color="#0023e3"/></linearGradient><linearGradient x1="275.97987" y1="222.59018" x2="273.6795" y2="301.4513" gradientUnits="userSpaceOnUse" id="color-11"><stop offset="0" stop-color="#a6a6a6"/><stop offset="1" stop-color="#707070"/></linearGradient><linearGradient x1="200.24666" y1="221.78501" x2="197.9463" y2="300.64619" gradientUnits="userSpaceOnUse" id="color-12"><stop offset="0" stop-color="#a6a6a6"/><stop offset="1" stop-color="#707070"/></linearGradient><linearGradient x1="234.4585" y1="149.05262" x2="233.70215" y2="181.67313" gradientUnits="userSpaceOnUse" id="color-13"><stop offset="0" stop-color="#a6a6a6"/><stop offset="1" stop-color="#707070"/></linearGradient><linearGradient x1="240.3879" y1="169.8883" x2="238.93163" y2="232.69493" gradientUnits="userSpaceOnUse" id="color-14"><stop offset="0" stop-color="#a6a6a6"/><stop offset="1" stop-color="#707070"/></linearGradient><linearGradient x1="193.72478" y1="152.42487" x2="210.89716" y2="229.428" gradientUnits="userSpaceOnUse" id="color-15"><stop offset="0" stop-color="#a6a6a6"/><stop offset="1" stop-color="#707070"/></linearGradient><linearGradient x1="288.21721" y1="157.05155" x2="267.49431" y2="233.17597" gradientUnits="userSpaceOnUse" id="color-16"><stop offset="0" stop-color="#a6a6a6"/><stop offset="1" stop-color="#707070"/></linearGradient><linearGradient x1="238.56335" y1="218.07234" x2="238.14566" y2="236.08663" gradientUnits="userSpaceOnUse" id="color-17"><stop offset="0" stop-color="#a6a6a6"/><stop offset="1" stop-color="#707070"/></linearGradient><linearGradient x1="-41.45155" y1="332.41646" x2="-70.11593" y2="302.36583" gradientUnits="userSpaceOnUse" id="color-18"><stop offset="0" stop-color="#5c5c5c"/><stop offset="1" stop-color="#9b9b9b"/></linearGradient><linearGradient x1="-149.79407" y1="309.14877" x2="-140.01726" y2="276.93903" gradientUnits="userSpaceOnUse" id="color-19"><stop offset="0" stop-color="#5c5c5c"/><stop offset="1" stop-color="#9b9b9b"/></linearGradient><linearGradient x1="21.03004" y1="363.2054" x2="31.32595" y2="331.15783" gradientUnits="userSpaceOnUse" id="color-20"><stop offset="0" stop-color="#5c5c5c"/><stop offset="1" stop-color="#9b9b9b"/></linearGradient><linearGradient x1="498.21052" y1="339.77144" x2="527.77345" y2="310.60445" gradientUnits="userSpaceOnUse" id="color-21"><stop offset="0" stop-color="#5c5c5c"/><stop offset="1" stop-color="#9b9b9b"/></linearGradient><linearGradient x1="606.52807" y1="323.65312" x2="598.86125" y2="290.87702" gradientUnits="userSpaceOnUse" id="color-22"><stop offset="0" stop-color="#5c5c5c"/><stop offset="1" stop-color="#9b9b9b"/></linearGradient><linearGradient x1="434.82348" y1="368.6503" x2="425.50472" y2="336.30509" gradientUnits="userSpaceOnUse" id="color-23"><stop offset="0" stop-color="#5c5c5c"/><stop offset="1" stop-color="#9b9b9b"/></linearGradient></defs><g transform="translate(239.537,71.61327)"><g data-paper-data="{&quot;isPaintingLayer&quot;:true}" fill-rule="nonzero" stroke-linejoin="miter" stroke-miterlimit="10" stroke-dasharray="" stroke-dashoffset="0" style="mix-blend-mode: normal"><path d="M234.56847,269.47617c22.17328,0.5413 51.77493,54.10558 97.37156,121.05915c34.79514,51.0928 90.57744,107.82596 90.41991,167.50382c-0.36393,137.88153 -84.94285,198.80407 -189.07717,198.52921c-104.13427,-0.27488 -188.3904,-61.64308 -188.02644,-199.52458c0.19392,-73.46863 55.31426,-126.07756 101.15397,-181.92417c40.18953,-48.96294 70.43325,-106.07617 88.15818,-105.64345z" fill="#696969" stroke="#000000" stroke-width="2" stroke-linecap="butt"/><path d="M118.40348,390.52244l0.06118,-23.17913l233.99867,0.61764l-0.06118,23.17913z" fill="url(#color-1)" stroke="none" stroke-width="0" stroke-linecap="butt"/><path d="M222.79332,507.98404l99.34127,-135.2004l18.67895,13.72481l-99.34132,135.20037z" fill="url(#color-2)" stroke="none" stroke-width="0" stroke-linecap="butt"/><path d="M230.12259,523.88647l-98.6262,-135.72299l18.75115,-13.62596l98.6262,135.72299z" data-paper-data="{&quot;index&quot;:null}" fill="url(#color-3)" stroke="none" stroke-width="0" stroke-linecap="butt"/><path d="M220.83677,754.51628l0.6748,-255.64897l27.59419,0.07284l-0.67478,255.64903z" fill="url(#color-4)" stroke="none" stroke-width="0" stroke-linecap="butt"/><path d="M219.81274,521.72037c1.82416,3.71553 -1.89127,5.53967 -1.89127,5.53967l-2.62128,1.05194c-6.66424,6.44511 -10.60613,15.18443 -15.4561,23.12776c-17.71505,28.70557 -57.53743,25.12762 -72.47324,-4.80986c-8.38913,-16.81527 -0.05274,-42.78441 9.58203,-57.00191c14.37481,-24.15709 15.87018,-44.75471 8.92708,-71.55669c-1.76617,-6.8179 -5.55298,-17.30867 -12.01601,-22.36845c1.08305,-0.78792 1.56079,-1.97308 1.56079,-1.97308c0.6745,-1.73608 1.52364,-3.43738 2.57861,-4.98397c6.29712,4.59838 10.45429,12.29396 13.43238,19.87977c11.78324,30.01411 8.76449,57.99695 -7.49496,85.44092c-8.31407,12.24675 -13.8678,30.45277 -10.68997,45.5927c0.88617,4.22196 4.3054,7.57641 7.18151,10.41385c5.10124,5.03261 10.4555,11.46897 17.89132,13.12025c14.68998,3.26226 27.21647,-4.06464 34.4553,-16.06743c5.27281,-8.6355 9.56,-17.58075 16.71729,-24.71638l4.77704,-2.58032c0,0 3.71547,-1.82419 5.53965,1.89132z" fill="#000000" stroke="none" stroke-width="0.5" stroke-linecap="butt"/><path d="M242.92937,505.34049c4.13913,0.01092 4.12821,4.15006 4.12821,4.15006l-0.22529,3.14799c-3.04721,8.92937 -4.17915,18.69386 -8.08962,27.32983c-2.14769,4.74302 -8.54234,11.21869 -7.98177,17.1507c0.57684,6.1045 6.67923,11.57433 10.44952,15.77876c8.50569,9.48495 18.82694,16.84864 27.58795,26.17661c1.73193,4.41826 4.28979,8.85279 3.32462,13.89467c-3.47787,18.16868 -30.30969,28.40463 -44.3091,37.20056c-4.07844,2.56253 -9.8487,3.18994 -12.53557,7.18763c-0.79738,1.18631 0.46147,2.82577 0.82759,4.20748c1.91641,7.23334 4.10285,12.84813 8.27805,19.06399c4.10823,6.11612 7.73181,9.86804 13.85842,13.9122c0,0 3.45016,2.28664 1.16347,5.73681c-2.28673,3.45017 -5.73686,1.1634 -5.73686,1.1634c-6.99239,-4.65131 -11.47085,-9.20796 -16.15885,-16.19951c-4.19796,-6.26076 -14.12403,-23.3345 -9.60285,-31.65235c0.71917,-1.32312 13.52331,-9.18559 15.50252,-10.42906c13.37683,-8.40476 45.82859,-19.93684 38.39973,-39.64882c-12.08022,-12.36777 -37.65354,-26.68974 -39.31196,-45.89452c-0.69265,-8.02111 5.72914,-14.53607 8.74388,-21.15021c3.78928,-8.3134 4.82836,-17.86913 7.75344,-26.49394l-0.21565,-0.504c0,0 0.01092,-4.13908 4.15006,-4.12816z" fill="#000000" stroke="none" stroke-width="0.5" stroke-linecap="butt"/><path d="M333.43503,375.94751c0.52379,4.33313 -3.80931,4.85691 -3.80931,4.85691l-3.19086,0.32574c-11.64551,3.4188 -20.1012,9.12677 -29.78346,16.47443c-0.21336,0.16193 -9.29578,6.15573 -8.71927,8.84443c0.29805,1.39028 2.73631,0.8629 3.95786,1.59059c2.49982,1.48913 4.77822,3.32235 7.14076,5.0209c10.1229,7.27794 23.21177,5.17707 35.5747,5.81335c3.61719,0.37825 7.60907,-0.51262 10.8515,1.13471c2.24251,1.13929 2.74801,4.2175 3.98928,6.40522c2.65766,4.68418 13.55886,21.08972 12.51224,26.12637c-0.78233,3.76453 -5.44605,5.43469 -8.31365,7.99604c-5.62302,5.02259 -14.51618,14.10185 -21.36059,17.08215c-10.41898,4.53679 -31.86097,4.89963 -42.83878,2.65742c-6.50143,-1.3279 -12.47965,-4.54764 -18.71074,-7.02113c-4.61232,6.31758 -10.21237,11.71429 -17.33483,15.04339c-0.48214,1.00178 -2.04169,3.45734 -5.36726,2.3261c-4.13208,-1.40562 -2.72651,-5.53776 -2.72651,-5.53776l3.02872,-4.10027c5.65819,-2.1574 10.14545,-6.09994 13.90756,-10.84073c-1.01092,-0.7693 -1.97348,-2.12811 -1.40409,-4.40615c1.0583,-4.2344 5.29268,-3.17606 5.29268,-3.17606c0.36499,0.09161 0.73047,0.18525 1.09632,0.28088c2.67616,-4.4628 4.98812,-9.15587 7.20483,-13.48364c-1.21024,-8.38355 -10.10714,-6.92637 -17.17215,-7.10119c-2.99549,-0.07413 -6.23976,0.05022 -9.61874,0.25222c5.76435,9.82993 10.62794,19.7298 5.79101,30.42668c-2.43607,5.38748 -4.00929,6.2018 -8.10409,10.23448l-4.30719,2.67804c0,0 -3.71918,2.28418 -6.0034,-1.43503c-2.28424,-3.71917 1.43503,-6.0034 1.43503,-6.0034l3.49681,-2.11486c10.64783,-10.4468 5.03418,-21.68753 -1.6457,-33.14176c-9.69244,0.67086 -19.62701,1.11045 -27.43561,-1.184c-11.70838,-3.44042 -5.93734,-15.96824 -3.95635,-24.02513c4.37574,-17.79617 9.73735,-32.2268 26.2546,-41.68522c2.325,-1.31301 5.96296,-3.12442 9.80306,-5.31052c1.70161,-3.70392 3.68944,-7.29133 6.18197,-10.71908c1.98291,-2.72681 5.45227,-4.3441 4.6015,-8.35981c-2.53039,-11.94343 -17.15484,-22.10278 -22.82502,-32.82358c-8.03051,-15.18351 1.6173,-28.99831 -2.66857,-44.21159c0,0 -1.14965,-4.21049 3.06082,-5.36017c1.26116,-0.34437 2.2477,-0.20781 3.01098,0.15241c0.72797,-1.07093 2.08076,-2.17081 4.46739,-1.62768c4.25581,0.96854 3.28732,5.22438 3.28732,5.22438c-3.28336,14.38494 -6.25763,30.41672 -0.36638,44.71992c5.63444,13.67966 35.04177,24.60043 25.11644,43.43406c-1.623,3.07974 -4.47121,5.36875 -7.061,7.69517c-2.26845,2.03761 -4.95507,3.55512 -7.43632,5.32741c-0.70393,0.50287 -1.41226,0.99985 -2.1247,1.49107c-2.31457,5.19203 -3.91264,10.61334 -5.77514,16.05384c-4.67207,8.62445 -9.73601,17.82047 -7.6115,28.0826c0.9358,4.52014 3.01431,8.94497 5.45598,13.3389c12.46961,-0.58312 34.26184,-2.82636 39.40108,8.3777c1.2471,2.71883 0.92475,5.91045 1.3871,8.86567c-2.16292,4.87463 -4.52239,9.91603 -7.26245,14.72941c17.12885,5.33439 35.04098,12.08943 52.99044,4.27358c6.82451,-2.97168 13.22303,-11.54883 19.35445,-15.86464c1.64828,-1.16018 4.84793,-1.01276 5.25807,-2.98623c0.41008,-1.97348 -2.58338,-3.11305 -3.63297,-4.83388c-5.41943,-8.8853 -4.84766,-18.72718 -15.62202,-18.33859c-8.83063,-0.45446 -23.79472,1.69545 -31.91881,-1.81365c-0.62832,-0.2714 -14.30731,-9.76369 -15.36889,-10.59755c-2.54313,-1.9976 -6.78041,-3.16386 -7.33504,-6.34976c-1.57575,-9.05047 6.30005,-13.82624 11.77723,-18.13131c10.35366,-8.13805 20.04985,-14.23886 32.66391,-17.94468l4.60296,-0.61634c0,0 4.33315,-0.5238 4.85694,3.8093zM237.46426,383.85923c-14.26101,7.95165 -18.33462,20.91937 -22.08162,36.19592c-0.88508,3.6084 -3.59025,9.59646 -3.29714,13.35075c0.22639,2.90011 5.81802,0.05078 8.72691,0.02877c3.98014,-0.03008 7.96042,-0.00466 11.94072,0.01932c-2.02482,-3.84088 -3.69363,-7.68736 -4.44451,-11.51798c-2.4105,-12.29735 2.43631,-23.02065 8.13347,-33.48969c0.56181,-1.66349 1.11563,-3.31795 1.67767,-4.96022c-0.21831,0.12486 -0.43682,0.24923 -0.65554,0.37315z" fill="#000000" stroke="none" stroke-width="0.5" stroke-linecap="butt"/><g><path d="M174.74882,547.45719l0.29717,-112.58427l117.27528,0.30955l-0.29717,112.58427z" fill="#323232" stroke="none" stroke-width="0" stroke-linecap="butt"/><g stroke="#000000"><path d="M233.22291,442.97862c25.05425,0.06613 45.31119,20.43031 45.24505,45.48458c-0.06613,25.05425 -20.4303,45.31122 -45.48454,45.24509c-25.05425,-0.06613 -45.31118,-20.43038 -45.24507,-45.48456c0.06613,-25.05425 20.43034,-45.31123 45.48454,-45.24511z" fill="#878787" stroke-width="1" stroke-linecap="butt"/><path d="M198.49105,460.73851l70.01161,-0.28829" fill="none" stroke-width="1.5" stroke-linecap="round"/><path d="M192.78334,472.54957l81.83516,0.68904" fill="none" stroke-width="1.5" stroke-linecap="round"/><path d="M276.00763,484.59529l-87.50795,-2.12316" fill="none" stroke-width="1.5" stroke-linecap="round"/><path d="M277.59953,493.82397l-88.9296,-1.18078" fill="none" stroke-width="1.5" stroke-linecap="round"/><path d="M213.6949,449.39273l40.7531,0.61702" fill="none" stroke-width="1.5" stroke-linecap="round"/><path d="M197.79317,516.05021l70.0091,0.65787" data-paper-data="{&quot;index&quot;:null}" fill="none" stroke-width="1.5" stroke-linecap="round"/><path d="M192.14791,504.20922l81.83767,-0.25701" data-paper-data="{&quot;index&quot;:null}" fill="none" stroke-width="1.5" stroke-linecap="round"/><path d="M212.93681,527.47618l40.75586,-0.40184" data-paper-data="{&quot;index&quot;:null}" fill="none" stroke-width="1.5" stroke-linecap="round"/></g></g><path d="M236.30047,274.71835c-3.94637,0.33274 -3.03512,79.83653 -1.30111,174.51202c-0.25588,-0.00507 -0.5124,-0.008 -0.76936,-0.00868c-24.10519,-0.06363 -43.69789,19.42592 -43.7615,43.53104c-0.06363,24.10519 19.42592,43.69781 43.5311,43.76144c0.89538,0.00236 1.78447,-0.02223 2.66663,-0.07304c2.20498,115.86617 3.87534,226.21586 -1.65141,225.36945c-102.93451,-15.7644 -188.39043,-61.64307 -188.02648,-199.52458c0.19031,-72.09894 46.73456,-119.73145 91.60086,-175.30547c40.93571,-50.70536 79.60945,-112.70402 97.71131,-112.26212z" fill="#ffe400" stroke="#000000" stroke-width="2" stroke-linecap="butt"/><path d="M425.89868,563.28608c-0.36393,137.88153 -86.06093,183.30846 -189.07716,198.52923c-5.53114,0.81725 -3.27827,-109.52207 -0.46165,-225.37499c0.88188,0.05547 1.77087,0.08482 2.66619,0.08718c24.10519,0.06363 43.69789,-19.42592 43.7615,-43.53104c0.06363,-24.10519 -19.4259,-43.69783 -43.53111,-43.76145c-0.25698,-0.00068 -0.51347,0.00089 -0.76939,0.00462c2.23375,-94.665 3.5647,-174.16289 -0.37983,-174.51647c19.78353,-0.37849 42.1159,52.74227 85.6816,111.59178c39.99636,54.02788 102.28407,110.97529 102.10987,176.97121z" data-paper-data="{&quot;index&quot;:null}" fill="#ffe400" stroke="#000000" stroke-width="2" stroke-linecap="butt"/><path d="M219.92431,323.47618l0.09677,-36.66285l41.90043,0.11059l-0.09677,36.66285z" fill="url(#color-5)" stroke="none" stroke-width="0" stroke-linecap="butt"/><path d="M199.51902,294.11941l0.04368,-16.54665l80.75113,0.21315l-0.04368,16.54665z" fill="url(#color-6)" stroke="none" stroke-width="0" stroke-linecap="butt"/><path d="M364.93343,379.51624c-0.02507,9.50048 -7.74705,17.1818 -17.24747,17.15672c-9.50043,-0.02509 -17.18177,-7.7471 -17.15671,-17.24751c0.02507,-9.50047 7.74703,-17.18177 17.24753,-17.1567c9.50043,0.02509 17.18174,7.74703 17.15665,17.2475z" fill="url(#color-7)" stroke="none" stroke-width="0" stroke-linecap="butt"/><path d="M109.34155,359.48414c9.50046,0.02507 17.18179,7.74699 17.15672,17.24747c-0.02509,9.50043 -7.74706,17.1818 -17.24752,17.15673c-9.50043,-0.02509 -17.18174,-7.74703 -17.15665,-17.24751c0.02507,-9.50046 7.74707,-17.18173 17.24747,-17.15665z" data-paper-data="{&quot;index&quot;:null}" fill="url(#color-8)" stroke="none" stroke-width="0" stroke-linecap="butt"/><path d="M235.16725,355.91756c20.71538,0.05467 23.55229,175.99796 36.80459,266.8137c1.63226,11.18563 -16.96642,65.59576 -37.68185,65.54108c-20.7154,-0.05468 -37.4109,-37.10927 -35.65822,-71.55092c4.66439,-91.65892 15.82001,-260.85854 36.53548,-260.80386z" fill="url(#color-9)" stroke="#000000" stroke-width="1" stroke-linecap="butt"/><path d="M174.70509,350.53692c0.03896,-14.75979 27.6676,-26.6521 61.71033,-26.56222c34.04271,0.08986 61.6082,12.12784 61.56924,26.88764c-0.0279,10.5692 -14.20298,19.66802 -34.74985,23.94973c-3.86928,0.80634 -14.88256,-34.20693 -26.43902,-34.31896c-12.77546,-0.12381 -26.19412,34.55485 -30.89968,33.38343c-18.65031,-4.64285 -31.21734,-13.37035 -31.19104,-23.33957z" fill="#ffffff" stroke="#000000" stroke-width="2" stroke-linecap="butt"/><path d="M235.37466,345.95553c11.73367,0.03097 21.604,0.79124 21.1879,21.92657c-0.36084,18.32662 -9.56973,21.84538 -21.30336,21.81443c-11.73367,-0.03097 -21.05485,-2.66275 -21.1879,-21.92657c-0.14173,-20.5164 9.56973,-21.84538 21.30336,-21.81443z" fill="url(#color-10)" stroke="#000000" stroke-width="1" stroke-linecap="butt"/><path d="M291.37129,6.32581c-19.36753,25.24562 -39.44027,42.35708 -44.83365,38.21947c-5.39341,-4.13758 5.93492,-27.95745 25.30244,-53.20307c19.36753,-25.24564 57.30921,-28.64867 62.70261,-24.51105c5.39342,4.13762 -23.80384,14.24905 -43.17138,39.49465z" fill="#ffe400" stroke="#000000" stroke-width="1" stroke-linecap="butt"/><path d="M257.06721,-12.86863c2.53967,31.71738 -0.89442,57.8693 -7.6705,58.41184c-6.77601,0.5426 -14.32788,-24.72957 -16.86755,-56.447c-2.53966,-31.71743 23.34417,-59.66689 30.12015,-60.20948c6.77599,-0.54258 -8.12182,26.52727 -5.58216,58.24464z" fill="#ffe400" stroke="#000000" stroke-width="1" stroke-linecap="butt"/><path d="M227.18534,-12.23807c18.65637,25.77563 29.31636,49.90198 23.80976,53.88763c-5.50664,3.98569 -25.09465,-13.67859 -43.75096,-39.45423c-18.65636,-25.77563 -11.07229,-63.10702 -5.56565,-67.09269c5.50664,-3.98569 6.85051,26.88366 25.50685,52.65928z" fill="#ffe400" stroke="#000000" stroke-width="1" stroke-linecap="butt"/><path d="M79.84858,191.07309c1.8426,-79.46797 113.82914,-167.90217 165.83593,-167.87433c48.97699,1.15449 152.52599,95.74546 150.68339,175.21335c-1.84259,79.468 -74.1916,142.24663 -161.59595,140.22002c-87.40437,-2.02661 -156.76592,-68.09104 -154.92332,-147.55901z" data-paper-data="{&quot;index&quot;:null}" fill="#696969" stroke="#000000" stroke-width="2" stroke-linecap="butt"/><path d="M267.59452,301.27376l2.30035,-78.86105l12.16994,0.35503l-2.3003,78.86104z" fill="url(#color-11)" stroke="none" stroke-width="0" stroke-linecap="butt"/><path d="M191.86127,300.46861l2.30035,-78.86105l12.16992,0.355l-2.30036,78.8611z" fill="url(#color-12)" stroke="none" stroke-width="0" stroke-linecap="butt"/><path d="M216.04733,193.0801c0.02184,1.90108 -1.8793,1.92298 -1.8793,1.92298l-1.31535,0.01498c-9.31246,0.18719 -19.5581,0.5563 -25.90236,8.35367c-6.55741,7.86593 -14.73761,5.54401 -21.5408,11.48391c-2.57489,2.24816 -4.19779,8.37109 -7.26981,10.39888c1.36596,4.19064 4.79953,7.09206 11.05697,6.59581c0.22826,-0.01812 5.25406,-0.91487 5.83932,-1.37754c2.93114,-2.31725 4.54432,-13.51833 7.7183,-17.52886c4.63136,-2.19603 8.77514,-1.37738 13.6006,-2.44817c6.80958,-1.51121 11.70017,-6.33651 16.89761,-10.5845l1.3605,-1.1459c0,0 1.45424,-1.2246 2.67889,0.2297c1.22463,1.45431 -0.22967,2.67894 -0.22967,2.67894l-1.40352,1.18148c-5.73458,4.68672 -11.06956,9.68329 -18.56154,11.36957c-4.01716,0.90418 -8.13129,-0.04727 -11.95539,1.67826c-3.20341,4.48852 -3.79654,14.02463 -7.40961,17.25057c-4.94289,4.41321 -17.84816,3.99463 -21.04727,-1.95274c-0.90618,-1.68471 -1.60763,-3.36572 -2.11283,-5.03848c-8.31499,0.55704 -13.22418,-6.87202 -17.20774,-13.02441c-0.64581,-0.99742 -4.49229,-6.75708 -4.43335,-7.55655c0.0589,-0.79949 4.70785,-5.93338 5.49287,-6.82539c0.53855,-0.61199 5.17663,-5.94211 5.60336,-6.15474c4.24501,-2.11505 10.95933,0.8636 15.06996,-1.09331c4.59917,-2.18949 8.40399,-13.86103 11.80504,-17.83637c5.02591,-5.87463 13.25438,-7.03729 20.08451,-9.85101c0,0 1.75793,-0.72415 2.48203,1.03376c0.04692,0.11387 0.08347,0.22336 0.11066,0.32868c0.24436,-0.03322 0.48581,-0.06811 0.72398,-0.1053c0,0 1.87852,-0.29288 2.17136,1.58569c0.29281,1.87853 -1.58569,2.17136 -1.58569,2.17136c-4.47685,0.69761 -12.19487,0.19967 -15.46274,4.01402c-6.94238,8.10332 0.96617,21.01049 -6.23339,28.44927c-2.90443,3.00099 -7.92692,4.2719 -11.69526,5.90957c-2.55936,3.82387 -4.12946,8.92512 -4.06292,13.49849c2.31744,-3.06255 5.93606,-10.00373 8.49428,-11.26197c7.5958,-3.73602 12.27657,-1.50903 18.09951,-8.50618c7.3326,-8.63715 18.11001,-9.50796 28.74765,-9.72176l1.34815,-0.01556c0,0 1.90108,-0.02184 1.92287,1.87923zM160.98616,194.80831c-8.27124,4.26416 -12.8122,-1.37585 -19.70774,6.45999c-1.42447,1.6187 -4.39673,2.44237 -4.55519,4.59266c-0.15838,2.15033 2.66117,3.40071 3.83306,5.21062c3.59945,5.55928 6.29867,10.73788 13.17862,11.11434c-0.74209,-6.212 1.18156,-12.25762 5.32767,-17.89834c3.44844,-1.68326 8.62581,-2.91207 11.38023,-5.61497c5.10425,-5.00891 1.61685,-14.65765 3.25264,-22.4134c-3.89134,4.72656 -7.26158,15.74062 -12.70931,18.54914z" fill="#000000" stroke="none" stroke-width="0.5" stroke-linecap="butt"/><path d="M252.54069,189.55596l1.34592,0.07805c10.6163,0.70664 21.34172,2.07598 28.26616,11.04369c5.49244,7.25953 10.27137,5.252 17.68581,9.33597c2.49717,1.37544 5.79015,8.47683 7.96314,11.64356c0.27847,-4.56537 -1.05357,-9.73388 -3.43296,-13.67229c-3.68835,-1.81056 -8.6465,-3.31289 -11.40876,-6.44527c-6.84704,-7.76446 1.6512,-20.29114 -4.90816,-28.70754c-3.08756,-3.96174 -10.82036,-3.8221 -15.26007,-4.72647c0,0 -1.86296,-0.37958 -1.48335,-2.24251c0.37956,-1.86294 2.24255,-1.48335 2.24255,-1.48335c0.23626,0.04817 0.47581,0.09428 0.71831,0.13877c0.03208,-0.10394 0.0736,-0.2116 0.12572,-0.32323c0.80487,-1.72242 2.52727,-0.91759 2.52727,-0.91759c6.69241,3.12725 14.85809,4.66999 19.60635,10.7713c3.2131,4.12873 6.47292,15.96406 10.96567,18.36435c4.0155,2.14535 10.86064,-0.51892 15.00306,1.79058c0.41648,0.23218 4.80253,5.77151 5.31213,6.40785c0.74279,0.92744 5.14878,6.27128 5.17056,7.07265c0.0218,0.80136 -4.08749,6.37647 -4.77885,7.34295c-4.26442,5.96124 -9.51269,13.15474 -17.79295,12.21288c-0.58213,1.64754 -1.36071,3.29425 -2.34402,4.93514c-3.47133,5.79281 -16.38215,5.61271 -21.11515,0.9751c-3.45968,-3.38993 -3.61013,-12.94327 -6.60211,-17.57547c-3.74,-1.90092 -7.89385,-1.14116 -11.86478,-2.23056c-7.4057,-2.03165 -12.50331,-7.27017 -18.0146,-12.21766l-1.34716,-1.24532c0,0 -1.39598,-1.2907 -0.10526,-2.68666c1.29072,-1.39599 2.68666,-0.10529 2.68666,-0.10529l1.30593,1.20773c4.99503,4.48434 9.65668,9.53113 16.38887,11.3563c4.77064,1.29341 8.94795,0.66758 13.47254,3.07591c2.98468,4.15336 4.07698,15.41714 6.89757,17.86775c0.56324,0.48931 5.54201,1.61805 5.76917,1.64674c6.22772,0.78577 9.79203,-1.95349 11.35074,-6.07624c-2.97475,-2.16796 -4.31208,-8.35958 -6.77997,-10.7246c-6.52058,-6.24881 -14.79956,-4.30858 -20.98539,-12.46999c-5.97601,-8.08303 -16.19364,-8.92664 -25.48741,-9.54521l-1.31321,-0.07598c0,0 -1.898,-0.10991 -1.78814,-2.00794c0.10993,-1.898 2.00797,-1.78808 2.00797,-1.78808zM293.61865,176.50416c1.27459,7.8233 -2.65622,17.29997 2.21039,22.54002c2.6262,2.8277 7.74105,4.29515 11.10775,6.13638c3.88017,5.82684 5.52153,11.95519 4.49237,18.12612c6.89001,-0.05717 9.82633,-5.10517 13.67958,-10.49159c1.25446,-1.75369 4.12901,-2.87196 4.07043,-5.0274c-0.05855,-2.15536 -2.98953,-3.11593 -4.33744,-4.79894c-6.52494,-8.14695 -11.32235,-2.7235 -19.38708,-7.36644c-5.31168,-3.058 -8.16785,-14.21638 -11.83597,-19.11822z" data-paper-data="{&quot;index&quot;:null}" fill="#000000" stroke="none" stroke-width="0.5" stroke-linecap="butt"/><path d="M198.89076,180.86597l0.75637,-32.62051l69.62281,1.61432l-0.75637,32.62051z" fill="url(#color-13)" stroke="#000000" stroke-width="0" stroke-linecap="butt"/><path d="M206.96176,231.95366l1.45627,-62.80661l63.93966,1.48255l-1.45627,62.80661z" fill="url(#color-14)" stroke="none" stroke-width="0" stroke-linecap="butt"/><path d="M204.95554,230.753l-17.17232,-77.00302l11.88318,-2.65006l17.17235,77.00306z" fill="url(#color-15)" stroke="none" stroke-width="0" stroke-linecap="butt"/><path d="M261.62054,231.57703l20.72284,-76.12439l11.74759,3.19798l-20.72287,76.12443z" data-paper-data="{&quot;index&quot;:null}" fill="url(#color-16)" stroke="none" stroke-width="0" stroke-linecap="butt"/><path d="M311.45739,158.47878c-0.31922,13.76734 -12.08739,24.661 -26.28491,24.33181c-14.19759,-0.3292 -25.44805,-11.75662 -25.12882,-25.52391c0.31922,-13.76734 12.08733,-24.66106 26.28486,-24.33187c14.19752,0.32919 25.44815,11.75671 25.12892,25.524z" data-paper-data="{&quot;index&quot;:null}" fill="#000000" stroke="#000000" stroke-width="2" stroke-linecap="butt"/><path d="M192.76341,235.03437l0.4177,-18.01428l90.76454,2.10452l-0.4177,18.01428z" fill="url(#color-17)" stroke="none" stroke-width="0" stroke-linecap="butt"/><path d="M201.66891,130.34233c14.19756,0.32918 25.44811,11.75667 25.1289,25.52394c-0.31922,13.76734 -12.08743,24.66101 -26.28488,24.33183c-14.19759,-0.3292 -25.44815,-11.75666 -25.12893,-25.52395c0.31922,-13.76734 12.08729,-24.66103 26.28492,-24.33183z" fill="#000000" stroke="#000000" stroke-width="2" stroke-linecap="butt"/><g stroke="#000000" stroke-linecap="butt"><path d="M238.74309,245.67997c96.87956,2.58809 11.97665,88.30109 -2.35996,87.96865c-15.06719,-0.34936 -106.24839,-90.87005 2.35996,-87.96865z" fill="#ffe400" stroke-width="2"/><path d="M238.19056,250.42118c64.73151,1.72925 8.17236,55.16124 -1.40679,54.93915c-10.06738,-0.23344 -71.16141,-56.87777 1.40679,-54.93915z" fill="#ff0700" stroke-width="1"/></g><path d="M214.52736,155.23227c-0.11043,4.76307 -3.84671,8.53977 -8.34516,8.43546c-4.49844,-0.10432 -8.05566,-4.0501 -7.9452,-8.81317c0.11043,-4.76307 3.84671,-8.53977 8.34516,-8.43546c4.49844,0.10432 8.05566,4.0501 7.9452,8.81317z" fill="#000000" stroke="#ff0000" stroke-width="2" stroke-linecap="butt"/><path d="M290.53327,157.67374c-0.11043,4.76307 -3.84671,8.53977 -8.34516,8.43546c-4.49844,-0.10432 -8.05566,-4.0501 -7.9452,-8.81317c0.11043,-4.76307 3.84671,-8.53977 8.34516,-8.43546c4.49844,0.10432 8.05566,4.0501 7.9452,8.81317z" fill="#000000" stroke="#ff0000" stroke-width="2" stroke-linecap="butt"/><path d="M-70.11595,302.36586c8.29827,-7.9155 21.4421,-7.60512 29.35751,0.69314c7.91542,8.29828 7.6051,21.44206 -0.69317,29.35754c-8.29824,7.9155 -21.44213,7.60508 -29.35757,-0.6932c-7.91538,-8.29824 -7.60514,-21.44203 0.69322,-29.35748z" data-paper-data="{&quot;index&quot;:null}" fill="url(#color-18)" stroke="none" stroke-width="0" stroke-linecap="butt"/><g data-paper-data="{&quot;index&quot;:null}" stroke-linecap="butt"><path d="M-210.48011,222.27442c0,0 57.84249,6.83297 84.74028,14.91362c26.17515,7.86356 73.0713,37.76824 73.0713,37.76824l-25.66417,84.55056c0,0 -53.70254,-0.31716 -79.43846,-8.04881c-27.26808,-8.19192 -80.573,-37.38587 -80.573,-37.38587z" fill="#696969" stroke="#000000" stroke-width="2"/><path d="M-219.05832,253.19332l158.08213,47.49116l-9.77683,32.20976l-158.08203,-47.4911z" fill="url(#color-19)" stroke="none" stroke-width="0"/><path d="M-233.69008,292.90175c-0.31043,-4.18162 3.81687,-4.55 3.81687,-4.55l5.86214,-0.45388c7.35917,-3.7539 12.86135,-9.60742 19.72044,-14.15938c4.55762,-3.02462 9.7836,-4.46648 14.43867,-7.19454c5.09222,-2.98415 9.10429,-7.47861 15.24894,-8.4952c15.47769,-2.56054 32.47639,8.39992 36.72843,22.75009c2.74749,7.87997 6.93722,15.12657 9.42218,23.05039c0.41856,1.33457 1.711,7.50173 3.54497,9.07054c2.9422,2.51695 12.06392,1.50638 14.85181,1.1937c15.64265,-1.75436 29.15599,-12.72051 44.85158,-15.16213c0,0 4.10332,-0.60261 4.64513,3.55164c0.54174,4.15435 -3.56159,4.75704 -3.56159,4.75704c-15.81474,2.14229 -29.14241,13.46233 -45.02411,15.18561c-5.82527,0.63216 -15.94991,1.31161 -21.00653,-2.96184c-5.11397,-4.3217 -5.11951,-11.39069 -7.54401,-17.10254c-2.70403,-6.37074 -5.76847,-12.32889 -8.06157,-18.91426c-2.92658,-10.54158 -16.10168,-19.13647 -27.54299,-17.14471c-4.89598,0.8523 -8.35534,5.06745 -12.4343,7.45083c-4.55281,2.66024 -9.7079,4.05685 -14.14359,7.01069c-7.67965,5.11412 -13.62354,11.20994 -22.02979,15.20626l-7.34493,0.72507c0,0 -4.12724,0.36838 -4.43777,-3.81322z" fill="#000000" stroke="none" stroke-width="0.5"/><path d="M-210.48011,222.27442c0,0 57.84249,6.83297 84.74028,14.91362c26.17515,7.86356 73.0713,37.76824 73.0713,37.76824l-25.66417,84.55056c0,0 -53.70254,-0.31716 -79.43846,-8.04881c-27.26808,-8.19192 -80.573,-37.38587 -80.573,-37.38587z" fill="#ffe400" stroke="#000000" stroke-width="2"/></g><g data-paper-data="{&quot;index&quot;:null}" stroke-linecap="butt"><path d="M-38.24463,275.36204c0,0 57.72457,7.76648 84.48835,16.28065c26.04478,8.28538 72.45161,38.94369 72.45161,38.94369l-27.02664,84.12496c0,0 -53.69038,-1.18464 -79.29812,-9.33102c-27.1322,-8.63138 -79.95859,-38.68256 -79.95859,-38.68256z" fill="#696969" stroke="#000000" stroke-width="2"/><path d="M-47.32125,306.13839l157.29434,50.03862l-10.29591,32.04762l-157.29426,-50.03862z" fill="url(#color-20)" stroke="none" stroke-width="0"/><path d="M-62.59253,345.60522c-0.24284,-4.18613 3.88985,-4.48777 3.88985,-4.48777l5.86871,-0.35912c7.41881,-3.63454 13.01484,-9.39843 19.94656,-13.83899c4.60593,-2.95066 9.8545,-4.3079 14.55301,-6.96042c5.13977,-2.90151 9.22388,-7.33053 15.38416,-8.24769c15.51704,-2.31018 32.33644,8.92346 36.35616,23.34043c2.61984,7.92332 6.69197,15.23669 9.04865,23.19958c0.39691,1.34117 1.58959,7.52837 3.39793,9.12659c2.9011,2.56418 12.03797,1.70109 14.83059,1.43344c15.66896,-1.50148 29.35766,-12.24786 45.09066,-14.43557c0,0 4.11249,-0.53623 4.58715,3.62622c0.47459,4.16257 -3.63799,4.69892 -3.63799,4.69892c-15.84729,1.88654 -29.35603,12.98978 -45.26356,14.45633c-5.83472,0.53798 -15.96904,1.05381 -20.95601,-3.30079c-5.04344,-4.40377 -4.93474,-11.47188 -7.26667,-17.22221c-2.60076,-6.41359 -5.56857,-12.42044 -7.75499,-19.04202c-2.75588,-10.58749 -15.79047,-19.394 -27.26245,-17.5874c-4.90911,0.77311 -8.43616,4.93176 -12.55307,7.24895c-4.59523,2.58638 -9.77214,3.89952 -14.25499,6.78132c-7.76122,4.98943 -13.80283,10.98841 -22.27258,14.84844l-7.3557,0.6063c0,0 -4.13269,0.30162 -4.37558,-3.88442z" fill="#000000" stroke="none" stroke-width="0.5"/><path d="M-38.24463,275.36204c0,0 57.72457,7.76648 84.48835,16.28065c26.04478,8.28538 72.45161,38.94369 72.45161,38.94369l-27.02664,84.12496c0,0 -53.69038,-1.18464 -79.29812,-9.33102c-27.1322,-8.63138 -79.95859,-38.68256 -79.95859,-38.68256z" fill="#ffe400" stroke="#000000" stroke-width="2"/></g><path d="M527.77345,310.60445c8.05434,8.16367 7.96567,21.31079 -0.19788,29.36502c-8.16359,8.0543 -21.31084,7.96567 -29.36509,-0.19789c-8.05425,-8.16362 -7.96558,-21.31083 0.19798,-29.36508c8.16359,-8.0543 21.31078,-7.96562 29.36503,0.19797z" fill="url(#color-21)" stroke="none" stroke-width="0" stroke-linecap="butt"/><g stroke-linecap="butt"><path d="M694.57224,334.31037c0,0 -55.08642,25.67459 -82.82852,32.08038c-26.18331,6.04587 -79.79329,2.87868 -79.79329,2.87868l-20.12532,-86.03733c0,0 48.7372,-26.7995 75.3674,-32.94854c27.36539,-6.31882 85.52925,-9.38512 85.52925,-9.38512z" fill="#696969" stroke="#000000" stroke-width="2"/><path d="M686.94297,305.0849l-160.82982,37.13633l-7.66678,-32.77616l160.8299,-37.13637z" fill="url(#color-22)" stroke="none" stroke-width="0"/><path d="M691.30129,312.8828c-0.58114,4.1526 -4.6758,3.51727 -4.6758,3.51727l-7.28242,-1.20001c-8.1293,-4.53321 -13.66526,-11.00178 -20.997,-16.60328c-4.23472,-3.23535 -9.28832,-4.96345 -13.65899,-7.91345c-3.91577,-2.64296 -7.09442,-7.07366 -11.92477,-8.24174c-11.28798,-2.72972 -24.99288,4.99237 -28.59714,15.32192c-2.71549,6.42275 -6.15996,12.16955 -9.27158,18.35148c-2.78992,5.54257 -3.254,12.59628 -8.63754,16.57715c-5.32321,3.93642 -15.38245,2.60163 -21.15443,1.59289c-15.73654,-2.74992 -28.30178,-14.91067 -43.94422,-18.07435c0,0 -4.05559,-0.86763 -3.24551,-4.97808c0.81011,-4.11036 4.8657,-3.24284 4.8657,-3.24284c15.50413,3.45463 28.27764,15.27429 43.77354,18.0397c2.76176,0.49288 11.79868,2.09308 14.89798,-0.22775c1.93188,-1.44654 3.62172,-7.51683 4.12591,-8.82143c2.99376,-7.74588 7.64472,-14.70546 10.89761,-22.3906c5.17402,-14.04408 22.84788,-23.8788 38.12688,-20.31959c6.06577,1.41305 9.77782,6.15829 14.66578,9.46648c4.46828,3.02427 9.58974,4.8021 13.94152,8.11602c6.54937,4.98729 11.66023,11.18544 18.76039,15.40885l5.82033,0.83319c0,0 4.09474,0.63538 3.51368,4.78806z" fill="#000000" stroke="none" stroke-width="0.5"/><path d="M694.57224,334.31037c0,0 -55.08642,25.67459 -82.82852,32.08038c-26.18331,6.04587 -79.79329,2.87868 -79.79329,2.87868l-20.12532,-86.03733c0,0 48.7372,-26.7995 75.3674,-32.94854c27.36539,-6.31882 85.52925,-9.38512 85.52925,-9.38512z" fill="#ffe400" stroke="#000000" stroke-width="2"/></g><g stroke-linecap="butt"><path d="M523.2947,374.82998c0,0 -53.71387,28.43446 -81.09553,36.23854c-25.84308,7.36555 -79.54471,6.92056 -79.54471,6.92056l-24.4616,-84.90627c0,0 47.31575,-29.23606 73.59994,-36.72734c27.00977,-7.6981 84.94344,-13.70952 84.94344,-13.70952z" fill="#696969" stroke="#000000" stroke-width="2"/><path d="M514.19348,346.02889l-158.74015,45.24274l-9.31872,-32.34522l158.74021,-45.24279z" fill="url(#color-23)" stroke="none" stroke-width="0"/><path d="M518.94161,353.59576c-0.36985,4.17669 -4.49146,3.74985 -4.49146,3.74985l-7.33392,-0.8292c-8.34872,-4.11524 -14.20549,-10.29479 -21.81177,-15.5174c-4.39334,-3.01651 -9.52805,-4.48614 -14.04266,-7.21075c-4.04471,-2.44104 -7.44393,-6.70487 -12.32733,-7.62653c-11.41188,-2.1539 -24.70768,6.25312 -27.78354,16.75208c-2.38631,6.55221 -5.53503,12.46624 -8.32922,18.79795c-2.50534,5.67688 -2.61117,12.74511 -7.7859,16.99378c-5.11679,4.20127 -15.23078,3.37813 -21.04646,2.66342c-15.85569,-1.94856 -29.0213,-13.45661 -44.80405,-15.82312c0,0 -4.0944,-0.66091 -3.49374,-4.80715c0.60076,-4.14616 4.6951,-3.48538 4.6951,-3.48538c15.65938,2.66411 29.01566,13.8209 44.63188,15.79712c2.78319,0.35223 11.88962,1.49214 14.86725,-0.98279c1.85604,-1.54262 3.23594,-7.69074 3.6733,-9.01926c2.5972,-7.88773 6.88938,-15.07415 9.74841,-22.91432c4.45534,-14.28836 21.60781,-25.00648 37.04762,-22.2265c6.12964,1.10366 10.07751,5.65458 15.1268,8.71067c4.61587,2.79386 9.82083,4.30975 14.33509,7.39881c6.7938,4.64881 12.21234,10.57988 19.51746,14.43783l5.85512,0.53704c0,0 4.12163,0.42697 3.75193,4.60372z" fill="#000000" stroke="none" stroke-width="0.5"/><path d="M523.2947,374.82998c0,0 -53.71387,28.43446 -81.09553,36.23854c-25.84308,7.36555 -79.54471,6.92056 -79.54471,6.92056l-24.4616,-84.90627c0,0 47.31575,-29.23606 73.59994,-36.72734c27.00977,-7.6981 84.94344,-13.70952 84.94344,-13.70952z" fill="#ffe400" stroke="#000000" stroke-width="2"/></g><g data-paper-data="{&quot;index&quot;:null}" fill="#ffe400" stroke="#000000" stroke-width="2" stroke-linecap="butt"><path d="M457.07367,162.19058c-0.02878,1.24139 -14.11816,40.34737 -50.82711,52.00233c-42.18917,11.21636 -46.03996,13.84874 -60.97546,13.23655c0.38769,-29.49053 -25.56642,-34.18714 -40.79652,-34.54027c-1.43644,-0.03331 -2.85046,0.04149 -4.23428,0.21691c1.24336,-91.38959 4.75616,-206.72448 5.70198,-206.13931c49.78585,2.33236 152.97399,95.75578 151.13139,175.22375zM373.18395,120.31522c0.36509,-15.74587 -12.02875,-28.8047 -27.68244,-29.16765c-15.65363,-0.36296 -28.63946,12.10737 -29.00456,27.85328c-0.36509,15.74587 12.02874,28.80473 27.68244,29.16768c15.65363,0.36296 28.63947,-12.10744 29.00456,-27.8533z" data-paper-data="{&quot;index&quot;:null}"/><path d="M346.27427,187.63432c-0.26912,11.60683 -15.07832,10.20917 -22.43362,18.13615c-8.74295,9.42242 -9.6287,34.85396 -23.57112,34.53068c-8.28803,-0.19217 -3.10512,-102.41412 0.64793,-102.3271c25.67203,0.59525 45.94587,24.25691 45.35685,49.66031z"/></g><g fill="#ffe400" stroke="#000000" stroke-width="2" stroke-linecap="butt"><path d="M34.42966,153.06749c1.8426,-79.46797 113.94287,-167.89954 164.07686,-167.91512c0.97756,-0.54058 -4.92668,114.73887 -7.92553,206.08774c-1.38231,-0.23957 -2.79962,-0.37998 -4.24456,-0.41349c-15.31987,-0.35522 -45.33046,-0.75972 -46.31178,28.7171c-15.03586,-0.08278 -15.06952,0.99813 -56.94042,-12.16724c-36.34385,-13.3488 -48.68322,-53.06755 -48.65444,-54.30894zM153.249,145.36898c15.74591,0.36509 28.80646,-12.10356 29.17155,-27.84942c0.36509,-15.74587 -12.10356,-28.80644 -27.84944,-29.17153c-15.74591,-0.36509 -28.80644,12.10349 -29.17152,27.84942c-0.36509,15.74587 12.1035,28.80648 27.84939,29.17157z" data-paper-data="{&quot;index&quot;:null}"/><path d="M189.59032,137.0202c3.77513,0.08753 5.96513,102.48044 -2.37169,102.28713c-14.02458,-0.32519 -16.2276,-28.41531 -24.57468,-38.23398c-7.02229,-8.26034 -21.14653,-7.53355 -20.8774,-19.14037c0.58902,-25.40339 22.00046,-45.51153 47.82378,-44.91278z"/></g><path d="M314.27862,299.3443c15.35983,0.58953 38.07352,0.90698 70.01148,-7.93533c31.82944,-15.76628 42.02389,-26.81577 51.43769,-37.77227c0.06285,-0.07312 0.1255,-0.14626 0.18803,-0.2195c-10.94553,70.85238 -76.4608,124.3818 -154.3249,122.5764c-1.64164,-0.03806 -2.27819,-21.37163 -2.2932,-52.92943c1.10412,0.15631 26.30474,0.80783 27.44696,0.83431c5.3695,0.1245 7.3281,-11.22159 7.53392,-24.55422z" data-paper-data="{&quot;index&quot;:null}" fill="#ffe400" stroke="#000000" stroke-width="2" stroke-linecap="butt"/><path d="M171.35357,323.87284c1.1422,0.02647 26.34592,0.54367 27.45613,0.43871c-1.47766,31.52317 -3.10225,52.80431 -4.74391,52.76626c-77.86406,-1.8054 -140.828,-58.31383 -148.47785,-129.59738c0.05909,0.07606 0.11831,0.15203 0.17766,0.22797c8.8959,11.38104 18.56731,22.89115 49.63172,40.11572c31.49381,10.31304 54.19784,11.04868 69.56851,11.17168c-0.41234,13.3278 1.01831,24.75252 6.3878,24.87702z" data-paper-data="{&quot;index&quot;:null}" fill="#ffe400" stroke="#000000" stroke-width="2" stroke-linecap="butt"/></g></g></svg>