<svg version="1.1" xmlns="http://www.w3.org/2000/svg" xmlns:xlink="http://www.w3.org/1999/xlink" width="715.44117" height="510.76234" viewBox="0,0,715.44117,510.76234"><defs><linearGradient x1="249.092" y1="197.37309" x2="415.9812" y2="195.64812" gradientUnits="userSpaceOnUse" id="color-1"><stop offset="0" stop-color="#6c6c6c"/><stop offset="1" stop-color="#c4c4c4"/></linearGradient><linearGradient x1="300.06446" y1="189.51337" x2="365.70755" y2="188.83488" gradientUnits="userSpaceOnUse" id="color-2"><stop offset="0" stop-color="#6e6e6e"/><stop offset="1" stop-color="#c0c0c0"/></linearGradient><linearGradient x1="331.19751" y1="83.77365" x2="331.58275" y2="121.04568" gradientUnits="userSpaceOnUse" id="color-3"><stop offset="0" stop-color="#a6a6a6"/><stop offset="1" stop-color="#707070"/></linearGradient><linearGradient x1="331.1637" y1="107.41354" x2="331.90544" y2="179.1759" gradientUnits="userSpaceOnUse" id="color-4"><stop offset="0" stop-color="#a6a6a6"/><stop offset="1" stop-color="#707070"/></linearGradient><linearGradient x1="284.82078" y1="89.18319" x2="307.37436" y2="176.44071" gradientUnits="userSpaceOnUse" id="color-5"><stop offset="0" stop-color="#a6a6a6"/><stop offset="1" stop-color="#707070"/></linearGradient><linearGradient x1="376.59235" y1="91.01656" x2="355.84719" y2="178.72148" gradientUnits="userSpaceOnUse" id="color-6"><stop offset="0" stop-color="#a6a6a6"/><stop offset="1" stop-color="#707070"/></linearGradient><linearGradient x1="332.01106" y1="162.4841" x2="332.22381" y2="183.06709" gradientUnits="userSpaceOnUse" id="color-7"><stop offset="0" stop-color="#a6a6a6"/><stop offset="1" stop-color="#707070"/></linearGradient><linearGradient x1="328.6062" y1="180.87906" x2="328.8135" y2="200.93441" gradientUnits="userSpaceOnUse" id="color-8"><stop offset="0" stop-color="#707070"/><stop offset="1" stop-color="#a6a6a6"/></linearGradient><radialGradient cx="241.78855" cy="267.92814" r="104.71462" gradientUnits="userSpaceOnUse" id="color-9"><stop offset="0" stop-color="#a94f05"/><stop offset="1" stop-color="#ff7b00"/></radialGradient><linearGradient x1="243.75375" y1="34.35436" x2="243.75375" y2="62.88289" gradientUnits="userSpaceOnUse" id="color-10"><stop offset="0" stop-color="#848484"/><stop offset="1" stop-color="#545454"/></linearGradient><linearGradient x1="241.24624" y1="225.54055" x2="241.24624" y2="254.06908" gradientUnits="userSpaceOnUse" id="color-11"><stop offset="0" stop-color="#848484"/><stop offset="1" stop-color="#545454"/></linearGradient><linearGradient x1="57.56757" y1="176.24626" x2="84.5946" y2="176.24626" gradientUnits="userSpaceOnUse" id="color-12"><stop offset="0" stop-color="#848484"/><stop offset="1" stop-color="#545454"/></linearGradient><linearGradient x1="397.4024" y1="181.24626" x2="424.42943" y2="181.24626" gradientUnits="userSpaceOnUse" id="color-13"><stop offset="0" stop-color="#848484"/><stop offset="1" stop-color="#545454"/></linearGradient></defs><g transform="translate(117.72058,30.18223)"><g data-paper-data="{&quot;isPaintingLayer&quot;:true}" fill-rule="nonzero" stroke-linecap="butt" stroke-linejoin="miter" stroke-miterlimit="10" stroke-dasharray="" stroke-dashoffset="0" style="mix-blend-mode: normal"><path d="M-17.50751,368.43845v-376.87688h515.01502v376.87688z" fill="#060606" stroke="none" stroke-width="NaN"/><g><path d="M330.88749,116.88942c53.15155,-0.54937 96.61015,34.87032 97.06743,79.1121c0.45728,44.24178 -42.25988,80.55218 -95.41147,81.10156c-53.15159,0.54937 -96.61016,-34.87032 -97.06744,-79.1121c-0.45728,-44.24178 42.25989,-80.55218 95.41147,-81.10156z" fill="#696969" stroke="#000000" stroke-width="2"/><path d="M331.84277,129.38404c46.08519,-0.47634 83.75525,29.19112 84.13844,66.26405c0.38319,37.07297 -36.66561,67.51268 -82.7508,67.98902c-46.08519,0.47634 -83.75522,-29.19112 -84.13841,-66.26405c-0.38319,-37.07297 36.66558,-67.51268 82.75077,-67.98902z" fill="none" stroke="url(#color-1)" stroke-width="4.5"/><g stroke="#000000"><path d="M431.15199,196.33943c0.45728,44.24178 -38.1957,79.02656 -91.34725,79.57594c-6.8482,0.07078 -6.94861,-13.12737 -0.0528,-17.51647c6.38473,1.49007 69.97567,0.903 68.94931,-53.44515c-2.0291,-75.1392 -102.39077,-87.43931 -74.61666,-87.72638c53.15159,-0.54937 96.61012,34.87032 97.0674,79.1121z" data-paper-data="{&quot;index&quot;:null}" fill="#1300d2" stroke-width="2"/><path d="M342.27608,265.9606c-6.8482,0.07078 -6.50489,-5.77704 0.39092,-10.16614c6.38473,1.49007 68.79271,-6.80744 67.76635,-61.15559c-2.0291,-75.1392 -101.65157,-87.0792 -73.87745,-87.36627c53.15159,-0.54937 79.36484,38.18535 83.18575,88.0815c2.33666,30.51367 -24.31405,70.05715 -77.46559,70.60652z" data-paper-data="{&quot;index&quot;:null}" fill="#ff0000" stroke-width="0"/></g><g stroke="#000000"><path d="M236.60009,199.09213c-0.45728,-44.24178 42.25989,-80.55215 95.41147,-81.10153c27.77411,-0.28707 -72.31178,14.08486 -72.78737,89.24998c-1.46336,63.47561 75.2267,49.3738 70.03924,52.00854c6.98506,4.24563 7.15748,17.44307 0.30928,17.51385c-53.15159,0.54937 -92.51527,-33.42899 -92.97255,-77.67077z" fill="#1300d2" stroke-width="2"/><path d="M249.94273,196.00592c2.78875,-49.96444 28.19577,-89.23271 81.34736,-89.78208c27.77411,-0.28707 -71.58027,13.70955 -72.05583,88.87464c0.09722,54.35775 62.66341,61.36354 69.01598,59.74182c6.98506,4.24563 7.44917,10.0851 0.60096,10.15588c-53.15155,0.54937 -80.61392,-38.43478 -78.90846,-68.99025z" data-paper-data="{&quot;index&quot;:null}" fill="#ff0000" stroke-width="0"/></g><g stroke="none" stroke-width="0"><path d="M300.42095,224.00373l-0.71299,-68.98087l65.64309,-0.67849l0.71299,68.98087z" fill="url(#color-2)"/><path d="M355.01714,177.2619l-0.207,-20.02669l7.78813,-0.0805l0.207,20.02669z" fill="#ffffff"/><path d="M355.25289,200.07008l-0.207,-20.02669l7.78813,-0.0805l0.207,20.02669z" fill="#ffffff"/><path d="M355.48288,222.32195l-0.207,-20.02669l7.78813,-0.0805l0.207,20.02669z" fill="#ffffff"/><path d="M303.27573,177.24031l-0.207,-20.02669l7.78816,-0.0805l0.207,20.02669z" fill="#ffffff"/><path d="M303.51147,200.04855l-0.207,-20.02669l7.78816,-0.0805l0.207,20.02669z" fill="#ffffff"/><path d="M303.74147,222.30046l-0.207,-20.02669l7.78816,-0.0805l0.207,20.02669z" fill="#ffffff"/><path d="M335.08417,222.42152l-0.069,-6.67558l15.02002,-0.15525l0.069,6.67558z" fill="#ffffff"/><path d="M317.76362,222.48931l-0.069,-6.67558l15.02005,-0.15525l0.069,6.67558z" fill="#ffffff"/></g><path d="M328.87867,38.38811c56.50702,-0.58406 102.74407,40.45294 103.27333,91.65868c0.52926,51.20574 -16.12895,93.44521 -101.35671,93.77376c-90.02646,0.34707 -102.74407,-40.45293 -103.27333,-91.65871c-0.52926,-51.20574 44.84969,-93.18968 101.35671,-93.77373z" fill="#696969" stroke="#000000" stroke-width="2"/><path d="M291.80753,121.4568l-0.38524,-37.27192l79.55049,-0.82223l0.38524,37.27192z" fill="url(#color-3)" stroke="#000000" stroke-width="0"/><path d="M302.97798,179.47489l-0.74173,-71.76236l57.85492,-0.59799l0.74173,71.76236z" fill="url(#color-4)" stroke="none" stroke-width="0"/><path d="M300.64151,178.18092l-22.55357,-87.25735l13.46566,-3.48047l22.55357,87.25735z" fill="url(#color-5)" stroke="none" stroke-width="0"/><path d="M349.07984,177.12078l20.74517,-87.70488l13.53472,3.20139l-20.7452,87.70492z" data-paper-data="{&quot;index&quot;:null}" fill="url(#color-6)" stroke="none" stroke-width="0"/><path d="M286.8856,183.5357l-0.21275,-20.58299l90.67645,-0.93723l0.21275,20.58299z" fill="url(#color-7)" stroke="none" stroke-width="0"/><path d="M273.26865,189.07477c-2.62646,0.916 -3.5425,-1.71052 -3.5425,-1.71052l-0.28749,-0.94556c-1.45306,-2.62822 -2.81325,-6.30109 -4.95477,-8.50081c-0.82691,-0.84933 -4.01098,-2.22159 -4.67456,-2.7289c-9.12164,-6.97359 -24.00762,-19.54381 -15.35952,-31.90054c3.5953,-1.21165 14.8653,-2.58774 15.83715,-7.79967c1.37964,-7.39897 -3.89548,-13.33156 -0.54282,-21.11374c3.88307,-9.01345 14.53138,-13.8856 22.64004,-18.57799c0,0 2.40769,-1.39306 3.80075,1.01463c1.39306,2.40768 -1.01464,3.80071 -1.01464,3.80071c-6.83306,3.95273 -17.02402,8.29788 -20.29795,15.91948c-4.0688,9.47194 6.42266,19.70746 -4.50004,27.05627c-1.15546,0.77738 -2.50594,1.22858 -3.81628,1.70009c-1.93666,0.69692 -6.59492,1.89821 -8.82055,2.48959c-2.0224,3.05208 0.8625,7.82744 2.51938,10.57208c4.36462,7.22985 12.50217,9.89516 18.11076,15.58279c2.6116,2.64845 4.16776,6.58649 5.9416,9.79397l0.67193,1.80565c0,0 0.91598,2.62649 -1.71052,3.5425z" fill="#000000" stroke="none" stroke-width="0.5"/><path d="M252.77142,198.19685c-2.78118,-0.05079 -2.73037,-2.83193 -2.73037,-2.83193l0.05792,-0.98663c-0.45241,-2.96887 -0.45569,-6.88553 -1.70244,-9.69093c-0.48141,-1.08323 -2.99274,-3.47373 -3.43944,-4.17957c-6.14035,-9.70212 -15.7488,-26.65147 -3.35493,-35.24633c3.79244,0.10911 14.84109,2.72325 17.55858,-1.82913c3.85784,-6.46261 0.96508,-13.85546 6.80644,-19.99393c6.76559,-7.10967 18.4424,-7.99057 27.67469,-9.58268c0,0 2.74123,-0.47256 3.21372,2.26866c0.47253,2.74122 -2.2687,3.21369 -2.2687,3.21369c-7.77934,1.34032 -18.84459,1.88529 -24.55652,7.90036c-7.09864,7.47543 -0.80359,20.71205 -13.59592,23.82107c-1.35326,0.32887 -2.77636,0.28421 -4.16888,0.27249c-2.05816,-0.01732 -6.84409,-0.50445 -9.13675,-0.72081c-2.95457,2.1623 -1.9031,7.64139 -1.2998,10.79011c1.5892,8.29428 8.29917,13.61404 11.58966,20.89265c1.53222,3.38923 1.62743,7.62251 2.18004,11.24594l0.00472,1.92664c0,0 -0.05078,2.78112 -2.832,2.73033z" fill="#000000" stroke="none" stroke-width="0.5"/><path d="M384.77776,182.17204l0.63453,-1.81919c1.70719,-3.24347 3.18158,-7.21286 5.73788,-9.91469c5.48983,-5.80231 13.57052,-8.63525 17.78477,-15.95377c1.59983,-2.77823 4.38534,-7.61231 2.30032,-10.6219c-2.23734,-0.54526 -6.91944,-1.64999 -8.87013,-2.30673c-1.31981,-0.44433 -2.67931,-0.86753 -3.85056,-1.62086c-11.07224,-7.12146 -0.79461,-17.57165 -5.05833,-26.95743c-3.43078,-7.55227 -13.7094,-11.68591 -20.62268,-15.49656c0,0 -2.43596,-1.34297 -1.093,-3.77893c1.34299,-2.43596 3.77896,-1.09297 3.77896,-1.09297c8.20392,4.52376 18.95067,9.1748 23.01924,18.10606c3.51278,7.71118 -1.63856,13.7516 -0.10628,21.12048c1.07937,5.19073 12.37537,6.33355 15.99495,7.47063c8.9017,12.17533 -5.72125,25.05062 -14.69683,32.2112c-0.65295,0.52095 -3.808,1.9587 -4.61715,2.82494c-2.09559,2.24351 -3.37959,5.9437 -4.77798,8.6014l-0.26791,0.9513c0,0 -0.86149,2.6449 -3.50635,1.78338c-2.64487,-0.86152 -1.78338,-3.50639 -1.78338,-3.50639z" data-paper-data="{&quot;index&quot;:null}" fill="#000000" stroke="none" stroke-width="0.5"/><path d="M404.35476,191.70361l-0.0351,-1.92632c0.47763,-3.63407 0.48536,-7.86845 1.94716,-11.28859c3.13931,-7.34504 9.73788,-12.80236 11.1553,-21.12771c0.53809,-3.16052 1.47612,-8.66024 -1.52255,-10.76097c-2.2877,0.26376 -7.0625,0.84969 -9.1199,0.90958c-1.39202,0.0405 -2.8139,0.11457 -4.17362,-0.18623c-12.85386,-2.84393 -6.83373,-16.20788 -14.08539,-23.53495c-5.83501,-5.8958 -16.90919,-6.21186 -24.71454,-7.3911c0,0 -2.7504,-0.41571 -2.33463,-3.16611c0.41577,-2.7504 3.16617,-2.33463 3.16617,-2.33463c9.26316,1.40095 20.95569,2.0403 27.86682,9.00864c5.96699,6.01643 3.22767,13.46751 7.21826,19.84898c2.81101,4.4952 13.80329,1.65328 17.59267,1.4658c12.56887,8.33681 3.31289,25.48118 -2.62568,35.30815c-0.43201,0.71489 -2.89343,3.15683 -3.35234,4.24981c-1.18849,2.83058 -1.11081,6.74646 -1.50176,9.72405l0.07827,0.98519c0,0 0.10833,2.77951 -2.67121,2.8878c-2.77954,0.10826 -2.8878,-2.67122 -2.8878,-2.67122z" data-paper-data="{&quot;index&quot;:null}" fill="#000000" stroke="none" stroke-width="0.5"/><path d="M399.92291,91.78995c0.16259,15.73041 -12.85613,28.61834 -29.07811,28.78601c-16.22201,0.16767 -29.50427,-12.44841 -29.66686,-28.17882c-0.16259,-15.73041 12.85609,-28.61838 29.07807,-28.78605c16.22198,-0.16767 29.50431,12.44845 29.6669,28.17886z" data-paper-data="{&quot;index&quot;:null}" fill="#ffffff" stroke="#000000" stroke-width="2"/><path d="M384.78193,91.00423c0.08608,8.32802 -6.31978,15.14616 -14.30789,15.22872c-7.98808,0.08256 -14.53349,-6.60171 -14.61957,-14.92973c-0.08608,-8.32802 6.31977,-15.14616 14.30785,-15.22872c7.98808,-0.08256 14.53353,6.60171 14.61961,14.92973z" data-paper-data="{&quot;index&quot;:null}" fill="#000000" stroke="none" stroke-width="0"/><path d="M293.04525,63.66727c16.22201,-0.16767 29.50431,12.44845 29.6669,28.17882c0.16259,15.73041 -12.85613,28.61834 -29.07811,28.78601c-16.22201,0.16767 -29.5043,-12.44841 -29.66689,-28.17882c-0.16259,-15.73041 12.8561,-28.61834 29.07811,-28.78601z" fill="#ffffff" stroke="#000000" stroke-width="2"/><path d="M293.39654,76.12611c7.98808,-0.08256 14.5335,6.60167 14.61958,14.9297c0.08608,8.32802 -6.31978,15.14612 -14.30786,15.22868c-7.98808,0.08256 -14.53352,-6.60171 -14.6196,-14.92969c-0.08608,-8.32802 6.31981,-15.14612 14.30788,-15.22869z" fill="#000000" stroke="none" stroke-width="0"/><path d="M251.32477,201.73533l-0.20729,-20.05534l154.97748,-1.60184l0.20729,20.05534c0,0 -26.06245,22.98478 -75.74558,23.00873c-54.69558,0.02635 -79.23187,-21.40688 -79.23187,-21.40688z" fill="url(#color-8)" stroke="none" stroke-width="0"/><path d="M328.11647,38.01564c1.17022,-0.0121 2.29193,59.75718 2.66626,111.43272c-0.5979,-0.55733 -1.31759,-0.61764 -1.31759,-0.61764c-12.58209,-0.97586 -52.66539,-0.0179 -60.31529,-0.25955c-13.7644,-1.00279 -28.92619,0.4732 -42.13081,-5.85793c-0.18889,-3.61931 -0.29061,-7.26726 -0.3284,-10.92315c-0.52926,-51.20574 44.88063,-93.19 101.42581,-93.77445zM297.27167,121.84726c10.75797,-2.32536 26.92401,-9.36227 24.21004,-34.42523c-0.68316,-6.30894 -9.89376,-26.05412 -27.97579,-25.02394c-11.79435,0.99279 -31.98647,9.8126 -30.86492,28.9884c1.40532,24.02744 15.9115,29.22485 34.63067,30.46077z" fill="#1300d2" stroke="#000000" stroke-width="2"/><path d="M329.96713,219.03575c-80.26568,8.18812 -99.59701,-30.0991 -103.28202,-74.65339c13.3113,5.49929 28.11711,4.33726 41.82996,5.33877c7.86694,0.24635 48.18189,-0.849 60.6001,0.24774c0,0 0.9369,0.07789 1.64128,-0.60951c0.24214,37.4751 0.07052,69.58866 -0.78926,69.67639z" fill="#1300d2" stroke="#000000" stroke-width="2"/><path d="M339.83746,35.23299c56.54517,-0.58445 102.81317,40.45222 103.34243,91.65797c0.03779,3.65589 0.01153,7.30516 -0.10255,10.9276c-13.07094,6.60272 -28.26,5.44043 -42.00073,6.72752c-7.64327,0.39971 -47.73782,0.27047 -60.29705,1.50619c0,0 -0.71829,0.07518 -1.30455,0.64475c-0.69388,-51.67224 -0.80782,-111.45193 0.36241,-111.46402zM406.40206,87.23915c0.72495,-19.19489 -19.64516,-27.59544 -31.45751,-28.34424c-18.09946,-0.65624 -26.89996,19.2751 -27.45257,25.59685c-2.19537,25.1137 14.11269,31.815 24.91643,33.91746c18.68963,-1.62258 33.0853,-7.11872 33.99365,-31.17007z" data-paper-data="{&quot;index&quot;:null}" fill="#1300d2" stroke="#000000" stroke-width="2"/><path d="M341.18565,224.4152c-0.86141,-0.06994 -1.69674,-32.17309 -2.22925,-69.64519c0.71844,0.67269 1.6535,0.57545 1.6535,0.57545c12.39289,-1.35319 52.72187,-1.09137 60.58204,-1.50027c13.68919,-1.28473 28.51587,-0.42898 41.71066,-6.20224c-2.76333,44.62093 -21.2991,83.29955 -101.71688,76.77225z" data-paper-data="{&quot;index&quot;:null}" fill="#1300d2" stroke="#000000" stroke-width="2"/><path d="M331.37426,110.44518c15.86573,-0.16399 28.9025,16.63935 29.11844,37.5313c0.21594,20.89193 -12.47069,37.96114 -28.33645,38.12513c-15.86573,0.16399 -28.90256,-16.63935 -29.1185,-37.53127c-0.21594,-20.89193 12.47079,-37.96117 28.33652,-38.12516z" fill="#ff00cc" stroke="#000000" stroke-width="2"/></g><g stroke="#000000" stroke-width="3.5"><g><path d="M241.78865,163.21356c57.8322,0 104.71452,46.88233 104.71452,104.71462c0,57.8322 -46.88223,104.71452 -104.71452,104.71452c-57.8322,0 -104.71471,-46.88232 -104.71471,-104.71452c0,-57.8322 46.88242,-104.71462 104.71471,-104.71462z" fill="url(#color-9)"/><path d="M-114.05589,266.78128c45.14945,15.60212 95.62439,12.80935 142.29987,15.97369c26.78881,0.90693 164.15473,-0.97151 206.41696,2.41938c0,0 3.18871,0.24239 5.6123,-1.64007c-0.49459,103.73294 0.77856,192.62195 -2.15386,192.83224c-280.79369,20.13663 -341.1914,-86.15958 -352.17527,-209.58524z" fill="#a90000"/></g><path d="M240.11104,-22.73398c4.013,0 0.76132,165.46537 0.21341,308.50699c-2.03041,-1.55973 -4.49605,-1.74725 -4.49605,-1.74725c-43.10806,-3.06101 -180.58344,-1.55625 -206.80556,-2.44393c-47.16118,-3.16938 -99.2017,0.48223 -144.25451,-17.41927c-0.51951,-10.02316 -0.73891,-20.1231 -0.73891,-30.24319c0,-90.4454 2.74747,-204.54241 108.42385,-249.90007c51.85449,-22.25661 147.87154,-8.58276 242.80474,-5.14529c1.61428,-0.53742 4.85304,-1.60798 4.85304,-1.60798zM44.44632,128.50511c-0.40188,33.99621 37.50142,86.1954 101.64371,90.15179c22.95142,1.41572 89.98122,-35.38187 81.56349,-104.8304c-2.1189,-17.48184 -19.64994,-79.94155 -95.03919,-75.45191c-40.47677,2.4105 -87.43816,28.38756 -88.16801,90.13044z" fill="#a90000"/><path d="M244.742,-21.12599c95.36853,-3.45324 178.08273,-12.49781 230.00342,9.95663c105.09128,45.44943 121.22517,154.84684 121.22517,245.08873c0,10.12009 -0.2194,20.22003 -0.73891,30.24319c-45.05281,17.9015 -97.09333,14.24989 -144.25451,17.41927c-26.22212,0.88768 -163.69751,-0.61708 -206.80556,2.44393c0,0 -2.46564,0.18752 -4.49605,1.74725c-0.54792,-143.04162 -3.7996,-308.50699 0.21341,-308.50699c0,0 3.23876,1.07056 4.85304,1.60798zM435.55368,128.50502c-0.72984,-61.74288 -47.69123,-87.71994 -88.16801,-90.13044c-75.38925,-4.48964 -92.92029,57.97007 -95.03919,75.45191c-8.41773,69.44853 58.61207,106.24613 81.56349,104.8304c64.14229,-3.95639 102.04559,-56.15558 101.64371,-90.15179z" data-paper-data="{&quot;index&quot;:null}" fill="#a90000"/><path d="M241.88062,476.36652c-2.93242,-0.21029 -1.65926,-89.0993 -2.15386,-192.83224c2.42359,1.88246 5.6123,1.64007 5.6123,1.64007c42.26223,-3.39089 179.62815,-1.51245 206.41696,-2.41938c46.67547,-3.16434 97.15041,-0.37157 142.29987,-15.97369c-10.98387,123.42566 -71.38157,229.72187 -352.17527,209.58524z" data-paper-data="{&quot;index&quot;:null}" fill="#a90000"/></g><path d="M78.53358,368.79149c-5.11341,10.22681 -15.34022,5.11341 -15.34022,5.11341l-12.78192,-7.04697c-2.6494,-5.08945 -6.21471,-9.79872 -7.94821,-15.26835c-0.98797,-3.11729 0.74577,-6.62639 0,-9.81032c-1.0251,-4.3765 -5.35901,-7.94478 -5.21103,-12.4373c0.1907,-5.78939 8.2327,-17.84939 10.68067,-23.99621c8.89798,-22.34268 16.61302,-45.02818 24.24219,-67.91237c0.75973,-2.27887 9.0172,-26.67277 9.34444,-29.13135c2.35853,-17.71981 -3.70009,-30.0773 -9.06084,-46.26505c-3.17227,-6.57765 -9.08652,-11.43837 -13.42759,-17.31068c-4.34672,-5.87996 -5.40354,-13.78554 -9.81032,-19.62063c-6.77916,-8.97641 -15.32405,-11.03454 -20.90852,-21.93059c-1.75946,-3.43294 0.34262,-7.80952 -0.56449,-11.55891c-2.47632,-10.23547 -12.14039,-19.01054 -14.71548,-29.43095c-5.45287,-22.06569 6.71435,-47.63658 24.06316,-60.95425c8.49253,-6.51922 21.38734,-10.85874 31.00308,-15.66661c0,0 10.22681,-5.11341 15.34022,5.11341c5.11341,10.22681 -5.11341,15.34022 -5.11341,15.34022c-8.7103,4.35515 -19.97765,8.06738 -27.85883,13.76435c-10.17182,7.35278 -18.39662,24.52289 -15.17811,37.14893c1.59009,6.23785 6.10213,11.34109 8.90907,17.13421c1.97653,4.07927 4.67613,7.90703 5.8064,12.29675c0.6717,2.60873 -1.72589,5.63112 -0.56449,8.06172c3.62357,7.58344 13.30653,10.57451 18.33275,17.31068c4.37287,5.86054 5.37615,13.80633 9.81032,19.62063c5.48776,7.19583 11.88572,13.87204 16.00336,21.93059c0.55808,1.66444 10.38565,30.79904 10.53303,31.97501c3.86232,30.81872 -10.50562,60.25867 -20.05975,88.83493c-4.50271,13.46756 -9.71193,26.83746 -14.99908,40.00112c-1.46336,3.64339 -3.25579,7.16127 -5.24191,10.54815c-1.008,1.71891 -3.84878,2.70995 -3.69805,4.69691c0.21507,2.83505 3.85651,4.43888 4.59929,7.18334c1.24393,4.59614 -0.01085,9.78495 1.86211,14.16261l6.83872,2.76335c0,0 10.22681,5.11341 5.11341,15.34022z" fill="#000000" stroke="none" stroke-width="0.5"/><path d="M331.40865,362.90428l0.6194,-3.63147c2.06466,-12.10491 4.12932,-24.20982 6.19399,-36.31473c1.10944,-6.50454 1.12333,-13.31533 3.43757,-19.49466c1.36193,-3.63653 4.09885,-6.64945 5.48967,-10.27502c0.95106,-2.47922 0.39296,-5.39874 1.45639,-7.83188c1.09966,-2.51602 3.24685,-4.42903 4.87027,-6.64355c1.59713,-9.36384 6.41042,-14.72768 11.96054,-22.27703c3.90215,-5.30777 6.42178,-11.5438 10.31568,-16.85763c7.64398,-10.43142 18.38125,-18.4393 23.19683,-30.98275c1.5805,-4.11682 3.68836,-14.10064 3.27054,-18.46807c-0.26149,-2.73335 -2.18921,-5.14406 -2.39268,-7.88234c-0.19676,-2.64808 1.27355,-5.21696 1.2221,-7.87184c-0.16137,-8.32782 -3.80302,-16.85578 -6.18868,-24.71501c-1.46198,-4.81629 -1.80549,-10.09751 -4.27971,-14.48068c-4.08946,-7.24462 -9.42649,-13.98688 -11.93454,-21.91897c-1.11659,-3.67846 -5.39448,-17.0638 -5.03333,-19.70276c0.45774,-3.34466 4.11688,-5.43913 5.42844,-8.54977c0.95417,-2.26301 0.11373,-5.07985 1.2388,-7.26295c1.97405,-3.83047 4.39041,-7.68099 7.81237,-10.30007c7.26114,-5.5575 17.33463,-5.84455 26.11748,-8.38845c1.93394,-0.56015 4.22531,-0.29741 5.85687,-1.47721c5.66361,-4.09543 7.88117,-11.91109 13.54645,-16.00421c2.58929,-1.87074 6.23367,-1.62563 9.06878,-3.09746c3.08259,-1.6003 5.25233,-4.79751 8.50174,-6.02415c0.38011,-0.14349 0.7597,-0.09446 1.14111,0.0469c-0.03502,-0.03769 -0.06527,-0.07646 -0.09017,-0.11632c-0.97816,-1.56615 -0.06393,-3.94256 -1.18225,-5.4119c-1.66298,-2.18496 -5.07069,-2.61956 -6.64355,-4.87027c-1.8298,-2.61838 -1.63779,-6.22739 -3.09746,-9.06878c-1.37768,-2.68178 -3.54624,-4.87687 -5.31936,-7.31531c0,0 -4.9647,-7.00657 2.04187,-11.97127c7.00657,-4.9647 11.97127,2.04187 11.97127,2.04187c2.24298,3.22939 4.93225,6.19077 6.72893,9.68818c1.0518,2.04743 0.34254,4.82822 1.68789,6.69591c1.60488,2.22799 5.1103,2.59239 6.64355,4.87027c2.42809,3.60733 6.83027,21.72815 5.35278,24.77597c-1.9129,3.94599 -7.91563,3.80488 -11.67807,6.05744c-2.97998,1.78411 -5.40447,4.45244 -8.50174,6.02415c-2.05263,1.04161 -4.79849,0.38481 -6.69591,1.68789c-1.66799,1.14552 -1.91012,3.60793 -3.23823,5.13455c-3.50547,4.02942 -6.82214,8.39771 -11.19815,11.45958c-8.55264,5.98423 -22.28567,4.27792 -31.08441,9.27575c-2.86462,1.62715 -2.54853,8.913 -3.16697,10.24997c-0.89646,1.93803 -3.79488,2.66559 -4.3121,4.73732c-0.3625,1.45199 1.60864,2.54702 2.1447,3.94427c0.98356,2.56363 1.59512,5.2549 2.39268,7.88234c2.03666,7.12152 7.38125,12.8457 10.92326,19.35095c0.33667,0.61832 4.87178,15.66768 5.29099,17.0487c2.98608,9.83724 6.54935,19.40101 6.92857,29.842c0.08193,2.25567 -1.43153,4.40377 -1.25549,6.65405c0.21415,2.73747 2.22489,5.14165 2.39268,7.88234c0.36303,5.93006 -2.01014,19.49743 -4.16225,25.1096c-5.61515,14.64301 -16.61079,23.32433 -25.50587,35.45272c-2.19187,2.9886 -3.25507,6.6721 -5.19145,9.83224c-5.72093,9.33648 -13.34087,15.00656 -15.21089,25.97032c-1.62342,2.21452 -3.7608,4.13184 -4.87027,6.64355c-0.91202,2.06469 -0.21263,4.58666 -1.02121,6.69401c-1.39107,3.62548 -4.06526,6.66251 -5.48967,10.27502c-2.08404,5.28545 -1.80116,11.21948 -2.75642,16.82007c-2.06466,12.10491 -4.74872,27.84129 -6.81339,39.9462c0,0 -1.44382,8.46496 -9.90878,7.02115c-8.46496,-1.44382 -7.02115,-9.90878 -7.02115,-9.90878zM455.2702,33.72371c0.73419,-0.04849 -0.59183,-0.21083 -1.73477,-0.59018c0.56665,0.32843 1.14246,0.62931 1.73477,0.59018z" data-paper-data="{&quot;index&quot;:null}" fill="#000000" stroke="none" stroke-width="0.5"/><path d="M-8.4985,62.88289v-28.52853h504.5045v28.52853z" fill="url(#color-10)" stroke="none" stroke-width="0"/><path d="M-11.00601,254.06908v-28.52853h504.5045v28.52853z" fill="url(#color-11)" stroke="none" stroke-width="0"/><path d="M57.56757,372.1922v-391.89189h27.02703v391.89189z" fill="url(#color-12)" stroke="#000000" stroke-width="0"/><path d="M397.4024,377.1922v-391.89189h27.02702v391.89189z" fill="url(#color-13)" stroke="#000000" stroke-width="0"/><text transform="translate(41.05106,22.13084) scale(0.5,0.5)" font-size="40" xml:space="preserve" fill="#ff0000" fill-rule="nonzero" stroke="#ff0000" stroke-width="3" stroke-linecap="butt" stroke-linejoin="miter" stroke-miterlimit="10" stroke-dasharray="" stroke-dashoffset="0" font-family="Sans Serif" font-weight="normal" text-anchor="start" style="mix-blend-mode: normal"><tspan x="0" dy="0">GAME OVER</tspan></text><text transform="translate(97.54355,292.89661) scale(0.5,0.5)" font-size="40" xml:space="preserve" fill="#1500ff" fill-rule="nonzero" stroke="#1500ff" stroke-width="3" stroke-linecap="butt" stroke-linejoin="miter" stroke-miterlimit="10" stroke-dasharray="" stroke-dashoffset="0" font-family="Sans Serif" font-weight="normal" text-anchor="start" style="mix-blend-mode: normal"><tspan x="0" dy="0">Keep track of him at all times.</tspan></text><g fill="#000000" stroke="none" stroke-width="0"><path d="M-11.50149,379.48819v-394.89489h45.04505v394.89489z"/><path d="M448.45346,385.98969v-394.89489h45.04505v394.8949z"/></g></g></g></svg>