<svg version="1.1" xmlns="http://www.w3.org/2000/svg" xmlns:xlink="http://www.w3.org/1999/xlink" width="140" height="135.9336" viewBox="0,0,140,135.9336"><defs><linearGradient x1="248.81389" y1="190.36097" x2="248.70445" y2="208.66359" gradientUnits="userSpaceOnUse" id="color-1"><stop offset="0" stop-color="#a6a6a6"/><stop offset="1" stop-color="#707070"/></linearGradient><linearGradient x1="231.24476" y1="190.5815" x2="231.13533" y2="208.88413" gradientUnits="userSpaceOnUse" id="color-2"><stop offset="0" stop-color="#a6a6a6"/><stop offset="1" stop-color="#707070"/></linearGradient><linearGradient x1="238.78838" y1="173.5287" x2="238.78838" y2="181.09844" gradientUnits="userSpaceOnUse" id="color-3"><stop offset="0" stop-color="#a6a6a6"/><stop offset="1" stop-color="#707070"/></linearGradient><linearGradient x1="240.27563" y1="178.32923" x2="240.27563" y2="192.9038" gradientUnits="userSpaceOnUse" id="color-4"><stop offset="0" stop-color="#a6a6a6"/><stop offset="1" stop-color="#707070"/></linearGradient><linearGradient x1="229.35915" y1="174.52988" x2="233.75603" y2="192.29686" gradientUnits="userSpaceOnUse" id="color-5"><stop offset="0" stop-color="#a6a6a6"/><stop offset="1" stop-color="#707070"/></linearGradient><linearGradient x1="251.29964" y1="175.0948" x2="246.90276" y2="192.86177" gradientUnits="userSpaceOnUse" id="color-6"><stop offset="0" stop-color="#a6a6a6"/><stop offset="1" stop-color="#707070"/></linearGradient><linearGradient x1="240.11158" y1="189.51436" x2="240.11158" y2="193.69466" gradientUnits="userSpaceOnUse" id="color-7"><stop offset="0" stop-color="#a6a6a6"/><stop offset="1" stop-color="#707070"/></linearGradient><radialGradient cx="240" cy="180" r="36" gradientUnits="userSpaceOnUse" id="color-8"><stop offset="0" stop-color="#38414a" stop-opacity="0"/><stop offset="1" stop-color="#38414a"/></radialGradient><radialGradient cx="240" cy="180" r="70" gradientUnits="userSpaceOnUse" id="color-9"><stop offset="0" stop-color="#f3f3c2"/><stop offset="1" stop-color="#f3f3c2" stop-opacity="0"/></radialGradient></defs><g transform="translate(-170,-112.03319)"><g data-paper-data="{&quot;isPaintingLayer&quot;:true}" fill-rule="nonzero" stroke-linecap="butt" stroke-linejoin="miter" stroke-miterlimit="10" stroke-dasharray="" stroke-dashoffset="0" style="mix-blend-mode: normal"><path d="M226.25,216v-72h27.5v72z" fill="#000000" stroke="#3c3c3c" stroke-width="5"/><g><path d="M241.02788,149.22538c-0.69327,-0.50676 -0.26795,-2.39374 0.96665,-4.96975c1.78499,0.2656 3.56685,0.49176 5.33212,0.64811c-2.91093,3.17587 -5.40879,4.9722 -6.29877,4.32164z" fill="#ffe400" stroke="#000000" stroke-width="1"/><path d="M241.69635,149.44145c-0.98917,0.10233 -2.10511,-2.17448 -2.98506,-5.71176c1.55595,0.2639 3.11581,0.51196 4.67063,0.72402c-0.21985,2.96507 -0.81076,4.89724 -1.68557,4.98774z" fill="#ffe400" stroke="#000000" stroke-width="1"/><path d="M242.04612,148.5298c-0.98522,0.74851 -4.05253,-1.54736 -7.48505,-5.41005c0.15809,-0.01116 0.3144,-0.02337 0.46814,-0.03632c2.06568,0.36966 4.151,0.73954 6.23455,1.06136c1.06893,2.2625 1.41455,3.90472 0.78236,4.38501z" fill="#ffe400" stroke="#000000" stroke-width="1"/><path d="M240.71522,144.27907c3.51835,0.00136 8.29779,2.05132 13.22036,5.42847c0.1552,0.6029 0.36522,1.18379 0.62441,1.73705c-0.53321,2.92273 -0.62526,6.33707 -0.64039,8.62682c-0.10039,15.18773 -0.29373,35.90467 -0.15895,54.95762c-1.33425,0.49558 -2.70774,0.92185 -4.11505,1.27389c-0.32509,-0.04615 -0.6533,-0.0843 -0.98362,-0.11516c-4.15795,-0.38854 -7.66946,-0.47816 -10.60344,0.13511c-2.98648,-0.56053 -5.99908,-0.91866 -8.9451,-0.28472c-0.57487,-0.16004 -1.14374,-0.33256 -1.70622,-0.51721c1.15392,-9.03271 -0.60995,-19.36946 -0.45715,-27.92598c0.11605,-6.49893 2.46382,-14.48641 -0.95083,-20.55679c-0.14611,-0.25975 -0.31221,-0.49965 -0.49564,-0.72233c0.39166,-1.53203 0.86746,-3.06939 1.1473,-4.44941c0.39648,-1.9552 -0.168,-7.81788 -0.8551,-11.36193c5.5034,-3.77917 10.94188,-6.13533 14.91942,-6.22542z" data-paper-data="{&quot;index&quot;:null}" fill="#696969" stroke="#000000" stroke-width="2"/><path d="" data-paper-data="{&quot;index&quot;:null}" fill="#696969" stroke="#000000" stroke-width="2"/><path d="M247.29221,208.65514l0.10943,-18.3026l2.82448,0.0169l-0.10942,18.3026z" fill="url(#color-1)" stroke="none" stroke-width="0"/><path d="M229.72308,208.87567l0.10943,-18.3026l2.82448,0.01689l-0.10943,18.30261z" fill="url(#color-2)" stroke="none" stroke-width="0"/><path d="M227.14021,188.62504c1.06234,-0.53423 2.02781,-0.36664 3.14122,-0.64094c1.57122,-0.38711 2.67954,-1.53254 3.86214,-2.54573l0.30938,-0.27309c0,0 0.3307,-0.29184 0.62255,0.03887c0.29185,0.33071 -0.03886,0.62256 -0.03886,0.62256l-0.31916,0.28157c-1.30482,1.11783 -2.51529,2.30538 -4.24383,2.73676c-0.92684,0.23131 -1.88614,0.03276 -2.76379,0.45353c-0.33191,0.48863 -0.52896,1.22387 -0.72571,1.94936c-0.02471,-0.77758 -0.0401,-1.54504 -0.04303,-2.30039c0.06299,-0.12109 0.12912,-0.22975 0.19909,-0.3225z" fill="#000000" stroke="none" stroke-width="0.5"/><path d="M234.75504,183.839c0.01529,0.4408 -0.42552,0.4561 -0.42552,0.4561l-0.30499,0.01055c-2.15883,0.09349 -4.53312,0.2342 -5.96261,2.07676c-0.34843,0.43823 -0.72081,0.74573 -1.10673,0.97827c0.00943,-0.36587 0.02555,-0.73629 0.04697,-1.11064c0.12155,-0.12144 0.24431,-0.2592 0.36902,-0.41632c1.6542,-2.04264 4.14912,-2.30257 6.61515,-2.40936l0.31259,-0.01086c0,0 0.4408,-0.01529 0.45608,0.42551z" fill="#000000" stroke="none" stroke-width="0.5"/><path d="M228.78538,177.18767c0,0 0.40382,-0.17741 0.58122,0.22641c0.01149,0.02616 0.02056,0.05136 0.02743,0.07564c0.05649,-0.00902 0.1123,-0.01841 0.16735,-0.02832c0,0 0.43411,-0.07803 0.51213,0.35609c0.07801,0.43411 -0.35609,0.51213 -0.35609,0.51213c-0.54734,0.09834 -1.3069,0.12394 -2.01012,0.25985c0.02585,-0.33621 0.04897,-0.67244 0.06854,-1.00836c0.3443,-0.12363 0.68408,-0.25046 1.00954,-0.39345z" fill="#000000" stroke="none" stroke-width="0.5"/><path d="M251.41477,192.75124c-0.82063,-0.76762 -0.9069,-2.98252 -1.62574,-4.04077c-0.87764,-0.42077 -1.83695,-0.22222 -2.76379,-0.45353c-1.72853,-0.43138 -2.93899,-1.61893 -4.24383,-2.73677l-0.31914,-0.28158c0,0 -0.33071,-0.29184 -0.03886,-0.62255c0.29185,-0.33071 0.62255,-0.03887 0.62255,-0.03887l0.30938,0.27309c1.18261,1.01319 2.29093,2.15863 3.86214,2.54573c1.11341,0.27432 2.07889,0.10671 3.14122,0.64094c0.71457,0.94723 1.02848,3.55377 1.69584,4.10697c0.13326,0.11046 1.29406,0.34547 1.3469,0.3509c0.11246,0.01155 0.22108,0.01825 0.32593,0.02035c-0.00095,0.32501 -0.00186,0.65034 -0.00272,0.97595c-0.90056,-0.00737 -1.79908,-0.26205 -2.30989,-0.73986z" data-paper-data="{&quot;index&quot;:null}" fill="#000000" stroke="none" stroke-width="0.5"/><path d="M252.63888,185.3874c-1.62979,-1.76399 0.27384,-4.715 -1.29273,-6.63174c-0.7374,-0.90224 -2.53012,-0.82827 -3.56468,-1.01414c0,0 -0.43412,-0.07802 -0.35609,-0.51213c0.07801,-0.43411 0.51214,-0.35609 0.51214,-0.35609c0.05505,0.0099 0.11086,0.01931 0.16735,0.02832c0.00688,-0.02428 0.01593,-0.04947 0.02742,-0.07564c0.17741,-0.40381 0.58122,-0.22641 0.58122,-0.22641c1.56898,0.68931 3.47115,1.00321 4.60522,2.39275c0.15316,0.18766 0.30839,0.44649 0.46717,0.74486c-0.00367,0.61679 -0.00726,1.23668 -0.01075,1.85938c-0.38104,-0.76477 -0.73481,-1.53096 -1.11812,-2.01918l-0.00001,0.00001c0.33768,1.8076 -0.52303,4.02666 0.63386,5.21582c0.13259,0.13628 0.29087,0.25773 0.46554,0.36842c-0.0016,0.3291 -0.00317,0.65883 -0.00471,0.98914c-0.4238,-0.20432 -0.81847,-0.44478 -1.11282,-0.76337z" data-paper-data="{&quot;index&quot;:null}" fill="#000000" stroke="none" stroke-width="0.5"/><path d="M243.19999,182.8254l0.31258,0.01086c2.46603,0.1068 4.96095,0.36671 6.61515,2.40935c1.17397,1.47913 2.17578,1.24281 3.61981,1.82493c-0.00152,0.34401 -0.003,0.68862 -0.00444,1.03378c-1.41351,-0.85549 -3.02232,-0.69539 -4.30611,-2.31002c-1.42949,-1.84256 -3.80379,-1.98327 -5.96262,-2.07676l-0.30498,-0.01056c0,0 -0.4408,-0.01529 -0.42552,-0.45609c0.01529,-0.4408 0.45609,-0.42551 0.45609,-0.42551z" data-paper-data="{&quot;index&quot;:null}" fill="#000000" stroke="none" stroke-width="0.5"/><path d="M230.71024,181.09844v-7.56974h16.15629v7.56974z" fill="url(#color-3)" stroke="#000000" stroke-width="0"/><path d="M232.85688,192.9038v-14.57456h14.83749v14.57456z" fill="url(#color-4)" stroke="none" stroke-width="0"/><path d="M232.38512,192.63612l-4.39687,-17.76695l2.74181,-0.67853l4.39688,17.76696z" fill="url(#color-5)" stroke="none" stroke-width="0"/><path d="M245.53186,192.52251l4.39688,-17.76696l2.74181,0.67853l-4.39688,17.76697z" data-paper-data="{&quot;index&quot;:null}" fill="url(#color-6)" stroke="none" stroke-width="0"/><path d="M250.732,181.08546c-3.29461,0 -5.96539,-2.58986 -5.96539,-5.78462c0,-3.19477 2.67079,-5.78464 5.96539,-5.78464c1.14184,0 2.20875,0.31109 3.11552,0.85063c-0.02234,3.18011 -0.04483,6.49726 -0.06478,9.906c-0.89263,0.51612 -1.93597,0.81262 -3.05073,0.81262z" data-paper-data="{&quot;index&quot;:null}" fill="#ffffff" stroke="#000000" stroke-width="2"/><path d="M229.58042,193.69466v-4.1803h21.06232v4.1803z" fill="url(#color-7)" stroke="none" stroke-width="0"/><path d="M231.08288,169.36556c3.29461,0 5.9654,2.58987 5.9654,5.78463c0,3.19477 -2.67081,5.78463 -5.9654,5.78463c-1.30023,0 -2.50329,-0.40337 -3.48338,-1.08811c0.29212,-3.1278 0.43789,-6.29657 -0.23581,-9.21955c1.01986,-0.78958 2.31267,-1.2616 3.71919,-1.2616z" fill="#ffffff" stroke="#000000" stroke-width="2"/><path d="M239.81494,205.45312c-0.1143,4.83024 -0.26743,8.62624 -0.46785,10.64937c-0.44136,0.05999 -0.87081,0.13306 -1.28855,0.22038c-3.2177,-0.60393 -6.46571,-0.9729 -9.62811,-0.11927c-0.35897,-0.10576 -0.71549,-0.21676 -1.06945,-0.33292c0.70336,-5.1449 0.43246,-10.72912 0.09089,-16.17621c1.67815,0.09447 3.13184,0.08809 4.37753,0.06918c-0.02396,3.09333 0.36929,5.73536 1.61529,5.73537h0.00001c0.2652,0 6.11332,-0.01559 6.37024,-0.0459z" data-paper-data="{&quot;index&quot;:null}" fill="#ffe400" stroke="#000000" stroke-width="2"/><path d="" data-paper-data="{&quot;index&quot;:null}" fill="#ffe400" stroke="#000000" stroke-width="2"/><path d="M248.53771,199.76366c1.43948,0.02185 3.15671,0.02698 5.17708,-0.12093c-0.00268,5.35483 0.01107,10.72826 0.05008,15.96972c-0.95941,0.33832 -1.93855,0.6385 -2.93535,0.8986c-0.70443,-0.1494 -1.43078,-0.25445 -2.16755,-0.32329c-2.84855,-0.26619 -5.39371,-0.39207 -7.65761,-0.24777c-0.19277,-2.06007 -0.34091,-5.78306 -0.45221,-10.48685c0.25692,0.03031 6.10519,0.0459 6.37025,0.0459c1.24601,0 1.63926,-2.64203 1.6153,-5.73537z" data-paper-data="{&quot;index&quot;:null}" fill="#ffe400" stroke="#000000" stroke-width="2"/><g stroke="#000000"><path d="M240.63865,197.16289c15.42706,0.05439 11.2496,11.61123 6.03323,18.85987c-3.30193,-0.23405 -6.1596,-0.21279 -8.61333,0.30011c-1.422,-0.26689 -2.84991,-0.4879 -4.27374,-0.57778c-5.75129,-7.29879 -10.24944,-18.6425 6.85385,-18.5822z" fill="#ffe400" stroke-width="2"/><path d="M240.536,198.26549c15.02247,0.05296 2.22289,16.42978 0,16.42978c-2.33618,0 -16.84116,-16.48916 0,-16.42978z" fill="#ff0700" stroke-width="1"/></g><g stroke="#000000"><path d="M240.02355,144.27907c0.22382,-0.13063 0.41945,26.63786 0.21517,47.84052c-0.32189,-0.04813 -0.65136,-0.07308 -0.98667,-0.07308c-3.55505,0 -10.51757,0.06757 -10.58665,6.9094c-0.47248,0.00835 -0.88099,0.02018 -1.2585,0.02735c-0.25192,-3.95626 -0.52043,-7.82652 -0.45683,-11.38831c0.03999,-2.23965 0.34503,-4.65608 0.58793,-7.10991c1.07448,0.75391 2.38338,1.19641 3.79564,1.19641c3.65391,0 6.61599,-2.96209 6.61599,-6.61599c0,-3.6539 -2.96209,-6.61598 -6.61599,-6.61598c-1.57255,0 -3.01695,0.54864 -4.15224,1.46495c-0.28053,-0.9948 -0.66534,-1.9575 -1.18216,-2.87627c-0.14611,-0.25975 -0.31221,-0.49965 -0.49564,-0.72233c0.39166,-1.53203 0.86746,-3.06939 1.1473,-4.44941c0.40009,-1.97298 -0.17835,-7.92484 -0.87388,-11.45804c5.25884,-3.72297 10.44491,-6.03998 14.24653,-6.12931z" data-paper-data="{&quot;index&quot;:null}" fill="#ffe400" stroke-width="2"/><path d="" data-paper-data="{&quot;index&quot;:null}" fill="#ffe400" stroke-width="2"/><path d="M231.33363,168.39949c3.6539,0 6.66599,3.01208 6.66599,6.66598c0,3.6539 -3.01208,6.66599 -6.66599,6.66599c-1.40685,0 -2.71855,-0.44653 -3.79982,-1.2043c0.35902,-3.61588 0.58714,-7.31472 -0.36307,-10.65031c1.14442,-0.92243 2.59453,-1.47736 4.16289,-1.47736z" data-paper-data="{&quot;noHover&quot;:false,&quot;origItem&quot;:[&quot;Path&quot;,{&quot;applyMatrix&quot;:true,&quot;segments&quot;:[[[462.66727,363.36292],[-7.3078,0],[7.30782,0]],[[475.89925,350.13094],[0,7.3078],[0,-7.3078]],[[462.66727,336.89898],[7.3078,0],[-7.30782,0]],[[449.43531,350.13094],[0,-7.3078],[0,7.3078]]],&quot;closed&quot;:true,&quot;fillColor&quot;:[1,0.89412,0],&quot;strokeColor&quot;:[0,0,0],&quot;strokeWidth&quot;:2}]}" fill="#000000" stroke-width="1"/><path d="M239.71738,179.5497c0.87604,0 1.9346,23.73619 0,23.73619c-3.25447,0 -3.91647,-6.50309 -5.90521,-8.73545c-1.6731,-1.87805 -4.94502,-1.63353 -4.94502,-4.32695c0,-5.89497 4.85782,-10.67379 10.85023,-10.67379z" fill="#ffe400" stroke-width="2"/></g><g data-paper-data="{&quot;index&quot;:null}" stroke="#000000"><path d="M251.49555,200.05857c-0.06867,-6.84182 -6.11346,-7.79153 -9.64768,-7.79153c-0.33333,0 -0.66088,0.02495 -0.98089,0.07308c-0.20309,-21.20266 -0.0086,-47.97115 0.21391,-47.84052c3.46488,0.0819 8.08659,2.03618 12.8603,5.22965c0.15464,0.59514 0.36271,1.16872 0.6188,1.71534c-0.53321,2.92273 -0.62526,6.33707 -0.64039,8.62682c-0.01891,2.86157 -0.04113,5.91943 -0.06383,9.12546c-0.90915,-0.47744 -1.94306,-0.74738 -3.03966,-0.74738c-3.6325,0 -6.57724,2.96208 -6.57724,6.61598c0,3.6539 2.94473,6.61599 6.57724,6.61599c1.06572,0 2.07224,-0.25496 2.96256,-0.70755c-0.03513,6.13197 -0.06158,12.54822 -0.06401,18.98705c-0.6961,0.08701 -1.38221,0.11249 -2.21911,0.09761z" data-paper-data="{&quot;index&quot;:null}" fill="#ffe400" stroke-width="2"/><path d="M250.81611,181.73146c-3.63251,0 -6.62724,-3.01209 -6.62724,-6.66599c0,-3.6539 2.99474,-6.66598 6.62724,-6.66598c1.09237,0 2.12706,0.27239 3.03998,0.75271c-0.02674,3.77581 -0.05416,7.75763 -0.07767,11.86676c-0.89376,0.45528 -1.9008,0.7125 -2.96231,0.7125z" data-paper-data="{&quot;noHover&quot;:false,&quot;origItem&quot;:[&quot;Path&quot;,{&quot;applyMatrix&quot;:true,&quot;segments&quot;:[[[514.78669,350.13094],[0,7.3078],[0,-7.3078]],[[501.63221,336.89898],[7.26502,0],[-7.265,0]],[[488.47773,350.13094],[0,-7.3078],[0,7.3078]],[[501.63221,363.36292],[-7.26502,0],[7.265,0]]],&quot;closed&quot;:true,&quot;fillColor&quot;:[1,0.89412,0],&quot;strokeColor&quot;:[0,0,0],&quot;strokeWidth&quot;:2}]}" fill="#000000" stroke-width="1"/><path d="M251.51421,190.82349c0,2.69342 -3.44221,2.4489 -5.1055,4.32695c-1.97708,2.23236 -2.04575,8.13545 -5.28116,8.13545c-1.92327,0 -1.27092,-23.73619 -0.4,-23.73619c5.95731,0 10.78666,5.37882 10.78666,11.27379z" fill="#ffe400" stroke-width="2"/></g><path d="M252.29043,175.30111c0,1.20159 -0.97408,2.17567 -2.17567,2.17567c-1.20159,0 -2.17567,-0.97408 -2.17567,-2.17567c0,-1.20159 0.97408,-2.17567 2.17567,-2.17567c1.20159,0 2.17567,0.97408 2.17567,2.17567z" fill="#000000" stroke="#ff0000" stroke-width="1"/><path d="M233.80962,175.26202c0,1.20159 -0.97408,2.17567 -2.17567,2.17567c-1.20159,0 -2.17568,-0.97408 -2.17568,-2.17567c0,-1.20159 0.97409,-2.17567 2.17568,-2.17567c1.20159,0 2.17567,0.97408 2.17567,2.17567z" fill="#000000" stroke="#ff0000" stroke-width="1"/></g><path d="M226.25,216v-72h27.5v72z" fill="url(#color-8)" stroke="#3c3c3c" stroke-width="5"/><path d="M240,112.0332c38.65993,0 70,30.42977 70,67.9668c0,37.53702 -31.34007,67.9668 -70,67.9668c-38.65993,0 -70,-30.42977 -70,-67.9668c0,-37.53702 31.34007,-67.9668 70,-67.9668z" fill="url(#color-9)" stroke="#3c3c3c" stroke-width="0"/></g></g></svg>