<svg version="1.1" xmlns="http://www.w3.org/2000/svg" xmlns:xlink="http://www.w3.org/1999/xlink" width="1259.64847" height="605.98693" viewBox="0,0,1259.64847,605.98693"><defs><linearGradient x1="-6.82987" y1="356.80163" x2="-45.41374" y2="345.87643" gradientUnits="userSpaceOnUse" id="color-1"><stop offset="0" stop-color="#5c5c5c"/><stop offset="1" stop-color="#9b9b9b"/></linearGradient><linearGradient x1="65.69775" y1="341.87396" x2="61.09349" y2="324.03569" gradientUnits="userSpaceOnUse" id="color-2"><stop offset="0" stop-color="#5c5c5c"/><stop offset="1" stop-color="#9b9b9b"/></linearGradient><linearGradient x1="-309.12607" y1="466.86225" x2="-307.35195" y2="458.08838" gradientUnits="userSpaceOnUse" id="color-3"><stop offset="0" stop-color="#5c5c5c"/><stop offset="1" stop-color="#9b9b9b"/></linearGradient><linearGradient x1="-282.30969" y1="489.47836" x2="-284.09945" y2="480.70768" gradientUnits="userSpaceOnUse" id="color-4"><stop offset="0" stop-color="#5c5c5c"/><stop offset="1" stop-color="#9b9b9b"/></linearGradient><linearGradient x1="-178.34247" y1="408.00122" x2="-211.5049" y2="385.45488" gradientUnits="userSpaceOnUse" id="color-5"><stop offset="0" stop-color="#5c5c5c"/><stop offset="1" stop-color="#9b9b9b"/></linearGradient><linearGradient x1="-266.73001" y1="394.23814" x2="-257.13081" y2="389.86608" gradientUnits="userSpaceOnUse" id="color-6"><stop offset="0" stop-color="#5c5c5c"/><stop offset="1" stop-color="#9b9b9b"/></linearGradient><linearGradient x1="-284.40193" y1="418.86594" x2="-278.42474" y2="410.17501" gradientUnits="userSpaceOnUse" id="color-7"><stop offset="0" stop-color="#5c5c5c"/><stop offset="1" stop-color="#9b9b9b"/></linearGradient><linearGradient x1="-277.96417" y1="445.46269" x2="-271.98694" y2="436.77188" gradientUnits="userSpaceOnUse" id="color-8"><stop offset="0" stop-color="#5c5c5c"/><stop offset="1" stop-color="#9b9b9b"/></linearGradient><linearGradient x1="-260.50257" y1="466.28591" x2="-254.52533" y2="457.59494" gradientUnits="userSpaceOnUse" id="color-9"><stop offset="0" stop-color="#5c5c5c"/><stop offset="1" stop-color="#9b9b9b"/></linearGradient><linearGradient x1="-331.44125" y1="500.00773" x2="-333.53889" y2="491.30563" gradientUnits="userSpaceOnUse" id="color-10"><stop offset="0" stop-color="#5c5c5c"/><stop offset="1" stop-color="#9b9b9b"/></linearGradient><linearGradient x1="-333.81013" y1="515.86263" x2="-339.95397" y2="514.64765" gradientUnits="userSpaceOnUse" id="color-11"><stop offset="0" stop-color="#5c5c5c"/><stop offset="1" stop-color="#9b9b9b"/></linearGradient><linearGradient x1="-317.96976" y1="480.2331" x2="-323.02545" y2="476.5368" gradientUnits="userSpaceOnUse" id="color-12"><stop offset="0" stop-color="#5c5c5c"/><stop offset="1" stop-color="#9b9b9b"/></linearGradient><linearGradient x1="-289.92411" y1="528.70357" x2="-295.25075" y2="521.50952" gradientUnits="userSpaceOnUse" id="color-13"><stop offset="0" stop-color="#5c5c5c"/><stop offset="1" stop-color="#9b9b9b"/></linearGradient><linearGradient x1="-285.91918" y1="544.22615" x2="-292.05019" y2="545.50452" gradientUnits="userSpaceOnUse" id="color-14"><stop offset="0" stop-color="#5c5c5c"/><stop offset="1" stop-color="#9b9b9b"/></linearGradient><linearGradient x1="-285.23574" y1="505.24" x2="-291.33291" y2="503.80918" gradientUnits="userSpaceOnUse" id="color-15"><stop offset="0" stop-color="#5c5c5c"/><stop offset="1" stop-color="#9b9b9b"/></linearGradient><linearGradient x1="-360.19563" y1="463.61912" x2="-359.119" y2="454.73279" gradientUnits="userSpaceOnUse" id="color-16"><stop offset="0" stop-color="#5c5c5c"/><stop offset="1" stop-color="#9b9b9b"/></linearGradient><linearGradient x1="-367.95766" y1="477.64573" x2="-373.28898" y2="474.35964" gradientUnits="userSpaceOnUse" id="color-17"><stop offset="0" stop-color="#5c5c5c"/><stop offset="1" stop-color="#9b9b9b"/></linearGradient><linearGradient x1="-327.70166" y1="440.3655" x2="-322.97247" y2="432.76529" gradientUnits="userSpaceOnUse" id="color-18"><stop offset="0" stop-color="#5c5c5c"/><stop offset="1" stop-color="#9b9b9b"/></linearGradient><linearGradient x1="-340.6615" y1="449.80127" x2="-344.10609" y2="444.57088" gradientUnits="userSpaceOnUse" id="color-19"><stop offset="0" stop-color="#5c5c5c"/><stop offset="1" stop-color="#9b9b9b"/></linearGradient><linearGradient x1="-304.72374" y1="435.67432" x2="-305.59098" y2="429.47187" gradientUnits="userSpaceOnUse" id="color-20"><stop offset="0" stop-color="#5c5c5c"/><stop offset="1" stop-color="#9b9b9b"/></linearGradient><linearGradient x1="-289.23766" y1="454.4347" x2="-292.2183" y2="448.92667" gradientUnits="userSpaceOnUse" id="color-21"><stop offset="0" stop-color="#5c5c5c"/><stop offset="1" stop-color="#9b9b9b"/></linearGradient><linearGradient x1="-268.84641" y1="470.27593" x2="-273.73993" y2="466.36744" gradientUnits="userSpaceOnUse" id="color-22"><stop offset="0" stop-color="#5c5c5c"/><stop offset="1" stop-color="#9b9b9b"/></linearGradient><linearGradient x1="-291.05954" y1="369.0055" x2="-282.44725" y2="362.91533" gradientUnits="userSpaceOnUse" id="color-23"><stop offset="0" stop-color="#5c5c5c"/><stop offset="1" stop-color="#9b9b9b"/></linearGradient><linearGradient x1="-309.44929" y1="373.32412" x2="-310.79751" y2="366.06854" gradientUnits="userSpaceOnUse" id="color-24"><stop offset="0" stop-color="#5c5c5c"/><stop offset="1" stop-color="#9b9b9b"/></linearGradient><linearGradient x1="-243.51607" y1="379.21847" x2="-234.90377" y2="373.12825" gradientUnits="userSpaceOnUse" id="color-25"><stop offset="0" stop-color="#5c5c5c"/><stop offset="1" stop-color="#9b9b9b"/></linearGradient><linearGradient x1="-263.9608" y1="374.42177" x2="-262.06526" y2="367.28946" gradientUnits="userSpaceOnUse" id="color-26"><stop offset="0" stop-color="#5c5c5c"/><stop offset="1" stop-color="#9b9b9b"/></linearGradient><linearGradient x1="-105.19831" y1="384.54942" x2="-109.91764" y2="366.74126" gradientUnits="userSpaceOnUse" id="color-27"><stop offset="0" stop-color="#5c5c5c"/><stop offset="1" stop-color="#9b9b9b"/></linearGradient><linearGradient x1="495.32955" y1="368.18402" x2="534.21537" y2="358.38771" gradientUnits="userSpaceOnUse" id="color-28"><stop offset="0" stop-color="#5c5c5c"/><stop offset="1" stop-color="#9b9b9b"/></linearGradient><linearGradient x1="423.26767" y1="351.14941" x2="428.38974" y2="333.45289" gradientUnits="userSpaceOnUse" id="color-29"><stop offset="0" stop-color="#5c5c5c"/><stop offset="1" stop-color="#9b9b9b"/></linearGradient><linearGradient x1="794.29048" y1="487.00613" x2="792.7728" y2="478.18429" gradientUnits="userSpaceOnUse" id="color-30"><stop offset="0" stop-color="#5c5c5c"/><stop offset="1" stop-color="#9b9b9b"/></linearGradient><linearGradient x1="766.8265" y1="508.83127" x2="768.87106" y2="500.11648" gradientUnits="userSpaceOnUse" id="color-31"><stop offset="0" stop-color="#5c5c5c"/><stop offset="1" stop-color="#9b9b9b"/></linearGradient><linearGradient x1="665.27747" y1="424.35938" x2="699.0828" y2="402.78888" gradientUnits="userSpaceOnUse" id="color-32"><stop offset="0" stop-color="#5c5c5c"/><stop offset="1" stop-color="#9b9b9b"/></linearGradient><linearGradient x1="754.0285" y1="413.17754" x2="744.56079" y2="408.52765" gradientUnits="userSpaceOnUse" id="color-33"><stop offset="0" stop-color="#5c5c5c"/><stop offset="1" stop-color="#9b9b9b"/></linearGradient><linearGradient x1="770.97532" y1="438.30982" x2="765.25391" y2="429.44839" gradientUnits="userSpaceOnUse" id="color-34"><stop offset="0" stop-color="#5c5c5c"/><stop offset="1" stop-color="#9b9b9b"/></linearGradient><linearGradient x1="763.76536" y1="464.70767" x2="758.0439" y2="455.84638" gradientUnits="userSpaceOnUse" id="color-35"><stop offset="0" stop-color="#5c5c5c"/><stop offset="1" stop-color="#9b9b9b"/></linearGradient><linearGradient x1="745.70443" y1="485.01325" x2="739.98295" y2="476.15184" gradientUnits="userSpaceOnUse" id="color-36"><stop offset="0" stop-color="#5c5c5c"/><stop offset="1" stop-color="#9b9b9b"/></linearGradient><linearGradient x1="815.63042" y1="520.78776" x2="817.98071" y2="512.15048" gradientUnits="userSpaceOnUse" id="color-37"><stop offset="0" stop-color="#5c5c5c"/><stop offset="1" stop-color="#9b9b9b"/></linearGradient><linearGradient x1="817.5363" y1="536.70495" x2="823.71293" y2="535.66949" gradientUnits="userSpaceOnUse" id="color-38"><stop offset="0" stop-color="#5c5c5c"/><stop offset="1" stop-color="#9b9b9b"/></linearGradient><linearGradient x1="802.74082" y1="500.62899" x2="807.90207" y2="497.08158" gradientUnits="userSpaceOnUse" id="color-39"><stop offset="0" stop-color="#5c5c5c"/><stop offset="1" stop-color="#9b9b9b"/></linearGradient><linearGradient x1="773.29473" y1="548.26168" x2="778.82876" y2="541.22591" gradientUnits="userSpaceOnUse" id="color-40"><stop offset="0" stop-color="#5c5c5c"/><stop offset="1" stop-color="#9b9b9b"/></linearGradient><linearGradient x1="768.83924" y1="563.66099" x2="774.93039" y2="565.11747" gradientUnits="userSpaceOnUse" id="color-41"><stop offset="0" stop-color="#5c5c5c"/><stop offset="1" stop-color="#9b9b9b"/></linearGradient><linearGradient x1="769.29206" y1="524.67148" x2="775.42834" y2="523.41892" gradientUnits="userSpaceOnUse" id="color-42"><stop offset="0" stop-color="#5c5c5c"/><stop offset="1" stop-color="#9b9b9b"/></linearGradient><linearGradient x1="845.43285" y1="485.25245" x2="844.6156" y2="476.33848" gradientUnits="userSpaceOnUse" id="color-43"><stop offset="0" stop-color="#5c5c5c"/><stop offset="1" stop-color="#9b9b9b"/></linearGradient><linearGradient x1="852.78287" y1="499.49927" x2="858.2077" y2="496.36991" gradientUnits="userSpaceOnUse" id="color-44"><stop offset="0" stop-color="#5c5c5c"/><stop offset="1" stop-color="#9b9b9b"/></linearGradient><linearGradient x1="813.63024" y1="461.06187" x2="809.12449" y2="453.32711" gradientUnits="userSpaceOnUse" id="color-45"><stop offset="0" stop-color="#5c5c5c"/><stop offset="1" stop-color="#9b9b9b"/></linearGradient><linearGradient x1="826.30963" y1="470.87126" x2="829.90517" y2="465.74348" gradientUnits="userSpaceOnUse" id="color-46"><stop offset="0" stop-color="#5c5c5c"/><stop offset="1" stop-color="#9b9b9b"/></linearGradient><linearGradient x1="790.79878" y1="455.70316" x2="791.84636" y2="449.52862" gradientUnits="userSpaceOnUse" id="color-47"><stop offset="0" stop-color="#5c5c5c"/><stop offset="1" stop-color="#9b9b9b"/></linearGradient><linearGradient x1="774.77262" y1="474.00437" x2="777.91249" y2="468.58553" gradientUnits="userSpaceOnUse" id="color-48"><stop offset="0" stop-color="#5c5c5c"/><stop offset="1" stop-color="#9b9b9b"/></linearGradient><linearGradient x1="753.92845" y1="489.24471" x2="758.93378" y2="485.48047" gradientUnits="userSpaceOnUse" id="color-49"><stop offset="0" stop-color="#5c5c5c"/><stop offset="1" stop-color="#9b9b9b"/></linearGradient><linearGradient x1="779.08292" y1="388.6645" x2="770.65176" y2="382.326" gradientUnits="userSpaceOnUse" id="color-50"><stop offset="0" stop-color="#5c5c5c"/><stop offset="1" stop-color="#9b9b9b"/></linearGradient><linearGradient x1="797.33905" y1="393.51714" x2="798.89813" y2="386.30392" gradientUnits="userSpaceOnUse" id="color-51"><stop offset="0" stop-color="#5c5c5c"/><stop offset="1" stop-color="#9b9b9b"/></linearGradient><linearGradient x1="731.26206" y1="397.48786" x2="722.83086" y2="391.14925" gradientUnits="userSpaceOnUse" id="color-52"><stop offset="0" stop-color="#5c5c5c"/><stop offset="1" stop-color="#9b9b9b"/></linearGradient><linearGradient x1="751.83788" y1="393.28891" x2="750.15098" y2="386.10439" gradientUnits="userSpaceOnUse" id="color-53"><stop offset="0" stop-color="#5c5c5c"/><stop offset="1" stop-color="#9b9b9b"/></linearGradient><linearGradient x1="592.84772" y1="398.78628" x2="598.08394" y2="381.12318" gradientUnits="userSpaceOnUse" id="color-54"><stop offset="0" stop-color="#5c5c5c"/><stop offset="1" stop-color="#9b9b9b"/></linearGradient><linearGradient x1="241.33891" y1="304.72485" x2="241.23738" y2="323.16661" gradientUnits="userSpaceOnUse" id="color-55"><stop offset="0" stop-color="#5c5c5c"/><stop offset="1" stop-color="#9b9b9b"/></linearGradient><linearGradient x1="131.53361" y1="310.18354" x2="167.53881" y2="310.38171" gradientUnits="userSpaceOnUse" id="color-56"><stop offset="0" stop-color="#5c5c5c"/><stop offset="1" stop-color="#9b9b9b"/></linearGradient><linearGradient x1="319.43859" y1="315.68163" x2="358.04456" y2="315.89413" gradientUnits="userSpaceOnUse" id="color-57"><stop offset="0" stop-color="#5c5c5c"/><stop offset="1" stop-color="#9b9b9b"/></linearGradient><linearGradient x1="276.16729" y1="362.70678" x2="290.99748" y2="373.66896" gradientUnits="userSpaceOnUse" id="color-58"><stop offset="0" stop-color="#5c5c5c"/><stop offset="1" stop-color="#9b9b9b"/></linearGradient><linearGradient x1="218.15916" y1="364.14388" x2="203.20923" y2="374.94233" gradientUnits="userSpaceOnUse" id="color-59"><stop offset="0" stop-color="#5c5c5c"/><stop offset="1" stop-color="#9b9b9b"/></linearGradient><linearGradient x1="235.0576" y1="488.59629" x2="257.01197" y2="488.71715" gradientUnits="userSpaceOnUse" id="color-60"><stop offset="0" stop-color="#5c5c5c"/><stop offset="1" stop-color="#9b9b9b"/></linearGradient><linearGradient x1="143.35147" y1="229.1402" x2="340.94348" y2="229.57598" gradientUnits="userSpaceOnUse" id="color-61"><stop offset="0" stop-color="#6c6c6c"/><stop offset="1" stop-color="#c4c4c4"/></linearGradient><linearGradient x1="206.82732" y1="199.80067" x2="284.54684" y2="199.97208" gradientUnits="userSpaceOnUse" id="color-62"><stop offset="0" stop-color="#6e6e6e"/><stop offset="1" stop-color="#c0c0c0"/></linearGradient><linearGradient x1="245.25313" y1="75.08639" x2="245.1558" y2="119.21539" gradientUnits="userSpaceOnUse" id="color-63"><stop offset="0" stop-color="#a6a6a6"/><stop offset="1" stop-color="#707070"/></linearGradient><linearGradient x1="244.86211" y1="103.07104" x2="244.67473" y2="188.03566" gradientUnits="userSpaceOnUse" id="color-64"><stop offset="0" stop-color="#a6a6a6"/><stop offset="1" stop-color="#707070"/></linearGradient><linearGradient x1="190.27123" y1="80.80173" x2="215.67501" y2="184.43353" gradientUnits="userSpaceOnUse" id="color-65"><stop offset="0" stop-color="#a6a6a6"/><stop offset="1" stop-color="#707070"/></linearGradient><linearGradient x1="298.88482" y1="84.3345" x2="273.02413" y2="187.85325" gradientUnits="userSpaceOnUse" id="color-66"><stop offset="0" stop-color="#a6a6a6"/><stop offset="1" stop-color="#707070"/></linearGradient><linearGradient x1="245.0476" y1="168.27722" x2="244.99384" y2="192.64689" gradientUnits="userSpaceOnUse" id="color-67"><stop offset="0" stop-color="#a6a6a6"/><stop offset="1" stop-color="#707070"/></linearGradient><linearGradient x1="243.68238" y1="190.00942" x2="243.63003" y2="213.75438" gradientUnits="userSpaceOnUse" id="color-68"><stop offset="0" stop-color="#707070"/><stop offset="1" stop-color="#a6a6a6"/></linearGradient></defs><g transform="translate(387.55456,21.72134)"><g data-paper-data="{&quot;isPaintingLayer&quot;:true}" fill-rule="nonzero" stroke-linejoin="miter" stroke-miterlimit="10" stroke-dasharray="" stroke-dashoffset="0" style="mix-blend-mode: normal"><g data-paper-data="{&quot;index&quot;:null}" stroke-linecap="butt"><path d="M-45.41378,345.87647c3.01692,-10.65468 14.09993,-16.84625 24.75455,-13.82937c10.65462,3.01689 16.84625,14.09993 13.82937,24.75455c-3.01689,10.65462 -14.09995,16.84626 -24.75461,13.82934c-10.6546,-3.01693 -16.84625,-14.09988 -13.82931,-24.75459z" fill="url(#color-1)" stroke="none" stroke-width="0"/><g><path d="M-21.41791,326.16642c0,0 52.38763,-18.51862 78.7267,-24.9686c25.63151,-6.27677 77.93356,-10.54996 77.93356,-10.54996l12.08619,46.82558c0,0 -46.20686,19.84989 -71.40822,26.02129c-26.70169,6.53879 -84.21613,13.51086 -84.21613,13.51086z" fill="#696969" stroke="#000000" stroke-width="2"/><path d="M-16.30585,342.98944l154.79848,-37.90748l4.60429,17.83834l-154.79838,37.90748z" fill="url(#color-2)" stroke="none" stroke-width="0"/><path d="M-12.84237,365.94067c-1.95319,-1.7278 1.43963,-3.42658 1.43963,-3.42658l4.8468,-2.38211c4.80012,-4.39414 7.15999,-9.02272 11.20912,-13.58251c2.69048,-3.02985 6.59293,-5.61071 9.48672,-8.54612c3.16553,-3.21101 4.79499,-6.68573 9.65731,-9.42105c12.24757,-6.8901 31.25447,-8.38574 40.69169,-3.6425c5.53626,2.45103 12.0544,4.08599 17.38299,6.6541c0.89744,0.43257 4.49422,2.67013 6.70069,2.67907c3.53983,0.0144 10.95897,-3.82652 13.22496,-5.00212c12.7143,-6.59607 19.88568,-16.46039 32.36816,-23.37908c0,0 3.27774,-1.79311 5.41846,-0.16343c2.14071,1.62972 -1.13703,3.4228 -1.13703,3.4228c-12.70555,6.83113 -19.57476,16.78231 -32.50678,23.45368c-4.74331,2.44699 -13.15659,6.5152 -19.21928,6.51363c-6.13129,-0.00159 -8.98764,-3.11576 -13.37208,-4.73128c-4.89011,-1.80186 -9.92292,-3.28766 -14.547,-5.33721c-6.76353,-3.55776 -21.53542,-2.44243 -30.54906,2.69442c-3.8571,2.19816 -5.12503,5.34407 -7.66353,7.91302c-2.83344,2.86745 -6.69327,5.40201 -9.30771,8.35525c-4.52648,5.11308 -7.16756,10.01281 -12.76838,14.9036l-6.00976,3.05362c0,0 -3.39283,1.69876 -5.34605,-0.02907z" fill="#000000" stroke="none" stroke-width="0.5"/><path d="M-21.41791,326.16642c0,0 52.38763,-18.51862 78.7267,-24.9686c25.63151,-6.27677 77.93356,-10.54996 77.93356,-10.54996l12.08619,46.82558c0,0 -46.20686,19.84989 -71.40822,26.02129c-26.70169,6.53879 -84.21613,13.51086 -84.21613,13.51086z" fill="#ff0000" stroke="#000000" stroke-width="2"/></g><path d="M-312.62587,461.58828c0.48991,-2.42284 2.8512,-3.98984 5.27398,-3.49994c2.42279,0.48989 3.98979,2.85118 3.49988,5.27397c-0.48987,2.42281 -2.85121,3.98984 -5.27398,3.4999c-2.42284,-0.48991 -3.98981,-2.85121 -3.49988,-5.27397z" data-paper-data="{&quot;index&quot;:null}" fill="url(#color-3)" stroke="none" stroke-width="0"/><path d="M-287.5899,485.98792c-0.4942,-2.42196 1.0685,-4.78603 3.49048,-5.28026c2.42192,-0.49422 4.78594,1.06856 5.28018,3.49047c0.49422,2.42192 -1.06853,4.78601 -3.49049,5.28027c-2.42192,0.49422 -4.78598,-1.06856 -5.28022,-3.49047z" data-paper-data="{&quot;index&quot;:null}" fill="url(#color-4)" stroke="none" stroke-width="0"/><path d="M-183.65054,380.14689c9.15756,6.22597 11.53405,18.69679 5.30807,27.85435c-6.22597,9.15756 -18.69682,11.53407 -27.85433,5.30809c-9.15756,-6.22597 -11.53407,-18.69676 -5.30807,-27.85435c6.22597,-9.15756 18.69686,-11.53404 27.85435,-5.30807z" data-paper-data="{&quot;index&quot;:null}" fill="url(#color-5)" stroke="none" stroke-width="0"/><path d="M-264.11652,387.25253c2.65076,-1.20733 5.77832,-0.03727 6.98565,2.61355c1.2073,2.65082 0.03719,5.77836 -2.61355,6.98568c-2.65076,1.20733 -5.77833,0.03727 -6.98565,-2.61352c-1.20734,-2.6507 -0.03717,-5.77833 2.61357,-6.98564z" data-paper-data="{&quot;index&quot;:null}" fill="url(#color-6)" stroke="none" stroke-width="0"/><path d="M-285.75889,411.53177c1.65052,-2.39988 4.93419,-3.00743 7.33409,-1.35681c2.39987,1.6506 3.00737,4.93414 1.3568,7.33407c-1.65052,2.39988 -4.93415,3.00745 -7.33407,1.35684c-2.39985,-1.65057 -3.00739,-4.93418 -1.35681,-7.33408z" data-paper-data="{&quot;index&quot;:null}" fill="url(#color-7)" stroke="none" stroke-width="0"/><path d="M-279.32109,438.12862c1.65052,-2.39988 4.93423,-3.00739 7.33412,-1.35681c2.39991,1.65056 3.00743,4.93419 1.35685,7.33409c-1.6506,2.39987 -4.93423,3.00739 -7.33412,1.35681c-2.39988,-1.65052 -3.00737,-4.93414 -1.35681,-7.33408z" data-paper-data="{&quot;index&quot;:null}" fill="url(#color-8)" stroke="none" stroke-width="0"/><path d="M-261.85948,458.95182c1.6506,-2.39987 4.9342,-3.00736 7.33408,-1.3568c2.39991,1.65056 3.00742,4.93411 1.35689,7.33402c-1.65052,2.39988 -4.93419,3.00737 -7.33412,1.35681c-2.39988,-1.65052 -3.00739,-4.93418 -1.35681,-7.33408z" data-paper-data="{&quot;index&quot;:null}" fill="url(#color-9)" stroke="none" stroke-width="0"/><path d="M-336.84124,496.70549c-0.57923,-2.40301 0.89931,-4.82066 3.30233,-5.39987c2.40301,-0.57922 4.82066,0.89928 5.39989,3.3023c0.57927,2.40304 -0.89926,4.82068 -3.3023,5.39988c-2.40301,0.57922 -4.82066,-0.89927 -5.3999,-3.30232z" data-paper-data="{&quot;index&quot;:null}" fill="url(#color-10)" stroke="none" stroke-width="0"/><g data-paper-data="{&quot;index&quot;:null}" stroke-width="1"><path d="M-324.81578,499.33855c0,0 -0.18378,13.03388 -1.37441,19.05415c-1.12373,5.68201 -6.04123,16.02035 -6.04123,16.02035l-16.12749,-3.18961c0,0 -0.52486,-11.87195 0.618,-17.65091c1.17452,-5.93857 5.41524,-17.69698 5.41524,-17.69698z" fill="#696969" stroke="#000000"/><path d="M-330.35885,498.41197l-6.9026,34.90165l-6.14376,-1.21513l6.90263,-34.90162z" fill="url(#color-11)" stroke="none"/><path d="M-329.78309,498.49563c0,0 0.44179,-0.7569 1.09324,-0.2959c0.65143,0.46102 0.20961,1.21788 0.20961,1.21788l-0.79763,1.34014c-1.42783,1.22993 -2.96936,1.78576 -4.51182,2.76896c-0.89089,0.56781 -1.59508,1.42331 -2.44904,2.04182c-0.76509,0.55424 -1.77086,0.81361 -2.36252,1.67151c-1.3826,2.00494 -1.20375,5.3589 0.2402,6.93248c0.85897,1.07227 1.54459,2.23234 2.33064,3.36287c0.70473,1.01367 1.85403,1.69318 2.08379,3.08964c0.22725,1.38077 -0.82015,3.25897 -1.46198,4.31639c-1.74987,2.88301 -4.82439,4.35462 -6.63615,7.18457c0,0 -0.47774,0.72976 -1.10338,0.22706c-0.62565,-0.5028 -0.14788,-1.23261 -0.14788,-1.23261c1.84944,-2.77833 4.8835,-4.3196 6.61632,-7.15371c0.30883,-0.50507 1.31724,-2.15901 1.18014,-2.96532c-0.08553,-0.50263 -0.96903,-1.34262 -1.14738,-1.55104c-1.05892,-1.23747 -1.84996,-2.73729 -2.87744,-4.02105c-1.94075,-2.19356 -2.15064,-6.50839 -0.30198,-9.23355c0.73392,-1.08184 1.83613,-1.4206 2.79274,-2.11153c0.8745,-0.63173 1.59257,-1.49631 2.50633,-2.08084c1.37503,-0.87967 2.83633,-1.37386 4.12791,-2.42611l0.61624,-1.08165z" fill="#000000" stroke="none"/><path d="M-324.81578,499.33855c0,0 -0.18378,13.03388 -1.37441,19.05415c-1.12373,5.68201 -6.04123,16.02035 -6.04123,16.02035l-16.12749,-3.18961c0,0 -0.52486,-11.87195 0.618,-17.65091c1.17452,-5.93857 5.41524,-17.69698 5.41524,-17.69698z" fill="#ff0000" stroke="#000000"/></g><g data-paper-data="{&quot;index&quot;:null}" stroke-width="1"><path d="M-302.83775,469.05392c0,0 -5.67158,11.73663 -9.29353,16.69076c-3.41842,4.67578 -12.2424,11.96982 -12.2424,11.96982l-13.27125,-9.70277c0,0 4.53841,-10.98274 8.01528,-15.73824c3.57282,-4.88688 12.38311,-13.75388 12.38311,-13.75388z" fill="#696969" stroke="#000000"/><path d="M-307.47084,465.87292l-20.9978,28.72039l-5.05571,-3.69632l20.99779,-28.72041z" fill="url(#color-12)" stroke="none"/><path d="M-306.98448,466.19201c0,0 0.7201,-0.4994 1.11594,0.19357c0.39583,0.69297 -0.32437,1.19243 -0.32437,1.19243l-1.28897,0.87799c-1.81375,0.51182 -3.44579,0.36449 -5.25919,0.60419c-1.04731,0.13849 -2.04697,0.61642 -3.08224,0.81639c-0.92757,0.17918 -1.94874,-0.01049 -2.84739,0.51728c-2.09999,1.23334 -3.35443,4.34898 -2.71031,6.38516c0.32569,1.33474 0.45719,2.67584 0.69216,4.03258c0.21069,1.21645 0.96545,2.3178 0.5839,3.68067c-0.37722,1.34755 -2.11981,2.60764 -3.14824,3.29503c-2.80381,1.87417 -6.21219,1.90946 -9.0497,3.70942c0,0 -0.74125,0.45972 -1.09602,-0.26023c-0.35476,-0.71999 0.38656,-1.1797 0.38656,-1.1797c2.84984,-1.73719 6.25098,-1.85272 9.01868,-3.68982c0.49324,-0.32733 2.10583,-1.40057 2.32216,-2.18939c0.13478,-0.49167 -0.31127,-1.62628 -0.38489,-1.89055c-0.43716,-1.56904 -0.52066,-3.26249 -0.90984,-4.86014c-0.83268,-2.80802 0.79951,-6.80784 3.62614,-8.49714c1.12214,-0.67054 2.26428,-0.51202 3.42328,-0.73434c1.05944,-0.20327 2.0756,-0.68374 3.15063,-0.82762c1.61801,-0.21663 3.15121,-0.0474 4.7663,-0.45566l1.01541,-0.72013z" fill="#000000" stroke="none"/><path d="M-302.83775,469.05392c0,0 -5.67158,11.73663 -9.29353,16.69076c-3.41842,4.67578 -12.2424,11.96982 -12.2424,11.96982l-13.27125,-9.70277c0,0 4.53841,-10.98274 8.01528,-15.73824c3.57282,-4.88688 12.38311,-13.75388 12.38311,-13.75388z" fill="#ff0000" stroke="#000000"/></g><path d="M-296.1845,527.76992c-1.47093,-1.9866 -1.05287,-4.78951 0.93369,-6.26039c1.98658,-1.47083 4.78949,-1.05282 6.26038,0.93377c1.47091,1.98658 1.0528,4.78944 -0.93375,6.26032c-1.98662,1.47085 -4.78951,1.05288 -6.26041,-0.93372z" data-paper-data="{&quot;index&quot;:null}" fill="url(#color-13)" stroke="none" stroke-width="0"/><g data-paper-data="{&quot;index&quot;:null}" stroke-width="1"><path d="M-284.08491,525.50228c0,0 4.91621,12.07261 6.16891,18.08027c1.18226,5.67021 0.68821,17.10777 0.68821,17.10777l-16.09378,3.35555c0,0 -5.11523,-10.72619 -6.31767,-16.4931c-1.23566,-5.92607 -1.91876,-18.40723 -1.91876,-18.40723z" fill="#696969" stroke="#000000"/><path d="M-289.55017,526.81183l7.26192,34.82863l-6.13092,1.27832l-7.26185,-34.8286z" fill="url(#color-14)" stroke="none"/><path d="M-288.98733,526.66439c0,0 0.11151,-0.8693 0.89115,-0.699c0.77966,0.17027 0.66816,1.0395 0.66816,1.0395l-0.21145,1.54522c-0.83482,1.68955 -2.03728,2.80269 -3.07391,4.30979c-0.5987,0.87043 -0.91333,1.93289 -1.45829,2.8356c-0.48823,0.80878 -1.31318,1.44006 -1.52315,2.46084c-0.49077,2.38542 0.98249,5.40373 2.92592,6.2892c1.20917,0.65213 2.29308,1.45282 3.45794,2.18708c1.04442,0.65833 2.36766,0.83562 3.12405,2.03177c0.74791,1.18273 0.5164,3.32067 0.33801,4.54471c-0.48631,3.33727 -2.74301,5.8918 -3.30705,9.20433c0,0 -0.15508,0.85827 -0.92724,0.6395c-0.77212,-0.21884 -0.61704,-1.07716 -0.61704,-1.07716c0.61882,-3.27973 2.81119,-5.88263 3.30087,-9.16824c0.0873,-0.58556 0.37047,-2.50175 -0.07042,-3.19069c-0.27482,-0.42942 -1.41607,-0.85818 -1.66161,-0.98049c-1.45784,-0.72632 -2.77139,-1.79857 -4.21832,-2.57964c-2.64276,-1.26249 -4.51951,-5.15351 -3.88063,-8.38389c0.25364,-1.28246 1.13642,-2.02436 1.7476,-3.03383c0.5587,-0.92285 0.88251,-1.99911 1.49576,-2.89378c0.92284,-1.3465 2.07552,-2.37164 2.85416,-3.84446l0.14544,-1.23637z" fill="#000000" stroke="none"/><path d="M-284.08491,525.50228c0,0 4.91621,12.07261 6.16891,18.08027c1.18226,5.67021 0.68821,17.10777 0.68821,17.10777l-16.09378,3.35555c0,0 -5.11523,-10.72619 -6.31767,-16.4931c-1.23566,-5.92607 -1.91876,-18.40723 -1.91876,-18.40723z" fill="#ff0000" stroke="#000000"/></g><g data-paper-data="{&quot;index&quot;:null}" stroke-width="1"><path d="M-275.6647,489.04288c0,0 -0.6428,13.0193 -2.04483,18.9939c-1.3232,5.63893 -6.60194,15.79767 -6.60194,15.79767l-16.00512,-3.7558c0,0 -0.10634,-11.883 1.23948,-17.61819c1.3829,-5.89346 6.03528,-17.49522 6.03528,-17.49522z" fill="#696969" stroke="#000000"/><path d="M-281.17169,487.92162l-8.12789,34.63675l-6.09723,-1.43077l8.1279,-34.63672z" fill="url(#color-15)" stroke="none"/><path d="M-280.59961,488.02564c0,0 0.46826,-0.74089 1.10307,-0.25726c0.63481,0.48361 0.16664,1.22446 0.16664,1.22446l-0.84426,1.31125c-1.47033,1.1789 -3.03047,1.68012 -4.60662,2.60832c-0.91036,0.53614 -1.6442,1.36625 -2.51947,1.9543c-0.78414,0.52689 -1.79841,0.75067 -2.41989,1.58727c-1.45242,1.95492 -1.39181,5.31311 -0.00423,6.93657c0.82069,1.10189 1.46498,2.28536 2.21065,3.44291c0.66863,1.03779 1.79325,1.75753 1.97373,3.16109c0.17834,1.38794 -0.93443,3.22799 -1.61318,4.2622c-1.85031,2.81951 -4.97477,4.18192 -6.88512,6.94633c0,0 -0.50313,0.71255 -1.1106,0.18804c-0.60754,-0.52455 -0.10434,-1.23701 -0.10434,-1.23701c1.94618,-2.71147 5.03279,-4.14487 6.86427,-6.91616c0.32639,-0.49384 1.39244,-2.11115 1.28379,-2.92183c-0.06771,-0.50528 -0.92116,-1.37596 -1.09207,-1.59059c-1.01472,-1.27408 -1.75234,-2.80084 -2.73398,-4.11999c-1.86222,-2.26059 -1.91999,-6.58013 0.02353,-9.23844c0.77155,-1.05531 1.88512,-1.35497 2.86549,-2.01184c0.89618,-0.60047 1.64429,-1.43927 2.57804,-1.99123c1.40527,-0.83064 2.883,-1.27313 4.21082,-2.27921l0.65396,-1.05927z" fill="#000000" stroke="none"/><path d="M-275.6647,489.04288c0,0 -0.6428,13.0193 -2.04483,18.9939c-1.3232,5.63893 -6.60194,15.79767 -6.60194,15.79767l-16.00512,-3.7558c0,0 -0.10634,-11.883 1.23948,-17.61819c1.3829,-5.89346 6.03528,-17.49522 6.03528,-17.49522z" fill="#ff0000" stroke="#000000"/></g><path d="M-359.11898,454.73281c2.4539,0.29736 4.20213,2.5276 3.90483,4.98156c-0.29738,2.45395 -2.52765,4.20213 -4.98156,3.90483c-2.4539,-0.29736 -4.20217,-2.52763 -3.90483,-4.98156c0.29728,-2.45388 2.52766,-4.20216 4.98156,-3.90483z" data-paper-data="{&quot;index&quot;:null}" fill="url(#color-16)" stroke="none" stroke-width="0"/><g data-paper-data="{&quot;index&quot;:null}" stroke-width="1"><path d="M-353.75417,465.30825c0,0 -4.72839,12.14729 -7.94837,17.37156c-3.03911,4.9307 -11.26038,12.8978 -11.26038,12.8978l-13.99506,-8.62596c0,0 3.65837,-11.30646 6.74932,-16.32131c3.17628,-5.15336 11.25991,-14.68746 11.25991,-14.68746z" fill="#696969" stroke="#000000"/><path d="M-358.62373,462.50232l-18.6677,30.2868l-5.3314,-3.28604l18.66763,-30.28675z" fill="url(#color-17)" stroke="none"/><path d="M-358.11389,462.7821c0,0 0.67861,-0.55466 1.1278,0.105c0.4492,0.65962 -0.22935,1.21424 -0.22935,1.21424l-1.21576,0.9769c-1.76774,0.65322 -3.4063,0.63503 -5.19511,1.01701c-1.03319,0.22064 -1.99199,0.776 -3.00831,1.05697c-0.9105,0.25179 -1.94351,0.1433 -2.79776,0.74026c-1.99622,1.39512 -3.00107,4.59999 -2.19829,6.57903c0.42997,1.30483 0.66666,2.63142 1.00799,3.96536c0.30592,1.19605 1.14519,2.23454 0.87233,3.62317c-0.26975,1.37306 -1.90768,2.76667 -2.87866,3.53301c-2.64723,2.0894 -6.04223,2.39345 -8.72894,4.41145c0,0 -0.70265,0.51677 -1.11306,-0.17298c-0.41041,-0.68977 0.29234,-1.20651 0.29234,-1.20651c2.70399,-1.95652 6.08537,-2.33985 8.69959,-4.38949c0.46595,-0.36528 1.98887,-1.56225 2.14224,-2.36573c0.09558,-0.50078 -0.43858,-1.59669 -0.53283,-1.85435c-0.55947,-1.52963 -0.77622,-3.21128 -1.29016,-4.7732c-1.05147,-2.73359 0.26017,-6.84959 2.94482,-8.75659c1.06578,-0.75702 2.21702,-0.68907 3.3548,-1.00207c1.0402,-0.2861 2.01519,-0.84529 3.07553,-1.07347c1.59583,-0.34352 3.13765,-0.29566 4.71556,-0.83008l0.95548,-0.79807z" fill="#000000" stroke="none"/><path d="M-353.75417,465.30825c0,0 -4.72839,12.14729 -7.94837,17.37156c-3.03911,4.9307 -11.26038,12.8978 -11.26038,12.8978l-13.99506,-8.62596c0,0 3.65837,-11.30646 6.74932,-16.32131c3.17628,-5.15336 11.25991,-14.68746 11.25991,-14.68746z" fill="#ff0000" stroke="#000000"/></g><path d="M-322.9724,432.76538c2.09864,1.30598 2.74141,4.06607 1.43545,6.16472c-1.30598,2.09864 -4.06604,2.74139 -6.16473,1.4354c-2.09864,-1.30598 -2.74138,-4.06602 -1.43538,-6.16472c1.30598,-2.09864 4.06602,-2.74138 6.16468,-1.4354z" data-paper-data="{&quot;index&quot;:null}" fill="url(#color-18)" stroke="none" stroke-width="0"/><g data-paper-data="{&quot;index&quot;:null}" stroke-width="1"><path d="M-322.57632,444.61709c0,0 -9.41655,9.0136 -14.54181,12.389c-4.83725,3.18583 -15.65424,6.93506 -15.65424,6.93506l-9.04211,-13.72981c0,0 8.09126,-8.70332 13.01112,-11.94342c5.05563,-3.32955 16.40978,-8.55735 16.40978,-8.55735z" fill="#696969" stroke="#000000"/><path d="M-325.80506,440.01706l-29.71283,19.56827l-3.4447,-5.23042l29.71286,-19.56818z" fill="url(#color-19)" stroke="none"/><path d="M-325.46075,440.48621c0,0 0.84934,-0.21619 0.97791,0.57141c0.12856,0.7876 -0.72073,1.0038 -0.72073,1.0038l-1.5146,0.37202c-1.87821,-0.15451 -3.35579,-0.863 -5.13854,-1.27228c-1.0297,-0.23647 -2.13336,-0.13803 -3.17325,-0.31261c-0.93169,-0.15636 -1.82216,-0.69108 -2.84856,-0.51072c-2.39872,0.42139 -4.66312,2.90195 -4.77142,5.03483c-0.16134,1.36435 -0.50702,2.66679 -0.76116,4.02008c-0.2279,1.21332 0.09425,2.50915 -0.73959,3.65257c-0.82454,1.13062 -2.8976,1.70208 -4.10145,1.9866c-3.28205,0.77587 -6.48779,-0.38254 -9.77542,0.31194c0,0 -0.85521,0.17154 -0.93589,-0.62692c-0.08065,-0.79859 0.77452,-0.97018 0.77452,-0.97018c3.27737,-0.63138 6.50429,0.4494 9.73953,-0.30431c0.57658,-0.13433 2.46258,-0.57615 2.94093,-1.2396c0.29811,-0.4135 0.27684,-1.63245 0.3003,-1.90581c0.13887,-1.62281 0.65257,-3.23866 0.84642,-4.87157c0.20152,-2.92194 3.12888,-6.09876 6.36774,-6.69337c1.28586,-0.23608 2.30055,0.31181 3.46407,0.50863c1.06359,0.17998 2.18362,0.08497 3.24116,0.32595c1.5916,0.3627 2.96897,1.05716 4.6249,1.23926l1.20304,-0.31978z" fill="#000000" stroke="none"/><path d="M-322.57632,444.61709c0,0 -9.41655,9.0136 -14.54181,12.389c-4.83725,3.18583 -15.65424,6.93506 -15.65424,6.93506l-9.04211,-13.72981c0,0 8.09126,-8.70332 13.01112,-11.94342c5.05563,-3.32955 16.40978,-8.55735 16.40978,-8.55735z" fill="#ff0000" stroke="#000000"/></g><g data-paper-data="{&quot;index&quot;:null}" stroke-width="1"><path d="M-286.16356,438.75161c0,0 -12.37323,4.10131 -18.45099,4.95102c-5.73632,0.80195 -17.11558,-0.45278 -17.11558,-0.45278l-2.27636,-16.28153c0,0 11.04315,-4.38961 16.87733,-5.2052c5.99525,-0.8382 18.49415,-0.68851 18.49415,-0.68851z" fill="#696969" stroke="#000000"/><path d="M-287.10624,433.21122l-35.23492,4.92618l-0.86718,-6.20244l35.2349,-4.92612z" fill="url(#color-20)" stroke="none"/><path d="M-286.99665,433.78264c0,0 0.85992,0.1692 0.6381,0.93579c-0.22183,0.76661 -1.0818,0.59741 -1.0818,0.59741l-1.52763,-0.31386c-1.63027,-0.9455 -2.66085,-2.21945 -4.09557,-3.35413c-0.82859,-0.65536 -1.86772,-1.04003 -2.73214,-1.64392c-0.77449,-0.54104 -1.34941,-1.40607 -2.35391,-1.68356c-2.34745,-0.64861 -5.45718,0.62039 -6.47017,2.50047c-0.73122,1.16317 -1.60229,2.1913 -2.41248,3.30466c-0.72643,0.99818 -0.99144,2.30674 -2.23529,2.98185c-1.2299,0.66744 -3.34771,0.29406 -4.55714,0.03459c-3.29741,-0.7075 -5.69601,-3.12924 -8.96364,-3.91266c0,0 -0.84612,-0.21196 -0.57635,-0.96787c0.26973,-0.75587 1.11585,-0.54394 1.11585,-0.54394c3.2313,0.83598 5.68234,3.19675 8.92801,3.90412c0.57842,0.12608 2.47163,0.53621 3.18831,0.14219c0.44673,-0.24559 0.95062,-1.35579 1.08903,-1.59263c0.82182,-1.40622 1.97916,-2.6454 2.85492,-4.0371c1.43579,-2.55281 5.44311,-4.1663 8.62375,-3.31367c1.2627,0.33854 1.9442,1.2687 2.91068,1.94575c0.88352,0.61891 1.93595,1.01371 2.78776,1.6851c1.28202,1.01053 2.22814,2.22889 3.64577,3.10387l1.22394,0.22735z" fill="#000000" stroke="none"/><path d="M-286.16356,438.75161c0,0 -12.37323,4.10131 -18.45099,4.95102c-5.73632,0.80195 -17.11558,-0.45278 -17.11558,-0.45278l-2.27636,-16.28153c0,0 11.04315,-4.38961 16.87733,-5.2052c5.99525,-0.8382 18.49415,-0.68851 18.49415,-0.68851z" fill="#ff0000" stroke="#000000"/></g><g data-paper-data="{&quot;index&quot;:null}" stroke-width="1"><path d="M-270.77267,450.82977c0,0 -10.15895,8.16781 -15.55618,11.08859c-5.09412,2.75665 -16.19408,5.55893 -16.19408,5.55893l-7.82421,-14.45856c0,0 8.81187,-7.97297 13.99286,-10.77661c5.32396,-2.88111 17.08669,-7.11012 17.08669,-7.11012z" fill="#696969" stroke="#000000"/><path d="M-273.59259,445.9685l-31.29002,16.93238l-2.98058,-5.50802l31.2899,-16.93248z" fill="url(#color-21)" stroke="none"/><path d="M-273.29035,446.46548c0,0 0.86478,-0.14209 0.92495,0.65364c0.06015,0.79579 -0.80469,0.93784 -0.80469,0.93784l-1.54097,0.23997c-1.85787,-0.31597 -3.26883,-1.14929 -5.00969,-1.71086c-1.00547,-0.32435 -2.11345,-0.32154 -3.13439,-0.58514c-0.91473,-0.23616 -1.75577,-0.84567 -2.79394,-0.75452c-2.42609,0.21296 -4.89601,2.48899 -5.18787,4.6046c-0.27848,1.34542 -0.73516,2.61311 -1.10508,3.93944c-0.33166,1.18912 -0.12253,2.50788 -1.05189,3.57516c-0.91894,1.05536 -3.03366,1.44577 -4.25753,1.62539c-3.33669,0.48976 -6.4305,-0.94069 -9.76587,-0.53242c0,0 -0.86683,0.09713 -0.87829,-0.70534c-0.01151,-0.80242 0.85536,-0.89968 0.85536,-0.89968c3.31957,-0.34637 6.44127,1.00862 9.72941,0.53685c0.586,-0.08405 2.50316,-0.36162 3.03693,-0.98127c0.33272,-0.38636 0.41661,-1.60256 0.46358,-1.87285c0.27841,-1.60477 0.92957,-3.17033 1.26356,-4.78039c0.45276,-2.8937 3.6432,-5.8062 6.92129,-6.11929c1.3014,-0.12424 2.26517,0.50905 3.40737,0.80555c1.04413,0.27098 2.16814,0.27299 3.20096,0.60429c1.55439,0.49866 2.8667,1.30931 4.5008,1.63358l1.2262,-0.21474z" fill="#000000" stroke="none"/><path d="M-270.77267,450.82977c0,0 -10.15895,8.16781 -15.55618,11.08859c-5.09412,2.75665 -16.19408,5.55893 -16.19408,5.55893l-7.82421,-14.45856c0,0 8.81187,-7.97297 13.99286,-10.77661c5.32396,-2.88111 17.08669,-7.11012 17.08669,-7.11012z" fill="#ff0000" stroke="#000000"/></g><g data-paper-data="{&quot;index&quot;:null}" stroke-width="1"><path d="M-253.25147,459.7524c0,0 -6.16692,11.48414 -9.99683,16.27919c-3.61474,4.52566 -12.7417,11.43672 -12.7417,11.43672l-12.84538,-10.25991c0,0 5.00274,-10.77917 8.67917,-15.38206c3.77791,-4.72997 12.95837,-13.21324 12.95837,-13.21324z" fill="#696969" stroke="#000000"/><path d="M-257.74471,456.37661l-22.20363,27.79872l-4.89341,-3.90852l22.20362,-27.79869z" fill="url(#color-22)" stroke="none"/><path d="M-257.27227,456.71627c0,0 0.74079,-0.46829 1.10669,0.24091c0.3659,0.70915 -0.37493,1.17756 -0.37493,1.17756l-1.32528,0.82215c-1.83397,0.43395 -3.45814,0.2171 -5.28013,0.37931c-1.0523,0.09369 -2.07136,0.5286 -3.1143,0.68421c-0.93434,0.13942 -1.94647,-0.09361 -2.86681,0.39533c-2.15075,1.14265 -3.53689,4.20197 -2.98013,6.2638c0.26846,1.34745 0.34258,2.69288 0.51949,4.05843c0.15861,1.22425 0.86567,2.35688 0.42641,3.7022c-0.4344,1.33024 -2.22917,2.51481 -3.28593,3.15777c-2.88116,1.7529 -6.28793,1.64288 -9.19964,3.32016c0,0 -0.76016,0.42768 -1.0839,-0.30675c-0.32373,-0.73443 0.43651,-1.16211 0.43651,-1.16211c2.92141,-1.61408 6.32437,-1.58443 9.16787,-3.30178c0.50677,-0.30604 2.1637,-1.30961 2.41336,-2.08838c0.15566,-0.4855 -0.24163,-1.63808 -0.30389,-1.90528c-0.36984,-1.58624 -0.38109,-3.28176 -0.70174,-4.89453c-0.7121,-2.84094 1.08912,-6.76751 3.98523,-8.33476c1.14979,-0.62217 2.28416,-0.41505 3.45153,-0.5877c1.06712,-0.15788 2.10287,-0.59452 3.18305,-0.69247c1.62569,-0.14733 3.15038,0.0871 4.78145,-0.25196l1.04515,-0.67624z" fill="#000000" stroke="none"/><path d="M-253.25147,459.7524c0,0 -6.16692,11.48414 -9.99683,16.27919c-3.61474,4.52566 -12.7417,11.43672 -12.7417,11.43672l-12.84538,-10.25991c0,0 5.00274,-10.77917 8.67917,-15.38206c3.77791,-4.72997 12.95837,-13.21324 12.95837,-13.21324z" fill="#ff0000" stroke="#000000"/></g><path d="M-235.32634,464.84512c-29.56212,15.48306 -46.10428,-2.40514 -57.65903,-24.4669c-11.55466,-22.06179 -13.74633,-39.94275 15.81577,-55.42571c29.56209,-15.48298 62.89379,-10.14984 74.44853,11.91192c11.55476,22.06174 -3.04322,52.49779 -32.60525,67.98074z" data-paper-data="{&quot;index&quot;:null}" fill="#ff0000" stroke="#000000" stroke-width="1"/><path d="M-282.44721,362.91537c1.68169,2.37823 1.11706,5.66948 -1.26111,7.35116c-2.37823,1.68169 -5.66945,1.11719 -7.35115,-1.26107c-1.68167,-2.37818 -1.11706,-5.66945 1.26114,-7.35119c2.37823,-1.68169 5.66945,-1.11715 7.35115,1.26111z" data-paper-data="{&quot;index&quot;:null}" fill="url(#color-23)" stroke="none" stroke-width="0"/><g data-paper-data="{&quot;index&quot;:null}" stroke-width="1"><path d="M-287.43835,375.96699c0,0 -14.34889,5.48097 -21.45859,6.80204c-6.71029,1.24679 -20.17194,0.37047 -20.17194,0.37047l-3.53899,-19.04608c0,0 12.76792,-5.75024 19.5927,-7.01835c7.01323,-1.30312 21.73446,-1.78671 21.73446,-1.78671z" fill="#696969" stroke="#000000"/><path d="M-288.84047,369.49475l-41.2176,7.65876l-1.3482,-7.25565l41.21762,-7.65873z" fill="url(#color-24)" stroke="none"/><path d="M-288.68136,370.16144c0,0 1.02118,0.1537 0.80055,1.06792c-0.22062,0.91416 -1.24183,0.76035 -1.24183,0.76035l-1.81488,-0.28883c-1.96903,-1.02697 -3.2495,-2.47225 -4.99826,-3.73221c-1.01004,-0.72772 -2.25348,-1.12574 -3.30295,-1.79096c-0.94025,-0.59599 -1.66276,-1.58393 -2.85985,-1.85763c-2.79757,-0.63959 -6.39133,1.01839 -7.48456,3.28506c-0.79936,1.40784 -1.77043,2.6641 -2.66544,4.01746c-0.80247,1.21341 -1.0454,2.76792 -2.47395,3.62821c-1.41254,0.85072 -3.9252,0.52293 -5.36268,0.28125c-3.91902,-0.65886 -6.8704,-3.38299 -10.75825,-4.13279c0,0 -1.00716,-0.20485 -0.72955,-1.10892c0.27768,-0.90398 1.28489,-0.69914 1.28489,-0.69914c3.84777,0.81346 6.85776,3.46312 10.71584,4.12454c0.68755,0.11791 2.93775,0.50082 3.76072,-0.00082c0.51295,-0.3127 1.04741,-1.64618 1.19785,-1.93229c0.89322,-1.69874 2.19018,-3.21849 3.1476,-4.90302c1.55535,-3.08091 6.1876,-5.19175 9.97674,-4.35599c1.50432,0.33173 2.35561,1.39083 3.52914,2.13685c1.07281,0.68193 2.33239,1.09112 3.37066,1.83657c1.56246,1.12185 2.74065,2.50608 4.45561,3.46125l1.45276,0.20307z" fill="#000000" stroke="none"/><path d="M-287.43835,375.96699c0,0 -14.34889,5.48097 -21.45859,6.80204c-6.71029,1.24679 -20.17194,0.37047 -20.17194,0.37047l-3.53899,-19.04608c0,0 12.76792,-5.75024 19.5927,-7.01835c7.01323,-1.30312 21.73446,-1.78671 21.73446,-1.78671z" fill="#ff0000" stroke="#000000"/></g><path d="M-234.90372,373.12824c1.68169,2.37823 1.11707,5.66946 -1.26111,7.35115c-2.37823,1.68169 -5.66947,1.11714 -7.35121,-1.2611c-1.68165,-2.37814 -1.11703,-5.66949 1.26115,-7.35119c2.37823,-1.68169 5.66942,-1.11716 7.35114,1.26109z" data-paper-data="{&quot;index&quot;:null}" fill="url(#color-25)" stroke="none" stroke-width="0"/><g data-paper-data="{&quot;index&quot;:null}" stroke-width="1"><path d="M-245.21308,386.25339c0,0 -15.31268,-1.20594 -22.30149,-3.06333c-6.59613,-1.753 -18.37961,-8.32074 -18.37961,-8.32074l4.97561,-18.72208c0,0 14.00015,0.28443 20.70892,2.06739c6.89396,1.83216 20.39871,7.71189 20.39871,7.71189z" fill="#696969" stroke="#000000"/><path d="M-243.70242,379.80563l-40.51668,-10.76766l1.89545,-7.13225l40.51674,10.76766z" fill="url(#color-26)" stroke="none"/><path d="M-243.84474,380.4762c0,0 0.85649,0.57703 0.26495,1.30806c-0.59154,0.73102 -1.44799,0.15396 -1.44799,0.15396l-1.51536,-1.03967c-1.3379,-1.77244 -1.87434,-3.62735 -2.91328,-5.51582c-0.60012,-1.09078 -1.55254,-1.9838 -2.21504,-3.03498c-0.59356,-0.94176 -0.82217,-2.14418 -1.78608,-2.90502c-2.25255,-1.77816 -6.21001,-1.82252 -8.17008,-0.24413c-1.32609,0.92869 -2.74236,1.64663 -4.13145,2.48509c-1.2454,0.75174 -2.13186,2.05151 -3.79138,2.21567c-1.64096,0.1623 -3.76991,-1.21188 -4.96462,-2.04701c-3.25728,-2.27658 -4.75423,-6.00362 -7.94436,-8.34915c0,0 -0.82181,-0.61718 -0.18312,-1.31464c0.63874,-0.6974 1.46057,-0.08027 1.46057,-0.08027c3.12654,2.3858 4.7085,6.07071 7.9095,8.32353c0.57043,0.40152 2.43865,1.71292 3.39722,1.61289c0.59753,-0.06233 1.65243,-1.03751 1.91109,-1.23136c1.5357,-1.15113 3.35941,-1.96735 4.94703,-3.07817c2.72682,-2.11547 7.81663,-2.03456 10.88066,0.34621c1.21637,0.94519 1.53097,2.26713 2.27079,3.44444c0.67638,1.07631 1.63869,1.98632 2.25654,3.10523c0.92999,1.68377 1.40013,3.4396 2.53937,5.03826l1.22508,0.80678z" fill="#000000" stroke="none"/><path d="M-245.21308,386.25339c0,0 -15.31268,-1.20594 -22.30149,-3.06333c-6.59613,-1.753 -18.37961,-8.32074 -18.37961,-8.32074l4.97561,-18.72208c0,0 14.00015,0.28443 20.70892,2.06739c6.89396,1.83216 20.39871,7.71189 20.39871,7.71189z" fill="#ff0000" stroke="#000000"/></g><g data-paper-data="{&quot;index&quot;:null}"><path d="M-192.41349,369.40469c0,0 52.26691,-18.85653 78.5638,-25.4765c25.59042,-6.44212 77.86383,-11.05303 77.86383,-11.05303l12.38834,46.74658c0,0 -46.07772,20.1479 -71.23871,26.4819c-26.65891,6.71108 -84.1271,14.05451 -84.1271,14.05451z" fill="#696969" stroke="#000000" stroke-width="2"/><path d="M-187.19295,386.19442l154.55046,-38.90636l4.71934,17.80822l-154.55032,38.90642z" fill="url(#color-27)" stroke="none" stroke-width="0"/><path d="M-183.58134,409.12268c-1.96429,-1.71517 1.41744,-3.4358 1.41744,-3.4358l4.83138,-2.41339c4.77166,-4.42508 7.10159,-9.06876 11.12114,-13.65461c2.67093,-3.04717 6.55658,-5.65318 9.43134,-8.60721c3.14473,-3.23141 4.75171,-6.71658 9.59625,-9.48324c12.20285,-6.96902 31.1997,-8.58746 40.66736,-3.90526c5.5519,2.41525 12.08049,4.00809 17.42561,6.54173c0.90025,0.42674 4.51136,2.64099 6.71786,2.63568c3.53989,-0.00853 10.93403,-3.89718 13.19241,-5.08739c12.67143,-6.67802 19.77897,-16.58845 32.21656,-23.58765c0,0 3.26606,-1.8142 5.41726,-0.19838c2.15115,1.61586 -1.11489,3.43008 -1.11489,3.43008c-12.66115,6.91303 -19.46598,16.90834 -32.35463,23.6631c-4.72742,2.47754 -13.11423,6.60013 -19.17683,6.63762c-6.1312,0.03801 -9.00757,-3.05763 -13.40234,-4.6448c-4.90168,-1.77026 -9.94401,-3.22358 -14.58119,-5.24318c-6.78634,-3.51397 -21.55073,-2.30328 -30.53104,2.89165c-3.84283,2.22299 -5.09044,5.377 -7.61227,7.96236c-2.81486,2.88566 -6.65822,5.44513 -9.25354,8.41519c-4.4933,5.14218 -7.10273,10.05886 -12.67187,14.98574l-5.9899,3.0924c0,0 -3.38176,1.72061 -5.34609,0.00544z" fill="#000000" stroke="none" stroke-width="0.5"/><path d="M-192.41349,369.40469c0,0 52.26691,-18.85653 78.5638,-25.4765c25.59042,-6.44212 77.86383,-11.05303 77.86383,-11.05303l12.38834,46.74658c0,0 -46.07772,20.1479 -71.23871,26.4819c-26.65891,6.71108 -84.1271,14.05451 -84.1271,14.05451z" fill="#ff0000" stroke="#000000" stroke-width="2"/></g></g><g stroke-linecap="butt"><path d="M534.21537,358.38771c2.70521,10.7381 -3.80673,21.63594 -14.54472,24.34112c-10.73803,2.70518 -21.63596,-3.80673 -24.34113,-14.54476c-2.70518,-10.73803 3.80675,-21.63592 14.54478,-24.34109c10.73803,-2.70518 21.63592,3.80673 24.34109,14.54478z" fill="url(#color-28)" stroke="none" stroke-width="0"/><g><path d="M496.20615,388.42212c0,0 -57.28688,-8.64497 -83.78669,-15.959c-25.01082,-6.9031 -70.61969,-28.09089 -70.61969,-28.09089l13.44547,-46.45352c0,0 52.15532,5.79535 77.59306,12.8163c26.13995,7.21471 77.96575,27.25192 77.96575,27.25192z" fill="#696969" stroke="#000000" stroke-width="2"/><path d="M500.08176,372.35043l-153.62813,-42.40184l5.12209,-17.69661l153.62822,42.40186z" fill="url(#color-29)" stroke="none" stroke-width="0"/><path d="M501.07325,377.49448c-2.00276,1.67016 -5.34464,-0.12672 -5.34464,-0.12672l-5.91822,-3.22742c-5.45591,-5.05192 -7.95314,-10.02652 -12.3287,-15.26933c-2.5273,-3.02816 -6.31163,-5.67411 -9.06031,-8.62291c-2.46256,-2.64184 -3.6383,-5.82334 -7.4297,-8.13295c-8.86016,-5.39728 -23.59325,-6.94255 -30.45759,-3.58338c-4.68182,1.91395 -9.75578,3.25248 -14.69635,4.91109c-4.42963,1.48709 -7.37552,4.5167 -13.50428,4.33964c-6.06015,-0.17504 -14.35134,-4.48667 -19.02133,-7.07085c-12.73215,-7.04535 -19.30849,-17.19246 -31.80958,-24.3909c0,0 -3.22411,-1.88783 -1.03681,-3.45445c2.18732,-1.5666 5.4114,0.32121 5.4114,0.32121c12.27559,7.27951 19.1565,17.34856 31.67319,24.31228c2.23075,1.24113 9.53483,5.29658 13.0736,5.38532c2.20579,0.05537 5.86624,-2.07643 6.7759,-2.48268c5.40116,-2.41175 11.96418,-3.85608 17.5695,-6.14477c9.57144,-4.46624 28.52666,-2.41742 40.56828,4.8266c4.78054,2.87587 6.30807,6.39657 9.3787,9.69845c2.80704,3.01848 6.63262,5.71194 9.23369,8.81892c3.91457,4.67584 6.13855,9.3712 10.8086,13.90334l4.77533,2.52233c0,0 3.34191,1.79691 1.33919,3.46708z" fill="#000000" stroke="none" stroke-width="0.5"/><path d="M496.20615,388.42212c0,0 -57.28688,-8.64497 -83.78669,-15.959c-25.01082,-6.9031 -70.61969,-28.09089 -70.61969,-28.09089l13.44547,-46.45352c0,0 52.15532,5.79535 77.59306,12.8163c26.13995,7.21471 77.96575,27.25192 77.96575,27.25192z" fill="#ff0000" stroke="#000000" stroke-width="2"/></g><path d="M797.94252,481.83636c0.4191,2.43602 -1.216,4.75067 -3.6521,5.16977c-2.43602,0.4191 -4.7507,-1.21603 -5.16979,-3.65212c-0.4191,-2.43602 1.21604,-4.75064 3.65206,-5.16977c2.43602,-0.4191 4.75067,1.21603 5.16978,3.65212z" data-paper-data="{&quot;index&quot;:null}" fill="url(#color-30)" stroke="none" stroke-width="0"/><path d="M772.20625,505.49615c-0.56459,2.4065 -2.97319,3.89973 -5.37969,3.33515c-2.40653,-0.5646 -3.89973,-2.97323 -3.33515,-5.37973c0.56459,-2.4065 2.97314,-3.89973 5.37963,-3.33512c2.40653,0.5646 3.8997,2.97321 3.33514,5.37974z" data-paper-data="{&quot;index&quot;:null}" fill="url(#color-31)" stroke="none" stroke-width="0"/><path d="M671.39488,396.67157c9.33503,-5.95652 21.73138,-3.21766 27.68787,6.11741c5.95655,9.33512 3.21766,21.73138 -6.11741,27.68787c-9.33503,5.95652 -21.73134,3.21762 -27.68783,-6.11743c-5.95652,-9.3351 -3.21766,-21.73138 6.11741,-27.68787z" data-paper-data="{&quot;index&quot;:null}" fill="url(#color-32)" stroke="none" stroke-width="0"/><path d="M751.61964,406.1188c2.61444,1.28404 3.69297,4.44443 2.40891,7.05884c-1.28404,2.61449 -4.4444,3.69291 -7.05884,2.40886c-2.61444,-1.28404 -3.69293,-4.44436 -2.40889,-7.05888c1.28404,-2.61449 4.44438,-3.69294 7.05883,-2.40889z" data-paper-data="{&quot;index&quot;:null}" fill="url(#color-33)" stroke="none" stroke-width="0"/><path d="M772.54539,431.01832c1.57994,2.44697 0.87698,5.71151 -1.56995,7.29145c-2.44699,1.57998 -5.71152,0.87699 -7.29141,-1.56995c-1.57994,-2.44697 -0.87704,-5.71146 1.56992,-7.29141c2.44699,-1.57998 5.71154,-0.877 7.29146,1.56992z" data-paper-data="{&quot;index&quot;:null}" fill="url(#color-34)" stroke="none" stroke-width="0"/><path d="M765.33533,457.41628c1.57993,2.44697 0.87702,5.71153 -1.56995,7.29145c-2.44694,1.57997 -5.71152,0.87702 -7.29149,-1.56994c-1.57994,-2.44697 -0.87699,-5.71152 1.56998,-7.29145c2.44694,-1.57997 5.71156,-0.87702 7.29149,1.56994z" data-paper-data="{&quot;index&quot;:null}" fill="url(#color-35)" stroke="none" stroke-width="0"/><path d="M747.27442,477.72179c1.57994,2.44697 0.87702,5.71153 -1.56995,7.29145c-2.44702,1.57997 -5.71156,0.87702 -7.29149,-1.56994c-1.57993,-2.44697 -0.87699,-5.71144 1.56999,-7.29137c2.44694,-1.57997 5.71147,-0.87704 7.29144,1.56992z" data-paper-data="{&quot;index&quot;:null}" fill="url(#color-36)" stroke="none" stroke-width="0"/><path d="M821.12427,517.64424c-0.64898,2.38514 -3.1087,3.79256 -5.49381,3.14355c-2.38513,-0.64898 -3.7926,-3.10865 -3.14354,-5.49381c0.64902,-2.38512 3.10871,-3.79255 5.49381,-3.14354c2.38513,0.64898 3.7926,3.10866 3.14359,5.49379z" data-paper-data="{&quot;index&quot;:null}" fill="url(#color-37)" stroke="none" stroke-width="0"/><g data-paper-data="{&quot;index&quot;:null}" stroke-width="1"><path d="M826.63058,516.97448c0,0 3.89629,11.87699 4.89729,17.84725c0.97399,5.80984 0.10345,17.66144 0.10345,17.66144l-16.21357,2.71835c0,0 -4.61417,-10.47724 -5.57186,-16.18957c-1.0147,-6.05242 -0.81863,-19.08612 -0.81863,-19.08612z" fill="#696969" stroke="#000000"/><path d="M820.7715,518.12558l5.88276,35.08791l-6.17656,1.03558l-5.88272,-35.08795z" fill="url(#color-38)" stroke="none"/><path d="M814.01701,519.22798l0.58446,1.09915c1.26035,1.08941 2.70665,1.62599 4.05542,2.54535c0.89637,0.61092 1.58891,1.49604 2.44463,2.15299c0.93609,0.71852 2.02794,1.08925 2.73004,2.19199c1.76849,2.77784 1.43296,7.08475 -0.57087,9.22084c-1.06445,1.25327 -1.89885,2.72942 -2.99337,3.93551c-0.18436,0.20314 -1.09195,1.01703 -1.19208,1.51696c-0.16054,0.80196 0.79925,2.48461 1.09322,2.99846c1.64949,2.88341 4.63734,4.5124 6.40507,7.34347c0,0 0.4563,0.7434 -0.18374,1.22776c-0.64005,0.48425 -1.09629,-0.25912 -1.09629,-0.25912c-1.72852,-2.88153 -4.75887,-4.44208 -6.424,-7.37488c-0.61075,-1.07571 -1.60296,-2.9836 -1.33558,-4.35715c0.27034,-1.38917 1.43896,-2.03492 2.17295,-3.0276c0.81867,-1.10713 1.53777,-2.24674 2.42763,-3.29354c1.48917,-1.53084 1.7657,-4.87815 0.4421,-6.92252c-0.56642,-0.87481 -1.56418,-1.16336 -2.3128,-1.73965c-0.83559,-0.64313 -1.51456,-1.51876 -2.38851,-2.1123c-1.51313,-1.02774 -3.03783,-1.62823 -4.42921,-2.89924l-0.75826,-1.36281c0,0 -0.41956,-0.76941 0.24501,-1.21124c0.6646,-0.44183 1.08416,0.32765 1.08416,0.32765z" fill="#000000" stroke="none"/><path d="M826.63058,516.97448c0,0 3.89629,11.87699 4.89729,17.84725c0.97399,5.80984 0.10345,17.66144 0.10345,17.66144l-16.21357,2.71835c0,0 -4.61417,-10.47724 -5.57186,-16.18957c-1.0147,-6.05242 -0.81863,-19.08612 -0.81863,-19.08612z" fill="#ff0000" stroke="#000000"/></g><g data-paper-data="{&quot;index&quot;:null}" stroke-width="1"><path d="M802.6506,478.90362c0,0 8.54821,9.11995 11.97709,14.10888c3.33683,4.85478 7.5533,15.9651 7.5533,15.9651l-13.54833,9.31197c0,0 -8.60771,-7.54805 -11.88843,-12.32145c-3.47606,-5.05752 -8.80326,-16.95446 -8.80326,-16.95446z" fill="#696969" stroke="#000000"/><path d="M797.82605,482.42159l20.15204,29.32005l-5.16126,3.54744l-20.15205,-29.32002z" fill="url(#color-39)" stroke="none"/><path d="M792.16932,486.27387l0.99398,0.74941c1.6025,0.45513 3.14001,0.33066 4.751,0.59432c1.0704,0.17513 2.07212,0.68501 3.12519,0.91907c1.15206,0.25597 2.29832,0.13083 3.40044,0.83378c2.7762,1.77093 4.29117,5.8166 3.37701,8.59917c-0.43557,1.58561 -0.56836,3.27591 -1.05106,4.83156c-0.08131,0.26201 -0.56019,1.38313 -0.43981,1.87852c0.19322,0.79476 1.77385,1.91456 2.25735,2.25611c2.71301,1.91697 6.1093,2.13154 8.90733,3.95103c0,0 0.72759,0.4811 0.352,1.19046c-0.37562,0.70932 -1.10315,0.22818 -1.10315,0.22818c-2.78385,-1.88185 -6.18976,-2.01645 -8.93774,-3.97151c-1.00796,-0.71706 -2.71311,-2.02738 -3.0509,-3.38538c-0.34167,-1.3734 0.44482,-2.45229 0.69091,-3.66209c0.27443,-1.34934 0.4449,-2.68601 0.80938,-4.01072c0.70321,-2.01655 -0.45991,-5.16743 -2.52309,-6.46143c-0.88288,-0.55374 -1.90915,-0.39389 -2.83112,-0.60004c-1.02901,-0.23006 -2.01432,-0.7369 -3.05717,-0.90586c-1.80565,-0.29244 -3.44128,-0.19272 -5.23933,-0.75716l-1.26286,-0.91518c0,0 -0.70535,-0.52022 -0.28949,-1.20136c0.41586,-0.68114 1.12111,-0.16097 1.12111,-0.16097z" fill="#000000" stroke="none"/><path d="M802.6506,478.90362c0,0 8.54821,9.11995 11.97709,14.10888c3.33683,4.85478 7.5533,15.9651 7.5533,15.9651l-13.54833,9.31197c0,0 -8.60771,-7.54805 -11.88843,-12.32145c-3.47606,-5.05752 -8.80326,-16.95446 -8.80326,-16.95446z" fill="#ff0000" stroke="#000000"/></g><path d="M779.57977,547.51085c-1.52815,1.94289 -4.34203,2.27903 -6.28495,0.75091c-1.94287,-1.52812 -2.27911,-4.342 -0.75095,-6.28486c1.52815,-1.94289 4.34205,-2.27907 6.28493,-0.75095c1.94287,1.52812 2.27908,4.34204 0.7509,6.28495z" data-paper-data="{&quot;index&quot;:null}" fill="url(#color-40)" stroke="none" stroke-width="0"/><g data-paper-data="{&quot;index&quot;:null}" stroke-width="1"><path d="M784.91087,549.04248c0,0 -1.0465,12.45596 -2.45429,18.34351c-1.36997,5.72942 -6.79557,16.302 -6.79557,16.302l-15.98918,-3.82308c0,0 -0.16057,-11.44712 1.1864,-17.08045c1.4272,-5.96863 6.6931,-17.89284 6.6931,-17.89284z" fill="#696969" stroke="#000000"/><path d="M779.06713,547.81633l-8.27359,34.60223l-6.09109,-1.45642l8.27366,-34.60225z" fill="url(#color-41)" stroke="none"/><path d="M772.41782,546.19607l0.10935,1.24006c0.73539,1.49487 1.85771,2.55317 2.74093,3.92601c0.58691,0.91217 0.87924,1.99739 1.41079,2.93614c0.58154,1.02686 1.44233,1.79417 1.65847,3.08348c0.54447,3.24766 -1.44485,7.0823 -4.12326,8.26726c-1.46908,0.73858 -2.81329,1.77212 -4.29168,2.45563c-0.24898,0.11512 -1.40225,0.51043 -1.68948,0.93166c-0.46077,0.67581 -0.23356,2.59943 -0.16335,3.18728c0.39375,3.29847 2.50931,5.96413 3.03232,9.2605c0,0 0.13,0.86248 -0.64817,1.05872c-0.77824,0.19616 -0.90824,-0.66628 -0.90824,-0.66628c-0.46724,-3.32755 -2.64858,-5.94675 -3.03745,-9.2968c-0.14265,-1.22873 -0.31176,-3.37249 0.47029,-4.53293c0.79095,-1.17362 2.11878,-1.31224 3.18194,-1.9399c1.18577,-0.70001 2.29254,-1.46879 3.5202,-2.08538c1.96843,-0.8285 3.52902,-3.80259 3.10794,-6.20129c-0.18015,-1.02647 -0.98634,-1.68153 -1.45082,-2.5042c-0.51844,-0.91821 -0.80198,-1.98938 -1.37505,-2.87687c-0.99226,-1.53665 -2.16178,-2.68436 -2.94703,-4.39753l-0.16634,-1.55072c0,0 -0.08614,-0.8721 0.69815,-1.01957c0.78426,-0.14753 0.87042,0.72467 0.87042,0.72467z" fill="#000000" stroke="none"/><path d="M784.91087,549.04248c0,0 -1.0465,12.45596 -2.45429,18.34351c-1.36997,5.72942 -6.79557,16.302 -6.79557,16.302l-15.98918,-3.82308c0,0 -0.16057,-11.44712 1.1864,-17.08045c1.4272,-5.96863 6.6931,-17.89284 6.6931,-17.89284z" fill="#ff0000" stroke="#000000"/></g><g data-paper-data="{&quot;index&quot;:null}" stroke-width="1"><path d="M777.68553,504.63276c0,0 4.31236,11.73238 5.52296,17.66366c1.17816,5.77195 0.7256,17.64683 0.7256,17.64683l-16.10776,3.28787c0,0 -4.9805,-10.30824 -6.13882,-15.98334c-1.22736,-6.0129 -1.49051,-19.0454 -1.49051,-19.0454z" fill="#696969" stroke="#000000"/><path d="M771.87069,505.9896l7.11523,34.85883l-6.13634,1.25249l-7.11519,-34.85885z" fill="url(#color-42)" stroke="none"/><path d="M765.15929,507.32932l0.62283,1.07788c1.29794,1.04435 2.76213,1.52971 4.14262,2.40093c0.91726,0.57893 1.64059,1.4392 2.51893,2.06552c0.96082,0.68517 2.06519,1.01716 2.80565,2.0945c1.86519,2.71381 1.68163,7.02981 -0.2457,9.23522c-1.01968,1.28998 -1.80147,2.79458 -2.85287,4.03856c-0.17709,0.20954 -1.05555,1.05497 -1.13796,1.55808c-0.13223,0.80717 0.88627,2.45484 1.19811,2.95799c1.74998,2.82349 4.79351,4.34619 6.65985,7.11323c0,0 0.48223,0.7268 -0.14034,1.23344c-0.62252,0.50659 -1.10465,-0.22032 -1.10465,-0.22032c-1.82897,-2.81889 -4.91239,-4.27175 -6.67979,-7.14399c-0.64832,-1.05355 -1.70703,-2.92524 -1.4883,-4.30741c0.22126,-1.39771 1.36639,-2.08435 2.06498,-3.10223c0.77909,-1.13533 1.45758,-2.29954 2.31004,-3.37705c1.43427,-1.58235 1.59273,-4.93735 0.19791,-6.93376c-0.59685,-0.85433 -1.60415,-1.10759 -2.37262,-1.6571c-0.85774,-0.6133 -1.5671,-1.46445 -2.46143,-2.02688c-1.54843,-0.97372 -3.09332,-1.52017 -4.52866,-2.74144l-0.80569,-1.3353c0,0 -0.44641,-0.75417 0.20225,-1.21908c0.64863,-0.46493 1.09509,0.28929 1.09509,0.28929z" fill="#000000" stroke="none"/><path d="M777.68553,504.63276c0,0 4.31236,11.73238 5.52296,17.66366c1.17816,5.77195 0.7256,17.64683 0.7256,17.64683l-16.10776,3.28787c0,0 -4.9805,-10.30824 -6.13882,-15.98334c-1.22736,-6.0129 -1.49051,-19.0454 -1.49051,-19.0454z" fill="#ff0000" stroke="#000000"/></g><path d="M849.48126,480.38683c0.22575,2.46156 -1.58679,4.63996 -4.04831,4.86567c-2.46154,0.22568 -4.63992,-1.58675 -4.86567,-4.04829c-0.22569,-2.4616 1.58679,-4.63996 4.04831,-4.86567c2.46152,-0.22572 4.64001,1.5868 4.86567,4.04829z" data-paper-data="{&quot;index&quot;:null}" fill="url(#color-43)" stroke="none" stroke-width="0"/><g data-paper-data="{&quot;index&quot;:null}" stroke-width="1"><path d="M854.40596,477.83446c0,0 7.80239,9.76563 10.82714,15.00934c2.9435,5.1028 6.27087,16.51106 6.27087,16.51106l-14.24044,8.21453c0,0 -7.98564,-8.20329 -10.87979,-13.22043c-3.06641,-5.31586 -7.43884,-17.59579 -7.43884,-17.59579z" fill="#696969" stroke="#000000"/><path d="M849.31909,480.96104l17.77723,30.81783l-5.42487,3.12932l-17.77727,-30.81786z" fill="url(#color-44)" stroke="none"/><path d="M843.37617,484.35504l0.93182,0.82557c1.56167,0.58015 3.10423,0.57722 4.68938,0.96713c1.05327,0.25896 2.01154,0.84633 3.04297,1.16264c1.12815,0.34601 2.28088,0.31165 3.32414,1.09939c2.62794,1.98441 3.81907,6.13689 2.68841,8.83867c-0.55923,1.54631 -0.82491,3.22093 -1.4287,4.73359c-0.10171,0.25481 -0.66759,1.33466 -0.58663,1.83801c0.12992,0.80761 1.6173,2.04844 2.07239,2.42714c2.55339,2.12495 5.92217,2.60662 8.568,4.64111c0,0 0.68738,0.53701 0.25705,1.2145c-0.43033,0.67747 -1.11762,0.14047 -1.11762,0.14047c-2.62675,-2.09547 -6.01146,-2.4983 -8.59667,-4.66394c-0.94824,-0.7943 -2.54486,-2.23505 -2.77449,-3.61538c-0.23231,-1.39598 0.63687,-2.40959 0.97751,-3.59622c0.38004,-1.32343 0.65528,-2.64253 1.12309,-3.9343c0.86009,-1.95481 -0.05093,-5.18758 -2.00567,-6.64029c-0.83647,-0.62159 -1.87222,-0.54324 -2.775,-0.82146c-1.00773,-0.31047 -1.94993,-0.89351 -2.97625,-1.14415c-1.77695,-0.43395 -3.41533,-0.4635 -5.16327,-1.16794l-1.18679,-1.01191c0,0 -0.6621,-0.57416 -0.19387,-1.22042c0.4682,-0.6463 1.13038,-0.07209 1.13038,-0.07209z" fill="#000000" stroke="none"/><path d="M854.40596,477.83446c0,0 7.80239,9.76563 10.82714,15.00934c2.9435,5.1028 6.27087,16.51106 6.27087,16.51106l-14.24044,8.21453c0,0 -7.98564,-8.20329 -10.87979,-13.22043c-3.06641,-5.31586 -7.43884,-17.59579 -7.43884,-17.59579z" fill="#ff0000" stroke="#000000"/></g><path d="M815.24466,454.94164c1.24429,2.13585 0.5214,4.876 -1.61441,6.12028c-2.13585,1.24429 -4.87601,0.5214 -6.1203,-1.61442c-1.24427,-2.13581 -0.52136,-4.876 1.61447,-6.1203c2.13581,-1.24427 4.87596,-0.52139 6.12025,1.61439z" data-paper-data="{&quot;index&quot;:null}" fill="url(#color-45)" stroke="none" stroke-width="0"/><g data-paper-data="{&quot;index&quot;:null}" stroke-width="1"><path d="M818.63058,450.54816c0,0 11.19699,5.55642 16.15346,9.03188c4.82338,3.38211 12.65762,12.31748 12.65762,12.31748l-9.43833,13.46053c0,0 -10.70311,-4.06284 -15.44551,-7.38824c-5.02474,-3.52332 -14.17464,-12.80745 -14.17464,-12.80745z" fill="#696969" stroke="#000000"/><path d="M815.34019,455.53059l29.13008,20.42565l-3.59564,5.12785l-29.13004,-20.42573z" fill="url(#color-46)" stroke="none"/><path d="M811.38685,461.11721l1.19321,0.35469c1.66053,-0.13377 3.05755,-0.7878 4.65903,-1.10398c1.06409,-0.21008 2.18089,-0.08246 3.24929,-0.23137c1.16876,-0.16287 2.19898,-0.68094 3.47744,-0.40749c3.22017,0.68871 6.0537,3.9495 6.16999,6.87605c0.1462,1.63785 0.61263,3.26799 0.70414,4.89416c0.01548,0.27393 -0.0413,1.49172 0.24465,1.91375c0.45881,0.67711 2.33113,1.1737 2.90357,1.32476c3.21188,0.84766 6.46895,-0.13865 9.72654,0.58798c0,0 0.84982,0.19644 0.74594,0.99234c-0.10395,0.79576 -0.95377,0.59938 -0.95377,0.59938c-3.26603,-0.78997 -6.50411,0.27453 -9.76219,-0.59664c-1.19506,-0.31947 -3.25058,-0.9511 -4.04183,-2.10526c-0.80017,-1.16722 -0.44038,-2.45311 -0.63285,-3.67257c-0.21459,-1.36012 -0.52221,-2.6721 -0.6437,-4.04055c-0.04612,-2.13513 -2.23726,-4.68063 -4.6227,-5.17172c-1.02071,-0.21017 -1.92638,0.29834 -2.86224,0.42752c-1.04452,0.14419 -2.14485,0.01365 -3.18099,0.22003c-1.79394,0.35714 -3.29151,1.02228 -5.17344,1.12202l-1.50309,-0.41596c0,0 -0.84263,-0.24083 -0.69118,-1.02436c0.15151,-0.78352 0.99417,-0.54266 0.99417,-0.54266z" fill="#000000" stroke="none"/><path d="M818.63058,450.54816c0,0 11.19699,5.55642 16.15346,9.03188c4.82338,3.38211 12.65762,12.31748 12.65762,12.31748l-9.43833,13.46053c0,0 -10.70311,-4.06284 -15.44551,-7.38824c-5.02474,-3.52332 -14.17464,-12.80745 -14.17464,-12.80745z" fill="#ff0000" stroke="#000000"/></g><g data-paper-data="{&quot;index&quot;:null}" stroke-width="1"><path d="M775.1423,440.64084c0,0 12.49795,0.21458 18.46624,1.22712c5.80792,0.98525 16.71849,5.69476 16.71849,5.69476l-2.74981,16.20829c0,0 -11.41098,0.92263 -17.12151,-0.04613c-6.05046,-1.02643 -18.2989,-5.48653 -18.2989,-5.48653z" fill="#696969" stroke="#000000"/><path d="M774.30808,446.55331l35.0764,5.95069l-1.04755,6.17454l-35.07643,-5.95074z" fill="url(#color-47)" stroke="none"/><path d="M773.13432,453.29568l1.23003,-0.19159c1.44253,-0.83331 2.42374,-2.02359 3.73468,-2.99634c0.871,-0.6463 1.93449,-1.01028 2.83568,-1.60317c0.98581,-0.64863 1.69411,-1.55853 2.96613,-1.86012c3.20416,-0.75957 7.16276,0.96999 8.52355,3.56354c0.83485,1.41662 1.95559,2.689 2.73609,4.11858c0.13147,0.24079 0.60277,1.36519 1.04219,1.62369c0.7049,0.41472 2.60926,0.05996 3.1911,-0.04923c3.26494,-0.6125 5.7837,-2.90088 9.03797,-3.64232c0,0 0.85192,-0.1872 1.09953,0.57623c0.24764,0.76343 -0.60432,0.95065 -0.60432,0.95065c-3.28909,0.68786 -5.75722,3.03869 -9.07385,3.64982c-1.21648,0.22412 -3.34426,0.53565 -4.55419,-0.16737c-1.22368,-0.71106 -1.45044,-2.02681 -2.14745,-3.0457c-0.77742,-1.13649 -1.61814,-2.18955 -2.31518,-3.37356c-0.95777,-1.90879 -4.02921,-3.26786 -6.39458,-2.68792c-1.01215,0.2481 -1.61203,1.096 -2.40197,1.61425c-0.88165,0.57842 -1.93153,0.93266 -2.77889,1.56361c-1.46717,1.09239 -2.53443,2.33573 -4.19156,3.23334l-1.53613,0.26921c0,0 -0.86455,0.14408 -1.06395,-0.62867c-0.1994,-0.77274 0.66508,-0.9168 0.66508,-0.9168z" fill="#000000" stroke="none"/><path d="M775.1423,440.64084c0,0 12.49795,0.21458 18.46624,1.22712c5.80792,0.98525 16.71849,5.69476 16.71849,5.69476l-2.74981,16.20829c0,0 -11.41098,0.92263 -17.12151,-0.04613c-6.05046,-1.02643 -18.2989,-5.48653 -18.2989,-5.48653z" fill="#ff0000" stroke="#000000"/></g><g data-paper-data="{&quot;index&quot;:null}" stroke-width="1"><path d="M765.36925,454.41934c0,0 11.63451,4.56995 16.87227,7.60498c5.09709,2.95341 13.67291,11.17974 13.67291,11.17974l-8.24219,14.22444c0,0 -11.0136,-3.12451 -16.02521,-6.02846c-5.30987,-3.07679 -15.2265,-11.53715 -15.2265,-11.53715z" fill="#696969" stroke="#000000"/><path d="M762.52082,459.66697l30.78323,17.83701l-3.13983,5.41884l-30.78336,-17.83693z" fill="url(#color-48)" stroke="none"/><path d="M759.06407,465.57371l1.21944,0.25039c1.64283,-0.27649 2.9782,-1.04859 4.54646,-1.50173c1.04203,-0.30106 2.16561,-0.27033 3.21722,-0.51077c1.15035,-0.26312 2.13216,-0.86803 3.42939,-0.70593c3.26757,0.40844 6.37184,3.41267 6.74006,6.31836c0.28693,1.6191 0.89223,3.20298 1.12375,4.81516c0.03907,0.27157 0.08749,1.48968 0.40881,1.88557c0.51548,0.63495 2.42374,0.96822 3.00703,1.06935c3.27302,0.56737 6.43286,-0.69606 9.74096,-0.25313c0,0 0.86364,0.12244 0.82879,0.9242c-0.03484,0.80181 -0.89848,0.67946 -0.89848,0.67946c-3.32208,-0.50528 -6.45626,0.83442 -9.77725,0.24764c-1.21811,-0.21522 -3.32058,-0.66706 -4.20834,-1.74875c-0.89787,-1.09394 -0.65041,-2.40603 -0.94728,-3.60431c-0.3311,-1.33656 -0.75067,-2.61702 -0.98983,-3.96997c-0.23007,-2.1232 -2.63264,-4.47026 -5.05149,-4.7538c-1.03505,-0.12137 -1.8935,0.4634 -2.81473,0.67281c-1.02818,0.23373 -2.13561,0.19863 -3.15011,0.49356c-1.7565,0.51062 -3.19112,1.30248 -5.0574,1.56418l-1.53331,-0.28476c0,0 -0.86033,-0.16719 -0.77703,-0.96088c0.08332,-0.79366 0.9436,-0.62643 0.9436,-0.62643z" fill="#000000" stroke="none"/><path d="M765.36925,454.41934c0,0 11.63451,4.56995 16.87227,7.60498c5.09709,2.95341 13.67291,11.17974 13.67291,11.17974l-8.24219,14.22444c0,0 -11.0136,-3.12451 -16.02521,-6.02846c-5.30987,-3.07679 -15.2265,-11.53715 -15.2265,-11.53715z" fill="#ff0000" stroke="#000000"/></g><g data-paper-data="{&quot;index&quot;:null}" stroke-width="1"><path d="M752.91179,467.54301c0,0 8.92937,8.74718 12.56786,13.58521c3.54076,4.70806 8.22729,15.62841 8.22729,15.62841l-13.13887,9.88129c0,0 -8.92172,-7.17405 -12.40302,-11.80313c-3.68857,-4.90462 -9.51826,-16.56356 -9.51826,-16.56356z" fill="#696969" stroke="#000000"/><path d="M748.24169,471.26355l21.3842,28.43387l-5.0052,3.76428l-21.38421,-28.43388z" fill="url(#color-49)" stroke="none"/><path d="M742.75429,475.35348l1.02499,0.70638c1.6205,0.38644 3.15136,0.19654 4.77207,0.39118c1.07688,0.12936 2.09947,0.59602 3.16156,0.78491c1.16184,0.20659 2.30176,0.03262 3.43293,0.68804c2.84925,1.65093 4.53528,5.62832 3.74068,8.44731c-0.36751,1.60275 -0.42819,3.29722 -0.84407,4.87202c-0.07003,0.26526 -0.50073,1.40575 -0.35927,1.89559c0.22688,0.78571 1.85385,1.83713 2.3515,2.1578c2.79226,1.79948 6.19464,1.869 9.06776,3.56751c0,0 0.74743,0.44966 0.40245,1.17434c-0.34499,0.72466 -1.09238,0.27501 -1.09238,0.27501c-2.86164,-1.76142 -6.27016,-1.75072 -9.099,-3.58682c-1.03759,-0.67347 -2.79706,-1.90984 -3.19252,-3.25218c-0.39989,-1.35753 0.33991,-2.46907 0.53411,-3.6882c0.21664,-1.35984 0.32991,-2.70254 0.63753,-4.04158c0.6166,-2.04471 -0.67982,-5.14314 -2.79636,-6.34796c-0.90569,-0.51557 -1.92419,-0.31211 -2.85407,-0.47869c-1.03796,-0.18591 -2.04394,-0.65036 -3.09306,-0.77466c-1.8165,-0.21523 -3.44628,-0.04578 -5.26684,-0.53299l-1.30074,-0.86041c0,0 -0.72688,-0.48978 -0.34046,-1.18797c0.38642,-0.69826 1.11323,-0.20859 1.11323,-0.20859z" fill="#000000" stroke="none"/><path d="M752.91179,467.54301c0,0 8.92937,8.74718 12.56786,13.58521c3.54076,4.70806 8.22729,15.62841 8.22729,15.62841l-13.13887,9.88129c0,0 -8.92172,-7.17405 -12.40302,-11.80313c-3.68857,-4.90462 -9.51826,-16.56356 -9.51826,-16.56356z" fill="#ff0000" stroke="#000000"/></g><path d="M720.58084,482.83953c-29.09831,-16.33771 -42.80329,-47.1862 -30.6106,-68.9019c12.19267,-21.71575 45.66561,-26.07538 74.76402,-9.7376c29.0984,16.33776 26.38663,34.14724 14.19408,55.86303c-12.19267,21.71575 -29.24905,39.11434 -58.34745,22.77649z" data-paper-data="{&quot;index&quot;:null}" fill="#ff0000" stroke="#000000" stroke-width="1"/><path d="M778.03651,381.27965c2.32815,1.75034 2.79665,5.05667 1.0464,7.38485c-1.75027,2.32824 -5.05655,2.79662 -7.38476,1.04635c-2.32817,-1.7503 -2.79665,-5.05658 -1.04639,-7.38481c1.75027,-2.32824 5.05656,-2.79665 7.3848,-1.04638z" data-paper-data="{&quot;index&quot;:null}" fill="url(#color-50)" stroke="none" stroke-width="0"/><g data-paper-data="{&quot;index&quot;:null}" stroke-width="1"><path d="M779.70372,374.95966c0,0 14.70087,0.91234 21.67317,2.41923c6.78495,1.46641 19.37988,7.58625 19.37988,7.58625l-4.09244,18.93487c0,0 -13.48149,0.4837 -20.15259,-0.95808c-7.06821,-1.52768 -21.25129,-7.42443 -21.25129,-7.42443z" fill="#696969" stroke="#000000"/><path d="M778.40958,381.87561l40.97694,8.85647l-1.55903,7.21327l-40.97693,-8.85648z" fill="url(#color-51)" stroke="none"/><path d="M776.67198,389.75065l1.45805,-0.16066c1.74206,-0.90478 2.9601,-2.25411 4.55457,-3.32996c1.05953,-0.71491 2.33051,-1.08723 3.42273,-1.73761c1.19478,-0.71149 2.07655,-1.74535 3.58989,-2.03311c3.8119,-0.72501 8.38068,1.51991 9.8456,4.64483c0.90794,1.71172 2.16007,3.2686 3.00341,4.99265c0.14205,0.2904 0.63739,1.63885 1.14104,1.96637c0.808,0.52543 3.0684,0.20821 3.7591,0.1104c3.87571,-0.54871 6.96161,-3.10954 10.83147,-3.81056c0,0 1.01274,-0.17542 1.26396,0.73628c0.25116,0.91177 -0.76154,1.0872 -0.76154,1.0872c-3.90807,0.63618 -6.93757,3.27316 -10.87411,3.81755c-1.44392,0.1997 -3.96505,0.45415 -5.35221,-0.43736c-1.40289,-0.90155 -1.60042,-2.46251 -2.3672,-3.69877c-0.8552,-1.37889 -1.78925,-2.6629 -2.54724,-4.09341c-1.02671,-2.29758 -4.57063,-4.05955 -7.38566,-3.50175c-1.20456,0.23871 -1.95554,1.20516 -2.91276,1.77351c-1.06839,0.63435 -2.32292,0.99598 -3.35373,1.69396c-1.78472,1.20848 -3.10678,2.61583 -5.10488,3.58499l-1.82253,0.23585c0,0 -1.02526,0.12395 -1.21916,-0.79624c-0.19388,-0.92025 0.83133,-1.04415 0.83133,-1.04415z" fill="#000000" stroke="none"/><path d="M779.70372,374.95966c0,0 14.70087,0.91234 21.67317,2.41923c6.78495,1.46641 19.37988,7.58625 19.37988,7.58625l-4.09244,18.93487c0,0 -13.48149,0.4837 -20.15259,-0.95808c-7.06821,-1.52768 -21.25129,-7.42443 -21.25129,-7.42443z" fill="#ff0000" stroke="#000000"/></g><path d="M722.83086,391.14925c1.75027,-2.32824 5.05654,-2.79663 7.38475,-1.04636c2.32817,1.7503 2.79665,5.05672 1.0464,7.38482c-1.75031,2.3282 -5.05659,2.79662 -7.38482,1.04636c-2.32817,-1.7503 -2.79665,-5.05657 -1.04639,-7.3848z" data-paper-data="{&quot;index&quot;:null}" fill="url(#color-52)" stroke="none" stroke-width="0"/><g data-paper-data="{&quot;index&quot;:null}" stroke-width="1"><path d="M727.94579,384.09357c0,0 13.67034,-5.48375 20.61477,-7.11425c6.75786,-1.58673 20.76037,-1.46311 20.76037,-1.46311l4.42797,18.85911c0,0 -11.96983,6.22163 -18.61424,7.7817c-7.03999,1.65298 -22.38127,2.41222 -22.38127,2.41222z" fill="#696969" stroke="#000000"/><path d="M729.74436,390.89574l40.81326,-9.58252l1.68683,7.18445l-40.81321,9.58252z" fill="url(#color-53)" stroke="none"/><path d="M731.55391,398.75458l1.24807,-0.77073c1.18534,-1.5648 1.70646,-3.30619 2.6851,-4.96212c0.65018,-1.10041 1.63863,-1.982 2.34607,-3.03813c0.77381,-1.15527 1.12679,-2.46747 2.37018,-3.37684c3.13211,-2.29049 8.22211,-2.22305 10.88613,-0.02902c1.55457,1.1566 3.35374,2.02562 4.85523,3.22099c0.25291,0.20132 1.27896,1.20679 1.87442,1.28651c0.95525,0.12792 2.86089,-1.12844 3.44277,-1.51319c3.26525,-2.1586 4.95394,-5.79587 8.14865,-8.08954c0,0 0.83949,-0.59293 1.45763,0.1228c0.61808,0.71577 -0.22136,1.30875 -0.22136,1.30875c-3.2571,2.25155 -4.86203,5.93342 -8.18426,8.11413c-1.21853,0.79994 -3.38662,2.11152 -5.02215,1.90148c-1.65402,-0.21244 -2.50226,-1.53751 -3.72521,-2.32522c-1.36407,-0.8786 -2.75881,-1.63749 -4.0573,-2.60443c-1.91325,-1.63482 -5.87034,-1.70579 -8.17371,0.00598c-0.98568,0.73243 -1.24923,1.92769 -1.86999,2.85177c-0.69286,1.03144 -1.67087,1.8963 -2.30251,2.96914c-1.09352,1.85741 -1.68379,3.69586 -3.07277,5.4286l-1.54501,0.99507c0,0 -0.87289,0.55186 -1.44291,-0.1961c-0.56997,-0.74796 0.30298,-1.29978 0.30298,-1.29978z" fill="#000000" stroke="none"/><path d="M727.94579,384.09357c0,0 13.67034,-5.48375 20.61477,-7.11425c6.75786,-1.58673 20.76037,-1.46311 20.76037,-1.46311l4.42797,18.85911c0,0 -11.96983,6.22163 -18.61424,7.7817c-7.03999,1.65298 -22.38127,2.41222 -22.38127,2.41222z" fill="#ff0000" stroke="#000000"/></g><g data-paper-data="{&quot;index&quot;:null}"><path d="M665.54392,436.52924c0,0 -57.22983,-9.0148 -83.68187,-16.49981c-24.96575,-7.06445 -70.43685,-28.5464 -70.43685,-28.5464l13.74516,-46.36577c0,0 52.11684,6.13209 77.50868,13.3171c26.09284,7.38338 77.7881,27.75485 77.7881,27.75485z" fill="#696969" stroke="#000000" stroke-width="2"/><path d="M669.52325,420.48294l-153.35105,-43.39315l5.23622,-17.66313l153.35119,43.39307z" fill="url(#color-54)" stroke="none" stroke-width="0"/><path d="M670.48142,425.63313c-2.01348,1.6572 -5.34364,-0.1612 -5.34364,-0.1612l-5.89726,-3.26562c-5.42319,-5.08707 -7.88826,-10.07768 -12.22983,-15.3486c-2.50767,-3.04439 -6.27484,-5.71478 -9.00441,-8.68123c-2.44544,-2.65771 -3.6006,-5.84676 -7.37702,-8.18078c-8.82515,-5.45436 -23.54796,-7.09475 -30.43379,-3.78001c-4.69406,1.88362 -9.77658,3.1894 -14.72775,4.81609c-4.43915,1.45845 -7.4045,4.46896 -13.53198,4.25231c-6.05891,-0.21415 -14.32207,-4.57933 -18.97528,-7.19357c-12.68639,-7.12745 -19.1971,-17.31682 -31.65143,-24.5958c0,0 -3.2118,-1.90862 -1.01449,-3.46111c2.19736,-1.55247 5.40919,0.35614 5.40919,0.35614c12.22835,7.35864 19.0441,17.47195 31.51556,24.51634c2.22272,1.25552 9.50042,5.35799 13.03857,5.46964c2.2054,0.06958 5.8795,-2.03851 6.7918,-2.43881c5.41667,-2.3768 11.98893,-3.77879 17.60884,-6.03122c9.60008,-4.40433 28.54169,-2.23307 40.5363,5.08855c4.76186,2.90666 6.26661,6.43714 9.31586,9.75882c2.78744,3.03653 6.59555,5.75465 9.17654,8.87836c3.88425,4.701 6.07788,9.41062 10.71858,13.97286l4.75901,2.55316c0,0 3.33017,1.81841 1.31676,3.47563z" fill="#000000" stroke="none" stroke-width="0.5"/><path d="M665.54392,436.52924c0,0 -57.22983,-9.0148 -83.68187,-16.49981c-24.96575,-7.06445 -70.43685,-28.5464 -70.43685,-28.5464l13.74516,-46.36577c0,0 52.11684,6.13209 77.50868,13.3171c26.09284,7.38338 77.7881,27.75485 77.7881,27.75485z" fill="#ff0000" stroke="#000000" stroke-width="2"/></g></g><path d="M148.15081,322.65424l0.10152,-18.44173l186.17322,1.02477l-0.10152,18.44173z" fill="url(#color-55)" stroke="none" stroke-width="0" stroke-linecap="butt"/><path d="M167.53881,310.38171c-0.05473,9.9426 -8.15911,17.95824 -18.10166,17.90351c-9.9426,-0.05473 -17.95824,-8.15911 -17.90352,-18.10172c0.05473,-9.94258 8.15915,-17.95824 18.10172,-17.90352c9.94258,0.05473 17.95821,8.15914 17.90348,18.10172z" fill="url(#color-56)" stroke="none" stroke-width="0" stroke-linecap="butt"/><path d="M358.04456,315.89413c-0.05867,10.66081 -8.74849,19.25544 -19.40922,19.19675c-10.66073,-0.0587 -19.25545,-8.74853 -19.19676,-19.40925c0.05867,-10.66076 8.7485,-19.25539 19.40925,-19.19672c10.66073,0.0587 19.2554,8.74846 19.19671,19.40922z" fill="url(#color-57)" stroke="none" stroke-width="0" stroke-linecap="butt"/><path d="M245.49811,271.21691c39.40822,1.34103 124.65484,77.94688 124.13027,173.2499c-0.17103,31.07241 -6.2843,60.19387 -16.84115,85.32037c-21.82223,51.93971 -195.14954,51.86433 -216.606,0.76716c-10.78601,-25.68621 -16.88861,-55.58292 -16.71312,-87.4645c0.52459,-95.30303 79.4934,-173.45654 126.02999,-171.87295z" fill="#696969" stroke="#000000" stroke-width="2" stroke-linecap="butt"/><path d="M236.49412,416.37783l79.34635,-107.34206l14.83011,10.96234l-79.34635,107.34206z" fill="url(#color-58)" stroke="none" stroke-width="0" stroke-linecap="butt"/><path d="M242.28916,429.04686l-78.15988,-108.20907l14.9499,-10.79841l78.15993,108.20908z" data-paper-data="{&quot;index&quot;:null}" fill="url(#color-59)" stroke="none" stroke-width="0" stroke-linecap="butt"/><path d="M234.62015,568.07111l0.87491,-158.94972l21.95438,0.12086l-0.87491,158.94972z" fill="url(#color-60)" stroke="none" stroke-width="0" stroke-linecap="butt"/><path d="M260.71527,407.92788c0.65653,-3.22715 3.88363,-2.57062 3.88363,-2.57062l2.51971,0.59271c1.2284,0.55833 2.4567,1.11663 3.68511,1.67496c6.33403,5.15978 12.44517,11.97321 18.06425,18.55794c2.32166,-1.13642 4.37673,-2.84862 6.00018,-5.34514c3.7958,-5.83746 -0.24168,-12.3087 -1.09145,-18.20558c-1.03525,-7.18391 0.98278,-14.5731 0.12048,-21.78704c-1.2563,-10.50985 -9.17496,-21.40701 -15.78855,-29.31049c-6.31247,-7.66904 -18.22404,-8.96306 -23.22065,-17.25826c-4.21216,-6.99285 -1.57249,-15.58021 -4.28011,-22.80519c-0.45004,3.10106 -1.48291,6.06502 -3.30257,8.80876c-4.48956,6.76971 -13.91572,13.37503 -20.72184,17.47333c-4.41956,2.66121 -12.58455,4.79176 -16.04178,8.78908c-2.65951,3.07494 -3.22159,7.46606 -4.90011,11.16887c-6.59434,14.54708 -17.30503,31.13772 -1.10264,42.77915c3.64118,2.6162 6.78041,4.23911 11.29309,4.17258l1.46965,0.00809c0,0 3.29319,0.01811 3.27508,3.31129c-0.01813,3.29317 -3.31133,3.27503 -3.31133,3.27503l-1.46965,-0.00809c-11.84799,-0.23718 -28.57917,-12.36513 -27.38328,-25.93207c0.8998,-10.20785 7.06468,-21.13611 11.23017,-30.32528c0.48202,-1.06343 5.53941,-12.32418 5.97723,-12.82649c4.05768,-4.65536 12.40051,-6.95542 17.57026,-10.05724c6.05165,-3.63096 14.66327,-9.58658 18.70092,-15.57893c3.87412,-5.74978 2.83172,-13.67779 0.38565,-21.62072c-4.32478,-6.9418 -9.60378,-13.29679 -15.91754,-17.88496c0,0 -2.6557,-1.94749 -0.70814,-4.60311c1.94746,-2.65566 4.60314,-0.7082 4.60314,-0.7082c1.65999,1.22712 3.26462,2.56237 4.8115,3.98902c-0.2599,-0.73356 -0.49806,-1.44248 -0.70923,-2.12333c0,0 -0.9754,-3.14549 2.17008,-4.12084c3.14546,-0.97538 4.1208,2.17009 4.1208,2.17009c1.80337,5.81559 4.74851,12.527 7.01752,19.39391c3.57461,5.60125 6.54228,11.57507 8.83659,17.44317c2.79817,7.15686 0.27137,15.7392 4.1043,22.54281c2.28433,4.05477 8.65928,5.06716 12.32013,7.20168c3.94678,2.30125 7.29757,5.61488 10.24185,9.10836c7.46191,8.9816 15.81945,20.86072 17.26533,32.71309c0.8808,7.22037 -1.1748,14.64069 -0.11947,21.79547c1.16724,7.91305 5.17356,14.65049 0.15436,22.47953c-2.0189,3.14917 -4.49528,5.40976 -7.27111,6.99404c0.10448,0.12387 0.20879,0.2475 0.31279,0.37083c4.02422,4.76992 6.54509,9.81686 11.99539,13.19284c16.97222,10.51267 19.85841,-16.80573 17.683,-27.05175c-9.52028,-26.70075 -21.87669,-54.78898 -6.62049,-82.4281c2.18308,-3.95507 5.2412,-7.03064 8.44425,-10.00781c0.17616,1.64421 1.56352,2.92893 3.25621,2.93824c0.19564,0.00109 0.38744,-0.01491 0.57385,-0.0466c0.26561,0.53113 0.67056,0.9806 1.16719,1.30031c-2.95266,2.69379 -5.7675,5.49747 -7.67754,9.00287c-14.18263,26.02912 -1.64792,52.45438 7.19616,77.45529c1.38963,6.61856 2.71247,14.52642 0.58857,21.17115c-4.05251,12.67823 -15.89091,20.59723 -28.0692,13.27216c-6.17413,-3.71366 -9.09202,-9.22513 -13.57129,-14.55096c-0.59084,-0.70255 -1.18997,-1.41788 -1.79672,-2.14232c-7.4087,1.67542 -15.84685,0.43209 -23.21758,-0.91336c-1.39261,-0.38254 -2.78517,-0.76509 -4.17777,-1.14761l0.12181,0.11422c0,0 -3.29317,-0.01813 -3.27503,-3.31133c0.01813,-3.29317 3.31129,-3.27503 3.31129,-3.27503l1.5914,0.12225c1.29769,0.35863 2.59543,0.71733 3.89314,1.076c5.09975,0.9216 11.25176,2.10547 16.90038,1.58721c-4.57947,-5.33837 -9.47305,-10.68878 -14.47816,-14.79546c-0.97077,-0.4223 -1.94151,-0.84461 -2.91222,-1.2669l-1.1503,-0.15394c0,0 -3.22713,-0.65653 -2.57065,-3.88359z" fill="#000000" stroke="none" stroke-width="0.5" stroke-linecap="butt"/><path d="M234.09136,427.29985c1.44288,2.96032 -1.51742,4.40317 -1.51742,4.40317l-2.0879,0.83101c-5.31694,5.11271 -8.47308,12.05688 -12.34994,18.36569c-14.15993,22.7984 -45.83536,19.86096 -57.65038,-3.99203c-6.63623,-13.39772 0.05555,-34.04034 7.75358,-45.33018c11.492,-19.18717 12.72866,-35.57171 7.2657,-56.91178c-1.38967,-5.4285 -4.37859,-13.78383 -9.50924,-17.82423c0.8635,-0.62439 1.24628,-1.56623 1.24628,-1.56623c0.5406,-1.37973 1.22005,-2.73136 2.06298,-3.95949c4.99966,3.67292 8.28961,9.80515 10.6418,15.84742c9.30659,23.90678 6.84106,46.16367 -6.15792,67.96164c-6.64276,9.72485 -11.10296,24.19732 -8.60911,36.25025c0.69544,3.36111 3.4082,6.03775 5.69,8.30186c4.04711,4.0157 8.29252,9.14884 14.20483,10.47953c11.6803,2.62898 21.66333,-3.17187 27.45001,-12.70502c4.21485,-6.85857 7.64622,-13.96588 13.35696,-19.6268l3.80662,-2.04204c0,0 2.96028,-1.4429 4.40315,1.5174z" fill="#000000" stroke="none" stroke-width="0.5" stroke-linecap="butt"/><path d="M252.5208,414.32034c3.29317,0.01813 3.27503,3.31129 3.27503,3.31129l-0.18642,2.50406c-2.44476,7.09744 -3.36766,14.86368 -6.49855,21.72579c-1.71953,3.76877 -6.82206,8.90639 -6.38957,13.62731c0.44501,4.85821 5.28778,9.22405 8.27791,12.57777c6.74571,7.56587 14.94072,13.44807 21.88994,20.88954c1.36788,3.51925 3.39287,7.0533 2.61348,11.06248c-2.80849,14.44747 -24.17984,22.53029 -35.33811,29.49663c-3.25076,2.0295 -7.84314,2.51553 -9.98997,5.69004c-0.63709,0.94204 0.36072,2.24932 0.64884,3.34946c1.50825,5.75937 3.23503,10.23163 6.54278,15.18658c3.25467,4.87547 6.12911,7.86884 10.99434,11.10043c0,0 2.73982,1.8272 0.91257,4.56702c-1.82724,2.73982 -4.56701,0.91253 -4.56701,0.91253c-5.55273,-3.71662 -9.10549,-7.35221 -12.81943,-12.92552c-3.32574,-4.99077 -11.18418,-18.59769 -7.56805,-25.2052c0.57523,-1.05105 10.78041,-7.27745 12.35787,-8.26228c10.66206,-6.65655 36.50774,-15.75776 30.64208,-31.45797c-9.58311,-9.8676 -29.8972,-21.32075 -31.1729,-36.60433c-0.5328,-6.38339 4.59134,-11.55212 7.00503,-16.80767c3.03379,-6.60571 3.88232,-14.20608 6.22924,-21.06151l-0.17043,-0.40146c0,0 0.01813,-3.29312 3.31127,-3.275z" fill="#000000" stroke="none" stroke-width="0.5" stroke-linecap="butt"/><g><path d="M198.17883,447.67403l0.49305,-89.5739l93.30613,0.51358l-0.49305,89.5739z" fill="#323232" stroke="none" stroke-width="0" stroke-linecap="butt"/><g stroke="#000000"><path d="M244.94026,364.68175c19.93359,0.10972 36.00405,16.35807 35.89433,36.2917c-0.10972,19.93359 -16.35813,36.00405 -36.29166,35.89433c-19.93359,-0.10972 -36.00405,-16.35813 -35.89433,-36.29166c0.10972,-19.93359 16.35812,-36.00408 36.29166,-35.89435z" fill="#878787" stroke-width="1" stroke-linecap="butt"/><path d="M217.26631,378.73272l55.70349,-0.06977" fill="none" stroke-width="1.5" stroke-linecap="round"/><path d="M212.69824,388.11703l65.10835,0.73474" fill="none" stroke-width="1.5" stroke-linecap="round"/><path d="M209.26744,396.00165l69.61848,1.88872" fill="none" stroke-width="1.5" stroke-linecap="round"/><path d="M209.37975,404.09442l70.75169,1.14219" fill="none" stroke-width="1.5" stroke-linecap="round"/><path d="M229.38868,369.74047l32.42271,0.58381" fill="none" stroke-width="1.5" stroke-linecap="round"/><path d="M216.58504,422.73856l55.6993,0.68297" data-paper-data="{&quot;index&quot;:null}" fill="none" stroke-width="1.5" stroke-linecap="round"/><path d="M277.23297,413.28659l-65.11249,0.01795" data-paper-data="{&quot;index&quot;:null}" fill="none" stroke-width="1.5" stroke-linecap="round"/><path d="M261.03479,431.63693l-32.42718,0.22682" data-paper-data="{&quot;index&quot;:null}" fill="none" stroke-width="1.5" stroke-linecap="round"/></g></g><g stroke="#000000" stroke-width="2" stroke-linecap="butt"><path d="M246.37141,272.09992c0.52044,-0.062 -0.23156,35.51997 0.90032,90.03697c-2.54466,-0.83579 -40.00695,1.69363 -40.1116,37.86378c1.42296,36.75941 35.71933,39.38051 39.06986,37.86478c1.06643,50.50562 -1.55507,96.69588 -2.7152,130.11606c-0.15782,4.54593 -32.11778,1.83579 -64.09711,-8.4098c-23.00238,-7.36953 -39.2496,-20.71975 -42.36308,-28.1344c-10.78605,-25.68623 -16.88861,-55.58292 -16.71312,-87.4645c0.52459,-95.30303 79.49343,-173.45652 126.02998,-171.87289z" fill="#ff0000"/><path d="M132.27124,523.89765c0,0 -26.25012,-72.49367 -6.13801,-133.192c23.37592,-70.54844 94.4405,-113.97491 94.4405,-113.97491c0,0 -37.21042,59.20709 -37.40546,94.63992c-0.24862,45.16815 -0.84833,154.11979 -0.84833,154.11979z" fill="#000000"/></g><g data-paper-data="{&quot;index&quot;:null}" stroke="#000000" stroke-width="2" stroke-linecap="butt"><path d="M370.15116,445.34789c-0.17548,31.88159 -6.60681,61.70929 -17.67493,87.27521c-3.19495,7.37995 -19.58818,20.55051 -42.67025,27.66633c-32.09014,9.89295 -64.07805,12.25104 -64.18581,7.70366c-0.7921,-33.43097 -2.90505,-79.64734 -1.28265,-130.13807c3.33361,1.55255 37.65672,-0.69086 39.48427,-37.43237c0.29348,-36.16908 -37.13857,-39.1108 -39.69232,-38.30304c1.73192,-54.50125 1.37166,-90.08934 1.89143,-90.02162c46.55117,-1.07124 124.65485,77.94683 124.13027,173.2499z" fill="#ff0000"/><path d="M307.27895,526.17825c0,0 0.59971,-108.95161 0.84833,-154.11979c0.19504,-35.43283 -36.36135,-95.04595 -36.36135,-95.04595c0,0 70.58224,44.20618 93.18015,115.00763c19.44267,60.91606 -7.60389,133.11637 -7.60389,133.11637z" fill="#000000"/></g><g fill="#8b0000" stroke="#000000" stroke-width="2" stroke-linecap="butt"><path d="M244.14568,331.4227c-0.05473,9.9426 -10.51815,17.94522 -23.37071,17.87448c-12.85257,-0.07074 -23.33121,10.69263 -23.17258,-18.13066c0.16349,-29.70152 10.51818,-17.94523 23.37074,-17.87448c12.85257,0.07074 23.22726,8.18814 23.17252,18.13068z"/><path d="M270.58523,314.44329c12.85257,0.07074 23.33601,-11.57081 23.17252,18.13068c-0.15866,28.82332 -10.51815,17.94522 -23.37071,17.87448c-12.85257,-0.07074 -23.22729,-8.18815 -23.17258,-18.13066c0.05473,-9.9426 10.51818,-17.94523 23.37074,-17.87448z" data-paper-data="{&quot;index&quot;:null}"/><path d="M263.02652,331.52662c-0.05607,10.18505 -8.16155,18.3973 -18.10408,18.34258c-9.9426,-0.05473 -17.95717,-8.35572 -17.9011,-18.54077c0.05607,-10.18505 8.16161,-18.39731 18.10412,-18.3426c9.9426,0.05473 17.95712,8.35573 17.90106,18.54077z"/></g><path d="M241.37735,135.07666c62.9299,0.13878 113.85111,42.71449 113.73555,95.09548c-0.11554,52.38097 -51.22397,94.73167 -114.15391,94.59288c-62.92994,-0.13877 -113.85111,-42.71449 -113.73555,-95.09548c0.11554,-52.38097 51.22397,-94.73167 114.15391,-94.59288z" fill="#696969" stroke="#000000" stroke-width="2" stroke-linecap="butt"/><path d="M242.32273,149.8822c54.56352,0.12032 98.71754,35.8005 98.62074,79.69377c-0.0968,43.89332 -44.40777,79.37832 -98.97132,79.25799c-54.56352,-0.12032 -98.71751,-35.80049 -98.6207,-79.69377c0.0968,-43.89332 44.40771,-79.37834 98.97129,-79.258z" fill="none" stroke="url(#color-61)" stroke-width="4.5" stroke-linecap="butt"/><g stroke="none" stroke-width="0" stroke-linecap="butt"><path d="M206.73726,240.63629l0.18011,-81.67139l77.71951,0.17138l-0.18011,81.67139z" fill="url(#color-62)"/><path d="M272.06319,186.11305l0.0523,-23.71101l9.22091,0.02033l-0.0523,23.71101z" fill="#ffffff"/><path d="M272.00362,213.11729l0.0523,-23.71101l9.22091,0.02033l-0.0523,23.71101z" fill="#ffffff"/><path d="M271.94556,239.46286l0.0523,-23.71101l9.22091,0.02033l-0.0523,23.71101z" fill="#ffffff"/><path d="M210.8111,185.31929l0.0523,-23.71101l9.22097,0.02033l-0.0523,23.71101z" fill="#ffffff"/><path d="M210.75153,212.32354l0.0523,-23.71101l9.22097,0.02033l-0.0523,23.71101z" fill="#ffffff"/><path d="M210.69344,238.66915l0.0523,-23.71101l9.22097,0.02033l-0.0523,23.71101z" fill="#ffffff"/><path d="M247.79569,239.27789l0.01746,-7.90372l17.78328,0.03922l-0.01746,7.90372z" fill="#ffffff"/><path d="M227.29031,239.10089l0.01746,-7.90372l17.78331,0.0392l-0.01746,7.90372z" fill="#ffffff"/></g><path d="M162.29196,155.02417c45.9137,-25.2134 107.68984,-0.93672 137.98093,54.22347c15.82846,28.82371 -55.12905,-67.5873 -133.83493,-26.05777c-67.05939,33.96297 -9.46469,106.10983 -15.11461,102.16948c-0.52516,9.66319 -14.20121,17.22198 -18.10399,10.11498c-30.29111,-55.16019 -16.84109,-115.2367 29.0726,-140.45009z" fill="#ff0000" stroke="#000000" stroke-width="2" stroke-linecap="butt"/><path d="M325.94949,151.22955c47.18103,22.75373 63.78468,82.03622 36.44864,138.71895c-3.52204,7.30317 -17.57814,0.4771 -18.61283,-9.14486c4.93469,-5.99154 37.71422,-73.77035 -20.48867,-101.22885c-80.78903,-37.3155 -146.55655,62.70808 -132.2722,33.08876c27.33604,-56.68277 87.74405,-84.18769 134.92512,-61.43399z" data-paper-data="{&quot;index&quot;:null}" fill="#ff0000" stroke="#000000" stroke-width="2" stroke-linecap="butt"/><path d="M245.14097,21.32804c84.75534,0.18693 153.35474,49.48567 153.22102,110.11177c-0.13371,60.62612 -25.88146,110.37071 -153.70522,109.43489c-135.02082,-0.98848 -153.3547,-49.48565 -153.22099,-110.11183c0.13371,-60.62612 68.94986,-109.62178 153.70521,-109.43486z" fill="#696969" stroke="#000000" stroke-width="2" stroke-linecap="butt"/><path d="M198.06309,119.11149l0.09731,-44.12889l94.18549,0.20772l-0.09731,44.12889z" fill="url(#color-63)" stroke="#000000" stroke-width="0" stroke-linecap="butt"/><path d="M210.42546,187.96017l0.1874,-84.96457l68.49858,0.15108l-0.1874,84.96457z" fill="url(#color-64)" stroke="none" stroke-width="0" stroke-linecap="butt"/><path d="M207.6787,186.39367l-25.4038,-103.63167l15.99258,-3.92033l25.4038,103.63167z" fill="url(#color-65)" stroke="none" stroke-width="0" stroke-linecap="butt"/><path d="M265.03661,185.85783l25.86066,-103.51861l15.97512,3.99084l-25.86068,103.51862z" data-paper-data="{&quot;index&quot;:null}" fill="url(#color-66)" stroke="none" stroke-width="0" stroke-linecap="butt"/><path d="M191.31473,192.52851l0.05374,-24.36965l107.35829,0.23678l-0.05374,24.36965z" fill="url(#color-67)" stroke="none" stroke-width="0" stroke-linecap="butt"/><path d="M175.11249,198.8836c-3.12285,1.04538 -4.16827,-2.07755 -4.16827,-2.07755l-0.3263,-1.12364c-1.68113,-3.13292 -3.23681,-7.5011 -5.73934,-10.13697c-0.9663,-1.01774 -4.71527,-2.68952 -5.49329,-3.29991c-10.69483,-8.39091 -28.13047,-23.49274 -17.70924,-37.99247c4.27416,-1.38099 17.63623,-2.84272 18.86409,-8.99825c1.7431,-8.73854 -4.41361,-15.83997 -0.32912,-25.00289c4.73066,-10.61262 17.40867,-16.22227 27.07753,-21.65683c0,0 2.87096,-1.61337 4.48431,1.25755c1.61337,2.87096 -1.25756,4.48428 -1.25756,4.48428c-8.14779,4.57787 -20.27655,9.57044 -24.26544,18.5444c-4.95735,11.15265 7.31065,23.42541 -5.72894,31.96287c-1.37939,0.90312 -2.98481,1.41721 -4.54302,1.95593c-2.30301,0.79628 -7.83534,2.14921 -10.4789,2.81625c-2.43947,3.58308 0.90483,9.27909 2.82553,12.55281c5.05959,8.62363 14.65337,11.8997 21.20848,18.71607c3.05235,3.17405 4.83609,7.85909 6.88833,11.68252l0.76865,2.14755c0,0 1.04535,3.12288 -2.07755,4.16827z" fill="#000000" stroke="none" stroke-width="0.5" stroke-linecap="butt"/><path d="M150.71207,209.37815c-3.29166,-0.10143 -3.19021,-3.39304 -3.19021,-3.39304l0.08318,-1.16714c-0.49149,-3.52132 -0.43722,-8.15799 -1.87149,-11.49757c-0.5538,-1.28951 -3.49129,-4.15671 -4.00962,-4.99892c-7.12502,-11.5767 -18.24802,-31.78431 -3.4483,-41.77505c4.48793,0.18548 17.52871,3.44418 20.81332,-1.90468c4.66291,-7.59329 1.34819,-16.38802 8.35443,-23.56813c8.11477,-8.31611 21.95108,-9.18556 32.90406,-10.93326c0,0 3.25212,-0.51874 3.77077,2.73339c0.51871,3.25211 -2.73344,3.77072 -2.73344,3.77072c-9.22923,1.47118 -22.33653,1.95204 -29.18775,8.98797c-8.51448,8.74415 -1.25883,24.50734 -16.44876,27.99794c-1.6069,0.36922 -3.29092,0.29524 -4.93925,0.26068c-2.43622,-0.05107 -8.09466,-0.69881 -10.80553,-0.98898c-3.52977,2.5159 -2.36641,9.01775 -1.69893,12.75423c1.75818,9.84253 9.62258,16.23976 13.40985,24.90517c1.76352,4.03499 1.81341,9.04781 2.41382,13.34551l-0.02303,2.28085c0,0 -0.10142,3.29159 -3.39312,3.19015z" fill="#000000" stroke="none" stroke-width="0.5" stroke-linecap="butt"/><path d="M307.22142,192.3676l0.77818,-2.14416c2.06916,-3.81435 3.87352,-8.49148 6.93981,-11.652c6.5851,-6.78737 16.19324,-10.02107 21.29079,-18.62231c1.93515,-3.26517 5.30445,-8.94647 2.88087,-12.54026c-2.64053,-0.67868 -8.16687,-2.05604 -10.46636,-2.86246c-1.55582,-0.54559 -3.15893,-1.06675 -4.53431,-1.97597c-13.00178,-8.59489 -0.67979,-20.81344 -5.5879,-31.98779c-3.94927,-8.99145 -16.05592,-14.03756 -24.18341,-18.65129c0,0 -2.86382,-1.62599 -1.2378,-4.48979c1.62603,-2.8638 4.48981,-1.23778 4.48981,-1.23778c9.64479,5.4771 22.29792,11.14265 26.98176,21.77605c4.044,9.18079 -2.14394,16.25507 -0.43941,25.00121c1.2007,6.16091 14.55615,7.68153 18.82419,9.08137c10.35722,14.54554 -7.14482,29.57043 -17.87662,37.91398c-0.7807,0.60702 -4.53705,2.26221 -5.5078,3.27567c-2.51413,2.62481 -4.08906,6.98607 -5.78395,10.11154l-0.33129,1.12218c0,0 -1.05914,3.11828 -4.17735,2.05914c-3.11824,-1.05914 -2.05913,-4.1774 -2.05913,-4.1774z" data-paper-data="{&quot;index&quot;:null}" fill="#000000" stroke="none" stroke-width="0.5" stroke-linecap="butt"/><path d="M330.25552,203.94188l-0.01297,-2.28093c0.61938,-4.29498 0.69139,-9.30761 2.47269,-13.33473c3.82542,-8.64857 11.71797,-15.01106 13.51954,-24.84574c0.68393,-3.73348 1.87605,-10.23024 -1.64265,-12.76163c-2.71214,0.27831 -8.37334,0.90103 -10.80979,0.94138c-1.64849,0.02728 -3.33285,0.09384 -4.93806,-0.28241c-15.17439,-3.55754 -7.84925,-19.28865 -16.32511,-28.07021c-6.82005,-7.06617 -19.92515,-7.60476 -29.14776,-9.11664c0,0 -3.2498,-0.53296 -2.71678,-3.78276c0.53303,-3.2498 3.78285,-2.71677 3.78285,-2.71677c10.94511,1.79599 24.77743,2.72647 32.85549,11.07832c6.9745,7.21094 3.62101,15.99098 8.25041,23.60476c3.26096,5.36323 16.31604,2.16213 20.80474,1.99644c14.75547,10.0559 3.54351,30.21425 -3.63255,41.75943c-0.52201,0.83988 -3.47215,3.69414 -4.03168,4.98122c-1.44899,3.33323 -1.41515,7.97008 -1.92217,11.48921l0.07804,1.16745c0,0 0.08697,3.29201 -3.20512,3.37898c-3.29207,0.0869 -3.37898,-3.20512 -3.37898,-3.20512z" data-paper-data="{&quot;index&quot;:null}" fill="#000000" stroke="none" stroke-width="0.5" stroke-linecap="butt"/><path d="M326.49245,85.5966c-0.04107,18.62434 -15.64421,33.68803 -34.85059,33.64567c-19.20639,-0.04235 -34.74284,-15.1747 -34.7018,-33.79906c0.04107,-18.62434 15.64419,-33.68806 34.85053,-33.6457c19.20636,0.04237 34.74291,15.17475 34.70183,33.79909z" data-paper-data="{&quot;index&quot;:null}" fill="#ffffff" stroke="#000000" stroke-width="2" stroke-linecap="butt"/><path d="M308.57996,84.44148c-0.02173,9.86014 -7.70635,17.83648 -17.16403,17.8156c-9.45766,-0.02086 -17.107,-8.03099 -17.08523,-17.89115c0.02173,-9.86014 7.70635,-17.83648 17.16399,-17.8156c9.45766,0.02086 17.10703,8.03099 17.0853,17.89111z" data-paper-data="{&quot;index&quot;:null}" fill="#000000" stroke="none" stroke-width="0" stroke-linecap="butt"/><path d="M200.38633,50.71757c19.20639,0.04235 34.74291,15.17475 34.70182,33.79906c-0.04107,18.62434 -15.64421,33.68803 -34.85059,33.64567c-19.20639,-0.04235 -34.7429,-15.17474 -34.70182,-33.79906c0.04107,-18.62434 15.64416,-33.68799 34.85059,-33.64567z" fill="#ffffff" stroke="#000000" stroke-width="2" stroke-linecap="butt"/><path d="M200.61721,65.47187c9.45766,0.02086 17.107,8.03097 17.08526,17.89111c-0.02173,9.86014 -7.70632,17.83641 -17.16399,17.81557c-9.45766,-0.02086 -17.10703,-8.03099 -17.08528,-17.89109c0.02173,-9.86014 7.70637,-17.83641 17.16403,-17.81557z" fill="#000000" stroke="none" stroke-width="0" stroke-linecap="butt"/><path d="M129.35598,213.50235l0.05238,-23.74496l228.54808,0.50405l-0.05238,23.74496c0,0 -38.84028,26.80596 -112.10015,26.06484c-80.65096,-0.81596 -116.44792,-26.56886 -116.44792,-26.56886z" fill="url(#color-68)" stroke="none" stroke-width="0" stroke-linecap="butt"/><path d="M159.95218,85.37684c0.3704,-26.40737 20.66887,-37.66924 37.98348,-38.66208c32.24902,-1.84915 39.88961,25.04729 40.77942,32.52647c3.53483,29.71182 -25.34228,45.61264 -35.15749,44.98546c-27.43062,-1.75268 -43.80937,-24.30968 -43.6054,-38.84984z" data-paper-data="{&quot;noHover&quot;:false,&quot;origItem&quot;:[&quot;Path&quot;,{&quot;applyMatrix&quot;:true,&quot;segments&quot;:[[[441.7977,155.16587],[0,0],[-0.08774,7.42206]],[[463.98858,174.84783],[-14.00356,-0.86376],[5.01076,0.30908]],[[481.79554,151.96123],[1.83776,15.16202],[-0.4626,-3.81664]],[[461.04656,135.48855],[16.459,-0.98018],[-8.8369,0.52626]],[[441.7977,155.16585],[0.15934,-13.47972],[0,0]]],&quot;closed&quot;:true,&quot;fillColor&quot;:[0,0,0,1]}]}" fill="#000000" stroke="none" stroke-width="0.5" stroke-linecap="butt"/><path d="M294.91626,45.84772c17.31011,1.06914 37.55868,12.42042 37.81261,38.82919c0.13982,14.54082 -16.33827,37.02539 -43.77635,38.65707c-9.81789,0.58384 -38.62455,-15.44419 -34.95872,-45.14011c0.92282,-7.47518 8.68194,-34.33761 40.92249,-32.34625z" data-paper-data="{&quot;noHover&quot;:false,&quot;origItem&quot;:[&quot;Path&quot;,{&quot;applyMatrix&quot;:true,&quot;segments&quot;:[[[510.53964,134.93675],[0,0],[-16.459,-0.98018]],[[489.79066,151.40941],[0.46262,-3.81664],[-1.83774,15.16202]],[[507.59762,174.29601],[-5.01076,0.30908],[14.00356,-0.86376]],[[529.7885,154.61407],[0.08774,7.422],[-0.15936,-13.47972]],[[510.53962,134.93679],[8.83692,0.52626],[0,0]]],&quot;closed&quot;:true,&quot;fillColor&quot;:[0,0,0,1]}]}" fill="#000000" stroke="none" stroke-width="0.5" stroke-linecap="butt"/><path d="M320.28431,191.74256c1.03481,0.80744 2.39887,0.70673 2.39887,0.70673c18.0792,-1.41045 76.83025,-0.47745 88.28902,-0.84006c19.96663,-1.30939 41.55264,-0.06731 60.8782,-6.69792c-4.81434,52.78008 -32.50275,98.28191 -149.54882,89.31239c-1.25381,-0.09606 -1.90356,-38.11304 -2.01723,-82.48115z" data-paper-data="{&quot;index&quot;:null}" fill="#ff0000" stroke="#000000" stroke-width="2" stroke-linecap="butt"/><path d="M211.96818,86.63578c-0.01492,6.76236 -5.28971,12.23275 -11.78159,12.21843c-6.49185,-0.01433 -11.74248,-5.50791 -11.72758,-12.27029c0.01492,-6.76236 5.28971,-12.23275 11.78159,-12.21843c6.49185,0.01433 11.74248,5.50791 11.72758,12.27029z" fill="#000000" stroke="#ff0000" stroke-width="1.5" stroke-linecap="butt"/><path d="M305.02743,85.86147c-0.01492,6.76236 -5.28971,12.23275 -11.78159,12.21843c-6.49185,-0.01433 -11.74248,-5.50791 -11.72758,-12.27029c0.01492,-6.76236 5.28971,-12.23275 11.78159,-12.21843c6.49185,0.01433 11.74248,5.50791 11.72758,12.27029z" fill="#000000" stroke="#ff0000" stroke-width="1.5" stroke-linecap="butt"/><path d="M467.66297,90.31455c-0.00957,4.32847 -0.11289,8.64812 -0.34456,12.93462c-19.28648,7.61416 -41.54129,6.00323 -61.71559,7.31432c-11.21631,0.35496 -70.01448,-0.4183 -88.45512,0.85019c0,0 -1.05473,0.07789 -1.92465,0.74307c-0.09933,-61.18089 0.79576,-131.95055 2.51213,-131.94676c82.93655,0.18291 150.06154,49.47839 149.9278,110.10456zM364.14158,4.49002c-32.24052,-1.99139 -39.79762,24.70672 -40.72042,32.18187c-3.66583,29.69593 24.96876,45.49787 34.78666,44.914c27.43807,-1.63167 43.69895,-23.92215 43.55912,-38.46296c-0.25396,-26.40876 -20.31529,-37.56369 -37.62539,-38.63286z" data-paper-data="{&quot;index&quot;:null}" fill="#ff0000" stroke="#000000" stroke-width="2" stroke-linecap="butt"/><path d="M165.327,-20.72134c1.71642,0.00379 2.29937,70.77669 1.93007,131.95654c-0.86696,-0.66903 -1.92137,-0.75154 -1.92137,-0.75154c-18.43488,-1.34989 -77.23595,-0.83598 -88.4506,-1.24038c-20.16835,-1.40009 -42.43006,0.11267 -61.68273,-7.58648c-0.21275,-4.28751 -0.29707,-8.60757 -0.28751,-12.93602c0.13371,-60.62612 67.47547,-109.62504 150.41204,-109.44212zM83.62631,43.78533c-0.20396,14.54015 15.95844,36.90204 43.38901,38.65474c9.81523,0.62716 38.51929,-15.04832 34.98443,-44.76014c-0.88978,-7.47918 -8.32907,-34.21038 -40.57807,-32.36123c-17.31463,0.99282 -37.42498,12.05918 -37.79539,38.46656z" fill="#ff0000" stroke="#000000" stroke-width="2" stroke-linecap="butt"/><g stroke="#000000" stroke-width="2" stroke-linecap="butt"><path d="M173.44911,286.74829c-117.08453,8.45311 -144.57187,-37.17039 -149.15335,-89.97118c19.29617,6.71577 40.88747,5.5689 60.84807,6.96635c11.45701,0.41318 70.21161,-0.26067 88.28443,1.22952c0,0 1.36363,0.10669 2.40199,-0.69618c-0.30939,44.3672 -1.12684,82.38095 -2.38102,82.47151z" fill="#ff0000"/><path d="M176.64316,161.15606c24.73545,0.05457 44.74327,20.15085 44.68871,44.88632c-0.05457,24.73545 -20.15081,44.7433 -44.88629,44.68873c-24.73545,-0.05457 -44.74335,-20.15083 -44.68881,-44.88628c0.05457,-24.73545 20.15087,-44.74331 44.88635,-44.68877z" fill="#ff7b00"/></g></g></g></svg>