<svg version="1.1" xmlns="http://www.w3.org/2000/svg" xmlns:xlink="http://www.w3.org/1999/xlink" width="715.44117" height="510.76234" viewBox="0,0,715.44117,510.76234"><defs><linearGradient x1="244.44121" y1="187.17537" x2="433.5332" y2="195.51746" gradientUnits="userSpaceOnUse" id="color-1"><stop offset="0" stop-color="#6c6c6c"/><stop offset="1" stop-color="#c4c4c4"/></linearGradient><linearGradient x1="306.36888" y1="161.64128" x2="380.7451" y2="164.9225" gradientUnits="userSpaceOnUse" id="color-2"><stop offset="0" stop-color="#6e6e6e"/><stop offset="1" stop-color="#c0c0c0"/></linearGradient><linearGradient x1="346.65049" y1="70.5897" x2="343.06339" y2="151.89931" gradientUnits="userSpaceOnUse" id="color-3"><stop offset="0" stop-color="#a6a6a6"/><stop offset="1" stop-color="#707070"/></linearGradient><linearGradient x1="294.89035" y1="56.28846" x2="315.44548" y2="147.46091" gradientUnits="userSpaceOnUse" id="color-4"><stop offset="0" stop-color="#a6a6a6"/><stop offset="1" stop-color="#707070"/></linearGradient><linearGradient x1="398.78065" y1="62.18557" x2="370.19703" y2="152.9995" gradientUnits="userSpaceOnUse" id="color-5"><stop offset="0" stop-color="#a6a6a6"/><stop offset="1" stop-color="#707070"/></linearGradient><linearGradient x1="344.21272" y1="133.00388" x2="343.18386" y2="156.32535" gradientUnits="userSpaceOnUse" id="color-6"><stop offset="0" stop-color="#a6a6a6"/><stop offset="1" stop-color="#707070"/></linearGradient><linearGradient x1="342.0345" y1="153.74839" x2="341.03201" y2="176.47202" gradientUnits="userSpaceOnUse" id="color-7"><stop offset="0" stop-color="#707070"/><stop offset="1" stop-color="#a6a6a6"/></linearGradient><linearGradient x1="347.52679" y1="57.88314" x2="345.66373" y2="100.1136" gradientUnits="userSpaceOnUse" id="color-8"><stop offset="0" stop-color="#a6a6a6"/><stop offset="1" stop-color="#707070"/></linearGradient><linearGradient x1="74.80973" y1="48.33229" x2="86.6674" y2="51.43642" gradientUnits="userSpaceOnUse" id="color-9"><stop offset="0" stop-color="#5c5c5c"/><stop offset="1" stop-color="#9b9b9b"/></linearGradient><linearGradient x1="66.40636" y1="26.31484" x2="74.32342" y2="23.01897" gradientUnits="userSpaceOnUse" id="color-10"><stop offset="0" stop-color="#5c5c5c"/><stop offset="1" stop-color="#9b9b9b"/></linearGradient><linearGradient x1="99.98376" y1="99.11841" x2="111.71853" y2="102.65939" gradientUnits="userSpaceOnUse" id="color-11"><stop offset="0" stop-color="#5c5c5c"/><stop offset="1" stop-color="#9b9b9b"/></linearGradient><linearGradient x1="89.94495" y1="77.39104" x2="97.67844" y2="73.68487" gradientUnits="userSpaceOnUse" id="color-12"><stop offset="0" stop-color="#5c5c5c"/><stop offset="1" stop-color="#9b9b9b"/></linearGradient><linearGradient x1="113.13267" y1="128.82257" x2="121.02312" y2="125.46344" gradientUnits="userSpaceOnUse" id="color-13"><stop offset="0" stop-color="#5c5c5c"/><stop offset="1" stop-color="#9b9b9b"/></linearGradient><linearGradient x1="186.49407" y1="183.24998" x2="191.1902" y2="196.90881" gradientUnits="userSpaceOnUse" id="color-14"><stop offset="0" stop-color="#5c5c5c"/><stop offset="1" stop-color="#9b9b9b"/></linearGradient><linearGradient x1="155.25184" y1="155.92322" x2="166.31102" y2="165.21349" gradientUnits="userSpaceOnUse" id="color-15"><stop offset="0" stop-color="#5c5c5c"/><stop offset="1" stop-color="#9b9b9b"/></linearGradient><linearGradient x1="118.15384" y1="161.19843" x2="129.21293" y2="170.48875" gradientUnits="userSpaceOnUse" id="color-16"><stop offset="0" stop-color="#5c5c5c"/><stop offset="1" stop-color="#9b9b9b"/></linearGradient><linearGradient x1="87.47472" y1="182.25867" x2="98.53392" y2="191.549" gradientUnits="userSpaceOnUse" id="color-17"><stop offset="0" stop-color="#5c5c5c"/><stop offset="1" stop-color="#9b9b9b"/></linearGradient><linearGradient x1="136.82627" y1="29.05522" x2="147.46298" y2="35.1464" gradientUnits="userSpaceOnUse" id="color-18"><stop offset="0" stop-color="#5c5c5c"/><stop offset="1" stop-color="#9b9b9b"/></linearGradient><linearGradient x1="134.46034" y1="5.60769" x2="142.96308" y2="4.49221" gradientUnits="userSpaceOnUse" id="color-19"><stop offset="0" stop-color="#5c5c5c"/><stop offset="1" stop-color="#9b9b9b"/></linearGradient><linearGradient x1="148.40618" y1="85.29038" x2="158.81011" y2="91.77113" gradientUnits="userSpaceOnUse" id="color-20"><stop offset="0" stop-color="#5c5c5c"/><stop offset="1" stop-color="#9b9b9b"/></linearGradient><linearGradient x1="143.85331" y1="61.05692" x2="152.28599" y2="59.49746" gradientUnits="userSpaceOnUse" id="color-21"><stop offset="0" stop-color="#5c5c5c"/><stop offset="1" stop-color="#9b9b9b"/></linearGradient><linearGradient x1="152.81483" y1="116.75751" x2="161.30847" y2="115.57409" gradientUnits="userSpaceOnUse" id="color-22"><stop offset="0" stop-color="#5c5c5c"/><stop offset="1" stop-color="#9b9b9b"/></linearGradient><linearGradient x1="240.63499" y1="157.28006" x2="242.38114" y2="171.61777" gradientUnits="userSpaceOnUse" id="color-23"><stop offset="0" stop-color="#5c5c5c"/><stop offset="1" stop-color="#9b9b9b"/></linearGradient><linearGradient x1="256.96128" y1="135.09971" x2="264.779" y2="141.50289" gradientUnits="userSpaceOnUse" id="color-24"><stop offset="0" stop-color="#5c5c5c"/><stop offset="1" stop-color="#9b9b9b"/></linearGradient><linearGradient x1="216.50159" y1="186.42638" x2="223.8675" y2="193.34471" gradientUnits="userSpaceOnUse" id="color-25"><stop offset="0" stop-color="#5c5c5c"/><stop offset="1" stop-color="#9b9b9b"/></linearGradient><linearGradient x1="23.95895" y1="83.05063" x2="36.19287" y2="83.80636" gradientUnits="userSpaceOnUse" id="color-26"><stop offset="0" stop-color="#5c5c5c"/><stop offset="1" stop-color="#9b9b9b"/></linearGradient><linearGradient x1="11.46184" y1="63.07051" x2="18.59331" y2="58.30775" gradientUnits="userSpaceOnUse" id="color-27"><stop offset="0" stop-color="#5c5c5c"/><stop offset="1" stop-color="#9b9b9b"/></linearGradient><linearGradient x1="57.43351" y1="129.24172" x2="69.63117" y2="130.44981" gradientUnits="userSpaceOnUse" id="color-28"><stop offset="0" stop-color="#5c5c5c"/><stop offset="1" stop-color="#9b9b9b"/></linearGradient><linearGradient x1="44.42106" y1="108.63951" x2="51.29321" y2="103.5095" gradientUnits="userSpaceOnUse" id="color-29"><stop offset="0" stop-color="#5c5c5c"/><stop offset="1" stop-color="#9b9b9b"/></linearGradient><linearGradient x1="77.10461" y1="154.62485" x2="84.19782" y2="149.80518" gradientUnits="userSpaceOnUse" id="color-30"><stop offset="0" stop-color="#5c5c5c"/><stop offset="1" stop-color="#9b9b9b"/></linearGradient><radialGradient cx="241.78855" cy="267.92814" r="104.71462" gradientUnits="userSpaceOnUse" id="color-31"><stop offset="0" stop-color="#a94f05"/><stop offset="1" stop-color="#ff7b00"/></radialGradient><linearGradient x1="243.75375" y1="34.35436" x2="243.75375" y2="62.88289" gradientUnits="userSpaceOnUse" id="color-32"><stop offset="0" stop-color="#848484"/><stop offset="1" stop-color="#545454"/></linearGradient><linearGradient x1="241.24624" y1="225.54055" x2="241.24624" y2="254.06908" gradientUnits="userSpaceOnUse" id="color-33"><stop offset="0" stop-color="#848484"/><stop offset="1" stop-color="#545454"/></linearGradient><linearGradient x1="57.56757" y1="176.24626" x2="84.5946" y2="176.24626" gradientUnits="userSpaceOnUse" id="color-34"><stop offset="0" stop-color="#848484"/><stop offset="1" stop-color="#545454"/></linearGradient><linearGradient x1="397.4024" y1="181.24626" x2="424.42943" y2="181.24626" gradientUnits="userSpaceOnUse" id="color-35"><stop offset="0" stop-color="#848484"/><stop offset="1" stop-color="#545454"/></linearGradient></defs><g transform="translate(117.72058,30.18223)"><g data-paper-data="{&quot;isPaintingLayer&quot;:true}" fill-rule="nonzero" stroke-linecap="butt" stroke-linejoin="miter" stroke-miterlimit="10" stroke-dasharray="" stroke-dashoffset="0" style="mix-blend-mode: normal"><path d="M-17.50751,368.43845v-376.87688h515.01502v376.87688z" fill="#060606" stroke="none" stroke-width="NaN"/><g><path d="M342.03166,101.08131c60.22282,2.65682 107.25038,45.44713 105.03892,95.57482c-2.21146,50.12769 -52.82447,88.61044 -113.04733,85.95361c-60.22285,-2.65682 -107.25039,-45.44713 -105.03893,-95.57482c2.21146,-50.12769 52.82448,-88.61044 113.04733,-85.95361z" fill="#696969" stroke="#000000" stroke-width="2"/><path d="M342.34262,115.2892c52.21636,2.3036 93.04382,38.22297 91.1907,80.22808c-1.85312,42.00514 -45.68509,74.18959 -97.90144,71.88599c-52.21636,-2.3036 -93.04378,-38.22297 -91.19066,-80.22808c1.85312,-42.00514 45.68505,-74.18959 97.9014,-71.88599z" fill="none" stroke="url(#color-1)" stroke-width="4.5"/><g stroke="none" stroke-width="0"><path d="M304.64485,200.72028l3.44806,-78.15807l74.37622,3.28122l-3.44806,78.15807z" fill="url(#color-2)"/><path d="M369.35322,151.15748l1.00105,-22.69103l8.82426,0.3893l-1.00105,22.69103z" fill="#ffffff"/><path d="M368.21313,177.00028l1.00105,-22.69103l8.82426,0.3893l-1.00105,22.69103z" fill="#ffffff"/><path d="M367.10085,202.21257l1.00105,-22.69103l8.82426,0.3893l-1.00105,22.69103z" fill="#ffffff"/><path d="M310.76246,147.94108l1.00105,-22.69103l8.8243,0.3893l-1.00105,22.69103z" fill="#ffffff"/><path d="M309.62236,173.78395l1.00105,-22.69103l8.8243,0.3893l-1.00105,22.69103z" fill="#ffffff"/><path d="M308.51008,198.99621l1.00105,-22.69103l8.8243,0.3893l-1.00105,22.69103z" fill="#ffffff"/><path d="M343.99515,201.06692l0.33368,-7.5637l17.01828,0.75079l-0.33368,7.5637z" fill="#ffffff"/><path d="M324.37715,200.07514l0.33368,-7.5637l17.01831,0.75079l-0.33368,7.5637z" fill="#ffffff"/></g><path d="M230.1893,188.35139c2.21146,-50.12769 52.82447,-88.6104 113.04732,-85.95357c31.46917,1.38831 -82.75491,11.48878 -87.93042,96.57658c-5.57294,71.78963 82.14099,60.55175 76.10416,63.21531c7.64798,5.23867 7.02907,20.19412 -0.73021,19.85181c-60.22285,-2.65682 -102.70224,-43.56236 -100.49078,-93.69005z" fill="#0096ff" stroke="#000000" stroke-width="2"/><path d="M450.67006,197.23619c-2.21146,50.12769 -48.12806,87.13354 -108.35088,84.47672c-7.75928,-0.34231 -7.05879,-15.29412 1.02081,-19.83894c7.13815,2.08124 79.18488,5.33937 81.37538,-56.2679c2.3376,-85.21297 -110.55337,-105.33297 -79.0842,-103.94465c60.22285,2.65682 107.25035,45.44713 105.03889,95.57482z" data-paper-data="{&quot;index&quot;:null}" fill="#0096ff" stroke="#000000" stroke-width="2"/><path d="M348.11437,28.90529c73.60248,3.24709 131.55519,44.72859 129.44099,92.65153c-2.11419,47.92294 -26.11515,86.30686 -137.09717,80.89283c-117.23079,-5.71886 -131.55515,-44.72859 -129.44095,-92.65156c2.11419,-47.92294 63.49465,-84.13988 137.09713,-80.8928z" fill="#696969" stroke="#000000" stroke-width="2"/><path d="M310.28743,150.45335l3.5871,-81.30961l65.55192,2.89192l-3.5871,81.30961z" fill="url(#color-3)" stroke="none" stroke-width="0"/><path d="M307.72144,148.84387l-20.55512,-91.17245l15.44804,-2.76574l20.55512,91.17249z" fill="url(#color-4)" stroke="none" stroke-width="0"/><path d="M362.62634,150.9073l28.58374,-90.814l15.14143,4.18437l-28.58378,90.81403z" data-paper-data="{&quot;index&quot;:null}" fill="url(#color-5)" stroke="none" stroke-width="0"/><path d="M291.81388,154.05908l1.02886,-23.32135l102.74001,4.53253l-1.02886,23.32135z" fill="url(#color-6)" stroke="none" stroke-width="0"/><path d="M276.0523,159.49159c-3.03072,0.87526 -3.90601,-2.15553 -3.90601,-2.15553l-0.26723,-1.08849c-1.48331,-3.06584 -2.79702,-7.30892 -5.08638,-9.93199c-0.884,-1.0128 -4.40499,-2.76317 -5.12513,-3.37859c-9.89917,-8.45962 -25.98062,-23.61249 -15.4252,-37.07177c4.14608,-1.15027 16.99314,-2.01333 18.41518,-7.85537c2.01875,-8.2935 -3.58882,-15.33701 0.68783,-23.94273c4.95323,-9.9673 17.31197,-14.82763 26.78371,-19.64108c0,0 2.81241,-1.42897 4.24138,1.38344c1.42897,2.81241 -1.38344,4.24134 -1.38344,4.24134c-7.98162,4.05455 -19.78994,8.34632 -23.96753,16.77507c-5.19185,10.47504 6.05727,22.71299 -6.76497,30.36096c-1.3564,0.80903 -2.91352,1.23666 -4.42644,1.68977c-2.23607,0.66972 -7.5852,1.7427 -10.142,2.27508c-2.47845,3.33142 0.49381,8.91701 2.20076,12.12726c4.49649,8.45635 13.54705,11.97656 19.54735,18.76325c2.794,3.16022 4.31326,7.71566 6.12408,11.45725l0.64951,2.08618c0,0 0.87521,3.03075 -2.15554,3.90601z" fill="#000000" stroke="none" stroke-width="0.5"/><path d="M252.27845,168.55692c-3.14629,-0.22908 -2.91717,-3.37533 -2.91717,-3.37533l0.12645,-1.11369c-0.32916,-3.38987 -0.09125,-7.8253 -1.33,-11.07906c-0.47832,-1.25635 -3.17469,-4.11828 -3.63698,-4.94514c-6.35482,-11.3655 -16.18984,-31.15173 -1.62478,-40.11999c4.28784,0.35751 16.63809,3.99936 19.99622,-0.98812c4.7673,-7.08029 1.94761,-15.63041 8.94106,-22.22128c8.09996,-7.63363 21.37716,-7.91082 31.93003,-9.14419c0,0 3.13332,-0.36602 3.49927,2.76729c0.36599,3.13332 -2.76733,3.49923 -2.76733,3.49923c-8.89203,1.03787 -21.45596,0.97237 -28.29523,7.43149c-8.49967,8.02727 -2.18772,23.4048 -16.86558,26.13629c-1.55272,0.28894 -3.16149,0.15056 -4.73766,0.05138c-2.3296,-0.14658 -7.71914,-0.99346 -10.302,-1.3799c-3.47916,2.26632 -2.62649,8.53572 -2.13755,12.13856c1.28794,9.4905 8.55815,15.92855 11.83529,24.37386c1.526,3.9325 1.37268,8.73213 1.77492,12.8694l-0.11351,2.18202c0,0 -0.22908,3.14621 -3.3754,2.91713z" fill="#000000" stroke="none" stroke-width="0.5"/><path d="M402.75125,158.55385l0.83077,-2.02091c2.13331,-3.56759 4.0478,-7.97158 7.10924,-10.87345c6.57464,-6.23189 15.9,-8.94141 21.1237,-16.96894c1.98304,-3.04738 5.43557,-8.34966 3.26015,-11.88635c-2.49994,-0.75547 -7.7338,-2.29532 -9.90224,-3.15936c-1.46714,-0.58458 -2.98054,-1.14766 -4.2604,-2.073c-12.0989,-8.74741 0.18418,-19.94721 -4.06505,-30.83871c-3.41911,-8.76385 -14.80365,-14.07889 -22.39717,-18.82055c0,0 -2.67564,-1.67104 -1.0046,-4.34669c1.67108,-2.67564 4.34673,-1.00456 4.34673,-1.00456c9.01107,5.62882 20.89377,11.55863 24.95006,21.9234c3.50217,8.94886 -2.70385,15.47127 -1.42328,23.91032c0.90206,5.94458 13.62317,7.93557 17.65185,9.44649c9.3292,14.33652 -8.02413,28.01443 -18.62984,35.56938c-0.77154,0.54964 -4.43303,1.98312 -5.40274,2.91414c-2.51146,2.41127 -4.19371,6.52218 -5.94121,9.44549l-0.36208,1.06073c0,0 -1.13871,2.94194 -4.08061,1.80319c-2.9419,-1.13875 -1.80319,-4.08065 -1.80319,-4.08065z" data-paper-data="{&quot;index&quot;:null}" fill="#000000" stroke="none" stroke-width="0.5"/><path d="M424.33221,170.55513l0.07909,-2.18354c0.76505,-4.08577 1.03503,-8.8803 2.90137,-12.66311c4.00808,-8.12387 11.81698,-13.89669 13.93567,-23.23689c0.80431,-3.54578 2.20581,-9.71581 -1.0603,-12.27967c-2.60687,0.15756 -8.05,0.5265 -10.3835,0.4674c-1.57882,-0.04001 -3.19353,-0.04385 -4.71473,-0.46836c-14.3803,-4.01344 -6.73866,-18.77542 -14.49845,-27.51996c-6.24386,-7.03637 -18.76479,-8.07746 -27.53084,-9.89434c0,0 -3.08892,-0.64042 -2.44842,-3.72933c0.64049,-3.08891 3.72941,-2.44843 3.72941,-2.44843c10.40319,2.15788 23.6044,3.6032 31.0007,11.92051c6.38588,7.18112 2.8242,15.44976 6.94948,22.92232c2.90588,5.26378 15.52889,2.72371 19.83155,2.74518c13.71872,10.216 2.17957,29.05931 -5.1515,39.82104c-0.53331,0.7829 -3.47127,3.39631 -4.05837,4.60569c-1.52047,3.13203 -1.67408,7.57117 -2.30048,10.91889l0.02785,1.12046c0,0 -0.0488,3.1542 -3.20304,3.10536c-3.15424,-0.04888 -3.10536,-3.20303 -3.10536,-3.20303z" data-paper-data="{&quot;index&quot;:null}" fill="#000000" stroke="none" stroke-width="0.5"/><path d="M231.67377,171.64751l1.00248,-22.72351l218.71653,9.64901l-1.00248,22.72351c0,0 -38.24805,24.09741 -108.3332,20.44977c-77.15596,-4.01567 -110.3833,-30.09878 -110.3833,-30.09878z" fill="url(#color-7)" stroke="none" stroke-width="0"/><path d="M300.59681,98.1254l1.86307,-42.23057l90.13387,3.97639l-1.86307,42.23057z" fill="url(#color-8)" stroke="#000000" stroke-width="0"/><path d="M307.8243,50.70628c14.10901,0.62244 25.05728,12.21806 24.4537,25.89945c-0.60358,13.68143 -12.53044,24.26784 -26.63945,23.6454c-14.10901,-0.62244 -25.05728,-12.21802 -24.4537,-25.89945c0.60358,-13.68143 12.53044,-24.26784 26.63945,-23.6454z" fill="#ffffff" stroke="#000000" stroke-width="2"/><path d="M311.9786,67.38402c6.9476,0.3065 12.32071,6.42676 12.00116,13.67002c-0.31955,7.24322 -6.21074,12.86658 -13.15834,12.56007c-6.9476,-0.3065 -12.32071,-6.4268 -12.00116,-13.67002c0.31955,-7.24322 6.21078,-12.86658 13.15834,-12.56007z" fill="#000000" stroke="none" stroke-width="0"/><path d="M343.6635,30.39347c1.50537,0.06641 -0.20771,53.61691 -2.45444,99.87645c-0.73937,-0.53811 -1.66162,-0.63959 -1.66162,-0.63959c-16.12692,-1.70352 -67.71789,-3.49184 -77.54159,-4.2129c-17.64577,-1.80562 -37.21923,-1.4857 -53.86386,-8.02173c-0.05184,-3.25072 0.00998,-6.52131 0.1544,-9.79478c2.02272,-45.84946 62.62862,-80.41641 135.36707,-77.20745zM306.41351,104.43809c15.53154,0.6852 28.67778,-11.35011 29.36298,-26.88166c0.6852,-15.53154 -11.35011,-28.67778 -26.88166,-29.36298c-15.53154,-0.6852 -28.67778,11.35012 -29.36298,26.88166c-0.6852,15.53154 11.35011,28.67778 26.88166,29.36298z" fill="#0096ff" stroke="#000000" stroke-width="2"/><path d="M337.27284,196.13914c-103.63247,2.06725 -126.45692,-33.66426 -128.83253,-74.00214c16.82292,5.82798 35.92048,5.76015 53.49809,7.56708c10.1015,0.74128 61.99291,2.41824 77.90095,4.22538c0,0 1.20046,0.13197 2.14254,-0.44009c-1.67558,33.73989 -3.59887,62.62759 -4.70897,62.64977z" fill="#0096ff" stroke="#000000" stroke-width="2"/><path d="M381.8797,53.97335c14.10901,0.62244 25.05727,12.21806 24.4537,25.89945c-0.60358,13.68143 -12.53048,24.26784 -26.63945,23.6454c-14.10901,-0.62244 -25.05728,-12.21802 -24.4537,-25.89945c0.60358,-13.68143 12.53044,-24.26784 26.63945,-23.6454z" fill="#ffffff" stroke="#000000" stroke-width="2"/><path d="M377.03213,61.80084c6.9476,0.3065 12.32071,6.42676 12.00116,13.67002c-0.31955,7.24322 -6.21074,12.86658 -13.15834,12.56007c-6.9476,-0.3065 -12.3207,-6.4268 -12.00116,-13.67002c0.31955,-7.24322 6.21078,-12.86658 13.15834,-12.56007z" fill="#000000" stroke="none" stroke-width="0"/><path d="M348.8283,31.56056c72.73845,3.20897 130.06488,42.97868 128.04216,88.82814c-0.14441,3.27348 -0.37085,6.5368 -0.70875,9.77033c-17.15558,5.04488 -36.62479,3.00253 -54.36105,3.24722c-9.84907,-0.1468 -61.39706,-2.90864 -77.61134,-2.6319c0,0 -0.9276,0.01987 -1.71148,0.49078c1.83569,-46.2777 4.84502,-99.77098 6.35039,-99.70457zM408.77579,81.71625c0.6852,-15.53151 -11.35015,-28.67778 -26.88166,-29.36298c-15.53151,-0.6852 -28.67778,11.35015 -29.36298,26.88166c-0.6852,15.53151 11.35015,28.67778 26.88166,29.36298c15.53151,0.6852 28.67778,-11.35015 29.36298,-26.88166z" data-paper-data="{&quot;index&quot;:null}" fill="#0096ff" stroke="#000000" stroke-width="2"/><path d="M340.5981,197.22507c-1.10384,-0.11982 -0.47575,-29.0647 0.82637,-62.82106c0.88805,0.6528 2.09546,0.62706 2.09546,0.62706c16.00538,-0.39923 67.84287,2.49997 77.9704,2.65113c17.66844,-0.25204 36.68588,1.49733 53.95662,-2.82655c-5.9186,39.97196 -31.80095,73.55466 -134.84877,62.36943z" data-paper-data="{&quot;index&quot;:null}" fill="#0096ff" stroke="#000000" stroke-width="2"/></g><g><path d="M86.6674,51.43642c-0.85725,3.27437 -4.20649,5.23392 -7.48102,4.37673c-3.27448,-0.85725 -5.23395,-4.20659 -4.3767,-7.48101c0.85725,-3.27437 4.20659,-5.23398 7.48107,-4.37673c3.27442,0.85719 5.23395,4.20664 4.3767,7.48101z" data-paper-data="{&quot;index&quot;:null}" fill="url(#color-9)" stroke="none" stroke-width="0"/><g data-paper-data="{&quot;index&quot;:null}" stroke-width="1"><path d="M68.75427,51.96954c0,0 -9.71666,-14.97271 -12.94642,-22.73059c-3.04816,-7.32202 -5.32514,-22.83221 -5.32514,-22.83221l20.78244,-8.65199c0,0 9.63825,13.11093 12.73853,20.5579c3.18592,7.65262 7.31436,24.26344 7.31436,24.26344z" fill="#696969" stroke="#000000"/><path d="M75.76824,48.80267l-18.72371,-44.9755l7.91704,-3.29603l18.72371,44.97545z" fill="url(#color-10)" stroke="none"/><path d="M75.04942,49.14545c0,0 0.07341,1.19783 -1.019,1.1693c-1.09236,-0.02848 -1.16592,-1.22626 -1.16592,-1.22626l-0.11303,-2.13265c0.6882,-2.4871 2.01932,-4.29349 3.02594,-6.58702c0.58142,-1.32476 0.73121,-2.8345 1.23204,-4.18884c0.44857,-1.21335 1.39565,-2.27452 1.41564,-3.70143c0.04659,-3.33456 -2.71117,-7.01512 -5.5527,-7.70624c-1.79405,-0.56607 -3.45763,-1.36428 -5.2131,-2.05217c-1.57393,-0.61688 -3.3994,-0.51499 -4.72442,-1.92915c-1.31009,-1.39822 -1.54855,-4.33341 -1.62336,-6.02558c-0.20419,-4.6135 2.17405,-8.6296 2.08076,-13.22978c0,0 -0.01213,-1.1943 1.08278,-1.09861c1.09486,0.09569 1.10689,1.2901 1.10689,1.2901c0.01109,4.57025 -2.26807,8.63471 -2.08169,13.1796c0.03316,0.81003 0.14507,3.46002 0.91527,4.27333c0.48006,0.50682 2.12521,0.78999 2.48694,0.8914c2.1475,0.60199 4.18978,1.70648 6.33675,2.3849c3.87907,1.01844 7.40386,5.76891 7.37538,10.27798c-0.01135,1.79009 -1.00786,3.01511 -1.57023,4.5299c-0.51416,1.3849 -0.67279,2.91577 -1.26749,4.27667c-0.89494,2.04832 -2.1816,3.72346 -2.85002,5.90459l0.12255,1.70023z" fill="#000000" stroke="none"/><path d="M68.75427,51.96954c0,0 -9.71666,-14.97271 -12.94642,-22.73059c-3.04816,-7.32202 -5.32514,-22.83221 -5.32514,-22.83221l20.78244,-8.65199c0,0 9.63825,13.11093 12.73853,20.5579c3.18592,7.65262 7.31436,24.26344 7.31436,24.26344z" fill="#0096ff" stroke="#000000"/></g><path d="M111.71846,102.65949c-0.97787,3.24038 -4.39751,5.07467 -7.63788,4.0968c-3.24037,-0.97787 -5.07475,-4.3975 -4.09682,-7.63798c0.97787,-3.24037 4.3975,-5.07467 7.63798,-4.09679c3.24038,0.97787 5.07462,4.3975 4.09674,7.63788z" data-paper-data="{&quot;index&quot;:null}" fill="url(#color-11)" stroke="none" stroke-width="0"/><g data-paper-data="{&quot;index&quot;:null}" stroke-width="1"><path d="M93.63417,102.88731c0,0 -10.488,-14.44303 -14.11988,-22.02104c-3.4279,-7.15225 -6.51429,-22.52177 -6.51429,-22.52177l20.30045,-9.72899c0,0 10.31214,12.58755 13.79841,19.86194c3.58248,7.47509 8.57572,23.8469 8.57572,23.8469z" fill="#696969" stroke="#000000"/><path d="M100.47244,99.35737l-21.05483,-43.93249l7.73368,-3.70638l21.05462,43.9325z" fill="url(#color-12)" stroke="none"/><path d="M99.77226,99.73768c0,0 0.13625,1.19237 -0.95611,1.22116c-1.09241,0.02879 -1.22866,-1.16352 -1.22866,-1.16352l-0.2246,-2.12376c0.55701,-2.51974 1.79149,-4.39349 2.67655,-6.73658c0.5113,-1.35335 0.58185,-2.86897 1.01104,-4.24762c0.38447,-1.23516 1.27458,-2.34439 1.2197,-3.77036c-0.12812,-3.33248 -3.07497,-6.86346 -5.94873,-7.4049c-1.82127,-0.47121 -3.52437,-1.18112 -5.31348,-1.77614c-1.60407,-0.53364 -3.42181,-0.33616 -4.81894,-1.67894c-1.38151,-1.32779 -1.77343,-4.24616 -1.93685,-5.93213c-0.4457,-4.59649 1.71887,-8.7317 1.38458,-13.32073c0,0 -0.07466,-1.19206 1.02364,-1.1539c1.0984,0.03827 1.17306,1.23027 1.17306,1.23027c0.25052,4.56337 -1.81258,8.7418 -1.38828,13.2706c0.0756,0.80711 0.32627,3.44774 1.13796,4.2194c0.50589,0.48095 2.16363,0.67754 2.53025,0.7599c2.17608,0.48855 4.27339,1.48434 6.45306,2.04936c3.92718,0.81383 7.69608,5.37299 7.90386,9.87742c0.08252,1.78827 -0.8485,3.06368 -1.3308,4.6059c-0.44091,1.40978 -0.51916,2.94701 -1.04171,4.33722c-0.78645,2.09231 -1.9834,3.83274 -2.53671,6.04573l0.21137,1.69138z" fill="#000000" stroke="none"/><path d="M93.63417,102.88731c0,0 -10.488,-14.44303 -14.11988,-22.02104c-3.4279,-7.15225 -6.51429,-22.52177 -6.51429,-22.52177l20.30045,-9.72899c0,0 10.31214,12.58755 13.79841,19.86194c3.58248,7.47509 8.57572,23.8469 8.57572,23.8469z" fill="#0096ff" stroke="#000000"/></g><g data-paper-data="{&quot;index&quot;:null}" stroke-width="1"><path d="M115.68536,154.45753c0,0 -9.83603,-14.89472 -13.12748,-22.62673c-3.10653,-7.29755 -5.50709,-22.78895 -5.50709,-22.78895l20.71278,-8.81754c0,0 9.74269,13.03356 12.90221,20.45559c3.24678,7.627 7.50767,24.20431 7.50767,24.20431z" fill="#696969" stroke="#000000"/><path d="M122.67366,151.23485l-19.08205,-44.82452l7.89054,-3.35903l19.08194,44.82452z" fill="url(#color-13)" stroke="none"/><path d="M121.95732,151.58361c0,0 0.08307,1.19716 -1.0095,1.17743c-1.09262,-0.01979 -1.17572,-1.21705 -1.17572,-1.21705l-0.13005,-2.13156c0.66842,-2.49262 1.98496,-4.30947 2.97325,-6.61102c0.5708,-1.32919 0.70866,-2.84023 1.19867,-4.19847c0.43904,-1.21689 1.37751,-2.28551 1.38599,-3.71252c0.02009,-3.33481 -2.76693,-6.99335 -5.61388,-7.66182c-1.79863,-0.55181 -3.46851,-1.33658 -5.2295,-2.01053c-1.57877,-0.60428 -3.40333,-0.48781 -4.73955,-1.89145c-1.32117,-1.38792 -1.58294,-4.32087 -1.67134,-6.01235c-0.24094,-4.61173 2.10506,-8.64658 1.97501,-13.24603c0,0 -0.02165,-1.19424 1.07388,-1.10725c1.09553,0.08695 1.11714,1.28114 1.11714,1.28114c0.04753,4.57009 -2.19914,8.65262 -1.97647,13.19589c0.03962,0.80966 0.17284,3.45888 0.94939,4.26584c0.48402,0.50302 2.13152,0.77306 2.49402,0.87162c2.15224,0.58486 4.20337,1.6728 6.35571,2.33414c3.88709,0.9874 7.44965,5.70972 7.45709,10.21884c0.00286,1.79009 -0.98364,3.02292 -1.53403,4.54218c-0.50307,1.3888 -0.64952,2.92103 -1.23329,4.28656c-0.87865,2.05534 -2.15182,3.74085 -2.80285,5.92708l0.13599,1.69919z" fill="#000000" stroke="none"/><path d="M115.68536,154.45753c0,0 -9.83603,-14.89472 -13.12748,-22.62673c-3.10653,-7.29755 -5.50709,-22.78895 -5.50709,-22.78895l20.71278,-8.81754c0,0 9.74269,13.03356 12.90221,20.45559c3.24678,7.627 7.50767,24.20431 7.50767,24.20431z" fill="#0096ff" stroke="#000000"/></g><path d="M195.67157,187.73136c1.29681,3.77177 -0.70944,7.88059 -4.48127,9.17745c-3.77187,1.29675 -7.88069,-0.7096 -9.17755,-4.48132c-1.29681,-3.77177 0.70944,-7.88059 4.48127,-9.17745c3.77167,-1.29686 7.8807,0.70955 9.1775,4.48127z" data-paper-data="{&quot;index&quot;:null}" fill="url(#color-14)" stroke="none" stroke-width="0"/><path d="M165.42669,155.03864c3.05384,2.56539 3.44988,7.12096 0.88438,10.1748c-2.56545,3.05384 -7.12088,3.44983 -10.17477,0.88438c-3.05384,-2.56539 -3.44993,-7.12086 -0.88437,-10.17475c2.56539,-3.05384 7.1208,-3.44983 10.17469,-0.88438z" data-paper-data="{&quot;index&quot;:null}" fill="url(#color-15)" stroke="none" stroke-width="0"/><path d="M128.32861,160.31396c3.05384,2.56539 3.44983,7.12096 0.88438,10.1748c-2.56545,3.05389 -7.12094,3.44982 -10.17482,0.88437c-3.05384,-2.56545 -3.44977,-7.1209 -0.88432,-10.17479c2.56539,-3.05384 7.12082,-3.44977 10.17477,-0.88438z" data-paper-data="{&quot;index&quot;:null}" fill="url(#color-16)" stroke="none" stroke-width="0"/><path d="M97.64954,181.37414c3.05384,2.56545 3.44982,7.12091 0.88437,10.1748c-2.56545,3.05389 -7.12083,3.44993 -10.17477,0.88448c-3.05384,-2.56539 -3.44987,-7.12091 -0.88437,-10.1748c2.56539,-3.05384 7.12094,-3.44983 10.17482,-0.88438z" data-paper-data="{&quot;index&quot;:null}" fill="url(#color-17)" stroke="none" stroke-width="0"/><path d="M147.46291,35.1464c-1.68206,2.93717 -5.42666,3.95472 -8.36404,2.27265c-2.93722,-1.68207 -3.95466,-5.42676 -2.2726,-8.36403c1.68206,-2.93717 5.42676,-3.95471 8.36398,-2.2726c2.93722,1.68201 3.95477,5.42681 2.27266,8.36399z" data-paper-data="{&quot;index&quot;:null}" fill="url(#color-18)" stroke="none" stroke-width="0"/><g data-paper-data="{&quot;index&quot;:null}" stroke-width="1"><path d="M130.03142,30.98598c0,0 -5.47236,-16.98963 -6.56556,-25.32165c-1.03166,-7.86377 0.8182,-23.43067 0.8182,-23.43067l22.32019,-2.92832c0,0 5.88261,15.1719 6.93192,23.16994c1.07831,8.21884 0.7286,25.33149 0.7286,25.33149z" fill="#696969" stroke="#000000"/><path d="M137.62883,29.75946l-6.33717,-48.30333l8.50289,-1.11558l6.33717,48.30324z" fill="url(#color-19)" stroke="none"/><path d="M136.84543,29.90273c0,0 -0.24165,1.17551 -1.28881,0.86288c-1.04717,-0.31263 -0.80555,-1.48803 -0.80555,-1.48803l0.44752,-2.0883c1.31347,-2.22127 3.0698,-3.61767 4.64008,-5.569c0.90697,-1.12709 1.44567,-2.54546 2.28262,-3.7221c0.74964,-1.05414 1.94082,-1.83149 2.33258,-3.20368c0.9152,-3.2068 -0.78642,-7.47956 -3.34911,-8.8883c-1.58414,-1.01468 -2.98176,-2.21939 -4.49692,-3.34158c-1.3584,-1.00625 -3.14719,-1.38432 -4.05712,-3.09528c-0.89973,-1.6917 -0.36389,-4.58737 0.00544,-6.24044c1.00692,-4.50688 4.35088,-7.76308 5.46135,-12.22821c0,0 0.29993,-1.15603 1.3319,-0.77796c1.03191,0.37813 0.73189,1.53426 0.73189,1.53426c-1.18206,4.41474 -4.44295,7.74352 -5.44915,12.1796c-0.17935,0.79061 -0.76305,3.37798 -0.23181,4.36407c0.33112,0.61459 1.84538,1.31727 2.16822,1.50954c1.91598,1.14167 3.59919,2.74069 5.49471,3.95591c3.47882,1.99548 5.64178,7.50127 4.43743,11.84666c-0.47814,1.72501 -1.75982,2.64756 -2.69803,3.96305c-0.85777,1.20273 -1.41036,2.63911 -2.33971,3.7977c-1.39848,1.74376 -3.07771,3.02505 -4.2922,4.95613l-0.32549,1.67327z" fill="#000000" stroke="none"/><path d="M130.03142,30.98598c0,0 -5.47236,-16.98963 -6.56556,-25.32165c-1.03166,-7.86377 0.8182,-23.43067 0.8182,-23.43067l22.32019,-2.92832c0,0 5.88261,15.1719 6.93192,23.16994c1.07831,8.21884 0.7286,25.33149 0.7286,25.33149z" fill="#0096ff" stroke="#000000"/></g><path d="M158.81,91.77118c-1.78967,2.87292 -5.56955,3.75121 -8.44242,1.96158c-2.87293,-1.78968 -3.7512,-5.56947 -1.96153,-8.44244c1.78967,-2.87292 5.56955,-3.75121 8.44247,-1.96153c2.87293,1.78968 3.75115,5.56947 1.96148,8.44239z" data-paper-data="{&quot;index&quot;:null}" fill="url(#color-20)" stroke="none" stroke-width="0"/><g data-paper-data="{&quot;index&quot;:null}" stroke-width="1"><path d="M140.7606,86.63232c0,0 -6.35518,-16.67961 -7.88345,-24.94285c-1.44253,-7.79896 -0.41082,-23.44134 -0.41082,-23.44134l22.13604,-4.09383c0,0 6.66958,14.84261 8.13658,22.77474c1.5075,8.151 2.05499,25.25856 2.05499,25.25856z" fill="#696969" stroke="#000000"/><path d="M148.28317,85.0094l-8.85972,-47.90486l8.43284,-1.55967l8.85958,47.90486z" fill="url(#color-21)" stroke="none"/><path d="M147.50799,85.19386c0,0 -0.17966,1.18653 -1.24173,0.9293c-1.06206,-0.25734 -0.88237,-1.44383 -0.88237,-1.44383l0.33747,-2.10871c1.19523,-2.28708 2.87602,-3.77365 4.34182,-5.80463c0.84673,-1.17301 1.3104,-2.61772 2.08451,-3.83648c0.69351,-1.09199 1.84226,-1.9306 2.1615,-3.32139c0.74599,-3.25047 -1.17712,-7.42813 -3.81009,-8.70072c-1.63515,-0.93019 -3.09398,-2.05998 -4.66583,-3.10132c-1.40921,-0.93373 -3.21549,-1.21757 -4.21383,-2.87839c-0.98714,-1.64234 -0.60387,-4.56191 -0.32159,-6.23205c0.76932,-4.55353 3.93806,-7.9805 4.81306,-12.49775c0,0 0.23907,-1.17019 1.28931,-0.84673c1.05034,0.32357 0.81134,1.49381 0.81134,1.49381c-0.94908,4.47065 -4.0312,7.96582 -4.80348,12.44839c-0.13765,0.79889 -0.58481,3.41338 -0.00266,4.37017c0.36282,0.59627 1.91187,1.21866 2.24423,1.39385c1.9732,1.03952 3.73798,2.54816 5.69462,3.6625c3.57868,1.8105 6.02709,7.1953 5.05208,11.59775c-0.38708,1.74782 -1.61865,2.7361 -2.48668,4.09898c-0.79352,1.24584 -1.27026,2.70934 -2.1375,3.91504c-1.30524,1.81456 -2.91489,3.18228 -4.02656,5.17422l-0.2374,1.68794z" fill="#000000" stroke="none"/><path d="M140.7606,86.63232c0,0 -6.35518,-16.67961 -7.88345,-24.94285c-1.44253,-7.79896 -0.41082,-23.44134 -0.41082,-23.44134l22.13604,-4.09383c0,0 6.66958,14.84261 8.13658,22.77474c1.5075,8.151 2.05499,25.25856 2.05499,25.25856z" fill="#0096ff" stroke="#000000"/></g><g data-paper-data="{&quot;index&quot;:null}" stroke-width="1"><path d="M148.58892,142.17032c0,0 -5.60793,-16.94554 -6.7674,-25.26855c-1.09439,-7.85534 0.63115,-23.4364 0.63115,-23.4364l22.29613,-3.10642c0,0 6.00355,15.12452 7.11658,23.11387c1.1438,8.21004 0.93071,25.32483 0.93071,25.32483z" fill="#696969" stroke="#000000"/><path d="M156.17615,140.88309l-6.72248,-48.25112l8.49367,-1.18336l6.72243,48.25112z" fill="url(#color-22)" stroke="none"/><path d="M155.3935,141.03282c0,0 -0.23219,1.17743 -1.28181,0.87318c-1.04957,-0.30425 -0.81732,-1.48173 -0.81732,-1.48173l0.43081,-2.09163c1.29576,-2.23173 3.04088,-3.64209 4.59555,-5.60596c0.89791,-1.13416 1.42535,-2.55686 2.25282,-3.74012c0.74136,-1.06014 1.92623,-1.84679 2.3068,-3.22216c0.88968,-3.21398 -0.84595,-7.47305 -3.41973,-8.86143c-1.59226,-1.00208 -2.99949,-2.1955 -4.52355,-3.30561c-1.36631,-0.99532 -3.15806,-1.35907 -4.08169,-3.06274c-0.91322,-1.68457 -0.40046,-4.58425 -0.04431,-6.24018c0.97095,-4.5148 4.28864,-7.7976 5.36351,-12.27153c0,0 0.29081,-1.15848 1.3257,-0.78858c1.03489,0.36984 0.74407,1.52828 0.74407,1.52828c-1.14682,4.4241 -4.38106,7.77881 -5.35185,12.2227c-0.173,0.79197 -0.73592,3.38412 -0.19682,4.36575c0.33601,0.61194 1.85584,1.30258 2.18014,1.49224c1.92509,1.12626 3.62106,2.71185 5.52626,3.91193c3.49464,1.96767 5.70141,7.45603 4.53184,11.81084c-0.46439,1.72887 -1.7385,2.6614 -2.66634,3.98439c-0.84804,1.20935 -1.38932,2.65026 -2.3093,3.81613c-1.38453,1.7548 -3.05353,3.04957 -4.25257,4.99023l-0.31211,1.67587z" fill="#000000" stroke="none"/><path d="M148.58892,142.17032c0,0 -5.60793,-16.94554 -6.7674,-25.26855c-1.09439,-7.85534 0.63115,-23.4364 0.63115,-23.4364l22.29613,-3.10642c0,0 6.00355,15.12452 7.11658,23.11387c1.1438,8.21004 0.93071,25.32483 0.93071,25.32483z" fill="#0096ff" stroke="#000000"/></g><path d="M242.38109,171.61782c-3.95919,0.48209 -7.55968,-2.33658 -8.04183,-6.29583c-0.48209,-3.95919 2.33648,-7.55974 6.29573,-8.04183c3.95914,-0.48219 7.55969,2.33664 8.04188,6.29583c0.48209,3.95919 -2.33648,7.55968 -6.29578,8.04183z" data-paper-data="{&quot;index&quot;:null}" fill="url(#color-23)" stroke="none" stroke-width="0"/><g data-paper-data="{&quot;index&quot;:null}" stroke-width="1"><path d="M231.59123,151.76932c0,0 10.17776,-18.40634 16.4522,-26.06687c5.92203,-7.23003 20.78467,-18.1995 20.78467,-18.1995l20.52146,16.80857c0,0 -8.28532,17.29211 -14.30835,24.64563c-6.18937,7.55656 -21.16941,21.06144 -21.16941,21.06144z" fill="#696969" stroke="#000000"/><path d="M238.77368,157.30505l36.37535,-44.41063l7.8177,6.40324l-36.37535,44.41057z" fill="url(#color-24)" stroke="none"/><path d="M238.01841,156.74777c0,0 -1.20455,0.74078 -1.78087,-0.41082c-0.57632,-1.15156 0.62833,-1.89229 0.62833,-1.89229l2.15453,-1.30024c2.96758,-0.66384 5.58389,-0.28186 8.52662,-0.50734c1.69966,-0.13026 3.35254,-0.81164 5.0382,-1.04212c1.51031,-0.20653 3.13881,0.1895 4.63335,-0.58096c3.49272,-1.80087 5.78992,-6.70936 4.93262,-10.04699c-0.4065,-2.1793 -0.49948,-4.35153 -0.75781,-6.55822c-0.23157,-1.97851 -1.34996,-3.81998 -0.61449,-5.98179c0.7272,-2.13765 3.64636,-4.01323 5.36419,-5.02953c4.68338,-2.77093 10.17761,-2.52593 14.90867,-5.17421c0,0 1.23491,-0.67488 1.74267,0.5164c0.5076,1.19133 -0.72736,1.86626 -0.72736,1.86626c-4.74532,2.54624 -10.23519,2.43082 -14.85708,5.14527c-0.82372,0.48376 -3.51682,2.06987 -3.93525,3.32159c-0.26072,0.78025 0.35735,2.64771 0.45257,3.08003c0.56513,2.56664 0.54967,5.30233 1.0351,7.91078c1.09262,4.59784 -1.89151,10.89727 -6.59529,13.36838c-1.86735,0.98116 -3.69347,0.62437 -5.58035,0.87979c-1.72491,0.2336 -3.40448,0.91754 -5.14943,1.0541c-2.62584,0.20554 -5.08128,-0.20289 -7.71946,0.31175l-1.69976,1.07029z" fill="#000000" stroke="none"/><path d="M231.59123,151.76932c0,0 10.17776,-18.40634 16.4522,-26.06687c5.92203,-7.23003 20.78467,-18.1995 20.78467,-18.1995l20.52146,16.80857c0,0 -8.28532,17.29211 -14.30835,24.64563c-6.18937,7.55656 -21.16941,21.06144 -21.16941,21.06144z" fill="#0096ff" stroke="#000000"/></g><g data-paper-data="{&quot;index&quot;:null}" stroke-width="1"><path d="M190.06046,201.33864c0,0 11.4014,-17.67456 18.18052,-24.8923c6.39824,-6.81218 21.97015,-16.74932 21.97015,-16.74932l19.33538,18.16035c0,0 -9.4381,16.69106 -15.94551,23.61954c-6.68718,7.11976 -22.54785,19.57872 -22.54785,19.57872z" fill="#696969" stroke="#000000"/><path d="M196.85119,207.34829l39.30081,-41.84387l7.36588,6.91823l-39.30086,41.84393z" fill="url(#color-25)" stroke="none"/><path d="M196.13534,206.74114c0,0 -1.25193,0.65754 -1.74886,-0.53041c-0.49693,-1.18795 0.75511,-1.84544 0.75511,-1.84544l2.23762,-1.15119c3.00569,-0.46126 5.59008,0.0971 8.54141,0.07164c1.70471,-0.01478 3.39982,-0.58263 5.09735,-0.69836c1.52077,-0.10376 3.11871,0.40187 4.66203,-0.26577c3.60673,-1.56008 6.23117,-6.30161 5.60195,-9.68968c-0.25791,-2.20174 -0.2033,-4.37538 -0.31159,-6.59446c-0.09705,-1.9896 -1.08798,-3.90255 -0.20772,-6.00954c0.87037,-2.08346 3.90994,-3.75699 5.69275,-4.65454c4.86028,-2.44737 10.32536,-1.83054 15.2251,-4.15223c0,0 1.27781,-0.58961 1.70367,0.63338c0.42566,1.22298 -0.85209,1.81274 -0.85209,1.81274c-4.90698,2.21887 -10.37654,1.73178 -15.17158,4.12678c-0.85454,0.4267 -3.64901,1.8268 -4.1512,3.04728c-0.313,0.76073 0.17711,2.66582 0.24276,3.10361c0.38995,2.59893 0.18909,5.32754 0.49662,7.9629c0.77848,4.66119 -2.62558,10.74393 -7.48586,12.8907c-1.92956,0.85215 -3.72742,0.37266 -5.62715,0.49958c-1.73684,0.1161 -3.45889,0.68482 -5.20905,0.70273c-2.6338,0.02713 -5.05572,-0.54676 -7.72285,-0.2121l-1.76833,0.95263z" fill="#000000" stroke="none"/><path d="M190.06046,201.33864c0,0 11.4014,-17.67456 18.18052,-24.8923c6.39824,-6.81218 21.97015,-16.74932 21.97015,-16.74932l19.33538,18.16035c0,0 -9.4381,16.69106 -15.94551,23.61954c-6.68718,7.11976 -22.54785,19.57872 -22.54785,19.57872z" fill="#0096ff" stroke="#000000"/></g><path d="M36.19287,83.80641c-0.20877,3.37824 -3.11655,5.9478 -6.49494,5.73909c-3.3784,-0.20877 -5.94783,-3.11668 -5.73911,-6.49502c0.20877,-3.37824 3.11658,-5.94774 6.49497,-5.73903c3.37829,0.20871 5.94785,3.11662 5.73908,6.49496z" data-paper-data="{&quot;index&quot;:null}" fill="url(#color-26)" stroke="none" stroke-width="0"/><g data-paper-data="{&quot;index&quot;:null}" stroke-width="1"><path d="M18.7199,87.78882c0,0 -12.42522,-12.81439 -17.09245,-19.80259c-4.40484,-6.5955 -9.63416,-21.37406 -9.63416,-21.37406l18.7203,-12.50258c0,0 11.98886,11.00279 16.46889,17.71085c4.60383,6.89329 11.86236,22.39417 11.86236,22.39417z" fill="#696969" stroke="#000000"/><path d="M24.99025,83.32702l-27.05682,-40.51292l7.13153,-4.76292l27.05682,40.51292z" fill="url(#color-27)" stroke="none"/><path d="M24.35119,83.80219c0,0 0.30346,1.16114 -0.7739,1.34408c-1.07731,0.183 -1.38083,-0.97809 -1.38083,-0.97809l-0.52271,-2.07065c0.19503,-2.57321 1.15218,-4.60263 1.69691,-7.04734c0.31461,-1.41202 0.17003,-2.92239 0.39999,-4.34789c0.20585,-1.27707 0.93009,-2.5012 0.6742,-3.90515c-0.5983,-3.28077 -4.0148,-6.3595 -6.9364,-6.48887c-1.86959,-0.20898 -3.65604,-0.67087 -5.51126,-1.00682c-1.66348,-0.30128 -3.43493,0.15118 -5.00803,-0.98048c-1.5555,-1.11891 -2.35616,-3.95279 -2.75636,-5.59862c-1.09126,-4.48721 0.46657,-8.88699 -0.51333,-13.38253c0,0 -0.24255,-1.16946 0.85017,-1.28702c1.09272,-0.11751 1.33523,1.05206 1.33523,1.05206c0.89349,4.48205 -0.5579,8.91016 0.50265,13.33349c0.18898,0.78837 0.8105,3.36688 1.72325,4.01604c0.56888,0.40463 2.23777,0.36469 2.6123,0.39431c2.2233,0.17597 4.44046,0.86522 6.67797,1.11626c4.00272,0.25006 8.37856,4.23044 9.22144,8.66016c0.3346,1.75849 -0.40665,3.15296 -0.66592,4.74787c-0.23709,1.45815 -0.09699,2.9908 -0.41774,4.44098c-0.48251,2.18254 -1.42145,4.07466 -1.65609,6.34378l0.44852,1.64464z" fill="#000000" stroke="none"/><path d="M18.7199,87.78882c0,0 -12.42522,-12.81439 -17.09245,-19.80259c-4.40484,-6.5955 -9.63416,-21.37406 -9.63416,-21.37406l18.7203,-12.50258c0,0 11.98886,11.00279 16.46889,17.71085c4.60383,6.89329 11.86236,22.39417 11.86236,22.39417z" fill="#0096ff" stroke="#000000"/></g><path d="M69.63114,130.45002c-0.33371,3.36824 -3.33471,5.82847 -6.70301,5.49475c-3.36824,-0.33372 -5.82843,-3.33471 -5.49476,-6.70306c0.33371,-3.36824 3.33477,-5.82837 6.70301,-5.4947c3.36824,0.33371 5.82836,3.33466 5.4947,6.70295z" data-paper-data="{&quot;index&quot;:null}" fill="url(#color-28)" stroke="none" stroke-width="0"/><g data-paper-data="{&quot;index&quot;:null}" stroke-width="1"><path d="M52.9646,132.94336c0,0 -13.07979,-12.14575 -18.10667,-18.87973c-4.7446,-6.35565 -10.74105,-20.8397 -10.74105,-20.8397l18.03949,-13.46625c0,0 12.54887,10.3592 17.37432,16.8233c4.95863,6.64251 13.01951,21.74183 13.01951,21.74183z" fill="#696969" stroke="#000000"/><path d="M58.99239,128.15919l-29.14257,-39.03941l6.87226,-5.13012l29.14247,39.03946z" fill="url(#color-29)" stroke="none"/><path d="M58.37885,128.66762c0,0 0.36398,1.14359 -0.70229,1.38282c-1.06623,0.23923 -1.43019,-0.90437 -1.43019,-0.90437l-0.63052,-2.0404c0.05982,-2.57987 0.90937,-4.65672 1.32518,-7.12669c0.24027,-1.4266 0.01682,-2.92728 0.1717,-4.36283c0.13875,-1.28619 0.79779,-2.54655 0.46861,-3.93499c-0.76922,-3.24501 -4.34247,-6.14037 -7.26673,-6.11663c-1.87792,-0.11063 -3.68613,-0.47824 -5.55656,-0.71658c-1.67686,-0.21382 -3.42233,0.33096 -5.05244,-0.71668c-1.61194,-1.03597 -2.56014,-3.82373 -3.04603,-5.44639c-1.32502,-4.4239 0.00031,-8.89923 -1.21392,-13.3374c0,0 -0.30342,-1.15525 0.7815,-1.32991c1.08512,-0.17457 1.38859,0.98053 1.38859,0.98053c1.12709,4.4291 -0.09022,8.9273 1.20071,13.28893c0.23011,0.77738 0.98589,3.31987 1.93138,3.9202c0.58928,0.37422 2.25381,0.24693 2.62933,0.25693c2.2295,0.05909 4.47966,0.63109 6.72732,0.76453c4.01037,0.04009 8.58879,3.78562 9.66256,8.16506c0.42634,1.7387 -0.24084,3.16989 -0.41618,4.77625c-0.16035,1.46841 0.05971,2.99173 -0.18451,4.45674c-0.36751,2.20487 -1.20586,4.14365 -1.32138,6.42182l0.534,1.61865z" fill="#000000" stroke="none"/><path d="M52.9646,132.94336c0,0 -13.07979,-12.14575 -18.10667,-18.87973c-4.7446,-6.35565 -10.74105,-20.8397 -10.74105,-20.8397l18.03949,-13.46625c0,0 12.54887,10.3592 17.37432,16.8233c4.95863,6.64251 13.01951,21.74183 13.01951,21.74183z" fill="#0096ff" stroke="#000000"/></g><g data-paper-data="{&quot;index&quot;:null}" stroke-width="1"><path d="M84.55983,179.28433c0,0 -12.52729,-12.71484 -17.24997,-19.66556c-4.45737,-6.56026 -9.80438,-21.29645 -9.80438,-21.29645l18.62003,-12.65164c0,0 12.07632,10.90668 16.60971,17.57882c4.65854,6.85638 12.0407,22.29884 12.0407,22.29884z" fill="#696969" stroke="#000000"/><path d="M90.79426,174.77271l-27.37924,-40.29561l7.09332,-4.81962l27.37918,40.29566z" fill="url(#color-30)" stroke="none"/><path d="M90.15869,175.25324c0,0 0.31274,1.15858 -0.76307,1.35017c-1.07586,0.19159 -1.38865,-0.9671 -1.38865,-0.9671l-0.53925,-2.06638c0.17446,-2.57477 1.11543,-4.61174 1.64057,-7.06073c0.30336,-1.41441 0.14682,-2.92363 0.36527,-4.35085c0.19575,-1.27874 0.91025,-2.50854 0.64297,-3.9103c-0.62427,-3.27588 -4.0654,-6.32728 -6.98779,-6.43348c-1.87131,-0.19404 -3.66135,-0.64161 -5.51928,-0.96278c-1.66572,-0.288 -3.43348,0.17857 -5.01558,-0.94055c-1.5643,-1.10667 -2.38765,-3.93389 -2.80102,-5.57639c-1.12708,-4.47835 0.39562,-8.89038 -0.62016,-13.37806c0,0 -0.25187,-1.16759 0.83986,-1.29379c1.09173,-0.1263 1.3435,1.04129 1.3435,1.04129c0.92915,4.47486 -0.48672,8.91443 0.60902,13.32917c0.19528,0.78681 0.83757,3.36038 1.75536,4.00214c0.5721,0.40005 2.24069,0.34694 2.61532,0.37355c2.22465,0.15816 4.44733,0.8296 6.68682,1.06278c4.00459,0.21819 8.41204,4.16354 9.29017,8.58635c0.34856,1.75589 -0.38135,3.15593 -0.62797,4.75293c-0.22532,1.45976 -0.07325,2.99147 -0.38229,4.4441c-0.46517,2.18634 -1.38885,4.08597 -1.60543,6.3568l0.46158,1.64093z" fill="#000000" stroke="none"/><path d="M84.55983,179.28433c0,0 -12.52729,-12.71484 -17.24997,-19.66556c-4.45737,-6.56026 -9.80438,-21.29645 -9.80438,-21.29645l18.62003,-12.65164c0,0 12.07632,10.90668 16.60971,17.57882c4.65854,6.85638 12.0407,22.29884 12.0407,22.29884z" fill="#0096ff" stroke="#000000"/></g><path d="M86.60885,217.6572c-17.21371,-42.32977 9.34403,-62.52297 40.93417,-75.36927c31.5901,-12.84619 56.25007,-13.48077 73.46357,28.849c17.2135,42.32971 5.55912,87.05865 -26.03102,99.905c-31.59005,12.84635 -71.15335,-11.05501 -88.36685,-53.38472z" data-paper-data="{&quot;index&quot;:null}" fill="#0096ff" stroke="#000000" stroke-width="1"/></g><g stroke="#000000" stroke-width="3.5"><g><path d="M241.78865,163.21356c57.8322,0 104.71452,46.88233 104.71452,104.71462c0,57.8322 -46.88223,104.71452 -104.71452,104.71452c-57.8322,0 -104.71471,-46.88232 -104.71471,-104.71452c0,-57.8322 46.88242,-104.71462 104.71471,-104.71462z" fill="url(#color-31)"/><path d="M-114.05589,266.78128c45.14945,15.60212 95.62439,12.80935 142.29987,15.97369c26.78881,0.90693 164.15473,-0.97151 206.41696,2.41938c0,0 3.18871,0.24239 5.6123,-1.64007c-0.49459,103.73294 0.77856,192.62195 -2.15386,192.83224c-280.79369,20.13663 -341.1914,-86.15958 -352.17527,-209.58524z" fill="#a90000"/></g><path d="M240.11104,-22.73398c4.013,0 0.76132,165.46537 0.21341,308.50699c-2.03041,-1.55973 -4.49605,-1.74725 -4.49605,-1.74725c-43.10806,-3.06101 -180.58344,-1.55625 -206.80556,-2.44393c-47.16118,-3.16938 -99.2017,0.48223 -144.25451,-17.41927c-0.51951,-10.02316 -0.73891,-20.1231 -0.73891,-30.24319c0,-90.4454 2.74747,-204.54241 108.42385,-249.90007c51.85449,-22.25661 147.87154,-8.58276 242.80474,-5.14529c1.61428,-0.53742 4.85304,-1.60798 4.85304,-1.60798zM44.44632,128.5051c-0.40188,33.99621 37.50142,86.1954 101.64371,90.15179c22.95142,1.41572 89.98122,-35.38187 81.56349,-104.8304c-2.1189,-17.48184 -19.64994,-79.94155 -95.03919,-75.45191c-40.47677,2.4105 -87.43816,28.38756 -88.16801,90.13044z" fill="#a90000"/><path d="M244.742,-21.12599c95.36853,-3.45324 178.08273,-12.49781 230.00342,9.95663c105.09128,45.44943 121.22517,154.84684 121.22517,245.08873c0,10.12009 -0.2194,20.22003 -0.73891,30.24319c-45.05281,17.9015 -97.09333,14.24989 -144.25451,17.41927c-26.22212,0.88768 -163.69751,-0.61708 -206.80556,2.44393c0,0 -2.46564,0.18752 -4.49605,1.74725c-0.54792,-143.04162 -3.7996,-308.50699 0.21341,-308.50699c0,0 3.23876,1.07056 4.85304,1.60798zM435.55368,128.50501c-0.72984,-61.74288 -47.69123,-87.71994 -88.16801,-90.13044c-75.38925,-4.48964 -92.92029,57.97007 -95.03919,75.45191c-8.41773,69.44853 58.61207,106.24613 81.56349,104.8304c64.14229,-3.95639 102.04559,-56.15558 101.64371,-90.15179z" data-paper-data="{&quot;index&quot;:null}" fill="#a90000"/><path d="M241.88062,476.36652c-2.93242,-0.21029 -1.65926,-89.0993 -2.15386,-192.83224c2.42359,1.88246 5.6123,1.64007 5.6123,1.64007c42.26223,-3.39089 179.62815,-1.51245 206.41696,-2.41938c46.67547,-3.16434 97.15041,-0.37157 142.29987,-15.97369c-10.98387,123.42566 -71.38157,229.72187 -352.17527,209.58524z" data-paper-data="{&quot;index&quot;:null}" fill="#a90000"/></g><path d="M78.53358,368.79149c-5.11341,10.22681 -15.34022,5.11341 -15.34022,5.11341l-12.78192,-7.04697c-2.6494,-5.08945 -6.21471,-9.79872 -7.94821,-15.26835c-0.98797,-3.11729 0.74577,-6.62639 0,-9.81032c-1.0251,-4.3765 -5.35901,-7.94478 -5.21103,-12.4373c0.1907,-5.78939 8.2327,-17.84939 10.68067,-23.99621c8.89798,-22.34268 16.61302,-45.02818 24.24219,-67.91237c0.75973,-2.27887 9.0172,-26.67277 9.34444,-29.13135c2.35853,-17.71981 -3.70009,-30.0773 -9.06084,-46.26505c-3.17227,-6.57765 -9.08652,-11.43837 -13.42759,-17.31068c-4.34672,-5.87996 -5.40354,-13.78554 -9.81032,-19.62063c-6.77916,-8.97641 -15.32405,-11.03454 -20.90852,-21.93059c-1.75946,-3.43294 0.34262,-7.80952 -0.56449,-11.55891c-2.47632,-10.23547 -12.14039,-19.01054 -14.71548,-29.43095c-5.45287,-22.06569 6.71435,-47.63658 24.06316,-60.95425c8.49253,-6.51922 21.38734,-10.85874 31.00308,-15.66661c0,0 10.22681,-5.11341 15.34022,5.11341c5.11341,10.22681 -5.11341,15.34022 -5.11341,15.34022c-8.7103,4.35515 -19.97765,8.06738 -27.85883,13.76435c-10.17182,7.35278 -18.39662,24.52289 -15.17811,37.14893c1.59009,6.23785 6.10213,11.34109 8.90907,17.13421c1.97653,4.07927 4.67613,7.90703 5.8064,12.29675c0.6717,2.60873 -1.72589,5.63112 -0.56449,8.06172c3.62357,7.58344 13.30653,10.57451 18.33275,17.31068c4.37287,5.86054 5.37615,13.80633 9.81032,19.62063c5.48776,7.19583 11.88572,13.87204 16.00336,21.93059c0.55808,1.66444 10.38565,30.79904 10.53303,31.97501c3.86232,30.81872 -10.50562,60.25867 -20.05975,88.83493c-4.50271,13.46756 -9.71193,26.83746 -14.99908,40.00112c-1.46336,3.64339 -3.25579,7.16127 -5.24191,10.54815c-1.008,1.71891 -3.84878,2.70995 -3.69805,4.69691c0.21507,2.83505 3.85651,4.43888 4.59929,7.18334c1.24393,4.59614 -0.01085,9.78495 1.86211,14.16261l6.83872,2.76335c0,0 10.22681,5.11341 5.11341,15.34022z" fill="#000000" stroke="none" stroke-width="0.5"/><path d="M331.40865,362.90428l0.6194,-3.63147c2.06466,-12.10491 4.12932,-24.20982 6.19399,-36.31473c1.10944,-6.50454 1.12333,-13.31533 3.43757,-19.49466c1.36193,-3.63653 4.09885,-6.64945 5.48967,-10.27502c0.95106,-2.47922 0.39296,-5.39874 1.45639,-7.83188c1.09966,-2.51602 3.24685,-4.42903 4.87027,-6.64355c1.59713,-9.36384 6.41042,-14.72768 11.96054,-22.27703c3.90215,-5.30777 6.42178,-11.5438 10.31568,-16.85763c7.64398,-10.43142 18.38125,-18.4393 23.19683,-30.98275c1.5805,-4.11682 3.68836,-14.10064 3.27054,-18.46807c-0.26149,-2.73335 -2.18921,-5.14406 -2.39268,-7.88234c-0.19676,-2.64808 1.27355,-5.21696 1.2221,-7.87184c-0.16137,-8.32782 -3.80302,-16.85578 -6.18868,-24.71501c-1.46198,-4.81629 -1.80549,-10.09751 -4.27971,-14.48068c-4.08946,-7.24462 -9.42649,-13.98688 -11.93454,-21.91897c-1.11659,-3.67846 -5.39448,-17.0638 -5.03333,-19.70276c0.45774,-3.34466 4.11688,-5.43913 5.42844,-8.54977c0.95417,-2.26301 0.11373,-5.07985 1.2388,-7.26295c1.97405,-3.83047 4.39041,-7.68099 7.81237,-10.30007c7.26114,-5.5575 17.33463,-5.84455 26.11748,-8.38845c1.93394,-0.56015 4.22531,-0.29741 5.85687,-1.47721c5.66361,-4.09543 7.88117,-11.91109 13.54645,-16.00421c2.58929,-1.87074 6.23367,-1.62563 9.06878,-3.09746c3.08259,-1.6003 5.25233,-4.79751 8.50174,-6.02415c0.38011,-0.14349 0.7597,-0.09446 1.14111,0.0469c-0.03502,-0.03769 -0.06527,-0.07646 -0.09017,-0.11632c-0.97816,-1.56615 -0.06393,-3.94256 -1.18225,-5.4119c-1.66298,-2.18496 -5.07069,-2.61956 -6.64355,-4.87027c-1.8298,-2.61838 -1.63779,-6.22739 -3.09746,-9.06878c-1.37768,-2.68178 -3.54624,-4.87687 -5.31936,-7.31531c0,0 -4.9647,-7.00657 2.04187,-11.97127c7.00657,-4.9647 11.97127,2.04187 11.97127,2.04187c2.24298,3.22939 4.93225,6.19077 6.72893,9.68818c1.0518,2.04743 0.34254,4.82822 1.68789,6.69591c1.60488,2.22799 5.1103,2.59239 6.64355,4.87027c2.42809,3.60733 6.83027,21.72815 5.35278,24.77597c-1.9129,3.94599 -7.91563,3.80488 -11.67807,6.05744c-2.97998,1.78411 -5.40447,4.45244 -8.50174,6.02415c-2.05263,1.04161 -4.79849,0.38481 -6.69591,1.68789c-1.66799,1.14552 -1.91012,3.60793 -3.23823,5.13455c-3.50547,4.02942 -6.82214,8.39771 -11.19815,11.45958c-8.55264,5.98423 -22.28567,4.27792 -31.08441,9.27575c-2.86462,1.62715 -2.54853,8.913 -3.16697,10.24997c-0.89646,1.93803 -3.79488,2.66559 -4.3121,4.73732c-0.3625,1.45199 1.60864,2.54702 2.1447,3.94427c0.98356,2.56363 1.59512,5.2549 2.39268,7.88234c2.03666,7.12152 7.38125,12.8457 10.92326,19.35095c0.33667,0.61832 4.87178,15.66768 5.29099,17.0487c2.98608,9.83724 6.54935,19.40101 6.92857,29.842c0.08193,2.25567 -1.43153,4.40377 -1.25549,6.65405c0.21415,2.73747 2.22489,5.14165 2.39268,7.88234c0.36303,5.93006 -2.01014,19.49743 -4.16225,25.1096c-5.61515,14.64301 -16.61079,23.32433 -25.50587,35.45272c-2.19187,2.9886 -3.25507,6.6721 -5.19145,9.83224c-5.72093,9.33648 -13.34087,15.00656 -15.21089,25.97032c-1.62342,2.21452 -3.7608,4.13184 -4.87027,6.64355c-0.91202,2.06469 -0.21263,4.58666 -1.02121,6.69401c-1.39107,3.62548 -4.06526,6.66251 -5.48967,10.27502c-2.08404,5.28545 -1.80116,11.21948 -2.75642,16.82007c-2.06466,12.10491 -4.74872,27.84129 -6.81339,39.9462c0,0 -1.44382,8.46496 -9.90878,7.02115c-8.46496,-1.44382 -7.02115,-9.90878 -7.02115,-9.90878zM455.2702,33.72371c0.73419,-0.04849 -0.59183,-0.21083 -1.73477,-0.59018c0.56665,0.32843 1.14246,0.62931 1.73477,0.59018z" data-paper-data="{&quot;index&quot;:null}" fill="#000000" stroke="none" stroke-width="0.5"/><path d="M-8.4985,62.88289v-28.52853h504.5045v28.52853z" fill="url(#color-32)" stroke="none" stroke-width="0"/><path d="M-11.00601,254.06908v-28.52853h504.5045v28.52853z" fill="url(#color-33)" stroke="none" stroke-width="0"/><path d="M57.56757,372.1922v-391.89189h27.02703v391.89189z" fill="url(#color-34)" stroke="#000000" stroke-width="0"/><path d="M397.4024,377.1922v-391.89189h27.02702v391.89189z" fill="url(#color-35)" stroke="#000000" stroke-width="0"/><text transform="translate(41.05106,22.13084) scale(0.5,0.5)" font-size="40" xml:space="preserve" fill="#ff0000" fill-rule="nonzero" stroke="#ff0000" stroke-width="3" stroke-linecap="butt" stroke-linejoin="miter" stroke-miterlimit="10" stroke-dasharray="" stroke-dashoffset="0" font-family="Sans Serif" font-weight="normal" text-anchor="start" style="mix-blend-mode: normal"><tspan x="0" dy="0">GAME OVER</tspan></text><text transform="translate(75.97448,293.57623) scale(0.44336,0.44336)" font-size="40" xml:space="preserve" fill="#0096ff" fill-rule="nonzero" stroke="#0096ff" stroke-width="3" stroke-linecap="butt" stroke-linejoin="miter" stroke-miterlimit="10" stroke-dasharray="" stroke-dashoffset="0" font-family="Sans Serif" font-weight="normal" text-anchor="start" style="mix-blend-mode: normal"><tspan x="0" dy="0">Don't shine your light when he arrives.</tspan></text><g fill="#000000" stroke="none" stroke-width="0"><path d="M-11.50149,379.48819v-394.89489h45.04505v394.89489z"/><path d="M448.45346,385.98969v-394.89489h45.04505v394.8949z"/></g></g></g></svg>