<svg version="1.1" xmlns="http://www.w3.org/2000/svg" xmlns:xlink="http://www.w3.org/1999/xlink" width="715.44117" height="510.76234" viewBox="0,0,715.44117,510.76234"><defs><linearGradient x1="264.36045" y1="188.46531" x2="414.38963" y2="172.13865" gradientUnits="userSpaceOnUse" id="color-1"><stop offset="0" stop-color="#6c6c6c"/><stop offset="1" stop-color="#c4c4c4"/></linearGradient><linearGradient x1="312.12891" y1="179.74654" x2="371.14039" y2="173.32472" gradientUnits="userSpaceOnUse" id="color-2"><stop offset="0" stop-color="#6e6e6e"/><stop offset="1" stop-color="#c0c0c0"/></linearGradient><linearGradient x1="330.78429" y1="81.83633" x2="334.43059" y2="115.34291" gradientUnits="userSpaceOnUse" id="color-3"><stop offset="0" stop-color="#a6a6a6"/><stop offset="1" stop-color="#707070"/></linearGradient><linearGradient x1="332.84665" y1="103.11249" x2="339.86712" y2="167.62511" gradientUnits="userSpaceOnUse" id="color-4"><stop offset="0" stop-color="#a6a6a6"/><stop offset="1" stop-color="#707070"/></linearGradient><linearGradient x1="289.52924" y1="90.80996" x2="317.54971" y2="167.33543" gradientUnits="userSpaceOnUse" id="color-5"><stop offset="0" stop-color="#a6a6a6"/><stop offset="1" stop-color="#707070"/></linearGradient><linearGradient x1="372.27584" y1="84.33531" x2="361.37183" y2="165.09669" gradientUnits="userSpaceOnUse" id="color-6"><stop offset="0" stop-color="#a6a6a6"/><stop offset="1" stop-color="#707070"/></linearGradient><linearGradient x1="338.48448" y1="152.59497" x2="340.4981" y2="171.09856" gradientUnits="userSpaceOnUse" id="color-7"><stop offset="0" stop-color="#a6a6a6"/><stop offset="1" stop-color="#707070"/></linearGradient><linearGradient x1="339.28023" y1="169.20702" x2="341.24224" y2="187.23628" gradientUnits="userSpaceOnUse" id="color-8"><stop offset="0" stop-color="#707070"/><stop offset="1" stop-color="#a6a6a6"/></linearGradient><radialGradient cx="241.78855" cy="267.92814" r="104.71462" gradientUnits="userSpaceOnUse" id="color-9"><stop offset="0" stop-color="#a94f05"/><stop offset="1" stop-color="#ff7b00"/></radialGradient><linearGradient x1="243.75375" y1="34.35436" x2="243.75375" y2="62.88289" gradientUnits="userSpaceOnUse" id="color-10"><stop offset="0" stop-color="#848484"/><stop offset="1" stop-color="#545454"/></linearGradient><linearGradient x1="241.24624" y1="225.54055" x2="241.24624" y2="254.06908" gradientUnits="userSpaceOnUse" id="color-11"><stop offset="0" stop-color="#848484"/><stop offset="1" stop-color="#545454"/></linearGradient><linearGradient x1="57.56757" y1="176.24626" x2="84.5946" y2="176.24626" gradientUnits="userSpaceOnUse" id="color-12"><stop offset="0" stop-color="#848484"/><stop offset="1" stop-color="#545454"/></linearGradient><linearGradient x1="397.4024" y1="181.24626" x2="424.42943" y2="181.24626" gradientUnits="userSpaceOnUse" id="color-13"><stop offset="0" stop-color="#848484"/><stop offset="1" stop-color="#545454"/></linearGradient></defs><g transform="translate(117.72058,30.18222)"><g data-paper-data="{&quot;isPaintingLayer&quot;:true}" fill-rule="nonzero" stroke-linecap="butt" stroke-linejoin="miter" stroke-miterlimit="10" stroke-dasharray="" stroke-dashoffset="0" style="mix-blend-mode: normal"><path d="M-17.50751,368.43845v-376.87688h515.01502v376.87688z" fill="#060606" stroke="none" stroke-width="NaN"/><g><g><path d="M330.8423,108.79772c47.7819,-5.19978 90.02551,22.82672 94.35365,62.59898c4.32815,39.77224 -30.89811,76.22928 -78.68005,81.42907c-47.78194,5.19979 -90.02551,-22.82672 -94.35365,-62.59898c-4.32815,-39.77224 30.89811,-76.22928 78.68005,-81.42907z" fill="#696969" stroke="#000000" stroke-width="2"/><path d="M332.80808,119.95691c41.42944,-4.50849 77.95474,18.8541 81.58157,52.18173c3.62683,33.32766 -27.01824,63.99992 -68.44767,68.50841c-41.42944,4.50849 -77.95471,-18.8541 -81.58153,-52.18174c-3.62683,-33.32766 27.01821,-63.99992 68.44763,-68.5084z" fill="none" stroke="url(#color-1)" stroke-width="4.5"/><g stroke="none" stroke-width="0"><path d="M315.50309,210.75255l-6.74836,-62.01207l59.01147,-6.42182l6.74836,62.01207z" fill="url(#color-2)"/><path d="M360.49567,163.85671l-1.9592,-18.00349l7.00133,-0.76191l1.9592,18.00349z" fill="#ffffff"/><path d="M362.72698,184.36069l-1.9592,-18.00349l7.00133,-0.76191l1.9592,18.00349z" fill="#ffffff"/><path d="M364.90387,204.36457l-1.9592,-18.00349l7.00133,-0.76191l1.9592,18.00349z" fill="#ffffff"/><path d="M313.93218,168.41786l-1.9592,-18.00349l7.00136,-0.76191l1.9592,18.00349z" fill="#ffffff"/><path d="M316.1635,188.92186l-1.9592,-18.00349l7.00136,-0.76191l1.9592,18.00349z" fill="#ffffff"/><path d="M318.34039,208.92577l-1.9592,-18.00349l7.00136,-0.76191l1.9592,18.00349z" fill="#ffffff"/><path d="M346.55608,206.26003l-0.65307,-6.00118l13.50261,-1.4694l0.65307,6.00118z" fill="#ffffff"/><path d="M330.9755,207.85436l-0.65307,-6.00118l13.50265,-1.4694l0.65307,6.00118z" fill="#ffffff"/></g><path d="M253.27129,191.11815c-4.32815,-39.77224 30.89811,-76.22926 78.68005,-81.42905c24.96823,-2.71712 -63.82573,19.07645 -57.59948,86.75887c4.30251,57.2506 72.06672,37.7713 67.63182,40.60151c6.66163,3.20222 7.98515,15.06321 1.82878,15.73316c-47.78194,5.19979 -86.21296,-21.8922 -90.5411,-61.66446z" fill="#ff0000" stroke="#000000" stroke-width="2"/><path d="M428.10287,171.41771c4.32815,39.77224 -27.37585,74.49659 -75.15776,79.69637c-6.15636,0.66995 -7.41512,-11.19804 -1.59822,-15.75822c5.87747,0.77567 63.05033,-5.38222 57.31538,-54.1987c-8.4779,-67.43738 -99.88125,-69.62128 -74.91303,-72.3384c47.78194,-5.19979 90.02547,22.82673 94.35361,62.59898z" data-paper-data="{&quot;index&quot;:null}" fill="#ff0000" stroke="#000000" stroke-width="2"/><path d="M326.1672,41.03772c64.3537,-7.00318 120.58361,24.63648 125.59304,70.66915c5.00943,46.03267 -10.34215,85.96448 -107.4523,96.02994c-102.57788,10.63221 -120.58359,-24.63649 -125.59302,-70.66918c-5.00943,-46.03267 43.09858,-89.02673 107.45228,-96.02991z" fill="#696969" stroke="#000000" stroke-width="2"/><path d="M298.67365,119.2341l-3.64629,-33.50652l71.51388,-7.78238l3.64629,33.50652z" fill="url(#color-3)" stroke="#000000" stroke-width="0"/><path d="M313.86206,170.45507l-7.02047,-64.51255l52.01012,-5.65991l7.02047,64.51255z" fill="url(#color-4)" stroke="none" stroke-width="0"/><path d="M311.64496,169.4975l-28.02046,-76.52538l11.8095,-4.32413l28.02046,76.52538z" fill="url(#color-5)" stroke="none" stroke-width="0"/><path d="M355.14026,164.25532l10.90402,-80.76127l12.46318,1.6827l-10.90404,80.76131z" data-paper-data="{&quot;index&quot;:null}" fill="url(#color-6)" stroke="none" stroke-width="0"/><path d="M299.74019,175.53397l-2.01362,-18.50359l81.51584,-8.87082l2.01362,18.50359z" fill="url(#color-7)" stroke="none" stroke-width="0"/><path d="M287.9768,181.72403c-2.28243,1.05682 -3.33929,-1.22567 -3.33929,-1.22567l-0.34242,-0.82545c-1.54027,-2.23647 -3.08945,-5.42124 -5.21131,-7.21115c-0.81931,-0.69111 -3.80611,-1.6441 -4.44817,-2.04188c-8.82584,-5.46794 -23.33439,-15.46192 -16.64598,-27.34722c3.12811,-1.40863 13.14805,-3.64468 13.5612,-8.42088c0.5865,-6.78039 -4.68572,-11.65208 -2.35764,-18.95199c2.69639,-8.45487 11.84738,-13.78195 18.72886,-18.72242c0,0 2.04333,-1.46675 3.51008,0.57659c1.46675,2.04333 -0.57659,3.51004 -0.57659,3.51004c-5.79908,4.16194 -14.58515,8.97428 -16.85661,16.12272c-2.82294,8.88391 7.52435,17.16596 -1.6543,24.74604c-0.97098,0.80185 -2.1463,1.32744 -3.28372,1.86775c-1.68108,0.79861 -5.76665,2.29201 -7.71713,3.02122c-1.54974,2.92557 1.4691,6.96747 3.20309,9.29067c4.56772,6.11967 12.12658,7.79775 17.67721,12.41949c2.58462,2.15212 4.33361,5.55815 6.21382,8.2875l0.76452,1.5654c0,0 1.0568,2.28247 -1.22567,3.33929z" fill="#000000" stroke="none" stroke-width="0.5"/><path d="M270.33911,191.74749c-2.50725,0.20051 -2.70773,-2.30671 -2.70773,-2.30671l-0.03523,-0.89299c-0.66995,-2.63161 -1.01964,-6.15587 -2.38992,-8.57006c-0.5291,-0.93217 -3.00066,-2.86103 -3.46513,-3.45667c-6.38455,-8.18724 -16.53159,-22.58918 -6.13936,-31.42081c3.42244,-0.23755 13.59644,1.13676 15.63886,-3.20045c2.8995,-6.15717 -0.35813,-12.55382 4.35502,-18.59489c5.45888,-6.99686 15.88874,-8.82331 24.05583,-11.07335c0,0 2.42497,-0.66793 3.09283,1.75703c0.6679,2.42497 -1.75708,3.09281 -1.75708,3.09281c-6.88189,1.89483 -16.79115,3.36482 -21.39876,9.28339c-5.7262,7.35549 1.11045,18.70971 -10.126,22.63997c-1.18866,0.41575 -2.47326,0.50154 -3.72741,0.61428c-1.85365,0.16663 -6.20358,0.15194 -8.28587,0.16021c-2.46737,2.20739 -1.03611,7.04489 -0.21445,9.82498c2.16439,7.32325 8.67357,11.51643 12.27901,17.77508c1.67886,2.9143 2.13932,6.71535 2.95738,9.92711l0.1748,1.73334c0,0 0.2005,2.5072 -2.30678,2.70771z" fill="#000000" stroke="none" stroke-width="0.5"/><path d="M387.71162,165.64062l0.40996,-1.69325c1.24915,-3.0699 2.22453,-6.77243 4.28574,-9.4301c4.42657,-5.70745 11.44751,-8.97215 14.59198,-15.93109c1.19372,-2.64174 3.27241,-7.23846 1.1297,-9.76218c-2.06164,-0.2926 -6.37281,-0.87225 -8.18635,-1.29055c-1.22702,-0.283 -2.48788,-0.54347 -3.60857,-1.11771c-10.59424,-5.42833 -2.27065,-15.74221 -6.93843,-23.81092c-3.7559,-6.49249 -13.37148,-9.30236 -19.93002,-12.11951c0,0 -2.31099,-0.99286 -1.31813,-3.30385c0.9929,-2.31099 3.30389,-1.31811 3.30389,-1.31811c7.78311,3.3446 17.86573,6.57864 22.31768,14.25561c3.84377,6.62823 -0.25712,12.51999 1.77411,19.01552c1.43083,4.57553 11.69716,4.60393 15.05504,5.30674c9.0884,10.16841 -2.9308,23.0493 -10.37393,30.28762c-0.54146,0.5266 -3.25339,2.09973 -3.90484,2.95089c-1.68719,2.20442 -2.51507,5.64787 -3.53819,8.1633l-0.15688,0.87978c0,0 -0.5411,2.45638 -2.99745,1.91525c-2.45636,-0.54113 -1.91526,-2.99749 -1.91526,-2.99749z" data-paper-data="{&quot;index&quot;:null}" fill="#000000" stroke="none" stroke-width="0.5"/><path d="M406.17259,172.48486l-0.20213,-1.73037c0.1081,-3.31255 -0.2598,-7.1237 0.75288,-10.33087c2.17479,-6.88764 7.62965,-12.38279 8.16815,-20.00017c0.20443,-2.89176 0.56167,-7.92394 -2.32278,-9.54891c-2.03533,0.43988 -6.28025,1.38986 -8.12637,1.62589c-1.24907,0.15969 -2.52205,0.35222 -3.77229,0.2019c-11.81883,-1.4213 -7.58445,-13.98034 -14.75881,-19.93192c-5.77281,-4.789 -15.76633,-4.09305 -22.89469,-4.46324c0,0 -2.51186,-0.13059 -2.38121,-2.64247c0.13066,-2.51187 2.64253,-2.38121 2.64253,-2.38121c8.45984,0.44065 19.03844,-0.01913 25.87459,5.63978c5.90225,4.88587 4.09679,11.83353 8.25282,17.22286c2.92755,3.79634 12.5678,0.26579 15.96123,-0.23838c12.04864,6.38952 5.23703,22.63696 0.76294,32.00589c-0.32548,0.68157 -2.32429,3.09695 -2.64051,4.12114c-0.81893,2.65242 -0.40235,6.16941 -0.49056,8.88353l0.15765,0.87963c0,0 0.34354,2.49166 -2.14815,2.83518c-2.49169,0.3435 -2.83518,-2.14815 -2.83518,-2.14815z" data-paper-data="{&quot;index&quot;:null}" fill="#000000" stroke="none" stroke-width="0.5"/><path d="M403.55858,83.12908c2.14485,19.70947 -12.5934,37.48023 -32.9188,39.69211c-20.32543,2.21188 -38.54109,-11.97272 -40.68594,-31.6822c-2.14485,-19.70947 12.59336,-37.48028 32.91875,-39.69215c20.3254,-2.21188 38.54114,11.97277 40.68599,31.68224z" data-paper-data="{&quot;index&quot;:null}" fill="#000000" stroke="#000000" stroke-width="2"/><path d="M374.16655,85.99282c0.5186,4.76549 -2.76651,9.03196 -7.33752,9.52939c-4.57098,0.49743 -8.6969,-2.96253 -9.2155,-7.72803c-0.5186,-4.76549 2.76651,-9.03196 7.33749,-9.52938c4.57098,-0.49743 8.69693,2.96252 9.21552,7.72803z" data-paper-data="{&quot;index&quot;:null}" fill="#000000" stroke="#000000" stroke-width="1.5"/><path d="M293.84859,59.55865c19.10738,-2.07933 36.23147,11.25526 38.24778,29.78355c2.01631,18.52833 -11.83871,35.23413 -30.94606,37.31345c-19.10738,2.07933 -36.23146,-11.25522 -38.24778,-29.78355c-2.01631,-18.52833 11.83868,-35.23413 30.94606,-37.31345z" fill="#000000" stroke="#000000" stroke-width="2"/><path d="M254.47536,196.67854l-1.962,-18.02926l173.53376,-18.88451l1.962,18.02926c0,0 -27.22394,23.62279 -82.89809,29.23616c-61.29107,6.17967 -90.63565,-10.35165 -90.63565,-10.35165z" fill="url(#color-8)" stroke="none" stroke-width="0"/><path d="M323.62951,40.96791c1.30325,-0.14182 7.7121,53.53287 12.58939,100.00576c-0.71451,-0.43477 -1.52186,-0.40853 -1.52186,-0.40853c-14.10774,0.5294 -58.70043,5.87659 -67.24758,6.51502c-15.42785,0.63744 -32.19923,3.66248 -47.46304,-0.55891c-0.52294,-3.23671 -0.95114,-6.50897 -1.30879,-9.79552c-5.00943,-46.03267 41.97911,-88.9049 104.95182,-95.7578zM267.04843,96.8226c1.07094,11.05465 15.22501,26.66707 36.19539,25.68508c7.50363,-0.35136 27.97145,-14.67047 22.78337,-36.92675c-1.30595,-5.60244 -9.20664,-25.26699 -33.53102,-21.14463c-13.05986,2.21331 -27.39277,12.30916 -25.44774,32.38628z" fill="#ff0000" stroke="#000000" stroke-width="2"/><path d="M341.33858,203.7003c-88.16645,16.2873 -112.87833,-16.02835 -120.80737,-55.72331c15.21392,3.47125 31.50723,0.78045 46.77716,0.15852c8.73186,-0.65222 53.27578,-6.11688 67.1205,-6.50926c0,0 1.04412,-0.03398 1.76467,-0.73096c3.5054,33.7053 6.08952,62.63052 5.1451,62.805z" fill="#ff0000" stroke="#000000" stroke-width="2"/><path d="M451.84719,112.02616c0.35765,3.28655 0.64334,6.57432 0.82885,9.84775c-13.99852,7.40582 -31.02796,8.0591 -46.23181,10.75509c-8.4844,1.21503 -53.18338,5.58485 -67.07477,8.10238c0,0 -0.79407,0.14803 -1.39837,0.72632c-5.2331,-46.43413 -10.51968,-100.23099 -9.21647,-100.37281c62.97271,-6.8529 118.08313,24.9086 123.09256,70.94129zM366.0287,55.60371c-24.64173,1.20629 -28.12761,22.10994 -28.19794,27.86216c-0.27929,22.85126 22.78942,32.43259 30.19298,31.1617c20.69072,-3.55171 31.15526,-21.84326 29.82329,-32.86943c-2.4191,-20.02553 -18.58809,-26.80204 -31.81835,-26.15437z" data-paper-data="{&quot;index&quot;:null}" fill="#ff0000" stroke="#000000" stroke-width="2"/><path d="M337.97629,141.35015c0.85361,0.52569 1.88055,0.33425 1.88055,0.33425c13.60505,-2.5948 58.28174,-6.8394 66.94952,-8.08068c15.04634,-2.6772 31.537,-3.55409 45.64811,-10.21658c0.79492,40.47132 -16.38749,77.34603 -105.99352,80.40452c-0.95987,0.03278 -4.658,-28.77121 -8.48464,-62.44155z" data-paper-data="{&quot;index&quot;:null}" fill="#ff0000" stroke="#000000" stroke-width="2"/><path d="M333.17545,108.09375c18.78131,-2.04384 35.66346,11.52457 37.70731,30.30592c2.04384,18.78131 -11.52454,35.66346 -30.30588,37.7073c-18.78131,2.04384 -35.66352,-11.52456 -37.70737,-30.30588c-2.04384,-18.78131 11.5246,-35.6635 30.30594,-37.70735z" fill="#ff7b00" stroke="#000000" stroke-width="2"/><path d="M307.37209,93.26161c0.5186,4.76549 -2.76651,9.03196 -7.33752,9.52939c-4.57098,0.49743 -8.6969,-2.96253 -9.2155,-7.72803c-0.5186,-4.76549 2.76651,-9.03196 7.33749,-9.52938c4.57098,-0.49743 8.69693,2.96252 9.21552,7.72803z" data-paper-data="{&quot;index&quot;:null}" fill="#000000" stroke="#000000" stroke-width="1.5"/></g><path d="M303.9817,94.28508c0,3.16957 -2.40885,5.73901 -5.38033,5.73901c-2.97148,0 -5.38033,-2.56944 -5.38033,-5.73901c0,-3.16957 2.40885,-5.73901 5.38033,-5.73901c2.97148,0 5.38033,2.56944 5.38033,5.73901z" fill="#000000" stroke="#ff0000" stroke-width="1.5"/><path d="M372.14686,84.45325c0,3.16957 -2.40884,5.73901 -5.38032,5.73901c-2.97148,0 -5.38033,-2.56944 -5.38033,-5.73901c0,-3.16957 2.40885,-5.739 5.38033,-5.739c2.97148,0 5.38032,2.56943 5.38032,5.739z" fill="#000000" stroke="#ff0000" stroke-width="1.5"/></g><g stroke="#000000"><g stroke-width="3.5"><path d="M241.78865,163.21356c57.8322,0 104.71452,46.88233 104.71452,104.71462c0,57.8322 -46.88223,104.71452 -104.71452,104.71452c-57.8322,0 -104.71471,-46.88232 -104.71471,-104.71452c0,-57.8322 46.88242,-104.71462 104.71471,-104.71462z" fill="url(#color-9)"/><path d="M-114.05589,266.78128c45.14945,15.60212 95.62439,12.80935 142.29987,15.97369c26.78881,0.90693 164.15473,-0.97151 206.41696,2.41938c0,0 3.18871,0.24239 5.6123,-1.64007c-0.49459,103.73294 0.77856,192.62195 -2.15386,192.83224c-280.79369,20.13663 -341.1914,-86.15958 -352.17527,-209.58524z" fill="#a90000"/></g><path d="M240.11104,-22.73398c4.013,0 0.76132,165.46537 0.21341,308.50699c-2.03041,-1.55973 -4.49605,-1.74725 -4.49605,-1.74725c-43.10806,-3.06101 -180.58344,-1.55625 -206.80556,-2.44393c-47.16118,-3.16938 -99.2017,0.48223 -144.25451,-17.41927c-0.51951,-10.02316 -0.73891,-20.1231 -0.73891,-30.24319c0,-90.4454 2.74747,-204.54241 108.42385,-249.90007c51.85449,-22.25661 147.87154,-8.58276 242.80474,-5.14529c1.61428,-0.53742 4.85304,-1.60798 4.85304,-1.60798zM44.44632,128.50511c-0.40188,33.99621 37.50142,86.1954 101.64371,90.15179c22.95142,1.41572 89.98122,-35.38187 81.56349,-104.8304c-2.1189,-17.48184 -19.64994,-79.94155 -95.03919,-75.45191c-40.47677,2.4105 -87.43816,28.38756 -88.16801,90.13044z" fill="#a90000" stroke-width="3.5"/><path d="M44.39632,128.50508c0.72985,-61.74288 47.73913,-87.76994 88.2159,-90.18044c75.38925,-4.48964 92.97177,58.01213 95.09067,75.49397c8.41773,69.44853 -58.65611,106.30373 -81.60753,104.88801c-64.14229,-3.95639 -102.10092,-56.20525 -101.69904,-90.20146z" data-paper-data="{&quot;noHover&quot;:true,&quot;origItem&quot;:[&quot;Path&quot;,{&quot;applyMatrix&quot;:true,&quot;segments&quot;:[[[44.44632,128.50511],[0,0],[-0.40188,33.99621]],[[146.09003,218.6569],[-64.14229,-3.95639],[22.95142,1.41572]],[[227.65352,113.8265],[8.41773,69.44853],[-2.1189,-17.48184]],[[132.61433,38.37459],[75.38925,-4.48964],[-40.47677,2.4105]],[[44.44632,128.50503],[0.72985,-61.74288],[0,0]]],&quot;closed&quot;:true,&quot;fillColor&quot;:[0,0,0,1],&quot;strokeColor&quot;:[0,0,0],&quot;strokeWidth&quot;:3.5}]}" fill="#000000" stroke-width="1.75"/><path d="M244.742,-21.12599c95.36853,-3.45324 178.08273,-12.49781 230.00342,9.95663c105.09128,45.44943 121.22517,154.84684 121.22517,245.08873c0,10.12009 -0.2194,20.22003 -0.73891,30.24319c-45.05281,17.9015 -97.09333,14.24989 -144.25451,17.41927c-26.22212,0.88768 -163.69751,-0.61708 -206.80556,2.44393c0,0 -2.46564,0.18752 -4.49605,1.74725c-0.54792,-143.04162 -3.7996,-308.50699 0.21341,-308.50699c0,0 3.23876,1.07056 4.85304,1.60798zM435.55368,128.50502c-0.72984,-61.74288 -47.69123,-87.71994 -88.16801,-90.13044c-75.38925,-4.48964 -92.92029,57.97007 -95.03919,75.45191c-8.41773,69.44853 58.61207,106.24613 81.56349,104.8304c64.14229,-3.95639 102.04559,-56.15558 101.64371,-90.15179z" data-paper-data="{&quot;index&quot;:null}" fill="#a90000" stroke-width="3.5"/><path d="M241.88062,476.36652c-2.93242,-0.21029 -1.65926,-89.0993 -2.15386,-192.83224c2.42359,1.88246 5.6123,1.64007 5.6123,1.64007c42.26223,-3.39089 179.62815,-1.51245 206.41696,-2.41938c46.67547,-3.16434 97.15041,-0.37157 142.29987,-15.97369c-10.98387,123.42566 -71.38157,229.72187 -352.17527,209.58524z" data-paper-data="{&quot;index&quot;:null}" fill="#a90000" stroke-width="3.5"/></g><path d="M78.53358,368.79149c-5.11341,10.22681 -15.34022,5.11341 -15.34022,5.11341l-12.78192,-7.04697c-2.6494,-5.08945 -6.21471,-9.79872 -7.94821,-15.26835c-0.98797,-3.11729 0.74577,-6.62639 0,-9.81032c-1.0251,-4.3765 -5.35901,-7.94478 -5.21103,-12.4373c0.1907,-5.78939 8.2327,-17.84939 10.68067,-23.99621c8.89798,-22.34268 16.61302,-45.02818 24.24219,-67.91237c0.75973,-2.27887 9.0172,-26.67277 9.34444,-29.13135c2.35853,-17.71981 -3.70009,-30.0773 -9.06084,-46.26505c-3.17227,-6.57765 -9.08652,-11.43837 -13.42759,-17.31068c-4.34672,-5.87996 -5.40354,-13.78554 -9.81032,-19.62063c-6.77916,-8.97641 -15.32405,-11.03454 -20.90852,-21.93059c-1.75946,-3.43294 0.34262,-7.80952 -0.56449,-11.55891c-2.47632,-10.23547 -12.14039,-19.01054 -14.71548,-29.43095c-5.45287,-22.06569 6.71435,-47.63658 24.06316,-60.95425c8.49253,-6.51922 21.38734,-10.85874 31.00308,-15.66661c0,0 10.22681,-5.11341 15.34022,5.11341c5.11341,10.22681 -5.11341,15.34022 -5.11341,15.34022c-8.7103,4.35515 -19.97765,8.06738 -27.85883,13.76435c-10.17182,7.35278 -18.39662,24.52289 -15.17811,37.14893c1.59009,6.23785 6.10213,11.34109 8.90907,17.13421c1.97653,4.07927 4.67613,7.90703 5.8064,12.29675c0.6717,2.60873 -1.72589,5.63112 -0.56449,8.06172c3.62357,7.58344 13.30653,10.57451 18.33275,17.31068c4.37287,5.86054 5.37615,13.80633 9.81032,19.62063c5.48776,7.19583 11.88572,13.87204 16.00336,21.93059c0.55808,1.66444 10.38565,30.79904 10.53303,31.97501c3.86232,30.81872 -10.50562,60.25867 -20.05975,88.83493c-4.50271,13.46756 -9.71193,26.83746 -14.99908,40.00112c-1.46336,3.64339 -3.25579,7.16127 -5.24191,10.54815c-1.008,1.71891 -3.84878,2.70995 -3.69805,4.69691c0.21507,2.83505 3.85651,4.43888 4.59929,7.18334c1.24393,4.59614 -0.01085,9.78495 1.86211,14.16261l6.83872,2.76335c0,0 10.22681,5.11341 5.11341,15.34022z" fill="#000000" stroke="none" stroke-width="0.5"/><path d="M331.40865,362.90428l0.6194,-3.63147c2.06466,-12.10491 4.12932,-24.20982 6.19399,-36.31473c1.10944,-6.50454 1.12333,-13.31533 3.43757,-19.49466c1.36193,-3.63653 4.09885,-6.64945 5.48967,-10.27502c0.95106,-2.47922 0.39296,-5.39874 1.45639,-7.83188c1.09966,-2.51602 3.24685,-4.42903 4.87027,-6.64355c1.59713,-9.36384 6.41042,-14.72768 11.96054,-22.27703c3.90215,-5.30777 6.42178,-11.5438 10.31568,-16.85763c7.64398,-10.43142 18.38125,-18.4393 23.19683,-30.98275c1.5805,-4.11682 3.68836,-14.10064 3.27054,-18.46807c-0.26149,-2.73335 -2.18921,-5.14406 -2.39268,-7.88234c-0.19676,-2.64808 1.27355,-5.21696 1.2221,-7.87184c-0.16137,-8.32782 -3.80302,-16.85578 -6.18868,-24.71501c-1.46198,-4.81629 -1.80549,-10.09751 -4.27971,-14.48068c-4.08946,-7.24462 -9.42649,-13.98688 -11.93454,-21.91897c-1.11659,-3.67846 -5.39448,-17.0638 -5.03333,-19.70276c0.45774,-3.34466 4.11688,-5.43913 5.42844,-8.54977c0.95417,-2.26301 0.11373,-5.07985 1.2388,-7.26295c1.97405,-3.83047 4.39041,-7.68099 7.81237,-10.30007c7.26114,-5.5575 17.33463,-5.84455 26.11748,-8.38845c1.93394,-0.56015 4.22531,-0.29741 5.85687,-1.47721c5.66361,-4.09543 7.88117,-11.91109 13.54645,-16.00421c2.58929,-1.87074 6.23367,-1.62563 9.06878,-3.09746c3.08259,-1.6003 5.25233,-4.79751 8.50174,-6.02415c0.38011,-0.14349 0.7597,-0.09446 1.14111,0.0469c-0.03502,-0.03769 -0.06527,-0.07646 -0.09017,-0.11632c-0.97816,-1.56615 -0.06393,-3.94256 -1.18225,-5.4119c-1.66298,-2.18496 -5.07069,-2.61956 -6.64355,-4.87027c-1.8298,-2.61838 -1.63779,-6.22739 -3.09746,-9.06878c-1.37768,-2.68178 -3.54624,-4.87687 -5.31936,-7.31531c0,0 -4.9647,-7.00657 2.04187,-11.97127c7.00657,-4.9647 11.97127,2.04187 11.97127,2.04187c2.24298,3.22939 4.93225,6.19077 6.72893,9.68818c1.0518,2.04743 0.34254,4.82822 1.68789,6.69591c1.60488,2.22799 5.1103,2.59239 6.64355,4.87027c2.42809,3.60733 6.83027,21.72815 5.35278,24.77597c-1.9129,3.94599 -7.91563,3.80488 -11.67807,6.05744c-2.97998,1.78411 -5.40447,4.45244 -8.50174,6.02415c-2.05263,1.04161 -4.79849,0.38481 -6.69591,1.68789c-1.66799,1.14552 -1.91012,3.60793 -3.23823,5.13455c-3.50547,4.02942 -6.82214,8.39771 -11.19815,11.45958c-8.55264,5.98423 -22.28567,4.27792 -31.08441,9.27575c-2.86462,1.62715 -2.54853,8.913 -3.16697,10.24997c-0.89646,1.93803 -3.79488,2.66559 -4.3121,4.73732c-0.3625,1.45199 1.60864,2.54702 2.1447,3.94427c0.98356,2.56363 1.59512,5.2549 2.39268,7.88234c2.03666,7.12152 7.38125,12.8457 10.92326,19.35095c0.33667,0.61832 4.87178,15.66768 5.29099,17.0487c2.98608,9.83724 6.54935,19.40101 6.92857,29.842c0.08193,2.25567 -1.43153,4.40377 -1.25549,6.65405c0.21415,2.73747 2.22489,5.14165 2.39268,7.88234c0.36303,5.93006 -2.01014,19.49743 -4.16225,25.1096c-5.61515,14.64301 -16.61079,23.32433 -25.50587,35.45272c-2.19187,2.9886 -3.25507,6.6721 -5.19145,9.83224c-5.72093,9.33648 -13.34087,15.00656 -15.21089,25.97032c-1.62342,2.21452 -3.7608,4.13184 -4.87027,6.64355c-0.91202,2.06469 -0.21263,4.58666 -1.02121,6.69401c-1.39107,3.62548 -4.06526,6.66251 -5.48967,10.27502c-2.08404,5.28545 -1.80116,11.21948 -2.75642,16.82007c-2.06466,12.10491 -4.74872,27.84129 -6.81339,39.9462c0,0 -1.44382,8.46496 -9.90878,7.02115c-8.46496,-1.44382 -7.02115,-9.90878 -7.02115,-9.90878zM455.2702,33.72371c0.73419,-0.04849 -0.59183,-0.21083 -1.73477,-0.59018c0.56665,0.32843 1.14246,0.62931 1.73477,0.59018z" data-paper-data="{&quot;index&quot;:null}" fill="#000000" stroke="none" stroke-width="0.5"/><path d="M-8.4985,62.88289v-28.52853h504.5045v28.52853z" fill="url(#color-10)" stroke="none" stroke-width="0"/><path d="M-11.00601,254.06908v-28.52853h504.5045v28.52853z" fill="url(#color-11)" stroke="none" stroke-width="0"/><path d="M57.56757,372.1922v-391.89189h27.02703v391.89189z" fill="url(#color-12)" stroke="#000000" stroke-width="0"/><path d="M397.4024,377.1922v-391.89189h27.02702v391.89189z" fill="url(#color-13)" stroke="#000000" stroke-width="0"/><text transform="translate(41.05106,22.13084) scale(0.5,0.5)" font-size="40" xml:space="preserve" fill="#ff0000" fill-rule="nonzero" stroke="#ff0000" stroke-width="3" stroke-linecap="butt" stroke-linejoin="miter" stroke-miterlimit="10" stroke-dasharray="" stroke-dashoffset="0" font-family="Sans Serif" font-weight="normal" text-anchor="start" style="mix-blend-mode: normal"><tspan x="0" dy="0">GAME OVER</tspan></text><text transform="translate(38.54355,292.89661) scale(0.5,0.5)" font-size="40" xml:space="preserve" fill="#ff0000" fill-rule="nonzero" stroke="#ff0000" stroke-width="3" stroke-linecap="butt" stroke-linejoin="miter" stroke-miterlimit="10" stroke-dasharray="" stroke-dashoffset="0" font-family="Sans Serif" font-weight="normal" text-anchor="start" style="mix-blend-mode: normal"><tspan x="0" dy="0">Put the mask on when he is seen peeking.</tspan></text><g fill="#000000" stroke="none" stroke-width="0"><path d="M-11.50149,379.48819v-394.89489h45.04505v394.89489z"/><path d="M448.45346,385.98969v-394.89489h45.04505v394.8949z"/></g></g></g></svg>