<svg version="1.1" xmlns="http://www.w3.org/2000/svg" xmlns:xlink="http://www.w3.org/1999/xlink" width="369.52784" height="269.75" viewBox="0,0,369.52784,269.75"><defs><linearGradient x1="280.24999" y1="285.19444" x2="280.24999" y2="363.69449" gradientUnits="userSpaceOnUse" id="color-1"><stop offset="0" stop-color="#704700"/><stop offset="1" stop-color="#412900"/></linearGradient><linearGradient x1="291.25" y1="309.19444" x2="291.25" y2="387.69449" gradientUnits="userSpaceOnUse" id="color-2"><stop offset="0" stop-color="#704700"/><stop offset="1" stop-color="#412900"/></linearGradient><linearGradient x1="51.96396" y1="289.00001" x2="51.96396" y2="412.00001" gradientUnits="userSpaceOnUse" id="color-3"><stop offset="0" stop-color="#704700"/><stop offset="1" stop-color="#412900"/></linearGradient><linearGradient x1="152.77288" y1="252.00003" x2="152.77288" y2="307.00028" gradientUnits="userSpaceOnUse" id="color-4"><stop offset="0" stop-color="#9c6200"/><stop offset="1" stop-color="#854d00"/></linearGradient><linearGradient x1="49.21396" y1="324.00001" x2="49.21396" y2="406.50001" gradientUnits="userSpaceOnUse" id="color-5"><stop offset="0" stop-color="#553600"/><stop offset="1" stop-color="#2b1b00"/></linearGradient><linearGradient x1="140" y1="226.16668" x2="140" y2="265.16666" gradientUnits="userSpaceOnUse" id="color-6"><stop offset="0" stop-color="#000000"/><stop offset="1" stop-color="#2f2f2f"/></linearGradient><linearGradient x1="140.25" y1="145.36842" x2="140.25" y2="237.13159" gradientUnits="userSpaceOnUse" id="color-7"><stop offset="0" stop-color="#5e5e5e"/><stop offset="1" stop-color="#000000"/></linearGradient><linearGradient x1="273.17718" y1="260.51682" x2="299.73035" y2="260.51682" gradientUnits="userSpaceOnUse" id="color-8"><stop offset="0" stop-color="#ff0000"/><stop offset="1" stop-color="#a00000"/></linearGradient><linearGradient x1="286.50086" y1="239.74844" x2="286.50086" y2="243.92108" gradientUnits="userSpaceOnUse" id="color-9"><stop offset="0" stop-color="#ffffff"/><stop offset="1" stop-color="#a3a3a3"/></linearGradient><linearGradient x1="257.91666" y1="283.92182" x2="257.91666" y2="317.13374" gradientUnits="userSpaceOnUse" id="color-10"><stop offset="0" stop-color="#f3f3f3"/><stop offset="1" stop-color="#bcbcbc"/></linearGradient><linearGradient x1="30.66666" y1="261.13472" x2="30.66666" y2="291.18671" gradientUnits="userSpaceOnUse" id="color-11"><stop offset="0" stop-color="#f3f3f3"/><stop offset="1" stop-color="#bcbcbc"/></linearGradient></defs><g transform="translate(17.16667,-142.25001)"><g data-paper-data="{&quot;isPaintingLayer&quot;:true}" fill-rule="nonzero" stroke-linecap="butt" stroke-linejoin="miter" stroke-miterlimit="10" stroke-dasharray="" stroke-dashoffset="0" style="mix-blend-mode: normal"><path d="M162.61458,254.86112c1,0 1,1 1,1c0,3.77778 0,8.55556 0,12.33333c0,7.36546 1.08643,14.38281 1.66363,21.68871c0.43787,5.54235 0.48899,11.04253 1.10939,16.54642c0.46974,4.25655 0.76901,8.78625 1.8934,12.94058c1.03473,3.82305 3.59864,7.04748 4.63342,10.90095c0.7642,2.84584 0.48287,6.28725 0.00755,9.14966c-0.63572,2.12907 -1.80959,4.33354 -1.97738,6.54259c-0.62037,8.16781 2.64812,16.79801 9.26999,21.76442c0,0 0.8,0.6 0.2,1.4c-0.6,0.8 -1.4,0.2 -1.4,0.2c-7.10889,-5.33167 -10.82742,-14.722 -10.06333,-23.52746c0.2041,-2.35209 1.34189,-4.57467 2.02261,-6.83219c0.423,-2.52727 0.69538,-5.67162 0.00755,-8.18367c-1.05198,-3.84201 -3.58091,-7.0683 -4.6315,-10.89378c-1.16232,-4.23233 -1.46451,-8.90121 -1.95008,-13.24022c-0.60585,-5.52434 -0.67211,-11.04703 -1.11536,-16.60911c-0.58631,-7.35729 -1.6699,-14.42855 -1.6699,-21.84689c0,-3.77778 0,-7.55556 0,-11.33333v-1c0,0 0,-1 1,-1z" fill="#000000" stroke="none" stroke-width="0.5"/><path d="M145.16928,273.69575c0.83205,0.5547 0.27735,1.38675 0.27735,1.38675l-0.60922,0.90224c-1.09353,2.85432 -4.33709,6.72748 -6.51573,8.91684c-0.62883,0.62419 -1.15662,1.31598 -1.60839,2.05738c2.02305,3.94137 4.82033,7.64029 6.65071,11.66765c1.42263,3.13018 3.69099,7.63011 1.54036,10.85977c0.12686,2.93674 -1.16687,6.22292 -1.99791,8.99305c-0.58266,1.9422 -1.91825,5.19625 -0.44123,7.18932c2.96465,4.00044 8.42334,5.29984 10.13224,10.31214c3.4327,10.30562 8.90526,19.71197 10.01214,30.78076c0,0 0.0995,0.99504 -0.89553,1.09454c-0.99504,0.0995 -1.09454,-0.89553 -1.09454,-0.89553c-1.09032,-10.90316 -6.53213,-20.19258 -9.91943,-30.34731c-1.51355,-4.67416 -7.24233,-6.02193 -9.93618,-9.89313c-3.37264,-4.84666 2.04146,-12.6551 2.22753,-17.81763c2.15195,-3.22421 -0.75473,-8.1985 -2.26144,-11.23887c-1.44509,-2.91603 -3.42537,-5.69358 -5.08249,-8.56511c-1.22337,2.99348 -1.73238,6.43247 -2.7576,9.43141c-2.17661,6.36693 -5.79074,12.57799 -9.77884,17.88911c-2.18728,3.64547 -5.74793,6.79913 -6.85574,11.00142c-0.81549,3.09345 0.86364,7.28611 1.35173,10.31841c0.47606,2.95756 -0.03238,6.71047 -0.8022,9.50633c-1.45934,5.22927 -4.52035,11.65574 -8.25051,15.67839c-1.2278,1.32407 -2.70503,1.56881 -3.96004,2.70045c-2.58179,2.32798 -5.69279,5.78593 -7.45559,8.75151c0,0 -0.5145,0.85749 -1.37199,0.343c-0.85749,-0.5145 -0.343,-1.37199 -0.343,-1.37199c1.88576,-3.11725 5.12924,-6.8083 7.87774,-9.24849c1.18967,-1.05622 2.67371,-1.3074 3.77951,-2.52695c3.49475,-3.85426 6.42278,-9.89119 7.79687,-14.86128c0.70763,-2.52228 1.19773,-6.05222 0.7442,-8.7266c-0.56836,-3.35153 -2.15881,-7.58692 -1.31494,-11.01493c1.10499,-4.48871 4.83237,-7.81209 7.14426,-11.66524c3.88504,-5.18608 7.43646,-11.2278 9.55449,-17.44422c1.228,-3.60418 1.79248,-7.57102 3.47498,-10.93086c-0.245,-0.49817 -0.47451,-1.00073 -0.6843,-1.50882c-1.28324,-3.10782 -1.18618,-6.37172 -1.17712,-9.65666c0.61243,-3.1027 1.41496,-5.71331 4.67891,-6.85015l0.53568,-0.27908c0,0 0.89443,-0.44721 1.34164,0.44721c0.44721,0.89443 -0.44721,1.34164 -0.44721,1.34164l-0.79765,0.38759c-2.45864,0.76802 -2.86482,2.90244 -3.32109,5.14985c0.0092,2.96567 -0.11262,5.89663 1.03931,8.70564c0.02726,0.06649 0.05483,0.13288 0.08268,0.19918c0.35256,-0.48043 0.74218,-0.94073 1.17578,-1.37713c2.07238,-2.06112 5.14479,-5.71029 6.15094,-8.4165l0.72412,-1.09776c0,0 0.5547,-0.83205 1.38675,-0.27735z" fill="#000000" stroke="none" stroke-width="0.5"/><path d="M188.63388,283.57836c-0.88388,0.88388 -1.76777,0 -1.76777,0l-1.13017,-1.153c-1.60037,-3.1547 -5.27668,-6.004 -5.23503,-9.77886c0.02128,-1.92822 0.89847,-1.96 1.6139,-3.47535c1.57817,-3.34272 4.10103,-5.6338 6.34854,-8.58241c1.22011,-1.60071 2.63623,-5.07703 0.84233,-6.57527c-2.6219,-3.48703 -5.89379,-5.37143 -6.77397,-9.53924c-0.53175,-2.51793 -2.55366,-4.91848 -1.43656,-7.75811c0.75944,-1.93048 2.90966,-3.14894 4.49807,-4.0852c1.09961,-0.64814 1.74317,-1.8838 2.76358,-2.65061c1.93111,-1.45117 3.77825,-2.43329 5.50931,-4.16972c0,0 0.88388,-0.88388 1.76777,0c0.88388,0.88388 0,1.76777 0,1.76777c-1.81177,1.80662 -3.76205,2.89746 -5.77816,4.40276c-1.08191,0.80779 -1.79844,2.07024 -2.94895,2.77691c-1.1959,0.73455 -2.89424,1.44354 -3.50193,2.9148c-0.55157,1.33539 0.42671,3.70089 0.91703,4.83774c0.65301,1.51404 0.68322,3.69702 1.87244,4.86491c0.48655,0.47782 1.34037,0.41373 1.85662,0.85931c0.1683,0.14526 2.8907,3.80286 3.14338,4.14069c5.33729,5.91097 -4.49249,12.93075 -6.80914,17.84232c-0.17511,0.37126 -1.40036,1.79919 -1.3861,2.52465c0.05854,2.97892 3.49662,5.64272 4.76497,8.22114l0.86983,0.847c0,0 0.88388,0.88388 0,1.76777z" fill="#000000" stroke="none" stroke-width="0.5"/><path d="M117.43585,274.58977c-0.39528,1.18585 -1.58114,0.79057 -1.58114,0.79057l-1.6539,-0.56296c-1.11621,-0.74031 -3.643,-2.29219 -4.44419,-3.36415c-1.09952,-1.4711 -0.76521,-3.57512 -0.75661,-5.26266c0.0198,-3.8855 0.52928,-8.43108 3.31436,-11.32499c0.72009,-0.91539 2.78699,-2.9067 2.23927,-4.30886c-1.67371,-4.28475 -7.5134,-5.81943 -6.53685,-11.56639c0.43069,-2.53458 1.85761,-3.99817 3.1699,-5.953c0.85072,-1.26725 1.15233,-3.22084 2,-4.5c0.61131,-0.92249 1.55474,-1.67957 1.87746,-2.73812c0,0 0.39528,-1.18585 1.58114,-0.79057c1.18585,0.39528 0.79057,1.58114 0.79057,1.58114c-0.43217,1.22311 -1.39978,2.18466 -2.12254,3.26188c-0.85052,1.26762 -1.15244,3.22054 -2,4.5c-1.16142,1.75325 -2.3941,2.80102 -2.8301,5.047c-1.04547,5.38563 7.8369,7.4546 6.48335,12.58303c-0.49996,1.89427 -1.63262,3.07104 -2.78092,4.54171c-2.38785,2.26723 -2.68216,6.5306 -2.68564,9.67501c-0.0009,0.81565 -0.39494,3.02737 0.24339,3.73734c0.80338,0.89354 2.53332,1.94933 3.55581,2.63585l1.3461,0.43704c0,0 1.18585,0.39528 0.79057,1.58114z" fill="#000000" stroke="none" stroke-width="0.5"/><path d="M76.75,218.94449c1.25,0 1.25,1.25 1.25,1.25l-0.00002,0.99216c0.00601,2.6361 1.06046,3.60359 1.83113,5.88037c1.27172,1.38697 1.97798,3.53798 3.57606,4.56415c1.06388,0.68315 2.52453,0.83519 3.33622,1.80457c1.04628,1.24954 1.53939,3.64568 2.52067,5.02785c2.27443,3.20364 6.05952,5.48292 8.15801,8.81227c3.12531,4.95844 3.14923,11.38618 4.95083,16.86943c1.14322,1.72954 1.24693,3.61365 2.39116,5.3183c3.26314,4.86136 7.64101,6.68265 12.53514,9.10799c3.53142,1.75004 7.42647,3.40114 11.45081,3.37289c0,0 1.25,0 1.25,1.25c0,1.25 -1.25,1.25 -1.25,1.25c-4.41087,-0.02637 -8.67566,-1.6713 -12.54919,-3.62711c-5.19127,-2.62116 -10.02128,-4.70031 -13.46486,-9.89201c-1.25085,-1.88583 -1.36558,-3.83345 -2.60884,-5.6817c-1.7908,-5.30868 -1.79497,-11.78186 -4.78697,-16.58377c-2.05061,-3.29106 -5.83579,-5.57533 -8.10419,-8.73454c-1.01659,-1.41581 -1.49121,-3.63762 -2.47933,-4.97215c-0.53985,-0.7291 -2.05213,-0.77646 -2.66378,-1.19543c-1.97816,-1.355 -2.88256,-3.67701 -4.42394,-5.43585c-0.84611,-2.57988 -2.13949,-4.08791 -2.16887,-7.11963l-0.00002,-1.00784c0,0 0,-1.25 1.25,-1.25z" fill="#000000" stroke="none" stroke-width="0.5"/><path d="M269.24999,397.69449v-112.5h22v112.5z" fill="url(#color-1)" stroke="none" stroke-width="0"/><path d="M280.25,387.69449v-78.5h22v78.5z" fill="url(#color-2)" stroke="none" stroke-width="0"/><path d="M-14.03604,412.00001v-123h132v123z" fill="url(#color-3)" stroke="none" stroke-width="0"/><path d="M-17.00001,316.00028v-55.00024h340.18611l28.73504,15.09393c0,0 0.56276,8.12798 0.41544,11.63408c-1.21979,29.03179 -29.15048,28.27223 -29.15048,28.27223z" fill="#6a4300" stroke="none" stroke-width="0"/><path d="M-17.16667,307.00028v-55.00024h339.87911c0,0 30.08897,3.74464 29.12417,26.72801c-1.21869,29.03179 -29.12417,28.27223 -29.12417,28.27223z" fill="url(#color-4)" stroke="none" stroke-width="0"/><path d="M-3.03604,406.50001v-82.5h104.5v82.5z" fill="url(#color-5)" stroke="#4c3000" stroke-width="2.5"/><g stroke="none" stroke-width="0"><path d="M77.75,280.25001v-32.5h124.5v32.5z" fill="#333333"/><path d="M122.25,265.16666v-39h35.5v39z" fill="url(#color-6)"/><path d="M35.5,241.75001v-99.5h209v99.5z" fill="#333333"/><path d="M40,237.13159v-91.76316h200.5v91.76316z" fill="url(#color-7)"/></g><path d="M286.35212,273.1015c7.83547,0 14.18737,1.33724 14.18737,2.98681c0,1.64957 -6.3519,2.98681 -14.18737,2.98681c-7.83547,0 -14.18737,-1.33724 -14.18737,-2.98681c0,-1.64957 6.3519,-2.98681 14.18737,-2.98681z" fill="#513400" stroke="none" stroke-width="0"/><g stroke="#000000" stroke-width="0"><path d="M284.41454,248.34154v-18.77689l-8.53495,-5.5003l2.46565,-2.65532l9.86261,6.25896v20.67355z" fill="#fcffce"/><path d="M276.59116,275.5004l-3.41398,-31.48448l26.55317,-0.18967l-3.79331,31.67415c0,0 -3.84233,1.70393 -10.19485,1.70699c-5.40309,0.0026 -9.15104,-1.70699 -9.15104,-1.70699z" fill="url(#color-8)"/><path d="M271.70695,243.92108v-4.17264h29.58782v4.17264z" fill="url(#color-9)"/></g><path d="M270.14565,317.13374c0,0 -9.20875,-8.50049 -18.24756,-10.28993c-11.83373,-2.34276 -40.98989,-8.11491 -40.98989,-8.11491l29.11281,-14.80708l64.90412,12.84928c0,0 -14.73087,7.49228 -20.10516,10.2257c-3.59727,1.82961 -14.67432,10.13694 -14.67432,10.13694z" fill="url(#color-10)" stroke="none" stroke-width="0"/><path d="M-9.52549,279.38604l47.17235,-18.25131l33.21196,11.80068l-47.17235,18.25131z" fill="url(#color-11)" stroke="#000000" stroke-width="0"/></g></g></svg>