<svg version="1.1" xmlns="http://www.w3.org/2000/svg" xmlns:xlink="http://www.w3.org/1999/xlink" width="698.77421" height="620.40238" viewBox="0,0,698.77421,620.40238"><defs><linearGradient x1="238.15246" y1="312.90354" x2="238.15246" y2="330.2059" gradientUnits="userSpaceOnUse" id="color-1"><stop offset="0" stop-color="#5c5c5c"/><stop offset="1" stop-color="#9b9b9b"/></linearGradient><linearGradient x1="265.91474" y1="367.12181" x2="279.88489" y2="377.32984" gradientUnits="userSpaceOnUse" id="color-2"><stop offset="0" stop-color="#5c5c5c"/><stop offset="1" stop-color="#9b9b9b"/></linearGradient><linearGradient x1="211.49944" y1="368.76963" x2="197.52932" y2="378.97782" gradientUnits="userSpaceOnUse" id="color-3"><stop offset="0" stop-color="#5c5c5c"/><stop offset="1" stop-color="#9b9b9b"/></linearGradient><linearGradient x1="227.99611" y1="506.29379" x2="248.59411" y2="506.29379" gradientUnits="userSpaceOnUse" id="color-4"><stop offset="0" stop-color="#5c5c5c"/><stop offset="1" stop-color="#9b9b9b"/></linearGradient><linearGradient x1="242.10427" y1="252.59121" x2="242.10427" y2="279.95868" gradientUnits="userSpaceOnUse" id="color-5"><stop offset="0" stop-color="#a6a6a6"/><stop offset="1" stop-color="#707070"/></linearGradient><linearGradient x1="241.31506" y1="245.73383" x2="241.31506" y2="258.0853" gradientUnits="userSpaceOnUse" id="color-6"><stop offset="0" stop-color="#a6a6a6"/><stop offset="1" stop-color="#707070"/></linearGradient><linearGradient x1="309.13784" y1="321.50449" x2="334.81929" y2="321.50449" gradientUnits="userSpaceOnUse" id="color-7"><stop offset="0" stop-color="#5c5c5c"/><stop offset="1" stop-color="#9b9b9b"/></linearGradient><linearGradient x1="156.83206" y1="319.8957" x2="131.1506" y2="319.8957" gradientUnits="userSpaceOnUse" id="color-8"><stop offset="0" stop-color="#5c5c5c"/><stop offset="1" stop-color="#9b9b9b"/></linearGradient><linearGradient x1="209.90908" y1="428.19001" x2="265.90665" y2="428.19001" gradientUnits="userSpaceOnUse" id="color-9"><stop offset="0" stop-color="#004184"/><stop offset="1" stop-color="#0023e3"/></linearGradient><linearGradient x1="222.18396" y1="313.03362" x2="253.90207" y2="313.03362" gradientUnits="userSpaceOnUse" id="color-10"><stop offset="0" stop-color="#004184"/><stop offset="1" stop-color="#0023e3"/></linearGradient><linearGradient x1="267.49193" y1="207.17648" x2="267.13981" y2="266.06715" gradientUnits="userSpaceOnUse" id="color-11"><stop offset="0" stop-color="#a6a6a6"/><stop offset="1" stop-color="#707070"/></linearGradient><linearGradient x1="210.96135" y1="207.88605" x2="210.60925" y2="266.77676" gradientUnits="userSpaceOnUse" id="color-12"><stop offset="0" stop-color="#a6a6a6"/><stop offset="1" stop-color="#707070"/></linearGradient><linearGradient x1="235.23376" y1="153.01681" x2="235.23376" y2="177.37328" gradientUnits="userSpaceOnUse" id="color-13"><stop offset="0" stop-color="#a6a6a6"/><stop offset="1" stop-color="#707070"/></linearGradient><linearGradient x1="240.01916" y1="168.46304" x2="240.01916" y2="215.3583" gradientUnits="userSpaceOnUse" id="color-14"><stop offset="0" stop-color="#a6a6a6"/><stop offset="1" stop-color="#707070"/></linearGradient><linearGradient x1="204.89419" y1="156.23822" x2="219.04164" y2="213.40541" gradientUnits="userSpaceOnUse" id="color-15"><stop offset="0" stop-color="#a6a6a6"/><stop offset="1" stop-color="#707070"/></linearGradient><linearGradient x1="275.49011" y1="158.0559" x2="261.34267" y2="215.22306" gradientUnits="userSpaceOnUse" id="color-16"><stop offset="0" stop-color="#a6a6a6"/><stop offset="1" stop-color="#707070"/></linearGradient><linearGradient x1="239.49131" y1="204.45243" x2="239.49131" y2="217.90299" gradientUnits="userSpaceOnUse" id="color-17"><stop offset="0" stop-color="#a6a6a6"/><stop offset="1" stop-color="#707070"/></linearGradient><linearGradient x1="31.37733" y1="287.14721" x2="9.92138" y2="264.77216" gradientUnits="userSpaceOnUse" id="color-18"><stop offset="0" stop-color="#5c5c5c"/><stop offset="1" stop-color="#9b9b9b"/></linearGradient><linearGradient x1="-49.54161" y1="269.99232" x2="-42.30709" y2="245.92986" gradientUnits="userSpaceOnUse" id="color-19"><stop offset="0" stop-color="#5c5c5c"/><stop offset="1" stop-color="#9b9b9b"/></linearGradient><linearGradient x1="78.07785" y1="310.00674" x2="85.70018" y2="286.0643" gradientUnits="userSpaceOnUse" id="color-20"><stop offset="0" stop-color="#5c5c5c"/><stop offset="1" stop-color="#9b9b9b"/></linearGradient><linearGradient x1="434.22668" y1="291.5741" x2="456.2367" y2="269.74392" gradientUnits="userSpaceOnUse" id="color-21"><stop offset="0" stop-color="#5c5c5c"/><stop offset="1" stop-color="#9b9b9b"/></linearGradient><linearGradient x1="515.04938" y1="279.32903" x2="509.26185" y2="254.87817" gradientUnits="userSpaceOnUse" id="color-22"><stop offset="0" stop-color="#5c5c5c"/><stop offset="1" stop-color="#9b9b9b"/></linearGradient><linearGradient x1="386.96784" y1="313.25583" x2="379.94805" y2="289.12986" gradientUnits="userSpaceOnUse" id="color-23"><stop offset="0" stop-color="#5c5c5c"/><stop offset="1" stop-color="#9b9b9b"/></linearGradient></defs><g transform="translate(116.82236,12.27189)"><g data-paper-data="{&quot;isPaintingLayer&quot;:true}" fill-rule="nonzero" stroke-linejoin="miter" stroke-miterlimit="10" stroke-dasharray="" stroke-dashoffset="0" style="mix-blend-mode: normal"><path d="M237.29056,239.62111c16.55248,0.36036 38.75439,40.28551 72.92226,90.17368c26.07377,38.07006 67.82466,80.30905 67.82466,124.85635c0,102.92344 -63.01454,148.56618 -140.74692,148.56618c-77.73236,0 -140.7469,-45.64276 -140.7469,-148.56618c0,-54.8416 41.04134,-94.22054 75.1487,-135.99798c29.90331,-36.62794 52.36644,-79.32013 65.5982,-79.03206z" fill="#696969" stroke="#000000" stroke-width="2" stroke-linecap="butt"/><path d="M150.81682,330.2059v-17.30236h174.6713v17.30236z" fill="url(#color-1)" stroke="none" stroke-width="0" stroke-linecap="butt"/><path d="M228.97085,417.68032l73.88767,-101.1171l13.97009,10.20819l-73.88769,101.11707z" fill="url(#color-2)" stroke="none" stroke-width="0" stroke-linecap="butt"/><path d="M234.47316,429.53638l-73.88769,-101.11714l13.97009,-10.20815l73.88769,101.11714z" data-paper-data="{&quot;index&quot;:null}" fill="url(#color-3)" stroke="none" stroke-width="0" stroke-linecap="butt"/><path d="M227.99611,601.71005v-190.83245h20.59804v190.83249z" fill="url(#color-4)" stroke="none" stroke-width="0" stroke-linecap="butt"/><path d="M226.77303,427.93978c1.36898,2.76989 -1.40084,4.13885 -1.40084,4.13885l-1.9546,0.7904c-4.96187,4.82413 -7.88711,11.35543 -11.49176,17.29434c-13.16697,21.46239 -42.89974,18.87006 -54.10768,-3.44757c-6.29526,-12.53536 -0.12366,-31.93664 7.04027,-42.56839c10.68259,-18.06057 11.75824,-33.43876 6.5227,-53.43162c-1.3318,-5.08579 -4.17916,-12.90925 -9.01351,-16.67342c0.8069,-0.59028 1.16118,-1.4759 1.16118,-1.4759c0.50006,-1.29723 1.13056,-2.56885 1.91501,-3.7254c4.7096,3.42009 7.82791,9.15632 10.06588,14.81294c8.85483,22.38104 6.65659,43.275 -5.42633,63.7928c-6.18197,9.15806 -10.29172,22.75902 -7.88977,34.05408c0.66981,3.14977 3.22873,5.64698 5.3812,7.75935c3.81777,3.74658 7.82718,8.5405 13.38096,9.75846c10.97187,2.4062 20.30793,-3.08771 25.68776,-12.06154c3.91892,-6.45642 7.10149,-13.14213 12.43005,-18.48266l3.56077,-1.93551c0,0 2.76985,-1.369 4.13885,1.40088z" fill="#000000" stroke="none" stroke-width="0.5" stroke-linecap="butt"/><path d="M243.99634,415.66734c3.08971,0 3.08971,3.08971 3.08971,3.08971l-0.16197,2.35028c-2.25702,6.6714 -3.08273,13.96241 -5.98471,20.4165c-1.59381,3.54469 -6.35439,8.39111 -5.92426,12.818c0.44261,4.55562 5.00857,8.62659 7.83121,11.75759c6.36783,7.06336 14.08671,12.5397 20.64481,19.48537c1.30152,3.29463 3.21958,6.59979 2.50906,10.36523c-2.56028,13.56901 -22.56894,21.26257 -33.00157,27.85594c-3.03933,1.92085 -7.34535,2.40056 -9.3431,5.38995c-0.59287,0.8871 0.35004,2.10841 0.62605,3.13907c1.44477,5.39561 3.08792,9.5825 6.21678,14.21415c3.07867,4.55733 5.79092,7.35085 10.37213,10.35755c0,0 2.57991,1.70008 0.87979,4.27999c-1.70015,2.57991 -4.28003,0.87973 -4.28003,0.87973c-5.22869,-3.45823 -8.58064,-6.85075 -12.09381,-12.06041c-3.14594,-4.66512 -10.58896,-17.39039 -7.23049,-23.60822c0.53422,-0.98907 10.07649,-6.8833 11.55142,-7.8154c9.96867,-6.30016 34.16982,-14.9723 28.58564,-29.67182c-9.04174,-9.20821 -28.15936,-19.84857 -29.43514,-34.18086c-0.53284,-5.98606 4.24793,-10.86185 6.48527,-15.80496c2.81215,-6.21307 3.56896,-13.34806 5.73542,-19.79188l-0.16197,-0.37579c0,0 0,-3.08968 3.08971,-3.08968z" fill="#000000" stroke="none" stroke-width="0.5" stroke-linecap="butt"/><path d="M311.30004,318.90265c0.39952,3.23347 -2.83391,3.63298 -2.83391,3.63298l-2.3812,0.24944c-8.68615,2.57493 -14.98671,6.85235 -22.19964,12.35615c-0.15895,0.12131 -6.92678,4.61331 -6.49114,6.61917c0.22523,1.0372 2.04425,0.63873 2.95751,1.17951c1.86895,1.10665 3.57328,2.47058 5.34016,3.73382c7.57065,5.41273 17.3368,3.81874 26.56646,4.26932c2.70083,0.27522 5.67885,-0.39763 8.10242,0.82562c1.67618,0.84602 2.05959,3.14277 2.99046,4.77336c1.99306,3.4913 10.16267,15.71587 9.39133,19.47757c-0.57656,2.81161 -4.05453,4.06749 -6.19004,5.98508c-4.18745,3.76023 -10.80792,10.55504 -15.91112,12.79319c-7.76839,3.40705 -23.77321,3.72014 -31.9721,2.06805c-4.85566,-0.97841 -9.32449,-3.37003 -13.98061,-5.20411c-3.43046,4.72489 -7.60003,8.76434 -12.91008,11.2634c-0.35792,0.74873 -1.51723,2.58478 -4.00184,1.74691c-3.0872,-1.04109 -2.04613,-4.12832 -2.04613,-4.12832l2.25273,-3.06665c4.21935,-1.62155 7.56113,-4.57334 10.36005,-8.11955c-0.75613,-0.57225 -1.47731,-1.58465 -1.05678,-3.28624c0.78164,-3.16288 3.94451,-2.38122 3.94451,-2.38122c0.27263,0.06767 0.54563,0.13685 0.81891,0.2075c1.98885,-3.33657 3.70538,-6.8443 5.35153,-10.07916c-0.91991,-6.25558 -7.5582,-5.15033 -12.83227,-5.26691c-2.23615,-0.04944 -4.65762,0.04978 -7.17949,0.20722c4.3222,7.32627 7.97218,14.70652 4.38269,22.70082c-1.80781,4.02633 -2.98054,4.63728 -6.02919,7.65557l-3.20986,2.00753c0,0 -2.77171,1.71238 -4.48411,-1.05936c-1.71242,-2.77171 1.05936,-4.48411 1.05936,-4.48411l2.60605,-1.58554c7.92757,-7.81907 3.71507,-16.19874 -1.29374,-24.73568c-7.23367,0.51987 -14.64854,0.86757 -20.48185,-0.82975c-8.74659,-2.54506 -4.46344,-11.90792 -3.00058,-17.92595c3.23124,-13.2927 7.20502,-24.07512 19.51581,-31.16798c1.73293,-0.98469 4.44494,-2.34401 7.3071,-3.98339c1.26288,-2.76817 2.73964,-5.44994 4.59346,-8.01352c1.47479,-2.03936 4.06133,-3.25342 3.41835,-6.24931c-1.91235,-8.91027 -12.84891,-16.46499 -17.10259,-24.45644c-6.02435,-11.31802 1.15011,-21.6492 -2.07909,-32.99682c0,0 -0.86646,-3.14068 2.27421,-4.00718c0.94073,-0.25954 1.67741,-0.15955 2.24787,0.10783c0.54129,-0.80084 1.54892,-1.62451 3.33151,-1.22379c3.1787,0.71459 2.46414,3.89331 2.46414,3.89331c-2.42254,10.74421 -4.61112,22.71712 -0.18537,33.38225c4.23282,10.20018 26.20566,18.29413 18.83393,32.3722c-1.20544,2.3021 -3.32699,4.01635 -5.25558,5.75802c-1.68929,1.52547 -3.69175,2.6635 -5.5404,3.99134c-0.52446,0.37675 -1.05222,0.74913 -1.58306,1.1172c-1.7175,3.88019 -2.89971,7.93012 -4.27927,11.99489c-3.47051,6.44699 -7.2324,13.32141 -5.62633,20.97747c0.70744,3.37226 2.26767,6.6711 4.09895,9.94618c9.30689,-0.45984 25.56944,-2.17726 29.42774,6.17596c0.93626,2.02704 0.70193,4.41008 1.05288,6.61511c-1.60491,3.64297 -3.35623,7.41081 -5.39209,11.00919c12.79647,3.94814 26.18043,8.95521 39.56354,3.08564c5.08836,-2.23168 9.84767,-8.64677 14.41602,-11.88041c1.22809,-0.86927 3.61678,-0.76554 3.91903,-2.23946c0.30222,-1.47393 -1.93452,-2.31867 -2.72138,-3.60112c-4.06288,-6.62182 -3.65547,-13.9695 -11.69731,-13.6582c-6.59259,-0.32183 -17.75841,1.31246 -23.82962,-1.29092c-0.46955,-0.20135 -10.69904,-7.25999 -11.49311,-7.88034c-1.90228,-1.48612 -5.06752,-2.34832 -5.48781,-4.72538c-1.19407,-6.75268 4.67548,-10.33311 8.75547,-13.55746c7.71253,-6.09511 14.93831,-10.66822 24.34687,-13.4593l3.4347,-0.46915c0,0 3.23348,-0.39954 3.63301,2.83392zM239.67752,324.9975c-10.62957,5.96367 -13.64479,15.65155 -16.41168,27.06222c-0.65356,2.69526 -2.66106,7.17042 -2.43487,9.97227c0.17471,2.16436 4.343,0.02644 6.51432,0.00428c2.97095,-0.0303 5.94211,-0.01916 8.91328,-0.00911c-1.51901,-2.86306 -2.77229,-5.73101 -3.34033,-8.58893c-1.82357,-9.1747 1.77325,-17.18875 6.00531,-25.01466c0.41609,-1.24283 0.82623,-2.47892 1.24254,-3.7059c-0.16272,0.09364 -0.32557,0.18691 -0.4886,0.27984z" fill="#000000" stroke="none" stroke-width="0.5" stroke-linecap="butt"/><g><path d="M193.18544,447.24002v-84.03997h87.54163v84.03997z" fill="#323232" stroke="none" stroke-width="0" stroke-linecap="butt"/><g stroke="#000000"><path d="M236.628,369.13597c18.70206,0 33.86314,15.16108 33.86314,33.86317c0,18.70206 -15.16108,33.86315 -33.86314,33.86315c-18.70206,0 -33.86314,-15.16113 -33.86314,-33.86315c0,-18.70206 15.1611,-33.86317 33.86314,-33.86317z" fill="#878787" stroke-width="1" stroke-linecap="butt"/><path d="M210.73714,382.46141l52.26014,-0.35313" fill="none" stroke-width="1.5" stroke-linecap="round"/><path d="M206.49985,391.28913l61.08784,0.3531" fill="none" stroke-width="1.5" stroke-linecap="round"/><path d="M268.647,400.11676l-65.32516,-1.41243" fill="none" stroke-width="1.5" stroke-linecap="round"/><path d="M203.46895,406.29626l66.3845,0.70619" fill="none" stroke-width="1.5" stroke-linecap="round"/><path d="M252.4855,374.3426l-30.42168,-0.38028" fill="none" stroke-width="1.5" stroke-linecap="round"/><path d="M262.58531,424.10376l-52.26012,-0.35313" data-paper-data="{&quot;index&quot;:null}" fill="none" stroke-width="1.5" stroke-linecap="round"/><path d="M267.17575,414.56986l-61.08784,0.3531" data-paper-data="{&quot;index&quot;:null}" fill="none" stroke-width="1.5" stroke-linecap="round"/><path d="M252.07352,431.86954l-30.42173,0.38026" data-paper-data="{&quot;index&quot;:null}" fill="none" stroke-width="1.5" stroke-linecap="round"/></g></g><path d="M238.59376,243.53076c-2.94514,0.25616 -2.1083,59.60056 -0.62738,130.26839c-0.19102,-0.00328 -0.3825,-0.00496 -0.57431,-0.00496c-17.99362,0 -32.58034,14.58671 -32.58034,32.5803c0,17.99362 14.58671,32.58029 32.58034,32.58029c0.66837,0 1.33199,-0.02011 1.99038,-0.05978c1.87422,86.48484 3.3385,168.85292 -0.78867,168.23199c-76.86731,-11.56464 -140.74692,-45.64276 -140.74692,-148.56618c0,-53.81918 34.64947,-89.46653 68.03075,-131.03859c30.45687,-37.93006 59.20302,-84.28563 72.71616,-83.99144z" fill="#ffe400" stroke="#000000" stroke-width="2" stroke-linecap="butt"/><path d="M380.68935,458.56076c0,102.92344 -63.87966,137.00156 -140.74692,148.56619c-4.12716,0.62094 -2.66289,-81.74713 -0.78866,-168.23196c0.65839,0.03967 1.32204,0.05982 1.99037,0.05982c17.99362,0 32.58034,-14.58671 32.58034,-32.5803c0,-17.99362 -14.58671,-32.5803 -32.58034,-32.5803c-0.19183,0 -0.38328,0.00167 -0.57431,0.00496c1.48088,-70.66781 2.31775,-130.01223 -0.62738,-130.26839c14.76682,-0.32151 31.54165,39.28689 64.17755,83.12971c29.96203,40.25072 76.56938,82.63682 76.56938,131.90032z" data-paper-data="{&quot;index&quot;:null}" fill="#ffe400" stroke="#000000" stroke-width="2" stroke-linecap="butt"/><path d="M226.46571,279.95868v-27.36745h31.27711v27.36745z" fill="url(#color-5)" stroke="none" stroke-width="0" stroke-linecap="butt"/><path d="M211.17619,258.0853v-12.35147h60.27772v12.35147z" fill="url(#color-6)" stroke="none" stroke-width="0" stroke-linecap="butt"/><path d="M334.81929,321.50449c0,7.09176 -5.74899,12.84075 -12.8407,12.84075c-7.09171,0 -12.84073,-5.74903 -12.84073,-12.84073c0,-7.09175 5.74898,-12.84072 12.84075,-12.84072c7.09171,0 12.8407,5.74898 12.8407,12.84072z" fill="url(#color-7)" stroke="none" stroke-width="0" stroke-linecap="butt"/><path d="M143.99132,307.05497c7.09174,0 12.84075,5.74895 12.84075,12.8407c0,7.09171 -5.749,12.84075 -12.84073,12.84075c-7.09171,0 -12.8407,-5.74898 -12.8407,-12.84073c0,-7.09174 5.749,-12.8407 12.8407,-12.8407z" data-paper-data="{&quot;index&quot;:null}" fill="url(#color-8)" stroke="none" stroke-width="0" stroke-linecap="butt"/><path d="M237.90785,304.14476c15.46327,0 17.92755,131.32861 27.99877,199.0926c1.24045,8.34638 -12.53547,48.99788 -27.99877,48.99788c-15.46328,0 -27.99877,-27.62679 -26.75832,-53.33947c3.30117,-68.42869 11.295,-194.75101 26.75832,-194.75101z" fill="url(#color-9)" stroke="#000000" stroke-width="1" stroke-linecap="butt"/><path d="M192.7648,300.24746c0,-11.01764 20.60018,-19.94917 46.01181,-19.94917c25.41162,0 46.01181,8.93153 46.01181,19.94917c0,7.88951 -10.56317,14.70933 -25.8921,17.94593c-2.88667,0.60952 -11.1766,-25.5047 -19.80323,-25.56555c-9.53658,-0.06725 -19.48472,25.84534 -22.99954,24.9802c-13.93081,-3.42894 -23.32877,-9.91889 -23.32877,-17.36055z" fill="#ffffff" stroke="#000000" stroke-width="2" stroke-linecap="butt"/><path d="M238.04304,296.70812c8.75875,0 16.12803,0.54806 15.85907,16.32551c-0.23324,13.68076 -7.10035,16.32551 -15.85907,16.32551c-8.75875,0 -15.7218,-1.94614 -15.85907,-16.32551c-0.14622,-15.31436 7.10035,-16.32551 15.85907,-16.32551z" fill="url(#color-10)" stroke="#000000" stroke-width="1" stroke-linecap="butt"/><path d="M275.23583,45.52079c-14.01638,19.17492 -28.69977,32.29182 -32.79624,29.29742c-4.09647,-2.99439 3.94523,-20.9662 17.9616,-40.14113c14.01638,-19.17493 42.27183,-22.37098 46.3683,-19.37658c4.09647,2.99441 -17.51729,11.04537 -31.53367,30.22027z" fill="#ffe400" stroke="#000000" stroke-width="1" stroke-linecap="butt"/><path d="M249.30396,31.79032c2.44406,23.62546 0.33385,43.201 -4.71347,43.72313c-5.04727,0.52216 -11.12022,-18.20676 -13.56429,-41.83226c-2.44406,-23.6255 16.38838,-44.93092 21.43564,-45.45308c5.04727,-0.52214 -5.60198,19.93676 -3.15792,43.56221z" fill="#ffe400" stroke="#000000" stroke-width="1" stroke-linecap="butt"/><path d="M227.01523,32.77793c14.36848,18.9125 22.74108,36.73257 18.70069,39.80218c-4.04041,3.06963 -18.9638,-9.77356 -33.33227,-28.68606c-14.36848,-18.91249 -9.35476,-46.90263 -5.31435,-49.97226c4.04041,-3.06963 5.57743,19.94365 19.94591,38.85614z" fill="#ffe400" stroke="#000000" stroke-width="1" stroke-linecap="butt"/><path d="M120.58171,187.05027c0,-59.33563 82.04083,-127.26823 120.85189,-128.14735c36.56952,0.01409 115.48069,68.81177 115.48069,128.14735c0,59.33565 -52.90486,107.43668 -118.16628,107.43668c-65.26142,0 -118.16628,-48.10103 -118.16628,-107.43665z" data-paper-data="{&quot;index&quot;:null}" fill="#696969" stroke="#000000" stroke-width="2" stroke-linecap="butt"/><path d="M262.59577,266.03996l0.3521,-58.89062l9.08807,0.05436l-0.35207,58.89062z" fill="url(#color-11)" stroke="none" stroke-width="0" stroke-linecap="butt"/><path d="M206.06517,266.74954l0.3521,-58.89062l9.08807,0.05434l-0.3521,58.89065z" fill="url(#color-12)" stroke="none" stroke-width="0" stroke-linecap="butt"/><path d="M222.25607,186.19132c0.0492,1.41832 -1.36916,1.46756 -1.36916,1.46756l-0.98134,0.03394c-6.94627,0.30082 -14.58581,0.75356 -19.18534,6.6822c-4.75743,5.9835 -10.90216,4.39228 -15.87632,8.9427c-1.88263,1.72226 -2.98779,6.31965 -5.24522,7.88605c1.09187,3.10366 3.70441,5.20947 8.3655,4.73086c0.17004,-0.01747 3.90506,-0.77364 4.33381,-1.12905c2.1473,-1.78 3.15734,-10.16681 5.45655,-13.21463c3.4182,-1.71894 6.5247,-1.17972 10.10722,-2.0623c5.05556,-1.24558 8.62172,-4.93112 12.42685,-8.19117l0.99546,-0.87869c0,0 1.06406,-0.93903 2.00312,0.12506c0.93906,1.0641 -0.12504,2.00316 -0.12504,2.00316l-1.02694,0.90597c-4.19839,3.59674 -8.09321,7.4178 -13.655,8.80582c-2.98221,0.74426 -6.06887,0.10542 -8.89279,1.45928c-2.31291,3.40502 -2.59053,10.53171 -5.231,13.00162c-3.61231,3.37894 -13.25025,3.28987 -15.74052,-1.09306c-0.7054,-1.24155 -1.25795,-2.48388 -1.66389,-3.72345c-6.1955,0.55957 -9.98758,-4.89949 -13.0668,-9.42186c-0.49921,-0.73317 -3.46933,-4.9648 -3.4392,-5.56243c0.03013,-0.59765 3.41061,-4.5093 3.98101,-5.18856c0.39131,-0.46604 3.76029,-4.52393 4.07506,-4.68999c3.13128,-1.65184 8.19345,0.45484 11.22719,-1.07664c3.39428,-1.71351 6.03172,-10.48934 8.501,-13.51483c3.64899,-4.47096 9.76945,-5.48099 14.8178,-7.69894c0,0 1.29934,-0.57082 1.87013,0.72851c0.03699,0.08417 0.06615,0.16525 0.08827,0.24337c0.18177,-0.02902 0.36135,-0.05924 0.53845,-0.09112c0,0 1.3968,-0.25107 1.64783,1.14576c0.25101,1.3968 -1.14576,1.64783 -1.14576,1.64783c-3.32881,0.59806 -9.09709,0.36002 -11.46976,3.26306c-5.04061,6.16731 1.08456,15.66256 -4.15946,21.33841c-2.11553,2.28977 -5.84162,3.3251 -8.62544,4.61244c-1.84378,2.89788 -2.92721,6.73191 -2.79844,10.14368c1.67642,-2.32556 4.25675,-7.5681 6.14407,-8.55133c5.60379,-2.91947 9.1354,-1.33856 13.35975,-6.661c5.32257,-6.57243 13.35025,-7.40877 21.28498,-7.75238l1.00579,-0.03494c0,0 1.41832,-0.0492 1.46749,1.36912zM181.19605,188.43375c-6.09871,3.3253 -9.58503,-0.80505 -14.59531,5.16184c-1.03501,1.23261 -3.23883,1.89872 -3.31989,3.50614c-0.08099,1.60745 2.04477,2.49178 2.95062,3.82216c2.78232,4.08638 4.88625,7.90426 10.02699,8.06614c-0.66128,-4.62293 0.66965,-9.16782 3.66612,-13.44899c2.5443,-1.31582 6.38671,-2.32241 8.39545,-4.38714c3.72241,-3.82627 0.95296,-10.96639 2.03948,-16.7825c-2.82217,3.59458 -5.14666,11.87224 -9.16348,14.06239z" fill="#000000" stroke="none" stroke-width="0.5" stroke-linecap="butt"/><path d="M249.42861,182.92995l1.00576,0.03495c7.93474,0.34364 15.96239,1.17993 21.28498,7.75236c4.2244,5.32246 7.75599,3.74163 13.35975,6.66102c1.88734,0.98323 4.46763,6.22573 6.14404,8.55132c0.12881,-3.41177 -0.95467,-7.24577 -2.79846,-10.14368c-2.7838,-1.28733 -6.50986,-2.32266 -8.62542,-4.61244c-5.24402,-5.67583 0.88112,-15.17104 -4.1595,-21.33835c-2.37267,-2.90306 -8.14094,-2.66505 -11.46976,-3.26312c0,0 -1.39683,-0.25103 -1.14576,-1.64783c0.25101,-1.3968 1.64786,-1.14576 1.64786,-1.14576c0.17714,0.03186 0.3567,0.06212 0.53845,0.09112c0.02214,-0.07812 0.05126,-0.15918 0.08822,-0.24339c0.57084,-1.2993 1.87013,-0.72849 1.87013,-0.72849c5.04838,2.21794 11.1688,3.22794 14.8178,7.69894c2.46925,3.02551 5.1067,11.80133 8.501,13.51483c3.03373,1.53151 8.09588,-0.57518 11.22717,1.07664c0.31482,0.16606 3.68381,4.22395 4.07511,4.68999c0.57036,0.67926 3.95084,4.59091 3.98096,5.18856c0.03013,0.59765 -2.94,4.82924 -3.4392,5.56243c-3.07922,4.52241 -6.87132,9.98145 -13.06683,9.42186c-0.40591,1.23956 -0.95845,2.48191 -1.66386,3.72345c-2.49027,4.383 -12.12822,4.472 -15.74052,1.09304c-2.64047,-2.4699 -2.91806,-9.59658 -5.231,-13.00162c-2.8239,-1.35387 -5.9106,-0.71501 -8.8928,-1.45928c-5.56173,-1.388 -9.45652,-5.20909 -13.65498,-8.80585l-1.02688,-0.90602c0,0 -1.0641,-0.93903 -0.12504,-2.00312c0.93906,-1.0641 2.00312,-0.12506 2.00312,-0.12506l0.99546,0.87869c3.80518,3.26005 7.37132,6.94561 12.42685,8.19117c3.58252,0.88267 6.68905,0.34336 10.10723,2.0623c2.29921,3.04783 3.30924,11.43465 5.45655,13.21463c0.42879,0.35541 4.16378,1.11159 4.3338,1.12907c4.66109,0.47863 7.2736,-1.62723 8.36546,-4.73086c-2.25745,-1.5664 -3.36257,-6.1638 -5.24519,-7.88602c-4.97417,-4.5504 -11.11887,-2.95924 -15.87632,-8.94274c-4.59952,-5.92864 -12.23912,-6.38139 -19.18539,-6.6822l-0.98131,-0.03397c0,0 -1.41831,-0.04919 -1.36916,-1.46751c0.0492,-1.41832 1.46752,-1.36912 1.46752,-1.36912zM279.8576,172.47913c1.08654,5.81616 -1.68289,12.95623 2.03953,16.78247c2.00875,2.06476 5.85116,3.07135 8.39545,4.38714c2.99643,4.28119 4.32736,8.82614 3.66612,13.44906c5.14075,-0.16187 7.24465,-3.97982 10.02699,-8.06615c0.90582,-1.33042 3.03163,-2.21467 2.95061,-3.82217c-0.08099,-1.60745 -2.28488,-2.27356 -3.31989,-3.5062c-5.01027,-5.96684 -8.49654,-1.83652 -14.59526,-5.16181c-4.0168,-2.19015 -6.34132,-10.46778 -9.16351,-14.06236z" data-paper-data="{&quot;index&quot;:null}" fill="#000000" stroke="none" stroke-width="0.5" stroke-linecap="butt"/><path d="M209.24147,177.37328v-24.35646h51.98463v24.35646z" fill="url(#color-13)" stroke="#000000" stroke-width="0" stroke-linecap="butt"/><path d="M216.14851,215.3583v-46.89524h47.74125v46.89524z" fill="url(#color-14)" stroke="none" stroke-width="0" stroke-linecap="butt"/><path d="M214.63058,214.49702l-14.14741,-57.16711l8.82208,-2.18325l14.14744,57.16714z" fill="url(#color-15)" stroke="none" stroke-width="0" stroke-linecap="butt"/><path d="M256.93164,214.13147l14.14742,-57.16714l8.82208,2.18325l-14.14744,57.16716z" data-paper-data="{&quot;index&quot;:null}" fill="url(#color-16)" stroke="none" stroke-width="0" stroke-linecap="butt"/><path d="M292.85803,158.71886c0,10.27953 -8.59361,18.61265 -19.19436,18.61265c-10.60078,0 -19.19428,-8.33315 -19.19428,-18.61265c0,-10.27953 8.59356,-18.61271 19.1943,-18.61271c10.60074,0 19.19436,8.33322 19.19436,18.61271z" data-paper-data="{&quot;index&quot;:null}" fill="#000000" stroke="#000000" stroke-width="2" stroke-linecap="butt"/><path d="M205.60616,217.90299v-13.45056h67.77032v13.45056z" fill="url(#color-17)" stroke="none" stroke-width="0" stroke-linecap="butt"/><path d="M210.44047,139.62146c10.60076,0 19.19433,8.33319 19.19433,18.61268c0,10.27953 -8.59364,18.61268 -19.19433,18.61268c-10.60078,0 -19.19436,-8.33319 -19.19436,-18.61268c0,-10.27953 8.59354,-18.61268 19.19436,-18.61268z" fill="#000000" stroke="#000000" stroke-width="2" stroke-linecap="butt"/><g stroke="#000000" stroke-linecap="butt"><path d="M240.10315,229.66382c72.34209,0.25505 10.70457,79.11918 0,79.11918c-11.25008,0 -81.10023,-79.40509 0,-79.11918z" fill="#ffe400" stroke-width="2"/><path d="M239.77286,233.21155c48.33643,0.1704 7.15238,52.86461 0,52.86461c-7.51691,0 -54.18827,-53.05568 0,-52.86461z" fill="#ff0700" stroke-width="1"/></g><path d="M220.46688,157.97332c0,3.5564 -2.72287,6.43944 -6.08169,6.43944c-3.35881,0 -6.08169,-2.88304 -6.08169,-6.43944c0,-3.5564 2.72287,-6.43944 6.08169,-6.43944c3.35881,0 6.08169,2.88304 6.08169,6.43944z" fill="#000000" stroke="#ff0000" stroke-width="2" stroke-linecap="butt"/><path d="M277.22927,158.48013c0,3.5564 -2.72287,6.43944 -6.08169,6.43944c-3.35881,0 -6.08169,-2.88304 -6.08169,-6.43944c0,-3.5564 2.72287,-6.43944 6.08169,-6.43944c3.35881,0 6.08169,2.88304 6.08169,6.43944z" fill="#000000" stroke="#ff0000" stroke-width="2" stroke-linecap="butt"/><path d="M9.92136,264.77218c6.17871,-5.92494 15.99063,-5.71915 21.91551,0.45956c5.92488,6.17872 5.71913,15.99061 -0.45958,21.91553c-6.17869,5.92493 -15.99065,5.71912 -21.91554,-0.4596c-5.92484,-6.17868 -5.71917,-15.99058 0.45962,-21.91548z" data-paper-data="{&quot;index&quot;:null}" fill="url(#color-18)" stroke="none" stroke-width="0" stroke-linecap="butt"/><g data-paper-data="{&quot;index&quot;:null}" stroke-linecap="butt"><path d="M-95.01234,205.26388c0,0 43.19043,4.98655 63.28441,10.96542c19.55414,5.81824 54.61904,28.04841 54.61904,28.04841l-18.99062,63.16398c0,0 -40.08729,-0.13094 -59.3133,-5.85158c-20.37061,-6.0612 -60.218,-27.74821 -60.218,-27.74821z" fill="#696969" stroke="#000000" stroke-width="2"/><path d="M-101.35469,228.36043l118.09518,35.13866l-7.23453,24.06249l-118.09511,-35.13862z" fill="url(#color-19)" stroke="none" stroke-width="0"/><path d="M-112.19844,258.02992c-0.23996,-3.12078 2.84016,-3.40391 2.84016,-3.40391l4.37494,-0.35035c5.48591,-2.81662 9.58153,-7.19688 14.69257,-10.60824c3.39611,-2.26673 7.29425,-3.35332 10.76368,-5.39887c3.79524,-2.23757 6.78123,-5.6004 11.36595,-6.37135c11.5484,-1.94183 24.25881,6.2062 27.46104,16.90961c2.06641,5.87665 5.20814,11.27767 7.07867,17.18757c0.31506,0.99538 1.29197,5.59635 2.66404,6.76379c2.20118,1.87301 9.00817,1.10067 11.0886,0.86178c11.67313,-1.34038 21.73865,-9.55276 33.44993,-11.40625c0,0 3.06177,-0.45791 3.47438,2.642c0.41258,3.09998 -2.6492,3.55795 -2.6492,3.55795c-11.80082,1.63029 -21.72704,10.10648 -33.57867,11.42413c-4.34706,0.48336 -11.90334,1.01049 -15.68632,-2.16949c-3.82588,-3.21589 -3.84394,-8.49259 -5.66497,-12.75145c-2.031,-4.75016 -4.33021,-9.19163 -6.05489,-14.10281c-2.20534,-7.86308 -12.05692,-14.25283 -20.59346,-12.74354c-3.65296,0.64585 -6.22693,3.7991 -9.267,5.58623c-3.39323,1.99473 -7.23854,3.04739 -10.54378,5.26105c-5.72245,3.8326 -10.1473,8.39458 -16.41435,11.39423l-5.48125,0.5557c0,0 -3.08009,0.28311 -3.32012,-2.83765z" fill="#000000" stroke="none" stroke-width="0.5"/><path d="M-95.01234,205.26388c0,0 43.19043,4.98655 63.28441,10.96542c19.55414,5.81824 54.61904,28.04841 54.61904,28.04841l-18.99062,63.16398c0,0 -40.08729,-0.13094 -59.3133,-5.85158c-20.37061,-6.0612 -60.218,-27.74821 -60.218,-27.74821z" fill="#ffe400" stroke="#000000" stroke-width="2"/></g><g data-paper-data="{&quot;index&quot;:null}" stroke-linecap="butt"><path d="M33.65874,244.55218c0,0 43.10425,5.68361 63.09905,11.98635c19.45764,6.13338 54.15879,28.92707 54.15879,28.92707l-20.00849,62.84896c0,0 -40.07993,-0.77849 -59.21107,-6.80897c-20.27005,-6.38951 -59.76192,-28.71735 -59.76192,-28.71735z" fill="#696969" stroke="#000000" stroke-width="2"/><path d="M26.94408,267.54331l117.51215,37.04179l-7.62232,23.94248l-117.51209,-37.04179z" fill="url(#color-20)" stroke="none" stroke-width="0"/><path d="M15.62247,297.03371c-0.18951,-3.12429 2.89477,-3.35759 2.89477,-3.35759l4.38004,-0.27963c5.53067,-2.72765 9.69651,-7.04117 14.862,-10.36952c3.43232,-2.21161 7.34748,-3.23509 10.84949,-5.22433c3.8309,-2.17598 6.87079,-5.4901 11.46737,-6.18686c11.57826,-1.75503 24.15536,6.59727 27.18432,17.351c1.97122,5.90926 5.02529,11.36036 6.80013,17.29967c0.29892,1.00035 1.20138,5.61647 2.5544,6.80591c2.17061,1.90833 8.98919,1.24607 11.07323,1.04078c11.69325,-1.15167 21.89011,-9.20035 33.62982,-10.86439c0,0 3.06874,-0.40838 3.43126,2.69779c0.36246,3.10624 -2.70635,3.51472 -2.70635,3.51472c-11.82562,1.43944 -21.88744,9.75416 -33.75885,10.88022c-4.35431,0.41308 -11.91813,0.81809 -15.64927,-2.42261c-3.77339,-3.27729 -3.70617,-8.55355 -5.4582,-12.84134c-1.954,-4.78236 -4.18118,-9.26036 -5.82629,-14.19878c-2.07801,-7.89768 -11.82513,-14.44569 -20.38491,-13.07454c-3.66292,0.58676 -6.28751,3.69798 -9.35606,5.43578c-3.42505,1.93967 -7.28681,2.93008 -10.62738,5.09006c-5.78359,3.73968 -10.28157,8.22958 -16.59628,11.12761l-5.48952,0.46707c0,0 -3.08428,0.23329 -3.27384,-2.89093z" fill="#000000" stroke="none" stroke-width="0.5"/><path d="M33.65874,244.55218c0,0 43.10425,5.68361 63.09905,11.98635c19.45764,6.13338 54.15879,28.92707 54.15879,28.92707l-20.00849,62.84896c0,0 -40.07993,-0.77849 -59.21107,-6.80897c-20.27005,-6.38951 -59.76192,-28.71735 -59.76192,-28.71735z" fill="#ffe400" stroke="#000000" stroke-width="2"/></g><path d="M456.2367,269.74392c6.02831,6.07796 5.98802,15.8919 -0.08985,21.92014c-6.07791,6.02828 -15.89194,5.98802 -21.92019,-0.08986c-6.02824,-6.07793 -5.98796,-15.89193 0.08993,-21.92018c6.07791,-6.02828 15.8919,-5.98799 21.92014,0.08992z" fill="url(#color-21)" stroke="none" stroke-width="0" stroke-linecap="butt"/><g stroke-linecap="butt"><path d="M580.79163,287.11074c0,0 -41.06909,19.27353 -61.76476,24.10984c-19.53282,4.56457 -59.55664,2.30603 -59.55664,2.30603l-15.19222,-64.18356c0,0 36.32745,-20.10072 56.19365,-24.74318c20.41465,-4.77064 63.82547,-7.17411 63.82547,-7.17411z" fill="#696969" stroke="#000000" stroke-width="2"/><path d="M575.03912,265.31019l-119.97947,28.03758l-5.78751,-24.4509l119.97954,-28.03761z" fill="url(#color-22)" stroke="none" stroke-width="0"/><path d="M578.30778,271.12242c-0.42561,3.10089 -3.48336,2.6347 -3.48336,2.6347l-5.43839,-0.88141c-6.07711,-3.36784 -10.22222,-8.18543 -15.70608,-12.35228c-3.16741,-2.40672 -6.94312,-3.6867 -10.21145,-5.88014c-2.92816,-1.96515 -5.30962,-5.26621 -8.91757,-6.12861c-8.43137,-2.01538 -18.64629,3.77584 -21.31637,11.49351c-2.01434,4.79966 -4.57417,9.09619 -6.88469,13.71687c-2.07163,4.14279 -2.40415,9.409 -6.4149,12.39116c-3.9658,2.94886 -11.47722,1.97231 -15.78775,1.23071c-11.75207,-2.02169 -21.15546,-11.07442 -32.8381,-13.40516c0,0 -3.02903,-0.63966 -2.43244,-3.70953c0.59661,-3.06981 3.62566,-2.43023 3.62566,-2.43023c11.57998,2.54818 21.13815,11.34589 32.71064,13.37962c2.0625,0.36247 8.81135,1.53914 11.12027,-0.19936c1.43921,-1.08359 2.68865,-5.61813 3.06243,-6.59295c2.21945,-5.78787 5.67748,-10.99206 8.09049,-16.73511c3.83451,-10.49351 17.00793,-17.86953 28.42007,-15.24283c4.53062,1.04284 7.31087,4.57764 10.96603,7.03744c3.34134,2.24869 7.16779,3.56567 10.42275,6.0308c4.89865,3.70989 8.72592,8.32648 14.03419,11.46509l4.34628,0.61048c0,0 3.0578,0.46621 2.63226,3.56716z" fill="#000000" stroke="none" stroke-width="0.5"/><path d="M580.79163,287.11074c0,0 -41.06909,19.27353 -61.76476,24.10984c-19.53282,4.56457 -59.55664,2.30603 -59.55664,2.30603l-15.19222,-64.18356c0,0 36.32745,-20.10072 56.19365,-24.74318c20.41465,-4.77064 63.82547,-7.17411 63.82547,-7.17411z" fill="#ffe400" stroke="#000000" stroke-width="2"/></g><g stroke-linecap="butt"><path d="M453.02004,317.69438c0,0 -40.0391,21.33094 -60.46297,27.21032c-19.27625,5.54899 -59.36313,5.32263 -59.36313,5.32263l-18.42683,-63.33073c0,0 35.2616,-21.91671 54.86687,-27.56042c20.14647,-5.79952 63.37967,-10.40094 63.37967,-10.40094z" fill="#696969" stroke="#000000" stroke-width="2"/><path d="M446.16961,296.21352l-118.40365,34.08455l-7.01976,-24.12598l118.4037,-34.08459z" fill="url(#color-23)" stroke="none" stroke-width="0"/><path d="M449.7288,301.85252c-0.26785,3.11845 -3.34529,2.80795 -3.34529,2.80795l-5.47609,-0.60452c-6.24007,-3.0554 -10.62408,-7.65663 -16.31213,-11.54011c-3.28538,-2.24304 -7.12112,-3.32995 -10.49646,-5.35485c-3.02402,-1.81417 -5.56979,-4.99024 -9.21686,-5.6686c-8.52273,-1.58531 -18.43091,4.71637 -20.70622,12.55946c-1.76836,4.89564 -4.1071,9.31642 -6.18037,14.04828c-1.85895,4.24249 -1.92401,9.51883 -5.77836,12.70048c-3.81119,3.14616 -11.36248,2.55164 -15.70505,2.0296c-11.83944,-1.42327 -21.68969,-9.98761 -33.47551,-11.72301c0,0 -3.0576,-0.48528 -2.6174,-3.58145c0.44027,-3.0961 3.49782,-2.61094 3.49782,-2.61094c11.69431,1.95779 21.68619,10.25955 33.34693,11.70394c2.07822,0.25744 8.87804,1.09039 11.09583,-0.7629c1.38241,-1.15516 2.40034,-5.74719 2.72419,-6.73974c1.92316,-5.89297 5.11292,-11.26578 7.23163,-17.12378c3.29757,-10.67443 16.08004,-18.70885 27.61069,-16.66414c4.57769,0.81177 7.53358,4.20104 11.30868,6.47235c3.45105,2.0764 7.33933,3.1977 10.71512,5.49465c5.08045,3.45676 9.13684,7.87337 14.59741,10.73878l4.37165,0.38935c0,0 3.07746,0.31059 2.80972,3.42909z" fill="#000000" stroke="none" stroke-width="0.5"/><path d="M453.02004,317.69438c0,0 -40.0391,21.33094 -60.46297,27.21032c-19.27625,5.54899 -59.36313,5.32263 -59.36313,5.32263l-18.42683,-63.33073c0,0 35.2616,-21.91671 54.86687,-27.56042c20.14647,-5.79952 63.37967,-10.40094 63.37967,-10.40094z" fill="#ffe400" stroke="#000000" stroke-width="2"/></g><g data-paper-data="{&quot;index&quot;:null}" fill="#ffe400" stroke="#000000" stroke-width="2" stroke-linecap="butt"><path d="M401.5898,158.96918c0,0.9269 -9.83768,30.3539 -37.03041,39.68672c-31.29,9.10031 -34.11814,11.13139 -45.27449,10.93298c-0.22096,-22.01431 -19.67073,-25.0701 -31.04245,-25.0701c-1.07253,0 -2.12646,0.08028 -3.15612,0.23514c-0.65347,-68.22188 -0.02767,-154.35243 0.68828,-153.9321c37.19353,0.8791 115.8152,68.81172 115.8152,128.14735zM338.26172,129.17086c0,-11.75683 -9.47499,-21.28765 -21.16298,-21.28765c-11.68796,0 -21.16298,9.5308 -21.16298,21.28765c0,11.75683 9.47499,21.28767 21.16298,21.28767c11.68796,0 21.16298,-9.53085 21.16298,-21.28767z" data-paper-data="{&quot;index&quot;:null}"/><path d="M319.34494,179.87401c0,8.66637 -11.07569,7.8796 -16.4275,13.92244c-6.36148,7.18286 -6.58242,26.17671 -16.99269,26.17671c-6.18834,0 -4.08932,-76.3738 -1.28706,-76.3738c19.1683,0 34.70727,17.30694 34.70727,36.27466z"/></g><g fill="#ffe400" stroke="#000000" stroke-width="2" stroke-linecap="butt"><path d="M86.02978,159.47411c0,-59.33563 82.12575,-127.26823 119.53845,-128.14735c0.72016,-0.42033 -1.69122,85.71023 -2.34851,153.9321c-1.03571,-0.15487 -2.09581,-0.23513 -3.1747,-0.23513c-11.43875,0 -33.84144,0.21741 -34.06372,22.23175c-11.22209,0.19839 -11.22851,1.00562 -42.70287,-8.09468c-27.35293,-9.3328 -37.24856,-38.7598 -37.24856,-39.6867zM174.56665,151.67305c11.75685,0 21.28767,-9.53085 21.28767,-21.28767c0,-11.75683 -9.53085,-21.28765 -21.28767,-21.28765c-11.75685,0 -21.28764,9.5308 -21.28764,21.28765c0,11.75683 9.5308,21.28767 21.28764,21.28767z" data-paper-data="{&quot;index&quot;:null}"/><path d="M201.54225,144.81388c2.81875,0 6.22478,76.3738 0,76.3738c-10.4716,0 -12.60168,-20.9244 -19.00066,-28.10726c-5.38338,-6.04285 -15.91115,-5.25607 -15.91115,-13.92244c0,-18.96771 15.63056,-34.3441 34.91181,-34.3441z"/></g><path d="M297.40083,263.79229c11.47263,0.17416 28.42842,0.01805 52.10944,-7.13323c23.48022,-12.31649 30.89673,-20.73868 37.73229,-29.07795c0.04563,-0.05566 0.09112,-0.11132 0.13652,-0.16705c-6.94222,53.06366 -54.90739,94.14414 -113.04548,94.14414c-1.22575,0 -2.06992,-15.90938 -2.62718,-39.45941c0.82667,0.09754 19.64413,0.14769 20.49699,0.14769c4.00919,0 5.27449,-8.50102 5.19739,-18.45418z" data-paper-data="{&quot;index&quot;:null}" fill="#ffe400" stroke="#000000" stroke-width="2" stroke-linecap="butt"/><path d="M191.16606,284.57002c0.85284,0 19.67031,-0.05016 20.49699,-0.14768c-0.55726,23.55003 -1.4014,39.45941 -2.62716,39.45941c-58.13804,0 -106.10327,-41.08047 -113.04548,-94.14414c0.04542,0.05573 0.09093,0.11141 0.13652,0.16705c6.83558,8.33929 14.25212,16.76147 37.73229,29.07795c23.68101,7.15126 40.63683,7.30738 52.10947,7.13321c-0.07709,9.95314 1.18822,18.45418 5.19741,18.45418z" data-paper-data="{&quot;index&quot;:null}" fill="#ffe400" stroke="#000000" stroke-width="2" stroke-linecap="butt"/></g></g></svg>