<svg version="1.1" xmlns="http://www.w3.org/2000/svg" xmlns:xlink="http://www.w3.org/1999/xlink" width="985.5588" height="607.41003" viewBox="0,0,985.5588,607.41003"><defs><linearGradient x1="-50.67801" y1="388.34604" x2="-89.78768" y2="395.68159" gradientUnits="userSpaceOnUse" id="color-1"><stop offset="0" stop-color="#5c5c5c"/><stop offset="1" stop-color="#9b9b9b"/></linearGradient><linearGradient x1="-143.63113" y1="464.27452" x2="-162.1789" y2="438.26851" gradientUnits="userSpaceOnUse" id="color-2"><stop offset="0" stop-color="#5c5c5c"/><stop offset="1" stop-color="#9b9b9b"/></linearGradient><linearGradient x1="19.90356" y1="379.3027" x2="8.07262" y2="349.63185" gradientUnits="userSpaceOnUse" id="color-3"><stop offset="0" stop-color="#5c5c5c"/><stop offset="1" stop-color="#9b9b9b"/></linearGradient><linearGradient x1="529.87844" y1="389.52757" x2="568.98809" y2="396.8631" gradientUnits="userSpaceOnUse" id="color-4"><stop offset="0" stop-color="#5c5c5c"/><stop offset="1" stop-color="#9b9b9b"/></linearGradient><linearGradient x1="622.83155" y1="465.45605" x2="641.37931" y2="439.45003" gradientUnits="userSpaceOnUse" id="color-5"><stop offset="0" stop-color="#5c5c5c"/><stop offset="1" stop-color="#9b9b9b"/></linearGradient><linearGradient x1="459.29686" y1="380.48421" x2="471.1278" y2="350.81336" gradientUnits="userSpaceOnUse" id="color-6"><stop offset="0" stop-color="#5c5c5c"/><stop offset="1" stop-color="#9b9b9b"/></linearGradient><linearGradient x1="239.18919" y1="318.97309" x2="239.18919" y2="337.98117" gradientUnits="userSpaceOnUse" id="color-7"><stop offset="0" stop-color="#5c5c5c"/><stop offset="1" stop-color="#9b9b9b"/></linearGradient><linearGradient x1="269.69396" y1="371.17304" x2="285.04123" y2="380.28928" gradientUnits="userSpaceOnUse" id="color-8"><stop offset="0" stop-color="#5c5c5c"/><stop offset="1" stop-color="#9b9b9b"/></linearGradient><linearGradient x1="209.91418" y1="372.64478" x2="194.56683" y2="381.76102" gradientUnits="userSpaceOnUse" id="color-9"><stop offset="0" stop-color="#5c5c5c"/><stop offset="1" stop-color="#9b9b9b"/></linearGradient><linearGradient x1="228.03715" y1="518.11292" x2="250.6658" y2="518.11292" gradientUnits="userSpaceOnUse" id="color-10"><stop offset="0" stop-color="#5c5c5c"/><stop offset="1" stop-color="#9b9b9b"/></linearGradient><linearGradient x1="353.06469" y1="328.81335" x2="392.85638" y2="328.81335" gradientUnits="userSpaceOnUse" id="color-11"><stop offset="0" stop-color="#5c5c5c"/><stop offset="1" stop-color="#9b9b9b"/></linearGradient><linearGradient x1="89.21736" y1="328.81335" x2="129.009" y2="328.81335" gradientUnits="userSpaceOnUse" id="color-12"><stop offset="0" stop-color="#5c5c5c"/><stop offset="1" stop-color="#9b9b9b"/></linearGradient><linearGradient x1="137.96889" y1="236.6436" x2="336.56336" y2="191.51284" gradientUnits="userSpaceOnUse" id="color-13"><stop offset="0" stop-color="#6c6c6c"/><stop offset="1" stop-color="#c4c4c4"/></linearGradient><linearGradient x1="202.74188" y1="212.92056" x2="280.85571" y2="195.16911" gradientUnits="userSpaceOnUse" id="color-14"><stop offset="0" stop-color="#6e6e6e"/><stop offset="1" stop-color="#c0c0c0"/></linearGradient><linearGradient x1="218.64256" y1="106.97782" x2="238.04877" y2="192.3735" gradientUnits="userSpaceOnUse" id="color-15"><stop offset="0" stop-color="#a6a6a6"/><stop offset="1" stop-color="#707070"/></linearGradient><linearGradient x1="160.86284" y1="106.86056" x2="208.12707" y2="195.62368" gradientUnits="userSpaceOnUse" id="color-16"><stop offset="0" stop-color="#a6a6a6"/><stop offset="1" stop-color="#707070"/></linearGradient><linearGradient x1="270.34765" y1="83.42835" x2="266.51844" y2="185.79698" gradientUnits="userSpaceOnUse" id="color-17"><stop offset="0" stop-color="#a6a6a6"/><stop offset="1" stop-color="#707070"/></linearGradient><linearGradient x1="233.86665" y1="172.4387" x2="239.43282" y2="196.93213" gradientUnits="userSpaceOnUse" id="color-18"><stop offset="0" stop-color="#a6a6a6"/><stop offset="1" stop-color="#707070"/></linearGradient><linearGradient x1="237.50713" y1="194.58496" x2="242.93057" y2="218.45053" gradientUnits="userSpaceOnUse" id="color-19"><stop offset="0" stop-color="#707070"/><stop offset="1" stop-color="#a6a6a6"/></linearGradient><linearGradient x1="215.93751" y1="93.5429" x2="226.01667" y2="137.89558" gradientUnits="userSpaceOnUse" id="color-20"><stop offset="0" stop-color="#a6a6a6"/><stop offset="1" stop-color="#707070"/></linearGradient></defs><g transform="translate(253.1792,-26.27801)"><g data-paper-data="{&quot;isPaintingLayer&quot;:true}" fill-rule="nonzero" stroke-linejoin="miter" stroke-miterlimit="10" stroke-dasharray="" stroke-dashoffset="0" style="mix-blend-mode: normal"><g data-paper-data="{&quot;index&quot;:null}" stroke-linecap="butt"><path d="M-73.90064,372.45899c10.79987,-2.02567 21.19697,5.0872 23.22264,15.88705c2.02563,10.79984 -5.08727,21.197 -15.8871,23.22263c-10.79984,2.02567 -21.19695,-5.0872 -23.22261,-15.8871c-2.02567,-10.79986 5.08724,-21.19694 15.88705,-23.22257z" data-paper-data="{&quot;index&quot;:null}" fill="url(#color-1)" stroke="none" stroke-width="0"/><g data-paper-data="{&quot;index&quot;:null}"><path d="M-251.85853,462.37965c0,0 43.99213,-41.45463 68.26776,-57.93972c23.62346,-16.04226 78.26494,-35.77748 78.26494,-35.77748l48.68806,68.2658c0,0 -36.14996,41.91947 -59.37701,57.69248c-24.60982,16.71202 -82.98253,41.87622 -82.98253,41.87622z" fill="#696969" stroke="#000000" stroke-width="2"/><path d="M-233.51461,486.71099l142.67118,-96.88512l18.54787,26.00608l-142.67108,96.88507z" fill="url(#color-2)" stroke="none" stroke-width="0"/><path d="M-212.37255,520.79325c-3.46405,-2.13785 -0.99165,-5.58322 -0.99165,-5.58322l3.56566,-4.85409c1.99652,-7.90682 1.11644,-15.5535 2.15714,-23.52275c0.6915,-5.29529 3.06245,-10.21322 4.05006,-15.41606c1.08041,-5.69134 0.26248,-11.39593 3.57883,-16.79189c8.35357,-13.59182 28.25386,-20.67664 42.27214,-15.83847c7.97356,2.33326 16.41808,3.17528 24.25027,5.73925c1.31911,0.43183 6.986,2.93039 9.43386,2.38601c3.92714,-0.87329 9.2385,-8.59973 10.85881,-10.96335c9.09166,-13.26207 9.58586,-30.10037 18.17777,-43.79528c0,0 2.274,-3.55998 5.87146,-1.61914c3.59752,1.94098 1.3236,5.50098 1.3236,5.50098c-8.90461,13.61782 -8.99911,30.51215 -18.27481,43.94392c-3.40216,4.92668 -9.64188,13.25081 -16.3506,14.78149c-6.78456,1.54812 -12.2934,-2.4729 -18.36257,-3.82479c-6.7692,-1.50786 -13.45796,-2.49834 -20.11957,-4.45064c-10.16605,-3.70854 -25.66782,1.72589 -31.76581,11.82945c-2.60951,4.3235 -1.63964,9.43579 -2.51051,13.99071c-0.97209,5.08405 -3.33088,9.92059 -3.99597,15.08001c-1.15146,8.93263 -0.378,17.06355 -2.88581,25.92934l-4.34582,6.17091c0,0 -2.47248,3.44533 -5.93655,1.30764z" fill="#000000" stroke="none" stroke-width="0.5"/><path d="M-251.85853,462.37965c0,0 43.99213,-41.45463 68.26776,-57.93972c23.62346,-16.04226 78.26494,-35.77748 78.26494,-35.77748l48.68806,68.2658c0,0 -36.14996,41.91947 -59.37701,57.69248c-24.60982,16.71202 -82.98253,41.87622 -82.98253,41.87622z" fill="#0096ff" stroke="#000000" stroke-width="2"/></g><g data-paper-data="{&quot;index&quot;:null}"><path d="M-84.76824,351.72393c0,0 52.58866,-29.80316 80.08826,-40.04213c26.76083,-9.96393 84.52802,-16.13825 84.52802,-16.13825l31.05638,77.88612c0,0 -45.08203,32.11967 -71.39377,41.91634c-27.87817,10.37989 -90.56063,20.94005 -90.56063,20.94005z" fill="#696969" stroke="#000000" stroke-width="2"/><path d="M-72.73698,379.71957l161.61891,-60.17574l11.83101,29.67096l-161.61882,60.17571z" fill="url(#color-3)" stroke="none" stroke-width="0"/><path d="M-60.3069,417.85198c-2.85628,-2.90032 0.36458,-5.65887 0.36458,-5.65887l4.61775,-3.86684c3.81961,-7.20518 4.7833,-14.84171 7.6894,-22.33483c1.93097,-4.9789 5.40349,-9.1919 7.60007,-14.0106c2.40291,-5.27112 2.96509,-11.00654 7.46956,-15.459c11.34628,-11.21525 32.36052,-13.36415 44.826,-5.33097c7.1899,4.16256 15.19191,6.98869 22.18965,11.34174c1.17857,0.73315 6.08865,4.5077 8.59577,4.56109c4.02218,0.08573 11.0186,-6.15592 13.15454,-8.06636c11.98476,-10.71939 16.46924,-26.95712 28.07156,-38.21578c0,0 3.05542,-2.91704 6.08806,-0.17633c3.03272,2.74081 -0.02263,5.65793 -0.02263,5.65793c-11.88771,11.10946 -15.99726,27.4966 -28.20116,38.33711c-4.4762,3.9762 -12.51653,10.57764 -19.39679,10.46895c-6.95807,-0.10979 -11.35259,-5.32555 -16.92615,-8.08201c-6.21636,-3.07447 -12.47769,-5.6272 -18.48385,-9.10774c-8.99244,-6.01983 -25.34184,-4.4279 -33.66767,3.93558c-3.56281,3.57887 -3.83659,8.77513 -5.76571,12.99227c-2.15328,4.707 -5.59463,8.84385 -7.46764,13.69707c-3.24274,8.40254 -4.42517,16.48408 -8.96946,24.49908l-5.68868,4.96036c0,0 -3.22088,2.75848 -6.07722,-0.14172z" fill="#000000" stroke="none" stroke-width="0.5"/><path d="M-84.76824,351.72393c0,0 52.58866,-29.80316 80.08826,-40.04213c26.76083,-9.96393 84.52802,-16.13825 84.52802,-16.13825l31.05638,77.88612c0,0 -45.08203,32.11967 -71.39377,41.91634c-27.87817,10.37989 -90.56063,20.94005 -90.56063,20.94005z" fill="#0096ff" stroke="#000000" stroke-width="2"/></g></g><g data-paper-data="{&quot;index&quot;:null}" stroke-linecap="butt"><path d="M553.10106,373.6405c10.7998,2.02563 17.91271,12.42272 15.88705,23.22257c-2.02566,10.79989 -12.42276,17.91277 -23.2226,15.8871c-10.7998,-2.02563 -17.91272,-12.42281 -15.8871,-23.22263c2.02567,-10.79985 12.42277,-17.91271 23.22264,-15.88705z" data-paper-data="{&quot;index&quot;:null}" fill="url(#color-4)" stroke="none" stroke-width="0"/><g data-paper-data="{&quot;index&quot;:null}"><path d="M678.19769,537.67841c0,0 -58.37272,-25.1642 -82.98253,-41.87622c-23.22705,-15.773 -59.37701,-57.69248 -59.37701,-57.69248l48.68806,-68.2658c0,0 54.64147,19.73523 78.26494,35.77747c24.27564,16.48508 68.26777,57.93972 68.26777,57.93972z" fill="#696969" stroke="#000000" stroke-width="2"/><path d="M694.16711,513.89852l-142.67108,-96.88507l18.54787,-26.00608l142.67118,96.88512z" fill="url(#color-5)" stroke="none" stroke-width="0"/><path d="M691.57307,521.97478c-3.46409,2.1377 -5.93654,-1.30764 -5.93654,-1.30764l-4.34582,-6.17091c-2.50781,-8.86576 -1.73436,-16.99669 -2.88581,-25.92935c-0.66509,-5.15943 -3.02386,-9.99598 -3.99597,-15.08001c-0.87087,-4.5549 0.09899,-9.6672 -2.51052,-13.99071c-6.098,-10.10354 -21.59975,-15.53799 -31.76581,-11.82945c-6.66161,1.95232 -13.35036,2.94279 -20.11957,4.45066c-6.06918,1.3519 -11.57801,5.3729 -18.36257,3.82479c-6.70872,-1.53066 -12.94845,-9.85481 -16.3506,-14.78149c-9.27569,-13.43178 -9.37019,-30.32611 -18.27482,-43.94392c0,0 -2.27394,-3.56 1.32359,-5.50098c3.59746,-1.94086 5.87146,1.61914 5.87146,1.61914c8.59189,13.6949 9.08607,30.53321 18.17777,43.79528c1.62032,2.36363 6.93166,10.09007 10.85881,10.96335c2.44787,0.5444 8.11474,-1.95419 9.43386,-2.38601c7.8322,-2.56397 16.27669,-3.40601 24.25027,-5.73925c14.01827,-4.83817 33.91857,2.24667 42.27214,15.83847c3.31636,5.39597 2.49843,11.10055 3.57883,16.7919c0.98763,5.20284 3.35856,10.12075 4.05006,15.41606c1.04068,7.96922 0.16062,15.61591 2.15714,23.52274l3.56566,4.85409c0,0 2.4724,3.44539 -0.99165,5.58322z" fill="#000000" stroke="none" stroke-width="0.5"/><path d="M678.19769,537.67841c0,0 -58.37272,-25.1642 -82.98253,-41.87622c-23.22705,-15.773 -59.37701,-57.69248 -59.37701,-57.69248l48.68806,-68.2658c0,0 54.64147,19.73523 78.26494,35.77747c24.27564,16.48508 68.26777,57.93972 68.26777,57.93972z" fill="#0096ff" stroke="#000000" stroke-width="2"/></g><g data-paper-data="{&quot;index&quot;:null}"><path d="M530.25043,437.46757c0,0 -62.68247,-10.56015 -90.56064,-20.94003c-26.31175,-9.79669 -71.39377,-41.91634 -71.39377,-41.91634l31.05638,-77.88612c0,0 57.76719,6.17431 84.52802,16.13825c27.49961,10.23897 80.08826,40.04213 80.08826,40.04213z" fill="#696969" stroke="#000000" stroke-width="2"/><path d="M540.1063,410.572l-161.61882,-60.17571l11.83101,-29.67096l161.6189,60.17574z" fill="url(#color-6)" stroke="none" stroke-width="0"/><path d="M539.50737,419.0336c-2.85631,2.9002 -6.07722,0.14172 -6.07722,0.14172l-5.68869,-4.96037c-4.54428,-8.01502 -5.7267,-16.09659 -8.96944,-24.49909c-1.87299,-4.85325 -5.31436,-8.99007 -7.46764,-13.69707c-1.92914,-4.21712 -2.20291,-9.41339 -5.76571,-12.99228c-8.32582,-8.36348 -24.67525,-9.95541 -33.66769,-3.93558c-6.00619,3.48054 -12.26749,6.0333 -18.48385,9.10774c-5.57356,2.75646 -9.96811,7.97222 -16.92615,8.08201c-6.88028,0.10869 -14.92059,-6.49275 -19.39679,-10.46895c-12.20391,-10.84048 -16.31345,-27.22761 -28.20116,-38.33708c0,0 -3.05534,-2.91711 -0.02262,-5.65793c3.03266,-2.7407 6.08806,0.17633 6.08806,0.17633c11.60231,11.25867 16.08676,27.49638 28.07156,38.21578c2.13596,1.91045 9.1324,8.15208 13.15455,8.06636c2.50712,-0.05338 7.41719,-3.82796 8.59577,-4.56109c6.99774,-4.35306 14.99973,-7.17915 22.18964,-11.34173c12.46551,-8.03317 33.47973,-5.88428 44.82601,5.33097c4.50449,4.45245 5.06668,10.18789 7.46956,15.459c2.19657,4.81869 5.6691,9.03169 7.60007,14.01059c2.90608,7.49311 3.86979,15.12965 7.6894,22.33484l4.61775,3.86684c0,0 3.22086,2.75855 0.36458,5.65887z" fill="#000000" stroke="none" stroke-width="0.5"/><path d="M530.25043,437.46757c0,0 -62.68247,-10.56015 -90.56064,-20.94003c-26.31175,-9.79669 -71.39377,-41.91634 -71.39377,-41.91634l31.05638,-77.88612c0,0 57.76719,6.17431 84.52802,16.13825c27.49961,10.23897 80.08826,40.04213 80.08826,40.04213z" fill="#0096ff" stroke="#000000" stroke-width="2"/></g></g><path d="M242.27632,262.20529c64.48582,1.39628 204.64316,95.96523 204.64316,214.34436c0,38.59609 -9.73932,74.80954 -26.78458,106.0912c-35.23449,64.66333 -318.80679,65.7547 -354.37071,2.43385c-17.87775,-31.83098 -28.13107,-68.92386 -28.13107,-108.52505c0,-118.37913 128.49289,-215.99321 204.6432,-214.34435z" fill="#696969" stroke="#000000" stroke-width="2" stroke-linecap="butt"/><path d="M104.8781,337.98117v-19.0081h268.62224v19.0081z" fill="url(#color-7)" stroke="none" stroke-width="0" stroke-linecap="butt"/><path d="M229.10803,416.32357l81.17184,-90.30135l15.34732,9.1163l-81.17184,90.30135z" fill="url(#color-8)" stroke="none" stroke-width="0" stroke-linecap="butt"/><path d="M235.15275,426.91153l-81.17184,-90.30135l15.34732,-9.1163l81.17188,90.30138z" data-paper-data="{&quot;index&quot;:null}" fill="url(#color-9)" stroke="none" stroke-width="0" stroke-linecap="butt"/><path d="M228.03715,629.81259v-223.39907h22.62866v223.39907z" fill="url(#color-10)" stroke="none" stroke-width="0" stroke-linecap="butt"/><path d="M269.73459,410.08824c0.93326,-3.32988 5.65335,-2.67154 5.65335,-2.67154l3.68613,0.59662c1.79921,0.56848 3.59827,1.13694 5.3975,1.70544c9.29565,5.28218 18.27897,12.26994 26.54146,19.02484c3.38288,-1.18447 6.37155,-2.96086 8.72334,-5.54318c5.4988,-6.0381 -0.45208,-12.685 -1.74103,-18.75796c-1.57028,-7.39847 1.31869,-15.02583 0.00082,-22.45617c-1.91997,-10.82518 -13.57691,-22.01175 -23.30309,-30.1202c-9.28429,-7.86855 -26.69776,-9.13467 -34.06463,-17.65603c-6.21028,-7.18348 -2.42275,-16.04932 -6.43674,-23.48061c-0.63255,3.19878 -2.11782,6.25952 -4.75425,9.09776c-6.50486,7.00289 -20.22359,13.86435 -30.13447,18.12701c-6.43563,2.76792 -18.34775,5.01018 -23.36665,9.14975c-3.86092,3.18436 -4.64676,7.71343 -7.0693,11.53934c-9.51749,15.03082 -25.03254,32.19124 -1.2669,44.09794c5.3409,2.67583 9.9404,4.33069 16.53297,4.23652h2.14727c0,0 4.81156,0 4.81156,3.39428c0,3.39428 -4.81156,3.39429 -4.81156,3.39429h-2.14727c-17.31204,-0.17725 -41.85412,-12.58238 -40.21603,-26.57237c1.2325,-10.52616 10.15165,-21.82467 16.16362,-31.31942c0.69572,-1.09879 7.99408,-12.73374 8.62969,-13.25395c5.89089,-4.82121 18.06146,-7.23916 25.5896,-10.46548c8.81237,-3.7767 21.34618,-9.96392 27.1971,-16.163c5.61393,-5.94814 4.02717,-14.11352 0.38955,-22.28628c-6.37442,-7.13025 -14.13822,-13.65027 -23.39965,-18.34339c0,0 -3.89568,-1.99219 -1.07166,-4.74031c2.8239,-2.74818 6.71958,-0.75605 6.71958,-0.75605c2.43511,1.25538 4.79028,2.62247 7.06176,4.0841c-0.3856,-0.75461 -0.73929,-1.48391 -1.05327,-2.18445c0,0 -1.45035,-3.23648 3.13738,-4.2596c4.58774,-1.02315 6.03805,2.21329 6.03805,2.21329c2.68156,5.98377 7.03844,12.8844 10.4087,19.94912c5.26759,5.75283 9.65144,11.89309 13.05071,17.92822c4.14575,7.36059 0.52306,16.22055 6.17779,23.21116c3.37007,4.16621 12.69213,5.1735 18.05787,7.35274c5.78482,2.34945 10.70703,5.74574 15.03676,9.3297c10.97423,9.21483 23.28024,21.41103 25.48806,33.61884c1.34494,7.43691 -1.59871,15.09657 0.00074,22.46486c1.76897,8.14922 7.67648,15.07065 0.40629,23.16837c-2.92431,3.25723 -6.52416,5.60125 -10.56695,7.24986c0.15368,0.1271 0.30701,0.2539 0.45992,0.38043c5.91787,4.89342 9.64146,10.08094 17.63163,13.52956c24.88129,10.73892 28.87837,-17.43399 25.61765,-27.98207c-14.12406,-27.46594 -32.40287,-56.34587 -10.33555,-84.91954c3.15774,-4.08879 7.60095,-7.2761 12.25671,-10.36279c0.27057,1.69366 2.3079,3.00992 4.78102,3.00992c0.28586,0 0.56591,-0.01758 0.83802,-0.05128c0.39235,0.54592 0.98752,1.00688 1.71576,1.3336c-4.29225,2.79317 -8.38221,5.69885 -11.14464,9.32266c-20.5118,26.90819 -1.98581,54.07311 11.1366,79.79092c2.0835,6.81377 4.07979,14.95673 1.03016,21.81736c-5.81885,13.0902 -23.05129,21.31935 -40.9029,13.83862c-9.0504,-3.79258 -13.35778,-9.45658 -19.94493,-14.9204c-0.86888,-0.72076 -1.74995,-1.45462 -2.64227,-2.19786c-10.81076,1.76887 -23.14906,0.53525 -33.92865,-0.80967c-2.03769,-0.38634 -4.07531,-0.77277 -6.11302,-1.15913l0.17892,0.11703c0,0 -4.81151,0 -4.81151,-3.39435c0,-3.39428 4.81151,-3.39428 4.81151,-3.39428l2.32604,0.117c1.89882,0.36228 3.79778,0.72462 5.69662,1.08692c7.45821,0.92093 16.45596,2.10622 24.7045,1.54003c-6.73366,-5.47616 -13.92624,-10.96298 -21.27184,-15.16728c-1.42175,-0.42974 -2.84338,-0.85951 -4.26497,-1.28925l-1.68183,-0.15212c0,0 -4.72014,-0.65836 -3.78701,-3.98815z" fill="#000000" stroke="none" stroke-width="0.5" stroke-linecap="butt"/><path d="M225.02733,425.15769c2.65655,3.04293 -2.71851,4.54688 -2.71851,4.54688l-3.79299,0.86835c-9.62887,5.29974 -15.3054,12.47487 -22.30045,18.99923c-25.55134,23.57822 -83.24965,20.73037 -104.99931,-3.78744c-12.21632,-13.77114 -0.24002,-35.08507 13.66199,-46.76496c20.73024,-19.84105 22.81758,-36.7353 12.65777,-58.69915c-2.58442,-5.58715 -8.1099,-14.18189 -17.4913,-18.31712c1.56585,-0.64846 2.25331,-1.62137 2.25331,-1.62137c0.9704,-1.42512 2.19385,-2.8221 3.71621,-4.09269c9.13929,3.75724 15.19051,10.05896 19.53345,16.27326c17.18333,24.58748 12.91756,47.54123 -10.53013,70.08172c-11.99648,10.06089 -19.97179,25.00271 -15.31065,37.41131c1.29981,3.4603 6.26559,6.20366 10.44253,8.52432c7.4085,4.11593 15.18915,9.38249 25.96658,10.72048c21.29167,2.6434 39.40883,-3.39209 49.84862,-13.25058c7.60492,-7.09289 13.78087,-14.43776 24.12128,-20.30476l6.90992,-2.12629c0,0 5.37506,-1.50396 8.03166,1.53898z" fill="#000000" stroke="none" stroke-width="0.5" stroke-linecap="butt"/><path d="M244.26857,411.67532c3.39429,0 3.39429,4.66796 3.39429,4.66796l-0.17793,3.55084c-2.47951,10.07924 -3.38667,21.09459 -6.57468,30.84558c-1.75093,5.35538 -6.98084,12.67745 -6.50829,19.36565c0.48622,6.88268 5.50233,13.03322 8.60326,17.76357c6.99561,10.67152 15.4754,18.9452 22.68007,29.43882c1.42983,4.97759 3.53697,9.97113 2.75641,15.65997c-2.8127,20.50023 -24.79389,32.12384 -36.25498,42.08523c-3.33897,2.90207 -8.06953,3.62679 -10.26419,8.14325c-0.65129,1.34025 0.38455,3.18543 0.68776,4.74259c1.5872,8.15181 3.39233,14.47744 6.82968,21.475c3.38218,6.88525 6.3618,11.1058 11.39467,15.64837c0,0 2.83425,2.56856 0.9665,6.46634c-1.86777,3.89776 -4.70198,1.32913 -4.70198,1.32913c-5.7442,-5.22479 -9.42659,-10.35017 -13.28608,-18.22106c-3.45609,-7.04814 -11.63283,-26.27381 -7.94324,-35.66775c0.58692,-1.49429 11.06987,-10.39944 12.69017,-11.80767c10.95144,-9.5184 37.53846,-22.62049 31.40376,-44.8287c-9.93313,-13.91191 -30.93544,-29.9875 -32.33699,-51.64106c-0.58538,-9.04391 4.66665,-16.41023 7.12462,-23.87841c3.0894,-9.38685 3.92085,-20.1665 6.30088,-29.90194l-0.17794,-0.56772c0,0 0,-4.66794 3.39429,-4.66794z" fill="#000000" stroke="none" stroke-width="0.5" stroke-linecap="butt"/><g><path d="M187.10239,457.12995v-92.32495h96.17181v92.32495z" fill="#323232" stroke="none" stroke-width="0" stroke-linecap="butt"/><g stroke="#000000"><path d="M234.82769,371.32601c20.54581,0 37.20153,16.65571 37.20153,37.20156c0,20.54581 -16.65574,37.20153 -37.20153,37.20153c-20.54581,0 -37.20153,-16.65574 -37.20153,-37.20153c0,-20.54581 16.65574,-37.20156 37.20153,-37.20156z" fill="#878787" stroke-width="1" stroke-linecap="butt"/><path d="M206.38439,385.96513l57.41217,-0.38795" fill="none" stroke-width="1.5" stroke-linecap="round"/><path d="M268.83953,396.05105l-67.11014,-0.38791" fill="none" stroke-width="1.5" stroke-linecap="round"/><path d="M270.00325,405.36093l-71.76522,-1.55171" fill="none" stroke-width="1.5" stroke-linecap="round"/><path d="M271.32865,412.92525l-72.92895,-0.77583" fill="none" stroke-width="1.5" stroke-linecap="round"/><path d="M252.2485,377.04597l-33.42082,-0.41778" fill="none" stroke-width="1.5" stroke-linecap="round"/><path d="M205.93185,431.32492l57.41211,0.38794" data-paper-data="{&quot;index&quot;:null}" fill="none" stroke-width="1.5" stroke-linecap="round"/><path d="M201.27678,421.62692l67.11013,-0.38791" data-paper-data="{&quot;index&quot;:null}" fill="none" stroke-width="1.5" stroke-linecap="round"/><path d="M251.79591,440.24413l-33.42082,0.41772" data-paper-data="{&quot;index&quot;:null}" fill="none" stroke-width="1.5" stroke-linecap="round"/></g></g><path d="M392.85638,328.81335c0,10.98823 -8.90767,19.89587 -19.89579,19.89587c-10.98815,0 -19.89587,-8.9077 -19.89587,-19.89587c0,-10.98819 8.90767,-19.89579 19.89587,-19.89579c10.98815,0 19.89579,8.90765 19.89579,19.89579z" fill="url(#color-11)" stroke="none" stroke-width="0" stroke-linecap="butt"/><path d="M129.009,328.81335c0,10.98823 -8.90769,19.89587 -19.89579,19.89587c-10.98815,0 -19.89587,-8.9077 -19.89587,-19.89587c0,-10.98819 8.90769,-19.89579 19.89587,-19.89579c10.98815,0 19.89579,8.90765 19.89579,19.89579z" fill="url(#color-12)" stroke="none" stroke-width="0" stroke-linecap="butt"/><path d="M246.31479,260.85912c0.15762,0.00202 1.04588,48.24917 2.02532,109.88002c-4.24331,-1.51447 -8.81422,-2.33925 -13.57782,-2.33925c-22.30387,0 -40.38479,18.08093 -40.38479,40.38479c0,22.3039 18.08094,40.38479 40.38479,40.38479c5.19421,0 10.15939,-0.98061 14.72047,-2.7668c1.31706,92.18581 2.33528,184.1273 1.37111,184.0706c-80.83946,-4.75678 -162.99104,-14.58897 -181.05116,-46.74476c-17.87775,-31.83098 -28.13107,-68.92386 -28.13107,-108.52503c0,-118.37914 128.49289,-215.99322 204.6432,-214.34436z" fill="#0096ff" stroke="#000000" stroke-width="2" stroke-linecap="butt"/><path d="M441.73953,476.54963c0,39.60123 -10.25332,76.69405 -28.13107,108.52505c-18.06013,32.15576 -100.21166,41.98796 -181.05116,46.74471c-0.95926,0.05642 0.0437,-90.94842 1.35093,-182.65875c0.28395,0.00589 0.56867,0.00885 0.85407,0.00885c22.3039,0 40.38479,-18.08094 40.38479,-40.38479c0,-22.18131 -17.88267,-40.18589 -40.01738,-40.38314c0.95599,-59.85879 1.81217,-106.19426 1.96661,-106.19625c76.15034,-1.64889 204.64325,95.96523 204.64325,214.34436z" data-paper-data="{&quot;index&quot;:null}" fill="#0096ff" stroke="#000000" stroke-width="2" stroke-linecap="butt"/><path d="M214.74934,119.54376c63.24919,-14.37345 124.22162,16.6532 136.18567,69.29997c11.96404,52.64676 -29.61082,106.97736 -92.86007,121.3508c-63.24925,14.37343 -124.22163,-16.65319 -136.18568,-69.29995c-11.96404,-52.64676 29.61083,-106.97737 92.86009,-121.35082z" fill="#696969" stroke="#000000" stroke-width="2" stroke-linecap="butt"/><path d="M219.11354,134.19891c54.84037,-12.46252 107.4245,13.19772 117.4499,57.31373c10.02541,44.11603 -26.30431,89.98201 -81.14472,102.44453c-54.84037,12.46252 -107.42446,-13.19776 -117.44987,-57.31374c-10.02541,-44.11604 26.30425,-89.982 81.14461,-102.44453z" fill="none" stroke="url(#color-13)" stroke-width="4.5" stroke-linecap="butt"/><g stroke="none" stroke-width="0" stroke-linecap="butt"><path d="M212.0689,253.96339l-18.65405,-82.08574l78.11385,-17.75145l18.65405,82.08574z" fill="url(#color-14)"/><path d="M265.11883,184.12555l-5.41569,-23.83134l9.26771,-2.10609l5.41569,23.83134z" fill="#ffffff"/><path d="M271.28677,211.26701l-5.41569,-23.83134l9.26771,-2.10609l5.41569,23.83134z" fill="#ffffff"/><path d="M277.30423,237.7463l-5.41569,-23.83134l9.26771,-2.10609l5.41569,23.83134z" fill="#ffffff"/><path d="M203.40408,197.45404l-5.41569,-23.83134l9.26777,-2.10613l5.41569,23.83134z" fill="#ffffff"/><path d="M209.572,224.59559l-5.41569,-23.83134l9.26777,-2.10613l5.41569,23.83134z" fill="#ffffff"/><path d="M215.58945,251.07484l-5.4157,-23.83133l9.26777,-2.10613l5.4157,23.83133z" fill="#ffffff"/><path d="M253.00147,243.12988l-1.80522,-7.94381l17.87347,-4.06178l1.80522,7.94381z" fill="#ffffff"/><path d="M232.36166,247.68106l-1.80522,-7.94381l17.87353,-4.06178l1.80522,7.94381z" fill="#ffffff"/></g><path d="M208.30447,63.30535c77.30121,-17.56678 149.23845,8.99404 160.67628,59.32527c11.43782,50.33123 -2.54973,96.98946 -119.25626,122.94025c-123.27761,27.41191 -149.2384,-8.99404 -160.67622,-59.32533c-11.43782,-50.33123 41.95499,-105.3734 119.25622,-122.94017z" fill="#696969" stroke="#000000" stroke-width="2" stroke-linecap="butt"/><path d="M203.62576,200.19617l-19.40626,-85.39567l68.84612,-15.64533l19.40626,85.39567z" fill="url(#color-15)" stroke="none" stroke-width="0" stroke-linecap="butt"/><path d="M200.50518,199.2559l-47.26421,-88.76309l15.24377,-7.26424l47.26423,88.76313z" fill="url(#color-16)" stroke="none" stroke-width="0" stroke-linecap="butt"/><path d="M258.06717,185.77935l3.82933,-102.36872l16.90258,0.03516l-3.82938,102.3688z" data-paper-data="{&quot;index&quot;:null}" fill="url(#color-17)" stroke="none" stroke-width="0" stroke-linecap="butt"/><path d="M185.4813,209.19268l-5.56612,-24.49333l107.90303,-24.52105l5.56612,24.49333z" fill="url(#color-18)" stroke="none" stroke-width="0" stroke-linecap="butt"/><path d="M170.67077,219.31343c-2.89602,1.77032 -4.66642,-1.12573 -4.66642,-1.12573l-0.58693,-1.0535c-2.41132,-2.75952 -4.98149,-6.78887 -8.10332,-8.85965c-1.20544,-0.79954 -5.35707,-1.61437 -6.27941,-2.04813c-12.67875,-5.96273 -33.6768,-17.11257 -26.55187,-34.08181c3.97521,-2.37297 17.06118,-6.92295 16.87504,-13.38977c-0.26422,-9.18045 -8.08678,-14.89442 -6.09678,-25.04112c2.30479,-11.75205 13.74694,-20.31108 22.20665,-28.0003c0,0 2.51196,-2.28287 4.79482,0.22914c2.28284,2.51198 -0.22912,4.79477 -0.22912,4.79477c-7.12925,6.4778 -18.162,14.29026 -20.09953,24.22514c-2.40797,12.34684 12.74637,21.84637 1.61617,33.43002c-1.17741,1.22537 -2.67158,2.11205 -4.11268,3.01258c-2.12986,1.33104 -7.3755,3.96604 -9.87724,5.24577c-1.62428,4.16202 3.0489,9.11276 5.73335,11.9585c7.07142,7.49615 17.46455,8.57466 25.62158,13.9104c3.79827,2.48461 6.67059,6.77967 9.61401,10.14726l1.26742,1.98008c0,0 1.7703,2.89606 -1.12573,4.66642z" fill="#000000" stroke="none" stroke-width="0.5" stroke-linecap="butt"/><path d="M148.57917,235.48302c-3.33007,0.65726 -3.98725,-2.67279 -3.98725,-2.67279l-0.18556,-1.19164c-1.30582,-3.42407 -2.3206,-8.0944 -4.5316,-11.11847c-0.85372,-1.16765 -4.46587,-3.37053 -5.18078,-4.09706c-9.82737,-9.98638 -25.66138,-27.72105 -13.09819,-41.17048c4.55121,-0.84867 18.40303,-0.58258 20.46907,-6.71331c2.93306,-8.70328 -2.42503,-16.77371 2.95731,-25.60239c6.23399,-10.22549 19.93292,-14.28985 30.53286,-18.57151c0,0 3.14735,-1.27111 4.41836,1.87626c1.27107,3.14735 -1.87633,4.41834 -1.87633,4.41834c-8.93209,3.60634 -21.98832,7.11219 -27.24816,15.76028c-6.53679,10.74767 4.3873,24.90956 -10.06699,31.91915c-1.52908,0.74149 -3.23788,1.05553 -4.9017,1.40094c-2.45913,0.51059 -8.29274,1.1648 -11.08294,1.4985c-2.9657,3.34142 -0.29754,9.60465 1.23472,13.20427c4.03609,9.48195 13.4117,14.09476 19.2147,21.92628c2.70215,3.6467 3.90832,8.67093 5.50258,12.84976l0.50287,2.29657c0,0 0.65725,3.33001 -2.6729,3.98723z" fill="#000000" stroke="none" stroke-width="0.5" stroke-linecap="butt"/><path d="M301.88002,182.30067l0.28726,-2.33343c1.19894,-4.30891 1.93289,-9.42352 4.28433,-13.30567c5.04987,-8.337 13.95608,-13.8013 17.09331,-23.61739c1.19098,-3.72637 3.26544,-10.21062 0.00201,-13.26185c-2.80909,-0.07284 -8.67832,-0.18198 -11.17427,-0.46177c-1.68876,-0.18926 -3.41939,-0.34314 -5.01069,-0.93927c-15.04327,-5.63567 -5.48287,-20.7517 -12.99042,-30.84514c-6.04093,-8.12171 -19.36657,-10.39884 -28.59515,-13.15926c0,0 -3.25187,-0.97295 -2.2789,-4.22481c0.973,-3.25189 4.22486,-2.27886 4.22486,-2.27886c10.95195,3.27784 24.96942,6.05119 32.12692,15.65293c6.17973,8.2901 1.59503,16.82371 5.32438,25.21669c2.62702,5.91214 16.3941,4.35964 21.00443,4.78159c13.75901,12.22337 -0.35794,31.35316 -9.21452,42.20974c-0.64428,0.78981 -4.03607,3.31888 -4.77751,4.56081c-1.92026,3.21658 -2.49659,7.96101 -3.47844,11.49161l-0.07398,1.20371c0,0 -0.34482,3.37676 -3.72157,3.03191c-3.37675,-0.34485 -3.03192,-3.7216 -3.03192,-3.7216z" data-paper-data="{&quot;index&quot;:null}" fill="#000000" stroke="none" stroke-width="0.5" stroke-linecap="butt"/><path d="M327.68846,188.61569l-0.53904,-2.28835c-0.36831,-4.45743 -1.45197,-9.50955 -0.59125,-13.96584c1.84836,-9.57026 8.30959,-17.782 7.85133,-28.07704c-0.17399,-3.90826 -0.47471,-10.70956 -4.59324,-12.44105c-2.66034,0.90502 -8.20377,2.83617 -10.64204,3.43861c-1.64972,0.40758 -3.3264,0.86291 -5.0257,0.85509c-16.06413,-0.07428 -12.33343,-17.56651 -22.87318,-24.43348c-8.48075,-5.5256 -21.76994,-3.04434 -31.3833,-2.43622c0,0 -3.38754,0.21407 -3.60157,-3.17349c-0.21401,-3.38756 3.17357,-3.6016 3.17357,-3.6016c11.40924,-0.71995 25.5193,-2.97524 35.56033,3.55177c8.66933,5.63541 7.3254,15.22895 13.73177,21.8098c4.51276,4.63566 16.88916,-1.59081 21.36015,-2.79239c17.14192,6.69888 10.52769,29.535 5.9814,42.78781c-0.33073,0.96411 -2.63607,4.51176 -2.9013,5.93376c-0.68687,3.68261 0.41645,8.3328 0.71866,11.98493l0.34761,1.15479c0,0 0.84657,3.28703 -2.44049,4.13355c-3.28709,0.84651 -4.13355,-2.44047 -4.13355,-2.44047z" data-paper-data="{&quot;index&quot;:null}" fill="#000000" stroke="none" stroke-width="0.5" stroke-linecap="butt"/><path d="M128.07673,244.55117l-5.42344,-23.86542l229.7077,-52.20129l5.42344,23.86542c0,0 -32.83564,35.88568 -106.60085,52.03628c-81.20732,17.78003 -123.10683,0.165 -123.10683,0.165z" fill="url(#color-19)" stroke="none" stroke-width="0" stroke-linecap="butt"/><path d="M178.68503,148.65172l-10.07921,-44.3528l94.66339,-21.51232l10.07921,44.3528z" fill="url(#color-20)" stroke="#000000" stroke-width="0" stroke-linecap="butt"/><path d="M174.7057,99.29592c14.818,-3.36741 29.4775,5.55118 32.74283,19.9201c3.26536,14.36896 -6.09991,28.74716 -20.91791,32.11454c-14.818,3.36741 -29.47748,-5.55113 -32.74281,-19.92009c-3.26536,-14.36896 6.0999,-28.74714 20.91789,-32.11455z" fill="#ffffff" stroke="#000000" stroke-width="2" stroke-linecap="butt"/><path d="M150.19422,130.74134c-3.70692,-16.31207 6.56942,-32.63255 22.88147,-36.33948c16.31207,-3.70692 32.63255,6.56942 36.33947,22.88146c3.70692,16.31207 -6.56942,32.63255 -22.88145,36.33947c-16.31207,3.70692 -32.63255,-6.56942 -36.33947,-22.88146z" data-paper-data="{&quot;noHover&quot;:false,&quot;origItem&quot;:[&quot;Path&quot;,{&quot;applyMatrix&quot;:true,&quot;segments&quot;:[[[384.72744,349.27406],[-21.77325,0],[21.77325,0]],[[424.15135,309.85014],[0,21.77325],[0,-21.77325]],[[384.72744,270.42623],[21.77325,0],[-21.77325,0]],[[345.30352,309.85014],[0,-21.77325],[0,21.77325]]],&quot;closed&quot;:true,&quot;fillColor&quot;:[0,0,0,1]}]}" fill="#000000" stroke="none" stroke-width="0.5" stroke-linecap="butt"/><path d="M212.38337,277.84572c-106.95181,31.62353 -140.80068,1.03724 -154.74002,-40.1458c19.11499,1.26244 38.91329,-4.24029 57.66765,-7.36518c10.69321,-2.10414 65.01815,-15.12448 82.04006,-17.77432c0,0 1.28326,-0.20454 2.09812,-1.06612c7.8586,35.48863 14.07993,66.01261 12.93429,66.3514z" fill="#0096ff" stroke="#000000" stroke-width="2" stroke-linecap="butt"/><path d="M250.81401,81.21237c14.818,-3.36741 29.47748,5.55118 32.74281,19.92009c3.26536,14.36896 -6.09994,28.74715 -20.91789,32.11455c-14.818,3.36741 -29.47748,-5.55113 -32.74281,-19.92009c-3.26536,-14.36896 6.0999,-28.74714 20.91789,-32.11455z" fill="#ffffff" stroke="#000000" stroke-width="2" stroke-linecap="butt"/><path d="M263.46866,137.17473c-16.31201,3.70693 -32.63255,-6.56946 -36.33947,-22.88146c-3.70693,-16.31201 6.56946,-32.63255 22.88146,-36.33947c16.31201,-3.70693 32.63255,6.56946 36.33947,22.88146c3.70693,16.31201 -6.56946,32.63255 -22.88145,36.33947z" data-paper-data="{&quot;noHover&quot;:false,&quot;origItem&quot;:[&quot;Path&quot;,{&quot;applyMatrix&quot;:true,&quot;segments&quot;:[[[526.54509,311.16443],[0,21.7732],[0,-21.7732]],[[487.12118,271.74051],[21.7732,0],[-21.7732,0]],[[447.69726,311.16443],[0,-21.7732],[0,21.7732]],[[487.12118,350.58835],[-21.7732,0],[21.7732,0]]],&quot;closed&quot;:true,&quot;fillColor&quot;:[0,0,0,1]}]}" fill="#000000" stroke="none" stroke-width="0.5" stroke-linecap="butt"/><path d="M291.06669,256.53426c-1.17953,0.18964 -8.76117,-30.02523 -17.01198,-65.42474c1.10722,0.42479 2.35282,0.05462 2.35282,0.05462c16.49528,-4.96702 71.11197,-16.70373 81.66433,-19.42766c18.2629,-5.28736 38.49499,-8.88155 55.18697,-18.28115c5.2283,43.16263 -12.07729,85.37378 -122.19208,103.07886z" data-paper-data="{&quot;index&quot;:null}" fill="#0096ff" stroke="#000000" stroke-width="2" stroke-linecap="butt"/><path d="M264.2829,106.50839c0.94027,4.1376 -1.48395,8.21591 -5.41466,9.10918c-3.93073,0.89326 -7.87943,-1.73677 -8.81969,-5.87438c-0.94027,-4.1376 1.48395,-8.21591 5.41466,-9.10918c3.93073,-0.89326 7.87943,1.73677 8.81969,5.87438z" fill="#000000" stroke="#ff0000" stroke-width="1" stroke-linecap="butt"/><path d="M188.44561,122.95459c0.94027,4.1376 -1.48395,8.21591 -5.41466,9.10918c-3.93073,0.89326 -7.87943,-1.73677 -8.81969,-5.87438c-0.94027,-4.1376 1.48395,-8.21591 5.41466,-9.10918c3.93073,-0.89326 7.87943,1.73677 8.81969,5.87438z" fill="#000000" stroke="#ff0000" stroke-width="1" stroke-linecap="butt"/><path d="M244.33699,32.79659c76.39377,-17.36057 147.19419,7.60207 158.1371,55.75564c0.78129,3.43798 1.47458,6.88876 2.0437,10.34029c-16.36739,10.11503 -37.1516,13.53371 -55.487,18.83268c-10.26217,2.64924 -64.53936,14.44614 -81.28623,19.34547c0,0 -0.95693,0.28447 -1.63638,0.99611c-11.25884,-48.54472 -23.35225,-104.91091 -21.77125,-105.27021zM320.81158,67.79125c-3.70693,-16.31201 -19.93552,-26.53049 -36.24752,-22.82357c-16.31201,3.70693 -26.53049,19.93552 -22.82358,36.24756c3.70693,16.31201 19.93552,26.53049 36.24756,22.82358c16.31201,-3.70693 26.53048,-19.93552 22.82356,-36.24754z" data-paper-data="{&quot;index&quot;:null}" fill="#0096ff" stroke="#000000" stroke-width="2" stroke-linecap="butt"/><path d="M163.3409,50.31136c1.58102,-0.3593 15.03581,55.69758 25.86298,104.34038c-0.9203,-0.34811 -1.9062,-0.19106 -1.9062,-0.19106c-17.21951,2.81959 -71.26439,15.63891 -81.66358,17.68502c-18.82469,3.14566 -39.04514,9.04532 -58.17652,6.99747c-0.97847,-3.35854 -1.84462,-6.77002 -2.62589,-10.20799c-10.94295,-48.15354 42.11545,-101.26321 118.50923,-118.62379zM145.74851,137.74356c16.31207,-3.70692 26.53049,-19.93548 22.82356,-36.24754c-3.70692,-16.31206 -19.93548,-26.53049 -36.24752,-22.82356c-16.31207,3.70692 -26.53051,19.93549 -22.82357,36.24752c3.70692,16.31207 19.93549,26.53051 36.24756,22.82358z" fill="#0096ff" stroke="#000000" stroke-width="2" stroke-linecap="butt"/></g></g></svg>