<svg version="1.1" xmlns="http://www.w3.org/2000/svg" xmlns:xlink="http://www.w3.org/1999/xlink" width="794.7898" height="504.40642" viewBox="0,0,794.7898,504.40642"><defs><linearGradient x1="323.19973" y1="215.70679" x2="680.19673" y2="215.70679" gradientUnits="userSpaceOnUse" id="color-1"><stop offset="0" stop-color="#000000"/><stop offset="1" stop-color="#860098"/></linearGradient><linearGradient x1="-102.9174" y1="213.7098" x2="227.41293" y2="213.7098" gradientUnits="userSpaceOnUse" id="color-2"><stop offset="0" stop-color="#860098"/><stop offset="1" stop-color="#000000"/></linearGradient><linearGradient x1="200.72225" y1="208.45454" x2="200.72225" y2="454.50455" gradientUnits="userSpaceOnUse" id="color-3"><stop offset="0" stop-color="#000000"/><stop offset="1" stop-color="#b4b4b4"/></linearGradient><linearGradient x1="502.923" y1="52.00004" x2="502.923" y2="450.00001" gradientUnits="userSpaceOnUse" id="color-4"><stop offset="0" stop-color="#292929"/><stop offset="1" stop-color="#909090"/></linearGradient><linearGradient x1="527.46151" y1="273.52405" x2="527.46151" y2="323.52405" gradientUnits="userSpaceOnUse" id="color-5"><stop offset="0" stop-color="#141414"/><stop offset="1" stop-color="#454545"/></linearGradient><radialGradient cx="512.71151" cy="290.52405" r="14" gradientUnits="userSpaceOnUse" id="color-6"><stop offset="0" stop-color="#454545"/><stop offset="1" stop-color="#141414"/></radialGradient><linearGradient x1="480.41086" y1="181.19401" x2="520.27186" y2="198.6883" gradientUnits="userSpaceOnUse" id="color-7"><stop offset="0" stop-color="#cacaca"/><stop offset="1" stop-color="#686868"/></linearGradient><linearGradient x1="68.87007" y1="149.03726" x2="69.09464" y2="152.36118" gradientUnits="userSpaceOnUse" id="color-8"><stop offset="0" stop-color="#5c5c5c"/><stop offset="1" stop-color="#9b9b9b"/></linearGradient><linearGradient x1="61.0006" y1="155.68111" x2="63.606" y2="153.86035" gradientUnits="userSpaceOnUse" id="color-9"><stop offset="0" stop-color="#5c5c5c"/><stop offset="1" stop-color="#9b9b9b"/></linearGradient><linearGradient x1="44.94382" y1="151.90225" x2="42.0038" y2="152.39335" gradientUnits="userSpaceOnUse" id="color-10"><stop offset="0" stop-color="#5c5c5c"/><stop offset="1" stop-color="#9b9b9b"/></linearGradient><linearGradient x1="52.82916" y1="170.90948" x2="50.09089" y2="174.38658" gradientUnits="userSpaceOnUse" id="color-11"><stop offset="0" stop-color="#5c5c5c"/><stop offset="1" stop-color="#9b9b9b"/></linearGradient><linearGradient x1="56.91188" y1="165.49294" x2="56.19347" y2="162.78358" gradientUnits="userSpaceOnUse" id="color-12"><stop offset="0" stop-color="#5c5c5c"/><stop offset="1" stop-color="#9b9b9b"/></linearGradient><linearGradient x1="48.22832" y1="162.62749" x2="47.1715" y2="165.05317" gradientUnits="userSpaceOnUse" id="color-13"><stop offset="0" stop-color="#5c5c5c"/><stop offset="1" stop-color="#9b9b9b"/></linearGradient><linearGradient x1="70.25913" y1="206.43387" x2="67.98492" y2="213.10931" gradientUnits="userSpaceOnUse" id="color-14"><stop offset="0" stop-color="#5c5c5c"/><stop offset="1" stop-color="#9b9b9b"/></linearGradient><linearGradient x1="100.0329" y1="196.4007" x2="100.32669" y2="194.83064" gradientUnits="userSpaceOnUse" id="color-15"><stop offset="0" stop-color="#5c5c5c"/><stop offset="1" stop-color="#9b9b9b"/></linearGradient><linearGradient x1="97.46059" y1="197.34435" x2="97.96031" y2="196.12716" gradientUnits="userSpaceOnUse" id="color-16"><stop offset="0" stop-color="#5c5c5c"/><stop offset="1" stop-color="#9b9b9b"/></linearGradient><linearGradient x1="74.65388" y1="146.9822" x2="77.44748" y2="145.02993" gradientUnits="userSpaceOnUse" id="color-17"><stop offset="0" stop-color="#5c5c5c"/><stop offset="1" stop-color="#9b9b9b"/></linearGradient><linearGradient x1="95.12988" y1="174.11396" x2="98.06598" y2="173.80882" gradientUnits="userSpaceOnUse" id="color-18"><stop offset="0" stop-color="#5c5c5c"/><stop offset="1" stop-color="#9b9b9b"/></linearGradient><linearGradient x1="87.19587" y1="150.9854" x2="90.01686" y2="148.09524" gradientUnits="userSpaceOnUse" id="color-19"><stop offset="0" stop-color="#5c5c5c"/><stop offset="1" stop-color="#9b9b9b"/></linearGradient><linearGradient x1="81.86066" y1="149.82655" x2="82.18216" y2="146.40846" gradientUnits="userSpaceOnUse" id="color-20"><stop offset="0" stop-color="#5c5c5c"/><stop offset="1" stop-color="#9b9b9b"/></linearGradient><linearGradient x1="100.86241" y1="180.66503" x2="100.50488" y2="179.02099" gradientUnits="userSpaceOnUse" id="color-21"><stop offset="0" stop-color="#5c5c5c"/><stop offset="1" stop-color="#9b9b9b"/></linearGradient><linearGradient x1="100.77163" y1="186.32697" x2="100.81864" y2="184.35453" gradientUnits="userSpaceOnUse" id="color-22"><stop offset="0" stop-color="#5c5c5c"/><stop offset="1" stop-color="#9b9b9b"/></linearGradient><linearGradient x1="99.19782" y1="189.91818" x2="99.24483" y2="187.94574" gradientUnits="userSpaceOnUse" id="color-23"><stop offset="0" stop-color="#5c5c5c"/><stop offset="1" stop-color="#9b9b9b"/></linearGradient><linearGradient x1="97.24742" y1="191.50174" x2="97.29444" y2="189.52929" gradientUnits="userSpaceOnUse" id="color-24"><stop offset="0" stop-color="#5c5c5c"/><stop offset="1" stop-color="#9b9b9b"/></linearGradient><linearGradient x1="99.82579" y1="203.87567" x2="100.34021" y2="202.69979" gradientUnits="userSpaceOnUse" id="color-25"><stop offset="0" stop-color="#5c5c5c"/><stop offset="1" stop-color="#9b9b9b"/></linearGradient><linearGradient x1="99.24648" y1="206.63009" x2="99.65663" y2="207.04439" gradientUnits="userSpaceOnUse" id="color-26"><stop offset="0" stop-color="#5c5c5c"/><stop offset="1" stop-color="#9b9b9b"/></linearGradient><linearGradient x1="99.9402" y1="199.40043" x2="100.39952" y2="199.31273" gradientUnits="userSpaceOnUse" id="color-27"><stop offset="0" stop-color="#5c5c5c"/><stop offset="1" stop-color="#9b9b9b"/></linearGradient><linearGradient x1="96.12878" y1="204.33226" x2="96.76179" y2="203.71536" gradientUnits="userSpaceOnUse" id="color-28"><stop offset="0" stop-color="#5c5c5c"/><stop offset="1" stop-color="#9b9b9b"/></linearGradient><linearGradient x1="95.19595" y1="206.40372" x2="95.4927" y2="207.21307" gradientUnits="userSpaceOnUse" id="color-29"><stop offset="0" stop-color="#5c5c5c"/><stop offset="1" stop-color="#9b9b9b"/></linearGradient><linearGradient x1="96.91771" y1="200.13906" x2="97.3349" y2="200.51444" gradientUnits="userSpaceOnUse" id="color-30"><stop offset="0" stop-color="#5c5c5c"/><stop offset="1" stop-color="#9b9b9b"/></linearGradient><linearGradient x1="103.13236" y1="200.9344" x2="103.47157" y2="199.4154" gradientUnits="userSpaceOnUse" id="color-31"><stop offset="0" stop-color="#5c5c5c"/><stop offset="1" stop-color="#9b9b9b"/></linearGradient><linearGradient x1="102.94749" y1="203.93141" x2="103.40422" y2="203.93618" gradientUnits="userSpaceOnUse" id="color-32"><stop offset="0" stop-color="#5c5c5c"/><stop offset="1" stop-color="#9b9b9b"/></linearGradient><linearGradient x1="102.30402" y1="194.02544" x2="102.37392" y2="192.34977" gradientUnits="userSpaceOnUse" id="color-33"><stop offset="0" stop-color="#5c5c5c"/><stop offset="1" stop-color="#9b9b9b"/></linearGradient><linearGradient x1="102.6271" y1="196.80662" x2="103.06257" y2="196.31579" gradientUnits="userSpaceOnUse" id="color-34"><stop offset="0" stop-color="#5c5c5c"/><stop offset="1" stop-color="#9b9b9b"/></linearGradient><linearGradient x1="101.18732" y1="191.00795" x2="101.51767" y2="190.10777" gradientUnits="userSpaceOnUse" id="color-35"><stop offset="0" stop-color="#5c5c5c"/><stop offset="1" stop-color="#9b9b9b"/></linearGradient><linearGradient x1="99.44435" y1="192.45893" x2="99.86553" y2="191.87808" gradientUnits="userSpaceOnUse" id="color-36"><stop offset="0" stop-color="#5c5c5c"/><stop offset="1" stop-color="#9b9b9b"/></linearGradient><linearGradient x1="97.54962" y1="192.96093" x2="98.00915" y2="192.82345" gradientUnits="userSpaceOnUse" id="color-37"><stop offset="0" stop-color="#5c5c5c"/><stop offset="1" stop-color="#9b9b9b"/></linearGradient><linearGradient x1="103.40913" y1="179.05959" x2="103.18629" y2="177.24003" gradientUnits="userSpaceOnUse" id="color-38"><stop offset="0" stop-color="#5c5c5c"/><stop offset="1" stop-color="#9b9b9b"/></linearGradient><linearGradient x1="104.27736" y1="181.56423" x2="104.68311" y2="180.54421" gradientUnits="userSpaceOnUse" id="color-39"><stop offset="0" stop-color="#5c5c5c"/><stop offset="1" stop-color="#9b9b9b"/></linearGradient><linearGradient x1="75.85943" y1="202.02715" x2="78.78994" y2="205.06533" gradientUnits="userSpaceOnUse" id="color-40"><stop offset="0" stop-color="#5c5c5c"/><stop offset="1" stop-color="#9b9b9b"/></linearGradient><linearGradient x1="72.11706" y1="157.67564" x2="73.32703" y2="158.88369" gradientUnits="userSpaceOnUse" id="color-41"><stop offset="0" stop-color="#5c5c5c"/><stop offset="1" stop-color="#9b9b9b"/></linearGradient><linearGradient x1="67.94157" y1="160.92513" x2="66.9966" y2="163.63917" gradientUnits="userSpaceOnUse" id="color-42"><stop offset="0" stop-color="#5c5c5c"/><stop offset="1" stop-color="#9b9b9b"/></linearGradient><linearGradient x1="70.72826" y1="182.44961" x2="72.31693" y2="181.3394" gradientUnits="userSpaceOnUse" id="color-43"><stop offset="0" stop-color="#5c5c5c"/><stop offset="1" stop-color="#9b9b9b"/></linearGradient><linearGradient x1="61.32574" y1="136.72268" x2="75.82088" y2="131.93301" gradientUnits="userSpaceOnUse" id="color-44"><stop offset="0" stop-color="#6c6c6c"/><stop offset="1" stop-color="#c4c4c4"/></linearGradient><linearGradient x1="78.87937" y1="222.66006" x2="80.54344" y2="220.82027" gradientUnits="userSpaceOnUse" id="color-45"><stop offset="0" stop-color="#5c5c5c"/><stop offset="1" stop-color="#9b9b9b"/></linearGradient><linearGradient x1="100.19868" y1="175.98241" x2="99.97583" y2="174.16285" gradientUnits="userSpaceOnUse" id="color-46"><stop offset="0" stop-color="#5c5c5c"/><stop offset="1" stop-color="#9b9b9b"/></linearGradient><linearGradient x1="101.59754" y1="177.2413" x2="101.81015" y2="175.9202" gradientUnits="userSpaceOnUse" id="color-47"><stop offset="0" stop-color="#5c5c5c"/><stop offset="1" stop-color="#9b9b9b"/></linearGradient><linearGradient x1="91.96002" y1="163.15446" x2="93.03742" y2="160.79035" gradientUnits="userSpaceOnUse" id="color-48"><stop offset="0" stop-color="#5c5c5c"/><stop offset="1" stop-color="#9b9b9b"/></linearGradient><linearGradient x1="65.92764" y1="129.71363" x2="71.62906" y2="127.8297" gradientUnits="userSpaceOnUse" id="color-49"><stop offset="0" stop-color="#6e6e6e"/><stop offset="1" stop-color="#c0c0c0"/></linearGradient><linearGradient x1="68.51529" y1="105.62382" x2="68.58991" y2="113.81503" gradientUnits="userSpaceOnUse" id="color-50"><stop offset="0" stop-color="#a6a6a6"/><stop offset="1" stop-color="#707070"/></linearGradient><linearGradient x1="68.53846" y1="110.82646" x2="68.68213" y2="126.59755" gradientUnits="userSpaceOnUse" id="color-51"><stop offset="0" stop-color="#a6a6a6"/><stop offset="1" stop-color="#707070"/></linearGradient><linearGradient x1="64.49269" y1="108.03965" x2="66.54819" y2="126.64393" gradientUnits="userSpaceOnUse" id="color-52"><stop offset="0" stop-color="#a6a6a6"/><stop offset="1" stop-color="#707070"/></linearGradient><linearGradient x1="72.46657" y1="106.01799" x2="70.76136" y2="125.86489" gradientUnits="userSpaceOnUse" id="color-53"><stop offset="0" stop-color="#a6a6a6"/><stop offset="1" stop-color="#707070"/></linearGradient><linearGradient x1="68.67287" y1="122.92188" x2="68.71409" y2="127.44536" gradientUnits="userSpaceOnUse" id="color-54"><stop offset="0" stop-color="#a6a6a6"/><stop offset="1" stop-color="#707070"/></linearGradient><linearGradient x1="68.39742" y1="127.0595" x2="68.43757" y2="131.46703" gradientUnits="userSpaceOnUse" id="color-55"><stop offset="0" stop-color="#707070"/><stop offset="1" stop-color="#a6a6a6"/></linearGradient><linearGradient x1="70.161" y1="228.75278" x2="68.40958" y2="229.29987" gradientUnits="userSpaceOnUse" id="color-56"><stop offset="0" stop-color="#5c5c5c"/><stop offset="1" stop-color="#9b9b9b"/></linearGradient><linearGradient x1="35.97458" y1="119.9554" x2="36.71061" y2="120.1528" gradientUnits="userSpaceOnUse" id="color-57"><stop offset="0" stop-color="#5c5c5c"/><stop offset="1" stop-color="#9b9b9b"/></linearGradient><linearGradient x1="35.39675" y1="116.74787" x2="35.87294" y2="116.04867" gradientUnits="userSpaceOnUse" id="color-58"><stop offset="0" stop-color="#5c5c5c"/><stop offset="1" stop-color="#9b9b9b"/></linearGradient><linearGradient x1="37.58874" y1="127.40039" x2="38.31847" y2="127.66834" gradientUnits="userSpaceOnUse" id="color-59"><stop offset="0" stop-color="#5c5c5c"/><stop offset="1" stop-color="#9b9b9b"/></linearGradient><linearGradient x1="36.98525" y1="124.09216" x2="37.44902" y2="123.33383" gradientUnits="userSpaceOnUse" id="color-60"><stop offset="0" stop-color="#5c5c5c"/><stop offset="1" stop-color="#9b9b9b"/></linearGradient><linearGradient x1="38.55324" y1="131.49984" x2="39.02763" y2="130.79148" gradientUnits="userSpaceOnUse" id="color-61"><stop offset="0" stop-color="#5c5c5c"/><stop offset="1" stop-color="#9b9b9b"/></linearGradient><linearGradient x1="43.20685" y1="138.17335" x2="43.53361" y2="140.17553" gradientUnits="userSpaceOnUse" id="color-62"><stop offset="0" stop-color="#5c5c5c"/><stop offset="1" stop-color="#9b9b9b"/></linearGradient><linearGradient x1="41.21326" y1="134.68925" x2="41.91787" y2="135.86328" gradientUnits="userSpaceOnUse" id="color-63"><stop offset="0" stop-color="#5c5c5c"/><stop offset="1" stop-color="#9b9b9b"/></linearGradient><linearGradient x1="38.95303" y1="136.39154" x2="39.65764" y2="137.56559" gradientUnits="userSpaceOnUse" id="color-64"><stop offset="0" stop-color="#5c5c5c"/><stop offset="1" stop-color="#9b9b9b"/></linearGradient><linearGradient x1="37.13125" y1="140.38401" x2="37.83586" y2="141.55805" gradientUnits="userSpaceOnUse" id="color-65"><stop offset="0" stop-color="#5c5c5c"/><stop offset="1" stop-color="#9b9b9b"/></linearGradient><linearGradient x1="39.72332" y1="115.49077" x2="40.39294" y2="116.17969" gradientUnits="userSpaceOnUse" id="color-66"><stop offset="0" stop-color="#5c5c5c"/><stop offset="1" stop-color="#9b9b9b"/></linearGradient><linearGradient x1="39.5117" y1="111.91772" x2="40.03" y2="111.54205" gradientUnits="userSpaceOnUse" id="color-67"><stop offset="0" stop-color="#5c5c5c"/><stop offset="1" stop-color="#9b9b9b"/></linearGradient><linearGradient x1="40.47038" y1="123.96691" x2="41.12683" y2="124.72169" gradientUnits="userSpaceOnUse" id="color-68"><stop offset="0" stop-color="#5c5c5c"/><stop offset="1" stop-color="#9b9b9b"/></linearGradient><linearGradient x1="40.24507" y1="120.27666" x2="40.75782" y2="119.83394" gradientUnits="userSpaceOnUse" id="color-69"><stop offset="0" stop-color="#5c5c5c"/><stop offset="1" stop-color="#9b9b9b"/></linearGradient><linearGradient x1="40.95269" y1="128.68482" x2="41.47024" y2="128.29884" gradientUnits="userSpaceOnUse" id="color-70"><stop offset="0" stop-color="#5c5c5c"/><stop offset="1" stop-color="#9b9b9b"/></linearGradient><linearGradient x1="46.45359" y1="132.86073" x2="46.60136" y2="135.03843" gradientUnits="userSpaceOnUse" id="color-71"><stop offset="0" stop-color="#5c5c5c"/><stop offset="1" stop-color="#9b9b9b"/></linearGradient><linearGradient x1="47.39195" y1="129.03755" x2="47.88957" y2="129.84208" gradientUnits="userSpaceOnUse" id="color-72"><stop offset="0" stop-color="#5c5c5c"/><stop offset="1" stop-color="#9b9b9b"/></linearGradient><linearGradient x1="45.0562" y1="137.94859" x2="45.52757" y2="138.84365" gradientUnits="userSpaceOnUse" id="color-73"><stop offset="0" stop-color="#5c5c5c"/><stop offset="1" stop-color="#9b9b9b"/></linearGradient><linearGradient x1="32.95443" y1="126.54367" x2="33.70687" y2="126.36856" gradientUnits="userSpaceOnUse" id="color-74"><stop offset="0" stop-color="#5c5c5c"/><stop offset="1" stop-color="#9b9b9b"/></linearGradient><linearGradient x1="32.13131" y1="123.74924" x2="32.55517" y2="122.84173" gradientUnits="userSpaceOnUse" id="color-75"><stop offset="0" stop-color="#5c5c5c"/><stop offset="1" stop-color="#9b9b9b"/></linearGradient><linearGradient x1="35.13844" y1="132.89455" x2="35.88994" y2="132.79033" gradientUnits="userSpaceOnUse" id="color-76"><stop offset="0" stop-color="#5c5c5c"/><stop offset="1" stop-color="#9b9b9b"/></linearGradient><linearGradient x1="34.28195" y1="130.01613" x2="34.68886" y2="129.05796" gradientUnits="userSpaceOnUse" id="color-77"><stop offset="0" stop-color="#5c5c5c"/><stop offset="1" stop-color="#9b9b9b"/></linearGradient><linearGradient x1="36.41687" y1="136.35405" x2="36.83821" y2="135.43864" gradientUnits="userSpaceOnUse" id="color-78"><stop offset="0" stop-color="#5c5c5c"/><stop offset="1" stop-color="#9b9b9b"/></linearGradient></defs><g transform="translate(114.59307,49.90188)"><g data-paper-data="{&quot;isPaintingLayer&quot;:true}" fill-rule="nonzero" stroke-linejoin="miter" stroke-miterlimit="10" stroke-dasharray="" stroke-dashoffset="0" style="mix-blend-mode: normal"><path d="M13.03455,275.92395v-325.82583h477.47748v325.82583z" fill="#000000" stroke="none" stroke-width="0" stroke-linecap="butt"/><path d="M323.19973,444.68577v-457.95795h356.997v457.95795z" data-paper-data="{&quot;index&quot;:null}" fill="url(#color-1)" stroke="none" stroke-width="0" stroke-linecap="butt"/><path d="M-102.9174,442.68878v-457.95796h330.33033v457.95796z" fill="url(#color-2)" stroke="none" stroke-width="0" stroke-linecap="butt"/><path d="M467.34597,366.33085l1,-314.33081l102.69192,30.69192l2.46212,367.30808l-103.7912,-3.72744z" fill="#000000" stroke="none" stroke-width="0" stroke-linecap="butt"/><path d="M-114.59307,450.00005l316.81682,-241.54551l121.62162,13.51351l192.19219,232.5365z" fill="url(#color-3)" stroke="none" stroke-width="0" stroke-linecap="butt"/><path d="M467.34597,366.33085l0.67029,-314.33081l68.83341,30.69192l1.65034,367.30808l-69.57025,-3.72744z" fill="url(#color-4)" stroke="none" stroke-width="0" stroke-linecap="butt"/><path d="M521.21151,316.02405v-50l12.5,7.5v50z" fill="url(#color-5)" stroke="none" stroke-width="0" stroke-linecap="butt"/><path d="M530.21151,292.52405c0,7.73199 -5.37258,14 -12,14c-6.62741,0 -12,-6.26801 -12,-14c0,-7.73199 5.37259,-14 12,-14c6.62742,0 12,6.26801 12,14z" fill="url(#color-6)" stroke="none" stroke-width="0" stroke-linecap="butt"/><g stroke-linecap="butt"><path d="M484.54276,175.61075l-0.04346,-33.87944l31.5782,13.85911l0.04346,33.87944z" fill="#bbbbbb" stroke="none" stroke-width="0"/><text transform="translate(489.49775,158.72564) rotate(23.69544) scale(0.14942,0.23868) skewX(35.12703)" font-size="40" xml:space="preserve" fill="#000000" fill-rule="nonzero" stroke="none" stroke-width="1" stroke-linecap="butt" stroke-linejoin="miter" stroke-miterlimit="10" stroke-dasharray="" stroke-dashoffset="0" font-family="Sans Serif" font-weight="normal" text-anchor="start" style="mix-blend-mode: normal"><tspan x="0" dy="0">Parts &amp;</tspan><tspan x="0" dy="46.150000000000006px">Service</tspan></text><g><path d="M480.41698,185.96345l-0.01224,-9.53887l39.861,17.49429l0.01224,9.53887z" fill="url(#color-7)" stroke="none" stroke-width="0"/><text transform="translate(481.4799,183.92914) rotate(23.6958) scale(0.11258,0.17984) skewX(35.12719)" font-size="40" xml:space="preserve" fill="#ad0000" fill-rule="nonzero" stroke="#ad0000" stroke-width="3" stroke-linecap="butt" stroke-linejoin="miter" stroke-miterlimit="10" stroke-dasharray="" stroke-dashoffset="0" font-family="Serif" font-weight="normal" text-anchor="start" style="mix-blend-mode: normal"><tspan x="0" dy="0">EMPLOYEES ONLY!</tspan></text></g></g><g><path d="M31.90678,224.77303l-3.19878,-174.53869l53.42084,-20.79655l2.44655,133.49393c-0.02139,0.68982 -0.01448,1.30988 0.03463,1.88935l0.7176,39.15541l-19.79248,7.70515c-0.89523,0.05568 -1.86231,0.44381 -2.7577,1.07356z" fill="#2341a6" stroke="#000000" stroke-width="1.5" stroke-linecap="butt"/><text transform="translate(32.15525,91.4668) rotate(-47.69135) scale(0.23537,0.29925) skewX(-46.96077)" font-size="40" xml:space="preserve" fill="#000d47" fill-rule="nonzero" stroke="none" stroke-width="1" stroke-linecap="butt" stroke-linejoin="miter" stroke-miterlimit="10" stroke-dasharray="" stroke-dashoffset="0" font-family="Marker" font-weight="normal" text-anchor="start" style="mix-blend-mode: normal"><tspan x="0" dy="0">PLAY WITH</tspan><tspan x="0" dy="46.15px">GROVER!</tspan></text><text transform="translate(31.31412,88.79509) rotate(-47.69135) scale(0.23537,0.29925) skewX(-46.96077)" font-size="40" xml:space="preserve" fill="#0014ff" fill-rule="nonzero" stroke="none" stroke-width="1" stroke-linecap="butt" stroke-linejoin="miter" stroke-miterlimit="10" stroke-dasharray="" stroke-dashoffset="0" font-family="Marker" font-weight="normal" text-anchor="start" style="mix-blend-mode: normal"><tspan x="0" dy="0">PLAY WITH</tspan><tspan x="0" dy="46.15px">GROVER!</tspan></text><g><path d="M62.35873,157.06848l-0.22458,-3.3239l13.47183,-9.41462l0.22458,3.3239z" fill="url(#color-8)" stroke="none" stroke-width="0" stroke-linecap="butt"/><path d="M63.606,153.86035c0.12108,1.79204 -0.36401,3.65234 -1.08347,4.15513c-0.71946,0.50279 -1.40085,-0.54235 -1.52193,-2.33438c-0.12108,-1.79204 0.36401,-3.65235 1.08347,-4.15514c0.71946,-0.50279 1.40085,0.54236 1.52193,2.33439z" fill="url(#color-9)" stroke="none" stroke-width="0" stroke-linecap="butt"/><path d="M43.41301,155.8931c-0.81186,0.13561 -1.44279,-1.43129 -1.4092,-3.49976c0.03359,-2.06848 0.71895,-3.85525 1.53082,-3.99085c0.81186,-0.13561 1.44278,1.43129 1.4092,3.49976c-0.03359,2.06847 -0.71895,3.85525 -1.53082,3.99085z" data-paper-data="{&quot;index&quot;:null}" fill="url(#color-10)" stroke="none" stroke-width="0" stroke-linecap="butt"/><path d="M50.92142,169.32159c0.75615,-0.96017 1.61027,-0.24927 1.90774,1.58786c0.29746,1.83712 -0.07438,4.1048 -0.83053,5.06497c-0.75615,0.96018 -1.61027,0.24928 -1.90774,-1.58786c-0.29746,-1.83712 0.07438,-4.1048 0.83053,-5.06497z" data-paper-data="{&quot;index&quot;:null}" fill="url(#color-11)" stroke="none" stroke-width="0" stroke-linecap="butt"/><g data-paper-data="{&quot;index&quot;:null}" stroke-linecap="butt"><path d="M50.47065,169.36923c0,0 3.25201,-7.12256 4.95061,-10.21343c1.65297,-3.00785 5.21558,-7.68312 5.21558,-7.68312l1.88585,7.11203c0,0 -2.7902,6.8847 -4.41542,9.84207c-1.72198,3.13344 -5.58913,8.66409 -5.58913,8.66409z" fill="#696969" stroke="#000000" stroke-width="2"/><path d="M51.20201,171.86636l9.98291,-18.16551l0.71842,2.70934l-9.9829,18.1655z" fill="url(#color-12)" stroke="none" stroke-width="0"/><path d="M51.95427,175.53776c-0.17499,-0.14881 0.02452,-0.69565 0.02452,-0.69565l0.28601,-0.77356c0.23803,-1.11479 0.30019,-2.08578 0.48202,-3.17233c0.12082,-0.72198 0.33637,-1.4584 0.4735,-2.17952c0.15001,-0.78884 0.18674,-1.50705 0.46598,-2.3423c0.70337,-2.10392 1.99933,-3.79313 2.7647,-3.69189c0.44163,0.00258 0.93379,-0.20868 1.3635,-0.17039c0.07238,0.00647 0.37364,0.11868 0.52813,-0.04613c0.24787,-0.26441 0.68134,-1.48184 0.81368,-1.85411c0.74255,-2.08873 1.02484,-4.31956 1.744,-6.44609c0,0 0.18937,-0.55434 0.37529,-0.4365c0.18592,0.11785 -0.00345,0.67219 -0.00345,0.67219c-0.73671,2.12834 -0.99593,4.35127 -1.75203,6.46932c-0.27733,0.77688 -0.77527,2.10822 -1.19928,2.56502c-0.42881,0.46197 -0.69776,0.14372 -1.04028,0.19745c-0.38202,0.05994 -0.767,0.18478 -1.13591,0.18222c-0.55205,-0.09969 -1.56029,1.20509 -2.07647,2.76478c-0.22088,0.66742 -0.23964,1.30203 -0.36007,1.93359c-0.13442,0.70493 -0.34802,1.43021 -0.46523,2.13333c-0.20291,1.21734 -0.27872,2.25599 -0.5617,3.51623l-0.35241,0.97629c0,0 -0.19952,0.54686 -0.3745,0.39807z" fill="#000000" stroke="none" stroke-width="0.5"/><path d="M50.47065,169.36923c0,0 3.25201,-7.12256 4.95061,-10.21343c1.65297,-3.00785 5.21558,-7.68312 5.21558,-7.68312l1.88585,7.11203c0,0 -2.7902,6.8847 -4.41542,9.84207c-1.72198,3.13344 -5.58913,8.66409 -5.58913,8.66409z" fill="#1300d2" stroke="#000000" stroke-width="2"/></g><g data-paper-data="{&quot;index&quot;:null}" stroke-linecap="butt"><path d="M45.43884,149.8817c0,0 3.06519,6.63841 4.3426,10.25112c1.20563,3.40972 3.03971,11.03335 3.03971,11.03335l-2.77416,6.36739c0,0 -2.87857,-5.70453 -4.10478,-9.17245c-1.26006,-3.56365 -3.51531,-11.56623 -3.51531,-11.56623z" fill="#696969" stroke="#000000" stroke-width="2"/><path d="M44.52555,152.15543l7.40553,20.94408l-1.05682,2.42567l-7.40554,-20.94408z" fill="url(#color-13)" stroke="none" stroke-width="0"/><path d="M44.68417,151.22414c0.19075,-0.09034 0.31478,0.50819 0.31478,0.50819l0.21773,1.0674c0.11271,1.32348 0.05147,2.36445 0.09137,3.62059c0.02305,0.72553 0.1376,1.50324 0.17728,2.23599c0.03554,0.65648 -0.02886,1.28381 0.10037,2.00717c0.302,1.69044 1.11904,3.28687 1.67259,3.36386c0.36156,0.11416 0.72223,0.35816 1.08847,0.53766c0.32837,0.16094 0.63322,-0.06561 0.99284,0.52235c0.3556,0.58136 0.66951,2.04245 0.83974,2.89083c0.46408,2.31303 0.42798,4.57162 0.87173,6.88859c0,0 0.11312,0.60267 -0.0843,0.65927c-0.19742,0.05659 -0.31054,-0.54609 -0.31054,-0.54609c-0.42681,-2.30966 -0.41226,-4.58328 -0.8669,-6.8633c-0.08103,-0.40636 -0.34668,-1.7355 -0.55489,-2.0728c-0.12979,-0.21024 -0.4394,-0.19563 -0.5111,-0.2122c-0.42575,-0.09841 -0.88011,-0.46092 -1.31286,-0.59805c-0.76263,-0.14293 -1.81124,-2.20679 -2.22555,-4.4893c-0.16448,-0.90616 -0.10677,-1.62101 -0.15076,-2.44085c-0.04022,-0.74946 -0.15522,-1.5387 -0.17936,-2.28384c-0.03632,-1.12141 0.02945,-2.09181 -0.05821,-3.25865l-0.17915,-0.8479c0,0 -0.12403,-0.59855 0.06672,-0.68891z" fill="#000000" stroke="none" stroke-width="0.5"/><path d="M45.43884,149.8817c0,0 3.06519,6.63841 4.3426,10.25112c1.20563,3.40972 3.03971,11.03335 3.03971,11.03335l-2.77416,6.36739c0,0 -2.87857,-5.70453 -4.10478,-9.17245c-1.26006,-3.56365 -3.51531,-11.56623 -3.51531,-11.56623z" fill="#1300d2" stroke="#000000" stroke-width="2"/></g><path d="M68.0737,206.70728c0.62801,-1.84337 1.60646,-1.96577 2.18543,-0.27339c0.26455,0.7733 0.39992,1.79171 0.40902,2.84563c-0.73612,-0.08566 -2.69173,1.09479 -2.99038,1.18965c0.03644,-1.06959 0.10635,-2.91189 0.39593,-3.76188z" data-paper-data="{&quot;index&quot;:null}" fill="url(#color-14)" stroke="none" stroke-width="0" stroke-linecap="butt"/><path d="" data-paper-data="{&quot;index&quot;:null}" fill="url(#color-15)" stroke="none" stroke-width="0" stroke-linecap="butt"/><path d="" data-paper-data="{&quot;index&quot;:null}" fill="url(#color-16)" stroke="none" stroke-width="0" stroke-linecap="butt"/><path d="M77.44748,145.02993c0.12982,1.92149 -0.3903,3.91617 -1.16173,4.45528c-0.77143,0.53911 -1.50204,-0.58154 -1.63187,-2.503c-0.12982,-1.92148 0.3903,-3.91617 1.16173,-4.45527c0.77143,-0.53911 1.50204,0.58152 1.63186,2.503z" fill="url(#color-17)" stroke="none" stroke-width="0" stroke-linecap="butt"/><path d="" fill="url(#color-18)" stroke="none" stroke-width="0" stroke-linecap="butt"/><path d="" fill="url(#color-19)" stroke="none" stroke-width="0" stroke-linecap="butt"/><g stroke-linecap="butt"><path d="M81.1304,154.07282c-1.85474,-0.58563 -5.26322,-3.24568 -5.26322,-3.24568l0.84392,-8.97247c0,0 3.84145,-0.37089 5.72784,0.22475c0.47328,0.14944 1.06115,0.398 1.67944,0.68838c0.02752,1.0576 0.12459,2.14719 0.26903,3.19968c-0.0137,1.41751 0.03624,2.84754 0.12277,4.2675c-0.10762,1.2615 -0.10188,2.70306 0.03242,4.35963c-1.20285,-0.08804 -2.53355,-0.24436 -3.4122,-0.52179z" fill="#696969" stroke="#000000" stroke-width="2"/><path d="M76.16434,148.02797l0.32149,-3.41809l7.9037,2.49559c0.01346,1.04265 0.05722,2.08878 0.12065,3.12952c-0.01171,0.13731 -0.02208,0.27675 -0.03109,0.41837z" fill="url(#color-20)" stroke="none" stroke-width="0"/><path d="M82.35488,147.28939c-0.3374,0.48396 -0.70531,0.87222 -1.06247,1.31607c-0.32022,0.39794 -0.52694,1.04039 -0.97681,1.17728c-0.44483,0.13536 -1.06586,-0.43336 -1.41613,-0.7825c-0.95496,-0.95189 -1.46809,-2.64844 -2.40657,-3.63506c0,0 -0.24214,-0.26025 -0.08656,-0.61085c0.15558,-0.3506 0.39772,-0.09034 0.39772,-0.09034c0.92221,1.00787 1.45742,2.68154 2.39634,3.62428c0.16734,0.16802 0.71521,0.71664 0.97493,0.6351c0.16188,-0.05081 0.42374,-0.54682 0.48919,-0.64721c0.38862,-0.59602 0.86538,-1.04511 1.26934,-1.62401c0.56287,-0.89314 1.59941,-1.15298 2.45338,-0.66634c-0.00285,0.30739 -0.00271,0.61537 0.00013,0.92369c-0.66574,-0.52253 -1.5888,-0.35081 -2.03249,0.3799z" fill="#000000" stroke="none" stroke-width="0.5"/><path d="M81.1304,154.07282c-1.85474,-0.58563 -5.26322,-3.24568 -5.26322,-3.24568l0.84392,-8.97247c0,0 3.84145,-0.37089 5.72784,0.22475c0.47328,0.14944 1.30431,0.50625 1.9226,0.79662c0.02752,1.0576 0.04676,10.06199 0.18106,11.71857c-1.20285,-0.08804 -2.53355,-0.24436 -3.4122,-0.52179z" fill="#1300d2" stroke="#000000" stroke-width="2"/></g><path d="" data-paper-data="{&quot;index&quot;:null}" fill="url(#color-21)" stroke="none" stroke-width="0" stroke-linecap="butt"/><path d="" data-paper-data="{&quot;index&quot;:null}" fill="url(#color-22)" stroke="none" stroke-width="0" stroke-linecap="butt"/><path d="" data-paper-data="{&quot;index&quot;:null}" fill="url(#color-23)" stroke="none" stroke-width="0" stroke-linecap="butt"/><path d="" data-paper-data="{&quot;index&quot;:null}" fill="url(#color-24)" stroke="none" stroke-width="0" stroke-linecap="butt"/><path d="" data-paper-data="{&quot;index&quot;:null}" fill="url(#color-25)" stroke="none" stroke-width="0" stroke-linecap="butt"/><g data-paper-data="{&quot;index&quot;:null}" stroke-width="1" stroke-linecap="butt"><path d="" fill="#696969" stroke="#000000"/><path d="" fill="url(#color-26)" stroke="none"/><path d="" fill="#000000" stroke="none"/><path d="" fill="#1300d2" stroke="#000000"/></g><g data-paper-data="{&quot;index&quot;:null}" stroke-width="1" stroke-linecap="butt"><path d="" fill="#696969" stroke="#000000"/><path d="" fill="url(#color-27)" stroke="none"/><path d="" fill="#000000" stroke="none"/><path d="" fill="#1300d2" stroke="#000000"/></g><path d="" data-paper-data="{&quot;index&quot;:null}" fill="url(#color-28)" stroke="none" stroke-width="0" stroke-linecap="butt"/><g data-paper-data="{&quot;index&quot;:null}" stroke-width="1" stroke-linecap="butt"><path d="" fill="#696969" stroke="#000000"/><path d="" fill="url(#color-29)" stroke="none"/><path d="" fill="#000000" stroke="none"/><path d="" fill="#1300d2" stroke="#000000"/></g><g data-paper-data="{&quot;index&quot;:null}" stroke-width="1" stroke-linecap="butt"><path d="" fill="#696969" stroke="#000000"/><path d="" fill="url(#color-30)" stroke="none"/><path d="" fill="#000000" stroke="none"/><path d="" fill="#1300d2" stroke="#000000"/></g><path d="" data-paper-data="{&quot;index&quot;:null}" fill="url(#color-31)" stroke="none" stroke-width="0" stroke-linecap="butt"/><g data-paper-data="{&quot;index&quot;:null}" stroke-width="1" stroke-linecap="butt"><path d="" fill="#696969" stroke="#000000"/><path d="" fill="url(#color-32)" stroke="none"/><path d="" fill="#000000" stroke="none"/><path d="" fill="#1300d2" stroke="#000000"/></g><path d="" data-paper-data="{&quot;index&quot;:null}" fill="url(#color-33)" stroke="none" stroke-width="0" stroke-linecap="butt"/><g data-paper-data="{&quot;index&quot;:null}" stroke-width="1" stroke-linecap="butt"><path d="" fill="#696969" stroke="#000000"/><path d="" fill="url(#color-34)" stroke="none"/><path d="" fill="#000000" stroke="none"/><path d="" fill="#1300d2" stroke="#000000"/></g><g data-paper-data="{&quot;index&quot;:null}" stroke-width="1" stroke-linecap="butt"><path d="" fill="#696969" stroke="#000000"/><path d="" fill="url(#color-35)" stroke="none"/><path d="" fill="#000000" stroke="none"/><path d="" fill="#1300d2" stroke="#000000"/></g><g data-paper-data="{&quot;index&quot;:null}" stroke-width="1" stroke-linecap="butt"><path d="" fill="#696969" stroke="#000000"/><path d="" fill="url(#color-36)" stroke="none"/><path d="" fill="#000000" stroke="none"/><path d="" fill="#1300d2" stroke="#000000"/></g><g data-paper-data="{&quot;index&quot;:null}" stroke-width="1" stroke-linecap="butt"><path d="" fill="#696969" stroke="#000000"/><path d="" fill="url(#color-37)" stroke="none"/><path d="" fill="#000000" stroke="none"/><path d="" fill="#1300d2" stroke="#000000"/></g><path d="" data-paper-data="{&quot;index&quot;:null}" fill="#1300d2" stroke="#000000" stroke-width="1" stroke-linecap="butt"/><path d="" data-paper-data="{&quot;index&quot;:null}" fill="url(#color-38)" stroke="none" stroke-width="0" stroke-linecap="butt"/><g data-paper-data="{&quot;index&quot;:null}" stroke-width="1" stroke-linecap="butt"><path d="" fill="#696969" stroke="#000000"/><path d="" fill="url(#color-39)" stroke="none"/><path d="" fill="#000000" stroke="none"/><path d="" fill="#1300d2" stroke="#000000"/></g><path d="M78.78994,205.06533c-0.00626,0.04696 -0.01277,0.09347 -0.01952,0.1395c-0.46796,0.32907 -0.92999,0.70892 -1.38332,1.1448c-0.33027,0.31755 -0.68438,0.52271 -1.04519,0.71333c-0.51583,-1.15385 -0.73084,-3.1734 -0.48248,-5.0358c0.30839,-2.3125 1.2144,-3.50702 2.02364,-2.66806c0.80924,0.83897 1.21526,3.39373 0.90687,5.70622z" fill="url(#color-40)" stroke="none" stroke-width="0" stroke-linecap="butt"/><path d="M65.03133,200.38352c-0.48945,-7.24418 14.06267,-17.41374 14.55212,-10.16956c0.48945,7.24418 -5.04033,17.25844 -6.38984,18.20152c-1.79433,1.25394 -7.67283,-0.78778 -8.16228,-8.03197z" fill="#1300d2" stroke="#000000" stroke-width="2" stroke-linecap="butt"/><path d="M68.74936,142.7929c2.86579,-1.79056 9.99185,7.59973 11.15242,24.77699c0.37839,5.60044 0.30266,11.15618 -0.14454,16.22211c-0.92441,10.47193 -13.45564,19.39507 -15.64936,11.30619c-1.10277,-4.06622 -1.91991,-9.13163 -2.30815,-14.87791c-1.16057,-17.17727 3.56546,-35.31294 6.94963,-37.42738z" fill="#696969" stroke="#000000" stroke-width="2" stroke-linecap="butt"/><path d="M69.92393,169.37951l4.38626,-23.40775l1.20997,1.20809l-4.38626,23.40775z" fill="url(#color-41)" stroke="none" stroke-width="0" stroke-linecap="butt"/><path d="M70.50219,171.36058l-7.01117,-15.44282l0.94497,-2.71404l7.01118,15.44281z" data-paper-data="{&quot;index&quot;:null}" fill="url(#color-42)" stroke="none" stroke-width="0" stroke-linecap="butt"/><path d="M71.69609,196.77404l-1.93564,-28.64883l1.58866,-1.11021l1.93564,28.64883z" fill="url(#color-43)" stroke="none" stroke-width="0" stroke-linecap="butt"/><path d="M71.56867,166.61007c0.00688,-0.61459 0.24843,-0.66284 0.24843,-0.66284l0.18961,-0.02325c0.09583,0.03714 0.19165,0.07428 0.28747,0.11142c0.52279,0.60194 1.05026,1.51296 1.53929,2.40819c0.15355,-0.32421 0.28058,-0.73828 0.36655,-1.27124c0.201,-1.24619 -0.17226,-2.20255 -0.30785,-3.21991c-0.16518,-1.23941 -0.11222,-2.67317 -0.26528,-3.92689c-0.22299,-1.82652 -0.93249,-3.37923 -1.50999,-4.46051c-0.55279,-1.05461 -1.43018,-0.67332 -1.89571,-1.90845c-0.39245,-1.04121 -0.30961,-2.72266 -0.59621,-3.88322c0.00646,0.58125 -0.03093,1.16789 -0.12798,1.75545c-0.23943,1.44972 -0.83781,3.12439 -1.2783,4.21281c-0.28604,0.70677 -0.84951,1.51115 -1.04917,2.40874c-0.15359,0.69047 -0.13901,1.50966 -0.21379,2.26254c-0.29378,2.95782 -0.85945,6.49561 0.45826,7.75515c0.29613,0.28306 0.54348,0.41325 0.86888,0.16861l0.10635,-0.07432c0,0 0.2383,-0.16653 0.2784,0.42702c0.0401,0.59355 -0.1982,0.76008 -0.1982,0.76008l-0.10635,0.07432c-0.8595,0.56819 -2.22156,-0.75163 -2.30572,-3.25472c-0.06332,-1.88334 0.24493,-4.16779 0.4305,-6.0362c0.02147,-0.21622 0.24547,-2.50341 0.27081,-2.61636c0.2348,-1.04697 0.809,-1.89103 1.14373,-2.71576c0.39183,-0.96543 0.93949,-2.48117 1.15602,-3.7677c0.20776,-1.23445 0.0327,-2.60738 -0.24401,-3.91063c-0.39995,-1.02622 -0.8615,-1.89765 -1.37563,-2.39777c0,0 -0.21648,-0.21354 -0.10908,-0.79184c0.10739,-0.57831 0.32387,-0.36478 0.32387,-0.36478c0.13544,0.13523 0.26823,0.29279 0.398,0.46977c-0.02801,-0.11861 -0.05415,-0.23389 -0.07798,-0.34554c0,0 -0.11007,-0.51576 0.10506,-0.85346c0.21513,-0.3377 0.3252,0.17805 0.3252,0.17805c0.20351,0.95356 0.50082,2.00946 0.7512,3.1282c0.32886,0.82366 0.61852,1.74566 0.85818,2.68337c0.29229,1.14364 0.21755,2.81835 0.5802,3.84506c0.21613,0.61189 0.68972,0.46539 0.98122,0.66075c0.31426,0.21063 0.59817,0.63416 0.85495,1.11102c0.65239,1.23155 1.40597,2.93834 1.65954,4.99667c0.15448,1.25392 0.09918,2.69523 0.26545,3.92835c0.18389,1.36381 0.55825,2.36968 0.29385,4.03733c-0.10635,0.6708 -0.25695,1.20529 -0.43769,1.6335c0.00911,0.01691 0.01821,0.03377 0.02728,0.0506c0.35091,0.65088 0.59661,1.42913 1.03308,1.75563c1.35917,1.01672 1.22427,-4.04815 0.93816,-5.77981c-1.02402,-4.31406 -2.27052,-8.73157 -1.51519,-14.49195c0.10808,-0.82429 0.29049,-1.53543 0.4846,-2.23633c0.03341,0.28679 0.14986,0.44646 0.27235,0.36086c0.01415,-0.00989 0.02782,-0.02266 0.0409,-0.03797c0.02588,0.08188 0.06081,0.14188 0.10073,0.17382c-0.17958,0.63699 -0.34781,1.28666 -0.44181,2.01597c-0.69797,5.41531 0.54051,9.52437 1.49428,13.5674c0.18369,1.1194 0.37877,2.47424 0.30879,3.7795c-0.13353,2.49045 -0.88977,4.5259 -1.86229,3.83562c-0.49305,-0.34995 -0.7733,-1.19132 -1.16409,-1.91878c-0.05155,-0.09596 -0.10386,-0.1938 -0.15683,-0.29288c-0.51453,0.68349 -1.14018,0.89482 -1.68995,1.03273c-0.10548,0.00297 -0.21097,0.00592 -0.31645,0.00888l0.01024,0.01427c0,0 -0.2383,0.16653 -0.2784,-0.42703c-0.0401,-0.59355 0.19819,-0.76008 0.19819,-0.76008l0.11658,-0.06005c0.09832,-0.00237 0.19665,-0.00473 0.29498,-0.0071c0.38026,-0.0971 0.8399,-0.20125 1.24173,-0.58575c-0.3982,-0.72455 -0.81925,-1.43507 -1.23272,-1.91602c-0.07549,-0.02594 -0.15098,-0.05189 -0.22646,-0.07783l-0.08509,0.03161c0,0 -0.24155,0.04824 -0.23468,-0.56633z" fill="#000000" stroke="none" stroke-width="0.5" stroke-linecap="butt"/><path d="M69.88758,171.46888c0.14154,0.45833 -0.05433,0.87061 -0.05433,0.87061l-0.14049,0.2572c-0.32008,1.19419 -0.46092,2.60656 -0.66185,3.94174c-0.73695,4.83276 -3.0638,5.93732 -4.2179,2.25405c-0.64823,-2.06881 -0.42406,-6.12857 -0.00953,-8.55713c0.5895,-4.04534 0.47285,-7.05758 -0.19044,-10.61615c-0.16873,-0.90523 -0.48988,-2.2547 -0.9116,-2.71725c0.05457,-0.15688 0.0704,-0.34611 0.0704,-0.34611c0.02173,-0.27617 0.05385,-0.55443 0.09935,-0.8189c0.40763,0.40317 0.72258,1.33708 0.96861,2.30313c0.97344,3.82229 1.07509,7.95463 0.40949,12.54749c-0.35793,2.09253 -0.49837,4.92689 -0.1665,6.96728c0.09254,0.56899 0.32232,0.91079 0.51575,1.20058c0.34308,0.51397 0.71454,1.21881 1.15869,1.15344c0.87746,-0.12914 1.52621,-1.68774 1.82466,-3.70164c0.21845,-1.45155 0.37713,-2.90746 0.71879,-4.22062l0.24951,-0.56374c0,0 0.19586,-0.41229 0.3374,0.04603z" fill="#000000" stroke="none" stroke-width="0.5" stroke-linecap="butt"/><path d="M71.05666,168.18294c0.2383,-0.16653 0.2784,0.42702 0.2784,0.42702l0.01801,0.46023c-0.08748,1.40327 -0.05654,2.84842 -0.19658,4.24472c-0.07691,0.76687 -0.38118,1.95449 -0.29055,2.78174c0.09326,0.8513 0.49826,1.38728 0.7566,1.83662c0.58281,1.01371 1.24922,1.64969 1.84518,2.63053c0.14314,0.56277 0.33398,1.09434 0.32805,1.856c-0.02135,2.74469 -1.46469,5.30113 -2.18375,7.13007c-0.20948,0.53283 -0.53537,0.85707 -0.65065,1.53903c-0.03421,0.20237 0.05436,0.38617 0.08903,0.56929c0.18146,0.95866 0.36254,1.67443 0.66398,2.39555c0.2966,0.70955 0.54205,1.10002 0.93441,1.43071c0,0 0.22105,0.18755 0.12341,0.7748c-0.09764,0.58725 -0.31869,0.3997 -0.31869,0.3997c-0.44816,-0.38252 -0.75072,-0.85358 -1.08929,-1.66504c-0.30319,-0.72664 -1.04241,-2.77008 -0.86409,-4.14558c0.02837,-0.2188 0.68783,-1.86545 0.78948,-2.124c0.68708,-1.74761 2.44107,-4.718 1.81959,-7.2409c-0.81688,-1.28162 -2.42946,-2.29528 -2.71389,-4.97985c-0.11879,-1.12125 0.18664,-2.31559 0.29504,-3.38579c0.13625,-1.34515 0.10201,-2.75662 0.18547,-4.11129l-0.01737,-0.06345c0,0 -0.0401,-0.59355 0.19819,-0.76008z" fill="#000000" stroke="none" stroke-width="0.5" stroke-linecap="butt"/><g><path d="M67.54759,176.98693l-1.0908,-16.14465l6.7518,-4.71841l1.0908,16.14465z" fill="#323232" stroke="none" stroke-width="0" stroke-linecap="butt"/><g stroke="#000000"><path d="M69.88441,159.6411c1.44243,-1.00803 2.80854,1.08735 3.05128,4.68016c0.24275,3.59279 -0.7298,7.32251 -2.17222,8.33053c-1.44243,1.00803 -2.80854,-1.08735 -3.05128,-4.68015c-0.24275,-3.59279 0.72979,-7.32252 2.17223,-8.33054z" fill="#878787" stroke-width="1" stroke-linecap="butt"/><path d="M72.08656,160.71189l-4.02607,2.88461" fill="none" stroke-width="1.5" stroke-linecap="round"/><path d="M67.84826,165.52076l4.71609,-3.22474" fill="none" stroke-width="1.5" stroke-linecap="round"/><path d="M67.69939,167.11655l5.05665,-3.24962" fill="none" stroke-width="1.5" stroke-linecap="round"/><path d="M72.93847,165.12469l-5.12919,3.44239" fill="none" stroke-width="1.5" stroke-linecap="round"/><path d="M68.82377,161.35327l2.35126,-1.56664" fill="none" stroke-width="1.5" stroke-linecap="round"/><path d="M72.59987,168.80171l-4.03524,2.74893" data-paper-data="{&quot;index&quot;:null}" fill="none" stroke-width="1.5" stroke-linecap="round"/><path d="M68.12324,170.08318l4.70693,-3.36041" data-paper-data="{&quot;index&quot;:null}" fill="none" stroke-width="1.5" stroke-linecap="round"/><path d="M71.88993,170.86016l-2.34139,1.71275" data-paper-data="{&quot;index&quot;:null}" fill="none" stroke-width="1.5" stroke-linecap="round"/></g></g><path d="M68.8236,142.90678c0.03685,-0.03799 0.42994,6.40392 1.19735,16.15614c-0.19447,-0.01921 -2.87091,2.36752 -2.42361,8.8819c0.56514,6.54165 3.07748,5.24503 3.30063,4.79951c0.71224,9.03373 1.10359,17.48104 1.44,23.55497c0.04576,0.8262 -2.29879,1.98634 -4.7395,1.79145c-1.75558,-0.14018 -3.09802,-1.70492 -3.41634,-2.87869c-1.10277,-4.06622 -1.91991,-9.13163 -2.30815,-14.87791c-1.16057,-17.17727 3.56547,-35.31293 6.94963,-37.42736z" fill="#1300d2" stroke="#000000" stroke-width="2" stroke-linecap="butt"/><path d="M79.95065,167.7015c0.38824,5.74628 0.2984,11.44551 -0.18023,16.61689c-0.13816,1.49278 -1.15765,4.70812 -2.73682,7.17875c-2.19547,3.43483 -4.4783,5.50847 -4.54328,4.6957c-0.47768,-5.97521 -1.21162,-14.18311 -1.72929,-23.3528c0.26052,0.10751 2.71361,-2.06589 2.38368,-8.77192c-0.43363,-6.52392 -3.17668,-5.12331 -3.35114,-4.84628c-0.56018,-9.89705 -1.03377,-16.28271 -0.99534,-16.29732c3.35183,-2.59294 9.99185,7.59973 11.15242,24.77699z" fill="#1300d2" stroke="#000000" stroke-width="2" stroke-linecap="butt"/><g fill="#8b0000" stroke="#000000" stroke-width="2" stroke-linecap="butt"><path d="M69.40872,153.69694c0.12108,1.79204 -0.53471,3.77163 -1.46475,4.42158c-0.93004,0.64994 -1.55221,3.12713 -1.90321,-2.06793c-0.36169,-5.35335 0.53472,-3.77164 1.46475,-4.42158c0.93004,-0.64994 1.78213,0.27591 1.90321,2.06793z"/><path d="M71.10657,149.27821c0.93004,-0.64994 1.54151,-3.28542 1.90321,2.06793c0.351,5.19506 -0.53471,3.77163 -1.46475,4.42158c-0.93004,0.64994 -1.78213,-0.2759 -1.90321,-2.06793c-0.12108,-1.79204 0.53472,-3.77164 1.46475,-4.42158z" data-paper-data="{&quot;index&quot;:null}"/><path d="M70.77497,152.74216c0.12403,1.83574 -0.35866,3.73149 -1.07812,4.23427c-0.71946,0.50279 -1.40325,-0.57779 -1.52728,-2.41352c-0.12403,-1.83574 0.35867,-3.73149 1.07812,-4.23427c0.71946,-0.50279 1.40325,0.57779 1.52728,2.41352z"/></g><path d="M68.34213,116.85147c4.61647,-1.52543 8.43066,5.11995 8.51924,14.84289c0.08858,9.72294 -3.58201,18.84154 -8.19848,20.36698c-4.61647,1.52543 -8.43067,-5.11995 -8.51924,-14.84289c-0.08858,-9.72294 3.58201,-18.84154 8.19848,-20.36698z" fill="#696969" stroke="#000000" stroke-width="2" stroke-linecap="butt"/><path d="M68.43891,119.57556c4.00272,-1.32263 7.30774,4.20999 7.38196,12.35745c0.07422,8.14746 -3.11045,15.82449 -7.11318,17.14711c-4.00272,1.32263 -7.30774,-4.20999 -7.38196,-12.35745c-0.07422,-8.14746 3.11045,-15.82448 7.11317,-17.14711z" fill="none" stroke="url(#color-44)" stroke-width="4.5" stroke-linecap="butt"/><g stroke-linecap="butt"><path d="M75.63261,207.20558l4.36819,-4.82942c0,0 0.14151,0.73019 0.3605,1.90658c-1.01295,0.47058 -2.01311,1.14281 -2.97421,2.0669c-0.53663,0.51597 -1.13621,0.73519 -1.72521,1.07752c-0.00687,0.00276 -0.01373,0.00556 -0.02059,0.00844c-0.00574,-0.14995 -0.00868,-0.23001 -0.00868,-0.23001z" fill="#696969" stroke="#000000" stroke-width="2"/><path d="M77.01122,205.79078l1.66408,-1.83978l0.13571,1.22544c-0.48184,0.33557 -0.95747,0.72472 -1.42391,1.1732c-0.0938,0.09019 -0.18953,0.17131 -0.28678,0.24561z" fill="url(#color-45)" stroke="none" stroke-width="0"/><path d="M78.34412,204.56925c0,0 0.00198,-0.86287 0.23002,-0.7192c0.22804,0.14366 0.22605,1.00654 0.22605,1.00654c-0.0005,0.11041 -0.00153,0.22023 -0.00306,0.32952c-0.15607,0.10906 -0.3115,0.22375 -0.46616,0.34426c0.00865,-0.31547 0.01336,-0.63547 0.01316,-0.96111z" fill="#000000" stroke="none" stroke-width="0.5"/><path d="M75.63261,207.20558l4.36819,-4.82942c0,0 0.55539,1.3807 0.77438,2.55709c-1.01295,0.47058 -4.5243,2.15158 -5.1133,2.49392c-0.00687,0.00276 -0.01373,0.00556 -0.02059,0.00844c-0.00574,-0.14995 -0.00868,-0.23001 -0.00868,-0.23001z" fill="#1300d2" stroke="#000000" stroke-width="2"/></g><path d="" data-paper-data="{&quot;index&quot;:null}" fill="url(#color-46)" stroke="none" stroke-width="0" stroke-linecap="butt"/><g data-paper-data="{&quot;index&quot;:null}" stroke-width="1" stroke-linecap="butt"><path d="" fill="#696969" stroke="#000000"/><path d="" fill="url(#color-47)" stroke="none"/><path d="" fill="#000000" stroke="none"/><path d="" fill="#1300d2" stroke="#000000"/></g><g stroke-linecap="butt"><path d="" fill="#696969" stroke="#000000" stroke-width="2"/><path d="" fill="url(#color-48)" stroke="none" stroke-width="0"/><path d="" fill="#000000" stroke="none" stroke-width="0.5"/><path d="" fill="#1300d2" stroke="#000000" stroke-width="2"/></g><g stroke="#000000" stroke-linecap="butt"><path d="M77.13946,131.68423c0.08858,9.72294 -3.23065,18.39844 -7.84712,19.92387c-0.5948,0.19654 -0.6181,-2.70494 -0.02393,-3.85295c0.55626,0.15916 6.07952,-1.65044 5.93035,-13.58215c-0.25923,-16.48011 -8.99086,-16.53456 -6.57854,-17.33166c4.61647,-1.52543 8.43067,5.11995 8.51924,14.8429z" data-paper-data="{&quot;index&quot;:null}" fill="#1300d2" stroke-width="2"/><path d="M69.49603,149.35234c-0.5948,0.19654 -0.57144,-1.0993 0.02273,-2.2473c0.55626,0.15916 5.96825,-3.31579 5.81908,-15.2475c-0.25923,-16.48011 -8.92625,-16.47484 -6.51393,-17.27195c4.61647,-1.52543 6.93629,6.30511 7.3233,17.18336c0.23667,6.65252 -2.03471,16.05797 -6.65118,17.58341z" data-paper-data="{&quot;index&quot;:null}" fill="#ff0000" stroke-width="0"/></g><g stroke="#000000" stroke-linecap="butt"><path d="M60.24251,137.43104c-0.08858,-9.72294 3.58201,-18.84153 8.19848,-20.36697c2.41232,-0.7971 -6.2659,5.01011 -6.22421,21.56211c-0.05702,14.00593 6.58918,8.87639 6.14148,9.59322c0.61145,0.74963 0.64101,3.64905 0.04621,3.84559c-4.61647,1.52543 -8.07337,-4.91101 -8.16194,-14.63395z" fill="#1300d2" stroke-width="2"/><path d="M61.39813,136.39936c0.18708,-11.06793 2.35073,-20.37996 6.9672,-21.9054c2.41232,-0.7971 -6.20277,4.9082 -6.16108,21.46019c0.06847,11.95838 5.51109,11.84661 6.06113,11.3219c0.61145,0.74963 0.65822,2.02229 0.06342,2.21883c-4.61647,1.52543 -7.04507,-6.32699 -6.93066,-13.09552z" data-paper-data="{&quot;index&quot;:null}" fill="#ff0000" stroke-width="0"/></g><g stroke="none" stroke-width="0" stroke-linecap="butt"><path d="M65.9967,137.29351l-0.13811,-15.1598l5.70142,-1.88394l0.13811,15.1598z" fill="url(#color-49)"/><path d="M70.68765,125.56566l-0.0401,-4.40123l0.67644,-0.22352l0.0401,4.40122z" fill="#ffffff"/><path d="M70.73331,130.57817l-0.04009,-4.40123l0.67643,-0.22351l0.0401,4.40122z" fill="#ffffff"/><path d="M70.77786,135.46842l-0.0401,-4.40123l0.67644,-0.22352l0.0401,4.40123z" fill="#ffffff"/><path d="M66.19304,126.92818l-0.0401,-4.40122l0.67644,-0.22352l0.0401,4.40122z" fill="#ffffff"/><path d="M66.2387,131.94071l-0.04009,-4.40122l0.67644,-0.22352l0.0401,4.40122z" fill="#ffffff"/><path d="M66.28326,136.83097l-0.0401,-4.40122l0.67644,-0.22352l0.0401,4.40122z" fill="#ffffff"/><path d="M69.00601,136.02937l-0.01337,-1.46708l1.30456,-0.43106l0.01337,1.46708z" fill="#ffffff"/><path d="M67.50151,136.50199l-0.01337,-1.46708l1.30456,-0.43107l0.01337,1.46708z" fill="#ffffff"/></g><path d="M68.26375,95.6984c4.90791,-1.62174 8.96966,6.18627 9.07218,17.43967c0.10252,11.2534 -1.29788,20.98802 -8.70093,23.31248c-7.81988,2.45535 -8.96966,-6.18626 -9.07218,-17.43967c-0.10252,-11.2534 3.79302,-21.69075 8.70093,-23.31248z" fill="#696969" stroke="#000000" stroke-width="2" stroke-linecap="butt"/><path d="M65.13524,114.95657l-0.07462,-8.19118l6.90935,-2.28307l0.07462,8.19118z" fill="url(#color-50)" stroke="#000000" stroke-width="0" stroke-linecap="butt"/><path d="M66.16964,127.42776l-0.14368,-15.77108l5.02498,-1.66042l0.14368,15.77108z" fill="url(#color-51)" stroke="none" stroke-width="0" stroke-linecap="butt"/><path d="M65.96526,127.20477l-2.0555,-18.60423l1.16587,-1.12168l2.0555,18.60423z" fill="url(#color-52)" stroke="none" stroke-width="0" stroke-linecap="butt"/><path d="M70.17174,125.6915l1.70521,-19.84689l1.17925,0.34678l-1.70521,19.84691z" data-paper-data="{&quot;index&quot;:null}" fill="url(#color-53)" stroke="none" stroke-width="0" stroke-linecap="butt"/><path d="M64.77625,128.74655l-0.04121,-4.52349l7.87569,-2.60238l0.04121,4.52349z" fill="url(#color-54)" stroke="none" stroke-width="0" stroke-linecap="butt"/><path d="M63.59951,130.3252c-0.22714,0.27097 -0.30961,-0.28277 -0.30961,-0.28277l-0.02602,-0.20047c-0.12912,-0.53992 -0.25134,-1.31216 -0.43979,-1.7396c-0.07277,-0.16504 -0.35087,-0.38285 -0.40908,-0.47695c-0.80007,-1.29343 -2.10703,-3.66603 -1.36945,-6.61355c0.31097,-0.36162 1.28843,-0.96223 1.3671,-2.13476c0.11168,-1.66454 -0.35311,-2.83055 -0.07047,-4.63154c0.32736,-2.08594 1.24695,-3.4394 1.94614,-4.6862c0,0 0.20761,-0.37015 0.33128,0.12283c0.12367,0.49298 -0.08394,0.86312 -0.08394,0.86312c-0.5892,1.05032 -1.46965,2.27574 -1.74563,4.03933c-0.34298,2.19174 0.57967,4.16674 -0.36102,6.07242c-0.09951,0.20159 -0.21633,0.33656 -0.32963,0.47494c-0.16746,0.20453 -0.57078,0.59196 -0.76346,0.7809c-0.17231,0.72502 0.08356,1.69957 0.23052,2.25972c0.38712,1.47553 1.09694,1.84697 1.59042,2.95028c0.22978,0.51375 0.36931,1.33916 0.52694,1.99807l0.06036,0.37957c0,0 0.08247,0.55373 -0.14468,0.8247z" fill="#000000" stroke="none" stroke-width="0.5" stroke-linecap="butt"/><path d="M61.82906,132.87408c-0.24165,0.06231 -0.2403,-0.55099 -0.2403,-0.55099l0.00394,-0.21863c-0.04258,-0.64132 -0.04719,-1.50305 -0.15858,-2.08741c-0.04301,-0.22563 -0.2638,-0.68528 -0.30339,-0.82879c-0.5441,-1.97261 -1.39747,-5.44826 -0.33035,-7.667c0.32956,-0.0762 1.2922,0.20704 1.52323,-0.86648c0.32798,-1.52398 0.06853,-3.07428 0.56917,-4.57935c0.57985,-1.7432 1.5932,-2.2456 2.39341,-2.83989c0,0 0.2376,-0.17643 0.28167,0.41427c0.04408,0.5907 -0.19353,0.76709 -0.19353,0.76709c-0.67428,0.5005 -1.63487,0.91281 -2.12441,2.38732c-0.60838,1.83249 -0.04693,4.57875 -1.15472,5.6009c-0.11719,0.10813 -0.24086,0.13591 -0.36183,0.17012c-0.1788,0.05058 -0.59508,0.06985 -0.79447,0.08283c-0.25427,0.55387 -0.15688,1.73171 -0.10099,2.40862c0.14721,1.78309 0.73595,2.77634 1.02982,4.29099c0.13684,0.70528 0.14979,1.63426 0.20179,2.41696l0.00254,0.42381c0,0 -0.00134,0.61331 -0.24299,0.67562z" fill="#000000" stroke="none" stroke-width="0.5" stroke-linecap="butt"/><path d="M73.27826,125.85966l0.05311,-0.41706c0.14471,-0.75881 0.26841,-1.6712 0.48748,-2.33327c0.47047,-1.42182 1.16928,-2.25871 1.52728,-3.98046c0.1359,-0.6536 0.37253,-1.7909 0.18809,-2.39804c-0.19495,-0.06086 -0.60289,-0.18022 -0.77306,-0.27318c-0.11514,-0.06289 -0.2337,-0.12009 -0.33627,-0.2549c-0.96967,-1.27442 -0.08843,-3.84549 -0.46917,-5.79808c-0.30636,-1.57115 -1.20379,-2.20911 -1.80853,-2.86492c0,0 -0.21309,-0.23114 -0.09912,-0.80264c0.11397,-0.5715 0.32706,-0.34036 0.32706,-0.34036c0.71764,0.77862 1.6563,1.51806 2.01959,3.37578c0.31366,1.60395 -0.12715,3.06923 0.01409,4.65019c0.09949,1.11365 1.082,1.06662 1.39767,1.22117c0.7867,2.44384 -0.46932,5.66335 -1.24109,7.47616c-0.05614,0.13189 -0.32862,0.53162 -0.39795,0.74361c-0.17956,0.54904 -0.28701,1.39717 -0.40555,2.01892l-0.02223,0.21641c0,0 -0.07191,0.60475 -0.30261,0.48508c-0.2307,-0.11968 -0.15879,-0.72442 -0.15879,-0.72442z" data-paper-data="{&quot;index&quot;:null}" fill="#000000" stroke="none" stroke-width="0.5" stroke-linecap="butt"/><path d="M74.98937,127.43966l-0.00518,-0.42294c0.03747,-0.81227 0.03347,-1.74421 0.15668,-2.53542c0.26459,-1.69916 0.83176,-3.07437 0.94569,-4.94375c0.04325,-0.70967 0.11866,-1.94462 -0.14414,-2.32762c-0.19843,0.1185 -0.61255,0.37359 -0.79121,0.44114c-0.12087,0.04569 -0.2443,0.09956 -0.36275,0.06932c-1.11971,-0.28611 -0.61152,-3.38582 -1.24953,-4.80646c-0.51338,-1.14312 -1.4757,-0.92003 -2.15502,-0.97326c0,0 -0.23938,-0.01879 -0.2063,-0.63498c0.03308,-0.61619 0.27245,-0.59738 0.27245,-0.59738c0.8062,0.06349 1.8226,-0.10481 2.43064,1.24588c0.52498,1.16619 0.29525,2.87812 0.64894,4.17685c0.24915,0.91485 1.20087,-0.00097 1.52983,-0.14236c1.10102,1.5023 0.31591,5.51936 -0.18909,7.83863c-0.03674,0.16872 -0.24785,0.77109 -0.28651,1.02373c-0.10011,0.65425 -0.08904,1.51385 -0.11971,2.17938l0.00789,0.21472c0,0 0.01248,0.60874 -0.22885,0.70602c-0.24133,0.09728 -0.2538,-0.51146 -0.2538,-0.51146z" data-paper-data="{&quot;index&quot;:null}" fill="#000000" stroke="none" stroke-width="0.5" stroke-linecap="butt"/><path d="M74.49406,105.57165c0.03149,3.45704 -1.08516,6.63695 -2.49412,7.10251c-1.40896,0.46557 -2.57667,-1.9595 -2.60817,-5.41654c-0.03149,-3.45704 1.08516,-6.63696 2.49412,-7.10252c1.40896,-0.46557 2.57667,1.95951 2.60817,5.41655z" data-paper-data="{&quot;index&quot;:null}" fill="#ffffff" stroke="#000000" stroke-width="2" stroke-linecap="butt"/><path d="M73.17795,105.79886c0.01667,1.83023 -0.53225,3.49978 -1.22606,3.72904c-0.6938,0.22925 -1.26976,-1.06859 -1.28643,-2.89883c-0.01667,-1.83023 0.53225,-3.49979 1.22606,-3.72904c0.6938,-0.22925 1.26976,1.06859 1.28643,2.89883z" data-paper-data="{&quot;index&quot;:null}" fill="#000000" stroke="none" stroke-width="0" stroke-linecap="butt"/><path d="M65.17895,102.20777c1.40896,-0.46557 2.57667,1.95951 2.60817,5.41654c0.03149,3.45704 -1.08516,6.63695 -2.49412,7.10252c-1.40896,0.46557 -2.57667,-1.9595 -2.60817,-5.41655c-0.03149,-3.45704 1.08516,-6.63695 2.49412,-7.10251z" fill="#ffffff" stroke="#000000" stroke-width="2" stroke-linecap="butt"/><path d="M65.22322,104.93996c0.6938,-0.22925 1.26976,1.06859 1.28643,2.89882c0.01667,1.83023 -0.53225,3.49978 -1.22605,3.72903c-0.6938,0.22925 -1.26976,-1.06859 -1.28643,-2.89882c-0.01667,-1.83023 0.53225,-3.49978 1.22606,-3.72903z" fill="#000000" stroke="none" stroke-width="0" stroke-linecap="butt"/><path d="M61.7073,133.69093l-0.04015,-4.40753l13.46054,-4.4478l0.04015,4.40752c0,0 -2.23857,5.74631 -6.55433,7.06448c-4.75117,1.45114 -6.90621,-2.61667 -6.90621,-2.61667z" fill="url(#color-55)" stroke="none" stroke-width="0" stroke-linecap="butt"/><path d="M68.19713,95.63659c0.10164,-0.03359 0.26508,13.08848 0.35466,24.44934c-0.05255,-0.10684 -0.11513,-0.10109 -0.11513,-0.10109c-1.09404,0.11776 -4.57487,1.38776 -5.23965,1.53674c-1.19677,0.14307 -2.51218,0.86851 -3.66622,-0.17567c-0.0204,-0.79141 -0.03327,-1.59141 -0.04059,-2.39487c-0.10252,-11.2534 3.79571,-21.69164 8.70693,-23.31446zM65.61032,114.89809c0.93194,-0.79595 2.32845,-2.77157 2.06502,-8.21473c-0.06631,-1.37018 -0.8882,-5.47153 -2.45779,-4.76703c-1.02343,0.53012 -2.76771,3.00443 -2.64911,7.19426c0.14861,5.24989 1.41444,6.01021 3.04187,5.78751z" fill="#1300d2" stroke="#000000" stroke-width="2" stroke-linecap="butt"/><path d="M68.55778,135.41958c-6.96334,3.92278 -8.68486,-3.99115 -9.05416,-13.69756c1.16238,0.85832 2.44722,0.21137 3.63951,0.06938c0.68364,-0.15368 4.18444,-1.46004 5.26438,-1.54687c0,0 0.08147,-0.00761 0.1419,-0.17748c0.06241,8.23967 0.08297,15.31052 0.00838,15.35253z" fill="#1300d2" stroke="#000000" stroke-width="2" stroke-linecap="butt"/><path d="M68.67484,95.72189c4.91122,-1.62283 8.97567,6.18428 9.07818,17.43768c0.00732,0.80345 0.00907,1.60713 0.00316,2.40724c-1.12813,1.79828 -2.44883,1.9439 -3.64102,2.59021c-0.6635,0.28993 -4.14651,1.32101 -5.23612,1.9248c0,0 -0.06231,0.03552 -0.11261,0.17634c-0.11733,-11.35169 -0.19324,-24.50268 -0.0916,-24.53627zM74.51448,105.40639c0.04178,-4.24283 -1.73697,-5.55301 -2.7639,-5.40562c-1.57296,0.33388 -2.31541,4.95215 -2.35644,6.3578c-0.16297,5.58406 1.26105,6.62768 2.20185,6.80482c1.62171,-0.85091 2.86613,-2.4407 2.91848,-7.757z" data-paper-data="{&quot;index&quot;:null}" fill="#1300d2" stroke="#000000" stroke-width="2" stroke-linecap="butt"/><path d="M69.03901,135.50374c-0.0749,0.00738 -0.18291,-7.03458 -0.27055,-15.26591c0.06315,0.12903 0.14427,0.08293 0.14427,0.08293c1.07503,-0.62524 4.57855,-1.63334 5.26088,-1.93102c1.18771,-0.64444 2.47659,-0.84794 3.6164,-2.46697c-0.19077,9.89147 -1.75819,18.89218 -8.75099,19.58097z" data-paper-data="{&quot;index&quot;:null}" fill="#1300d2" stroke="#000000" stroke-width="2" stroke-linecap="butt"/><path d="M68.5601,111.48799c1.37802,-0.45534 2.52902,2.89758 2.57085,7.48897c0.04183,4.59138 -1.04137,8.68256 -2.41938,9.1379c-1.37802,0.45534 -2.52903,-2.89758 -2.57086,-7.48897c-0.04183,-4.59138 1.04137,-8.68257 2.41939,-9.13791z" fill="#ff00cc" stroke="#000000" stroke-width="2" stroke-linecap="butt"/><g data-paper-data="{&quot;index&quot;:null}" stroke-linecap="butt"><path d="" fill="#696969" stroke="#000000" stroke-width="2"/><path d="" fill="url(#color-56)" stroke="none" stroke-width="0"/><path d="" fill="#000000" stroke="none" stroke-width="0.5"/><path d="" fill="#1300d2" stroke="#000000" stroke-width="2"/></g><g stroke-linecap="butt"><path d="M36.71061,120.1528c-0.04329,0.52732 -0.24313,0.91061 -0.44639,0.8561c-0.20325,-0.05452 -0.33293,-0.52619 -0.28964,-1.05352c0.04329,-0.52732 0.24314,-0.91062 0.44639,-0.8561c0.20325,0.05451 0.33293,0.5262 0.28964,1.05352z" data-paper-data="{&quot;index&quot;:null}" fill="url(#color-57)" stroke="none" stroke-width="0"/><g data-paper-data="{&quot;index&quot;:null}" stroke-width="1"><path d="M35.61352,120.663c0,0 -0.63839,-2.0857 -0.85848,-3.20946c-0.20771,-1.06063 -0.39136,-3.40715 -0.39136,-3.40715l1.25003,-1.83546c0,0 0.6283,1.79938 0.83957,2.8781c0.2171,1.10851 0.51742,3.5812 0.51742,3.5812z" fill="#696969" stroke="#000000"/><path d="M36.0347,120.00533l-1.2759,-6.5149l0.4762,-0.69923l1.2759,6.51489z" fill="url(#color-58)" stroke="none"/><path d="M35.99159,120.07555c0,0 0.0079,0.18367 -0.05918,0.20533c-0.06707,0.02167 -0.07498,-0.16198 -0.07498,-0.16198l-0.01298,-0.32742c0.03515,-0.40142 0.11166,-0.71282 0.16689,-1.09187c0.0319,-0.21895 0.0368,-0.45622 0.06368,-0.67782c0.02407,-0.19853 0.07914,-0.3854 0.07632,-0.60676c-0.0066,-0.51728 -0.18618,-1.02117 -0.3624,-1.06031c-0.11163,-0.04479 -0.21592,-0.12863 -0.32554,-0.1932c-0.09828,-0.05791 -0.20994,0.00144 -0.29522,-0.18582c-0.08431,-0.18516 -0.10727,-0.63381 -0.11665,-0.89396c-0.02561,-0.70927 0.10885,-1.38772 0.09008,-2.09757c0,0 -0.00413,-0.18458 0.06329,-0.19591c0.06742,-0.01133 0.07154,0.17327 0.07154,0.17327c0.01365,0.70718 -0.1146,1.39075 -0.09028,2.08982c0.00433,0.1246 0.01871,0.53213 0.06826,0.63963c0.03088,0.06699 0.13258,0.07154 0.15505,0.07861c0.13341,0.04191 0.2618,0.16412 0.39539,0.21788c0.24079,0.06503 0.47044,0.71622 0.48148,1.41488c0.00438,0.27737 -0.05326,0.49078 -0.08345,0.73869c-0.0276,0.22665 -0.03299,0.46741 -0.0656,0.69226c-0.04908,0.33843 -0.12323,0.62845 -0.15804,0.98204l0.01234,0.26026z" fill="#000000" stroke="none"/><path d="M35.61352,120.663c0,0 -0.63839,-2.0857 -0.85848,-3.20946c-0.20771,-1.06063 -0.39136,-3.40715 -0.39136,-3.40715l1.25003,-1.83546c0,0 0.6283,1.79938 0.83957,2.8781c0.2171,1.10851 0.51742,3.5812 0.51742,3.5812z" fill="#1300d2" stroke="#000000"/></g><path d="M38.31846,127.66836c-0.05078,0.52494 -0.2553,0.89052 -0.4568,0.81652c-0.2015,-0.074 -0.32371,-0.55955 -0.27292,-1.0845c0.05078,-0.52494 0.2553,-0.89052 0.45681,-0.81652c0.2015,0.074 0.3237,0.55955 0.27292,1.08449z" data-paper-data="{&quot;index&quot;:null}" fill="url(#color-59)" stroke="none" stroke-width="0"/><g data-paper-data="{&quot;index&quot;:null}" stroke-width="1"><path d="M37.28384,127.95075c0,0 -0.68419,-1.98529 -0.92843,-3.07161c-0.23052,-1.02528 -0.46341,-3.3307 -0.46341,-3.3307l1.21741,-1.99067c0,0 0.66815,1.70227 0.90259,2.74507c0.24092,1.07156 0.59359,3.48661 0.59359,3.48661z" fill="#696969" stroke="#000000"/><path d="M37.69321,127.24107l-1.41591,-6.29779l0.46379,-0.75837l1.4159,6.2978z" fill="url(#color-60)" stroke="none"/><path d="M37.65135,127.31666c0,0 0.01174,0.18132 -0.05517,0.21186c-0.06692,0.03054 -0.07865,-0.15077 -0.07865,-0.15077l-0.0198,-0.32338c0.02701,-0.40334 0.09741,-0.72286 0.14504,-1.10669c0.02752,-0.2217 0.02754,-0.45799 0.04996,-0.68164c0.02008,-0.20038 0.07152,-0.39333 0.06411,-0.61275c-0.01731,-0.51279 -0.20806,-0.98901 -0.38584,-1.00421c-0.11303,-0.02946 -0.2195,-0.09869 -0.33091,-0.14807c-0.09989,-0.04431 -0.21081,0.02966 -0.30031,-0.14484c-0.08849,-0.17255 -0.12081,-0.61494 -0.13561,-0.87201c-0.04037,-0.70087 0.08065,-1.39265 0.04713,-2.09503c0,0 -0.00796,-0.18274 0.05951,-0.20306c0.06747,-0.0203 0.07543,0.16243 0.07543,0.16243c0.02831,0.7004 -0.08636,1.39645 -0.04749,2.08735c0.00693,0.12313 0.02979,0.5259 0.08176,0.62597c0.03239,0.06237 0.13462,0.05322 0.15733,0.05722c0.13484,0.02367 0.26629,0.12774 0.40158,0.16316c0.24316,0.03221 0.48724,0.64796 0.51276,1.34026c0.01013,0.27484 -0.04335,0.4945 -0.06855,0.74474c-0.02304,0.22875 -0.02348,0.46857 -0.05158,0.69625c-0.0423,0.34265 -0.11077,0.64064 -0.13842,0.99641l0.01776,0.25677z" fill="#000000" stroke="none"/><path d="M37.28384,127.95075c0,0 -0.68419,-1.98529 -0.92843,-3.07161c-0.23052,-1.02528 -0.46341,-3.3307 -0.46341,-3.3307l1.21741,-1.99067c0,0 0.66815,1.70227 0.90259,2.74507c0.24092,1.07156 0.59359,3.48661 0.59359,3.48661z" fill="#1300d2" stroke="#000000"/></g><g data-paper-data="{&quot;index&quot;:null}" stroke-width="1"><path d="M38.78252,135.40703c0,0 -0.64549,-2.07077 -0.86929,-3.18906c-0.21122,-1.05545 -0.4024,-3.39611 -0.4024,-3.39611l1.24528,-1.85943c0,0 0.63449,1.78491 0.84931,2.85836c0.22076,1.1031 0.52911,3.56743 0.52911,3.56743z" fill="#696969" stroke="#000000"/><path d="M39.20197,134.74133l-1.29745,-6.48297l0.47439,-0.70835l1.29744,6.48298z" fill="url(#color-61)" stroke="none"/><path d="M39.15902,134.81242c0,0 0.00849,0.18333 -0.05857,0.20636c-0.06707,0.02302 -0.07556,-0.16032 -0.07556,-0.16032l-0.01402,-0.32685c0.03392,-0.4018 0.10951,-0.71447 0.16359,-1.09433c0.03124,-0.21938 0.0354,-0.45657 0.0616,-0.67852c0.02347,-0.19885 0.078,-0.38667 0.07447,-0.60777c-0.00823,-0.51669 -0.18953,-1.01647 -0.36603,-1.05197c-0.11187,-0.04247 -0.21651,-0.12408 -0.32643,-0.18636c-0.09854,-0.05585 -0.21011,0.00574 -0.29604,-0.17963c-0.08496,-0.1833 -0.10934,-0.63105 -0.11956,-0.89077c-0.02786,-0.70812 0.10457,-1.3887 0.08355,-2.09756c0,0 -0.00472,-0.18434 0.06272,-0.19703c0.06744,-0.0127 0.07215,0.17164 0.07215,0.17164c0.01588,0.70629 -0.11033,1.39188 -0.08378,2.08983c0.00473,0.12439 0.02041,0.53129 0.07033,0.63766c0.03111,0.06631 0.13292,0.06878 0.15543,0.07538c0.13365,0.03915 0.26253,0.15858 0.39641,0.20957c0.24119,0.06004 0.47308,0.70597 0.48633,1.40377c0.00525,0.27703 -0.05175,0.49141 -0.08119,0.73973c-0.02691,0.22699 -0.03155,0.46767 -0.06348,0.69298c-0.04806,0.33913 -0.12136,0.63044 -0.15508,0.98439l0.01316,0.25978z" fill="#000000" stroke="none"/><path d="M38.78252,135.40703c0,0 -0.64549,-2.07077 -0.86929,-3.18906c-0.21122,-1.05545 -0.4024,-3.39611 -0.4024,-3.39611l1.24528,-1.85943c0,0 0.63449,1.78491 0.84931,2.85836c0.22076,1.1031 0.52911,3.56743 0.52911,3.56743z" fill="#1300d2" stroke="#000000"/></g><path d="M43.78241,138.64792c0.09023,0.55289 -0.02115,1.23681 -0.2488,1.5276c-0.22765,0.29078 -0.48533,0.07831 -0.57557,-0.47456c-0.09023,-0.55289 0.02115,-1.23681 0.2488,-1.5276c0.22763,-0.2908 0.48533,-0.07832 0.57556,0.47456z" data-paper-data="{&quot;index&quot;:null}" fill="url(#color-62)" stroke="none" stroke-width="0"/><path d="M41.83477,134.30939c0.19457,0.3242 0.23178,1.01991 0.0831,1.55388c-0.14867,0.53397 -0.42693,0.70402 -0.6215,0.37982c-0.19457,-0.3242 -0.23178,-1.0199 -0.0831,-1.55387c0.14867,-0.53397 0.42693,-0.70402 0.6215,-0.37982z" data-paper-data="{&quot;index&quot;:null}" fill="url(#color-63)" stroke="none" stroke-width="0"/><path d="M39.57454,136.0117c0.19457,0.3242 0.23178,1.01992 0.0831,1.55388c-0.14867,0.53397 -0.42693,0.70403 -0.62151,0.37982c-0.19457,-0.3242 -0.23177,-1.01991 -0.0831,-1.55388c0.14867,-0.53397 0.42693,-0.70402 0.6215,-0.37982z" data-paper-data="{&quot;index&quot;:null}" fill="url(#color-64)" stroke="none" stroke-width="0"/><path d="M37.75276,140.00416c0.19457,0.3242 0.23178,1.01991 0.0831,1.55388c-0.14867,0.53397 -0.42693,0.70404 -0.6215,0.37984c-0.19457,-0.3242 -0.23178,-1.01991 -0.0831,-1.55388c0.14867,-0.53397 0.42693,-0.70403 0.62151,-0.37982z" data-paper-data="{&quot;index&quot;:null}" fill="url(#color-65)" stroke="none" stroke-width="0"/><path d="M40.39294,116.17969c-0.09483,0.49482 -0.32159,0.74173 -0.50651,0.55149c-0.18491,-0.19025 -0.25793,-0.74561 -0.1631,-1.24044c0.09483,-0.49482 0.3216,-0.74173 0.50651,-0.55148c0.18491,0.19024 0.25794,0.74562 0.16311,1.24043z" data-paper-data="{&quot;index&quot;:null}" fill="url(#color-66)" stroke="none" stroke-width="0"/><g data-paper-data="{&quot;index&quot;:null}" stroke-width="1"><path d="M39.31208,115.95187c0,0 -0.38381,-2.49924 -0.4745,-3.76288c-0.08558,-1.19263 -0.01629,-3.64646 -0.01629,-3.64646l1.36057,-0.98619c0,0 0.40382,2.20807 0.49086,3.42106c0.08945,1.24648 0.11655,3.90376 0.11655,3.90376z" fill="#696969" stroke="#000000"/><path d="M39.77454,115.58062l-0.52569,-7.32576l0.51831,-0.37569l0.52569,7.32574z" fill="url(#color-67)" stroke="none"/><path d="M39.7269,115.6215c0,0 -0.01149,0.18773 -0.07659,0.16434c-0.06511,-0.02339 -0.05363,-0.21111 -0.05363,-0.21111l0.02152,-0.33394c0.07425,-0.3752 0.17801,-0.63329 0.26877,-0.97283c0.05243,-0.19612 0.08144,-0.42854 0.12943,-0.63066c0.04298,-0.18107 0.11383,-0.32984 0.13397,-0.5516c0.04703,-0.51824 -0.06945,-1.13901 -0.23061,-1.29589c-0.10003,-0.11925 -0.18917,-0.27236 -0.28527,-0.40989c-0.08616,-0.12333 -0.19694,-0.13914 -0.2576,-0.38227c-0.05998,-0.24038 -0.03533,-0.70141 -0.01737,-0.96611c0.04897,-0.72168 0.24481,-1.30556 0.30025,-2.02325c0,0 0.01511,-0.18611 0.07948,-0.15222c0.06436,0.03389 0.04924,0.22002 0.04924,0.22002c-0.05997,0.7116 -0.25052,1.30473 -0.29964,2.01543c-0.00876,0.12666 -0.03721,0.54111 -0.00184,0.68107c0.02205,0.08723 0.11691,0.15985 0.13726,0.1819c0.12074,0.13098 0.22851,0.33831 0.34821,0.48116c0.21901,0.22583 0.36729,1.02645 0.30575,1.72785c-0.02443,0.27844 -0.10042,0.45184 -0.15422,0.67787c-0.04919,0.20665 -0.07901,0.44219 -0.13272,0.64372c-0.08082,0.30331 -0.18017,0.54174 -0.24918,0.86966l-0.01522,0.26678z" fill="#000000" stroke="none"/><path d="M39.31208,115.95187c0,0 -0.38381,-2.49924 -0.4745,-3.76288c-0.08558,-1.19263 -0.01629,-3.64646 -0.01629,-3.64646l1.36057,-0.98619c0,0 0.40382,2.20807 0.49086,3.42106c0.08945,1.24648 0.11655,3.90376 0.11655,3.90376z" fill="#1300d2" stroke="#000000"/></g><path d="M41.12683,124.7217c-0.10161,0.48744 -0.33093,0.71364 -0.5122,0.50521c-0.18127,-0.20844 -0.24586,-0.77256 -0.14425,-1.26001c0.10161,-0.48744 0.33093,-0.71364 0.51221,-0.5052c0.18127,0.20844 0.24586,0.77256 0.14425,1.26z" data-paper-data="{&quot;index&quot;:null}" fill="url(#color-68)" stroke="none" stroke-width="0"/><g data-paper-data="{&quot;index&quot;:null}" stroke-width="1"><path d="M40.12795,124.30942c0,0 -0.43708,-2.43017 -0.55425,-3.67278c-0.11059,-1.17279 -0.0917,-3.61877 -0.0917,-3.61877l1.34597,-1.1622c0,0 0.45115,2.13831 0.56362,3.33113c0.11558,1.22573 0.19769,3.86081 0.19769,3.86081z" fill="#696969" stroke="#000000"/><path d="M40.5847,123.8786l-0.67926,-7.20385l0.51275,-0.44276l0.67925,7.20385z" fill="url(#color-69)" stroke="none"/><path d="M40.53768,123.92566c0,0 -0.00765,0.18796 -0.07352,0.1735c-0.06587,-0.01448 -0.05821,-0.20243 -0.05821,-0.20243l0.01471,-0.33447c0.06681,-0.38256 0.16568,-0.6528 0.24981,-1.00218c0.0486,-0.20179 0.07294,-0.43649 0.11696,-0.64363c0.03943,-0.18559 0.10751,-0.34283 0.12314,-0.56574c0.03653,-0.52096 -0.09326,-1.12172 -0.25835,-1.25585c-0.10292,-0.10495 -0.1956,-0.245 -0.29495,-0.36867c-0.08907,-0.11089 -0.20066,-0.1117 -0.2666,-0.34495c-0.0652,-0.23066 -0.04998,-0.69174 -0.0374,-0.95701c0.03426,-0.72323 0.21888,-1.32935 0.25973,-2.04949c0,0 0.01134,-0.18685 0.07667,-0.16185c0.06533,0.02501 0.054,0.21186 0.054,0.21186c-0.04552,0.71469 -0.22463,1.32931 -0.25928,2.04162c-0.00618,0.12695 -0.02618,0.54233 0.01223,0.67654c0.02394,0.08364 0.12071,0.143 0.14159,0.16218c0.12396,0.1138 0.23648,0.30519 0.35964,0.43097c0.22461,0.19481 0.39005,0.96989 0.34274,1.67464c-0.01878,0.27979 -0.09151,0.46218 -0.14088,0.69387c-0.04513,0.21179 -0.07022,0.44972 -0.11998,0.65706c-0.0749,0.31205 -0.16974,0.56219 -0.23227,0.89707l-0.00977,0.26695z" fill="#000000" stroke="none"/><path d="M40.12795,124.30942c0,0 -0.43708,-2.43017 -0.55425,-3.67278c-0.11059,-1.17279 -0.0917,-3.61877 -0.0917,-3.61877l1.34597,-1.1622c0,0 0.45115,2.13831 0.56362,3.33113c0.11558,1.22573 0.19769,3.86081 0.19769,3.86081z" fill="#1300d2" stroke="#000000"/></g><g data-paper-data="{&quot;index&quot;:null}" stroke-width="1"><path d="M40.76561,132.71946c0,0 -0.392,-2.48917 -0.48672,-3.74984c-0.0894,-1.18983 -0.02778,-3.64288 -0.02778,-3.64288l1.35859,-1.01318c0,0 0.4111,2.19785 0.50203,3.40798c0.09344,1.24356 0.12892,3.89791 0.12892,3.89791z" fill="#696969" stroke="#000000"/><path d="M41.22728,132.33906l-0.54917,-7.30848l0.51755,-0.38597l0.54917,7.30848z" fill="url(#color-70)" stroke="none"/><path d="M41.17971,132.38092c0,0 -0.0109,0.1878 -0.07614,0.16577c-0.06523,-0.02204 -0.05433,-0.20985 -0.05433,-0.20985l0.02049,-0.33406c0.07314,-0.3764 0.17616,-0.63637 0.26594,-0.97749c0.05185,-0.197 0.08016,-0.42982 0.12755,-0.63273c0.04246,-0.1818 0.1129,-0.33186 0.13233,-0.55385c0.04545,-0.51875 -0.07308,-1.13659 -0.23487,-1.29005c-0.10049,-0.1171 -0.19018,-0.26824 -0.2868,-0.40369c-0.08662,-0.12145 -0.19754,-0.13498 -0.25902,-0.37664c-0.06079,-0.23896 -0.03756,-0.70005 -0.02042,-0.96488c0.04674,-0.72204 0.2409,-1.30941 0.29413,-2.02761c0,0 0.01455,-0.18627 0.07907,-0.15372c0.06452,0.03254 0.04997,0.2188 0.04997,0.2188c-0.05778,0.71221 -0.24662,1.30871 -0.29355,2.01978c-0.00836,0.12672 -0.03553,0.54141 0.00031,0.68049c0.02234,0.0867 0.11751,0.15732 0.13794,0.17894c0.12126,0.12838 0.22977,0.33332 0.35002,0.4736c0.21991,0.22115 0.37082,1.01802 0.31144,1.72005c-0.02358,0.27871 -0.09907,0.45348 -0.15222,0.68042c-0.04858,0.20745 -0.07769,0.44341 -0.1308,0.64585c-0.07993,0.30469 -0.17862,0.54496 -0.24665,0.87399l-0.01439,0.26687z" fill="#000000" stroke="none"/><path d="M40.76561,132.71946c0,0 -0.392,-2.48917 -0.48672,-3.74984c-0.0894,-1.18983 -0.02778,-3.64288 -0.02778,-3.64288l1.35859,-1.01318c0,0 0.4111,2.19785 0.50203,3.40798c0.09344,1.24356 0.12892,3.89791 0.12892,3.89791z" fill="#1300d2" stroke="#000000"/></g><path d="M46.60136,135.03844c-0.24145,0.16915 -0.47026,-0.1812 -0.51106,-0.78256c-0.0408,-0.60135 0.12185,-1.22598 0.3633,-1.39514c0.24144,-0.16917 0.47026,0.18121 0.51106,0.78255c0.0408,0.60135 -0.12185,1.22598 -0.3633,1.39514z" data-paper-data="{&quot;index&quot;:null}" fill="url(#color-71)" stroke="none" stroke-width="0"/><g data-paper-data="{&quot;index&quot;:null}" stroke-width="1"><path d="M45.88331,132.22362c0,0 0.57198,-3.09219 0.93505,-4.42779c0.34268,-1.26055 1.22308,-3.31341 1.22308,-3.31341l1.30625,2.11191c0,0 -0.45908,2.87453 -0.8076,4.15661c-0.35815,1.31748 -1.23855,3.76561 -1.23855,3.76561z" fill="#696969" stroke="#000000"/><path d="M46.33951,132.90904l2.10488,-7.74297l0.49762,0.80453l-2.10488,7.74296z" fill="url(#color-72)" stroke="none"/><path d="M46.29161,132.84081c0,0 -0.07177,0.14343 -0.11039,-0.02107c-0.03861,-0.16449 0.03317,-0.30792 0.03317,-0.30792l0.12845,-0.25271c0.18012,-0.17361 0.34166,-0.17695 0.52149,-0.28211c0.10387,-0.06074 0.20331,-0.20568 0.30603,-0.2816c0.09204,-0.06803 0.19304,-0.04561 0.28251,-0.20055c0.2091,-0.36215 0.33606,-1.1768 0.27401,-1.67298c-0.03111,-0.32764 -0.04298,-0.66167 -0.06508,-0.99708c-0.01981,-0.30073 -0.09363,-0.55908 -0.05466,-0.91127c0.03853,-0.34826 0.21224,-0.70828 0.31471,-0.90661c0.27937,-0.54074 0.61702,-0.63399 0.89966,-1.15689c0,0 0.07382,-0.13395 0.10834,0.03833c0.03451,0.17229 -0.03931,0.30625 -0.03931,0.30625c-0.2838,0.50744 -0.62082,0.62064 -0.89658,1.15117c-0.04915,0.09455 -0.20981,0.40437 -0.23192,0.60812c-0.01378,0.127 0.02943,0.40132 0.03649,0.46596c0.04194,0.38381 0.04875,0.80765 0.08592,1.19983c0.08005,0.68563 -0.08509,1.73199 -0.36656,2.22681c-0.11174,0.19646 -0.22475,0.18483 -0.33974,0.26942c-0.10512,0.07734 -0.20619,0.22331 -0.31282,0.28611c-0.16046,0.09451 -0.31221,0.08991 -0.47254,0.23256l-0.10121,0.20626z" fill="#000000" stroke="none"/><path d="M45.88331,132.22362c0,0 0.57198,-3.09219 0.93505,-4.42779c0.34268,-1.26055 1.22308,-3.31341 1.22308,-3.31341l1.30625,2.11191c0,0 -0.45908,2.87453 -0.8076,4.15661c-0.35815,1.31748 -1.23855,3.76561 -1.23855,3.76561z" fill="#1300d2" stroke="#000000"/></g><g data-paper-data="{&quot;index&quot;:null}" stroke-width="1"><path d="M43.47689,140.88821c0,0 0.6491,-3.00813 1.04438,-4.28724c0.37307,-1.20724 1.2999,-3.11724 1.2999,-3.11724l1.23734,2.34947c0,0 -0.53148,2.80901 -0.91092,4.03686c-0.38992,1.26175 -1.3273,3.569 -1.3273,3.569z" fill="#696969" stroke="#000000"/><path d="M43.91041,141.65634l2.29158,-7.41549l0.47137,0.89504l-2.29159,7.4155z" fill="url(#color-73)" stroke="none"/><path d="M43.86478,141.57945c0,0 -0.07491,0.13167 -0.10876,-0.04035c-0.03385,-0.17202 0.04107,-0.30369 0.04107,-0.30369l0.13397,-0.23162c0.18303,-0.14316 0.34311,-0.11843 0.52404,-0.19284c0.10451,-0.04299 0.20686,-0.17136 0.31064,-0.2298c0.09297,-0.05237 0.19241,-0.01225 0.28516,-0.15245c0.21677,-0.3276 0.36428,-1.12422 0.31607,-1.63365c-0.02206,-0.33466 -0.02488,-0.67243 -0.03782,-1.01334c-0.0116,-0.30566 -0.0778,-0.57812 -0.02979,-0.92528c0.04747,-0.34329 0.22914,-0.67491 0.33593,-0.85641c0.29113,-0.49488 0.62805,-0.52988 0.92196,-1.00624c0,0 0.07669,-0.12177 0.10628,0.05737c0.02957,0.17915 -0.04712,0.30094 -0.04712,0.30094c-0.29465,0.46062 -0.63147,0.51581 -0.91875,1.00103c-0.0512,0.08645 -0.21861,0.3699 -0.24595,0.57081c-0.01704,0.12523 0.01842,0.40842 0.02369,0.47462c0.03129,0.39299 0.02671,0.82016 0.05305,1.22075c0.06097,0.70294 -0.13055,1.72578 -0.42253,2.17413c-0.11592,0.17798 -0.22754,0.14668 -0.34369,0.21168c-0.10619,0.05944 -0.21019,0.18859 -0.31747,0.23315c-0.16145,0.06708 -0.31161,0.03607 -0.47424,0.15155l-0.10575,0.18968z" fill="#000000" stroke="none"/><path d="M43.47689,140.88821c0,0 0.6491,-3.00813 1.04438,-4.28724c0.37307,-1.20724 1.2999,-3.11724 1.2999,-3.11724l1.23734,2.34947c0,0 -0.53148,2.80901 -0.91092,4.03686c-0.38992,1.26175 -1.3273,3.569 -1.3273,3.569z" fill="#1300d2" stroke="#000000"/></g><path d="M33.70687,126.36857c-0.00322,0.52791 -0.17426,0.99509 -0.38205,1.04344c-0.20779,0.04834 -0.37362,-0.34044 -0.3704,-0.86837c0.00322,-0.52791 0.17426,-0.99508 0.38205,-1.04344c0.20778,-0.04835 0.37362,0.34043 0.3704,0.86836z" data-paper-data="{&quot;index&quot;:null}" fill="url(#color-74)" stroke="none" stroke-width="0"/><g data-paper-data="{&quot;index&quot;:null}" stroke-width="1"><path d="M32.64657,127.40219c0,0 -0.79838,-1.68693 -1.10445,-2.65723c-0.28886,-0.91578 -0.65149,-3.07856 -0.65149,-3.07856l1.11263,-2.38228c0,0 0.76648,1.41693 1.06027,2.34833c0.3019,0.95712 0.79104,3.18326 0.79104,3.18326z" fill="#696969" stroke="#000000"/><path d="M33.01847,126.56183l-1.77431,-5.62516l0.42386,-0.90754l1.77431,5.62516z" fill="url(#color-75)" stroke="none"/><path d="M32.98062,126.65064c0,0 0.02191,0.17249 -0.04365,0.22653c-0.06555,0.05405 -0.08746,-0.11843 -0.08746,-0.11843l-0.03793,-0.30804c0.00466,-0.40297 0.05761,-0.73997 0.08408,-1.1314c0.01529,-0.22608 0.00214,-0.45643 0.0122,-0.68258c0.009,-0.2026 0.04995,-0.40938 0.03027,-0.62059c-0.046,-0.49356 -0.26427,-0.88856 -0.44381,-0.83883c-0.11525,0.01229 -0.22613,-0.01656 -0.34086,-0.02427c-0.10287,-0.00692 -0.21023,0.10541 -0.30992,-0.0322c-0.09857,-0.13606 -0.15572,-0.55561 -0.18493,-0.80082c-0.07966,-0.66854 0.0034,-1.38679 -0.06945,-2.05928c0,0 -0.01819,-0.17523 0.04849,-0.21952c0.06668,-0.04428 0.08487,0.13097 0.08487,0.13097c0.06751,0.67246 -0.00894,1.39256 0.06865,2.05194c0.01383,0.11752 0.05926,0.50182 0.11708,0.58052c0.03604,0.04905 0.13828,0.00302 0.16133,-0.00133c0.13685,-0.02584 0.27478,0.02791 0.41272,0.01335c0.24619,-0.05686 0.52585,0.45481 0.59011,1.12038c0.02551,0.26421 -0.016,0.49777 -0.02737,0.75084c-0.0104,0.23137 0.00254,0.46527 -0.01302,0.69741c-0.0234,0.34936 -0.07562,0.66467 -0.08357,1.02152l0.03217,0.24387z" fill="#000000" stroke="none"/><path d="M32.64657,127.40219c0,0 -0.79838,-1.68693 -1.10445,-2.65723c-0.28886,-0.91578 -0.65149,-3.07856 -0.65149,-3.07856l1.11263,-2.38228c0,0 0.76648,1.41693 1.06027,2.34833c0.3019,0.95712 0.79104,3.18326 0.79104,3.18326z" fill="#1300d2" stroke="#000000"/></g><path d="M35.88994,132.79037c-0.01091,0.52935 -0.18798,0.98183 -0.3955,1.01059c-0.20752,0.02876 -0.36691,-0.37704 -0.35601,-0.9064c0.01091,-0.52935 0.18798,-0.98181 0.3955,-1.01058c0.20752,-0.02876 0.36691,0.37703 0.356,0.90639z" data-paper-data="{&quot;index&quot;:null}" fill="url(#color-76)" stroke="none" stroke-width="0"/><g data-paper-data="{&quot;index&quot;:null}" stroke-width="1"><path d="M34.87487,133.57424c0,0 -0.83663,-1.5678 -1.16403,-2.49017c-0.30901,-0.87054 -0.71786,-2.96941 -0.71786,-2.96941l1.06815,-2.51519c0,0 0.799,1.30393 1.11328,2.18933c0.32295,0.90983 0.86016,3.05466 0.86016,3.05466z" fill="#696969" stroke="#000000"/><path d="M35.23098,132.68976l-1.89804,-5.34728l0.40692,-0.95819l1.89804,5.34729z" fill="url(#color-77)" stroke="none"/><path d="M35.19479,132.78312c0,0 0.02557,0.16833 -0.03915,0.23082c-0.06471,0.06249 -0.09028,-0.10584 -0.09028,-0.10584l-0.04446,-0.30079c-0.00365,-0.40078 0.04256,-0.74254 0.06105,-1.13481c0.01069,-0.22656 -0.00727,-0.45353 -0.00185,-0.67944c0.00486,-0.20241 0.0417,-0.41324 0.01758,-0.6203c-0.05638,-0.48394 -0.28374,-0.84681 -0.46302,-0.77332c-0.11549,0.02771 -0.22742,0.01398 -0.34281,0.02174c-0.10345,0.00694 -0.20895,0.13294 -0.3119,0.00969c-0.1018,-0.12188 -0.16786,-0.53077 -0.20226,-0.77034c-0.09381,-0.65316 -0.02523,-1.37755 -0.11229,-2.03556c0,0 -0.02189,-0.17158 0.04416,-0.22452c0.06605,-0.05293 0.08794,0.11863 0.08794,0.11863c0.08169,0.65869 0.01979,1.38404 0.11134,2.02838c0.01632,0.11484 0.06988,0.49036 0.12957,0.56071c0.0372,0.04386 0.13892,-0.01559 0.16198,-0.02301c0.1369,-0.04408 0.27652,-0.00926 0.41475,-0.04227c0.24607,-0.08954 0.53748,0.38093 0.61576,1.0332c0.03108,0.25896 -0.00578,0.49643 -0.01197,0.74927c-0.00567,0.23113 0.01215,0.46168 0.00133,0.69428c-0.01628,0.35007 -0.0622,0.6702 -0.06282,1.02561l0.03734,0.23781z" fill="#000000" stroke="none"/><path d="M34.87487,133.57424c0,0 -0.83663,-1.5678 -1.16403,-2.49017c-0.30901,-0.87054 -0.71786,-2.96941 -0.71786,-2.96941l1.06815,-2.51519c0,0 0.799,1.30393 1.11328,2.18933c0.32295,0.90983 0.86016,3.05466 0.86016,3.05466z" fill="#1300d2" stroke="#000000"/></g><g data-paper-data="{&quot;index&quot;:null}" stroke-width="1"><path d="M36.94405,139.99319c0,0 -0.80436,-1.66909 -1.11372,-2.63226c-0.29198,-0.90907 -0.66171,-3.06248 -0.66171,-3.06248l1.10606,-2.40295c0,0 0.77157,1.39996 1.06853,2.32453c0.30516,0.9501 0.80171,3.16425 0.80171,3.16425z" fill="#696969" stroke="#000000"/><path d="M37.3136,139.14597l-1.79346,-5.58383l0.42135,-0.9154l1.79346,5.58384z" fill="url(#color-78)" stroke="none"/><path d="M37.27598,139.23553c0,0 0.02247,0.17187 -0.04297,0.22722c-0.06544,0.05534 -0.08791,-0.11655 -0.08791,-0.11655l-0.03893,-0.30699c0.0034,-0.40272 0.05533,-0.7405 0.08058,-1.13213c0.01459,-0.22619 0.00071,-0.45607 0.01006,-0.68221c0.00838,-0.20262 0.04871,-0.41004 0.02834,-0.62064c-0.04758,-0.49218 -0.26728,-0.88236 -0.44681,-0.82903c-0.11532,0.01464 -0.22637,-0.0119 -0.34122,-0.01726c-0.10297,-0.00481 -0.21007,0.10962 -0.31027,-0.02584c-0.09908,-0.13396 -0.15759,-0.55194 -0.1876,-0.79632c-0.08183,-0.66631 -0.00096,-1.38562 -0.07599,-2.05603c0,0 -0.01876,-0.17472 0.04784,-0.22032c0.0666,-0.04562 0.08535,0.12911 0.08535,0.12911c0.06968,0.6705 -0.00456,1.39152 0.07516,2.04873c0.01421,0.11713 0.0609,0.50017 0.11901,0.5776c0.03622,0.04826 0.1384,0.00021 0.16146,-0.00462c0.13688,-0.02863 0.2751,0.02224 0.41311,0.00486c0.24622,-0.06184 0.52772,0.44365 0.59412,1.10731c0.02636,0.26348 -0.01443,0.49762 -0.02503,0.75072c-0.00968,0.23134 0.00399,0.46481 -0.01084,0.69705c-0.02233,0.34954 -0.07359,0.66564 -0.08043,1.02232l0.03296,0.24299z" fill="#000000" stroke="none"/><path d="M36.94405,139.99319c0,0 -0.80436,-1.66909 -1.11372,-2.63226c-0.29198,-0.90907 -0.66171,-3.06248 -0.66171,-3.06248l1.10606,-2.40295c0,0 0.77157,1.39996 1.06853,2.32453c0.30516,0.9501 0.80171,3.16425 0.80171,3.16425z" fill="#1300d2" stroke="#000000"/></g><path d="M37.17857,145.88416c-1.17579,-6.14141 0.39569,-9.90127 2.29665,-12.64402c1.90095,-2.74273 3.41153,-3.42973 4.58731,2.71169c1.17578,6.1414 0.58792,13.34342 -1.31304,16.08618c-1.90095,2.74276 -4.39514,-0.01244 -5.57092,-6.15385z" data-paper-data="{&quot;index&quot;:null}" fill="#1300d2" stroke="#000000" stroke-width="1"/></g></g><path d="M32.22607,224.64874l-3.19878,-174.53869l53.42084,-20.79655l2.44655,133.49393c-0.02139,0.68982 -0.01448,1.30988 0.03463,1.88935l0.7176,39.15541z" fill="none" stroke="#000000" stroke-width="1.5" stroke-linecap="butt"/></g></g></g></svg>