<svg version="1.1" xmlns="http://www.w3.org/2000/svg" xmlns:xlink="http://www.w3.org/1999/xlink" width="805.64383" height="473.08394" viewBox="0,0,805.64383,473.08394"><defs><linearGradient x1="2.32243" y1="365.68632" x2="-29.62854" y2="371.67915" gradientUnits="userSpaceOnUse" id="color-1"><stop offset="0" stop-color="#5c5c5c"/><stop offset="1" stop-color="#9b9b9b"/></linearGradient><linearGradient x1="-73.61639" y1="427.71672" x2="-88.76914" y2="406.47089" gradientUnits="userSpaceOnUse" id="color-2"><stop offset="0" stop-color="#5c5c5c"/><stop offset="1" stop-color="#9b9b9b"/></linearGradient><linearGradient x1="59.98462" y1="358.29829" x2="50.31923" y2="334.05844" gradientUnits="userSpaceOnUse" id="color-3"><stop offset="0" stop-color="#5c5c5c"/><stop offset="1" stop-color="#9b9b9b"/></linearGradient><linearGradient x1="476.61278" y1="366.65158" x2="508.56373" y2="372.6444" gradientUnits="userSpaceOnUse" id="color-4"><stop offset="0" stop-color="#5c5c5c"/><stop offset="1" stop-color="#9b9b9b"/></linearGradient><linearGradient x1="552.55159" y1="428.68197" x2="567.70433" y2="407.43614" gradientUnits="userSpaceOnUse" id="color-5"><stop offset="0" stop-color="#5c5c5c"/><stop offset="1" stop-color="#9b9b9b"/></linearGradient><linearGradient x1="418.95058" y1="359.26354" x2="428.61597" y2="335.02369" gradientUnits="userSpaceOnUse" id="color-6"><stop offset="0" stop-color="#5c5c5c"/><stop offset="1" stop-color="#9b9b9b"/></linearGradient><linearGradient x1="239.13181" y1="309.01152" x2="239.13181" y2="324.54033" gradientUnits="userSpaceOnUse" id="color-7"><stop offset="0" stop-color="#5c5c5c"/><stop offset="1" stop-color="#9b9b9b"/></linearGradient><linearGradient x1="264.05293" y1="351.6567" x2="276.59101" y2="359.10428" gradientUnits="userSpaceOnUse" id="color-8"><stop offset="0" stop-color="#5c5c5c"/><stop offset="1" stop-color="#9b9b9b"/></linearGradient><linearGradient x1="215.21535" y1="352.85905" x2="202.67721" y2="360.30663" gradientUnits="userSpaceOnUse" id="color-9"><stop offset="0" stop-color="#5c5c5c"/><stop offset="1" stop-color="#9b9b9b"/></linearGradient><linearGradient x1="230.02106" y1="471.70043" x2="248.50772" y2="471.70043" gradientUnits="userSpaceOnUse" id="color-10"><stop offset="0" stop-color="#5c5c5c"/><stop offset="1" stop-color="#9b9b9b"/></linearGradient><linearGradient x1="332.16334" y1="317.0506" x2="364.67148" y2="317.0506" gradientUnits="userSpaceOnUse" id="color-11"><stop offset="0" stop-color="#5c5c5c"/><stop offset="1" stop-color="#9b9b9b"/></linearGradient><linearGradient x1="116.61109" y1="317.0506" x2="149.1192" y2="317.0506" gradientUnits="userSpaceOnUse" id="color-12"><stop offset="0" stop-color="#5c5c5c"/><stop offset="1" stop-color="#9b9b9b"/></linearGradient><linearGradient x1="155.20528" y1="217.47214" x2="321.18952" y2="228.94114" gradientUnits="userSpaceOnUse" id="color-13"><stop offset="0" stop-color="#6c6c6c"/><stop offset="1" stop-color="#c4c4c4"/></linearGradient><linearGradient x1="211.4627" y1="214.16978" x2="276.74985" y2="218.68091" gradientUnits="userSpaceOnUse" id="color-14"><stop offset="0" stop-color="#6e6e6e"/><stop offset="1" stop-color="#c0c0c0"/></linearGradient><linearGradient x1="248.85329" y1="135.03871" x2="243.92161" y2="206.41196" gradientUnits="userSpaceOnUse" id="color-15"><stop offset="0" stop-color="#a6a6a6"/><stop offset="1" stop-color="#707070"/></linearGradient><linearGradient x1="203.68145" y1="121.33853" x2="219.74919" y2="201.90725" gradientUnits="userSpaceOnUse" id="color-16"><stop offset="0" stop-color="#a6a6a6"/><stop offset="1" stop-color="#707070"/></linearGradient><linearGradient x1="294.84719" y1="128.79433" x2="267.74155" y2="207.97259" gradientUnits="userSpaceOnUse" id="color-17"><stop offset="0" stop-color="#a6a6a6"/><stop offset="1" stop-color="#707070"/></linearGradient><linearGradient x1="245.34514" y1="189.83255" x2="243.93064" y2="210.30404" gradientUnits="userSpaceOnUse" id="color-18"><stop offset="0" stop-color="#a6a6a6"/><stop offset="1" stop-color="#707070"/></linearGradient><linearGradient x1="242.97704" y1="208.01436" x2="241.59877" y2="227.96107" gradientUnits="userSpaceOnUse" id="color-19"><stop offset="0" stop-color="#707070"/><stop offset="1" stop-color="#a6a6a6"/></linearGradient><linearGradient x1="249.90145" y1="123.89183" x2="247.34002" y2="160.96157" gradientUnits="userSpaceOnUse" id="color-20"><stop offset="0" stop-color="#a6a6a6"/><stop offset="1" stop-color="#707070"/></linearGradient></defs><g transform="translate(163.35432,-93.03653)"><g data-paper-data="{&quot;isPaintingLayer&quot;:true}" fill-rule="nonzero" stroke-linejoin="miter" stroke-miterlimit="10" stroke-dasharray="" stroke-dashoffset="0" style="mix-blend-mode: normal"><g data-paper-data="{&quot;index&quot;:null}" stroke-linecap="butt"><path d="M-16.64949,352.70726c8.82304,-1.65489 17.31704,4.15603 18.97193,12.97906c1.65486,8.82301 -4.15609,17.31706 -12.97909,18.97192c-8.82301,1.65489 -17.31702,-4.15603 -18.9719,-12.97909c-1.65489,-8.82303 4.15606,-17.31701 12.97906,-18.97187z" data-paper-data="{&quot;index&quot;:null}" fill="url(#color-1)" stroke="none" stroke-width="0"/><g data-paper-data="{&quot;index&quot;:null}"><path d="M-162.03365,426.16868c0,0 35.93973,-33.8667 55.77191,-47.33433c19.29938,-13.10586 63.93919,-29.22871 63.93919,-29.22871l39.77611,55.7703c0,0 -29.53301,34.24645 -48.50853,47.13234c-20.10519,13.65302 -67.79326,34.21112 -67.79326,34.21112z" fill="#696969" stroke="#000000" stroke-width="2"/><path d="M-147.04744,446.04637l116.55639,-79.15109l15.15283,21.24588l-116.55631,79.15106z" fill="url(#color-2)" stroke="none" stroke-width="0"/><path d="M-129.77525,473.89015c-2.82999,-1.74653 -0.81014,-4.56126 -0.81014,-4.56126l2.913,-3.96559c1.63107,-6.45954 0.91209,-12.70656 1.7623,-19.2171c0.56493,-4.32603 2.50189,-8.34378 3.30873,-12.59428c0.88265,-4.64959 0.21443,-9.31 2.92376,-13.71827c6.82452,-11.10395 23.08222,-16.89195 34.53457,-12.93937c6.51407,1.90617 13.41288,2.59407 19.81145,4.68873c1.07766,0.35279 5.70727,2.39401 7.70707,1.94927c3.20831,-0.71344 7.54747,-7.02562 8.8712,-8.9566c7.42751,-10.83456 7.83125,-24.59074 14.85047,-35.77891c0,0 1.85776,-2.90835 4.79674,-1.32277c2.93902,1.5857 1.08133,4.49407 1.08133,4.49407c-7.27469,11.12519 -7.3519,24.92715 -14.92975,35.90034c-2.77943,4.02489 -7.87702,10.82536 -13.35776,12.07586c-5.5427,1.26475 -10.04319,-2.02026 -15.00145,-3.12469c-5.53015,-1.23186 -10.99459,-2.04104 -16.43685,-3.63599c-8.30524,-3.02972 -20.96953,1.40998 -25.95134,9.66417c-2.13186,3.53212 -1.33952,7.70865 -2.05098,11.42983c-0.79416,4.15346 -2.72119,8.10471 -3.26454,12.31974c-0.94069,7.29759 -0.30881,13.94021 -2.35759,21.18318l-3.55036,5.04137c0,0 -2.01991,2.81469 -4.84992,1.06828z" fill="#000000" stroke="none" stroke-width="0.5"/><path d="M-162.03365,426.16868c0,0 35.93973,-33.8667 55.77191,-47.33433c19.29938,-13.10586 63.93919,-29.22871 63.93919,-29.22871l39.77611,55.7703c0,0 -29.53301,34.24645 -48.50853,47.13234c-20.10519,13.65302 -67.79326,34.21112 -67.79326,34.21112z" fill="#0096ff" stroke="#000000" stroke-width="2"/></g><g data-paper-data="{&quot;index&quot;:null}"><path d="M-25.52787,335.76759c0,0 42.96273,-24.34794 65.42876,-32.71275c21.86248,-8.14011 69.05586,-13.18427 69.05586,-13.18427l25.37176,63.6297c0,0 -36.83013,26.24042 -58.32573,34.2439c-22.7753,8.47993 -73.98425,17.10714 -73.98425,17.10714z" fill="#696969" stroke="#000000" stroke-width="2"/><path d="M-15.69883,358.63885l132.0359,-49.16106l9.66544,24.23993l-132.03582,49.16104z" fill="url(#color-3)" stroke="none" stroke-width="0"/><path d="M-5.54398,389.79144c-2.33346,-2.36944 0.29784,-4.62306 0.29784,-4.62306l3.77251,-3.15905c3.12046,-5.88633 3.90776,-12.12506 6.28192,-18.24662c1.57752,-4.06756 4.41443,-7.5094 6.20894,-11.44608c1.96308,-4.30628 2.42235,-8.99188 6.10232,-12.62936c9.26944,-9.16239 26.43719,-10.91795 36.62097,-4.35518c5.87385,3.40064 12.41116,5.70946 18.12802,9.26573c0.96284,0.59895 4.97417,3.6826 7.02238,3.72622c3.28595,0.07003 9.00173,-5.02913 10.74671,-6.58988c9.79105,-8.75729 13.45468,-22.02284 22.93329,-31.22069c0,0 2.49615,-2.3831 4.97369,-0.14405c2.4776,2.23913 -0.01849,4.62229 -0.01849,4.62229c-9.71176,9.07597 -13.06909,22.46358 -23.03917,31.31981c-3.65687,3.24839 -10.22548,8.64149 -15.84636,8.5527c-5.68445,-0.08969 -9.27459,-4.35075 -13.82796,-6.60266c-5.07851,-2.51171 -10.19375,-4.59719 -15.10054,-7.44065c-7.34645,-4.91795 -20.70322,-3.61741 -27.50508,3.2152c-2.91067,2.92379 -3.13433,7.16892 -4.71034,10.61414c-1.75914,3.84542 -4.57058,7.22505 -6.10075,11.18994c-2.64919,6.86452 -3.61518,13.46681 -7.32767,20.01473l-4.64741,4.0524c0,0 -2.63132,2.25357 -4.96483,-0.11578z" fill="#000000" stroke="none" stroke-width="0.5"/><path d="M-25.52787,335.76759c0,0 42.96273,-24.34794 65.42876,-32.71275c21.86248,-8.14011 69.05586,-13.18427 69.05586,-13.18427l25.37176,63.6297c0,0 -36.83013,26.24042 -58.32573,34.2439c-22.7753,8.47993 -73.98425,17.10714 -73.98425,17.10714z" fill="#0096ff" stroke="#000000" stroke-width="2"/></g></g><g data-paper-data="{&quot;index&quot;:null}" stroke-linecap="butt"><path d="M495.58469,353.67251c8.82299,1.65486 14.63393,10.14884 12.97906,18.97187c-1.65488,8.82306 -10.14888,14.63398 -18.97189,12.97909c-8.82299,-1.65486 -14.63394,-10.14891 -12.97909,-18.97192c1.65489,-8.82302 10.14889,-14.63393 18.97193,-12.97906z" data-paper-data="{&quot;index&quot;:null}" fill="url(#color-4)" stroke="none" stroke-width="0"/><g data-paper-data="{&quot;index&quot;:null}"><path d="M597.78341,487.68463c0,0 -47.68807,-20.5581 -67.79326,-34.21112c-18.97553,-12.88588 -48.50853,-47.13234 -48.50853,-47.13234l39.77611,-55.7703c0,0 44.6398,16.12286 63.93919,29.2287c19.83218,13.46762 55.77192,47.33433 55.77192,47.33433z" fill="#696969" stroke="#000000" stroke-width="2"/><path d="M610.82976,468.25745l-116.55631,-79.15106l15.15283,-21.24588l116.55639,79.15109z" fill="url(#color-5)" stroke="none" stroke-width="0"/><path d="M608.71053,474.85541c-2.83001,1.74641 -4.84991,-1.06828 -4.84991,-1.06828l-3.55036,-5.04137c-2.04878,-7.24296 -1.4169,-13.88559 -2.35759,-21.18319c-0.54335,-4.21504 -2.47037,-8.16629 -3.26454,-12.31974c-0.71146,-3.72116 0.08087,-7.8977 -2.05099,-11.42983c-4.98181,-8.25417 -17.64609,-12.69389 -25.95134,-9.66417c-5.44226,1.59496 -10.90669,2.40413 -16.43685,3.636c-4.95827,1.10444 -9.45875,4.38944 -15.00145,3.12469c-5.48074,-1.25049 -10.57834,-8.05097 -13.35776,-12.07586c-7.57785,-10.9732 -7.65505,-24.77516 -14.92976,-35.90034c0,0 -1.85771,-2.90837 1.08132,-4.49407c2.93898,-1.5856 4.79674,1.32277 4.79674,1.32277c7.01922,11.18816 7.42294,24.94436 14.85047,35.77891c1.32373,1.93099 5.66288,8.24317 8.8712,8.9566c1.99981,0.44475 6.6294,-1.59649 7.70707,-1.94927c6.39858,-2.09466 13.29738,-2.78257 19.81145,-4.68873c11.45234,-3.95258 27.71005,1.83543 34.53457,12.93937c2.70933,4.40828 2.04111,9.06868 2.92376,13.71828c0.80685,4.2505 2.7438,8.26823 3.30873,12.59428c0.85019,6.51052 0.13122,12.75755 1.7623,19.21709l2.913,3.96559c0,0 2.01985,2.81474 -0.81014,4.56126z" fill="#000000" stroke="none" stroke-width="0.5"/><path d="M597.78341,487.68463c0,0 -47.68807,-20.5581 -67.79326,-34.21112c-18.97553,-12.88588 -48.50853,-47.13234 -48.50853,-47.13234l39.77611,-55.7703c0,0 44.6398,16.12286 63.93919,29.2287c19.83218,13.46762 55.77192,47.33433 55.77192,47.33433z" fill="#0096ff" stroke="#000000" stroke-width="2"/></g><g data-paper-data="{&quot;index&quot;:null}"><path d="M476.91668,405.81656c0,0 -51.20896,-8.6272 -73.98426,-17.10713c-21.4956,-8.00348 -58.32573,-34.2439 -58.32573,-34.2439l25.37176,-63.6297c0,0 47.19338,5.04415 69.05586,13.18427c22.46603,8.36481 65.42876,32.71275 65.42876,32.71275z" fill="#696969" stroke="#000000" stroke-width="2"/><path d="M484.96851,383.844l-132.03582,-49.16104l9.66544,-24.23993l132.03589,49.16106z" fill="url(#color-6)" stroke="none" stroke-width="0"/><path d="M484.47921,390.75677c-2.33349,2.36934 -4.96483,0.11578 -4.96483,0.11578l-4.64742,-4.05241c-3.71249,-6.54794 -4.67847,-13.15024 -7.32766,-20.01474c-1.53016,-3.9649 -4.34161,-7.34451 -6.10075,-11.18994c-1.57603,-3.44521 -1.79968,-7.69035 -4.71034,-10.61415c-6.80185,-6.83261 -20.15865,-8.13315 -27.5051,-3.2152c-4.9068,2.84346 -10.02203,4.92895 -15.10054,7.44065c-4.55336,2.25191 -8.14353,6.51297 -13.82796,6.60266c-5.6209,0.08879 -12.1895,-5.3043 -15.84636,-8.5527c-9.97008,-8.85622 -13.32741,-22.24382 -23.03917,-31.3198c0,0 -2.49608,-2.38315 -0.01848,-4.62229c2.47756,-2.23904 4.97369,0.14405 4.97369,0.14405c9.4786,9.19786 13.14221,22.46339 22.93329,31.22069c1.74499,1.56076 7.46079,6.65991 10.74672,6.58988c2.04821,-0.04361 6.05953,-3.12728 7.02238,-3.72622c5.71686,-3.55627 12.25415,-5.86507 18.12801,-9.26572c10.1838,-6.56277 27.35154,-4.80721 36.62098,4.35518c3.67998,3.63747 4.13926,8.32308 6.10232,12.62936c1.79451,3.93667 4.63142,7.37851 6.20894,11.44607c2.37414,6.12156 3.16145,12.36029 6.28192,18.24663l3.77251,3.15905c0,0 2.63131,2.25362 0.29784,4.62306z" fill="#000000" stroke="none" stroke-width="0.5"/><path d="M476.91668,405.81656c0,0 -51.20896,-8.6272 -73.98426,-17.10713c-21.4956,-8.00348 -58.32573,-34.2439 -58.32573,-34.2439l25.37176,-63.6297c0,0 47.19338,5.04415 69.05586,13.18427c22.46603,8.36481 65.42876,32.71275 65.42876,32.71275z" fill="#0096ff" stroke="#000000" stroke-width="2"/></g></g><path d="M241.65387,262.6346c52.68222,1.14071 167.1849,78.39958 167.1849,175.11038c0,31.53139 -7.95662,61.11626 -21.88188,86.67208c-28.78511,52.82724 -260.45182,53.71884 -289.50606,1.98835c-14.60537,-26.00458 -22.98191,-56.30791 -22.98191,-88.66043c0,-96.7108 104.97332,-176.45743 167.18494,-175.11037z" fill="#696969" stroke="#000000" stroke-width="2" stroke-linecap="butt"/><path d="M129.40526,324.54033v-15.52882h219.45314v15.52882z" fill="url(#color-7)" stroke="none" stroke-width="0" stroke-linecap="butt"/><path d="M230.89593,388.5428l66.314,-73.77243l12.53812,7.44763l-66.314,73.77243z" fill="url(#color-8)" stroke="none" stroke-width="0" stroke-linecap="butt"/><path d="M235.83421,397.19271l-66.314,-73.77243l12.53812,-7.44763l66.31404,73.77246z" data-paper-data="{&quot;index&quot;:null}" fill="url(#color-9)" stroke="none" stroke-width="0" stroke-linecap="butt"/><path d="M230.02106,562.9544v-182.5077h18.48667v182.5077z" fill="url(#color-10)" stroke="none" stroke-width="0" stroke-linecap="butt"/><path d="M264.08613,383.44879c0.76243,-2.72037 4.61855,-2.18254 4.61855,-2.18254l3.01142,0.48741c1.46988,0.46443 2.93964,0.92883 4.40953,1.39328c7.59416,4.31532 14.93315,10.02403 21.68326,15.5425c2.76367,-0.96766 5.20529,-2.4189 7.12661,-4.52855c4.49229,-4.93287 -0.36933,-10.36311 -1.42235,-15.32447c-1.28285,-6.04424 1.07731,-12.27547 0.00067,-18.34576c-1.56854,-8.84372 -11.09177,-17.98268 -19.03765,-24.60694c-7.58488,-6.42827 -21.81095,-7.46265 -27.82938,-14.42424c-5.07354,-5.86861 -1.97928,-13.11163 -5.25854,-19.18268c-0.51676,2.61327 -1.73017,5.11377 -3.88403,7.43249c-5.3142,5.72107 -16.52182,11.3266 -24.6186,14.80901c-5.25764,2.26128 -14.98934,4.09311 -19.08958,7.47497c-3.15421,2.60149 -3.79621,6.30155 -5.77533,9.42716c-7.77539,12.27955 -20.45054,26.2989 -1.035,36.02617c4.36329,2.18604 8.12089,3.53799 13.50675,3.46106h1.75423c0,0 3.93084,0 3.93084,2.77299c0,2.77299 -3.93084,2.773 -3.93084,2.773h-1.75423c-14.14321,-0.14481 -34.19307,-10.27928 -32.85481,-21.70851c1.0069,-8.59943 8.29348,-17.82985 13.205,-25.58666c0.56837,-0.89767 6.53083,-10.40293 7.0501,-10.82792c4.81261,-3.93873 14.75546,-5.91409 20.90563,-8.54986c7.19934,-3.08541 17.43894,-8.1401 22.21889,-13.2045c4.58635,-4.85938 3.29003,-11.53016 0.31825,-18.20696c-5.20763,-5.82512 -11.55034,-11.1517 -19.11654,-14.98579c0,0 -3.18261,-1.62753 -0.8755,-3.87264c2.30701,-2.24515 5.48962,-0.61766 5.48962,-0.61766c1.98938,1.02559 3.91346,2.14245 5.76917,3.33654c-0.31502,-0.61648 -0.60397,-1.21229 -0.86048,-1.7846c0,0 -1.18487,-2.64407 2.56311,-3.47991c3.74799,-0.83587 4.93284,1.80817 4.93284,1.80817c2.19072,4.88849 5.75011,10.52602 8.50348,16.2976c4.3034,4.69982 7.88482,9.71616 10.66189,14.64661c3.3869,6.01329 0.42732,13.25151 5.04699,18.96254c2.75321,3.40362 10.36894,4.22653 14.75252,6.00688c4.72596,1.9194 8.74719,4.69403 12.2844,7.62197c8.96549,7.52813 19.01899,17.49191 20.82268,27.46518c1.09876,6.07564 -1.30608,12.33326 0.0006,18.35285c1.44517,6.65757 6.27136,12.31209 0.33192,18.92759c-2.38904,2.66102 -5.32996,4.57599 -8.63276,5.92284c0.12555,0.10383 0.25081,0.20743 0.37574,0.3108c4.83465,3.99772 7.87667,8.23571 14.4043,11.05308c20.32697,8.77325 23.59242,-14.24284 20.92855,-22.86018c-11.53877,-22.43853 -26.47179,-46.03222 -8.44371,-69.37572c2.57974,-3.34037 6.20966,-5.94427 10.01322,-8.46597c0.22105,1.38365 1.88546,2.45898 3.9059,2.45898c0.23353,0 0.46233,-0.01436 0.68463,-0.04189c0.32053,0.446 0.80677,0.82258 1.4017,1.08949c-3.50659,2.2819 -6.84791,4.65572 -9.1047,7.61622c-16.75728,21.98287 -1.62232,44.17547 9.09813,65.18585c1.70213,5.56656 3.33302,12.21902 0.8416,17.82387c-4.75376,10.69414 -18.83194,17.41702 -33.41596,11.30557c-7.3938,-3.09838 -10.91275,-7.72563 -16.29417,-12.18934c-0.70984,-0.58883 -1.42964,-1.18837 -2.15862,-1.79556c-8.83194,1.44509 -18.91182,0.43728 -27.71829,-0.66147c-1.66471,-0.31563 -3.32936,-0.63132 -4.99408,-0.94696l0.14617,0.09561c0,0 -3.93081,0 -3.93081,-2.77304c0,-2.77299 3.93081,-2.77299 3.93081,-2.77299l1.90027,0.09558c1.55126,0.29597 3.10262,0.59198 4.6539,0.88797c6.09304,0.75236 13.44383,1.72069 20.18255,1.25814c-5.50112,-4.4738 -11.37716,-8.9563 -17.3782,-12.39103c-1.16151,-0.35108 -2.32292,-0.70218 -3.4843,-1.05326l-1.37399,-0.12427c0,0 -3.85615,-0.53785 -3.09383,-3.25815z" fill="#000000" stroke="none" stroke-width="0.5" stroke-linecap="butt"/><path d="M227.56217,395.7599c2.17029,2.48595 -2.22091,3.71461 -2.22091,3.71461l-3.09871,0.70941c-7.86639,4.32967 -12.50387,10.19145 -18.21854,15.52158c-20.87438,19.26242 -68.01148,16.93585 -85.78005,-3.09418c-9.98022,-11.25045 -0.19608,-28.66304 11.16128,-38.20502c16.93574,-16.20931 18.64101,-30.01121 10.34087,-47.95475c-2.11136,-4.56447 -6.62545,-11.58601 -14.28966,-14.96432c1.27923,-0.52976 1.84086,-1.32459 1.84086,-1.32459c0.79277,-1.16427 1.79229,-2.30554 3.03599,-3.34355c7.46642,3.06951 12.41001,8.21775 15.95801,13.29457c14.03806,20.08694 10.55311,38.8392 -8.60267,57.25384c-9.80062,8.21933 -16.31612,20.42617 -12.50816,30.56348c1.06189,2.82692 5.11873,5.06813 8.53111,6.96401c6.05243,3.36254 12.4089,7.6651 21.21361,8.75818c17.39441,2.15954 32.19537,-2.77119 40.72424,-10.82517c6.2129,-5.7946 11.25839,-11.79505 19.70608,-16.58814l5.64512,-1.73709c0,0 4.3912,-1.22867 6.56153,1.25729z" fill="#000000" stroke="none" stroke-width="0.5" stroke-linecap="butt"/><path d="M243.28145,384.74537c2.773,0 2.773,3.81353 2.773,3.81353l-0.14536,2.90088c-2.02565,8.23432 -2.76677,17.2334 -5.37124,25.19955c-1.43044,4.37512 -5.70305,10.35694 -5.317,15.82093c0.39722,5.62286 4.49518,10.6476 7.02851,14.51209c5.71512,8.71819 12.64276,15.47744 18.52867,24.05029c1.16811,4.06648 2.88956,8.14599 2.25188,12.79354c-2.29786,16.74783 -20.25557,26.24383 -29.6188,34.38188c-2.7278,2.37087 -6.59247,2.96294 -8.38542,6.65269c-0.53207,1.09493 0.31416,2.60236 0.56187,3.87449c1.29668,6.65969 2.77139,11.82746 5.57956,17.54417c2.7631,5.62496 5.19733,9.07297 9.30897,12.78406c0,0 2.31546,2.09841 0.78959,5.28273c-1.52589,3.18431 -3.84132,1.08584 -3.84132,1.08584c-4.69277,-4.26843 -7.70113,-8.45566 -10.85417,-14.88584c-2.82348,-5.75804 -9.50354,-21.4646 -6.4893,-29.13906c0.47949,-1.22077 9.04362,-8.4959 10.36734,-9.64637c8.94687,-7.77614 30.66735,-18.48 25.65556,-36.62318c-8.11495,-11.36545 -25.27296,-24.49853 -26.41797,-42.18859c-0.47823,-7.3885 3.81246,-13.40647 5.82052,-19.50766c2.52391,-7.66866 3.20317,-16.47518 5.14756,-24.42864l-0.14537,-0.46381c0,0 0,-3.81351 2.773,-3.81351z" fill="#000000" stroke="none" stroke-width="0.5" stroke-linecap="butt"/><g><path d="M196.57907,421.8799v-75.42562h78.56835v75.42562z" fill="#323232" stroke="none" stroke-width="0" stroke-linecap="butt"/><g stroke="#000000"><path d="M235.56865,351.78167c16.78507,0 30.39209,13.60702 30.39209,30.39212c0,16.78507 -13.60704,30.39209 -30.39209,30.39209c-16.78507,0 -30.39209,-13.60704 -30.39209,-30.39209c0,-16.78507 13.60704,-30.39212 30.39209,-30.39212z" fill="#878787" stroke-width="1" stroke-linecap="butt"/><path d="M212.33166,363.74122l46.90334,-0.31694" fill="none" stroke-width="1.5" stroke-linecap="round"/><path d="M208.52872,371.66408l54.82618,0.31691" fill="none" stroke-width="1.5" stroke-linecap="round"/><path d="M205.67643,378.31909l58.62918,1.26768" fill="none" stroke-width="1.5" stroke-linecap="round"/><path d="M205.80851,385.13269l59.5799,0.63382" fill="none" stroke-width="1.5" stroke-linecap="round"/><path d="M249.80072,356.45463l-27.30341,-0.34131" fill="none" stroke-width="1.5" stroke-linecap="round"/><path d="M211.96195,400.79827l46.9033,0.31693" data-paper-data="{&quot;index&quot;:null}" fill="none" stroke-width="1.5" stroke-linecap="round"/><path d="M208.15896,392.87541l54.82617,-0.31691" data-paper-data="{&quot;index&quot;:null}" fill="none" stroke-width="1.5" stroke-linecap="round"/><path d="M222.12756,408.42615l27.30341,-0.34126" data-paper-data="{&quot;index&quot;:null}" fill="none" stroke-width="1.5" stroke-linecap="round"/></g></g><path d="M364.67148,317.0506c0,8.97693 -7.27719,16.25409 -16.25403,16.25409c-8.97686,0 -16.25409,-7.27722 -16.25409,-16.25409c0,-8.97689 7.27719,-16.25403 16.25409,-16.25403c8.97686,0 16.25403,7.27717 16.25403,16.25403z" fill="url(#color-11)" stroke="none" stroke-width="0" stroke-linecap="butt"/><path d="M149.1192,317.0506c0,8.97693 -7.27721,16.25409 -16.25403,16.25409c-8.97686,0 -16.25409,-7.27722 -16.25409,-16.25409c0,-8.97689 7.27721,-16.25403 16.25409,-16.25403c8.97686,0 16.25403,7.27717 16.25403,16.25403z" fill="url(#color-12)" stroke="none" stroke-width="0" stroke-linecap="butt"/><path d="M244.95313,261.53484c0.12877,0.00165 0.85444,39.41755 1.6546,89.76738c-3.46661,-1.23726 -7.20085,-1.91107 -11.09251,-1.91107c-18.22133,0 -32.99269,14.77136 -32.99269,32.99269c0,18.22135 14.77137,32.99269 32.99269,32.99269c4.24345,0 8.29979,-0.80112 12.02601,-2.26036c1.07599,75.31195 1.90783,150.42431 1.12014,150.37798c-66.04246,-3.88609 -133.15687,-11.91858 -147.91123,-38.18852c-14.60537,-26.00458 -22.98191,-56.30791 -22.98191,-88.66041c0,-96.71081 104.97332,-176.45744 167.18494,-175.11038z" fill="#0096ff" stroke="#000000" stroke-width="2" stroke-linecap="butt"/><path d="M404.60698,437.74497c0,32.35255 -8.37654,62.65583 -22.98191,88.66043c-14.75437,26.26991 -81.86874,34.30241 -147.91123,38.18847c-0.78368,0.04609 0.0357,-74.30106 1.10365,-149.22457c0.23197,0.00481 0.46458,0.00723 0.69774,0.00723c18.22135,0 32.99269,-14.77137 32.99269,-32.99269c0,-18.12121 -14.6094,-32.83019 -32.69253,-32.99134c0.781,-48.90213 1.48047,-86.75627 1.60664,-86.7579c62.21165,-1.34707 167.18498,78.39958 167.18498,175.11038z" data-paper-data="{&quot;index&quot;:null}" fill="#0096ff" stroke="#000000" stroke-width="2" stroke-linecap="butt"/><path d="M242.84819,143.95175c52.86336,3.65269 93.25291,42.28437 90.21252,86.28627c-3.04038,44.0019 -48.35933,76.71139 -101.22273,73.05868c-52.86339,-3.65271 -93.25292,-42.28436 -90.21253,-86.28626c3.04038,-44.0019 48.35934,-76.71139 101.22275,-73.05869z" fill="#696969" stroke="#000000" stroke-width="2" stroke-linecap="butt"/><path d="M242.81054,156.44392c45.83531,3.16708 80.92683,35.62514 78.37909,72.49707c-2.54773,36.87195 -41.76995,64.19515 -87.60527,61.02807c-45.83531,-3.16708 -80.92679,-35.62515 -78.37907,-72.49707c2.54774,-36.87196 41.76991,-64.19516 87.6052,-61.02809z" fill="none" stroke="url(#color-13)" stroke-width="4.5" stroke-linecap="butt"/><g stroke="none" stroke-width="0" stroke-linecap="butt"><path d="M209.09244,248.47317l4.74052,-68.60685l65.28716,4.51114l-4.74052,68.60685z" fill="url(#color-14)"/><path d="M267.04033,206.33544l1.37628,-19.9181l7.7459,0.53522l-1.37628,19.9181z" fill="#ffffff"/><path d="M265.47291,229.02014l1.37628,-19.9181l7.7459,0.53522l-1.37628,19.9181z" fill="#ffffff"/><path d="M263.94371,251.1514l1.37628,-19.9181l7.7459,0.53522l-1.37628,19.9181z" fill="#ffffff"/><path d="M215.62344,202.22672l1.37628,-19.9181l7.74595,0.53521l-1.37628,19.9181z" fill="#ffffff"/><path d="M214.05598,224.91148l1.37628,-19.9181l7.74595,0.53521l-1.37628,19.9181z" fill="#ffffff"/><path d="M212.52679,247.04271l1.37627,-19.91811l7.74595,0.53521l-1.37627,19.91811z" fill="#ffffff"/><path d="M243.66439,249.63897l0.45877,-6.63939l14.93856,1.0322l-0.45877,6.63939z" fill="#ffffff"/><path d="M226.44654,248.33809l0.45877,-6.63939l14.9386,1.03221l-0.45877,6.63939z" fill="#ffffff"/></g><path d="M145.59078,189.75753c17.39477,-40.53188 70.97074,-56.44833 119.66529,-35.55043c25.44511,10.92011 -71.61772,-16.2677 -102.31307,52.09018c-26.88995,57.29954 48.72753,75.31447 42.93591,75.62885c4.66093,6.68414 -0.49511,18.7894 -6.76907,16.09686c-48.69454,-20.8979 -70.91383,-67.73348 -53.51904,-108.26535z" fill="#0096ff" stroke="#000000" stroke-width="2" stroke-linecap="butt"/><path d="M337.35085,196.57768c15.14049,41.42677 -9.61975,86.97021 -59.38936,105.15979c-6.41247,2.34359 -10.89532,-10.02675 -5.87398,-16.44456c6.4959,-0.72259 66.064,-22.4188 47.02826,-73.15439c-26.8913,-69.94179 -125.30198,-48.13052 -99.29505,-57.63543c49.76965,-18.18959 102.38967,0.64783 117.53017,42.07461z" data-paper-data="{&quot;index&quot;:null}" fill="#0096ff" stroke="#000000" stroke-width="2" stroke-linecap="butt"/><path d="M251.05196,98.44009c64.60797,4.4642 114.62677,42.18486 111.72011,84.25144c-2.90667,42.06658 -24.83782,75.27164 -122.24608,68.08515c-102.89277,-7.59112 -114.62674,-42.18484 -111.72006,-84.25147c2.90667,-42.06658 57.63807,-72.54931 122.24604,-68.0851z" fill="#696969" stroke="#000000" stroke-width="2" stroke-linecap="butt"/><path d="M215.15102,204.42401l4.93166,-71.37327l57.54124,3.97592l-4.93166,71.37327z" fill="url(#color-15)" stroke="none" stroke-width="0" stroke-linecap="butt"/><path d="M212.93134,202.9535l-16.06774,-80.5687l13.63567,-2.09236l16.06775,80.56873z" fill="url(#color-16)" stroke="none" stroke-width="0" stroke-linecap="butt"/><path d="M261.13451,205.96835l27.10576,-79.17831l13.21413,4.00845l-27.10581,79.17835z" data-paper-data="{&quot;index&quot;:null}" fill="url(#color-17)" stroke="none" stroke-width="0" stroke-linecap="butt"/><path d="M198.83824,207.1883l1.41451,-20.4714l90.18481,6.23149l-1.41451,20.4714z" fill="url(#color-18)" stroke="none" stroke-width="0" stroke-linecap="butt"/><path d="M184.8687,211.61726c-2.68243,0.70279 -3.38527,-1.97968 -3.38527,-1.97968l-0.21102,-0.96236c-1.23638,-2.72662 -2.29795,-6.484 -4.25235,-8.83917c-0.75467,-0.90936 -3.81046,-2.52459 -4.42982,-3.08114c-8.51388,-7.65062 -22.31402,-21.31835 -12.74375,-32.91482c3.66858,-0.92006 14.977,-1.39734 16.35447,-6.49999c1.95552,-7.24384 -2.81808,-13.55611 1.12841,-21.0249c4.57085,-8.65047 15.53758,-12.65107 23.96635,-16.67368c0,0 2.50271,-1.1942 3.69688,1.30854c1.19418,2.50272 -1.30851,3.69685 -1.30851,3.69685c-7.10268,3.3883 -17.57331,6.90131 -21.42888,14.21675c-4.79165,9.09145 4.82582,20.09187 -6.60925,26.53202c-1.20966,0.68127 -2.58734,1.02298 -3.92676,1.38803c-1.97963,0.5396 -6.70374,1.36542 -8.96219,1.7773c-2.25088,2.87328 0.23881,7.84675 1.66853,10.70514c3.76627,7.52951 11.64251,10.82102 16.76683,16.91618c2.38609,2.83823 3.62145,6.87463 5.13086,10.20224l0.52512,1.84747c0,0 0.70277,2.68246 -1.97968,3.38527z" fill="#000000" stroke="none" stroke-width="0.5" stroke-linecap="butt"/><path d="M163.77875,219.0632c-2.75982,-0.27016 -2.48962,-3.02994 -2.48962,-3.02994l0.1355,-0.97589c-0.21506,-2.9861 0.09107,-6.87858 -0.92629,-9.76496c-0.39283,-1.1145 -2.69969,-3.68847 -3.08782,-4.42521c-5.33566,-10.12663 -13.54525,-27.72925 -0.54976,-35.29144c3.76016,0.40802 14.53339,3.8786 17.59352,-0.43071c4.34428,-6.11753 2.05355,-13.69276 8.34337,-19.33152c7.28502,-6.53087 18.95856,-6.48389 28.25902,-7.33679c0,0 2.76146,-0.25307 3.01446,2.50837c0.25304,2.76146 -2.50841,3.01443 -2.50841,3.01443c-7.83669,0.71743 -18.87594,0.38492 -25.02738,5.91126c-7.64487,6.86804 -2.43471,20.51937 -15.39282,22.59846c-1.3708,0.21991 -2.78151,0.06312 -4.16441,-0.05855c-2.04396,-0.17976 -6.76152,-1.04194 -9.0228,-1.43806c-3.10696,1.91541 -2.49487,7.44338 -2.14403,10.62013c0.9241,8.36806 7.17197,14.1847 9.86698,21.67782c1.25493,3.48913 1.01516,7.70352 1.27811,11.34799l-0.14751,1.91498c0,0 -0.27015,2.75977 -3.03002,2.48957z" fill="#000000" stroke="none" stroke-width="0.5" stroke-linecap="butt"/><path d="M296.22738,213.56599l0.77429,-1.75772c1.95275,-3.08836 3.7315,-6.91652 6.4853,-9.39959c5.91393,-5.33244 14.16797,-7.5094 18.93406,-14.44936c1.80932,-2.63453 4.9593,-7.21839 3.12504,-10.37391c-2.18032,-0.71859 -6.74595,-2.1863 -8.63257,-2.99303c-1.27649,-0.54579 -2.59407,-1.07377 -3.6985,-1.9149c-10.44061,-7.95167 0.5984,-17.52481 -2.8973,-27.18883c-2.8128,-7.77616 -12.70076,-12.69599 -19.26987,-17.02893c0,0 -2.31469,-1.527 -0.78768,-3.84169c1.52704,-2.31469 3.84172,-0.78764 3.84172,-0.78764c7.7954,5.1436 18.10769,10.61454 21.44537,19.81147c2.88173,7.94057 -2.71462,13.53638 -1.77399,20.98033c0.6626,5.24362 11.79785,7.27161 15.30501,8.68753c7.8844,12.80256 -7.66439,24.4424 -17.14962,30.84927c-0.69003,0.46611 -3.93898,1.64568 -4.81149,2.44259c-2.25974,2.06398 -3.82801,5.63966 -5.42763,8.17031l-0.34137,0.92421c0,0 -1.06505,2.56033 -3.62536,1.49527c-2.56031,-1.06507 -1.49526,-3.62539 -1.49526,-3.62539z" data-paper-data="{&quot;index&quot;:null}" fill="#000000" stroke="none" stroke-width="0.5" stroke-linecap="butt"/><path d="M314.92929,224.58454l0.11729,-1.91707c0.76171,-3.57367 1.10388,-7.78103 2.82675,-11.06434c3.69994,-7.05122 10.68843,-11.95327 12.75466,-20.11472c0.78438,-3.0983 2.151,-8.4896 -0.66301,-10.8141c-2.29426,0.08141 -7.08557,0.28648 -9.13484,0.18348c-1.38652,-0.06971 -2.80538,-0.10841 -4.13286,-0.51476c-12.54903,-3.84158 -5.51078,-16.6466 -12.13841,-24.50079c-5.33285,-6.31993 -16.313,-7.50882 -23.97649,-9.29728c0,0 -2.7004,-0.63037 -2.06997,-3.33079c0.63044,-2.7004 3.33085,-2.06998 3.33085,-2.06998c9.0947,2.12394 20.66378,3.68293 26.98133,11.15372c5.45451,6.45026 2.14368,13.63848 5.60528,20.29535c2.4384,4.6892 13.58659,2.73333 17.36712,2.84639c11.8319,9.27766 1.27935,25.58392 -5.39843,34.88047c-0.4858,0.6763 -3.12475,2.90857 -3.66714,3.95848c-1.40467,2.71903 -1.6368,6.61661 -2.26053,9.54474l-0.00006,0.98523c0,0 -0.11193,2.77074 -2.88267,2.65877c-2.77077,-0.11198 -2.65877,-2.88266 -2.65877,-2.88266z" data-paper-data="{&quot;index&quot;:null}" fill="#000000" stroke="none" stroke-width="0.5" stroke-linecap="butt"/><path d="M145.60451,221.32817l1.37824,-19.9466l191.98853,13.2658l-1.37824,19.9466c0,0 -34.13831,20.33883 -95.64661,15.59959c-67.71383,-5.21737 -96.3419,-28.86539 -96.3419,-28.86539z" fill="url(#color-19)" stroke="none" stroke-width="0" stroke-linecap="butt"/><path d="M207.78047,158.22812l2.56141,-37.06984l79.11918,5.4669l-2.56141,37.06984z" fill="url(#color-20)" stroke="#000000" stroke-width="0" stroke-linecap="butt"/><path d="M216.29199,118.68123c12.38481,0.85575 21.75199,11.28515 20.92216,23.29462c-0.82981,12.0095 -11.5424,21.05143 -23.9272,20.19566c-12.38481,-0.85575 -21.75199,-11.28511 -20.92215,-23.29461c0.82981,-12.0095 11.54238,-21.05142 23.92719,-20.19567z" fill="#ffffff" stroke="#000000" stroke-width="2" stroke-linecap="butt"/><path d="M189.71122,137.50709c0.94204,-13.63354 12.82478,-23.98028 26.45831,-23.03825c13.63354,0.94204 23.98028,12.82478 23.03826,26.4583c-0.94204,13.63354 -12.82478,23.98028 -26.45829,23.03826c-13.63354,-0.94204 -23.98028,-12.82478 -23.03826,-26.4583z" data-paper-data="{&quot;noHover&quot;:false,&quot;origItem&quot;:[&quot;Path&quot;,{&quot;applyMatrix&quot;:true,&quot;segments&quot;:[[[384.72744,349.27406],[-21.77325,0],[21.77325,0]],[[424.15135,309.85014],[0,21.77325],[0,-21.77325]],[[384.72744,270.42623],[21.77325,0],[-21.77325,0]],[[345.30352,309.85014],[0,-21.77325],[0,21.77325]]],&quot;closed&quot;:true,&quot;fillColor&quot;:[0,0,0,1]}]}" fill="#000000" stroke="none" stroke-width="0.5" stroke-linecap="butt"/><path d="M223.29195,255.97373c-91.11349,-0.45138 -110.38874,-32.35037 -111.59355,-67.84975c14.65579,5.48959 31.43947,5.84792 46.84646,7.82047c8.86057,0.87248 54.42406,3.48179 68.3639,5.41796c0,0 1.05203,0.14223 1.8924,-0.33984c-2.21083,29.61265 -4.53315,54.95596 -5.50914,54.95117z" fill="#0096ff" stroke="#000000" stroke-width="2" stroke-linecap="butt"/><path d="M280.08849,122.46021c12.38481,0.85575 21.75198,11.28515 20.92215,23.29461c-0.82981,12.0095 -11.54242,21.05142 -23.92719,20.19567c-12.38481,-0.85575 -21.75199,-11.28511 -20.92215,-23.29461c0.82981,-12.0095 11.54238,-21.05142 23.92719,-20.19567z" fill="#ffffff" stroke="#000000" stroke-width="2" stroke-linecap="butt"/><path d="M276.80744,169.21847c-13.6335,-0.94202 -23.98028,-12.82482 -23.03826,-26.4583c0.94202,-13.6335 12.82482,-23.98028 26.4583,-23.03826c13.6335,0.94202 23.98028,12.82482 23.03826,26.4583c-0.94202,13.6335 -12.82482,23.98028 -26.45829,23.03826z" data-paper-data="{&quot;noHover&quot;:false,&quot;origItem&quot;:[&quot;Path&quot;,{&quot;applyMatrix&quot;:true,&quot;segments&quot;:[[[526.54509,311.16443],[0,21.7732],[0,-21.7732]],[[487.12118,271.74051],[21.7732,0],[-21.7732,0]],[[447.69726,311.16443],[0,-21.7732],[0,21.7732]],[[487.12118,350.58835],[-21.7732,0],[21.7732,0]]],&quot;closed&quot;:true,&quot;fillColor&quot;:[0,0,0,1]}]}" fill="#000000" stroke="none" stroke-width="0.5" stroke-linecap="butt"/><path d="M252.51568,259.35126c-0.96738,-0.12946 0.21801,-25.55135 2.10102,-55.18665c0.7661,0.59309 1.82768,0.59687 1.82768,0.59687c14.07365,-0.00054 59.56302,3.68164 68.45939,4.0361c15.53185,0.16518 32.20537,2.11866 47.47686,-1.30303c-6.07583,34.99631 -29.5552,63.94105 -119.86489,51.85669z" data-paper-data="{&quot;index&quot;:null}" fill="#0096ff" stroke="#000000" stroke-width="2" stroke-linecap="butt"/><path d="M284.66703,145.42083c-0.23895,3.45818 -3.09589,6.07757 -6.38116,5.85058c-3.28528,-0.22701 -5.75481,-3.21442 -5.51585,-6.6726c0.23895,-3.45818 3.09589,-6.07757 6.38116,-5.85058c3.28528,0.22701 5.75481,3.21442 5.51585,6.6726z" fill="#000000" stroke="#ff0000" stroke-width="1" stroke-linecap="butt"/><path d="M221.46817,140.42481c-0.23895,3.45818 -3.09589,6.07757 -6.38116,5.85058c-3.28528,-0.22701 -5.75481,-3.21442 -5.51585,-6.6726c0.23895,-3.45818 3.09589,-6.07757 6.38116,-5.85058c3.28528,0.22701 5.75481,3.21442 5.51585,6.6726z" fill="#000000" stroke="#ff0000" stroke-width="1" stroke-linecap="butt"/><path d="M260.55304,95.14789c63.84953,4.4118 113.35544,40.61448 110.57452,80.86099c-0.19854,2.87344 -0.46893,5.73618 -0.83664,8.57027c-15.18608,4.05781 -32.25016,1.83699 -47.84146,1.66382c-8.65177,-0.34455 -53.88973,-3.89968 -68.14426,-4.01134c0,0 -0.81558,-0.00284 -1.51471,0.39383c2.62592,-40.6269 6.4411,-87.56887 7.76251,-87.47758zM312.13495,140.53475c0.94202,-13.6335 -9.34647,-25.44933 -22.97995,-26.39136c-13.6335,-0.94202 -25.44933,9.34647 -26.39138,22.97998c-0.94202,13.6335 9.34647,25.44933 22.97998,26.39138c13.6335,0.94202 25.44932,-9.34647 26.39136,-22.97997z" data-paper-data="{&quot;index&quot;:null}" fill="#0096ff" stroke="#000000" stroke-width="2" stroke-linecap="butt"/><path d="M239.58659,94.47936c1.32141,0.0913 -1.35595,47.11195 -4.34266,87.71389c-0.63794,-0.48907 -1.44618,-0.59841 -1.44618,-0.59841c-14.13442,-1.84991 -59.43146,-4.55051 -68.04837,-5.39914c-15.4669,-1.97288 -32.67431,-2.12012 -47.15794,-8.22798c0.02559,-2.85775 0.1515,-5.73045 0.35005,-8.60389c2.78089,-40.24649 56.79554,-69.29623 120.64508,-64.88444zM205.23227,158.73172c13.63354,0.94204 25.44933,-9.34643 26.39136,-22.97997c0.94204,-13.63353 -9.34643,-25.44933 -22.97995,-26.39135c-13.63354,-0.94204 -25.44934,9.34644 -26.39136,22.97995c-0.94204,13.63354 9.34644,25.44934 22.97998,26.39138z" fill="#0096ff" stroke="#000000" stroke-width="2" stroke-linecap="butt"/></g></g></svg>