<svg version="1.1" xmlns="http://www.w3.org/2000/svg" xmlns:xlink="http://www.w3.org/1999/xlink" width="601.0692" height="650.12062" viewBox="0,0,601.0692,650.12062"><defs><linearGradient x1="164.46019" y1="235.81022" x2="151.88602" y2="246.7585" gradientUnits="userSpaceOnUse" id="color-1"><stop offset="0" stop-color="#5c5c5c"/><stop offset="1" stop-color="#9b9b9b"/></linearGradient><linearGradient x1="95.15816" y1="164.56371" x2="116.53331" y2="189.11314" gradientUnits="userSpaceOnUse" id="color-2"><stop offset="0" stop-color="#5c5c5c"/><stop offset="1" stop-color="#9b9b9b"/></linearGradient><linearGradient x1="-65.88329" y1="396.99804" x2="-105.60654" y2="388.47455" gradientUnits="userSpaceOnUse" id="color-3"><stop offset="0" stop-color="#5c5c5c"/><stop offset="1" stop-color="#9b9b9b"/></linearGradient><linearGradient x1="203.68255" y1="295.34978" x2="226.6017" y2="321.67252" gradientUnits="userSpaceOnUse" id="color-4"><stop offset="0" stop-color="#5c5c5c"/><stop offset="1" stop-color="#9b9b9b"/></linearGradient><linearGradient x1="-17.89556" y1="448.51596" x2="-14.91832" y2="489.03413" gradientUnits="userSpaceOnUse" id="color-5"><stop offset="0" stop-color="#5c5c5c"/><stop offset="1" stop-color="#9b9b9b"/></linearGradient><linearGradient x1="145.92356" y1="294.08137" x2="147.34488" y2="310.69312" gradientUnits="userSpaceOnUse" id="color-6"><stop offset="0" stop-color="#5c5c5c"/><stop offset="1" stop-color="#9b9b9b"/></linearGradient><linearGradient x1="110.29417" y1="255.57892" x2="94.03584" y2="251.88577" gradientUnits="userSpaceOnUse" id="color-7"><stop offset="0" stop-color="#5c5c5c"/><stop offset="1" stop-color="#9b9b9b"/></linearGradient><linearGradient x1="35.94312" y1="341.3935" x2="48.97675" y2="356.36265" gradientUnits="userSpaceOnUse" id="color-8"><stop offset="0" stop-color="#5c5c5c"/><stop offset="1" stop-color="#9b9b9b"/></linearGradient><linearGradient x1="133.8771" y1="173.79496" x2="305.67301" y2="222.74661" gradientUnits="userSpaceOnUse" id="color-9"><stop offset="0" stop-color="#6c6c6c"/><stop offset="1" stop-color="#c4c4c4"/></linearGradient><linearGradient x1="196.3128" y1="163.87363" x2="263.88584" y2="183.12793" gradientUnits="userSpaceOnUse" id="color-10"><stop offset="0" stop-color="#6e6e6e"/><stop offset="1" stop-color="#c0c0c0"/></linearGradient><linearGradient x1="260.4004" y1="64.81938" x2="249.46783" y2="103.18723" gradientUnits="userSpaceOnUse" id="color-11"><stop offset="0" stop-color="#a6a6a6"/><stop offset="1" stop-color="#707070"/></linearGradient><linearGradient x1="253.18093" y1="89.06975" x2="232.13171" y2="162.94198" gradientUnits="userSpaceOnUse" id="color-12"><stop offset="0" stop-color="#a6a6a6"/><stop offset="1" stop-color="#707070"/></linearGradient><linearGradient x1="211.16174" y1="56.27588" x2="207.78776" y2="152.67935" gradientUnits="userSpaceOnUse" id="color-13"><stop offset="0" stop-color="#a6a6a6"/><stop offset="1" stop-color="#707070"/></linearGradient><linearGradient x1="304.78597" y1="86.04913" x2="256.84028" y2="169.75216" gradientUnits="userSpaceOnUse" id="color-14"><stop offset="0" stop-color="#a6a6a6"/><stop offset="1" stop-color="#707070"/></linearGradient><linearGradient x1="237.31319" y1="145.84396" x2="231.27581" y2="167.03212" gradientUnits="userSpaceOnUse" id="color-15"><stop offset="0" stop-color="#a6a6a6"/><stop offset="1" stop-color="#707070"/></linearGradient><linearGradient x1="228.22823" y1="163.68716" x2="222.34562" y2="184.33213" gradientUnits="userSpaceOnUse" id="color-16"><stop offset="0" stop-color="#707070"/><stop offset="1" stop-color="#a6a6a6"/></linearGradient><linearGradient x1="157.97679" y1="610.92283" x2="175.62167" y2="642.59231" gradientUnits="userSpaceOnUse" id="color-17"><stop offset="0" stop-color="#5c5c5c"/><stop offset="1" stop-color="#9b9b9b"/></linearGradient><linearGradient x1="211.29537" y1="457.7271" x2="228.94022" y2="489.39655" gradientUnits="userSpaceOnUse" id="color-18"><stop offset="0" stop-color="#5c5c5c"/><stop offset="1" stop-color="#9b9b9b"/></linearGradient><linearGradient x1="209.3275" y1="390.81282" x2="225.97943" y2="391.14934" gradientUnits="userSpaceOnUse" id="color-19"><stop offset="0" stop-color="#5c5c5c"/><stop offset="1" stop-color="#9b9b9b"/></linearGradient><linearGradient x1="184.95744" y1="546.93663" x2="200.61534" y2="552.61369" gradientUnits="userSpaceOnUse" id="color-20"><stop offset="0" stop-color="#5c5c5c"/><stop offset="1" stop-color="#9b9b9b"/></linearGradient><linearGradient x1="-200.32714" y1="195.36346" x2="-229.26794" y2="173.52914" gradientUnits="userSpaceOnUse" id="color-21"><stop offset="0" stop-color="#5c5c5c"/><stop offset="1" stop-color="#9b9b9b"/></linearGradient><linearGradient x1="-41.25259" y1="163.62893" x2="-70.19326" y2="141.79473" gradientUnits="userSpaceOnUse" id="color-22"><stop offset="0" stop-color="#5c5c5c"/><stop offset="1" stop-color="#9b9b9b"/></linearGradient><linearGradient x1="24.7546" y1="174.78432" x2="26.71234" y2="158.24446" gradientUnits="userSpaceOnUse" id="color-23"><stop offset="0" stop-color="#5c5c5c"/><stop offset="1" stop-color="#9b9b9b"/></linearGradient><linearGradient x1="-133.2374" y1="177.44274" x2="-136.7062" y2="161.15269" gradientUnits="userSpaceOnUse" id="color-24"><stop offset="0" stop-color="#5c5c5c"/><stop offset="1" stop-color="#9b9b9b"/></linearGradient></defs><g transform="translate(232.92519,5.23317)"><g data-paper-data="{&quot;isPaintingLayer&quot;:true}" fill-rule="nonzero" stroke-linejoin="miter" stroke-miterlimit="10" stroke-dasharray="" stroke-dashoffset="0" style="mix-blend-mode: normal"><path d="M96.62345,183.28917l12.57415,-10.94827l110.52515,126.93863l-12.57414,10.94827z" fill="url(#color-1)" stroke="none" stroke-width="0" stroke-linecap="butt"/><path d="M116.53331,189.11314c-6.77916,5.90261 -17.0597,5.19201 -22.96229,-1.58712c-5.90261,-6.77916 -5.19201,-17.0597 1.58713,-22.96232c6.77913,-5.90258 17.05975,-5.19199 22.96233,1.58712c5.90258,6.77913 5.19197,17.0597 -1.58717,22.96228z" fill="url(#color-2)" stroke="none" stroke-width="0" stroke-linecap="butt"/><path d="M-105.60657,388.47452c3.93508,-10.77619 16.01743,-17.60392 26.98669,-15.25025c10.96926,2.35374 16.67158,12.9976 12.73653,23.77382c-3.93506,10.7762 -16.01741,17.60399 -26.98668,15.25029c-10.96923,-2.35371 -16.67157,-12.99761 -12.73651,-23.77383z" data-paper-data="{&quot;index&quot;:null}" fill="url(#color-3)" stroke="none" stroke-width="0" stroke-linecap="butt"/><path d="M226.6017,321.67252c-7.26886,6.32899 -18.29202,5.56705 -24.62094,-1.70177c-6.32894,-7.2688 -5.56701,-18.29204 1.70179,-24.62096c7.26885,-6.32897 18.29199,-5.56701 24.62094,1.70182c6.32894,7.2688 5.56705,18.29198 -1.70179,24.62093z" fill="url(#color-4)" stroke="none" stroke-width="0" stroke-linecap="butt"/><path d="M-14.91832,489.03413c-11.21514,2.41502 -20.97327,-4.69749 -21.79542,-15.88624c-0.82213,-11.18879 7.60303,-22.21687 18.81818,-24.63187c11.21514,-2.41502 20.97323,4.69747 21.7954,15.88628c0.82213,11.18879 -7.603,22.21684 -18.8181,24.6319z" fill="url(#color-5)" stroke="none" stroke-width="0" stroke-linecap="butt"/><path d="M-68.58315,323.117c27.4043,-23.86086 146.79233,113.2568 119.38804,137.11767c-27.4043,23.86086 -98.24228,-12.63915 -109.31386,-25.35493c-14.72101,-16.90712 -37.47845,-87.90184 -10.07413,-111.76272z" fill="#1300d2" stroke="#000000" stroke-width="2" stroke-linecap="butt"/><path d="M189.68148,218.61464c22.63266,27.54129 21.57897,131.14932 -43.40156,187.72774c-21.18611,18.4467 -44.59837,31.69588 -67.95444,39.54324c-48.27998,16.22166 -151.77515,-101.43333 -129.92168,-146.51804c10.98559,-22.66379 27.62606,-44.66507 49.36391,-63.59214c64.98054,-56.5784 165.18726,-49.68388 191.91381,-17.16078z" fill="#696969" stroke="#000000" stroke-width="2" stroke-linecap="butt"/><path d="M85.80459,299.22471l120.23792,-10.28665l1.42116,16.61178l-120.23792,10.28665z" fill="url(#color-6)" stroke="none" stroke-width="0" stroke-linecap="butt"/><path d="M80.6701,310.7254l26.73148,-117.67926l16.25829,3.69312l-26.73144,117.67928z" data-paper-data="{&quot;index&quot;:null}" fill="url(#color-7)" stroke="none" stroke-width="0" stroke-linecap="butt"/><path d="M-18.24526,388.57521l108.37682,-94.36341l13.03361,14.96916l-108.3768,94.36344z" fill="url(#color-8)" stroke="none" stroke-width="0" stroke-linecap="butt"/><path d="M106.00808,310.61169c2.58196,-1.48244 4.06437,1.0995 4.06437,1.0995l1.10311,2.06381c0.35499,1.16707 0.70998,2.33408 1.06496,3.50116c0.28283,7.38038 -0.68953,15.59741 -1.80071,23.34394c2.15807,0.89648 4.54759,1.26804 7.21143,0.87818c6.22858,-0.9117 8.2076,-7.51725 11.70123,-11.61668c4.25615,-4.99416 10.47559,-8.03917 14.8554,-12.9339c6.38086,-7.13107 9.04441,-19.01419 10.45628,-28.22337c1.43269,-8.86477 -4.80527,-17.72035 -2.16164,-26.06635c2.22856,-7.03567 9.63243,-10.37467 12.91733,-16.52814c-2.37305,1.54722 -5.00127,2.61704 -7.9501,3.02145c-7.27559,0.99789 -17.38885,-1.45214 -24.2357,-3.62201c-4.44601,-1.40904 -10.76946,-5.67656 -15.54715,-5.63442c-3.67529,0.03239 -6.99063,2.27428 -10.50589,3.34739c-13.81028,4.21594 -31.46635,6.8596 -29.68619,24.80824c0.40005,4.03361 1.17421,7.13325 3.91527,10.15555l0.87251,1.00207c0,0 1.95506,2.2454 -0.2903,4.20044c-2.24538,1.95504 -4.20045,-0.29037 -4.20045,-0.29037l-0.87251,-1.00207c-6.91708,-8.18106 -8.68304,-26.77915 1.23715,-34.07262c7.464,-5.48765 18.56221,-7.83309 27.28594,-10.49627c1.00955,-0.30821 11.67175,-3.60378 12.27413,-3.60678c5.58292,-0.02782 12.12766,4.25908 17.32081,5.91395c6.07904,1.93715 15.26478,4.22259 21.74294,3.38245c6.21589,-0.80615 10.97265,-6.24971 14.90097,-12.65462c2.12668,-7.08159 3.28511,-14.46012 2.62653,-21.48524c0,0 -0.26509,-2.96544 2.70035,-3.23043c2.96539,-0.26507 3.23047,2.70036 3.23047,2.70036c0.15904,1.85946 0.21164,3.74596 0.16767,5.64787c0.34248,-0.61456 0.68124,-1.1997 1.01706,-1.74972c0,0 1.55169,-2.54096 4.09259,-0.98931c2.54093,1.55162 0.98927,4.09255 0.98927,4.09255c-2.86877,4.69792 -5.6633,10.70573 -8.9673,16.34766c-1.6652,5.77172 -3.94579,11.35418 -6.55692,16.41662c-3.18459,6.17421 -10.5176,9.58679 -12.84431,16.25209c-1.38667,3.97234 1.73481,8.90284 2.47345,12.66204c0.79633,4.05281 0.54965,8.30605 -0.06189,12.3909c-1.63663,10.42886 -4.70428,23.19643 -11.88283,31.25817c-4.37312,4.91115 -10.63617,7.94926 -14.86052,12.93963c-4.67203,5.51927 -6.85027,12.26274 -15.16109,13.53408c-3.34293,0.51141 -6.35623,0.18157 -9.08954,-0.75548c-0.02165,0.1449 -0.04322,0.2895 -0.06476,0.43377c-0.83247,5.58018 -2.7511,10.30576 -1.78581,16.02083c3.00598,17.79667 23.26687,3.435 28.91965,-4.16214c12.43014,-22.41102 24.10745,-47.57539 51.97585,-53.73511c3.98787,-0.88145 7.90171,-0.64374 11.83536,-0.24893c-1.01042,1.10179 -1.05335,2.81069 -0.04846,3.96477c0.11614,0.1334 0.24156,0.25401 0.37444,0.36155c-0.20172,0.49752 -0.26478,1.0408 -0.18503,1.56879c-3.59176,-0.39423 -7.17579,-0.62929 -10.69543,0.16882c-26.13462,5.92636 -36.57699,30.21826 -48.25771,51.15496c-3.66082,4.89688 -8.23634,10.51865 -14.01392,13.04707c-11.02371,4.82423 -23.46936,1.52219 -25.77436,-11.11731c-1.16856,-6.40796 0.82804,-11.68045 1.7659,-17.90148c0.12375,-0.82063 0.25119,-1.6545 0.3803,-2.49898c-5.56283,-4.02622 -9.76017,-10.49463 -13.2505,-16.29976c-0.57238,-1.17346 -1.14472,-2.34692 -1.7171,-3.52037l-0.00473,0.15089c0,0 -1.95505,-2.24537 0.29035,-4.20044c2.24538,-1.95504 4.20042,0.29032 4.20042,0.29032l0.86775,1.15287c0.53189,1.09478 1.06377,2.18965 1.59569,3.28447c2.42126,4.01096 5.29321,8.89261 9.01936,12.41581c0.88653,-6.29653 1.59356,-12.81336 1.39007,-18.66292c-0.29341,-0.91099 -0.58676,-1.82197 -0.88011,-2.73288l-0.58273,-0.8725c0,0 -1.48241,-2.58193 1.09948,-4.06435z" fill="#000000" stroke="none" stroke-width="0.5" stroke-linecap="butt"/><path d="M76.95807,304.1192c-1.14673,2.74755 -3.89424,1.60086 -3.89424,1.60086l-1.8112,-0.92029c-6.64555,-0.55341 -13.24295,1.45347 -19.83979,2.59177c-23.92888,4.01175 -40.8587,-19.23623 -31.73176,-41.50308c5.12643,-12.50681 23.13099,-20.29813 35.39045,-21.81925c19.88467,-3.66466 31.74108,-12.61372 42.95763,-29.0692c2.85325,-4.18594 6.73712,-11.20558 6.41364,-17.10065c0.93952,0.21291 1.8073,-0.09002 1.8073,-0.09002c1.25916,-0.45745 2.58222,-0.80387 3.9191,-0.96558c0.49459,5.58669 -1.70098,11.4825 -4.39571,16.68821c-10.66197,20.59692 -27.23714,32.22028 -49.79361,36.4221c-10.56712,1.30227 -23.05184,6.92173 -29.74045,15.81439c-1.86521,2.47982 -2.06079,5.91963 -2.23393,8.82049c-0.30706,5.14512 -1.25387,11.09237 1.3752,15.89908c5.19397,9.49614 15.09397,12.80457 25.01964,11.03595c7.17181,-1.23737 14.04431,-3.15498 21.29711,-2.66185l3.65971,1.36303c0,0 2.74755,1.14667 1.60083,3.89423z" fill="#000000" stroke="none" stroke-width="0.5" stroke-linecap="butt"/><path d="M96.77504,308.87037c1.95504,2.24538 -0.29034,4.2004 -0.29034,4.2004l-1.8105,1.36946c-6.27642,2.58117 -12.09751,6.59452 -18.62413,8.5695c-3.58452,1.08468 -10.11886,0.69166 -13.06384,3.80541c-3.03063,3.20428 -3.09997,9.09846 -3.58929,13.13091c-1.10384,9.09712 -0.19946,18.17183 -1.09734,27.33274c-1.57076,3.03058 -2.75903,6.51586 -5.94505,8.3821c-11.48102,6.72529 -29.73287,-2.94738 -41.12581,-6.35699c-3.31913,-0.99334 -6.39242,-3.81914 -9.82898,-3.37938c-1.01979,0.13049 -1.31076,1.5885 -1.88513,2.44124c-3.00693,4.46408 -5.00995,8.30751 -6.39607,13.51208c-1.36387,5.12104 -1.67779,8.85974 -0.96405,14.09157c0,0 0.39695,2.95065 -2.55372,3.34758c-2.95068,0.39691 -3.34755,-2.55377 -3.34755,-2.55377c-0.79533,-5.98809 -0.45089,-10.57068 1.11216,-16.42025c1.39965,-5.23816 5.93783,-18.69927 12.58162,-20.19292c1.05681,-0.23757 11.37834,2.96741 12.98896,3.44942c10.88631,3.25801 32.50216,15.35828 39.65124,1.99884c0.97059,-12.3975 -3.39366,-33.0236 6.21479,-43.01969c4.01311,-4.17499 10.5815,-3.78589 15.58955,-5.28774c6.29466,-1.88773 11.95873,-5.85244 18.0125,-8.35542l0.1706,-0.35547c0,0 2.24536,-1.95502 4.20039,0.29036z" fill="#000000" stroke="none" stroke-width="0.5" stroke-linecap="butt"/><g><path d="M41.67913,291.92259l61.07424,-53.1772l55.39291,63.61899l-61.07424,53.1772z" fill="#323232" stroke="none" stroke-width="0" stroke-linecap="butt"/><g stroke="#000000"><path d="M125.92833,274.07235c11.83394,13.59134 10.4093,34.20263 -3.18206,46.03659c-13.59134,11.83394 -34.20267,10.40926 -46.0366,-3.18205c-11.83394,-13.59134 -10.40926,-34.20267 3.18204,-46.03656c13.59133,-11.83395 34.20269,-10.40929 46.03661,3.18203z" fill="#878787" stroke-width="1" stroke-linecap="butt"/><path d="M99.86166,263.68851l33.3248,37.75551" fill="none" stroke-width="1.5" stroke-linecap="round"/><path d="M129.16245,310.81277l-38.39741,-44.61771" fill="none" stroke-width="1.5" stroke-linecap="round"/><path d="M123.67407,316.94492l-40.30875,-48.36742" fill="none" stroke-width="1.5" stroke-linecap="round"/><path d="M77.94115,273.48832l41.49229,48.69036" fill="none" stroke-width="1.5" stroke-linecap="round"/><path d="M132.17851,288.891l-18.97329,-22.34897" fill="none" stroke-width="1.5" stroke-linecap="round"/><path d="M102.40639,327.71776l-32.81152,-38.20236" data-paper-data="{&quot;index&quot;:null}" fill="none" stroke-width="1.5" stroke-linecap="round"/><path d="M73.32897,280.85024l38.91059,44.17087" data-paper-data="{&quot;index&quot;:null}" fill="none" stroke-width="1.5" stroke-linecap="round"/><path d="M90.11132,324.99244l-19.52601,-21.86771" data-paper-data="{&quot;index&quot;:null}" fill="none" stroke-width="1.5" stroke-linecap="round"/></g></g><path d="M189.60404,219.73471c0.35297,0.31612 -24.24013,21.06264 -60.55607,54.39932c-0.95305,-2.22598 -25.04948,-26.13464 -49.65498,-4.59746c-24.09274,22.92573 -5.3825,47.76313 -2.35241,49.1311c-33.63311,30.89585 -66.54124,56.71126 -89.91134,75.88939c-3.17888,2.60867 -20.43293,-20.69658 -32.58543,-48.51663c-8.74116,-20.01067 -9.38862,-39.01056 -6.21748,-45.55273c10.98556,-22.66383 27.62606,-44.66507 49.3639,-63.59214c64.98054,-56.5784 165.18726,-49.68382 191.91379,-17.16076z" fill="#1300d2" stroke="#000000" stroke-width="2" stroke-linecap="butt"/><path d="M145.99436,407.22346c-21.73784,18.92709 -45.81932,32.38233 -69.77899,40.14531c-6.91627,2.24089 -25.64643,-1.01444 -44.26413,-12.42563c-25.88354,-15.86444 -46.59329,-36.16086 -43.57208,-38.9506c22.21114,-20.50925 52.30862,-49.5528 87.53794,-78.61525c0.93803,3.1895 22.96506,25.13898 48.98749,4.42953c24.71759,-21.40839 4.35164,-48.56502 2.27791,-49.8153c38.01607,-31.38405 61.94884,-52.88894 62.21345,-52.49579c28.53671,30.94699 21.57899,131.14929 -43.40157,187.72775z" fill="#1300d2" stroke="#000000" stroke-width="2" stroke-linecap="butt"/><g fill="#8b0000" stroke="#000000" stroke-width="2" stroke-linecap="butt"><path d="M148.02133,253.66413c-6.77916,5.90261 -18.46017,3.58354 -26.09033,-5.17975c-7.63017,-8.76328 -21.19355,-9.44341 -1.54094,-26.5549c20.25141,-17.63284 18.4602,-3.58352 26.09036,5.17978c7.63017,8.76328 8.32002,20.65231 1.54091,26.55488z"/><path d="M175.33763,261.46093c7.63017,8.76328 21.79229,8.92203 1.5409,26.55486c-19.65262,17.11148 -18.46017,3.58354 -26.09033,-5.17975c-7.63017,-8.76328 -8.32006,-20.65232 -1.54094,-26.5549c6.77916,-5.90261 18.4602,-3.58352 26.09037,5.17977z" data-paper-data="{&quot;index&quot;:null}"/><path d="M159.23029,266.53765c-6.94449,6.04655 -17.35909,5.45265 -23.26166,-1.32646c-5.90261,-6.77916 -5.05796,-17.17644 1.88653,-23.22298c6.94449,-6.04655 17.35911,-5.45264 23.26169,1.32648c5.90261,6.77916 5.05793,17.17642 -1.88655,23.22295z"/></g><path d="M242.28156,116.0576c54.71425,15.59033 88.54911,65.14829 75.5722,110.69081c-12.97691,45.54253 -67.85147,69.82358 -122.56575,54.23325c-54.71428,-15.59035 -88.54911,-65.14827 -75.5722,-110.69081c12.97691,-45.54253 67.85148,-69.82359 122.56577,-54.23325z" fill="#696969" stroke="#000000" stroke-width="2" stroke-linecap="butt"/><path d="M239.46448,129.17064c47.44013,13.51762 77.08269,55.41303 66.2085,93.57595c-10.8742,38.16294 -58.14725,58.14192 -105.5874,44.62429c-47.44013,-13.51762 -77.08265,-55.41301 -66.20848,-93.57593c10.8742,-38.16294 58.14722,-58.14192 105.58736,-44.62428z" fill="none" stroke="url(#color-9)" stroke-width="4.5" stroke-linecap="butt"/><g stroke="#000000" stroke-linecap="butt"><path d="M321.03206,228.06686c-12.97691,45.54253 -63.21691,69.49313 -117.93116,53.90278c-7.04956,-2.0087 -3.14133,-15.58395 5.26952,-17.9925c6.09952,3.46969 71.53876,22.1941 87.00324,-33.89313c20.75432,-77.72901 -78.50446,-120.8546 -49.91375,-112.70795c54.71428,15.59035 88.54905,65.1483 75.57213,110.69081z" data-paper-data="{&quot;index&quot;:null}" fill="#1300d2" stroke-width="2"/><path d="M208.66266,272.50459c-7.04956,-2.0087 -4.91992,-7.90574 3.49092,-10.31428c6.09952,3.46969 72.66812,13.92167 88.1326,-42.16557c20.75432,-77.72901 -77.85528,-120.26038 -49.26457,-112.11373c54.71428,15.59035 69.84341,63.30908 58.59994,115.67676c-6.87585,32.02511 -46.24468,64.50715 -100.95894,48.91686z" data-paper-data="{&quot;index&quot;:null}" fill="#ff0000" stroke-width="0"/></g><g stroke="#000000" stroke-linecap="butt"><path d="M120.53472,171.76255c12.97691,-45.54253 67.85148,-69.82355 122.56574,-54.23321c28.59071,8.14666 -78.4914,-7.52269 -101.82407,69.47169c-20.79366,64.69767 62.19615,73.53364 56.07169,74.66096c5.87814,6.48007 2.04404,20.07644 -5.00551,18.06777c-54.71428,-15.59035 -84.78474,-62.42458 -71.80782,-107.96711z" fill="#1300d2" stroke-width="2"/><path d="M135.16572,172.65046c18.04745,-50.4289 56.05628,-83.00649 110.77058,-67.41618c28.59071,8.14666 -77.62661,-7.68551 -100.95923,69.30883c-16.42094,55.81472 45.65897,82.01992 52.67123,82.28632c5.87814,6.48007 4.57965,12.61391 -2.46988,10.60522c-54.71425,-15.59033 -71.04948,-63.94468 -60.01265,-94.78419z" data-paper-data="{&quot;index&quot;:null}" fill="#ff0000" stroke-width="0"/></g><g stroke="none" stroke-width="0" stroke-linecap="butt"><path d="M186.19614,199.37805l20.23335,-71.00899l67.57305,19.25432l-20.23335,71.00899z" fill="url(#color-10)"/><path d="M256.43204,168.00198l5.8742,-20.61549l8.01711,2.28439l-5.8742,20.61549z" fill="#ffffff"/><path d="M249.74198,191.48074l5.8742,-20.61549l8.0171,2.28439l-5.87418,20.61548z" fill="#ffffff"/><path d="M243.21513,214.38682l5.87418,-20.61548l8.01711,2.28439l-5.8742,20.61549z" fill="#ffffff"/><path d="M203.33848,152.25427l5.8742,-20.61549l8.01713,2.28439l-5.8742,20.61549z" fill="#ffffff"/><path d="M196.64841,175.73309l5.87418,-20.61548l8.01713,2.28439l-5.8742,20.61549z" fill="#ffffff"/><path d="M190.12152,198.63923l5.8742,-20.61549l8.01713,2.28439l-5.87419,20.6155z" fill="#ffffff"/><path d="M222.25047,208.28932l1.95807,-6.87185l15.46162,4.40566l-1.95807,6.87186z" fill="#ffffff"/><path d="M204.45449,203.09472l1.95807,-6.87186l15.46167,4.40564l-1.95807,6.87185z" fill="#ffffff"/></g><path d="M271.81448,17.53729c58.16837,16.57453 93.14739,72.74178 78.1278,125.45299c-15.01957,52.71122 -44.95288,90.99704 -132.51853,65.43133c-92.496,-27.00514 -93.14739,-72.74178 -78.1278,-125.45302c15.01957,-52.71122 74.35013,-82.00582 132.51851,-65.43128z" fill="#696969" stroke="#000000" stroke-width="2" stroke-linecap="butt"/><path d="M208.52317,91.52042l10.93253,-38.36775l81.88935,23.33361l-10.93253,38.36775z" fill="url(#color-11)" stroke="#000000" stroke-width="0" stroke-linecap="butt"/><path d="M202.35377,154.45704l21.04922,-73.87223l59.55592,16.9699l-21.04922,73.87223z" fill="url(#color-12)" stroke="none" stroke-width="0" stroke-linecap="butt"/><path d="M200.34924,152.41898l3.37393,-96.40329l14.87707,0.52071l-3.37393,96.40329z" fill="url(#color-13)" stroke="none" stroke-width="0" stroke-linecap="butt"/><path d="M250.38171,166.05263l47.94569,-83.703l12.91716,7.39903l-47.94574,83.703z" data-paper-data="{&quot;index&quot;:null}" fill="url(#color-14)" stroke="none" stroke-width="0" stroke-linecap="butt"/><path d="M184.60464,153.73361l6.03737,-21.18816l93.34241,26.59705l-6.03737,21.18816z" fill="url(#color-15)" stroke="none" stroke-width="0" stroke-linecap="butt"/><path d="M168.94662,155.27958c-2.97382,0.1418 -3.11566,-2.83209 -3.11566,-2.83209l-0.00767,-1.05778c-0.69243,-3.13887 -0.97206,-7.32158 -2.50126,-10.22991c-0.59049,-1.12295 -3.44111,-3.49899 -3.96792,-4.22127c-7.24173,-9.92903 -18.69819,-27.35356 -6.06747,-37.40637c4.05797,-0.15075 16.04215,1.86225 18.62353,-3.19119c3.66461,-7.17395 0.05403,-14.86559 5.85992,-21.83315c6.72445,-8.06997 19.13314,-9.83377 28.88088,-12.18495c0,0 2.89428,-0.69789 3.59217,2.19642c0.69789,2.8943 -2.1964,3.59214 -2.1964,3.59214c-8.21383,1.97977 -19.99299,3.34173 -25.66931,10.16845c-7.05442,8.48406 0.6017,22.17699 -12.84132,26.39906c-1.42208,0.44662 -2.94514,0.49924 -4.43319,0.58488c-2.19931,0.12662 -7.34501,-0.05631 -9.80882,-0.12582c-3.00311,2.51757 -1.49381,8.29512 -0.62758,11.61539c2.28188,8.74623 9.82308,13.95471 13.85033,21.49632c1.87525,3.51174 2.2754,8.02615 3.12098,11.85695l0.14079,2.0573c0,0 0.14178,2.97386 -2.83209,3.11566z" fill="#000000" stroke="none" stroke-width="0.5" stroke-linecap="butt"/><path d="M145.13873,158.41156c-2.83878,-0.89738 -1.94135,-3.73612 -1.94135,-3.73612l0.35932,-0.99493c0.43804,-3.18433 1.62505,-7.20484 1.19819,-10.46284c-0.16483,-1.25798 -2.01559,-4.47453 -2.25947,-5.33466c-3.35286,-11.82311 -8.0623,-32.1378 7.26922,-37.19153c3.85887,1.2646 14.40313,7.30534 18.57559,3.45935c5.9233,-5.45981 5.20146,-13.926 13.06183,-18.45031c9.10406,-5.24011 21.35523,-2.59526 31.31384,-1.42325c0,0 2.95682,0.34816 2.60862,3.30495c-0.34818,2.95683 -3.30499,2.60857 -3.30499,2.60857c-8.39099,-0.98883 -19.91242,-3.79257 -27.60249,0.64448c-9.55701,5.51428 -7.11961,21.01171 -21.19277,20.31445c-1.48874,-0.07378 -2.93565,-0.55213 -4.36119,-0.98739c-2.10695,-0.64329 -6.8705,-2.5978 -9.15759,-3.51664c-3.68935,1.3211 -4.2755,7.26364 -4.61333,10.67842c-0.8899,8.99508 4.37946,16.49387 5.5442,24.96369c0.54237,3.94391 -0.6465,8.31728 -1.18063,12.20383l-0.5807,1.97866c0,0 -0.89737,2.83872 -3.73621,1.94132z" fill="#000000" stroke="none" stroke-width="0.5" stroke-linecap="butt"/><path d="M285.48183,182.08604l1.2041,-1.67411c2.73779,-2.80978 5.4573,-6.43532 8.90187,-8.43115c7.39747,-4.28618 16.55135,-4.73758 23.10054,-10.96746c2.48622,-2.36496 6.81407,-6.47938 5.589,-10.2017c-2.13037,-1.23955 -6.59966,-3.79634 -8.40198,-5.06317c-1.21941,-0.85712 -2.486,-1.70462 -3.45906,-2.83371c-9.19858,-10.67361 4.52499,-18.27456 3.00191,-29.20268c-1.22554,-8.7933 -10.51773,-16.15942 -16.45439,-22.17126c0,0 -2.09179,-2.11859 0.02681,-4.21036c2.11861,-2.09175 4.21038,0.02683 4.21038,0.02683c7.04446,7.13592 16.65985,15.17531 18.12083,25.57766c1.2614,8.98129 -5.86105,13.61473 -6.52812,21.6428c-0.46989,5.65507 10.7754,10.26106 14.14445,12.52806c5.43504,15.20048 -13.485,23.96962 -24.87257,28.59032c-0.82842,0.33617 -4.5033,0.85278 -5.59696,1.49585c-2.83246,1.6655 -5.27478,5.07264 -7.51763,7.37511l-0.56408,0.89485c0,0 -1.68797,2.45253 -4.14046,0.76454c-2.45249,-1.68799 -0.76453,-4.14049 -0.76453,-4.14049z" data-paper-data="{&quot;index&quot;:null}" fill="#000000" stroke="none" stroke-width="0.5" stroke-linecap="butt"/><path d="M302.67604,197.81787l0.54944,-1.98759c1.59466,-3.58434 2.88954,-7.92756 5.42919,-10.99323c5.45407,-6.58379 13.88456,-10.17895 17.86949,-18.29213c1.51279,-3.07995 4.14693,-8.43902 1.70799,-11.5063c-2.42794,-0.42459 -7.5062,-1.27447 -9.63582,-1.83832c-1.44088,-0.3815 -2.9226,-0.73763 -4.22661,-1.4596c-12.32706,-6.82522 -2.0872,-18.71045 -7.30241,-28.4339c-4.19635,-7.82402 -15.46528,-11.51412 -23.11719,-15.09657c0,0 -2.69629,-1.26255 -1.43368,-3.9588c1.26262,-2.69627 3.95888,-1.43365 3.95888,-1.43365c9.0806,4.25305 20.88588,8.46284 25.86061,17.71465c4.29515,7.98793 -0.78071,14.80212 1.3752,22.56399c1.51861,5.46756 13.66329,5.89187 17.60913,6.85114c10.36514,12.37575 -4.3445,27.15717 -13.42569,35.43731c-0.66063,0.60237 -3.92884,2.36033 -4.73202,3.34255c-2.07997,2.5437 -3.19039,6.58599 -4.49657,9.52297l-0.21911,1.03484c0,0 -0.73359,2.88544 -3.61904,2.15178c-2.88543,-0.73365 -2.15178,-3.61904 -2.15178,-3.61904z" data-paper-data="{&quot;index&quot;:null}" fill="#000000" stroke="none" stroke-width="0.5" stroke-linecap="butt"/><path d="M328.49413,93.93358c-4.61402,16.1929 -21.89158,25.46255 -38.59049,20.70433c-16.69895,-4.75822 -26.49566,-21.7424 -21.88164,-37.9353c4.61402,-16.1929 21.89156,-25.46257 38.59048,-20.70438c16.69891,4.75821 26.49566,21.74246 21.88167,37.93534z" data-paper-data="{&quot;index&quot;:null}" fill="#000000" stroke="#000000" stroke-width="2" stroke-linecap="butt"/><path d="M227.35711,32.58957c16.69895,4.75822 26.49566,21.74246 21.88166,37.93531c-4.61402,16.1929 -21.89158,25.46255 -38.59049,20.70433c-16.69895,-4.75822 -26.49569,-21.74244 -21.88166,-37.93531c4.61402,-16.1929 21.89156,-25.46255 38.5905,-20.70432z" fill="#000000" stroke="#000000" stroke-width="2" stroke-linecap="butt"/><path d="M142.57867,161.60328l5.8826,-20.64499l159.53393,45.45772l-5.8826,20.64499c0,0 -33.73251,15.66728 -84.72756,0.59188c-56.13986,-16.59634 -74.80635,-46.0496 -74.80635,-46.0496z" fill="url(#color-16)" stroke="none" stroke-width="0" stroke-linecap="butt"/><path d="M262.13646,0.40687c1.20463,0.34325 -15.80961,62.02294 -31.13097,115.16922c-0.44422,-0.75368 -1.16448,-1.03433 -1.16448,-1.03433c-12.61589,-4.8255 -54.04291,-16.02474 -61.82027,-18.59772c-13.82109,-5.21249 -29.8296,-8.30578 -41.45676,-18.8164c0.90617,-3.77176 1.91046,-7.54641 2.9828,-11.3098c15.01957,-52.71122 74.38199,-81.99675 132.58966,-65.41102zM205.00313,77.06533c11.7472,0.8832 30.47644,-1.42523 35.30847,-27.97116c1.21635,-6.68224 -2.23506,-29.74525 -21.105,-34.18362c-12.40579,-2.56574 -35.80872,0.34874 -40.48573,20.36897c-5.86033,25.0855 7.44714,34.82819 26.28226,41.7858z" fill="#1300d2" stroke="#000000" stroke-width="2" stroke-linecap="butt"/><path d="M207.51756,216.77294c-84.86198,-15.99167 -93.06449,-61.15956 -83.30507,-108.00379c11.98948,9.68936 27.53725,12.99665 41.3058,18.19215c7.99866,2.64378 49.70515,13.77239 62.11613,18.67217c0,0 0.93782,0.36469 1.86962,-0.12669c-11.14116,38.53276 -21.07739,71.43746 -21.98641,71.26618z" fill="#1300d2" stroke="#000000" stroke-width="2" stroke-linecap="butt"/><path d="M285.46658,13.65869c58.20765,16.58574 93.21852,72.76203 78.19896,125.47326c-1.07235,3.76337 -2.2084,7.50049 -3.42642,11.18339c-15.42092,2.80352 -30.65558,-3.00565 -45.14832,-5.86092c-7.96547,-1.9128 -49.07359,-14.23117 -62.33817,-16.78007c0,0 -0.76001,-0.14117 -1.53476,0.26521c14.99241,-53.24 33.04408,-114.6241 34.24869,-114.28086zM337.97312,87.26118c6.57782,-19.47861 -11.77407,-34.29074 -23.66903,-38.64927c-18.3753,-6.17437 -33.46453,11.60566 -35.95301,17.92547c-9.88572,25.10594 4.8139,36.93964 15.26233,42.38086c19.67355,4.01508 36.11766,2.74982 44.35969,-21.65703z" data-paper-data="{&quot;index&quot;:null}" fill="#1300d2" stroke="#000000" stroke-width="2" stroke-linecap="butt"/><path d="M227.88646,218.02476c-0.86279,-0.33357 8.03692,-33.53361 18.87915,-72.15155c0.53287,0.90871 1.52202,1.09308 1.52202,1.09308c13.12959,2.37778 54.43802,14.90349 62.62885,16.87277c14.43911,2.84202 29.39508,8.22645 44.69099,6.31182c-16.39734,44.95281 -47.17527,79.01363 -127.72096,47.87388z" data-paper-data="{&quot;index&quot;:null}" fill="#1300d2" stroke="#000000" stroke-width="2" stroke-linecap="butt"/><path d="M241.96512,105.75851c16.33218,4.65371 24.60433,25.86049 18.47634,47.36669c-6.12799,21.50617 -24.33552,35.16782 -40.66776,30.51411c-16.33218,-4.65371 -24.6044,-25.86051 -18.47642,-47.36668c6.12799,-21.50617 24.33564,-35.16781 40.66781,-30.51411z" fill="#ff00cc" stroke="#000000" stroke-width="2" stroke-linecap="butt"/><path d="M220.85556,53.83761c4.83998,1.37911 7.67944,6.3018 6.34215,10.9951c-1.33732,4.69331 -6.34501,7.38002 -11.18499,6.00092c-4.83998,-1.37911 -7.67945,-6.30179 -6.34215,-10.9951c1.33732,-4.69331 6.34501,-7.38002 11.18499,-6.00092z" fill="#000000" stroke="#ff0000" stroke-width="1.5" stroke-linecap="butt"/><path d="M301.08216,77.21939c4.83999,1.37912 7.67944,6.3018 6.34215,10.9951c-1.33732,4.69331 -6.34502,7.38002 -11.18499,6.00092c-4.83999,-1.37912 -7.67945,-6.30179 -6.34215,-10.9951c1.33732,-4.69331 6.345,-7.38002 11.18499,-6.00092z" fill="#000000" stroke="#ff0000" stroke-width="1.5" stroke-linecap="butt"/><g stroke-linecap="butt"><path d="M175.62167,642.59231c-8.74536,4.87251 -19.78475,1.73288 -24.6572,-7.01236c-4.87245,-8.74531 -1.73291,-19.78472 7.01238,-24.65718c8.7453,-4.87246 19.78472,-1.73291 24.65717,7.01235c4.87246,8.74533 1.73293,19.78472 -7.01235,24.65721z" fill="url(#color-17)" stroke="none" stroke-width="0"/><path d="M228.94022,489.39655c-8.74536,4.87251 -19.78472,1.73291 -24.65717,-7.01235c-4.87245,-8.74531 -1.73293,-19.78472 7.01236,-24.6572c8.74532,-4.87246 19.78472,-1.73291 24.65719,7.01238c4.87246,8.74533 1.73294,19.78469 -7.01239,24.65719z" fill="url(#color-18)" stroke="none" stroke-width="0"/><g><path d="M193.8262,463.22326c0,0 -5.84107,-52.05 -5.64794,-76.90223c0.18227,-23.45583 8.02473,-68.23918 8.02473,-68.23918l43.71124,0.88358c0,0 7.13015,46.90249 6.94475,70.75866c-0.19048,24.51473 -5.57494,74.45845 -5.57494,74.45845z" fill="#696969" stroke="#000000" stroke-width="2"/><path d="M208.76762,462.85114l1.1195,-144.0765l16.65192,0.3366l-1.11945,144.07659z" fill="url(#color-19)" stroke="none" stroke-width="0"/><path d="M204.50712,464.91938c-1.92673,-1.35862 -1.13863,-4.69715 -1.13863,-4.69715l1.43518,-5.92285c3.13656,-5.9456 6.89722,-9.28927 10.45301,-14.33598c2.05377,-2.91494 3.47992,-6.83833 5.41263,-9.92806c1.73152,-2.76811 4.23514,-4.53861 5.36592,-8.38952c2.64244,-8.99927 0.54808,-22.22705 -3.99004,-27.43654c-2.76582,-3.64129 -5.12082,-7.75958 -7.72415,-11.68651c-2.33411,-3.52083 -5.66852,-5.38532 -6.94648,-10.77902c-1.2637,-5.33333 0.56367,-13.58194 1.72883,-18.26435c3.17668,-12.76596 10.50101,-20.88103 13.86535,-33.48102c0,0 0.89503,-3.2569 2.77448,-1.71295c1.87942,1.54401 0.98439,4.80091 0.98439,4.80091c-3.48785,12.42201 -10.67286,20.78482 -13.82859,33.34357c-0.56245,2.23824 -2.3968,9.56494 -1.64714,12.67612c0.46725,1.93927 3.1846,4.63767 3.75202,5.33715c3.36869,4.15316 6.16417,9.5471 9.47317,13.90731c6.13775,7.31485 8.77926,24.34755 5.2677,36.55694c-1.39406,4.84713 -4.11167,7.00411 -6.2775,10.45753c-1.97994,3.15696 -3.43793,7.1275 -5.54329,10.12528c-3.16845,4.51161 -6.74907,7.55138 -9.61543,12.68916l-1.08655,4.75997c0,0 -0.78808,3.33853 -2.71481,1.97993z" fill="#000000" stroke="none" stroke-width="0.5"/><path d="M193.8262,463.22326c0,0 -5.84107,-52.05 -5.64794,-76.90223c0.18227,-23.45583 8.02473,-68.23918 8.02473,-68.23918l43.71124,0.88358c0,0 7.13015,46.90249 6.94475,70.75866c-0.19048,24.51473 -5.57494,74.45845 -5.57494,74.45845z" fill="#1300d2" stroke="#000000" stroke-width="2"/></g><g><path d="M146.97989,610.50751c0,0 11.21871,-51.16109 19.39869,-74.62935c7.72036,-22.1496 29.55652,-62.02742 29.55652,-62.02742l41.10201,14.90232c0,0 -8.34178,46.70219 -16.19394,69.22986c-8.06889,23.14957 -29.2382,68.70418 -29.2382,68.70418z" fill="#696969" stroke="#000000" stroke-width="2"/><path d="M161.24643,614.96321l47.42201,-136.05311l15.65793,5.67709l-47.42203,136.05319z" fill="url(#color-20)" stroke="none" stroke-width="0"/><path d="M156.547,615.55041c-1.38703,-1.90635 0.43337,-4.81366 0.43337,-4.81366l3.26475,-5.14601c4.88295,-4.6201 9.51954,-6.57575 14.51019,-10.20983c2.88258,-2.09899 5.49533,-5.35483 8.31945,-7.65828c2.5302,-2.06367 5.47033,-2.93435 7.78012,-6.21664c5.39776,-7.67031 7.67134,-20.86851 5.05093,-27.26118c-1.44694,-4.33762 -2.35152,-8.9947 -3.55278,-13.55048c-1.07698,-4.08469 -3.63407,-6.92298 -3.10841,-12.441c0.51969,-5.45631 4.9042,-12.67817 7.51414,-16.73655c7.11563,-11.06474 16.66174,-16.39133 23.90167,-27.23849c0,0 1.89547,-2.79566 3.1781,-0.72904c1.28261,2.06662 -0.6128,4.86232 -0.6128,4.86232c-7.29956,10.63899 -16.79352,16.24491 -23.82264,27.12021c-1.25279,1.93822 -5.34716,8.28494 -5.63853,11.47189c-0.18164,1.98647 1.52287,5.41576 1.83499,6.26064c1.85308,5.01626 2.7642,11.02288 4.49411,16.21593c3.45749,8.9008 0.47749,25.87765 -6.7761,36.30768c-2.87967,4.14069 -6.14685,5.30848 -9.30871,7.88126c-2.89048,2.35193 -5.54862,5.64211 -8.50665,7.80299c-4.45169,3.25208 -8.82001,4.97794 -13.1872,8.92014l-2.56048,4.15718c0,0 -1.82043,2.90733 -3.20751,1.00102z" fill="#000000" stroke="none" stroke-width="0.5"/><path d="M146.97989,610.50751c0,0 11.21871,-51.16109 19.39869,-74.62935c7.72036,-22.1496 29.55652,-62.02742 29.55652,-62.02742l41.10201,14.90232c0,0 -8.34178,46.70219 -16.19394,69.22986c-8.06889,23.14957 -29.2382,68.70418 -29.2382,68.70418z" fill="#1300d2" stroke="#000000" stroke-width="2"/></g></g><g stroke-linecap="butt"><path d="M-203.88043,169.97595c7.99178,6.02933 9.58263,17.39569 3.5533,25.3875c-6.02933,7.99178 -17.39573,9.58266 -25.38747,3.55331c-7.99178,-6.02933 -9.58267,-17.39567 -3.5533,-25.3875c6.02933,-7.99178 17.39574,-9.58264 25.3875,-3.5533z" data-paper-data="{&quot;index&quot;:null}" fill="url(#color-21)" stroke="none" stroke-width="0"/><path d="M-44.80573,138.24138c7.99177,6.02933 9.58264,17.3957 3.55331,25.38747c-6.02933,7.99178 -17.39574,9.58264 -25.3875,3.5533c-7.99177,-6.02933 -9.58264,-17.39566 -3.55327,-25.38747c6.02933,-7.99178 17.3957,-9.58263 25.38748,-3.5533z" data-paper-data="{&quot;index&quot;:null}" fill="url(#color-22)" stroke="none" stroke-width="0"/><g data-paper-data="{&quot;index&quot;:null}"><path d="M-43.52054,133.03718c0,0 50.20956,1.53814 74.51739,4.72226c23.65482,3.09856 69.13029,16.61385 69.13029,16.61385l-5.13873,43.41712c0,0 -45.43649,1.60652 -68.69434,-1.44005c-24.64247,-3.22794 -75.39386,-16.17462 -75.39386,-16.17462z" fill="#696969" stroke="#000000" stroke-width="2"/><path d="M-44.7181,148.88767l142.8605,18.71361l-1.95761,16.53987l-142.8604,-18.71354z" fill="url(#color-23)" stroke="none" stroke-width="0"/><path d="M-49.31033,169.36302c-1.08056,-2.09533 2.33462,-2.41659 2.33462,-2.41659l4.8642,-0.42134c5.48332,-2.13225 8.9868,-5.26061 13.89141,-7.77817c3.25895,-1.67292 7.39235,-2.57073 10.79166,-4.09751c3.71855,-1.67009 6.22893,-4.0651 11.22173,-4.77904c12.57639,-1.79837 29.08377,3.1614 35.48459,10.24721c3.86345,3.87738 8.82148,7.3884 12.4717,11.29645c0.61475,0.65827 2.91367,3.72102 4.77019,4.45061c2.97849,1.17057 10.48781,0.36167 12.7822,0.11253c12.87351,-1.39783 22.14533,-7.36394 34.92907,-9.10957c0,0 3.34909,-0.43843 4.61981,1.63552c1.2707,2.07398 -2.07837,2.51242 -2.07837,2.51242c-12.94304,1.59881 -21.98863,7.73702 -35.07027,9.1271c-4.79816,0.50988 -13.21976,1.18498 -18.32851,-0.80047c-5.1666,-2.00792 -6.55455,-5.56707 -9.7208,-8.36343c-3.53141,-3.11886 -7.28652,-6.01803 -10.51267,-9.25857c-4.53556,-5.21165 -17.34942,-9.10602 -26.62668,-7.72688c-3.96988,0.59013 -6.06799,2.82639 -9.04802,4.16063c-3.32624,1.48926 -7.40857,2.36203 -10.57832,3.99523c-5.48793,2.82767 -9.31722,6.09255 -15.6378,8.38125l-6.06398,0.60664c0,0 -3.41522,0.32127 -4.49581,-1.77404z" fill="#000000" stroke="none" stroke-width="0.5"/><path d="M-43.52054,133.03718c0,0 50.20956,1.53814 74.51739,4.72226c23.65482,3.09856 69.13029,16.61385 69.13029,16.61385l-5.13873,43.41712c0,0 -45.43649,1.60652 -68.69434,-1.44005c-24.64247,-3.22794 -75.39386,-16.17462 -75.39386,-16.17462z" fill="#1300d2" stroke="#000000" stroke-width="2"/></g><g data-paper-data="{&quot;index&quot;:null}"><path d="M-211.31492,159.88624c0,0 48.03394,-14.70048 72.07349,-19.50767c23.39376,-4.67807 70.79951,-6.51511 70.79951,-6.51511l9.10569,42.76144c0,0 -42.50288,16.14199 -65.50403,20.74153c-24.3705,4.87338 -76.58858,8.94653 -76.58858,8.94653z" fill="#696969" stroke="#000000" stroke-width="2"/><path d="M-207.34823,175.27896l141.28382,-28.25252l3.46883,16.29007l-141.28372,28.25255z" fill="url(#color-24)" stroke="none" stroke-width="0"/><path d="M-205.1075,196.14291c-1.69734,-1.63618 1.43279,-3.03928 1.43279,-3.03928l4.46995,-1.96416c4.50554,-3.7833 6.81602,-7.87263 10.6496,-11.83457c2.54732,-2.63257 6.1719,-4.8128 8.89914,-7.35219c2.98339,-2.77788 4.58952,-5.8533 9.08705,-8.13587c11.3288,-5.74963 28.55414,-6.36559 36.89462,-1.71637c4.90565,2.42795 10.72979,4.15679 15.44343,6.68241c0.7939,0.42537 3.95604,2.58548 5.94864,2.67889c3.19677,0.14986 10.04639,-3.03237 12.13857,-4.00659c11.73895,-5.46601 18.5978,-14.09838 30.1399,-19.86482c0,0 3.02987,-1.49278 4.90038,0.06198c1.87049,1.55478 -1.15936,3.04758 -1.15936,3.04758c-11.74011,5.67865 -18.32943,14.40117 -30.26797,19.92683c-4.37891,2.02673 -12.13528,5.37593 -17.61122,5.14002c-5.5379,-0.23856 -7.99738,-3.16179 -11.89502,-4.79052c-4.34721,-1.8166 -8.83555,-3.35328 -12.93281,-5.38327c-5.97137,-3.47499 -19.35685,-3.03888 -27.69688,1.25223c-3.56885,1.83623 -4.83575,4.62868 -7.22791,6.85087c-2.6701,2.48036 -6.25444,4.6204 -8.73007,7.18671c-4.28614,4.44321 -6.86114,8.76659 -12.10907,12.96749l-5.54624,2.52573c0,0 -3.13015,1.40313 -4.82752,-0.23303z" fill="#000000" stroke="none" stroke-width="0.5"/><path d="M-211.31492,159.88624c0,0 48.03394,-14.70048 72.07349,-19.50767c23.39376,-4.67807 70.79951,-6.51511 70.79951,-6.51511l9.10569,42.76144c0,0 -42.50288,16.14199 -65.50403,20.74153c-24.3705,4.87338 -76.58858,8.94653 -76.58858,8.94653z" fill="#1300d2" stroke="#000000" stroke-width="2"/></g></g></g></g></svg>