<svg version="1.1" xmlns="http://www.w3.org/2000/svg" xmlns:xlink="http://www.w3.org/1999/xlink" width="715.44117" height="510.76234" viewBox="0,0,715.44117,510.76234"><defs><radialGradient cx="241.78855" cy="267.92814" r="104.71462" gradientUnits="userSpaceOnUse" id="color-1"><stop offset="0" stop-color="#a94f05"/><stop offset="1" stop-color="#ff7b00"/></radialGradient><radialGradient cx="-2.15465" cy="216.79977" r="68.86111" gradientUnits="userSpaceOnUse" id="color-2"><stop offset="0" stop-color="#62b300"/><stop offset="1" stop-color="#62b300" stop-opacity="0"/></radialGradient><radialGradient cx="458.71622" cy="239.56778" r="84.5" gradientUnits="userSpaceOnUse" id="color-3"><stop offset="0" stop-color="#62b300"/><stop offset="1" stop-color="#62b300" stop-opacity="0"/></radialGradient><radialGradient cx="380" cy="324.56779" r="53.95833" gradientUnits="userSpaceOnUse" id="color-4"><stop offset="0" stop-color="#539800"/><stop offset="1" stop-color="#539800" stop-opacity="0"/></radialGradient><radialGradient cx="279.5" cy="12.06778" r="37" gradientUnits="userSpaceOnUse" id="color-5"><stop offset="0" stop-color="#62b300"/><stop offset="1" stop-color="#62b300" stop-opacity="0"/></radialGradient><radialGradient cx="204.5" cy="229.06779" r="24.66667" gradientUnits="userSpaceOnUse" id="color-6"><stop offset="0" stop-color="#62b300"/><stop offset="1" stop-color="#62b300" stop-opacity="0"/></radialGradient><radialGradient cx="147.5" cy="340.9289" r="68.86111" gradientUnits="userSpaceOnUse" id="color-7"><stop offset="0" stop-color="#62b300"/><stop offset="1" stop-color="#62b300" stop-opacity="0"/></radialGradient><radialGradient cx="274.5" cy="247.06779" r="37" gradientUnits="userSpaceOnUse" id="color-8"><stop offset="0" stop-color="#62b300"/><stop offset="1" stop-color="#62b300" stop-opacity="0"/></radialGradient><linearGradient x1="243.75375" y1="34.35437" x2="243.75375" y2="62.8829" gradientUnits="userSpaceOnUse" id="color-9"><stop offset="0" stop-color="#848484"/><stop offset="1" stop-color="#545454"/></linearGradient><linearGradient x1="241.24624" y1="225.54056" x2="241.24624" y2="254.06909" gradientUnits="userSpaceOnUse" id="color-10"><stop offset="0" stop-color="#848484"/><stop offset="1" stop-color="#545454"/></linearGradient><linearGradient x1="57.56757" y1="176.24627" x2="84.5946" y2="176.24627" gradientUnits="userSpaceOnUse" id="color-11"><stop offset="0" stop-color="#848484"/><stop offset="1" stop-color="#545454"/></linearGradient><linearGradient x1="397.4024" y1="181.24627" x2="424.42943" y2="181.24627" gradientUnits="userSpaceOnUse" id="color-12"><stop offset="0" stop-color="#848484"/><stop offset="1" stop-color="#545454"/></linearGradient><radialGradient cx="411.5" cy="107.56778" r="13.36111" gradientUnits="userSpaceOnUse" id="color-13"><stop offset="0" stop-color="#62b300"/><stop offset="1" stop-color="#62b300" stop-opacity="0"/></radialGradient><radialGradient cx="126" cy="239.56779" r="22.09722" gradientUnits="userSpaceOnUse" id="color-14"><stop offset="0" stop-color="#62b300"/><stop offset="1" stop-color="#62b300" stop-opacity="0"/></radialGradient></defs><g transform="translate(117.72058,30.18222)"><g data-paper-data="{&quot;isPaintingLayer&quot;:true}" fill-rule="nonzero" stroke-linecap="butt" stroke-linejoin="miter" stroke-miterlimit="10" stroke-dasharray="" stroke-dashoffset="0" style="mix-blend-mode: normal"><path d="M-17.50751,368.43846v-376.87688h515.01502v376.87688z" fill="#060606" stroke="none" stroke-width="NaN"/><g stroke="#000000" stroke-width="3.5"><g><path d="M241.78865,163.21356c57.8322,0 104.71452,46.88233 104.71452,104.71462c0,57.8322 -46.88223,104.71452 -104.71452,104.71452c-57.8322,0 -104.71471,-46.88232 -104.71471,-104.71452c0,-57.8322 46.88242,-104.71462 104.71471,-104.71462z" fill="url(#color-1)"/><path d="M-114.05589,266.78129c45.14945,15.60212 95.62439,12.80935 142.29987,15.97369c26.78881,0.90693 164.15473,-0.97151 206.41696,2.41938c0,0 3.18871,0.24239 5.6123,-1.64007c-0.49459,103.73294 0.77856,192.62195 -2.15386,192.83224c-280.79369,20.13663 -341.1914,-86.15958 -352.17527,-209.58524z" fill="#a90000"/></g><path d="M240.11104,-22.73397c4.013,0 0.76132,165.46537 0.21341,308.50699c-2.03041,-1.55973 -4.49605,-1.74725 -4.49605,-1.74725c-43.10806,-3.06101 -180.58344,-1.55625 -206.80556,-2.44393c-47.16118,-3.16938 -99.2017,0.48223 -144.25451,-17.41927c-0.51951,-10.02316 -0.73891,-20.1231 -0.73891,-30.24319c0,-90.4454 2.74747,-204.54241 108.42385,-249.90007c51.85449,-22.25661 147.87154,-8.58276 242.80474,-5.14529c1.61428,-0.53742 4.85304,-1.60798 4.85304,-1.60798zM44.44632,128.50511c-0.40188,33.99621 37.50142,86.1954 101.64371,90.15179c22.95142,1.41572 89.98122,-35.38187 81.56349,-104.8304c-2.1189,-17.48184 -19.64994,-79.94155 -95.03919,-75.45191c-40.47677,2.4105 -87.43816,28.38756 -88.16801,90.13044z" fill="#a90000"/><path d="M244.742,-21.12598c95.36853,-3.45324 178.08273,-12.49781 230.00342,9.95663c105.09128,45.44943 121.22517,154.84684 121.22517,245.08873c0,10.12009 -0.2194,20.22003 -0.73891,30.24319c-45.05281,17.9015 -97.09333,14.24989 -144.25451,17.41927c-26.22212,0.88768 -163.69751,-0.61708 -206.80556,2.44393c0,0 -2.46564,0.18752 -4.49605,1.74725c-0.54792,-143.04162 -3.7996,-308.50699 0.21341,-308.50699c0,0 3.23876,1.07056 4.85304,1.60798zM435.55368,128.50502c-0.72984,-61.74288 -47.69123,-87.71994 -88.16801,-90.13044c-75.38925,-4.48964 -92.92029,57.97007 -95.03919,75.45191c-8.41773,69.44853 58.61207,106.24613 81.56349,104.8304c64.14229,-3.95639 102.04559,-56.15558 101.64371,-90.15179z" data-paper-data="{&quot;index&quot;:null}" fill="#a90000"/><path d="M241.88062,476.36653c-2.93242,-0.21029 -1.65926,-89.0993 -2.15386,-192.83224c2.42359,1.88246 5.6123,1.64007 5.6123,1.64007c42.26223,-3.39089 179.62815,-1.51245 206.41696,-2.41938c46.67547,-3.16434 97.15041,-0.37157 142.29987,-15.97369c-10.98387,123.42566 -71.38157,229.72187 -352.17527,209.58524z" data-paper-data="{&quot;index&quot;:null}" fill="#a90000"/></g><path d="M-2.15465,147.93866c37.00308,0 67,30.83017 67,68.86111c0,38.03094 -29.99692,68.86111 -67,68.86111c-37.00308,0 -67,-30.83017 -67,-68.86111c0,-38.03094 29.99693,-68.86111 67,-68.86111z" fill="url(#color-2)" stroke="none" stroke-width="NaN"/><path d="M458.71622,155.06778c45.40676,0 82.21622,37.83194 82.21622,84.5c0,46.66806 -36.80946,84.5 -82.21622,84.5c-45.40676,0 -82.21622,-37.83194 -82.21622,-84.5c0,-46.66806 36.80946,-84.5 82.21622,-84.5z" fill="url(#color-3)" stroke="none" stroke-width="NaN"/><path d="M380,294.06779c28.99495,0 52.5,13.65532 52.5,30.5c0,16.84468 -23.50505,30.5 -52.5,30.5c-28.99495,0 -52.5,-13.65532 -52.5,-30.5c0,-16.84468 23.50505,-30.5 52.5,-30.5z" fill="url(#color-4)" stroke="none" stroke-width="NaN"/><path d="M78.53358,368.7915c-5.11341,10.22681 -15.34022,5.11341 -15.34022,5.11341l-12.78192,-7.04697c-2.6494,-5.08945 -6.21471,-9.79872 -7.94821,-15.26835c-0.98797,-3.11729 0.74577,-6.62639 0,-9.81032c-1.0251,-4.3765 -5.35901,-7.94478 -5.21103,-12.4373c0.1907,-5.78939 8.2327,-17.84939 10.68067,-23.99621c8.89798,-22.34268 16.61302,-45.02818 24.24219,-67.91237c0.75973,-2.27887 9.0172,-26.67277 9.34444,-29.13135c2.35853,-17.71981 -3.70009,-30.0773 -9.06084,-46.26505c-3.17227,-6.57765 -9.08652,-11.43837 -13.42759,-17.31068c-4.34672,-5.87996 -5.40354,-13.78554 -9.81032,-19.62063c-6.77916,-8.97641 -15.32405,-11.03454 -20.90852,-21.93059c-1.75946,-3.43294 0.34262,-7.80952 -0.56449,-11.55891c-2.47632,-10.23547 -12.14039,-19.01054 -14.71548,-29.43095c-5.45287,-22.06569 6.71435,-47.63658 24.06316,-60.95425c8.49253,-6.51922 21.38734,-10.85874 31.00308,-15.66661c0,0 10.22681,-5.11341 15.34022,5.11341c5.11341,10.22681 -5.11341,15.34022 -5.11341,15.34022c-8.7103,4.35515 -19.97765,8.06738 -27.85883,13.76435c-10.17182,7.35278 -18.39662,24.52289 -15.17811,37.14893c1.59009,6.23785 6.10213,11.34109 8.90907,17.13421c1.97653,4.07927 4.67613,7.90703 5.8064,12.29675c0.6717,2.60873 -1.72589,5.63112 -0.56449,8.06172c3.62357,7.58344 13.30653,10.57451 18.33275,17.31068c4.37287,5.86054 5.37615,13.80633 9.81032,19.62063c5.48776,7.19583 11.88572,13.87204 16.00336,21.93059c0.55808,1.66444 10.38565,30.79904 10.53303,31.97501c3.86232,30.81872 -10.50562,60.25867 -20.05975,88.83493c-4.50271,13.46756 -9.71193,26.83746 -14.99908,40.00112c-1.46336,3.64339 -3.25579,7.16127 -5.24191,10.54815c-1.008,1.71891 -3.84878,2.70995 -3.69805,4.69691c0.21507,2.83505 3.85651,4.43888 4.59929,7.18334c1.24393,4.59614 -0.01085,9.78495 1.86211,14.16261l6.83872,2.76335c0,0 10.22681,5.11341 5.11341,15.34022z" fill="#000000" stroke="none" stroke-width="0.5"/><path d="M331.40865,362.90429l0.6194,-3.63147c2.06466,-12.10491 4.12932,-24.20982 6.19399,-36.31473c1.10944,-6.50454 1.12333,-13.31533 3.43757,-19.49466c1.36193,-3.63653 4.09885,-6.64945 5.48967,-10.27502c0.95106,-2.47922 0.39296,-5.39874 1.45639,-7.83188c1.09966,-2.51602 3.24685,-4.42903 4.87027,-6.64355c1.59713,-9.36384 6.41042,-14.72768 11.96054,-22.27703c3.90215,-5.30777 6.42178,-11.5438 10.31568,-16.85763c7.64398,-10.43142 18.38125,-18.4393 23.19683,-30.98275c1.5805,-4.11682 3.68836,-14.10064 3.27054,-18.46807c-0.26149,-2.73335 -2.18921,-5.14406 -2.39268,-7.88234c-0.19676,-2.64808 1.27355,-5.21696 1.2221,-7.87184c-0.16137,-8.32782 -3.80302,-16.85578 -6.18868,-24.71501c-1.46198,-4.81629 -1.80549,-10.09751 -4.27971,-14.48068c-4.08946,-7.24462 -9.42649,-13.98688 -11.93454,-21.91897c-1.11659,-3.67846 -5.39448,-17.0638 -5.03333,-19.70276c0.45774,-3.34466 4.11688,-5.43913 5.42844,-8.54977c0.95417,-2.26301 0.11373,-5.07985 1.2388,-7.26295c1.97405,-3.83047 4.39041,-7.68099 7.81237,-10.30007c7.26114,-5.5575 17.33463,-5.84455 26.11748,-8.38845c1.93394,-0.56015 4.22531,-0.29741 5.85687,-1.47721c5.66361,-4.09543 7.88117,-11.91109 13.54645,-16.00421c2.58929,-1.87074 6.23367,-1.62563 9.06878,-3.09746c3.08259,-1.6003 5.25233,-4.79751 8.50174,-6.02415c0.38011,-0.14349 0.7597,-0.09446 1.14111,0.0469c-0.03502,-0.03769 -0.06527,-0.07646 -0.09017,-0.11632c-0.97816,-1.56615 -0.06393,-3.94256 -1.18225,-5.4119c-1.66298,-2.18496 -5.07069,-2.61956 -6.64355,-4.87027c-1.8298,-2.61838 -1.63779,-6.22739 -3.09746,-9.06878c-1.37768,-2.68178 -3.54624,-4.87687 -5.31936,-7.31531c0,0 -4.9647,-7.00657 2.04187,-11.97127c7.00657,-4.9647 11.97127,2.04187 11.97127,2.04187c2.24298,3.22939 4.93225,6.19077 6.72893,9.68818c1.0518,2.04743 0.34254,4.82822 1.68789,6.69591c1.60488,2.22799 5.1103,2.59239 6.64355,4.87027c2.42809,3.60733 6.83027,21.72815 5.35278,24.77597c-1.9129,3.94599 -7.91563,3.80488 -11.67807,6.05744c-2.97998,1.78411 -5.40447,4.45244 -8.50174,6.02415c-2.05263,1.04161 -4.79849,0.38481 -6.69591,1.68789c-1.66799,1.14552 -1.91012,3.60793 -3.23823,5.13455c-3.50547,4.02942 -6.82214,8.39771 -11.19815,11.45958c-8.55264,5.98423 -22.28567,4.27792 -31.08441,9.27575c-2.86462,1.62715 -2.54853,8.913 -3.16697,10.24997c-0.89646,1.93803 -3.79488,2.66559 -4.3121,4.73732c-0.3625,1.45199 1.60864,2.54702 2.1447,3.94427c0.98356,2.56363 1.59512,5.2549 2.39268,7.88234c2.03666,7.12152 7.38125,12.8457 10.92326,19.35095c0.33667,0.61832 4.87178,15.66768 5.29099,17.0487c2.98608,9.83724 6.54935,19.40101 6.92857,29.842c0.08193,2.25567 -1.43153,4.40377 -1.25549,6.65405c0.21415,2.73747 2.22489,5.14165 2.39268,7.88234c0.36303,5.93006 -2.01014,19.49743 -4.16225,25.1096c-5.61515,14.64301 -16.61079,23.32433 -25.50587,35.45272c-2.19187,2.9886 -3.25507,6.6721 -5.19145,9.83224c-5.72093,9.33648 -13.34087,15.00656 -15.21089,25.97032c-1.62342,2.21452 -3.7608,4.13184 -4.87027,6.64355c-0.91202,2.06469 -0.21263,4.58666 -1.02121,6.69401c-1.39107,3.62548 -4.06526,6.66251 -5.48967,10.27502c-2.08404,5.28545 -1.80116,11.21948 -2.75642,16.82007c-2.06466,12.10491 -4.74872,27.84129 -6.81339,39.9462c0,0 -1.44382,8.46496 -9.90878,7.02115c-8.46496,-1.44382 -7.02115,-9.90878 -7.02115,-9.90878zM455.2702,33.72372c0.73419,-0.04849 -0.59183,-0.21083 -1.73477,-0.59018c0.56665,0.32843 1.14246,0.62931 1.73477,0.59018z" data-paper-data="{&quot;index&quot;:null}" fill="#000000" stroke="none" stroke-width="0.5"/><path d="M279.5,-24.93222c19.88225,0 36,16.56546 36,37c0,20.43454 -16.11775,37 -36,37c-19.88225,0 -36,-16.56546 -36,-37c0,-20.43454 16.11775,-37 36,-37z" fill="url(#color-5)" stroke="none" stroke-width="NaN"/><path d="M224.76339,198.10982c11.09034,7.25913 11.00861,27.00417 -0.18255,44.10178c-11.19116,17.09761 -29.25389,25.07327 -40.34423,17.81414c-11.09034,-7.25913 -11.00861,-27.00417 0.18255,-44.10178c11.19116,-17.09761 29.25389,-25.07327 40.34423,-17.81414z" fill="url(#color-6)" stroke="none" stroke-width="NaN"/><path d="M147.5,272.06779c37.00308,0 67,30.83017 67,68.86111c0,38.03094 -29.99692,68.86111 -67,68.86111c-37.00308,0 -67,-30.83017 -67,-68.86111c0,-38.03094 29.99692,-68.86111 67,-68.86111z" fill="url(#color-7)" stroke="none" stroke-width="NaN"/><path d="M274.5,210.06779c19.88225,0 36,16.56547 36,37c0,20.43454 -16.11775,37 -36,37c-19.88225,0 -36,-16.56546 -36,-37c0,-20.43453 16.11775,-37 36,-37z" fill="url(#color-8)" stroke="none" stroke-width="NaN"/><path d="M-8.4985,62.8829v-28.52853h504.5045v28.52853z" fill="url(#color-9)" stroke="none" stroke-width="0"/><path d="M-11.00601,254.06909v-28.52853h504.5045v28.52853z" fill="url(#color-10)" stroke="none" stroke-width="0"/><path d="M57.56757,372.19221v-391.89189h27.02703v391.89189z" fill="url(#color-11)" stroke="#000000" stroke-width="0"/><path d="M397.4024,377.19221v-391.89189h27.02702v391.89189z" fill="url(#color-12)" stroke="#000000" stroke-width="0"/><text transform="translate(41.05106,22.13085) scale(0.5,0.5)" font-size="40" xml:space="preserve" fill="#ff0000" fill-rule="nonzero" stroke="#ff0000" stroke-width="3" stroke-linecap="butt" stroke-linejoin="miter" stroke-miterlimit="10" stroke-dasharray="" stroke-dashoffset="0" font-family="Sans Serif" font-weight="normal" text-anchor="start" style="mix-blend-mode: normal"><tspan x="0" dy="0">GAME OVER</tspan></text><g fill="#000000" stroke="none" stroke-width="0"><path d="M-11.50149,379.4882v-394.89489h45.04505v394.89489z"/><path d="M448.45346,385.9897v-394.89489h45.04505v394.8949z"/></g><path d="M411.5,87.06778c7.1797,0 13,9.17816 13,20.5c0,11.32184 -5.8203,20.5 -13,20.5c-7.1797,0 -13,-9.17816 -13,-20.5c0,-11.32184 5.8203,-20.5 13,-20.5z" fill="url(#color-13)" stroke="none" stroke-width="NaN"/><text transform="translate(79.08409,292.89662) scale(0.5,0.5)" font-size="40" xml:space="preserve" fill="#ff0000" fill-rule="nonzero" stroke="#ff0000" stroke-width="3" stroke-linecap="butt" stroke-linejoin="miter" stroke-miterlimit="10" stroke-dasharray="" stroke-dashoffset="0" font-family="Sans Serif" font-weight="normal" text-anchor="start" style="mix-blend-mode: normal"><tspan x="0" dy="0">Don't wear the mask for too long.</tspan></text><path d="M126.84587,229.10191c11.83553,0.95657 21.05141,6.41776 20.58425,12.1979c-0.46716,5.78014 -10.44046,9.69042 -22.27599,8.73385c-11.83553,-0.95657 -21.05141,-6.41776 -20.58425,-12.1979c0.46716,-5.78014 10.44046,-9.69042 22.27599,-8.73385z" fill="url(#color-14)" stroke="none" stroke-width="NaN"/></g></g></svg>