<svg version="1.1" xmlns="http://www.w3.org/2000/svg" xmlns:xlink="http://www.w3.org/1999/xlink" width="1047.79567" height="938.20516" viewBox="0,0,1047.79567,938.20516"><defs><linearGradient x1="237.8551" y1="412.6704" x2="238.66147" y2="438.62602" gradientUnits="userSpaceOnUse" id="color-1"><stop offset="0" stop-color="#5c5c5c"/><stop offset="1" stop-color="#9b9b9b"/></linearGradient><linearGradient x1="282.02874" y1="492.71047" x2="303.46138" y2="507.37268" gradientUnits="userSpaceOnUse" id="color-2"><stop offset="0" stop-color="#5c5c5c"/><stop offset="1" stop-color="#9b9b9b"/></linearGradient><linearGradient x1="200.47601" y1="497.71845" x2="179.9949" y2="513.68304" gradientUnits="userSpaceOnUse" id="color-3"><stop offset="0" stop-color="#5c5c5c"/><stop offset="1" stop-color="#9b9b9b"/></linearGradient><linearGradient x1="231.63236" y1="703.25244" x2="262.53185" y2="702.29244" gradientUnits="userSpaceOnUse" id="color-4"><stop offset="0" stop-color="#5c5c5c"/><stop offset="1" stop-color="#9b9b9b"/></linearGradient><linearGradient x1="240.9724" y1="322.01045" x2="242.24787" y2="363.06495" gradientUnits="userSpaceOnUse" id="color-5"><stop offset="0" stop-color="#a6a6a6"/><stop offset="1" stop-color="#707070"/></linearGradient><linearGradient x1="239.46889" y1="311.76034" x2="240.04454" y2="330.28903" gradientUnits="userSpaceOnUse" id="color-6"><stop offset="0" stop-color="#a6a6a6"/><stop offset="1" stop-color="#707070"/></linearGradient><linearGradient x1="344.74256" y1="422.26456" x2="383.26785" y2="421.06767" gradientUnits="userSpaceOnUse" id="color-7"><stop offset="0" stop-color="#5c5c5c"/><stop offset="1" stop-color="#9b9b9b"/></linearGradient><linearGradient x1="116.19056" y1="426.94945" x2="77.66528" y2="428.14635" gradientUnits="userSpaceOnUse" id="color-8"><stop offset="0" stop-color="#5c5c5c"/><stop offset="1" stop-color="#9b9b9b"/></linearGradient><linearGradient x1="200.85959" y1="586.9303" x2="284.86269" y2="584.32051" gradientUnits="userSpaceOnUse" id="color-9"><stop offset="0" stop-color="#004184"/><stop offset="1" stop-color="#0023e3"/></linearGradient><linearGradient x1="213.90648" y1="413.60975" x2="261.48747" y2="412.13151" gradientUnits="userSpaceOnUse" id="color-10"><stop offset="0" stop-color="#004184"/><stop offset="1" stop-color="#0023e3"/></linearGradient><linearGradient x1="275.54279" y1="244.94564" x2="278.1478" y2="333.29456" gradientUnits="userSpaceOnUse" id="color-11"><stop offset="0" stop-color="#a6a6a6"/><stop offset="1" stop-color="#707070"/></linearGradient><linearGradient x1="190.79028" y1="249.01751" x2="193.3953" y2="337.36649" gradientUnits="userSpaceOnUse" id="color-12"><stop offset="0" stop-color="#a6a6a6"/><stop offset="1" stop-color="#707070"/></linearGradient><linearGradient x1="224.27728" y1="165.42773" x2="225.57313" y2="201.96003" gradientUnits="userSpaceOnUse" id="color-13"><stop offset="0" stop-color="#a6a6a6"/><stop offset="1" stop-color="#707070"/></linearGradient><linearGradient x1="232.27669" y1="188.34094" x2="234.77166" y2="258.67919" gradientUnits="userSpaceOnUse" id="color-14"><stop offset="0" stop-color="#a6a6a6"/><stop offset="1" stop-color="#707070"/></linearGradient><linearGradient x1="178.94231" y1="171.87367" x2="203.20355" y2="256.86612" gradientUnits="userSpaceOnUse" id="color-15"><stop offset="0" stop-color="#a6a6a6"/><stop offset="1" stop-color="#707070"/></linearGradient><linearGradient x1="284.92593" y1="170.84411" x2="266.74761" y2="257.34187" gradientUnits="userSpaceOnUse" id="color-16"><stop offset="0" stop-color="#a6a6a6"/><stop offset="1" stop-color="#707070"/></linearGradient><linearGradient x1="233.39971" y1="242.34954" x2="234.11532" y2="262.52405" gradientUnits="userSpaceOnUse" id="color-17"><stop offset="0" stop-color="#a6a6a6"/><stop offset="1" stop-color="#707070"/></linearGradient><linearGradient x1="-73.53291" y1="383.66963" x2="-106.76224" y2="351.10431" gradientUnits="userSpaceOnUse" id="color-18"><stop offset="0" stop-color="#5c5c5c"/><stop offset="1" stop-color="#9b9b9b"/></linearGradient><linearGradient x1="-195.7206" y1="361.7065" x2="-185.98939" y2="325.27272" gradientUnits="userSpaceOnUse" id="color-19"><stop offset="0" stop-color="#5c5c5c"/><stop offset="1" stop-color="#9b9b9b"/></linearGradient><linearGradient x1="0.08152" y1="432.69446" x2="5.98357" y2="395.44825" gradientUnits="userSpaceOnUse" id="color-20"><stop offset="0" stop-color="#5c5c5c"/><stop offset="1" stop-color="#9b9b9b"/></linearGradient><linearGradient x1="533.5648" y1="411.47339" x2="572.43109" y2="385.89821" gradientUnits="userSpaceOnUse" id="color-21"><stop offset="0" stop-color="#5c5c5c"/><stop offset="1" stop-color="#9b9b9b"/></linearGradient><linearGradient x1="656.10451" y1="417.47466" x2="654.85551" y2="379.7844" gradientUnits="userSpaceOnUse" id="color-22"><stop offset="0" stop-color="#5c5c5c"/><stop offset="1" stop-color="#9b9b9b"/></linearGradient><linearGradient x1="457.59814" y1="429.32782" x2="454.43978" y2="391.74939" gradientUnits="userSpaceOnUse" id="color-23"><stop offset="0" stop-color="#5c5c5c"/><stop offset="1" stop-color="#9b9b9b"/></linearGradient></defs><g transform="translate(295.85869,83.18139)"><g data-paper-data="{&quot;isPaintingLayer&quot;:true}" fill-rule="nonzero" stroke-linejoin="miter" stroke-miterlimit="10" stroke-dasharray="" stroke-dashoffset="0" style="mix-blend-mode: normal"><path d="M233.14679,302.77808c24.84752,-0.23085 60.01378,58.62696 113.59476,131.87281c40.88806,55.89449 105.48801,117.31226 107.56415,184.13859c4.7968,154.39756 -87.60543,225.804 -204.21338,229.42675c-116.60791,3.62274 -213.26452,-61.91008 -218.06129,-216.30761c-2.55591,-82.26902 57.17579,-143.25491 106.39388,-207.51572c43.15151,-56.33998 74.85922,-121.43033 94.72188,-121.61485z" fill="#696969" stroke="#000000" stroke-width="2" stroke-linecap="butt"/><path d="M107.64749,442.69633l-0.80638,-25.95562l262.02802,-8.14063l0.80638,25.95562z" fill="url(#color-1)" stroke="none" stroke-width="0" stroke-linecap="butt"/><path d="M228.96473,570.27611l106.12781,-155.1314l21.43257,14.66244l-106.12785,155.13136z" fill="url(#color-2)" stroke="none" stroke-width="0" stroke-linecap="butt"/><path d="M237.77142,587.80518l-115.55305,-148.24434l20.48106,-15.96453l115.55305,148.24434z" data-paper-data="{&quot;index&quot;:null}" fill="url(#color-3)" stroke="none" stroke-width="0" stroke-linecap="butt"/><path d="M236.07928,846.38831l-8.89382,-286.27169l30.89954,-0.95997l8.89384,286.27175z" fill="url(#color-4)" stroke="none" stroke-width="0" stroke-linecap="butt"/><path d="M226.14589,585.76898c2.18272,4.09137 -1.90854,6.27406 -1.90854,6.27406l-2.8953,1.27678c-7.21857,7.46803 -11.30239,17.40209 -16.43301,26.47919c-18.75179,32.80984 -63.47533,30.30674 -81.32872,-2.65005c-10.02787,-18.51115 -1.67393,-47.90305 8.57733,-64.18583c15.18346,-27.5909 16.08035,-50.71018 7.29464,-80.45786c-2.23489,-7.56724 -6.87089,-19.17065 -14.29843,-24.59206c1.18293,-0.9231 1.67312,-2.26815 1.67312,-2.26815c0.6897,-1.96931 1.57627,-3.90629 2.69911,-5.6778c7.22435,4.91105 12.16954,13.37077 15.79038,21.75208c14.32638,33.16159 12.00254,64.60748 -5.16705,95.94978c-8.84688,14.02631 -14.37813,34.62093 -10.24852,51.45293c1.15159,4.69382 5.10666,8.32068 8.43409,11.38916c5.90173,5.44239 12.13975,12.447 20.52786,14.01525c16.57128,3.09824 30.32044,-5.57839 37.9726,-19.29095c5.57795,-9.86806 10.0406,-20.04573 17.78518,-28.30553l5.25138,-3.06944c0,0 4.0913,-2.18276 6.27405,1.9086z" fill="#000000" stroke="none" stroke-width="0.5" stroke-linecap="butt"/><path d="M251.41097,566.55614c4.63494,-0.144 4.77894,4.49094 4.77894,4.49094l-0.13343,3.53326c-3.07488,10.11309 -3.97373,21.08897 -8.02627,30.90612c-2.22571,5.39175 -9.14129,12.88383 -8.28972,19.50464c0.87629,6.81334 7.9155,12.7075 12.29573,17.27282c9.8817,10.29911 21.71618,18.15454 31.87782,28.26826c2.10598,4.88167 5.13735,9.75042 4.24698,15.43215c-3.20834,20.47446 -32.86518,32.94826 -48.20809,43.32533c-4.46984,3.02316 -10.90703,3.94346 -13.76458,8.52103c-0.84804,1.35839 0.62336,3.14656 1.08545,4.67981c2.41878,8.02673 5.07885,14.231 9.98837,21.0332c4.83077,6.69306 9.02966,10.75726 16.04216,15.05419c0,0 3.9494,2.43009 1.51926,6.37951c-2.43019,3.94942 -6.37956,1.51917 -6.37956,1.51917c-8.00484,-4.94406 -13.19129,-9.87704 -18.70426,-17.52843c-4.93671,-6.85162 -16.69521,-25.59418 -11.94687,-35.07819c0.7553,-1.50861 14.79514,-10.7954 16.96429,-12.2624c14.6606,-9.91559 50.56105,-24.05276 41.49905,-45.84356c-13.99286,-13.39203 -43.16749,-28.46287 -45.74926,-49.90358c-1.07831,-8.95498 5.86618,-16.49206 8.99208,-24.0116c3.92901,-9.45141 4.73178,-20.19003 7.6814,-29.9575l-0.26048,-0.55617c0,0 -0.144,-4.63488 4.49094,-4.77888z" fill="#000000" stroke="none" stroke-width="0.5" stroke-linecap="butt"/><path d="M347.86488,418.26071c0.75002,4.83198 -4.08189,5.58199 -4.08189,5.58199l-3.56046,0.48517c-12.91027,4.26753 -22.16251,10.9778 -32.72627,19.57033c-0.23278,0.18938 -10.176,7.24334 -9.42899,10.23208c0.38621,1.54542 3.09639,0.86289 4.49159,1.63157c2.85522,1.573 5.47549,3.53964 8.18492,5.3523c11.60916,7.76692 26.18527,4.92057 40.05187,5.16636c4.06439,0.287 8.50042,-0.86117 12.19308,0.86092c2.5539,1.19101 3.23609,4.61854 4.70851,7.02125c3.15253,5.14449 15.97767,23.10206 14.99589,28.78103c-0.73388,4.24462 -5.89272,6.29069 -9.00686,9.26683c-6.10643,5.83596 -15.72127,16.33754 -23.27236,19.93286c-11.49473,5.47303 -35.48931,6.68862 -47.86562,4.5924c-7.32967,-1.24143 -14.14493,-4.62088 -21.21514,-7.15522c-4.92589,7.24779 -10.9925,13.50177 -18.84174,17.49814c-0.50203,1.13987 -2.15556,3.94819 -5.92185,2.80708c-4.67969,-1.41789 -3.26185,-6.09763 -3.26185,-6.09763l3.23645,-4.70533c6.25396,-2.62917 11.12946,-7.21294 15.16291,-12.66314c-1.16095,-0.82322 -2.28999,-2.30832 -1.73844,-4.8805c1.02514,-4.78113 5.80626,-3.75596 5.80626,-3.75596c0.41214,0.0888 0.82489,0.17986 1.23813,0.27311c2.82802,-5.09794 5.23954,-10.43997 7.5582,-15.36936c-1.67153,-9.34125 -11.57825,-7.37386 -19.49542,-7.30294c-3.3568,0.03005 -6.98467,0.29176 -10.76043,0.64546c6.82527,10.78885 12.64463,21.69 7.63255,33.84971c-2.52428,6.12424 -4.25506,7.09539 -8.68773,11.76527l-4.72162,3.16113c0,0 -4.07809,2.69795 -6.77607,-1.38019c-2.69802,-4.07809 1.38019,-6.77607 1.38019,-6.77607l3.8355,-2.49996c11.52791,-12.09902 4.81811,-24.47321 -3.09358,-37.0462c-10.82716,1.11699 -21.93414,1.98417 -30.76391,-0.29016c-13.23955,-3.41027 -7.25067,-17.65529 -5.33668,-26.75124c4.22774,-20.09125 9.68637,-36.45138 27.82348,-47.66527c2.55372,-1.55791 6.5587,-3.72344 10.77589,-6.31612c1.76546,-4.21144 3.8558,-8.30325 6.51728,-12.23532c2.11731,-3.12801 5.94085,-5.06981 4.83669,-9.53403c-3.28403,-13.27736 -20.04228,-24.10064 -26.79575,-35.89052c-9.56474,-16.69763 0.71633,-32.53001 -4.65671,-49.4023c0,0 -1.44617,-4.67102 3.22483,-6.11724c1.39911,-0.43318 2.50888,-0.31752 3.37711,0.057c0.77468,-1.22659 2.24786,-2.50916 4.94063,-1.9911c4.80173,0.92383 3.87795,5.72558 3.87795,5.72558c-3.13337,16.23052 -5.8585,34.29333 1.27772,50.08603c6.82513,15.10424 40.16426,26.22208 29.7619,47.68443c-1.70101,3.5096 -4.8037,6.18007 -7.61564,8.88267c-2.46304,2.3671 -5.41394,4.16763 -8.12525,6.2457c-0.76921,0.58962 -1.54354,1.17282 -2.32271,1.74972c-2.39562,5.9008 -3.98034,12.03128 -5.86039,18.19323c-4.90572,9.83301 -10.22864,20.32079 -7.46251,31.73095c1.21841,5.02581 3.71269,9.90176 6.61245,14.72943c13.94002,-1.12357 38.25578,-4.45784 44.433,7.8932c1.49897,2.99716 1.25851,6.58293 1.88775,9.8744c-2.23779,5.53968 -4.68938,11.27351 -7.57569,16.76641c19.38026,5.32631 39.69115,12.21373 59.49389,2.78496c7.52914,-3.58493 14.36972,-13.43015 21.07208,-18.49391c1.80177,-1.36125 5.38993,-1.31696 5.77466,-3.54209c0.38468,-2.22515 -3.01006,-3.38812 -4.25022,-5.27529c-6.40342,-9.74418 -6.1347,-20.78557 -18.18392,-19.94378c-9.90467,-0.17554 -26.57859,2.79649 -35.80746,-0.82595c-0.71376,-0.28017 -16.3882,-10.39222 -17.60832,-11.28582c-2.92291,-2.14071 -7.71134,-3.28659 -8.45259,-6.83288c-2.10595,-10.07419 6.53221,-15.71881 12.50242,-20.74588c11.28567,-9.50285 21.91206,-16.69982 35.89597,-21.32526l5.1306,-0.86385c0,0 4.83198,-0.75005 5.58202,4.0819zM240.7065,430.74172c-15.6677,9.44162 -19.7394,24.11513 -23.35825,41.36147c-0.85481,4.07368 -3.65774,10.88051 -3.18783,15.07308c0.36295,3.23867 6.51625,-0.16273 9.77246,-0.29718c4.45536,-0.18392 8.91299,-0.30568 13.37058,-0.42906c-2.41213,-4.22415 -4.42587,-8.468 -5.41118,-12.72875c-3.16315,-13.67817 1.85899,-25.86783 7.84287,-37.80489c0.56625,-1.88378 1.12392,-3.75718 1.69124,-5.6172c-0.23973,0.14805 -0.47969,0.29555 -0.71992,0.44256z" fill="#000000" stroke="none" stroke-width="0.5" stroke-linecap="butt"/><g><path d="M176.65994,616.28702l-3.91672,-126.0701l131.32301,-4.07991l3.91672,126.0701z" fill="#323232" stroke="none" stroke-width="0" stroke-linecap="butt"/><g stroke="#000000"><path d="M238.18896,497.09687c28.05535,-0.87161 51.50537,21.16525 52.37699,49.22063c0.87161,28.05535 -21.16524,51.50541 -49.22058,52.37702c-28.05535,0.87161 -51.50537,-21.16532 -52.377,-49.22061c-0.87161,-28.05535 21.16528,-51.50542 49.22058,-52.37704z" fill="#878787" stroke-width="1" stroke-linecap="butt"/><path d="M278.35062,515.32796l-78.38005,2.96535" fill="none" stroke-width="1.5" stroke-linecap="round"/><path d="M285.68112,529.41607l-91.65558,2.31733" fill="none" stroke-width="1.5" stroke-linecap="round"/><path d="M189.60374,543.00522l98.06144,-0.92568" fill="none" stroke-width="1.5" stroke-linecap="round"/><path d="M289.79592,552.35266l-99.61767,2.03451" fill="none" stroke-width="1.5" stroke-linecap="round"/><path d="M262.21977,504.1684l-45.65391,0.84735" fill="none" stroke-width="1.5" stroke-linecap="round"/><path d="M201.2769,580.2513l78.41295,-1.90587" data-paper-data="{&quot;index&quot;:null}" fill="none" stroke-width="1.5" stroke-linecap="round"/><path d="M194.50906,567.2062l91.62267,-3.37671" data-paper-data="{&quot;index&quot;:null}" fill="none" stroke-width="1.5" stroke-linecap="round"/><path d="M218.66427,592.47319l45.61853,-1.98825" data-paper-data="{&quot;index&quot;:null}" fill="none" stroke-width="1.5" stroke-linecap="round"/></g></g><path d="M235.28395,308.58229c-4.40613,0.52152 -0.38499,89.50629 5.13006,195.44753c-0.28669,0.00399 -0.57403,0.01038 -0.86177,0.01932c-26.9926,0.8386 -48.19462,23.40026 -47.35602,50.3928c0.8386,26.9926 23.40025,48.19454 50.39287,47.35594c1.00263,-0.03115 1.9972,-0.09224 2.98302,-0.18244c6.84221,129.65035 12.8776,253.14414 6.65742,252.40503c-115.84921,-13.76592 -213.26455,-61.91007 -218.06134,-216.3076c-2.50825,-80.73525 47.80876,-135.82544 95.94724,-199.74428c43.92123,-58.31912 84.8835,-129.19778 105.16856,-129.38625z" fill="#ffe400" stroke="#000000" stroke-width="2" stroke-linecap="butt"/><path d="M458.46602,624.53082c4.7968,154.39756 -89.44219,208.49599 -204.21337,229.42676c-6.16229,1.12384 -7.8045,-122.50644 -9.02359,-252.33147c0.98952,0.02882 1.98602,0.02813 2.98859,-0.00301c26.9926,-0.8386 48.19462,-23.40026 47.35602,-50.3928c-0.8386,-26.9926 -23.40025,-48.19456 -50.39288,-47.35595c-0.28777,0.00894 -0.57488,0.02036 -0.8613,0.03422c-1.072,-106.07925 -2.58237,-195.14205 -7.01236,-195.38906c22.13703,-1.17052 49.14726,57.46505 100.14835,121.71357c46.82256,58.98454 118.71461,120.39665 121.01056,194.29783z" data-paper-data="{&quot;index&quot;:null}" fill="#ffe400" stroke="#000000" stroke-width="2" stroke-linecap="butt"/><path d="M218.78816,363.7938l-1.27548,-41.05448l46.91944,-1.45769l1.27548,41.05448z" fill="url(#color-5)" stroke="none" stroke-width="0" stroke-linecap="butt"/><path d="M194.83261,331.69366l-0.57564,-18.52868l90.42384,-2.80927l0.57564,18.52868z" fill="url(#color-6)" stroke="none" stroke-width="0" stroke-linecap="butt"/><path d="M383.26785,421.06767c0.33051,10.63849 -8.02574,19.5306 -18.66415,19.86112c-10.63843,0.3305 -19.53057,-8.02579 -19.8611,-18.6642c-0.33052,-10.63847 8.02571,-19.53056 18.66422,-19.86109c10.63843,-0.3305 19.53053,8.02572 19.86104,18.66418z" fill="url(#color-7)" stroke="none" stroke-width="0" stroke-linecap="butt"/><path d="M96.32945,408.28527c10.63846,-0.33052 19.5306,8.02567 19.86112,18.66415c0.3305,10.63843 -8.02575,19.53061 -18.6642,19.86112c-10.63843,0.3305 -19.53053,-8.02572 -19.86104,-18.66419c-0.33052,-10.63846 8.02576,-19.53053 18.66414,-19.86104z" data-paper-data="{&quot;index&quot;:null}" fill="url(#color-8)" stroke="none" stroke-width="0" stroke-linecap="butt"/><path d="M237.07994,399.54258c23.19676,-0.72068 33.01411,196.17323 51.28031,297.35801c2.24981,12.46277 -16.52116,74.08695 -39.71796,74.80762c-23.19678,0.72067 -43.28908,-40.13862 -42.62662,-78.76855c1.76301,-102.80514 7.86742,-292.6764 31.06427,-293.39707z" fill="url(#color-9)" stroke="#000000" stroke-width="1" stroke-linecap="butt"/><path d="M169.17829,395.80007c-0.51347,-16.52778 29.97301,-30.88624 68.09352,-32.07055c38.12049,-1.18432 69.43951,11.25398 69.953,27.78177c0.36769,11.83522 -15.1605,22.55806 -38.00489,28.12776c-4.30194,1.04888 -17.9549,-37.73924 -30.89873,-37.42847c-14.30916,0.34357 -28.02489,39.67922 -33.33786,38.54522c-21.05771,-4.49457 -35.45823,-13.79228 -35.80507,-24.95566z" fill="#ffffff" stroke="#000000" stroke-width="2" stroke-linecap="butt"/><path d="M236.93616,388.38042c13.13918,-0.40821 24.21953,0.07051 24.55137,23.75112c0.2877,20.53366 -9.89053,24.82114 -23.02967,25.22937c-13.13918,0.40821 -23.6753,-2.18673 -24.55137,-23.75112c-0.93308,-22.96655 9.89053,-24.82114 23.02967,-25.22937z" fill="url(#color-10)" stroke="#000000" stroke-width="1" stroke-linecap="butt"/><path d="M278.55733,2.0661c-20.00302,29.50618 -41.32878,49.96145 -47.63239,45.68808c-6.30362,-4.27334 4.80199,-31.65713 24.805,-61.16332c20.00301,-29.5062 62.21337,-35.80325 68.51699,-31.52987c6.30363,4.27338 -25.68655,17.49895 -45.68958,47.0051z" fill="#ffe400" stroke="#000000" stroke-width="1" stroke-linecap="butt"/><path d="M238.93158,-17.14859c4.9228,35.30582 2.79918,64.77945 -4.74354,65.83114c-7.54263,1.05173 -17.64787,-26.7167 -22.5707,-62.02258c-4.92279,-35.30589 22.1905,-68.26386 29.73309,-69.31556c7.54262,-1.0517 -7.34171,30.20121 -2.41893,65.50701z" fill="#ffe400" stroke="#000000" stroke-width="1" stroke-linecap="butt"/><path d="M205.55325,-14.48144c22.55752,27.60244 36.06365,53.88532 30.16679,58.7044c-5.89691,4.81912 -28.96382,-13.65044 -51.52128,-41.25288c-22.55751,-27.60242 -16.52656,-69.85161 -10.62965,-74.6707c5.89691,-4.81912 9.42667,29.61678 31.98415,57.21921z" fill="#ffe400" stroke="#000000" stroke-width="1" stroke-linecap="butt"/><path d="M54.12123,222.57436c-3.15681,-88.99756 116.28209,-195.25457 174.44807,-198.63801c54.85142,-1.92447 176.87061,97.06695 180.02743,186.06442c3.15683,88.9976 -73.63612,163.95909 -171.52177,167.43118c-97.88568,3.4721 -179.79685,-65.85999 -182.95366,-154.85756z" data-paper-data="{&quot;index&quot;:null}" fill="#696969" stroke="#000000" stroke-width="2" stroke-linecap="butt"/><path d="M271.33074,333.49553l-2.60504,-88.34883l13.6341,-0.40197l2.60508,88.34883z" fill="url(#color-11)" stroke="none" stroke-width="0" stroke-linecap="butt"/><path d="M186.57818,337.56741l-2.60504,-88.34883l13.63409,-0.40201l2.60503,88.34889z" fill="url(#color-12)" stroke="none" stroke-width="0" stroke-linecap="butt"/><path d="M206.57701,215.87667c0.14924,2.12471 -1.97553,2.27404 -1.97553,2.27404l-1.4701,0.10312c-10.40271,0.82078 -21.83715,1.90627 -28.42059,11.04335c-6.81732,9.22776 -16.11848,7.16801 -23.33713,14.25784c-2.73213,2.68339 -4.14518,9.6378 -7.44776,12.10737c1.80282,4.5971 5.83341,7.6166 12.79912,6.65076c0.2541,-0.03525 5.81604,-1.36814 6.44021,-1.92403c3.12603,-2.78405 4.19477,-15.41719 7.48122,-20.11095c5.03552,-2.7601 9.72364,-2.1166 15.0501,-3.63098c7.51659,-2.13722 12.66938,-7.85491 18.20325,-12.94708l1.44634,-1.37089c0,0 1.54601,-1.46506 3.01113,0.08101c1.4651,1.54609 -0.08097,3.01119 -0.08097,3.01119l-1.49212,1.4135c-6.10579,5.61812 -11.74437,11.55653 -20.01265,13.93435c-4.43341,1.27499 -9.0971,0.481 -13.26067,2.6619c-3.28797,5.23026 -3.32522,15.93434 -7.15426,19.77944c-5.23835,5.26024 -19.69902,5.63942 -23.66737,-0.80204c-1.12409,-1.82468 -2.01895,-3.65865 -2.69378,-5.49629c-9.26286,1.16892 -15.24105,-6.81738 -20.10018,-13.43665c-0.78776,-1.07311 -5.46779,-7.26214 -5.45437,-8.16013c0.01337,-0.89802 4.87567,-6.94496 5.69507,-7.99412c0.56214,-0.71981 5.39938,-6.98551 5.86267,-7.25133c4.60873,-2.64417 12.31356,0.2463 16.78238,-2.21219c4.99994,-2.75068 8.48892,-16.05389 12.03163,-20.72318c5.23525,-6.90013 14.36159,-8.74069 21.81564,-12.33599c0,0 1.91852,-0.9253 2.84377,0.99317c0.05994,0.12427 0.10802,0.24433 0.14534,0.36033c0.2711,-0.05321 0.53885,-0.10808 0.80277,-0.1653c0,0 2.08169,-0.4509 2.53254,1.63086c0.45081,2.08171 -1.63086,2.53254 -1.63086,2.53254c-4.96109,1.07413 -13.62558,1.02398 -17.0299,5.50448c-7.2323,9.51852 2.46003,23.43459 -5.10352,32.2268c-3.05127,3.54697 -8.58496,5.29812 -12.69191,7.3771c-2.6113,4.44464 -4.03236,10.25293 -3.65769,15.3634c2.39074,-3.57731 5.98205,-11.57787 8.76054,-13.15303c8.24981,-4.67705 13.63098,-2.49374 19.68392,-10.70161c7.63366,-10.14118 19.6299,-11.82269 31.51293,-12.76023l1.50675,-0.10592c0,0 2.12471,-0.14924 2.27392,1.97547zM145.11034,221.4246c-8.97055,5.31208 -14.41943,-0.69754 -21.6169,8.51876c-1.48684,1.90386 -4.75692,3.0202 -4.79296,5.43548c-0.03596,2.41532 3.19952,3.62862 4.62898,5.57587c4.3906,5.98115 7.74942,11.59564 15.46864,11.56496c-1.23781,-6.89877 0.51666,-13.78645 4.7833,-20.36721c3.7462,-2.10897 9.45586,-3.8232 12.35893,-7.02693c5.37969,-5.93708 0.84591,-16.4992 2.16616,-25.2806c-4.04173,5.54165 -7.08785,18.081 -12.99616,21.57972z" fill="#000000" stroke="none" stroke-width="0.5" stroke-linecap="butt"/><path d="M247.15961,209.53926l1.51041,-0.00108c11.91961,0.09328 24.00478,0.92054 32.33782,10.49536c6.61936,7.7584 11.83227,5.19943 20.39268,9.2801c2.88314,1.37433 7.03223,9.10029 9.67042,12.49926c0.01168,-5.12417 -1.81739,-10.81714 -4.73709,-15.06562c-4.2439,-1.78277 -9.88772,-3.13742 -13.18267,-6.4593c-8.16748,-8.23418 0.51445,-22.80193 -7.37409,-31.78412c-3.71322,-4.22806 -12.35239,-3.56418 -17.3771,-4.28414c0,0 -2.10844,-0.30219 -1.8062,-2.41062c0.30219,-2.10842 2.41067,-1.80622 2.41067,-1.80622c0.26739,0.03836 0.53833,0.07421 0.81247,0.10803c0.02904,-0.11834 0.06842,-0.24147 0.11937,-0.36976c0.78707,-1.9792 2.76625,-1.19216 2.76625,-1.19216c7.69008,3.05811 16.92383,4.24738 22.63486,10.75929c3.86459,4.4066 8.28742,17.42913 13.46969,19.81864c4.63178,2.13571 12.11242,-1.29343 16.89691,1.01752c0.48102,0.23233 5.75007,6.13951 6.36178,6.81773c0.89163,0.98847 6.17012,6.67572 6.24709,7.57053c0.07699,0.89481 -4.15278,7.39979 -4.86253,8.52608c-4.37791,6.947 -9.77526,15.33677 -19.09769,14.82704c-0.54288,1.88081 -1.30553,3.77361 -2.29752,5.67332c-3.50197,6.70656 -17.9532,7.35282 -23.55105,2.47689c-4.09186,-3.56412 -4.88737,-14.23867 -8.53772,-19.22284c-4.3076,-1.88043 -8.90336,-0.75798 -13.41596,-1.71565c-8.4159,-1.78596 -14.46098,-7.31 -20.94961,-12.48141l-1.58843,-1.30432c0,0 -1.64599,-1.35185 -0.29413,-2.99783c1.35187,-1.64602 2.99784,-0.29416 2.99784,-0.29416l1.53983,1.26498c5.88083,4.68732 11.42577,10.02555 19.07485,11.62479c5.42039,1.13331 10.05117,0.15913 15.26958,2.55551c3.61075,4.44913 5.57191,16.97477 8.88732,19.53033c0.66206,0.51027 6.3044,1.44574 6.56034,1.46292c7.01664,0.46991 10.8231,-2.82767 12.29566,-7.54088c-3.46929,-2.22932 -5.37146,-9.06619 -8.28683,-11.54919c-7.70286,-6.56051 -16.83465,-3.847 -24.28869,-12.56855c-7.21423,-8.64767 -18.69699,-8.92029 -29.13171,-9.00191l-1.47368,0.00124c0,0 -2.12995,0.00168 -2.13169,-2.12828c-0.00166,-2.12994 2.12829,-2.13161 2.12829,-2.13161zM292.24407,192.24517c1.93914,8.66586 -1.83486,19.5226 3.95198,25.06352c3.12279,2.99006 8.93955,4.29542 12.82574,6.1336c4.72212,6.26195 6.96019,13.0081 6.21434,19.97722c7.70201,-0.51631 10.65453,-6.35476 14.61034,-12.63189c1.28785,-2.04369 4.4293,-3.48309 4.22227,-5.88986c-0.207,-2.4067 -3.54805,-3.28856 -5.16604,-5.08233c-7.83236,-8.68311 -12.84167,-2.30257 -22.16607,-6.9657c-6.14133,-3.07131 -10.06828,-15.36326 -14.49252,-20.60462z" data-paper-data="{&quot;index&quot;:null}" fill="#000000" stroke="none" stroke-width="0.5" stroke-linecap="butt"/><path d="M186.58725,203.3429l-1.29582,-36.53228l77.9718,-2.76573l1.29582,36.53228z" fill="url(#color-13)" stroke="#000000" stroke-width="0" stroke-linecap="butt"/><path d="M198.96804,259.94919l-2.49497,-70.33821l71.60715,-2.53998l2.49497,70.33821z" fill="url(#color-14)" stroke="none" stroke-width="0" stroke-linecap="butt"/><path d="M196.64547,258.7381l-24.26118,-84.99232l13.11609,-3.74402l24.26121,84.99237z" fill="url(#color-15)" stroke="none" stroke-width="0" stroke-linecap="butt"/><path d="M260.07343,255.93927l18.17827,-86.49772l13.34841,2.8053l-18.17831,86.49777z" data-paper-data="{&quot;index&quot;:null}" fill="url(#color-16)" stroke="none" stroke-width="0" stroke-linecap="butt"/><path d="M311.01134,170.91444c0.5469,15.41828 -11.89932,28.37435 -27.79939,28.93833c-15.90012,0.564 -29.23287,-11.47772 -29.77977,-26.89595c-0.5469,-15.41828 11.89925,-28.37442 27.79932,-28.93841c15.90006,-0.56399 29.23299,11.47782 29.77988,26.89604z" data-paper-data="{&quot;index&quot;:null}" fill="#000000" stroke="#000000" stroke-width="2" stroke-linecap="butt"/><path d="M183.29096,264.32685l-0.71559,-20.17452l101.64878,-3.60558l0.71559,20.17452z" fill="url(#color-17)" stroke="none" stroke-width="0" stroke-linecap="butt"/><path d="M186.37712,146.65509c15.90009,-0.564 29.23294,11.47776 29.77984,26.89597c0.5469,15.41828 -11.89936,28.37438 -27.79934,28.93837c-15.90012,0.564 -29.23299,-11.47777 -29.77988,-26.89598c-0.5469,-15.41828 11.89921,-28.37438 27.79938,-28.93837z" fill="#000000" stroke="#000000" stroke-width="2" stroke-linecap="butt"/><g stroke="#000000" stroke-linecap="butt"><path d="M235.41334,273.21397c108.51954,-3.46626 19.19215,97.96916 3.13633,98.53866c-16.87401,0.59854 -124.79388,-94.65274 -3.13633,-98.53866z" fill="#ffe400" stroke-width="2"/><path d="M235.10669,278.55281c72.50893,-2.31606 12.76162,61.1555 2.03376,61.53603c-11.27463,0.39992 -83.32095,-58.93961 -2.03376,-61.53603z" fill="#ff0700" stroke-width="1"/></g><path d="M202.39211,173.64763c0.18922,5.33425 -3.74146,9.8034 -8.77935,9.98208c-5.03789,0.17868 -9.27534,-4.0007 -9.46452,-9.33496c-0.18922,-5.33425 3.74146,-9.8034 8.77935,-9.98208c5.03789,-0.17868 9.27534,4.0007 9.46452,9.33496z" fill="#000000" stroke="#ff0000" stroke-width="2" stroke-linecap="butt"/><path d="M287.55705,171.38788c0.18922,5.33425 -3.74146,9.8034 -8.77935,9.98208c-5.03789,0.17868 -9.27534,-4.0007 -9.46452,-9.33496c-0.18922,-5.33425 3.74146,-9.8034 8.77935,-9.98208c5.03789,-0.17868 9.27534,4.0007 9.46452,9.33496z" fill="#000000" stroke="#ff0000" stroke-width="2" stroke-linecap="butt"/><path d="M-106.76225,351.10436c8.99268,-9.17609 23.72134,-9.32466 32.89731,-0.33198c9.17599,8.9927 9.32463,23.72129 0.33196,32.89735c-8.99265,9.17607 -23.72136,9.32461 -32.89738,0.33192c-9.17593,-8.99264 -9.32468,-23.72126 -0.3319,-32.89729z" data-paper-data="{&quot;index&quot;:null}" fill="url(#color-18)" stroke="none" stroke-width="0" stroke-linecap="butt"/><g data-paper-data="{&quot;index&quot;:null}" stroke-linecap="butt"><path d="M-266.94886,266.72519c0,0 65.02325,5.46752 95.4453,13.50006c29.60473,7.81674 83.24235,39.53047 83.24235,39.53047l-25.54444,95.63865c0,0 -60.14187,1.67186 -89.24981,-6.01375c-30.84085,-8.14314 -91.62747,-38.81918 -91.62747,-38.81918z" fill="#696969" stroke="#000000" stroke-width="2"/><path d="M-275.38673,301.6684l178.79466,47.20836l-9.73122,36.4338l-178.79455,-47.2083z" fill="url(#color-19)" stroke="none" stroke-width="0"/><path d="M-290.2709,346.68159c-0.50543,-4.67038 4.10194,-5.23863 4.10194,-5.23863l6.54662,-0.72947c8.09825,-4.48095 14.03803,-11.24272 21.54623,-16.59838c4.98893,-3.55865 10.78596,-5.37032 15.8952,-8.60059c5.58904,-3.53351 9.91166,-8.71732 16.75335,-10.08751c17.23348,-3.4512 36.68037,8.17946 41.98295,24.08662c3.37375,8.71937 8.33845,16.67515 11.4199,25.45353c0.51902,1.4785 2.19893,8.33498 4.31161,10.02234c3.38934,2.70714 13.56465,1.23132 16.6744,0.77599c17.44863,-2.55476 32.16539,-15.34344 49.64733,-18.66972c0,0 4.57168,-0.82961 5.33514,3.80139c0.76339,4.63111 -3.8083,5.46081 -3.8083,5.46081c-17.62667,2.9956 -32.12218,16.17353 -49.83963,18.70251c-6.4986,0.92769 -17.80936,2.07062 -23.63248,-2.52344c-5.88916,-4.64592 -6.16217,-12.56075 -9.09243,-18.8647c-3.26812,-7.03115 -6.92421,-13.58674 -9.74033,-20.87372c-3.67474,-11.69279 -18.7511,-20.81905 -31.48659,-18.15708c-5.44977,1.13911 -9.16407,5.98932 -13.64127,8.8119c-4.99729,3.15047 -10.71666,4.90882 -15.57175,8.38362c-8.40575,6.01606 -14.83095,13.06581 -24.09246,17.85771l-8.19663,1.08908c0,0 -4.60731,0.56825 -5.11283,-4.1021z" fill="#000000" stroke="none" stroke-width="0.5"/><path d="M-266.94886,266.72519c0,0 65.02325,5.46752 95.4453,13.50006c29.60473,7.81674 83.24235,39.53047 83.24235,39.53047l-25.54444,95.63865c0,0 -60.14187,1.67186 -89.24981,-6.01375c-30.84085,-8.14314 -91.62747,-38.81918 -91.62747,-38.81918z" fill="#ffe400" stroke="#000000" stroke-width="2"/></g><g data-paper-data="{&quot;index&quot;:null}" stroke-linecap="butt"><path d="M-80.60891,345.60854c0,0 65.23973,-1.3024 96.3306,3.53331c30.25561,4.70573 86.89167,30.68837 86.89167,30.68837l-15.49267,97.7714c0,0 -59.64453,7.8973 -89.39244,3.2705c-31.51885,-4.90229 -95.15795,-29.1117 -95.15795,-29.1117z" fill="#696969" stroke="#000000" stroke-width="2"/><path d="M-85.37909,381.23825l182.72516,28.41973l-5.90202,37.24627l-182.72507,-28.41974z" fill="url(#color-20)" stroke="none" stroke-width="0"/><path d="M-95.51687,427.55179c-0.98685,-4.59286 3.53679,-5.63565 3.53679,-5.63565l6.43572,-1.40418c7.59009,-5.29629 12.7969,-12.6374 19.70948,-18.74251c4.59321,-4.05671 10.17118,-6.45956 14.918,-10.20206c5.19264,-4.09386 8.95456,-9.69778 15.61739,-11.76978c16.78288,-5.21908 37.33063,4.33302 44.25368,19.60479c4.25945,8.32266 10.02213,15.72095 13.997,24.13256c0.66946,1.41675 3.0511,8.06212 5.32728,9.52136c3.65166,2.34125 13.61917,-0.18142 16.66501,-0.95672c17.08979,-4.3498 30.40153,-18.59511 47.44452,-23.71565c0,0 4.46101,-1.29904 5.70044,3.22786c1.23937,4.52704 -3.22172,5.82622 -3.22172,5.82622c-17.22116,4.8067 -30.27248,19.41623 -47.63238,23.76828c-6.36742,1.59635 -17.49879,3.90565 -23.76681,-0.06003c-6.33898,-4.01043 -7.43094,-11.85427 -10.99893,-17.82058c-3.97938,-6.6545 -8.29536,-12.79573 -11.85169,-19.75157c-4.86701,-11.24887 -20.80825,-18.76303 -33.19916,-14.79527c-5.30234,1.69792 -8.49389,6.90696 -12.65436,10.17848c-4.64384,3.65156 -10.15003,5.9933 -14.61878,9.95268c-7.73677,6.85505 -13.39658,14.53283 -22.11151,20.25904l-8.0396,1.93288c0,0 -4.52363,1.04275 -5.5105,-3.55002z" fill="#000000" stroke="none" stroke-width="0.5"/><path d="M-80.60891,345.60854c0,0 65.23973,-1.3024 96.3306,3.53331c30.25561,4.70573 86.89167,30.68837 86.89167,30.68837l-15.49267,97.7714c0,0 -59.64453,7.8973 -89.39244,3.2705c-31.51885,-4.90229 -95.15795,-29.1117 -95.15795,-29.1117z" fill="#ffe400" stroke="#000000" stroke-width="2"/></g><path d="M572.43109,385.89821c7.06248,10.73275 4.08714,25.15843 -6.64547,32.2208c-10.73265,7.06245 -25.15848,4.08711 -32.22089,-6.64549c-7.06238,-10.73268 -4.08702,-25.15845 6.6456,-32.22086c10.73265,-7.06245 25.15842,-4.08708 32.2208,6.64557z" fill="url(#color-21)" stroke="none" stroke-width="0" stroke-linecap="butt"/><g stroke-linecap="butt"><path d="M750.50809,448.45709c0,0 -66.14513,16.15085 -98.02835,17.11627c-30.09175,0.91117 -88.30116,-14.30401 -88.30116,-14.30401l-3.2785,-98.93697c0,0 59.41532,-18.77667 90.02066,-19.7034c31.45027,-0.95232 96.02768,8.41083 96.02768,8.41083z" fill="#696969" stroke="#000000" stroke-width="2"/><path d="M748.52313,414.67622l-184.83722,5.59675l-1.24895,-37.69031l184.83732,-5.59679z" fill="url(#color-22)" stroke="none" stroke-width="0"/><path d="M751.60476,424.19804c-1.54751,4.43536 -5.90736,2.84096 -5.90736,2.84096l-7.7387,-2.91262c-7.93955,-6.76028 -12.60608,-15.07929 -19.43548,-22.83875c-3.94458,-4.48175 -9.11882,-7.4867 -13.27523,-11.6847c-3.72381,-3.76106 -6.24639,-9.32499 -11.29793,-11.66577c-11.80486,-5.47017 -28.55319,0.01426 -34.77444,10.57463c-4.38954,6.46243 -9.43205,12.02259 -14.2041,18.1337c-4.27864,5.47905 -6.33261,13.12756 -13.11907,16.32298c-6.71044,3.1598 -17.47061,-0.50878 -23.59162,-2.88059c-16.6882,-6.46617 -27.83195,-22.57806 -44.32618,-29.47824c0,0 -4.26606,-1.84107 -2.47622,-6.17998c1.78986,-4.33883 6.05594,-2.49788 6.05594,-2.49788c16.27858,7.18956 27.72582,22.97228 44.14623,29.4028c2.92652,1.14609 12.50534,4.88247 16.41867,3.01097c2.43925,-1.16645 5.62474,-7.46614 6.46427,-8.78917c4.98491,-7.85527 11.6185,-14.48383 16.87484,-22.21564c8.75912,-14.29801 30.33068,-21.23483 46.33901,-13.97964c6.3553,2.88036 9.39509,8.90666 14.04145,13.61145c4.2474,4.30096 9.48532,7.3754 13.54131,11.96912c6.10424,6.91333 10.36291,14.84219 17.23952,21.0368l6.21258,2.18953c0,0 4.35992,1.59445 2.81247,6.02992z" fill="#000000" stroke="none" stroke-width="0.5"/><path d="M750.50809,448.45709c0,0 -66.14513,16.15085 -98.02835,17.11627c-30.09175,0.91117 -88.30116,-14.30401 -88.30116,-14.30401l-3.2785,-98.93697c0,0 59.41532,-18.77667 90.02066,-19.7034c31.45027,-0.95232 96.02768,8.41083 96.02768,8.41083z" fill="#ffe400" stroke="#000000" stroke-width="2"/></g><g stroke-linecap="butt"><path d="M553.45109,455.48411c0,0 -65.24121,19.48363 -97.0345,22.0643c-30.00681,2.43563 -88.91283,-9.80868 -88.91283,-9.80868l-8.29047,-98.64346c0,0 58.38691,-21.76494 88.90589,-24.24216c31.36148,-2.54562 96.33066,3.53125 96.33066,3.53125z" fill="#696969" stroke="#000000" stroke-width="2"/><path d="M549.75593,421.8473l-184.31575,14.9609l-3.1583,-37.57844l184.31583,-14.96095z" fill="url(#color-23)" stroke="none" stroke-width="0"/><path d="M553.31644,431.20061c-1.32065,4.50808 -5.75573,3.13687 -5.75573,3.13687l-7.87646,-2.51648c-8.27213,-6.34907 -13.35439,-14.42076 -20.56839,-21.82401c-4.16676,-4.27603 -9.4867,-7.01476 -13.85059,-10.99662c-3.90969,-3.56743 -6.71114,-8.99631 -11.8749,-11.07794c-12.06705,-4.86463 -28.51581,1.46191 -34.19358,12.32409c-4.05619,6.67671 -8.81036,12.48536 -13.26643,18.83053c-3.99536,5.68892 -5.65888,13.4318 -12.27454,16.96717c-6.54162,3.49598 -17.47394,0.3776 -23.70733,-1.68074c-16.99453,-5.61176 -28.94081,-21.13794 -45.76369,-27.19298c0,0 -4.35394,-1.62243 -2.78638,-6.04653c1.56767,-4.42398 5.92158,-2.80172 5.92158,-2.80172c16.62221,6.35498 28.85486,21.53697 45.58022,27.1267c2.98086,0.99625 12.73681,4.2421 16.55018,2.17465c2.37696,-1.28864 5.23893,-7.74166 6.01028,-9.10561c4.58026,-8.09792 10.8693,-15.05427 15.72682,-23.04264c8.02293,-14.72372 29.21503,-22.7453 45.57063,-16.31106c6.4932,2.55441 9.83463,8.41881 14.71345,12.88193c4.46,4.08011 9.847,6.88503 14.13073,11.26724c6.4469,6.59495 11.10206,14.29769 18.28389,20.13564l6.31561,1.87176c0,0 4.43508,1.37135 3.11458,5.87953z" fill="#000000" stroke="none" stroke-width="0.5"/><path d="M553.45109,455.48411c0,0 -65.24121,19.48363 -97.0345,22.0643c-30.00681,2.43563 -88.91283,-9.80868 -88.91283,-9.80868l-8.29047,-98.64346c0,0 58.38691,-21.76494 88.90589,-24.24216c31.36148,-2.54562 96.33066,3.53125 96.33066,3.53125z" fill="#ffe400" stroke="#000000" stroke-width="2"/></g><g data-paper-data="{&quot;index&quot;:null}" fill="#ffe400" stroke="#000000" stroke-width="2" stroke-linecap="butt"><path d="M474.11157,165.50506c0.04932,1.39025 -13.14062,46.05124 -53.4305,61.49628c-46.44774,15.31431 -50.5816,18.51119 -67.32559,18.80712c-1.50264,-33.00753 -30.83796,-36.55613 -47.89441,-35.95111c-1.60869,0.05706 -3.18522,0.23355 -4.72136,0.52061c-4.60974,-102.29129 -8.25351,-231.51189 -7.15729,-230.91956c55.83337,-0.66025 177.37233,97.04907 180.52915,186.04664zM377.54034,124.17977c-0.6255,-17.63407 -15.3441,-31.42527 -32.87493,-30.80342c-17.53077,0.62183 -31.2353,15.42119 -30.60982,33.0553c0.6255,17.63407 15.3441,31.42531 32.87496,30.80346c17.53077,-0.62183 31.2353,-15.42127 30.60981,-33.05532z" data-paper-data="{&quot;index&quot;:null}"/><path d="M351.86462,201.2359c0.46107,12.99869 -16.19323,12.40787 -23.89891,21.75629c-9.15943,11.11203 -8.48031,39.61267 -24.09467,40.16654c-9.2819,0.32925 -10.1969,-114.33558 -5.99378,-114.48465c28.75055,-1.0198 52.97825,24.11217 53.98739,52.56188z"/></g><g fill="#ffe400" stroke="#000000" stroke-width="2" stroke-linecap="butt"><path d="M0.82961,183.05112c-3.15681,-88.99756 116.40946,-195.25909 172.47804,-198.56814c1.05779,-0.66876 2.02336,128.64685 4.6671,231.00787c-1.56169,-0.17718 -3.15602,-0.24116 -4.77424,-0.18375c-17.15699,0.60857 -50.74724,2.12656 -49.90941,35.15773c-16.82147,0.89461 -16.78815,2.10571 -64.48074,-9.86929c-41.52322,-12.54302 -57.93131,-56.15412 -57.98062,-57.54439zM133.21112,166.6399c17.63412,-0.62551 31.42231,-15.4279 30.79683,-33.06196c-0.6255,-17.63407 -15.42789,-31.4223 -33.06197,-30.79679c-17.63412,0.62551 -31.4223,15.42781 -30.7968,33.06194c0.6255,17.63407 15.42782,31.42234 33.06192,30.79684z" data-paper-data="{&quot;index&quot;:null}"/><path d="M173.30694,154.91662c4.22784,-0.14996 13.39987,114.22196 4.06331,114.55313c-15.70636,0.55712 -20.01452,-30.7141 -29.9945,-41.14721c-8.39603,-8.77727 -24.14479,-7.03708 -24.60588,-20.03576c-1.00914,-28.44971 21.61709,-52.34434 50.53707,-53.37016z"/></g><path d="M323.41532,328.27251c17.21707,-0.34915 42.64078,-1.48541 77.77948,-13.47152c34.56274,-19.72273 45.23867,-32.74977 55.04766,-45.62152c0.06549,-0.08591 0.13076,-0.17182 0.19588,-0.25782c-7.58951,79.95959 -77.34692,144.12812 -164.54828,147.22124c-1.83849,0.06521 -3.9511,-23.75236 -6.03987,-59.04545c1.2451,0.10232 29.47212,-0.8236 30.75132,-0.86898c6.01339,-0.2133 7.45894,-13.03131 6.81375,-27.95597z" data-paper-data="{&quot;index&quot;:null}" fill="#ffe400" stroke="#000000" stroke-width="2" stroke-linecap="butt"/><path d="M165.1791,365.08904c1.27918,-0.04538 29.50086,-1.12174 30.73561,-1.31202c0.41709,35.35237 -0.0026,59.25976 -1.84112,59.325c-87.20132,3.09311 -161.33002,-55.97163 -174.56578,-135.19255c0.07108,0.08119 0.1423,0.16227 0.21366,0.24329c10.69638,12.14443 22.26853,24.38229 58.14173,41.60659c35.89963,9.46629 61.34001,8.79835 78.53858,7.92675c0.41389,14.93283 2.76403,27.61624 8.77741,27.40293z" data-paper-data="{&quot;index&quot;:null}" fill="#ffe400" stroke="#000000" stroke-width="2" stroke-linecap="butt"/></g></g></svg>