<svg version="1.1" xmlns="http://www.w3.org/2000/svg" xmlns:xlink="http://www.w3.org/1999/xlink" width="686.44501" height="476.47147" viewBox="0,0,686.44501,476.47147"><defs><linearGradient x1="-72.66381" y1="333.15098" x2="-72.66381" y2="360.15634" gradientUnits="userSpaceOnUse" id="color-1"><stop offset="0" stop-color="#ab261f"/><stop offset="1" stop-color="#7a1b28"/></linearGradient><linearGradient x1="-42.81578" y1="301.88161" x2="-42.81578" y2="328.88697" gradientUnits="userSpaceOnUse" id="color-2"><stop offset="0" stop-color="#ab261f"/><stop offset="1" stop-color="#7a1b28"/></linearGradient><linearGradient x1="-71.24248" y1="272.03357" x2="-71.24248" y2="299.03893" gradientUnits="userSpaceOnUse" id="color-3"><stop offset="0" stop-color="#ab261f"/><stop offset="1" stop-color="#7a1b28"/></linearGradient><linearGradient x1="-41.39444" y1="240.76421" x2="-41.39444" y2="267.76957" gradientUnits="userSpaceOnUse" id="color-4"><stop offset="0" stop-color="#ab261f"/><stop offset="1" stop-color="#7a1b28"/></linearGradient><linearGradient x1="-72.66381" y1="209.49484" x2="-72.66381" y2="236.5002" gradientUnits="userSpaceOnUse" id="color-5"><stop offset="0" stop-color="#ab261f"/><stop offset="1" stop-color="#7a1b28"/></linearGradient><linearGradient x1="-42.81578" y1="178.22547" x2="-42.81578" y2="205.23083" gradientUnits="userSpaceOnUse" id="color-6"><stop offset="0" stop-color="#ab261f"/><stop offset="1" stop-color="#7a1b28"/></linearGradient><linearGradient x1="-71.24248" y1="148.37743" x2="-71.24248" y2="175.38279" gradientUnits="userSpaceOnUse" id="color-7"><stop offset="0" stop-color="#ab261f"/><stop offset="1" stop-color="#7a1b28"/></linearGradient><linearGradient x1="-41.39444" y1="119.24221" x2="-41.39444" y2="146.24757" gradientUnits="userSpaceOnUse" id="color-8"><stop offset="0" stop-color="#ab261f"/><stop offset="1" stop-color="#7a1b28"/></linearGradient><linearGradient x1="-71.24248" y1="90.10271" x2="-71.24248" y2="117.10807" gradientUnits="userSpaceOnUse" id="color-9"><stop offset="0" stop-color="#ab261f"/><stop offset="1" stop-color="#7a1b28"/></linearGradient><linearGradient x1="-41.39444" y1="58.83334" x2="-41.39444" y2="85.8387" gradientUnits="userSpaceOnUse" id="color-10"><stop offset="0" stop-color="#ab261f"/><stop offset="1" stop-color="#7a1b28"/></linearGradient><linearGradient x1="-69.82114" y1="28.9853" x2="-69.82114" y2="55.99066" gradientUnits="userSpaceOnUse" id="color-11"><stop offset="0" stop-color="#ab261f"/><stop offset="1" stop-color="#7a1b28"/></linearGradient><linearGradient x1="-39.97311" y1="-2.28406" x2="-39.97311" y2="24.7213" gradientUnits="userSpaceOnUse" id="color-12"><stop offset="0" stop-color="#ab261f"/><stop offset="1" stop-color="#7a1b28"/></linearGradient><linearGradient x1="-5.72876" y1="332.44031" x2="-5.72876" y2="359.44567" gradientUnits="userSpaceOnUse" id="color-13"><stop offset="0" stop-color="#ab261f"/><stop offset="1" stop-color="#7a1b28"/></linearGradient><linearGradient x1="24.11928" y1="301.17094" x2="24.11928" y2="328.1763" gradientUnits="userSpaceOnUse" id="color-14"><stop offset="0" stop-color="#ab261f"/><stop offset="1" stop-color="#7a1b28"/></linearGradient><linearGradient x1="-4.30742" y1="271.3229" x2="-4.30742" y2="298.32826" gradientUnits="userSpaceOnUse" id="color-15"><stop offset="0" stop-color="#ab261f"/><stop offset="1" stop-color="#7a1b28"/></linearGradient><linearGradient x1="25.54061" y1="240.05354" x2="25.54061" y2="267.0589" gradientUnits="userSpaceOnUse" id="color-16"><stop offset="0" stop-color="#ab261f"/><stop offset="1" stop-color="#7a1b28"/></linearGradient><linearGradient x1="-5.72876" y1="208.78417" x2="-5.72876" y2="235.78953" gradientUnits="userSpaceOnUse" id="color-17"><stop offset="0" stop-color="#ab261f"/><stop offset="1" stop-color="#7a1b28"/></linearGradient><linearGradient x1="24.11928" y1="177.5148" x2="24.11928" y2="204.52016" gradientUnits="userSpaceOnUse" id="color-18"><stop offset="0" stop-color="#ab261f"/><stop offset="1" stop-color="#7a1b28"/></linearGradient><linearGradient x1="-4.30742" y1="147.66676" x2="-4.30742" y2="174.67212" gradientUnits="userSpaceOnUse" id="color-19"><stop offset="0" stop-color="#ab261f"/><stop offset="1" stop-color="#7a1b28"/></linearGradient><linearGradient x1="25.54061" y1="118.53154" x2="25.54061" y2="145.5369" gradientUnits="userSpaceOnUse" id="color-20"><stop offset="0" stop-color="#ab261f"/><stop offset="1" stop-color="#7a1b28"/></linearGradient><linearGradient x1="-4.30742" y1="89.39204" x2="-4.30742" y2="116.3974" gradientUnits="userSpaceOnUse" id="color-21"><stop offset="0" stop-color="#ab261f"/><stop offset="1" stop-color="#7a1b28"/></linearGradient><linearGradient x1="25.54061" y1="58.12267" x2="25.54061" y2="85.12803" gradientUnits="userSpaceOnUse" id="color-22"><stop offset="0" stop-color="#ab261f"/><stop offset="1" stop-color="#7a1b28"/></linearGradient><linearGradient x1="-2.88608" y1="28.27463" x2="-2.88608" y2="55.27999" gradientUnits="userSpaceOnUse" id="color-23"><stop offset="0" stop-color="#ab261f"/><stop offset="1" stop-color="#7a1b28"/></linearGradient><linearGradient x1="26.96195" y1="-2.99473" x2="26.96195" y2="24.01063" gradientUnits="userSpaceOnUse" id="color-24"><stop offset="0" stop-color="#ab261f"/><stop offset="1" stop-color="#7a1b28"/></linearGradient><linearGradient x1="59.65265" y1="333.15098" x2="59.65265" y2="360.15634" gradientUnits="userSpaceOnUse" id="color-25"><stop offset="0" stop-color="#ab261f"/><stop offset="1" stop-color="#7a1b28"/></linearGradient><linearGradient x1="89.50068" y1="301.88161" x2="89.50068" y2="328.88697" gradientUnits="userSpaceOnUse" id="color-26"><stop offset="0" stop-color="#ab261f"/><stop offset="1" stop-color="#7a1b28"/></linearGradient><linearGradient x1="61.07398" y1="272.03357" x2="61.07398" y2="299.03893" gradientUnits="userSpaceOnUse" id="color-27"><stop offset="0" stop-color="#ab261f"/><stop offset="1" stop-color="#7a1b28"/></linearGradient><linearGradient x1="90.92202" y1="240.76421" x2="90.92202" y2="267.76957" gradientUnits="userSpaceOnUse" id="color-28"><stop offset="0" stop-color="#ab261f"/><stop offset="1" stop-color="#7a1b28"/></linearGradient><linearGradient x1="59.65265" y1="209.49484" x2="59.65265" y2="236.5002" gradientUnits="userSpaceOnUse" id="color-29"><stop offset="0" stop-color="#ab261f"/><stop offset="1" stop-color="#7a1b28"/></linearGradient><linearGradient x1="89.50068" y1="178.22547" x2="89.50068" y2="205.23083" gradientUnits="userSpaceOnUse" id="color-30"><stop offset="0" stop-color="#ab261f"/><stop offset="1" stop-color="#7a1b28"/></linearGradient><linearGradient x1="61.07398" y1="148.37743" x2="61.07398" y2="175.38279" gradientUnits="userSpaceOnUse" id="color-31"><stop offset="0" stop-color="#ab261f"/><stop offset="1" stop-color="#7a1b28"/></linearGradient><linearGradient x1="90.92202" y1="119.24221" x2="90.92202" y2="146.24757" gradientUnits="userSpaceOnUse" id="color-32"><stop offset="0" stop-color="#ab261f"/><stop offset="1" stop-color="#7a1b28"/></linearGradient><linearGradient x1="61.07398" y1="90.10271" x2="61.07398" y2="117.10807" gradientUnits="userSpaceOnUse" id="color-33"><stop offset="0" stop-color="#ab261f"/><stop offset="1" stop-color="#7a1b28"/></linearGradient><linearGradient x1="90.92202" y1="58.83334" x2="90.92202" y2="85.8387" gradientUnits="userSpaceOnUse" id="color-34"><stop offset="0" stop-color="#ab261f"/><stop offset="1" stop-color="#7a1b28"/></linearGradient><linearGradient x1="62.49532" y1="28.9853" x2="62.49532" y2="55.99066" gradientUnits="userSpaceOnUse" id="color-35"><stop offset="0" stop-color="#ab261f"/><stop offset="1" stop-color="#7a1b28"/></linearGradient><linearGradient x1="92.34336" y1="-2.28406" x2="92.34336" y2="24.7213" gradientUnits="userSpaceOnUse" id="color-36"><stop offset="0" stop-color="#ab261f"/><stop offset="1" stop-color="#7a1b28"/></linearGradient><linearGradient x1="125.15784" y1="333.14458" x2="125.15784" y2="360.14994" gradientUnits="userSpaceOnUse" id="color-37"><stop offset="0" stop-color="#ab261f"/><stop offset="1" stop-color="#7a1b28"/></linearGradient><linearGradient x1="155.00587" y1="301.87521" x2="155.00587" y2="328.88057" gradientUnits="userSpaceOnUse" id="color-38"><stop offset="0" stop-color="#ab261f"/><stop offset="1" stop-color="#7a1b28"/></linearGradient><linearGradient x1="126.57917" y1="272.02717" x2="126.57917" y2="299.03253" gradientUnits="userSpaceOnUse" id="color-39"><stop offset="0" stop-color="#ab261f"/><stop offset="1" stop-color="#7a1b28"/></linearGradient><linearGradient x1="156.42721" y1="240.7578" x2="156.42721" y2="267.76316" gradientUnits="userSpaceOnUse" id="color-40"><stop offset="0" stop-color="#ab261f"/><stop offset="1" stop-color="#7a1b28"/></linearGradient><linearGradient x1="125.15784" y1="209.48844" x2="125.15784" y2="236.4938" gradientUnits="userSpaceOnUse" id="color-41"><stop offset="0" stop-color="#ab261f"/><stop offset="1" stop-color="#7a1b28"/></linearGradient><linearGradient x1="155.00587" y1="178.21907" x2="155.00587" y2="205.22443" gradientUnits="userSpaceOnUse" id="color-42"><stop offset="0" stop-color="#ab261f"/><stop offset="1" stop-color="#7a1b28"/></linearGradient><linearGradient x1="126.57917" y1="148.37103" x2="126.57917" y2="175.37639" gradientUnits="userSpaceOnUse" id="color-43"><stop offset="0" stop-color="#ab261f"/><stop offset="1" stop-color="#7a1b28"/></linearGradient><linearGradient x1="156.42721" y1="119.2358" x2="156.42721" y2="146.24116" gradientUnits="userSpaceOnUse" id="color-44"><stop offset="0" stop-color="#ab261f"/><stop offset="1" stop-color="#7a1b28"/></linearGradient><linearGradient x1="126.57917" y1="90.09631" x2="126.57917" y2="117.10167" gradientUnits="userSpaceOnUse" id="color-45"><stop offset="0" stop-color="#ab261f"/><stop offset="1" stop-color="#7a1b28"/></linearGradient><linearGradient x1="156.42721" y1="58.82694" x2="156.42721" y2="85.8323" gradientUnits="userSpaceOnUse" id="color-46"><stop offset="0" stop-color="#ab261f"/><stop offset="1" stop-color="#7a1b28"/></linearGradient><linearGradient x1="128.00051" y1="28.9789" x2="128.00051" y2="55.98426" gradientUnits="userSpaceOnUse" id="color-47"><stop offset="0" stop-color="#ab261f"/><stop offset="1" stop-color="#7a1b28"/></linearGradient><linearGradient x1="157.84854" y1="-2.29047" x2="157.84854" y2="24.71489" gradientUnits="userSpaceOnUse" id="color-48"><stop offset="0" stop-color="#ab261f"/><stop offset="1" stop-color="#7a1b28"/></linearGradient><linearGradient x1="190.53924" y1="333.85525" x2="190.53924" y2="360.86061" gradientUnits="userSpaceOnUse" id="color-49"><stop offset="0" stop-color="#ab261f"/><stop offset="1" stop-color="#7a1b28"/></linearGradient><linearGradient x1="220.38728" y1="302.58587" x2="220.38728" y2="329.59123" gradientUnits="userSpaceOnUse" id="color-50"><stop offset="0" stop-color="#ab261f"/><stop offset="1" stop-color="#7a1b28"/></linearGradient><linearGradient x1="191.96058" y1="272.73784" x2="191.96058" y2="299.7432" gradientUnits="userSpaceOnUse" id="color-51"><stop offset="0" stop-color="#ab261f"/><stop offset="1" stop-color="#7a1b28"/></linearGradient><linearGradient x1="221.80861" y1="241.46847" x2="221.80861" y2="268.47383" gradientUnits="userSpaceOnUse" id="color-52"><stop offset="0" stop-color="#ab261f"/><stop offset="1" stop-color="#7a1b28"/></linearGradient><linearGradient x1="190.53924" y1="210.19911" x2="190.53924" y2="237.20447" gradientUnits="userSpaceOnUse" id="color-53"><stop offset="0" stop-color="#ab261f"/><stop offset="1" stop-color="#7a1b28"/></linearGradient><linearGradient x1="220.38728" y1="178.92974" x2="220.38728" y2="205.9351" gradientUnits="userSpaceOnUse" id="color-54"><stop offset="0" stop-color="#ab261f"/><stop offset="1" stop-color="#7a1b28"/></linearGradient><linearGradient x1="191.96058" y1="149.0817" x2="191.96058" y2="176.08706" gradientUnits="userSpaceOnUse" id="color-55"><stop offset="0" stop-color="#ab261f"/><stop offset="1" stop-color="#7a1b28"/></linearGradient><linearGradient x1="221.80861" y1="119.94646" x2="221.80861" y2="146.95182" gradientUnits="userSpaceOnUse" id="color-56"><stop offset="0" stop-color="#ab261f"/><stop offset="1" stop-color="#7a1b28"/></linearGradient><linearGradient x1="191.96058" y1="90.80696" x2="191.96058" y2="117.81232" gradientUnits="userSpaceOnUse" id="color-57"><stop offset="0" stop-color="#ab261f"/><stop offset="1" stop-color="#7a1b28"/></linearGradient><linearGradient x1="221.80861" y1="59.5376" x2="221.80861" y2="86.54296" gradientUnits="userSpaceOnUse" id="color-58"><stop offset="0" stop-color="#ab261f"/><stop offset="1" stop-color="#7a1b28"/></linearGradient><linearGradient x1="193.38191" y1="29.68957" x2="193.38191" y2="56.69493" gradientUnits="userSpaceOnUse" id="color-59"><stop offset="0" stop-color="#ab261f"/><stop offset="1" stop-color="#7a1b28"/></linearGradient><linearGradient x1="223.22995" y1="-1.5798" x2="223.22995" y2="25.42556" gradientUnits="userSpaceOnUse" id="color-60"><stop offset="0" stop-color="#ab261f"/><stop offset="1" stop-color="#7a1b28"/></linearGradient><linearGradient x1="256.77004" y1="334.57445" x2="256.77004" y2="361.57981" gradientUnits="userSpaceOnUse" id="color-61"><stop offset="0" stop-color="#ab261f"/><stop offset="1" stop-color="#7a1b28"/></linearGradient><linearGradient x1="286.61807" y1="303.30508" x2="286.61807" y2="330.31044" gradientUnits="userSpaceOnUse" id="color-62"><stop offset="0" stop-color="#ab261f"/><stop offset="1" stop-color="#7a1b28"/></linearGradient><linearGradient x1="258.19137" y1="273.45704" x2="258.19137" y2="300.4624" gradientUnits="userSpaceOnUse" id="color-63"><stop offset="0" stop-color="#ab261f"/><stop offset="1" stop-color="#7a1b28"/></linearGradient><linearGradient x1="288.03941" y1="242.18768" x2="288.03941" y2="269.19304" gradientUnits="userSpaceOnUse" id="color-64"><stop offset="0" stop-color="#ab261f"/><stop offset="1" stop-color="#7a1b28"/></linearGradient><linearGradient x1="256.77004" y1="210.91831" x2="256.77004" y2="237.92367" gradientUnits="userSpaceOnUse" id="color-65"><stop offset="0" stop-color="#ab261f"/><stop offset="1" stop-color="#7a1b28"/></linearGradient><linearGradient x1="286.61807" y1="179.64894" x2="286.61807" y2="206.6543" gradientUnits="userSpaceOnUse" id="color-66"><stop offset="0" stop-color="#ab261f"/><stop offset="1" stop-color="#7a1b28"/></linearGradient><linearGradient x1="258.19137" y1="149.8009" x2="258.19137" y2="176.80626" gradientUnits="userSpaceOnUse" id="color-67"><stop offset="0" stop-color="#ab261f"/><stop offset="1" stop-color="#7a1b28"/></linearGradient><linearGradient x1="288.03941" y1="120.66567" x2="288.03941" y2="147.67103" gradientUnits="userSpaceOnUse" id="color-68"><stop offset="0" stop-color="#ab261f"/><stop offset="1" stop-color="#7a1b28"/></linearGradient><linearGradient x1="258.19137" y1="91.52618" x2="258.19137" y2="118.53154" gradientUnits="userSpaceOnUse" id="color-69"><stop offset="0" stop-color="#ab261f"/><stop offset="1" stop-color="#7a1b28"/></linearGradient><linearGradient x1="288.03941" y1="60.2568" x2="288.03941" y2="87.26216" gradientUnits="userSpaceOnUse" id="color-70"><stop offset="0" stop-color="#ab261f"/><stop offset="1" stop-color="#7a1b28"/></linearGradient><linearGradient x1="259.61271" y1="30.40877" x2="259.61271" y2="57.41413" gradientUnits="userSpaceOnUse" id="color-71"><stop offset="0" stop-color="#ab261f"/><stop offset="1" stop-color="#7a1b28"/></linearGradient><linearGradient x1="289.46074" y1="-0.8606" x2="289.46074" y2="26.14476" gradientUnits="userSpaceOnUse" id="color-72"><stop offset="0" stop-color="#ab261f"/><stop offset="1" stop-color="#7a1b28"/></linearGradient><linearGradient x1="322.15144" y1="335.28511" x2="322.15144" y2="362.29047" gradientUnits="userSpaceOnUse" id="color-73"><stop offset="0" stop-color="#ab261f"/><stop offset="1" stop-color="#7a1b28"/></linearGradient><linearGradient x1="351.99948" y1="304.01574" x2="351.99948" y2="331.0211" gradientUnits="userSpaceOnUse" id="color-74"><stop offset="0" stop-color="#ab261f"/><stop offset="1" stop-color="#7a1b28"/></linearGradient><linearGradient x1="323.57278" y1="274.16771" x2="323.57278" y2="301.17307" gradientUnits="userSpaceOnUse" id="color-75"><stop offset="0" stop-color="#ab261f"/><stop offset="1" stop-color="#7a1b28"/></linearGradient><linearGradient x1="353.42081" y1="242.89835" x2="353.42081" y2="269.90371" gradientUnits="userSpaceOnUse" id="color-76"><stop offset="0" stop-color="#ab261f"/><stop offset="1" stop-color="#7a1b28"/></linearGradient><linearGradient x1="322.15144" y1="211.62898" x2="322.15144" y2="238.63434" gradientUnits="userSpaceOnUse" id="color-77"><stop offset="0" stop-color="#ab261f"/><stop offset="1" stop-color="#7a1b28"/></linearGradient><linearGradient x1="351.99948" y1="180.3596" x2="351.99948" y2="207.36496" gradientUnits="userSpaceOnUse" id="color-78"><stop offset="0" stop-color="#ab261f"/><stop offset="1" stop-color="#7a1b28"/></linearGradient><linearGradient x1="323.57278" y1="150.51157" x2="323.57278" y2="177.51693" gradientUnits="userSpaceOnUse" id="color-79"><stop offset="0" stop-color="#ab261f"/><stop offset="1" stop-color="#7a1b28"/></linearGradient><linearGradient x1="353.42081" y1="121.37633" x2="353.42081" y2="148.38169" gradientUnits="userSpaceOnUse" id="color-80"><stop offset="0" stop-color="#ab261f"/><stop offset="1" stop-color="#7a1b28"/></linearGradient><linearGradient x1="323.57278" y1="92.23684" x2="323.57278" y2="119.2422" gradientUnits="userSpaceOnUse" id="color-81"><stop offset="0" stop-color="#ab261f"/><stop offset="1" stop-color="#7a1b28"/></linearGradient><linearGradient x1="353.42081" y1="60.96747" x2="353.42081" y2="87.97283" gradientUnits="userSpaceOnUse" id="color-82"><stop offset="0" stop-color="#ab261f"/><stop offset="1" stop-color="#7a1b28"/></linearGradient><linearGradient x1="324.99411" y1="31.11944" x2="324.99411" y2="58.1248" gradientUnits="userSpaceOnUse" id="color-83"><stop offset="0" stop-color="#ab261f"/><stop offset="1" stop-color="#7a1b28"/></linearGradient><linearGradient x1="354.84215" y1="-0.14993" x2="354.84215" y2="26.85543" gradientUnits="userSpaceOnUse" id="color-84"><stop offset="0" stop-color="#ab261f"/><stop offset="1" stop-color="#7a1b28"/></linearGradient><linearGradient x1="387.65663" y1="335.2787" x2="387.65663" y2="362.28406" gradientUnits="userSpaceOnUse" id="color-85"><stop offset="0" stop-color="#ab261f"/><stop offset="1" stop-color="#7a1b28"/></linearGradient><linearGradient x1="417.50466" y1="304.00934" x2="417.50466" y2="331.0147" gradientUnits="userSpaceOnUse" id="color-86"><stop offset="0" stop-color="#ab261f"/><stop offset="1" stop-color="#7a1b28"/></linearGradient><linearGradient x1="389.07796" y1="274.16131" x2="389.07796" y2="301.16667" gradientUnits="userSpaceOnUse" id="color-87"><stop offset="0" stop-color="#ab261f"/><stop offset="1" stop-color="#7a1b28"/></linearGradient><linearGradient x1="418.926" y1="242.89194" x2="418.926" y2="269.8973" gradientUnits="userSpaceOnUse" id="color-88"><stop offset="0" stop-color="#ab261f"/><stop offset="1" stop-color="#7a1b28"/></linearGradient><linearGradient x1="387.65663" y1="211.62257" x2="387.65663" y2="238.62793" gradientUnits="userSpaceOnUse" id="color-89"><stop offset="0" stop-color="#ab261f"/><stop offset="1" stop-color="#7a1b28"/></linearGradient><linearGradient x1="417.50466" y1="180.3532" x2="417.50466" y2="207.35856" gradientUnits="userSpaceOnUse" id="color-90"><stop offset="0" stop-color="#ab261f"/><stop offset="1" stop-color="#7a1b28"/></linearGradient><linearGradient x1="389.07796" y1="150.50517" x2="389.07796" y2="177.51053" gradientUnits="userSpaceOnUse" id="color-91"><stop offset="0" stop-color="#ab261f"/><stop offset="1" stop-color="#7a1b28"/></linearGradient><linearGradient x1="418.926" y1="121.36993" x2="418.926" y2="148.37529" gradientUnits="userSpaceOnUse" id="color-92"><stop offset="0" stop-color="#ab261f"/><stop offset="1" stop-color="#7a1b28"/></linearGradient><linearGradient x1="389.07796" y1="92.23043" x2="389.07796" y2="119.23579" gradientUnits="userSpaceOnUse" id="color-93"><stop offset="0" stop-color="#ab261f"/><stop offset="1" stop-color="#7a1b28"/></linearGradient><linearGradient x1="418.926" y1="60.96107" x2="418.926" y2="87.96643" gradientUnits="userSpaceOnUse" id="color-94"><stop offset="0" stop-color="#ab261f"/><stop offset="1" stop-color="#7a1b28"/></linearGradient><linearGradient x1="390.4993" y1="31.11304" x2="390.4993" y2="58.1184" gradientUnits="userSpaceOnUse" id="color-95"><stop offset="0" stop-color="#ab261f"/><stop offset="1" stop-color="#7a1b28"/></linearGradient><linearGradient x1="420.34734" y1="-0.15634" x2="420.34734" y2="26.84902" gradientUnits="userSpaceOnUse" id="color-96"><stop offset="0" stop-color="#ab261f"/><stop offset="1" stop-color="#7a1b28"/></linearGradient><linearGradient x1="453.03803" y1="335.98937" x2="453.03803" y2="362.99473" gradientUnits="userSpaceOnUse" id="color-97"><stop offset="0" stop-color="#ab261f"/><stop offset="1" stop-color="#7a1b28"/></linearGradient><linearGradient x1="482.88607" y1="304.72001" x2="482.88607" y2="331.72537" gradientUnits="userSpaceOnUse" id="color-98"><stop offset="0" stop-color="#ab261f"/><stop offset="1" stop-color="#7a1b28"/></linearGradient><linearGradient x1="454.45937" y1="274.87197" x2="454.45937" y2="301.87733" gradientUnits="userSpaceOnUse" id="color-99"><stop offset="0" stop-color="#ab261f"/><stop offset="1" stop-color="#7a1b28"/></linearGradient><linearGradient x1="484.3074" y1="243.6026" x2="484.3074" y2="270.60796" gradientUnits="userSpaceOnUse" id="color-100"><stop offset="0" stop-color="#ab261f"/><stop offset="1" stop-color="#7a1b28"/></linearGradient><linearGradient x1="453.03803" y1="212.33324" x2="453.03803" y2="239.3386" gradientUnits="userSpaceOnUse" id="color-101"><stop offset="0" stop-color="#ab261f"/><stop offset="1" stop-color="#7a1b28"/></linearGradient><linearGradient x1="482.88607" y1="181.06387" x2="482.88607" y2="208.06923" gradientUnits="userSpaceOnUse" id="color-102"><stop offset="0" stop-color="#ab261f"/><stop offset="1" stop-color="#7a1b28"/></linearGradient><linearGradient x1="454.45937" y1="151.21584" x2="454.45937" y2="178.2212" gradientUnits="userSpaceOnUse" id="color-103"><stop offset="0" stop-color="#ab261f"/><stop offset="1" stop-color="#7a1b28"/></linearGradient><linearGradient x1="484.3074" y1="122.0806" x2="484.3074" y2="149.08596" gradientUnits="userSpaceOnUse" id="color-104"><stop offset="0" stop-color="#ab261f"/><stop offset="1" stop-color="#7a1b28"/></linearGradient><linearGradient x1="454.45937" y1="92.9411" x2="454.45937" y2="119.94646" gradientUnits="userSpaceOnUse" id="color-105"><stop offset="0" stop-color="#ab261f"/><stop offset="1" stop-color="#7a1b28"/></linearGradient><linearGradient x1="484.3074" y1="61.67174" x2="484.3074" y2="88.6771" gradientUnits="userSpaceOnUse" id="color-106"><stop offset="0" stop-color="#ab261f"/><stop offset="1" stop-color="#7a1b28"/></linearGradient><linearGradient x1="455.8807" y1="31.8237" x2="455.8807" y2="58.82906" gradientUnits="userSpaceOnUse" id="color-107"><stop offset="0" stop-color="#ab261f"/><stop offset="1" stop-color="#7a1b28"/></linearGradient><linearGradient x1="485.72874" y1="0.55433" x2="485.72874" y2="27.55969" gradientUnits="userSpaceOnUse" id="color-108"><stop offset="0" stop-color="#ab261f"/><stop offset="1" stop-color="#7a1b28"/></linearGradient><linearGradient x1="519.9731" y1="335.2787" x2="519.9731" y2="362.28406" gradientUnits="userSpaceOnUse" id="color-109"><stop offset="0" stop-color="#ab261f"/><stop offset="1" stop-color="#7a1b28"/></linearGradient><linearGradient x1="549.82113" y1="304.00934" x2="549.82113" y2="331.0147" gradientUnits="userSpaceOnUse" id="color-110"><stop offset="0" stop-color="#ab261f"/><stop offset="1" stop-color="#7a1b28"/></linearGradient><linearGradient x1="521.39443" y1="274.16131" x2="521.39443" y2="301.16667" gradientUnits="userSpaceOnUse" id="color-111"><stop offset="0" stop-color="#ab261f"/><stop offset="1" stop-color="#7a1b28"/></linearGradient><linearGradient x1="551.24247" y1="242.89194" x2="551.24247" y2="269.8973" gradientUnits="userSpaceOnUse" id="color-112"><stop offset="0" stop-color="#ab261f"/><stop offset="1" stop-color="#7a1b28"/></linearGradient><linearGradient x1="519.9731" y1="211.62257" x2="519.9731" y2="238.62793" gradientUnits="userSpaceOnUse" id="color-113"><stop offset="0" stop-color="#ab261f"/><stop offset="1" stop-color="#7a1b28"/></linearGradient><linearGradient x1="549.82113" y1="180.3532" x2="549.82113" y2="207.35856" gradientUnits="userSpaceOnUse" id="color-114"><stop offset="0" stop-color="#ab261f"/><stop offset="1" stop-color="#7a1b28"/></linearGradient><linearGradient x1="521.39443" y1="150.50517" x2="521.39443" y2="177.51053" gradientUnits="userSpaceOnUse" id="color-115"><stop offset="0" stop-color="#ab261f"/><stop offset="1" stop-color="#7a1b28"/></linearGradient><linearGradient x1="551.24247" y1="121.36993" x2="551.24247" y2="148.37529" gradientUnits="userSpaceOnUse" id="color-116"><stop offset="0" stop-color="#ab261f"/><stop offset="1" stop-color="#7a1b28"/></linearGradient><linearGradient x1="521.39443" y1="92.23043" x2="521.39443" y2="119.23579" gradientUnits="userSpaceOnUse" id="color-117"><stop offset="0" stop-color="#ab261f"/><stop offset="1" stop-color="#7a1b28"/></linearGradient><linearGradient x1="551.24247" y1="60.96107" x2="551.24247" y2="87.96643" gradientUnits="userSpaceOnUse" id="color-118"><stop offset="0" stop-color="#ab261f"/><stop offset="1" stop-color="#7a1b28"/></linearGradient><linearGradient x1="522.81577" y1="31.11304" x2="522.81577" y2="58.1184" gradientUnits="userSpaceOnUse" id="color-119"><stop offset="0" stop-color="#ab261f"/><stop offset="1" stop-color="#7a1b28"/></linearGradient><linearGradient x1="552.6638" y1="-0.15634" x2="552.6638" y2="26.84902" gradientUnits="userSpaceOnUse" id="color-120"><stop offset="0" stop-color="#ab261f"/><stop offset="1" stop-color="#7a1b28"/></linearGradient><linearGradient x1="-59.54805" y1="183.24324" x2="-4.71544" y2="183.24324" gradientUnits="userSpaceOnUse" id="color-121"><stop offset="0" stop-color="#ab0000"/><stop offset="1" stop-color="#ff0000"/></linearGradient><linearGradient x1="-19.76215" y1="184.24925" x2="35.07046" y2="184.24925" gradientUnits="userSpaceOnUse" id="color-122"><stop offset="0" stop-color="#ab0000"/><stop offset="1" stop-color="#ff0000"/></linearGradient><linearGradient x1="20.00762" y1="185.24024" x2="74.84023" y2="185.24024" gradientUnits="userSpaceOnUse" id="color-123"><stop offset="0" stop-color="#ab0000"/><stop offset="1" stop-color="#ff0000"/></linearGradient><linearGradient x1="59.79352" y1="186.24624" x2="114.62613" y2="186.24624" gradientUnits="userSpaceOnUse" id="color-124"><stop offset="0" stop-color="#ab0000"/><stop offset="1" stop-color="#ff0000"/></linearGradient><linearGradient x1="546.05255" y1="189.74474" x2="491.21994" y2="189.74474" gradientUnits="userSpaceOnUse" id="color-125"><stop offset="0" stop-color="#ab0000"/><stop offset="1" stop-color="#ff0000"/></linearGradient><linearGradient x1="506.26666" y1="190.75075" x2="451.43405" y2="190.75075" gradientUnits="userSpaceOnUse" id="color-126"><stop offset="0" stop-color="#ab0000"/><stop offset="1" stop-color="#ff0000"/></linearGradient><linearGradient x1="466.49689" y1="191.74174" x2="411.66428" y2="191.74174" gradientUnits="userSpaceOnUse" id="color-127"><stop offset="0" stop-color="#ab0000"/><stop offset="1" stop-color="#ff0000"/></linearGradient><linearGradient x1="426.71099" y1="192.74774" x2="371.87838" y2="192.74774" gradientUnits="userSpaceOnUse" id="color-128"><stop offset="0" stop-color="#ab0000"/><stop offset="1" stop-color="#ff0000"/></linearGradient></defs><g transform="translate(103.2225,50.24024)"><g data-paper-data="{&quot;isPaintingLayer&quot;:true}" fill-rule="nonzero" stroke="none" stroke-linecap="butt" stroke-linejoin="miter" stroke-miterlimit="10" stroke-dasharray="" stroke-dashoffset="0" style="mix-blend-mode: normal"><g><path d="M-70.42881,402.97297v-445.94594h620.85761v445.94594z" fill="#d4d4d4" stroke-width="0"/><path d="M-103.2225,360.15634v-27.00536h61.11741v27.00536z" fill="url(#color-1)" stroke-width="NaN"/><path d="M-73.37448,328.88697v-27.00536h61.11741v27.00536z" fill="url(#color-2)" stroke-width="NaN"/><path d="M-101.80118,299.03893v-27.00536h61.11741v27.00536z" fill="url(#color-3)" stroke-width="NaN"/><path d="M-71.95314,267.76957v-27.00536h61.11741v27.00536z" fill="url(#color-4)" stroke-width="NaN"/><path d="M-103.2225,236.5002v-27.00536h61.11741v27.00536z" fill="url(#color-5)" stroke-width="NaN"/><path d="M-73.37448,205.23083v-27.00536h61.11741v27.00536z" fill="url(#color-6)" stroke-width="NaN"/><path d="M-101.80118,175.38279v-27.00536h61.11741v27.00536z" fill="url(#color-7)" stroke-width="NaN"/><path d="M-71.95314,146.24757v-27.00536h61.11741v27.00536z" fill="url(#color-8)" stroke-width="NaN"/><path d="M-101.80118,117.10807v-27.00536h61.11741v27.00536z" fill="url(#color-9)" stroke-width="NaN"/><path d="M-71.95314,85.8387v-27.00536h61.11741v27.00536z" fill="url(#color-10)" stroke-width="NaN"/><path d="M-100.37984,55.99066v-27.00536h61.11741v27.00536z" fill="url(#color-11)" stroke-width="NaN"/><path d="M-70.53181,24.7213v-27.00536h61.11741v27.00536z" fill="url(#color-12)" stroke-width="NaN"/><path d="M-36.28746,359.44567v-27.00536h61.11741v27.00536z" fill="url(#color-13)" stroke-width="NaN"/><path d="M-6.43942,328.1763v-27.00536h61.11741v27.00536z" fill="url(#color-14)" stroke-width="NaN"/><path d="M-34.86612,298.32826v-27.00536h61.11741v27.00536z" fill="url(#color-15)" stroke-width="NaN"/><path d="M-5.01809,267.0589v-27.00536h61.11741v27.00536z" fill="url(#color-16)" stroke-width="NaN"/><path d="M-36.28746,235.78953v-27.00536h61.11741v27.00536z" fill="url(#color-17)" stroke-width="NaN"/><path d="M-6.43942,204.52016v-27.00536h61.11741v27.00536z" fill="url(#color-18)" stroke-width="NaN"/><path d="M-34.86612,174.67212v-27.00536h61.11741v27.00536z" fill="url(#color-19)" stroke-width="NaN"/><path d="M-5.01809,145.5369v-27.00536h61.11741v27.00536z" fill="url(#color-20)" stroke-width="NaN"/><path d="M-34.86612,116.3974v-27.00536h61.11741v27.00536z" fill="url(#color-21)" stroke-width="NaN"/><path d="M-5.01809,85.12803v-27.00536h61.11741v27.00536z" fill="url(#color-22)" stroke-width="NaN"/><path d="M-33.44478,55.27999v-27.00536h61.11741v27.00536z" fill="url(#color-23)" stroke-width="NaN"/><path d="M-3.59675,24.01063v-27.00536h61.11741v27.00536z" fill="url(#color-24)" stroke-width="NaN"/><path d="M29.09396,360.15634v-27.00536h61.11741v27.00536z" fill="url(#color-25)" stroke-width="NaN"/><path d="M58.94198,328.88697v-27.00536h61.11741v27.00536z" fill="url(#color-26)" stroke-width="NaN"/><path d="M30.51528,299.03893v-27.00536h61.11741v27.00536z" fill="url(#color-27)" stroke-width="NaN"/><path d="M60.36332,267.76957v-27.00536h61.11741v27.00536z" fill="url(#color-28)" stroke-width="NaN"/><path d="M29.09396,236.5002v-27.00536h61.11741v27.00536z" fill="url(#color-29)" stroke-width="NaN"/><path d="M58.94198,205.23083v-27.00536h61.11741v27.00536z" fill="url(#color-30)" stroke-width="NaN"/><path d="M30.51528,175.38279v-27.00536h61.11741v27.00536z" fill="url(#color-31)" stroke-width="NaN"/><path d="M60.36332,146.24757v-27.00536h61.11741v27.00536z" fill="url(#color-32)" stroke-width="NaN"/><path d="M30.51528,117.10807v-27.00536h61.11741v27.00536z" fill="url(#color-33)" stroke-width="NaN"/><path d="M60.36332,85.8387v-27.00536h61.11741v27.00536z" fill="url(#color-34)" stroke-width="NaN"/><path d="M31.93662,55.99066v-27.00536h61.11741v27.00536z" fill="url(#color-35)" stroke-width="NaN"/><path d="M61.78466,24.7213v-27.00536h61.11741v27.00536z" fill="url(#color-36)" stroke-width="NaN"/><path d="M94.59914,360.14994v-27.00536h61.11741v27.00536z" fill="url(#color-37)" stroke-width="NaN"/><path d="M124.44717,328.88057v-27.00536h61.11741v27.00536z" fill="url(#color-38)" stroke-width="NaN"/><path d="M96.02047,299.03253v-27.00536h61.11741v27.00536z" fill="url(#color-39)" stroke-width="NaN"/><path d="M125.86851,267.76316v-27.00536h61.11741v27.00536z" fill="url(#color-40)" stroke-width="NaN"/><path d="M94.59914,236.4938v-27.00536h61.11741v27.00536z" fill="url(#color-41)" stroke-width="NaN"/><path d="M124.44717,205.22443v-27.00536h61.11741v27.00536z" fill="url(#color-42)" stroke-width="NaN"/><path d="M96.02047,175.37639v-27.00536h61.11741v27.00536z" fill="url(#color-43)" stroke-width="NaN"/><path d="M125.86851,146.24116v-27.00536h61.11741v27.00536z" fill="url(#color-44)" stroke-width="NaN"/><path d="M96.02047,117.10167v-27.00536h61.11741v27.00536z" fill="url(#color-45)" stroke-width="NaN"/><path d="M125.86851,85.8323v-27.00536h61.11741v27.00536z" fill="url(#color-46)" stroke-width="NaN"/><path d="M97.44181,55.98426v-27.00536h61.11741v27.00536z" fill="url(#color-47)" stroke-width="NaN"/><path d="M127.28984,24.71489v-27.00536h61.11741v27.00536z" fill="url(#color-48)" stroke-width="NaN"/><path d="M159.98054,360.86061v-27.00536h61.11741v27.00536z" fill="url(#color-49)" stroke-width="NaN"/><path d="M189.82858,329.59123v-27.00536h61.11741v27.00536z" fill="url(#color-50)" stroke-width="NaN"/><path d="M161.40188,299.7432v-27.00536h61.11741v27.00536z" fill="url(#color-51)" stroke-width="NaN"/><path d="M191.24991,268.47383v-27.00536h61.11741v27.00536z" fill="url(#color-52)" stroke-width="NaN"/><path d="M159.98054,237.20447v-27.00536h61.11741v27.00536z" fill="url(#color-53)" stroke-width="NaN"/><path d="M189.82858,205.9351v-27.00536h61.11741v27.00536z" fill="url(#color-54)" stroke-width="NaN"/><path d="M161.40188,176.08706v-27.00536h61.11741v27.00536z" fill="url(#color-55)" stroke-width="NaN"/><path d="M191.24991,146.95182v-27.00536h61.11741v27.00536z" fill="url(#color-56)" stroke-width="NaN"/><path d="M161.40188,117.81232v-27.00536h61.11741v27.00536z" fill="url(#color-57)" stroke-width="NaN"/><path d="M191.24991,86.54296v-27.00536h61.11741v27.00536z" fill="url(#color-58)" stroke-width="NaN"/><path d="M162.82321,56.69493v-27.00536h61.11741v27.00536z" fill="url(#color-59)" stroke-width="NaN"/><path d="M192.67125,25.42556v-27.00536h61.11741v27.00536z" fill="url(#color-60)" stroke-width="NaN"/><path d="M226.21134,361.57981v-27.00536h61.11741v27.00536z" fill="url(#color-61)" stroke-width="NaN"/><path d="M256.05937,330.31044v-27.00536h61.11741v27.00536z" fill="url(#color-62)" stroke-width="NaN"/><path d="M227.63267,300.4624v-27.00536h61.11741v27.00536z" fill="url(#color-63)" stroke-width="NaN"/><path d="M257.48071,269.19304v-27.00536h61.11741v27.00536z" fill="url(#color-64)" stroke-width="NaN"/><path d="M226.21134,237.92367v-27.00536h61.11741v27.00536z" fill="url(#color-65)" stroke-width="NaN"/><path d="M256.05937,206.6543v-27.00536h61.11741v27.00536z" fill="url(#color-66)" stroke-width="NaN"/><path d="M227.63267,176.80626v-27.00536h61.11741v27.00536z" fill="url(#color-67)" stroke-width="NaN"/><path d="M257.48071,147.67103v-27.00536h61.11741v27.00536z" fill="url(#color-68)" stroke-width="NaN"/><path d="M227.63267,118.53154v-27.00536h61.11741v27.00536z" fill="url(#color-69)" stroke-width="NaN"/><path d="M257.48071,87.26216v-27.00536h61.11741v27.00536z" fill="url(#color-70)" stroke-width="NaN"/><path d="M229.05401,57.41413v-27.00536h61.11741v27.00536z" fill="url(#color-71)" stroke-width="NaN"/><path d="M258.90204,26.14476v-27.00536h61.11741v27.00536z" fill="url(#color-72)" stroke-width="NaN"/><path d="M291.59275,362.29047v-27.00536h61.11741v27.00536z" fill="url(#color-73)" stroke-width="NaN"/><path d="M321.44078,331.0211v-27.00536h61.11741v27.00536z" fill="url(#color-74)" stroke-width="NaN"/><path d="M293.01409,301.17307v-27.00536h61.11741v27.00536z" fill="url(#color-75)" stroke-width="NaN"/><path d="M322.86211,269.90371v-27.00536h61.11741v27.00536z" fill="url(#color-76)" stroke-width="NaN"/><path d="M291.59275,238.63434v-27.00536h61.11741v27.00536z" fill="url(#color-77)" stroke-width="NaN"/><path d="M321.44078,207.36496v-27.00536h61.11741v27.00536z" fill="url(#color-78)" stroke-width="NaN"/><path d="M293.01409,177.51693v-27.00536h61.11741v27.00536z" fill="url(#color-79)" stroke-width="NaN"/><path d="M322.86211,148.38169v-27.00536h61.11741v27.00536z" fill="url(#color-80)" stroke-width="NaN"/><path d="M293.01409,119.2422v-27.00536h61.11741v27.00536z" fill="url(#color-81)" stroke-width="NaN"/><path d="M322.86211,87.97283v-27.00536h61.11741v27.00536z" fill="url(#color-82)" stroke-width="NaN"/><path d="M294.43541,58.1248v-27.00536h61.11741v27.00536z" fill="url(#color-83)" stroke-width="NaN"/><path d="M324.28345,26.85543v-27.00536h61.11741v27.00536z" fill="url(#color-84)" stroke-width="NaN"/><path d="M357.09793,362.28406v-27.00536h61.11741v27.00536z" fill="url(#color-85)" stroke-width="NaN"/><path d="M386.94596,331.0147v-27.00536h61.11741v27.00536z" fill="url(#color-86)" stroke-width="NaN"/><path d="M358.51926,301.16667v-27.00536h61.11741v27.00536z" fill="url(#color-87)" stroke-width="NaN"/><path d="M388.3673,269.8973v-27.00536h61.11741v27.00536z" fill="url(#color-88)" stroke-width="NaN"/><path d="M357.09793,238.62793v-27.00536h61.11741v27.00536z" fill="url(#color-89)" stroke-width="NaN"/><path d="M386.94596,207.35856v-27.00536h61.11741v27.00536z" fill="url(#color-90)" stroke-width="NaN"/><path d="M358.51926,177.51053v-27.00536h61.11741v27.00536z" fill="url(#color-91)" stroke-width="NaN"/><path d="M388.3673,148.37529v-27.00536h61.11741v27.00536z" fill="url(#color-92)" stroke-width="NaN"/><path d="M358.51926,119.23579v-27.00536h61.11741v27.00536z" fill="url(#color-93)" stroke-width="NaN"/><path d="M388.3673,87.96643v-27.00536h61.11741v27.00536z" fill="url(#color-94)" stroke-width="NaN"/><path d="M359.9406,58.1184v-27.00536h61.11741v27.00536z" fill="url(#color-95)" stroke-width="NaN"/><path d="M389.78864,26.84902v-27.00536h61.11741v27.00536z" fill="url(#color-96)" stroke-width="NaN"/><path d="M422.47933,362.99473v-27.00536h61.11741v27.00536z" fill="url(#color-97)" stroke-width="NaN"/><path d="M452.32737,331.72537v-27.00536h61.11741v27.00536z" fill="url(#color-98)" stroke-width="NaN"/><path d="M423.90067,301.87733v-27.00536h61.11741v27.00536z" fill="url(#color-99)" stroke-width="NaN"/><path d="M453.7487,270.60796v-27.00536h61.11741v27.00536z" fill="url(#color-100)" stroke-width="NaN"/><path d="M422.47933,239.3386v-27.00536h61.11741v27.00536z" fill="url(#color-101)" stroke-width="NaN"/><path d="M452.32737,208.06923v-27.00536h61.11741v27.00536z" fill="url(#color-102)" stroke-width="NaN"/><path d="M423.90067,178.2212v-27.00536h61.11741v27.00536z" fill="url(#color-103)" stroke-width="NaN"/><path d="M453.7487,149.08596v-27.00536h61.11741v27.00536z" fill="url(#color-104)" stroke-width="NaN"/><path d="M423.90067,119.94646v-27.00536h61.11741v27.00536z" fill="url(#color-105)" stroke-width="NaN"/><path d="M453.7487,88.6771v-27.00536h61.11741v27.00536z" fill="url(#color-106)" stroke-width="NaN"/><path d="M425.322,58.82906v-27.00536h61.11741v27.00536z" fill="url(#color-107)" stroke-width="NaN"/><path d="M455.17004,27.55969v-27.00536h61.11741v27.00536z" fill="url(#color-108)" stroke-width="NaN"/><path d="M489.4144,362.28406v-27.00536h61.11741v27.00536z" fill="url(#color-109)" stroke-width="NaN"/><path d="M519.26243,331.0147v-27.00536h61.11741v27.00536z" fill="url(#color-110)" stroke-width="NaN"/><path d="M490.83573,301.16667v-27.00536h61.11741v27.00536z" fill="url(#color-111)" stroke-width="NaN"/><path d="M520.68377,269.8973v-27.00536h61.11741v27.00536z" fill="url(#color-112)" stroke-width="NaN"/><path d="M489.4144,238.62793v-27.00536h61.11741v27.00536z" fill="url(#color-113)" stroke-width="NaN"/><path d="M519.26243,207.35856v-27.00536h61.11741v27.00536z" fill="url(#color-114)" stroke-width="NaN"/><path d="M490.83573,177.51053v-27.00536h61.11741v27.00536z" fill="url(#color-115)" stroke-width="NaN"/><path d="M520.68377,148.37529v-27.00536h61.11741v27.00536z" fill="url(#color-116)" stroke-width="NaN"/><path d="M490.83573,119.23579v-27.00536h61.11741v27.00536z" fill="url(#color-117)" stroke-width="NaN"/><path d="M520.68377,87.96643v-27.00536h61.11741v27.00536z" fill="url(#color-118)" stroke-width="NaN"/><path d="M492.25707,58.1184v-27.00536h61.11741v27.00536z" fill="url(#color-119)" stroke-width="NaN"/><path d="M522.1051,26.84902v-27.00536h61.11741v27.00536z" fill="url(#color-120)" stroke-width="NaN"/></g><g><path d="M-59.54805,416.72673v-466.96697h54.83261v466.96697z" fill="url(#color-121)" stroke-width="NaN"/><path d="M-19.76215,417.73273v-466.96697h54.83261v466.96697z" fill="url(#color-122)" stroke-width="NaN"/><path d="M20.00762,418.72372v-466.96697h54.83261v466.96697z" fill="url(#color-123)" stroke-width="NaN"/><path d="M59.79352,419.72973v-466.96697h54.83261v466.96697z" fill="url(#color-124)" stroke-width="NaN"/></g><g data-paper-data="{&quot;index&quot;:null}"><path d="M491.21994,423.22823v-466.96697h54.83261v466.96697z" fill="url(#color-125)" stroke-width="NaN"/><path d="M451.43405,424.23423v-466.96697h54.83261v466.96697z" fill="url(#color-126)" stroke-width="NaN"/><path d="M411.66428,425.22522v-466.96697h54.83261v466.96697z" fill="url(#color-127)" stroke-width="NaN"/><path d="M371.87838,426.23123v-466.96697h54.83261v466.96697z" fill="url(#color-128)" stroke-width="NaN"/></g></g></g></svg>