<svg version="1.1" xmlns="http://www.w3.org/2000/svg" xmlns:xlink="http://www.w3.org/1999/xlink" width="597.40473" height="377.8814" viewBox="0,0,597.40473,377.8814"><defs><linearGradient x1="355.41684" y1="127.26152" x2="378.1869" y2="127.26152" gradientUnits="userSpaceOnUse" id="color-1"><stop offset="0" stop-color="#696969"/><stop offset="1" stop-color="#8b8b8b"/></linearGradient><linearGradient x1="330.72297" y1="183.87132" x2="401.87156" y2="183.87132" gradientUnits="userSpaceOnUse" id="color-2"><stop offset="0" stop-color="#696969"/><stop offset="1" stop-color="#8b8b8b"/></linearGradient><linearGradient x1="326.93845" y1="133.15903" x2="406.41296" y2="133.15903" gradientUnits="userSpaceOnUse" id="color-3"><stop offset="0" stop-color="#8b8b8b"/><stop offset="1" stop-color="#696969"/></linearGradient><linearGradient x1="383.72585" y1="182.97194" x2="393.18708" y2="182.97194" gradientUnits="userSpaceOnUse" id="color-4"><stop offset="0" stop-color="#8b8b8b"/><stop offset="1" stop-color="#696969"/></linearGradient><linearGradient x1="368.96631" y1="182.59349" x2="378.42755" y2="182.59349" gradientUnits="userSpaceOnUse" id="color-5"><stop offset="0" stop-color="#8b8b8b"/><stop offset="1" stop-color="#696969"/></linearGradient><linearGradient x1="354.96365" y1="182.59349" x2="364.4249" y2="182.59349" gradientUnits="userSpaceOnUse" id="color-6"><stop offset="0" stop-color="#8b8b8b"/><stop offset="1" stop-color="#696969"/></linearGradient><linearGradient x1="340.20412" y1="182.21504" x2="349.66536" y2="182.21504" gradientUnits="userSpaceOnUse" id="color-7"><stop offset="0" stop-color="#8b8b8b"/><stop offset="1" stop-color="#696969"/></linearGradient><linearGradient x1="291.85823" y1="141.78104" x2="314.62834" y2="141.78104" gradientUnits="userSpaceOnUse" id="color-8"><stop offset="0" stop-color="#696969"/><stop offset="1" stop-color="#8b8b8b"/></linearGradient><linearGradient x1="267.16441" y1="198.39084" x2="338.313" y2="198.39084" gradientUnits="userSpaceOnUse" id="color-9"><stop offset="0" stop-color="#696969"/><stop offset="1" stop-color="#8b8b8b"/></linearGradient><linearGradient x1="263.37989" y1="147.67855" x2="342.8544" y2="147.67855" gradientUnits="userSpaceOnUse" id="color-10"><stop offset="0" stop-color="#8b8b8b"/><stop offset="1" stop-color="#696969"/></linearGradient><linearGradient x1="320.16729" y1="197.49146" x2="329.62852" y2="197.49146" gradientUnits="userSpaceOnUse" id="color-11"><stop offset="0" stop-color="#8b8b8b"/><stop offset="1" stop-color="#696969"/></linearGradient><linearGradient x1="305.40774" y1="197.11301" x2="314.86897" y2="197.11301" gradientUnits="userSpaceOnUse" id="color-12"><stop offset="0" stop-color="#8b8b8b"/><stop offset="1" stop-color="#696969"/></linearGradient><linearGradient x1="291.40506" y1="197.11301" x2="300.86634" y2="197.11301" gradientUnits="userSpaceOnUse" id="color-13"><stop offset="0" stop-color="#8b8b8b"/><stop offset="1" stop-color="#696969"/></linearGradient><linearGradient x1="276.64554" y1="196.73456" x2="286.10679" y2="196.73456" gradientUnits="userSpaceOnUse" id="color-14"><stop offset="0" stop-color="#8b8b8b"/><stop offset="1" stop-color="#696969"/></linearGradient><linearGradient x1="91.18513" y1="239.06386" x2="149.31726" y2="239.06386" gradientUnits="userSpaceOnUse" id="color-15"><stop offset="0" stop-color="#333232" stop-opacity="0"/><stop offset="1" stop-color="#333232"/></linearGradient><linearGradient x1="258.83319" y1="226.29194" x2="264.82268" y2="250.22246" gradientUnits="userSpaceOnUse" id="color-16"><stop offset="0" stop-color="#ff0000"/><stop offset="1" stop-color="#8c0a0a"/></linearGradient><linearGradient x1="262.2999" y1="230.43219" x2="268.28941" y2="254.36271" gradientUnits="userSpaceOnUse" id="color-17"><stop offset="0" stop-color="#ff0000"/><stop offset="1" stop-color="#8c0a0a"/></linearGradient><linearGradient x1="265.25305" y1="233.95908" x2="271.24257" y2="257.88959" gradientUnits="userSpaceOnUse" id="color-18"><stop offset="0" stop-color="#ff0000"/><stop offset="1" stop-color="#8c0a0a"/></linearGradient><linearGradient x1="268.46299" y1="237.79267" x2="274.45248" y2="261.72318" gradientUnits="userSpaceOnUse" id="color-19"><stop offset="0" stop-color="#ff0000"/><stop offset="1" stop-color="#8c0a0a"/></linearGradient><linearGradient x1="260.6362" y1="245.17339" x2="273.79954" y2="241.87879" gradientUnits="userSpaceOnUse" id="color-20"><stop offset="0" stop-color="#333333"/><stop offset="1" stop-color="#696969"/></linearGradient></defs><g transform="translate(40.52624,10.62893)"><g data-paper-data="{&quot;isPaintingLayer&quot;:true}" fill-rule="nonzero" stroke-linecap="butt" stroke-linejoin="miter" stroke-miterlimit="10" stroke-dasharray="" stroke-dashoffset="0" style="mix-blend-mode: normal"><path d="M-40.52624,367.25247v-204.20421h552.55255v204.20421z" fill="#aeaeae" stroke="none" stroke-width="0"/><path d="M208.23319,296.73445c27.89038,0 50.5,3.80558 50.5,8.5c0,4.69442 -22.60962,8.5 -50.5,8.5c-27.89038,0 -50.5,-3.80558 -50.5,-8.5c0,-4.69442 22.60962,-8.5 50.5,-8.5z" fill="#5e5e5e" stroke="#696969" stroke-width="0"/><path d="M-16.75672,313.6954l3.003,-324.32433h522.3974l1.5015,186.18619z" fill="#a79b6b" stroke="none" stroke-width="0"/><path d="M209.90437,276.44574c0.67573,-11.54093 -1.81751,-42.71457 -1.81751,-42.71457l15.91269,0.02326c0,0 -0.09481,25.98625 -0.70825,36.46314c-0.63291,10.80957 -1.92888,32.94358 -1.92888,32.94358l-12.31225,-0.72089c0,0 0.31317,-16.75437 0.8542,-25.99452z" data-paper-data="{&quot;index&quot;:null}" fill="#333232" stroke="none" stroke-width="0"/><path d="M243.97396,301.22712c0.17872,7.3852 -34.47094,8.79078 -34.64966,1.40557c-0.17872,-7.3852 6.69357,-16.67922 16.26181,-17.06736c9.56824,-0.38814 18.20913,8.27657 18.38785,15.66178z" fill="#333232" stroke="none" stroke-width="0"/><text transform="translate(6.2703,22.01046) scale(0.40204,0.40204)" font-size="40" xml:space="preserve" fill="#ffffff" fill-rule="nonzero" stroke="none" stroke-width="1" stroke-linecap="butt" stroke-linejoin="miter" stroke-miterlimit="10" stroke-dasharray="" stroke-dashoffset="0" font-family="Pixel" font-weight="normal" text-anchor="start" style="mix-blend-mode: normal"><tspan x="0" dy="0">FEB 04 2019  4:48 PM</tspan><tspan x="0" dy="46.150000000000006px">BACK_ALLEY</tspan></text><g fill="#696969" stroke="#696969"><path d="M389.27957,253.78283l7.29728,1.17326l-10.07254,6.65659l-7.29728,-1.17326z" stroke-width="0"/><path d="M304.59238,233.94252l93.63082,12.303l-31.47321,20.79954l-87.60403,-16.28588c0,0 -0.20544,-2.5489 9.15292,-8.83758c11.06618,-7.43631 16.2935,-7.97908 16.2935,-7.97908z" stroke-width="0"/><path d="M395.14563,244.37517l10.18225,1.63711l-35.15624,23.23354l-10.18225,-1.63711z" stroke-width="0"/><path d="M295.65288,249.01872l69.5787,11.18692l-4.18527,2.7659l-69.5787,-11.18692z" stroke-width="2"/><path d="M302.52128,244.75849l69.57869,11.18692l-4.18526,2.7659l-69.5787,-11.18692z" stroke-width="2"/><path d="M308.71549,240.66496l69.5787,11.18692l-4.18527,2.7659l-69.5787,-11.18692z" stroke-width="2"/><path d="M315.58394,236.40473l69.5787,11.18692l-4.18527,2.7659l-69.5787,-11.18692z" stroke-width="2"/></g><g fill="#696969" stroke="#696969"><path d="M461.27957,239.78283l7.29728,1.17326l-10.07254,6.65659l-7.29728,-1.17326z" stroke-width="0"/><path d="M376.59243,219.94252l93.63082,12.303l-31.47321,20.79954l-87.60403,-16.28588c0,0 -0.20544,-2.5489 9.15292,-8.83758c11.06618,-7.43631 16.2935,-7.97908 16.2935,-7.97908z" stroke-width="0"/><path d="M467.14563,230.37517l10.18225,1.63711l-35.15624,23.23354l-10.18225,-1.63711z" stroke-width="0"/><path d="M367.6529,235.01872l69.5787,11.18692l-4.18527,2.7659l-69.5787,-11.18692z" stroke-width="2"/><path d="M374.52132,230.75849l69.57869,11.18692l-4.18526,2.7659l-69.5787,-11.18692z" stroke-width="2"/><path d="M380.71551,226.66496l69.5787,11.18692l-4.18527,2.7659l-69.5787,-11.18692z" stroke-width="2"/><path d="M387.58394,222.40473l69.5787,11.18692l-4.18527,2.7659l-69.5787,-11.18692z" stroke-width="2"/></g><g><path d="M355.41684,131.32986v-8.13668h22.77007v8.13668z" fill="url(#color-1)" stroke="none" stroke-width="0"/><path d="M338.29198,234.20515l-7.569,-100.66766h71.14857l-6.05519,100.66767c0,0 -6.92197,3.64328 -28.36385,3.7845c-25.35485,0.16699 -29.16053,-3.7845 -29.16053,-3.7845z" fill="url(#color-2)" stroke="none" stroke-width="0"/><path d="M326.93845,138.83578v-11.3535h79.47447v11.3535z" fill="url(#color-3)" stroke="none" stroke-width="0"/><path d="M383.72585,221.76305v-77.58222h9.46124v77.58222z" fill="url(#color-4)" stroke="#494949" stroke-width="2"/><path d="M368.96631,221.3846v-77.58222h9.46124v77.58222z" fill="url(#color-5)" stroke="#494949" stroke-width="2"/><path d="M354.96365,221.3846v-77.58222h9.46125v77.58222z" fill="url(#color-6)" stroke="#494949" stroke-width="2"/><path d="M340.20412,221.00615v-77.58222h9.46125v77.58222z" fill="url(#color-7)" stroke="#494949" stroke-width="2"/></g><g><path d="M291.85823,145.84938v-8.13667h22.77007v8.13667z" fill="url(#color-8)" stroke="none" stroke-width="0"/><path d="M274.73339,248.72467l-7.569,-100.66766h71.14857l-6.05519,100.66767c0,0 -6.92197,3.64328 -28.36385,3.7845c-25.35485,0.16699 -29.16053,-3.7845 -29.16053,-3.7845z" fill="url(#color-9)" stroke="none" stroke-width="0"/><path d="M263.37989,153.3553v-11.3535h79.47447v11.3535z" fill="url(#color-10)" stroke="none" stroke-width="0"/><path d="M320.16729,236.28257v-77.58222h9.46124v77.58222z" fill="url(#color-11)" stroke="#494949" stroke-width="2"/><path d="M305.40774,235.90412v-77.58222h9.46124v77.58222z" fill="url(#color-12)" stroke="#494949" stroke-width="2"/><path d="M291.40506,235.90412v-77.58222h9.46125v77.58222z" fill="url(#color-13)" stroke="#494949" stroke-width="2"/><path d="M276.64554,235.52567v-77.58222h9.46125v77.58222z" fill="url(#color-14)" stroke="#494949" stroke-width="2"/></g><g data-paper-data="{&quot;index&quot;:null}" fill="#696969" stroke="none" stroke-width="0"><path d="M316.1237,275.83409c-14.27501,-8.2122 -2.6306,-14.79631 14.93498,-21.07647c17.56558,-6.28016 35.10283,-9.84049 49.37784,-1.62829c14.27501,8.2122 7.54519,21.27436 3.07303,23.01186c-7.43858,2.89 -53.11084,7.9051 -67.38586,-0.3071z"/><path d="M380.40261,274.24033l22.42864,-0.86911c0,0 -3.52407,1.21945 -8.98503,2.41579c-0.88114,0.19304 2.12008,1.64526 1.37686,1.93807c-0.86836,0.34211 -3.96717,-0.60559 -4.70484,-0.23676c-1.0186,0.50928 1.10643,2.11008 0.16598,2.49712c-2.86228,1.17796 -4.24111,0.01364 -5.47814,0.69191c-1.68106,0.92174 -1.80683,3.34856 -1.80683,3.34856z"/><path d="M387.3547,272.54505l2.13299,0.82265l-9.58794,5.11314l-2.133,-0.82265z"/></g><g data-paper-data="{&quot;index&quot;:null}" stroke="none" stroke-width="0"><path d="M300.72373,198.00159c5.8839,0.23998 29,18.69211 29,41.75c0,23.05789 -18.63247,27.75 -41,27.75c-22.36753,0 -40.5,-4.19211 -40.5,-27.25c0,-23.05789 42.71324,-42.64916 52.5,-42.25z" fill="#5e883f"/><path d="M289.87372,184.41662c0,0 3.4116,4.12445 5.99002,4.6798c1.89737,0.40866 1.39078,-2.46111 5.24659,-2.19336c1.26687,0.08797 1.7833,4.17553 3.27844,4.42679c1.08277,0.18196 2.22264,-3.37752 3.37159,-3.32272c0.98337,0.0469 0.60889,4.41963 1.56437,4.20838c5.9217,-1.30926 10.35388,-1.37937 10.35388,-1.37937l-18.8,12.38049z" fill="#5e883f"/><path d="M294.14295,198.9301l0.55207,-2.74503l14.50947,2.91811l-0.55207,2.74503z" fill="#515151"/></g><g data-paper-data="{&quot;index&quot;:null}" stroke="none" stroke-width="0"><path d="M374.72377,245.25158c0,23.05789 -18.13247,27.25 -40.5,27.25c-22.36753,0 -41,-4.69211 -41,-27.75c0,-23.05789 23.1161,-41.51002 29,-41.75c9.78676,-0.39916 52.5,19.19211 52.5,42.25z" fill="#689645"/><path d="M322.06888,208.21663l-18.8,-12.38049c0,0 4.43218,0.07012 10.35387,1.37938c0.95548,0.21125 0.581,-4.16148 1.56437,-4.20838c1.14895,-0.0548 2.28881,3.50469 3.37158,3.32272c1.49514,-0.25126 2.01156,-4.33882 3.27844,-4.42679c3.85582,-0.26775 3.34923,2.60203 5.2466,2.19337c2.57842,-0.55535 5.99002,-4.6798 5.99002,-4.6798z" fill="#689645"/><path d="M314.29506,206.8482l-0.55208,-2.74503l14.50947,-2.91811l0.55208,2.74504z" fill="#515151"/></g><path d="M406.41446,203.16603l-2,-121.59459l64.66967,43v94.59459z" fill="#337600" stroke="none" stroke-width="0"/><path d="M468.41446,219.16603v-94.59459l62.66967,-16v94.59459z" data-paper-data="{&quot;index&quot;:null}" fill="#409600" stroke="none" stroke-width="0"/><path d="M556.87848,101.27118l-90.2831,28.23296l-64.64196,-47.3712l99.94976,-20.89962z" data-paper-data="{&quot;index&quot;:null}" fill="#595959" stroke="none" stroke-width="0"/><path d="" fill="url(#color-15)" stroke="none" stroke-width="NaN"/><path d="M191.40437,275.94574c0.67573,-11.54093 -1.81751,-42.71457 -1.81751,-42.71457l15.91269,0.02326c0,0 -0.09481,25.98625 -0.70825,36.46314c-0.63291,10.80957 -1.92888,32.94358 -1.92888,32.94358l-12.31225,-0.72089c0,0 0.31317,-16.75437 0.8542,-25.99452z" data-paper-data="{&quot;index&quot;:null}" fill="#333232" stroke="none" stroke-width="0"/><path d="M225.47396,301.72712c0.17872,7.3852 -34.47094,8.79078 -34.64966,1.40557c-0.17872,-7.3852 6.69357,-16.67922 16.26181,-17.06736c9.56824,-0.38814 18.20913,8.27657 18.38785,15.66178z" data-paper-data="{&quot;index&quot;:null}" fill="#333232" stroke="none" stroke-width="0"/><path d="M252.51894,177.44394c-7.41871,11.42582 -21.75647,15.28377 -32.02427,8.61694c-10.2678,-6.66682 -12.57744,-21.3338 -5.15872,-32.75963c7.41871,-11.42582 21.75647,-15.28377 32.02427,-8.61694c10.2678,6.66682 12.57744,21.3338 5.15872,32.75963z" fill="#000000" stroke="none" stroke-width="0"/><path d="M240.1314,167.86627c-8.52149,13.12425 -13.28776,26.0926 -24.4658,18.83476c-11.17805,-7.25784 -13.3316,-23.78079 -4.8101,-36.90504c8.52149,-13.12425 24.49114,-17.87992 35.66918,-10.62209c11.17805,7.25784 2.12821,15.56812 -6.39328,28.69238z" fill="#333232" stroke="none" stroke-width="0"/><path d="M216.67389,180.27573c20.91765,1.86177 18.36884,18.90114 15.92181,39.18863c-2.44702,20.28749 -4.25609,37.80784 -25.54013,32.65117c-24.87303,-6.0262 -17.61202,-17.27343 -15.16498,-37.56092c2.44702,-20.28749 7.52963,-36.35997 24.78329,-34.27887z" fill="#333232" stroke="none" stroke-width="0"/><path d="M246.9251,222.54638c7.89604,4.82963 21.83213,14.13516 21.83213,14.13516l-6.43536,10.52127c0,0 -18.91436,-11.56901 -28.15153,-17.21895c-8.9529,-5.47606 -18.67929,-35.26054 -18.67929,-35.26054l14.36543,-7.56713c0,0 7.20646,29.35798 17.06863,35.39019z" data-paper-data="{&quot;index&quot;:null}" fill="#333232" stroke="none" stroke-width="0"/><path d="M231.02287,217.40728c8.41396,3.85724 23.35697,11.44101 23.35697,11.44101l-5.13967,11.21138c0,0 -20.15494,-9.23973 -29.99799,-13.75213c-9.5401,-4.37353 -22.73649,-32.79136 -22.73649,-32.79136l13.36457,-9.22037c0,0 10.64361,28.29377 21.15263,33.11146z" data-paper-data="{&quot;index&quot;:null}" fill="#333232" stroke="none" stroke-width="0"/><path d="M277.78166,249.74472c-4.0195,4.91755 -11.0911,5.78723 -15.79484,1.94249c-4.70375,-3.84473 -5.25844,-10.94798 -1.23892,-15.86553c4.0195,-4.91754 11.0911,-5.78722 15.79484,-1.94248c4.70375,3.84474 5.25844,10.94797 1.23893,15.86552z" data-paper-data="{&quot;index&quot;:null}" fill="#000000" stroke="none" stroke-width="0"/><g><path d="M243.26334,249.49768l32.89207,-27.54126l4.23712,5.06031l-32.89209,27.54127z" fill="url(#color-16)" stroke="#000000" stroke-width="0.5"/><path d="M246.73005,253.63791l32.89208,-27.54125l4.23711,5.06032l-32.89209,27.54126z" fill="url(#color-17)" stroke="#000000" stroke-width="0.5"/><path d="M249.68321,257.16481l32.89209,-27.54126l4.23712,5.06032l-32.89208,27.54127z" fill="url(#color-18)" stroke="#000000" stroke-width="0.5"/><path d="M252.89314,260.99839l32.89208,-27.54127l4.23711,5.06032l-32.89208,27.54126z" fill="url(#color-19)" stroke="#000000" stroke-width="0.5"/><path d="M258.52097,236.72213l3.5269,-2.95313l13.86692,16.56105l-3.52689,2.95315z" fill="url(#color-20)" stroke="none" stroke-width="0"/><path d="M259.75872,240.38107l5.82703,-4.8791l9.24461,11.0407l-5.82704,4.8791z" fill="#33481f" stroke="#333333" stroke-width="1"/></g><path d="M262.59412,244.35456c-4.48201,4.50001 -11.6048,4.67258 -15.90916,0.38546c-4.30437,-4.28715 -4.16036,-11.41056 0.32166,-15.91059c4.48201,-4.50001 11.6048,-4.67259 15.90916,-0.38546c4.30436,4.28713 4.16037,11.41056 -0.32164,15.91059z" data-paper-data="{&quot;index&quot;:null}" fill="#000000" stroke="none" stroke-width="0"/></g></g></svg>