<svg version="1.1" xmlns="http://www.w3.org/2000/svg" xmlns:xlink="http://www.w3.org/1999/xlink" width="1297.33171" height="819.79835" viewBox="0,0,1297.33171,819.79835"><defs><linearGradient x1="-136.47603" y1="456.17132" x2="-187.99096" y2="465.83364" gradientUnits="userSpaceOnUse" id="color-1"><stop offset="0" stop-color="#5c5c5c"/><stop offset="1" stop-color="#9b9b9b"/></linearGradient><linearGradient x1="-258.91308" y1="556.18365" x2="-283.34404" y2="521.92876" gradientUnits="userSpaceOnUse" id="color-2"><stop offset="0" stop-color="#5c5c5c"/><stop offset="1" stop-color="#9b9b9b"/></linearGradient><linearGradient x1="-43.5066" y1="444.25951" x2="-59.09021" y2="405.17732" gradientUnits="userSpaceOnUse" id="color-3"><stop offset="0" stop-color="#5c5c5c"/><stop offset="1" stop-color="#9b9b9b"/></linearGradient><linearGradient x1="628.22791" y1="457.72761" x2="679.74279" y2="467.38991" gradientUnits="userSpaceOnUse" id="color-4"><stop offset="0" stop-color="#5c5c5c"/><stop offset="1" stop-color="#9b9b9b"/></linearGradient><linearGradient x1="750.66493" y1="557.73996" x2="775.09588" y2="523.48505" gradientUnits="userSpaceOnUse" id="color-5"><stop offset="0" stop-color="#5c5c5c"/><stop offset="1" stop-color="#9b9b9b"/></linearGradient><linearGradient x1="535.25845" y1="445.81578" x2="550.84206" y2="406.73359" gradientUnits="userSpaceOnUse" id="color-6"><stop offset="0" stop-color="#5c5c5c"/><stop offset="1" stop-color="#9b9b9b"/></linearGradient><linearGradient x1="245.33453" y1="364.79386" x2="245.33453" y2="389.83115" gradientUnits="userSpaceOnUse" id="color-7"><stop offset="0" stop-color="#5c5c5c"/><stop offset="1" stop-color="#9b9b9b"/></linearGradient><linearGradient x1="285.51516" y1="433.55118" x2="305.73045" y2="445.55902" gradientUnits="userSpaceOnUse" id="color-8"><stop offset="0" stop-color="#5c5c5c"/><stop offset="1" stop-color="#9b9b9b"/></linearGradient><linearGradient x1="206.77375" y1="435.48976" x2="186.55835" y2="447.49758" gradientUnits="userSpaceOnUse" id="color-9"><stop offset="0" stop-color="#5c5c5c"/><stop offset="1" stop-color="#9b9b9b"/></linearGradient><linearGradient x1="230.64516" y1="627.09913" x2="260.45143" y2="627.09913" gradientUnits="userSpaceOnUse" id="color-10"><stop offset="0" stop-color="#5c5c5c"/><stop offset="1" stop-color="#9b9b9b"/></linearGradient><linearGradient x1="395.33036" y1="377.75538" x2="447.74363" y2="377.75538" gradientUnits="userSpaceOnUse" id="color-11"><stop offset="0" stop-color="#5c5c5c"/><stop offset="1" stop-color="#9b9b9b"/></linearGradient><linearGradient x1="47.79293" y1="377.75538" x2="100.20614" y2="377.75538" gradientUnits="userSpaceOnUse" id="color-12"><stop offset="0" stop-color="#5c5c5c"/><stop offset="1" stop-color="#9b9b9b"/></linearGradient><linearGradient x1="110.81173" y1="255.24642" x2="372.29456" y2="195.34432" gradientUnits="userSpaceOnUse" id="color-13"><stop offset="0" stop-color="#6c6c6c"/><stop offset="1" stop-color="#c4c4c4"/></linearGradient><linearGradient x1="196.07552" y1="223.84984" x2="298.92543" y2="200.28834" gradientUnits="userSpaceOnUse" id="color-14"><stop offset="0" stop-color="#6e6e6e"/><stop offset="1" stop-color="#c0c0c0"/></linearGradient><linearGradient x1="216.77628" y1="84.26666" x2="242.53416" y2="196.70434" gradientUnits="userSpaceOnUse" id="color-15"><stop offset="0" stop-color="#a6a6a6"/><stop offset="1" stop-color="#707070"/></linearGradient><linearGradient x1="140.66918" y1="84.24498" x2="203.12907" y2="201.0542" gradientUnits="userSpaceOnUse" id="color-16"><stop offset="0" stop-color="#a6a6a6"/><stop offset="1" stop-color="#707070"/></linearGradient><linearGradient x1="284.82755" y1="53.12873" x2="280.01898" y2="187.97639" gradientUnits="userSpaceOnUse" id="color-17"><stop offset="0" stop-color="#a6a6a6"/><stop offset="1" stop-color="#707070"/></linearGradient><linearGradient x1="236.9797" y1="170.45604" x2="244.36768" y2="202.70574" gradientUnits="userSpaceOnUse" id="color-18"><stop offset="0" stop-color="#a6a6a6"/><stop offset="1" stop-color="#707070"/></linearGradient><linearGradient x1="241.8258" y1="199.6185" x2="249.02433" y2="231.04151" gradientUnits="userSpaceOnUse" id="color-19"><stop offset="0" stop-color="#707070"/><stop offset="1" stop-color="#a6a6a6"/></linearGradient><linearGradient x1="213.18234" y1="66.57653" x2="226.56042" y2="124.97425" gradientUnits="userSpaceOnUse" id="color-20"><stop offset="0" stop-color="#a6a6a6"/><stop offset="1" stop-color="#707070"/></linearGradient></defs><g transform="translate(402.78995,40.46464)"><g data-paper-data="{&quot;isPaintingLayer&quot;:true}" fill-rule="nonzero" stroke-linejoin="miter" stroke-miterlimit="10" stroke-dasharray="" stroke-dashoffset="0" style="mix-blend-mode: normal"><g data-paper-data="{&quot;index&quot;:null}" stroke-linecap="butt"><path d="M-167.06468,435.24503c14.22549,-2.6682 27.92047,6.70082 30.58866,20.92629c2.66814,14.22546 -6.70091,27.92051 -20.92635,30.58865c-14.22546,2.6682 -27.92044,-6.70082 -30.58862,-20.92635c-2.6682,-14.22548 6.70086,-27.92042 20.92629,-30.58857z" data-paper-data="{&quot;index&quot;:null}" fill="url(#color-1)" stroke="none" stroke-width="0"/><g data-paper-data="{&quot;index&quot;:null}"><path d="M-401.46928,553.68775c0,0 57.94606,-54.60368 89.92171,-76.3177c31.11662,-21.13073 103.0899,-47.12579 103.0899,-47.12579l64.13149,89.91913c0,0 -47.61641,55.21596 -78.21088,75.99204c-32.41584,22.01293 -109.30387,55.159 -109.30387,55.159z" fill="#696969" stroke="#000000" stroke-width="2"/><path d="M-377.30682,585.73678l187.92524,-127.61625l24.43109,34.25498l-187.92511,127.61618z" fill="url(#color-2)" stroke="none" stroke-width="0"/><path d="M-349.45869,630.62964c-4.56282,-2.81596 -1.30619,-7.35417 -1.30619,-7.35417l4.69665,-6.39376c2.6298,-10.4148 1.47056,-20.48694 2.84136,-30.98396c0.91084,-6.97491 4.03383,-13.45277 5.3347,-20.3059c1.42311,-7.49659 0.34574,-15.01063 4.714,-22.11813c11.00325,-17.90302 37.21574,-27.23509 55.6805,-20.8623c10.5027,3.07336 21.62576,4.18246 31.94224,7.55969c1.73752,0.5688 9.2019,3.85989 12.42619,3.14283c5.17279,-1.15028 12.16887,-11.32748 14.30313,-14.44083c11.97546,-17.46868 12.62642,-39.64794 23.9436,-57.68677c0,0 2.99529,-4.68917 7.73384,-2.13272c4.73862,2.55664 1.74343,7.24584 1.74343,7.24584c-11.72908,17.93727 -11.85355,40.19034 -24.07142,57.88255c-4.48129,6.48938 -12.7002,17.45386 -21.53687,19.47005c-8.93657,2.03917 -16.19276,-3.25728 -24.18702,-5.03798c-8.91633,-1.98614 -17.72671,-3.2908 -26.50132,-5.86235c-13.39063,-4.88486 -33.80943,2.27333 -41.84165,15.58165c-3.43722,5.69488 -2.15972,12.42874 -3.30682,18.42844c-1.28043,6.69667 -4.3874,13.06732 -5.26346,19.86326c-1.51669,11.76598 -0.4979,22.47596 -3.80116,34.1539l-5.72428,8.12827c0,0 -3.25673,4.53816 -7.81957,1.72242z" fill="#000000" stroke="none" stroke-width="0.5"/><path d="M-401.46928,553.68775c0,0 57.94606,-54.60368 89.92171,-76.3177c31.11662,-21.13073 103.0899,-47.12579 103.0899,-47.12579l64.13149,89.91913c0,0 -47.61641,55.21596 -78.21088,75.99204c-32.41584,22.01293 -109.30387,55.159 -109.30387,55.159z" fill="#0096ff" stroke="#000000" stroke-width="2"/></g><g data-paper-data="{&quot;index&quot;:null}"><path d="M-181.37939,407.93299c0,0 69.26932,-39.25647 105.49156,-52.74314c35.24913,-13.1244 111.33957,-21.25717 111.33957,-21.25717l40.90719,102.59092c0,0 -59.38165,42.30775 -94.03925,55.21183c-36.72089,13.6723 -119.28568,27.58205 -119.28568,27.58205z" fill="#696969" stroke="#000000" stroke-width="2"/><path d="M-165.53192,444.8086l212.88303,-79.26296l15.5837,39.08234l-212.88292,79.26292z" fill="url(#color-3)" stroke="none" stroke-width="0"/><path d="M-149.15913,495.03628c-3.76227,-3.82027 0.48023,-7.45381 0.48023,-7.45381l6.08246,-5.09337c5.03116,-9.4906 6.30052,-19.54937 10.12841,-29.41924c2.54346,-6.55817 7.11743,-12.1075 10.01075,-18.45464c3.1651,-6.94308 3.9056,-14.49773 9.83884,-20.36246c14.94522,-14.77263 42.625,-17.60315 59.04442,-7.02191c9.47047,5.48288 20.01065,9.20544 29.22802,14.93925c1.5524,0.9657 8.01991,5.9375 11.32227,6.00782c5.29798,0.11292 14.5136,-8.10852 17.32705,-10.62494c15.78622,-14.11949 21.69314,-35.50769 36.97562,-50.3375c0,0 4.02457,-3.8423 8.01914,-0.23226c3.99467,3.61017 -0.02981,7.45257 -0.02981,7.45257c-15.65839,14.63328 -21.07145,36.21829 -37.14632,50.49731c-5.89601,5.23741 -16.48667,13.93277 -25.54928,13.78961c-9.16511,-0.14461 -14.95353,-7.01477 -22.29498,-10.64555c-8.18814,-4.04966 -16.4355,-7.4121 -24.34677,-11.99664c-11.84477,-7.92927 -33.38006,-5.8324 -44.34676,5.18391c-4.6929,4.71406 -5.05352,11.55852 -7.59455,17.11331c-2.83629,6.20002 -7.3692,11.64905 -9.83632,18.04166c-4.27131,11.06775 -5.8288,21.71269 -11.81449,32.26997l-7.49308,6.53375c0,0 -4.24252,3.63345 -8.00486,-0.18667z" fill="#000000" stroke="none" stroke-width="0.5"/><path d="M-181.37939,407.93299c0,0 69.26932,-39.25647 105.49156,-52.74314c35.24913,-13.1244 111.33957,-21.25717 111.33957,-21.25717l40.90719,102.59092c0,0 -59.38165,42.30775 -94.03925,55.21183c-36.72089,13.6723 -119.28568,27.58205 -119.28568,27.58205z" fill="#0096ff" stroke="#000000" stroke-width="2"/></g></g><g data-paper-data="{&quot;index&quot;:null}" stroke-linecap="butt"><path d="M658.81653,436.8013c14.2254,2.66814 23.59446,16.3631 20.92629,30.58857c-2.66818,14.22552 -16.36315,23.59455 -30.58861,20.92635c-14.2254,-2.66814 -23.59448,-16.36321 -20.92635,-30.58865c2.6682,-14.22547 16.36317,-23.59446 30.58866,-20.92629z" data-paper-data="{&quot;index&quot;:null}" fill="url(#color-4)" stroke="none" stroke-width="0"/><g data-paper-data="{&quot;index&quot;:null}"><path d="M823.59273,652.87062c0,0 -76.88804,-33.14606 -109.30387,-55.159c-30.59447,-20.77606 -78.21088,-75.99204 -78.21088,-75.99204l64.13149,-89.91913c0,0 71.97327,25.99507 103.0899,47.12577c31.97566,21.714 89.92172,76.3177 89.92172,76.3177z" fill="#696969" stroke="#000000" stroke-width="2"/><path d="M844.62751,621.54795l-187.92511,-127.61618l24.43109,-34.25498l187.92524,127.61625z" fill="url(#color-5)" stroke="none" stroke-width="0"/><path d="M841.21066,632.18594c-4.56286,2.81576 -7.81956,-1.72242 -7.81956,-1.72242l-5.72428,-8.12827c-3.30327,-11.6779 -2.28448,-22.38789 -3.80116,-34.15392c-0.87605,-6.79596 -3.98301,-13.16662 -5.26346,-19.86326c-1.1471,-5.99968 0.13039,-12.73355 -3.30684,-18.42844c-8.03223,-13.30829 -28.451,-20.46651 -41.84165,-15.58165c-8.77462,2.57158 -17.58498,3.87622 -26.50132,5.86237c-7.99427,1.78071 -15.25045,7.07713 -24.18702,5.03798c-8.83667,-2.01617 -17.05559,-12.98067 -21.53687,-19.47005c-12.21786,-17.69222 -12.34233,-39.94529 -24.07143,-57.88255c0,0 -2.99521,-4.6892 1.74342,-7.24584c4.73854,-2.55648 7.73384,2.13272 7.73384,2.13272c11.31716,18.0388 11.9681,40.21808 23.9436,57.68677c2.13427,3.11336 9.13032,13.29056 14.30313,14.44083c3.22432,0.71707 10.68866,-2.57404 12.42619,-3.14283c10.31651,-3.37724 21.43952,-4.48637 31.94224,-7.55969c18.46474,-6.37279 44.67724,2.9593 55.6805,20.8623c4.36828,7.10753 3.29091,14.62154 4.714,22.11814c1.3009,6.85313 4.42386,13.33097 5.3347,20.3059c1.37078,10.49699 0.21157,20.56914 2.84136,30.98395l4.69665,6.39376c0,0 3.25663,4.53823 -1.30619,7.35417z" fill="#000000" stroke="none" stroke-width="0.5"/><path d="M823.59273,652.87062c0,0 -76.88804,-33.14606 -109.30387,-55.159c-30.59447,-20.77606 -78.21088,-75.99204 -78.21088,-75.99204l64.13149,-89.91913c0,0 71.97327,25.99507 103.0899,47.12577c31.97566,21.714 89.92172,76.3177 89.92172,76.3177z" fill="#0096ff" stroke="#000000" stroke-width="2"/></g><g data-paper-data="{&quot;index&quot;:null}"><path d="M628.71788,520.87377c0,0 -82.5648,-13.90974 -119.28569,-27.58203c-34.65761,-12.90412 -94.03925,-55.21183 -94.03925,-55.21183l40.90719,-102.59092c0,0 76.09044,8.13274 111.33957,21.25717c36.22225,13.48668 105.49156,52.74314 105.49156,52.74314z" fill="#696969" stroke="#000000" stroke-width="2"/><path d="M641.69995,485.44716l-212.88292,-79.26292l15.5837,-39.08234l212.88302,79.26296z" fill="url(#color-6)" stroke="none" stroke-width="0"/><path d="M640.91104,496.5927c-3.7623,3.82012 -8.00486,0.18667 -8.00486,0.18667l-7.49309,-6.53376c-5.98568,-10.55732 -7.54316,-21.20229 -11.81447,-32.26999c-2.46709,-6.39266 -7.00003,-11.84165 -9.83632,-18.04166c-2.54105,-5.55475 -2.90166,-12.39924 -7.59455,-17.11332c-10.9667,-11.0163 -32.50203,-13.11318 -44.34679,-5.18391c-7.9113,4.58454 -16.15863,7.94702 -24.34677,11.99664c-7.34144,3.63078 -13.12991,10.50094 -22.29498,10.64555c-9.06264,0.14316 -19.65327,-8.5522 -25.54928,-13.78961c-16.07488,-14.27899 -21.48793,-35.86397 -37.14632,-50.49727c0,0 -4.02447,-3.84239 -0.0298,-7.45257c3.99459,-3.61002 8.01914,0.23226 8.01914,0.23226c15.28246,14.82982 21.18934,36.21799 36.97562,50.3375c2.81347,2.51643 12.02912,10.73785 17.32706,10.62494c3.30236,-0.07031 9.76986,-5.04216 11.32227,-6.00782c9.21737,-5.73382 19.75751,-9.45632 29.22801,-14.93922c16.41946,-10.58122 44.09921,-7.75072 59.04443,7.02191c5.93328,5.86473 6.67379,13.4194 9.83884,20.36246c2.8933,6.34713 7.46729,11.89646 10.01075,18.45463c3.82786,9.86987 5.09725,19.92865 10.12841,29.41926l6.08246,5.09337c0,0 4.24248,3.63354 0.48023,7.45381z" fill="#000000" stroke="none" stroke-width="0.5"/><path d="M628.71788,520.87377c0,0 -82.5648,-13.90974 -119.28569,-27.58203c-34.65761,-12.90412 -94.03925,-55.21183 -94.03925,-55.21183l40.90719,-102.59092c0,0 76.09044,8.13274 111.33957,21.25717c36.22225,13.48668 105.49156,52.74314 105.49156,52.74314z" fill="#0096ff" stroke="#000000" stroke-width="2"/></g></g><path d="M249.40087,290.01982c84.94016,1.83917 269.5542,126.40457 269.5542,282.33254c0,50.83844 -12.82854,98.53848 -35.28042,139.74241c-46.41057,85.17398 -419.92955,86.61152 -466.77404,3.20585c-23.54842,-41.9275 -37.054,-90.78591 -37.054,-142.94826c0,-155.92796 169.24972,-284.50438 269.55425,-282.33252z" fill="#696969" stroke="#000000" stroke-width="2" stroke-linecap="butt"/><path d="M68.42113,389.83115v-25.03731h353.8269v25.03731z" fill="url(#color-7)" stroke="none" stroke-width="0" stroke-linecap="butt"/><path d="M232.05572,493.02307l106.91885,-118.94416l20.21535,12.00791l-106.91885,118.94416z" fill="url(#color-8)" stroke="none" stroke-width="0" stroke-linecap="butt"/><path d="M240.01777,506.96945l-106.91885,-118.94416l20.21535,-12.00791l106.9189,118.9442z" data-paper-data="{&quot;index&quot;:null}" fill="url(#color-9)" stroke="none" stroke-width="0" stroke-linecap="butt"/><path d="M230.64516,774.22897v-294.25933h29.80628v294.25933z" fill="url(#color-10)" stroke="none" stroke-width="0" stroke-linecap="butt"/><path d="M285.56867,484.80995c1.22928,-4.38609 7.44654,-3.51893 7.44654,-3.51893l4.85534,0.78587c2.3699,0.7488 4.73961,1.49756 7.10954,2.24639c12.24415,6.95764 24.0769,16.16186 34.96019,25.05936c4.4559,-1.56017 8.39255,-3.90002 11.49031,-7.30143c7.24298,-7.95333 -0.59548,-16.70857 -2.29327,-24.70782c-2.06836,-9.74521 1.73697,-19.79189 0.00108,-29.57907c-2.52896,-14.25883 -17.88338,-28.99369 -30.69463,-39.67407c-12.22919,-10.36439 -35.16606,-12.03211 -44.86963,-23.25637c-8.18012,-9.46202 -3.19122,-21.14002 -8.47842,-30.92846c-0.83319,4.21341 -2.78957,8.24499 -6.26225,11.98349c-8.56814,9.22415 -26.63834,18.262 -39.69287,23.87674c-8.47696,3.64588 -24.1675,6.59936 -30.77835,12.05197c-5.08557,4.19442 -6.12068,10.16006 -9.31162,15.19952c-12.53636,19.79847 -32.97265,42.40202 -1.66875,58.08542c7.03499,3.52458 13.09341,5.70435 21.77708,5.58031h2.82836c0,0 6.33774,0 6.33774,4.47091c0,4.47091 -6.33774,4.47092 -6.33774,4.47092h-2.82836c-22.80327,-0.23347 -55.12989,-16.57341 -52.97221,-35.00089c1.62344,-13.86497 13.37166,-28.74726 21.29058,-41.25367c0.9164,-1.44732 10.52973,-16.77278 11.36695,-17.45799c7.75943,-6.35045 23.7904,-9.53536 33.7064,-13.78504c11.60758,-4.97464 28.117,-13.12439 35.82378,-21.28977c7.39462,-7.83484 5.30456,-18.59021 0.51311,-29.3553c-8.39634,-9.39191 -18.62274,-17.98001 -30.82181,-24.16176c0,0 -5.13136,-2.62409 -1.41159,-6.2439c3.71961,-3.61988 8.85097,-0.99586 8.85097,-0.99586c3.20751,1.65358 6.30971,3.45429 9.30168,5.37955c-0.50791,-0.99397 -0.97378,-1.9546 -1.38735,-2.87734c0,0 -1.91039,-4.26307 4.13253,-5.61071c6.04293,-1.34769 7.95327,2.91532 7.95327,2.91532c3.53213,7.88178 9.27098,16.97122 13.71024,26.27681c6.93842,7.57757 12.71279,15.66547 17.19029,23.6149c5.46074,9.6953 0.68897,21.36557 8.13734,30.57354c4.43902,5.4877 16.71796,6.81449 23.78567,9.68497c7.61971,3.09468 14.10321,7.56824 19.80629,12.289c14.45516,12.13769 30.66453,28.20243 33.57265,44.28244c1.77155,9.79583 -2.10581,19.88507 0.00097,29.59052c2.33007,10.73408 10.11139,19.85093 0.53516,30.51718c-3.85187,4.2904 -8.59357,7.37792 -13.9187,9.54945c0.20243,0.16742 0.4044,0.33443 0.6058,0.50109c7.79497,6.44557 12.69965,13.27853 23.22423,17.82102c32.77342,14.14521 38.03833,-22.9639 33.74335,-36.85774c-18.60409,-36.1779 -42.68078,-74.21829 -13.6139,-111.85528c4.15935,-5.38572 10.01191,-9.58402 16.14443,-13.64977c0.3564,2.23087 3.03995,3.96464 6.29752,3.96464c0.37653,0 0.74541,-0.02316 1.10383,-0.06754c0.5168,0.71908 1.30075,1.32625 2.25998,1.75661c-5.65372,3.67914 -11.04097,7.50648 -14.67962,12.27973c-27.01796,35.44323 -2.61569,71.22464 14.66904,105.09991c2.74437,8.97504 5.37387,19.70087 1.35691,28.73763c-7.66454,17.24229 -30.36297,28.08166 -53.87695,18.22812c-11.92111,-4.99555 -17.59475,-12.45612 -26.27129,-19.65303c-1.14449,-0.94938 -2.30502,-1.91601 -3.48037,-2.895c-14.23984,2.32994 -30.49174,0.70502 -44.69052,-1.06649c-2.68403,-0.50888 -5.36796,-1.01789 -8.05201,-1.5268l0.23568,0.15415c0,0 -6.33767,0 -6.33767,-4.47101c0,-4.47091 6.33767,-4.47091 6.33767,-4.47091l3.06384,0.15411c2.50111,0.47719 5.0024,0.95446 7.50354,1.43168c9.82389,1.21305 21.67565,2.7743 32.54056,2.02851c-8.86951,-7.21316 -18.34353,-14.44034 -28.01909,-19.97821c-1.87271,-0.56605 -3.74527,-1.13214 -5.61778,-1.69818l-2.21529,-0.20037c0,0 -6.21733,-0.86718 -4.98822,-5.25316z" fill="#000000" stroke="none" stroke-width="0.5" stroke-linecap="butt"/><path d="M226.68065,504.65931c3.49919,4.00812 -3.5808,5.98911 -3.5808,5.98911l-4.9961,1.14378c-12.68306,6.98078 -20.16014,16.4318 -29.37396,25.02562c-33.65601,31.05703 -109.65572,27.30586 -138.30419,-4.98878c-16.09123,-18.13923 -0.31615,-46.21375 17.99545,-61.5984c27.3057,-26.13446 30.05512,-48.38742 16.67271,-77.31802c-3.40418,-7.35935 -10.68229,-18.68026 -23.03939,-24.12716c2.06252,-0.85415 2.96804,-2.13565 2.96804,-2.13565c1.27821,-1.87715 2.88972,-3.71725 4.89496,-5.39085c12.0382,4.949 20.00881,13.24957 25.7293,21.435c22.63373,32.38642 17.01489,62.6209 -13.8702,92.31104c-15.80166,13.25212 -26.30666,32.93336 -20.16706,49.27785c1.71209,4.55787 8.25298,8.17141 13.75481,11.22816c9.75841,5.42147 20.00702,12.35853 34.20296,14.12093c28.0452,3.48187 51.90897,-4.46803 65.66017,-17.45355c10.01713,-9.34269 18.15204,-19.01729 31.77234,-26.74525l9.10168,-2.80073c0,0 7.07999,-1.98101 10.57923,2.02713z" fill="#000000" stroke="none" stroke-width="0.5" stroke-linecap="butt"/><path d="M252.02505,486.90044c4.47092,0 4.47092,6.14859 4.47092,6.14859l-0.23437,4.67713c-3.26599,13.27629 -4.4609,27.78561 -8.66011,40.62953c-2.30631,7.05406 -9.1951,16.69863 -8.57266,25.50827c0.64045,9.06581 7.24762,17.16725 11.33214,23.39802c9.21456,14.05644 20.38406,24.95445 29.87399,38.77656c1.88336,6.55644 4.65886,13.13388 3.63072,20.62718c-3.70486,27.00273 -32.6583,42.31325 -47.75475,55.4343c-4.39806,3.82258 -10.62912,4.77717 -13.5199,10.72622c-0.85788,1.76536 0.50653,4.19582 0.90591,6.2469c2.09064,10.73749 4.46835,19.06956 8.996,28.28669c4.45498,9.06919 8.37971,14.62846 15.00897,20.6119c0,0 3.73325,3.38329 1.27306,8.51741c-2.46022,5.1341 -6.19341,1.75072 -6.19341,1.75072c-7.56621,-6.88204 -12.41662,-13.63315 -17.50031,-24.00063c-4.55233,-9.28375 -15.32266,-34.60764 -10.46277,-46.98125c0.77309,-1.96826 14.58113,-13.69805 16.71538,-15.55296c14.42514,-12.53755 49.44533,-29.79551 41.36476,-59.04797c-13.08384,-18.32465 -40.74789,-39.49927 -42.594,-68.02116c-0.77106,-11.91256 6.14687,-21.61541 9.38448,-31.45244c4.06933,-12.36427 5.16451,-26.56314 8.29946,-39.38657l-0.23438,-0.74779c0,0 0,-6.14857 4.47092,-6.14857z" fill="#000000" stroke="none" stroke-width="0.5" stroke-linecap="butt"/><g><path d="M176.72625,546.77289v-121.60963h126.67667v121.60963z" fill="#323232" stroke="none" stroke-width="0" stroke-linecap="butt"/><g stroke="#000000"><path d="M239.5896,433.75268c27.06276,0 49.00153,21.93876 49.00153,49.00158c0,27.06276 -21.9388,49.00153 -49.00153,49.00153c-27.06276,0 -49.00153,-21.9388 -49.00153,-49.00153c0,-27.06276 21.9388,-49.00158 49.00153,-49.00158z" fill="#878787" stroke-width="1" stroke-linecap="butt"/><path d="M277.74714,452.52419l-75.62281,0.51101" fill="none" stroke-width="1.5" stroke-linecap="round"/><path d="M284.3897,466.32029l-88.3969,-0.51095" fill="none" stroke-width="1.5" stroke-linecap="round"/><path d="M285.92254,478.58318l-94.52853,-2.0439" fill="none" stroke-width="1.5" stroke-linecap="round"/><path d="M287.66835,488.54684l-96.06138,-1.02192" fill="none" stroke-width="1.5" stroke-linecap="round"/><path d="M218.51452,440.73667l44.02161,0.5503" fill="none" stroke-width="1.5" stroke-linecap="round"/><path d="M201.52826,512.78272l75.62273,0.51099" data-paper-data="{&quot;index&quot;:null}" fill="none" stroke-width="1.5" stroke-linecap="round"/><path d="M283.79352,499.49766l-88.39688,0.51095" data-paper-data="{&quot;index&quot;:null}" fill="none" stroke-width="1.5" stroke-linecap="round"/><path d="M261.93999,524.53104l-44.02161,0.55021" data-paper-data="{&quot;index&quot;:null}" fill="none" stroke-width="1.5" stroke-linecap="round"/></g></g><path d="M447.74363,377.75538c0,14.4736 -11.73311,26.20667 -26.20657,26.20667c-14.47349,0 -26.20667,-11.73314 -26.20667,-26.20667c0,-14.47355 11.73311,-26.20657 26.20667,-26.20657c14.47349,0 26.20657,11.73308 26.20657,26.20657z" fill="url(#color-11)" stroke="none" stroke-width="0" stroke-linecap="butt"/><path d="M100.20614,377.75538c0,14.4736 -11.73313,26.20667 -26.20657,26.20667c-14.47349,0 -26.20667,-11.73314 -26.20667,-26.20667c0,-14.47355 11.73313,-26.20657 26.20667,-26.20657c14.47349,0 26.20657,11.73308 26.20657,26.20657z" fill="url(#color-12)" stroke="none" stroke-width="0" stroke-linecap="butt"/><path d="M254.72031,288.24664c0.20761,0.00267 1.37763,63.55339 2.66773,144.73302c-5.58925,-1.99485 -11.61001,-3.08123 -17.88459,-3.08123c-29.37847,0 -53.1945,23.81604 -53.1945,53.1945c0,29.3785 23.81606,53.1945 53.1945,53.1945c6.84177,0 13.38186,-1.29165 19.38968,-3.6444c1.73482,121.42635 3.07601,242.53089 1.80601,242.4562c-106.48104,-6.26558 -214.69039,-19.21646 -238.47902,-61.57179c-23.54842,-41.9275 -37.054,-90.78591 -37.054,-142.94824c0,-155.92798 169.24972,-284.5044 269.55425,-282.33254z" fill="#0096ff" stroke="#000000" stroke-width="2" stroke-linecap="butt"/><path d="M512.13209,572.35232c0,52.1624 -13.50558,101.02074 -37.054,142.94826c-23.78864,42.35529 -131.99793,55.30618 -238.47902,61.57173c-1.26353,0.07431 0.05756,-119.79647 1.77944,-240.59653c0.37401,0.00776 0.74904,0.01165 1.12498,0.01165c29.3785,0 53.1945,-23.81606 53.1945,-53.1945c0,-29.21703 -23.55489,-52.93251 -52.71054,-53.19232c1.25922,-78.84548 2.38698,-139.87817 2.5904,-139.88078c100.30457,-2.1719 269.55432,126.40457 269.55432,282.33254z" data-paper-data="{&quot;index&quot;:null}" fill="#0096ff" stroke="#000000" stroke-width="2" stroke-linecap="butt"/><path d="M211.67703,100.82732c83.27814,-19.07789 163.66166,21.64998 179.54155,90.96826c15.87988,69.31826 -38.75723,140.97749 -122.03546,160.05535c-83.27821,19.07788 -163.66168,-21.64995 -179.54157,-90.96823c-15.87988,-69.31826 38.75725,-140.97751 122.03548,-160.05538z" fill="#696969" stroke="#000000" stroke-width="2" stroke-linecap="butt"/><path d="M217.4592,120.12091c72.20652,-16.54151 141.52873,17.13705 154.83546,75.22317c13.30674,58.08613 -34.44099,118.58379 -106.64756,135.1253c-72.20652,16.54151 -141.52869,-17.13711 -154.83542,-75.22317c-13.30674,-58.08614 34.44092,-118.58377 106.64742,-135.1253z" fill="none" stroke="url(#color-13)" stroke-width="4.5" stroke-linecap="butt"/><g stroke="none" stroke-width="0" stroke-linecap="butt"><path d="M208.45528,277.88958l-24.75955,-108.07959l102.84996,-23.56151l24.75955,108.07959z" fill="url(#color-14)"/><path d="M278.1716,185.77803l-7.18826,-31.37796l12.2025,-2.79542l7.18826,31.37796z" fill="#ffffff"/><path d="M286.3583,221.5143l-7.18826,-31.37796l12.2025,-2.79542l7.18826,31.37796z" fill="#ffffff"/><path d="M294.34529,256.37872l-7.18826,-31.37796l12.2025,-2.79542l7.18826,31.37796z" fill="#ffffff"/><path d="M196.91221,203.47599l-7.18826,-31.37796l12.20256,-2.79547l7.18826,31.37796z" fill="#ffffff"/><path d="M205.09889,239.21236l-7.18826,-31.37796l12.20256,-2.79547l7.18826,31.37796z" fill="#ffffff"/><path d="M213.08586,274.07672l-7.18827,-31.37792l12.20256,-2.79547l7.18827,31.37792z" fill="#ffffff"/><path d="M262.34631,263.52573l-2.39607,-10.45936l23.53341,-5.3912l2.39607,10.45936z" fill="#ffffff"/><path d="M235.17025,269.56795l-2.39607,-10.45936l23.5335,-5.39121l2.39607,10.45936z" fill="#ffffff"/></g><path d="M203.0587,26.7655c101.77997,-23.31639 196.59596,11.50393 211.7774,77.77341c15.18142,66.26948 -3.1356,127.75934 -156.80058,162.20962c-162.31697,36.38995 -196.5959,-11.50392 -211.77733,-77.77348c-15.18142,-66.26948 55.02054,-138.89313 156.80052,-162.20951z" fill="#696969" stroke="#000000" stroke-width="2" stroke-linecap="butt"/><path d="M197.2105,207.08738l-25.75795,-112.43767l90.64743,-20.76606l25.75795,112.43767z" fill="url(#color-15)" stroke="none" stroke-width="0" stroke-linecap="butt"/><path d="M193.09795,205.85604l-62.45988,-116.80919l20.06224,-9.60341l62.4599,116.80925z" fill="url(#color-16)" stroke="none" stroke-width="0" stroke-linecap="butt"/><path d="M268.88702,187.9726l4.80872,-134.84779l22.26398,0.00747l-4.8088,134.8479z" data-paper-data="{&quot;index&quot;:null}" fill="url(#color-17)" stroke="none" stroke-width="0" stroke-linecap="butt"/><path d="M173.3315,218.97918l-7.38792,-32.24956l142.07238,-32.54682l7.38792,32.24956z" fill="url(#color-18)" stroke="none" stroke-width="0" stroke-linecap="butt"/><path d="M153.84647,232.34416c-3.81054,2.3385 -6.14915,-1.47208 -6.14915,-1.47208l-0.77553,-1.38631c-3.1825,-3.62928 -6.57717,-8.93077 -10.69396,-11.65121c-1.58963,-1.05037 -7.05998,-2.11412 -8.27587,-2.68334c-16.71401,-7.82491 -44.39805,-22.46311 -35.05216,-44.83118c5.23065,-3.13479 22.4569,-9.15804 22.19685,-17.67565c-0.36912,-12.09178 -10.68605,-19.6002 -8.08816,-32.96989c3.00885,-15.48497 18.06065,-26.78513 29.18601,-36.93271c0,0 3.30349,-3.01275 6.31621,0.29081c3.0127,3.30351 -0.29077,6.31615 -0.29077,6.31615c-9.37569,8.54887 -23.88996,18.86471 -26.41922,31.95528c-3.14339,16.26867 16.83958,28.74651 2.20562,44.02995c-1.54805,1.61675 -3.51412,2.78811 -5.41025,3.97759c-2.80237,1.75813 -9.70581,5.24097 -12.99813,6.93236c-2.12992,5.48591 4.03692,11.99623 7.57939,15.73844c9.33162,9.85759 23.02381,11.25432 33.78044,18.26376c5.00875,3.26397 8.80201,8.91478 12.6868,13.34378l1.67397,2.60523c0,0 2.33847,3.81059 -1.47208,6.14915z" fill="#000000" stroke="none" stroke-width="0.5" stroke-linecap="butt"/><path d="M124.7848,253.69334c-4.38482,0.87338 -5.25811,-3.51141 -5.25811,-3.51141l-0.24715,-1.56918c-1.72787,-4.50715 -3.07527,-10.65653 -5.99453,-14.63472c-1.12719,-1.53606 -5.89015,-4.42935 -6.83349,-5.3847c-12.96745,-13.13138 -33.8646,-36.4549 -17.3474,-54.19922c5.99285,-1.12832 24.23893,-0.80966 26.94622,-8.88973c3.8434,-11.47061 -3.23277,-22.08859 3.8365,-33.72999c8.18785,-13.48321 26.22258,-18.86824 40.17488,-24.53236c0,0 4.14274,-1.68153 5.82413,2.46123c1.68148,4.14273 -2.46134,5.82411 -2.46134,5.82411c-11.75697,4.77076 -28.94643,9.41863 -35.85478,20.82189c-8.5855,14.17174 5.83615,32.80052 -13.18679,42.0667c-2.01237,0.9802 -4.26246,1.39777 -6.45325,1.85656c-3.23796,0.67819 -10.92043,1.55331 -14.59489,1.99928c-3.89871,4.4081 -0.36985,12.65183 1.6567,17.38968c5.33808,12.48025 17.69813,18.53465 25.35978,28.83692c3.56761,4.79718 5.16792,11.41228 7.27747,16.91291l0.66765,3.02386c0,0 0.87337,4.38475 -3.51154,5.25808z" fill="#000000" stroke="none" stroke-width="0.5" stroke-linecap="butt"/><path d="M326.58884,183.28984l0.37301,-3.07424c1.56933,-5.67839 2.52433,-12.41701 5.61269,-17.53593c6.63247,-10.99301 18.35108,-18.21099 22.46085,-31.14785c1.56019,-4.91108 4.27774,-13.45683 -0.02782,-17.46838c-3.70027,-0.08949 -11.43141,-0.21976 -14.71969,-0.58256c-2.22485,-0.24541 -4.50478,-0.44412 -6.60218,-1.22568c-19.82778,-7.38867 -7.26967,-27.32132 -17.18173,-40.59903c-7.97572,-10.68395 -25.53333,-13.65274 -37.69547,-17.26754c0,0 -4.28556,-1.27409 -3.01146,-5.55965c1.27416,-4.28559 5.55969,-3.0114 5.55969,-3.0114c14.43333,4.29236 32.90336,7.91319 42.3532,20.54405c8.15893,10.90543 2.13962,22.15634 7.07116,33.20293c3.47386,7.78137 21.60416,5.7048 27.6778,6.24999c18.1513,16.06888 -0.39943,41.29888 -12.04028,55.61939c-0.84682,1.0418 -5.30864,4.38087 -6.28241,6.01844c-2.52196,4.24126 -3.2702,10.4919 -4.55535,15.14462l-0.09467,1.58569c0,0 -0.44644,4.44863 -4.89506,4.00215c-4.44861,-0.44646 -4.00217,-4.89508 -4.00217,-4.89508z" data-paper-data="{&quot;index&quot;:null}" fill="#000000" stroke="none" stroke-width="0.5" stroke-linecap="butt"/><path d="M360.59796,191.5486l-0.71527,-3.01296c-0.49537,-5.87043 -1.93437,-12.52254 -0.81089,-18.3943c2.41264,-12.61009 10.90444,-23.44134 10.27717,-37.00082c-0.23815,-5.14752 -0.6499,-14.10542 -6.07875,-16.37666c-3.50211,1.1982 -10.79941,3.75463 -14.00969,4.55375c-2.17206,0.54064 -4.37951,1.14425 -6.61784,1.13787c-21.15969,-0.06092 -16.28583,-23.11007 -30.18445,-32.13096c-11.18345,-7.25877 -28.68213,-3.95994 -41.34335,-3.13685c0,0 -4.46154,0.28975 -4.75124,-4.17181c-0.28968,-4.46157 4.17191,-4.75128 4.17191,-4.75128c15.02648,-0.97453 33.60692,-3.97759 46.84785,4.59664c11.4321,7.40297 9.68394,20.04258 18.13747,28.69609c5.95481,6.09567 22.24258,-2.13421 28.12894,-3.72719c22.59454,8.78431 13.93483,38.879 7.97696,56.3459c-0.43341,1.27068 -3.46183,5.9489 -3.80792,7.82256c-0.89627,4.85227 0.56768,10.97491 0.97414,15.78477l0.46053,1.52028c0,0 1.12264,4.32769 -3.20508,5.45028c-4.32778,1.12257 -5.45028,-3.20506 -5.45028,-3.20506z" data-paper-data="{&quot;index&quot;:null}" fill="#000000" stroke="none" stroke-width="0.5" stroke-linecap="butt"/><path d="M97.80005,265.68491l-7.19855,-31.42282l302.44859,-69.28683l7.19855,31.42282c0,0 -43.1683,47.34368 -140.29393,68.78658c-106.92456,23.60627 -162.15463,0.50021 -162.15463,0.50021z" fill="url(#color-19)" stroke="none" stroke-width="0" stroke-linecap="butt"/><path d="M164.24041,139.25089l-13.37815,-58.39788l124.64017,-28.55332l13.37815,58.39788z" fill="url(#color-20)" stroke="#000000" stroke-width="0" stroke-linecap="butt"/><path d="M158.88546,74.24909c19.51036,-4.46957 38.84021,7.24422 43.17428,26.16331c4.33412,18.91914 -7.96868,37.87947 -27.47905,42.34899c-19.51036,4.46957 -38.84018,-7.24415 -43.17425,-26.1633c-4.33412,-18.91914 7.96866,-37.87944 27.47904,-42.34901z" fill="#ffffff" stroke="#000000" stroke-width="2" stroke-linecap="butt"/><path d="M126.67146,115.725c-4.92019,-21.47757 8.57819,-42.99834 30.05573,-47.91856c21.47757,-4.92019 42.99834,8.57819 47.91855,30.05572c4.92019,21.47757 -8.57819,42.99834 -30.05571,47.91855c-21.47757,4.92019 -42.99834,-8.57819 -47.91855,-30.05572z" data-paper-data="{&quot;noHover&quot;:false,&quot;origItem&quot;:[&quot;Path&quot;,{&quot;applyMatrix&quot;:true,&quot;segments&quot;:[[[384.72744,349.27406],[-21.77325,0],[21.77325,0]],[[424.15135,309.85014],[0,21.77325],[0,-21.77325]],[[384.72744,270.42623],[21.77325,0],[-21.77325,0]],[[345.30352,309.85014],[0,-21.77325],[0,21.77325]]],&quot;closed&quot;:true,&quot;fillColor&quot;:[0,0,0,1]}]}" fill="#000000" stroke="none" stroke-width="0.5" stroke-linecap="butt"/><path d="M194.34971,331.5198c-140.80312,41.89993 -185.45878,1.68978 -203.91416,-52.52405c25.18097,1.61894 51.24643,-5.67468 75.9423,-9.83385c14.08015,-2.79611 85.60645,-20.07121 108.02146,-23.60065c0,0 1.68982,-0.27237 2.76116,-1.4091c10.43282,46.72719 18.69763,86.91876 17.18938,87.36764z" fill="#0096ff" stroke="#000000" stroke-width="2" stroke-linecap="butt"/><path d="M259.09296,50.25475c19.51036,-4.46957 38.84018,7.24422 43.17425,26.1633c4.33412,18.91914 -7.96872,37.87946 -27.47904,42.34901c-19.51036,4.46957 -38.84018,-7.24415 -43.17425,-26.1633c-4.33412,-18.91914 7.96866,-37.87944 27.47904,-42.34901z" fill="#ffffff" stroke="#000000" stroke-width="2" stroke-linecap="butt"/><path d="M275.89012,123.93871c-21.47749,4.9202 -42.99835,-8.57824 -47.91855,-30.05572c-4.9202,-21.47749 8.57824,-42.99835 30.05572,-47.91855c21.47749,-4.9202 42.99835,8.57824 47.91855,30.05572c4.9202,21.47749 -8.57824,42.99835 -30.05571,47.91855z" data-paper-data="{&quot;noHover&quot;:false,&quot;origItem&quot;:[&quot;Path&quot;,{&quot;applyMatrix&quot;:true,&quot;segments&quot;:[[[526.54509,311.16443],[0,21.7732],[0,-21.7732]],[[487.12118,271.74051],[21.7732,0],[-21.7732,0]],[[447.69726,311.16443],[0,-21.7732],[0,21.7732]],[[487.12118,350.58835],[-21.7732,0],[21.7732,0]]],&quot;closed&quot;:true,&quot;fillColor&quot;:[0,0,0,1]}]}" fill="#000000" stroke="none" stroke-width="0.5" stroke-linecap="butt"/><path d="M339.08276,292.20602c-1.55323,0.2525 -11.60912,-39.52878 -22.55834,-86.13768c1.4594,0.55699 3.09923,0.06655 3.09923,0.06655c21.71599,-6.5804 93.62954,-22.16538 107.52274,-25.77757c24.04355,-7.00643 50.68479,-11.78713 72.64967,-24.20654c6.98584,56.84135 -15.71191,112.48117 -160.71325,136.05515z" data-paper-data="{&quot;index&quot;:null}" fill="#0096ff" stroke="#000000" stroke-width="2" stroke-linecap="butt"/><path d="M276.89216,83.54345c1.24802,5.44785 -1.93577,10.82532 -7.1112,12.01097c-5.17546,1.18563 -10.38269,-2.26955 -11.6307,-7.7174c-1.24802,-5.44785 1.93577,-10.82532 7.1112,-12.01097c5.17546,-1.18563 10.38269,2.26955 11.6307,7.7174z" fill="#000000" stroke="#ff0000" stroke-width="1" stroke-linecap="butt"/><path d="M177.03788,105.38047c1.24802,5.44785 -1.93577,10.82532 -7.1112,12.01097c-5.17546,1.18563 -10.38269,-2.26955 -11.6307,-7.7174c-1.24802,-5.44785 1.93577,-10.82532 7.1112,-12.01097c5.17546,-1.18563 10.38269,2.26955 11.6307,7.7174z" fill="#000000" stroke="#ff0000" stroke-width="1" stroke-linecap="butt"/><path d="M278.54073,-32.08473c100.58518,-23.0427 193.90009,9.67513 208.42462,73.07736c1.03701,4.52667 1.95812,9.07041 2.71571,13.61542c-21.5357,13.36102 -48.90458,17.91182 -73.04361,24.93371c-13.51113,3.51313 -84.97736,19.1766 -107.0249,25.66842c0,0 -1.25981,0.37691 -2.15314,1.31582c-14.94156,-63.91671 -31.0004,-138.13388 -28.91876,-138.61076zM379.35265,13.83415c-4.9202,-21.47749 -26.31981,-34.89987 -47.79729,-29.97966c-21.47749,4.9202 -34.89987,26.31981 -29.9797,47.79734c4.9202,21.47749 26.31981,34.89987 47.79734,29.9797c21.47749,-4.9202 34.89985,-26.31981 29.97965,-47.79732z" data-paper-data="{&quot;index&quot;:null}" fill="#0096ff" stroke="#000000" stroke-width="2" stroke-linecap="butt"/><path d="M113.87754,10.19339c2.08168,-0.47691 19.93299,73.3297 34.30621,137.37661c-1.21301,-0.45641 -2.51126,-0.24729 -2.51126,-0.24729c-22.67488,3.7535 -93.83278,20.76317 -107.52577,23.48217c-24.78845,4.18669 -51.40906,12.00412 -76.61341,9.35067c-1.29654,-4.4216 -2.44526,-8.91316 -3.48224,-13.43982c-14.52458,-63.40218 55.24133,-133.47961 155.82651,-156.52231zM90.90593,125.39858c21.47757,-4.92019 34.89988,-26.31976 29.97965,-47.79732c-4.92019,-21.47756 -26.31976,-34.89988 -47.79729,-29.97965c-21.47757,4.92019 -34.8999,26.31979 -29.97966,47.79729c4.92019,21.47757 26.31979,34.8999 47.79734,29.9797z" fill="#0096ff" stroke="#000000" stroke-width="2" stroke-linecap="butt"/></g></g></svg>