<svg version="1.1" xmlns="http://www.w3.org/2000/svg" xmlns:xlink="http://www.w3.org/1999/xlink" width="837.02221" height="828.04636" viewBox="0,0,837.02221,828.04636"><defs><linearGradient x1="243.44649" y1="317.59527" x2="241.98168" y2="340.08397" gradientUnits="userSpaceOnUse" id="color-1"><stop offset="0" stop-color="#5c5c5c"/><stop offset="1" stop-color="#9b9b9b"/></linearGradient><linearGradient x1="109.10411" y1="316.26977" x2="153.01044" y2="319.12954" gradientUnits="userSpaceOnUse" id="color-2"><stop offset="0" stop-color="#5c5c5c"/><stop offset="1" stop-color="#9b9b9b"/></linearGradient><linearGradient x1="172.82697" y1="693.58104" x2="126.83149" y2="723.58446" gradientUnits="userSpaceOnUse" id="color-3"><stop offset="0" stop-color="#5c5c5c"/><stop offset="1" stop-color="#9b9b9b"/></linearGradient><linearGradient x1="337.91927" y1="336.63973" x2="384.99713" y2="339.70609" gradientUnits="userSpaceOnUse" id="color-4"><stop offset="0" stop-color="#5c5c5c"/><stop offset="1" stop-color="#9b9b9b"/></linearGradient><linearGradient x1="267.94694" y1="696.5778" x2="309.66181" y2="732.29413" gradientUnits="userSpaceOnUse" id="color-5"><stop offset="0" stop-color="#5c5c5c"/><stop offset="1" stop-color="#9b9b9b"/></linearGradient><linearGradient x1="281.71566" y1="390.85676" x2="299.00911" y2="405.30724" gradientUnits="userSpaceOnUse" id="color-6"><stop offset="0" stop-color="#5c5c5c"/><stop offset="1" stop-color="#9b9b9b"/></linearGradient><linearGradient x1="210.85023" y1="388.39185" x2="191.82844" y2="400.47719" gradientUnits="userSpaceOnUse" id="color-7"><stop offset="0" stop-color="#5c5c5c"/><stop offset="1" stop-color="#9b9b9b"/></linearGradient><linearGradient x1="222.41437" y1="541.43321" x2="249.18651" y2="543.17696" gradientUnits="userSpaceOnUse" id="color-8"><stop offset="0" stop-color="#5c5c5c"/><stop offset="1" stop-color="#9b9b9b"/></linearGradient><linearGradient x1="129.3892" y1="247.28992" x2="369.2161" y2="219.25364" gradientUnits="userSpaceOnUse" id="color-9"><stop offset="0" stop-color="#6c6c6c"/><stop offset="1" stop-color="#c4c4c4"/></linearGradient><linearGradient x1="202.17121" y1="202.51199" x2="296.50307" y2="191.48439" gradientUnits="userSpaceOnUse" id="color-10"><stop offset="0" stop-color="#6e6e6e"/><stop offset="1" stop-color="#c0c0c0"/></linearGradient><linearGradient x1="230.76873" y1="45.62498" x2="237.03018" y2="99.18647" gradientUnits="userSpaceOnUse" id="color-11"><stop offset="0" stop-color="#a6a6a6"/><stop offset="1" stop-color="#707070"/></linearGradient><linearGradient x1="234.3399" y1="79.63909" x2="246.3955" y2="182.76465" gradientUnits="userSpaceOnUse" id="color-12"><stop offset="0" stop-color="#a6a6a6"/><stop offset="1" stop-color="#707070"/></linearGradient><linearGradient x1="164.87834" y1="60.50866" x2="210.68566" y2="182.58603" gradientUnits="userSpaceOnUse" id="color-13"><stop offset="0" stop-color="#a6a6a6"/><stop offset="1" stop-color="#707070"/></linearGradient><linearGradient x1="297.18393" y1="49.09379" x2="280.76914" y2="178.44486" gradientUnits="userSpaceOnUse" id="color-14"><stop offset="0" stop-color="#a6a6a6"/><stop offset="1" stop-color="#707070"/></linearGradient><linearGradient x1="243.99155" y1="158.7352" x2="247.44936" y2="188.31387" gradientUnits="userSpaceOnUse" id="color-15"><stop offset="0" stop-color="#a6a6a6"/><stop offset="1" stop-color="#707070"/></linearGradient><linearGradient x1="241.90997" y1="185.72005" x2="245.2791" y2="214.54041" gradientUnits="userSpaceOnUse" id="color-16"><stop offset="0" stop-color="#707070"/><stop offset="1" stop-color="#a6a6a6"/></linearGradient><linearGradient x1="597.22603" y1="680.92325" x2="644.41344" y2="694.14081" gradientUnits="userSpaceOnUse" id="color-17"><stop offset="0" stop-color="#5c5c5c"/><stop offset="1" stop-color="#9b9b9b"/></linearGradient><linearGradient x1="500.9812" y1="483.91754" x2="548.16854" y2="497.13511" gradientUnits="userSpaceOnUse" id="color-18"><stop offset="0" stop-color="#5c5c5c"/><stop offset="1" stop-color="#9b9b9b"/></linearGradient><linearGradient x1="434.89798" y1="422.10359" x2="451.0735" y2="406.44504" gradientUnits="userSpaceOnUse" id="color-19"><stop offset="0" stop-color="#5c5c5c"/><stop offset="1" stop-color="#9b9b9b"/></linearGradient><linearGradient x1="561.51149" y1="594.11831" x2="581.8654" y2="584.4978" gradientUnits="userSpaceOnUse" id="color-20"><stop offset="0" stop-color="#5c5c5c"/><stop offset="1" stop-color="#9b9b9b"/></linearGradient><linearGradient x1="-142.64251" y1="629.1338" x2="-191.14594" y2="636.11866" gradientUnits="userSpaceOnUse" id="color-21"><stop offset="0" stop-color="#5c5c5c"/><stop offset="1" stop-color="#9b9b9b"/></linearGradient><linearGradient x1="-21.6557" y1="446.27732" x2="-70.15891" y2="453.26217" gradientUnits="userSpaceOnUse" id="color-22"><stop offset="0" stop-color="#5c5c5c"/><stop offset="1" stop-color="#9b9b9b"/></linearGradient><linearGradient x1="51.88755" y1="393.55784" x2="37.87994" y2="375.9333" gradientUnits="userSpaceOnUse" id="color-23"><stop offset="0" stop-color="#5c5c5c"/><stop offset="1" stop-color="#9b9b9b"/></linearGradient><linearGradient x1="-95.9696" y1="547.69512" x2="-114.90355" y2="535.51562" gradientUnits="userSpaceOnUse" id="color-24"><stop offset="0" stop-color="#5c5c5c"/><stop offset="1" stop-color="#9b9b9b"/></linearGradient></defs><g transform="translate(191.39915,83.97449)"><g data-paper-data="{&quot;isPaintingLayer&quot;:true}" fill-rule="nonzero" stroke-linejoin="miter" stroke-miterlimit="10" stroke-dasharray="" stroke-dashoffset="0" style="mix-blend-mode: normal"><path d="M128.4677,332.69031l1.46479,-22.48868l227.02794,14.7873l-1.46478,22.48866z" fill="url(#color-1)" stroke="none" stroke-width="0" stroke-linecap="butt"/><path d="M153.01044,319.12954c-0.78971,12.12445 -11.25865,21.31298 -23.38304,20.5233c-12.12445,-0.78971 -21.31298,-11.25865 -20.52332,-23.38307c0.78971,-12.12438 11.2587,-21.31303 23.38308,-20.52333c12.12438,0.78971 21.31295,11.25868 20.52322,23.38307z" fill="url(#color-2)" stroke="none" stroke-width="0" stroke-linecap="butt"/><path d="M126.83145,723.58447c-6.59447,-14.03496 -1.64385,-32.12896 11.05741,-40.4142c12.70133,-8.28516 28.3436,-3.62407 34.93811,10.41088c6.59448,14.03494 1.64394,32.12901 -11.05735,40.41422c-12.70127,8.28517 -28.34359,3.62405 -34.93809,-10.41091z" data-paper-data="{&quot;index&quot;:null}" fill="url(#color-3)" stroke="none" stroke-width="0" stroke-linecap="butt"/><path d="M384.99713,339.70609c-0.84674,13.00026 -12.07193,22.85254 -25.07208,22.00576c-13.00016,-0.84676 -22.85253,-12.07198 -22.00576,-25.07212c0.84677,-13.00024 12.07194,-22.85247 25.07213,-22.00571c13.00016,0.84676 22.8525,12.07188 22.00573,25.0721z" fill="url(#color-4)" stroke="none" stroke-width="0" stroke-linecap="butt"/><path d="M309.66181,732.29413c-8.35939,13.06096 -24.47415,15.65359 -35.99336,5.79084c-11.51924,-9.8628 -14.08086,-28.44616 -5.72145,-41.50711c8.35939,-13.06096 24.4741,-15.65357 35.9934,-5.79078c11.51924,9.8628 14.08085,28.44611 5.72155,41.50705z" fill="url(#color-5)" stroke="none" stroke-width="0" stroke-linecap="butt"/><path d="M103.8662,624.33564c3.19238,-49.01222 248.42539,-33.03915 245.23303,15.97305c-3.19238,49.01222 -105.65481,82.23919 -128.39678,80.75788c-30.23815,-1.96953 -120.02854,-47.71873 -116.83618,-96.73096z" fill="#1300d2" stroke="#000000" stroke-width="2" stroke-linecap="butt"/><path d="M250.95653,277.02318c47.97442,4.50135 146.39182,104.14713 138.82216,220.36392c-2.46801,37.89106 -12.04274,72.97027 -26.74749,102.85304c-30.39643,61.77165 -241.82342,49.0765 -264.28148,-14.81429c-11.28953,-32.11747 -16.55988,-69.03058 -14.02758,-107.90839c7.56969,-116.21678 109.58221,-205.80989 166.23445,-200.49429z" fill="#696969" stroke="#000000" stroke-width="2" stroke-linecap="butt"/><path d="M229.41795,453.44234l104.59542,-125.17115l17.29333,14.45066l-104.59542,125.17115z" fill="url(#color-6)" stroke="none" stroke-width="0" stroke-linecap="butt"/><path d="M235.5658,469.31797l-87.47471,-137.68155l19.02173,-12.08534l87.47477,137.68153z" data-paper-data="{&quot;index&quot;:null}" fill="url(#color-7)" stroke="none" stroke-width="0" stroke-linecap="butt"/><path d="M216.1019,638.34837l12.62503,-193.83039l26.77212,1.74379l-12.62498,193.8304z" fill="url(#color-8)" stroke="none" stroke-width="0" stroke-linecap="butt"/><path d="M259.5784,444.89582c1.03551,-3.88888 4.92433,-2.85338 4.92433,-2.85338l3.03056,0.90622c1.45785,0.7704 2.91564,1.54076 4.3735,2.31118c7.35133,6.75471 14.31058,15.51036 20.68617,23.95132c2.91473,-1.2174 5.54608,-3.15662 7.70795,-6.08394c5.05476,-6.84479 0.6002,-15.03229 -0.00762,-22.28736c-0.74047,-8.83856 2.2585,-17.70548 1.73117,-26.56805c-0.76828,-12.91174 -9.63542,-26.78034 -17.1283,-36.90228c-7.14257,-9.81402 -21.57876,-12.25869 -27.0707,-22.74084c-4.62972,-8.83644 -0.7853,-19.1198 -3.56284,-28.13001c-0.77446,3.75009 -2.24993,7.29055 -4.66915,10.50519c-5.96878,7.93152 -17.94761,15.30361 -26.54797,19.80803c-5.58468,2.92492 -15.69964,4.93012 -20.20756,9.55483c-3.4678,3.55758 -4.4727,8.8732 -6.78949,13.26799c-9.10183,17.26567 -23.37356,36.72491 -4.45563,52.10378c4.25142,3.45611 7.96279,5.66409 13.47242,5.91104l1.7922,0.11673c0,0 4.01586,0.26157 3.75431,4.27739c-0.26158,4.01583 -4.27746,3.75424 -4.27746,3.75424l-1.7922,-0.11673c-14.43546,-1.15085 -33.96305,-17.16161 -31.51775,-33.62422c1.83986,-12.38656 10.1547,-25.26908 15.90412,-36.17557c0.66533,-1.26216 7.65337,-14.6308 8.22395,-15.21169c5.28824,-5.38376 15.63245,-7.58287 22.16431,-10.99069c7.6461,-3.98917 18.58397,-10.62793 23.94499,-17.64407c5.14395,-6.73212 4.44883,-16.47889 2.04253,-26.34589c-4.77078,-8.78239 -10.74828,-16.91835 -18.11642,-22.9743c0,0 -3.09795,-2.56872 -0.52914,-5.66657c2.56869,-3.09789 5.66662,-0.52916 5.66662,-0.52916c1.93571,1.6176 3.79604,3.36306 5.57922,5.21587c-0.26367,-0.91369 -0.50267,-1.79582 -0.71076,-2.64169c0,0 -0.96106,-3.90796 2.94682,-4.86901c3.90787,-0.96109 4.86893,2.94682 4.86893,2.94682c1.77697,7.22524 4.88158,15.62625 7.15008,24.16782c3.95319,7.09257 7.1389,14.59547 9.51094,21.9205c2.89294,8.93371 -0.81343,19.21911 3.36747,27.79715c2.49169,5.11228 10.19456,6.8108 14.505,9.68076c4.64712,3.09414 8.49361,7.37991 11.83119,11.85551c8.44928,11.49874 17.78043,26.59711 18.68239,41.1603c0.54945,8.87177 -2.49764,17.77398 -1.73054,26.57841c0.84843,9.73754 5.24568,18.24751 -1.44626,27.43275c-2.69172,3.69468 -5.87689,6.27219 -9.37817,8.00295c0.11843,0.15871 0.23666,0.31709 0.35459,0.47509c4.56214,6.11114 7.27019,12.45098 13.67323,16.96543c19.93907,14.05791 25.44618,-19.05638 23.53754,-31.71317c-9.67177,-33.26301 -22.70229,-68.4248 -2.08238,-101.0309c2.95062,-4.66583 6.90469,-8.19519 11.02837,-11.594c0.09535,2.01849 1.6943,3.68656 3.75838,3.82095c0.23858,0.01555 0.47371,0.01002 0.7034,-0.01511c0.28537,0.66721 0.74667,1.24491 1.32924,1.67103c-3.79765,3.07129 -7.4352,6.28669 -10.02004,10.42387c-19.19328,30.72024 -5.82431,63.86639 3.14617,95.00672c1.21387,8.17469 2.25253,17.91718 -0.82147,25.86831c-5.86532,15.17082 -20.88213,23.96992 -35.20513,14.14898c-7.26143,-4.97904 -10.42006,-11.91435 -15.49682,-18.73671c-0.66966,-0.89999 -1.3485,-1.81613 -2.03593,-2.74395c-9.15931,1.50505 -19.36213,-0.62517 -28.25544,-2.80238c-1.67094,-0.56789 -3.34184,-1.13581 -5.01276,-1.70369l0.14028,0.14819c0,0 -4.01582,-0.26155 -3.75426,-4.27742c0.26158,-4.01583 4.27737,-3.75426 4.27737,-3.75426l1.93237,0.26486c1.5569,0.53183 3.11386,1.06377 4.67082,1.59561c6.15389,1.49502 13.57233,3.38648 20.50042,3.16501c-5.19806,-6.84498 -10.77842,-13.72745 -16.58528,-19.10097c-1.15349,-0.58571 -2.30692,-1.17147 -3.46029,-1.75715l-1.39198,-0.27144c0,0 -3.88882,-1.03549 -2.85338,-4.9243z" fill="#000000" stroke="none" stroke-width="0.5" stroke-linecap="butt"/><path d="M225.69275,466.59088c1.54481,3.71605 -2.17116,5.26086 -2.17116,5.26086l-2.60736,0.86188c-6.85759,5.85012 -11.21254,14.09141 -16.40043,21.50529c-18.93065,26.78093 -57.35618,20.89446 -70.03425,-9.0616c-7.12097,-16.82569 2.54292,-41.51988 12.75427,-54.73197c15.41363,-22.56975 18.11355,-42.46646 13.00128,-68.89524c-1.30047,-6.72294 -4.33896,-17.13252 -10.30372,-22.43421c1.09872,-0.69886 1.63415,-1.81995 1.63415,-1.81995c0.75975,-1.64377 1.68688,-3.24313 2.80443,-4.67994c5.83175,4.84392 9.39908,12.56356 11.829,20.1052c9.61428,29.83928 4.98832,56.80996 -12.4534,82.45489c-8.81025,11.37979 -15.30334,28.70964 -13.13764,43.59371c0.60391,4.15061 3.71852,7.61298 6.33729,10.54074c4.64485,5.19278 9.45037,11.76311 16.56568,13.81628c14.05699,4.05626 26.65648,-2.29398 34.40857,-13.50222c5.64018,-8.05992 10.34269,-16.48022 17.72055,-22.97042l4.79198,-2.21419c0,0 3.71599,-1.54488 5.26082,2.17116z" fill="#000000" stroke="none" stroke-width="0.5" stroke-linecap="butt"/><path d="M249.11762,452.09795c4.01583,0.26158 3.75423,4.27738 3.75423,4.27738l-0.40949,3.04105c-3.49829,8.48 -5.18882,17.88654 -9.507,26.02956c-2.37163,4.47226 -8.96943,10.36835 -8.78514,16.15858c0.18962,5.95862 5.77957,11.63641 9.1832,15.94483c7.67859,9.71967 17.2475,17.49094 25.18337,27.07372c1.41272,4.39239 3.62591,8.8506 2.38364,13.68451c-4.47645,17.41946 -31.13389,25.72526 -45.25177,33.41179c-4.113,2.23932 -9.75036,2.49824 -12.59996,6.21455c-0.84563,1.10279 0.27646,2.77004 0.54794,4.13299c1.42106,7.13519 3.20228,12.71621 6.87691,19.00103c3.61566,6.18396 6.9044,10.04445 12.60426,14.34024c0,0 3.20929,2.42811 0.78115,5.6374c-2.42818,3.20928 -5.63741,0.78107 -5.63741,0.78107c-6.50322,-4.93747 -10.5727,-9.63061 -14.69781,-16.69927c-3.69399,-6.32981 -12.2907,-23.49952 -7.39911,-31.29674c0.77812,-1.24026 13.67963,-8.09349 15.67548,-9.18016c13.49008,-7.3447 45.67954,-16.56747 39.66599,-36.14577c-10.97243,-12.73377 -34.91965,-28.18191 -35.3645,-46.91829c-0.18578,-7.82549 6.44069,-13.75798 9.76719,-19.99339c4.18107,-7.83737 5.76878,-17.04691 9.13016,-25.23884l-0.17869,-0.50211c0,0 0.26157,-4.01578 4.27738,-3.7542z" fill="#000000" stroke="none" stroke-width="0.5" stroke-linecap="butt"/><g><path d="M180.4036,488.83279l7.11464,-109.23043l113.78168,7.41107l-7.11464,109.23043z" fill="#323232" stroke="none" stroke-width="0" stroke-linecap="butt"/><g stroke="#000000"><path d="M243.47991,390.99529c24.30792,1.58328 42.7299,22.57226 41.14663,46.88022c-1.58328,24.30792 -22.57234,42.7299 -46.88022,41.14664c-24.30792,-1.58328 -42.7299,-22.57234 -41.14661,-46.88016c1.58327,-24.30792 22.57233,-42.72996 46.8802,-41.14667z" fill="#878787" stroke-width="1" stroke-linecap="butt"/><path d="M208.70034,406.12302l67.95471,3.96527" fill="none" stroke-width="1.5" stroke-linecap="round"/><path d="M281.81427,422.86869l-79.36868,-5.63048" fill="none" stroke-width="1.5" stroke-linecap="round"/><path d="M197.68722,426.60694l84.78643,7.36611" fill="none" stroke-width="1.5" stroke-linecap="round"/><path d="M197.23576,436.48698l86.22305,6.53784" fill="none" stroke-width="1.5" stroke-linecap="round"/><path d="M224.14155,396.03531l39.50824,3.06973" fill="none" stroke-width="1.5" stroke-linecap="round"/><path d="M204.66944,459.75368l67.89485,4.8832" data-paper-data="{&quot;index&quot;:null}" fill="none" stroke-width="1.5" stroke-linecap="round"/><path d="M199.90934,447.92128l79.42844,4.71265" data-paper-data="{&quot;index&quot;:null}" fill="none" stroke-width="1.5" stroke-linecap="round"/><path d="M258.24424,473.84054l-39.57262,-2.0812" data-paper-data="{&quot;index&quot;:null}" fill="none" stroke-width="1.5" stroke-linecap="round"/></g></g><path d="M251.95761,278.16379c0.63938,-0.03775 -2.8652,43.31202 -5.44861,109.89665c-3.04331,-1.2046 -48.92543,-0.84308 -51.68311,43.27131c-0.93711,44.94426 40.70856,50.63538 44.90588,49.03006c-2.37153,61.68656 -8.92799,117.84088 -12.77328,158.52398c-0.52305,5.53385 -39.31221,-0.09602 -77.57703,-14.91932c-27.52346,-10.66225 -46.37183,-28.12883 -49.63066,-37.39993c-11.28959,-32.11749 -16.55988,-69.03058 -14.02759,-107.90839c7.56969,-116.21678 109.58224,-205.80983 166.23445,-200.49426z" fill="#1300d2" stroke="#000000" stroke-width="2" stroke-linecap="butt"/><path d="M390.35231,498.4999c-2.53227,38.87781 -12.54639,74.79538 -27.90673,105.17702c-4.43396,8.77006 -25.38881,23.64414 -54.06281,30.64593c-39.86434,9.73449 -79.05609,10.28505 -78.85689,4.73013c1.46464,-40.83821 2.24768,-97.36866 7.89811,-158.84153c3.95359,2.13629 45.98564,1.89538 50.88651,-42.79067c2.98798,-44.09933 -42.45943,-50.40958 -45.63337,-49.60993c6.07563,-66.35715 8.22387,-109.79525 8.85303,-109.67489c56.86311,2.07815 146.39181,104.14707 138.82216,220.36393z" fill="#1300d2" stroke="#000000" stroke-width="2" stroke-linecap="butt"/><g fill="#8b0000" stroke="#000000" stroke-width="2" stroke-linecap="butt"><path d="M244.92902,350.36662c-0.78971,12.12445 -14.13536,21.12559 -29.80835,20.10473c-15.673,-1.02085 -29.23796,11.34686 -26.9486,-23.80156c2.35913,-36.21935 14.13539,-21.1256 29.8084,-20.10473c15.673,1.02085 27.73825,11.67721 26.94856,23.80158z"/><path d="M278.41578,331.57691c15.673,1.02085 29.30766,-12.41775 26.94853,23.80156c-2.28938,35.14843 -14.13536,21.12559 -29.80835,20.10473c-15.673,-1.02085 -27.7383,-11.67719 -26.9486,-23.80156c0.78971,-12.12445 14.13539,-21.1256 29.80841,-20.10475z" data-paper-data="{&quot;index&quot;:null}"/><path d="M267.95316,351.86625c-0.80898,12.42013 -11.29355,21.84841 -23.41791,21.05871c-12.12445,-0.78971 -21.29739,-11.4984 -20.48842,-23.91853c0.80898,-12.42013 11.29359,-21.84841 23.41795,-21.05871c12.12445,0.78971 21.29735,11.49842 20.48836,23.91851z"/></g><path d="M234.73833,118.97929c76.38102,-8.9291 144.32526,35.37199 151.75761,98.94928c7.43234,63.57732 -48.46166,122.35537 -124.84272,131.28449c-76.38108,8.92909 -144.32525,-35.37195 -151.75761,-98.94928c-7.43234,-63.57732 48.46168,-122.3554 124.84277,-131.28448z" fill="#696969" stroke="#000000" stroke-width="2" stroke-linecap="butt"/><path d="M238.02581,136.80809c66.22636,-7.74201 124.96226,29.17016 131.19024,82.44555c6.22799,53.27543 -42.41025,102.73981 -108.63663,110.48183c-66.22636,7.74201 -124.96221,-29.17015 -131.19021,-82.44554c-6.22799,-53.27543 42.41021,-102.73979 108.63658,-110.4818z" fill="none" stroke="url(#color-9)" stroke-width="4.5" stroke-linecap="butt"/><g stroke="none" stroke-width="0" stroke-linecap="butt"><path d="M207.96535,252.07612l-11.58834,-99.12847l94.3319,-11.0276l11.58834,99.12847z" fill="url(#color-10)"/><path d="M279.35151,176.47218l-3.36434,-28.7792l11.19186,-1.30838l3.36434,28.7792z" fill="#ffffff"/><path d="M283.18313,209.24851l-3.36434,-28.7792l11.19186,-1.30836l3.36438,28.77917z" fill="#ffffff"/><path d="M286.92132,241.22535l-3.36438,-28.77917l11.19186,-1.30838l3.36434,28.7792z" fill="#ffffff"/><path d="M204.9117,184.36395l-3.36434,-28.7792l11.19188,-1.30838l3.36434,28.7792z" fill="#ffffff"/><path d="M208.74334,217.14036l-3.36438,-28.77917l11.19188,-1.30838l3.36434,28.7792z" fill="#ffffff"/><path d="M212.48154,249.11731l-3.36434,-28.7792l11.19188,-1.30838l3.36436,28.77922z" fill="#ffffff"/><path d="M257.59046,244.49214l-1.12146,-9.59309l21.58441,-2.52325l1.12147,9.5931z" fill="#ffffff"/><path d="M232.68306,247.24186l-1.12147,-9.5931l21.58445,-2.52329l1.12146,9.59309z" fill="#ffffff"/></g><path d="M220.48316,-19.3127c81.20298,-9.49282 154.00449,42.46406 162.6067,116.04887c8.60222,73.5848 -8.89482,136.90236 -131.45529,150.42542c-129.46117,14.28452 -154.00449,-42.46406 -162.60672,-116.04889c-8.60222,-73.5848 50.2523,-140.93256 131.45529,-150.42536z" fill="#696969" stroke="#000000" stroke-width="2" stroke-linecap="butt"/><path d="M179.87148,105.86844l-6.26144,-53.56133l114.31743,-13.36397l6.26144,53.56133z" fill="url(#color-11)" stroke="#000000" stroke-width="0" stroke-linecap="butt"/><path d="M204.82554,187.62427l-12.05558,-103.12555l83.13998,-9.71926l12.05558,103.12555z" fill="url(#color-12)" stroke="none" stroke-width="0" stroke-linecap="butt"/><path d="M201.26614,186.1205l-45.8073,-122.07711l18.83911,-7.06898l45.8073,122.07711z" fill="url(#color-13)" stroke="none" stroke-width="0" stroke-linecap="butt"/><path d="M270.78835,177.17828l16.41481,-129.35104l19.96162,2.53314l-16.41486,129.35107z" data-paper-data="{&quot;index&quot;:null}" fill="url(#color-14)" stroke="none" stroke-width="0" stroke-linecap="butt"/><path d="M182.29645,195.9304l-3.45781,-29.57866l130.30588,-15.23305l3.45781,29.57866z" fill="url(#color-15)" stroke="none" stroke-width="0" stroke-linecap="butt"/><path d="M163.55489,205.98412c-3.63823,1.71994 -5.35825,-1.91835 -5.35825,-1.91835l-0.5584,-1.31631c-2.49284,-3.55854 -5.01206,-8.63414 -8.42971,-11.47079c-1.31967,-1.09525 -6.1105,-2.58188 -7.14277,-3.21007c-14.19045,-8.63566 -37.53059,-24.4401 -26.98133,-43.54099c4.98677,-2.29363 20.98937,-5.99902 21.58938,-13.64587c0.85184,-10.8556 -7.64553,-18.58263 -4.01394,-30.29162c4.2061,-13.56156 18.77897,-22.20127 29.72579,-30.19349c0,0 3.25044,-2.37276 5.6232,0.8777c2.37277,3.25045 -0.87768,5.62314 -0.87768,5.62314c-9.22497,6.73278 -23.22056,14.54431 -26.76349,26.01027c-4.40311,14.24961 12.25746,27.3682 -2.33096,39.61288c-1.54326,1.2953 -3.41696,2.15121 -5.22987,3.03017c-2.67938,1.29914 -9.19695,3.74064 -12.30823,4.93224c-2.44213,4.70047 2.43938,11.12868 5.24328,14.82345c7.3861,9.73273 19.50111,12.32101 28.44069,19.64461c4.16267,3.41025 7.00441,8.83732 10.04741,13.18005l1.24314,2.49478c0,0 1.71993,3.6383 -1.91835,5.35825z" fill="#000000" stroke="none" stroke-width="0.5" stroke-linecap="butt"/><path d="M135.46389,222.24596c-4.00883,0.35282 -4.36159,-3.65599 -4.36159,-3.65599l-0.06772,-1.42827c-1.10542,-4.20182 -1.70988,-9.83593 -3.93309,-13.68095c-0.85843,-1.48464 -4.83737,-4.53915 -5.58804,-5.48618c-10.31928,-13.01749 -26.7376,-35.92997 -10.22356,-50.19251c5.47263,-0.42374 21.76773,1.64523 24.98014,-5.32006c4.56042,-9.888 -0.73321,-20.0806 6.73035,-29.80599c8.64451,-11.2641 25.30817,-14.31937 38.34618,-18.02351c0,0 3.87123,-1.09958 4.97073,2.77164c1.09955,3.87124 -2.7717,4.97069 -2.7717,4.97069c-10.98633,3.11942 -26.82161,5.59777 -34.1179,15.12586c-9.06759,11.84131 2.01546,29.91994 -15.91185,36.35144c-1.89646,0.68035 -3.95061,0.834 -5.95577,1.03036c-2.96358,0.29025 -9.92333,0.32226 -13.25472,0.36206c-3.91945,3.56314 -1.56777,11.28451 -0.21772,15.72197c3.55634,11.689 14.02405,18.3147 19.87236,28.28204c2.72325,4.64122 3.50847,10.71673 4.85829,15.84488l0.30182,2.77098c0,0 0.3528,4.00878 -3.65612,4.36158z" fill="#000000" stroke="none" stroke-width="0.5" stroke-linecap="butt"/><path d="M322.91772,178.97893l0.63431,-2.71431c1.95936,-4.92755 3.47264,-10.86381 6.73648,-15.14212c7.00934,-9.18798 18.20064,-14.50086 23.1427,-25.67474c1.87614,-4.24182 5.14324,-11.62274 1.68285,-15.63317c-3.30219,-0.44182 -10.20716,-1.31421 -13.11402,-1.96029c-1.96672,-0.43715 -3.98737,-0.83777 -5.7877,-1.74219c-17.01926,-8.5497 -3.83378,-25.15733 -11.40483,-38.00711c-6.09205,-10.33957 -21.51205,-14.71242 -32.04117,-19.13596c0,0 -3.71012,-1.55901 -2.15107,-5.2691c1.55907,-3.71007 5.26914,-2.15105 5.26914,-2.15105c12.49504,5.25175 28.66779,10.29729 35.88854,22.52304c6.23436,10.5556 -0.25157,20.03434 3.08116,30.40074c2.34762,7.30222 18.77333,7.21665 24.15465,8.2982c14.67051,16.15266 -4.39486,36.91453 -16.21091,48.59029c-0.85958,0.84942 -5.17837,3.40092 -6.20978,4.77102c-2.67123,3.54842 -3.95185,9.06826 -5.55663,13.10579l-0.23976,1.40959c0,0 -0.83435,3.93693 -4.77127,3.10252c-3.93689,-0.83441 -3.10253,-4.77131 -3.10253,-4.77131z" data-paper-data="{&quot;index&quot;:null}" fill="#000000" stroke="none" stroke-width="0.5" stroke-linecap="butt"/><path d="M352.54122,189.69359l-0.34547,-2.76589c0.13067,-5.3012 -0.50657,-11.39408 1.07268,-16.53822c3.39156,-11.04743 12.04881,-19.90889 12.81316,-32.103c0.29018,-4.62916 0.79747,-12.68485 -3.83817,-15.24787c-3.25076,0.72978 -10.03016,2.30384 -12.98084,2.70499c-1.99638,0.27142 -4.03058,0.5957 -6.03279,0.37115c-18.92736,-2.12311 -12.313,-22.27066 -23.8674,-31.70118c-9.29719,-7.58836 -25.27718,-6.34733 -36.68672,-6.84863c0,0 -4.02047,-0.1769 -3.84345,-4.19734c0.177,-4.02048 4.19745,-3.84347 4.19745,-3.84347c13.54072,0.59705 30.45979,-0.27361 41.46933,8.69301c9.50552,7.74168 6.70557,18.88046 13.42371,27.44992c4.73229,6.03646 20.11093,0.26484 25.53367,-0.58513c19.35845,10.06896 8.66778,36.15057 1.62914,51.19725c-0.51203,1.09461 -3.67917,4.98454 -4.17204,6.62722c-1.27635,4.25413 -0.56499,9.87569 -0.67146,14.21922l0.26344,1.40532c0,0 0.58146,3.98211 -3.40068,4.56349c-3.98213,0.58139 -4.56349,-3.40068 -4.56349,-3.40068z" data-paper-data="{&quot;index&quot;:null}" fill="#000000" stroke="none" stroke-width="0.5" stroke-linecap="butt"/><path d="M330.86629,46.63393c2.64261,22.60526 -14.11301,43.13967 -37.42467,45.86482c-23.31173,2.72519 -44.35175,-13.39077 -46.99434,-35.99604c-2.64261,-22.60526 14.11296,-43.13969 37.42464,-45.86488c23.31166,-2.72516 44.35178,13.39086 46.9944,35.99609z" data-paper-data="{&quot;index&quot;:null}" fill="#000000" stroke="#000000" stroke-width="2" stroke-linecap="butt"/><path d="M172.80315,22.54147c23.31173,-2.72519 44.35178,13.39086 46.99436,35.99605c2.64261,22.60526 -14.11301,43.13967 -37.42467,45.86482c-23.31173,2.72519 -44.3518,-13.39081 -46.99436,-35.99605c-2.64261,-22.60526 14.11298,-43.13965 37.4247,-45.86482z" fill="#000000" stroke="#000000" stroke-width="2" stroke-linecap="butt"/><path d="M133.92455,227.55802l-3.36917,-28.82037l222.70917,-26.03519l3.36917,28.82037c0,0 -33.97461,37.05724 -105.44631,44.69935c-78.68238,8.4131 -117.26284,-18.66419 -117.26284,-18.66419z" fill="url(#color-16)" stroke="none" stroke-width="0" stroke-linecap="butt"/><path d="M196.62802,311.73688c-114.2184,24.07021 -147.89163,-28.05062 -160.01531,-91.58328c19.99206,5.87316 41.11409,1.93427 60.99511,1.27533c11.35531,-0.85022 69.18564,-8.5992 87.21876,-8.9229c0,0 1.35976,-0.03139 2.26785,-1.12818c6.08665,53.87554 10.75715,100.10119 9.53369,100.35905z" fill="#1300d2" stroke="#000000" stroke-width="2" stroke-linecap="butt"/><path d="M324.77805,297.03775c-1.24998,0.0313 -7.36744,-46.02518 -13.87142,-99.85194c1.13659,0.85774 2.46685,0.57464 2.46685,0.57464c17.62151,-3.8444 75.67988,-9.64306 86.92511,-11.43487c19.49687,-3.94439 40.95798,-4.98362 59.0563,-15.30961c2.85713,64.61593 -17.88627,123.09823 -134.57679,126.02176z" data-paper-data="{&quot;index&quot;:null}" fill="#1300d2" stroke="#000000" stroke-width="2" stroke-linecap="butt"/><path d="M182.02459,155.3003c22.79972,-2.66533 44.12773,19.51212 47.63744,49.53476c3.5097,30.0226 -12.12788,56.52141 -34.92766,59.18677c-22.79972,2.66533 -44.12783,-19.51211 -47.63754,-49.53468c-3.5097,-30.0226 12.12802,-56.52146 34.92772,-59.1868z" fill="#ff00cc" stroke="#000000" stroke-width="2" stroke-linecap="butt"/><path d="M175.71266,52.4357c6.75661,-0.78985 12.85481,3.88119 13.62078,10.43302c0.76592,6.55186 -4.09048,12.50352 -10.8471,13.29339c-6.75661,0.78985 -12.85482,-3.88118 -13.62078,-10.43302c-0.76592,-6.55186 4.09048,-12.50352 10.8471,-13.29339z" fill="#000000" stroke="#ff0000" stroke-width="1.5" stroke-linecap="butt"/><path d="M287.97969,39.99457c6.75662,-0.78986 12.85481,3.88119 13.62078,10.43302c0.76592,6.55186 -4.09049,12.50352 -10.8471,13.29339c-6.75662,0.78986 -12.85482,-3.88118 -13.62078,-10.43302c-0.76592,-6.55186 4.09045,-12.50349 10.8471,-13.29339z" fill="#000000" stroke="#ff0000" stroke-width="1.5" stroke-linecap="butt"/><g stroke-linecap="butt"><path d="M644.41344,694.14081c-3.64999,13.03052 -17.17221,20.63482 -30.20257,16.98488c-13.03042,-3.65 -20.63481,-17.17215 -16.98483,-30.20256c3.64999,-13.03042 17.17215,-20.63481 30.20251,-16.98486c13.03045,3.65001 20.63483,17.17213 16.9849,30.20256z" fill="url(#color-17)" stroke="none" stroke-width="0"/><path d="M548.16854,497.13511c-3.64999,13.03052 -17.17215,20.63481 -30.20251,16.98486c-13.03042,-3.65 -20.63483,-17.17213 -16.98488,-30.20257c3.65001,-13.03043 17.17215,-20.63481 30.20256,-16.98485c13.03045,3.65001 20.63481,17.1721 16.98485,30.20257z" fill="url(#color-18)" stroke="none" stroke-width="0"/><g><path d="M489.6246,505.91299c0,0 -55.50699,-43.94653 -79.17091,-67.79114c-22.33431,-22.50482 -57.84163,-72.66399 -57.84163,-72.66399l42.46091,-41.1034c0,0 51.79473,37.80913 74.5102,60.69806c23.34259,23.52077 66.14174,76.23395 66.14174,76.23395z" fill="#696969" stroke="#000000" stroke-width="2"/><path d="M503.49173,491.22121l-137.18761,-138.23487l16.1756,-15.65847l137.18777,138.23489z" fill="url(#color-19)" stroke="none" stroke-width="0"/><path d="M501.42039,497.27847c-3.13795,0.55545 -5.59128,-3.37907 -5.59128,-3.37907l-4.31718,-7.01573c-2.7193,-8.66998 -2.34768,-15.46183 -3.80531,-23.67836c-0.84195,-4.74578 -3.24907,-9.84936 -4.37399,-14.64536c-1.00783,-4.29678 -0.32333,-8.38471 -2.94211,-13.13586c-6.11995,-11.10294 -20.80694,-21.68605 -30.12614,-22.29076c-6.12717,-0.81247 -12.32097,-2.47326 -18.56755,-3.71356c-5.6006,-1.11205 -10.56409,0.31261 -16.95642,-3.59589c-6.32081,-3.8647 -12.49638,-13.47087 -15.88033,-19.04658c-9.2258,-15.20146 -10.04013,-29.9553 -18.92803,-45.17884c0,0 -2.2732,-3.95941 0.99759,-4.29307c3.2708,-0.33357 5.54401,3.62585 5.54401,3.62585c8.59952,15.17262 9.78422,30.02861 18.83114,45.01271c1.61233,2.67051 6.89661,11.40574 10.59571,13.64822c2.30571,1.39782 7.48196,1.35917 8.69336,1.48059c7.19229,0.72127 15.02951,3.17378 22.36366,4.14944c12.86234,1.07404 31.72135,14.7544 40.09428,29.74735c3.32408,5.95217 2.80672,10.61338 4.0587,15.97935c1.14447,4.90534 3.56652,10.08434 4.43884,14.95849c1.3129,7.33544 0.82108,13.6652 3.02243,21.30687l3.53318,5.57413c0,0 2.45335,3.9345 -0.68459,4.48997z" fill="#000000" stroke="none" stroke-width="0.5"/><path d="M489.6246,505.91299c0,0 -55.50699,-43.94653 -79.17091,-67.79114c-22.33431,-22.50482 -57.84163,-72.66399 -57.84163,-72.66399l42.46091,-41.1034c0,0 51.79473,37.80913 74.5102,60.69806c23.34259,23.52077 66.14174,76.23395 66.14174,76.23395z" fill="#1300d2" stroke="#000000" stroke-width="2"/></g><g><path d="M586.35849,691.0803c0,0 -38.41313,-59.47056 -53.14554,-89.66169c-13.90461,-28.49471 -31.38269,-87.41195 -31.38269,-87.41195l53.42907,-25.25381c0,0 36.87327,52.46504 51.01522,81.44615c14.53236,29.78112 38.09266,93.46275 38.09266,93.46275z" fill="#696969" stroke="#000000" stroke-width="2"/><path d="M604.21582,681.63218l-85.4086,-175.02771l20.35397,-9.6205l85.40864,175.0278z" fill="url(#color-20)" stroke="none" stroke-width="0"/><path d="M600.30543,686.7007c-3.14975,-0.48387 -4.20654,-4.99845 -4.20654,-4.99845l-1.82999,-8.03178c0.21519,-9.08393 2.7526,-15.3949 4.0165,-23.64347c0.73005,-4.76431 0.09313,-10.37101 0.57135,-15.27387c0.42848,-4.39255 2.392,-8.04273 1.44128,-13.3839c-2.22163,-12.48173 -12.72197,-27.22808 -21.35089,-30.79938c-5.53979,-2.74094 -10.86981,-6.30646 -16.38504,-9.49085c-4.94488,-2.85516 -10.10279,-3.10348 -14.89737,-8.86104c-4.74104,-5.69308 -7.49697,-16.77558 -8.90667,-23.14361c-3.84348,-17.36166 0.13309,-31.59285 -3.38323,-48.86665c0,0 -0.87819,-4.48033 2.32598,-3.7437c3.20413,0.73664 4.08241,5.21695 4.08241,5.21695c3.25982,17.13285 -0.39906,31.57991 3.34498,48.6782c0.66723,3.04733 2.8596,13.0183 5.64035,16.33185c1.73327,2.06541 6.64664,3.69448 7.75452,4.1993c6.57764,2.99728 13.20888,7.84128 19.83892,11.12506c11.83258,5.15579 25.28631,24.17729 28.38941,41.06709c1.23189,6.70522 -0.75786,10.95209 -1.29915,16.43543c-0.49487,5.0127 0.13179,10.69563 -0.6107,15.59127c-1.11736,7.36774 -3.61989,13.20252 -3.99458,21.14617l1.55158,6.41461c0,0 1.05677,4.51463 -2.09299,4.03085z" fill="#000000" stroke="none" stroke-width="0.5"/><path d="M586.35849,691.0803c0,0 -38.41313,-59.47056 -53.14554,-89.66169c-13.90461,-28.49471 -31.38269,-87.41195 -31.38269,-87.41195l53.42907,-25.25381c0,0 36.87327,52.46504 51.01522,81.44615c14.53236,29.78112 38.09266,93.46275 38.09266,93.46275z" fill="#1300d2" stroke="#000000" stroke-width="2"/></g></g><g stroke-linecap="butt"><path d="M-170.38667,608.3746c13.39381,-1.92887 25.81526,7.36534 27.74416,20.75917c1.92887,13.39381 -7.36534,25.81533 -20.75913,27.74413c-13.39381,1.92887 -25.81527,-7.36529 -27.74416,-20.75917c-1.92887,-13.39381 7.36538,-25.81531 20.75917,-27.74416z" data-paper-data="{&quot;index&quot;:null}" fill="url(#color-21)" stroke="none" stroke-width="0"/><path d="M-49.39975,425.51794c13.3938,-1.92886 25.81528,7.36535 27.74413,20.75913c1.92887,13.39381 -7.36538,25.81531 -20.75917,27.74416c-13.3938,1.92886 -25.81524,-7.3653 -27.74409,-20.75917c-1.92887,-13.39381 7.36535,-25.81527 20.75915,-27.74413z" data-paper-data="{&quot;index&quot;:null}" fill="url(#color-22)" stroke="none" stroke-width="0"/><g data-paper-data="{&quot;index&quot;:null}"><path d="M-53.17012,419.3303c0,0 49.27539,-46.71593 75.47183,-67.01004c25.49267,-19.74894 81.7543,-50.5199 81.7543,-50.5199l36.77028,46.26407c0,0 -41.71388,45.12949 -66.77875,64.547c-26.55706,20.5735 -87.29573,56.94845 -87.29573,56.94845z" fill="#696969" stroke="#000000" stroke-width="2"/><path d="M-39.10033,435.5691l153.96023,-119.2712l14.00774,17.62442l-153.96006,119.27118z" fill="url(#color-23)" stroke="none" stroke-width="0"/><path d="M-23.82432,459.46823c-3.03934,-0.95786 -0.09636,-4.54086 -0.09636,-4.54086l4.22639,-5.06872c3.17404,-7.2916 3.50742,-13.63168 5.7608,-20.73477c1.49721,-4.71985 4.57067,-9.54091 6.34175,-14.25632c1.93746,-5.15818 2.02912,-9.84715 6.09718,-15.31782c10.24702,-13.78013 30.72133,-24.89864 43.61432,-24.29509c7.39867,-0.01604 15.48783,-1.4312 22.71292,-1.21343c1.21692,0.03677 6.34444,0.7465 8.81195,-0.34041c3.95879,-1.74373 10.33143,-9.71961 12.27662,-12.15847c10.91423,-13.68393 14.016,-28.26073 24.51103,-42.18964c0,0 2.76762,-3.63112 5.96746,-2.87608c3.19985,0.75507 0.43228,4.38619 0.43228,4.38619c-10.78757,13.94198 -13.50882,28.46555 -24.62863,42.34183c-4.07857,5.08963 -11.4481,13.81356 -18.21683,16.82569c-6.84536,3.04625 -11.58199,0.98979 -17.27959,1.36594c-6.3547,0.41953 -12.71155,1.26286 -18.89241,1.27364c-9.31886,-0.60923 -25.25461,7.97929 -32.76314,18.19453c-3.21304,4.37123 -3.06456,8.51346 -4.62123,12.64323c-1.73751,4.60959 -4.78638,9.35779 -6.23679,13.95424c-2.51113,7.95806 -3.02366,14.74075 -6.84465,22.98471l-5.19079,6.39642c0,0 -2.943,3.58303 -5.98235,2.62522z" fill="#000000" stroke="none" stroke-width="0.5"/><path d="M-53.17012,419.3303c0,0 49.27539,-46.71593 75.47183,-67.01004c25.49267,-19.74894 81.7543,-50.5199 81.7543,-50.5199l36.77028,46.26407c0,0 -41.71388,45.12949 -66.77875,64.547c-26.55706,20.5735 -87.29573,56.94845 -87.29573,56.94845z" fill="#1300d2" stroke="#000000" stroke-width="2"/></g><g data-paper-data="{&quot;index&quot;:null}"><path d="M-187.1462,605.90322c0,0 31.62191,-60.0874 49.89462,-87.73178c17.78183,-26.90178 61.14924,-74.1404 61.14924,-74.1404l49.70175,31.97116c0,0 -24.97309,56.15219 -42.45652,82.60247c-18.52426,28.02496 -64.32726,82.01019 -64.32726,82.01019z" fill="#696969" stroke="#000000" stroke-width="2"/><path d="M-168.59932,616.7507l107.39133,-162.46992l18.93399,12.17949l-107.3912,162.46987z" fill="url(#color-24)" stroke="none" stroke-width="0"/><path d="M-146.44546,634.46298c-3.18592,0.07109 -1.55243,-4.26826 -1.55243,-4.26826l2.37061,-6.15917c0.65888,-7.92513 -1.06561,-14.03526 -1.21784,-21.48566c-0.10112,-4.95057 1.25736,-10.50422 1.41694,-15.53874c0.17458,-5.50735 -1.24752,-9.97635 0.8438,-16.46512c5.26775,-16.34457 21.07519,-33.4601 33.47661,-37.03743c7,-2.39597 14.20353,-6.33886 21.11446,-8.45761c1.16397,-0.35686 6.24714,-1.33478 8.23372,-3.15792c3.18713,-2.9249 6.65433,-12.52716 7.71125,-15.46223c5.93037,-16.46813 4.17651,-31.26777 9.63119,-47.83302c0,0 1.45199,-4.32853 4.72462,-4.64332c3.27265,-0.31474 1.8207,4.0138 1.8207,4.0138c-5.72743,16.67168 -3.63047,31.2985 -9.6936,48.01494c-2.2239,6.13137 -6.39412,16.76268 -11.83358,21.79273c-5.50099,5.08696 -10.64749,4.66414 -15.92094,6.8537c-5.88171,2.44212 -11.62919,5.28613 -17.47772,7.28524c-9.01927,2.42184 -21.34374,15.68148 -25.16577,27.76958c-1.63553,5.17269 -0.16202,9.0468 -0.30699,13.4578c-0.16182,4.92349 -1.52056,10.40028 -1.41476,15.21896c0.18322,8.34283 1.88047,14.92961 0.91556,23.96469l-2.85636,7.72657c0,0 -1.63348,4.33942 -4.81941,4.41056z" fill="#000000" stroke="none" stroke-width="0.5"/><path d="M-187.1462,605.90322c0,0 31.62191,-60.0874 49.89462,-87.73178c17.78183,-26.90178 61.14924,-74.1404 61.14924,-74.1404l49.70175,31.97116c0,0 -24.97309,56.15219 -42.45652,82.60247c-18.52426,28.02496 -64.32726,82.01019 -64.32726,82.01019z" fill="#1300d2" stroke="#000000" stroke-width="2"/></g></g><path d="M137.1191,-53.13677c1.68166,-0.19659 12.44748,85.61721 20.89877,159.90161c-0.9455,-0.71023 -1.99012,-0.68682 -1.99012,-0.68682c-18.25033,0.52272 -75.76848,8.03855 -86.81086,8.86233c-19.95539,0.665 -41.54148,5.11006 -61.50743,-1.97615c-0.82592,-5.17792 -1.53086,-10.41036 -2.14504,-15.66404c-8.60222,-73.5848 50.29677,-140.93777 131.5546,-150.43698zM105.58162,72.18854c15.12061,-4.99262 37.29994,-17.59149 29.55782,-53.23211c-1.94885,-8.97159 -18.22293,-35.96712 -44.07844,-31.71631c-16.81561,3.23424 -44.514,19.01451 -39.96424,46.42958c5.70089,34.35128 27.36567,39.60718 54.48483,38.51883z" fill="#1300d2" stroke="#000000" stroke-width="2" stroke-linecap="butt"/><path d="M301.13308,-81.85407c81.25782,-9.4992 154.1038,42.45242 162.70603,116.03726c0.61415,5.25367 1.13518,10.50762 1.52576,15.73643c-17.79316,11.50031 -39.82249,12.15402 -59.39316,16.10968c-10.93462,1.74537 -68.6354,7.6989 -86.51418,11.39976c0,0 -1.02186,0.21813 -1.77801,1.12732c-8.9105,-74.23071 -18.22806,-160.21383 -16.54643,-160.41042zM404.85794,-17.22936c-1.89624,-27.72528 -32.48753,-36.69134 -49.59573,-35.95981c-26.13883,1.82737 -35.74746,31.84865 -35.57448,41.0279c0.6872,36.46536 25.17451,43.60884 41.03897,44.9792c26.63892,-5.19611 46.50727,-15.30732 44.13125,-50.04729z" data-paper-data="{&quot;index&quot;:null}" fill="#1300d2" stroke="#000000" stroke-width="2" stroke-linecap="butt"/></g></g></svg>