<svg version="1.1" xmlns="http://www.w3.org/2000/svg" xmlns:xlink="http://www.w3.org/1999/xlink" width="566.10827" height="478.81212" viewBox="0,0,566.10827,478.81212"><defs><linearGradient x1="350.34016" y1="234.37913" x2="380.39688" y2="234.37913" gradientUnits="userSpaceOnUse" id="color-1"><stop offset="0" stop-color="#5db4ff"/><stop offset="1" stop-color="#74d3ff"/></linearGradient><linearGradient x1="320.89687" y1="234.37913" x2="350.95359" y2="234.37913" gradientUnits="userSpaceOnUse" id="color-2"><stop offset="0" stop-color="#5db4ff"/><stop offset="1" stop-color="#74d3ff"/></linearGradient><radialGradient cx="299.62872" cy="186.82961" r="9.64491" gradientUnits="userSpaceOnUse" id="color-3"><stop offset="0" stop-color="#74d3ff"/><stop offset="1" stop-color="#5db4ff"/></radialGradient><radialGradient cx="279.06269" cy="186.82961" r="9.64491" gradientUnits="userSpaceOnUse" id="color-4"><stop offset="0" stop-color="#74d3ff"/><stop offset="1" stop-color="#5db4ff"/></radialGradient><radialGradient cx="258.27308" cy="186.82961" r="9.64491" gradientUnits="userSpaceOnUse" id="color-5"><stop offset="0" stop-color="#74d3ff"/><stop offset="1" stop-color="#5db4ff"/></radialGradient><radialGradient cx="344.01011" cy="316.49156" r="16.66667" gradientUnits="userSpaceOnUse" id="color-6"><stop offset="0" stop-color="#74d3ff"/><stop offset="1" stop-color="#5db4ff"/></radialGradient><radialGradient cx="385.67675" cy="316.49156" r="16.66667" gradientUnits="userSpaceOnUse" id="color-7"><stop offset="0" stop-color="#74d3ff"/><stop offset="1" stop-color="#5db4ff"/></radialGradient><radialGradient cx="360.42818" cy="295.56046" r="6.875" gradientUnits="userSpaceOnUse" id="color-8"><stop offset="0" stop-color="#0058ff"/><stop offset="1" stop-color="#0037b8"/></radialGradient><radialGradient cx="370.92818" cy="295.56046" r="6.875" gradientUnits="userSpaceOnUse" id="color-9"><stop offset="0" stop-color="#ff0000"/><stop offset="1" stop-color="#b70000"/></radialGradient><radialGradient cx="369.31988" cy="295.35366" r="42.21014" gradientUnits="userSpaceOnUse" id="color-10"><stop offset="0" stop-color="#ff0000"/><stop offset="1" stop-color="#ff0000" stop-opacity="0"/></radialGradient><radialGradient cx="268.84955" cy="361.60173" r="19.5" gradientUnits="userSpaceOnUse" id="color-11"><stop offset="0" stop-color="#7b7b7b"/><stop offset="1" stop-color="#4e4e4e"/></radialGradient><radialGradient cx="422.34955" cy="361.60173" r="19.5" gradientUnits="userSpaceOnUse" id="color-12"><stop offset="0" stop-color="#7b7b7b"/><stop offset="1" stop-color="#4e4e4e"/></radialGradient><radialGradient cx="136.19836" cy="192.0854" r="85.58697" gradientUnits="userSpaceOnUse" id="color-13"><stop offset="0" stop-color="#ff5050"/><stop offset="1" stop-color="#ff0000"/></radialGradient><radialGradient cx="90.07433" cy="179.91404" r="18" gradientUnits="userSpaceOnUse" id="color-14"><stop offset="0" stop-color="#ff0000"/><stop offset="1" stop-color="#b80000"/></radialGradient><radialGradient cx="148.21037" cy="211.60492" r="23.5" gradientUnits="userSpaceOnUse" id="color-15"><stop offset="0" stop-color="#74d3ff"/><stop offset="1" stop-color="#5db4ff"/></radialGradient><radialGradient cx="98.66082" cy="217.61093" r="41.5" gradientUnits="userSpaceOnUse" id="color-16"><stop offset="0" stop-color="#74d3ff"/><stop offset="1" stop-color="#5db4ff"/></radialGradient><radialGradient cx="171.5" cy="285.35173" r="9.25" gradientUnits="userSpaceOnUse" id="color-17"><stop offset="0" stop-color="#ffffff"/><stop offset="1" stop-color="#b8b8b8"/></radialGradient><radialGradient cx="159" cy="285.35174" r="3.75" gradientUnits="userSpaceOnUse" id="color-18"><stop offset="0" stop-color="#ffa865"/><stop offset="1" stop-color="#ff8800"/></radialGradient><radialGradient cx="70.88385" cy="307.41404" r="35.5" gradientUnits="userSpaceOnUse" id="color-19"><stop offset="0" stop-color="#c1c1c1"/><stop offset="1" stop-color="#7b7b7b"/></radialGradient></defs><g transform="translate(32.52252,93.71039)"><g data-paper-data="{&quot;isPaintingLayer&quot;:true}" fill-rule="nonzero" stroke-linecap="butt" stroke-linejoin="miter" stroke-miterlimit="10" stroke-dasharray="" stroke-dashoffset="0" style="mix-blend-mode: normal"><path d="M-9.09791,368.43844v-376.87688h496.69433v376.87688z" fill="#009fff" stroke="none" stroke-width="0"/><path d="M492.05421,96.74006c0,51.82852 -39.32634,93.84384 -87.83784,93.84384c-48.5115,0 -87.83784,-42.01532 -87.83784,-93.84384c0,-51.82852 39.32634,-93.84384 87.83784,-93.84384c48.5115,0 87.83784,42.01532 87.83784,93.84384z" fill="#252525" stroke="none" stroke-width="0"/><path d="M327.38455,92.73105c0,51.82852 -39.32634,93.84385 -87.83784,93.84385c-48.5115,0 -87.83784,-42.01532 -87.83784,-93.84385c0,-51.82852 39.32634,-93.84384 87.83784,-93.84384c48.5115,0 87.83784,42.01532 87.83784,93.84385z" fill="#252525" stroke="none" stroke-width="0"/><path d="M533.58575,0.13345c0,51.82852 -39.32634,93.84385 -87.83784,93.84385c-48.5115,0 -87.83783,-42.01532 -87.83783,-93.84385c0,-51.82852 39.32633,-93.84384 87.83783,-93.84384c48.5115,0 87.83784,42.01532 87.83784,93.84384z" fill="#252525" stroke="none" stroke-width="0"/><path d="M397.44461,15.64396c0,51.82852 -39.32634,93.84385 -87.83784,93.84385c-48.5115,0 -87.83784,-42.01532 -87.83784,-93.84385c0,-51.82852 39.32634,-93.84384 87.83784,-93.84384c48.5115,0 87.83784,42.01532 87.83784,93.84384z" fill="#252525" stroke="none" stroke-width="0"/><path d="M-25.01498,366.93694v-142.64264h524.02402v142.64264z" fill="#9e9e9e" stroke="none" stroke-width="0"/><path d="M-10.01348,290.36096v-41h499.52553v41z" fill="#bbbbbb" stroke="none" stroke-width="0"/><g stroke-width="10"><path d="M161.55275,219.6437l3.43,-206.07046l58.20873,93.40246l64.20319,-117.35551c0,0 -3.66338,102.48593 21.45157,105.98859c14.3,1.99435 52.63518,-72.26502 52.63518,-72.26502l-1.6589,104.39703c0,0 15.78933,-47.6703 46.4697,-69.06041c17.84243,-12.4396 -21.09304,86.99472 -3.37976,94.25068c19.99275,8.18971 50.53485,-56.69195 50.53485,-56.69195l0.93563,150.9534z" fill="#ff0000" stroke="#ff0000"/><path d="M169.4418,249.6437l3.43,-206.07046l58.20873,93.40246l48.4251,-118.35551c0,0 12.1147,103.48593 37.22966,106.98859c14.3,1.99435 36.29359,-63.76502 36.29359,-63.76502l4.53964,91.39704c0,0 7.90029,-56.1703 38.58066,-77.56041c17.84243,-12.4396 -16.58502,81.99472 1.12827,89.25068c19.99275,8.18971 48.28084,-38.69195 48.28084,-38.69195l2.06264,130.9534z" fill="#ffd800" stroke="#ffa700"/></g><g stroke="none" stroke-width="0"><g><path d="M251.00005,87v-44h125v44z" fill="#ffeca2"/><path d="M251.00005,87v-44h18v44z" fill="#cabb81"/></g><g><path d="M20.53007,269.33934v-178.67868h365.71538c0.0737,0.27699 0.15427,0.54276 0.24181,0.79463c-0.25668,0.24806 -0.46058,0.58604 -0.61582,0.88922c-1.02011,1.99225 -1.82378,4.09524 -2.53963,6.21591c-0.66783,1.97843 -1.56944,3.96797 -1.60278,6.05581c-0.03892,2.43743 0.83122,4.80714 1.39143,7.17964c0.14923,0.63196 0.52071,1.19137 0.73033,1.80595c0.35773,1.0488 -0.70827,2.11043 -0.8855,3.2043c-0.02352,0.14518 -0.06589,0.31041 -0.11512,0.48515c-0.41809,0.17958 -0.8298,0.4012 -1.17404,0.56359c-1.89881,0.89572 -3.52957,2.27448 -5.29435,3.41172c-2.63297,2.96886 -5.98541,5.43021 -7.89891,8.90659c-0.2272,0.41277 -0.3882,0.84791 -0.50165,1.29866c-1.38609,-0.43325 -2.78237,-0.86426 -4.22218,-1.00825c-2.23476,-0.22348 -6.30862,-0.13098 -9.14399,0.13606c-11.38922,1.07265 -18.74623,13.12041 -15.60601,23.36394c1.26014,4.11062 8.21222,5.65872 11.94696,6.33743c1.39911,0.25426 3.46714,-0.46945 4.19974,0.74934c0.60418,1.00515 0.13377,2.48715 0.85331,3.41323c0.93877,1.20826 7.29033,4.80752 8.75,5c0.98841,0.13034 1.70176,-1.20465 2.6943,-1.29857c1.12697,-0.10665 2.2262,-0.62503 3.35428,-0.53081c0.55529,0.04638 0.90586,0.94279 1.45142,0.82938c0.85475,-0.17767 3.60011,-1.5187 5.80675,-2.82854c2.39664,4.31782 5.13345,8.3176 9.72889,11.06697c4.58775,2.74477 9.92276,2.32653 14.92699,2.298c2.59526,-0.01479 5.24517,0.37683 7.78425,-0.16046c0.10329,-0.02186 0.20837,-0.04319 0.31495,-0.06421c0.40483,6.03111 2.02097,10.74288 4.55239,16.72958c1.69703,1.6672 3.13744,3.64414 5.0911,5.0016c2.89011,2.00813 6.50002,2.70939 9.81773,3.88334c1.58986,0.56256 3.17026,1.22881 4.83775,1.48102c0.32961,0.04985 0.47599,-0.77947 0.77499,-0.63208c0.84565,0.41686 1.10645,1.69925 2,2c0.29735,0.10008 0.60091,0.16753 0.90883,0.2124c-0.00323,0.10937 -0.00556,0.21839 -0.00707,0.32697c-0.04632,3.33368 -0.48155,7.00991 1.10833,9.94041c1.60296,2.95461 4.92831,4.63295 7.77121,6.42656c1.16236,0.73335 2.73676,0.45861 4,1c1.10467,0.47343 1.87832,1.5684 3,2c2.00587,0.77181 3.90706,1.22413 5.79388,1.48862v40.70558z" fill="#ffeca2"/><path d="M442.82383,207.57092c0.15604,0.0172 -0.36529,0.29945 -0.44205,0.1625c-0.03788,-0.06758 -0.07464,-0.13569 -0.11039,-0.20429c0.18508,0.00835 0.36935,0.0216 0.55244,0.04179z" fill="#ffeca2"/><path d="M20.53007,269.33934v-178.67867h205.93994v178.67868z" fill="#cabb81"/><path d="M7.50003,106v-26h379.06743c-0.12039,0.28001 -0.23145,0.55939 -0.33263,0.83772c-0.8462,2.32781 -0.82344,7.52222 0.25243,10.61757c-0.25668,0.24806 -0.46058,0.58604 -0.61582,0.88922c-1.02011,1.99225 -1.82378,4.09524 -2.53963,6.21591c-0.66783,1.97843 -1.56944,3.96797 -1.60278,6.05581c-0.0074,0.46354 0.01807,0.92464 0.06804,1.38377z" fill="#9f0000"/><path d="M7.50003,106v-26h235v26z" fill="#770000"/></g></g><g><path d="M325.12645,45.16716c6.06409,0 10.98,4.36634 10.98,9.7525c0,5.38616 -4.91591,9.7525 -10.98,9.7525c-6.06409,0 -10.98,-4.36634 -10.98,-9.7525c0,-5.38616 4.91591,-9.7525 10.98,-9.7525z" fill="#50d300" stroke="#fffd00" stroke-width="2"/><path d="M283.34146,75.25466v-20.335h81.33333v16.18551c-2.53259,0.73195 -5.5307,2.30571 -7.9843,4.14948z" fill="#50d300" stroke="#fffd00" stroke-width="2"/><text transform="translate(284.9681,71.10466) scale(0.22294,0.415)" font-size="40" xml:space="preserve" fill="#ffffff" fill-rule="nonzero" stroke="none" stroke-width="1" stroke-linecap="butt" stroke-linejoin="miter" stroke-miterlimit="10" stroke-dasharray="" stroke-dashoffset="0" font-family="Sans Serif" font-weight="normal" text-anchor="start" style="mix-blend-mode: normal"><tspan x="0" dy="0">SESAME PARADISE</tspan></text><text transform="translate(319.63644,53.14668) scale(0.1519,0.15502)" font-size="40" xml:space="preserve" fill="#ffffff" fill-rule="nonzero" stroke="none" stroke-width="1" stroke-linecap="butt" stroke-linejoin="miter" stroke-miterlimit="10" stroke-dasharray="" stroke-dashoffset="0" font-family="Sans Serif" font-weight="normal" text-anchor="start" style="mix-blend-mode: normal"><tspan x="0" dy="0">123</tspan></text></g><path d="M350.34016,268.65747v-68.5567h30.0567v68.5567z" fill="url(#color-1)" stroke="#a3a3a3" stroke-width="3.5"/><path d="M320.89687,268.65747v-68.5567h30.0567v68.5567z" fill="url(#color-2)" stroke="#a3a3a3" stroke-width="3.5"/><g stroke="#a3a3a3" stroke-width="3.5"><path d="M282.7288,219.28415v-42h19.28982v42z" fill="url(#color-3)"/><path d="M262.16274,219.28415v-42h19.28981v42z" fill="url(#color-4)"/><path d="M241.37317,219.28415v-42h19.28982v42z" fill="url(#color-5)"/></g><g fill="#3d78ab" stroke="#7a7a7a" stroke-width="3.5"><path d="M183.72882,219.28415v-42h19.28982v42z"/><path d="M163.16276,219.28415v-42h19.28981v42z"/><path d="M142.37317,219.28415v-42h19.28982v42z"/></g><g fill="#3d78ab" stroke="#7a7a7a" stroke-width="3.5"><path d="M72.72881,217.28415v-42h19.28982v42z"/><path d="M52.16277,217.28415v-42h19.28981v42z"/><path d="M31.37317,217.28415v-42h19.28982v42z"/></g><path d="M229.91354,363.60173v-31c0,0 47.26795,-6.5 77.9539,-6.5c31.46722,0 100.14661,0 137.18606,0c15.03756,0 24.61005,2.75 24.61005,2.75l0.25,34.75z" fill="#2c2c2c" stroke="#ffffff" stroke-width="0"/><path d="M316.26597,370.60173l-9.81869,-44.93405l17.81869,-25.56594l82.5,0.5l16.48654,25.51488l-10.98654,40.98512z" fill="#ffffff" stroke="none" stroke-width="0"/><path d="M314.3434,325.32491l13,-21.33334h33.33333l-0.33333,21.66667z" fill="url(#color-6)" stroke="#a3a3a3" stroke-width="0"/><path d="M369.34344,325.65824l-0.33334,-21.66667h33.33334l13,21.33334z" data-paper-data="{&quot;index&quot;:null}" fill="url(#color-7)" stroke="#a3a3a3" stroke-width="0"/><path d="M402.28241,332.76839v-3h13.66666v3z" fill="#2c2c2c" stroke="none" stroke-width="0"/><path d="M346.28241,332.43505v-3h13.66666v3z" fill="#2c2c2c" stroke="none" stroke-width="0"/><path d="M353.55318,300.31046v-9.5h13.75v9.5z" fill="url(#color-8)" stroke="none" stroke-width="0"/><path d="M364.05318,300.31046v-9.5h13.75v9.5z" fill="url(#color-9)" stroke="none" stroke-width="0"/><path d="M369.31987,257.85366c21.44705,0 38.83333,16.78932 38.83333,37.5c0,20.71068 -17.38627,37.5 -38.83333,37.5c-21.44705,0 -38.83333,-16.78932 -38.83333,-37.5c0,-20.71068 17.38627,-37.5 38.83333,-37.5z" fill="url(#color-10)" stroke="none" stroke-width="0"/><path d="M269.05481,337.60173c12.97869,0 23.5,10.63324 23.5,23.75c0,13.11676 -10.52131,23.75 -23.5,23.75c-12.97869,0 -23.5,-10.63324 -23.5,-23.75c0,-13.11676 10.52131,-23.75 23.5,-23.75z" fill="#000000" stroke="none" stroke-width="0"/><path d="M268.84955,342.10173c10.65619,0 19.29474,8.73045 19.29474,19.5c0,10.76955 -8.63855,19.5 -19.29474,19.5c-10.65619,0 -19.29474,-8.73045 -19.29474,-19.5c0,-10.76955 8.63855,-19.5 19.29474,-19.5z" fill="url(#color-11)" stroke="none" stroke-width="0"/><path d="M422.55481,337.60173c12.97869,0 23.5,10.63324 23.5,23.75c0,13.11676 -10.52131,23.75 -23.5,23.75c-12.97869,0 -23.5,-10.63324 -23.5,-23.75c0,-13.11676 10.52131,-23.75 23.5,-23.75z" fill="#000000" stroke="none" stroke-width="0"/><path d="M422.34955,342.10173c10.65619,0 19.29474,8.73044 19.29474,19.5c0,10.76956 -8.63855,19.5 -19.29474,19.5c-10.65619,0 -19.29474,-8.73044 -19.29474,-19.5c0,-10.76956 8.63855,-19.5 19.29474,-19.5z" fill="url(#color-12)" stroke="none" stroke-width="0"/><path d="M-32.52252,351.90502v-23.02302h213.21321v23.02302z" fill="#303030" stroke="none" stroke-width="0"/><g stroke-width="0"><path d="M-29.42567,312.55218v-77h71v77z" fill="#606060" stroke="none"/><path d="M11.57433,314.55218l-2,-129l155,1l16.17393,66.9023l-0.17393,62.0977z" fill="url(#color-13)" stroke="#000000"/><path d="M72.07433,186.91404v-14h36v14z" fill="url(#color-14)" stroke="none"/><path d="M71.07433,265.91404c22.09139,0 40,18.80404 40,42c0,23.19596 -17.90861,42 -40,42c-22.09139,0 -40,-18.80404 -40,-42c0,-23.19596 17.90861,-42 40,-42z" fill="#363636" stroke="none"/><path d="M113.07433,245.91404v-47h45v47z" fill="url(#color-15)" stroke="none"/><path d="M19.07433,245.91404v-47h83v47z" fill="url(#color-16)" stroke="none"/><path d="M162.25,290.60173v-10.5h18.5v10.5z" fill="url(#color-17)" stroke="none"/><path d="M155.25,290.60174v-10.5h7.5v10.5z" fill="url(#color-18)" stroke="none"/><path d="M70.88385,271.91404c18.67248,0 33.80952,15.89389 33.80952,35.5c0,19.60611 -15.13704,35.5 -33.80952,35.5c-18.67248,0 -33.80952,-15.89389 -33.80952,-35.5c0,-19.60611 15.13704,-35.5 33.80952,-35.5z" fill="url(#color-19)" stroke="none"/></g></g></g></svg>