<svg version="1.1" xmlns="http://www.w3.org/2000/svg" xmlns:xlink="http://www.w3.org/1999/xlink" width="716.94035" height="745.41113" viewBox="0,0,716.94035,745.41113"><defs><linearGradient x1="421.65209" y1="669.09957" x2="408.01294" y2="699.77046" gradientUnits="userSpaceOnUse" id="color-1"><stop offset="0" stop-color="#5c5c5c"/><stop offset="1" stop-color="#9b9b9b"/></linearGradient><linearGradient x1="417.90537" y1="607.23036" x2="402.57766" y2="608.92475" gradientUnits="userSpaceOnUse" id="color-2"><stop offset="0" stop-color="#5c5c5c"/><stop offset="1" stop-color="#9b9b9b"/></linearGradient><linearGradient x1="476.90915" y1="932.65872" x2="469.85022" y2="930.14571" gradientUnits="userSpaceOnUse" id="color-3"><stop offset="0" stop-color="#5c5c5c"/><stop offset="1" stop-color="#9b9b9b"/></linearGradient><linearGradient x1="498.83619" y1="913.12789" x2="491.35626" y2="913.5682" gradientUnits="userSpaceOnUse" id="color-4"><stop offset="0" stop-color="#5c5c5c"/><stop offset="1" stop-color="#9b9b9b"/></linearGradient><linearGradient x1="443.68568" y1="817.29728" x2="421.06202" y2="842.09461" gradientUnits="userSpaceOnUse" id="color-5"><stop offset="0" stop-color="#5c5c5c"/><stop offset="1" stop-color="#9b9b9b"/></linearGradient><linearGradient x1="421.77455" y1="888.89693" x2="419.2931" y2="880.42353" gradientUnits="userSpaceOnUse" id="color-6"><stop offset="0" stop-color="#5c5c5c"/><stop offset="1" stop-color="#9b9b9b"/></linearGradient><linearGradient x1="440.07973" y1="906.46716" x2="433.58919" y2="900.48144" gradientUnits="userSpaceOnUse" id="color-7"><stop offset="0" stop-color="#5c5c5c"/><stop offset="1" stop-color="#9b9b9b"/></linearGradient><linearGradient x1="462.88246" y1="904.29479" x2="456.39202" y2="898.30904" gradientUnits="userSpaceOnUse" id="color-8"><stop offset="0" stop-color="#5c5c5c"/><stop offset="1" stop-color="#9b9b9b"/></linearGradient><linearGradient x1="482.21188" y1="892.30195" x2="475.72134" y2="886.31619" gradientUnits="userSpaceOnUse" id="color-9"><stop offset="0" stop-color="#5c5c5c"/><stop offset="1" stop-color="#9b9b9b"/></linearGradient><linearGradient x1="501.71989" y1="955.08883" x2="494.26018" y2="955.79238" gradientUnits="userSpaceOnUse" id="color-10"><stop offset="0" stop-color="#5c5c5c"/><stop offset="1" stop-color="#9b9b9b"/></linearGradient><linearGradient x1="514.57527" y1="958.93643" x2="512.83819" y2="963.88262" gradientUnits="userSpaceOnUse" id="color-11"><stop offset="0" stop-color="#5c5c5c"/><stop offset="1" stop-color="#9b9b9b"/></linearGradient><linearGradient x1="486.93658" y1="941.57589" x2="483.2729" y2="945.32551" gradientUnits="userSpaceOnUse" id="color-12"><stop offset="0" stop-color="#5c5c5c"/><stop offset="1" stop-color="#9b9b9b"/></linearGradient><linearGradient x1="530.43206" y1="924.10003" x2="523.83801" y2="927.65836" gradientUnits="userSpaceOnUse" id="color-13"><stop offset="0" stop-color="#5c5c5c"/><stop offset="1" stop-color="#9b9b9b"/></linearGradient><linearGradient x1="543.7698" y1="922.62696" x2="544.10019" y2="927.85894" gradientUnits="userSpaceOnUse" id="color-14"><stop offset="0" stop-color="#5c5c5c"/><stop offset="1" stop-color="#9b9b9b"/></linearGradient><linearGradient x1="511.54806" y1="917.42606" x2="509.63769" y2="922.30794" gradientUnits="userSpaceOnUse" id="color-15"><stop offset="0" stop-color="#5c5c5c"/><stop offset="1" stop-color="#9b9b9b"/></linearGradient><linearGradient x1="468.1509" y1="974.58818" x2="460.91586" y2="972.63972" gradientUnits="userSpaceOnUse" id="color-16"><stop offset="0" stop-color="#5c5c5c"/><stop offset="1" stop-color="#9b9b9b"/></linearGradient><linearGradient x1="478.85027" y1="982.68707" x2="475.49372" y2="986.71384" gradientUnits="userSpaceOnUse" id="color-17"><stop offset="0" stop-color="#5c5c5c"/><stop offset="1" stop-color="#9b9b9b"/></linearGradient><linearGradient x1="452.74633" y1="944.90011" x2="447.01119" y2="940.07811" gradientUnits="userSpaceOnUse" id="color-18"><stop offset="0" stop-color="#5c5c5c"/><stop offset="1" stop-color="#9b9b9b"/></linearGradient><linearGradient x1="459.02393" y1="956.76002" x2="454.28068" y2="958.99235" gradientUnits="userSpaceOnUse" id="color-19"><stop offset="0" stop-color="#5c5c5c"/><stop offset="1" stop-color="#9b9b9b"/></linearGradient><linearGradient x1="451.59092" y1="925.30349" x2="446.34863" y2="925.28472" gradientUnits="userSpaceOnUse" id="color-20"><stop offset="0" stop-color="#5c5c5c"/><stop offset="1" stop-color="#9b9b9b"/></linearGradient><linearGradient x1="468.97628" y1="914.7023" x2="464.05813" y2="916.5172" gradientUnits="userSpaceOnUse" id="color-21"><stop offset="0" stop-color="#5c5c5c"/><stop offset="1" stop-color="#9b9b9b"/></linearGradient><linearGradient x1="484.52602" y1="899.68978" x2="480.70582" y2="903.2798" gradientUnits="userSpaceOnUse" id="color-22"><stop offset="0" stop-color="#5c5c5c"/><stop offset="1" stop-color="#9b9b9b"/></linearGradient><linearGradient x1="397.97514" y1="906.05616" x2="393.95279" y2="898.19624" gradientUnits="userSpaceOnUse" id="color-23"><stop offset="0" stop-color="#5c5c5c"/><stop offset="1" stop-color="#9b9b9b"/></linearGradient><linearGradient x1="399.36729" y1="921.80686" x2="393.19521" y2="922.06143" gradientUnits="userSpaceOnUse" id="color-24"><stop offset="0" stop-color="#5c5c5c"/><stop offset="1" stop-color="#9b9b9b"/></linearGradient><linearGradient x1="412.08925" y1="867.8769" x2="408.06684" y2="860.01695" gradientUnits="userSpaceOnUse" id="color-25"><stop offset="0" stop-color="#5c5c5c"/><stop offset="1" stop-color="#9b9b9b"/></linearGradient><linearGradient x1="405.68439" y1="884.24668" x2="400.00005" y2="881.82821" gradientUnits="userSpaceOnUse" id="color-26"><stop offset="0" stop-color="#5c5c5c"/><stop offset="1" stop-color="#9b9b9b"/></linearGradient><linearGradient x1="432.94936" y1="753.90389" x2="417.63291" y2="755.69721" gradientUnits="userSpaceOnUse" id="color-27"><stop offset="0" stop-color="#5c5c5c"/><stop offset="1" stop-color="#9b9b9b"/></linearGradient><linearGradient x1="658.4777" y1="482.74396" x2="691.35664" y2="475.98337" gradientUnits="userSpaceOnUse" id="color-28"><stop offset="0" stop-color="#5c5c5c"/><stop offset="1" stop-color="#9b9b9b"/></linearGradient><linearGradient x1="598.84307" y1="465.84581" x2="603.7779" y2="451.23564" gradientUnits="userSpaceOnUse" id="color-29"><stop offset="0" stop-color="#5c5c5c"/><stop offset="1" stop-color="#9b9b9b"/></linearGradient><linearGradient x1="904.10945" y1="593.11522" x2="903.16505" y2="585.68207" gradientUnits="userSpaceOnUse" id="color-30"><stop offset="0" stop-color="#5c5c5c"/><stop offset="1" stop-color="#9b9b9b"/></linearGradient><linearGradient x1="880.33921" y1="610.3554" x2="882.3698" y2="603.14293" gradientUnits="userSpaceOnUse" id="color-31"><stop offset="0" stop-color="#5c5c5c"/><stop offset="1" stop-color="#9b9b9b"/></linearGradient><linearGradient x1="798.52862" y1="535.97723" x2="827.59245" y2="519.18344" gradientUnits="userSpaceOnUse" id="color-32"><stop offset="0" stop-color="#5c5c5c"/><stop offset="1" stop-color="#9b9b9b"/></linearGradient><linearGradient x1="873.15836" y1="529.89379" x2="865.41217" y2="525.65676" gradientUnits="userSpaceOnUse" id="color-33"><stop offset="0" stop-color="#5c5c5c"/><stop offset="1" stop-color="#9b9b9b"/></linearGradient><linearGradient x1="886.4049" y1="551.53455" x2="881.9466" y2="543.91356" gradientUnits="userSpaceOnUse" id="color-34"><stop offset="0" stop-color="#5c5c5c"/><stop offset="1" stop-color="#9b9b9b"/></linearGradient><linearGradient x1="879.40373" y1="573.34434" x2="874.94537" y2="565.72344" gradientUnits="userSpaceOnUse" id="color-35"><stop offset="0" stop-color="#5c5c5c"/><stop offset="1" stop-color="#9b9b9b"/></linearGradient><linearGradient x1="863.55271" y1="589.65997" x2="859.09436" y2="582.03897" gradientUnits="userSpaceOnUse" id="color-36"><stop offset="0" stop-color="#5c5c5c"/><stop offset="1" stop-color="#9b9b9b"/></linearGradient><linearGradient x1="920.71131" y1="622.15074" x2="922.99472" y2="615.01433" gradientUnits="userSpaceOnUse" id="color-37"><stop offset="0" stop-color="#5c5c5c"/><stop offset="1" stop-color="#9b9b9b"/></linearGradient><linearGradient x1="921.71911" y1="635.53166" x2="926.92244" y2="634.89315" gradientUnits="userSpaceOnUse" id="color-38"><stop offset="0" stop-color="#5c5c5c"/><stop offset="1" stop-color="#9b9b9b"/></linearGradient><linearGradient x1="910.67452" y1="604.81843" x2="915.12122" y2="602.04191" gradientUnits="userSpaceOnUse" id="color-39"><stop offset="0" stop-color="#5c5c5c"/><stop offset="1" stop-color="#9b9b9b"/></linearGradient><linearGradient x1="884.29664" y1="643.56723" x2="889.18349" y2="637.88728" gradientUnits="userSpaceOnUse" id="color-40"><stop offset="0" stop-color="#5c5c5c"/><stop offset="1" stop-color="#9b9b9b"/></linearGradient><linearGradient x1="880.0038" y1="656.28088" x2="885.04391" y2="657.7231" gradientUnits="userSpaceOnUse" id="color-41"><stop offset="0" stop-color="#5c5c5c"/><stop offset="1" stop-color="#9b9b9b"/></linearGradient><linearGradient x1="881.81786" y1="623.69255" x2="886.99544" y2="622.87101" gradientUnits="userSpaceOnUse" id="color-42"><stop offset="0" stop-color="#5c5c5c"/><stop offset="1" stop-color="#9b9b9b"/></linearGradient><linearGradient x1="946.94183" y1="593.53149" x2="946.58658" y2="586.0471" gradientUnits="userSpaceOnUse" id="color-43"><stop offset="0" stop-color="#5c5c5c"/><stop offset="1" stop-color="#9b9b9b"/></linearGradient><linearGradient x1="952.5638" y1="605.71599" x2="957.21552" y2="603.29879" gradientUnits="userSpaceOnUse" id="color-44"><stop offset="0" stop-color="#5c5c5c"/><stop offset="1" stop-color="#9b9b9b"/></linearGradient><linearGradient x1="921.23747" y1="572.13131" x2="917.75429" y2="565.49723" gradientUnits="userSpaceOnUse" id="color-45"><stop offset="0" stop-color="#5c5c5c"/><stop offset="1" stop-color="#9b9b9b"/></linearGradient><linearGradient x1="931.47948" y1="580.8012" x2="934.67503" y2="576.64546" gradientUnits="userSpaceOnUse" id="color-46"><stop offset="0" stop-color="#5c5c5c"/><stop offset="1" stop-color="#9b9b9b"/></linearGradient><linearGradient x1="902.34193" y1="566.80956" x2="903.44529" y2="561.68466" gradientUnits="userSpaceOnUse" id="color-47"><stop offset="0" stop-color="#5c5c5c"/><stop offset="1" stop-color="#9b9b9b"/></linearGradient><linearGradient x1="888.2663" y1="581.52393" x2="891.0915" y2="577.10802" gradientUnits="userSpaceOnUse" id="color-48"><stop offset="0" stop-color="#5c5c5c"/><stop offset="1" stop-color="#9b9b9b"/></linearGradient><linearGradient x1="870.27428" y1="593.5013" x2="874.59856" y2="590.53773" gradientUnits="userSpaceOnUse" id="color-49"><stop offset="0" stop-color="#5c5c5c"/><stop offset="1" stop-color="#9b9b9b"/></linearGradient><linearGradient x1="895.01257" y1="510.31714" x2="888.19535" y2="504.70616" gradientUnits="userSpaceOnUse" id="color-50"><stop offset="0" stop-color="#5c5c5c"/><stop offset="1" stop-color="#9b9b9b"/></linearGradient><linearGradient x1="910.10061" y1="515.04725" x2="911.66993" y2="509.07258" gradientUnits="userSpaceOnUse" id="color-51"><stop offset="0" stop-color="#5c5c5c"/><stop offset="1" stop-color="#9b9b9b"/></linearGradient><linearGradient x1="854.69753" y1="515.93513" x2="847.88029" y2="510.32408" gradientUnits="userSpaceOnUse" id="color-52"><stop offset="0" stop-color="#5c5c5c"/><stop offset="1" stop-color="#9b9b9b"/></linearGradient><linearGradient x1="872.05864" y1="513.18126" x2="870.91247" y2="507.11109" gradientUnits="userSpaceOnUse" id="color-53"><stop offset="0" stop-color="#5c5c5c"/><stop offset="1" stop-color="#9b9b9b"/></linearGradient><linearGradient x1="738.90068" y1="511.92524" x2="743.92973" y2="497.34723" gradientUnits="userSpaceOnUse" id="color-54"><stop offset="0" stop-color="#5c5c5c"/><stop offset="1" stop-color="#9b9b9b"/></linearGradient><linearGradient x1="457.05919" y1="481.86081" x2="466.73684" y2="493.88774" gradientUnits="userSpaceOnUse" id="color-55"><stop offset="0" stop-color="#5c5c5c"/><stop offset="1" stop-color="#9b9b9b"/></linearGradient><linearGradient x1="388.65224" y1="543.41961" x2="412.13329" y2="524.52522" gradientUnits="userSpaceOnUse" id="color-56"><stop offset="0" stop-color="#5c5c5c"/><stop offset="1" stop-color="#9b9b9b"/></linearGradient><linearGradient x1="513.55428" y1="447.71113" x2="538.73145" y2="427.45194" gradientUnits="userSpaceOnUse" id="color-57"><stop offset="0" stop-color="#5c5c5c"/><stop offset="1" stop-color="#9b9b9b"/></linearGradient><linearGradient x1="510.30579" y1="501.10422" x2="525.72606" y2="500.38599" gradientUnits="userSpaceOnUse" id="color-58"><stop offset="0" stop-color="#5c5c5c"/><stop offset="1" stop-color="#9b9b9b"/></linearGradient><linearGradient x1="473.40333" y1="532.6854" x2="469.40238" y2="547.59496" gradientUnits="userSpaceOnUse" id="color-59"><stop offset="0" stop-color="#5c5c5c"/><stop offset="1" stop-color="#9b9b9b"/></linearGradient><linearGradient x1="550.12809" y1="604.55788" x2="564.4458" y2="593.03692" gradientUnits="userSpaceOnUse" id="color-60"><stop offset="0" stop-color="#5c5c5c"/><stop offset="1" stop-color="#9b9b9b"/></linearGradient><linearGradient x1="353.99758" y1="480.95434" x2="482.85703" y2="377.26561" gradientUnits="userSpaceOnUse" id="color-61"><stop offset="0" stop-color="#6c6c6c"/><stop offset="1" stop-color="#c4c4c4"/></linearGradient><linearGradient x1="379.88126" y1="428.45379" x2="430.56597" y2="387.66956" gradientUnits="userSpaceOnUse" id="color-62"><stop offset="0" stop-color="#6e6e6e"/><stop offset="1" stop-color="#c0c0c0"/></linearGradient><linearGradient x1="339.27167" y1="327.04667" x2="362.42887" y2="355.82533" gradientUnits="userSpaceOnUse" id="color-63"><stop offset="0" stop-color="#a6a6a6"/><stop offset="1" stop-color="#707070"/></linearGradient><linearGradient x1="353.74259" y1="345.4701" x2="398.32878" y2="400.87972" gradientUnits="userSpaceOnUse" id="color-64"><stop offset="0" stop-color="#a6a6a6"/><stop offset="1" stop-color="#707070"/></linearGradient><linearGradient x1="306.48648" y1="359.69863" x2="377.55484" y2="413.79432" gradientUnits="userSpaceOnUse" id="color-65"><stop offset="0" stop-color="#a6a6a6"/><stop offset="1" stop-color="#707070"/></linearGradient><linearGradient x1="379.05162" y1="304.84622" x2="416.68793" y2="385.84357" gradientUnits="userSpaceOnUse" id="color-66"><stop offset="0" stop-color="#a6a6a6"/><stop offset="1" stop-color="#707070"/></linearGradient><linearGradient x1="388.17465" y1="387.82097" x2="400.96292" y2="403.71364" gradientUnits="userSpaceOnUse" id="color-67"><stop offset="0" stop-color="#a6a6a6"/><stop offset="1" stop-color="#707070"/></linearGradient><linearGradient x1="398.72136" y1="402.68676" x2="411.1818" y2="418.17201" gradientUnits="userSpaceOnUse" id="color-68"><stop offset="0" stop-color="#707070"/><stop offset="1" stop-color="#a6a6a6"/></linearGradient></defs><g transform="translate(-251.4951,-254.74716)"><g data-paper-data="{&quot;isPaintingLayer&quot;:true}" fill-rule="nonzero" stroke-linejoin="miter" stroke-miterlimit="10" stroke-dasharray="" stroke-dashoffset="0" style="mix-blend-mode: normal"><g><g data-paper-data="{&quot;index&quot;:null}" stroke-linecap="butt"><path d="M408.01298,699.77048c-8.46957,-3.76636 -12.28222,-13.68551 -8.51589,-22.15504c3.76634,-8.46953 13.68551,-12.28222 22.15504,-8.51589c8.46953,3.76634 12.28221,13.68554 8.51587,22.15508c-3.76635,8.4695 -13.68547,12.28222 -22.15506,8.51584z" fill="url(#color-1)" stroke="none" stroke-width="0"/><g><path d="M394.5343,677.54499c0,0 -9.11632,-45.60859 -11.32947,-68.19927c-2.15374,-21.98382 0.52318,-65.82802 0.52318,-65.82802l40.23532,-4.44777c0,0 10.95413,40.64562 13.0717,62.26049c2.24363,22.9017 1.18329,71.3856 1.18329,71.3856z" fill="#696969" stroke="#000000" stroke-width="2"/><path d="M409.08116,675.30916l-13.007,-132.76866l15.32777,-1.6944l13.00701,132.76857z" fill="url(#color-2)" stroke="none" stroke-width="0"/><path d="M428.50974,675.16782c-1.66381,1.41297 -2.66804,-1.6002 -2.66804,-1.6002l-1.39758,-4.29913c-3.07025,-4.49963 -6.62483,-7.0052 -9.92161,-10.90228c-2.19062,-2.58946 -3.86514,-6.12974 -5.95334,-8.87643c-2.28425,-3.00461 -4.96961,-4.76781 -6.65802,-9.12177c-4.25299,-10.96712 -3.23274,-26.89357 1.81928,-34.14916c2.68902,-4.29583 4.81857,-9.50225 7.57989,-13.61211c0.46511,-0.69218 2.74668,-3.40639 3.01637,-5.23355c0.43274,-2.93132 -1.86777,-9.53524 -2.57247,-11.55253c-3.95389,-11.31888 -11.27468,-18.43357 -15.52347,-29.59875c0,0 -1.09606,-2.92901 0.50874,-4.50904c1.60482,-1.58 2.70088,1.349 2.70088,1.349c4.14969,11.33958 11.57839,18.21423 15.5688,29.72247c1.46363,4.22108 3.83431,11.67575 3.11226,16.69896c-0.73021,5.08006 -3.65009,7.07655 -5.50989,10.51733c-2.0743,3.83763 -3.9037,7.83107 -6.15161,11.41881c-3.75192,5.18116 -4.58383,17.55337 -1.39911,25.63252c1.36281,3.45721 3.8187,4.88177 5.64551,7.2905c2.03907,2.6886 3.68029,6.18807 5.81647,8.70541c3.69847,4.35835 7.44431,7.12918 10.83088,12.35128l1.81572,5.34254c0,0 1.00422,3.01316 -0.65961,4.42616z" fill="#000000" stroke="none" stroke-width="0.5"/><path d="M394.5343,677.54499c0,0 -9.11632,-45.60859 -11.32947,-68.19927c-2.15374,-21.98382 0.52318,-65.82802 0.52318,-65.82802l40.23532,-4.44777c0,0 10.95413,40.64562 13.0717,62.26049c2.24363,22.9017 1.18329,71.3856 1.18329,71.3856z" fill="#ff0000" stroke="#000000" stroke-width="2"/></g><path d="M472.12321,934.93162c-1.94927,-0.69395 -2.96694,-2.83674 -2.273,-4.78596c0.69394,-1.94922 2.83672,-2.9669 4.78595,-2.27296c1.94925,0.69392 2.96693,2.83675 2.27298,4.78597c-0.69395,1.94927 -2.83674,2.96692 -4.78596,2.27297z" data-paper-data="{&quot;index&quot;:null}" fill="url(#color-3)" stroke="none" stroke-width="0"/><path d="M495.3164,917.08801c-2.06552,0.12156 -3.83856,-1.4543 -3.96016,-3.51984c-0.12159,-2.0655 1.45432,-3.83849 3.51982,-3.96008c2.0655,-0.12159 3.83855,1.45431 3.96015,3.51985c0.12159,2.0655 -1.45433,3.83853 -3.51983,3.96012z" data-paper-data="{&quot;index&quot;:null}" fill="url(#color-4)" stroke="none" stroke-width="0"/><path d="M419.97524,818.38414c6.24733,-6.84759 16.86286,-7.33419 23.71046,-1.08684c6.84759,6.24733 7.3342,16.86289 1.08687,23.71044c-6.24733,6.84759 -16.86283,7.33422 -23.71046,1.08684c-6.84759,-6.24733 -7.33417,-16.86291 -1.08684,-23.71046z" data-paper-data="{&quot;index&quot;:null}" fill="url(#color-5)" stroke="none" stroke-width="0"/><path d="M416.29712,885.901c-0.68525,-2.33987 0.65604,-4.7922 2.99596,-5.47745c2.33994,-0.68522 4.79223,0.6561 5.47748,2.99597c0.68525,2.33987 -0.65603,4.79222 -2.99595,5.47746c-2.33984,0.68526 -4.7922,-0.65611 -5.47745,-2.99598z" data-paper-data="{&quot;index&quot;:null}" fill="url(#color-6)" stroke="none" stroke-width="0"/><path d="M433.84151,906.71964c-1.79227,-1.65288 -1.90531,-4.44587 -0.25235,-6.23815c1.65293,-1.79226 4.44584,-1.90526 6.23813,-0.25235c1.79227,1.65288 1.90533,4.44584 0.25238,6.23813c-1.6529,1.79224 -4.44585,1.90527 -6.23814,0.25236z" data-paper-data="{&quot;index&quot;:null}" fill="url(#color-7)" stroke="none" stroke-width="0"/><path d="M456.64433,904.54722c-1.79227,-1.65288 -1.90528,-4.44591 -0.25235,-6.23817c1.65291,-1.79229 4.44587,-1.90531 6.23815,-0.2524c1.79226,1.65293 1.90528,4.44591 0.25235,6.23817c-1.65288,1.79227 -4.44584,1.90526 -6.23814,0.25236z" data-paper-data="{&quot;index&quot;:null}" fill="url(#color-8)" stroke="none" stroke-width="0"/><path d="M475.97373,892.55439c-1.79226,-1.65293 -1.90527,-4.44587 -0.25234,-6.23814c1.65291,-1.79229 4.4458,-1.90531 6.2381,-0.25242c1.79227,1.65288 1.90528,4.44586 0.25235,6.23817c-1.65288,1.79227 -4.44585,1.90527 -6.23814,0.25236z" data-paper-data="{&quot;index&quot;:null}" fill="url(#color-9)" stroke="none" stroke-width="0"/><path d="M498.34178,959.17057c-2.05994,0.19428 -3.88737,-1.31822 -4.08162,-3.37815c-0.19427,-2.05993 1.31819,-3.88737 3.37813,-4.08165c2.05997,-0.1943 3.88739,1.31819 4.08164,3.37812c0.19427,2.05993 -1.31818,3.88738 -3.37814,4.08164z" data-paper-data="{&quot;index&quot;:null}" fill="url(#color-10)" stroke="none" stroke-width="0"/><g data-paper-data="{&quot;index&quot;:null}" stroke-width="1"><path d="M501.95306,949.51957c0,0 10.77771,1.70172 15.62442,3.40393c4.57439,1.60657 12.5559,6.91009 12.5559,6.91009l-4.56005,12.98366c0,0 -9.89919,-0.97644 -14.55165,-2.61038c-4.78093,-1.67915 -14.01953,-6.59072 -14.01953,-6.59072z" fill="#696969" stroke="#000000"/><path d="M500.52635,954.00227l28.09809,9.86839l-1.73718,4.94613l-28.09806,-9.86841z" fill="url(#color-11)" stroke="none"/><path d="M500.66413,953.53516c0,0 -0.57462,-0.45604 -0.11521,-0.94101c0.45943,-0.48495 1.03402,-0.0289 1.03402,-0.0289l1.01558,0.82022c0.84935,1.32928 1.12664,2.67263 1.75793,4.06754c0.36458,0.80567 0.98969,1.49084 1.40066,2.27194c0.36827,0.69982 0.46362,1.56401 1.10413,2.15623c1.49688,1.38393 4.29715,1.63445 5.77263,0.62509c0.99058,-0.58426 2.03329,-1.01443 3.06346,-1.53134c0.92366,-0.46342 1.62334,-1.33493 2.80772,-1.3593c1.17108,-0.02415 2.60279,1.06697 3.40266,1.72448c2.18078,1.79262 3.03461,4.51505 5.16406,6.35264c0,0 0.54787,0.48259 0.05698,0.94123c-0.49099,0.45863 -1.03888,-0.02399 -1.03888,-0.02399c-2.0822,-1.8627 -2.99857,-4.55986 -5.14085,-6.33254c-0.38177,-0.31593 -1.63232,-1.34809 -2.31671,-1.33034c-0.42664,0.01111 -1.22766,0.64331 -1.42156,0.76631c-1.15122,0.73028 -2.48797,1.20742 -3.67381,1.90616c-2.04824,1.3473 -5.64837,1.00826 -7.68658,-0.84746c-0.80913,-0.73672 -0.95879,-1.69024 -1.41756,-2.56502c-0.41949,-0.79969 -1.05049,-1.49745 -1.42619,-2.32406c-0.56541,-1.24388 -0.80117,-2.51344 -1.51949,-3.70868l-0.82297,-0.63918z" fill="#000000" stroke="none"/><path d="M501.95306,949.51957c0,0 10.77771,1.70172 15.62442,3.40393c4.57439,1.60657 12.5559,6.91009 12.5559,6.91009l-4.56005,12.98366c0,0 -9.89919,-0.97644 -14.55165,-2.61038c-4.78093,-1.67915 -14.01953,-6.59072 -14.01953,-6.59072z" fill="#ff0000" stroke="#000000"/></g><g data-paper-data="{&quot;index&quot;:null}" stroke-width="1"><path d="M479.47265,927.70891c0,0 9.05047,6.09458 12.72475,9.68457c3.46786,3.38827 8.46254,11.56671 8.46254,11.56671l-9.61716,9.84279c0,0 -8.56052,-5.06603 -12.08748,-8.51221c-3.62442,-3.54129 -9.92405,-11.89539 -9.92405,-11.89539z" fill="#696969" stroke="#000000"/><path d="M476.2862,931.16962l21.30083,20.81251l-3.6637,3.74962l-21.30085,-20.8125z" fill="url(#color-12)" stroke="none"/><path d="M476.60839,930.80458c0,0 -0.3282,-0.65603 0.29304,-0.90163c0.62123,-0.2456 0.94946,0.41052 0.94946,0.41052l0.57425,1.17239c0.20846,1.56368 -0.10763,2.89843 -0.12459,4.42946c-0.00975,0.88425 0.26741,1.76936 0.31003,2.65093c0.0382,0.78987 -0.24036,1.61344 0.09012,2.42078c0.77226,1.88662 3.20469,3.2964 4.9684,3.00474c1.14466,-0.1112 2.27147,-0.06071 3.42358,-0.09412c1.03297,-0.02997 2.03525,-0.52441 3.11913,-0.04626c1.07171,0.47275 1.90863,2.06642 2.35593,3.00027c1.21958,2.54596 0.84364,5.37426 1.99772,7.93932c0,0 0.2928,0.66883 -0.34592,0.87721c-0.63874,0.20835 -0.93152,-0.46053 -0.93152,-0.46053c-1.10061,-2.56783 -0.79202,-5.39965 -1.98517,-7.91129c-0.21258,-0.44761 -0.91015,-1.91134 -1.53802,-2.18434c-0.39137,-0.17012 -1.38449,0.06457 -1.61221,0.09416c-1.35202,0.1757 -2.76511,0.04357 -4.13514,0.1761c-2.42564,0.35613 -5.54577,-1.47176 -6.60944,-4.01466c-0.42219,-1.0095 -0.15509,-1.937 -0.2015,-2.92376c-0.04248,-0.902 -0.3198,-1.80106 -0.3112,-2.70892c0.01286,-1.36638 0.33534,-2.61665 0.18907,-4.00341l-0.47596,-0.92695z" fill="#000000" stroke="none"/><path d="M479.47265,927.70891c0,0 9.05047,6.09458 12.72475,9.68457c3.46786,3.38827 8.46254,11.56671 8.46254,11.56671l-9.61716,9.84279c0,0 -8.56052,-5.06603 -12.08748,-8.51221c-3.62442,-3.54129 -9.92405,-11.89539 -9.92405,-11.89539z" fill="#ff0000" stroke="#000000"/></g><path d="M528.91424,929.17626c-1.82092,0.98261 -4.09364,0.303 -5.07621,-1.51787c-0.98254,-1.82089 -0.30298,-4.09362 1.51793,-5.07619c1.82089,-0.9826 4.09358,-0.30297 5.07615,1.5179c0.98255,1.82093 0.30302,4.09365 -1.51789,5.07622z" data-paper-data="{&quot;index&quot;:null}" fill="url(#color-13)" stroke="none" stroke-width="0"/><g data-paper-data="{&quot;index&quot;:null}" stroke-width="1"><path d="M528.4737,918.88126c0,0 10.58749,-2.63828 15.71422,-2.96205c4.83874,-0.30552 14.2569,1.46351 14.2569,1.46351l0.86713,13.73382c0,0 -9.49555,2.96324 -14.41681,3.274c-5.05709,0.31936 -15.47989,-0.59838 -15.47989,-0.59838z" fill="#696969" stroke="#000000"/><path d="M528.90906,923.56533l29.72145,-1.87667l0.33035,5.2319l-29.72141,1.87662z" fill="url(#color-14)" stroke="none"/><path d="M528.85382,923.08144c0,0 -0.70703,-0.19575 -0.47323,-0.82149c0.23377,-0.62577 0.94073,-0.43004 0.94073,-0.43004l1.25519,0.35889c1.30067,0.89256 2.08005,2.02122 3.20556,3.05931c0.65004,0.59954 1.49297,0.98654 2.17615,1.5454c0.61209,0.50069 1.0371,1.25925 1.85793,1.5546c1.91815,0.69022 4.5942,-0.17169 5.55892,-1.67671c0.68407,-0.92437 1.47637,-1.72727 2.22323,-2.60518c0.66965,-0.78712 0.97384,-1.86244 2.05486,-2.34699c1.06889,-0.4791 2.81281,-0.03312 3.80582,0.26021c2.70737,0.79967 4.55572,2.97321 7.23335,3.83433c0,0 0.6927,0.23052 0.41966,0.84432c-0.27312,0.61374 -0.96587,0.38321 -0.96587,0.38321c-2.64394,-0.90264 -4.54002,-3.0286 -7.20417,-3.82493c-0.4748,-0.14195 -2.02886,-0.60436 -2.6521,-0.32095c-0.38848,0.17666 -0.87941,1.07131 -1.00995,1.26021c-0.77511,1.12159 -1.8197,2.08249 -2.6389,3.18853c-1.36024,2.03965 -4.80734,3.13212 -7.40802,2.21874c-1.03246,-0.36261 -1.54224,-1.18226 -2.30601,-1.80869c-0.69824,-0.57263 -1.55151,-0.96889 -2.21991,-1.58335c-1.00596,-0.92472 -1.71835,-2.00166 -2.84612,-2.82191l-1.00713,-0.26748z" fill="#000000" stroke="none"/><path d="M528.4737,918.88126c0,0 10.58749,-2.63828 15.71422,-2.96205c4.83874,-0.30552 14.2569,1.46351 14.2569,1.46351l0.86713,13.73382c0,0 -9.49555,2.96324 -14.41681,3.274c-5.05709,0.31936 -15.47989,-0.59838 -15.47989,-0.59838z" fill="#ff0000" stroke="#000000"/></g><g data-paper-data="{&quot;index&quot;:null}" stroke-width="1"><path d="M499.26531,907.57023c0,0 10.71106,2.08032 15.49479,3.95226c4.51498,1.76671 12.30475,7.3482 12.30475,7.3482l-5.01464,12.81497c0,0 -9.85861,-1.32451 -14.45065,-3.12143c-4.71879,-1.84646 -13.77865,-7.08051 -13.77865,-7.08051z" fill="#696969" stroke="#000000"/><path d="M497.6816,911.99992l27.73295,10.85214l-1.91033,4.88193l-27.73291,-10.85214z" fill="url(#color-15)" stroke="none"/><path d="M497.8358,911.53827c0,0 -0.55821,-0.47606 -0.08203,-0.94456c0.47618,-0.4685 1.03437,0.0075 1.03437,0.0075l0.98612,0.85541c0.80203,1.35842 1.03185,2.7107 1.61356,4.127c0.33601,0.81803 0.93658,1.52476 1.31978,2.31989c0.34335,0.71235 0.4082,1.57934 1.0275,2.19375c1.44714,1.43583 4.23686,1.78482 5.74698,0.82812c1.01056,-0.54902 2.06776,-0.94216 3.11552,-1.4224c0.93938,-0.43064 1.66942,-1.27691 2.85383,-1.25959c1.17121,0.01722 2.56355,1.15799 3.33979,1.84332c2.11622,1.86831 2.87365,4.61911 4.93707,6.5306c0,0 0.53059,0.50158 0.02378,0.94258c-0.50686,0.44102 -1.03736,-0.0606 -1.03736,-0.0606c-2.0153,-1.93489 -2.83604,-4.66278 -4.91454,-6.50976c-0.37039,-0.32915 -1.58371,-1.40471 -2.26834,-1.41106c-0.42672,-0.00395 -1.24959,0.59968 -1.44774,0.71578c-1.17632,0.68931 -2.52903,1.11898 -3.73873,1.77554c-2.09446,1.27426 -5.68038,0.80861 -7.65195,-1.11773c-0.78268,-0.76474 -0.8986,-1.72303 -1.32633,-2.61344c-0.391,-0.81394 -0.99707,-1.53352 -1.34342,-2.37281c-0.52118,-1.26313 -0.71216,-2.54013 -1.38792,-3.75993l-0.79994,-0.66778z" fill="#000000" stroke="none"/><path d="M499.26531,907.57023c0,0 10.71106,2.08032 15.49479,3.95226c4.51498,1.76671 12.30475,7.3482 12.30475,7.3482l-5.01464,12.81497c0,0 -9.85861,-1.32451 -14.45065,-3.12143c-4.71879,-1.84646 -13.77865,-7.08051 -13.77865,-7.08051z" fill="#ff0000" stroke="#000000"/></g><path d="M460.9159,972.63971c0.53809,-1.99789 2.59385,-3.18131 4.59181,-2.64324c1.99792,0.53811 3.1813,2.59389 2.64323,4.5918c-0.53809,1.99789 -2.59389,3.18134 -4.59181,2.64324c-1.99789,-0.53804 -3.18132,-2.59391 -2.64323,-4.5918z" data-paper-data="{&quot;index&quot;:null}" fill="url(#color-16)" stroke="none" stroke-width="0"/><g data-paper-data="{&quot;index&quot;:null}" stroke-width="1"><path d="M470.31621,969.45175c0,0 9.50285,5.36186 13.44877,8.65093c3.72417,3.10429 9.3482,10.86335 9.3482,10.86335l-8.81098,10.57052c0,0 -8.93335,-4.37532 -12.7211,-7.53257c-3.89235,-3.2444 -10.83113,-11.0757 -10.83113,-11.0757z" fill="#696969" stroke="#000000"/><path d="M467.41241,973.15298l22.87572,19.06804l-3.35653,4.02682l-22.8757,-19.06799z" fill="url(#color-17)" stroke="none"/><path d="M467.70482,972.7638c0,0 -0.3789,-0.62822 0.22108,-0.92199c0.59995,-0.29378 0.97883,0.33439 0.97883,0.33439l0.66491,1.12348c0.3311,1.54235 0.12124,2.89786 0.22508,4.42545c0.06,0.8823 0.40617,1.74276 0.51815,2.61828c0.10039,0.78436 -0.11231,1.62739 0.28076,2.40616c0.91865,1.81987 3.45468,3.03345 5.18989,2.60357c1.13226,-0.20114 2.25958,-0.23955 3.40542,-0.36379c1.02739,-0.1113 1.98763,-0.68325 3.10577,-0.29207c1.10562,0.38674 2.06561,1.90956 2.58516,2.80519c1.41652,2.44181 1.26485,5.29097 2.61755,7.75701c0,0 0.34465,0.64362 -0.27564,0.90169c-0.62031,0.25805 -0.96493,-0.38565 -0.96493,-0.38565c-1.29967,-2.47305 -1.21532,-5.32034 -2.60282,-7.73009c-0.24727,-0.4295 -1.05801,-1.83364 -1.70551,-2.05625c-0.40358,-0.13874 -1.37511,0.17358 -1.5998,0.22104c-1.33392,0.28172 -2.75306,0.2614 -4.10834,0.50156c-2.38998,0.54625 -5.64448,-1.02983 -6.90542,-3.48097c-0.50055,-0.97307 -0.3074,-1.91887 -0.43147,-2.89881c-0.11341,-0.8959 -0.46083,-1.77022 -0.52384,-2.67594c-0.09493,-1.36311 0.12801,-2.63493 -0.1272,-4.00588l-0.54767,-0.88656z" fill="#000000" stroke="none"/><path d="M470.31621,969.45175c0,0 9.50285,5.36186 13.44877,8.65093c3.72417,3.10429 9.3482,10.86335 9.3482,10.86335l-8.81098,10.57052c0,0 -8.93335,-4.37532 -12.7211,-7.53257c-3.89235,-3.2444 -10.83113,-11.0757 -10.83113,-11.0757z" fill="#ff0000" stroke="#000000"/></g><path d="M447.01129,940.07807c1.33159,-1.58364 3.69494,-1.78811 5.27858,-0.45652c1.58364,1.33159 1.78809,3.69491 0.45648,5.27859c-1.33159,1.58364 -3.6949,1.78808 -5.27857,0.45647c-1.58364,-1.33159 -1.78808,-3.6949 -0.45649,-5.27854z" data-paper-data="{&quot;index&quot;:null}" fill="url(#color-18)" stroke="none" stroke-width="0"/><g data-paper-data="{&quot;index&quot;:null}" stroke-width="1"><path d="M456.87839,941.1588c0,0 6.34902,8.87384 8.53652,13.52177c2.06466,4.38676 3.88528,13.79514 3.88528,13.79514l-12.45111,5.85989c0,0 -6.24948,-7.73886 -8.3493,-12.20053c-2.15778,-4.58479 -5.13966,-14.61403 -5.13966,-14.61403z" fill="#696969" stroke="#000000"/><path d="M452.68311,943.28721l12.68158,26.94558l-4.74331,2.2324l-12.68151,-26.9456z" fill="url(#color-19)" stroke="none"/><path d="M453.11275,943.05771c0,0 -0.07817,-0.72944 0.58971,-0.74236c0.66788,-0.01289 0.74604,0.71651 0.74604,0.71651l0.12818,1.29917c-0.3513,1.53787 -1.114,2.67793 -1.66503,4.10643c-0.31835,0.82507 -0.36799,1.75125 -0.63626,2.59211c-0.24033,0.75339 -0.78922,1.42764 -0.76181,2.29953c0.06399,2.03763 1.85015,4.20872 3.60452,4.55201c1.11128,0.29587 2.14936,0.73714 3.24045,1.10858c0.97824,0.33308 2.09023,0.22019 2.9385,1.04702c0.83879,0.8176 1.06584,2.60322 1.15847,3.63453c0.25269,2.81168 -1.08822,5.33014 -0.90362,8.13677c0,0 0.04048,0.72899 -0.6307,0.70094c-0.67127,-0.0281 -0.71179,-0.75708 -0.71179,-0.75708c-0.13354,-2.79061 1.14558,-5.33588 0.90568,-8.10612c-0.04275,-0.49371 -0.18463,-2.10892 -0.67749,-2.58415c-0.30719,-0.29617 -1.31969,-0.42345 -1.5434,-0.47538c-1.32811,-0.30799 -2.6059,-0.92571 -3.93584,-1.28046c-2.39709,-0.51433 -4.68134,-3.31752 -4.78898,-6.07185c-0.04274,-1.0935 0.53184,-1.86911 0.83326,-2.80978c0.27557,-0.85987 0.32999,-1.7992 0.65539,-2.6468c0.48973,-1.27563 1.22889,-2.33434 1.57662,-3.68474l-0.12195,-1.03482z" fill="#000000" stroke="none"/><path d="M456.87839,941.1588c0,0 6.34902,8.87384 8.53652,13.52177c2.06466,4.38676 3.88528,13.79514 3.88528,13.79514l-12.45111,5.85989c0,0 -6.24948,-7.73886 -8.3493,-12.20053c-2.15778,-4.58479 -5.13966,-14.61403 -5.13966,-14.61403z" fill="#ff0000" stroke="#000000"/></g><g data-paper-data="{&quot;index&quot;:null}" stroke-width="1"><path d="M456.34708,910.29079c0,0 1.92734,10.7397 1.90886,15.87662c-0.01745,4.84831 -2.40983,14.12774 -2.40983,14.12774l-13.76109,-0.04938c0,0 -2.32432,-9.67192 -2.30656,-14.60293c0.0182,-5.06716 1.62806,-15.40566 1.62806,-15.40566z" fill="#696969" stroke="#000000"/><path d="M451.6444,910.41325l-0.10697,29.78042l-5.24228,-0.01881l0.10701,-29.7804z" fill="url(#color-20)" stroke="none"/><path d="M452.1309,910.39037c0,0 0.24241,-0.6924 0.85123,-0.41746c0.60882,0.27493 0.36639,0.96738 0.36639,0.96738l-0.44166,1.22845c-0.97723,1.23841 -2.1553,1.94087 -3.26602,2.99476c-0.64151,0.60864 -1.08378,1.42392 -1.6869,2.06837c-0.54037,0.5774 -1.32545,0.95094 -1.67478,1.75025c-0.81648,1.86794 -0.13471,4.59544 1.30266,5.65828c0.87685,0.74416 1.62519,1.58812 2.45137,2.39178c0.7407,0.72056 1.79345,1.0957 2.20496,2.20659c0.40683,1.09841 -0.15432,2.80878 -0.51309,3.78004c-0.97821,2.64806 -3.26994,4.34758 -4.30752,6.96193c0,0 -0.27622,0.67588 -0.87046,0.36249c-0.59423,-0.31336 -0.31804,-0.98922 -0.31804,-0.98922c1.07679,-2.578 3.32425,-4.32822 4.29621,-6.93343c0.17323,-0.46428 0.73811,-1.98419 0.49683,-2.62486c-0.15038,-0.39936 -1.01036,-0.94884 -1.19015,-1.09169c-1.06747,-0.84811 -1.95663,-1.95438 -3.00565,-2.84545c-1.94451,-1.49313 -2.80502,-5.0053 -1.72045,-7.53936c0.43061,-1.006 1.28233,-1.46008 1.95823,-2.18041c0.61785,-0.65848 1.07009,-1.48358 1.72765,-2.10954c0.9897,-0.94212 2.11168,-1.58122 3.0052,-2.65182l0.33388,-0.9871z" fill="#000000" stroke="none"/><path d="M456.34708,910.29079c0,0 1.92734,10.7397 1.90886,15.87662c-0.01745,4.84831 -2.40983,14.12774 -2.40983,14.12774l-13.76109,-0.04938c0,0 -2.32432,-9.67192 -2.30656,-14.60293c0.0182,-5.06716 1.62806,-15.40566 1.62806,-15.40566z" fill="#ff0000" stroke="#000000"/></g><g data-paper-data="{&quot;index&quot;:null}" stroke-width="1"><path d="M468.18441,898.97411c0,0 5.55999,9.38843 7.33844,14.20768c1.67852,4.54856 2.68087,14.07885 2.68087,14.07885l-12.91015,4.76414c0,0 -5.55866,-8.24912 -7.26579,-12.87525c-1.75431,-4.75381 -3.86004,-15.00286 -3.86004,-15.00286z" fill="#696969" stroke="#000000"/><path d="M463.82126,900.73272l10.31006,27.93904l-4.91815,1.81486l-10.31014,-27.93896z" fill="url(#color-21)" stroke="none"/><path d="M464.26896,900.54139c0,0 -0.01493,-0.73343 0.65157,-0.68869c0.66652,0.04477 0.68141,0.77824 0.68141,0.77824l0.01564,1.30533c-0.48267,1.50182 -1.34086,2.57184 -2.01313,3.94752c-0.38827,0.79455 -0.51766,1.71293 -0.85744,2.52752c-0.30442,0.72985 -0.90943,1.35426 -0.95731,2.22529c-0.11196,2.03551 1.48029,4.35261 3.19853,4.84593c1.08168,0.39068 2.07776,0.91978 3.13276,1.38396c0.94585,0.41616 2.06339,0.39966 2.83725,1.29658c0.76521,0.88686 0.83729,2.68548 0.84064,3.72091c0.00915,2.82292 -1.54388,5.21632 -1.6021,8.02847c0,0 -0.02256,0.72979 -0.68884,0.64389c-0.66624,-0.08586 -0.64376,-0.81568 -0.64376,-0.81568c0.10764,-2.7917 1.60144,-5.21717 1.60143,-7.99775c0.00002,-0.49554 -0.00204,-2.11704 -0.45203,-2.63297c-0.28057,-0.32161 -1.27831,-0.5357 -1.49669,-0.60675c-1.29658,-0.42146 -2.51636,-1.1471 -3.8107,-1.61526c-2.34384,-0.71913 -4.37779,-3.70891 -4.24749,-6.46227c0.05176,-1.09307 0.69106,-1.81634 1.07252,-2.72749c0.34865,-0.83293 0.48394,-1.76402 0.88123,-2.5804c0.59795,-1.22865 1.42567,-2.21964 1.88858,-3.53504l-0.03216,-1.04154z" fill="#000000" stroke="none"/><path d="M468.18441,898.97411c0,0 5.55999,9.38843 7.33844,14.20768c1.67852,4.54856 2.68087,14.07885 2.68087,14.07885l-12.91015,4.76414c0,0 -5.55866,-8.24912 -7.26579,-12.87525c-1.75431,-4.75381 -3.86004,-15.00286 -3.86004,-15.00286z" fill="#ff0000" stroke="#000000"/></g><g data-paper-data="{&quot;index&quot;:null}" stroke-width="1"><path d="M477.66038,885.51718c0,0 8.78236,6.47498 12.30013,10.21838c3.32015,3.53309 7.96148,11.91704 7.96148,11.91704l-10.02817,9.42368c0,0 -8.33664,-5.42656 -11.71343,-9.01995c-3.47002,-3.69258 -9.4077,-12.30776 -9.4077,-12.30776z" fill="#696969" stroke="#000000"/><path d="M474.32912,888.83885l20.39381,21.70206l-3.82022,3.58992l-20.3938,-21.70204z" fill="url(#color-22)" stroke="none"/><path d="M474.66673,888.48779c0,0 -0.29995,-0.66946 0.33118,-0.88833c0.63109,-0.21888 0.93112,0.45064 0.93112,0.45064l0.52367,1.19583c0.14155,1.57117 -0.23122,2.89114 -0.31341,4.42008c-0.04747,0.88305 0.19175,1.77913 0.1967,2.66178c0.00445,0.79075 -0.30896,1.60168 -0.01324,2.42237c0.69109,1.9179 3.0612,3.43011 4.83575,3.2139c1.14837,-0.06226 2.27198,0.03627 3.42448,0.05202c1.03324,0.01413 2.05577,-0.43709 3.11824,0.0868c1.05057,0.51807 1.81872,2.14599 2.22583,3.09803c1.1099,2.59564 0.61375,5.40532 1.65737,8.0173c0,0 0.26398,0.6807 -0.38301,0.86162c-0.64701,0.18092 -0.91102,-0.49982 -0.91102,-0.49982c-0.9901,-2.61249 -0.561,-5.42857 -1.64591,-7.98878c-0.19334,-0.45629 -0.8279,-1.94846 -1.44348,-2.24792c-0.38378,-0.18669 -1.386,0.00548 -1.61478,0.0253c-1.35828,0.11786 -2.76449,-0.07436 -4.13891,-0.00041c-2.4386,0.25231 -5.47793,-1.70693 -6.4322,-4.29289c-0.37882,-1.02665 -0.07237,-1.94194 -0.07665,-2.92972c-0.00395,-0.90297 -0.24262,-1.81307 -0.19536,-2.71973c0.07118,-1.36453 0.44668,-2.59997 0.35963,-3.99174l-0.43606,-0.94637z" fill="#000000" stroke="none"/><path d="M477.66038,885.51718c0,0 8.78236,6.47498 12.30013,10.21838c3.32015,3.53309 7.96148,11.91704 7.96148,11.91704l-10.02817,9.42368c0,0 -8.33664,-5.42656 -11.71343,-9.01995c-3.47002,-3.69258 -9.4077,-12.30776 -9.4077,-12.30776z" fill="#ff0000" stroke="#000000"/></g><path d="M484.011,871.27027c9.31459,26.33505 -7.47365,37.91497 -27.12711,44.86628c-19.65347,6.95123 -34.72975,6.64154 -44.04425,-19.69349c-9.31451,-26.33503 -0.9332,-53.31887 18.72026,-60.27018c19.65343,-6.95133 43.13664,8.76241 52.45113,35.09737z" data-paper-data="{&quot;index&quot;:null}" fill="#ff0000" stroke="#000000" stroke-width="1"/><path d="M393.95282,898.19621c2.17046,-1.11068 4.83038,-0.25159 5.94109,1.91884c1.11068,2.17046 0.25169,4.83038 -1.91879,5.94107c-2.17041,1.11068 -4.83036,0.25158 -5.94111,-1.91884c-1.11068,-2.17046 -0.25167,-4.83037 1.91882,-5.94107z" data-paper-data="{&quot;index&quot;:null}" fill="url(#color-23)" stroke="none" stroke-width="0"/><g data-paper-data="{&quot;index&quot;:null}" stroke-width="1"><path d="M404.17373,903.88331c0,0 2.83563,12.5407 3.08505,18.58869c0.23535,5.70819 -2.09105,16.75803 -2.09105,16.75803l-16.20182,0.66815c0,0 -3.24668,-11.26277 -3.48608,-17.06837c-0.24601,-5.96591 1.10333,-18.22105 1.10333,-18.22105z" fill="#696969" stroke="#000000"/><path d="M398.6443,904.27567l1.44597,35.06237l-6.17213,0.25454l-1.44595,-35.06238z" fill="url(#color-24)" stroke="none"/><path d="M399.21562,904.22309c0,0 0.24875,-0.82786 0.98003,-0.53637c0.73122,0.29149 0.4824,1.11935 0.4824,1.11935l-0.45508,1.46943c-1.08499,1.5094 -2.43475,2.39855 -3.68661,3.69776c-0.72304,0.75038 -1.20065,1.73336 -1.87659,2.52384c-0.6056,0.70823 -1.51006,1.18943 -1.87916,2.14877c-0.86252,2.24198 0.08402,5.41677 1.83217,6.59205c1.07147,0.8297 1.99694,1.78365 3.01191,2.68611c0.91,0.80915 2.16916,1.19524 2.71216,2.48118c0.53696,1.27154 -0.03334,3.31449 -0.40448,4.47682c-1.0118,3.16888 -3.61981,5.29048 -4.70324,8.42273c0,0 -0.28946,0.81015 -1.00556,0.47265c-0.71601,-0.33755 -0.42654,-1.14774 -0.42654,-1.14774c1.13144,-3.09147 3.68471,-5.27048 4.69138,-8.38856c0.17942,-0.55568 0.7642,-2.37461 0.44638,-3.11614c-0.19812,-0.46221 -1.23946,-1.06355 -1.45865,-1.22222c-1.30134,-0.94204 -2.4064,-2.19734 -3.68834,-3.1909c-2.36787,-1.65498 -3.56619,-5.74407 -2.42324,-8.78433c0.45369,-1.20701 1.43244,-1.78646 2.19008,-2.67013c0.69255,-0.80784 1.18134,-1.80285 1.92245,-2.57451c1.11528,-1.16125 2.4023,-1.97291 3.39759,-3.28033l0.34097,-1.17958z" fill="#000000" stroke="none"/><path d="M404.17373,903.88331c0,0 2.83563,12.5407 3.08505,18.58869c0.23535,5.70819 -2.09105,16.75803 -2.09105,16.75803l-16.20182,0.66815c0,0 -3.24668,-11.26277 -3.48608,-17.06837c-0.24601,-5.96591 1.10333,-18.22105 1.10333,-18.22105z" fill="#ff0000" stroke="#000000"/></g><path d="M408.06686,860.01693c2.17046,-1.11068 4.83037,-0.2516 5.94108,1.91883c1.11068,2.17046 0.25165,4.83039 -1.91881,5.94111c-2.17038,1.11067 -4.83039,0.25157 -5.9411,-1.91885c-1.11068,-2.17046 -0.25168,-4.83036 1.9188,-5.94106z" data-paper-data="{&quot;index&quot;:null}" fill="url(#color-25)" stroke="none" stroke-width="0"/><g data-paper-data="{&quot;index&quot;:null}" stroke-width="1"><path d="M417.71647,870.1193c0,0 -2.81956,12.54436 -5.18937,18.11432c-2.23663,5.257 -9.07932,14.23973 -9.07932,14.23973l-14.92118,-6.34832c0,0 1.9,-11.56638 4.17484,-16.91315c2.33762,-5.49436 8.81486,-15.9851 8.81486,-15.9851z" fill="#696969" stroke="#000000"/><path d="M412.55361,868.10111l-13.73838,32.29109l-5.68429,-2.4184l13.73839,-32.29114z" fill="url(#color-26)" stroke="none"/><path d="M413.09229,868.29874c0,0 0.57993,-0.64106 1.11532,-0.06404c0.53537,0.57705 -0.04457,1.21808 -0.04457,1.21808l-1.04158,1.13199c-1.62766,0.89784 -3.22834,1.12182 -4.9166,1.75817c-0.97513,0.36757 -1.82828,1.05056 -2.77802,1.47453c-0.85088,0.37986 -1.87436,0.42633 -2.61937,1.13457c-1.74113,1.65502 -2.24832,4.92881 -1.17353,6.74051c0.61183,1.20917 1.03834,2.46799 1.56795,3.71865c0.47481,1.12127 1.44642,2.01029 1.38515,3.40484c-0.0606,1.37896 -1.4523,2.9796 -2.28629,3.87022c-2.27354,2.42826 -5.53964,3.22554 -7.86231,5.58997c0,0 -0.60908,0.60756 -1.11105,-0.00455c-0.50192,-0.61214 0.10713,-1.21974 0.10713,-1.21974c2.34849,-2.30695 5.58979,-3.17967 7.83695,-5.56412c0.40052,-0.42491 1.70919,-1.81697 1.74025,-2.62312c0.01938,-0.50251 -0.66321,-1.4925 -0.79309,-1.72987c-0.77123,-1.40929 -1.23073,-3.0174 -1.96239,-4.46491c-1.42866,-2.51086 -0.75656,-6.71853 1.58034,-8.9743c0.92776,-0.8955 2.06049,-0.99902 3.12394,-1.47205c0.97221,-0.43248 1.84063,-1.12166 2.84116,-1.50058c1.50569,-0.57039 3.01641,-0.75122 4.47646,-1.50512l0.81411,-0.91916z" fill="#000000" stroke="none"/><path d="M417.71647,870.1193c0,0 -2.81956,12.54436 -5.18937,18.11432c-2.23663,5.257 -9.07932,14.23973 -9.07932,14.23973l-14.92118,-6.34832c0,0 1.9,-11.56638 4.17484,-16.91315c2.33762,-5.49436 8.81486,-15.9851 8.81486,-15.9851z" fill="#ff0000" stroke="#000000"/></g><g data-paper-data="{&quot;index&quot;:null}"><path d="M410.03279,824.3679c0,0 -9.41065,-45.54872 -11.76966,-68.12466c-2.29563,-21.96943 0.09806,-65.83003 0.09806,-65.83003l40.20578,-4.70751c0,0 11.21641,40.57404 13.47351,62.1748c2.39147,22.88673 1.64431,71.37646 1.64431,71.37646z" fill="#696969" stroke="#000000" stroke-width="2"/><path d="M424.56497,822.03823l-13.86414,-132.68189l15.31648,-1.79332l13.86421,132.68179z" fill="url(#color-27)" stroke="none" stroke-width="0"/><path d="M443.99212,821.77141c-1.65467,1.42367 -2.67831,-1.58291 -2.67831,-1.58291l-1.42533,-4.29006c-3.09926,-4.47973 -6.66993,-6.96228 -9.99181,-10.83796c-2.2073,-2.5753 -3.90465,-6.10468 -6.01054,-8.83779c-2.30363,-2.98979 -5.00032,-4.73561 -6.71679,-9.07857c-4.32371,-10.93945 -3.40639,-26.87217 1.59867,-34.16024c2.66121,-4.31305 4.75713,-9.53312 7.49186,-13.66077c0.4606,-0.6952 2.72455,-3.42405 2.98247,-5.25293c0.41376,-2.93409 -1.92929,-9.52297 -2.647,-11.53568c-4.02689,-11.29311 -11.39349,-18.36039 -15.7143,-29.49792c0,0 -1.11494,-2.92185 0.47962,-4.51219c1.5946,-1.5903 2.70955,1.33154 2.70955,1.33154c4.22282,11.31251 11.69575,18.13907 15.76041,29.62131c1.49086,4.21155 3.90971,11.65074 3.22007,16.67851c-0.69738,5.08468 -3.60428,7.09997 -5.44182,10.55269c-2.0495,3.85096 -3.8531,7.85615 -6.07775,11.45831c-3.71834,5.20525 -4.47035,17.58259 -1.23355,25.64102c1.38508,3.44834 3.85011,4.85702 5.69247,7.25389c2.05637,2.67536 3.72019,6.16416 5.87257,8.66764c3.72653,4.33434 7.49016,7.08094 10.91041,12.28108l1.85021,5.33071c0,0 1.02364,3.00658 -0.63103,4.43029z" fill="#000000" stroke="none" stroke-width="0.5"/><path d="M410.03279,824.3679c0,0 -9.41065,-45.54872 -11.76966,-68.12466c-2.29563,-21.96943 0.09806,-65.83003 0.09806,-65.83003l40.20578,-4.70751c0,0 11.21641,40.57404 13.47351,62.1748c2.39147,22.88673 1.64431,71.37646 1.64431,71.37646z" fill="#ff0000" stroke="#000000" stroke-width="2"/></g></g><g stroke-linecap="butt"><path d="M691.35664,475.98337c1.86691,9.07933 -3.97991,17.95292 -13.05915,19.81981c-9.07927,1.86688 -17.95294,-3.97991 -19.81982,-13.05918c-1.86688,-9.07927 3.97992,-17.9529 13.05919,-19.81978c9.07927,-1.86688 17.9529,3.97989 19.81978,13.05919z" fill="url(#color-28)" stroke="none" stroke-width="0"/><g><path d="M658.4657,499.70034c0,0 -47.5879,-9.33836 -69.47912,-16.43032c-20.66117,-6.69348 -58.02157,-26.09088 -58.02157,-26.09088l12.95395,-38.35178c0,0 43.40156,6.76646 64.41539,13.57421c21.59393,6.99565 64.1956,25.65973 64.1956,25.65973z" fill="#696969" stroke="#000000" stroke-width="2"/><path d="M662.29835,486.40306l-126.91054,-41.11436l4.93485,-14.61022l126.91063,41.11437z" fill="url(#color-29)" stroke="none" stroke-width="0"/><path d="M662.9381,490.74128c-1.73629,1.32295 -4.46478,-0.30274 -4.46478,-0.30274l-4.83029,-2.91681c-4.37653,-4.42552 -6.28169,-8.67747 -9.74774,-13.22285c-2.00196,-2.62535 -5.06921,-4.97734 -7.25924,-7.54447c-1.96206,-2.2999 -2.82814,-5.00372 -5.91368,-7.07471c-7.21061,-4.83966 -19.47428,-6.67431 -25.33824,-4.1179c-3.98564,1.42818 -8.27802,2.36073 -12.47062,3.56585c-3.75903,1.0805 -6.33406,3.50556 -11.45271,3.13188c-5.06136,-0.36949 -11.83614,-4.28034 -15.64628,-6.61327c-10.38788,-6.36042 -15.51379,-15.08805 -25.70283,-21.56797c0,0 -2.62665,-1.69739 -0.73985,-2.92697c1.88682,-1.22955 4.51347,0.46784 4.51347,0.46784c9.99748,6.53941 15.38095,15.21298 25.59167,21.49721c1.81978,1.12002 7.77851,4.78029 10.73454,4.98479c1.84255,0.12751 4.98209,-1.52046 5.75775,-1.82669c4.60551,-1.81798 10.14702,-2.78418 14.91873,-4.49174c8.16854,-3.38253 23.94444,-0.97136 33.74755,5.52977c3.89185,2.58093 5.03964,5.58136 7.48589,8.45561c2.23626,2.62756 5.33625,5.02081 7.39701,7.71476c3.10141,4.05429 4.78837,8.06265 8.52685,12.02459l3.90052,2.2851c0,0 2.72851,1.6257 0.99226,2.94865z" fill="#000000" stroke="none" stroke-width="0.5"/><path d="M658.4657,499.70034c0,0 -47.5879,-9.33836 -69.47912,-16.43032c-20.66117,-6.69348 -58.02157,-26.09088 -58.02157,-26.09088l12.95395,-38.35178c0,0 43.40156,6.76646 64.41539,13.57421c21.59393,6.99565 64.1956,25.65973 64.1956,25.65973z" fill="#ff0000" stroke="#000000" stroke-width="2"/></g><path d="M907.35378,588.92644c0.26079,2.05256 -1.19178,3.92798 -3.24439,4.18877c-2.05256,0.26079 -3.92801,-1.19181 -4.18878,-3.2444c-0.26079,-2.05256 1.19181,-3.92796 3.24437,-4.18876c2.05256,-0.26079 3.92798,1.1918 4.18877,3.24441z" data-paper-data="{&quot;index&quot;:null}" fill="url(#color-30)" stroke="none" stroke-width="0"/><path d="M884.96079,607.76447c-0.56073,1.99165 -2.62989,3.15169 -4.62154,2.59096c-1.99168,-0.56075 -3.1517,-2.62993 -2.59097,-4.62158c0.56073,-1.99165 2.62986,-3.15169 4.6215,-2.59096c1.99168,0.56075 3.15167,2.62991 2.59096,4.62159z" data-paper-data="{&quot;index&quot;:null}" fill="url(#color-31)" stroke="none" stroke-width="0"/><path d="M804.66363,513.0485c8.02571,-4.63747 18.29133,-1.89073 22.92878,6.13502c4.6375,8.02579 1.89073,18.29133 -6.13502,22.92878c-8.02571,4.63747 -18.2913,1.89071 -22.92875,-6.13504c-4.63747,-8.02577 -1.89073,-18.29133 6.13502,-22.92878z" data-paper-data="{&quot;index&quot;:null}" fill="url(#color-32)" stroke="none" stroke-width="0"/><path d="M871.40382,523.90223c2.13906,1.17004 2.92463,3.85262 1.75458,5.99164c-1.17005,2.1391 -3.85259,2.92459 -5.99165,1.75454c-2.13906,-1.17004 -2.92459,-3.85255 -1.75456,-5.99167c1.17005,-2.1391 3.85258,-2.9246 5.99164,-1.75456z" data-paper-data="{&quot;index&quot;:null}" fill="url(#color-33)" stroke="none" stroke-width="0"/><path d="M887.98631,545.49484c1.23113,2.10445 0.52311,4.80853 -1.5813,6.03966c-2.10446,1.23118 -4.80854,0.52312 -6.03965,-1.58131c-1.23113,-2.10445 -0.52315,-4.8085 1.58129,-6.03965c2.10446,-1.23118 4.80857,-0.52314 6.03968,1.58129z" data-paper-data="{&quot;index&quot;:null}" fill="url(#color-34)" stroke="none" stroke-width="0"/><path d="M880.98505,567.3047c1.23112,2.10446 0.52313,4.80855 -1.5813,6.03966c-2.10443,1.23116 -4.80854,0.52314 -6.0397,-1.58129c-1.23113,-2.10445 -0.52312,-4.80854 1.58133,-6.03967c2.10443,-1.23116 4.80859,-0.52314 6.0397,1.58129z" data-paper-data="{&quot;index&quot;:null}" fill="url(#color-35)" stroke="none" stroke-width="0"/><path d="M865.13407,583.62028c1.23113,2.10445 0.52313,4.80855 -1.5813,6.03966c-2.10448,1.23115 -4.80859,0.52314 -6.0397,-1.58129c-1.23112,-2.10446 -0.52311,-4.80848 1.58134,-6.03961c2.10443,-1.23116 4.80851,-0.52316 6.03967,1.58128z" data-paper-data="{&quot;index&quot;:null}" fill="url(#color-36)" stroke="none" stroke-width="0"/><path d="M925.42128,619.72423c-0.63053,1.97069 -2.73927,3.05709 -4.70993,2.42655c-1.97066,-0.63052 -3.05711,-2.73924 -2.42653,-4.70993c0.63055,-1.97066 2.73928,-3.05708 4.70994,-2.42654c1.97066,0.63052 3.05712,2.73925 2.42657,4.70992z" data-paper-data="{&quot;index&quot;:null}" fill="url(#color-37)" stroke="none" stroke-width="0"/><g data-paper-data="{&quot;index&quot;:null}" stroke-width="1"><path d="M930.05059,619.36685c0,0 2.82102,10.07557 3.43831,15.10506c0.60061,4.89433 -0.5637,14.77319 -0.5637,14.77319l-13.65868,1.67631c0,0 -3.47288,-8.93145 -4.06346,-13.74366c-0.62573,-5.09869 0.01808,-15.9909 0.01808,-15.9909z" fill="#696969" stroke="#000000"/><path d="M925.10855,620.11375l3.62769,29.55886l-5.20328,0.63862l-3.62767,-29.55888z" fill="url(#color-38)" stroke="none"/><path d="M919.41953,620.78697l0.44829,0.94067c1.01386,0.95743 2.20358,1.45939 3.29766,2.27785c0.72708,0.54387 1.27365,1.30956 1.96507,1.89044c0.75635,0.63532 1.65577,0.98554 2.2023,1.93357c1.37663,2.38808 0.93749,5.97738 -0.81687,7.6899c-0.93629,1.00887 -1.6884,2.21257 -2.6481,3.18087c-0.16164,0.16309 -0.95059,0.81029 -1.05273,1.22467c-0.16378,0.66474 0.5769,2.10718 0.80382,2.54771c1.27324,2.47197 3.71185,3.94423 5.08589,6.37677c0,0 0.35421,0.63847 -0.19885,1.01995c-0.55305,0.38139 -0.90724,-0.25705 -0.90724,-0.25705c-1.33939,-2.47332 -3.81608,-3.88989 -5.10056,-6.40374c-0.47114,-0.92204 -1.23064,-2.55405 -0.95647,-3.69284c0.27722,-1.15174 1.27826,-1.64873 1.92858,-2.45184c0.72537,-0.8957 1.36868,-1.82222 2.15136,-2.66485c1.30169,-1.22533 1.65615,-4.01435 0.62456,-5.77268c-0.44146,-0.7524 -1.26523,-1.03045 -1.87004,-1.53993c-0.67508,-0.56858 -1.21062,-1.32582 -1.91963,-1.85435c-1.22753,-0.91514 -2.48044,-1.47344 -3.59719,-2.58755l-0.58392,-1.16756c0,0 -0.32254,-0.65886 0.24948,-1.00388c0.57204,-0.345 0.89457,0.3139 0.89457,0.3139z" fill="#000000" stroke="none"/><path d="M930.05059,619.36685c0,0 2.82102,10.07557 3.43831,15.10506c0.60061,4.89433 -0.5637,14.77319 -0.5637,14.77319l-13.65868,1.67631c0,0 -3.47288,-8.93145 -4.06346,-13.74366c-0.62573,-5.09869 0.01808,-15.9909 0.01808,-15.9909z" fill="#ff0000" stroke="#000000"/></g><g data-paper-data="{&quot;index&quot;:null}" stroke-width="1"><path d="M911.39888,586.64726c0,0 6.81268,7.94127 9.49643,12.23948c2.6117,4.18266 5.7287,13.6289 5.7287,13.6289l-11.67262,7.28836c0,0 -6.92032,-6.62895 -9.48809,-10.74149c-2.72066,-4.35734 -6.73755,-14.50226 -6.73755,-14.50226z" fill="#696969" stroke="#000000"/><path d="M907.23485,589.41154l15.77273,25.26079l-4.44671,2.77654l-15.77274,-25.26078z" fill="url(#color-39)" stroke="none"/><path d="M902.36259,592.42477l0.80364,0.66328c1.32334,0.43961 2.61366,0.39212 3.95115,0.67192c0.88868,0.18586 1.70758,0.64913 2.5796,0.88363c0.95398,0.25647 1.91715,0.19402 2.81293,0.82243c2.25641,1.58314 3.37435,5.02212 2.50745,7.31538c-0.42261,1.30994 -0.5959,2.71857 -1.05682,4.00169c-0.07764,0.21611 -0.51939,1.13601 -0.43695,1.55472c0.13232,0.67173 1.4129,1.66635 1.80466,1.96978c2.19817,1.70293 5.03044,2.00742 7.3033,3.63198c0,0 0.59074,0.42911 0.25054,1.00848c-0.34022,0.57934 -0.93091,0.15021 -0.93091,0.15021c-2.25871,-1.67619 -5.10195,-1.91414 -7.32799,-3.65023c-0.81651,-0.63676 -2.1942,-1.79529 -2.42668,-2.94334c-0.23516,-1.16109 0.46228,-2.03437 0.71259,-3.03699c0.27915,-1.11829 0.47093,-2.2298 0.82449,-3.32416c0.66229,-1.66046 -0.19437,-4.3382 -1.87206,-5.49626c-0.71793,-0.49558 -1.58203,-0.39969 -2.34543,-0.60601c-0.85204,-0.23026 -1.65735,-0.69039 -2.5232,-0.87007c-1.4992,-0.31103 -2.87067,-0.28786 -4.35353,-0.82607l-1.02237,-0.81181c0,0 -0.57069,-0.46101 -0.19786,-1.01531c0.37283,-0.5543 0.94345,-0.09333 0.94345,-0.09333z" fill="#000000" stroke="none"/><path d="M911.39888,586.64726c0,0 6.81268,7.94127 9.49643,12.23948c2.6117,4.18266 5.7287,13.6289 5.7287,13.6289l-11.67262,7.28836c0,0 -6.92032,-6.62895 -9.48809,-10.74149c-2.72066,-4.35734 -6.73755,-14.50226 -6.73755,-14.50226z" fill="#ff0000" stroke="#000000"/></g><path d="M889.58013,643.17073c-1.34944,1.56849 -3.71492,1.74599 -5.28344,0.39657c-1.56846,-1.34942 -1.74606,-3.71491 -0.3966,-5.28337c1.34944,-1.56849 3.71494,-1.74602 5.28342,-0.39662c1.56846,1.34942 1.74603,3.71493 0.39656,5.28343z" data-paper-data="{&quot;index&quot;:null}" fill="url(#color-40)" stroke="none" stroke-width="0"/><g data-paper-data="{&quot;index&quot;:null}" stroke-width="1"><path d="M893.98187,644.64781c0,0 -1.33369,10.37778 -2.72772,15.24941c-1.35657,4.74079 -6.28296,13.38238 -6.28296,13.38238l-13.23021,-3.78569c0,0 0.28715,-9.57856 1.62094,-14.23986c1.41324,-4.93872 6.25583,-14.71649 6.25583,-14.71649z" fill="#696969" stroke="#000000"/><path d="M889.14019,643.4073l-8.19267,28.63153l-5.04005,-1.44217l8.19273,-28.63155z" fill="url(#color-41)" stroke="none"/><path d="M883.63935,641.80759l0.04579,1.04103c0.55995,1.27717 1.45951,2.20349 2.14757,3.38401c0.45722,0.7844 0.66172,1.70269 1.07169,2.50729c0.4485,0.88012 1.14009,1.55347 1.27338,2.63961c0.33576,2.73589 -1.46899,5.86939 -3.75245,6.76171c-1.25571,0.56357 -2.41786,1.37835 -3.67933,1.89553c-0.21245,0.0871 -1.19143,0.37523 -1.44712,0.71691c-0.41019,0.54818 -0.29102,2.16518 -0.25395,2.65936c0.20784,2.77284 1.87885,5.0799 2.19486,7.85574c0,0 0.07696,0.72603 -0.581,0.8615c-0.65801,0.13538 -0.73498,-0.5906 -0.73498,-0.5906c-0.26823,-2.79987 -1.99595,-5.07048 -2.1978,-7.88626c-0.07406,-1.03277 -0.13656,-2.83173 0.56015,-3.77335c0.70463,-0.95231 1.82014,-1.01936 2.73231,-1.50509c1.01738,-0.54172 1.97121,-1.14387 3.02055,-1.6143c1.67659,-0.62035 3.09113,-3.05 2.82732,-5.07141c-0.11287,-0.86502 -0.76292,-1.44249 -1.12105,-2.14754c-0.39973,-0.78694 -0.59741,-1.69315 -1.04397,-2.45642c-0.77322,-1.32156 -1.70897,-2.32438 -2.30256,-3.78592l-0.082,-1.30291c0,0 -0.03993,-0.73246 0.62137,-0.82692c0.66127,-0.0945 0.70121,0.63804 0.70121,0.63804z" fill="#000000" stroke="none"/><path d="M893.98187,644.64781c0,0 -1.33369,10.37778 -2.72772,15.24941c-1.35657,4.74079 -6.28296,13.38238 -6.28296,13.38238l-13.23021,-3.78569c0,0 0.28715,-9.57856 1.62094,-14.23986c1.41324,-4.93872 6.25583,-14.71649 6.25583,-14.71649z" fill="#ff0000" stroke="#000000"/></g><g data-paper-data="{&quot;index&quot;:null}" stroke-width="1"><path d="M889.57463,607.24418c0,0 3.17429,9.96997 3.9683,14.97456c0.77274,4.87018 -0.04288,14.78387 -0.04288,14.78387l-13.59116,2.15647c0,0 -3.78544,-8.80363 -4.54516,-13.59207c-0.80501,-5.07348 -0.54529,-15.9816 -0.54529,-15.9816z" fill="#696969" stroke="#000000"/><path d="M884.66201,608.16475l4.66678,29.41266l-5.17762,0.82149l-4.66676,-29.41269z" fill="url(#color-42)" stroke="none"/><path d="M879.00029,609.03801l0.48115,0.9243c1.04696,0.92111 2.25352,1.38091 3.37588,2.16029c0.74574,0.51791 1.31897,1.26392 2.0304,1.82002c0.77826,0.60835 1.68956,0.92663 2.26912,1.85482c1.45986,2.33809 1.14745,5.9406 -0.54546,7.7139c-0.90019,1.0412 -1.60936,2.27064 -2.5344,3.27223c-0.15581,0.16871 -0.92154,0.84336 -1.00898,1.26105c-0.14029,0.67013 0.65076,2.08549 0.89303,2.51773c1.35948,2.42556 3.84857,3.81098 5.30743,6.19362c0,0 0.3765,0.62555 -0.16277,1.0263c-0.53923,0.40071 -0.91566,-0.22491 -0.91566,-0.22491c-1.42571,-2.42464 -3.95073,-3.75311 -5.32296,-6.22008c-0.50336,-0.9049 -1.3198,-2.50908 -1.08601,-3.65685c0.2365,-1.16069 1.21938,-1.69274 1.84105,-2.51822c0.69331,-0.92074 1.30355,-1.86934 2.05609,-2.73902c1.25767,-1.27044 1.51368,-4.07022 0.42075,-5.79107c-0.46767,-0.73642 -1.3007,-0.98528 -1.92309,-1.4731c-0.69471,-0.54446 -1.25657,-1.28234 -1.98376,-1.7856c-1.25903,-0.87128 -2.53082,-1.38512 -3.68617,-2.45925l-0.6246,-1.14631c0,0 -0.34554,-0.64711 0.214,-1.01202c0.55954,-0.36491 0.90513,0.28224 0.90513,0.28224z" fill="#000000" stroke="none"/><path d="M889.57463,607.24418c0,0 3.17429,9.96997 3.9683,14.97456c0.77274,4.87018 -0.04288,14.78387 -0.04288,14.78387l-13.59116,2.15647c0,0 -3.78544,-8.80363 -4.54516,-13.59207c-0.80501,-5.07348 -0.54529,-15.9816 -0.54529,-15.9816z" fill="#ff0000" stroke="#000000"/></g><path d="M950.50645,589.61166c0.09815,2.06679 -1.49778,3.82175 -3.56453,3.91989c-2.06677,0.09811 -3.82173,-1.49773 -3.91988,-3.56452c-0.09811,-2.06682 1.49778,-3.82175 3.56453,-3.91989c2.06675,-0.09814 3.82179,1.49777 3.91988,3.56452z" data-paper-data="{&quot;index&quot;:null}" fill="url(#color-43)" stroke="none" stroke-width="0"/><g data-paper-data="{&quot;index&quot;:null}" stroke-width="1"><path d="M954.71869,587.65855c0,0 6.16523,8.45375 8.50164,12.95016c2.27366,4.37559 4.63617,14.03823 4.63617,14.03823l-12.211,6.34514c0,0 -6.37599,-7.15399 -8.61152,-11.45613c-2.36859,-4.55829 -5.57294,-14.98834 -5.57294,-14.98834z" fill="#696969" stroke="#000000"/><path d="M950.34969,590.08587l13.73165,26.42589l-4.65176,2.41717l-13.73169,-26.42592z" fill="url(#color-44)" stroke="none"/><path d="M945.25499,592.70531l0.74884,0.72468c1.28459,0.54265 2.57466,0.597 3.88589,0.9814c0.87126,0.25535 1.651,0.7818 2.50188,1.08428c0.93069,0.33088 1.89591,0.34458 2.73935,1.04174c2.12456,1.75621 2.96778,5.27257 1.92279,7.49031c-0.52459,1.27251 -0.8084,2.66312 -1.36901,3.90587c-0.09443,0.20933 -0.60741,1.09153 -0.55823,1.51545c0.07891,0.68014 1.27705,1.77255 1.6437,2.10599c2.05705,1.87098 4.85645,2.39782 6.99413,4.19655c0,0 0.55505,0.47438 0.17025,1.0251c-0.38482,0.5507 -0.93979,0.07632 -0.93979,0.07632c-2.11948,-1.84904 -4.93511,-2.31051 -7.01727,-4.2167c-0.76372,-0.69915 -2.04586,-1.96275 -2.18707,-3.12551c-0.14288,-1.17595 0.62129,-1.99157 0.94984,-2.97134c0.36653,-1.09272 0.64527,-2.18571 1.08402,-3.24871c0.79121,-1.60304 0.14837,-4.34 -1.43278,-5.62678c-0.67663,-0.5506 -1.54564,-0.52321 -2.29036,-0.7891c-0.83128,-0.29672 -1.59774,-0.81899 -2.44677,-1.06638c-1.46999,-0.4283 -2.83901,-0.51334 -4.27479,-1.16679l-0.95519,-0.8899c0,0 -0.53255,-0.50452 -0.1172,-1.02771c0.41534,-0.52323 0.94794,-0.01868 0.94794,-0.01868z" fill="#000000" stroke="none"/><path d="M954.71869,587.65855c0,0 6.16523,8.45375 8.50164,12.95016c2.27366,4.37559 4.63617,14.03823 4.63617,14.03823l-12.211,6.34514c0,0 -6.37599,-7.15399 -8.61152,-11.45613c-2.36859,-4.55829 -5.57294,-14.98834 -5.57294,-14.98834z" fill="#ff0000" stroke="#000000"/></g><path d="M922.81285,567.07269c0.9619,1.83192 0.25652,4.09675 -1.57536,5.05865c-1.83192,0.9619 -4.09676,0.25651 -5.05866,-1.57538c-0.9619,-1.83188 -0.25647,-4.09675 1.57541,-5.05865c1.83188,-0.9619 4.09672,-0.25651 5.05862,1.57537z" data-paper-data="{&quot;index&quot;:null}" fill="url(#color-45)" stroke="none" stroke-width="0"/><g data-paper-data="{&quot;index&quot;:null}" stroke-width="1"><path d="M925.80607,563.52329c0,0 9.15893,5.05878 13.17583,8.1476c3.90904,3.00586 10.13146,10.76649 10.13146,10.76649l-8.38835,10.9089c0,0 -8.80091,-3.79157 -12.64431,-6.74705c-4.07223,-3.13136 -11.38204,-11.23208 -11.38204,-11.23208z" fill="#696969" stroke="#000000"/><path d="M922.87105,567.56872l23.60807,18.15337l-3.19563,4.15579l-23.60804,-18.15344z" fill="url(#color-46)" stroke="none"/><path d="M919.35939,572.09499l0.98475,0.34055c1.39354,-0.05073 2.58589,-0.54624 3.93676,-0.75168c0.89759,-0.1365 1.82681,0.01133 2.72574,-0.07387c0.98338,-0.09317 1.86396,-0.48848 2.923,-0.21275c2.66751,0.69449 4.91701,3.52564 4.90652,5.97726c0.06197,1.37504 0.39198,2.75542 0.40865,4.11867c0.00286,0.22964 -0.08945,1.24593 0.13413,1.60937c0.35876,0.58313 1.90621,1.06733 2.37934,1.21473c2.65474,0.8271 5.41477,0.12221 8.11217,0.84977c0,0 0.70343,0.19556 0.58725,0.8573c-0.11622,0.66164 -0.81966,0.46611 -0.81966,0.46611c-2.70213,-0.78086 -5.44918,-0.00988 -8.14167,-0.85834c-0.98761,-0.31116 -2.68329,-0.91503 -3.30248,-1.90933c-0.62617,-1.00554 -0.27797,-2.06763 -0.39401,-3.09448c-0.12938,-1.1453 -0.33831,-2.25376 -0.38954,-3.40261c0.04005,-1.7872 -1.69858,-3.99654 -3.67533,-4.49504c-0.84583,-0.21333 -1.62191,0.17857 -2.40928,0.25214c-0.87879,0.08213 -1.79413,-0.06755 -2.66821,0.06689c-1.51332,0.23262 -2.79017,0.73371 -4.3676,0.74782l-1.24165,-0.40319c0,0 -0.69579,-0.23242 -0.54029,-0.88207c0.15553,-0.64964 0.85135,-0.41721 0.85135,-0.41721z" fill="#000000" stroke="none"/><path d="M925.80607,563.52329c0,0 9.15893,5.05878 13.17583,8.1476c3.90904,3.00586 10.13146,10.76649 10.13146,10.76649l-8.38835,10.9089c0,0 -8.80091,-3.79157 -12.64431,-6.74705c-4.07223,-3.13136 -11.38204,-11.23208 -11.38204,-11.23208z" fill="#ff0000" stroke="#000000"/></g><g data-paper-data="{&quot;index&quot;:null}" stroke-width="1"><path d="M889.80371,553.63728c0,0 10.44352,0.63956 15.39722,1.70601c4.8206,1.03774 13.77119,5.37774 13.77119,5.37774l-2.89623,13.45295c0,0 -9.57642,0.35145 -14.31617,-0.6689c-5.0219,-1.0811 -15.10047,-5.26179 -15.10047,-5.26179z" fill="#696969" stroke="#000000"/><path d="M888.88842,558.55087l29.11359,6.26761l-1.10332,5.1249l-29.1136,-6.26764z" fill="url(#color-47)" stroke="none"/><path d="M887.65866,564.14597l1.03568,-0.11494c1.23699,-0.64375 2.10136,-1.60299 3.23343,-2.36819c0.75217,-0.5084 1.65492,-0.77362 2.43035,-1.23626c0.84827,-0.50612 1.47408,-1.24095 2.54891,-1.44634c2.70744,-0.51723 5.95415,1.07485 6.99663,3.29381c0.64598,1.21539 1.53637,2.32067 2.13643,3.54488c0.10107,0.2062 0.45381,1.16383 0.81175,1.39618c0.5742,0.37277 2.17978,0.1462 2.67037,0.07632c2.75285,-0.39201 4.94341,-2.21293 7.69211,-2.71316c0,0 0.71931,-0.12518 0.89826,0.52234c0.17899,0.64753 -0.54035,0.77273 -0.54035,0.77273c-2.77582,0.45415 -4.92634,2.32916 -7.72238,2.7181c-1.02553,0.14264 -2.81636,0.32482 -3.80228,-0.30761c-0.99712,-0.63968 -1.13831,-1.74832 -1.68369,-2.62604c-0.60827,-0.97901 -1.27257,-1.8906 -1.81187,-2.90637c-0.73066,-1.63149 -3.24912,-2.88108 -5.2485,-2.4832c-0.85555,0.17021 -1.38842,0.85718 -2.06807,1.26149c-0.75858,0.45125 -1.6496,0.70884 -2.38141,1.20526c-1.26715,0.85949 -2.20541,1.85997 -3.62423,2.54958l-1.2945,0.16858c0,0 -0.72829,0.08865 -0.86658,-0.5649c-0.13829,-0.65354 0.58993,-0.74219 0.58993,-0.74219z" fill="#000000" stroke="none"/><path d="M889.80371,553.63728c0,0 10.44352,0.63956 15.39722,1.70601c4.8206,1.03774 13.77119,5.37774 13.77119,5.37774l-2.89623,13.45295c0,0 -9.57642,0.35145 -14.31617,-0.6689c-5.0219,-1.0811 -15.10047,-5.26179 -15.10047,-5.26179z" fill="#ff0000" stroke="#000000"/></g><g data-paper-data="{&quot;index&quot;:null}" stroke-width="1"><path d="M881.12374,564.79976c0,0 9.56112,4.24995 13.82946,6.98082c4.15371,2.65745 11.02239,9.85244 11.02239,9.85244l-7.4162,11.59176c0,0 -9.0951,-3.01834 -13.17915,-5.63125c-4.32711,-2.76844 -12.30842,-10.20851 -12.30842,-10.20851z" fill="#696969" stroke="#000000"/><path d="M878.54855,569.08324l25.08583,16.04948l-2.82517,4.41592l-25.08593,-16.04942z" fill="url(#color-48)" stroke="none"/><path d="M875.4404,573.89549l1.01054,0.25427c1.38399,-0.17073 2.52913,-0.76724 3.85727,-1.08845c0.88249,-0.2134 1.82096,-0.14633 2.7092,-0.30869c0.97167,-0.17767 1.81498,-0.6474 2.89381,-0.46408c2.71747,0.46186 5.20281,3.08843 5.40376,5.53185c0.18036,1.36454 0.6282,2.71134 0.76247,4.06807c0.02268,0.22853 0.01833,1.24897 0.27245,1.59186c0.4077,0.54996 1.9912,0.89892 2.47527,1.00493c2.71618,0.59497 5.40511,-0.34526 8.15519,0.14694c0,0 0.71772,0.13419 0.65904,0.80338c-0.05865,0.66922 -0.77637,0.53511 -0.77637,0.53511c-2.75948,-0.54485 -5.42975,0.4601 -8.18534,-0.15286c-1.01073,-0.22482 -2.75227,-0.68008 -3.45486,-1.61733c-0.71057,-0.94786 -0.45533,-2.03598 -0.65947,-3.04897c-0.22769,-1.12989 -0.5314,-2.21611 -0.68159,-3.35633c-0.11423,-1.784 -2.03698,-3.83517 -4.0493,-4.16134c-0.8611,-0.1396 -1.6005,0.3178 -2.37859,0.459c-0.86842,0.15761 -1.79322,0.08749 -2.65245,0.29676c-1.48767,0.36235 -2.71653,0.97171 -4.28685,1.12186l-1.27175,-0.29458c0,0 -0.7133,-0.17149 -0.61441,-0.83215c0.0989,-0.66063 0.81215,-0.48912 0.81215,-0.48912z" fill="#000000" stroke="none"/><path d="M881.12374,564.79976c0,0 9.56112,4.24995 13.82946,6.98082c4.15371,2.65745 11.02239,9.85244 11.02239,9.85244l-7.4162,11.59176c0,0 -9.0951,-3.01834 -13.17915,-5.63125c-4.32711,-2.76844 -12.30842,-10.20851 -12.30842,-10.20851z" fill="#ff0000" stroke="#000000"/></g><g data-paper-data="{&quot;index&quot;:null}" stroke-width="1"><path d="M870.22304,575.31582c0,0 7.14517,7.64357 10.00974,11.82332c2.78763,4.06747 6.30472,13.37216 6.30472,13.37216l-11.35116,7.77953c0,0 -7.19667,-6.32775 -9.93752,-10.32699c-2.904,-4.23728 -7.34986,-14.2017 -7.34986,-14.2017z" fill="#696969" stroke="#000000"/><path d="M866.18069,578.25518l16.83575,24.56508l-4.32419,2.9636l-16.83576,-24.5651z" fill="url(#color-49)" stroke="none"/><path d="M861.44129,581.47339l0.83115,0.62845c1.34091,0.38283 2.62808,0.28038 3.97624,0.50281c0.89578,0.14783 1.73373,0.57571 2.61495,0.77278c0.96398,0.21554 1.92365,0.11202 2.84546,0.70175c2.32189,1.48549 3.58542,4.87364 2.81716,7.20178c-0.36633,1.32677 -0.47945,2.74154 -0.88521,4.04314c-0.06832,0.21924 -0.47049,1.15713 -0.37023,1.57197c0.1608,0.6654 1.48264,1.60455 1.887,1.89104c2.26878,1.6076 5.11145,1.791 7.45159,3.31716c0,0 0.60848,0.40355 0.29331,0.99687c-0.31517,0.59329 -0.92362,0.18977 -0.92362,0.18977c-2.32819,-1.57834 -5.17896,-1.69487 -7.47699,-3.33445c-0.84288,-0.60139 -2.26873,-1.70008 -2.55002,-2.83717c-0.28442,-1.14995 0.37515,-2.05225 0.58243,-3.06459c0.23122,-1.12918 0.37539,-2.24785 0.68193,-3.3563c0.59091,-1.68719 -0.37915,-4.32598 -2.10476,-5.41144c-0.7384,-0.46448 -1.59761,-0.33184 -2.3691,-0.50538c-0.86116,-0.19369 -1.6853,-0.61911 -2.55805,-0.76168c-1.51111,-0.24686 -2.88027,-0.16516 -4.38477,-0.63962l-1.05608,-0.76742c0,0 -0.58982,-0.43634 -0.24097,-1.00598c0.34885,-0.56969 0.93862,-0.13344 0.93862,-0.13344z" fill="#000000" stroke="none"/><path d="M870.22304,575.31582c0,0 7.14517,7.64357 10.00974,11.82332c2.78763,4.06747 6.30472,13.37216 6.30472,13.37216l-11.35116,7.77953c0,0 -7.19667,-6.32775 -9.93752,-10.32699c-2.904,-4.23728 -7.34986,-14.2017 -7.34986,-14.2017z" fill="#ff0000" stroke="#000000"/></g><path d="M842.62313,586.91728c-23.73201,-14.73368 -34.0571,-41.03529 -23.0615,-58.74617c10.99559,-17.71092 39.14784,-20.12436 62.87992,-5.39065c23.73208,14.73371 20.80871,29.52708 9.8132,47.23802c-10.99559,17.71092 -25.89951,31.63257 -49.63159,16.89878z" data-paper-data="{&quot;index&quot;:null}" fill="#ff0000" stroke="#000000" stroke-width="1"/><path d="M894.40937,504.10302c1.88249,1.54943 2.15254,4.3316 0.60318,6.2141c-1.54939,1.88256 -4.33151,2.15251 -6.21404,0.60314c-1.8825,-1.5494 -2.15255,-4.33153 -0.60318,-6.21407c1.54939,-1.88256 4.33151,-2.15253 6.21405,-0.60316z" data-paper-data="{&quot;index&quot;:null}" fill="url(#color-50)" stroke="none" stroke-width="0"/><g data-paper-data="{&quot;index&quot;:null}" stroke-width="1"><path d="M896.03625,498.8793c0,0 12.26003,1.30415 18.03513,2.82099c5.61991,1.47609 15.92714,7.05748 15.92714,7.05748l-4.11939,15.68362c0,0 -11.29171,-0.09182 -16.81734,-1.54311c-5.85456,-1.53774 -17.49807,-6.99104 -17.49807,-6.99104z" fill="#696969" stroke="#000000"/><path d="M894.69942,504.61513l33.94094,8.91479l-1.5693,5.97471l-33.94093,-8.9148z" fill="url(#color-51)" stroke="none"/><path d="M892.95643,511.13666l1.22522,-0.08067c1.4901,-0.69249 2.55835,-1.77603 3.93134,-2.61701c0.91236,-0.55883 1.98892,-0.8234 2.92623,-1.32706c1.02532,-0.551 1.80076,-1.38311 3.0769,-1.56802c3.21441,-0.46595 6.95239,1.57956 8.06239,4.24671c0.69625,1.46484 1.68602,2.81291 2.3278,4.28568c0.1081,0.24807 0.4727,1.39396 0.88181,1.68639c0.65634,0.46913 2.55828,0.28709 3.13948,0.23072c3.26126,-0.31617 5.93613,-2.34406 9.1981,-2.78782c0,0 0.85336,-0.10941 1.02989,0.66225c0.17646,0.77173 -0.67687,0.88114 -0.67687,0.88114c-3.29154,0.38813 -5.92204,2.48177 -9.23402,2.79209c-1.21483,0.11384 -3.33248,0.23381 -4.45968,-0.56279c-1.13998,-0.80557 -1.2477,-2.11819 -1.8434,-3.18024c-0.66439,-1.18456 -1.39822,-2.29272 -1.97944,-3.5169c-0.77401,-1.95914 -3.67274,-3.56307 -6.04735,-3.20024c-1.0161,0.15528 -1.67969,0.93583 -2.50109,1.37586c-0.91679,0.49115 -1.97921,0.74737 -2.86692,1.2931c-1.53698,0.94488 -2.69435,2.07312 -4.40095,2.81002l-1.53277,0.13013c0,0 -0.86193,0.06591 -0.99021,-0.71074c-0.12826,-0.77671 0.73365,-0.84257 0.73365,-0.84257z" fill="#000000" stroke="none"/><path d="M896.03625,498.8793c0,0 12.26003,1.30415 18.03513,2.82099c5.61991,1.47609 15.92714,7.05748 15.92714,7.05748l-4.11939,15.68362c0,0 -11.29171,-0.09182 -16.81734,-1.54311c-5.85456,-1.53774 -17.49807,-6.99104 -17.49807,-6.99104z" fill="#ff0000" stroke="#000000"/></g><path d="M847.88029,510.32408c1.54939,-1.88256 4.3315,-2.15252 6.21403,-0.60315c1.8825,1.5494 2.15254,4.33163 0.60319,6.21409c-1.54941,1.88253 -4.33154,2.15251 -6.21408,0.60315c-1.8825,-1.5494 -2.15254,-4.33152 -0.60317,-6.21406z" data-paper-data="{&quot;index&quot;:null}" fill="url(#color-52)" stroke="none" stroke-width="0"/><g data-paper-data="{&quot;index&quot;:null}" stroke-width="1"><path d="M852.4174,504.61206c0,0 11.63371,-4.08251 17.50101,-5.19036c5.70969,-1.0781 17.41474,-0.45923 17.41474,-0.45923l3.0086,15.93396c0,0 -10.23882,4.76217 -15.85265,5.82216c-5.94803,1.12312 -18.80516,1.19325 -18.80516,1.19325z" fill="#696969" stroke="#000000"/><path d="M853.67103,510.3666l34.48289,-6.51085l1.14612,6.0701l-34.48284,6.51085z" fill="url(#color-53)" stroke="none"/><path d="M854.89496,517.00517l1.07207,-0.59858c1.04885,-1.26492 1.54874,-2.70197 2.4281,-4.05073c0.58423,-0.89628 1.44327,-1.59712 2.07375,-2.45428c0.68963,-0.93761 1.03312,-2.02195 2.10639,-2.73662c2.70355,-1.80011 6.95759,-1.55632 9.1046,0.3765c1.25743,1.02444 2.72998,1.81739 3.94161,2.8723c0.20408,0.17766 1.02509,1.05627 1.52011,1.14486c0.79413,0.14215 2.43396,-0.83835 2.93473,-1.13867c2.81005,-1.68492 4.3561,-4.66442 7.11213,-6.46489c0,0 0.72384,-0.46494 1.21441,0.15634c0.49052,0.62131 -0.23329,1.08629 -0.23329,1.08629c-2.80666,1.76295 -4.28432,4.78282 -7.14281,6.48413c-1.04844,0.6241 -2.9098,1.64108 -4.26978,1.40522c-1.37536,-0.23854 -2.0359,-1.37787 -3.0296,-2.08161c-1.10837,-0.78495 -2.24678,-1.47093 -3.29703,-2.32732c-1.53977,-1.43755 -4.84626,-1.6426 -6.8355,-0.29592c-0.85125,0.57621 -1.11564,1.56605 -1.66877,2.31594c-0.61737,0.83703 -1.46708,1.52428 -2.03479,2.39817c-0.98284,1.513 -1.54413,3.02868 -2.76946,4.42653l-1.32864,0.77525c0,0 -0.75027,0.42935 -1.1994,-0.2171c-0.4491,-0.64646 0.3012,-1.07579 0.3012,-1.07579z" fill="#000000" stroke="none"/><path d="M852.4174,504.61206c0,0 11.63371,-4.08251 17.50101,-5.19036c5.70969,-1.0781 17.41474,-0.45923 17.41474,-0.45923l3.0086,15.93396c0,0 -10.23882,4.76217 -15.85265,5.82216c-5.94803,1.12312 -18.80516,1.19325 -18.80516,1.19325z" fill="#ff0000" stroke="#000000"/></g><g data-paper-data="{&quot;index&quot;:null}"><path d="M798.3034,546.16409c0,0 -47.52658,-9.64553 -69.37155,-16.87871c-20.61754,-6.82676 -57.8519,-26.46505 -57.8519,-26.46505l13.20135,-38.26735c0,0 43.35697,7.04663 64.32639,13.98991c21.54832,7.13496 64.02853,26.07376 64.02853,26.07376z" fill="#696969" stroke="#000000" stroke-width="2"/><path d="M802.22187,532.89186l-126.64235,-41.93314l5.02906,-14.57803l126.64246,41.93309z" fill="url(#color-54)" stroke="none" stroke-width="0"/><path d="M802.83351,537.23399c-1.74478,1.31171 -4.4627,-0.33154 -4.4627,-0.33154l-4.81136,-2.94798c-4.34787,-4.45371 -6.22555,-8.71786 -9.66214,-13.28551c-1.98496,-2.6382 -5.03695,-5.00999 -7.21034,-7.59118c-1.94715,-2.31255 -2.79576,-5.02191 -5.86786,-7.11276c-7.17922,-4.88611 -19.43081,-6.79991 -25.31112,-4.28145c-3.99474,1.40237 -8.29309,2.30721 -12.49339,3.48525c-3.76593,1.0562 -6.35654,3.46457 -11.47268,3.05782c-5.05888,-0.40214 -11.80823,-4.35673 -15.60323,-6.71421c-10.3466,-6.42738 -15.41606,-15.18792 -25.56302,-21.73349c0,0 -2.6156,-1.71432 -0.72093,-2.93171c1.8947,-1.21735 4.51031,0.49696 4.51031,0.49696c9.95506,6.60385 15.28242,15.31203 25.45234,21.66205c1.81253,1.13175 7.74747,4.83037 10.70214,5.054c1.8417,0.13938 4.99178,-1.48824 5.76943,-1.78942c4.6172,-1.78819 10.16484,-2.71864 14.94742,-4.39534c8.19021,-3.32971 23.95021,-0.81665 33.71116,5.74765c3.8751,2.60599 5.00347,5.61377 7.43111,8.50378c2.21922,2.64192 5.30368,5.05515 7.34703,7.76236c3.07514,4.07422 4.73618,8.09339 8.449,12.0794l3.88573,2.31027c0,0 2.71792,1.64325 0.97317,2.95498z" fill="#000000" stroke="none" stroke-width="0.5"/><path d="M798.3034,546.16409c0,0 -47.52658,-9.64553 -69.37155,-16.87871c-20.61754,-6.82676 -57.8519,-26.46505 -57.8519,-26.46505l13.20135,-38.26735c0,0 43.35697,7.04663 64.32639,13.98991c21.54832,7.13496 64.02853,26.07376 64.02853,26.07376z" fill="#ff0000" stroke="#000000" stroke-width="2"/></g></g><path d="M406.02974,542.73664l-9.67763,-12.02691l121.41424,-97.69782l9.67763,12.02691z" fill="url(#color-55)" stroke="none" stroke-width="0" stroke-linecap="butt"/><path d="M412.13329,524.52522c5.21756,6.48414 4.19081,15.97018 -2.29331,21.18772c-6.48414,5.21756 -15.97018,4.19081 -21.18774,-2.29334c-5.21754,-6.48412 -4.19078,-15.9702 2.29334,-21.18774c6.48412,-5.21754 15.97017,-4.19076 21.18772,2.29336z" fill="url(#color-56)" stroke="none" stroke-width="0" stroke-linecap="butt"/><path d="M538.73145,427.45194c5.59445,6.95252 4.4935,17.12378 -2.45897,22.71819c-6.95247,5.59441 -17.1238,4.49348 -22.71821,-2.45899c-5.59443,-6.95249 -4.49348,-17.12375 2.45901,-22.71818c6.95247,-5.59441 17.12373,-4.49351 22.71816,2.45899z" fill="url(#color-57)" stroke="none" stroke-width="0" stroke-linecap="butt"/><path d="M442.05589,457.90832c26.29428,-19.95036 122.11468,-15.25346 172.1267,46.89912c16.30582,20.2641 27.72288,42.40109 34.14423,64.29207c13.27387,45.25142 -99.29858,136.7786 -140.22594,114.94015c-20.57392,-10.97805 -40.33171,-27.16421 -57.06215,-47.95602c-50.01202,-62.15258 -40.03338,-154.61624 -8.98284,-178.17532z" fill="#696969" stroke="#000000" stroke-width="2" stroke-linecap="butt"/><path d="M512.90469,556.91112l-5.19777,-111.61377l15.4203,-0.71809l5.19777,111.61377z" fill="url(#color-58)" stroke="none" stroke-width="0" stroke-linecap="butt"/><path d="M523.3607,562.07472l-107.91665,-28.9595l4.00095,-14.90952l107.91668,28.95948z" data-paper-data="{&quot;index&quot;:null}" fill="url(#color-59)" stroke="none" stroke-width="0" stroke-linecap="butt"/><path d="M591.83396,656.38796l-83.41179,-103.66023l14.31771,-11.52096l83.41179,103.66023z" fill="url(#color-60)" stroke="none" stroke-width="0" stroke-linecap="butt"/><path d="M524.16578,538.62795c-1.2788,-2.44209 1.16327,-3.72087 1.16327,-3.72087l1.94907,-0.94645c1.09253,-0.28652 2.18498,-0.57301 3.27751,-0.85953c6.8385,0.00346 14.40597,1.19828 21.53314,2.50462c0.90693,-1.96445 1.33655,-4.16188 1.07155,-6.64048c-0.61974,-5.79545 -6.66012,-7.86373 -10.3274,-11.24331c-4.46769,-4.11719 -7.06151,-9.98083 -11.43279,-14.20886c-6.36845,-6.15976 -17.26705,-9.05096 -25.73666,-10.68806c-8.15024,-1.64398 -16.5675,3.80926 -24.19426,1.06354c-6.42935,-2.31463 -9.25262,-9.28463 -14.82781,-12.54489c1.34623,2.25113 2.24163,4.7212 2.50985,7.46397c0.66189,6.76725 -1.96819,16.036 -4.22174,22.29276c-1.46337,4.06283 -5.63883,9.76 -5.77148,14.18185c-0.10207,3.40154 1.85303,6.54944 2.7196,9.84031c3.40447,12.92875 5.2161,29.35911 21.88615,28.3569c3.74629,-0.22522 6.64188,-0.83014 9.53658,-3.25757l0.95845,-0.77123c0,0 2.14768,-1.72817 3.87583,0.41949c1.72815,2.14766 -0.41954,3.87583 -0.41954,3.87583l-0.95845,0.77123c-7.81761,6.1058 -25.08802,7.07153 -31.47958,-2.36863c-4.80904,-7.10283 -6.58036,-17.45517 -8.73094,-25.62204c-0.24889,-0.94511 -2.91492,-10.92817 -2.89606,-11.4856c0.17482,-5.16633 4.37618,-11.06752 6.09382,-15.81276c2.01063,-5.55474 4.45512,-13.9713 3.91055,-19.99508c-0.52257,-5.7799 -5.38807,-10.37641 -11.17276,-14.24099c-6.47551,-2.222 -13.2605,-3.55885 -19.78382,-3.20189c0,0 -2.75315,0.13871 -2.89179,-2.61442c-0.13871,-2.75311 2.61442,-2.89184 2.61442,-2.89184c1.72609,-0.08033 3.47336,-0.06122 5.23143,0.04776c-0.55631,-0.33895 -1.08548,-0.67337 -1.58231,-1.00385c0,0 -2.29517,-1.52688 -0.76829,-3.822c1.52686,-2.29514 3.82198,-0.76827 3.82198,-0.76827c4.24346,2.82296 9.70151,5.62431 14.80273,8.88383c5.28018,1.74799 10.36316,4.05854 14.95312,6.65622c5.59798,3.1682 8.49187,10.07528 14.57503,12.46742c3.6254,1.42565 8.29923,-1.28522 11.80378,-1.83356c3.77829,-0.59116 7.70452,-0.21016 11.46183,0.50239c9.59,1.88886 21.29237,5.18572 28.4932,12.11694c4.38669,4.22245 6.97256,10.12616 11.4379,14.2138c4.93862,4.52084 11.0994,6.77841 11.97709,14.51327c0.35307,3.11126 -0.06034,5.88733 -1.02551,8.3825c0.13329,0.02523 0.26631,0.05038 0.399,0.0755c5.13288,0.97068 9.43607,2.91554 14.75833,2.22776c16.57349,-2.1418 4.01389,-21.40313 -2.8119,-26.90601c-20.28816,-12.30547 -43.15075,-24.01333 -47.84859,-50.01848c-0.67226,-3.72124 -0.31173,-7.33379 0.19487,-10.95902c0.98308,0.97443 2.56259,1.07553 3.66648,0.18726c0.12758,-0.10266 0.24367,-0.21438 0.34795,-0.33345c0.45306,0.20451 0.95344,0.28237 1.4448,0.22755c-0.49378,3.30895 -0.84,6.61644 -0.22804,9.90149c4.54421,24.39267 26.64396,34.92662 45.595,46.48576c4.39908,3.56291 9.43598,7.99815 11.56773,13.43439c4.06736,10.37244 0.56522,21.76858 -11.21166,23.44708c-5.97064,0.85096 -10.77701,-1.18571 -16.49903,-2.27691c-0.75479,-0.14396 -1.52171,-0.29184 -2.2984,-0.44162c-3.9249,5.00209 -10.06026,8.6531 -15.55656,11.67382c-1.10625,0.48741 -2.21249,0.97478 -3.31874,1.4622l0.13944,0.0098c0,0 -2.14766,1.72815 -3.87583,-0.41954c-1.72815,-2.14766 0.41951,-3.87581 0.41951,-3.87581l1.09781,-0.76142c1.032,-0.45276 2.06408,-0.90554 3.09611,-1.35832c3.79793,-2.09607 8.41761,-4.57781 11.81114,-7.89868c-5.7937,-1.04641 -11.7977,-1.93467 -17.217,-1.95653c-0.85339,0.23873 -1.70677,0.47742 -2.5601,0.71611l-0.82816,0.50781c0,0 -2.44207,1.27877 -3.72085,-1.16324z" fill="#000000" stroke="none" stroke-width="0.5" stroke-linecap="butt"/><path d="M517.11526,565.27171c2.50084,1.15965 1.34121,3.66047 1.34121,3.66047l-0.91652,1.64267c-0.75076,6.12858 0.86902,12.3046 1.68518,18.44889c2.85204,22.28313 -19.26519,37.11147 -39.53862,27.8673c-11.38715,-5.19226 -17.94887,-22.13002 -18.91584,-33.52712c-2.67621,-18.52896 -10.52995,-29.81999 -25.35164,-40.78872c-3.77034,-2.79022 -10.12538,-6.63574 -15.59114,-6.54823c0.23073,-0.86161 -0.01836,-1.67535 -0.01836,-1.67535c-0.37799,-1.18141 -0.65097,-2.41794 -0.75258,-3.66065c5.18658,-0.2569 10.5625,1.98624 15.28203,4.66641c18.67326,10.60439 28.83176,26.35731 31.90897,47.37752c0.82524,9.82349 5.57588,21.57625 13.56308,28.084c2.22733,1.81477 5.40278,2.11931 8.08046,2.38371c4.74925,0.46892 10.21762,1.55858 14.75925,-0.70118c8.97242,-4.46432 12.38906,-13.50497 11.10929,-22.75173c-0.88718,-6.6798 -2.41447,-13.10716 -1.69766,-19.79973l1.39255,-3.337c0,0 1.15961,-2.50084 3.66045,-1.34119z" fill="#000000" stroke="none" stroke-width="0.5" stroke-linecap="butt"/><path d="M522.22293,547.10772c2.14766,-1.72815 3.87581,0.41951 3.87581,0.41951l1.20197,1.72426c2.16262,5.89968 5.66666,11.42952 7.25947,17.53891c0.87478,3.35537 0.27641,9.38685 3.05146,12.22339c2.85572,2.91906 8.30654,3.19495 12.0198,3.79254c8.37703,1.34809 16.80543,0.83733 25.24885,1.99715c2.74746,1.56215 5.92937,2.78675 7.54157,5.80149c5.80981,10.86385 -3.79504,27.403 -7.35892,37.82126c-1.03827,3.03517 -3.7631,5.77708 -3.47969,8.97238c0.0841,0.94822 1.4226,1.26978 2.19092,1.83182c4.02215,2.94239 7.50613,4.93367 12.27161,6.40306c4.689,1.44581 8.13677,1.87057 13.00289,1.39816c0,0 2.74421,-0.26125 3.00544,2.48298c0.26123,2.74423 -2.483,3.00541 -2.483,3.00541c-5.56875,0.52072 -9.79621,0.03741 -15.1521,-1.61884c-4.79607,-1.48313 -17.08726,-6.16546 -18.23052,-12.36594c-0.18184,-0.9863 3.15419,-10.42062 3.65803,-11.89346c3.4054,-9.95498 15.37712,-29.51929 3.27377,-36.61357c-11.4353,-1.34337 -30.67538,1.95347 -39.57859,-7.29538c-3.71854,-3.8629 -3.12256,-9.92601 -4.33218,-14.61341c-1.52039,-5.89163 -4.98508,-11.27448 -7.08336,-16.96534l-0.32276,-0.1706c0,0 -1.72813,-2.14763 0.41953,-3.87578z" fill="#000000" stroke="none" stroke-width="0.5" stroke-linecap="butt"/><g><path d="M504.56362,597.47373l-47.00555,-58.41628l60.85028,-48.9641l47.00555,58.41628z" fill="#323232" stroke="none" stroke-width="0" stroke-linecap="butt"/><g stroke="#000000"><path d="M491.07512,518.88503c12.99984,-10.46052 32.01826,-8.40199 42.4788,4.59788c10.46052,12.99984 8.40196,32.01828 -4.59785,42.47878c-12.99984,10.46052 -32.01828,8.40196 -42.47878,-4.59785c-10.46052,-12.99984 -8.40198,-32.01831 4.59783,-42.4788z" fill="#878787" stroke-width="1" stroke-linecap="butt"/><path d="M516.66015,513.15312l-36.12859,29.4758" fill="none" stroke-width="1.5" stroke-linecap="round"/><path d="M482.52386,551.13517l42.65973,-33.92246" fill="none" stroke-width="1.5" stroke-linecap="round"/><path d="M484.46219,558.06691l46.19764,-35.55613" fill="none" stroke-width="1.5" stroke-linecap="round"/><path d="M488.81086,563.2618l46.53894,-36.63954" fill="none" stroke-width="1.5" stroke-linecap="round"/><path d="M483.65102,530.38595l21.35888,-16.75125" fill="none" stroke-width="1.5" stroke-linecap="round"/><path d="M503.33936,571.55963l36.52358,-28.98487" data-paper-data="{&quot;index&quot;:null}" fill="none" stroke-width="1.5" stroke-linecap="round"/><path d="M537.72113,533.38009l-42.26475,34.41332" data-paper-data="{&quot;index&quot;:null}" fill="none" stroke-width="1.5" stroke-linecap="round"/><path d="M536.89973,553.8522l-20.93349,17.2799" data-paper-data="{&quot;index&quot;:null}" fill="none" stroke-width="1.5" stroke-linecap="round"/></g></g><g stroke="#000000" stroke-width="2" stroke-linecap="butt"><path d="M443.08941,458.02021c0.30515,-0.31522 18.61635,23.18365 48.15486,57.98076c-2.0937,0.80182 -25.07966,22.23694 -6.0374,45.77568c20.3454,23.11421 43.99714,6.69574 45.37162,3.94143c27.37662,32.22729 50.07887,63.60133 66.98296,85.9123c2.29934,3.03482 -19.88253,18.16107 -46.05824,28.40516c-18.82791,7.36847 -36.42989,7.28493 -42.36879,4.11598c-20.57395,-10.97803 -40.33171,-27.16421 -57.06215,-47.95602c-50.01202,-62.15258 -40.03333,-154.61624 -8.98282,-178.17529z" fill="#ff0000"/><path d="M502.04531,681.78361c0,0 -55.34433,-33.19741 -74.35604,-83.23184c-22.09692,-58.15399 1.09768,-123.89502 1.09768,-123.89502c0,0 7.12276,58.09998 25.71679,81.20777c23.70282,29.45675 80.87719,100.51036 80.87719,100.51036z" fill="#000000"/></g><g data-paper-data="{&quot;index&quot;:null}" stroke="#000000" stroke-width="2" stroke-linecap="butt"><path d="M614.98752,505.10328c16.73045,20.79181 28.31415,43.55537 34.63573,66.00178c1.82482,6.47944 -1.85991,23.69166 -13.08634,40.50683c-15.60763,23.37755 -35.12988,41.80911 -37.60241,38.91366c-18.17726,-21.28653 -43.96714,-50.17612 -69.59018,-83.81436c2.98462,-0.7533 24.08359,-20.34418 5.85803,-45.16415c-18.91911,-23.6378 -44.77607,-5.77079 -46.00732,-3.8971c-27.67086,-36.29994 -46.70744,-59.21513 -46.3342,-59.44579c29.65733,-25.29044 122.11466,-15.25349 172.1267,46.89912z" fill="#ff0000"/><path d="M616.87388,590.80036c0,0 -57.17437,-71.0536 -80.87719,-100.51036c-18.59403,-23.10778 -73.82436,-42.49728 -73.82436,-42.49728c0,0 69.18144,-8.59075 121.2605,25.43761c44.80766,29.27732 65.39415,90.44316 65.39415,90.44316z" fill="#000000"/></g><g fill="#8b0000" stroke="#000000" stroke-width="2" stroke-linecap="butt"><path d="M472.98709,497.71142c5.21756,6.48414 2.65232,17.2081 -5.72957,23.95272c-8.3819,6.74462 -9.4984,19.26905 -24.62397,0.47172c-15.58642,-19.37007 -2.6523,-17.20812 5.7296,-23.95274c8.3819,-6.74462 19.40642,-6.95579 24.62394,-0.4717z"/><path d="M481.18201,472.71844c8.3819,-6.74462 9.03754,-19.84174 24.62394,-0.4717c15.12556,18.79734 2.65232,17.2081 -5.72957,23.95272c-8.3819,6.74462 -19.40644,6.95581 -24.62397,0.47172c-5.21756,-6.48414 -2.6523,-17.20812 5.7296,-23.95274z" data-paper-data="{&quot;index&quot;:null}"/><path d="M485.30036,487.80336c5.3448,6.64226 4.42119,16.25654 -2.0629,21.47406c-6.48414,5.21756 -16.07335,4.06258 -21.41815,-2.57968c-5.3448,-6.64226 -4.42116,-16.25656 2.06293,-21.47408c6.48414,-5.21756 16.07335,-4.06254 21.41813,2.5797z"/></g><path d="M368.31533,368.13908c41.03968,-33.02321 96.59202,-32.10151 124.07956,2.05871c27.48754,34.16022 16.50134,88.62316 -24.53837,121.64639c-41.03971,33.02323 -96.59202,32.10151 -124.07956,-2.05871c-27.48754,-34.16022 -16.50134,-88.62316 24.53837,-121.64639z" fill="#696969" stroke="#000000" stroke-width="2" stroke-linecap="butt"/><path d="M376.72139,377.27985c35.58357,-28.63286 83.10213,-28.63921 106.13565,-0.01424c23.03354,28.62499 12.85973,75.04164 -22.72384,103.6745c-35.58357,28.63286 -83.1021,28.63919 -106.13562,0.01422c-23.03354,-28.62499 -12.85975,-75.04162 22.72381,-103.67448z" fill="none" stroke="url(#color-61)" stroke-width="4.5" stroke-linecap="butt"/><g stroke="none" stroke-width="0" stroke-linecap="butt"><path d="M401.31024,455.08472l-42.85801,-53.26191l50.68471,-40.78423l42.85801,53.26191z" fill="url(#color-62)"/><path d="M415.14668,385.21636l-12.44264,-15.46312l6.01341,-4.83879l12.44264,15.46312z" fill="#ffffff"/><path d="M429.31746,402.82715l-12.44264,-15.46312l6.01341,-4.83879l12.44264,15.46312z" fill="#ffffff"/><path d="M443.14261,420.00839l-12.44264,-15.46312l6.01341,-4.83879l12.44264,15.46312z" fill="#ffffff"/><path d="M374.85458,416.93032l-12.44264,-15.46312l6.01344,-4.83881l12.44264,15.46312z" fill="#ffffff"/><path d="M389.02538,434.54113l-12.44264,-15.46312l6.01344,-4.83881l12.44264,15.46312z" fill="#ffffff"/><path d="M402.85055,451.7224l-12.44264,-15.46312l6.01344,-4.83881l12.44264,15.46312z" fill="#ffffff"/><path d="M427.324,432.59555l-4.14756,-5.15439l11.59734,-9.33198l4.14756,5.15439z" fill="#ffffff"/><path d="M413.88212,443.27023l-4.14756,-5.15439l11.59737,-9.332l4.14756,5.15439z" fill="#ffffff"/></g><path d="M345.32728,489.95329c-27.48754,-34.16022 -16.50132,-88.62313 24.53839,-121.64636c21.44511,-17.25613 -47.65451,55.31023 -1.92924,114.11526c37.78766,50.31092 88.84011,-7.69752 86.41763,-2.46523c8.04128,-0.97856 16.26892,9.18944 10.98125,13.44425c-41.03971,33.02323 -92.52039,30.71231 -120.00793,-3.4479z" fill="#ff0000" stroke="#000000" stroke-width="2" stroke-linecap="butt"/><path d="M495.0909,368.50019c27.48754,34.16022 18.72957,84.94313 -22.31012,117.96633c-5.28767,4.25481 -13.45969,-5.95791 -10.78319,-13.60357c5.88408,-2.75551 55.02733,-42.21009 20.89899,-83.88876c-47.65919,-57.24883 -133.3303,-5.27657 -111.88519,-22.5327c41.03971,-33.02323 96.59199,-32.10149 124.07953,2.05873z" data-paper-data="{&quot;index&quot;:null}" fill="#ff0000" stroke="#000000" stroke-width="2" stroke-linecap="butt"/><path d="M310.91116,292.1096c55.27312,-44.47636 125.87141,-48.48028 157.68568,-8.94301c31.81427,39.53727 41.22826,85.46884 -42.47599,152.12017c-88.41716,70.40412 -125.87138,48.48026 -157.68567,8.94296c-31.81427,-39.53727 -12.79714,-107.64377 42.47598,-152.12013z" fill="#696969" stroke="#000000" stroke-width="2" stroke-linecap="butt"/><path d="M331.71739,380.53779l-23.15715,-28.77861l61.42298,-49.42494l23.15715,28.77861z" fill="url(#color-63)" stroke="#000000" stroke-width="0" stroke-linecap="butt"/><path d="M375.99315,418.85244l-44.58615,-55.40957l44.67127,-35.94542l44.58615,55.40957z" fill="url(#color-64)" stroke="none" stroke-width="0" stroke-linecap="butt"/><path d="M373.38077,419.278l-71.0683,-54.09561l8.34811,-10.96733l71.0683,54.09561z" fill="url(#color-65)" stroke="none" stroke-width="0" stroke-linecap="butt"/><path d="M410.43813,388.74757l-37.63622,-80.99724l12.49958,-5.80808l37.63622,80.99729z" data-paper-data="{&quot;index&quot;:null}" fill="url(#color-66)" stroke="none" stroke-width="0" stroke-linecap="butt"/><path d="M365.95612,431.88239l-12.78827,-15.89266l70.01362,-56.33753l12.78827,15.89266z" fill="url(#color-67)" stroke="none" stroke-width="0" stroke-linecap="butt"/><path d="M358.7527,444.54506c-1.48286,2.32377 -3.8067,0.84088 -3.8067,0.84088l-0.80367,-0.55978c-2.74293,-1.15488 -6.0542,-3.17993 -9.07029,-3.57903c-1.16458,-0.15407 -4.48481,0.73032 -5.31249,0.74235c-11.37748,0.16522 -30.67445,-0.49133 -31.52005,-15.41411c2.05576,-3.14807 9.98515,-11.13071 7.54545,-15.784c-3.46347,-6.60591 -11.20816,-7.98922 -13.3707,-16.10341c-2.50472,-9.39796 2.79673,-19.7209 6.23139,-28.34646c0,0 1.02,-2.56098 3.58097,-1.54098c2.56098,1.02 1.54096,3.58095 1.54096,3.58095c-2.89526,7.26748 -8.16387,16.8997 -6.03851,24.8406c2.64131,9.86879 17.08554,11.40282 13.08931,23.82202c-0.42275,1.31376 -1.19734,2.49319 -1.92824,3.66382c-1.08023,1.7302 -3.96982,5.52206 -5.33973,7.34732c0.29734,3.61618 5.47165,5.56445 8.44464,6.68496c7.83145,2.95155 15.80076,0.03599 23.65483,1.0241c3.65722,0.46014 7.28366,2.57144 10.63154,3.98054l1.63041,0.99357c0,0 2.32377,1.4829 0.84088,3.8067z" fill="#000000" stroke="none" stroke-width="0.5" stroke-linecap="butt"/><path d="M348.39051,464.21634c-2.1962,1.66604 -3.8622,-0.53015 -3.8622,-0.53015l-0.55997,-0.80357c-2.17287,-2.03372 -4.57734,-5.08068 -7.26831,-6.50002c-1.03905,-0.54803 -4.46003,-0.86886 -5.24063,-1.14439c-10.72994,-3.78715 -28.60407,-11.08916 -24.22674,-25.38058c3.01919,-2.2408 13.22331,-6.98145 12.547,-12.19183c-0.96006,-7.39676 -7.74567,-11.37782 -6.96284,-19.73866c0.90672,-9.68366 9.45648,-17.5303 15.66712,-24.43146c0,0 1.84414,-2.04895 3.89304,-0.20476c2.04892,1.84416 0.20472,3.89303 0.20472,3.89303c-5.23398,5.81412 -13.51368,13.02419 -14.27143,21.20959c-0.94168,10.17264 12.07623,16.6164 4.02448,26.88164c-0.85178,1.08591 -1.98701,1.92387 -3.07823,2.76872c-1.61283,1.2487 -5.63724,3.80448 -7.55468,5.04204c-0.97399,3.49518 3.20463,7.11565 5.60526,9.19683c6.32366,5.48221 14.80951,5.50852 21.8347,9.15675c3.27125,1.69876 5.94145,4.93581 8.59373,7.41763l1.1852,1.49692c0,0 1.666,2.19615 -0.53022,3.86221z" fill="#000000" stroke="none" stroke-width="0.5" stroke-linecap="butt"/><path d="M441.3254,370.78781l-0.62167,-1.80531c-0.66009,-3.57187 -1.94658,-7.56608 -1.61351,-11.23703c0.71533,-7.88357 5.26854,-15.04445 4.06105,-23.32607c-0.45836,-3.14386 -1.25447,-8.61524 -4.72323,-9.67945c-2.07607,0.94761 -6.39841,2.95893 -8.3197,3.64395c-1.29991,0.46349 -2.61776,0.96777 -3.99153,1.09961c-12.98662,1.24631 -11.39451,-13.19161 -20.46956,-17.88335c-7.30221,-3.77523 -17.83874,-0.68969 -25.55738,0.58347c0,0 -2.71989,0.44843 -3.16832,-2.27147c-0.4484,-2.71991 2.27151,-3.16831 2.27151,-3.16831c9.16069,-1.50953 20.37892,-4.47936 29.02332,-0.02178c7.4635,3.84865 7.1577,11.70999 12.86954,16.50672c4.0235,3.37887 13.51788,-2.65883 17.03291,-3.99339c14.39626,4.01904 10.90868,23.00961 8.31277,34.0882c-0.18883,0.80597 -1.76321,3.86006 -1.86187,5.03061c-0.2555,3.03163 1.01413,6.69951 1.55538,9.62601l0.37483,0.90486c0,0 0.95136,2.58727 -1.6359,3.53859c-2.58727,0.95132 -3.53861,-1.63593 -3.53861,-1.63593z" data-paper-data="{&quot;index&quot;:null}" fill="#000000" stroke="none" stroke-width="0.5" stroke-linecap="butt"/><path d="M462.4107,366.20207l-1.20866,-1.47805c-1.8568,-3.12191 -4.44754,-6.42296 -5.40701,-9.98188c-2.06055,-7.64305 -0.27053,-15.938 -4.2727,-23.28824c-1.51932,-2.79034 -4.16185,-7.64693 -7.78449,-7.44332c-1.61914,1.60828 -4.97683,4.99258 -6.54171,6.30091c-1.05879,0.88519 -2.12026,1.81483 -3.36322,2.41453c-11.75034,5.66881 -15.25941,-8.42643 -25.39794,-9.68316c-8.15798,-1.01131 -16.97266,5.53396 -23.77202,9.40265c0,0 -2.39602,1.36309 -3.75907,-1.03297c-1.36304,-2.39606 1.03302,-3.75911 1.03302,-3.75911c8.07018,-4.59011 17.56448,-11.26291 27.21793,-10.07661c8.3347,1.02428 10.77166,8.50459 17.79167,11.02508c4.94498,1.77549 11.75926,-7.17794 14.59418,-9.64774c14.89703,-1.21803 18.20546,17.80454 19.60895,29.09635c0.10211,0.82145 -0.31648,4.23189 -0.00346,5.36417c0.81067,2.93235 3.27258,5.93309 4.79427,8.49079l0.6651,0.71894c0,0 1.78888,2.09731 -0.30848,3.88619c-2.09738,1.78885 -3.88619,-0.30848 -3.88619,-0.30848z" data-paper-data="{&quot;index&quot;:null}" fill="#000000" stroke="none" stroke-width="0.5" stroke-linecap="butt"/><path d="M397.68799,291.14076c9.77334,12.14585 7.54235,30.16247 -4.98306,40.24123c-12.52543,10.07878 -30.6021,8.40304 -40.37545,-3.74281c-9.77334,-12.14585 -7.54239,-30.16247 4.98302,-40.24123c12.52541,-10.07876 30.60215,-8.40304 40.37549,3.74282z" data-paper-data="{&quot;index&quot;:null}" fill="#ffffff" stroke="#000000" stroke-width="2" stroke-linecap="butt"/><path d="M385.41935,299.81431c5.17422,6.43028 4.36876,15.66639 -1.79907,20.62942c-6.1678,4.96302 -15.36235,3.77357 -20.53657,-2.65671c-5.17422,-6.43028 -4.36876,-15.66639 1.79904,-20.6294c6.1678,-4.96302 15.36237,-3.77359 20.53659,2.65669z" data-paper-data="{&quot;index&quot;:null}" fill="#000000" stroke="none" stroke-width="0" stroke-linecap="butt"/><path d="M297.24109,334.79163c12.52543,-10.07878 30.60215,-8.40304 40.37547,3.74279c9.77334,12.14585 7.54235,30.16247 -4.98306,40.24123c-12.52543,10.07878 -30.60213,8.40306 -40.37547,-3.74279c-9.77334,-12.14585 -7.54237,-30.16244 4.98306,-40.24123z" fill="#ffffff" stroke="#000000" stroke-width="2" stroke-linecap="butt"/><path d="M305.15506,344.27502c6.1678,-4.96302 15.36233,-3.77359 20.53655,2.65669c5.17422,6.43028 4.36874,15.66636 -1.79906,20.62938c-6.1678,4.96302 -15.36237,3.77359 -20.53657,-2.65666c-5.17422,-6.43028 -4.36871,-15.66638 1.79909,-20.6294z" fill="#000000" stroke="none" stroke-width="0" stroke-linecap="butt"/><path d="M336.6581,478.13865l-12.46044,-15.48525l149.04744,-119.93329l12.46044,15.48525c0,0 -11.17935,37.88804 -59.26067,75.95471c-52.93221,41.90715 -89.78674,43.97857 -89.78674,43.97857z" fill="url(#color-68)" stroke="none" stroke-width="0" stroke-linecap="butt"/><path d="M308.52719,293.54407c1.11935,-0.9007 38.73937,44.86489 70.69167,84.88661c-0.91642,0.02066 -1.64625,0.52176 -1.64625,0.52176c-12.7112,8.82162 -50.71961,40.09716 -58.23301,45.73501c-13.86607,9.7011 -27.5622,22.39994 -44.14674,27.51858c-2.39457,-2.67917 -4.72266,-5.44711 -6.99407,-8.26992c-31.81427,-39.53727 -13.75865,-106.87007 40.32835,-150.392zM289.28423,378.52787c7.51822,9.5728 29.80653,15.62552 48.5858,2.3326c6.71962,-4.75647 17.15723,-30.06503 -0.77819,-47.54705c-4.51476,-4.40065 -23.42355,-17.88783 -43.44426,0.2853c-10.7492,9.75722 -18.01773,27.54332 -4.36336,44.92914z" fill="#ff0000" stroke="#000000" stroke-width="2" stroke-linecap="butt"/><path d="M289.15654,378.63077c-13.65437,-17.38581 -6.36626,-35.39816 4.38294,-45.15538c20.02072,-18.17312 39.14751,-4.68431 43.66227,-0.28366c17.93541,17.48202 7.50372,43.02834 0.78411,47.78481c-18.77927,13.29293 -41.31109,7.22705 -48.82931,-2.34575z" data-paper-data="{&quot;noHover&quot;:false,&quot;origItem&quot;:[&quot;Path&quot;,{&quot;applyMatrix&quot;:true,&quot;segments&quot;:[[[441.7977,155.16587],[0,0],[-0.08774,7.42206]],[[463.98858,174.84783],[-14.00356,-0.86376],[5.01076,0.30908]],[[481.79554,151.96123],[1.83776,15.16202],[-0.4626,-3.81664]],[[461.04656,135.48855],[16.459,-0.98018],[-8.8369,0.52626]],[[441.7977,155.16585],[0.15934,-13.47972],[0,0]]],&quot;closed&quot;:true,&quot;fillColor&quot;:[0,0,0,1]}]}" fill="#000000" stroke="none" stroke-width="0.5" stroke-linecap="butt"/><path d="M420.9954,433.31425c-71.77267,67.11247 -113.6736,51.87586 -144.43975,19.9139c16.09542,-5.7817 29.54761,-17.88959 43.27707,-27.48309c7.67579,-5.75967 45.56979,-37.11487 58.11911,-45.65463c0,0 0.94383,-0.64808 1.19734,-1.71713c23.14449,29.04534 42.61508,54.222 41.84628,54.9409z" fill="#ff0000" stroke="#000000" stroke-width="2" stroke-linecap="butt"/><path d="M468.8657,283.41c2.27141,2.82281 4.47711,5.68923 6.58186,8.60161c-8.54873,15.10523 -23.88401,25.76695 -36.32737,37.23613c-7.1149,6.13308 -45.79874,36.56913 -57.1359,47.09834c0,0 -0.64563,0.60569 -0.86193,1.49648c-32.25789,-39.77578 -68.91401,-86.31703 -67.79469,-87.21771c54.087,-43.52193 123.72375,-46.75213 155.53804,-7.21483zM356.3138,282.01191c-22.03608,15.66852 -12.90719,37.0252 -9.57451,42.37703c13.23951,21.26065 40.19525,16.48009 46.27936,10.93385c17.00328,-15.50004 15.85974,-38.56732 8.11739,-47.95963c-14.06155,-17.05817 -32.99094,-13.76368 -44.82222,-5.35117z" data-paper-data="{&quot;index&quot;:null}" fill="#ff0000" stroke="#000000" stroke-width="2" stroke-linecap="butt"/><path d="M356.21648,281.88001c11.83128,-8.41251 30.98586,-11.67772 45.04741,5.38045c7.74235,9.39232 8.84663,32.70027 -8.15664,48.20032c-6.08411,5.54624 -33.27083,10.27015 -46.51034,-10.9905c-3.33268,-5.35183 -12.41652,-26.92182 9.61956,-42.59034z" data-paper-data="{&quot;noHover&quot;:false,&quot;origItem&quot;:[&quot;Path&quot;,{&quot;applyMatrix&quot;:true,&quot;segments&quot;:[[[510.53964,134.93675],[0,0],[-16.459,-0.98018]],[[489.79066,151.40941],[0.46262,-3.81664],[-1.83774,15.16202]],[[507.59762,174.29601],[-5.01076,0.30908],[14.00356,-0.86376]],[[529.7885,154.61407],[0.08774,7.422],[-0.15936,-13.47972]],[[510.53962,134.93679],[8.83692,0.52626],[0,0]]],&quot;closed&quot;:true,&quot;fillColor&quot;:[0,0,0,1]}]}" fill="#000000" stroke="none" stroke-width="0.5" stroke-linecap="butt"/><path d="M381.06363,377.74022c1.09853,-0.01889 1.93351,-0.8022 1.93351,-0.8022c11.02717,-10.43142 49.76439,-40.7387 57.03309,-47.00434c12.30906,-11.3588 27.01487,-21.90871 36.10659,-36.39423c24.63866,36.89253 30.55677,81.08327 -50.35861,136.83356c-0.86676,0.59722 -21.29417,-23.80952 -44.71457,-52.63284z" data-paper-data="{&quot;index&quot;:null}" fill="#ff0000" stroke="#000000" stroke-width="2" stroke-linecap="butt"/><path d="M356.98836,349.87446c16.13119,-12.98021 39.73068,-10.42583 52.71091,5.70539c12.98021,16.13119 10.42586,39.73066 -5.70536,52.71089c-16.13119,12.98021 -39.73073,10.42587 -52.71094,-5.70532c-12.98021,-16.13119 -10.42583,-39.73072 5.70539,-52.71096z" fill="#ff7b00" stroke="#000000" stroke-width="2" stroke-linecap="butt"/><path d="M323.68082,352.07965c3.54863,4.41007 2.9933,10.74681 -1.24037,14.1535c-4.23367,3.40669 -10.54247,2.59328 -14.09111,-1.81679c-3.54863,-4.41007 -2.9933,-10.74681 1.24037,-14.1535c4.23367,-3.40669 10.54247,-2.59328 14.09111,1.81679z" fill="#000000" stroke="#ff0000" stroke-width="1.5" stroke-linecap="butt"/><path d="M383.85389,302.60803c3.54863,4.41007 2.9933,10.74681 -1.24037,14.1535c-4.23367,3.40669 -10.54247,2.59328 -14.09111,-1.81679c-3.54863,-4.41007 -2.9933,-10.74681 1.24037,-14.1535c4.23367,-3.40669 10.54247,-2.59328 14.09111,1.81679z" fill="#000000" stroke="#ff0000" stroke-width="1.5" stroke-linecap="butt"/></g></g></g></svg>