<svg version="1.1" xmlns="http://www.w3.org/2000/svg" xmlns:xlink="http://www.w3.org/1999/xlink" width="1094.45446" height="982.39771" viewBox="0,0,1094.45446,982.39771"><defs><linearGradient x1="223.44085" y1="424.25472" x2="222.02638" y2="451.47654" gradientUnits="userSpaceOnUse" id="color-1"><stop offset="0" stop-color="#5c5c5c"/><stop offset="1" stop-color="#9b9b9b"/></linearGradient><linearGradient x1="262.68699" y1="511.82596" x2="283.83172" y2="529.02834" gradientUnits="userSpaceOnUse" id="color-2"><stop offset="0" stop-color="#5c5c5c"/><stop offset="1" stop-color="#9b9b9b"/></linearGradient><linearGradient x1="176.94059" y1="509.97006" x2="154.12686" y2="524.88856" gradientUnits="userSpaceOnUse" id="color-3"><stop offset="0" stop-color="#5c5c5c"/><stop offset="1" stop-color="#9b9b9b"/></linearGradient><linearGradient x1="191.65228" y1="727.68563" x2="224.05916" y2="729.36948" gradientUnits="userSpaceOnUse" id="color-4"><stop offset="0" stop-color="#5c5c5c"/><stop offset="1" stop-color="#9b9b9b"/></linearGradient><linearGradient x1="234.58873" y1="329.68829" x2="232.35146" y2="372.74557" gradientUnits="userSpaceOnUse" id="color-5"><stop offset="0" stop-color="#a6a6a6"/><stop offset="1" stop-color="#707070"/></linearGradient><linearGradient x1="233.90765" y1="318.83505" x2="232.89792" y2="338.26763" gradientUnits="userSpaceOnUse" id="color-6"><stop offset="0" stop-color="#a6a6a6"/><stop offset="1" stop-color="#707070"/></linearGradient><linearGradient x1="334.41912" y1="443.58962" x2="374.8238" y2="445.68908" gradientUnits="userSpaceOnUse" id="color-7"><stop offset="0" stop-color="#5c5c5c"/><stop offset="1" stop-color="#9b9b9b"/></linearGradient><linearGradient x1="94.92773" y1="428.6076" x2="54.52306" y2="426.50816" gradientUnits="userSpaceOnUse" id="color-8"><stop offset="0" stop-color="#5c5c5c"/><stop offset="1" stop-color="#9b9b9b"/></linearGradient><linearGradient x1="169.58089" y1="603.32622" x2="257.68194" y2="607.90399" gradientUnits="userSpaceOnUse" id="color-9"><stop offset="0" stop-color="#004184"/><stop offset="1" stop-color="#0023e3"/></linearGradient><linearGradient x1="198.30695" y1="423.15396" x2="248.2091" y2="425.74689" gradientUnits="userSpaceOnUse" id="color-10"><stop offset="0" stop-color="#004184"/><stop offset="1" stop-color="#0023e3"/></linearGradient><linearGradient x1="277.45638" y1="252.07972" x2="272.49554" y2="344.72644" gradientUnits="userSpaceOnUse" id="color-11"><stop offset="0" stop-color="#a6a6a6"/><stop offset="1" stop-color="#707070"/></linearGradient><linearGradient x1="188.44418" y1="248.96621" x2="183.48336" y2="341.61299" gradientUnits="userSpaceOnUse" id="color-12"><stop offset="0" stop-color="#a6a6a6"/><stop offset="1" stop-color="#707070"/></linearGradient><linearGradient x1="230.74615" y1="164.43775" x2="228.9236" y2="202.76621" gradientUnits="userSpaceOnUse" id="color-13"><stop offset="0" stop-color="#a6a6a6"/><stop offset="1" stop-color="#707070"/></linearGradient><linearGradient x1="237.12085" y1="189.10272" x2="233.61174" y2="262.89925" gradientUnits="userSpaceOnUse" id="color-14"><stop offset="0" stop-color="#a6a6a6"/><stop offset="1" stop-color="#707070"/></linearGradient><linearGradient x1="182.76135" y1="167.23682" x2="200.74668" y2="258.25638" gradientUnits="userSpaceOnUse" id="color-15"><stop offset="0" stop-color="#a6a6a6"/><stop offset="1" stop-color="#707070"/></linearGradient><linearGradient x1="293.71833" y1="175.37983" x2="267.1775" y2="264.28204" gradientUnits="userSpaceOnUse" id="color-16"><stop offset="0" stop-color="#a6a6a6"/><stop offset="1" stop-color="#707070"/></linearGradient><linearGradient x1="233.59716" y1="245.69777" x2="232.59067" y2="266.86419" gradientUnits="userSpaceOnUse" id="color-17"><stop offset="0" stop-color="#a6a6a6"/><stop offset="1" stop-color="#707070"/></linearGradient><linearGradient x1="-99.77321" y1="366.82848" x2="-131.70076" y2="329.87176" gradientUnits="userSpaceOnUse" id="color-18"><stop offset="0" stop-color="#5c5c5c"/><stop offset="1" stop-color="#9b9b9b"/></linearGradient><linearGradient x1="-225.68072" y1="333.2236" x2="-212.33154" y2="295.95749" gradientUnits="userSpaceOnUse" id="color-19"><stop offset="0" stop-color="#5c5c5c"/><stop offset="1" stop-color="#9b9b9b"/></linearGradient><linearGradient x1="-25.65547" y1="436.01377" x2="-21.53118" y2="396.64434" gradientUnits="userSpaceOnUse" id="color-20"><stop offset="0" stop-color="#5c5c5c"/><stop offset="1" stop-color="#9b9b9b"/></linearGradient><linearGradient x1="532.88119" y1="448.72772" x2="575.76337" y2="425.35517" gradientUnits="userSpaceOnUse" id="color-21"><stop offset="0" stop-color="#5c5c5c"/><stop offset="1" stop-color="#9b9b9b"/></linearGradient><linearGradient x1="660.54553" y1="465.66583" x2="662.51783" y2="426.13012" gradientUnits="userSpaceOnUse" id="color-22"><stop offset="0" stop-color="#5c5c5c"/><stop offset="1" stop-color="#9b9b9b"/></linearGradient><linearGradient x1="451.86069" y1="460.7962" x2="451.82592" y2="421.21137" gradientUnits="userSpaceOnUse" id="color-23"><stop offset="0" stop-color="#5c5c5c"/><stop offset="1" stop-color="#9b9b9b"/></linearGradient></defs><g transform="translate(331.189,94.09215)"><g data-paper-data="{&quot;isPaintingLayer&quot;:true}" fill-rule="nonzero" stroke-linejoin="miter" stroke-miterlimit="10" stroke-dasharray="" stroke-dashoffset="0" style="mix-blend-mode: normal"><path d="M228.07563,308.88889c26.01259,1.92011 57.67902,66.54941 107.35705,147.83173c37.90969,62.02719 100.14343,131.89498 96.5017,201.98133c-8.41392,161.9296 -111.28609,228.58799 -233.58257,222.23342c-122.29644,-6.35459 -217.70605,-83.31581 -209.29209,-245.24538c4.48328,-86.28238 72.2729,-144.8822 129.34934,-207.82248c50.04124,-55.18221 88.87257,-120.51357 109.66657,-118.97865z" fill="#696969" stroke="#000000" stroke-width="2" stroke-linecap="butt"/><path d="M84.6211,444.3369l1.41446,-27.22182l274.81064,14.27928l-1.41446,27.22182z" fill="url(#color-1)" stroke="none" stroke-width="0" stroke-linecap="butt"/><path d="M200.42996,588.34959l124.51385,-153.04741l21.14464,17.20261l-124.51389,153.04736z" fill="url(#color-2)" stroke="none" stroke-width="0" stroke-linecap="butt"/><path d="M208.11753,607.45255l-107.98135,-165.12804l22.81367,-14.91844l107.98135,165.12804z" data-paper-data="{&quot;index&quot;:null}" fill="url(#color-3)" stroke="none" stroke-width="0" stroke-linecap="butt"/><path d="M183.85206,877.80416l15.60045,-300.237l32.40692,1.68389l-15.60044,300.23706z" fill="url(#color-4)" stroke="none" stroke-width="0" stroke-linecap="butt"/><path d="M196.13343,604.31116c1.92737,4.46979 -2.5423,6.39714 -2.5423,6.39714l-3.13979,1.08374c-8.20089,7.18418 -13.3371,17.22074 -19.4938,26.26978c-22.47017,32.69043 -69.03684,26.18128 -84.84586,-9.84733c-8.87959,-20.23653 2.41624,-50.25608 14.5564,-66.39737c18.28338,-27.54143 21.23286,-51.64803 14.63019,-83.53082c-1.67957,-8.11037 -5.51976,-20.65178 -12.81793,-26.96917c1.31774,-0.86273 1.94754,-2.22712 1.94754,-2.22712c0.8928,-2.00006 1.98873,-3.94917 3.31743,-5.70463c7.13002,5.76583 11.56714,15.04559 14.6257,24.12811c12.10167,35.93602 6.93512,68.62879 -13.75227,99.9217c-10.47476,13.90302 -18.05252,34.96547 -15.19691,52.93235c0.79632,5.0103 4.61812,9.14835 7.83194,12.6477c5.70023,6.2066 11.61634,14.07666 20.25455,16.4469c17.06537,4.68262 32.20292,-3.19773 41.40061,-16.87648c6.69345,-9.83753 12.24715,-20.09597 21.06716,-28.06265l5.76039,-2.75404c0,0 4.46972,-1.92742 6.39712,2.54236z" fill="#000000" stroke="none" stroke-width="0.5" stroke-linecap="butt"/><path d="M224.23415,586.41091c4.86105,0.25258 4.60847,5.11363 4.60847,5.11363l-0.44695,3.68447c-4.09636,10.31161 -5.99147,21.71507 -11.08479,31.63205c-2.79733,5.44658 -10.68335,12.68228 -10.36852,19.68227c0.32395,7.20354 7.17477,13.98168 11.35968,19.13843c9.44109,11.63335 21.13753,20.8803 30.88758,32.34408c1.77835,5.28983 4.52585,10.64665 3.10017,16.51274c-5.13735,21.13883 -37.24595,31.60744 -54.19862,41.12794c-4.93881,2.77362 -11.75269,3.17632 -15.14015,7.71624c-1.00529,1.34721 0.37835,3.34578 0.72835,4.98989c1.83196,8.60703 4.07487,15.32861 8.61886,22.87136c4.47111,7.42173 8.50993,12.03849 15.47176,17.14348c0,0 3.91999,2.88565 1.03429,6.80565c-2.88575,3.92 -6.80569,1.03419 -6.80569,1.03419c-7.9436,-5.86826 -12.9399,-11.47975 -18.04129,-19.96332c-4.56814,-7.59681 -15.23798,-28.22597 -9.44577,-37.73393c0.92135,-1.51242 16.41605,-10.00576 18.81278,-11.35166c16.19877,-9.09711 54.9834,-20.76259 47.3995,-44.34587c-13.47263,-15.22645 -42.68056,-33.5298 -43.51607,-56.18311c-0.34896,-9.46144 7.57122,-16.7417 11.49532,-24.33581c4.93228,-9.54513 6.70625,-20.70876 10.64151,-30.66972l-0.2241,-0.60446c0,0 0.25257,-4.86099 5.11362,-4.60841z" fill="#000000" stroke="none" stroke-width="0.5" stroke-linecap="butt"/><path d="M338.03363,439.6729c0.36422,5.11989 -4.75559,5.48411 -4.75559,5.48411l-3.76674,0.19779c-13.87644,3.34106 -24.13878,9.55564 -35.93683,17.62513c-0.25998,0.17786 -11.27505,6.69186 -10.75362,9.88331c0.26956,1.65023 3.16401,1.17202 4.55663,2.0975c2.84995,1.89387 5.41987,4.17909 8.09647,6.31098c11.46844,9.13476 26.96384,7.42529 41.44804,8.88873c4.22671,0.65381 8.96704,-0.16136 12.68005,1.96132c2.56797,1.46807 2.98342,5.11289 4.31467,7.75441c2.85026,5.6558 14.70418,25.55659 13.18311,31.41184c-1.13696,4.37637 -6.71152,6.06793 -10.22807,8.9103c-6.89552,5.57366 -17.867,15.72272 -26.07882,18.82681c-12.50054,4.72525 -37.70656,3.90946 -50.47081,0.63997c-7.55943,-1.93628 -14.39475,-6.06435 -21.57028,-9.33054c-5.7834,7.15325 -12.67362,13.16765 -21.23222,16.66534c-0.62433,1.14872 -2.59836,3.9426 -6.43893,2.42126c-4.77198,-1.89034 -2.8817,-6.66238 -2.8817,-6.66238l3.79493,-4.6406c6.77087,-2.20626 12.2698,-6.57711 16.96325,-11.92757c-1.14283,-0.96215 -2.1947,-2.61391 -1.39397,-5.25663c1.48831,-4.91227 6.40056,-3.42392 6.40056,-3.42392c0.42341,0.12875 0.84725,0.25991 1.27142,0.39341c3.40183,-5.08683 6.3892,-10.46524 9.24354,-15.42007c-0.93592,-9.91712 -11.4703,-8.7209 -19.75847,-9.33546c-3.5141,-0.26059 -7.33191,-0.30242 -11.31243,-0.2609c6.20121,11.87977 11.34039,23.7895 5.03952,36.07352c-3.17338,6.18685 -5.0684,7.05218 -10.11158,11.55164l-5.2142,2.89604c0,0 -4.50072,2.4675 -6.96825,-2.03327c-2.46757,-4.50072 2.03327,-6.96825 2.03327,-6.96825l4.22973,-2.28149c13.11167,-11.65368 7.16917,-25.1818 -0.01331,-39.02244c-11.42325,0.22656 -23.11749,0.16745 -32.15629,-2.97983c-13.55296,-4.71919 -6.04887,-19.09963 -3.25538,-28.44822c6.17039,-20.64928 13.3038,-37.28842 33.25223,-47.44122c2.80693,-1.40754 7.18485,-3.32445 11.82192,-5.66973c2.21319,-4.25192 4.75582,-8.35044 7.88201,-12.23216c2.487,-3.08796 6.65565,-4.78661 5.88898,-9.5526c-2.2803,-14.17488 -18.86921,-26.95478 -24.90823,-39.87547c-8.55289,-18.29915 3.57928,-33.9667 -0.57356,-52.0839c0,0 -1.10646,-5.01207 3.9056,-6.11858c1.50127,-0.33143 2.65211,-0.11389 3.52777,0.35342c0.91708,-1.21572 2.56973,-2.42923 5.34151,-1.65304c4.94263,1.38413 3.55855,6.32678 3.55855,6.32678c-4.68973,16.70585 -9.1118,35.36393 -3.02062,52.50518c5.82565,16.394 39.73388,30.92449 26.98506,52.47089c-2.08471,3.52335 -5.56269,6.04696 -8.73932,8.62947c-2.78246,2.26191 -6.02598,3.88869 -9.04301,5.82665c-0.85595,0.54987 -1.7167,1.09258 -2.58196,1.62828c-3.01935,5.96431 -5.21041,12.23942 -7.71315,18.52176c-5.9872,9.85935 -12.46778,20.36735 -10.56681,32.54393c0.83734,5.3634 3.02237,10.68102 5.63577,15.98342c14.68013,0.03736 40.40644,-1.33521 45.79384,12.12236c1.30731,3.26567 0.74382,6.99576 1.11572,10.49364c-2.82283,5.60028 -5.8862,11.38505 -9.38337,16.87997c19.80995,7.25773 40.45762,16.22946 61.99313,8.08894c8.18796,-3.09513 16.20024,-12.79893 23.65197,-17.51296c2.00322,-1.26723 5.75287,-0.90875 6.3489,-3.20295c0.59598,-2.29422 -2.85402,-3.80611 -3.98715,-5.88813c-5.8508,-10.75026 -4.60916,-22.27707 -17.28684,-22.44471c-10.34581,-1.04528 -28.04663,0.61316 -37.38564,-3.97907c-0.72228,-0.35517 -16.23931,-12.29679 -17.43792,-13.33771c-2.87137,-2.49363 -7.78077,-4.10888 -8.24767,-7.88307c-1.32659,-10.72162 8.20067,-15.87488 14.88332,-20.61422c12.63242,-8.95895 24.37458,-15.56313 39.40526,-19.18518l5.44217,-0.45732c0,0 5.11989,-0.36426 5.48414,4.7556zM224.85154,443.40684c-17.21105,8.51369 -22.74689,23.50915 -28.03284,41.23539c-1.24859,4.18703 -4.77284,11.06369 -4.646,15.49033c0.09793,3.41948 6.83068,0.39665 10.24863,0.53928c4.67667,0.1952 9.3503,0.45562 14.02403,0.71434c-2.1558,-4.62864 -3.89315,-9.24324 -4.5532,-13.78604c-2.11898,-14.58365 4.19502,-26.89811 11.4931,-38.86468c0.75622,-1.92133 1.50257,-3.83254 2.25784,-5.72892c-0.26366,0.13402 -0.52751,0.26744 -0.79159,0.40032z" fill="#000000" stroke="none" stroke-width="0.5" stroke-linecap="butt"/><g><path d="M141.71222,631.93048l6.87022,-132.22023l137.72939,7.15648l-6.87022,132.22023z" fill="#323232" stroke="none" stroke-width="0" stroke-linecap="butt"/><g stroke="#000000"><path d="M216.44545,512.60066c29.42398,1.52889 52.03751,26.62125 50.50862,56.04527c-1.52889,29.42398 -26.62124,52.03755 -56.04522,50.50866c-29.42398,-1.52889 -52.0375,-26.62132 -50.50864,-56.04525c1.52889,-29.42398 26.62129,-52.03756 56.04522,-50.50868z" fill="#878787" stroke-width="1" stroke-linecap="butt"/><path d="M256.87178,535.1657l-82.24982,-3.71665" fill="none" stroke-width="1.5" stroke-linecap="round"/><path d="M263.31448,550.54072l-96.08073,-5.54943" fill="none" stroke-width="1.5" stroke-linecap="round"/><path d="M161.62761,556.39785l102.66071,7.56249" fill="none" stroke-width="1.5" stroke-linecap="round"/><path d="M265.62353,574.89221l-104.38511,-6.53794" fill="none" stroke-width="1.5" stroke-linecap="round"/><path d="M240.96843,522.08861l-47.83139,-3.08525" fill="none" stroke-width="1.5" stroke-linecap="round"/><path d="M170.59846,596.37575l82.19207,4.82781" data-paper-data="{&quot;index&quot;:null}" fill="none" stroke-width="1.5" stroke-linecap="round"/><path d="M164.65361,582.14076l96.13846,4.43837" data-paper-data="{&quot;index&quot;:null}" fill="none" stroke-width="1.5" stroke-linecap="round"/><path d="M187.72382,610.67344l47.89363,1.8887" data-paper-data="{&quot;index&quot;:null}" fill="none" stroke-width="1.5" stroke-linecap="round"/></g></g><path d="M229.80633,315.14649c-4.65454,0.16224 -8.1893,93.59731 -11.63643,204.90017c-0.30025,-0.02077 -0.60138,-0.03908 -0.90316,-0.05476c-28.30939,-1.47097 -52.45116,20.28589 -53.92212,48.59521c-1.47097,28.30939 20.28588,52.45107 48.59529,53.92204c1.05154,0.05464 2.09726,0.07726 3.13635,0.06866c-4.12138,136.21996 -8.55118,265.92947 -14.99369,264.61518c-119.99006,-24.47852 -217.70608,-83.3158 -209.29215,-245.24537c4.3997,-84.67379 61.82791,-137.92526 117.74524,-200.60173c51.0186,-57.18559 100.0345,-127.76689 121.27071,-126.19935z" fill="#ffe400" stroke="#000000" stroke-width="2" stroke-linecap="butt"/><path d="M435.78695,665.06978c-8.41392,161.9296 -111.70178,210.32263 -233.58256,222.23343c-6.54402,0.63954 2.49327,-128.83057 12.51209,-264.74408c1.03261,0.11623 2.07509,0.2022 3.12657,0.25684c28.30939,1.47097 52.45116,-20.28589 53.92212,-48.59521c1.47097,-28.30939 -20.28588,-52.45109 -48.5953,-53.92205c-0.30181,-0.01568 -0.60314,-0.02871 -0.90397,-0.03913c8.10693,-111.06071 14.27495,-204.35898 9.66231,-205.00276c23.25895,0.70134 46.41285,64.38863 94.17482,136.03458c43.84884,65.7759 113.71119,136.27214 109.68393,213.77848z" data-paper-data="{&quot;index&quot;:null}" fill="#ffe400" stroke="#000000" stroke-width="2" stroke-linecap="butt"/><path d="M207.7473,371.46713l2.23727,-43.05726l49.20833,2.55688l-2.23727,43.05726z" fill="url(#color-5)" stroke="none" stroke-width="0" stroke-linecap="butt"/><path d="M185.4804,335.80379l1.00973,-19.43257l94.83502,4.92767l-1.00973,19.43257z" fill="url(#color-6)" stroke="none" stroke-width="0" stroke-linecap="butt"/><path d="M374.8238,445.68908c-0.57975,11.15747 -10.09463,19.73239 -21.25202,19.15265c-11.15741,-0.57976 -19.73235,-10.09468 -19.15263,-21.25207c0.57974,-11.15745 10.09459,-19.73235 21.25209,-19.15261c11.15741,0.57976 19.73232,10.0946 19.15257,21.25204z" fill="url(#color-7)" stroke="none" stroke-width="0" stroke-linecap="butt"/><path d="M75.77509,407.35555c11.15744,0.57974 19.73239,10.09456 19.15265,21.25202c-0.57976,11.15741 -10.09464,19.7324 -21.25207,19.15265c-11.15741,-0.57976 -19.73232,-10.0946 -19.15257,-21.25205c0.57974,-11.15744 10.09464,-19.73231 21.252,-19.15257z" data-paper-data="{&quot;index&quot;:null}" fill="url(#color-8)" stroke="none" stroke-width="0" stroke-linecap="butt"/><path d="M223.77203,410.45453c24.32838,1.2641 17.4694,208.08507 27.77478,315.52158c1.26929,13.23278 -23.72763,76.06367 -48.05605,74.79955c-24.3284,-1.26412 -41.79202,-45.75415 -37.73844,-86.10655c10.78775,-107.3891 33.69124,-305.4787 58.01971,-304.21458z" fill="url(#color-9)" stroke="#000000" stroke-width="1" stroke-linecap="butt"/><path d="M153.067,400.63248c0.9007,-17.33406 34.04112,-29.70201 74.02128,-27.62461c39.98014,2.07738 71.66029,17.81344 70.75962,35.14751c-0.64497,12.41258 -17.82154,22.27867 -42.20315,26.11768c-4.59142,0.72297 -15.49916,-41.04027 -29.06649,-41.84122c-14.99842,-0.88542 -32.76818,39.06965 -38.22732,37.42119c-21.63706,-6.53359 -35.89231,-17.51251 -35.28398,-29.22048z" fill="#ffffff" stroke="#000000" stroke-width="2" stroke-linecap="butt"/><path d="M224.59267,398.7655c13.78015,0.71602 25.32945,2.18073 23.61649,26.98143c-1.48536,21.50489 -12.5056,25.10449 -26.28571,24.3885c-13.78015,-0.71602 -24.57604,-4.34712 -23.61649,-26.98143c1.02189,-24.10604 12.5056,-25.10449 26.28571,-24.3885z" fill="url(#color-10)" stroke="#000000" stroke-width="1" stroke-linecap="butt"/><path d="M301.73905,-1.72962c-23.49165,29.12569 -47.57962,48.66832 -53.80194,43.64965c-6.22234,-5.01864 7.77727,-32.69816 31.26891,-61.82386c23.49164,-29.12571 68.19489,-32.04086 74.41723,-27.02218c6.22234,5.01868 -28.39252,16.07072 -51.88418,45.19638z" fill="#ffe400" stroke="#000000" stroke-width="1" stroke-linecap="butt"/><path d="M261.95889,-25.27697c2.07823,37.36099 -2.7073,68.00804 -10.68908,68.45202c-7.98169,0.44403 -16.13689,-29.48309 -18.21514,-66.84415c-2.07821,-37.36107 29.15164,-69.47905 37.13329,-69.92305c7.98168,-0.444 -10.30736,30.95421 -8.22916,68.31518z" fill="#ffe400" stroke="#000000" stroke-width="1" stroke-linecap="butt"/><path d="M226.81044,-25.39065c21.19572,30.83676 33.03775,59.50574 26.44993,64.03389c-6.58788,4.52819 -29.11098,-16.79916 -50.30663,-47.63592c-21.19571,-30.83674 -11.2114,-74.50814 -4.62352,-79.0363c6.58788,-4.52819 7.28456,31.80161 28.48024,62.63836z" fill="#ffe400" stroke="#000000" stroke-width="1" stroke-linecap="butt"/><path d="M47.77774,209.41507c4.44003,-93.37325 138.62655,-194.13611 199.7672,-192.61533c57.54643,2.75863 176.57662,116.92666 172.1366,210.29982c-4.44002,93.3733 -91.29289,165.10849 -193.99123,160.22504c-102.69837,-4.88343 -182.35254,-84.53623 -177.91251,-177.90949z" data-paper-data="{&quot;index&quot;:null}" fill="#696969" stroke="#000000" stroke-width="2" stroke-linecap="butt"/><path d="M265.34687,344.34362l4.96079,-92.64663l14.29734,0.7656l-4.96075,92.64663z" fill="url(#color-11)" stroke="none" stroke-width="0" stroke-linecap="butt"/><path d="M176.33462,341.23012l4.96079,-92.64663l14.29733,0.76556l-4.96081,92.64669z" fill="url(#color-12)" stroke="none" stroke-width="0" stroke-linecap="butt"/><path d="M207.84145,215.67158c-0.02872,2.2356 -2.26439,2.20697 -2.26439,2.20697l-1.54681,-0.02002c-10.95348,-0.04638 -23.00926,0.0944 -30.69094,9.0798c-7.93423,9.05991 -17.48481,6.0961 -25.65288,12.88465c-3.09147,2.56936 -5.17463,9.72131 -8.84423,12.01737c1.48597,4.96577 5.43961,8.47505 12.81033,8.07069c0.26888,-0.01477 6.20307,-0.92522 6.90436,-1.45243c3.51228,-2.64039 5.72928,-15.7627 9.5755,-20.38685c5.50767,-2.44922 10.35584,-1.36823 16.05949,-2.48902c8.04889,-1.5818 13.93653,-7.1147 20.16839,-11.9601l1.63225,-1.30824c0,0 1.7447,-1.39808 3.14284,0.3467c1.39811,1.74479 -0.34666,3.1429 -0.34666,3.1429l-1.68384,1.34883c-6.8759,5.34584 -13.29091,11.06737 -22.14706,12.83546c-4.74862,0.94806 -9.55814,-0.28823 -14.1033,1.63095c-3.89449,5.18524 -4.86465,16.37933 -9.20464,20.06851c-5.93735,5.04693 -21.09736,4.18558 -24.68821,-2.89793c-1.01715,-2.00655 -1.7937,-4.00288 -2.33976,-5.98391c-9.79139,0.41697 -15.35029,-8.45742 -19.85749,-15.80443c-0.73071,-1.19109 -5.08798,-8.07245 -4.99582,-9.01066c0.09211,-0.93824 5.70452,-6.84083 6.65295,-7.86705c0.65066,-0.70408 6.25589,-6.83769 6.76365,-7.07546c5.05113,-2.36508 12.85955,1.32886 17.74817,-0.85415c5.46964,-2.44247 10.2767,-16.05517 14.38886,-20.63143c6.07677,-6.76265 15.78377,-7.89409 23.89408,-11.0066c0,0 2.08742,-0.80104 2.88841,1.28633c0.05189,0.13521 0.09174,0.26499 0.12069,0.38958c0.28822,-0.03208 0.57308,-0.06618 0.85414,-0.10308c0,0 2.21684,-0.29058 2.50737,1.92633c0.29049,2.21685 -1.92633,2.50737 -1.92633,2.50737c-5.28314,0.69204 -14.34254,-0.11419 -18.29351,4.27662c-8.39363,9.32797 0.53471,24.72848 -8.14225,33.26785c-3.50044,3.44497 -9.44147,4.79542 -13.91853,6.61291c-3.11829,4.42228 -5.11012,10.3746 -5.16277,15.75316c2.81211,-3.53417 7.26492,-11.59098 10.30847,-12.99701c9.03685,-4.17488 14.47605,-1.42283 21.52195,-9.48235c8.86765,-9.9444 21.56297,-10.65979 34.07514,-10.60677l1.5854,0.02028c0,0 2.2356,0.02872 2.20685,2.26432zM143.05972,216.12789c-9.84604,4.77647 -15.0232,-1.9841 -23.35411,7.03076c-1.72098,1.86224 -5.23886,2.74555 -5.48668,5.26899c-0.24774,2.52349 3.03129,4.07417 4.35722,6.23551c4.07259,6.63872 7.09776,12.80413 15.17536,13.44357c-0.69469,-7.32435 1.73982,-14.37679 6.77556,-20.88962c4.1023,-1.88025 10.22419,-3.17677 13.53974,-6.27557c6.14408,-5.74266 2.32023,-17.1859 4.46526,-26.2571c-4.71007,5.4454 -8.98741,18.29758 -15.47235,21.44353z" fill="#000000" stroke="none" stroke-width="0.5" stroke-linecap="butt"/><path d="M250.84545,212.57261l1.5801,0.13027c12.46076,1.13452 25.03085,3.05125 32.91493,13.79221c6.24945,8.69176 11.92519,6.46837 20.52507,11.48179c2.89644,1.68848 6.5646,10.1314 9.02867,13.91651c0.45799,-5.35928 -0.9601,-11.4737 -3.64475,-16.17196c-4.28437,-2.23412 -10.07041,-4.14217 -13.22821,-7.90377c-7.82751,-9.32414 2.5218,-23.8079 -4.94884,-33.89026c-3.51651,-4.74592 -12.61153,-4.80301 -17.80515,-5.99327c0,0 -2.17931,-0.49954 -1.67972,-2.67883c0.49954,-2.17929 2.67889,-1.67974 2.67889,-1.67974c0.27637,0.06339 0.55668,0.12446 0.84051,0.18369c0.04067,-0.12127 0.09258,-0.24664 0.15704,-0.37641c0.99552,-2.00193 2.99743,-1.00645 2.99743,-1.00645c7.7784,3.86803 17.33419,5.91538 22.74189,13.2242c3.65932,4.94586 7.15307,18.95324 12.36627,21.90369c4.65942,2.63707 12.78309,-0.29932 17.58701,2.53435c0.48297,0.28488 5.48093,6.92265 6.06183,7.68534c0.84673,1.11159 5.87369,7.52011 5.87636,8.46285c0.00269,0.94274 -4.98789,7.37951 -5.82832,8.49595c-5.184,6.88627 -11.55993,15.1931 -21.2676,13.84888c-0.73152,1.92025 -1.69397,3.83393 -2.89694,5.73488c-4.24678,6.71095 -19.42015,6.12981 -24.85177,0.54221c-3.97036,-4.08433 -3.8739,-15.31997 -7.25886,-20.85138c-4.34251,-2.34182 -9.24769,-1.56745 -13.88492,-2.96183c-8.64834,-2.6004 -14.49142,-8.90488 -20.82917,-14.87907l-1.54816,-1.50261c0,0 -1.60423,-1.55734 -0.04689,-3.16156c1.55736,-1.60426 3.16157,-0.04692 3.16157,-0.04692l1.50074,1.45723c5.74405,5.41492 11.08011,11.48151 18.94254,13.81988c5.57157,1.65708 10.50049,1.04086 15.7509,4.00164c3.39009,4.96826 4.35195,18.24171 7.59782,21.20345c0.64818,0.59138 6.46914,2.06081 6.73538,2.10105c7.29909,1.10197 11.56783,-2.01642 13.51827,-6.81871c-3.43522,-2.63386 -4.83027,-9.95125 -7.66397,-12.80229c-7.48708,-7.53293 -17.27573,-5.4888 -24.31453,-15.2607c-6.79437,-9.67376 -18.78254,-10.95788 -29.691,-11.95103l-1.5417,-0.12691c0,0 -2.22825,-0.18354 -2.04477,-2.4118c0.18356,-2.22823 2.4118,-2.04469 2.4118,-2.04469zM299.51192,198.4037c1.27461,9.23388 -3.61777,20.26259 1.9537,26.56226c3.00657,3.39951 8.97781,5.27105 12.88317,7.53201c4.39496,6.9613 6.14929,14.21302 4.76279,21.4384c8.10184,0.12993 11.69833,-5.7207 16.3825,-11.94295c1.52499,-2.02583 4.93642,-3.25827 4.92922,-5.79395c-0.00717,-2.53561 -3.42546,-3.74876 -4.96196,-5.76595c-7.4379,-9.76461 -13.23311,-3.52583 -22.58152,-9.21501c-6.15714,-3.7471 -9.19571,-16.9471 -13.36785,-22.81487z" data-paper-data="{&quot;index&quot;:null}" fill="#000000" stroke="none" stroke-width="0.5" stroke-linecap="butt"/><path d="M188.02092,200.82124l1.82258,-38.32844l81.8054,3.88995l-1.82258,38.32844z" fill="url(#color-13)" stroke="#000000" stroke-width="0" stroke-linecap="butt"/><path d="M196.04778,261.11305l3.50911,-73.79649l75.12782,3.57242l-3.50911,73.79649z" fill="url(#color-14)" stroke="none" stroke-width="0" stroke-linecap="butt"/><path d="M193.72354,259.6441l-17.98527,-91.01942l14.0462,-2.77552l17.9853,91.01947z" fill="url(#color-15)" stroke="none" stroke-width="0" stroke-linecap="butt"/><path d="M260.31779,262.23419l26.54078,-88.90218l13.71947,4.09581l-26.54082,88.90223z" data-paper-data="{&quot;index&quot;:null}" fill="url(#color-16)" stroke="none" stroke-width="0" stroke-linecap="butt"/><path d="M320.99966,177.72269c-0.76921,16.17634 -14.91607,28.64668 -31.59788,27.85343c-16.68187,-0.79324 -29.58144,-14.54972 -28.81224,-30.72601c0.76921,-16.17634 14.916,-28.64676 31.59782,-27.85352c16.68181,0.79324 29.58156,14.54984 28.81235,30.72612z" data-paper-data="{&quot;index&quot;:null}" fill="#000000" stroke="#000000" stroke-width="2" stroke-linecap="butt"/><path d="M179.26746,264.32861l1.00651,-21.16643l106.64649,5.07117l-1.00651,21.16643z" fill="url(#color-17)" stroke="none" stroke-width="0" stroke-linecap="butt"/><path d="M192.73265,141.50294c16.68184,0.79323 29.58151,14.54977 28.81231,30.72604c-0.76921,16.17634 -14.91611,28.64671 -31.59784,27.85348c-16.68187,-0.79324 -29.58156,-14.54979 -28.81235,-30.72606c0.76921,-16.17634 14.91595,-28.64672 31.59788,-27.85347z" fill="#000000" stroke="#000000" stroke-width="2" stroke-linecap="butt"/><g stroke="#000000" stroke-linecap="butt"><path d="M233.01854,278.15963c113.82174,5.81463 11.55374,104.15326 -5.29148,103.35223c-17.70365,-0.84183 -122.31018,-109.8708 5.29148,-103.35223z" fill="#ffe400" stroke-width="2"/><path d="M232.23331,283.71781c76.05167,3.8851 8.02948,65.08378 -3.22583,64.54858c-11.82896,-0.56248 -82.033,-68.90406 3.22583,-64.54858z" fill="#ff0700" stroke-width="1"/></g><path d="M207.13741,171.13253c-0.26611,5.59652 -4.76671,9.92966 -10.0523,9.6783c-5.28558,-0.25136 -9.35471,-4.99196 -9.08856,-10.58848c0.26611,-5.59652 4.76671,-9.92966 10.0523,-9.6783c5.28558,0.25136 9.35471,4.99196 9.08856,10.58848z" fill="#000000" stroke="#ff0000" stroke-width="2" stroke-linecap="butt"/><path d="M296.42339,176.17755c-0.26611,5.59652 -4.76671,9.92966 -10.0523,9.6783c-5.28558,-0.25136 -9.35471,-4.99196 -9.08856,-10.58848c0.26611,-5.59652 4.76671,-9.92966 10.0523,-9.6783c5.28558,0.25136 9.35471,4.99196 9.08856,10.58848z" fill="#000000" stroke="#ff0000" stroke-width="2" stroke-linecap="butt"/><path d="M-131.70078,329.87181c10.20534,-8.81662 25.62563,-7.69072 34.44212,2.51461c8.81651,10.20535 7.69069,25.62558 -2.51464,34.44216c-10.20531,8.8166 -25.62565,7.69066 -34.44219,-2.51468c-8.81645,-10.20528 -7.69074,-25.62555 2.51469,-34.44209z" data-paper-data="{&quot;index&quot;:null}" fill="url(#color-18)" stroke="none" stroke-width="0" stroke-linecap="butt"/><g data-paper-data="{&quot;index&quot;:null}" stroke-linecap="butt"><path d="M-291.92836,227.66901c0,0 67.54392,11.37614 98.66905,22.42538c30.28892,10.75239 83.63927,48.5937 83.63927,48.5937l-35.0416,97.82351c0,0 -63.05869,-3.48312 -92.83934,-14.05512c-31.55361,-11.20137 -92.47266,-48.57909 -92.47266,-48.57909z" fill="#696969" stroke="#000000" stroke-width="2"/><path d="M-303.79492,263.48838l182.92676,64.93793l-13.34919,37.26613l-182.92665,-64.93786z" fill="url(#color-19)" stroke="none" stroke-width="0"/><path d="M-323.28087,309.28096c-0.12242,-4.92956 4.74669,-5.12318 4.74669,-5.12318l6.91175,-0.19356c8.86124,-3.98293 15.66297,-10.53956 23.98306,-15.48884c5.52841,-3.28862 11.75017,-4.67947 17.37587,-7.61411c6.15398,-3.21012 11.12676,-8.25676 18.40291,-9.0949c18.32785,-2.11101 37.65906,11.74737 41.82215,28.84884c2.77068,9.41466 7.27204,18.16895 9.73182,27.61992c0.41432,1.59178 1.57516,8.91036 3.6384,10.85926c3.31002,3.12674 14.0826,2.46811 17.37526,2.26233c18.47492,-1.15455 34.98239,-13.25226 53.55928,-15.21098c0,0 4.85452,-0.47013 5.25029,4.44069c0.39569,4.91093 -4.45885,5.38115 -4.45885,5.38115c-18.69952,1.60021 -35.0094,14.12436 -53.76329,15.22855c-6.87876,0.4051 -18.81016,0.61672 -24.50195,-4.69562c-5.75637,-5.37233 -5.35341,-13.67563 -7.87029,-20.52499c-2.80704,-7.63946 -6.06131,-14.8152 -8.37327,-22.68295c-2.82686,-12.55128 -17.80402,-23.40965 -31.35794,-21.73294c-5.8,0.7175 -10.1074,5.46809 -15.03646,8.03124c-5.50164,2.86091 -11.63753,4.20273 -17.01864,7.41528c-9.31646,5.56203 -16.65103,12.37768 -26.75618,16.58469l-8.66908,0.4262c0,0 -4.86905,0.19362 -4.99157,-4.73592z" fill="#000000" stroke="none" stroke-width="0.5"/><path d="M-291.92836,227.66901c0,0 67.54392,11.37614 98.66905,22.42538c30.28892,10.75239 83.63927,48.5937 83.63927,48.5937l-35.0416,97.82351c0,0 -63.05869,-3.48312 -92.83934,-14.05512c-31.55361,-11.20137 -92.47266,-48.57909 -92.47266,-48.57909z" fill="#ffe400" stroke="#000000" stroke-width="2"/></g><g data-paper-data="{&quot;index&quot;:null}" stroke-linecap="butt"><path d="M-115.05981,349.19572c0,0 68.31415,-4.97771 101.1723,-1.63036c31.97542,3.25736 92.78177,27.35706 92.78177,27.35706l-10.82602,103.34482c0,0 -62.08391,11.58087 -93.52277,8.37814c-33.31047,-3.39344 -101.35944,-25.24661 -101.35944,-25.24661z" fill="#696969" stroke="#000000" stroke-width="2"/><path d="M-118.08713,386.80799l193.11172,19.67244l-4.12425,39.36948l-193.11163,-19.67245z" fill="url(#color-20)" stroke="none" stroke-width="0"/><path d="M-126.14936,435.9166c-1.28876,-4.75973 3.39531,-6.1033 3.39531,-6.1033l6.66837,-1.82826c7.66289,-5.97202 12.71434,-13.9555 19.62225,-20.73784c4.59011,-4.5067 10.30405,-7.33431 15.07258,-11.52016c5.2164,-4.57884 8.84945,-10.66134 15.71889,-13.20221c17.30333,-6.40011 39.37102,2.47491 47.47362,18.09989c4.92573,8.48821 11.37601,15.92423 16.00836,24.52143c0.7802,1.44801 3.64467,8.28201 6.11144,9.68559c3.95742,2.25196 14.26598,-0.9443 17.41579,-1.92565c17.67317,-5.5059 30.83814,-21.17537 48.41958,-27.48659c0,0 4.60423,-1.60871 6.15411,3.06789c1.54982,4.67675 -3.05449,6.28562 -3.05449,6.28562c-17.78558,5.99211 -30.6574,22.02895 -48.61359,27.55217c-6.58613,2.02593 -18.12649,5.06298 -24.91642,1.2531c-6.86678,-3.85285 -8.44574,-12.01454 -12.51619,-18.07104c-4.53978,-6.7551 -9.40398,-12.95353 -13.517,-20.04794c-5.72463,-11.52191 -22.8508,-18.51577 -35.61962,-13.67053c-5.46405,2.07341 -8.5211,7.71041 -12.70107,11.3701c-4.66561,4.08482 -10.30771,6.8444 -14.77274,11.24218c-7.73034,7.61407 -13.23798,15.97556 -22.05616,22.46051l-8.32033,2.47128c0,0 -4.68407,1.34353 -5.97285,-3.4161z" fill="#000000" stroke="none" stroke-width="0.5"/><path d="M-115.05981,349.19572c0,0 68.31415,-4.97771 101.1723,-1.63036c31.97542,3.25736 92.78177,27.35706 92.78177,27.35706l-10.82602,103.34482c0,0 -62.08391,11.58087 -93.52277,8.37814c-33.31047,-3.39344 -101.35944,-25.24661 -101.35944,-25.24661z" fill="#ffe400" stroke="#000000" stroke-width="2"/></g><path d="M575.76337,425.35517c6.45423,11.84172 2.08683,26.67331 -9.75474,33.12744c-11.84161,6.45421 -26.67336,2.08679 -33.12753,-9.75476c-6.45413,-11.84164 -2.0867,-26.67332 9.75488,-33.12749c11.84161,-6.45421 26.67329,-2.08677 33.12743,9.75484z" fill="url(#color-21)" stroke="none" stroke-width="0" stroke-linecap="butt"/><g stroke-linecap="butt"><path d="M756.60399,506.28856c0,0 -70.59818,11.14082 -104.03459,9.37706c-31.55766,-1.66466 -91.12576,-22.64488 -91.12576,-22.64488l5.17741,-103.78126c0,0 63.78669,-14.4731 95.88296,-12.78003c32.98237,1.7398 99.721,17.1523 99.721,17.1523z" fill="#696969" stroke="#000000" stroke-width="2"/><path d="M757.46631,470.77836l-193.84153,-10.2252l1.97235,-39.53576l193.84164,10.22516z" fill="url(#color-22)" stroke="none" stroke-width="0"/><path d="M759.8616,481.00704c-2.00467,4.50512 -6.42672,2.45796 -6.42672,2.45796l-7.84192,-3.72006c-7.7173,-7.7625 -11.87516,-16.87082 -18.34423,-25.58196c-3.73646,-5.03143 -8.88772,-8.62498 -12.87046,-13.37801c-3.56821,-4.25832 -5.723,-10.29809 -10.80369,-13.1862c-11.87296,-6.7492 -29.87018,-2.46906 -37.29681,8.03673c-5.15401,6.37836 -10.91259,11.75606 -16.43617,17.73363c-4.95245,5.35931 -7.76645,13.18158 -15.14362,15.93386c-7.29455,2.72163 -18.23141,-2.05207 -24.42814,-5.06567c-16.89468,-8.21592 -27.15029,-26.0397 -43.80431,-34.69276c0,0 -4.30248,-2.29703 -2.0527,-6.68018c2.24979,-4.38306 6.5523,-2.08615 6.5523,-2.08615c16.40325,8.93701 27.00498,26.44286 43.62263,34.59819c2.96167,1.45349 12.65685,6.19536 16.91331,4.57805c2.65313,-1.008 6.53345,-7.32086 7.52676,-8.63182c5.89798,-7.78359 13.4139,-14.14051 19.58509,-21.77133c10.4066,-14.19488 33.57565,-19.57474 49.6905,-10.59259c6.39758,3.56597 9.05319,10.13441 13.50437,15.46021c4.06896,4.86865 9.28079,8.54044 13.12405,13.69869c5.7841,7.76294 9.54925,16.42765 16.20384,23.50594l6.30838,2.83089c0,0 4.42212,2.04721 2.4175,6.55245z" fill="#000000" stroke="none" stroke-width="0.5"/><path d="M756.60399,506.28856c0,0 -70.59818,11.14082 -104.03459,9.37706c-31.55766,-1.66466 -91.12576,-22.64488 -91.12576,-22.64488l5.17741,-103.78126c0,0 63.78669,-14.4731 95.88296,-12.78003c32.98237,1.7398 99.721,17.1523 99.721,17.1523z" fill="#ffe400" stroke="#000000" stroke-width="2"/></g><g stroke-linecap="butt"><path d="M549.85515,496.49648c0,0 -69.94254,14.70581 -103.42539,14.63955c-31.60143,-0.06257 -92.15669,-17.99561 -92.15669,-17.99561l-0.09105,-103.91024c0,0 62.97085,-17.68853 95.11167,-17.62492c33.02809,0.06536 100.46244,12.07422 100.46244,12.07422z" fill="#696969" stroke="#000000" stroke-width="2"/><path d="M548.91594,460.9882l-194.11066,-0.38418l-0.03471,-39.58483l194.11075,0.38413z" fill="url(#color-23)" stroke="none" stroke-width="0"/><path d="M551.82683,471.08227c-1.77369,4.60093 -6.29385,2.7807 -6.29385,2.7807l-8.02049,-3.31765c-8.10098,-7.36127 -12.71524,-16.24704 -19.61762,-24.61901c-3.98678,-4.83556 -9.31361,-8.1633 -13.53219,-12.70828c-3.7795,-4.07194 -6.23776,-9.9947 -11.45838,-12.62147c-12.19991,-6.13856 -29.95702,-0.95145 -36.84137,9.91733c-4.82394,6.63151 -10.30251,12.29424 -15.51591,18.54414c-4.67437,5.60349 -7.08814,13.55845 -14.31621,16.68121c-7.14719,3.08799 -18.312,-1.12514 -24.65356,-3.8206c-17.28946,-7.34879 -28.43553,-24.62969 -45.50687,-32.42725c0,0 -4.41343,-2.07596 -2.38876,-6.56756c2.02477,-4.49146 6.43819,-2.41568 6.43819,-2.41568c16.83532,8.09387 28.31091,25.03963 45.32071,32.34195c3.03155,1.30148 12.95469,5.54561 17.12364,3.71464c2.5986,-1.14124 6.15383,-7.64264 7.07938,-9.00234c5.4958,-8.07262 12.67981,-14.80241 18.45611,-22.73631c9.67352,-14.70425 32.54,-21.25187 49.08953,-13.09828c6.57019,3.23699 9.55542,9.66231 14.2708,14.75553c4.31057,4.65612 9.7018,8.05893 13.80169,13.01574c6.17025,7.4597 10.36983,15.92236 17.37473,22.6541l6.4438,2.50744c0,0 4.52015,1.82037 2.74661,6.42141z" fill="#000000" stroke="none" stroke-width="0.5"/><path d="M549.85515,496.49648c0,0 -69.94254,14.70581 -103.42539,14.63955c-31.60143,-0.06257 -92.15669,-17.99561 -92.15669,-17.99561l-0.09105,-103.91024c0,0 62.97085,-17.68853 95.11167,-17.62492c33.02809,0.06536 100.46244,12.07422 100.46244,12.07422z" fill="#ffe400" stroke="#000000" stroke-width="2"/></g><g data-paper-data="{&quot;index&quot;:null}" fill="#ffe400" stroke="#000000" stroke-width="2" stroke-linecap="butt"><path d="M492.08624,186.25289c-0.06935,1.4586 -17.75236,47.03015 -61.24246,59.6819c-49.92035,11.9793 -54.52281,14.96387 -72.06412,13.8168c1.2996,-34.65926 -29.07881,-40.9234 -46.97386,-41.77432c-1.68778,-0.08026 -3.35231,-0.03278 -4.98421,0.13387c4.07664,-107.40596 11.50646,-242.89812 12.60166,-242.18313c58.46365,4.16653 177.10302,116.9516 172.66299,210.32486zM394.66003,134.62212c0.87975,-18.50107 -13.31734,-34.20822 -31.7101,-35.08281c-18.3927,-0.8746 -34.0162,13.4145 -34.89598,31.91562c-0.87975,18.50107 13.31733,34.20826 31.71012,35.08285c18.3927,0.8746 34.01621,-13.41459 34.89597,-31.91564z" data-paper-data="{&quot;index&quot;:null}"/><path d="M361.09768,212.9954c-0.6485,13.63779 -18.01884,11.57091 -26.89287,20.67976c-10.54819,10.82726 -12.31718,40.70031 -28.69924,39.92133c-9.73826,-0.46305 -0.7202,-120.49132 3.68958,-120.28161c30.16411,1.43435 53.32189,29.8321 51.90256,59.68058z"/></g><g fill="#ffe400" stroke="#000000" stroke-width="2" stroke-linecap="butt"><path d="M-4.53128,163.43448c4.44003,-93.37325 138.76018,-194.12976 197.70031,-192.71362c1.16471,-0.60755 -9.07499,134.751 -15.21429,242.05888c-1.61824,-0.3212 -3.28047,-0.52683 -4.97825,-0.60755c-18.00054,-0.85595 -53.27071,-2.19019 -55.2678,32.43597c-17.67444,-0.52754 -17.74494,0.74226 -66.59348,-15.93355c-42.34546,-16.73331 -55.71572,-63.78145 -55.64635,-65.24008zM135.37815,157.78351c18.50113,0.87974 34.21242,-13.40525 35.09218,-31.90632c0.87975,-18.50107 -13.40525,-34.2124 -31.90633,-35.09214c-18.50113,-0.87974 -34.2124,13.40516 -35.09215,31.9063c-0.87975,18.50107 13.40517,34.21244 31.90627,35.09219z" data-paper-data="{&quot;index&quot;:null}"/><path d="M178.34147,149.00813c4.43571,0.21093 4.08065,120.6511 -5.71496,120.1853c-16.47859,-0.78358 -18.26484,-33.87058 -27.79708,-45.65266c-8.01935,-9.91214 -24.64521,-9.46182 -23.99673,-23.0996c1.41933,-29.84848 27.1669,-52.87583 57.50877,-51.43304z"/></g><path d="M320.28591,343.411c18.04082,1.13255 44.73492,2.15566 82.53556,-7.3259c37.87119,-17.62479 50.17235,-30.32338 61.55312,-42.93494c0.07598,-0.08417 0.15173,-0.16836 0.22734,-0.25266c-14.8953,82.98393 -93.44949,144.04087 -184.93824,139.69047c-1.92888,-0.09172 -2.06684,-25.19061 -1.18155,-62.29174c1.29357,0.21535 30.90186,1.70236 32.24396,1.76618c6.30905,0.3 8.93631,-12.98291 9.55975,-28.65144z" data-paper-data="{&quot;index&quot;:null}" fill="#ffe400" stroke="#000000" stroke-width="2" stroke-linecap="butt"/><path d="M151.55522,368.15836c1.34207,0.06381 30.95786,1.39299 32.26607,1.30135c-2.63916,37.01772 -5.158,61.99026 -7.08692,61.89857c-91.4887,-4.35041 -163.89498,-72.58569 -170.84886,-156.6086c0.06729,0.09111 0.13474,0.18213 0.20234,0.27309c10.13278,13.63458 21.17355,27.44309 57.20139,48.58187c36.73039,13.02558 63.40119,14.54004 81.46811,15.12446c-0.86611,15.65695 0.48893,29.12927 6.79797,29.42926z" data-paper-data="{&quot;index&quot;:null}" fill="#ffe400" stroke="#000000" stroke-width="2" stroke-linecap="butt"/></g></g></svg>