<svg version="1.1" xmlns="http://www.w3.org/2000/svg" xmlns:xlink="http://www.w3.org/1999/xlink" width="513.51351" height="555.67684" viewBox="0,0,513.51351,555.67684"><defs><linearGradient x1="234.53987" y1="281.72057" x2="234.53987" y2="299.83941" gradientUnits="userSpaceOnUse" id="color-1"><stop offset="0" stop-color="#5c5c5c"/><stop offset="1" stop-color="#9b9b9b"/></linearGradient><linearGradient x1="126.69008" y1="287.67731" x2="162.06482" y2="287.67731" gradientUnits="userSpaceOnUse" id="color-2"><stop offset="0" stop-color="#5c5c5c"/><stop offset="1" stop-color="#9b9b9b"/></linearGradient><linearGradient x1="112.16826" y1="368.87548" x2="95.63908" y2="361.50008" gradientUnits="userSpaceOnUse" id="color-3"><stop offset="0" stop-color="#5c5c5c"/><stop offset="1" stop-color="#9b9b9b"/></linearGradient><linearGradient x1="311.32894" y1="292.06281" x2="349.25893" y2="292.06281" gradientUnits="userSpaceOnUse" id="color-4"><stop offset="0" stop-color="#5c5c5c"/><stop offset="1" stop-color="#9b9b9b"/></linearGradient><linearGradient x1="363.32101" y1="368.97446" x2="379.66452" y2="361.19622" gradientUnits="userSpaceOnUse" id="color-5"><stop offset="0" stop-color="#5c5c5c"/><stop offset="1" stop-color="#9b9b9b"/></linearGradient><linearGradient x1="269.07094" y1="338.49714" x2="283.70029" y2="349.18684" gradientUnits="userSpaceOnUse" id="color-6"><stop offset="0" stop-color="#5c5c5c"/><stop offset="1" stop-color="#9b9b9b"/></linearGradient><linearGradient x1="212.08803" y1="340.22274" x2="197.45872" y2="350.91263" gradientUnits="userSpaceOnUse" id="color-7"><stop offset="0" stop-color="#5c5c5c"/><stop offset="1" stop-color="#9b9b9b"/></linearGradient><linearGradient x1="140.96351" y1="205.0573" x2="335.09317" y2="205.0573" gradientUnits="userSpaceOnUse" id="color-8"><stop offset="0" stop-color="#6c6c6c"/><stop offset="1" stop-color="#c4c4c4"/></linearGradient><linearGradient x1="203.26324" y1="176.09447" x2="279.6209" y2="176.09447" gradientUnits="userSpaceOnUse" id="color-9"><stop offset="0" stop-color="#6e6e6e"/><stop offset="1" stop-color="#c0c0c0"/></linearGradient><linearGradient x1="240.74529" y1="53.48287" x2="240.74529" y2="96.83857" gradientUnits="userSpaceOnUse" id="color-10"><stop offset="0" stop-color="#a6a6a6"/><stop offset="1" stop-color="#707070"/></linearGradient><linearGradient x1="240.42177" y1="80.97786" x2="240.42177" y2="164.4537" gradientUnits="userSpaceOnUse" id="color-11"><stop offset="0" stop-color="#a6a6a6"/><stop offset="1" stop-color="#707070"/></linearGradient><linearGradient x1="186.73946" y1="59.21717" x2="211.92254" y2="160.9775" gradientUnits="userSpaceOnUse" id="color-12"><stop offset="0" stop-color="#a6a6a6"/><stop offset="1" stop-color="#707070"/></linearGradient><linearGradient x1="293.45698" y1="62.45267" x2="268.27389" y2="164.21303" gradientUnits="userSpaceOnUse" id="color-13"><stop offset="0" stop-color="#a6a6a6"/><stop offset="1" stop-color="#707070"/></linearGradient><linearGradient x1="240.74529" y1="145.04073" x2="240.74529" y2="168.98338" gradientUnits="userSpaceOnUse" id="color-14"><stop offset="0" stop-color="#a6a6a6"/><stop offset="1" stop-color="#707070"/></linearGradient><linearGradient x1="239.45111" y1="166.39499" x2="239.45111" y2="189.72387" gradientUnits="userSpaceOnUse" id="color-15"><stop offset="0" stop-color="#707070"/><stop offset="1" stop-color="#a6a6a6"/></linearGradient><radialGradient cx="240" cy="180" r="256.75676" gradientUnits="userSpaceOnUse" id="color-16"><stop offset="0" stop-color="#000000" stop-opacity="0"/><stop offset="1" stop-color="#000000"/></radialGradient><linearGradient x1="240" y1="-12.19219" x2="240" y2="372.19219" gradientUnits="userSpaceOnUse" id="color-17"><stop offset="0" stop-color="#000000"/><stop offset="1" stop-color="#000000" stop-opacity="0"/></linearGradient><linearGradient x1="240" y1="-12.19219" x2="240" y2="372.19219" gradientUnits="userSpaceOnUse" id="color-18"><stop offset="0" stop-color="#000000"/><stop offset="1" stop-color="#000000" stop-opacity="0"/></linearGradient><linearGradient x1="191.79003" y1="40.36037" x2="288.20999" y2="40.36037" gradientTransform="translate(-383.58003,-92.25824) scale(2,2)" gradientUnits="userSpaceOnUse" id="color-19"><stop offset="0" stop-color="#ff0000"/><stop offset="1" stop-color="#8e0000"/></linearGradient><linearGradient x1="62.27874" y1="168.86239" x2="417.72051" y2="168.86239" gradientTransform="translate(-170.82732,-474.7184) scale(2.74295,2.74295)" gradientUnits="userSpaceOnUse" id="color-20"><stop offset="0" stop-color="#ff0000"/><stop offset="1" stop-color="#8e0000"/></linearGradient><linearGradient x1="84.28353" y1="191.47443" x2="395.71405" y2="191.47443" gradientTransform="translate(-231.18549,-536.74238) scale(2.74295,2.74295)" gradientUnits="userSpaceOnUse" id="color-21"><stop offset="0" stop-color="#ff0000"/><stop offset="1" stop-color="#8e0000"/></linearGradient><linearGradient x1="103.03438" y1="227.13883" x2="376.96623" y2="227.13883" gradientTransform="translate(-344.28072,-770.50212) scale(3.34142,3.34142)" gradientUnits="userSpaceOnUse" id="color-22"><stop offset="0" stop-color="#ff0000"/><stop offset="1" stop-color="#8e0000"/></linearGradient><linearGradient x1="146.39011" y1="341.17229" x2="486.32207" y2="341.17229" gradientTransform="translate(-394.17843,-930.19699) scale(2.69266,2.69266)" gradientUnits="userSpaceOnUse" id="color-23"><stop offset="0" stop-color="#ff0000"/><stop offset="1" stop-color="#8e0000"/></linearGradient></defs><g transform="translate(16.75675,12.19219)"><g data-paper-data="{&quot;isPaintingLayer&quot;:true}" fill-rule="nonzero" stroke-linejoin="miter" stroke-miterlimit="10" stroke-dasharray="" stroke-dashoffset="0" style="mix-blend-mode: normal"><g><path d="M-16.75675,372.19219v-384.38438h513.51351v384.38438z" fill="#000000" stroke="none" stroke-width="NaN" stroke-linecap="butt"/><path d="M143.08326,299.83941v-18.1188h182.91327v18.1188z" fill="url(#color-1)" stroke="none" stroke-width="0" stroke-linecap="butt"/><path d="M162.06482,287.67731c0,9.76851 -7.91889,17.68739 -17.68735,17.68739c-9.76851,0 -17.68739,-7.91888 -17.68739,-17.68739c0,-9.76846 7.91892,-17.68739 17.68739,-17.68739c9.76846,0 17.68735,7.91893 17.68735,17.68739z" fill="url(#color-2)" stroke="none" stroke-width="0" stroke-linecap="butt"/><g data-paper-data="{&quot;index&quot;:null}" stroke-linecap="butt"><path d="M46.79107,426.229c0,0 17.81913,-51.60049 28.97705,-75.79352c10.85815,-23.54312 39.57517,-66.3616 39.57517,-66.3616l43.3893,19.36041c0,0 -13.01401,47.66404 -23.68996,70.81203c-11.31153,24.52609 -41.14326,73.00261 -41.14326,73.00261z" fill="#696969" stroke="#000000" stroke-width="2"/><path d="M62.85056,432.59293l65.57679,-142.1857l16.52927,7.37541l-65.5767,142.18563z" fill="url(#color-3)" stroke="none" stroke-width="0"/><path d="M82.61199,443.97363c-2.52325,0.44417 -1.7531,-3.20323 -1.7531,-3.20323l1.1345,-5.18322c-0.44072,-6.37844 -2.55469,-11.02446 -3.58221,-16.92694c-0.68281,-3.92204 -0.27887,-8.50095 -0.7647,-12.52139c-0.53141,-4.39799 -2.20533,-7.77661 -1.3329,-13.18784c2.19755,-13.63034 12.67752,-29.15587 22.0979,-33.50788c5.27148,-2.75592 10.51651,-6.76592 15.75093,-9.29066c0.88166,-0.42519 4.80236,-1.82095 6.15926,-3.5115c2.17696,-2.71227 3.764,-10.76531 4.24684,-13.22645c2.70915,-13.80923 -0.48548,-25.35739 1.83379,-39.18583c0,0 0.62722,-3.61667 3.18973,-4.26506c2.56252,-0.64835 1.93535,2.96831 1.93535,2.96831c-2.52309,13.9463 0.92321,25.31534 -1.86123,39.33799c-1.02129,5.14334 -3.04189,14.09973 -6.75267,18.75905c-3.7528,4.71209 -7.89424,5.00223 -11.81878,7.38401c-4.37716,2.65648 -8.59867,5.61604 -13.00343,7.91644c-6.87311,3.02218 -15.05417,15.05955 -16.62076,25.13124c-0.67037,4.30984 0.97203,7.20938 1.39359,10.73256c0.47052,3.9325 0.05708,8.45032 0.7275,12.26699c1.16081,6.60793 3.31116,11.63609 3.64366,18.93387l-1.32987,6.48799c0,0 -0.77013,3.64744 -3.2934,4.09166z" fill="#000000" stroke="none" stroke-width="0.5"/><path d="M46.79107,426.229c0,0 17.81913,-51.60049 28.97705,-75.79352c10.85815,-23.54312 39.57517,-66.3616 39.57517,-66.3616l43.3893,19.36041c0,0 -13.01401,47.66404 -23.68996,70.81203c-11.31153,24.52609 -41.14326,73.00261 -41.14326,73.00261z" fill="#ff0000" stroke="#000000" stroke-width="2"/></g><path d="M349.25893,292.06281c0,10.47413 -8.49092,18.965 -18.96497,18.965c-10.47405,0 -18.96501,-8.49095 -18.96501,-18.965c0,-10.47409 8.49093,-18.96497 18.96501,-18.96497c10.47405,0 18.96497,8.49088 18.96497,18.96497z" fill="url(#color-4)" stroke="none" stroke-width="0" stroke-linecap="butt"/><g stroke-linecap="butt"><path d="M383.50506,446.87682c0,0 -31.01076,-47.7309 -42.91995,-71.97241c-11.24003,-22.87941 -25.41821,-70.21017 -25.41821,-70.21017l42.9018,-20.41792c0,0 29.75773,42.10187 41.18958,65.37182c11.74747,23.91228 30.82578,75.06064 30.82578,75.06064z" fill="#696969" stroke="#000000" stroke-width="2"/><path d="M397.8417,439.24246l-69.04147,-140.53586l16.34355,-7.77827l69.04157,140.53595z" fill="url(#color-5)" stroke="none" stroke-width="0"/><path d="M394.70867,443.32593c-2.5334,-0.38225 -3.39268,-4.00972 -3.39268,-4.00972l-1.48847,-6.45346c0.1536,-7.30372 2.18008,-12.38306 3.17857,-19.01747c0.57669,-3.83195 0.05269,-8.33826 0.42666,-12.28114c0.33504,-3.53243 1.90589,-6.47135 1.13016,-10.76349c-1.81289,-10.0303 -10.28648,-21.86355 -17.23164,-24.71637c-4.45981,-2.19177 -8.75259,-5.04699 -13.19353,-7.59539c-3.98169,-2.28488 -8.12908,-2.47347 -11.99619,-7.09216c-3.82385,-4.56698 -6.06333,-13.47116 -7.21036,-18.58792c-3.12725,-13.9502 0.0394,-25.40028 -2.8247,-39.28056c0,0 -0.71565,-3.60023 1.86203,-3.01485c2.57767,0.58541 3.29332,4.18563 3.29332,4.18563c2.65747,13.76746 -0.2532,25.39044 2.79352,39.12911c0.54297,2.44856 2.32689,10.46033 4.56969,13.1184c1.39794,1.65684 5.35169,2.95607 6.24347,3.35951c5.29474,2.39567 10.63644,6.27597 15.97391,8.90188c9.5242,4.11987 20.38147,19.38386 22.91239,32.95626c1.00481,5.38824 -0.58583,8.80685 -1.00928,13.21656c-0.38714,4.03119 0.12886,8.59881 -0.45761,12.53637c-0.88256,5.92589 -2.88205,10.62235 -3.16631,17.00965l1.26117,5.15386c0,0 0.85929,3.62746 -1.67408,3.24523z" fill="#000000" stroke="none" stroke-width="0.5"/><path d="M383.50506,446.87682c0,0 -31.01076,-47.7309 -42.91995,-71.97241c-11.24003,-22.87941 -25.41821,-70.21017 -25.41821,-70.21017l42.9018,-20.41792c0,0 29.75773,42.10187 41.18958,65.37182c11.74747,23.91228 30.82578,75.06064 30.82578,75.06064z" fill="#ff0000" stroke="#000000" stroke-width="2"/></g><path d="M238.44492,248.77786c38.72425,1.1044 122.88992,75.90557 122.88992,169.53983c0,30.52832 -5.84856,59.17206 -16.08436,83.91491c-21.15859,51.14671 -191.44615,52.00996 -212.80257,1.92508c-10.73574,-25.17735 -16.89295,-54.51666 -16.89295,-85.83999c0,-93.63426 77.16106,-170.84401 122.88996,-169.53983z" fill="#696969" stroke="#000000" stroke-width="2" stroke-linecap="butt"/><path d="M230.38388,391.44135l77.37412,-105.88837l14.62928,10.68986l-77.37412,105.88837z" fill="url(#color-6)" stroke="none" stroke-width="0" stroke-linecap="butt"/><path d="M236.14578,403.85683l-77.37413,-105.88841l14.62928,-10.68985l77.37417,105.88841z" data-paper-data="{&quot;index&quot;:null}" fill="url(#color-7)" stroke="none" stroke-width="0" stroke-linecap="butt"/><path d="M254.13446,383.00863c0.62755,-3.1741 3.80161,-2.54654 3.80161,-2.54654l2.47872,0.56869c1.20987,0.5419 2.41966,1.08375 3.62953,1.62565c6.25084,5.03504 12.29165,11.69589 17.84776,18.13474c2.27481,-1.12903 4.28458,-2.82233 5.86604,-5.28384c3.69767,-5.75559 -0.304,-12.0915 -1.17076,-17.88036c-1.05593,-7.05231 0.88674,-14.32281 0.00054,-21.40553c-1.29109,-10.31872 -9.12979,-20.9819 -15.67011,-28.711c-6.24322,-7.5004 -17.95285,-8.7073 -22.9067,-16.82997c-4.17609,-6.8474 -1.62917,-15.29844 -4.32838,-22.38205c-0.42538,3.0491 -1.42409,5.96667 -3.197,8.67212c-4.37419,6.67525 -13.59933,13.21569 -20.26388,17.27891c-4.32765,2.63844 -12.33792,4.77577 -15.71288,8.72166c-2.59624,3.03539 -3.12471,7.35254 -4.75376,10.99948c-6.4,14.32759 -16.83309,30.68515 -0.85194,42.03477c3.59146,2.55063 6.68441,4.12808 11.11757,4.03832h1.44392c0,0 3.23553,0 3.23553,3.2355c0,3.2355 -3.23553,3.2355 -3.23553,3.2355h-1.44392c-11.64146,-0.16895 -28.14476,-11.99369 -27.04322,-25.32914c0.8288,-10.03366 6.82646,-20.80358 10.8692,-29.85411c0.46784,-1.04738 5.37561,-12.13797 5.80302,-12.63383c3.96132,-4.59566 12.1454,-6.90049 17.2077,-9.97584c5.92586,-3.60001 14.35422,-9.49773 18.28864,-15.4068c3.77508,-5.66987 2.70807,-13.4532 0.26196,-21.24359c-4.28646,-6.79667 -9.50724,-13.01162 -15.73505,-17.48517c0,0 -2.61965,-1.89898 -0.72063,-4.51855c1.89894,-2.61961 4.51859,-0.72067 4.51859,-0.72067c1.63752,1.19663 3.22121,2.49978 4.74867,3.89304c-0.25931,-0.71929 -0.49713,-1.41447 -0.70827,-2.08225c0,0 -0.97528,-3.08506 2.10974,-4.0603c3.08502,-0.97528 4.06026,2.10974 4.06026,2.10974c1.8032,5.70382 4.73297,12.28159 6.9993,19.01578c3.54219,5.48366 6.49012,11.33665 8.77594,17.08943c2.78779,7.0162 0.35174,15.46167 4.15423,22.12521c2.26619,3.97129 8.53481,4.93145 12.14298,7.00874c3.88999,2.23955 7.19994,5.47692 10.11146,8.89319c7.3796,8.78372 15.6548,20.40928 17.13941,32.04592c0.90441,7.08896 -1.07502,14.39026 0.0005,21.41381c1.18955,7.76794 5.16204,14.36554 0.2732,22.08441c-1.96646,3.10485 -4.38717,5.33919 -7.10575,6.91069c0.10332,0.12115 0.20646,0.24202 0.30932,0.36263c3.97946,4.66448 6.48338,9.60928 11.85634,12.89656c16.73139,10.23649 19.41922,-16.61833 17.22656,-26.67289c-9.49769,-26.18092 -21.78926,-53.70968 -6.95015,-80.9465c2.1234,-3.8975 5.11126,-6.93568 8.24201,-9.87795c0.18197,1.61442 1.55194,2.8691 3.21498,2.8691c0.19221,0 0.38056,-0.01674 0.56353,-0.04889c0.26381,0.52038 0.66409,0.95977 1.15375,1.27119c-2.8863,2.66249 -5.6366,5.43223 -7.4942,8.8865c-13.79312,25.64927 -1.33533,51.54324 7.48881,76.05782c1.40104,6.49498 2.74345,14.25695 0.69272,20.79662c-3.91286,12.47777 -15.50081,20.32189 -27.50509,13.19116c-6.08592,-3.61514 -8.98244,-9.01415 -13.41194,-14.22234c-0.58429,-0.68703 -1.17676,-1.38657 -1.77679,-2.09503c-7.2697,1.6861 -15.56656,0.51022 -22.81527,-0.77179c-1.37024,-0.36829 -2.74045,-0.7366 -4.11069,-1.10489l0.1203,0.11156c0,0 -3.2355,0 -3.2355,-3.23554c0,-3.2355 3.2355,-3.2355 3.2355,-3.2355l1.56414,0.11153c1.27686,0.34534 2.55378,0.69072 3.83067,1.03606c5.01529,0.87785 11.0658,2.00769 16.61252,1.46798c-4.52801,-5.21997 -9.36469,-10.45006 -14.30422,-14.45767c-0.95603,-0.40963 -1.91203,-0.8193 -2.86798,-1.22893l-1.13095,-0.14501c0,0 -3.17406,-0.62755 -2.54655,-3.80157z" fill="#000000" stroke="none" stroke-width="0.5" stroke-linecap="butt"/><path d="M228.08231,402.18479c1.43356,2.90058 -1.46698,4.33416 -1.46698,4.33416l-2.0468,0.82772c-5.19602,5.05178 -8.25925,11.89122 -12.034,18.11034c-13.78826,22.47509 -44.924,19.76047 -56.66078,-3.61025c-6.59229,-13.12684 -0.1295,-33.44357 7.37244,-44.577c11.18668,-18.91277 12.31304,-35.01661 6.8305,-55.95285c-1.39465,-5.32576 -4.37634,-13.51838 -9.43883,-17.46015c0.84498,-0.61812 1.21595,-1.54551 1.21595,-1.54551c0.52365,-1.35847 1.18389,-2.69006 2.00538,-3.9012c4.93184,3.58146 8.19724,9.58835 10.54084,15.5119c9.27265,23.43713 6.9707,45.31696 -5.68238,66.80288c-6.47365,9.59019 -10.77735,23.83294 -8.26207,35.66099c0.70143,3.2984 3.38109,5.91342 5.63511,8.12548c3.99786,3.92337 8.19655,8.94351 14.01235,10.2189c11.48963,2.51972 21.26619,-3.23338 26.89982,-12.63063c4.10384,-6.76105 7.43657,-13.76229 13.01655,-19.35478l3.72881,-2.02681c0,0 2.90055,-1.4336 4.33411,1.46698z" fill="#000000" stroke="none" stroke-width="0.5" stroke-linecap="butt"/><g><path d="M192.90988,422.39581v-88.00543h91.67231v88.00543z" fill="#323232" stroke="none" stroke-width="0" stroke-linecap="butt"/><g stroke="#000000"><path d="M238.4023,340.60634c19.58455,0 35.461,15.87645 35.461,35.46104c0,19.58455 -15.87649,35.461 -35.461,35.461c-19.58455,0 -35.461,-15.87649 -35.461,-35.461c0,-19.58455 15.87648,-35.46104 35.461,-35.46104z" fill="#878787" stroke-width="1" stroke-linecap="butt"/><path d="M266.01583,354.19074l-54.72608,0.36979" fill="none" stroke-width="1.5" stroke-linecap="round"/><path d="M206.85255,363.80492l63.97032,0.36975" fill="none" stroke-width="1.5" stroke-linecap="round"/><path d="M203.52455,371.56981l68.4076,1.47911" fill="none" stroke-width="1.5" stroke-linecap="round"/><path d="M203.67864,379.52003l69.51688,0.73954" fill="none" stroke-width="1.5" stroke-linecap="round"/><path d="M223.15087,345.66044l31.85718,0.39823" fill="none" stroke-width="1.5" stroke-linecap="round"/><path d="M210.85838,397.79816l54.72604,0.36979" data-paper-data="{&quot;index&quot;:null}" fill="none" stroke-width="1.5" stroke-linecap="round"/><path d="M270.39144,388.18403l-63.97031,0.36974" data-paper-data="{&quot;index&quot;:null}" fill="none" stroke-width="1.5" stroke-linecap="round"/><path d="M254.57662,406.3001l-31.85718,0.39819" data-paper-data="{&quot;index&quot;:null}" fill="none" stroke-width="1.5" stroke-linecap="round"/></g></g><g stroke="#000000" stroke-width="2" stroke-linecap="butt"><path d="M239.30768,249.64066c0.51099,-0.06371 -0.03541,34.8982 1.37144,88.45287c-2.50455,-0.80737 -39.29606,1.88027 -39.20329,37.41656c1.59679,36.10695 35.30579,38.49663 38.58933,36.98934c1.32085,49.61397 -1.00488,95.00824 -1.96392,127.84851c-0.13046,4.46704 -31.54452,1.97727 -63.01832,-7.91565c-22.63878,-7.11586 -38.67321,-20.14409 -41.7722,-27.41181c-10.73578,-25.17735 -16.89296,-54.51666 -16.89296,-85.83999c0,-93.63426 77.1611,-170.84397 122.88996,-169.53979z" fill="#ff0000"/><path d="M128.57051,497.63888c0,0 -26.18174,-71.08018 -6.75062,-130.82262c22.58438,-69.43743 92.16767,-112.48652 92.16767,-112.48652c0,0 -36.23757,58.36982 -36.23757,93.18221c0,44.37725 0,151.4211 0,151.4211z" fill="#000000"/></g><g data-paper-data="{&quot;index&quot;:null}" stroke="#000000" stroke-width="2" stroke-linecap="butt"><path d="M361.85322,419.18049c0,31.32333 -6.15722,60.66264 -16.89296,85.83999c-3.09899,7.26777 -19.13346,20.29599 -41.7722,27.41181c-31.47377,9.89296 -62.88787,12.38269 -63.01832,7.91565c-0.95899,-32.84031 -3.28481,-78.23462 -1.96392,-127.84851c3.28354,1.50729 36.99251,-0.88239 38.58929,-36.98934c0.09274,-35.53626 -36.69867,-38.22396 -39.20325,-37.41656c1.40681,-53.55466 0.86041,-88.51657 1.37143,-88.45286c45.72887,-1.30418 122.88993,75.90553 122.88993,169.53983z" fill="#ff0000"/><path d="M300.52092,498.93309c0,0 0,-107.04385 0,-151.42111c0,-34.81239 -36.23757,-93.18221 -36.23757,-93.18221c0,0 69.58328,43.04909 92.16771,112.48648c19.43107,59.74244 -6.75066,130.82262 -6.75066,130.82262z" fill="#000000"/></g><g fill="#8b0000" stroke="#000000" stroke-width="2" stroke-linecap="butt"><path d="M237.44181,307.93495c0,9.76851 -10.23661,17.68734 -22.86412,17.68734c-12.62751,0 -22.86416,10.63126 -22.86416,-17.68734c0,-29.18144 10.23665,-17.68735 22.86416,-17.68735c12.62751,0 22.86413,7.91892 22.86413,17.68735z"/><path d="M263.32578,291.1104c12.62752,0 22.86413,-11.49406 22.86413,17.68734c0,28.31861 -10.23661,17.68735 -22.86412,17.68735c-12.62751,0 -22.86417,-7.91892 -22.86417,-17.68735c0,-9.76851 10.23665,-17.68734 22.86417,-17.68734z" data-paper-data="{&quot;index&quot;:null}"/><path d="M255.99203,307.93495c0,10.00671 -7.91892,18.11876 -17.68735,18.11876c-9.76851,0 -17.68739,-8.11205 -17.68739,-18.11876c0,-10.00671 7.91896,-18.11877 17.68739,-18.11877c9.76851,0 17.68735,8.11209 17.68735,18.11877z"/></g><path d="M237.06744,112.43008c61.8272,0 111.94812,41.71911 111.94812,93.18225c0,51.46314 -50.12088,93.18225 -111.94812,93.18225c-61.82724,0 -111.94811,-41.71911 -111.94811,-93.18225c0,-51.46313 50.12087,-93.18224 111.94811,-93.18224z" fill="#696969" stroke="#000000" stroke-width="2" stroke-linecap="butt"/><path d="M238.02832,126.97405c53.60744,0 97.06485,34.9591 97.06485,78.08325c0,43.12419 -43.45741,78.08326 -97.06485,78.08326c-53.60744,0 -97.06482,-34.9591 -97.06482,-78.08326c0,-43.12419 43.45738,-78.08325 97.06482,-78.08325z" fill="none" stroke="url(#color-8)" stroke-width="4.5" stroke-linecap="butt"/><g stroke="none" stroke-width="0" stroke-linecap="butt"><path d="M203.26324,216.21456v-80.24026h76.35766v80.24026z" fill="url(#color-9)"/><path d="M267.32602,162.50541v-23.29554h9.05934v23.29554z" fill="#ffffff"/><path d="M267.32602,189.03645v-23.29554h9.05934v23.29554z" fill="#ffffff"/><path d="M267.32602,214.92039v-23.29555h9.05934v23.29555z" fill="#ffffff"/><path d="M207.14581,161.85826v-23.29554h9.05938v23.29554z" fill="#ffffff"/><path d="M207.14581,188.38935v-23.29555h9.05938v23.29555z" fill="#ffffff"/><path d="M207.14581,214.27332v-23.29555h9.05938v23.29555z" fill="#ffffff"/><path d="M243.59906,214.79096v-7.76521h17.47165v7.76521z" fill="#ffffff"/><path d="M223.45271,214.66154v-7.76521h17.47169v7.76521z" fill="#ffffff"/></g><path d="M126.4135,206.90654c0,-51.46313 50.12088,-93.18221 111.94812,-93.18221c32.30754,0 -84.27519,15.51278 -85.73197,102.93166c-2.46513,73.81092 86.90266,58.33105 80.83744,61.33315c8.07328,5.02206 8.11517,20.3741 0.14917,20.3741c-61.82724,0 -107.20268,-39.99348 -107.20268,-91.45662z" fill="#ff0000" stroke="#000000" stroke-width="2" stroke-linecap="butt"/><path d="M352.73001,206.04374c0,51.46314 -45.37548,91.45666 -107.20268,91.45666c-7.966,0 -7.92411,-15.35199 0.14917,-20.37405c7.40816,1.80986 81.37788,1.89151 80.83748,-61.33319c-1.45674,-87.41884 -118.03959,-102.93162 -85.73205,-102.93162c61.82724,0 111.94808,41.71911 111.94808,93.18225z" data-paper-data="{&quot;index&quot;:null}" fill="#ff0000" stroke="#000000" stroke-width="2" stroke-linecap="butt"/><path d="M240.51862,0.667c83.2702,0 150.77404,48.286 150.77404,107.84979c0,59.56379 -25.18867,108.49228 -150.77404,107.84983c-132.65639,-0.6786 -150.774,-48.28599 -150.774,-107.84982c0,-59.56379 67.5038,-107.84979 150.774,-107.84979z" fill="#696969" stroke="#000000" stroke-width="2" stroke-linecap="butt"/><path d="M194.47775,96.83857v-43.35563h92.53511v43.35563z" fill="url(#color-10)" stroke="#000000" stroke-width="0" stroke-linecap="butt"/><path d="M206.77263,164.4537v-83.47576h67.29827v83.47576z" fill="url(#color-11)" stroke="none" stroke-width="0" stroke-linecap="butt"/><path d="M204.07064,162.92063l-25.18309,-101.76021l15.70376,-3.88626l25.18309,101.76021z" fill="url(#color-12)" stroke="none" stroke-width="0" stroke-linecap="butt"/><path d="M260.42203,162.26986l25.18309,-101.76021l15.70376,3.88627l-25.18313,101.76025z" data-paper-data="{&quot;index&quot;:null}" fill="url(#color-13)" stroke="none" stroke-width="0" stroke-linecap="butt"/><path d="M188.00676,168.98338v-23.94265h105.47708v23.94265z" fill="url(#color-14)" stroke="none" stroke-width="0" stroke-linecap="butt"/><path d="M172.10229,175.2622c-3.06584,1.03383 -4.09972,-2.03209 -4.09972,-2.03209l-0.32301,-1.10324c-1.65846,-3.07435 -3.19635,-7.36263 -5.66071,-9.94685c-0.95156,-0.9978 -4.63846,-2.63216 -5.40417,-3.23019c-10.52555,-8.22064 -27.68832,-23.02003 -17.48117,-37.28818c4.19627,-1.36604 17.32095,-2.8311 18.51396,-8.88142c1.6936,-8.58916 -4.37056,-15.55278 -0.37752,-24.56392c4.62475,-10.43686 17.06838,-15.97565 26.55598,-21.3359c0,0 2.81713,-1.59132 4.40845,1.22581c1.59132,2.81713 -1.2258,4.40841 -1.2258,4.40841c-7.99506,4.51528 -19.90041,9.44661 -23.79995,18.27194c-4.84629,10.96791 7.23328,22.99898 -5.55927,31.41506c-1.35326,0.89028 -2.92942,1.39884 -4.45915,1.93151c-2.26091,0.78731 -7.69338,2.12852 -10.28912,2.7896c-2.38895,3.52556 0.90906,9.11447 2.80319,12.32667c4.98958,8.46151 14.42233,11.65936 20.87731,18.34207c3.00572,3.11181 4.76834,7.71085 6.79293,11.4628l0.75982,2.10824c0,0 1.03379,3.06589 -2.03209,4.09972z" fill="#000000" stroke="none" stroke-width="0.5" stroke-linecap="butt"/><path d="M148.15229,185.62569c-3.23418,-0.0925 -3.14165,-3.32666 -3.14165,-3.32666l0.07922,-1.14685c-0.49051,-3.45854 -0.44723,-8.01404 -1.86359,-11.292c-0.54691,-1.26569 -3.4391,-4.07628 -3.95016,-4.90262c-7.02521,-11.35836 -17.99704,-31.18766 -3.4784,-41.03535c4.40968,0.1725 17.22895,3.34582 20.44439,-1.91638c4.56474,-7.47029 1.28905,-16.10368 8.15694,-23.17312c7.95452,-8.18793 21.54643,-9.07213 32.30364,-10.81293c0,0 3.194,-0.51668 3.71061,2.67732c0.51665,3.194 -2.67736,3.71057 -2.67736,3.71057c-9.06427,1.46541 -21.94082,1.96623 -28.65668,8.8937c-8.34629,8.60934 -1.18365,24.08054 -16.09979,27.54285c-1.57792,0.36624 -3.23261,0.29719 -4.85211,0.26682c-2.39364,-0.04488 -7.9543,-0.66902 -10.61829,-0.94822c-3.46247,2.47944 -2.30537,8.86483 -1.64152,12.53436c1.74869,9.66619 9.48911,15.93426 13.22878,24.43958c1.74138,3.96044 1.80124,8.8853 2.40042,13.10636l-0.01767,2.24093c0,0 -0.0925,3.23411 -3.32673,3.1416z" fill="#000000" stroke="none" stroke-width="0.5" stroke-linecap="butt"/><path d="M301.88157,168.57413l0.7599,-2.10827c2.02463,-3.75195 3.78721,-8.35103 6.79293,-11.46281c6.45498,-6.68268 15.88769,-9.88053 20.87726,-18.34204c1.89416,-3.21213 5.1921,-8.80115 2.80319,-12.32667c-2.59571,-0.66108 -8.02817,-2.0023 -10.28911,-2.7896c-1.52973,-0.53266 -3.10589,-1.04122 -4.45911,-1.93151c-12.79251,-8.41608 -0.71297,-20.44715 -5.55927,-31.41502c-3.89954,-8.82529 -15.80492,-13.7567 -23.79995,-18.27197c0,0 -2.81714,-1.59128 -1.22585,-4.40842c1.59132,-2.81713 4.40845,-1.2258 4.40845,-1.2258c9.4876,5.36021 21.93123,10.89903 26.55602,21.33589c3.99301,9.01111 -2.07113,15.9748 -0.37752,24.56396c1.19301,6.05031 14.31766,7.51534 18.51392,8.88138c10.2072,14.26815 -6.95553,29.06761 -17.48112,37.28818c-0.76571,0.59806 -4.45265,2.23238 -5.40418,3.23018c-2.46436,2.58423 -4.00225,6.8725 -5.66066,9.94685l-0.32305,1.10324c0,0 -1.03379,3.06592 -4.09968,2.03209c-3.06588,-1.03383 -2.0321,-4.09971 -2.0321,-4.09971z" data-paper-data="{&quot;index&quot;:null}" fill="#000000" stroke="none" stroke-width="0.5" stroke-linecap="butt"/><path d="M324.53701,179.89565l-0.01767,-2.24093c0.59922,-4.22106 0.65912,-9.14596 2.40046,-13.10636c3.73963,-8.50528 11.48004,-14.77336 13.22873,-24.43955c0.66385,-3.66953 1.82099,-10.05499 -1.64152,-12.5344c-2.66399,0.27929 -8.22461,0.90337 -10.61829,0.94829c-1.61954,0.03037 -3.27423,0.09944 -4.85211,-0.26677c-14.91615,-3.46231 -7.75346,-18.93356 -16.09979,-27.54285c-6.71582,-6.92755 -19.59241,-7.42829 -28.65664,-8.8937c0,0 -3.19399,-0.51657 -2.67735,-3.71057c0.51664,-3.194 3.71064,-2.67735 3.71064,-2.67735c10.75714,1.7408 24.34904,2.62499 32.30361,10.81296c6.86788,7.06944 3.5922,15.70288 8.15694,23.17313c3.21544,5.26216 16.03474,2.08888 20.44442,1.91638c14.51864,9.84765 3.54689,29.677 -3.4784,41.03536c-0.51106,0.8263 -3.4033,3.63692 -3.9502,4.90265c-1.41636,3.27795 -1.37309,7.83346 -1.8636,11.292l0.07918,1.14682c0,0 0.09258,3.23415 -3.14161,3.32669c-3.23419,0.0925 -3.32669,-3.1416 -3.32669,-3.1416z" data-paper-data="{&quot;index&quot;:null}" fill="#000000" stroke="none" stroke-width="0.5" stroke-linecap="butt"/><path d="M320.58346,63.63282c0,18.298 -15.29702,33.13145 -34.16683,33.13145c-18.86984,0 -34.16678,-14.83345 -34.16678,-33.13145c0,-18.298 15.29698,-33.13149 34.16678,-33.13149c18.86981,0 34.16683,14.83349 34.16683,33.13149z" data-paper-data="{&quot;index&quot;:null}" fill="#ffffff" stroke="#000000" stroke-width="2" stroke-linecap="butt"/><path d="M302.98242,62.53678c0,9.68736 -7.53262,17.54052 -16.82459,17.54052c-9.29193,0 -16.82455,-7.85317 -16.82455,-17.54052c0,-9.68736 7.53262,-17.54053 16.82455,-17.54053c9.29193,0 16.82459,7.85317 16.82459,17.54053z" data-paper-data="{&quot;index&quot;:null}" fill="#000000" stroke="none" stroke-width="0" stroke-linecap="butt"/><path d="M196.61209,29.63838c18.86984,0 34.16682,14.83349 34.16682,33.13146c0,18.298 -15.29701,33.13146 -34.16682,33.13146c-18.86984,0 -34.16682,-14.83345 -34.16682,-33.13146c0,-18.298 15.29698,-33.13146 34.16682,-33.13146z" fill="#ffffff" stroke="#000000" stroke-width="2" stroke-linecap="butt"/><path d="M196.87089,44.13358c9.29193,0 16.82455,7.85313 16.82455,17.54048c0,9.68735 -7.53262,17.54049 -16.82455,17.54049c-9.29193,0 -16.82459,-7.85317 -16.82459,-17.54049c0,-9.68735 7.53266,-17.54048 16.82459,-17.54048z" fill="#000000" stroke="none" stroke-width="0" stroke-linecap="butt"/><path d="M127.17948,189.72387v-23.32888h224.54331v23.32888c0,0 -38.10143,26.42029 -110.07882,25.85087c-79.23911,-0.62689 -114.46445,-25.85086 -114.46445,-25.85086z" fill="url(#color-15)" stroke="none" stroke-width="0" stroke-linecap="butt"/><path d="M237.28313,0.22458c1.68633,0 2.41242,69.53116 2.18218,129.63951c-0.85321,-0.65542 -1.88931,-0.73422 -1.88931,-0.73422c-18.11469,-1.28629 -75.88402,-0.65396 -86.90296,-1.02698c-19.81787,-1.33182 -41.68612,0.20264 -60.61802,-7.31986c-0.21831,-4.21189 -0.3105,-8.45605 -0.3105,-12.70866c0,-59.56379 66.05526,-107.84978 147.53854,-107.84978zM157.15423,63.77764c-0.16888,14.28574 15.75869,36.22066 42.71229,37.8832c9.64455,0.5949 37.81153,-14.86802 34.27427,-44.05139c-0.8904,-7.34614 -8.25722,-33.5927 -39.93697,-31.70608c-17.00898,1.01293 -36.7429,11.92891 -37.04959,37.87424z" fill="#ff0000" stroke="#000000" stroke-width="2" stroke-linecap="butt"/><path d="M157.10423,63.77765c0.30669,-25.94533 20.0885,-36.9113 37.09748,-37.92423c31.67976,-1.88662 39.09805,24.402 39.98845,31.74814c3.53726,29.18337 -24.67375,44.70391 -34.3183,44.10901c-26.95361,-1.66254 -42.93651,-23.64713 -42.76763,-37.93288z" data-paper-data="{&quot;noHover&quot;:false,&quot;origItem&quot;:[&quot;Path&quot;,{&quot;applyMatrix&quot;:true,&quot;segments&quot;:[[[314.30846,127.55528],[0,0],[-0.33776,28.57149]],[[399.73305,203.32169],[-53.90721,-3.32508],[19.2891,1.18981]],[[468.28158,115.2189],[7.07452,58.36674],[-1.7808,-14.69229]],[[388.40764,51.80673],[63.35951,-3.77324],[-34.01796,2.02586]],[[314.30846,127.5552],[0.61339,-51.89066],[0,0]]],&quot;closed&quot;:true,&quot;fillColor&quot;:[0,0,0,1]}]}" fill="#000000" stroke="none" stroke-width="0.5" stroke-linecap="butt"/><path d="M237.28313,210.79149c-115.014,8.55867 -142.11843,-36.20561 -146.73403,-88.07102c18.97252,6.55626 40.18288,5.38269 59.79665,6.71239c11.25708,0.3811 68.98041,-0.40824 86.73967,1.01667c0,0 1.33994,0.10186 2.35838,-0.68919c-0.20783,43.59022 -0.92858,80.93946 -2.16059,81.03115z" fill="#ff0000" stroke="#000000" stroke-width="2" stroke-linecap="butt"/><path d="M391.35941,108.9372c0,4.25262 -0.0922,8.49677 -0.31051,12.70866c-18.93194,7.52249 -40.80016,5.98803 -60.61802,7.31985c-11.01895,0.37306 -68.7882,-0.25926 -86.90288,1.02698c0,0 -1.03606,0.0788 -1.88931,0.73422c-0.23016,-60.1083 0.49589,-129.6395 2.18219,-129.6395c81.48328,0 147.53854,48.286 147.53854,107.84983zM289.46651,24.84128c-31.67975,-1.88662 -39.04654,24.3599 -39.93697,31.70605c-3.53723,29.18337 24.62972,44.6463 34.27427,44.0514c26.9536,-1.66254 42.88117,-23.59754 42.71229,-37.88317c-0.30673,-25.94533 -20.0406,-36.86127 -37.04962,-37.87419z" data-paper-data="{&quot;index&quot;:null}" fill="#ff0000" stroke="#000000" stroke-width="2" stroke-linecap="butt"/><path d="M289.46858,24.7914c17.00902,1.01293 36.79079,11.97887 37.09752,37.9242c0.16888,14.28563 -15.81402,36.27029 -42.76763,37.93284c-9.64455,0.5949 -37.85553,-14.92563 -34.31831,-44.109c0.89043,-7.34614 8.3087,-33.63473 39.98845,-31.74811z" data-paper-data="{&quot;noHover&quot;:false,&quot;origItem&quot;:[&quot;Path&quot;,{&quot;applyMatrix&quot;:true,&quot;segments&quot;:[[[578.93302,49.68256],[0,0],[-63.35951,-3.77324]],[[499.05908,113.09465],[1.78087,-14.69229],[-7.07445,58.36674]],[[567.60761,201.19744],[-19.2891,1.18981],[53.90721,-3.32508]],[[653.03219,125.4311],[0.33776,28.57125],[-0.61346,-51.89066]],[[578.93294,49.68271],[34.01804,2.02586],[0,0]]],&quot;closed&quot;:true,&quot;fillColor&quot;:[0,0,0,1]}]}" fill="#000000" stroke="none" stroke-width="0.5" stroke-linecap="butt"/><path d="M241.66028,130.59011c1.01844,0.79104 2.35834,0.68914 2.35834,0.68914c17.75925,-1.4249 75.48259,-0.63556 86.73971,-1.01666c19.61385,-1.3297 40.82417,-0.15617 59.79665,-6.71243c-4.61559,51.86541 -31.7201,96.6297 -146.73406,88.07103c-1.23204,-0.09166 -1.95275,-37.44089 -2.16059,-81.03111z" data-paper-data="{&quot;index&quot;:null}" fill="#ff0000" stroke="#000000" stroke-width="2" stroke-linecap="butt"/><path d="M240.14903,87.39366c24.302,0 44.00269,19.70069 44.00269,44.00274c0,24.30201 -19.70065,44.0027 -44.00269,44.0027c-24.30201,0 -44.00278,-19.70069 -44.00278,-44.0027c0,-24.30201 19.70074,-44.00273 44.00278,-44.00273z" fill="#ff7b00" stroke="#000000" stroke-width="2" stroke-linecap="butt"/><path d="M-16.75675,372.19219v-384.38438h513.51351v384.38438z" fill="url(#color-16)" stroke="none" stroke-width="NaN" stroke-linecap="butt"/><path d="M-16.75675,372.19219v-384.38438h513.51351v384.38438z" fill="url(#color-17)" stroke="none" stroke-width="NaN" stroke-linecap="butt"/><path d="M-16.75675,372.19219v-384.38438h513.51351v384.38438z" fill="url(#color-18)" stroke="none" stroke-width="NaN" stroke-linecap="butt"/></g><text transform="translate(191.79002,46.12912) scale(0.5,0.5)" font-size="40" xml:space="preserve" fill="url(#color-19)" fill-rule="nonzero" stroke="none" stroke-width="1" stroke-linecap="butt" stroke-linejoin="miter" stroke-miterlimit="10" stroke-dasharray="" stroke-dashoffset="0" font-family="Sans Serif" font-weight="normal" text-anchor="start" style="mix-blend-mode: normal"><tspan x="0" dy="0">WARNING</tspan></text><text transform="translate(62.27876,173.06877) scale(0.36457,0.36457)" font-size="40" xml:space="preserve" fill="url(#color-20)" fill-rule="nonzero" stroke="none" stroke-width="1" stroke-linecap="butt" stroke-linejoin="miter" stroke-miterlimit="10" stroke-dasharray="" stroke-dashoffset="0" font-family="Sans Serif" font-weight="normal" text-anchor="start" style="mix-blend-mode: normal"><tspan x="0" dy="0">This game contains flashing lights and jumpscares!</tspan></text><text transform="translate(84.28363,195.68094) scale(0.36457,0.36457)" font-size="40" xml:space="preserve" fill="url(#color-21)" fill-rule="nonzero" stroke="none" stroke-width="1" stroke-linecap="butt" stroke-linejoin="miter" stroke-miterlimit="10" stroke-dasharray="" stroke-dashoffset="0" font-family="Sans Serif" font-weight="normal" text-anchor="start" style="mix-blend-mode: normal"><tspan x="0" dy="0">Don't play if you can't deal with any of these!</tspan></text><text transform="translate(103.03428,230.59129) scale(0.29927,0.29927)" font-size="40" xml:space="preserve" fill="url(#color-22)" fill-rule="nonzero" stroke="none" stroke-width="1" stroke-linecap="butt" stroke-linejoin="miter" stroke-miterlimit="10" stroke-dasharray="" stroke-dashoffset="0" font-family="Sans Serif" font-weight="normal" text-anchor="start" style="mix-blend-mode: normal"><tspan x="0" dy="0">Grab some headphones for a better experience!</tspan></text><text transform="translate(146.38999,345.45656) scale(0.37138,0.37138)" font-size="40" xml:space="preserve" fill="url(#color-23)" fill-rule="nonzero" stroke="none" stroke-width="1" stroke-linecap="butt" stroke-linejoin="miter" stroke-miterlimit="10" stroke-dasharray="" stroke-dashoffset="0" font-family="Sans Serif" font-weight="normal" text-anchor="start" style="mix-blend-mode: normal"><tspan x="0" dy="0">Click anywhere to proceed</tspan></text></g></g></svg>