<svg version="1.1" xmlns="http://www.w3.org/2000/svg" xmlns:xlink="http://www.w3.org/1999/xlink" width="770.75914" height="556.06409" viewBox="0,0,770.75914,556.06409"><defs><radialGradient cx="211.78855" cy="276.4086" r="104.71462" gradientUnits="userSpaceOnUse" id="color-1"><stop offset="0" stop-color="#a94f05"/><stop offset="1" stop-color="#ff7b00"/></radialGradient></defs><g transform="translate(146.03855,67.00352)"><g data-paper-data="{&quot;isPaintingLayer&quot;:true}" fill-rule="nonzero" stroke="#000000" stroke-width="3.5" stroke-linecap="butt" stroke-linejoin="miter" stroke-miterlimit="10" stroke-dasharray="" stroke-dashoffset="0" style="mix-blend-mode: normal"><g><path d="M211.78865,171.69403c57.8322,0 104.71452,46.88233 104.71452,104.71462c0,57.8322 -46.88223,104.71452 -104.71452,104.71452c-57.8322,0 -104.71471,-46.88232 -104.71471,-104.71452c0,-57.8322 46.88242,-104.71462 104.71471,-104.71462z" fill="url(#color-1)"/><path d="M-144.05589,275.26174c45.14945,15.60212 95.62439,12.80935 142.29987,15.97369c26.78881,0.90693 164.15473,-0.97151 206.41696,2.41938c0,0 3.18871,0.24239 5.6123,-1.64007c-0.49459,103.73294 0.77856,192.62195 -2.15386,192.83224c-280.79369,20.13663 -341.1914,-86.15958 -352.17527,-209.58524z" fill="#a90000"/></g><path d="M213.11104,-65.25352c4.013,0 0.76132,165.46537 0.21341,308.50699c-2.03041,-1.55973 -4.49605,-1.74725 -4.49605,-1.74725c-43.10806,-3.06101 -180.58344,-1.55625 -206.80556,-2.44393c-47.16118,-3.16938 -99.2017,0.48223 -144.25451,-17.41927c-0.51951,-10.02316 -0.73891,-20.1231 -0.73891,-30.24319c0,-134.82619 62.82715,-265.4882 351.22859,-255.04536c1.61428,-0.53742 4.85304,-1.60798 4.85304,-1.60798zM17.44632,85.98559c-0.40188,33.99621 37.50142,86.1954 101.64371,90.15179c22.95142,1.41572 89.98122,-35.38187 81.56349,-104.8304c-2.1189,-17.48184 -19.64994,-79.94155 -95.03919,-75.45191c-40.47677,2.4105 -87.43816,28.38756 -88.16801,90.13044z" fill="#a90000"/><path d="M271.742,-57.64553c288.40144,-10.44285 351.22859,120.21917 351.22859,255.04536c0,10.12009 -0.2194,20.22003 -0.73891,30.24319c-45.05281,17.9015 -97.09333,14.24989 -144.25451,17.41927c-26.22212,0.88768 -163.69751,-0.61708 -206.80556,2.44393c0,0 -2.46564,0.18752 -4.49605,1.74725c-0.54792,-143.04162 -3.7996,-308.50699 0.21341,-308.50699c0,0 3.23876,1.07056 4.85304,1.60798zM462.55368,91.9855c-0.72984,-61.74288 -47.69123,-87.71994 -88.16801,-90.13044c-75.38925,-4.48964 -92.92029,57.97007 -95.03919,75.45191c-8.41773,69.44853 58.61207,106.24613 81.56349,104.8304c64.14229,-3.95639 102.04559,-56.15558 101.64371,-90.15179z" data-paper-data="{&quot;index&quot;:null}" fill="#a90000"/><path d="M267.88062,480.84698c-2.93242,-0.21029 -1.65926,-89.0993 -2.15386,-192.83224c2.42359,1.88246 5.6123,1.64007 5.6123,1.64007c42.26223,-3.39089 179.62815,-1.51245 206.41696,-2.41938c46.67547,-3.16434 97.15041,-0.37157 142.29987,-15.97369c-10.98387,123.42566 -71.38157,229.72187 -352.17527,209.58524z" data-paper-data="{&quot;index&quot;:null}" fill="#a90000"/></g></g></svg>