<svg version="1.1" xmlns="http://www.w3.org/2000/svg" xmlns:xlink="http://www.w3.org/1999/xlink" width="715.44117" height="510.76234" viewBox="0,0,715.44117,510.76234"><defs><linearGradient x1="83.64189" y1="181.8777" x2="197.14323" y2="191.02616" gradientUnits="userSpaceOnUse" id="color-1"><stop offset="0" stop-color="#6c6c6c"/><stop offset="1" stop-color="#c4c4c4"/></linearGradient><linearGradient x1="154.84113" y1="87.84413" x2="153.74175" y2="101.48377" gradientUnits="userSpaceOnUse" id="color-2"><stop offset="0" stop-color="#707070"/><stop offset="1" stop-color="#a6a6a6"/></linearGradient><linearGradient x1="121.05016" y1="165.58392" x2="165.69401" y2="169.18232" gradientUnits="userSpaceOnUse" id="color-3"><stop offset="0" stop-color="#6e6e6e"/><stop offset="1" stop-color="#c0c0c0"/></linearGradient><linearGradient x1="148.74284" y1="95.6632" x2="146.69967" y2="121.01192" gradientUnits="userSpaceOnUse" id="color-4"><stop offset="0" stop-color="#a6a6a6"/><stop offset="1" stop-color="#707070"/></linearGradient><linearGradient x1="147.25797" y1="111.72348" x2="143.32413" y2="160.52906" gradientUnits="userSpaceOnUse" id="color-5"><stop offset="0" stop-color="#a6a6a6"/><stop offset="1" stop-color="#707070"/></linearGradient><linearGradient x1="116.89715" y1="96.47081" x2="126.82536" y2="157.15359" gradientUnits="userSpaceOnUse" id="color-6"><stop offset="0" stop-color="#a6a6a6"/><stop offset="1" stop-color="#707070"/></linearGradient><linearGradient x1="179.13895" y1="103.39171" x2="159.6197" y2="161.70089" gradientUnits="userSpaceOnUse" id="color-7"><stop offset="0" stop-color="#a6a6a6"/><stop offset="1" stop-color="#707070"/></linearGradient><linearGradient x1="144.42812" y1="149.19416" x2="143.29981" y2="163.19266" gradientUnits="userSpaceOnUse" id="color-8"><stop offset="0" stop-color="#a6a6a6"/><stop offset="1" stop-color="#707070"/></linearGradient><linearGradient x1="143.22781" y1="161.66365" x2="142.12842" y2="175.3033" gradientUnits="userSpaceOnUse" id="color-9"><stop offset="0" stop-color="#707070"/><stop offset="1" stop-color="#a6a6a6"/></linearGradient><linearGradient x1="227.37563" y1="75.46158" x2="148.66864" y2="69.11762" gradientUnits="userSpaceOnUse" id="color-10"><stop offset="0" stop-color="#e800ff"/><stop offset="1" stop-color="#7c00ff"/></linearGradient><linearGradient x1="73.44551" y1="63.80959" x2="152.15251" y2="70.15355" gradientUnits="userSpaceOnUse" id="color-11"><stop offset="0" stop-color="#e800ff"/><stop offset="1" stop-color="#7c00ff"/></linearGradient><radialGradient cx="241.78855" cy="267.92814" r="104.71462" gradientUnits="userSpaceOnUse" id="color-12"><stop offset="0" stop-color="#a94f05"/><stop offset="1" stop-color="#ff7b00"/></radialGradient><linearGradient x1="243.75375" y1="34.35436" x2="243.75375" y2="62.88289" gradientUnits="userSpaceOnUse" id="color-13"><stop offset="0" stop-color="#848484"/><stop offset="1" stop-color="#545454"/></linearGradient><linearGradient x1="241.24624" y1="225.54055" x2="241.24624" y2="254.06908" gradientUnits="userSpaceOnUse" id="color-14"><stop offset="0" stop-color="#848484"/><stop offset="1" stop-color="#545454"/></linearGradient><linearGradient x1="57.56757" y1="176.24626" x2="84.5946" y2="176.24626" gradientUnits="userSpaceOnUse" id="color-15"><stop offset="0" stop-color="#848484"/><stop offset="1" stop-color="#545454"/></linearGradient><linearGradient x1="397.4024" y1="181.24626" x2="424.42943" y2="181.24626" gradientUnits="userSpaceOnUse" id="color-16"><stop offset="0" stop-color="#848484"/><stop offset="1" stop-color="#545454"/></linearGradient></defs><g transform="translate(117.72058,30.18223)"><g data-paper-data="{&quot;isPaintingLayer&quot;:true}" fill-rule="nonzero" stroke-linejoin="miter" stroke-miterlimit="10" stroke-dasharray="" stroke-dashoffset="0" style="mix-blend-mode: normal"><path d="M-17.50751,368.43845v-376.87688h515.01502v376.87688z" fill="#060606" stroke="none" stroke-width="NaN" stroke-linecap="butt"/><g><path d="M144.19586,132.2505c36.14837,2.91364 63.48641,29.66744 61.06118,59.75627c-2.42523,30.08883 -49.82532,50.81856 -69.84372,49.20503c-22.26907,-1.79494 -63.48641,-29.66743 -61.06118,-59.75626c2.42523,-30.08883 33.69532,-52.11868 69.84371,-49.20504z" fill="#696969" stroke="#000000" stroke-width="2" stroke-linecap="butt"/><path d="M144.07227,140.79917c31.34254,2.52628 55.10321,25.01369 53.07096,50.22699c-2.03225,25.21332 -29.08786,43.6048 -60.4304,41.07852c-31.34254,-2.52628 -55.10319,-25.01368 -53.07094,-50.22698c2.03225,-25.21332 29.08784,-43.60481 60.43037,-41.07852z" fill="none" stroke="url(#color-1)" stroke-width="4.5" stroke-linecap="butt"/><path d="M208.56468,193.54664c-1.74212,16.92952 -37.44044,48.91357 -65.71136,46.63487c-4.65746,-0.3754 -4.50857,-11.28528 0.44828,-13.84107c4.24602,1.40728 39.64832,-5.50755 45.62178,-32.03772c3.26795,-51.17962 -60.30906,-62.03484 -41.41989,-60.51233c36.14839,2.91364 63.48639,29.66743 61.06116,59.75626z" data-paper-data="{&quot;index&quot;:null}" fill="#ff84c2" stroke="#000000" stroke-width="2" stroke-linecap="butt"/><path d="M88.10015,96.19291l1.09939,-13.63964l131.28321,10.58172l-1.09939,13.63964c0,0 -23.52175,13.65154 -65.57777,9.92664c-46.29901,-4.10071 -65.70542,-20.50836 -65.70542,-20.50836z" fill="url(#color-2)" stroke="none" stroke-width="0" stroke-linecap="butt"/><path d="M73.88605,181.5586c2.42523,-30.08883 33.6953,-52.11868 69.84369,-49.20504c18.88917,1.52251 -45.60568,2.05485 -50.57705,53.09716c1.64719,27.14442 35.48494,39.64015 39.90154,38.9311c4.48352,3.3167 2.88311,14.10958 -1.77435,13.73418c-28.27092,-2.2787 -58.3857,-39.56745 -57.39383,-56.55743z" data-paper-data="{&quot;index&quot;:null}" fill="#ff84c2" stroke="#000000" stroke-width="2" stroke-linecap="butt"/><g stroke="none" stroke-width="0" stroke-linecap="butt"><path d="M119.15948,189.04085l3.78136,-46.91389l44.64385,3.59839l-3.78136,46.91389z" fill="url(#color-3)"/><path d="M159.14598,160.65784l1.09782,-13.62015l5.29671,0.42693l-1.09782,13.62015z" fill="#ffffff"/><path d="M157.8957,176.16968l1.09782,-13.62015l5.29671,0.42693l-1.09782,13.62015z" fill="#ffffff"/><path d="M156.6759,191.30318l1.09782,-13.62015l5.29671,0.42693l-1.09782,13.62015z" fill="#ffffff"/><path d="M123.99106,157.44345l1.09781,-13.62015l5.29673,0.42693l-1.09782,13.62015z" fill="#ffffff"/><path d="M122.74077,172.95531l1.09781,-13.62015l5.29673,0.42693l-1.09781,13.62015z" fill="#ffffff"/><path d="M121.52097,188.08883l1.09782,-13.62015l5.29672,0.42693l-1.09781,13.62015z" fill="#ffffff"/><path d="M142.80962,190.10936l0.36594,-4.54006l10.21511,0.82336l-0.36594,4.54006z" fill="#ffffff"/><path d="M131.03679,189.08429l0.36594,-4.54006l10.21514,0.82336l-0.36594,4.54006z" fill="#ffffff"/></g><path d="M151.09929,64.77283c48.68539,3.92415 85.8772,35.33657 83.07023,70.16159c-2.80698,34.82502 -19.83976,62.24489 -93.23519,55.95099c-77.52792,-6.64826 -85.87718,-35.33657 -83.0702,-70.16161c2.80698,-34.82502 44.54977,-59.87513 93.23516,-55.95098z" fill="#696969" stroke="#000000" stroke-width="2" stroke-linecap="butt"/><path d="M119.64854,118.83154l2.04316,-25.34863l54.10228,4.36077l-2.04316,25.34863z" fill="url(#color-4)" stroke="#000000" stroke-width="0" stroke-linecap="butt"/><path d="M123.65056,158.94332l3.93384,-48.80557l39.34713,3.17147l-3.93384,48.80558z" fill="url(#color-5)" stroke="none" stroke-width="0" stroke-linecap="butt"/><path d="M122.14304,157.91965l-9.92823,-60.68266l9.36462,-1.53213l9.92823,60.68267z" fill="url(#color-6)" stroke="none" stroke-width="0" stroke-linecap="butt"/><path d="M155.12055,160.19476l19.51924,-58.30914l8.99834,3.01222l-19.51927,58.30915z" data-paper-data="{&quot;index&quot;:null}" fill="url(#color-7)" stroke="none" stroke-width="0" stroke-linecap="butt"/><path d="M112.4653,160.70733l1.12831,-13.9985l61.66905,4.97066l-1.12831,13.9985z" fill="url(#color-8)" stroke="none" stroke-width="0" stroke-linecap="butt"/><path d="M102.87058,163.62885c-1.84122,0.45997 -2.30121,-1.3813 -2.30121,-1.3813l-0.13687,-0.66026c-0.82477,-1.87563 -1.52183,-4.45531 -2.84087,-6.08236c-0.50933,-0.62822 -2.58792,-1.75753 -3.00742,-2.14326c-5.76655,-5.30237 -15.10363,-14.7639 -8.46345,-22.62501c2.5178,-0.60093 10.26041,-0.839 11.24305,-4.3202c1.39497,-4.94199 -1.8224,-9.29917 0.93686,-14.37952c3.19579,-5.88415 10.73219,-8.53609 16.53189,-11.22294c0,0 1.72208,-0.79764 2.51971,0.92444c0.79764,1.72208 -0.92444,2.51969 -0.92444,2.51969c-4.88724,2.26316 -12.0803,4.58531 -14.77614,9.56143c-3.35034,6.18419 3.14523,13.78763 -4.73077,18.10538c-0.83317,0.45675 -1.77866,0.67981 -2.69815,0.91915c-1.35898,0.35377 -4.59837,0.88193 -6.14717,1.14611c-1.56288,1.9487 0.10198,5.37178 1.05803,7.33911c2.51849,5.18231 7.88282,7.49651 11.34191,11.70787c1.6107,1.96102 2.42452,4.733 3.43141,7.02205l0.34489,1.26842c0,0 0.45995,1.84124 -1.3813,2.30121z" fill="#000000" stroke="none" stroke-width="0.5" stroke-linecap="butt"/><path d="M88.3794,168.55939c-1.88656,-0.2065 -1.68005,-2.09304 -1.68005,-2.09304l0.10036,-0.6668c-0.1238,-2.04521 0.11618,-4.70663 -0.55744,-6.68989c-0.26011,-0.76578 -1.81863,-2.54533 -2.07849,-3.05255c-3.57214,-6.97193 -9.05255,-19.08254 -0.0999,-24.15597c2.57007,0.30866 9.91554,2.76811 12.04348,-0.15699c3.0209,-4.15252 1.51256,-9.35456 5.86114,-13.16418c5.03662,-4.41235 13.02503,-4.28879 19.39647,-4.79964c0,0 1.89177,-0.15157 2.0433,1.7402c0.15155,1.89177 -1.74023,2.04328 -1.74023,2.04328c-5.36865,0.42962 -12.92074,0.11562 -17.17375,3.8494c-5.28553,4.64027 -1.82686,14.02333 -10.71101,15.3447c-0.93982,0.13977 -1.90401,0.02141 -2.84945,-0.07266c-1.39737,-0.13904 -4.61909,-0.766 -6.16349,-1.05479c-2.14124,1.28648 -1.76563,5.07434 -1.55043,7.25108c0.56688,5.73391 4.79706,9.76343 6.5827,14.91245c0.83149,2.3976 0.6344,5.27984 0.7858,7.77599l-0.11593,1.30937c0,0 -0.2065,1.88652 -2.09308,1.68002z" fill="#000000" stroke="none" stroke-width="0.5" stroke-linecap="butt"/><path d="M179.06351,165.83447l0.54364,-1.19683c1.36055,-2.09823 2.60781,-4.7041 4.5118,-6.38181c4.08894,-3.60295 9.75464,-5.0281 13.07064,-9.74014c1.25883,-1.78876 3.45041,-4.90107 2.21983,-7.07491c-1.48647,-0.50884 -4.59945,-1.54901 -5.88425,-2.11587c-0.86928,-0.38352 -1.76684,-0.75513 -2.51607,-1.33943c-7.08275,-5.52347 0.54673,-11.98839 -1.76987,-18.62933c-1.86404,-5.34363 -8.59234,-8.78791 -13.05398,-11.80461c0,0 -1.5721,-1.06313 -0.50897,-2.63523c1.06315,-1.57209 2.63525,-0.50894 2.63525,-0.50894c5.29449,3.58105 12.30886,7.40584 14.52098,13.72588c1.90993,5.45668 -1.96374,9.24234 -1.37831,14.34396c0.41239,3.59364 8.01691,5.06871 10.40595,6.06514c5.29543,8.82314 -5.4365,16.66711 -11.97788,20.97739c-0.47587,0.31359 -2.70852,1.09537 -3.31187,1.63391c-1.56262,1.39478 -2.66386,3.82952 -3.77836,5.54884l-0.24087,0.6298c0,0 -0.74891,1.74383 -2.49271,0.9949c-1.7438,-0.74893 -0.9949,-2.49273 -0.9949,-2.49273z" data-paper-data="{&quot;index&quot;:null}" fill="#000000" stroke="none" stroke-width="0.5" stroke-linecap="butt"/><path d="M191.77588,173.52144l0.09528,-1.31103c0.54926,-2.43967 0.81637,-5.31629 2.02111,-7.54974c2.58726,-4.79653 7.40821,-8.09651 8.88614,-13.6656c0.56106,-2.11417 1.53852,-5.79301 -0.36905,-7.40582c-1.57072,0.03775 -4.85124,0.14058 -6.25286,0.05405c-0.94832,-0.05856 -1.91901,-0.09616 -2.8243,-0.38463c-8.55782,-2.72723 -3.64095,-11.43522 -8.11506,-16.86213c-3.60006,-4.3668 -11.10498,-5.26639 -16.33549,-6.55031c0,0 -1.84309,-0.45255 -1.3905,-2.29563c0.45259,-1.84308 2.29567,-1.39049 2.29567,-1.39049c6.20732,1.52473 14.1124,2.68221 18.37731,7.84431c3.68228,4.45692 1.36023,9.35025 3.67705,13.93298c1.63198,3.22815 9.27656,1.97694 11.86288,2.0839c8.0245,6.4418 0.6752,17.51833 -3.96753,23.82812c-0.33774,0.45903 -2.16118,1.96601 -2.54059,2.68027c-0.98258,1.84977 -1.17196,4.51527 -1.62173,6.51424l-0.00775,0.67424c0,0 -0.09828,1.89527 -1.99356,1.79696c-1.89528,-0.09833 -1.79696,-1.99357 -1.79696,-1.99357z" data-paper-data="{&quot;index&quot;:null}" fill="#000000" stroke="none" stroke-width="0.5" stroke-linecap="butt"/><path d="M123.22876,89.99567c11.03259,0.88925 19.27721,10.28279 18.4149,20.98102c-0.8623,10.69825 -10.50501,18.65001 -21.53758,17.76076c-11.03259,-0.88925 -19.27721,-10.28277 -18.4149,-20.98102c0.8623,-10.69825 10.50499,-18.65001 21.53758,-17.76076z" fill="#ffffff" stroke="#000000" stroke-width="2" stroke-linecap="butt"/><path d="M122.697,98.48263c5.43269,0.43789 9.46669,5.38434 9.01017,11.04822c-0.45652,5.66388 -5.23069,9.90038 -10.66338,9.46249c-5.43269,-0.43789 -9.4667,-5.38437 -9.01018,-11.04823c0.45652,-5.66388 5.2307,-9.90037 10.6634,-9.46249z" fill="#000000" stroke="#00b5ff" stroke-width="1" stroke-linecap="butt"/><path d="M174.95857,94.61823c11.03259,0.88925 19.2772,10.28279 18.4149,20.98102c-0.8623,10.69825 -10.50501,18.65001 -21.53758,17.76076c-11.03259,-0.88925 -19.2772,-10.28277 -18.4149,-20.98102c0.8623,-10.69825 10.50499,-18.65001 21.53758,-17.76076z" fill="#ffffff" stroke="#000000" stroke-width="2" stroke-linecap="butt"/><path d="M174.42679,103.10521c5.43269,0.43789 9.46669,5.38434 9.01017,11.04822c-0.45652,5.66388 -5.23069,9.90037 -10.66338,9.46249c-5.43269,-0.43789 -9.4667,-5.38436 -9.01018,-11.04822c0.45652,-5.66388 5.2307,-9.90037 10.6634,-9.46249z" fill="#000000" stroke="#00b5ff" stroke-width="1" stroke-linecap="butt"/><path d="M76.48682,170.01243l1.09939,-13.63964l131.28322,10.58172l-1.09939,13.63964c0,0 -23.52175,13.65154 -65.57777,9.92664c-46.29901,-4.10071 -65.70543,-20.50837 -65.70543,-20.50837z" fill="url(#color-9)" stroke="none" stroke-width="0" stroke-linecap="butt"/><path d="M143.26159,188.54734c-0.71599,-0.11167 0.62271,-21.98253 2.55541,-47.47811c0.55816,0.51049 1.34637,0.51408 1.34637,0.51408c10.45041,0.00382 44.16217,3.18557 50.76181,3.49325c11.53022,0.14687 23.87592,1.83257 35.2775,-1.10658c-5.14277,30.10652 -23.09942,55.00144 -89.94104,44.57736z" data-paper-data="{&quot;index&quot;:null}" fill="#ff84c2" stroke="#000000" stroke-width="2" stroke-linecap="butt"/><path d="M138.55512,187.41289c-67.64828,-0.41611 -81.38584,-27.86566 -81.64024,-58.40721c10.78365,4.72733 23.23994,5.04072 34.64484,6.74247c6.56371,0.75332 40.34988,3.01205 50.66599,4.68206c0,0 0.7786,0.1227 1.41132,-0.2918c-2.17573,25.47599 -4.35723,47.27892 -5.08187,47.27447z" fill="#ff84c2" stroke="#000000" stroke-width="2" stroke-linecap="butt"/><g data-paper-data="{&quot;index&quot;:null}"><path d="M223.42304,76.18323c0,0 44.27952,-32.81262 77.73482,-11.95415c32.71293,20.39558 15.663,75.95857 15.663,75.95857" fill="none" stroke="#e800ff" stroke-width="5" stroke-linecap="round"/><path d="M225.55989,76.13387c0,0 31.56786,-40.11079 66.54472,-29.6269c34.20069,10.25122 32.50798,64.05365 32.50798,64.05365" fill="none" stroke="#ff0057" stroke-width="5" stroke-linecap="round"/><path d="M213.39934,86.48029c0,0 31.56786,-40.11076 66.54473,-29.6269c34.20069,10.25122 32.50797,64.05365 32.50797,64.05365" fill="none" stroke="#0071ff" stroke-width="5" stroke-linecap="round"/><path d="M224.76827,79.38953c0,0 48.59336,-19.64979 74.4207,7.53332c25.25422,26.5799 -3.695,73.66986 -3.695,73.66986" fill="none" stroke="#e800ff" stroke-width="5" stroke-linecap="round"/><path d="M226.74743,79.85372c0,0 38.63045,-29.40079 68.33294,-11.40659c29.04336,17.59491 14.65326,66.72655 14.65326,66.72655" fill="none" stroke="#ff0057" stroke-width="5" stroke-linecap="round"/><path d="M213.08374,86.47938c0,0 38.63045,-29.40079 68.33294,-11.40659c29.04336,17.59491 14.65325,66.72657 14.65325,66.72657" fill="none" stroke="#0071ff" stroke-width="5" stroke-linecap="round"/><path d="M228.52383,82.4842c0,0 31.23135,-33.86433 53.67498,-13.89345c21.94561,19.52772 8.83553,75.40826 8.83553,75.40826" fill="none" stroke="#e800ff" stroke-width="5" stroke-linecap="round"/><path d="M229.99225,82.38097c0,0 22.68782,-40.82652 46.43822,-31.24754c23.22338,9.36643 20.70207,63.10206 20.70207,63.10206" fill="none" stroke="#ff0057" stroke-width="5" stroke-linecap="round"/><path d="M221.3814,93.01352c0,0 22.68782,-40.82652 46.43822,-31.24754c23.22338,9.36643 20.70207,63.10206 20.70207,63.10206" fill="none" stroke="#0071ff" stroke-width="5" stroke-linecap="round"/><path d="M229.36646,85.65001c0,0 33.86072,-20.83728 50.90721,5.63808c16.6682,25.88784 -4.39793,73.6132 -4.39793,73.6132" fill="none" stroke="#e800ff" stroke-width="5" stroke-linecap="round"/><path d="M230.71359,86.06326c0,0 27.2665,-30.31676 47.20579,-13.1095c19.49682,16.82544 8.37543,66.22057 8.37543,66.22057" fill="none" stroke="#ff0057" stroke-width="5" stroke-linecap="round"/><path d="M221.16473,93.02056c0,0 27.26649,-30.31678 47.20578,-13.10951c19.49682,16.82544 8.37541,66.22057 8.37541,66.22057" fill="none" stroke="#0071ff" stroke-width="5" stroke-linecap="round"/><path d="M227.01529,80.09729c0,0 29.74484,-33.98415 50.93399,-14.11438c20.71895,19.42885 8.05771,75.34556 8.05771,75.34556" fill="none" stroke="#e800ff" stroke-width="5" stroke-linecap="round"/><path d="M228.40753,79.98791c0,0 21.67617,-40.90806 44.14761,-31.43216c21.9728,9.26563 19.35707,62.99365 19.35707,62.99365" fill="none" stroke="#ff0057" stroke-width="5" stroke-linecap="round"/><path d="M220.20112,90.65306c0,0 21.67617,-40.90806 44.14761,-31.43216c21.9728,9.26563 19.35707,62.99365 19.35707,62.99365" fill="none" stroke="#0071ff" stroke-width="5" stroke-linecap="round"/><path d="M227.80068,83.25849c0,0 32.18234,-20.97255 48.22847,5.42217c15.69005,25.809 -4.47801,73.60674 -4.47801,73.60674" fill="none" stroke="#e800ff" stroke-width="5" stroke-linecap="round"/><path d="M229.07585,83.66593c0,0 25.97185,-30.42111 44.79888,-13.30349c18.40923,16.73778 7.66023,66.16292 7.66023,66.16292" fill="none" stroke="#ff0057" stroke-width="5" stroke-linecap="round"/><path d="M219.9957,90.66101c0,0 25.97185,-30.42113 44.79888,-13.30351c18.40923,16.73778 7.66023,66.16292 7.66023,66.16292" fill="none" stroke="#0071ff" stroke-width="5" stroke-linecap="round"/><path d="M230.15808,86.24042c0,0 21.28136,-34.66632 35.32798,-15.37226c13.73492,18.86592 3.62919,74.98862 3.62919,74.98862" fill="none" stroke="#e800ff" stroke-width="5" stroke-linecap="round"/><path d="M231.11678,86.09612c0,0 15.9163,-41.37234 31.1059,-32.48338c14.85254,8.69171 11.69938,62.37645 11.69938,62.37645" fill="none" stroke="#ff0057" stroke-width="5" stroke-linecap="round"/><path d="M225.21278,96.94685c0,0 15.9163,-41.37233 31.1059,-32.48337c14.85254,8.69171 11.6994,62.37645 11.6994,62.37645" fill="none" stroke="#0071ff" stroke-width="5" stroke-linecap="round"/><path d="M230.61748,89.37536c0,0 22.62628,-21.74279 32.97686,4.19285c10.12089,25.36012 -4.93396,73.57 -4.93396,73.57" fill="none" stroke="#e800ff" stroke-width="5" stroke-linecap="round"/><path d="M231.48272,89.74976c0,0 18.6008,-31.01523 31.09512,-14.40805c12.21704,16.23867 3.58825,65.83471 3.58825,65.83471" fill="none" stroke="#ff0057" stroke-width="5" stroke-linecap="round"/><path d="M225.07157,96.95998c0,0 18.6008,-31.01523 31.09512,-14.40805c12.21704,16.23867 3.58825,65.83468 3.58825,65.83468" fill="none" stroke="#0071ff" stroke-width="5" stroke-linecap="round"/><path d="M218.48496,75.3468c0,0 27.27973,-47.88695 66.30649,-42.29722c38.16073,5.46569 44.97433,63.185 44.97433,63.185" fill="none" stroke="#e800ff" stroke-width="5" stroke-linecap="round"/><path d="M220.42029,74.43961c0,0 12.70415,-49.43691 48.93795,-53.95396c35.42975,-4.4168 55.58525,45.49634 55.58525,45.49634" fill="none" stroke="#ff0057" stroke-width="5" stroke-linecap="round"/><path d="M213.46696,88.81247c0,0 12.70415,-49.4369 48.93795,-53.95395c35.42975,-4.4168 55.58525,45.49634 55.58525,45.49634" fill="none" stroke="#0071ff" stroke-width="5" stroke-linecap="round"/><path d="M221.00932,77.73796c0,0 36.53697,-37.58295 71.13541,-23.12885c33.83068,14.13336 26.33809,68.89996 26.33809,68.89996" fill="none" stroke="#e800ff" stroke-width="5" stroke-linecap="round"/><path d="M223.00753,77.36431c0,0 23.48708,-42.48618 57.92446,-38.0034c33.6732,4.38334 40.32613,55.14486 40.32613,55.14486" fill="none" stroke="#ff0057" stroke-width="5" stroke-linecap="round"/><path d="M213.17785,88.93893c0,0 23.48708,-42.48619 57.92446,-38.0034c33.6732,4.38334 40.3261,55.14486 40.3261,55.14486" fill="none" stroke="#0071ff" stroke-width="5" stroke-linecap="round"/><path d="M226.99607,78.36778c0,0 4.29001,-46.50956 29.88635,-47.32572c25.02835,-0.79807 44.39873,49.38824 44.39873,49.38824" fill="none" stroke="#ff0057" stroke-width="5" stroke-linecap="round"/><path d="M222.2303,91.03821c0,0 18.67865,-34.87611 30.52879,-15.75909c11.58717,18.6928 2.26731,74.87885 2.26731,74.87885" fill="none" stroke="#e800ff" stroke-width="5" stroke-linecap="round"/><path d="M223.05566,90.88314c0,0 14.145,-41.51508 27.09529,-32.80662c12.6629,8.51522 9.34447,62.18661 9.34447,62.18661" fill="none" stroke="#ff0057" stroke-width="5" stroke-linecap="round"/><path d="M217.85974,101.79095c0,0 14.145,-41.51509 27.09529,-32.80662c12.6629,8.51522 9.34448,62.18662 9.34448,62.18662" fill="none" stroke="#0071ff" stroke-width="5" stroke-linecap="round"/><path d="M222.58945,94.16506c0,0 19.68758,-21.97966 28.28665,3.81481c8.40825,25.22207 -5.07418,73.55869 -5.07418,73.55869" fill="none" stroke="#e800ff" stroke-width="5" stroke-linecap="round"/><path d="M223.32862,94.5293c0,0 16.33405,-31.19793 26.88091,-14.74772c10.31282,16.08519 2.336,65.73375 2.336,65.73375" fill="none" stroke="#ff0057" stroke-width="5" stroke-linecap="round"/><path d="M217.73819,101.80566c0,0 16.33406,-31.19795 26.88091,-14.74774c10.31282,16.08519 2.336,65.73377 2.336,65.73377" fill="none" stroke="#0071ff" stroke-width="5" stroke-linecap="round"/><path d="M224.45297,96.88561c0,0 10.7607,-41.78789 19.43242,-33.42428c8.4793,8.17802 4.84508,61.82397 4.84508,61.82397" fill="none" stroke="#ff0057" stroke-width="5" stroke-linecap="round"/><g stroke="#000000" stroke-width="2" stroke-linecap="butt"><path d="M153.23289,63.92933c47.64064,3.83995 83.98551,35.1841 81.17853,70.00912c-0.2004,2.48637 -0.45432,4.96344 -0.78044,7.41571c-11.42337,3.50598 -24.13672,1.57827 -35.78635,1.42302c-6.46,-0.30118 -40.20606,-3.39329 -50.85775,-3.49491c0,0 -0.60949,-0.00275 -1.13922,0.34024c2.69802,-35.15425 6.39924,-75.77267 7.38519,-75.69319zM196.25211,115.21608c1.04338,-15.18385 -9.97999,-22.49604 -19.87685,-23.88983c-18.43322,-2.59597 -23.97724,12.40238 -24.84402,16.65547c-3.4434,16.89588 12.29622,27.26394 17.96311,27.37062c15.83725,0.29817 26.18327,-11.77587 26.75776,-20.13624z" fill="#ff84c2"/><path d="M150.44711,81.24653c-3.10544,-0.09978 -1.3346,-35.57965 2.86394,-35.33667c27.06662,1.56642 47.56033,7.17966 60.91018,16.50468c27.33797,19.09587 28.05638,48.2386 17.29776,51.4158c-18.26555,5.39408 -28.30865,-33.18945 -40.40118,-30.9097c-9.30974,1.75513 -10.297,12.50249 -23.9893,11.32995c-11.85609,-1.0153 -11.95947,-12.85236 -16.68142,-13.00406z" fill="url(#color-10)"/></g></g><g><path d="M-25.2118,113.37416c0,0 -7.93063,-57.57647 27.62663,-72.46932c36.36418,-15.23086 74.81667,24.25015 74.81667,24.25015" fill="none" stroke="#e800ff" stroke-width="5" stroke-linecap="round"/><path d="M-28.15775,82.88164c0,0 6.94635,-53.37897 42.3474,-58.02013c36.20447,-4.74651 60.9405,39.9025 60.9405,39.9025" fill="none" stroke="#ff0057" stroke-width="5" stroke-linecap="round"/><path d="M-17.81132,95.0422c0,0 6.94635,-53.37897 42.3474,-58.02013c36.20447,-4.74649 60.9405,39.9025 60.9405,39.9025" fill="none" stroke="#0071ff" stroke-width="5" stroke-linecap="round"/><path d="M-7.42839,136.93162c0,0 -21.03337,-51.11867 8.15196,-73.31061c29.84767,-22.69558 74.66652,4.48345 74.66652,4.48345" fill="none" stroke="#e800ff" stroke-width="5" stroke-linecap="round"/><path d="M-17.413,109.56006c0,0 -6.3352,-50.80215 25.15129,-63.51822c32.20106,-13.00464 65.62386,22.20382 65.62386,22.20382" fill="none" stroke="#ff0057" stroke-width="5" stroke-linecap="round"/><path d="M-4.98688,118.28862c0,0 -6.33522,-50.80218 25.15127,-63.51824c32.20106,-13.00464 65.62386,22.20381 65.62386,22.20381" fill="none" stroke="#0071ff" stroke-width="5" stroke-linecap="round"/><path d="M-0.36862,121.26639c0,0 -3.99078,-57.25891 20.79915,-73.01963c25.35252,-16.1184 50.75683,22.31089 50.75683,22.31089" fill="none" stroke="#e800ff" stroke-width="5" stroke-linecap="round"/><path d="M-1.62104,90.9104c0,0 6.11775,-53.44576 30.54149,-58.97171c24.978,-5.65136 40.83399,38.28187 40.83399,38.28187" fill="none" stroke="#ff0057" stroke-width="5" stroke-linecap="round"/><path d="M5.17569,102.78484c0,0 6.11775,-53.44576 30.54149,-58.97172c24.978,-5.65136 40.83399,38.28188 40.83399,38.28188" fill="none" stroke="#0071ff" stroke-width="5" stroke-linecap="round"/><path d="M11.2465,144.3267c0,0 -13.15029,-50.48328 7.44903,-73.36727c21.06682,-23.40334 51.15304,2.5882 51.15304,2.5882" fill="none" stroke="#e800ff" stroke-width="5" stroke-linecap="round"/><path d="M5.08242,117.2631c0,0 -3.06649,-50.5387 18.87346,-64.02424c22.43787,-13.79157 44.49671,20.50092 44.49671,20.50092" fill="none" stroke="#ff0057" stroke-width="5" stroke-linecap="round"/><path d="M13.39378,125.65995c0,0 -3.06651,-50.5387 18.87344,-64.02424c22.43787,-13.79157 44.4967,20.50095 44.4967,20.50095" fill="none" stroke="#0071ff" stroke-width="5" stroke-linecap="round"/><path d="M5.02154,119.43553c0,0 -3.54194,-57.22273 20.02134,-73.08233c24.09802,-16.21952 48.01584,22.08996 48.01584,22.08996" fill="none" stroke="#e800ff" stroke-width="5" stroke-linecap="round"/><path d="M3.96207,89.09509c0,0 6.02333,-53.45337 29.1965,-59.08012c23.69904,-5.75445 38.54339,38.09724 38.54339,38.09724" fill="none" stroke="#ff0057" stroke-width="5" stroke-linecap="round"/><path d="M10.3544,100.93693c0,0 6.02333,-53.45337 29.1965,-59.08013c23.69904,-5.75445 38.54339,38.09725 38.54339,38.09725" fill="none" stroke="#0071ff" stroke-width="5" stroke-linecap="round"/><path d="M15.93391,142.43919c0,0 -12.25223,-50.41089 7.36894,-73.37373c20.06647,-23.48397 48.4743,2.37229 48.4743,2.37229" fill="none" stroke="#e800ff" stroke-width="5" stroke-linecap="round"/><path d="M10.20513,115.41068c0,0 -2.69411,-50.50869 18.15826,-64.08189c21.32561,-13.88122 42.08981,20.30692 42.08981,20.30692" fill="none" stroke="#ff0057" stroke-width="5" stroke-linecap="round"/><path d="M18.04769,123.76975c0,0 -2.69411,-50.50868 18.15826,-64.08189c21.32561,-13.88122 42.08981,20.30694 42.08981,20.30694" fill="none" stroke="#0071ff" stroke-width="5" stroke-linecap="round"/><path d="M20.96996,126.61084c0,0 -0.98643,-57.01675 15.59281,-73.43927c16.9555,-16.79522 32.40983,20.83208 32.40983,20.83208" fill="none" stroke="#e800ff" stroke-width="5" stroke-linecap="round"/><path d="M21.00892,96.35894c0,0 5.48592,-53.49671 21.53881,-59.69738c16.41719,-6.34138 25.50166,37.04607 25.50166,37.04607" fill="none" stroke="#ff0057" stroke-width="5" stroke-linecap="round"/><path d="M25.09876,108.01519c0,0 5.48594,-53.4967 21.53883,-59.69737c16.41719,-6.34138 25.50166,37.04607 25.50166,37.04607" fill="none" stroke="#0071ff" stroke-width="5" stroke-linecap="round"/><path d="M27.88134,149.29202c0,0 -7.13902,-49.99875 6.913,-73.41048c14.37092,-23.94304 33.22268,1.14298 33.22268,1.14298" fill="none" stroke="#e800ff" stroke-width="5" stroke-linecap="round"/><path d="M24.63069,122.46325c0,0 -0.5739,-50.3378 14.08627,-64.4101c14.99289,-14.39165 28.38604,19.20236 28.38604,19.20236" fill="none" stroke="#ff0057" stroke-width="5" stroke-linecap="round"/><path d="M29.80423,130.60719c0,0 -0.57391,-50.33778 14.08627,-64.41008c14.99289,-14.39165 28.38605,19.20237 28.38605,19.20237" fill="none" stroke="#0071ff" stroke-width="5" stroke-linecap="round"/><path d="M-30.94994,67.91519c0,0 15.97019,-55.88289 54.51369,-55.16604c39.41821,0.73312 58.67601,52.3711 58.67601,52.3711" fill="none" stroke="#e800ff" stroke-width="5" stroke-linecap="round"/><path d="M-21.34451,38.82552c0,0 27.88959,-46.04059 62.15454,-36.00624c35.04256,10.26208 39.6647,61.09553 39.6647,61.09553" fill="none" stroke="#ff0057" stroke-width="5" stroke-linecap="round"/><path d="M-16.78298,54.12651c0,0 27.88959,-46.0406 62.15454,-36.00625c35.04256,10.26208 39.6647,61.09553 39.6647,61.09553" fill="none" stroke="#0071ff" stroke-width="5" stroke-linecap="round"/><path d="M-24.18099,96.64467c0,0 1.37577,-55.25963 37.03336,-63.79208c36.46681,-8.72608 66.51267,34.2236 66.51267,34.2236" fill="none" stroke="#e800ff" stroke-width="5" stroke-linecap="round"/><path d="M-22.27518,67.5713c0,0 14.69721,-49.04064 48.63775,-47.97416c34.71079,1.09071 51.08991,46.7902 51.08991,46.7902" fill="none" stroke="#ff0057" stroke-width="5" stroke-linecap="round"/><path d="M-14.42622,80.57088c0,0 14.69718,-49.04065 48.63773,-47.97417c34.71079,1.09071 51.08991,46.79021 51.08991,46.79021" fill="none" stroke="#0071ff" stroke-width="5" stroke-linecap="round"/><path d="M-0.30177,56.87714c0,0 27.15836,-46.43598 51.73578,-41.63958c25.13518,4.90525 21.92065,51.50149 21.92065,51.50149" fill="none" stroke="#ff0057" stroke-width="5" stroke-linecap="round"/><path d="M34.18803,133.11302c0,0 -0.20055,-56.95341 14.23094,-73.54905c14.75902,-16.97227 27.61064,20.44525 27.61064,20.44525" fill="none" stroke="#e800ff" stroke-width="5" stroke-linecap="round"/><path d="M34.56478,102.88835c0,0 5.32064,-53.51001 19.1839,-59.88717c14.17789,-6.52188 21.49105,36.72279 21.49105,36.72279" fill="none" stroke="#ff0057" stroke-width="5" stroke-linecap="round"/><path d="M37.94659,114.48753c0,0 5.32064,-53.51001 19.1839,-59.88717c14.17789,-6.52188 21.49105,36.72279 21.49105,36.72279" fill="none" stroke="#0071ff" stroke-width="5" stroke-linecap="round"/><path d="M39.86903,155.69502c0,0 -5.56659,-49.87201 6.77278,-73.42177c12.6194,-24.08421 28.53248,0.76493 28.53248,0.76493" fill="none" stroke="#e800ff" stroke-width="5" stroke-linecap="round"/><path d="M37.38046,128.92766c0,0 0.07807,-50.28522 12.83402,-64.51101c13.04543,-14.54862 24.17184,18.86269 24.17184,18.86269" fill="none" stroke="#ff0057" stroke-width="5" stroke-linecap="round"/><path d="M41.73326,137.00547c0,0 0.07808,-50.28524 12.83403,-64.51104c13.04543,-14.54862 24.17183,18.86271 24.17183,18.86271" fill="none" stroke="#0071ff" stroke-width="5" stroke-linecap="round"/><path d="M44.38639,109.56982c0,0 5.00485,-53.53548 14.68451,-60.24985c9.89933,-6.86674 13.82819,36.10516 13.82819,36.10516" fill="none" stroke="#ff0057" stroke-width="5" stroke-linecap="round"/><g stroke="#000000" stroke-width="2" stroke-linecap="butt"><path d="M148.4782,64.30122c0.98594,0.07947 -1.86623,40.76631 -4.83348,75.89887c-0.46796,-0.42341 -1.07002,-0.51831 -1.07002,-0.51831c-10.53045,-1.60571 -44.33612,-3.95842 -50.76096,-4.69579c-11.52411,-1.7126 -24.38208,-1.846 -35.09645,-7.13634c0.07085,-2.47284 0.21696,-4.95861 0.41736,-7.44498c2.80698,-34.82502 43.70286,-59.9434 91.3435,-56.10345zM97.79996,108.03574c-0.77196,8.34445 7.50668,21.91968 23.18723,24.16192c5.61082,0.80233 22.80784,-6.91096 22.115,-24.14023c-0.1744,-4.33702 -3.24465,-20.0297 -21.85569,-20.41957c-9.99233,-0.20933 -22.04454,5.24291 -23.44654,20.39786z" fill="#ff84c2"/><path d="M148.45441,81.84102c-4.68529,-0.60655 -6.68321,11.06115 -18.54886,10.16442c-13.70334,-1.03561 -12.95651,-11.80236 -21.86496,-15.02591c-11.57128,-4.1871 -27.66442,32.28979 -44.83023,24.03986c-10.11086,-4.85933 -4.7341,-33.51077 25.30941,-47.98156c14.67104,-7.06647 35.79923,-9.3249 62.76731,-6.53599c4.18325,0.43262 0.24863,35.73808 -2.8327,35.33919z" fill="url(#color-11)"/></g></g><path d="M145.9229,125.35883c7.37196,0.5942 12.86644,7.05206 12.27224,14.42402c-0.5942,7.37196 -7.05203,12.86644 -14.42402,12.27224c-7.37196,-0.5942 -12.86646,-7.05206 -12.27227,-14.42402c0.5942,-7.37196 7.05206,-12.86644 14.42405,-12.27224z" fill="#ff0057" stroke="#000000" stroke-width="2" stroke-linecap="butt"/></g><g stroke="#000000" stroke-width="3.5" stroke-linecap="butt"><g><path d="M241.78865,163.21356c57.8322,0 104.71452,46.88233 104.71452,104.71462c0,57.8322 -46.88223,104.71452 -104.71452,104.71452c-57.8322,0 -104.71471,-46.88232 -104.71471,-104.71452c0,-57.8322 46.88242,-104.71462 104.71471,-104.71462z" fill="url(#color-12)"/><path d="M-114.05589,266.78128c45.14945,15.60212 95.62439,12.80935 142.29987,15.97369c26.78881,0.90693 164.15473,-0.97151 206.41696,2.41938c0,0 3.18871,0.24239 5.6123,-1.64007c-0.49459,103.73294 0.77856,192.62195 -2.15386,192.83224c-280.79369,20.13663 -341.1914,-86.15958 -352.17527,-209.58524z" fill="#a90000"/></g><path d="M240.11104,-22.73398c4.013,0 0.76132,165.46537 0.21341,308.50699c-2.03041,-1.55973 -4.49605,-1.74725 -4.49605,-1.74725c-43.10806,-3.06101 -180.58344,-1.55625 -206.80556,-2.44393c-47.16118,-3.16938 -99.2017,0.48223 -144.25451,-17.41927c-0.51951,-10.02316 -0.73891,-20.1231 -0.73891,-30.24319c0,-90.4454 2.74747,-204.54241 108.42385,-249.90007c51.85449,-22.25661 147.87154,-8.58276 242.80474,-5.14529c1.61428,-0.53742 4.85304,-1.60798 4.85304,-1.60798zM44.44632,128.50511c-0.40188,33.99621 37.50142,86.1954 101.64371,90.15179c22.95142,1.41572 89.98122,-35.38187 81.56349,-104.8304c-2.1189,-17.48184 -19.64994,-79.94155 -95.03919,-75.45191c-40.47677,2.4105 -87.43816,28.38756 -88.16801,90.13044z" fill="#a90000"/><path d="M244.742,-21.12599c95.36853,-3.45324 178.08273,-12.49781 230.00342,9.95663c105.09128,45.44943 121.22517,154.84684 121.22517,245.08873c0,10.12009 -0.2194,20.22003 -0.73891,30.24319c-45.05281,17.9015 -97.09333,14.24989 -144.25451,17.41927c-26.22212,0.88768 -163.69751,-0.61708 -206.80556,2.44393c0,0 -2.46564,0.18752 -4.49605,1.74725c-0.54792,-143.04162 -3.7996,-308.50699 0.21341,-308.50699c0,0 3.23876,1.07056 4.85304,1.60798zM435.55368,128.50502c-0.72984,-61.74288 -47.69123,-87.71994 -88.16801,-90.13044c-75.38925,-4.48964 -92.92029,57.97007 -95.03919,75.45191c-8.41773,69.44853 58.61207,106.24613 81.56349,104.8304c64.14229,-3.95639 102.04559,-56.15558 101.64371,-90.15179z" data-paper-data="{&quot;index&quot;:null}" fill="#a90000"/><path d="M241.88062,476.36652c-2.93242,-0.21029 -1.65926,-89.0993 -2.15386,-192.83224c2.42359,1.88246 5.6123,1.64007 5.6123,1.64007c42.26223,-3.39089 179.62815,-1.51245 206.41696,-2.41938c46.67547,-3.16434 97.15041,-0.37157 142.29987,-15.97369c-10.98387,123.42566 -71.38157,229.72187 -352.17527,209.58524z" data-paper-data="{&quot;index&quot;:null}" fill="#a90000"/></g><path d="M78.53358,368.79149c-5.11341,10.22681 -15.34022,5.11341 -15.34022,5.11341l-12.78192,-7.04697c-2.6494,-5.08945 -6.21471,-9.79872 -7.94821,-15.26835c-0.98797,-3.11729 0.74577,-6.62639 0,-9.81032c-1.0251,-4.3765 -5.35901,-7.94478 -5.21103,-12.4373c0.1907,-5.78939 8.2327,-17.84939 10.68067,-23.99621c8.89798,-22.34268 16.61302,-45.02818 24.24219,-67.91237c0.75973,-2.27887 9.0172,-26.67277 9.34444,-29.13135c2.35853,-17.71981 -3.70009,-30.0773 -9.06084,-46.26505c-3.17227,-6.57765 -9.08652,-11.43837 -13.42759,-17.31068c-4.34672,-5.87996 -5.40354,-13.78554 -9.81032,-19.62063c-6.77916,-8.97641 -15.32405,-11.03454 -20.90852,-21.93059c-1.75946,-3.43294 0.34262,-7.80952 -0.56449,-11.55891c-2.47632,-10.23547 -12.14039,-19.01054 -14.71548,-29.43095c-5.45287,-22.06569 6.71435,-47.63658 24.06316,-60.95425c8.49253,-6.51922 21.38734,-10.85874 31.00308,-15.66661c0,0 10.22681,-5.11341 15.34022,5.11341c5.11341,10.22681 -5.11341,15.34022 -5.11341,15.34022c-8.7103,4.35515 -19.97765,8.06738 -27.85883,13.76435c-10.17182,7.35278 -18.39662,24.52289 -15.17811,37.14893c1.59009,6.23785 6.10213,11.34109 8.90907,17.13421c1.97653,4.07927 4.67613,7.90703 5.8064,12.29675c0.6717,2.60873 -1.72589,5.63112 -0.56449,8.06172c3.62357,7.58344 13.30653,10.57451 18.33275,17.31068c4.37287,5.86054 5.37615,13.80633 9.81032,19.62063c5.48776,7.19583 11.88572,13.87204 16.00336,21.93059c0.55808,1.66444 10.38565,30.79904 10.53303,31.97501c3.86232,30.81872 -10.50562,60.25867 -20.05975,88.83493c-4.50271,13.46756 -9.71193,26.83746 -14.99908,40.00112c-1.46336,3.64339 -3.25579,7.16127 -5.24191,10.54815c-1.008,1.71891 -3.84878,2.70995 -3.69805,4.69691c0.21507,2.83505 3.85651,4.43888 4.59929,7.18334c1.24393,4.59614 -0.01085,9.78495 1.86211,14.16261l6.83872,2.76335c0,0 10.22681,5.11341 5.11341,15.34022z" fill="#000000" stroke="none" stroke-width="0.5" stroke-linecap="butt"/><path d="M331.40865,362.90428l0.6194,-3.63147c2.06466,-12.10491 4.12932,-24.20982 6.19399,-36.31473c1.10944,-6.50454 1.12333,-13.31533 3.43757,-19.49466c1.36193,-3.63653 4.09885,-6.64945 5.48967,-10.27502c0.95106,-2.47922 0.39296,-5.39874 1.45639,-7.83188c1.09966,-2.51602 3.24685,-4.42903 4.87027,-6.64355c1.59713,-9.36384 6.41042,-14.72768 11.96054,-22.27703c3.90215,-5.30777 6.42178,-11.5438 10.31568,-16.85763c7.64398,-10.43142 18.38125,-18.4393 23.19683,-30.98275c1.5805,-4.11682 3.68836,-14.10064 3.27054,-18.46807c-0.26149,-2.73335 -2.18921,-5.14406 -2.39268,-7.88234c-0.19676,-2.64808 1.27355,-5.21696 1.2221,-7.87184c-0.16137,-8.32782 -3.80302,-16.85578 -6.18868,-24.71501c-1.46198,-4.81629 -1.80549,-10.09751 -4.27971,-14.48068c-4.08946,-7.24462 -9.42649,-13.98688 -11.93454,-21.91897c-1.11659,-3.67846 -5.39448,-17.0638 -5.03333,-19.70276c0.45774,-3.34466 4.11688,-5.43913 5.42844,-8.54977c0.95417,-2.26301 0.11373,-5.07985 1.2388,-7.26295c1.97405,-3.83047 4.39041,-7.68099 7.81237,-10.30007c7.26114,-5.5575 17.33463,-5.84455 26.11748,-8.38845c1.93394,-0.56015 4.22531,-0.29741 5.85687,-1.47721c5.66361,-4.09543 7.88117,-11.91109 13.54645,-16.00421c2.58929,-1.87074 6.23367,-1.62563 9.06878,-3.09746c3.08259,-1.6003 5.25233,-4.79751 8.50174,-6.02415c0.38011,-0.14349 0.7597,-0.09446 1.14111,0.0469c-0.03502,-0.03769 -0.06527,-0.07646 -0.09017,-0.11632c-0.97816,-1.56615 -0.06393,-3.94256 -1.18225,-5.4119c-1.66298,-2.18496 -5.07069,-2.61956 -6.64355,-4.87027c-1.8298,-2.61838 -1.63779,-6.22739 -3.09746,-9.06878c-1.37768,-2.68178 -3.54624,-4.87687 -5.31936,-7.31531c0,0 -4.9647,-7.00657 2.04187,-11.97127c7.00657,-4.9647 11.97127,2.04187 11.97127,2.04187c2.24298,3.22939 4.93225,6.19077 6.72893,9.68818c1.0518,2.04743 0.34254,4.82822 1.68789,6.69591c1.60488,2.22799 5.1103,2.59239 6.64355,4.87027c2.42809,3.60733 6.83027,21.72815 5.35278,24.77597c-1.9129,3.94599 -7.91563,3.80488 -11.67807,6.05744c-2.97998,1.78411 -5.40447,4.45244 -8.50174,6.02415c-2.05263,1.04161 -4.79849,0.38481 -6.69591,1.68789c-1.66799,1.14552 -1.91012,3.60793 -3.23823,5.13455c-3.50547,4.02942 -6.82214,8.39771 -11.19815,11.45958c-8.55264,5.98423 -22.28567,4.27792 -31.08441,9.27575c-2.86462,1.62715 -2.54853,8.913 -3.16697,10.24997c-0.89646,1.93803 -3.79488,2.66559 -4.3121,4.73732c-0.3625,1.45199 1.60864,2.54702 2.1447,3.94427c0.98356,2.56363 1.59512,5.2549 2.39268,7.88234c2.03666,7.12152 7.38125,12.8457 10.92326,19.35095c0.33667,0.61832 4.87178,15.66768 5.29099,17.0487c2.98608,9.83724 6.54935,19.40101 6.92857,29.842c0.08193,2.25567 -1.43153,4.40377 -1.25549,6.65405c0.21415,2.73747 2.22489,5.14165 2.39268,7.88234c0.36303,5.93006 -2.01014,19.49743 -4.16225,25.1096c-5.61515,14.64301 -16.61079,23.32433 -25.50587,35.45272c-2.19187,2.9886 -3.25507,6.6721 -5.19145,9.83224c-5.72093,9.33648 -13.34087,15.00656 -15.21089,25.97032c-1.62342,2.21452 -3.7608,4.13184 -4.87027,6.64355c-0.91202,2.06469 -0.21263,4.58666 -1.02121,6.69401c-1.39107,3.62548 -4.06526,6.66251 -5.48967,10.27502c-2.08404,5.28545 -1.80116,11.21948 -2.75642,16.82007c-2.06466,12.10491 -4.74872,27.84129 -6.81339,39.9462c0,0 -1.44382,8.46496 -9.90878,7.02115c-8.46496,-1.44382 -7.02115,-9.90878 -7.02115,-9.90878zM455.2702,33.72371c0.73419,-0.04849 -0.59183,-0.21083 -1.73477,-0.59018c0.56665,0.32843 1.14246,0.62931 1.73477,0.59018z" data-paper-data="{&quot;index&quot;:null}" fill="#000000" stroke="none" stroke-width="0.5" stroke-linecap="butt"/><path d="M-8.4985,62.88289v-28.52853h504.5045v28.52853z" fill="url(#color-13)" stroke="none" stroke-width="0" stroke-linecap="butt"/><path d="M-11.00601,254.06908v-28.52853h504.5045v28.52853z" fill="url(#color-14)" stroke="none" stroke-width="0" stroke-linecap="butt"/><path d="M57.56757,372.1922v-391.89189h27.02703v391.89189z" fill="url(#color-15)" stroke="#000000" stroke-width="0" stroke-linecap="butt"/><path d="M397.4024,377.1922v-391.89189h27.02702v391.89189z" fill="url(#color-16)" stroke="#000000" stroke-width="0" stroke-linecap="butt"/><text transform="translate(41.05106,22.13084) scale(0.5,0.5)" font-size="40" xml:space="preserve" fill="#ff0000" fill-rule="nonzero" stroke="#ff0000" stroke-width="3" stroke-linecap="butt" stroke-linejoin="miter" stroke-miterlimit="10" stroke-dasharray="" stroke-dashoffset="0" font-family="Sans Serif" font-weight="normal" text-anchor="start" style="mix-blend-mode: normal"><tspan x="0" dy="0">GAME OVER</tspan></text><text transform="translate(114.54355,293.57623) scale(0.44336,0.44336)" font-size="40" xml:space="preserve" fill="#ff84c2" fill-rule="nonzero" stroke="#ff84c2" stroke-width="3" stroke-linecap="butt" stroke-linejoin="miter" stroke-miterlimit="10" stroke-dasharray="" stroke-dashoffset="0" font-family="Sans Serif" font-weight="normal" text-anchor="start" style="mix-blend-mode: normal"><tspan x="0" dy="0">Make haste when she arrives.</tspan></text><g fill="#000000" stroke="none" stroke-width="0" stroke-linecap="butt"><path d="M-11.50149,379.48819v-394.89489h45.04505v394.89489z"/><path d="M448.45346,385.98969v-394.89489h45.04505v394.8949z"/></g></g></g></svg>