<svg version="1.1" xmlns="http://www.w3.org/2000/svg" xmlns:xlink="http://www.w3.org/1999/xlink" width="167.33333" height="34.33333" viewBox="0,0,167.33333,34.33333"><defs><linearGradient x1="240.00002" y1="162.83333" x2="240.00002" y2="197.16668" gradientUnits="userSpaceOnUse" id="color-1"><stop offset="0" stop-color="#bf0000" stop-opacity="0"/><stop offset="1" stop-color="#bf0000"/></linearGradient></defs><g transform="translate(-156.33334,-162.83335)"><g data-paper-data="{&quot;isPaintingLayer&quot;:true}" fill-rule="nonzero" stroke-linecap="butt" stroke-linejoin="miter" stroke-miterlimit="10" stroke-dasharray="" stroke-dashoffset="0" style="mix-blend-mode: normal"><path d="M156.33335,197.16668v-34.33333h167.33333v34.33333z" fill="url(#color-1)" stroke="#6d6d6d" stroke-width="0"/><g fill="none" stroke="#ffffff" stroke-width="2.5"><path d="M257.52708,180.2264c-0.46035,7.1748 -7.85551,12.79144 -17.54578,12.79144c-9.69027,0 -17.62349,-5.8287 -17.54578,-13.01784c0.1132,-10.47231 7.85551,-13.01784 17.54578,-13.01784c9.69027,0 18.22497,2.65872 17.54578,13.24423z"/><path d="M242.23568,174.34008c0,2.4382 1.89419,4.41474 4.2308,4.41474c2.3366,0 4.2308,-1.97655 4.2308,-4.41474c0,-2.4382 -1.89419,-4.41474 -4.2308,-4.41474c-2.3366,0 -4.2308,1.97655 -4.2308,4.41474z"/><path d="M229.56646,174.2359c0,2.4382 1.89419,4.41475 4.2308,4.41475c2.3366,0 4.2308,-1.97655 4.2308,-4.41475c0,-2.4382 -1.8942,-4.41474 -4.2308,-4.41474c-2.3366,0 -4.2308,1.97655 -4.2308,4.41474z"/><path d="M235.7692,180c0,2.4382 1.89419,4.41475 4.2308,4.41475c2.3366,0 4.2308,-1.97655 4.2308,-4.41475c0,-2.4382 -1.8942,-4.41474 -4.2308,-4.41474c-2.3366,0 -4.2308,1.97655 -4.2308,4.41474z"/></g></g></g></svg>