<svg version="1.1" xmlns="http://www.w3.org/2000/svg" xmlns:xlink="http://www.w3.org/1999/xlink" width="416.95544" height="348.38837" viewBox="0,0,416.95544,348.38837"><defs><linearGradient x1="209.41828" y1="98.30905" x2="201.98868" y2="92.17514" gradientUnits="userSpaceOnUse" id="color-1"><stop offset="0" stop-color="#5c5c5c"/><stop offset="1" stop-color="#9b9b9b"/></linearGradient><linearGradient x1="200.30271" y1="78.84639" x2="199.93944" y2="81.35443" gradientUnits="userSpaceOnUse" id="color-2"><stop offset="0" stop-color="#5c5c5c"/><stop offset="1" stop-color="#9b9b9b"/></linearGradient><linearGradient x1="204.79561" y1="73.11477" x2="203.1927" y2="75.07767" gradientUnits="userSpaceOnUse" id="color-3"><stop offset="0" stop-color="#5c5c5c"/><stop offset="1" stop-color="#9b9b9b"/></linearGradient><linearGradient x1="211.36322" y1="72.81204" x2="209.76032" y2="74.77492" gradientUnits="userSpaceOnUse" id="color-4"><stop offset="0" stop-color="#5c5c5c"/><stop offset="1" stop-color="#9b9b9b"/></linearGradient><linearGradient x1="217.34004" y1="75.44016" x2="215.73712" y2="77.40305" gradientUnits="userSpaceOnUse" id="color-5"><stop offset="0" stop-color="#5c5c5c"/><stop offset="1" stop-color="#9b9b9b"/></linearGradient><linearGradient x1="217.92806" y1="62.36805" x2="215.13375" y2="63.8337" gradientUnits="userSpaceOnUse" id="color-6"><stop offset="0" stop-color="#5c5c5c"/><stop offset="1" stop-color="#9b9b9b"/></linearGradient><linearGradient x1="219.8011" y1="57.21776" x2="217.75777" y2="56.38208" gradientUnits="userSpaceOnUse" id="color-7"><stop offset="0" stop-color="#5c5c5c"/><stop offset="1" stop-color="#9b9b9b"/></linearGradient><linearGradient x1="205.62917" y1="60.19466" x2="203.5235" y2="62.54463" gradientUnits="userSpaceOnUse" id="color-8"><stop offset="0" stop-color="#5c5c5c"/><stop offset="1" stop-color="#9b9b9b"/></linearGradient><linearGradient x1="205.91089" y1="54.41915" x2="203.7071" y2="54.2892" gradientUnits="userSpaceOnUse" id="color-9"><stop offset="0" stop-color="#5c5c5c"/><stop offset="1" stop-color="#9b9b9b"/></linearGradient><linearGradient x1="206.30754" y1="68.4335" x2="204.12299" y2="68.75166" gradientUnits="userSpaceOnUse" id="color-10"><stop offset="0" stop-color="#5c5c5c"/><stop offset="1" stop-color="#9b9b9b"/></linearGradient><linearGradient x1="215.68361" y1="70.32425" x2="213.52564" y2="69.8587" gradientUnits="userSpaceOnUse" id="color-11"><stop offset="0" stop-color="#5c5c5c"/><stop offset="1" stop-color="#9b9b9b"/></linearGradient><linearGradient x1="198.39853" y1="85.21052" x2="197.57262" y2="87.60642" gradientUnits="userSpaceOnUse" id="color-12"><stop offset="0" stop-color="#5c5c5c"/><stop offset="1" stop-color="#9b9b9b"/></linearGradient><linearGradient x1="192.57479" y1="75.22339" x2="191.74888" y2="77.61927" gradientUnits="userSpaceOnUse" id="color-13"><stop offset="0" stop-color="#5c5c5c"/><stop offset="1" stop-color="#9b9b9b"/></linearGradient><linearGradient x1="190.50418" y1="70.71062" x2="188.94066" y2="71.54673" gradientUnits="userSpaceOnUse" id="color-14"><stop offset="0" stop-color="#5c5c5c"/><stop offset="1" stop-color="#9b9b9b"/></linearGradient><linearGradient x1="195.91793" y1="80.8171" x2="194.40019" y2="81.7337" gradientUnits="userSpaceOnUse" id="color-15"><stop offset="0" stop-color="#5c5c5c"/><stop offset="1" stop-color="#9b9b9b"/></linearGradient><linearGradient x1="131.70009" y1="200.45834" x2="142.0289" y2="208.19753" gradientUnits="userSpaceOnUse" id="color-16"><stop offset="0" stop-color="#5c5c5c"/><stop offset="1" stop-color="#9b9b9b"/></linearGradient><linearGradient x1="135.81302" y1="299.41431" x2="143.57212" y2="306.34826" gradientUnits="userSpaceOnUse" id="color-17"><stop offset="0" stop-color="#5c5c5c"/><stop offset="1" stop-color="#9b9b9b"/></linearGradient><linearGradient x1="134.98043" y1="250.8812" x2="142.62721" y2="257.93885" gradientUnits="userSpaceOnUse" id="color-18"><stop offset="0" stop-color="#5c5c5c"/><stop offset="1" stop-color="#9b9b9b"/></linearGradient><linearGradient x1="134.72814" y1="230.01285" x2="141.55503" y2="229.88423" gradientUnits="userSpaceOnUse" id="color-19"><stop offset="0" stop-color="#5c5c5c"/><stop offset="1" stop-color="#9b9b9b"/></linearGradient><linearGradient x1="136.70005" y1="279.2419" x2="143.52646" y2="279.08984" gradientUnits="userSpaceOnUse" id="color-20"><stop offset="0" stop-color="#5c5c5c"/><stop offset="1" stop-color="#9b9b9b"/></linearGradient><linearGradient x1="100.4517" y1="200.45834" x2="90.12289" y2="208.19753" gradientUnits="userSpaceOnUse" id="color-21"><stop offset="0" stop-color="#5c5c5c"/><stop offset="1" stop-color="#9b9b9b"/></linearGradient><linearGradient x1="96.33877" y1="299.41431" x2="88.57967" y2="306.34826" gradientUnits="userSpaceOnUse" id="color-22"><stop offset="0" stop-color="#5c5c5c"/><stop offset="1" stop-color="#9b9b9b"/></linearGradient><linearGradient x1="97.17136" y1="250.88121" x2="89.52458" y2="257.93885" gradientUnits="userSpaceOnUse" id="color-23"><stop offset="0" stop-color="#5c5c5c"/><stop offset="1" stop-color="#9b9b9b"/></linearGradient><linearGradient x1="97.42365" y1="230.01285" x2="90.59676" y2="229.88423" gradientUnits="userSpaceOnUse" id="color-24"><stop offset="0" stop-color="#5c5c5c"/><stop offset="1" stop-color="#9b9b9b"/></linearGradient><linearGradient x1="95.45174" y1="279.2419" x2="88.62533" y2="279.08984" gradientUnits="userSpaceOnUse" id="color-25"><stop offset="0" stop-color="#5c5c5c"/><stop offset="1" stop-color="#9b9b9b"/></linearGradient><linearGradient x1="42.8909" y1="175.75244" x2="33.64468" y2="178.46002" gradientUnits="userSpaceOnUse" id="color-26"><stop offset="0" stop-color="#5c5c5c"/><stop offset="1" stop-color="#9b9b9b"/></linearGradient><linearGradient x1="61.3568" y1="136.79985" x2="52.11059" y2="139.50743" gradientUnits="userSpaceOnUse" id="color-27"><stop offset="0" stop-color="#5c5c5c"/><stop offset="1" stop-color="#9b9b9b"/></linearGradient><linearGradient x1="49.9562" y1="160.40771" x2="42.99433" y2="156.87025" gradientUnits="userSpaceOnUse" id="color-28"><stop offset="0" stop-color="#5c5c5c"/><stop offset="1" stop-color="#9b9b9b"/></linearGradient><linearGradient x1="74.35658" y1="127.20103" x2="68.84791" y2="121.66606" gradientUnits="userSpaceOnUse" id="color-29"><stop offset="0" stop-color="#5c5c5c"/><stop offset="1" stop-color="#9b9b9b"/></linearGradient><linearGradient x1="177.96024" y1="128.58203" x2="187.57797" y2="128.01432" gradientUnits="userSpaceOnUse" id="color-30"><stop offset="0" stop-color="#5c5c5c"/><stop offset="1" stop-color="#9b9b9b"/></linearGradient><linearGradient x1="162.48563" y1="123.92718" x2="165.80608" y2="116.85922" gradientUnits="userSpaceOnUse" id="color-31"><stop offset="0" stop-color="#5c5c5c"/><stop offset="1" stop-color="#9b9b9b"/></linearGradient><linearGradient x1="116.98141" y1="107.7929" x2="116.98141" y2="113.17029" gradientUnits="userSpaceOnUse" id="color-32"><stop offset="0" stop-color="#5c5c5c"/><stop offset="1" stop-color="#9b9b9b"/></linearGradient><linearGradient x1="125.60964" y1="124.64338" x2="129.95142" y2="127.81593" gradientUnits="userSpaceOnUse" id="color-33"><stop offset="0" stop-color="#5c5c5c"/><stop offset="1" stop-color="#9b9b9b"/></linearGradient><linearGradient x1="108.69792" y1="125.15552" x2="104.35615" y2="128.32809" gradientUnits="userSpaceOnUse" id="color-34"><stop offset="0" stop-color="#5c5c5c"/><stop offset="1" stop-color="#9b9b9b"/></linearGradient><linearGradient x1="113.82492" y1="167.89662" x2="120.22657" y2="167.89662" gradientUnits="userSpaceOnUse" id="color-35"><stop offset="0" stop-color="#5c5c5c"/><stop offset="1" stop-color="#9b9b9b"/></linearGradient><linearGradient x1="118.20959" y1="89.04844" x2="118.20959" y2="97.55398" gradientUnits="userSpaceOnUse" id="color-36"><stop offset="0" stop-color="#a6a6a6"/><stop offset="1" stop-color="#707070"/></linearGradient><linearGradient x1="117.96431" y1="86.91725" x2="117.96431" y2="90.75595" gradientUnits="userSpaceOnUse" id="color-37"><stop offset="0" stop-color="#a6a6a6"/><stop offset="1" stop-color="#707070"/></linearGradient><linearGradient x1="139.04294" y1="110.466" x2="147.02447" y2="110.466" gradientUnits="userSpaceOnUse" id="color-38"><stop offset="0" stop-color="#5c5c5c"/><stop offset="1" stop-color="#9b9b9b"/></linearGradient><linearGradient x1="91.70786" y1="109.966" x2="83.72633" y2="109.966" gradientUnits="userSpaceOnUse" id="color-39"><stop offset="0" stop-color="#5c5c5c"/><stop offset="1" stop-color="#9b9b9b"/></linearGradient><linearGradient x1="108.20366" y1="143.62275" x2="125.60713" y2="143.62275" gradientUnits="userSpaceOnUse" id="color-40"><stop offset="0" stop-color="#004184"/><stop offset="1" stop-color="#0023e3"/></linearGradient><linearGradient x1="112.01856" y1="107.83334" x2="121.87623" y2="107.83334" gradientUnits="userSpaceOnUse" id="color-41"><stop offset="0" stop-color="#004184"/><stop offset="1" stop-color="#0023e3"/></linearGradient><linearGradient x1="126.09982" y1="74.93401" x2="125.99038" y2="93.23664" gradientUnits="userSpaceOnUse" id="color-42"><stop offset="0" stop-color="#a6a6a6"/><stop offset="1" stop-color="#707070"/></linearGradient><linearGradient x1="108.53069" y1="75.15454" x2="108.42126" y2="93.45718" gradientUnits="userSpaceOnUse" id="color-43"><stop offset="0" stop-color="#a6a6a6"/><stop offset="1" stop-color="#707070"/></linearGradient><linearGradient x1="116.07431" y1="58.10174" x2="116.07431" y2="65.67148" gradientUnits="userSpaceOnUse" id="color-44"><stop offset="0" stop-color="#a6a6a6"/><stop offset="1" stop-color="#707070"/></linearGradient><linearGradient x1="117.56156" y1="62.90227" x2="117.56156" y2="77.47683" gradientUnits="userSpaceOnUse" id="color-45"><stop offset="0" stop-color="#a6a6a6"/><stop offset="1" stop-color="#707070"/></linearGradient><linearGradient x1="106.64508" y1="59.10292" x2="111.04196" y2="76.8699" gradientUnits="userSpaceOnUse" id="color-46"><stop offset="0" stop-color="#a6a6a6"/><stop offset="1" stop-color="#707070"/></linearGradient><linearGradient x1="128.58557" y1="59.66784" x2="124.18869" y2="77.43479" gradientUnits="userSpaceOnUse" id="color-47"><stop offset="0" stop-color="#a6a6a6"/><stop offset="1" stop-color="#707070"/></linearGradient><linearGradient x1="117.39751" y1="74.0874" x2="117.39751" y2="78.2677" gradientUnits="userSpaceOnUse" id="color-48"><stop offset="0" stop-color="#a6a6a6"/><stop offset="1" stop-color="#707070"/></linearGradient><linearGradient x1="40.03712" y1="199.64145" x2="41.10053" y2="197.34115" gradientUnits="userSpaceOnUse" id="color-49"><stop offset="0" stop-color="#5c5c5c"/><stop offset="1" stop-color="#9b9b9b"/></linearGradient><linearGradient x1="33.75196" y1="201.57068" x2="34.81536" y2="199.27038" gradientUnits="userSpaceOnUse" id="color-50"><stop offset="0" stop-color="#5c5c5c"/><stop offset="1" stop-color="#9b9b9b"/></linearGradient><linearGradient x1="41.59928" y1="212.3541" x2="38.93045" y2="210.67077" gradientUnits="userSpaceOnUse" id="color-51"><stop offset="0" stop-color="#5c5c5c"/><stop offset="1" stop-color="#9b9b9b"/></linearGradient><linearGradient x1="44.8975" y1="216.94256" x2="43.04644" y2="218.14554" gradientUnits="userSpaceOnUse" id="color-52"><stop offset="0" stop-color="#5c5c5c"/><stop offset="1" stop-color="#9b9b9b"/></linearGradient><linearGradient x1="39.995" y1="204.24454" x2="37.80684" y2="204.53693" gradientUnits="userSpaceOnUse" id="color-53"><stop offset="0" stop-color="#5c5c5c"/><stop offset="1" stop-color="#9b9b9b"/></linearGradient><linearGradient x1="32.9554" y1="212.27655" x2="30.58998" y2="210.18824" gradientUnits="userSpaceOnUse" id="color-54"><stop offset="0" stop-color="#5c5c5c"/><stop offset="1" stop-color="#9b9b9b"/></linearGradient><linearGradient x1="35.47769" y1="217.33327" x2="33.45812" y2="218.22487" gradientUnits="userSpaceOnUse" id="color-55"><stop offset="0" stop-color="#5c5c5c"/><stop offset="1" stop-color="#9b9b9b"/></linearGradient><linearGradient x1="32.66814" y1="204.01482" x2="30.46138" y2="203.95367" gradientUnits="userSpaceOnUse" id="color-56"><stop offset="0" stop-color="#5c5c5c"/><stop offset="1" stop-color="#9b9b9b"/></linearGradient><linearGradient x1="42.96059" y1="192.97131" x2="42.68765" y2="190.45183" gradientUnits="userSpaceOnUse" id="color-57"><stop offset="0" stop-color="#5c5c5c"/><stop offset="1" stop-color="#9b9b9b"/></linearGradient><linearGradient x1="51.15659" y1="194.90656" x2="51.35964" y2="192.38048" gradientUnits="userSpaceOnUse" id="color-58"><stop offset="0" stop-color="#5c5c5c"/><stop offset="1" stop-color="#9b9b9b"/></linearGradient><linearGradient x1="52.51792" y1="199.23604" x2="54.1825" y2="198.62542" gradientUnits="userSpaceOnUse" id="color-59"><stop offset="0" stop-color="#5c5c5c"/><stop offset="1" stop-color="#9b9b9b"/></linearGradient><linearGradient x1="47.86779" y1="188.85698" x2="49.87562" y2="187.31067" gradientUnits="userSpaceOnUse" id="color-60"><stop offset="0" stop-color="#5c5c5c"/><stop offset="1" stop-color="#9b9b9b"/></linearGradient><linearGradient x1="46.71623" y1="189.97045" x2="47.9578" y2="188.70465" gradientUnits="userSpaceOnUse" id="color-61"><stop offset="0" stop-color="#5c5c5c"/><stop offset="1" stop-color="#9b9b9b"/></linearGradient><linearGradient x1="199.27535" y1="114.4044" x2="192.43555" y2="110.63633" gradientUnits="userSpaceOnUse" id="color-62"><stop offset="0" stop-color="#5c5c5c"/><stop offset="1" stop-color="#9b9b9b"/></linearGradient></defs><g transform="translate(-23.99351,-6.3871)"><g data-paper-data="{&quot;isPaintingLayer&quot;:true}" fill-rule="nonzero" stroke-linejoin="miter" stroke-miterlimit="10" stroke-dasharray="" stroke-dashoffset="0" style="mix-blend-mode: normal"><path d="M201.98868,92.17514c1.69384,-2.05164 4.73014,-2.34166 6.78175,-0.64784c2.05163,1.69383 2.34167,4.73012 0.64784,6.78174c-1.69384,2.05162 -4.73014,2.34167 -6.78175,0.64786c-2.05163,-1.69383 -2.34167,-4.73014 -0.64785,-6.78176z" data-paper-data="{&quot;index&quot;:null}" fill="url(#color-1)" stroke="none" stroke-width="0" stroke-linecap="butt"/><path d="M198.86706,79.91877c0.10031,-0.69258 0.74309,-1.17272 1.43566,-1.07239c0.69259,0.10032 1.1727,0.74309 1.07239,1.43567c-0.10031,0.69258 -0.74307,1.1727 -1.43568,1.07239c-0.69259,-0.10032 -1.1727,-0.74309 -1.07239,-1.43567z" data-paper-data="{&quot;index&quot;:null}" fill="url(#color-2)" stroke="none" stroke-width="0" stroke-linecap="butt"/><path d="M203.01271,73.29475c0.44263,-0.54203 1.24087,-0.6226 1.7829,-0.17999c0.54204,0.44262 0.6226,1.24087 0.17997,1.78289c-0.44263,0.54203 -1.24086,0.62261 -1.7829,0.17999c-0.54204,-0.44262 -0.62262,-1.24088 -0.18,-1.7829z" data-paper-data="{&quot;index&quot;:null}" fill="url(#color-3)" stroke="none" stroke-width="0" stroke-linecap="butt"/><path d="M209.58033,72.99201c0.44263,-0.54203 1.24087,-0.6226 1.7829,-0.17998c0.54204,0.44262 0.6226,1.24087 0.18,1.7829c-0.44263,0.54203 -1.24088,0.62262 -1.7829,0.17998c-0.54204,-0.44262 -0.62262,-1.24088 -0.18,-1.7829z" data-paper-data="{&quot;index&quot;:null}" fill="url(#color-4)" stroke="none" stroke-width="0" stroke-linecap="butt"/><path d="M215.55714,75.62016c0.44263,-0.54203 1.24087,-0.62261 1.7829,-0.17999c0.54204,0.44262 0.62262,1.24088 0.17999,1.78291c-0.44263,0.54203 -1.24087,0.62261 -1.7829,0.17998c-0.54204,-0.44262 -0.6226,-1.24087 -0.18,-1.7829z" data-paper-data="{&quot;index&quot;:null}" fill="url(#color-5)" stroke="none" stroke-width="0" stroke-linecap="butt"/><path d="M215.79809,61.70372c0.7716,-0.40472 1.72525,-0.10727 2.12997,0.66436c0.40473,0.77161 0.10727,1.72527 -0.66435,2.12997c-0.7716,0.40472 -1.72523,0.10727 -2.12996,-0.66435c-0.40473,-0.77161 -0.10728,-1.72524 0.66435,-2.12997z" data-paper-data="{&quot;index&quot;:null}" fill="url(#color-6)" stroke="none" stroke-width="0" stroke-linecap="butt"/><g data-paper-data="{&quot;index&quot;:null}" stroke-width="1" stroke-linecap="butt"><path d="M213.41453,61.44383c0,0 1.03596,-4.28263 1.84374,-6.2577c0.78604,-1.92202 3.246,-5.31252 3.246,-5.31252l5.36376,2.19365c0,0 -0.56109,3.99632 -1.33396,5.88608c-0.81888,2.00225 -3.29602,5.8722 -3.29602,5.8722z" fill="#696969" stroke="#000000"/><path d="M215.38411,62.18594l4.74733,-11.60773l2.04335,0.83567l-4.74732,11.60774z" fill="url(#color-7)" stroke="none"/><path d="M217.61308,63.10876l0.02876,-0.43785c-0.17561,-0.56036 -0.50947,-0.98951 -0.74315,-1.51534c-0.15529,-0.34937 -0.19861,-0.74321 -0.33318,-1.09888c-0.14722,-0.38906 -0.4057,-0.70276 -0.41153,-1.16351c-0.01462,-1.16066 0.88509,-2.38924 1.882,-2.65765c0.55159,-0.1781 1.07552,-0.46569 1.62738,-0.6241c0.09295,-0.02669 0.51597,-0.10222 0.63874,-0.23346c0.19693,-0.21057 0.22149,-0.89295 0.2287,-1.10151c0.04065,-1.17025 -0.5526,-2.21286 -0.55713,-3.38934c0,0 0.00119,-0.30746 0.28288,-0.33387c0.28168,-0.0264 0.28048,0.28107 0.28048,0.28107c-0.0166,1.18435 0.60208,2.21432 0.55696,3.40226c-0.01654,0.43572 -0.07318,1.19164 -0.40817,1.5537c-0.33878,0.3662 -0.80885,0.3429 -1.21303,0.50422c-0.45079,0.17994 -0.87775,0.38807 -1.33868,0.53669c-0.73035,0.18251 -1.43432,1.13441 -1.41694,1.99269c0.00744,0.36729 0.25291,0.63891 0.37037,0.95053c0.13108,0.34779 0.17213,0.73621 0.32393,1.07626c0.26281,0.58878 0.60838,1.05163 0.78956,1.69077l-0.02566,0.54916c0,0 -0.017,0.30845 -0.29818,0.31755c-0.28116,0.00908 -0.26414,-0.29936 -0.26414,-0.29936z" fill="#000000" stroke="none"/><path d="M213.41453,61.44383c0,0 1.03596,-4.28263 1.84374,-6.2577c0.78604,-1.92202 3.246,-5.31252 3.246,-5.31252l5.36376,2.19365c0,0 -0.56109,3.99632 -1.33396,5.88608c-0.81888,2.00225 -3.29602,5.8722 -3.29602,5.8722z" fill="#ffe400" stroke="#000000"/></g><path d="M203.40134,60.31681c0.58144,-0.64894 1.57891,-0.70361 2.22784,-0.12216c0.64894,0.58146 0.70361,1.57887 0.12215,2.22781c-0.58144,0.64894 -1.57888,0.7036 -2.22782,0.12216c-0.64894,-0.58146 -0.70362,-1.57889 -0.12218,-2.22781z" data-paper-data="{&quot;index&quot;:null}" fill="url(#color-8)" stroke="none" stroke-width="0" stroke-linecap="butt"/><g data-paper-data="{&quot;index&quot;:null}" stroke-width="1" stroke-linecap="butt"><path d="M201.23427,60.48354c0,0 -0.40474,-4.3875 -0.27912,-6.51767c0.12223,-2.07293 1.35348,-6.07679 1.35348,-6.07679l5.78495,0.3411c0,0 0.76148,3.963 0.64128,6.00114c-0.12735,2.15949 -1.21979,6.62258 -1.21979,6.62258z" fill="#696969" stroke="#000000"/><path d="M203.33799,60.54884l0.73818,-12.51924l2.2038,0.12996l-0.73819,12.51924z" fill="url(#color-9)" stroke="none"/><path d="M205.74561,60.70122l-0.11439,-0.42363c-0.34739,-0.47345 -0.80212,-0.77158 -1.1933,-1.19356c-0.25993,-0.28038 -0.4283,-0.63906 -0.67065,-0.93206c-0.26513,-0.32052 -0.61118,-0.53377 -0.7657,-0.96792c-0.38921,-1.09357 0.06484,-2.54707 0.92136,-3.12347c0.46435,-0.34693 0.86712,-0.7885 1.33809,-1.11685c0.07932,-0.05532 0.45519,-0.26362 0.52891,-0.4275c0.11826,-0.26294 -0.0792,-0.91657 -0.13979,-1.11627c-0.33999,-1.12052 -1.23857,-1.91523 -1.62333,-3.02702c0,0 -0.09832,-0.29133 0.1597,-0.40742c0.258,-0.11605 0.35631,0.17526 0.35631,0.17526c0.36731,1.12607 1.28584,1.90061 1.62733,3.03932c0.12527,0.41767 0.31612,1.15125 0.11624,1.6022c-0.20214,0.45606 -0.65452,0.58605 -0.98478,0.86942c-0.36837,0.31605 -0.70508,0.65108 -1.09318,0.94076c-0.63206,0.40891 -0.99036,1.53732 -0.69629,2.34388c0.12581,0.34512 0.44594,0.52277 0.65787,0.77964c0.23655,0.28671 0.40097,0.64098 0.65461,0.91367c0.4391,0.47215 0.91576,0.79837 1.29389,1.34456l0.15332,0.52793c0,0 0.08366,0.29738 -0.17945,0.39692c-0.2631,0.09953 -0.34677,-0.19786 -0.34677,-0.19786z" fill="#000000" stroke="none"/><path d="M201.23427,60.48354c0,0 -0.40474,-4.3875 -0.27912,-6.51767c0.12223,-2.07293 1.35348,-6.07679 1.35348,-6.07679l5.78495,0.3411c0,0 0.76148,3.963 0.64128,6.00114c-0.12735,2.15949 -1.21979,6.62258 -1.21979,6.62258z" fill="#ffe400" stroke="#000000"/></g><g data-paper-data="{&quot;index&quot;:null}" stroke-width="1" stroke-linecap="butt"><path d="M202.95327,75.318c0,0 -1.28322,-4.21512 -1.59078,-6.32671c-0.29929,-2.05485 0.09719,-6.22496 0.09719,-6.22496l5.7345,-0.83523c0,0 1.54679,3.72727 1.84108,5.74763c0.31181,2.14064 0.14402,6.73245 0.14402,6.73245z" fill="#696969" stroke="#000000"/><path d="M205.02677,74.9567l-1.80758,-12.41003l2.18454,-0.31819l1.80758,12.41005z" fill="url(#color-10)" stroke="none"/><path d="M207.4155,74.6193l-0.19764,-0.39179c-0.43589,-0.39347 -0.94153,-0.5935 -1.40993,-0.92771c-0.31123,-0.22206 -0.54862,-0.5393 -0.8452,-0.77726c-0.32445,-0.26031 -0.70644,-0.39921 -0.94553,-0.79315c-0.60221,-0.99233 -0.45134,-2.50761 0.27098,-3.24524c0.38461,-0.43361 0.68984,-0.9475 1.0847,-1.3643c0.0665,-0.07021 0.39252,-0.3502 0.43158,-0.52561c0.06267,-0.2814 -0.26284,-0.88167 -0.36255,-1.06498c-0.55948,-1.02864 -1.60011,-1.62532 -2.20167,-2.63642c0,0 -0.15515,-0.26544 0.07405,-0.43127c0.2292,-0.16583 0.38437,0.0996 0.38437,0.0996c0.58736,1.02859 1.64349,1.6015 2.20809,2.64765c0.20709,0.38371 0.54229,1.0636 0.43771,1.54565c-0.1058,0.48751 -0.52253,0.70624 -0.78869,1.05052c-0.29689,0.38398 -0.55894,0.78015 -0.88046,1.14233c-0.53637,0.52822 -0.65916,1.70576 -0.20816,2.43622c0.19296,0.31259 0.5424,0.42185 0.80187,0.63059c0.28962,0.23298 0.52228,0.54671 0.82577,0.7625c0.52548,0.37364 1.05824,0.59677 1.53897,1.05526l0.25687,0.48603c0,0 0.14205,0.27434 -0.0955,0.42502c-0.23755,0.15067 -0.37961,-0.12365 -0.37961,-0.12365z" fill="#000000" stroke="none"/><path d="M202.95327,75.318c0,0 -1.28322,-4.21512 -1.59078,-6.32671c-0.29929,-2.05485 0.09719,-6.22496 0.09719,-6.22496l5.7345,-0.83523c0,0 1.54679,3.72727 1.84108,5.74763c0.31181,2.14064 0.14402,6.73245 0.14402,6.73245z" fill="#ffe400" stroke="#000000"/></g><g data-paper-data="{&quot;index&quot;:null}" stroke-width="1" stroke-linecap="butt"><path d="M210.13435,75.60188c0,0 0.2712,-4.3978 0.7212,-6.48368c0.4379,-2.02983 2.26713,-5.7982 2.26713,-5.7982l5.66466,1.22205c0,0 0.14627,4.03281 -0.28428,6.02861c-0.45619,2.11459 -2.21853,6.35805 -2.21853,6.35805z" fill="#696969" stroke="#000000"/><path d="M212.20333,75.9882l2.64465,-12.25895l2.15797,0.46552l-2.64462,12.25898z" fill="url(#color-11)" stroke="none"/><path d="M214.55929,76.50709l-0.04824,-0.43614c-0.27088,-0.52103 -0.67464,-0.88522 -0.99669,-1.36208c-0.21396,-0.31685 -0.32548,-0.69704 -0.52016,-1.02368c-0.21298,-0.35729 -0.52233,-0.62099 -0.60863,-1.07367c-0.21733,-1.14024 0.4537,-2.50719 1.38835,-2.94579c0.51193,-0.27181 0.97757,-0.64654 1.4932,-0.89902c0.08684,-0.04253 0.49016,-0.19089 0.58808,-0.34159c0.15707,-0.24175 0.06194,-0.91792 0.0326,-1.12453c-0.1646,-1.15933 -0.931,-2.08213 -1.14115,-3.23971c0,0 -0.05259,-0.30293 0.22012,-0.37818c0.27271,-0.07524 0.32531,0.22768 0.32531,0.22768c0.19075,1.16902 0.97994,2.07498 1.14325,3.25249c0.05988,0.43191 0.1363,1.18605 -0.13022,1.60112c-0.26956,0.41977 -0.73643,0.47905 -1.10617,0.70855c-0.4124,0.25599 -0.79637,0.53556 -1.22423,0.76247c-0.68718,0.3074 -1.21386,1.36772 -1.04667,2.20977c0.07154,0.36033 0.36074,0.58484 0.53088,0.87113c0.1899,0.31952 0.2982,0.69475 0.50712,1.00303c0.36173,0.53376 0.78287,0.92908 1.07302,1.52667l0.07075,0.54516c0,0 0.0372,0.30669 -0.23803,0.36482c-0.27524,0.05811 -0.31241,-0.24857 -0.31241,-0.24857z" fill="#000000" stroke="none"/><path d="M210.13435,75.60188c0,0 0.2712,-4.3978 0.7212,-6.48368c0.4379,-2.02983 2.26713,-5.7982 2.26713,-5.7982l5.66466,1.22205c0,0 0.14627,4.03281 -0.28428,6.02861c-0.45619,2.11459 -2.21853,6.35805 -2.21853,6.35805z" fill="#ffe400" stroke="#000000"/></g><path d="M218.69992,81.34424c-1.58434,7.85954 -7.62362,13.2725 -13.4891,12.09012c-5.86548,-1.18238 -9.33601,-8.51231 -7.75168,-16.37187c1.58433,-7.85956 5.85614,-8.55589 11.72162,-7.37353c5.86548,1.18238 11.10349,3.7957 9.51914,11.65527z" data-paper-data="{&quot;index&quot;:null}" fill="#ffe400" stroke="#000000" stroke-width="1" stroke-linecap="butt"/><path d="M196.78764,85.99555c0.22807,-0.66159 0.94929,-1.01305 1.61088,-0.785c0.66161,0.22805 1.01304,0.94928 0.78498,1.61087c-0.22807,0.66159 -0.94927,1.01305 -1.61087,0.785c-0.66161,-0.22805 -1.01304,-0.94928 -0.78498,-1.61087z" data-paper-data="{&quot;index&quot;:null}" fill="url(#color-12)" stroke="none" stroke-width="0" stroke-linecap="butt"/><g stroke-linecap="butt"><path d="M190.96388,76.00841c0.22807,-0.66159 0.9493,-1.01306 1.61088,-0.785c0.66161,0.22805 1.01304,0.94926 0.78499,1.61086c-0.22807,0.66159 -0.94929,1.01305 -1.61089,0.78501c-0.66161,-0.22805 -1.01305,-0.94927 -0.78498,-1.61087z" data-paper-data="{&quot;index&quot;:null}" fill="url(#color-13)" stroke="none" stroke-width="0"/><g data-paper-data="{&quot;index&quot;:null}" stroke-width="1"><path d="M189.84766,76.82616c0,0 -2.11888,-2.83433 -2.92705,-4.34562c-0.78648,-1.47068 -1.62412,-4.72904 -1.62412,-4.72904l4.10427,-2.19481c0,0 2.18495,2.39392 2.95822,3.83991c0.81929,1.53208 1.94476,5.04665 1.94476,5.04665z" fill="#696969" stroke="#000000"/><path d="M191.31553,75.98777l-4.74977,-8.88207l1.56353,-0.83611l4.74977,8.88207z" fill="url(#color-14)" stroke="none"/><path d="M193.02803,75.08146l-0.25616,-0.24207c-0.43659,-0.17837 -0.87314,-0.19162 -1.31811,-0.31636c-0.29569,-0.08289 -0.56151,-0.25777 -0.85046,-0.35668c-0.31609,-0.10818 -0.64255,-0.10892 -0.93058,-0.34134c-0.72554,-0.5854 -1.0248,-1.77126 -0.68027,-2.52547c0.17232,-0.43247 0.26276,-0.90388 0.44739,-1.32641c0.03109,-0.07117 0.20103,-0.37159 0.1827,-0.51475c-0.02941,-0.22968 -0.43898,-0.59435 -0.5643,-0.70564c-0.70316,-0.62451 -1.65203,-0.79148 -2.38218,-1.39125c0,0 -0.18959,-0.15821 -0.06168,-0.34599c0.12793,-0.18777 0.31753,-0.02959 0.31753,-0.02959c0.72423,0.61683 1.67825,0.76164 2.39008,1.39796c0.26109,0.23339 0.69973,0.65558 0.75216,1.04827c0.05303,0.39713 -0.20213,0.67603 -0.30932,1.00871c-0.11955,0.37103 -0.20949,0.74177 -0.35362,1.10305c-0.26114,0.54531 -0.03278,1.46835 0.50711,1.8972c0.23103,0.18349 0.52481,0.17074 0.77775,0.25769c0.28231,0.09704 0.54362,0.27057 0.83174,0.35083c0.49885,0.13896 0.96219,0.16225 1.45038,0.37749l0.3266,0.29712c0,0 0.18211,0.1685 0.04374,0.34711c-0.13839,0.17861 -0.32052,0.01011 -0.32052,0.01011z" fill="#000000" stroke="none"/><path d="M189.84766,76.82616c0,0 -2.11888,-2.83433 -2.92705,-4.34562c-0.78648,-1.47068 -1.62412,-4.72904 -1.62412,-4.72904l4.10427,-2.19481c0,0 2.18495,2.39392 2.95822,3.83991c0.81929,1.53208 1.94476,5.04665 1.94476,5.04665z" fill="#ffe400" stroke="#000000"/></g><g data-paper-data="{&quot;index&quot;:null}" stroke-width="1"><path d="M195.58162,86.95857c0,0 -2.26396,-2.71983 -3.14994,-4.18688c-0.86219,-1.42762 -1.86881,-4.63782 -1.86881,-4.63782l3.98406,-2.40609c0,0 2.30695,2.27656 3.15466,3.68021c0.89817,1.48723 2.20558,4.93824 2.20558,4.93824z" fill="#696969" stroke="#000000"/><path d="M197.00371,86.04468l-5.20701,-8.62196l1.51774,-0.9166l5.207,8.62196z" fill="url(#color-15)" stroke="none"/><path d="M198.66655,85.05021l-0.26844,-0.22835c-0.44534,-0.15532 -0.88193,-0.14578 -1.33283,-0.2471c-0.29962,-0.06733 -0.5742,-0.22812 -0.86793,-0.31179c-0.32129,-0.09152 -0.64736,-0.07523 -0.94714,-0.29227c-0.7551,-0.54675 -1.11587,-1.71534 -0.8112,-2.4865c0.1495,-0.44085 0.2152,-0.91638 0.3775,-1.34798c0.02733,-0.07269 0.18136,-0.38157 0.15558,-0.52358c-0.04136,-0.22784 -0.46941,-0.57062 -0.60038,-0.67521c-0.73479,-0.58693 -1.69111,-0.70415 -2.45157,-1.26497c0,0 -0.19759,-0.14808 -0.07966,-0.34229c0.11794,-0.1942 0.31554,-0.04613 0.31554,-0.04613c0.75544,0.5782 1.71574,0.67298 2.45982,1.27128c0.27293,0.21944 0.733,0.61817 0.80586,1.00757c0.07369,0.39382 -0.16654,0.68565 -0.25624,1.02345c-0.10004,0.37678 -0.17046,0.75171 -0.29553,1.12001c-0.23232,0.55821 0.04389,1.46806 0.60546,1.86813c0.24029,0.1712 0.53301,0.14311 0.79014,0.21672c0.287,0.08216 0.557,0.24182 0.84893,0.30693c0.50543,0.11273 0.96935,0.11178 1.46811,0.30125l0.34166,0.27966c0,0 0.19067,0.15876 0.06181,0.34435c-0.12886,0.18558 -0.31952,0.0268 -0.31952,0.0268z" fill="#000000" stroke="none"/><path d="M195.58162,86.95857c0,0 -2.26396,-2.71983 -3.14994,-4.18688c-0.86219,-1.42762 -1.86881,-4.63782 -1.86881,-4.63782l3.98406,-2.40609c0,0 2.30695,2.27656 3.15466,3.68021c0.89817,1.48723 2.20558,4.93824 2.20558,4.93824z" fill="#ffe400" stroke="#000000"/></g></g><path d="M142.0289,208.19753c-1.76097,3.19082 -5.50071,4.04504 -8.35293,1.90793c-2.85222,-2.13712 -3.73686,-6.45628 -1.97589,-9.6471c1.76097,-3.19082 5.5007,-4.04503 8.35293,-1.90792c2.85222,2.13712 3.73687,6.45627 1.9759,9.64709z" fill="url(#color-16)" stroke="none" stroke-width="0" stroke-linecap="butt"/><path d="M143.57212,306.34826c-1.63615,2.44074 -4.69943,2.86711 -6.84205,0.95234c-2.14263,-1.91477 -2.5532,-5.44559 -0.91705,-7.88633c1.63615,-2.44074 4.69943,-2.86711 6.84205,-0.95234c2.14263,1.91477 2.5532,5.44558 0.91706,7.88632z" fill="url(#color-17)" stroke="none" stroke-width="0" stroke-linecap="butt"/><g fill="#ff6900" stroke="#000000" stroke-width="2" stroke-linecap="butt"><path d="M143.44401,305.02203c10.73257,0 18.99469,-3.18175 19.43305,11.02173c0.44462,14.40659 -8.70047,11.02173 -19.43305,11.02173c-10.73259,0 -19.43306,-4.9346 -19.43306,-11.02173c0,-6.08713 8.70049,-11.02173 19.43307,-11.02173z"/><path d="M184.92053,316.04379c0,6.19393 -5.36747,11.2151 -11.98855,11.2151c-6.6211,0 -11.98854,-5.02116 -11.98854,-11.2151c0,-6.19393 5.36746,-11.21509 11.98854,-11.21509c6.6211,0 11.98855,5.02116 11.98855,11.21509z" data-paper-data="{&quot;index&quot;:null}"/><path d="M176.6059,316.33378c0,6.35411 -5.36747,11.50515 -11.98856,11.50515c-6.6211,0 -11.98856,-5.15103 -11.98856,-11.50515c0,-6.35411 5.36746,-11.50513 11.98856,-11.50513c6.6211,0 11.98856,5.15102 11.98856,11.50513z" data-paper-data="{&quot;index&quot;:null}"/><path d="M166.55097,316.33378c0,6.35411 -5.36746,11.50515 -11.98854,11.50515c-6.6211,0 -11.98855,-5.15103 -11.98855,-11.50515c0,-6.35411 5.36747,-11.50513 11.98855,-11.50513c6.6211,0 11.98854,5.15102 11.98854,11.50513z" data-paper-data="{&quot;index&quot;:null}"/></g><g stroke-linecap="butt"><path d="M142.62721,257.93885c-1.67513,2.41414 -4.74488,2.79129 -6.85647,0.84235c-2.1116,-1.94892 -2.46543,-5.48589 -0.7903,-7.90003c1.67513,-2.41414 4.74488,-2.79129 6.85649,-0.84236c2.1116,1.94894 2.46542,5.48589 0.79029,7.90004z" fill="url(#color-18)" stroke="none" stroke-width="0"/><g><path d="M129.09201,252.6623c0,0 -2.90812,-16.04334 -3.07469,-23.74521c-0.15723,-7.26915 2.61367,-21.25264 2.61367,-21.25264l17.92058,-0.33765c0,0 3.38547,14.4306 3.54536,21.82381c0.16432,7.59732 -1.5483,23.14512 -1.5483,23.14512z" fill="#696969" stroke="#000000" stroke-width="2"/><path d="M135.21099,252.33804l-0.96572,-44.65038l6.82689,-0.12864l0.96571,44.65039z" fill="url(#color-19)" stroke="none" stroke-width="0"/><path d="M133.48559,253.03836c-0.80296,-0.39394 -0.51303,-1.43925 -0.51303,-1.43925l0.52954,-1.85496c1.2265,-1.88583 2.73447,-2.97428 4.14166,-4.58748c0.81277,-0.93176 1.35839,-2.16719 2.11983,-3.15139c0.68218,-0.88177 1.69061,-1.46528 2.11589,-2.67411c0.99383,-2.82491 0.00482,-6.89359 -1.90631,-8.44401c-1.16939,-1.08938 -2.17513,-2.33227 -3.28074,-3.51242c-0.99128,-1.05809 -2.37607,-1.58907 -2.95308,-3.24216c-0.57056,-1.63459 0.0967,-4.21556 0.52786,-5.68245c1.17551,-3.99931 4.09663,-6.61579 5.35067,-10.56631c0,0 0.33456,-1.02151 1.11997,-0.56948c0.78543,0.45204 0.45084,1.47355 0.45084,1.47355c-1.30642,3.89709 -4.16797,6.58839 -5.33695,10.52321c-0.20834,0.70129 -0.88759,2.99673 -0.54963,3.95009c0.21065,0.59424 1.35084,1.3922 1.59024,1.60098c1.42149,1.23953 2.62031,2.87147 4.01938,4.17598c2.58744,2.18028 3.83824,7.42004 2.52002,11.25161c-0.52332,1.52111 -1.61563,2.22737 -2.46897,3.32752c-0.78009,1.00571 -1.33833,2.25616 -2.17142,3.21435c-1.25374,1.44201 -2.69095,2.4338 -3.81473,4.06559l-0.39819,1.48981c0,0 -0.28993,1.0453 -1.0929,0.65136z" fill="#000000" stroke="none" stroke-width="0.5"/><path d="M129.09201,252.6623c0,0 -2.90812,-16.04334 -3.07469,-23.74521c-0.15723,-7.26915 2.61367,-21.25264 2.61367,-21.25264l17.92058,-0.33765c0,0 3.38547,14.4306 3.54536,21.82381c0.16432,7.59732 -1.5483,23.14512 -1.5483,23.14512z" fill="#ff6900" stroke="#000000" stroke-width="2"/></g><g><path d="M131.14192,301.91069c0,0 -2.96333,-16.03323 -3.15641,-23.7345c-0.18224,-7.26857 2.5405,-21.26151 2.5405,-21.26151l17.91931,-0.39934c0,0 3.4351,14.41887 3.62046,21.81148c0.19047,7.5967 -1.46861,23.1503 -1.46861,23.1503z" fill="#696969" stroke="#000000" stroke-width="2"/><path d="M137.25977,301.56537l-1.11943,-44.64681l6.82641,-0.15213l1.11941,44.64681z" fill="url(#color-20)" stroke="none" stroke-width="0"/><path d="M135.53677,302.2716c-0.8043,-0.3912 -0.51799,-1.43748 -0.51799,-1.43748l0.52317,-1.8568c1.21999,-1.89004 2.72419,-2.98368 4.12582,-4.60169c0.80957,-0.93454 1.35093,-2.17184 2.10896,-3.15866c0.67915,-0.88412 1.68556,-1.47108 2.10669,-2.68138c0.98409,-2.82832 -0.01891,-6.89357 -1.93536,-8.4374c-1.17312,-1.08535 -2.18313,-2.32478 -3.2928,-3.50111c-0.9949,-1.05469 -2.38151,-1.58088 -2.96422,-3.23198c-0.57618,-1.6326 0.08217,-4.21586 0.50829,-5.68424c1.16174,-4.00332 4.07383,-6.62985 5.31427,-10.58467c0,0 0.33104,-1.02265 1.11801,-0.57332c0.78696,0.44933 0.45592,1.47199 0.45592,1.47199c-1.293,3.90158 -4.14527,6.60269 -5.30071,10.54151c-0.20594,0.702 -0.87724,2.99975 -0.53601,3.95195c0.2127,0.59351 1.3556,1.38755 1.59575,1.5955c1.42576,1.23464 2.63018,2.86242 4.03372,4.16211c2.59491,2.17136 3.86378,7.40679 2.55874,11.24287c-0.51809,1.5229 -1.60796,2.23291 -2.45751,3.336c-0.77663,1.0084 -1.33055,2.26077 -2.16034,3.22181c-1.24878,1.44631 -2.68255,2.44305 -3.80069,4.07868l-0.39305,1.49118c0,0 -0.28632,1.0463 -1.09064,0.6551z" fill="#000000" stroke="none" stroke-width="0.5"/><path d="M131.14192,301.91069c0,0 -2.96333,-16.03323 -3.15641,-23.7345c-0.18224,-7.26857 2.5405,-21.26151 2.5405,-21.26151l17.91931,-0.39934c0,0 3.4351,14.41887 3.62046,21.81148c0.19047,7.5967 -1.46861,23.1503 -1.46861,23.1503z" fill="#ff6900" stroke="#000000" stroke-width="2"/></g><path d="M123.58605,278.66646c-0.06181,-2.4852 1.25298,-4.53379 15.9188,-4.89855c14.47833,-0.3601 16.08081,1.61595 16.14262,4.10114c0.06181,2.4852 -0.12802,4.50582 -15.91879,4.89856c-15.0408,0.37408 -16.08081,-1.61596 -16.14262,-4.10115z" fill="#e800ff" stroke="none" stroke-width="NaN"/><path d="M137.61214,225.49692c14.47482,-0.48065 16.0937,1.48198 16.17621,3.96658c0.08251,2.4846 -0.09049,4.50673 -15.87744,5.03094c-15.03717,0.49932 -16.09371,-1.48198 -16.17622,-3.96658c-0.0825,-2.4846 1.21518,-4.54408 15.87745,-5.03094z" fill="#e800ff" stroke="none" stroke-width="NaN"/></g><path d="M90.12288,208.19753c-1.76097,-3.19082 -0.87632,-7.50997 1.9759,-9.64709c2.85223,-2.13711 6.59196,-1.2829 8.35293,1.90792c1.76097,3.19082 0.87633,7.50998 -1.97589,9.6471c-2.85222,2.13711 -6.59196,1.28289 -8.35293,-1.90793z" data-paper-data="{&quot;index&quot;:null}" fill="url(#color-21)" stroke="none" stroke-width="0" stroke-linecap="butt"/><path d="M88.57966,306.34824c-1.63614,-2.44074 -1.22557,-5.97155 0.91706,-7.88632c2.14262,-1.91477 5.2059,-1.4884 6.84205,0.95234c1.63615,2.44074 1.22558,5.97156 -0.91705,7.88633c-2.14262,1.91477 -5.2059,1.4884 -6.84205,-0.95234z" data-paper-data="{&quot;index&quot;:null}" fill="url(#color-22)" stroke="none" stroke-width="0" stroke-linecap="butt"/><g data-paper-data="{&quot;index&quot;:null}" fill="#ff6900" stroke="#000000" stroke-width="2" stroke-linecap="butt"><path d="M88.70777,305.02203c10.73258,0 19.43307,4.9346 19.43307,11.02173c0,6.08713 -8.70047,11.02173 -19.43306,11.02173c-10.73258,0 -19.87767,3.38486 -19.43305,-11.02173c0.43836,-14.20348 8.70048,-11.02173 19.43305,-11.02173z"/><path d="M59.21981,304.82867c6.62108,0 11.98854,5.02116 11.98854,11.21509c0,6.19394 -5.36744,11.2151 -11.98854,11.2151c-6.62108,0 -11.98855,-5.02117 -11.98855,-11.2151c0,-6.19393 5.36745,-11.21509 11.98855,-11.21509z" data-paper-data="{&quot;index&quot;:null}"/><path d="M67.53445,304.82867c6.6211,0 11.98856,5.15102 11.98856,11.50513c0,6.35412 -5.36746,11.50515 -11.98856,11.50515c-6.62109,0 -11.98856,-5.15104 -11.98856,-11.50515c0,-6.35411 5.36746,-11.50513 11.98856,-11.50513z" data-paper-data="{&quot;index&quot;:null}"/><path d="M77.58936,304.82867c6.62108,0 11.98855,5.15102 11.98855,11.50513c0,6.35412 -5.36745,11.50515 -11.98855,11.50515c-6.62108,0 -11.98854,-5.15104 -11.98854,-11.50515c0,-6.35411 5.36744,-11.50513 11.98854,-11.50513z" data-paper-data="{&quot;index&quot;:null}"/></g><g data-paper-data="{&quot;index&quot;:null}" stroke-linecap="butt"><path d="M89.52457,257.93886c-1.67513,-2.41415 -1.32131,-5.9511 0.79029,-7.90004c2.11161,-1.94893 5.18135,-1.57178 6.85648,0.84236c1.67513,2.41414 1.3213,5.95111 -0.7903,7.90003c-2.11159,1.94894 -5.18133,1.57178 -6.85646,-0.84235z" fill="url(#color-23)" stroke="none" stroke-width="0"/><g><path d="M83.60316,252.29573c0,0 -1.71262,-15.54781 -1.5483,-23.14512c0.1599,-7.39321 3.54537,-21.82381 3.54537,-21.82381l17.92058,0.33766c0,0 2.77089,13.98349 2.61367,21.25264c-0.16657,7.70188 -3.0747,23.74521 -3.0747,23.74521z" fill="#696969" stroke="#000000" stroke-width="2"/><path d="M90.11392,252.2094l0.96571,-44.65039l6.8269,0.12864l-0.96572,44.65038z" fill="url(#color-24)" stroke="none" stroke-width="0"/><path d="M98.66624,253.03839c-0.80296,0.39395 -1.09289,-0.65136 -1.09289,-0.65136l-0.39819,-1.48981c-1.12377,-1.63179 -2.56099,-2.62359 -3.81473,-4.06559c-0.83309,-0.95819 -1.39133,-2.20864 -2.17142,-3.21435c-0.85334,-1.10016 -1.94565,-1.80641 -2.46897,-3.32752c-1.31822,-3.83157 -0.06742,-9.07133 2.52002,-11.25161c1.39907,-1.3045 2.59789,-2.93645 4.01938,-4.17598c0.23941,-0.20878 1.37959,-1.00673 1.59024,-1.60098c0.33795,-0.95336 -0.34129,-3.2488 -0.54963,-3.95009c-1.16898,-3.93482 -4.03053,-6.62611 -5.33695,-10.52321c0,0 -0.33459,-1.02152 0.45084,-1.47356c0.78542,-0.45203 1.11997,0.56948 1.11997,0.56948c1.25404,3.95051 4.17516,6.56699 5.35067,10.56631c0.43116,1.46689 1.09842,4.04787 0.52786,5.68246c-0.57701,1.65309 -1.9618,2.18407 -2.95308,3.24216c-1.10562,1.18015 -2.11135,2.42305 -3.28074,3.51243c-1.91112,1.55042 -2.90014,5.61909 -1.90631,8.44401c0.42527,1.20883 1.43371,1.79234 2.11588,2.67411c0.76144,0.98421 1.30706,2.21963 2.11983,3.15139c1.40719,1.6132 2.91517,2.70165 4.14166,4.58748l0.52955,1.85496c0,0 0.28993,1.0453 -0.51303,1.43925z" fill="#000000" stroke="none" stroke-width="0.5"/><path d="M83.60316,252.29573c0,0 -1.71262,-15.54781 -1.5483,-23.14512c0.1599,-7.39321 3.54537,-21.82381 3.54537,-21.82381l17.92058,0.33766c0,0 2.77089,13.98349 2.61367,21.25264c-0.16657,7.70188 -3.0747,23.74521 -3.0747,23.74521z" fill="#ff6900" stroke="#000000" stroke-width="2"/></g><g><path d="M81.55462,301.47713c0,0 -1.65909,-15.55361 -1.46861,-23.15031c0.18536,-7.39261 3.62046,-21.81149 3.62046,-21.81149l17.91931,0.39934c0,0 2.72275,13.99294 2.5405,21.26151c-0.19308,7.70127 -3.15641,23.7345 -3.15641,23.7345z" fill="#696969" stroke="#000000" stroke-width="2"/><path d="M88.06563,301.41324l1.11941,-44.64681l6.82641,0.15213l-1.11942,44.64681z" fill="url(#color-25)" stroke="none" stroke-width="0"/><path d="M96.615,302.27158c-0.80432,0.3912 -1.09064,-0.6551 -1.09064,-0.6551l-0.39306,-1.49118c-1.11814,-1.63563 -2.55192,-2.63238 -3.80069,-4.07869c-0.82979,-0.96104 -1.3837,-2.21341 -2.16034,-3.22181c-0.84956,-1.10309 -1.93942,-1.8131 -2.45752,-3.336c-1.30504,-3.83608 -0.03616,-9.07151 2.55875,-11.24287c1.40355,-1.29969 2.60796,-2.92747 4.03372,-4.16211c0.24015,-0.20794 1.38305,-1.00199 1.59575,-1.5955c0.34123,-0.9522 -0.33007,-3.24995 -0.53602,-3.95195c-1.15544,-3.93883 -4.00771,-6.63993 -5.3007,-10.54152c0,0 -0.33105,-1.02265 0.45592,-1.47199c0.78698,-0.44934 1.11801,0.57332 1.11801,0.57332c1.24044,3.95481 4.15253,6.58134 5.31427,10.58466c0.42612,1.46838 1.08447,4.05164 0.5083,5.68424c-0.58271,1.6511 -1.96932,2.1773 -2.96422,3.23198c-1.10967,1.17633 -2.11969,2.41577 -3.29281,3.50112c-1.91645,1.54383 -2.91944,5.60907 -1.93535,8.43739c0.42112,1.21029 1.42754,1.79726 2.10668,2.68138c0.75803,0.98683 1.29939,2.22413 2.10896,3.15867c1.40163,1.61802 2.90583,2.71165 4.12582,4.60169l0.52317,1.8568c0,0 0.28632,1.04628 -0.51798,1.43748z" fill="#000000" stroke="none" stroke-width="0.5"/><path d="M81.55462,301.47713c0,0 -1.65909,-15.55361 -1.46861,-23.15031c0.18536,-7.39261 3.62046,-21.81149 3.62046,-21.81149l17.91931,0.39934c0,0 2.72275,13.99294 2.5405,21.26151c-0.19308,7.70127 -3.15641,23.7345 -3.15641,23.7345z" fill="#ff6900" stroke="#000000" stroke-width="2"/></g><path d="M108.56573,278.66646c-0.06181,2.4852 -1.10183,4.47524 -16.14263,4.10116c-15.79077,-0.39273 -15.9806,-2.41335 -15.91879,-4.89855c0.06181,-2.4852 1.6643,-4.46125 16.14262,-4.10115c14.66582,0.36476 15.98061,2.41334 15.9188,4.89855z" fill="#e800ff" stroke="none" stroke-width="NaN"/><path d="M110.4171,230.52786c-0.0825,2.4846 -1.13905,4.46589 -16.17622,3.96658c-15.78696,-0.52421 -15.95995,-2.54634 -15.87744,-5.03094c0.0825,-2.4846 1.70138,-4.44723 16.17621,-3.96658c14.66227,0.48686 15.95995,2.54634 15.87745,5.03094z" fill="#e800ff" stroke="none" stroke-width="NaN"/></g><path d="M36.91401,172.48311c2.55326,-0.74767 5.22921,0.71607 5.97689,3.26934c0.74768,2.55327 -0.71606,5.22922 -3.26932,5.9769c-2.55326,0.74767 -5.22922,-0.71604 -5.9769,-3.26933c-0.74768,-2.55327 0.71606,-5.22923 3.26934,-5.9769z" data-paper-data="{&quot;index&quot;:null}" fill="url(#color-26)" stroke="none" stroke-width="0" stroke-linecap="butt"/><path d="M52.1106,139.50744c-0.74768,-2.55328 0.71605,-5.22923 3.26932,-5.9769c2.55327,-0.74767 5.22922,0.71606 5.9769,3.26933c0.74768,2.55327 -0.71607,5.22922 -3.26934,5.97689c-2.55326,0.74767 -5.22921,-0.71604 -5.97688,-3.26933z" data-paper-data="{&quot;index&quot;:null}" fill="url(#color-27)" stroke="none" stroke-width="0" stroke-linecap="butt"/><g data-paper-data="{&quot;index&quot;:null}" stroke-linecap="butt"><path d="M27.65427,170.75292c0,0 3.90282,-12.93641 6.83775,-18.75354c2.85608,-5.66086 11.58601,-15.16262 11.58601,-15.16262l18.27493,9.28583c0,0 -2.24679,12.25452 -5.05495,17.82038c-2.97534,5.89722 -11.8024,16.89173 -11.8024,16.89173z" fill="#696969" stroke="#000000" stroke-width="2"/><path d="M34.36981,173.96432l17.24899,-34.18813l6.96188,3.53746l-17.24898,34.18811z" fill="url(#color-28)" stroke="none" stroke-width="0"/><path d="M42.84805,178.91441c-0.96778,-0.0984 -0.88483,-1.05612 -0.88483,-1.05612l0.13367,-1.35747c-0.55955,-1.83306 -1.67391,-3.32693 -2.43601,-5.07806c-0.50639,-1.16357 -0.62417,-2.41573 -1.05887,-3.58955c-0.47549,-1.28405 -1.33973,-2.3825 -1.32316,-3.8273c0.04176,-3.63927 3.23373,-7.07855 6.68392,-7.46883c1.91128,-0.30857 3.73627,-0.97222 5.64692,-1.21905c0.3218,-0.04157 1.78291,-0.08711 2.21553,-0.44253c0.69408,-0.57018 0.83255,-2.69479 0.874,-3.3443c0.23259,-3.64431 -1.72529,-7.17519 -1.64753,-10.85942c0,0 0.02848,-0.96173 0.99938,-0.91729c0.97092,0.04445 0.94246,1.00618 0.94246,1.00618c-0.15095,3.69933 1.8953,7.20212 1.64592,10.89978c-0.09145,1.35627 -0.34617,3.69657 -1.5271,4.67864c-1.19427,0.99321 -2.80927,0.70826 -4.21221,1.03083c-1.56477,0.35975 -3.04987,0.81853 -4.64702,1.07571c-2.52652,0.24171 -5.0233,2.90333 -5.03157,5.59753c-0.00354,1.1529 0.81927,2.1138 1.19856,3.14206c0.42335,1.14772 0.53366,2.38184 1.02882,3.51469c0.85729,1.96134 2.00911,3.56592 2.58164,5.64799l-0.13176,1.70717c0,0 -0.08296,0.95771 -1.05073,0.85934z" fill="#000000" stroke="none" stroke-width="0.5"/><path d="M27.65427,170.75292c0,0 3.90282,-12.93641 6.83775,-18.75354c2.85608,-5.66086 11.58601,-15.16262 11.58601,-15.16262l18.27493,9.28583c0,0 -2.24679,12.25452 -5.05495,17.82038c-2.97534,5.89722 -11.8024,16.89173 -11.8024,16.89173z" fill="#ffe400" stroke="#000000" stroke-width="2"/></g><g data-paper-data="{&quot;index&quot;:null}" stroke-linecap="butt"><path d="M49.93917,130.06283c0,0 7.74815,-11.07018 12.35318,-15.67958c4.48132,-4.48558 15.74227,-10.78524 15.74227,-10.78524l14.46027,14.52928c0,0 -5.96197,10.93966 -10.36809,15.34996c-4.66844,4.67286 -16.48791,12.36027 -16.48791,12.36027z" fill="#696969" stroke="#000000" stroke-width="2"/><path d="M55.31568,135.21111l27.0644,-27.09012l5.50868,5.53498l-27.06438,27.0901z" fill="url(#color-29)" stroke="none" stroke-width="0"/><path d="M61.82363,142.56165c-0.88864,-0.39576 -0.51069,-1.27965 -0.51069,-1.27965l0.55098,-1.24781c0.04098,-1.91611 -0.55103,-3.68331 -0.72804,-5.58487c-0.11763,-1.26353 0.16159,-2.48983 0.11526,-3.74069c-0.05065,-1.36832 -0.52855,-2.68175 -0.06153,-4.04909c1.17637,-3.44416 5.28287,-5.71436 8.68234,-5.00749c1.91203,0.30384 3.85301,0.2434 5.74518,0.6057c0.31869,0.06102 1.72091,0.47412 2.24289,0.27161c0.83745,-0.32486 1.6326,-2.29992 1.87484,-2.90399c1.35922,-3.38934 0.60214,-7.35509 1.82675,-10.83071c0,0 0.32744,-0.90471 1.23589,-0.55925c0.90846,0.34548 0.58104,1.25022 0.58104,1.25022c-1.29885,3.4671 -0.44905,7.43376 -1.84088,10.86855c-0.51049,1.25985 -1.48344,3.40351 -2.91204,3.9676c-1.44474,0.57049 -2.88994,-0.20464 -4.32345,-0.3364c-1.59884,-0.147 -3.15294,-0.17502 -4.75052,-0.42957c-2.47562,-0.55952 -5.67882,1.1891 -6.52819,3.74591c-0.36346,1.09412 0.11805,2.26394 0.1572,3.35923c0.04369,1.22254 -0.23699,2.42936 -0.12044,3.6602c0.2018,2.13098 0.79481,4.01504 0.68838,6.17177l-0.65839,1.58061c0,0 -0.37795,0.88389 -1.26658,0.48816z" fill="#000000" stroke="none" stroke-width="0.5"/><path d="M49.93917,130.06283c0,0 7.74815,-11.07018 12.35318,-15.67958c4.48132,-4.48558 15.74227,-10.78524 15.74227,-10.78524l14.46027,14.52928c0,0 -5.96197,10.93966 -10.36809,15.34996c-4.66844,4.67286 -16.48791,12.36027 -16.48791,12.36027z" fill="#ffe400" stroke="#000000" stroke-width="2"/></g><path d="M187.57797,128.01432c0.15678,2.65589 -1.86914,4.93597 -4.52499,5.09275c-2.65587,0.15678 -4.93598,-1.86914 -5.09276,-4.525c-0.15677,-2.65587 1.86915,-4.93597 4.52501,-5.09275c2.65587,-0.15678 4.93597,1.86914 5.09274,4.52501z" fill="url(#color-30)" stroke="none" stroke-width="0" stroke-linecap="butt"/><g stroke-linecap="butt"><path d="M176.97531,138.5342c0,0 -13.71907,-3.2532 -19.68946,-6.07887c-5.63491,-2.6669 -14.93563,-10.95653 -14.93563,-10.95653l8.71621,-18.55336c0,0 12.72544,2.13496 18.45653,4.84738c5.8893,2.7873 16.91565,10.5977 16.91565,10.5977z" fill="#696969" stroke="#000000" stroke-width="2"/><path d="M179.79174,132.11782l-34.61223,-16.38133l3.32046,-7.06795l34.61225,16.38133z" fill="url(#color-31)" stroke="none" stroke-width="0"/><path d="M179.46298,134.16401c-0.70322,0.67211 -1.357,-0.03263 -1.357,-0.03263l-1.15267,-1.26616c-0.82722,-1.99462 -0.90402,-3.96831 -1.43237,-6.04259c-0.30518,-1.19808 -0.97624,-2.23967 -1.34722,-3.40537c-0.33236,-1.04438 -0.27337,-2.30805 -0.98438,-3.21561c-1.66154,-2.12086 -5.26671,-2.68735 -7.40882,-1.32606c-1.41827,0.77818 -2.87196,1.32844 -4.32767,2.00579c-1.30518,0.60727 -2.40451,1.82421 -3.957,1.77412c-1.53513,-0.0495 -3.17374,-1.73973 -4.07905,-2.75375c-2.46821,-2.76458 -3.00528,-6.78554 -5.39685,-9.61188c0,0 -0.61324,-0.74141 0.12559,-1.37291c0.73883,-0.63147 1.35208,0.10991 1.35208,0.10991c2.32454,2.85939 2.94859,6.84824 5.37079,9.58102c0.43169,0.48705 1.84608,2.07847 2.74402,2.10203c0.5597,0.0147 1.7406,-0.84689 2.02006,-1.01178c1.65929,-0.97893 3.50704,-1.57632 5.20474,-2.50691c2.96224,-1.81144 7.59365,-1.05838 9.86217,1.78765c0.9006,1.12989 0.89343,2.52754 1.30699,3.83284c0.37805,1.19327 1.0543,2.25367 1.36948,3.4829c0.47435,1.84993 0.5127,3.71326 1.19719,5.50341l0.93936,0.98905c0,0 0.65377,0.70476 -0.04944,1.3769z" fill="#000000" stroke="none" stroke-width="0.5"/><path d="M176.97531,138.5342c0,0 -13.71907,-3.2532 -19.68946,-6.07887c-5.63491,-2.6669 -14.93563,-10.95653 -14.93563,-10.95653l8.71621,-18.55336c0,0 12.72544,2.13496 18.45653,4.84738c5.8893,2.7873 16.91565,10.5977 16.91565,10.5977z" fill="#ffe400" stroke="#000000" stroke-width="2"/></g><path d="M81.43792,188.36982c0,-12.51879 71.95341,-12.51879 71.95341,0c0,12.51879 -29.30401,22.66726 -35.9767,22.66726c-8.87214,0 -35.97671,-10.14847 -35.97671,-22.66726z" fill="#ffe400" stroke="#000000" stroke-width="2" stroke-linecap="butt"/><path d="M116.71354,85.01747c5.14434,0.112 12.04447,12.52032 22.66349,28.02505c8.10346,11.83179 21.07921,24.95923 21.07921,38.80408c0,31.98755 -19.58427,46.17285 -43.7427,46.17285c-24.15842,0 -43.7427,-14.1853 -43.7427,-46.17285c0,-17.04421 12.75523,-29.28278 23.35545,-42.26678c9.29364,-11.38359 16.27495,-24.65188 20.38725,-24.56235z" fill="#696969" stroke="#000000" stroke-width="2" stroke-linecap="butt"/><path d="M89.83839,113.17029v-5.3774h54.28605v5.3774z" fill="url(#color-32)" stroke="none" stroke-width="0" stroke-linecap="butt"/><path d="M114.12786,140.35645l22.96353,-31.42616l4.34176,3.1726l-22.96354,31.42615z" fill="url(#color-33)" stroke="none" stroke-width="0" stroke-linecap="butt"/><path d="M115.83792,144.04119l-22.96354,-31.42617l4.34176,-3.17259l22.96354,31.42617z" data-paper-data="{&quot;index&quot;:null}" fill="url(#color-34)" stroke="none" stroke-width="0" stroke-linecap="butt"/><path d="M113.82492,197.551v-59.30877h6.40166v59.30878z" fill="url(#color-35)" stroke="none" stroke-width="0" stroke-linecap="butt"/><path d="M113.4448,143.54496c0.42546,0.86085 -0.43537,1.28631 -0.43537,1.28631l-0.60747,0.24565c-1.5421,1.49929 -2.45123,3.52915 -3.57152,5.3749c-4.09216,6.67029 -13.3328,5.86462 -16.81611,-1.07147c-1.9565,-3.89586 -0.03843,-9.92558 2.18804,-13.22982c3.32004,-5.61304 3.65434,-10.39242 2.02719,-16.606c-0.41391,-1.58061 -1.29884,-4.01206 -2.8013,-5.18193c0.25078,-0.18345 0.36088,-0.45869 0.36088,-0.45869c0.15541,-0.40317 0.35137,-0.79837 0.59517,-1.15782c1.4637,1.06293 2.43283,2.84569 3.12837,4.60371c2.75199,6.9558 2.0688,13.44943 -1.68645,19.82615c-1.92129,2.84623 -3.19856,7.07327 -2.45206,10.58366c0.20817,0.97892 1.00346,1.75502 1.67242,2.41153c1.18652,1.1644 2.43261,2.6543 4.15866,3.03283c3.40995,0.74782 6.3115,-0.95963 7.98349,-3.7486c1.21796,-2.00659 2.20707,-4.08444 3.86313,-5.74422l1.10665,-0.60154c0,0 0.86084,-0.42547 1.28631,0.43538z" fill="#000000" stroke="none" stroke-width="0.5" stroke-linecap="butt"/><path d="M118.79763,139.73083c0.96025,0 0.96025,0.96025 0.96025,0.96025l-0.05034,0.73044c-0.70146,2.0734 -0.95808,4.33937 -1.85998,6.34524c-0.49534,1.10165 -1.97488,2.60787 -1.8412,3.9837c0.13756,1.41584 1.55661,2.68106 2.43386,3.65414c1.97906,2.19522 4.37801,3.89721 6.4162,6.05585c0.4045,1.02394 1.00061,2.05115 0.77979,3.22141c-0.79571,4.21711 -7.0142,6.60819 -10.25655,8.65734c-0.94459,0.59698 -2.28286,0.74607 -2.90374,1.67514c-0.18426,0.2757 0.10879,0.65527 0.19457,0.97559c0.44902,1.6769 0.95969,2.97814 1.93211,4.41761c0.95682,1.41637 1.79976,2.28457 3.22355,3.21902c0,0 0.80181,0.52837 0.27343,1.33018c-0.52839,0.80181 -1.33019,0.27341 -1.33019,0.27341c-1.62502,-1.07478 -2.66678,-2.12914 -3.75863,-3.74825c-0.97773,-1.44987 -3.29094,-5.40476 -2.24716,-7.33719c0.16603,-0.30739 3.13167,-2.13926 3.59006,-2.42895c3.09816,-1.95803 10.61963,-4.65324 8.88412,-9.2217c-2.81008,-2.86182 -8.75164,-6.16873 -9.14814,-10.62306c-0.1656,-1.86041 1.32021,-3.37575 2.01555,-4.91202c0.87399,-1.93096 1.1092,-4.14844 1.78251,-6.15111l-0.05034,-0.11679c0,0 0,-0.96024 0.96025,-0.96024z" fill="#000000" stroke="none" stroke-width="0.5" stroke-linecap="butt"/><path d="M139.71493,109.65736c0.12417,1.00493 -0.88075,1.12909 -0.88075,1.12909l-0.74005,0.07752c-2.69957,0.80026 -4.65772,2.12964 -6.89942,3.84016c-0.0494,0.0377 -2.15277,1.43377 -2.01738,2.05717c0.07,0.32235 0.63533,0.19851 0.91916,0.36658c0.58085,0.34394 1.11054,0.76783 1.65967,1.16043c2.35288,1.68222 5.3881,1.18683 8.25659,1.32686c0.83939,0.08553 1.76493,-0.12358 2.51815,0.2566c0.52094,0.26293 0.6401,0.97674 0.9294,1.48351c0.61942,1.08506 3.15846,4.88433 2.91873,6.05343c-0.17919,0.87382 -1.26011,1.26413 -1.9238,1.8601c-1.30142,1.16864 -3.35899,3.2804 -4.94502,3.976c-2.41434,1.05888 -7.38847,1.15618 -9.9366,0.64273c-1.50909,-0.30408 -2.89796,-1.04737 -4.34503,-1.61738c-1.06615,1.46845 -2.36201,2.72387 -4.01232,3.50055c-0.11124,0.2327 -0.47154,0.80332 -1.24373,0.54292c-0.95947,-0.32356 -0.63592,-1.28304 -0.63592,-1.28304l0.70013,-0.95308c1.31133,-0.50396 2.34992,-1.42135 3.2198,-2.52347c-0.235,-0.17785 -0.45913,-0.49249 -0.32844,-1.02133c0.24293,-0.98299 1.22591,-0.74006 1.22591,-0.74006c0.08473,0.02103 0.16957,0.04253 0.25451,0.06449c0.61811,-1.03697 1.15159,-2.12714 1.6632,-3.1325c-0.2859,-1.94417 -2.34901,-1.60067 -3.98814,-1.6369c-0.69497,-0.01536 -1.44754,0.01547 -2.23131,0.0644c1.34329,2.27693 2.47767,4.57064 1.3621,7.05519c-0.56185,1.25134 -0.92632,1.44122 -1.87381,2.37927l-0.99759,0.62392c0,0 -0.86142,0.53219 -1.39362,-0.32924c-0.5322,-0.86142 0.32924,-1.39362 0.32924,-1.39362l0.80993,-0.49277c2.46381,-2.43009 1.1546,-5.0344 -0.40208,-7.68759c-2.24815,0.16157 -4.55262,0.26963 -6.36555,-0.25788c-2.71835,-0.79098 -1.38719,-3.70086 -0.93255,-5.5712c1.00423,-4.13124 2.23925,-7.4823 6.06531,-9.68669c0.53858,-0.30603 1.38144,-0.72849 2.27097,-1.238c0.39249,-0.86032 0.85145,-1.69379 1.4276,-2.49052c0.45835,-0.63381 1.26222,-1.01113 1.06239,-1.94222c-0.59434,-2.76922 -3.99331,-5.11715 -5.31531,-7.60081c-1.87231,-3.51752 0.35744,-6.72835 -0.64616,-10.25507c0,0 -0.26929,-0.97609 0.7068,-1.24539c0.29237,-0.08066 0.52132,-0.04959 0.69862,0.03351c0.16823,-0.24889 0.48139,-0.50488 1.0354,-0.38034c0.98791,0.22209 0.76583,1.21 0.76583,1.21c-0.7529,3.33919 -1.43309,7.06025 -0.05761,10.37486c1.31552,3.17011 8.14445,5.68563 5.85339,10.06095c-0.37464,0.71547 -1.03399,1.24824 -1.63338,1.78953c-0.52501,0.4741 -1.14736,0.82779 -1.7219,1.24047c-0.163,0.11709 -0.32702,0.23282 -0.492,0.34721c-0.53378,1.20592 -0.9012,2.4646 -1.32995,3.72789c-1.0786,2.00366 -2.24776,4.14016 -1.74861,6.51958c0.21987,1.04806 0.70477,2.07331 1.27391,3.09117c2.89249,-0.14291 7.94672,-0.67667 9.14584,1.91942c0.29098,0.62998 0.21815,1.37061 0.32722,2.05591c-0.49879,1.1322 -1.04308,2.3032 -1.6758,3.42154c3.97701,1.22704 8.13661,2.78319 12.29594,0.95899c1.58141,-0.69358 3.06055,-2.68733 4.48035,-3.69231c0.38168,-0.27016 1.12406,-0.23792 1.218,-0.696c0.09393,-0.45808 -0.60123,-0.72062 -0.84578,-1.11919c-1.2627,-2.05799 -1.13608,-4.34158 -3.6354,-4.24483c-2.04891,-0.10002 -5.51913,0.4079 -7.406,-0.4012c-0.14593,-0.06258 -3.32515,-2.25633 -3.57194,-2.44913c-0.59121,-0.46187 -1.57493,-0.72983 -1.70556,-1.4686c-0.3711,-2.09866 1.45309,-3.21142 2.72111,-4.21352c2.39698,-1.8943 4.64267,-3.31557 7.56676,-4.18301l1.06747,-0.14581c0,0 1.00493,-0.12417 1.1291,0.88075zM117.45538,111.55158c-3.30356,1.85344 -4.24066,4.86434 -5.10058,8.41066c-0.20312,0.83766 -0.82703,2.22849 -0.75673,3.09928c0.0543,0.67266 1.34976,0.00822 2.02458,0.00133c0.92334,-0.00942 1.84675,-0.00596 2.77016,-0.00283c-0.47209,-0.88981 -0.8616,-1.78114 -1.03814,-2.66935c-0.56675,-2.8514 0.55111,-5.34209 1.86639,-7.7743c0.12932,-0.38626 0.25678,-0.77042 0.38617,-1.15176c-0.05057,0.0291 -0.10118,0.05809 -0.15185,0.08697z" fill="#000000" stroke="none" stroke-width="0.5" stroke-linecap="butt"/><g><path d="M103.00612,149.5433v-26.11876h27.20704v26.11876z" fill="#323232" stroke="none" stroke-width="0" stroke-linecap="butt"/><g stroke="#000000"><path d="M116.50762,125.26937c5.81241,0 10.52432,4.71191 10.52432,10.52433c0,5.81241 -4.71191,10.52432 -10.52432,10.52432c-5.81241,0 -10.52432,-4.71192 -10.52432,-10.52432c0,-5.81241 4.71192,-10.52433 10.52432,-10.52433z" fill="#878787" stroke-width="1" stroke-linecap="butt"/><path d="M108.46101,129.41077l16.24192,-0.10975" fill="none" stroke-width="1.5" stroke-linecap="round"/><path d="M107.1441,132.15433l18.98548,0.10974" fill="none" stroke-width="1.5" stroke-linecap="round"/><path d="M106.15641,134.4589l20.30239,0.43897" fill="none" stroke-width="1.5" stroke-linecap="round"/><path d="M106.20213,136.8184l20.63162,0.21948" fill="none" stroke-width="1.5" stroke-linecap="round"/><path d="M121.43597,126.88753l-9.45475,-0.11819" fill="none" stroke-width="1.5" stroke-linecap="round"/><path d="M108.33298,142.24302l16.24191,0.10975" data-paper-data="{&quot;index&quot;:null}" fill="none" stroke-width="1.5" stroke-linecap="round"/><path d="M126.00155,139.38975l-18.98548,0.10974" data-paper-data="{&quot;index&quot;:null}" fill="none" stroke-width="1.5" stroke-linecap="round"/><path d="M111.85317,144.88448l9.45476,-0.11818" data-paper-data="{&quot;index&quot;:null}" fill="none" stroke-width="1.5" stroke-linecap="round"/></g></g><path d="M117.11856,86.23256c-0.91532,0.07961 -0.65524,18.52325 -0.19498,40.48608c-0.05937,-0.00102 -0.11888,-0.00154 -0.17849,-0.00154c-5.59223,0 -10.12563,4.5334 -10.12563,10.12563c0,5.59223 4.5334,10.12562 10.12563,10.12562c0.20772,0 0.41397,-0.00625 0.61859,-0.01858c0.58249,26.8786 1.03757,52.47776 -0.24511,52.28478c-23.88957,-3.59417 -43.7427,-14.1853 -43.7427,-46.17285c0,-16.72645 10.7687,-27.80528 21.14326,-40.72545c9.46568,-11.78827 18.39969,-26.19511 22.59944,-26.10368z" fill="#ffe400" stroke="#000000" stroke-width="2" stroke-linecap="butt"/><path d="M161.28041,153.06167c0,31.98755 -19.85314,42.57868 -43.7427,46.17285c-1.28268,0.19298 -0.8276,-25.40617 -0.24511,-52.28477c0.20462,0.01233 0.41088,0.01859 0.61859,0.01859c5.59223,0 10.12563,-4.5334 10.12563,-10.12563c0,-5.59223 -4.5334,-10.12563 -10.12563,-10.12563c-0.05962,0 -0.11912,0.00052 -0.17849,0.00154c0.46024,-21.96283 0.72033,-40.40647 -0.19498,-40.48608c4.58938,-0.09992 9.80282,12.20996 19.94572,25.83586c9.31189,12.50951 23.79698,25.68268 23.79698,40.99327z" data-paper-data="{&quot;index&quot;:null}" fill="#ffe400" stroke="#000000" stroke-width="2" stroke-linecap="butt"/><path d="M113.34929,97.55398v-8.50552h9.7206v8.50552z" fill="url(#color-36)" stroke="none" stroke-width="0" stroke-linecap="butt"/><path d="M108.59746,90.75595v-3.83871h18.7337v3.83871z" fill="url(#color-37)" stroke="none" stroke-width="0" stroke-linecap="butt"/><path d="M147.02447,110.466c0,2.20405 -1.78673,3.99077 -3.99076,3.99077c-2.20403,0 -3.99077,-1.78674 -3.99077,-3.99077c0,-2.20404 1.78672,-3.99076 3.99077,-3.99076c2.20403,0 3.99076,1.78672 3.99076,3.99076z" fill="url(#color-38)" stroke="none" stroke-width="0" stroke-linecap="butt"/><path d="M87.71709,105.97522c2.20404,0 3.99077,1.78672 3.99077,3.99076c0,2.20403 -1.78673,3.99077 -3.99077,3.99077c-2.20403,0 -3.99076,-1.78672 -3.99076,-3.99077c0,-2.20404 1.78673,-3.99076 3.99076,-3.99076z" data-paper-data="{&quot;index&quot;:null}" fill="url(#color-39)" stroke="none" stroke-width="0" stroke-linecap="butt"/><path d="M116.90539,105.07077c4.80583,0 5.5717,40.81559 8.70173,61.87594c0.38552,2.59397 -3.89589,15.22804 -8.70173,15.22804c-4.80583,0 -8.70173,-8.58612 -8.31621,-16.57736c1.02597,-21.26694 3.51037,-60.52662 8.31621,-60.52662z" fill="url(#color-40)" stroke="#000000" stroke-width="1" stroke-linecap="butt"/><path d="M102.87539,103.85953c0,-3.42417 6.40233,-6.2 14.3,-6.2c7.89767,0 14.3,2.77583 14.3,6.2c0,2.45198 -3.28292,4.57151 -8.047,5.57741c-0.89715,0.18943 -3.47357,-7.9266 -6.15464,-7.94551c-2.96387,-0.0209 -6.05565,8.03247 -7.14802,7.76359c-4.32955,-1.06568 -7.25034,-3.08269 -7.25034,-5.39548z" fill="#ffffff" stroke="#000000" stroke-width="2" stroke-linecap="butt"/><path d="M116.9474,102.75953c2.72213,0 5.01243,0.17033 4.92884,5.0738c-0.07249,4.25184 -2.20672,5.0738 -4.92884,5.0738c-2.72213,0 -4.88617,-0.60484 -4.92884,-5.0738c-0.04544,-4.75955 2.20672,-5.0738 4.92884,-5.0738z" fill="url(#color-41)" stroke="#000000" stroke-width="1" stroke-linecap="butt"/><path d="M128.50654,24.69308c-4.35615,5.95937 -8.91959,10.03597 -10.19273,9.10534c-1.27314,-0.93063 1.22613,-6.51608 5.58228,-12.47545c4.35615,-5.95937 13.13765,-6.95267 14.41079,-6.02204c1.27314,0.93063 -5.44419,3.43278 -9.80034,9.39215z" fill="#ffe400" stroke="#000000" stroke-width="1" stroke-linecap="butt"/><path d="M120.44718,20.42579c0.75959,7.34255 0.10375,13.42642 -1.4649,13.5887c-1.56864,0.16228 -3.45605,-5.65848 -4.21564,-13.00104c-0.75959,-7.34256 5.09334,-13.96407 6.66198,-14.12635c1.56864,-0.16228 -1.74104,6.19614 -0.98145,13.53869z" fill="#ffe400" stroke="#000000" stroke-width="1" stroke-linecap="butt"/><path d="M113.52007,20.73272c4.46558,5.87781 7.0677,11.41611 5.81198,12.37011c-1.25572,0.95401 -5.89375,-3.03752 -10.35933,-8.91533c-4.46558,-5.87781 -2.90736,-14.57686 -1.65165,-15.53087c1.25572,-0.95401 1.73341,6.19828 6.19899,12.07609z" fill="#ffe400" stroke="#000000" stroke-width="1" stroke-linecap="butt"/><path d="M80.44162,68.67897c0,-18.4409 25.49745,-39.55366 37.55953,-39.82688c11.36543,0.00438 35.89022,21.38599 35.89022,39.82688c0,18.44091 -16.44229,33.39022 -36.72487,33.39022c-20.28258,0 -36.72487,-14.94931 -36.72487,-33.39021z" data-paper-data="{&quot;index&quot;:null}" fill="#696969" stroke="#000000" stroke-width="2" stroke-linecap="butt"/><path d="M124.57814,93.22818l0.10943,-18.3026l2.82448,0.0169l-0.10942,18.3026z" fill="url(#color-42)" stroke="none" stroke-width="0" stroke-linecap="butt"/><path d="M107.00901,93.44872l0.10943,-18.3026l2.82448,0.01689l-0.10943,18.30261z" fill="url(#color-43)" stroke="none" stroke-width="0" stroke-linecap="butt"/><path d="M112.04097,68.41204c0.01529,0.4408 -0.42552,0.4561 -0.42552,0.4561l-0.30499,0.01055c-2.15883,0.09349 -4.53312,0.2342 -5.96261,2.07676c-1.47856,1.85961 -3.38828,1.36508 -4.9342,2.7793c-0.5851,0.53526 -0.92857,1.96408 -1.63016,2.4509c0.33934,0.96458 1.15129,1.61905 2.59991,1.4703c0.05285,-0.00543 1.21365,-0.24044 1.3469,-0.3509c0.66736,-0.55321 0.98127,-3.15974 1.69584,-4.10697c1.06234,-0.53423 2.02781,-0.36664 3.14122,-0.64094c1.57122,-0.38711 2.67954,-1.53254 3.86214,-2.54573l0.30938,-0.27309c0,0 0.3307,-0.29184 0.62255,0.03887c0.29185,0.33071 -0.03886,0.62256 -0.03886,0.62256l-0.31916,0.28157c-1.30482,1.11783 -2.51529,2.30538 -4.24383,2.73676c-0.92684,0.23131 -1.88614,0.03276 -2.76379,0.45353c-0.71883,1.05825 -0.80511,3.27315 -1.62574,4.04077c-1.12267,1.05014 -4.11804,1.02246 -4.89199,-0.33971c-0.21923,-0.38586 -0.39096,-0.77196 -0.51712,-1.15721c-1.9255,0.17391 -3.10404,-1.52271 -4.06103,-2.92822c-0.15515,-0.22786 -1.07823,-1.54301 -1.06887,-1.72875c0.00936,-0.18574 1.05998,-1.40144 1.23725,-1.61255c0.12161,-0.14484 1.16866,-1.40599 1.26649,-1.4576c0.97317,-0.51337 2.54644,0.14136 3.48929,-0.33461c1.05491,-0.53254 1.8746,-3.25998 2.64202,-4.20027c1.13407,-1.38953 3.03624,-1.70343 4.60522,-2.39275c0,0 0.40382,-0.17741 0.58122,0.22641c0.01149,0.02616 0.02056,0.05136 0.02743,0.07564c0.05649,-0.00902 0.1123,-0.01841 0.16735,-0.02832c0,0 0.43411,-0.07803 0.51213,0.35609c0.07801,0.43411 -0.35609,0.51213 -0.35609,0.51213c-1.03456,0.18587 -2.82728,0.11189 -3.56468,1.01413c-1.56657,1.91674 0.33707,4.86776 -1.29272,6.63176c-0.65749,0.71164 -1.81552,1.03341 -2.6807,1.4335c-0.57303,0.90063 -0.90975,2.09221 -0.86972,3.15255c0.52101,-0.72276 1.32295,-2.35209 1.90951,-2.65767c1.7416,-0.90734 2.83919,-0.41601 4.15207,-2.07017c1.6542,-2.04264 4.14912,-2.30257 6.61515,-2.40936l0.31259,-0.01086c0,0 0.4408,-0.01529 0.45608,0.42551zM99.27994,69.10895c-1.89542,1.03347 -2.97893,-0.2502 -4.53607,1.60425c-0.32167,0.38308 -1.0066,0.5901 -1.03179,1.08967c-0.02517,0.49958 0.63549,0.77442 0.91702,1.18789c0.86472,1.27 1.5186,2.45656 3.11629,2.50687c-0.20552,-1.43676 0.20812,-2.84926 1.13939,-4.17981c0.79074,-0.40894 1.98492,-0.72178 2.60922,-1.36348c1.15689,-1.18917 0.29617,-3.40824 0.63385,-5.21583c-0.8771,1.11716 -1.59953,3.68977 -2.84792,4.37045z" fill="#000000" stroke="none" stroke-width="0.5" stroke-linecap="butt"/><path d="M120.48592,67.39844l0.31258,0.01086c2.46603,0.1068 4.96095,0.36671 6.61515,2.40935c1.3129,1.65417 2.41048,1.16286 4.15207,2.07018c0.58657,0.30558 1.3885,1.93489 1.90951,2.65766c0.04003,-1.06034 -0.2967,-2.25191 -0.86973,-3.15255c-0.86518,-0.40009 -2.0232,-0.72186 -2.68069,-1.4335c-1.62979,-1.76399 0.27384,-4.715 -1.29273,-6.63174c-0.7374,-0.90224 -2.53012,-0.82827 -3.56468,-1.01414c0,0 -0.43412,-0.07802 -0.35609,-0.51213c0.07801,-0.43411 0.51214,-0.35609 0.51214,-0.35609c0.05505,0.0099 0.11086,0.01931 0.16735,0.02832c0.00688,-0.02428 0.01593,-0.04947 0.02742,-0.07564c0.17741,-0.40381 0.58122,-0.22641 0.58122,-0.22641c1.56898,0.68931 3.47115,1.00321 4.60522,2.39275c0.76742,0.9403 1.58711,3.66773 2.64202,4.20027c0.94285,0.47598 2.51612,-0.17876 3.48929,0.33461c0.09784,0.05161 1.14489,1.31276 1.2665,1.4576c0.17726,0.21111 1.22788,1.42681 1.23724,1.61255c0.00936,0.18574 -0.91372,1.50088 -1.06887,1.72875c-0.95699,1.40552 -2.13554,3.10213 -4.06104,2.92822c-0.12615,0.38524 -0.29788,0.77135 -0.51711,1.15721c-0.77395,1.36219 -3.76933,1.38985 -4.89199,0.33971c-0.82063,-0.76762 -0.9069,-2.98252 -1.62574,-4.04077c-0.87764,-0.42077 -1.83695,-0.22222 -2.76379,-0.45353c-1.72853,-0.43138 -2.93899,-1.61893 -4.24383,-2.73677l-0.31914,-0.28158c0,0 -0.33071,-0.29184 -0.03886,-0.62255c0.29185,-0.33071 0.62255,-0.03887 0.62255,-0.03887l0.30938,0.27309c1.18261,1.01319 2.29093,2.15863 3.86214,2.54573c1.11341,0.27432 2.07889,0.10671 3.14122,0.64094c0.71457,0.94723 1.02848,3.55377 1.69584,4.10697c0.13326,0.11046 1.29406,0.34547 1.3469,0.3509c1.44862,0.14875 2.26056,-0.50573 2.5999,-1.4703c-0.70159,-0.48682 -1.04505,-1.91565 -1.63015,-2.45089c-1.54592,-1.41422 -3.45563,-0.9197 -4.9342,-2.77931c-1.42949,-1.84256 -3.80379,-1.98327 -5.96262,-2.07676l-0.30498,-0.01056c0,0 -0.4408,-0.01529 -0.42552,-0.45609c0.01529,-0.4408 0.45609,-0.42551 0.45609,-0.42551zM129.94294,64.15041c0.33768,1.8076 -0.52303,4.02666 0.63386,5.21582c0.6243,0.64171 1.81848,0.95454 2.60922,1.36348c0.93126,1.33055 1.3449,2.74308 1.13939,4.17983c1.59769,-0.05031 2.25156,-1.23689 3.11629,-2.50688c0.28152,-0.41348 0.9422,-0.6883 0.91702,-1.18789c-0.02517,-0.49958 -0.71012,-0.7066 -1.03179,-1.08969c-1.55714,-1.85443 -2.64064,-0.57077 -4.53606,-1.60424c-1.24838,-0.68068 -1.97082,-3.25328 -2.84792,-4.37044z" data-paper-data="{&quot;index&quot;:null}" fill="#000000" stroke="none" stroke-width="0.5" stroke-linecap="butt"/><path d="M107.99617,65.67148v-7.56974h16.15629v7.56974z" fill="url(#color-44)" stroke="#000000" stroke-width="0" stroke-linecap="butt"/><path d="M110.14281,77.47683v-14.57456h14.83749v14.57456z" fill="url(#color-45)" stroke="none" stroke-width="0" stroke-linecap="butt"/><path d="M109.67105,77.20916l-4.39687,-17.76695l2.74181,-0.67853l4.39688,17.76696z" fill="url(#color-46)" stroke="none" stroke-width="0" stroke-linecap="butt"/><path d="M122.81779,77.09555l4.39688,-17.76696l2.74181,0.67853l-4.39688,17.76697z" data-paper-data="{&quot;index&quot;:null}" fill="url(#color-47)" stroke="none" stroke-width="0" stroke-linecap="butt"/><path d="M133.98334,59.87388c0,3.19477 -2.67081,5.78462 -5.96541,5.78462c-3.29461,0 -5.96539,-2.58986 -5.96539,-5.78462c0,-3.19477 2.67079,-5.78464 5.96539,-5.78464c3.2946,0 5.96541,2.58988 5.96541,5.78464z" data-paper-data="{&quot;index&quot;:null}" fill="#ffffff" stroke="#000000" stroke-width="2" stroke-linecap="butt"/><path d="M130.91027,59.68254c0,1.69137 -1.31517,3.06251 -2.93752,3.06251c-1.62234,0 -2.93751,-1.37113 -2.93751,-3.06251c0,-1.69137 1.31517,-3.06252 2.93751,-3.06252c1.62234,0 2.93752,1.37114 2.93752,3.06252z" data-paper-data="{&quot;index&quot;:null}" fill="#000000" stroke="none" stroke-width="0" stroke-linecap="butt"/><path d="M106.86635,78.2677v-4.1803h21.06232v4.1803z" fill="url(#color-48)" stroke="none" stroke-width="0" stroke-linecap="butt"/><path d="M108.36881,53.9386c3.29461,0 5.9654,2.58987 5.9654,5.78463c0,3.19477 -2.67081,5.78463 -5.9654,5.78463c-3.29461,0 -5.96541,-2.58987 -5.96541,-5.78463c0,-3.19477 2.67079,-5.78463 5.96541,-5.78463z" fill="#ffffff" stroke="#000000" stroke-width="2" stroke-linecap="butt"/><path d="M108.414,56.46938c1.62233,0 2.93751,1.37113 2.93751,3.06251c0,1.69137 -1.31518,3.06251 -2.93751,3.06251c-1.62233,0 -2.93751,-1.37114 -2.93751,-3.06251c0,-1.69137 1.31516,-3.06251 2.93751,-3.06251z" fill="#000000" stroke="none" stroke-width="0" stroke-linecap="butt"/><path d="M108.43889,53.18372c3.29906,0.0615 5.89031,1.61923 5.78774,3.47926c-0.05186,0.94029 -2.69194,-1.40019 -5.71072,-1.46686c-2.95283,-0.06521 -6.28695,2.16388 -6.23623,1.24414c0.10258,-1.86003 2.86014,-3.31803 6.15921,-3.25652z" fill="#e000ff" stroke="#000000" stroke-width="1" stroke-linecap="butt"/><path d="M128.28685,53.88931c3.29906,0.05785 5.89032,1.52281 5.78775,3.27208c-0.05186,0.8843 -2.69195,-1.31681 -5.71073,-1.37951c-2.95283,-0.06133 -6.28695,2.03503 -6.23623,1.17005c0.10258,-1.74928 2.86014,-3.12045 6.1592,-3.06261z" fill="#e000ff" stroke="#000000" stroke-width="1" stroke-linecap="butt"/><path d="M110.73062,90.07206c0.26506,0 6.11333,-0.01559 6.37025,-0.0459c-0.17319,7.31911 -0.43554,12.26358 -0.81649,12.26358c-18.06871,0 -32.97581,-12.76739 -35.13338,-29.25903c0.01412,0.01732 0.02826,0.03463 0.04243,0.05192c2.12443,2.59176 4.42941,5.20929 11.72681,9.03713c7.35982,2.22254 12.62951,2.27106 16.19509,2.21693c-0.02396,3.09334 0.36929,5.73537 1.6153,5.73537z" data-paper-data="{&quot;index&quot;:null}" fill="#ffe400" stroke="#000000" stroke-width="2" stroke-linecap="butt"/><path d="M125.52448,84.3367c3.56558,0.05413 8.83526,0.00561 16.19508,-2.21693c7.29741,-3.82784 9.60239,-6.44537 11.72681,-9.03713c0.01418,-0.0173 0.02832,-0.0346 0.04243,-0.05192c-2.15757,16.49164 -17.06466,29.25903 -35.13338,29.25903c-0.38095,0 -0.64331,-4.94447 -0.8165,-12.26358c0.25692,0.03031 6.10519,0.0459 6.37025,0.0459c1.24601,0 1.63926,-2.64203 1.6153,-5.73537z" data-paper-data="{&quot;index&quot;:null}" fill="#ffe400" stroke="#000000" stroke-width="2" stroke-linecap="butt"/><g stroke="#000000" stroke-linecap="butt"><path d="M117.78839,77.10541c22.48318,0.07927 3.32687,24.58943 0,24.58943c-3.49641,0 -25.20512,-24.67829 0,-24.58943z" fill="#ffe400" stroke-width="2"/><path d="M117.68574,78.20801c15.02247,0.05296 2.22289,16.42978 0,16.42978c-2.33618,0 -16.84116,-16.48916 0,-16.42978z" fill="#ff0700" stroke-width="1"/></g><g fill="#ffe400" stroke="#000000" stroke-width="2" stroke-linecap="butt"><path d="M81.10322,68.67897c0,-18.4409 24.57878,-39.55366 36.20626,-39.82688c0.22382,-0.13063 0.41945,26.63786 0.21517,47.84052c-0.32189,-0.04813 -0.65136,-0.07308 -0.98667,-0.07308c-3.55505,0 -10.51757,0.06757 -10.58665,6.9094c-3.48771,0.06166 -3.48971,0.31254 -13.27162,-2.51574c-8.50101,-2.90054 -11.57647,-12.04615 -11.57647,-12.33422zM108.61957,66.2545c3.65391,0 6.61599,-2.96209 6.61599,-6.61599c0,-3.6539 -2.96209,-6.61598 -6.61599,-6.61598c-3.65391,0 -6.61598,2.96208 -6.61598,6.61598c0,3.6539 2.96208,6.61599 6.61598,6.61599z" data-paper-data="{&quot;index&quot;:null}"/><path d="M117.00331,64.12274c0.87604,0 1.9346,23.73619 0,23.73619c-3.25447,0 -3.91647,-6.50309 -5.90521,-8.73545c-1.6731,-1.87805 -4.94502,-1.63353 -4.94502,-4.32695c0,-5.89497 4.85782,-10.67379 10.85023,-10.67379z"/></g><g data-paper-data="{&quot;index&quot;:null}" fill="#ffe400" stroke="#000000" stroke-width="2" stroke-linecap="butt"><path d="M154.361,68.89951c0,0.28807 -3.05745,9.43368 -11.50867,12.33423c-9.72461,2.82828 -10.60357,3.45952 -14.07085,3.39786c-0.06867,-6.84182 -6.11346,-7.79153 -9.64768,-7.79153c-0.33333,0 -0.66088,0.02495 -0.98089,0.07308c-0.20309,-21.20266 -0.0086,-47.97115 0.21391,-47.84052c11.55937,0.27322 35.99418,21.38598 35.99418,39.82688zM134.67927,59.63851c0,-3.6539 -2.94473,-6.61598 -6.57724,-6.61598c-3.6325,0 -6.57724,2.96208 -6.57724,6.61598c0,3.6539 2.94473,6.61599 6.57724,6.61599c3.6325,0 6.57724,-2.96209 6.57724,-6.61599z" data-paper-data="{&quot;index&quot;:null}"/><path d="M128.80014,75.39651c0,2.69342 -3.44221,2.4489 -5.1055,4.32695c-1.97708,2.23236 -2.04575,8.13545 -5.28116,8.13545c-1.92327,0 -1.27092,-23.73619 -0.4,-23.73619c5.95731,0 10.78666,5.37882 10.78666,11.27379z"/></g><path d="M239.24926,322.69503v-258.32865h199.6997v258.32865z" fill="none" stroke="#42ff00" stroke-width="4" stroke-linecap="butt"/><text transform="translate(245.76578,85.42396) scale(0.37361,0.37361)" font-size="40" xml:space="preserve" fill="#42ff00" fill-rule="nonzero" stroke="none" stroke-width="1" stroke-linecap="butt" stroke-linejoin="miter" stroke-miterlimit="10" stroke-dasharray="" stroke-dashoffset="0" font-family="Pixel" font-weight="normal" text-anchor="start" style="mix-blend-mode: normal"><tspan x="0" dy="0">NAME: FUNTIME BIG BIRD</tspan></text><text transform="translate(245.26578,104.00395) scale(0.40362,0.40362)" font-size="40" xml:space="preserve" fill="#42ff00" fill-rule="nonzero" stroke="none" stroke-width="1" stroke-linecap="butt" stroke-linejoin="miter" stroke-miterlimit="10" stroke-dasharray="" stroke-dashoffset="0" font-family="Pixel" font-weight="normal" text-anchor="start" style="mix-blend-mode: normal"><tspan x="0" dy="0">HEIGHT: 6'8"</tspan></text><text transform="translate(245.26578,121.50395) scale(0.40362,0.40362)" font-size="40" xml:space="preserve" fill="#42ff00" fill-rule="nonzero" stroke="none" stroke-width="1" stroke-linecap="butt" stroke-linejoin="miter" stroke-miterlimit="10" stroke-dasharray="" stroke-dashoffset="0" font-family="Pixel" font-weight="normal" text-anchor="start" style="mix-blend-mode: normal"><tspan x="0" dy="0">BUILT IN: 2017</tspan></text><text transform="translate(243.76578,143.00394) scale(0.40362,0.40362)" font-size="40" xml:space="preserve" fill="#42ff00" fill-rule="nonzero" stroke="none" stroke-width="1" stroke-linecap="butt" stroke-linejoin="miter" stroke-miterlimit="10" stroke-dasharray="" stroke-dashoffset="0" font-family="Pixel" font-weight="normal" text-anchor="start" style="mix-blend-mode: normal"><tspan x="0" dy="0">NOTE FROM BUILDER:</tspan></text><text transform="translate(245.76578,158.94722) scale(0.29911,0.29911)" font-size="40" xml:space="preserve" fill="#44ff00" fill-rule="nonzero" stroke="none" stroke-width="1" stroke-linecap="butt" stroke-linejoin="miter" stroke-miterlimit="10" stroke-dasharray="" stroke-dashoffset="0" font-family="Pixel" font-weight="normal" text-anchor="start" style="mix-blend-mode: normal"><tspan x="0" dy="0">"UNLIKE THE OTHER ROBOTS,</tspan><tspan x="0" dy="46.150000000000006px">BIG BIRD'S AI CAN'T HANDLE</tspan><tspan x="0" dy="46.150000000000006px">BRIGHT LIGHTS EMITTED</tspan><tspan x="0" dy="46.150000000000006px">THROUGH HIS EYES."</tspan></text><text transform="translate(166.46821,351.30544) scale(0.33048,0.33048)" font-size="40" xml:space="preserve" fill="#44ff00" fill-rule="nonzero" stroke="none" stroke-width="1" stroke-linecap="butt" stroke-linejoin="miter" stroke-miterlimit="10" stroke-dasharray="" stroke-dashoffset="0" font-family="Pixel" font-weight="normal" text-anchor="start" style="mix-blend-mode: normal"><tspan x="0" dy="0">CLICK TO CONTINUE &gt;</tspan></text><g stroke-linecap="butt"><path d="M41.71897,199.02302c-0.29366,0.63521 -1.04666,0.91209 -1.68186,0.61845c-0.6352,-0.29364 -0.91208,-1.04666 -0.61843,-1.68186c0.29366,-0.63521 1.04665,-0.9121 1.68186,-0.61845c0.63521,0.29364 0.91211,1.04667 0.61846,1.68186z" data-paper-data="{&quot;index&quot;:null}" fill="url(#color-49)" stroke="none" stroke-width="0"/><path d="M33.75196,201.5707c-0.63521,-0.29364 -0.91209,-1.04666 -0.61846,-1.68186c0.29365,-0.63521 1.04666,-0.9121 1.68186,-0.61844c0.63521,0.29364 0.91211,1.04667 0.61846,1.68186c-0.29366,0.63521 -1.04667,0.91209 -1.68186,0.61844z" data-paper-data="{&quot;index&quot;:null}" fill="url(#color-50)" stroke="none" stroke-width="0"/><path d="M38.93049,210.67079c0.46485,-0.73696 1.43912,-0.95759 2.17607,-0.49274c0.73697,0.46486 0.9576,1.4391 0.49274,2.17606c-0.46485,0.73696 -1.43914,0.9576 -2.1761,0.49275c-0.73695,-0.46484 -0.95758,-1.4391 -0.49272,-2.17607z" data-paper-data="{&quot;index&quot;:null}" fill="url(#color-51)" stroke="none" stroke-width="0"/><g data-paper-data="{&quot;index&quot;:null}" stroke-width="1"><path d="M43.10893,210.55659c0,0 3.15699,3.33857 4.3358,5.15241c1.11258,1.71191 2.41095,5.53283 2.41095,5.53283l-4.85904,3.15781c0,0 -3.05047,-2.87078 -4.18202,-4.61193c-1.1628,-1.78922 -2.98119,-5.80263 -2.98119,-5.80263z" fill="#696969" stroke="#000000"/><path d="M41.48055,211.68482l6.83385,10.51546l-1.85106,1.20299l-6.83383,-10.51546z" fill="url(#color-52)" stroke="none"/><path d="M41.64661,211.56449c0,0 -0.07438,-0.29984 0.20352,-0.34348c0.27791,-0.04363 0.35228,0.25621 0.35228,0.25621l0.12787,0.53466c-0.05849,0.66173 -0.3114,1.18103 -0.45949,1.80856c-0.08556,0.36245 -0.05322,0.75168 -0.117,1.11786c-0.05714,0.32806 -0.2475,0.64081 -0.18614,1.00299c0.14337,0.84643 1.01291,1.64993 1.76449,1.69268c0.48056,0.0598 0.93892,0.18443 1.41541,0.27691c0.42718,0.08294 0.88465,-0.02785 1.28591,0.26853c0.39677,0.29306 0.59374,1.02502 0.69146,1.44998c0.26643,1.15857 -0.14876,2.28606 0.08898,3.44642c0,0 0.05864,0.30181 -0.22298,0.32855c-0.28167,0.02673 -0.34031,-0.2751 -0.34031,-0.2751c-0.21552,-1.15658 0.17237,-2.29172 -0.08638,-3.43374c-0.04612,-0.20353 -0.19781,-0.86928 -0.43064,-1.0393c-0.14512,-0.10597 -0.57482,-0.10109 -0.67113,-0.10994c-0.57173,-0.05243 -1.14019,-0.23698 -1.71536,-0.30882c-1.02951,-0.07732 -2.14306,-1.11598 -2.3457,-2.25892c-0.08044,-0.45375 0.11484,-0.81025 0.18673,-1.21996c0.06571,-0.37452 0.03465,-0.76952 0.12186,-1.14178c0.13126,-0.56023 0.379,-1.04426 0.44675,-1.62756l-0.11012,-0.42476z" fill="#000000" stroke="none"/><path d="M43.10893,210.55659c0,0 3.15699,3.33857 4.3358,5.15241c1.11258,1.71191 2.41095,5.53283 2.41095,5.53283l-4.85904,3.15781c0,0 -3.05047,-2.87078 -4.18202,-4.61193c-1.1628,-1.78922 -2.98119,-5.80263 -2.98119,-5.80263z" fill="#ffe400" stroke="#000000"/></g><g data-paper-data="{&quot;index&quot;:null}" stroke-width="1"><path d="M41.11953,197.70888c0,0 1.41913,4.37023 1.70559,6.51441c0.27037,2.0237 -0.19632,6.0321 -0.19632,6.0321l-5.74396,0.76746c0,0 -1.52357,-3.90202 -1.79857,-5.96026c-0.28259,-2.11507 -0.20302,-6.52048 -0.20302,-6.52048z" fill="#696969" stroke="#000000"/><path d="M39.16456,198.02928l1.66082,12.43055l-2.18815,0.29236l-1.66081,-12.43053z" fill="url(#color-53)" stroke="none"/><path d="M39.36623,197.99187c0,0 0.06147,-0.30274 0.33122,-0.2229c0.26974,0.07985 0.20827,0.3826 0.20827,0.3826l-0.11392,0.53781c-0.33677,0.57264 -0.78803,0.93315 -1.19106,1.43645c-0.23277,0.29066 -0.3706,0.65613 -0.58533,0.95953c-0.19236,0.27184 -0.49851,0.47263 -0.59848,0.82611c-0.23366,0.82606 0.20697,1.92493 0.86751,2.28603c0.40843,0.26026 0.76897,0.56949 1.15968,0.85746c0.3503,0.25821 0.811,0.35443 1.04628,0.79431c0.23263,0.43497 0.09647,1.18067 0.0024,1.60643c-0.25646,1.16079 -1.11526,2.00108 -1.39841,3.15121c0,0 -0.07654,0.29779 -0.34239,0.20108c-0.26585,-0.09671 -0.18934,-0.39449 -0.18934,-0.39449c0.3016,-1.1372 1.13901,-1.99611 1.39532,-3.13866c0.04569,-0.20362 0.19432,-0.87009 0.05697,-1.12356c-0.08561,-0.158 -0.47585,-0.33798 -0.55904,-0.38729c-0.49392,-0.2927 -0.92823,-0.70334 -1.41691,-1.01501c-0.89675,-0.51156 -1.45689,-1.92758 -1.14953,-3.04691c0.12204,-0.44436 0.45137,-0.68258 0.69211,-1.0218c0.22005,-0.3101 0.36148,-0.68022 0.59997,-0.97904c0.35896,-0.44973 0.79045,-0.78062 1.1019,-1.27843l0.08277,-0.43094z" fill="#000000" stroke="none"/><path d="M41.11953,197.70888c0,0 1.41913,4.37023 1.70559,6.51441c0.27037,2.0237 -0.19632,6.0321 -0.19632,6.0321l-5.74396,0.76746c0,0 -1.52357,-3.90202 -1.79857,-5.96026c-0.28259,-2.11507 -0.20302,-6.52048 -0.20302,-6.52048z" fill="#ffe400" stroke="#000000"/></g><path d="M30.59002,210.18826c0.57668,-0.65318 1.57369,-0.71522 2.22686,-0.13853c0.65318,0.57669 0.71523,1.57368 0.13854,2.22685c-0.57668,0.65318 -1.57371,0.71523 -2.22689,0.13854c-0.65316,-0.57667 -0.71521,-1.57368 -0.13852,-2.22686z" data-paper-data="{&quot;index&quot;:null}" fill="url(#color-54)" stroke="none" stroke-width="0"/><g data-paper-data="{&quot;index&quot;:null}" stroke-width="1"><path d="M34.73298,210.7435c0,0 2.58269,3.80031 3.45637,5.77927c0.82461,1.86775 1.49547,5.8471 1.49547,5.8471l-5.30136,2.34044c0,0 -2.55231,-3.32151 -3.39097,-5.22116c-0.86182,-1.95209 -2.01524,-6.20458 -2.01524,-6.20458z" fill="#696969" stroke="#000000"/><path d="M32.94518,211.5969l5.06497,11.47269l-2.01957,0.89161l-5.06494,-11.47269z" fill="url(#color-55)" stroke="none"/><path d="M33.12834,211.50467c0,0 -0.02549,-0.30788 0.25581,-0.30653c0.2813,0.00136 0.30679,0.30923 0.30679,0.30923l0.04076,0.54823c-0.16352,0.64387 -0.4962,1.11606 -0.7427,1.71185c-0.1424,0.34411 -0.1727,0.73351 -0.2942,1.08478c-0.10885,0.31471 -0.34676,0.59301 -0.34408,0.96033c0.00622,0.85847 0.73613,1.79064 1.4712,1.95299c0.46482,0.13586 0.89737,0.33216 1.35294,0.49962c0.40843,0.15016 0.87772,0.11393 1.22644,0.47064c0.34482,0.35272 0.42225,1.10676 0.45077,1.54187c0.0778,1.18627 -0.5123,2.23288 -0.4631,3.41632c0,0 0.00964,0.3073 -0.27264,0.28868c-0.28232,-0.01865 -0.29196,-0.32596 -0.29196,-0.32596c-0.02785,-1.17616 0.53651,-2.23469 0.46365,-3.40339c-0.01299,-0.20829 -0.0563,-0.88972 -0.25895,-1.09478c-0.12631,-0.12781 -0.55127,-0.19168 -0.64492,-0.21581c-0.556,-0.14315 -1.08765,-0.4162 -1.64393,-0.57907c-1.00391,-0.2409 -1.9371,-1.44421 -1.95442,-2.60484c-0.00687,-0.46077 0.24289,-0.78147 0.37935,-1.17442c0.12473,-0.35919 0.15722,-0.75409 0.30282,-1.10762c0.21913,-0.53204 0.54106,-0.97024 0.70118,-1.53521l-0.0408,-0.4369z" fill="#000000" stroke="none"/><path d="M34.73298,210.7435c0,0 2.58269,3.80031 3.45637,5.77927c0.82461,1.86775 1.49547,5.8471 1.49547,5.8471l-5.30136,2.34044c0,0 -2.55231,-3.32151 -3.39097,-5.22116c-0.86182,-1.95209 -2.01524,-6.20458 -2.01524,-6.20458z" fill="#ffe400" stroke="#000000"/></g><g data-paper-data="{&quot;index&quot;:null}" stroke-width="1"><path d="M34.823,197.74298c0,0 0.70226,4.54089 0.64227,6.70329c-0.05661,2.0409 -1.15809,5.92315 -1.15809,5.92315l-5.79278,-0.16064c0,0 -0.8802,-4.0954 -0.82263,-6.17113c0.05916,-2.13304 0.84196,-6.46908 0.84196,-6.46908z" fill="#696969" stroke="#000000"/><path d="M32.84195,197.74674l-0.34769,12.53618l-2.20675,-0.0612l0.34769,-12.53616z" fill="url(#color-56)" stroke="none"/><path d="M33.04701,197.74206c0,0 0.10908,-0.28902 0.36259,-0.16709c0.2535,0.12195 0.14443,0.41097 0.14443,0.41097l-0.19843,0.51268c-0.42399,0.51144 -0.92706,0.79517 -1.40538,1.22757c-0.27624,0.24972 -0.47073,0.58845 -0.73119,0.85362c-0.23334,0.23759 -0.56766,0.38686 -0.72285,0.71982c-0.36271,0.77809 -0.10341,1.93326 0.49091,2.39531c0.36157,0.32221 0.66804,0.68509 1.00769,1.03182c0.30452,0.31089 0.74391,0.47951 0.90584,0.95135c0.1601,0.46657 -0.09351,1.1809 -0.25443,1.58616c-0.43872,1.10487 -1.42081,1.79706 -1.88418,2.88713c0,0 -0.12316,0.28172 -0.37013,0.14375c-0.24697,-0.13796 -0.12385,-0.41969 -0.12385,-0.41969c0.47951,-1.07437 1.44346,-1.78835 1.87912,-2.87524c0.07765,-0.1937 0.33091,-0.82784 0.23585,-1.1c-0.05925,-0.16966 -0.41571,-0.40971 -0.48994,-0.47168c-0.44078,-0.3679 -0.80385,-0.84267 -1.23643,-1.22846c-0.80344,-0.64834 -1.13001,-2.13569 -0.64767,-3.19149c0.1915,-0.41914 0.55468,-0.60164 0.84656,-0.89802c0.26679,-0.27093 0.46557,-0.61369 0.74877,-0.87054c0.42623,-0.38656 0.90507,-0.64422 1.2921,-1.08584l0.15059,-0.41217z" fill="#000000" stroke="none"/><path d="M34.823,197.74298c0,0 0.70226,4.54089 0.64227,6.70329c-0.05661,2.0409 -1.15809,5.92315 -1.15809,5.92315l-5.79278,-0.16064c0,0 -0.8802,-4.0954 -0.82263,-6.17113c0.05916,-2.13304 0.84196,-6.46908 0.84196,-6.46908z" fill="#ffe400" stroke="#000000"/></g><path d="M44.08386,191.57509c0.07537,0.69575 -0.42753,1.32086 -1.12326,1.39622c-0.69575,0.07537 -1.32084,-0.42753 -1.39622,-1.12327c-0.07537,-0.69575 0.42752,-1.32084 1.12328,-1.39623c0.69575,-0.07537 1.32084,0.42753 1.39622,1.12327z" data-paper-data="{&quot;index&quot;:null}" fill="url(#color-57)" stroke="none" stroke-width="0"/><path d="M24.52111,195.13507c-0.42346,-8.00645 4.07703,-14.75321 10.05213,-15.06922c5.97513,-0.31603 11.16218,5.9183 11.58566,13.92477c0.42348,8.00647 -3.5402,9.74498 -9.51531,10.06103c-5.97512,0.31604 -11.699,-0.91008 -12.12247,-8.91657z" data-paper-data="{&quot;index&quot;:null}" fill="#ffe400" stroke="#000000" stroke-width="1"/><path d="M51.35962,192.38046c0.69756,0.05605 1.21758,0.667 1.16152,1.36455c-0.05607,0.69755 -0.66701,1.21759 -1.36455,1.16154c-0.69756,-0.05605 -1.21757,-0.66699 -1.16152,-1.36454c0.05607,-0.69755 0.66702,-1.21759 1.36456,-1.16154z" data-paper-data="{&quot;index&quot;:null}" fill="url(#color-58)" stroke="none" stroke-width="0"/><g data-paper-data="{&quot;index&quot;:null}" stroke-width="1"><path d="M54.01831,193.27118c0,0 1.70425,3.10139 2.29446,4.71036c0.57437,1.56574 0.95087,4.90892 0.95087,4.90892l-4.36955,1.60288c0,0 -1.8309,-2.67444 -2.39563,-4.21389c-0.59834,-1.63112 -1.22424,-5.26801 -1.22424,-5.26801z" fill="#696969" stroke="#000000"/><path d="M52.44813,193.89734l3.46877,9.45616l-1.66459,0.61062l-3.46877,-9.45616z" fill="url(#color-59)" stroke="none"/><path d="M50.62626,194.55679l0.22001,0.27533c0.40756,0.23732 0.83802,0.31116 1.26132,0.49654c0.28128,0.12319 0.52022,0.33333 0.79261,0.47145c0.29798,0.15107 0.62116,0.1972 0.87409,0.46741c0.6371,0.68058 0.7686,1.89653 0.32255,2.59553c-0.23078,0.40431 -0.38587,0.85857 -0.62745,1.25133c-0.04068,0.06616 -0.25074,0.34003 -0.25249,0.48435c-0.00281,0.23154 0.35207,0.6496 0.46072,0.77724c0.60951,0.71621 1.52594,1.01348 2.16562,1.70893c0,0 0.16576,0.18303 0.01298,0.3512c-0.15279,0.16816 -0.31856,-0.01485 -0.31856,-0.01485c-0.63143,-0.71153 -1.55606,-0.98757 -2.17251,-1.71667c-0.22611,-0.26744 -0.6018,-0.7465 -0.59911,-1.14266c0.0027,-0.40064 0.29416,-0.64137 0.44656,-0.95591c0.16998,-0.3508 0.31058,-0.70544 0.50355,-1.04317c0.33442,-0.50371 0.23661,-1.44953 -0.23841,-1.94928c-0.20328,-0.21383 -0.49599,-0.24205 -0.73437,-0.36331c-0.26608,-0.13535 -0.50072,-0.34352 -0.77488,-0.46306c-0.47469,-0.20696 -0.93028,-0.29444 -1.38381,-0.57547l-0.28212,-0.33964c0,0 -0.15692,-0.19218 0.00494,-0.34982c0.16189,-0.15763 0.31881,0.03455 0.31881,0.03455z" fill="#000000" stroke="none"/><path d="M54.01831,193.27118c0,0 1.70425,3.10139 2.29446,4.71036c0.57437,1.56574 0.95087,4.90892 0.95087,4.90892l-4.36955,1.60288c0,0 -1.8309,-2.67444 -2.39563,-4.21389c-0.59834,-1.63112 -1.22424,-5.26801 -1.22424,-5.26801z" fill="#ffe400" stroke="#000000"/></g><path d="M49.87561,187.31067c0.42699,0.55445 0.32367,1.35004 -0.23076,1.77704c-0.55443,0.42699 -1.35005,0.3237 -1.77704,-0.23075c-0.42698,-0.55443 -0.32366,-1.35005 0.23077,-1.77705c0.55443,-0.42699 1.35005,-0.3237 1.77704,0.23075z" data-paper-data="{&quot;index&quot;:null}" fill="url(#color-60)" stroke="none" stroke-width="0"/><g data-paper-data="{&quot;index&quot;:null}" stroke-width="1"><path d="M45.51206,183.9388c0,0 2.87012,2.07012 4.09362,3.27022c1.19064,1.16784 2.96521,4.02608 2.96521,4.02608l-3.25909,3.3227c0,0 -2.80134,-1.63012 -3.97198,-2.77835c-1.24033,-1.2166 -3.3662,-4.23314 -3.3662,-4.23314z" fill="#696969" stroke="#000000"/><path d="M44.36246,185.17815l7.19066,7.05306l-1.24156,1.26579l-7.19065,-7.05306z" fill="url(#color-61)" stroke="none"/><path d="M42.99975,186.55548l0.31686,0.15428c0.46999,0.03949 0.89045,-0.07852 1.35237,-0.0927c0.30695,-0.00943 0.61292,0.0779 0.91824,0.08575c0.33395,0.00859 0.64569,-0.08841 0.99008,0.04712c0.8675,0.3414 1.508,1.38329 1.40503,2.20604c-0.03497,0.4642 0.01986,0.9411 -0.02981,1.39953c-0.00836,0.07721 -0.08059,0.41472 -0.02024,0.54583c0.09681,0.21035 0.59676,0.4357 0.74965,0.50436c0.85784,0.38539 1.81321,0.26068 2.6894,0.61439c0,0 0.22825,0.0942 0.16241,0.31166c-0.06584,0.21746 -0.2941,0.12328 -0.2941,0.12328c-0.87566,-0.37179 -1.8293,-0.22436 -2.69896,-0.61845c-0.31899,-0.14453 -0.86388,-0.41608 -1.03145,-0.77506c-0.16946,-0.36306 -0.0095,-0.70552 -0.00678,-1.05502c0.00303,-0.38983 -0.02216,-0.77047 0.00721,-1.15832c0.08595,-0.59848 -0.40822,-1.41085 -1.05174,-1.65841c-0.27538,-0.10594 -0.55187,-0.00583 -0.81922,-0.01306c-0.29841,-0.00807 -0.59968,-0.09545 -0.89863,-0.08578c-0.51758,0.01673 -0.96663,0.13321 -1.49688,0.07397l-0.40056,-0.18573c0,0 -0.22421,-0.10626 -0.14564,-0.3181c0.07856,-0.21182 0.30277,-0.10555 0.30277,-0.10555z" fill="#000000" stroke="none"/><path d="M45.51206,183.9388c0,0 2.87012,2.07012 4.09362,3.27022c1.19064,1.16784 2.96521,4.02608 2.96521,4.02608l-3.25909,3.3227c0,0 -2.80134,-1.63012 -3.97198,-2.77835c-1.24033,-1.2166 -3.3662,-4.23314 -3.3662,-4.23314z" fill="#ffe400" stroke="#000000"/></g></g><g stroke-linecap="butt"><path d="M214.78386,100.88394c0,0 -4.12861,13.4815 -7.33233,19.25783c-3.02371,5.45177 -11.89423,14.20021 -11.89423,14.20021l-17.95451,-9.89118c0,0 2.9488,-12.56183 6.02413,-18.10665c3.16021,-5.6979 11.66347,-16.19919 11.66347,-16.19919z" fill="#696969" stroke="#000000" stroke-width="2"/><path d="M208.56187,97.66075l-18.57304,33.48726l-6.83981,-3.76807l18.57304,-33.48728z" fill="url(#color-62)" stroke="none" stroke-width="0"/><path d="M210.58268,98.12042c0.62551,0.74498 -0.11983,1.35209 -0.11983,1.35209l-1.33766,1.06886c-2.04368,0.69725 -4.01823,0.64698 -6.12219,1.04087c-1.21522,0.22751 -2.29781,0.83021 -3.48495,1.12546c-1.06359,0.26452 -2.32085,0.12439 -3.27225,0.77557c-2.22331,1.52173 -3.02044,5.08301 -1.79971,7.30822c0.68537,1.46537 1.14102,2.95143 1.72337,4.44769c0.52209,1.34153 1.66581,2.51683 1.51599,4.06289c-0.14811,1.52876 -1.94019,3.05531 -3.01033,3.89353c-2.91756,2.28534 -6.96475,2.56276 -9.93901,4.76763c0,0 -0.7793,0.56429 -1.36199,-0.21361c-0.58266,-0.77789 0.19662,-1.34221 0.19662,-1.34221c3.00294,-2.13586 7.02367,-2.50214 9.90654,-4.7436c0.5138,-0.39948 2.19288,-1.70862 2.27413,-2.60318c0.05066,-0.5576 -0.73322,-1.79147 -0.8798,-2.08095c-0.87021,-1.7188 -1.34756,-3.60113 -2.16706,-5.35516c-1.61722,-3.07258 -0.5679,-7.646 2.4181,-9.72682c1.18546,-0.82608 2.57976,-0.72904 3.90896,-1.05783c1.21511,-0.30054 2.3168,-0.90721 3.56374,-1.1427c1.87661,-0.35442 3.73854,-0.27288 5.56901,-0.84084l1.0474,-0.87381c0,0 0.74535,-0.60711 1.37088,0.13787z" fill="#000000" stroke="none" stroke-width="0.5"/><path d="M214.78386,100.88394c0,0 -4.12861,13.4815 -7.33233,19.25783c-3.02371,5.45177 -11.89423,14.20021 -11.89423,14.20021l-17.95451,-9.89118c0,0 2.9488,-12.56183 6.02413,-18.10665c3.16021,-5.6979 11.66347,-16.19919 11.66347,-16.19919z" fill="#ffe400" stroke="#000000" stroke-width="2"/></g></g></g></svg>