<svg version="1.1" xmlns="http://www.w3.org/2000/svg" xmlns:xlink="http://www.w3.org/1999/xlink" width="516.32454" height="390.39039" viewBox="0,0,516.32454,390.39039"><defs><radialGradient cx="240.00002" cy="180.00003" r="253.75375" gradientUnits="userSpaceOnUse" id="color-1"><stop offset="0" stop-color="#bfe7ff"/><stop offset="1" stop-color="#6694ff"/></radialGradient><radialGradient cx="240.00002" cy="180.00003" r="258.16227" gradientUnits="userSpaceOnUse" id="color-2"><stop offset="0" stop-color="#003a04" stop-opacity="0"/><stop offset="1" stop-color="#003a04"/></radialGradient><linearGradient x1="214.75673" y1="133.9684" x2="262.24322" y2="137.12273" gradientUnits="userSpaceOnUse" id="color-3"><stop offset="0" stop-color="#6c6c6c"/><stop offset="1" stop-color="#c4c4c4"/></linearGradient><linearGradient x1="243.957" y1="94.2519" x2="243.57795" y2="99.95842" gradientUnits="userSpaceOnUse" id="color-4"><stop offset="0" stop-color="#707070"/><stop offset="1" stop-color="#a6a6a6"/></linearGradient><linearGradient x1="230.29375" y1="126.93872" x2="248.97177" y2="128.17945" gradientUnits="userSpaceOnUse" id="color-5"><stop offset="0" stop-color="#6e6e6e"/><stop offset="1" stop-color="#c0c0c0"/></linearGradient><linearGradient x1="241.45459" y1="97.55545" x2="240.75012" y2="108.16079" gradientUnits="userSpaceOnUse" id="color-6"><stop offset="0" stop-color="#a6a6a6"/><stop offset="1" stop-color="#707070"/></linearGradient><linearGradient x1="240.92868" y1="104.27584" x2="239.57232" y2="124.69504" gradientUnits="userSpaceOnUse" id="color-7"><stop offset="0" stop-color="#a6a6a6"/><stop offset="1" stop-color="#707070"/></linearGradient><linearGradient x1="228.15093" y1="98.0806" x2="232.65755" y2="123.38164" gradientUnits="userSpaceOnUse" id="color-8"><stop offset="0" stop-color="#a6a6a6"/><stop offset="1" stop-color="#707070"/></linearGradient><linearGradient x1="254.20277" y1="100.60611" x2="246.38921" y2="125.08871" gradientUnits="userSpaceOnUse" id="color-9"><stop offset="0" stop-color="#a6a6a6"/><stop offset="1" stop-color="#707070"/></linearGradient><linearGradient x1="239.9669" y1="119.95162" x2="239.57786" y2="125.80831" gradientUnits="userSpaceOnUse" id="color-10"><stop offset="0" stop-color="#a6a6a6"/><stop offset="1" stop-color="#707070"/></linearGradient><linearGradient x1="239.53875" y1="125.16974" x2="239.1597" y2="130.87628" gradientUnits="userSpaceOnUse" id="color-11"><stop offset="0" stop-color="#707070"/><stop offset="1" stop-color="#a6a6a6"/></linearGradient><linearGradient x1="274.19645" y1="88.64976" x2="241.26716" y2="86.46241" gradientUnits="userSpaceOnUse" id="color-12"><stop offset="0" stop-color="#e800ff"/><stop offset="1" stop-color="#7c00ff"/></linearGradient><linearGradient x1="209.79988" y1="84.68743" x2="242.72918" y2="86.87478" gradientUnits="userSpaceOnUse" id="color-13"><stop offset="0" stop-color="#e800ff"/><stop offset="1" stop-color="#7c00ff"/></linearGradient><linearGradient x1="66.75896" y1="136.18142" x2="116.43802" y2="127.51469" gradientUnits="userSpaceOnUse" id="color-14"><stop offset="0" stop-color="#6c6c6c"/><stop offset="1" stop-color="#c4c4c4"/></linearGradient><linearGradient x1="80.40885" y1="123.32165" x2="99.94928" y2="119.91274" gradientUnits="userSpaceOnUse" id="color-15"><stop offset="0" stop-color="#6e6e6e"/><stop offset="1" stop-color="#c0c0c0"/></linearGradient><linearGradient x1="84.52688" y1="90.27119" x2="86.46245" y2="101.36619" gradientUnits="userSpaceOnUse" id="color-16"><stop offset="0" stop-color="#a6a6a6"/><stop offset="1" stop-color="#707070"/></linearGradient><linearGradient x1="85.67158" y1="97.32178" x2="89.39827" y2="118.68379" gradientUnits="userSpaceOnUse" id="color-17"><stop offset="0" stop-color="#a6a6a6"/><stop offset="1" stop-color="#707070"/></linearGradient><linearGradient x1="70.96244" y1="94.14967" x2="81.94994" y2="119.06654" gradientUnits="userSpaceOnUse" id="color-18"><stop offset="0" stop-color="#a6a6a6"/><stop offset="1" stop-color="#707070"/></linearGradient><linearGradient x1="98.4166" y1="90.21337" x2="96.51507" y2="117.37878" gradientUnits="userSpaceOnUse" id="color-19"><stop offset="0" stop-color="#a6a6a6"/><stop offset="1" stop-color="#707070"/></linearGradient><linearGradient x1="88.61439" y1="113.70143" x2="89.68329" y2="119.82854" gradientUnits="userSpaceOnUse" id="color-20"><stop offset="0" stop-color="#a6a6a6"/><stop offset="1" stop-color="#707070"/></linearGradient><linearGradient x1="89.23653" y1="119.22391" x2="90.27804" y2="125.19392" gradientUnits="userSpaceOnUse" id="color-21"><stop offset="0" stop-color="#707070"/><stop offset="1" stop-color="#a6a6a6"/></linearGradient><linearGradient x1="361.99696" y1="133.09294" x2="417.47109" y2="129.62594" gradientUnits="userSpaceOnUse" id="color-22"><stop offset="0" stop-color="#6c6c6c"/><stop offset="1" stop-color="#c4c4c4"/></linearGradient><linearGradient x1="379.28236" y1="123.70394" x2="401.10218" y2="122.34026" gradientUnits="userSpaceOnUse" id="color-23"><stop offset="0" stop-color="#6e6e6e"/><stop offset="1" stop-color="#c0c0c0"/></linearGradient><linearGradient x1="387.80341" y1="87.99726" x2="388.57771" y2="100.38652" gradientUnits="userSpaceOnUse" id="color-24"><stop offset="0" stop-color="#a6a6a6"/><stop offset="1" stop-color="#707070"/></linearGradient><linearGradient x1="388.20201" y1="95.86001" x2="389.69282" y2="119.71389" gradientUnits="userSpaceOnUse" id="color-25"><stop offset="0" stop-color="#a6a6a6"/><stop offset="1" stop-color="#707070"/></linearGradient><linearGradient x1="372.47321" y1="90.60039" x2="381.48685" y2="119.2295" gradientUnits="userSpaceOnUse" id="color-26"><stop offset="0" stop-color="#a6a6a6"/><stop offset="1" stop-color="#707070"/></linearGradient><linearGradient x1="403.02641" y1="89.61911" x2="397.64749" y2="119.14768" gradientUnits="userSpaceOnUse" id="color-27"><stop offset="0" stop-color="#a6a6a6"/><stop offset="1" stop-color="#707070"/></linearGradient><linearGradient x1="389.43857" y1="114.16069" x2="389.86616" y2="121.0025" gradientUnits="userSpaceOnUse" id="color-28"><stop offset="0" stop-color="#a6a6a6"/><stop offset="1" stop-color="#707070"/></linearGradient><linearGradient x1="388.62509" y1="120.33752" x2="389.04172" y2="127.00394" gradientUnits="userSpaceOnUse" id="color-29"><stop offset="0" stop-color="#707070"/><stop offset="1" stop-color="#a6a6a6"/></linearGradient><linearGradient x1="174.8991" y1="283.53769" x2="179.96158" y2="304.64792" gradientUnits="userSpaceOnUse" id="color-30"><stop offset="0" stop-color="#a6a6a6"/><stop offset="1" stop-color="#707070"/></linearGradient><linearGradient x1="154.72718" y1="288.77226" x2="159.78967" y2="309.88251" gradientUnits="userSpaceOnUse" id="color-31"><stop offset="0" stop-color="#a6a6a6"/><stop offset="1" stop-color="#707070"/></linearGradient><linearGradient x1="158.58098" y1="266.99397" x2="160.72689" y2="275.71208" gradientUnits="userSpaceOnUse" id="color-32"><stop offset="0" stop-color="#a6a6a6"/><stop offset="1" stop-color="#707070"/></linearGradient><linearGradient x1="161.65473" y1="272.10115" x2="165.78641" y2="288.88675" gradientUnits="userSpaceOnUse" id="color-33"><stop offset="0" stop-color="#a6a6a6"/><stop offset="1" stop-color="#707070"/></linearGradient><linearGradient x1="148.00511" y1="270.82008" x2="158.1057" y2="290.03594" gradientUnits="userSpaceOnUse" id="color-34"><stop offset="0" stop-color="#a6a6a6"/><stop offset="1" stop-color="#707070"/></linearGradient><linearGradient x1="173.43422" y1="265.2509" x2="173.40699" y2="286.95965" gradientUnits="userSpaceOnUse" id="color-35"><stop offset="0" stop-color="#a6a6a6"/><stop offset="1" stop-color="#707070"/></linearGradient><linearGradient x1="164.63661" y1="285.02962" x2="165.82167" y2="289.84409" gradientUnits="userSpaceOnUse" id="color-36"><stop offset="0" stop-color="#a6a6a6"/><stop offset="1" stop-color="#707070"/></linearGradient><linearGradient x1="286.49543" y1="274.87268" x2="348.74638" y2="285.14916" gradientUnits="userSpaceOnUse" id="color-37"><stop offset="0" stop-color="#6c6c6c"/><stop offset="1" stop-color="#c4c4c4"/></linearGradient><linearGradient x1="308.00608" y1="268.88318" x2="332.49147" y2="272.92526" gradientUnits="userSpaceOnUse" id="color-38"><stop offset="0" stop-color="#6e6e6e"/><stop offset="1" stop-color="#c0c0c0"/></linearGradient><linearGradient x1="324.95671" y1="240.34946" x2="320.53782" y2="267.11738" gradientUnits="userSpaceOnUse" id="color-39"><stop offset="0" stop-color="#a6a6a6"/><stop offset="1" stop-color="#707070"/></linearGradient><linearGradient x1="308.39441" y1="233.55904" x2="311.57371" y2="264.55075" gradientUnits="userSpaceOnUse" id="color-40"><stop offset="0" stop-color="#a6a6a6"/><stop offset="1" stop-color="#707070"/></linearGradient><linearGradient x1="342.5439" y1="239.63994" x2="329.47433" y2="268.55995" gradientUnits="userSpaceOnUse" id="color-41"><stop offset="0" stop-color="#a6a6a6"/><stop offset="1" stop-color="#707070"/></linearGradient><linearGradient x1="321.66921" y1="260.90937" x2="320.40177" y2="268.58703" gradientUnits="userSpaceOnUse" id="color-42"><stop offset="0" stop-color="#a6a6a6"/><stop offset="1" stop-color="#707070"/></linearGradient><linearGradient x1="320.1238" y1="267.68847" x2="318.88885" y2="275.16931" gradientUnits="userSpaceOnUse" id="color-43"><stop offset="0" stop-color="#707070"/><stop offset="1" stop-color="#a6a6a6"/></linearGradient><linearGradient x1="325.75176" y1="236.17888" x2="323.45668" y2="250.08156" gradientUnits="userSpaceOnUse" id="color-44"><stop offset="0" stop-color="#a6a6a6"/><stop offset="1" stop-color="#707070"/></linearGradient></defs><g transform="translate(18.16226,15.19515)"><g data-paper-data="{&quot;isPaintingLayer&quot;:true}" fill-rule="nonzero" stroke-linejoin="miter" stroke-miterlimit="10" stroke-dasharray="" stroke-dashoffset="0" style="mix-blend-mode: normal"><g stroke-linecap="butt"><path d="M-13.75373,369.18923v-378.37838h507.50751v378.37838z" fill="url(#color-1)" stroke="none" stroke-width="NaN"/><path d="M-18.16226,375.19524v-390.39039h516.32454v390.39039z" fill="url(#color-2)" stroke="#000000" stroke-width="0"/></g><text transform="translate(13.83925,37.78592) scale(0.67796,0.67796)" font-size="40" xml:space="preserve" fill="#42ff00" fill-rule="nonzero" stroke="none" stroke-width="1" stroke-linecap="butt" stroke-linejoin="miter" stroke-miterlimit="10" stroke-dasharray="" stroke-dashoffset="0" font-family="&quot;ヒラギノ角ゴ Pro W3&quot;, &quot;Hiragino Kaku Gothic Pro&quot;, Osaka, &quot;メイリオ&quot;, Meiryo, &quot;ＭＳ Ｐゴシック&quot;, &quot;MS PGothic&quot;" font-weight="normal" text-anchor="start" style="mix-blend-mode: normal"><tspan x="0" dy="0">Custom Night</tspan></text><g><path d="M239.76999,112.87219c15.12369,1.00461 26.706,12.02401 25.8698,24.61252c-0.83621,12.58851 -20.5227,21.53085 -28.89796,20.97451c-9.31689,-0.61889 -26.706,-12.02401 -25.8698,-24.61252c0.83621,-12.58851 13.77427,-21.97912 28.89796,-20.97451z" fill="#696969" stroke="#000000" stroke-width="2" stroke-linecap="butt"/><path d="M239.76871,116.44544c13.11304,0.87105 23.17521,10.12859 22.4745,20.67729c-0.70071,10.54871 -11.89896,18.394 -25.012,17.52295c-13.11304,-0.87105 -23.1752,-10.12859 -22.47449,-20.67729c0.70071,-10.54871 11.89895,-18.394 25.01199,-17.52295z" fill="none" stroke="url(#color-3)" stroke-width="4.5" stroke-linecap="butt"/><path d="M267.03113,138.10874c-0.62828,7.08517 -15.35825,20.66177 -27.18619,19.87609c-1.94858,-0.12944 -1.95065,-4.68959 0.10578,-5.78687c1.78272,0.56309 16.53671,-2.53526 18.87671,-13.65751c1.0641,-21.40739 -25.56891,-25.56918 -17.66609,-25.04422c15.1237,1.00461 26.70599,12.02401 25.86979,24.61252z" data-paper-data="{&quot;index&quot;:null}" fill="#ff84c2" stroke="#000000" stroke-width="2" stroke-linecap="butt"/><path d="M216.11493,98.13416l0.37906,-5.70653l54.92604,3.64852l-0.37906,5.70653c0,0 -9.74937,5.84363 -27.34667,4.53481c-19.37267,-1.44087 -27.57936,-8.18333 -27.57936,-8.18333z" fill="url(#color-4)" stroke="none" stroke-width="0" stroke-linecap="butt"/><path d="M210.67785,133.89252c0.83621,-12.58851 13.77426,-21.97912 28.89796,-20.97451c7.90282,0.52495 -19.04666,1.12747 -20.82343,22.48751c0.84832,11.33403 15.06286,16.35665 16.90439,16.03431c1.89322,1.35964 1.28801,5.87945 -0.66057,5.75002c-11.82794,-0.78568 -24.63273,-16.19132 -24.31835,-23.29733z" data-paper-data="{&quot;index&quot;:null}" fill="#ff84c2" stroke="#000000" stroke-width="2" stroke-linecap="butt"/><g stroke="none" stroke-width="0" stroke-linecap="butt"><path d="M229.64185,136.7526l1.3038,-19.62775l18.67802,1.24071l-1.3038,19.62775z" fill="url(#color-5)"/><path d="M246.18509,124.6556l0.37852,-5.69837l2.21603,0.1472l-0.37852,5.69837z" fill="#ffffff"/><path d="M245.75399,131.14543l0.37852,-5.69837l2.21603,0.1472l-0.37852,5.69837z" fill="#ffffff"/><path d="M245.33342,137.47695l0.37852,-5.69837l2.21603,0.1472l-0.37852,5.69837z" fill="#ffffff"/><path d="M231.47479,123.51947l0.37852,-5.69837l2.21604,0.1472l-0.37852,5.69837z" fill="#ffffff"/><path d="M231.0437,130.00928l0.37852,-5.69837l2.21604,0.1472l-0.37852,5.69837z" fill="#ffffff"/><path d="M230.62312,136.34083l0.37852,-5.69837l2.21604,0.1472l-0.37852,5.69837z" fill="#ffffff"/><path d="M239.53162,137.05977l0.12617,-1.89946l4.27378,0.28389l-0.12617,1.89946z" fill="#ffffff"/><path d="M234.60568,136.70077l0.12617,-1.89946l4.27379,0.28389l-0.12617,1.89946z" fill="#ffffff"/></g><path d="M242.25732,84.63238c20.36891,1.35303 36.09659,14.26122 35.12876,28.83125c-0.96783,14.57003 -7.92431,26.12926 -38.63359,23.93151c-32.43835,-2.32148 -36.09658,-14.26122 -35.12875,-28.83126c0.96783,-14.57003 18.26467,-25.28453 38.63358,-23.93151z" fill="#696969" stroke="#000000" stroke-width="2" stroke-linecap="butt"/><path d="M229.43251,107.409l0.70447,-10.60532l22.63522,1.50357l-0.70447,10.60532z" fill="url(#color-6)" stroke="#000000" stroke-width="0" stroke-linecap="butt"/><path d="M231.34134,124.14829l1.35637,-20.41919l16.46198,1.09351l-1.35637,20.41919z" fill="url(#color-7)" stroke="none" stroke-width="0" stroke-linecap="butt"/><path d="M230.70531,123.72936l-4.50663,-25.30098l3.90448,-0.69546l4.50663,25.30098z" fill="url(#color-8)" stroke="none" stroke-width="0" stroke-linecap="butt"/><path d="M244.50012,124.48581l7.81356,-24.4826l3.77818,1.20579l-7.81357,24.48261z" data-paper-data="{&quot;index&quot;:null}" fill="url(#color-9)" stroke="none" stroke-width="0" stroke-linecap="butt"/><path d="M226.67737,124.95138l0.38904,-5.85667l25.80099,1.71386l-0.38904,5.85667z" fill="url(#color-10)" stroke="none" stroke-width="0" stroke-linecap="butt"/><path d="M222.68492,126.22882c-0.76674,0.20307 -0.96982,-0.56369 -0.96982,-0.56369l-0.06109,-0.27511c-0.35572,-0.77897 -0.66223,-1.85292 -1.22305,-2.5251c-0.21655,-0.25954 -1.09186,-0.71923 -1.26944,-0.87795c-2.44111,-2.1819 -6.39886,-6.08088 -3.67022,-9.40519c1.04865,-0.26597 4.28292,-0.41108 4.67305,-1.87168c0.55384,-2.0735 -0.81638,-3.87542 0.30678,-6.01477c1.30086,-2.47784 4.43472,-3.6305 6.8426,-4.78752c0,0 0.71496,-0.34348 1.05844,0.37148c0.34348,0.71496 -0.37148,1.05843 -0.37148,1.05843c-2.02906,0.97458 -5.02138,1.9874 -6.11865,4.08282c-1.36368,2.60414 1.39565,5.74336 -1.87032,7.59418c-0.34549,0.19579 -0.7393,0.29458 -1.12215,0.40001c-0.56584,0.15585 -1.91648,0.39566 -2.56217,0.51519c-0.64165,0.82358 0.07427,2.24428 0.4854,3.0608c1.08302,2.15086 3.33843,3.08636 4.80881,4.82592c0.68467,0.81003 1.0411,1.96365 1.47538,2.91432l0.15161,0.52805c0,0 0.20306,0.76675 -0.56369,0.96982z" fill="#000000" stroke="none" stroke-width="0.5" stroke-linecap="butt"/><path d="M216.65807,128.3747c-0.78962,-0.07518 -0.71443,-0.86479 -0.71443,-0.86479l0.03801,-0.27925c-0.06379,-0.85397 0.02082,-1.9676 -0.27238,-2.79244c-0.11321,-0.31849 -0.77501,-1.05299 -0.8866,-1.26342c-1.53389,-2.89254 -3.89554,-7.92131 -0.18409,-10.09427c1.07586,0.11385 4.16005,1.09838 5.03209,-0.13658c1.23797,-1.75315 0.57698,-3.91821 2.37182,-5.53589c2.07882,-1.87362 5.41793,-1.86905 8.07756,-2.12008c0,0 0.78969,-0.07449 0.86416,0.7152c0.07448,0.78969 -0.7152,0.86415 -0.7152,0.86415c-2.24104,0.21117 -5.39894,0.12445 -7.15428,1.70988c-2.1815,1.97033 -0.68081,5.87116 -4.38574,6.47572c-0.39193,0.06395 -0.79556,0.02017 -1.19122,-0.01357c-0.58478,-0.04987 -1.93485,-0.29289 -2.58196,-0.40448c-0.88725,0.55024 -0.70796,2.13099 -0.6052,3.03938c0.27069,2.39288 2.06224,4.0519 2.83881,6.19317c0.36161,0.99707 0.29623,2.20272 0.37421,3.24498l-0.04073,0.54787c0,0 -0.07518,0.7896 -0.86481,0.71442z" fill="#000000" stroke="none" stroke-width="0.5" stroke-linecap="butt"/><path d="M254.5392,126.70158l0.22014,-0.50336c0.55621,-0.88488 1.06209,-1.98123 1.84789,-2.69357c1.68755,-1.52978 4.04687,-2.15874 5.40487,-4.14746c0.51553,-0.75495 1.41306,-2.06851 0.88599,-2.96971c-0.6242,-0.20389 -1.93125,-0.62023 -2.47152,-0.84956c-0.36554,-0.15515 -0.74282,-0.30516 -1.05937,-0.54492c-2.99245,-2.26654 0.15784,-5.01321 -0.84941,-7.77483c-0.81048,-2.22214 -3.64255,-3.62187 -5.52486,-4.85627c0,0 -0.66325,-0.43502 -0.22823,-1.09827c0.43503,-0.66325 1.09828,-0.22822 1.09828,-0.22822c2.23369,1.46533 5.18755,3.02239 6.14925,5.65052c0.83032,2.26911 -0.76619,3.87398 -0.49148,6.00251c0.19352,1.49937 3.38016,2.07098 4.38442,2.47332c2.26497,3.65602 -2.17372,6.99728 -4.88198,8.8371c-0.19702,0.13385 -1.12544,0.47372 -1.37441,0.70233c-0.6448,0.59209 -1.09067,1.61607 -1.54629,2.34114l-0.09695,0.26462c0,0 -0.3027,0.73316 -1.03585,0.43046c-0.73315,-0.3027 -0.43046,-1.03586 -0.43046,-1.03586z" data-paper-data="{&quot;index&quot;:null}" fill="#000000" stroke="none" stroke-width="0.5" stroke-linecap="butt"/><path d="M259.89703,129.83907l0.03209,-0.54845c0.21516,-1.02279 0.30984,-2.2265 0.80014,-3.16697c1.05296,-2.01973 3.04821,-3.42721 3.63302,-5.76326c0.22201,-0.88683 0.60881,-2.42998 -0.19787,-3.09274c-0.65618,0.02503 -2.02652,0.08734 -2.61277,0.05943c-0.39665,-0.01889 -0.80253,-0.02888 -1.18255,-0.1441c-3.59241,-1.08929 -1.58895,-4.75736 -3.49067,-6.99892c-1.53021,-1.80369 -4.67184,-2.1354 -6.86525,-2.64114c0,0 -0.7729,-0.17826 -0.59462,-0.95115c0.17828,-0.7729 0.95117,-0.59462 0.95117,-0.59462c2.60304,0.60061 5.91342,1.03775 7.72616,3.16987c1.5651,1.84087 0.62354,3.89948 1.61875,5.80097c0.70103,1.33944 3.88835,0.77151 4.96982,0.80096c3.39143,2.64476 0.3854,7.31699 -1.51763,9.98123c-0.13844,0.19382 -0.89158,0.83434 -1.04593,1.13506c-0.39972,0.77881 -0.46316,1.89385 -0.63934,2.73188l0.00074,0.28181c0,0 -0.0299,0.79262 -0.82253,0.7627c-0.79262,-0.02992 -0.7627,-0.82253 -0.7627,-0.82253z" data-paper-data="{&quot;index&quot;:null}" fill="#000000" stroke="none" stroke-width="0.5" stroke-linecap="butt"/><path d="M230.75878,95.33732c4.6158,0.30661 8.1166,4.18362 7.81928,8.65952c-0.29732,4.47591 -4.28018,7.8558 -8.89596,7.54919c-4.6158,-0.30661 -8.1166,-4.18361 -7.81928,-8.65952c0.29732,-4.47591 4.28017,-7.8558 8.89596,-7.54919z" fill="#ffffff" stroke="#000000" stroke-width="2" stroke-linecap="butt"/><path d="M230.58656,98.88718c2.27292,0.15098 3.98789,2.19435 3.83048,4.56399c-0.15741,2.36965 -2.12758,4.16822 -4.4005,4.01724c-2.27292,-0.15098 -3.9879,-2.19436 -3.83049,-4.56399c0.15741,-2.36965 2.12759,-4.16822 4.40051,-4.01724z" fill="#000000" stroke="#00b5ff" stroke-width="1" stroke-linecap="butt"/><path d="M252.40407,96.96427c4.6158,0.30661 8.1166,4.18362 7.81928,8.65952c-0.29732,4.47591 -4.28018,7.8558 -8.89596,7.54919c-4.6158,-0.30661 -8.1166,-4.18361 -7.81928,-8.65952c0.29732,-4.47591 4.28017,-7.8558 8.89596,-7.54919z" fill="#00b5ff" stroke="#000000" stroke-width="2" stroke-linecap="butt"/><path d="M211.69668,129.05203l0.37906,-5.70653l54.92604,3.64852l-0.37906,5.70653c0,0 -9.74937,5.84363 -27.34667,4.53481c-19.37267,-1.44087 -27.57936,-8.18333 -27.57936,-8.18333z" fill="url(#color-11)" stroke="none" stroke-width="0" stroke-linecap="butt"/><path d="M239.7113,136.40433c-0.29987,-0.04245 0.1307,-9.19024 0.78814,-19.85632c0.23627,0.21005 0.56568,0.2069 0.56568,0.2069c4.36728,-0.05999 18.47429,1.07102 21.23411,1.16071c4.81938,-0.00656 9.98862,0.62514 14.73606,-0.67032c-1.97177,12.61192 -9.32922,23.1214 -37.32397,19.15902z" data-paper-data="{&quot;index&quot;:null}" fill="#ff84c2" stroke="#000000" stroke-width="2" stroke-linecap="butt"/><path d="M237.73776,135.95797c-28.27289,0.22474 -34.17562,-11.16557 -34.4619,-23.92748c4.53438,1.91202 9.74175,1.96959 14.51792,2.61355c2.74744,0.27614 16.8801,1.02098 21.20107,1.65809c0,0 0.3261,0.04669 0.58808,-0.13026c-0.75912,10.65932 -1.5423,19.78369 -1.84515,19.7861z" fill="#ff84c2" stroke="#000000" stroke-width="2" stroke-linecap="butt"/><path d="M230.08017,95.72727c4.25853,0.11053 7.7019,2.5841 7.69098,5.52488c-0.0054,1.45415 -4.13281,-2.27216 -7.94519,-2.35506c-3.89754,-0.08475 -7.48181,3.4414 -7.4763,1.95477c0.01092,-2.94077 3.47198,-5.23513 7.73051,-5.1246z" data-paper-data="{&quot;index&quot;:null}" fill="#00b5ff" stroke="#000000" stroke-width="1" stroke-linecap="butt"/><g data-paper-data="{&quot;index&quot;:null}" stroke-width="2"><path d="M272.5489,88.97463c0,0 18.3112,-13.97343 32.41519,-5.45375c13.79103,8.33061 6.99322,31.65104 6.99322,31.65104" fill="none" stroke="#e800ff" stroke-linecap="round"/><path d="M273.44161,88.94141c0,0 12.95595,-16.94845 27.63468,-12.77331c14.35299,4.08248 13.96264,26.57667 13.96264,26.57667" fill="none" stroke="#ff0057" stroke-linecap="round"/><path d="M268.42064,93.33688c0,0 12.95595,-16.94844 27.63468,-12.77331c14.35299,4.08248 13.96264,26.57667 13.96264,26.57667" fill="none" stroke="#0071ff" stroke-linecap="round"/><path d="M273.12997,90.30663c0,0 20.19153,-8.49806 31.14504,2.70966c10.71045,10.95901 -1.11004,30.80865 -1.11004,30.80865" fill="none" stroke="#e800ff" stroke-linecap="round"/><path d="M273.9598,90.48895c0,0 15.97054,-12.51433 28.48934,-5.16952c12.241,7.18183 6.51685,27.7989 6.51685,27.7989" fill="none" stroke="#ff0057" stroke-linecap="round"/><path d="M268.28874,93.33835c0,0 15.97054,-12.51433 28.48934,-5.16952c12.241,7.18183 6.51684,27.79891 6.51684,27.79891" fill="none" stroke="#0071ff" stroke-linecap="round"/><path d="M274.71767,91.57777c0,0 12.85213,-14.33605 22.34908,-6.12241c9.28621,8.03138 4.13676,31.46129 4.13676,31.46129" fill="none" stroke="#e800ff" stroke-linecap="round"/><path d="M275.33071,91.52598c0,0 9.24073,-17.19523 19.22255,-13.33209c9.76032,3.77741 9.0233,26.24857 9.0233,26.24857" fill="none" stroke="#ff0057" stroke-linecap="round"/><path d="M271.79487,96.0201c0,0 9.24073,-17.19523 19.22255,-13.33209c9.76032,3.77741 9.0233,26.24857 9.0233,26.24857" fill="none" stroke="#0071ff" stroke-linecap="round"/><path d="M275.08846,92.89581c0,0 14.02772,-8.9075 21.30751,2.05619c7.11825,10.72039 -1.40413,30.78911 -1.40413,30.78911" fill="none" stroke="#e800ff" stroke-linecap="round"/><path d="M275.65387,93.06057c0,0 11.21611,-12.83015 19.6502,-5.75667c8.24693,6.91652 3.89034,27.62444 3.89034,27.62444" fill="none" stroke="#ff0057" stroke-linecap="round"/><path d="M271.70436,96.02432c0,0 11.21611,-12.83015 19.6502,-5.75668c8.24693,6.91652 3.89033,27.62444 3.89033,27.62444" fill="none" stroke="#0071ff" stroke-linecap="round"/><path d="M274.07318,90.58916c0,0 12.23021,-14.37736 21.20231,-6.19859c8.77301,7.99729 3.81133,31.43968 3.81133,31.43968" fill="none" stroke="#e800ff" stroke-linecap="round"/><path d="M274.65436,90.53525c0,0 8.81748,-17.22334 18.26421,-13.39575c9.23711,3.74266 8.46059,26.21119 8.46059,26.21119" fill="none" stroke="#ff0057" stroke-linecap="round"/><path d="M271.28772,95.04061c0,0 8.81748,-17.22334 18.26421,-13.39575c9.23711,3.74266 8.46059,26.21119 8.46059,26.21119" fill="none" stroke="#0071ff" stroke-linecap="round"/><path d="M274.42002,91.90562c0,0 13.32552,-8.95414 20.18679,1.98175c6.70901,10.69321 -1.43763,30.78689 -1.43763,30.78689" fill="none" stroke="#e800ff" stroke-linecap="round"/><path d="M274.95532,92.06837c0,0 10.67446,-12.86613 18.64321,-5.82356c7.79191,6.88629 3.59111,27.60456 3.59111,27.60456" fill="none" stroke="#ff0057" stroke-linecap="round"/><path d="M271.20192,95.04515c0,0 10.67446,-12.86613 18.64321,-5.82357c7.79191,6.88629 3.59111,27.60456 3.59111,27.60456" fill="none" stroke="#0071ff" stroke-linecap="round"/><path d="M275.42276,93.13787c0,0 8.68927,-14.61258 14.67309,-6.6323c5.85104,7.80319 1.95854,31.3166 1.95854,31.3166" fill="none" stroke="#e800ff" stroke-linecap="round"/><path d="M275.82255,93.07193c0,0 6.40768,-17.38343 12.80784,-13.75821c6.25814,3.54477 5.25678,25.99838 5.25678,25.99838" fill="none" stroke="#ff0057" stroke-linecap="round"/><path d="M273.41919,97.64127c0,0 6.40768,-17.38343 12.80784,-13.75821c6.25814,3.54477 5.25679,25.99838 5.25679,25.99838" fill="none" stroke="#0071ff" stroke-linecap="round"/><path d="M275.63322,94.44528c0,0 9.32747,-9.21971 13.80584,1.55788c4.379,10.53844 -1.62839,30.77422 -1.62839,30.77422" fill="none" stroke="#e800ff" stroke-linecap="round"/><path d="M275.99701,94.59665c0,0 7.59057,-13.07098 12.90985,-6.2044c5.20123,6.7142 1.88748,27.4914 1.88748,27.4914" fill="none" stroke="#ff0057" stroke-linecap="round"/><path d="M273.36026,97.6476c0,0 7.59057,-13.07098 12.90985,-6.2044c5.20123,6.7142 1.88748,27.49139 1.88748,27.49139" fill="none" stroke="#0071ff" stroke-linecap="round"/><path d="M270.48033,88.65419c0,0 11.1181,-20.17286 27.46045,-18.06687c15.9797,2.05926 19.16725,26.1402 19.16725,26.1402" fill="none" stroke="#e800ff" stroke-linecap="round"/><path d="M271.28377,88.26366c0,0 5.01779,-20.73471 20.13339,-22.83591c14.78018,-2.05457 23.49735,18.68552 23.49735,18.68552" fill="none" stroke="#ff0057" stroke-linecap="round"/><path d="M268.46264,94.31111c0,0 5.01779,-20.73471 20.13339,-22.83591c14.78018,-2.05457 23.49735,18.68552 23.49735,18.68552" fill="none" stroke="#0071ff" stroke-linecap="round"/><path d="M271.54936,89.63858c0,0 15.04746,-15.92134 29.59143,-10.0848c14.22123,5.70702 11.41278,28.63832 11.41278,28.63832" fill="none" stroke="#e800ff" stroke-linecap="round"/><path d="M272.38222,89.47067c0,0 9.56497,-17.89352 23.98288,-16.22308c14.09797,1.63339 17.17737,22.80759 17.17737,22.80759" fill="none" stroke="#ff0057" stroke-linecap="round"/><path d="M268.34257,94.36565c0,0 9.56497,-17.89352 23.98288,-16.22308c14.09797,1.63339 17.17736,22.80759 17.17736,22.80759" fill="none" stroke="#0071ff" stroke-linecap="round"/><path d="M274.05495,89.86651c0,0 1.51874,-19.46178 12.21073,-19.95369c10.45473,-0.481 18.84541,20.37788 18.84541,20.37788" fill="none" stroke="#ff0057" stroke-linecap="round"/><path d="M272.13799,95.18961c0,0 7.60035,-14.68491 12.66522,-6.76567c4.95247,7.7435 1.38876,31.27875 1.38876,31.27875" fill="none" stroke="#e800ff" stroke-linecap="round"/><path d="M272.48199,95.11994c0,0 5.6666,-17.43264 11.12989,-13.86966c5.34204,3.48392 4.27154,25.93293 4.27154,25.93293" fill="none" stroke="#ff0057" stroke-linecap="round"/><path d="M270.37488,99.70896c0,0 5.6666,-17.43264 11.12989,-13.86966c5.34204,3.48392 4.27154,25.93293 4.27154,25.93293" fill="none" stroke="#0071ff" stroke-linecap="round"/><path d="M272.3065,96.49422c0,0 8.09799,-9.30138 11.84356,1.42754c3.66246,10.49084 -1.68706,30.77032 -1.68706,30.77032" fill="none" stroke="#e800ff" stroke-linecap="round"/><path d="M272.61755,96.64207c0,0 6.64222,-13.13397 11.14672,-6.32152c4.40455,6.66128 1.36357,27.45659 1.36357,27.45659" fill="none" stroke="#ff0057" stroke-linecap="round"/><path d="M270.32417,99.71583c0,0 6.64222,-13.13398 11.14672,-6.32153c4.40455,6.66128 1.36357,27.45659 1.36357,27.45659" fill="none" stroke="#0071ff" stroke-linecap="round"/><path d="M273.10131,97.62016c0,0 4.25068,-17.52671 7.92391,-14.08263c3.59172,3.36765 2.38909,25.80789 2.38909,25.80789" fill="none" stroke="#ff0057" stroke-linecap="round"/><g stroke="#000000" stroke-linecap="butt"><path d="M243.144,84.26731c19.93181,1.32399 35.30515,14.20865 34.33732,28.77868c-0.0691,1.04024 -0.16061,2.07692 -0.28245,3.10365c-4.75321,1.53248 -10.07751,0.8018 -14.94685,0.80557c-2.70143,-0.0878 -16.82224,-1.18115 -21.27422,-1.16084c0,0 -0.25472,0.00244 -0.47408,0.1489c0.92036,-14.70698 2.22776,-31.70335 2.64026,-31.67595zM261.42409,105.44669c0.34656,-6.35153 -4.30323,-9.34236 -8.44738,-9.86651c-7.7186,-0.97624 -9.94709,5.32429 -10.28425,7.10678c-1.33945,7.08113 5.29929,11.32123 7.66813,11.33242c6.6202,0.03128 10.87269,-5.07547 11.0635,-8.57268z" fill="#ff84c2"/><path d="M242.08185,91.52063c-1.29836,-0.0234 -0.76739,-14.86099 0.98862,-14.78419c11.32046,0.49511 19.91793,2.72015 25.55182,6.53843c11.53715,7.81913 12.00911,19.99374 7.53177,21.3849c-7.60145,2.36184 -12.02585,-13.70316 -17.06593,-12.67919c-3.88023,0.78833 -4.22948,5.28551 -9.95844,4.87619c-4.96068,-0.35443 -5.07364,-5.30057 -7.04785,-5.33614z" fill="url(#color-12)"/></g></g><g stroke-width="2"><path d="M168.86274,105.98197c0,0 -3.65352,-24.01466 11.11822,-30.44796c15.10696,-6.57931 31.40903,9.69334 31.40903,9.69334" fill="none" stroke="#e800ff" stroke-linecap="round"/><path d="M167.45193,93.25641c0,0 2.58835,-22.34818 17.35522,-24.49635c15.102,-2.19692 25.70237,16.31628 25.70237,16.31628" fill="none" stroke="#ff0057" stroke-linecap="round"/><path d="M171.8474,98.27737c0,0 2.58835,-22.34818 17.35522,-24.49635c15.102,-2.19691 25.70237,16.31628 25.70237,16.31628" fill="none" stroke="#0071ff" stroke-linecap="round"/><path d="M176.4333,115.72192c0,0 -9.09114,-21.23872 2.97473,-30.68478c12.3397,-9.66044 31.2298,1.43366 31.2298,1.43366" fill="none" stroke="#e800ff" stroke-linecap="round"/><path d="M172.09941,104.34209c0,0 -2.94686,-21.19305 10.13651,-26.69268c13.3803,-5.62443 27.55527,8.89235 27.55527,8.89235" fill="none" stroke="#ff0057" stroke-linecap="round"/><path d="M177.34376,107.91657c0,0 -2.94687,-21.19306 10.1365,-26.69269c13.3803,-5.62443 27.55527,8.89235 27.55527,8.89235" fill="none" stroke="#0071ff" stroke-linecap="round"/><path d="M179.29129,109.13378c0,0 -2.00517,-23.90517 8.26175,-30.63771c10.49992,-6.88533 21.34292,9.0247 21.34292,9.0247" fill="none" stroke="#e800ff" stroke-linecap="round"/><path d="M178.58902,96.45528c0,0 2.24169,-22.37121 12.41589,-24.82445c10.40509,-2.50891 17.29024,15.7575 17.29024,15.7575" fill="none" stroke="#ff0057" stroke-linecap="round"/><path d="M181.49937,101.37761c0,0 2.24169,-22.37121 12.41589,-24.82445c10.40509,-2.50891 17.29024,15.7575 17.29024,15.7575" fill="none" stroke="#0071ff" stroke-linecap="round"/><path d="M184.28118,118.7023c0,0 -5.79304,-21.01964 2.68064,-30.70432c8.66598,-9.90447 21.39227,0.78019 21.39227,0.78019" fill="none" stroke="#e800ff" stroke-linecap="round"/><path d="M181.54571,107.42866c0,0 -1.5793,-21.10222 7.51001,-26.86716c9.29559,-5.89576 18.71613,8.3052 18.71613,8.3052" fill="none" stroke="#ff0057" stroke-linecap="round"/><path d="M185.06854,110.88876c0,0 -1.57931,-21.10222 7.51,-26.86716c9.29559,-5.89576 18.71612,8.3052 18.71612,8.3052" fill="none" stroke="#0071ff" stroke-linecap="round"/><path d="M181.53307,108.33689c0,0 -1.81739,-23.8927 7.93633,-30.65933c9.97507,-6.92019 20.19615,8.94852 20.19615,8.94852" fill="none" stroke="#e800ff" stroke-linecap="round"/><path d="M180.91153,95.66377c0,0 2.20219,-22.37383 11.85317,-24.86183c9.87,-2.54446 16.3319,15.69384 16.3319,15.69384" fill="none" stroke="#ff0057" stroke-linecap="round"/><path d="M183.65268,100.57483c0,0 2.20219,-22.37383 11.85317,-24.86183c9.87,-2.54446 16.3319,15.69384 16.3319,15.69384" fill="none" stroke="#0071ff" stroke-linecap="round"/><path d="M186.22894,117.88589c0,0 -5.4173,-20.99468 2.64714,-30.70654c8.24746,-9.93227 20.27155,0.70574 20.27155,0.70574" fill="none" stroke="#e800ff" stroke-linecap="round"/><path d="M183.67559,106.62434c0,0 -1.42351,-21.09187 7.21078,-26.88703c8.83025,-5.92667 17.70913,8.2383 17.70913,8.2383" fill="none" stroke="#ff0057" stroke-linecap="round"/><path d="M187.00228,110.07141c0,0 -1.42351,-21.09187 7.21078,-26.88703c8.83025,-5.92667 17.70913,8.23831 17.70913,8.23831" fill="none" stroke="#0071ff" stroke-linecap="round"/><path d="M188.24025,111.2415c0,0 -0.74822,-23.82168 6.08353,-30.7824c6.98679,-7.11869 13.66693,8.51481 13.66693,8.51481" fill="none" stroke="#e800ff" stroke-linecap="round"/><path d="M188.07827,98.59889c0,0 1.97734,-22.38878 8.64936,-25.07465c6.82343,-2.74683 10.87553,15.3314 10.87553,15.3314" fill="none" stroke="#ff0057" stroke-linecap="round"/><path d="M189.85611,103.44597c0,0 1.97735,-22.38878 8.64937,-25.07465c6.82343,-2.74683 10.87553,15.3314 10.87553,15.3314" fill="none" stroke="#0071ff" stroke-linecap="round"/><path d="M191.26219,120.6793c0,0 -3.27805,-20.85257 2.45638,-30.71922c5.86456,-10.09056 13.8906,0.28188 13.8906,0.28188" fill="none" stroke="#e800ff" stroke-linecap="round"/><path d="M189.74564,109.48662c0,0 -0.53646,-21.03295 5.50715,-27.0002c6.18077,-6.10267 11.97577,7.85746 11.97577,7.85746" fill="none" stroke="#ff0057" stroke-linecap="round"/><path d="M191.95567,112.85953c0,0 -0.53646,-21.03294 5.50715,-27.00019c6.18077,-6.10267 11.97577,7.85746 11.97577,7.85746" fill="none" stroke="#0071ff" stroke-linecap="round"/><path d="M166.19686,87.01835c0,0 6.34469,-23.44775 22.45637,-23.3753c16.47732,0.07409 24.8295,21.54029 24.8295,21.54029" fill="none" stroke="#e800ff" stroke-linecap="round"/><path d="M170.0396,74.80508c0,0 11.38385,-19.40486 25.76241,-15.41339c14.70487,4.08206 16.93603,25.29829 16.93603,25.29829" fill="none" stroke="#ff0057" stroke-linecap="round"/><path d="M172.03604,81.17252c0,0 11.38385,-19.40486 25.76241,-15.41339c14.70487,4.08206 16.93603,25.29829 16.93603,25.29829" fill="none" stroke="#0071ff" stroke-linecap="round"/><path d="M169.19494,98.9846c0,0 0.24931,-23.10129 15.10046,-26.87715c15.18818,-3.86155 27.99753,13.91021 27.99753,13.91021" fill="none" stroke="#e800ff" stroke-linecap="round"/><path d="M169.82006,86.82352c0,0 5.85303,-20.58085 20.04318,-20.33517c14.51218,0.25127 21.62636,19.25272 21.62636,19.25272" fill="none" stroke="#ff0057" stroke-linecap="round"/><path d="M173.17677,92.20983c0,0 5.85302,-20.58086 20.04317,-20.33517c14.51218,0.25127 21.62636,19.25272 21.62636,19.25272" fill="none" stroke="#0071ff" stroke-linecap="round"/><path d="M178.93979,82.2249c0,0 11.07593,-19.56579 21.37518,-17.70618c10.53298,1.9018 9.4642,21.39347 9.4642,21.39347" fill="none" stroke="#ff0057" stroke-linecap="round"/><path d="M193.80243,113.88088c0,0 -0.41942,-23.79983 5.51375,-30.82025c6.06783,-7.17974 11.65905,8.38144 11.65905,8.38144" fill="none" stroke="#e800ff" stroke-linecap="round"/><path d="M193.78178,101.24768c0,0 1.9082,-22.39336 7.66412,-25.14009c5.88655,-2.80906 9.19758,15.21993 9.19758,15.21993" fill="none" stroke="#ff0057" stroke-linecap="round"/><path d="M195.26339,106.07508c0,0 1.9082,-22.39336 7.66412,-25.14009c5.88655,-2.80906 9.19758,15.21993 9.19758,15.21993" fill="none" stroke="#0071ff" stroke-linecap="round"/><path d="M196.30962,123.2845c0,0 -2.62018,-20.80887 2.39771,-30.72311c5.13177,-10.13924 11.92832,0.15154 11.92832,0.15154" fill="none" stroke="#e800ff" stroke-linecap="round"/><path d="M195.11189,112.11301c0,0 -0.26369,-21.01482 4.98324,-27.03499c5.366,-6.15679 10.21264,7.74034 10.21264,7.74034" fill="none" stroke="#ff0057" stroke-linecap="round"/><path d="M196.97855,115.46308c0,0 -0.26369,-21.01483 4.98324,-27.035c5.366,-6.15679 10.21264,7.74035 10.21264,7.74035" fill="none" stroke="#0071ff" stroke-linecap="round"/><path d="M197.92564,103.98202c0,0 1.77607,-22.40215 5.78167,-25.26514c4.0965,-2.92797 5.9916,15.00698 5.9916,15.00698" fill="none" stroke="#ff0057" stroke-linecap="round"/><g stroke="#000000" stroke-linecap="butt"><path d="M241.15918,84.45074c0.4125,0.0274 -0.53968,17.04737 -1.57268,31.74687c-0.19806,-0.17419 -0.45022,-0.2103 -0.45022,-0.2103c-4.41017,-0.60898 -18.55153,-1.39298 -21.24084,-1.66327c-4.82605,-0.64779 -10.20023,-0.62777 -14.70897,-2.77549c0.01504,-1.03383 0.06145,-2.0735 0.13055,-3.11374c0.96783,-14.57003 17.91034,-25.30807 37.84215,-23.98408zM220.2383,103.02616c-0.27343,3.49172 3.26623,9.11608 9.8324,9.96071c2.34951,0.30223 9.49075,-3.02251 9.09968,-10.2186c-0.09844,-1.81143 -1.47398,-8.35136 -9.25389,-8.40462c-4.17706,-0.0286 -9.18159,2.32093 -9.67819,8.6625z" fill="#ff84c2"/><path d="M241.2526,91.78082c-1.96157,-0.22587 -2.72776,4.66187 -7.69173,4.35705c-5.73277,-0.35203 -5.48411,-4.85589 -9.22598,-6.15053c-4.86035,-1.68162 -11.37078,13.65703 -18.59304,10.31051c-4.25399,-1.97115 -2.17587,-13.97636 10.29415,-20.20079c6.08944,-3.03955 14.90567,-4.10786 26.19215,-3.10128c1.75074,0.15614 0.3145,14.9336 -0.97555,14.78506z" fill="url(#color-13)"/></g></g><path d="M240.45112,109.98196c3.08427,0.20488 5.41848,2.87126 5.21361,5.95553c-0.20488,3.08427 -2.87125,5.41848 -5.95553,5.21361c-3.08427,-0.20488 -5.41849,-2.87126 -5.21362,-5.95553c0.20488,-3.08427 2.87126,-5.41848 5.95554,-5.21361z" fill="#ff0057" stroke="#000000" stroke-width="2" stroke-linecap="butt"/></g><g stroke-linecap="butt"><path d="M87.21734,108.18702c15.82199,-2.76021 30.51077,5.67838 32.80829,18.84814c2.29752,13.16976 -8.66623,26.08355 -24.48823,28.84377c-15.822,2.76022 -30.51077,-5.67838 -32.80829,-18.84814c-2.29752,-13.16976 8.66623,-26.08355 24.48823,-28.84377z" fill="#696969" stroke="#000000" stroke-width="2"/><path d="M88.11252,111.86602c13.7185,-2.39325 26.40025,4.6129 28.32549,15.64865c1.92524,11.03577 -7.63509,21.92213 -21.35359,24.31538c-13.7185,2.39325 -26.40024,-4.6129 -28.32548,-15.64866c-1.92524,-11.03577 7.63508,-21.92213 21.35358,-24.31538z" fill="none" stroke="url(#color-14)" stroke-width="4.5"/><g stroke="none" stroke-width="0"><path d="M82.19998,133.58866l-3.58225,-20.53401l19.54043,-3.40891l3.58225,20.53401z" fill="url(#color-15)"/><path d="M96.19627,116.9841l-1.04001,-5.96148l2.31835,-0.40445l1.04001,5.96148z" fill="#ffffff"/><path d="M97.38072,123.77357l-1.04001,-5.96148l2.31835,-0.40445l1.04001,5.96148z" fill="#ffffff"/><path d="M98.53629,130.39744l-1.04001,-5.96148l2.31835,-0.40445l1.04001,5.96148z" fill="#ffffff"/><path d="M80.76686,119.50516l-1.04001,-5.96148l2.31836,-0.40445l1.04001,5.96148z" fill="#ffffff"/><path d="M81.95132,126.29465l-1.04001,-5.96148l2.31836,-0.40445l1.04001,5.96148z" fill="#ffffff"/><path d="M83.10688,132.91854l-1.04001,-5.96148l2.31836,-0.40445l1.04001,5.96148z" fill="#ffffff"/><path d="M92.45862,131.42359l-0.34667,-1.98717l4.47111,-0.78l0.34667,1.98717z" fill="#ffffff"/><path d="M87.29726,132.28987l-0.34667,-1.98717l4.47112,-0.78001l0.34667,1.98717z" fill="#ffffff"/></g><path d="M63.11807,137.30421c-2.29752,-13.16976 8.66624,-26.08354 24.48823,-28.84376c8.26771,-1.44234 -20.87402,7.73221 -17.34409,30.16831c2.66437,18.99876 24.8431,11.04762 23.42499,12.08665c2.29021,0.92476 2.98631,4.85157 0.94775,5.2072c-15.822,2.76022 -29.21934,-5.44864 -31.51686,-18.61839z" fill="#ff0000" stroke="#000000" stroke-width="2"/><path d="M120.99544,126.97973c2.29752,13.16976 -7.52889,25.43011 -23.35088,28.19032c-2.03855,0.35563 -2.71321,-3.57491 -0.87141,-5.22051c1.9766,0.13242 20.90958,-3.14899 17.94868,-19.30448c-4.27552,-22.30602 -34.80239,-21.07112 -26.53468,-22.51346c15.822,-2.76022 30.51076,5.67838 32.80828,18.84814z" data-paper-data="{&quot;index&quot;:null}" fill="#ff0000" stroke="#000000" stroke-width="2"/><path d="M82.11097,76.76539c21.30939,-3.71752 40.73975,5.62555 43.39892,20.86831c2.65917,15.24277 -1.60242,28.88841 -33.76922,34.33064c-33.97794,5.74866 -40.73974,-5.62555 -43.39891,-20.86832c-2.65917,-15.24277 12.45982,-30.61311 33.76921,-34.33063z" fill="#696969" stroke="#000000" stroke-width="2"/><path d="M74.62229,103.43178l-1.93557,-11.09499l23.68034,-4.13114l1.93557,11.09499z" fill="url(#color-16)" stroke="#000000" stroke-width="0"/><path d="M80.78724,120.18602l-3.72669,-21.362l17.22207,-3.00447l3.72669,21.362z" fill="url(#color-17)" stroke="none" stroke-width="0"/><path d="M80.02734,119.91433l-10.9875,-24.91683l3.8452,-1.6956l10.9875,24.91683z" fill="url(#color-18)" stroke="none" stroke-width="0"/><path d="M94.41898,117.23204l1.90153,-27.16538l4.19219,0.29344l-1.90154,27.16539z" data-paper-data="{&quot;index&quot;:null}" fill="url(#color-19)" stroke="none" stroke-width="0"/><path d="M76.18715,122.18299l-1.0689,-6.12708l26.99228,-4.70892l1.0689,6.12708z" fill="url(#color-20)" stroke="none" stroke-width="0"/><path d="M72.3974,124.49983c-0.73842,0.40144 -1.13987,-0.337 -1.13987,-0.337l-0.13191,-0.26791c-0.56166,-0.71271 -1.14666,-1.74145 -1.89268,-2.29275c-0.28806,-0.21286 -1.30452,-0.46651 -1.52717,-0.58536c-3.06056,-1.63381 -8.11333,-4.65486 -6.13824,-8.76186c1.01287,-0.53692 4.30615,-1.49777 4.34134,-3.09935c0.04995,-2.27363 -1.8128,-3.78494 -1.19324,-6.26922c0.71756,-2.87733 3.65469,-4.85028 5.84333,-6.64556c0,0 0.64988,-0.533 1.18288,0.11688c0.533,0.64988 -0.11688,1.18287 -0.11688,1.18287c-1.84441,1.51242 -4.67091,3.30588 -5.27483,5.73843c-0.75055,3.02312 2.87781,5.56267 -0.02016,8.28751c-0.30656,0.28824 -0.68721,0.48875 -1.0549,0.69336c-0.54343,0.30241 -1.87376,0.88817 -2.50851,1.17323c-0.45395,1.00887 0.63954,2.29187 1.26767,3.02933c1.65462,1.9426 4.21129,2.33984 6.1615,3.76181c0.90811,0.66215 1.56449,1.76038 2.2501,2.63014l0.28856,0.50559c0,0 0.40143,0.73843 -0.337,1.13987z" fill="#000000" stroke="none" stroke-width="0.5"/><path d="M66.73111,128.22112c-0.83178,0.12071 -0.95248,-0.71106 -0.95248,-0.71106l-0.03093,-0.29702c-0.27993,-0.86316 -0.47223,-2.03088 -0.98103,-2.8065c-0.19646,-0.29948 -1.06207,-0.88961 -1.22975,-1.07826c-2.30488,-2.59305 -5.9979,-7.17767 -2.72213,-10.34593c1.13617,-0.15272 4.55837,0.08705 5.1463,-1.40313c0.83464,-2.11549 -0.38906,-4.17859 1.05287,-6.29431c1.67007,-2.45047 5.10886,-3.28354 7.78398,-4.20926c0,0 0.7943,-0.27482 1.06909,0.51949c0.27481,0.7943 -0.5195,1.06909 -0.5195,1.06909c-2.25419,0.77967 -5.52702,1.4827 -6.93638,3.55531c-1.75152,2.5758 0.77215,6.21521 -2.89042,7.76716c-0.38745,0.16417 -0.81398,0.22037 -1.22978,0.2849c-0.61455,0.09538 -2.06542,0.18391 -2.75962,0.23139c-0.77538,0.78909 -0.1942,2.37149 0.13951,3.28091c0.87904,2.39557 3.13969,3.65405 4.47641,5.66367c0.62244,0.93576 0.85762,2.19339 1.1994,3.24684l0.09552,0.57426c0,0 0.12071,0.83176 -0.71108,0.95248z" fill="#000000" stroke="none" stroke-width="0.5"/><path d="M105.3102,116.99441l0.10034,-0.57345c0.35061,-1.05054 0.59635,-2.30616 1.22661,-3.23667c1.35353,-1.99832 3.62466,-3.23778 4.52377,-5.62589c0.34133,-0.90657 0.93577,-2.48407 0.16704,-3.27962c-0.69377,-0.05329 -2.14385,-0.15399 -2.75759,-0.25453c-0.41525,-0.06802 -0.8413,-0.1278 -1.22735,-0.29521c-3.64942,-1.58262 -1.0953,-5.20073 -2.82515,-7.79112c-1.39191,-2.08436 -4.65874,-2.81484 -6.9063,-3.61339c0,0 -0.79196,-0.28145 -0.51051,-1.07341c0.28146,-0.79196 1.07343,-0.5105 1.07343,-0.5105c2.66724,0.94815 6.09892,1.81004 7.74838,4.27443c1.42413,2.12774 0.18316,4.18052 1.00002,6.30293c0.57541,1.49505 3.9995,1.28403 5.13433,1.44627c3.24908,3.19562 -0.48227,7.74912 -2.80884,10.32272c-0.16925,0.18723 -1.0398,0.77007 -1.23875,1.06789c-0.51527,0.77134 -0.71739,1.93739 -1.00453,2.79818l-0.03342,0.29675c0,0 -0.12768,0.83074 -0.95841,0.70305c-0.83073,-0.12769 -0.70305,-0.95842 -0.70305,-0.95842z" data-paper-data="{&quot;index&quot;:null}" fill="#000000" stroke="none" stroke-width="0.5"/><path d="M111.61331,118.88025l-0.10457,-0.57268c-0.0351,-1.10695 -0.23964,-2.36994 0.02917,-3.46117c0.57729,-2.34351 2.27828,-4.29312 2.29424,-6.84483c0.00606,-0.96869 0.01711,-2.65443 -0.97966,-3.13435c-0.66927,0.1904 -2.0644,0.59836 -2.67495,0.71672c-0.41309,0.08008 -0.83346,0.17162 -1.2536,0.14835c-3.97171,-0.22011 -2.82943,-4.49908 -5.34967,-6.32964c-2.0279,-1.47298 -5.34545,-1.02627 -7.73047,-0.99661c0,0 -0.84043,0.0104 -0.85081,-0.83003c-0.01038,-0.84043 0.83005,-0.85081 0.83005,-0.85081c2.83054,-0.03476 6.34827,-0.41528 8.74944,1.32495c2.07314,1.50251 1.62031,3.8581 3.12196,5.566c1.05778,1.20307 4.19665,-0.1813 5.31742,-0.42231c4.15505,1.87191 2.23257,7.43619 0.94184,10.65651c-0.0939,0.23427 -0.70856,1.08265 -0.79201,1.43097c-0.21611,0.90208 -0.00167,2.06593 0.02721,2.9729l0.07146,0.28994c0,0 0.16808,0.82351 -0.65544,0.99158c-0.82352,0.16806 -0.99158,-0.65544 -0.99158,-0.65544z" data-paper-data="{&quot;index&quot;:null}" fill="#000000" stroke="none" stroke-width="0.5"/><path d="M105.41113,89.30434c0.8169,4.68258 -2.43549,9.16148 -7.26439,10.0039c-4.82892,0.84243 -9.40573,-2.27064 -10.22263,-6.95321c-0.8169,-4.68258 2.43547,-9.16149 7.26438,-10.00391c4.82891,-0.84242 9.40574,2.27064 10.22264,6.95322z" data-paper-data="{&quot;index&quot;:null}" fill="#ffffff" stroke="#000000" stroke-width="2"/><path d="M100.85798,89.80964c0.43248,2.47906 -1.14457,4.82502 -3.52244,5.23985c-2.37787,0.41483 -4.65611,-1.25856 -5.08859,-3.73762c-0.43248,-2.47906 1.14457,-4.82502 3.52243,-5.23985c2.37787,-0.41483 4.65612,1.25856 5.0886,3.73762z" data-paper-data="{&quot;index&quot;:null}" fill="#000000" stroke="none" stroke-width="0"/><path d="M72.16839,86.13952c4.82892,-0.84243 9.40574,2.27064 10.22264,6.95321c0.8169,4.68258 -2.43549,9.16148 -7.26439,10.0039c-4.82892,0.84243 -9.40574,-2.27063 -10.22264,-6.95321c-0.8169,-4.68258 2.43548,-9.16148 7.26439,-10.0039z" fill="#ffffff" stroke="#000000" stroke-width="2"/><path d="M72.88175,89.83738c2.37787,-0.41483 4.65611,1.25855 5.08859,3.73761c0.43248,2.47906 -1.14457,4.82501 -3.52244,5.23984c-2.37787,0.41483 -4.65612,-1.25856 -5.0886,-3.73761c-0.43248,-2.47906 1.14458,-4.82501 3.52245,-5.23984z" fill="#000000" stroke="none" stroke-width="0"/><path d="M61.54699,130.20618l-1.04149,-5.97001l57.46211,-10.02452l1.04149,5.97001c0,0 -8.5709,8.46213 -27.01581,11.52977c-20.3058,3.37713 -30.44629,-1.50525 -30.44629,-1.50525z" fill="url(#color-21)" stroke="none" stroke-width="0"/><path d="M81.26323,76.7966c0.43154,-0.07528 3.72151,17.68578 6.34606,33.07818c-0.2476,-0.12964 -0.51627,-0.10355 -0.51627,-0.10355c-4.69309,0.47954 -19.44841,3.22041 -22.28489,3.61689c-5.13098,0.54393 -10.65871,1.91289 -15.83934,0.83303c-0.2439,-1.0681 -0.45697,-2.1501 -0.64683,-3.23837c-2.65917,-15.24277 12.08913,-30.54844 32.94124,-34.18619zM63.59498,96.63754c0.59456,3.66336 5.64979,8.56558 12.62162,7.78771c2.49466,-0.27833 9.01245,-5.49288 6.80438,-12.80318c-0.55582,-1.84018 -3.61279,-8.22796 -11.63562,-6.33085c-4.30749,1.01856 -8.8702,4.69304 -7.79038,11.34631z" fill="#ff0000" stroke="#000000" stroke-width="2"/><path d="M90.66378,130.68207c-29.05075,7.32491 -37.98541,-2.92052 -41.48205,-15.98716c5.14789,0.83078 10.52337,-0.41646 15.60203,-0.95182c2.89778,-0.40503 17.63432,-3.18403 22.24264,-3.61224c0,0 0.34745,-0.03375 0.57276,-0.28165c1.89286,11.1643 3.37583,20.7544 3.06465,20.83286z" fill="#ff0000" stroke="#000000" stroke-width="2"/><path d="M125.54573,97.7383c0.18985,1.08827 0.35574,2.1785 0.48791,3.26609c-4.50897,2.77025 -10.1737,3.35386 -15.18576,4.57943c-2.80317,0.5874 -17.61493,3.00463 -22.19317,4.1425c0,0 -0.26162,0.06642 -0.45071,0.27224c-2.74238,-15.37184 -5.66073,-33.19774 -5.22919,-33.27303c20.85211,-3.63774 39.91177,5.76999 42.57094,21.01277zM95.71629,80.76651c-8.19128,0.93151 -8.90474,7.97705 -8.80465,9.89673c0.39766,7.62613 8.2961,10.32571 10.73764,9.7429c6.82338,-1.62877 9.92009,-7.95315 9.2391,-11.6014c-1.2368,-6.62589 -6.77416,-8.53835 -11.1721,-8.03821z" data-paper-data="{&quot;index&quot;:null}" fill="#ff0000" stroke="#000000" stroke-width="2"/><path d="M88.2034,109.96259c0.29594,0.15697 0.63428,0.07107 0.63428,0.07107c4.4811,-1.15749 19.28812,-3.53249 22.15187,-4.13258c4.95995,-1.21592 10.4402,-1.86252 15.00269,-4.38732c1.13432,13.47876 -3.80344,26.14429 -33.61837,29.08876c-0.31938,0.03155 -2.17123,-9.49419 -4.17046,-20.63994z" data-paper-data="{&quot;index&quot;:null}" fill="#ff0000" stroke="#000000" stroke-width="2"/><path d="M85.88821,98.97579c6.21904,-1.08494 12.1401,3.07708 13.22504,9.29613c1.08494,6.21904 -3.07707,12.1401 -9.29612,13.22504c-6.21904,1.08494 -12.14012,-3.07708 -13.22506,-9.29612c-1.08494,-6.21904 3.07709,-12.14011 9.29614,-13.22505z" fill="#ff7b00" stroke="#000000" stroke-width="2"/></g><g stroke-linecap="butt"><path d="M387.80519,104.90761c17.66763,-1.10418 32.73516,9.92227 33.65425,24.62828c0.91909,14.70601 -12.65828,27.52271 -30.32592,28.62689c-17.66764,1.10419 -32.73516,-9.92227 -33.65425,-24.62828c-0.91909,-14.70601 12.65829,-27.52271 30.32593,-28.62689z" fill="#696969" stroke="#000000" stroke-width="2"/><path d="M388.33951,109.0465c15.31876,-0.95739 28.36141,8.25635 29.13158,20.57942c0.77016,12.32309 -11.02381,23.08904 -26.34257,24.04643c-15.31876,0.95739 -28.3614,-8.25635 -29.13157,-20.57943c-0.77016,-12.32309 11.0238,-23.08904 26.34256,-24.04643z" fill="none" stroke="url(#color-22)" stroke-width="4.5"/><g stroke="#000000"><path d="M422.52858,129.59284c0.91909,14.70601 -11.33307,26.94485 -29.0007,28.04904c-2.27635,0.14227 -2.53856,-4.24544 -0.32124,-5.82471c2.14927,0.38488 23.28817,-0.91283 22.00461,-18.97015c-1.97751,-24.95463 -35.56905,-27.30546 -26.33691,-27.88245c17.66764,-1.10419 32.73515,9.92227 33.65424,24.62828z" data-paper-data="{&quot;index&quot;:null}" fill="#1300d2" stroke-width="2"/><path d="M394.17722,154.28828c-2.27635,0.14227 -2.26356,-1.80855 -0.04624,-3.38783c2.14927,0.38488 22.76107,-3.45666 21.47751,-21.51399c-1.97751,-24.95463 -35.31696,-27.19851 -26.08482,-27.7755c17.66764,-1.10419 27.05718,11.32377 29.19298,27.852c1.30614,10.10773 -6.87181,23.72115 -24.53944,24.82533z" data-paper-data="{&quot;index&quot;:null}" fill="#ff0000" stroke-width="0"/></g><g stroke="#000000"><path d="M357.87219,133.88123c-0.91909,-14.70601 12.65829,-27.5227 30.32593,-28.62688c9.23214,-0.57699 -23.80528,5.93799 -22.66033,30.94467c0.61377,21.1361 25.87489,15.11656 24.19532,16.08275c2.3967,1.29091 2.68284,5.67714 0.40649,5.8194c-17.66764,1.10419 -31.34829,-9.51391 -32.26738,-24.21992z" fill="#1300d2" stroke-width="2"/><path d="M362.25619,132.6235c0.06127,-16.66553 7.83035,-30.16585 25.49799,-31.27004c9.23214,-0.57699 -23.5685,5.80049 -22.42354,30.80715c0.97472,18.07663 21.90445,19.32191 23.98907,18.67243c2.3967,1.29091 2.65229,3.22496 0.37594,3.36722c-17.66763,1.10418 -27.47693,-11.38506 -27.43946,-21.57677z" data-paper-data="{&quot;index&quot;:null}" fill="#ff0000" stroke-width="0"/></g><g stroke="none" stroke-width="0"><path d="M379.99887,135.16858l-1.43303,-22.92931l21.81982,-1.36369l1.43303,22.92931z" fill="url(#color-23)"/><path d="M397.34613,118.67665l-0.41604,-6.65689l2.58878,-0.16179l0.41604,6.65689z" fill="#ffffff"/><path d="M397.81995,126.25811l-0.41604,-6.65689l2.58878,-0.16179l0.41604,6.65689z" fill="#ffffff"/><path d="M398.28222,133.65465l-0.41604,-6.65689l2.58878,-0.16179l0.41604,6.65689z" fill="#ffffff"/><path d="M380.13759,119.56649l-0.41604,-6.65689l2.58879,-0.16179l0.41604,6.65689z" fill="#ffffff"/><path d="M380.61141,127.14797l-0.41604,-6.65689l2.58879,-0.16179l0.41604,6.65689z" fill="#ffffff"/><path d="M381.07368,134.54453l-0.41604,-6.65689l2.58879,-0.16179l0.41604,6.65689z" fill="#ffffff"/><path d="M391.49974,134.04141l-0.13868,-2.21897l4.99267,-0.31203l0.13868,2.21897z" fill="#ffffff"/><path d="M385.74044,134.36424l-0.13868,-2.21898l4.99268,-0.31203l0.13868,2.21898z" fill="#ffffff"/></g><path d="M386.24537,72.94313c18.78299,-1.17389 34.87196,11.6726 35.93572,28.69344c1.06376,17.02084 -3.74413,31.35765 -32.0835,32.94448c-29.935,1.67619 -34.87196,-11.67259 -35.93572,-28.69344c-1.06376,-17.02084 13.30051,-31.77059 32.0835,-32.94448z" fill="#696969" stroke="#000000" stroke-width="2"/><path d="M375.35638,101.21282l-0.7743,-12.38922l26.44266,-1.6526l0.7743,12.38922z" fill="url(#color-24)" stroke="#000000" stroke-width="0"/><path d="M380.0773,120.31483l-1.49081,-23.85388l19.23103,-1.20189l1.49081,23.85388z" fill="url(#color-25)" stroke="none" stroke-width="0"/><path d="M379.2778,119.92499l-9.01363,-28.62906l4.41807,-1.39098l9.01363,28.62906z" fill="url(#color-26)" stroke="none" stroke-width="0"/><path d="M395.36905,118.73265l5.37891,-29.52855l4.55688,0.83007l-5.37893,29.52857z" data-paper-data="{&quot;index&quot;:null}" fill="url(#color-27)" stroke="none" stroke-width="0"/><path d="M374.7957,121.94437l-0.4276,-6.84181l30.14094,-1.88374l0.4276,6.84181z" fill="url(#color-28)" stroke="none" stroke-width="0"/><path d="M370.363,124.02262c-0.85763,0.35018 -1.20782,-0.50747 -1.20782,-0.50747l-0.112,-0.30949c-0.52882,-0.8489 -1.04487,-2.04685 -1.79524,-2.7413c-0.28974,-0.26813 -1.37249,-0.66932 -1.60198,-0.82653c-3.15458,-2.16114 -8.32328,-6.08367 -5.66132,-10.34321c1.17472,-0.4653 4.89904,-1.11835 5.1319,-2.86858c0.33057,-2.48467 -1.52668,-4.36628 -0.54657,-7.0126c1.13517,-3.06501 4.59212,-4.87 7.20755,-6.57118c0,0 0.77659,-0.50504 1.28164,0.27156c0.50504,0.7766 -0.27155,1.28163 -0.27155,1.28163c-2.20401,1.43306 -5.518,3.05485 -6.47471,5.6464c-1.18899,3.22072 2.47771,6.44296 -1.02756,9.07639c-0.37081,0.27857 -0.81212,0.45205 -1.23974,0.63158c-0.63201,0.26536 -2.16043,0.74564 -2.89038,0.98091c-0.61969,1.05012 0.42255,2.5883 1.02118,3.47238c1.57693,2.32884 4.32953,3.07418 6.29343,4.86854c0.91448,0.83555 1.5003,2.11828 2.14585,3.15427l0.25478,0.58888c0,0 0.35017,0.85764 -0.50747,1.20782z" fill="#000000" stroke="none" stroke-width="0.5"/><path d="M363.70417,127.4118c-0.92585,0.03133 -0.95716,-0.89451 -0.95716,-0.89451l0.00216,-0.32914c-0.20193,-0.97955 -0.27093,-2.28209 -0.73421,-3.1935c-0.17888,-0.35191 -1.05555,-1.10341 -1.21634,-1.33042c-2.21036,-3.12028 -5.69979,-8.59072 -1.72684,-11.66407c1.26318,-0.02946 4.98307,0.6484 5.80793,-0.91274c1.171,-2.21622 0.08076,-4.62478 1.91706,-6.76759c2.12684,-2.48183 5.99505,-2.97723 9.03792,-3.6668c0,0 0.90348,-0.20469 1.10815,0.69879c0.20468,0.90348 -0.69881,1.10814 -0.69881,1.10814c-2.56402,0.58063 -6.23465,0.95371 -8.03004,3.05323c-2.23127,2.60924 0.09182,6.90235 -4.10876,8.15812c-0.44436,0.13284 -0.91844,0.14265 -1.38176,0.1629c-0.6848,0.02992 -2.28495,-0.04911 -3.05119,-0.08132c-0.94515,0.77036 -0.50046,2.57436 -0.24523,3.61111c0.67233,2.73096 2.99616,4.38388 4.2167,6.74756c0.56834,1.10063 0.67341,2.50688 0.92001,3.70238l0.03497,0.64068c0,0 0.03133,0.92582 -0.89453,0.95715z" fill="#000000" stroke="none" stroke-width="0.5"/><path d="M407.32904,119.79371l0.17949,-0.61603c0.51154,-1.10831 0.93309,-2.45401 1.73642,-3.39691c1.72521,-2.02491 4.36358,-3.10718 5.63828,-5.61424c0.48391,-0.95172 1.3265,-2.60773 0.58089,-3.57252c-0.75355,-0.14255 -2.32987,-0.42879 -2.99002,-0.61339c-0.44665,-0.12489 -0.90613,-0.24207 -1.30872,-0.47231c-3.80587,-2.1765 -0.56891,-5.83021 -2.14965,-8.87782c-1.27194,-2.45226 -4.76207,-3.64883 -7.12735,-4.79632c0,0 -0.83344,-0.40441 -0.42903,-1.23784c0.40442,-0.83344 1.23786,-0.42902 1.23786,-0.42902c2.80689,1.36228 6.46168,2.72282 7.96965,5.62264c1.30196,2.50368 -0.30655,4.60192 0.33081,7.0261c0.44896,1.70762 4.22561,1.89186 5.44912,2.20728c3.17161,3.89495 -1.46848,8.43053 -4.32944,10.9676c-0.20813,0.18458 -1.23251,0.71744 -1.48659,1.01956c-0.65806,0.78248 -1.02094,2.03535 -1.43994,2.94349l-0.07261,0.32103c0,0 -0.24066,0.89457 -1.13522,0.6539c-0.89456,-0.24067 -0.6539,-1.13524 -0.6539,-1.13524z" data-paper-data="{&quot;index&quot;:null}" fill="#000000" stroke="none" stroke-width="0.5"/><path d="M414.00522,122.62432l-0.04507,-0.64005c0.09585,-1.2169 0.02501,-2.6253 0.45188,-3.78812c0.91673,-2.49724 3.01668,-4.42664 3.34375,-7.22006c0.12416,-1.06045 0.34079,-2.90582 -0.69293,-3.55249c-0.75627,0.12739 -2.33411,0.40504 -3.01732,0.46062c-0.46225,0.0376 -0.93386,0.08689 -1.39129,0.01042c-4.32424,-0.72299 -2.55376,-5.27195 -5.09254,-7.58307c-2.04282,-1.85966 -5.73135,-1.77279 -8.3477,-2.02966c0,0 -0.92194,-0.09057 -0.83134,-1.01251c0.09059,-0.92194 1.01253,-0.83135 1.01253,-0.83135c3.10503,0.30534 7.00482,0.31526 9.42413,2.51297c2.08881,1.89749 1.30694,4.42307 2.74477,6.47623c1.01282,1.44628 4.61937,0.31055 5.87639,0.1825c4.32469,2.55475 1.54356,8.41709 -0.26112,11.78831c-0.13128,0.24525 -0.90757,1.10006 -1.04124,1.47152c-0.34619,0.962 -0.25248,2.263 -0.33087,3.26006l0.04311,0.3263c0,0 0.08421,0.92253 -0.83833,1.00674c-0.92254,0.08419 -1.00673,-0.83833 -1.00673,-0.83833z" data-paper-data="{&quot;index&quot;:null}" fill="#000000" stroke="none" stroke-width="0.5"/><path d="M410.79909,89.47185c0.32679,5.2288 -3.77954,9.74078 -9.17174,10.07778c-5.39221,0.337 -10.02835,-3.62859 -10.35514,-8.85739c-0.32679,-5.2288 3.77954,-9.74079 9.17174,-10.07778c5.3922,-0.337 10.02836,3.6286 10.35515,8.8574z" data-paper-data="{&quot;index&quot;:null}" fill="#ffffff" stroke="#000000" stroke-width="2"/><path d="M405.74988,89.47304c0.17301,2.76824 -1.83925,5.14687 -4.4945,5.31282c-2.65524,0.16595 -4.94801,-1.94363 -5.12101,-4.71187c-0.17301,-2.76824 1.83925,-5.14688 4.49449,-5.31282c2.65524,-0.16595 4.94801,1.94364 5.12102,4.71188z" data-paper-data="{&quot;index&quot;:null}" fill="#000000" stroke="none" stroke-width="0"/><path d="M374.76615,81.97171c5.39221,-0.337 10.02837,3.6286 10.35515,8.85739c0.32679,5.2288 -3.77955,9.74078 -9.17175,10.07778c-5.39221,0.337 -10.02836,-3.62859 -10.35515,-8.85739c-0.32679,-5.2288 3.77953,-9.74077 9.17174,-10.07778z" fill="#ffffff" stroke="#000000" stroke-width="2"/><path d="M375.09897,86.10919c2.65524,-0.16595 4.94801,1.94363 5.12101,4.71187c0.17301,2.76824 -1.83925,5.14686 -4.4945,5.31281c-2.65524,0.16595 -4.94802,-1.94363 -5.12102,-4.71186c-0.17301,-2.76824 1.83926,-5.14687 4.49451,-5.31281z" fill="#000000" stroke="none" stroke-width="0"/><path d="M363.28439,128.61371l-0.41664,-6.66642l51.51467,-3.21954l0.41664,6.66642c0,0 -8.26937,8.09612 -24.79258,8.96542c-18.19021,0.957 -26.72207,-5.74588 -26.72207,-5.74588z" fill="url(#color-29)" stroke="none" stroke-width="0"/><path d="M383.92694,71.95917c0.38899,-0.02431 1.79825,19.83432 2.81863,37.01409c-0.20851,-0.17499 -0.44891,-0.18257 -0.44891,-0.18257c-4.20147,-0.10642 -17.51578,0.90709 -20.06417,0.95935c-4.59515,-0.09488 -9.61208,0.65887 -14.11343,-1.21782c-0.12557,-1.20044 -0.22264,-2.41191 -0.29859,-3.62713c-1.06376,-17.02084 13.3108,-31.77123 32.10647,-32.94591zM375.12194,100.37465c3.53758,-0.95988 8.79208,-3.58048 7.45496,-11.86887c-0.33659,-2.08638 -3.74216,-8.49356 -9.73803,-7.83746c-3.90536,0.53466 -10.46795,3.81802 -9.7625,10.17607c0.88394,7.96669 5.79851,9.44375 12.04557,9.53026z" fill="#1300d2" stroke="#000000" stroke-width="2"/><path d="M389.73922,133.00409c-26.55282,4.11475 -33.64581,-8.28368 -35.6438,-23.03767c4.52241,1.59818 9.42639,0.95503 14.00437,1.05037c2.62066,-0.05446 16.00962,-1.11768 20.15869,-0.96822c0,0 0.31294,0.00966 0.53529,-0.23116c0.73023,12.45928 1.2299,23.14258 0.94547,23.18667z" fill="#1300d2" stroke="#000000" stroke-width="2"/><path d="M387.82813,73.08541c18.79567,-1.17468 34.89493,11.67116 35.9587,28.692c0.07595,1.21522 0.13048,2.42935 0.15534,3.63608c-4.23266,2.42254 -9.3044,2.29932 -13.85198,2.96559c-2.53507,0.26544 -15.87196,0.91757 -20.02749,1.54628c0,0 -0.23759,0.03745 -0.42269,0.23705c-1.1266,-17.17313 -2.20088,-37.05269 -1.8119,-37.07701zM410.86781,89.22761c-0.09168,-6.39641 -7.012,-8.83712 -10.95354,-8.88136c-6.0309,0.09553 -8.61222,6.87687 -8.68642,8.98894c-0.29475,8.39038 5.24517,10.33637 8.87473,10.84831c6.18767,-0.86365 10.8801,-2.94113 10.76522,-10.95588z" data-paper-data="{&quot;index&quot;:null}" fill="#1300d2" stroke="#000000" stroke-width="2"/><path d="M393.68509,134.62852c-0.2877,-0.00833 -1.12208,-10.67071 -1.94883,-23.12396c0.2506,0.21126 0.5599,0.16272 0.5599,0.16272c4.09817,-0.6649 17.51533,-1.277 20.12237,-1.54926c4.53048,-0.6646 9.47638,-0.63704 13.76461,-2.78587c-0.14544,14.88794 -5.63952,28.07303 -32.49804,27.29636z" data-paper-data="{&quot;index&quot;:null}" fill="#1300d2" stroke="#000000" stroke-width="2"/><path d="M388.32459,96.86462c5.27378,-0.3296 9.90087,5.03284 10.33488,11.97735c0.43401,6.9445 -3.48938,12.84132 -8.76318,13.17092c-5.27378,0.3296 -9.90089,-5.03284 -10.33491,-11.97733c-0.43401,-6.9445 3.48942,-12.84134 8.7632,-13.17094z" fill="#ff00cc" stroke="#000000" stroke-width="2"/></g><g stroke-linecap="butt"><path d="M163.42837,224.99272c-3.3276,8.09834 -7.42768,14.08704 -9.15778,13.37615c-1.7301,-0.71089 -0.43507,-7.85219 2.89253,-15.95052c3.3276,-8.09834 13.15971,-11.73175 14.88981,-11.02086c1.7301,0.71089 -5.29696,5.4969 -8.62456,13.59523z" fill="#ffe400" stroke="#000000" stroke-width="1"/><path d="M152.93666,222.36277c2.95633,8.24111 3.92568,15.43386 2.16506,16.06544c-1.76061,0.63158 -5.58444,-5.53716 -8.54077,-13.77828c-2.95633,-8.24113 1.90741,-17.52637 3.66802,-18.15795c1.76061,-0.63158 -0.24865,7.62968 2.70768,15.8708z" fill="#ffe400" stroke="#000000" stroke-width="1"/><path d="M145.04569,224.68001c6.8093,5.50357 11.3762,11.1444 10.20043,12.5991c-1.17577,1.45472 -7.64895,-1.82753 -14.45825,-7.33111c-6.8093,-5.50357 -7.48074,-15.96404 -6.30498,-17.41875c1.17577,-1.45472 3.7535,6.64719 10.5628,12.15076z" fill="#ffe400" stroke="#000000" stroke-width="1"/><path d="M120.54115,289.27718c-5.22772,-21.23847 18.15265,-52.78228 31.96715,-56.51637c13.09086,-3.21689 47.39754,14.45599 52.62526,35.69445c5.22773,21.23848 -9.47102,43.11681 -32.83056,48.86662c-23.35954,5.74981 -46.5341,-6.80623 -51.76183,-28.0447z" data-paper-data="{&quot;index&quot;:null}" fill="#696969" stroke="#000000" stroke-width="2"/><path d="M178.33271,305.03854l-5.06249,-21.11021l3.25776,-0.78123l5.0625,21.1102z" fill="url(#color-30)" stroke="none" stroke-width="0"/><path d="M158.16078,310.27312l-5.06249,-21.11021l3.25775,-0.78125l5.06249,21.11022z" fill="url(#color-31)" stroke="none" stroke-width="0"/><path d="M156.85858,280.01178c0.14257,0.50334 -0.36078,0.64592 -0.36078,0.64592l-0.34827,0.09861c-2.45983,0.71967 -5.15442,1.5548 -6.27843,4.08213c-1.17569,2.56087 -3.51532,2.5327 -4.89485,4.5997c-0.52212,0.78233 -0.51265,2.52528 -1.18267,3.28484c0.66426,1.01471 1.78492,1.53829 3.41114,0.95632c0.05933,-0.02124 1.3296,-0.62097 1.45176,-0.78596c0.61177,-0.82632 0.23439,-3.91726 0.78884,-5.21076c1.07206,-0.91643 2.2315,-0.99712 3.43606,-1.62866c1.69984,-0.89125 2.65159,-2.52464 3.72637,-4.02679l0.2789,-0.40222c0,0 0.29814,-0.42986 0.72801,-0.13172c0.42988,0.29815 0.13173,0.72802 0.13173,0.72802l-0.28776,0.41476c-1.18588,1.65731 -2.24333,3.36816 -4.11181,4.355c-1.00187,0.52915 -2.16299,0.57242 -3.0545,1.30583c-0.52788,1.42257 0.00064,3.99794 -0.72687,5.11465c-0.99528,1.52771 -4.45291,2.34498 -5.73043,0.99556c-0.36187,-0.38225 -0.66911,-0.77824 -0.92362,-1.18617c-2.16831,0.74614 -4.0066,-0.87376 -5.50721,-2.2212c-0.24328,-0.21844 -1.67922,-1.47143 -1.7211,-1.688c-0.04187,-0.21657 0.8235,-1.91453 0.96781,-2.20792c0.099,-0.20129 0.94737,-1.95058 1.04541,-2.03776c0.97527,-0.86713 2.97282,-0.55907 3.92377,-1.37453c1.06398,-0.91238 1.23483,-4.28595 1.85211,-5.58644c0.9122,-1.92182 3.01395,-2.82258 4.62554,-4.06125c0,0 0.41479,-0.3188 0.73358,0.09599c0.02065,0.02687 0.03824,0.05332 0.05303,0.07934c0.0625,-0.0264 0.12412,-0.05304 0.18471,-0.08006c0,0 0.47785,-0.21293 0.69077,0.26493c0.21291,0.47785 -0.26493,0.69077 -0.26493,0.69077c-1.13882,0.50735 -3.22447,0.93036 -3.81797,2.17851c-1.26086,2.65162 1.76814,5.51067 0.39117,8.00429c-0.55549,1.00599 -1.79799,1.70486 -2.681,2.41091c-0.40465,1.19971 -0.45465,2.66751 -0.10796,3.87736c0.39516,-0.9801 0.85686,-3.08395 1.44578,-3.60217c1.74859,-1.53871 3.15198,-1.28399 4.19509,-3.56127c1.32609,-2.82146 4.12582,-3.82809 6.93568,-4.65017l0.35693,-0.10112c0,0 0.50334,-0.14257 0.6459,0.36077zM142.35921,284.43199c-1.88999,1.72758 -3.50177,0.55633 -4.76943,3.13353c-0.26187,0.53238 -0.99202,0.96498 -0.87941,1.54747c0.11264,0.5825 0.95143,0.71175 1.39289,1.10814c1.35593,1.21753 2.44538,2.39873 4.29971,2.00375c-0.644,-1.59646 -0.56803,-3.3405 0.12733,-5.13691c0.79477,-0.69514 2.08143,-1.39397 2.61852,-2.31c0.99528,-1.69753 -0.62509,-4.00924 -0.7486,-6.18678c-0.69346,1.53528 -0.79619,4.70297 -2.041,5.84081z" fill="#000000" stroke="none" stroke-width="0.5"/><path d="M166.29733,276.4504l0.36308,-0.0761c2.87041,-0.57608 5.81751,-0.98401 8.30171,0.89956c1.98101,1.53293 3.10581,0.65594 5.36882,1.20719c0.76218,0.18565 2.14765,1.8348 2.9526,2.51952c-0.25449,-1.23255 -0.98009,-2.50942 -1.89537,-3.38425c-1.10985,-0.21552 -2.53477,-0.25782 -3.49374,-0.89103c-2.3771,-1.56957 -1.02125,-5.50792 -3.36884,-7.27133c-1.10504,-0.83007 -3.14875,-0.23667 -4.39295,-0.15746c0,0 -0.5221,0.03321 -0.55529,-0.48888c-0.03322,-0.52208 0.48889,-0.55529 0.48889,-0.55529c0.06621,-0.0042 0.13315,-0.00919 0.20077,-0.01482c0.00104,-0.02991 0.00432,-0.06149 0.01014,-0.09489c0.08985,-0.51536 0.60521,-0.42552 0.60521,-0.42552c2.00241,0.3491 4.28213,0.17138 5.98216,1.45023c1.1504,0.8654 2.86763,3.77422 4.23354,4.0885c1.22082,0.2809 2.84715,-0.91916 4.11349,-0.60379c0.12731,0.0317 1.69072,1.18735 1.87184,1.31969c0.264,0.19289 1.81863,1.29518 1.88207,1.50644c0.06343,0.21126 -0.62686,1.9876 -0.74095,2.29402c-0.70373,1.89004 -1.5801,4.17813 -3.84701,4.52369c-0.03608,0.47944 -0.1244,0.97281 -0.26751,1.47936c-0.5052,1.78824 -3.94715,2.66925 -5.53782,1.77805c-1.16273,-0.65143 -1.88998,-3.17789 -3.01787,-4.1929c-1.13006,-0.2358 -2.17862,0.26482 -3.31164,0.26116c-2.11305,-0.00681 -3.84379,-1.03137 -5.66347,-1.94889l-0.44738,-0.23383c0,0 -0.46361,-0.24236 -0.22124,-0.70598c0.24237,-0.46362 0.70597,-0.22125 0.70597,-0.22125l0.43373,0.22681c1.64924,0.83164 3.25041,1.83666 5.16972,1.83707c1.36008,0.0003 2.42452,-0.46644 3.79945,-0.15232c1.0915,0.88836 2.19195,3.80133 3.11737,4.24927c0.18479,0.08944 1.58831,0.03103 1.65071,0.02231c1.71055,-0.23935 2.46013,-1.22329 2.57751,-2.43038c-0.94603,-0.36178 -1.74665,-1.91001 -2.57224,-2.36058c-2.18135,-1.19052 -4.24059,-0.0796 -6.47063,-1.80217c-2.16869,-1.71685 -4.94307,-1.20582 -7.45591,-0.7015l-0.35424,0.0743c0,0 -0.51201,0.10735 -0.61937,-0.40465c-0.10735,-0.51201 0.40466,-0.61936 0.40466,-0.61936zM176.26826,270.02873c0.90134,1.98609 0.53912,4.78579 2.20863,5.82739c0.90092,0.56208 2.36495,0.58384 3.39158,0.83065c1.44973,1.2684 2.32655,2.77796 2.49716,4.49093c1.8258,-0.51086 2.24249,-2.06282 2.87838,-3.77061c0.20701,-0.55601 0.89001,-1.05982 0.71939,-1.62806c-0.17061,-0.56823 -1.01816,-0.61249 -1.49723,-0.9625c-2.31907,-1.69433 -3.20304,0.09122 -5.67898,-0.5617c-1.63073,-0.43004 -3.19206,-3.18812 -4.51892,-4.22611z" data-paper-data="{&quot;index&quot;:null}" fill="#000000" stroke="none" stroke-width="0.5"/><path d="M151.42326,278.00211l-2.14591,-8.7181l18.60727,-4.58007l2.14591,8.7181z" fill="url(#color-32)" stroke="#000000" stroke-width="0"/><path d="M157.2422,290.98986l-4.13167,-16.78559l17.0884,-4.20621l4.13167,16.78559z" fill="url(#color-33)" stroke="none" stroke-width="0"/><path d="M156.62299,290.8153l-10.10056,-19.21583l2.9654,-1.55873l10.10058,19.21584z" fill="url(#color-34)" stroke="none" stroke-width="0"/><path d="M171.73194,286.95755l0.02724,-21.70874l3.35011,0.0042l-0.02723,21.70875z" data-paper-data="{&quot;index&quot;:null}" fill="url(#color-35)" stroke="none" stroke-width="0"/><path d="M179.70927,263.95801c0.90567,3.67943 -1.43613,7.41931 -5.23053,8.35328c-3.79442,0.93397 -7.60455,-1.29165 -8.51022,-4.97107c-0.90567,-3.67943 1.4361,-7.41933 5.23051,-8.3533c3.79441,-0.93397 7.60458,1.29167 8.51025,4.97109z" data-paper-data="{&quot;index&quot;:null}" fill="#ffffff" stroke="#000000" stroke-width="2"/><path d="M176.11575,264.60881c0.47948,1.94796 -0.64651,3.89994 -2.51498,4.35985c-1.86846,0.45991 -3.77184,-0.7464 -4.25132,-2.69437c-0.47948,-1.94796 0.64651,-3.89995 2.51496,-4.35986c1.86846,-0.45991 3.77185,0.7464 4.25133,2.69437z" data-paper-data="{&quot;index&quot;:null}" fill="#000000" stroke="none" stroke-width="0"/><path d="M153.69288,292.82952l-1.18505,-4.81447l24.25757,-5.97086l1.18505,4.81447z" fill="url(#color-36)" stroke="none" stroke-width="0"/><path d="M148.52633,264.38366c3.79442,-0.93397 7.60457,1.29166 8.51023,4.97108c0.90567,3.67943 -1.43613,7.41932 -5.23052,8.35329c-3.79442,0.93397 -7.60458,-1.29166 -8.51025,-4.97108c-0.90567,-3.67943 1.4361,-7.41931 5.23053,-8.35329z" fill="#ffffff" stroke="#000000" stroke-width="2"/><path d="M149.29582,267.28556c1.86844,-0.45991 3.77184,0.7464 4.25132,2.69437c0.47948,1.94796 -0.64652,3.89994 -2.51497,4.35985c-1.86844,0.45991 -3.77184,-0.74641 -4.25132,-2.69437c-0.47948,-1.94796 0.6465,-3.89993 2.51497,-4.35985z" fill="#000000" stroke="none" stroke-width="0"/><path d="M148.39305,263.4944c3.81698,-0.8644 7.24292,0.19506 7.65208,2.36634c0.20683,1.09764 -3.49725,-0.84948 -6.99289,-0.07048c-3.41927,0.76198 -6.62728,4.27441 -6.8296,3.20076c-0.40915,-2.17128 2.35342,-4.6322 6.17041,-5.49659z" fill="#e000ff" stroke="#000000" stroke-width="1"/><path d="M171.45206,258.68043c3.81594,-0.86861 7.2156,0.08401 7.59336,2.12773c0.19096,1.03315 -3.47363,-0.75345 -6.96814,0.03012c-3.41817,0.76645 -6.66381,4.12601 -6.8506,3.11543c-0.37775,-2.04373 2.40943,-4.40464 6.22537,-5.27326z" fill="#e000ff" stroke="#000000" stroke-width="1"/><path d="M161.48974,305.32919c0.30527,-0.07514 7.03633,-1.75099 7.32363,-1.85873c1.8754,8.47855 2.97493,14.24749 2.53619,14.35548c-20.80981,5.12221 -41.59775,-5.35611 -48.75777,-23.73796c0.02117,0.01594 0.04236,0.03187 0.06359,0.04777c3.18144,2.3827 6.57813,4.74389 16.06771,7.08373c9.10639,0.47331 15.18927,-0.96469 19.28042,-2.03782c0.84932,3.56941 2.05121,6.50076 3.48624,6.14754z" data-paper-data="{&quot;index&quot;:null}" fill="#ffe400" stroke="#000000" stroke-width="2"/><path d="M176.90201,294.52991c4.12184,-0.94845 10.1772,-2.4982 18.02348,-7.14431c7.31932,-6.47725 9.23195,-10.1453 10.94393,-13.73248c0.01143,-0.02394 0.02281,-0.04788 0.03415,-0.07182c2.19025,19.60513 -11.35894,38.53533 -32.16877,43.65755c-0.43874,0.10799 -2.14259,-5.5122 -4.41691,-13.89255c0.30449,-0.03792 7.04439,-1.67787 7.34966,-1.75301c1.43504,-0.35323 1.13897,-3.50754 0.23446,-7.06336z" data-paper-data="{&quot;index&quot;:null}" fill="#ffe400" stroke="#000000" stroke-width="2"/><g stroke="#000000"><path d="M168.06739,295.17381c25.91645,-6.28235 10.80231,27.37664 6.97074,28.31976c-4.02683,0.99118 -36.02478,-21.27682 -6.97074,-28.31976z" fill="#ffe400" stroke-width="2"/><path d="M168.26174,296.47278c17.31646,-4.19765 7.21771,18.29209 4.6576,18.92225c-2.69059,0.66227 -24.07047,-14.21642 -4.6576,-18.92225z" fill="#ff0700" stroke-width="1"/></g><g fill="#ffe400" stroke="#000000" stroke-width="2"><path d="M121.30311,289.08963c-5.22772,-21.23847 17.09461,-52.52185 30.40858,-56.13273c0.22074,-0.2139 8.03452,30.56003 13.80989,55.03714c-0.38437,0.03582 -0.77089,0.10048 -1.15707,0.19554c-4.09437,1.0078 -12.09398,3.0594 -10.23398,10.95875c-3.99933,1.05973 -3.93051,1.34923 -15.99816,0.86492c-10.61291,-0.93065 -16.74758,-10.59185 -16.82924,-10.92362zM152.30651,278.49685c4.20822,-1.03583 6.77996,-5.28699 5.74413,-9.4952c-1.03583,-4.20821 -5.28698,-6.77994 -9.4952,-5.74412c-4.20822,1.03583 -6.77995,5.28697 -5.74412,9.49519c1.03583,4.20821 5.28698,6.77996 9.49519,5.74413z" data-paper-data="{&quot;index&quot;:null}"/><path d="M161.35778,273.66503c1.00894,-0.24834 8.95695,26.78864 6.72886,27.33708c-3.74819,0.92259 -6.35415,-6.37938 -9.27743,-8.38662c-2.45932,-1.68866 -6.15828,-0.4795 -6.92183,-3.58153c-1.67114,-6.78926 2.56891,-13.67017 9.4704,-15.36893z"/></g><g data-paper-data="{&quot;index&quot;:null}" fill="#ffe400" stroke="#000000" stroke-width="2"><path d="M205.73694,268.57612c0.08166,0.33177 -0.84697,11.73155 -9.75801,17.46793c-10.3981,6.01413 -11.23146,6.9903 -15.24222,7.90221c-2.01864,-7.86029 -9.24968,-7.24046 -13.32006,-6.23857c-0.3839,0.09449 -0.75407,0.21608 -1.10898,0.36223c-6.24454,-24.36162 -13.60902,-55.24615 -13.31572,-55.15878c13.39043,-2.96224 47.51727,14.42651 52.74499,35.66498zM180.44406,263.48965c-1.03583,-4.20821 -5.26699,-6.78487 -9.45057,-5.7551c-4.18357,1.02976 -6.73533,5.27599 -5.6995,9.4842c1.03583,4.20821 5.26699,6.78488 9.45057,5.75511c4.18357,-1.02976 6.73533,-5.276 5.6995,-9.48422z" data-paper-data="{&quot;index&quot;:null}"/><path d="M178.14019,283.30488c0.76354,3.10202 -3.27018,3.79622 -4.6534,6.4307c-1.64417,3.13149 -0.04982,9.94957 -3.77606,10.86676c-2.21504,0.54522 -8.19258,-26.97679 -7.18954,-27.22368c6.86106,-1.68881 13.94786,3.13695 15.619,9.92622z"/></g></g><g stroke-linecap="butt"><path d="M322.21614,250.25748c19.82595,3.2729 33.68962,19.30405 30.96536,35.80658c-2.72426,16.50253 -21.00483,27.22727 -40.83079,23.95437c-19.82596,-3.2729 -33.68962,-19.30405 -30.96536,-35.80658c2.72426,-16.50253 21.00483,-27.22727 40.83079,-23.95437z" fill="#696969" stroke="#000000" stroke-width="2"/><path d="M321.75436,254.97213c17.19014,2.83777 29.2749,16.34847 26.99207,30.17697c-2.28283,13.82851 -18.06879,22.73826 -35.25893,19.90048c-17.19014,-2.83777 -29.27489,-16.34847 -26.99206,-30.17697c2.28283,-13.82851 18.06878,-22.73826 35.25892,-19.90048z" fill="none" stroke="url(#color-37)" stroke-width="4.5"/><g stroke="none" stroke-width="0"><path d="M305.88228,281.74837l4.24761,-25.73041l24.48539,4.04208l-4.24761,25.73041z" fill="url(#color-38)"/><path d="M329.26827,267.91677l1.23318,-7.47011l2.90503,0.47957l-1.23318,7.47011z" fill="#ffffff"/><path d="M327.86381,276.42447l1.23318,-7.47011l2.90503,0.47957l-1.23318,7.47011z" fill="#ffffff"/><path d="M326.49361,284.72461l1.23318,-7.47011l2.90503,0.47957l-1.23318,7.47011z" fill="#ffffff"/><path d="M310.00472,264.52354l1.23318,-7.47011l2.90505,0.47957l-1.23318,7.47011z" fill="#ffffff"/><path d="M308.60025,273.03127l1.23318,-7.47011l2.90505,0.47957l-1.23318,7.47011z" fill="#ffffff"/><path d="M307.23005,281.33139l1.23318,-7.47011l2.90505,0.47957l-1.23318,7.47011z" fill="#ffffff"/><path d="M318.89201,283.42709l0.41106,-2.49005l5.60258,0.92488l-0.41106,2.49005z" fill="#ffffff"/><path d="M312.43858,282.31912l0.41106,-2.49005l5.6026,0.92488l-0.41106,2.49005z" fill="#ffffff"/></g><path d="M287.28324,263.85363c12.13965,-11.50583 33.1865,-9.01011 47.00948,5.57433c7.22313,7.62103 -22.50107,-16.41144 -43.44802,2.78953c-17.96241,15.92071 5.66946,33.5408 3.60527,32.78127c0.62032,3.02721 -2.99171,6.46941 -4.7727,4.59031c-13.82297,-14.58444 -14.53368,-34.22957 -2.39403,-45.7354z" fill="#0096ff" stroke="#000000" stroke-width="2"/><path d="M353.94337,277.85112c4.75007,16.03721 -5.69866,32.68837 -24.96557,38.39504c-2.48241,0.73526 -3.88635,-4.05267 -1.83405,-6.36284c2.47562,-0.11978 25.53398,-6.92177 19.52992,-26.57429c-8.52275,-27.10745 -46.28473,-21.18099 -36.21689,-24.16298c19.26692,-5.70668 38.73653,2.66788 43.48659,18.70509z" data-paper-data="{&quot;index&quot;:null}" fill="#0096ff" stroke="#000000" stroke-width="2"/><path d="M327.09796,226.61163c24.23066,4.00003 41.76218,20.03225 39.15774,35.80895c-2.60444,15.77671 -12.07346,27.52645 -48.58926,21.32356c-38.57179,-6.55213 -41.76217,-20.03225 -39.15772,-35.80896c2.60444,-15.77671 24.35858,-25.32359 48.58924,-21.32355z" fill="#696969" stroke="#000000" stroke-width="2"/><path d="M309.74765,265.33613l4.41889,-26.76793l21.58034,3.56251l-4.41889,26.76793z" fill="url(#color-39)" stroke="none" stroke-width="0"/><path d="M308.96237,264.70146l-3.1793,-30.99171l5.22266,-0.30137l3.1793,30.99172z" fill="url(#color-40)" stroke="none" stroke-width="0"/><path d="M327.05186,267.5666l13.06962,-28.92003l4.84495,1.98668l-13.06963,28.92004z" data-paper-data="{&quot;index&quot;:null}" fill="url(#color-41)" stroke="none" stroke-width="0"/><path d="M303.49027,265.79525l1.26743,-7.67762l33.82303,5.58355l-1.26743,7.67762z" fill="url(#color-42)" stroke="none" stroke-width="0"/><path d="M298.05785,266.96676c-1.03784,0.16922 -1.20707,-0.86865 -1.20707,-0.86865l-0.04518,-0.37087c-0.36907,-1.07364 -0.63521,-2.53015 -1.28865,-3.48928c-0.25232,-0.37033 -1.34806,-1.08959 -1.56195,-1.32189c-2.94003,-3.19327 -7.66014,-8.84748 -3.63174,-12.88248c1.41792,-0.21591 5.70412,0.00906 6.40696,-1.86792c0.99776,-2.66461 -0.57819,-5.21863 1.17926,-7.89683c2.03549,-3.10194 6.31896,-4.21933 9.64507,-5.43595c0,0 0.9876,-0.36116 1.34876,0.62644c0.36116,0.9876 -0.62644,1.34874 -0.62644,1.34874c-2.80277,1.02467 -6.88147,1.97576 -8.59911,4.59933c-2.13465,3.2605 1.102,7.75792 -3.44567,9.77949c-0.48108,0.21385 -1.01342,0.29349 -1.53215,0.38332c-0.76668,0.13278 -2.57969,0.27529 -3.44705,0.34987c-0.95269,1.00407 -0.19098,2.97083 0.24636,4.10115c1.15207,2.97746 4.00756,4.50223 5.7237,6.98686c0.79911,1.15697 1.12087,2.72503 1.57147,4.03533l0.13205,0.71626c0,0 0.16921,1.03785 -0.86865,1.20707z" fill="#000000" stroke="none" stroke-width="0.5"/><path d="M289.82927,269.02215c-1.0322,-0.20087 -0.83132,-1.23305 -0.83132,-1.23305l0.08611,-0.36356c0.02579,-1.135 0.28082,-2.59351 0.00016,-3.71962c-0.10837,-0.43482 -0.88702,-1.48918 -1.00716,-1.78121c-1.65148,-4.01414 -4.1201,-10.95355 1.05685,-13.34282c1.40491,0.28875 5.34764,1.98493 6.65729,0.46773c1.85921,-2.15384 1.26583,-5.09568 3.84236,-6.99906c2.98419,-2.20452 7.38947,-1.76855 10.93111,-1.75732c0,0 1.05156,0.00339 1.04814,1.05495c-0.00341,1.05156 -1.05496,1.04813 -1.05496,1.04813c-2.98419,-0.00992 -7.13978,-0.53096 -9.66005,1.33494c-3.13213,2.31891 -1.65429,7.65918 -6.62069,7.97982c-0.52538,0.03391 -1.05232,-0.07582 -1.57004,-0.17129c-0.76519,-0.1411 -2.51527,-0.6356 -3.35474,-0.86615c-1.24155,0.61179 -1.20853,2.72062 -1.1899,3.93246c0.04906,3.1922 2.19934,5.61191 2.94829,8.53725c0.34875,1.36216 0.10724,2.94458 0.07593,4.32985l-0.12429,0.71766c0,0 -0.20086,1.03218 -1.23308,0.83131z" fill="#000000" stroke="none" stroke-width="0.5"/><path d="M340.02782,271.69212l0.35528,-0.63583c0.84784,-1.09595 1.65651,-2.47742 2.78507,-3.31615c2.42365,-1.80121 5.6177,-2.32733 7.66561,-4.77652c0.77743,-0.92975 2.13083,-2.54739 1.55142,-3.80437c-0.79736,-0.34939 -2.46838,-1.06705 -3.15171,-1.4392c-0.46234,-0.25178 -0.94084,-0.4983 -1.32764,-0.85542c-3.65662,-3.37595 0.85377,-6.59447 -0.11968,-10.36805c-0.78328,-3.03641 -4.33989,-5.24797 -6.66461,-7.1191c0,0 -0.81912,-0.6594 -0.15972,-1.47852c0.65941,-0.81912 1.47853,-0.15971 1.47853,-0.15971c2.75861,2.22108 6.45567,4.65592 7.3862,8.24749c0.80341,3.10094 -1.50979,5.01296 -1.42138,7.85687c0.06228,2.00329 4.19337,3.16784 5.46666,3.82802c2.51781,5.11566 -3.76914,8.95283 -7.57952,11.03171c-0.2772,0.15125 -1.54599,0.48015 -1.90393,0.74974c-0.92704,0.69822 -1.64719,1.99192 -2.34174,2.88997l-0.16199,0.33667c0,0 -0.4938,0.92842 -1.4222,0.4346c-0.9284,-0.49381 -0.4346,-1.42222 -0.4346,-1.42222z" data-paper-data="{&quot;index&quot;:null}" fill="#000000" stroke="none" stroke-width="0.5"/><path d="M346.69333,276.52184l0.11296,-0.71953c0.4156,-1.32183 0.69551,-2.89792 1.46355,-4.07571c1.64941,-2.5294 4.46332,-4.12962 5.53576,-7.13668c0.40713,-1.14156 1.1162,-3.12791 0.13714,-4.10626c-0.86904,-0.05146 -2.68518,-0.1457 -3.45513,-0.258c-0.52094,-0.07599 -1.0552,-0.14144 -1.54179,-0.3424c-4.59983,-1.89985 -1.48401,-6.48181 -3.70466,-9.68435c-1.78683,-2.57695 -5.88941,-3.41916 -8.71844,-4.36889c0,0 -0.99686,-0.33472 -0.66212,-1.33159c0.33475,-0.99686 1.33161,-0.66211 1.33161,-0.66211c3.35731,1.12766 7.66898,2.1307 9.78631,5.17739c1.82807,2.6305 0.32065,5.22555 1.38896,7.86266c0.75253,1.85761 5.03124,1.51865 6.45441,1.69677c4.13435,3.92638 -0.43362,9.70419 -3.28766,12.97455c-0.20762,0.23791 -1.28385,0.98608 -1.52623,1.36301c-0.6277,0.97616 -0.85498,2.43925 -1.19535,3.52232l-0.03532,0.37194c0,0 -0.14152,1.04199 -1.18351,0.90046c-1.04199,-0.14154 -0.90046,-1.18351 -0.90046,-1.18351z" data-paper-data="{&quot;index&quot;:null}" fill="#000000" stroke="none" stroke-width="0.5"/><path d="M282.88704,269.22608l1.23494,-7.4808l72.00364,11.88647l-1.23494,7.4808c0,0 -13.61646,6.45517 -36.6671,2.46237c-25.37619,-4.39564 -35.33653,-14.34883 -35.33653,-14.34883z" fill="url(#color-43)" stroke="none" stroke-width="0"/><path d="M308.62021,247.63234l2.29508,-13.90272l29.67296,4.89846l-2.29508,13.90272z" fill="url(#color-44)" stroke="#000000" stroke-width="0"/><path d="M312.89694,232.22561c4.64482,0.76677 7.80743,5.03964 7.06389,9.54369c-0.74354,4.50406 -5.11165,7.53374 -9.75648,6.76696c-4.64482,-0.76677 -7.80743,-5.03963 -7.06389,-9.54369c0.74354,-4.50406 5.11165,-7.53374 9.75648,-6.76696z" fill="#ffffff" stroke="#000000" stroke-width="2"/><path d="M312.56493,236.04886c2.28722,0.37758 3.82227,2.61672 3.42862,5.00127c-0.39364,2.38454 -2.56692,4.01152 -4.85413,3.63394c-2.28722,-0.37758 -3.82226,-2.61673 -3.42862,-5.00127c0.39364,-2.38454 2.56693,-4.01151 4.85413,-3.63394z" fill="#000000" stroke="none" stroke-width="0"/><path d="M321.00943,221.78312c0.49558,0.08181 -2.19977,17.73697 -4.78197,32.95789c-0.22332,-0.20748 -0.52451,-0.27772 -0.52451,-0.27772c-5.26971,-1.20478 -22.27335,-3.84715 -25.49598,-4.47625c-5.76834,-1.29893 -12.25915,-1.97101 -17.50814,-4.79574c0.11205,-1.07793 0.2625,-2.15792 0.4404,-3.23558c2.49176,-15.0941 23.92397,-24.12568 47.87018,-20.1726zM305.73811,244.80865c5.11314,0.84408 9.94241,-2.61666 10.78649,-7.7298c0.84408,-5.11314 -2.61666,-9.94241 -7.7298,-10.78649c-5.11314,-0.84408 -9.94241,2.61666 -10.78649,7.7298c-0.84408,5.11314 2.61666,9.94241 7.7298,10.78649z" fill="#0096ff" stroke="#000000" stroke-width="2"/><path d="M316.86302,281.52899c-34.38071,-3.43474 -40.5146,-16.16773 -39.69759,-29.6125c5.33613,2.59748 11.65942,3.33408 17.40515,4.63073c3.31376,0.64682 20.42126,3.26429 25.61442,4.49466c0,0 0.39206,0.09139 0.72659,-0.0605c-1.89557,11.10007 -3.68026,20.5844 -4.04854,20.54762z" fill="#0096ff" stroke="#000000" stroke-width="2"/><path d="M337.27671,236.25026c4.64482,0.76677 7.80743,5.03964 7.06389,9.54369c-0.74354,4.50406 -5.11167,7.53373 -9.75648,6.76696c-4.64482,-0.76677 -7.80743,-5.03963 -7.06389,-9.54369c0.74354,-4.50406 5.11165,-7.53374 9.75648,-6.76696z" fill="#ffffff" stroke="#000000" stroke-width="2"/><path d="M336.45959,240.1809c2.28722,0.37758 3.82227,2.61672 3.42862,5.00127c-0.39364,2.38454 -2.56692,4.01152 -4.85413,3.63394c-2.28722,-0.37758 -3.82226,-2.61673 -3.42862,-5.00127c0.39364,-2.38454 2.56693,-4.01151 4.85413,-3.63394z" fill="#000000" stroke="none" stroke-width="0"/><path d="M345.19926,225.07989c23.94622,3.95308 41.33849,19.39386 38.84674,34.48796c-0.1779,1.07766 -0.38254,2.1487 -0.6229,3.20545c-5.87838,0.98781 -12.2408,-0.46194 -18.12057,-1.0859c-3.25385,-0.44004 -20.20457,-3.40291 -25.5819,-3.95577c0,0 -0.30779,-0.03029 -0.58595,0.09441c2.44688,-15.24326 5.56897,-32.82797 6.06455,-32.74615zM363.04622,244.06223c0.84408,-5.11313 -2.61667,-9.94241 -7.7298,-10.78649c-5.11313,-0.84408 -9.94241,2.61667 -10.78649,7.7298c-0.84408,5.11313 2.61667,9.94241 7.7298,10.78649c5.11313,0.84408 9.94241,-2.61667 10.78649,-7.7298z" data-paper-data="{&quot;index&quot;:null}" fill="#0096ff" stroke="#000000" stroke-width="2"/><path d="M323.62937,288.36852c-0.36057,-0.08353 0.99773,-9.63826 2.77035,-20.75862c0.26796,0.25135 0.6686,0.29082 0.6686,0.29082c5.31306,0.50401 22.35414,3.52385 25.69997,3.9764c5.85762,0.61883 12.08217,1.95366 17.97,1.20905c-3.54755,12.99402 -13.44841,23.07995 -47.1089,15.28236z" data-paper-data="{&quot;index&quot;:null}" fill="#0096ff" stroke="#000000" stroke-width="2"/></g></g></g></svg>