<svg version="1.1" xmlns="http://www.w3.org/2000/svg" xmlns:xlink="http://www.w3.org/1999/xlink" width="1249.93146" height="607.03939" viewBox="0,0,1249.93146,607.03939"><defs><linearGradient x1="7.45954" y1="351.04599" x2="-30.82641" y2="340.20515" gradientUnits="userSpaceOnUse" id="color-1"><stop offset="0" stop-color="#5c5c5c"/><stop offset="1" stop-color="#9b9b9b"/></linearGradient><linearGradient x1="79.42716" y1="336.23358" x2="74.85845" y2="318.53305" gradientUnits="userSpaceOnUse" id="color-2"><stop offset="0" stop-color="#5c5c5c"/><stop offset="1" stop-color="#9b9b9b"/></linearGradient><linearGradient x1="-292.50252" y1="460.25679" x2="-290.74211" y2="451.55067" gradientUnits="userSpaceOnUse" id="color-3"><stop offset="0" stop-color="#5c5c5c"/><stop offset="1" stop-color="#9b9b9b"/></linearGradient><linearGradient x1="-265.8932" y1="482.69828" x2="-267.66915" y2="473.99533" gradientUnits="userSpaceOnUse" id="color-4"><stop offset="0" stop-color="#5c5c5c"/><stop offset="1" stop-color="#9b9b9b"/></linearGradient><linearGradient x1="-162.72875" y1="401.85025" x2="-195.63512" y2="379.478" gradientUnits="userSpaceOnUse" id="color-5"><stop offset="0" stop-color="#5c5c5c"/><stop offset="1" stop-color="#9b9b9b"/></linearGradient><linearGradient x1="-250.43382" y1="388.19344" x2="-240.90874" y2="383.85514" gradientUnits="userSpaceOnUse" id="color-6"><stop offset="0" stop-color="#5c5c5c"/><stop offset="1" stop-color="#9b9b9b"/></linearGradient><linearGradient x1="-267.96928" y1="412.63108" x2="-262.03825" y2="404.00726" gradientUnits="userSpaceOnUse" id="color-7"><stop offset="0" stop-color="#5c5c5c"/><stop offset="1" stop-color="#9b9b9b"/></linearGradient><linearGradient x1="-261.58123" y1="439.02247" x2="-255.65016" y2="430.39877" gradientUnits="userSpaceOnUse" id="color-8"><stop offset="0" stop-color="#5c5c5c"/><stop offset="1" stop-color="#9b9b9b"/></linearGradient><linearGradient x1="-244.25446" y1="459.6849" x2="-238.32337" y2="451.06105" gradientUnits="userSpaceOnUse" id="color-9"><stop offset="0" stop-color="#5c5c5c"/><stop offset="1" stop-color="#9b9b9b"/></linearGradient><linearGradient x1="-314.6454" y1="493.14634" x2="-316.72685" y2="484.51144" gradientUnits="userSpaceOnUse" id="color-10"><stop offset="0" stop-color="#5c5c5c"/><stop offset="1" stop-color="#9b9b9b"/></linearGradient><linearGradient x1="-316.99599" y1="508.87883" x2="-323.09239" y2="507.67322" gradientUnits="userSpaceOnUse" id="color-11"><stop offset="0" stop-color="#5c5c5c"/><stop offset="1" stop-color="#9b9b9b"/></linearGradient><linearGradient x1="-301.27793" y1="473.5244" x2="-306.29459" y2="469.85665" gradientUnits="userSpaceOnUse" id="color-12"><stop offset="0" stop-color="#5c5c5c"/><stop offset="1" stop-color="#9b9b9b"/></linearGradient><linearGradient x1="-273.44883" y1="521.62061" x2="-278.73434" y2="514.48211" gradientUnits="userSpaceOnUse" id="color-13"><stop offset="0" stop-color="#5c5c5c"/><stop offset="1" stop-color="#9b9b9b"/></linearGradient><linearGradient x1="-269.47482" y1="537.02335" x2="-275.55849" y2="538.29184" gradientUnits="userSpaceOnUse" id="color-14"><stop offset="0" stop-color="#5c5c5c"/><stop offset="1" stop-color="#9b9b9b"/></linearGradient><linearGradient x1="-268.79666" y1="498.33822" x2="-274.84675" y2="496.91845" gradientUnits="userSpaceOnUse" id="color-15"><stop offset="0" stop-color="#5c5c5c"/><stop offset="1" stop-color="#9b9b9b"/></linearGradient><linearGradient x1="-343.17776" y1="457.03871" x2="-342.10944" y2="448.22099" gradientUnits="userSpaceOnUse" id="color-16"><stop offset="0" stop-color="#5c5c5c"/><stop offset="1" stop-color="#9b9b9b"/></linearGradient><linearGradient x1="-350.87985" y1="470.95701" x2="-356.17001" y2="467.6963" gradientUnits="userSpaceOnUse" id="color-17"><stop offset="0" stop-color="#5c5c5c"/><stop offset="1" stop-color="#9b9b9b"/></linearGradient><linearGradient x1="-310.93469" y1="433.96463" x2="-306.24201" y2="426.42311" gradientUnits="userSpaceOnUse" id="color-18"><stop offset="0" stop-color="#5c5c5c"/><stop offset="1" stop-color="#9b9b9b"/></linearGradient><linearGradient x1="-323.79446" y1="443.32755" x2="-327.21245" y2="438.13754" gradientUnits="userSpaceOnUse" id="color-19"><stop offset="0" stop-color="#5c5c5c"/><stop offset="1" stop-color="#9b9b9b"/></linearGradient><linearGradient x1="-288.13419" y1="429.30968" x2="-288.99473" y2="423.15512" gradientUnits="userSpaceOnUse" id="color-20"><stop offset="0" stop-color="#5c5c5c"/><stop offset="1" stop-color="#9b9b9b"/></linearGradient><linearGradient x1="-272.76768" y1="447.9252" x2="-275.7253" y2="442.45971" gradientUnits="userSpaceOnUse" id="color-21"><stop offset="0" stop-color="#5c5c5c"/><stop offset="1" stop-color="#9b9b9b"/></linearGradient><linearGradient x1="-252.53388" y1="463.64411" x2="-257.38961" y2="459.76581" gradientUnits="userSpaceOnUse" id="color-22"><stop offset="0" stop-color="#5c5c5c"/><stop offset="1" stop-color="#9b9b9b"/></linearGradient><linearGradient x1="-274.57549" y1="363.15563" x2="-266.0297" y2="357.11248" gradientUnits="userSpaceOnUse" id="color-23"><stop offset="0" stop-color="#5c5c5c"/><stop offset="1" stop-color="#9b9b9b"/></linearGradient><linearGradient x1="-292.82325" y1="367.44091" x2="-294.16105" y2="360.24135" gradientUnits="userSpaceOnUse" id="color-24"><stop offset="0" stop-color="#5c5c5c"/><stop offset="1" stop-color="#9b9b9b"/></linearGradient><linearGradient x1="-227.39912" y1="373.28974" x2="-218.85332" y2="367.24655" gradientUnits="userSpaceOnUse" id="color-25"><stop offset="0" stop-color="#5c5c5c"/><stop offset="1" stop-color="#9b9b9b"/></linearGradient><linearGradient x1="-247.68599" y1="368.53008" x2="-245.80508" y2="361.45284" gradientUnits="userSpaceOnUse" id="color-26"><stop offset="0" stop-color="#5c5c5c"/><stop offset="1" stop-color="#9b9b9b"/></linearGradient><linearGradient x1="-90.14936" y1="378.57953" x2="-94.83225" y2="360.90887" gradientUnits="userSpaceOnUse" id="color-27"><stop offset="0" stop-color="#5c5c5c"/><stop offset="1" stop-color="#9b9b9b"/></linearGradient><linearGradient x1="505.74162" y1="362.34049" x2="544.3272" y2="352.61982" gradientUnits="userSpaceOnUse" id="color-28"><stop offset="0" stop-color="#5c5c5c"/><stop offset="1" stop-color="#9b9b9b"/></linearGradient><linearGradient x1="434.23616" y1="345.43742" x2="439.31868" y2="327.87753" gradientUnits="userSpaceOnUse" id="color-29"><stop offset="0" stop-color="#5c5c5c"/><stop offset="1" stop-color="#9b9b9b"/></linearGradient><linearGradient x1="802.39417" y1="480.24514" x2="800.88821" y2="471.49142" gradientUnits="userSpaceOnUse" id="color-30"><stop offset="0" stop-color="#5c5c5c"/><stop offset="1" stop-color="#9b9b9b"/></linearGradient><linearGradient x1="775.14226" y1="501.90176" x2="777.17103" y2="493.25426" gradientUnits="userSpaceOnUse" id="color-31"><stop offset="0" stop-color="#5c5c5c"/><stop offset="1" stop-color="#9b9b9b"/></linearGradient><linearGradient x1="674.37732" y1="418.0821" x2="707.92162" y2="396.67815" gradientUnits="userSpaceOnUse" id="color-32"><stop offset="0" stop-color="#5c5c5c"/><stop offset="1" stop-color="#9b9b9b"/></linearGradient><linearGradient x1="762.44307" y1="406.98661" x2="753.04847" y2="402.37262" gradientUnits="userSpaceOnUse" id="color-33"><stop offset="0" stop-color="#5c5c5c"/><stop offset="1" stop-color="#9b9b9b"/></linearGradient><linearGradient x1="779.25904" y1="431.92483" x2="773.58181" y2="423.13183" gradientUnits="userSpaceOnUse" id="color-34"><stop offset="0" stop-color="#5c5c5c"/><stop offset="1" stop-color="#9b9b9b"/></linearGradient><linearGradient x1="772.10476" y1="458.11885" x2="766.42747" y2="449.32598" gradientUnits="userSpaceOnUse" id="color-35"><stop offset="0" stop-color="#5c5c5c"/><stop offset="1" stop-color="#9b9b9b"/></linearGradient><linearGradient x1="754.18327" y1="478.26764" x2="748.50597" y2="469.47466" gradientUnits="userSpaceOnUse" id="color-36"><stop offset="0" stop-color="#5c5c5c"/><stop offset="1" stop-color="#9b9b9b"/></linearGradient><linearGradient x1="823.56934" y1="513.76593" x2="825.90149" y2="505.19534" gradientUnits="userSpaceOnUse" id="color-37"><stop offset="0" stop-color="#5c5c5c"/><stop offset="1" stop-color="#9b9b9b"/></linearGradient><linearGradient x1="825.46051" y1="529.56022" x2="831.58944" y2="528.53275" gradientUnits="userSpaceOnUse" id="color-38"><stop offset="0" stop-color="#5c5c5c"/><stop offset="1" stop-color="#9b9b9b"/></linearGradient><linearGradient x1="810.77926" y1="493.76282" x2="815.90066" y2="490.24279" gradientUnits="userSpaceOnUse" id="color-39"><stop offset="0" stop-color="#5c5c5c"/><stop offset="1" stop-color="#9b9b9b"/></linearGradient><linearGradient x1="781.56054" y1="541.02771" x2="787.05184" y2="534.04627" gradientUnits="userSpaceOnUse" id="color-40"><stop offset="0" stop-color="#5c5c5c"/><stop offset="1" stop-color="#9b9b9b"/></linearGradient><linearGradient x1="777.13946" y1="556.30812" x2="783.18358" y2="557.75335" gradientUnits="userSpaceOnUse" id="color-41"><stop offset="0" stop-color="#5c5c5c"/><stop offset="1" stop-color="#9b9b9b"/></linearGradient><linearGradient x1="777.58877" y1="517.61966" x2="783.67768" y2="516.37678" gradientUnits="userSpaceOnUse" id="color-42"><stop offset="0" stop-color="#5c5c5c"/><stop offset="1" stop-color="#9b9b9b"/></linearGradient><linearGradient x1="853.14166" y1="478.505" x2="852.33072" y2="469.65986" gradientUnits="userSpaceOnUse" id="color-43"><stop offset="0" stop-color="#5c5c5c"/><stop offset="1" stop-color="#9b9b9b"/></linearGradient><linearGradient x1="860.43493" y1="492.64182" x2="865.81787" y2="489.53662" gradientUnits="userSpaceOnUse" id="color-44"><stop offset="0" stop-color="#5c5c5c"/><stop offset="1" stop-color="#9b9b9b"/></linearGradient><linearGradient x1="821.58461" y1="454.5012" x2="817.11365" y2="446.82617" gradientUnits="userSpaceOnUse" id="color-45"><stop offset="0" stop-color="#5c5c5c"/><stop offset="1" stop-color="#9b9b9b"/></linearGradient><linearGradient x1="834.1661" y1="464.23485" x2="837.73387" y2="459.14667" gradientUnits="userSpaceOnUse" id="color-46"><stop offset="0" stop-color="#5c5c5c"/><stop offset="1" stop-color="#9b9b9b"/></linearGradient><linearGradient x1="798.92944" y1="449.18387" x2="799.96893" y2="443.05701" gradientUnits="userSpaceOnUse" id="color-47"><stop offset="0" stop-color="#5c5c5c"/><stop offset="1" stop-color="#9b9b9b"/></linearGradient><linearGradient x1="783.02702" y1="467.34376" x2="786.14265" y2="461.96677" gradientUnits="userSpaceOnUse" id="color-48"><stop offset="0" stop-color="#5c5c5c"/><stop offset="1" stop-color="#9b9b9b"/></linearGradient><linearGradient x1="762.3438" y1="482.46643" x2="767.31048" y2="478.73126" gradientUnits="userSpaceOnUse" id="color-49"><stop offset="0" stop-color="#5c5c5c"/><stop offset="1" stop-color="#9b9b9b"/></linearGradient><linearGradient x1="787.30404" y1="382.66284" x2="778.93798" y2="376.37327" gradientUnits="userSpaceOnUse" id="color-50"><stop offset="0" stop-color="#5c5c5c"/><stop offset="1" stop-color="#9b9b9b"/></linearGradient><linearGradient x1="805.41921" y1="387.47801" x2="806.96625" y2="380.32048" gradientUnits="userSpaceOnUse" id="color-51"><stop offset="0" stop-color="#5c5c5c"/><stop offset="1" stop-color="#9b9b9b"/></linearGradient><linearGradient x1="739.85242" y1="391.41806" x2="731.48632" y2="385.1284" gradientUnits="userSpaceOnUse" id="color-52"><stop offset="0" stop-color="#5c5c5c"/><stop offset="1" stop-color="#9b9b9b"/></linearGradient><linearGradient x1="760.26937" y1="387.25154" x2="758.59549" y2="380.12249" gradientUnits="userSpaceOnUse" id="color-53"><stop offset="0" stop-color="#5c5c5c"/><stop offset="1" stop-color="#9b9b9b"/></linearGradient><linearGradient x1="602.50682" y1="392.70646" x2="607.70261" y2="375.17975" gradientUnits="userSpaceOnUse" id="color-54"><stop offset="0" stop-color="#5c5c5c"/><stop offset="1" stop-color="#9b9b9b"/></linearGradient><linearGradient x1="253.71213" y1="299.37131" x2="253.61138" y2="317.67068" gradientUnits="userSpaceOnUse" id="color-55"><stop offset="0" stop-color="#5c5c5c"/><stop offset="1" stop-color="#9b9b9b"/></linearGradient><linearGradient x1="144.75468" y1="304.78785" x2="180.48186" y2="304.98449" gradientUnits="userSpaceOnUse" id="color-56"><stop offset="0" stop-color="#5c5c5c"/><stop offset="1" stop-color="#9b9b9b"/></linearGradient><linearGradient x1="331.20878" y1="310.24349" x2="369.51666" y2="310.45435" gradientUnits="userSpaceOnUse" id="color-57"><stop offset="0" stop-color="#5c5c5c"/><stop offset="1" stop-color="#9b9b9b"/></linearGradient><linearGradient x1="288.27159" y1="356.90554" x2="302.98727" y2="367.78308" gradientUnits="userSpaceOnUse" id="color-58"><stop offset="0" stop-color="#5c5c5c"/><stop offset="1" stop-color="#9b9b9b"/></linearGradient><linearGradient x1="230.71136" y1="358.33154" x2="215.87686" y2="369.04662" gradientUnits="userSpaceOnUse" id="color-59"><stop offset="0" stop-color="#5c5c5c"/><stop offset="1" stop-color="#9b9b9b"/></linearGradient><linearGradient x1="247.47933" y1="481.82302" x2="269.26417" y2="481.94295" gradientUnits="userSpaceOnUse" id="color-60"><stop offset="0" stop-color="#5c5c5c"/><stop offset="1" stop-color="#9b9b9b"/></linearGradient><linearGradient x1="152.07432" y1="232.61198" x2="347.43249" y2="215.95718" gradientUnits="userSpaceOnUse" id="color-61"><stop offset="0" stop-color="#6c6c6c"/><stop offset="1" stop-color="#c4c4c4"/></linearGradient><linearGradient x1="212.28349" y1="198.12105" x2="289.12437" y2="191.57015" gradientUnits="userSpaceOnUse" id="color-62"><stop offset="0" stop-color="#6e6e6e"/><stop offset="1" stop-color="#c0c0c0"/></linearGradient><linearGradient x1="239.48365" y1="71.51785" x2="243.20322" y2="115.14795" gradientUnits="userSpaceOnUse" id="color-63"><stop offset="0" stop-color="#a6a6a6"/><stop offset="1" stop-color="#707070"/></linearGradient><linearGradient x1="241.51693" y1="99.21459" x2="248.6785" y2="183.21867" gradientUnits="userSpaceOnUse" id="color-64"><stop offset="0" stop-color="#a6a6a6"/><stop offset="1" stop-color="#707070"/></linearGradient><linearGradient x1="185.62802" y1="81.92171" x2="219.70069" y2="182.16551" gradientUnits="userSpaceOnUse" id="color-65"><stop offset="0" stop-color="#a6a6a6"/><stop offset="1" stop-color="#707070"/></linearGradient><linearGradient x1="293.29845" y1="76.02216" x2="276.68623" y2="180.58701" gradientUnits="userSpaceOnUse" id="color-66"><stop offset="0" stop-color="#a6a6a6"/><stop offset="1" stop-color="#707070"/></linearGradient><linearGradient x1="247.33859" y1="163.65512" x2="249.39267" y2="187.74929" gradientUnits="userSpaceOnUse" id="color-67"><stop offset="0" stop-color="#a6a6a6"/><stop offset="1" stop-color="#707070"/></linearGradient><linearGradient x1="247.86823" y1="185.25554" x2="249.86968" y2="208.73205" gradientUnits="userSpaceOnUse" id="color-68"><stop offset="0" stop-color="#707070"/><stop offset="1" stop-color="#a6a6a6"/></linearGradient></defs><g transform="translate(370.33005,30.2813)"><g data-paper-data="{&quot;isPaintingLayer&quot;:true}" fill-rule="nonzero" stroke-linejoin="miter" stroke-miterlimit="10" stroke-dasharray="" stroke-dashoffset="0" style="mix-blend-mode: normal"><g data-paper-data="{&quot;index&quot;:null}" stroke-linecap="butt"><path d="M-30.82644,340.20519c2.99362,-10.57241 13.99106,-16.71617 24.56342,-13.72259c10.57236,2.9936 16.71617,13.99106 13.72259,24.56342c-2.9936,10.57236 -13.99108,16.71618 -24.56347,13.72256c-10.57233,-2.99363 -16.71617,-13.99101 -13.72253,-24.56345z" fill="url(#color-1)" stroke="none" stroke-width="0"/><g><path d="M-7.01585,320.64732c0,0 51.98313,-18.37563 78.11882,-24.77581c25.4336,-6.22831 77.33181,-10.4685 77.33181,-10.4685l11.99287,46.46402c0,0 -45.85008,19.69662 -70.85686,25.82037c-26.49552,6.4883 -83.56587,13.40654 -83.56587,13.40654z" fill="#696969" stroke="#000000" stroke-width="2"/><path d="M-1.94327,337.34045l153.60323,-37.61478l4.56874,17.70061l-153.60313,37.61478z" fill="url(#color-2)" stroke="none" stroke-width="0"/><path d="M1.49347,360.11447c-1.93811,-1.71446 1.42852,-3.40012 1.42852,-3.40012l4.80937,-2.36372c4.76305,-4.36021 7.10471,-8.95305 11.12257,-13.47764c2.66971,-3.00646 6.54202,-5.56739 9.41347,-8.48014c3.14109,-3.18621 4.75797,-6.63411 9.58275,-9.34831c12.153,-6.8369 31.01314,-8.32099 40.37749,-3.61438c5.49351,2.43211 11.96132,4.05444 17.24877,6.60273c0.89051,0.42923 4.45952,2.64951 6.64896,2.65839c3.5125,0.01429 10.87435,-3.79698 13.12284,-4.96349c12.61613,-6.54514 19.73214,-16.33329 32.11824,-23.19856c0,0 3.25243,-1.77926 5.37662,-0.16217c2.12418,1.61714 -1.12825,3.39637 -1.12825,3.39637c-12.60745,6.77839 -19.42362,16.65273 -32.25578,23.27259c-4.70668,2.42809 -13.055,6.46489 -19.07088,6.46333c-6.08395,-0.00158 -8.91824,-3.09171 -13.26882,-4.69475c-4.85235,-1.78794 -9.8463,-3.26228 -14.43468,-5.296c-6.71131,-3.53029 -21.36914,-2.42357 -30.31318,2.67362c-3.82732,2.18119 -5.08545,5.3028 -7.60436,7.85192c-2.81156,2.84531 -6.64159,5.3603 -9.23584,8.29074c-4.49152,5.0736 -7.11222,9.9355 -12.66979,14.78852l-5.96336,3.03005c0,0 -3.36663,1.68564 -5.30477,-0.02884z" fill="#000000" stroke="none" stroke-width="0.5"/><path d="M-7.01585,320.64732c0,0 51.98313,-18.37563 78.11882,-24.77581c25.4336,-6.22831 77.33181,-10.4685 77.33181,-10.4685l11.99287,46.46402c0,0 -45.85008,19.69662 -70.85686,25.82037c-26.49552,6.4883 -83.56587,13.40654 -83.56587,13.40654z" fill="#ff0000" stroke="#000000" stroke-width="2"/></g><path d="M-295.9753,455.02355c0.48613,-2.40414 2.82918,-3.95903 5.23326,-3.47292c2.40408,0.48611 3.95899,2.82916 3.47286,5.23325c-0.48608,2.4041 -2.82919,3.95903 -5.23326,3.47287c-2.40414,-0.48613 -3.959,-2.82919 -3.47286,-5.23325z" data-paper-data="{&quot;index&quot;:null}" fill="url(#color-3)" stroke="none" stroke-width="0"/><path d="M-271.13264,479.23479c-0.49038,-2.40326 1.06025,-4.74907 3.46353,-5.23949c2.40322,-0.4904 4.74898,1.06031 5.23941,3.46352c0.4904,2.40322 -1.06028,4.74906 -3.46354,5.2395c-2.40322,0.4904 -4.74903,-1.06031 -5.23945,-3.46352z" data-paper-data="{&quot;index&quot;:null}" fill="url(#color-4)" stroke="none" stroke-width="0"/><path d="M-167.99583,374.21099c9.08685,6.1779 11.44499,18.55243 5.26708,27.63928c-6.1779,9.08685 -18.55246,11.44502 -27.63926,5.2671c-9.08685,-6.1779 -11.44502,-18.55239 -5.26708,-27.63928c6.1779,-9.08685 18.55249,-11.44498 27.63928,-5.26708z" data-paper-data="{&quot;index&quot;:null}" fill="url(#color-5)" stroke="none" stroke-width="0"/><path d="M-247.84051,381.26177c2.63029,-1.19801 5.73371,-0.03698 6.93172,2.59337c1.19798,2.63036 0.0369,5.73374 -2.59337,6.93174c-2.63029,1.19801 -5.73372,0.03698 -6.93172,-2.59334c-1.19802,-2.63023 -0.03688,-5.73372 2.59339,-6.93171z" data-paper-data="{&quot;index&quot;:null}" fill="url(#color-6)" stroke="none" stroke-width="0"/><path d="M-269.31577,405.35354c1.63777,-2.38135 4.89609,-2.98421 7.27746,-1.34633c2.38134,1.63785 2.98415,4.89605 1.34632,7.27744c-1.63777,2.38135 -4.89606,2.98423 -7.27744,1.34636c-2.38132,-1.63783 -2.98417,-4.89608 -1.34633,-7.27745z" data-paper-data="{&quot;index&quot;:null}" fill="url(#color-7)" stroke="none" stroke-width="0"/><path d="M-262.92768,431.74503c1.63777,-2.38135 4.89613,-2.98417 7.27749,-1.34633c2.38138,1.63782 2.98421,4.89609 1.34638,7.27746c-1.63785,2.38134 -4.89613,2.98417 -7.27749,1.34633c-2.38135,-1.63777 -2.98415,-4.89605 -1.34633,-7.27745z" data-paper-data="{&quot;index&quot;:null}" fill="url(#color-8)" stroke="none" stroke-width="0"/><path d="M-245.60089,452.40744c1.63785,-2.38134 4.8961,-2.98414 7.27745,-1.34632c2.38138,1.63782 2.98419,4.89601 1.34641,7.27739c-1.63777,2.38135 -4.89609,2.98415 -7.27749,1.34633c-2.38135,-1.63777 -2.98417,-4.89608 -1.34633,-7.27745z" data-paper-data="{&quot;index&quot;:null}" fill="url(#color-9)" stroke="none" stroke-width="0"/><path d="M-320.0037,489.8696c-0.57476,-2.38445 0.89236,-4.78344 3.27683,-5.35817c2.38445,-0.57475 4.78344,0.89234 5.3582,3.27681c0.57479,2.38449 -0.89232,4.78346 -3.27681,5.35818c-2.38445,0.57475 -4.78344,-0.89233 -5.35821,-3.27682z" data-paper-data="{&quot;index&quot;:null}" fill="url(#color-10)" stroke="none" stroke-width="0"/><g data-paper-data="{&quot;index&quot;:null}" stroke-width="1"><path d="M-308.07109,492.48234c0,0 -0.18236,12.93324 -1.3638,18.90703c-1.11506,5.63814 -5.99458,15.89665 -5.99458,15.89665l-16.00296,-3.16499c0,0 -0.5208,-11.78028 0.61323,-17.51463c1.16545,-5.89271 5.37342,-17.56033 5.37342,-17.56033z" fill="#696969" stroke="#000000"/><path d="M-313.57136,491.5629l-6.84931,34.63217l-6.09633,-1.20575l6.84933,-34.63213z" fill="url(#color-11)" stroke="none"/><path d="M-313.00005,491.64593c0,0 0.43838,-0.75106 1.0848,-0.29361c0.6464,0.45746 0.20799,1.20847 0.20799,1.20847l-0.79147,1.32979c-1.41681,1.22043 -2.94643,1.77197 -4.47699,2.74758c-0.88401,0.56343 -1.58276,1.41232 -2.43013,2.02605c-0.75918,0.54996 -1.75719,0.80733 -2.34428,1.6586c-1.37192,1.98946 -1.19446,5.31752 0.23834,6.87895c0.85233,1.06399 1.53267,2.21511 2.31264,3.33691c0.69929,1.00584 1.83972,1.68011 2.0677,3.06578c0.2255,1.37011 -0.81382,3.2338 -1.45069,4.28306c-1.73636,2.86075 -4.78714,4.321 -6.58491,7.1291c0,0 -0.47405,0.72413 -1.09486,0.22531c-0.62082,-0.49892 -0.14674,-1.22309 -0.14674,-1.22309c1.83516,-2.75688 4.8458,-4.28624 6.56523,-7.09847c0.30645,-0.50117 1.30707,-2.14234 1.17103,-2.94243c-0.08487,-0.49875 -0.96155,-1.33225 -1.13852,-1.53907c-1.05075,-1.22791 -1.83568,-2.71615 -2.85522,-3.99c-1.92577,-2.17662 -2.13403,-6.45813 -0.29965,-9.16225c0.72826,-1.07349 1.82195,-1.40963 2.77117,-2.09523c0.86775,-0.62686 1.58028,-1.48476 2.48698,-2.06477c1.36441,-0.87288 2.81443,-1.36325 4.09603,-2.40737l0.61148,-1.0733z" fill="#000000" stroke="none"/><path d="M-308.07109,492.48234c0,0 -0.18236,12.93324 -1.3638,18.90703c-1.11506,5.63814 -5.99458,15.89665 -5.99458,15.89665l-16.00296,-3.16499c0,0 -0.5208,-11.78028 0.61323,-17.51463c1.16545,-5.89271 5.37342,-17.56033 5.37342,-17.56033z" fill="#ff0000" stroke="#000000"/></g><g data-paper-data="{&quot;index&quot;:null}" stroke-width="1"><path d="M-286.26276,462.43154c0,0 -5.62779,11.64601 -9.22177,16.56188c-3.39202,4.63968 -12.14787,11.8774 -12.14787,11.8774l-13.16878,-9.62785c0,0 4.50337,-10.89794 7.95339,-15.61672c3.54523,-4.84915 12.2875,-13.64769 12.2875,-13.64769z" fill="#696969" stroke="#000000"/><path d="M-290.86007,459.27511l-20.83567,28.49863l-5.01667,-3.66778l20.83566,-28.49865z" fill="url(#color-12)" stroke="none"/><path d="M-290.37747,459.59173c0,0 0.71454,-0.49555 1.10732,0.19208c0.39278,0.68761 -0.32187,1.18323 -0.32187,1.18323l-1.27902,0.87121c-1.79974,0.50787 -3.41918,0.36167 -5.21858,0.59953c-1.03923,0.13742 -2.03116,0.61166 -3.05844,0.81009c-0.9204,0.1778 -1.93369,-0.01041 -2.82541,0.51329c-2.08377,1.22381 -3.32852,4.3154 -2.68938,6.33586c0.32318,1.32443 0.45366,2.65518 0.68681,4.00145c0.20907,1.20706 0.958,2.29991 0.57939,3.65225c-0.37431,1.33715 -2.10344,2.58751 -3.12393,3.26959c-2.78216,1.8597 -6.16422,1.89472 -8.97982,3.68078c0,0 -0.73553,0.45617 -1.08756,-0.25823c-0.35202,-0.71443 0.38357,-1.17059 0.38357,-1.17059c2.82784,-1.72378 6.20271,-1.83841 8.94904,-3.66133c0.48943,-0.32481 2.08957,-1.38976 2.30423,-2.17248c0.13374,-0.48788 -0.30886,-1.61372 -0.38192,-1.87595c-0.43379,-1.55692 -0.51664,-3.2373 -0.90282,-4.82261c-0.82625,-2.78634 0.79333,-6.75528 3.59814,-8.43153c1.11347,-0.66536 2.2468,-0.50807 3.39685,-0.72867c1.05126,-0.2017 2.05957,-0.67846 3.1263,-0.82123c1.60551,-0.21496 3.12688,-0.04703 4.7295,-0.45214l1.00757,-0.71456z" fill="#000000" stroke="none"/><path d="M-286.26276,462.43154c0,0 -5.62779,11.64601 -9.22177,16.56188c-3.39202,4.63968 -12.14787,11.8774 -12.14787,11.8774l-13.16878,-9.62785c0,0 4.50337,-10.89794 7.95339,-15.61672c3.54523,-4.84915 12.2875,-13.64769 12.2875,-13.64769z" fill="#ff0000" stroke="#000000"/></g><path d="M-279.66088,520.69418c-1.45958,-1.97126 -1.04474,-4.75253 0.92648,-6.21205c1.97124,-1.45948 4.75251,-1.04469 6.21204,0.92656c1.45955,1.97124 1.04467,4.75246 -0.92654,6.21199c-1.97128,1.4595 -4.75253,1.04475 -6.21208,-0.92652z" data-paper-data="{&quot;index&quot;:null}" fill="url(#color-13)" stroke="none" stroke-width="0"/><g data-paper-data="{&quot;index&quot;:null}" stroke-width="1"><path d="M-267.65472,518.44405c0,0 4.87825,11.97939 6.12127,17.94066c1.17313,5.62643 0.68289,16.97568 0.68289,16.97568l-15.96951,3.32964c0,0 -5.07574,-10.64337 -6.26889,-16.36575c-1.22612,-5.88031 -1.90395,-18.2651 -1.90395,-18.2651z" fill="#696969" stroke="#000000"/><path d="M-273.07778,519.74348l7.20585,34.55971l-6.08358,1.26845l-7.20578,-34.55968z" fill="url(#color-14)" stroke="none"/><path d="M-272.51928,519.59719c0,0 0.11065,-0.86259 0.88427,-0.6936c0.77364,0.16896 0.663,1.03148 0.663,1.03148l-0.20981,1.53329c-0.82838,1.6765 -2.02154,2.78105 -3.05017,4.27651c-0.59407,0.86371 -0.90628,1.91796 -1.44703,2.81371c-0.48446,0.80254 -1.30304,1.42894 -1.51139,2.44184c-0.48699,2.367 0.97491,5.362 2.90333,6.24064c1.19984,0.64709 2.27537,1.4416 3.43124,2.17019c1.03635,0.65325 2.34938,0.82917 3.09993,2.01608c0.74214,1.1736 0.51241,3.29503 0.3354,4.50961c-0.48255,3.3115 -2.72183,5.8463 -3.28151,9.13326c0,0 -0.15389,0.85164 -0.92008,0.63456c-0.76616,-0.21715 -0.61227,-1.06885 -0.61227,-1.06885c0.61404,-3.25441 2.78949,-5.83721 3.27538,-9.09745c0.08663,-0.58104 0.36761,-2.48244 -0.06987,-3.16606c-0.2727,-0.42611 -1.40514,-0.85155 -1.64878,-0.97292c-1.44658,-0.72071 -2.74999,-1.78468 -4.18574,-2.55973c-2.62235,-1.25275 -4.48461,-5.11372 -3.85066,-8.31916c0.25168,-1.27256 1.12765,-2.00873 1.73411,-3.01041c0.55439,-0.91573 0.8757,-1.98367 1.48421,-2.87144c0.91572,-1.3361 2.05949,-2.35333 2.83212,-3.81478l0.14431,-1.22682z" fill="#000000" stroke="none"/><path d="M-267.65472,518.44405c0,0 4.87825,11.97939 6.12127,17.94066c1.17313,5.62643 0.68289,16.97568 0.68289,16.97568l-15.96951,3.32964c0,0 -5.07574,-10.64337 -6.26889,-16.36575c-1.22612,-5.88031 -1.90395,-18.2651 -1.90395,-18.2651z" fill="#ff0000" stroke="#000000"/></g><g data-paper-data="{&quot;index&quot;:null}" stroke-width="1"><path d="M-259.29952,482.26616c0,0 -0.63783,12.91877 -2.02904,18.84724c-1.31298,5.59539 -6.55096,15.67569 -6.55096,15.67569l-15.88154,-3.7268c0,0 -0.10552,-11.79125 1.22991,-17.48215c1.37222,-5.84795 5.98868,-17.36014 5.98868,-17.36014z" fill="#696969" stroke="#000000"/><path d="M-264.76399,481.15356l-8.06513,34.36931l-6.05015,-1.41972l8.06514,-34.36928z" fill="url(#color-15)" stroke="none"/><path d="M-264.19633,481.25678c0,0 0.46464,-0.73517 1.09455,-0.25528c0.62991,0.47987 0.16535,1.21501 0.16535,1.21501l-0.83774,1.30112c-1.45897,1.1698 -3.00707,1.66715 -4.57105,2.58818c-0.90333,0.532 -1.63151,1.3557 -2.50001,1.93921c-0.77808,0.52282 -1.78453,0.74488 -2.40121,1.57501c-1.44121,1.93983 -1.38106,5.27209 -0.0042,6.88301c0.81435,1.09338 1.45366,2.26771 2.19358,3.41632c0.66347,1.02977 1.7794,1.74396 1.95849,3.13668c0.17696,1.37722 -0.92722,3.20307 -1.60073,4.22929c-1.83602,2.79774 -4.93635,4.14963 -6.83195,6.8927c0,0 -0.49924,0.70705 -1.10202,0.18659c-0.60285,-0.5205 -0.10354,-1.22745 -0.10354,-1.22745c1.93115,-2.69054 4.99393,-4.11286 6.81127,-6.86275c0.32387,-0.49002 1.38169,-2.09485 1.27387,-2.89927c-0.06719,-0.50138 -0.91405,-1.36533 -1.08364,-1.57831c-1.00689,-1.26424 -1.73881,-2.77921 -2.71287,-4.08817c-1.84784,-2.24314 -1.90516,-6.52932 0.02334,-9.1671c0.76559,-1.04716 1.87056,-1.34451 2.84336,-1.99631c0.88926,-0.59583 1.6316,-1.42816 2.55813,-1.97586c1.39442,-0.82422 2.86074,-1.2633 4.17831,-2.26161l0.64891,-1.05109z" fill="#000000" stroke="none"/><path d="M-259.29952,482.26616c0,0 -0.63783,12.91877 -2.02904,18.84724c-1.31298,5.59539 -6.55096,15.67569 -6.55096,15.67569l-15.88154,-3.7268c0,0 -0.10552,-11.79125 1.22991,-17.48215c1.37222,-5.84795 5.98868,-17.36014 5.98868,-17.36014z" fill="#ff0000" stroke="#000000"/></g><path d="M-342.10942,448.22101c2.43495,0.29506 4.16968,2.50808 3.87468,4.9431c-0.29508,2.435 -2.50813,4.16968 -4.9431,3.87468c-2.43495,-0.29506 -4.16973,-2.50812 -3.87468,-4.9431c0.29498,-2.43494 2.50814,-4.16971 4.9431,-3.87468z" data-paper-data="{&quot;index&quot;:null}" fill="url(#color-16)" stroke="none" stroke-width="0"/><g data-paper-data="{&quot;index&quot;:null}" stroke-width="1"><path d="M-336.78604,458.7148c0,0 -4.69188,12.05349 -7.887,17.23743c-3.01564,4.89263 -11.17343,12.79821 -11.17343,12.79821l-13.887,-8.55936c0,0 3.63012,-11.21916 6.6972,-16.19529c3.15175,-5.11357 11.17296,-14.57406 11.17296,-14.57406z" fill="#696969" stroke="#000000"/><path d="M-341.618,455.93053l-18.52356,30.05294l-5.29024,-3.26066l18.52349,-30.0529z" fill="url(#color-17)" stroke="none"/><path d="M-341.1121,456.20815c0,0 0.67337,-0.55038 1.1191,0.10419c0.44573,0.65453 -0.22758,1.20487 -0.22758,1.20487l-1.20637,0.96936c-1.75409,0.64817 -3.38,0.63013 -5.15499,1.00916c-1.02521,0.21894 -1.97661,0.77001 -2.98508,1.04881c-0.90347,0.24984 -1.9285,0.1422 -2.77616,0.73455c-1.9808,1.38435 -2.97789,4.56447 -2.18132,6.52823c0.42665,1.29476 0.66151,2.6111 1.00021,3.93474c0.30355,1.18681 1.13635,2.21729 0.86559,3.5952c-0.26767,1.36246 -1.89295,2.7453 -2.85643,3.50573c-2.62679,2.07326 -5.99557,2.37497 -8.66154,4.37739c0,0 -0.69722,0.51278 -1.10447,-0.17164c-0.40724,-0.68444 0.29008,-1.1972 0.29008,-1.1972c2.68311,-1.94142 6.03839,-2.32178 8.63242,-4.35559c0.46235,-0.36246 1.97351,-1.55019 2.12569,-2.34746c0.09484,-0.49691 -0.43519,-1.58436 -0.52872,-1.84003c-0.55515,-1.51782 -0.77022,-3.18648 -1.2802,-4.73635c-1.04336,-2.71249 0.25816,-6.7967 2.92208,-8.68898c1.05755,-0.75118 2.1999,-0.68375 3.32889,-0.99433c1.03217,-0.2839 1.99963,-0.83876 3.05179,-1.06518c1.58351,-0.34087 3.11342,-0.29338 4.67915,-0.82367l0.9481,-0.79191z" fill="#000000" stroke="none"/><path d="M-336.78604,458.7148c0,0 -4.69188,12.05349 -7.887,17.23743c-3.01564,4.89263 -11.17343,12.79821 -11.17343,12.79821l-13.887,-8.55936c0,0 3.63012,-11.21916 6.6972,-16.19529c3.15175,-5.11357 11.17296,-14.57406 11.17296,-14.57406z" fill="#ff0000" stroke="#000000"/></g><path d="M-306.24194,426.4232c2.08244,1.29589 2.72025,4.03467 1.42437,6.11712c-1.29589,2.08244 -4.03464,2.72022 -6.11713,1.42432c-2.08244,-1.29589 -2.72021,-4.03463 -1.4243,-6.11712c1.29589,-2.08244 4.03463,-2.72021 6.11708,-1.42432z" data-paper-data="{&quot;index&quot;:null}" fill="url(#color-18)" stroke="none" stroke-width="0"/><g data-paper-data="{&quot;index&quot;:null}" stroke-width="1"><path d="M-305.84892,438.18339c0,0 -9.34384,8.944 -14.42953,12.29334c-4.7999,3.16124 -15.53337,6.88151 -15.53337,6.88151l-8.9723,-13.6238c0,0 8.02878,-8.63611 12.91066,-11.85121c5.01659,-3.30385 16.28307,-8.49128 16.28307,-8.49128z" fill="#696969" stroke="#000000"/><path d="M-309.05273,433.61889l-29.48341,19.41718l-3.4181,-5.19004l29.48344,-19.41709z" fill="url(#color-19)" stroke="none"/><path d="M-308.71108,434.08441c0,0 0.84278,-0.21452 0.97036,0.567c0.12757,0.78152 -0.71517,0.99604 -0.71517,0.99604l-1.5029,0.36914c-1.86371,-0.15332 -3.32988,-0.85634 -5.09887,-1.26245c-1.02175,-0.23465 -2.11689,-0.13697 -3.14875,-0.3102c-0.9245,-0.15516 -1.80809,-0.68574 -2.82657,-0.50678c-2.3802,0.41813 -4.62711,2.87954 -4.73458,4.99595c-0.1601,1.35381 -0.5031,2.6462 -0.75529,3.98904c-0.22614,1.20395 0.09352,2.48977 -0.73388,3.62436c-0.81817,1.12189 -2.87522,1.68894 -4.06978,1.97126c-3.25671,0.76988 -6.4377,-0.37959 -9.69994,0.30953c0,0 -0.8486,0.17022 -0.92866,-0.62208c-0.08003,-0.79242 0.76854,-0.96269 0.76854,-0.96269c3.25206,-0.6265 6.45407,0.44593 9.66433,-0.30196c0.57213,-0.13329 2.44356,-0.5717 2.91823,-1.23003c0.29581,-0.41031 0.2747,-1.61984 0.29798,-1.89109c0.1378,-1.61028 0.64753,-3.21365 0.83989,-4.83395c0.19996,-2.89938 3.10472,-6.05167 6.31857,-6.64169c1.27593,-0.23426 2.28279,0.3094 3.43733,0.50471c1.05538,0.17859 2.16676,0.08431 3.21614,0.32344c1.57931,0.3599 2.94605,1.049 4.58918,1.22969l1.19375,-0.31731z" fill="#000000" stroke="none"/><path d="M-305.84892,438.18339c0,0 -9.34384,8.944 -14.42953,12.29334c-4.7999,3.16124 -15.53337,6.88151 -15.53337,6.88151l-8.9723,-13.6238c0,0 8.02878,-8.63611 12.91066,-11.85121c5.01659,-3.30385 16.28307,-8.49128 16.28307,-8.49128z" fill="#ff0000" stroke="#000000"/></g><g data-paper-data="{&quot;index&quot;:null}" stroke-width="1"><path d="M-269.71732,432.3632c0,0 -12.27769,4.06964 -18.30853,4.91279c-5.69203,0.79576 -16.98342,-0.44928 -16.98342,-0.44928l-2.25879,-16.15582c0,0 10.95789,-4.35572 16.74702,-5.16501c5.94896,-0.83173 18.35135,-0.6832 18.35135,-0.6832z" fill="#696969" stroke="#000000"/><path d="M-270.65272,426.86559l-34.96286,4.88814l-0.86048,-6.15455l34.96284,-4.88809z" fill="url(#color-20)" stroke="none"/><path d="M-270.54397,427.43261c0,0 0.85328,0.16789 0.63317,0.92856c-0.22012,0.7607 -1.07344,0.59279 -1.07344,0.59279l-1.51584,-0.31144c-1.61768,-0.9382 -2.64031,-2.20231 -4.06395,-3.32824c-0.82219,-0.6503 -1.8533,-1.032 -2.71104,-1.63123c-0.76851,-0.53687 -1.339,-1.39521 -2.33573,-1.67056c-2.32933,-0.6436 -5.41505,0.6156 -6.42021,2.48117c-0.72557,1.15418 -1.58992,2.17439 -2.39385,3.27914c-0.72082,0.99047 -0.98379,2.28893 -2.21803,2.95882c-1.22041,0.66229 -3.32186,0.29179 -4.52195,0.03432c-3.27195,-0.70204 -5.65203,-3.10507 -8.89443,-3.88245c0,0 -0.83959,-0.21033 -0.5719,-0.9604c0.26764,-0.75003 1.10723,-0.53974 1.10723,-0.53974c3.20635,0.82952 5.63846,3.17207 8.85907,3.87397c0.57396,0.12511 2.45255,0.53207 3.1637,0.1411c0.44328,-0.2437 0.94328,-1.34532 1.08062,-1.58033c0.81548,-1.39537 1.96388,-2.62497 2.83288,-4.00593c1.4247,-2.5331 5.40109,-4.13413 8.55717,-3.28808c1.25295,0.33593 1.92918,1.2589 2.8882,1.93073c0.8767,0.61413 1.921,1.00589 2.76623,1.67209c1.27213,1.00272 2.21093,2.21168 3.61762,3.07991l1.21449,0.2256z" fill="#000000" stroke="none"/><path d="M-269.71732,432.3632c0,0 -12.27769,4.06964 -18.30853,4.91279c-5.69203,0.79576 -16.98342,-0.44928 -16.98342,-0.44928l-2.25879,-16.15582c0,0 10.95789,-4.35572 16.74702,-5.16501c5.94896,-0.83173 18.35135,-0.6832 18.35135,-0.6832z" fill="#ff0000" stroke="#000000"/></g><g data-paper-data="{&quot;index&quot;:null}" stroke-width="1"><path d="M-254.44526,444.3481c0,0 -10.08051,8.10475 -15.43606,11.00297c-5.05479,2.73536 -16.06904,5.51601 -16.06904,5.51601l-7.7638,-14.34692c0,0 8.74383,-7.91141 13.88482,-10.6934c5.28286,-2.85886 16.95476,-7.05522 16.95476,-7.05522z" fill="#696969" stroke="#000000"/><path d="M-257.24341,439.52437l-31.04842,16.80164l-2.95757,-5.4655l31.0483,-16.80174z" fill="url(#color-21)" stroke="none"/><path d="M-256.9435,440.01751c0,0 0.8581,-0.141 0.91781,0.6486c0.05969,0.78965 -0.79848,0.9306 -0.79848,0.9306l-1.52907,0.23812c-1.84352,-0.31353 -3.24359,-1.14041 -4.97101,-1.69765c-0.9977,-0.32184 -2.09713,-0.31906 -3.11018,-0.58063c-0.90767,-0.23434 -1.74221,-0.83914 -2.77237,-0.7487c-2.40735,0.21132 -4.85821,2.46977 -5.14781,4.56905c-0.27633,1.33503 -0.72948,2.59293 -1.09654,3.90902c-0.3291,1.17994 -0.12158,2.48851 -1.04377,3.54755c-0.91184,1.04721 -3.01023,1.43461 -4.22466,1.61284c-3.31093,0.48598 -6.38085,-0.93343 -9.69047,-0.52831c0,0 -0.86014,0.09638 -0.87151,-0.69989c-0.01142,-0.79623 0.84876,-0.89273 0.84876,-0.89273c3.29394,-0.3437 6.39153,1.00083 9.65429,0.5327c0.58147,-0.0834 2.48383,-0.35882 3.01348,-0.97369c0.33015,-0.38338 0.41339,-1.59019 0.46,-1.85839c0.27626,-1.59238 0.9224,-3.14585 1.2538,-4.74348c0.44926,-2.87136 3.61507,-5.76137 6.86785,-6.07204c1.29135,-0.12329 2.24768,0.50512 3.38106,0.79933c1.03606,0.26889 2.1514,0.27088 3.17624,0.59963c1.54239,0.49481 2.84457,1.2992 4.46604,1.62096l1.21673,-0.21309z" fill="#000000" stroke="none"/><path d="M-254.44526,444.3481c0,0 -10.08051,8.10475 -15.43606,11.00297c-5.05479,2.73536 -16.06904,5.51601 -16.06904,5.51601l-7.7638,-14.34692c0,0 8.74383,-7.91141 13.88482,-10.6934c5.28286,-2.85886 16.95476,-7.05522 16.95476,-7.05522z" fill="#ff0000" stroke="#000000"/></g><g data-paper-data="{&quot;index&quot;:null}" stroke-width="1"><path d="M-237.05935,453.20185c0,0 -6.1193,11.39547 -9.91964,16.15349c-3.58683,4.49071 -12.64331,11.34841 -12.64331,11.34841l-12.7462,-10.18069c0,0 4.96412,-10.69594 8.61216,-15.26329c3.74874,-4.69345 12.85832,-13.11122 12.85832,-13.11122z" fill="#696969" stroke="#000000"/><path d="M-241.51789,449.85212l-22.03219,27.58408l-4.85563,-3.87834l22.03218,-27.58404z" fill="url(#color-22)" stroke="none"/><path d="M-241.04911,450.18915c0,0 0.73507,-0.46468 1.09815,0.23905c0.36308,0.70368 -0.37204,1.16847 -0.37204,1.16847l-1.31505,0.8158c-1.81981,0.4306 -3.43144,0.21542 -5.23936,0.37638c-1.04418,0.09296 -2.05536,0.52452 -3.09026,0.67893c-0.92713,0.13835 -1.93144,-0.09288 -2.84468,0.39228c-2.13414,1.13382 -3.50958,4.16952 -2.95712,6.21544c0.26639,1.33705 0.33993,2.67209 0.51548,4.02709c0.15738,1.2148 0.85899,2.33868 0.42312,3.67361c-0.43105,1.31997 -2.21196,2.49539 -3.26055,3.13338c-2.85892,1.73936 -6.23938,1.63019 -9.12861,3.29453c0,0 -0.75429,0.42438 -1.07553,-0.30438c-0.32123,-0.72876 0.43314,-1.15314 0.43314,-1.15314c2.89886,-1.60162 6.27554,-1.5722 9.09708,-3.27628c0.50286,-0.30368 2.14699,-1.2995 2.39473,-2.07225c0.15445,-0.48175 -0.23977,-1.62543 -0.30154,-1.89057c-0.36698,-1.57399 -0.37815,-3.25642 -0.69632,-4.85674c-0.70661,-2.81901 1.08071,-6.71526 3.95446,-8.2704c1.14091,-0.61736 2.26652,-0.41185 3.42488,-0.58316c1.05888,-0.15666 2.08663,-0.58993 3.15847,-0.68712c1.61314,-0.14619 3.12606,0.08643 4.74453,-0.25001l1.03708,-0.67102z" fill="#000000" stroke="none"/><path d="M-237.05935,453.20185c0,0 -6.1193,11.39547 -9.91964,16.15349c-3.58683,4.49071 -12.64331,11.34841 -12.64331,11.34841l-12.7462,-10.18069c0,0 4.96412,-10.69594 8.61216,-15.26329c3.74874,-4.69345 12.85832,-13.11122 12.85832,-13.11122z" fill="#ff0000" stroke="#000000"/></g><path d="M-219.27263,458.25524c-29.33386,15.36351 -45.74829,-2.38657 -57.21382,-24.27798c-11.46544,-21.89145 -13.64019,-39.63434 15.69365,-54.99775c29.33383,-15.36343 62.40817,-10.07147 73.87369,11.81995c11.46554,21.89139 -3.01973,52.09243 -32.3535,67.45584z" data-paper-data="{&quot;index&quot;:null}" fill="#ff0000" stroke="#000000" stroke-width="1"/><path d="M-266.02966,357.11253c1.66871,2.35986 1.10843,5.62571 -1.25138,7.2944c-2.35986,1.66871 -5.62567,1.10857 -7.29439,-1.25133c-1.66869,-2.35982 -1.10843,-5.62567 1.2514,-7.29443c2.35986,-1.66871 5.62567,-1.10852 7.29439,1.25138z" data-paper-data="{&quot;index&quot;:null}" fill="url(#color-23)" stroke="none" stroke-width="0"/><g data-paper-data="{&quot;index&quot;:null}" stroke-width="1"><path d="M-270.98226,370.06337c0,0 -14.2381,5.43865 -21.2929,6.74952c-6.65847,1.23716 -20.01619,0.36761 -20.01619,0.36761l-3.51167,-18.89902c0,0 12.66933,-5.70584 19.44142,-6.96415c6.95908,-1.29305 21.56664,-1.77291 21.56664,-1.77291z" fill="#696969" stroke="#000000"/><path d="M-272.37356,363.6411l-40.89934,7.59963l-1.33779,-7.19963l40.89937,-7.59959z" fill="url(#color-24)" stroke="none"/><path d="M-272.21567,364.30265c0,0 1.0133,0.15252 0.79437,1.05967c-0.21892,0.9071 -1.23224,0.75448 -1.23224,0.75448l-1.80087,-0.2866c-1.95383,-1.01904 -3.22441,-2.45316 -4.95966,-3.70339c-1.00225,-0.7221 -2.23608,-1.11705 -3.27745,-1.77713c-0.93299,-0.59139 -1.64992,-1.5717 -2.83777,-1.84329c-2.77597,-0.63465 -6.34198,1.01053 -7.42677,3.2597c-0.79319,1.39697 -1.75676,2.64353 -2.64486,3.98644c-0.79627,1.20404 -1.03733,2.74655 -2.45485,3.6002c-1.40163,0.84415 -3.89489,0.51889 -5.32127,0.27908c-3.88876,-0.65377 -6.81735,-3.35687 -10.67518,-4.10087c0,0 -0.99938,-0.20327 -0.72392,-1.10036c0.27554,-0.897 1.27496,-0.69374 1.27496,-0.69374c3.81806,0.80718 6.80481,3.43638 10.6331,4.09269c0.68224,0.117 2.91507,0.49695 3.73169,-0.00081c0.50899,-0.31029 1.03933,-1.63347 1.1886,-1.91737c0.88632,-1.68562 2.17327,-3.19364 3.1233,-4.86517c1.54334,-3.05712 6.13982,-5.15167 9.8997,-4.32235c1.4927,0.32917 2.33742,1.38009 3.50189,2.12035c1.06453,0.67666 2.31438,1.0827 3.34463,1.82238c1.5504,1.11319 2.71949,2.48673 4.42121,3.43452l1.44154,0.2015z" fill="#000000" stroke="none"/><path d="M-270.98226,370.06337c0,0 -14.2381,5.43865 -21.2929,6.74952c-6.65847,1.23716 -20.01619,0.36761 -20.01619,0.36761l-3.51167,-18.89902c0,0 12.66933,-5.70584 19.44142,-6.96415c6.95908,-1.29305 21.56664,-1.77291 21.56664,-1.77291z" fill="#ff0000" stroke="#000000"/></g><path d="M-218.85327,367.24653c1.66871,2.35986 1.10844,5.62568 -1.25138,7.29439c-2.35986,1.66871 -5.62569,1.10851 -7.29445,-1.25137c-1.66866,-2.35977 -1.10841,-5.62572 1.25141,-7.29443c2.35986,-1.66871 5.62565,-1.10853 7.29438,1.25135z" data-paper-data="{&quot;index&quot;:null}" fill="url(#color-25)" stroke="none" stroke-width="0"/><g data-paper-data="{&quot;index&quot;:null}" stroke-width="1"><path d="M-229.08302,380.27035c0,0 -15.19445,-1.19663 -22.12929,-3.03968c-6.5452,-1.73946 -18.23769,-8.2565 -18.23769,-8.2565l4.93719,-18.57752c0,0 13.89205,0.28224 20.54902,2.05142c6.84072,1.81801 20.24121,7.65235 20.24121,7.65235z" fill="#696969" stroke="#000000"/><path d="M-227.58403,373.87237l-40.20384,-10.68452l1.88082,-7.07718l40.20389,10.68452z" fill="url(#color-26)" stroke="none"/><path d="M-227.72525,374.53777c0,0 0.84987,0.57258 0.2629,1.29796c-0.58697,0.72537 -1.43681,0.15277 -1.43681,0.15277l-1.50366,-1.03164c-1.32757,-1.75875 -1.85987,-3.59934 -2.89079,-5.47323c-0.59549,-1.08236 -1.54055,-1.96848 -2.19794,-3.01154c-0.58898,-0.93449 -0.81582,-2.12762 -1.77229,-2.88259c-2.23515,-1.76443 -6.16206,-1.80845 -8.107,-0.24224c-1.31585,0.92152 -2.72118,1.63391 -4.09955,2.46591c-1.23578,0.74593 -2.1154,2.03567 -3.76211,2.19856c-1.62829,0.16104 -3.7408,-1.20252 -4.92629,-2.03121c-3.23213,-2.259 -4.71752,-5.95727 -7.88302,-8.28468c0,0 -0.81546,-0.61242 -0.18171,-1.30449c0.6338,-0.69201 1.44929,-0.07965 1.44929,-0.07965c3.1024,2.36738 4.67214,6.02384 7.84842,8.25926c0.56602,0.39842 2.41982,1.69969 3.37099,1.60044c0.59292,-0.06185 1.63967,-1.0295 1.89633,-1.22185c1.52384,-1.14224 3.33347,-1.95216 4.90884,-3.0544c2.70576,-2.09913 7.75628,-2.01885 10.79665,0.34354c1.20698,0.93789 1.51915,2.24963 2.25325,3.41785c0.67116,1.068 1.62604,1.97098 2.23912,3.08125c0.92281,1.67077 1.38932,3.41304 2.51976,4.99936l1.21562,0.80055z" fill="#000000" stroke="none"/><path d="M-229.08302,380.27035c0,0 -15.19445,-1.19663 -22.12929,-3.03968c-6.5452,-1.73946 -18.23769,-8.2565 -18.23769,-8.2565l4.93719,-18.57752c0,0 13.89205,0.28224 20.54902,2.05142c6.84072,1.81801 20.24121,7.65235 20.24121,7.65235z" fill="#ff0000" stroke="#000000"/></g><g data-paper-data="{&quot;index&quot;:null}"><path d="M-176.69112,363.55174c0,0 51.86334,-18.71093 77.95719,-25.27978c25.39283,-6.39238 77.26261,-10.96768 77.26261,-10.96768l12.29268,46.38563c0,0 -45.72194,19.99233 -70.68865,26.27742c-26.45307,6.65926 -83.47753,13.94599 -83.47753,13.94599z" fill="#696969" stroke="#000000" stroke-width="2"/><path d="M-171.51089,380.21183l153.35713,-38.60595l4.6829,17.67072l-153.35698,38.60602z" fill="url(#color-27)" stroke="none" stroke-width="0"/><path d="M-167.92717,402.96305c-1.94912,-1.70193 1.4065,-3.40927 1.4065,-3.40927l4.79408,-2.39475c4.73481,-4.39092 7.04675,-8.99873 11.03527,-13.54918c2.65031,-3.02365 6.50596,-5.60953 9.35852,-8.54075c3.12045,-3.20646 4.71502,-6.66472 9.52215,-9.41001c12.10863,-6.91521 30.9588,-8.52116 40.35335,-3.87511c5.50903,2.3966 11.98721,3.97714 17.29106,6.49122c0.8933,0.42344 4.47653,2.62059 6.66599,2.61533c3.51256,-0.00846 10.84961,-3.86708 13.09055,-5.04811c12.57358,-6.62646 19.62625,-16.46036 31.9678,-23.40552c0,0 3.24084,-1.80019 5.37543,-0.19684c2.13454,1.60339 -1.10628,3.4036 -1.10628,3.4036c-12.56339,6.85965 -19.31568,16.77779 -32.10481,23.48039c-4.69092,2.45841 -13.01297,6.54917 -19.02876,6.58637c-6.08386,0.03771 -8.93802,-3.03402 -13.29886,-4.60893c-4.86383,-1.7566 -9.86723,-3.19869 -14.4686,-5.20269c-6.73394,-3.48684 -21.38432,-2.28549 -30.2953,2.86932c-3.81316,2.20582 -5.05113,5.33549 -7.5535,7.90088c-2.79313,2.86338 -6.60681,5.40309 -9.18209,8.35022c-4.45861,5.10247 -7.04789,9.98119 -12.57403,14.87003l-5.94365,3.06852c0,0 -3.35565,1.70733 -5.30481,0.0054z" fill="#000000" stroke="none" stroke-width="0.5"/><path d="M-176.69112,363.55174c0,0 51.86334,-18.71093 77.95719,-25.27978c25.39283,-6.39238 77.26261,-10.96768 77.26261,-10.96768l12.29268,46.38563c0,0 -45.72194,19.99233 -70.68865,26.27742c-26.45307,6.65926 -83.47753,13.94599 -83.47753,13.94599z" fill="#ff0000" stroke="#000000" stroke-width="2"/></g></g><g stroke-linecap="butt"><path d="M544.3272,352.61982c2.68432,10.65519 -3.77734,21.46888 -14.43242,24.15317c-10.65512,2.68429 -21.4689,-3.77734 -24.15318,-14.43246c-2.68429,-10.65512 3.77736,-21.46886 14.43247,-24.15314c10.65512,-2.68429 21.46886,3.77734 24.15314,14.43247z" fill="url(#color-28)" stroke="none" stroke-width="0"/><g><path d="M506.61145,382.42232c0,0 -56.84454,-8.57822 -83.13974,-15.83577c-24.8177,-6.8498 -70.07441,-27.874 -70.07441,-27.874l13.34165,-46.09484c0,0 51.75261,5.7506 76.99394,12.71734c25.93811,7.15901 77.36375,27.0415 77.36375,27.0415z" fill="#696969" stroke="#000000" stroke-width="2"/><path d="M510.45714,366.47473l-152.44191,-42.07444l5.08254,-17.55997l152.442,42.07446z" fill="url(#color-29)" stroke="none" stroke-width="0"/><path d="M511.44097,371.57906c-1.98729,1.65727 -5.30337,-0.12575 -5.30337,-0.12575l-5.87252,-3.2025c-5.41379,-5.01291 -7.89173,-9.94911 -12.23351,-15.15143c-2.50778,-3.00478 -6.26289,-5.6303 -8.99035,-8.55633c-2.44354,-2.62144 -3.6102,-5.77838 -7.37234,-8.07015c-8.79175,-5.3556 -23.41108,-6.88895 -30.22242,-3.55571c-4.64567,1.89917 -9.68045,3.22737 -14.58287,4.87317c-4.39542,1.47561 -7.31857,4.48183 -13.40001,4.30614c-6.01336,-0.17369 -14.24052,-4.45203 -18.87446,-7.01625c-12.63384,-6.99095 -19.1594,-17.05971 -31.56397,-24.20257c0,0 -3.19922,-1.87326 -1.02881,-3.42778c2.17043,-1.55451 5.36962,0.31873 5.36962,0.31873c12.18081,7.2233 19.00859,17.21461 31.42863,24.12455c2.21352,1.23155 9.46121,5.25568 12.97265,5.34374c2.18876,0.05495 5.82095,-2.06039 6.72358,-2.46351c5.35945,-2.39313 11.8718,-3.82631 17.43384,-6.09733c9.49753,-4.43176 28.3064,-2.39876 40.25504,4.78934c4.74363,2.85366 6.25936,6.34718 9.30629,9.62357c2.78537,2.99517 6.58141,5.66784 9.1624,8.75083c3.88435,4.63973 6.09115,9.29884 10.72514,13.79598l4.73846,2.50285c0,0 3.3161,1.78303 1.32885,3.44031z" fill="#000000" stroke="none" stroke-width="0.5"/><path d="M506.61145,382.42232c0,0 -56.84454,-8.57822 -83.13974,-15.83577c-24.8177,-6.8498 -70.07441,-27.874 -70.07441,-27.874l13.34165,-46.09484c0,0 51.75261,5.7506 76.99394,12.71734c25.93811,7.15901 77.36375,27.0415 77.36375,27.0415z" fill="#ff0000" stroke="#000000" stroke-width="2"/></g><path d="M806.01801,475.11529c0.41586,2.41722 -1.20662,4.71398 -3.6239,5.12985c-2.41722,0.41586 -4.71402,-1.20664 -5.12987,-3.62392c-0.41586,-2.41722 1.20665,-4.71396 3.62386,-5.12985c2.41722,-0.41586 4.71398,1.20664 5.12986,3.62392z" data-paper-data="{&quot;index&quot;:null}" fill="url(#color-30)" stroke="none" stroke-width="0"/><path d="M780.48046,498.59239c-0.56023,2.38792 -2.95023,3.86962 -5.33815,3.3094c-2.38795,-0.56024 -3.86962,-2.95028 -3.3094,-5.33819c0.56023,-2.38792 2.95019,-3.86962 5.33809,-3.30937c2.38795,0.56024 3.86959,2.95025 3.30939,5.3382z" data-paper-data="{&quot;index&quot;:null}" fill="url(#color-31)" stroke="none" stroke-width="0"/><path d="M680.4475,390.60808c9.26295,-5.91052 21.56358,-3.19282 27.47408,6.07018c5.91056,9.26304 3.19282,21.56358 -6.07018,27.47408c-9.26295,5.91052 -21.56355,3.19277 -27.47404,-6.0702c-5.91052,-9.26302 -3.19282,-21.56358 6.07018,-27.47408z" data-paper-data="{&quot;index&quot;:null}" fill="url(#color-32)" stroke="none" stroke-width="0"/><path d="M760.05281,399.98237c2.59426,1.27413 3.66445,4.41012 2.39031,7.00434c-1.27413,2.5943 -4.41008,3.66439 -7.00434,2.39027c-2.59426,-1.27413 -3.66442,-4.41004 -2.39029,-7.00437c1.27413,-2.5943 4.41006,-3.66443 7.00433,-2.39029z" data-paper-data="{&quot;index&quot;:null}" fill="url(#color-33)" stroke="none" stroke-width="0"/><path d="M780.81699,424.68963c1.56774,2.42808 0.87021,5.6674 -1.55783,7.23515c-2.42809,1.56778 -5.66742,0.87022 -7.23512,-1.55783c-1.56774,-2.42808 -0.87027,-5.66736 1.5578,-7.23512c2.42809,-1.56778 5.66744,-0.87023 7.23516,1.5578z" data-paper-data="{&quot;index&quot;:null}" fill="url(#color-34)" stroke="none" stroke-width="0"/><path d="M773.6626,450.88376c1.56773,2.42808 0.87024,5.66743 -1.55783,7.23515c-2.42805,1.56777 -5.66742,0.87024 -7.23519,-1.55781c-1.56774,-2.42808 -0.87022,-5.66742 1.55786,-7.23515c2.42805,-1.56777 5.66746,-0.87024 7.23519,1.55781z" data-paper-data="{&quot;index&quot;:null}" fill="url(#color-35)" stroke="none" stroke-width="0"/><path d="M755.74114,471.03248c1.56774,2.42808 0.87024,5.66743 -1.55783,7.23515c-2.42812,1.56777 -5.66746,0.87024 -7.23519,-1.55781c-1.56773,-2.42808 -0.87022,-5.66734 1.55787,-7.23507c2.42805,-1.56777 5.66737,-0.87027 7.23514,1.5578z" data-paper-data="{&quot;index&quot;:null}" fill="url(#color-36)" stroke="none" stroke-width="0"/><path d="M829.02078,510.64668c-0.64397,2.36672 -3.08469,3.76328 -5.45139,3.11928c-2.36671,-0.64397 -3.76331,-3.08465 -3.11927,-5.45139c0.64401,-2.3667 3.0847,-3.76327 5.45139,-3.11927c2.36671,0.64397 3.76331,3.08466 3.11931,5.45137z" data-paper-data="{&quot;index&quot;:null}" fill="url(#color-37)" stroke="none" stroke-width="0"/><g data-paper-data="{&quot;index&quot;:null}" stroke-width="1"><path d="M834.48457,509.98209c0,0 3.8662,11.78528 4.85948,17.70944c0.96647,5.76498 0.10265,17.52507 0.10265,17.52507l-16.08838,2.69736c0,0 -4.57854,-10.39634 -5.52884,-16.06457c-1.00687,-6.00569 -0.81231,-18.93875 -0.81231,-18.93875z" fill="#696969" stroke="#000000"/><path d="M828.67073,511.1243l5.83733,34.81699l-6.12886,1.02758l-5.8373,-34.81702z" fill="url(#color-38)" stroke="none"/><path d="M821.96839,512.21819l0.57995,1.09067c1.25062,1.081 2.68575,1.61344 4.02411,2.5257c0.88945,0.60621 1.57664,1.48449 2.42575,2.13637c0.92886,0.71297 2.01228,1.08084 2.70896,2.17506c1.75484,2.75639 1.42189,7.03004 -0.56647,9.14964c-1.05623,1.2436 -1.88419,2.70835 -2.97026,3.90512c-0.18294,0.20158 -1.08352,1.00918 -1.18287,1.50525c-0.1593,0.79577 0.79308,2.46543 1.08478,2.97531c1.63675,2.86114 4.60153,4.47755 6.35561,7.28677c0,0 0.45278,0.73766 -0.18232,1.21828c-0.63511,0.48051 -1.08783,-0.25712 -1.08783,-0.25712c-1.71517,-2.85928 -4.72212,-4.40778 -6.3744,-7.31794c-0.60603,-1.0674 -1.59059,-2.96056 -1.32527,-4.32351c0.26826,-1.37845 1.42785,-2.01921 2.15617,-3.00422c0.81235,-1.09858 1.5259,-2.22939 2.40889,-3.26811c1.47768,-1.51902 1.75206,-4.84049 0.43868,-6.86907c-0.56205,-0.86805 -1.5521,-1.15437 -2.29494,-1.72622c-0.82913,-0.63817 -1.50287,-1.50703 -2.37007,-2.09599c-1.50144,-1.0198 -3.01437,-1.61566 -4.39501,-2.87685l-0.7524,-1.35229c0,0 -0.41632,-0.76347 0.24312,-1.20188c0.65947,-0.43842 1.07579,0.32512 1.07579,0.32512z" fill="#000000" stroke="none"/><path d="M834.48457,509.98209c0,0 3.8662,11.78528 4.85948,17.70944c0.96647,5.76498 0.10265,17.52507 0.10265,17.52507l-16.08838,2.69736c0,0 -4.57854,-10.39634 -5.52884,-16.06457c-1.00687,-6.00569 -0.81231,-18.93875 -0.81231,-18.93875z" fill="#ff0000" stroke="#000000"/></g><g data-paper-data="{&quot;index&quot;:null}" stroke-width="1"><path d="M810.68974,472.20519c0,0 8.48221,9.04953 11.88461,13.99994c3.31107,4.8173 7.49498,15.84183 7.49498,15.84183l-13.44372,9.24007c0,0 -8.54125,-7.48977 -11.79664,-12.22632c-3.44922,-5.01847 -8.73529,-16.82355 -8.73529,-16.82355z" fill="#696969" stroke="#000000"/><path d="M805.90244,475.69599l19.99644,29.09366l-5.12141,3.52005l-19.99645,-29.09363z" fill="url(#color-39)" stroke="none"/><path d="M800.2894,479.51853l0.9863,0.74362c1.59013,0.45162 3.11576,0.32811 4.71432,0.58973c1.06213,0.17378 2.05612,0.67972 3.10106,0.91198c1.14316,0.254 2.28057,0.12982 3.37419,0.82734c2.75477,1.75725 4.25803,5.77169 3.35093,8.53278c-0.43221,1.57337 -0.56397,3.25061 -1.04294,4.79426c-0.08068,0.25998 -0.55587,1.37245 -0.43641,1.86402c0.19172,0.78863 1.76016,1.89977 2.23992,2.23869c2.69206,1.90217 6.06213,2.11509 8.83856,3.92053c0,0 0.72197,0.47739 0.34928,1.18127c-0.37272,0.70384 -1.09463,0.22642 -1.09463,0.22642c-2.76236,-1.86732 -6.14197,-2.00088 -8.86873,-3.94084c-1.00017,-0.71153 -2.69216,-2.01173 -3.02734,-3.35924c-0.33903,-1.36279 0.44139,-2.43336 0.68558,-3.63382c0.27231,-1.33892 0.44147,-2.66527 0.80313,-3.97975c0.69778,-2.00098 -0.45636,-5.12753 -2.50361,-6.41154c-0.87607,-0.54947 -1.89441,-0.39085 -2.80926,-0.59541c-1.02107,-0.22828 -1.99877,-0.73121 -3.03356,-0.89886c-1.79171,-0.29019 -3.41471,-0.19123 -5.19888,-0.75131l-1.25311,-0.90811c0,0 -0.6999,-0.51621 -0.28726,-1.19209c0.41265,-0.67588 1.11245,-0.15973 1.11245,-0.15973z" fill="#000000" stroke="none"/><path d="M810.68974,472.20519c0,0 8.48221,9.04953 11.88461,13.99994c3.31107,4.8173 7.49498,15.84183 7.49498,15.84183l-13.44372,9.24007c0,0 -8.54125,-7.48977 -11.79664,-12.22632c-3.44922,-5.01847 -8.73529,-16.82355 -8.73529,-16.82355z" fill="#ff0000" stroke="#000000"/></g><path d="M787.79705,540.28268c-1.51635,1.92789 -4.30851,2.26144 -6.23642,0.74511c-1.92787,-1.51633 -2.26151,-4.30847 -0.74516,-6.23633c1.51635,-1.92789 4.30853,-2.26147 6.2364,-0.74516c1.92787,1.51633 2.26148,4.30852 0.7451,6.23642z" data-paper-data="{&quot;index&quot;:null}" fill="url(#color-40)" stroke="none" stroke-width="0"/><g data-paper-data="{&quot;index&quot;:null}" stroke-width="1"><path d="M793.08699,541.80249c0,0 -1.03842,12.35979 -2.43534,18.20187c-1.35939,5.68518 -6.7431,16.17613 -6.7431,16.17613l-15.86572,-3.79356c0,0 -0.15933,-11.35873 1.17724,-16.94857c1.41618,-5.92255 6.64142,-17.75468 6.64142,-17.75468z" fill="#696969" stroke="#000000"/><path d="M787.28837,540.5858l-8.20971,34.33506l-6.04406,-1.44517l8.20978,-34.33508z" fill="url(#color-41)" stroke="none"/><path d="M780.6904,538.97806l0.1085,1.23048c0.72972,1.48333 1.84337,2.53345 2.71977,3.89569c0.58237,0.90513 0.87245,1.98197 1.3999,2.91347c0.57705,1.01893 1.43119,1.78032 1.64567,3.05967c0.54026,3.22258 -1.43369,7.02762 -4.09142,8.20343c-1.45774,0.73288 -2.79157,1.75843 -4.25855,2.43667c-0.24706,0.11424 -1.39143,0.50649 -1.67643,0.92447c-0.45721,0.67059 -0.23175,2.57936 -0.16209,3.16267c0.39071,3.273 2.48994,5.91808 3.00891,9.189c0,0 0.129,0.85582 -0.64317,1.05055c-0.77223,0.19464 -0.90122,-0.66113 -0.90122,-0.66113c-0.46363,-3.30185 -2.62813,-5.90083 -3.01399,-9.22501c-0.14155,-1.21924 -0.30935,-3.34645 0.46666,-4.49793c0.78484,-1.16456 2.10242,-1.3021 3.15737,-1.92492c1.17661,-0.69461 2.27484,-1.45745 3.49302,-2.06928c1.95323,-0.8221 3.50177,-3.77323 3.08395,-6.15341c-0.17876,-1.01854 -0.97872,-1.66854 -1.43962,-2.48486c-0.51444,-0.91112 -0.79578,-1.97402 -1.36443,-2.85465c-0.9846,-1.52479 -2.14509,-2.66363 -2.92427,-4.36358l-0.16505,-1.53875c0,0 -0.08547,-0.86537 0.69276,-1.0117c0.77821,-0.1464 0.8637,0.71907 0.8637,0.71907z" fill="#000000" stroke="none"/><path d="M793.08699,541.80249c0,0 -1.03842,12.35979 -2.43534,18.20187c-1.35939,5.68518 -6.7431,16.17613 -6.7431,16.17613l-15.86572,-3.79356c0,0 -0.15933,-11.35873 1.17724,-16.94857c1.41618,-5.92255 6.64142,-17.75468 6.64142,-17.75468z" fill="#ff0000" stroke="#000000"/></g><g data-paper-data="{&quot;index&quot;:null}" stroke-width="1"><path d="M785.91744,497.73566c0,0 4.27906,11.64179 5.48031,17.52727c1.16907,5.72738 0.72,17.51057 0.72,17.51057l-15.98338,3.26248c0,0 -4.94204,-10.22865 -6.09142,-15.85993c-1.21788,-5.96647 -1.479,-18.89835 -1.479,-18.89835z" fill="#696969" stroke="#000000"/><path d="M780.1475,499.08203l7.06029,34.58968l-6.08896,1.24282l-7.06026,-34.5897z" fill="url(#color-42)" stroke="none"/><path d="M773.48792,500.4114l0.61802,1.06956c1.28792,1.03629 2.74081,1.5179 4.11064,2.38239c0.91017,0.57446 1.62792,1.42808 2.49948,2.04957c0.9534,0.67988 2.04924,1.0093 2.78399,2.07833c1.85079,2.69285 1.66864,6.97553 -0.2438,9.16391c-1.01181,1.28002 -1.78756,2.773 -2.83084,4.00738c-0.17573,0.20792 -1.0474,1.04683 -1.12917,1.54605c-0.13121,0.80094 0.87943,2.43588 1.18886,2.93515c1.73647,2.80169 4.7565,4.31264 6.60843,7.05831c0,0 0.4785,0.72119 -0.13926,1.22391c-0.61772,0.50268 -1.09612,-0.21862 -1.09612,-0.21862c-1.81485,-2.79712 -4.87446,-4.23877 -6.62822,-7.08883c-0.64331,-1.04541 -1.69385,-2.90265 -1.47681,-4.27415c0.21955,-1.38692 1.35584,-2.06825 2.04904,-3.07828c0.77307,-1.12657 1.44633,-2.28179 2.2922,-3.35098c1.4232,-1.57014 1.58043,-4.89923 0.19638,-6.88022c-0.59224,-0.84774 -1.59177,-1.09904 -2.3543,-1.64431c-0.85112,-0.60857 -1.555,-1.45314 -2.44243,-2.01123c-1.53647,-0.9662 -3.06943,-1.50843 -4.4937,-2.72027l-0.79947,-1.32499c0,0 -0.44296,-0.74835 0.20069,-1.20967c0.64362,-0.46134 1.08664,0.28706 1.08664,0.28706z" fill="#000000" stroke="none"/><path d="M785.91744,497.73566c0,0 4.27906,11.64179 5.48031,17.52727c1.16907,5.72738 0.72,17.51057 0.72,17.51057l-15.98338,3.26248c0,0 -4.94204,-10.22865 -6.09142,-15.85993c-1.21788,-5.96647 -1.479,-18.89835 -1.479,-18.89835z" fill="#ff0000" stroke="#000000"/></g><path d="M857.15881,473.67694c0.22401,2.44255 -1.57453,4.60413 -4.01705,4.8281c-2.44253,0.22394 -4.60409,-1.5745 -4.8281,-4.01703c-0.22395,-2.4426 1.57453,-4.60413 4.01705,-4.8281c2.44252,-0.22397 4.60418,1.57455 4.8281,4.01703z" data-paper-data="{&quot;index&quot;:null}" fill="url(#color-43)" stroke="none" stroke-width="0"/><g data-paper-data="{&quot;index&quot;:null}" stroke-width="1"><path d="M862.04548,471.14429c0,0 7.74215,9.69022 10.74354,14.89345c2.92078,5.0634 6.22245,16.38357 6.22245,16.38357l-14.13049,8.1511c0,0 -7.92398,-8.13995 -10.79578,-13.11836c-3.04274,-5.27482 -7.3814,-17.45992 -7.3814,-17.45992z" fill="#696969" stroke="#000000"/><path d="M856.99789,474.24673l17.63997,30.57987l-5.38299,3.10515l-17.64,-30.5799z" fill="url(#color-44)" stroke="none"/><path d="M851.10085,477.61451l0.92462,0.81919c1.54961,0.57567 3.08026,0.57277 4.65317,0.95967c1.04514,0.25696 1.99601,0.8398 3.01947,1.15366c1.11944,0.34334 2.26327,0.30924 3.29847,1.0909c2.60765,1.96909 3.78958,6.0895 2.66765,8.77042c-0.55491,1.53437 -0.81854,3.19606 -1.41766,4.69704c-0.10092,0.25284 -0.66243,1.32436 -0.5821,1.82382c0.12892,0.80137 1.60481,2.03262 2.05639,2.4084c2.53368,2.10854 5.87644,2.5865 8.50184,4.60527c0,0 0.68207,0.53286 0.25506,1.20512c-0.42701,0.67224 -1.10899,0.13938 -1.10899,0.13938c-2.60647,-2.07929 -5.96505,-2.47901 -8.5303,-4.62792c-0.94092,-0.78817 -2.52521,-2.21779 -2.75306,-3.58746c-0.23052,-1.3852 0.63196,-2.39099 0.96996,-3.56845c0.3771,-1.31321 0.65022,-2.62213 1.11442,-3.90392c0.85345,-1.93971 -0.05054,-5.14753 -1.99019,-6.58902c-0.83001,-0.61679 -1.85776,-0.53905 -2.75358,-0.81512c-0.99995,-0.30807 -1.93487,-0.88661 -2.95327,-1.13532c-1.76323,-0.4306 -3.38896,-0.45992 -5.1234,-1.15893l-1.17763,-1.00409c0,0 -0.65699,-0.56973 -0.19237,-1.211c0.46459,-0.64131 1.12166,-0.07153 1.12166,-0.07153z" fill="#000000" stroke="none"/><path d="M862.04548,471.14429c0,0 7.74215,9.69022 10.74354,14.89345c2.92078,5.0634 6.22245,16.38357 6.22245,16.38357l-14.13049,8.1511c0,0 -7.92398,-8.13995 -10.79578,-13.11836c-3.04274,-5.27482 -7.3814,-17.45992 -7.3814,-17.45992z" fill="#ff0000" stroke="#000000"/></g><path d="M823.18656,448.42823c1.23468,2.11936 0.51738,4.83835 -1.60194,6.07303c-2.11936,1.23468 -4.83836,0.51738 -6.07304,-1.60195c-1.23467,-2.11932 -0.51733,-4.83835 1.60201,-6.07304c2.11932,-1.23467 4.83832,-0.51736 6.07299,1.60193z" data-paper-data="{&quot;index&quot;:null}" fill="url(#color-45)" stroke="none" stroke-width="0"/><g data-paper-data="{&quot;index&quot;:null}" stroke-width="1"><path d="M826.54633,444.06867c0,0 11.11054,5.51352 16.02873,8.96214c4.78614,3.356 12.55988,12.22237 12.55988,12.22237l-9.36545,13.3566c0,0 -10.62047,-4.03147 -15.32625,-7.33119c-4.98595,-3.49611 -14.0652,-12.70856 -14.0652,-12.70856z" fill="#696969" stroke="#000000"/><path d="M823.28135,449.01263l28.90516,20.26793l-3.56788,5.08826l-28.90512,-20.26801z" fill="url(#color-46)" stroke="none"/><path d="M819.35854,454.55611l1.184,0.35196c1.6477,-0.13274 3.03394,-0.78171 4.62306,-1.09545c1.05588,-0.20846 2.16405,-0.08182 3.2242,-0.22958c1.15974,-0.16161 2.182,-0.67568 3.45059,-0.40434c3.19531,0.6834 6.00696,3.919 6.12235,6.82296c0.14507,1.62521 0.6079,3.24275 0.6987,4.85637c0.01536,0.27182 -0.04098,1.4802 0.24276,1.89897c0.45527,0.67189 2.31313,1.16464 2.88115,1.31453c3.18708,0.84111 6.41901,-0.13758 9.65144,0.58344c0,0 0.84326,0.19492 0.74018,0.98468c-0.10315,0.78962 -0.94641,0.59475 -0.94641,0.59475c-3.24082,-0.78387 -6.45389,0.27241 -9.68682,-0.59204c-1.18583,-0.317 -3.22548,-0.94376 -4.01062,-2.089c-0.79399,-1.1582 -0.43698,-2.43417 -0.62796,-3.64421c-0.21293,-1.34961 -0.51818,-2.65146 -0.63873,-4.00935c-0.04576,-2.11865 -2.21998,-4.64449 -4.587,-5.13178c-1.01283,-0.20854 -1.91151,0.29604 -2.84014,0.42422c-1.03645,0.14308 -2.12829,0.01355 -3.15643,0.21833c-1.78008,0.35438 -3.2661,1.01439 -5.1335,1.11335l-1.49148,-0.41275c0,0 -0.83612,-0.23897 -0.68584,-1.01645c0.15034,-0.77747 0.98649,-0.53847 0.98649,-0.53847z" fill="#000000" stroke="none"/><path d="M826.54633,444.06867c0,0 11.11054,5.51352 16.02873,8.96214c4.78614,3.356 12.55988,12.22237 12.55988,12.22237l-9.36545,13.3566c0,0 -10.62047,-4.03147 -15.32625,-7.33119c-4.98595,-3.49611 -14.0652,-12.70856 -14.0652,-12.70856z" fill="#ff0000" stroke="#000000"/></g><g data-paper-data="{&quot;index&quot;:null}" stroke-width="1"><path d="M783.39385,434.23785c0,0 12.40145,0.21292 18.32365,1.21765c5.76307,0.97764 16.5894,5.65079 16.5894,5.65079l-2.72857,16.08314c0,0 -11.32288,0.91551 -16.98931,-0.04577c-6.00374,-1.01851 -18.15761,-5.44417 -18.15761,-5.44417z" fill="#696969" stroke="#000000"/><path d="M782.56607,440.10466l34.80557,5.90475l-1.03946,6.12686l-34.80559,-5.90479z" fill="url(#color-47)" stroke="none"/><path d="M781.40137,446.79497l1.22053,-0.19011c1.43139,-0.82687 2.40503,-2.00796 3.70584,-2.97321c0.86428,-0.64131 1.91955,-1.00248 2.81379,-1.59079c0.9782,-0.64362 1.68103,-1.54649 2.94323,-1.84576c3.17942,-0.7537 7.10745,0.9625 8.45774,3.53602c0.8284,1.40569 1.94049,2.66824 2.71496,4.08678c0.13045,0.23893 0.59811,1.35465 1.03414,1.61116c0.69946,0.41152 2.58911,0.0595 3.16646,-0.04885c3.23973,-0.60777 5.73904,-2.87849 8.96819,-3.6142c0,0 0.84534,-0.18576 1.09104,0.57178c0.24572,0.75753 -0.59965,0.94331 -0.59965,0.94331c-3.26369,0.68255 -5.71277,3.01523 -9.00379,3.62164c-1.20708,0.22239 -3.31844,0.53151 -4.51902,-0.16608c-1.21423,-0.70557 -1.43924,-2.01116 -2.13087,-3.02219c-0.77142,-1.12771 -1.60565,-2.17265 -2.2973,-3.34752c-0.95037,-1.89405 -3.99809,-3.24263 -6.3452,-2.66717c-1.00434,0.24618 -1.59958,1.08754 -2.38342,1.60178c-0.87484,0.57396 -1.91662,0.92546 -2.75744,1.55154c-1.45585,1.08395 -2.51486,2.3177 -4.15919,3.20838l-1.52427,0.26713c0,0 -0.85788,0.14297 -1.05573,-0.62382c-0.19786,-0.76677 0.65994,-0.90972 0.65994,-0.90972z" fill="#000000" stroke="none"/><path d="M783.39385,434.23785c0,0 12.40145,0.21292 18.32365,1.21765c5.76307,0.97764 16.5894,5.65079 16.5894,5.65079l-2.72857,16.08314c0,0 -11.32288,0.91551 -16.98931,-0.04577c-6.00374,-1.01851 -18.15761,-5.44417 -18.15761,-5.44417z" fill="#ff0000" stroke="#000000"/></g><g data-paper-data="{&quot;index&quot;:null}" stroke-width="1"><path d="M773.69625,447.90996c0,0 11.54468,4.53466 16.742,7.54626c5.05774,2.93061 13.56734,11.09342 13.56734,11.09342l-8.17855,14.11461c0,0 -10.92856,-3.10039 -15.90147,-5.98191c-5.26887,-3.05303 -15.10893,-11.44807 -15.10893,-11.44807z" fill="#696969" stroke="#000000"/><path d="M770.86982,453.11708l30.54554,17.69928l-3.11558,5.377l-30.54567,-17.6992z" fill="url(#color-48)" stroke="none"/><path d="M767.43976,458.97821l1.21002,0.24845c1.63015,-0.27436 2.95521,-1.04049 4.51135,-1.49013c1.03398,-0.29873 2.14889,-0.26824 3.19238,-0.50682c1.14147,-0.26109 2.1157,-0.86133 3.40291,-0.70048c3.24234,0.40529 6.32264,3.38632 6.68802,6.26957c0.28472,1.60659 0.88534,3.17824 1.11508,4.77798c0.03877,0.26947 0.08682,1.47818 0.40566,1.87101c0.5115,0.63005 2.40503,0.96075 2.98382,1.06109c3.24775,0.56299 6.38319,-0.69069 9.66574,-0.25118c0,0 0.85697,0.12149 0.82239,0.91706c-0.03458,0.79562 -0.89154,0.67421 -0.89154,0.67421c-3.29643,-0.50138 -6.4064,0.82798 -9.70176,0.24572c-1.20871,-0.21355 -3.29494,-0.66191 -4.17585,-1.73524c-0.89094,-1.08549 -0.64539,-2.38745 -0.93996,-3.57648c-0.32855,-1.32624 -0.74488,-2.59682 -0.98219,-3.93932c-0.22829,-2.1068 -2.61231,-4.43574 -5.01248,-4.71709c-1.02706,-0.12044 -1.87888,0.45982 -2.79299,0.66761c-1.02025,0.23192 -2.11912,0.1971 -3.12579,0.48975c-1.74294,0.50668 -3.16648,1.29242 -5.01835,1.5521l-1.52147,-0.28256c0,0 -0.85369,-0.1659 -0.77103,-0.95347c0.08268,-0.78753 0.93631,-0.62159 0.93631,-0.62159z" fill="#000000" stroke="none"/><path d="M773.69625,447.90996c0,0 11.54468,4.53466 16.742,7.54626c5.05774,2.93061 13.56734,11.09342 13.56734,11.09342l-8.17855,14.11461c0,0 -10.92856,-3.10039 -15.90147,-5.98191c-5.26887,-3.05303 -15.10893,-11.44807 -15.10893,-11.44807z" fill="#ff0000" stroke="#000000"/></g><g data-paper-data="{&quot;index&quot;:null}" stroke-width="1"><path d="M761.33499,460.93229c0,0 8.86042,8.67964 12.47082,13.48032c3.51342,4.67171 8.16377,15.50774 8.16377,15.50774l-13.03742,9.80499c0,0 -8.85283,-7.11865 -12.30726,-11.71199c-3.66009,-4.86675 -9.44477,-16.43567 -9.44477,-16.43567z" fill="#696969" stroke="#000000"/><path d="M756.70094,464.62411l21.21908,28.21432l-4.96655,3.73522l-21.21909,-28.21433z" fill="url(#color-49)" stroke="none"/><path d="M751.25592,468.68246l1.01707,0.70093c1.60799,0.38346 3.12703,0.19502 4.73522,0.38816c1.06857,0.12836 2.08326,0.59141 3.13715,0.77885c1.15287,0.20499 2.28399,0.03237 3.40643,0.68273c2.82725,1.63819 4.50026,5.58486 3.71179,8.38209c-0.36467,1.59037 -0.42488,3.27176 -0.83755,4.8344c-0.06949,0.26321 -0.49686,1.3949 -0.3565,1.88095c0.22513,0.77964 1.83954,1.82294 2.33335,2.14113c2.7707,1.78558 6.14681,1.85457 8.99774,3.53996c0,0 0.74166,0.44619 0.39934,1.16527c-0.34233,0.71906 -1.08394,0.27289 -1.08394,0.27289c-2.83955,-1.74782 -6.22175,-1.7372 -9.02875,-3.55912c-1.02957,-0.66827 -2.77546,-1.8951 -3.16787,-3.22707c-0.39681,-1.34704 0.33728,-2.45001 0.52999,-3.65972c0.21497,-1.34934 0.32737,-2.68167 0.63261,-4.01037c0.61184,-2.02893 -0.67457,-5.10343 -2.77477,-6.29895c-0.8987,-0.51159 -1.90934,-0.3097 -2.83203,-0.475c-1.02994,-0.18448 -2.02816,-0.64534 -3.06917,-0.76868c-1.80247,-0.21356 -3.41967,-0.04543 -5.22617,-0.52887l-1.29069,-0.85377c0,0 -0.72127,-0.48599 -0.33783,-1.1788c0.38344,-0.69287 1.10464,-0.20697 1.10464,-0.20697z" fill="#000000" stroke="none"/><path d="M761.33499,460.93229c0,0 8.86042,8.67964 12.47082,13.48032c3.51342,4.67171 8.16377,15.50774 8.16377,15.50774l-13.03742,9.80499c0,0 -8.85283,-7.11865 -12.30726,-11.71199c-3.66009,-4.86675 -9.44477,-16.43567 -9.44477,-16.43567z" fill="#ff0000" stroke="#000000"/></g><path d="M729.25367,476.11071c-28.87364,-16.21156 -42.47279,-46.82186 -30.37424,-68.36989c12.09852,-21.54807 45.31301,-25.87405 74.18674,-9.66242c28.87372,16.21161 26.18289,33.88358 14.08448,55.43169c-12.09852,21.54807 -29.0232,38.81232 -57.89693,22.60062z" data-paper-data="{&quot;index&quot;:null}" fill="#ff0000" stroke="#000000" stroke-width="1"/><path d="M786.26571,375.33501c2.31017,1.73683 2.77506,5.01763 1.03832,7.32783c-1.73676,2.31026 -5.01751,2.77503 -7.32774,1.03827c-2.31019,-1.73678 -2.77506,-5.01754 -1.03831,-7.32779c1.73676,-2.31026 5.01752,-2.77506 7.32778,-1.0383z" data-paper-data="{&quot;index&quot;:null}" fill="url(#color-50)" stroke="none" stroke-width="0"/><g data-paper-data="{&quot;index&quot;:null}" stroke-width="1"><path d="M787.92005,369.06382c0,0 14.58736,0.9053 21.50583,2.40055c6.73256,1.45509 19.23024,7.52767 19.23024,7.52767l-4.06084,18.78867c0,0 -13.37739,0.47996 -19.99698,-0.95068c-7.01364,-1.51588 -21.0872,-7.36711 -21.0872,-7.36711z" fill="#696969" stroke="#000000"/><path d="M786.6359,375.92636l40.66054,8.78809l-1.54699,7.15757l-40.66053,-8.7881z" fill="url(#color-51)" stroke="none"/><path d="M784.91172,383.7406l1.4468,-0.15942c1.72861,-0.8978 2.93724,-2.2367 4.5194,-3.30425c1.05135,-0.70939 2.31252,-1.07883 3.39631,-1.72419c1.18555,-0.70599 2.06052,-1.73187 3.56217,-2.01741c3.78247,-0.71941 8.31597,1.50818 9.76958,4.60897c0.90093,1.6985 2.14339,3.24337 2.98022,4.9541c0.14095,0.28816 0.63247,1.6262 1.13223,1.95119c0.80176,0.52137 3.04471,0.20661 3.73007,0.10955c3.84579,-0.54447 6.90786,-3.08553 10.74784,-3.78113c0,0 1.00492,-0.17407 1.2542,0.73059c0.24922,0.90473 -0.75566,1.07881 -0.75566,1.07881c-3.87789,0.63127 -6.88401,3.24789 -10.79015,3.78807c-1.43277,0.19816 -3.93443,0.45064 -5.31089,-0.43399c-1.39206,-0.89459 -1.58806,-2.4435 -2.34892,-3.67021c-0.84859,-1.36824 -1.77543,-2.64233 -2.52758,-4.0618c-1.01879,-2.27984 -4.53534,-4.02821 -7.32863,-3.47471c-1.19526,0.23686 -1.94044,1.19585 -2.89027,1.75981c-1.06014,0.62945 -2.30498,0.98829 -3.32783,1.68088c-1.77094,1.19915 -3.08279,2.59564 -5.06546,3.55731l-1.80846,0.23402c0,0 -1.01734,0.123 -1.20974,-0.79009c-0.19238,-0.91315 0.82491,-1.03609 0.82491,-1.03609z" fill="#000000" stroke="none"/><path d="M787.92005,369.06382c0,0 14.58736,0.9053 21.50583,2.40055c6.73256,1.45509 19.23024,7.52767 19.23024,7.52767l-4.06084,18.78867c0,0 -13.37739,0.47996 -19.99698,-0.95068c-7.01364,-1.51588 -21.0872,-7.36711 -21.0872,-7.36711z" fill="#ff0000" stroke="#000000"/></g><path d="M731.48632,385.1284c1.73676,-2.31026 5.01749,-2.77504 7.32773,-1.03828c2.31019,1.73678 2.77506,5.01767 1.03832,7.3278c-1.73679,2.31023 -5.01755,2.77503 -7.3278,1.03828c-2.31019,-1.73678 -2.77506,-5.01753 -1.03831,-7.32778z" data-paper-data="{&quot;index&quot;:null}" fill="url(#color-52)" stroke="none" stroke-width="0"/><g data-paper-data="{&quot;index&quot;:null}" stroke-width="1"><path d="M736.56176,378.1272c0,0 13.56479,-5.44141 20.45559,-7.05932c6.70568,-1.57448 20.60007,-1.45182 20.60007,-1.45182l4.39378,18.71349c0,0 -11.87741,6.17359 -18.47052,7.72161c-6.98563,1.64021 -22.20846,2.39359 -22.20846,2.39359z" fill="#696969" stroke="#000000"/><path d="M738.34644,384.87685l40.49813,-9.50853l1.67381,7.12897l-40.49807,9.50853z" fill="url(#color-53)" stroke="none"/><path d="M740.14202,392.67501l1.23843,-0.76478c1.17619,-1.55272 1.69329,-3.28066 2.66436,-4.92381c0.64516,-1.09191 1.62597,-1.9667 2.32796,-3.01467c0.76783,-1.14635 1.11809,-2.44842 2.35188,-3.35077c3.10792,-2.2728 8.15862,-2.20589 10.80207,-0.0288c1.54256,1.14767 3.32785,2.00998 4.81774,3.19612c0.25096,0.19976 1.26909,1.19748 1.85994,1.27658c0.94788,0.12694 2.8388,-1.11973 3.41619,-1.50151c3.24004,-2.14194 4.91569,-5.75112 8.08573,-8.02708c0,0 0.83301,-0.58835 1.44637,0.12185c0.61331,0.71025 -0.21965,1.29864 -0.21965,1.29864c-3.23196,2.23416 -4.82449,5.8876 -8.12107,8.05148c-1.20912,0.79377 -3.36047,2.09522 -4.98337,1.88679c-1.64125,-0.2108 -2.48294,-1.52564 -3.69644,-2.30727c-1.35353,-0.87181 -2.73751,-1.62485 -4.02597,-2.58432c-1.89848,-1.6222 -5.82501,-1.69262 -8.1106,0.00593c-0.97807,0.72678 -1.23959,1.91281 -1.85555,2.82975c-0.68751,1.02347 -1.65797,1.88166 -2.28474,2.94621c-1.08508,1.84307 -1.67079,3.66732 -3.04905,5.38668l-1.53308,0.98738c0,0 -0.86615,0.5476 -1.43177,-0.19458c-0.56556,-0.74218 0.30064,-1.28975 0.30064,-1.28975z" fill="#000000" stroke="none"/><path d="M736.56176,378.1272c0,0 13.56479,-5.44141 20.45559,-7.05932c6.70568,-1.57448 20.60007,-1.45182 20.60007,-1.45182l4.39378,18.71349c0,0 -11.87741,6.17359 -18.47052,7.72161c-6.98563,1.64021 -22.20846,2.39359 -22.20846,2.39359z" fill="#ff0000" stroke="#000000"/></g><g data-paper-data="{&quot;index&quot;:null}"><path d="M674.64171,430.158c0,0 -56.78794,-8.94519 -83.03574,-16.37241c-24.77298,-7.00991 -69.89298,-28.32598 -69.89298,-28.32598l13.63903,-46.00776c0,0 51.71443,6.08474 76.91021,13.21428c25.89137,7.32637 77.18747,27.54054 77.18747,27.54054z" fill="#696969" stroke="#000000" stroke-width="2"/><path d="M678.59031,414.23559l-152.16698,-43.0581l5.19579,-17.52675l152.16711,43.05802z" fill="url(#color-54)" stroke="none" stroke-width="0"/><path d="M679.54109,419.34602c-1.99793,1.64441 -5.30238,-0.15995 -5.30238,-0.15995l-5.85173,-3.2404c-5.38132,-5.04779 -7.82735,-9.99987 -12.1354,-15.23009c-2.4883,-3.02088 -6.22639,-5.67066 -8.93488,-8.6142c-2.42655,-2.63719 -3.5728,-5.80161 -7.32006,-8.11762c-8.75701,-5.41224 -23.36614,-7.03997 -30.19881,-3.75082c-4.65781,1.86907 -9.70109,3.16477 -14.61403,4.7789c-4.40487,1.44719 -7.34732,4.43445 -13.4275,4.21947c-6.01213,-0.2125 -14.21148,-4.54397 -18.82876,-7.13802c-12.58843,-7.07241 -19.04887,-17.18311 -31.40703,-24.40589c0,0 -3.18701,-1.89388 -1.00665,-3.43439c2.1804,-1.54048 5.36742,0.35339 5.36742,0.35339c12.13393,7.30182 18.89706,17.33704 31.27222,24.32704c2.20555,1.24582 9.42707,5.31662 12.9379,5.4274c2.18837,0.06904 5.8341,-2.02277 6.73936,-2.41998c5.37485,-2.35845 11.89636,-3.74961 17.47288,-5.98465c9.52595,-4.37032 28.32131,-2.21583 40.22331,5.04926c4.72509,2.88422 6.21822,6.38744 9.24392,9.68347c2.76592,3.01308 6.54463,5.71022 9.10569,8.8098c3.85426,4.6647 6.03095,9.33796 10.63582,13.86497l4.72227,2.53344c0,0 3.30446,1.80437 1.30659,3.44879z" fill="#000000" stroke="none" stroke-width="0.5"/><path d="M674.64171,430.158c0,0 -56.78794,-8.94519 -83.03574,-16.37241c-24.77298,-7.00991 -69.89298,-28.32598 -69.89298,-28.32598l13.63903,-46.00776c0,0 51.71443,6.08474 76.91021,13.21428c25.89137,7.32637 77.18747,27.54054 77.18747,27.54054z" fill="#ff0000" stroke="#000000" stroke-width="2"/></g></g><path d="M161.24357,317.16226l0.10073,-18.29933l184.73571,1.01686l-0.10073,18.29933z" fill="url(#color-55)" stroke="none" stroke-width="0" stroke-linecap="butt"/><path d="M180.48186,304.98449c-0.05431,9.86583 -8.09611,17.81958 -17.96189,17.76527c-9.86583,-0.05431 -17.81958,-8.09611 -17.76528,-17.96195c0.05431,-9.86581 8.09615,-17.81958 17.96195,-17.76528c9.86581,0.05431 17.81955,8.09614 17.76524,17.96195z" fill="url(#color-56)" stroke="none" stroke-width="0" stroke-linecap="butt"/><path d="M369.51666,310.45435c-0.05822,10.57849 -8.68094,19.10676 -19.25935,19.04853c-10.57841,-0.05824 -19.10677,-8.68098 -19.04854,-19.25939c0.05822,-10.57844 8.68095,-19.10671 19.25939,-19.04849c10.57841,0.05824 19.10673,8.68091 19.04848,19.25935z" fill="url(#color-57)" stroke="none" stroke-width="0" stroke-linecap="butt"/><path d="M257.83922,266.1221c39.10393,1.33068 123.69234,77.34502 123.17182,171.91218c-0.16971,30.83249 -6.23578,59.7291 -16.71112,84.66158c-21.65374,51.53867 -193.64273,51.46386 -214.93351,0.76124c-10.70273,-25.48788 -16.7582,-55.15375 -16.58407,-86.78915c0.52054,-94.56716 78.8796,-172.11722 125.05687,-170.54586z" fill="#696969" stroke="#000000" stroke-width="2" stroke-linecap="butt"/><path d="M248.90475,410.16218l78.73369,-106.51324l14.7156,10.87769l-78.73369,106.51324z" fill="url(#color-58)" stroke="none" stroke-width="0" stroke-linecap="butt"/><path d="M254.65504,422.73339l-77.55638,-107.37356l14.83446,-10.71503l77.55643,107.37357z" data-paper-data="{&quot;index&quot;:null}" fill="url(#color-59)" stroke="none" stroke-width="0" stroke-linecap="butt"/><path d="M247.04525,560.68419l0.86815,-157.72242l21.78486,0.11992l-0.86815,157.72242z" fill="url(#color-60)" stroke="none" stroke-width="0" stroke-linecap="butt"/><path d="M272.93888,401.77748c0.65146,-3.20223 3.85365,-2.55078 3.85365,-2.55078l2.50026,0.58813c1.21892,0.55402 2.43773,1.10801 3.65666,1.66203c6.28512,5.11994 12.34908,11.88076 17.92477,18.41465c2.30374,-1.12765 4.34294,-2.82662 5.95385,-5.30387c3.7665,-5.79238 -0.23981,-12.21366 -1.08302,-18.06501c-1.02726,-7.12844 0.97519,-14.46058 0.11954,-21.61882c-1.2466,-10.4287 -9.10412,-21.24171 -15.66664,-29.08417c-6.26373,-7.60982 -18.08333,-8.89385 -23.04136,-17.125c-4.17963,-6.93885 -1.56035,-15.45991 -4.24706,-22.6291c-0.44657,3.07711 -1.47146,6.01819 -3.27707,8.74074c-4.45489,6.71744 -13.80827,13.27175 -20.56184,17.33841c-4.38544,2.64066 -12.48738,4.75476 -15.91792,8.72122c-2.63897,3.0512 -3.19671,7.40842 -4.86227,11.08263c-6.54343,14.43475 -17.17141,30.8973 -1.09413,42.44884c3.61307,2.596 6.72806,4.20638 11.20589,4.14036l1.45831,0.00803c0,0 3.26777,0.01797 3.24979,3.28572c-0.01799,3.26774 -3.28577,3.24974 -3.28577,3.24974l-1.45831,-0.00803c-11.75651,-0.23535 -28.3585,-12.26965 -27.17184,-25.73184c0.89285,-10.12903 7.01013,-20.97291 11.14345,-30.09113c0.4783,-1.05522 5.49664,-12.22902 5.93107,-12.72745c4.02635,-4.61942 12.30476,-6.90172 17.4346,-9.97958c6.00492,-3.60292 14.55005,-9.51256 18.55652,-15.45864c3.84421,-5.70539 2.80986,-13.57218 0.38267,-21.45378c-4.29139,-6.8882 -9.52962,-13.19412 -15.79463,-17.74687c0,0 -2.6352,-1.93246 -0.70268,-4.56757c1.93242,-2.63515 4.5676,-0.70273 4.5676,-0.70273c1.64717,1.21765 3.23941,2.54258 4.77435,3.95822c-0.25789,-0.7279 -0.49421,-1.43134 -0.70376,-2.10694c0,0 -0.96787,-3.1212 2.15332,-4.08902c3.12117,-0.96785 4.08899,2.15333 4.08899,2.15333c1.78945,5.77069 4.71185,12.43027 6.96333,19.24416c3.54701,5.558 6.49176,11.48569 8.76836,17.30849c2.77656,7.1016 0.26928,15.61767 4.07261,22.36875c2.26669,4.02346 8.59242,5.02804 12.225,7.14607c3.91631,2.28348 7.24123,5.57153 10.16277,9.03803c7.4043,8.91225 15.69731,20.69965 17.13202,32.4605c0.874,7.16462 -1.16573,14.52765 -0.11854,21.62718c1.15822,7.85195 5.13361,14.53737 0.15316,22.30595c-2.00331,3.12486 -4.46057,5.36799 -7.21497,6.94003c0.10367,0.12292 0.20717,0.24559 0.31038,0.36796c3.99315,4.73309 6.49456,9.74106 11.90277,13.09097c16.84117,10.43149 19.70507,-16.67596 17.54646,-26.84287c-9.44677,-26.49458 -21.70777,-54.36594 -6.56937,-81.79164c2.16623,-3.92454 5.20074,-6.97636 8.37905,-9.93054c0.1748,1.63152 1.55145,2.90632 3.23107,2.91555c0.19413,0.00108 0.38445,-0.01479 0.56942,-0.04624c0.26356,0.52703 0.66538,0.97302 1.15818,1.29027c-2.92986,2.67299 -5.72296,5.45502 -7.61826,8.93336c-14.07312,25.82814 -1.63519,52.04937 7.14059,76.85724c1.3789,6.56746 2.69153,14.41426 0.58402,21.00768c-4.02122,12.58034 -15.76822,20.4382 -27.85247,13.16968c-6.12646,-3.68499 -9.02182,-9.1539 -13.4665,-14.4386c-0.58628,-0.69712 -1.18078,-1.40693 -1.78284,-2.12578c-7.3515,1.66249 -15.72449,0.42875 -23.03831,-0.90631c-1.38185,-0.37959 -2.76366,-0.75918 -4.14551,-1.13874l0.12087,0.11333c0,0 -3.26774,-0.01799 -3.24974,-3.28577c0.01799,-3.26774 3.28572,-3.24974 3.28572,-3.24974l1.57911,0.1213c1.28767,0.35586 2.57539,0.71179 3.86308,1.06769c5.06037,0.91448 11.16488,2.08922 16.76988,1.57496c-4.54411,-5.29715 -9.3999,-10.60625 -14.36637,-14.68122c-0.96327,-0.41904 -1.92652,-0.83808 -2.88973,-1.25712l-1.14142,-0.15275c0,0 -3.20221,-0.65146 -2.5508,-3.8536z" fill="#000000" stroke="none" stroke-width="0.5" stroke-linecap="butt"/><path d="M246.52054,420.99987c1.43173,2.93746 -1.50571,4.36917 -1.50571,4.36917l-2.07178,0.82459c-5.27589,5.07323 -8.40766,11.96378 -12.25458,18.22388c-14.05059,22.62237 -45.48145,19.70761 -57.20524,-3.9612c-6.58499,-13.29427 0.05512,-33.77751 7.69371,-44.98017c11.40327,-19.03902 12.63038,-35.29705 7.2096,-56.47234c-1.37894,-5.38658 -4.34478,-13.6774 -9.43582,-17.6866c0.85683,-0.61957 1.23666,-1.55414 1.23666,-1.55414c0.53642,-1.36907 1.21063,-2.71027 2.04705,-3.92892c4.96106,3.64456 8.22561,9.72944 10.55963,15.72506c9.23473,23.72219 6.78824,45.80722 -6.11037,67.43688c-6.59147,9.64976 -11.01723,24.01049 -8.54264,35.97035c0.69007,3.33516 3.38188,5.99113 5.64607,8.23776c4.01586,3.98469 8.22849,9.07819 14.09515,10.39861c11.59011,2.60868 21.49606,-3.14738 27.23805,-12.60692c4.1823,-6.80561 7.58718,-13.85804 13.25383,-19.47526l3.77723,-2.02628c0,0 2.93742,-1.43176 4.36915,1.50568z" fill="#000000" stroke="none" stroke-width="0.5" stroke-linecap="butt"/><path d="M264.80768,408.12058c3.26774,0.01799 3.24974,3.28572 3.24974,3.28572l-0.18498,2.48473c-2.42589,7.04263 -3.34166,14.74892 -6.44837,21.55804c-1.70626,3.73967 -6.76938,8.83762 -6.34024,13.52209c0.44158,4.82069 5.24695,9.15283 8.21399,12.48066c6.69363,7.50746 14.82536,13.34423 21.72092,20.72825c1.35732,3.49207 3.36667,6.99884 2.5933,10.97707c-2.7868,14.33591 -23.99314,22.35632 -35.06525,29.26887c-3.22566,2.01383 -7.78258,2.49611 -9.91284,5.64611c-0.63217,0.93476 0.35793,2.23195 0.64383,3.32359c1.4966,5.7149 3.21005,10.15263 6.49226,15.06932c3.22954,4.83783 6.08179,7.80808 10.90945,11.01472c0,0 2.71867,1.81309 0.90552,4.53176c-1.81313,2.71867 -4.53174,0.90549 -4.53174,0.90549c-5.50986,-3.68793 -9.03518,-7.29544 -12.72045,-12.82572c-3.30006,-4.95224 -11.09782,-18.45409 -7.50962,-25.01058c0.57079,-1.04293 10.69717,-7.22126 12.26245,-8.19849c10.57974,-6.60515 36.22585,-15.63609 30.40548,-31.21508c-9.50912,-9.79141 -29.66636,-21.15612 -30.9322,-36.32169c-0.52869,-6.3341 4.55589,-11.46293 6.95094,-16.67789c3.01036,-6.5547 3.85235,-14.09639 6.18114,-20.89889l-0.16912,-0.39836c0,0 0.01799,-3.26769 3.2857,-3.24971z" fill="#000000" stroke="none" stroke-width="0.5" stroke-linecap="butt"/><g><path d="M210.8853,441.21674l0.48924,-88.88227l92.58568,0.50962l-0.48924,88.88227z" fill="#323232" stroke="none" stroke-width="0" stroke-linecap="butt"/><g stroke="#000000"><path d="M257.28568,358.86526c19.77968,0.10887 35.72605,16.23177 35.61718,36.01148c-0.10887,19.77968 -16.23182,35.72605 -36.01144,35.61718c-19.77968,-0.10887 -35.72605,-16.23182 -35.61718,-36.01144c0.10887,-19.77968 16.23181,-35.72608 36.01144,-35.6172z" fill="#878787" stroke-width="1" stroke-linecap="butt"/><path d="M229.82541,372.80774l55.27338,-0.06923" fill="none" stroke-width="1.5" stroke-linecap="round"/><path d="M225.29261,382.11959l64.60563,0.72907" fill="none" stroke-width="1.5" stroke-linecap="round"/><path d="M221.88829,389.94334l69.08093,1.87414" fill="none" stroke-width="1.5" stroke-linecap="round"/><path d="M221.99974,397.97361l70.2054,1.13337" fill="none" stroke-width="1.5" stroke-linecap="round"/><path d="M274.02654,364.46423l-32.17236,-0.5793" fill="none" stroke-width="1.5" stroke-linecap="round"/><path d="M229.14939,416.4738l55.26923,0.6777" data-paper-data="{&quot;index&quot;:null}" fill="none" stroke-width="1.5" stroke-linecap="round"/><path d="M289.32904,407.09481l-64.60974,0.01781" data-paper-data="{&quot;index&quot;:null}" fill="none" stroke-width="1.5" stroke-linecap="round"/><path d="M273.25593,425.30346l-32.1768,0.22506" data-paper-data="{&quot;index&quot;:null}" fill="none" stroke-width="1.5" stroke-linecap="round"/></g></g><g stroke="#000000" stroke-width="2" stroke-linecap="butt"><path d="M258.70578,266.99829c0.51642,-0.06153 -0.22977,35.24571 0.89336,89.34177c-2.52502,-0.82933 -39.69804,1.68055 -39.80189,37.57142c1.41198,36.47558 35.44353,39.07644 38.76818,37.57241c1.05819,50.11565 -1.54306,95.94926 -2.69423,129.11139c-0.1566,4.51083 -31.86979,1.82162 -63.60219,-8.34486c-22.82478,-7.31263 -38.94654,-20.55977 -42.03598,-27.91716c-10.70277,-25.48789 -16.7582,-55.15375 -16.58407,-86.78915c0.52054,-94.56716 78.87964,-172.11721 125.05686,-170.5458z" fill="#ff0000"/><path d="M145.48661,516.85181c0,0 -26.04744,-71.93392 -6.09062,-132.16358c23.19542,-70.00371 93.7113,-113.09487 93.7113,-113.09487c0,0 -36.9231,58.74993 -37.11664,93.90918c-0.2467,44.81939 -0.84178,152.92978 -0.84178,152.92978z" fill="#000000"/></g><g data-paper-data="{&quot;index&quot;:null}" stroke="#000000" stroke-width="2" stroke-linecap="butt"><path d="M381.52978,438.90856c-0.17412,31.63543 -6.55579,61.23281 -17.53846,86.60133c-3.17029,7.32297 -19.43693,20.39183 -42.34077,27.45271c-31.84236,9.81656 -63.58328,12.15644 -63.69021,7.64418c-0.78599,-33.17284 -2.88262,-79.03236 -1.27275,-129.13323c3.30787,1.54056 37.36596,-0.68552 39.17939,-37.14335c0.29121,-35.88981 -36.85181,-38.80882 -39.38585,-38.00729c1.71855,-54.08043 1.36107,-89.39373 1.87683,-89.32654c46.19173,-1.06297 123.69235,77.34498 123.17182,171.91218z" fill="#ff0000"/><path d="M319.14303,519.1148c0,0 0.59508,-108.11036 0.84178,-152.92978c0.19354,-35.15924 -36.08059,-94.31207 -36.08059,-94.31207c0,0 70.03725,43.86485 92.46068,114.11961c19.29255,60.44571 -7.54518,132.08853 -7.54518,132.08853z" fill="#000000"/></g><g fill="#8b0000" stroke="#000000" stroke-width="2" stroke-linecap="butt"><path d="M256.49723,325.86302c-0.05431,9.86583 -10.43694,17.80666 -23.19026,17.73646c-12.75333,-0.0702 -23.15106,10.61007 -22.99366,-17.99067c0.16222,-29.47218 10.43697,-17.80667 23.19029,-17.73646c12.75333,0.0702 23.04791,8.12492 22.9936,17.99069z"/><path d="M282.73263,309.01472c12.75333,0.0702 23.15583,-11.48147 22.9936,17.99069c-0.15744,28.60076 -10.43694,17.80666 -23.19026,17.73646c-12.75333,-0.0702 -23.04795,-8.12493 -22.99366,-17.99067c0.05431,-9.86583 10.43697,-17.80667 23.19029,-17.73646z" data-paper-data="{&quot;index&quot;:null}"/><path d="M275.23228,325.96614c-0.05564,10.10641 -8.09854,18.25525 -17.9643,18.20095c-9.86583,-0.05431 -17.81851,-8.29121 -17.76288,-18.39762c0.05564,-10.10641 8.09859,-18.25526 17.96433,-18.20097c9.86583,0.05431 17.81847,8.29122 17.76284,18.39762z"/></g><path d="M240.83972,131.1536c62.21846,-5.3043 116.23576,32.37886 120.65085,84.16767c4.41512,51.78879 -42.44376,98.07191 -104.66225,103.37621c-62.21849,5.30431 -116.23576,-32.37886 -120.65085,-84.16767c-4.41512,-51.78879 42.44376,-98.07191 104.66225,-103.37621z" fill="#696969" stroke="#000000" stroke-width="2" stroke-linecap="butt"/><path d="M243.05445,145.70719c53.94667,-4.59911 100.67831,26.85294 104.37803,70.24998c3.69972,43.39709 -37.0335,82.30568 -90.98019,86.90478c-53.94667,4.59911 -100.67828,-26.85293 -104.37798,-70.24998c-3.69972,-43.39709 37.03343,-82.30569 90.98015,-86.90479z" fill="none" stroke="url(#color-61)" stroke-width="4.5" stroke-linecap="butt"/><g stroke="none" stroke-width="0" stroke-linecap="butt"><path d="M215.72548,238.495l-6.88399,-80.74806l76.84086,-6.55091l6.88399,80.74806z" fill="url(#color-62)"/><path d="M275.58585,178.9499l-1.99857,-23.44295l9.11667,-0.77723l1.99857,23.44295z" fill="#ffffff"/><path d="M277.862,205.64885l-1.99857,-23.44295l9.11667,-0.77723l1.99857,23.44295z" fill="#ffffff"/><path d="M280.08267,231.69658l-1.99857,-23.44295l9.11667,-0.77723l1.99857,23.44295z" fill="#ffffff"/><path d="M214.96928,183.46166l-1.99857,-23.44295l9.11672,-0.77724l1.99857,23.44295z" fill="#ffffff"/><path d="M217.24543,210.16062l-1.99857,-23.44295l9.11672,-0.77724l1.99857,23.44295z" fill="#ffffff"/><path d="M219.46608,236.20839l-1.99857,-23.44295l9.11672,-0.77724l1.99857,23.44295z" fill="#ffffff"/><path d="M256.19444,233.60194l-0.66617,-7.81436l17.58223,-1.49894l0.66617,7.81436z" fill="#ffffff"/><path d="M235.90949,235.20005l-0.66617,-7.81436l17.58226,-1.49896l0.66617,7.81436z" fill="#ffffff"/></g><path d="M164.38833,157.71022c43.2057,-28.89365 106.37083,-10.23778 141.08335,41.66905c18.13886,27.12367 -60.33948,-62.04337 -134.54955,-14.18564c-63.35173,39.37109 -0.18068,105.70839 -6.10636,102.30188c0.31645,9.59752 -12.54878,18.25195 -17.02124,11.56414c-34.71253,-51.90682 -26.61188,-112.4557 16.59381,-141.34934z" fill="#ff0000" stroke="#000000" stroke-width="2" stroke-linecap="butt"/><path d="M325.83633,139.80793c48.60613,18.41245 70.145,75.57774 48.0245,133.97255c-2.85006,7.52376 -17.3348,1.99158 -19.1896,-7.4303c4.35988,-6.34936 30.9018,-76.18339 -29.00628,-98.29348c-83.08691,-29.90077 -139.44942,74.65977 -127.89044,44.1458c22.12049,-58.39487 79.45572,-90.80701 128.06188,-72.39458z" data-paper-data="{&quot;index&quot;:null}" fill="#ff0000" stroke="#000000" stroke-width="2" stroke-linecap="butt"/><path d="M234.72435,18.3872c83.79715,-7.14392 155.87075,35.65636 160.98083,95.59707c5.1101,59.94073 -16.04029,111.33982 -142.4755,121.46755c-133.55408,10.69799 -155.8707,-35.65634 -160.9808,-95.59712c-5.1101,-59.94073 58.67833,-114.32358 142.47549,-121.46752z" fill="#696969" stroke="#000000" stroke-width="2" stroke-linecap="butt"/><path d="M196.64291,119.11731l-3.71959,-43.63l93.12069,-7.93878l3.71959,43.63z" fill="url(#color-63)" stroke="#000000" stroke-width="0" stroke-linecap="butt"/><path d="M214.81643,186.10553l-7.16154,-84.00402l67.72417,-5.77366l7.16154,84.00402z" fill="url(#color-64)" stroke="none" stroke-width="0" stroke-linecap="butt"/><path d="M211.96579,184.79456l-34.07268,-100.24367l15.46974,-5.25812l34.07268,100.24367z" fill="url(#color-65)" stroke="none" stroke-width="0" stroke-linecap="butt"/><path d="M268.61798,179.3052l16.61222,-104.5647l16.13656,2.56361l-16.61224,104.56471z" data-paper-data="{&quot;index&quot;:null}" fill="url(#color-66)" stroke="none" stroke-width="0" stroke-linecap="butt"/><path d="M196.32041,192.27384l-2.05409,-24.09414l106.14457,-9.04911l2.05409,24.09414z" fill="url(#color-67)" stroke="none" stroke-width="0" stroke-linecap="butt"/><path d="M180.85395,199.95687c-2.99656,1.3034 -4.29999,-1.69324 -4.29999,-1.69324l-0.4197,-1.08251c-1.93271,-2.95153 -3.84822,-7.13498 -6.54989,-9.52416c-1.0432,-0.92249 -4.89362,-2.25087 -5.71548,-2.78698c-11.29744,-7.36968 -29.83848,-20.79026 -20.79082,-36.0244c4.10562,-1.7347 17.18767,-4.33502 17.86916,-10.52596c0.96745,-8.78881 -5.73254,-15.27623 -2.4873,-24.68699c3.75861,-10.89968 15.80582,-17.5411 24.8936,-23.74923c0,0 2.69845,-1.84308 4.5415,0.85534c1.84308,2.69845 -0.85535,4.54147 -0.85535,4.54147c-7.65828,5.22977 -19.21591,11.21371 -22.38296,20.42941c-3.93601,11.4531 9.25218,22.52397 -2.89928,32.0908c-1.28544,1.01201 -2.82795,1.65901 -4.32166,2.32628c-2.20768,0.98626 -7.55943,2.80202 -10.11491,3.68998c-2.10159,3.75283 1.69677,9.09418 3.87847,12.16419c5.7471,8.08699 15.51387,10.49584 22.58303,16.66703c3.29171,2.87363 5.46006,7.35057 7.81933,10.95259l0.94551,2.0564c0,0 1.30336,2.99658 -1.69324,4.29999z" fill="#000000" stroke="none" stroke-width="0.5" stroke-linecap="butt"/><path d="M157.64149,212.44065c-3.26259,0.18437 -3.44692,-3.07818 -3.44692,-3.07818l-0.01869,-1.16091c-0.79033,-3.43834 -1.13761,-8.02639 -2.84416,-11.20357c-0.65894,-1.2268 -3.81058,-3.80704 -4.39577,-4.59474c-8.04413,-10.82752 -20.78659,-29.84103 -7.0209,-40.99663c4.45237,-0.20473 17.62502,1.8889 20.40935,-3.6825c3.95272,-7.90919 -0.08436,-16.31619 6.22048,-24.01959c7.3024,-8.92218 20.90446,-10.97806 31.5804,-13.65275c0,0 3.16988,-0.79399 3.96377,2.37592c0.79396,3.16987 -2.37596,3.96373 -2.37596,3.96373c-8.99592,2.25231 -21.91096,3.86102 -28.07503,11.40848c-7.6605,9.37987 0.87477,24.33446 -13.83872,29.09838c-1.5565,0.50393 -3.22756,0.57641 -4.85992,0.68478c-2.41263,0.16018 -8.06202,0.00916 -10.76683,-0.04326c-3.27164,2.79219 -1.55945,9.1187 -0.57655,12.75451c2.58905,9.57735 10.9162,15.22102 15.40921,23.45932c2.09215,3.83611 2.57492,8.787 3.54004,12.98337l0.17446,2.25662c0,0 0.18438,3.26252 -3.07826,3.44688z" fill="#000000" stroke="none" stroke-width="0.5" stroke-linecap="butt"/><path d="M310.88073,182.09244l0.58383,-2.18681c1.71555,-3.94941 3.09473,-8.7288 5.85248,-12.11813c5.9225,-7.27875 15.14057,-11.30608 19.43578,-20.24922c1.63057,-3.39497 4.46988,-9.30229 1.76341,-12.6452c-2.66885,-0.44256 -8.25076,-1.32623 -10.59355,-1.92454c-1.58511,-0.40479 -3.21486,-0.78134 -4.65304,-1.56118c-13.5955,-7.37184 -2.47169,-20.51538 -8.28961,-31.13688c-4.68136,-8.54659 -17.08515,-12.48784 -25.51815,-16.34576c0,0 -2.97149,-1.35967 -1.6118,-4.33115c1.35971,-2.97147 4.33117,-1.61178 4.33117,-1.61178c10.00751,4.58016 23.00508,9.08648 28.55453,19.19263c4.79136,8.72556 -0.71373,16.25359 1.72747,24.75179c1.71963,5.98625 15.05303,6.33456 19.39304,7.34926c11.49589,13.48275 -4.50576,29.8483 -14.39273,39.02389c-0.71924,0.66754 -4.28928,2.62851 -5.16124,3.71427c-2.25826,2.81203 -3.43797,7.25934 -4.84312,10.49542l-0.23045,1.13793c0,0 -0.77733,3.17401 -3.95127,2.39668c-3.17398,-0.77733 -2.39668,-3.95133 -2.39668,-3.95133z" data-paper-data="{&quot;index&quot;:null}" fill="#000000" stroke="none" stroke-width="0.5" stroke-linecap="butt"/><path d="M334.65085,191.54194l-0.21005,-2.25359c0.24088,-4.29917 -0.12137,-9.26039 1.29122,-13.39524c3.03361,-8.87992 10.28527,-15.85174 11.21573,-25.72913c0.35325,-3.7497 0.96989,-10.27486 -2.72726,-12.47289c-2.65691,0.50963 -8.19917,1.61471 -10.60412,1.86526c-1.62718,0.16952 -3.28642,0.38095 -4.90571,0.14782c-15.30756,-2.20453 -9.42689,-18.3882 -18.56464,-26.3359c-7.35265,-6.39522 -20.35366,-5.79443 -29.60099,-6.49145c0,0 -3.25853,-0.24582 -3.01264,-3.50435c0.2459,-3.25853 3.50444,-3.01264 3.50444,-3.01264c10.97458,0.82893 24.72834,0.55265 33.43571,8.10999c7.51784,6.52497 4.9621,15.49405 10.19664,22.61999c3.68723,5.0196 16.31542,0.72644 20.7382,0.17453c15.45537,8.66441 6.11537,29.5605 0.0201,41.59346c-0.44338,0.87536 -3.11281,3.95191 -3.55461,5.27257c-1.14411,3.42021 -0.70972,8.00082 -0.90661,11.52334l0.17809,1.14728c0,0 0.37062,3.24664 -2.87609,3.61728c-3.24672,0.37056 -3.61728,-2.87609 -3.61728,-2.87609z" data-paper-data="{&quot;index&quot;:null}" fill="#000000" stroke="none" stroke-width="0.5" stroke-linecap="butt"/><path d="M320.69784,74.88255c1.56983,18.41379 -12.5514,34.65348 -31.54064,36.27237c-18.98925,1.61889 -35.65558,-11.99608 -37.22543,-30.40988c-1.56983,-18.41379 12.55137,-34.65352 31.54058,-36.2724c18.98922,-1.61887 35.65565,11.99612 37.22547,30.40991z" data-paper-data="{&quot;index&quot;:null}" fill="#ffffff" stroke="#000000" stroke-width="2" stroke-linecap="butt"/><path d="M302.89139,75.28959c0.83112,9.74867 -6.07545,18.29778 -15.42622,19.09495c-9.35074,0.79717 -17.60477,-6.45945 -18.43585,-16.20812c-0.83112,-9.74867 6.07545,-18.29778 15.42617,-19.09495c9.35074,-0.79717 17.6048,6.45944 18.43591,16.20809z" data-paper-data="{&quot;index&quot;:null}" fill="#000000" stroke="none" stroke-width="0" stroke-linecap="butt"/><path d="M193.02549,51.30876c18.98925,-1.61889 35.65565,11.99612 37.22545,30.40988c1.56983,18.41379 -12.5514,34.65348 -31.54064,36.27237c-18.98925,1.61889 -35.65564,-11.99611 -37.22545,-30.40988c-1.56983,-18.41379 12.55135,-34.65345 31.54064,-36.27237z" fill="#ffffff" stroke="#000000" stroke-width="2" stroke-linecap="butt"/><path d="M194.5295,65.87347c9.35074,-0.79717 17.60476,6.45943 18.43586,16.20809c0.83112,9.74867 -6.07543,18.29772 -15.42618,19.09491c-9.35074,0.79717 -17.6048,-6.45944 -18.43589,-16.20807c-0.83112,-9.74867 6.07549,-18.29773 15.42622,-19.09491z" fill="#000000" stroke="none" stroke-width="0" stroke-linecap="butt"/><path d="M136.88754,218.36408l-2.00143,-23.47651l225.96427,-19.26406l2.00143,23.47651c0,0 -36.07589,29.85628 -108.55764,35.45837c-79.79434,6.16721 -117.40662,-16.1943 -117.40662,-16.1943z" fill="url(#color-68)" stroke="none" stroke-width="0" stroke-linecap="butt"/><path d="M156.05312,89.06588c-1.91727,-26.13582 17.17405,-39.0234 34.20376,-41.50201c31.71839,-4.61644 41.59686,21.31013 43.12314,28.62639c6.06334,29.06459 -21.10686,47.27959 -30.86348,47.50834c-27.26683,0.63936 -45.40777,-20.24207 -46.46341,-34.63271z" data-paper-data="{&quot;noHover&quot;:false,&quot;origItem&quot;:[&quot;Path&quot;,{&quot;applyMatrix&quot;:true,&quot;segments&quot;:[[[441.7977,155.16587],[0,0],[-0.08774,7.42206]],[[463.98858,174.84783],[-14.00356,-0.86376],[5.01076,0.30908]],[[481.79554,151.96123],[1.83776,15.16202],[-0.4626,-3.81664]],[[461.04656,135.48855],[16.459,-0.98018],[-8.8369,0.52626]],[[441.7977,155.16585],[0.15934,-13.47972],[0,0]]],&quot;closed&quot;:true,&quot;fillColor&quot;:[0,0,0,1]}]}" fill="#000000" stroke="none" stroke-width="0.5" stroke-linecap="butt"/><path d="M286.0476,38.32099c17.20356,-0.43993 38.20088,9.02998 40.73544,35.11318c1.39553,14.36156 -12.94891,38.0125 -39.93046,41.99797c-9.65455,1.42608 -39.51597,-11.92682 -38.46005,-41.59832c0.26584,-7.46904 5.613,-34.69358 37.65509,-35.51292z" data-paper-data="{&quot;noHover&quot;:false,&quot;origItem&quot;:[&quot;Path&quot;,{&quot;applyMatrix&quot;:true,&quot;segments&quot;:[[[510.53964,134.93675],[0,0],[-16.459,-0.98018]],[[489.79066,151.40941],[0.46262,-3.81664],[-1.83774,15.16202]],[[507.59762,174.29601],[-5.01076,0.30908],[14.00356,-0.86376]],[[529.7885,154.61407],[0.08774,7.422],[-0.15936,-13.47972]],[[510.53962,134.93679],[8.83692,0.52626],[0,0]]],&quot;closed&quot;:true,&quot;fillColor&quot;:[0,0,0,1]}]}" fill="#000000" stroke="none" stroke-width="0.5" stroke-linecap="butt"/><path d="M323.73939,180.34507c1.09274,0.70868 2.4324,0.49118 2.4324,0.49118c17.7494,-2.95753 75.90572,-7.11539 87.20141,-8.46466c19.62388,-3.02083 41.06913,-3.65955 59.59918,-11.885c-0.19515,52.58961 -23.63077,99.96253 -140.10685,101.21698c-1.2477,0.01346 -5.17727,-37.5103 -9.12609,-81.35851z" data-paper-data="{&quot;index&quot;:null}" fill="#ff0000" stroke="#000000" stroke-width="2" stroke-linecap="butt"/><path d="M207.58,85.81257c0.56998,6.68591 -4.17115,12.54952 -10.58963,13.09672c-6.41846,0.54719 -12.08375,-4.42923 -12.65376,-11.11516c-0.56998,-6.68591 4.17115,-12.54952 10.58963,-13.09672c6.41846,-0.54719 12.08375,4.42923 12.65376,11.11516z" fill="#000000" stroke="#ff0000" stroke-width="1.5" stroke-linecap="butt"/><path d="M299.50247,77.00043c0.56998,6.68591 -4.17115,12.54952 -10.58963,13.09672c-6.41846,0.54719 -12.08375,-4.42923 -12.65376,-11.11516c-0.56998,-6.68591 4.17115,-12.54952 10.58963,-13.09672c6.41846,-0.54719 12.08375,4.42923 12.65376,11.11516z" fill="#000000" stroke="#ff0000" stroke-width="1.5" stroke-linecap="butt"/><path d="M460.6534,67.33939c0.36482,4.27954 0.6362,8.55846 0.77784,12.81571c-18.40638,9.19431 -40.54463,9.52625 -60.37364,12.56672c-11.05667,1.32075 -69.24576,5.64059 -87.36473,8.48904c0,0 -1.03586,0.16819 -1.83827,0.90095c-5.38843,-60.46897 -10.62302,-130.50245 -8.92604,-130.64712c81.99893,-6.99064 152.61477,35.93393 157.72486,95.8747zM350.90095,-8.54711c-32.04207,0.8193 -37.20375,27.86394 -37.46956,35.33296c-1.05591,29.67152 28.61587,42.8158 38.27042,41.3897c26.98155,-3.98546 41.12806,-27.42575 39.73251,-41.7873c-2.53458,-26.0832 -23.32984,-35.37521 -40.53338,-34.93531z" data-paper-data="{&quot;index&quot;:null}" fill="#ff0000" stroke="#000000" stroke-width="2" stroke-linecap="butt"/><path d="M152.19196,-16.27735c1.69701,-0.14467 8.39293,69.76421 13.31803,130.27268c-0.91485,-0.58637 -1.96426,-0.57676 -1.96426,-0.57676c-18.33967,0.25967 -76.42033,5.85215 -87.54102,6.42211c-20.05756,0.35995 -41.93254,3.78026 -61.62962,-2.16562c-0.58104,-4.21983 -1.03793,-8.48293 -1.40277,-12.76245c-5.1101,-59.94073 57.22061,-114.19932 139.21955,-121.18993zM77.00833,54.55232c1.05566,14.39064 18.96586,35.0979 46.23265,34.45855c9.75662,-0.22876 36.77526,-18.20605 30.71189,-47.27064c-1.52627,-7.31626 -11.19145,-33.09689 -42.90982,-28.48046c-17.02973,2.47859 -35.95199,15.15664 -34.03473,41.29248z" fill="#ff0000" stroke="#000000" stroke-width="2" stroke-linecap="butt"/><g stroke="#000000" stroke-width="2" stroke-linecap="butt"><path d="M186.80727,286.95529c-115.00758,18.48011 -146.12395,-24.24209 -155.21839,-76.03974c19.65505,4.97005 40.89897,1.96938 60.75094,1.62479c11.36103,-0.58225 69.38192,-6.3288 87.37583,-6.41847c0,0 1.35717,-0.01245 2.31418,-0.89588c3.53055,43.88391 6.00951,81.53132 4.77758,81.7293z" fill="#ff0000"/><path d="M179.10477,162.53068c24.4558,-2.08491 45.97133,16.05029 48.05624,40.50612c2.08491,24.4558 -16.05024,45.97134 -40.50609,48.05626c-24.4558,2.08491 -45.97141,-16.05026 -48.05634,-40.50607c-2.08491,-24.4558 16.05031,-45.97136 40.50614,-48.0563z" fill="#ff7b00"/></g></g></g></svg>