<svg version="1.1" xmlns="http://www.w3.org/2000/svg" xmlns:xlink="http://www.w3.org/1999/xlink" width="715.44117" height="552.95616" viewBox="0,0,715.44117,552.95616"><defs><linearGradient x1="125.35141" y1="109.558" x2="121.82504" y2="136.67743" gradientUnits="userSpaceOnUse" id="color-1"><stop offset="0" stop-color="#a6a6a6"/><stop offset="1" stop-color="#707070"/></linearGradient><linearGradient x1="128.44332" y1="127.44927" x2="121.65372" y2="179.66427" gradientUnits="userSpaceOnUse" id="color-2"><stop offset="0" stop-color="#a6a6a6"/><stop offset="1" stop-color="#707070"/></linearGradient><linearGradient x1="91.10376" y1="108.75221" x2="98.57929" y2="174.45267" gradientUnits="userSpaceOnUse" id="color-3"><stop offset="0" stop-color="#a6a6a6"/><stop offset="1" stop-color="#707070"/></linearGradient><linearGradient x1="169.44481" y1="120.99712" x2="145.41573" y2="182.60096" gradientUnits="userSpaceOnUse" id="color-4"><stop offset="0" stop-color="#a6a6a6"/><stop offset="1" stop-color="#707070"/></linearGradient><radialGradient cx="241.78855" cy="267.92814" r="104.71462" gradientUnits="userSpaceOnUse" id="color-5"><stop offset="0" stop-color="#a94f05"/><stop offset="1" stop-color="#ff7b00"/></radialGradient><linearGradient x1="243.75375" y1="34.35436" x2="243.75375" y2="62.88289" gradientUnits="userSpaceOnUse" id="color-6"><stop offset="0" stop-color="#848484"/><stop offset="1" stop-color="#545454"/></linearGradient><linearGradient x1="241.24624" y1="225.54055" x2="241.24624" y2="254.06908" gradientUnits="userSpaceOnUse" id="color-7"><stop offset="0" stop-color="#848484"/><stop offset="1" stop-color="#545454"/></linearGradient><linearGradient x1="57.56757" y1="176.24626" x2="84.5946" y2="176.24626" gradientUnits="userSpaceOnUse" id="color-8"><stop offset="0" stop-color="#848484"/><stop offset="1" stop-color="#545454"/></linearGradient><linearGradient x1="397.4024" y1="181.24626" x2="424.42943" y2="181.24626" gradientUnits="userSpaceOnUse" id="color-9"><stop offset="0" stop-color="#848484"/><stop offset="1" stop-color="#545454"/></linearGradient></defs><g transform="translate(117.72058,72.37604)"><g data-paper-data="{&quot;isPaintingLayer&quot;:true}" fill-rule="nonzero" stroke-linecap="butt" stroke-linejoin="miter" stroke-miterlimit="10" stroke-dasharray="" stroke-dashoffset="0" style="mix-blend-mode: normal"><path d="M-17.50751,368.43845v-376.87688h515.01502v376.87688z" fill="#060606" stroke="none" stroke-width="NaN"/><g><path d="M185.45474,-4.34063c-18.38257,19.32078 -36.63069,31.79976 -40.75832,27.87258c-4.12763,-3.92718 7.42828,-22.77339 25.81085,-42.09416c18.38257,-19.32078 50.30599,-18.7885 54.43362,-14.86132c4.12763,3.92718 -21.10358,9.76213 -39.48615,29.0829z" fill="#ffe400" stroke="#000000" stroke-width="1"/><path d="M158.56912,-23.38313c-0.69923,26.65935 -5.88303,48.14997 -11.57849,48.00059c-5.69543,-0.14937 -9.74567,-21.88214 -9.04643,-48.54153c0.69923,-26.65939 24.75264,-47.65508 30.44807,-47.50571c5.69543,0.14937 -9.12395,21.38729 -9.82318,48.04664z" fill="#ffe400" stroke="#000000" stroke-width="1"/><path d="M133.609,-25.51049c13.26024,23.1382 20.0026,44.19198 15.05942,47.02481c-4.94318,2.83286 -19.69998,-13.62787 -32.96022,-36.76607c-13.26024,-23.1382 -3.62528,-53.57761 1.31786,-56.41048c4.94318,-2.83286 3.32266,23.01354 16.5829,46.15173z" fill="#ffe400" stroke="#000000" stroke-width="1"/><path d="M-7.23405,130.85261c8.59073,-66.06656 109.77357,-129.82731 153.11459,-125.18701c40.71587,5.3103 118.61796,93.3372 110.02723,159.40372c-8.59073,66.06659 -74.46121,111.96446 -147.12579,102.51578c-72.66458,-9.44868 -124.60673,-70.6659 -116.016,-136.73246z" data-paper-data="{&quot;index&quot;:null}" fill="#696969" stroke="#000000" stroke-width="2"/><path d="M106.09846,144.61685c-0.15057,1.58633 -1.73694,1.4358 -1.73694,1.4358l-1.09757,-0.10429c-7.7778,-0.67076 -16.34951,-1.27271 -22.32918,4.66253c-6.16341,5.97346 -12.77481,3.31211 -18.97205,7.65854c-2.34554,1.64506 -4.24168,6.60395 -6.98199,8.0212c0.76637,3.61379 3.37039,6.33675 8.62952,6.47869c0.19187,0.00516 4.46004,-0.29602 4.98888,-0.62968c2.64861,-1.67105 4.98748,-10.86299 7.98878,-13.92366c4.05482,-1.41905 7.43565,-0.36888 11.55235,-0.8329c5.80941,-0.65491 10.31369,-4.24223 15.02248,-7.32117l1.2356,-0.83425c0,0 1.32072,-0.89149 2.21225,0.42927c0.89153,1.32076 -0.42924,2.21229 -0.42924,2.21229l-1.2746,0.86007c-5.1954,3.3969 -10.08527,7.08752 -16.47891,7.82775c-3.42826,0.39692 -6.77257,-0.7613 -10.11286,0.33731c-3.06827,3.45643 -4.4092,11.35136 -7.7068,13.71915c-4.5113,3.23925 -15.22964,1.74468 -17.36783,-3.49599c-0.60566,-1.48451 -1.04104,-2.94776 -1.31355,-4.38674c-6.97933,-0.27395 -10.4112,-6.90129 -13.18497,-12.38251c-0.44969,-0.88861 -3.14406,-6.0303 -3.024,-6.69137c0.12006,-0.66107 4.45036,-4.52702 5.1838,-5.20077c0.50315,-0.46225 4.84183,-4.49269 5.21636,-4.63202c3.72564,-1.38585 9.05705,1.6927 12.65664,0.42672c4.02741,-1.41645 8.23463,-10.80596 11.42203,-13.81715c4.71024,-4.44983 11.67121,-4.68828 17.61338,-6.42694c0,0 1.52938,-0.44747 1.97681,1.0819c0.02898,0.09908 0.04973,0.19358 0.06303,0.28377c0.20658,-0.006 0.41091,-0.01364 0.61275,-0.0235c0,0 1.59159,-0.07733 1.66887,1.5143c0.07725,1.59159 -1.51431,1.66888 -1.51431,1.66888c-3.79301,0.18395 -10.18116,-0.91624 -13.24329,1.97262c-6.50532,6.13714 -1.06007,17.59631 -7.72073,23.1568c-2.68705,2.24324 -6.98572,2.85654 -10.2717,3.88686c-2.47251,2.95966 -4.23394,7.07176 -4.58449,10.8892c2.20327,-2.34666 5.83533,-7.81032 8.07911,-8.63185c6.66216,-2.43932 10.36551,-0.16776 15.83964,-5.48236c6.87792,-6.54737 15.93734,-6.31633 24.82191,-5.55011l1.12495,0.10671c0,0 1.58633,0.15057 1.43573,1.7369zM60.056,141.16889c-7.27199,2.81953 -10.55579,-2.28411 -16.99831,3.63426c-1.33087,1.22258 -3.88116,1.64517 -4.20413,3.4232c-0.3229,1.77807 1.91595,3.07049 2.73195,4.68295c2.50632,4.95275 4.29615,9.50834 9.99662,10.43287c-0.06698,-5.24309 2.07295,-10.11084 6.02917,-14.44384c3.02342,-1.09671 7.44744,-1.66118 9.983,-3.66931c4.69866,-3.72139 2.64879,-12.07243 4.70064,-18.39101c-3.66274,3.59375 -7.44938,12.47386 -12.23897,14.33091z" fill="#000000" stroke="none" stroke-width="0.5"/><path d="M136.82561,144.91961l1.1148,0.18452c8.78507,1.53143 17.60232,3.62485 22.5771,11.71345c3.93301,6.53786 8.09409,5.28899 13.91085,9.35089c1.95909,1.36803 4.07309,7.5788 5.60296,10.41091c0.63737,-3.78014 -0.0139,-8.20593 -1.64728,-11.69952c-2.91322,-1.83641 -6.91205,-3.52866 -8.93607,-6.38448c-5.01714,-7.07893 3.17755,-16.76444 -1.54194,-24.36116c-2.22151,-3.57589 -8.67859,-4.14603 -12.29842,-5.29388c0,0 -1.51893,-0.48174 -1.03715,-2.00064c0.48171,-1.51891 2.00069,-1.03715 2.00069,-1.03715c0.19261,0.06111 0.38817,0.12082 0.58635,0.17942c0.03596,-0.08378 0.08011,-0.16981 0.13347,-0.25822c0.82371,-1.36405 2.18776,-0.54038 2.18776,-0.54038c5.29992,3.20044 11.96843,5.21116 15.38404,10.71765c2.31133,3.72624 3.97738,13.87941 7.50862,16.27872c3.15613,2.14448 9.09756,0.53171 12.34489,2.82427c0.32648,0.23048 3.49015,5.23646 3.85835,5.81201c0.53671,0.8389 3.73433,5.68372 3.68134,6.35351c-0.053,0.6698 -3.97269,4.95141 -4.63469,5.6955c-4.08329,4.58961 -9.09594,10.11888 -15.91324,8.59883c-0.63141,1.3214 -1.42652,2.62468 -2.39169,3.90493c-3.40734,4.51965 -14.15151,3.22334 -17.68435,-1.06189c-2.5824,-3.13238 -1.85965,-11.10769 -3.94199,-15.23386c-2.94823,-1.91631 -6.47756,-1.65187 -9.69031,-2.91233c-5.99169,-2.35071 -9.77508,-7.16913 -13.92906,-11.78178l-1.01218,-1.15747c0,0 -1.04885,-1.19961 0.1508,-2.24846c1.19965,-1.04884 2.24846,0.15076 2.24846,0.15076l0.98116,1.1225c3.76483,4.18078 7.20191,8.80077 12.65061,10.91954c3.86112,1.50147 7.39814,1.35075 10.95518,3.75958c2.11875,3.72644 2.02911,13.2109 4.1623,15.50369c0.42596,0.45781 4.47517,1.84052 4.66195,1.88459c5.12055,1.20775 8.3343,-0.75875 9.99937,-4.05634c-2.28674,-2.07092 -2.8516,-7.34987 -4.69844,-9.53999c-4.87961,-5.78677 -11.95173,-4.90474 -16.38256,-12.25579c-4.26294,-7.2671 -12.70359,-8.87728 -20.39428,-10.21791l-1.0877,-0.17991c0,0 -1.5721,-0.26013 -1.31201,-1.83222c0.26013,-1.57209 1.83222,-1.31196 1.83222,-1.31196zM172.21952,137.68883c0.3677,6.63324 -3.74963,14.1823 -0.15892,18.98154c1.93768,2.58983 6.07023,4.26688 8.71264,6.10033c2.7165,5.20067 3.54038,10.45391 2.1348,15.50549c5.74734,0.56405 8.64267,-3.3824 12.33228,-7.52944c1.2012,-1.35019 3.69618,-2.02699 3.83871,-3.82855c0.14256,-1.80152 -2.21491,-2.86228 -3.18886,-4.38459c-4.71474,-7.3691 -9.19449,-3.275 -15.5036,-7.86051c-4.15536,-3.02017 -5.54513,-12.57334 -8.16701,-16.98429z" data-paper-data="{&quot;index&quot;:null}" fill="#000000" stroke="none" stroke-width="0.5"/><path d="M92.88421,132.91421l3.52638,-27.11943l57.88169,7.52644l-3.52638,27.11943z" fill="url(#color-1)" stroke="#000000" stroke-width="0"/><path d="M95.07524,176.20823l6.78959,-52.21497l53.15694,6.91207l-6.78959,52.21497z" fill="url(#color-2)" stroke="none" stroke-width="0"/><path d="M93.5098,175.02947l-7.4755,-65.70035l10.13893,-1.15363l7.47554,65.70038z" fill="url(#color-3)" stroke="none" stroke-width="0"/><path d="M140.66237,180.74688l24.02908,-61.6038l9.50674,3.70819l-24.02909,61.60383z" data-paper-data="{&quot;index&quot;:null}" fill="url(#color-4)" stroke="none" stroke-width="0"/><path d="M188.68694,124.24985c-1.48829,11.44562 -12.26324,19.47983 -24.06651,17.94504c-11.8033,-1.5348 -20.16518,-12.05745 -18.67689,-23.50303c1.48829,-11.44562 12.26319,-19.47992 24.06646,-17.94512c11.80327,1.5348 20.16524,12.05753 18.67695,23.50311z" data-paper-data="{&quot;index&quot;:null}" fill="#ffffff" stroke="#000000" stroke-width="2"/><path d="M177.76646,122.13275c-0.78793,6.05952 -6.13842,10.35911 -11.95067,9.60334c-5.81221,-0.75577 -9.88521,-6.28067 -9.09727,-12.34023c0.78793,-6.05952 6.13842,-10.35914 11.95063,-9.60337c5.81221,0.75577 9.88524,6.28071 9.09731,12.34026z" data-paper-data="{&quot;index&quot;:null}" fill="#000000" stroke="none" stroke-width="0"/><path d="M99.68502,91.05347c11.8033,1.5348 20.1652,12.05749 18.67692,23.50307c-1.48829,11.44562 -12.26325,19.47987 -24.06648,17.94508c-11.8033,-1.5348 -20.16524,-12.05749 -18.67696,-23.50307c1.48829,-11.44562 12.26318,-19.47988 24.06652,-17.94508z" fill="#ffffff" stroke="#000000" stroke-width="2"/><path d="M98.66795,100.14132c5.81218,0.75577 9.88521,6.28067 9.09728,12.34022c-0.78793,6.05952 -6.13845,10.35911 -11.95063,9.60334c-5.81218,-0.75577 -9.8852,-6.28071 -9.09727,-12.34023c0.78793,-6.05952 6.13838,-10.35911 11.95063,-9.60333z" fill="#000000" stroke="none" stroke-width="0"/><path d="M100.28775,88.38168c11.7906,1.75721 20.34836,8.54508 19.11439,15.16106c-0.62383,3.34454 -8.99188,-6.27038 -19.77594,-7.91554c-10.54846,-1.6092 -23.53174,4.82355 -22.92157,1.55211c1.23401,-6.61597 11.79248,-10.55481 23.5831,-8.79757z" fill="#e000ff" stroke="#000000" stroke-width="1"/><path d="M171.06655,100.15574c11.7923,1.74413 20.39332,8.19965 19.21095,14.41882c-0.59775,3.14394 -9.03077,-5.97166 -19.81668,-7.6026c-10.55027,-1.59531 -23.47172,4.36193 -22.88705,1.28667c1.18241,-6.2192 11.70043,-9.84694 23.49274,-8.10286z" fill="#e000ff" stroke="#000000" stroke-width="1"/><path d="M91.31362,221.60583c0.9496,0.12348 21.90895,2.79205 22.84351,2.80315c-4.03009,26.14084 -7.27338,43.73273 -8.63818,43.55526c-64.73314,-8.41734 -112.19176,-61.10243 -112.23883,-121.19065c0.04252,0.06863 0.08511,0.13723 0.12783,0.20578c6.40363,10.27493 13.44209,20.72631 37.80262,37.83947c25.33199,11.39108 44.18863,14.01981 56.98794,15.48691c-1.52688,11.07107 -1.34881,20.71963 3.11515,21.30009z" data-paper-data="{&quot;index&quot;:null}" fill="#ffe400" stroke="#000000" stroke-width="2"/><path d="M146.98609,207.95002c12.74887,1.85496 31.65068,4.13602 59.05342,-0.39788c27.92699,-10.31414 37.40421,-18.61796 46.22255,-26.91356c0.05886,-0.05537 0.11757,-0.11077 0.17619,-0.16625c-15.41239,58.07801 -74.7664,96.87409 -139.49958,88.45674c-1.36479,-0.17747 -0.00134,-18.0138 2.78781,-44.316c0.90633,0.22828 21.85113,3.00856 22.80074,3.13204c4.46397,0.58046 7.10362,-8.70171 8.45883,-19.79511z" data-paper-data="{&quot;index&quot;:null}" fill="#ffe400" stroke="#000000" stroke-width="2"/><g stroke="#000000"><path d="M122.6394,178.43925c80.51154,10.75783 0.46384,89.64417 -11.45503,88.09434c-12.52627,-1.62881 -78.80369,-100.15455 11.45503,-88.09434z" fill="#ffe400" stroke-width="2"/><path d="M121.758,182.34162c53.79498,7.18798 0.3099,59.89703 -7.65384,58.86149c-8.36962,-1.08831 -52.65381,-66.91971 7.65384,-58.86149z" fill="#ff0700" stroke-width="1"/></g><g fill="#ffe400" stroke="#000000" stroke-width="2"><path d="M-4.8638,131.16082c8.59073,-66.06656 106.48234,-130.25528 148.26634,-125.81743c0.86271,-0.36373 -10.90658,95.62847 -21.51573,171.49417c-1.13078,-0.32239 -2.29952,-0.56526 -3.50081,-0.72146c-12.73636,-1.65613 -37.71183,-4.65755 -41.1466,19.82188c-12.52383,-1.40385 -12.64786,-0.50598 -46.37508,-15.19553c-29.10459,-14.35171 -35.86226,-48.54957 -35.72806,-49.58162zM94.84601,135.29336c13.09054,1.70218 25.0824,-7.52994 26.78458,-20.62044c1.70218,-13.0905 -7.52994,-25.08237 -20.62044,-26.78455c-13.09054,-1.70218 -25.08237,7.52991 -26.78454,20.62041c-1.70218,13.0905 7.52991,25.08241 20.62041,26.78458z" data-paper-data="{&quot;index&quot;:null}"/><path d="M125.87476,131.56167c3.13851,0.4081 -4.12663,85.93875 -11.05755,85.03752c-11.6595,-1.5161 -11.00171,-25.12252 -17.08664,-34.04666c-5.11917,-7.50774 -16.95509,-8.15595 -15.70036,-17.80542c2.74618,-21.11938 22.37608,-35.97701 43.84455,-33.18543z"/></g><g data-paper-data="{&quot;index&quot;:null}" fill="#ffe400" stroke="#000000" stroke-width="2"><path d="M257.48753,166.07817c-0.1342,1.03205 -15.34835,32.37287 -46.97701,38.8274c-36.15704,5.60239 -39.60008,7.45442 -51.99326,5.61828c2.94126,-24.54356 -18.27245,-30.76198 -30.93418,-32.40841c-1.19419,-0.15528 -2.3793,-0.21848 -3.54819,-0.19513c9.14971,-76.05548 22.31665,-171.86594 23.05296,-171.29429c41.28544,6.36379 118.99041,93.38559 110.39968,159.45215zM191.28987,123.73081c1.70218,-13.0905 -7.46775,-25.07429 -20.48162,-26.7665c-13.01383,-1.69221 -24.94357,7.54796 -26.64575,20.63846c-1.70218,13.0905 7.46774,25.07432 20.48161,26.76653c13.01383,1.69221 24.94359,-7.548 26.64576,-20.63849z" data-paper-data="{&quot;index&quot;:null}"/><path d="M162.88629,177.44685c-1.25473,9.64947 -13.47292,7.1699 -20.30673,13.12337c-8.12305,7.07665 -11.11903,28.19312 -22.71025,26.6859c-6.89033,-0.89596 6.50434,-85.62958 9.6245,-85.22386c21.34272,2.77522 36.13866,24.29521 33.39248,45.41459z"/></g></g><g stroke="#000000" stroke-width="3.5"><g><path d="M241.78865,163.21356c57.8322,0 104.71452,46.88233 104.71452,104.71462c0,57.8322 -46.88223,104.71452 -104.71452,104.71452c-57.8322,0 -104.71471,-46.88232 -104.71471,-104.71452c0,-57.8322 46.88242,-104.71462 104.71471,-104.71462z" fill="url(#color-5)"/><path d="M-114.05589,266.78128c45.14945,15.60212 95.62439,12.80935 142.29987,15.97369c26.78881,0.90693 164.15473,-0.97151 206.41696,2.41938c0,0 3.18871,0.24239 5.6123,-1.64007c-0.49459,103.73294 0.77856,192.62195 -2.15386,192.83224c-280.79369,20.13663 -341.1914,-86.15958 -352.17527,-209.58524z" fill="#a90000"/></g><path d="M240.11104,-22.73398c4.013,0 0.76132,165.46537 0.21341,308.50699c-2.03041,-1.55973 -4.49605,-1.74725 -4.49605,-1.74725c-43.10806,-3.06101 -180.58344,-1.55625 -206.80556,-2.44393c-47.16118,-3.16938 -99.2017,0.48223 -144.25451,-17.41927c-0.51951,-10.02316 -0.73891,-20.1231 -0.73891,-30.24319c0,-90.4454 2.74747,-204.54241 108.42385,-249.90007c51.85449,-22.25661 147.87154,-8.58276 242.80474,-5.14529c1.61428,-0.53742 4.85304,-1.60798 4.85304,-1.60798zM44.44632,128.50511c-0.40188,33.99621 37.50142,86.1954 101.64371,90.15179c22.95142,1.41572 89.98122,-35.38187 81.56349,-104.8304c-2.1189,-17.48184 -19.64994,-79.94155 -95.03919,-75.45191c-40.47677,2.4105 -87.43816,28.38756 -88.16801,90.13044z" fill="#a90000"/><path d="M244.742,-21.12599c95.36853,-3.45324 178.08273,-12.49781 230.00342,9.95663c105.09128,45.44943 121.22517,154.84684 121.22517,245.08873c0,10.12009 -0.2194,20.22003 -0.73891,30.24319c-45.05281,17.9015 -97.09333,14.24989 -144.25451,17.41927c-26.22212,0.88768 -163.69751,-0.61708 -206.80556,2.44393c0,0 -2.46564,0.18752 -4.49605,1.74725c-0.54792,-143.04162 -3.7996,-308.50699 0.21341,-308.50699c0,0 3.23876,1.07056 4.85304,1.60798zM435.55368,128.50502c-0.72984,-61.74288 -47.69123,-87.71994 -88.16801,-90.13044c-75.38925,-4.48964 -92.92029,57.97007 -95.03919,75.45191c-8.41773,69.44853 58.61207,106.24613 81.56349,104.8304c64.14229,-3.95639 102.04559,-56.15558 101.64371,-90.15179z" data-paper-data="{&quot;index&quot;:null}" fill="#a90000"/><path d="M241.88062,476.36652c-2.93242,-0.21029 -1.65926,-89.0993 -2.15386,-192.83224c2.42359,1.88246 5.6123,1.64007 5.6123,1.64007c42.26223,-3.39089 179.62815,-1.51245 206.41696,-2.41938c46.67547,-3.16434 97.15041,-0.37157 142.29987,-15.97369c-10.98387,123.42566 -71.38157,229.72187 -352.17527,209.58524z" data-paper-data="{&quot;index&quot;:null}" fill="#a90000"/></g><path d="M78.53358,368.79149c-5.11341,10.22681 -15.34022,5.11341 -15.34022,5.11341l-12.78192,-7.04697c-2.6494,-5.08945 -6.21471,-9.79872 -7.94821,-15.26835c-0.98797,-3.11729 0.74577,-6.62639 0,-9.81032c-1.0251,-4.3765 -5.35901,-7.94478 -5.21103,-12.4373c0.1907,-5.78939 8.2327,-17.84939 10.68067,-23.99621c8.89798,-22.34268 16.61302,-45.02818 24.24219,-67.91237c0.75973,-2.27887 9.0172,-26.67277 9.34444,-29.13135c2.35853,-17.71981 -3.70009,-30.0773 -9.06084,-46.26505c-3.17227,-6.57765 -9.08652,-11.43837 -13.42759,-17.31068c-4.34672,-5.87996 -5.40354,-13.78554 -9.81032,-19.62063c-6.77916,-8.97641 -15.32405,-11.03454 -20.90852,-21.93059c-1.75946,-3.43294 0.34262,-7.80952 -0.56449,-11.55891c-2.47632,-10.23547 -12.14039,-19.01054 -14.71548,-29.43095c-5.45287,-22.06569 6.71435,-47.63658 24.06316,-60.95425c8.49253,-6.51922 21.38734,-10.85874 31.00308,-15.66661c0,0 10.22681,-5.11341 15.34022,5.11341c5.11341,10.22681 -5.11341,15.34022 -5.11341,15.34022c-8.7103,4.35515 -19.97765,8.06738 -27.85883,13.76435c-10.17182,7.35278 -18.39662,24.52289 -15.17811,37.14893c1.59009,6.23785 6.10213,11.34109 8.90907,17.13421c1.97653,4.07927 4.67613,7.90703 5.8064,12.29675c0.6717,2.60873 -1.72589,5.63112 -0.56449,8.06172c3.62357,7.58344 13.30653,10.57451 18.33275,17.31068c4.37287,5.86054 5.37615,13.80633 9.81032,19.62063c5.48776,7.19583 11.88572,13.87204 16.00336,21.93059c0.55808,1.66444 10.38565,30.79904 10.53303,31.97501c3.86232,30.81872 -10.50562,60.25867 -20.05975,88.83493c-4.50271,13.46756 -9.71193,26.83746 -14.99908,40.00112c-1.46336,3.64339 -3.25579,7.16127 -5.24191,10.54815c-1.008,1.71891 -3.84878,2.70995 -3.69805,4.69691c0.21507,2.83505 3.85651,4.43888 4.59929,7.18334c1.24393,4.59614 -0.01085,9.78495 1.86211,14.16261l6.83872,2.76335c0,0 10.22681,5.11341 5.11341,15.34022z" fill="#000000" stroke="none" stroke-width="0.5"/><path d="M331.40865,362.90428l0.6194,-3.63147c2.06466,-12.10491 4.12932,-24.20982 6.19399,-36.31473c1.10944,-6.50454 1.12333,-13.31533 3.43757,-19.49466c1.36193,-3.63653 4.09885,-6.64945 5.48967,-10.27502c0.95106,-2.47922 0.39296,-5.39874 1.45639,-7.83188c1.09966,-2.51602 3.24685,-4.42903 4.87027,-6.64355c1.59713,-9.36384 6.41042,-14.72768 11.96054,-22.27703c3.90215,-5.30777 6.42178,-11.5438 10.31568,-16.85763c7.64398,-10.43142 18.38125,-18.4393 23.19683,-30.98275c1.5805,-4.11682 3.68836,-14.10064 3.27054,-18.46807c-0.26149,-2.73335 -2.18921,-5.14406 -2.39268,-7.88234c-0.19676,-2.64808 1.27355,-5.21696 1.2221,-7.87184c-0.16137,-8.32782 -3.80302,-16.85578 -6.18868,-24.71501c-1.46198,-4.81629 -1.80549,-10.09751 -4.27971,-14.48068c-4.08946,-7.24462 -9.42649,-13.98688 -11.93454,-21.91897c-1.11659,-3.67846 -5.39448,-17.0638 -5.03333,-19.70276c0.45774,-3.34466 4.11688,-5.43913 5.42844,-8.54977c0.95417,-2.26301 0.11373,-5.07985 1.2388,-7.26295c1.97405,-3.83047 4.39041,-7.68099 7.81237,-10.30007c7.26114,-5.5575 17.33463,-5.84455 26.11748,-8.38845c1.93394,-0.56015 4.22531,-0.29741 5.85687,-1.47721c5.66361,-4.09543 7.88117,-11.91109 13.54645,-16.00421c2.58929,-1.87074 6.23367,-1.62563 9.06878,-3.09746c3.08259,-1.6003 5.25233,-4.79751 8.50174,-6.02415c0.38011,-0.14349 0.7597,-0.09446 1.14111,0.0469c-0.03502,-0.03769 -0.06527,-0.07646 -0.09017,-0.11632c-0.97816,-1.56615 -0.06393,-3.94256 -1.18225,-5.4119c-1.66298,-2.18496 -5.07069,-2.61956 -6.64355,-4.87027c-1.8298,-2.61838 -1.63779,-6.22739 -3.09746,-9.06878c-1.37768,-2.68178 -3.54624,-4.87687 -5.31936,-7.31531c0,0 -4.9647,-7.00657 2.04187,-11.97127c7.00657,-4.9647 11.97127,2.04187 11.97127,2.04187c2.24298,3.22939 4.93225,6.19077 6.72893,9.68818c1.0518,2.04743 0.34254,4.82822 1.68789,6.69591c1.60488,2.22799 5.1103,2.59239 6.64355,4.87027c2.42809,3.60733 6.83027,21.72815 5.35278,24.77597c-1.9129,3.94599 -7.91563,3.80488 -11.67807,6.05744c-2.97998,1.78411 -5.40447,4.45244 -8.50174,6.02415c-2.05263,1.04161 -4.79849,0.38481 -6.69591,1.68789c-1.66799,1.14552 -1.91012,3.60793 -3.23823,5.13455c-3.50547,4.02942 -6.82214,8.39771 -11.19815,11.45958c-8.55264,5.98423 -22.28567,4.27792 -31.08441,9.27575c-2.86462,1.62715 -2.54853,8.913 -3.16697,10.24997c-0.89646,1.93803 -3.79488,2.66559 -4.3121,4.73732c-0.3625,1.45199 1.60864,2.54702 2.1447,3.94427c0.98356,2.56363 1.59512,5.2549 2.39268,7.88234c2.03666,7.12152 7.38125,12.8457 10.92326,19.35095c0.33667,0.61832 4.87178,15.66768 5.29099,17.0487c2.98608,9.83724 6.54935,19.40101 6.92857,29.842c0.08193,2.25567 -1.43153,4.40377 -1.25549,6.65405c0.21415,2.73747 2.22489,5.14165 2.39268,7.88234c0.36303,5.93006 -2.01014,19.49743 -4.16225,25.1096c-5.61515,14.64301 -16.61079,23.32433 -25.50587,35.45272c-2.19187,2.9886 -3.25507,6.6721 -5.19145,9.83224c-5.72093,9.33648 -13.34087,15.00656 -15.21089,25.97032c-1.62342,2.21452 -3.7608,4.13184 -4.87027,6.64355c-0.91202,2.06469 -0.21263,4.58666 -1.02121,6.69401c-1.39107,3.62548 -4.06526,6.66251 -5.48967,10.27502c-2.08404,5.28545 -1.80116,11.21948 -2.75642,16.82007c-2.06466,12.10491 -4.74872,27.84129 -6.81339,39.9462c0,0 -1.44382,8.46496 -9.90878,7.02115c-8.46496,-1.44382 -7.02115,-9.90878 -7.02115,-9.90878zM455.2702,33.72371c0.73419,-0.04849 -0.59183,-0.21083 -1.73477,-0.59018c0.56665,0.32843 1.14246,0.62931 1.73477,0.59018z" data-paper-data="{&quot;index&quot;:null}" fill="#000000" stroke="none" stroke-width="0.5"/><path d="M-8.4985,62.88289v-28.52853h504.5045v28.52853z" fill="url(#color-6)" stroke="none" stroke-width="0"/><path d="M-11.00601,254.06908v-28.52853h504.5045v28.52853z" fill="url(#color-7)" stroke="none" stroke-width="0"/><path d="M57.56757,372.1922v-391.89189h27.02703v391.89189z" fill="url(#color-8)" stroke="#000000" stroke-width="0"/><path d="M397.4024,377.1922v-391.89189h27.02702v391.89189z" fill="url(#color-9)" stroke="#000000" stroke-width="0"/><text transform="translate(41.05106,22.13084) scale(0.5,0.5)" font-size="40" xml:space="preserve" fill="#ff0000" fill-rule="nonzero" stroke="#ff0000" stroke-width="3" stroke-linecap="butt" stroke-linejoin="miter" stroke-miterlimit="10" stroke-dasharray="" stroke-dashoffset="0" font-family="Sans Serif" font-weight="normal" text-anchor="start" style="mix-blend-mode: normal"><tspan x="0" dy="0">GAME OVER</tspan></text><text transform="translate(131.54355,293.57623) scale(0.44336,0.44336)" font-size="40" xml:space="preserve" fill="#ffe400" fill-rule="nonzero" stroke="#ffe400" stroke-width="3" stroke-linecap="butt" stroke-linejoin="miter" stroke-miterlimit="10" stroke-dasharray="" stroke-dashoffset="0" font-family="Sans Serif" font-weight="normal" text-anchor="start" style="mix-blend-mode: normal"><tspan x="0" dy="0">Flash him to fend him off.</tspan></text><g fill="#000000" stroke="none" stroke-width="0"><path d="M-11.50149,379.48819v-394.89489h45.04505v394.89489z"/><path d="M448.45346,385.98969v-394.89489h45.04505v394.8949z"/></g></g></g></svg>