<svg version="1.1" xmlns="http://www.w3.org/2000/svg" xmlns:xlink="http://www.w3.org/1999/xlink" width="168.72756" height="321.7295" viewBox="0,0,168.72756,321.7295"><defs><linearGradient x1="125.83359" y1="306.54236" x2="132.66012" y2="306.3957" gradientUnits="userSpaceOnUse" id="color-1"><stop offset="0" stop-color="#5c5c5c"/><stop offset="1" stop-color="#9b9b9b"/></linearGradient><linearGradient x1="123.83871" y1="258.1827" x2="130.66524" y2="258.03604" gradientUnits="userSpaceOnUse" id="color-2"><stop offset="0" stop-color="#5c5c5c"/><stop offset="1" stop-color="#9b9b9b"/></linearGradient><linearGradient x1="97.32254" y1="153.66901" x2="92.98077" y2="156.84161" gradientUnits="userSpaceOnUse" id="color-3"><stop offset="0" stop-color="#5c5c5c"/><stop offset="1" stop-color="#9b9b9b"/></linearGradient><linearGradient x1="106.83421" y1="117.56194" x2="106.83421" y2="126.06747" gradientUnits="userSpaceOnUse" id="color-4"><stop offset="0" stop-color="#a6a6a6"/><stop offset="1" stop-color="#707070"/></linearGradient><linearGradient x1="106.58893" y1="115.43074" x2="106.58893" y2="119.26945" gradientUnits="userSpaceOnUse" id="color-5"><stop offset="0" stop-color="#a6a6a6"/><stop offset="1" stop-color="#707070"/></linearGradient><linearGradient x1="114.72444" y1="103.44751" x2="114.615" y2="121.75013" gradientUnits="userSpaceOnUse" id="color-6"><stop offset="0" stop-color="#a6a6a6"/><stop offset="1" stop-color="#707070"/></linearGradient><linearGradient x1="97.15531" y1="103.66804" x2="97.04588" y2="121.97067" gradientUnits="userSpaceOnUse" id="color-7"><stop offset="0" stop-color="#a6a6a6"/><stop offset="1" stop-color="#707070"/></linearGradient><linearGradient x1="104.69893" y1="86.61524" x2="104.69893" y2="94.18498" gradientUnits="userSpaceOnUse" id="color-8"><stop offset="0" stop-color="#a6a6a6"/><stop offset="1" stop-color="#707070"/></linearGradient><linearGradient x1="106.18618" y1="91.41577" x2="106.18618" y2="105.99034" gradientUnits="userSpaceOnUse" id="color-9"><stop offset="0" stop-color="#a6a6a6"/><stop offset="1" stop-color="#707070"/></linearGradient><linearGradient x1="95.2697" y1="87.61642" x2="99.66658" y2="105.3834" gradientUnits="userSpaceOnUse" id="color-10"><stop offset="0" stop-color="#a6a6a6"/><stop offset="1" stop-color="#707070"/></linearGradient><linearGradient x1="117.21019" y1="88.18134" x2="112.81331" y2="105.94831" gradientUnits="userSpaceOnUse" id="color-11"><stop offset="0" stop-color="#a6a6a6"/><stop offset="1" stop-color="#707070"/></linearGradient><linearGradient x1="106.02213" y1="102.6009" x2="106.02213" y2="106.7812" gradientUnits="userSpaceOnUse" id="color-12"><stop offset="0" stop-color="#a6a6a6"/><stop offset="1" stop-color="#707070"/></linearGradient><linearGradient x1="83.54704" y1="306.82002" x2="76.72051" y2="306.67336" gradientUnits="userSpaceOnUse" id="color-13"><stop offset="0" stop-color="#5c5c5c"/><stop offset="1" stop-color="#9b9b9b"/></linearGradient><linearGradient x1="85.54191" y1="258.46036" x2="78.71539" y2="258.3137" gradientUnits="userSpaceOnUse" id="color-14"><stop offset="0" stop-color="#5c5c5c"/><stop offset="1" stop-color="#9b9b9b"/></linearGradient></defs><g transform="translate(-19.93238,-34.9006)"><g data-paper-data="{&quot;isPaintingLayer&quot;:true}" fill-rule="nonzero" stroke-linejoin="miter" stroke-miterlimit="10" stroke-dasharray="" stroke-dashoffset="0" style="mix-blend-mode: normal"><g><path d="M167.83645,210.11536c2.35743,1.23318 3.26882,4.14397 2.03563,6.5014c-1.23319,2.35744 -4.14397,3.2688 -6.50139,2.03562c-2.35742,-1.23318 -3.2688,-4.14396 -2.03562,-6.50138c1.23319,-2.35743 4.14397,-3.26881 6.50138,-2.03563z" data-paper-data="{&quot;index&quot;:null}" fill="#000000" stroke="none" stroke-width="0" stroke-linecap="butt"/><path d="M159.39145,174.80229c-1.23318,2.35745 -4.14396,3.26881 -6.50137,2.03564c-2.35743,-1.23318 -3.26883,-4.14396 -2.03564,-6.50138c1.23319,-2.35743 4.14396,-3.26881 6.50139,-2.03562c2.35742,1.23318 3.26881,4.14395 2.03561,6.50138z" data-paper-data="{&quot;index&quot;:null}" fill="#000000" stroke="none" stroke-width="0" stroke-linecap="butt"/><path d="M175.45968,227.9632c0.04501,0.69837 -0.48465,1.30099 -1.183,1.34599c-0.69837,0.04501 -1.30097,-0.48465 -1.34598,-1.18301c-0.04501,-0.69837 0.48464,-1.30097 1.18301,-1.34599c0.69837,-0.04501 1.30096,0.48464 1.34597,1.183z" data-paper-data="{&quot;index&quot;:null}" fill="#000000" stroke="none" stroke-width="0" stroke-linecap="butt"/><path d="M172.7727,235.30108c-0.32104,0.62183 -1.08538,0.86566 -1.70719,0.54462c-0.62181,-0.32102 -0.86564,-1.08539 -0.5446,-1.70719c0.32104,-0.62183 1.08538,-0.86566 1.70719,-0.54462c0.62182,0.32102 0.86567,1.0854 0.54463,1.7072z" data-paper-data="{&quot;index&quot;:null}" fill="#000000" stroke="none" stroke-width="0" stroke-linecap="butt"/><path d="M164.70231,237.49941c-0.62182,-0.32102 -0.86566,-1.08538 -0.54464,-1.70719c0.32103,-0.62181 1.08539,-0.86566 1.7072,-0.54462c0.62182,0.32102 0.86567,1.08539 0.54464,1.70719c-0.32104,0.62183 -1.0854,0.86565 -1.7072,0.54462z" data-paper-data="{&quot;index&quot;:null}" fill="#000000" stroke="none" stroke-width="0" stroke-linecap="butt"/><path d="M160.01853,235.6188c-0.32103,0.62181 -1.08539,0.86566 -1.70719,0.54462c-0.62182,-0.32102 -0.86566,-1.0854 -0.54462,-1.7072c0.32103,-0.62181 1.08539,-0.86565 1.7072,-0.54461c0.62182,0.32102 0.86565,1.08539 0.54463,1.7072z" data-paper-data="{&quot;index&quot;:null}" fill="#000000" stroke="none" stroke-width="0" stroke-linecap="butt"/><path d="M162.65927,249.28452c-0.67129,0.55547 -1.66582,0.46156 -2.2213,-0.20975c-0.55548,-0.67129 -0.46157,-1.66584 0.20974,-2.22129c0.67129,-0.55547 1.66581,-0.46155 2.22129,0.20974c0.55548,0.67129 0.46158,1.6658 -0.20974,2.22129z" data-paper-data="{&quot;index&quot;:null}" fill="#000000" stroke="none" stroke-width="0" stroke-linecap="butt"/><g data-paper-data="{&quot;index&quot;:null}" fill="#000000" stroke-width="1" stroke-linecap="butt"><path d="M164.38185,250.20953c0,0 -1.28889,4.2134 -2.21275,6.13693c-0.89898,1.87186 -3.5563,5.10999 -3.5563,5.10999l-5.22375,-2.50887c0,0 0.79784,-3.95586 1.68177,-5.79629c0.93655,-1.94998 3.63952,-5.66571 3.63952,-5.66571z" stroke="#000000"/><path d="M162.4599,249.35154l-5.42948,11.30474l-1.99001,-0.95576l5.42947,-11.30475z" stroke="none"/><path d="M160.28979,248.29778l-0.05476,0.43537c0.14197,0.56981 0.44969,1.01807 0.65168,1.55687c0.13422,0.35799 0.15405,0.75371 0.26722,1.11675c0.12383,0.39713 0.36318,0.72565 0.34159,1.18593c-0.05446,1.15947 -1.02567,2.33235 -2.03677,2.54098c-0.56122,0.14497 -1.10132,0.40088 -1.66163,0.52618c-0.09438,0.02111 -0.52114,0.07134 -0.6515,0.19505c-0.20911,0.19848 -0.27421,0.8782 -0.29383,1.08596c-0.1102,1.16575 0.41998,2.24182 0.35451,3.41649c0,0 -0.01947,0.30685 -0.30223,0.31645c-0.28274,0.00958 -0.26326,-0.29726 -0.26326,-0.29726c0.08703,-1.18126 -0.46928,-2.24622 -0.35357,-3.42937c0.04242,-0.43396 0.14394,-1.18517 0.49988,-1.52666c0.35996,-0.34539 0.82782,-0.29418 1.24088,-0.43117c0.46069,-0.1528 0.89928,-0.33516 1.36823,-0.4561c0.73991,-0.13874 1.49927,-1.04708 1.53298,-1.90487c0.01444,-0.36708 -0.21445,-0.65283 -0.31317,-0.97087c-0.11016,-0.35497 -0.12803,-0.74515 -0.25932,-1.09363c-0.22731,-0.60338 -0.54474,-1.08596 -0.68757,-1.73475l0.05829,-0.54667c0,0 0.03532,-0.30689 0.31654,-0.29924c0.2812,0.00766 0.24586,0.31454 0.24586,0.31454z" stroke="none"/><path d="M164.38185,250.20953c0,0 -1.28889,4.2134 -2.21275,6.13693c-0.89898,1.87186 -3.5563,5.10999 -3.5563,5.10999l-5.22375,-2.50887c0,0 0.79784,-3.95586 1.68177,-5.79629c0.93655,-1.94998 3.63952,-5.66571 3.63952,-5.66571z" stroke="#000000"/></g><path d="M173.91742,249.85675c-0.43475,0.7551 -1.39938,1.01478 -2.15448,0.58002c-0.75511,-0.43475 -1.01476,-1.39934 -0.58,-2.15445c0.43475,-0.7551 1.39936,-1.01477 2.15446,-0.58001c0.75511,0.43476 1.01477,1.39936 0.58002,2.15444z" data-paper-data="{&quot;index&quot;:null}" fill="#000000" stroke="none" stroke-width="0" stroke-linecap="butt"/><g data-paper-data="{&quot;index&quot;:null}" fill="#000000" stroke-width="1" stroke-linecap="butt"><path d="M175.85469,250.12127c0,0 0.26529,4.39813 0.07214,6.52325c-0.18797,2.06802 -1.54565,6.03077 -1.54565,6.03077l-5.77121,-0.52452c0,0 -0.63533,-3.98517 -0.4505,-6.01847c0.19581,-2.15436 1.42935,-6.58053 1.42935,-6.58053z" stroke="#000000"/><path d="M173.7541,249.98925l-1.13512,12.48951l-2.19856,-0.19983l1.13513,-12.48951z" stroke="none"/><path d="M171.35252,249.76053l0.10089,0.42704c0.33219,0.48424 0.77723,0.79666 1.15482,1.23084c0.2509,0.2885 0.4078,0.65233 0.64074,0.95287c0.25482,0.32878 0.59393,0.55289 0.7346,0.99173c0.35431,1.10537 -0.14565,2.54372 -1.02002,3.09266c-0.47512,0.33202 -0.89171,0.76057 -1.37286,1.07382c-0.08103,0.05277 -0.46333,0.24904 -0.5422,0.4105c-0.12653,0.25904 0.05007,0.91862 0.10429,1.12014c0.30426,1.13074 1.17716,1.95356 1.52645,3.07701c0,0 0.08903,0.2943 -0.17255,0.40215c-0.26154,0.10781 -0.35057,-0.18648 -0.35057,-0.18648c-0.33139,-1.13716 -1.22487,-1.94046 -1.53006,-3.08943c-0.11196,-0.42144 -0.27943,-1.16071 -0.06534,-1.60509c0.21652,-0.44941 0.6728,-0.56498 1.01188,-0.83773c0.37822,-0.3042 0.7254,-0.62838 1.12248,-0.90559c0.64472,-0.38864 1.03863,-1.50512 0.77033,-2.3206c-0.11479,-0.34894 -0.42913,-0.53667 -0.63279,-0.80013c-0.22733,-0.29406 -0.38043,-0.65338 -0.62528,-0.93399c-0.42389,-0.48585 -0.88996,-0.82703 -1.25057,-1.38494l-0.13649,-0.53253c0,0 -0.07418,-0.29988 0.19195,-0.39102c0.26613,-0.09113 0.34032,0.20876 0.34032,0.20876z" stroke="none"/><path d="M175.85469,250.12127c0,0 0.26529,4.39813 0.07214,6.52325c-0.18797,2.06802 -1.54565,6.03077 -1.54565,6.03077l-5.77121,-0.52452c0,0 -0.63533,-3.98517 -0.4505,-6.01847c0.19581,-2.15436 1.42935,-6.58053 1.42935,-6.58053z" stroke="#000000"/></g><g data-paper-data="{&quot;index&quot;:null}" fill="#000000" stroke-width="1" stroke-linecap="butt"><path d="M171.25512,235.08688c0,0 2.12677,3.85886 2.86415,5.86127c0.71756,1.94861 1.19159,6.11062 1.19159,6.11062l-5.43802,2.0025c0,0 -2.28381,-3.32705 -2.98934,-5.24296c-0.74754,-2.02996 -1.53249,-6.5573 -1.53249,-6.5573z" stroke="#000000"/><path d="M169.30107,235.86898l4.33368,11.76841l-2.0716,0.76286l-4.33368,-11.76843z" stroke="none"/><path d="M167.03365,236.69284l0.27435,0.34248c0.50781,0.29486 1.04386,0.38607 1.57124,0.61624c0.35041,0.15294 0.64825,0.41426 0.9876,0.58578c0.37125,0.18762 0.7737,0.24456 1.08905,0.58058c0.79431,0.84643 0.95992,2.36017 0.40566,3.23118c-0.28669,0.50375 -0.4791,1.06963 -0.77928,1.55903c-0.05055,0.08244 -0.31166,0.42377 -0.31362,0.60346c-0.00315,0.28827 0.4394,0.8083 0.57485,0.96705c0.76001,0.89079 1.90151,1.25948 2.69907,2.12441c0,0 0.20667,0.22763 0.0167,0.43726c-0.18998,0.20962 -0.39666,-0.018 -0.39666,-0.018c-0.78728,-0.88496 -1.93902,-1.2272 -2.70767,-2.13406c-0.28193,-0.33263 -0.75043,-0.92853 -0.74774,-1.4218c0.00274,-0.49884 0.36525,-0.79898 0.55452,-1.19085c0.21112,-0.43706 0.38562,-0.87883 0.62533,-1.29964c0.4156,-0.62768 0.29235,-1.80516 -0.29989,-2.42664c-0.25342,-0.26595 -0.61789,-0.30062 -0.9149,-0.45123c-0.33152,-0.16808 -0.62401,-0.42695 -0.96554,-0.57535c-0.59137,-0.25697 -1.15873,-0.36516 -1.72386,-0.71437l-0.35179,-0.42245c0,0 -0.19568,-0.23905 0.00559,-0.43558c0.20129,-0.19652 0.39697,0.04252 0.39697,0.04252z" stroke="none"/><path d="M171.25512,235.08688c0,0 2.12677,3.85886 2.86415,5.86127c0.71756,1.94861 1.19159,6.11062 1.19159,6.11062l-5.43802,2.0025c0,0 -2.28381,-3.32705 -2.98934,-5.24296c-0.74754,-2.02996 -1.53249,-6.5573 -1.53249,-6.5573z" stroke="#000000"/></g><g data-paper-data="{&quot;index&quot;:null}" fill="#000000" stroke-width="1" stroke-linecap="butt"><path d="M165.328,234.5158c0,0 0.64368,4.35889 0.63454,6.49273c-0.00888,2.07652 -1.0197,6.1416 -1.0197,6.1416l-5.79493,-0.02479c0,0 -0.97668,-3.91549 -0.96795,-5.95718c0.00925,-2.16322 0.85642,-6.67932 0.85642,-6.67932z" stroke="#000000"/><path d="M163.22385,234.56548l-0.05364,12.54086l-2.20758,-0.00942l0.0536,-12.54089z" stroke="none"/><path d="M160.81152,234.54478l0.13735,0.41676c0.37273,0.45379 0.84304,0.72665 1.2567,1.12665c0.27483,0.26578 0.46254,0.61471 0.72053,0.89406c0.28222,0.30555 0.63941,0.49962 0.81742,0.92469c0.44833,1.0707 0.07433,2.54684 -0.74948,3.16914c-0.4447,0.37177 -0.82282,0.83463 -1.27513,1.18824c-0.07617,0.05956 -0.44011,0.28808 -0.50477,0.45576c-0.1037,0.26898 0.12913,0.9109 0.20055,1.10698c0.40067,1.10027 1.34126,1.84472 1.78615,2.93387c0,0 0.11406,0.28551 -0.1372,0.41552c-0.25128,0.12998 -0.36535,-0.15552 -0.36535,-0.15552c-0.42827,-1.10435 -1.38768,-1.82762 -1.79084,-2.94595c-0.14787,-0.4102 -0.37851,-1.13227 -0.20355,-1.59346c0.17697,-0.46642 0.62153,-0.62092 0.93583,-0.92189c0.35059,-0.3357 0.66848,-0.6886 1.04019,-0.99904c0.60881,-0.44279 0.90493,-1.58909 0.56732,-2.3784c-0.14447,-0.33776 -0.47383,-0.49765 -0.69948,-0.74258c-0.25184,-0.27337 -0.43536,-0.61811 -0.70349,-0.87655c-0.46424,-0.44747 -0.958,-0.74721 -1.36541,-1.27192l-0.18191,-0.51876c0,0 -0.09979,-0.29238 0.15749,-0.40614c0.25728,-0.11374 0.35705,0.17863 0.35705,0.17863z" stroke="none"/><path d="M165.328,234.5158c0,0 0.64368,4.35889 0.63454,6.49273c-0.00888,2.07652 -1.0197,6.1416 -1.0197,6.1416l-5.79493,-0.02479c0,0 -0.97668,-3.91549 -0.96795,-5.95718c0.00925,-2.16322 0.85642,-6.67932 0.85642,-6.67932z" stroke="#000000"/></g><path d="M155.76046,230.66793c-0.07441,-8.0173 4.71559,-14.56168 10.69879,-14.6172c5.98323,-0.05554 10.89388,6.39875 10.96831,14.41606c0.07443,8.01732 -3.9612,9.58157 -9.9444,9.63713c-5.98321,0.05555 -11.64828,-1.41865 -11.72269,-9.43599z" data-paper-data="{&quot;index&quot;:null}" fill="#000000" stroke="#000000" stroke-width="1" stroke-linecap="butt"/><path d="M182.69346,229.08463c0.69446,0.08638 1.18738,0.71938 1.101,1.41383c-0.08639,0.69445 -0.7194,1.18739 -1.41383,1.10102c-0.69446,-0.08638 -1.18737,-0.71937 -1.101,-1.41382c0.08639,-0.69445 0.7194,-1.18739 1.41384,-1.10102z" data-paper-data="{&quot;index&quot;:null}" fill="#000000" stroke="none" stroke-width="0" stroke-linecap="butt"/><g data-paper-data="{&quot;index&quot;:null}" fill="#000000" stroke-width="1" stroke-linecap="butt"><path d="M185.31084,230.09028c0,0 1.56758,3.17266 2.08717,4.80581c0.50565,1.58927 0.7362,4.94566 0.7362,4.94566l-4.4352,1.41108c0,0 -1.7127,-2.75163 -2.20986,-4.31421c-0.52674,-1.65563 -0.99369,-5.31633 -0.99369,-5.31633z" stroke="#000000"/><path d="M183.71489,230.64746l3.0537,9.59824l-1.6896,0.53756l-3.05371,-9.59825z" stroke="none"/><path d="M181.86602,231.22695l0.20781,0.28465c0.39684,0.25484 0.82368,0.34736 1.23851,0.551c0.27565,0.13532 0.50522,0.35567 0.77134,0.50553c0.29112,0.1639 0.61199,0.22406 0.8529,0.50502c0.60685,0.70768 0.68528,1.9282 0.20922,2.60711c-0.24816,0.39388 -0.42289,0.84095 -0.68135,1.22283c-0.04352,0.06432 -0.26531,0.32878 -0.27334,0.47289c-0.01289,0.2312 0.32346,0.66432 0.42644,0.79657c0.57774,0.74206 1.48037,1.07897 2.08915,1.80161c0,0 0.15763,0.19007 -0.00233,0.35143c-0.15997,0.16135 -0.31761,-0.0287 -0.31761,-0.0287c-0.59985,-0.73835 -1.51157,-1.05439 -2.09569,-1.80965c-0.21425,-0.27703 -0.56873,-0.772 -0.54879,-1.16766c0.02014,-0.40015 0.32181,-0.62795 0.48776,-0.93556c0.18509,-0.34307 0.341,-0.69124 0.54849,-1.02025c0.35604,-0.48867 0.29951,-1.43785 -0.1533,-1.95781c-0.19377,-0.22248 -0.48498,-0.26341 -0.71785,-0.39495c-0.25993,-0.14681 -0.48528,-0.365 -0.75399,-0.49636c-0.46522,-0.22744 -0.91658,-0.33467 -1.35744,-0.63519l-0.26706,-0.35161c0,0 -0.14841,-0.19884 0.02016,-0.34927c0.1686,-0.15043 0.317,0.04841 0.317,0.04841z" stroke="none"/><path d="M185.31084,230.09028c0,0 1.56758,3.17266 2.08717,4.80581c0.50565,1.58927 0.7362,4.94566 0.7362,4.94566l-4.4352,1.41108c0,0 -1.7127,-2.75163 -2.20986,-4.31421c-0.52674,-1.65563 -0.99369,-5.31633 -0.99369,-5.31633z" stroke="#000000"/></g><path d="M175.13713,220.17402c0.69446,0.08638 1.18738,0.71938 1.101,1.41383c-0.08639,0.69445 -0.7194,1.1874 -1.41384,1.10102c-0.69446,-0.08638 -1.18738,-0.71939 -1.101,-1.41383c0.08639,-0.69445 0.71938,-1.18739 1.41383,-1.10101z" data-paper-data="{&quot;index&quot;:null}" fill="#000000" stroke="none" stroke-width="0" stroke-linecap="butt"/><g data-paper-data="{&quot;index&quot;:null}" fill="#000000" stroke-width="1" stroke-linecap="butt"><path d="M177.21905,220.39634c0,0 2.77725,2.19313 3.94734,3.44537c1.13865,1.21857 2.78708,4.15138 2.78708,4.15138l-3.40069,3.17763c0,0 -2.7277,-1.75056 -3.84723,-2.94868c-1.18617,-1.26946 -3.17867,-4.37571 -3.17867,-4.37571z" stroke="#000000"/><path d="M176.01657,221.58445l6.8767,7.35949l-1.2955,1.21052l-6.8767,-7.35949z" stroke="none"/><path d="M174.59518,222.90115l0.30984,0.16793c0.46783,0.05992 0.89302,-0.03967 1.35512,-0.03373c0.30707,0.00394 0.60895,0.10451 0.91363,0.12565c0.33326,0.02312 0.64893,-0.0602 0.9871,0.09019c0.85181,0.37885 1.44633,1.44764 1.30764,2.26513c-0.05515,0.46223 -0.02114,0.94107 -0.09073,1.39691c-0.01171,0.07677 -0.09857,0.41082 -0.04399,0.54443c0.08756,0.21437 0.57721,0.46127 0.72697,0.53653c0.84024,0.42237 1.80014,0.33939 2.6601,0.73092c0,0 0.22393,0.10405 0.14869,0.31843c-0.07525,0.21439 -0.29919,0.11035 -0.29919,0.11035c-0.85863,-0.40957 -1.81779,-0.3038 -2.66947,-0.73539c-0.31239,-0.15829 -0.84494,-0.4533 -0.99672,-0.81924c-0.15349,-0.37009 0.02123,-0.70527 0.03917,-1.05432c0.02,-0.38933 0.01141,-0.7707 0.05764,-1.1569c0.11192,-0.59418 -0.34639,-1.42729 -0.97852,-1.70264c-0.27051,-0.11783 -0.5511,-0.02986 -0.81788,-0.04872c-0.29778,-0.02106 -0.59496,-0.12147 -0.89405,-0.12483c-0.51782,-0.00582 -0.97151,0.09099 -1.49867,0.00871l-0.39209,-0.203c0,0 -0.21937,-0.11592 -0.13165,-0.32413c0.08771,-0.2082 0.30708,-0.09226 0.30708,-0.09226z" stroke="none"/><path d="M177.21905,220.39634c0,0 2.77725,2.19313 3.94734,3.44537c1.13865,1.21857 2.78708,4.15138 2.78708,4.15138l-3.40069,3.17763c0,0 -2.7277,-1.75056 -3.84723,-2.94868c-1.18617,-1.26946 -3.17867,-4.37571 -3.17867,-4.37571z" stroke="#000000"/></g><g data-paper-data="{&quot;index&quot;:null}" fill="#000000" stroke-linecap="butt"><path d="M155.82431,216.23316c0,0 -6.5032,-12.51018 -8.26613,-18.87587c-1.66388,-6.008 -1.46747,-18.46525 -1.46747,-18.46525l19.73949,-5.52742c0,0 6.70026,11.02732 8.39252,17.13786c1.73899,6.27924 3.03301,19.72944 3.03301,19.72944z" stroke="#000000" stroke-width="2"/><path d="M162.52153,214.17177l-10.22025,-36.90394l7.51981,-2.10568l10.22026,36.90396z" stroke="none" stroke-width="0"/><path d="M160.75789,215.26015c-0.9683,-0.09304 -0.86211,-1.04845 -0.86211,-1.04845l0.2051,-1.69993c0.96916,-1.92964 2.41289,-3.2776 3.63766,-5.0331c0.7074,-1.01396 1.05725,-2.20259 1.69715,-3.24518c0.57331,-0.93409 1.56835,-1.71526 1.79064,-2.84653c0.51947,-2.64365 -1.40776,-5.74267 -3.83804,-6.47445c-1.51587,-0.56496 -2.88238,-1.30567 -4.34641,-1.96487c-1.31261,-0.59105 -2.95214,-0.62786 -3.9288,-1.83571c-0.96576,-1.19431 -0.75726,-3.53918 -0.58136,-4.8871c0.47953,-3.67491 3.17208,-6.70919 3.74847,-10.36645c0,0 0.16042,-0.94868 1.12124,-0.80215c0.9608,0.14655 0.80041,1.09523 0.80041,1.09523c-0.6452,3.62812 -3.2566,6.70725 -3.74215,10.32655c-0.08654,0.64505 -0.36679,2.75564 0.2022,3.4507c0.35465,0.43325 1.77855,0.76403 2.08598,0.86781c1.82533,0.6162 3.48503,1.62438 5.29888,2.30124c3.30697,1.05835 5.76365,5.05609 5.09195,8.63308c-0.26668,1.42007 -1.32927,2.32802 -2.04701,3.49409c-0.65614,1.06597 -1.01683,2.27082 -1.74127,3.3127c-1.09026,1.56799 -2.47557,2.81473 -3.38324,4.50272l-0.13474,1.35737c0,0 -0.10619,0.95542 -1.07451,0.8624z" stroke="none" stroke-width="0.5"/><path d="M155.82431,216.23316c0,0 -6.5032,-12.51018 -8.26613,-18.87587c-1.66388,-6.008 -1.46747,-18.46525 -1.46747,-18.46525l19.73949,-5.52742c0,0 6.70026,11.02732 8.39252,17.13786c1.73899,6.27924 3.03301,19.72944 3.03301,19.72944z" stroke="#000000" stroke-width="2"/></g><g data-paper-data="{&quot;index&quot;:null}" fill="#000000" stroke-linecap="butt"><path d="M144.8855,178.36067c0,0 -10.08528,-9.85309 -13.74829,-15.34966c-3.45718,-5.18773 -7.1615,-17.08307 -7.1615,-17.08307l17.02546,-11.41635c0,0 9.80933,8.38284 13.32551,13.65912c3.61326,5.42192 9.04361,17.79504 9.04361,17.79504z" stroke="#000000" stroke-width="2"/><path d="M150.60382,174.3106l-21.23557,-31.86542l6.4859,-4.34909l21.23558,31.86544z" stroke="none" stroke-width="0"/><path d="M149.26836,175.89538c-0.94891,0.21406 -1.14646,-0.72672 -1.14646,-0.72672l-0.33613,-1.67894c0.31797,-2.13582 1.26844,-3.86727 1.88362,-5.91747c0.35532,-1.18418 0.3164,-2.42261 0.59864,-3.61292c0.25287,-1.06642 0.95414,-2.1193 0.81196,-3.26341c-0.33225,-2.67363 -3.13101,-5.01566 -5.66827,-4.95175c-1.61649,-0.06322 -3.14599,-0.34007 -4.74266,-0.50901c-1.43156,-0.1515 -3.00056,0.32563 -4.30561,-0.51673c-1.29048,-0.83292 -1.82482,-3.1256 -2.07872,-4.46103c-0.69227,-3.64084 0.91784,-7.36429 0.32306,-11.01861c0,0 -0.14392,-0.95134 0.81461,-1.11224c0.95851,-0.16088 1.10246,0.79045 1.10246,0.79045c0.52029,3.64813 -0.99871,7.38885 -0.32951,10.97874c0.11926,0.63981 0.51225,2.73234 1.26987,3.2149c0.47222,0.3008 1.92819,0.17029 2.25266,0.17286c1.92647,0.01524 3.81805,0.45459 5.75256,0.53105c3.47208,-0.02749 7.05452,3.0029 7.53367,6.61074c0.19022,1.43231 -0.53562,2.62673 -0.85324,3.95865c-0.29038,1.21758 -0.2567,2.47481 -0.61948,3.69084c-0.54595,1.83008 -1.47255,3.44713 -1.80759,5.33417l0.29597,1.33155c0,0 0.19754,0.94079 -0.75139,1.15487z" stroke="none" stroke-width="0.5"/><path d="M144.8855,178.36067c0,0 -10.08528,-9.85309 -13.74829,-15.34966c-3.45718,-5.18773 -7.1615,-17.08307 -7.1615,-17.08307l17.02546,-11.41635c0,0 9.80933,8.38284 13.32551,13.65912c3.61326,5.42192 9.04361,17.79504 9.04361,17.79504z" stroke="#000000" stroke-width="2"/></g><path d="M134.18649,334.36175c-1.63615,2.44074 -4.69943,2.86711 -6.84205,0.95234c-2.14263,-1.91477 -2.5532,-5.44559 -0.91705,-7.88633c1.63615,-2.44074 4.69943,-2.86711 6.84205,-0.95234c2.14263,1.91477 2.5532,5.44558 0.91706,7.88632z" fill="#000000" stroke="none" stroke-width="0" stroke-linecap="butt"/><g fill="#000000" stroke="#000000" stroke-width="2" stroke-linecap="butt"><path d="M134.05838,332.53553c10.73257,0 18.99469,-3.18175 19.43305,11.02173c0.44462,14.40659 -8.70047,11.02173 -19.43305,11.02173c-10.73259,0 -19.43306,-4.9346 -19.43306,-11.02173c0,-6.08713 8.70049,-11.02173 19.43307,-11.02173z"/><path d="M175.5349,343.55728c0,6.19393 -5.36747,11.2151 -11.98855,11.2151c-6.6211,0 -11.98854,-5.02116 -11.98854,-11.2151c0,-6.19393 5.36746,-11.21509 11.98854,-11.21509c6.6211,0 11.98855,5.02116 11.98855,11.21509z" data-paper-data="{&quot;index&quot;:null}"/><path d="M167.22027,343.84729c0,6.35411 -5.36747,11.50515 -11.98856,11.50515c-6.6211,0 -11.98856,-5.15103 -11.98856,-11.50515c0,-6.35411 5.36746,-11.50513 11.98856,-11.50513c6.6211,0 11.98856,5.15102 11.98856,11.50513z" data-paper-data="{&quot;index&quot;:null}"/><path d="M157.16534,343.84729c0,6.35411 -5.36746,11.50515 -11.98854,11.50515c-6.6211,0 -11.98855,-5.15103 -11.98855,-11.50515c0,-6.35411 5.36747,-11.50513 11.98855,-11.50513c6.6211,0 11.98854,5.15102 11.98854,11.50513z" data-paper-data="{&quot;index&quot;:null}"/></g><path d="M132.6484,285.07068c-1.76097,3.19082 -5.50071,4.04504 -8.35293,1.90793c-2.85222,-2.13712 -3.73686,-6.45628 -1.97589,-9.6471c1.76097,-3.19082 5.5007,-4.04503 8.35293,-1.90792c2.85222,2.13712 3.73687,6.45627 1.9759,9.64709z" fill="#000000" stroke="none" stroke-width="0" stroke-linecap="butt"/><g stroke-linecap="butt"><path d="M120.25736,329.20664c0,0 -2.95053,-16.03559 -3.13746,-23.737c-0.17645,-7.26871 2.55748,-21.25948 2.55748,-21.25948l17.91963,-0.38502c0,0 3.4236,14.4216 3.60304,21.81436c0.1844,7.59686 -1.48711,23.14914 -1.48711,23.14914z" fill="#696969" stroke="#000000" stroke-width="2"/><path d="M126.37545,328.8662l-1.08375,-44.64767l6.82653,-0.14668l1.08375,44.64768z" fill="url(#color-1)" stroke="none" stroke-width="0"/><path d="M124.65191,329.57108c-0.804,-0.39182 -0.51683,-1.43788 -0.51683,-1.43788l0.52464,-1.85636c1.22151,-1.88907 2.7266,-2.9815 4.12952,-4.59841c0.81031,-0.9339 1.35266,-2.17077 2.11149,-3.15698c0.67985,-0.88358 1.68673,-1.46974 2.10881,-2.6797c0.98636,-2.82753 -0.0134,-6.89358 -1.92862,-8.43894c-1.17226,-1.08628 -2.18129,-2.32652 -3.29001,-3.50374c-0.99408,-1.05547 -2.38026,-1.58278 -2.96164,-3.23434c-0.57488,-1.63307 0.08555,-4.2158 0.51283,-5.68383c1.16494,-4.00241 4.07912,-6.6266 5.32272,-10.58042c0,0 0.33185,-1.02239 1.11846,-0.57243c0.78662,0.44996 0.45474,1.47236 0.45474,1.47236c-1.29611,3.90053 -4.15054,6.59938 -5.30912,10.53728c-0.20648,0.70184 -0.87966,2.99906 -0.53919,3.95153c0.21222,0.59368 1.35451,1.38863 1.59447,1.59677c1.42476,1.23577 2.6279,2.86454 4.03041,4.16534c2.59319,2.17343 3.85784,7.40987 2.54976,11.24491c-0.5193,1.52249 -1.60974,2.23163 -2.46017,3.33403c-0.77743,1.00777 -1.33236,2.25969 -2.16291,3.22008c-1.24993,1.44531 -2.68451,2.44091 -3.80397,4.07566l-0.39425,1.49086c0,0 -0.28717,1.04607 -1.09117,0.65425z" fill="#000000" stroke="none" stroke-width="0.5"/><path d="M120.25736,329.20664c0,0 -2.95053,-16.03559 -3.13746,-23.737c-0.17645,-7.26871 2.55748,-21.25948 2.55748,-21.25948l17.91963,-0.38502c0,0 3.4236,14.4216 3.60304,21.81436c0.1844,7.59686 -1.48711,23.14914 -1.48711,23.14914z" fill="#000000" stroke="#000000" stroke-width="2"/></g><path d="M128.70565,302.01883c14.4735,-0.51891 16.09756,1.43943 16.18664,3.92381c0.08907,2.48438 -0.07858,4.50695 -15.86409,5.0729c-15.0358,0.53906 -16.09757,-1.43943 -16.18664,-3.92381c-0.08907,-2.48437 1.20317,-4.54728 15.8641,-5.0729z" fill="#000000" stroke="none" stroke-width="NaN" stroke-linecap="butt"/><path d="M40.75585,209.9211c2.35742,-1.23317 5.26819,-0.32179 6.50138,2.03563c1.23319,2.35743 0.3218,5.2682 -2.03562,6.50138c-2.35742,1.23317 -5.2682,0.32182 -6.50139,-2.03562c-1.23319,-2.35743 -0.3218,-5.26821 2.03563,-6.5014z" data-paper-data="{&quot;index&quot;:null}" fill="#000000" stroke="none" stroke-width="0" stroke-linecap="butt"/><path d="M49.20087,174.60804c-1.23319,-2.35744 -0.32181,-5.2682 2.03562,-6.50138c2.35743,-1.23318 5.2682,-0.3218 6.50139,2.03562c1.23319,2.35743 0.32179,5.2682 -2.03564,6.50138c-2.35742,1.23317 -5.26818,0.32182 -6.50137,-2.03564z" data-paper-data="{&quot;index&quot;:null}" fill="#000000" stroke="none" stroke-width="0" stroke-linecap="butt"/><path d="M33.13263,227.76893c0.04501,-0.69836 0.6476,-1.22801 1.34598,-1.183c0.69837,0.04502 1.22801,0.64762 1.18301,1.34599c-0.04501,0.69836 -0.6476,1.22801 -1.34598,1.18301c-0.69835,-0.045 -1.228,-0.64762 -1.183,-1.34599z" data-paper-data="{&quot;index&quot;:null}" fill="#000000" stroke="none" stroke-width="0" stroke-linecap="butt"/><path d="M35.81958,235.10682c-0.32103,-0.6218 -0.07719,-1.38617 0.54463,-1.7072c0.62181,-0.32103 1.38615,-0.0772 1.70719,0.54462c0.32103,0.6218 0.07721,1.38617 -0.5446,1.70719c-0.6218,0.32103 -1.38615,0.0772 -1.70719,-0.54462z" data-paper-data="{&quot;index&quot;:null}" fill="#000000" stroke="none" stroke-width="0" stroke-linecap="butt"/><path d="M42.1828,236.76052c-0.32103,-0.6218 -0.07718,-1.38617 0.54464,-1.7072c0.62181,-0.32104 1.38616,-0.07719 1.7072,0.54462c0.32102,0.62181 0.07719,1.38617 -0.54463,1.70719c-0.6218,0.32103 -1.38616,0.07721 -1.7072,-0.54462z" data-paper-data="{&quot;index&quot;:null}" fill="#000000" stroke="none" stroke-width="0" stroke-linecap="butt"/><path d="M48.57378,235.42454c-0.32102,-0.62181 -0.07719,-1.38617 0.54463,-1.7072c0.62181,-0.32104 1.38616,-0.0772 1.7072,0.54461c0.32103,0.6218 0.0772,1.38618 -0.54462,1.7072c-0.6218,0.32103 -1.38616,0.07719 -1.70719,-0.54462z" data-paper-data="{&quot;index&quot;:null}" fill="#000000" stroke="none" stroke-width="0" stroke-linecap="butt"/><path d="M45.93305,249.09025c-0.67132,-0.5555 -0.76522,-1.55 -0.20974,-2.22129c0.55548,-0.67129 1.55,-0.76521 2.22128,-0.20974c0.67131,0.55545 0.76522,1.55 0.20974,2.22129c-0.55548,0.67131 -1.55002,0.76523 -2.2213,0.20976z" data-paper-data="{&quot;index&quot;:null}" fill="#000000" stroke="none" stroke-width="0" stroke-linecap="butt"/><g data-paper-data="{&quot;index&quot;:null}" fill="#000000" stroke-width="1" stroke-linecap="butt"><path d="M49.88197,247.29132c0,0 2.70297,3.71572 3.63952,5.66571c0.88394,1.84043 1.68178,5.79629 1.68178,5.79629l-5.22376,2.50887c0,0 -2.65731,-3.23814 -3.5563,-5.10999c-0.92386,-1.92353 -2.21275,-6.13693 -2.21275,-6.13693z" stroke="#000000"/><path d="M48.12243,248.20151l5.42947,11.30475l-1.99001,0.95576l-5.42948,-11.30474z" stroke="none"/><path d="M48.3025,248.10349c0,0 -0.03534,-0.30688 0.24587,-0.31454c0.28122,-0.00765 0.31654,0.29925 0.31654,0.29925l0.05828,0.54666c-0.14283,0.64879 -0.46027,1.13137 -0.68757,1.73475c-0.13129,0.34848 -0.14917,0.73865 -0.25933,1.09363c-0.09873,0.31804 -0.32761,0.60379 -0.31317,0.97087c0.03372,0.8578 0.79308,1.76613 1.53298,1.90487c0.46895,0.12094 0.90754,0.3033 1.36823,0.45611c0.41306,0.13699 0.88091,0.08577 1.24087,0.43116c0.35594,0.34149 0.45745,1.0927 0.49988,1.52667c0.11571,1.18315 -0.4406,2.24811 -0.35357,3.42937c0,0 0.01949,0.30684 -0.26326,0.29726c-0.28276,-0.0096 -0.30223,-0.31645 -0.30223,-0.31645c-0.06547,-1.17467 0.46471,-2.25073 0.35451,-3.41649c-0.01961,-0.20776 -0.08473,-0.88748 -0.29383,-1.08596c-0.13036,-0.12371 -0.55712,-0.17394 -0.6515,-0.19505c-0.5603,-0.1253 -1.10041,-0.38121 -1.66163,-0.52618c-1.0111,-0.20863 -1.98231,-1.38151 -2.03677,-2.54098c-0.02159,-0.46028 0.21776,-0.7888 0.34159,-1.18593c0.11317,-0.36304 0.13299,-0.75876 0.26721,-1.11675c0.20199,-0.5388 0.50972,-0.98706 0.65168,-1.55687l-0.05476,-0.43537z" stroke="none"/><path d="M49.88197,247.29132c0,0 2.70297,3.71572 3.63952,5.66571c0.88394,1.84043 1.68178,5.79629 1.68178,5.79629l-5.22376,2.50887c0,0 -2.65731,-3.23814 -3.5563,-5.10999c-0.92386,-1.92353 -2.21275,-6.13693 -2.21275,-6.13693z" stroke="#000000"/></g><path d="M35.25492,247.50804c0.7551,-0.43476 1.7197,-0.17509 2.15445,0.58001c0.43476,0.75511 0.17511,1.7197 -0.58,2.15445c-0.7551,0.43476 -1.71973,0.17509 -2.15448,-0.58002c-0.43475,-0.75509 -0.17509,-1.71968 0.58003,-2.15444z" data-paper-data="{&quot;index&quot;:null}" fill="#000000" stroke="none" stroke-width="0" stroke-linecap="butt"/><g data-paper-data="{&quot;index&quot;:null}" fill="#000000" stroke-width="1" stroke-linecap="butt"><path d="M39.0035,249.3575c0,0 1.23354,4.42618 1.42936,6.58054c0.18483,2.0333 -0.4505,6.01847 -0.4505,6.01847l-5.77121,0.52452c0,0 -1.35769,-3.96276 -1.54565,-6.03077c-0.19315,-2.12511 0.07214,-6.52325 0.07214,-6.52325z" stroke="#000000"/><path d="M37.03677,249.59515l1.13513,12.48951l-2.19857,0.19983l-1.13512,-12.48951z" stroke="none"/><path d="M37.23979,249.56625c0,0 0.07419,-0.29989 0.34032,-0.20876c0.26613,0.09114 0.19195,0.39102 0.19195,0.39102l-0.13649,0.53253c-0.36061,0.55791 -0.82668,0.8991 -1.25057,1.38494c-0.24486,0.28061 -0.39794,0.63993 -0.62528,0.93399c-0.20367,0.26345 -0.518,0.45119 -0.63279,0.80013c-0.26831,0.81548 0.12561,1.93196 0.77032,2.3206c0.39708,0.27721 0.74427,0.60138 1.12249,0.90559c0.33908,0.27275 0.79536,0.38832 1.01188,0.83773c0.21409,0.44438 0.04662,1.18365 -0.06534,1.60509c-0.30518,1.14897 -1.19867,1.95227 -1.53006,3.08943c0,0 -0.08903,0.29429 -0.35057,0.18648c-0.26157,-0.10784 -0.17255,-0.40215 -0.17255,-0.40215c0.34929,-1.12345 1.22219,-1.94627 1.52645,-3.07701c0.05422,-0.20152 0.23083,-0.8611 0.10429,-1.12015c-0.07887,-0.16146 -0.46117,-0.35773 -0.5422,-0.4105c-0.48115,-0.31324 -0.89774,-0.7418 -1.37286,-1.07382c-0.87437,-0.54894 -1.37432,-1.98729 -1.02002,-3.09266c0.14067,-0.43884 0.47977,-0.66296 0.7346,-0.99173c0.23293,-0.30054 0.38984,-0.66437 0.64074,-0.95287c0.3776,-0.43418 0.82263,-0.7466 1.15482,-1.23084l0.10088,-0.42704z" stroke="none"/><path d="M39.0035,249.3575c0,0 1.23354,4.42618 1.42936,6.58054c0.18483,2.0333 -0.4505,6.01847 -0.4505,6.01847l-5.77121,0.52452c0,0 -1.35769,-3.96276 -1.54565,-6.03077c-0.19315,-2.12511 0.07214,-6.52325 0.07214,-6.52325z" stroke="#000000"/></g><g data-paper-data="{&quot;index&quot;:null}" fill="#000000" stroke-width="1" stroke-linecap="butt"><path d="M43.24131,237.06676c0,0 -0.78495,4.52734 -1.53249,6.5573c-0.70553,1.91591 -2.98934,5.24296 -2.98934,5.24296l-5.43802,-2.0025c0,0 0.47403,-4.16201 1.19159,-6.11062c0.73737,-2.00241 2.86415,-5.86127 2.86415,-5.86127z" stroke="#000000"/><path d="M41.36284,236.43755l-4.33367,11.76843l-2.0716,-0.76286l4.33367,-11.76841z" stroke="none"/><path d="M41.55866,236.4986c0,0 0.19568,-0.23904 0.39697,-0.04252c0.20127,0.19653 0.00559,0.43558 0.00559,0.43558l-0.35179,0.42245c-0.56513,0.34921 -1.13249,0.4574 -1.72386,0.71437c-0.34153,0.1484 -0.63402,0.40727 -0.96554,0.57536c-0.29701,0.15061 -0.66149,0.18528 -0.9149,0.45123c-0.59223,0.62148 -0.71549,1.79896 -0.29989,2.42664c0.23971,0.42082 0.41422,0.86258 0.62533,1.29964c0.18927,0.39187 0.55178,0.69201 0.55452,1.19085c0.00269,0.49327 -0.4658,1.08917 -0.74774,1.4218c-0.76865,0.90686 -1.92039,1.2491 -2.70767,2.13406c0,0 -0.20668,0.22762 -0.39666,0.018c-0.18998,-0.20962 0.01669,-0.43726 0.01669,-0.43726c0.79756,-0.86493 1.93906,-1.23362 2.69907,-2.12441c0.13545,-0.15875 0.578,-0.67878 0.57485,-0.96705c-0.00196,-0.1797 -0.26307,-0.52103 -0.31361,-0.60346c-0.30017,-0.48941 -0.49259,-1.05529 -0.77928,-1.55903c-0.55426,-0.871 -0.38866,-2.38475 0.40565,-3.23118c0.31535,-0.33602 0.7178,-0.39296 1.08906,-0.58058c0.33936,-0.17152 0.6372,-0.43284 0.98761,-0.58578c0.52738,-0.23018 1.06342,-0.32138 1.57124,-0.61624l0.27436,-0.34248z" stroke="none"/><path d="M43.24131,237.06676c0,0 -0.78495,4.52734 -1.53249,6.5573c-0.70553,1.91591 -2.98934,5.24296 -2.98934,5.24296l-5.43802,-2.0025c0,0 0.47403,-4.16201 1.19159,-6.11062c0.73737,-2.00241 2.86415,-5.86127 2.86415,-5.86127z" stroke="#000000"/></g><g data-paper-data="{&quot;index&quot;:null}" fill="#000000" stroke-width="1" stroke-linecap="butt"><path d="M49.55594,234.29459c0,0 0.84717,4.5161 0.85642,6.67932c0.00873,2.04169 -0.96795,5.95718 -0.96795,5.95718l-5.79493,0.02479c0,0 -1.01082,-4.06509 -1.0197,-6.1416c-0.00914,-2.13385 0.63453,-6.49273 0.63453,-6.49273z" stroke="#000000"/><path d="M47.5761,234.36177l0.0536,12.54089l-2.20758,0.00942l-0.05365,-12.54086z" stroke="none"/><path d="M47.78083,234.35059c0,0 0.09976,-0.29236 0.35704,-0.17862c0.25728,0.11376 0.15748,0.40614 0.15748,0.40614l-0.18191,0.51876c-0.40741,0.52471 -0.90117,0.82444 -1.36541,1.27192c-0.26813,0.25844 -0.45166,0.60318 -0.7035,0.87655c-0.22564,0.24493 -0.555,0.40482 -0.69947,0.74258c-0.33761,0.78931 -0.04149,1.93561 0.56731,2.3784c0.37171,0.31044 0.68961,0.66334 1.04019,0.99904c0.31431,0.30097 0.75886,0.45547 0.93583,0.92189c0.17497,0.4612 -0.05568,1.18326 -0.20355,1.59346c-0.40316,1.11833 -1.36257,1.84159 -1.79084,2.94595c0,0 -0.11407,0.2855 -0.36535,0.15552c-0.25125,-0.13001 -0.1372,-0.41551 -0.1372,-0.41551c0.44489,-1.08915 1.38547,-1.83361 1.78615,-2.93388c0.07142,-0.19608 0.30425,-0.838 0.20055,-1.10698c-0.06465,-0.16769 -0.4286,-0.3962 -0.50477,-0.45576c-0.4523,-0.35361 -0.83042,-0.81648 -1.27513,-1.18824c-0.82381,-0.6223 -1.19781,-2.09844 -0.74948,-3.16914c0.17801,-0.42506 0.53519,-0.61913 0.81742,-0.92469c0.25799,-0.27935 0.44569,-0.62827 0.72052,-0.89406c0.41366,-0.4 0.88397,-0.67286 1.2567,-1.12665l0.13735,-0.41675z" stroke="none"/><path d="M49.55594,234.29459c0,0 0.84717,4.5161 0.85642,6.67932c0.00873,2.04169 -0.96795,5.95718 -0.96795,5.95718l-5.79493,0.02479c0,0 -1.01082,-4.06509 -1.0197,-6.1416c-0.00914,-2.13385 0.63453,-6.49273 0.63453,-6.49273z" stroke="#000000"/></g><path d="M52.83184,230.47367c-0.07441,8.01734 -5.73948,9.49154 -11.72269,9.43599c-5.9832,-0.05555 -10.01883,-1.61981 -9.9444,-9.63713c0.07443,-8.01731 4.98508,-14.47161 10.96831,-14.41606c5.9832,0.05552 10.77321,6.5999 10.69879,14.6172z" data-paper-data="{&quot;index&quot;:null}" fill="#000000" stroke="#000000" stroke-width="1" stroke-linecap="butt"/><path d="M25.89884,228.89037c0.69444,-0.08637 1.32745,0.40658 1.41384,1.10102c0.08637,0.69445 -0.40654,1.32745 -1.101,1.41382c-0.69443,0.08638 -1.32743,-0.40657 -1.41383,-1.10102c-0.08638,-0.69445 0.40654,-1.32745 1.101,-1.41383z" data-paper-data="{&quot;index&quot;:null}" fill="#000000" stroke="none" stroke-width="0" stroke-linecap="butt"/><g data-paper-data="{&quot;index&quot;:null}" fill="#000000" stroke-width="1" stroke-linecap="butt"><path d="M28.09686,231.42803c0,0 -0.46695,3.6607 -0.99368,5.31633c-0.49716,1.56259 -2.20987,4.31421 -2.20987,4.31421l-4.4352,-1.41108c0,0 0.23056,-3.3564 0.73621,-4.94566c0.51959,-1.63315 2.08716,-4.80581 2.08716,-4.80581z" stroke="#000000"/><path d="M26.56702,230.99075l-3.05371,9.59825l-1.6896,-0.53755l3.05371,-9.59825z" stroke="none"/><path d="M26.72627,231.0327c0,0 0.1484,-0.19884 0.317,-0.04841c0.16857,0.15043 0.02016,0.34927 0.02016,0.34927l-0.26707,0.35161c-0.44087,0.30052 -0.89221,0.40775 -1.35744,0.63519c-0.2687,0.13136 -0.49405,0.34956 -0.75399,0.49636c-0.23288,0.13154 -0.52408,0.17247 -0.71785,0.39495c-0.45281,0.51996 -0.50935,1.46914 -0.15331,1.95781c0.20749,0.32901 0.3634,0.67719 0.54849,1.02026c0.16594,0.3076 0.46762,0.53541 0.48776,0.93555c0.01994,0.39567 -0.33454,0.89064 -0.54878,1.16766c-0.58412,0.75526 -1.49585,1.0713 -2.0957,1.80965c0,0 -0.15764,0.19006 -0.31762,0.02871c-0.15995,-0.16136 -0.00232,-0.35144 -0.00232,-0.35144c0.60879,-0.72264 1.51141,-1.05955 2.08915,-1.80161c0.10298,-0.13225 0.43933,-0.56537 0.42644,-0.79657c-0.00803,-0.14411 -0.22982,-0.40857 -0.27334,-0.47289c-0.25845,-0.38188 -0.43319,-0.82895 -0.68135,-1.22283c-0.47607,-0.6789 -0.39764,-1.89943 0.20922,-2.60711c0.24092,-0.28097 0.56178,-0.34112 0.8529,-0.50502c0.26612,-0.14986 0.49568,-0.3702 0.77133,-0.50553c0.41483,-0.20363 0.84167,-0.29615 1.23851,-0.551l0.20782,-0.28465z" stroke="none"/><path d="M28.09686,231.42803c0,0 -0.46695,3.6607 -0.99368,5.31633c-0.49716,1.56259 -2.20987,4.31421 -2.20987,4.31421l-4.4352,-1.41108c0,0 0.23056,-3.3564 0.73621,-4.94566c0.51959,-1.63315 2.08716,-4.80581 2.08716,-4.80581z" stroke="#000000"/></g><path d="M33.45519,219.97977c0.69446,-0.08638 1.32743,0.40657 1.41383,1.10101c0.08638,0.69445 -0.40654,1.32746 -1.10099,1.41383c-0.69443,0.08638 -1.32744,-0.40658 -1.41384,-1.10102c-0.08638,-0.69445 0.40654,-1.32745 1.101,-1.41383z" data-paper-data="{&quot;index&quot;:null}" fill="#000000" stroke="none" stroke-width="0" stroke-linecap="butt"/><g data-paper-data="{&quot;index&quot;:null}" fill="#000000" stroke-width="1" stroke-linecap="butt"><path d="M35.06544,223.65208c0,0 -1.9925,3.10625 -3.17867,4.37571c-1.11954,1.19812 -3.84723,2.94868 -3.84723,2.94868l-3.40069,-3.17763c0,0 1.64843,-2.93281 2.78708,-4.15138c1.17009,-1.25224 3.94733,-3.44537 3.94733,-3.44537z" stroke="#000000"/><path d="M33.87125,222.60071l-6.8767,7.35949l-1.2955,-1.21052l6.87671,-7.35949z" stroke="none"/><path d="M33.99712,222.70691c0,0 0.21938,-0.11594 0.30709,0.09226c0.08772,0.20821 -0.13165,0.32413 -0.13165,0.32413l-0.39209,0.203c-0.52716,0.08228 -0.98085,-0.01453 -1.49867,-0.00871c-0.29909,0.00336 -0.59627,0.10377 -0.89405,0.12483c-0.26678,0.01887 -0.54737,-0.06911 -0.81788,0.04872c-0.63213,0.27535 -1.09045,1.10846 -0.97852,1.70264c0.04623,0.3862 0.03764,0.76758 0.05765,1.1569c0.01793,0.34904 0.19266,0.68422 0.03916,1.05432c-0.15177,0.36594 -0.68433,0.66095 -0.99672,0.81924c-0.85168,0.43159 -1.81083,0.32582 -2.66947,0.73539c0,0 -0.22394,0.10404 -0.29919,-0.11035c-0.07524,-0.21438 0.14869,-0.31843 0.14869,-0.31843c0.85996,-0.39152 1.81985,-0.30854 2.66009,-0.73092c0.14976,-0.07526 0.63942,-0.32216 0.72698,-0.53653c0.05458,-0.13361 -0.03228,-0.46766 -0.04399,-0.54443c-0.06958,-0.45584 -0.03558,-0.93467 -0.09073,-1.39691c-0.1387,-0.81749 0.45583,-1.88628 1.30764,-2.26513c0.33817,-0.1504 0.65384,-0.06707 0.9871,-0.09019c0.30469,-0.02114 0.60656,-0.12171 0.91363,-0.12565c0.4621,-0.00594 0.8873,0.09365 1.35513,0.03373l0.30984,-0.16793z" stroke="none"/><path d="M35.06544,223.65208c0,0 -1.9925,3.10625 -3.17867,4.37571c-1.11954,1.19812 -3.84723,2.94868 -3.84723,2.94868l-3.40069,-3.17763c0,0 1.64843,-2.93281 2.78708,-4.15138c1.17009,-1.25224 3.94733,-3.44537 3.94733,-3.44537z" stroke="#000000"/></g><g data-paper-data="{&quot;index&quot;:null}" fill="#000000" stroke-linecap="butt"><path d="M31.33657,210.03767c0,0 1.29403,-13.45021 3.03302,-19.72944c1.69226,-6.11054 8.39252,-17.13786 8.39252,-17.13786l19.73949,5.52742c0,0 0.19641,12.45724 -1.46747,18.46525c-1.76293,6.36569 -8.26613,18.87587 -8.26613,18.87587z" stroke="#000000" stroke-width="2"/><path d="M38.55096,211.87184l10.22027,-36.90396l7.51981,2.10568l-10.22026,36.90394z" stroke="none" stroke-width="0"/><path d="M47.83439,215.06587c-0.96831,0.09302 -1.07451,-0.8624 -1.07451,-0.8624l-0.13474,-1.35737c-0.90767,-1.688 -2.29298,-2.93473 -3.38324,-4.50272c-0.72444,-1.04188 -1.08513,-2.24673 -1.74127,-3.3127c-0.71774,-1.16608 -1.78034,-2.07402 -2.04701,-3.49409c-0.67169,-3.57699 1.78498,-7.57474 5.09195,-8.63308c1.81385,-0.67686 3.47355,-1.68505 5.29888,-2.30124c0.30743,-0.10378 1.73133,-0.43456 2.08598,-0.86781c0.56899,-0.69506 0.28874,-2.80565 0.2022,-3.4507c-0.48555,-3.6193 -3.09694,-6.69843 -3.74215,-10.32655c0,0 -0.1604,-0.94868 0.8004,-1.09523c0.96083,-0.14654 1.12125,0.80215 1.12125,0.80215c0.57638,3.65726 3.26893,6.69154 3.74847,10.36645c0.17591,1.34792 0.38439,3.69279 -0.58136,4.8871c-0.97666,1.20785 -2.61618,1.24466 -3.92879,1.83571c-1.46402,0.6592 -2.83053,1.39991 -4.34641,1.96487c-2.43028,0.73178 -4.35752,3.83079 -3.83804,6.47445c0.22229,1.13127 1.21733,1.91244 1.79064,2.84653c0.6399,1.0426 0.98974,2.23123 1.69715,3.24518c1.22476,1.75549 2.6685,3.10345 3.63765,5.0331l0.2051,1.69993c0,0 0.10619,0.95541 -0.86211,1.04845z" stroke="none" stroke-width="0.5"/><path d="M31.33657,210.03767c0,0 1.29403,-13.45021 3.03302,-19.72944c1.69226,-6.11054 8.39252,-17.13786 8.39252,-17.13786l19.73949,5.52742c0,0 0.19641,12.45724 -1.46747,18.46525c-1.76293,6.36569 -8.26613,18.87587 -8.26613,18.87587z" stroke="#000000" stroke-width="2"/></g><g data-paper-data="{&quot;index&quot;:null}" fill="#000000" stroke-linecap="butt"><path d="M45.22202,165.77149c0,0 5.43035,-12.37312 9.04361,-17.79504c3.51619,-5.27627 13.32551,-13.65912 13.32551,-13.65912l17.02546,11.41635c0,0 -3.70432,11.89534 -7.16151,17.08307c-3.66301,5.49657 -13.74829,15.34966 -13.74829,15.34966z" stroke="#000000" stroke-width="2"/><path d="M51.50259,169.76726l21.23558,-31.86544l6.4859,4.3491l-21.23557,31.86542z" stroke="none" stroke-width="0"/><path d="M59.32393,175.70109c-0.94893,-0.21408 -0.75138,-1.15487 -0.75138,-1.15487l0.29596,-1.33155c-0.33503,-1.88704 -1.26163,-3.50409 -1.80758,-5.33417c-0.36278,-1.21603 -0.3291,-2.47326 -0.61948,-3.69084c-0.31761,-1.33192 -1.04346,-2.52633 -0.85324,-3.95864c0.47915,-3.60783 4.06159,-6.63824 7.53368,-6.61074c1.93451,-0.07646 3.82608,-0.51581 5.75256,-0.53105c0.32447,-0.00257 1.78043,0.12795 2.25266,-0.17285c0.75762,-0.48256 1.15061,-2.57509 1.26987,-3.2149c0.6692,-3.58989 -0.84981,-7.33061 -0.32951,-10.97874c0,0 0.14395,-0.95132 1.10245,-0.79044c0.95853,0.1609 0.81461,1.11223 0.81461,1.11223c-0.59477,3.65432 1.01533,7.37778 0.32306,11.01861c-0.2539,1.33542 -0.78825,3.62811 -2.07872,4.46103c-1.30506,0.84236 -2.87405,0.36523 -4.30561,0.51673c-1.59667,0.16894 -3.12617,0.44578 -4.74266,0.50901c-2.53725,-0.06391 -5.33602,2.27812 -5.66827,4.95175c-0.14218,1.14411 0.55909,2.19699 0.81196,3.26341c0.28224,1.19031 0.24333,2.42874 0.59864,3.61292c0.61518,2.05021 1.56566,3.78166 1.88362,5.91747l-0.33613,1.67894c0,0 -0.19754,0.94078 -1.14646,0.72672z" stroke="none" stroke-width="0.5"/><path d="M45.22202,165.77149c0,0 5.43035,-12.37312 9.04361,-17.79504c3.51619,-5.27627 13.32551,-13.65912 13.32551,-13.65912l17.02546,11.41635c0,0 -3.70432,11.89534 -7.16151,17.08307c-3.66301,5.49657 -13.74829,15.34966 -13.74829,15.34966z" stroke="#000000" stroke-width="2"/></g><path d="M77.3332,236.21102c-1.76096,-3.19082 -0.87632,-7.50997 1.9759,-9.64709c2.85223,-2.13711 6.59195,-1.2829 8.35292,1.90792c1.76098,3.19082 0.87633,7.50998 -1.97589,9.6471c-2.85222,2.13711 -6.59195,1.28289 -8.35292,-1.90793z" data-paper-data="{&quot;index&quot;:null}" fill="#000000" stroke="none" stroke-width="0" stroke-linecap="butt"/><path d="M130.65352,236.71102c-1.76097,3.19082 -5.50071,4.04504 -8.35293,1.90793c-2.85222,-2.13712 -3.73686,-6.45628 -1.97589,-9.6471c1.76097,-3.19082 5.5007,-4.04503 8.35293,-1.90792c2.85222,2.13712 3.73687,6.45627 1.9759,9.64709z" fill="#000000" stroke="none" stroke-width="0" stroke-linecap="butt"/><g stroke-linecap="butt"><path d="M118.26249,280.84699c0,0 -2.95053,-16.0356 -3.13745,-23.737c-0.17645,-7.26871 2.55747,-21.25947 2.55747,-21.25947l17.91962,-0.38503c0,0 3.4236,14.4216 3.60305,21.81436c0.1844,7.59686 -1.48711,23.14914 -1.48711,23.14914z" fill="#696969" stroke="#000000" stroke-width="2"/><path d="M124.38058,280.50654l-1.08375,-44.64767l6.82653,-0.14669l1.08374,44.64769z" fill="url(#color-2)" stroke="none" stroke-width="0"/><path d="M122.65704,281.21142c-0.804,-0.39182 -0.51684,-1.43788 -0.51684,-1.43788l0.52464,-1.85636c1.22151,-1.88907 2.7266,-2.9815 4.12952,-4.59841c0.81031,-0.9339 1.35265,-2.17077 2.11149,-3.15698c0.67985,-0.88358 1.68673,-1.46974 2.10881,-2.6797c0.98636,-2.82753 -0.0134,-6.89358 -1.92862,-8.43894c-1.17226,-1.08629 -2.18129,-2.32652 -3.29002,-3.50374c-0.99408,-1.05547 -2.38026,-1.58278 -2.96164,-3.23434c-0.57488,-1.63307 0.08555,-4.2158 0.51283,-5.68383c1.16494,-4.00241 4.07912,-6.6266 5.32272,-10.58041c0,0 0.33185,-1.0224 1.11846,-0.57244c0.78662,0.44996 0.45473,1.47236 0.45473,1.47236c-1.29611,3.90053 -4.15054,6.59938 -5.30911,10.53728c-0.20648,0.70183 -0.87966,2.99907 -0.53919,3.95153c0.21222,0.59368 1.35451,1.38863 1.59447,1.59677c1.42476,1.23577 2.62789,2.86453 4.0304,4.16533c2.59319,2.17344 3.85784,7.40987 2.54976,11.24491c-0.5193,1.52249 -1.60974,2.23163 -2.46017,3.33403c-0.77743,1.00777 -1.33236,2.2597 -2.16291,3.22009c-1.24993,1.44531 -2.6845,2.4409 -3.80396,4.07566l-0.39425,1.49086c0,0 -0.28717,1.04607 -1.09117,0.65425z" fill="#000000" stroke="none" stroke-width="0.5"/><path d="M118.26249,280.84699c0,0 -2.95053,-16.0356 -3.13745,-23.737c-0.17645,-7.26871 2.55747,-21.25947 2.55747,-21.25947l17.91962,-0.38503c0,0 3.4236,14.4216 3.60305,21.81436c0.1844,7.59686 -1.48711,23.14914 -1.48711,23.14914z" fill="#000000" stroke="#000000" stroke-width="2"/></g><path d="M126.71078,253.65917c14.4735,-0.51891 16.09756,1.43943 16.18663,3.9238c0.08907,2.48438 -0.07858,4.50695 -15.86409,5.0729c-15.0358,0.53906 -16.09757,-1.43943 -16.18664,-3.92381c-0.08907,-2.48437 1.20317,-4.54727 15.8641,-5.07289z" fill="#000000" stroke="none" stroke-width="NaN" stroke-linecap="butt"/><path d="M70.06254,216.88331c0,-12.51879 71.95341,-12.51879 71.95341,0c0,12.51879 -29.30401,22.66726 -35.9767,22.66726c-8.87214,0 -35.97671,-10.14847 -35.97671,-22.66726z" fill="#000000" stroke="#000000" stroke-width="2" stroke-linecap="butt"/><path d="M105.33816,113.53097c5.14434,0.112 12.04447,12.52032 22.66349,28.02505c8.10346,11.83179 21.07921,24.95923 21.07921,38.80408c0,31.98755 -19.58427,46.17285 -43.7427,46.17285c-24.15842,0 -43.7427,-14.1853 -43.7427,-46.17285c0,-17.04421 12.75523,-29.28278 23.35545,-42.26678c9.29364,-11.38359 16.27495,-24.65188 20.38725,-24.56235z" fill="#000000" stroke="#000000" stroke-width="2" stroke-linecap="butt"/><path d="M78.46301,141.68379v-5.3774h54.28605v5.3774z" fill="#000000" stroke="none" stroke-width="0" stroke-linecap="butt"/><path d="M104.46254,172.55469l-22.96354,-31.42617l4.34176,-3.17259l22.96354,31.42617z" data-paper-data="{&quot;index&quot;:null}" fill="url(#color-3)" stroke="none" stroke-width="0" stroke-linecap="butt"/><path d="M102.44954,226.0645v-59.30877h6.40166v59.30878z" fill="#000000" stroke="none" stroke-width="0" stroke-linecap="butt"/><path d="M102.06942,172.05848c0.42546,0.86085 -0.43537,1.28631 -0.43537,1.28631l-0.60747,0.24565c-1.5421,1.49929 -2.45123,3.52915 -3.57152,5.3749c-4.09216,6.67029 -13.3328,5.86462 -16.81611,-1.07147c-1.9565,-3.89586 -0.03843,-9.92558 2.18804,-13.22982c3.32004,-5.61304 3.65434,-10.39242 2.02719,-16.606c-0.41391,-1.58061 -1.29884,-4.01206 -2.8013,-5.18193c0.25078,-0.18345 0.36088,-0.45869 0.36088,-0.45869c0.15541,-0.40317 0.35137,-0.79837 0.59517,-1.15782c1.4637,1.06293 2.43283,2.84569 3.12837,4.60371c2.75199,6.9558 2.0688,13.44943 -1.68645,19.82615c-1.92129,2.84623 -3.19856,7.07327 -2.45206,10.58366c0.20817,0.97892 1.00346,1.75502 1.67242,2.41153c1.18652,1.1644 2.43261,2.6543 4.15866,3.03283c3.40995,0.74782 6.3115,-0.95963 7.98349,-3.7486c1.21796,-2.00659 2.20707,-4.08444 3.86313,-5.74422l1.10665,-0.60154c0,0 0.86084,-0.42547 1.28631,0.43538z" fill="#000000" stroke="none" stroke-width="0.5" stroke-linecap="butt"/><path d="M107.42225,168.24433c0.96025,0 0.96025,0.96025 0.96025,0.96025l-0.05034,0.73044c-0.70146,2.0734 -0.95808,4.33937 -1.85998,6.34524c-0.49534,1.10165 -1.97488,2.60787 -1.8412,3.9837c0.13756,1.41584 1.55661,2.68106 2.43386,3.65414c1.97906,2.19522 4.37801,3.89721 6.4162,6.05585c0.4045,1.02394 1.00061,2.05115 0.77979,3.22141c-0.79571,4.21711 -7.0142,6.60819 -10.25655,8.65734c-0.94459,0.59698 -2.28286,0.74607 -2.90374,1.67514c-0.18426,0.2757 0.10879,0.65527 0.19457,0.97559c0.44902,1.6769 0.95969,2.97814 1.93211,4.41761c0.95682,1.41637 1.79976,2.28457 3.22355,3.21902c0,0 0.80181,0.52837 0.27343,1.33018c-0.52839,0.80181 -1.33019,0.27341 -1.33019,0.27341c-1.62502,-1.07478 -2.66678,-2.12914 -3.75863,-3.74825c-0.97773,-1.44987 -3.29094,-5.40476 -2.24716,-7.33719c0.16603,-0.30739 3.13167,-2.13926 3.59006,-2.42895c3.09816,-1.95803 10.61963,-4.65324 8.88412,-9.2217c-2.81008,-2.86182 -8.75164,-6.16873 -9.14814,-10.62306c-0.1656,-1.86041 1.32021,-3.37575 2.01555,-4.91202c0.87399,-1.93096 1.1092,-4.14844 1.78251,-6.15111l-0.05034,-0.11679c0,0 0,-0.96024 0.96025,-0.96024z" fill="#000000" stroke="none" stroke-width="0.5" stroke-linecap="butt"/><path d="M128.33955,138.17086c0.12417,1.00493 -0.88075,1.12909 -0.88075,1.12909l-0.74005,0.07752c-2.69957,0.80026 -4.65772,2.12964 -6.89942,3.84016c-0.0494,0.0377 -2.15277,1.43377 -2.01738,2.05717c0.07,0.32235 0.63533,0.19851 0.91916,0.36658c0.58085,0.34394 1.11054,0.76783 1.65967,1.16043c2.35288,1.68222 5.3881,1.18683 8.25659,1.32686c0.83939,0.08553 1.76493,-0.12358 2.51815,0.2566c0.52094,0.26293 0.6401,0.97674 0.9294,1.48351c0.61942,1.08506 3.15846,4.88433 2.91873,6.05343c-0.17919,0.87382 -1.26011,1.26413 -1.9238,1.8601c-1.30142,1.16864 -3.35899,3.2804 -4.94502,3.976c-2.41434,1.05888 -7.38847,1.15618 -9.9366,0.64273c-1.50909,-0.30408 -2.89796,-1.04737 -4.34503,-1.61738c-1.06615,1.46845 -2.36201,2.72387 -4.01232,3.50055c-0.11124,0.2327 -0.47154,0.80332 -1.24373,0.54292c-0.95947,-0.32356 -0.63592,-1.28304 -0.63592,-1.28304l0.70013,-0.95308c1.31133,-0.50396 2.34992,-1.42135 3.2198,-2.52347c-0.235,-0.17785 -0.45913,-0.49249 -0.32844,-1.02133c0.24293,-0.98299 1.22591,-0.74006 1.22591,-0.74006c0.08473,0.02103 0.16957,0.04253 0.25451,0.06449c0.61811,-1.03697 1.15159,-2.12714 1.6632,-3.1325c-0.2859,-1.94417 -2.34901,-1.60067 -3.98814,-1.6369c-0.69497,-0.01536 -1.44754,0.01547 -2.23131,0.0644c1.34329,2.27693 2.47767,4.57064 1.3621,7.05519c-0.56185,1.25134 -0.92632,1.44122 -1.87381,2.37927l-0.99759,0.62392c0,0 -0.86142,0.53219 -1.39362,-0.32924c-0.5322,-0.86142 0.32924,-1.39362 0.32924,-1.39362l0.80993,-0.49277c2.46381,-2.43009 1.1546,-5.0344 -0.40208,-7.68759c-2.24815,0.16157 -4.55262,0.26963 -6.36555,-0.25788c-2.71835,-0.79098 -1.38719,-3.70086 -0.93255,-5.5712c1.00423,-4.13124 2.23925,-7.4823 6.06531,-9.68669c0.53858,-0.30603 1.38144,-0.72849 2.27097,-1.238c0.39249,-0.86032 0.85145,-1.69379 1.4276,-2.49052c0.45835,-0.63381 1.26222,-1.01113 1.06239,-1.94222c-0.59434,-2.76922 -3.99331,-5.11715 -5.31531,-7.60081c-1.87231,-3.51752 0.35744,-6.72835 -0.64616,-10.25507c0,0 -0.26929,-0.97609 0.7068,-1.24539c0.29237,-0.08066 0.52132,-0.04959 0.69862,0.03351c0.16823,-0.24889 0.48139,-0.50488 1.0354,-0.38034c0.98791,0.22209 0.76583,1.21 0.76583,1.21c-0.7529,3.33919 -1.43309,7.06025 -0.05761,10.37486c1.31552,3.17011 8.14445,5.68563 5.85339,10.06095c-0.37464,0.71547 -1.03399,1.24824 -1.63338,1.78953c-0.52501,0.4741 -1.14736,0.82779 -1.7219,1.24047c-0.163,0.11709 -0.32702,0.23282 -0.492,0.34721c-0.53378,1.20592 -0.9012,2.4646 -1.32995,3.72789c-1.0786,2.00366 -2.24776,4.14016 -1.74861,6.51958c0.21987,1.04806 0.70477,2.07331 1.27391,3.09117c2.89249,-0.14291 7.94672,-0.67667 9.14584,1.91942c0.29098,0.62998 0.21815,1.37061 0.32722,2.05591c-0.49879,1.1322 -1.04308,2.3032 -1.6758,3.42154c3.97701,1.22704 8.13661,2.78319 12.29594,0.95899c1.58141,-0.69358 3.06055,-2.68733 4.48035,-3.69231c0.38168,-0.27016 1.12406,-0.23792 1.218,-0.696c0.09393,-0.45808 -0.60123,-0.72062 -0.84578,-1.11919c-1.2627,-2.05799 -1.13608,-4.34158 -3.6354,-4.24483c-2.04891,-0.10002 -5.51913,0.4079 -7.406,-0.4012c-0.14593,-0.06258 -3.32515,-2.25633 -3.57194,-2.44913c-0.59121,-0.46187 -1.57493,-0.72983 -1.70556,-1.4686c-0.3711,-2.09866 1.45309,-3.21142 2.72111,-4.21352c2.39698,-1.8943 4.64267,-3.31557 7.56676,-4.18301l1.06747,-0.14581c0,0 1.00493,-0.12417 1.1291,0.88075zM106.08,140.06508c-3.30356,1.85344 -4.24066,4.86434 -5.10058,8.41066c-0.20312,0.83766 -0.82703,2.22849 -0.75673,3.09928c0.0543,0.67266 1.34976,0.00822 2.02458,0.00133c0.92334,-0.00942 1.84675,-0.00596 2.77016,-0.00283c-0.47209,-0.88981 -0.8616,-1.78114 -1.03814,-2.66935c-0.56675,-2.8514 0.55111,-5.34209 1.86639,-7.7743c0.12932,-0.38626 0.25678,-0.77042 0.38617,-1.15176c-0.05057,0.0291 -0.10118,0.05809 -0.15185,0.08697z" fill="#000000" stroke="none" stroke-width="0.5" stroke-linecap="butt"/><g fill="#000000"><path d="M91.63074,178.0568v-26.11876h27.20704v26.11876z" stroke="none" stroke-width="0" stroke-linecap="butt"/><g stroke="#000000"><path d="M105.13224,153.78286c5.81241,0 10.52432,4.71191 10.52432,10.52433c0,5.81241 -4.71191,10.52432 -10.52432,10.52432c-5.81241,0 -10.52432,-4.71192 -10.52432,-10.52432c0,-5.81241 4.71192,-10.52433 10.52432,-10.52433z" stroke-width="1" stroke-linecap="butt"/><path d="M97.08563,157.92427l16.24192,-0.10975" stroke-width="1.5" stroke-linecap="round"/><path d="M114.7542,160.77758l-18.98548,-0.10974" stroke-width="1.5" stroke-linecap="round"/><path d="M94.78103,162.9724l20.30239,0.43897" stroke-width="1.5" stroke-linecap="round"/><path d="M115.45837,165.55138l-20.63162,-0.21948" stroke-width="1.5" stroke-linecap="round"/><path d="M110.06059,155.40103l-9.45475,-0.11819" stroke-width="1.5" stroke-linecap="round"/><path d="M113.19951,170.86629l-16.24191,-0.10975" data-paper-data="{&quot;index&quot;:null}" stroke-width="1.5" stroke-linecap="round"/><path d="M114.62617,167.90325l-18.98548,0.10974" data-paper-data="{&quot;index&quot;:null}" stroke-width="1.5" stroke-linecap="round"/><path d="M100.47779,173.39799l9.45476,-0.11818" data-paper-data="{&quot;index&quot;:null}" stroke-width="1.5" stroke-linecap="round"/></g></g><path d="M105.74318,114.74605c-0.91532,0.07961 -0.65524,18.52325 -0.19498,40.48608c-0.05937,-0.00102 -0.11888,-0.00154 -0.17849,-0.00154c-5.59223,0 -10.12563,4.5334 -10.12563,10.12563c0,5.59223 4.5334,10.12562 10.12563,10.12562c0.20772,0 0.41397,-0.00625 0.61859,-0.01858c0.58249,26.8786 1.03757,52.47776 -0.24511,52.28478c-23.88957,-3.59417 -43.7427,-14.1853 -43.7427,-46.17285c0,-16.72645 10.7687,-27.80528 21.14326,-40.72545c9.46568,-11.78827 18.39969,-26.19511 22.59944,-26.10368z" fill="#000000" stroke="#000000" stroke-width="2" stroke-linecap="butt"/><path d="M149.90503,181.57517c0,31.98755 -19.85314,42.57868 -43.7427,46.17285c-1.28268,0.19298 -0.8276,-25.40617 -0.24511,-52.28477c0.20462,0.01233 0.41088,0.01859 0.61859,0.01859c5.59223,0 10.12563,-4.5334 10.12563,-10.12563c0,-5.59223 -4.5334,-10.12563 -10.12563,-10.12563c-0.05962,0 -0.11912,0.00052 -0.17849,0.00154c0.46024,-21.96283 0.72033,-40.40647 -0.19498,-40.48608c4.58938,-0.09992 9.80282,12.20996 19.94572,25.83586c9.31189,12.50951 23.79698,25.68268 23.79698,40.99327z" data-paper-data="{&quot;index&quot;:null}" fill="#000000" stroke="#000000" stroke-width="2" stroke-linecap="butt"/><path d="M101.97391,126.06747v-8.50552h9.7206v8.50552z" fill="url(#color-4)" stroke="none" stroke-width="0" stroke-linecap="butt"/><path d="M97.22208,119.26945v-3.83871h18.7337v3.83871z" fill="url(#color-5)" stroke="none" stroke-width="0" stroke-linecap="butt"/><path d="M135.92197,138.57018c0,2.20405 -1.78673,3.99077 -3.99076,3.99077c-2.20403,0 -3.99077,-1.78674 -3.99077,-3.99077c0,-2.20404 1.78672,-3.99076 3.99077,-3.99076c2.20403,0 3.99076,1.78672 3.99076,3.99076z" fill="#000000" stroke="none" stroke-width="0" stroke-linecap="butt"/><path d="M76.34171,134.48872c2.20404,0 3.99077,1.78672 3.99077,3.99076c0,2.20403 -1.78673,3.99077 -3.99077,3.99077c-2.20403,0 -3.99076,-1.78672 -3.99076,-3.99077c0,-2.20404 1.78673,-3.99076 3.99076,-3.99076z" data-paper-data="{&quot;index&quot;:null}" fill="#000000" stroke="none" stroke-width="0" stroke-linecap="butt"/><path d="M105.53001,133.58426c4.80583,0 5.5717,40.81559 8.70173,61.87594c0.38552,2.59397 -3.89589,15.22804 -8.70173,15.22804c-4.80583,0 -8.70173,-8.58612 -8.31621,-16.57736c1.02597,-21.26694 3.51037,-60.52662 8.31621,-60.52662z" fill="#000000" stroke="#000000" stroke-width="1" stroke-linecap="butt"/><path d="M117.13116,53.20658c-4.35615,5.95937 -8.91959,10.03597 -10.19273,9.10534c-1.27314,-0.93063 1.22613,-6.51608 5.58228,-12.47545c4.35615,-5.95937 13.13765,-6.95267 14.41079,-6.02204c1.27314,0.93063 -5.44419,3.43278 -9.80034,9.39215z" fill="#000000" stroke="#000000" stroke-width="1" stroke-linecap="butt"/><path d="M109.0718,48.93929c0.75959,7.34255 0.10375,13.42642 -1.4649,13.5887c-1.56864,0.16228 -3.45605,-5.65848 -4.21564,-13.00104c-0.75959,-7.34256 5.09334,-13.96407 6.66198,-14.12635c1.56864,-0.16228 -1.74104,6.19614 -0.98145,13.53869z" fill="#000000" stroke="#000000" stroke-width="1" stroke-linecap="butt"/><path d="M102.14469,49.24623c4.46558,5.87781 7.0677,11.41611 5.81198,12.37011c-1.25572,0.95401 -5.89375,-3.03752 -10.35933,-8.91533c-4.46558,-5.87781 -2.90736,-14.57686 -1.65165,-15.53087c1.25572,-0.95401 1.73341,6.19828 6.19899,12.07609z" fill="#000000" stroke="#000000" stroke-width="1" stroke-linecap="butt"/><path d="M69.06624,97.19249c0,-18.4409 25.49745,-39.55366 37.55953,-39.82688c11.36543,0.00438 35.89022,21.38599 35.89022,39.82688c0,18.44091 -16.44229,33.39022 -36.72487,33.39022c-20.28258,0 -36.72487,-14.94931 -36.72487,-33.39021z" data-paper-data="{&quot;index&quot;:null}" fill="#696969" stroke="#000000" stroke-width="2" stroke-linecap="butt"/><path d="M113.20276,121.74168l0.10943,-18.3026l2.82448,0.0169l-0.10942,18.3026z" fill="url(#color-6)" stroke="none" stroke-width="0" stroke-linecap="butt"/><path d="M95.63363,121.96221l0.10943,-18.3026l2.82448,0.01689l-0.10943,18.30261z" fill="url(#color-7)" stroke="none" stroke-width="0" stroke-linecap="butt"/><path d="M100.66559,96.92554c0.01529,0.4408 -0.42552,0.4561 -0.42552,0.4561l-0.30499,0.01055c-2.15883,0.09349 -4.53312,0.2342 -5.96261,2.07676c-1.47856,1.85961 -3.38828,1.36508 -4.9342,2.7793c-0.5851,0.53526 -0.92857,1.96408 -1.63016,2.4509c0.33934,0.96458 1.15129,1.61905 2.59991,1.4703c0.05285,-0.00543 1.21365,-0.24044 1.3469,-0.3509c0.66736,-0.55321 0.98127,-3.15974 1.69584,-4.10697c1.06234,-0.53423 2.02781,-0.36664 3.14122,-0.64094c1.57122,-0.38711 2.67954,-1.53254 3.86214,-2.54573l0.30938,-0.27309c0,0 0.3307,-0.29184 0.62255,0.03887c0.29185,0.33071 -0.03886,0.62256 -0.03886,0.62256l-0.31916,0.28157c-1.30482,1.11783 -2.51529,2.30538 -4.24383,2.73676c-0.92684,0.23131 -1.88614,0.03276 -2.76379,0.45353c-0.71883,1.05825 -0.80511,3.27315 -1.62574,4.04077c-1.12267,1.05014 -4.11804,1.02246 -4.89199,-0.33971c-0.21923,-0.38586 -0.39096,-0.77196 -0.51712,-1.15721c-1.9255,0.17391 -3.10404,-1.52271 -4.06103,-2.92822c-0.15515,-0.22786 -1.07823,-1.54301 -1.06887,-1.72875c0.00936,-0.18574 1.05998,-1.40144 1.23725,-1.61255c0.12161,-0.14484 1.16866,-1.40599 1.26649,-1.4576c0.97317,-0.51337 2.54644,0.14136 3.48929,-0.33461c1.05491,-0.53254 1.8746,-3.25998 2.64202,-4.20027c1.13407,-1.38953 3.03624,-1.70343 4.60522,-2.39275c0,0 0.40382,-0.17741 0.58122,0.22641c0.01149,0.02616 0.02056,0.05136 0.02743,0.07564c0.05649,-0.00902 0.1123,-0.01841 0.16735,-0.02832c0,0 0.43411,-0.07803 0.51213,0.35609c0.07801,0.43411 -0.35609,0.51213 -0.35609,0.51213c-1.03456,0.18587 -2.82728,0.11189 -3.56468,1.01413c-1.56657,1.91674 0.33707,4.86776 -1.29272,6.63176c-0.65749,0.71164 -1.81552,1.03341 -2.6807,1.4335c-0.57303,0.90063 -0.90975,2.09221 -0.86972,3.15255c0.52101,-0.72276 1.32295,-2.35209 1.90951,-2.65767c1.7416,-0.90734 2.83919,-0.41601 4.15207,-2.07017c1.6542,-2.04264 4.14912,-2.30257 6.61515,-2.40936l0.31259,-0.01086c0,0 0.4408,-0.01529 0.45608,0.42551zM87.90456,97.62246c-1.89542,1.03347 -2.97893,-0.2502 -4.53607,1.60425c-0.32167,0.38308 -1.0066,0.5901 -1.03179,1.08967c-0.02517,0.49958 0.63549,0.77442 0.91702,1.18789c0.86472,1.27 1.5186,2.45656 3.11629,2.50687c-0.20552,-1.43676 0.20812,-2.84926 1.13939,-4.17981c0.79074,-0.40894 1.98492,-0.72178 2.60922,-1.36348c1.15689,-1.18917 0.29617,-3.40824 0.63385,-5.21583c-0.8771,1.11716 -1.59953,3.68977 -2.84792,4.37045z" fill="#000000" stroke="none" stroke-width="0.5" stroke-linecap="butt"/><path d="M109.11054,95.91194l0.31258,0.01086c2.46603,0.1068 4.96095,0.36671 6.61515,2.40935c1.3129,1.65417 2.41048,1.16286 4.15207,2.07018c0.58657,0.30558 1.3885,1.93489 1.90951,2.65766c0.04003,-1.06034 -0.2967,-2.25191 -0.86973,-3.15255c-0.86518,-0.40009 -2.0232,-0.72186 -2.68069,-1.4335c-1.62979,-1.76399 0.27384,-4.715 -1.29273,-6.63174c-0.7374,-0.90224 -2.53012,-0.82827 -3.56468,-1.01414c0,0 -0.43412,-0.07802 -0.35609,-0.51213c0.07801,-0.43411 0.51214,-0.35609 0.51214,-0.35609c0.05505,0.0099 0.11086,0.01931 0.16735,0.02832c0.00688,-0.02428 0.01593,-0.04947 0.02742,-0.07564c0.17741,-0.40381 0.58122,-0.22641 0.58122,-0.22641c1.56898,0.68931 3.47115,1.00321 4.60522,2.39275c0.76742,0.9403 1.58711,3.66773 2.64202,4.20027c0.94285,0.47598 2.51612,-0.17876 3.48929,0.33461c0.09784,0.05161 1.14489,1.31276 1.2665,1.4576c0.17726,0.21111 1.22788,1.42681 1.23724,1.61255c0.00936,0.18574 -0.91372,1.50088 -1.06887,1.72875c-0.95699,1.40552 -2.13554,3.10213 -4.06104,2.92822c-0.12615,0.38524 -0.29788,0.77135 -0.51711,1.15721c-0.77395,1.36219 -3.76933,1.38985 -4.89199,0.33971c-0.82063,-0.76762 -0.9069,-2.98252 -1.62574,-4.04077c-0.87764,-0.42077 -1.83695,-0.22222 -2.76379,-0.45353c-1.72853,-0.43138 -2.93899,-1.61893 -4.24383,-2.73677l-0.31914,-0.28158c0,0 -0.33071,-0.29184 -0.03886,-0.62255c0.29185,-0.33071 0.62255,-0.03887 0.62255,-0.03887l0.30938,0.27309c1.18261,1.01319 2.29093,2.15863 3.86214,2.54573c1.11341,0.27432 2.07889,0.10671 3.14122,0.64094c0.71457,0.94723 1.02848,3.55377 1.69584,4.10697c0.13326,0.11046 1.29406,0.34547 1.3469,0.3509c1.44862,0.14875 2.26056,-0.50573 2.5999,-1.4703c-0.70159,-0.48682 -1.04505,-1.91565 -1.63015,-2.45089c-1.54592,-1.41422 -3.45563,-0.9197 -4.9342,-2.77931c-1.42949,-1.84256 -3.80379,-1.98327 -5.96262,-2.07676l-0.30498,-0.01056c0,0 -0.4408,-0.01529 -0.42552,-0.45609c0.01529,-0.4408 0.45609,-0.42551 0.45609,-0.42551zM118.56756,92.66393c0.33768,1.8076 -0.52303,4.02666 0.63386,5.21582c0.6243,0.64171 1.81848,0.95454 2.60922,1.36348c0.93126,1.33055 1.3449,2.74308 1.13939,4.17983c1.59769,-0.05031 2.25156,-1.23689 3.11629,-2.50688c0.28152,-0.41348 0.9422,-0.6883 0.91702,-1.18789c-0.02517,-0.49958 -0.71012,-0.7066 -1.03179,-1.08969c-1.55714,-1.85443 -2.64064,-0.57077 -4.53606,-1.60424c-1.24838,-0.68068 -1.97082,-3.25328 -2.84792,-4.37044z" data-paper-data="{&quot;index&quot;:null}" fill="#000000" stroke="none" stroke-width="0.5" stroke-linecap="butt"/><path d="M96.62079,94.18498v-7.56974h16.15629v7.56974z" fill="url(#color-8)" stroke="#000000" stroke-width="0" stroke-linecap="butt"/><path d="M98.76743,105.99034v-14.57456h14.83749v14.57456z" fill="url(#color-9)" stroke="none" stroke-width="0" stroke-linecap="butt"/><path d="M98.29567,105.72266l-4.39687,-17.76695l2.74181,-0.67853l4.39688,17.76696z" fill="url(#color-10)" stroke="none" stroke-width="0" stroke-linecap="butt"/><path d="M111.44241,105.60905l4.39688,-17.76696l2.74181,0.67853l-4.39688,17.76697z" data-paper-data="{&quot;index&quot;:null}" fill="url(#color-11)" stroke="none" stroke-width="0" stroke-linecap="butt"/><path d="M122.60796,88.38738c0,3.19477 -2.67081,5.78462 -5.96541,5.78462c-3.29461,0 -5.96539,-2.58986 -5.96539,-5.78462c0,-3.19477 2.67079,-5.78464 5.96539,-5.78464c3.2946,0 5.96541,2.58988 5.96541,5.78464z" data-paper-data="{&quot;index&quot;:null}" fill="#ffffff" stroke="#000000" stroke-width="2" stroke-linecap="butt"/><path d="M119.53489,88.19604c0,1.69137 -1.31517,3.06251 -2.93752,3.06251c-1.62234,0 -2.93751,-1.37113 -2.93751,-3.06251c0,-1.69137 1.31517,-3.06252 2.93751,-3.06252c1.62234,0 2.93752,1.37114 2.93752,3.06252z" data-paper-data="{&quot;index&quot;:null}" fill="#000000" stroke="none" stroke-width="0" stroke-linecap="butt"/><path d="M95.49097,106.7812v-4.1803h21.06232v4.1803z" fill="url(#color-12)" stroke="none" stroke-width="0" stroke-linecap="butt"/><path d="M96.99343,82.4521c3.29461,0 5.9654,2.58987 5.9654,5.78463c0,3.19477 -2.67081,5.78463 -5.9654,5.78463c-3.29461,0 -5.96541,-2.58987 -5.96541,-5.78463c0,-3.19477 2.67079,-5.78463 5.96541,-5.78463z" fill="#ffffff" stroke="#000000" stroke-width="2" stroke-linecap="butt"/><path d="M97.03862,84.98288c1.62233,0 2.93751,1.37113 2.93751,3.06251c0,1.69137 -1.31518,3.06251 -2.93751,3.06251c-1.62233,0 -2.93751,-1.37114 -2.93751,-3.06251c0,-1.69137 1.31516,-3.06251 2.93751,-3.06251z" fill="#000000" stroke="none" stroke-width="0" stroke-linecap="butt"/><path d="M97.06351,81.69722c3.29906,0.0615 5.89031,1.61923 5.78774,3.47926c-0.05186,0.94029 -2.69194,-1.40019 -5.71072,-1.46686c-2.95283,-0.06521 -6.28695,2.16388 -6.23623,1.24414c0.10258,-1.86003 2.86014,-3.31803 6.15921,-3.25652z" fill="#e000ff" stroke="#000000" stroke-width="1" stroke-linecap="butt"/><path d="M116.91147,82.40281c3.29906,0.05785 5.89032,1.52281 5.78775,3.27208c-0.05186,0.8843 -2.69195,-1.31681 -5.71073,-1.37951c-2.95283,-0.06133 -6.28695,2.03503 -6.23623,1.17005c0.10258,-1.74928 2.86014,-3.12045 6.1592,-3.06261z" fill="#e000ff" stroke="#000000" stroke-width="1" stroke-linecap="butt"/><path d="M99.35524,118.58556c0.26506,0 6.11333,-0.01559 6.37025,-0.0459c-0.17319,7.31911 -0.43554,12.26358 -0.81649,12.26358c-18.06871,0 -32.97581,-12.76739 -35.13338,-29.25903c0.01412,0.01732 0.02826,0.03463 0.04243,0.05192c2.12443,2.59176 4.42941,5.20929 11.72681,9.03713c7.35982,2.22254 12.62951,2.27106 16.19509,2.21693c-0.02396,3.09334 0.36929,5.73537 1.6153,5.73537z" data-paper-data="{&quot;index&quot;:null}" fill="#000000" stroke="#000000" stroke-width="2" stroke-linecap="butt"/><path d="M114.1491,112.8502c3.56558,0.05413 8.83526,0.00561 16.19508,-2.21693c7.29741,-3.82784 9.60239,-6.44537 11.72681,-9.03713c0.01418,-0.0173 0.02832,-0.0346 0.04243,-0.05192c-2.15757,16.49164 -17.06466,29.25903 -35.13338,29.25903c-0.38095,0 -0.64331,-4.94447 -0.8165,-12.26358c0.25692,0.03031 6.10519,0.0459 6.37025,0.0459c1.24601,0 1.63926,-2.64203 1.6153,-5.73537z" data-paper-data="{&quot;index&quot;:null}" fill="#000000" stroke="#000000" stroke-width="2" stroke-linecap="butt"/><g stroke-linecap="butt"><path d="M106.41301,105.61891c22.48318,0.07927 3.32687,24.58943 0,24.58943c-3.49641,0 -25.20512,-24.67829 0,-24.58943z" fill="#000000" stroke="#000000" stroke-width="2"/><path d="M106.31036,106.72151c15.02247,0.05296 2.22289,16.42978 0,16.42978c-2.33618,0 -16.84116,-16.48916 0,-16.42978z" fill="#ffffff" stroke="#ffffff" stroke-width="1"/></g><g stroke="#000000" stroke-linecap="butt"><path d="M69.72784,97.19249c0,-18.4409 24.57878,-39.55366 36.20626,-39.82688c0.22382,-0.13063 0.41945,26.63786 0.21517,47.84052c-0.32189,-0.04813 -0.65136,-0.07308 -0.98667,-0.07308c-3.55505,0 -10.51757,0.06757 -10.58665,6.9094c-3.48771,0.06166 -3.48971,0.31254 -13.27162,-2.51574c-8.50101,-2.90054 -11.57647,-12.04615 -11.57647,-12.33422zM97.24419,94.768c3.65391,0 6.61599,-2.96209 6.61599,-6.61599c0,-3.6539 -2.96209,-6.61598 -6.61599,-6.61598c-3.65391,0 -6.61598,2.96208 -6.61598,6.61598c0,3.6539 2.96208,6.61599 6.61598,6.61599z" data-paper-data="{&quot;index&quot;:null}" fill="#000000" stroke-width="2"/><path d="M90.57821,88.15201c0,-3.6539 3.01207,-6.66598 6.66598,-6.66598c3.6539,0 6.66599,3.01208 6.66599,6.66598c0,3.6539 -3.01208,6.66599 -6.66599,6.66599c-3.6539,0 -6.66598,-3.01209 -6.66598,-6.66599z" data-paper-data="{&quot;noHover&quot;:false,&quot;origItem&quot;:[&quot;Path&quot;,{&quot;applyMatrix&quot;:true,&quot;segments&quot;:[[[466.48838,159.536],[-7.3078,0],[7.30782,0]],[[479.72036,146.30402],[0,7.3078],[0,-7.3078]],[[466.48838,133.07206],[7.3078,0],[-7.30782,0]],[[453.25642,146.30402],[0,-7.3078],[0,7.3078]]],&quot;closed&quot;:true,&quot;fillColor&quot;:[1,0.89412,0],&quot;strokeColor&quot;:[0,0,0],&quot;strokeWidth&quot;:2}]}" fill="#ffffff" stroke-width="1"/><path d="M105.62793,92.63624c0.87604,0 1.9346,23.73619 0,23.73619c-3.25447,0 -3.91647,-6.50309 -5.90521,-8.73545c-1.6731,-1.87805 -4.94502,-1.63353 -4.94502,-4.32695c0,-5.89497 4.85782,-10.67379 10.85023,-10.67379z" fill="#000000" stroke-width="2"/></g><g data-paper-data="{&quot;index&quot;:null}" stroke="#000000" stroke-linecap="butt"><path d="M142.98562,97.41302c0,0.28807 -3.05745,9.43368 -11.50867,12.33423c-9.72461,2.82828 -10.60357,3.45952 -14.07085,3.39786c-0.06867,-6.84182 -6.11346,-7.79153 -9.64768,-7.79153c-0.33333,0 -0.66088,0.02495 -0.98089,0.07308c-0.20309,-21.20266 -0.0086,-47.97115 0.21391,-47.84052c11.55937,0.27322 35.99418,21.38598 35.99418,39.82688zM123.3039,88.15201c0,-3.6539 -2.94473,-6.61598 -6.57724,-6.61598c-3.6325,0 -6.57724,2.96208 -6.57724,6.61598c0,3.6539 2.94473,6.61599 6.57724,6.61599c3.6325,0 6.57724,-2.96209 6.57724,-6.61599z" data-paper-data="{&quot;index&quot;:null}" fill="#000000" stroke-width="2"/><path d="M116.72666,94.818c-3.63251,0 -6.62724,-3.01209 -6.62724,-6.66599c0,-3.6539 2.99474,-6.66598 6.62724,-6.66598c3.63251,0 6.62724,3.01208 6.62724,6.66598c0,3.6539 -2.99474,6.66599 -6.62724,6.66599z" data-paper-data="{&quot;noHover&quot;:false,&quot;origItem&quot;:[&quot;Path&quot;,{&quot;applyMatrix&quot;:true,&quot;segments&quot;:[[[518.6078,146.30402],[0,7.3078],[0,-7.3078]],[[505.45332,133.07206],[7.26502,0],[-7.265,0]],[[492.29884,146.30402],[0,-7.3078],[0,7.3078]],[[505.45332,159.536],[-7.26502,0],[7.265,0]]],&quot;closed&quot;:true,&quot;fillColor&quot;:[1,0.89412,0],&quot;strokeColor&quot;:[0,0,0],&quot;strokeWidth&quot;:2}]}" fill="#ffffff" stroke-width="1"/><path d="M117.42476,103.91003c0,2.69342 -3.44221,2.4489 -5.1055,4.32695c-1.97708,2.23236 -2.04575,8.13545 -5.28116,8.13545c-1.92327,0 -1.27092,-23.73619 -0.4,-23.73619c5.95731,0 10.78666,5.37882 10.78666,11.27379z" fill="#000000" stroke-width="2"/></g><path d="M75.19413,334.6394c-1.63614,-2.44074 -1.22557,-5.97155 0.91706,-7.88632c2.14262,-1.91477 5.2059,-1.4884 6.84205,0.95234c1.63615,2.44074 1.22558,5.97156 -0.91705,7.88633c-2.14262,1.91477 -5.2059,1.4884 -6.84205,-0.95234z" data-paper-data="{&quot;index&quot;:null}" fill="#000000" stroke="none" stroke-width="0" stroke-linecap="butt"/><g data-paper-data="{&quot;index&quot;:null}" fill="#000000" stroke="#000000" stroke-width="2" stroke-linecap="butt"><path d="M75.32224,332.81319c10.73258,0 19.43307,4.9346 19.43307,11.02173c0,6.08713 -8.70047,11.02173 -19.43306,11.02173c-10.73258,0 -19.87767,3.38486 -19.43305,-11.02173c0.43836,-14.20348 8.70048,-11.02173 19.43305,-11.02173z"/><path d="M45.83428,332.61985c6.62108,0 11.98854,5.02116 11.98854,11.21509c0,6.19394 -5.36744,11.2151 -11.98854,11.2151c-6.62108,0 -11.98855,-5.02117 -11.98855,-11.2151c0,-6.19393 5.36745,-11.21509 11.98855,-11.21509z" data-paper-data="{&quot;index&quot;:null}"/><path d="M54.14892,332.61982c6.6211,0 11.98856,5.15102 11.98856,11.50513c0,6.35412 -5.36746,11.50515 -11.98856,11.50515c-6.62109,0 -11.98856,-5.15104 -11.98856,-11.50515c0,-6.35411 5.36746,-11.50513 11.98856,-11.50513z" data-paper-data="{&quot;index&quot;:null}"/><path d="M64.20383,332.61982c6.62108,0 11.98855,5.15102 11.98855,11.50513c0,6.35412 -5.36745,11.50515 -11.98855,11.50515c-6.62108,0 -11.98854,-5.15104 -11.98854,-11.50515c0,-6.35411 5.36744,-11.50513 11.98854,-11.50513z" data-paper-data="{&quot;index&quot;:null}"/></g><path d="M76.73222,285.34834c-1.76097,-3.19082 -0.87632,-7.50997 1.9759,-9.64709c2.85223,-2.13711 6.59196,-1.2829 8.35293,1.90792c1.76097,3.19082 0.87633,7.50998 -1.97589,9.6471c-2.85222,2.13711 -6.59196,1.28289 -8.35293,-1.90793z" data-paper-data="{&quot;index&quot;:null}" fill="#000000" stroke="none" stroke-width="0" stroke-linecap="butt"/><g data-paper-data="{&quot;index&quot;:null}" stroke-linecap="butt"><path d="M69.66769,329.0663c0,0 -1.67151,-15.55228 -1.48711,-23.14913c0.17944,-7.39276 3.60305,-21.81436 3.60305,-21.81436l17.91962,0.38502c0,0 2.73392,13.99077 2.55747,21.25948c-0.18693,7.70141 -3.13745,23.737 -3.13745,23.737z" fill="#696969" stroke="#000000" stroke-width="2"/><path d="M76.17866,328.99719l1.08375,-44.64769l6.82653,0.14669l-1.08375,44.64767z" fill="url(#color-13)" stroke="none" stroke-width="0"/><path d="M84.72876,329.84878c-0.804,0.39182 -1.09117,-0.65425 -1.09117,-0.65425l-0.39425,-1.49086c-1.11946,-1.63475 -2.55404,-2.63034 -3.80397,-4.07566c-0.83055,-0.96039 -1.38548,-2.21231 -2.16291,-3.22008c-0.85043,-1.1024 -1.94087,-1.81155 -2.46017,-3.33404c-1.30809,-3.83504 -0.04344,-9.07148 2.54976,-11.24491c1.40251,-1.3008 2.60565,-2.92956 4.03041,-4.16533c0.23996,-0.20814 1.38226,-1.00308 1.59447,-1.59677c0.34047,-0.95247 -0.33271,-3.2497 -0.53919,-3.95153c-1.15858,-3.9379 -4.01301,-6.63674 -5.30912,-10.53728c0,0 -0.33188,-1.0224 0.45473,-1.47236c0.78661,-0.44996 1.11846,0.57243 1.11846,0.57243c1.24359,3.95382 4.15778,6.57801 5.32272,10.58042c0.42729,1.46803 1.08772,4.05076 0.51283,5.68383c-0.58138,1.65156 -1.96756,2.17887 -2.96164,3.23434c-1.10873,1.17722 -2.11775,2.41746 -3.29002,3.50374c-1.91522,1.54536 -2.91498,5.61141 -1.92862,8.43894c0.42208,1.20995 1.42896,1.79612 2.10881,2.67969c0.75884,0.98622 1.30119,2.22308 2.11149,3.15699c1.40292,1.61691 2.90801,2.70934 4.12952,4.59841l0.52464,1.85636c0,0 0.28717,1.04606 -0.51683,1.43788z" fill="#000000" stroke="none" stroke-width="0.5"/><path d="M69.66769,329.0663c0,0 -1.67151,-15.55228 -1.48711,-23.14913c0.17944,-7.39276 3.60305,-21.81436 3.60305,-21.81436l17.91962,0.38502c0,0 2.73392,13.99077 2.55747,21.25948c-0.18693,7.70141 -3.13745,23.737 -3.13745,23.737z" fill="#000000" stroke="#000000" stroke-width="2"/></g><path d="M96.53908,307.36938c-0.08908,2.48438 -1.15085,4.46287 -16.18664,3.92381c-15.78552,-0.56594 -15.95317,-2.58852 -15.86409,-5.0729c0.08908,-2.48437 1.71313,-4.44271 16.18663,-3.9238c14.66093,0.52562 15.95317,2.58852 15.8641,5.07289z" data-paper-data="{&quot;index&quot;:null}" fill="#000000" stroke="none" stroke-width="NaN" stroke-linecap="butt"/><g data-paper-data="{&quot;index&quot;:null}" stroke-linecap="butt"><path d="M71.66256,280.70664c0,0 -1.67151,-15.55228 -1.48711,-23.14913c0.17944,-7.39276 3.60304,-21.81436 3.60304,-21.81436l17.91962,0.38503c0,0 2.73392,13.99077 2.55748,21.25947c-0.18693,7.7014 -3.13745,23.737 -3.13745,23.737z" fill="#696969" stroke="#000000" stroke-width="2"/><path d="M78.17353,280.63753l1.08374,-44.64768l6.82653,0.14669l-1.08376,44.64767z" fill="url(#color-14)" stroke="none" stroke-width="0"/><path d="M86.72363,281.48912c-0.804,0.39182 -1.09117,-0.65425 -1.09117,-0.65425l-0.39425,-1.49086c-1.11946,-1.63475 -2.55404,-2.63035 -3.80397,-4.07566c-0.83055,-0.96039 -1.38548,-2.21231 -2.16291,-3.22008c-0.85043,-1.10241 -1.94087,-1.81154 -2.46017,-3.33403c-1.30809,-3.83504 -0.04344,-9.07147 2.54976,-11.24491c1.40251,-1.3008 2.60565,-2.92956 4.03041,-4.16533c0.23996,-0.20814 1.38226,-1.00308 1.59447,-1.59677c0.34047,-0.95246 -0.33271,-3.2497 -0.53919,-3.95153c-1.15858,-3.93789 -4.013,-6.63674 -5.30911,-10.53728c0,0 -0.33188,-1.0224 0.45473,-1.47236c0.78661,-0.44996 1.11846,0.57244 1.11846,0.57244c1.24359,3.95381 4.15778,6.57801 5.32272,10.58041c0.42729,1.46803 1.08772,4.05076 0.51283,5.68383c-0.58138,1.65156 -1.96756,2.17887 -2.96164,3.23434c-1.10873,1.17722 -2.11775,2.41745 -3.29002,3.50374c-1.91522,1.54536 -2.91498,5.61141 -1.92862,8.43894c0.42208,1.20996 1.42896,1.79612 2.10881,2.6797c0.75884,0.98621 1.30119,2.22308 2.11149,3.15698c1.40292,1.61691 2.90801,2.70934 4.12952,4.59841l0.52464,1.85636c0,0 0.28717,1.04606 -0.51683,1.43788z" fill="#000000" stroke="none" stroke-width="0.5"/><path d="M71.66256,280.70664c0,0 -1.67151,-15.55228 -1.48711,-23.14913c0.17944,-7.39276 3.60304,-21.81436 3.60304,-21.81436l17.91962,0.38503c0,0 2.73392,13.99077 2.55748,21.25947c-0.18693,7.7014 -3.13745,23.737 -3.13745,23.737z" fill="#000000" stroke="#000000" stroke-width="2"/></g><path d="M98.53395,260.29763c-0.08908,2.48438 -1.15085,4.46287 -16.18664,3.92381c-15.78552,-0.56594 -15.95317,-2.58852 -15.86409,-5.0729c0.08908,-2.48437 1.71313,-4.44271 16.18663,-3.9238c14.66093,0.52562 15.95317,2.58852 15.8641,5.07289z" data-paper-data="{&quot;index&quot;:null}" fill="#000000" stroke="none" stroke-width="NaN" stroke-linecap="butt"/></g></g></g></svg>