<svg version="1.1" xmlns="http://www.w3.org/2000/svg" xmlns:xlink="http://www.w3.org/1999/xlink" width="605.6006" height="410.40541" viewBox="0,0,605.6006,410.40541"><defs><radialGradient cx="321.71591" cy="246.12579" r="2.95647" gradientUnits="userSpaceOnUse" id="color-1"><stop offset="0" stop-color="#969696"/><stop offset="1" stop-color="#6a6a6a"/></radialGradient><linearGradient x1="305.41129" y1="229.38864" x2="308.00239" y2="227.42018" gradientUnits="userSpaceOnUse" id="color-2"><stop offset="0" stop-color="#6a6a6a"/><stop offset="1" stop-color="#969696"/></linearGradient><radialGradient cx="291.31374" cy="209.14467" r="2.95647" gradientUnits="userSpaceOnUse" id="color-3"><stop offset="0" stop-color="#969696"/><stop offset="1" stop-color="#6a6a6a"/></radialGradient><linearGradient x1="277.21347" y1="190.98109" x2="279.97703" y2="189.26313" gradientUnits="userSpaceOnUse" id="color-4"><stop offset="0" stop-color="#6a6a6a"/><stop offset="1" stop-color="#969696"/></linearGradient><radialGradient cx="127.78053" cy="243.8937" r="2.95647" gradientUnits="userSpaceOnUse" id="color-5"><stop offset="0" stop-color="#969696"/><stop offset="1" stop-color="#6a6a6a"/></radialGradient><radialGradient cx="131.53047" cy="237.69566" r="2.95647" gradientUnits="userSpaceOnUse" id="color-6"><stop offset="0" stop-color="#969696"/><stop offset="1" stop-color="#6a6a6a"/></radialGradient><linearGradient x1="150.83549" y1="235.71753" x2="149.5465" y2="232.72969" gradientUnits="userSpaceOnUse" id="color-7"><stop offset="0" stop-color="#6a6a6a"/><stop offset="1" stop-color="#969696"/></linearGradient><radialGradient cx="172.20494" cy="225.18543" r="2.95647" gradientUnits="userSpaceOnUse" id="color-8"><stop offset="0" stop-color="#969696"/><stop offset="1" stop-color="#6a6a6a"/></radialGradient><linearGradient x1="183.67629" y1="203.19343" x2="180.63035" y2="202.0485" gradientUnits="userSpaceOnUse" id="color-9"><stop offset="0" stop-color="#6a6a6a"/><stop offset="1" stop-color="#969696"/></linearGradient><linearGradient x1="227.06574" y1="239.654" x2="250.83254" y2="239.654" gradientUnits="userSpaceOnUse" id="color-10"><stop offset="0" stop-color="#383838"/><stop offset="1" stop-color="#616161"/></linearGradient><radialGradient cx="212.29824" cy="243.74909" r="5.2665" gradientUnits="userSpaceOnUse" id="color-11"><stop offset="0" stop-color="#969696"/><stop offset="1" stop-color="#6a6a6a"/></radialGradient><radialGradient cx="252.85955" cy="244.16125" r="5.2665" gradientUnits="userSpaceOnUse" id="color-12"><stop offset="0" stop-color="#969696"/><stop offset="1" stop-color="#6a6a6a"/></radialGradient><linearGradient x1="216.14047" y1="201.45422" x2="223.63841" y2="196.91925" gradientUnits="userSpaceOnUse" id="color-13"><stop offset="0" stop-color="#6a6a6a"/><stop offset="1" stop-color="#969696"/></linearGradient><linearGradient x1="245.4879" y1="197.96879" x2="237.06617" y2="195.54815" gradientUnits="userSpaceOnUse" id="color-14"><stop offset="0" stop-color="#6a6a6a"/><stop offset="1" stop-color="#969696"/></linearGradient><linearGradient x1="225.63869" y1="192.0969" x2="234.32512" y2="190.94324" gradientUnits="userSpaceOnUse" id="color-15"><stop offset="0" stop-color="#6a6a6a"/><stop offset="1" stop-color="#969696"/></linearGradient><linearGradient x1="192.06603" y1="178.36034" x2="263.66334" y2="168.85137" gradientUnits="userSpaceOnUse" id="color-16"><stop offset="0" stop-color="#6a6a6a"/><stop offset="1" stop-color="#969696"/></linearGradient><radialGradient cx="191.57216" cy="178.33941" r="4.4937" gradientUnits="userSpaceOnUse" id="color-17"><stop offset="0" stop-color="#969696"/><stop offset="1" stop-color="#6a6a6a"/></radialGradient><radialGradient cx="264.90443" cy="168.73981" r="4.4937" gradientUnits="userSpaceOnUse" id="color-18"><stop offset="0" stop-color="#969696"/><stop offset="1" stop-color="#6a6a6a"/></radialGradient><linearGradient x1="256.75126" y1="220.44579" x2="261.43863" y2="222.02411" gradientUnits="userSpaceOnUse" id="color-19"><stop offset="0" stop-color="#6a6a6a"/><stop offset="1" stop-color="#969696"/></linearGradient><radialGradient cx="271.06563" cy="200.85733" r="5.2665" gradientUnits="userSpaceOnUse" id="color-20"><stop offset="0" stop-color="#969696"/><stop offset="1" stop-color="#6a6a6a"/></radialGradient><linearGradient x1="268.77227" y1="226.1875" x2="273.71823" y2="226.1875" gradientUnits="userSpaceOnUse" id="color-21"><stop offset="0" stop-color="#6a6a6a"/><stop offset="1" stop-color="#969696"/></linearGradient><linearGradient x1="207.66785" y1="219.94579" x2="202.98048" y2="221.52411" gradientUnits="userSpaceOnUse" id="color-22"><stop offset="0" stop-color="#6a6a6a"/><stop offset="1" stop-color="#969696"/></linearGradient><radialGradient cx="194.06563" cy="201.85733" r="5.2665" gradientUnits="userSpaceOnUse" id="color-23"><stop offset="0" stop-color="#969696"/><stop offset="1" stop-color="#6a6a6a"/></radialGradient><linearGradient x1="195.64684" y1="225.6875" x2="190.70088" y2="225.6875" gradientUnits="userSpaceOnUse" id="color-24"><stop offset="0" stop-color="#6a6a6a"/><stop offset="1" stop-color="#969696"/></linearGradient><linearGradient x1="-73.81381" y1="173.99399" x2="73.33334" y2="173.99399" gradientUnits="userSpaceOnUse" id="color-25"><stop offset="0" stop-color="#656565"/><stop offset="1" stop-color="#9a9a9a"/></linearGradient><linearGradient x1="531.78679" y1="177.49249" x2="384.63964" y2="177.49249" gradientUnits="userSpaceOnUse" id="color-26"><stop offset="0" stop-color="#656565"/><stop offset="1" stop-color="#9a9a9a"/></linearGradient><linearGradient x1="298.55855" y1="174.74474" x2="393.15316" y2="174.74474" gradientUnits="userSpaceOnUse" id="color-27"><stop offset="0" stop-color="#373737"/><stop offset="1" stop-color="#656565"/></linearGradient><linearGradient x1="301.72619" y1="277.36914" x2="314.78024" y2="277.36914" gradientUnits="userSpaceOnUse" id="color-28"><stop offset="0" stop-color="#656565"/><stop offset="1" stop-color="#828282"/></linearGradient><linearGradient x1="318.8951" y1="240.86914" x2="318.8951" y2="256.86914" gradientUnits="userSpaceOnUse" id="color-29"><stop offset="0" stop-color="#656565"/><stop offset="1" stop-color="#828282"/></linearGradient></defs><g transform="translate(73.81381,29.45947)"><g data-paper-data="{&quot;isPaintingLayer&quot;:true}" fill-rule="nonzero" stroke-linejoin="miter" stroke-miterlimit="10" stroke-dasharray="" stroke-dashoffset="0" style="mix-blend-mode: normal"><path d="M-23.51351,273.84384v-286.78679h525.52553v286.78679z" fill="#1d1d1d" stroke="none" stroke-width="0" stroke-linecap="butt"/><path d="M-14.5045,378.94895v-142.64264h506.00601v142.64264z" fill="#383838" stroke="none" stroke-width="0" stroke-linecap="butt"/><g><path d="M227.24925,244.50301c70.96859,0 128.5,7.83502 128.5,17.5c0,9.66498 -57.53141,17.5 -128.5,17.5c-70.96859,0 -128.5,-7.83502 -128.5,-17.5c0,-9.66498 57.53141,-17.5 128.5,-17.5z" fill="#212121" stroke="none" stroke-width="NaN" stroke-linecap="butt"/><path d="M319.73709,244.02976c1.18728,-1.12089 3.03573,-1.09115 4.1286,0.06646c1.09287,1.15761 1.01634,3.0047 -0.17094,4.12561c-1.18728,1.12089 -3.03573,1.09114 -4.1286,-0.06647c-1.09287,-1.15761 -1.01633,-3.00469 0.17095,-4.1256z" fill="url(#color-1)" stroke="none" stroke-width="0" stroke-linecap="butt"/><path d="M335.10085,256.69275c-0.995,-0.20927 6.48068,4.21717 4.11729,5.9734c-4.56763,3.39419 -16.50622,-6.66128 -16.42381,-14.82751c0.06807,-6.74446 5.70193,-10.4269 11.89283,-10.77235c5.16395,-0.28815 16.73831,3.75512 16.63018,6.37206c-0.11471,2.77593 -10.20386,0.91299 -10.14887,1.89845c0.07168,1.28467 10.19815,2.43572 10.0546,4.41862c-0.21992,3.03779 -10.43443,0.85379 -11.1399,1.80416c-1.01649,1.36936 10.86932,1.99822 10.63864,3.73917c-0.52339,3.95016 -12.20659,2.11215 -15.62097,1.39402z" fill="#ff7b2f" stroke="#000000" stroke-width="1.5" stroke-linecap="butt"/><g stroke-linecap="butt"><path d="M302.51839,240.73286c-9.83417,-12.94473 -19.14123,-22.45958 -9.07906,-30.06867c10.16647,-7.68797 16.97517,3.65416 26.80934,16.59888c9.83418,12.94473 6.1278,14.83343 0.29271,19.26637c-5.83508,4.43293 -8.18882,7.14814 -18.02299,-5.79659z" fill="#252525" stroke="#000000" stroke-width="1.5"/><path d="M319.86551,248.41473l-28.90842,-38.05219l2.59109,-1.96846l28.90842,38.05218z" fill="url(#color-2)" stroke="none" stroke-width="0"/><g stroke="#000000"><path d="M302.51839,240.73286c-9.83417,-12.94473 -19.14123,-22.45958 -9.07906,-30.06867c10.16647,-7.68797 16.97517,3.65416 26.80934,16.59888c9.83418,12.94473 6.1278,14.83343 0.29271,19.26637c-5.83508,4.43293 -8.18882,7.14814 -18.02299,-5.79659z" fill="#ff0000" stroke-width="1.5"/><path d="M306.2126,245.25778c0.39767,-0.10669 0.80777,-0.19209 1.15925,-0.37513c0.70972,-0.36957 0.97277,-1.12095 1.43794,-1.76737c0.38579,-0.53614 1.10915,-0.82962 1.61418,-1.21355c0.9951,-0.75648 1.86007,-1.66444 2.97547,-2.26157c1.53393,-1.16284 3.57133,-1.72989 4.8067,-3.26123c0.3204,-0.39715 0.35166,-1.11345 0.63358,-1.55524c0.27486,-0.43073 0.804,-0.54864 1.16861,-0.8715c0.31948,-0.28289 0.41017,-0.84426 0.7492,-1.10181c0.80795,-0.61381 1.78174,-0.62505 2.25535,-1.70596c0.86709,1.3233 1.54557,2.49982 2.05716,3.55542c-1.26495,0.47858 -2.44594,1.41859 -3.1655,2.4787c-0.3913,0.57648 -0.3586,1.36577 -0.90262,1.73558c-2.32198,1.76402 -4.44407,3.90834 -7.01766,5.33426c-1.83691,1.01776 -3.95529,1.5269 -5.22311,3.31506c0,0 -0.04453,0.06339 -0.0645,0.1895c-0.76273,-0.67051 -1.58552,-1.49555 -2.48408,-2.49515z" fill="#004cff" stroke-width="0"/><path d="M320.54139,246.52944c-3.72887,2.83283 -6.03604,4.9642 -9.7822,2.75557c1.22629,-1.47657 3.15732,-1.92191 4.8061,-2.83812c2.59285,-1.44081 4.73583,-3.59491 7.07706,-5.37355c0.5768,-0.47158 0.59293,-1.24399 1.02436,-1.86328c0.5608,-0.80499 1.41336,-1.57109 2.36388,-2.04889c1.28832,4.62353 -1.63641,6.44128 -5.48919,9.36826z" fill="#004cff" stroke-width="0"/><path d="M320.24866,227.26308c0.44326,0.58346 0.85902,1.14447 1.24831,1.68426c-0.21271,0.02468 -0.28352,0.21675 -0.28352,0.21675c-0.38308,1.09406 -1.34161,0.9537 -2.09629,1.52704c-0.35042,0.26622 -0.44928,0.84096 -0.78262,1.12938c-0.00462,0.00401 -1.22278,0.91972 -1.25628,0.9707c-0.08154,0.12404 -0.42687,1.3044 -0.61137,1.52549c-1.21803,1.45956 -3.18636,2.00798 -4.6723,3.13942c-1.12838,0.60406 -2.004,1.52187 -3.01099,2.28638c-0.54861,0.4165 -1.29526,0.74748 -1.72004,1.31948c-0.42736,0.57545 -0.61399,1.27958 -1.25356,1.6117c-0.4267,0.22156 -0.9406,0.30318 -1.415,0.45111c-0.59424,-0.73002 -1.21867,-1.52594 -1.87658,-2.39194c-0.26234,-0.34534 -0.52282,-0.68933 -0.78117,-1.03195c0.51029,-0.25122 1.12827,-0.29088 1.62701,-0.61062c1.55225,-0.99512 2.85874,-2.32418 4.39607,-3.33961c1.85238,-1.22353 3.99847,-2.29393 5.32484,-4.1823c2.21534,-1.66395 4.46241,-3.28215 6.6788,-4.94209c0.16125,0.21143 0.32282,0.42371 0.48472,0.63681z" fill="#004cff" stroke-width="0"/><path d="M298.34801,235.09258c0.10942,-0.01287 0.16717,-0.05673 0.16717,-0.05673c3.82928,-2.90912 7.6479,-5.81016 11.48037,-8.72169c0.83305,-0.63997 1.21489,-1.73068 2.03926,-2.34982c0.58558,-0.43979 1.36947,-0.62679 2.00874,-0.99513c0.66219,-0.38154 1.25635,-0.83929 1.91807,-1.20917c0.71002,0.87959 1.42592,1.78675 2.14803,2.71593c-2.23784,1.67014 -4.51251,3.28967 -6.72931,4.99066c-1.30298,1.85507 -3.41238,2.9008 -5.23131,4.10413c-1.53614,1.01625 -2.86046,2.31892 -4.3942,3.33839c-0.49465,0.32879 -1.10431,0.38537 -1.63101,0.63044c-0.60886,-0.82505 -1.20196,-1.64103 -1.77581,-2.44701z" fill="#004cff" stroke-width="0"/><path d="M295.08215,230.25419c0.91902,-0.68861 1.9864,-1.04252 2.98639,-1.60551c2.9985,-1.68813 5.49849,-4.1735 8.21785,-6.2394c2.07743,-1.57823 4.20727,-3.08786 6.29604,-4.65333c0.54496,0.61157 1.09323,1.24577 1.64494,1.89988c-0.5993,0.35383 -1.15581,0.76385 -1.76594,1.11548c-0.6596,0.38014 -1.46693,0.57366 -2.06701,1.03378c-0.82416,0.63195 -1.19768,1.71836 -2.03926,2.34983c-3.83249,2.91157 -7.65107,5.81256 -11.48037,8.72169c0,0 -0.01804,0.01371 -0.04124,0.0436c-0.61511,-0.90335 -1.20067,-1.79246 -1.75141,-2.66601z" fill="#004cff" stroke-width="0"/><path d="M291.9848,225.39201c1.52345,-0.43437 2.58881,-1.68388 3.70545,-2.67271c2.57152,-2.27717 5.33583,-4.36402 8.14425,-6.32885c0.73806,-0.27908 1.07726,-0.78918 1.59571,-1.34164c0.73904,-0.78753 1.73183,-1.31072 2.58268,-1.95712l0.20934,-0.15904c0.91573,0.78794 1.83859,1.6672 2.76971,2.62368c-2.08382,1.55696 -4.20297,3.06568 -6.27323,4.63846c-2.78405,2.11506 -5.35571,4.63584 -8.40633,6.39007c-0.95821,0.55101 -1.98569,0.92336 -2.89533,1.54032c-0.5284,-0.93147 -1.0082,-1.84309 -1.43227,-2.73319z" fill="#004cff" stroke-width="0"/><path d="M289.75082,220.44869c2.08765,-0.91317 3.56153,-2.66594 5.23217,-4.131c1.96193,-1.72048 4.04546,-3.08417 5.66054,-5.23701c0.80993,-0.61166 1.61825,-1.22546 2.42642,-1.83944c1.07222,0.41814 2.14781,1.00471 3.22911,1.73623c-0.81812,0.57993 -1.6984,1.1106 -2.39392,1.83442c-0.5197,0.54083 -0.78013,1.00289 -1.51093,1.27801c-2.9837,2.07864 -5.91161,4.30068 -8.6497,6.70381c-0.98478,0.8643 -1.92863,2.00915 -3.19934,2.52902c-0.3532,-0.98819 -0.62172,-1.94701 -0.79434,-2.87403z" fill="#004cff" stroke-width="0"/><path d="M293.01063,210.98987c2.09777,-1.59369 4.17609,-2.29064 6.25313,-2.26069c-0.21038,0.16036 -0.42068,0.32082 -0.6309,0.48138c-1.64105,2.1507 -3.72934,3.52963 -5.70461,5.26518c-1.262,1.10885 -2.40675,2.40054 -3.80586,3.34157c0.17762,-2.61387 1.36692,-4.912 3.88823,-6.82744z" fill="#004cff" stroke-width="0"/><path d="M302.51839,240.73286c-9.83417,-12.94473 -19.14123,-22.45958 -9.07906,-30.06867c10.16647,-7.68797 16.97517,3.65416 26.80934,16.59888c9.83418,12.94473 6.1278,14.83343 0.29271,19.26637c-5.83508,4.43293 -8.18882,7.14814 -18.02299,-5.79659z" fill="none" stroke-width="1.5"/></g></g><path d="M292.11658,206.37618c1.5682,0.45476 2.48005,2.06291 2.03665,3.59191c-0.4434,1.529 -2.0741,2.39984 -3.64231,1.94509c-1.5682,-0.45476 -2.48005,-2.06292 -2.03665,-3.59191c0.4434,-1.529 2.07411,-2.39983 3.64232,-1.94508z" fill="url(#color-3)" stroke="none" stroke-width="0" stroke-linecap="butt"/><g stroke-linecap="butt"><path d="M273.27412,202.00568c-8.5827,-13.80631 -16.9608,-24.14849 -6.23221,-30.78495c10.83982,-6.70526 16.55988,5.22298 25.14258,19.02929c8.5827,13.80631 4.71619,15.34073 -1.50727,19.20955c-6.22345,3.86882 -8.82041,6.35242 -17.40311,-7.45389z" fill="#252525" stroke="#000000" stroke-width="1.5"/><path d="M289.82828,211.27353l-25.22963,-40.58487l2.76355,-1.71796l25.22964,40.58488z" fill="url(#color-4)" stroke="none" stroke-width="0"/><g stroke="#000000"><path d="M273.27412,202.00568c-8.5827,-13.80631 -16.9608,-24.14849 -6.23221,-30.78495c10.83982,-6.70526 16.55988,5.22298 25.14258,19.02929c8.5827,13.80631 4.71619,15.34073 -1.50727,19.20955c-6.22345,3.86882 -8.82041,6.35242 -17.40311,-7.45389z" fill="#ff0000" stroke-width="1.5"/><path d="M276.52974,206.85573c0.4059,-0.0691 0.82218,-0.11584 1.18921,-0.26526c0.74113,-0.30169 1.07317,-1.02524 1.59665,-1.62541c0.43416,-0.49777 1.18175,-0.72245 1.72043,-1.05755c1.06138,-0.66028 2.00734,-1.48351 3.17363,-1.9739c1.6358,-1.01454 3.71722,-1.38891 5.09017,-2.79824c0.35608,-0.36551 0.45407,-1.07575 0.77601,-1.4893c0.31387,-0.40319 0.85172,-0.47119 1.24488,-0.7586c0.34449,-0.25183 0.48719,-0.80228 0.84878,-1.02706c0.86172,-0.53569 1.83231,-0.45598 2.40476,-1.48795c0.73976,1.39847 1.30545,2.63318 1.71624,3.73194c-1.3041,0.3584 -2.5677,1.18404 -3.38308,2.17235c-0.44341,0.53743 -0.48454,1.32632 -1.0607,1.64372c-2.47652,1.53954 -4.78954,3.47638 -7.48501,4.65581c-1.9239,0.84182 -4.08058,1.15097 -5.50979,2.81295c0,0 -0.05025,0.05896 -0.08191,0.18266c-0.6968,-0.73879 -1.43897,-1.63706 -2.24028,-2.71617z" fill="#004cff" stroke-width="0"/><path d="M290.67722,209.45957c-3.97706,2.47234 -6.47313,4.37898 -9.99674,1.83027c1.35879,-1.35564 3.32297,-1.61874 5.05007,-2.37702c2.71603,-1.19244 5.05076,-3.13708 7.54782,-4.68938c0.61831,-0.41567 0.70647,-1.18319 1.19383,-1.7595c0.6335,-0.74912 1.55387,-1.43229 2.54484,-1.81925c0.85104,4.72361 -2.23062,6.26039 -6.33983,8.81488z" fill="#004cff" stroke-width="0"/><path d="M292.18449,190.25002c0.38684,0.6223 0.74841,1.21968 1.08562,1.79345c-0.21409,0.00472 -0.30252,0.18933 -0.30252,0.18933c-0.48356,1.05351 -1.42479,0.82428 -2.2297,1.32467c-0.37374,0.23235 -0.52583,0.79534 -0.88464,1.05138c-0.00498,0.00356 -1.3033,0.80155 -1.34142,0.84918c-0.09276,0.11589 -0.54679,1.25885 -0.75113,1.46175c-1.34897,1.33947 -3.35991,1.70173 -4.945,2.6895c-1.17984,0.49608 -2.13732,1.32813 -3.2113,1.99529c-0.5851,0.36346 -1.35938,0.6233 -1.83572,1.15314c-0.47922,0.53304 -0.73077,1.21668 -1.39857,1.48763c-0.44552,0.18077 -0.96478,0.21406 -1.45093,0.31704c-0.52348,-0.7823 -1.07089,-1.63304 -1.64508,-2.55669c-0.22897,-0.36831 -0.45618,-0.73513 -0.68142,-1.10039c0.53152,-0.20248 1.15051,-0.18428 1.67692,-0.45605c1.63838,-0.84586 3.06324,-2.04712 4.68865,-2.9146c1.95851,-1.04525 4.19518,-1.91061 5.69205,-3.6669c2.36101,-1.44986 4.74935,-2.85121 7.11103,-4.29699c0.14082,0.22556 0.28185,0.452 0.42314,0.67928z" fill="#004cff" stroke-width="0"/><path d="M269.64853,196.0007c0.11014,-0.00259 0.17172,-0.04087 0.17172,-0.04087c4.08416,-2.53892 8.15695,-5.07077 12.24448,-7.61181c0.88916,-0.55941 1.37115,-1.60971 2.24973,-2.14918c0.62408,-0.38321 1.42201,-0.49621 2.09287,-0.80325c0.69491,-0.31805 1.32923,-0.71833 2.02258,-1.02481c0.6248,0.94204 1.25288,1.91207 1.88509,2.90461c-2.384,1.45392 -4.79992,2.85401 -7.16584,4.34061c-1.47048,1.72533 -3.6683,2.56956 -5.59162,3.59782c-1.6243,0.86839 -3.06445,2.04174 -4.68668,2.91357c-0.52318,0.28118 -1.13547,0.28058 -1.68274,0.47541c-0.52916,-0.8783 -1.0435,-1.74608 -1.5396,-2.60212z" fill="#004cff" stroke-width="0"/><path d="M266.84863,190.87854c0.97929,-0.59982 2.07506,-0.85251 3.12324,-1.31968c3.14301,-1.40082 5.86411,-3.64194 8.76446,-5.44494c2.21569,-1.37739 4.47717,-2.68158 6.70297,-4.04521c0.48548,0.65977 0.97215,1.34238 1.46039,2.04515c-0.62972,0.29632 -1.22208,0.65261 -1.86236,0.94574c-0.69221,0.3169 -1.5141,0.4342 -2.1545,0.83629c-0.87955,0.55224 -1.35287,1.59903 -2.24973,2.14918c-4.08758,2.54105 -8.16032,5.07287 -12.24449,7.6118c0,0 -0.01923,0.01196 -0.04512,0.03955c-0.5281,-0.95682 -1.0281,-1.89673 -1.49486,-2.81788z" fill="#004cff" stroke-width="0"/><path d="M264.21873,185.74843c1.55736,-0.29024 2.7347,-1.43485 3.93879,-2.3151c2.7729,-2.02714 5.71996,-3.8468 8.69954,-5.54085c0.76088,-0.20896 1.14623,-0.68516 1.714,-1.18681c0.80935,-0.71509 1.84663,-1.14333 2.75412,-1.70746l0.22328,-0.1388c0.83816,0.86999 1.67491,1.83156 2.51267,2.8708c-2.22007,1.35562 -4.47082,2.65991 -6.67887,4.03254c-2.96936,1.8459 -5.76511,4.11558 -8.96619,5.57735c-1.00545,0.45914 -2.06322,0.73394 -3.02648,1.26329c-0.43914,-0.97672 -0.83173,-1.92916 -1.17084,-2.85497z" fill="#004cff" stroke-width="0"/><path d="M262.45603,180.61814c2.16377,-0.71428 3.79486,-2.3218 5.59499,-3.62449c2.11397,-1.52981 4.31573,-2.69301 6.12473,-4.68568c0.8635,-0.53337 1.72559,-1.06902 2.58755,-1.60487c1.0285,0.51641 2.04463,1.20084 3.05292,2.03011c-0.86868,0.50101 -1.79466,0.94719 -2.55473,1.60291c-0.56793,0.48996 -0.87036,0.92568 -1.62365,1.13136c-3.16472,1.791 -6.28729,3.72999 -9.23778,5.867c-1.06117,0.76859 -2.10778,1.82032 -3.42147,2.21928c-0.25939,-1.01685 -0.43725,-1.99654 -0.52256,-2.93563z" fill="#004cff" stroke-width="0"/><path d="M266.58467,171.50495c2.2374,-1.39088 4.37171,-1.89075 6.43688,-1.66702c-0.22444,0.14002 -0.4488,0.28014 -0.67309,0.42037c-1.83467,1.9881 -4.04258,3.16605 -6.17124,4.70962c-1.36001,0.98619 -2.62036,2.16537 -4.1012,2.97167c0.42088,-2.58587 1.81954,-4.76292 4.50865,-6.43462z" fill="#004cff" stroke-width="0"/><path d="M273.27412,202.00568c-8.5827,-13.80631 -16.9608,-24.14849 -6.23221,-30.78495c10.83982,-6.70526 16.55988,5.22298 25.14258,19.02929c8.5827,13.80631 4.71619,15.34073 -1.50727,19.20955c-6.22345,3.86882 -8.82041,6.35242 -17.40311,-7.45389z" fill="none" stroke-width="1.5"/></g></g><path d="M129.19473,241.38191c1.4228,0.80109 1.94303,2.57505 1.16198,3.96228c-0.78105,1.38723 -2.56762,1.86239 -3.99041,1.06131c-1.4228,-0.80109 -1.94302,-2.57505 -1.16198,-3.96228c0.78106,-1.38723 2.56763,-1.86239 3.99042,-1.06131z" data-paper-data="{&quot;index&quot;:null}" fill="url(#color-5)" stroke="none" stroke-width="0" stroke-linecap="butt"/><path d="M117.34288,257.37973c-3.13997,1.52125 -14.03377,6.12568 -15.4954,2.41875c-0.64418,-1.63375 10.73816,-5.11371 9.42112,-6.19714c-0.91406,-0.75192 -10.29908,3.83367 -11.24593,0.93884c-0.61805,-1.88957 8.93092,-5.45151 8.69031,-6.71548c-0.18457,-0.96959 -9.52546,3.27416 -10.30699,0.60805c-0.73677,-2.51342 9.51896,-9.23158 14.59971,-10.19874c6.09117,-1.1595 12.44743,1.05376 14.14187,7.58226c2.05163,7.90474 -7.10597,20.54519 -12.35796,18.35422c-2.71749,-1.13366 3.46831,-7.23407 2.55327,-6.79076z" data-paper-data="{&quot;index&quot;:null}" fill="#ff7b2f" stroke="#000000" stroke-width="1.5" stroke-linecap="butt"/><path d="M134.15743,239.05205c-0.7304,1.41455 -2.49862,1.954 -3.94943,1.20488c-1.45084,-0.74912 -2.03486,-2.50313 -1.30447,-3.91768c0.73039,-1.41455 2.4986,-1.95399 3.94944,-1.20487c1.45082,0.74911 2.03486,2.50312 1.30447,3.91768z" data-paper-data="{&quot;index&quot;:null}" fill="url(#color-6)" stroke="none" stroke-width="0" stroke-linecap="butt"/><g data-paper-data="{&quot;index&quot;:null}" stroke-linecap="butt"><path d="M147.77899,247.01875c-14.92679,6.43954 -15.64204,2.91806 -18.54479,-3.81048c-2.90275,-6.72853 -5.20218,-10.19508 9.72461,-16.63462c14.92679,-6.43954 26.43109,-12.97049 31.50602,-1.2783c5.02286,11.57222 -7.75905,15.28386 -22.68586,21.7234z" fill="#252525" stroke="#000000" stroke-width="1.5"/><path d="M127.60717,242.19449l43.87867,-18.9296l1.28897,2.98784l-43.87866,18.92959z" fill="url(#color-7)" stroke="none" stroke-width="0"/><g stroke="#000000"><path d="M147.77899,247.01875c-14.92679,6.43954 -15.64204,2.91806 -18.54479,-3.81048c-2.90275,-6.72853 -5.20218,-10.19508 9.72461,-16.63462c14.92679,-6.43954 26.43109,-12.97049 31.50602,-1.2783c5.02286,11.57222 -7.75905,15.28386 -22.68586,21.7234z" fill="#ff0000" stroke-width="1.5"/><path d="M142.33775,249.14362c-1.27384,0.42886 -2.39589,0.74296 -3.38971,0.95199c0.04459,-0.11964 0.03698,-0.19674 0.03698,-0.19674c-0.2252,-2.1804 -1.81979,-3.66501 -2.91926,-5.45421c-1.54039,-2.50674 -2.3345,-5.41721 -3.4896,-8.09472c-0.292,-0.58945 0.12442,-1.26073 0.067,-1.9551c-0.10557,-1.27689 -0.67204,-2.67599 -1.53842,-3.71451c0.96436,-0.66783 2.13352,-1.35895 3.53905,-2.08519c-0.11882,1.17413 0.72369,1.66254 1.12562,2.59421c0.16866,0.39093 -0.02829,0.92439 0.11089,1.32779c0.15883,0.46038 0.5617,0.82315 0.58935,1.33336c0.02837,0.5233 -0.29647,1.16248 -0.21265,1.66583c0.32318,1.94079 1.81876,3.43604 2.58307,5.20266c0.67788,1.06825 0.98488,2.28412 1.47966,3.43203c0.25112,0.58257 0.73681,1.19371 0.80927,1.85023c0.08736,0.79158 -0.05286,1.57523 0.38357,2.24591c0.21613,0.33216 0.5313,0.60809 0.82518,0.89647z" fill="#004cff" stroke-width="0"/><path d="M129.05848,232.35173c0.59294,0.88329 0.95885,1.96951 1.05156,2.9462c0.07134,0.75137 -0.29427,1.43196 -0.02374,2.12615c1.16468,2.69971 1.97216,5.62895 3.52201,8.15813c0.98553,1.60829 2.44833,2.94526 2.79051,4.8339c-4.348,0.08212 -5.30964,-2.90802 -7.16463,-7.20784c-1.91662,-4.44271 -3.57021,-7.46328 -0.17573,-10.85655z" fill="#004cff" stroke-width="0"/><path d="M138.95881,226.57366c0.24573,-0.10601 0.49077,-0.21146 0.73513,-0.31633c1.1143,2.53498 2.27584,5.04868 3.38726,7.58664c0.22693,2.29646 1.56979,4.28346 2.58159,6.25947c0.83971,1.63993 1.32425,3.43952 2.18694,5.06909c0.27718,0.52358 0.79586,0.86186 1.11679,1.33147c-0.39339,0.17139 -0.78932,0.34296 -1.18753,0.51475c-0.99862,0.43081 -1.93362,0.81704 -2.80994,1.16071c-0.34043,-0.36201 -0.74786,-0.68568 -1.01055,-1.08836c-0.39375,-0.60359 -0.21018,-1.30853 -0.29952,-2.01972c-0.0888,-0.70693 -0.57635,-1.36216 -0.84938,-1.99452c-0.50119,-1.16074 -0.81264,-2.39041 -1.49839,-3.47108c-0.73794,-1.71571 -2.18256,-3.16077 -2.5259,-5.03053c-0.05201,-0.28322 0.22741,-1.48089 0.21737,-1.629c-0.00412,-0.06087 -0.61488,-1.45708 -0.61695,-1.46283c-0.14853,-0.41501 0.04788,-0.96413 -0.12645,-1.3682c-0.37544,-0.87025 -1.27917,-1.21914 -1.07504,-2.36021c0,0 0.03274,-0.20207 -0.14038,-0.32811c0.60433,-0.27874 1.24214,-0.56295 1.91495,-0.85322z" fill="#004cff" stroke-width="0"/><path d="M154.18312,244.15661c-0.8959,0.41985 -1.81348,0.83894 -2.74925,1.2582c-0.33823,-0.4723 -0.84136,-0.82124 -1.11053,-1.3507c-0.8346,-1.64168 -1.34764,-3.42704 -2.1859,-5.0671c-0.99259,-1.94198 -2.31563,-3.88947 -2.53856,-6.14543c-1.09449,-2.57093 -2.27939,-5.09934 -3.40737,-7.65376c1.08558,-0.45426 2.1549,-0.8924 3.20556,-1.30944c0.39446,0.64736 0.68692,1.33803 1.07606,1.99578c0.37568,0.63497 0.96642,1.18312 1.26023,1.85395c0.4136,0.94438 0.21004,2.08193 0.62095,3.04872c1.90651,4.41929 3.80615,8.82261 5.71108,13.23823c0,0 0.02873,0.06658 0.1177,0.13156z" fill="#004cff" stroke-width="0"/><path d="M159.40538,241.54822c-0.90898,0.49006 -1.85594,0.97655 -2.83563,1.4609c-0.00551,-0.03743 -0.01447,-0.05822 -0.01447,-0.05822c-1.90494,-4.41563 -3.80455,-8.81891 -5.71108,-13.23822c-0.42252,-0.96358 -0.21382,-2.09329 -0.62095,-3.04871c-0.29643,-0.69565 -0.90441,-1.26101 -1.29199,-1.91627c-0.35852,-0.60611 -0.64161,-1.23672 -0.98962,-1.83943c0.80199,-0.29847 1.59115,-0.58129 2.36634,-0.84603c1.0496,2.38998 2.16242,4.75153 3.19586,7.14704c1.35279,3.13573 2.30836,6.52894 4.08992,9.4729c0.59414,0.9818 1.34975,1.81462 1.81163,2.86603z" fill="#004cff" stroke-width="0"/><path d="M164.49261,238.8363c-0.8068,0.56673 -1.67272,1.12481 -2.59071,1.67628c-0.48892,-0.98441 -1.20072,-1.81371 -1.76435,-2.76452c-1.79448,-3.02713 -2.79504,-6.4864 -4.18002,-9.69674c-1.02989,-2.38724 -2.13382,-4.74273 -3.18328,-7.12286c1.28101,-0.37532 2.51687,-0.68743 3.70163,-0.92355l0.10414,0.24141c0.42327,0.98114 1.0307,1.92474 1.28723,2.97383c0.17996,0.73594 0.22463,1.3469 0.73022,1.9527c1.48002,3.09148 2.86166,6.26755 3.98187,9.51461c0.48643,1.40999 0.80006,3.02178 1.91329,4.14886z" fill="#004cff" stroke-width="0"/><path d="M168.86782,235.62935c-0.60596,0.72245 -1.3111,1.42548 -2.1044,2.11247c-0.85111,-1.07731 -1.11036,-2.53823 -1.54316,-3.77496c-1.20334,-3.43863 -2.66101,-6.81284 -4.23774,-10.0896c-0.50121,-0.59878 -0.5009,-1.12919 -0.68767,-1.85563c-0.24993,-0.97221 -0.75572,-1.86703 -1.18314,-2.77419c1.30122,-0.10558 2.52622,-0.08773 3.66551,0.07514c0.40203,0.93193 0.80428,1.86374 1.20899,2.79452c0.34835,2.66868 1.49259,4.88037 2.35552,7.343c0.73482,2.09701 1.15686,4.34789 2.52609,6.16925z" fill="#004cff" stroke-width="0"/><path d="M170.6781,225.7897c1.25425,2.90735 1.16042,5.49329 0.03036,7.85693c-0.75591,-1.50718 -1.11794,-3.19475 -1.67197,-4.7807c-0.86714,-2.4823 -2.00802,-4.70961 -2.38006,-7.38918c-0.10416,-0.24316 -0.20844,-0.48625 -0.31283,-0.72932c1.82354,0.99481 3.29094,2.6233 4.3345,5.04228z" fill="#004cff" stroke-width="0"/><path d="M147.77899,247.01875c-14.92679,6.43954 -15.64204,2.91806 -18.54479,-3.81048c-2.90275,-6.72853 -5.20218,-10.19508 9.72461,-16.63462c14.92679,-6.43954 26.43109,-12.97049 31.50602,-1.2783c5.02286,11.57222 -7.75905,15.28386 -22.68586,21.7234z" fill="none" stroke-width="1.5"/></g></g><path d="M175.14964,225.44892c-0.1419,1.58566 -1.5753,2.75312 -3.20161,2.6076c-1.62632,-0.14552 -2.82967,-1.54892 -2.68779,-3.13458c0.14189,-1.58564 1.57529,-2.75311 3.20159,-2.60759c1.62631,0.14552 2.82968,1.54892 2.6878,3.13457z" data-paper-data="{&quot;index&quot;:null}" fill="url(#color-8)" stroke="none" stroke-width="0" stroke-linecap="butt"/><g data-paper-data="{&quot;index&quot;:null}" stroke-linecap="butt"><path d="M189.69365,213.23591c-5.71992,15.21708 -8.75205,13.28873 -15.61144,10.71036c-6.85939,-2.57836 -10.95117,-3.3278 -5.23125,-18.54488c5.71992,-15.21708 8.99927,-28.03301 20.94022,-23.57479c11.81843,4.41248 5.62239,16.19222 -0.09753,31.4093z" fill="#252525" stroke="#000000" stroke-width="1.5"/><path d="M172.22324,224.41449l16.81421,-44.73196l3.04593,1.14493l-16.8142,44.73196z" fill="url(#color-9)" stroke="none" stroke-width="0"/><g stroke="#000000"><path d="M189.69365,213.23591c-5.71992,15.21708 -8.75205,13.28873 -15.61144,10.71036c-6.85939,-2.57836 -10.95117,-3.3278 -5.23125,-18.54488c5.71992,-15.21708 8.99927,-28.03301 20.94022,-23.57479c11.81843,4.41248 5.62239,16.19222 -0.09753,31.4093z" fill="#ff0000" stroke-width="1.5"/><path d="M187.44833,218.62857c-0.57504,1.21488 -1.1274,2.24082 -1.66645,3.10151c-0.05522,-0.11513 -0.11602,-0.16314 -0.11602,-0.16314c-1.72638,-1.35072 -3.90188,-1.23255 -5.95318,-1.68227c-2.87394,-0.63007 -5.52081,-2.07768 -8.25039,-3.1037c-0.62707,-0.19872 -0.82154,-0.96437 -1.3614,-1.40482c-0.99277,-0.80996 -2.39331,-1.37281 -3.7423,-1.46951c0.18821,-1.15784 0.50176,-2.47928 0.95403,-3.99533c0.76305,0.90025 1.69936,0.63244 2.64914,0.98945c0.39855,0.1498 0.64603,0.66178 1.03309,0.84144c0.44173,0.20506 0.9825,0.16667 1.3691,0.50076c0.39652,0.34268 0.6314,1.0201 1.05203,1.30899c1.62184,1.11392 3.7363,1.07442 5.53879,1.74982c1.23961,0.25307 2.32818,0.87562 3.49811,1.31581c0.59376,0.22341 1.37085,0.29769 1.89389,0.70105c0.63064,0.48633 1.09766,1.13105 1.88345,1.28213c0.38915,0.07483 0.80654,0.03933 1.21811,0.02781z" fill="#004cff" stroke-width="0"/><path d="M166.14237,216.53991c1.04747,0.1859 2.08358,0.67607 2.85123,1.28699c0.59057,0.46999 0.82698,1.2055 1.51459,1.49235c2.75221,1.03453 5.42187,2.48554 8.31853,3.12436c1.84197,0.40623 3.81971,0.28053 5.41717,1.34456c-2.95775,3.18802 -5.77824,1.80578 -10.16169,0.15811c-4.52911,-1.70244 -7.85163,-2.60752 -7.93984,-7.40637z" fill="#004cff" stroke-width="0"/><path d="M168.85096,205.40141c0.09416,-0.25051 0.18825,-0.50014 0.28228,-0.74886c2.59864,0.95651 5.21473,1.86422 7.81351,2.82486c1.81116,1.43 4.17378,1.84169 6.29877,2.48415c1.76356,0.53321 3.39567,1.43294 5.16772,1.94241c0.56937,0.1637 1.17287,0.02491 1.73371,0.11965c-0.14954,0.40221 -0.30071,0.80636 -0.4533,1.2123c-0.38267,1.01803 -0.7533,1.95934 -1.11387,2.82883c-0.49689,-0.00603 -1.01267,0.06278 -1.48492,-0.02746c-0.70785,-0.13526 -1.08813,-0.75657 -1.66225,-1.18572c-0.57068,-0.42657 -1.38081,-0.53012 -2.02563,-0.77226c-1.18362,-0.44448 -2.28521,-1.07343 -3.53924,-1.32943c-1.74752,-0.65906 -3.79049,-0.62145 -5.37516,-1.67156c-0.24004,-0.15906 -0.90861,-1.19128 -1.02224,-1.28681c-0.04669,-0.03926 -1.4759,-0.56822 -1.48148,-0.57074c-0.40192,-0.181 -0.66107,-0.70344 -1.07299,-0.85828c-0.88718,-0.33347 -1.76549,0.07522 -2.44555,-0.86351c0,0 -0.12279,-0.16378 -0.33367,-0.12658c0.21859,-0.62859 0.45648,-1.2851 0.7143,-1.97098z" fill="#004cff" stroke-width="0"/><path d="M192.07615,206.6383c-0.31929,0.93647 -0.65417,1.888 -1.00154,2.85276c-0.57479,-0.08415 -1.17516,0.03605 -1.7432,-0.13749c-1.76129,-0.53808 -3.40292,-1.40745 -5.16559,-1.94176c-2.08715,-0.63269 -4.40756,-1.03124 -6.18679,-2.43603c-2.61077,-0.99571 -5.25367,-1.89681 -7.87579,-2.85694c0.42612,-1.09694 0.85258,-2.17097 1.28127,-3.21693c0.73987,0.16512 1.44016,0.43375 2.18382,0.6099c0.71792,0.17006 1.52254,0.12499 2.20947,0.37888c0.96705,0.35743 1.64496,1.2933 2.62627,1.66822c4.50522,1.69347 8.99418,3.38081 13.49567,5.07287c0,0 0.06787,0.02551 0.1764,0.00653z" fill="#004cff" stroke-width="0"/><path d="M193.82134,201.06785c-0.2778,0.9946 -0.58454,2.01407 -0.91551,3.05563c-0.03078,-0.02201 -0.05197,-0.02998 -0.05197,-0.02998c-4.50151,-1.69206 -8.9904,-3.37939 -13.49567,-5.07287c-0.98705,-0.36432 -1.65577,-1.29846 -2.62626,-1.66822c-0.70663,-0.26922 -1.53559,-0.22369 -2.27638,-0.39925c-0.68521,-0.16238 -1.33577,-0.39607 -2.01125,-0.56366c0.34153,-0.78462 0.68544,-1.54916 1.03268,-2.29107c2.44933,0.90249 4.92203,1.73972 7.36413,2.65767c3.19671,1.2016 6.30324,2.86789 9.65937,3.62766c1.11925,0.25338 2.24328,0.28713 3.32089,0.68406z" fill="#004cff" stroke-width="0"/><path d="M195.39827,195.52278c-0.15169,0.97422 -0.35065,1.98501 -0.59049,3.0287c-1.04812,-0.33095 -2.13919,-0.3938 -3.21498,-0.64765c-3.42497,-0.80819 -6.6103,-2.48791 -9.88308,-3.71811c-2.43367,-0.91479 -4.89586,-1.7542 -7.338,-2.64994c0.61856,-1.18289 1.25133,-2.28941 1.90336,-3.3064l0.24609,0.09251c1.00021,0.37598 2.10118,0.59328 3.03464,1.13647c0.65483,0.38105 1.12578,0.77279 1.91284,0.82906c3.25313,1.07926 6.49892,2.28809 9.61443,3.73442c1.35287,0.62804 2.73114,1.52055 4.31519,1.50093z" fill="#004cff" stroke-width="0"/><path d="M196.12469,190.14697c0.0998,0.93765 0.11678,1.93322 0.06105,2.98115c-1.36633,-0.13461 -2.59825,-0.9616 -3.78913,-1.50806c-3.31115,-1.51938 -6.75238,-2.81092 -10.20603,-3.94911c-0.77896,-0.05455 -1.16069,-0.42279 -1.81339,-0.79235c-0.87351,-0.49459 -1.86883,-0.75125 -2.81866,-1.0729c0.82684,-1.01028 1.68966,-1.88004 2.59744,-2.58744c0.95004,0.35712 1.90017,0.71401 2.85124,1.0684c2.16345,1.60083 4.55005,2.31146 6.92217,3.39877c2.01995,0.92588 3.93365,2.18375 6.19529,2.46152z" fill="#004cff" stroke-width="0"/><path d="M190.29513,182.01604c2.9639,1.11409 4.76094,2.97593 5.67892,5.42974c-1.60984,-0.50144 -3.07627,-1.41166 -4.60274,-2.11313c-2.38921,-1.09794 -4.78471,-1.82181 -6.97245,-3.41315c-0.24738,-0.09371 -0.4948,-0.18729 -0.74225,-0.28077c1.98167,-0.6229 4.1725,-0.54964 6.63853,0.37731z" fill="#004cff" stroke-width="0"/><path d="M189.69365,213.23591c-5.71992,15.21708 -8.75205,13.28873 -15.61144,10.71036c-6.85939,-2.57836 -10.95117,-3.3278 -5.23125,-18.54488c5.71992,-15.21708 8.99927,-28.03301 20.94022,-23.57479c11.81843,4.41248 5.62239,16.19222 -0.09753,31.4093z" fill="none" stroke-width="1.5"/></g></g><path d="M213.15678,244.17779l0.13504,-3.78108l13.77393,-5.40153h10.53301l14.34028,5.03106l-0.02619,4.15156z" fill="url(#color-10)" stroke="none" stroke-width="0" stroke-linecap="butt"/><path d="M212.29824,238.75266c2.90861,0 5.26651,2.23698 5.26651,4.99643c0,2.75945 -2.3579,4.99642 -5.26651,4.99642c-2.90861,0 -5.2665,-2.23697 -5.2665,-4.99642c0,-2.75945 2.35789,-4.99643 5.2665,-4.99643z" data-paper-data="{&quot;index&quot;:null}" fill="url(#color-11)" stroke="none" stroke-width="0" stroke-linecap="butt"/><path d="M258.12605,244.16125c0,2.75945 -2.35789,4.99642 -5.2665,4.99642c-2.90861,0 -5.26651,-2.23698 -5.26651,-4.99642c0,-2.75945 2.3579,-4.99643 5.26651,-4.99643c2.90861,0 5.2665,2.23698 5.2665,4.99643z" fill="url(#color-12)" stroke="none" stroke-width="0" stroke-linecap="butt"/><path d="M192.45729,210.38759c-3.25313,-24.49425 -2.43956,-44.80905 32.79804,-49.48902c36.86725,-4.89641 42.54775,14.55592 45.80088,39.05016c3.25313,24.49425 -11.34546,25.30125 -37.21258,28.73671c-25.86712,3.43546 -38.1332,6.1964 -41.38632,-18.29784z" fill="#252525" stroke="#000000" stroke-width="1.5" stroke-linecap="butt"/><path d="M230.08893,224.51611l-27.8969,-46.12376l7.49794,-4.53496l27.8969,46.12376z" fill="url(#color-13)" stroke="#000000" stroke-width="0" stroke-linecap="butt"/><path d="M229.62086,221.45138l14.8906,-51.80644l8.42173,2.42064l-14.89061,51.80644z" data-paper-data="{&quot;index&quot;:null}" fill="url(#color-14)" stroke="#000000" stroke-width="0" stroke-linecap="butt"/><path d="M231.91724,239.37094l-12.5571,-94.54801l8.68645,-1.15366l12.55709,94.54801z" fill="url(#color-15)" stroke="#000000" stroke-width="0" stroke-linecap="butt"/><path d="M192.41563,180.9926l-0.69919,-5.2645l71.59732,-9.50897l0.69919,5.2645z" fill="url(#color-16)" stroke="#000000" stroke-width="0" stroke-linecap="butt"/><path d="M195.91537,177.76258c0.32674,2.46019 -1.35291,4.71284 -3.75159,5.03142c-2.3987,0.31858 -4.60809,-1.41756 -4.93483,-3.87776c-0.32674,-2.46019 1.3529,-4.71285 3.75159,-5.03142c2.3987,-0.31858 4.60809,1.41757 4.93484,3.87776z" fill="url(#color-17)" stroke="none" stroke-width="0" stroke-linecap="butt"/><path d="M269.24765,168.16298c0.32675,2.4602 -1.35289,4.71284 -3.75159,5.03142c-2.39869,0.31858 -4.6081,-1.41755 -4.93484,-3.87776c-0.32675,-2.46019 1.35291,-4.71284 3.7516,-5.03141c2.39869,-0.31858 4.60809,1.41756 4.93483,3.87775z" fill="url(#color-18)" stroke="none" stroke-width="0" stroke-linecap="butt"/><path d="M269.85656,226.89106c0,5.26875 -16.32039,19.38114 -36.4526,19.38114c-20.13222,0 -36.4526,-14.11239 -36.4526,-19.38114c0,-5.26875 16.32038,-9.53993 36.4526,-9.53993c20.13221,0 36.4526,4.27117 36.4526,9.53993z" fill="#669bff" stroke="#000000" stroke-width="1.5" stroke-linecap="butt"/><g stroke="#000000" stroke-linecap="butt"><g><path d="M192.69515,210.64622c-3.25313,-24.49425 -2.43956,-44.80904 32.79804,-49.48901c36.86725,-4.89641 42.54776,14.55589 45.80088,39.05014c3.25313,24.49424 -11.34546,25.30124 -37.21258,28.7367c-25.86712,3.43546 -38.13321,6.19641 -41.38634,-18.29783z" fill="#ff0000" stroke-width="1.5"/><path d="M194.58461,219.34646c1.37673,0.05574 2.74783,0.14975 4.13999,0.06741c2.81107,-0.16626 5.06704,-1.13926 7.70816,-1.84781c2.1905,-0.58766 4.8912,-0.63373 7.13054,-0.93144c4.41231,-0.58662 8.74239,-1.46795 13.19252,-1.75344c6.79503,-0.89939 13.88885,-0.64411 20.53674,-2.25082c1.72413,-0.41669 3.23121,-1.46241 4.93076,-1.96604c1.657,-0.49102 3.44135,-0.38115 5.14832,-0.66386c1.49566,-0.2477 2.87082,-1.03161 4.37372,-1.23121c3.58166,-0.47568 6.45888,0.03169 9.98336,-1.31682c-0.07272,2.42957 -0.40833,4.53992 -0.99434,6.38109c-4.65431,0.02917 -9.97424,0.78797 -14.17868,1.97328c-2.28638,0.64457 -3.75016,1.83297 -6.07585,2.08875c-10.29341,1.36709 -20.75232,3.40588 -31.11529,4.13603c-7.39663,0.52115 -14.61349,0.13636 -21.86393,2.10656c0,0 -0.25582,0.07007 -0.56358,0.24641c-0.91127,-1.40509 -1.69322,-3.07174 -2.35244,-5.03808z" fill="#004cff" stroke-width="0"/><path d="M234.08148,228.94404c-16.53021,2.19541 -27.50608,4.11536 -34.12494,-1.1769c6.51301,-1.53035 13.0545,-1.15175 19.69889,-1.62351c10.44887,-0.74187 20.98833,-2.78394 31.36708,-4.16236c2.62294,-0.38912 4.19648,-1.5262 6.68511,-2.21265c3.23487,-0.89229 7.24827,-1.56989 10.97918,-1.76711c-5.35904,7.55174 -17.52583,8.67417 -34.60532,10.94253z" fill="#004cff" stroke-width="0"/><path d="M271.29407,200.20734c0.14663,1.10405 0.25699,2.15996 0.33169,3.17018c-0.67239,-0.07785 -1.25952,0.16894 -1.25952,0.16894c-3.28503,1.41673 -5.81791,0.69269 -9.16349,1.13702c-1.55343,0.20631 -2.97899,1.00567 -4.52618,1.25411c-0.02148,0.00346 -5.40237,0.70625 -5.60134,0.76383c-0.48419,0.14013 -3.82907,1.70519 -4.80686,1.93383c-6.45517,1.50957 -13.30971,1.26378 -19.90202,2.14246c-4.50188,0.2888 -8.88265,1.17902 -13.34568,1.77114c-2.43142,0.32258 -5.27454,0.41175 -7.65024,1.03162c-2.39006,0.62363 -4.32863,1.56769 -6.86002,1.71613c-1.68882,0.09903 -3.35678,-0.05647 -5.03996,-0.09234c-0.29969,-1.40267 -0.55767,-2.91937 -0.77531,-4.55805c-0.08678,-0.65344 -0.17068,-1.30392 -0.25109,-1.95118c1.99253,-0.09803 3.88275,0.17572 5.97677,-0.03016c6.51733,-0.64077 12.97398,-1.90915 19.48769,-2.58809c7.8486,-0.81807 16.25574,-1.25089 23.87591,-3.33825c9.78303,-1.27605 19.56867,-2.46714 29.34688,-3.73668c0.055,0.40042 0.10921,0.80227 0.16276,1.20549z" fill="#004cff" stroke-width="0"/><path d="M191.61357,200.03525c0.34622,0.03982 0.60219,0.00582 0.60219,0.00582c16.97534,-2.25453 33.90344,-4.50278 50.89289,-6.75918c3.70696,-0.501 6.98172,-1.91345 10.62208,-2.38821c2.58589,-0.33724 5.25364,-0.19277 7.8557,-0.39512c2.69536,-0.2096 5.3419,-0.56886 8.01281,-0.76141c0.34357,1.68687 0.64988,3.41779 0.9309,5.18473c-9.86124,1.27311 -19.73039,2.45132 -29.59089,3.78152c-7.4858,2.05055 -15.73659,2.46654 -23.44724,3.27265c-6.51185,0.68078 -12.96864,1.90042 -19.47981,2.58727c-2.09993,0.22152 -3.99917,-0.02267 -6.02762,0.05742c-0.15473,-1.55152 -0.28122,-3.0811 -0.37102,-4.5855z" fill="#004cff" stroke-width="0"/><path d="M191.59936,191.10055c4.05514,-0.5269 7.88387,-0.47743 11.92815,-0.77439c12.12693,-0.89044 24.36767,-3.23175 36.42264,-4.83279c9.20927,-1.2231 18.4367,-2.31624 27.65408,-3.51432c0.38927,1.20046 0.74349,2.43626 1.06849,3.70347c-2.45624,0.20233 -4.89804,0.51106 -7.38165,0.70431c-2.685,0.20891 -5.43441,0.0615 -8.10295,0.42109c-3.66503,0.49388 -6.9069,1.90442 -10.62209,2.38821c-16.9896,2.25642 -33.91748,4.50464 -50.8929,6.75918c0,0 -0.07996,0.01062 -0.20703,0.04247c-0.01839,-1.67102 0.02175,-3.30506 0.13327,-4.89723z" fill="#004cff" stroke-width="0"/><path d="M193.23224,182.07435c5.16616,0.19662 10.58616,-1.06063 15.65399,-1.90524c11.67073,-1.94507 23.52649,-3.50352 35.27458,-4.85779c2.63397,-0.00597 4.57421,-0.57183 7.10555,-1.10166c3.60845,-0.75526 7.43394,-0.98126 11.09091,-1.46695l0.89977,-0.1195c1.10059,1.66522 2.04706,3.46904 2.8694,5.39128c-8.9063,1.15097 -17.82099,2.21138 -26.71894,3.39313c-11.96585,1.5892 -24.10249,3.89346 -36.13754,4.80405c-3.78019,0.28601 -7.41621,0.2705 -11.18425,0.68049c0.27606,-1.66403 0.65252,-3.27211 1.14652,-4.81781z" fill="#004cff" stroke-width="0"/><path d="M197.95882,173.33904c7.34679,-0.15427 14.54823,-1.88362 21.76252,-3.0809c8.47209,-1.40601 16.62679,-2.22144 24.94016,-4.45597c3.31826,-0.43624 6.63596,-0.87653 9.95364,-1.31717c2.16045,1.21813 4.02383,2.68445 5.63929,4.366c-3.28284,0.38522 -6.64548,0.66323 -9.85598,1.32822c-2.39891,0.49689 -3.94834,1.02525 -6.43917,1.01411c-11.90649,1.35168 -23.92175,2.94462 -35.74919,4.90979c-4.25384,0.70679 -8.90622,1.84701 -13.3127,1.88831c0.83453,-1.64496 1.84626,-3.19906 3.06143,-4.65237z" fill="#004cff" stroke-width="0"/><path d="M225.49318,161.1572c8.51067,-1.13032 15.35939,-0.9631 20.89997,0.26416c-0.85446,0.11413 -1.70889,0.22844 -2.5633,0.34297c-8.28029,2.20343 -16.37994,3.02576 -24.81526,4.43291c-5.38934,0.89902 -10.79109,2.1317 -16.2485,2.7077c5.17001,-3.71325 12.49818,-6.38922 22.72709,-7.74774z" fill="#004cff" stroke-width="0"/></g><path d="M225.41179,161.27373c36.86725,-4.89641 42.54776,14.5559 45.80088,39.05015c3.25313,24.49424 -11.34546,25.30124 -37.21259,28.7367c-25.86712,3.43546 -38.1332,6.19642 -41.38632,-18.29783c-3.25313,-24.49425 -2.43956,-44.80905 32.79804,-49.48902z" fill="none" stroke-width="1.5"/></g><g stroke="#000000" stroke-width="1.5" stroke-linecap="butt"><path d="M257.76644,146.44983c5.18481,16.05831 -5.74344,33.96167 -24.40892,39.98826c-18.66548,6.02659 -37.99997,-2.10573 -43.18476,-18.16404c-5.18481,-16.05831 5.74345,-33.96167 24.40893,-39.98826c18.66548,-6.02659 37.99994,2.10573 43.18476,18.16405z" fill="#ff7b2f"/><path d="M254.03114,149.33617c3.9006,12.08091 -6.17434,26.14832 -22.50304,31.42042c-16.32869,5.27211 -32.72779,-0.24753 -36.6284,-12.32844c-3.90061,-12.08091 6.17436,-26.14831 22.50305,-31.42042c16.32869,-5.27211 32.72777,0.24752 36.62839,12.32844z" fill="#ff0000"/></g><g stroke="#000000" stroke-width="1.5" stroke-linecap="butt"><path d="M188.47553,143.70316l-18.17227,-28.83611l17.33083,3.44537l3.5086,-11.7449l14.65115,4.3019l8.04178,-11.58557l13.84957,5.61186l13.4935,-11.97216l-0.24106,33.841z" fill="#000000"/><path d="M259.05382,121.55932c0.48167,0.79688 4.69667,4.00394 5.05168,4.8123c2.37279,5.40266 0.52807,6.95185 -2.73356,8.92333c-3.74963,2.26645 -9.78949,-0.85975 -13.49042,-6.98257c-3.70093,-6.12282 -3.66143,-12.92368 0.0882,-15.19014c3.11419,-1.88237 5.49044,-3.10291 9.11217,1.08161c0.739,0.85384 1.34474,6.31785 1.97192,7.35546z" fill="#ff7b2f"/><path d="M169.66269,141.69514c0.49086,-5.51237 3.13219,-5.91186 6.75917,-6.20603c4.36704,-0.35421 8.37613,5.13947 8.95451,12.27047c0.5784,7.131 -2.49293,13.19897 -6.85998,13.55318c-3.79869,0.30811 -6.20104,0.13019 -7.43565,-5.63996c-0.18473,-0.86334 1.35898,-5.92973 1.28371,-6.85783c-0.09802,-1.20846 -2.80192,-5.99505 -2.70176,-7.11982z" data-paper-data="{&quot;index&quot;:null}" fill="#ff7b2f"/><path d="M256.76727,133.00362c1.83972,5.69794 -12.3174,20.17926 -33.35561,26.97194c-21.03821,6.79268 -40.10541,5.27088 -42.83045,-2.37348c-5.66571,-15.89355 7.6669,-34.58269 28.70511,-41.37538c21.03821,-6.79268 42.29615,0.71861 47.48096,16.77692z" fill="#ff7b2f"/><path d="M224.87365,139.73145c1.67043,5.17365 -0.31264,10.44523 -4.42931,11.77439c-4.11667,1.32916 -8.80806,-1.7874 -10.4785,-6.96106c-1.67043,-5.17365 0.31263,-10.44524 4.42931,-11.77441c4.11667,-1.32917 8.80806,1.78742 10.4785,6.96108z" fill="#ff3e00"/><path d="M209.15625,133.53971c1.49957,4.64445 -1.00708,9.61136 -5.59874,11.09389c-4.59167,1.48253 -9.52961,-1.08072 -11.02918,-5.72517c-1.49957,-4.64445 1.00707,-9.61136 5.59875,-11.09389c4.59167,-1.48253 9.5296,1.08072 11.02917,5.72518z" fill="#ffffff"/><path d="M204.50635,138.4715c0.74979,2.32223 -0.50353,4.80567 -2.79937,5.54693c-2.29583,0.74126 -4.7648,-0.54035 -5.51459,-2.86257c-0.74979,-2.32223 0.50355,-4.80568 2.79937,-5.54695c2.29583,-0.74126 4.7648,0.54036 5.51459,2.86259z" fill="#000000"/><path d="M224.38152,119.23677c4.59167,-1.48253 9.5296,1.08072 11.02917,5.72517c1.49957,4.64445 -1.00707,9.61136 -5.59874,11.09389c-4.59167,1.48253 -9.52961,-1.08074 -11.02918,-5.72518c-1.49957,-4.64445 1.00708,-9.61135 5.59875,-11.09388z" data-paper-data="{&quot;index&quot;:null}" fill="#ffffff"/><path d="M224.92302,127.66916c2.29583,-0.74126 4.7648,0.54034 5.51459,2.86257c0.74979,2.32223 -0.50355,4.80568 -2.79937,5.54694c-2.29583,0.74126 -4.76479,-0.54036 -5.51458,-2.86259c-0.74979,-2.32223 0.50354,-4.80566 2.79937,-5.54693z" data-paper-data="{&quot;index&quot;:null}" fill="#000000"/></g><g data-paper-data="{&quot;index&quot;:null}" stroke-linecap="butt"><path d="M243.65411,216.59608c4.6113,-13.69491 8.49356,-25.72991 24.06377,-19.50556c13.88765,5.55174 11.97607,16.39317 7.36477,30.08807c-4.61131,13.69491 -10.63726,30.09344 -21.58659,19.25242c-15.89069,-15.73351 -14.45325,-16.14003 -9.84195,-29.83494z" fill="#252525" stroke="#000000" stroke-width="1.5"/><path d="M269.19868,198.97788l-15.5201,46.09246l-4.68737,-1.57831l15.5201,-46.09246z" fill="url(#color-19)" stroke="none" stroke-width="0"/><path d="M243.65411,216.59608c4.6113,-13.69491 8.49356,-25.72991 24.06377,-19.50556c13.88765,5.55174 11.97607,16.39317 7.36477,30.08807c-4.61131,13.69491 -10.63726,30.09344 -21.58659,19.25242c-15.89069,-15.73351 -14.45325,-16.14003 -9.84195,-29.83494z" fill="#669bff" stroke="#000000" stroke-width="1.5"/></g><path d="M276.33213,200.85733c0,2.75945 -2.35789,4.99642 -5.2665,4.99642c-2.90861,0 -5.26651,-2.23698 -5.26651,-4.99642c0,-2.75945 2.3579,-4.99643 5.26651,-4.99643c2.90861,0 5.2665,2.23698 5.2665,4.99643z" fill="url(#color-20)" stroke="none" stroke-width="0" stroke-linecap="butt"/><g stroke-linecap="butt"><path d="M255.33748,226.71852c0,-14.45042 -0.98558,-23.38562 16.16901,-24.31007c14.9332,0.82976 16.99335,9.85965 16.99335,24.31005c0,14.45042 -1.09616,23.87736 -16.78726,23.69182c-15.54684,-0.15416 -16.3751,-9.2414 -16.3751,-23.69182z" data-paper-data="{&quot;index&quot;:null}" fill="#252525" stroke="#000000" stroke-width="1.5"/><path d="M273.71823,201.86987v48.63526h-4.94596v-48.63526z" data-paper-data="{&quot;index&quot;:null}" fill="url(#color-21)" stroke="none" stroke-width="0"/><path d="M255.33748,226.71852c0,-14.45042 -0.98558,-23.38562 16.16901,-24.31007c14.9332,0.82976 16.99335,9.85965 16.99335,24.31005c0,14.45042 -1.09616,23.87736 -16.78726,23.69182c-15.54684,-0.15416 -16.3751,-9.2414 -16.3751,-23.69182z" data-paper-data="{&quot;index&quot;:null}" fill="#669bff" stroke="#000000" stroke-width="1.5"/></g><g stroke-width="1.5"><path d="M314.8687,255.70785c0,9.87398 -59.36231,9.87398 -59.36231,0c0,-9.87398 13.28871,-19.53384 29.68116,-19.53384c16.39245,0 29.68115,9.65985 29.68115,19.53384z" fill="#b10000" stroke="#000000" stroke-linecap="butt"/><path d="M255.31112,263.48828v-7.94597c0,0 24.11045,0 34.99283,0c1.41935,0 2.46207,-6.66035 16.58957,-7.00678c8.40413,-0.20608 7.97519,7.00678 7.97519,7.00678v7.94597z" fill="#b0b0b0" stroke="#000000" stroke-linecap="butt"/><path d="M292.21729,248.58959c0,0 4.80793,-3.01978 7.39614,-3.9686c2.14456,-0.78618 7.0539,-1.32871 7.0539,-1.32871" fill="none" stroke="#ffffff" stroke-linecap="round"/><path d="M286.74971,245.11323c0,0 4.80793,-3.01978 7.39614,-3.9686c2.14456,-0.78618 7.0539,-1.32871 7.0539,-1.32871" fill="none" stroke="#ffffff" stroke-linecap="round"/><path d="M279.13415,242.63011c0,0 4.80792,-3.01978 7.39613,-3.9686c2.14456,-0.78618 7.05391,-1.32871 7.05391,-1.32871" fill="none" stroke="#ffffff" stroke-linecap="round"/></g><g data-paper-data="{&quot;index&quot;:null}" stroke-linecap="butt"><path d="M220.76499,216.09607c4.6113,13.69491 6.04875,14.10143 -9.84194,29.83494c-10.94932,10.84102 -16.97528,-5.55751 -21.58659,-19.25242c-4.6113,-13.6949 -6.52289,-24.53633 7.36477,-30.08807c15.57021,-6.22435 19.45247,5.81065 24.06377,19.50556z" fill="#252525" stroke="#000000" stroke-width="1.5"/><path d="M199.9078,196.89956l15.52011,46.09246l-4.68737,1.57831l-15.5201,-46.09246z" fill="url(#color-22)" stroke="none" stroke-width="0"/><path d="M220.76499,216.09607c4.6113,13.69491 6.04875,14.10143 -9.84194,29.83494c-10.94932,10.84102 -16.97528,-5.55751 -21.58659,-19.25242c-4.6113,-13.6949 -6.52289,-24.53633 7.36477,-30.08807c15.57021,-6.22435 19.45247,5.81065 24.06377,19.50556z" fill="#669bff" stroke="#000000" stroke-width="1.5"/></g><path d="M209.15625,133.28971c0.17957,0.61067 -16.23473,6.27807 -16.62792,5.36871c-1.96099,-4.53537 1.00707,-9.61136 5.59875,-11.09389c4.59167,-1.48253 9.69872,1.20073 11.02917,5.72518z" fill="#ff7b2f" stroke="#000000" stroke-width="1.5" stroke-linecap="butt"/><path d="M235.40625,125.03971c0.17957,0.61067 -16.23473,6.27807 -16.62792,5.36871c-1.96099,-4.53536 1.00707,-9.61136 5.59875,-11.09389c4.59167,-1.48253 9.69872,1.20073 11.02917,5.72517z" fill="#ff7b2f" stroke="#000000" stroke-width="1.5" stroke-linecap="butt"/><path d="M199.33213,201.85733c0,2.75945 -2.35789,4.99642 -5.2665,4.99642c-2.90861,0 -5.26651,-2.23698 -5.26651,-4.99642c0,-2.75945 2.3579,-4.99643 5.26651,-4.99643c2.90861,0 5.2665,2.23698 5.2665,4.99643z" fill="url(#color-23)" stroke="none" stroke-width="0" stroke-linecap="butt"/><g data-paper-data="{&quot;index&quot;:null}" stroke-linecap="butt"><path d="M209.08163,226.2185c0,14.45042 -0.82826,23.53766 -16.3751,23.69182c-15.6911,0.18554 -16.78726,-9.2414 -16.78726,-23.69182c0,-14.4504 2.06015,-23.48029 16.99335,-24.31005c17.15459,0.92445 16.16901,9.85965 16.16901,24.31007z" data-paper-data="{&quot;index&quot;:null}" fill="#252525" stroke="#000000" stroke-width="1.5"/><path d="M195.64684,201.36987v48.63526h-4.94596v-48.63526z" data-paper-data="{&quot;index&quot;:null}" fill="url(#color-24)" stroke="none" stroke-width="0"/><path d="M209.08163,226.2185c0,14.45042 -0.82826,23.53766 -16.3751,23.69182c-15.6911,0.18554 -16.78726,-9.2414 -16.78726,-23.69182c0,-14.4504 2.06015,-23.48029 16.99335,-24.31005c17.15459,0.92445 16.16901,9.85965 16.16901,24.31007z" data-paper-data="{&quot;index&quot;:null}" fill="#669bff" stroke="#000000" stroke-width="1.5"/></g><g data-paper-data="{&quot;index&quot;:null}" stroke-width="1.5"><path d="M179.23156,235.67401c16.39245,0 29.68116,9.65986 29.68116,19.53384c0,9.87398 -59.36231,9.87398 -59.36231,0c0,-9.87399 13.2887,-19.53384 29.68115,-19.53384z" fill="#b10000" stroke="#000000" stroke-linecap="butt"/><path d="M149.5504,262.98828v-7.94597c0,0 -0.42894,-7.21286 7.97519,-7.00678c14.1275,0.34643 15.17022,7.00678 16.58957,7.00678c10.88238,0 34.99283,0 34.99283,0v7.94597z" fill="#b0b0b0" stroke="#000000" stroke-linecap="butt"/><path d="M157.75178,242.79228c0,0 4.90934,0.54253 7.0539,1.32871c2.58821,0.94882 7.39614,3.9686 7.39614,3.9686" fill="none" stroke="#ffffff" stroke-linecap="round"/><path d="M163.21936,239.31592c0,0 4.90934,0.54253 7.0539,1.32871c2.58821,0.94882 7.39614,3.9686 7.39614,3.9686" fill="none" stroke="#ffffff" stroke-linecap="round"/><path d="M170.83492,236.8328c0,0 4.90935,0.54253 7.05391,1.32871c2.58821,0.94882 7.39613,3.9686 7.39613,3.9686" fill="none" stroke="#ffffff" stroke-linecap="round"/></g></g><path d="M-73.81381,377.44744v-406.90691h147.14715v406.90691z" fill="url(#color-25)" stroke="none" stroke-width="0" stroke-linecap="butt"/><path d="M384.63964,380.94594v-406.9069h147.14715v406.9069z" data-paper-data="{&quot;index&quot;:null}" fill="url(#color-26)" stroke="none" stroke-width="0" stroke-linecap="butt"/><path d="M298.55855,377.44744v-405.40541h94.5946v405.40541z" fill="url(#color-27)" stroke="none" stroke-width="0" stroke-linecap="butt"/><g stroke="none" stroke-width="0" stroke-linecap="butt"><path d="M301.72619,327.86914v-101h13.05406v101z" fill="url(#color-28)"/><path d="M306.8343,256.86914v-16h24.12162v16z" fill="url(#color-29)"/></g></g></g></svg>