<svg version="1.1" xmlns="http://www.w3.org/2000/svg" xmlns:xlink="http://www.w3.org/1999/xlink" width="643.24318" height="745.3407" viewBox="0,0,643.24318,745.3407"><defs><linearGradient x1="238.6131" y1="480.26988" x2="217.67501" y2="506.50586" gradientUnits="userSpaceOnUse" id="color-1"><stop offset="0" stop-color="#5c5c5c"/><stop offset="1" stop-color="#9b9b9b"/></linearGradient><linearGradient x1="250.60162" y1="419.45777" x2="235.34245" y2="417.22906" gradientUnits="userSpaceOnUse" id="color-2"><stop offset="0" stop-color="#5c5c5c"/><stop offset="1" stop-color="#9b9b9b"/></linearGradient><linearGradient x1="225.56696" y1="749.24305" x2="219.37074" y2="745.02992" gradientUnits="userSpaceOnUse" id="color-3"><stop offset="0" stop-color="#5c5c5c"/><stop offset="1" stop-color="#9b9b9b"/></linearGradient><linearGradient x1="251.71325" y1="735.87816" x2="244.36432" y2="734.4165" gradientUnits="userSpaceOnUse" id="color-4"><stop offset="0" stop-color="#5c5c5c"/><stop offset="1" stop-color="#9b9b9b"/></linearGradient><linearGradient x1="222.53274" y1="629.23116" x2="194.38328" y2="647.51627" gradientUnits="userSpaceOnUse" id="color-5"><stop offset="0" stop-color="#5c5c5c"/><stop offset="1" stop-color="#9b9b9b"/></linearGradient><linearGradient x1="183.26122" y1="692.98345" x2="182.99853" y2="684.15809" gradientUnits="userSpaceOnUse" id="color-6"><stop offset="0" stop-color="#5c5c5c"/><stop offset="1" stop-color="#9b9b9b"/></linearGradient><linearGradient x1="196.53967" y1="714.60464" x2="191.76984" y2="707.17465" gradientUnits="userSpaceOnUse" id="color-7"><stop offset="0" stop-color="#5c5c5c"/><stop offset="1" stop-color="#9b9b9b"/></linearGradient><linearGradient x1="219.15253" y1="718.25732" x2="214.38281" y2="710.82733" gradientUnits="userSpaceOnUse" id="color-8"><stop offset="0" stop-color="#5c5c5c"/><stop offset="1" stop-color="#9b9b9b"/></linearGradient><linearGradient x1="240.88291" y1="711.53086" x2="236.11309" y2="704.10083" gradientUnits="userSpaceOnUse" id="color-9"><stop offset="0" stop-color="#5c5c5c"/><stop offset="1" stop-color="#9b9b9b"/></linearGradient><linearGradient x1="243.9139" y1="777.20861" x2="236.5181" y2="776.00678" gradientUnits="userSpaceOnUse" id="color-10"><stop offset="0" stop-color="#5c5c5c"/><stop offset="1" stop-color="#9b9b9b"/></linearGradient><linearGradient x1="255.38214" y1="784.17599" x2="252.45301" y2="788.52369" gradientUnits="userSpaceOnUse" id="color-11"><stop offset="0" stop-color="#5c5c5c"/><stop offset="1" stop-color="#9b9b9b"/></linearGradient><linearGradient x1="233.01938" y1="760.40221" x2="228.528" y2="763.10585" gradientUnits="userSpaceOnUse" id="color-12"><stop offset="0" stop-color="#5c5c5c"/><stop offset="1" stop-color="#9b9b9b"/></linearGradient><linearGradient x1="279.51733" y1="754.46901" x2="272.23871" y2="756.24801" gradientUnits="userSpaceOnUse" id="color-13"><stop offset="0" stop-color="#5c5c5c"/><stop offset="1" stop-color="#9b9b9b"/></linearGradient><linearGradient x1="292.7951" y1="756.40967" x2="291.7944" y2="761.55568" gradientUnits="userSpaceOnUse" id="color-14"><stop offset="0" stop-color="#5c5c5c"/><stop offset="1" stop-color="#9b9b9b"/></linearGradient><linearGradient x1="262.92891" y1="743.2453" x2="259.84834" y2="747.48704" gradientUnits="userSpaceOnUse" id="color-15"><stop offset="0" stop-color="#5c5c5c"/><stop offset="1" stop-color="#9b9b9b"/></linearGradient><linearGradient x1="206.51045" y1="787.60496" x2="200.00134" y2="783.89366" gradientUnits="userSpaceOnUse" id="color-16"><stop offset="0" stop-color="#5c5c5c"/><stop offset="1" stop-color="#9b9b9b"/></linearGradient><linearGradient x1="214.81957" y1="798.1419" x2="210.55543" y2="801.19123" gradientUnits="userSpaceOnUse" id="color-17"><stop offset="0" stop-color="#5c5c5c"/><stop offset="1" stop-color="#9b9b9b"/></linearGradient><linearGradient x1="199.09691" y1="754.99021" x2="194.76435" y2="748.87692" gradientUnits="userSpaceOnUse" id="color-18"><stop offset="0" stop-color="#5c5c5c"/><stop offset="1" stop-color="#9b9b9b"/></linearGradient><linearGradient x1="202.17822" y1="768.05051" x2="197.02513" y2="769.01352" gradientUnits="userSpaceOnUse" id="color-19"><stop offset="0" stop-color="#5c5c5c"/><stop offset="1" stop-color="#9b9b9b"/></linearGradient><linearGradient x1="202.92451" y1="735.73633" x2="197.85665" y2="734.39517" gradientUnits="userSpaceOnUse" id="color-20"><stop offset="0" stop-color="#5c5c5c"/><stop offset="1" stop-color="#9b9b9b"/></linearGradient><linearGradient x1="222.42255" y1="729.86585" x2="217.20557" y2="730.3808" gradientUnits="userSpaceOnUse" id="color-21"><stop offset="0" stop-color="#5c5c5c"/><stop offset="1" stop-color="#9b9b9b"/></linearGradient><linearGradient x1="241.25767" y1="719.26357" x2="236.65511" y2="721.77328" gradientUnits="userSpaceOnUse" id="color-22"><stop offset="0" stop-color="#5c5c5c"/><stop offset="1" stop-color="#9b9b9b"/></linearGradient><linearGradient x1="155.9017" y1="703.58098" x2="153.99316" y2="694.96036" gradientUnits="userSpaceOnUse" id="color-23"><stop offset="0" stop-color="#5c5c5c"/><stop offset="1" stop-color="#9b9b9b"/></linearGradient><linearGradient x1="153.27377" y1="719.17318" x2="147.23723" y2="717.86186" gradientUnits="userSpaceOnUse" id="color-24"><stop offset="0" stop-color="#5c5c5c"/><stop offset="1" stop-color="#9b9b9b"/></linearGradient><linearGradient x1="179.19426" y1="670.19954" x2="177.28568" y2="661.57888" gradientUnits="userSpaceOnUse" id="color-25"><stop offset="0" stop-color="#5c5c5c"/><stop offset="1" stop-color="#9b9b9b"/></linearGradient><linearGradient x1="168.86547" y1="684.42305" x2="163.97548" y2="680.6483" gradientUnits="userSpaceOnUse" id="color-26"><stop offset="0" stop-color="#5c5c5c"/><stop offset="1" stop-color="#9b9b9b"/></linearGradient><linearGradient x1="228.14257" y1="565.18024" x2="212.86933" y2="563.05009" gradientUnits="userSpaceOnUse" id="color-27"><stop offset="0" stop-color="#5c5c5c"/><stop offset="1" stop-color="#9b9b9b"/></linearGradient><linearGradient x1="514.80349" y1="359.71428" x2="548.32433" y2="361.4702" gradientUnits="userSpaceOnUse" id="color-28"><stop offset="0" stop-color="#5c5c5c"/><stop offset="1" stop-color="#9b9b9b"/></linearGradient><linearGradient x1="461.36378" y1="328.31309" x2="469.82605" y2="315.42125" gradientUnits="userSpaceOnUse" id="color-29"><stop offset="0" stop-color="#5c5c5c"/><stop offset="1" stop-color="#9b9b9b"/></linearGradient><linearGradient x1="724.62985" y1="528.50311" x2="725.59193" y2="521.07223" gradientUnits="userSpaceOnUse" id="color-30"><stop offset="0" stop-color="#5c5c5c"/><stop offset="1" stop-color="#9b9b9b"/></linearGradient><linearGradient x1="697.27812" y1="539.18633" x2="701.0632" y2="532.71978" gradientUnits="userSpaceOnUse" id="color-31"><stop offset="0" stop-color="#5c5c5c"/><stop offset="1" stop-color="#9b9b9b"/></linearGradient><linearGradient x1="636.88654" y1="446.56915" x2="669.24785" y2="437.65382" gradientUnits="userSpaceOnUse" id="color-32"><stop offset="0" stop-color="#5c5c5c"/><stop offset="1" stop-color="#9b9b9b"/></linearGradient><linearGradient x1="710.63585" y1="459.51697" x2="704.2097" y2="453.46218" gradientUnits="userSpaceOnUse" id="color-33"><stop offset="0" stop-color="#5c5c5c"/><stop offset="1" stop-color="#9b9b9b"/></linearGradient><linearGradient x1="717.99212" y1="483.80027" x2="715.60144" y2="475.30082" gradientUnits="userSpaceOnUse" id="color-34"><stop offset="0" stop-color="#5c5c5c"/><stop offset="1" stop-color="#9b9b9b"/></linearGradient><linearGradient x1="705.71342" y1="503.1372" x2="703.32267" y2="494.63783" gradientUnits="userSpaceOnUse" id="color-35"><stop offset="0" stop-color="#5c5c5c"/><stop offset="1" stop-color="#9b9b9b"/></linearGradient><linearGradient x1="686.25791" y1="514.92438" x2="683.86719" y2="506.42491" gradientUnits="userSpaceOnUse" id="color-36"><stop offset="0" stop-color="#5c5c5c"/><stop offset="1" stop-color="#9b9b9b"/></linearGradient><linearGradient x1="733.36661" y1="560.78859" x2="737.37713" y2="554.45945" gradientUnits="userSpaceOnUse" id="color-37"><stop offset="0" stop-color="#5c5c5c"/><stop offset="1" stop-color="#9b9b9b"/></linearGradient><linearGradient x1="730.96484" y1="573.99072" x2="736.16088" y2="574.68604" gradientUnits="userSpaceOnUse" id="color-38"><stop offset="0" stop-color="#5c5c5c"/><stop offset="1" stop-color="#9b9b9b"/></linearGradient><linearGradient x1="728.02887" y1="541.48433" x2="733.03234" y2="539.9199" gradientUnits="userSpaceOnUse" id="color-39"><stop offset="0" stop-color="#5c5c5c"/><stop offset="1" stop-color="#9b9b9b"/></linearGradient><linearGradient x1="692.72577" y1="572.32185" x2="698.88788" y2="568.05906" gradientUnits="userSpaceOnUse" id="color-40"><stop offset="0" stop-color="#5c5c5c"/><stop offset="1" stop-color="#9b9b9b"/></linearGradient><linearGradient x1="685.36333" y1="583.54058" x2="689.87632" y2="586.2081" gradientUnits="userSpaceOnUse" id="color-41"><stop offset="0" stop-color="#5c5c5c"/><stop offset="1" stop-color="#9b9b9b"/></linearGradient><linearGradient x1="695.34301" y1="552.46493" x2="700.56032" y2="552.97665" gradientUnits="userSpaceOnUse" id="color-42"><stop offset="0" stop-color="#5c5c5c"/><stop offset="1" stop-color="#9b9b9b"/></linearGradient><linearGradient x1="765.97072" y1="539.71554" x2="767.51581" y2="532.38376" gradientUnits="userSpaceOnUse" id="color-43"><stop offset="0" stop-color="#5c5c5c"/><stop offset="1" stop-color="#9b9b9b"/></linearGradient><linearGradient x1="768.3357" y1="552.92445" x2="773.44688" y2="551.75945" gradientUnits="userSpaceOnUse" id="color-44"><stop offset="0" stop-color="#5c5c5c"/><stop offset="1" stop-color="#9b9b9b"/></linearGradient><linearGradient x1="746.49917" y1="512.52104" x2="744.80298" y2="505.22265" gradientUnits="userSpaceOnUse" id="color-45"><stop offset="0" stop-color="#5c5c5c"/><stop offset="1" stop-color="#9b9b9b"/></linearGradient><linearGradient x1="754.22163" y1="523.49508" x2="758.36252" y2="520.28032" gradientUnits="userSpaceOnUse" id="color-46"><stop offset="0" stop-color="#5c5c5c"/><stop offset="1" stop-color="#9b9b9b"/></linearGradient><linearGradient x1="729.55832" y1="502.60288" x2="731.91933" y2="497.92232" gradientUnits="userSpaceOnUse" id="color-47"><stop offset="0" stop-color="#5c5c5c"/><stop offset="1" stop-color="#9b9b9b"/></linearGradient><linearGradient x1="712.22483" y1="513.28868" x2="716.07303" y2="509.72871" gradientUnits="userSpaceOnUse" id="color-48"><stop offset="0" stop-color="#5c5c5c"/><stop offset="1" stop-color="#9b9b9b"/></linearGradient><linearGradient x1="691.79247" y1="520.33769" x2="696.72469" y2="518.56137" gradientUnits="userSpaceOnUse" id="color-49"><stop offset="0" stop-color="#5c5c5c"/><stop offset="1" stop-color="#9b9b9b"/></linearGradient><linearGradient x1="736.72322" y1="446.08936" x2="731.54272" y2="438.93954" gradientUnits="userSpaceOnUse" id="color-50"><stop offset="0" stop-color="#5c5c5c"/><stop offset="1" stop-color="#9b9b9b"/></linearGradient><linearGradient x1="750.12913" y1="454.47414" x2="753.15549" y2="449.08892" gradientUnits="userSpaceOnUse" id="color-51"><stop offset="0" stop-color="#5c5c5c"/><stop offset="1" stop-color="#9b9b9b"/></linearGradient><linearGradient x1="696.29534" y1="441.35118" x2="691.11483" y2="434.20128" gradientUnits="userSpaceOnUse" id="color-52"><stop offset="0" stop-color="#5c5c5c"/><stop offset="1" stop-color="#9b9b9b"/></linearGradient><linearGradient x1="713.78948" y1="443.06788" x2="714.21234" y2="436.90494" gradientUnits="userSpaceOnUse" id="color-53"><stop offset="0" stop-color="#5c5c5c"/><stop offset="1" stop-color="#9b9b9b"/></linearGradient><linearGradient x1="585.25873" y1="408.24737" x2="593.80406" y2="395.41043" gradientUnits="userSpaceOnUse" id="color-54"><stop offset="0" stop-color="#5c5c5c"/><stop offset="1" stop-color="#9b9b9b"/></linearGradient><linearGradient x1="320.12764" y1="308.02762" x2="326.45679" y2="322.1076" gradientUnits="userSpaceOnUse" id="color-55"><stop offset="0" stop-color="#5c5c5c"/><stop offset="1" stop-color="#9b9b9b"/></linearGradient><linearGradient x1="238.39935" y1="350.32991" x2="265.88872" y2="337.97304" gradientUnits="userSpaceOnUse" id="color-56"><stop offset="0" stop-color="#5c5c5c"/><stop offset="1" stop-color="#9b9b9b"/></linearGradient><linearGradient x1="383.41239" y1="289.24104" x2="412.88742" y2="275.9916" gradientUnits="userSpaceOnUse" id="color-57"><stop offset="0" stop-color="#5c5c5c"/><stop offset="1" stop-color="#9b9b9b"/></linearGradient><linearGradient x1="366.79421" y1="340.08601" x2="381.8966" y2="343.28265" gradientUnits="userSpaceOnUse" id="color-58"><stop offset="0" stop-color="#5c5c5c"/><stop offset="1" stop-color="#9b9b9b"/></linearGradient><linearGradient x1="323.1161" y1="361.33183" x2="315.48193" y2="374.74906" gradientUnits="userSpaceOnUse" id="color-59"><stop offset="0" stop-color="#5c5c5c"/><stop offset="1" stop-color="#9b9b9b"/></linearGradient><linearGradient x1="379.21884" y1="450.24092" x2="395.98064" y2="442.70625" gradientUnits="userSpaceOnUse" id="color-60"><stop offset="0" stop-color="#5c5c5c"/><stop offset="1" stop-color="#9b9b9b"/></linearGradient><linearGradient x1="220.63083" y1="281.14078" x2="371.48717" y2="213.32871" gradientUnits="userSpaceOnUse" id="color-61"><stop offset="0" stop-color="#6c6c6c"/><stop offset="1" stop-color="#c4c4c4"/></linearGradient><linearGradient x1="258.92626" y1="236.87192" x2="318.26308" y2="210.19917" gradientUnits="userSpaceOnUse" id="color-62"><stop offset="0" stop-color="#6e6e6e"/><stop offset="1" stop-color="#c0c0c0"/></linearGradient><linearGradient x1="245.22335" y1="128.49861" x2="260.36808" y2="162.18992" gradientUnits="userSpaceOnUse" id="color-63"><stop offset="0" stop-color="#a6a6a6"/><stop offset="1" stop-color="#707070"/></linearGradient><linearGradient x1="254.57632" y1="149.97772" x2="283.73553" y2="214.84601" gradientUnits="userSpaceOnUse" id="color-64"><stop offset="0" stop-color="#a6a6a6"/><stop offset="1" stop-color="#707070"/></linearGradient><linearGradient x1="205.259" y1="151.81964" x2="260.37477" y2="222.09984" gradientUnits="userSpaceOnUse" id="color-65"><stop offset="0" stop-color="#a6a6a6"/><stop offset="1" stop-color="#707070"/></linearGradient><linearGradient x1="289.31839" y1="117.05606" x2="305.29509" y2="204.92988" gradientUnits="userSpaceOnUse" id="color-66"><stop offset="0" stop-color="#a6a6a6"/><stop offset="1" stop-color="#707070"/></linearGradient><linearGradient x1="277.20573" y1="199.64736" x2="285.56921" y2="218.25298" gradientUnits="userSpaceOnUse" id="color-67"><stop offset="0" stop-color="#a6a6a6"/><stop offset="1" stop-color="#707070"/></linearGradient><linearGradient x1="283.65936" y1="216.69363" x2="291.80844" y2="234.82228" gradientUnits="userSpaceOnUse" id="color-68"><stop offset="0" stop-color="#707070"/><stop offset="1" stop-color="#a6a6a6"/></linearGradient></defs><g transform="translate(-138.14352,-71.11627)"><g data-paper-data="{&quot;isPaintingLayer&quot;:true}" fill-rule="nonzero" stroke-linejoin="miter" stroke-miterlimit="10" stroke-dasharray="" stroke-dashoffset="0" style="mix-blend-mode: normal"><g data-paper-data="{&quot;index&quot;:null}" stroke-linecap="butt"><path d="M217.67504,506.50589c-7.2449,-5.78192 -8.43083,-16.34219 -2.64896,-23.58706c5.78189,-7.24486 16.34219,-8.43083 23.58706,-2.64896c7.24486,5.78189 8.43082,16.34222 2.64893,23.58709c-5.78189,7.24483 -16.34215,8.43084 -23.58706,2.6489z" fill="url(#color-1)" stroke="none" stroke-width="0"/><g><path d="M210.24172,481.5982c0,0 2.68903,-46.43296 6.24874,-68.85093c3.46404,-21.81576 17.1193,-63.56518 17.1193,-63.56518l40.05542,5.85041c0,0 0.3418,42.09445 -3.06413,63.54407c-3.60871,22.72661 -16.87063,69.37352 -16.87063,69.37352z" fill="#696969" stroke="#000000" stroke-width="2"/><path d="M224.88196,483.10594l20.92092,-131.75361l15.25924,2.22872l-20.92089,131.75353z" fill="url(#color-2)" stroke="none" stroke-width="0"/><path d="M243.71732,487.87237c-1.96655,0.94734 -2.17783,-2.22174 -2.17783,-2.22174l-0.26737,-4.51268c-1.83529,-5.12882 -4.64248,-8.45036 -6.84904,-13.0533c-1.46621,-3.05849 -2.19306,-6.90677 -3.52049,-10.09155c-1.45204,-3.48383 -3.60549,-5.86766 -4.14044,-10.50679c-1.34755,-11.68545 3.65905,-26.83889 10.37863,-32.58464c3.68612,-3.47815 7.06068,-7.9786 10.76983,-11.25855c0.62474,-0.55239 3.51744,-2.60295 4.23953,-4.3029c1.15851,-2.72722 0.5991,-9.69796 0.42632,-11.8278c-0.96935,-11.95034 -6.25764,-20.68228 -7.55113,-32.55832c0,0 -0.32139,-3.11081 1.63022,-4.23469c1.95162,-1.12385 2.27301,1.98696 2.27301,1.98696c1.15359,12.01978 6.60687,20.54669 7.56377,32.68948c0.35098,4.45382 0.76358,12.26548 -1.20281,16.94387c-1.98863,4.73134 -5.31785,5.92631 -7.9858,8.78636c-2.97566,3.18992 -5.75367,6.5924 -8.83426,9.49671c-4.93804,4.06658 -8.86541,15.82836 -7.82271,24.44972c0.4462,3.68924 2.46308,5.68748 3.62286,8.47927c1.29454,3.11617 1.99948,6.91656 3.43121,9.89153c2.47883,5.15066 5.40415,8.77714 7.36319,14.68487l0.40865,5.62784c0,0 0.21128,3.16906 -1.75529,4.11642z" fill="#000000" stroke="none" stroke-width="0.5"/><path d="M210.24172,481.5982c0,0 2.68903,-46.43296 6.24874,-68.85093c3.46404,-21.81576 17.1193,-63.56518 17.1193,-63.56518l40.05542,5.85041c0,0 0.3418,42.09445 -3.06413,63.54407c-3.60871,22.72661 -16.87063,69.37352 -16.87063,69.37352z" fill="#ff0000" stroke="#000000" stroke-width="2"/></g><path d="M220.36233,750.23455c-1.71104,-1.16343 -2.15499,-3.49368 -0.99159,-5.20468c1.1634,-1.711 3.49366,-2.15496 5.20466,-0.99155c1.71103,1.16339 2.15498,3.49369 0.99157,5.20468c-1.16343,1.71104 -3.49368,2.15497 -5.20467,0.99156z" data-paper-data="{&quot;index&quot;:null}" fill="url(#color-3)" stroke="none" stroke-width="0"/><path d="M247.30797,738.8218c-2.02934,-0.40365 -3.34729,-2.37596 -2.94367,-4.40533c0.40362,-2.02933 2.37597,-3.34721 4.40529,-2.9436c2.02933,0.40362 3.34727,2.37597 2.94366,4.40534c-0.40362,2.02933 -2.37599,3.34725 -4.40531,2.94363z" data-paper-data="{&quot;index&quot;:null}" fill="url(#color-4)" stroke="none" stroke-width="0"/><path d="M199.3155,624.29902c7.77324,-5.0493 18.16795,-2.8411 23.21725,4.93216c5.0493,7.77324 2.8411,18.16799 -4.93213,23.21724c-7.77324,5.0493 -18.16793,2.84113 -23.21725,-4.93216c-5.0493,-7.77324 -2.84107,-18.168 4.93216,-23.21725z" data-paper-data="{&quot;index&quot;:null}" fill="url(#color-5)" stroke="none" stroke-width="0"/><path d="M178.71718,688.70216c-0.07255,-2.43707 1.84421,-4.47151 4.28133,-4.54406c2.43713,-0.07251 4.47153,1.84428 4.54408,4.28135c0.07255,2.43707 -1.84421,4.47154 -4.28132,4.54407c-2.43704,0.07257 -4.4715,-1.84428 -4.54405,-4.28135z" data-paper-data="{&quot;index&quot;:null}" fill="url(#color-6)" stroke="none" stroke-width="0"/><path d="M190.43965,713.2746c-1.31712,-2.05169 -0.72163,-4.7828 1.33014,-6.09991c2.05174,-1.31709 4.78276,-0.72159 6.09989,1.33014c1.31712,2.05169 0.72166,4.78278 -1.33011,6.0999c-2.05171,1.31708 -4.78277,0.7216 -6.0999,-1.33013z" data-paper-data="{&quot;index&quot;:null}" fill="url(#color-7)" stroke="none" stroke-width="0"/><path d="M213.05262,716.92726c-1.31712,-2.05169 -0.72159,-4.78284 1.33015,-6.09993c2.05173,-1.31713 4.7828,-0.72163 6.09992,1.3301c1.31709,2.05174 0.72159,4.78284 -1.33015,6.09993c-2.05169,1.31712 -4.78276,0.72159 -6.0999,-1.33013z" data-paper-data="{&quot;index&quot;:null}" fill="url(#color-8)" stroke="none" stroke-width="0"/><path d="M234.78297,710.2008c-1.31709,-2.05174 -0.72159,-4.78279 1.33015,-6.0999c2.05173,-1.31713 4.78274,-0.72165 6.09988,1.33006c1.31712,2.05169 0.7216,4.78279 -1.33015,6.09993c-2.05169,1.31712 -4.78277,0.7216 -6.0999,-1.33013z" data-paper-data="{&quot;index&quot;:null}" fill="url(#color-9)" stroke="none" stroke-width="0"/><path d="M239.61503,780.3057c-2.04229,-0.33188 -3.42886,-2.25661 -3.09696,-4.29888c0.33188,-2.04228 2.25658,-3.42887 4.29887,-3.09699c2.04233,0.33187 3.42889,2.25658 3.09698,4.29886c-0.33188,2.04228 -2.25657,3.42888 -4.29888,3.09698z" data-paper-data="{&quot;index&quot;:null}" fill="url(#color-10)" stroke="none" stroke-width="0"/><g data-paper-data="{&quot;index&quot;:null}" stroke-width="1"><path d="M245.54504,771.87847c0,0 9.99938,4.36661 14.25962,7.23689c4.02087,2.70901 10.40557,9.85515 10.40557,9.85515l-7.68914,11.41257c0,0 -9.33234,-3.4431 -13.42184,-6.19829c-4.20241,-2.83136 -11.90242,-9.9155 -11.90242,-9.9155z" fill="#696969" stroke="#000000"/><path d="M243.03321,775.85601l24.69808,16.64009l-2.92921,4.34761l-24.69805,-16.6401z" fill="url(#color-11)" stroke="none"/><path d="M243.28441,775.43879c0,0 -0.44093,-0.5863 0.126,-0.93963c0.56695,-0.35331 1.00784,0.23299 1.00784,0.23299l0.77571,1.04997c0.48639,1.5006 0.41568,2.87045 0.6745,4.37953c0.14945,0.8716 0.58141,1.69235 0.78195,2.55188c0.17974,0.77011 0.0539,1.63039 0.52422,2.36508c1.09916,1.7169 3.74557,2.66602 5.42802,2.0617c1.10597,-0.31535 2.22349,-0.46845 3.35076,-0.70864c1.01072,-0.21531 1.90769,-0.88204 3.05988,-0.60671c1.13927,0.27218 2.24927,1.6893 2.85731,2.52739c1.65779,2.28496 1.79692,5.13475 3.39368,7.45027c0,0 0.40834,0.60524 -0.1824,0.92514c-0.59084,0.31987 -0.9992,-0.2854 -0.9992,-0.2854c-1.54471,-2.32789 -1.75073,-5.16901 -3.3763,-7.42496c-0.28968,-0.40205 -1.23926,-1.7164 -1.90598,-1.87195c-0.41563,-0.09692 -1.35027,0.31266 -1.56894,0.38275c-1.29826,0.41611 -2.71215,0.54045 -4.03595,0.9173c-2.32196,0.78677 -5.71999,-0.44986 -7.2239,-2.75989c-0.59701,-0.91707 -0.50119,-1.8775 -0.72434,-2.83974c-0.20409,-0.87967 -0.63857,-1.71409 -0.7935,-2.60876c-0.23319,-1.34631 -0.14092,-2.63427 -0.53434,-3.97211l-0.63502,-0.82618z" fill="#000000" stroke="none"/><path d="M245.54504,771.87847c0,0 9.99938,4.36661 14.25962,7.23689c4.02087,2.70901 10.40557,9.85515 10.40557,9.85515l-7.68914,11.41257c0,0 -9.33234,-3.4431 -13.42184,-6.19829c-4.20241,-2.83136 -11.90242,-9.9155 -11.90242,-9.9155z" fill="#ff0000" stroke="#000000"/></g><g data-paper-data="{&quot;index&quot;:null}" stroke-width="1"><path d="M229.29667,745.10042c0,0 7.21942,8.18137 9.86876,12.58244c2.50051,4.15378 5.26952,13.328 5.26952,13.328l-11.78989,7.0971c0,0 -7.00491,-7.06247 -9.54799,-11.2872c-2.61338,-4.34136 -6.60077,-14.01488 -6.60077,-14.01488z" fill="#696969" stroke="#000000"/><path d="M225.33998,747.64494l15.35887,25.51452l-4.4914,2.70364l-15.35889,-25.51452z" fill="url(#color-12)" stroke="none"/><path d="M225.74387,747.37303c0,0 -0.15201,-0.71762 0.5111,-0.79849c0.6631,-0.08087 0.81512,0.63685 0.81512,0.63685l0.25979,1.27936c-0.19291,1.56567 -0.83562,2.77745 -1.23842,4.25464c-0.23259,0.85317 -0.18778,1.77957 -0.36902,2.64336c-0.16238,0.77394 -0.63976,1.50055 -0.52373,2.36516c0.27114,2.02045 2.26904,3.99847 4.04927,4.16136c1.13567,0.18128 2.21327,0.51451 3.33651,0.77294c1.0071,0.23169 2.10172,0.0062 3.02984,0.74241c0.91771,0.72792 1.32535,2.48121 1.52249,3.49772c0.53758,2.77134 -0.53997,5.41321 -0.0706,8.1865c0,0 0.11453,0.72107 -0.5561,0.76152c-0.67065,0.04041 -0.78514,-0.68071 -0.78514,-0.68071c-0.41694,-2.76247 0.59633,-5.42475 0.07567,-8.15621c-0.09274,-0.48677 -0.39832,-2.07917 -0.93697,-2.50179c-0.33577,-0.26338 -1.35597,-0.28692 -1.58379,-0.31576c-1.3526,-0.1712 -2.6866,-0.65567 -4.04573,-0.87319c-2.437,-0.26756 -4.99483,-2.82371 -5.38232,-5.55274c-0.15376,-1.08337 0.33877,-1.91344 0.54289,-2.87997c0.18653,-0.88352 0.14509,-1.82347 0.38252,-2.69977c0.35728,-1.31891 0.98485,-2.44732 1.19329,-3.82611l-0.22662,-1.01706z" fill="#000000" stroke="none"/><path d="M229.29667,745.10042c0,0 7.21942,8.18137 9.86876,12.58244c2.50051,4.15378 5.26952,13.328 5.26952,13.328l-11.78989,7.0971c0,0 -7.00491,-7.06247 -9.54799,-11.2872c-2.61338,-4.34136 -6.60077,-14.01488 -6.60077,-14.01488z" fill="#ff0000" stroke="#000000"/></g><path d="M276.76755,758.99787c-2.00996,0.49126 -4.0376,-0.73992 -4.52883,-2.74982c-0.4912,-2.00991 0.73994,-4.03758 2.74988,-4.5288c2.00993,-0.49125 4.03753,0.73994 4.52877,2.74984c0.4912,2.00995 -0.73991,4.03761 -2.74985,4.52884z" data-paper-data="{&quot;index&quot;:null}" fill="url(#color-13)" stroke="none" stroke-width="0"/><g data-paper-data="{&quot;index&quot;:null}" stroke-width="1"><path d="M278.93943,748.92493c0,0 10.9106,0.11909 15.9531,1.09964c4.75922,0.92552 13.42607,5.01416 13.42607,5.01416l-2.62695,13.5081c0,0 -9.93602,0.47092 -14.77641,-0.47036c-4.97399,-0.96724 -14.8278,-4.48568 -14.8278,-4.48568z" fill="#696969" stroke="#000000"/><path d="M278.17858,753.56725l29.233,5.68489l-1.00072,5.14592l-29.23295,-5.68493z" fill="url(#color-14)" stroke="none"/><path d="M278.24724,753.08509c0,0 -0.63474,-0.36785 -0.25059,-0.91433c0.38413,-0.54652 1.01881,-0.17871 1.01881,-0.17871l1.12399,0.66405c1.03331,1.19192 1.50262,2.48074 2.32972,3.76927c0.47769,0.74418 1.19567,1.33139 1.7157,2.04457c0.46592,0.63896 0.68573,1.48022 1.40545,1.97317c1.68187,1.15196 4.48882,0.99331 5.80213,-0.21953c0.89521,-0.72181 1.86449,-1.29877 2.80874,-1.95977c0.84662,-0.59264 1.41234,-1.55639 2.58066,-1.75243c1.1552,-0.19384 2.73012,0.67782 3.61696,1.21226c2.41792,1.45705 3.6579,4.0267 6.03154,5.5357c0,0 0.6121,0.39788 0.19299,0.9229c-0.41917,0.52495 -1.03132,0.12705 -1.03132,0.12705c-2.33056,-1.54067 -3.62873,-4.07633 -6.00568,-5.51924c-0.42361,-0.25718 -1.81066,-1.09682 -2.48525,-0.97987c-0.42049,0.0729 -1.12131,0.8147 -1.2953,0.96454c-1.03308,0.88967 -2.28636,1.55584 -3.35817,2.41934c-1.83096,1.63034 -5.44218,1.8175 -7.72817,0.27735c-0.90753,-0.61144 -1.19395,-1.53321 -1.77491,-2.33211c-0.53112,-0.73031 -1.25677,-1.32908 -1.74846,-2.09234c-0.74003,-1.14866 -1.15757,-2.37053 -2.04183,-3.44884l-0.90703,-0.51299z" fill="#000000" stroke="none"/><path d="M278.93943,748.92493c0,0 10.9106,0.11909 15.9531,1.09964c4.75922,0.92552 13.42607,5.01416 13.42607,5.01416l-2.62695,13.5081c0,0 -9.93602,0.47092 -14.77641,-0.47036c-4.97399,-0.96724 -14.8278,-4.48568 -14.8278,-4.48568z" fill="#ff0000" stroke="#000000"/></g><g data-paper-data="{&quot;index&quot;:null}" stroke-width="1"><path d="M253.53107,730.6087c0,0 9.83934,4.71614 13.9958,7.73476c3.92297,2.84897 10.05198,10.2157 10.05198,10.2157l-8.08644,11.13461c0,0 -9.20523,-3.76966 -13.19514,-6.66731c-4.10005,-2.97757 -11.54573,-10.32864 -11.54573,-10.32864z" fill="#696969" stroke="#000000"/><path d="M250.8807,734.49532l24.09649,17.49984l-3.08055,4.24179l-24.09645,-17.49983z" fill="url(#color-15)" stroke="none"/><path d="M251.14641,734.08753c0,0 -0.42,-0.60153 0.159,-0.93469c0.579,-0.33316 0.999,0.2683 0.999,0.2683l0.73832,1.07659c0.43324,1.51686 0.31435,2.88336 0.5198,4.40063c0.11869,0.87635 0.52146,1.71177 0.69159,2.57787c0.15246,0.77594 -0.00359,1.63124 0.4406,2.38205c1.03794,1.75457 3.64928,2.79631 5.35196,2.25168c1.11641,-0.27621 2.2386,-0.38982 3.37364,-0.59009c1.01765,-0.17963 1.93764,-0.81426 3.07934,-0.4986c1.12895,0.31224 2.18833,1.76747 2.76648,2.62652c1.57621,2.34191 1.6149,5.19482 3.12913,7.56518c0,0 0.38683,0.61925 -0.21487,0.91807c-0.60175,0.29883 -0.98849,-0.32044 -0.98849,-0.32044c-1.46176,-2.38086 -1.56749,-5.22758 -3.11259,-7.53933c-0.27533,-0.41197 -1.17794,-1.75892 -1.83881,-1.93785c-0.41191,-0.11151 -1.36048,0.26491 -1.58152,0.32724c-1.3122,0.37013 -2.72956,0.44451 -4.0658,0.77452c-2.34825,0.70443 -5.70058,-0.65112 -7.12218,-3.01268c-0.56435,-0.93751 -0.43467,-1.89404 -0.62384,-2.86357c-0.17293,-0.88627 -0.57778,-1.73551 -0.70111,-2.63504c-0.18553,-1.35377 -0.04805,-2.63764 -0.3941,-3.98849l-0.60552,-0.84805z" fill="#000000" stroke="none"/><path d="M253.53107,730.6087c0,0 9.83934,4.71614 13.9958,7.73476c3.92297,2.84897 10.05198,10.2157 10.05198,10.2157l-8.08644,11.13461c0,0 -9.20523,-3.76966 -13.19514,-6.66731c-4.10005,-2.97757 -11.54573,-10.32864 -11.54573,-10.32864z" fill="#ff0000" stroke="#000000"/></g><path d="M200.00138,783.89366c1.02488,-1.79742 3.31276,-2.42372 5.11025,-1.39884c1.79745,1.02491 2.4237,3.31279 1.39884,5.11024c-1.02488,1.79742 -3.3128,2.42374 -5.11025,1.39884c-1.79743,-1.02483 -2.42372,-3.31282 -1.39884,-5.11024z" data-paper-data="{&quot;index&quot;:null}" fill="url(#color-16)" stroke="none" stroke-width="0"/><g data-paper-data="{&quot;index&quot;:null}" stroke-width="1"><path d="M209.90196,783.18125c0,0 7.84207,7.58654 10.8302,11.76498c2.82019,3.94368 6.30402,12.87092 6.30402,12.87092l-11.19346,8.00473c0,0 -7.53998,-6.48821 -10.40833,-10.49918c-2.94757,-4.1217 -7.68535,-13.45064 -7.68535,-13.45064z" fill="#696969" stroke="#000000"/><path d="M206.15807,786.02984l17.32304,24.22398l-4.26413,3.04939l-17.32303,-24.22392z" fill="url(#color-17)" stroke="none"/><path d="M206.53923,785.72706c0,0 -0.20809,-0.70351 0.44661,-0.83635c0.65467,-0.13286 0.86276,0.57059 0.86276,0.57059l0.35985,1.25492c-0.06886,1.57599 -0.61402,2.83466 -0.89906,4.339c-0.16461,0.86888 -0.0468,1.78885 -0.1594,2.66429c-0.10081,0.78431 -0.51938,1.54637 -0.33557,2.39913c0.42963,1.9928 2.5773,3.80712 4.36483,3.82907c1.14637,0.09112 2.24689,0.33846 3.387,0.50741c1.02222,0.15159 2.09572,-0.15951 3.07895,0.50119c0.97223,0.65325 1.51683,2.36905 1.79353,3.36681c0.75443,2.72026 -0.11138,5.43892 0.57518,8.16651c0,0 0.17106,0.70977 -0.49428,0.80294c-0.66536,0.09315 -0.83637,-0.61669 -0.83637,-0.61669c-0.63348,-2.721 0.16672,-5.45484 -0.56772,-8.13675c-0.13087,-0.478 -0.56101,-2.0413 -1.13137,-2.42011c-0.3555,-0.2361 -1.37441,-0.17908 -1.6038,-0.18986c-1.36184,-0.06404 -2.72991,-0.44185 -4.10193,-0.5515c-2.45048,-0.07459 -5.20187,-2.421 -5.8034,-5.11102c-0.23877,-1.0679 0.18682,-1.93434 0.31407,-2.91387c0.11636,-0.89552 0.00084,-1.82922 0.16844,-2.72152c0.25215,-1.34294 0.78885,-2.51733 0.88788,-3.90831l-0.3062,-0.99608z" fill="#000000" stroke="none"/><path d="M209.90196,783.18125c0,0 7.84207,7.58654 10.8302,11.76498c2.82019,3.94368 6.30402,12.87092 6.30402,12.87092l-11.19346,8.00473c0,0 -7.53998,-6.48821 -10.40833,-10.49918c-2.94757,-4.1217 -7.68535,-13.45064 -7.68535,-13.45064z" fill="#ff0000" stroke="#000000"/></g><path d="M194.76445,748.8769c1.68815,-1.19632 4.0266,-0.79774 5.22293,0.89042c1.19632,1.68815 0.79772,4.02657 -0.89046,5.22293c-1.68815,1.19632 -4.02656,0.79772 -5.22291,-0.89046c-1.19632,-1.68815 -0.79772,-4.02656 0.89043,-5.22288z" data-paper-data="{&quot;index&quot;:null}" fill="url(#color-18)" stroke="none" stroke-width="0"/><g data-paper-data="{&quot;index&quot;:null}" stroke-width="1"><path d="M204.03942,752.41282c0,0 3.90401,10.18891 4.8477,15.23845c0.89074,4.76582 0.27803,14.32913 0.27803,14.32913l-13.52694,2.52792c0,0 -4.09413,-9.06554 -4.99998,-13.91272c-0.93087,-4.98094 -1.28514,-15.43808 -1.28514,-15.43808z" fill="#696969" stroke="#000000"/><path d="M199.44279,753.41357l5.47082,29.27383l-5.15316,0.96307l-5.47074,-29.27383z" fill="url(#color-19)" stroke="none"/><path d="M199.91644,753.29992c0,0 0.10845,-0.72556 0.75797,-0.5695c0.64951,0.15608 0.54107,0.8816 0.54107,0.8816l-0.20384,1.28947c-0.72804,1.39943 -1.75377,2.31011 -2.64748,3.5533c-0.51627,0.71802 -0.79804,1.60169 -1.26984,2.34763c-0.42268,0.66835 -1.12397,1.18225 -1.31748,2.03284c-0.45232,1.98782 0.72811,4.53941 2.33905,5.31434c1.00064,0.56675 1.89375,1.25571 2.85579,1.89049c0.86252,0.56918 1.967,0.74058 2.57915,1.75472c0.6053,1.00282 0.37436,2.78794 0.20372,3.80925c-0.46507,2.78444 -2.39817,4.88297 -2.92785,7.64534c0,0 -0.14481,0.71561 -0.78718,0.51908c-0.64245,-0.1966 -0.49769,-0.91221 -0.49769,-0.91221c0.57505,-2.73398 2.45512,-4.87405 2.92211,-7.61516c0.08323,-0.48852 0.35358,-2.08725 -0.0034,-2.67148c-0.2225,-0.36411 -1.17011,-0.74279 -1.37347,-0.8495c-1.20739,-0.6332 -2.28793,-1.5534 -3.48529,-2.2323c-2.1897,-1.10264 -3.69256,-4.39157 -3.10161,-7.08391c0.23461,-1.06889 0.98633,-1.67439 1.51539,-2.50854c0.48366,-0.76249 0.77337,-1.65768 1.30215,-2.39572c0.79581,-1.11075 1.77823,-1.94864 2.45551,-3.16758l0.14316,-1.0321z" fill="#000000" stroke="none"/><path d="M204.03942,752.41282c0,0 3.90401,10.18891 4.8477,15.23845c0.89074,4.76582 0.27803,14.32913 0.27803,14.32913l-13.52694,2.52792c0,0 -4.09413,-9.06554 -4.99998,-13.91272c-0.93087,-4.98094 -1.28514,-15.43808 -1.28514,-15.43808z" fill="#ff0000" stroke="#000000"/></g><g data-paper-data="{&quot;index&quot;:null}" stroke-width="1"><path d="M211.31548,722.4099c0,0 -0.84543,10.87847 -2.15972,15.84444c-1.24046,4.68697 -5.89725,13.06226 -5.89725,13.06226l-13.30319,-3.52068c0,0 0.19182,-9.94544 1.45345,-14.71235c1.29641,-4.89855 5.4633,-14.49611 5.4633,-14.49611z" fill="#696969" stroke="#000000"/><path d="M206.73412,721.34157l-7.61921,28.78945l-5.06784,-1.3412l7.61924,-28.78942z" fill="url(#color-20)" stroke="none"/><path d="M207.21064,721.44221c0,0 0.4093,-0.60881 0.92903,-0.18912c0.51973,0.41968 0.11039,1.02853 0.11039,1.02853l-0.73739,1.07722c-1.25814,0.9517 -2.57535,1.33411 -3.91609,2.07357c-0.77435,0.42704 -1.40805,1.10431 -2.15429,1.57569c-0.6686,0.42234 -1.52254,0.58565 -2.06228,1.27093c-1.26146,1.60142 -1.2901,4.41269 -0.16749,5.80388c0.66066,0.94136 1.17179,1.94686 1.76841,2.93301c0.53488,0.88417 1.45887,1.51285 1.57671,2.69163c0.11645,1.16553 -0.85818,2.67892 -1.45045,3.52819c-1.61484,2.31547 -4.2613,3.38162 -5.92507,5.64949c0,0 -0.43785,0.58429 -0.93377,0.13108c-0.49591,-0.45318 -0.0581,-1.03746 -0.0581,-1.03746c1.69255,-2.2228 4.30896,-3.34918 5.90694,-5.62476c0.28479,-0.40553 1.21497,-1.73369 1.14319,-2.41451c-0.04473,-0.42438 -0.7382,-1.17311 -0.87612,-1.35671c-0.81888,-1.09006 -1.40007,-2.38491 -2.19025,-3.51188c-1.50475,-1.93554 -1.45103,-5.55119 0.23795,-7.72951c0.67056,-0.86476 1.6093,-1.0892 2.44511,-1.61563c0.76403,-0.48124 1.40986,-1.1655 2.20411,-1.60525c1.19543,-0.66185 2.44238,-0.99711 3.57716,-1.80756l0.57219,-0.87089z" fill="#000000" stroke="none"/><path d="M211.31548,722.4099c0,0 -0.84543,10.87847 -2.15972,15.84444c-1.24046,4.68697 -5.89725,13.06226 -5.89725,13.06226l-13.30319,-3.52068c0,0 0.19182,-9.94544 1.45345,-14.71235c1.29641,-4.89855 5.4633,-14.49611 5.4633,-14.49611z" fill="#ff0000" stroke="#000000"/></g><g data-paper-data="{&quot;index&quot;:null}" stroke-width="1"><path d="M225.62564,714.44692c0,0 3.01065,10.48771 3.5153,15.59979c0.47626,4.82494 -0.95899,14.2997 -0.95899,14.2997l-13.69459,1.35179c0,0 -3.2969,-9.38494 -3.78127,-14.29216c-0.4978,-5.04267 0.05119,-15.49139 0.05119,-15.49139z" fill="#696969" stroke="#000000"/><path d="M220.9599,715.04748l2.92534,29.63663l-5.21697,0.51492l-2.92544,-29.63657z" fill="url(#color-21)" stroke="none"/><path d="M221.4414,714.97533c0,0 0.17065,-0.71346 0.80428,-0.50196c0.63365,0.21153 0.46295,0.92502 0.46295,0.92502l-0.31429,1.26702c-0.84606,1.3314 -1.94651,2.1502 -2.9442,3.31169c-0.57622,0.67084 -0.9332,1.52684 -1.46756,2.22931c-0.47876,0.6294 -1.22177,1.08091 -1.48792,1.91166c-0.62204,1.94137 0.3339,4.5853 1.87203,5.49629c0.94807,0.65102 1.77838,1.41437 2.68208,2.12978c0.81021,0.64139 1.89574,0.90746 2.41819,1.97065c0.51662,1.05127 0.13245,2.80986 -0.12562,3.81262c-0.70357,2.73385 -2.81035,4.65784 -3.57639,7.36427c0,0 -0.20601,0.70047 -0.82904,0.4492c-0.62301,-0.25122 -0.41707,-0.95174 -0.41707,-0.95174c0.8087,-2.67417 2.86626,-4.64414 3.56799,-7.33471c0.12508,-0.47949 0.5323,-2.04903 0.22709,-2.66182c-0.19032,-0.38201 -1.10174,-0.84097 -1.29512,-0.96483c-1.14825,-0.73504 -2.14541,-1.74502 -3.27971,-2.52468c-2.08648,-1.28737 -3.30006,-4.69368 -2.47912,-7.32503c0.32594,-1.04463 1.12708,-1.58314 1.72614,-2.36853c0.54757,-0.71798 0.91346,-1.58479 1.50392,-2.27448c0.88867,-1.03797 1.93969,-1.78799 2.71959,-2.94399l0.23173,-1.01594z" fill="#000000" stroke="none"/><path d="M225.62564,714.44692c0,0 3.01065,10.48771 3.5153,15.59979c0.47626,4.82494 -0.95899,14.2997 -0.95899,14.2997l-13.69459,1.35179c0,0 -3.2969,-9.38494 -3.78127,-14.29216c-0.4978,-5.04267 0.05119,-15.49139 0.05119,-15.49139z" fill="#ff0000" stroke="#000000"/></g><g data-paper-data="{&quot;index&quot;:null}" stroke-width="1"><path d="M238.19101,703.81704c0,0 6.86399,8.4818 9.32317,12.99181c2.32103,4.25663 4.69626,13.54054 4.69626,13.54054l-12.08182,6.58783c0,0 -6.69728,-7.35483 -9.0579,-11.6841c-2.4258,-4.44878 -5.99706,-14.28359 -5.99706,-14.28359z" fill="#696969" stroke="#000000"/><path d="M234.12929,706.19048l14.25672,26.14638l-4.60255,2.50961l-14.25671,-26.14635z" fill="url(#color-22)" stroke="none"/><path d="M234.54457,705.93598c0,0 -0.12129,-0.72349 0.54465,-0.776c0.6659,-0.05253 0.78725,0.67104 0.78725,0.67104l0.20493,1.28928c-0.25955,1.55604 -0.95337,2.7392 -1.41876,4.19791c-0.26879,0.84249 -0.26346,1.76993 -0.48142,2.62526c-0.19526,0.76628 -0.70318,1.47186 -0.62415,2.34062c0.1847,2.03023 2.09645,4.09164 3.86813,4.33027c1.12691,0.22957 2.18928,0.60848 3.3005,0.91457c0.99623,0.27443 2.09953,0.09587 2.9954,0.87094c0.88582,0.76643 1.21826,2.53552 1.37193,3.55948c0.41891,2.79173 -0.77026,5.38525 -0.41961,8.17606c0,0 0.08365,0.72529 -0.58806,0.73707c-0.67173,0.01178 -0.75539,-0.71356 -0.75539,-0.71356c-0.29874,-2.7778 0.82717,-5.39443 0.4235,-8.14557c-0.07193,-0.49031 -0.30937,-2.09433 -0.82945,-2.53945c-0.32424,-0.2775 -1.34252,-0.34448 -1.5689,-0.38304c-1.34406,-0.22874 -2.65624,-0.76963 -4.00483,-1.04494c-2.42334,-0.37129 -4.86983,-3.03415 -5.1406,-5.77723c-0.10746,-1.08902 0.42006,-1.89734 0.66521,-2.85423c0.22406,-0.87474 0.2228,-1.81561 0.49734,-2.681c0.41324,-1.3024 1.08838,-2.40308 1.35539,-3.77177l-0.18311,-1.02579z" fill="#000000" stroke="none"/><path d="M238.19101,703.81704c0,0 6.86399,8.4818 9.32317,12.99181c2.32103,4.25663 4.69626,13.54054 4.69626,13.54054l-12.08182,6.58783c0,0 -6.69728,-7.35483 -9.0579,-11.6841c-2.4258,-4.44878 -5.99706,-14.28359 -5.99706,-14.28359z" fill="#ff0000" stroke="#000000"/></g><path d="M247.93157,691.634c2.36689,27.83333 -16.80035,34.80156 -37.57195,36.56791c-20.77159,1.76627 -35.2817,-2.33821 -37.64851,-30.1715c-2.36682,-27.83329 12.55312,-51.82849 33.32471,-53.59483c20.77157,-1.76637 39.52896,19.36519 41.89578,47.19841z" data-paper-data="{&quot;index&quot;:null}" fill="#ff0000" stroke="#000000" stroke-width="1"/><path d="M153.9932,694.96034c2.38051,-0.52697 4.73752,0.9756 5.26452,3.35608c0.52697,2.38051 -0.9755,4.73754 -3.35603,5.26452c-2.38046,0.52698 -4.7375,-0.9756 -5.26454,-3.35609c-0.52697,-2.38051 0.97552,-4.73753 3.35606,-5.26451z" data-paper-data="{&quot;index&quot;:null}" fill="url(#color-23)" stroke="none" stroke-width="0"/><g data-paper-data="{&quot;index&quot;:null}" stroke-width="1"><path d="M162.44801,703.04281c0,0 -0.42106,12.8504 -1.70605,18.76556c-1.21285,5.58282 -6.2526,15.68786 -6.2526,15.68786l-15.846,-3.44234c0,0 -0.2992,-11.71757 0.93432,-17.39566c1.26757,-5.83488 5.66607,-17.3528 5.66607,-17.3528z" fill="#696969" stroke="#000000"/><path d="M156.99854,702.027l-7.44954,34.29234l-6.03658,-1.31136l7.44957,-34.29235z" fill="url(#color-24)" stroke="none"/><path d="M157.56464,702.12031c0,0 0.44963,-0.73829 1.08367,-0.27168c0.63399,0.46659 0.18429,1.20486 0.18429,1.20486l-0.81119,1.30702c-1.4308,1.18672 -2.96126,1.70645 -4.50048,2.64767c-0.88901,0.54362 -1.59923,1.37424 -2.45279,1.96855c-0.76473,0.53247 -1.76136,0.76983 -2.36062,1.60497c-1.40041,1.95173 -1.28573,5.26264 0.10922,6.84106c0.8274,1.07325 1.48216,2.22988 2.23652,3.35928c0.67634,1.01262 1.7973,1.70398 1.99819,3.08534c0.19868,1.36589 -0.86874,3.19879 -1.5212,4.22983c-1.77878,2.81096 -4.8378,4.2057 -6.67665,6.96313c0,0 -0.48455,0.71087 -1.09229,0.20358c-0.60765,-0.50732 -0.12308,-1.21823 -0.12308,-1.21823c1.87501,-2.70586 4.89555,-4.16997 6.65655,-6.93306c0.31385,-0.49241 1.33874,-2.10488 1.21835,-2.90262c-0.07506,-0.49725 -0.93093,-1.34193 -1.10298,-1.55078c-1.02147,-1.23997 -1.77396,-2.73352 -2.76366,-4.01844c-1.87356,-2.19899 -2.00112,-6.45814 -0.1279,-9.11154c0.74362,-1.05344 1.83692,-1.36713 2.79305,-2.03099c0.87401,-0.60691 1.59809,-1.44636 2.50995,-2.00601c1.37224,-0.8422 2.82244,-1.30278 4.11547,-2.3167l0.62762,-1.05535z" fill="#000000" stroke="none"/><path d="M162.44801,703.04281c0,0 -0.42106,12.8504 -1.70605,18.76556c-1.21285,5.58282 -6.2526,15.68786 -6.2526,15.68786l-15.846,-3.44234c0,0 -0.2992,-11.71757 0.93432,-17.39566c1.26757,-5.83488 5.66607,-17.3528 5.66607,-17.3528z" fill="#ff0000" stroke="#000000"/></g><path d="M177.2857,661.57886c2.38051,-0.52697 4.73751,0.97559 5.26452,3.35607c0.52697,2.38051 -0.97554,4.73754 -3.35606,5.26455c-2.38043,0.52698 -4.73752,-0.97562 -5.26453,-3.3561c-0.52697,-2.38051 0.97551,-4.73752 3.35604,-5.2645z" data-paper-data="{&quot;index&quot;:null}" fill="url(#color-25)" stroke="none" stroke-width="0"/><g data-paper-data="{&quot;index&quot;:null}" stroke-width="1"><path d="M184.07342,673.7895c0,0 -5.89412,11.42673 -9.59291,16.21833c-3.49094,4.52237 -12.37912,11.48745 -12.37912,11.48745l-12.83606,-9.9085c0,0 4.75751,-10.71248 8.30808,-15.31208c3.64857,-4.72656 12.5637,-13.24306 12.5637,-13.24306z" fill="#696969" stroke="#000000"/><path d="M179.58701,670.53369l-21.443,27.77869l-4.88996,-3.77467l21.44302,-27.77873z" fill="url(#color-26)" stroke="none"/><path d="M180.05838,670.86087c0,0 0.72294,-0.47395 1.09538,0.21951c0.37241,0.69348 -0.35053,1.1674 -0.35053,1.1674l-1.29355,0.83248c-1.80156,0.458 -3.40696,0.27077 -5.20116,0.46045c-1.03633,0.10958 -2.03423,0.55515 -3.06023,0.72571c-0.9192,0.15283 -1.92128,-0.0605 -2.82091,0.43679c-2.10245,1.16204 -3.41943,4.20186 -2.83665,6.22616c0.28687,1.32444 0.38188,2.65015 0.57872,3.99398c0.17647,1.2048 0.89226,2.31025 0.48103,3.6442c-0.40665,1.31903 -2.15725,2.51663 -3.18901,3.16795c-2.81277,1.77588 -6.17436,1.72309 -9.01856,3.42481c0,0 -0.74269,0.43418 -1.07394,-0.2848c-0.33119,-0.719 0.41149,-1.15322 0.41149,-1.15322c2.85468,-1.63959 6.21131,-1.66605 8.98749,-3.4062c0.49479,-0.31008 2.11241,-1.32681 2.34592,-2.09902c0.14557,-0.48135 -0.26508,-1.61156 -0.33085,-1.87403c-0.3906,-1.55831 -0.42939,-3.23033 -0.77206,-4.81563c-0.74875,-2.79014 0.96349,-6.69199 3.79403,-8.28498c1.12373,-0.63237 2.24592,-0.44668 3.39432,-0.63601c1.04989,-0.17312 2.06412,-0.62083 3.1279,-0.73498c1.6009,-0.17194 3.10836,0.03435 4.71141,-0.32667l1.01973,-0.68395z" fill="#000000" stroke="none"/><path d="M184.07342,673.7895c0,0 -5.89412,11.42673 -9.59291,16.21833c-3.49094,4.52237 -12.37912,11.48745 -12.37912,11.48745l-12.83606,-9.9085c0,0 4.75751,-10.71248 8.30808,-15.31208c3.64857,-4.72656 12.5637,-13.24306 12.5637,-13.24306z" fill="#ff0000" stroke="#000000"/></g><g data-paper-data="{&quot;index&quot;:null}"><path d="M188.18476,627.57991c0,0 2.38912,-46.44931 5.80397,-68.88983c3.32311,-21.83764 16.70845,-63.67441 16.70845,-63.67441l40.09238,5.59162c0,0 0.61365,42.09138 -2.65371,63.56256c-3.46188,22.74944 -16.42223,69.48103 -16.42223,69.48103z" fill="#696969" stroke="#000000" stroke-width="2"/><path d="M202.83448,628.99314l20.06963,-131.88597l15.27328,2.13016l-20.06954,131.88589z" fill="url(#color-27)" stroke="none" stroke-width="0"/><path d="M221.70012,633.6378c-1.9604,0.96 -2.19214,-2.2076 -2.19214,-2.2076l-0.29651,-4.5109c-1.86839,-5.11689 -4.69695,-8.42021 -6.9332,-13.00878c-1.48592,-3.049 -2.23762,-6.89249 -3.58559,-10.0686c-1.47453,-3.47438 -3.64333,-5.84425 -4.20821,-10.47982c-1.42296,-11.67652 3.48562,-26.86201 10.16796,-32.65104c3.66356,-3.50183 7.00902,-8.02398 10.69693,-11.32786c0.62114,-0.55645 3.50049,-2.62562 4.21161,-4.33021c1.14084,-2.73469 0.53648,-9.70161 0.34995,-11.8303c-1.04649,-11.94383 -6.39107,-20.64146 -7.76123,-32.50892c0,0 -0.34146,-3.10865 1.60284,-4.24509c1.94433,-1.13639 2.2858,1.97225 2.2858,1.97225c1.23119,12.01205 6.7394,20.50358 7.77471,32.63995c0.37973,4.45147 0.84285,12.26031 -1.09333,16.95129c-1.95803,4.74409 -5.27944,5.96053 -7.92886,8.83775c-2.95503,3.20907 -5.71104,6.62944 -8.77276,9.55357c-4.91163,4.09836 -8.76298,15.88527 -7.66466,24.49973c0.46999,3.68627 2.49972,5.67146 3.67754,8.4557c1.31462,3.10773 2.04412,6.9035 3.49502,9.86914c2.51205,5.13451 5.46069,8.74203 7.45786,14.63702l0.44501,5.6251c0,0 0.23173,3.1676 -1.72868,4.12763z" fill="#000000" stroke="none" stroke-width="0.5"/><path d="M188.18476,627.57991c0,0 2.38912,-46.44931 5.80397,-68.88983c3.32311,-21.83764 16.70845,-63.67441 16.70845,-63.67441l40.09238,5.59162c0,0 0.61365,42.09138 -2.65371,63.56256c-3.46188,22.74944 -16.42223,69.48103 -16.42223,69.48103z" fill="#ff0000" stroke="#000000" stroke-width="2"/></g></g><g stroke-linecap="butt"><path d="M548.32433,361.4702c-0.48488,9.25659 -8.38187,16.36738 -17.63837,15.88251c-9.25653,-0.48489 -16.3674,-8.38188 -15.88251,-17.6384c0.48489,-9.25653 8.38188,-16.36736 17.6384,-15.88247c9.25653,0.48489 16.36737,8.38185 15.88247,17.6384z" fill="url(#color-28)" stroke="none" stroke-width="0"/><g><path d="M510.51258,376.11877c0,0 -43.69078,-21.04587 -63.0836,-33.43296c-18.30314,-11.69109 -49.55888,-39.88927 -49.55888,-39.88927l22.2135,-33.84116c0,0 40.28903,17.50071 58.90458,29.39137c19.12945,12.21888 55.64187,41.03022 55.64187,41.03022z" fill="#696969" stroke="#000000" stroke-width="2"/><path d="M517.57702,364.21916l-112.42648,-71.812l8.4623,-12.89189l112.42656,71.81203z" fill="url(#color-29)" stroke="none" stroke-width="0"/><path d="M517.10122,368.57841c-2.01396,0.84194 -4.24386,-1.41972 -4.24386,-1.41972l-3.93782,-4.04142c-3.11799,-5.38678 -3.88842,-9.9819 -6.09515,-15.25488c-1.2746,-3.0456 -3.64899,-6.09555 -5.12026,-9.13228c-1.31812,-2.72062 -1.4738,-5.55549 -3.93681,-8.33814c-5.75582,-6.50275 -17.15951,-11.373 -23.47882,-10.37923c-4.21706,0.37609 -8.60584,0.19519 -12.96687,0.30321c-3.91004,0.09686 -7.01373,1.79356 -11.87239,0.14018c-4.80428,-1.63487 -10.37278,-7.12888 -13.47083,-10.34786c-8.44645,-8.77613 -11.20384,-18.51488 -19.42773,-27.35647c0,0 -2.11326,-2.30534 0.02278,-3.01894c2.13605,-0.71357 4.2493,1.59176 4.2493,1.59176c8.02351,8.8508 11.04377,18.60224 19.33802,27.25994c1.47821,1.54302 6.32032,6.58862 9.12906,7.53252c1.75073,0.58839 5.20454,-0.21391 6.03238,-0.31447c4.91524,-0.59684 10.52121,-0.13325 15.5694,-0.5813c8.75778,-1.21154 23.41452,5.10295 31.25961,13.86766c3.11452,3.47958 3.46794,6.67255 5.10963,10.07113c1.50076,3.10687 3.89641,6.205 5.2106,9.33183c1.97784,4.70576 2.5986,9.01011 5.21619,13.78729l3.19757,3.19551c0,0 2.22991,2.26167 0.21599,3.10362z" fill="#000000" stroke="none" stroke-width="0.5"/><path d="M510.51258,376.11877c0,0 -43.69078,-21.04587 -63.0836,-33.43296c-18.30314,-11.69109 -49.55888,-39.88927 -49.55888,-39.88927l22.2135,-33.84116c0,0 40.28903,17.50071 58.90458,29.39137c19.12945,12.21888 55.64187,41.03022 55.64187,41.03022z" fill="#ff0000" stroke="#000000" stroke-width="2"/></g><path d="M728.82629,525.26869c-0.26566,2.05194 -2.14451,3.50006 -4.19649,3.23439c-2.05194,-0.26566 -3.50009,-2.14455 -3.2344,-4.19651c0.26566,-2.05194 2.14453,-3.50004 4.19647,-3.23439c2.05194,0.26566 3.50006,2.14453 3.23439,4.19651z" data-paper-data="{&quot;index&quot;:null}" fill="url(#color-30)" stroke="none" stroke-width="0"/><path d="M702.40398,537.84562c-1.04521,1.78567 -3.34016,2.38597 -5.12583,1.34075c-1.78569,-1.04524 -2.38596,-3.3402 -1.34075,-5.12587c1.04521,-1.78567 3.34013,-2.38597 5.12579,-1.34076c1.78569,1.04524 2.38594,3.34017 1.34074,5.12587z" data-paper-data="{&quot;index&quot;:null}" fill="url(#color-31)" stroke="none" stroke-width="0"/><path d="M648.6095,425.9309c8.93628,-2.46191 18.17642,2.78666 20.63829,11.72298c2.46191,8.93637 -2.78666,18.17642 -11.72298,20.63829c-8.93628,2.46191 -18.17638,-2.78668 -20.63826,-11.72299c-2.46189,-8.93634 2.78666,-18.17642 11.72298,-20.63829z" data-paper-data="{&quot;index&quot;:null}" fill="url(#color-32)" stroke="none" stroke-width="0"/><path d="M710.4502,453.27656c1.77454,1.672 1.85767,4.466 0.18567,6.2405c-1.67202,1.77457 -4.46596,1.85764 -6.2405,0.18563c-1.77454,-1.672 -1.85765,-4.46593 -0.18565,-6.24052c1.67202,-1.77457 4.46596,-1.85766 6.24049,-0.18565z" data-paper-data="{&quot;index&quot;:null}" fill="url(#color-33)" stroke="none" stroke-width="0"/><path d="M721.04658,478.35516c0.66018,2.34703 -0.70735,4.7849 -3.05435,5.44509c-2.34705,0.66022 -4.78491,-0.70735 -5.44507,-3.05435c-0.66018,-2.34703 0.70731,-4.78488 3.05433,-5.44508c2.34705,-0.66022 4.78494,0.70734 5.44511,3.05434z" data-paper-data="{&quot;index&quot;:null}" fill="url(#color-34)" stroke="none" stroke-width="0"/><path d="M708.76778,497.69214c0.66017,2.34704 -0.70734,4.78492 -3.05435,5.44509c-2.34702,0.66021 -4.78492,-0.70733 -5.44513,-3.05435c-0.66018,-2.34703 0.70735,-4.78491 3.05438,-5.44509c2.34702,-0.66021 4.78496,0.70734 5.44513,3.05435z" data-paper-data="{&quot;index&quot;:null}" fill="url(#color-35)" stroke="none" stroke-width="0"/><path d="M689.31232,509.47928c0.66018,2.34703 -0.70734,4.78492 -3.05435,5.44509c-2.34707,0.66019 -4.78496,-0.70734 -5.44513,-3.05435c-0.66017,-2.34704 0.70734,-4.78485 3.05437,-5.44503c2.34702,-0.66021 4.78489,0.7073 5.4451,3.05433z" data-paper-data="{&quot;index&quot;:null}" fill="url(#color-36)" stroke="none" stroke-width="0"/><path d="M738.5365,559.62928c-1.10746,1.74777 -3.42212,2.26682 -5.16986,1.15936c-1.74775,-1.10745 -2.26685,-3.4221 -1.15934,-5.16986c1.10748,-1.74774 3.42213,-2.26681 5.16987,-1.15934c1.74775,1.10745 2.26686,3.42211 1.15938,5.16986z" data-paper-data="{&quot;index&quot;:null}" fill="url(#color-37)" stroke="none" stroke-width="0"/><g data-paper-data="{&quot;index&quot;:null}" stroke-width="1"><path d="M743.10615,560.45177c0,0 0.18693,10.46137 -0.48506,15.48385c-0.65402,4.88748 -4.27377,14.15273 -4.27377,14.15273l-13.63961,-1.825c0,0 -1.10643,-9.5188 -0.46343,-14.32428c0.68128,-5.09156 4.05313,-15.46872 4.05313,-15.46872z" fill="#696969" stroke="#000000"/><path d="M738.13559,559.92727l-3.94952,29.51758l-5.19602,-0.69521l3.94955,-29.5176z" fill="url(#color-38)" stroke="none"/><path d="M732.46082,559.14296l0.19638,1.02336c0.73941,1.18231 1.76394,1.96827 2.61605,3.03635c0.56629,0.70976 0.90193,1.5886 1.42437,2.32517c0.57153,0.80564 1.35345,1.37151 1.64304,2.42678c0.72939,2.6582 -0.60137,6.02049 -2.73113,7.23483c-1.16059,0.73992 -2.19214,1.71485 -3.36514,2.4096c-0.19757,0.11702 -1.12431,0.54416 -1.32772,0.91935c-0.32624,0.60189 0.02644,2.18456 0.13483,2.6681c0.60817,2.71328 2.59629,4.75332 3.31195,7.45389c0,0 0.18161,0.7072 -0.44982,0.93675c-0.6314,0.22947 -0.813,-0.47769 -0.813,-0.47769c-0.67184,-2.73128 -2.71086,-4.72704 -3.31934,-7.48369c-0.22319,-1.0111 -0.54624,-2.78195 0.00645,-3.81469c0.55891,-1.0445 1.65297,-1.27277 2.48493,-1.88576c0.92794,-0.68364 1.78425,-1.41782 2.75425,-2.03565c1.56879,-0.85716 2.61565,-3.46644 2.0612,-5.4282c-0.23729,-0.83946 -0.96422,-1.3164 -1.42088,-1.96203c-0.50974,-0.72055 -0.83684,-1.58843 -1.38951,-2.27878c-0.95684,-1.19531 -2.0283,-2.05174 -2.82773,-3.41162l-0.27036,-1.27713c0,0 -0.14582,-0.71893 0.49475,-0.90842c0.64059,-0.18947 0.78639,0.5295 0.78639,0.5295z" fill="#000000" stroke="none"/><path d="M743.10615,560.45177c0,0 0.18693,10.46137 -0.48506,15.48385c-0.65402,4.88748 -4.27377,14.15273 -4.27377,14.15273l-13.63961,-1.825c0,0 -1.10643,-9.5188 -0.46343,-14.32428c0.68128,-5.09156 4.05313,-15.46872 4.05313,-15.46872z" fill="#ff0000" stroke="#000000"/></g><g data-paper-data="{&quot;index&quot;:null}" stroke-width="1"><path d="M733.31565,524.08415c0,0 4.58802,9.40354 6.10015,14.23992c1.47158,4.70639 2.10373,14.6335 2.10373,14.6335l-13.13415,4.10662c0,0 -5.02336,-8.16086 -6.47013,-12.78831c-1.53293,-4.90291 -2.85952,-15.73319 -2.85952,-15.73319z" fill="#696969" stroke="#000000"/><path d="M728.58878,525.70807l8.8871,28.42369l-5.00349,1.56445l-8.88711,-28.42368z" fill="url(#color-39)" stroke="none"/><path d="M723.11378,527.39415l0.61023,0.84463c1.16956,0.75935 2.4301,1.03904 3.65368,1.64732c0.81301,0.40412 1.48849,1.05906 2.2731,1.50604c0.85837,0.48892 1.80613,0.67157 2.51432,1.50571c1.78383,2.10135 1.99769,5.71114 0.5801,7.71139c-0.73952,1.16088 -1.2627,2.48018 -2.03252,3.60545c-0.12967,0.18952 -0.78927,0.96816 -0.81517,1.39412c-0.04149,0.68338 0.94663,1.96899 1.24913,2.36146c1.69725,2.20256 4.36099,3.21198 6.15029,5.35755c0,0 0.46332,0.56431 -0.01208,1.03907c-0.47542,0.47473 -0.93869,-0.08959 -0.93869,-0.08959c-1.76258,-2.19196 -4.45373,-3.13976 -6.16958,-5.38144c-0.62938,-0.82221 -1.6701,-2.29093 -1.60532,-3.46049c0.06548,-1.18285 0.96073,-1.85185 1.45597,-2.75885c0.55234,-1.01164 1.01842,-2.03877 1.63672,-3.00848c1.0599,-1.43957 0.90676,-4.24683 -0.42437,-5.7908c-0.56962,-0.66072 -1.42995,-0.78601 -2.11657,-1.17831c-0.76635,-0.43784 -1.42947,-1.08631 -2.22195,-1.47869c-1.37218,-0.67932 -2.7051,-1.00301 -4.00413,-1.89803l-0.7844,-1.04355c0,0 -0.43587,-0.59011 0.06478,-1.03238c0.50065,-0.44227 0.93646,0.14779 0.93646,0.14779z" fill="#000000" stroke="none"/><path d="M733.31565,524.08415c0,0 4.58802,9.40354 6.10015,14.23992c1.47158,4.70639 2.10373,14.6335 2.10373,14.6335l-13.13415,4.10662c0,0 -5.02336,-8.16086 -6.47013,-12.78831c-1.53293,-4.90291 -2.85952,-15.73319 -2.85952,-15.73319z" fill="#ff0000" stroke="#000000"/></g><path d="M697.9383,573.27158c-1.7016,1.17716 -4.03531,0.75194 -5.2125,-0.94965c-1.17714,-1.70157 -0.75201,-4.03531 0.9496,-5.21244c1.7016,-1.17716 4.03533,-0.75196 5.21249,0.9496c1.17714,1.70157 0.75197,4.03533 -0.94966,5.21249z" data-paper-data="{&quot;index&quot;:null}" fill="url(#color-40)" stroke="none" stroke-width="0"/><g data-paper-data="{&quot;index&quot;:null}" stroke-width="1"><path d="M701.82479,575.81172c0,0 -3.90957,9.70527 -6.48793,14.0674c-2.50909,4.24498 -9.4569,11.36357 -9.4569,11.36357l-11.84656,-7.00206c0,0 2.6952,-9.19604 5.16219,-13.36985c2.61388,-4.4222 9.76734,-12.66134 9.76734,-12.66134z" fill="#696969" stroke="#000000"/><path d="M697.4529,573.38947l-15.15323,25.63716l-4.51295,-2.66745l15.1533,-25.63716z" fill="url(#color-41)" stroke="none"/><path d="M692.53383,570.45329l-0.21842,1.01889c0.2195,1.37714 0.85617,2.5005 1.22403,3.81646c0.24446,0.8744 0.21059,1.81457 0.40423,2.69659c0.21187,0.96482 0.71114,1.79091 0.566,2.87553c-0.36557,2.73207 -2.9027,5.30867 -5.33744,5.59583c-1.35729,0.22842 -2.68745,0.72354 -4.03861,0.90562c-0.22755,0.03066 -1.24756,0.0624 -1.5812,0.32849c-0.53526,0.42692 -0.82803,2.02165 -0.91687,2.50919c-0.49867,2.73554 0.53602,5.38963 0.14126,8.15537c0,0 -0.10876,0.72195 -0.77961,0.68699c-0.67088,-0.03506 -0.56214,-0.75697 -0.56214,-0.75697c0.44706,-2.77693 -0.6517,-5.41007 -0.1364,-8.18565c0.18898,-1.01803 0.58251,-2.77453 1.4943,-3.50984c0.92216,-0.74366 2.01848,-0.52701 3.02371,-0.76682c1.12116,-0.26743 2.19608,-0.60937 3.33018,-0.79975c1.77888,-0.17715 3.7608,-2.17116 4.01568,-4.19372c0.10909,-0.8655 -0.37418,-1.58834 -0.54279,-2.36095c-0.18819,-0.86235 -0.15077,-1.78911 -0.39025,-2.64037c-0.41467,-1.47392 -1.06705,-2.68044 -1.27257,-4.24447l0.24947,-1.28143c0,0 0.14621,-0.71883 0.80995,-0.64334c0.66371,0.07544 0.51749,0.79435 0.51749,0.79435z" fill="#000000" stroke="none"/><path d="M701.82479,575.81172c0,0 -3.90957,9.70527 -6.48793,14.0674c-2.50909,4.24498 -9.4569,11.36357 -9.4569,11.36357l-11.84656,-7.00206c0,0 2.6952,-9.19604 5.16219,-13.36985c2.61388,-4.4222 9.76734,-12.66134 9.76734,-12.66134z" fill="#ff0000" stroke="#000000"/></g><g data-paper-data="{&quot;index&quot;:null}" stroke-width="1"><path d="M706.99978,538.50656c0,0 0.55541,10.44835 0.06071,15.49133c-0.48136,4.90755 -3.77251,14.2945 -3.77251,14.2945l-13.69545,-1.34334c0,0 -1.44113,-9.474 -0.9678,-14.29917c0.50144,-5.11242 3.50565,-15.6019 3.50565,-15.6019z" fill="#696969" stroke="#000000"/><path d="M702.01385,538.15754l-2.90717,29.63835l-5.21734,-0.51178l2.9072,-29.63837z" fill="url(#color-42)" stroke="none"/><path d="M696.31501,537.57368l0.23231,1.01581c0.78061,1.15552 1.83207,1.90493 2.72141,2.94234c0.5909,0.68935 0.9573,1.55588 1.50536,2.27352c0.59954,0.78507 1.40102,1.32303 1.72757,2.36744c0.82254,2.63083 -0.38892,6.03789 -2.47456,7.32655c-1.13382,0.78032 -2.13031,1.79099 -3.27818,2.5267c-0.19334,0.12393 -1.10455,0.58349 -1.29457,0.96559c-0.30487,0.61303 0.10338,2.18222 0.22872,2.66161c0.70333,2.69014 2.76222,4.65889 3.57254,7.33258c0,0 0.20644,0.70032 -0.41651,0.952c-0.6229,0.25165 -0.82926,-0.44872 -0.82926,-0.44872c-0.76765,-2.70596 -2.87567,-4.62867 -3.58089,-7.3621c-0.2587,-1.00264 -0.64386,-2.76094 -0.12798,-3.81256c0.52177,-1.06343 1.60711,-1.33021 2.41698,-1.97208c0.90324,-0.71597 1.73312,-1.47985 2.68078,-2.13146c1.53758,-0.91192 2.49189,-3.55646 1.86863,-5.49743c-0.26668,-0.83061 -1.00994,-1.28165 -1.48907,-1.91075c-0.53482,-0.70216 -0.89227,-1.55795 -1.46891,-2.22844c-0.99839,-1.16082 -2.09934,-1.97899 -2.94621,-3.30993l-0.31509,-1.26684c0,0 -0.17104,-0.71337 0.46248,-0.92525c0.63352,-0.21189 0.8046,0.50153 0.8046,0.50153z" fill="#000000" stroke="none"/><path d="M706.99978,538.50656c0,0 0.55541,10.44835 0.06071,15.49133c-0.48136,4.90755 -3.77251,14.2945 -3.77251,14.2945l-13.69545,-1.34334c0,0 -1.44113,-9.474 -0.9678,-14.29917c0.50144,-5.11242 3.50565,-15.6019 3.50565,-15.6019z" fill="#ff0000" stroke="#000000"/></g><path d="M770.4092,536.82219c-0.42662,2.02466 -2.41379,3.32005 -4.43841,2.89342c-2.02463,-0.42666 -3.32004,-2.41374 -2.89342,-4.4384c0.42667,-2.02468 2.41379,-3.32005 4.43841,-2.89342c2.02462,0.42662 3.32009,2.4138 2.89342,4.4384z" data-paper-data="{&quot;index&quot;:null}" fill="url(#color-43)" stroke="none" stroke-width="0"/><g data-paper-data="{&quot;index&quot;:null}" stroke-width="1"><path d="M774.978,535.99535c0,0 3.83219,9.73603 4.95821,14.67654c1.09579,4.80776 0.94326,14.75385 0.94326,14.75385l-13.41706,3.05806c0,0 -4.36415,-8.53153 -5.44158,-13.2586c-1.14154,-5.0085 -1.60993,-15.90962 -1.60993,-15.90962z" fill="#696969" stroke="#000000"/><path d="M770.13784,537.24149l6.61805,29.03597l-5.11121,1.16496l-6.61808,-29.036z" fill="url(#color-44)" stroke="none"/><path d="M764.54698,538.49039l0.54171,0.89021c1.10606,0.84928 2.34065,1.22744 3.51243,1.93032c0.77862,0.46696 1.40025,1.17316 2.14726,1.68058c0.81706,0.55505 1.74758,0.8119 2.38777,1.69935c1.61257,2.23554 1.54107,5.85088 -0.02978,7.73311c-0.82875,1.09893 -1.45433,2.3729 -2.31042,3.43394c-0.1442,0.17872 -0.86322,0.90291 -0.92262,1.32552c-0.09529,0.67804 0.78837,2.03746 1.059,2.45264c1.51828,2.32956 4.09411,3.54583 5.70865,5.82582c0,0 0.41736,0.5991 -0.09397,1.03488c-0.51134,0.43576 -0.92863,-0.16333 -0.92863,-0.16333c-1.58423,-2.32408 -4.19226,-3.4812 -5.72595,-5.85116c-0.56255,-0.86926 -1.4843,-2.41553 -1.32749,-3.57629c0.15852,-1.17394 1.10379,-1.77031 1.66897,-2.63545c0.63044,-0.96485 1.17599,-1.95211 1.86881,-2.86998c1.17016,-1.35147 1.23886,-4.16207 0.03363,-5.80624c-0.51577,-0.70354 -1.36357,-0.89635 -2.01708,-1.34158c-0.72949,-0.49691 -1.33933,-1.1957 -2.09845,-1.64935c-1.31432,-0.78542 -2.61756,-1.21321 -3.84195,-2.20785l-0.69969,-1.10216c0,0 -0.38799,-0.62259 0.14596,-1.02402c0.53394,-0.40147 0.92197,0.22116 0.92197,0.22116z" fill="#000000" stroke="none"/><path d="M774.978,535.99535c0,0 3.83219,9.73603 4.95821,14.67654c1.09579,4.80776 0.94326,14.75385 0.94326,14.75385l-13.41706,3.05806c0,0 -4.36415,-8.53153 -5.44158,-13.2586c-1.14154,-5.0085 -1.60993,-15.90962 -1.60993,-15.90962z" fill="#ff0000" stroke="#000000"/></g><path d="M749.3002,508.02375c0.46844,2.01538 -0.78568,4.02888 -2.80102,4.49733c-2.01538,0.46844 -4.02889,-0.78569 -4.49734,-2.80104c-0.46845,-2.01534 0.78573,-4.02887 2.80107,-4.49732c2.01534,-0.46845 4.02885,0.78568 4.4973,2.80102z" data-paper-data="{&quot;index&quot;:null}" fill="url(#color-45)" stroke="none" stroke-width="0"/><g data-paper-data="{&quot;index&quot;:null}" stroke-width="1"><path d="M753.09229,505.34464c0,0 7.58577,7.20647 10.69312,11.20906c3.02392,3.89509 7.08637,12.97487 7.08637,12.97487l-10.86991,8.43881c0,0 -7.55915,-5.88993 -10.53227,-9.7197c-3.15015,-4.05771 -8.17897,-13.741 -8.17897,-13.741z" fill="#696969" stroke="#000000"/><path d="M749.23133,508.51841l18.26252,23.52374l-4.14099,3.21479l-18.26247,-23.5238z" fill="url(#color-46)" stroke="none"/><path d="M744.69105,512.01193l0.86693,0.57805c1.36123,0.3026 2.64004,0.12404 3.99903,0.26617c0.90298,0.09444 1.76482,0.472 2.65615,0.61642c0.97506,0.15802 1.9269,-0.00226 2.88208,0.53182c2.4059,1.34521 3.86808,4.65243 3.23922,7.02204c-0.28706,1.34617 -0.31609,2.76515 -0.64401,4.08848c-0.05519,0.22293 -0.40099,1.18303 -0.27637,1.59113c0.19998,0.65479 1.57514,1.51385 1.99576,1.77589c2.36007,1.47031 5.20866,1.48478 7.63513,2.86954c0,0 0.63131,0.36675 0.35188,0.97775c-0.27944,0.61089 -0.91076,0.24416 -0.91076,0.24416c-2.4176,-1.43752 -5.2703,-1.38477 -7.66151,-2.88527c-0.87711,-0.55033 -2.36551,-1.56259 -2.71372,-2.68097c-0.35213,-1.13102 0.25284,-2.07085 0.3997,-3.09375c0.16385,-1.14088 0.24142,-2.26619 0.48179,-3.39078c0.48979,-1.71924 -0.63499,-4.29585 -2.42195,-5.27708c-0.76461,-0.41989 -1.61448,-0.23653 -2.39493,-0.36405c-0.87107,-0.14231 -1.71901,-0.51815 -2.59872,-0.60865c-1.52304,-0.15683 -2.88502,0.0058 -4.41495,-0.37864l-1.09971,-0.70349c0,0 -0.61461,-0.40049 -0.30019,-0.98987c0.31445,-0.58936 0.92908,-0.18885 0.92908,-0.18885z" fill="#000000" stroke="none"/><path d="M753.09229,505.34464c0,0 7.58577,7.20647 10.69312,11.20906c3.02392,3.89509 7.08637,12.97487 7.08637,12.97487l-10.86991,8.43881c0,0 -7.55915,-5.88993 -10.53227,-9.7197c-3.15015,-4.05771 -8.17897,-13.741 -8.17897,-13.741z" fill="#ff0000" stroke="#000000"/></g><g data-paper-data="{&quot;index&quot;:null}" stroke-width="1"><path d="M720.75024,486.6927c0,0 9.94406,3.25449 14.46828,5.53659c4.40267,2.22073 11.96824,8.67911 11.96824,8.67911l-6.19761,12.28656c0,0 -9.35513,-2.07673 -13.68395,-4.26023c-4.58651,-2.31349 -13.28376,-8.90238 -13.28376,-8.90238z" fill="#696969" stroke="#000000"/><path d="M718.62454,491.21625l26.58944,13.41214l-2.36098,4.68056l-26.58944,-13.41218z" fill="url(#color-47)" stroke="none"/><path d="M716.02254,496.31988l1.03116,0.15016c1.35941,-0.31073 2.43789,-1.02078 3.72643,-1.47551c0.85613,-0.30212 1.79659,-0.33093 2.66368,-0.58289c0.94854,-0.27566 1.73954,-0.82877 2.83142,-0.75625c2.75034,0.18279 5.49016,2.54271 5.93889,4.95293c0.31834,1.33907 0.90097,2.63329 1.17265,3.96931c0.04576,0.22503 0.1454,1.24069 0.43312,1.55585c0.46154,0.50561 2.07233,0.69158 2.56467,0.74777c2.76267,0.31542 5.34187,-0.89373 8.12784,-0.68408c0,0 0.72762,0.0604 0.73736,0.73213c0.00978,0.67174 -0.71787,0.61135 -0.71787,0.61135c-2.80058,-0.26109 -5.35469,1.0105 -8.15838,0.68122c-1.02833,-0.12079 -2.80717,-0.39646 -3.60157,-1.25724c-0.80341,-0.87062 -0.66024,-1.979 -0.96645,-2.96595c-0.34151,-1.10083 -0.75425,-2.15056 -1.01974,-3.26956c-0.29527,-1.76308 -2.41685,-3.6078 -4.45192,-3.72739c-0.87081,-0.05122 -1.5598,0.47904 -2.31949,0.69874c-0.84791,0.2452 -1.77509,0.26958 -2.6085,0.56525c-1.44304,0.51188 -2.60342,1.24318 -4.15035,1.5524l-1.29514,-0.16357c0,0 -0.72709,-0.09802 -0.69597,-0.76531c0.03112,-0.66729 0.75814,-0.56928 0.75814,-0.56928z" fill="#000000" stroke="none"/><path d="M720.75024,486.6927c0,0 9.94406,3.25449 14.46828,5.53659c4.40267,2.22073 11.96824,8.67911 11.96824,8.67911l-6.19761,12.28656c0,0 -9.35513,-2.07673 -13.68395,-4.26023c-4.58651,-2.31349 -13.28376,-8.90238 -13.28376,-8.90238z" fill="#ff0000" stroke="#000000"/></g><g data-paper-data="{&quot;index&quot;:null}" stroke-width="1"><path d="M709.53416,495.30329c0,0 8.17907,6.52533 11.62006,10.245c3.3486,3.6197 8.17914,12.31525 8.17914,12.31525l-10.10156,9.34491c0,0 -8.03896,-5.21597 -11.33139,-8.775c-3.48837,-3.77086 -9.33368,-12.98435 -9.33368,-12.98435z" fill="#696969" stroke="#000000"/><path d="M705.9613,498.79821l20.2234,21.86089l-3.84817,3.55999l-20.22351,-21.86086z" fill="url(#color-48)" stroke="none"/><path d="M701.73929,502.67029l0.91366,0.50107c1.38228,0.18407 2.64089,-0.10413 4.00711,-0.07976c0.90778,0.01622 1.79895,0.31796 2.69941,0.38502c0.98506,0.0733 1.91961,-0.1684 2.91726,0.28125c2.51295,1.13272 4.25497,4.3015 3.83277,6.71654c-0.16985,1.36589 -0.0764,2.78211 -0.28887,4.12881c-0.03573,0.22686 -0.29747,1.21317 -0.13811,1.60909c0.25571,0.63505 1.69989,1.37234 2.14153,1.59709c2.47811,1.26119 5.31728,1.03001 7.85413,2.20031c0,0 0.66062,0.31098 0.43496,0.9437c-0.22564,0.63276 -0.88629,0.32186 -0.88629,0.32186c-2.53265,-1.22362 -5.37011,-0.9251 -7.88181,-2.21365c-0.92128,-0.47262 -2.49155,-1.35266 -2.93486,-2.43688c-0.44836,-1.09651 0.07323,-2.08499 0.13135,-3.11671c0.06483,-1.15078 0.04508,-2.27849 0.18751,-3.4197c0.3397,-1.75508 -1.00316,-4.2251 -2.86803,-5.04856c-0.798,-0.3524 -1.6289,-0.09641 -2.41743,-0.15614c-0.88009,-0.06666 -1.75725,-0.3679 -2.64149,-0.38225c-1.53096,-0.02482 -2.87383,0.25468 -4.43121,0.00367l-1.15624,-0.606c0,0 -0.64693,-0.34595 -0.38451,-0.96027c0.26242,-0.61429 0.9093,-0.26832 0.9093,-0.26832z" fill="#000000" stroke="none"/><path d="M709.53416,495.30329c0,0 8.17907,6.52533 11.62006,10.245c3.3486,3.6197 8.17914,12.31525 8.17914,12.31525l-10.10156,9.34491c0,0 -8.03896,-5.21597 -11.33139,-8.775c-3.48837,-3.77086 -9.33368,-12.98435 -9.33368,-12.98435z" fill="#ff0000" stroke="#000000"/></g><g data-paper-data="{&quot;index&quot;:null}" stroke-width="1"><path d="M696.33236,502.72793c0,0 4.98487,9.19938 6.70187,13.96677c1.67089,4.63932 2.7259,14.53044 2.7259,14.53044l-12.94705,4.66301c0,0 -5.36678,-7.93915 -7.00962,-12.50065c-1.74063,-4.83301 -3.52786,-15.59689 -3.52786,-15.59689z" fill="#696969" stroke="#000000"/><path d="M691.67905,504.55198l10.09129,28.01877l-4.93214,1.77637l-10.09129,-28.01879z" fill="url(#color-49)" stroke="none"/><path d="M686.28088,506.46993l0.64564,0.81787c1.20089,0.70884 2.47225,0.93455 3.72064,1.49002c0.82948,0.36911 1.53232,0.99462 2.33528,1.4077c0.87838,0.45184 1.83311,0.59387 2.57625,1.39715c1.87184,2.02338 2.2394,5.62074 0.90845,7.67963c-0.68931,1.19137 -1.15581,2.5318 -1.87693,3.68887c-0.12144,0.1949 -0.74729,1.00094 -0.75496,1.42765c-0.01233,0.68444 1.02971,1.92679 1.34868,2.30605c1.78963,2.12814 4.494,3.02301 6.37323,5.09035c0,0 0.48694,0.54405 0.03224,1.03862c-0.4547,0.49455 -0.94162,-0.04947 -0.94162,-0.04947c-1.8545,-2.11482 -4.58359,-2.94703 -6.39345,-5.11349c-0.66382,-0.79464 -1.76624,-2.21761 -1.75146,-3.38888c0.015,-1.18451 0.88093,-1.89114 1.33699,-2.8184c0.50871,-1.03428 0.93053,-2.08035 1.50689,-3.07556c0.99758,-1.48345 0.72487,-4.28164 -0.67094,-5.76745c-0.59728,-0.6358 -1.46215,-0.72429 -2.16487,-1.08691c-0.7844,-0.40475 -1.4745,-1.02439 -2.28302,-1.3826c-1.3999,-0.62023 -2.74536,-0.88671 -4.08142,-1.7255l-0.82822,-1.0091c0,0 -0.46061,-0.57107 0.02071,-1.03423c0.48133,-0.46321 0.94191,0.10776 0.94191,0.10776z" fill="#000000" stroke="none"/><path d="M696.33236,502.72793c0,0 4.98487,9.19938 6.70187,13.96677c1.67089,4.63932 2.7259,14.53044 2.7259,14.53044l-12.94705,4.66301c0,0 -5.36678,-7.93915 -7.00962,-12.50065c-1.74063,-4.83301 -3.52786,-15.59689 -3.52786,-15.59689z" fill="#ff0000" stroke="#000000"/></g><path d="M666.69798,506.98846c-19.24547,-20.24602 -22.5986,-48.30201 -7.48921,-62.66464c15.10938,-14.36267 42.95945,-9.59319 62.20498,10.65288c19.24553,20.24607 12.68338,33.82281 -2.42593,48.18552c-15.10938,14.36267 -33.04429,24.07237 -52.2898,3.82623z" data-paper-data="{&quot;index&quot;:null}" fill="#ff0000" stroke="#000000" stroke-width="1"/><path d="M737.70781,439.92416c1.43052,1.97436 0.9897,4.73463 -0.9846,6.16518c-1.97434,1.4306 -4.73453,0.98969 -6.16511,-0.98462c-1.43054,-1.97433 -0.98972,-4.73456 0.98459,-6.16515c1.97434,-1.4306 4.73454,-0.98971 6.16513,0.98461z" data-paper-data="{&quot;index&quot;:null}" fill="url(#color-50)" stroke="none" stroke-width="0"/><g data-paper-data="{&quot;index&quot;:null}" stroke-width="1"><path d="M740.60034,435.28011c0,0 11.53405,4.35601 16.73941,7.28121c5.06548,2.84661 13.63049,10.84857 13.63049,10.84857l-7.94413,14.13634c0,0 -10.90303,-2.93854 -15.88354,-5.73736c-5.27697,-2.96548 -15.16734,-11.18074 -15.16734,-11.18074z" fill="#696969" stroke="#000000"/><path d="M737.85923,440.49289l30.59246,17.19192l-3.02634,5.38527l-30.59245,-17.19192z" fill="url(#color-51)" stroke="none"/><path d="M734.52682,446.36345l1.20592,0.23115c1.61663,-0.29402 2.92376,-1.07289 4.46454,-1.54014c1.02386,-0.31049 2.13234,-0.2948 3.16642,-0.54561c1.13119,-0.2744 2.09153,-0.88388 3.37302,-0.74075c3.22795,0.36035 6.32871,3.28301 6.72967,6.14396c0.30403,1.59314 0.92155,3.14736 1.17087,4.73442c0.042,0.26732 0.1056,1.46813 0.42767,1.85435c0.5167,0.61959 2.40302,0.92343 2.97963,1.01556c3.23549,0.51711 6.33555,-0.77008 9.60393,-0.37625c0,0 0.85335,0.10949 0.82942,0.90073c-0.02401,0.79128 -0.87733,0.6818 -0.87733,0.6818c-3.28295,-0.45512 -6.35667,0.90689 -9.63976,0.37132c-1.20424,-0.19643 -3.28362,-0.61478 -4.17329,-1.67006c-0.89978,-1.06719 -0.67274,-2.36451 -0.98113,-3.54252c-0.34394,-1.31389 -0.77435,-2.57138 -1.0278,-3.90261c-0.25453,-2.09106 -2.65464,-4.37463 -5.04396,-4.62282c-1.0224,-0.10618 -1.8615,0.48163 -2.76736,0.70012c-1.01107,0.24388 -2.10376,0.22368 -3.10046,0.52772c-1.72569,0.52641 -3.13033,1.32604 -4.96766,1.60839l-1.516,-0.26091c0,0 -0.85066,-0.15375 -0.77879,-0.93763c0.07191,-0.78394 0.92254,-0.63014 0.92254,-0.63014z" fill="#000000" stroke="none"/><path d="M740.60034,435.28011c0,0 11.53405,4.35601 16.73941,7.28121c5.06548,2.84661 13.63049,10.84857 13.63049,10.84857l-7.94413,14.13634c0,0 -10.90303,-2.93854 -15.88354,-5.73736c-5.27697,-2.96548 -15.16734,-11.18074 -15.16734,-11.18074z" fill="#ff0000" stroke="#000000"/></g><path d="M691.11483,434.20128c1.97434,-1.4306 4.73452,-0.9897 6.1651,0.98461c1.43054,1.97433 0.98969,4.73466 -0.98459,6.16517c-1.97435,1.43057 -4.73456,0.98968 -6.16515,-0.98462c-1.43054,-1.97433 -0.98972,-4.73455 0.9846,-6.16514z" data-paper-data="{&quot;index&quot;:null}" fill="url(#color-52)" stroke="none" stroke-width="0"/><g data-paper-data="{&quot;index&quot;:null}" stroke-width="1"><path d="M696.94662,429.81919c0,0 12.28744,-1.01436 18.24441,-0.60561c5.79695,0.39775 16.96693,3.9506 16.96693,3.9506l-1.11005,16.17747c0,0 -11.10923,2.02405 -16.80885,1.63296c-6.03894,-0.41434 -18.49759,-3.59124 -18.49759,-3.59124z" fill="#696969" stroke="#000000"/><path d="M696.7074,435.70384l35.00985,2.40237l-0.42289,6.16286l-35.0098,-2.40235z" fill="url(#color-53)" stroke="none"/><path d="M696.21633,442.4364l1.18843,-0.30865c1.33413,-0.95928 2.18051,-2.22365 3.37179,-3.30683c0.79151,-0.71983 1.79962,-1.18118 2.62601,-1.85148c0.90393,-0.73322 1.50996,-1.69577 2.72885,-2.11645c3.07033,-1.05955 7.12515,0.24995 8.71487,2.66205c0.95819,1.30862 2.18296,2.44753 3.08914,3.77407c0.15264,0.22341 0.72534,1.28078 1.18198,1.49143c0.73255,0.33796 2.56675,-0.19695 3.1271,-0.36117c3.14431,-0.92121 5.39226,-3.41408 8.51346,-4.46073c0,0 0.81775,-0.26721 1.13564,0.45776c0.31784,0.72499 -0.49989,0.99225 -0.49989,0.99225c-3.16073,0.99757 -5.35268,3.54677 -8.54801,4.47161c-1.17201,0.3393 -3.22977,0.85361 -4.48621,0.28217c-1.27064,-0.57792 -1.62227,-1.84707 -2.4062,-2.77881c-0.87439,-1.03926 -1.80283,-1.99034 -2.60296,-3.08406c-1.12713,-1.77961 -4.27485,-2.81248 -6.53956,-2.01142c-0.96911,0.34273 -1.47475,1.2338 -2.19923,1.81983c-0.80863,0.65413 -1.80427,1.10469 -2.57415,1.80702c-1.33286,1.21599 -2.2585,2.54095 -3.79694,3.58432l-1.48128,0.41485c0,0 -0.83434,0.22611 -1.10579,-0.51277c-0.27142,-0.73887 0.56295,-0.96495 0.56295,-0.96495z" fill="#000000" stroke="none"/><path d="M696.94662,429.81919c0,0 12.28744,-1.01436 18.24441,-0.60561c5.79695,0.39775 16.96693,3.9506 16.96693,3.9506l-1.11005,16.17747c0,0 -11.10923,2.02405 -16.80885,1.63296c-6.03894,-0.41434 -18.49759,-3.59124 -18.49759,-3.59124z" fill="#ff0000" stroke="#000000"/></g><g data-paper-data="{&quot;index&quot;:null}"><path d="M634.09775,456.36943c0,0 -43.55393,-21.32762 -62.86635,-33.83969c-18.22729,-11.80904 -49.30027,-40.20851 -49.30027,-40.20851l22.43158,-33.69703c0,0 40.17517,17.76056 58.71355,29.77115c19.05016,12.34217 55.37572,41.38868 55.37572,41.38868z" fill="#696969" stroke="#000000" stroke-width="2"/><path d="M641.2389,444.51572l-111.96033,-72.53659l8.54534,-12.83696l111.96045,72.53657z" fill="url(#color-54)" stroke="none" stroke-width="0"/><path d="M640.73492,448.87166c-2.01934,0.82892 -4.23457,-1.44706 -4.23457,-1.44706l-3.91164,-4.0668c-3.08315,-5.40682 -3.8239,-10.00681 -5.99651,-15.29391c-1.2549,-3.05375 -3.60953,-6.119 -5.06116,-9.16514c-1.3005,-2.7291 -1.43788,-5.56492 -3.88287,-8.3634c-5.71372,-6.53977 -17.08575,-11.48357 -23.4113,-10.53064c-4.21935,0.34882 -8.60692,0.1396 -12.96856,0.21947c-3.91058,0.0716 -7.02514,1.74822 -11.87302,0.06347c-4.79364,-1.66584 -10.3265,-7.19575 -13.4037,-10.43467c-8.38961,-8.83051 -11.08407,-18.58686 -19.25067,-27.48134c0,0 -2.09829,-2.31893 0.04228,-3.01875c2.14059,-0.69978 4.2389,1.61914 4.2389,1.61914c7.9662,8.90245 10.92343,18.67322 19.1616,27.38428c1.46824,1.55255 6.27765,6.62925 9.08024,7.59131c1.74691,0.59966 5.20579,-0.18029 6.03427,-0.27546c4.91903,-0.56506 10.52192,-0.06533 15.57284,-0.48078c8.76542,-1.15496 23.38106,5.25411 31.16941,14.06931c3.09199,3.4996 3.42476,6.69478 5.04447,10.10391c1.48064,3.11647 3.85623,6.23001 5.15022,9.36527c1.94739,4.71841 2.54034,9.02668 5.12703,13.82068l3.17691,3.21613c0,0 2.21523,2.27598 0.19592,3.10493z" fill="#000000" stroke="none" stroke-width="0.5"/><path d="M634.09775,456.36943c0,0 -43.55393,-21.32762 -62.86635,-33.83969c-18.22729,-11.80904 -49.30027,-40.20851 -49.30027,-40.20851l22.43158,-33.69703c0,0 40.17517,17.76056 58.71355,29.77115c19.05016,12.34217 55.37572,41.38868 55.37572,41.38868z" fill="#ff0000" stroke="#000000" stroke-width="2"/></g></g><path d="M255.38671,354.05461l-6.32913,-14.07996l142.14019,-63.89403l6.32913,14.07996z" fill="url(#color-55)" stroke="none" stroke-width="0" stroke-linecap="butt"/><path d="M265.88872,337.97304c3.41227,7.59101 0.02475,16.51087 -7.56623,19.92312c-7.59101,3.41227 -16.51087,0.02475 -19.92314,-7.56627c-3.41225,-7.59099 -0.02472,-16.51088 7.56627,-19.92314c7.59099,-3.41225 16.51085,-0.02471 19.92311,7.56628z" fill="url(#color-56)" stroke="none" stroke-width="0" stroke-linecap="butt"/><path d="M412.88742,275.9916c3.65875,8.13935 0.02651,17.70352 -8.11278,21.36225c-8.13929,3.65872 -17.70354,0.02649 -21.36226,-8.1128c-3.65874,-8.13931 -0.0265,-17.70349 8.11281,-21.36223c8.13929,-3.65872 17.70348,-0.02653 21.36221,8.11279z" fill="url(#color-57)" stroke="none" stroke-width="0" stroke-linecap="butt"/><path d="M311.65489,281.06407c30.47803,-12.66868 122.01143,16.05843 154.71912,88.82073c10.66395,23.72327 16.12472,48.02503 16.81358,70.82798c1.42408,47.1366 -130.60324,107.29113 -164.69443,75.83072c-17.13742,-15.81495 -32.17075,-36.46346 -43.1124,-60.80452c-32.70769,-72.7623 0.28306,-159.71466 36.27413,-174.67491z" fill="#696969" stroke="#000000" stroke-width="2" stroke-linecap="butt"/><path d="M355.22497,394.74236l23.1385,-109.31267l15.10238,3.19678l-23.1385,109.31267z" fill="url(#color-58)" stroke="none" stroke-width="0" stroke-linecap="butt"/><path d="M364.03939,402.37761l-97.11494,-55.25708l7.63417,-13.41719l97.11497,55.25707z" data-paper-data="{&quot;index&quot;:null}" fill="url(#color-59)" stroke="none" stroke-width="0" stroke-linecap="butt"/><path d="M406.49433,510.91863l-54.55102,-121.3555l16.76181,-7.53467l54.55102,121.3555z" fill="url(#color-60)" stroke="none" stroke-width="0" stroke-linecap="butt"/><path d="M370.73568,379.89297c-0.62109,-2.68577 2.06465,-3.30685 2.06465,-3.30685l2.12484,-0.42393c1.12947,-0.00152 2.25886,-0.00304 3.38834,-0.00456c6.61627,1.72918 13.63725,4.79513 20.20403,7.85788c1.37334,-1.67198 2.34362,-3.68986 2.71273,-6.1551c0.86292,-5.76426 -4.45996,-9.29 -7.15563,-13.4857c-3.28402,-5.11143 -4.31407,-11.43987 -7.47682,-16.63423c-4.60777,-7.56758 -14.42393,-13.11568 -22.20623,-16.83727c-7.47153,-3.64765 -16.99257,-0.49519 -23.67951,-5.0768c-5.63709,-3.86229 -6.60995,-11.31918 -11.18188,-15.88092c0.73453,2.51801 0.97758,5.1341 0.54492,7.85578c-1.06739,6.71524 -5.95149,15.02021 -9.71112,20.50572c-2.44134,3.56201 -7.91944,8.021 -9.16374,12.26624c-0.95721,3.26567 0.14016,6.80509 0.14816,10.20813c0.03143,13.36944 -2.36212,29.72517 14.02126,32.96243c3.68186,0.72752 6.63639,0.87295 10.05,-0.74537l1.12206,-0.50438c0,0 2.5143,-1.13022 3.64451,1.38406c1.1302,2.51428 -1.38411,3.64449 -1.38411,3.64449l-1.12206,0.50438c-9.10548,3.93523 -26.06058,0.51115 -29.86283,-10.23648c-2.86083,-8.08658 -1.96219,-18.55085 -1.98208,-26.9961c-0.00232,-0.97733 -0.06262,-11.31007 0.09631,-11.8447c1.47299,-4.95498 7.02764,-9.60485 9.88724,-13.76301c3.3474,-4.86751 7.83686,-12.39472 8.83014,-18.36095c0.95302,-5.72469 -2.59496,-11.40032 -7.2171,-16.59969c-5.70513,-3.7843 -11.93312,-6.79021 -18.33537,-8.0911c0,0 -2.69904,-0.56059 -2.13838,-3.2596c0.56058,-2.699 3.25961,-2.13843 3.25961,-2.13843c1.69049,0.35788 3.37638,0.81734 5.05004,1.36647c-0.45276,-0.46837 -0.88041,-0.92552 -1.27775,-1.37068c0,0 -1.83554,-2.05669 0.22114,-3.89218c2.05666,-1.83551 3.89215,0.22115 3.89215,0.22115c3.39367,3.80251 7.96807,7.89063 12.08156,12.33204c4.66812,3.02397 9.00346,6.54252 12.78926,10.21449c4.61722,4.47841 5.67429,11.89225 10.95684,15.74217c3.14826,2.29445 8.35494,0.85086 11.88444,1.20472c3.80518,0.3815 7.50817,1.74104 10.96403,3.37876c8.80289,4.24795 19.29443,10.39143 24.51294,18.91557c3.17907,5.19284 4.19132,11.55805 7.48052,16.6403c3.63783,5.62087 9.02945,9.36016 7.92668,17.06615c-0.44355,3.09966 -1.54418,5.68153 -3.10781,7.85236c0.12261,0.05805 0.24498,0.11596 0.36703,0.17375c4.72176,2.23465 8.39483,5.20255 13.71839,5.88022c16.57754,2.11019 9.28548,-19.69734 4.0694,-26.74472c-16.52591,-17.02728 -35.69373,-34.12601 -33.67657,-60.47499c0.28863,-3.77044 1.54919,-7.17507 2.9543,-10.5551c0.70534,1.19099 2.20821,1.68744 3.50054,1.10651c0.14936,-0.06714 0.28989,-0.14595 0.42084,-0.23484c0.38678,0.31223 0.85132,0.51385 1.34061,0.58481c-1.31288,3.07723 -2.4826,6.19028 -2.7195,9.52343c-1.75887,24.74992 16.96706,40.52022 32.38748,56.48788c3.35751,4.55778 7.11205,10.12062 7.80285,15.91888c1.318,11.06317 -4.94682,21.20659 -16.7661,19.85862c-5.99213,-0.6834 -10.12893,-3.86713 -15.39034,-6.36708c-0.69403,-0.32979 -1.3988,-0.66643 -2.11255,-1.00737c-5.06023,3.84965 -11.9184,5.83409 -17.99913,7.36993c-1.19345,0.19245 -2.38688,0.38486 -3.58033,0.57732l0.13245,0.04467c0,0 -2.51428,1.1302 -3.64449,-1.38411c-1.1302,-2.51428 1.38407,-3.64448 1.38407,-3.64448l1.25443,-0.45972c1.11286,-0.17766 2.2258,-0.35532 3.33869,-0.53299c4.20398,-1.06974 9.30044,-2.30527 13.42222,-4.66222c-5.34208,-2.4747 -10.92756,-4.84944 -16.16593,-6.23826c-0.88601,0.01563 -1.77201,0.03123 -2.65796,0.04684l-0.92951,0.28237c0,0 -2.68575,0.62107 -3.30684,-2.06462z" fill="#000000" stroke="none" stroke-width="0.5" stroke-linecap="butt"/><path d="M357.18928,403.89495c2.12723,1.75325 0.374,3.88046 0.374,3.88046l-1.30141,1.3582c-2.27313,5.74073 -2.26443,12.12562 -3.02532,18.277c-2.86388,22.28161 -28.00743,31.04823 -45.29167,16.98687c-9.70818,-7.89797 -11.78291,-25.94345 -9.84229,-37.21567c2.08658,-18.60459 -2.66342,-31.51219 -14.23715,-45.86642c-2.94413,-3.65143 -8.12296,-8.97629 -13.43389,-10.27101c0.44071,-0.77549 0.40504,-1.62575 0.40504,-1.62575c-0.0676,-1.23856 -0.01968,-2.50396 0.19562,-3.73209c5.08353,1.06036 9.71933,4.58761 13.6097,8.3721c15.39258,14.97371 21.24669,32.78043 18.91941,53.89683c-1.68063,9.71378 -0.04982,22.28503 6.03648,30.59786c1.69724,2.31814 4.69304,3.41421 7.21732,4.34582c4.47718,1.65231 9.49354,4.08676 14.45846,3.04632c9.80865,-2.05544 15.39629,-9.94119 16.49156,-19.21161c0.82732,-6.68748 0.97155,-13.29223 3.35416,-19.58727l2.18963,-2.87754c0,0 1.75321,-2.12724 3.88044,-0.37399z" fill="#000000" stroke="none" stroke-width="0.5" stroke-linecap="butt"/><path d="M366.71568,387.60794c2.51428,-1.1302 3.64448,1.38407 3.64448,1.38407l0.72791,1.97179c0.60371,6.25449 2.59876,12.48965 2.59818,18.80326c-0.00033,3.46753 -2.1015,9.15276 -0.13214,12.59783c2.0266,3.54527 7.23135,5.18786 10.6736,6.70322c7.76565,3.41857 16.05013,5.05142 23.92754,8.30457c2.26429,2.20496 5.03415,4.19294 5.83333,7.51697c2.88003,11.97842 -10.58791,25.55823 -16.66569,34.73984c-1.77065,2.67489 -5.09926,4.64038 -5.63142,7.80378c-0.15793,0.93875 1.0561,1.5877 1.6577,2.32545c3.14938,3.86222 6.01805,6.6683 10.25844,9.29279c4.17234,2.58238 7.40131,3.8635 12.22914,4.63445c0,0 2.72131,0.43976 2.28152,3.16109c-0.43979,2.72133 -3.1611,2.28149 -3.1611,2.28149c-5.51991,-0.90152 -9.48855,-2.43608 -14.25309,-5.39038c-4.26653,-2.64551 -14.97818,-10.27821 -14.51961,-16.56651c0.07296,-1.00027 5.68195,-9.28729 6.54118,-10.5853c5.80751,-8.77332 22.32917,-24.68304 12.40799,-34.60221c-10.72612,-4.18582 -30.17544,-5.85132 -36.45632,-17.0477c-2.62329,-4.67631 -0.51645,-10.39275 -0.50396,-15.2337c0.0157,-6.08462 -1.97837,-12.16762 -2.57252,-18.20381l-0.26926,-0.24653c0,0 -1.13019,-2.51424 1.38408,-3.64445z" fill="#000000" stroke="none" stroke-width="0.5" stroke-linecap="butt"/><g><path d="M336.91709,431.88695l-30.74146,-68.3882l71.23769,-32.02235l30.74146,68.3882z" fill="#323232" stroke="none" stroke-width="0" stroke-linecap="butt"/><g stroke="#000000"><path d="M343.69867,352.43801c15.21897,-6.84114 33.10227,-0.04956 39.94342,15.16945c6.84114,15.21897 0.04952,33.10228 -15.16941,39.94341c-15.21897,6.84114 -33.10228,0.04952 -39.94341,-15.16941c-6.84114,-15.21897 -0.04954,-33.10231 15.1694,-39.94343z" fill="#878787" stroke-width="1" stroke-linecap="butt"/><path d="M327.50414,372.75244l42.39795,-19.4039" fill="none" stroke-width="1.5" stroke-linecap="round"/><path d="M377.12512,359.4278l-49.83989,22.05835" fill="none" stroke-width="1.5" stroke-linecap="round"/><path d="M327.41145,388.68269l53.67557,-22.74628" fill="none" stroke-width="1.5" stroke-linecap="round"/><path d="M330.30832,394.8069l54.27925,-23.70849" fill="none" stroke-width="1.5" stroke-linecap="round"/><path d="M333.61239,361.69303l24.89503,-10.81867" fill="none" stroke-width="1.5" stroke-linecap="round"/><path d="M342.27242,406.5027l42.65626,-18.82917" data-paper-data="{&quot;index&quot;:null}" fill="none" stroke-width="1.5" stroke-linecap="round"/><path d="M385.17666,378.23595l-49.58158,22.63301" data-paper-data="{&quot;index&quot;:null}" fill="none" stroke-width="1.5" stroke-linecap="round"/><path d="M379.21529,397.8381l-24.61682,11.43757" data-paper-data="{&quot;index&quot;:null}" fill="none" stroke-width="1.5" stroke-linecap="round"/></g></g><g stroke="#000000" stroke-width="2" stroke-linecap="butt"><path d="M312.62672,281.43317c0.37482,-0.22801 12.16288,27.13143 31.96348,68.25683c-2.22828,0.24748 -29.8798,15.18778 -17.39441,42.77029c13.85349,27.5006 40.88317,17.58258 42.90827,15.26431c18.35724,38.09317 32.40675,74.18103 43.13303,100.0359c1.45901,3.51687 -23.82226,12.55544 -51.73599,15.86196c-20.07805,2.37835 -37.08918,-2.14471 -42.03609,-6.70989c-17.13745,-15.81494 -32.17075,-36.46346 -43.1124,-60.80452c-32.70769,-72.7623 0.2831,-159.71465 36.27414,-174.67487z" fill="#ff0000"/><path d="M313.20297,512.83223c0,0 -45.17482,-46.09011 -50.94392,-99.30295c-6.7053,-61.8482 32.3296,-119.6076 32.3296,-119.6076c0,0 -7.77052,58.0169 4.38991,85.06929c15.50156,34.48515 52.8934,117.66793 52.8934,117.66793z" fill="#000000"/></g><g data-paper-data="{&quot;index&quot;:null}" stroke="#000000" stroke-width="2" stroke-linecap="butt"><path d="M467.07822,370.3742c10.94166,24.34107 16.40555,49.29117 16.85769,72.60638c0.13053,6.73024 -7.77878,22.45539 -22.88547,35.89304c-21.00223,18.68193 -44.54414,31.59003 -46.20591,28.16431c-12.21678,-25.1849 -29.88098,-59.64796 -46.18532,-98.66386c3.07812,0.02431 28.43829,-13.60766 17.06651,-42.22382c-12.34123,-27.64729 -41.87032,-16.88415 -43.53458,-15.38184c-17.61414,-42.10824 -30.2514,-69.08596 -29.83203,-69.21496c35.0799,-16.98717 122.01142,16.0584 154.71912,88.82073z" fill="#ff0000"/><path d="M447.2761,453.77339c0,0 -37.39184,-83.18277 -52.8934,-117.66793c-12.16043,-27.05238 -60.70965,-59.75276 -60.70965,-59.75276c0,0 69.11014,9.14668 110.91568,55.21679c35.96853,39.63777 40.4522,104.01913 40.4522,104.01913z" fill="#000000"/></g><g fill="#8b0000" stroke="#000000" stroke-width="2" stroke-linecap="butt"><path d="M331.53974,327.38489c3.41227,7.59101 -1.77635,17.32045 -11.58907,21.73141c-9.81273,4.41096 -14.05388,16.24821 -23.94596,-5.75791c-10.19346,-22.67663 1.77638,-17.32047 11.5891,-21.73142c9.81273,-4.41096 20.53368,-1.83303 23.94592,5.75793z"/><path d="M345.77688,305.26907c9.81273,-4.41096 13.75247,-16.91867 23.94592,5.75793c9.89206,22.00613 -1.77635,17.32045 -11.58907,21.73141c-9.81273,4.41096 -20.53371,1.83304 -23.94596,-5.75791c-3.41227,-7.59101 1.77638,-17.32047 11.5891,-21.73142z" data-paper-data="{&quot;index&quot;:null}"/><path d="M345.95494,320.90505c3.49548,7.77612 0.17541,16.8461 -7.41555,20.25834c-7.59101,3.41227 -16.57834,-0.12536 -20.07382,-7.90149c-3.49548,-7.77612 -0.17537,-16.84612 7.41558,-20.25836c7.59101,-3.41227 16.57833,0.1254 20.0738,7.9015z"/></g><path d="M262.95637,175.59065c48.04534,-21.59707 101.56688,-6.68543 119.54363,33.30609c17.97675,39.99152 -6.39867,89.91894 -54.44404,111.51602c-48.04537,21.59708 -101.56688,6.68543 -119.54363,-33.30609c-17.97675,-39.99152 6.39867,-89.91894 54.44404,-111.51602z" fill="#696969" stroke="#000000" stroke-width="2" stroke-linecap="butt"/><path d="M268.78347,186.55698c41.65784,-18.72579 87.63986,-6.73965 102.7037,26.77173c15.06386,33.5114 -6.49483,75.85801 -48.15267,94.5838c-41.65784,18.72579 -87.63983,6.73964 -102.70367,-26.77174c-15.06386,-33.5114 6.4948,-75.858 48.15264,-94.58379z" fill="none" stroke="url(#color-61)" stroke-width="4.5" stroke-linecap="butt"/><g stroke="none" stroke-width="0" stroke-linecap="butt"><path d="M272.94074,268.04886l-28.02899,-62.35396l59.33682,-26.67275l28.02899,62.35396z" fill="url(#color-62)"/><path d="M303.96202,203.93401l-8.13744,-18.10274l7.03993,-3.16455l8.13744,18.10274z" fill="#ffffff"/><path d="M313.22966,224.55103l-8.13744,-18.10274l7.03993,-3.16455l8.13744,18.10274z" fill="#ffffff"/><path d="M322.27126,244.66519l-8.13744,-18.10274l7.03993,-3.16455l8.13744,18.10274z" fill="#ffffff"/><path d="M256.97048,224.45287l-8.13744,-18.10274l7.03996,-3.16457l8.13744,18.10274z" fill="#ffffff"/><path d="M266.23813,245.06992l-8.13744,-18.10274l7.03996,-3.16457l8.13744,18.10274z" fill="#ffffff"/><path d="M275.27974,265.18411l-8.13744,-18.10274l7.03996,-3.16457l8.13744,18.10274z" fill="#ffffff"/><path d="M303.78806,252.85276l-2.71249,-6.03427l13.57706,-6.10308l2.71249,6.03427z" fill="#ffffff"/><path d="M288.08731,259.78957l-2.71249,-6.03427l13.57709,-6.1031l2.71249,6.03427z" fill="#ffffff"/></g><path d="M209.97011,287.66031c-17.97675,-39.99152 6.39868,-89.91891 54.44405,-111.51598c25.10588,-11.28545 -60.07064,41.49328 -30.66612,109.93454c23.86751,58.21888 87.90704,14.97227 84.2425,19.42383c8.02795,1.0825 13.42316,12.99778 7.23286,15.78041c-48.04537,21.59708 -97.27645,6.36875 -115.25321,-33.62276z" fill="#ff0000" stroke="#000000" stroke-width="2" stroke-linecap="butt"/><path d="M385.53717,207.93449c17.97675,39.99152 -3.31384,86.92037 -51.35918,108.51742c-6.1903,2.78263 -11.52041,-9.16189 -7.00101,-15.88459c6.38903,-1.18135 63.89871,-26.9565 41.39355,-75.89905c-31.66858,-67.4235 -127.68284,-38.75441 -102.57695,-50.03986c48.04537,-21.59708 101.56684,-6.68542 119.5436,33.30611z" data-paper-data="{&quot;index&quot;:null}" fill="#ff0000" stroke="#000000" stroke-width="2" stroke-linecap="butt"/><path d="M226.59793,87.53508c64.70849,-29.08738 134.03203,-15.14477 154.83845,31.14169c20.80642,46.28646 18.32391,93.10707 -79.49172,136.47645c-103.32308,45.8113 -134.032,15.14476 -154.83843,-31.14173c-20.80642,-46.28646 14.78321,-107.38903 79.4917,-136.47642z" fill="#696969" stroke="#000000" stroke-width="2" stroke-linecap="butt"/><path d="M224.41401,178.35178l-15.1447,-33.69125l71.90816,-32.32374l15.1447,33.69125z" fill="url(#color-63)" stroke="#000000" stroke-width="0" stroke-linecap="butt"/><path d="M257.58711,226.60011l-29.15918,-64.86823l52.29686,-23.50818l29.15918,64.86823z" fill="url(#color-64)" stroke="none" stroke-width="0" stroke-linecap="butt"/><path d="M254.95189,226.35261l-55.11573,-70.28012l10.84572,-8.50551l55.11573,70.28012z" fill="url(#color-65)" stroke="none" stroke-width="0" stroke-linecap="butt"/><path d="M298.51471,206.16261l-15.97665,-87.87369l13.56077,-2.46555l15.97663,87.87373z" data-paper-data="{&quot;index&quot;:null}" fill="url(#color-66)" stroke="none" stroke-width="0" stroke-linecap="butt"/><path d="M244.58659,236.67524l-8.36348,-18.60561l81.96526,-36.84455l8.36348,18.60561z" fill="url(#color-67)" stroke="none" stroke-width="0" stroke-linecap="butt"/><path d="M234.42066,247.1101c-2.02131,1.87432 -3.89569,-0.14704 -3.89569,-0.14704l-0.63638,-0.74448c-2.36269,-1.80973 -5.05571,-4.6049 -7.87345,-5.75225c-1.088,-0.44299 -4.52395,-0.42515 -5.32788,-0.6224c-11.0509,-2.71147 -29.55754,-8.21675 -26.6097,-22.8699c2.7837,-2.52736 12.471,-8.25046 11.28463,-13.36883c-1.68422,-7.26616 -8.82912,-10.55922 -8.87387,-18.95652c-0.05188,-9.72587 7.68318,-18.37674 13.1835,-25.85629c0,0 1.6333,-2.22066 3.85395,-0.58737c2.22066,1.6333 0.58735,3.85393 0.58735,3.85393c-4.63564,6.30156 -12.1646,14.29235 -12.11208,22.51258c0.06522,10.21593 13.65476,15.34561 6.65364,26.35427c-0.74062,1.16454 -1.78779,2.11031 -2.79046,3.05859c-1.48192,1.40158 -5.23492,4.34145 -7.02113,5.7619c-0.6249,3.57417 3.89023,6.76522 6.48421,8.59975c6.83307,4.83244 15.28022,4.02247 22.63069,6.96073c3.42271,1.36822 6.39894,4.32639 9.28283,6.53478l1.32689,1.37288c0,0 1.87431,2.02135 -0.14704,3.89569z" fill="#000000" stroke="none" stroke-width="0.5" stroke-linecap="butt"/><path d="M219.42944,263.52952c-2.54557,1.05786 -3.60339,-1.48769 -3.60339,-1.48769l-0.33905,-0.91888c-1.58928,-2.51626 -3.14696,-6.07141 -5.39263,-8.12393c-0.86711,-0.79252 -4.09639,-1.96632 -4.78218,-2.42993c-9.42685,-6.37248 -24.8796,-17.94904 -17.03723,-30.67314c3.48697,-1.40631 14.55719,-3.41829 15.21772,-8.6307c0.93774,-7.39962 -4.62352,-12.96431 -1.756,-20.85695c3.32124,-9.14138 13.57451,-14.57632 21.32577,-19.68671c0,0 2.30154,-1.51722 3.8187,0.78436c1.51719,2.30155 -0.78439,3.81868 -0.78439,3.81868c-6.53187,4.30502 -16.36317,9.19215 -19.16215,16.92136c-3.47847,9.60571 7.49184,19.12622 -2.88992,27.02716c-1.09826,0.8358 -2.40822,1.36013 -3.67733,1.90224c-1.87576,0.80125 -6.4149,2.25866 -8.5826,2.97225c-1.82454,3.13624 1.30512,7.69408 3.10281,10.31374c4.73542,6.90066 12.93995,9.0677 18.81703,14.37079c2.73664,2.46934 4.50348,6.27549 6.44357,9.34633l0.76906,1.74758c0,0 1.05783,2.54551 -1.48777,3.60338z" fill="#000000" stroke="none" stroke-width="0.5" stroke-linecap="butt"/><path d="M332.93469,196.57924l-0.14594,-1.90376c0.26271,-3.62284 0.02589,-7.81243 1.27461,-11.2805c2.68176,-7.44786 8.89478,-13.22785 9.81641,-21.54613c0.34989,-3.15777 0.96037,-8.65296 -2.12753,-10.55814c-2.24802,0.393 -6.93804,1.24838 -8.97002,1.42635c-1.3748,0.12043 -2.77726,0.2758 -4.13984,0.05667c-12.88078,-2.07147 -7.6965,-15.64024 -15.29374,-22.47039c-6.11309,-5.49589 -17.08725,-5.16934 -24.87736,-5.88535c0,0 -2.74502,-0.25251 -2.49251,-2.99753c0.25254,-2.74503 2.99757,-2.49249 2.99757,-2.49249c9.24513,0.85122 20.84973,0.80867 28.08935,7.30356c6.25063,5.60764 3.97075,13.13734 8.28715,19.2203c3.04053,4.28491 13.75133,0.83875 17.48938,0.43448c12.91598,7.52214 4.74863,25.01783 -0.55917,35.08269c-0.38612,0.73223 -2.6803,3.29013 -3.07118,4.39789c-1.01232,2.86902 -0.70946,6.73859 -0.92429,9.70695l0.13434,0.97017c0,0 0.26761,2.74362 -2.47598,3.0112c-2.74361,0.26758 -3.01121,-2.47602 -3.01121,-2.47602z" data-paper-data="{&quot;index&quot;:null}" fill="#000000" stroke="none" stroke-width="0.5" stroke-linecap="butt"/><path d="M354.49478,197.46324l-0.79652,-1.73524c-1.00882,-3.48946 -2.68261,-7.33748 -2.71286,-11.02334c-0.06497,-7.91567 3.76051,-15.49037 1.74287,-23.61272c-0.76594,-3.08345 -2.09727,-8.44973 -5.65404,-9.16696c-1.97261,1.1476 -6.07571,3.57497 -7.92012,4.44602c-1.24791,0.58933 -2.50964,1.22099 -3.86371,1.4876c-12.80063,2.51987 -12.63889,-12.0047 -22.13208,-15.77941c-7.63869,-3.03741 -17.81987,1.07143 -25.37549,3.09894c0,0 -2.66247,0.71428 -3.3767,-1.94821c-0.71422,-2.66249 1.94827,-3.37673 1.94827,-3.37673c8.96736,-2.40486 19.83836,-6.46558 28.87994,-2.88143c7.80641,3.09456 8.27668,10.94775 14.43336,15.1583c4.33683,2.96599 13.19012,-3.9779 16.55658,-5.65231c14.72222,2.58097 13.12282,21.82274 11.63116,33.10324c-0.1085,0.82063 -1.37424,4.01504 -1.35711,5.18966c0.04439,3.04202 1.66931,6.56694 2.49626,9.42588l0.46213,0.86352c0,0 1.20168,2.48088 -1.27925,3.68255c-2.48094,1.20163 -3.68255,-1.27925 -3.68255,-1.27925z" data-paper-data="{&quot;index&quot;:null}" fill="#000000" stroke="none" stroke-width="0.5" stroke-linecap="butt"/><path d="M310.81036,108.49751c6.39173,14.2192 -0.31391,31.0896 -14.97746,37.68107c-14.66358,6.59149 -31.73221,0.40797 -38.12395,-13.81123c-6.39173,-14.2192 0.31387,-31.08961 14.97742,-37.68108c14.66355,-6.59147 31.73226,-0.40796 38.12399,13.81125z" data-paper-data="{&quot;index&quot;:null}" fill="#ffffff" stroke="#000000" stroke-width="2" stroke-linecap="butt"/><path d="M296.7499,113.79406c3.38392,7.52796 0.27361,16.26183 -6.94709,19.50763c-7.22067,3.2458 -15.81742,-0.22558 -19.20134,-7.75354c-3.38392,-7.52796 -0.27361,-16.26183 6.94706,-19.50762c7.22067,-3.2458 15.81744,0.22557 19.20136,7.75352z" data-paper-data="{&quot;index&quot;:null}" fill="#000000" stroke="none" stroke-width="0" stroke-linecap="butt"/><path d="M202.59867,125.3856c14.66358,-6.59149 31.73226,-0.40796 38.12397,13.81122c6.39173,14.2192 -0.31391,31.0896 -14.97746,37.68107c-14.66358,6.59149 -31.73224,0.40798 -38.12397,-13.81122c-6.39173,-14.2192 0.31388,-31.08957 14.97746,-37.68107z" fill="#ffffff" stroke="#000000" stroke-width="2" stroke-linecap="butt"/><path d="M207.86314,136.55927c7.22067,-3.2458 15.8174,0.22556 19.20133,7.75351c3.38392,7.52796 0.2736,16.26179 -6.94707,19.50759c-7.22067,3.2458 -15.81744,-0.22557 -19.20135,-7.75349c-3.38392,-7.52796 -0.27357,-16.2618 6.94711,-19.5076z" fill="#000000" stroke="none" stroke-width="0" stroke-linecap="butt"/><path d="M204.56321,274.04026l-8.14908,-18.12865l174.4905,-78.43595l8.14908,18.12865c0,0 -20.37931,33.84029 -76.51117,58.54046c-61.79496,27.19211 -97.9793,19.89549 -97.9793,19.89549z" fill="url(#color-68)" stroke="none" stroke-width="0" stroke-linecap="butt"/><path d="M223.92911,88.32147c1.31043,-0.58905 26.16283,53.18932 46.98055,99.97938c-0.89197,-0.21129 -1.72464,0.08941 -1.72464,0.08941c-14.52606,5.32814 -59.19719,25.99911 -67.89022,29.5583c-15.86551,5.88769 -32.32311,14.71898 -49.66262,15.48649c-1.64092,-3.19677 -3.1951,-6.46265 -4.68059,-9.76733c-20.80642,-46.28646 13.65756,-106.88304 76.97746,-135.34623zM183.86163,165.69805c4.85897,11.16031 24.89829,22.64202 46.42443,14.51872c7.7025,-2.90667 24.18939,-24.76187 11.24647,-46.20438c-3.25803,-5.3976 -18.15098,-23.22023 -42.11,-10.68799c-12.86369,6.7286 -24.38563,22.10462 -15.56091,42.37363z" fill="#ff0000" stroke="#000000" stroke-width="2" stroke-linecap="butt"/><path d="M183.7121,165.76539c-8.82472,-20.269 2.77326,-35.859 15.63695,-42.58761c23.95902,-12.53223 39.06251,5.347 42.32054,10.74459c12.94291,21.44251 -3.59826,43.52926 -11.30075,46.43593c-21.52614,8.12331 -41.79777,-3.43259 -46.65674,-14.5929z" data-paper-data="{&quot;noHover&quot;:false,&quot;origItem&quot;:[&quot;Path&quot;,{&quot;applyMatrix&quot;:true,&quot;segments&quot;:[[[441.7977,155.16587],[0,0],[-0.08774,7.42206]],[[463.98858,174.84783],[-14.00356,-0.86376],[5.01076,0.30908]],[[481.79554,151.96123],[1.83776,15.16202],[-0.4626,-3.81664]],[[461.04656,135.48855],[16.459,-0.98018],[-8.8369,0.52626]],[[441.7977,155.16585],[0.15934,-13.47972],[0,0]]],&quot;closed&quot;:true,&quot;fillColor&quot;:[0,0,0,1]}]}" fill="#000000" stroke="none" stroke-width="0.5" stroke-linecap="butt"/><path d="M297.48293,251.95104c-86.38665,46.82678 -123.086,21.50881 -144.79001,-17.18303c17.03355,-1.53254 33.10598,-9.85357 48.81214,-15.67162c8.8809,-3.63609 53.46143,-24.41301 67.75972,-29.50927c0,0 1.07684,-0.38891 1.59194,-1.35937c15.06513,33.94615 27.55162,63.22166 26.62628,63.72327z" fill="#ff0000" stroke="#000000" stroke-width="2" stroke-linecap="butt"/><path d="M381.63511,118.98015c1.48549,3.30467 2.8964,6.63496 4.19802,9.98425c-12.08413,12.45884 -29.61372,18.90527 -44.54878,26.86286c-8.4324,4.13897 -53.54524,23.82716 -67.17268,31.15438c0,0 -0.77759,0.42315 -1.2117,1.23051c-21.17549,-46.62921 -44.89944,-100.91487 -43.58904,-101.50391c63.31989,-28.46319 131.51775,-14.01457 152.32419,32.27193zM273.07928,89.22253c-25.27706,9.60008 -21.83346,32.56932 -19.9593,38.58899c7.44539,23.91372 34.73507,26.09074 42.02195,22.25947c20.36465,-10.70719 25.07963,-33.31639 19.95823,-44.35862c-9.30141,-20.05473 -28.4495,-21.6441 -42.02088,-16.48976z" data-paper-data="{&quot;index&quot;:null}" fill="#ff0000" stroke="#000000" stroke-width="2" stroke-linecap="butt"/><path d="M273.0184,89.07034c13.57138,-5.15434 32.92998,-3.4798 42.23139,16.57493c5.12139,11.04224 0.30769,33.87441 -20.05696,44.58161c-7.28688,3.83126 -34.78576,1.54114 -42.23115,-22.37258c-1.87416,-6.01967 -5.22033,-29.18394 20.05673,-38.78403z" data-paper-data="{&quot;noHover&quot;:false,&quot;origItem&quot;:[&quot;Path&quot;,{&quot;applyMatrix&quot;:true,&quot;segments&quot;:[[[510.53964,134.93675],[0,0],[-16.459,-0.98018]],[[489.79066,151.40941],[0.46262,-3.81664],[-1.83774,15.16202]],[[507.59762,174.29601],[-5.01076,0.30908],[14.00356,-0.86376]],[[529.7885,154.61407],[0.08774,7.422],[-0.15936,-13.47972]],[[510.53962,134.93679],[8.83692,0.52626],[0,0]]],&quot;closed&quot;:true,&quot;fillColor&quot;:[0,0,0,1]}]}" fill="#000000" stroke="none" stroke-width="0.5" stroke-linecap="butt"/><path d="M272.86897,188.09831c1.06774,0.25896 2.07338,-0.28827 2.07338,-0.28827c13.30281,-7.31083 58.4348,-26.86095 67.04948,-31.08937c14.77725,-7.88468 31.66953,-14.38178 44.12267,-26.10393c14.53054,41.91642 9.10464,86.17029 -83.26129,119.69532c-0.98942,0.35914 -14.59607,-28.41284 -29.98421,-62.21379z" data-paper-data="{&quot;index&quot;:null}" fill="#ff0000" stroke="#000000" stroke-width="2" stroke-linecap="butt"/><path d="M256.6055,155.05865c18.88486,-8.48901 41.0758,-0.0615 49.56482,18.82339c8.48901,18.88486 0.06153,41.07579 -18.82336,49.56481c-18.88486,8.48901 -41.07586,0.06153 -49.56487,-18.82333c-8.48901,-18.88486 -0.06149,-41.07584 18.8234,-49.56487z" fill="#ff7b00" stroke="#000000" stroke-width="2" stroke-linecap="butt"/><path d="M223.81958,148.78662c2.32079,5.16289 0.18423,11.15436 -4.77215,13.38233c-4.95638,2.22796 -10.85568,-0.15127 -13.17649,-5.31416c-2.32079,-5.16289 -0.18423,-11.15436 4.77215,-13.38233c4.95638,-2.22796 10.85568,0.15127 13.17649,5.31416z" fill="#000000" stroke="#ff0000" stroke-width="1.5" stroke-linecap="butt"/><path d="M294.53006,116.10227c2.32079,5.16289 0.18423,11.15436 -4.77215,13.38233c-4.95638,2.22796 -10.85568,-0.15127 -13.17649,-5.31416c-2.32079,-5.16289 -0.18423,-11.15436 4.77215,-13.38233c4.95638,-2.22796 10.85568,0.15127 13.17649,5.31416z" fill="#000000" stroke="#ff0000" stroke-width="1.5" stroke-linecap="butt"/></g></g></svg>