<svg version="1.1" xmlns="http://www.w3.org/2000/svg" xmlns:xlink="http://www.w3.org/1999/xlink" width="597.40473" height="377.8814" viewBox="0,0,597.40473,377.8814"><defs><linearGradient x1="355.41688" y1="127.26152" x2="378.18693" y2="127.26152" gradientUnits="userSpaceOnUse" id="color-1"><stop offset="0" stop-color="#696969"/><stop offset="1" stop-color="#8b8b8b"/></linearGradient><linearGradient x1="330.72297" y1="183.87132" x2="401.87159" y2="183.87132" gradientUnits="userSpaceOnUse" id="color-2"><stop offset="0" stop-color="#696969"/><stop offset="1" stop-color="#8b8b8b"/></linearGradient><linearGradient x1="326.93845" y1="133.15903" x2="406.41297" y2="133.15903" gradientUnits="userSpaceOnUse" id="color-3"><stop offset="0" stop-color="#8b8b8b"/><stop offset="1" stop-color="#696969"/></linearGradient><linearGradient x1="383.72588" y1="182.97194" x2="393.18711" y2="182.97194" gradientUnits="userSpaceOnUse" id="color-4"><stop offset="0" stop-color="#8b8b8b"/><stop offset="1" stop-color="#696969"/></linearGradient><linearGradient x1="368.96635" y1="182.59349" x2="378.42759" y2="182.59349" gradientUnits="userSpaceOnUse" id="color-5"><stop offset="0" stop-color="#8b8b8b"/><stop offset="1" stop-color="#696969"/></linearGradient><linearGradient x1="354.96365" y1="182.59349" x2="364.42494" y2="182.59349" gradientUnits="userSpaceOnUse" id="color-6"><stop offset="0" stop-color="#8b8b8b"/><stop offset="1" stop-color="#696969"/></linearGradient><linearGradient x1="340.20416" y1="182.21504" x2="349.6654" y2="182.21504" gradientUnits="userSpaceOnUse" id="color-7"><stop offset="0" stop-color="#8b8b8b"/><stop offset="1" stop-color="#696969"/></linearGradient><linearGradient x1="291.85823" y1="141.78104" x2="314.62836" y2="141.78104" gradientUnits="userSpaceOnUse" id="color-8"><stop offset="0" stop-color="#696969"/><stop offset="1" stop-color="#8b8b8b"/></linearGradient><linearGradient x1="267.16443" y1="198.39084" x2="338.31304" y2="198.39084" gradientUnits="userSpaceOnUse" id="color-9"><stop offset="0" stop-color="#696969"/><stop offset="1" stop-color="#8b8b8b"/></linearGradient><linearGradient x1="263.37989" y1="147.67855" x2="342.85441" y2="147.67855" gradientUnits="userSpaceOnUse" id="color-10"><stop offset="0" stop-color="#8b8b8b"/><stop offset="1" stop-color="#696969"/></linearGradient><linearGradient x1="320.16731" y1="197.49146" x2="329.62854" y2="197.49146" gradientUnits="userSpaceOnUse" id="color-11"><stop offset="0" stop-color="#8b8b8b"/><stop offset="1" stop-color="#696969"/></linearGradient><linearGradient x1="305.40774" y1="197.11301" x2="314.86897" y2="197.11301" gradientUnits="userSpaceOnUse" id="color-12"><stop offset="0" stop-color="#8b8b8b"/><stop offset="1" stop-color="#696969"/></linearGradient><linearGradient x1="291.40506" y1="197.11301" x2="300.86634" y2="197.11301" gradientUnits="userSpaceOnUse" id="color-13"><stop offset="0" stop-color="#8b8b8b"/><stop offset="1" stop-color="#696969"/></linearGradient><linearGradient x1="276.64556" y1="196.73456" x2="286.10679" y2="196.73456" gradientUnits="userSpaceOnUse" id="color-14"><stop offset="0" stop-color="#8b8b8b"/><stop offset="1" stop-color="#696969"/></linearGradient><linearGradient x1="91.18513" y1="239.06386" x2="149.31725" y2="239.06386" gradientUnits="userSpaceOnUse" id="color-15"><stop offset="0" stop-color="#333232" stop-opacity="0"/><stop offset="1" stop-color="#333232"/></linearGradient><linearGradient x1="309.59801" y1="270.59079" x2="295.22641" y2="290.64074" gradientUnits="userSpaceOnUse" id="color-16"><stop offset="0" stop-color="#ff0000"/><stop offset="1" stop-color="#8c0a0a"/></linearGradient><linearGradient x1="308.68406" y1="275.91287" x2="294.31246" y2="295.96283" gradientUnits="userSpaceOnUse" id="color-17"><stop offset="0" stop-color="#ff0000"/><stop offset="1" stop-color="#8c0a0a"/></linearGradient><linearGradient x1="307.90554" y1="280.44651" x2="293.53394" y2="300.49647" gradientUnits="userSpaceOnUse" id="color-18"><stop offset="0" stop-color="#ff0000"/><stop offset="1" stop-color="#8c0a0a"/></linearGradient><linearGradient x1="307.05929" y1="285.37439" x2="292.68766" y2="305.42433" gradientUnits="userSpaceOnUse" id="color-19"><stop offset="0" stop-color="#ff0000"/><stop offset="1" stop-color="#8c0a0a"/></linearGradient><linearGradient x1="296.36762" y1="284.18184" x2="307.39642" y2="292.08718" gradientUnits="userSpaceOnUse" id="color-20"><stop offset="0" stop-color="#333333"/><stop offset="1" stop-color="#696969"/></linearGradient><linearGradient x1="33.97375" y1="263.25247" x2="170.97376" y2="263.25247" gradientUnits="userSpaceOnUse" id="color-21"><stop offset="0" stop-color="#333232"/><stop offset="1" stop-color="#333232" stop-opacity="0"/></linearGradient><linearGradient x1="33.97375" y1="263.25247" x2="170.97376" y2="263.25247" gradientUnits="userSpaceOnUse" id="color-22"><stop offset="0" stop-color="#333232"/><stop offset="1" stop-color="#333232" stop-opacity="0"/></linearGradient></defs><g transform="translate(40.52625,10.62893)"><g data-paper-data="{&quot;isPaintingLayer&quot;:true}" fill-rule="nonzero" stroke-linecap="butt" stroke-linejoin="miter" stroke-miterlimit="10" stroke-dasharray="" stroke-dashoffset="0" style="mix-blend-mode: normal"><path d="M-40.52625,367.25247v-204.20421h552.55255v204.20421z" fill="#aeaeae" stroke="none" stroke-width="0"/><path d="M67.98322,340.23445c32.99901,0 59.75,3.80558 59.75,8.5c0,4.69442 -26.75099,8.5 -59.75,8.5c-32.99901,0 -59.75,-3.80558 -59.75,-8.5c0,-4.69442 26.75099,-8.5 59.75,-8.5z" fill="#5e5e5e" stroke="#696969" stroke-width="0"/><path d="M-16.75672,313.6954l3.003,-324.32433h522.3974l1.5015,186.18619z" fill="#a79b6b" stroke="none" stroke-width="0"/><path d="M36.20706,350.87697l-10.42822,-6.5851c0,0 11.83817,-18.74705 17.61957,-27.90253c5.60346,-8.87371 20.6617,-30.05256 20.6617,-30.05256l12.94861,9.24921c0,0 -20.18333,23.88818 -26.35589,33.66311c-4.942,7.82622 -14.44577,21.62786 -14.44577,21.62786z" data-paper-data="{&quot;index&quot;:null}" fill="#333232" stroke="none" stroke-width="0"/><path d="M8.5249,329.54998c4.44669,-5.89917 16.5173,-7.90976 24.06904,-2.02137c7.55174,5.88839 7.7249,17.44595 3.27822,23.34512c-4.44669,5.89917 -31.79394,-15.42458 -27.34726,-21.32374z" data-paper-data="{&quot;index&quot;:null}" fill="#333232" stroke="none" stroke-width="0"/><text transform="translate(6.2703,22.01046) scale(0.40204,0.40204)" font-size="40" xml:space="preserve" fill="#ffffff" fill-rule="nonzero" stroke="none" stroke-width="1" stroke-linecap="butt" stroke-linejoin="miter" stroke-miterlimit="10" stroke-dasharray="" stroke-dashoffset="0" font-family="Pixel" font-weight="normal" text-anchor="start" style="mix-blend-mode: normal"><tspan x="0" dy="0">FEB 04 2019  4:48 PM</tspan><tspan x="0" dy="46.150000000000006px">BACK_ALLEY</tspan></text><g fill="#696969" stroke="#696969"><path d="M389.2796,253.78283l7.29728,1.17326l-10.07254,6.65659l-7.29728,-1.17326z" stroke-width="0"/><path d="M304.59238,233.94252l93.63082,12.303l-31.47321,20.79954l-87.60403,-16.28588c0,0 -0.20544,-2.5489 9.15292,-8.83758c11.06618,-7.43631 16.2935,-7.97908 16.2935,-7.97908z" stroke-width="0"/><path d="M395.14567,244.37517l10.18225,1.63711l-35.15624,23.23354l-10.18225,-1.63711z" stroke-width="0"/><path d="M295.6529,249.01872l69.5787,11.18692l-4.18527,2.7659l-69.5787,-11.18692z" stroke-width="2"/><path d="M302.52128,244.75849l69.57869,11.18692l-4.18526,2.7659l-69.5787,-11.18692z" stroke-width="2"/><path d="M308.71549,240.66496l69.5787,11.18692l-4.18527,2.7659l-69.5787,-11.18692z" stroke-width="2"/><path d="M315.58396,236.40473l69.5787,11.18692l-4.18527,2.7659l-69.5787,-11.18692z" stroke-width="2"/></g><g fill="#696969" stroke="#696969"><path d="M461.2796,239.78283l7.29728,1.17326l-10.07254,6.65659l-7.29728,-1.17326z" stroke-width="0"/><path d="M376.59246,219.94252l93.63082,12.303l-31.47321,20.79954l-87.60403,-16.28588c0,0 -0.20544,-2.5489 9.15292,-8.83758c11.06618,-7.43631 16.2935,-7.97908 16.2935,-7.97908z" stroke-width="0"/><path d="M467.14567,230.37517l10.18225,1.63711l-35.15624,23.23354l-10.18225,-1.63711z" stroke-width="0"/><path d="M367.65293,235.01872l69.5787,11.18692l-4.18527,2.7659l-69.5787,-11.18692z" stroke-width="2"/><path d="M374.52135,230.75849l69.57869,11.18692l-4.18526,2.7659l-69.5787,-11.18692z" stroke-width="2"/><path d="M380.71555,226.66496l69.5787,11.18692l-4.18527,2.7659l-69.5787,-11.18692z" stroke-width="2"/><path d="M387.58398,222.40473l69.5787,11.18692l-4.18527,2.7659l-69.5787,-11.18692z" stroke-width="2"/></g><g><path d="M355.41688,131.32986v-8.13668h22.77007v8.13668z" fill="url(#color-1)" stroke="none" stroke-width="0"/><path d="M338.292,234.20515l-7.569,-100.66766h71.14857l-6.05519,100.66767c0,0 -6.92197,3.64328 -28.36385,3.7845c-25.35485,0.16699 -29.16053,-3.7845 -29.16053,-3.7845z" fill="url(#color-2)" stroke="none" stroke-width="0"/><path d="M326.93845,138.83578v-11.3535h79.47447v11.3535z" fill="url(#color-3)" stroke="none" stroke-width="0"/><path d="M383.72588,221.76305v-77.58222h9.46124v77.58222z" fill="url(#color-4)" stroke="#494949" stroke-width="2"/><path d="M368.96635,221.3846v-77.58222h9.46124v77.58222z" fill="url(#color-5)" stroke="#494949" stroke-width="2"/><path d="M354.96365,221.3846v-77.58222h9.46125v77.58222z" fill="url(#color-6)" stroke="#494949" stroke-width="2"/><path d="M340.20416,221.00615v-77.58222h9.46125v77.58222z" fill="url(#color-7)" stroke="#494949" stroke-width="2"/></g><g><path d="M291.85823,145.84938v-8.13667h22.77007v8.13667z" fill="url(#color-8)" stroke="none" stroke-width="0"/><path d="M274.73339,248.72467l-7.569,-100.66766h71.14857l-6.05519,100.66767c0,0 -6.92197,3.64328 -28.36385,3.7845c-25.35485,0.16699 -29.16053,-3.7845 -29.16053,-3.7845z" fill="url(#color-9)" stroke="none" stroke-width="0"/><path d="M263.37989,153.3553v-11.3535h79.47447v11.3535z" fill="url(#color-10)" stroke="none" stroke-width="0"/><path d="M320.16731,236.28257v-77.58222h9.46124v77.58222z" fill="url(#color-11)" stroke="#494949" stroke-width="2"/><path d="M305.40774,235.90412v-77.58222h9.46124v77.58222z" fill="url(#color-12)" stroke="#494949" stroke-width="2"/><path d="M291.40506,235.90412v-77.58222h9.46125v77.58222z" fill="url(#color-13)" stroke="#494949" stroke-width="2"/><path d="M276.64556,235.52567v-77.58222h9.46125v77.58222z" fill="url(#color-14)" stroke="#494949" stroke-width="2"/></g><g data-paper-data="{&quot;index&quot;:null}" fill="#696969" stroke="none" stroke-width="0"><path d="M316.1237,275.83409c-14.27501,-8.2122 -2.6306,-14.79631 14.93498,-21.07647c17.56558,-6.28016 35.10283,-9.84049 49.37784,-1.62829c14.27501,8.2122 7.54519,21.27436 3.07303,23.01186c-7.43858,2.89 -53.11084,7.9051 -67.38586,-0.3071z"/><path d="M380.40265,274.24033l22.42864,-0.86911c0,0 -3.52407,1.21945 -8.98503,2.41579c-0.88114,0.19304 2.12008,1.64526 1.37686,1.93807c-0.86836,0.34211 -3.96717,-0.60559 -4.70484,-0.23676c-1.0186,0.50928 1.10643,2.11008 0.16598,2.49712c-2.86228,1.17796 -4.24111,0.01364 -5.47814,0.69191c-1.68106,0.92174 -1.80683,3.34856 -1.80683,3.34856z"/><path d="M387.35474,272.54505l2.13299,0.82265l-9.58794,5.11314l-2.133,-0.82265z"/></g><g data-paper-data="{&quot;index&quot;:null}" stroke="none" stroke-width="0"><path d="M300.72373,198.00159c5.8839,0.23998 29,18.69211 29,41.75c0,23.05789 -18.63247,27.75 -41,27.75c-22.36753,0 -40.5,-4.19211 -40.5,-27.25c0,-23.05789 42.71324,-42.64916 52.5,-42.25z" fill="#5e883f"/><path d="M289.87372,184.41662c0,0 3.4116,4.12445 5.99002,4.6798c1.89737,0.40866 1.39078,-2.46111 5.24659,-2.19336c1.26687,0.08797 1.7833,4.17553 3.27844,4.42679c1.08277,0.18196 2.22264,-3.37752 3.37159,-3.32272c0.98337,0.0469 0.60889,4.41963 1.56437,4.20838c5.9217,-1.30926 10.35388,-1.37937 10.35388,-1.37937l-18.8,12.38049z" fill="#5e883f"/><path d="M294.14295,198.9301l0.55207,-2.74503l14.50947,2.91811l-0.55207,2.74503z" fill="#515151"/></g><g data-paper-data="{&quot;index&quot;:null}" stroke="none" stroke-width="0"><path d="M374.7238,245.25158c0,23.05789 -18.13247,27.25 -40.5,27.25c-22.36753,0 -41,-4.69211 -41,-27.75c0,-23.05789 23.1161,-41.51002 29,-41.75c9.78676,-0.39916 52.5,19.19211 52.5,42.25z" fill="#689645"/><path d="M322.06888,208.21663l-18.8,-12.38049c0,0 4.43218,0.07012 10.35387,1.37938c0.95548,0.21125 0.581,-4.16148 1.56437,-4.20838c1.14895,-0.0548 2.28881,3.50469 3.37158,3.32272c1.49514,-0.25126 2.01156,-4.33882 3.27844,-4.42679c3.85582,-0.26775 3.34923,2.60203 5.2466,2.19337c2.57842,-0.55535 5.99002,-4.6798 5.99002,-4.6798z" fill="#689645"/><path d="M314.29506,206.8482l-0.55208,-2.74503l14.50947,-2.91811l0.55208,2.74504z" fill="#515151"/></g><path d="M406.4145,203.16603l-2,-121.59459l64.66967,43v94.59459z" fill="#337600" stroke="none" stroke-width="0"/><path d="M468.4145,219.16603v-94.59459l62.66967,-16v94.59459z" data-paper-data="{&quot;index&quot;:null}" fill="#409600" stroke="none" stroke-width="0"/><path d="M556.87848,101.27118l-90.2831,28.23296l-64.64196,-47.3712l99.94976,-20.89962z" data-paper-data="{&quot;index&quot;:null}" fill="#595959" stroke="none" stroke-width="0"/><path d="" fill="url(#color-15)" stroke="none" stroke-width="NaN"/><path d="M155.16292,316.02228c-6.70843,3.09359 -18.294,-0.84553 -22.16146,-9.60593c-3.86746,-8.7604 1.44773,-19.0247 8.15615,-22.11828c6.70843,-3.09359 20.71375,28.63063 14.00533,31.72421z" data-paper-data="{&quot;index&quot;:null}" fill="#333232" stroke="none" stroke-width="0"/><path d="M67.79119,224.27574c17.25366,-2.0811 22.33627,13.99138 24.78329,34.27887c2.44704,20.28749 9.70805,31.53472 -15.16498,37.56092c-21.28404,5.15667 -23.09311,-12.36368 -25.54013,-32.65117c-2.44703,-20.28749 -4.99584,-37.32686 15.92181,-39.18863z" data-paper-data="{&quot;index&quot;:null}" fill="#333232" stroke="none" stroke-width="0"/><path d="M28.05775,251.4654c11.54474,-0.60737 31.86309,-22.99015 31.86309,-22.99015l9.02788,13.49535c0,0 -29.75319,24.01268 -40.23354,24.56406c-10.81312,0.56889 -31.94792,-22.17202 -31.94792,-22.17202l6.89936,-10.50307c0,0 15.14796,18.09213 24.39113,17.60584z" data-paper-data="{&quot;index&quot;:null}" fill="#333232" stroke="none" stroke-width="0"/><path d="M113.2839,245.26664c-8.857,-7.42989 -38.98208,-4.91931 -38.98208,-4.91931l2.60234,-16.02669c0,0 31.33132,-0.25734 39.37173,6.48751c8.29573,6.95904 25.28233,21.2086 25.28233,21.2086l-7.92646,9.44894c0,0 -13.25657,-10.25039 -20.34785,-16.19907z" data-paper-data="{&quot;index&quot;:null}" fill="#333232" stroke="none" stroke-width="0"/><path d="M-9.61066,241.52457c-1.19244,-6.23834 2.67819,-12.22012 8.6453,-13.36071c5.9671,-1.14059 11.77106,2.99195 12.96349,9.23028c1.19245,6.23834 -2.67819,12.22015 -8.6453,13.36072c-5.9671,1.14059 -11.77106,-2.99195 -12.96349,-9.23029z" data-paper-data="{&quot;index&quot;:null}" fill="#000000" stroke="none" stroke-width="0"/><path d="M151.16223,262.24111c-2.1447,5.97821 -8.51893,9.16147 -14.2372,7.11002c-5.71827,-2.05144 -8.61524,-8.56078 -6.47055,-14.53898c2.1447,-5.97821 8.5189,-9.16148 14.23719,-7.11004c5.71826,2.05145 8.61524,8.56078 6.47055,14.53898z" data-paper-data="{&quot;index&quot;:null}" fill="#000000" stroke="none" stroke-width="0"/><path d="M36.26284,209.73114c-3.30602,-13.21579 3.6416,-26.33773 15.51795,-29.30869c11.87636,-2.97095 24.1841,5.33415 27.49012,18.54992c3.30602,13.21579 -3.6416,26.33773 -15.51795,29.30869c-11.87636,2.97095 -24.18409,-5.33413 -27.49011,-18.54992z" data-paper-data="{&quot;index&quot;:null}" fill="#000000" stroke="none" stroke-width="0"/><path d="M51.08935,204.69554c-3.79745,-15.1803 -9.65797,-25.97912 3.27123,-29.21345c12.92919,-3.23433 26.48883,6.44978 30.28628,21.63007c3.79745,15.18029 -3.60528,30.10829 -16.53447,33.34262c-12.92918,3.23432 -13.22559,-10.57897 -17.02304,-25.75926z" data-paper-data="{&quot;index&quot;:null}" fill="#333232" stroke="none" stroke-width="0"/><path d="M300.23321,288.73445c17.67311,0 32,3.80558 32,8.5c0,4.69442 -14.32689,8.5 -32,8.5c-17.67311,0 -32,-3.80558 -32,-8.5c0,-4.69442 14.32689,-8.5 32,-8.5z" fill="#5e5e5e" stroke="#696969" stroke-width="0"/><g><path d="M281.83018,273.73301l42.28109,7.26076l-1.11703,6.50478l-42.28111,-7.26076z" fill="url(#color-16)" stroke="#000000" stroke-width="0.5"/><path d="M280.91623,279.05507l42.28109,7.26077l-1.11704,6.50478l-42.2811,-7.26077z" fill="url(#color-17)" stroke="#000000" stroke-width="0.5"/><path d="M280.13773,283.58872l42.2811,7.26077l-1.11703,6.50479l-42.2811,-7.26076z" fill="url(#color-18)" stroke="#000000" stroke-width="0.5"/><path d="M279.29146,288.51658l42.2811,7.26076l-1.11705,6.50478l-42.28109,-7.26076z" fill="url(#color-19)" stroke="#000000" stroke-width="0.5"/><path d="M301.44307,277.10105l4.53364,0.77855l-3.65578,21.28838l-4.53364,-0.77853z" fill="url(#color-20)" stroke="none" stroke-width="0"/><path d="M299.45399,280.41215l7.49035,1.28629l-2.43718,14.19225l-7.49036,-1.28629z" fill="#6ee400" stroke="#333333" stroke-width="1"/></g><path d="M115.65823,303.96541c9.24318,0.48629 24.39114,-17.60584 24.39114,-17.60584l6.89936,10.50308c0,0 -21.13481,22.74091 -31.94792,22.17202c-10.48035,-0.55138 -40.23354,-24.56406 -40.23354,-24.56406l9.02788,-13.49535c0,0 20.31835,22.38278 31.8631,22.99015z" data-paper-data="{&quot;index&quot;:null}" fill="#333232" stroke="none" stroke-width="0"/><path d="M33.97375,352.25247v-12.96615c3.05888,-3.07519 5.2805,-7.97831 7.98792,-11.11821c1.10803,-1.28503 2.55675,-1.69057 3.80908,-2.79822c4.61825,-4.0847 8.62464,-9.02928 12.83825,-13.45714c1.21908,-1.28107 3.75965,-8.18808 4.45902,-10.59663c1.98166,-6.82466 7.0359,-11.21787 8.95205,-17.65499c0.76258,-2.5618 1.84218,-5.24295 2.65706,-7.92675c2.23262,-1.29757 4.60419,-2.7934 4.79662,-3.07335c4.79228,-6.97215 -3.5201,-17.96185 -4.63988,-24.98053c-0.69444,-4.3527 -2.70961,-7.36736 -3.77513,-11.53085c-1.40613,-5.49445 -0.28333,-11.99962 -1.89072,-18.386c-1.51489,-6.01887 -6.38197,-11.20357 -6.38197,-17.76831c0,-2.97198 -1.65349,-6.60701 -2.7418,-9.26212c-0.24255,-0.59175 -1.20471,-2.21943 -1.03028,-2.46579c1.52538,-2.15445 3.78518,-5.15011 3.27208,-8.22643c-0.12953,-0.77659 -1.69732,-2.30552 -1.9461,-3.18552c-0.23504,-0.8314 -0.09359,-1.80505 -0.36892,-2.60303h111.00272v178z" fill="url(#color-21)" stroke="none" stroke-width="0"/><path d="" fill="url(#color-22)" stroke="none" stroke-width="0"/></g></g></svg>