<svg version="1.1" xmlns="http://www.w3.org/2000/svg" xmlns:xlink="http://www.w3.org/1999/xlink" width="217.0333" height="149.23884" viewBox="0,0,217.0333,149.23884"><g transform="translate(-131.4817,-105.38058)"><g data-paper-data="{&quot;isPaintingLayer&quot;:true}" fill-rule="nonzero" stroke-linecap="butt" stroke-linejoin="miter" stroke-miterlimit="10" stroke-dasharray="" stroke-dashoffset="0" style="mix-blend-mode: normal"><g><path d="M199.17372,188.80315h-38.08344v-80.92257h184.92472v80.92257h-123.19029" fill="none" stroke="#0cff00" stroke-width="5"/><path d="M250.46602,137.84736v-29.22h6.17324v29.22z" fill="none" stroke="#0cff00" stroke-width="5"/><path d="M250.46602,188.46792v-29.22h6.17324v29.22z" fill="none" stroke="#0cff00" stroke-width="5"/><path d="M185.02968,123.50414v-15.22732h41.15493v15.22732z" fill="none" stroke="#0cff00" stroke-width="5"/><path d="M330.29401,127.76906l15.22732,-0.0093l0.02514,41.15492l-15.22732,0.0093z" fill="none" stroke="#0cff00" stroke-width="5"/><path d="M133.98501,131.67701l26.73171,-0.00753l0.04412,33.33725l-26.73171,0.00753z" fill="none" stroke="#0cff00" stroke-width="5"/><path d="M199.19641,188.92062h-8.09334v18.35157h41.82237" fill="none" stroke="#0cff00" stroke-width="5"/><path d="M249.36926,207.27218h42.78239" fill="none" stroke="#0cff00" stroke-width="5"/><path d="M308.59351,207.27218h7.40869v-18.35157h-93.20525" fill="none" stroke="#0cff00" stroke-width="5"/><path d="M308.59485,207.30032h7.251v44.8191h-58.42489v-44.8191h34.72936" fill="none" stroke="#0cff00" stroke-width="5"/><path d="M249.31002,207.94767h7.89125v29.81103h-31.68017v-29.81103h7.46358" fill="none" stroke="#0cff00" stroke-width="5"/><path d="M282.23152,235.16098v-9.60409h9.60409v9.60409z" fill="#0cff00" stroke="none" stroke-width="0"/><path d="M141.40545,249.99454v-84.3676h10.70028v72.39152l105.26047,0.35555l0.09615,11.62053z" fill="none" stroke="#0cff00" stroke-width="5"/></g></g></g></svg>