<svg version="1.1" xmlns="http://www.w3.org/2000/svg" xmlns:xlink="http://www.w3.org/1999/xlink" width="533.64535" height="585.74836" viewBox="0,0,533.64535,585.74836"><defs><linearGradient x1="141.61603" y1="224.83021" x2="131.29364" y2="236.11406" gradientUnits="userSpaceOnUse" id="color-1"><stop offset="0" stop-color="#5c5c5c"/><stop offset="1" stop-color="#9b9b9b"/></linearGradient><linearGradient x1="71.05691" y1="167.09738" x2="93.0872" y2="187.25051" gradientUnits="userSpaceOnUse" id="color-2"><stop offset="0" stop-color="#5c5c5c"/><stop offset="1" stop-color="#9b9b9b"/></linearGradient><linearGradient x1="-51.5671" y1="395.65515" x2="-88.6545" y2="392.01316" gradientUnits="userSpaceOnUse" id="color-3"><stop offset="0" stop-color="#5c5c5c"/><stop offset="1" stop-color="#9b9b9b"/></linearGradient><linearGradient x1="183.54585" y1="275.01812" x2="207.16747" y2="296.627" gradientUnits="userSpaceOnUse" id="color-4"><stop offset="0" stop-color="#5c5c5c"/><stop offset="1" stop-color="#9b9b9b"/></linearGradient><linearGradient x1="-2.48208" y1="437.62204" x2="4.43977" y2="474.23935" gradientUnits="userSpaceOnUse" id="color-5"><stop offset="0" stop-color="#5c5c5c"/><stop offset="1" stop-color="#9b9b9b"/></linearGradient><linearGradient x1="130.77501" y1="279.86142" x2="133.79576" y2="294.85304" gradientUnits="userSpaceOnUse" id="color-6"><stop offset="0" stop-color="#5c5c5c"/><stop offset="1" stop-color="#9b9b9b"/></linearGradient><linearGradient x1="94.30474" y1="248.47265" x2="79.10399" y2="246.79558" gradientUnits="userSpaceOnUse" id="color-7"><stop offset="0" stop-color="#5c5c5c"/><stop offset="1" stop-color="#9b9b9b"/></linearGradient><linearGradient x1="35.45768" y1="334.40308" x2="48.89079" y2="346.69156" gradientUnits="userSpaceOnUse" id="color-8"><stop offset="0" stop-color="#5c5c5c"/><stop offset="1" stop-color="#9b9b9b"/></linearGradient><linearGradient x1="107.30254" y1="171.48872" x2="268.95454" y2="198.25718" gradientUnits="userSpaceOnUse" id="color-9"><stop offset="0" stop-color="#6c6c6c"/><stop offset="1" stop-color="#c4c4c4"/></linearGradient><linearGradient x1="163.17329" y1="155.9618" x2="226.75639" y2="166.49072" gradientUnits="userSpaceOnUse" id="color-10"><stop offset="0" stop-color="#6e6e6e"/><stop offset="1" stop-color="#c0c0c0"/></linearGradient><linearGradient x1="211.2915" y1="59.03134" x2="205.31319" y2="95.13371" gradientUnits="userSpaceOnUse" id="color-11"><stop offset="0" stop-color="#a6a6a6"/><stop offset="1" stop-color="#707070"/></linearGradient><linearGradient x1="207.23081" y1="81.88197" x2="195.72036" y2="151.39232" gradientUnits="userSpaceOnUse" id="color-12"><stop offset="0" stop-color="#a6a6a6"/><stop offset="1" stop-color="#707070"/></linearGradient><linearGradient x1="165.53008" y1="56.35945" x2="172.46836" y2="144.56793" gradientUnits="userSpaceOnUse" id="color-13"><stop offset="0" stop-color="#a6a6a6"/><stop offset="1" stop-color="#707070"/></linearGradient><linearGradient x1="253.94771" y1="73.76902" x2="218.94606" y2="155.03241" gradientUnits="userSpaceOnUse" id="color-14"><stop offset="0" stop-color="#a6a6a6"/><stop offset="1" stop-color="#707070"/></linearGradient><linearGradient x1="198.66661" y1="135.27172" x2="195.36516" y2="155.2088" gradientUnits="userSpaceOnUse" id="color-15"><stop offset="0" stop-color="#a6a6a6"/><stop offset="1" stop-color="#707070"/></linearGradient><linearGradient x1="192.24029" y1="152.47689" x2="189.02347" y2="171.90285" gradientUnits="userSpaceOnUse" id="color-16"><stop offset="0" stop-color="#707070"/><stop offset="1" stop-color="#a6a6a6"/></linearGradient><linearGradient x1="174.66932" y1="567.36538" x2="194.03954" y2="594.39488" gradientUnits="userSpaceOnUse" id="color-17"><stop offset="0" stop-color="#5c5c5c"/><stop offset="1" stop-color="#9b9b9b"/></linearGradient><linearGradient x1="207.34957" y1="422.21121" x2="226.71976" y2="449.24069" gradientUnits="userSpaceOnUse" id="color-18"><stop offset="0" stop-color="#5c5c5c"/><stop offset="1" stop-color="#9b9b9b"/></linearGradient><linearGradient x1="198.60592" y1="361.43277" x2="213.81674" y2="360.00987" gradientUnits="userSpaceOnUse" id="color-19"><stop offset="0" stop-color="#5c5c5c"/><stop offset="1" stop-color="#9b9b9b"/></linearGradient><linearGradient x1="192.61226" y1="506.24866" x2="207.47187" y2="509.79614" gradientUnits="userSpaceOnUse" id="color-20"><stop offset="0" stop-color="#5c5c5c"/><stop offset="1" stop-color="#9b9b9b"/></linearGradient><linearGradient x1="-195.0368" y1="225.85827" x2="-223.68009" y2="208.9654" gradientUnits="userSpaceOnUse" id="color-21"><stop offset="0" stop-color="#5c5c5c"/><stop offset="1" stop-color="#9b9b9b"/></linearGradient><linearGradient x1="-53.35917" y1="180.4141" x2="-82.00233" y2="163.52132" gradientUnits="userSpaceOnUse" id="color-22"><stop offset="0" stop-color="#5c5c5c"/><stop offset="1" stop-color="#9b9b9b"/></linearGradient><linearGradient x1="7.95567" y1="183.72465" x2="8.02192" y2="168.44758" gradientUnits="userSpaceOnUse" id="color-23"><stop offset="0" stop-color="#5c5c5c"/><stop offset="1" stop-color="#9b9b9b"/></linearGradient><linearGradient x1="-135.75543" y1="202.55764" x2="-140.60875" y2="188.07188" gradientUnits="userSpaceOnUse" id="color-24"><stop offset="0" stop-color="#5c5c5c"/><stop offset="1" stop-color="#9b9b9b"/></linearGradient></defs><g transform="translate(225.98785,-11.75981)"><g data-paper-data="{&quot;isPaintingLayer&quot;:true}" fill-rule="nonzero" stroke-linejoin="miter" stroke-miterlimit="10" stroke-dasharray="" stroke-dashoffset="0" style="mix-blend-mode: normal"><path d="M74.33728,184.01078l10.32238,-11.28383l113.91273,104.20653l-10.32237,11.28383z" fill="url(#color-1)" stroke="none" stroke-width="0" stroke-linecap="butt"/><path d="M93.0872,187.25051c-5.56515,6.08352 -15.00821,6.50373 -21.09171,0.9386c-6.08352,-5.56515 -6.50373,-15.00821 -0.93859,-21.09174c5.56513,-6.08349 15.00826,-6.50371 21.09175,-0.9386c6.08349,5.56513 6.50369,15.00821 0.93855,21.09171z" fill="url(#color-2)" stroke="none" stroke-width="0" stroke-linecap="butt"/><path d="M-88.65453,392.01313c2.46697,-10.22969 12.76913,-17.70716 23.01052,-16.70147c10.2414,1.00575 16.5438,10.11383 14.07686,20.34354c-2.46695,10.2297 -12.76911,17.70722 -23.01051,16.70151c-10.24137,-1.00573 -16.54379,-10.11384 -14.07684,-20.34355z" data-paper-data="{&quot;index&quot;:null}" fill="url(#color-3)" stroke="none" stroke-width="0" stroke-linecap="butt"/><path d="M207.16747,296.627c-5.96716,6.52297 -16.09234,6.97352 -22.61524,1.00639c-6.52292,-5.96711 -6.97348,-16.09236 -1.00638,-22.61526c5.96715,-6.52295 16.09231,-6.97348 22.61525,-1.00635c6.52292,5.96711 6.97351,16.0923 1.00637,22.61523z" fill="url(#color-4)" stroke="none" stroke-width="0" stroke-linecap="butt"/><path d="M4.43977,474.23935c-9.97016,3.36583 -19.60207,-2.10265 -21.51349,-12.21421c-1.91141,-10.1116 4.62147,-21.03722 14.59164,-24.40304c9.97016,-3.36583 19.60203,2.10264 21.51347,12.21425c1.91141,10.1116 -4.62145,21.03719 -14.59157,24.40306z" fill="url(#color-5)" stroke="none" stroke-width="0" stroke-linecap="butt"/><path d="M-61.70147,328.60353c22.49675,-24.59219 145.54401,87.97051 123.04726,112.56271c-22.49675,24.59219 -90.84665,-1.31461 -102.25758,-11.75326c-15.1722,-13.8794 -43.28641,-76.21723 -20.78964,-100.80944z" fill="#1300d2" stroke="#000000" stroke-width="2" stroke-linecap="butt"/><path d="M162.81559,206.53922c23.48709,22.74917 33.2883,117.28259 -20.05555,175.59512c-17.39211,19.01209 -37.3529,33.5186 -57.82355,43.09629c-42.31543,19.79845 -148.85707,-76.67755 -133.62357,-120.03571c7.65777,-21.79586 20.53798,-43.5753 38.38303,-63.08249c53.34386,-58.31252 145.38414,-62.43736 173.11968,-35.5732z" fill="#696969" stroke="#000000" stroke-width="2" stroke-linecap="butt"/><path d="M76.51935,290.79325l108.5113,-21.86362l3.02061,14.99166l-108.5113,21.86362z" fill="url(#color-6)" stroke="none" stroke-width="0" stroke-linecap="butt"/><path d="M73.03454,301.8078l12.1389,-110.02443l15.20071,1.67705l-12.13886,110.02444z" data-paper-data="{&quot;index&quot;:null}" fill="url(#color-7)" stroke="none" stroke-width="0" stroke-linecap="butt"/><path d="M-9.02667,383.0309l88.96876,-97.25564l13.43309,12.28849l-88.96874,97.25566z" fill="url(#color-8)" stroke="none" stroke-width="0" stroke-linecap="butt"/><path d="M96.11469,299.07238c2.19911,-1.61921 3.8183,0.57988 3.8183,0.57988l1.21969,1.76629c0.44474,1.02675 0.88948,2.05344 1.33422,3.08019c1.02434,6.69679 0.99165,14.28644 0.78358,21.46171c2.05989,0.59286 4.27619,0.68329 6.66341,0.0513c5.58177,-1.47783 6.69926,-7.70341 9.45741,-11.80233c3.36014,-4.99354 8.712,-8.41463 12.19517,-13.3304c5.07456,-7.16172 6.26774,-18.26815 6.59792,-26.80765c0.38493,-8.22779 -6.21989,-15.65047 -4.67747,-23.53124c1.30024,-6.64349 7.701,-10.45553 10.05557,-16.40474c-2.00199,1.65655 -4.28612,2.90453 -6.93155,3.57938c-6.52702,1.66513 -15.99829,0.48272 -22.4636,-0.78365c-4.19826,-0.82234 -10.40444,-4.05478 -14.75425,-3.52013c-3.34614,0.41126 -6.13474,2.79878 -9.22694,4.14189c-12.14821,5.27667 -27.96461,9.51988 -24.47797,25.69261c0.78355,3.63451 1.81104,6.37898 4.62304,8.84867l0.89925,0.82262c0,0 2.01498,1.8433 0.17172,3.85826c-1.84328,2.01496 -3.85827,0.17166 -3.85827,0.17166l-0.89925,-0.82262c-7.15368,-6.73741 -10.69484,-23.5035 -2.41155,-31.18084c6.23239,-5.77648 16.10321,-9.06676 23.77703,-12.39998c0.88805,-0.38575 10.26282,-4.49665 10.8115,-4.56195c5.08515,-0.60524 11.49502,2.62188 16.39972,3.59066c5.74139,1.13402 14.35026,2.26278 20.16692,0.82424c5.58117,-1.38032 9.35087,-6.83542 12.26571,-13.08061c1.20262,-6.67475 1.49197,-13.51956 0.16209,-19.85355c0,0 -0.5496,-2.67504 2.12545,-3.22456c2.675,-0.54958 3.22459,2.12545 3.22459,2.12545c0.33808,1.67811 0.58196,3.39193 0.73944,5.12981c0.24829,-0.59566 0.49624,-1.16411 0.74517,-1.70026c0,0 1.15022,-2.47689 3.62706,-1.3267c2.47686,1.15016 1.32666,3.62702 1.32666,3.62702c-2.12651,4.57946 -4.04932,10.34498 -6.47443,15.82998c-0.9181,5.43306 -2.4167,10.75756 -4.27055,15.64246c-2.261,5.95769 -8.58954,9.82943 -10.0177,16.14557c-0.85116,3.76425 2.50575,7.93348 3.56937,11.28274c1.1467,3.61085 1.36366,7.51269 1.23061,11.29897c-0.40834,9.67441 -1.87793,21.62887 -7.5828,29.72161c-3.47537,4.93004 -8.86769,8.34937 -12.19924,13.33615c-3.68462,5.5153 -4.96935,11.88726 -12.41143,13.90913c-2.99349,0.8133 -5.77394,0.82568 -8.36229,0.25559c-0.00468,0.1343 -0.00932,0.26833 -0.01396,0.40205c-0.17908,5.17201 -1.4368,9.67798 0.03653,14.78619c4.58802,15.90691 21.56122,0.71384 25.92383,-6.79701c9.00053,-21.71554 17.02898,-45.86218 41.78726,-54.3705c3.54282,-1.21753 7.13442,-1.40741 10.76039,-1.45617c-0.80641,1.10907 -0.66804,2.67095 0.36765,3.61836c0.1197,0.10951 0.24653,0.2064 0.3788,0.29061c-0.13216,0.47437 -0.1332,0.97604 -0.00568,1.44895c-3.31433,0.01378 -6.60507,0.17182 -9.72983,1.26476c-23.20243,8.11557 -30.19603,31.3388 -38.6667,51.63287c-2.82769,4.84305 -6.41371,10.44174 -11.41653,13.34614c-9.54546,5.5416 -21.23088,3.82496 -24.64439,-7.45473c-1.73055,-5.71857 -0.45858,-10.73107 -0.25001,-16.49807c0.02754,-0.76074 0.05708,-1.53393 0.08703,-2.31697c-5.48792,-3.09153 -9.98506,-8.5506 -13.76896,-13.47862c-0.64353,-1.00999 -1.28702,-2.01998 -1.93054,-3.02997l0.01136,0.13801c0,0 -2.01497,-1.84327 -0.17168,-3.85826c1.84328,-2.01496 3.85824,-0.1717 3.85824,-0.1717l0.91058,0.96055c0.59845,0.94249 1.19691,1.88506 1.79539,2.82759c2.62324,3.40393 5.74766,7.55456 9.50946,10.37843c0.15394,-5.83047 0.12141,-11.84307 -0.67162,-17.15298c-0.36202,-0.79976 -0.72399,-1.59952 -1.08595,-2.39922l-0.6217,-0.73463c0,0 -1.61918,-2.19909 0.57987,-3.81828z" fill="#000000" stroke="none" stroke-width="0.5" stroke-linecap="butt"/><path d="M68.96538,296.17275c-0.7597,2.62311 -3.38277,1.86344 -3.38277,1.86344l-1.74624,-0.65059c-6.11395,0.1859 -11.9181,2.70014 -17.81194,4.42274c-21.39108,6.14157 -39.23491,-13.2872 -33.2298,-34.52825c3.37296,-11.93065 18.97229,-20.90141 29.98705,-23.56106c17.74141,-5.40519 27.61732,-14.79247 36.13042,-30.95434c2.16555,-4.11125 4.97603,-10.91206 4.06892,-16.25098c0.87835,0.09645 1.63775,-0.26976 1.63775,-0.26976c1.10003,-0.54769 2.26983,-1.00082 3.47141,-1.28706c1.03102,5.0401 -0.35754,10.64134 -2.2727,15.6655c-7.57752,19.87859 -21.47614,32.19325 -41.59672,38.36549c-9.49516,2.28441 -20.28953,8.70251 -25.46159,17.50163c-1.4423,2.45374 -1.26326,5.60895 -1.11975,8.27065c0.25457,4.72094 0.00941,10.23935 2.9047,14.34691c5.7199,8.1149 15.08598,10.10177 23.94812,7.45897c6.40756,-1.8726 12.47169,-4.33406 19.13281,-4.63797l3.47688,0.86208c0,0 2.6231,0.75965 1.86341,3.38276z" fill="#000000" stroke="none" stroke-width="0.5" stroke-linecap="butt"/><path d="M87.51922,298.44442c2.01496,1.84328 0.17168,3.85822 0.17168,3.85822l-1.50777,1.43612c-5.45196,3.00428 -10.3402,7.2665 -16.08315,9.74432c-3.15412,1.36085 -9.15006,1.68137 -11.51057,4.825c-2.42917,3.23503 -1.88015,8.61394 -1.90725,12.33977c-0.0611,8.40538 1.70568,16.58175 1.83891,25.02388c-1.11675,2.92509 -1.83768,6.22485 -4.54744,8.25659c-9.76478,7.32165 -27.40342,0.40216 -38.14061,-1.52186c-3.12809,-0.56054 -6.22247,-2.81664 -9.30872,-2.05891c-0.91584,0.22485 -1.02958,1.58384 -1.46446,2.42065c-2.27672,4.3807 -3.70298,8.09148 -4.42564,12.97868c-0.71106,4.80876 -0.60883,8.24866 0.58506,12.94259c0,0 0.66824,2.64787 -1.97965,3.31609c-2.6479,0.66821 -3.31607,-1.9797 -3.31607,-1.9797c-1.3468,-5.37468 -1.50887,-9.58684 -0.69195,-15.08024c0.73151,-4.91922 3.46924,-17.65847 9.36897,-19.70979c0.93846,-0.32628 10.67795,1.52253 12.19587,1.79453c10.25972,1.83848 31.21632,10.62097 36.34408,-2.29681c-0.40314,-11.39937 -6.52291,-29.74382 1.19555,-39.85184c3.22373,-4.22174 9.2503,-4.54937 13.65843,-6.43827c5.54061,-2.37421 10.2908,-6.57579 15.54797,-9.48569l0.11856,-0.34168c0,0 1.84326,-2.01494 3.85822,-0.17166z" fill="#000000" stroke="none" stroke-width="0.5" stroke-linecap="butt"/><g><path d="M35.54682,288.7216l50.1371,-54.80707l57.09069,52.22614l-50.1371,54.80707z" fill="#323232" stroke="none" stroke-width="0" stroke-linecap="butt"/><g stroke="#000000"><path d="M110.47392,263.7029c12.19665,11.15741 13.03913,30.08964 1.88171,42.28631c-11.15741,12.19665 -30.08968,13.0391 -42.28632,1.88172c-12.19665,-11.15741 -13.0391,-30.08968 -1.88172,-42.28628c11.1574,-12.19666 30.0897,-13.03913 42.28633,-1.88174z" fill="#878787" stroke-width="1" stroke-linecap="butt"/><path d="M119.93169,287.8944l-34.29238,-30.94741" fill="none" stroke-width="1.5" stroke-linecap="round"/><path d="M117.23749,296.85065l-39.6281,-36.67445" fill="none" stroke-width="1.5" stroke-linecap="round"/><path d="M71.11306,263.11604l41.75949,39.89325" fill="none" stroke-width="1.5" stroke-linecap="round"/><path d="M66.67977,268.15495l42.87166,40.06464" fill="none" stroke-width="1.5" stroke-linecap="round"/><path d="M117.70924,276.55881l-19.61278,-18.3972" fill="none" stroke-width="1.5" stroke-linecap="round"/><path d="M60.73802,283.62825l33.87101,31.40797" data-paper-data="{&quot;index&quot;:null}" fill="none" stroke-width="1.5" stroke-linecap="round"/><path d="M63.24109,275.34335l40.04938,36.21392" data-paper-data="{&quot;index&quot;:null}" fill="none" stroke-width="1.5" stroke-linecap="round"/><path d="M63.05423,295.92835l20.06652,17.90119" data-paper-data="{&quot;index&quot;:null}" fill="none" stroke-width="1.5" stroke-linecap="round"/></g></g><path d="M162.86135,207.56805c0.35452,0.25144 -19.90371,21.71336 -49.53792,55.86704c-1.09978,-1.92967 -25.54357,-21.21618 -45.73097,0.9676c-19.57587,23.39599 0.05565,44.08836 2.95923,45.02034c-27.44272,31.65055 -54.75242,58.59571 -74.05895,78.50124c-2.62614,2.70761 -20.77141,-16.73967 -34.73628,-40.83144c-10.04478,-17.32896 -12.60832,-34.5774 -10.39779,-40.86904c7.65774,-21.7959 20.53798,-43.5753 38.38302,-63.08249c53.34386,-58.31252 145.38415,-62.43731 173.11966,-35.57318z" fill="#1300d2" stroke="#000000" stroke-width="2" stroke-linecap="butt"/><path d="M142.59131,382.96698c-17.84504,19.5072 -38.39432,34.27102 -59.42383,43.8345c-6.07044,2.76063 -23.47844,1.73931 -41.63107,-6.72659c-25.23696,-11.76972 -46.21909,-28.11595 -43.75545,-30.97221c18.11205,-20.99828 42.52494,-50.59349 71.61281,-80.73895c1.18617,2.80934 23.5405,20.52528 45.10521,-1.05132c20.30293,-22.07805 -1.07842,-44.7121 -3.0982,-45.63616c31.38646,-32.55073 50.96411,-54.63521 51.2461,-54.30439c29.22153,25.23974 33.28832,117.28256 -20.05556,175.59513z" fill="#1300d2" stroke="#000000" stroke-width="2" stroke-linecap="butt"/><g fill="#8b0000" stroke="#000000" stroke-width="2" stroke-linecap="butt"><path d="M128.48879,242.80897c-5.56515,6.08352 -16.4516,5.1833 -24.31563,-2.01067c-7.86403,-7.19396 -20.29577,-6.405 -4.16254,-24.04096c16.6248,-18.17329 16.45163,-5.18328 24.31566,2.01069c7.86403,7.19396 9.72762,17.95746 4.16251,24.04094z"/><path d="M154.19355,247.07737c7.86403,7.19396 20.78728,5.86765 4.1625,24.04093c-16.13324,17.63595 -16.4516,5.1833 -24.31563,-2.01067c-7.86403,-7.19396 -9.72765,-17.95747 -4.16254,-24.04096c5.56515,-6.08352 16.45163,-5.18328 24.31567,2.01068z" data-paper-data="{&quot;index&quot;:null}"/><path d="M140.0413,253.37711c-5.70087,6.23188 -15.25399,6.77236 -21.33747,1.20725c-6.08352,-5.56515 -6.39368,-15.12852 -0.69281,-21.36039c5.70087,-6.23188 15.25401,-6.77235 21.3375,-1.20723c6.08352,5.56515 6.39365,15.12851 0.69279,21.36036z"/></g><path d="M200.10074,107.60964c51.48358,8.52534 87.4667,50.17603 80.37047,93.02943c-7.09622,42.85341 -54.58456,70.68181 -106.06817,62.15648c-51.48361,-8.52535 -87.46669,-50.17601 -80.37047,-93.02943c7.09622,-42.85341 54.58457,-70.68182 106.06819,-62.15648z" fill="#696969" stroke="#000000" stroke-width="2" stroke-linecap="butt"/><path d="M198.89539,119.85291c44.63897,7.3919 76.00551,42.49471 70.05912,78.40425c-5.9464,35.90956 -46.95389,59.02769 -91.59288,51.63578c-44.63897,-7.3919 -76.00547,-42.4947 -70.0591,-78.40424c5.9464,-35.90956 46.95386,-59.02769 91.59284,-51.63577z" fill="none" stroke="url(#color-9)" stroke-width="4.5" stroke-linecap="butt"/><g stroke="#000000" stroke-linecap="butt"><path d="M283.50473,201.51053c-7.09622,42.85341 -50.39514,69.89927 -101.87872,61.37392c-6.63331,-1.09842 -4.48154,-13.87627 2.93358,-16.94493c5.91923,2.52859 67.50264,12.79622 75.77068,-39.92557c10.8411,-72.99463 -84.0985,-101.98771 -57.19596,-97.53284c51.48361,8.52535 87.46664,50.17604 80.37041,93.02944z" data-paper-data="{&quot;index&quot;:null}" fill="#1300d2" stroke-width="2"/><path d="M185.71164,253.68071c-6.63331,-1.09842 -5.30496,-6.69394 2.11016,-9.76259c5.91923,2.52859 67.67266,5.13977 75.94069,-47.58202c10.8411,-72.99463 -83.44514,-101.51359 -56.54261,-97.05872c51.48361,8.52535 70.22808,50.44276 65.42055,99.33628c-2.93999,29.90051 -35.44525,63.5924 -86.92884,55.0671z" data-paper-data="{&quot;index&quot;:null}" fill="#ff0000" stroke-width="0"/></g><g stroke="#000000" stroke-linecap="butt"><path d="M94.93175,171.0223c7.09622,-42.85341 54.58457,-70.68179 106.06816,-62.15644c26.90254,4.45488 -72.3151,1.29684 -85.5823,73.88976c-12.23048,61.1225 64.32069,60.55529 58.85621,62.21882c6.03016,5.29511 3.94814,18.08451 -2.68516,16.98611c-51.48361,-8.52535 -83.7531,-48.08475 -76.65687,-90.93816z" fill="#1300d2" stroke-width="2"/><path d="M108.35805,170.31182c11.20976,-47.83331 42.46565,-81.47102 93.94927,-72.94571c26.90254,4.45488 -71.54388,1.05863 -84.81104,73.65151c-9.16802,52.57277 50.13085,70.007 56.5492,69.52144c6.03016,5.29511 5.48387,11.02011 -1.14941,9.92169c-51.48358,-8.52534 -71.39326,-50.89675 -64.53798,-80.14894z" data-paper-data="{&quot;index&quot;:null}" fill="#ff0000" stroke-width="0"/></g><g stroke="none" stroke-width="0" stroke-linecap="butt"><path d="M157.64114,189.36982l11.0643,-66.81617l63.58311,10.52893l-11.0643,66.81617z" fill="url(#color-10)"/><path d="M218.39222,153.47977l3.21222,-19.39822l7.54373,1.24918l-3.21222,19.39822z" fill="#ffffff"/><path d="M214.73386,175.5722l3.21222,-19.39822l7.54372,1.24918l-3.2122,19.39821z" fill="#ffffff"/><path d="M211.16476,197.12576l3.2122,-19.39821l7.54373,1.24918l-3.21222,19.39822z" fill="#ffffff"/><path d="M168.36932,144.64267l3.21222,-19.39822l7.54375,1.24918l-3.21222,19.39822z" fill="#ffffff"/><path d="M164.71096,166.73515l3.2122,-19.39821l7.54375,1.24918l-3.21222,19.39822z" fill="#ffffff"/><path d="M161.14183,188.28877l3.21222,-19.39822l7.54375,1.24918l-3.21221,19.39823z" fill="#ffffff"/><path d="M191.42512,193.7463l1.07074,-6.46609l14.54867,2.40917l-1.07074,6.4661z" fill="#ffffff"/><path d="M174.66707,190.86059l1.07074,-6.4661l14.54871,2.40915l-1.07074,6.46609z" fill="#ffffff"/></g><path d="M216.78274,14.75489c54.73374,9.06353 92.44609,56.6188 84.23285,106.21761c-8.21322,49.59882 -31.51652,87.59999 -113.9756,73.3957c-87.10189,-15.00402 -92.44609,-56.6188 -84.23285,-106.21764c8.21322,-49.59882 59.24183,-82.45919 113.97558,-73.39565z" fill="#696969" stroke="#000000" stroke-width="2" stroke-linecap="butt"/><path d="M166.78616,88.75389l5.97829,-36.10228l77.05409,12.75963l-5.97829,36.10228z" fill="url(#color-11)" stroke="#000000" stroke-width="0" stroke-linecap="butt"/><path d="M167.70069,146.75246l11.51045,-69.51035l56.03936,9.27973l-11.51045,69.51035z" fill="url(#color-12)" stroke="none" stroke-width="0" stroke-linecap="butt"/><path d="M165.66216,145.10326l-6.9383,-88.20832l13.61242,-1.07069l6.9383,88.20832z" fill="url(#color-13)" stroke="none" stroke-width="0" stroke-linecap="butt"/><path d="M212.67573,152.33165l35.00166,-81.26337l12.54067,5.40149l-35.0017,81.26337z" data-paper-data="{&quot;index&quot;:null}" fill="url(#color-14)" stroke="none" stroke-width="0" stroke-linecap="butt"/><path d="M151.44975,147.93671l3.30144,-19.93708l87.83089,14.54419l-3.30144,19.93708z" fill="url(#color-15)" stroke="none" stroke-width="0" stroke-linecap="butt"/><path d="M137.34027,150.972c-2.69549,0.43811 -3.13364,-2.25743 -3.13364,-2.25743l-0.11686,-0.96322c-0.95708,-2.78871 -1.64637,-6.57161 -3.3421,-9.06331c-0.65479,-0.96208 -3.49951,-2.83141 -4.05465,-3.43495c-7.63111,-8.29672 -19.88188,-22.98674 -9.41494,-33.46037c3.6826,-0.55888 14.81356,0.03092 16.64124,-4.84269c2.59463,-6.91867 -1.49481,-13.55348 3.07273,-20.50646c5.29017,-8.05308 16.41573,-10.94939 25.05519,-14.10463c0,0 2.56524,-0.93665 3.50189,1.62861c0.93665,2.56525 -1.6286,3.50186 -1.6286,3.50186c-7.2801,2.65743 -17.87367,5.12213 -22.33775,11.9333c-5.54788,8.46474 2.85183,20.14867 -8.96103,25.39278c-1.24963,0.55474 -2.63222,0.76089 -3.97947,0.9935c-1.99121,0.34383 -6.69978,0.71159 -8.95241,0.90415c-2.47541,2.60633 -0.4998,7.71498 0.63451,10.65096c2.98806,7.73393 10.40178,11.69743 14.85537,18.15224c2.07378,3.00567 2.90736,7.07835 4.07588,10.48175l0.342,1.86031c0,0 0.4381,2.69552 -2.25743,3.13364z" fill="#000000" stroke="none" stroke-width="0.5" stroke-linecap="butt"/><path d="M115.96807,156.29922c-2.68035,-0.52298 -2.15733,-3.2033 -2.15733,-3.2033l0.22413,-0.94406c0.06846,-2.94756 0.73265,-6.73498 0.00523,-9.65984c-0.28088,-1.12935 -2.30168,-3.86854 -2.61328,-4.6271c-4.28369,-10.42683 -10.68571,-28.45162 2.76187,-34.64982c3.64816,0.75169 13.88519,5.16176 17.28832,1.22331c4.83115,-5.59108 3.29393,-13.23183 9.98761,-18.17153c7.75278,-5.72123 19.19269,-4.58332 28.39028,-4.54958c0,0 2.73088,0.01018 2.72066,2.74104c-0.0102,2.73089 -2.74108,2.72062 -2.74108,2.72062c-7.7499,-0.02963 -18.54126,-1.38814 -25.0888,3.45435c-8.1371,6.01814 -4.30608,19.88868 -17.20418,20.71497c-1.36444,0.08739 -2.73278,-0.19827 -4.07716,-0.44688c-1.987,-0.36742 -6.53131,-1.6539 -8.7111,-2.25374c-3.2251,1.5872 -3.14205,7.06386 -3.09525,10.21103c0.12328,8.29017 5.70443,14.57693 7.64566,22.17499c0.90394,3.53798 0.2747,7.64717 0.1916,11.24468l-0.32371,1.86358c0,0 -0.52297,2.6803 -3.20338,2.15731z" fill="#000000" stroke="none" stroke-width="0.5" stroke-linecap="butt"/><path d="M246.32984,163.29806l0.92348,-1.65078c2.20326,-2.84508 4.30513,-6.43171 7.23707,-8.60841c6.29655,-4.6746 14.59212,-6.03678 19.91369,-12.39467c2.02019,-2.41356 5.53706,-6.61279 4.03395,-9.87791c-2.07028,-0.9084 -6.40897,-2.77433 -8.18311,-3.74167c-1.20035,-0.65449 -2.44269,-1.2953 -3.44677,-2.22324c-9.49184,-8.77204 2.22575,-17.12466 -0.29739,-26.92589c-2.03024,-7.88655 -11.26385,-13.63456 -17.29871,-18.49687c0,0 -2.12642,-1.71352 -0.41289,-3.83993c1.71355,-2.12639 3.83995,-0.41287 3.83995,-0.41287c7.16121,5.77169 16.7593,12.09972 19.17124,21.42823c2.08245,8.05415 -3.92739,13.01666 -3.70147,20.40239c0.15914,5.2026 10.88603,8.23228 14.19191,9.9484c6.5321,13.28855 -9.8,23.24555 -19.6982,28.63946c-0.72007,0.39242 -4.01554,1.24493 -4.94546,1.9446c-2.40839,1.81207 -4.28033,5.17087 -6.08522,7.5022l-0.42113,0.87412c0,0 -1.28361,2.41046 -3.69403,1.12683c-2.41042,-1.28363 -1.12682,-3.69406 -1.12682,-3.69406z" data-paper-data="{&quot;index&quot;:null}" fill="#000000" stroke="none" stroke-width="0.5" stroke-linecap="butt"/><path d="M263.63394,175.84947l0.29429,-1.86847c1.08101,-3.43225 1.80999,-7.52497 3.8061,-10.58268c4.28677,-6.56669 11.59654,-10.71882 14.38554,-18.52673c1.05879,-2.96407 2.9028,-8.1217 0.36146,-10.66376c-2.25682,-0.13477 -6.97321,-0.38185 -8.97262,-0.67452c-1.35278,-0.19802 -2.74015,-0.36868 -4.00356,-0.89121c-11.94328,-4.93984 -3.84559,-16.83512 -9.60846,-25.15497c-4.63704,-6.69462 -15.29034,-8.88714 -22.63607,-11.35725c0,0 -2.58842,-0.87058 -1.71779,-3.45897c0.87064,-2.58841 3.45905,-1.71777 3.45905,-1.71777c8.71743,2.93287 19.91352,5.54331 25.40824,13.45831c4.7441,6.83374 0.82595,13.57112 3.59696,20.42103c1.9519,4.82517 13.06412,3.95043 16.75983,4.41482c10.73179,10.20213 -1.13865,25.20115 -8.55482,33.69056c-0.5395,0.61759 -3.33542,2.55918 -3.96538,3.53776c-1.63139,2.53426 -2.22352,6.33357 -3.10886,9.14588l-0.0922,0.96587c0,0 -0.36886,2.70586 -3.07474,2.33694c-2.70586,-0.36892 -2.33694,-3.07474 -2.33694,-3.07474z" data-paper-data="{&quot;index&quot;:null}" fill="#000000" stroke="none" stroke-width="0.5" stroke-linecap="butt"/><path d="M276.37326,78.49207c-2.52311,15.23677 -17.30633,25.47931 -33.01923,22.87734c-15.71294,-2.60196 -26.40535,-17.06307 -23.88224,-32.29984c2.52311,-15.23677 17.30631,-25.47933 33.01922,-22.87739c15.7129,2.60196 26.40536,17.06312 23.88227,32.29987z" data-paper-data="{&quot;index&quot;:null}" fill="#000000" stroke="#000000" stroke-width="2" stroke-linecap="butt"/><path d="M177.82962,33.09057c15.71294,2.60196 26.40536,17.06312 23.88226,32.29984c-2.52311,15.23677 -17.30633,25.47931 -33.01923,22.87734c-15.71294,-2.60196 -26.40538,-17.0631 -23.88226,-32.29984c2.52311,-15.23677 17.30631,-25.47931 33.01924,-22.87734z" fill="#000000" stroke="#000000" stroke-width="2" stroke-linecap="butt"/><path d="M113.96646,159.47393l3.21681,-19.42598l150.11405,24.85786l-3.21681,19.42598c0,0 -29.11506,17.7822 -77.15563,9.33985c-52.88731,-9.2941 -72.95839,-34.19771 -72.95839,-34.19771z" fill="url(#color-16)" stroke="none" stroke-width="0" stroke-linecap="butt"/><path d="M216.10927,14.26489c1.1335,0.1877 -7.96605,58.16719 -16.40912,108.19385c-0.48313,-0.64073 -1.16869,-0.82169 -1.16869,-0.82169c-11.9988,-3.08738 -50.91687,-8.99097 -58.27207,-10.52806c-13.13736,-3.31488 -28.04813,-4.47121 -39.73635,-12.84246c0.43408,-3.53154 0.95729,-7.07591 1.54368,-10.61709c8.21322,-49.59882 59.27181,-82.45423 114.04253,-73.38458zM172.00269,90.06246c10.79764,-0.41524 27.6269,-4.4644 29.27335,-29.15913c0.41446,-6.21625 -5.1265,-26.87641 -22.78477,-28.96138c-11.57261,-1.04975 -32.59833,4.03719 -34.78131,22.76857c-2.73529,23.47056 10.40452,30.96742 28.29272,35.35194z" fill="#1300d2" stroke="#000000" stroke-width="2" stroke-linecap="butt"/><path d="M187.05457,189.60084c-79.00063,-5.75974 -91.16752,-46.07187 -87.13879,-89.7774c11.93311,7.58516 26.44621,8.98437 39.53393,12.28923c7.56424,1.57863 46.72967,7.38883 58.54944,10.56518c0,0 0.89257,0.23495 1.69073,-0.30965c-6.15128,36.27433 -11.78902,67.29433 -12.63525,67.23265z" fill="#1300d2" stroke="#000000" stroke-width="2" stroke-linecap="butt"/><path d="M221.23523,16.21145c54.77071,9.06966 92.51302,56.62987 84.29981,106.22869c-0.5864,3.54116 -1.23359,7.06501 -1.9611,10.54796c-13.76278,4.15674 -28.25039,0.44489 -41.75503,-0.65195c-7.45807,-0.91589 -46.20175,-7.87254 -58.55527,-8.81774c0,0 -0.7073,-0.04972 -1.37117,0.40111c8.13355,-50.07791 18.20927,-107.89576 19.34275,-107.70806zM276.73237,77.83593c3.97155,-18.4352 -14.29208,-30.02819 -25.58535,-32.76487c-17.38779,-3.71846 -29.29271,14.05278 -30.90418,20.07086c-6.40174,23.9073 8.22401,33.16522 18.31143,37.03886c18.34668,1.61573 33.20172,-1.24538 38.17808,-24.34483z" data-paper-data="{&quot;index&quot;:null}" fill="#1300d2" stroke="#000000" stroke-width="2" stroke-linecap="butt"/><path d="M192.21985,191.55401c-0.82096,-0.21439 3.84146,-31.39589 9.71146,-67.7168c0.58002,0.77281 1.50064,0.8381 1.50064,0.8381c12.21273,0.80327 51.16049,7.92807 58.82981,8.87203c13.45439,1.09034 27.64389,4.44405 41.38507,1.11039c-10.27471,42.67124 -34.7866,76.90965 -111.42694,56.89627z" data-paper-data="{&quot;index&quot;:null}" fill="#1300d2" stroke="#000000" stroke-width="2" stroke-linecap="butt"/><path d="M206.91783,84.84901c15.36783,2.54481 25.10941,21.01257 21.75841,41.24891c-3.351,20.23631 -18.52557,34.57813 -33.89345,32.03332c-15.36783,-2.54481 -25.10947,-21.01258 -21.75848,-41.24889c3.351,-20.23631 18.52568,-34.57813 33.8935,-32.03333z" fill="#ff00cc" stroke="#000000" stroke-width="2" stroke-linecap="butt"/><path d="M174.11136,53.13044c4.5542,0.75415 7.65327,4.94555 6.922,9.36173c-0.73129,4.41619 -5.01603,7.38488 -9.57023,6.63074c-4.5542,-0.75415 -7.65328,-4.94554 -6.922,-9.36173c0.73129,-4.41619 5.01603,-7.38488 9.57023,-6.63074z" fill="#000000" stroke="#ff0000" stroke-width="1.5" stroke-linecap="butt"/><path d="M249.65509,66.10667c4.55421,0.75415 7.65327,4.94555 6.922,9.36173c-0.73129,4.41619 -5.01604,7.38488 -9.57023,6.63074c-4.55421,-0.75415 -7.65328,-4.94554 -6.922,-9.36173c0.73129,-4.41619 5.01602,-7.38488 9.57023,-6.63074z" fill="#000000" stroke="#ff0000" stroke-width="1.5" stroke-linecap="butt"/><g stroke-linecap="butt"><path d="M194.03954,594.39488c-7.46406,5.34896 -17.85099,3.63426 -23.19988,-3.82969c-5.3489,-7.46402 -3.63429,-17.85096 3.82971,-23.19987c7.46401,-5.34891 17.85096,-3.63429 23.19986,3.82968c5.34891,7.46403 3.63431,17.85096 -3.82968,23.19989z" fill="url(#color-17)" stroke="none" stroke-width="0"/><path d="M226.71976,449.24069c-7.46406,5.34896 -17.85096,3.63429 -23.19986,-3.82968c-5.3489,-7.46402 -3.63431,-17.85096 3.82969,-23.19988c7.46402,-5.34891 17.85096,-3.63429 23.19988,3.82971c5.34891,7.46403 3.63431,17.85093 -3.82972,23.19988z" fill="url(#color-18)" stroke="none" stroke-width="0"/><g><path d="M191.99978,429.03466c0,0 -10.7296,-46.82947 -13.13493,-69.4988c-2.27018,-21.39558 0.22557,-63.02381 0.22557,-63.02381l39.92835,-3.73492c0,0 11.36976,42.00435 13.67867,63.76511c2.37269,22.36147 2.65304,68.43733 2.65304,68.43733z" fill="#696969" stroke="#000000" stroke-width="2"/><path d="M205.57811,427.1436l-13.94459,-131.4215l15.21082,-1.42283l13.94464,131.42158z" fill="url(#color-19)" stroke="none" stroke-width="0"/><path d="M201.91009,429.47103c-1.89706,-1.03806 -1.52558,-4.16252 -1.52558,-4.16252l0.69277,-5.5469c2.24097,-5.74435 5.32098,-9.18224 8.03739,-14.15093c1.56895,-2.86987 2.46117,-6.59361 3.90164,-9.61021c1.29052,-2.70259 3.38831,-4.57619 4.01887,-8.2032c1.47348,-8.47602 -1.80917,-20.31372 -6.48612,-24.59007c-2.89886,-3.03124 -5.47287,-6.53987 -8.25331,-9.8483c-2.49291,-2.9663 -5.72541,-4.31918 -7.45032,-9.10203c-1.70564,-4.72931 -0.89702,-12.43655 -0.32149,-16.82492c1.56912,-11.96431 7.40132,-20.1208 9.15871,-31.95334c0,0 0.47741,-3.06117 2.35062,-1.84929c1.8732,1.21193 1.39579,4.2731 1.39579,4.2731c-1.88844,11.68317 -7.56793,20.05097 -9.13948,31.82426c-0.28011,2.09826 -1.19086,8.96603 -0.1845,11.72356c0.62726,1.71884 3.38401,3.8958 3.97379,4.47434c3.50146,3.43512 6.6094,8.06057 10.07796,11.69058c6.35346,6.02893 10.52996,21.27745 8.59783,32.76931c-0.76703,4.56227 -3.0197,6.81032 -4.63485,10.18258c-1.47653,3.08277 -2.39287,6.85279 -4.00023,9.80352c-2.41898,4.44079 -5.36647,7.58302 -7.44511,12.56309l-0.49583,4.45089c0,0 -0.37146,3.12445 -2.26851,2.0864z" fill="#000000" stroke="none" stroke-width="0.5"/><path d="M191.99978,429.03466c0,0 -10.7296,-46.82947 -13.13493,-69.4988c-2.27018,-21.39558 0.22557,-63.02381 0.22557,-63.02381l39.92835,-3.73492c0,0 11.36976,42.00435 13.67867,63.76511c2.37269,22.36147 2.65304,68.43733 2.65304,68.43733z" fill="#1300d2" stroke="#000000" stroke-width="2"/></g><g><path d="M164.60407,568.1291c0,0 4.91029,-47.79131 9.92759,-70.02892c4.73539,-20.9881 20.49393,-59.59912 20.49393,-59.59912l39.0065,9.31218c0,0 -2.75151,43.42884 -7.56774,64.77519c-4.94916,21.93563 -19.51033,65.65098 -19.51033,65.65098z" fill="#696969" stroke="#000000" stroke-width="2"/><path d="M178.06879,570.708l29.08693,-128.91865l14.85964,3.54751l-29.08694,128.91872z" fill="url(#color-20)" stroke="none" stroke-width="0"/><path d="M173.84692,571.73127c-1.46209,-1.5933 -0.10503,-4.43198 -0.10503,-4.43198l2.44085,-5.02896c3.97024,-4.71774 7.9927,-6.98163 12.1635,-10.81194c2.40904,-2.21234 4.45202,-5.45095 6.78655,-7.84355c2.09157,-2.14355 4.68064,-3.24243 6.44477,-6.47368c4.12259,-7.55105 4.82378,-19.81548 1.77166,-25.36931c-1.76922,-3.80283 -3.07733,-7.95314 -4.64531,-11.98032c-1.40578,-3.61075 -4.03101,-5.93185 -4.12509,-11.01534c-0.09311,-5.02663 3.15263,-12.06373 5.10969,-16.03346c5.33562,-10.82302 13.48228,-16.66898 18.95378,-27.30661c0,0 1.43707,-2.74472 2.82066,-0.99452c1.38357,1.75021 -0.05344,4.49496 -0.05344,4.49496c-5.54747,10.45411 -13.61759,16.54922 -18.89404,27.19061c-0.94042,1.89654 -4.01264,8.10594 -3.94716,11.04065c0.04079,1.82925 1.9504,4.77752 2.32261,5.51509c2.20984,4.37913 3.66409,9.75868 5.78005,14.31172c4.07551,7.75269 3.12301,23.5342 -2.40427,33.7931c-2.19433,4.07275 -5.0506,5.47638 -7.66496,8.14952c-2.38997,2.44368 -4.47075,5.7183 -6.94212,7.99488c-3.7193,3.42619 -7.52114,5.4528 -11.09174,9.49916l-1.90172,4.05463c0,0 -1.35709,2.8387 -2.81922,1.24544z" fill="#000000" stroke="none" stroke-width="0.5"/><path d="M164.60407,568.1291c0,0 4.91029,-47.79131 9.92759,-70.02892c4.73539,-20.9881 20.49393,-59.59912 20.49393,-59.59912l39.0065,9.31218c0,0 -2.75151,43.42884 -7.56774,64.77519c-4.94916,21.93563 -19.51033,65.65098 -19.51033,65.65098z" fill="#1300d2" stroke="#000000" stroke-width="2"/></g></g><g stroke-linecap="butt"><path d="M-200.91205,203.09024c7.90962,4.66479 10.54005,14.85837 5.87526,22.76802c-4.66479,7.90962 -14.85841,10.54008 -22.76799,5.87527c-7.90962,-4.66479 -10.54008,-14.85835 -5.87526,-22.76802c4.66479,-7.90962 14.85842,-10.54006 22.76802,-5.87526z" data-paper-data="{&quot;index&quot;:null}" fill="url(#color-21)" stroke="none" stroke-width="0"/><path d="M-59.23429,157.64601c7.90961,4.66479 10.54006,14.85838 5.87527,22.76799c-4.66479,7.90962 -14.85842,10.54006 -22.76802,5.87526c-7.90961,-4.66479 -10.54005,-14.85834 -5.87523,-22.768c4.66479,-7.90962 14.85838,-10.54005 22.768,-5.87526z" data-paper-data="{&quot;index&quot;:null}" fill="url(#color-22)" stroke="none" stroke-width="0"/><g data-paper-data="{&quot;index&quot;:null}"><path d="M-58.60357,152.76964c0,0 45.91863,-3.81334 68.40248,-3.43626c21.87984,0.36693 64.72806,7.96077 64.72806,7.96077l-0.1736,40.10227c0,0 -41.24203,6.18349 -62.75469,5.8227c-22.79338,-0.38226 -70.39079,-6.9099 -70.39079,-6.9099z" fill="#696969" stroke="#000000" stroke-width="2"/><path d="M-58.04863,167.33949l132.14075,2.21624l-0.06613,15.27707l-132.14065,-2.21619z" fill="url(#color-23)" stroke="none" stroke-width="0"/><path d="M-60.10707,186.47684c-1.20241,-1.79736 1.87667,-2.44487 1.87667,-2.44487l4.38926,-0.88922c4.77579,-2.51278 7.64378,-5.72773 11.85214,-8.53156c2.79631,-1.86313 6.47006,-3.11068 9.40946,-4.8552c3.21546,-1.90829 5.25455,-4.35174 9.73062,-5.52099c11.2748,-2.94524 26.83408,-0.13969 33.4035,5.65318c3.92372,3.13239 8.80694,5.81721 12.53951,8.9997c0.62863,0.53607 3.04189,3.08854 4.80962,3.56063c2.83605,0.75744 9.59571,-0.75973 11.66084,-1.2251c11.58718,-2.61106 19.41744,-9.01136 30.88669,-11.93007c0,0 3.00668,-0.74743 4.38018,1.0107c1.37348,1.75815 -1.63318,2.50559 -1.63318,2.50559c-11.62967,2.80145 -19.23588,9.33509 -31.01355,11.96071c-4.31988,0.96306 -11.92485,2.45304 -16.78697,1.17422c-4.91718,-1.29329 -6.55178,-4.39279 -9.72781,-6.6124c-3.54233,-2.4756 -7.2657,-4.72775 -10.54247,-7.34594c-4.67484,-4.27858 -16.75735,-6.4968 -25.069,-4.27631c-3.55669,0.95016 -5.23654,3.20612 -7.81383,4.73162c-2.87671,1.70274 -6.50652,2.92216 -9.22566,4.73983c-4.70776,3.14704 -7.8585,6.52025 -13.38109,9.26257l-5.46344,1.18272c0,0 -3.07912,0.64752 -4.28156,-1.14982z" fill="#000000" stroke="none" stroke-width="0.5"/><path d="M-58.60357,152.76964c0,0 45.91863,-3.81334 68.40248,-3.43626c21.87984,0.36693 64.72806,7.96077 64.72806,7.96077l-0.1736,40.10227c0,0 -41.24203,6.18349 -62.75469,5.8227c-22.79338,-0.38226 -70.39079,-6.9099 -70.39079,-6.9099z" fill="#1300d2" stroke="#000000" stroke-width="2"/></g><g data-paper-data="{&quot;index&quot;:null}"><path d="M-208.73552,194.6671c0,0 42.2492,-18.38656 63.65852,-25.26455c20.83418,-6.69324 63.84697,-13.29136 63.84697,-13.29136l12.74006,38.02518c0,0 -37.0587,19.12579 -57.54323,25.70669c-21.70406,6.97269 -68.87034,16.10855 -68.87034,16.10855z" fill="#696969" stroke="#000000" stroke-width="2"/><path d="M-203.52165,208.28337l125.82558,-40.42294l4.85335,14.48578l-125.82548,40.42295z" fill="url(#color-24)" stroke="none" stroke-width="0"/><path d="M-199.31246,227.06515c-1.71683,-1.31485 0.9901,-2.91869 0.9901,-2.91869l3.86971,-2.25433c3.7132,-3.91592 5.39412,-7.88274 8.47637,-11.89167c2.04808,-2.6638 5.12492,-5.02724 7.34665,-7.62481c2.4304,-2.84152 3.57473,-5.81115 7.4365,-8.35854c9.72739,-6.41666 25.36186,-8.76717 33.44592,-5.39638c4.72299,1.70319 10.21043,2.67385 14.76857,4.486c0.76771,0.3052 3.87391,1.94539 5.69959,1.82356c2.92897,-0.19546 8.84089,-3.80707 10.64642,-4.91224c10.13064,-6.20078 15.48489,-14.78037 25.40492,-21.23451c0,0 2.60624,-1.67516 4.47244,-0.4525c1.86618,1.22268 -0.74005,2.89786 -0.74005,2.89786c-10.10961,6.3947 -15.20885,15.02845 -25.5152,21.30433c-3.78024,2.3019 -10.5012,6.15986 -15.51624,6.51363c-5.07179,0.35779 -7.61688,-2.05085 -11.3382,-3.13037c-4.15055,-1.20404 -8.40064,-2.13831 -12.34556,-3.56279c-5.80299,-2.54673 -17.95665,-0.75896 -25.1117,4.01803c-3.06177,2.04415 -3.92633,4.72066 -5.87563,6.99434c-2.17579,2.53783 -5.22012,4.86047 -7.20975,7.45643c-3.4447,4.49454 -5.34239,8.70215 -9.68879,13.07576l-4.79227,2.87792c0,0 -2.70695,1.60387 -4.4238,0.28905z" fill="#000000" stroke="none" stroke-width="0.5"/><path d="M-208.73552,194.6671c0,0 42.2492,-18.38656 63.65852,-25.26455c20.83418,-6.69324 63.84697,-13.29136 63.84697,-13.29136l12.74006,38.02518c0,0 -37.0587,19.12579 -57.54323,25.70669c-21.70406,6.97269 -68.87034,16.10855 -68.87034,16.10855z" fill="#1300d2" stroke="#000000" stroke-width="2"/></g></g></g></g></svg>