<svg version="1.1" xmlns="http://www.w3.org/2000/svg" xmlns:xlink="http://www.w3.org/1999/xlink" width="580.17446" height="836.13633" viewBox="0,0,580.17446,836.13633"><defs><linearGradient x1="336.69118" y1="266.33096" x2="353.15538" y2="268.65564" gradientUnits="userSpaceOnUse" id="color-1"><stop offset="0" stop-color="#7a7a7a"/><stop offset="1" stop-color="#a4a4a4"/></linearGradient><linearGradient x1="309.84014" y1="213.8408" x2="318.7554" y2="215.09961" gradientUnits="userSpaceOnUse" id="color-2"><stop offset="0" stop-color="#7a7a7a"/><stop offset="1" stop-color="#a4a4a4"/></linearGradient><linearGradient x1="382.68731" y1="224.12655" x2="391.60255" y2="225.38534" gradientUnits="userSpaceOnUse" id="color-3"><stop offset="0" stop-color="#7a7a7a"/><stop offset="1" stop-color="#a4a4a4"/></linearGradient><linearGradient x1="357.03024" y1="183.45369" x2="352.93992" y2="212.42273" gradientUnits="userSpaceOnUse" id="color-4"><stop offset="0" stop-color="#a4a4a4"/><stop offset="1" stop-color="#7a7a7a"/></linearGradient><linearGradient x1="355.0419" y1="191.92534" x2="353.83704" y2="200.45856" gradientUnits="userSpaceOnUse" id="color-5"><stop offset="0" stop-color="#6b6b6b"/><stop offset="1" stop-color="#222222"/></linearGradient><linearGradient x1="354.63231" y1="281.99625" x2="353.86627" y2="287.42162" gradientUnits="userSpaceOnUse" id="color-6"><stop offset="0" stop-color="#9a9a9a"/><stop offset="1" stop-color="#dedede"/></linearGradient><linearGradient x1="346.66072" y1="280.82055" x2="345.89468" y2="286.24592" gradientUnits="userSpaceOnUse" id="color-7"><stop offset="0" stop-color="#9a9a9a"/><stop offset="1" stop-color="#dedede"/></linearGradient><linearGradient x1="338.73131" y1="279.70094" x2="337.96527" y2="285.12632" gradientUnits="userSpaceOnUse" id="color-8"><stop offset="0" stop-color="#9a9a9a"/><stop offset="1" stop-color="#dedede"/></linearGradient><linearGradient x1="330.7597" y1="278.52522" x2="329.99366" y2="283.95059" gradientUnits="userSpaceOnUse" id="color-9"><stop offset="0" stop-color="#9a9a9a"/><stop offset="1" stop-color="#dedede"/></linearGradient><linearGradient x1="343.21092" y1="274.68516" x2="342.07231" y2="282.74917" gradientUnits="userSpaceOnUse" id="color-10"><stop offset="0" stop-color="#a4a4a4"/><stop offset="1" stop-color="#3d3d3d"/></linearGradient><linearGradient x1="353.08896" y1="294.50208" x2="352.32292" y2="299.92742" gradientUnits="userSpaceOnUse" id="color-11"><stop offset="0" stop-color="#dedede"/><stop offset="1" stop-color="#9a9a9a"/></linearGradient><linearGradient x1="345.10344" y1="293.42472" x2="344.3374" y2="298.85009" gradientUnits="userSpaceOnUse" id="color-12"><stop offset="0" stop-color="#dedede"/><stop offset="1" stop-color="#9a9a9a"/></linearGradient><linearGradient x1="337.17407" y1="292.30512" x2="336.40803" y2="297.7305" gradientUnits="userSpaceOnUse" id="color-13"><stop offset="0" stop-color="#dedede"/><stop offset="1" stop-color="#9a9a9a"/></linearGradient><linearGradient x1="329.18856" y1="291.22776" x2="328.42252" y2="296.65313" gradientUnits="userSpaceOnUse" id="color-14"><stop offset="0" stop-color="#dedede"/><stop offset="1" stop-color="#9a9a9a"/></linearGradient><linearGradient x1="340.46237" y1="295.72646" x2="339.32377" y2="303.79048" gradientUnits="userSpaceOnUse" id="color-15"><stop offset="0" stop-color="#a4a4a4"/><stop offset="1" stop-color="#3d3d3d"/></linearGradient><radialGradient cx="317.73023" cy="191.38234" r="26.8059" gradientUnits="userSpaceOnUse" id="color-16"><stop offset="0" stop-color="#ffffff"/><stop offset="1" stop-color="#c4bfb5"/></radialGradient><radialGradient cx="325.92769" cy="187.64523" r="9.96174" gradientUnits="userSpaceOnUse" id="color-17"><stop offset="0" stop-color="#ffffff"/><stop offset="1" stop-color="#ffffff" stop-opacity="0"/></radialGradient><radialGradient cx="390.15988" cy="201.89336" r="26.8059" gradientUnits="userSpaceOnUse" id="color-18"><stop offset="0" stop-color="#ffffff"/><stop offset="1" stop-color="#c5c1b7"/></radialGradient><radialGradient cx="398.01997" cy="197.82438" r="9.96174" gradientUnits="userSpaceOnUse" id="color-19"><stop offset="0" stop-color="#ffffff"/><stop offset="1" stop-color="#ffffff" stop-opacity="0"/></radialGradient><linearGradient x1="347.53723" y1="242.16408" x2="346.39101" y2="250.28203" gradientUnits="userSpaceOnUse" id="color-20"><stop offset="0" stop-color="#a4a4a4"/><stop offset="1" stop-color="#686868"/></linearGradient><radialGradient cx="406.84162" cy="175.47543" r="102.40188" gradientUnits="userSpaceOnUse" id="color-21"><stop offset="0" stop-color="#e0c297"/><stop offset="1" stop-color="#b9a17e"/></radialGradient><radialGradient cx="383.4211" cy="141.94586" r="84.64196" gradientUnits="userSpaceOnUse" id="color-22"><stop offset="0" stop-color="#634a14"/><stop offset="1" stop-color="#443014"/></radialGradient><linearGradient x1="334.60785" y1="344.46432" x2="334.60785" y2="488.90143" gradientUnits="userSpaceOnUse" id="color-23"><stop offset="0" stop-color="#a4a4a4"/><stop offset="1" stop-color="#7a7a7a"/></linearGradient><linearGradient x1="334.60785" y1="344.46432" x2="334.60785" y2="356.2472" gradientUnits="userSpaceOnUse" id="color-24"><stop offset="0" stop-color="#a4a4a4"/><stop offset="1" stop-color="#7a7a7a"/></linearGradient><linearGradient x1="334.60785" y1="339.12767" x2="334.60785" y2="361.58387" gradientUnits="userSpaceOnUse" id="color-25"><stop offset="0" stop-color="#303030"/><stop offset="1" stop-color="#4b4b4b"/></linearGradient><linearGradient x1="487.31234" y1="501.12868" x2="486.44896" y2="529.60015" gradientUnits="userSpaceOnUse" id="color-26"><stop offset="0" stop-color="#9f896a"/><stop offset="1" stop-color="#6e604b"/></linearGradient><linearGradient x1="493.84401" y1="505.99437" x2="492.76734" y2="541.4999" gradientUnits="userSpaceOnUse" id="color-27"><stop offset="0" stop-color="#b9a17e"/><stop offset="1" stop-color="#9f896a"/></linearGradient><linearGradient x1="504.01221" y1="509.53661" x2="502.9097" y2="545.89469" gradientUnits="userSpaceOnUse" id="color-28"><stop offset="0" stop-color="#e0c297"/><stop offset="1" stop-color="#b9a17e"/></linearGradient><linearGradient x1="495.63217" y1="480.45186" x2="494.43802" y2="519.83112" gradientUnits="userSpaceOnUse" id="color-29"><stop offset="0" stop-color="#e0c297"/><stop offset="1" stop-color="#b9a17e"/></linearGradient><linearGradient x1="481.42841" y1="492.87737" x2="481.03812" y2="505.7481" gradientUnits="userSpaceOnUse" id="color-30"><stop offset="0" stop-color="#e0c297"/><stop offset="1" stop-color="#b9a17e"/></linearGradient><linearGradient x1="185.28052" y1="501.12868" x2="186.1439" y2="529.60015" gradientUnits="userSpaceOnUse" id="color-31"><stop offset="0" stop-color="#9f896a"/><stop offset="1" stop-color="#6e604b"/></linearGradient><linearGradient x1="178.74886" y1="505.99437" x2="179.82552" y2="541.4999" gradientUnits="userSpaceOnUse" id="color-32"><stop offset="0" stop-color="#b9a17e"/><stop offset="1" stop-color="#9f896a"/></linearGradient><linearGradient x1="168.58065" y1="509.53661" x2="169.68316" y2="545.89469" gradientUnits="userSpaceOnUse" id="color-33"><stop offset="0" stop-color="#e0c297"/><stop offset="1" stop-color="#b9a17e"/></linearGradient><linearGradient x1="176.9607" y1="480.45186" x2="178.15484" y2="519.83112" gradientUnits="userSpaceOnUse" id="color-34"><stop offset="0" stop-color="#e0c297"/><stop offset="1" stop-color="#b9a17e"/></linearGradient><linearGradient x1="191.16445" y1="492.87737" x2="191.55475" y2="505.7481" gradientUnits="userSpaceOnUse" id="color-35"><stop offset="0" stop-color="#e0c297"/><stop offset="1" stop-color="#b9a17e"/></linearGradient><radialGradient cx="470.58764" cy="404.42896" r="19.50472" gradientUnits="userSpaceOnUse" id="color-36"><stop offset="0" stop-color="#7582b0"/><stop offset="1" stop-color="#485b9d"/></radialGradient><radialGradient cx="478.80235" cy="424.89041" r="42.07773" gradientUnits="userSpaceOnUse" id="color-37"><stop offset="0" stop-color="#7582b0"/><stop offset="1" stop-color="#485b9d"/></radialGradient><radialGradient cx="202.00522" cy="404.42896" r="19.50472" gradientUnits="userSpaceOnUse" id="color-38"><stop offset="0" stop-color="#7582b0"/><stop offset="1" stop-color="#485b9d"/></radialGradient><radialGradient cx="193.79051" cy="424.89041" r="42.07773" gradientUnits="userSpaceOnUse" id="color-39"><stop offset="0" stop-color="#7582b0"/><stop offset="1" stop-color="#485b9d"/></radialGradient><radialGradient cx="411.40996" cy="340.35066" r="19.39241" gradientUnits="userSpaceOnUse" id="color-40"><stop offset="0" stop-color="#7582b0"/><stop offset="1" stop-color="#485b9d"/></radialGradient><radialGradient cx="425.88797" cy="360.05283" r="42.76647" gradientUnits="userSpaceOnUse" id="color-41"><stop offset="0" stop-color="#7582b0"/><stop offset="1" stop-color="#485b9d"/></radialGradient><radialGradient cx="261.1829" cy="340.35066" r="19.39241" gradientUnits="userSpaceOnUse" id="color-42"><stop offset="0" stop-color="#7582b0"/><stop offset="1" stop-color="#485b9d"/></radialGradient><radialGradient cx="246.70489" cy="360.05283" r="42.76647" gradientUnits="userSpaceOnUse" id="color-43"><stop offset="0" stop-color="#7582b0"/><stop offset="1" stop-color="#485b9d"/></radialGradient><radialGradient cx="290.28849" cy="509.93746" r="19.54518" gradientUnits="userSpaceOnUse" id="color-44"><stop offset="0" stop-color="#2b4788"/><stop offset="1" stop-color="#1f3355"/></radialGradient><radialGradient cx="287.80554" cy="520.42419" r="38.79581" gradientUnits="userSpaceOnUse" id="color-45"><stop offset="0" stop-color="#2b4788"/><stop offset="1" stop-color="#1f3355"/></radialGradient><radialGradient cx="378.27098" cy="509.93746" r="19.54518" gradientUnits="userSpaceOnUse" id="color-46"><stop offset="0" stop-color="#2b4788"/><stop offset="1" stop-color="#1f3355"/></radialGradient><radialGradient cx="380.7539" cy="520.42419" r="38.79581" gradientUnits="userSpaceOnUse" id="color-47"><stop offset="0" stop-color="#2b4788"/><stop offset="1" stop-color="#1f3355"/></radialGradient><radialGradient cx="361.88685" cy="486.31264" r="55.41626" gradientUnits="userSpaceOnUse" id="color-48"><stop offset="0" stop-color="#2b4788"/><stop offset="1" stop-color="#1f3355"/></radialGradient><linearGradient x1="253.77462" y1="399.65867" x2="417.069" y2="399.65867" gradientUnits="userSpaceOnUse" id="color-49"><stop offset="0" stop-color="#7582b0"/><stop offset="1" stop-color="#485b9d"/></linearGradient><linearGradient x1="126.3057" y1="69.78675" x2="110.62636" y2="73.81488" gradientUnits="userSpaceOnUse" id="color-50"><stop offset="0" stop-color="#7a7a7a"/><stop offset="1" stop-color="#a4a4a4"/></linearGradient><linearGradient x1="169.97886" y1="107.03883" x2="161.48859" y2="109.22004" gradientUnits="userSpaceOnUse" id="color-51"><stop offset="0" stop-color="#7a7a7a"/><stop offset="1" stop-color="#a4a4a4"/></linearGradient><linearGradient x1="100.60432" y1="124.86163" x2="92.11407" y2="127.04283" gradientUnits="userSpaceOnUse" id="color-52"><stop offset="0" stop-color="#7a7a7a"/><stop offset="1" stop-color="#a4a4a4"/></linearGradient><linearGradient x1="138.81042" y1="151.92379" x2="131.72285" y2="124.33571" gradientUnits="userSpaceOnUse" id="color-53"><stop offset="0" stop-color="#a4a4a4"/><stop offset="1" stop-color="#7a7a7a"/></linearGradient><linearGradient x1="137.45058" y1="143.56152" x2="135.36284" y2="135.43507" gradientUnits="userSpaceOnUse" id="color-54"><stop offset="0" stop-color="#6b6b6b"/><stop offset="1" stop-color="#222222"/></linearGradient><linearGradient x1="104.33845" y1="62.3594" x2="103.01108" y2="57.19265" gradientUnits="userSpaceOnUse" id="color-55"><stop offset="0" stop-color="#9a9a9a"/><stop offset="1" stop-color="#dedede"/></linearGradient><linearGradient x1="111.94867" y1="60.45419" x2="110.6213" y2="55.28744" gradientUnits="userSpaceOnUse" id="color-56"><stop offset="0" stop-color="#9a9a9a"/><stop offset="1" stop-color="#dedede"/></linearGradient><linearGradient x1="119.50009" y1="58.51418" x2="118.17271" y2="53.34743" gradientUnits="userSpaceOnUse" id="color-57"><stop offset="0" stop-color="#9a9a9a"/><stop offset="1" stop-color="#dedede"/></linearGradient><linearGradient x1="127.11033" y1="56.60898" x2="125.78296" y2="51.44224" gradientUnits="userSpaceOnUse" id="color-58"><stop offset="0" stop-color="#9a9a9a"/><stop offset="1" stop-color="#dedede"/></linearGradient><linearGradient x1="117.33357" y1="64.69275" x2="115.36063" y2="57.01314" gradientUnits="userSpaceOnUse" id="color-59"><stop offset="0" stop-color="#a4a4a4"/><stop offset="1" stop-color="#3d3d3d"/></linearGradient><linearGradient x1="102.65001" y1="55.59295" x2="101.32265" y2="50.42624" gradientUnits="userSpaceOnUse" id="color-60"><stop offset="0" stop-color="#dedede"/><stop offset="1" stop-color="#9a9a9a"/></linearGradient><linearGradient x1="110.23621" y1="53.59407" x2="108.90884" y2="48.42733" gradientUnits="userSpaceOnUse" id="color-61"><stop offset="0" stop-color="#dedede"/><stop offset="1" stop-color="#9a9a9a"/></linearGradient><linearGradient x1="117.78758" y1="51.65407" x2="116.46021" y2="46.48733" gradientUnits="userSpaceOnUse" id="color-62"><stop offset="0" stop-color="#dedede"/><stop offset="1" stop-color="#9a9a9a"/></linearGradient><linearGradient x1="125.37378" y1="49.6552" x2="124.04641" y2="44.48845" gradientUnits="userSpaceOnUse" id="color-63"><stop offset="0" stop-color="#dedede"/><stop offset="1" stop-color="#9a9a9a"/></linearGradient><linearGradient x1="113.55686" y1="49.7977" x2="111.58392" y2="42.1181" gradientUnits="userSpaceOnUse" id="color-64"><stop offset="0" stop-color="#a4a4a4"/><stop offset="1" stop-color="#3d3d3d"/></linearGradient><radialGradient cx="171.22714" cy="130.18083" r="26.09817" gradientUnits="userSpaceOnUse" id="color-65"><stop offset="0" stop-color="#ffffff"/><stop offset="1" stop-color="#c4bfb5"/></radialGradient><radialGradient cx="165.23984" cy="136.59078" r="9.69873" gradientUnits="userSpaceOnUse" id="color-66"><stop offset="0" stop-color="#ffffff"/><stop offset="1" stop-color="#ffffff" stop-opacity="0"/></radialGradient><radialGradient cx="102.14457" cy="147.64572" r="26.09817" gradientUnits="userSpaceOnUse" id="color-67"><stop offset="0" stop-color="#ffffff"/><stop offset="1" stop-color="#c5c1b7"/></radialGradient><radialGradient cx="96.58421" cy="154.22889" r="9.69873" gradientUnits="userSpaceOnUse" id="color-68"><stop offset="0" stop-color="#ffffff"/><stop offset="1" stop-color="#ffffff" stop-opacity="0"/></radialGradient><linearGradient x1="125.52913" y1="95.56484" x2="123.54299" y2="87.83386" gradientUnits="userSpaceOnUse" id="color-69"><stop offset="0" stop-color="#a4a4a4"/><stop offset="1" stop-color="#686868"/></linearGradient><radialGradient cx="54.78786" cy="261.23462" r="65.85734" gradientUnits="userSpaceOnUse" id="color-70"><stop offset="0" stop-color="#634a14"/><stop offset="1" stop-color="#443014"/></radialGradient><linearGradient x1="92.19926" y1="251.62405" x2="73.12274" y2="177.36949" gradientUnits="userSpaceOnUse" id="color-71"><stop offset="0" stop-color="#4a4a4a"/><stop offset="1" stop-color="#000000"/></linearGradient><radialGradient cx="266.14944" cy="206.93436" r="65.85734" gradientUnits="userSpaceOnUse" id="color-72"><stop offset="0" stop-color="#634a14"/><stop offset="1" stop-color="#443014"/></radialGradient><linearGradient x1="228.73837" y1="216.5462" x2="209.66186" y2="142.29164" gradientUnits="userSpaceOnUse" id="color-73"><stop offset="0" stop-color="#4a4a4a"/><stop offset="1" stop-color="#000000"/></linearGradient><radialGradient cx="104.83352" cy="184.49891" r="99.69828" gradientUnits="userSpaceOnUse" id="color-74"><stop offset="0" stop-color="#e0c297"/><stop offset="1" stop-color="#b9a17e"/></radialGradient><radialGradient cx="112.55632" cy="218.11245" r="96.42391" gradientUnits="userSpaceOnUse" id="color-75"><stop offset="0" stop-color="#634a14"/><stop offset="1" stop-color="#443014"/></radialGradient><linearGradient x1="99.69724" y1="0.66263" x2="64.70631" y2="-135.53818" gradientUnits="userSpaceOnUse" id="color-76"><stop offset="0" stop-color="#a4a4a4"/><stop offset="1" stop-color="#7a7a7a"/></linearGradient><linearGradient x1="99.69724" y1="0.66263" x2="96.84276" y2="-10.44833" gradientUnits="userSpaceOnUse" id="color-77"><stop offset="0" stop-color="#a4a4a4"/><stop offset="1" stop-color="#7a7a7a"/></linearGradient><linearGradient x1="100.99008" y1="5.69496" x2="95.54991" y2="-15.4807" gradientUnits="userSpaceOnUse" id="color-78"><stop offset="0" stop-color="#303030"/><stop offset="1" stop-color="#4b4b4b"/></linearGradient><linearGradient x1="-39.2993" y1="-142.60362" x2="-42.65916" y2="-170.13185" gradientUnits="userSpaceOnUse" id="color-79"><stop offset="0" stop-color="#9f896a"/><stop offset="1" stop-color="#6e604b"/></linearGradient><linearGradient x1="-46.30162" y1="-146.32498" x2="-50.49158" y2="-180.65426" gradientUnits="userSpaceOnUse" id="color-80"><stop offset="0" stop-color="#b9a17e"/><stop offset="1" stop-color="#9f896a"/></linearGradient><linearGradient x1="-56.60897" y1="-148.2374" x2="-60.89953" y2="-183.39094" gradientUnits="userSpaceOnUse" id="color-81"><stop offset="0" stop-color="#e0c297"/><stop offset="1" stop-color="#b9a17e"/></linearGradient><linearGradient x1="-44.26292" y1="-121.4795" x2="-48.90996" y2="-159.55414" gradientUnits="userSpaceOnUse" id="color-82"><stop offset="0" stop-color="#e0c297"/><stop offset="1" stop-color="#b9a17e"/></linearGradient><linearGradient x1="-32.42204" y1="-135.52857" x2="-33.94091" y2="-147.9729" gradientUnits="userSpaceOnUse" id="color-83"><stop offset="0" stop-color="#e0c297"/><stop offset="1" stop-color="#b9a17e"/></linearGradient><linearGradient x1="153.40051" y1="-192.10955" x2="143.07569" y2="-217.84843" gradientUnits="userSpaceOnUse" id="color-84"><stop offset="0" stop-color="#9f896a"/><stop offset="1" stop-color="#6e604b"/></linearGradient><linearGradient x1="157.74204" y1="-198.74522" x2="144.8664" y2="-230.84309" gradientUnits="userSpaceOnUse" id="color-85"><stop offset="0" stop-color="#b9a17e"/><stop offset="1" stop-color="#9f896a"/></linearGradient><linearGradient x1="165.85125" y1="-205.38898" x2="152.66646" y2="-238.25753" gradientUnits="userSpaceOnUse" id="color-86"><stop offset="0" stop-color="#e0c297"/><stop offset="1" stop-color="#b9a17e"/></linearGradient><linearGradient x1="167.93135" y1="-175.99368" x2="153.65092" y2="-211.59344" gradientUnits="userSpaceOnUse" id="color-87"><stop offset="0" stop-color="#e0c297"/><stop offset="1" stop-color="#b9a17e"/></linearGradient><linearGradient x1="150.78504" y1="-182.59574" x2="146.11765" y2="-194.23119" gradientUnits="userSpaceOnUse" id="color-88"><stop offset="0" stop-color="#e0c297"/><stop offset="1" stop-color="#b9a17e"/></linearGradient><radialGradient cx="-11.90235" cy="-53.82805" r="19.02936" gradientUnits="userSpaceOnUse" id="color-89"><stop offset="0" stop-color="#bb8c8c"/><stop offset="1" stop-color="#9d7070"/></radialGradient><radialGradient cx="-20.57946" cy="-61.36389" r="37.23499" gradientUnits="userSpaceOnUse" id="color-90"><stop offset="0" stop-color="#bb8c8c"/><stop offset="1" stop-color="#9d7070"/></radialGradient><radialGradient cx="172.18606" cy="-101.12164" r="19.02936" gradientUnits="userSpaceOnUse" id="color-91"><stop offset="0" stop-color="#bb8c8c"/><stop offset="1" stop-color="#9d7070"/></radialGradient><radialGradient cx="176.1564" cy="-111.9067" r="37.23499" gradientUnits="userSpaceOnUse" id="color-92"><stop offset="0" stop-color="#bb8c8c"/><stop offset="1" stop-color="#9d7070"/></radialGradient><radialGradient cx="25.85308" cy="18.23202" r="19.02938" gradientUnits="userSpaceOnUse" id="color-93"><stop offset="0" stop-color="#bb8c8c"/><stop offset="1" stop-color="#9d7070"/></radialGradient><radialGradient cx="16.38963" cy="9.11255" r="37.1727" gradientUnits="userSpaceOnUse" id="color-94"><stop offset="0" stop-color="#bb8c8c"/><stop offset="1" stop-color="#9d7070"/></radialGradient><radialGradient cx="173.8389" cy="-19.78657" r="19.02938" gradientUnits="userSpaceOnUse" id="color-95"><stop offset="0" stop-color="#bb8c8c"/><stop offset="1" stop-color="#9d7070"/></radialGradient><radialGradient cx="177.73491" cy="-32.33818" r="37.1727" gradientUnits="userSpaceOnUse" id="color-96"><stop offset="0" stop-color="#bb8c8c"/><stop offset="1" stop-color="#9d7070"/></radialGradient><radialGradient cx="98.47707" cy="-166.01583" r="19.02938" gradientUnits="userSpaceOnUse" id="color-97"><stop offset="0" stop-color="#e0c297"/><stop offset="1" stop-color="#b9a17e"/></radialGradient><radialGradient cx="92.21679" cy="-180.65444" r="37.10924" gradientUnits="userSpaceOnUse" id="color-98"><stop offset="0" stop-color="#e0c297"/><stop offset="1" stop-color="#b9a17e"/></radialGradient><radialGradient cx="21.55157" cy="-144.37849" r="19.02938" gradientUnits="userSpaceOnUse" id="color-99"><stop offset="0" stop-color="#e0c297"/><stop offset="1" stop-color="#b9a17e"/></radialGradient><radialGradient cx="16.31306" cy="-159.90448" r="37.10924" gradientUnits="userSpaceOnUse" id="color-100"><stop offset="0" stop-color="#e0c297"/><stop offset="1" stop-color="#b9a17e"/></radialGradient><radialGradient cx="22.82478" cy="-126.90396" r="53.95317" gradientUnits="userSpaceOnUse" id="color-101"><stop offset="0" stop-color="#bb8c8c"/><stop offset="1" stop-color="#9d7070"/></radialGradient><linearGradient x1="133.13299" y1="-68.74027" x2="32.60125" y2="-42.91296" gradientUnits="userSpaceOnUse" id="color-102"><stop offset="0" stop-color="#bb8c8c"/><stop offset="1" stop-color="#9d7070"/></linearGradient><linearGradient x1="133.01362" y1="-69.20492" x2="32.48188" y2="-43.37762" gradientUnits="userSpaceOnUse" id="color-103"><stop offset="0" stop-color="#d8d8d8"/><stop offset="1" stop-color="#a7a7a7"/></linearGradient><radialGradient cx="240" cy="180" r="247" gradientUnits="userSpaceOnUse" id="color-104"><stop offset="0" stop-color="#111111" stop-opacity="0"/><stop offset="1" stop-color="#111111"/></radialGradient><linearGradient x1="240" y1="-8.5" x2="240" y2="368.5" gradientUnits="userSpaceOnUse" id="color-105"><stop offset="0" stop-color="#111111" stop-opacity="0"/><stop offset="1" stop-color="#111111"/></linearGradient><linearGradient x1="240" y1="368.5" x2="240" y2="-8.5" gradientUnits="userSpaceOnUse" id="color-106"><stop offset="0" stop-color="#111111" stop-opacity="0"/><stop offset="1" stop-color="#111111"/></linearGradient></defs><g transform="translate(68.29475,246.19937)"><g data-paper-data="{&quot;isPaintingLayer&quot;:true}" fill-rule="nonzero" stroke-linecap="butt" stroke-linejoin="miter" stroke-miterlimit="10" stroke-dasharray="" stroke-dashoffset="0" style="mix-blend-mode: normal"><path d="M-7,368.5v-377h494v377z" fill="#111111" stroke="#000000" stroke-width="2"/><g><path d="M278.53113,482.9622c0,0 1.5486,-75.74823 -3.0381,-104.69842c-3.13052,-19.75919 -21.82299,-45.73914 -21.82299,-45.73914c0,0 54.89485,-16.04033 82.37436,-15.84248c26.94132,0.19397 80.92004,17.0182 80.92004,17.0182c0,0 -21.59735,22.49792 -24.79443,41.04234c-4.95652,28.75001 -2.05558,108.21949 -2.05558,108.21949z" fill="#191919" stroke="none" stroke-width="0"/><path d="M439.37263,218.61023c-2.58535,18.31032 24.19588,39.82123 -3.48451,68.39148c-28.77153,29.69649 -69.34731,30.8835 -99.19201,26.66954c-31.98277,-4.51584 -60.40879,-8.39383 -85.83195,-55.32845c-17.25378,-31.85282 11.20288,-48.2521 13.4892,-64.44463c6.75936,-47.87213 51.4183,-81.14818 99.74854,-74.32414c48.33024,6.82404 82.03008,51.16406 75.27072,99.03619z" fill="#191919" stroke="none" stroke-width="0"/><path d="M389.5587,266.97005c3.08848,-1.55963 7.04854,-7.71893 8.40023,-10.85771c0.56456,-4.17575 4.06688,-9.00021 3.6813,-13.06623c-0.41725,-4.39999 -2.60219,-8.8617 -3.43904,-13.22366c-0.76112,-3.96703 -1.62919,-7.80759 -2.85136,-11.49495c0.56328,4.81161 0.4552,9.73097 -0.68481,13.45194c-1.5343,5.00796 -4.76196,9.48673 -4.63818,14.9784c0.1717,7.61663 5.06757,10.45151 0.08529,17.94681c-0.9751,1.25079 -2.01653,2.21254 -3.1148,2.94291c0.88942,-0.06286 1.75163,-0.26863 2.56132,-0.6775zM393.01155,203.05375c5.5943,7.7238 8.09127,16.40071 9.85322,25.72934c0.85501,4.52671 3.19973,9.19288 3.51894,13.78945c0.3507,5.04976 -3.12313,9.88404 -3.85463,14.87531c-1.9002,4.35919 -6.56126,11.77535 -10.8996,13.93537c-4.94544,2.46226 -10.31442,0.28563 -15.1158,-0.97762c-8.98879,-2.36496 -18.24812,-2.23566 -27.27512,-1.25186c-0.52363,-0.07079 -1.04717,-0.1421 -1.57063,-0.21382l0.01575,2.40211c0,0 -1.0717,2.2092 -3.1975,1.1222c-1.32746,-0.67878 -1.40811,-1.79514 -1.28145,-2.53791c-0.5103,-0.43714 -1.02627,-0.85939 -1.54475,-1.27046c-0.70213,0.19865 -1.89511,0.26324 -2.65871,-1.18046c-0.01871,-0.03537 -0.03653,-0.07045 -0.05351,-0.10529c-0.37483,-0.28554 -0.71708,-0.72138 -0.81712,-1.38115c-0.32507,-0.24002 -0.64828,-0.47896 -0.96891,-0.71769c0.71682,1.81054 1.29025,3.70269 2.88854,5.11077l1.34944,1.38588c0,0 1.67783,1.72982 -0.01111,3.4819c-1.68894,1.75208 -3.36676,0.02226 -3.36676,0.02226l-1.15809,-1.19938c-2.59888,-2.46995 -2.81015,-6.13461 -4.88434,-8.48386c-0.93924,-1.06382 -2.72466,-0.63851 -4.0942,-0.92372c-2.91956,-0.60802 -7.68632,-1.37027 -9.82319,-3.81503c-3.09693,-3.54315 -1.98734,-10.85746 -4.26602,-15.1921c-7.68673,-1.57601 -13.35947,-9.15648 -10.61518,-17.52957c0.68154,-2.0795 2.66319,-3.45485 3.70687,-5.36999c2.1752,-3.99157 -0.82782,-10.56185 -0.89581,-14.55384c-0.09175,-5.38914 2.75679,-8.93079 6.17312,-12.19695c0.15413,-0.28478 0.3124,-0.57252 0.47434,-0.86371c0,0 0.65399,-1.17232 1.82824,-1.29019c0.02753,-0.28622 0.06044,-0.57301 0.09892,-0.86042c0,0 0.34446,-2.43955 2.70007,-2.10695c2.35561,0.3326 2.01118,2.77216 2.01118,2.77216c-1.32309,8.77676 3.84974,14.95144 7.84786,21.82171c0.9124,1.56788 1.94789,5.22464 2.04487,7.02115c0.08985,1.66494 -1.57177,4.89606 -0.1831,6.41973c2.00837,2.20362 7.47838,2.85635 8.76346,5.56638c1.45279,3.0637 0.5501,6.83653 1.19992,10.18879c1.63726,3.93627 2.42381,7.51077 2.9719,11.73844l0.18168,1.03799c0,0 0.41816,2.41956 -1.92551,2.87547c-2.34368,0.45593 -2.7618,-1.96363 -2.7618,-1.96363l-0.21357,-1.24903c-0.5184,-3.99884 -1.27669,-7.20448 -2.80203,-10.94068c-0.58152,-2.98985 0.22837,-6.25033 -0.7414,-9.12678c-0.40811,-1.21051 -7.24445,-3.46836 -8.41073,-5.0396c-2.91024,-3.92076 -0.17337,-7.57026 -1.38108,-11.72922c-0.83405,-2.87221 -3.03679,-4.63544 -4.46171,-7.25045c-2.03117,-3.72766 -3.74382,-7.70931 -4.5511,-11.87339c-1.04541,2.33795 -1.40875,4.61223 0.05079,7.53687c1.06794,2.13995 3.00764,3.83008 3.67558,6.14028c1.36467,4.71992 -2.75778,12.74616 1.01916,16.83221c4.74057,5.12856 10.20667,8.61698 12.08717,15.87931c0.01932,6.38746 3.01131,9.86788 6.89493,12.91623l0.80136,0.11315c2.97001,0.5533 6.07131,-1.28055 8.98194,-2.21244c5.33782,-1.70901 10.75945,-2.76993 15.68149,-5.59642c3.71387,-2.59411 3.64098,-10.71379 5.30089,-14.78664c1.42628,-3.49957 4.62365,-4.47802 7.22592,-6.67249c2.86943,-2.41978 5.74406,-6.37107 7.44061,-9.68454c3.18338,-6.21733 1.29939,-13.37621 2.22394,-19.99515c0,0 0.34446,-2.43955 2.70007,-2.10695c1.88121,0.26562 2.0404,1.87498 2.0282,2.51245c1.22702,-0.10377 2.04413,1.02254 2.04413,1.02254zM372.27974,264.10252c4.79138,0.67652 10.7476,2.30176 14.00372,-2.28661c3.71439,-5.49517 -0.81498,-8.7733 -1.01732,-14.93314c-0.1993,-6.06722 3.10176,-10.9103 4.8208,-16.41028c1.1574,-3.70301 1.04616,-9.24082 0.18767,-14.22466c-0.27136,2.61296 -0.85281,5.20768 -2.1356,7.79308c-1.90227,3.83389 -5.29345,8.27942 -8.5543,11.04947c-1.63145,1.38589 -5.08778,2.51526 -5.89307,4.86235c-2.03954,5.94434 -2.09406,12.82782 -7.07745,16.93359c-2.5972,1.48426 -6.13803,3.21092 -9.9575,4.73023c5.12127,0.51033 10.24575,1.72671 15.62307,2.48597zM326.9658,248.22089c-1.54521,-6.05143 -7.40534,-8.9599 -11.06524,-13.42038c-3.72275,-4.53706 -1.98209,-10.72445 -1.74122,-15.93441c0.14992,-3.2424 -1.48179,-4.44514 -2.84738,-6.6848c0.41513,2.09015 0.90702,4.18627 0.86608,6.20139c-0.16033,7.8912 -10.65228,17.05254 0.85477,22.19434c1.13836,0.50866 2.38297,0.71911 3.57447,1.07866c2.50478,3.80916 3.42216,6.38257 4.27299,10.90738c0.30831,1.63964 -0.44589,3.80928 0.72061,4.95728c2.29272,2.25633 6.26491,1.93798 9.59047,2.56047c-2.57565,-2.92042 -4.2812,-6.52089 -4.22556,-11.85993z" fill="#000000" stroke="none" stroke-width="0.5"/><path d="M325.67245,344.36944l22.03747,-156.07698l16.4642,2.32468l-22.01016,155.88357z" fill="url(#color-1)" stroke="none" stroke-width="0"/><path d="M305.5631,244.13232l8.55409,-60.58302l8.91526,1.2588l-8.54349,60.50794z" fill="url(#color-2)" stroke="none" stroke-width="0"/><path d="M378.41026,254.41806l8.55409,-60.58302l8.91526,1.2588l-8.54349,60.50794z" fill="url(#color-3)" stroke="none" stroke-width="0"/><path d="M301.88006,205.21327l4.09031,-28.969l102.11973,14.41892l-4.09031,28.969z" fill="url(#color-4)" stroke="none" stroke-width="0"/><path d="M287.01812,191.02399l1.20487,-8.53329l133.63789,18.86916l-1.20487,8.53329z" fill="url(#color-5)" stroke="none" stroke-width="0"/><g stroke="none" stroke-width="0"><path d="M350.52759,286.95021l0.76604,-5.42537l6.67737,0.94282l-0.76604,5.42537z" fill="url(#color-6)"/><path d="M342.55598,285.77451l0.76604,-5.42537l6.67739,0.94282l-0.76604,5.42537z" fill="url(#color-7)"/><path d="M334.62659,284.65491l0.76604,-5.42537l6.67737,0.94282l-0.76604,5.42537z" fill="url(#color-8)"/><path d="M326.65498,283.47919l0.76604,-5.42537l6.67737,0.94282l-0.76604,5.42537z" fill="url(#color-9)"/><path d="M321.62619,279.86226l1.13861,-8.06401l40.89225,5.77383l-1.13861,8.06401z" fill="url(#color-10)"/></g><g data-paper-data="{&quot;index&quot;:null}" stroke="none" stroke-width="0"><path d="M356.42765,294.97349l-0.76604,5.42537l-6.67737,-0.94282l0.76604,-5.42537z" fill="url(#color-11)"/><path d="M348.44214,293.89613l-0.76604,5.42537l-6.67737,-0.94282l0.76604,-5.42537z" fill="url(#color-12)"/><path d="M340.51277,292.77654l-0.76604,5.42537l-6.67737,-0.94282l0.76604,-5.42537z" fill="url(#color-13)"/><path d="M332.52725,291.69917l-0.76604,5.42537l-6.67737,-0.94282l0.76604,-5.42537z" fill="url(#color-14)"/><path d="M360.90851,298.61338l-1.13861,8.06401l-40.89225,-5.77383l1.13861,-8.06401z" fill="url(#color-15)"/></g><g stroke-width="0"><g><path d="M344.14014,195.11132c-2.06981,14.65908 -15.57184,24.8731 -30.15762,22.81364c-14.58578,-2.05946 -24.732,-15.61251 -22.66219,-30.2716c2.06981,-14.65908 15.57184,-24.8731 30.15762,-22.81364c14.58578,2.05946 24.732,15.61251 22.66219,30.2716z" fill="url(#color-16)" stroke="#000000"/><path d="M326.65989,192.77107c-0.76919,5.44768 -5.50786,9.28286 -10.58411,8.56611c-5.07624,-0.71675 -8.56779,-5.714 -7.7986,-11.16168c0.76919,-5.44768 5.50784,-9.28284 10.58408,-8.5661c5.07624,0.71675 8.56781,5.71398 7.79862,11.16166z" fill="#000000" stroke="none"/></g><path d="M335.11903,188.94301c-0.76919,5.44768 -5.50786,9.28286 -10.58411,8.56611c-5.07624,-0.71675 -8.56779,-5.714 -7.7986,-11.16168c0.76919,-5.44768 5.50784,-9.28284 10.58408,-8.5661c5.07624,0.71675 8.56781,5.71398 7.79862,11.16166z" fill="url(#color-17)" stroke="none"/></g><g stroke-width="0"><g><path d="M416.56981,205.62234c-2.06981,14.65908 -15.57184,24.8731 -30.15762,22.81364c-14.58578,-2.05946 -24.732,-15.61251 -22.66219,-30.2716c2.06981,-14.65908 15.57184,-24.8731 30.15762,-22.81364c14.58578,2.05946 24.732,15.61251 22.66219,30.2716z" fill="url(#color-18)" stroke="#000000"/><path d="M399.08956,203.28211c-0.76919,5.44768 -5.50786,9.28286 -10.58409,8.56611c-5.07624,-0.71675 -8.56779,-5.714 -7.7986,-11.16168c0.76919,-5.44768 5.50784,-9.28284 10.58408,-8.5661c5.07624,0.71675 8.56779,5.71398 7.7986,11.16166z" fill="#000000" stroke="none"/></g><path d="M407.21131,199.12216c-0.76919,5.44768 -5.50786,9.28286 -10.58411,8.56611c-5.07624,-0.71675 -8.56779,-5.714 -7.7986,-11.16168c0.76919,-5.44768 5.50784,-9.28284 10.58408,-8.5661c5.07624,0.71675 8.56781,5.71398 7.79862,11.16166z" fill="url(#color-19)" stroke="none"/></g><path d="M305.5098,244.50976l1.14622,-8.11796l81.76243,11.54454l-1.1448,8.10789z" fill="url(#color-20)" stroke="none" stroke-width="0"/><g stroke="none" stroke-width="0"><g><path d="M439.37263,218.61023c-2.58535,18.31032 24.19588,39.82123 -3.48449,68.39149c-28.77153,29.69649 -69.34731,30.8835 -99.19201,26.66954c-31.98277,-4.51584 -60.40879,-8.39383 -85.83195,-55.32845c-17.25378,-31.85282 11.20288,-48.2521 13.4892,-64.44463c6.75936,-47.87213 51.4183,-81.14818 99.74854,-74.32414c48.33024,6.82404 82.03008,51.16406 75.27072,99.03619zM339.4832,300.29076c18.1329,2.90787 35.9063,-1.63628 49.25729,-8.23615c-0.17302,0.55872 -0.34814,1.09434 -0.21591,1.39071c0.99666,2.23387 3.23647,0.55535 3.69067,3.47051l-0.1131,0.43923c0,0 -0.13778,0.97582 0.83804,1.1136c0.97582,0.13778 1.1136,-0.83804 1.1136,-0.83804l0.10008,-1.07056c-0.24723,-1.22028 -0.7986,-2.86671 -1.98277,-3.57954c-0.50977,-0.30686 -1.9336,0.41265 -1.77768,-0.16157c0.17013,-0.62661 0.30042,-1.22666 0.33457,-1.77885c11.9952,-6.32003 19.98568,-14.18338 20.70046,-19.24565c0.26402,-1.86991 -0.57834,-2.82669 -2.32648,-3.15603c1.19939,-2.47826 2.86175,-5.2997 0.53892,-6.68374c-1.23085,-0.7334 -3.81034,-0.27641 -4.529,1.05406c-0.39885,0.73843 0.94789,2.279 0.14214,2.51381c-0.32564,0.09489 -2.6015,-0.17503 -3.12615,0.32854c-0.32494,0.31188 -0.20826,1.25536 -0.65281,1.18303c-0.9936,0.74773 -1.40366,1.73953 -2.02916,2.59308c-12.92806,2.70339 -34.44229,9.13048 -55.31506,6.14222c-43.21482,-6.18682 -60.89919,-32.22065 -62.4211,-21.44202c-0.29593,2.09587 0.3706,4.90014 1.89646,8.09972c-1.69141,-0.07995 -3.17668,-0.23883 -5.12607,-1.28317c-1.3843,-0.74161 -2.86211,0.07895 -3.94219,-0.58616c-0.01242,-0.28831 -0.13169,-0.83476 -0.84351,-0.93527c-0.97582,-0.13778 -1.1136,0.83804 -1.1136,0.83804l0.2666,1.25074c2.98531,2.37916 7.7016,2.33308 11.76773,2.66458c7.34757,13.19056 27.74633,31.56553 54.86808,35.91486zM313.68998,220.6298c16.16794,2.28285 31.12526,-8.97324 33.40812,-25.14118c2.28285,-16.16794 -8.97324,-31.12526 -25.14118,-33.40812c-16.16794,-2.28285 -31.12526,8.97324 -33.40812,25.14118c-2.28285,16.16794 8.97324,31.12526 25.14118,33.40812zM387.15742,231.46041c16.16794,2.28285 31.12526,-8.97324 33.40812,-25.14118c2.28285,-16.16794 -8.97324,-31.12526 -25.14118,-33.40812c-16.16794,-2.28285 -31.12526,8.97324 -33.40812,25.14118c-2.28285,16.16794 8.97324,31.12526 25.14118,33.40812z" fill="url(#color-21)"/><path d="M361.91866,198.03852c2.28285,-16.16794 17.35154,-27.50783 33.51948,-25.22498c16.16794,2.28285 27.50783,17.35154 25.22498,33.51948c-2.28285,16.16794 -17.35154,27.50783 -33.51948,25.22498c-16.16794,-2.28285 -27.50783,-17.35154 -25.22498,-33.51948z" data-paper-data="{&quot;noHover&quot;:false,&quot;origItem&quot;:[&quot;Path&quot;,{&quot;applyMatrix&quot;:true,&quot;segments&quot;:[[[373.6439,198.42737],[-16.16794,-2.28285],[16.16794,2.28285]],[[407.05202,173.2862],[-2.28285,16.16794],[2.28285,-16.16794]],[[381.91084,139.87808],[16.16794,2.28285],[-16.16794,-2.28285]],[[348.50272,165.01926],[2.28285,-16.16794],[-2.28285,16.16794]]],&quot;closed&quot;:true,&quot;fillColor&quot;:[0,0,0,1],&quot;strokeWidth&quot;:0}]}" fill="#000000"/><path d="M288.45122,187.20791c2.28285,-16.16794 17.35154,-27.50783 33.51948,-25.22498c16.16794,2.28285 27.50783,17.35154 25.22498,33.51948c-2.28285,16.16794 -17.35154,27.50783 -33.51948,25.22498c-16.16794,-2.28285 -27.50783,-17.35154 -25.22498,-33.51948z" data-paper-data="{&quot;noHover&quot;:false,&quot;origItem&quot;:[&quot;Path&quot;,{&quot;applyMatrix&quot;:true,&quot;segments&quot;:[[[300.17646,187.59676],[-16.16794,-2.28285],[16.16794,2.28285]],[[333.58457,162.45558],[-2.28285,16.16794],[2.28285,-16.16794]],[[308.44339,129.04747],[16.16794,2.28285],[-16.16794,-2.28285]],[[275.03528,154.18865],[2.28285,-16.16794],[-2.28285,16.16794]]],&quot;closed&quot;:true,&quot;fillColor&quot;:[0,0,0,1],&quot;strokeWidth&quot;:0}]}" fill="#000000"/><path d="M364.64166,119.07479c38.32108,5.41079 67.95673,32.48104 76.98694,66.19001c-2.47487,-2.99992 -5.16741,-5.84428 -8.095,-8.51561c-3.10876,-6.63742 -7.83526,-8.48383 -14.76658,-9.46251c-1.64607,-0.23242 -4.0531,-0.01338 -6.25151,-0.20198c-1.42072,-0.53063 -2.84379,-1.04681 -4.26726,-1.55558c-0.3836,-0.39132 -0.68409,-0.87563 -0.87663,-1.47496c-1.79603,-3.35487 -5.25125,-2.72136 -8.48797,-4.52751c-7.37133,-4.11332 -15.7436,-5.23812 -24.2546,-5.41975c-2.32479,-0.62435 -4.65371,-1.20483 -6.99082,-1.7449c-2.34343,-2.0214 -4.32113,-5.31709 -6.91859,-7.00736c-3.97842,-2.58892 -7.55204,0.62063 -10.97682,1.56949c-1.72839,0.47885 -3.88254,0.40959 -5.76071,1.05731c-6.27149,-0.1287 -12.65392,-2.11943 -18.9089,-1.94727c-1.07685,0.02963 -6.85349,0.48213 -7.53858,-0.40702c-2.26151,-2.9351 -4.37165,-3.07388 -8.09653,-1.4347c-5.41831,6.13682 -12.61496,6.1975 -20.0457,8.11222c-0.02557,-0.77758 -0.85078,-0.89409 -0.85078,-0.89409c-3.26597,-0.40155 -8.81125,2.35866 -13.06567,5.12247c18.84337,-26.954 52.9559,-42.57091 89.16568,-37.45823z" fill="url(#color-22)"/></g><path d="M394.87268,164.4918c10.58781,1.14008 19.94501,7.74009 19.71089,9.91437c-0.23413,2.17429 -9.4783,-3.24807 -20.06612,-4.38816c-10.58781,-1.14008 -19.5594,-1.38895 -19.5594,-1.38895c0,0 9.32681,-5.27735 19.91463,-4.13727z" fill="#000000"/><path d="M324.9521,159.32506c-10.48955,-1.83596 -20.87364,0.81496 -20.49661,-1.33914c0.37703,-2.15411 11.19579,-5.90534 21.68534,-4.06938c10.48955,1.83596 18.36763,7.33525 17.99061,9.48936c0,0 -8.68978,-2.24487 -19.17933,-4.08083z" data-paper-data="{&quot;index&quot;:null}" fill="#000000"/></g><g stroke="none"><path d="M331.82939,354.11002c0.76278,-0.50852 1.43095,-0.544 1.96931,-0.38805l-0.01691,-2.13625c0,0 0,-2.46375 2.46375,-2.46375c2.46375,0 2.46375,2.46375 2.46375,2.46375l-0.02381,2.32661c0.27216,0.95255 0.50195,2.03346 0.65993,3.17607l0.41265,1.44427c0.40295,1.4124 0.70355,2.82443 0.92777,4.23574c4.03269,8.67465 2.98179,20.16845 2.97641,29.3351c-0.02393,0.25802 -0.0486,0.51577 -0.07395,0.77328c2.77135,6.67978 6.83671,13.08893 7.31433,20.30865c0.46833,7.07932 -4.29801,13.02615 -3.44977,20.01446c0.33221,2.73699 7.08731,13.63399 9.84233,11.3035c2.44568,-2.50108 6.1253,-5.25043 7.04773,-8.85949c0.86919,-3.40079 -1.50133,-7.28153 -1.94826,-10.52941c-0.23295,-1.69301 0.2445,-7.63184 0.41576,-8.49638c0.9938,-5.01707 5.03502,-8.6958 7.52341,-12.91296c0.10478,-0.17757 0.20739,-0.35464 0.30787,-0.53122c-0.74326,-5.769 -2.3122,-11.40605 -5.01577,-16.67751c-2.51179,-6.68747 -7.43028,-14.86981 -4.65107,-22.35461c4.23316,-11.40051 17.2807,-11.98022 27.06358,-15.26365c0.52571,-0.17644 1.04173,-0.34455 1.55009,-0.50115c0.2663,-0.09885 0.53193,-0.19259 0.7965,-0.28112c0.53562,-0.17924 1.08182,-0.30275 1.63627,-0.379c3.23688,-0.73315 6.28659,-0.73721 9.74721,0.90276c0,0 0.78483,0.39243 1.18355,1.17726c1.71725,0.55291 3.37954,1.04914 4.92447,1.25573c0,0 2.439,0.34843 2.09056,2.78741c-0.34843,2.439 -2.78741,2.09056 -2.78741,2.09056c-3.62688,-0.54423 -10.17565,-4.12485 -14.31702,-3.41113c-0.36651,0.09705 -0.73475,0.20569 -1.10571,0.32157c-5.34707,2.15188 -12.29272,6.60542 -13.03743,12.73632c-0.62171,5.11824 1.50791,10.28386 1.53947,15.35997c0,8.33791 -0.64923,15.33849 -4.28352,22.68388c2.76902,19.3156 -3.0642,39.80254 -19.27093,51.38874c-8.43934,4.75563 -13.1873,-6.30391 -17.18276,-12.49369c-9.07356,-14.05679 -2.66509,-33.37753 -0.94616,-48.99088c-0.32494,-0.79928 -0.62577,-1.59923 -0.89255,-2.40066c-1.63092,-7.44195 -0.75907,-14.87264 -1.22732,-22.32942c-0.98392,0.6445 -2.08956,1.18227 -2.58656,2.2006c-0.94939,1.94528 -0.35937,5.48023 -0.50858,7.13463c-0.41381,4.58831 -2.72536,8.16761 -2.65634,12.71769c0,4.85795 2.18145,15.29274 -1.22742,19.35652c-0.96802,1.15398 -2.2006,1.78821 -3.57721,2.02676c-2.96023,2.3585 -7.18824,3.38021 -7.80584,7.59675c-0.93835,6.40652 5.2687,7.86313 7.11916,12.85418c2.10519,5.67812 0.01951,12.08159 -5.03343,14.92287c-9.97601,7.16483 -25.31943,4.08084 -27.17067,-9.98523c-0.66935,-5.08576 5.76234,-13.5017 3.60378,-18.00214c-2.18551,-4.55664 -6.9964,-8.2638 -9.42578,-13.12196c-4.34813,-7.72778 -1.71787,-16.33341 -2.92804,-24.78288c-0.96315,-6.72464 -3.53436,-13.09106 -5.94332,-19.27371c-1.4451,-3.70887 -2.45573,-9.19827 -6.91654,-9.86768c-0.72355,0.39726 -1.47049,0.80906 -2.28473,1.21755c0,0 -2.20364,1.10181 -3.30547,-1.10183c-1.10181,-2.20364 1.10181,-3.30547 1.10181,-3.30547c0.23745,-0.1183 0.47878,-0.23565 0.72365,-0.35186c0.56741,-1.433 2.28411,-1.433 2.28411,-1.433c0.31763,0.01303 0.62615,0.03428 0.92592,0.06355c10.1913,-3.88122 23.92898,-4.81171 27.02391,9.13135c1.58774,7.15304 -1.79288,12.10634 4.04087,17.9942c6.03637,3.42389 9.96747,8.3344 10.86077,15.37978c0.48723,3.8428 -0.62437,7.63716 1.56131,11.21175c1.01126,1.65389 2.18011,2.36049 3.80253,3.40583c0.37504,0.24163 3.59446,1.69126 5.64623,2.3425c1.7411,-5.49095 -0.61927,-13.28506 -1.78393,-18.5557c-0.60683,-6.00225 -2.98187,-14.05147 -1.49,-20.01607c1.05443,-4.21566 4.6615,-9.17846 7.36656,-12.44691l0.07025,-0.28694c0,0 1.07936,-2.1587 3.23804,-1.13467c0.1631,-0.19976 0.37552,-0.39387 0.64848,-0.57585zM340.23408,425.15546c0,4.09947 -0.42773,8.41279 1.61662,12.18323c2.22552,4.10461 5.22838,7.79736 8.12571,11.4239c1.67821,2.10059 1.83879,4.25638 3.92915,2.19209c0.74498,-0.53164 1.47295,-1.09412 2.18614,-1.6804c-5.71671,-0.31382 -9.94118,-6.59852 -12.53563,-11.99427c-3.94192,-8.19814 2.97534,-15.66436 2.42859,-23.78837c-0.26543,-3.94419 -1.77232,-7.75431 -3.51207,-11.51508c-1.06004,7.67338 -2.23851,15.2723 -2.23851,23.1789zM370.10088,425.38337c0.71307,-4.75256 1.1285,-9.61926 1.06964,-14.46654c-1.60138,2.10483 -3.10021,4.30145 -3.54895,6.76592c-0.82382,4.52439 0.93692,8.86972 1.61281,13.19369c0.37041,-1.93265 0.61838,-3.83939 0.86649,-5.49308zM365.64523,365.7129c-2.30639,6.06061 2.50246,13.48526 4.49749,18.81396c1.59391,3.25799 2.905,6.67992 3.92147,10.19877c1.08827,-4.3389 1.26737,-8.741 1.26737,-13.78824c0.04108,-5.26726 -2.19284,-10.54543 -1.51004,-15.89764c0.39349,-3.08456 1.86086,-5.95089 3.93903,-8.44866c-5.28195,1.5537 -10.13919,3.92907 -12.11529,9.12183zM332.81546,360.00913l-0.86007,-1.27896l-0.29736,0.53186c-2.2432,2.67037 -5.4894,6.95442 -6.3563,10.42451c-1.14036,4.56476 0.49549,10.91815 1.27969,15.9646c0.69653,-2.59949 1.62915,-5.07413 1.8757,-8.00605c0.30411,-3.61653 -0.65019,-5.55974 1.01619,-8.87536c0.89957,-1.78993 3.21218,-2.48829 4.37714,-4.11799c0.4501,-0.62968 0.70566,-1.4711 0.82494,-2.41292c-0.54835,-0.7896 -1.16557,-1.53531 -1.85994,-2.22966zM282.86798,360.55384c2.52998,6.51867 5.24075,13.28861 6.25478,20.37008c1.08992,7.61153 -1.56056,16.4267 2.40862,23.24709c2.38399,4.7685 7.81567,8.88218 9.63374,13.56138c2.57484,6.62688 -4.12497,12.97944 -3.25763,19.35452c1.43637,10.55755 12.70308,11.47263 19.68086,6.32737c8.88045,-4.04966 -0.8877,-11.82004 -3.00808,-16.05639c-0.75962,-1.51767 -1.58679,-6.88457 -1.35154,-8.31104c0.38762,-2.35026 2.41852,-5.63093 4.28062,-7.21528c0.40143,-0.34155 0.88447,-0.62211 1.40278,-0.87956c-3.80551,-1.71199 -7.34726,-4.67721 -8.78219,-6.9994c-3.64164,-5.89343 -0.77275,-12.8519 -3.8936,-18.82228c-1.57605,-3.0151 -4.49572,-4.80396 -7.31815,-6.42811c-2.63476,-2.61897 -4.92817,-5.31981 -5.87008,-9.07031c-0.93891,-3.73852 0.7286,-8.06262 0,-11.8169c-1.41141,-7.27272 -10.17242,-9.07678 -15.99838,-7.6641c2.8236,2.42628 4.22468,6.29694 5.81826,10.40293z" fill="#303030" stroke-width="0.5"/><path d="M321.70402,488.90143v-144.43712h25.80766v144.43712z" fill="url(#color-23)" stroke-width="0"/><path d="M257.28286,356.2472v-11.78286h154.65v11.78286z" fill="url(#color-24)" stroke-width="0"/><path d="M279.77309,361.58387v-22.45619h109.66954v22.45619z" fill="url(#color-25)" stroke-width="0"/></g><g data-paper-data="{&quot;index&quot;:null}" stroke="none" stroke-width="0"><path d="M471.84204,525.40166c0.66892,-7.28556 6.96652,-7.61646 13.15544,-14.34003c6.18893,-6.72357 10.60029,-12.34288 15.47732,-8.24251c4.66749,3.92421 -3.08923,11.92797 -9.27814,18.65156c-6.18893,6.72359 -17.75313,11.59307 -19.35461,3.93098z" fill="url(#color-26)"/><path d="M484.35235,539.42669c-2.7078,-6.79665 2.7549,-9.94753 5.22166,-18.74664c2.46677,-8.79911 3.85008,-15.8079 10.05624,-14.36516c5.93956,1.38075 2.65606,12.03184 0.1893,20.83095c-2.46677,8.79911 -10.56511,18.38347 -15.46719,12.28083z" fill="url(#color-27)"/><path d="M498.38333,527.23848c-2.86275,-8.67837 -5.62562,-15.26648 0.32961,-17.53217c5.6994,-2.16837 8.91775,8.50258 11.78049,17.18095c2.86275,8.67837 1.49029,21.15072 -5.98291,18.82174c-6.03952,-4.12928 -3.26445,-9.79215 -6.1272,-18.47052z" fill="url(#color-28)"/><path d="M487.09084,502.72658c-3.51269,-10.64869 -6.99431,-18.70235 1.35259,-21.8254c7.98829,-2.98889 10.56048,6.08818 14.07318,16.73685c3.51269,10.64869 8.09022,18.94579 -1.35259,21.8254c-8.70525,2.6547 -10.56048,-6.08818 -14.07318,-16.73685z" fill="url(#color-29)"/><path d="M463.35679,502.80096c-3.88079,-6.79793 8.00506,-10.8191 17.09589,-9.88854c9.09085,0.93055 20.20416,1.78013 19.31147,7.81236c-0.93278,6.30301 -7.96073,5.02075 -17.05158,4.0902c-9.09085,-0.93055 -14.0249,2.99682 -19.3558,-2.01402z" data-paper-data="{&quot;index&quot;:null}" fill="url(#color-30)"/></g><g data-paper-data="{&quot;index&quot;:null}" stroke="none" stroke-width="0"><path d="M181.39621,521.47068c-6.18891,-6.72359 -13.94564,-14.72735 -9.27814,-18.65156c4.87703,-4.10037 9.28838,1.51893 15.47732,8.24251c6.18892,6.72357 12.48652,7.05447 13.15544,14.34003c-1.60148,7.66209 -13.16569,2.79262 -19.35461,-3.93098z" fill="url(#color-31)"/><path d="M188.2405,539.42667c-4.90209,6.10264 -13.00042,-3.48172 -15.46719,-12.28083c-2.46676,-8.79911 -5.75026,-19.4502 0.1893,-20.83095c6.20616,-1.44274 7.58947,5.56605 10.05624,14.36516c2.46676,8.79911 7.92945,11.94999 5.22166,18.74664z" fill="url(#color-32)"/><path d="M168.08234,545.709c-7.47319,2.32898 -8.84565,-10.14337 -5.98291,-18.82174c2.86275,-8.67837 6.0811,-19.34933 11.78049,-17.18095c5.95523,2.2657 3.19235,8.8538 0.32961,17.53217c-2.86275,8.67837 -0.08768,14.34124 -6.1272,18.47052z" fill="url(#color-33)"/><path d="M171.42884,519.46343c-9.44281,-2.8796 -4.86527,-11.1767 -1.35259,-21.8254c3.5127,-10.64867 6.08488,-19.72574 14.07318,-16.73685c8.34689,3.12305 4.86527,11.1767 1.35259,21.8254c-3.5127,10.64867 -5.36793,19.39155 -14.07318,16.73685z" fill="url(#color-34)"/><path d="M209.23609,502.80097c-5.33089,5.01084 -10.26495,1.08346 -19.3558,2.01402c-9.09085,0.93055 -16.1188,2.21281 -17.05158,-4.0902c-0.89269,-6.03224 10.22062,-6.88181 19.31147,-7.81236c9.09083,-0.93056 20.97668,3.0906 17.09589,9.88854z" data-paper-data="{&quot;index&quot;:null}" fill="url(#color-35)"/></g><g data-paper-data="{&quot;index&quot;:null}" stroke="none" stroke-width="0"><path d="M446.90201,418.68916c-3.3767,-10.25288 2.02816,-21.24611 12.07216,-24.55401c10.04398,-3.3079 20.9236,2.32211 24.30031,12.57501c3.37673,10.25289 -2.02814,21.2461 -12.07215,24.55401c-10.04396,3.30789 -20.9236,-2.32211 -24.30031,-12.57501z" fill="url(#color-36)"/><path d="M473.62919,490.42665l-28.37005,-70.8404l39.52008,-13.01564l19.66382,73.83041z" fill="url(#color-37)"/></g><g data-paper-data="{&quot;index&quot;:null}" stroke="none" stroke-width="0"><path d="M225.69083,418.68915c-3.37671,10.2529 -14.25634,15.8829 -24.30031,12.57501c-10.044,-3.30791 -15.44887,-14.30112 -12.07215,-24.55401c3.37671,-10.2529 14.25633,-15.88291 24.30031,-12.57501c10.044,3.30791 15.44887,14.30113 12.07216,24.55401z" fill="url(#color-38)"/><path d="M168.14982,480.40102l19.66382,-73.83041l39.52008,13.01564l-28.37005,70.8404z" fill="url(#color-39)"/></g><g data-paper-data="{&quot;index&quot;:null}" stroke="none" stroke-width="0"><path d="M395.88299,365.96025c-7.48786,-7.77534 -7.38327,-20.02491 0.23365,-27.3602c7.61691,-7.33529 19.86175,-6.97856 27.34963,0.79679c7.48787,7.77535 7.38326,20.02493 -0.23365,27.36023c-7.61691,7.33529 -19.86175,6.97856 -27.34963,-0.79679z" fill="url(#color-40)"/><path d="M447.66289,422.38226l-52.87144,-54.90133l29.97029,-28.86219l52.87144,54.90133z" fill="url(#color-41)"/></g><g data-paper-data="{&quot;index&quot;:null}" stroke="none" stroke-width="0"><path d="M276.70987,365.96028c-7.48787,7.77535 -19.73271,8.13208 -27.34963,0.79679c-7.61691,-7.33529 -7.72152,-19.58487 -0.23365,-27.36023c7.48787,-7.77535 19.73271,-8.13208 27.34963,-0.79679c7.61691,7.33529 7.72151,19.58486 0.23365,27.3602z" fill="url(#color-42)"/><path d="M194.95968,393.52007l52.87144,-54.90133l29.97029,28.86219l-52.87144,54.90133z" fill="url(#color-43)"/></g><g stroke="none" stroke-width="0"><path d="M322.93606,513.37794c-0.0028,10.79464 -8.57754,19.54319 -19.15222,19.54045c-10.5747,-0.00276 -19.14487,-8.75574 -19.14207,-19.55038c0.0028,-10.79464 8.57752,-19.54319 19.15222,-19.54045c10.5747,0.00276 19.14487,8.75574 19.14207,19.55036z" fill="url(#color-44)"/><path d="M283.14908,589.9262l0.01973,-76.22036l41.60824,0.01078l-0.01975,76.22034z" fill="url(#color-45)"/></g><g data-paper-data="{&quot;index&quot;:null}" stroke="none" stroke-width="0"><path d="M345.62339,513.37792c-0.0028,-10.79462 8.56737,-19.54762 19.14207,-19.55036c10.57468,-0.00274 19.14942,8.74581 19.15222,19.54045c0.0028,10.79464 -8.56737,19.54764 -19.14207,19.55038c-10.57466,0.00274 -19.14942,-8.74581 -19.15222,-19.54045z" fill="url(#color-46)"/><path d="M343.80214,589.93696l-0.01975,-76.22034l41.60824,-0.01078l0.01973,76.22036z" fill="url(#color-47)"/></g><path d="M278.95544,483.32293c0,-16.42822 110.83251,-16.42822 110.83251,0c0,16.42822 -24.81069,29.74592 -55.41624,29.74592c-30.60553,0 -55.41624,-13.3177 -55.41624,-29.74592z" fill="url(#color-48)" stroke="none" stroke-width="0"/><g stroke="none"><path d="M278.26751,482.98431c0,0 1.9168,-76.11645 -2.6699,-105.06662c-3.13052,-19.75919 -21.82299,-45.73914 -21.82299,-45.73914c0,0 54.89485,-16.04033 82.37436,-15.84248c26.94132,0.19397 80.92002,17.0182 80.92002,17.0182c0,0 -21.59735,22.49792 -24.79443,41.04234c-4.95652,28.75001 -1.68735,108.58769 -1.68735,108.58769z" fill="url(#color-49)" stroke-width="0"/><g stroke-width="0.5"><path d="M288.0131,411.72368c-0.21096,-2.20738 1.99643,-2.41836 1.99643,-2.41836l1.31371,-0.12555c2.78956,-0.22984 4.23261,-1.43233 6.93919,-2.1436c4.28139,-1.12515 9.21017,-0.75219 13.64181,-1.46416c5.14973,-0.82733 10.10881,-2.2838 15.33804,-2.97927c0.26502,-0.00978 0.53,-0.02085 0.79496,-0.03323c-4.74187,-4.17604 -9.84801,-7.88688 -14.61945,-12.02344c-2.68973,2.14455 -5.62273,3.99205 -8.26135,6.20783c0,0 -1.69946,1.4244 -3.12386,-0.27507c-1.4244,-1.69946 0.27507,-3.12384 0.27507,-3.12384c2.48421,-2.07838 5.23575,-3.83805 7.78816,-5.82937c-3.36742,-3.22411 -6.44472,-6.63009 -10.14003,-9.57079c-2.40036,-1.91018 -5.37348,-3.48974 -7.65953,-5.50211c-1.04759,-0.92215 -2.98488,-1.64125 -2.88596,-3.03339c0.12025,-1.69248 1.8053,-3.16229 3.37238,-3.8128c1.31964,-0.54782 2.84212,0.34138 4.23629,0.65431c0.07407,0.01662 7.78169,2.28183 8.16539,2.39453c5.96027,2.29718 11.66967,3.81909 17.87552,4.99527c0.33613,0.0637 0.67132,0.13239 1.00564,0.20556c5.57054,-5.96628 11.07299,-12.01268 17.31901,-17.24234c1.77075,-1.69948 6.8224,-7.20699 9.87413,-6.37101c3.9229,1.07461 4.28734,10.73539 4.58276,13.81124c0.56538,5.88685 -0.00678,11.70728 -0.13817,17.56746c4.59429,0.82098 9.17105,1.73452 13.64361,3.05003c2.24462,0.14962 9.01583,0.99839 10.03064,3.28148c0.6048,1.36064 -0.6527,2.96161 -1.42888,4.23231c-1.77806,2.91087 -6.84422,4.52903 -9.72364,5.88693c-3.62373,1.70892 -7.36609,2.68107 -11.16578,3.5589c0.08873,1.17651 0.15719,2.35452 0.19355,3.53503c2.08749,7.4031 3.73523,16.22513 4.5307,23.92678c0.40664,3.9371 2.04978,11.04717 -5.23386,7.69106c-1.46568,-0.67534 -2.18489,-2.38387 -3.14235,-3.68291c-2.62731,-3.5646 -4.13481,-8.01271 -6.73911,-11.62662c-3.97626,-5.51774 -9.06077,-10.31463 -14.15958,-14.80409c-1.60851,0.17067 -3.23601,0.29141 -4.89078,0.35131c-5.12417,0.69023 -9.95011,2.11057 -14.99889,2.93725c-4.24883,0.6957 -9.17606,0.24572 -13.2403,1.37935c-2.8398,0.79209 -4.60584,1.94654 -7.63339,2.26626l-1.31369,0.12555c0,0 -2.2074,0.21096 -2.41836,-1.99643zM338.22781,405.85013c5.45766,5.04019 10.52789,10.50136 14.36708,16.89093c1.52325,2.53512 2.85569,5.34183 4.46353,7.83028c-0.22846,-1.85355 -0.20697,-3.9541 -0.33907,-4.62446c-1.30539,-6.62389 -2.04974,-13.65624 -3.84838,-20.10621c-0.0447,-1.07463 -0.1118,-2.14689 -0.19367,-3.21762c-0.5127,0.12029 -1.026,0.24328 -1.53977,0.37051c-4.34927,1.07711 -8.59566,2.10462 -12.9097,2.85657zM351.37293,380.856c0.18762,-3.3674 0.52135,-6.73018 0.43344,-10.09693c-0.08745,-3.34972 -0.43013,-6.88384 -0.97472,-10.18639c-0.14698,-0.89125 -0.32784,-1.77664 -0.48116,-2.66682c-0.16121,-0.93595 -0.41308,-1.86299 -0.46244,-2.81144c-0.00061,-0.01181 0,-0.02466 0.0017,-0.0384c-1.13415,1.69701 -4.26722,3.61612 -5.54114,4.84667c-5.55066,4.65681 -10.52032,9.95127 -15.47295,15.26154c4.08352,1.29515 8.10898,2.88972 12.26814,3.78148c3.38035,0.72478 6.80202,1.31878 10.22912,1.91027zM351.25901,385.33735c-3.64657,-0.63171 -7.29036,-1.2564 -10.89122,-2.02514c-5.03086,-1.07406 -9.87361,-3.1962 -14.8526,-4.55376c-2.84256,3.02082 -5.72117,6.00091 -8.74114,8.82417c5.69606,4.90434 11.85431,9.22543 17.27534,14.4872c6.14087,-0.70298 12.24808,-1.99065 18.25843,-3.53702c-0.42855,-4.27185 -0.93812,-8.53698 -1.04195,-12.85075c-0.00278,-0.11489 -0.00505,-0.2298 -0.00688,-0.34469zM313.4718,384.60079c2.40801,-2.23058 4.72321,-4.56454 6.99899,-6.94285c-5.74291,-1.15012 -11.1331,-2.65648 -16.71007,-4.81236c-0.40291,-0.11791 -3.03264,-0.88715 -5.13755,-1.50399c2.2825,1.62517 4.48791,3.36442 6.62184,5.17768c2.95922,2.51456 5.44941,5.41209 8.22678,8.08152zM355.71552,386.12331c0.12599,3.76786 0.5708,7.50364 0.95436,11.24143c1.32298,-0.36692 2.64043,-0.74267 3.95166,-1.12371c3.62804,-1.05429 7.30331,-2.68644 10.62626,-4.48539c0.7759,-0.42006 1.40625,-1.07968 2.09419,-1.63924c-1.61346,-0.16038 -3.66606,-1.01471 -4.77116,-1.08837c-4.22104,-1.23389 -8.52856,-2.11768 -12.85529,-2.90472z" fill="#ad9600"/><path d="M291.06169,410.53597c-0.19692,-2.06031 1.8634,-2.25721 1.8634,-2.25721l1.22616,-0.1172c2.60371,-0.21454 3.95062,-1.33689 6.47685,-2.00078c3.99613,-1.05017 8.5965,-0.70207 12.73287,-1.36659c4.80662,-0.7722 9.43528,-2.13164 14.31609,-2.78077c0.24736,-0.00913 0.49468,-0.01947 0.74198,-0.03102c-4.42592,-3.89781 -9.19184,-7.36141 -13.64536,-11.22235c-2.51052,2.00167 -5.24813,3.72608 -7.71091,5.79421c0,0 -1.58624,1.3295 -2.91572,-0.25674c-1.32948,-1.58624 0.25674,-2.91572 0.25674,-2.91572c2.31869,-1.93992 4.88688,-3.58233 7.26923,-5.44097c-3.14306,-3.00929 -6.01532,-6.18833 -9.46441,-8.93309c-2.24044,-1.78291 -5.01545,-3.25724 -7.1492,-5.1355c-0.97777,-0.86072 -2.78601,-1.5319 -2.69369,-2.83126c0.11225,-1.57972 1.68503,-2.95159 3.14769,-3.55878c1.23172,-0.5113 2.65277,0.31865 3.95403,0.61073c0.06914,0.01553 7.2632,2.12979 7.62133,2.23498c5.56315,2.14413 10.89213,3.56463 16.68451,4.66244c0.31374,0.05947 0.62658,0.12358 0.93863,0.19186c5.19938,-5.56875 10.33522,-11.2123 16.16509,-16.0935c1.65278,-1.58624 6.36781,-6.72679 9.21623,-5.94653c3.66153,1.003 4.00168,10.0201 4.27743,12.89102c0.5277,5.4946 -0.00633,10.92725 -0.12896,16.39696c4.28817,0.76629 8.55998,1.61894 12.73454,2.8468c2.09508,0.13963 8.41511,0.93187 9.36232,3.06284c0.56449,1.27 -0.60922,2.76429 -1.33368,3.95032c-1.65958,2.71693 -6.38821,4.22727 -9.07577,5.4947c-3.38228,1.59505 -6.87529,2.50244 -10.42181,3.32179c0.08282,1.09812 0.1467,2.19761 0.18066,3.29948c1.94841,6.90984 3.48635,15.14407 4.22882,22.33257c0.37956,3.67479 1.91321,10.31112 -4.88513,7.17862c-1.36801,-0.63035 -2.0393,-2.22506 -2.93297,-3.43754c-2.45224,-3.32709 -3.85932,-7.47883 -6.2901,-10.85194c-3.71134,-5.15011 -8.45705,-9.62738 -13.21614,-13.81773c-1.50135,0.1593 -3.0204,0.272 -4.56494,0.3279c-4.78277,0.64422 -9.28714,1.96996 -13.99953,2.74154c-3.96573,0.64933 -8.56465,0.22935 -12.35812,1.28744c-2.65058,0.7393 -4.29897,1.81687 -7.1248,2.11526l-1.22618,0.11718c0,0 -2.06031,0.1969 -2.25723,-1.8634zM337.93067,405.05377c5.09403,4.70437 9.82643,9.80167 13.40983,15.76551c1.42176,2.36621 2.6654,4.9859 4.16613,7.30855c-0.21324,-1.73007 -0.19318,-3.69064 -0.31648,-4.31634c-1.21841,-6.18254 -1.91317,-12.74637 -3.59197,-18.76658c-0.04173,-1.00304 -0.10434,-2.00384 -0.18076,-3.00323c-0.47854,0.11227 -0.95763,0.22708 -1.43716,0.34583c-4.05949,1.00537 -8.02294,1.96438 -12.04956,2.66623zM350.19993,381.72496c0.1751,-3.14304 0.48662,-6.28176 0.40457,-9.42417c-0.08164,-3.12652 -0.40149,-6.42519 -0.90979,-9.5077c-0.13716,-0.83188 -0.30598,-1.65826 -0.44909,-2.48914c-0.15047,-0.87361 -0.38557,-1.73886 -0.43163,-2.62411c-0.00057,-0.01102 -0.00002,-0.023 0.00158,-0.03583c-1.05859,1.58396 -3.9829,3.37516 -5.17195,4.52374c-5.18082,4.34653 -9.81933,9.28823 -14.442,14.24468c3.81144,1.20885 7.56869,2.6972 11.45073,3.52953c3.15512,0.67647 6.34881,1.23091 9.54757,1.78299zM350.0936,385.90774c-3.40358,-0.58963 -6.80461,-1.17269 -10.16556,-1.89021c-4.69565,-1.00249 -9.21575,-2.98323 -13.863,-4.25035c-2.65317,2.81956 -5.33998,5.60107 -8.15872,8.23622c5.31652,4.57757 11.06447,8.61077 16.12429,13.52194c5.73171,-0.65615 11.43201,-1.85804 17.04191,-3.30137c-0.4,-3.98722 -0.87562,-7.96817 -0.97253,-11.99453c-0.00258,-0.10724 -0.00473,-0.21446 -0.00641,-0.32171zM314.8241,385.22023c2.24757,-2.08197 4.4085,-4.26044 6.53265,-6.48028c-5.36028,-1.07349 -10.39132,-2.47948 -15.59671,-4.49172c-0.37607,-0.11006 -2.83059,-0.82804 -4.79525,-1.40377c2.13044,1.51688 4.18889,3.14024 6.18063,4.8327c2.76206,2.34701 5.08635,5.0515 7.67867,7.54306zM354.25318,386.64132c0.11759,3.51682 0.53278,7.00368 0.89077,10.49243c1.23483,-0.34246 2.46448,-0.69318 3.68835,-1.04883c3.3863,-0.98404 6.81669,-2.50747 9.91824,-4.18655c0.72422,-0.39207 1.31255,-1.00771 1.95464,-1.53001c-1.50594,-0.14968 -3.42178,-0.94711 -4.45326,-1.01585c-3.9398,-1.15168 -7.96032,-1.9766 -11.99877,-2.71119z" fill="#ffdf00"/></g></g></g><g><path d="M51.64681,150.89624c-4.47981,-17.43746 -36.57469,-26.83897 -22.28661,-62.83699c14.85129,-37.41705 50.92199,-53.5678 79.34399,-60.86961c30.45814,-7.82491 57.47867,-14.90169 97.80187,17.88202c27.3659,22.24912 7.85517,47.58369 11.81684,63.00432c11.7124,45.59006 -16.10452,92.13375 -62.13085,103.95823c-46.02633,11.82448 -92.83282,-15.54793 -104.54522,-61.13799z" fill="#191919" stroke="none" stroke-width="0"/><g><path d="M78.49556,88.86331c-2.19942,2.55146 -3.47335,9.56589 -3.52293,12.89275c1.04417,3.96738 -0.31405,9.61051 1.54431,13.12598c2.011,3.80421 5.6356,7.00689 8.01004,10.6209c2.15949,3.28679 4.36822,6.42003 6.83863,9.28378c-2.29541,-4.12033 -4.02676,-8.58716 -4.38407,-12.35922c-0.4809,-5.07671 0.75867,-10.30668 -1.39405,-15.20232c-2.98572,-6.78996 -8.44501,-7.52105 -6.74784,-16.11765c0.4125,-1.48797 0.99213,-2.74052 1.70891,-3.80598c-0.77697,0.38718 -1.47635,0.89283 -2.05295,1.56172zM99.14718,147.66156c-7.90505,-4.87074 -13.37727,-11.75046 -18.43035,-19.48983c-2.45203,-3.75552 -6.29639,-7.08278 -8.29224,-11.10033c-2.19265,-4.41364 -0.86371,-10.05502 -2.0608,-14.8183c0.08951,-4.62893 1.52705,-13.03491 4.62797,-16.59122c3.53487,-4.05395 9.17521,-4.09105 13.96528,-4.73906c8.96761,-1.21317 17.25151,-4.77135 25.00872,-9.01209c0.4975,-0.13094 0.99511,-0.26138 1.49281,-0.39142l-0.90707,-2.15568c0,0 0.14318,-2.3863 2.46012,-2.19836c1.44682,0.11736 1.93436,1.09194 2.09649,1.80739c0.62168,0.20367 1.24293,0.39184 1.86229,0.56901c0.55797,-0.43974 1.60746,-0.94131 2.83122,0.07395c0.02999,0.02487 0.05906,0.04981 0.08729,0.07486c0.44343,0.11761 0.91341,0.38259 1.24868,0.93908c0.38173,0.09515 0.76138,0.19001 1.13864,0.28565c-1.31803,-1.36275 -2.53737,-2.85224 -4.49899,-3.52519l-1.72944,-0.74547c0,0 -2.15279,-0.93289 -1.28427,-3.1373c0.86851,-2.20441 3.02129,-1.27151 3.02129,-1.27151l1.48793,0.64878c3.25671,1.25653 4.80902,4.47562 7.54873,5.81857c1.24061,0.60814 2.68912,-0.43824 4.02751,-0.69067c2.85317,-0.53812 7.42585,-1.62409 10.25745,-0.21849c4.1038,2.03711 5.82418,9.03131 9.48589,12.08479c7.50269,-1.43911 15.42506,3.2735 16.06802,11.82808c0.1597,2.12457 -1.11224,4.09877 -1.3395,6.21006c-0.47362,4.40035 4.67091,9.19631 6.21597,12.76322c2.08578,4.81528 0.83902,9.06107 -1.02106,13.27001c-0.03283,0.31355 -0.0683,0.63131 -0.10578,0.95352c0,0 -0.15272,1.298 -1.16555,1.84055c0.08161,0.26778 0.15861,0.53808 0.23082,0.81102c0,0 0.59686,2.32326 -1.64646,2.89959c-2.24332,0.57632 -2.8402,-1.74693 -2.8402,-1.74693c-2.07188,-8.38954 -9.02184,-12.02298 -15.17332,-16.71899c-1.40382,-1.07169 -3.69488,-3.97731 -4.44993,-5.55784c-0.69974,-1.46479 -0.40559,-4.98994 -2.22155,-5.84483c-2.62634,-1.23638 -7.79114,0.20955 -9.95487,-1.75137c-2.44611,-2.21683 -3.03624,-5.94734 -4.86706,-8.7223c-2.93645,-2.93344 -4.97292,-5.85756 -7.03761,-9.45807l-0.54932,-0.86649c0,0 -1.27567,-2.02179 0.66381,-3.30322c1.93947,-1.28144 3.2151,0.74036 3.2151,0.74036l0.65646,1.04455c1.95291,3.40564 3.82683,6.00836 6.5882,8.80337c1.63465,2.47424 2.11785,5.70922 4.0597,7.9371c0.8172,0.93757 7.80813,0.42812 9.44165,1.40847c4.07617,2.44629 2.96999,6.74762 5.60269,10.04111c1.81816,2.27452 4.4557,3.04235 6.70995,4.8658c3.21337,2.5993 6.23452,5.54555 8.5088,8.9925c0.07166,-2.49239 -0.44678,-4.67395 -2.84727,-6.76314c-1.75644,-1.52865 -4.13011,-2.3285 -5.58988,-4.15903c-2.98245,-3.73993 -2.25636,-12.49468 -7.17387,-14.76755c-6.17214,-2.85277 -12.38749,-3.95998 -16.77916,-9.79594c-2.3917,-5.74055 -6.37775,-7.76022 -11.00553,-9.05966l-0.76316,0.19606c-2.87822,0.60611 -4.98724,3.40909 -7.25996,5.32958c-4.16794,3.52199 -8.65222,6.49195 -12.03064,10.86496c-2.37764,3.7148 0.70615,10.99416 0.72644,15.2761c0.01741,3.67924 -2.49603,5.74821 -4.02195,8.69019c-1.68257,3.24404 -2.80054,7.86813 -3.09551,11.48037c-0.55347,6.77795 3.80289,12.51952 5.43129,18.81921c0,0 0.59686,2.32326 -1.64646,2.89959c-1.79153,0.46026 -2.533,-0.92875 -2.75898,-1.5069c-1.06555,0.54948 -2.2195,-0.16029 -2.2195,-0.16029zM95.10986,85.0208c-4.56298,1.17226 -10.52678,1.92382 -11.75122,7.26299c-1.29974,6.3255 3.99452,7.59167 6.4663,13.05936c2.43461,5.38547 1.26441,10.97055 1.76197,16.55867c0.33498,3.76236 2.49357,8.70418 5.11864,12.86975c-0.72709,-2.45213 -1.16838,-5.0031 -0.9751,-7.8064c0.28663,-4.15701 1.6857,-9.41785 3.5903,-13.12257c0.95289,-1.85352 3.64326,-4.15455 3.49544,-6.56591c-0.37433,-6.10712 -2.88396,-12.32144 0.07414,-17.86841c1.78536,-2.30102 4.32973,-5.17093 7.20191,-7.95783c-4.79805,1.44443 -9.86143,2.25472 -14.98242,3.57034zM141.78883,82.46793c3.63986,4.87097 9.99419,5.30985 14.94556,7.96316c5.03639,2.69885 5.77001,8.91357 7.48988,13.69126c1.07035,2.97339 2.98571,3.44913 5.04704,4.95687c-1.15049,-1.7265 -2.37228,-3.42984 -3.08449,-5.25836c-2.789,-7.16046 3.24672,-19.30426 -9.01913,-19.65374c-1.21342,-0.03457 -2.41161,0.2387 -3.61742,0.35806c-3.66984,-2.49659 -5.45192,-4.47126 -7.89946,-8.22662c-0.88691,-1.36082 -1.01473,-3.59351 -2.49113,-4.19292c-2.9018,-1.17811 -6.35782,0.58488 -9.58171,1.26089c3.40324,1.67052 6.27633,4.2764 8.21086,9.1014z" fill="#000000" stroke="none" stroke-width="0.5"/><path d="M107.2128,-4.53163l38.18582,148.63677l-15.67935,4.02813l-38.1385,-148.45259z" fill="url(#color-50)" stroke="none" stroke-width="0"/><path d="M162.56773,78.19132l14.82225,57.69502l-8.49027,2.18121l-14.80388,-57.62352z" fill="url(#color-51)" stroke="none" stroke-width="0"/><path d="M93.19319,96.01412l14.82225,57.69502l-8.49027,2.18121l-14.80388,-57.62352z" fill="url(#color-52)" stroke="none" stroke-width="0"/><path d="M180.34868,111.84339l7.08756,27.58804l-97.25167,24.98463l-7.08756,-27.58804z" fill="url(#color-53)" stroke="none" stroke-width="0"/><path d="M198.99649,119.08715l2.08776,8.1265l-127.26735,32.69587l-2.08776,-8.1265z" fill="url(#color-54)" stroke="none" stroke-width="0"/><g stroke="none" stroke-width="0"><path d="M106.1906,56.37581l1.32737,5.16674l-6.35906,1.63369l-1.32737,-5.16674z" fill="url(#color-55)"/><path d="M113.80084,54.4706l1.32737,5.16674l-6.35908,1.63369l-1.32737,-5.16674z" fill="url(#color-56)"/><path d="M121.35223,52.53059l1.32737,5.16674l-6.35906,1.63369l-1.32737,-5.16674z" fill="url(#color-57)"/><path d="M128.96248,50.62539l1.32737,5.16674l-6.35906,1.63369l-1.32737,-5.16674z" fill="url(#color-58)"/><path d="M134.83208,52.01079l1.97294,7.6796l-38.94291,10.00471l-1.97294,-7.6796z" fill="url(#color-59)"/></g><g data-paper-data="{&quot;index&quot;:null}" stroke="none" stroke-width="0"><path d="M99.47047,56.40979l-1.32737,-5.16674l6.35906,-1.63369l1.32737,5.16674z" fill="url(#color-60)"/><path d="M107.05667,54.41092l-1.32737,-5.16674l6.35906,-1.63369l1.32737,5.16674z" fill="url(#color-61)"/><path d="M114.60805,52.47092l-1.32737,-5.16674l6.35906,-1.63369l1.32737,5.16674z" fill="url(#color-62)"/><path d="M122.19424,50.47204l-1.32737,-5.16674l6.35906,-1.63369l1.32737,5.16674z" fill="url(#color-63)"/><path d="M94.0854,54.80006l-1.97294,-7.6796l38.94291,-10.00471l1.97294,7.6796z" fill="url(#color-64)"/></g><g stroke-width="0"><g><path d="M146.0762,136.64228c-3.58649,-13.96028 4.76655,-28.17022 18.65702,-31.73878c13.89047,-3.56856 28.05837,4.85559 31.64487,18.81588c3.58649,13.96028 -4.76655,28.17022 -18.65702,31.73878c-13.89047,3.56856 -28.05837,-4.85559 -31.64487,-18.81588z" fill="url(#color-65)" stroke="#000000"/><path d="M162.67562,132.25048c-1.33283,-5.18799 1.50565,-10.40049 6.3399,-11.64244c4.83426,-1.24195 9.83366,1.95694 11.16649,7.14493c1.33283,5.18799 -1.50563,10.40047 -6.33989,11.64242c-4.83426,1.24195 -9.83368,-1.95692 -11.16651,-7.14491z" fill="#000000" stroke="none"/></g><path d="M156.48665,138.83953c-1.33283,-5.18799 1.50565,-10.40049 6.3399,-11.64244c4.83426,-1.24195 9.83366,1.95694 11.16649,7.14493c1.33283,5.18799 -1.50563,10.40047 -6.33989,11.64242c-4.83426,1.24195 -9.83368,-1.95692 -11.16651,-7.14491z" fill="url(#color-66)" stroke="none"/></g><g stroke-width="0"><g><path d="M76.99361,154.10718c-3.58649,-13.96028 4.76655,-28.17022 18.65702,-31.73878c13.89047,-3.56856 28.05837,4.85559 31.64487,18.81588c3.58649,13.96028 -4.76655,28.17022 -18.65702,31.73878c-13.89047,3.56856 -28.05837,-4.85559 -31.64487,-18.81588z" fill="url(#color-67)" stroke="#000000"/><path d="M93.59302,149.71535c-1.33283,-5.18799 1.50565,-10.40049 6.33989,-11.64244c4.83426,-1.24195 9.83366,1.95694 11.16649,7.14493c1.33283,5.18799 -1.50563,10.40047 -6.33989,11.64242c-4.83426,1.24195 -9.83366,-1.95692 -11.16649,-7.14491z" fill="#000000" stroke="none"/></g><path d="M87.83102,156.47764c-1.33283,-5.18799 1.50565,-10.40049 6.3399,-11.64244c4.83426,-1.24195 9.83366,1.95694 11.16649,7.14493c1.33283,5.18799 -1.50563,10.40047 -6.33989,11.64242c-4.83426,1.24195 -9.83368,-1.95692 -11.16651,-7.14491z" fill="url(#color-68)" stroke="none"/></g><path d="M162.47538,77.83186l1.98614,7.73097l-77.86481,20.00401l-1.98368,-7.72138z" fill="url(#color-69)" stroke="none" stroke-width="0"/></g><g data-paper-data="{&quot;index&quot;:null}" stroke="none" stroke-width="0"><path d="M-28.66928,199.65754c0,0 -2.22395,-15.15505 1.1288,-21.55084c3.76414,-7.18056 8.98657,-15.34755 14.1973,-17.66495c6.49269,-2.88755 14.04361,-3.65054 21.22765,1.76543c4.05453,3.05668 13.84054,9.97422 20.39866,18.65681c8.91857,11.80769 14.84741,25.35608 19.91655,22.76435c25.4303,-13.002 70.00041,-0.43981 68.97767,6.84297c-0.85639,6.09815 -10.2208,27.044 -23.92006,36.8792c-56.93648,53.17478 -64.67813,-15.48661 -80.72116,-37.39437c-4.98639,-6.80922 -10.43355,-11.89797 -16.10947,-16.83916c-3.76047,-3.27371 -9.13846,-4.43394 -14.27606,-4.6378c-7.90434,-0.31363 -10.81988,11.17836 -10.81988,11.17836z" fill="url(#color-70)"/><path d="M123.03034,230.58903l-10.99995,15.94028l-69.73871,-48.1248l10.99996,-15.94027z" fill="url(#color-71)"/></g><g stroke="none" stroke-width="0"><path d="M284.451,119.1215c-2.5914,7.06514 -4.91127,14.1493 -5.99813,22.51876c-3.49686,26.92769 22.81499,90.81826 -52.70137,71.67153c-16.74345,-2.01423 -35.0442,-15.85273 -38.73386,-20.78297c-4.4064,-5.88799 28.58963,-38.37746 57.13788,-39.24293c5.69065,-0.17251 4.35496,-14.90093 6.47785,-29.54525c1.56102,-10.76845 6.80098,-21.54629 8.88012,-26.17873c3.68394,-8.20805 10.6676,-11.17908 17.7481,-11.77858c5.68245,-0.48113 14.19471,4.15732 20.95378,8.63439c0.97545,0.64613 1.93344,1.56427 2.85406,2.64935c-1.77932,-0.57521 -3.49386,-1.21942 -5.73781,-0.68565c-2.83021,0.7271 -3.59504,1.66146 -2.10541,3.69606c-0.26768,0.75035 -0.26926,2.04368 -0.29806,2.39027c-0.06671,0.8023 -4.51251,1.37369 -4.70724,3.85055c-0.15712,1.9985 2.71901,2.23412 5.37765,2.56234c-3.97183,2.57766 -7.57781,5.96114 -9.14753,10.2408z" fill="url(#color-72)"/><path d="M229.49298,137.19689l17.32107,8.6644l-37.90679,75.77966l-17.32107,-8.66442z" fill="url(#color-73)"/></g><path d="M51.75016,151.29855c-4.47981,-17.43746 -36.57469,-26.83897 -22.28663,-62.83699c14.85129,-37.41705 50.92199,-53.5678 79.34399,-60.86961c30.45814,-7.82491 57.47867,-14.90169 97.80187,17.88202c27.3659,22.24912 7.85517,47.58369 11.81684,63.00432c11.7124,45.59006 -16.10452,92.13375 -62.13085,103.95823c-46.02633,11.82448 -92.83282,-15.54793 -104.54522,-61.13799zM93.95916,120.32621c-15.39721,3.95565 -24.67243,19.64425 -20.71678,35.04146c3.95565,15.39721 19.64425,24.67243 35.04146,20.71678c15.39721,-3.95565 24.67243,-19.64425 20.71678,-35.04146c-3.95565,-15.39721 -19.64425,-24.67243 -35.04146,-20.71678zM164.09441,102.76315c-15.39721,3.95565 -24.67243,19.64425 -20.71678,35.04146c3.95565,15.39721 19.64425,24.67243 35.04146,20.71678c15.39721,-3.95565 24.67243,-19.64425 20.71678,-35.04146c-3.95565,-15.39721 -19.64425,-24.67243 -35.04146,-20.71678zM111.27335,40.66836c-34.46068,8.16796 -49.07423,34.85642 -46.43714,45.12121c2.6371,10.2648 19.36646,-13.17212 51.36992,-21.32824c41.18638,-10.49641 58.30775,4.23945 55.67064,-6.02539c-2.6371,-10.2648 -26.67511,-25.80938 -60.60344,-17.7676z" fill="url(#color-74)" stroke="none" stroke-width="0"/><path d="M129.09355,141.01911c3.95565,15.39721 -5.38863,31.20262 -20.78584,35.15827c-15.39721,3.95565 -31.20262,-5.38863 -35.15827,-20.78584c-3.95565,-15.39721 5.38863,-31.20262 20.78584,-35.15827c15.39721,-3.95565 31.20262,5.38863 35.15827,20.78584z" data-paper-data="{&quot;noHover&quot;:false,&quot;origItem&quot;:[&quot;Path&quot;,{&quot;applyMatrix&quot;:true,&quot;selected&quot;:true,&quot;segments&quot;:[[[107.47267,120.32621],[15.39721,-3.95565],[-15.39721,3.95565],7],[[86.75589,155.36767],[-3.95565,-15.39721],[3.95565,15.39721],7],[[121.79735,176.08445],[-15.39721,3.95565],[15.39721,-3.95565],7],[[142.51413,141.04299],[3.95565,15.39721],[-3.95565,-15.39721],7]],&quot;closed&quot;:true,&quot;fillColor&quot;:[0,0,0,1]}]}" fill="#000000" stroke="none" stroke-width="0.5"/><path d="M199.2288,123.45606c3.95565,15.39721 -5.38863,31.20262 -20.78584,35.15827c-15.39721,3.95565 -31.20262,-5.38863 -35.15827,-20.78584c-3.95565,-15.39721 5.38863,-31.20262 20.78584,-35.15827c15.39721,-3.95565 31.20262,5.38863 35.15827,20.78584z" data-paper-data="{&quot;noHover&quot;:false,&quot;origItem&quot;:[&quot;Path&quot;,{&quot;applyMatrix&quot;:true,&quot;selected&quot;:true,&quot;segments&quot;:[[[177.60792,102.76315],[15.39721,-3.95565],[-15.39721,3.95565],7],[[156.89114,137.80461],[-3.95565,-15.39721],[3.95565,15.39721],7],[[191.9326,158.52139],[-15.39721,3.95565],[15.39721,-3.95565],7],[[212.64938,123.47993],[3.95565,15.39721],[-3.95565,-15.39721],7]],&quot;closed&quot;:true,&quot;fillColor&quot;:[0,0,0,1]}]}" fill="#000000" stroke="none" stroke-width="0.5"/><path d="M54.24365,188.69177c-8.24747,-17.77707 -16.31227,-29.4925 -2.63703,-46.70825c14.94575,-18.81518 -5.00437,83.29945 100.45698,55.74782c107.32231,-27.06833 41.4641,-106.65126 64.06169,-96.05915c18.48006,8.66211 17.70924,23.13777 16.94288,41.57363c-1.86253,44.80647 -18.21851,62.04101 -74.36703,76.46595c-56.14851,14.42494 -86.69813,7.25948 -104.45752,-31.02002z" fill="url(#color-75)" stroke="none" stroke-width="0"/><path d="M119.02416,-143.52261c0,0 16.89027,71.80396 28.22881,97.99215c7.73882,17.87406 31.6592,37.84416 31.6592,37.84416c0,0 -47.87867,28.42433 -73.83913,34.89487c-25.45203,6.34383 -80.42848,3.5557 -80.42848,3.5557c0,0 14.91551,-26.44712 13.43776,-44.70859c-2.29102,-28.31134 -24.27859,-102.54642 -24.27859,-102.54642z" fill="#191919" stroke="none" stroke-width="0"/><g stroke="none"><path d="M99.98052,-9.10615c-0.59609,0.66431 -1.21756,0.85963 -1.763,0.843l0.53347,2.01034c0,0 0.59686,2.32326 -1.7264,2.92012c-2.32326,0.59686 -2.92012,-1.7264 -2.92012,-1.7264l-0.54119,-2.19971c-0.4874,-0.8323 -0.96595,-1.79591 -1.39173,-2.83509l-0.739,-1.26195c-0.72214,-1.23424 -1.34767,-2.49293 -1.901,-3.76945c-5.90423,-7.20305 -7.69771,-18.29601 -9.91333,-26.94126c-0.03994,-0.24911 -0.07912,-0.49814 -0.1176,-0.7471c-4.23154,-5.6275 -9.61775,-10.68631 -11.81716,-17.37863c-2.15664,-6.56218 0.89724,-13.32458 -1.5956,-19.70889c-0.97632,-2.50044 -9.9861,-11.13958 -12.01944,-8.27455c-1.70031,2.95095 -4.50406,6.43493 -4.49957,10.06166c0.00424,3.41743 3.17972,6.5026 4.38798,9.457c0.62981,1.54004 1.61831,7.25587 1.66625,8.1126c0.27829,4.97173 -2.64129,9.41971 -3.96614,13.99922c-0.05579,0.19283 -0.10965,0.38466 -0.16162,0.57552c2.09846,5.25997 4.94355,10.19549 8.77,14.5114c3.98864,5.69763 10.6089,12.22184 9.80142,19.95311c-1.22991,11.77593 -13.393,15.48344 -21.82259,20.94961c-0.45298,0.29374 -0.89886,0.57727 -1.3403,0.84809c-0.22717,0.15772 -0.45495,0.31047 -0.68298,0.45805c-0.46165,0.29878 -0.94679,0.54756 -1.45114,0.75379c-2.87469,1.4755 -5.74951,2.21815 -9.41009,1.51005c0,0 -0.83515,-0.17992 -1.40126,-0.82341c-1.75328,-0.10536 -3.44099,-0.1706 -4.94787,0.00887c0,0 -2.38433,0.2623 -2.64662,-2.12201c-0.2623,-2.38433 2.12201,-2.64662 2.12201,-2.64662c3.55191,-0.36544 10.59467,1.42451 14.32699,-0.25178c0.3221,-0.18031 0.64302,-0.37196 0.96476,-0.5711c4.52085,-3.32454 9.99154,-9.20675 9.20852,-15.16846c-0.65367,-4.97699 -3.91327,-9.33213 -5.17275,-14.11115c-2.01992,-7.86245 -3.10365,-14.62112 -1.45608,-22.42808c-7.29046,-17.54334 -6.75299,-38.27519 5.72274,-53.1269c6.80601,-6.52894 13.96248,2.74972 19.22962,7.6186c11.96152,11.05708 10.59907,30.82859 12.7606,45.96803c0.50004,0.67498 0.97751,1.35644 1.42323,2.04754c3.34079,6.62248 4.31879,13.84066 6.5668,20.75879c0.77168,-0.84611 1.68399,-1.62106 1.90596,-2.70173c0.424,-2.06435 -0.98875,-5.25479 -1.24884,-6.851c-0.72134,-4.42692 0.59129,-8.36211 -0.57609,-12.636c-1.17687,-4.58093 -5.76183,-13.89223 -3.53183,-18.55009c0.63326,-1.32269 1.64191,-2.21935 2.88223,-2.77779c2.22006,-2.94115 5.95946,-4.92886 5.52035,-9.05458c-0.66718,-6.26852 -6.87316,-6.13837 -9.82722,-10.39652c-3.36071,-4.84434 -2.94525,-11.38793 1.13123,-15.2913c7.67141,-9.17302 22.88701,-9.98195 28.0403,2.83355c1.86324,4.63359 -2.16287,14.12775 0.96287,17.84864c3.16476,3.76735 8.59941,6.09764 12.06718,10.09024c5.97229,6.23375 5.57679,14.98586 8.76491,22.66033c2.53732,6.10785 6.50422,11.48833 10.27361,16.73485c2.2612,3.14729 4.54404,8.07883 8.91265,7.62941c0.58606,-0.54989 1.19063,-1.11916 1.85948,-1.70161c0,0 1.81106,-1.57283 3.3839,0.23823c1.57283,1.81106 -0.23821,3.3839 -0.23821,3.3839c-0.19525,0.16908 -0.39439,0.3382 -0.59715,0.50711c-0.1879,1.48874 -1.80671,1.90463 -1.80671,1.90463c-0.30267,0.06466 -0.59875,0.11937 -0.88851,0.16439c-8.6699,6.12881 -21.3988,10.3343 -27.69505,-2.06392c-3.23008,-6.36051 -1.2422,-11.85034 -8.16967,-15.98918c-6.52162,-1.76629 -11.41816,-5.44445 -13.96732,-11.87167c-1.39039,-3.50564 -1.26139,-7.35292 -4.1884,-10.19417c-1.35426,-1.31459 -2.62763,-1.69774 -4.41079,-2.29043c-0.41219,-0.13699 -3.79921,-0.72403 -5.89175,-0.84108c-0.3116,5.59964 3.80236,12.37748 6.17746,17.06542c2.02632,5.51297 6.2159,12.52782 6.25407,18.51372c0.02697,4.23071 -2.17213,9.78435 -3.93114,13.52175l0.00327,0.28759c0,0 -0.49485,2.29709 -2.77851,1.8544c-0.10541,0.22788 -0.25869,0.46238 -0.472,0.70011zM74.84383,-74.06423c-0.99313,-3.8657 -1.63472,-8.03668 -4.47591,-11.09687c-3.09298,-3.3314 -6.8192,-6.08612 -10.42988,-8.80396c-2.0914,-1.57425 -2.76507,-3.5682 -4.23615,-1.11522c-0.5737,0.6818 -1.1239,1.38856 -1.65439,2.11418c5.46675,-1.08899 10.97284,3.81393 14.7265,8.27347c5.7032,6.7757 0.98912,15.49192 3.4728,23.02022c1.20581,3.65498 3.5498,6.88278 6.10141,10.00763c-0.85934,-7.49262 -1.58897,-14.94372 -3.5044,-22.39945zM46.62493,-67.04369c0.47893,4.6543 1.26619,9.34412 2.49598,13.90074c1.00015,-2.37275 1.88136,-4.80722 1.70748,-7.23986c-0.31922,-4.46597 -3.03224,-8.13697 -4.71711,-12.05062c0.11891,1.91217 0.347,3.77026 0.51366,5.38976zM65.2821,-11.85525c0.70664,-6.27375 -5.62666,-12.11004 -8.79885,-16.65157c-2.29229,-2.68607 -4.35761,-5.59525 -6.16858,-8.6672c0.02492,4.35513 0.92247,8.54959 2.1452,13.30902c1.2373,4.97686 4.6225,9.41286 5.27525,14.62529c0.3762,3.00399 -0.3131,6.06235 -1.66766,8.92114c4.60436,-2.74469 8.60917,-6.16132 9.21461,-11.53669zM97.62158,-14.42998l1.12086,0.99767l0.15156,-0.57357c1.46836,-3.06153 3.49161,-7.8877 3.46843,-11.36993c-0.03051,-4.58072 -3.11224,-10.17552 -5.07426,-14.74423c-0.02707,2.62 -0.30701,5.17946 0.17078,8.00392c0.58937,3.48398 1.96001,5.08519 1.19188,8.61544c-0.41465,1.90578 -2.4262,3.12457 -3.12993,4.94357c-0.27189,0.70281 -0.30904,1.55816 -0.19335,2.47518c0.70837,0.61173 1.47105,1.16539 2.29403,1.65193zM144.58893,-27.04375c-3.96491,-5.53405 -8.16117,-11.26124 -10.83291,-17.69325c-2.87172,-6.91346 -2.50792,-15.86805 -7.90305,-21.33796c-3.40325,-3.91905 -9.52177,-6.48228 -12.36973,-10.45422c-4.03342,-5.62522 0.74539,-13.23861 -1.6169,-19.04005c-3.9121,-9.60755 -14.75804,-7.741 -20.09144,-1.19873c-7.39299,5.97009 3.70057,10.93097 6.72633,14.41207c1.08397,1.2471 3.16415,6.10758 3.28788,7.5097c0.20385,2.31014 -0.91647,5.89574 -2.28857,7.84086c-0.2958,0.41933 -0.68332,0.8009 -1.10971,1.16924c4.00325,0.69246 8.06138,2.63057 9.97706,4.47272c4.86171,4.67515 3.84215,11.93183 8.2314,16.80571c2.21661,2.46136 5.40315,3.4409 8.4581,4.28868c3.11898,1.83134 5.93592,3.82257 7.73269,7.13102c1.79105,3.29788 1.26617,7.77937 2.86273,11.14306c3.0928,6.51608 11.79127,6.09485 16.94278,3.35134c-3.25037,-1.60389 -5.50926,-4.9144 -8.00667,-8.4002z" fill="#303030" stroke-width="0.5"/><path d="M76.87431,-138.66422l34.99094,136.20081l-24.33602,6.25209l-34.99094,-136.20081z" fill="url(#color-76)" stroke-width="0"/><path d="M169.75841,-29.18087l2.85448,11.11096l-145.83132,37.46508l-2.85448,-11.11096z" fill="url(#color-77)" stroke-width="0"/><path d="M147.2578,-28.76482l5.44017,21.17566l-103.4158,26.56824l-5.44017,-21.17566z" fill="url(#color-78)" stroke-width="0"/></g><g data-paper-data="{&quot;index&quot;:null}" stroke="none" stroke-width="0"><path d="M-38.53355,-152.50386c-4.96663,7.38179 -8.38505,13.43915 -13.68225,10.21079c-5.06964,-3.08967 1.21738,-11.93427 6.18399,-19.31607c4.96661,-7.3818 15.37935,-13.77038 18.04841,-6.63205c0.42859,7.11012 -5.58354,8.35553 -10.55015,15.73733z" fill="url(#color-79)"/><path d="M-42.08776,-179.89761c3.60643,6.14257 -1.18712,9.97907 -2.266,18.81049c-1.07885,8.83143 -1.37855,15.78034 -7.56376,15.30534c-5.91951,-0.45456 -4.32722,-11.18857 -3.24834,-20.01999c1.07886,-8.83141 7.46203,-19.24748 13.0781,-14.09581z" fill="url(#color-80)"/><path d="M-53.79727,-166.10234c4.03252,7.93075 7.66125,13.86452 2.26338,16.92161c-5.16597,2.92577 -9.83402,-6.87032 -13.86654,-14.80108c-4.03252,-7.93075 -4.54748,-20.13623 2.98758,-18.99482c6.42027,3.08508 4.58306,8.94353 8.61558,16.87429z" fill="url(#color-81)"/><path d="M-39.32134,-144.17407c4.94804,9.73134 9.48421,16.96977 1.91079,21.20401c-7.24805,4.05235 -11.05961,-4.30489 -16.00766,-14.0362c-4.94804,-9.73134 -10.57478,-17.04274 -1.91079,-21.20401c7.98722,-3.83626 11.05961,4.30489 16.00766,14.0362z" fill="url(#color-82)"/><path d="M-35.41506,-146.82839c8.88608,-0.44251 13.05657,-4.9485 18.92461,-0.91072c4.73552,5.97115 -6.11162,11.59065 -14.99769,12.03318c-8.88607,0.44253 -19.70665,1.26069 -19.73542,-4.67617c-0.03005,-6.20338 6.92245,-6.00377 15.80852,-6.4463z" data-paper-data="{&quot;index&quot;:null}" fill="url(#color-83)"/></g><g data-paper-data="{&quot;index&quot;:null}" stroke="none" stroke-width="0"><path d="M131.12852,-209.11814c-1.10213,-7.54089 11.10051,-6.96235 19.01014,-2.88855c7.90963,4.0738 17.68124,8.79282 14.7286,13.94348c-3.08518,5.38185 -8.99995,1.72225 -16.9096,-2.35153c-7.90963,-4.0738 -13.77758,-2.26713 -16.82914,-8.70339z" fill="url(#color-84)"/><path d="M137.86795,-226.12946c2.43752,-7.22069 13.05082,-1.17113 18.25284,6.04668c5.20204,7.21781 11.77095,15.85515 6.80356,19.10663c-5.19035,3.39746 -8.80232,-2.54652 -14.00434,-9.76434c-5.20204,-7.21781 -11.25121,-8.26874 -11.05208,-15.38898z" fill="url(#color-85)"/><path d="M154.19208,-238.62394c6.05183,-4.63198 11.48369,6.31031 11.77315,15.20268c0.28946,8.89237 0.92118,19.72542 -5.01531,19.65196c-6.20297,-0.07675 -5.88366,-7.02479 -6.17313,-15.91717c-0.28946,-8.89237 -4.72296,-13.13983 -0.58471,-18.93747z" fill="url(#color-86)"/><path d="M159.92284,-213.50997c9.59687,-0.53007 8.19099,8.58806 8.54618,19.49933c0.35517,10.91126 1.04379,20.0708 -7.25998,20.01382c-8.67652,-0.05952 -8.19099,-8.58806 -8.54618,-19.49933c-0.35517,-10.91126 -1.58727,-19.52519 7.25998,-20.01382z" fill="url(#color-87)"/><path d="M147.96089,-193.93895c7.99901,-3.89537 13.99438,-7.42137 16.95808,-1.97167c2.83637,5.21557 -7.03866,9.71426 -15.03767,13.60962c-7.99901,3.89537 -20.21157,4.20006 -18.94055,-3.31421c3.19518,-6.36619 9.02114,-4.42836 17.02015,-8.32374z" data-paper-data="{&quot;index&quot;:null}" fill="url(#color-88)"/></g><g data-paper-data="{&quot;index&quot;:null}" stroke="none" stroke-width="0"><path d="M11.72634,-69.21133c4.7589,9.37044 1.17533,20.74594 -8.00418,25.40789c-9.1795,4.66194 -20.47881,0.84499 -25.23774,-8.52546c-4.75892,-9.37044 -1.17534,-20.74594 8.00416,-25.40788c9.17948,-4.66195 20.47881,-0.84499 25.23774,8.52546z" fill="url(#color-89)"/><path d="M-24.55531,-134.31797l37.7307,64.00146l-36.11861,18.3434l-29.79187,-68.16056z" fill="url(#color-90)"/></g><g data-paper-data="{&quot;index&quot;:null}" stroke="none" stroke-width="0"><path d="M144.06855,-103.21097c-0.34694,-10.50392 7.71342,-19.29452 18.00328,-19.63438c10.28987,-0.33987 18.9127,7.89972 19.25964,18.40362c0.34694,10.50392 -7.7134,19.2945 -18.00328,19.63438c-10.28987,0.33987 -18.9127,-7.89972 -19.25966,-18.40362z" fill="url(#color-91)"/><path d="M176.0031,-178.89811l6.75072,74.07999l-40.48761,1.33727l2.20975,-74.26244z" fill="url(#color-92)"/></g><g data-paper-data="{&quot;index&quot;:null}" stroke="none" stroke-width="0"><path d="M47.87313,3.68967c4.64201,9.42889 0.91722,20.75893 -8.31956,25.30634c-9.23678,4.54742 -20.48775,0.59019 -25.12976,-8.83873c-4.64201,-9.42892 -0.91721,-20.75895 8.31957,-25.30637c9.23678,-4.54742 20.48775,-0.59019 25.12976,8.83873z" fill="url(#color-93)"/><path d="M16.55895,-63.97447l32.77693,66.57703l-36.34398,17.89272l-32.77693,-66.57703z" fill="url(#color-94)"/></g><g data-paper-data="{&quot;index&quot;:null}" stroke="none" stroke-width="0"><path d="M147.53613,-21.91448c-0.47756,-10.49879 7.47282,-19.38898 17.75768,-19.85681c10.28486,-0.46783 19.00951,7.66386 19.48707,18.16265c0.47756,10.49879 -7.47282,19.38898 -17.75768,19.85681c-10.28486,0.46783 -19.00951,-7.66386 -19.48705,-18.16263z" fill="url(#color-95)"/><path d="M182.82636,-98.13402l3.37204,74.13135l-40.46784,1.84077l-3.37204,-74.13135z" fill="url(#color-96)"/></g><g stroke="none" stroke-width="0"><path d="M69.02994,-164.37748c-2.61244,-10.17977 3.35394,-20.50674 13.32628,-23.06595c9.97236,-2.5592 20.1743,3.61847 22.78675,13.79825c2.61244,10.17977 -3.35392,20.50674 -13.32628,23.06595c-9.97236,2.5592 -20.1743,-3.61847 -22.78674,-13.79823z" fill="url(#color-97)"/><path d="M88.00375,-246.19937l18.44633,71.87879l-39.2382,10.06973l-18.44631,-71.87878z" fill="url(#color-98)"/></g><g data-paper-data="{&quot;index&quot;:null}" stroke="none" stroke-width="0"><path d="M47.40681,-158.82232c2.61771,10.1784 -3.34328,20.50844 -13.31431,23.07284c-9.97103,2.56438 -20.17619,-3.608 -22.79391,-13.78642c-2.61772,-10.17842 3.34328,-20.50846 13.3143,-23.07286c9.97101,-2.56438 20.17619,3.608 22.79391,13.78642z" fill="url(#color-99)"/><path d="M30.57722,-231.45691l18.48355,71.86921l-39.23298,10.09006l-18.48354,-71.86923z" fill="url(#color-100)"/></g><path d="M118.54697,-143.71989c3.97985,15.49142 -100.5326,42.3414 -104.51245,26.84998c-3.97985,-15.49142 16.18973,-34.06027 45.05005,-41.47469c28.8603,-7.41441 55.48253,-0.86671 59.46238,14.62472z" fill="url(#color-101)" stroke="none" stroke-width="0"/><g><g><path d="M119.3573,-143.25745c0,0 16.63226,72.24038 27.9708,98.42855c7.73882,17.87406 31.46929,37.10491 31.46929,37.10491c0,0 -47.68876,29.16357 -73.64922,35.63411c-25.45203,6.34383 -80.61837,2.81646 -80.61837,2.81646c0,0 15.10542,-25.70788 13.62768,-43.96935c-2.29102,-28.31134 -24.71502,-102.80442 -24.71502,-102.80442l-56.23165,-40.86196c0,0 -11.52567,-20.47209 89.69107,-47.15347c97.69662,-23.80626 104.62793,-3.43129 104.62793,-3.43129z" fill="url(#color-102)" stroke="none" stroke-width="0"/><path d="" fill="#ffdf00" stroke="#ffdf00" stroke-width="2"/></g><g><path d="M122.73912,-131.01475l8.1361,32.07033l-105.05606,26.99487l-9.06729,-32.33488z" fill="url(#color-103)" stroke="none" stroke-width="0"/><path d="" fill="#ffdf00" stroke="#ffdf00" stroke-width="2"/></g></g></g><path d="M-7,368.5v-377h494v377z" fill="url(#color-104)" stroke="#000000" stroke-width="2"/><g stroke="#000000" stroke-width="2"><path d="M-7,368.5v-377h494v377z" fill="url(#color-105)"/><path d="M487,-8.5v377h-494v-377z" data-paper-data="{&quot;index&quot;:null}" fill="url(#color-106)"/></g></g></g></svg>