<svg version="1.1" xmlns="http://www.w3.org/2000/svg" xmlns:xlink="http://www.w3.org/1999/xlink" width="496" height="600.38728" viewBox="0,0,496,600.38728"><defs><linearGradient x1="84.98046" y1="344.0417" x2="106.09328" y2="351.36062" gradientUnits="userSpaceOnUse" id="color-1"><stop offset="0" stop-color="#0f0f0f"/><stop offset="1" stop-color="#737373"/></linearGradient><linearGradient x1="108.96767" y1="352.6734" x2="129.95178" y2="359.94771" gradientUnits="userSpaceOnUse" id="color-2"><stop offset="0" stop-color="#0f0f0f"/><stop offset="1" stop-color="#737373"/></linearGradient><linearGradient x1="61.12535" y1="410.75456" x2="82.10947" y2="418.02887" gradientUnits="userSpaceOnUse" id="color-3"><stop offset="0" stop-color="#0f0f0f"/><stop offset="1" stop-color="#737373"/></linearGradient><linearGradient x1="85.04462" y1="419.1709" x2="106.15747" y2="426.48983" gradientUnits="userSpaceOnUse" id="color-4"><stop offset="0" stop-color="#0f0f0f"/><stop offset="1" stop-color="#737373"/></linearGradient><linearGradient x1="113.42657" y1="390.96074" x2="122.79786" y2="394.20937" gradientUnits="userSpaceOnUse" id="color-5"><stop offset="0" stop-color="#595959"/><stop offset="1" stop-color="#afafaf"/></linearGradient><linearGradient x1="69.21561" y1="375.84997" x2="78.5869" y2="379.0986" gradientUnits="userSpaceOnUse" id="color-6"><stop offset="0" stop-color="#afafaf"/><stop offset="1" stop-color="#595959"/></linearGradient><linearGradient x1="89.05581" y1="382.70811" x2="102.23003" y2="387.27505" gradientUnits="userSpaceOnUse" id="color-7"><stop offset="0" stop-color="#afafaf"/><stop offset="1" stop-color="#595959"/></linearGradient><radialGradient cx="73.37814" cy="440.39371" r="14.35982" gradientUnits="userSpaceOnUse" id="color-8"><stop offset="0" stop-color="#656565"/><stop offset="1" stop-color="#404040"/></radialGradient><linearGradient x1="53.18786" y1="379.26913" x2="130.13765" y2="405.94438" gradientUnits="userSpaceOnUse" id="color-9"><stop offset="0" stop-color="#80cb83"/><stop offset="1" stop-color="#39853c"/></linearGradient><linearGradient x1="396.04846" y1="344.0417" x2="374.93564" y2="351.36062" gradientUnits="userSpaceOnUse" id="color-10"><stop offset="0" stop-color="#0f0f0f"/><stop offset="1" stop-color="#737373"/></linearGradient><linearGradient x1="372.06126" y1="352.6734" x2="351.07714" y2="359.94771" gradientUnits="userSpaceOnUse" id="color-11"><stop offset="0" stop-color="#0f0f0f"/><stop offset="1" stop-color="#737373"/></linearGradient><linearGradient x1="419.90357" y1="410.75456" x2="398.91945" y2="418.02887" gradientUnits="userSpaceOnUse" id="color-12"><stop offset="0" stop-color="#0f0f0f"/><stop offset="1" stop-color="#737373"/></linearGradient><linearGradient x1="395.9843" y1="419.1709" x2="374.87145" y2="426.48983" gradientUnits="userSpaceOnUse" id="color-13"><stop offset="0" stop-color="#0f0f0f"/><stop offset="1" stop-color="#737373"/></linearGradient><linearGradient x1="367.60235" y1="390.96074" x2="358.23106" y2="394.20937" gradientUnits="userSpaceOnUse" id="color-14"><stop offset="0" stop-color="#595959"/><stop offset="1" stop-color="#afafaf"/></linearGradient><linearGradient x1="411.81331" y1="375.84997" x2="402.44203" y2="379.0986" gradientUnits="userSpaceOnUse" id="color-15"><stop offset="0" stop-color="#afafaf"/><stop offset="1" stop-color="#595959"/></linearGradient><linearGradient x1="391.97311" y1="382.70811" x2="378.79889" y2="387.27505" gradientUnits="userSpaceOnUse" id="color-16"><stop offset="0" stop-color="#afafaf"/><stop offset="1" stop-color="#595959"/></linearGradient><radialGradient cx="407.65079" cy="440.39371" r="14.35982" gradientUnits="userSpaceOnUse" id="color-17"><stop offset="0" stop-color="#656565"/><stop offset="1" stop-color="#404040"/></radialGradient><linearGradient x1="427.84106" y1="379.26913" x2="350.89128" y2="405.94438" gradientUnits="userSpaceOnUse" id="color-18"><stop offset="0" stop-color="#80cb83"/><stop offset="1" stop-color="#39853c"/></linearGradient><linearGradient x1="228.99738" y1="246.68524" x2="244.0927" y2="246.68524" gradientUnits="userSpaceOnUse" id="color-19"><stop offset="0" stop-color="#afafaf"/><stop offset="1" stop-color="#595959"/></linearGradient><linearGradient x1="240.37509" y1="349.49622" x2="240.37509" y2="367.05758" gradientUnits="userSpaceOnUse" id="color-20"><stop offset="0" stop-color="#afafaf"/><stop offset="1" stop-color="#595959"/></linearGradient><linearGradient x1="162.36868" y1="343.3165" x2="162.36868" y2="373.31711" gradientUnits="userSpaceOnUse" id="color-21"><stop offset="0" stop-color="#7c7c7c"/><stop offset="1" stop-color="#111111"/></linearGradient><linearGradient x1="190.6066" y1="344.46102" x2="190.6066" y2="374.46164" gradientUnits="userSpaceOnUse" id="color-22"><stop offset="0" stop-color="#7c7c7c"/><stop offset="1" stop-color="#111111"/></linearGradient><linearGradient x1="289.20096" y1="343.63727" x2="289.20096" y2="373.63789" gradientUnits="userSpaceOnUse" id="color-23"><stop offset="0" stop-color="#7c7c7c"/><stop offset="1" stop-color="#111111"/></linearGradient><linearGradient x1="317.43888" y1="344.7818" x2="317.43888" y2="374.78241" gradientUnits="userSpaceOnUse" id="color-24"><stop offset="0" stop-color="#7c7c7c"/><stop offset="1" stop-color="#111111"/></linearGradient><linearGradient x1="240.37509" y1="395.65277" x2="240.37509" y2="413.21412" gradientUnits="userSpaceOnUse" id="color-25"><stop offset="0" stop-color="#afafaf"/><stop offset="1" stop-color="#595959"/></linearGradient><linearGradient x1="169.34345" y1="389.47304" x2="169.34345" y2="419.47366" gradientUnits="userSpaceOnUse" id="color-26"><stop offset="0" stop-color="#7c7c7c"/><stop offset="1" stop-color="#111111"/></linearGradient><linearGradient x1="195.05652" y1="390.61757" x2="195.05652" y2="420.61819" gradientUnits="userSpaceOnUse" id="color-27"><stop offset="0" stop-color="#7c7c7c"/><stop offset="1" stop-color="#111111"/></linearGradient><linearGradient x1="284.83531" y1="389.79381" x2="284.83531" y2="419.79443" gradientUnits="userSpaceOnUse" id="color-28"><stop offset="0" stop-color="#7c7c7c"/><stop offset="1" stop-color="#111111"/></linearGradient><linearGradient x1="310.54844" y1="390.93834" x2="310.54844" y2="420.93896" gradientUnits="userSpaceOnUse" id="color-29"><stop offset="0" stop-color="#7c7c7c"/><stop offset="1" stop-color="#111111"/></linearGradient><linearGradient x1="240.37509" y1="441.80935" x2="240.37509" y2="459.3707" gradientUnits="userSpaceOnUse" id="color-30"><stop offset="0" stop-color="#afafaf"/><stop offset="1" stop-color="#595959"/></linearGradient><linearGradient x1="178.0619" y1="435.62962" x2="178.0619" y2="465.6302" gradientUnits="userSpaceOnUse" id="color-31"><stop offset="0" stop-color="#7c7c7c"/><stop offset="1" stop-color="#111111"/></linearGradient><linearGradient x1="200.61896" y1="436.77415" x2="200.61896" y2="466.77476" gradientUnits="userSpaceOnUse" id="color-32"><stop offset="0" stop-color="#7c7c7c"/><stop offset="1" stop-color="#111111"/></linearGradient><linearGradient x1="279.37826" y1="435.95039" x2="279.37826" y2="465.95101" gradientUnits="userSpaceOnUse" id="color-33"><stop offset="0" stop-color="#7c7c7c"/><stop offset="1" stop-color="#111111"/></linearGradient><linearGradient x1="301.93528" y1="437.09492" x2="301.93528" y2="467.09554" gradientUnits="userSpaceOnUse" id="color-34"><stop offset="0" stop-color="#7c7c7c"/><stop offset="1" stop-color="#111111"/></linearGradient><linearGradient x1="218.08662" y1="422.25695" x2="258.1557" y2="422.25695" gradientUnits="userSpaceOnUse" id="color-35"><stop offset="0" stop-color="#afafaf"/><stop offset="1" stop-color="#595959"/></linearGradient><linearGradient x1="239.00831" y1="324.91251" x2="239.00831" y2="334.14384" gradientUnits="userSpaceOnUse" id="color-36"><stop offset="0" stop-color="#afafaf"/><stop offset="1" stop-color="#595959"/></linearGradient><radialGradient cx="365.16952" cy="325.9382" r="14.35982" gradientUnits="userSpaceOnUse" id="color-37"><stop offset="0" stop-color="#656565"/><stop offset="1" stop-color="#404040"/></radialGradient><linearGradient x1="237.84735" y1="318.87471" x2="237.84735" y2="341.44014" gradientUnits="userSpaceOnUse" id="color-38"><stop offset="0" stop-color="#595959"/><stop offset="1" stop-color="#393939"/></linearGradient><radialGradient cx="119.00125" cy="325.9382" r="14.35982" gradientUnits="userSpaceOnUse" id="color-39"><stop offset="0" stop-color="#656565"/><stop offset="1" stop-color="#404040"/></radialGradient><linearGradient x1="217.35679" y1="541.98866" x2="258.95584" y2="541.98866" gradientUnits="userSpaceOnUse" id="color-40"><stop offset="0" stop-color="#595959"/><stop offset="1" stop-color="#393939"/></linearGradient><linearGradient x1="214.20442" y1="527.80302" x2="262.10819" y2="527.80302" gradientUnits="userSpaceOnUse" id="color-41"><stop offset="0" stop-color="#393939"/><stop offset="1" stop-color="#151515"/></linearGradient><linearGradient x1="214.20442" y1="544.35293" x2="262.10819" y2="544.35293" gradientUnits="userSpaceOnUse" id="color-42"><stop offset="0" stop-color="#393939"/><stop offset="1" stop-color="#151515"/></linearGradient><radialGradient cx="125.43592" cy="307.08788" r="34.79081" gradientUnits="userSpaceOnUse" id="color-43"><stop offset="0" stop-color="#80cb83"/><stop offset="1" stop-color="#39853c"/></radialGradient><radialGradient cx="353.3109" cy="307.08788" r="34.79081" gradientUnits="userSpaceOnUse" id="color-44"><stop offset="0" stop-color="#80cb83"/><stop offset="1" stop-color="#39853c"/></radialGradient><linearGradient x1="238.77708" y1="274.06664" x2="238.77708" y2="565.36331" gradientUnits="userSpaceOnUse" id="color-45"><stop offset="0" stop-color="#80cb83"/><stop offset="1" stop-color="#39853c"/></linearGradient><radialGradient cx="256.82593" cy="367.55454" r="123.05146" gradientUnits="userSpaceOnUse" id="color-46"><stop offset="0" stop-color="#bef3c0"/><stop offset="1" stop-color="#9ecba0"/></radialGradient><radialGradient cx="232.10056" cy="330.09263" r="32.68804" gradientUnits="userSpaceOnUse" id="color-47"><stop offset="0" stop-color="#650000"/><stop offset="1" stop-color="#900000"/></radialGradient><radialGradient cx="246.6332" cy="330.09263" r="32.68804" gradientUnits="userSpaceOnUse" id="color-48"><stop offset="0" stop-color="#650000"/><stop offset="1" stop-color="#900000"/></radialGradient><radialGradient cx="240.0816" cy="329.39948" r="19.28364" gradientUnits="userSpaceOnUse" id="color-49"><stop offset="0" stop-color="#c20000"/><stop offset="1" stop-color="#900000"/></radialGradient><linearGradient x1="224.45495" y1="376.73712" x2="254.14841" y2="376.73712" gradientUnits="userSpaceOnUse" id="color-50"><stop offset="0" stop-color="#383838"/><stop offset="1" stop-color="#0a0a0a"/></linearGradient><linearGradient x1="224.45495" y1="376.73712" x2="254.14841" y2="376.73712" gradientUnits="userSpaceOnUse" id="color-51"><stop offset="0" stop-color="#0a0a0a"/><stop offset="1" stop-color="#383838"/></linearGradient><linearGradient x1="224.45495" y1="422.74612" x2="254.14841" y2="422.74612" gradientUnits="userSpaceOnUse" id="color-52"><stop offset="0" stop-color="#383838"/><stop offset="1" stop-color="#0a0a0a"/></linearGradient><linearGradient x1="224.45495" y1="422.74612" x2="254.14841" y2="422.74612" gradientUnits="userSpaceOnUse" id="color-53"><stop offset="0" stop-color="#0a0a0a"/><stop offset="1" stop-color="#383838"/></linearGradient><linearGradient x1="238.03861" y1="188.24453" x2="238.03861" y2="306.66814" gradientUnits="userSpaceOnUse" id="color-54"><stop offset="0" stop-color="#80cb83"/><stop offset="1" stop-color="#39853c"/></linearGradient><linearGradient x1="238.03861" y1="255.6037" x2="238.03861" y2="325.71922" gradientUnits="userSpaceOnUse" id="color-55"><stop offset="0" stop-color="#80cb83"/><stop offset="1" stop-color="#39853c"/></linearGradient><linearGradient x1="237.58196" y1="188.55319" x2="237.58196" y2="298.64114" gradientUnits="userSpaceOnUse" id="color-56"><stop offset="0" stop-color="#330000"/><stop offset="1" stop-color="#9c0000"/></linearGradient><linearGradient x1="237.20247" y1="212.20381" x2="237.20247" y2="215.24576" gradientUnits="userSpaceOnUse" id="color-57"><stop offset="0" stop-color="#898989"/><stop offset="1" stop-color="#2e2e2e"/></linearGradient><linearGradient x1="237.14062" y1="222.37562" x2="237.14062" y2="243.4336" gradientUnits="userSpaceOnUse" id="color-58"><stop offset="0" stop-color="#8a8a8a"/><stop offset="1" stop-color="#0f0f0f"/></linearGradient><linearGradient x1="237.14062" y1="220.44755" x2="237.14062" y2="241.50553" gradientUnits="userSpaceOnUse" id="color-59"><stop offset="0" stop-color="#898989"/><stop offset="1" stop-color="#2e2e2e"/></linearGradient><linearGradient x1="237.2023" y1="83.76045" x2="237.2023" y2="91.46247" gradientUnits="userSpaceOnUse" id="color-60"><stop offset="0" stop-color="#afafaf"/><stop offset="1" stop-color="#7a7a7a"/></linearGradient><linearGradient x1="168.51095" y1="77.26795" x2="168.51095" y2="162.28951" gradientUnits="userSpaceOnUse" id="color-61"><stop offset="0" stop-color="#afafaf"/><stop offset="1" stop-color="#7a7a7a"/></linearGradient><linearGradient x1="305.66875" y1="77.26795" x2="305.66875" y2="162.28951" gradientUnits="userSpaceOnUse" id="color-62"><stop offset="0" stop-color="#afafaf"/><stop offset="1" stop-color="#7a7a7a"/></linearGradient><linearGradient x1="237.48865" y1="131.21734" x2="237.48865" y2="197.44685" gradientUnits="userSpaceOnUse" id="color-63"><stop offset="0" stop-color="#424242"/><stop offset="1" stop-color="#000000"/></linearGradient><linearGradient x1="236.68962" y1="112.13367" x2="236.68962" y2="122.14834" gradientUnits="userSpaceOnUse" id="color-64"><stop offset="0" stop-color="#b8b8b8"/><stop offset="1" stop-color="#313131"/></linearGradient><radialGradient cx="196.16356" cy="117.29049" r="33.3766" gradientUnits="userSpaceOnUse" id="color-65"><stop offset="0" stop-color="#ffffff"/><stop offset="1" stop-color="#cccccc"/></radialGradient><radialGradient cx="277.24403" cy="117.29049" r="33.3766" gradientUnits="userSpaceOnUse" id="color-66"><stop offset="0" stop-color="#ffffff"/><stop offset="1" stop-color="#cccccc"/></radialGradient><linearGradient x1="236.84697" y1="79.82178" x2="236.39784" y2="166.5527" gradientUnits="userSpaceOnUse" id="color-67"><stop offset="0" stop-color="#9d9d9d"/><stop offset="1" stop-color="#6e6e6e"/></linearGradient><linearGradient x1="254.75586" y1="163.57291" x2="254.75586" y2="217.14209" gradientUnits="userSpaceOnUse" id="color-68"><stop offset="0" stop-color="#afafaf"/><stop offset="1" stop-color="#595959"/></linearGradient><linearGradient x1="219.81942" y1="163.57291" x2="219.81942" y2="217.14209" gradientUnits="userSpaceOnUse" id="color-69"><stop offset="0" stop-color="#afafaf"/><stop offset="1" stop-color="#595959"/></linearGradient><linearGradient x1="320.03234" y1="112.21334" x2="319.4289" y2="169.53654" gradientUnits="userSpaceOnUse" id="color-70"><stop offset="0" stop-color="#afafaf"/><stop offset="1" stop-color="#595959"/></linearGradient><linearGradient x1="141.97256" y1="53.81464" x2="145.97649" y2="49.84637" gradientUnits="userSpaceOnUse" id="color-71"><stop offset="0" stop-color="#d3d3d3"/><stop offset="1" stop-color="#868686"/></linearGradient><linearGradient x1="76.65512" y1="-17.11167" x2="138.01807" y2="44.80318" gradientUnits="userSpaceOnUse" id="color-72"><stop offset="0" stop-color="#80cb83"/><stop offset="1" stop-color="#39853c"/></linearGradient><radialGradient cx="110.99717" cy="18.51252" r="38.99749" gradientUnits="userSpaceOnUse" id="color-73"><stop offset="0" stop-color="#bef3c0"/><stop offset="1" stop-color="#7da17f"/></radialGradient><radialGradient cx="168.51095" cy="76.54499" r="5.34999" gradientUnits="userSpaceOnUse" id="color-74"><stop offset="0" stop-color="#a9a9a9"/><stop offset="1" stop-color="#5d5d5d"/></radialGradient><linearGradient x1="332.20721" y1="53.81464" x2="328.20328" y2="49.84637" gradientUnits="userSpaceOnUse" id="color-75"><stop offset="0" stop-color="#d3d3d3"/><stop offset="1" stop-color="#868686"/></linearGradient><linearGradient x1="397.52465" y1="-17.11167" x2="336.1617" y2="44.80318" gradientUnits="userSpaceOnUse" id="color-76"><stop offset="0" stop-color="#80cb83"/><stop offset="1" stop-color="#39853c"/></linearGradient><radialGradient cx="363.18259" cy="18.51252" r="38.99749" gradientUnits="userSpaceOnUse" id="color-77"><stop offset="0" stop-color="#bef3c0"/><stop offset="1" stop-color="#7da17f"/></radialGradient><radialGradient cx="305.66875" cy="76.54499" r="5.34999" gradientUnits="userSpaceOnUse" id="color-78"><stop offset="0" stop-color="#a9a9a9"/><stop offset="1" stop-color="#5d5d5d"/></radialGradient><linearGradient x1="236.62601" y1="29.12397" x2="236.62601" y2="203.80144" gradientUnits="userSpaceOnUse" id="color-79"><stop offset="0" stop-color="#80cb83"/><stop offset="1" stop-color="#39853c"/></linearGradient><linearGradient x1="110.72573" y1="147.14292" x2="101.72365" y2="187.75645" gradientUnits="userSpaceOnUse" id="color-80"><stop offset="0" stop-color="#bef3c0"/><stop offset="1" stop-color="#9ecba0"/></linearGradient><linearGradient x1="108.52734" y1="161.19111" x2="104.80813" y2="202.62377" gradientUnits="userSpaceOnUse" id="color-81"><stop offset="0" stop-color="#bef3c0"/><stop offset="1" stop-color="#9ecba0"/></linearGradient><linearGradient x1="102.661" y1="174.32826" x2="105.51788" y2="215.8293" gradientUnits="userSpaceOnUse" id="color-82"><stop offset="0" stop-color="#bef3c0"/><stop offset="1" stop-color="#9ecba0"/></linearGradient><linearGradient x1="104.52726" y1="188.42446" x2="112.68286" y2="229.21642" gradientUnits="userSpaceOnUse" id="color-83"><stop offset="0" stop-color="#bef3c0"/><stop offset="1" stop-color="#9ecba0"/></linearGradient><linearGradient x1="103.36953" y1="199.74131" x2="120.21895" y2="237.77546" gradientUnits="userSpaceOnUse" id="color-84"><stop offset="0" stop-color="#bef3c0"/><stop offset="1" stop-color="#9ecba0"/></linearGradient><linearGradient x1="358.71797" y1="147.14292" x2="367.72008" y2="187.75645" gradientUnits="userSpaceOnUse" id="color-85"><stop offset="0" stop-color="#bef3c0"/><stop offset="1" stop-color="#9ecba0"/></linearGradient><linearGradient x1="360.91637" y1="161.19111" x2="364.63551" y2="202.62377" gradientUnits="userSpaceOnUse" id="color-86"><stop offset="0" stop-color="#bef3c0"/><stop offset="1" stop-color="#9ecba0"/></linearGradient><linearGradient x1="366.78274" y1="174.32826" x2="363.92579" y2="215.8293" gradientUnits="userSpaceOnUse" id="color-87"><stop offset="0" stop-color="#bef3c0"/><stop offset="1" stop-color="#9ecba0"/></linearGradient><linearGradient x1="364.91638" y1="188.42446" x2="356.76078" y2="229.21642" gradientUnits="userSpaceOnUse" id="color-88"><stop offset="0" stop-color="#bef3c0"/><stop offset="1" stop-color="#9ecba0"/></linearGradient><linearGradient x1="366.07417" y1="199.74131" x2="349.22475" y2="237.77546" gradientUnits="userSpaceOnUse" id="color-89"><stop offset="0" stop-color="#bef3c0"/><stop offset="1" stop-color="#9ecba0"/></linearGradient><radialGradient cx="212.43206" cy="173.47304" r="53.77704" gradientUnits="userSpaceOnUse" id="color-90"><stop offset="0" stop-color="#bef3c0"/><stop offset="1" stop-color="#9ecba0"/></radialGradient><radialGradient cx="299.18243" cy="169.50405" r="53.77704" gradientUnits="userSpaceOnUse" id="color-91"><stop offset="0" stop-color="#bef3c0"/><stop offset="1" stop-color="#9ecba0"/></radialGradient><radialGradient cx="239.8864" cy="149.93193" r="15.54878" gradientUnits="userSpaceOnUse" id="color-92"><stop offset="0" stop-color="#858585"/><stop offset="1" stop-color="#000000"/></radialGradient><radialGradient cx="196.1287" cy="110.75046" r="3" gradientUnits="userSpaceOnUse" id="color-93"><stop offset="0" stop-color="#373737"/><stop offset="1" stop-color="#373737" stop-opacity="0"/></radialGradient><radialGradient cx="278.1287" cy="110.75046" r="3" gradientUnits="userSpaceOnUse" id="color-94"><stop offset="0" stop-color="#373737"/><stop offset="1" stop-color="#373737" stop-opacity="0"/></radialGradient><radialGradient cx="240" cy="180" r="247" gradientUnits="userSpaceOnUse" id="color-95"><stop offset="0" stop-color="#111111" stop-opacity="0"/><stop offset="1" stop-color="#111111"/></radialGradient><linearGradient x1="240" y1="-8.5" x2="240" y2="368.5" gradientUnits="userSpaceOnUse" id="color-96"><stop offset="0" stop-color="#111111" stop-opacity="0"/><stop offset="1" stop-color="#111111"/></linearGradient><linearGradient x1="240" y1="368.5" x2="240" y2="-8.5" gradientUnits="userSpaceOnUse" id="color-97"><stop offset="0" stop-color="#111111" stop-opacity="0"/><stop offset="1" stop-color="#111111"/></linearGradient></defs><g transform="translate(8,24.96228)"><g data-paper-data="{&quot;isPaintingLayer&quot;:true}" fill-rule="nonzero" stroke-linecap="butt" stroke-linejoin="miter" stroke-miterlimit="10" stroke-dasharray="" stroke-dashoffset="0" style="mix-blend-mode: normal"><path d="M-7,368.5v-377h494v377z" fill="#111111" stroke="#000000" stroke-width="2"/><path d="M348.21178,425.27424c-5.75778,61.23836 -8.7373,70.82875 -14.43109,99.84143c-8.45905,43.10317 -94.24426,39.94344 -94.24426,39.94344c0,0 -86.41147,5.94986 -94.72019,-43.55628c-4.14766,-24.71313 -11.5555,-51.41811 -13.99761,-97.51437c-2.44211,-46.0963 -19.85595,-147.94105 104.85938,-149.88592c118.06151,-1.84112 119.07672,81.58219 112.53373,151.17174z" data-paper-data="{&quot;index&quot;:null}" fill="#484848" stroke="#000000" stroke-width="0"/><g stroke="none"><path d="M141.2607,356.575c4.83104,12.51837 -26.89429,83.59219 -38.1455,92.61296c-5.17315,4.14759 -51.2576,-12.68834 -52.53017,-18.97941c-2.78773,-13.78161 13.59526,-86.50574 26.17681,-95.35272c12.58155,-8.84699 59.66786,9.20081 64.49887,21.71917z" fill="#484848" stroke-width="0"/><g><g><path d="M108.83539,333.02257c1.01009,-0.04731 1.73591,0.21762 2.25723,0.61452c0.19657,-0.98532 0.89674,-2.7905 3.38855,-2.76075c3.42424,0.0409 3.38331,3.46514 3.38331,3.46514l-0.0639,3.63965c1.17317,5.88643 0.16827,14.01084 -5.2457,17.95353c-0.92666,0.67483 -1.96411,1.21519 -3.06666,1.68273c-0.15256,0.90199 -0.30603,1.80773 -0.4613,2.71876c-2.37228,6.89834 -3.98071,15.24078 -8.85416,20.83803c-1.56087,1.79267 -3.2828,3.57401 -5.04309,5.38192c3.62022,6.01132 9.03345,11.28744 8.43068,18.36971c-0.94229,11.0712 -13.4679,13.54513 -20.01758,19.81923c0.45008,1.02149 0.88971,2.06411 1.2817,3.15224c0,0 1.14542,3.22724 -2.08186,4.37264c-0.89677,0.31826 -1.63279,0.29891 -2.22814,0.10498c-0.2823,2.28137 -0.3879,4.57791 -0.66608,6.21275c0,0 -0.57444,3.37596 -3.9504,2.80149c-3.37596,-0.57444 -2.80149,-3.9504 -2.80149,-3.9504c0.71849,-4.22243 0.83362,-9.46639 2.73162,-13.57836c-1.469,-3.54609 -2.72954,-7.07097 -2.67577,-11.40159c0.13568,-10.92826 6.48759,-19.3499 13.53228,-26.99431c-0.778,-2.36744 -1.25649,-4.90416 -1.47253,-7.88498c0.93438,-5.58693 2.62515,-15.65122 7.08484,-19.70062c3.25827,-2.95849 7.54231,-4.36406 11.23036,-5.98146c0.71047,-4.21135 1.43274,-8.39765 2.26663,-12.693l-0.21897,-2.60086c0,0 -0.16025,-3.42074 3.26047,-3.58096zM79.99998,412.5909c-0.02346,2.07488 0.33662,3.94005 0.89551,5.71657c5.84909,-3.86009 15.18783,-7.24005 15.8514,-14.0782c0.34824,-3.58854 -3.07468,-6.39338 -4.89323,-9.00698c-0.7413,-1.06542 -1.41531,-2.08919 -2.02511,-3.09429c-5.27008,5.84246 -9.73621,12.29615 -9.82857,20.46293zM95.12914,376.54054c3.68289,-4.00432 5.05576,-10.88013 6.7299,-16.27859c-1.73671,0.6559 -3.39815,1.44619 -4.83468,2.57261c-2.98606,2.3415 -4.35171,11.52361 -4.97148,15.07811c0.03957,0.56803 0.11219,1.12436 0.21395,1.67027c0.97349,-1.01884 1.93248,-2.03143 2.86232,-3.04243z" fill="#000000" stroke-width="0.5"/><path d="M84.22981,351.37808l-0.58137,-3.49388l23.19549,-3.85991l0.58141,3.49389z" fill="url(#color-1)" stroke-width="0"/><path d="M110.35947,348.65849l2.65788,-2.34112l15.54264,17.64525l-2.65788,2.34112z" data-paper-data="{&quot;index&quot;:null}" fill="url(#color-2)" stroke-width="0"/><path d="M80.71766,422.04381l-2.65788,2.34112l-15.54264,-17.64525l2.65788,-2.34112z" data-paper-data="{&quot;index&quot;:null}" fill="url(#color-3)" stroke-width="0"/><path d="M106.90807,419.15351l0.58141,3.49389l-23.19548,3.85989l-0.58142,-3.49386z" data-paper-data="{&quot;index&quot;:null}" fill="url(#color-4)" stroke-width="0"/><path d="M100.46134,428.36139l26.56864,-74.6604l8.73308,3.1078l-26.56864,74.6604z" fill="url(#color-5)" stroke-width="0"/><path d="M56.25039,413.25059l26.56864,-74.6604l8.73308,3.1078l-26.56864,74.6604z" fill="url(#color-6)" stroke-width="0"/><path d="M70.82924,435.28611l37.35035,-104.95793l12.27701,4.3689l-37.35035,104.95793z" fill="url(#color-7)" stroke-width="0"/></g><path d="M79.64508,431.71029c7.49326,2.5976 11.61236,10.34394 9.20031,17.30195c-2.41205,6.95801 -10.44184,10.49281 -17.93511,7.89521c-7.49326,-2.5976 -11.61237,-10.34391 -9.20032,-17.30192c2.41205,-6.95801 10.44185,-10.49284 17.93512,-7.89524z" fill="url(#color-8)" stroke-width="0"/></g><path d="M141.2607,356.575c4.83104,12.51837 -26.89429,83.59219 -38.1455,92.61296c-5.17315,4.14759 -51.2576,-12.68834 -52.53017,-18.97941c-2.78773,-13.78161 13.59526,-86.50574 26.17681,-95.35272c12.58155,-8.84699 59.66786,9.20081 64.49887,21.71917z" fill="url(#color-9)" stroke-width="0"/></g><g data-paper-data="{&quot;index&quot;:null}" stroke="none"><path d="M339.76822,356.575c4.83101,-12.51836 51.91732,-30.56617 64.49887,-21.71917c12.58155,8.84698 28.96454,81.57111 26.17681,95.35272c-1.27258,6.29107 -47.35702,23.127 -52.53017,18.97941c-11.2512,-9.02077 -42.97654,-80.09459 -38.1455,-92.61296z" fill="#484848" stroke-width="0"/><g><g><path d="M372.19349,333.02262c3.42073,0.16022 3.26047,3.58096 3.26047,3.58096l-0.21897,2.60086c0.83389,4.29535 1.55616,8.48165 2.26663,12.693c3.68805,1.6174 7.97209,3.02297 11.23036,5.98146c4.45969,4.0494 6.15046,14.11369 7.08484,19.70062c-0.21604,2.98083 -0.69453,5.51754 -1.47253,7.88498c7.04469,7.64442 13.3966,16.06606 13.53228,26.99431c0.05377,4.33062 -1.20677,7.8555 -2.67577,11.40159c1.89799,4.11197 2.01313,9.35592 2.73162,13.57836c0,0 0.57447,3.37595 -2.80149,3.9504c-3.37595,0.57447 -3.9504,-2.80149 -3.9504,-2.80149c-0.27818,-1.63484 -0.38378,-3.93138 -0.66608,-6.21275c-0.59535,0.19393 -1.33137,0.21328 -2.22814,-0.10498c-3.22728,-1.14539 -2.08186,-4.37264 -2.08186,-4.37264c0.39199,-1.08813 0.83162,-2.13075 1.2817,-3.15224c-6.54968,-6.2741 -19.07529,-8.74803 -20.01758,-19.81923c-0.60277,-7.08228 4.81046,-12.35839 8.43068,-18.36971c-1.76029,-1.80791 -3.48222,-3.58925 -5.04309,-5.38192c-4.87344,-5.59724 -6.48187,-13.93968 -8.85416,-20.83803c-0.15527,-0.91103 -0.30874,-1.81677 -0.4613,-2.71876c-1.10254,-0.46754 -2.14,-1.0079 -3.06666,-1.68273c-5.41397,-3.94269 -6.41887,-12.06711 -5.2457,-17.95353l-0.0639,-3.63965c0,0 -0.04093,-3.42424 3.38331,-3.46514c2.4918,-0.02976 3.19198,1.77543 3.38855,2.76075c0.52133,-0.39691 1.24714,-0.66183 2.25723,-0.61452zM401.02894,412.59093c-0.09236,-8.16678 -4.55849,-14.62047 -9.82857,-20.46293c-0.6098,1.0051 -1.28381,2.02887 -2.02511,3.09429c-1.81854,2.61361 -5.24147,5.41845 -4.89323,9.00698c0.66357,6.83815 10.00231,10.21811 15.8514,14.0782c0.55889,-1.77652 0.91897,-3.64169 0.89551,-5.71657zM385.89977,376.5405c0.92984,1.011 1.88883,2.02359 2.86232,3.04243c0.10176,-0.54591 0.17437,-1.10224 0.21395,-1.67027c-0.61977,-3.5545 -1.98542,-12.73661 -4.97148,-15.07811c-1.43652,-1.12642 -3.09797,-1.91671 -4.83468,-2.57261c1.67414,5.39847 3.04701,12.27427 6.7299,16.27859z" fill="#000000" stroke-width="0.5"/><path d="M373.60358,347.51817l0.58141,-3.49389l23.19549,3.85991l-0.58137,3.49388z" fill="url(#color-10)" stroke-width="0"/><path d="M355.12682,366.30374l-2.65788,-2.34112l15.54264,-17.64525l2.65788,2.34112z" data-paper-data="{&quot;index&quot;:null}" fill="url(#color-11)" stroke-width="0"/><path d="M415.8539,404.39856l2.65788,2.34112l-15.54264,17.64525l-2.65788,-2.34112z" data-paper-data="{&quot;index&quot;:null}" fill="url(#color-12)" stroke-width="0"/><path d="M397.31634,423.01343l-0.58142,3.49386l-23.19548,-3.85989l0.58141,-3.49389z" data-paper-data="{&quot;index&quot;:null}" fill="url(#color-13)" stroke-width="0"/><path d="M371.8345,431.46918l-26.56864,-74.6604l8.73308,-3.1078l26.56864,74.6604z" fill="url(#color-14)" stroke-width="0"/><path d="M416.04545,416.35839l-26.56864,-74.6604l8.73308,-3.1078l26.56864,74.6604z" fill="url(#color-15)" stroke-width="0"/><path d="M397.92267,439.65501l-37.35035,-104.95793l12.27701,-4.3689l37.35035,104.95793z" fill="url(#color-16)" stroke-width="0"/></g><path d="M419.31896,439.60553c2.41205,6.95801 -1.70706,14.70432 -9.20032,17.30192c-7.49326,2.5976 -15.52306,-0.9372 -17.93511,-7.89521c-2.41205,-6.95801 1.70705,-14.70435 9.20031,-17.30195c7.49326,-2.5976 15.52307,0.93723 17.93512,7.89524z" fill="url(#color-17)" stroke-width="0"/></g><path d="M339.76822,356.575c4.83101,-12.51836 51.91732,-30.56617 64.49887,-21.71917c12.58155,8.84698 28.96454,81.57111 26.17681,95.35272c-1.27258,6.29107 -47.35702,23.127 -52.53017,18.97941c-11.2512,-9.02077 -42.97654,-80.09459 -38.1455,-92.61296z" fill="url(#color-18)" stroke-width="0"/></g><path d="M343.72556,203.80144l-214.50633,-1.30024c0,0 -24.15803,-38.48539 -11.59568,-79.01588c14.87665,-47.99718 2.36472,-94.49855 120.28449,-94.36105c115.35612,0.19286 98.02535,44.12097 115.57361,91.18792c17.27324,46.32926 -9.75609,83.48924 -9.75609,83.48924z" fill="#484848" stroke="none" stroke-width="0"/><g stroke="none"><path d="M250.00401,517.3814c-0.06144,0.92962 -0.58769,4.91052 -5.09484,4.91052c-0.02283,0 -0.04559,-0.0001 -0.06821,-0.00031c0.03334,1.54552 -0.44505,4.15174 -3.8489,5.00271c-4.95063,1.23767 -6.18827,-3.71295 -6.18827,-3.71295l-1.18331,-5.36148c0,-5.93965 1.43033,-14.62385 -2.25003,-19.87181c-5.70791,-8.1391 -19.16868,-15.355 -17.2929,-27.19841c1.06312,-6.71255 4.72018,-10.40427 9.09009,-13.51466c-0.79463,-2.50086 -1.40784,-5.15536 -1.90116,-8.06806c-0.00204,-0.88662 -0.10066,-14.25402 0.16779,-15.18544c2.49219,-8.64694 11.704,-14.56373 18.49982,-19.32279c4.0258,-2.81925 8.33325,-5.39761 12.52506,-8.12481c-8.95265,-11.1737 -25.45792,-19.5971 -34.4023,-26.9633c-6.75218,-5.56081 -7.7924,-14.00298 -10.92974,-21.85509c-1.50599,-4.72739 -4.66643,-11.82409 -7.94222,-15.52619c-3.83957,-4.33926 -20.47889,-3.59957 -25.75546,-5.0267c-19.00607,-5.14042 -37.04839,-4.80931 -56.3885,-0.94129c0,0 -5.00387,1.00076 -6.00463,-4.00307c-1.00076,-5.00387 4.00307,-6.00466 4.00307,-6.00466c14.06983,-2.81398 28.23577,-4.47775 42.65975,-3.17456c8.41166,0.75997 15.93623,3.86135 24.12996,5.20683c6.75395,1.10908 19.01566,1.51531 24.26635,6.43311c4.38233,4.10452 8.67671,13.91076 10.61492,19.52616c1.80159,4.49867 2.7852,10.71671 4.86228,14.81164c2.63126,5.18744 13.45857,8.44116 18.00215,11.62055c7.42846,5.19812 15.17048,12.23001 20.73877,20.33369c5.32328,-4.22954 9.94613,-9.213 12.84073,-15.95865c7.54365,-17.57993 -13.42737,-25.36852 -15.76514,-39.63369c-0.97855,-5.97119 2.39727,-10.89463 4.82921,-15.81301c8.38969,-10.92664 31.4634,-26.02731 45.2952,-17.04167c5.84259,3.79555 8.26905,11.7058 14.03207,15.22532c11.07351,6.76262 30.87523,1.50296 42.95402,1.45809c0,0 5.10297,0 5.10297,5.10297c0,5.10297 -5.10297,5.10297 -5.10297,5.10297c-14.25844,-0.06232 -34.54103,5.19043 -47.76976,-2.66572c-6.35544,-3.77432 -9.19317,-11.19179 -14.8346,-15.70329c-3.28437,-2.62653 -6.25682,-0.58681 -10.1182,0.61552c-7.52783,2.34393 -16.26806,6.8621 -20.87709,13.27139c-5.40445,10.63982 -1.88044,10.06802 4.86929,18.96259c7.07904,9.32856 11.54438,23.44283 6.87577,34.87164c-3.7448,9.16731 -10.13201,15.58814 -17.39115,21.07369c3.73435,8.74152 4.43791,18.28475 -0.36034,27.87285c-5.16417,10.31922 -18.13071,13.22958 -25.91947,21.07481c-0.99511,0.7385 -2.07337,1.40651 -3.18044,2.05316c1.03294,1.73378 2.2631,3.44702 3.73064,5.2267c4.02298,4.87857 10.77179,8.5622 13.16926,14.69331c3.45345,8.8314 1.45384,27.35116 -2.6895,36.22137zM242.89905,499.66278c0.00983,-4.27758 2.11436,-10.41264 0.41147,-14.48773c-2.01054,-4.81138 -8.3489,-8.14447 -11.5736,-12.11145c-1.70204,-2.09385 -3.14809,-4.12575 -4.38273,-6.17139c-1.46748,1.48292 -2.607,3.27597 -3.16102,5.61221c-1.52307,6.42283 12.64318,15.48376 15.69758,20.22544c1.47091,2.28341 2.4117,4.74613 3.00864,7.30548c-0.00051,-0.12291 -0.00065,-0.24709 -0.00034,-0.37255zM245.76045,423.43819c-4.36964,3.05736 -13.05846,7.83105 -14.49062,13.66769c-0.92306,3.76194 0.17769,7.74583 0.16779,11.61935c0.16741,1.02764 0.35802,2.01091 0.57578,2.95833c0.09145,-0.06852 0.18272,-0.13744 0.27376,-0.20677c6.44236,-6.39916 19.49572,-9.948 23.56622,-18.10138c3.2642,-6.5383 3.42834,-12.39399 1.60927,-17.69223c-3.91214,2.58465 -7.89177,5.08892 -11.70216,7.75501z" fill="#000000" stroke-width="0.5"/><g stroke-width="0"><g><path d="M228.99738,331.11238v-168.85427h15.09533v168.85427z" fill="url(#color-19)"/><g><path d="M148.60285,367.05758v-17.56135h183.54448v17.56135z" fill="url(#color-20)"/><path d="M156.94579,373.31711v-30.00062h10.84578v30.00062z" fill="url(#color-21)"/><path d="M185.18371,374.46164v-30.00062h10.84578v30.00062z" fill="url(#color-22)"/><path d="M283.77807,373.63789v-30.00062h10.84578v30.00062z" fill="url(#color-23)"/><path d="M312.01599,374.78241v-30.00062h10.84578v30.00062z" fill="url(#color-24)"/></g><g><path d="M156.80845,413.21412v-17.56135h167.13327v17.56135z" fill="url(#color-25)"/><path d="M164.40544,419.47366v-30.00062h9.87605v30.00062z" fill="url(#color-26)"/><path d="M190.11851,420.61819v-30.00062h9.87601v30.00062z" fill="url(#color-27)"/><path d="M279.8973,419.79443v-30.00062h9.87601v30.00062z" fill="url(#color-28)"/><path d="M305.6104,420.93896v-30.00062h9.87605v30.00062z" fill="url(#color-29)"/></g><g><path d="M167.06545,459.3707v-17.56135h146.61924v17.56135z" fill="url(#color-30)"/><path d="M173.72999,465.6302v-30.00062h8.66385v30.00062z" fill="url(#color-31)"/><path d="M196.28702,466.77476v-30.00062h8.66385v30.00062z" fill="url(#color-32)"/><path d="M275.04632,465.95101v-30.00062h8.66385v30.00062z" fill="url(#color-33)"/><path d="M297.60341,467.09554v-30.00062h8.66385v30.00062z" fill="url(#color-34)"/></g><path d="M223.21514,514.09496l-0.14782,-42.02862l-4.98073,-141.64739h40.06908l-5.06953,141.75193l-0.05899,41.92408z" fill="url(#color-35)"/><path d="M117.97555,334.14384v-9.23134h242.06549v9.23134z" fill="url(#color-36)"/><path d="M375.42658,329.01533c0,7.93073 -5.96989,14.35982 -13.33412,14.35982c-7.36423,0 -13.33409,-6.42909 -13.33409,-14.35982c0,-7.93073 5.96986,-14.35982 13.33409,-14.35982c7.36423,0 13.33412,6.42909 13.33412,14.35982z" fill="url(#color-37)"/><path d="M202.74135,341.44014v-22.56546h70.21203v22.56546z" fill="url(#color-38)"/><path d="M129.25828,329.01533c0,7.93073 -5.96989,14.35982 -13.33412,14.35982c-7.36423,0 -13.33412,-6.42909 -13.33412,-14.35982c0,-7.93073 5.96989,-14.35982 13.33412,-14.35982c7.36423,0 13.33412,6.42909 13.33412,14.35982z" fill="url(#color-39)"/></g><path d="M217.35679,575.425v-66.87269h41.59905v66.87269z" fill="url(#color-40)"/><path d="M214.20442,533.65619v-11.70634h47.90377v11.70634z" fill="url(#color-41)"/><path d="M214.20442,550.2061v-11.70634h47.90377v11.70634z" fill="url(#color-42)"/></g></g><g stroke-width="0"><path d="M128.52012,293.16348c18.50506,6.8443 28.04077,27.17014 21.29863,45.39899c-3.30237,8.92866 -17.68025,-3.14935 -34.15249,-9.03491c-17.15764,-6.13047 -36.30003,-6.45032 -32.86025,-15.75051c6.74214,-18.22885 27.20906,-27.45788 45.71412,-20.61357z" fill="url(#color-43)" stroke="none"/><path d="M395.94082,313.77705c3.43977,9.30019 -15.70261,9.62005 -32.86025,15.75051c-16.47224,5.88556 -30.85013,17.96357 -34.15249,9.03491c-6.74214,-18.22885 2.79357,-38.55469 21.29863,-45.39899c18.50506,-6.8443 38.97197,2.38472 45.71412,20.61357z" data-paper-data="{&quot;index&quot;:null}" fill="url(#color-44)" stroke="none"/><g><path d="M348.21178,425.27424c-5.75778,61.23836 -8.7373,70.82875 -14.43109,99.84143c-8.45905,43.10317 -94.24426,39.94344 -94.24426,39.94344c0,0 -86.41147,5.94986 -94.72019,-43.55628c-4.14766,-24.71313 -11.5555,-51.41811 -13.99761,-97.51437c-2.44211,-46.0963 -19.85595,-147.94105 104.85938,-149.88592c118.06151,-1.84112 119.07672,81.58219 112.53373,151.17174z" data-paper-data="{&quot;index&quot;:null}" fill="url(#color-45)" stroke="#000000"/><path d="M331.37348,428.92663c-4.86592,51.75283 -7.38396,59.85774 -12.19579,84.37648c-7.14878,36.42672 -79.64623,33.7564 -79.64623,33.7564c0,0 -73.02676,5.02823 -80.04848,-36.80964c-3.50523,-20.88515 -9.76562,-43.45371 -11.82946,-82.4099c-2.06381,-38.95619 -16.78036,-125.02566 88.61718,-126.66929c99.77438,-1.55593 100.63229,68.94548 95.10278,127.75595z" data-paper-data="{&quot;index&quot;:null}" fill="url(#color-46)" stroke="#000000"/><g stroke="#000000"><path d="M239.32599,329.51511c0,10.39655 -11.09474,14.76741 -23.43225,18.82451c-29.35557,9.65328 -29.28729,7.25363 -29.28729,7.25363c0,0 5.85497,-7.40097 5.85497,-26.07814c0,-31.05758 -54.45591,-49.28422 23.43235,-18.82451c12.11101,4.73623 23.43225,8.42806 23.43225,18.82451z" fill="url(#color-47)"/><path d="M262.84002,310.69061c77.88826,-30.45971 23.43232,-12.23307 23.43232,18.82451c0,18.67717 5.85497,26.07814 5.85497,26.07814c0,0 0.06831,2.39965 -29.28729,-7.25363c-12.33755,-4.0571 -23.43228,-8.42796 -23.43228,-18.82451c0,-10.39645 11.32124,-14.08824 23.43228,-18.82451z" data-paper-data="{&quot;index&quot;:null}" fill="url(#color-48)"/><path d="M258.65579,328.21583c0,10.65006 -8.42806,19.28364 -18.82451,19.28364c-10.39655,0 -18.82454,-8.63357 -18.82454,-19.28364c0,-10.65006 8.4281,-19.28367 18.82454,-19.28367c10.39655,0 18.82451,8.63364 18.82451,19.28367z" fill="url(#color-49)"/></g><g stroke="none"><path d="M239.3017,361.75171c8.19962,0 14.84674,6.70921 14.84674,14.98541c0,8.2762 -6.64713,14.98541 -14.84674,14.98541c-8.19962,0 -14.84674,-6.70921 -14.84674,-14.98541c0,-8.2762 6.64713,-14.98541 14.84674,-14.98541zM235.27127,382.95774c1.53946,0 2.78748,-1.24802 2.78748,-2.78748c0,-1.53946 -1.24802,-2.78748 -2.78748,-2.78748c-1.53946,0 -2.78748,1.24802 -2.78748,2.78748c0,1.53946 1.24802,2.78748 2.78748,2.78748zM242.90793,375.21647c1.53946,0 2.78744,-1.24802 2.78744,-2.78748c0,-1.53946 -1.24798,-2.78744 -2.78744,-2.78744c-1.53946,0 -2.78748,1.24798 -2.78748,2.78744c0,1.53946 1.24802,2.78748 2.78748,2.78748zM235.37588,375.21647c1.53946,0 2.78748,-1.24802 2.78748,-2.78748c0,-1.53946 -1.24802,-2.78744 -2.78748,-2.78744c-1.53946,0 -2.78744,1.24798 -2.78744,2.78744c0,1.53946 1.24798,2.78748 2.78744,2.78748zM242.90793,383.06235c1.53946,0 2.78744,-1.24802 2.78744,-2.78748c0,-1.53946 -1.24798,-2.78744 -2.78744,-2.78744c-1.53946,0 -2.78748,1.24798 -2.78748,2.78744c0,1.53946 1.24802,2.78748 2.78748,2.78748z" fill="url(#color-50)"/><path d="M239.3017,361.75171c8.19962,0 14.84674,6.70921 14.84674,14.98541c0,8.2762 -6.64713,14.98541 -14.84674,14.98541c-8.19962,0 -14.84674,-6.70921 -14.84674,-14.98541c0,-8.2762 6.64713,-14.98541 14.84674,-14.98541zM239.35113,388.68082c6.67104,0 12.079,-5.40795 12.079,-12.07896c0,-6.67104 -5.40795,-12.07896 -12.079,-12.07896c-6.67104,0 -12.07896,5.40795 -12.07896,12.07896c0,6.67104 5.40792,12.07896 12.07896,12.07896z" fill="url(#color-51)"/></g><g stroke="none"><path d="M239.3017,407.76075c8.19962,0 14.84674,6.70921 14.84674,14.98541c0,8.2762 -6.64713,14.98541 -14.84674,14.98541c-8.19962,0 -14.84674,-6.70921 -14.84674,-14.98541c0,-8.2762 6.64713,-14.98541 14.84674,-14.98541zM235.27127,428.96674c1.53946,0 2.78748,-1.24802 2.78748,-2.78748c0,-1.53946 -1.24802,-2.78748 -2.78748,-2.78748c-1.53946,0 -2.78748,1.24802 -2.78748,2.78748c0,1.53946 1.24802,2.78748 2.78748,2.78748zM242.90793,421.22551c1.53946,0 2.78744,-1.24802 2.78744,-2.78748c0,-1.53946 -1.24798,-2.78744 -2.78744,-2.78744c-1.53946,0 -2.78748,1.24798 -2.78748,2.78744c0,1.53946 1.24802,2.78748 2.78748,2.78748zM235.37588,421.22551c1.53946,0 2.78748,-1.24802 2.78748,-2.78748c0,-1.53946 -1.24802,-2.78744 -2.78748,-2.78744c-1.53946,0 -2.78744,1.24798 -2.78744,2.78744c0,1.53946 1.24798,2.78748 2.78744,2.78748zM242.90793,429.07135c1.53946,0 2.78744,-1.24798 2.78744,-2.78744c0,-1.53946 -1.24798,-2.78748 -2.78744,-2.78748c-1.53946,0 -2.78748,1.24802 -2.78748,2.78748c0,1.53946 1.24802,2.78744 2.78748,2.78744z" fill="url(#color-52)"/><path d="M239.3017,407.76075c8.19962,0 14.84674,6.70921 14.84674,14.98541c0,8.2762 -6.64713,14.98541 -14.84674,14.98541c-8.19962,0 -14.84674,-6.70921 -14.84674,-14.98541c0,-8.2762 6.64713,-14.98541 14.84674,-14.98541zM239.35113,434.68986c6.67104,0 12.079,-5.40795 12.079,-12.079c0,-6.67104 -5.40795,-12.07896 -12.079,-12.07896c-6.67104,0 -12.07896,5.40792 -12.07896,12.07896c0,6.67104 5.40792,12.079 12.07896,12.079z" fill="url(#color-53)"/></g></g></g><g><path d="M237.92686,188.24453c60.04383,0 117.67889,27.62059 108.71899,59.21181c-16.52266,58.25636 -48.67517,59.21181 -108.71899,59.21181c-60.04383,0 -96.82268,-9.68142 -108.71896,-59.21181c-7.6603,-31.89385 48.67517,-59.21181 108.71896,-59.21181z" fill="url(#color-54)" stroke="#000000" stroke-width="0"/><g><g fill="url(#color-55)" stroke="#000000" stroke-width="0"><path d="M237.94907,255.6037c48.10836,0 94.28678,16.35341 87.10793,35.05776c-13.23829,34.49208 -38.99956,35.05776 -87.10793,35.05776c-48.10836,0 -77.57637,-5.73213 -87.10793,-35.05776c-6.13761,-18.8835 38.99953,-35.05776 87.10793,-35.05776z"/></g><g fill="none" stroke="none" stroke-width="1" font-family="sans-serif" font-weight="normal" font-size="12" text-anchor="start"/></g><path d="M237.49545,188.55319c46.50304,0 97.26409,25.6764 90.32477,55.04397c-2.49161,10.54467 -11.56574,19.06989 -15.04532,25.96227c-14.39095,28.50572 -11.30331,33.08502 -75.27949,33.16412c-67.09732,0.08294 -60.90075,-9.41188 -74.77524,-32.85049c-4.15538,-7.01981 -14.78683,-15.664 -16.91032,-26.27589c-5.93281,-29.64889 45.18249,-55.04397 91.68556,-55.04397z" fill="url(#color-56)" stroke="#000000" stroke-width="0"/><path d="M222.79639,215.24576v-3.04195h28.8122v3.04195z" fill="url(#color-57)" stroke="none" stroke-width="0"/><g stroke="none" stroke-width="0"><path d="M226.08103,232.90458c0,-0.32785 0.04654,-20.43776 0.04654,-20.43776l21.99835,-0.00966c0,0 0.0743,20.03241 0.0743,20.44745c0,5.815 -4.95155,7.10095 -11.05959,7.10095c-6.10805,0 -11.05959,-1.28595 -11.05959,-7.10095z" fill="url(#color-58)"/><path d="M226.08103,230.97651c0,-0.32785 0.04654,-20.43776 0.04654,-20.43776l21.99835,-0.00966c0,0 0.0743,20.03241 0.0743,20.44745c0,5.815 -4.95155,7.10095 -11.05959,7.10095c-6.10805,0 -11.05959,-1.28595 -11.05959,-7.10095z" fill="url(#color-59)"/></g></g><g><path d="M165.12163,91.46247v-7.70198h144.16203v7.70198z" data-paper-data="{&quot;index&quot;:null}" fill="url(#color-60)" stroke="none" stroke-width="0"/><path d="M164.89608,162.28951v-85.02153h7.22971v85.02153z" fill="url(#color-61)" stroke="none" stroke-width="0"/><path d="M302.05394,162.28951v-85.02153h7.22971v85.02153z" data-paper-data="{&quot;index&quot;:null}" fill="url(#color-62)" stroke="none" stroke-width="0"/><path d="M238.45644,151.94375l-0.2063,1.08547c0.86689,2.04935 1.44921,4.22097 1.89341,6.40133c0.14179,0.64641 0.37517,1.25104 0.67533,1.82526c0.13955,0.20357 0.26352,0.41542 0.36724,0.63808c1.44121,2.29593 3.87203,4.14062 5.51236,6.34588c1.36195,1.83098 1.42342,6.49036 2.76877,8.68464c0.71057,1.15899 4.39093,2.30702 4.77519,2.65858c5.07602,4.64407 -0.76932,7.63479 2.0716,11.82065c2.49654,3.67846 16.01311,-6.10237 17.80633,-7.41604c6.64702,-10.20641 -2.08453,-11.95584 -1.02726,-22.59968c0.54843,-5.52134 8.48297,-12.50907 6.69986,-18.14826c-0.8226,-2.60149 -3.4742,-5.72199 -4.93743,-8.06174c0,0 -1.35229,-2.16366 0.81137,-3.51594c2.16366,-1.35229 3.51594,0.81137 3.51594,0.81137c1.61672,2.58823 4.76678,6.43688 5.51536,9.35952c2.01037,7.84911 -5.62796,13.14239 -6.54034,20.17856c-0.56946,4.39158 3.37514,7.80199 4.46778,11.94275c1.49245,5.65565 -1.84826,9.198 -4.79818,13.54028c-5.18448,3.96344 -14.24344,10.98159 -21.52996,9.10818c-7.23454,-1.86007 -4.21757,-7.11058 -4.43268,-12.12778c-0.05004,-1.16688 -5.71172,-3.38834 -6.52605,-4.5511c-1.39934,-1.99805 -1.60815,-7.16637 -2.80602,-8.73662c-0.54816,-0.71857 -1.0904,-1.32112 -1.61944,-1.86177c-1.88606,3.03654 -5.95329,4.3928 -7.47173,8.87818c-1.70201,5.02768 3.96123,11.50712 -1.00954,16.01114c-2.3971,2.17203 -5.75394,1.45469 -8.53669,2.03523c-10.5528,2.20156 -15.67962,2.20309 -22.36192,-7.34858c-0.46502,-1.75967 -0.27066,-3.78293 -1.25451,-5.3142c-2.45089,-3.81454 -8.3835,-2.37101 -10.02709,-7.58097c-1.6471,-5.22098 3.79409,-12.21099 4.80785,-17.1541c0.72911,-3.55524 -1.44285,-4.57022 -2.35022,-7.52327c-1.30456,-4.24567 0.59824,-10.58757 1.71031,-14.69015c0,0 0.67135,-2.46157 3.13292,-1.79022c2.46157,0.67135 1.79022,3.13292 1.79022,3.13292c-0.76596,2.78986 -2.84089,8.9388 -1.77393,11.79017c1.31401,3.51162 3.30288,5.58312 2.52774,9.89799c-0.72762,4.0504 -5.75468,10.76383 -4.94808,14.90104c0.29594,1.51793 4.93586,2.42204 5.87943,3.08815c3.95895,2.79473 4.15174,4.819 5.13821,9.10332c5.53247,7.49517 8.53927,6.22195 16.66177,4.49789c2.00315,-0.42518 4.44866,0.4627 6.09716,-0.75218c1.78651,-1.3166 -1.06159,-11.68518 -0.31268,-13.95345c1.32956,-4.02685 6.95756,-6.03324 8.02921,-9.45138c0.92537,-2.95152 -2.11953,-4.77849 -3.65716,-6.93919c-0.97865,-2.35373 -1.34262,-4.97407 -1.37317,-7.52296l0.4246,-2.01254c0,0 0.61882,-2.47531 3.09413,-1.85649c0.55823,0.13955 0.95909,0.37354 1.24516,0.65223c2.08119,0.2925 2.08119,2.51995 2.08119,2.51995z" fill="url(#color-63)" stroke="none" stroke-width="0.5"/><path d="M157.81819,122.14834v-10.01471h157.74289v10.01471z" fill="url(#color-64)" stroke="none" stroke-width="0"/><g stroke="#000000" stroke-width="0"><path d="M228.70573,117.29049c0,18.43338 -14.56962,33.3766 -32.54217,33.3766c-17.97255,0 -32.54217,-14.94319 -32.54217,-33.3766c0,-18.43338 14.56962,-33.3766 32.54217,-33.3766c17.97255,0 32.54217,14.94319 32.54217,33.3766z" fill="url(#color-65)"/><g><path d="M196.16356,127.71881c-5.61544,0 -10.16763,-4.66891 -10.16763,-10.42832c0,-5.75941 4.55222,-10.42832 10.16763,-10.42832c5.61544,0 10.16763,4.66891 10.16763,10.42832c0,5.75941 -4.55222,10.42832 -10.16763,10.42832z" fill="#00ff4c"/><path d="M196.16356,125.97543c-4.67667,0 -8.46783,-3.88836 -8.46783,-8.68494c0,-4.79655 3.79116,-8.68494 8.46783,-8.68494c4.67667,0 8.46783,3.88836 8.46783,8.68494c0,4.79655 -3.79116,8.68494 -8.46783,8.68494z" fill="#000000"/></g></g><g stroke="#000000" stroke-width="0"><path d="M309.7862,117.29049c0,18.43338 -14.56962,33.3766 -32.54217,33.3766c-17.97255,0 -32.54217,-14.94319 -32.54217,-33.3766c0,-18.43338 14.56962,-33.3766 32.54217,-33.3766c17.97255,0 32.54217,14.94319 32.54217,33.3766z" fill="url(#color-66)"/><g><path d="M277.24403,127.71881c-5.61544,0 -10.16763,-4.66891 -10.16763,-10.42832c0,-5.75941 4.55222,-10.42832 10.16763,-10.42832c5.61544,0 10.16763,4.66891 10.16763,10.42832c0,5.75941 -4.55222,10.42832 -10.16763,10.42832z" fill="#00ff4c"/><path d="M277.24403,125.97543c-4.67667,0 -8.46783,-3.88836 -8.46783,-8.68494c0,-4.79655 3.79116,-8.68494 8.46783,-8.68494c4.67667,0 8.46783,3.88836 8.46783,8.68494c0,4.79655 -3.79116,8.68494 -8.46783,8.68494z" fill="#000000"/></g></g><path d="M230.33718,166.42295l0.4491,-86.73092l12.12135,0.25947l-0.4491,86.73092z" fill="url(#color-67)" stroke="none" stroke-width="0"/><path d="M251.2622,217.14209v-53.56918h6.98729v53.56918z" fill="url(#color-68)" stroke="none" stroke-width="0"/><path d="M216.32579,217.14209v-53.56918h6.98729v53.56918z" fill="url(#color-69)" stroke="none" stroke-width="0"/><path d="M162.33415,111.27395l-0.35683,46.71862l150.45865,0.36017l0.48658,-47.0646l9.83787,0.14972l-0.60348,58.17376l-169.87819,-0.74357l0.38721,-57.71293z" fill="url(#color-70)" stroke="none" stroke-width="0"/></g><g stroke-width="0"><g><path d="M166.34767,78.34505l-48.6998,-49.07388l3.95354,-3.95517l48.69976,49.07388z" fill="url(#color-71)" stroke="none"/><g stroke="#000000"><g fill="url(#color-72)"><path d="M140.89835,6.14099c0.80447,0.79844 20.47083,15.40443 -2.73771,38.52057c-22.89297,22.80179 -34.41863,7.02138 -38.45402,3.21381c-17.5091,-16.52052 -31.69433,-72.83765 -31.69433,-72.83765c0,0 55.80047,14.14519 72.88606,31.1033z"/></g><g fill="url(#color-73)"><path d="M134.25041,10.22132c0.61215,0.60763 15.57769,11.7223 -2.0833,29.31301c-17.42085,17.35148 -26.19159,5.34305 -29.26235,2.44565c-13.32392,-12.5716 -26.08042,-57.40695 -26.08042,-57.40695c0,0 44.4245,12.74364 57.42611,25.64826z"/></g></g></g><path d="M173.86094,76.54499c0,2.95472 -2.39526,5.34999 -5.34999,5.34999c-2.95472,0 -5.34999,-2.39526 -5.34999,-5.34999c0,-2.95472 2.39526,-5.34999 5.34999,-5.34999c2.95472,0 5.34999,2.39526 5.34999,5.34999z" fill="url(#color-74)" stroke="none"/></g><g data-paper-data="{&quot;index&quot;:null}" stroke-width="0"><g><path d="M303.87859,74.38988l48.69976,-49.07388l3.95354,3.95517l-48.6998,49.07388z" fill="url(#color-75)" stroke="none"/><g stroke="#000000"><g fill="url(#color-76)"><path d="M333.28142,6.14102c17.08559,-16.95811 72.88606,-31.1033 72.88606,-31.1033c0,0 -14.18523,56.31713 -31.69433,72.83765c-4.03539,3.80756 -15.56106,19.58798 -38.45402,-3.21381c-23.20853,-23.11614 -3.54217,-37.72212 -2.73771,-38.52057z"/></g><g fill="url(#color-77)"><path d="M339.92932,10.22128c13.00161,-12.90462 57.42611,-25.64826 57.42611,-25.64826c0,0 -12.7565,44.83535 -26.08042,57.40695c-3.07076,2.8974 -11.8415,14.90584 -29.26235,-2.44565c-17.661,-17.59071 -2.69546,-28.70538 -2.0833,-29.31301z"/></g></g></g><path d="M305.66875,71.19501c2.95472,0 5.34999,2.39526 5.34999,5.34999c0,2.95472 -2.39526,5.34999 -5.34999,5.34999c-2.95472,0 -5.34999,-2.39526 -5.34999,-5.34999c0,-2.95472 2.39526,-5.34999 5.34999,-5.34999z" fill="url(#color-78)" stroke="none"/></g><g stroke-width="0"><path d="M343.72556,203.80144l-214.50633,-1.30024c0,0 -24.15803,-38.48539 -11.59568,-79.01588c14.87665,-47.99718 2.36472,-94.49855 120.28449,-94.36105c115.35612,0.19286 98.02535,44.12097 115.57361,91.18792c17.27324,46.32926 -9.75609,83.48924 -9.75609,83.48924zM195.62775,156.46315c18.78858,0 34.01978,-15.2312 34.01978,-34.01978c0,-43.73645 -15.2312,-56.13268 -34.01978,-56.13268c-18.78858,0 -36.85479,17.4992 -34.01978,56.13268c1.37505,18.73823 15.2312,34.01978 34.01978,34.01978zM277.27523,155.64317c18.78858,0 33.45278,-16.59196 33.45278,-35.38057c0,-18.78858 -1.62325,-53.63787 -33.45278,-53.63787c-31.26251,0 -32.88577,34.84925 -32.88577,53.63787c0,18.78858 14.09719,35.38057 32.88577,35.38057z" fill="url(#color-79)" stroke="none"/><path d="M244.34125,120.27587c0,-18.78862 1.67115,-53.70114 32.93366,-53.70114c31.82953,0 33.50131,34.91256 33.50131,53.70114c0,18.78861 -14.71273,35.4173 -33.50131,35.4173c-18.78858,0 -32.93366,-16.62872 -32.93366,-35.4173z" data-paper-data="{&quot;noHover&quot;:false,&quot;origItem&quot;:[&quot;Path&quot;,{&quot;applyMatrix&quot;:true,&quot;segments&quot;:[[[277.27523,155.64317],[-18.78858,0],[18.78858,0]],[[310.72801,120.2626],[0,18.78861],[0,-18.78858]],[[277.27523,66.62473],[31.82953,0],[-31.26251,0]],[[244.38946,120.2626],[0,-18.78862],[0,18.78858]]],&quot;closed&quot;:true,&quot;fillColor&quot;:[0,0,0,1],&quot;strokeWidth&quot;:0}]}" fill="#000000" stroke="none"/><path d="M161.56044,122.45888c-2.83501,-38.63348 15.2789,-56.19819 34.06748,-56.19819c18.78858,0 34.06719,12.46162 34.06719,56.19807c0,18.78858 -15.27861,34.05439 -34.06719,34.05439c-18.78858,0 -32.69243,-15.31603 -34.06748,-34.05426z" data-paper-data="{&quot;noHover&quot;:false,&quot;origItem&quot;:[&quot;Path&quot;,{&quot;applyMatrix&quot;:true,&quot;segments&quot;:[[[195.62775,156.46315],[-18.78858,0],[18.78858,0]],[[229.64753,122.44337],[0,18.78858],[0,-43.73645]],[[195.62775,66.31069],[18.78858,0],[-18.78858,0]],[[161.60797,122.44337],[-2.83501,-38.63348],[1.37505,18.73823]]],&quot;closed&quot;:true,&quot;fillColor&quot;:[0,0,0,1],&quot;strokeWidth&quot;:0}]}" fill="#000000" stroke="none"/><g><g stroke="#000000"><path d="M178.72002,186.23865c-2.16845,9.78314 -32.83004,8.51974 -69.21117,0.45576c-36.3811,-8.06395 -72.75726,-51.66918 -72.75726,-51.66918c0,0 42.16752,17.47712 78.54862,25.54107c0,0 65.58827,15.88918 63.41982,25.67231z" fill="url(#color-80)"/><path d="M180.9741,191.24405c-0.89591,9.98049 -31.46636,12.65968 -68.58123,9.32802c-37.11483,-3.33163 -78.78281,-41.91173 -78.78281,-41.91173c0,0 44.06065,11.92502 81.17552,15.25665c0,0 67.08443,7.34654 66.18852,17.32702z" fill="url(#color-81)"/><path d="M178.93866,192.58831c0.68815,9.99695 -29.07804,17.46048 -66.25417,20.01962c-37.1761,2.55914 -84.40342,-28.97206 -84.40342,-28.97206c0,0 45.3894,4.83217 82.5655,2.27303c0,0 67.40391,-3.31751 68.09206,6.67941z" fill="url(#color-82)"/><path d="M182.51673,196.75145c1.96454,9.82614 -26.59867,21.04542 -63.13963,28.35113c-36.54092,7.30568 -87.42196,-17.90849 -87.42196,-17.90849c0,0 45.63427,-1.02872 82.17519,-8.3344c0,0 66.42186,-11.93438 68.38643,-2.10824z" fill="url(#color-83)"/><path d="M181.29929,190.87181c4.05876,9.1618 -21.37289,26.33624 -55.4434,41.42977c-34.07047,15.09352 -89.22355,1.57396 -89.22355,1.57396c0,0 44.31322,-10.9491 78.38372,-26.04262c0,0 62.22446,-26.12294 66.28323,-16.96111z" fill="url(#color-84)"/></g><g data-paper-data="{&quot;index&quot;:null}" stroke="#000000"><path d="M354.1435,160.56634c36.3811,-8.06395 78.54858,-25.54107 78.54858,-25.54107c0,0 -36.37616,43.60523 -72.75726,51.66918c-36.38113,8.06395 -67.04272,9.32737 -69.21117,-0.45576c-2.16845,-9.78314 63.41982,-25.67231 63.41982,-25.67231z" fill="url(#color-85)"/><path d="M354.65805,173.91703c37.11487,-3.33163 81.17552,-15.25665 81.17552,-15.25665c0,0 -41.66794,38.58007 -78.78281,41.91173c-37.11487,3.33166 -67.68532,0.65243 -68.58123,-9.32802c-0.89591,-9.98049 66.18852,-17.32702 66.18852,-17.32702z" fill="url(#color-86)"/><path d="M358.59703,185.9089c37.1761,2.55914 82.5655,-2.27303 82.5655,-2.27303c0,0 -47.22732,31.53124 -84.40342,28.97206c-37.17614,-2.55914 -66.94233,-10.02267 -66.25417,-20.01962c0.68815,-9.99695 68.09206,-6.67941 68.09206,-6.67941z" fill="url(#color-87)"/><path d="M355.31324,198.85969c36.54092,7.30568 82.17519,8.3344 82.17519,8.3344c0,0 -50.88104,25.21417 -87.42196,17.90849c-36.54095,-7.30568 -65.1042,-18.525 -63.13963,-28.35113c1.96454,-9.82614 68.3864,2.10824 68.3864,2.10824z" fill="url(#color-88)"/><path d="M354.42774,207.83292c34.07047,15.09352 78.38372,26.04262 78.38372,26.04262c0,0 -55.15308,13.51956 -89.22355,-1.57396c-34.07051,-15.09352 -59.50217,-32.26797 -55.4434,-41.42977c4.05876,-9.1618 66.28323,16.96111 66.28323,16.96111z" fill="url(#color-89)"/></g><path d="M147.19409,173.01027c12.03807,-24.26148 28.00937,-33.44281 54.7628,-34.00485c14.01374,-0.68526 31.67861,2.52369 36.98063,26.25987c1.29724,5.80759 -0.77953,12.844 -0.77953,21.35289c0,29.50059 0.00503,52.66963 0.00503,52.66963c0,0 -22.13194,7.19025 -43.70545,7.19025c-26.7588,0 -71.84522,-23.92581 -47.26345,-73.4678z" data-paper-data="{&quot;index&quot;:null}" fill="url(#color-90)" stroke="#000000"/><path d="M281.78516,246.47806c-21.7532,0 -44.40963,-6.80212 -44.40963,-6.80212c0,0 0.70918,-23.78667 0.70918,-53.05776c0,-8.26803 -0.11604,-15.14578 1.11286,-20.85675c5.20486,-24.18766 20.97741,-27.44604 35.08824,-26.75601c26.75343,0.56204 42.72473,9.74337 54.7628,34.00485c24.58178,49.54199 -20.50468,73.4678 -47.26345,73.4678z" fill="url(#color-91)" stroke="#000000"/><path d="M237.66334,142.85523c6.41943,0 11.6234,3.68087 11.6234,8.22146c0,4.54059 -5.20394,22.87613 -11.6234,22.87613c-6.41946,0 -11.62344,-18.33554 -11.62344,-22.87613c0,-4.54059 5.20397,-8.22146 11.62344,-8.22146z" fill="url(#color-92)" stroke="none"/></g></g><path d="M198.8787,110.75046c0,1.65685 -1.23122,3 -2.75,3c-1.51878,0 -2.75,-1.34315 -2.75,-3c0,-1.65685 1.23122,-3 2.75,-3c1.51878,0 2.75,1.34315 2.75,3z" fill="url(#color-93)" stroke="none" stroke-width="0"/><path d="M280.8787,110.75046c0,1.65685 -1.23122,3 -2.75,3c-1.51878,0 -2.75,-1.34315 -2.75,-3c0,-1.65685 1.23122,-3 2.75,-3c1.51878,0 2.75,1.34315 2.75,3z" fill="url(#color-94)" stroke="none" stroke-width="0"/><path d="M-7,368.5v-377h494v377z" fill="url(#color-95)" stroke="#000000" stroke-width="2"/><g stroke="#000000" stroke-width="2"><path d="M-7,368.5v-377h494v377z" fill="url(#color-96)"/><path d="M487,-8.5v377h-494v-377z" data-paper-data="{&quot;index&quot;:null}" fill="url(#color-97)"/></g></g></g></svg>