<svg version="1.1" xmlns="http://www.w3.org/2000/svg" xmlns:xlink="http://www.w3.org/1999/xlink" width="289.48481" height="189.15711" viewBox="0,0,289.48481,189.15711"><defs><linearGradient x1="235.95939" y1="385.27401" x2="244.39546" y2="385.27401" gradientUnits="userSpaceOnUse" id="color-1"><stop offset="0" stop-color="#7a7a7a"/><stop offset="1" stop-color="#a4a4a4"/></linearGradient><linearGradient x1="218.74685" y1="360.80899" x2="223.31493" y2="360.80899" gradientUnits="userSpaceOnUse" id="color-2"><stop offset="0" stop-color="#7a7a7a"/><stop offset="1" stop-color="#a4a4a4"/></linearGradient><linearGradient x1="256.07292" y1="360.80899" x2="260.64099" y2="360.80899" gradientUnits="userSpaceOnUse" id="color-3"><stop offset="0" stop-color="#7a7a7a"/><stop offset="1" stop-color="#a4a4a4"/></linearGradient><linearGradient x1="240.29844" y1="342.19597" x2="240.29844" y2="357.03938" gradientUnits="userSpaceOnUse" id="color-4"><stop offset="0" stop-color="#a4a4a4"/><stop offset="1" stop-color="#7a7a7a"/></linearGradient><linearGradient x1="239.90047" y1="346.59294" x2="239.90047" y2="350.96527" gradientUnits="userSpaceOnUse" id="color-5"><stop offset="0" stop-color="#6b6b6b"/><stop offset="1" stop-color="#222222"/></linearGradient><linearGradient x1="246.08372" y1="391.87121" x2="246.08372" y2="394.65111" gradientUnits="userSpaceOnUse" id="color-6"><stop offset="0" stop-color="#9a9a9a"/><stop offset="1" stop-color="#dedede"/></linearGradient><linearGradient x1="241.99561" y1="391.84602" x2="241.99561" y2="394.62592" gradientUnits="userSpaceOnUse" id="color-7"><stop offset="0" stop-color="#9a9a9a"/><stop offset="1" stop-color="#dedede"/></linearGradient><linearGradient x1="237.93267" y1="391.84602" x2="237.93267" y2="394.62592" gradientUnits="userSpaceOnUse" id="color-8"><stop offset="0" stop-color="#9a9a9a"/><stop offset="1" stop-color="#dedede"/></linearGradient><linearGradient x1="233.84455" y1="391.82082" x2="233.84455" y2="394.60072" gradientUnits="userSpaceOnUse" id="color-9"><stop offset="0" stop-color="#9a9a9a"/><stop offset="1" stop-color="#dedede"/></linearGradient><linearGradient x1="239.82732" y1="389.00847" x2="239.82732" y2="393.14038" gradientUnits="userSpaceOnUse" id="color-10"><stop offset="0" stop-color="#a4a4a4"/><stop offset="1" stop-color="#3d3d3d"/></linearGradient><linearGradient x1="246.05853" y1="395.50534" x2="246.05853" y2="398.28522" gradientUnits="userSpaceOnUse" id="color-11"><stop offset="0" stop-color="#dedede"/><stop offset="1" stop-color="#9a9a9a"/></linearGradient><linearGradient x1="241.9704" y1="395.53054" x2="241.9704" y2="398.31044" gradientUnits="userSpaceOnUse" id="color-12"><stop offset="0" stop-color="#dedede"/><stop offset="1" stop-color="#9a9a9a"/></linearGradient><linearGradient x1="237.90748" y1="395.53054" x2="237.90748" y2="398.31044" gradientUnits="userSpaceOnUse" id="color-13"><stop offset="0" stop-color="#dedede"/><stop offset="1" stop-color="#9a9a9a"/></linearGradient><linearGradient x1="233.81935" y1="395.55574" x2="233.81935" y2="398.33564" gradientUnits="userSpaceOnUse" id="color-14"><stop offset="0" stop-color="#dedede"/><stop offset="1" stop-color="#9a9a9a"/></linearGradient><linearGradient x1="239.80212" y1="397.01608" x2="239.80212" y2="401.14799" gradientUnits="userSpaceOnUse" id="color-15"><stop offset="0" stop-color="#a4a4a4"/><stop offset="1" stop-color="#3d3d3d"/></linearGradient><radialGradient cx="221.11757" cy="348.96679" r="13.60014" gradientUnits="userSpaceOnUse" id="color-16"><stop offset="0" stop-color="#ffffff"/><stop offset="1" stop-color="#c4bfb5"/></radialGradient><radialGradient cx="224.97067" cy="346.50789" r="5.05415" gradientUnits="userSpaceOnUse" id="color-17"><stop offset="0" stop-color="#ffffff"/><stop offset="1" stop-color="#ffffff" stop-opacity="0"/></radialGradient><radialGradient cx="258.24987" cy="349.10958" r="13.60014" gradientUnits="userSpaceOnUse" id="color-18"><stop offset="0" stop-color="#ffffff"/><stop offset="1" stop-color="#c5c1b7"/></radialGradient><radialGradient cx="261.90994" cy="346.50789" r="5.05415" gradientUnits="userSpaceOnUse" id="color-19"><stop offset="0" stop-color="#ffffff"/><stop offset="1" stop-color="#ffffff" stop-opacity="0"/></radialGradient><linearGradient x1="239.69392" y1="372.36387" x2="239.69392" y2="376.52342" gradientUnits="userSpaceOnUse" id="color-20"><stop offset="0" stop-color="#a4a4a4"/><stop offset="1" stop-color="#686868"/></linearGradient><radialGradient cx="264.75642" cy="334.65463" r="51.95424" gradientUnits="userSpaceOnUse" id="color-21"><stop offset="0" stop-color="#e0c297"/><stop offset="1" stop-color="#b9a17e"/></radialGradient><radialGradient cx="250.61222" cy="319.47156" r="42.94363" gradientUnits="userSpaceOnUse" id="color-22"><stop offset="0" stop-color="#634a14"/><stop offset="1" stop-color="#443014"/></radialGradient><linearGradient x1="240.4262" y1="425.18986" x2="240.4262" y2="498.47094" gradientUnits="userSpaceOnUse" id="color-23"><stop offset="0" stop-color="#a4a4a4"/><stop offset="1" stop-color="#7a7a7a"/></linearGradient><linearGradient x1="240.4262" y1="425.18986" x2="240.4262" y2="431.16798" gradientUnits="userSpaceOnUse" id="color-24"><stop offset="0" stop-color="#a4a4a4"/><stop offset="1" stop-color="#7a7a7a"/></linearGradient><linearGradient x1="240.4262" y1="422.48228" x2="240.4262" y2="433.87557" gradientUnits="userSpaceOnUse" id="color-25"><stop offset="0" stop-color="#303030"/><stop offset="1" stop-color="#4b4b4b"/></linearGradient><radialGradient cx="319.17782" cy="437.16864" r="9.89584" gradientUnits="userSpaceOnUse" id="color-26"><stop offset="0" stop-color="#7582b0"/><stop offset="1" stop-color="#485b9d"/></radialGradient><radialGradient cx="328.5877" cy="443.21802" r="21.3484" gradientUnits="userSpaceOnUse" id="color-27"><stop offset="0" stop-color="#7582b0"/><stop offset="1" stop-color="#485b9d"/></radialGradient><radialGradient cx="161.36079" cy="437.16864" r="9.89584" gradientUnits="userSpaceOnUse" id="color-28"><stop offset="0" stop-color="#7582b0"/><stop offset="1" stop-color="#485b9d"/></radialGradient><radialGradient cx="151.95091" cy="443.21802" r="21.3484" gradientUnits="userSpaceOnUse" id="color-29"><stop offset="0" stop-color="#7582b0"/><stop offset="1" stop-color="#485b9d"/></radialGradient><radialGradient cx="278.04789" cy="425.20849" r="9.83886" gradientUnits="userSpaceOnUse" id="color-30"><stop offset="0" stop-color="#7582b0"/><stop offset="1" stop-color="#485b9d"/></radialGradient><radialGradient cx="289.4227" cy="430.15728" r="21.69784" gradientUnits="userSpaceOnUse" id="color-31"><stop offset="0" stop-color="#7582b0"/><stop offset="1" stop-color="#485b9d"/></radialGradient><radialGradient cx="202.49072" cy="425.20849" r="9.83886" gradientUnits="userSpaceOnUse" id="color-32"><stop offset="0" stop-color="#7582b0"/><stop offset="1" stop-color="#485b9d"/></radialGradient><radialGradient cx="191.11591" cy="430.15728" r="21.69784" gradientUnits="userSpaceOnUse" id="color-33"><stop offset="0" stop-color="#7582b0"/><stop offset="1" stop-color="#485b9d"/></radialGradient><linearGradient x1="199.41495" y1="453.19306" x2="282.26338" y2="453.19306" gradientUnits="userSpaceOnUse" id="color-34"><stop offset="0" stop-color="#7582b0"/><stop offset="1" stop-color="#485b9d"/></linearGradient><linearGradient x1="371.2198" y1="452.41611" x2="371.2198" y2="466.56822" gradientUnits="userSpaceOnUse" id="color-35"><stop offset="0" stop-color="#e0c297"/><stop offset="1" stop-color="#b9a17e"/></linearGradient><linearGradient x1="369.13934" y1="439.85358" x2="369.13934" y2="451.91942" gradientUnits="userSpaceOnUse" id="color-36"><stop offset="0" stop-color="#e0c297"/><stop offset="1" stop-color="#b9a17e"/></linearGradient><linearGradient x1="362.21032" y1="428.33424" x2="362.21032" y2="444.2791" gradientUnits="userSpaceOnUse" id="color-37"><stop offset="0" stop-color="#e0c297"/><stop offset="1" stop-color="#b9a17e"/></linearGradient><linearGradient x1="329.39912" y1="458.16344" x2="366.11701" y2="457.49054" gradientUnits="userSpaceOnUse" id="color-38"><stop offset="0" stop-color="#e0c297"/><stop offset="1" stop-color="#b9a17e"/></linearGradient><linearGradient x1="333.06986" y1="443.6581" x2="342.86366" y2="445.47722" gradientUnits="userSpaceOnUse" id="color-39"><stop offset="0" stop-color="#e0c297"/><stop offset="1" stop-color="#b9a17e"/></linearGradient><linearGradient x1="109.31881" y1="452.41611" x2="109.31881" y2="466.56822" gradientUnits="userSpaceOnUse" id="color-40"><stop offset="0" stop-color="#e0c297"/><stop offset="1" stop-color="#b9a17e"/></linearGradient><linearGradient x1="111.39927" y1="439.85358" x2="111.39927" y2="451.91942" gradientUnits="userSpaceOnUse" id="color-41"><stop offset="0" stop-color="#e0c297"/><stop offset="1" stop-color="#b9a17e"/></linearGradient><linearGradient x1="118.32829" y1="428.33424" x2="118.32829" y2="444.2791" gradientUnits="userSpaceOnUse" id="color-42"><stop offset="0" stop-color="#e0c297"/><stop offset="1" stop-color="#b9a17e"/></linearGradient><linearGradient x1="151.13949" y1="458.16344" x2="114.4216" y2="457.49054" gradientUnits="userSpaceOnUse" id="color-43"><stop offset="0" stop-color="#e0c297"/><stop offset="1" stop-color="#b9a17e"/></linearGradient><linearGradient x1="147.46875" y1="443.6581" x2="137.67495" y2="445.47722" gradientUnits="userSpaceOnUse" id="color-44"><stop offset="0" stop-color="#e0c297"/><stop offset="1" stop-color="#b9a17e"/></linearGradient></defs><g transform="translate(-95.5269,-309.31383)"><g data-paper-data="{&quot;isPaintingLayer&quot;:true}" fill-rule="nonzero" stroke-linecap="butt" stroke-linejoin="miter" stroke-miterlimit="10" stroke-dasharray="" stroke-dashoffset="0" style="mix-blend-mode: normal"><path d="M211.97532,495.45763c0,0 0.78569,-38.43134 -1.5414,-53.1194c-1.58829,-10.02495 -11.07203,-23.20604 -11.07203,-23.20604c0,0 27.85125,-8.13816 41.79315,-8.03778c13.66885,0.09841 41.05529,8.63429 41.05529,8.63429c0,0 -10.95755,11.41446 -12.57961,20.82309c-2.51472,14.5865 -1.04291,54.90584 -1.04291,54.90584z" fill="#191919" stroke="none" stroke-width="0"/><path d="M284.15882,354.01687c0,9.382 14.98001,18.28883 3.1007,34.60522c-12.34758,16.95958 -32.64757,20.43407 -47.93966,20.43407c-16.38761,0 -30.94316,0.06815 -47.0443,-21.7072c-10.92726,-14.77814 2.20535,-25.03522 2.20535,-33.33209c0,-24.52914 20.07508,-44.41394 44.83895,-44.41394c24.76387,0 44.83895,19.8848 44.83895,44.41394z" fill="#191919" stroke="none" stroke-width="0"/><g><path d="M262.56395,381.84501c1.44094,-1.00259 2.99347,-4.37776 3.44988,-6.05048c-0.01258,-2.13783 1.40468,-4.80994 0.92256,-6.82525c-0.52172,-2.18084 -1.93586,-4.2673 -2.66568,-6.39927c-0.66376,-1.93894 -1.37228,-3.80676 -2.24782,-5.5725c0.62428,2.37727 0.91893,4.85629 0.61016,6.80647c-0.41556,2.6247 -1.71936,5.10366 -1.26763,7.85375c0.62653,3.81421 3.28717,4.8911 1.31587,9.00995c-0.40114,0.69753 -0.85611,1.25456 -1.35604,1.69938c0.44236,-0.09467 0.86092,-0.2592 1.23868,-0.52204zM259.76478,349.49025c3.3583,3.48341 5.22819,7.66534 6.77506,12.22681c0.75063,2.21345 2.25954,4.39129 2.74595,6.67784c0.53438,2.51199 -0.86787,5.18701 -0.88131,7.74638c-0.6454,2.32473 -2.46094,6.38103 -4.48719,7.7739c-2.3098,1.58777 -5.16143,0.87513 -7.66312,0.58108c-4.68348,-0.55049 -9.32595,0.17126 -13.79109,1.30581c-0.26808,0.00158 -0.53615,0.00289 -0.80421,0.00399l0.1783,1.20564c0,0 -0.38169,1.18586 -1.52674,0.79057c-0.71503,-0.24684 -0.83473,-0.80195 -0.82379,-1.18408c-0.28737,-0.18341 -0.57653,-0.35894 -0.86616,-0.52867c-0.33864,0.1496 -0.93338,0.26667 -1.4194,-0.40444c-0.01191,-0.01644 -0.02335,-0.0328 -0.03435,-0.0491c-0.20856,-0.11686 -0.41141,-0.31154 -0.50847,-0.63589c-0.18033,-0.09752 -0.35965,-0.19463 -0.53766,-0.29182c0.48854,0.85872 0.91083,1.76861 1.81365,2.36262l0.77623,0.60051c0,0 0.9656,0.75 0.2414,1.75c-0.7242,1 -1.68979,0.25 -1.68979,0.25l-0.66687,-0.52039c-1.48081,-1.05649 -1.84689,-2.88253 -3.05555,-3.9156c-0.54731,-0.46781 -1.41409,-0.1275 -2.12234,-0.17364c-1.50984,-0.09836 -3.9586,-0.14317 -5.20552,-1.21978c-1.80714,-1.56031 -1.76854,-5.31353 -3.22076,-7.3295c-3.9734,-0.2465 -7.36094,-3.65234 -6.57621,-8.05342c0.19488,-1.09303 1.09285,-1.92453 1.48132,-2.96068c0.80963,-2.15955 -1.16506,-5.24727 -1.48238,-7.24792c-0.42836,-2.70085 0.75145,-4.68214 2.23604,-6.5653c0.05723,-0.154 0.11633,-0.30978 0.17703,-0.46755c0,0 0.24539,-0.63533 0.82694,-0.77784c-0.00647,-0.14574 -0.01028,-0.29215 -0.01134,-0.43927c0,0 0,-1.25 1.20699,-1.25c1.20699,0 1.207,1.25 1.207,1.25c-0.04212,4.50306 2.99456,7.23813 5.49044,10.40597c0.56958,0.72294 1.34917,2.48655 1.52532,3.38219c0.16324,0.83005 -0.44232,2.57114 0.36339,3.23809c1.16526,0.96458 3.95955,0.90449 4.79737,2.17478c0.94716,1.43607 0.76129,3.39547 1.32553,5.03346c1.10173,1.86134 1.75042,3.60128 2.32565,5.68627l0.1649,0.50857c0,0 0.3817,1.18586 -0.76336,1.58114c-1.14506,0.39529 -1.52674,-0.79057 -1.52674,-0.79057l-0.19589,-0.61233c-0.54408,-1.97214 -1.15241,-3.52878 -2.18372,-5.29755c-0.50422,-1.46077 -0.32863,-3.1562 -1.01985,-4.53246c-0.29089,-0.57918 -3.88544,-1.22854 -4.5828,-1.93516c-1.74014,-1.76325 -0.62408,-3.7908 -1.52581,-5.79448c-0.62274,-1.38376 -1.85441,-2.11331 -2.75574,-3.32595c-1.28482,-1.7286 -2.42764,-3.60739 -3.12857,-5.64205c-0.35935,1.24868 -0.38056,2.41699 0.56013,3.78272c0.6883,0.9993 1.78264,1.71079 2.28206,2.82399c1.02037,2.27436 -0.48131,6.59895 1.70596,8.38376c2.74532,2.24019 5.73879,3.60495 7.19864,7.11996c0.46279,3.20752 2.21276,4.74376 4.38002,5.99969h0.41061c1.5313,0.06729 2.95923,-1.07397 4.35535,-1.74859c2.56035,-1.23719 5.20878,-2.15474 7.48099,-3.92383c1.68174,-1.56665 1.06917,-5.64059 1.61416,-7.80442c0.46829,-1.85926 2.00516,-2.57761 3.15681,-3.86464c1.26988,-1.41917 2.43374,-3.6081 3.05101,-5.39304c1.15823,-3.34923 -0.29604,-6.81202 -0.30107,-10.20278c0,0 0,-1.25 1.20699,-1.25c0.96391,0 1.15804,0.79721 1.19713,1.11832c0.60906,-0.13917 1.09945,0.3687 1.09945,0.3687zM253.68006,381.63009c2.45505,0 5.56258,0.39398 6.8729,-2.14206c1.47622,-3.0241 -1.03174,-4.34966 -1.57033,-7.42985c-0.53049,-3.03387 0.78434,-5.70106 1.25781,-8.58604c0.31878,-1.94239 -0.12992,-4.71655 -0.91472,-7.1594c0.04902,1.33193 -0.05903,2.67669 -0.52008,4.06652c-0.6837,2.06098 -2.072,4.53484 -3.51368,6.15774c-0.72129,0.81196 -2.37755,1.62449 -2.61562,2.86073c-0.60296,3.13095 -0.14208,6.59289 -2.35437,9.00901c-1.19948,0.92988 -2.85582,2.04847 -4.66685,3.08266c2.60899,-0.10689 5.26967,0.14069 8.02495,0.14069zM229.78901,376.86585c-1.20552,-2.93047 -4.3558,-3.97593 -6.51083,-5.95715c-2.19204,-2.01523 -1.75647,-5.24708 -2.00502,-7.88151c-0.15468,-1.63953 -1.05972,-2.12801 -1.90462,-3.15629c0.35681,1.02059 0.75261,2.03873 0.87498,3.05398c0.4792,3.9757 -4.14183,9.32234 2.00373,11.08921c0.60796,0.17479 1.24815,0.19223 1.87223,0.28834c1.52853,1.73595 2.17194,2.96369 2.92033,5.17648c0.27119,0.80184 0.0462,1.94531 0.71365,2.43929c1.31185,0.97089 3.28479,0.5292 4.99962,0.60603c-1.50109,-1.28444 -2.61331,-2.97224 -2.96407,-5.65838z" fill="#000000" stroke="none" stroke-width="0.5"/><path d="M235.95939,425.26005v-79.97209h8.43607v79.87299z" fill="url(#color-1)" stroke="none" stroke-width="0"/><path d="M218.74685,376.33002v-31.04206h4.56808v31.00359z" fill="url(#color-2)" stroke="none" stroke-width="0"/><path d="M256.07292,376.33002v-31.04206h4.56808v31.00359z" fill="url(#color-3)" stroke="none" stroke-width="0"/><path d="M214.13594,357.03938v-14.84339h52.325v14.84339z" fill="url(#color-4)" stroke="none" stroke-width="0"/><path d="M205.66321,350.96527v-4.37236h68.47455v4.37236z" fill="url(#color-5)" stroke="none" stroke-width="0"/><g stroke="none" stroke-width="0"><path d="M244.37302,394.65111v-2.7799h3.42141v2.7799z" fill="url(#color-6)"/><path d="M240.2849,394.62592v-2.7799h3.42142v2.7799z" fill="url(#color-7)"/><path d="M236.22197,394.62592v-2.7799h3.42141v2.7799z" fill="url(#color-8)"/><path d="M232.13385,394.60072v-2.7799h3.42141v2.7799z" fill="url(#color-9)"/><path d="M229.35096,393.14038v-4.13191h20.95273v4.13191z" fill="url(#color-10)"/></g><g data-paper-data="{&quot;index&quot;:null}" stroke="none" stroke-width="0"><path d="M247.76924,395.50534v2.7799h-3.42141v-2.7799z" fill="url(#color-11)"/><path d="M243.68111,395.53054v2.7799h-3.42141v-2.7799z" fill="url(#color-12)"/><path d="M239.61819,395.53054v2.7799h-3.42141v-2.7799z" fill="url(#color-13)"/><path d="M235.53006,395.55574v2.7799h-3.42141v-2.7799z" fill="url(#color-14)"/><path d="M250.27849,397.01608v4.13191h-20.95273v-4.13191z" fill="url(#color-15)"/></g><g stroke-width="0"><g><path d="M234.64971,348.96679c0,7.51115 -6.05855,13.60014 -13.53214,13.60014c-7.47359,0 -13.53214,-6.08899 -13.53214,-13.60014c0,-7.51115 6.05855,-13.60014 13.53214,-13.60014c7.47359,0 13.53214,6.08899 13.53214,13.60014z" fill="url(#color-16)" stroke="#000000"/><path d="M225.7021,349.03104c0,2.79133 -2.10854,5.05415 -4.70955,5.05415c-2.60101,0 -4.70954,-2.26282 -4.70954,-5.05415c0,-2.79133 2.10853,-5.05414 4.70954,-5.05414c2.60101,0 4.70955,2.26281 4.70955,5.05414z" fill="#000000" stroke="none"/></g><path d="M229.68021,346.50789c0,2.79133 -2.10854,5.05415 -4.70955,5.05415c-2.60101,0 -4.70954,-2.26282 -4.70954,-5.05415c0,-2.79133 2.10853,-5.05414 4.70954,-5.05414c2.60101,0 4.70955,2.26281 4.70955,5.05414z" fill="url(#color-17)" stroke="none"/></g><g stroke-width="0"><g><path d="M271.78202,349.10958c0,7.51115 -6.05855,13.60014 -13.53214,13.60014c-7.47359,0 -13.53214,-6.08899 -13.53214,-13.60014c0,-7.51115 6.05855,-13.60014 13.53214,-13.60014c7.47359,0 13.53214,6.08899 13.53214,13.60014z" fill="url(#color-18)" stroke="#000000"/><path d="M262.83441,349.17384c0,2.79133 -2.10854,5.05415 -4.70954,5.05415c-2.60101,0 -4.70954,-2.26282 -4.70954,-5.05415c0,-2.79133 2.10853,-5.05414 4.70954,-5.05414c2.60101,0 4.70954,2.26281 4.70954,5.05414z" fill="#000000" stroke="none"/></g><path d="M266.61948,346.50789c0,2.79133 -2.10854,5.05415 -4.70955,5.05415c-2.60101,0 -4.70954,-2.26282 -4.70954,-5.05415c0,-2.79133 2.10853,-5.05414 4.70954,-5.05414c2.60101,0 4.70955,2.26281 4.70955,5.05414z" fill="url(#color-19)" stroke="none"/></g><path d="M218.74685,376.52342v-4.15955h41.89415v4.15439z" fill="url(#color-20)" stroke="none" stroke-width="0"/></g><g stroke="none" stroke-width="0"><g><path d="M284.15882,354.01687c0,9.382 14.98001,18.28883 3.10071,34.60522c-12.34758,16.95958 -32.64757,20.43407 -47.93966,20.43407c-16.38761,0 -30.94316,0.06815 -47.0443,-21.7072c-10.92726,-14.77814 2.20535,-25.03522 2.20535,-33.33209c0,-24.52914 20.07508,-44.41394 44.83895,-44.41394c24.76387,0 44.83895,19.8848 44.83895,44.41394zM239.7709,402.13646c9.31575,0.17461 17.9223,-3.36897 24.16133,-7.6316c-0.04729,0.29296 -0.09727,0.57446 -0.00982,0.71397c0.65915,1.05154 1.66531,0.04942 2.10027,1.4817l-0.02566,0.22868c0,0 0,0.5 0.5,0.5c0.5,0 0.5,-0.5 0.5,-0.5l-0.02566,-0.54492c-0.21076,-0.5955 -0.60454,-1.38351 -1.25,-1.65762c-0.27786,-0.118 -0.94212,0.34446 -0.90452,0.04493c0.04102,-0.32686 0.06391,-0.63755 0.0419,-0.91738c5.57777,-4.02587 9.0342,-8.543 9.0342,-11.13685c0,-0.95812 -0.49105,-1.37903 -1.39263,-1.42048c0.42675,-1.33009 1.06174,-2.86542 -0.20336,-3.39596c-0.67037,-0.28113 -1.93382,0.13142 -2.20048,0.85079c-0.14799,0.39926 0.63785,1.07767 0.24972,1.25279c-0.15686,0.07077 -1.31934,0.0966 -1.54719,0.3868c-0.14112,0.17973 -0.01558,0.64543 -0.24404,0.64063c-0.44612,0.44612 -0.58177,0.97346 -0.83546,1.44663c-6.30295,2.27514 -16.65523,7.03001 -27.35312,7.00936c-22.14882,-0.04273 -32.87964,-11.86702 -32.87964,-6.34417c0,1.0739 0.53376,2.43541 1.52727,3.93456c-0.85539,0.07981 -1.61282,0.10535 -2.66622,-0.28102c-0.74804,-0.27437 -1.43225,0.24268 -2.02203,-0.01484c-0.02669,-0.14396 -0.12537,-0.41002 -0.4901,-0.41002c-0.5,0 -0.5,0.5 -0.5,0.5l0.22265,0.60943c1.6685,0.98347 4.03457,0.62578 6.1008,0.50389c4.62687,6.1054 16.17806,13.88954 30.11181,14.1507zM221.16247,363.94652c8.28427,0 15,-6.71573 15,-15c0,-8.28427 -6.71573,-15 -15,-15c-8.28427,0 -15,6.71573 -15,15c0,8.28427 6.71573,15 15,15zM258.8388,364.17625c8.28427,0 15,-6.71573 15,-15c0,-8.28427 -6.71573,-15 -15,-15c-8.28427,0 -15,6.71573 -15,15c0,8.28427 6.71573,15 15,15z" fill="url(#color-21)"/><path d="M239.55561,309.31383c19.63529,0 36.44363,11.49722 43.37125,27.79116c-1.4561,-1.33153 -3.01052,-2.56947 -4.67075,-3.70381c-2.03257,-3.11395 -4.53801,-3.70627 -8.08954,-3.70627c-0.84343,0 -2.03712,0.28078 -3.15492,0.34197c-0.75137,-0.1658 -1.5029,-0.32417 -2.2541,-0.47879c-0.22047,-0.16938 -0.40578,-0.39137 -0.54502,-0.6788c-1.14025,-1.558 -2.83112,-0.99465 -4.58528,-1.67242c-3.99493,-1.54355 -8.28072,-1.51475 -12.5693,-1.00228c-1.2122,-0.14875 -2.42336,-0.27517 -3.63577,-0.38071c-1.32066,-0.84927 -2.54798,-2.36465 -3.97277,-3.02955c-2.18229,-1.0184 -3.74992,0.84748 -5.40313,1.56709c-0.83433,0.36316 -1.92143,0.48117 -2.81903,0.93979c-3.15976,0.3802 -6.50733,-0.16716 -9.63745,0.36301c-0.53888,0.09127 -3.40881,0.72835 -3.81605,0.33026c-1.34432,-1.3141 -2.41424,-1.23414 -4.16925,-0.14644c-2.28671,3.46731 -5.89781,4.00828 -9.495,5.49727c-0.068,-0.38882 -0.49083,-0.38882 -0.49083,-0.38882c-1.66922,0.02994 -4.25923,1.80994 -6.20049,3.50018c7.55447,-14.87759 23.58394,-25.14282 42.13742,-25.14282z" fill="url(#color-22)"/></g><path d="M257.96444,329.98574c5.3999,-0.17828 10.56887,2.47365 10.60548,3.58256c0.03661,1.10891 -4.99204,-0.95942 -10.39195,-0.78114c-5.3999,0.17828 -9.92464,0.68964 -9.92464,0.68964c0,0 4.3112,-3.31278 9.71111,-3.49106z" fill="#000000"/><path d="M222.47172,332.3498c-5.3999,-0.17828 -10.42855,1.89005 -10.39194,0.78114c0.03661,-1.10891 5.20558,-3.76084 10.60548,-3.58256c5.3999,0.17828 9.74772,2.38216 9.71111,3.49107c0,0 -4.52475,-0.51137 -9.92465,-0.68965z" data-paper-data="{&quot;index&quot;:null}" fill="#000000"/></g><g stroke="none"><path d="M239.01653,430.08367c0.387,-0.258 0.726,-0.276 0.99914,-0.19688l-0.00858,-1.08384c0,0 0,-1.25 1.25,-1.25c1.25,0 1.25,1.25 1.25,1.25l-0.01208,1.18042c0.13808,0.48328 0.25467,1.03169 0.33482,1.6114l0.20936,0.73276c0.20444,0.71659 0.35695,1.43299 0.47071,2.14903c2.04601,4.40114 1.51283,10.23259 1.5101,14.88335c-0.01214,0.13091 -0.02466,0.26168 -0.03752,0.39233c1.40606,3.38903 3.46865,6.64075 3.71097,10.30372c0.23761,3.59174 -2.18062,6.6089 -1.75026,10.15446c0.16855,1.38863 3.59579,6.91729 4.99357,5.7349c1.24083,-1.26894 3.10771,-2.66384 3.57571,-4.49492c0.44099,-1.72541 -0.76171,-3.69433 -0.98846,-5.34216c-0.11819,-0.85896 0.12405,-3.87206 0.21094,-4.31069c0.50421,-2.54544 2.55455,-4.41187 3.81705,-6.55147c0.05316,-0.09009 0.10522,-0.17993 0.1562,-0.26952c-0.3771,-2.92694 -1.17311,-5.78693 -2.54478,-8.46144c-1.27437,-3.39293 -3.7698,-7.54429 -2.35975,-11.34175c2.14772,-5.78412 8.76747,-6.07824 13.73088,-7.74411c0.26672,-0.08952 0.52853,-0.17481 0.78645,-0.25426c0.13511,-0.05015 0.26988,-0.09771 0.40411,-0.14263c0.27175,-0.09094 0.54887,-0.1536 0.83017,-0.19229c1.64225,-0.37197 3.18954,-0.37403 4.94531,0.45802c0,0 0.39819,0.1991 0.60048,0.59729c0.87126,0.28052 1.71463,0.53229 2.49846,0.6371c0,0 1.23744,0.17678 1.06066,1.41421c-0.17678,1.23744 -1.41421,1.06066 -1.41421,1.06066c-1.84012,-0.27612 -5.16268,-2.09277 -7.26383,-1.73066c-0.18595,0.04924 -0.37278,0.10436 -0.56099,0.16315c-2.71287,1.09177 -6.23679,3.3513 -6.61462,6.46185c-0.31543,2.59677 0.76505,5.21758 0.78106,7.79298c0,4.23029 -0.32939,7.78208 -2.17327,11.50881c1.40488,9.79989 -1.55464,20.19407 -9.77723,26.0724c-4.28175,2.4128 -6.69066,-3.19833 -8.71778,-6.33875c-4.60353,-7.1318 -1.35215,-16.9343 -0.48004,-24.85583c-0.16486,-0.40552 -0.31749,-0.81138 -0.45284,-1.21799c-0.82746,-3.77572 -0.38512,-7.54573 -0.62269,-11.32897c-0.4992,0.32699 -1.06015,0.59983 -1.31231,1.11649c-0.48168,0.98695 -0.18233,2.78043 -0.25803,3.6198c-0.20995,2.32791 -1.38273,4.14389 -1.34771,6.4524c0,2.46471 1.10677,7.75887 -0.62274,9.82065c-0.49113,0.58548 -1.11649,0.90726 -1.81492,1.02829c-1.50189,1.1966 -3.647,1.71497 -3.96034,3.85426c-0.47608,3.25039 2.67311,3.98941 3.61195,6.52165c1.06808,2.88083 0.0099,6.12967 -2.55374,7.57121c-5.06139,3.63512 -12.84597,2.07044 -13.78521,-5.06607c-0.3396,-2.58029 2.92356,-6.85017 1.8284,-9.1335c-1.10883,-2.31184 -3.54967,-4.19269 -4.78223,-6.65751c-2.20605,-3.92074 -0.87157,-8.28686 -1.48556,-12.57375c-0.48866,-3.41179 -1.79318,-6.64183 -3.01538,-9.77864c-0.73318,-1.88172 -1.24593,-4.6668 -3.50915,-5.00643c-0.3671,0.20155 -0.74606,0.41048 -1.15917,0.61773c0,0 -1.11803,0.55901 -1.67705,-0.55902c-0.55901,-1.11803 0.55901,-1.67705 0.55901,-1.67705c0.12047,-0.06002 0.24291,-0.11956 0.36715,-0.17852c0.28788,-0.72704 1.15886,-0.72704 1.15886,-0.72704c0.16115,0.00661 0.31768,0.01739 0.46977,0.03224c5.17062,-1.96916 12.14052,-2.44125 13.71075,4.63285c0.80555,3.62914 -0.90963,6.14223 2.05016,9.12947c3.06259,1.73713 5.05706,4.22851 5.51028,7.80303c0.2472,1.94967 -0.31678,3.87476 0.79214,5.68835c0.51307,0.83911 1.10609,1.19761 1.92924,1.72797c0.19028,0.12259 1.82367,0.85807 2.86465,1.18848c0.88336,-2.78587 -0.31419,-6.74026 -0.90509,-9.41435c-0.30788,-3.04528 -1.51287,-7.1291 -0.75596,-10.15528c0.53497,-2.13884 2.36504,-4.65675 3.73747,-6.31502l0.03564,-0.14558c0,0 0.54762,-1.09523 1.64284,-0.57568c0.08275,-0.10135 0.19052,-0.19983 0.32901,-0.29216zM243.2807,466.12902c0,2.07989 -0.21701,4.26828 0.8202,6.18124c1.12913,2.0825 2.65265,3.95604 4.12263,5.79599c0.85145,1.06575 0.93292,2.1595 1.99348,1.11217c0.37797,-0.26973 0.74731,-0.55511 1.10915,-0.85256c-2.90041,-0.15922 -5.04372,-3.3478 -6.36003,-6.08537c-1.99996,-4.15938 1.50956,-7.94741 1.23216,-12.06918c-0.13467,-2.00111 -0.8992,-3.9342 -1.78187,-5.84225c-0.53782,3.89314 -1.13572,7.7485 -1.13572,11.75996zM258.43381,466.24465c0.36178,-2.41124 0.57255,-4.88039 0.54269,-7.33969c-0.81247,1.0679 -1.57291,2.18237 -1.80058,3.43273c-0.41797,2.29548 0.47535,4.50011 0.81827,6.6939c0.18793,-0.98054 0.31374,-1.94794 0.43962,-2.78695zM256.17321,435.97046c-1.17016,3.07489 1.26964,6.84183 2.28183,9.54538c0.80868,1.65296 1.47387,3.3891 1.98958,5.17441c0.55214,-2.20137 0.64301,-4.4348 0.64301,-6.99555c0.02084,-2.67238 -1.11255,-5.35029 -0.76613,-8.06577c0.19964,-1.56497 0.94412,-3.01922 1.99849,-4.28648c-2.67983,0.78828 -5.14418,1.99344 -6.14677,4.62802zM239.51682,433.07662l-0.43636,-0.64889l-0.15087,0.26984c-1.1381,1.35483 -2.78508,3.52837 -3.22491,5.28894c-0.57857,2.31596 0.25139,5.53939 0.64926,8.09974c0.35339,-1.31887 0.82656,-2.57439 0.95165,-4.06192c0.15429,-1.83487 -0.32988,-2.82077 0.51557,-4.50297c0.4564,-0.90813 1.62972,-1.26245 2.22077,-2.08929c0.22836,-0.31947 0.35802,-0.74637 0.41854,-1.22421c-0.27821,-0.40061 -0.59136,-0.77895 -0.94365,-1.13123zM214.17565,433.35298c1.2836,3.30729 2.65893,6.74206 3.1734,10.33489c0.55298,3.86176 -0.79176,8.33419 1.22203,11.79456c1.20953,2.41933 3.96533,4.50643 4.88774,6.88045c1.30636,3.36219 -2.09283,6.5852 -1.65278,9.81964c0.72875,5.35644 6.44499,5.82071 9.98521,3.21023c4.50555,-2.05462 -0.45038,-5.99697 -1.52617,-8.14631c-0.3854,-0.77 -0.80507,-3.49293 -0.68571,-4.21666c0.19666,-1.19242 1.22705,-2.85689 2.1718,-3.66072c0.20367,-0.17329 0.44874,-0.31563 0.71171,-0.44625c-1.93075,-0.86859 -3.72768,-2.37301 -4.4557,-3.55119c-1.84761,-2.99007 -0.39206,-6.52049 -1.97544,-9.5496c-0.79962,-1.52973 -2.28093,-2.43732 -3.71291,-3.26134c-1.33676,-1.32875 -2.50034,-2.69904 -2.97822,-4.60188c-0.47636,-1.89676 0.36966,-4.09062 0,-5.99538c-0.71609,-3.68986 -5.16104,-4.60516 -8.11688,-3.88843c1.43257,1.23099 2.14342,3.19479 2.95193,5.27799z" fill="#303030" stroke-width="0.5"/><path d="M233.87936,498.47094v-73.28108h13.09368v73.28108z" fill="url(#color-23)" stroke-width="0"/><path d="M201.19488,431.16798v-5.97811h78.46265v5.97811z" fill="url(#color-24)" stroke-width="0"/><path d="M212.60544,433.87557v-11.39329h55.64153v11.39329z" fill="url(#color-25)" stroke-width="0"/></g><g data-paper-data="{&quot;index&quot;:null}" stroke="none" stroke-width="0"><path d="M313.57123,450.02635c-4.40924,-3.24854 -5.40385,-9.38358 -2.22149,-13.70299c3.18235,-4.3194 9.33655,-5.18751 13.7458,-1.93897c4.40925,3.24854 5.40386,9.38357 2.2215,13.70298c-3.18235,4.31939 -9.33655,5.18751 -13.7458,1.93897z" fill="url(#color-26)"/><path d="M345.70447,471.84461l-32.54916,-20.96449l12.52161,-16.99558l29.82672,24.75934z" fill="url(#color-27)"/></g><g data-paper-data="{&quot;index&quot;:null}" stroke="none" stroke-width="0"><path d="M166.96738,450.02634c-4.40925,3.24855 -10.56345,2.38043 -13.7458,-1.93897c-3.18236,-4.31941 -2.18775,-10.45444 2.2215,-13.70298c4.40925,-3.24855 10.56345,-2.38044 13.7458,1.93897c3.18236,4.31941 2.18775,10.45445 -2.22149,13.70299z" fill="url(#color-28)"/><path d="M125.03498,458.64389l29.82672,-24.75934l12.52161,16.99558l-32.54916,20.96449z" fill="url(#color-29)"/></g><g data-paper-data="{&quot;index&quot;:null}" stroke="none" stroke-width="0"><path d="M277.76931,440.40071c-5.26716,-1.50052 -8.34541,-6.89979 -6.87546,-12.05962c1.46994,-5.15983 6.93144,-8.1263 12.19861,-6.62578c5.26716,1.50052 8.34541,6.8998 6.87547,12.05963c-1.46994,5.15983 -6.93144,8.1263 -12.19861,6.62578z" fill="url(#color-30)"/><path d="M314.86955,451.94116l-37.19114,-10.5951l5.78379,-20.30241l37.19114,10.5951z" fill="url(#color-31)"/></g><g data-paper-data="{&quot;index&quot;:null}" stroke="none" stroke-width="0"><path d="M202.76929,440.40072c-5.26716,1.50052 -10.72866,-1.46594 -12.19861,-6.62578c-1.46994,-5.15983 1.60831,-10.55911 6.87547,-12.05963c5.26716,-1.50052 10.72866,1.46594 12.19861,6.62578c1.46994,5.15983 -1.60831,10.5591 -6.87546,12.05962z" fill="url(#color-32)"/><path d="M159.88527,431.63874l37.19114,-10.5951l5.78379,20.30241l-37.19114,10.5951z" fill="url(#color-33)"/></g><g stroke="none"><path d="M211.84157,495.46885c0,0 0.9725,-38.61816 -1.35459,-53.30621c-1.58829,-10.02495 -11.07203,-23.20604 -11.07203,-23.20604c0,0 27.85125,-8.13816 41.79315,-8.03778c13.66885,0.09841 41.05528,8.63429 41.05528,8.63429c0,0 -10.95755,11.41446 -12.57961,20.82309c-2.51472,14.5865 -0.85609,55.09265 -0.85609,55.09265z" fill="url(#color-34)" stroke-width="0"/><g stroke-width="0.5"><path d="M216.78606,459.31432c-0.10703,-1.11993 1.0129,-1.22697 1.0129,-1.22697l0.66652,-0.0637c1.4153,-0.11661 2.14744,-0.7267 3.52064,-1.08757c2.17219,-0.57085 4.67284,-0.38163 6.92126,-0.74285c2.61275,-0.41975 5.12877,-1.1587 7.78185,-1.51155c0.13446,-0.00496 0.2689,-0.01058 0.40333,-0.01686c-2.40582,-2.11874 -4.99645,-4.00146 -7.41727,-6.10017c-1.36465,1.08805 -2.85273,2.02539 -4.19145,3.14958c0,0 -0.86223,0.72268 -1.58491,-0.13956c-0.72268,-0.86223 0.13956,-1.5849 0.13956,-1.5849c1.26038,-1.05448 2.65639,-1.94726 3.95137,-2.95757c-1.70848,-1.63577 -3.26977,-3.36382 -5.14461,-4.8558c-1.21784,-0.96914 -2.72627,-1.77054 -3.88611,-2.79153c-0.5315,-0.46786 -1.5144,-0.8327 -1.46421,-1.53901c0.06101,-0.85869 0.91593,-1.60441 1.711,-1.93445c0.66953,-0.27794 1.44197,0.1732 2.14931,0.33197c0.03758,0.00843 3.94809,1.1577 4.14276,1.21488c3.02398,1.16549 5.92068,1.93764 9.06926,2.53438c0.17054,0.03232 0.3406,0.06717 0.51022,0.10429c2.82625,-3.02703 5.61795,-6.09471 8.78691,-8.74801c0.8984,-0.86224 3.46139,-3.65651 5.0097,-3.23237c1.99031,0.54521 2.17521,5.44667 2.32509,7.00722c0.28685,2.98673 -0.00344,5.93976 -0.0701,8.91296c2.33094,0.41653 4.65299,0.88002 6.92217,1.54745c1.13882,0.07591 4.57424,0.50654 5.08911,1.66488c0.30685,0.69033 -0.33115,1.50259 -0.72495,2.14729c-0.90211,1.47685 -3.47246,2.29783 -4.93335,2.98677c-1.83852,0.86703 -3.73723,1.36026 -5.66503,1.80563c0.04502,0.59691 0.07975,1.19458 0.0982,1.79352c1.0591,3.75601 1.89509,8.23192 2.29868,12.1394c0.20631,1.99751 1.03997,5.60485 -2.65543,3.90211c-0.74362,-0.34264 -1.10852,-1.20947 -1.59429,-1.86855c-1.33298,-1.80852 -2.09782,-4.0653 -3.41913,-5.89884c-2.01738,-2.79946 -4.59704,-5.23319 -7.18395,-7.51095c-0.81609,0.08659 -1.64181,0.14785 -2.48137,0.17824c-2.59978,0.35019 -5.04825,1.07081 -7.60978,1.49023c-2.15567,0.35297 -4.65553,0.12467 -6.71755,0.69982c-1.44079,0.40187 -2.3368,0.98759 -3.87285,1.1498l-0.66651,0.0637c0,0 -1.11994,0.10703 -1.22697,-1.0129zM242.26281,456.33434c2.76898,2.55717 5.34139,5.32793 7.28923,8.56972c0.77283,1.28621 1.44885,2.71021 2.2646,3.97274c-0.11591,-0.94041 -0.10501,-2.00614 -0.17203,-2.34625c-0.6623,-3.36067 -1.03995,-6.92858 -1.9525,-10.20101c-0.02268,-0.54522 -0.05672,-1.08924 -0.09826,-1.63248c-0.26012,0.06103 -0.52055,0.12343 -0.78121,0.18798c-2.20663,0.54648 -4.36106,1.06779 -6.54982,1.4493zM248.93207,443.65341c0.09519,-1.70847 0.26451,-3.4146 0.21991,-5.12274c-0.04437,-1.6995 -0.21823,-3.49256 -0.49453,-5.16813c-0.07457,-0.45218 -0.16633,-0.90139 -0.24412,-1.35303c-0.08179,-0.47486 -0.20958,-0.9452 -0.23462,-1.4264c-0.00031,-0.00599 0,-0.01251 0.00086,-0.01948c-0.57542,0.86099 -2.165,1.83466 -2.81133,2.45899c-2.81616,2.36266 -5.33755,5.04884 -7.8503,7.74304c2.0718,0.6571 4.11414,1.46612 6.22432,1.91856c1.71504,0.36772 3.45105,0.66909 5.18981,0.96919zM248.87427,445.92705c-1.85011,-0.3205 -3.69881,-0.63744 -5.52573,-1.02747c-2.55244,-0.54493 -5.00944,-1.62161 -7.53556,-2.31038c-1.44219,1.53263 -2.90267,3.0446 -4.43487,4.477c2.88993,2.48825 6.01436,4.68058 8.76475,7.35017c3.11561,-0.35666 6.21414,-1.00997 9.26353,-1.79453c-0.21743,-2.16735 -0.47596,-4.33129 -0.52864,-6.51991c-0.00141,-0.05829 -0.00256,-0.11659 -0.00349,-0.17488zM229.70269,445.55335c1.22172,-1.1317 2.39635,-2.31585 3.55098,-3.5225c-2.9137,-0.58352 -5.64845,-1.34778 -8.47796,-2.44158c-0.20442,-0.05982 -1.53863,-0.4501 -2.60657,-0.76306c1.15804,0.82454 2.27697,1.70696 3.35963,2.62693c1.50138,1.27578 2.76479,2.74586 4.17391,4.10021zM251.13531,446.32581c0.06392,1.91165 0.2896,3.80702 0.4842,5.70341c0.67122,-0.18616 1.33964,-0.3768 2.0049,-0.57012c1.84071,-0.5349 3.70538,-1.36298 5.3913,-2.27569c0.39366,-0.21312 0.71347,-0.54778 1.0625,-0.83168c-0.8186,-0.08137 -1.86,-0.51482 -2.42068,-0.55219c-2.14157,-0.62602 -4.32702,-1.07442 -6.52221,-1.47373z" fill="#ad9600"/><path d="M218.33278,458.71173c-0.09991,-1.04531 0.94541,-1.14521 0.94541,-1.14521l0.6221,-0.05946c1.32101,-0.10885 2.00437,-0.67828 3.28607,-1.01511c2.02746,-0.53281 4.36149,-0.3562 6.4601,-0.69335c2.43867,-0.39178 4.78705,-1.0815 7.26336,-1.41084c0.1255,-0.00463 0.25098,-0.00988 0.37645,-0.01574c-2.24552,-1.97758 -4.66354,-3.73486 -6.92306,-5.69373c-1.27373,1.01556 -2.66267,1.89045 -3.91218,2.93973c0,0 -0.80479,0.67453 -1.47931,-0.13026c-0.67452,-0.80479 0.13026,-1.47931 0.13026,-1.47931c1.1764,-0.98423 2.47939,-1.81752 3.68809,-2.76051c-1.59465,-1.52678 -3.05191,-3.13969 -4.80183,-4.53226c-1.1367,-0.90457 -2.54462,-1.65258 -3.62719,-2.60553c-0.49608,-0.43669 -1.4135,-0.77722 -1.36666,-1.43646c0.05695,-0.80148 0.85491,-1.49751 1.597,-1.80557c0.62492,-0.25941 1.3459,0.16167 2.0061,0.30986c0.03508,0.00788 3.68503,1.08056 3.86673,1.13393c2.8225,1.08784 5.52619,1.80854 8.46499,2.36552c0.15918,0.03017 0.3179,0.0627 0.47622,0.09734c2.63794,-2.82534 5.24364,-5.68863 8.20146,-8.16514c0.83855,-0.80479 3.23075,-3.41288 4.67591,-3.01701c1.8577,0.50888 2.03028,5.08376 2.17018,6.54034c0.26773,2.78772 -0.00321,5.54401 -0.06543,8.3191c2.17563,0.38878 4.34296,0.82138 6.46095,1.44434c1.06295,0.07084 4.26946,0.47279 4.75003,1.55395c0.2864,0.64434 -0.30909,1.40248 -0.67665,2.00422c-0.842,1.37845 -3.2411,2.14473 -4.60465,2.78777c-1.71602,0.80926 -3.48822,1.26963 -5.28757,1.68533c0.04202,0.55714 0.07443,1.11497 0.09166,1.67401c0.98854,3.50575 1.76882,7.68344 2.14552,11.33057c0.19257,1.86443 0.97068,5.23141 -2.4785,3.64212c-0.69407,-0.31981 -1.03465,-1.1289 -1.48806,-1.74406c-1.24416,-1.68802 -1.95805,-3.79443 -3.19132,-5.5058c-1.88297,-2.61294 -4.29074,-4.88451 -6.70529,-7.01051c-0.76172,0.08082 -1.53242,0.138 -2.31605,0.16636c-2.42657,0.32685 -4.71189,0.99947 -7.10275,1.39094c-2.01204,0.32944 -4.34533,0.11636 -6.26997,0.65319c-1.34479,0.37509 -2.18111,0.9218 -3.61481,1.07319l-0.62211,0.05945c0,0 -1.04531,0.0999 -1.14522,-0.94541zM242.11205,455.9303c2.58449,2.38679 4.9855,4.97294 6.80356,7.99873c0.72134,1.20051 1.35231,2.52963 2.11371,3.70804c-0.10819,-0.87776 -0.09801,-1.87247 -0.16057,-2.18992c-0.61817,-3.13675 -0.97066,-6.46695 -1.82241,-9.52134c-0.02117,-0.5089 -0.05294,-1.01666 -0.09171,-1.52371c-0.24279,0.05696 -0.48586,0.11521 -0.72915,0.17546c-2.05961,0.51008 -4.07049,0.99664 -6.11342,1.35273zM248.33694,444.09428c0.08884,-1.59464 0.24689,-3.18709 0.20526,-4.78141c-0.04142,-1.58626 -0.2037,-3.25986 -0.46159,-4.82379c-0.06959,-0.42206 -0.15524,-0.84133 -0.22785,-1.26288c-0.07634,-0.44323 -0.19562,-0.88222 -0.21899,-1.33136c-0.00029,-0.00559 -0.00001,-0.01167 0.0008,-0.01818c-0.53708,0.80363 -2.02075,1.71241 -2.62402,2.29515c-2.62852,2.20524 -4.9819,4.71244 -7.32724,7.22713c1.93376,0.61332 3.84002,1.36844 5.8096,1.79073c1.60077,0.34321 3.22111,0.62451 4.84402,0.90461zM248.28299,446.21644c-1.72683,-0.29915 -3.45236,-0.59497 -5.15756,-0.95901c-2.38237,-0.50862 -4.67567,-1.51356 -7.03348,-2.15644c-1.3461,1.43052 -2.70927,2.84174 -4.13938,4.1787c2.69737,2.32246 5.61363,4.36873 8.18076,6.86044c2.90802,-0.3329 5.8001,-0.94269 8.64632,-1.67497c-0.20294,-2.02294 -0.44425,-4.0427 -0.49342,-6.0855c-0.00131,-0.05441 -0.0024,-0.10881 -0.00325,-0.16322zM230.38879,445.86763c1.14032,-1.0563 2.23668,-2.16156 3.31438,-3.28781c-2.71957,-0.54464 -5.2721,-1.25798 -7.91309,-2.2789c-0.1908,-0.05584 -1.43612,-0.42011 -2.4329,-0.71221c1.08089,0.7696 2.12526,1.59322 3.13578,2.4519c1.40135,1.19077 2.58059,2.56291 3.89582,3.82702zM250.39338,446.58863c0.05966,1.78428 0.27031,3.55336 0.45194,5.3234c0.6265,-0.17375 1.25037,-0.35169 1.87131,-0.53213c1.71806,-0.49926 3.45849,-1.27218 5.03208,-2.12407c0.36744,-0.19892 0.66593,-0.51127 0.9917,-0.77626c-0.76405,-0.07594 -1.73606,-0.48052 -2.25939,-0.5154c-1.99888,-0.58431 -4.03872,-1.00284 -6.08765,-1.37554z" fill="#ffdf00"/></g></g><g stroke="none" stroke-width="0"><path d="M383.64583,465.87004c-5.15831,2.32917 -7.78345,-1.78283 -14.66934,-3.38297c-6.88591,-1.60015 -12.35052,-2.42526 -11.45153,-7.27169c0.86038,-4.63822 9.20592,-2.47134 16.09183,-0.87121c6.88592,1.60013 14.57462,7.5251 10.02904,11.52587z" fill="url(#color-35)"/><path d="M383.09848,446.00168c-3.44482,4.49067 -7.7018,2.10782 -14.52627,3.95242c-6.82449,1.84459 -12.03016,3.70036 -13.52864,-0.99542c-1.43412,-4.49406 6.94455,-6.52915 13.76903,-8.37375c6.82449,-1.84459 16.40063,-0.25743 14.28586,5.41675z" fill="url(#color-36)"/><path d="M362.50614,440.05364c-6.21452,3.36987 -10.85133,6.377 -13.39313,2.15382c-2.43261,-4.04175 5.25016,-7.95566 11.46467,-11.32553c6.21452,-3.36987 15.89844,-4.0357 15.15035,1.97337c-2.31538,5.1645 -7.00738,3.82847 -13.22189,7.19834z" fill="url(#color-37)"/><path d="M357.05815,469.03141c-6.56942,5.66708 -10.81532,11.13284 -20.9554,-0.61486c-9.70446,-11.243 -3.73491,-15.4701 2.83448,-21.13719c6.56942,-5.66708 10.07594,-12.71477 20.9554,0.61486c10.02971,12.28849 3.73491,15.4701 -2.83448,21.13719z" fill="url(#color-38)"/><path d="M338.52139,458.64671c-5.65568,2.16373 -7.32557,-7.39834 -5.54002,-14.2385c1.78555,-6.84018 3.74815,-15.23613 8.25443,-13.84092c4.70856,1.45785 2.89787,6.67935 1.11232,13.51953c-1.78555,6.84018 0.63403,11.07639 -3.82672,14.55991z" data-paper-data="{&quot;index&quot;:null}" fill="url(#color-39)"/></g><g data-paper-data="{&quot;index&quot;:null}" stroke="none" stroke-width="0"><path d="M106.92182,454.34416c6.8859,-1.60012 15.23145,-3.76701 16.09183,0.87121c0.89899,4.84643 -4.56562,5.67155 -11.45153,7.27169c-6.88589,1.60013 -9.51104,5.71213 -14.66934,3.38297c-4.54558,-4.00077 3.14313,-9.92574 10.02904,-11.52587z" fill="url(#color-40)"/><path d="M97.44015,446.00168c-2.11477,-5.67418 7.46137,-7.26134 14.28586,-5.41675c6.82448,1.8446 15.20315,3.87969 13.76903,8.37375c-1.49848,4.69578 -6.70415,2.84001 -13.52864,0.99542c-6.82448,-1.8446 -11.08145,0.53826 -14.52627,-3.95242z" fill="url(#color-41)"/><path d="M104.81058,432.8553c-0.7481,-6.00908 8.93583,-5.34324 15.15035,-1.97337c6.21452,3.36987 13.89728,7.28378 11.46467,11.32553c-2.5418,4.22318 -7.17861,1.21605 -13.39313,-2.15382c-6.21452,-3.36987 -10.90651,-2.03384 -13.22189,-7.19834z" fill="url(#color-42)"/><path d="M120.64598,447.89422c10.87946,-13.32964 14.38598,-6.28194 20.9554,-0.61486c6.56939,5.66709 12.53894,9.89419 2.83448,21.13719c-10.14008,11.74771 -14.38598,6.28194 -20.9554,0.61486c-6.56939,-5.66709 -12.86419,-8.8487 -2.83448,-21.13719z" fill="url(#color-43)"/><path d="M142.01722,458.64673c-4.46075,-3.48352 -2.04117,-7.71973 -3.82672,-14.55991c-1.78555,-6.84018 -3.59624,-12.06168 1.11232,-13.51953c4.50628,-1.39521 6.46888,7.00074 8.25443,13.84092c1.78555,6.84016 0.11566,16.40224 -5.54002,14.2385z" data-paper-data="{&quot;index&quot;:null}" fill="url(#color-44)"/></g></g></g></svg>