<svg version="1.1" xmlns="http://www.w3.org/2000/svg" xmlns:xlink="http://www.w3.org/1999/xlink" width="154.73151" height="44.41721" viewBox="0,0,154.73151,44.41721"><defs><linearGradient x1="162.63424" y1="202.2086" x2="235.82881" y2="202.2086" gradientUnits="userSpaceOnUse" id="color-1"><stop offset="0" stop-color="#878787"/><stop offset="1" stop-color="#acacac"/></linearGradient><linearGradient x1="238.86576" y1="195.87474" x2="317.36576" y2="195.87474" gradientUnits="userSpaceOnUse" id="color-2"><stop offset="0" stop-color="#a2a2a2"/><stop offset="1" stop-color="#e9e9e9"/></linearGradient></defs><g transform="translate(-162.63424,-157.7914)"><g data-paper-data="{&quot;isPaintingLayer&quot;:true}" fill-rule="nonzero" stroke-width="0" stroke-linecap="butt" stroke-linejoin="miter" stroke-miterlimit="10" stroke-dasharray="" stroke-dashoffset="0" style="mix-blend-mode: normal"><path d="M235.82881,202.2086c0,0 -18.23331,-6.45142 -36.49919,-6.43667c-18.33128,0.0148 -36.69537,6.43667 -36.69537,6.43667c0,0 4.65999,-11.97682 15.89712,-22.75859c2.59279,-2.48772 11.62483,-11.5832 20.33531,-12.08506c8.95618,-0.51602 17.7911,8.75111 20.40131,11.19357c11.49322,10.75461 16.56083,23.65008 16.56083,23.65008zM198.93718,193.03142c13.4165,-0.07343 7.96247,-20.76069 7.96247,-20.76069c0,0 -3.56492,-2.14763 -7.96247,-2.14763c-4.39754,0 -7.96247,2.37188 -7.96247,2.37188c0,0 -5.28864,20.60897 7.96247,20.53644zM190.35956,191.10805c0,0 -2.18347,-3.91861 -2.0806,-6.27143c0.13239,-3.02812 0.45415,-10.38802 0.45415,-10.38802c0,0 -5.44625,4.32318 -7.99273,8.77245c-2.27406,3.9733 -3.24909,10.12954 -3.24909,10.12954zM207.76762,191.17272l13.98907,2.17786c0,0 -2.11404,-7.69602 -4.27996,-11.12494c-1.86241,-2.94843 -7.94303,-8.22556 -7.94303,-8.22556c0,0 0.33587,6.97057 0.33587,9.48333c0,2.51276 -2.10196,7.6893 -2.10196,7.6893z" fill="url(#color-1)" stroke="none"/><path d="M238.86576,200.12474v-8.5c0,0 11.84654,-2.09648 23.68711,-3.2539c1.50263,-0.14688 4.15004,-15.22241 4.15004,-15.22241l3.49654,14.62937l7.74964,-29.9864l8.01784,29.99031l4.37786,-14.26723c0,0 2.06,14.73977 3.51475,14.88294c11.81312,1.16262 23.50622,3.22731 23.50622,3.22731v8.5c0,0 -26.30567,-4 -39.41667,-4c-13.05544,0 -39.08333,4 -39.08333,4z" fill="url(#color-2)" stroke="#000000"/></g></g></svg>