<svg version="1.1" xmlns="http://www.w3.org/2000/svg" xmlns:xlink="http://www.w3.org/1999/xlink" width="53.22124" height="48.67609" viewBox="0,0,53.22124,48.67609"><g transform="translate(-279.52276,-107.6325)"><g data-paper-data="{&quot;isPaintingLayer&quot;:true}" fill="#ff0000" fill-rule="nonzero" stroke-linecap="butt" stroke-linejoin="miter" stroke-miterlimit="10" stroke-dasharray="" stroke-dashoffset="0" style="mix-blend-mode: normal"><path d="" stroke="none" stroke-width="0.5"/><path d="" stroke="none" stroke-width="0.5"/><path d="" stroke="none" stroke-width="0.5"/><path d="" stroke="none" stroke-width="0.5"/><path d="" stroke="none" stroke-width="0.5"/><path d="" stroke="none" stroke-width="0.5"/><g stroke="none" stroke-width="0.5"><path d="M296.78507,144.29231c-0.47046,-0.76259 0.13727,-1.26974 0.29733,-1.3851c0.42563,-0.48221 1.57406,-1.78914 1.83431,-1.93625c1.79287,-1.0134 4.05277,-0.63147 5.97377,-0.9316c1.45007,-0.32972 2.72625,-1.01411 3.92005,-1.86254c-0.02995,-0.02926 -0.05989,-0.0585 -0.08983,-0.08776c-0.52597,-0.0048 -1.04546,-0.01538 -1.55416,-0.0273c-0.7145,-0.15586 -1.48093,-0.15803 -2.1435,-0.46756c-2.10411,-0.98301 -3.00356,-3.63106 -4.99581,-4.94175c-1.20538,-0.79302 -2.83603,-0.92132 -4.23676,-0.89507l-0.68221,0.06399c0,0 -1.02066,0.09121 -1.11187,-0.92945c-0.09121,-1.02066 0.92945,-1.11187 0.92945,-1.11187l0.8393,-0.07197c2.60095,-0.01839 4.68149,0.57129 6.7202,2.24585c1.79242,1.47225 2.15226,3.19253 4.20356,3.88744c-1.62593,-2.13714 -2.88889,-4.65978 -4.2745,-6.92863c-0.89691,-1.46864 -0.7525,-3.73097 -1.94736,-4.94356c-2.0242,-2.05426 -4.49716,-2.194 -3.43379,-5.76156c0,0 0.312,-0.97607 1.28808,-0.66406c0.97607,0.312 0.66406,1.28808 0.66406,1.28808c-0.89819,2.54001 3.0387,3.20714 3.996,5.39159c0.39509,0.90155 0.34168,1.95282 0.7054,2.86748c1.32807,3.33988 3.74106,6.22689 6.12734,8.95835c0.01617,-0.00013 0.03233,-0.00027 0.0485,-0.00041c-0.1832,-0.97753 -0.12133,-1.99443 0.0257,-2.96582c0.00681,-0.02149 0.01643,-0.05212 0.02846,-0.09049c-0.64538,-2.70222 -1.4628,-5.30393 -3.60352,-7.37075c-1.31757,-1.27209 -3.2124,-2.47512 -3.67419,-4.48947c-0.31453,-1.37198 0.69864,-2.85833 1.29132,-3.96218c0.6099,-1.13594 1.14846,-2.27934 1.76065,-3.39335c-0.12619,-0.10811 -0.23684,-0.26707 -0.31025,-0.498c-0.31045,-0.97657 0.66612,-1.28702 0.66612,-1.28702l0.71478,0.02431c0.0578,-0.0796 0.61882,-0.80795 1.41937,-0.2605c0.59965,0.41006 0.48349,0.95452 0.36507,1.23675c0.26031,0.2889 0.47012,0.62971 0.61205,1.12192c0.55074,1.90993 -0.6854,3.75999 0.20837,5.69598c1.16015,2.51299 3.49014,4.22583 5.37115,6.22825c0.23275,-1.40655 0.20997,-2.87422 0.89986,-4.17266c0.65242,-1.22791 1.6562,-1.86257 2.78832,-2.56327l0.0969,-0.05979c0,0 0.87212,-0.53804 1.41015,0.33409c0.53803,0.87212 -0.33408,1.41015 -0.33408,1.41015l-0.0969,0.05979c-2.80723,1.72559 -2.17923,4.21828 -3.21618,6.93277c0.02065,0.03229 0.0411,0.06472 0.06137,0.09726c0.68773,1.12402 1.00183,2.38134 1.2566,3.65685c0.02537,-0.00909 0.05077,-0.01807 0.07624,-0.02695c3.89218,-1.35593 7.59711,2.79451 11.39224,2.90284c0,0 1.02409,0.03609 0.988,1.06018c-0.03609,1.02409 -1.06018,0.988 -1.06018,0.988c-1.59458,-0.06495 -3.46325,-0.36196 -4.91023,-1.08915c-1.51317,-0.76047 -3.83527,-2.66465 -5.7981,-1.90583c-0.09449,0.03652 -0.18826,0.07613 -0.28133,0.11855c0.05987,0.26848 0.12467,0.53502 0.19743,0.79846c2.56355,0.23352 3.99793,1.9435 6.31296,2.65767c2.91113,0.89807 4.66141,0.80979 6.41586,3.64532c0,0 0.09659,0.15658 0.14158,0.37797c-0.75595,0.04309 -1.51147,0.08218 -2.26182,0.14396c-1.32526,-1.75548 -2.66984,-1.50042 -4.92617,-2.2172c-1.75509,-0.55756 -3.02242,-1.7335 -4.69737,-2.29701c0.10197,0.15873 0.21188,0.3145 0.33067,0.46693c1.13312,1.45389 2.38707,3.33173 3.79265,4.50132c0.19999,0.16641 0.40286,0.31974 0.60675,0.4642c-0.92382,0.10886 -1.84476,0.2127 -2.76208,0.32392c-1.18391,-1.20848 -2.29099,-2.7503 -3.25372,-4.02946c-0.41629,-0.55311 -0.72769,-1.13625 -0.97205,-1.73807c-0.27146,0.16091 -0.54618,0.35477 -0.94502,0.47036c-0.58033,0.16819 -1.17901,0.30011 -1.78911,0.40296c1.38033,1.69043 3.08671,3.04953 4.49112,4.97349c0.0543,0.07439 0.10752,0.14932 0.15971,0.22477c-0.76527,0.11129 -1.52755,0.23515 -2.28643,0.37896c-0.8956,-1.10426 -1.84718,-2.04881 -2.75157,-3.01283c0.1853,0.51442 0.33274,1.04184 0.41044,1.59124c0.29241,0.56329 0.54185,1.14742 0.72974,1.76075c-0.36148,0.08432 -0.7221,0.17442 -1.08182,0.27111c-0.65957,0.1773 -1.30259,0.23378 -1.90495,0.32891c0.11031,-0.38182 0.19029,-0.74455 0.23798,-1.04743c0.03717,-0.23607 0.0561,-0.46424 0.05917,-0.68578c-0.55811,-0.99322 -1.27722,-1.90945 -1.96852,-2.81479c-0.01105,-0.013 -0.02214,-0.02599 -0.03324,-0.03893c-1.58184,1.05467 -3.27135,1.95709 -4.98617,2.37032c-1.58465,0.22692 -3.86609,-0.11106 -5.33246,0.69223c-0.63292,0.34672 -0.94457,1.09139 -1.42394,1.63085l-0.32482,0.25117c0,0 -0.87212,0.53804 -1.41015,-0.33409zM313.60365,128.75091c0.1402,-0.16592 0.26339,-0.33591 0.37206,-0.50934c-1.99229,-2.60286 -5.09615,-4.46636 -6.46393,-7.55977c-0.73383,-1.65963 -0.12847,-3.6549 -0.381,-5.26261c-0.46943,0.89828 -0.90598,1.81209 -1.39417,2.71921c-0.28664,0.53262 -1.30673,1.8598 -1.08827,2.58962c0.6043,2.01886 2.97202,3.24537 4.1307,4.84416c1.14675,1.58234 1.86895,3.07348 2.41544,4.6432c0.76489,-0.57458 1.7699,-0.70786 2.40918,-1.46448zM313.89997,131.05796c-0.49207,0.3149 -1.21656,0.3568 -1.53437,0.84698c-0.21483,0.33136 -0.27926,0.73061 -0.35618,1.12528c0.14168,0.56972 0.27975,1.15885 0.42332,1.7736c0.03461,0.08809 0.07021,0.17498 0.10675,0.26072c1.06248,-0.92667 2.14059,-1.81418 3.31185,-2.50106c-0.18058,-0.8315 -0.39645,-1.65005 -0.73556,-2.42933c-0.26981,0.29486 -0.61767,0.54101 -1.21582,0.92379zM316.36124,135.01179c-0.01236,-0.05261 -0.02454,-0.10528 -0.03652,-0.15798c-0.14893,0.11762 -0.29625,0.23876 -0.44214,0.36203c0.15996,-0.06455 0.31928,-0.1346 0.47865,-0.20404z"/><path d=""/><path d=""/><path d=""/><path d="M306.44611,153.17195c0,0 -0.51279,0.88719 -1.39999,0.3744c-0.8872,-0.51279 -0.37441,-1.39999 -0.37441,-1.39999c0.88092,-1.50557 1.67459,-2.42453 2.9875,-3.57684c0.34654,-0.30415 0.72721,-0.51814 1.11509,-0.70747c-0.07455,0.74217 -0.04732,1.54684 0.01106,2.36984c-0.96339,0.81718 -1.72805,1.8671 -2.33925,2.94006z"/><path d=""/><path d="M294.98526,118.53993c-0.31227,-1.21408 0.84688,-1.69505 0.84688,-1.69505l0.54978,-0.22813c0.27737,-0.11509 0.57682,-0.22397 0.88738,-0.33178c-0.03526,-1.12248 -0.23848,-2.32039 0.42493,-3.07397c1.09161,-1.23998 3.83097,-0.76942 5.31955,-1.18322c0,0 0.52749,-0.14028 1.04911,0.08549c1.48444,-0.38333 3.82408,-0.61606 4.75034,-0.35391c2.51067,0.71058 2.72764,2.78408 4.5207,4.22734c0.72503,0.58357 1.75444,0.42705 2.62634,0.66939c1.38038,0.38367 3.07913,1.28006 4.08965,2.42952c1.08751,1.23704 1.56721,4.42059 3.29208,5.05873c0.66125,0.24464 1.36929,0.24371 2.05394,0.36557c0.30004,0.99178 0.77321,1.95615 0.90013,2.97533c0.00151,0.01218 -0.56011,2.15022 -0.21132,2.64082c0.31478,0.44277 0.90972,0.5983 1.25608,1.01593c1.42781,1.72163 2.84487,4.88329 3.58673,6.98716c0.34936,0.9908 0.45377,2.08222 0.34952,3.11993c-1.03325,0.06012 -2.06647,0.10842 -3.08758,0.213c0.17375,-0.41195 0.32515,-0.82858 0.31487,-1.27559c-0.00653,-0.2842 -0.97814,-2.41835 -1.01623,-2.49267c-0.70692,-1.37946 -1.39978,-3.4214 -2.40294,-4.61043c-0.4724,-0.55992 -1.24849,-0.85512 -1.59164,-1.50357c-0.77903,-1.47211 -0.72131,-3.40778 0.01532,-4.74509c-3.86503,0.96542 -3.99934,-4.95744 -6.59479,-6.46552c-1.9393,-1.12682 -3.29207,-0.43116 -5.28788,-1.90877c-0.88128,-0.65246 -2.1724,-3.45744 -3.2894,-3.63529c-0.42185,-0.06716 -0.80638,0.2255 -1.22564,0.25598c-0.74018,0.05381 -1.76215,-0.26506 -2.46536,0.17658c-0.92985,0.58398 -1.42456,1.72781 -2.33551,2.34108c-0.6569,0.44224 -1.46995,0.78391 -2.3006,1.09183v-0.00006c-0.50774,0.96749 -1.76977,1.3485 -2.66176,1.98789c-0.47093,0.33757 0.26434,1.21218 0.40989,1.81585c0.17205,0.71365 0.39582,1.44125 0.37303,2.16271c-0.08067,2.55286 -2.11912,3.75821 -1.88127,6.34292c0.18292,1.9878 1.66076,2.26272 2.3376,4.11556c0.27763,0.76001 0.16758,1.58996 0.25136,2.38493c-0.2036,1.8466 0.50417,2.67497 1.23791,4.42421c0.11879,0.28319 0.06602,0.70789 0.32688,0.86037c0.36454,0.21309 0.83121,-0.10743 1.22024,0.044c0.84601,0.32931 1.73434,0.70314 2.39206,1.36207c1.01713,1.01902 0.82578,2.21677 1.53341,3.31794c0.66306,1.0318 1.97493,1.69872 3.20866,2.28868c0.06452,1.16426 0.21802,2.38185 0.25468,3.52408c-1.94288,-1.13277 -4.47996,-2.10015 -5.89564,-4.10578c-0.61323,-0.86877 -0.52038,-2.14893 -1.22984,-2.93772c-0.47929,-0.53286 -2.89955,-0.80406 -3.05226,-0.91759c-2.07518,-1.54291 -3.15505,-5.81155 -3.03486,-8.07395c-0.06065,-2.36937 -2.3054,-3.5238 -2.57102,-6.1629c-0.24487,-2.43301 -0.1784,-2.4461 0.7815,-4.37116c0.30712,-0.61594 1.07813,-1.5635 1.08314,-2.40622c0.01392,-2.34368 -1.79427,-3.43909 -0.10814,-5.80651z" data-paper-data="{&quot;index&quot;:null}"/><path d="" data-paper-data="{&quot;index&quot;:null}"/></g><path d="" data-paper-data="{&quot;index&quot;:null}" stroke="none" stroke-width="0.5"/><path d="" stroke="none" stroke-width="0.5"/><path d="" stroke="none" stroke-width="0.5"/><g><path d="M307.62237,142.53295l-3.8021,-6.16295l0.69769,-0.43042l3.8021,6.16295z" stroke="none" stroke-width="0"/><path d="M320.45217,134.61787l-3.8021,-6.16296l0.69769,-0.43043l3.8021,6.16296z" stroke="none" stroke-width="0"/><path d="M301.00092,139.5096l-0.7555,-1.22461l20.49613,-12.64465l0.75549,1.22461z" stroke="none" stroke-width="0"/><g stroke-width="0"><path d="M320.31694,126.87647c1.07571,1.74365 0.5966,3.99074 -1.07014,5.01899c-1.66674,1.02826 -3.88991,0.4483 -4.96562,-1.29536c-1.07571,-1.74365 -0.5966,-3.99073 1.07013,-5.01898c1.66674,-1.02826 3.88992,-0.44831 4.96563,1.29535z" stroke="none"/><g stroke="#a70000"><path d="M318.55171,128.02777c0.43,0.69699 0.22841,1.60143 -0.45024,2.02011c-0.67865,0.41868 -1.57739,0.19306 -2.00738,-0.50393c-0.43,-0.69699 -0.22843,-1.60143 0.45024,-2.02011c0.67865,-0.41868 1.57739,-0.19306 2.00739,0.50393z"/><path d="M318.25837,128.20874c0.32736,0.53062 0.17389,1.21916 -0.34276,1.53789c-0.51664,0.31874 -1.20085,0.14698 -1.5282,-0.38363c-0.32736,-0.53062 -0.1739,-1.21914 0.34276,-1.53789c0.51664,-0.31874 1.20085,-0.14698 1.52821,0.38364z"/></g><path d="M320.31694,126.87647c0.00791,0.01282 -1.96843,0.22872 -3.48043,1.17579c-1.4931,0.93522 -2.52183,2.60215 -2.55532,2.54785c-1.07571,-1.74365 -0.59661,-3.99073 1.07013,-5.01899c1.66674,-1.02826 3.88993,-0.4483 4.96564,1.29535z" stroke="none"/></g><path d="" stroke="none" stroke-width="0"/><path d="M316.42026,137.88954l0.77931,-0.47429l3.25989,5.31817c-0.33059,0.04182 -0.66069,0.08501 -0.99025,0.13016z" stroke="none" stroke-width="0"/><path d="" stroke="none" stroke-width="0"/><path d="M312.22396,140.44346l0.7793,-0.4743l2.22874,3.63596c-0.3117,0.07011 -0.62277,0.14435 -0.93318,0.22326z" stroke="none" stroke-width="0"/><path d="" stroke="none" stroke-width="0"/><g stroke="none" stroke-width="0"><path d=""/><path d=""/></g><path d="M305.08983,143.61787l18.35698,-11.27154l1.11829,1.80966l-18.35943,11.27238z" stroke="none" stroke-width="0"/><g><path d="M307.8989,142.2674c-1.30264,-1.02655 -1.19273,-1.83894 -1.91394,-3.12625c-0.38527,-0.68768 -1.20725,-0.98721 -1.67218,-1.58635c-0.49912,-0.64319 -0.28424,-1.3586 -0.51781,-2.06924c0,0 -0.10348,-0.32552 0.22204,-0.429c0.32553,-0.10348 0.429,0.22204 0.429,0.22204c0.18509,0.5979 0.00099,1.34423 0.40555,1.85621c0.48735,0.61671 1.3308,0.93869 1.72686,1.66799c0.66796,1.23001 0.48707,1.93453 1.69109,2.89074c1.36094,0.69897 1.60827,1.85005 2.26949,2.99695c-0.1925,0.10253 -0.3765,0.22921 -0.55077,0.38831c-0.60552,-1.08176 -0.86015,-2.17094 -2.08933,-2.8114z" stroke="none" stroke-width="0.5"/><path d="M308.63468,141.96193c-0.88583,-1.44774 -2.34178,-1.83287 -3.70522,-2.61105c-0.97239,-0.55499 -1.68089,-1.99447 -2.14611,-2.97417c0,0 -0.14614,-0.30873 0.16259,-0.45489c0.30873,-0.14614 0.45488,0.1626 0.45488,0.1626c0.34191,0.72477 0.90042,1.89757 1.52969,2.42036c1.41397,1.1747 3.21076,1.36883 4.28558,3.09846c0.72264,1.1737 0.27498,2.4119 0.69496,3.5488c-0.16715,0.16481 -0.32486,0.36165 -0.47196,0.59819c-0.60313,-1.26768 -0.04421,-2.55835 -0.80441,-3.7883z" stroke="none" stroke-width="0.5"/><g stroke-width="0"><path d="M307.10537,149.15454c-1.07571,-1.74365 -0.5966,-3.99073 1.07013,-5.01899c1.20567,-0.74381 2.70251,-0.6461 3.84556,0.12488c-1.12765,0.17335 -2.11646,0.4646 -2.81018,1.90762c-0.58434,1.21551 -0.52732,2.82748 -0.39357,4.48288c-0.68005,-0.29791 -1.28597,-0.80591 -1.71194,-1.4964z" stroke="none"/><path d="" stroke="none"/><g stroke="#a70000"><path d=""/><path d=""/></g></g></g><path d="M307.52588,134.76766c0.00791,0.01282 -1.72932,0.61634 -3.24131,1.56339c-1.4931,0.93522 -2.76096,2.21454 -2.79446,2.16025c-1.07571,-1.74365 -0.5966,-3.99073 1.07013,-5.01898c1.66674,-1.02826 3.88993,-0.44831 4.96564,1.29535z" stroke="none" stroke-width="0"/></g><path d="M307.45635,147.83184c0,0.14319 -0.01204,0.28357 -0.03516,0.42018l0.00569,0.07393l-0.02515,0.02811c-0.04627,0.21775 -0.1209,0.42502 -0.21982,0.61776c0.50126,0.30472 1.04575,0.5724 1.57581,0.82587c0.05233,0.94422 0.16318,1.92351 0.22276,2.86924c0,0 0,0 0.00001,0c0.03492,0.55418 0.05223,1.09684 0.02985,1.61415c-0.09448,0.38402 -0.1446,0.78549 -0.1446,1.19866c0,0.00092 0,0.00185 0,0.00277c-0.01419,0.06541 -0.0295,0.13011 -0.04601,0.19406c0,0 -0.07399,0.29597 -0.00265,0.63202c-0.88124,-0.06375 -1.41378,-0.34036 -2.91205,-1.2269l0,0.00001c-2.46724,-1.45988 -2.39807,-4.20403 -4.70911,-5.33882c-2.30277,-0.90736 -5.94264,-3.91189 -6.34925,-6.66452c-0.02992,-0.20255 1.00763,-2.71967 0.73913,-3.43549c-0.39747,-1.0596 -1.71389,-1.54845 -2.24241,-2.54915c-1.25164,-2.36984 -0.78587,-5.41139 -0.88711,-7.88205c-0.04818,-1.17571 -0.9939,-2.20506 -1.01306,-3.3816c-0.00466,-0.28596 0.04397,-0.58004 0.11717,-0.87918c-1.74859,-0.19896 -3.62595,0.26898 -5.19584,1.19709c-0.82713,0.48899 -1.30157,1.66013 -1.85698,2.39791c-0.93838,1.24652 -1.79429,1.71481 -3.08614,2.51178l-0.57743,0.35623c0,0 -0.72676,0.44836 -1.17513,-0.2784l-0.00001,0.00002c-0.44835,-0.72677 0.27841,-1.17513 0.27841,-1.17513l0.57743,-0.35623c0.6028,-0.37188 1.29608,-0.62328 1.81416,-1.10625c1.18973,-1.10912 1.70472,-2.89933 3.12896,-3.80346c1.9925,-1.26486 4.35904,-1.74336 6.55668,-1.37821c0.08557,-0.37912 0.13049,-0.75758 0.08093,-1.12962c-0.1049,-0.78746 -0.78657,-1.5108 -0.64892,-2.29318c0.44017,-2.50199 3.67797,-4.76595 5.84477,-5.89022c0.07069,-0.29519 0.1921,-0.56407 0.39296,-0.79222c0.52769,-0.59941 1.44042,-0.7991 2.41078,-0.8922c0.35791,-0.18031 0.71751,-0.357 1.07131,-0.53979c2.87116,-1.4834 4.00367,-4.29907 7.68742,-4.14005c1.93108,0.08337 3.90082,1.0284 4.77272,2.89133c0.23886,0.51037 -0.4257,1.09672 -0.34643,1.65461c0.09387,0.66057 1.29992,0.25585 1.96778,0.36583c1.02129,-0.42409 2.13487,-0.67665 2.93953,-0.86228c0.58823,-0.13569 1.11031,-1.98488 1.90367,-2.50652l0.57372,-0.59724c0,0 0.59632,-0.61124 1.20756,-0.01492l0,0.00001c0.61124,0.59632 0.01491,1.20756 0.01491,1.20756l-0.7286,0.73767c-1.20281,0.67768 -0.93463,2.17177 -2.29826,2.74313c-0.42478,0.17799 -0.92882,-0.03805 -1.3815,0.0444c0.67698,0.34401 1.30241,0.78406 1.82633,1.31026c1.68088,1.68818 4.04378,4.5241 4.97646,6.71743c0.22625,0.53206 0.05911,1.19111 0.32724,1.70334c0.2971,0.56757 2.71506,0.98187 2.72629,0.9889c0.93968,0.58786 1.63834,1.49337 2.45751,2.24006c-0.24885,0.73253 -0.63178,1.43248 -0.74654,2.19755c-0.29938,1.99569 2.59094,3.9143 3.22786,5.5512c0.59182,1.52101 0.56197,3.60801 0.19674,5.1475c-0.16434,0.69268 -0.57201,1.37261 -0.72568,2.0614c-1.03368,0.06544 -2.0692,0.10851 -3.09445,0.19748l-0.01175,0.00587l-0.01393,0.02438l-0.06966,0.01742l-0.06231,0.03115l-0.56075,0.12461l-0.55728,0.13932h-0.06966l-0.07009,0.01558l-0.02336,-0.01558h-1.02566c-0.34584,0.07192 -0.68928,0.15593 -1.02982,0.25484c-0.15452,-0.08819 -0.31113,-0.17322 -0.47005,-0.25484l-2.19138,0l-0.0437,0.01457l-0.05553,0.00427l-0.04824,0.02783l-0.71854,0.2053l-0.00398,0.00697l-0.06966,0.01742l-0.02659,0.01329c0.16238,0.16324 0.32381,0.32788 0.48344,0.49409c-0.73332,0.08599 -1.46449,0.1742 -2.19315,0.27094c-0.05125,-0.05255 -0.10256,-0.10503 -0.15391,-0.15746l-0.05579,0.03347l-0.10491,-0.02861l-0.14701,0.06392l-0.66366,0.11061l-0.05708,0.01903l-0.01169,0.02045l-0.06966,0.01742l-0.06231,0.03115l-0.56075,0.12461l-0.55728,0.13932h-0.06966l-0.07009,0.01558l-0.02336,-0.01558h-0.43119l-0.30076,0.10025c0.00963,0.01645 0.0193,0.03288 0.029,0.04926c-0.14304,0.02726 -0.28595,0.05524 -0.42875,0.08398l-0.03179,0.0106l-0.69823,0.34912l-0.32597,0.07244l-0.30178,0.14295l-0.16509,0.03302l-0.0752,0.1316l-0.31164,0.07791l-0.27545,0.16527l-0.18443,-0.0503l-0.47848,0.11962h-0.02288l-0.0437,0.01457l-0.09774,0.00752l-0.08649,0.04613l-0.57143,0.14286l-0.30776,0l-0.29857,0.07464h-0.55117l-0.02336,0.01558l-0.07009,-0.01558h-0.06966l-0.55728,-0.13932l-0.01592,-0.00354h-0.14109l-1.25,-0.3125l-0.34091,-0.59659l-0.49235,-0.28134c-0.35164,0.97572 -0.78374,1.9714 -1.30224,2.89364l0.18578,0.29193l0.1244,0.37321c0.09499,0.2642 0.14675,0.54902 0.14675,0.84593zM306.15992,143.99199c-0.09903,0.0971 -0.19389,0.19591 -0.28515,0.29615l0.02472,0.03884l0.02203,0.06609l0.03694,0.06157l-0.00739,0.02709l0.04287,0.12862c0.11808,-0.25546 0.22996,-0.51431 0.33567,-0.77368c-0.05696,0.04858 -0.11353,0.10026 -0.16969,0.15531zM307.25492,140.97148l-0.29857,0.07464h-1.97974l-0.02336,0.01558l-0.07009,-0.01558h-0.06966l-0.55728,-0.13932l-0.56075,-0.12461l-0.06231,-0.03115l-0.06966,-0.01742l-0.01393,-0.02438l-0.07483,-0.03742l0.39224,0.39224l0.20676,0.34461l0.26154,0.30513l0.0786,0.1572c0.72465,-0.09494 1.44419,-0.09605 2.11842,-0.43138c0.24508,-0.1219 0.48747,-0.25186 0.72766,-0.38834c0.00721,-0.02675 0.01432,-0.05335 0.02136,-0.07979zM296.5992,131.83184l0,-1.26366l-0.06821,-0.27285v-0.30776l-0.07464,-0.29857v-0.16573l-0.01457,-0.0437l-0.01442,-0.18747c-0.15598,0.5123 -0.23667,1.06778 -0.17777,1.70785c0.03632,0.39468 0.12369,0.72184 0.2457,1.00722c0.03525,-0.05623 0.07044,-0.11243 0.1056,-0.16859zM297.28169,120.9874l0.00297,-0.05346l-0.0502,-0.1267c-0.04094,0.07965 -0.04956,0.17367 -0.03613,0.27742zM316.82391,116.94782c-0.00052,-0.0006 -0.00105,-0.0012 -0.00157,-0.00179c-0.00039,0.00024 -0.00078,0.00047 -0.00118,0.00071c0.00092,0.00036 0.00183,0.00072 0.00275,0.00108zM315.40346,135.90327l-0.57104,0c0.01522,0.07087 0.03174,0.14046 0.04977,0.20851zM310.79856,135.68567l0.05746,0.10774c0.00027,-0.03405 0.00043,-0.06803 0.00048,-0.10194zM317.96107,130.00987l-0.24389,-0.20905l-0.00811,-0.14606l-0.08614,-0.05168l-0.21318,-0.10659l-0.30513,-0.26154l-0.34461,-0.20676l-0.28571,-0.28571l-0.09258,-0.1543l-0.13965,-0.11347l-0.32197,-0.42929l-0.73151,-0.73151l-0.05947,-0.09911l-0.08368,-0.06115l-0.00309,0.04021l-0.1125,0.33749l-0.11957,0.47828l-0.12956,0.24293l-0.05973,0.26876l-0.57143,1.14286l-0.06379,0.07443l-0.02854,0.09378l-0.42857,0.71429l-0.0431,0.0431l-0.0205,0.05741l-0.08561,0.12842l1.4046,0.12769h0.15205l0.16967,-0.11312l0.93098,-0.73931l0.14776,0.02015l0.06067,-0.04044l0.56741,0.12609l0.50082,0.06829l0.27719,0.11087c0.13983,-0.0725 0.28015,-0.15582 0.42104,-0.24651zM311.91535,123.74453l-0.00736,-0.01473l-0.06047,0.2721l0.23753,-0.05938zM304.70787,122.75116l-0.21062,0.12036l0.47104,-0.20935l0.16485,-0.12364zM323.50888,126.83473c-0.11582,0.02893 -0.2283,0.05168 -0.33759,0.06854l0.3007,0c0.0121,-0.02301 0.02439,-0.04586 0.03689,-0.06854zM295.09341,124.34645c0.00008,-0.01267 0.0001,-0.02531 0.00007,-0.03791c-0.01304,0.04991 -0.02586,0.09983 -0.03837,0.14978c0.01052,0.00664 0.02103,0.0133 0.03152,0.01999c0.00421,-0.0442 0.00653,-0.08817 0.00679,-0.13186z" stroke="none" stroke-width="0.5"/><path d="" stroke="none" stroke-width="0.5"/><path d="" stroke="none" stroke-width="0.5"/></g></g></svg>