<svg version="1.1" xmlns="http://www.w3.org/2000/svg" xmlns:xlink="http://www.w3.org/1999/xlink" width="358.34354" height="615.97635" viewBox="0,0,358.34354,615.97635"><defs><linearGradient x1="331.03974" y1="174.36533" x2="314.61458" y2="180.57418" gradientUnits="userSpaceOnUse" id="color-1"><stop offset="0" stop-color="#0f0f0f"/><stop offset="1" stop-color="#737373"/></linearGradient><linearGradient x1="312.21918" y1="181.22858" x2="295.89414" y2="187.39957" gradientUnits="userSpaceOnUse" id="color-2"><stop offset="0" stop-color="#0f0f0f"/><stop offset="1" stop-color="#737373"/></linearGradient><linearGradient x1="311.86057" y1="122.09795" x2="295.53554" y2="128.26894" gradientUnits="userSpaceOnUse" id="color-3"><stop offset="0" stop-color="#0f0f0f"/><stop offset="1" stop-color="#737373"/></linearGradient><linearGradient x1="293.18938" y1="129.05695" x2="276.76419" y2="135.2658" gradientUnits="userSpaceOnUse" id="color-4"><stop offset="0" stop-color="#0f0f0f"/><stop offset="1" stop-color="#737373"/></linearGradient><linearGradient x1="290.25865" y1="160.36616" x2="282.96808" y2="163.12205" gradientUnits="userSpaceOnUse" id="color-5"><stop offset="0" stop-color="#595959"/><stop offset="1" stop-color="#afafaf"/></linearGradient><linearGradient x1="324.54518" y1="147.23477" x2="317.25458" y2="149.99067" gradientUnits="userSpaceOnUse" id="color-6"><stop offset="0" stop-color="#afafaf"/><stop offset="1" stop-color="#595959"/></linearGradient><linearGradient x1="309.11994" y1="153.0812" x2="298.87077" y2="156.95546" gradientUnits="userSpaceOnUse" id="color-7"><stop offset="0" stop-color="#afafaf"/><stop offset="1" stop-color="#595959"/></linearGradient><radialGradient cx="289.54902" cy="110.37733" r="11.28424" gradientUnits="userSpaceOnUse" id="color-8"><stop offset="0" stop-color="#656565"/><stop offset="1" stop-color="#404040"/></radialGradient><linearGradient x1="330.38666" y1="139.99019" x2="274.487" y2="161.12068" gradientUnits="userSpaceOnUse" id="color-9"><stop offset="0" stop-color="#cb80ce"/><stop offset="1" stop-color="#a946ad"/></linearGradient><linearGradient x1="-5.23601" y1="144.26644" x2="12.31146" y2="143.6168" gradientUnits="userSpaceOnUse" id="color-10"><stop offset="0" stop-color="#0f0f0f"/><stop offset="1" stop-color="#737373"/></linearGradient><linearGradient x1="14.77313" y1="143.29065" x2="32.21363" y2="142.64497" gradientUnits="userSpaceOnUse" id="color-11"><stop offset="0" stop-color="#0f0f0f"/><stop offset="1" stop-color="#737373"/></linearGradient><linearGradient x1="-7.83628" y1="88.65207" x2="9.60422" y2="88.00639" gradientUnits="userSpaceOnUse" id="color-12"><stop offset="0" stop-color="#0f0f0f"/><stop offset="1" stop-color="#737373"/></linearGradient><linearGradient x1="12.07232" y1="87.82248" x2="29.61982" y2="87.17284" gradientUnits="userSpaceOnUse" id="color-13"><stop offset="0" stop-color="#0f0f0f"/><stop offset="1" stop-color="#737373"/></linearGradient><linearGradient x1="26.92004" y1="115.54253" x2="34.70876" y2="115.25418" gradientUnits="userSpaceOnUse" id="color-14"><stop offset="0" stop-color="#595959"/><stop offset="1" stop-color="#afafaf"/></linearGradient><linearGradient x1="-9.7755" y1="116.74118" x2="-1.98676" y2="116.45283" gradientUnits="userSpaceOnUse" id="color-15"><stop offset="0" stop-color="#afafaf"/><stop offset="1" stop-color="#595959"/></linearGradient><linearGradient x1="6.70976" y1="116.14545" x2="17.65923" y2="115.74007" gradientUnits="userSpaceOnUse" id="color-16"><stop offset="0" stop-color="#afafaf"/><stop offset="1" stop-color="#595959"/></linearGradient><radialGradient cx="8.18076" cy="69.19358" r="11.28424" gradientUnits="userSpaceOnUse" id="color-17"><stop offset="0" stop-color="#656565"/><stop offset="1" stop-color="#404040"/></radialGradient><linearGradient x1="-17.97004" y1="112.33023" x2="41.74915" y2="110.1193" gradientUnits="userSpaceOnUse" id="color-18"><stop offset="0" stop-color="#cb80ce"/><stop offset="1" stop-color="#a946ad"/></linearGradient><linearGradient x1="267.55374" y1="260.24752" x2="257.09227" y2="246.14455" gradientUnits="userSpaceOnUse" id="color-19"><stop offset="0" stop-color="#0f0f0f"/><stop offset="1" stop-color="#737373"/></linearGradient><linearGradient x1="255.80815" y1="244.01918" x2="245.41045" y2="230.00219" gradientUnits="userSpaceOnUse" id="color-20"><stop offset="0" stop-color="#0f0f0f"/><stop offset="1" stop-color="#737373"/></linearGradient><linearGradient x1="312.58955" y1="227.51386" x2="302.19186" y2="213.49687" gradientUnits="userSpaceOnUse" id="color-21"><stop offset="0" stop-color="#0f0f0f"/><stop offset="1" stop-color="#737373"/></linearGradient><linearGradient x1="300.79267" y1="211.45539" x2="290.33119" y2="197.3524" gradientUnits="userSpaceOnUse" id="color-22"><stop offset="0" stop-color="#0f0f0f"/><stop offset="1" stop-color="#737373"/></linearGradient><linearGradient x1="269.87447" y1="217.19304" x2="265.23098" y2="210.93321" gradientUnits="userSpaceOnUse" id="color-23"><stop offset="0" stop-color="#595959"/><stop offset="1" stop-color="#afafaf"/></linearGradient><linearGradient x1="291.8765" y1="246.58538" x2="287.23301" y2="240.32553" gradientUnits="userSpaceOnUse" id="color-24"><stop offset="0" stop-color="#afafaf"/><stop offset="1" stop-color="#595959"/></linearGradient><linearGradient x1="282.03694" y1="233.34523" x2="275.50908" y2="224.5451" gradientUnits="userSpaceOnUse" id="color-25"><stop offset="0" stop-color="#afafaf"/><stop offset="1" stop-color="#595959"/></linearGradient><radialGradient cx="317.76622" cy="202.84848" r="11.28424" gradientUnits="userSpaceOnUse" id="color-26"><stop offset="0" stop-color="#656565"/><stop offset="1" stop-color="#404040"/></radialGradient><linearGradient x1="300.44165" y1="250.22461" x2="264.83824" y2="202.22808" gradientUnits="userSpaceOnUse" id="color-27"><stop offset="0" stop-color="#cb80ce"/><stop offset="1" stop-color="#a946ad"/></linearGradient><linearGradient x1="28.05386" y1="240.92275" x2="44.26315" y2="234.17034" gradientUnits="userSpaceOnUse" id="color-28"><stop offset="0" stop-color="#0f0f0f"/><stop offset="1" stop-color="#737373"/></linearGradient><linearGradient x1="46.45478" y1="233.00291" x2="62.56525" y2="226.29167" gradientUnits="userSpaceOnUse" id="color-29"><stop offset="0" stop-color="#0f0f0f"/><stop offset="1" stop-color="#737373"/></linearGradient><linearGradient x1="6.14595" y1="189.73915" x2="22.25643" y2="183.02791" gradientUnits="userSpaceOnUse" id="color-30"><stop offset="0" stop-color="#0f0f0f"/><stop offset="1" stop-color="#737373"/></linearGradient><linearGradient x1="24.50391" y1="181.99147" x2="40.71322" y2="175.23904" gradientUnits="userSpaceOnUse" id="color-31"><stop offset="0" stop-color="#0f0f0f"/><stop offset="1" stop-color="#737373"/></linearGradient><linearGradient x1="48.11739" y1="202.75825" x2="55.31212" y2="199.76108" gradientUnits="userSpaceOnUse" id="color-32"><stop offset="0" stop-color="#595959"/><stop offset="1" stop-color="#afafaf"/></linearGradient><linearGradient x1="14.16427" y1="216.72914" x2="21.35905" y2="213.73197" gradientUnits="userSpaceOnUse" id="color-33"><stop offset="0" stop-color="#afafaf"/><stop offset="1" stop-color="#595959"/></linearGradient><linearGradient x1="29.39745" y1="210.39913" x2="39.51191" y2="206.18569" gradientUnits="userSpaceOnUse" id="color-34"><stop offset="0" stop-color="#afafaf"/><stop offset="1" stop-color="#595959"/></linearGradient><radialGradient cx="14.33614" cy="165.9043" r="11.28424" gradientUnits="userSpaceOnUse" id="color-35"><stop offset="0" stop-color="#656565"/><stop offset="1" stop-color="#404040"/></radialGradient><linearGradient x1="4.94409" y1="215.46667" x2="60.10902" y2="192.48624" gradientUnits="userSpaceOnUse" id="color-36"><stop offset="0" stop-color="#cb80ce"/><stop offset="1" stop-color="#a946ad"/></linearGradient><linearGradient x1="138.02107" y1="182.27155" x2="149.88329" y2="182.27155" gradientUnits="userSpaceOnUse" id="color-37"><stop offset="0" stop-color="#afafaf"/><stop offset="1" stop-color="#595959"/></linearGradient><linearGradient x1="146.96192" y1="263.06255" x2="146.96192" y2="276.86262" gradientUnits="userSpaceOnUse" id="color-38"><stop offset="0" stop-color="#afafaf"/><stop offset="1" stop-color="#595959"/></linearGradient><linearGradient x1="85.66285" y1="258.2064" x2="85.66285" y2="281.78151" gradientUnits="userSpaceOnUse" id="color-39"><stop offset="0" stop-color="#7c7c7c"/><stop offset="1" stop-color="#111111"/></linearGradient><linearGradient x1="107.8528" y1="259.10579" x2="107.8528" y2="282.6809" gradientUnits="userSpaceOnUse" id="color-40"><stop offset="0" stop-color="#7c7c7c"/><stop offset="1" stop-color="#111111"/></linearGradient><linearGradient x1="185.3303" y1="258.45847" x2="185.3303" y2="282.03358" gradientUnits="userSpaceOnUse" id="color-41"><stop offset="0" stop-color="#7c7c7c"/><stop offset="1" stop-color="#111111"/></linearGradient><linearGradient x1="207.52025" y1="259.35785" x2="207.52025" y2="282.93297" gradientUnits="userSpaceOnUse" id="color-42"><stop offset="0" stop-color="#7c7c7c"/><stop offset="1" stop-color="#111111"/></linearGradient><linearGradient x1="146.96192" y1="299.33333" x2="146.96192" y2="313.13341" gradientUnits="userSpaceOnUse" id="color-43"><stop offset="0" stop-color="#afafaf"/><stop offset="1" stop-color="#595959"/></linearGradient><linearGradient x1="91.14377" y1="294.47715" x2="91.14377" y2="318.05228" gradientUnits="userSpaceOnUse" id="color-44"><stop offset="0" stop-color="#7c7c7c"/><stop offset="1" stop-color="#111111"/></linearGradient><linearGradient x1="111.34964" y1="295.37657" x2="111.34964" y2="318.95168" gradientUnits="userSpaceOnUse" id="color-45"><stop offset="0" stop-color="#7c7c7c"/><stop offset="1" stop-color="#111111"/></linearGradient><linearGradient x1="181.89968" y1="294.7292" x2="181.89968" y2="318.30435" gradientUnits="userSpaceOnUse" id="color-46"><stop offset="0" stop-color="#7c7c7c"/><stop offset="1" stop-color="#111111"/></linearGradient><linearGradient x1="202.1056" y1="295.62863" x2="202.1056" y2="319.20375" gradientUnits="userSpaceOnUse" id="color-47"><stop offset="0" stop-color="#7c7c7c"/><stop offset="1" stop-color="#111111"/></linearGradient><linearGradient x1="146.96192" y1="335.60413" x2="146.96192" y2="349.40421" gradientUnits="userSpaceOnUse" id="color-48"><stop offset="0" stop-color="#afafaf"/><stop offset="1" stop-color="#595959"/></linearGradient><linearGradient x1="97.99492" y1="330.74797" x2="97.99492" y2="354.32306" gradientUnits="userSpaceOnUse" id="color-49"><stop offset="0" stop-color="#7c7c7c"/><stop offset="1" stop-color="#111111"/></linearGradient><linearGradient x1="115.72072" y1="331.64736" x2="115.72072" y2="355.22248" gradientUnits="userSpaceOnUse" id="color-50"><stop offset="0" stop-color="#7c7c7c"/><stop offset="1" stop-color="#111111"/></linearGradient><linearGradient x1="177.61142" y1="331.00004" x2="177.61142" y2="354.57515" gradientUnits="userSpaceOnUse" id="color-51"><stop offset="0" stop-color="#7c7c7c"/><stop offset="1" stop-color="#111111"/></linearGradient><linearGradient x1="195.3372" y1="331.89944" x2="195.3372" y2="355.47455" gradientUnits="userSpaceOnUse" id="color-52"><stop offset="0" stop-color="#7c7c7c"/><stop offset="1" stop-color="#111111"/></linearGradient><linearGradient x1="129.44717" y1="320.23945" x2="160.93429" y2="320.23945" gradientUnits="userSpaceOnUse" id="color-53"><stop offset="0" stop-color="#afafaf"/><stop offset="1" stop-color="#595959"/></linearGradient><linearGradient x1="145.88787" y1="243.74413" x2="145.88787" y2="250.99834" gradientUnits="userSpaceOnUse" id="color-54"><stop offset="0" stop-color="#afafaf"/><stop offset="1" stop-color="#595959"/></linearGradient><radialGradient cx="245.02798" cy="244.55017" r="11.28424" gradientUnits="userSpaceOnUse" id="color-55"><stop offset="0" stop-color="#656565"/><stop offset="1" stop-color="#404040"/></radialGradient><linearGradient x1="144.97557" y1="238.99948" x2="144.97557" y2="256.73191" gradientUnits="userSpaceOnUse" id="color-56"><stop offset="0" stop-color="#595959"/><stop offset="1" stop-color="#393939"/></linearGradient><radialGradient cx="51.58382" cy="244.55017" r="11.28424" gradientUnits="userSpaceOnUse" id="color-57"><stop offset="0" stop-color="#656565"/><stop offset="1" stop-color="#404040"/></radialGradient><linearGradient x1="128.87366" y1="414.32712" x2="161.56306" y2="414.32712" gradientUnits="userSpaceOnUse" id="color-58"><stop offset="0" stop-color="#595959"/><stop offset="1" stop-color="#393939"/></linearGradient><linearGradient x1="126.39646" y1="403.17975" x2="164.04023" y2="403.17975" gradientUnits="userSpaceOnUse" id="color-59"><stop offset="0" stop-color="#393939"/><stop offset="1" stop-color="#151515"/></linearGradient><linearGradient x1="126.39646" y1="416.18502" x2="164.04023" y2="416.18502" gradientUnits="userSpaceOnUse" id="color-60"><stop offset="0" stop-color="#393939"/><stop offset="1" stop-color="#151515"/></linearGradient><radialGradient cx="59.25811" cy="229.22506" r="27.33934" gradientUnits="userSpaceOnUse" id="color-61"><stop offset="0" stop-color="#cb80ce"/><stop offset="1" stop-color="#a946ad"/></radialGradient><radialGradient cx="230.35222" cy="229.22506" r="27.33934" gradientUnits="userSpaceOnUse" id="color-62"><stop offset="0" stop-color="#cb80ce"/><stop offset="1" stop-color="#a946ad"/></radialGradient><linearGradient x1="146.27743" y1="203.7931" x2="146.27743" y2="432.63195" gradientUnits="userSpaceOnUse" id="color-63"><stop offset="0" stop-color="#cb80ce"/><stop offset="1" stop-color="#a946ad"/></linearGradient><radialGradient cx="159.88936" cy="277.25313" r="96.6964" gradientUnits="userSpaceOnUse" id="color-64"><stop offset="0" stop-color="#d3afd3"/><stop offset="1" stop-color="#c0a0c1"/></radialGradient><linearGradient x1="145.12586" y1="136.34761" x2="145.12586" y2="229.40736" gradientUnits="userSpaceOnUse" id="color-65"><stop offset="0" stop-color="#cb80ce"/><stop offset="1" stop-color="#a946ad"/></linearGradient><linearGradient x1="145.12583" y1="189.27985" x2="145.12583" y2="244.37809" gradientUnits="userSpaceOnUse" id="color-66"><stop offset="0" stop-color="#cb80ce"/><stop offset="1" stop-color="#a946ad"/></linearGradient><linearGradient x1="144.76702" y1="136.59017" x2="144.76702" y2="223.09957" gradientUnits="userSpaceOnUse" id="color-67"><stop offset="0" stop-color="#330000"/><stop offset="1" stop-color="#9c0000"/></linearGradient><linearGradient x1="144.46881" y1="155.17532" x2="144.46881" y2="157.56573" gradientUnits="userSpaceOnUse" id="color-68"><stop offset="0" stop-color="#898989"/><stop offset="1" stop-color="#2e2e2e"/></linearGradient><linearGradient x1="144.42021" y1="163.16854" x2="144.42021" y2="179.71634" gradientUnits="userSpaceOnUse" id="color-69"><stop offset="0" stop-color="#8a8a8a"/><stop offset="1" stop-color="#0f0f0f"/></linearGradient><linearGradient x1="144.42021" y1="161.65342" x2="144.42021" y2="178.20122" gradientUnits="userSpaceOnUse" id="color-70"><stop offset="0" stop-color="#898989"/><stop offset="1" stop-color="#2e2e2e"/></linearGradient><linearGradient x1="144.46867" y1="54.24185" x2="144.46867" y2="60.29425" gradientUnits="userSpaceOnUse" id="color-71"><stop offset="0" stop-color="#afafaf"/><stop offset="1" stop-color="#7a7a7a"/></linearGradient><linearGradient x1="90.48958" y1="49.13991" x2="90.48958" y2="115.95162" gradientUnits="userSpaceOnUse" id="color-72"><stop offset="0" stop-color="#afafaf"/><stop offset="1" stop-color="#7a7a7a"/></linearGradient><linearGradient x1="198.27103" y1="49.13991" x2="198.27103" y2="115.95162" gradientUnits="userSpaceOnUse" id="color-73"><stop offset="0" stop-color="#afafaf"/><stop offset="1" stop-color="#7a7a7a"/></linearGradient><linearGradient x1="144.69369" y1="91.53443" x2="144.69369" y2="143.57898" gradientUnits="userSpaceOnUse" id="color-74"><stop offset="0" stop-color="#424242"/><stop offset="1" stop-color="#000000"/></linearGradient><linearGradient x1="144.0658" y1="76.53812" x2="144.0658" y2="84.40786" gradientUnits="userSpaceOnUse" id="color-75"><stop offset="0" stop-color="#b8b8b8"/><stop offset="1" stop-color="#313131"/></linearGradient><radialGradient cx="112.21957" cy="80.59043" r="26.22803" gradientUnits="userSpaceOnUse" id="color-76"><stop offset="0" stop-color="#ffffff"/><stop offset="1" stop-color="#cccccc"/></radialGradient><radialGradient cx="175.9343" cy="80.59043" r="26.22803" gradientUnits="userSpaceOnUse" id="color-77"><stop offset="0" stop-color="#ffffff"/><stop offset="1" stop-color="#cccccc"/></radialGradient><linearGradient x1="144.18944" y1="51.14676" x2="143.83651" y2="119.30172" gradientUnits="userSpaceOnUse" id="color-78"><stop offset="0" stop-color="#9d9d9d"/><stop offset="1" stop-color="#6e6e6e"/></linearGradient><linearGradient x1="158.26263" y1="116.96014" x2="158.26263" y2="159.05592" gradientUnits="userSpaceOnUse" id="color-79"><stop offset="0" stop-color="#afafaf"/><stop offset="1" stop-color="#595959"/></linearGradient><linearGradient x1="130.80884" y1="116.96014" x2="130.80884" y2="159.05592" gradientUnits="userSpaceOnUse" id="color-80"><stop offset="0" stop-color="#afafaf"/><stop offset="1" stop-color="#595959"/></linearGradient><linearGradient x1="209.55824" y1="76.60073" x2="209.08399" y2="121.64649" gradientUnits="userSpaceOnUse" id="color-81"><stop offset="0" stop-color="#afafaf"/><stop offset="1" stop-color="#595959"/></linearGradient><linearGradient x1="8.26014" y1="-31.93355" x2="39.25427" y2="-21.66906" gradientUnits="userSpaceOnUse" id="color-82"><stop offset="0" stop-color="#cb80ce"/><stop offset="1" stop-color="#a946ad"/></linearGradient><linearGradient x1="-5.59186" y1="26.2853" x2="23.07438" y2="25.22401" gradientUnits="userSpaceOnUse" id="color-83"><stop offset="0" stop-color="#cb80ce"/><stop offset="1" stop-color="#a946ad"/></linearGradient><linearGradient x1="4.02521" y1="30.49701" x2="50.26106" y2="28.78527" gradientUnits="userSpaceOnUse" id="color-84"><stop offset="0" stop-color="#cb80ce"/><stop offset="1" stop-color="#a946ad"/></linearGradient><linearGradient x1="295.77522" y1="16.96222" x2="263.34129" y2="20.70875" gradientUnits="userSpaceOnUse" id="color-85"><stop offset="0" stop-color="#cb80ce"/><stop offset="1" stop-color="#a946ad"/></linearGradient><linearGradient x1="295.99408" y1="74.65094" x2="268.24061" y2="67.3966" gradientUnits="userSpaceOnUse" id="color-86"><stop offset="0" stop-color="#cb80ce"/><stop offset="1" stop-color="#a946ad"/></linearGradient><linearGradient x1="285.69239" y1="76.67621" x2="240.92877" y2="64.97568" gradientUnits="userSpaceOnUse" id="color-87"><stop offset="0" stop-color="#cb80ce"/><stop offset="1" stop-color="#a946ad"/></linearGradient><linearGradient x1="92.56507" y1="-105.98977" x2="96.11447" y2="-108.64034" gradientUnits="userSpaceOnUse" id="color-88"><stop offset="0" stop-color="#d3d3d3"/><stop offset="1" stop-color="#868686"/></linearGradient><linearGradient x1="75.30096" y1="-170.92561" x2="66.37378" y2="-107.34608" gradientUnits="userSpaceOnUse" id="color-89"><stop offset="0" stop-color="#cb80ce"/><stop offset="1" stop-color="#a946ad"/></linearGradient><radialGradient cx="71.63917" cy="-137.33087" r="25.20617" gradientUnits="userSpaceOnUse" id="color-90"><stop offset="0" stop-color="#d3afd3"/><stop offset="1" stop-color="#947b95"/></radialGradient><radialGradient cx="110.73327" cy="-85.40157" r="4.20413" gradientUnits="userSpaceOnUse" id="color-91"><stop offset="0" stop-color="#a9a9a9"/><stop offset="1" stop-color="#5d5d5d"/></radialGradient><linearGradient x1="240.60326" y1="-85.20377" x2="237.92105" y2="-88.72932" gradientUnits="userSpaceOnUse" id="color-92"><stop offset="0" stop-color="#d3d3d3"/><stop offset="1" stop-color="#868686"/></linearGradient><linearGradient x1="275.08247" y1="-142.87435" x2="266.15528" y2="-79.29482" gradientUnits="userSpaceOnUse" id="color-93"><stop offset="0" stop-color="#cb80ce"/><stop offset="1" stop-color="#a946ad"/></linearGradient><radialGradient cx="270.56411" cy="-112.09943" r="25.20617" gradientUnits="userSpaceOnUse" id="color-94"><stop offset="0" stop-color="#d3afd3"/><stop offset="1" stop-color="#947b95"/></radialGradient><radialGradient cx="217.46773" cy="-70.41502" r="4.20413" gradientUnits="userSpaceOnUse" id="color-95"><stop offset="0" stop-color="#a9a9a9"/><stop offset="1" stop-color="#5d5d5d"/></radialGradient><linearGradient x1="168.92098" y1="-114.86142" x2="149.83483" y2="21.07037" gradientUnits="userSpaceOnUse" id="color-96"><stop offset="0" stop-color="#cb80ce"/><stop offset="1" stop-color="#a946ad"/></linearGradient><linearGradient x1="57.06943" y1="-46.53072" x2="50.71705" y2="-1.28894" gradientUnits="userSpaceOnUse" id="color-97"><stop offset="0" stop-color="#d3afd3"/><stop offset="1" stop-color="#c0a0c1"/></linearGradient><linearGradient x1="54.12466" y1="-28.18905" x2="49.39671" y2="5.48344" gradientUnits="userSpaceOnUse" id="color-98"><stop offset="0" stop-color="#d3afd3"/><stop offset="1" stop-color="#c0a0c1"/></linearGradient><linearGradient x1="48.53134" y1="-9.15559" x2="45.34956" y2="13.50507" gradientUnits="userSpaceOnUse" id="color-99"><stop offset="0" stop-color="#d3afd3"/><stop offset="1" stop-color="#c0a0c1"/></linearGradient><linearGradient x1="50.37664" y1="-1.56814" x2="46.70973" y2="24.54765" gradientUnits="userSpaceOnUse" id="color-100"><stop offset="0" stop-color="#d3afd3"/><stop offset="1" stop-color="#c0a0c1"/></linearGradient><linearGradient x1="52.28272" y1="-4.43306" x2="46.76262" y2="34.88119" gradientUnits="userSpaceOnUse" id="color-101"><stop offset="0" stop-color="#d3afd3"/><stop offset="1" stop-color="#c0a0c1"/></linearGradient><linearGradient x1="254.6663" y1="-18.78617" x2="248.31391" y2="26.45558" gradientUnits="userSpaceOnUse" id="color-102"><stop offset="0" stop-color="#d3afd3"/><stop offset="1" stop-color="#c0a0c1"/></linearGradient><linearGradient x1="252.44613" y1="-0.34275" x2="247.71819" y2="33.32972" gradientUnits="userSpaceOnUse" id="color-103"><stop offset="0" stop-color="#d3afd3"/><stop offset="1" stop-color="#c0a0c1"/></linearGradient><linearGradient x1="252.58153" y1="19.49504" x2="249.39976" y2="42.1557" gradientUnits="userSpaceOnUse" id="color-104"><stop offset="0" stop-color="#d3afd3"/><stop offset="1" stop-color="#c0a0c1"/></linearGradient><linearGradient x1="248.71802" y1="26.28092" x2="245.05112" y2="52.3967" gradientUnits="userSpaceOnUse" id="color-105"><stop offset="0" stop-color="#d3afd3"/><stop offset="1" stop-color="#c0a0c1"/></linearGradient><linearGradient x1="247.67479" y1="23.00191" x2="242.15469" y2="62.31614" gradientUnits="userSpaceOnUse" id="color-106"><stop offset="0" stop-color="#d3afd3"/><stop offset="1" stop-color="#c0a0c1"/></linearGradient><radialGradient cx="134.32127" cy="-5.17436" r="42.25912" gradientUnits="userSpaceOnUse" id="color-107"><stop offset="0" stop-color="#d3afd3"/><stop offset="1" stop-color="#c0a0c1"/></radialGradient><radialGradient cx="202.26299" cy="1.21581" r="42.25912" gradientUnits="userSpaceOnUse" id="color-108"><stop offset="0" stop-color="#d3afd3"/><stop offset="1" stop-color="#c0a0c1"/></radialGradient><radialGradient cx="158.25811" cy="-20.49396" r="12.21855" gradientUnits="userSpaceOnUse" id="color-109"><stop offset="0" stop-color="#858585"/><stop offset="1" stop-color="#000000"/></radialGradient><radialGradient cx="88.71432" cy="-95.2601" r="27.44863" gradientUnits="userSpaceOnUse" id="color-110"><stop offset="0" stop-color="#2e2540"/><stop offset="1" stop-color="#694da0"/></radialGradient><radialGradient cx="123.26109" cy="-111.32914" r="27.44863" gradientUnits="userSpaceOnUse" id="color-111"><stop offset="0" stop-color="#2e2540"/><stop offset="1" stop-color="#694da0"/></radialGradient><radialGradient cx="106.17765" cy="-102.85804" r="16.19275" gradientUnits="userSpaceOnUse" id="color-112"><stop offset="0" stop-color="#8461ca"/><stop offset="1" stop-color="#4e3f6d"/></radialGradient></defs><g transform="translate(17.46545,175.37425)"><g data-paper-data="{&quot;isPaintingLayer&quot;:true}" fill-rule="nonzero" stroke-linecap="butt" stroke-linejoin="miter" stroke-miterlimit="10" stroke-dasharray="" stroke-dashoffset="0" style="mix-blend-mode: normal"><path d="M220.36201,401.06797c-6.6473,33.87137 -141.96303,36.06391 -148.4922,-2.83904c-0.58597,1.07554 8.74173,-40.62819 6.82267,-76.8516c-1.91906,-36.22343 -35.20774,-115.14125 62.79616,-116.6696c110.5975,-3.229 71.85538,79.09892 71.05461,119.46221c-0.83192,41.93356 8.72863,77.26826 7.81876,76.89803z" data-paper-data="{&quot;index&quot;:null}" fill="#484848" stroke="#000000" stroke-width="0"/><g data-paper-data="{&quot;index&quot;:null}" stroke="none"><path d="M340.62287,175.77273c-3.1404,11.67132 -40.64037,24.4774 -49.85624,19.35393c-9.21589,-5.12346 -25.84018,-63.98369 -23.59009,-75.09034c1.03458,-5.10666 37.31998,-18.13989 41.25421,-14.98369c8.61854,6.91421 35.33254,59.04878 32.19212,70.7201z" fill="#484848" stroke-width="0"/><g><g><path d="M322.18902,193.02131c-0.58578,0.53692 -1.15716,0.74233 -1.67153,0.76517c0.37727,0.69358 0.86325,2.1354 -0.65555,3.37153c-2.08712,1.6987 -3.78579,-0.38843 -3.78579,-0.38843l-1.79323,-2.22871c-3.67058,-2.96203 -7.15304,-8.37089 -5.87,-13.47511c0.21961,-0.87365 0.57376,-1.72189 1.00384,-2.55894c-0.36189,-0.62114 -0.72512,-1.245 -1.08992,-1.87295c-2.04017,-5.35711 -5.26813,-11.2013 -5.14402,-17.03199c0.03976,-1.86745 0.18242,-3.80911 0.33488,-5.78612c-5.21024,-1.80584 -11.13254,-2.26557 -14.3332,-6.84311c-5.00333,-7.15574 1.31081,-14.95275 2.10588,-22.03557c-0.78573,-0.38996 -1.57578,-0.79792 -2.35999,-1.25733c0,0 -2.31549,-1.37116 -0.94429,-3.68667c0.38102,-0.64341 0.83495,-1.00217 1.29185,-1.18476c-0.97781,-1.51889 -2.06991,-2.95801 -2.72483,-4.08464c0,0 -1.35241,-2.32652 0.97411,-3.67889c2.32651,-1.35241 3.67889,0.97411 3.67889,0.97411c1.69149,2.90985 4.26123,6.13254 5.18529,9.56936c2.67124,1.40075 5.20601,2.89361 7.35311,5.53421c5.41818,6.66351 5.8233,14.94284 5.41915,23.10178c1.66103,1.03719 3.2265,2.3273 4.85709,4.0175c2.24793,3.84198 6.29279,10.76675 5.63937,15.45508c-0.4774,3.42532 -2.35542,6.42968 -3.76716,9.26193c1.69075,2.89914 3.36178,5.78909 5.02032,8.80103l1.44112,1.45942c0,0 1.81833,1.98376 -0.16545,3.80207zM299.54549,130.48912c-1.03011,-1.26401 -2.18613,-2.20842 -3.41752,-2.99928c-1.5872,5.27335 -5.52206,12.01324 -2.48097,16.47404c1.5959,2.34096 5.07329,2.31097 7.48618,2.97305c0.98359,0.26989 1.9056,0.54851 2.77947,0.8482c0.24007,-6.1783 -0.31266,-12.32088 -4.36717,-17.29604zM308.55872,159.85996c-0.20731,4.27017 2.42467,9.11069 4.13131,13.21125c0.71799,-1.2699 1.32294,-2.58303 1.62297,-3.98582c0.62365,-2.91594 -3.17342,-9.14469 -4.58832,-11.60176c-0.30977,-0.32289 -0.63358,-0.6221 -0.96974,-0.90034c-0.07474,1.10482 -0.14387,2.19856 -0.1962,3.27668z" fill="#000000" stroke-width="0.5"/><path d="M327.80046,169.56002l2.10929,1.81597l-12.05589,14.0035l-2.10932,-1.81597z" fill="url(#color-1)" stroke-width="0"/><path d="M313.39988,184.35206l-0.42578,2.75056l-18.26067,-2.82654l0.42578,-2.75056z" data-paper-data="{&quot;index&quot;:null}" fill="url(#color-2)" stroke-width="0"/><path d="M294.35483,125.14545l0.42578,-2.75055l18.26067,2.82653l-0.42578,2.75056z" data-paper-data="{&quot;index&quot;:null}" fill="url(#color-3)" stroke-width="0"/><path d="M280.0035,140.07108l-2.10931,-1.81596l12.0559,-14.00347l2.1093,1.81593z" data-paper-data="{&quot;index&quot;:null}" fill="url(#color-4)" stroke-width="0"/><path d="M279.25993,131.26953l21.54145,58.42943l-6.83455,2.5197l-21.54145,-58.42943z" fill="url(#color-5)" stroke-width="0"/><path d="M313.5464,118.13807l21.54145,58.42943l-6.83455,2.5197l-21.54145,-58.42943z" fill="url(#color-6)" stroke-width="0"/><path d="M293.65781,112.17694l30.28305,82.14038l-9.60802,3.54223l-30.28305,-82.14038z" fill="url(#color-7)" stroke-width="0"/></g><path d="M296.98742,104.98055c2.0462,5.41313 -1.02077,11.58772 -6.85031,13.79133c-5.82954,2.20361 -12.21407,-0.39823 -14.26028,-5.81136c-2.0462,-5.41313 1.02078,-11.5877 6.85032,-13.79131c5.82954,-2.20361 12.21406,0.39822 14.26027,5.81135z" fill="url(#color-8)" stroke-width="0"/></g><path d="M340.62287,175.77273c-3.1404,11.67132 -40.64037,24.4774 -49.85624,19.35393c-9.21589,-5.12346 -25.84018,-63.98369 -23.59009,-75.09034c1.03458,-5.10666 37.31998,-18.13989 41.25421,-14.98369c8.61854,6.91421 35.33254,59.04878 32.19212,70.7201z" fill="url(#color-9)" stroke-width="0"/></g><g data-paper-data="{&quot;index&quot;:null}" stroke="none"><path d="M39.9373,147.77765c-6.5064,8.29753 -46.03749,11.04267 -53.45987,1.50378c-7.42238,-9.53888 -3.02643,-67.95401 2.2347,-77.67028c2.40163,-4.4353 40.90141,-6.49991 43.83611,-2.19456c6.38272,9.36384 13.89549,70.06352 7.38906,78.36104z" fill="#484848" stroke-width="0"/><g><g><path d="M10.15917,158.02755c-2.53383,-0.90628 -1.62752,-3.4401 -1.62752,-3.4401l0.76207,-1.9042c0.36015,-3.41948 0.77913,-6.73137 1.21273,-10.05937c-2.39995,-2.06274 -5.29643,-4.10322 -7.06531,-7.07505c-2.42109,-4.06764 -1.37951,-12.01927 -0.79816,-16.43244c0.84716,-2.19042 1.78952,-3.98681 2.91808,-5.58717c-3.53779,-7.36313 -6.37639,-15.15117 -3.9677,-23.3948c0.9545,-3.26677 2.71158,-5.62608 4.6302,-7.95343c-0.48163,-3.52614 0.63658,-7.49336 1.0667,-10.83153c0,0 0.34387,-2.66896 3.01285,-2.32506c2.66896,0.34387 2.32506,3.01285 2.32506,3.01285c-0.16654,1.29247 -0.61479,3.04255 -0.92676,4.82183c0.49195,-0.00895 1.04951,0.14561 1.6503,0.59079c2.16212,1.60218 0.55993,3.76427 0.55993,3.76427c-0.54455,0.72767 -1.11446,1.41018 -1.68737,2.07442c3.4806,6.21963 12.32509,10.95639 10.48972,19.49274c-1.17411,5.46073 -6.45421,8.18204 -10.5558,11.86776c0.9075,1.76302 1.79226,3.49727 2.55339,5.20304c2.37643,5.32588 1.66856,11.96465 1.86648,17.69368c-0.09262,0.7203 -0.18537,1.43621 -0.27794,2.1491c0.72115,0.60464 1.37663,1.24906 1.91797,1.96908c3.16275,4.20669 2.05142,10.54295 -0.18254,14.69701l-0.78814,2.74984c0,0 -0.75592,2.58267 -3.33859,1.82673c-1.8794,-0.5501 -1.99084,-2.06753 -1.9122,-2.85315c-0.48296,0.1785 -1.08926,0.21085 -1.83746,-0.05677zM6.76964,91.60832c-1.80682,6.15846 0.06676,12.03438 2.68492,17.63565c0.68917,-0.61522 1.43088,-1.22973 2.23273,-1.86007c1.96705,-1.54631 5.18373,-2.86773 5.74645,-5.64448c1.07233,-5.29123 -5.1691,-9.97671 -8.67781,-14.22128c-0.82813,1.20664 -1.52722,2.52558 -1.98628,4.09021zM9.85686,122.17557c-0.4665,-0.97337 -0.95453,-1.95464 -1.45203,-2.94393c-0.20189,0.38687 -0.38426,0.78827 -0.5445,1.20604c-0.35085,2.81355 -1.43408,10.02755 0.27198,12.47316c0.82075,1.17652 1.88774,2.15212 3.04217,3.044c-0.01786,-4.4415 0.53009,-9.92398 -1.31761,-13.77929z" fill="#000000" stroke-width="0.5"/><path d="M12.42973,146.81041l-1.2396,2.49205l-16.54436,-8.2296l1.23957,-2.49205z" fill="url(#color-10)" stroke-width="0"/><path d="M30.63058,136.93811l1.45952,2.36995l-15.73391,9.68945l-1.45952,-2.36995z" data-paper-data="{&quot;index&quot;:null}" fill="url(#color-11)" stroke-width="0"/><path d="M-6.25323,94.35893l-1.45952,-2.36995l15.73391,-9.68945l1.45952,2.36995z" data-paper-data="{&quot;index&quot;:null}" fill="url(#color-12)" stroke-width="0"/><path d="M11.95409,84.62887l1.2396,-2.49202l16.54436,8.22957l-1.2396,2.49205z" data-paper-data="{&quot;index&quot;:null}" fill="url(#color-13)" stroke-width="0"/><path d="M33.04598,84.12867l2.8136,62.21025l-7.27679,0.32913l-2.8136,-62.21025z" fill="url(#color-14)" stroke-width="0"/><path d="M-3.64954,85.32723l2.8136,62.21025l-7.27679,0.32913l-2.8136,-62.21025z" fill="url(#color-15)" stroke-width="0"/><path d="M15.32165,71.9836l3.95539,87.45547l-10.22973,0.46267l-3.95539,-87.45547z" fill="url(#color-16)" stroke-width="0"/></g><path d="M10.89542,77.15883c-6.22787,0.23057 -11.45009,-4.27058 -11.66418,-10.05358c-0.2141,-5.78301 4.661,-10.65795 10.88886,-10.88851c6.22787,-0.23057 11.45009,4.27055 11.66418,10.05355c0.21409,5.783 -4.661,10.65797 -10.88886,10.88853z" fill="url(#color-17)" stroke-width="0"/></g><path d="M39.9373,147.77765c-6.5064,8.29753 -46.03749,11.04267 -53.45987,1.50378c-7.42238,-9.53888 -3.02643,-67.95401 2.2347,-77.67028c2.40163,-4.4353 40.90141,-6.49991 43.83611,-2.19456c6.38272,9.36384 13.89549,70.06352 7.38906,78.36104z" fill="url(#color-18)" stroke-width="0"/></g><g data-paper-data="{&quot;index&quot;:null}" stroke="none"><path d="M236.57618,227.18172c2.40971,-10.26529 54.48564,-42.34316 65.78439,-43.21418c5.195,-0.40045 27.64884,30.94154 25.68803,35.58857c-4.29553,10.18006 -47.14434,50.12541 -59.2296,50.29433c-12.08526,0.16892 -34.65254,-32.40347 -32.24282,-42.66872z" fill="#484848" stroke-width="0"/><g><g><path d="M247.18912,256.83242c-0.67658,-0.41674 -1.03032,-0.91022 -1.19287,-1.39876c-0.56406,0.55245 -1.81818,1.41397 -3.42234,0.29084c-2.20444,-1.54341 -0.66102,-3.74782 -0.66102,-3.74782l1.65376,-2.33406c1.8461,-4.34036 6.09727,-9.16848 11.35782,-9.32927c0.9004,-0.02753 1.81314,0.08132 2.73587,0.26626c0.49858,-0.51787 0.99942,-1.03777 1.50376,-1.5603c4.59557,-3.42659 9.33506,-8.12889 14.9777,-9.60303c1.80723,-0.47213 3.71396,-0.86556 5.65737,-1.25922c0.31313,-5.50541 -0.8632,-11.32789 2.66532,-15.65773c5.5159,-6.76851 14.74172,-2.82568 21.77218,-3.99661c0.16037,-0.86239 0.33688,-1.73387 0.56448,-2.61377c0,0 0.68615,-2.60208 3.28824,-1.91591c0.72305,0.19067 1.1922,0.52927 1.49272,0.91887c1.19383,-1.35571 2.27968,-2.79953 3.18444,-3.73742c0,0 1.86833,-1.93676 3.80506,-0.06841c1.93676,1.86832 0.06841,3.80506 0.06841,3.80506c-2.33679,2.42236 -4.73447,5.77502 -7.7879,7.60319c-0.61737,2.95238 -1.36065,5.79864 -3.31392,8.58568c-4.92904,7.03304 -12.78244,9.68547 -20.74121,11.52655c-0.54375,1.88127 -1.35689,3.73971 -2.5371,5.77016c-3.08136,3.21237 -8.63704,8.99577 -13.32547,9.64855c-3.42538,0.47691 -6.82863,-0.50852 -9.93888,-1.09246c-2.32668,2.41872 -4.64992,4.81594 -7.09391,7.23451l-1.00999,1.78512c0,0 -1.41129,2.29128 -3.70254,0.87996zM301.15218,217.96091c0.93436,-1.33634 1.52686,-2.70646 1.95108,-4.10712c-5.50637,-0.08558 -13.06506,-2.02861 -16.52491,2.11585c-1.81567,2.17494 -0.83645,5.51174 -0.81388,8.01371c0.00919,1.0199 -0.00683,1.98296 -0.05627,2.90546c6.00871,-1.45761 11.76637,-3.66807 15.44401,-8.92792zM275.36281,234.65806c-4.16427,0.96762 -8.10118,4.82232 -11.5792,7.58466c1.41778,0.3436 2.84625,0.56663 4.27763,0.47187c2.97538,-0.19702 7.92924,-5.55185 9.90608,-7.58441c0.22593,-0.38622 0.42526,-0.77949 0.60104,-1.1789c-1.08318,0.23005 -2.15418,0.46249 -3.20556,0.70679z" fill="#000000" stroke-width="0.5"/><path d="M271.29078,255.81828l-1.17036,2.52529l-16.76523,-7.76976l1.17034,-2.52531z" fill="url(#color-19)" stroke-width="0"/><path d="M253.12626,246.00858l-2.76219,0.34216l-2.27172,-18.33795l2.76219,-0.34216z" data-paper-data="{&quot;index&quot;:null}" fill="url(#color-20)" stroke-width="0"/><path d="M304.87379,211.50744l2.7622,-0.34215l2.27172,18.33795l-2.76219,0.34216z" data-paper-data="{&quot;index&quot;:null}" fill="url(#color-21)" stroke-width="0"/><path d="M286.59416,201.78167l1.17035,-2.52531l16.76522,7.76977l-1.17033,2.5253z" data-paper-data="{&quot;index&quot;:null}" fill="url(#color-22)" stroke-width="0"/><path d="M294.85742,198.66093l-50.31768,36.69009l-4.29165,-5.88573l50.31767,-36.69009z" fill="url(#color-23)" stroke-width="0"/><path d="M316.85939,228.05329l-50.31768,36.69009l-4.29165,-5.88573l50.31768,-36.69009z" fill="url(#color-24)" stroke-width="0"/><path d="M317.15805,207.29268l-70.73685,51.5791l-6.03324,-8.27415l70.73685,-51.5791z" fill="url(#color-25)" stroke-width="0"/></g><path d="M324.99046,208.52873c-4.64782,3.44771 -11.42553,2.18501 -15.13846,-2.82035c-3.71293,-5.00536 -2.95504,-11.8579 1.69279,-15.30561c4.64782,-3.44771 11.42552,-2.18501 15.13845,2.82035c3.71293,5.00536 2.95506,11.8579 -1.69277,15.30561z" fill="url(#color-26)" stroke-width="0"/></g><path d="M236.57618,227.18172c2.40971,-10.26529 54.48564,-42.34316 65.78439,-43.21418c5.195,-0.40045 27.64884,30.94154 25.68803,35.58857c-4.29553,10.18006 -47.14434,50.12541 -59.2296,50.29433c-12.08526,0.16892 -34.65254,-32.40347 -32.24282,-42.66872z" fill="url(#color-27)" stroke-width="0"/></g><g data-paper-data="{&quot;index&quot;:null}" stroke="none"><path d="M22.04771,248.52165c-10.2924,-6.33629 -26.62756,-62.59297 -25.10141,-73.53628c0.6967,-4.99543 36.03661,-20.40926 40.29297,-17.40396c9.25726,6.53635 37.54723,60.76338 34.35785,70.81377c-3.18935,10.05038 -39.25701,26.46276 -49.54942,20.12647z" fill="#484848" stroke-width="0"/><g><g><path d="M47.29273,248.42252c-2.69076,0.03826 -2.72898,-2.65251 -2.72898,-2.65251l0.04712,-2.05049c-0.8599,-3.32913 -1.62703,-6.57807 -2.38611,-9.84724c-2.97026,-1.09188 -6.39784,-1.98905 -9.09527,-4.15343c-3.69205,-2.96248 -5.50051,-10.77546 -6.50113,-15.11284c0.02661,-2.34839 0.28035,-4.36101 0.77714,-6.25522c-5.8919,-5.65838 -11.27764,-11.95957 -11.90776,-20.52473c-0.24971,-3.39419 0.57009,-6.21936 1.55238,-9.07116c-1.68575,-3.1343 -2.02735,-7.24192 -2.79325,-10.5194c0,0 -0.61237,-2.62043 2.00807,-3.23278c2.62043,-0.61237 3.23278,2.00807 3.23278,2.00807c0.29653,1.26897 0.4894,3.06523 0.82016,4.84111c0.45768,-0.18064 1.03406,-0.23109 1.7527,-0.02443c2.58622,0.74375 1.84246,3.32995 1.84246,3.32995c-0.25531,0.87227 -0.55017,1.71112 -0.85425,2.53391c5.43796,4.60728 15.38108,5.94748 16.65071,14.58611c0.81217,5.52616 -3.1809,9.92393 -5.73238,14.81244c1.46734,1.33369 2.90332,2.64838 4.21351,3.97968c4.09075,4.1567 5.75211,10.62308 7.94341,15.92017c0.16544,0.70713 0.32922,1.4102 0.49211,2.11037c0.8872,0.31388 1.72683,0.68799 2.486,1.17291c4.43544,2.83304 5.61297,9.15734 4.97487,13.83063l0.22454,2.85173c0,0 0.1962,2.68386 -2.48768,2.88003c-1.95304,0.14276 -2.58873,-1.23961 -2.79013,-2.00303c-0.38988,0.33629 -0.94649,0.57888 -1.74102,0.59017zM20.86241,187.39426c0.4638,6.40126 4.27612,11.24925 8.68973,15.57928c0.43013,-0.81758 0.90974,-1.65288 1.44013,-2.52407c1.30113,-2.13716 3.85153,-4.50118 3.40642,-7.2992c-0.84817,-5.33176 -8.33504,-7.53534 -13.10781,-10.28274c-0.35323,1.42022 -0.54628,2.90043 -0.42845,4.52676zM34.45671,214.94575c-0.77777,-0.74842 -1.57849,-1.49671 -2.39088,-2.24919c-0.05365,0.43307 -0.08394,0.87291 -0.08777,1.32035c0.65646,2.7583 2.16763,9.89492 4.62198,11.5884c1.18074,0.81468 2.52178,1.35493 3.9154,1.78616c-1.57183,-4.1541 -2.97814,-9.48142 -6.05875,-12.44575z" fill="#000000" stroke-width="0.5"/><path d="M45.49208,237.1204l-0.2886,2.76832l-18.37855,-1.916l0.28858,-2.76831z" fill="url(#color-28)" stroke-width="0"/><path d="M59.08427,221.50033l2.19692,1.70891l-11.34542,14.58502l-2.19692,-1.70891z" data-paper-data="{&quot;index&quot;:null}" fill="url(#color-29)" stroke-width="0"/><path d="M9.62693,194.53044l-2.19692,-1.70891l11.34542,-14.58502l2.19692,1.70891z" data-paper-data="{&quot;index&quot;:null}" fill="url(#color-30)" stroke-width="0"/><path d="M23.27498,179.0414l0.28861,-2.7683l18.37854,1.91598l-0.2886,2.76832z" data-paper-data="{&quot;index&quot;:null}" fill="url(#color-31)" stroke-width="0"/><path d="M42.85663,171.18794l24.41715,57.2873l-6.70094,2.85612l-24.41715,-57.2873z" fill="url(#color-32)" stroke-width="0"/><path d="M8.90356,185.15886l24.41715,57.2873l-6.70094,2.85612l-24.41715,-57.2873z" fill="url(#color-33)" stroke-width="0"/><path d="M22.0019,166.01747l34.32576,80.53476l-9.42021,4.01512l-34.32576,-80.53476z" fill="url(#color-34)" stroke-width="0"/></g><path d="M19.66781,172.41483c-5.75292,2.39653 -12.22056,0.00876 -14.4459,-5.33323c-2.22534,-5.34198 0.63431,-11.61526 6.38723,-14.01179c5.75292,-2.39653 12.22055,-0.00878 14.4459,5.33321c2.22535,5.34198 -0.63429,11.61528 -6.38721,14.01181z" fill="url(#color-35)" stroke-width="0"/></g><path d="M22.04771,248.52165c-10.2924,-6.33629 -26.62756,-62.59297 -25.10141,-73.53628c0.6967,-4.99543 36.03661,-20.40926 40.29297,-17.40396c9.25726,6.53635 37.54723,60.76338 34.35785,70.81377c-3.18935,10.05038 -39.25701,26.46276 -49.54942,20.12647z" fill="url(#color-36)" stroke-width="0"/></g><g stroke="none"><path d="M154.52853,394.99023c-0.04828,0.73052 -0.46182,3.85879 -4.00363,3.85879c-0.01794,0 -0.03582,-0.00008 -0.0536,-0.00024c0.0262,1.2145 -0.34973,3.26252 -3.02454,3.93123c-3.89031,0.97259 -4.86287,-2.91772 -4.86287,-2.91772l-0.92987,-4.21317c0,-4.6675 1.12398,-11.49172 -1.76812,-15.61568c-4.48539,-6.39587 -15.06315,-12.06628 -13.58912,-21.37308c0.83542,-5.27486 3.70921,-8.17589 7.14318,-10.62011c-0.62444,-1.96523 -1.10631,-4.05119 -1.49397,-6.34005c-0.0016,-0.69673 -0.0791,-11.2011 0.13185,-11.93304c1.95841,-6.79495 9.19724,-11.44448 14.53755,-15.18425c3.16356,-2.21543 6.54844,-4.24156 9.84246,-6.38464c-7.03518,-8.78052 -20.00537,-15.39981 -27.03404,-21.18832c-5.306,-4.3698 -6.12343,-11.00384 -8.58882,-17.17419c-1.18344,-3.71488 -3.66697,-9.29161 -6.24117,-12.2008c-3.01722,-3.40988 -16.09274,-2.82861 -20.23918,-3.95008c-14.93537,-4.03945 -29.1134,-3.77925 -44.31126,-0.73969c0,0 -3.93214,0.78642 -4.71856,-3.1457c-0.78642,-3.93214 3.1457,-4.71859 3.1457,-4.71859c11.05637,-2.21128 22.18826,-3.51871 33.52292,-2.49463c6.61006,0.5972 12.52302,3.03433 18.96182,4.09164c5.30739,0.87154 14.9429,1.19076 19.069,5.05527c3.44372,3.22542 6.81834,10.93136 8.34143,15.34407c1.41572,3.53515 2.18867,8.42141 3.82088,11.63929c2.0677,4.0764 10.57602,6.63324 14.14646,9.13167c5.83744,4.08479 11.92128,9.6106 16.29695,15.97864c4.18314,-3.32366 7.81587,-7.23977 10.09052,-12.54064c5.92796,-13.81467 -10.55151,-19.93511 -12.38858,-31.14498c-0.76896,-4.69228 1.88383,-8.56123 3.79489,-12.42619c6.59279,-8.58638 24.7246,-20.4528 35.59391,-13.3917c4.59123,2.98262 6.49799,9.19866 11.02669,11.96437c8.70179,5.31421 24.2624,1.18106 33.75417,1.1458c0,0 4.01002,0 4.01002,4.01002c0,4.01002 -4.01002,4.01002 -4.01002,4.01002c-11.20458,-0.04898 -27.14306,4.07875 -37.53847,-2.09478c-4.99424,-2.96594 -7.22418,-8.79474 -11.65734,-12.33998c-2.58093,-2.06398 -4.91674,-0.46113 -7.95109,0.48369c-5.91553,1.84191 -12.78378,5.39238 -16.40565,10.42893c-4.24693,8.36099 -1.47769,7.91166 3.82639,14.9012c5.56286,7.33058 9.07181,18.42186 5.40313,27.40286c-2.94274,7.20386 -7.96194,12.24948 -13.66633,16.56014c2.93453,6.86927 3.48741,14.36854 -0.28316,21.90307c-4.05811,8.10906 -14.24749,10.39608 -20.36806,16.56103c-0.78198,0.58033 -1.6293,1.10527 -2.49926,1.61342c0.81171,1.36244 1.77839,2.70874 2.93162,4.10725c3.16134,3.83368 8.46469,6.72836 10.34868,11.54631c2.71379,6.9399 1.14245,21.49311 -2.11347,28.46351zM148.9453,381.06656c0.00773,-3.36141 1.66151,-8.18247 0.32334,-11.38476c-1.57992,-3.78089 -6.56074,-6.4001 -9.09477,-9.51743c-1.3375,-1.64539 -2.47383,-3.2421 -3.44404,-4.84961c-1.15317,1.16531 -2.04864,2.57432 -2.48399,4.41019c-1.19686,5.0472 9.93527,12.16746 12.33548,15.89357c1.15587,1.79435 1.89516,3.72961 2.36425,5.7408c-0.0004,-0.09659 -0.00051,-0.19417 -0.00027,-0.29276zM151.19385,321.16769c-3.43375,2.40254 -10.26161,6.1538 -11.38703,10.74035c-0.72536,2.95621 0.13963,6.08683 0.13185,9.13073c0.13156,0.80754 0.28134,1.58021 0.45246,2.32471c0.07186,-0.05384 0.14359,-0.108 0.21512,-0.16249c5.06254,-5.02859 15.32014,-7.81734 18.51882,-14.22444c2.56507,-5.13793 2.69406,-9.73945 1.2646,-13.90292c-3.07424,2.03107 -6.20152,3.99898 -9.1958,6.09405z" fill="#000000" stroke-width="0.5"/><g stroke-width="0"><g><path d="M138.02107,248.61615v-132.6892h11.86222v132.6892z" fill="url(#color-37)"/><g><path d="M74.84538,276.86262v-13.80008h144.23308v13.80008z" fill="url(#color-38)"/><path d="M81.40143,281.78151v-23.57511h8.52284v23.57511z" fill="url(#color-39)"/><path d="M103.59138,282.6809v-23.57511h8.52284v23.57511z" fill="url(#color-40)"/><path d="M181.06888,282.03358v-23.57511h8.52284v23.57511z" fill="url(#color-41)"/><path d="M203.2588,282.93297v-23.57511h8.52284v23.57511z" fill="url(#color-42)"/></g><g><path d="M81.29351,313.13341v-13.80008h131.33681v13.80008z" fill="url(#color-43)"/><path d="M87.26339,318.05228v-23.57511h7.7608v23.57511z" fill="url(#color-44)"/><path d="M107.46925,318.95168v-23.57511h7.76078v23.57511z" fill="url(#color-45)"/><path d="M178.01929,318.30435v-23.57511h7.76078v23.57511z" fill="url(#color-46)"/><path d="M198.22516,319.20375v-23.57511h7.7608v23.57511z" fill="url(#color-47)"/></g><g><path d="M89.35367,349.40421v-13.80008h115.21645v13.80008z" fill="url(#color-48)"/><path d="M94.59081,354.32306v-23.57511h6.80824v23.57511z" fill="url(#color-49)"/><path d="M112.31659,355.22248v-23.57511h6.80824v23.57511z" fill="url(#color-50)"/><path d="M174.20729,354.57515v-23.57511h6.80824v23.57511z" fill="url(#color-51)"/><path d="M191.93312,355.47455v-23.57511h6.80824v23.57511z" fill="url(#color-52)"/></g><path d="M133.47727,392.40767l-0.11616,-33.02696l-3.91396,-111.30947h31.48712l-3.98374,111.39162l-0.04636,32.94481z" fill="url(#color-53)"/><path d="M50.77781,250.99834v-7.25418h190.2201v7.25418z" fill="url(#color-54)"/><path d="M253.08814,246.96824c0,6.23213 -4.69127,11.28424 -10.47823,11.28424c-5.78696,0 -10.4782,-5.05211 -10.4782,-11.28424c0,-6.23213 4.69124,-11.28424 10.4782,-11.28424c5.78696,0 10.47823,5.05211 10.47823,11.28424z" fill="url(#color-55)"/><path d="M117.38854,256.73191v-17.73241h55.17408v17.73241z" fill="url(#color-56)"/><path d="M59.64401,246.96824c0,6.23213 -4.69127,11.28424 -10.47823,11.28424c-5.78696,0 -10.47823,-5.05211 -10.47823,-11.28424c0,-6.23213 4.69127,-11.28424 10.47823,-11.28424c5.78696,0 10.47823,5.05211 10.47823,11.28424z" fill="url(#color-57)"/></g><path d="M128.87366,440.6021v-52.54995h32.6894v52.54995z" fill="url(#color-58)"/><path d="M126.39646,407.7793v-9.19909h37.64378v9.19909z" fill="url(#color-59)"/><path d="M126.39646,420.78456v-9.19909h37.64378v9.19909z" fill="url(#color-60)"/></g></g><g stroke-width="0"><path d="M59.06398,218.79511c14.54166,5.3784 22.03502,21.35086 16.73691,35.67547c-2.59507,7.01633 -13.89351,-2.47482 -26.83774,-7.09982c-13.48283,-4.81745 -28.52532,-5.0688 -25.82227,-12.37708c5.29812,-14.32461 21.38144,-21.57697 35.92311,-16.19857z" fill="url(#color-61)" stroke="none"/><path d="M269.20873,234.99369c2.70305,7.30828 -12.33944,7.55963 -25.82227,12.37708c-12.94423,4.62499 -24.24267,14.11615 -26.83774,7.09982c-5.29812,-14.32461 2.19524,-30.29708 16.73691,-35.67547c14.54166,-5.3784 30.62499,1.87396 35.92311,16.19857z" data-paper-data="{&quot;index&quot;:null}" fill="url(#color-62)" stroke="none"/><path d="M220.36201,401.06797c-6.6473,33.87137 -141.96303,36.06391 -148.4922,-2.83904c-0.58597,1.07554 8.74173,-37.95485 6.82267,-74.17825c-1.91906,-36.22343 -35.20774,-117.8146 62.79616,-119.34295c110.5975,-3.229 71.85538,81.77226 71.05461,122.13555c-0.83192,41.93356 8.72863,74.59492 7.81876,74.22469z" data-paper-data="{&quot;index&quot;:null}" fill="url(#color-63)" stroke="#000000"/><path d="M208.88667,391.78537c-5.61766,28.62487 -119.97362,30.47777 -125.49143,-2.3993c-1.86335,-1.26302 8.36605,-43.05797 6.74424,-73.67056c-1.62178,-30.61258 -29.22643,-89.33663 53.59715,-90.62823c78.40478,-1.22268 62.38147,45.21055 58.69365,91.48215c-3.00856,37.74889 7.56431,71.98867 6.4564,75.21594z" data-paper-data="{&quot;index&quot;:null}" fill="url(#color-64)" stroke="#000000"/></g><g><path d="M145.03804,136.34761c47.18369,0 92.47452,21.70484 85.43365,46.52987c-12.98385,45.77906 -38.24996,46.52987 -85.43365,46.52987c-47.18369,0 -76.08528,-7.60786 -85.43362,-46.52987c-6.01963,-25.06285 38.24996,-46.52987 85.43362,-46.52987z" fill="url(#color-65)" stroke="#000000" stroke-width="0"/><g><g fill="url(#color-66)" stroke="#000000" stroke-width="0"><path d="M145.0555,189.27985c37.80455,0 74.09252,12.85085 68.45122,27.54912c-10.40292,27.10459 -30.64667,27.54912 -68.45122,27.54912c-37.80455,0 -60.96112,-4.50443 -68.45122,-27.54912c-4.82306,-14.83905 30.64664,-27.54912 68.45122,-27.54912z"/></g><g fill="none" stroke="none" stroke-width="1" font-family="sans-serif" font-weight="normal" font-size="12" text-anchor="start"/></g><path d="M144.69904,136.59017c36.54305,0 76.43215,20.17705 70.97908,43.2547c-1.95796,8.28622 -9.0886,14.98552 -11.82292,20.40169c-11.30871,22.40039 -8.88238,25.9989 -59.15619,26.06105c-52.72647,0.06518 -47.85708,-7.39605 -58.75994,-25.8146c-3.26538,-5.51631 -11.6198,-12.3091 -13.28848,-20.64814c-4.66213,-23.29871 35.50534,-43.2547 72.04842,-43.2547z" fill="url(#color-67)" stroke="#000000" stroke-width="0"/><path d="M133.14821,157.56573v-2.39043h22.64123v2.39043z" fill="url(#color-68)" stroke="none" stroke-width="0"/><g stroke="none" stroke-width="0"><path d="M135.72935,171.44241c0,-0.25763 0.03657,-16.06042 0.03657,-16.06042l17.28676,-0.00759c0,0 0.05839,15.74189 0.05839,16.06804c0,4.56955 -3.89103,5.58007 -8.69086,5.58007c-4.79983,0 -8.69086,-1.01052 -8.69086,-5.58007z" fill="url(#color-69)"/><path d="M135.72935,169.92729c0,-0.25763 0.03657,-16.06042 0.03657,-16.06042l17.28676,-0.00759c0,0 0.05839,15.74189 0.05839,16.06804c0,4.56955 -3.89103,5.58007 -8.69086,5.58007c-4.79983,0 -8.69086,-1.01052 -8.69086,-5.58007z" fill="url(#color-70)"/></g></g><g><path d="M87.82618,60.29425v-6.05237h113.28552v6.05237z" data-paper-data="{&quot;index&quot;:null}" fill="url(#color-71)" stroke="none" stroke-width="0"/><path d="M87.64894,115.95162v-66.81169h5.68126v66.81169z" fill="url(#color-72)" stroke="none" stroke-width="0"/><path d="M195.43044,115.95162v-66.81169h5.68126v66.81169z" data-paper-data="{&quot;index&quot;:null}" fill="url(#color-73)" stroke="none" stroke-width="0"/><path d="M145.4542,107.82171l-0.16211,0.85298c0.68122,1.61042 1.13882,3.31693 1.48788,5.0303c0.11143,0.50796 0.29482,0.9831 0.53069,1.43433c0.10966,0.15997 0.20708,0.32644 0.28859,0.50141c1.13254,1.80419 3.04272,3.25378 4.33173,4.98672c1.07025,1.43882 1.11855,5.10026 2.17576,6.82457c0.55838,0.91076 3.45049,1.8129 3.75244,2.08917c3.98885,3.64941 -0.60455,5.99958 1.62791,9.28891c1.96183,2.89061 12.58344,-4.79537 13.99258,-5.82768c5.22337,-8.02041 -1.63807,-9.39515 -0.80724,-17.7593c0.43097,-4.33879 6.66609,-9.82989 5.26489,-14.26128c-0.64641,-2.04431 -2.7301,-4.49646 -3.87993,-6.33508c0,0 -1.06265,-1.70025 0.63759,-2.7629c1.70025,-1.06265 2.7629,0.63759 2.7629,0.63759c1.27045,2.03388 3.74584,5.05824 4.33408,7.35491c1.57979,6.168 -4.42257,10.32756 -5.13953,15.85673c-0.44749,3.45099 2.65225,6.13097 3.51088,9.38486c1.1728,4.44433 -1.4524,7.22798 -3.77051,10.64024c-4.07407,3.11455 -11.19279,8.62956 -16.91869,7.1574c-5.68506,-1.46168 -3.31425,-5.58764 -3.48329,-9.53026c-0.03932,-0.91696 -4.48839,-2.66263 -5.12831,-3.57635c-1.09963,-1.57011 -1.26372,-5.63148 -2.20503,-6.86542c-0.43076,-0.56466 -0.85686,-1.03817 -1.27259,-1.46301c-1.4821,2.38617 -4.67822,3.45196 -5.87144,6.97666c-1.33747,3.95086 3.11282,9.04254 -0.79332,12.58189c-1.88369,1.70682 -4.52156,1.14312 -6.70831,1.59933c-8.29261,1.73003 -12.32137,1.73123 -17.57246,-5.77467c-0.36542,-1.38279 -0.21269,-2.97271 -0.98582,-4.17601c-1.92596,-2.99754 -6.58793,-1.86319 -7.8795,-5.95728c-1.29433,-4.10276 2.98148,-9.59565 3.77811,-13.48005c0.57295,-2.79378 -1.13382,-3.59137 -1.84685,-5.91194c-1.02515,-3.33634 0.47011,-8.31993 1.344,-11.54383c0,0 0.52756,-1.93435 2.46191,-1.40679c1.93435,0.52756 1.40679,2.46191 1.40679,2.46191c-0.6019,2.19233 -2.23243,7.0243 -1.39399,9.26496c1.03258,2.75951 2.59547,4.38733 1.98635,7.77804c-0.57178,3.18289 -4.52215,8.45844 -3.8883,11.70955c0.23255,1.19282 3.8787,1.90329 4.62018,2.42673c3.11103,2.19615 3.26252,3.78687 4.03771,7.15358c4.34753,5.88986 6.71034,4.88933 13.09316,3.53454c1.57412,-0.33411 3.49585,0.3636 4.79128,-0.59108c1.40388,-1.03461 -0.83422,-9.18246 -0.24571,-10.96491c1.0448,-3.16439 5.46739,-4.74104 6.30952,-7.42709c0.72718,-2.31937 -1.66557,-3.75503 -2.87387,-5.45296c-0.76904,-1.84961 -1.05506,-3.90873 -1.07907,-5.9117l0.33366,-1.5815c0,0 0.48628,-1.94515 2.43143,-1.45887c0.43867,0.10966 0.75367,0.29353 0.97847,0.51253c1.63545,0.22985 1.63545,1.98023 1.63545,1.98023z" fill="url(#color-74)" stroke="none" stroke-width="0.5"/><path d="M82.08699,84.40786v-7.86977h123.95765v7.86977z" fill="url(#color-75)" stroke="none" stroke-width="0"/><g stroke="#000000" stroke-width="0"><path d="M137.79189,80.59043c0,14.48533 -11.44911,26.22803 -25.57231,26.22803c-14.1232,0 -25.57231,-11.74267 -25.57231,-26.22803c0,-14.48533 11.44911,-26.22803 25.57231,-26.22803c14.1232,0 25.57231,11.74267 25.57231,26.22803z" fill="url(#color-76)"/><g><path d="M112.21957,88.78525c-4.41273,0 -7.98993,-3.66893 -7.98993,-8.19479c0,-4.52587 3.57723,-8.19479 7.98993,-8.19479c4.41273,0 7.98993,3.66893 7.98993,8.19479c0,4.52587 -3.57723,8.19479 -7.98993,8.19479z" fill="#f500ff"/><path d="M112.21957,87.41526c-3.67502,0 -6.6542,-3.05555 -6.6542,-6.82481c0,-3.76923 2.97918,-6.82481 6.6542,-6.82481c3.67502,0 6.6542,3.05555 6.6542,6.82481c0,3.76923 -2.97918,6.82481 -6.6542,6.82481z" fill="#000000"/></g></g><g stroke="#000000" stroke-width="0"><path d="M201.50661,80.59043c0,14.48533 -11.44911,26.22803 -25.57231,26.22803c-14.1232,0 -25.57231,-11.74267 -25.57231,-26.22803c0,-14.48533 11.44911,-26.22803 25.57231,-26.22803c14.1232,0 25.57231,11.74267 25.57231,26.22803z" fill="url(#color-77)"/><g><path d="M175.9343,88.78525c-4.41273,0 -7.98993,-3.66893 -7.98993,-8.19479c0,-4.52587 3.57723,-8.19479 7.98993,-8.19479c4.41273,0 7.98993,3.66893 7.98993,8.19479c0,4.52587 -3.57723,8.19479 -7.98993,8.19479z" fill="#f500ff"/><path d="M175.9343,87.41526c-3.67502,0 -6.6542,-3.05555 -6.6542,-6.82481c0,-3.76923 2.97918,-6.82481 6.6542,-6.82481c3.67502,0 6.6542,3.05555 6.6542,6.82481c0,3.76923 -2.97918,6.82481 -6.6542,6.82481z" fill="#000000"/></g></g><path d="M139.07392,119.19976l0.35291,-68.15496l9.52521,0.2039l-0.35291,68.15496z" fill="url(#color-78)" stroke="none" stroke-width="0"/><path d="M155.51724,159.05592v-42.09578h5.49076v42.09578z" fill="url(#color-79)" stroke="none" stroke-width="0"/><path d="M128.06348,159.05592v-42.09578h5.49076v42.09578z" fill="url(#color-80)" stroke="none" stroke-width="0"/><path d="M85.63572,75.86251l-0.28041,36.71246l118.23354,0.28303l0.38237,-36.98434l7.73081,0.11765l-0.47422,45.71415l-133.49382,-0.58431l0.30428,-45.35202z" fill="url(#color-81)" stroke="none" stroke-width="0"/></g><path d="M2.66861,-15.04568c2.34162,-7.25813 7.10208,-15.24931 14.76425,-22.28583c6.80396,-6.24844 11.46277,-10.17252 14.8444,-12.33884c2.22444,-1.42502 8.52447,-1.42358 11.18936,1.07146c3.43536,3.21646 2.75137,9.5784 -0.32352,11.89066c-3.09031,2.32383 -8.12362,6.073 -15.69434,13.02558c-6.8787,6.31707 -9.3992,11.69084 -10.25509,16.10417c-1.75047,9.02612 -18.58499,5.11727 -14.52501,-7.46718z" data-paper-data="{&quot;index&quot;:null}" fill="url(#color-82)" stroke="none" stroke-width="0"/><path d="M-4.42705,47.98909c-0.80114,-21.63973 -6.10965,-59.39694 11.77266,-60.18145c17.78589,-0.7803 15.38925,37.50645 16.1904,59.1462c0.80115,21.63976 -27.16192,22.675 -27.96307,1.03525z" fill="url(#color-83)" stroke="none" stroke-width="0"/><path d="M48.9256,19.02414c-2.67676,7.14134 -7.80387,14.90237 -15.78508,21.5748c-7.08733,5.92509 -11.92362,9.62821 -15.40237,11.63484c-2.28833,1.31998 -8.58148,1.02547 -11.12739,-1.59087c-3.28201,-3.3728 -2.30275,-9.69605 0.87639,-11.86272c3.19509,-2.17751 8.39737,-5.68848 16.28337,-12.2813c7.16514,-5.99019 9.93295,-11.24088 10.99323,-15.60959c2.16853,-8.93493 18.80294,-4.24709 14.16188,8.13485z" data-paper-data="{&quot;index&quot;:null}" fill="url(#color-84)" stroke="none" stroke-width="0"/><path d="M297.81525,34.63429c1.41577,13.14716 -15.86189,13.55059 -15.74009,4.35709c0.05956,-4.49516 -1.31537,-10.26922 -6.76559,-17.85324c-5.99852,-8.34697 -10.16415,-13.04144 -12.71726,-15.94519c-2.54036,-2.88929 -1.91621,-9.25737 2.10151,-11.70795c3.11663,-1.90092 9.28529,-0.62105 11.17343,1.22658c2.87039,2.80879 6.63378,7.59834 12.02476,15.09994c6.07098,8.44776 9.10675,17.24009 9.9233,24.82276z" data-paper-data="{&quot;index&quot;:null}" fill="url(#color-85)" stroke="none" stroke-width="0"/><path d="M263.07631,88.50888c5.47619,-20.9507 11.44185,-58.84569 28.63498,-54.22583c17.28634,4.64489 3.91388,40.35154 -1.56231,61.30222c-5.4762,20.95071 -32.54888,13.87431 -27.07268,-7.07639z" fill="url(#color-86)" stroke="none" stroke-width="0"/><path d="M244.34979,55.73667c-1.84465,-13.09386 15.41059,-14.06171 15.58929,-4.86914c0.08738,4.49468 1.65028,10.22073 7.34542,17.62258c6.2681,8.14648 10.58491,12.70234 13.23157,15.52109c2.63344,2.8047 2.21774,9.1898 -1.71776,11.77036c-3.05283,2.00178 -9.26002,0.92416 -11.20754,-0.86078c-2.96064,-2.71346 -6.87849,-7.3775 -12.51177,-14.69891c-6.34376,-8.24484 -9.66528,-16.93326 -10.72918,-24.4852z" data-paper-data="{&quot;index&quot;:null}" fill="url(#color-87)" stroke="none" stroke-width="0"/><g stroke-width="0"><path d="M233.17837,32.77261l-166.78404,-24.44987c0,0 -14.59436,-32.58847 -0.38993,-62.75615c16.82123,-35.72531 12.16558,-73.2792 103.91423,-60.28767c89.7476,12.75447 71.4612,45.04513 79.97426,83.58945c8.37964,37.94021 -16.71452,63.90427 -16.71452,63.90427z" fill="#484848" stroke="none"/><g><g><path d="M108.85315,-84.23716l-32.5355,-43.50985l3.50875,-2.64588l32.53548,43.50985z" fill="url(#color-88)" stroke="none"/><g stroke="#000000"><g fill="url(#color-89)"><path d="M96.93819,-143.20618c0.53879,0.70924 14.24697,14.22428 -6.3394,29.67708c-20.30646,15.24266 -27.55134,1.70319 -30.27559,-1.70073c-11.82024,-14.76919 -16.70551,-60.14442 -16.70551,-60.14442c0,0 41.87764,17.10464 53.3205,32.16809z"/></g><g fill="url(#color-90)"><path d="M91.31901,-140.7573c0.40997,0.53974 10.84153,10.82425 -4.82408,22.58338c-15.4526,11.59922 -20.96578,1.29607 -23.03882,-1.29418c-8.99486,-11.2389 -14.02287,-47.52304 -14.02287,-47.52304c0,0 33.17814,14.77099 41.88581,26.23382z"/></g></g></g><path d="M114.89656,-84.81701c-0.32285,2.29933 -2.44853,3.90157 -4.74786,3.57872c-2.29933,-0.32285 -3.90157,-2.44853 -3.57872,-4.74786c0.32285,-2.29933 2.44853,-3.90157 4.74786,-3.57872c2.29933,0.32285 3.90157,2.44853 3.57872,4.74786z" fill="url(#color-91)" stroke="none"/></g><g data-paper-data="{&quot;index&quot;:null}"><g><path d="M216.31013,-72.28771l43.2596,-32.86748l2.64443,3.50985l-43.25962,32.86748z" fill="url(#color-92)" stroke="none"/><g stroke="#000000"><g fill="url(#color-93)"><path d="M246.64825,-122.1854c15.14872,-11.32973 60.11751,-16.24029 60.11751,-16.24029c0,0 -17.19226,42.27532 -32.62273,53.21825c-3.55633,2.52207 -14.2497,13.54284 -29.57327,-6.70263c-15.5348,-20.52457 1.36524,-29.74191 2.0785,-30.27535z"/></g><g fill="url(#color-94)"><path d="M251.37575,-118.28381c11.52772,-8.62159 47.49073,-13.68449 47.49073,-13.68449c0,0 -14.82588,33.49646 -26.56802,41.82369c-2.70621,1.91919 -10.8436,10.30567 -22.50437,-5.10052c-11.82151,-15.6186 1.03892,-22.63269 1.58169,-23.03864z"/></g></g></g><path d="M218.0523,-74.57831c2.29933,0.32285 3.90157,2.44853 3.57872,4.74786c-0.32285,2.29933 -2.44853,3.90157 -4.74786,3.57872c-2.29933,-0.32285 -3.90157,-2.44853 -3.57872,-4.74786c0.32285,-2.29933 2.44853,-3.90157 4.74786,-3.57872z" fill="url(#color-95)" stroke="none"/></g><g><g><path d="M233.17837,32.77261l-166.78404,-24.44987c0,0 -14.59436,-32.58847 -0.38993,-62.75615c16.82123,-35.72531 12.16558,-73.2792 103.91423,-60.28767c89.7476,12.75447 71.4612,45.04513 79.97426,83.58945c8.37964,37.94021 -16.71452,63.90427 -16.71452,63.90427zM123.10296,-20.24737c14.62104,2.05294 28.138,-8.13556 30.19093,-22.75659c4.77887,-34.03515 -5.71939,-45.34598 -20.34042,-47.39891c-14.62104,-2.05294 -30.59198,9.59071 -32.6071,39.96457c-0.97739,14.7321 8.13556,28.138 22.75659,30.19093zM186.72959,-11.96424c14.62104,2.05294 27.84545,-9.25644 29.89839,-23.87749c2.05294,-14.62104 4.59755,-41.91767 -20.17178,-45.39553c-24.32809,-3.4159 -29.39909,23.52598 -31.45203,38.14704c-2.05294,14.62104 7.10439,29.07304 21.72543,31.12598z" fill="url(#color-96)" stroke="none"/><g><g stroke="#000000"><path d="M106.69215,1.07613c-2.75642,7.37617 -26.47883,3.04278 -53.90906,-7.20769c-27.4302,-10.25045 -50.97314,-48.15813 -50.97314,-48.15813c0,0 30.9046,18.20791 58.33479,28.45835c0,0 49.30383,19.53127 46.54741,26.90744z" fill="url(#color-97)"/><path d="M107.89934,5.21756c-1.78771,7.66879 -25.86998,6.41343 -54.38827,-0.23459c-28.51826,-6.64798 -56.72829,-41.22339 -56.72829,-41.22339c0,0 32.98445,14.09419 61.50275,20.74218c0,0 51.40153,13.04696 49.61382,20.71577z" fill="url(#color-98)"/><path d="M106.1685,6.04124c-0.55681,7.85469 -24.53598,10.41031 -53.7456,8.33975c-29.2096,-2.07056 -62.51604,-31.76804 -62.51604,-31.76804c0,0 34.79346,8.71981 64.00306,10.79037c0,0 52.81535,4.78325 52.25855,12.63792z" fill="url(#color-99)"/><path d="M108.49803,9.6719c0.45513,7.86123 -22.99828,13.47097 -52.23224,15.16354c-29.23394,1.69255 -66.07389,-23.48832 -66.07389,-23.48832c0,0 35.62441,4.18569 64.85836,2.49315c0,0 52.99266,-2.02959 53.44781,5.83164z" fill="url(#color-100)"/><path d="M108.19308,4.96342c2.15741,7.57307 -19.50975,18.15922 -47.67218,26.18209c-28.16241,8.02287 -69.60461,-8.52418 -69.60461,-8.52418c0,0 35.68034,-3.67856 63.84277,-11.70143c0,0 51.27661,-13.52958 53.43402,-5.95648z" fill="url(#color-101)"/></g><g data-paper-data="{&quot;index&quot;:null}" stroke="#000000"><path d="M246.00957,0.26592c29.19241,-2.30008 63.91626,-11.29312 63.91626,-11.29312c0,0 -33.072,29.9584 -62.26441,32.25848c-29.19244,2.30008 -53.19094,-0.06699 -53.80946,-7.91703c-0.61851,-7.85005 52.15758,-13.0483 52.15758,-13.0483z" fill="url(#color-102)"/><path d="M244.95123,10.71148c29.24635,1.46273 64.83679,-3.00288 64.83679,-3.00288c0,0 -36.64092,25.46967 -65.88727,24.00697c-29.24636,-1.4627 -52.74314,-6.88793 -52.34982,-14.75248c0.39333,-7.86458 53.4003,-6.25158 53.4003,-6.25158z" fill="url(#color-103)"/><path d="M246.7062,20.4738c28.65035,6.05353 64.49979,7.25268 64.49979,7.25268c0,0 -40.19696,19.37691 -68.84731,13.32335c-28.65037,-6.05354 -50.99854,-15.11397 -49.37071,-22.81829c1.62782,-7.70431 53.71821,2.24225 53.71821,2.24225z" fill="url(#color-104)"/><path d="M242.73573,30.19313c27.63743,9.67784 63.03704,15.46461 63.03704,15.46461c0,0 -42.35001,14.06183 -69.98744,4.38399c-27.63745,-9.67784 -48.63913,-21.52953 -46.03667,-28.96145c2.60244,-7.43192 52.98708,9.11285 52.98708,9.11285z" fill="url(#color-105)"/><path d="M241.06618,37.07923c24.86402,15.4683 58.15167,28.83064 58.15167,28.83064c0,0 -44.39664,4.49444 -69.26065,-10.97385c-24.86404,-15.4683 -42.77807,-31.61203 -38.61853,-38.29814c4.15954,-6.68611 49.72751,20.44136 49.72751,20.44136z" fill="url(#color-106)"/></g><path d="M83.60447,-12.66271c12.01881,-17.56464 25.45067,-22.96432 46.33126,-20.47848c10.98018,0.99795 24.37614,5.42527 25.90857,24.47579c0.37493,4.66113 -2.01002,9.90986 -2.93974,16.53138c-3.22338,22.95699 -5.75103,40.98739 -5.75103,40.98739c0,0 -18.00844,3.17712 -34.79668,0.81988c-20.82337,-2.9238 -53.29478,-26.46893 -28.75235,-62.33595z" data-paper-data="{&quot;index&quot;:null}" fill="url(#color-107)" stroke="#000000"/><path d="M180.31408,59.2151c-16.92807,-2.37687 -33.81577,-10.14575 -33.81577,-10.14575c0,0 3.15093,-18.433 6.34924,-41.21139c0.90341,-6.43408 1.5646,-11.79893 3.14492,-16.10886c6.69321,-18.25382 19.32325,-19.06606 30.22872,-16.98727c20.75777,3.36058 32.18323,12.25048 38.90018,32.44581c13.71602,41.23888 -23.98394,54.93126 -44.80728,52.00746z" fill="url(#color-108)" stroke="#000000"/><path d="M157.30139,-26.24385c4.99552,0.70142 8.64299,4.13444 8.14687,7.66786c-0.49613,3.53343 -6.5492,17.23331 -11.54474,16.53188c-4.99555,-0.70142 -7.04178,-15.53852 -6.54565,-19.07195c0.49613,-3.53343 4.94798,-5.82922 9.94353,-5.1278z" fill="url(#color-109)" stroke="none"/></g></g><g stroke="#000000"><path d="M106.66292,-102.70373c3.48293,8.00529 -3.59565,15.08766 -11.73628,22.34475c-19.36965,17.26733 -20.12101,15.39674 -20.12101,15.39674c0,0 2.02891,-7.66017 -4.2281,-22.04145c-10.40454,-23.91411 -58.4413,-19.70532 11.73639,-22.34478c10.91206,-0.41042 20.86613,-1.36046 24.34904,6.64475z" fill="url(#color-110)"/><path d="M118.46218,-125.07586c49.76916,-49.547 13.94456,-17.2694 24.3491,6.64473c6.25701,14.3813 13.24469,18.11851 13.24469,18.11851c0,0 0.85651,1.82485 -24.98104,4.22626c-10.859,1.00925 -20.86614,1.36054 -24.34907,-6.64475c-3.48292,-8.00518 3.99758,-14.64054 11.7363,-22.34475z" data-paper-data="{&quot;index&quot;:null}" fill="url(#color-111)"/><path d="M121.11148,-110.17981c3.56788,8.20049 -0.02938,17.67174 -8.03457,21.15465c-8.00526,3.48294 -17.38707,-0.34142 -20.95494,-8.54188c-3.56788,-8.20049 0.02938,-17.67176 8.03458,-21.15467c8.00526,-3.48294 17.38709,0.34149 20.95494,8.54194z" fill="url(#color-112)"/></g></g></g></g></g></svg>