<svg version="1.1" xmlns="http://www.w3.org/2000/svg" xmlns:xlink="http://www.w3.org/1999/xlink" width="886.796" height="572.42438" viewBox="0,0,886.796,572.42438"><defs><linearGradient x1="226.08921" y1="226.04823" x2="251.6183" y2="226.04823" gradientUnits="userSpaceOnUse" id="color-1"><stop offset="0" stop-color="#7a7a7a"/><stop offset="1" stop-color="#a4a4a4"/></linearGradient><linearGradient x1="174.00087" y1="152.01257" x2="187.82472" y2="152.01257" gradientUnits="userSpaceOnUse" id="color-2"><stop offset="0" stop-color="#7a7a7a"/><stop offset="1" stop-color="#a4a4a4"/></linearGradient><linearGradient x1="286.95646" y1="152.01257" x2="300.78027" y2="152.01257" gradientUnits="userSpaceOnUse" id="color-3"><stop offset="0" stop-color="#7a7a7a"/><stop offset="1" stop-color="#a4a4a4"/></linearGradient><linearGradient x1="239.21994" y1="95.68611" x2="239.21994" y2="140.60503" gradientUnits="userSpaceOnUse" id="color-4"><stop offset="0" stop-color="#a4a4a4"/><stop offset="1" stop-color="#7a7a7a"/></linearGradient><linearGradient x1="238.01565" y1="108.99217" x2="238.01565" y2="122.22366" gradientUnits="userSpaceOnUse" id="color-5"><stop offset="0" stop-color="#6b6b6b"/><stop offset="1" stop-color="#222222"/></linearGradient><linearGradient x1="256.72731" y1="246.01258" x2="256.72731" y2="254.42507" gradientUnits="userSpaceOnUse" id="color-6"><stop offset="0" stop-color="#9a9a9a"/><stop offset="1" stop-color="#dedede"/></linearGradient><linearGradient x1="244.35592" y1="245.93635" x2="244.35592" y2="254.34884" gradientUnits="userSpaceOnUse" id="color-7"><stop offset="0" stop-color="#9a9a9a"/><stop offset="1" stop-color="#dedede"/></linearGradient><linearGradient x1="232.0607" y1="245.93635" x2="232.0607" y2="254.34884" gradientUnits="userSpaceOnUse" id="color-8"><stop offset="0" stop-color="#9a9a9a"/><stop offset="1" stop-color="#dedede"/></linearGradient><linearGradient x1="219.68929" y1="245.8601" x2="219.68929" y2="254.27259" gradientUnits="userSpaceOnUse" id="color-9"><stop offset="0" stop-color="#9a9a9a"/><stop offset="1" stop-color="#dedede"/></linearGradient><linearGradient x1="237.79426" y1="237.34939" x2="237.79426" y2="249.85333" gradientUnits="userSpaceOnUse" id="color-10"><stop offset="0" stop-color="#a4a4a4"/><stop offset="1" stop-color="#3d3d3d"/></linearGradient><linearGradient x1="256.65107" y1="265.51709" x2="256.65107" y2="273.92955" gradientUnits="userSpaceOnUse" id="color-11"><stop offset="0" stop-color="#dedede"/><stop offset="1" stop-color="#9a9a9a"/></linearGradient><linearGradient x1="244.27962" y1="265.59335" x2="244.27962" y2="274.00586" gradientUnits="userSpaceOnUse" id="color-12"><stop offset="0" stop-color="#dedede"/><stop offset="1" stop-color="#9a9a9a"/></linearGradient><linearGradient x1="231.98446" y1="265.59335" x2="231.98446" y2="274.00586" gradientUnits="userSpaceOnUse" id="color-13"><stop offset="0" stop-color="#dedede"/><stop offset="1" stop-color="#9a9a9a"/></linearGradient><linearGradient x1="219.61304" y1="265.6696" x2="219.61304" y2="274.08211" gradientUnits="userSpaceOnUse" id="color-14"><stop offset="0" stop-color="#dedede"/><stop offset="1" stop-color="#9a9a9a"/></linearGradient><linearGradient x1="237.71801" y1="270.08888" x2="237.71801" y2="282.59281" gradientUnits="userSpaceOnUse" id="color-15"><stop offset="0" stop-color="#a4a4a4"/><stop offset="1" stop-color="#3d3d3d"/></linearGradient><radialGradient cx="181.17512" cy="116.17589" r="41.15653" gradientUnits="userSpaceOnUse" id="color-16"><stop offset="0" stop-color="#ffffff"/><stop offset="1" stop-color="#c4bfb5"/></radialGradient><radialGradient cx="192.8353" cy="108.73478" r="15.29478" gradientUnits="userSpaceOnUse" id="color-17"><stop offset="0" stop-color="#ffffff"/><stop offset="1" stop-color="#ffffff" stop-opacity="0"/></radialGradient><radialGradient cx="293.54431" cy="116.60799" r="41.15653" gradientUnits="userSpaceOnUse" id="color-18"><stop offset="0" stop-color="#ffffff"/><stop offset="1" stop-color="#c5c1b7"/></radialGradient><radialGradient cx="304.62034" cy="108.73478" r="15.29478" gradientUnits="userSpaceOnUse" id="color-19"><stop offset="0" stop-color="#ffffff"/><stop offset="1" stop-color="#ffffff" stop-opacity="0"/></radialGradient><linearGradient x1="237.39059" y1="186.97977" x2="237.39059" y2="199.56733" gradientUnits="userSpaceOnUse" id="color-20"><stop offset="0" stop-color="#a4a4a4"/><stop offset="1" stop-color="#686868"/></linearGradient><radialGradient cx="313.23432" cy="72.86463" r="157.22313" gradientUnits="userSpaceOnUse" id="color-21"><stop offset="0" stop-color="#e0c297"/><stop offset="1" stop-color="#b9a17e"/></radialGradient><radialGradient cx="270.43136" cy="26.91788" r="129.95537" gradientUnits="userSpaceOnUse" id="color-22"><stop offset="0" stop-color="#634a14"/><stop offset="1" stop-color="#443014"/></radialGradient><linearGradient x1="239.60658" y1="346.84098" x2="239.60658" y2="568.60308" gradientUnits="userSpaceOnUse" id="color-23"><stop offset="0" stop-color="#a4a4a4"/><stop offset="1" stop-color="#7a7a7a"/></linearGradient><linearGradient x1="239.60658" y1="346.84098" x2="239.60658" y2="364.93189" gradientUnits="userSpaceOnUse" id="color-24"><stop offset="0" stop-color="#a4a4a4"/><stop offset="1" stop-color="#7a7a7a"/></linearGradient><linearGradient x1="239.60658" y1="338.64735" x2="239.60658" y2="373.12555" gradientUnits="userSpaceOnUse" id="color-25"><stop offset="0" stop-color="#303030"/><stop offset="1" stop-color="#4b4b4b"/></linearGradient><radialGradient cx="481.25999" cy="371.5638" r="29.94665" gradientUnits="userSpaceOnUse" id="color-26"><stop offset="0" stop-color="#7582b0"/><stop offset="1" stop-color="#485b9d"/></radialGradient><radialGradient cx="510.63287" cy="388.39376" r="64.60421" gradientUnits="userSpaceOnUse" id="color-27"><stop offset="0" stop-color="#7582b0"/><stop offset="1" stop-color="#485b9d"/></radialGradient><radialGradient cx="1.27566" cy="372.02516" r="29.94665" gradientUnits="userSpaceOnUse" id="color-28"><stop offset="0" stop-color="#7582b0"/><stop offset="1" stop-color="#485b9d"/></radialGradient><radialGradient cx="-28.3006" cy="388.49507" r="64.60421" gradientUnits="userSpaceOnUse" id="color-29"><stop offset="0" stop-color="#7582b0"/><stop offset="1" stop-color="#485b9d"/></radialGradient><radialGradient cx="355.10884" cy="341.76707" r="29.7742" gradientUnits="userSpaceOnUse" id="color-30"><stop offset="0" stop-color="#7582b0"/><stop offset="1" stop-color="#485b9d"/></radialGradient><radialGradient cx="390.25032" cy="354.96746" r="65.66169" gradientUnits="userSpaceOnUse" id="color-31"><stop offset="0" stop-color="#7582b0"/><stop offset="1" stop-color="#485b9d"/></radialGradient><radialGradient cx="127.78133" cy="343.77155" r="29.7742" gradientUnits="userSpaceOnUse" id="color-32"><stop offset="0" stop-color="#7582b0"/><stop offset="1" stop-color="#485b9d"/></radialGradient><radialGradient cx="92.48127" cy="356.54172" r="65.66169" gradientUnits="userSpaceOnUse" id="color-33"><stop offset="0" stop-color="#7582b0"/><stop offset="1" stop-color="#485b9d"/></radialGradient><linearGradient x1="115.49895" y1="431.58383" x2="366.21362" y2="431.58383" gradientUnits="userSpaceOnUse" id="color-34"><stop offset="0" stop-color="#7582b0"/><stop offset="1" stop-color="#485b9d"/></linearGradient><linearGradient x1="640.89751" y1="409.61098" x2="643.08236" y2="452.38208" gradientUnits="userSpaceOnUse" id="color-35"><stop offset="0" stop-color="#e0c297"/><stop offset="1" stop-color="#b9a17e"/></linearGradient><linearGradient x1="632.67042" y1="371.96514" x2="634.53317" y2="408.43102" gradientUnits="userSpaceOnUse" id="color-36"><stop offset="0" stop-color="#e0c297"/><stop offset="1" stop-color="#b9a17e"/></linearGradient><linearGradient x1="609.95083" y1="338.22058" x2="612.41243" y2="386.40986" gradientUnits="userSpaceOnUse" id="color-37"><stop offset="0" stop-color="#e0c297"/><stop offset="1" stop-color="#b9a17e"/></linearGradient><linearGradient x1="515.3925" y1="433.43721" x2="626.25905" y2="425.73491" gradientUnits="userSpaceOnUse" id="color-38"><stop offset="0" stop-color="#e0c297"/><stop offset="1" stop-color="#b9a17e"/></linearGradient><linearGradient x1="524.24698" y1="389.03182" x2="554.12706" y2="393.01767" gradientUnits="userSpaceOnUse" id="color-39"><stop offset="0" stop-color="#e0c297"/><stop offset="1" stop-color="#b9a17e"/></linearGradient><linearGradient x1="-158.8147" y1="408.11955" x2="-161.52181" y2="450.86078" gradientUnits="userSpaceOnUse" id="color-40"><stop offset="0" stop-color="#e0c297"/><stop offset="1" stop-color="#b9a17e"/></linearGradient><linearGradient x1="-150.12838" y1="370.577" x2="-152.43643" y2="407.01745" gradientUnits="userSpaceOnUse" id="color-41"><stop offset="0" stop-color="#e0c297"/><stop offset="1" stop-color="#b9a17e"/></linearGradient><linearGradient x1="-126.99831" y1="337.11252" x2="-130.04837" y2="385.26812" gradientUnits="userSpaceOnUse" id="color-42"><stop offset="0" stop-color="#e0c297"/><stop offset="1" stop-color="#b9a17e"/></linearGradient><linearGradient x1="-33.61007" y1="433.47702" x2="-144.37427" y2="424.4211" gradientUnits="userSpaceOnUse" id="color-43"><stop offset="0" stop-color="#e0c297"/><stop offset="1" stop-color="#b9a17e"/></linearGradient><linearGradient x1="-41.92149" y1="388.96681" x2="-71.84806" y2="392.58736" gradientUnits="userSpaceOnUse" id="color-44"><stop offset="0" stop-color="#e0c297"/><stop offset="1" stop-color="#b9a17e"/></linearGradient></defs><g transform="translate(202.54377,3.8213)"><g data-paper-data="{&quot;isPaintingLayer&quot;:true}" fill-rule="nonzero" stroke-linecap="butt" stroke-linejoin="miter" stroke-miterlimit="10" stroke-dasharray="" stroke-dashoffset="0" style="mix-blend-mode: normal"><path d="M153.50897,559.48424c0,0 2.37765,-116.30034 -4.66454,-160.74912c-4.80646,-30.33735 -33.50602,-70.22576 -33.50602,-70.22576c0,0 84.28303,-24.62757 126.47381,-24.32383c41.36447,0.2978 124.2409,26.12893 124.2409,26.12893c0,0 -33.15955,34.54225 -38.06824,63.01452c-7.60997,44.14144 -3.15604,166.15522 -3.15604,166.15522z" fill="#191919" stroke="none" stroke-width="0"/><path d="M371.94959,131.45836c0,28.39167 45.33227,55.34538 9.38327,104.72177c-37.36605,51.32282 -98.79759,61.83726 -145.07428,61.83726c-49.59196,0 -93.63974,0.20625 -142.36475,-65.69002c-33.06791,-44.72139 6.67377,-75.7612 6.67377,-100.86904c0,-74.22971 60.75091,-134.40479 135.69094,-134.40479c74.94004,0 135.69094,60.17508 135.69094,134.40479z" fill="#191919" stroke="none" stroke-width="0"/><g><path d="M306.59951,215.67146c4.36055,-3.03403 9.0588,-13.24791 10.43998,-18.30987c-0.03806,-6.46945 4.25083,-14.55576 2.79182,-20.65446c-1.57883,-6.59962 -5.85827,-12.91365 -8.06685,-19.36539c-2.00867,-5.8676 -4.15277,-11.51995 -6.80231,-16.86342c1.88919,7.19406 2.78087,14.69604 1.84648,20.59764c-1.25756,7.94284 -5.20309,15.44461 -3.83607,23.76689c1.89598,11.54249 9.94759,14.80137 3.98206,27.26579c-1.21395,2.11086 -2.59073,3.79652 -4.10365,5.14263c1.33866,-0.2865 2.60531,-0.7844 3.74848,-1.57979zM298.12872,117.75998c10.16283,10.54144 15.82148,23.19674 20.50261,37.00058c2.27152,6.6983 6.83779,13.28884 8.30976,20.2084c1.61711,7.60176 -2.62635,15.69687 -2.66701,23.44199c-1.9531,7.03508 -7.44725,19.31019 -13.57906,23.52526c-6.98988,4.80489 -15.61943,2.64831 -23.19001,1.75845c-14.17307,-1.66588 -28.22205,0.51825 -41.73439,3.95163c-0.81128,0.00478 -1.6225,0.00876 -2.43369,0.01205l0.53958,3.64848c0,0 -1.15507,3.58861 -4.62021,2.39242c-2.1638,-0.74699 -2.52603,-2.42686 -2.49293,-3.58326c-0.86963,-0.55504 -1.74467,-1.08622 -2.62116,-1.59984c-1.02479,0.45271 -2.8246,0.807 -4.29534,-1.22391c-0.03605,-0.04974 -0.07066,-0.09925 -0.10395,-0.14858c-0.63113,-0.35365 -1.24501,-0.94278 -1.53873,-1.92434c-0.54572,-0.29511 -1.08836,-0.589 -1.62704,-0.88308c1.47841,2.59863 2.75633,5.35215 5.48845,7.14972l2.34901,1.81725c0,0 2.92209,2.26965 0.73055,5.29582c-2.19158,3.02618 -5.1136,0.75656 -5.1136,0.75656l-2.01808,-1.57478c-4.48119,-3.19714 -5.58901,-8.72305 -9.24667,-11.84933c-1.65628,-1.41569 -4.2793,-0.38584 -6.42259,-0.52547c-4.56904,-0.29766 -11.97946,-0.43326 -15.75286,-3.69129c-5.46874,-4.72177 -5.35193,-16.07971 -9.74661,-22.18041c-12.02425,-0.74597 -22.27559,-11.05266 -19.90083,-24.37115c0.58974,-3.30771 3.30715,-5.82397 4.48276,-8.95954c2.45009,-6.53521 -3.52569,-15.87922 -4.48596,-21.93354c-1.2963,-8.17327 2.27405,-14.16902 6.76667,-19.86781c0.1732,-0.46604 0.35204,-0.93744 0.53571,-1.4149c0,0 0.74261,-1.92261 2.50249,-2.35389c-0.01958,-0.44105 -0.03108,-0.88411 -0.03432,-1.32933c0,0 0,-3.78273 3.65257,-3.78273c3.65257,0 3.65261,3.78273 3.65261,3.78273c-0.12747,13.62707 9.06208,21.90391 16.6151,31.49039c1.72363,2.18776 4.08285,7.52475 4.61587,10.23514c0.494,2.5119 -1.33854,7.78076 1.09968,9.79906c3.52631,2.91901 11.98235,2.73715 14.51773,6.58128c2.86629,4.3458 2.3038,10.27533 4.01131,15.23218c3.33406,5.63275 5.29708,10.89815 7.03785,17.20769l0.49902,1.53903c0,0 1.15508,3.58861 -2.31005,4.78484c-3.46518,1.19623 -4.62021,-2.39242 -4.62021,-2.39242l-0.59277,-1.85303c-1.64647,-5.96806 -3.4874,-10.67874 -6.60835,-16.03135c-1.52584,-4.42058 -0.9945,-9.55123 -3.08626,-13.71606c-0.8803,-1.75271 -11.75807,-3.7178 -13.86838,-5.85615c-5.26599,-5.33593 -1.88858,-11.47167 -4.61739,-17.53517c-1.88452,-4.18751 -5.61178,-6.39528 -8.33938,-10.06494c-3.8881,-5.23106 -7.34649,-10.91664 -9.46762,-17.07389c-1.08746,3.77875 -1.15163,7.31426 1.69508,11.44723c2.08292,3.02404 5.3946,5.17716 6.90595,8.54589c3.08782,6.88263 -1.45654,19.96963 5.16253,25.37081c8.30785,6.77924 17.36663,10.90926 21.78441,21.54632c1.40051,9.70655 6.69622,14.3555 13.25476,18.15619h1.24259c4.63398,0.20364 8.95515,-3.25003 13.18008,-5.29155c7.74808,-3.74396 15.76274,-6.52066 22.63887,-11.87422c5.08926,-4.74099 3.23551,-17.06948 4.88475,-23.61762c1.41717,-5.62645 6.068,-7.80032 9.55307,-11.69512c3.8429,-4.29468 7.36496,-10.91879 9.23292,-16.32032c3.50502,-10.13537 -0.89585,-20.61442 -0.91109,-30.87552c0,0 0,-3.78273 3.65257,-3.78273c2.91697,0 3.50445,2.41249 3.62273,3.38425c1.84311,-0.42116 3.32712,1.11575 3.32712,1.11575zM279.71521,215.02105c7.42944,0 16.8334,1.19226 20.79864,-6.48226c4.46732,-9.1515 -3.12225,-13.16289 -4.75214,-22.48409c-1.60535,-9.18107 2.37354,-17.25245 3.80635,-25.98294c0.96469,-5.87803 -0.39316,-14.27315 -2.76811,-21.66567c0.14834,4.03066 -0.17866,8.10015 -1.57386,12.30603c-2.06902,6.23689 -6.27029,13.72327 -10.63306,18.63447c-2.18275,2.45716 -7.1949,4.91602 -7.91533,8.65711c-1.82469,9.47485 -0.42995,19.95131 -7.12476,27.26293c-3.62987,2.81398 -8.64225,6.19905 -14.12276,9.3287c7.89527,-0.32345 15.94699,0.42574 24.28499,0.42574zM207.4165,200.60361c-3.64812,-8.86817 -13.18145,-12.03188 -19.70297,-18.02745c-6.63352,-6.09845 -5.31541,-15.87861 -6.06754,-23.85092c-0.46808,-4.96153 -3.20691,-6.43977 -5.76372,-9.55151c1.07978,3.0885 2.27753,6.16959 2.64786,9.2419c1.45016,12.03121 -12.53397,28.21113 6.06364,33.55799c1.8398,0.52895 3.77714,0.58173 5.6657,0.87254c4.62562,5.25331 6.57267,8.96866 8.83745,15.66499c0.82067,2.4265 0.13981,5.88687 2.15964,7.38172c3.9699,2.93808 9.94039,1.60146 15.12978,1.83398c-4.54259,-3.88695 -7.90836,-8.99456 -8.96984,-17.1233z" fill="#000000" stroke="none" stroke-width="0.5"/><path d="M226.08921,347.0534v-242.01032h25.5291v241.71042z" fill="url(#color-1)" stroke="none" stroke-width="0"/><path d="M174.00087,198.98208v-93.93902h13.82385v93.82261z" fill="url(#color-2)" stroke="none" stroke-width="0"/><path d="M286.95646,198.98208v-93.93902h13.82385v93.82261z" fill="url(#color-3)" stroke="none" stroke-width="0"/><path d="M160.04739,140.60503v-44.91886h158.34512v44.91886z" fill="url(#color-4)" stroke="none" stroke-width="0"/><path d="M134.40735,122.22366v-13.23158h207.21662v13.23158z" fill="url(#color-5)" stroke="none" stroke-width="0"/><g stroke="none" stroke-width="0"><path d="M251.55039,254.42507v-8.4125h10.35382v8.4125z" fill="url(#color-6)"/><path d="M239.17899,254.34884v-8.4125h10.35384v8.4125z" fill="url(#color-7)"/><path d="M226.88383,254.34884v-8.4125h10.35382v8.4125z" fill="url(#color-8)"/><path d="M214.51242,254.27259v-8.4125h10.35382v8.4125z" fill="url(#color-9)"/><path d="M206.09084,249.85333v-12.5039h63.40684v12.5039z" fill="url(#color-10)"/></g><g data-paper-data="{&quot;index&quot;:null}" stroke="none" stroke-width="0"><path d="M261.82799,265.51709v8.4125h-10.35382v-8.4125z" fill="url(#color-11)"/><path d="M249.45656,265.59335v8.4125h-10.35382v-8.4125z" fill="url(#color-12)"/><path d="M237.16141,265.59335v8.4125h-10.35382v-8.4125z" fill="url(#color-13)"/><path d="M224.78998,265.6696v8.4125h-10.35382v-8.4125z" fill="url(#color-14)"/><path d="M269.42145,270.08888v12.5039h-63.40684v-12.5039c0,0 17.73455,0 27.51467,0c11.17023,0 35.89217,0 35.89217,0z" fill="url(#color-15)"/></g><g stroke-width="0"><g><path d="M222.12586,116.17589c0,22.73012 -18.33429,41.15653 -40.95075,41.15653c-22.61647,0 -40.95075,-18.42642 -40.95075,-41.15653c0,-22.73012 18.33429,-41.15653 40.95075,-41.15653c22.61647,0 40.95075,18.42642 40.95075,41.15653z" fill="url(#color-16)" stroke="#000000"/><path d="M195.04875,116.37032c0,8.44708 -6.38081,15.29478 -14.25197,15.29478c-7.87114,0 -14.25196,-6.84771 -14.25196,-15.29478c0,-8.44708 6.3808,-15.29475 14.25196,-15.29475c7.87114,0 14.25197,6.8477 14.25197,15.29475z" fill="#000000" stroke="none"/></g><path d="M207.08726,108.73478c0,8.44708 -6.38081,15.29478 -14.25197,15.29478c-7.87114,0 -14.25196,-6.84771 -14.25196,-15.29478c0,-8.44708 6.3808,-15.29475 14.25196,-15.29475c7.87114,0 14.25197,6.8477 14.25197,15.29475z" fill="url(#color-17)" stroke="none"/></g><g stroke-width="0"><g><path d="M334.49512,116.60799c0,22.73012 -18.33429,41.15653 -40.95075,41.15653c-22.61647,0 -40.95075,-18.42642 -40.95075,-41.15653c0,-22.73012 18.33429,-41.15653 40.95075,-41.15653c22.61647,0 40.95075,18.42642 40.95075,41.15653z" fill="url(#color-18)" stroke="#000000"/><path d="M307.41796,116.80245c0,8.44708 -6.38081,15.29478 -14.25196,15.29478c-7.87114,0 -14.25196,-6.84771 -14.25196,-15.29478c0,-8.44708 6.3808,-15.29475 14.25196,-15.29475c7.87114,0 14.25196,6.8477 14.25196,15.29475z" fill="#000000" stroke="none"/></g><path d="M318.87229,108.73478c0,8.44708 -6.38081,15.29478 -14.25197,15.29478c-7.87114,0 -14.25196,-6.84771 -14.25196,-15.29478c0,-8.44708 6.3808,-15.29475 14.25196,-15.29475c7.87114,0 14.25197,6.8477 14.25197,15.29475z" fill="url(#color-19)" stroke="none"/></g><path d="M174.00087,199.56733v-12.58759h126.77945v12.57196z" fill="url(#color-20)" stroke="none" stroke-width="0"/></g><g stroke="none" stroke-width="0"><g><path d="M371.94959,131.45836c0,28.39167 45.33227,55.34538 9.38334,104.72177c-37.36605,51.32282 -98.79759,61.83726 -145.07428,61.83726c-49.59196,0 -93.63974,0.20625 -142.36475,-65.69002c-33.06791,-44.72139 6.67377,-75.7612 6.67377,-100.86904c0,-74.22971 60.75091,-134.40479 135.69094,-134.40479c74.94004,0 135.69094,60.17508 135.69094,134.40479zM237.62354,277.07713c28.19117,0.52841 54.23618,-10.19512 73.11665,-23.09464c-0.14311,0.88654 -0.29437,1.73842 -0.02972,2.1606c1.9947,3.18217 5.03957,0.14957 6.35582,4.4839l-0.07767,0.69204c0,0 0,1.5131 1.5131,1.5131c1.5131,0 1.5131,-1.5131 1.5131,-1.5131l-0.07767,-1.64902c-0.6378,-1.8021 -1.82944,-4.18678 -3.78273,-5.01627c-0.84086,-0.35706 -2.851,1.0424 -2.73725,0.13599c0.12413,-0.98914 0.19341,-1.92935 0.12678,-2.77616c16.87934,-12.18302 27.33917,-25.8527 27.33917,-33.7022c0,-2.89945 -1.48602,-4.17319 -4.21437,-4.29861c1.29142,-4.02509 3.21303,-8.67129 -0.61538,-10.27679c-2.02866,-0.85076 -5.8521,0.39772 -6.65906,2.57466c-0.44784,1.20824 1.93028,3.26122 0.75569,3.79119c-0.47469,0.21416 -3.99255,0.29236 -4.68211,1.17052c-0.42705,0.54391 -0.04714,1.95319 -0.73852,1.93868c-1.35004,1.35004 -1.76053,2.94587 -2.52826,4.37779c-19.0739,6.88502 -50.40179,21.27413 -82.77562,21.21162c-67.02642,-0.1293 -99.49985,-35.91179 -99.49985,-19.19863c0,3.24984 1.61526,7.36999 4.62181,11.90672c-2.58858,0.24151 -4.8807,0.3188 -8.06848,-0.85043c-2.26371,-0.83031 -4.33428,0.7344 -6.11904,-0.04491c-0.08075,-0.43563 -0.3794,-1.24081 -1.48313,-1.24081c-1.5131,0 -1.5131,1.5131 -1.5131,1.5131l0.67379,1.84424c5.04921,2.97617 12.20936,1.89372 18.46217,1.52488c14.00178,18.47605 48.95781,42.03231 91.12392,42.82263zM181.31099,161.50733c25.06975,0 45.39277,-20.32304 45.39277,-45.39277c0,-25.06975 -20.32304,-45.39277 -45.39277,-45.39277c-25.06975,0 -45.39277,20.32304 -45.39277,45.39277c0,25.06975 20.32304,45.39277 45.39277,45.39277zM295.32652,162.20252c25.06975,0 45.39277,-20.32304 45.39277,-45.39277c0,-25.06975 -20.32304,-45.39277 -45.39277,-45.39277c-25.06975,0 -45.39277,20.32304 -45.39277,45.39277c0,25.06975 20.32304,45.39277 45.39277,45.39277z" fill="url(#color-21)"/><path d="M236.97203,-3.8213c59.42001,0 110.28514,34.79271 131.24941,84.10119c-4.40642,-4.02946 -9.1104,-7.77568 -14.13455,-11.2084c-6.15094,-9.4234 -13.73287,-11.21586 -24.48046,-11.21586c-2.55238,0 -6.16471,0.84969 -9.54735,1.03487c-2.27377,-0.50175 -4.54806,-0.98099 -6.82131,-1.44893c-0.66717,-0.51258 -1.22796,-1.18437 -1.64933,-2.05419c-3.45061,-4.7148 -8.56748,-3.01001 -13.87588,-5.06105c-12.08941,-4.67107 -25.05898,-4.58391 -38.03702,-3.03308c-3.66836,-0.45014 -7.33354,-0.8327 -11.0025,-1.1521c-3.99657,-2.57004 -7.71065,-7.15588 -12.02231,-9.16797c-6.604,-3.08188 -11.34796,2.56464 -16.35086,4.74232c-2.52484,1.09898 -5.8146,1.45609 -8.5309,2.844c-9.56203,1.15056 -19.6924,-0.50586 -29.16471,1.09855c-1.63078,0.27622 -10.31569,2.20413 -11.54808,0.99943c-4.06817,-3.97671 -7.30595,-3.73475 -12.61695,-0.44314c-6.92001,10.49272 -17.84787,12.1298 -28.73364,16.63575c-0.20579,-1.17663 -1.48534,-1.17663 -1.48534,-1.17663c-5.05136,0.09059 -12.88922,5.47721 -18.76382,10.5922c22.86123,-45.02232 71.36937,-76.08682 127.51562,-76.08682z" fill="url(#color-22)"/></g><path d="M292.68055,58.73572c16.3411,-0.5395 31.98336,7.48571 32.09413,10.84149c0.11079,3.35576 -15.10683,-2.9034 -31.44797,-2.36388c-16.3411,0.5395 -30.03378,2.08698 -30.03378,2.08698c0,0 13.0465,-10.02508 29.38764,-10.56459z" fill="#000000"/><path d="M185.27301,65.88978c-16.3411,-0.5395 -31.55871,5.71963 -31.44794,2.36388c0.11079,-3.35576 15.75303,-11.38101 32.09413,-10.84149c16.3411,0.5395 29.49838,7.20887 29.38764,10.56461c0,0 -13.69271,-1.54751 -30.03381,-2.087z" data-paper-data="{&quot;index&quot;:null}" fill="#000000"/></g><g stroke="none"><path d="M235.34068,361.65056c1.17112,-0.78076 2.19702,-0.83524 3.0236,-0.5958l-0.02596,-3.27989c0,0 0,-3.78273 3.78273,-3.78273c3.78273,0 3.78273,3.78273 3.78273,3.78273l-0.03657,3.57217c0.41786,1.46252 0.77069,3.12208 1.0132,4.87642l0.63357,2.21744c0.61867,2.16855 1.08022,4.33653 1.42446,6.50335c6.1916,13.31867 4.57808,30.96572 4.56986,45.03975c-0.03673,0.39617 -0.07462,0.79189 -0.11354,1.18727c4.25498,10.25582 10.49677,20.09615 11.23009,31.18099c0.71903,10.86928 -6.59895,19.99975 -5.29659,30.72927c0.51006,4.20222 10.88151,20.933 15.11147,17.35487c3.75499,-3.84004 9.4045,-8.06127 10.82075,-13.60245c1.33451,-5.22141 -2.30506,-11.17972 -2.99125,-16.16636c-0.35767,-2.59937 0.37541,-11.71756 0.63834,-13.04495c1.52583,-7.70298 7.73055,-13.35112 11.55109,-19.82594c0.16087,-0.27264 0.31843,-0.54451 0.47268,-0.81561c-1.14119,-8.85747 -3.55006,-17.51231 -7.70095,-25.60587c-3.85649,-10.26765 -11.40811,-22.83041 -7.14102,-34.32224c6.49939,-17.50381 26.53197,-18.39385 41.55218,-23.4351c0.80714,-0.2709 1.59944,-0.52901 2.37996,-0.76943c0.40886,-0.15177 0.81673,-0.29569 1.22292,-0.43163c0.82238,-0.27521 1.66097,-0.46481 2.51223,-0.5819c4.96974,-1.12565 9.65213,-1.13187 14.96543,1.38605c0,0 1.20498,0.60252 1.81716,1.80752c2.63659,0.84891 5.18878,1.61079 7.56079,1.92798c0,0 3.74472,0.53497 3.20976,4.27966c-0.53497,3.74472 -4.27966,3.20976 -4.27966,3.20976c-5.56854,-0.83559 -15.62323,-6.3331 -21.98169,-5.23727c-0.56273,0.14902 -1.12811,0.31583 -1.69767,0.49375c-8.20965,3.30391 -18.87368,10.14166 -20.01707,19.55476c-0.95456,7.85831 2.31517,15.78936 2.36364,23.583c0,12.80167 -0.9968,23.55002 -6.57671,34.8278c4.25144,29.65628 -4.70461,61.111 -29.58769,78.89991c-12.95737,7.30158 -20.24715,-9.67875 -26.38162,-19.18223c-13.93115,-21.58216 -4.09183,-51.24631 -1.45269,-75.21833c-0.4989,-1.22715 -0.96078,-2.45539 -1.37037,-3.68587c-2.50405,-11.42603 -1.16544,-22.83477 -1.88437,-34.28354c-1.51069,0.98954 -3.20822,1.81519 -3.97129,3.3787c-1.45765,2.9867 -0.55178,8.41409 -0.78086,10.95418c-0.63536,7.0447 -4.1844,12.54019 -4.07843,19.52615c0,7.45868 3.34928,23.47978 -1.88452,29.71911c-1.48624,1.77177 -3.3787,2.74554 -5.49229,3.11182c-4.54499,3.62113 -11.03651,5.18982 -11.98472,11.6637c-1.44071,9.83628 8.08931,12.0727 10.93043,19.73572c3.23221,8.71793 0.02995,18.54952 -7.72809,22.91188c-15.31671,11.00053 -38.87427,6.26552 -41.71659,-15.33086c-1.02769,-7.80845 8.84724,-20.72987 5.53307,-27.63966c-3.35552,-6.99606 -10.74196,-12.68786 -14.47191,-20.14687c-6.67593,-11.86487 -2.63754,-25.0776 -4.49559,-38.05051c-1.47878,-10.32472 -5.42649,-20.09942 -9.12508,-29.59196c-2.21873,-5.69441 -3.77042,-14.1226 -10.61934,-15.15037c-1.11094,0.60992 -2.25773,1.24217 -3.50787,1.86938c0,0 -3.38335,1.69168 -5.07506,-1.69171c-1.69168,-3.38335 1.69168,-5.07506 1.69168,-5.07506c0.36457,-0.18164 0.73509,-0.36183 1.11106,-0.54022c0.87118,-2.20016 3.50691,-2.20016 3.50691,-2.20016c0.48766,0.02002 0.96137,0.05261 1.42162,0.09756c15.64725,-5.95904 36.73945,-7.38767 41.49126,14.01989c2.43775,10.98246 -2.75274,18.58751 6.20416,27.62747c9.26798,5.25688 15.30359,12.79625 16.67514,23.6134c0.74806,5.90007 -0.95863,11.72571 2.39714,17.214c1.55263,2.5393 3.34723,3.62419 5.83825,5.22915c0.57583,0.37098 5.51877,2.59669 8.66894,3.59659c2.67322,-8.43057 -0.95081,-20.39729 -2.73898,-28.48956c-0.93171,-9.21558 -4.57823,-21.57396 -2.28767,-30.73175c1.61892,-6.47252 7.15707,-14.09219 11.31029,-19.1104l0.10787,-0.44056c0,0 1.65719,-3.31435 4.97153,-1.74211c0.2504,-0.30671 0.57655,-0.60472 0.99562,-0.88412zM248.24483,470.73045c0,6.29412 -0.65673,12.9166 2.48207,18.70558c3.41694,6.30204 8.02741,11.97171 12.47584,17.53971c2.57665,3.22517 2.82319,6.53503 6.03263,3.36564c1.14381,-0.81625 2.2615,-1.67986 3.35649,-2.58c-8.77718,-0.48185 -15.26322,-10.13107 -19.24663,-18.41544c-6.05226,-12.58706 4.56821,-24.05032 3.72875,-36.52355c-0.40752,-6.05574 -2.72113,-11.90562 -5.39225,-17.67975c-1.62753,11.78134 -3.4369,23.44836 -3.4369,35.58782zM294.10093,471.08036c1.09483,-7.29687 1.73264,-14.76897 1.64228,-22.21128c-2.45867,3.23165 -4.7599,6.60424 -5.4489,10.38809c-1.26486,6.94656 1.4385,13.61817 2.47623,20.257c0.56871,-2.9673 0.94944,-5.89483 1.33038,-8.43382zM287.25993,379.46504c-3.54115,9.30519 3.84218,20.70463 6.90524,28.88608c2.44721,5.00218 4.46021,10.25604 6.02085,15.65872c1.67088,-6.66176 1.94585,-13.42052 1.94585,-21.16981c0.06307,-8.08712 -3.36679,-16.19097 -2.31843,-24.40849c0.60415,-4.73588 2.85711,-9.1367 6.0478,-12.97168c-8.10964,2.38547 -15.56725,6.03252 -18.60126,14.00525zM236.85463,370.70778l-1.32049,-1.96366l-0.45658,0.81659c-3.4441,4.09995 -8.42816,10.67749 -9.7592,16.0053c-1.75087,7.00853 0.76074,16.76323 1.96477,24.51131c1.06942,-3.99113 2.50131,-7.79059 2.87988,-12.29209c0.46694,-5.55267 -0.99828,-8.53618 1.56019,-13.62683c1.38115,-2.74818 4.93185,-3.82042 6.72045,-6.32259c0.69106,-0.96678 1.08343,-2.25865 1.26659,-3.70469c-0.84192,-1.21232 -1.78956,-2.35725 -2.85567,-3.42331zM160.16759,371.5441c3.88441,10.00847 8.04644,20.40273 9.6033,31.2753c1.67343,11.68639 -2.39601,25.22081 3.69808,35.69251c3.66025,7.32133 11.99983,13.63728 14.79119,20.8215c3.9533,10.1746 -6.33328,19.92803 -5.00163,29.71606c2.20534,16.20958 19.50373,17.61454 30.21707,9.71476c13.63463,-6.21764 -1.36295,-18.14794 -4.61847,-24.65224c-1.16628,-2.33018 -2.43627,-10.57025 -2.07506,-12.76039c0.59513,-3.6085 3.71328,-8.64546 6.57226,-11.07802c0.61636,-0.52438 1.35797,-0.95516 2.15379,-1.35042c-5.84282,-2.62851 -11.28066,-7.18116 -13.48377,-10.74654c-5.59122,-9.0485 -1.18646,-19.73221 -5.97804,-28.89884c-2.41982,-4.62926 -6.9025,-7.37578 -11.23595,-9.8694c-4.04527,-4.02103 -7.5665,-8.16778 -9.01263,-13.92615c-1.44156,-5.73995 1.11865,-12.37897 0,-18.14313c-2.16704,-11.16619 -15.61828,-13.93609 -24.56318,-11.76711c4.33522,3.72518 6.48637,9.66804 8.9331,15.97217z" fill="#303030" stroke-width="0.5"/><path d="M219.79465,568.60308v-221.7621h39.62392v221.7621z" fill="url(#color-23)" stroke-width="0"/><path d="M120.88537,364.93189v-18.09088h237.44247v18.09088z" fill="url(#color-24)" stroke-width="0"/><path d="M155.41582,373.12555v-34.4782h168.38155v34.4782z" fill="url(#color-25)" stroke-width="0"/></g><g data-paper-data="{&quot;index&quot;:null}" stroke="none" stroke-width="0"><path d="M466.30051,411.28851c-13.82732,-9.13717 -17.78044,-27.5252 -8.82939,-41.07081c8.951,-13.54559 27.41648,-17.11932 41.24381,-7.98215c13.82736,9.13717 17.78045,27.52519 8.82943,41.0708c-8.951,13.54555 -27.41648,17.11932 -41.24381,7.98215z" fill="url(#color-26)"/><path d="M566.78337,472.26777l-101.6081,-58.33475l35.21954,-53.2979l93.96606,70.22403z" fill="url(#color-27)"/></g><g data-paper-data="{&quot;index&quot;:null}" stroke="none" stroke-width="0"><path d="M15.74877,411.9296c-13.93793,8.96761 -32.35836,5.16857 -41.14325,-8.48534c-8.7849,-13.65393 -4.60748,-31.9923 9.33045,-40.95986c13.93793,-8.96761 32.35836,-5.16858 41.14325,8.48534c8.7849,13.65393 4.60748,31.99231 -9.33042,40.95991z" fill="url(#color-28)"/><path d="M-112.54109,429.93458l94.81683,-69.07101l34.56589,53.72411l-102.31305,57.08929z" fill="url(#color-29)"/></g><g data-paper-data="{&quot;index&quot;:null}" stroke="none" stroke-width="0"><path d="M356.61231,387.72468c-16.15032,-3.72177 -26.28709,-19.56446 -22.64112,-35.38565c3.64594,-15.8212 19.69392,-25.62975 35.84426,-21.90798c16.15032,3.72177 26.28709,19.56448 22.64114,35.3857c-3.64594,15.8212 -19.69392,25.62975 -35.84426,21.90798z" fill="url(#color-30)"/><path d="M470.51996,416.87509l-114.0364,-26.2793l14.34568,-62.25175l114.0364,26.2793z" fill="url(#color-31)"/></g><g data-paper-data="{&quot;index&quot;:null}" stroke="none" stroke-width="0"><path d="M125.71655,389.70739c-16.19455,3.52422 -32.12156,-6.47958 -35.57398,-22.34416c-3.45242,-15.86456 6.87713,-31.58227 23.07166,-35.1065c16.19455,-3.52422 32.12156,6.47958 35.57398,22.34416c3.45242,15.86456 -6.87714,31.58224 -23.07166,35.10646z" fill="url(#color-32)"/><path d="M-2.12281,355.04185l114.34887,-24.88441l13.58421,62.42234l-114.34887,24.88441z" fill="url(#color-33)"/></g><g stroke="none"><path d="M153.10422,559.5182c0,0 2.94297,-116.86568 -4.09927,-161.31444c-4.80646,-30.33735 -33.50602,-70.22576 -33.50602,-70.22576c0,0 84.28303,-24.62757 126.47381,-24.32383c41.36447,0.2978 124.24085,26.12893 124.24085,26.12893c0,0 -33.15955,34.54225 -38.06824,63.01452c-7.60997,44.14144 -2.59068,166.72053 -2.59068,166.72053z" fill="url(#color-34)" stroke-width="0"/><g stroke-width="0.5"><path d="M168.06715,450.10791c-0.32389,-3.38911 3.06523,-3.71304 3.06523,-3.71304l2.01701,-0.19277c4.28298,-0.35288 6.49855,-2.19913 10.65412,-3.29119c6.57345,-1.72749 14.14089,-1.1549 20.94502,-2.24799c7.90669,-1.27024 15.52058,-3.50642 23.54933,-4.57422c0.40691,-0.01502 0.81375,-0.03202 1.22056,-0.05103c-7.28045,-6.4117 -15.12017,-12.10915 -22.44602,-18.46023c-4.12968,3.29265 -8.63289,6.12919 -12.68411,9.53119c0,0 -2.60925,2.18696 -4.79621,-0.42234c-2.18696,-2.60925 0.42234,-4.79619 0.42234,-4.79619c3.81415,-3.19105 8.03869,-5.8928 11.95757,-8.95015c-5.1702,-4.95015 -9.89494,-10.17954 -15.56855,-14.69456c-3.6854,-2.93278 -8.25018,-5.35799 -11.76008,-8.44767c-1.60841,-1.41582 -4.58285,-2.5199 -4.43097,-4.6573c0.18464,-2.59855 2.77176,-4.85525 5.1778,-5.85399c2.0261,-0.84111 4.36369,0.52413 6.50421,1.00461c0.11372,0.02551 11.94765,3.50343 12.53673,3.67646c9.15113,3.52698 17.91708,5.86367 27.44526,7.66948c0.51608,0.09781 1.03069,0.20327 1.54401,0.3156c8.55276,-9.16034 17.00098,-18.44372 26.59082,-26.4731c2.71872,-2.60931 10.47482,-11.06527 15.16026,-9.78173c6.02304,1.64991 6.58259,16.48263 7.03615,21.20516c0.86806,9.0384 -0.01042,17.97483 -0.21211,26.97225c7.05386,1.26048 14.0808,2.6631 20.94777,4.68287c3.44629,0.22971 13.84247,1.53288 15.40058,5.03824c0.92858,2.08906 -1.00215,4.54712 -2.19384,6.49809c-2.72996,4.46924 -10.50832,6.95365 -14.92925,9.03852c-5.56369,2.62379 -11.30956,4.11643 -17.1434,5.4642c0.13624,1.80636 0.24135,3.61504 0.29718,5.42753c3.20504,11.36638 5.7349,24.91131 6.95622,36.73607c0.62434,6.04482 3.14713,16.96132 -8.03582,11.80851c-2.25035,-1.03689 -3.35459,-3.66008 -4.8246,-5.65455c-4.03382,-5.47292 -6.34839,-12.30234 -10.34689,-17.85097c-6.10496,-8.47169 -13.91148,-15.8366 -21.73996,-22.72951c-2.46963,0.26203 -4.96843,0.44743 -7.50909,0.53939c-7.86743,1.05973 -15.27696,3.24048 -23.02861,4.50969c-6.52348,1.06815 -14.08847,0.37729 -20.32856,2.11777c-4.36009,1.21613 -7.07158,2.98864 -11.71995,3.4795l-2.01699,0.19277c0,0 -3.38917,0.32389 -3.71304,-3.06523zM245.16452,441.08992c8.37946,7.73846 16.16403,16.1233 22.05856,25.93356c2.33876,3.8923 4.38448,8.2016 6.85312,12.02224c-0.35079,-2.84585 -0.31778,-6.07098 -0.52061,-7.10018c-2.00423,-10.17001 -3.14709,-20.96717 -5.90864,-30.87013c-0.06863,-1.64992 -0.17163,-3.29624 -0.29736,-4.9402c-0.78718,0.18471 -1.57527,0.37354 -2.36409,0.56886c-6.67766,1.65376 -13.19737,3.23132 -19.82097,4.38586zM265.3469,402.71508c0.28806,-5.17014 0.80046,-10.3332 0.66549,-15.50235c-0.13427,-5.14302 -0.66042,-10.56912 -1.49657,-15.63972c-0.22566,-1.36839 -0.50333,-2.72779 -0.73875,-4.09451c-0.2475,-1.43701 -0.63424,-2.86034 -0.71,-4.31655c-0.00094,-0.01812 0,-0.03783 0.00258,-0.05896c-1.74131,2.60555 -6.55169,5.55202 -8.50759,7.44135c-8.5222,7.14987 -16.15242,15.27874 -23.75646,23.43187c6.26965,1.98848 12.45015,4.43675 18.83592,5.80591c5.19004,1.11279 10.44351,2.02477 15.70531,2.93294zM265.172,409.59553c-5.59878,-0.96989 -11.19328,-1.92901 -16.72186,-3.10931c-7.72415,-1.64907 -15.1595,-4.90731 -22.80401,-6.99166c-4.36431,4.63802 -8.78403,9.2135 -13.42073,13.54824c8.74545,7.52991 18.20055,14.16431 26.52375,22.24296c9.42842,-1.07932 18.80515,-3.05633 28.03315,-5.43058c-0.65798,-6.55879 -1.44035,-13.10728 -1.59975,-19.73045c-0.00425,-0.17639 -0.00774,-0.35282 -0.01055,-0.5292zM207.15526,408.46466c3.69714,-3.42473 7.25181,-7.00818 10.74593,-10.65975c-8.8174,-1.76584 -17.09323,-4.07863 -25.65587,-7.38867c-0.61862,-0.18103 -4.65618,-1.36208 -7.88798,-2.30915c3.50445,2.49523 6.89052,5.16558 10.16686,7.94958c4.54343,3.86073 8.36677,8.30948 12.63103,12.40801zM272.01433,410.80227c0.19342,5.78499 0.87638,11.52075 1.46529,17.2596c2.03123,-0.56334 4.054,-1.14025 6.0672,-1.72527c5.57032,-1.6187 11.21318,-4.12462 16.3151,-6.88668c1.19126,-0.64494 2.15909,-1.65768 3.21531,-2.51682c-2.47725,-0.24624 -5.6287,-1.55794 -7.32542,-1.67104c-6.4808,-1.89444 -13.09439,-3.25138 -19.73741,-4.45978z" fill="#ad9600"/><path d="M172.74782,448.28436c-0.30235,-3.16328 2.86099,-3.4656 2.86099,-3.4656l1.88257,-0.17991c3.99763,-0.32942 6.06559,-2.0526 9.94426,-3.07191c6.13546,-1.61239 13.19866,-1.07793 19.54945,-2.09821c7.37987,-1.18563 14.48651,-3.2728 21.98027,-4.26948c0.37979,-0.01401 0.7595,-0.02989 1.13922,-0.04764c-6.79538,-5.9845 -14.11271,-11.30237 -20.95045,-17.23027c-3.85454,3.0733 -8.05773,5.72086 -11.83898,8.89618c0,0 -2.43545,2.04125 -4.47666,-0.39418c-2.04121,-2.43545 0.39418,-4.47666 0.39418,-4.47666c3.56,-2.97845 7.5031,-5.50015 11.16082,-8.35381c-4.82571,-4.62032 -9.23564,-9.5013 -14.53122,-13.71547c-3.43985,-2.73741 -7.70048,-5.00102 -10.97654,-7.88483c-1.50123,-1.3215 -4.27752,-2.35204 -4.13576,-4.34698c0.17233,-2.42543 2.58711,-4.53175 4.83281,-5.46399c1.89111,-0.78502 4.07294,0.48923 6.07084,0.93769c0.10617,0.02384 11.15158,3.26999 11.70144,3.43147c8.5414,3.29202 16.72327,5.47297 25.6166,7.1585c0.48171,0.09131 0.96201,0.18973 1.44114,0.29457c7.98289,-8.55001 15.86822,-17.21484 24.81911,-24.70921c2.53761,-2.43545 9.77683,-10.328 14.15016,-9.13002c5.62174,1.53996 6.14398,15.3844 6.56735,19.79229c0.81019,8.43617 -0.0097,16.7772 -0.198,25.17513c6.58387,1.17652 13.14258,2.48565 19.55203,4.37086c3.21671,0.21438 12.92017,1.43076 14.37446,4.70254c0.86671,1.9499 -0.93537,4.24416 -2.04766,6.06514c-2.54804,4.17144 -9.80817,6.49035 -13.93453,8.43631c-5.19299,2.44895 -10.55599,3.84212 -16.00118,5.1001c0.12716,1.686 0.22525,3.37411 0.27739,5.06586c2.99151,10.60904 5.35277,23.2515 6.49275,34.28841c0.58277,5.6421 2.93747,15.8312 -7.50039,11.02173c-2.10037,-0.96782 -3.13105,-3.41627 -4.50315,-5.27785c-3.76504,-5.10827 -5.9254,-11.48264 -9.65752,-16.66156c-5.69821,-7.90724 -12.98457,-14.78144 -20.29144,-21.2151c-2.30509,0.24459 -4.63738,0.4176 -7.00881,0.50342c-7.34325,0.98908 -14.25907,3.02457 -21.49424,4.20924c-6.0888,0.99694 -13.14979,0.35213 -18.9741,1.97669c-4.06961,1.13511 -6.60047,2.78953 -10.93909,3.24767l-1.88264,0.1799c0,0 -3.16328,0.30233 -3.46561,-2.86099zM244.70828,439.86723c7.82114,7.22289 15.08704,15.04905 20.58885,24.20566c2.18291,3.63298 4.09233,7.65513 6.39648,11.22123c-0.32738,-2.65626 -0.2966,-5.66645 -0.48594,-6.62711c-1.87072,-9.4924 -2.9374,-19.57017 -5.51496,-28.81331c-0.06406,-1.54002 -0.16019,-3.0766 -0.27753,-4.61103c-0.73472,0.17235 -1.47032,0.34865 -2.20655,0.53098c-6.23276,1.5436 -12.31805,3.01605 -18.50032,4.09362zM263.54595,404.04925c0.26884,-4.82568 0.74712,-9.64474 0.62117,-14.46942c-0.12534,-4.80032 -0.61643,-9.86494 -1.39687,-14.59766c-0.21058,-1.27724 -0.46981,-2.54604 -0.68952,-3.82171c-0.23103,-1.34129 -0.59198,-2.66977 -0.66269,-4.02893c-0.00089,-0.01691 -0.00001,-0.03531 0.00242,-0.055c-1.62528,2.43193 -6.11515,5.18206 -7.94077,6.94557c-7.95439,6.67345 -15.07615,14.26072 -22.17358,21.87061c5.85194,1.85601 11.62063,4.14117 17.58093,5.41908c4.84424,1.03863 9.74767,1.8899 14.6589,2.73751zM263.38268,410.4713c-5.22572,-0.90527 -10.44749,-1.80049 -15.60774,-2.90216c-7.20949,-1.53919 -14.14945,-4.58031 -21.28459,-6.52579c-4.07355,4.32903 -8.19875,8.59964 -12.52652,12.64549c8.16275,7.02817 16.98789,13.22058 24.75649,20.76096c8.80022,-1.00743 17.55217,-2.85276 26.16535,-5.06879c-0.61413,-6.12179 -1.3444,-12.23395 -1.49319,-18.41584c-0.00396,-0.16466 -0.00727,-0.32928 -0.00983,-0.49393zM209.23153,409.41573c3.45083,-3.19655 6.76863,-6.54127 10.02993,-9.94951c-8.22992,-1.64817 -15.95435,-3.80689 -23.94648,-6.89637c-0.5774,-0.16898 -4.34596,-1.27134 -7.36241,-2.15528c3.27098,2.32896 6.43143,4.82137 9.48945,7.41991c4.24074,3.6035 7.80935,7.75586 11.7895,11.58125zM269.76911,411.59761c0.18053,5.39958 0.81801,10.75312 1.36766,16.10958c1.89592,-0.52581 3.78383,-1.06428 5.66292,-1.61033c5.19915,-1.51087 10.46603,-3.84986 15.22801,-6.42784c1.11196,-0.60198 2.01523,-1.5472 3.00105,-2.34908c-2.31215,-0.22981 -5.25364,-1.45415 -6.83733,-1.55968c-6.04898,-1.76824 -12.22189,-3.03479 -18.42237,-4.16262z" fill="#ffdf00"/></g></g><g stroke="none" stroke-width="0"><path d="M680.52905,448.35366c-15.23009,7.83567 -23.79874,-4.18653 -44.85662,-7.95949c-21.05796,-3.77297 -37.70069,-5.42301 -35.73195,-20.20891c1.88423,-14.15068 27.441,-8.89023 48.49895,-5.11731c21.05796,3.7729 45.20981,20.49263 32.08962,33.28569z" fill="url(#color-35)"/><path d="M675.80752,388.39114c-9.71782,14.10372 -22.9513,7.55937 -43.29177,14.18778c-20.3405,6.62839 -35.78681,13.04064 -41.04057,-0.91979c-5.02805,-13.36077 19.98016,-20.80481 40.3206,-27.43323c20.3405,-6.62839 49.52696,-3.31 44.01162,14.16526z" fill="url(#color-36)"/><path d="M612.65417,373.59382c-18.26153,11.14399 -31.81088,20.94811 -40.14478,8.57704c-7.9759,-11.83958 14.63906,-24.85446 32.90056,-35.99847c18.26153,-11.14399 47.42593,-14.65134 46.09269,3.62504c-6.20035,15.96583 -20.58697,12.65241 -38.84848,23.79639z" fill="url(#color-37)"/><path d="M600.66267,462.01277c-18.97949,18.14152 -30.96782,35.31585 -63.42726,1.37692c-31.06498,-32.48089 -13.67613,-46.17782 5.30327,-64.31935c18.97949,-18.14152 28.489,-39.98271 63.42726,-1.37692c32.20938,35.59039 13.67613,46.17782 -5.30327,64.31935z" fill="url(#color-38)"/><path d="M543.03682,433.48943c-16.75883,7.41244 -23.28184,-21.22864 -18.94148,-42.17695c4.34036,-20.94836 8.97562,-46.62596 22.81011,-43.10501c14.4555,3.67907 9.78925,19.73923 5.44889,40.6876c-4.34036,20.94836 3.6262,33.37767 -9.31745,44.5944z" data-paper-data="{&quot;index&quot;:null}" fill="url(#color-39)"/></g><g data-paper-data="{&quot;index&quot;:null}" stroke="none" stroke-width="0"><path d="M-166.42275,413.48401c21.10241,-3.51539 46.72156,-8.46328 48.43282,5.70933c1.78801,14.80884 -14.87368,16.25546 -35.97612,19.77093c-21.1024,3.51542 -29.81727,15.43206 -44.95047,7.41096c-12.96297,-12.95237 11.39133,-29.37581 32.4938,-32.89124z" fill="url(#color-40)"/><path d="M-193.46283,386.4749c-5.3015,-17.54129 23.92332,-20.50295 44.18134,-13.6266c20.25801,6.87636 45.17341,14.62535 39.98251,27.92368c-5.42386,13.89524 -20.79065,7.29481 -41.04872,0.41844c-20.25801,-6.87636 -33.57042,-0.49413 -43.11523,-14.71554z" fill="url(#color-41)"/><path d="M-168.68842,348.18095c-1.10991,-18.29131 28.00949,-14.42799 46.13355,-3.06175c18.12406,11.36621 40.57835,24.65636 32.45839,36.39769c-8.48443,12.26835 -21.91297,2.29944 -40.03703,-9.06677c-18.12406,-11.36621 -32.55004,-8.22877 -38.55491,-24.26912z" fill="url(#color-42)"/><path d="M-123.74016,396.62957c35.40723,-38.17618 44.64923,-16.22045 63.40571,2.15156c18.75639,18.372 35.97663,32.28032 4.51722,64.37934c-32.87156,33.53997 -44.64923,16.22045 -63.40571,-2.15156c-18.75639,-18.372 -37.15892,-29.18502 -4.51722,-64.37934z" fill="url(#color-43)"/><path d="M-61.25299,433.19164c-12.80571,-11.37398 -4.68793,-23.70507 -8.77206,-44.70485c-4.08415,-20.9998 -8.55388,-37.11582 5.94545,-40.61799c13.87645,-3.35173 18.19772,22.3806 22.28187,43.38041c4.08415,20.99974 -2.78824,49.55909 -19.45523,41.94242z" data-paper-data="{&quot;index&quot;:null}" fill="url(#color-44)"/></g></g></g></svg>