<svg version="1.1" xmlns="http://www.w3.org/2000/svg" xmlns:xlink="http://www.w3.org/1999/xlink" width="61.77265" height="61.884" viewBox="0,0,61.77265,61.884"><defs><radialGradient cx="41.00001" cy="321" r="30.88633" gradientUnits="userSpaceOnUse" id="color-1"><stop offset="0" stop-color="#404040" stop-opacity="0"/><stop offset="1" stop-color="#404040"/></radialGradient></defs><g transform="translate(-10.1137,-290.058)"><g data-paper-data="{&quot;isPaintingLayer&quot;:true}" fill-rule="nonzero" stroke="none" stroke-width="1" stroke-linecap="butt" stroke-linejoin="miter" stroke-miterlimit="10" stroke-dasharray="" stroke-dashoffset="0" style="mix-blend-mode: normal"><path d="M71.88635,294.374v53.252c0,2.379 -1.70845,4.316 -3.80872,4.316h-54.15432c-2.10027,0 -3.80961,-1.937 -3.80961,-4.316v-53.252c0,-2.38 1.71022,-4.316 3.80961,-4.316h54.15255c2.10115,0 3.81049,1.936 3.81049,4.316z" fill="url(#color-1)"/><g><path d="M58.73036,305.42645v12.89709c0,0.57617 -0.41377,1.0453 -0.92243,1.0453h-13.11563c-0.50867,0 -0.92264,-0.46912 -0.92264,-1.0453v-12.89709c0,-0.57641 0.41419,-1.04529 0.92264,-1.04529h13.1152c0.50887,0 0.92287,0.46888 0.92287,1.04529z" fill="#828282"/><text transform="translate(49.18179,314.08606) scale(0.19164,0.19164)" font-size="40" xml:space="preserve" fill="#000000" fill-rule="nonzero" stroke="none" stroke-width="1" stroke-linecap="butt" stroke-linejoin="miter" stroke-miterlimit="10" stroke-dasharray="" stroke-dashoffset="0" font-family="Sans Serif" font-weight="normal" text-anchor="start" style="mix-blend-mode: normal"><tspan x="0" dy="0">^</tspan></text></g><g data-paper-data="{&quot;index&quot;:null}"><path d="M57.8075,336.67653h-13.1152c-0.50845,0 -0.92264,-0.46888 -0.92264,-1.04529v-12.8971c0,-0.57617 0.41398,-1.0453 0.92264,-1.0453h13.11563c0.50867,0 0.92243,0.46913 0.92243,1.0453v12.8971c0,0.57641 -0.41399,1.04529 -0.92286,1.04529z" fill="#cecece"/><text transform="translate(49.18179,326.97164) scale(0.19164,-0.19164)" font-size="40" xml:space="preserve" fill="#000000" fill-rule="nonzero" stroke="none" stroke-width="1" stroke-linecap="butt" stroke-linejoin="miter" stroke-miterlimit="10" stroke-dasharray="" stroke-dashoffset="0" font-family="Sans Serif" font-weight="normal" text-anchor="start" style="mix-blend-mode: normal"><tspan x="0" dy="0">^</tspan></text></g><g><path d="M38.10537,305.42646v12.89709c0,0.57617 -0.41377,1.0453 -0.92244,1.0453h-13.11562c-0.50867,0 -0.92265,-0.46912 -0.92265,-1.0453v-12.89709c0,-0.57641 0.4142,-1.0453 0.92265,-1.0453h13.1152c0.50887,0 0.92286,0.46889 0.92286,1.0453z" fill="#828282"/><text transform="translate(27.01833,314.08606) scale(0.19164,0.19164)" font-size="40" xml:space="preserve" fill="#000000" fill-rule="nonzero" stroke="none" stroke-width="1" stroke-linecap="butt" stroke-linejoin="miter" stroke-miterlimit="10" stroke-dasharray="" stroke-dashoffset="0" font-family="Sans Serif" font-weight="normal" text-anchor="start" style="mix-blend-mode: normal"><tspan x="0" dy="0">W</tspan></text></g><g><path d="M38.10537,322.73414v12.8971c0,0.57617 -0.41377,1.04529 -0.92244,1.04529h-13.11562c-0.50867,0 -0.92265,-0.46912 -0.92265,-1.04529v-12.8971c0,-0.57641 0.4142,-1.04529 0.92265,-1.04529h13.1152c0.50887,0 0.92287,0.46888 0.92287,1.04529z" fill="#cecece"/><text transform="translate(28.55679,331.39375) scale(0.19164,0.19164)" font-size="40" xml:space="preserve" fill="#000000" fill-rule="nonzero" stroke="none" stroke-width="1" stroke-linecap="butt" stroke-linejoin="miter" stroke-miterlimit="10" stroke-dasharray="" stroke-dashoffset="0" font-family="Sans Serif" font-weight="normal" text-anchor="start" style="mix-blend-mode: normal"><tspan x="0" dy="0">S</tspan></text></g></g></g></svg>