<svg version="1.1" xmlns="http://www.w3.org/2000/svg" xmlns:xlink="http://www.w3.org/1999/xlink" width="489.06868" height="915.56149" viewBox="0,0,489.06868,915.56149"><defs><linearGradient x1="29.26777" y1="461.31779" x2="29.26777" y2="601.83517" gradientUnits="userSpaceOnUse" id="color-1"><stop offset="0" stop-color="#c5c5c5"/><stop offset="1" stop-color="#5d5d5d"/></linearGradient><linearGradient x1="239.64077" y1="331.08901" x2="239.64077" y2="546.54586" gradientUnits="userSpaceOnUse" id="color-2"><stop offset="0" stop-color="#a3a3a3"/><stop offset="1" stop-color="#5d5d5d"/></linearGradient><linearGradient x1="240.4369" y1="461.35288" x2="240.4369" y2="726.42479" gradientUnits="userSpaceOnUse" id="color-3"><stop offset="0" stop-color="#c5c5c5"/><stop offset="1" stop-color="#5d5d5d"/></linearGradient><linearGradient x1="249.23118" y1="447.57945" x2="249.23118" y2="899.222" gradientUnits="userSpaceOnUse" id="color-4"><stop offset="0" stop-color="#c5c5c5"/><stop offset="1" stop-color="#5d5d5d"/></linearGradient><linearGradient x1="250.52524" y1="429.75754" x2="250.52524" y2="956.89633" gradientUnits="userSpaceOnUse" id="color-5"><stop offset="0" stop-color="#c5c5c5"/><stop offset="1" stop-color="#5d5d5d"/></linearGradient><linearGradient x1="241.18753" y1="446.15329" x2="241.18753" y2="886.08775" gradientUnits="userSpaceOnUse" id="color-6"><stop offset="0" stop-color="#c0c0c0"/><stop offset="1" stop-color="#9f9f9f"/></linearGradient><linearGradient x1="138.57057" y1="479.93021" x2="138.57057" y2="554.61974" gradientUnits="userSpaceOnUse" id="color-7"><stop offset="0" stop-color="#c0c0c0"/><stop offset="1" stop-color="#838383"/></linearGradient><linearGradient x1="138.57057" y1="526.43512" x2="138.57057" y2="601.12463" gradientUnits="userSpaceOnUse" id="color-8"><stop offset="0" stop-color="#c0c0c0"/><stop offset="1" stop-color="#838383"/></linearGradient><linearGradient x1="138.57057" y1="571.53057" x2="138.57057" y2="646.22016" gradientUnits="userSpaceOnUse" id="color-9"><stop offset="0" stop-color="#c0c0c0"/><stop offset="1" stop-color="#838383"/></linearGradient><linearGradient x1="143.07415" y1="614.65774" x2="143.07415" y2="689.34728" gradientUnits="userSpaceOnUse" id="color-10"><stop offset="0" stop-color="#c0c0c0"/><stop offset="1" stop-color="#838383"/></linearGradient><linearGradient x1="154.3331" y1="668.25391" x2="154.3331" y2="729.5212" gradientUnits="userSpaceOnUse" id="color-11"><stop offset="0" stop-color="#c0c0c0"/><stop offset="1" stop-color="#838383"/></linearGradient><linearGradient x1="344.2345" y1="479.93021" x2="344.2345" y2="554.61974" gradientUnits="userSpaceOnUse" id="color-12"><stop offset="0" stop-color="#c0c0c0"/><stop offset="1" stop-color="#838383"/></linearGradient><linearGradient x1="344.2345" y1="526.43512" x2="344.2345" y2="601.12463" gradientUnits="userSpaceOnUse" id="color-13"><stop offset="0" stop-color="#c0c0c0"/><stop offset="1" stop-color="#838383"/></linearGradient><linearGradient x1="344.2345" y1="571.53057" x2="344.2345" y2="646.22016" gradientUnits="userSpaceOnUse" id="color-14"><stop offset="0" stop-color="#c0c0c0"/><stop offset="1" stop-color="#838383"/></linearGradient><linearGradient x1="339.73095" y1="614.65774" x2="339.73095" y2="689.34728" gradientUnits="userSpaceOnUse" id="color-15"><stop offset="0" stop-color="#c0c0c0"/><stop offset="1" stop-color="#838383"/></linearGradient><linearGradient x1="328.47192" y1="668.25391" x2="328.47192" y2="729.5212" gradientUnits="userSpaceOnUse" id="color-16"><stop offset="0" stop-color="#c0c0c0"/><stop offset="1" stop-color="#838383"/></linearGradient><linearGradient x1="241.18753" y1="446.15329" x2="241.18753" y2="472.04893" gradientUnits="userSpaceOnUse" id="color-17"><stop offset="0" stop-color="#c0c0c0"/><stop offset="1" stop-color="#9f9f9f"/></linearGradient><linearGradient x1="195.23984" y1="837.50774" x2="287.13534" y2="837.50774" gradientUnits="userSpaceOnUse" id="color-18"><stop offset="0" stop-color="#7b7b7b"/><stop offset="1" stop-color="#b9b9b9"/></linearGradient><radialGradient cx="472.37182" cy="451.97046" r="24.98435" gradientUnits="userSpaceOnUse" id="color-19"><stop offset="0" stop-color="#a7a7a7"/><stop offset="1" stop-color="#7a7a7a"/></radialGradient><radialGradient cx="29.51873" cy="450.46925" r="24.98435" gradientUnits="userSpaceOnUse" id="color-20"><stop offset="0" stop-color="#a7a7a7"/><stop offset="1" stop-color="#7a7a7a"/></radialGradient><linearGradient x1="324.29704" y1="306.38044" x2="323.32163" y2="403.83118" gradientUnits="userSpaceOnUse" id="color-21"><stop offset="0" stop-color="#c5c5c5"/><stop offset="1" stop-color="#5d5d5d"/></linearGradient><linearGradient x1="115.77222" y1="31.25926" x2="115.20028" y2="88.40017" gradientUnits="userSpaceOnUse" id="color-22"><stop offset="0" stop-color="#c5c5c5"/><stop offset="1" stop-color="#5d5d5d"/></linearGradient><linearGradient x1="337.59277" y1="67.24193" x2="337.16564" y2="109.91625" gradientUnits="userSpaceOnUse" id="color-23"><stop offset="0" stop-color="#c5c5c5"/><stop offset="1" stop-color="#5d5d5d"/></linearGradient><linearGradient x1="234.07496" y1="73.31641" x2="231.03876" y2="376.65575" gradientUnits="userSpaceOnUse" id="color-24"><stop offset="0" stop-color="#a3a3a3"/><stop offset="1" stop-color="#1a1a1a"/></linearGradient><linearGradient x1="237.42119" y1="9.47632" x2="233.60749" y2="390.49517" gradientUnits="userSpaceOnUse" id="color-25"><stop offset="0" stop-color="#c5c5c5"/><stop offset="1" stop-color="#5d5d5d"/></linearGradient><linearGradient x1="226.05324" y1="32.12999" x2="222.73446" y2="363.70168" gradientUnits="userSpaceOnUse" id="color-26"><stop offset="0" stop-color="#b9b9b9"/><stop offset="1" stop-color="#5c5c5c"/></linearGradient><linearGradient x1="231.77071" y1="366.21161" x2="235.35544" y2="8.06911" gradientUnits="userSpaceOnUse" id="color-27"><stop offset="0" stop-color="#5d5d5d"/><stop offset="1" stop-color="#a1a1a1"/></linearGradient><linearGradient x1="231.77071" y1="366.21161" x2="235.35544" y2="8.06911" gradientUnits="userSpaceOnUse" id="color-28"><stop offset="0" stop-color="#c5c5c5"/><stop offset="1" stop-color="#5d5d5d"/></linearGradient><linearGradient x1="237.42119" y1="9.47632" x2="233.60749" y2="390.49517" gradientUnits="userSpaceOnUse" id="color-29"><stop offset="0" stop-color="#c5c5c5"/><stop offset="1" stop-color="#5d5d5d"/></linearGradient><linearGradient x1="179.12517" y1="196.66313" x2="184.94827" y2="196.72142" gradientUnits="userSpaceOnUse" id="color-30"><stop offset="0" stop-color="#cdcdcd"/><stop offset="1" stop-color="#444444"/></linearGradient><linearGradient x1="286.20541" y1="197.73491" x2="292.02853" y2="197.7932" gradientUnits="userSpaceOnUse" id="color-31"><stop offset="0" stop-color="#cdcdcd"/><stop offset="1" stop-color="#444444"/></linearGradient><linearGradient x1="236.17939" y1="169.75708" x2="236.07709" y2="179.97792" gradientUnits="userSpaceOnUse" id="color-32"><stop offset="0" stop-color="#cdcdcd"/><stop offset="1" stop-color="#444444"/></linearGradient><radialGradient cx="289.28782" cy="176.17856" r="25.18914" gradientUnits="userSpaceOnUse" id="color-33"><stop offset="0" stop-color="#ffffff"/><stop offset="1" stop-color="#939393"/></radialGradient><radialGradient cx="295.45252" cy="164.40746" r="25.18914" gradientUnits="userSpaceOnUse" id="color-34"><stop offset="0" stop-color="#b9b097"/><stop offset="1" stop-color="#827c69"/></radialGradient><linearGradient x1="234.04521" y1="282.82051" x2="233.98967" y2="288.3709" gradientUnits="userSpaceOnUse" id="color-35"><stop offset="0" stop-color="#a0a0a0"/><stop offset="1" stop-color="#696969"/></linearGradient><linearGradient x1="252.47538" y1="227.86008" x2="251.85342" y2="289.9991" gradientUnits="userSpaceOnUse" id="color-36"><stop offset="0" stop-color="#cdcdcd"/><stop offset="1" stop-color="#444444"/></linearGradient><linearGradient x1="217.5843" y1="227.29984" x2="216.96233" y2="289.43881" gradientUnits="userSpaceOnUse" id="color-37"><stop offset="0" stop-color="#cdcdcd"/><stop offset="1" stop-color="#444444"/></linearGradient><linearGradient x1="234.52265" y1="280.87076" x2="234.00025" y2="333.06231" gradientUnits="userSpaceOnUse" id="color-38"><stop offset="0" stop-color="#6e6e6e"/><stop offset="1" stop-color="#969696"/></linearGradient><linearGradient x1="239.83373" y1="195.26029" x2="239.43059" y2="235.53652" gradientUnits="userSpaceOnUse" id="color-39"><stop offset="0" stop-color="#cdcdcd"/><stop offset="1" stop-color="#444444"/></linearGradient><linearGradient x1="183.96651" y1="163.68878" x2="183.03357" y2="256.89608" gradientUnits="userSpaceOnUse" id="color-40"><stop offset="0" stop-color="#c5c5c5"/><stop offset="1" stop-color="#5d5d5d"/></linearGradient><linearGradient x1="182.43865" y1="164.98364" x2="181.53843" y2="254.92405" gradientUnits="userSpaceOnUse" id="color-41"><stop offset="0" stop-color="#c5c5c5"/><stop offset="1" stop-color="#5d5d5d"/></linearGradient><radialGradient cx="175.85314" cy="260.4571" r="25.18914" gradientUnits="userSpaceOnUse" id="color-42"><stop offset="0" stop-color="#ffffff"/><stop offset="1" stop-color="#939393"/></radialGradient><radialGradient cx="188.6958" cy="163.33892" r="25.18914" gradientUnits="userSpaceOnUse" id="color-43"><stop offset="0" stop-color="#b9b097"/><stop offset="1" stop-color="#827c69"/></radialGradient><linearGradient x1="227.23978" y1="19.82754" x2="224.80626" y2="262.95689" gradientUnits="userSpaceOnUse" id="color-44"><stop offset="0" stop-color="#afafaf"/><stop offset="1" stop-color="#515151"/></linearGradient><linearGradient x1="230.07035" y1="114.7384" x2="228.54453" y2="267.17904" gradientUnits="userSpaceOnUse" id="color-45"><stop offset="0" stop-color="#afafaf"/><stop offset="1" stop-color="#4b4b4b"/></linearGradient><linearGradient x1="237.42119" y1="9.47632" x2="233.60749" y2="390.49517" gradientUnits="userSpaceOnUse" id="color-46"><stop offset="0" stop-color="#c5c5c5"/><stop offset="1" stop-color="#5d5d5d"/></linearGradient><radialGradient cx="289.08278" cy="177.54957" r="38.82642" gradientUnits="userSpaceOnUse" id="color-47"><stop offset="0" stop-color="#ff0000"/><stop offset="1" stop-color="#ff0000" stop-opacity="0"/></radialGradient></defs><g transform="translate(3.34687,-8.05808)"><g data-paper-data="{&quot;isPaintingLayer&quot;:true}" fill-rule="nonzero" stroke-linecap="butt" stroke-linejoin="miter" stroke-miterlimit="10" stroke-dasharray="" stroke-dashoffset="0" style="mix-blend-mode: normal"><path d="M29.13781,592.2592c0.67436,0.76908 3.37679,4.2879 -0.14205,7.8068c-3.9806,3.9806 -7.96129,0 -7.96129,0l-3.15,-5.4818c0,-4.43459 0.05918,-8.86925 0.15057,-13.30297c5.22686,-10.83264 18.83838,-37.71295 11.08844,-49.97606c-5.4482,-8.62098 -13.81465,-16.22747 -12.69809,-27.48063c0.67382,-6.79168 17.71366,-28.91709 6.07214,-31.80697c0,0 -5.03512,-2.51756 -2.51762,-7.55274c2.51756,-5.03512 7.55274,-2.51762 7.55274,-2.51762c8.84169,5.42513 13.12077,17.21681 8.6882,28.20618c-1.92714,4.77775 -12.05392,11.44745 -8.86757,18.58345c2.70093,6.04882 8.55207,11.36818 11.56777,17.02099c8.87399,16.63391 -2.17186,43.22222 -9.92826,58.11011c0.08937,2.79605 0.1311,5.59366 0.14497,8.39123z" fill="url(#color-1)" stroke="none" stroke-width="0.5"/><g stroke="none"><g><path d="M250.19468,347.63724h3.00241c13.61907,0 19.7132,1.08269 23.60166,15.45003c0.06041,9.59218 0.58732,20.22206 2.894,29.41835c1.49056,5.94256 6.20305,12.00371 7.506,18.01437c0.01351,0.06249 0.02697,0.12532 0.04023,0.18847c0.00712,-0.00058 0.01419,-0.00117 0.02135,-0.00179c7.85732,-0.65479 18.3943,-3.65406 26.26366,-1.2315c9.91795,3.05324 16.01221,16.02656 25.52035,19.51551c3.4388,1.26187 7.36358,0.36609 10.9172,1.25446c18.03805,-0.14306 44.69173,-4.94025 61.31318,1.80867c2.88286,1.17054 6.10757,2.16245 8.19428,4.47048c2.03041,2.24573 4.31401,15.09205 8.52005,16.62516c7.43123,2.70875 20.08053,-3.38184 27.86961,-3.43094c0,0 5.62947,0 5.62947,5.62947c0,4.44533 -3.51018,5.38035 -4.98699,5.5771c-1.27731,2.69597 -4.58594,3.02685 -4.58594,3.02685c-14.2789,1.4259 -29.36822,2.94225 -43.1652,7.11201c-19.92218,6.02094 -32.45678,26.7336 -51.69136,33.15935c-6.53939,2.1846 -18.93701,1.7901 -25.79935,1.7901c-4.94545,0 -11.77051,0.38627 -16.16709,-2.16731c-3.59034,-2.08536 -5.97677,-5.76499 -8.96516,-8.64749c-9.95538,-7.22629 -23.86333,-15.41457 -29.4903,-26.92283c-2.94156,-6.01614 -3.27768,-12.62341 -2.7007,-19.43389c-4.03955,-6.03517 -7.58478,-12.36814 -10.62574,-17.74177c-1.49118,-2.63506 -2.44943,-5.25079 -3.19797,-7.73423c-1.57432,0.03022 -3.15088,0.05203 -4.73051,0.06557c-0.30706,0.26503 -0.61805,0.52702 -0.93282,0.78597c-0.08378,0.28149 -0.17144,0.56176 -0.26319,0.84055c-0.31908,0.96946 -2.49218,1.60147 -1.87904,2.41742c0.90824,1.20875 3.30613,-0.03513 4.42945,0.97687c8.87865,7.99868 9.89535,17.88628 8.0407,29.17782c-1.93694,11.79279 -8.38764,15.32522 -12.38371,25.39263c-4.97356,12.52999 -4.07506,25.1712 -4.07506,38.378c0,5.00399 0,10.00799 0,15.01195v4.50361c0,0 0,5.62947 -5.62947,5.62947c-5.62947,0 -5.62947,-5.62947 -5.62947,-5.62947c0,-5.00399 0,-14.51154 0,-19.51551c0,-11.97476 -0.45722,-23.42831 2.38167,-34.79523c-5.40581,4.49928 -12.13044,8.05816 -17.13253,12.0691c-7.89446,6.33017 -9.29713,14.07233 -20.5885,16.24446c-16.8424,3.24004 -41.90164,-0.63559 -58.3409,-4.67511c-15.49353,-6.69617 -18.90811,-28.6558 -34.57567,-34.54337c-3.40736,-1.28041 -7.31334,0.75814 -10.9172,0.24672c-8.4822,-1.20373 -12.38188,-7.04479 -20.34463,-9.17326c-15.25308,-4.0772 -33.87003,-1.29299 -49.52379,-1.29299c0,0 -1.06302,0 -2.26519,-0.46195c-0.04922,0.0198 -0.09846,0.03961 -0.14763,0.0593c0,0 -5.22686,2.09075 -7.31757,-3.13612c-2.09075,-5.22686 3.13612,-7.31757 3.13612,-7.31757c13.39486,-5.34835 27.50211,-13.95294 42.06835,-15.3872c30.40089,-2.99353 61.95201,1.6605 92.12775,1.47381c13.17827,0 26.84732,1.07138 39.9776,0.02736c4.32211,-0.34369 7.80314,-3.78655 11.76772,-5.54186c6.69091,-2.96241 13.94173,-5.74624 20.99674,-8.98351c-1.06808,-1.53085 -2.15119,-3.02476 -3.2257,-4.47731c-4.79028,-3.84776 -12.21348,-4.66312 -15.63122,-9.76913c-4.26974,-6.37884 -1.17266,-11.65833 2.51593,-16.36304c-5.2873,-3.65843 -9.62346,-8.00547 -11.86708,-12.73983c-3.90821,-8.2471 -8.66689,-27.55525 -2.4706,-36.01698c2.98123,-4.07123 10.56351,-5.38539 15.11799,-6.54796l2.86649,-0.16804c0,0 5.62947,0 5.62947,5.62947c0,5.62947 -5.62947,5.62947 -5.62947,5.62947l-0.13581,-0.16804c-2.99075,0.72856 -7.19318,-0.10164 -8.90114,2.45924c-3.16846,4.7508 1.88673,19.91689 3.53417,24.03093c0.91747,2.29118 2.79307,4.5174 5.24705,6.57797c0.3629,-5.93011 1.56546,-11.32109 3.54139,-15.23362c3.84992,-2.6114 6.8165,-4.45168 9.68293,-5.89107c0.88109,-2.19381 1.78637,-4.3701 2.74327,-6.49836c-0.75796,-0.54254 -1.55231,-1.13462 -2.38736,-1.78772l-2.27277,-7.75338c0,0 -1.36537,-5.4614 4.09609,-6.82676c5.4614,-1.36537 6.82676,4.09609 6.82676,4.09609l0.10671,0.62267c3.38107,-4.89781 7.51561,-9.02586 12.93104,-11.79848l3.00241,-1.50119c0,0 5.03512,-2.51762 7.55274,2.51762c2.51762,5.03512 -2.51762,7.55274 -2.51762,7.55274l-3.00241,1.50119c-2.8471,1.37934 -4.87534,2.84246 -6.38548,4.43292c0.51992,-0.08559 0.86549,-0.08559 0.86549,-0.08559zM287.30712,441.02397c-0.198,1.82135 -0.57854,3.81888 -0.95916,5.89504c2.90219,3.89105 6.04947,7.42179 9.44926,10.08039c15.91291,12.44358 40.50345,7.73124 59.48122,7.73124c0,0 5.62947,0 5.62947,5.62947c0,5.62947 -5.62947,5.62947 -5.62947,5.62947c-22.52783,0 -47.70419,4.36865 -66.61934,-10.28313c-0.35244,-0.27303 -0.70253,-0.55389 -1.05042,-0.84229c5.54575,9.0738 17.73549,15.84217 25.83866,21.78023c29.27639,30.61312 64.27244,-17.81095 91.74828,-26.26347c3.95132,-1.21557 8.00522,-2.22215 12.11656,-3.07392c-3.12492,-5.68511 -3.9139,-12.7705 -9.94377,-14.69341c-16.92151,-5.39616 -40.87939,-1.08088 -58.78256,-1.19375c-4.27446,-1.06861 -8.98342,-0.18241 -13.10196,-1.74787c-9.40241,-3.57385 -16.26191,-16.85404 -25.52035,-19.51551c-5.89156,-1.69365 -15.94754,1.2646 -21.6912,1.7638c0.10963,6.68555 -0.39656,13.87257 -0.96529,19.10379zM268.73496,395.09246c-2.38274,-9.55638 -3.18944,-20.71266 -3.11082,-30.6295c-1.64933,-7.95379 -5.10555,-5.56671 -12.42704,-5.56671h-0.03584c2.13709,2.21744 4.17256,5.14952 6.47186,9.67596c4.49508,7.84188 7.37803,22.56673 5.7985,35.05421c1.41591,2.54877 2.31748,5.35797 3.09289,8.21914c2.42596,-0.09404 4.84973,-0.20807 7.27461,-0.3431c-1.734,-5.44803 -5.70705,-10.96696 -7.06416,-16.40997zM271.83512,422.98494c0.37578,0.88384 0.79513,1.74244 1.27268,2.56803c1.02419,1.77064 2.10618,3.67927 3.2469,5.66212c0.37664,-2.86587 0.66116,-5.70954 0.73104,-8.50292c-1.75022,0.10145 -3.50011,0.19237 -5.25061,0.27273zM229.9012,386.88263c-0.64277,1.5917 -1.40903,3.13002 -2.26166,4.62468c6.07873,2.60643 12.36941,4.20141 16.55039,4.16824c0.40034,0.00206 0.82881,-0.00153 1.28004,-0.00761c-0.08098,-8.9087 -0.97941,-17.84936 -3.58042,-25.49827c-0.83292,0.21989 -1.62225,0.43699 -2.38248,0.6605c-3.11017,5.41124 -7.14452,9.95736 -9.60581,16.05246zM94.98838,463.7758c5.35257,2.86769 11.93524,-0.79403 17.37518,1.2437c16.24058,6.0835 20.01071,29.50973 34.47937,34.51171c15.17311,3.88551 37.03034,6.36277 52.74771,4.3321c7.60034,-0.98196 10.01227,-9.35983 15.44022,-13.77943c5.94237,-4.83851 17.2016,-9.71618 21.36802,-16.67857c7.71655,-12.89497 4.42481,-25.85806 -1.91475,-37.44598c-7.74289,3.51169 -15.69722,6.46959 -22.52383,9.51605c-5.0434,2.2507 -9.76727,5.83651 -15.25383,6.46769c-13.30548,1.53082 -27.68626,0.02736 -41.08704,0.02736c-29.90463,-0.15393 -60.87816,-3.98418 -91.01829,-1.52859c-4.83211,0.39366 -9.69477,1.7912 -14.514,3.64562c15.49869,0.16192 29.94783,1.67698 44.90138,9.68843zM253.62681,456.06849c0.64232,-4.57897 1.86022,-9.52977 0.26292,-13.86896c-1.00933,-2.74198 -3.99119,-4.07678 -6.76779,-5.57498c3.60272,8.22102 5.6301,16.88093 4.69199,25.67693c0.83764,-1.848 1.48263,-3.87843 1.81285,-6.23302zM244.18991,406.93455c-3.91709,-0.02473 -8.60517,-0.86491 -13.4639,-2.36226c0.34294,0.91225 0.67618,1.79229 0.98894,2.6327c0.87544,2.35226 0.71777,5.58556 2.79746,6.99069c1.38804,0.9378 2.95639,-1.77646 4.61919,-1.97957c1.90534,-0.23269 3.82462,-0.24398 5.74749,-0.19489c0.11851,-1.66213 0.22654,-3.35834 0.31714,-5.0781c-0.32659,-0.00781 -0.66199,-0.01075 -1.00631,-0.00858z" fill="url(#color-2)" stroke-width="0.5"/><path d="M16.38324,469.98484c0,-5.62947 5.62947,-5.62947 5.62947,-5.62947c4.00318,0 9.50758,0 13.5108,0c43.42831,0.4571 77.7256,28.52933 111.37779,52.10328c16.58374,11.61722 27.36348,26.51455 48.76397,30.55479c30.54401,5.09067 67.16858,17.03598 98.66355,10.48887c19.35844,-4.02418 37.40966,-9.98532 55.23833,-18.89359c25.706,-15.25472 24.13882,-54.9383 50.97605,-70.52016c8.43766,-4.89895 18.68977,-2.79475 27.73927,-3.70573c7.84086,-0.78925 15.08289,-3.0061 23.07264,-3.0298c0,0 5.62947,0 5.62947,5.62947c0,1.56728 -0.43637,2.69825 -1.06608,3.51436c0.98881,-0.0846 1.97106,-0.1305 2.94262,-0.13669c0,0 5.62947,0 5.62947,5.62947c0,5.62947 -5.62947,5.62947 -5.62947,5.62947c-4.37612,-0.03475 -5.96053,-0.49384 -10.0564,1.15151c-2.64602,1.06291 -5.31863,2.17564 -7.66867,3.79069c-23.55569,16.1877 8.47537,41.64547 12.69566,58.69119c3.50867,14.17169 -4.51578,27.10785 -10.66246,39.14907c-2.30543,11.97473 -3.97908,24.40467 -2.7251,36.64942c1.27918,12.49091 7.15072,21.29358 5.99858,34.94596c-1.87871,22.26176 -16.59421,38.87279 -16.47954,61.68537l0.90691,0.4848c0,0 2.51756,5.03519 -2.51762,7.55274c-5.03519,2.51756 -7.55274,-2.51762 -7.55274,-2.51762l-2.09548,-5.51996c0.03436,-8.22233 1.08825,-18.88742 3.15298,-26.81372c3.25841,-12.50892 12.267,-22.36113 13.39383,-36.10017c1.04554,-12.7483 -4.6022,-20.6432 -6.01098,-32.60795c-1.62206,-13.77641 0.51276,-27.98205 3.27966,-41.41281c4.82543,-9.81421 13.28025,-21.37503 10.35428,-32.90838c-3.41164,-13.44771 -16.81105,-23.94503 -20.96308,-37.32061c-5.51,-17.75016 7.31075,-31.6949 22.5057,-37.38202c-5.00928,0.7073 -9.85882,1.93666 -15.02456,2.45026c-7.17101,0.71299 -16.56097,-1.44386 -23.30145,2.29907c-3.48635,1.93594 -4.89965,6.29903 -7.52802,9.29801c-17.15054,19.56931 -20.39349,47.25943 -43.57736,61.29423c-18.85408,9.43277 -38.26357,16.15615 -58.85267,20.13756c-33.16138,6.41248 -70.33603,-5.16778 -102.49683,-10.52791c-23.23498,-4.84844 -35.17511,-19.80671 -53.31742,-32.49549c-5.19639,-3.63436 -11.66572,-5.26283 -16.68598,-9.13689c-26.23251,-20.24315 -52.80553,-41.34414 -88.10849,-40.84118c-4.00318,0 -8.00637,0 -12.00954,0h-1.50119c0,0 -5.62947,0 -5.62947,-5.62947z" fill="url(#color-3)" stroke-width="0.5"/><path d="M271.54195,521.283c-1.77543,-5.62891 -5.04757,-10.65174 -8.27761,-15.50854c-4.20512,-6.32303 -8.86979,-11.46159 -13.54694,-16.65538c-1.7718,0.60049 -3.56739,1.2292 -5.34242,1.90404c0.01035,0.43688 0.01771,0.7589 0.01809,0.93145c0.03192,14.54221 -0.54458,28.34824 4.92199,42.15445c2.91806,7.36974 9.01665,13.0897 11.6162,20.59085c2.09847,6.05516 3.59003,12.46234 4.14941,18.91313c7.93739,-15.86324 12.96111,-31.72236 6.46139,-52.32994zM225.74609,457.84549c0,-10.03204 9.51336,-10.03204 9.51336,-10.03204c4.66744,0.39564 10.00225,-1.37987 14.00229,1.187c1.16028,0.74455 2.23434,1.5933 3.24202,2.52262c1.65324,-0.83629 3.36712,-1.69644 5.13852,-2.65062c0,0 8.509,-4.48645 12.76344,4.48645c0.61049,1.28751 0.95815,2.48271 1.10591,3.58546c1.1576,-0.97162 2.31369,-1.94521 3.46886,-2.91989l-0.66337,-0.66556c0,0 4.25445,-8.97292 12.76344,-4.48645c8.509,4.48645 4.25445,13.45936 4.25445,13.45936l-4.46871,7.36008c-4.0076,3.38022 -8.04933,6.71696 -12.13291,9.99518c18.80717,22.52441 33.59199,54.11332 22.67395,84.10265c-7.21352,19.81392 -21.07404,36.98111 -28.55701,56.73998c8.64976,9.38963 17.12272,19.01739 21.17814,31.03659c3.15497,9.35048 0.40381,26.01981 0.36191,35.99819c-3.25352,17.37903 -8.65869,37.06355 -16.24015,54.84571c0.82657,2.39777 1.64644,4.77432 2.4528,7.1215c3.16999,9.22739 7.43254,19.00632 6.13097,28.72408c-2.51697,18.79286 -17.97025,29.40109 -21.00908,46.65307c-2.50345,14.21251 4.07431,31.52541 -0.3165,45.41625c-1.32089,4.17881 -4.74831,7.24833 -7.12248,10.87245l1.90271,-2.00638c0,0 0,2.39956 -1.11289,4.85162c0.94227,1.65943 1.45005,3.87763 0.98343,6.82969c-1.56397,9.89556 -10.94786,8.24629 -10.94786,8.24629c-4.73503,-0.99393 -10.02804,-0.42888 -14.20518,-2.98184c-20.84859,-12.74187 -23.40161,-47.75069 -20.31029,-70.33816c2.14917,-15.70325 8.84953,-27.31809 13.67555,-41.878c1.38457,-4.17706 0.72409,-9.27173 3.21154,-12.83538c2.94014,-4.21207 7.98477,-6.29849 12.18074,-9.22097c0.65529,-23.6151 -1.01523,-47.17718 -0.31434,-70.65266c-2.06483,-14.07208 -2.18741,-28.16196 -2.18741,-42.75752c0.03052,-10.23741 0.88903,-20.99136 3.14119,-31.28907c-1.95041,-2.35974 -3.74667,-4.75466 -5.30127,-7.2127c-13.11205,-20.73266 -18.62707,-45.93866 -22.44518,-70.20139c-2.52371,-16.03764 -4.39791,-35.70332 5.63832,-49.88625c3.46346,-4.89445 8.19318,-8.53357 13.46157,-11.46173c0.31378,-3.80764 1.00998,-7.51273 2.5083,-10.62028c-2.5006,-0.35316 -8.41902,-2.02479 -8.41902,-9.93741zM255.6532,658.28858c-1.98088,10.45128 -2.96685,20.94759 -3.40279,31.47413c0.7448,4.59226 1.74739,9.18349 3.09725,13.79095c0.93433,3.18921 1.92184,6.41651 2.94621,9.66275c2.98253,-9.35133 5.36196,-18.75484 7.07491,-27.62876c-0.03919,-7.65935 2.82839,-21.3117 0.36191,-28.20687c-1.81686,-5.07915 -4.6987,-9.77424 -8.12869,-14.24967c-0.65558,5.15613 -1.18347,10.31907 -1.94872,15.15754zM251.98543,775.48146c-0.46033,6.83378 -1.2381,13.73485 -2.00978,20.65736c5.83533,-9.25811 10.77308,-18.77839 7.99069,-29.00784c-0.28693,-1.055 -0.58751,-2.10803 -0.90026,-3.15919c-0.99342,1.61385 -2.0109,3.1867 -3.05262,4.71374c-0.55905,0.81954 -1.14983,1.61597 -1.76774,2.39009c-0.07498,1.46881 -0.16135,2.93743 -0.26024,4.40588zM230.75063,561.59015c3.1983,12.65757 5.4686,22.23815 11.42683,32.92594c2.16857,-4.50557 4.22369,-9.09522 4.12195,-14.00135c-0.33417,-16.10615 -8.95606,-24.52048 -14.43899,-38.41993c-4.85141,-12.29862 -6.09801,-24.48454 -6.40376,-37.10377c-7.75859,15.6261 1.69011,42.33651 5.29395,56.59924zM223.39243,828.25048c-1.95379,14.60883 -2.23849,36.94274 8.51168,46.56601l1.07297,-5.65724c0.67286,-0.81153 1.25866,-1.66539 1.76713,-2.55687c-6.86349,-19.88639 -6.38919,-39.97251 -4.64955,-60.28465c-2.89291,6.9371 -5.62412,13.87097 -6.70235,21.93267z" fill="url(#color-4)" stroke-width="0.5"/><path d="M471.71225,447.95542c11.1458,1.59224 9.55356,12.73809 9.55356,12.73809c-1.29078,6.72446 -0.15776,14.42131 -3.87245,20.17327c-5.18235,8.02449 -22.72671,15.10717 -31.23406,19.68635c-19.8297,10.67365 -48.35697,16.49753 -61.03722,36.52476c-11.29571,17.84042 1.99376,40.43783 3.87851,58.27349c2.75308,26.05275 -4.76228,49.0973 -14.26122,72.8448c-12.0734,29.94342 -36.29592,48.7597 -52.66752,76.04696c-7.51328,12.52273 -7.93824,22.5777 -12.38113,35.8431c-6.77663,20.23336 -16.64408,44.05372 -29.78551,64.04971c-2.72761,9.18062 -6.74752,17.61259 -11.24001,27.27751c-1.02716,2.20967 -6.0405,14.2524 -10.07407,23.43945c1.39377,2.80879 2.38337,5.74847 2.7755,8.87908c-17.60709,-0.78369 -32.77271,-8.79903 -49.00244,-9.79694c-1.1721,-2.51386 -2.21368,-5.41397 -3.15112,-8.90944c-1.13051,-4.21523 1.16162,-8.85724 0.10736,-13.0922c-2.032,-8.16239 -8.88038,-14.3145 -13.93365,-21.03898c-12.31962,-16.3936 -24.02874,-32.95422 -36.09226,-49.62548c-6.33254,-8.75122 -11.27722,-13.23084 -13.22968,-24.78722c-2.9875,-17.68262 5.44769,-27.45393 6.60703,-43.77092c0.96778,-13.62142 -0.1045,-27.99073 -0.05479,-41.67474c0.01907,-5.24716 1.49839,-21.54341 -2.61779,-27.53933c-4.79631,-6.98654 -12.86164,-11.21879 -17.98442,-17.96959c-9.89431,-16.62218 -23.7322,-41.37118 -22.13642,-61.33664c1.12234,-14.04229 13.69147,-20.59975 13.46958,-33.07819c-0.32074,-18.04254 -16.74487,-44.37184 -28.65983,-57.48083c-1.80003,-1.9804 -13.56919,-15.29379 -19.38576,-16.92461c-11.43039,-3.2048 -30.99138,0.56512 -42.43133,2.50716c0,0 -11.10579,1.85096 -12.95675,-9.25484c-1.85096,-11.10579 9.25484,-12.95675 9.25484,-12.95675c1.60926,-0.26385 3.33746,-0.54981 5.15759,-0.84327c1.87381,-1.01934 3.49249,-1.34313 3.49249,-1.34313c17.61496,-3.44338 33.02027,-1.92235 50.60518,-0.16384c34.0657,3.40659 65.5986,7.08243 98.75151,16.12421c13.46714,3.67287 16.33781,-0.03167 29.90698,8.02052c5.68074,3.37108 10.48951,7.55614 14.54147,12.31412c12.91948,-20.93101 27.81521,-39.73195 53.21058,-47.39538c11.67498,-3.52312 31.09614,-0.37717 43.42212,-0.37717c32.9842,0 67.92983,2.77633 101.59306,7.66149c3.73942,-5.14851 7.81228,-10.15184 13.24855,-14.41692l10.7274,-5.56679c0,0 10.07034,-5.03512 15.10546,5.03512c2.70498,5.40988 1.05048,9.36672 -1.06015,11.87033c1.1338,-0.16549 2.40853,-0.17128 3.84101,0.03337zM135.46499,518.98532c5.43919,10.07976 10.49947,21.29867 10.39211,32.75187c-0.14855,15.84445 -12.54827,20.42413 -13.55194,34.47564c-1.0173,14.24244 11.23162,34.9331 18.39593,46.74957c5.0507,6.84872 13.63141,10.78308 18.04428,18.05913c12.10405,19.95738 8.21734,60.87433 6.33459,83.90808c-1.07589,13.1624 -9.09651,23.81479 -6.90373,37.29374c2.42544,14.9091 19.50883,28.81109 27.56077,40.88269c3.74294,5.61145 8.45949,11.38477 13.25679,17.32575c1.697,-13.88522 5.56879,-28.27046 9.84779,-41.38551c-0.7624,-1.03636 -1.4566,-2.05255 -2.05556,-3.04526c-9.4218,-25.23432 -17.77808,-59.31552 -2.0646,-84.53129c0.09187,-1.804 0.21402,-3.61312 0.36008,-5.41909c-1.10736,-0.85215 -2.19061,-1.62074 -3.23068,-2.28612c-5.03543,-3.22144 -11.65353,-4.24162 -15.72801,-8.6157c-6.12289,-6.57309 -8.91709,-23.01232 -9.69078,-31.46467c-0.75632,-8.26303 0.20468,-22.11028 2.90686,-29.58847c7.95644,-22.01983 30.87617,-32.72263 37.99566,-55.41016c0.8302,-2.64562 1.15944,-5.72747 1.20518,-9.01587c-0.37667,-0.76211 -0.71813,-1.53902 -1.00429,-2.33913c-4.4952,-12.56712 -5.7643,-25.03876 -4.52,-37.44684c-3.5733,-8.82572 -9.2981,-16.7582 -17.77117,-21.93171c-5.55919,-3.39429 -18.75914,-4.02388 -24.13614,-5.49029c-22.97238,-6.26515 -45.06116,-9.7923 -67.87412,-12.50068c8.92054,12.28186 15.60246,26.7406 22.23098,39.02431zM288.27648,773.12254c4.85056,-14.63007 6.30666,-26.82899 14.64043,-40.71795c6.98331,-11.63841 17.66621,-27.28393 25.90659,-37.56072c2.49161,-3.10745 6.64471,-4.47461 9.48652,-7.26545c7.51289,-7.37834 11.75044,-18.22807 15.522,-27.74534c8.2112,-20.52806 14.84515,-39.7092 12.76027,-62.26296c-0.69006,-7.46499 -5.29574,-14.11697 -6.60703,-21.49824c-2.69894,-15.19233 -1.90271,-37.26368 5.98194,-50.83249c2.70518,-4.65537 5.98862,-8.67718 9.69436,-12.22243c-9.20847,5.3206 -17.84063,12.01011 -24.49443,19.83601c-3.32462,3.91027 1.39174,10.17528 1.81241,15.29061c0.11011,1.33888 -4.29207,25.08378 -5.06588,27.20129c-7.36296,20.14946 -21.79381,40.54692 -32.8314,58.9233c-17.94951,23.98917 -35.87289,47.58 -38.65495,77.9627c-2.3523,25.68972 3.0366,51.17031 5.80793,76.79043c2.28156,-5.35867 4.32292,-10.71585 6.04127,-15.89877zM334.46188,471.89508c-9.48312,3.39335 -18.26574,9.08586 -25.71777,15.86164c-5.84528,5.31477 -14.34777,8.36698 -18.07122,15.33473c-18.83367,35.24356 7.66765,75.56425 1.35203,111.26098c-2.26267,12.78919 -9.4763,20.84462 -17.95695,27.69553c1.08938,3.38795 1.94123,6.81389 2.29202,10.26454c6.00517,-10.39894 12.2401,-20.24315 20.03557,-30.60907c9.99061,-16.67178 23.61698,-35.3929 30.21881,-53.66642c6.60964,-18.2952 -5.35163,-29.98946 5.75369,-47.57994c10.31421,-16.33731 32.91628,-28.85367 50.37543,-35.8287c6.8793,-2.74832 14.82447,-2.68643 21.3363,-6.21836c2.80788,-1.52298 5.28935,-3.24305 7.53266,-5.10939c-23.50708,-3.48051 -46.8638,-6.41605 -70.62306,-7.22391c-2.01233,4.12511 -6.52755,5.81828 -6.52755,5.81828zM269.9134,610.09413c2.48331,-16.60593 -5.28677,-34.44402 -6.90373,-50.80453c-2.01407,-20.37802 -1.92804,-49.17481 8.2558,-67.61761c5.76141,-10.43385 16.94749,-19.91141 28.85056,-27.44367c-3.57064,0.06368 -6.84906,0.41168 -9.50154,1.2511c-20.93331,6.62503 -31.64936,23.7486 -42.20036,41.11052c-1.32837,3.89436 -2.16453,7.53691 -2.60627,11.00741c1.55939,4.88263 2.7378,9.88788 3.59795,14.88448c0.01412,4.4952 0.41866,9.60976 0.77421,14.87871c1.73692,5.17294 3.71424,10.54747 5.5074,16.46987c5.513,18.20843 5.36912,37.30101 10.39306,55.74882c1.9048,-2.66662 3.27566,-5.75761 3.83305,-9.48498zM218.30081,670.11425c4.71691,-11.47385 12.3542,-22.00207 21.51453,-30.36783c2.54298,-2.32238 5.5292,-4.33066 8.61887,-6.28261c-2.02183,-4.7533 -4.09569,-9.39252 -5.31233,-13.64379c-2.16416,-7.56214 -3.18241,-15.44373 -4.16351,-23.2994c-2.46546,4.00905 -5.14442,7.89146 -7.89176,11.65794c-2.40731,3.30026 -6.77905,4.63656 -9.68997,7.50253c-9.96681,9.81291 -13.73575,22.45892 -12.50329,36.14593c0.55229,6.13325 -0.81791,14.02383 3.82004,18.07488c1.48308,1.2954 3.34538,1.96954 5.2646,2.56287c0.11555,-0.79349 0.23008,-1.57722 0.34281,-2.35041zM240.43688,855.41721c9.24472,-6.60571 14.13856,-15.82542 19.66821,-25.4207c0.28105,-1.62987 0.50151,-3.2828 0.65281,-4.96209c1.97268,-21.89021 -2.10378,-44.90184 -5.20958,-67.87214c-1.74437,2.09337 -3.91351,3.98585 -5.02723,6.4352c-2.04245,4.49173 -2.59678,9.52076 -3.89512,14.2811c-0.96323,2.54474 -1.95967,5.21982 -2.96237,7.99783c9.55217,12.81354 19.62999,24.13746 14.37922,43.27278c-2.45043,8.92999 -11.96881,14.15015 -17.47927,21.59217c-1.2598,1.70133 -1.92944,3.82717 -2.26761,6.09591zM240.05494,675.92928c-0.1188,0.8545 -0.24285,1.73181 -0.37007,2.62907c6.90418,-5.64568 12.67916,-11.90408 14.14698,-21.15212c-5.80867,5.00448 -10.83146,10.76647 -13.77689,18.52304zM248.39975,698.09696c1.83141,2.41393 3.47413,4.82457 4.84428,7.15291c0.473,-4.29687 1.18204,-8.5591 2.1778,-12.77832c-2.30683,1.84963 -4.67162,3.69086 -7.02204,5.62544zM235.78791,818.94018c-0.40948,2.27073 -0.7538,4.56384 -1.09922,6.85851c1.61875,-2.15015 2.41504,-5.01426 1.66,-9.83631c-0.19328,0.98653 -0.38065,1.97887 -0.56078,2.97788zM456.60927,454.59744c-0.29289,0.20415 -0.57995,0.41129 -0.86158,0.62116c1.20989,0.21905 2.41684,0.44078 3.62079,0.66503c0.28326,-0.91392 0.75033,-2.10723 1.49617,-3.29531zM439.48982,476.55973c-0.68637,1.07138 -1.39868,2.13953 -2.15155,3.19826c2.25517,-1.14018 4.33968,-2.06164 6.25126,-2.88485c-1.36559,-0.10948 -2.73197,-0.21193 -4.0997,-0.3134z" fill="url(#color-5)" stroke-width="0.5"/><path d="M217.73133,886.08775v-439.93446h46.91241v439.93446z" fill="url(#color-6)" stroke-width="0"/><g stroke-width="0"><path d="M46.97019,512.34273v-32.41245c0,0 28.38051,42.2771 78.21255,42.2771c99.89886,0 104.98819,-16.9109 104.98819,-16.9109v32.41245c0,0 -5.0893,16.9109 -104.98819,16.9109c-49.83207,0 -78.21255,-42.2771 -78.21255,-42.2771z" fill="url(#color-7)"/><path d="M46.97019,558.84745v-32.41245c0,0 28.38051,42.2771 78.21255,42.2771c99.89886,0 104.98819,-16.9109 104.98819,-16.9109v32.41245c0,0 -5.0893,16.9109 -104.98819,16.9109c-49.83207,0 -78.21255,-42.2771 -78.21255,-42.2771z" fill="url(#color-8)"/><path d="M50.34784,603.94305v-32.41245c0,0 27.33398,42.2771 75.32857,42.2771c96.21515,0 101.1168,-16.9109 101.1168,-16.9109v32.41245c0,0 -4.90163,16.9109 -101.1168,16.9109c-47.9945,0 -75.32857,-42.2771 -75.32857,-42.2771z" fill="url(#color-9)"/><path d="M60.48094,647.07017v-32.41245c0,0 25.58979,42.2771 70.52182,42.2771c90.0757,0 94.66451,-16.9109 94.66451,-16.9109v32.41245c0,0 -4.58884,16.9109 -94.66451,16.9109c-44.93197,0 -70.52182,-42.2771 -70.52182,-42.2771z" fill="url(#color-10)"/><path d="M85.25071,694.84159v-26.58772c0,0 21.40375,34.67963 58.98571,34.67963c75.3409,0 79.17912,-13.87187 79.17912,-13.87187v26.58772c0,0 -3.83821,13.87187 -79.17912,13.87187c-37.58189,0 -58.98571,-34.67963 -58.98571,-34.67963z" fill="url(#color-11)"/></g><g data-paper-data="{&quot;index&quot;:null}" stroke-width="0"><path d="M357.6223,554.61974c-99.89886,0 -104.98819,-16.9109 -104.98819,-16.9109v-32.41245c0,0 5.0893,16.9109 104.98819,16.9109c49.83207,0 78.21255,-42.2771 78.21255,-42.2771v32.41245c0,0 -28.38051,42.2771 -78.21255,42.2771z" fill="url(#color-12)"/><path d="M357.6223,601.12463c-99.89886,0 -104.98819,-16.9109 -104.98819,-16.9109v-32.41245c0,0 5.0893,16.9109 104.98819,16.9109c49.83207,0 78.21255,-42.2771 78.21255,-42.2771v32.41245c0,0 -28.38051,42.2771 -78.21255,42.2771z" fill="url(#color-13)"/><path d="M357.12858,646.22016c-96.21515,0 -101.1168,-16.9109 -101.1168,-16.9109v-32.41245c0,0 4.90163,16.9109 101.1168,16.9109c47.99457,0 75.32857,-42.2771 75.32857,-42.2771v32.41245c0,0 -27.33403,42.2771 -75.32857,42.2771z" fill="url(#color-14)"/><path d="M351.80229,689.34728c-90.0757,0 -94.66451,-16.9109 -94.66451,-16.9109v-32.41245c0,0 4.58884,16.9109 94.66451,16.9109c44.93201,0 70.52182,-42.2771 70.52182,-42.2771v32.41245c0,0 -25.58983,42.2771 -70.52182,42.2771z" fill="url(#color-15)"/><path d="M338.56864,729.5212c-75.34093,0 -79.17912,-13.87187 -79.17912,-13.87187v-26.58772c0,0 3.83824,13.87187 79.17912,13.87187c37.58189,0 58.98571,-34.67963 58.98571,-34.67963v26.58772c0,0 -21.40375,34.67963 -58.98571,34.67963z" fill="url(#color-16)"/></g><path d="M16.57095,472.04893v-25.89562h449.23319v25.89562z" fill="url(#color-17)" stroke-width="0"/><path d="M195.23984,923.61957v-172.22383h91.89553v172.22383z" fill="url(#color-18)" stroke-width="0"/></g><path d="M485.72164,459.09601c0.00283,13.39271 -11.181,24.25177 -24.97941,24.25462c-13.79854,0.00287 -24.98649,-10.85181 -24.98911,-24.24449c-0.00271,-13.39267 11.181,-24.25158 24.97951,-24.25443c13.79854,-0.00287 24.98649,10.85174 24.98918,24.24441z" fill="url(#color-19)" stroke-width="0"/><path d="M46.62165,459.09601c0.00283,13.39271 -11.181,24.25177 -24.97941,24.25462c-13.79854,0.00287 -24.98649,-10.85181 -24.98911,-24.24449c-0.00271,-13.39267 11.181,-24.25158 24.97951,-24.25443c13.79854,-0.00287 24.98649,10.85174 24.98918,24.24441z" fill="url(#color-20)" stroke-width="0"/></g><g><g><path d="M350.88813,401.3258c-3.4152,5.01326 -8.42851,1.59816 -8.42851,1.59816l-2.42912,-2.30128c-4.24156,-1.08684 -9.36008,-0.4585 -12.72477,-3.26048c-7.48095,-6.22998 -0.15225,-16.49776 -5.39137,-23.45691c-3.44054,-4.57011 -9.49631,-7.03211 -11.80364,-12.59003c-4.14677,-9.98893 6.36006,-23.78208 0.58828,-33.19214c-1.98424,-3.23502 -9.4936,-8.58881 -12.64087,-10.98884c0,0 -4.81616,-3.68801 -1.12812,-8.50417c3.68801,-4.81616 8.50417,-1.12812 8.50417,-1.12812c11.99204,9.21732 19.67502,16.75831 18.14937,32.77731c-0.52634,5.52632 -4.56609,11.47521 -2.21835,16.50572c2.05241,4.3977 7.76701,6.08921 10.46166,10.12547c6.73706,10.09115 -1.95799,21.4921 10.31778,21.76579l7.14527,4.22102c0,0 5.01326,3.4152 1.59816,8.42851z" fill="url(#color-21)" stroke="none" stroke-width="0.5"/><path d="M54.11963,47.9605c0.06071,-6.0657 6.12642,-6.00499 6.12642,-6.00499l4.8194,0.04824c5.03105,0.05036 10.14913,1.16755 15.09219,0.22939c11.35152,-2.15445 21.23057,-10.95819 33.21412,-10.99221c30.64054,-0.08705 58.83237,20.34293 63.33493,50.82773c0,0 0.79774,6.01336 -5.21561,6.81105c-6.01336,0.79774 -6.81105,-5.21561 -6.81105,-5.21561c-2.85954,-25.28066 -27.3234,-39.59561 -51.42968,-40.29171c-6.82274,-0.19705 -14.11183,5.04105 -20.24493,7.36867c-10.36217,3.93266 -17.27943,3.50208 -28.06142,3.39417l-4.8194,-0.04824c0,0 -6.0657,-0.06071 -6.00499,-6.12642z" fill="url(#color-22)" stroke="none" stroke-width="0.5"/><path d="M393.26386,72.37649c1.41225,5.89937 -4.48707,7.3116 -4.48707,7.3116l-7.17328,1.6705c-9.79497,-0.48719 -13.8464,9.50572 -24.20454,7.77024c-3.31141,-0.5548 -5.55152,-3.9191 -8.70889,-5.0611c-3.5495,-1.28381 -21.81377,-1.98396 -24.98695,-0.48621c-5.43278,2.5643 -8.28449,8.7501 -12.951,12.53355c-6.26726,5.08132 -13.39057,9.10038 -20.63518,12.65194c0,0 -5.4525,2.65837 -8.11087,-2.79413c-2.65837,-5.4525 2.79413,-8.11087 2.79413,-8.11087c12.76464,-6.18559 22.19162,-20.31296 34.39963,-25.54582c11.94087,-5.11841 29.72693,1.20607 40.10478,4.83115c4.04832,1.41416 14.19354,-7.71703 20.93713,-7.84414l5.71054,-1.41381c0,0 5.89937,-1.41225 7.3116,4.48707z" fill="url(#color-23)" stroke="none" stroke-width="0.5"/><path d="M335.66184,101.1868c-3.83665,4.69858 -8.53529,0.862 -8.53529,0.862l-1.69106,-2.09301c-2.63338,-0.70787 -8.75718,-4.38342 -14.08138,-6.72735c0.50958,3.53782 -2.83607,5.72025 -2.83607,5.72025c-9.72265,6.30506 -15.72223,12.09905 -26.62735,16.71177c-1.90853,0.80733 -4.24772,1.55412 -6.78517,2.32218c-6.14969,5.17286 -12.56715,10.01949 -19.32679,14.30043c-2.08395,1.31982 -4.6936,2.90081 -7.48028,4.40848c-2.62654,9.64224 -0.5489,21.85028 -0.63808,30.75871c-0.01631,1.62833 -0.05131,3.22071 -0.10697,4.78156c3.09182,2.29193 4.5104,5.60831 8.18902,7.75389c6.72956,3.92512 20.78037,5.87969 28.27627,6.79606c3.29566,0.4029 7.02839,0.1709 10.84771,-0.11436c-1.59755,-7.56924 -4.30205,-15.26253 -5.21918,-20.94814c-1.69563,-10.5122 2.44941,-16.62605 6.34005,-26.06457c11.37041,-22.20262 21.74293,-31.57597 47.76293,-31.31553l0.80599,0.00807c0,0 6.0657,0.06071 6.00499,6.12642c-0.06071,6.0657 -6.12642,6.00499 -6.12642,6.00499l-0.80599,-0.00807c-21.30606,-0.21326 -27.3199,6.12838 -36.62445,24.2645c-1.90174,4.62604 -5.17132,8.78816 -6.12488,13.69809c-1.75132,9.01771 2.37802,18.40674 5.23168,27.79374c2.17137,0.10592 4.25065,0.39666 6.16381,0.99497c12.45628,3.89529 18.31067,18.73623 31.77066,23.87701c0,0 5.6582,2.18665 3.47155,7.84483c-2.18665,5.6582 -7.84487,3.47151 -7.84487,3.47151c-9.22908,-3.60238 -17.46139,-8.06094 -24.11094,-15.71016c-2.40487,-2.76639 -2.38737,-6.94452 -6.5175,-7.78939c-0.16957,-0.03464 -0.33916,-0.06865 -0.50883,-0.102c0.08125,2.77645 -0.2361,5.5378 -1.14196,8.2742c-6.76927,20.44856 -30.14359,24.46309 -47.81183,29.16372c-1.98736,0.52874 -4.04003,1.09231 -6.1345,1.59828c1.09938,1.57172 2.12651,3.27463 3.08373,5.20161c8.82395,4.26717 17.80294,8.65725 25.44242,16.39619c19.35452,19.60659 24.87989,44.75186 31.56267,70.81993c0,0 1.50426,5.87655 -4.37233,7.38079c-5.8766,1.50426 -7.38084,-4.37233 -7.38084,-4.37233c-6.10755,-23.89739 -10.80273,-47.16497 -28.33704,-65.19893c-3.25493,-3.34765 -7.83417,-6.92459 -12.49849,-10.06979c3.92388,16.4055 8.58103,34.07635 7.04825,50.45403c-0.42295,4.51893 -1.78441,16.15507 -6.08956,19.98516c-4.92684,4.38315 -9.6393,4.06003 -14.5565,3.61736c-2.59115,14.36477 -7.87232,29.90142 -11.76819,40.52404c0,0 -2.09728,5.69195 -7.78926,3.59465c-5.69195,-2.09728 -3.59461,-7.78927 -3.59461,-7.78927c4.16771,-11.25407 5.81803,-22.50543 8.112,-33.97354c-9.10901,5.47703 -13.67182,18.30413 -14.85769,27.83206c0,0 -0.81263,6.01136 -6.82396,5.19876c-6.01132,-0.81264 -5.19876,-6.82396 -5.19876,-6.82396c2.40348,-16.75535 11.6219,-36.33688 30.01735,-40.31813c0.07576,-0.01635 0.15833,-0.03048 0.2473,-0.04242c1.19014,-4.6296 2.17765,-10.19896 0.06286,-13.58151c-3.70744,-5.92994 -10.16731,-9.9953 -13.23288,-16.28108c-7.12341,-14.60594 -6.24667,-35.07059 -2.32701,-52.73054c-6.59173,6.72681 -13.26964,13.35616 -17.68032,21.62276c-3.92329,7.35312 -8.5978,16.63338 -11.08218,24.57816c-2.34071,7.48558 -2.06971,19.09189 -8.22748,25.05799c-6.15745,5.96581 -17.61466,5.59886 -25.30291,5.55388l-5.06927,-2.63361c0,0 -4.24619,-4.33205 0.08587,-8.57826c2.92819,-2.87015 5.81716,-1.82098 7.38206,-0.83961c4.45009,0.1802 11.86826,0.40778 14.41182,-2.16656c3.68695,-3.73143 3.69963,-15.47624 5.1201,-19.94819c2.71153,-8.53662 7.69886,-18.86891 12.00178,-26.77908c6.05347,-11.12826 15.78341,-19.20339 24.10446,-28.48059c-0.12473,-0.39634 -0.20202,-0.79006 -0.24619,-1.16454c-2.62922,-0.41447 -5.36548,-0.63839 -7.77506,-1.59686c-2.05815,-4.32776 -3.59376,-8.73313 -4.73026,-13.19789c-2.64378,2.66399 -5.57917,5.10701 -8.58497,8.05371c-16.72965,16.40059 -45.86014,38.24887 -70.20066,34.02505c0,0 -5.95705,-1.14484 -4.81221,-7.10184c1.14477,-5.95699 7.10184,-4.81221 7.10184,-4.81221c19.27577,4.21218 46.3943,-18.01073 59.41868,-30.77512c4.73131,-4.63684 10.85164,-8.2125 13.2742,-14.65838c0.40009,-1.06456 0.75471,-2.13443 1.07071,-3.20882c-0.25179,-4.12245 -0.31727,-8.27283 -0.28584,-12.43807c-23.29225,-5.61345 -54.75351,-16.43661 -71.57896,6.22229l-0.74123,3.10754c0,0 -1.97576,5.73528 -7.71103,3.75949c-5.73528,-1.97576 -3.75949,-7.71103 -3.75949,-7.71103l2.57952,-6.53203c20.90248,-26.67195 53.32686,-17.73873 81.50076,-11.18931c0.44013,-13.57764 0.97347,-27.17481 -1.45937,-40.34126c-2.91598,-15.78109 -25.89286,-33.4515 -38.77966,-41.64306c0,0 -5.11157,-3.26629 -1.84524,-8.37781c3.26631,-5.11157 8.37787,-1.84524 8.37787,-1.84524c16.13421,10.35798 40.01888,29.87264 44.13945,49.46655c1.1038,5.24897 1.29911,10.70528 1.09121,16.2498c0.8584,-1.89746 1.66577,-3.42286 2.21806,-3.88473c5.15093,-4.30824 12.76456,-4.31843 19.36566,-5.55075c1.57841,-0.29463 3.20319,-0.77821 4.85278,-1.40957c1.08562,-2.70496 2.56911,-5.2816 4.59106,-7.66997c6.16193,-7.27864 16.52726,-10.37613 25.95136,-13.44152c9.31866,-9.07238 19.14877,-23.30415 30.38031,-27.38389c10.3899,-3.77404 19.74868,5.85209 29.15209,8.20521l6.30423,4.43556c0,0 4.69862,3.83664 0.86199,8.53523zM222.78856,144.03782c-2.72328,2.309 -2.35667,6.74195 -3.64369,10.0723c-2.14419,4.73037 -3.10245,9.74032 -3.68306,14.86133c6.59373,0.57858 13.44081,-0.33011 19.94557,-0.00317c0.11225,-3.10791 0.16865,-6.32821 0.2024,-9.69918c0.05639,-5.63288 -0.26686,-11.58913 0.10172,-17.41114c-5.8901,1.231 -7.78432,-2.17711 -12.92302,2.17988zM258.25321,193.5543c-4.88453,-1.45605 -8.3287,-4.95373 -11.83225,-7.82728c-1.25368,8.91753 -3.55794,17.12174 -7.38422,25.74504l0.39372,0.25237c-0.52095,2.60131 -1.04187,5.20253 -1.56276,7.80386c0.74223,1.47281 1.51223,2.93125 2.59186,4.07959c1.32727,1.4117 2.59891,2.706 3.81629,3.93711c16.55559,0.3741 39.49698,-8.69222 48.50365,-19.77785c2.29649,-2.82663 3.21331,-6.44094 3.30066,-10.43753c-12.52662,-0.76279 -25.27786,-0.03423 -37.82698,-3.77516zM215.10881,193.78967c0.78926,6.84812 -0.44391,12.93693 1.11413,19.66421c1.72907,0.39032 3.57808,0.4907 5.40333,0.64153l0.36247,-0.45432c0.1261,-0.00125 0.25271,-0.00456 0.37973,-0.00971c-0.41146,-1.16204 -0.44798,-2.62052 0.33458,-4.39721c1.39945,-3.17725 3.81643,-3.73503 5.62777,-3.63109c3.52174,-8.38734 5.32564,-16.33335 6.26261,-24.81772c-6.366,-0.6967 -13.37019,0.22711 -20.15361,-0.03972c-0.21927,2.41007 -0.48922,4.81652 -0.89064,7.20266c0.71573,1.90653 1.32826,3.83437 1.55955,5.84126zM234.73387,247.73926c-1.30727,-0.71167 -2.55141,-1.56551 -3.73993,-2.52574c-2.55783,13.91862 -2.81548,29.10441 2.51635,40.04498c5.49162,11.26841 13.51149,12.72453 15.0998,25.97924c0.35298,2.94593 0.38557,6.18191 0.16715,9.60404c2.11651,-0.08102 3.90531,-0.41718 4.83825,-1.2525c3.29031,-2.94591 2.78431,-15.77342 2.38908,-19.91495c-1.55625,-16.30659 -5.61074,-32.31041 -8.98384,-48.22387c-0.09621,-0.2822 -0.20437,-0.57745 -0.32382,-0.88425c-4.02274,-0.86091 -8.3756,-0.87393 -11.96304,-2.82701z" fill="url(#color-24)" stroke="none" stroke-width="0.5"/><path d="M186.42056,365.89202c-21.78653,-8.75486 -13.7731,-22.89561 -23.76973,-38.01533c-3.5945,-5.43665 -12.98661,-8.56607 -17.73519,-11.35664c-14.84142,-8.72174 -15.36148,-8.54737 -23.92621,-25.25422c-9.29019,-18.12199 1.52588,-34.34671 -8.05797,-49.92346c-10.39614,-14.17911 -20.87716,-46.02563 -12.88752,-64.10452c0.5879,-1.33032 16.36158,-12.52083 17.46134,-17.83911c1.62789,-7.8725 -4.42834,-15.79883 -3.81103,-23.8142c1.46193,-18.98182 15.78803,-35.49018 24.54359,-50.71767c4.16653,-7.24628 2.38592,-17.015 6.72996,-24.15627c4.24483,-6.97813 14.16164,-11.48138 17.78745,-19.38005c2.35424,-5.12863 1.00032,-12.058 4.79255,-16.23697c12.77443,-14.0768 43.19756,-14.80181 60.10984,-12.98071c9.60163,-1.28271 19.38995,0.23669 29.04111,1.06778c22.87209,1.9696 40.34782,-10.65473 61.87713,4.26234c11.28595,7.81974 19.53844,20.96291 17.71619,35.46003c-0.49926,3.97159 -6.71423,4.97573 -8.35241,8.628c-1.96055,4.37092 7.02989,6.50956 10.54984,9.75894c7.88265,7.27678 14.10162,17.19519 16.44741,27.66347c3.70037,16.51324 7.14851,42.50701 4.43914,59.21947c-0.65726,4.05406 -4.15928,7.38026 -4.48969,11.47397c-0.36608,4.53602 12.59079,16.18928 12.63163,16.27404c3.41756,7.09334 4.18323,15.18158 6.27484,22.77237c-4.27139,3.45785 -9.22492,6.21196 -12.81408,10.37352c-9.36249,10.85544 0.73095,33.33701 -1.64642,45.58544c-2.20902,11.38131 -10.29819,23.80689 -18.32728,31.67195c-5.07148,4.96783 -12.92882,7.96732 -15.53227,14.57193c-6.4386,16.33392 0.80289,30.60449 -13.74686,44.99217c-5.3678,5.30799 -22.70617,12.92152 -34.70243,16.22638c-2.69281,3.49509 -6.97282,4.64317 -6.97282,4.64317c-12.15388,3.12363 -29.31598,16.8487 -42.18451,13.07593c-7.82057,-2.29283 -11.45982,-10.84081 -15.95437,-18.24566c-2.6264,0.51249 -5.17961,0.97497 -7.60474,1.3111l-4.8069,0.66615c0,0 -10.1347,1.40457 -13.07976,-7.67315zM220.908,345.33014c7.10731,-1.24443 14.23415,-2.20179 20.6942,-1.89922c8.95838,0.41952 17.24805,5.89663 26.21489,6.05282c6.78121,0.1181 12.57852,-5.9302 17.98013,-8.46725c3.05969,-1.43708 6.98388,-1.0412 9.64916,-3.12045c7.05731,-5.50579 4.23535,-28.6994 7.64013,-36.35911c7.71074,-17.34676 20.10576,-18.11607 28.903,-32.97142c11.7738,-19.88159 -12.3043,-58.75212 18.79225,-67.56825c-10.79803,-5.78677 -19.37743,-18.09405 -20.14952,-30.66196c-0.34011,-5.53601 3.83836,-10.47255 4.77568,-15.93922c1.99049,-11.60877 -1.79089,-27.53005 -2.67565,-39.21697c-0.04766,-0.62964 -2.26984,-18.23461 -3.42459,-20.10011c-4.30893,-6.96118 -14.25735,-9.26815 -18.28828,-16.39392c-3.70055,-6.54169 -7.36436,-13.94114 -6.96091,-21.44617c0.23748,-4.41702 6.78299,-6.05169 8.65449,-10.05964c1.81539,-3.88763 -4.66038,-7.4803 -8.17308,-9.94404c-10.62904,-7.45484 -21.33826,-1.14892 -33.15115,-0.26512c-15.38084,1.15072 -28.22136,-2.77548 -43.3615,-0.59587c-13.72501,-1.47796 -21.78668,-0.05355 -35.01802,3.10359c-2.30233,0.54939 -5.63942,-0.62222 -6.97475,1.33212c-2.0322,2.97428 0.25579,7.46806 -1.26819,10.7321c-4.06031,8.69597 -13.7797,13.58213 -18.98681,21.64396c-4.37702,6.77653 -2.46112,16.26656 -6.27991,23.37267c-6.20134,11.5399 -21.1634,26.26732 -21.59185,40.59567c-0.29562,9.88791 6.10104,16.89669 3.2949,27.45919c-1.81461,6.83015 -6.44551,12.71335 -10.96866,18.14331c-2.07993,2.49693 -6.69606,2.24088 -8.34436,5.04155c-1.1795,2.0041 0.98319,4.54819 1.34895,6.84469c2.2591,14.1855 0.81042,22.30776 10.03331,33.46975c2.77215,5.47362 7.04695,10.41805 8.31634,16.42088c3.09454,14.63455 -6.07523,22.1754 1.04213,35.75827c9.25468,17.66169 28.59574,17.51929 39.9425,33.73311c3.20666,4.58215 4.71571,10.16521 6.52724,15.45642c1.53239,4.47576 0.08664,13.00464 4.80446,13.35442c8.93619,0.66252 19.36782,-1.79022 27.00368,2.49439z" fill="url(#color-25)" stroke="none" stroke-width="0.5"/><g stroke="none" stroke-width="0.5"><path d="M107.08912,191.87801c0.0637,-6.3647 5.6371,-7.10835 7.03598,-7.19476c4.38482,-1.28397 16.23787,-4.78346 18.35904,-4.6809c14.61245,0.70656 26.74244,11.56634 39.42128,17.04382c9.96174,3.51492 20.22282,4.23982 30.61087,3.66706c-0.06908,-0.28923 -0.13815,-0.57846 -0.20706,-0.86772c-3.14187,-2.02228 -6.22283,-4.05476 -9.23396,-6.05435c-3.70203,-3.64435 -8.29852,-6.56221 -11.10608,-10.93307c-8.91587,-13.88064 -4.28354,-33.19914 -11.28534,-48.62453c-4.23638,-9.33298 -13.54704,-16.28402 -22.06213,-21.43517l-4.34131,-2.20112c0,0 -6.47783,-3.32035 -3.15744,-9.79823c3.32035,-6.47783 9.79823,-3.15744 9.79823,-3.15744l5.31532,2.74862c15.69625,9.74723 25.96119,21.17539 31.86319,38.96303c5.18899,15.63871 0.83088,27.33795 10.5214,39.28752c-1.66869,-19.00232 0.30428,-38.94509 0.57866,-57.82789c0.17756,-12.22298 9.6195,-25.26775 7.03667,-37.08159c-4.37562,-20.01387 -18.70367,-30.22601 1.20642,-47.62975c0,0 5.5739,-4.68172 10.25564,0.89226c4.68172,5.5739 -0.89226,10.25564 -0.89226,10.25564c-15.02313,11.85623 6.10131,30.78538 3.57358,47.53775c-1.04319,6.91399 -5.34845,13.02763 -6.62989,19.90141c-4.67921,25.09947 -1.12391,51.59002 2.86046,77.04477c0.09763,0.06048 0.19524,0.12089 0.29296,0.18136c2.60421,-6.56743 6.82996,-12.44241 11.39498,-17.72128c0.12236,-0.1033 0.29628,-0.2509 0.51389,-0.43576c6.36422,-18.68101 11.31375,-37.41021 6.2856,-57.94114c-3.09475,-12.63641 -9.91932,-27.0458 -5.05922,-40.89825c3.31023,-9.43496 15.03062,-14.5249 22.77516,-18.91063c7.96959,-4.51317 15.53873,-9.34151 23.43899,-13.71431c-0.34831,-1.12781 -0.41073,-2.50223 0.02349,-4.16787c1.83603,-7.04385 8.87995,-5.20783 8.87995,-5.20783l4.20228,2.85513c0.64893,-0.25915 6.78,-2.50886 9.51491,3.81441c2.04855,4.73631 -0.71286,7.56723 -2.49405,8.814c0.46902,2.7223 0.43787,5.56501 -0.57492,9.06017c-3.92991,13.56226 -18.36847,19.99241 -20.33618,35.01129c-2.55417,19.49523 4.95266,38.61666 8.66456,57.77638c6.72927,-7.56852 12.15501,-16.47256 21.22097,-21.65884c8.57361,-4.90463 17.0097,-4.91324 26.46719,-4.83229l0.80877,0.00809c0,0 7.27886,0.07286 7.20601,7.35172c-0.07286,7.27886 -7.35172,7.20601 -7.35172,7.20601l-0.80877,-0.00809c-23.40594,-0.27215 -29.08027,17.08409 -45.59835,29.46269c0.00166,0.27226 0.00164,0.54462 0.00003,0.81696c-0.12822,9.35972 -3.00637,18.10414 -6.30998,26.73296c0.18686,0.04152 0.37356,0.08384 0.56023,0.12707c28.52328,6.60511 35.05212,45.58294 57.44283,60.61747c0,0 6.016,4.0982 1.91777,10.1142c-4.0982,6.016 -10.1142,1.91777 -10.1142,1.91777c-9.33409,-6.43377 -19.43537,-15.30058 -25.37276,-25.15371c-6.209,-10.3039 -12.94324,-30.54507 -27.61185,-33.42536c-0.70615,-0.13868 -1.41961,-0.25613 -2.13957,-0.35405c-0.65791,1.83997 -1.27869,3.68685 -1.83999,5.54544c14.51677,11.119 16.65365,26.829 27.85563,39.89384c14.08633,16.4289 24.93662,22.53219 24.73056,46.21757c0,0 -0.07286,7.27886 -7.35172,7.20601c-7.27886,-0.07286 -7.20601,-7.35172 -7.20601,-7.35172c0.22609,-19.73353 -9.48814,-22.67256 -21.352,-36.74578c-8.4315,-10.00167 -11.58864,-21.87 -19.51607,-31.6038c0.01099,1.34014 0.08098,2.69248 0.21702,4.05852c1.29745,13.02958 1.7141,29.06424 5.72606,41.41836c5.10013,15.7047 15.53707,26.00435 11.98288,43.96236c-2.77328,14.01243 -9.12553,24.96275 -16.8195,36.65953c0,0 -4.01543,6.07158 -10.08693,2.05612c-6.07158,-4.01543 -2.05612,-10.08693 -2.05612,-10.08693c6.6128,-9.93933 12.10704,-19.06653 14.59347,-30.96898c3.10226,-14.85032 -7.25838,-24.0037 -11.47049,-37.1568c-4.24205,-13.24656 -5.2014,-30.46 -6.35605,-44.44002c-0.40474,-4.9009 -0.06558,-9.58458 0.74728,-14.12649c-2.24079,-0.06207 -4.62602,0.06144 -7.46032,-0.75577c-4.12406,-1.18899 -8.22094,-2.66547 -12.27624,-4.35985c1.88621,15.38761 6.98705,30.02048 8.13287,46.90237c1.77341,26.12945 -10.14961,50.8751 -8.31355,77.27394c0.93382,1.10944 4.18032,5.61122 -0.33319,10.0353c-5.19845,5.09542 -10.29387,-0.10304 -10.29387,-0.10304l-3.64528,-5.99775c-2.74066,-27.53509 10.19647,-53.41289 8.05943,-80.24371c-0.96694,-12.14006 -3.55682,-23.07674 -5.65168,-33.92771c-0.8364,3.79292 -1.94949,7.52055 -3.56498,11.11578c-0.67325,8.00026 -2.41587,15.88134 -6.0369,23.52833c-3.76053,7.94152 -8.27207,13.90361 -10.17412,23.09653c-4.135,19.98488 10.92551,43.52683 10.77264,64.45814l-0.01618,1.61753c0,0 -0.07286,7.27886 -7.35172,7.20601c-7.27886,-0.07286 -7.20601,-7.35172 -7.20601,-7.35172l0.01618,-1.61753c0.29693,-22.56204 -14.91005,-44.61947 -10.5613,-66.78815c1.5229,-7.76328 4.70028,-14.01535 8.04686,-20.41092c-5.77477,3.58025 -11.99942,6.23559 -17.75349,6.88013c-2.11369,0.23675 -13.41976,-1.70098 -16.07754,-1.73824c-11.66887,-0.16348 -23.07238,3.97306 -33.07992,9.31387c0,0 -6.44338,3.38676 -9.83015,-3.05665c-3.38676,-6.44338 3.05665,-9.83015 3.05665,-9.83015c10.99879,-5.70676 19.25005,-8.21985 31.50535,-10.16687c8.08237,-1.28412 15.31137,1.62068 23.03692,0.98596c8.37771,-0.6883 19.28769,-9.88137 24.54495,-15.88822c1.11805,-1.27739 2.09648,-2.57658 2.95463,-3.89588c0.41119,-8.08259 -0.43655,-16.31276 -1.15863,-24.37202c-0.01714,-0.12005 -0.03452,-0.23998 -0.05213,-0.35982c-13.50097,0.34124 -27.07176,-0.64038 -38.94054,-4.65696c-10.38062,-4.64254 -22.80664,-15.32 -34.6611,-16.05141c-5.11668,-0.31569 -9.8114,2.97719 -14.736,4.40136l-2.90341,0.27795c0,0 -7.27886,-0.07286 -7.20601,-7.35172zM260.07451,177.2324c-4.14989,0.02691 -8.66137,-2.46719 -12.42866,-0.72661c-2.54664,1.17664 -4.44681,3.33115 -6.40481,5.4108c-1.30805,3.95987 -2.71129,8.02265 -4.1787,12.26027c-0.12592,0.66042 -0.24132,1.31732 -0.3468,1.97094c9.89555,-1.5406 19.73651,-2.78659 29.37679,-2.47424c2.06653,-5.68007 3.8719,-11.41609 4.78804,-17.38321c-2.73853,0.74891 -5.76141,0.90941 -10.80585,0.9421zM259.87665,210.31535c0.1251,-0.36298 0.25163,-0.72551 0.37937,-1.08761c-1.34049,0.14225 -2.68483,0.31168 -4.02848,0.49932c1.20569,0.21847 2.42838,0.4014 3.64904,0.58825zM267.03804,162.24854c1.47116,-0.46557 2.85556,-1.01984 4.16578,-1.64995c-2.10476,-23.18888 -13.68994,-46.14864 -10.18347,-69.91788c1.88125,-12.75234 13.08037,-22.44563 17.6565,-33.06188c-6.22495,3.61769 -12.31107,7.45339 -18.6822,11.0531c-3.74077,2.11354 -14.89956,6.2211 -16.35306,11.43378c-4.02093,14.41966 5.55576,30.76237 6.45762,44.75939c0.89257,13.85305 -0.41995,25.54887 -3.086,37.05107c6.77311,-0.55306 13.31646,2.45516 20.02488,0.33235z" fill="url(#color-26)"/><path d="M193.87871,30.33596c2.72524,-8.47773 11.51235,-6.97418 11.51235,-6.97418l4.1677,0.71309c2.10265,0.35979 4.31439,0.84062 6.58888,1.36987c4.04237,-6.87753 7.36164,-14.8448 14.20353,-16.85791c11.25804,-3.31249 25.93262,9.89688 36.44437,13.05253c0,0 3.70082,1.15642 5.9791,4.48981c10.3714,3.32305 25.31002,10.7922 29.8814,15.87771c12.39101,13.78471 5.83581,27.06469 11.13864,42.53157c2.1442,6.25406 8.92213,9.21518 13.24208,13.97568c6.83915,7.53679 13.64797,19.36069 15.36271,30.09655c1.84534,11.5539 -7.33851,32.49876 0.60594,42.87002c3.04559,3.976 7.30302,6.65389 10.95456,9.98089c-1.95624,7.0958 -2.76845,14.68308 -5.86868,21.28737c-0.03704,0.07887 -11.51465,10.79568 -11.27847,15.06522c0.21316,3.85318 3.19804,7.04245 3.69615,10.8643c2.0532,15.75511 -1.41592,40.12103 -4.93264,55.57282c-2.22937,9.79533 -7.81662,19.00387 -14.80272,25.69962c-3.11958,2.98995 -10.97591,4.83702 -9.35031,8.98018c1.3583,3.46204 6.74433,4.51819 7.10646,8.25973c1.32198,13.65708 -6.09197,25.85928 -16.04723,33.00369c-18.99087,13.6288 -33.95811,1.44818 -53.88198,2.88498c-8.40716,0.60624 -16.94605,1.85684 -25.27182,0.47747c-14.73894,1.40519 -41.18004,0.17278 -52.03298,-13.28767c-3.22184,-3.99598 -1.91904,-10.48356 -3.87328,-15.34595c-3.00976,-7.48866 -11.55124,-11.90032 -15.11596,-18.5351c-3.64799,-6.78993 -1.92275,-15.93808 -5.41447,-22.82346c-7.33759,-14.46908 -19.49575,-30.24275 -20.42316,-48.10792c-0.39159,-7.54384 5.01811,-14.88307 3.74519,-22.31102c-0.85996,-5.01795 -14.37315,-15.82026 -14.86029,-17.08109c-6.61998,-17.13487 3.0706,-46.87369 12.36731,-60.01063c8.61568,-14.46507 -0.49553,-29.90868 7.91094,-46.77107c7.75004,-15.54562 8.19905,-15.37239 21.26227,-23.30005c4.17961,-2.53649 12.40317,-5.30734 15.62721,-10.3515c8.96634,-14.0281 2.2544,-27.46244 21.35728,-35.29547zM223.4947,50.28409c-6.71729,3.8883 -15.74371,1.39428 -23.52608,1.85508c-4.10871,0.24333 -3.00603,8.2847 -4.41958,12.46319c-1.67104,4.93972 -3.08431,10.15921 -5.95565,14.40739c-10.16015,15.03193 -26.97548,14.54779 -35.3427,30.97824c-6.43486,12.63596 1.40208,19.88884 -1.55386,33.58599c-1.21247,5.61835 -5.01919,10.18758 -7.52885,15.28133c-8.22183,10.32277 -7.10928,17.98215 -9.33058,31.27244c-0.3596,2.15159 -2.28628,4.50322 -1.2969,6.40803c1.38254,2.66187 5.40109,2.50485 7.16446,4.88905c3.83474,5.18487 7.75497,10.79774 9.20916,17.24938c2.24879,9.97727 -3.4403,16.44812 -3.3624,25.74591c0.11304,13.47323 12.85644,27.58473 18.03975,38.542c3.1919,6.74736 1.35405,15.6312 5.03737,22.07889c4.38179,7.67066 12.74481,12.43857 16.1179,20.68439c1.26605,3.09504 -0.80487,7.27677 0.90836,10.10876c1.12569,1.86081 4.04873,0.82022 6.04075,1.37827c11.44805,3.20665 18.43219,4.69129 30.39344,3.55092c13.1255,2.32259 24.36204,-1.13463 37.71547,0.22536c10.25581,1.04448 19.45377,7.1647 28.83122,0.35129c3.09909,-2.25174 8.79509,-5.51082 7.28691,-9.19719c-1.55478,-3.80048 -7.21679,-5.4552 -7.3433,-9.61056c-0.21486,-7.06038 3.10505,-13.94789 6.44127,-20.02855c3.63414,-6.62364 12.3265,-8.61148 16.19938,-15.07548c1.03787,-1.73224 3.28904,-18.23677 3.34186,-18.82758c0.98105,-10.96708 4.55746,-25.86114 3.03686,-36.80686c-0.71606,-5.15443 -4.25999,-9.86936 -3.864,-15.06583c0.89897,-11.79706 8.58207,-23.20785 18.07624,-28.4505c-26.88015,-8.84843 -5.23916,-44.94201 -15.11692,-63.83958c-7.38057,-14.12004 -18.14465,-15.06757 -24.53528,-31.5093c-2.82185,-7.26005 0.05202,-29.00587 -5.98485,-34.30792c-2.27991,-2.00234 -5.69933,-1.70137 -8.33382,-3.10733c-4.65098,-2.48204 -9.58244,-8.27113 -15.48111,-8.28296c-7.79987,-0.01565 -15.10731,4.98151 -22.90464,5.21356c-5.62276,0.16735 -11.80252,-0.86148 -17.96007,-2.15967z" data-paper-data="{&quot;index&quot;:null}" fill="url(#color-27)"/></g><path d="M193.87871,30.33596c2.72524,-8.47773 11.51235,-6.97418 11.51235,-6.97418l4.1677,0.71309c2.10265,0.35979 4.31439,0.84062 6.58888,1.36987c4.04237,-6.87753 7.36164,-14.8448 14.20353,-16.85791c11.25804,-3.31249 25.93262,9.89688 36.44437,13.05253c0,0 3.70082,1.15642 5.9791,4.48981c10.3714,3.32305 25.31002,10.7922 29.8814,15.87771c12.39101,13.78471 5.83581,27.06469 11.13864,42.53157c2.1442,6.25406 8.92213,9.21518 13.24208,13.97568c6.83915,7.53679 13.64797,19.36069 15.36271,30.09655c1.84534,11.5539 -7.33851,32.49876 0.60594,42.87002c3.04559,3.976 7.30302,6.65389 10.95456,9.98089c-1.95624,7.0958 -2.76845,14.68308 -5.86868,21.28737c-0.03704,0.07887 -11.51465,10.79568 -11.27847,15.06522c0.21316,3.85318 3.19804,7.04245 3.69615,10.8643c2.0532,15.75511 -1.41592,40.12103 -4.93264,55.57282c-2.22937,9.79533 -7.81662,19.00387 -14.80272,25.69962c-3.11958,2.98995 -10.97591,4.83702 -9.35031,8.98018c1.3583,3.46204 6.74433,4.51819 7.10646,8.25973c1.32198,13.65708 -6.09197,25.85928 -16.04723,33.00369c-18.99087,13.6288 -33.95811,1.44818 -53.88198,2.88498c-8.40716,0.60624 -16.94605,1.85684 -25.27182,0.47747c-14.73894,1.40519 -41.18004,0.17278 -52.03298,-13.28767c-3.22184,-3.99598 -1.91904,-10.48356 -3.87328,-15.34595c-3.00976,-7.48866 -11.55124,-11.90032 -15.11596,-18.5351c-3.64799,-6.78993 -1.92275,-15.93808 -5.41447,-22.82346c-7.33759,-14.46908 -19.49575,-30.24275 -20.42316,-48.10792c-0.39159,-7.54384 5.01811,-14.88307 3.74519,-22.31102c-0.85996,-5.01795 -14.37315,-15.82026 -14.86029,-17.08109c-6.61998,-17.13487 3.0706,-46.87369 12.36731,-60.01063c8.61568,-14.46507 -0.49553,-29.90868 7.91094,-46.77107c7.75004,-15.54562 8.19905,-15.37239 21.26227,-23.30005c4.17961,-2.53649 12.40317,-5.30734 15.62721,-10.3515c8.96634,-14.0281 2.2544,-27.46244 21.35728,-35.29547zM223.4947,50.28409c-6.71729,3.8883 -15.74371,1.39428 -23.52608,1.85508c-4.10871,0.24333 -3.00603,8.2847 -4.41958,12.46319c-1.67104,4.93972 -3.08431,10.15921 -5.95565,14.40739c-10.16015,15.03193 -26.97548,14.54779 -35.3427,30.97824c-6.43486,12.63596 1.40208,19.88884 -1.55386,33.58599c-1.21247,5.61835 -5.01919,10.18758 -7.52885,15.28133c-8.22183,10.32277 -7.10928,17.98215 -9.33058,31.27244c-0.3596,2.15159 -2.28628,4.50322 -1.2969,6.40803c1.38254,2.66187 5.40109,2.50485 7.16446,4.88905c3.83474,5.18487 7.75497,10.79774 9.20916,17.24938c2.24879,9.97727 -3.4403,16.44812 -3.3624,25.74591c0.11304,13.47323 12.85644,27.58473 18.03975,38.542c3.1919,6.74736 1.35405,15.6312 5.03737,22.07889c4.38179,7.67066 12.74481,12.43857 16.1179,20.68439c1.26605,3.09504 -0.80487,7.27677 0.90836,10.10876c1.12569,1.86081 4.04873,0.82022 6.04075,1.37827c11.44805,3.20665 18.43219,4.69129 30.39344,3.55092c13.1255,2.32259 24.36204,-1.13463 37.71547,0.22536c10.25581,1.04448 19.45377,7.1647 28.83122,0.35129c3.09909,-2.25174 8.79509,-5.51082 7.28691,-9.19719c-1.55478,-3.80048 -7.21679,-5.4552 -7.3433,-9.61056c-0.21486,-7.06038 3.10505,-13.94789 6.44127,-20.02855c3.63414,-6.62364 12.3265,-8.61148 16.19938,-15.07548c1.03787,-1.73224 3.28904,-18.23677 3.34186,-18.82758c0.98105,-10.96708 4.55746,-25.86114 3.03686,-36.80686c-0.71606,-5.15443 -4.25999,-9.86936 -3.864,-15.06583c0.89897,-11.79706 8.58207,-23.20785 18.07624,-28.4505c-26.88015,-8.84843 -5.23916,-44.94201 -15.11692,-63.83958c-7.38057,-14.12004 -18.14465,-15.06757 -24.53528,-31.5093c-2.82185,-7.26005 0.05202,-29.00587 -5.98485,-34.30792c-2.27991,-2.00234 -5.69933,-1.70137 -8.33382,-3.10733c-4.65098,-2.48204 -9.58244,-8.27113 -15.48111,-8.28296c-7.79987,-0.01565 -15.10731,4.98151 -22.90464,5.21356c-5.62276,0.16735 -11.80252,-0.86148 -17.96007,-2.15967z" data-paper-data="{&quot;index&quot;:null}" fill="url(#color-28)" stroke="none" stroke-width="0.5"/><path d="M186.42056,365.89202c-21.78653,-8.75486 -13.7731,-22.89561 -23.76973,-38.01533c-3.5945,-5.43665 -12.98661,-8.56607 -17.73519,-11.35664c-14.84142,-8.72174 -15.36148,-8.54737 -23.92621,-25.25422c-9.29019,-18.12199 1.52588,-34.34671 -8.05797,-49.92346c-10.39614,-14.17911 -20.87716,-46.02563 -12.88752,-64.10452c0.5879,-1.33032 16.36158,-12.52083 17.46134,-17.83911c1.62789,-7.8725 -4.42834,-15.79883 -3.81103,-23.8142c1.46193,-18.98182 15.78803,-35.49018 24.54359,-50.71767c4.16653,-7.24628 2.38592,-17.015 6.72996,-24.15627c4.24483,-6.97813 14.16164,-11.48138 17.78745,-19.38005c2.35424,-5.12863 1.00032,-12.058 4.79255,-16.23697c12.77443,-14.0768 43.19756,-14.80181 60.10984,-12.98071c9.60163,-1.28271 19.38995,0.23669 29.04111,1.06778c22.87209,1.9696 40.34782,-10.65473 61.87713,4.26234c11.28595,7.81974 19.53844,20.96291 17.71619,35.46003c-0.49926,3.97159 -6.71423,4.97573 -8.35241,8.628c-1.96055,4.37092 7.02989,6.50956 10.54984,9.75894c7.88265,7.27678 14.10162,17.19519 16.44741,27.66347c3.70037,16.51324 7.14851,42.50701 4.43914,59.21947c-0.65726,4.05406 -4.15928,7.38026 -4.48969,11.47397c-0.36608,4.53602 12.59079,16.18928 12.63163,16.27404c3.41756,7.09334 4.18323,15.18158 6.27484,22.77237c-4.27139,3.45785 -9.22492,6.21196 -12.81408,10.37352c-9.36249,10.85544 0.73095,33.33701 -1.64642,45.58544c-2.20902,11.38131 -10.29819,23.80689 -18.32728,31.67195c-5.07148,4.96783 -12.92882,7.96732 -15.53227,14.57193c-6.4386,16.33392 0.80289,30.60449 -13.74686,44.99217c-5.3678,5.30799 -22.70617,12.92152 -34.70243,16.22638c-2.69281,3.49509 -6.97282,4.64317 -6.97282,4.64317c-12.15388,3.12363 -29.31598,16.8487 -42.18451,13.07593c-7.82057,-2.29283 -11.45982,-10.84081 -15.95437,-18.24566c-2.6264,0.51249 -5.17961,0.97497 -7.60474,1.3111l-4.8069,0.66615c0,0 -10.1347,1.40457 -13.07976,-7.67315zM220.908,345.33014c7.10731,-1.24443 14.23415,-2.20179 20.6942,-1.89922c8.95838,0.41952 17.24805,5.89663 26.21489,6.05282c6.78121,0.1181 12.57852,-5.9302 17.98013,-8.46725c3.05969,-1.43708 6.98388,-1.0412 9.64916,-3.12045c7.05731,-5.50579 4.23535,-28.6994 7.64013,-36.35911c7.71074,-17.34676 20.10576,-18.11607 28.903,-32.97142c11.7738,-19.88159 -12.3043,-58.75212 18.79225,-67.56825c-10.79803,-5.78677 -19.37743,-18.09405 -20.14952,-30.66196c-0.34011,-5.53601 3.83836,-10.47255 4.77568,-15.93922c1.99049,-11.60877 -1.79089,-27.53005 -2.67565,-39.21697c-0.04766,-0.62964 -2.26984,-18.23461 -3.42459,-20.10011c-4.30893,-6.96118 -14.25735,-9.26815 -18.28828,-16.39392c-3.70055,-6.54169 -7.36436,-13.94114 -6.96091,-21.44617c0.23748,-4.41702 6.78299,-6.05169 8.65449,-10.05964c1.81539,-3.88763 -4.66038,-7.4803 -8.17308,-9.94404c-10.62904,-7.45484 -21.33826,-1.14892 -33.15115,-0.26512c-15.38084,1.15072 -28.22136,-2.77548 -43.3615,-0.59587c-13.72501,-1.47796 -21.78668,-0.05355 -35.01802,3.10359c-2.30233,0.54939 -5.63942,-0.62222 -6.97475,1.33212c-2.0322,2.97428 0.25579,7.46806 -1.26819,10.7321c-4.06031,8.69597 -13.7797,13.58213 -18.98681,21.64396c-4.37702,6.77653 -2.46112,16.26656 -6.27991,23.37267c-6.20134,11.5399 -21.1634,26.26732 -21.59185,40.59567c-0.29562,9.88791 6.10104,16.89669 3.2949,27.45919c-1.81461,6.83015 -6.44551,12.71335 -10.96866,18.14331c-2.07993,2.49693 -6.69606,2.24088 -8.34436,5.04155c-1.1795,2.0041 0.98319,4.54819 1.34895,6.84469c2.2591,14.1855 0.81042,22.30776 10.03331,33.46975c2.77215,5.47362 7.04695,10.41805 8.31634,16.42088c3.09454,14.63455 -6.07523,22.1754 1.04213,35.75827c9.25468,17.66169 28.59574,17.51929 39.9425,33.73311c3.20666,4.58215 4.71571,10.16521 6.52724,15.45642c1.53239,4.47576 0.08664,13.00464 4.80446,13.35442c8.93619,0.66252 19.36782,-1.79022 27.00368,2.49439z" fill="url(#color-29)" stroke="none" stroke-width="0.5"/><g><path d="M178.86774,222.38177l0.51484,-51.43731l5.8231,0.05828l-0.51484,51.43731z" fill="url(#color-30)" stroke="none" stroke-width="0"/><path d="M285.94798,223.45357l0.51484,-51.43731l5.8231,0.05828l-0.51484,51.43731z" fill="url(#color-31)" stroke="none" stroke-width="0"/><path d="M150.54461,179.1218l0.10231,-10.22084l171.06493,1.71223l-0.10231,10.22084z" fill="url(#color-32)" stroke="none" stroke-width="0"/><g stroke-width="0"><path d="M314.47575,176.43067c-0.14566,14.5529 -11.54071,26.2375 -25.45162,26.09828c-13.91089,-0.13923 -25.06975,-12.04961 -24.92408,-26.60249c0.14566,-14.5529 11.54071,-26.2375 25.45157,-26.09826c13.91089,0.13923 25.06979,12.04952 24.92413,26.60248z" fill="url(#color-33)" stroke="none"/><g stroke="#a70000"><path d="M299.50681,176.6573c-0.05822,5.81721 -4.69718,10.48707 -10.36136,10.43038c-5.66421,-0.0567 -10.20873,-4.81848 -10.1505,-10.63568c0.05822,-5.81721 4.69715,-10.48716 10.36136,-10.43046c5.66421,0.0567 10.20873,4.81855 10.15051,10.63577z" fill="#960000"/><path d="M297.05857,176.6328c-0.04432,4.42863 -3.57588,7.98368 -7.888,7.94052c-4.31207,-0.04317 -7.77178,-3.66825 -7.72746,-8.09682c0.04432,-4.42863 3.57587,-7.98375 7.88797,-7.94058c4.31207,0.04317 7.7718,3.6683 7.72748,8.09689z" fill="#000000"/></g><path d="M314.47575,176.43067c-0.00107,0.10696 -12.69328,-6.0863 -25.36679,-6.12697c-12.51506,-0.04013 -25.01346,6.07586 -25.00892,5.62273c0.14566,-14.5529 11.54071,-26.2375 25.45157,-26.09826c13.91089,0.13923 25.06979,12.04952 24.92413,26.60248z" fill="url(#color-34)" stroke="none"/></g><path d="M215.45164,288.0308l0.07648,-5.39566l37.05507,0.52541l-0.07654,5.39566z" fill="url(#color-35)" stroke="none" stroke-width="0"/><path d="M248.52462,289.92659l0.79992,-62.09805l6.47971,0.10404l-0.79992,62.09805z" fill="url(#color-36)" stroke="none" stroke-width="0"/><path d="M213.63353,289.36626l0.79991,-62.09797l6.47972,0.10401l-0.79992,62.09805z" fill="url(#color-37)" stroke="none" stroke-width="0"/><g stroke="none" stroke-width="0"><path d="M221.48226,332.83356l0.73849,-52.08596l24.81988,0.35195l-0.73842,52.08596z" fill="url(#color-38)"/><path d="M221.48226,332.83356l0.09299,-6.55785l24.81988,0.35189l-0.09299,6.55785z" fill="#494949"/></g><path d="M159.54021,219.30161l153.00876,1.85446l-0.14004,15.1109l-153.02663,-1.85867z" fill="url(#color-39)" stroke="none" stroke-width="0"/><g><path d="M186.76335,256.87046c-2.38394,0.45203 -2.83598,-1.93191 -2.83598,-1.93191l-0.33395,-1.79598c-1.35409,-11.79009 4.07453,-20.78591 -2.05777,-31.30816c-3.93557,-11.10458 -0.1962,-15.56887 0.34968,-26.03652c0.29161,-5.59175 -3.51158,-10.5067 -4.03412,-15.86855c-0.56097,-5.75598 3.44139,-9.23971 4.73156,-14.39451c0,0 0.61203,-2.34795 2.95997,-1.7359c2.34795,0.61203 1.7359,2.95997 1.7359,2.95997c-1.15407,4.29374 -5.08882,8.07994 -4.59857,12.68922c0.59056,5.55227 4.43775,10.68347 4.0532,16.56618c-0.64862,9.92154 -4.40565,13.46863 -0.79596,23.77683c6.69501,11.33425 1.06034,20.46123 2.47719,32.79769l0.28071,1.44556c0,0 0.45196,2.38395 -1.93191,2.83598z" fill="url(#color-40)" stroke="none" stroke-width="0.5"/><path d="M179.83636,254.90702c-2.42628,-0.02428 -2.402,-2.45058 -2.402,-2.45058l0.01943,-1.94104c0.24759,-11.13102 9.55988,-16.81169 9.66009,-27.72753c0.16497,-12.05536 -7.12275,-19.88732 -12.36494,-29.73017c-3.73868,-7.01987 -2.53968,-18.35344 -1.62155,-26.00276c0,0 0.29208,-2.40875 2.70088,-2.11668c2.40875,0.29208 2.11668,2.70088 2.11668,2.70088c-0.69273,5.65029 -1.78218,14.81329 0.01708,20.33914c4.04303,12.4166 14.1024,20.39289 14.00447,34.85819c-0.12188,11.18167 -9.73438,17.08333 -9.66009,27.72753l-0.01943,1.94104c0,0 -0.02428,2.42628 -2.45058,2.402z" fill="url(#color-41)" stroke="none" stroke-width="0.5"/><g stroke-width="0"><path d="M201.04106,260.7092c-0.14566,14.5529 -11.54071,26.2375 -25.45162,26.09828c-13.91089,-0.13923 -25.06975,-12.04953 -24.92408,-26.60249c0.14566,-14.5529 11.54071,-26.2375 25.45157,-26.09826c13.91089,0.13923 25.06979,12.0496 24.92413,26.60248z" fill="url(#color-42)" stroke="none"/><g stroke="#a70000"><path d="M179.80894,272.52053c-0.05822,5.81721 -4.69715,10.48708 -10.36136,10.43038c-5.66421,-0.0567 -10.20873,-4.81848 -10.1505,-10.63568c0.05822,-5.81721 4.69715,-10.48708 10.36136,-10.43038c5.66421,0.0567 10.20873,4.81848 10.1505,10.63568z" fill="#960000"/><path d="M177.36079,272.49602c-0.04432,4.42863 -3.57586,7.98369 -7.88798,7.94053c-4.31207,-0.04317 -7.77178,-3.66825 -7.72746,-8.09682c0.04432,-4.42863 3.57587,-7.98375 7.88797,-7.94058c4.31207,0.04317 7.77178,3.6683 7.72746,8.09689z" fill="#000000"/></g></g></g><path d="M207.71899,175.36212c-0.00107,0.10696 -12.72566,-2.85128 -25.39916,-2.89191c-12.51506,-0.04013 -24.98108,2.84083 -24.97654,2.38769c0.14566,-14.5529 11.54071,-26.2375 25.45157,-26.09826c13.91089,0.13923 25.06979,12.04952 24.92413,26.60248z" fill="url(#color-43)" stroke="none" stroke-width="0"/></g><path d="M131.69089,130.42866c-1.62603,-5.44771 4.27095,-6.94054 4.27095,-6.94054l3.83307,-0.86993c24.22197,-10.74434 45.30763,-24.48133 73.49862,-24.27048c1.11771,0.28664 2.26988,0.62853 3.44619,0.99108c0.5305,-1.80191 0.83788,-3.53848 0.82152,-5.15587c-0.11555,-11.43235 -7.34328,-19.77162 -9.9926,-30.19121c-4.33593,-17.053 11.51183,-34.23939 25.18265,-43.0067c0,0 5.04353,-3.18887 8.50502,1.47345c3.46146,4.66232 -1.58206,7.85124 -1.58206,7.85124c-9.05532,5.62593 -23.80414,19.36153 -20.17319,31.20582c3.43346,11.19998 10.57546,20.63791 10.28641,33.09209c-0.06103,2.62929 -0.43787,5.20571 -1.04533,7.74575c1.33053,0.13616 2.64961,0.16242 3.9438,0.03426c5.26194,-0.52097 9.7253,-2.42746 13.90629,-4.79814c3.68414,-15.13733 -5.77433,-30.34495 1.17274,-45.12141c3.5819,-7.61874 12.70676,-14.62037 18.69285,-20.64175c0,0 4.13396,-4.15728 8.64275,-0.33331c4.50879,3.82396 0.37481,7.98132 0.37481,7.98132c-5.01993,5.04711 -13.58705,11.26678 -16.54411,17.6262c-4.69073,10.08798 -0.73213,21.49432 0.0236,32.8191c2.58938,-1.4808 5.27268,-2.77826 8.17656,-3.6667c8.3881,-2.56628 17.57951,2.39368 25.44835,-3.38624c6.9767,-5.12467 19.20352,-18.57945 16.793,-26.41378c0,0 -1.1442,-5.55057 4.86496,-6.59827c6.00913,-1.04766 7.15331,4.50288 7.15331,4.50288c2.30959,14.9126 -14.23884,36.66266 -30.27212,41.56601c-6.33795,1.93826 -14.60959,-0.77499 -20.22615,1.08489c-4.60344,1.52438 -9.61752,6.19555 -14.25676,8.89842c-8.12609,21.33166 -17.2518,32.97132 -9.12395,56.17938c4.85161,10.08484 10.43751,18.26243 7.64616,29.76321c-1.83804,7.57339 -10.07844,18.09122 -9.19199,25.92784c1.56681,13.84983 7.12427,21.25414 2.1856,36.18701l-1.36771,4.88257c0,0 -1.53838,5.46478 -7.45893,4.03543c-5.92047,-1.42927 -4.38209,-6.89405 -4.38209,-6.89405l1.52344,-5.38726c4.70478,-13.74381 -1.66194,-19.15667 -2.70758,-32.09168c-0.97534,-12.06582 10.58426,-22.77088 10.10169,-34.72327c-0.23599,-5.8445 -5.31709,-12.54673 -7.77718,-17.68472c-7.86761,-22.52471 -2.27217,-35.79491 5.26357,-54.44626c-5.38501,1.18233 -10.52434,1.34216 -16.05943,0.69417c-5.50134,12.69932 -14.09586,25.01292 -14.23746,39.1605c1.59784,5.99456 4.80926,12.97746 5.99723,18.88788c1.70906,8.50267 -3.24532,19.97209 -0.3688,27.98286c3.7889,10.55198 5.88431,16.1978 3.31076,27.75224l-1.25109,2.69325c0,0 -2.78611,5.02453 -8.23186,2.44379c-5.44577,-2.58069 -2.6597,-7.6053 -2.6597,-7.6053l0.16867,0.13276c2.43312,-10.47493 -0.19145,-12.94669 -3.15679,-22.5193c-2.77961,-8.97311 2.12738,-19.59332 0.19811,-28.65505c-1.34668,-6.32521 -4.52383,-13.41495 -6.16239,-19.85447c0.10732,-10.72205 2.30871,-21.80423 7.01129,-31.74716c1.51931,-3.21238 3.9659,-7.19089 6.22616,-11.33917c-0.19066,-0.05079 -0.38212,-0.10216 -0.57427,-0.15407c-24.70534,-0.33474 -45.24961,13.63715 -66.3928,23.24883l-5.95086,1.6068c0,0 -5.897,1.49285 -7.52304,-3.95488z" fill="url(#color-44)" stroke="none" stroke-width="0.5"/><path d="M354.91074,121.28511c0.69213,6.02643 -5.33433,6.71854 -5.33433,6.71854l-5.73977,0.65577c-17.03351,1.27684 -28.75729,13.95004 -45.36817,16.77381c-10.84253,1.84311 -26.32681,-1.86861 -36.34529,1.45994c-11.45249,3.80502 -17.77677,29.68457 -20.15138,39.63902c-4.01748,7.9244 -9.16957,16.70734 -15.57785,24.2569c0.75078,-0.00287 1.49995,-0.0007 2.24727,0.0071c18.78869,1.83239 25.59342,13.56817 38.76178,25.38709c2.98487,2.67897 8.44494,11.91965 12.48047,12.61136c13.34462,2.2873 27.15802,-3.34344 40.76137,-1.79179c8.50174,0.96973 15.28387,6.35652 23.0036,9.64701c0,0 5.57579,2.38901 3.18678,7.96478c-2.38901,5.57579 -7.96478,3.18674 -7.96478,3.18674c-5.98568,-2.57671 -13.06296,-8.20153 -19.67003,-8.75279c-13.50599,-1.12686 -29.10088,5.23157 -42.22235,1.52513c-20.16772,-5.69683 -26.03484,-35.99705 -48.92366,-37.65959c-5.19332,-0.0497 -10.50966,0.19931 -15.86926,0.51326c-5.67135,3.53039 -11.99706,5.78663 -19.019,6.0513c-10.67392,0.40236 -17.50951,-6.27285 -28.61493,-3.87363c-18.17275,3.92604 -29.76741,17.15398 -49.59732,13.34503c0,0 -5.93605,-1.24917 -4.68689,-7.18515c1.24917,-5.93598 7.18514,-4.68697 7.18514,-4.68697c12.15414,2.88744 22.77226,-4.29051 33.73021,-9.41335c-12.28378,-3.53286 -24.58482,-5.88839 -37.42239,1.27276l-3.64461,0.72692c0,0 -6.0657,-0.06071 -6.00499,-6.12642c0.04525,-4.52032 3.42541,-5.63832 5.14484,-5.91454c13.20398,-6.41046 32.27294,-6.92459 46.49956,-3.65392c7.55031,1.73578 13.11735,6.94104 20.70739,7.71205c10.44224,1.06071 21.30597,0.41295 32.11035,-0.20057c9.81369,-7.23161 17.11978,-19.70359 22.00779,-29.12205c3.36122,-14.86429 11.70064,-41.05835 27.72087,-46.97984c10.49418,-3.87888 27.08628,-0.18621 38.34417,-1.94c16.79453,-2.61625 28.55085,-15.35822 46.21418,-16.87221l5.33297,-0.61596c0,0 6.02639,-0.69213 6.71854,5.33433z" fill="url(#color-45)" stroke="none" stroke-width="0.5"/><path d="M186.42056,365.89202c-21.78653,-8.75486 -13.7731,-22.89561 -23.76973,-38.01533c-3.5945,-5.43665 -12.98661,-8.56607 -17.73519,-11.35664c-14.84142,-8.72174 -15.36148,-8.54737 -23.92621,-25.25422c-9.29019,-18.12199 1.52588,-34.34671 -8.05797,-49.92346c-10.39614,-14.17911 -20.87716,-46.02563 -12.88752,-64.10452c0.5879,-1.33032 16.36158,-12.52083 17.46134,-17.83911c1.62789,-7.8725 -4.42834,-15.79883 -3.81103,-23.8142c1.46193,-18.98182 15.78803,-35.49018 24.54359,-50.71767c4.16653,-7.24628 2.38592,-17.015 6.72996,-24.15627c4.24483,-6.97813 14.16164,-11.48138 17.78745,-19.38005c2.35424,-5.12863 1.00032,-12.058 4.79255,-16.23697c12.77443,-14.0768 43.19756,-14.80181 60.10984,-12.98071c9.60163,-1.28271 19.38995,0.23669 29.04111,1.06778c22.87209,1.9696 40.34782,-10.65473 61.87713,4.26234c11.28595,7.81974 19.53844,20.96291 17.71619,35.46003c-0.49926,3.97159 -6.71423,4.97573 -8.35241,8.628c-1.96055,4.37092 7.02989,6.50956 10.54984,9.75894c7.88265,7.27678 14.10162,17.19519 16.44741,27.66347c3.70037,16.51324 7.14851,42.50701 4.43914,59.21947c-0.65726,4.05406 -4.15928,7.38026 -4.48969,11.47397c-0.36608,4.53602 12.59079,16.18928 12.63163,16.27404c3.41756,7.09334 4.18323,15.18158 6.27484,22.77237c-4.27139,3.45785 -9.22492,6.21196 -12.81408,10.37352c-9.36249,10.85544 0.73095,33.33701 -1.64642,45.58544c-2.20902,11.38131 -10.29819,23.80689 -18.32728,31.67195c-5.07148,4.96783 -12.92882,7.96732 -15.53227,14.57193c-6.4386,16.33392 0.80289,30.60449 -13.74686,44.99217c-5.3678,5.30799 -22.70617,12.92152 -34.70243,16.22638c-2.69281,3.49509 -6.97282,4.64317 -6.97282,4.64317c-12.15388,3.12363 -29.31598,16.8487 -42.18451,13.07593c-7.82057,-2.29283 -11.45982,-10.84081 -15.95437,-18.24566c-2.6264,0.51249 -5.17961,0.97497 -7.60474,1.3111l-4.8069,0.66615c0,0 -10.1347,1.40457 -13.07976,-7.67315zM220.908,345.33014c7.10731,-1.24443 14.23415,-2.20179 20.6942,-1.89922c8.95838,0.41952 17.24805,5.89663 26.21489,6.05282c6.78121,0.1181 12.57852,-5.9302 17.98013,-8.46725c3.05969,-1.43708 6.98388,-1.0412 9.64916,-3.12045c7.05731,-5.50579 4.23535,-28.6994 7.64013,-36.35911c7.71074,-17.34676 20.10576,-18.11607 28.903,-32.97142c11.7738,-19.88159 -12.3043,-58.75212 18.79225,-67.56825c-10.79803,-5.78677 -19.37743,-18.09405 -20.14952,-30.66196c-0.34011,-5.53601 3.83836,-10.47255 4.77568,-15.93922c1.99049,-11.60877 -1.79089,-27.53005 -2.67565,-39.21697c-0.04766,-0.62964 -2.26984,-18.23461 -3.42459,-20.10011c-4.30893,-6.96118 -14.25735,-9.26815 -18.28828,-16.39392c-3.70055,-6.54169 -7.36436,-13.94114 -6.96091,-21.44617c0.23748,-4.41702 6.78299,-6.05169 8.65449,-10.05964c1.81539,-3.88763 -4.66038,-7.4803 -8.17308,-9.94404c-10.62904,-7.45484 -21.33826,-1.14892 -33.15115,-0.26512c-15.38084,1.15072 -28.22136,-2.77548 -43.3615,-0.59587c-13.72501,-1.47796 -21.78668,-0.05355 -35.01802,3.10359c-2.30233,0.54939 -5.63942,-0.62222 -6.97475,1.33212c-2.0322,2.97428 0.25579,7.46806 -1.26819,10.7321c-4.06031,8.69597 -13.7797,13.58213 -18.98681,21.64396c-4.37702,6.77653 -2.46112,16.26656 -6.27991,23.37267c-6.20134,11.5399 -21.1634,26.26732 -21.59185,40.59567c-0.29562,9.88791 6.10104,16.89669 3.2949,27.45919c-1.81461,6.83015 -6.44551,12.71335 -10.96866,18.14331c-2.07993,2.49693 -6.69606,2.24088 -8.34436,5.04155c-1.1795,2.0041 0.98319,4.54819 1.34895,6.84469c2.2591,14.1855 0.81042,22.30776 10.03331,33.46975c2.77215,5.47362 7.04695,10.41805 8.31634,16.42088c3.09454,14.63455 -6.07523,22.1754 1.04213,35.75827c9.25468,17.66169 28.59574,17.51929 39.9425,33.73311c3.20666,4.58215 4.71571,10.16521 6.52724,15.45642c1.53239,4.47576 0.08664,13.00464 4.80446,13.35442c8.93619,0.66252 19.36782,-1.79022 27.00368,2.49439z" fill="url(#color-46)" stroke="none" stroke-width="0.5"/></g><g stroke="none" stroke-width="0"><path d="M289.48365,137.49912c21.44213,0.21462 38.645,18.31981 38.42361,40.43907c-0.2214,22.11926 -17.78319,39.87649 -39.22534,39.66186c-21.44213,-0.21462 -38.645,-18.31981 -38.42361,-40.43907c0.2214,-22.11926 17.78319,-39.87649 39.22534,-39.66186z" fill="url(#color-47)"/><path d="M289.10809,175.02011c1.35425,0.01356 2.44072,1.15702 2.42673,2.55404c-0.01398,1.39699 -1.12319,2.51852 -2.47737,2.50497c-1.35425,-0.01356 -2.44072,-1.15702 -2.42673,-2.55404c0.01398,-1.39699 1.12319,-2.51852 2.47737,-2.50497z" fill="#ffffff"/></g></g></g></g></svg>