<svg version="1.1" xmlns="http://www.w3.org/2000/svg" xmlns:xlink="http://www.w3.org/1999/xlink" width="944.91591" height="757.57567" viewBox="0,0,944.91591,757.57567"><defs><radialGradient cx="630.17238" cy="384.23555" r="52.92549" gradientUnits="userSpaceOnUse" id="color-1"><stop offset="0" stop-color="#a3a3a3"/><stop offset="1" stop-color="#5d5d5d"/></radialGradient><radialGradient cx="505.43053" cy="319.91483" r="64.59238" gradientUnits="userSpaceOnUse" id="color-2"><stop offset="0" stop-color="#a3a3a3"/><stop offset="1" stop-color="#5d5d5d"/></radialGradient><radialGradient cx="649.99726" cy="320.71391" r="146.23343" gradientUnits="userSpaceOnUse" id="color-3"><stop offset="0" stop-color="#a3a3a3"/><stop offset="1" stop-color="#5d5d5d"/></radialGradient><radialGradient cx="699.03678" cy="305.13681" r="20.36616" gradientUnits="userSpaceOnUse" id="color-4"><stop offset="0" stop-color="#a7a7a7"/><stop offset="1" stop-color="#7a7a7a"/></radialGradient><radialGradient cx="701.32626" cy="299.46275" r="41.16926" gradientUnits="userSpaceOnUse" id="color-5"><stop offset="0" stop-color="#efefef"/><stop offset="1" stop-color="#bdbdbd"/></radialGradient><linearGradient x1="543.90469" y1="288.84118" x2="574.42249" y2="403.56878" gradientUnits="userSpaceOnUse" id="color-6"><stop offset="0" stop-color="#efefef"/><stop offset="1" stop-color="#bdbdbd"/></linearGradient><radialGradient cx="-145.0934" cy="305.84554" r="138.16774" gradientUnits="userSpaceOnUse" id="color-7"><stop offset="0" stop-color="#c5c5c5"/><stop offset="1" stop-color="#5d5d5d"/></radialGradient><linearGradient x1="-14.16696" y1="356.64822" x2="-28.03228" y2="394.07244" gradientUnits="userSpaceOnUse" id="color-8"><stop offset="0" stop-color="#c5c5c5"/><stop offset="1" stop-color="#5d5d5d"/></linearGradient><radialGradient cx="-10.99528" cy="342.80383" r="137.27856" gradientUnits="userSpaceOnUse" id="color-9"><stop offset="0" stop-color="#c5c5c5"/><stop offset="1" stop-color="#5d5d5d"/></radialGradient><radialGradient cx="-191.00285" cy="281.82222" r="20.36616" gradientUnits="userSpaceOnUse" id="color-10"><stop offset="0" stop-color="#a7a7a7"/><stop offset="1" stop-color="#7a7a7a"/></radialGradient><linearGradient x1="69.40043" y1="387.80013" x2="69.40043" y2="502.34381" gradientUnits="userSpaceOnUse" id="color-11"><stop offset="0" stop-color="#c5c5c5"/><stop offset="1" stop-color="#5d5d5d"/></linearGradient><linearGradient x1="240.88739" y1="281.64326" x2="240.88739" y2="457.27436" gradientUnits="userSpaceOnUse" id="color-12"><stop offset="0" stop-color="#a3a3a3"/><stop offset="1" stop-color="#5d5d5d"/></linearGradient><linearGradient x1="241.53637" y1="387.82873" x2="241.53637" y2="603.90388" gradientUnits="userSpaceOnUse" id="color-13"><stop offset="0" stop-color="#c5c5c5"/><stop offset="1" stop-color="#5d5d5d"/></linearGradient><linearGradient x1="248.70509" y1="376.60122" x2="248.70509" y2="744.76069" gradientUnits="userSpaceOnUse" id="color-14"><stop offset="0" stop-color="#c5c5c5"/><stop offset="1" stop-color="#5d5d5d"/></linearGradient><linearGradient x1="249.75994" y1="362.07358" x2="249.75994" y2="791.77431" gradientUnits="userSpaceOnUse" id="color-15"><stop offset="0" stop-color="#c5c5c5"/><stop offset="1" stop-color="#5d5d5d"/></linearGradient><linearGradient x1="242.14825" y1="375.43868" x2="242.14825" y2="734.05422" gradientUnits="userSpaceOnUse" id="color-16"><stop offset="0" stop-color="#c0c0c0"/><stop offset="1" stop-color="#9f9f9f"/></linearGradient><linearGradient x1="158.49934" y1="402.97216" x2="158.49934" y2="463.85584" gradientUnits="userSpaceOnUse" id="color-17"><stop offset="0" stop-color="#c0c0c0"/><stop offset="1" stop-color="#838383"/></linearGradient><linearGradient x1="158.49934" y1="440.88095" x2="158.49934" y2="501.76461" gradientUnits="userSpaceOnUse" id="color-18"><stop offset="0" stop-color="#c0c0c0"/><stop offset="1" stop-color="#838383"/></linearGradient><linearGradient x1="158.49934" y1="477.64081" x2="158.49934" y2="538.52453" gradientUnits="userSpaceOnUse" id="color-19"><stop offset="0" stop-color="#c0c0c0"/><stop offset="1" stop-color="#838383"/></linearGradient><linearGradient x1="162.17047" y1="512.79621" x2="162.17047" y2="573.6799" gradientUnits="userSpaceOnUse" id="color-20"><stop offset="0" stop-color="#c0c0c0"/><stop offset="1" stop-color="#838383"/></linearGradient><linearGradient x1="171.34828" y1="556.4855" x2="171.34828" y2="606.42794" gradientUnits="userSpaceOnUse" id="color-21"><stop offset="0" stop-color="#c0c0c0"/><stop offset="1" stop-color="#838383"/></linearGradient><linearGradient x1="326.14768" y1="402.97216" x2="326.14768" y2="463.85584" gradientUnits="userSpaceOnUse" id="color-22"><stop offset="0" stop-color="#c0c0c0"/><stop offset="1" stop-color="#838383"/></linearGradient><linearGradient x1="326.14768" y1="440.88095" x2="326.14768" y2="501.76461" gradientUnits="userSpaceOnUse" id="color-23"><stop offset="0" stop-color="#c0c0c0"/><stop offset="1" stop-color="#838383"/></linearGradient><linearGradient x1="326.14768" y1="477.64081" x2="326.14768" y2="538.52453" gradientUnits="userSpaceOnUse" id="color-24"><stop offset="0" stop-color="#c0c0c0"/><stop offset="1" stop-color="#838383"/></linearGradient><linearGradient x1="322.47658" y1="512.79621" x2="322.47658" y2="573.6799" gradientUnits="userSpaceOnUse" id="color-25"><stop offset="0" stop-color="#c0c0c0"/><stop offset="1" stop-color="#838383"/></linearGradient><linearGradient x1="313.29871" y1="556.4855" x2="313.29871" y2="606.42794" gradientUnits="userSpaceOnUse" id="color-26"><stop offset="0" stop-color="#c0c0c0"/><stop offset="1" stop-color="#838383"/></linearGradient><linearGradient x1="242.14825" y1="375.43868" x2="242.14825" y2="396.54769" gradientUnits="userSpaceOnUse" id="color-27"><stop offset="0" stop-color="#c0c0c0"/><stop offset="1" stop-color="#9f9f9f"/></linearGradient><linearGradient x1="204.69368" y1="694.4539" x2="279.60291" y2="694.4539" gradientUnits="userSpaceOnUse" id="color-28"><stop offset="0" stop-color="#7b7b7b"/><stop offset="1" stop-color="#b9b9b9"/></linearGradient><radialGradient cx="430.59968" cy="380.18059" r="20.36616" gradientUnits="userSpaceOnUse" id="color-29"><stop offset="0" stop-color="#a7a7a7"/><stop offset="1" stop-color="#7a7a7a"/></radialGradient><radialGradient cx="69.605" cy="378.95687" r="20.36616" gradientUnits="userSpaceOnUse" id="color-30"><stop offset="0" stop-color="#a7a7a7"/><stop offset="1" stop-color="#7a7a7a"/></radialGradient><linearGradient x1="314.77948" y1="249.50556" x2="314.77948" y2="328.94716" gradientUnits="userSpaceOnUse" id="color-31"><stop offset="0" stop-color="#c5c5c5"/><stop offset="1" stop-color="#5d5d5d"/></linearGradient><linearGradient x1="142.56295" y1="26.9512" x2="142.56295" y2="73.53233" gradientUnits="userSpaceOnUse" id="color-32"><stop offset="0" stop-color="#c5c5c5"/><stop offset="1" stop-color="#5d5d5d"/></linearGradient><linearGradient x1="323.66598" y1="54.47148" x2="323.66598" y2="89.25948" gradientUnits="userSpaceOnUse" id="color-33"><stop offset="0" stop-color="#c5c5c5"/><stop offset="1" stop-color="#5d5d5d"/></linearGradient><linearGradient x1="239.33653" y1="60.26746" x2="239.33653" y2="307.54895" gradientUnits="userSpaceOnUse" id="color-34"><stop offset="0" stop-color="#a3a3a3"/><stop offset="1" stop-color="#1a1a1a"/></linearGradient><linearGradient x1="241.54325" y1="8.20308" x2="241.54325" y2="318.80873" gradientUnits="userSpaceOnUse" id="color-35"><stop offset="0" stop-color="#c5c5c5"/><stop offset="1" stop-color="#5d5d5d"/></linearGradient><linearGradient x1="232.46187" y1="26.76119" x2="232.46187" y2="297.05764" gradientUnits="userSpaceOnUse" id="color-36"><stop offset="0" stop-color="#b9b9b9"/><stop offset="1" stop-color="#5c5c5c"/></linearGradient><linearGradient x1="239.84793" y1="299.02979" x2="239.84793" y2="7.0729" gradientUnits="userSpaceOnUse" id="color-37"><stop offset="0" stop-color="#5d5d5d"/><stop offset="1" stop-color="#a1a1a1"/></linearGradient><linearGradient x1="239.84793" y1="299.02979" x2="239.84793" y2="7.0729" gradientUnits="userSpaceOnUse" id="color-38"><stop offset="0" stop-color="#c5c5c5"/><stop offset="1" stop-color="#5d5d5d"/></linearGradient><linearGradient x1="241.54325" y1="8.20308" x2="241.54325" y2="318.80873" gradientUnits="userSpaceOnUse" id="color-39"><stop offset="0" stop-color="#c5c5c5"/><stop offset="1" stop-color="#5d5d5d"/></linearGradient><linearGradient x1="195.55243" y1="161.25764" x2="200.29941" y2="161.25764" gradientUnits="userSpaceOnUse" id="color-40"><stop offset="0" stop-color="#cdcdcd"/><stop offset="1" stop-color="#444444"/></linearGradient><linearGradient x1="282.84397" y1="161.25764" x2="287.59097" y2="161.25764" gradientUnits="userSpaceOnUse" id="color-41"><stop offset="0" stop-color="#cdcdcd"/><stop offset="1" stop-color="#444444"/></linearGradient><linearGradient x1="241.83871" y1="138.8606" x2="241.83871" y2="147.19261" gradientUnits="userSpaceOnUse" id="color-42"><stop offset="0" stop-color="#cdcdcd"/><stop offset="1" stop-color="#444444"/></linearGradient><radialGradient cx="285.18063" cy="143.66157" r="20.53309" gradientUnits="userSpaceOnUse" id="color-43"><stop offset="0" stop-color="#ffffff"/><stop offset="1" stop-color="#939393"/></radialGradient><radialGradient cx="290.10953" cy="134.01646" r="20.53309" gradientUnits="userSpaceOnUse" id="color-44"><stop offset="0" stop-color="#b9b097"/><stop offset="1" stop-color="#827c69"/></radialGradient><linearGradient x1="241.02156" y1="231.03782" x2="241.02156" y2="235.56249" gradientUnits="userSpaceOnUse" id="color-45"><stop offset="0" stop-color="#a0a0a0"/><stop offset="1" stop-color="#696969"/></linearGradient><linearGradient x1="255.59588" y1="186.08835" x2="255.59588" y2="236.74391" gradientUnits="userSpaceOnUse" id="color-46"><stop offset="0" stop-color="#cdcdcd"/><stop offset="1" stop-color="#444444"/></linearGradient><linearGradient x1="227.15103" y1="185.91634" x2="227.15103" y2="236.57187" gradientUnits="userSpaceOnUse" id="color-47"><stop offset="0" stop-color="#cdcdcd"/><stop offset="1" stop-color="#444444"/></linearGradient><linearGradient x1="241.39481" y1="229.44465" x2="241.39481" y2="271.99108" gradientUnits="userSpaceOnUse" id="color-48"><stop offset="0" stop-color="#6e6e6e"/><stop offset="1" stop-color="#969696"/></linearGradient><linearGradient x1="245.02549" y1="159.61887" x2="245.02549" y2="192.45195" gradientUnits="userSpaceOnUse" id="color-49"><stop offset="0" stop-color="#cdcdcd"/><stop offset="1" stop-color="#444444"/></linearGradient><linearGradient x1="199.22965" y1="134.34023" x2="199.22965" y2="210.32259" gradientUnits="userSpaceOnUse" id="color-50"><stop offset="0" stop-color="#c5c5c5"/><stop offset="1" stop-color="#5d5d5d"/></linearGradient><linearGradient x1="197.99484" y1="135.40815" x2="197.99484" y2="208.72736" gradientUnits="userSpaceOnUse" id="color-51"><stop offset="0" stop-color="#c5c5c5"/><stop offset="1" stop-color="#5d5d5d"/></linearGradient><radialGradient cx="193.40582" cy="213.28381" r="20.53309" gradientUnits="userSpaceOnUse" id="color-52"><stop offset="0" stop-color="#ffffff"/><stop offset="1" stop-color="#939393"/></radialGradient><radialGradient cx="203.08171" cy="134.01646" r="20.53309" gradientUnits="userSpaceOnUse" id="color-53"><stop offset="0" stop-color="#b9b097"/><stop offset="1" stop-color="#827c69"/></radialGradient><linearGradient x1="233.32867" y1="16.72359" x2="233.32867" y2="214.92204" gradientUnits="userSpaceOnUse" id="color-54"><stop offset="0" stop-color="#afafaf"/><stop offset="1" stop-color="#515151"/></linearGradient><linearGradient x1="236.41025" y1="94.06385" x2="236.41025" y2="218.33309" gradientUnits="userSpaceOnUse" id="color-55"><stop offset="0" stop-color="#afafaf"/><stop offset="1" stop-color="#4b4b4b"/></linearGradient><linearGradient x1="241.54325" y1="8.20308" x2="241.54325" y2="318.80873" gradientUnits="userSpaceOnUse" id="color-56"><stop offset="0" stop-color="#c5c5c5"/><stop offset="1" stop-color="#5d5d5d"/></linearGradient><radialGradient cx="285.02468" cy="144.78077" r="31.64962" gradientUnits="userSpaceOnUse" id="color-57"><stop offset="0" stop-color="#ff0000"/><stop offset="1" stop-color="#ff0000" stop-opacity="0"/></radialGradient></defs><g transform="translate(219.77218,-7.07287)"><g data-paper-data="{&quot;isPaintingLayer&quot;:true}" fill-rule="nonzero" stroke-linecap="butt" stroke-linejoin="miter" stroke-miterlimit="10" stroke-dasharray="" stroke-dashoffset="0" style="mix-blend-mode: normal"><g><path d="M545.55961,288.4017c38.46641,-10.37738 119.77359,-11.189 119.77359,-11.189l20.39391,74.76597c0,0 -70.51829,40.57014 -108.98471,50.94749c-7.51866,2.02834 -16.52945,4.4281 -26.18144,6.98159c-0.1144,-0.39296 -0.22572,-0.78888 -0.33373,-1.18807c-1.9755,-3.62624 -4.85819,-13.10914 -7.06624,-15.81875c-6.32837,-7.76578 -16.12465,-3.70719 -23.82244,-1.65956c-5.10687,1.35843 -12.3852,2.13012 -16.13257,6.35017c-4.41701,4.97411 -0.89508,7.16494 -6.08939,11.225c-4.93617,3.85825 -14.1488,4.89673 -19.46622,9.12272c-2.64828,2.10469 -4.53958,5.22654 -7.53538,6.7977c0,0 -4.01619,2.22001 -1.79624,6.23619c0.07805,0.14116 0.15831,0.27463 0.2405,0.40079c-6.55299,1.70283 -10.48991,2.72317 -10.48991,2.72317l-25.33171,-93.51954c3.02492,0.17222 4.28056,-2.93978 4.28056,-2.93978c6.53978,-16.33497 27.58947,-12.97819 40.29105,-23.45816c3.63795,-3.00164 6.67475,-6.30436 9.21366,-9.85146c25.32295,-6.83137 50.92596,-13.73831 59.03672,-15.92642z" fill="#494949" stroke="#000000" stroke-width="0"/><g stroke="none"><path d="M617.58244,397.66877c-0.28597,1.2245 -1.11699,2.55882 -3.26426,3.13001c-4.43468,1.17963 -5.61432,-3.25505 -5.61432,-3.25505l1.90012,-6.37838c6.02847,-3.28501 10.76661,-8.19773 15.90106,-12.73401c4.90702,-2.70175 -1.71008,-10.71878 1.75999,-17.30636c4.24659,-8.06185 13.00953,-8.94156 18.67086,-14.61223c2.57426,-2.57848 5.55407,-4.72337 8.19195,-7.23671c5.37585,-5.12211 6.70242,-14.69967 13.47136,-19.15122c5.50139,-3.61793 16.23457,-4.56211 22.62846,-6.26289c0,0 4.43468,-1.17963 5.61432,3.25505c1.17963,4.43468 -3.25505,5.61432 -3.25505,5.61432c-5.40549,1.43787 -15.33037,2.02706 -19.94472,5.06171c-5.77169,3.79577 -7.41881,13.30262 -12.09138,18.03879c-2.56573,2.60065 -5.54258,4.76396 -8.21286,7.25716c-5.77152,5.38881 -12.51937,5.98984 -17.13312,12.63941c-2.57193,3.70682 3.0955,9.98096 1.83229,13.84653c-0.81955,2.50778 -3.63692,3.82297 -5.45542,5.73445c-4.93434,4.35958 -9.52775,8.82912 -14.99928,12.35952z" fill="url(#color-1)" stroke-width="0.5"/><path d="M538.38234,307.46537c2.22001,4.01619 -1.79624,6.23617 -1.79624,6.23617l-4.41578,2.44088c-8.04632,4.4404 -15.28367,9.93047 -23.55602,13.9822c-8.99029,2.42417 -15.32857,6.69432 -23.78889,10.11417c-2.46138,0.99494 -6.29474,-0.74846 -7.83846,1.41142c-3.93014,5.49901 -3.14963,14.84702 -8.07484,20.95476c-5.60083,6.94554 -15.28342,7.72264 -22.4403,11.75824c-5.39308,3.0411 -8.66923,9.47498 -14.45483,12.73938c0,0 -4.01616,2.22002 -6.23617,-1.79619c-2.22001,-4.01619 1.79624,-6.23619 1.79624,-6.23619c5.92391,-3.18662 8.6136,-9.27153 14.25361,-12.62483c5.56385,-3.30803 15.78269,-4.10968 19.98151,-9.65615c4.33874,-5.73136 3.77389,-16.46304 8.50496,-21.44341c2.07156,-2.18077 8.15982,-2.4386 11.08296,-3.62171c8.42141,-3.40838 14.98248,-7.83461 23.99242,-10.19329c7.82362,-3.8745 14.70391,-9.19461 22.33777,-13.42082l4.41583,-2.4409c0,0 4.01616,-2.22 6.23619,1.79624z" fill="url(#color-2)" stroke-width="0.5"/><path d="M445.46149,388.16764c-4.02588,6.94387 -10.60368,4.2941 -12.19067,3.52003c-0.77156,0.17912 -1.53878,0.3696 -2.29718,0.58286c0,0 -8.8694,2.3593 -11.22868,-6.51014c-2.3593,-8.8694 6.51014,-11.22868 6.51014,-11.22868c0.04731,-0.01161 0.09449,-0.02332 0.14172,-0.03523c-0.01516,-1.80634 0.1847,-3.56297 0.9149,-5.19696c9.98139,-22.33396 48.43197,-25.85477 68.5203,-19.32411c0.20684,0.0672 0.41053,0.13441 0.61127,0.20157c3.72337,-0.92607 7.44094,-1.71902 11.13395,-2.2855c11.08153,-1.6999 22.12786,1.71712 33.06876,0.08196c2.54163,-0.37983 5.11206,-0.79131 7.70164,-1.23795c7.33182,-17.96096 14.34179,-36.76714 34.18399,-41.63151c4.93617,-1.21013 9.98381,-3.94529 14.96322,-2.92768c4.70938,0.96241 7.8164,5.59658 11.73278,8.38335c4.19298,2.98365 9.09872,7.22726 14.27255,11.14421c18.73209,-7.3986 36.9193,-14.52552 56.93549,-19.84987l9.46068,-2.51656c0,0 8.8694,-2.3593 11.22868,6.51014c2.3593,8.8694 -6.51014,11.22868 -6.51014,11.22868l-1.24415,0.33094c-17.05941,9.94093 -28.73457,35.96082 -52.68774,32.47368c-6.78494,-0.98777 -13.00126,-4.06451 -18.85913,-7.82383c-1.49979,0.58847 -3.00623,1.17736 -4.52053,1.76579c-16.36267,9.05316 -35.9832,15.14809 -55.161,19.08014c-2.37567,4.18954 -4.86609,8.28509 -7.04523,12.01316c-7.92059,8.26935 -12.23633,15.89869 -25.53696,16.1487c-5.1551,0.09687 -10.14749,-2.47505 -14.62934,-5.02406c-4.27967,-2.43399 -13.13649,-12.23437 -18.20664,-15.56276c-0.50867,-0.33393 -1.06717,-0.65423 -1.67024,-0.95994c-8.05919,2.24491 -16.10402,4.92542 -23.94824,7.01201c-5.69377,1.51455 -11.97096,1.50751 -17.13158,4.35018c-3.16242,1.742 -5.31296,5.02017 -8.32936,6.96049c-0.0588,0.10828 -0.11991,0.21721 -0.18348,0.32677zM529.46525,372.70942c3.33608,-0.0132 6.46502,-3.40054 8.75853,-6.16475c-6.46471,0.16237 -12.93195,-0.86091 -19.38755,-1.00346c3.17014,3.03342 7.94115,7.17888 10.629,7.16824zM598.07074,325.13531c-1.70867,-1.46135 -2.29753,-4.56111 -4.49704,-5.02712c-2.24656,-0.47599 -4.12932,2.05631 -6.32333,2.73458c-2.1985,0.67967 -4.89134,-0.00352 -6.77705,1.31535c-5.38092,3.7636 -7.40724,11.07303 -9.22129,17.68075c11.57913,-3.02015 22.97115,-6.9351 33.32597,-12.05685c-2.21551,-1.48933 -4.48135,-2.91414 -6.50722,-4.64671z" fill="url(#color-3)" stroke-width="0.5"/><path d="M673.82125,315.0056c-2.80426,-10.55082 3.73461,-21.44608 14.6052,-24.33524c10.87055,-2.88923 21.95609,3.32153 24.76037,13.87234c2.80427,10.55079 -3.73455,21.44612 -14.60513,24.33531c-10.87049,2.88921 -21.95612,-3.32161 -24.76032,-13.87252z" fill="url(#color-4)" stroke-width="0"/></g><path d="M644.25544,322.8658c-5.66868,-21.32806 7.54935,-43.35224 29.52374,-49.19256c21.9743,-5.84042 44.38331,6.71429 50.05197,28.04232c5.66877,21.32804 -7.54923,43.35234 -29.52361,49.19269c-21.97414,5.8404 -44.38336,-6.71449 -50.0519,-28.04263z" fill="url(#color-5)" stroke="none" stroke-width="0"/><path d="M545.55961,288.4017c38.46641,-10.37738 119.77359,-11.189 119.77359,-11.189l20.39391,74.76597c0,0 -70.51829,40.57014 -108.98471,50.94749c-12.21681,3.29583 -28.37311,7.57212 -44.81819,11.89541c3.02068,-1.29248 6.40771,-2.19815 8.9009,-3.42946c4.57315,-2.25852 10.61936,-9.11367 15.31918,-10.31404c4.58796,-1.17183 9.43608,0.81817 14.16238,1.10849c10.36762,-0.21116 18.16231,-3.51985 26.79402,-8.33117c5.60065,-3.12177 15.95158,-4.61743 20.35576,-9.81767c6.52243,-7.70146 3.09901,-19.28683 -6.29342,-22.93675c-1.15552,-0.44903 -9.88098,2.01203 -11.79879,2.52214c-11.01189,2.92917 -22.75266,8.28065 -34.14176,5.86891c-9.81129,-2.82594 -20.14676,-4.17704 -29.67409,1.10312c-3.72291,2.06327 -5.70862,6.43038 -9.22403,8.83016c-11.36495,7.75837 -31.21673,2.74877 -41.88012,12.79076c-4.94197,4.65403 -8.75906,12.42843 -13.20822,18.33895c-1.29541,0.75985 -1.90059,1.71372 -2.135,2.64198c-0.61168,0.84291 -2.28985,3.67859 0.60041,6.228c0.71142,0.62747 1.40547,0.97822 2.05896,1.13976l0.02817,0.05c0.76492,2.97013 1.61116,6.14157 2.72629,9.21073c-10.05258,2.61472 -16.44547,4.27149 -16.44547,4.27149l-24.98342,-92.23367c5.2774,-1.09399 10.93097,-2.47427 14.33957,-5.6565c2.4264,-2.26521 2.31168,-6.56632 4.86243,-8.69059c4.39563,-3.6606 15.83427,-2.72947 21.26136,-5.35544c10.06077,-4.86807 19.93307,-15.23287 29.06002,-22.17242c19.37274,-5.22621 36.57146,-9.86592 42.95043,-11.58682z" fill="url(#color-6)" stroke="#000000" stroke-width="0"/></g><g stroke="none"><path d="M62.06911,382.7541c-4.4647,1.06045 -5.52515,-3.4043 -5.52515,-3.4043l-0.15722,-1.79408c-5.83334,-9.25183 -25.58191,-15.23745 -36.07157,-15.48558c-16.61922,-2.76221 -34.35986,-2.70835 -51.19727,-5.2016c-7.64556,-1.13217 -16.89391,-6.15908 -24.13439,-8.84161c-14.91736,-5.52671 -29.83468,-11.05345 -44.75204,-16.58019c-31.09718,-11.52121 -60.72889,-27.42279 -93.39691,-33.69053c0,0 -4.5066,-0.86515 -3.64149,-5.37175c0.86515,-4.5066 5.37175,-3.64149 5.37175,-3.64149c33.20431,6.37793 63.26019,22.39197 94.85517,34.09757c14.91736,5.52671 29.83468,11.05345 44.75204,16.58019c6.53285,2.42035 15.40655,7.40314 22.33889,8.37626c16.70983,2.34573 34.16165,2.62266 50.67707,5.13692c13.64534,0.56138 35.26042,7.97216 42.91332,19.64998l1.37216,4.645c0,0 1.06045,4.4647 -3.4043,5.52515z" fill="url(#color-7)" stroke-width="0.5"/><path d="M-101.0467,361.31426c1.59425,-4.30308 5.89731,-2.70883 5.89731,-2.70883l0.8606,0.31886c14.98889,5.55321 33.60353,17.03827 49.64736,12.27351c14.07256,-1.52135 31.27316,-9.59343 45.45614,-7.29145c18.20488,2.95482 37.70304,13.88026 55.06137,20.31138c0,0 4.30308,1.59425 2.70883,5.89731c-1.59425,4.30308 -5.89731,2.70883 -5.89731,2.70883c-17.10274,-6.33638 -35.56163,-16.30423 -53.3763,-19.86371c-3.15241,-0.62988 -4.62169,0.83384 -7.68192,1.40509c-11.2819,2.10595 -23.12397,4.57825 -34.45847,5.82968c-18.06845,5.36611 -37.81265,-6.42706 -54.64804,-12.66447l-0.8606,-0.31886c0,0 -4.30308,-1.59425 -2.70883,-5.89731z" fill="url(#color-8)" stroke-width="0.5"/><path d="M53.53327,382.50106c-1.71368,7.02182 -9.76977,4.80276 -9.76977,4.80276l-8.21037,-2.26229c-24.42008,-7.37479 -47.49706,-16.79014 -71.34657,-25.65805c-15.66968,-8.29209 -31.27808,-16.70629 -46.76749,-25.39762c-20.05826,0.28486 -37.20241,2.71287 -57.74488,-4.84433c-19.89308,-9.1786 -44.29038,-17.38777 -58.90955,-32.91745l-2.45537,-5.97647c-0.72161,-1.06603 -1.20399,-2.42892 -1.22838,-4.17024c-0.01905,-1.35888 0.24784,-2.44497 0.69548,-3.31262c0.20124,-0.39027 0.45707,-0.77096 0.77986,-1.12914c0.32278,-0.35819 0.68279,-0.66094 1.06379,-0.91668c0.84696,-0.56881 1.96401,-1.01856 3.43038,-1.26572c1.41652,-0.23872 2.65211,-0.20305 3.72625,0.01654c13.77064,0.89684 26.1187,-0.73409 40.17,2.70006c18.89687,4.61842 36.97998,15.60869 53.36469,25.26809c6.90675,4.07175 13.84307,8.07228 20.80421,12.01373c4.89102,-0.08078 9.81666,0.02629 14.79179,0.54674c21.04824,2.20188 40.48385,10.07174 60.2987,17.41294c8.80343,3.26158 20.38436,6.21466 28.26814,11.4765c9.85445,6.5771 14.96818,14.96462 21.28194,23.9573c0,0 0.00753,0.0107 0.02149,0.03149l1.39334,0.38366c0,0 8.05612,2.21905 6.34241,9.24087zM-107.83527,319.46575c-14.70088,-8.66249 -31.24535,-19.07511 -48.25693,-23.15464c-8.10044,-1.94254 -15.64375,-2.01458 -23.29846,-1.9848c12.64119,9.23809 31.33247,15.31844 44.80428,21.56038c9.49463,3.54859 18.90293,4.48631 28.33669,4.51176c-0.52871,-0.31049 -1.05723,-0.62139 -1.58562,-0.93269zM-29.59797,346.33393c17.12309,6.32004 33.82146,12.98831 50.94663,18.91685c-1.64643,-1.71233 -3.46875,-3.29234 -5.55563,-4.66475c-6.66503,-4.38305 -17.28586,-6.93982 -24.58061,-9.64245c-11.55561,-4.28122 -22.81849,-8.59139 -34.29728,-11.79678c4.48925,2.41031 8.98535,4.80495 13.48696,7.18713z" fill="url(#color-9)" stroke-width="0.5"/><path d="M-180.37283,293.25978c-3.79061,10.23795 -15.41458,15.37123 -25.96263,11.46574c-10.54817,-3.90551 -16.02601,-15.37099 -12.23529,-25.60891c3.79067,-10.23787 15.41452,-15.37109 25.96265,-11.46553c10.54817,3.90551 16.02603,15.37096 12.23536,25.60884z" fill="url(#color-10)" stroke-width="0"/></g><path d="M69.29449,494.5379c0.54971,0.62692 2.75261,3.49531 -0.11579,6.36377c-3.24482,3.24482 -6.4897,0 -6.4897,0l-2.56775,-4.46853c0,-3.61489 0.04824,-7.22983 0.12274,-10.84401c4.26071,-8.8303 15.35623,-30.74197 9.03882,-40.73832c-4.44114,-7.02745 -11.2611,-13.22793 -10.35093,-22.40102c0.54927,-5.53628 14.43941,-23.57196 4.94975,-25.92766c0,0 -4.10442,-2.05221 -2.05225,-6.15667c2.05221,-4.10442 6.15667,-2.05225 6.15667,-2.05225c7.20737,4.42233 10.69548,14.0344 7.08224,22.99246c-1.57092,3.89461 -9.82584,9.33147 -7.22846,15.14842c2.20168,4.93074 6.97128,9.26685 9.42955,13.87477c7.2337,13.55925 -1.77041,35.23289 -8.09308,47.36885c0.07285,2.27922 0.10687,4.55971 0.11818,6.84016z" fill="url(#color-11)" stroke="none" stroke-width="0.5"/><g stroke="none"><g><path d="M249.49049,295.13266h2.44743c11.10168,0 16.06935,0.88257 19.23905,12.59419c0.04924,7.81913 0.47876,16.48415 2.35906,23.98056c1.21504,4.84412 5.05646,9.78491 6.11856,14.68453c0.01102,0.05094 0.02199,0.10216 0.03279,0.15363c0.0058,-0.00048 0.01157,-0.00095 0.0174,-0.00146c6.40494,-0.53376 14.99424,-2.97863 21.409,-1.00387c8.08468,2.48887 13.05246,13.06416 20.80309,15.9082c2.80316,1.02862 6.00247,0.29842 8.89923,1.02258c14.70383,-0.11662 36.43076,-4.02708 49.97985,1.47435c2.34998,0.95418 4.97862,1.76274 6.67962,3.64414c1.6551,1.83062 3.5166,12.30239 6.94518,13.55211c6.05762,2.20806 16.36878,-2.75673 22.7181,-2.79676c0,0 4.5889,0 4.5889,4.5889c0,3.62364 -2.86135,4.38583 -4.06518,4.54621c-1.04121,2.19764 -3.73826,2.46736 -3.73826,2.46736c-11.63954,1.16233 -23.9397,2.3984 -35.1864,5.7974c-16.2397,4.90801 -26.45736,21.79207 -42.13656,27.03007c-5.33063,1.78079 -15.43663,1.45921 -21.03051,1.45921c-4.03132,0 -9.59481,0.31487 -13.17871,-1.7667c-2.92669,-1.6999 -4.872,-4.69937 -7.30801,-7.04906c-8.1152,-5.89056 -19.45236,-12.56529 -24.03922,-21.94633c-2.39784,-4.9041 -2.67183,-10.29005 -2.2015,-15.84167c-3.29287,-4.91961 -6.18279,-10.08197 -8.66165,-14.46232c-1.21555,-2.14799 -1.99667,-4.28022 -2.60685,-6.30461c-1.28332,0.02463 -2.56846,0.04241 -3.8561,0.05345c-0.2503,0.21604 -0.50381,0.4296 -0.76039,0.64069c-0.06829,0.22946 -0.13975,0.45792 -0.21454,0.68518c-0.2601,0.79026 -2.03151,1.30545 -1.53171,1.97058c0.74036,0.98532 2.69501,-0.02864 3.6107,0.7963c7.23749,6.52018 8.06626,14.58012 6.55443,23.7845c-1.57891,9.61297 -6.83724,12.49246 -10.09467,20.69897c-4.05423,10.21391 -3.32182,20.51848 -3.32182,31.28408c0,4.07904 0,8.15808 0,12.23709v3.67115c0,0 0,4.5889 -4.5889,4.5889c-4.5889,0 -4.5889,-4.5889 -4.5889,-4.5889c0,-4.07904 0,-11.82918 0,-15.9082c0,-9.76131 -0.37271,-19.09775 1.94144,-28.36357c-4.40659,3.66762 -9.88821,6.56867 -13.9657,9.83821c-6.43522,5.16008 -7.57862,11.47115 -16.78286,13.24178c-13.72919,2.64114 -34.1564,-0.5181 -47.55697,-3.81095c-12.62966,-5.45843 -15.41307,-23.35897 -28.18459,-28.15826c-2.77753,-1.04373 -5.96152,0.61801 -8.89923,0.20111c-6.91432,-0.98123 -10.09317,-5.74261 -16.58406,-7.47764c-12.43365,-3.32356 -27.60938,-1.05399 -40.36965,-1.05399c0,0 -0.86653,0 -1.84648,-0.37656c-0.04012,0.01614 -0.08026,0.03229 -0.12034,0.04834c0,0 -4.26071,1.70429 -5.96497,-2.55643c-1.70429,-4.26071 2.55643,-5.96497 2.55643,-5.96497c10.91891,-4.35975 22.41853,-11.37383 34.2923,-12.54298c24.78149,-2.44019 50.5006,1.35356 75.09856,1.20139c10.74236,0 21.88477,0.87335 32.58801,0.02231c3.5232,-0.28016 6.36078,-3.08663 9.59254,-4.51749c5.45414,-2.41483 11.3647,-4.68409 17.11564,-7.32297c-0.87065,-1.24788 -1.75356,-2.46565 -2.62945,-3.64971c-3.90483,-3.13653 -9.9559,-3.80117 -12.7419,-7.96337c-3.48051,-5.19975 -0.9559,-9.50337 2.05088,-13.33844c-4.30997,-2.98219 -7.84463,-6.52571 -9.67353,-10.38496c-3.18581,-6.72268 -7.06488,-22.46185 -2.01393,-29.35948c2.43017,-3.31869 8.61091,-4.38993 12.32353,-5.33761l2.33664,-0.13698c0,0 4.5889,0 4.5889,4.5889c0,4.5889 -4.5889,4.5889 -4.5889,4.5889l-0.11071,-0.13698c-2.43793,0.59389 -5.86357,-0.08286 -7.25583,2.00466c-2.58279,3.87265 1.53798,16.23539 2.8809,19.58897c0.74788,1.86767 2.27679,3.68239 4.27717,5.36207c0.29582,-4.83397 1.2761,-9.22846 2.88679,-12.41779c3.13829,-2.1287 5.55652,-3.62882 7.89311,-4.80214c0.71823,-1.7883 1.45617,-3.56232 2.23619,-5.29718c-0.61786,-0.44226 -1.26537,-0.9249 -1.94607,-1.45727l-1.85266,-6.32022c0,0 -1.11299,-4.4519 3.33895,-5.56488c4.4519,-1.11299 5.56488,3.33895 5.56488,3.33895l0.08699,0.50757c2.7561,-3.99248 6.1264,-7.35749 10.54082,-9.61761l2.44743,-1.2237c0,0 4.10442,-2.05225 6.15667,2.05225c2.05225,4.10442 -2.05225,6.15667 -2.05225,6.15667l-2.44743,1.2237c-2.32084,1.12438 -3.97417,2.31705 -5.20517,3.61352c0.42382,-0.06977 0.70551,-0.06977 0.70551,-0.06977zM279.74295,371.25748c-0.1614,1.48469 -0.4716,3.11299 -0.78187,4.80538c2.36574,3.17181 4.93127,6.04992 7.70263,8.2171c12.97151,10.14347 33.01666,6.30217 48.48652,6.30217c0,0 4.5889,0 4.5889,4.5889c0,4.5889 -4.5889,4.5889 -4.5889,4.5889c-18.36371,0 -38.88639,3.56114 -54.3052,-8.38236c-0.2873,-0.22256 -0.57267,-0.45151 -0.85625,-0.6866c4.52066,7.39657 14.4572,12.91385 21.06256,17.7543c23.86484,24.95449 52.39211,-14.51871 74.78923,-21.40884c3.22094,-0.99088 6.52551,-1.8114 9.87689,-2.50573c-2.5473,-4.63426 -3.19044,-10.40996 -8.10573,-11.97743c-13.79368,-4.39871 -33.32311,-0.88109 -47.917,-0.97309c-3.48436,-0.87108 -7.32289,-0.14869 -10.68015,-1.42479c-7.66443,-2.91325 -13.256,-13.73869 -20.80309,-15.9082c-4.80255,-1.38059 -12.99975,1.03085 -17.68173,1.43778c0.08936,5.44977 -0.32326,11.30832 -0.78686,15.57258zM264.60372,333.8161c-1.94231,-7.78995 -2.59989,-16.88406 -2.53581,-24.96784c-1.34446,-6.48358 -4.16182,-4.53774 -10.12999,-4.53774h-0.02922c1.74206,1.80756 3.40129,4.19766 5.27558,7.88742c3.66419,6.39236 6.01425,18.39542 4.72668,28.57467c1.15419,2.07765 1.88911,4.36758 2.52119,6.69988c1.97754,-0.07666 3.95329,-0.16961 5.92995,-0.27968c-1.41348,-4.441 -4.65214,-8.93979 -5.7584,-13.3767zM267.13084,356.55285c0.30632,0.72046 0.64816,1.42036 1.03744,2.09335c0.83487,1.44335 1.71687,2.99918 2.64673,4.61552c0.30702,-2.33613 0.53895,-4.65417 0.59591,-6.93121c-1.42671,0.0827 -2.85314,0.15681 -4.28007,0.22232zM232.94812,327.12381c-0.52396,1.29749 -1.14858,2.55146 -1.84361,3.76984c4.95512,2.12465 10.08301,3.42481 13.49116,3.39777c0.32634,0.00168 0.67561,-0.00125 1.04343,-0.0062c-0.06601,-7.26199 -0.79837,-14.55003 -2.91861,-20.78509c-0.67896,0.17925 -1.32239,0.35621 -1.9421,0.53841c-2.53528,4.41101 -5.82391,8.11681 -7.83024,13.08527zM122.97303,389.80379c4.36318,2.33762 9.72909,-0.64726 14.1635,1.01381c13.23862,4.959 16.31187,24.05505 28.10609,28.13245c12.36846,3.1673 30.18553,5.18666 42.99765,3.53134c6.19547,-0.80045 8.16157,-7.62973 12.5862,-11.2324c4.84396,-3.94415 14.022,-7.92021 17.41828,-13.59565c6.2902,-10.51142 3.60691,-21.07837 -1.56082,-30.52434c-6.31167,2.86258 -12.79569,5.27373 -18.36046,7.75707c-4.11116,1.83467 -7.96186,4.75767 -12.43426,5.27218c-10.84605,1.24786 -22.56864,0.02231 -33.49238,0.02231c-24.37696,-0.12548 -49.62524,-3.24773 -74.19417,-1.24604c-3.93892,0.32089 -7.90276,1.46011 -11.83119,2.97175c12.63387,0.13199 24.41217,1.367 36.60166,7.89759zM252.28821,383.52113c0.52359,-3.73258 1.51637,-7.76826 0.21432,-11.30538c-0.82276,-2.23514 -3.25345,-3.32322 -5.51681,-4.54448c2.93678,6.70142 4.58942,13.7606 3.82471,20.93072c0.68281,-1.50641 1.20857,-3.16153 1.47776,-5.08089zM244.59566,343.46926c-3.19305,-0.02016 -7.01456,-0.70504 -10.97519,-1.92561c0.27955,0.74362 0.5512,1.461 0.80614,2.14606c0.71362,1.91746 0.5851,4.55311 2.28037,5.69851c1.13147,0.76445 2.40992,-1.4481 3.76537,-1.61366c1.55315,-0.18968 3.11767,-0.19888 4.6851,-0.15887c0.0966,-1.35489 0.18466,-2.73757 0.25852,-4.13945c-0.26622,-0.00637 -0.53962,-0.00876 -0.8203,-0.00699z" fill="url(#color-12)" stroke-width="0.5"/><path d="M58.89752,394.86513c0,-4.5889 4.5889,-4.5889 4.5889,-4.5889c3.26322,0 7.75017,0 11.01342,0c35.40088,0.37261 63.35855,23.25587 90.79036,42.47234c13.51835,9.46985 22.30553,21.61351 39.75028,24.90694c24.89816,4.1497 54.75292,13.887 80.42625,8.55007c15.78016,-3.28034 30.49474,-8.1396 45.02789,-15.40124c20.95442,-12.43499 19.67692,-44.78332 41.55347,-57.48499c6.87801,-3.99342 15.23509,-2.27816 22.61185,-3.02075c6.39153,-0.64336 12.29492,-2.45044 18.80782,-2.46976c0,0 4.5889,0 4.5889,4.5889c0,1.27758 -0.35571,2.1995 -0.86902,2.86476c0.80603,-0.06896 1.60672,-0.10638 2.3987,-0.11142c0,0 4.5889,0 4.5889,4.5889c0,4.5889 -4.5889,4.5889 -4.5889,4.5889c-3.56722,-0.02833 -4.85877,-0.40256 -8.19754,0.93866c-2.15692,0.86644 -4.33552,1.77349 -6.25116,3.09001c-19.20158,13.19551 6.90875,33.94759 10.34895,47.84252c2.86012,11.55215 -3.68107,22.09715 -8.69158,31.91263c-1.87928,9.76128 -3.24357,19.89363 -2.22138,29.87502c1.04273,10.18205 5.82896,17.35761 4.88978,28.48644c-1.53145,18.14682 -13.52688,31.68742 -13.43341,50.28325l0.73927,0.39519c0,0 2.05221,4.10447 -2.05225,6.15667c-4.10447,2.05221 -6.15667,-2.05225 -6.15667,-2.05225l-1.70815,-4.49963c0.02801,-6.70249 0.88709,-15.39621 2.57017,-21.85739c2.65612,-10.19673 9.99953,-18.22783 10.91807,-29.4273c0.85228,-10.39186 -3.75151,-16.82744 -4.89989,-26.58059c-1.32223,-11.22993 0.41798,-22.80976 2.67344,-33.75793c3.93348,-8.00012 10.82549,-17.424 8.44036,-26.82549c-2.78102,-10.96199 -13.70364,-19.51895 -17.0882,-30.42215c-4.49151,-14.46916 5.9594,-25.83631 18.34567,-30.4722c-4.08335,0.57656 -8.03648,1.57868 -12.24737,1.99735c-5.8455,0.5812 -13.49979,-1.17697 -18.99433,1.87411c-2.84192,1.57809 -3.99398,5.13469 -6.13652,7.57933c-13.98038,15.95205 -16.62389,38.52385 -35.52238,49.96441c-15.36903,7.68919 -31.19081,13.16979 -47.97415,16.41527c-27.03173,5.22717 -57.33489,-4.21255 -83.55098,-8.5819c-18.94015,-3.95224 -28.67323,-16.14557 -43.46205,-26.48891c-4.23587,-2.96257 -9.50939,-4.29003 -13.60169,-7.448c-21.38361,-16.50134 -43.04479,-33.70195 -71.82223,-33.29196c-3.26322,0 -6.52645,0 -9.78966,0h-1.2237c0,0 -4.5889,0 -4.5889,-4.5889z" fill="url(#color-13)" stroke-width="0.5"/><path d="M266.89186,436.68117c-1.44725,-4.58845 -4.11456,-8.68284 -6.74755,-12.64189c-3.42783,-5.15426 -7.23027,-9.34299 -11.04288,-13.57674c-1.44429,0.48949 -2.90799,1.00199 -4.35491,1.55209c0.00844,0.35612 0.01443,0.61862 0.01475,0.75928c0.02602,11.85418 -0.44392,23.10826 4.01219,34.36248c2.37867,6.00749 7.34998,10.67016 9.46903,16.78477c1.71058,4.93591 2.92643,10.15876 3.38242,15.41717c6.47021,-12.93102 10.56534,-25.85869 5.26705,-42.6571zM229.56106,384.96965c0,-8.17768 7.75488,-8.17768 7.75488,-8.17768c3.80469,0.32251 8.1534,-1.12481 11.41406,0.96759c0.94581,0.60693 1.82134,1.29879 2.64276,2.05633c1.34765,-0.68171 2.74473,-1.38286 4.1887,-2.16067c0,0 6.93617,-3.65716 10.40421,3.65716c0.49765,1.04952 0.78104,2.0238 0.90149,2.92271c0.94363,-0.79202 1.88602,-1.58565 2.82767,-2.38017l-0.54075,-0.54254c0,0 3.46804,-7.31433 10.40421,-3.65716c6.93617,3.65716 3.46804,10.97149 3.46804,10.97149l-3.6427,5.99962c-3.26682,2.75541 -6.56146,5.47537 -9.89023,8.14764c15.33079,18.36092 27.38273,44.11083 18.48282,68.55684c-5.88015,16.15145 -17.17864,30.1454 -23.27844,46.25197c7.05091,7.65402 13.9577,15.50215 17.26351,25.29969c2.5718,7.6221 0.32917,21.21022 0.29501,29.34417c-2.65213,14.16663 -7.05819,30.2126 -13.23827,44.70785c0.67378,1.95456 1.34211,3.89182 1.99942,5.80514c2.58404,7.52177 6.05868,15.49313 4.9977,23.41463c-2.05172,15.31913 -14.64857,23.9665 -17.12569,38.02956c-2.04071,11.58542 3.3212,25.69815 -0.258,37.02136c-1.07673,3.40639 -3.87062,5.90852 -5.80594,8.86275l1.551,-1.63552c0,0 0,1.95602 -0.90718,3.95483c0.7681,1.35269 1.18201,3.16088 0.80165,5.56727c-1.27488,8.06643 -8.92422,6.72202 -8.92422,6.72202c-3.85979,-0.81021 -8.17443,-0.34961 -11.57945,-2.43066c-16.99487,-10.38662 -19.07598,-38.9243 -16.55607,-57.33662c1.75191,-12.80061 7.21375,-22.26852 11.14772,-34.13714c1.12864,-3.40496 0.59025,-7.55792 2.61791,-10.46285c2.39667,-3.43349 6.50884,-5.13425 9.92921,-7.51654c0.53416,-19.25 -0.82757,-38.4568 -0.25624,-57.59299c-1.68316,-11.47095 -1.78308,-22.95641 -1.78308,-34.85408c0.02488,-8.3451 0.7247,-17.11125 2.56056,-25.50549c-1.58989,-1.92356 -3.05412,-3.87579 -4.32137,-5.87948c-10.68838,-16.90036 -15.18398,-37.4472 -18.29634,-57.22514c-2.05722,-13.07319 -3.58498,-29.1038 4.59612,-40.66511c2.82326,-3.98974 6.67872,-6.9562 10.97329,-9.34311c0.25578,-3.10382 0.82329,-6.12405 2.04466,-8.65719c-2.03838,-0.28788 -6.86282,-1.65052 -6.86282,-8.10054zM253.94004,548.36219c-1.61472,8.51943 -2.41845,17.07557 -2.77381,25.65635c0.60713,3.74341 1.4244,7.48598 2.52475,11.24178c0.76162,2.5997 1.5666,5.23046 2.40162,7.87666c2.43123,-7.6228 4.37084,-15.28813 5.76716,-22.52177c-0.03195,-6.24357 2.30558,-17.37238 0.29501,-22.99302c-1.48102,-4.1403 -3.83018,-7.96754 -6.62616,-11.61571c-0.5344,4.20305 -0.96472,8.41166 -1.58851,12.35577zM250.95023,643.89276c-0.37524,5.5706 -1.00925,11.19605 -1.63829,16.83899c4.75671,-7.54681 8.78175,-15.30733 6.51366,-23.64593c-0.2339,-0.85999 -0.47892,-1.71837 -0.73385,-2.57523c-0.80979,1.31554 -1.6392,2.59766 -2.48836,3.84244c-0.45571,0.66805 -0.9373,1.31727 -1.44098,1.9483c-0.06112,1.19731 -0.13153,2.39446 -0.21214,3.59148zM233.64054,469.53781c2.60712,10.3179 4.45777,18.12758 9.31466,26.8398c1.76772,-3.67274 3.44297,-7.41403 3.36003,-11.4133c-0.2724,-13.12904 -7.3006,-19.98804 -11.77004,-31.31827c-3.95466,-10.0253 -4.97083,-19.95874 -5.22007,-30.24539c-6.32447,12.73772 1.3777,34.51089 4.3154,46.13725zM227.64245,686.90778c-1.59265,11.90849 -1.82472,30.11412 6.93835,37.9586l0.87464,-4.61154c0.54848,-0.66153 1.02601,-1.35755 1.44049,-2.08425c-5.59482,-16.21053 -5.20819,-32.58386 -3.79011,-49.14144c-2.35817,5.65482 -4.58454,11.30702 -5.46347,17.87856z" fill="url(#color-14)" stroke-width="0.5"/><path d="M430.06203,376.9077c9.08558,1.29793 7.78765,10.38354 7.78765,10.38354c-1.05219,5.48149 -0.1286,11.75563 -3.15665,16.44438c-4.22442,6.54122 -18.52583,12.31471 -25.46065,16.04746c-16.16431,8.7007 -39.41851,13.44807 -49.7549,29.7734c-9.20778,14.54274 1.62523,32.96317 3.16159,47.50202c2.24419,21.23707 -3.882,40.022 -11.62513,59.37993c-9.84171,24.40858 -29.58686,39.7468 -42.93228,61.99019c-6.1245,10.20799 -6.47091,18.40436 -10.09256,29.21774c-5.52402,16.49336 -13.56753,35.91069 -24.27986,52.21055c-2.22343,7.48365 -5.50028,14.35702 -9.16237,22.23545c-0.83729,1.80123 -4.92396,11.61794 -8.21195,19.10683c1.13614,2.2896 1.94282,4.6859 2.26247,7.23784c-14.35254,-0.63883 -26.71489,-7.17259 -39.94467,-7.98604c-0.95544,-2.04919 -1.80449,-4.41323 -2.56865,-7.26259c-0.92154,-3.43607 0.9469,-7.22004 0.08751,-10.67219c-1.65639,-6.65363 -7.2389,-11.66856 -11.35811,-17.15007c-10.04242,-13.36336 -19.58719,-26.86285 -29.42085,-40.45254c-5.16201,-7.13362 -9.1927,-10.78521 -10.78427,-20.20547c-2.43528,-14.41411 4.44072,-22.37926 5.38576,-35.68016c0.7889,-11.10359 -0.08518,-22.81683 -0.04466,-33.97144c0.01554,-4.27726 1.22142,-17.56126 -2.13391,-22.44887c-3.90974,-5.69513 -10.48425,-9.14507 -14.66012,-14.64803c-8.06542,-13.54968 -19.34546,-33.72399 -18.04465,-49.99897c0.91488,-11.44666 11.1607,-16.79202 10.97982,-26.96391c-0.26145,-14.7075 -13.64969,-36.17001 -23.36226,-46.85588c-1.4673,-1.61434 -11.06101,-12.46683 -15.80243,-13.79621c-9.31756,-2.61241 -25.26283,0.46066 -34.58818,2.04373c0,0 -9.05296,1.50882 -10.56178,-7.54414c-1.50882,-9.05296 7.54414,-10.56178 7.54414,-10.56178c1.3118,-0.21508 2.72055,-0.44818 4.20424,-0.6874c1.52745,-0.83092 2.84692,-1.09486 2.84692,-1.09486c14.35896,-2.80689 26.91669,-1.56701 41.25115,-0.13355c27.76889,2.77691 53.47314,5.77329 80.49796,13.14376c10.97783,2.99397 13.31787,-0.02582 24.37888,6.53798c4.63069,2.74796 8.55059,6.15944 11.85358,10.03794c10.5314,-17.06205 22.67376,-32.38777 43.37496,-38.63466c9.51694,-2.8719 25.34823,-0.30745 35.39583,-0.30745c26.88729,0 55.37346,2.26315 82.81427,6.24532c3.04821,-4.19684 6.36823,-8.27534 10.79964,-11.75205l8.74451,-4.5378c0,0 8.2089,-4.10442 12.31332,4.10442c2.20498,4.4099 0.85631,7.63535 -0.86419,9.67618c0.92423,-0.1349 1.96333,-0.13962 3.13102,0.0272zM155.96781,434.8082c4.4338,8.21658 8.55871,17.36176 8.4712,26.69791c-0.12109,12.91571 -10.22881,16.64886 -11.04696,28.10305c-0.82926,11.60982 9.15553,28.47595 14.99557,38.10823c4.11711,5.58278 11.11174,8.7899 14.70892,14.72102c9.8667,16.26839 6.69842,49.62212 5.16368,68.39823c-0.87702,10.72942 -7.41508,19.41278 -5.62762,30.40024c1.97711,12.15325 15.90276,23.48555 22.46635,33.3258c3.05108,4.57421 6.89581,9.28037 10.80636,14.1232c1.38332,-11.31863 4.53943,-23.04485 8.02749,-33.73568c-0.62148,-0.8448 -1.18736,-1.67315 -1.6756,-2.48236c-7.68024,-20.56993 -14.49192,-48.35144 -1.68297,-68.90625c0.07489,-1.47054 0.17446,-2.94526 0.29352,-4.41741c-0.90267,-0.69464 -1.78569,-1.32116 -2.63351,-1.86355c-4.10466,-2.62598 -9.49945,-3.45759 -12.82079,-7.02314c-4.99111,-5.3581 -7.26882,-18.75865 -7.8995,-25.64863c-0.61652,-6.73566 0.16685,-18.02334 2.36955,-24.11924c6.48575,-17.94961 25.16892,-26.67407 30.97242,-45.16796c0.67674,-2.15659 0.94512,-4.66878 0.98241,-7.34935c-0.30705,-0.62124 -0.58539,-1.25454 -0.81865,-1.90676c-3.66429,-10.24418 -4.6988,-20.41051 -3.68451,-30.52505c-2.9128,-7.19434 -7.57941,-13.66056 -14.48629,-17.87778c-4.53161,-2.76688 -15.29164,-3.28009 -19.67474,-4.47545c-18.72609,-5.10708 -36.73191,-7.98226 -55.32805,-10.19001c7.27164,10.01164 12.71845,21.79778 18.12173,31.81093zM280.53313,641.96987c3.95396,-11.9258 5.14092,-21.86983 11.93424,-33.19151c5.69249,-9.48713 14.40073,-22.24068 21.11793,-30.61787c2.03106,-2.53306 5.41648,-3.64751 7.733,-5.92248c6.12418,-6.0145 9.57845,-14.85873 12.65286,-22.6168c6.69341,-16.73359 12.10113,-32.36922 10.40162,-50.75407c-0.56251,-6.08514 -4.31686,-11.50754 -5.38576,-17.52444c-2.20006,-12.38413 -1.551,-30.37574 4.87622,-41.43645c2.20514,-3.79486 4.88166,-7.07326 7.90243,-9.96319c-7.50635,4.33712 -14.54291,9.79012 -19.9668,16.16946c-2.71009,3.18748 1.13449,8.29445 1.47739,12.46424c0.08976,1.0914 -3.49871,20.44721 -4.12949,22.17331c-6.00196,16.42497 -17.76537,33.05209 -26.76274,48.03172c-14.63166,19.55493 -29.24203,38.78516 -31.50984,63.55182c-1.91749,20.94115 2.4753,41.71182 4.73437,62.59624c1.85983,-4.36816 3.52386,-8.7351 4.92458,-12.95999zM318.18146,396.42227c-7.73023,2.76611 -14.88944,7.4064 -20.96402,12.92972c-4.76482,4.33237 -11.69568,6.8204 -14.73088,12.50021c-15.35239,28.72902 6.25034,61.59671 1.10212,90.69514c-1.84443,10.42519 -7.72467,16.99163 -14.63773,22.5762c0.88802,2.76171 1.58241,5.55439 1.86836,8.36721c4.89515,-8.47676 9.9776,-16.50134 16.33213,-24.95119c8.14391,-13.59011 19.25154,-28.85076 24.63306,-43.74655c5.38789,-14.91345 -4.36241,-24.44611 4.69016,-38.78511c8.4077,-13.31747 26.83193,-23.52026 41.06387,-29.206c5.60771,-2.24031 12.08426,-2.18986 17.39243,-5.06894c2.28886,-1.24146 4.31165,-2.64359 6.1403,-4.16496c-19.16195,-2.83716 -38.20134,-5.23009 -57.56886,-5.88862c-1.64037,3.36261 -5.32098,4.74281 -5.32098,4.74281zM265.56434,509.07616c2.02428,-13.53644 -4.30954,-28.07727 -5.62762,-41.41366c-1.64179,-16.61128 -1.57165,-40.08518 6.72977,-55.11895c4.69645,-8.50522 13.81486,-16.23092 23.51773,-22.37089c-2.91063,0.05191 -5.58306,0.33558 -7.74525,1.01984c-17.06393,5.40044 -25.79919,19.35883 -34.39991,33.51152c-1.08283,3.17452 -1.76443,6.14377 -2.12452,8.97276c1.27115,3.98011 2.23174,8.06017 2.93289,12.13318c0.01151,3.66429 0.34128,7.83346 0.6311,12.12848c1.41586,4.21675 3.02769,8.59784 4.4894,13.42553c4.49396,14.84272 4.37667,30.40617 8.47197,45.44402c1.55271,-2.17371 2.67018,-4.69335 3.12453,-7.73175zM223.49198,558.00196c3.84502,-9.35299 10.07061,-17.93513 17.53772,-24.75454c2.07293,-1.8931 4.50717,-3.53017 7.02573,-5.12131c-1.64811,-3.87468 -3.33863,-7.65638 -4.33038,-11.12183c-1.76413,-6.16433 -2.59417,-12.58906 -3.39391,-18.99267c-2.00974,3.268 -4.19351,6.43278 -6.43302,9.50305c-1.96233,2.69023 -5.52599,3.77953 -7.89884,6.11574c-8.12451,7.99906 -11.19679,18.30754 -10.19214,29.4646c0.4502,4.99956 -0.66672,11.43162 3.11393,14.73386c1.20894,1.05596 2.72701,1.60549 4.29147,2.08914c0.09419,-0.64682 0.18755,-1.28568 0.27944,-1.91595zM241.53635,709.05292c7.53589,-5.38469 11.52514,-12.90019 16.03267,-20.72185c0.2291,-1.3286 0.40881,-2.676 0.53214,-4.04488c1.60804,-17.84396 -1.71491,-36.60204 -4.24662,-55.32643c-1.42193,1.70642 -3.19012,3.2491 -4.09798,5.24569c-1.66492,3.66146 -2.11678,7.76091 -3.17513,11.64134c-0.78518,2.07436 -1.59744,4.25497 -2.4148,6.51948c7.78651,10.44504 16.00152,19.67581 11.72131,35.2741c-1.99749,7.27934 -9.75645,11.53459 -14.24834,17.60101c-1.02693,1.38685 -1.5728,3.11974 -1.84845,4.96912zM241.22501,562.74213c-0.09684,0.69655 -0.19796,1.41169 -0.30167,2.1431c5.62799,-4.60211 10.3355,-9.70369 11.532,-17.24229c-4.73498,4.07943 -8.82934,8.77636 -11.23033,15.09918zM248.02734,580.81226c1.49288,1.96773 2.83196,3.93278 3.94885,5.83074c0.38557,-3.50262 0.96355,-6.97701 1.77525,-10.41633c-1.88043,1.50774 -3.8081,3.00863 -5.72406,4.58561zM237.74671,679.31843c-0.33379,1.851 -0.61447,3.72024 -0.89604,5.59076c1.31954,-1.75271 1.96864,-4.08741 1.35316,-8.01814c-0.15756,0.80417 -0.31029,1.61309 -0.45712,2.42744zM417.75073,382.32198c-0.23875,0.16642 -0.47275,0.33526 -0.70232,0.50635c0.98625,0.17856 1.9701,0.3593 2.95151,0.54211c0.2309,-0.74499 0.61164,-1.71772 1.21962,-2.6862zM403.79569,400.22469c-0.5595,0.87335 -1.14014,1.74405 -1.75385,2.60708c1.83832,-0.92942 3.53752,-1.68056 5.09575,-2.3516c-1.11317,-0.08924 -2.22698,-0.17276 -3.3419,-0.25547z" fill="url(#color-15)" stroke-width="0.5"/><path d="M223.02777,734.05422v-358.61554h38.24097v358.61554z" fill="url(#color-16)" stroke-width="0"/><g stroke-width="0"><path d="M83.83068,429.39345v-26.42123c0,0 23.13456,34.46247 63.75549,34.46247c81.43323,0 85.58183,-13.78503 85.58183,-13.78503v26.42123c0,0 -4.14858,13.78503 -85.58183,13.78503c-40.62095,0 -63.75549,-34.46247 -63.75549,-34.46247z" fill="url(#color-17)"/><path d="M83.83068,467.30209v-26.42123c0,0 23.13456,34.46247 63.75549,34.46247c81.43323,0 85.58183,-13.78503 85.58183,-13.78503v26.42123c0,0 -4.14858,13.78503 -85.58183,13.78503c-40.62095,0 -63.75549,-34.46247 -63.75549,-34.46247z" fill="url(#color-18)"/><path d="M86.58399,504.06207v-26.42123c0,0 22.28148,34.46247 61.40459,34.46247c78.43043,0 82.42604,-13.78503 82.42604,-13.78503v26.42123c0,0 -3.9956,13.78503 -82.42604,13.78503c-39.12304,0 -61.40459,-34.46247 -61.40459,-34.46247z" fill="url(#color-19)"/><path d="M94.84406,539.21743v-26.42123c0,0 20.85969,34.46247 57.48633,34.46247c73.42581,0 77.16642,-13.78503 77.16642,-13.78503v26.42123c0,0 -3.74062,13.78503 -77.16642,13.78503c-36.6266,0 -57.48633,-34.46247 -57.48633,-34.46247z" fill="url(#color-20)"/><path d="M115.0353,578.15863v-21.67316c0,0 17.44741,28.26933 48.0826,28.26933c61.41464,0 64.54339,-11.30775 64.54339,-11.30775v21.67316c0,0 -3.12874,11.30775 -64.54339,11.30775c-30.63513,0 -48.0826,-28.26933 -48.0826,-28.26933z" fill="url(#color-21)"/></g><g data-paper-data="{&quot;index&quot;:null}" stroke-width="0"><path d="M337.06084,463.85584c-81.43323,0 -85.58183,-13.78503 -85.58183,-13.78503v-26.42123c0,0 4.14858,13.78503 85.58183,13.78503c40.62095,0 63.75549,-34.46247 63.75549,-34.46247v26.42123c0,0 -23.13456,34.46247 -63.75549,34.46247z" fill="url(#color-22)"/><path d="M337.06084,501.76461c-81.43323,0 -85.58183,-13.78503 -85.58183,-13.78503v-26.42123c0,0 4.14858,13.78503 85.58183,13.78503c40.62095,0 63.75549,-34.46247 63.75549,-34.46247v26.42123c0,0 -23.13456,34.46247 -63.75549,34.46247z" fill="url(#color-23)"/><path d="M336.65838,538.52453c-78.43043,0 -82.42604,-13.78503 -82.42604,-13.78503v-26.42123c0,0 3.9956,13.78503 82.42604,13.78503c39.1231,0 61.40459,-34.46247 61.40459,-34.46247v26.42123c0,0 -22.28152,34.46247 -61.40459,34.46247z" fill="url(#color-24)"/><path d="M332.31661,573.6799c-73.42581,0 -77.16642,-13.78503 -77.16642,-13.78503v-26.42123c0,0 3.74062,13.78503 77.16642,13.78503c36.62663,0 57.48633,-34.46247 57.48633,-34.46247v26.42123c0,0 -20.85972,34.46247 -57.48633,34.46247z" fill="url(#color-25)"/><path d="M321.52911,606.42794c-61.41466,0 -64.54339,-11.30775 -64.54339,-11.30775v-21.67316c0,0 3.12877,11.30775 64.54339,11.30775c30.63513,0 48.0826,-28.26933 48.0826,-28.26933v21.67316c0,0 -17.44741,28.26933 -48.0826,28.26933z" fill="url(#color-26)"/></g><path d="M59.05054,396.54769v-21.10899h366.19546v21.10899z" fill="url(#color-27)" stroke-width="0"/><path d="M204.69368,764.64853v-140.38941h74.90926v140.38941z" fill="url(#color-28)" stroke-width="0"/></g><path d="M441.48188,385.98903c0.00231,10.91716 -9.11427,19.769 -20.36213,19.77132c-11.24797,0.00234 -20.3679,-8.84593 -20.37004,-19.76306c-0.00221,-10.91712 9.11427,-19.76884 20.36221,-19.77116c11.24797,-0.00234 20.3679,8.84587 20.37009,19.76299z" fill="url(#color-29)" stroke-width="0"/><path d="M83.54656,385.98903c0.00231,10.91716 -9.11427,19.769 -20.36213,19.77132c-11.24797,0.00234 -20.3679,-8.84593 -20.37004,-19.76306c-0.00221,-10.91712 9.11427,-19.76884 20.36221,-19.77116c11.24797,-0.00234 20.3679,8.84587 20.37009,19.76299z" fill="url(#color-30)" stroke-width="0"/></g><g><g><path d="M337.22893,326.68008c-2.74288,4.11426 -6.85717,1.37145 -6.85717,1.37145l-1.99879,-1.85599c-3.46623,-0.8513 -7.63329,-0.29736 -10.39876,-2.55385c-6.14867,-5.01712 -0.2587,-13.44634 -4.58597,-19.07611c-2.84173,-3.6971 -7.79796,-5.6545 -9.72405,-10.16603c-3.4616,-8.1083 4.99016,-19.43703 0.20871,-27.06025c-1.64378,-2.62072 -7.80845,-6.92342 -10.39343,-8.85405c0,0 -3.95581,-2.96686 -0.98893,-6.92268c2.96686,-3.95581 6.92268,-0.98893 6.92268,-0.98893c9.8501,7.41534 16.17415,13.49944 15.06127,26.56923c-0.38394,4.5089 -3.62827,9.39088 -1.67355,13.47217c1.70883,3.56789 6.38069,4.90005 8.61008,8.16808c5.57381,8.1705 -1.42064,17.53453 8.58776,17.65747l5.85866,3.38233c0,0 4.11426,2.74288 1.37145,6.85717z" fill="url(#color-31)" stroke="none" stroke-width="0.5"/><path d="M92.4452,41.06765c0,-4.94475 4.94475,-4.94475 4.94475,-4.94475h3.92876c4.1013,0 8.28225,0.86889 12.30375,0.06385c9.23523,-1.84875 17.21597,-9.1054 26.98368,-9.23092c24.97488,-0.32094 48.12117,16.10185 52.04,40.91376c0,0 0.6993,4.89507 -4.19577,5.59435c-4.89507,0.6993 -5.59435,-4.19577 -5.59435,-4.19577c-2.53711,-20.58334 -22.59479,-32.05209 -42.24988,-32.42281c-5.56294,-0.10495 -11.46165,4.22418 -16.44185,6.1715c-8.41428,3.29012 -14.05615,2.99558 -22.84561,2.99558h-3.92876c0,0 -4.94475,0 -4.94475,-4.94475z" fill="url(#color-32)" stroke="none" stroke-width="0.5"/><path d="M369.08626,58.20255c1.19928,4.79715 -3.59783,5.99641 -3.59783,5.99641l-5.83343,1.42018c-7.98801,-0.31721 -11.20887,7.86122 -19.66612,6.53113c-2.70371,-0.4252 -4.5571,-3.14923 -7.14004,-4.05433c-2.90372,-1.0175 -17.79693,-1.4392 -20.37123,-0.19245c-4.40742,2.13452 -6.68143,7.19993 -10.45431,10.32196c-5.06709,4.193 -10.84063,7.52711 -16.71684,10.48115c0,0 -4.42273,2.21137 -6.63409,-2.21137c-2.21137,-4.42273 2.21137,-6.63409 2.21137,-6.63409c10.3542,-5.14612 17.92303,-16.73847 27.83127,-21.10346c9.69143,-4.26951 24.24073,0.74055 32.72946,3.61074c3.3114,1.11967 11.50642,-6.40608 17.00218,-6.56471l4.64321,-1.19901c0,0 4.79715,-1.19928 5.99641,3.59783z" fill="url(#color-33)" stroke="none" stroke-width="0.5"/><path d="M322.369,82.15624c-3.08897,3.86119 -6.95021,0.77226 -6.95021,0.77226l-1.39548,-1.69225c-2.15228,-0.55551 -7.17388,-3.50154 -11.53285,-5.36868c0.44423,2.87958 -2.26506,4.68581 -2.26506,4.68581c-7.87364,5.21868 -12.71672,9.9904 -21.56803,13.83928c-1.54909,0.67363 -3.44971,1.30145 -5.51175,1.9482c-4.97051,4.26665 -10.16193,8.26958 -15.6369,11.81419c-1.68789,1.09281 -3.80216,2.40279 -6.06133,3.65445c-2.06226,7.88098 -0.26915,17.81499 -0.26915,25.07712c0,1.32742 -0.01554,2.62567 -0.04819,3.8984c2.5389,1.84297 3.72226,4.53462 6.73826,6.25351c5.51738,3.14452 16.98637,4.62309 23.10389,5.30887c2.68963,0.30151 5.73035,0.08197 8.84121,-0.18172c-1.36395,-6.15678 -3.63119,-12.40564 -4.42514,-17.03257c-1.46791,-8.55483 1.86092,-13.57214 4.95523,-21.29737c9.08705,-18.19048 17.46539,-25.91547 38.67683,-25.91547h0.65704c0,0 4.94475,0 4.94475,4.94475c0,4.94475 -4.94475,4.94475 -4.94475,4.94475h-0.65704c-17.36866,0 -22.21889,5.21823 -29.65521,20.07719c-1.51239,3.78627 -4.14352,7.20556 -4.88073,11.2155c-1.35396,7.36477 2.08854,14.98423 4.49119,22.61244c1.77078,0.06862 3.46801,0.28865 5.03234,0.76073c10.18509,3.07349 15.07819,15.1228 26.09158,19.20332c0,0 4.62992,1.73621 2.89372,6.36612c-1.73621,4.62992 -6.36616,2.89368 -6.36616,2.89368c-7.55216,-2.86105 -14.29882,-6.42814 -19.78138,-12.60888c-1.98281,-2.23531 -2.00264,-5.64111 -5.37608,-6.29607c-0.13849,-0.02686 -0.27702,-0.05319 -0.41559,-0.07899c0.08888,2.26247 -0.14727,4.51587 -0.86332,6.75375c-5.35091,16.72317 -24.37092,20.18618 -38.73424,24.16189c-1.61562,0.4472 -3.28419,0.92332 -4.98728,1.35284c0.90895,1.27216 1.76007,2.65186 2.55603,4.21476c7.22735,3.40624 14.5821,6.91142 20.87229,13.15722c15.93613,15.82373 20.64511,36.27497 26.30503,57.46894c0,0 1.27409,4.77779 -3.50374,6.05187c-4.77784,1.27409 -6.05191,-3.50374 -6.05191,-3.50374c-5.17333,-19.42932 -9.19028,-38.35679 -23.62991,-52.91349c-2.68046,-2.70217 -6.44225,-5.58043 -10.26987,-8.10607c3.33226,13.34037 7.27255,27.70617 6.15678,41.06838c-0.30789,3.6869 -1.3227,13.18282 -4.80064,16.33991c-3.98018,3.61297 -7.82402,3.38803 -11.83572,3.06733c-1.99489,11.73009 -6.1729,24.43735 -9.26181,33.1278c0,0 -1.66309,4.65671 -6.31982,2.9936c-4.65671,-1.66309 -2.99357,-6.31982 -2.99357,-6.31982c3.30535,-9.20738 4.55875,-18.39201 6.33504,-27.75855c-7.38021,4.53873 -10.99478,15.03154 -11.88366,22.80758c0,0 -0.61335,4.90659 -5.5199,4.29328c-4.90655,-0.61335 -4.29328,-5.5199 -4.29328,-5.5199c1.82241,-13.67715 9.17673,-29.71359 24.13867,-33.10886c0.06162,-0.01395 0.12881,-0.02614 0.20123,-0.0366c0.93233,-3.78337 1.69182,-8.3311 -0.05957,-11.07101c-3.07037,-4.80334 -8.36908,-8.06437 -10.91917,-13.163c-5.92557,-11.84741 -5.37788,-28.53563 -2.32699,-42.96252c-5.31814,5.53691 -10.70732,10.99508 -14.23509,17.7693c-3.13795,6.02565 -6.8725,13.62828 -8.83274,20.12447c-1.84688,6.12071 -1.53129,15.57899 -6.50191,20.49229c-4.97037,4.91307 -14.31232,4.70743 -20.57948,4.73349l-4.15354,-2.10533c0,0 -3.49648,-3.49648 0,-6.99298c2.3634,-2.3634 4.7268,-1.53177 6.01038,-0.7446c3.62882,0.11058 9.67734,0.23556 11.72963,-1.88357c2.97485,-3.07163 2.88937,-12.64511 4.01073,-16.30186c2.14056,-6.98045 6.12151,-15.44316 9.56437,-21.92597c4.84348,-9.12021 12.70863,-15.78176 19.41556,-23.41163c-0.1049,-0.32204 -0.17112,-0.64235 -0.21017,-0.94722c-2.1465,-0.31639 -4.3787,-0.47658 -6.35061,-1.23819c-1.71294,-3.51083 -3.00057,-7.08918 -3.96339,-10.71922c-2.13325,2.19303 -4.50601,4.20833 -6.93203,6.63475c-13.50279,13.50487 -37.06927,31.55142 -56.94407,28.30711c0,0 -4.86502,-0.88457 -3.98046,-5.74956c0.88453,-4.86497 5.74956,-3.98046 5.74956,-3.98046c15.74635,3.27615 37.66978,-15.05935 48.18204,-25.57007c3.81873,-3.81816 8.77834,-6.78267 10.70043,-12.05658c0.31744,-0.871 0.59775,-1.74597 0.84658,-2.62429c-0.23887,-3.35822 -0.32611,-6.74073 -0.33448,-10.13613c-19.03168,-4.38558 -44.76455,-12.95103 -58.29438,5.65587l-0.57885,2.53905c0,0 -1.56369,4.69103 -6.25471,3.12733c-4.69103,-1.56369 -3.12733,-6.25471 -3.12733,-6.25471l2.04932,-5.3454c16.82034,-21.91127 43.32285,-14.8942 66.34128,-9.78552c0.24798,-11.07094 0.57178,-22.15856 -1.51868,-32.87089c-2.50562,-12.83963 -21.37859,-27.0556 -31.94966,-33.62753c0,0 -4.19317,-2.6207 -1.57244,-6.81383c2.62072,-4.19317 6.81388,-1.57244 6.81388,-1.57244c13.23575,8.31132 32.86375,24.02316 36.38235,39.96085c0.94255,4.26951 1.14627,8.71544 1.02205,13.23657c0.68421,-1.55365 1.32987,-2.80362 1.77629,-3.18461c4.16345,-3.55374 10.36936,-3.62416 15.73997,-4.6825c1.28418,-0.25304 2.60461,-0.66047 3.94407,-1.18855c0.86284,-2.21371 2.05104,-4.32608 3.67966,-6.28937c4.96331,-5.9832 13.38697,-8.59258 21.0437,-11.16812c7.52177,-7.47107 15.41833,-19.15182 24.54005,-22.56891c8.43818,-3.16104 16.14521,4.60901 23.82928,6.45035l5.17486,3.56406c0,0 3.86123,3.08897 0.77226,6.95017zM230.71379,118.00568c-2.20095,1.90433 -1.86595,5.5147 -2.88786,8.23982c-1.70916,3.87329 -2.44939,7.9648 -2.88087,12.14375c5.37938,0.41782 10.95312,-0.37873 16.25793,-0.16531c0.06615,-2.53421 0.08584,-5.15959 0.08584,-7.9076c0,-4.59191 -0.31208,-9.4443 -0.05913,-14.19293c-4.79107,1.05147 -6.36289,-1.71109 -10.51597,1.88228zM260.02559,158.07801c-3.99334,-1.147 -6.82928,-3.96992 -9.70851,-6.28361c-0.94914,7.27905 -2.76044,13.98523 -5.80895,21.04544l0.32299,0.2025c-0.40342,2.12462 -0.80679,4.24916 -1.21016,6.37379c0.61702,1.19445 1.25656,2.37697 2.14595,3.30418c1.09339,1.13987 2.14049,2.18451 3.14284,3.17806c13.49778,0.16987 32.1237,-7.40741 39.37474,-16.51697c1.84885,-2.32277 2.56666,-5.27633 2.60526,-8.53473c-10.21687,-0.51955 -20.60466,0.17833 -30.86418,-2.76858zM224.85983,158.62186c0.69921,5.57558 -0.25628,10.54872 1.06858,16.01952c1.41257,0.30405 2.92055,0.37078 4.40957,0.47884l0.29175,-0.37328c0.10277,-0.00205 0.20595,-0.00578 0.30945,-0.01102c-0.34487,-0.94385 -0.38653,-2.13238 0.23686,-3.58697c1.11479,-2.60124 3.08036,-3.07562 4.55766,-3.00567c2.8022,-6.86539 4.20775,-13.35703 4.90227,-20.28041c-5.19471,-0.51596 -10.8964,0.29421 -16.42784,0.13205c-0.15907,1.96627 -0.35947,3.93001 -0.66722,5.87826c0.59895,1.5482 1.11397,3.11462 1.31888,4.74858zM241.29667,202.43691c-1.07137,-0.56943 -2.09247,-1.25526 -3.06909,-2.02825c-1.97138,11.36616 -2.05749,23.74644 2.37783,32.62077c4.56825,9.14025 11.11725,10.26173 12.52003,21.0529c0.31176,2.3984 0.36473,5.03583 0.21461,7.82704c1.72454,-0.08331 3.17988,-0.37191 3.93351,-1.0604c2.65795,-2.42811 2.14085,-12.87989 1.7849,-16.25248c-1.40156,-13.27906 -4.83701,-26.29095 -7.71631,-39.23474c-0.08073,-0.22924 -0.17129,-0.46901 -0.27117,-0.71813c-3.28601,-0.66893 -6.83422,-0.64401 -9.77433,-2.20674z" fill="url(#color-34)" stroke="none" stroke-width="0.5"/><path d="M202.8797,299.13929c-17.82998,-6.95849 -11.41347,-18.55021 -19.68523,-30.79298c-2.97429,-4.40217 -10.65549,-6.87638 -14.54888,-9.11228c-12.16863,-6.98814 -12.59111,-6.84177 -19.70868,-20.38991c-7.72043,-14.69573 0.96355,-28.00899 -6.97549,-40.62767c-8.58973,-11.47279 -17.39282,-37.34589 -11.02782,-52.14747c0.46836,-1.08916 13.23443,-10.33942 14.08748,-14.68341c1.26269,-6.43028 -3.73851,-12.84174 -3.30073,-19.38024c1.03678,-15.48431 12.57952,-29.05742 19.59209,-41.54103c3.33708,-5.94055 1.80598,-13.88866 5.28861,-19.74507c3.4031,-5.72262 11.44971,-9.47421 14.34072,-15.94211c1.87714,-4.19963 0.717,-9.83683 3.77402,-13.27411c10.29779,-11.57845 35.09025,-12.41763 48.89058,-11.0712c7.81598,-1.12389 15.80699,0.03473 23.68058,0.63342c18.65947,1.41885 32.80122,-9.01402 50.47181,2.96946c9.26316,6.28191 16.09713,16.92779 14.73005,28.75949c-0.37455,3.24139 -5.43228,4.11057 -6.73779,7.10097c-1.56241,3.5788 5.78328,5.24869 8.67897,7.8686c6.48465,5.86711 11.63475,13.90102 13.63224,22.41474c3.15095,13.43002 6.17367,34.58982 4.10157,48.23452c-0.50267,3.3099 -3.33008,6.04969 -3.566,9.38924c-0.26139,3.70037 10.39503,13.09342 10.42902,13.16217c2.84359,5.75401 3.53368,12.34062 5.30051,18.51092c-3.45346,2.85339 -7.46869,5.13873 -10.36034,8.56017c-7.54295,8.92482 0.8678,27.16756 -0.9701,37.17086c-1.70775,9.2951 -8.2,19.4894 -14.68046,25.96583c-4.09332,4.09073 -10.47348,6.59976 -12.54171,12.00453c-5.11495,13.36656 0.90414,24.93966 -10.83821,36.78598c-4.33207,4.37042 -18.40274,10.71779 -28.15412,13.50951c-2.16644,2.87088 -5.64578,3.84161 -5.64578,3.84161c-9.88134,2.64528 -23.75845,13.97283 -34.27857,11.00256c-6.39338,-1.80512 -9.42953,-8.74302 -13.15352,-14.74216c-2.13664,0.43916 -4.21403,0.83697 -6.18804,1.13074l-3.91274,0.5822c0,0 -8.24949,1.22757 -10.72412,-6.14779zM230.8232,282.0976c5.78313,-1.07234 11.58452,-1.91085 16.85267,-1.71693c7.30554,0.26887 14.10726,4.66572 21.41755,4.71987c5.52844,0.04094 10.20458,-4.93642 14.58681,-7.04848c2.48228,-1.19635 5.68418,-0.90567 7.83972,-2.62226c5.70761,-4.54544 3.21815,-23.42789 5.93094,-29.69922c6.14361,-14.20253 16.24072,-14.93074 23.2903,-27.11134c9.43481,-16.30186 -10.50877,-47.7894 14.76659,-55.22928c-8.84886,-4.62879 -15.94248,-14.59066 -16.67436,-24.82866c-0.3224,-4.50971 3.04326,-8.56766 3.76269,-13.03127c1.52777,-9.47873 -1.68439,-22.42557 -2.50093,-31.94455c-0.04399,-0.51283 -1.99895,-14.8448 -2.95542,-16.35598c-3.56908,-5.63901 -11.69701,-7.43829 -15.04082,-13.21374c-3.06975,-5.30205 -6.11655,-11.30357 -5.84893,-17.42432c0.15754,-3.60232 5.47955,-4.98817 6.97234,-8.27038c1.44803,-3.18368 -3.85977,-6.0593 -6.74314,-8.03887c-8.72473,-5.98984 -17.40252,-0.76241 -27.02419,0.05436c-12.52778,1.06345 -23.02632,-2.0321 -35.34951,-0.13192c-11.19953,-1.09273 -17.75911,0.1341 -28.51843,2.81548c-1.87218,0.46659 -4.60186,-0.46117 -5.67436,1.14274c-1.63221,2.44096 0.26943,6.08524 -0.94616,8.75825c-3.23867,7.12135 -11.12124,11.18343 -15.29987,17.79724c-3.51249,5.55937 -1.87339,13.27921 -4.92816,19.10268c-4.96066,9.45696 -17.03632,21.58357 -17.26865,33.26633c-0.1603,8.06221 5.11091,13.72298 2.90975,22.35554c-1.42339,5.58218 -5.15012,10.41545 -8.7927,14.87839c-1.67501,2.05225 -5.43979,1.88122 -6.76049,4.17752c-0.94508,1.6432 0.83852,3.69927 1.15539,5.56821c1.95717,11.5444 0.84259,18.1768 8.45138,27.19987c2.30429,4.43902 5.82908,8.43442 6.91275,13.31708c2.6418,11.9036 -4.77109,18.12508 1.1412,29.13863c7.68773,14.32081 23.45178,14.04695 32.83298,27.17052c2.65118,3.70881 3.92678,8.24735 5.44656,12.54551c1.28559,3.63575 0.17672,10.59957 4.02514,10.8462c7.28943,0.46712 15.77241,-1.61725 22.03148,1.8129z" fill="url(#color-35)" stroke="none" stroke-width="0.5"/><g stroke="none" stroke-width="0.5"><path d="M136.79565,157.94494c0,-5.18848 4.5369,-5.84012 5.67644,-5.92197c3.56367,-1.08236 13.19673,-4.03156 14.92656,-3.96526c11.91661,0.45671 21.89255,9.20973 32.27197,13.57107c8.14865,2.7838 16.51854,3.29096 24.98133,2.73933c-0.05867,-0.2352 -0.11733,-0.47038 -0.17587,-0.70561c-2.57749,-1.62276 -5.10541,-3.25432 -7.57614,-4.85966c-3.04732,-2.94036 -6.81779,-5.28126 -9.14194,-8.8211c-7.38071,-11.24159 -3.76243,-27.02619 -9.59557,-39.54255c-3.52929,-7.5729 -11.17526,-13.16284 -18.15808,-17.29215l-3.55662,-1.75875c0,0 -5.30727,-2.65362 -2.65362,-7.96092c2.65362,-5.30727 7.96092,-2.65362 7.96092,-2.65362l4.35502,2.19708c12.87379,7.81706 21.33415,17.04859 26.29008,31.49942c4.35722,12.70503 0.9003,22.27682 8.89671,31.93803c-1.51521,-15.47548 -0.06971,-31.74724 -0.00013,-47.14115c0.04501,-9.9646 7.63485,-20.67462 5.43316,-30.2832c-3.72992,-16.27792 -15.49225,-24.48511 0.59477,-38.83361c0,0 4.50519,-3.86162 8.36682,0.64361c3.86162,4.50519 -0.64361,8.36682 -0.64361,8.36682c-12.14886,9.78676 5.22443,25.04388 3.30073,38.71962c-0.79392,5.64421 -4.25332,10.66266 -5.24176,16.27604c-3.60931,20.49715 -0.49521,42.06102 2.9602,62.77708c0.08007,0.04851 0.16013,0.09694 0.24027,0.14543c2.06915,-5.37446 5.4657,-10.19773 9.14365,-14.53786c0.09889,-0.0852 0.23945,-0.20693 0.41532,-0.35938c5.03517,-15.27911 8.91679,-30.58596 4.65077,-47.28002c-2.62567,-10.27489 -8.30606,-21.96454 -4.45752,-33.29554c2.62125,-7.7176 12.13318,-11.96212 18.41011,-15.60016c6.45932,-3.74378 12.58965,-7.7412 18.9936,-11.36999c-0.29312,-0.91646 -0.3552,-2.03625 -0.01486,-3.3975c1.43911,-5.75654 7.1957,-4.31743 7.1957,-4.31743l3.44863,2.29298c0.52684,-0.21653 5.50601,-2.10033 7.78687,3.03155c1.70844,3.84393 -0.51933,6.17399 -1.96103,7.20478c0.40452,2.21516 0.40231,4.53256 -0.3947,7.38978c-3.09269,11.08688 -14.80932,16.446 -16.2907,28.70418c-1.92289,15.91171 4.35205,31.43665 7.534,47.02376c5.42338,-6.22412 9.77335,-13.52621 17.12084,-17.82761c6.94847,-4.06779 13.8248,-4.14364 21.5344,-4.15482h0.65931c0,0 5.93371,0 5.93371,5.93371c0,5.93371 -5.93371,5.93371 -5.93371,5.93371h-0.65931c-19.08077,-0.03087 -23.5644,14.16276 -36.92756,24.38753c0.00357,0.22192 0.00578,0.44392 0.00669,0.66592c-0.02814,7.6303 -2.30284,14.7815 -4.92525,21.84194c0.15265,0.03232 0.30519,0.0653 0.45768,0.099c23.30367,5.15122 28.94343,36.86939 47.31712,48.94161c0,0 4.93716,3.29142 1.64573,8.22859c-3.29142,4.93716 -8.22859,1.64573 -8.22859,1.64573c-7.66086,-5.16812 -15.96692,-12.31317 -20.88696,-20.29618c-5.14512,-8.34821 -10.79945,-24.79217 -22.77957,-27.02027c-0.57672,-0.10728 -1.15924,-0.19719 -1.74688,-0.27113c-0.52126,1.50516 -1.0122,3.01564 -1.45457,4.53518c11.92356,8.94484 13.79355,21.73288 23.03104,32.29084c11.61603,13.27653 20.51006,18.1629 20.53535,37.47091c0,0 0,5.93371 -5.93371,5.93371c-5.93371,0 -5.93371,-5.93371 -5.93371,-5.93371c0.02329,-16.08696 -7.9189,-18.40335 -17.70415,-29.77787c-6.95425,-8.08373 -9.62452,-17.73204 -16.1657,-25.60152c0.01989,1.09228 0.08798,2.19402 0.21,3.30639c1.16388,10.61003 1.63432,23.67674 5.00532,33.71405c4.28533,12.75955 12.87668,21.0698 10.12611,35.73666c-2.14623,11.44438 -7.2347,20.42198 -13.41075,30.01899c0,0 -3.2235,4.9818 -8.20524,1.75828c-4.9818,-3.2235 -1.75828,-8.20524 -1.75828,-8.20524c5.3091,-8.15566 9.71309,-15.6402 11.6427,-25.36236c2.40755,-12.13004 -6.11226,-19.50658 -9.65293,-30.19352c-3.56585,-10.76288 -4.48826,-24.786 -5.54348,-36.17192c-0.3699,-3.9915 -0.13166,-7.81201 0.49386,-11.52082c-1.827,-0.03232 -3.77024,0.08782 -6.08719,-0.55517c-3.37129,-0.93552 -6.72276,-2.1056 -10.04213,-3.45362c1.66303,12.52729 5.94018,24.41317 7.01189,38.16452c1.65871,21.28407 -7.85803,41.5519 -6.14607,63.05506c0.77022,0.89671 3.45322,4.53969 -0.18971,8.18265c-4.19577,4.19577 -8.39154,0 -8.39154,0l-3.02026,-4.85912c-2.45861,-22.42193 7.87553,-43.62088 5.91469,-65.47368c-0.88721,-9.88767 -3.0875,-18.7812 -4.88358,-27.6089c-0.65081,3.0985 -1.5277,6.14602 -2.81519,9.08973c-0.48351,6.52664 -1.83965,12.96485 -4.72881,19.22757c-3.00047,6.50394 -6.62926,11.40055 -8.10465,18.90936c-3.20745,16.32372 9.26067,35.39027 9.30684,52.45296v1.3186c0,0 0,5.93371 -5.93371,5.93371c-5.93371,0 -5.93371,-5.93371 -5.93371,-5.93371v-1.3186c0.05796,-18.39309 -12.51745,-36.24839 -9.15359,-54.35392c1.178,-6.3404 3.71692,-11.46248 6.39259,-16.70292c-4.67789,2.96544 -9.73005,5.18063 -14.41502,5.75295c-1.72098,0.21023 -10.95254,-1.27701 -13.11924,-1.28568c-9.51281,-0.03805 -18.77425,3.42675 -26.88798,7.86177c0,0 -5.22447,2.81317 -8.03765,-2.41132c-2.81317,-5.22447 2.41132,-8.03765 2.41132,-8.03765c8.91873,-4.7414 15.62396,-6.85717 25.59756,-8.54422c6.57759,-1.11266 12.49376,1.19612 18.7858,0.61572c6.82319,-0.6294 15.64108,-8.21182 19.87735,-13.15099c0.90092,-1.05034 1.68786,-2.11731 2.37658,-3.1997c0.26922,-6.59161 -0.48893,-13.29323 -1.14327,-19.85657c-0.01495,-0.09771 -0.0301,-0.19532 -0.04543,-0.29288c-11.00208,0.38831 -22.07184,-0.30111 -31.77905,-3.47826c-8.49928,-3.69952 -18.71505,-12.3015 -28.38378,-12.80097c-4.17327,-0.21558 -7.97314,2.5068 -11.97565,3.70785l-2.36435,0.25025c0,0 -5.93371,0 -5.93371,-5.93371zM261.37698,144.7589c-3.38242,0.05579 -7.08015,-1.94037 -10.13672,-0.49087c-2.06621,0.97987 -3.59749,2.75155 -5.17652,4.46269c-1.0339,3.23843 -2.14456,6.5615 -3.3061,10.02763c-0.09724,0.53935 -0.18596,1.07574 -0.2666,1.60937c8.05346,-1.3365 16.06481,-2.43242 23.9253,-2.25647c1.63812,-4.64678 3.06291,-9.33702 3.76099,-14.2084c-2.2261,0.63279 -4.6888,0.78828 -8.80033,0.85608zM261.48563,171.72696c0.099,-0.29689 0.19918,-0.59342 0.30036,-0.88962c-1.0915,0.12689 -2.1859,0.27596 -3.2796,0.43987c0.98457,0.16824 1.98269,0.30737 2.97919,0.44973zM266.93082,132.48852c1.19537,-0.39149 2.31929,-0.85459 3.38213,-1.37889c-1.90481,-18.88445 -11.53539,-37.5048 -8.87115,-56.90808c1.42939,-10.40999 10.4789,-18.40251 14.12236,-27.09332c-5.04454,2.99962 -9.97414,6.17581 -15.13798,9.16197c-3.03192,1.75331 -12.09411,5.19248 -13.23636,9.45327c-3.15987,11.7865 4.77957,25.02957 5.62888,36.43141c0.84057,11.28455 -0.13386,20.82871 -2.21315,30.2261c5.51636,-0.50607 10.87449,1.89259 16.32531,0.10753z" fill="url(#color-36)"/><path d="M206.22127,25.56135c2.15223,-6.93257 9.32701,-5.77869 9.32701,-5.77869l3.40298,0.54725c1.71683,0.27612 3.52359,0.65001 5.38188,1.06285c3.23889,-5.63897 5.87948,-12.1603 11.43998,-13.85703c9.14959,-2.79192 21.21884,7.85553 29.81288,10.34199c0,0 3.02603,0.91242 4.91028,3.61093c8.48101,2.62406 20.71865,8.59039 24.48634,12.69837c10.21259,11.13504 4.97767,22.01325 9.42628,34.57729c1.7988,5.08029 7.34776,7.43865 10.90785,11.28377c5.63619,6.08755 11.28264,15.66985 12.76793,24.40683c1.59843,9.40271 -5.71658,26.55013 0.84367,34.93909c2.51495,3.21606 6.00709,5.36411 9.01067,8.04621c-1.53667,5.79986 -2.13681,11.99101 -4.60997,17.39956c-0.02955,0.06459 -9.2977,8.89368 -9.07035,12.37192c0.20519,3.13904 2.66423,5.71432 3.10143,8.8255c1.80214,12.82549 -0.8268,32.71484 -3.56727,45.33853c-1.73728,8.00251 -6.2164,15.55413 -11.85627,21.06895c-2.51842,2.4626 -8.90717,4.03227 -7.54832,7.39617c1.1354,2.81089 5.53427,3.62784 5.85998,6.67465c1.18899,11.12132 -4.75468,21.12802 -12.81109,27.03275c-15.36857,11.26399 -27.66798,1.45748 -43.89653,2.79119c-6.84787,0.56275 -13.79784,1.6518 -20.59556,0.59538c-12.00248,1.26564 -33.56509,0.47681 -42.52131,-10.40646c-2.65878,-3.2309 -1.64978,-8.52965 -3.28238,-12.47713c-2.51441,-6.07958 -9.5127,-9.60589 -12.47248,-14.98493c-3.02892,-5.50482 -1.69729,-12.97569 -4.59964,-18.55959c-6.09904,-11.73411 -16.13804,-24.49228 -17.03974,-39.0469c-0.38075,-6.14591 3.96891,-12.17237 2.87073,-18.21662c-0.74191,-4.08319 -11.84485,-12.77808 -12.25221,-13.80183c-5.53584,-13.9129 2.12047,-38.23254 9.59118,-49.01652c6.90476,-11.86101 -0.64793,-24.37499 6.06675,-38.18839c6.19035,-12.73471 6.55776,-12.59717 17.14112,-19.16571c3.38618,-2.10164 10.06672,-4.42729 12.65352,-8.56516c7.19416,-11.50768 1.61354,-22.40346 17.1207,-28.94415zM230.52447,41.57977c-5.44366,3.22422 -12.82157,1.26495 -19.16135,1.70404c-3.34708,0.23186 -2.38267,6.77752 -3.50079,10.195c-1.32178,4.04008 -2.43119,8.3061 -4.737,11.79228c-8.15906,12.33565 -21.86946,12.07822 -28.55565,25.5392c-5.14207,10.35227 1.30512,16.20027 -0.99256,27.38915c-0.94246,4.5895 -4.00811,8.34501 -6.01221,12.51748c-6.61753,8.48134 -5.64817,14.71554 -7.35036,25.56679c-0.27556,1.75673 -1.82684,3.6893 -1.00484,5.23387c1.14865,2.15845 4.42295,1.99768 5.87976,3.92669c3.16806,4.19498 6.4093,8.73813 7.64726,13.98511c1.91442,8.11428 -2.67005,13.43519 -2.53069,21.01334c0.20206,10.98132 10.70454,22.37986 15.01894,31.26902c2.65682,5.47384 1.23125,12.73019 4.28617,17.95577c3.63425,6.21672 10.48998,10.0349 13.30671,16.72868c1.05723,2.51248 -0.59669,5.93799 0.82289,8.2324c0.93276,1.50759 3.30688,0.63554 4.93516,1.07417c9.35764,2.52039 15.06265,3.67357 24.80316,2.64645c10.71776,1.78609 19.84863,-1.12361 30.74432,-0.12401c8.3682,0.7677 15.91554,5.68134 23.50366,0.05111c2.50775,-1.86072 7.12405,-4.56371 5.86463,-7.55623c-1.29833,-3.08514 -5.92703,-4.38774 -6.06404,-7.7738c-0.23274,-5.75327 2.41717,-11.39448 5.08697,-16.37814c2.9082,-5.42868 9.97727,-7.11993 13.08138,-12.42043c0.83185,-1.42045 2.53216,-14.89192 2.5704,-15.37392c0.71019,-8.94745 3.50386,-21.117 2.1751,-30.02663c-0.62572,-4.19561 -3.55291,-8.00992 -3.27253,-12.24888c0.63652,-9.6233 6.80604,-18.9871 14.50211,-23.33793c-21.98262,-6.99319 -4.63719,-36.59021 -12.84289,-51.91333c-6.13123,-11.44927 -14.91292,-12.13377 -20.25617,-25.48355c-2.35936,-5.89477 -0.19424,-23.64357 -5.15826,-27.91609c-1.87473,-1.61354 -4.65949,-1.34031 -6.81838,-2.46484c-3.81134,-1.98521 -7.87827,-6.66376 -12.68648,-6.62527c-6.35793,0.05088 -12.27357,4.18376 -18.62741,4.43653c-4.58183,0.18229 -9.62745,-0.60592 -14.65716,-1.61384z" data-paper-data="{&quot;index&quot;:null}" fill="url(#color-37)"/></g><path d="M206.22127,25.56135c2.15223,-6.93257 9.32701,-5.77869 9.32701,-5.77869l3.40298,0.54725c1.71683,0.27612 3.52359,0.65001 5.38188,1.06285c3.23889,-5.63897 5.87948,-12.1603 11.43998,-13.85703c9.14959,-2.79192 21.21884,7.85553 29.81288,10.34199c0,0 3.02603,0.91242 4.91028,3.61093c8.48101,2.62406 20.71865,8.59039 24.48634,12.69837c10.21259,11.13504 4.97767,22.01325 9.42628,34.57729c1.7988,5.08029 7.34776,7.43865 10.90785,11.28377c5.63619,6.08755 11.28264,15.66985 12.76793,24.40683c1.59843,9.40271 -5.71658,26.55013 0.84367,34.93909c2.51495,3.21606 6.00709,5.36411 9.01067,8.04621c-1.53667,5.79986 -2.13681,11.99101 -4.60997,17.39956c-0.02955,0.06459 -9.2977,8.89368 -9.07035,12.37192c0.20519,3.13904 2.66423,5.71432 3.10143,8.8255c1.80214,12.82549 -0.8268,32.71484 -3.56727,45.33853c-1.73728,8.00251 -6.2164,15.55413 -11.85627,21.06895c-2.51842,2.4626 -8.90717,4.03227 -7.54832,7.39617c1.1354,2.81089 5.53427,3.62784 5.85998,6.67465c1.18899,11.12132 -4.75468,21.12802 -12.81109,27.03275c-15.36857,11.26399 -27.66798,1.45748 -43.89653,2.79119c-6.84787,0.56275 -13.79784,1.6518 -20.59556,0.59538c-12.00248,1.26564 -33.56509,0.47681 -42.52131,-10.40646c-2.65878,-3.2309 -1.64978,-8.52965 -3.28238,-12.47713c-2.51441,-6.07958 -9.5127,-9.60589 -12.47248,-14.98493c-3.02892,-5.50482 -1.69729,-12.97569 -4.59964,-18.55959c-6.09904,-11.73411 -16.13804,-24.49228 -17.03974,-39.0469c-0.38075,-6.14591 3.96891,-12.17237 2.87073,-18.21662c-0.74191,-4.08319 -11.84485,-12.77808 -12.25221,-13.80183c-5.53584,-13.9129 2.12047,-38.23254 9.59118,-49.01652c6.90476,-11.86101 -0.64793,-24.37499 6.06675,-38.18839c6.19035,-12.73471 6.55776,-12.59717 17.14112,-19.16571c3.38618,-2.10164 10.06672,-4.42729 12.65352,-8.56516c7.19416,-11.50768 1.61354,-22.40346 17.1207,-28.94415zM230.52447,41.57977c-5.44366,3.22422 -12.82157,1.26495 -19.16135,1.70404c-3.34708,0.23186 -2.38267,6.77752 -3.50079,10.195c-1.32178,4.04008 -2.43119,8.3061 -4.737,11.79228c-8.15906,12.33565 -21.86946,12.07822 -28.55565,25.5392c-5.14207,10.35227 1.30512,16.20027 -0.99256,27.38915c-0.94246,4.5895 -4.00811,8.34501 -6.01221,12.51748c-6.61753,8.48134 -5.64817,14.71554 -7.35036,25.56679c-0.27556,1.75673 -1.82684,3.6893 -1.00484,5.23387c1.14865,2.15845 4.42295,1.99768 5.87976,3.92669c3.16806,4.19498 6.4093,8.73813 7.64726,13.98511c1.91442,8.11428 -2.67005,13.43519 -2.53069,21.01334c0.20206,10.98132 10.70454,22.37986 15.01894,31.26902c2.65682,5.47384 1.23125,12.73019 4.28617,17.95577c3.63425,6.21672 10.48998,10.0349 13.30671,16.72868c1.05723,2.51248 -0.59669,5.93799 0.82289,8.2324c0.93276,1.50759 3.30688,0.63554 4.93516,1.07417c9.35764,2.52039 15.06265,3.67357 24.80316,2.64645c10.71776,1.78609 19.84863,-1.12361 30.74432,-0.12401c8.3682,0.7677 15.91554,5.68134 23.50366,0.05111c2.50775,-1.86072 7.12405,-4.56371 5.86463,-7.55623c-1.29833,-3.08514 -5.92703,-4.38774 -6.06404,-7.7738c-0.23274,-5.75327 2.41717,-11.39448 5.08697,-16.37814c2.9082,-5.42868 9.97727,-7.11993 13.08138,-12.42043c0.83185,-1.42045 2.53216,-14.89192 2.5704,-15.37392c0.71019,-8.94745 3.50386,-21.117 2.1751,-30.02663c-0.62572,-4.19561 -3.55291,-8.00992 -3.27253,-12.24888c0.63652,-9.6233 6.80604,-18.9871 14.50211,-23.33793c-21.98262,-6.99319 -4.63719,-36.59021 -12.84289,-51.91333c-6.13123,-11.44927 -14.91292,-12.13377 -20.25617,-25.48355c-2.35936,-5.89477 -0.19424,-23.64357 -5.15826,-27.91609c-1.87473,-1.61354 -4.65949,-1.34031 -6.81838,-2.46484c-3.81134,-1.98521 -7.87827,-6.66376 -12.68648,-6.62527c-6.35793,0.05088 -12.27357,4.18376 -18.62741,4.43653c-4.58183,0.18229 -9.62745,-0.60592 -14.65716,-1.61384z" data-paper-data="{&quot;index&quot;:null}" fill="url(#color-38)" stroke="none" stroke-width="0.5"/><path d="M202.8797,299.13929c-17.82998,-6.95849 -11.41347,-18.55021 -19.68523,-30.79298c-2.97429,-4.40217 -10.65549,-6.87638 -14.54888,-9.11228c-12.16863,-6.98814 -12.59111,-6.84177 -19.70868,-20.38991c-7.72043,-14.69573 0.96355,-28.00899 -6.97549,-40.62767c-8.58973,-11.47279 -17.39282,-37.34589 -11.02782,-52.14747c0.46836,-1.08916 13.23443,-10.33942 14.08748,-14.68341c1.26269,-6.43028 -3.73851,-12.84174 -3.30073,-19.38024c1.03678,-15.48431 12.57952,-29.05742 19.59209,-41.54103c3.33708,-5.94055 1.80598,-13.88866 5.28861,-19.74507c3.4031,-5.72262 11.44971,-9.47421 14.34072,-15.94211c1.87714,-4.19963 0.717,-9.83683 3.77402,-13.27411c10.29779,-11.57845 35.09025,-12.41763 48.89058,-11.0712c7.81598,-1.12389 15.80699,0.03473 23.68058,0.63342c18.65947,1.41885 32.80122,-9.01402 50.47181,2.96946c9.26316,6.28191 16.09713,16.92779 14.73005,28.75949c-0.37455,3.24139 -5.43228,4.11057 -6.73779,7.10097c-1.56241,3.5788 5.78328,5.24869 8.67897,7.8686c6.48465,5.86711 11.63475,13.90102 13.63224,22.41474c3.15095,13.43002 6.17367,34.58982 4.10157,48.23452c-0.50267,3.3099 -3.33008,6.04969 -3.566,9.38924c-0.26139,3.70037 10.39503,13.09342 10.42902,13.16217c2.84359,5.75401 3.53368,12.34062 5.30051,18.51092c-3.45346,2.85339 -7.46869,5.13873 -10.36034,8.56017c-7.54295,8.92482 0.8678,27.16756 -0.9701,37.17086c-1.70775,9.2951 -8.2,19.4894 -14.68046,25.96583c-4.09332,4.09073 -10.47348,6.59976 -12.54171,12.00453c-5.11495,13.36656 0.90414,24.93966 -10.83821,36.78598c-4.33207,4.37042 -18.40274,10.71779 -28.15412,13.50951c-2.16644,2.87088 -5.64578,3.84161 -5.64578,3.84161c-9.88134,2.64528 -23.75845,13.97283 -34.27857,11.00256c-6.39338,-1.80512 -9.42953,-8.74302 -13.15352,-14.74216c-2.13664,0.43916 -4.21403,0.83697 -6.18804,1.13074l-3.91274,0.5822c0,0 -8.24949,1.22757 -10.72412,-6.14779zM230.8232,282.0976c5.78313,-1.07234 11.58452,-1.91085 16.85267,-1.71693c7.30554,0.26887 14.10726,4.66572 21.41755,4.71987c5.52844,0.04094 10.20458,-4.93642 14.58681,-7.04848c2.48228,-1.19635 5.68418,-0.90567 7.83972,-2.62226c5.70761,-4.54544 3.21815,-23.42789 5.93094,-29.69922c6.14361,-14.20253 16.24072,-14.93074 23.2903,-27.11134c9.43481,-16.30186 -10.50877,-47.7894 14.76659,-55.22928c-8.84886,-4.62879 -15.94248,-14.59066 -16.67436,-24.82866c-0.3224,-4.50971 3.04326,-8.56766 3.76269,-13.03127c1.52777,-9.47873 -1.68439,-22.42557 -2.50093,-31.94455c-0.04399,-0.51283 -1.99895,-14.8448 -2.95542,-16.35598c-3.56908,-5.63901 -11.69701,-7.43829 -15.04082,-13.21374c-3.06975,-5.30205 -6.11655,-11.30357 -5.84893,-17.42432c0.15754,-3.60232 5.47955,-4.98817 6.97234,-8.27038c1.44803,-3.18368 -3.85977,-6.0593 -6.74314,-8.03887c-8.72473,-5.98984 -17.40252,-0.76241 -27.02419,0.05436c-12.52778,1.06345 -23.02632,-2.0321 -35.34951,-0.13192c-11.19953,-1.09273 -17.75911,0.1341 -28.51843,2.81548c-1.87218,0.46659 -4.60186,-0.46117 -5.67436,1.14274c-1.63221,2.44096 0.26943,6.08524 -0.94616,8.75825c-3.23867,7.12135 -11.12124,11.18343 -15.29987,17.79724c-3.51249,5.55937 -1.87339,13.27921 -4.92816,19.10268c-4.96066,9.45696 -17.03632,21.58357 -17.26865,33.26633c-0.1603,8.06221 5.11091,13.72298 2.90975,22.35554c-1.42339,5.58218 -5.15012,10.41545 -8.7927,14.87839c-1.67501,2.05225 -5.43979,1.88122 -6.76049,4.17752c-0.94508,1.6432 0.83852,3.69927 1.15539,5.56821c1.95717,11.5444 0.84259,18.1768 8.45138,27.19987c2.30429,4.43902 5.82908,8.43442 6.91275,13.31708c2.6418,11.9036 -4.77109,18.12508 1.1412,29.13863c7.68773,14.32081 23.45178,14.04695 32.83298,27.17052c2.65118,3.70881 3.92678,8.24735 5.44656,12.54551c1.28559,3.63575 0.17672,10.59957 4.02514,10.8462c7.28943,0.46712 15.77241,-1.61725 22.03148,1.8129z" fill="url(#color-39)" stroke="none" stroke-width="0.5"/><g><path d="M195.55243,182.22343v-41.93158h4.74698v41.93158z" fill="url(#color-40)" stroke="none" stroke-width="0"/><path d="M282.84397,182.22343v-41.93158h4.74698v41.93158z" fill="url(#color-41)" stroke="none" stroke-width="0"/><path d="M172.11286,147.19261v-8.33201h139.45171v8.33201z" fill="url(#color-42)" stroke="none" stroke-width="0"/><g stroke-width="0"><path d="M305.71376,143.66157c0,11.86348 -9.19295,21.48076 -20.53309,21.48076c-11.34013,0 -20.53306,-9.61729 -20.53306,-21.48076c0,-11.86348 9.19295,-21.48076 20.53306,-21.48076c11.34013,0 20.53309,9.61723 20.53309,21.48076z" fill="url(#color-43)" stroke="none"/><g stroke="#a70000"><path d="M293.51419,143.96842c0,4.74218 -3.74318,8.58651 -8.36061,8.58651c-4.61744,0 -8.36061,-3.84433 -8.36061,-8.58651c0,-4.74218 3.74315,-8.58657 8.36061,-8.58657c4.61744,0 8.36061,3.84438 8.36061,8.58657z" fill="#960000"/><path d="M291.51839,143.96842c0,3.6102 -2.84963,6.5368 -6.36485,6.5368c-3.5152,0 -6.36483,-2.92664 -6.36483,-6.5368c0,-3.6102 2.84961,-6.53686 6.36483,-6.53686c3.5152,0 6.36485,2.92668 6.36485,6.53686z" fill="#000000"/></g><path d="M305.71376,143.66157c0,0.08719 -10.39615,-4.85749 -20.72686,-4.78722c-10.20156,0.06939 -20.3393,5.15661 -20.3393,4.78722c0,-11.86348 9.19295,-21.48076 20.53306,-21.48076c11.34013,0 20.53309,9.61723 20.53309,21.48076z" fill="url(#color-44)" stroke="none"/></g><path d="M225.90815,235.43652l0.01832,-4.39871l30.20846,0.12595l-0.01837,4.39871z" fill="url(#color-45)" stroke="none" stroke-width="0"/><path d="M252.88193,236.71196l0.14539,-50.62362l5.28257,0.03195l-0.14539,50.62362z" fill="url(#color-46)" stroke="none" stroke-width="0"/><path d="M224.43707,236.5399l0.14539,-50.62357l5.28257,0.03192l-0.14539,50.62362z" fill="url(#color-47)" stroke="none" stroke-width="0"/><g stroke="none" stroke-width="0"><path d="M231.18933,271.90676l0.17699,-42.46212l20.23395,0.08438l-0.17694,42.46212z" fill="url(#color-48)"/><path d="M231.18933,271.90676l0.02229,-5.34616l20.23395,0.08432l-0.02229,5.34616z" fill="#494949"/></g><path d="M179.77312,179.87041l124.735,0.26325l0.00914,12.31829l-124.7496,-0.26654z" fill="url(#color-49)" stroke="none" stroke-width="0"/><g><path d="M202.26964,210.27128c-1.9395,0.38791 -2.32741,-1.55159 -2.32741,-1.55159l-0.28687,-1.46121c-1.19993,-9.59924 3.15163,-16.97617 -1.93276,-25.50299c-3.29854,-9.01941 -0.28694,-12.68883 0.07261,-21.22563c0.19208,-4.5603 -2.94807,-8.53553 -3.41774,-12.9018c-0.50422,-4.68721 2.72975,-7.55951 3.73933,-11.7718c0,0 0.47972,-1.91885 2.39856,-1.43911c1.91885,0.47972 1.43911,2.39856 1.43911,2.39856c-0.90567,3.50932 -4.08205,6.6276 -3.64484,10.38071c0.52667,4.52093 3.70444,8.67206 3.43898,13.47029c-0.44776,8.09249 -3.48123,11.01443 -0.45481,19.38737c5.54968,9.1841 1.03124,16.66962 2.28678,26.71371l0.2406,1.17601c0,0 0.38785,1.9395 -1.55159,2.32741z" fill="url(#color-50)" stroke="none" stroke-width="0.5"/><path d="M196.60731,208.72736c-1.9779,0 -1.9779,-1.9779 -1.9779,-1.9779v-1.58233c0.111,-9.07509 7.65524,-13.78148 7.64787,-22.67997c0.03611,-9.82786 -5.96812,-16.15236 -10.32142,-24.13265c-3.10473,-5.6915 -2.21987,-14.93946 -1.5339,-21.18203c0,0 0.21843,-1.96579 2.18426,-1.74738c1.96579,0.21843 1.74738,2.18426 1.74738,2.18426c-0.51855,4.61129 -1.33183,12.08908 0.17986,16.57861c3.39684,10.08799 11.66146,16.50751 11.69967,28.2992c-0.00812,9.11536 -7.79528,14.00432 -7.64787,22.67997v1.58233c0,0 0,1.9779 -1.9779,1.9779z" fill="url(#color-51)" stroke="none" stroke-width="0.5"/><g stroke-width="0"><path d="M213.93895,213.28381c0,11.86348 -9.19295,21.48076 -20.53309,21.48076c-11.34013,0 -20.53306,-9.61723 -20.53306,-21.48076c0,-11.86348 9.19295,-21.48076 20.53306,-21.48076c11.34013,0 20.53309,9.61729 20.53309,21.48076z" fill="url(#color-52)" stroke="none"/><g stroke="#a70000"><path d="M196.72867,223.08463c0,4.74218 -3.74315,8.58651 -8.36061,8.58651c-4.61744,0 -8.36061,-3.84433 -8.36061,-8.58651c0,-4.74218 3.74315,-8.58651 8.36061,-8.58651c4.61744,0 8.36061,3.84433 8.36061,8.58651z" fill="#960000"/><path d="M194.73294,223.08463c0,3.6102 -2.84961,6.5368 -6.36483,6.5368c-3.5152,0 -6.36483,-2.92664 -6.36483,-6.5368c0,-3.6102 2.84961,-6.53686 6.36483,-6.53686c3.5152,0 6.36483,2.92668 6.36483,6.53686z" fill="#000000"/></g></g></g><path d="M218.68592,143.66157c0,0.08719 -10.39615,-2.22029 -20.72686,-2.15002c-10.20156,0.06939 -20.3393,2.51942 -20.3393,2.15002c0,-11.86348 9.19295,-21.48076 20.53306,-21.48076c11.34013,0 20.53309,9.61723 20.53309,21.48076z" fill="url(#color-53)" stroke="none" stroke-width="0"/></g><path d="M156.34761,107.65588c-1.36985,-4.42725 3.42471,-5.6922 3.42471,-5.6922l3.1173,-0.74036c19.65605,-8.95551 36.73123,-20.32477 59.71189,-20.38291c0.9134,0.22453 1.85535,0.4938 2.81714,0.77973c0.41772,-1.4731 0.6541,-2.8911 0.62756,-4.20933c-0.18745,-9.31775 -6.14694,-16.05625 -8.39144,-24.5278c-3.67341,-13.86479 9.10413,-28.00299 20.17589,-35.2609c0,0 4.08504,-2.64045 6.94459,1.13164c2.85953,3.77209 -1.2255,6.41258 -1.2255,6.41258c-7.33524,4.65966 -19.24517,15.9761 -16.18889,25.60094c2.89004,9.10128 8.78859,16.736 8.6546,26.88996c-0.0283,2.14366 -0.31444,4.24682 -0.78887,6.32221c1.08566,0.10012 2.16107,0.11077 3.21493,-0.00425c4.28484,-0.46758 7.90744,-2.058 11.29609,-4.02449c2.8795,-12.36875 -4.95433,-24.68754 0.58779,-36.78875c2.85751,-6.23938 10.2382,-12.02097 15.06843,-16.97793c0,0 3.33574,-3.4224 7.04213,-0.34221c3.70639,3.08019 0.37063,6.50264 0.37063,6.50264c-4.05065,4.15494 -10.9831,9.29458 -13.34156,14.50237c-3.74119,8.26115 -0.42141,17.52633 0.287,26.75117c2.09856,-1.22816 4.27518,-2.30762 6.63493,-3.05549c6.81634,-2.16025 14.34887,1.80769 20.71572,-2.9678c5.64501,-4.23411 15.50151,-15.30108 13.47274,-21.66731c0,0 -0.97793,-4.51503 3.91168,-5.41805c4.88959,-0.90298 5.86751,3.612 5.86751,3.612c2.00426,12.13666 -11.30718,30.0005 -24.33616,34.1281c-5.15035,1.63162 -11.91483,-0.51251 -16.4778,1.04932c-3.7399,1.28009 -7.78885,5.12855 -11.54832,7.36956c-6.44967,17.45407 -13.79322,27.0162 -6.97873,45.86715c4.03691,8.18073 8.65678,14.80083 6.47534,24.19808c-1.43643,6.18819 -8.06751,14.82867 -7.28099,21.20918c1.39012,11.27643 5.98051,17.26647 2.07676,29.47878l-1.075,3.99102c0,0 -1.20937,4.46698 -6.04697,3.3502c-4.83754,-1.11672 -3.62816,-5.5837 -3.62816,-5.5837l1.19782,-4.40368c3.72281,-11.24119 -1.51096,-15.60135 -2.46882,-26.13634c-0.89345,-9.82709 8.44162,-18.64726 7.95075,-28.3859c-0.24005,-4.76202 -4.43641,-10.18365 -6.48358,-14.35164c-6.59678,-18.29606 -2.14413,-29.15847 3.84621,-44.42296c-4.37976,1.00767 -8.5676,1.17988 -13.08464,0.69685c-4.38061,10.39631 -11.28568,20.50344 -11.28568,32.0365c1.35133,4.87323 4.02598,10.5389 5.04254,15.34689c1.46246,6.91672 -2.48236,16.30604 -0.07231,22.81228c3.17448,8.57018 4.92854,13.15508 2.92508,22.59428l-0.99781,2.20552c0,0 -2.23001,4.11831 -6.68998,2.05914c-4.45999,-2.05914 -2.23001,-6.1775 -2.23001,-6.1775l0.13857,0.10684c1.89781,-8.55813 -0.26168,-10.5515 -2.75687,-18.33008c-2.33891,-7.29145 1.5742,-15.98819 -0.07231,-23.3588c-1.14931,-5.14479 -3.79689,-10.89783 -5.18505,-16.13342c0,-8.74059 1.70399,-17.79181 5.456,-25.93482c1.2122,-2.63086 3.17399,-5.89377 4.98254,-9.29354c-0.15582,-0.03985 -0.31231,-0.08015 -0.46936,-0.1209c-20.14045,-0.07129 -36.77242,11.48503 -53.92815,19.49217l-4.83753,1.35828c0,0 -4.79456,1.26495 -6.16441,-3.16231z" fill="url(#color-54)" stroke="none" stroke-width="0.5"/><path d="M338.22306,98.38165c0.61333,4.90659 -4.29328,5.5199 -4.29328,5.5199l-4.67323,0.58136c-13.87386,1.17975 -23.32671,11.60552 -36.84348,14.04274c-8.82288,1.5908 -21.47464,-1.30835 -29.61371,1.48656c-9.30406,3.19496 -14.24794,24.3414 -16.10231,32.4748c-3.21006,6.49208 -7.33795,13.69323 -12.49985,19.89927c0.61196,-0.00847 1.22262,-0.01282 1.83185,-0.01255c15.3299,1.34031 20.9723,10.85083 31.80247,20.37717c2.45487,2.15932 6.98086,9.64699 10.27591,10.1779c10.89607,1.75554 22.10966,-2.94687 33.21062,-1.79308c6.93782,0.72108 12.50999,5.0566 18.82931,7.67575c0,0 4.5644,1.90183 2.66258,6.46622c-1.90183,4.5644 -6.46622,2.66254 -6.46622,2.66254c-4.90005,-2.05148 -10.71474,-6.57862 -16.10477,-6.97406c-11.01814,-0.80833 -23.67791,4.50176 -34.40366,1.58764c-16.48552,-4.47904 -21.5151,-29.12935 -40.18571,-30.29778c-4.23356,0.00186 -8.56497,0.2482 -12.9311,0.54784c-4.594,2.92395 -9.73177,4.81465 -15.45331,5.08768c-8.69721,0.41505 -14.32345,-4.97025 -23.35609,-2.92399c-14.78087,3.34844 -24.12393,14.22535 -40.31869,11.28239c0,0 -4.84875,-0.96978 -3.87898,-5.81848c0.96978,-4.8487 5.81848,-3.87904 5.81848,-3.87904c9.93059,2.25443 18.52704,-3.68305 27.41724,-7.94817c-10.04153,-2.77947 -20.08753,-4.59914 -30.4932,1.34277l-2.96485,0.62227c0,0 -4.94475,0 -4.94475,-4.94475c0,-3.68496 2.7461,-4.62383 4.14539,-4.86301c10.71046,-5.33299 26.24969,-5.90765 37.87272,-3.35774c6.16854,1.35326 10.74879,5.55072 16.94184,6.11727c8.52029,0.77941 17.37021,0.16278 26.17202,-0.42547c7.9403,-5.97467 13.79385,-16.20038 17.7013,-23.91739c2.61851,-12.14354 9.2024,-33.56278 22.21243,-38.52018c8.52233,-3.24736 22.07694,-0.37277 31.23911,-1.89416c13.66814,-2.26957 23.14695,-12.75167 37.53225,-14.12985l4.34196,-0.54559c0,0 4.90655,-0.61333 5.5199,4.29328z" fill="url(#color-55)" stroke="none" stroke-width="0.5"/><path d="M202.8797,299.13929c-17.82998,-6.95849 -11.41347,-18.55021 -19.68523,-30.79298c-2.97429,-4.40217 -10.65549,-6.87638 -14.54888,-9.11228c-12.16863,-6.98814 -12.59111,-6.84177 -19.70868,-20.38991c-7.72043,-14.69573 0.96355,-28.00899 -6.97549,-40.62767c-8.58973,-11.47279 -17.39282,-37.34589 -11.02782,-52.14747c0.46836,-1.08916 13.23443,-10.33942 14.08748,-14.68341c1.26269,-6.43028 -3.73851,-12.84174 -3.30073,-19.38024c1.03678,-15.48431 12.57952,-29.05742 19.59209,-41.54103c3.33708,-5.94055 1.80598,-13.88866 5.28861,-19.74507c3.4031,-5.72262 11.44971,-9.47421 14.34072,-15.94211c1.87714,-4.19963 0.717,-9.83683 3.77402,-13.27411c10.29779,-11.57845 35.09025,-12.41763 48.89058,-11.0712c7.81598,-1.12389 15.80699,0.03473 23.68058,0.63342c18.65947,1.41885 32.80122,-9.01402 50.47181,2.96946c9.26316,6.28191 16.09713,16.92779 14.73005,28.75949c-0.37455,3.24139 -5.43228,4.11057 -6.73779,7.10097c-1.56241,3.5788 5.78328,5.24869 8.67897,7.8686c6.48465,5.86711 11.63475,13.90102 13.63224,22.41474c3.15095,13.43002 6.17367,34.58982 4.10157,48.23452c-0.50267,3.3099 -3.33008,6.04969 -3.566,9.38924c-0.26139,3.70037 10.39503,13.09342 10.42902,13.16217c2.84359,5.75401 3.53368,12.34062 5.30051,18.51092c-3.45346,2.85339 -7.46869,5.13873 -10.36034,8.56017c-7.54295,8.92482 0.8678,27.16756 -0.9701,37.17086c-1.70775,9.2951 -8.2,19.4894 -14.68046,25.96583c-4.09332,4.09073 -10.47348,6.59976 -12.54171,12.00453c-5.11495,13.36656 0.90414,24.93966 -10.83821,36.78598c-4.33207,4.37042 -18.40274,10.71779 -28.15412,13.50951c-2.16644,2.87088 -5.64578,3.84161 -5.64578,3.84161c-9.88134,2.64528 -23.75845,13.97283 -34.27857,11.00256c-6.39338,-1.80512 -9.42953,-8.74302 -13.15352,-14.74216c-2.13664,0.43916 -4.21403,0.83697 -6.18804,1.13074l-3.91274,0.5822c0,0 -8.24949,1.22757 -10.72412,-6.14779zM230.8232,282.0976c5.78313,-1.07234 11.58452,-1.91085 16.85267,-1.71693c7.30554,0.26887 14.10726,4.66572 21.41755,4.71987c5.52844,0.04094 10.20458,-4.93642 14.58681,-7.04848c2.48228,-1.19635 5.68418,-0.90567 7.83972,-2.62226c5.70761,-4.54544 3.21815,-23.42789 5.93094,-29.69922c6.14361,-14.20253 16.24072,-14.93074 23.2903,-27.11134c9.43481,-16.30186 -10.50877,-47.7894 14.76659,-55.22928c-8.84886,-4.62879 -15.94248,-14.59066 -16.67436,-24.82866c-0.3224,-4.50971 3.04326,-8.56766 3.76269,-13.03127c1.52777,-9.47873 -1.68439,-22.42557 -2.50093,-31.94455c-0.04399,-0.51283 -1.99895,-14.8448 -2.95542,-16.35598c-3.56908,-5.63901 -11.69701,-7.43829 -15.04082,-13.21374c-3.06975,-5.30205 -6.11655,-11.30357 -5.84893,-17.42432c0.15754,-3.60232 5.47955,-4.98817 6.97234,-8.27038c1.44803,-3.18368 -3.85977,-6.0593 -6.74314,-8.03887c-8.72473,-5.98984 -17.40252,-0.76241 -27.02419,0.05436c-12.52778,1.06345 -23.02632,-2.0321 -35.34951,-0.13192c-11.19953,-1.09273 -17.75911,0.1341 -28.51843,2.81548c-1.87218,0.46659 -4.60186,-0.46117 -5.67436,1.14274c-1.63221,2.44096 0.26943,6.08524 -0.94616,8.75825c-3.23867,7.12135 -11.12124,11.18343 -15.29987,17.79724c-3.51249,5.55937 -1.87339,13.27921 -4.92816,19.10268c-4.96066,9.45696 -17.03632,21.58357 -17.26865,33.26633c-0.1603,8.06221 5.11091,13.72298 2.90975,22.35554c-1.42339,5.58218 -5.15012,10.41545 -8.7927,14.87839c-1.67501,2.05225 -5.43979,1.88122 -6.76049,4.17752c-0.94508,1.6432 0.83852,3.69927 1.15539,5.56821c1.95717,11.5444 0.84259,18.1768 8.45138,27.19987c2.30429,4.43902 5.82908,8.43442 6.91275,13.31708c2.6418,11.9036 -4.77109,18.12508 1.1412,29.13863c7.68773,14.32081 23.45178,14.04695 32.83298,27.17052c2.65118,3.70881 3.92678,8.24735 5.44656,12.54551c1.28559,3.63575 0.17672,10.59957 4.02514,10.8462c7.28943,0.46712 15.77241,-1.61725 22.03148,1.8129z" fill="url(#color-56)" stroke="none" stroke-width="0.5"/></g><g stroke="none" stroke-width="0"><path d="M285.02468,112.13175c17.47958,0 31.64962,14.61747 31.64962,32.64905c0,18.03157 -14.17002,32.64905 -31.64962,32.64905c-17.47958,0 -31.64962,-14.61747 -31.64962,-32.64905c0,-18.03157 14.17002,-32.64905 31.64962,-32.64905z" fill="url(#color-57)"/><path d="M285.02468,142.71875c1.10398,0 1.99891,0.92319 1.99891,2.06205c0,1.13882 -0.89497,2.06205 -1.99891,2.06205c-1.10398,0 -1.99891,-0.92319 -1.99891,-2.06205c0,-1.13882 0.89497,-2.06205 1.99891,-2.06205z" fill="#ffffff"/></g></g></g></g></svg>