<svg version="1.1" xmlns="http://www.w3.org/2000/svg" xmlns:xlink="http://www.w3.org/1999/xlink" width="129.02546" height="129.02546" viewBox="0,0,129.02546,129.02546"><defs><radialGradient cx="385.94574" cy="299.29244" r="8.5" gradientUnits="userSpaceOnUse" id="color-1"><stop offset="0" stop-color="#5a5a5a"/><stop offset="1" stop-color="#2b2b2b"/></radialGradient><linearGradient x1="397.49177" y1="287.65217" x2="390.28613" y2="283.80856" gradientUnits="userSpaceOnUse" id="color-2"><stop offset="0" stop-color="#c2c2c2"/><stop offset="1" stop-color="#7b7b7b"/></linearGradient><radialGradient cx="411.45486" cy="251.47065" r="8.5" gradientUnits="userSpaceOnUse" id="color-3"><stop offset="0" stop-color="#8d8d8d"/><stop offset="1" stop-color="#636363"/></radialGradient><linearGradient x1="414.43757" y1="246.60661" x2="409.07219" y2="256.66507" gradientUnits="userSpaceOnUse" id="color-4"><stop offset="0" stop-color="#bebebe"/><stop offset="1" stop-color="#828282"/></linearGradient></defs><g transform="translate(-321.73303,-234.9449)"><g data-paper-data="{&quot;isPaintingLayer&quot;:true}" fill-rule="nonzero" stroke="none" stroke-width="0" stroke-linecap="butt" stroke-linejoin="miter" stroke-miterlimit="10" stroke-dasharray="" stroke-dashoffset="0" style="mix-blend-mode: normal"><path d="M443.15547,329.81443c-16.76559,31.43038 -55.83612,43.31852 -87.2665,26.55292c-31.43038,-16.76559 -43.31852,-55.83612 -26.55292,-87.2665c16.76559,-31.43038 55.83615,-43.31851 87.2665,-26.55292c31.43038,16.76559 43.31851,55.83614 26.55291,87.26649z" data-paper-data="{&quot;index&quot;:null}" fill="none"/><path d="M390.24627,291.95792c4.14199,2.20941 5.70864,7.35825 3.49921,11.50023c-2.20941,4.14199 -7.35825,5.70864 -11.50022,3.49922c-4.14199,-2.20941 -5.70864,-7.35825 -3.49923,-11.50025c2.20941,-4.14199 7.35825,-5.70863 11.50025,-3.49923z" data-paper-data="{&quot;index&quot;:null}" fill="url(#color-1)"/><path d="M391.17724,299.48998c0,0 -1.70963,4.24111 -5.85694,2.16487c-4.10091,-2.05301 -1.34869,-6.0085 -1.34869,-6.0085l24.58351,-46.08657l7.20562,3.84363l-24.58351,46.08658z" data-paper-data="{&quot;index&quot;:null}" fill="url(#color-2)"/><path d="M415.7554,244.13611c4.14198,2.20944 5.70864,7.35825 3.49923,11.50025c-2.20941,4.14199 -7.35825,5.70864 -11.50025,3.49923c-4.14199,-2.20941 -5.70864,-7.35825 -3.49923,-11.50025c2.20941,-4.14199 7.35825,-5.70863 11.50025,-3.49923z" data-paper-data="{&quot;index&quot;:null}" fill="url(#color-3)"/><path d="M414.43757,246.60661c2.77755,1.48161 3.82815,4.93436 2.34653,7.71193c-1.48162,2.77757 -4.93436,3.82815 -7.71192,2.34654c-2.77755,-1.48161 -3.82815,-4.93436 -2.34653,-7.71193c1.48162,-2.77757 4.93436,-3.82815 7.71193,-2.34653z" data-paper-data="{&quot;index&quot;:null}" fill="url(#color-4)"/></g></g></svg>