<svg version="1.1" xmlns="http://www.w3.org/2000/svg" xmlns:xlink="http://www.w3.org/1999/xlink" width="923.93812" height="599.85715" viewBox="0,0,923.93812,599.85715"><defs><linearGradient x1="237.7533" y1="246.58003" x2="264.31546" y2="247.96674" gradientUnits="userSpaceOnUse" id="color-1"><stop offset="0" stop-color="#7a7a7a"/><stop offset="1" stop-color="#a4a4a4"/></linearGradient><linearGradient x1="187.57869" y1="166.71899" x2="201.96194" y2="167.46989" gradientUnits="userSpaceOnUse" id="color-2"><stop offset="0" stop-color="#7a7a7a"/><stop offset="1" stop-color="#a4a4a4"/></linearGradient><linearGradient x1="305.1052" y1="172.85465" x2="319.48841" y2="173.60555" gradientUnits="userSpaceOnUse" id="color-3"><stop offset="0" stop-color="#7a7a7a"/><stop offset="1" stop-color="#a4a4a4"/></linearGradient><linearGradient x1="258.49656" y1="111.65584" x2="256.0566" y2="158.39247" gradientUnits="userSpaceOnUse" id="color-4"><stop offset="0" stop-color="#a4a4a4"/><stop offset="1" stop-color="#7a7a7a"/></linearGradient><linearGradient x1="256.52076" y1="125.43494" x2="255.80204" y2="139.20187" gradientUnits="userSpaceOnUse" id="color-5"><stop offset="0" stop-color="#6b6b6b"/><stop offset="1" stop-color="#222222"/></linearGradient><linearGradient x1="268.54677" y1="269.0165" x2="268.08981" y2="277.76941" gradientUnits="userSpaceOnUse" id="color-6"><stop offset="0" stop-color="#9a9a9a"/><stop offset="1" stop-color="#dedede"/></linearGradient><linearGradient x1="255.67889" y1="268.26518" x2="255.22194" y2="277.0181" gradientUnits="userSpaceOnUse" id="color-7"><stop offset="0" stop-color="#9a9a9a"/><stop offset="1" stop-color="#dedede"/></linearGradient><linearGradient x1="242.88614" y1="267.59731" x2="242.42917" y2="276.35023" gradientUnits="userSpaceOnUse" id="color-8"><stop offset="0" stop-color="#9a9a9a"/><stop offset="1" stop-color="#dedede"/></linearGradient><linearGradient x1="230.01824" y1="266.84596" x2="229.56127" y2="275.59889" gradientUnits="userSpaceOnUse" id="color-9"><stop offset="0" stop-color="#9a9a9a"/><stop offset="1" stop-color="#dedede"/></linearGradient><linearGradient x1="249.31814" y1="258.97431" x2="248.63894" y2="271.98423" gradientUnits="userSpaceOnUse" id="color-10"><stop offset="0" stop-color="#a4a4a4"/><stop offset="1" stop-color="#3d3d3d"/></linearGradient><linearGradient x1="267.40797" y1="289.30615" x2="266.95102" y2="298.05904" gradientUnits="userSpaceOnUse" id="color-11"><stop offset="0" stop-color="#dedede"/><stop offset="1" stop-color="#9a9a9a"/></linearGradient><linearGradient x1="254.53175" y1="288.71349" x2="254.0748" y2="297.46642" gradientUnits="userSpaceOnUse" id="color-12"><stop offset="0" stop-color="#dedede"/><stop offset="1" stop-color="#9a9a9a"/></linearGradient><linearGradient x1="241.73906" y1="288.04562" x2="241.28209" y2="296.79855" gradientUnits="userSpaceOnUse" id="color-13"><stop offset="0" stop-color="#dedede"/><stop offset="1" stop-color="#9a9a9a"/></linearGradient><linearGradient x1="228.86285" y1="287.45295" x2="228.4059" y2="296.20589" gradientUnits="userSpaceOnUse" id="color-14"><stop offset="0" stop-color="#dedede"/><stop offset="1" stop-color="#9a9a9a"/></linearGradient><linearGradient x1="247.46042" y1="293.03451" x2="246.78122" y2="306.04443" gradientUnits="userSpaceOnUse" id="color-15"><stop offset="0" stop-color="#a4a4a4"/><stop offset="1" stop-color="#3d3d3d"/></linearGradient><radialGradient cx="196.98988" cy="129.82181" r="42.88031" gradientUnits="userSpaceOnUse" id="color-16"><stop offset="0" stop-color="#ffffff"/><stop offset="1" stop-color="#c4bfb5"/></radialGradient><radialGradient cx="209.5261" cy="122.71296" r="15.93538" gradientUnits="userSpaceOnUse" id="color-17"><stop offset="0" stop-color="#ffffff"/><stop offset="1" stop-color="#ffffff" stop-opacity="0"/></radialGradient><radialGradient cx="313.88279" cy="136.37522" r="42.88031" gradientUnits="userSpaceOnUse" id="color-18"><stop offset="0" stop-color="#ffffff"/><stop offset="1" stop-color="#c5c1b7"/></radialGradient><radialGradient cx="325.83469" cy="128.78505" r="15.93538" gradientUnits="userSpaceOnUse" id="color-19"><stop offset="0" stop-color="#ffffff"/><stop offset="1" stop-color="#ffffff" stop-opacity="0"/></radialGradient><linearGradient x1="251.63417" y1="206.54447" x2="250.95044" y2="219.64143" gradientUnits="userSpaceOnUse" id="color-20"><stop offset="0" stop-color="#a4a4a4"/><stop offset="1" stop-color="#686868"/></linearGradient><radialGradient cx="336.74568" cy="91.93126" r="163.80819" gradientUnits="userSpaceOnUse" id="color-21"><stop offset="0" stop-color="#e0c297"/><stop offset="1" stop-color="#b9a17e"/></radialGradient><radialGradient cx="294.70644" cy="41.80018" r="135.39835" gradientUnits="userSpaceOnUse" id="color-22"><stop offset="0" stop-color="#634a14"/><stop offset="1" stop-color="#443014"/></radialGradient><linearGradient x1="245.56031" y1="376.59183" x2="245.56031" y2="607.6421" gradientUnits="userSpaceOnUse" id="color-23"><stop offset="0" stop-color="#a4a4a4"/><stop offset="1" stop-color="#7a7a7a"/></linearGradient><linearGradient x1="245.56031" y1="376.59183" x2="245.56031" y2="395.44046" gradientUnits="userSpaceOnUse" id="color-24"><stop offset="0" stop-color="#a4a4a4"/><stop offset="1" stop-color="#7a7a7a"/></linearGradient><linearGradient x1="245.56031" y1="368.05503" x2="245.56031" y2="403.97729" gradientUnits="userSpaceOnUse" id="color-25"><stop offset="0" stop-color="#303030"/><stop offset="1" stop-color="#4b4b4b"/></linearGradient><radialGradient cx="497.33502" cy="402.35012" r="31.20093" gradientUnits="userSpaceOnUse" id="color-26"><stop offset="0" stop-color="#7582b0"/><stop offset="1" stop-color="#485b9d"/></radialGradient><radialGradient cx="527.93814" cy="419.88499" r="67.31006" gradientUnits="userSpaceOnUse" id="color-27"><stop offset="0" stop-color="#7582b0"/><stop offset="1" stop-color="#485b9d"/></radialGradient><radialGradient cx="-2.75273" cy="402.83081" r="31.20093" gradientUnits="userSpaceOnUse" id="color-28"><stop offset="0" stop-color="#7582b0"/><stop offset="1" stop-color="#485b9d"/></radialGradient><radialGradient cx="-33.56776" cy="419.99054" r="67.31006" gradientUnits="userSpaceOnUse" id="color-29"><stop offset="0" stop-color="#7582b0"/><stop offset="1" stop-color="#485b9d"/></radialGradient><radialGradient cx="365.90022" cy="371.30541" r="31.02125" gradientUnits="userSpaceOnUse" id="color-30"><stop offset="0" stop-color="#7582b0"/><stop offset="1" stop-color="#485b9d"/></radialGradient><radialGradient cx="402.51355" cy="385.05868" r="68.41183" gradientUnits="userSpaceOnUse" id="color-31"><stop offset="0" stop-color="#7582b0"/><stop offset="1" stop-color="#485b9d"/></radialGradient><radialGradient cx="129.05144" cy="373.39384" r="31.02125" gradientUnits="userSpaceOnUse" id="color-32"><stop offset="0" stop-color="#7582b0"/><stop offset="1" stop-color="#485b9d"/></radialGradient><radialGradient cx="92.27287" cy="386.69887" r="68.41183" gradientUnits="userSpaceOnUse" id="color-33"><stop offset="0" stop-color="#7582b0"/><stop offset="1" stop-color="#485b9d"/></radialGradient><linearGradient x1="116.25462" y1="464.88401" x2="377.4701" y2="464.88401" gradientUnits="userSpaceOnUse" id="color-34"><stop offset="0" stop-color="#7582b0"/><stop offset="1" stop-color="#485b9d"/></linearGradient><linearGradient x1="663.65872" y1="441.99085" x2="665.93508" y2="486.55336" gradientUnits="userSpaceOnUse" id="color-35"><stop offset="0" stop-color="#e0c297"/><stop offset="1" stop-color="#b9a17e"/></linearGradient><linearGradient x1="655.08705" y1="402.76828" x2="657.02782" y2="440.76148" gradientUnits="userSpaceOnUse" id="color-36"><stop offset="0" stop-color="#e0c297"/><stop offset="1" stop-color="#b9a17e"/></linearGradient><linearGradient x1="631.41588" y1="367.61038" x2="633.98059" y2="417.81799" gradientUnits="userSpaceOnUse" id="color-37"><stop offset="0" stop-color="#e0c297"/><stop offset="1" stop-color="#b9a17e"/></linearGradient><linearGradient x1="532.89712" y1="466.81501" x2="648.40715" y2="458.79011" gradientUnits="userSpaceOnUse" id="color-38"><stop offset="0" stop-color="#e0c297"/><stop offset="1" stop-color="#b9a17e"/></linearGradient><linearGradient x1="542.12246" y1="420.54977" x2="573.25402" y2="424.70256" gradientUnits="userSpaceOnUse" id="color-39"><stop offset="0" stop-color="#e0c297"/><stop offset="1" stop-color="#b9a17e"/></linearGradient><linearGradient x1="-169.54825" y1="440.43696" x2="-172.36874" y2="484.96834" gradientUnits="userSpaceOnUse" id="color-40"><stop offset="0" stop-color="#e0c297"/><stop offset="1" stop-color="#b9a17e"/></linearGradient><linearGradient x1="-160.49811" y1="401.32199" x2="-162.90284" y2="439.2887" gradientUnits="userSpaceOnUse" id="color-41"><stop offset="0" stop-color="#e0c297"/><stop offset="1" stop-color="#b9a17e"/></linearGradient><linearGradient x1="-136.39927" y1="366.45591" x2="-139.57708" y2="416.62844" gradientUnits="userSpaceOnUse" id="color-42"><stop offset="0" stop-color="#e0c297"/><stop offset="1" stop-color="#b9a17e"/></linearGradient><linearGradient x1="-39.0996" y1="466.8565" x2="-154.503" y2="457.42127" gradientUnits="userSpaceOnUse" id="color-43"><stop offset="0" stop-color="#e0c297"/><stop offset="1" stop-color="#b9a17e"/></linearGradient><linearGradient x1="-47.75914" y1="420.48203" x2="-78.93913" y2="424.25423" gradientUnits="userSpaceOnUse" id="color-44"><stop offset="0" stop-color="#e0c297"/><stop offset="1" stop-color="#b9a17e"/></linearGradient></defs><g transform="translate(215.10883,-7.78495)"><g data-paper-data="{&quot;isPaintingLayer&quot;:true}" fill-rule="nonzero" stroke-linecap="butt" stroke-linejoin="miter" stroke-miterlimit="10" stroke-dasharray="" stroke-dashoffset="0" style="mix-blend-mode: normal"><path d="M155.85664,598.14134c0,0 2.47723,-121.17141 -4.85992,-167.48186c-5.00777,-31.60798 -34.90937,-73.16706 -34.90937,-73.16706c0,0 87.8131,-25.65905 131.77097,-25.34259c43.09696,0.31027 129.44454,27.2233 129.44454,27.2233c0,0 -34.54838,35.989 -39.66267,65.65379c-7.9287,45.99024 -3.28823,173.11439 -3.28823,173.11439z" fill="#191919" stroke="none" stroke-width="0"/><path d="M394.65421,156.08545c-1.54221,29.54058 44.1604,60.04742 4.07457,109.46918c-41.66593,51.36998 -106.15455,58.973 -154.30389,56.45928c-51.59877,-2.6938 -97.44022,-4.87185 -144.55753,-76.08141c-31.97683,-48.32733 11.05913,-78.46448 12.42297,-104.58835c4.0321,-77.23353 70.51005,-136.54375 148.48265,-132.47305c77.9726,4.07069 137.91322,69.98079 133.88112,147.21432z" fill="#191919" stroke="none" stroke-width="0"/><g><path d="M322.08523,240.1566c4.7018,-2.91994 10.145,-13.29194 11.85703,-18.48372c0.31182,-6.73332 5.2135,-14.91387 4.02672,-21.33862c-1.28424,-6.95244 -5.39387,-13.75444 -7.34138,-20.58723c-1.77123,-6.21417 -3.69506,-12.2117 -6.16156,-17.91532c1.57486,7.58781 2.09513,15.4418 0.80235,21.53145c-1.73989,8.19595 -6.25259,15.78697 -5.2823,24.52028c1.34573,12.11257 9.54613,15.94066 2.66215,28.58544c-1.37773,2.13035 -2.9018,3.80942 -4.54906,5.12783c1.40839,-0.22538 2.75336,-0.67462 3.98599,-1.4401zM318.59015,137.82284c10.00148,11.52005 15.20169,24.99485 19.32243,39.61155c1.99959,7.09274 6.39266,14.19801 7.54832,21.47754c1.26963,7.99722 -3.58526,16.18941 -4.04829,24.24574c-2.41427,7.21367 -8.79754,19.68707 -15.40643,23.73963c-7.53375,4.61964 -16.39535,1.90703 -24.22394,0.56993c-14.65611,-2.50316 -29.39226,-0.99378 -43.63789,1.84456c-0.84437,-0.0391 -1.68864,-0.07902 -2.53282,-0.11965l0.36324,3.82543c0,0 -1.39674,3.67109 -4.93712,2.23826c-2.21078,-0.89476 -2.49642,-2.66228 -2.39917,-3.86368c-0.87466,-0.62473 -1.75628,-1.22494 -2.64032,-1.80696c-1.09085,0.41536 -2.98274,0.68622 -4.40268,-1.50675c-0.03481,-0.05371 -0.06813,-0.1071 -0.10009,-0.16023c-0.63747,-0.40223 -1.24417,-1.04855 -1.49646,-2.08579c-0.55176,-0.33668 -1.10041,-0.67195 -1.64491,-1.00719c1.39709,2.78409 2.57715,5.71846 5.32218,7.73718l2.34535,2.01838c0,0 2.91705,2.52022 0.47243,5.5498c-2.44465,3.02959 -5.36163,0.5094 -5.36163,0.5094l-2.01419,-1.74812c-4.48886,-3.56993 -5.34135,-9.37964 -8.9772,-12.83111c-1.6464,-1.56295 -4.43152,-0.63391 -6.65395,-0.89562c-4.73777,-0.55789 -12.44069,-1.10151 -16.18982,-4.69634c-5.43356,-5.20989 -4.69507,-17.02112 -8.93621,-23.6074c-12.47031,-1.42929 -22.57663,-12.70992 -19.38232,-26.43838c0.79328,-3.40953 3.75733,-5.88 5.15083,-9.0786c2.90422,-6.66659 -2.80581,-16.7133 -3.47608,-23.0648c-0.90479,-8.57441 3.13573,-14.61887 8.1197,-20.30423c0.20552,-0.47549 0.41721,-0.95624 0.63424,-1.44305c0,0 0.8771,-1.96008 2.73161,-2.31322c0.00358,-0.45997 0.01568,-0.92157 0.03649,-1.38499c0,0 0.20548,-3.9358 4.00585,-3.7374c3.80037,0.19841 3.59493,4.13421 3.59493,4.13421c-0.87283,14.17158 8.23899,23.28254 15.57692,33.66722c1.67454,2.36992 3.83933,8.05102 4.2467,10.90005c0.37754,2.64039 -1.81536,8.02291 0.61191,10.25532c3.51045,3.22867 12.31856,3.49879 14.74772,7.63619c2.74623,4.67735 1.83889,10.81627 3.34624,16.06647c3.163,6.04179 4.91945,11.62689 6.38793,18.28632l0.4356,1.62842c0,0 1.0069,3.79657 -2.66343,4.85299c-3.67039,1.05641 -4.67722,-2.74019 -4.67722,-2.74019l-0.5161,-1.96021c-1.38891,-6.29901 -3.04846,-11.30031 -6.00496,-17.03905c-1.34746,-4.68234 -0.51593,-9.99175 -2.4661,-14.43875c-0.82071,-1.87145 -12.03195,-4.50693 -14.11149,-6.84645c-5.18924,-5.8379 -1.34187,-12.03848 -3.85174,-18.49557c-1.73332,-4.45933 -5.49148,-6.9589 -8.13012,-10.92522c-3.7613,-5.65394 -7.0508,-11.75744 -8.9233,-18.27909c-1.33673,3.87258 -1.59553,7.54769 1.14187,12.00252c2.00295,3.25957 5.33167,5.67969 6.7212,9.26684c2.83893,7.32887 -2.6002,20.69861 3.99332,26.6779c8.27579,7.50484 17.47682,12.29406 21.49557,23.60154c0.92993,10.17542 6.18741,15.30015 12.80489,19.6109l1.29289,0.0675c4.81044,0.46359 9.49407,-2.89512 14.00087,-4.78975c8.26499,-3.47459 16.75481,-5.9283 24.19999,-11.12501c5.55273,-4.6564 4.29364,-17.58448 6.36531,-24.30802c1.78015,-5.77715 6.73727,-7.78637 10.57492,-11.64947c4.23169,-4.25973 8.25609,-10.96057 10.49305,-16.47922c4.19741,-10.35512 0.18766,-21.49728 0.72917,-32.17443c0,0 0.20548,-3.9358 4.00585,-3.73741c3.03501,0.15845 3.51521,2.70047 3.58549,3.71798c1.94058,-0.33809 3.40114,1.34162 3.40114,1.34162zM294.14835,238.01954c7.73008,0.40357 17.44983,2.15488 21.9924,-5.61481c5.1452,-9.27916 -2.5336,-13.86515 -3.72312,-23.65209c-1.17161,-9.6398 3.40674,-17.82166 5.37175,-26.82762c1.32301,-6.06349 0.36624,-14.8721 -1.70326,-22.69278c-0.06459,4.20183 -0.62588,8.41823 -2.30601,12.71851c-2.49153,6.37689 -7.26947,13.93801 -12.07555,18.81097c-2.40455,2.43803 -7.75308,4.72412 -8.70589,8.57746c-2.4132,9.75914 -1.53108,20.73533 -8.89396,27.97916c-3.92961,2.73069 -9.3287,5.98046 -15.20099,8.93906c8.23233,0.09232 16.56919,1.30919 25.24459,1.76211zM219.70711,219.09145c-3.31403,-9.4252 -13.0613,-13.23478 -19.52104,-19.82721c-6.5707,-6.70555 -4.66799,-16.80991 -5.01751,-25.14568c-0.21751,-5.18774 -2.98688,-6.87457 -5.47813,-10.25111c0.95571,3.27213 2.03456,6.54297 2.25301,9.75972c0.85532,12.59685 -14.57358,28.67191 4.48618,35.24534c1.8855,0.65029 3.89838,0.81045 5.84757,1.21561c4.52744,5.71715 6.35147,9.68862 8.34416,16.77894c0.72207,2.56927 -0.17431,6.13268 1.84607,7.79774c3.97096,3.27262 10.25565,2.20622 15.6424,2.73004c-4.51528,-4.29099 -7.7398,-9.78812 -8.40268,-18.30346z" fill="#000000" stroke="none" stroke-width="0.5"/><path d="M231.18039,372.48187l13.14582,-251.80366l26.56218,1.38672l-13.12953,251.49161z" fill="url(#color-1)" stroke="none" stroke-width="0"/><path d="M185.02733,215.5892l5.1027,-97.74041l14.38325,0.7509l-5.09637,97.61929z" fill="url(#color-2)" stroke="none" stroke-width="0"/><path d="M302.55385,221.72487l5.10271,-97.74041l14.38325,0.7509l-5.09638,97.61929z" fill="url(#color-3)" stroke="none" stroke-width="0"/><path d="M173.68021,154.09189l2.43995,-46.73657l164.7528,8.60119l-2.43995,46.73657z" fill="url(#color-4)" stroke="none" stroke-width="0"/><path d="M148.00107,133.57394l0.71873,-13.76702l215.60198,11.25585l-0.71873,13.76702z" fill="url(#color-5)" stroke="none" stroke-width="0"/><g stroke="none" stroke-width="0"><path d="M262.7034,277.48821l0.45695,-8.75293l10.7728,0.56241l-0.45696,8.75292z" fill="url(#color-6)"/><path d="M249.83552,276.7369l0.45695,-8.75293l10.77282,0.56241l-0.45695,8.75293z" fill="url(#color-7)"/><path d="M237.04281,276.06902l0.45695,-8.75293l10.77281,0.56241l-0.45695,8.75294z" fill="url(#color-8)"/><path d="M224.17492,275.31769l0.45695,-8.75293l10.7728,0.56241l-0.45696,8.75293z" fill="url(#color-9)"/><path d="M215.6526,270.26214l0.6792,-13.00989l65.9727,3.44421l-0.6792,13.00989z" fill="url(#color-10)"/></g><g data-paper-data="{&quot;index&quot;:null}" stroke="none" stroke-width="0"><path d="M272.79439,289.58735l-0.45695,8.75293l-10.7728,-0.56241l0.45695,-8.75293z" fill="url(#color-11)"/><path d="M259.91818,288.99469l-0.45695,8.75293l-10.77281,-0.56242l0.45695,-8.75293z" fill="url(#color-12)"/><path d="M247.1255,288.32683l-0.45695,8.75292l-10.7728,-0.56241l0.45695,-8.75293z" fill="url(#color-13)"/><path d="M234.2493,287.73416l-0.45696,8.75293l-10.77281,-0.56241l0.45695,-8.75293z" fill="url(#color-14)"/><path d="M280.44678,294.75662l-0.6792,13.00989l-65.9727,-3.44421l0.6792,-13.00989c0,0 18.45221,0.96332 28.62809,1.49457c11.62224,0.60676 37.34461,1.94964 37.34461,1.94964z" fill="url(#color-15)"/></g><g stroke-width="0"><g><path d="M239.59776,132.04624c-1.23468,23.64992 -21.31181,41.82609 -44.84349,40.59758c-23.53168,-1.22852 -41.60697,-21.39648 -40.37229,-45.04641c1.23468,-23.64992 21.31181,-41.82608 44.84348,-40.59759c23.53168,1.22852 41.60698,21.39648 40.3723,45.04642z" fill="url(#color-16)" stroke="#000000"/><path d="M211.41437,130.77773c-0.45883,8.78891 -7.46981,15.5671 -15.6595,15.13954c-8.18965,-0.42756 -14.45674,-7.89897 -13.99789,-16.68785c0.45883,-8.78891 7.46982,-15.56708 15.65949,-15.13951c8.18965,0.42756 14.45674,7.89897 13.99791,16.68784z" fill="#000000" stroke="none"/></g><path d="M224.35478,123.48712c-0.45883,8.78891 -7.46982,15.5671 -15.6595,15.13954c-8.18965,-0.42756 -14.45673,-7.89897 -13.99789,-16.68785c0.45883,-8.78891 7.46981,-15.56709 15.65949,-15.13952c8.18965,0.42756 14.45674,7.89896 13.99791,16.68783z" fill="url(#color-17)" stroke="none"/></g><g stroke-width="0"><g><path d="M356.49074,138.59964c-1.23468,23.64992 -21.31182,41.82609 -44.84348,40.59759c-23.53168,-1.22852 -41.60697,-21.39648 -40.37228,-45.04642c1.23468,-23.64992 21.31182,-41.82609 44.84348,-40.59759c23.53168,1.22852 41.60697,21.39649 40.37228,45.04642z" fill="url(#color-18)" stroke="#000000"/><path d="M328.3073,137.33115c-0.45884,8.78891 -7.46982,15.5671 -15.6595,15.13954c-8.18964,-0.42756 -14.45673,-7.89897 -13.99789,-16.68785c0.45884,-8.78891 7.46981,-15.56709 15.65949,-15.13952c8.18964,0.42756 14.45673,7.89897 13.9979,16.68784z" fill="#000000" stroke="none"/></g><path d="M340.66337,129.5592c-0.45884,8.78891 -7.46981,15.5671 -15.6595,15.13954c-8.18964,-0.42756 -14.45673,-7.89898 -13.99789,-16.68787c0.45884,-8.78891 7.46981,-15.56708 15.65949,-15.13951c8.18964,0.42756 14.45674,7.89897 13.99791,16.68784z" fill="url(#color-19)" stroke="none"/></g><path d="M184.99555,216.19813l0.68374,-13.09696l131.90978,6.88656l-0.68289,13.0807z" fill="url(#color-20)" stroke="none" stroke-width="0"/></g><g stroke="none" stroke-width="0"><path d="M394.65421,156.08545c-1.54221,29.54058 44.16039,60.04744 4.07464,109.4692c-41.66593,51.36998 -106.15454,58.97299 -154.30389,56.45927c-51.59877,-2.6938 -97.44022,-4.87185 -144.55754,-76.08141c-31.97683,-48.32733 11.05913,-78.46448 12.42297,-104.58834c4.0321,-77.23353 70.51007,-136.54375 148.48266,-132.47306c77.9726,4.07069 137.91322,69.9808 133.88112,147.21433zM246.98253,300.30042c29.30327,2.08112 56.98473,-7.66161 77.32992,-20.05756c-0.19705,0.91464 -0.40071,1.79278 -0.14828,2.24641c1.90256,3.41929 5.23537,0.42938 6.36946,5.01059l-0.1184,0.71583c0,0 -0.08219,1.57434 1.49214,1.65652c1.57434,0.08218 1.65652,-1.49214 1.65652,-1.49214l0.00876,-1.71997c-0.56572,-1.90967 -1.67605,-4.45558 -3.66334,-5.42473c-0.85548,-0.41717 -3.02299,0.92973 -2.8554,-0.00719c0.18288,-1.02243 0.30604,-1.99693 0.2827,-2.88162c18.22415,-11.75916 29.84979,-25.41383 30.27617,-33.58097c0.15751,-3.01677 -1.31947,-4.42278 -4.15141,-4.70148c1.56232,-4.11783 3.81407,-8.84766 -0.08205,-10.72609c-2.06453,-0.99538 -6.11052,0.09592 -7.06839,2.31714c-0.5316,1.23281 1.83125,3.49804 0.58033,3.98565c-0.50553,0.19705 -4.16999,0.08732 -4.93515,0.96356c-0.47387,0.54272 -0.15515,2.02966 -0.87372,1.97701c-1.478,1.33134 -1.99178,2.96946 -2.86838,4.41762c-20.21975,6.12756 -53.59697,19.39723 -87.27747,17.57367c-69.73172,-3.77535 -101.57557,-42.76977 -102.48341,-25.38029c-0.17653,3.38136 1.28029,7.75597 4.16208,12.63959c-2.70645,0.11067 -5.09552,0.06659 -8.34879,-1.32311c-2.3102,-0.98687 -4.54956,0.52868 -6.36422,-0.37911c-0.06035,-0.45764 -0.32735,-1.31163 -1.47575,-1.37159c-1.57433,-0.08219 -1.65651,1.49214 -1.65651,1.49214l0.60088,1.95547c5.09187,3.37088 12.60057,2.63355 19.12645,2.58944c13.56478,19.98429 48.65579,46.39256 92.4853,49.50529zM194.66888,176.99505c26.08423,1.36176 48.33359,-18.67974 49.69536,-44.76395c1.36176,-26.08423 -18.67974,-48.33358 -44.76395,-49.69536c-26.08423,-1.36177 -48.33359,18.67974 -49.69536,44.76394c-1.36176,26.08423 18.67975,48.33359 44.76395,49.69537zM313.26045,183.91161c26.08423,1.36176 48.33358,-18.67974 49.69536,-44.76395c1.36176,-26.08423 -18.67974,-48.33359 -44.76395,-49.69536c-26.08423,-1.36177 -48.33358,18.67974 -49.69536,44.76395c-1.36176,26.08423 18.67974,48.33359 44.76395,49.69536z" fill="url(#color-21)"/><path d="M261.56286,7.99961c61.82453,3.22765 112.85808,42.19126 131.9923,94.63385c-4.36586,-4.43187 -9.05669,-8.5852 -14.09769,-12.42974c-5.88798,-10.13885 -13.67936,-12.41569 -24.86187,-12.99949c-2.65567,-0.13864 -6.46033,0.5492 -9.98991,0.55815c-2.33853,-0.64557 -4.67883,-1.26774 -7.01864,-1.8781c-0.66631,-0.56956 -1.21332,-1.299 -1.60449,-2.2269c-3.33414,-5.09302 -8.75066,-3.59719 -14.16247,-6.01957c-12.3249,-5.51678 -25.82405,-6.13059 -39.41149,-5.22196c-3.79235,-0.66761 -7.58508,-1.26474 -11.38515,-1.79637c-4.01869,-2.89113 -7.63397,-7.86429 -12.01081,-10.19201c-6.70383,-3.56532 -11.94649,2.05201 -17.27012,4.04605c-2.6867,1.0063 -6.129,1.19917 -9.03061,2.49569c-10.01147,0.67771 -20.4618,-1.59601 -30.40457,-0.4412c-1.71177,0.19882 -10.85285,1.73298 -12.06967,0.41259c-4.01678,-4.35862 -7.39873,-4.28273 -13.10344,-1.14641c-7.77,10.54144 -19.22899,11.65116 -30.80004,15.74815c-0.1502,-1.23542 -1.48153,-1.30493 -1.48153,-1.30493c-5.26069,-0.18013 -13.70832,4.99873 -20.09849,10.00159c26.23192,-45.6024 78.39041,-75.28906 136.80872,-72.23923z" fill="url(#color-22)"/></g><path d="M315.04826,77.20754c16.67843,-3.46618 34.1659,1.98409 34.8777,5.40915c0.7118,3.42503 -16.02503,-0.28804 -32.70349,3.17819c-16.67843,3.46618 -30.45853,7.49506 -30.45853,7.49506c0,0 11.60587,-12.6162 28.28434,-16.08241z" fill="#000000" stroke="none" stroke-width="0"/><path d="M204.03399,77.92578c-15.79482,-6.38029 -32.92531,-5.70645 -31.61509,-8.95004c1.31023,-3.24359 19.4887,-5.49329 35.28351,0.88701c15.79482,6.38029 26.27925,17.61774 24.96907,20.86132c0,0 -12.84264,-6.41801 -28.63747,-12.79829z" data-paper-data="{&quot;index&quot;:null}" fill="#000000" stroke="none" stroke-width="0"/><g stroke="none"><path d="M241.11575,392.02169c1.22017,-0.81346 2.28904,-0.87022 3.15024,-0.62075l-0.02704,-3.41727c0,0 0,-3.94116 3.94116,-3.94116c3.94116,0 3.94116,3.94116 3.94116,3.94116l-0.03811,3.72178c0.43536,1.52377 0.80297,3.25285 1.05564,5.08066l0.66011,2.31031c0.64458,2.25938 1.12547,4.51817 1.48412,6.77573c6.45093,13.8765 4.76983,32.26267 4.76126,46.92617c-0.03827,0.41276 -0.07774,0.82506 -0.11829,1.237c4.43319,10.68536 10.93641,20.93784 11.70045,32.48696c0.74915,11.32452 -6.87534,20.83741 -5.51843,32.01632c0.53142,4.37822 11.33726,21.80975 15.74439,18.08176c3.91226,-4.00087 9.79839,-8.39891 11.27396,-14.17216c1.3904,-5.4401 -2.4016,-11.64796 -3.11653,-16.84346c-0.37265,-2.70824 0.39113,-12.20833 0.66508,-13.59131c1.58974,-8.02561 8.05433,-13.91031 12.03489,-20.65632c0.1676,-0.28406 0.33176,-0.56732 0.49248,-0.84978c-1.18899,-9.22845 -3.69875,-18.24579 -8.02349,-26.67834c-4.01801,-10.6977 -11.88593,-23.78662 -7.44011,-35.75978c6.77161,-18.23693 27.64322,-19.16424 43.29253,-24.41664c0.84095,-0.28225 1.66643,-0.55116 2.47964,-0.80165c0.42598,-0.15813 0.85094,-0.30807 1.27414,-0.44971c0.85682,-0.28674 1.73053,-0.48427 2.61745,-0.60627c5.17789,-1.17279 10.05639,-1.17928 15.59223,1.4441c0,0 1.25544,0.62775 1.89327,1.88322c2.74702,0.88447 5.40611,1.67825 7.87746,2.00874c0,0 3.90157,0.55737 3.3442,4.45891c-0.55737,3.90157 -4.45891,3.3442 -4.45891,3.3442c-5.80177,-0.87059 -16.27758,-6.59835 -22.90236,-5.45663c-0.5863,0.15526 -1.17535,0.32906 -1.76878,0.51443c-8.55351,3.44229 -19.66417,10.56642 -20.85546,20.37378c-0.99454,8.18744 2.41213,16.45067 2.46264,24.57074c0,13.33784 -1.03855,24.53638 -6.85217,36.28651c4.42951,30.89839 -4.90165,63.67054 -30.82692,82.20452c-13.50007,7.6074 -21.09517,-10.08413 -27.48657,-19.98565c-14.51463,-22.4861 -4.2632,-53.39269 -1.51354,-78.36873c-0.51979,-1.27854 -1.00101,-2.55823 -1.42776,-3.84025c-2.60893,-11.90459 -1.21426,-23.79117 -1.96329,-35.71945c-1.57396,1.03098 -3.34259,1.89122 -4.13762,3.52021c-1.5187,3.1118 -0.57489,8.7665 -0.81356,11.41299c-0.66196,7.33975 -4.35966,13.06542 -4.24925,20.34397c0,7.77108 3.48956,24.46319 -1.96345,30.96385c-1.54848,1.84598 -3.52021,2.86053 -5.72232,3.24215c-4.73535,3.7728 -11.49876,5.40719 -12.48668,12.15222c-1.50105,10.24826 8.42812,12.57834 11.38823,20.56232c3.36759,9.08307 0.03121,19.32644 -8.05177,23.87151c-15.95822,11.46127 -40.50246,6.52794 -43.46383,-15.97297c-1.07073,-8.13549 9.21779,-21.5981 5.76482,-28.7973c-3.49606,-7.28908 -11.19187,-13.21927 -15.07805,-20.99069c-6.95555,-12.36181 -2.74802,-26.12794 -4.68388,-39.64419c-1.54071,-10.75716 -5.65377,-20.94125 -9.50727,-30.83138c-2.31166,-5.93291 -3.92833,-14.71411 -11.06412,-15.78493c-1.15746,0.63546 -2.3523,1.2942 -3.65479,1.94767c0,0 -3.52505,1.76253 -5.28762,-1.76257c-1.76253,-3.52505 1.76253,-5.28762 1.76253,-5.28762c0.37984,-0.18924 0.76588,-0.37699 1.15759,-0.56285c0.90767,-2.29231 3.6538,-2.29231 3.6538,-2.29231c0.50808,0.02085 1.00163,0.05482 1.48116,0.10165c16.30262,-6.20862 38.27823,-7.6971 43.22906,14.60709c2.53985,11.44244 -2.86803,19.36602 6.46402,28.78461c9.65615,5.47705 15.94456,13.3322 17.37355,24.60241c0.7794,6.14719 -0.99879,12.21683 2.49754,17.93499c1.61766,2.64565 3.48743,3.77598 6.08277,5.44816c0.59995,0.38652 5.74992,2.70545 9.03203,3.74723c2.78518,-8.78367 -0.99063,-21.25159 -2.8537,-29.6828c-0.97073,-9.60156 -4.76998,-22.47755 -2.38349,-32.0189c1.68672,-6.74361 7.45683,-14.68242 11.784,-19.91081l0.11238,-0.45901c0,0 1.7266,-3.45317 5.17975,-1.81508c0.26089,-0.31956 0.6007,-0.63005 1.03732,-0.92115zM254.56036,505.67022c0,6.55774 -0.68424,13.4576 2.58602,19.48904c3.56005,6.56599 8.36363,12.47313 12.99837,18.27433c2.68457,3.36026 2.94144,6.80874 6.28529,3.50661c1.19172,-0.85044 2.35622,-1.75022 3.49707,-2.68806c-9.1448,-0.50203 -15.9025,-10.55539 -20.05274,-19.18674c-6.30575,-13.11424 4.75954,-25.05764 3.88492,-38.05328c-0.42458,-6.30938 -2.8351,-12.40427 -5.6181,-18.42024c-1.6957,12.27478 -3.58085,24.43046 -3.58085,37.07836zM302.33708,506.0348c1.14068,-7.60249 1.80522,-15.38755 1.71106,-23.14156c-2.56164,3.367 -4.95927,6.88086 -5.67712,10.82318c-1.31784,7.23751 1.49875,14.18855 2.57994,21.10543c0.59253,-3.09158 0.98921,-6.14173 1.3861,-8.78705zM295.20956,410.5823c-3.68946,9.69492 4.0031,21.57182 7.19446,30.09593c2.54971,5.21169 4.64702,10.6856 6.27302,16.31456c1.74086,-6.94077 2.02735,-13.98262 2.02735,-22.05648c0.06571,-8.42583 -3.5078,-16.86911 -2.41553,-25.4308c0.62946,-4.93424 2.97677,-9.51938 6.30111,-13.51498c-8.4493,2.48538 -16.21926,6.28518 -19.38035,14.59184zM242.69311,401.45825l-1.37579,-2.04591l-0.47571,0.85079c-3.58835,4.27168 -8.78116,11.1247 -10.16795,16.67565c-1.8242,7.30207 0.7926,17.46533 2.04706,25.53793c1.11421,-4.1583 2.60607,-8.11689 3.00049,-12.80693c0.4865,-5.78523 -1.0401,-8.8937 1.62554,-14.19757c1.43899,-2.86328 5.13841,-3.98043 7.00193,-6.5874c0.72,-1.00728 1.12881,-2.35325 1.31964,-3.85986c-0.87719,-1.2631 -1.86452,-2.45598 -2.97527,-3.5667zM162.79414,402.3296c4.0471,10.42766 8.38345,21.25727 10.00552,32.58522c1.74352,12.17586 -2.49636,26.27714 3.85297,37.18744c3.81355,7.62798 12.50243,14.20846 15.4107,21.69358c4.11887,10.60075 -6.59854,20.76269 -5.21112,30.96067c2.2977,16.8885 20.32062,18.35229 31.48267,10.12165c14.2057,-6.47805 -1.42004,-18.90803 -4.81191,-25.68476c-1.21513,-2.42777 -2.53831,-11.01298 -2.16197,-13.29484c0.62006,-3.75963 3.8688,-9.00756 6.84753,-11.54201c0.64218,-0.54634 1.41485,-0.99517 2.244,-1.40698c-6.08754,-2.7386 -11.75314,-7.48192 -14.04853,-11.19664c-5.8254,-9.42748 -1.23615,-20.55867 -6.22842,-30.10923c-2.52118,-4.82314 -7.1916,-7.68471 -11.70655,-10.28277c-4.2147,-4.18944 -7.88341,-8.50988 -9.39011,-14.50942c-1.50193,-5.98036 1.16551,-12.89744 0,-18.90302c-2.2578,-11.63388 -16.27243,-14.51978 -25.59197,-12.25996c4.51679,3.88121 6.75804,10.07297 9.30726,16.64114z" fill="#303030" stroke-width="0.5"/><path d="M224.9186,607.6421v-231.05028h41.28351v231.05028z" fill="url(#color-23)" stroke-width="0"/><path d="M121.86664,395.44046v-18.84859h247.38739v18.84859z" fill="url(#color-24)" stroke-width="0"/><path d="M157.84335,403.97729v-35.92227h175.43396v35.92227z" fill="url(#color-25)" stroke-width="0"/></g><g data-paper-data="{&quot;index&quot;:null}" stroke="none" stroke-width="0"><path d="M481.74899,443.73865c-14.40646,-9.51987 -18.52515,-28.67805 -9.19919,-42.791c9.3259,-14.11293 28.56478,-17.83634 42.97125,-8.31647c14.4065,9.51987 18.52516,28.67804 9.19924,42.79099c-9.3259,14.11288 -28.56478,17.83634 -42.97125,8.31647z" fill="url(#color-26)"/><path d="M586.44042,507.27194l-105.8638,-60.77801l36.69466,-55.53021l97.9017,73.16526z" fill="url(#color-27)"/></g><g data-paper-data="{&quot;index&quot;:null}" stroke="none" stroke-width="0"><path d="M12.32656,444.40659c-14.5217,9.3432 -33.71364,5.38505 -42.86648,-8.84073c-9.15284,-14.2258 -4.80046,-33.33225 9.72124,-42.67541c14.5217,-9.3432 33.71364,-5.38506 42.86648,8.84073c9.15284,14.2258 4.80046,33.33226 -9.7212,42.67545z" fill="url(#color-28)"/><path d="M-121.33653,463.16568l98.78809,-71.96395l36.01364,55.97427l-106.59828,59.48039z" fill="url(#color-29)"/></g><g data-paper-data="{&quot;index&quot;:null}" stroke="none" stroke-width="0"><path d="M367.46666,419.18788c-16.82675,-3.87765 -27.38808,-20.38389 -23.5894,-36.86772c3.79864,-16.48384 20.51878,-26.70322 37.34554,-22.82556c16.82675,3.87765 27.38808,20.38391 23.58943,36.86778c-3.79864,16.48384 -20.51878,26.70322 -37.34554,22.82556z" fill="url(#color-30)"/><path d="M486.14516,449.55921l-118.81264,-27.37997l14.94653,-64.85907l118.81264,27.37997z" fill="url(#color-31)"/></g><g data-paper-data="{&quot;index&quot;:null}" stroke="none" stroke-width="0"><path d="M126.90017,421.25364c-16.87283,3.67182 -33.46693,-6.75096 -37.06394,-23.28001c-3.59701,-16.52902 7.16517,-32.90504 24.03798,-36.57688c16.87283,-3.67182 33.46693,6.75096 37.06394,23.28001c3.59701,16.52902 -7.16518,32.90501 -24.03798,36.57685z" fill="url(#color-32)"/><path d="M-6.29355,385.13618l119.13821,-25.92665l14.15316,65.0368l-119.13821,25.92665z" fill="url(#color-33)"/></g><g stroke="none"><path d="M155.43494,598.17672c0,0 3.06623,-121.76042 -4.27096,-168.07086c-5.00777,-31.60798 -34.90937,-73.16706 -34.90937,-73.16706c0,0 87.8131,-25.65905 131.77097,-25.34259c43.09696,0.31027 129.4445,27.2233 129.4445,27.2233c0,0 -34.54838,35.989 -39.66267,65.65379c-7.9287,45.99024 -2.69919,173.70337 -2.69919,173.70337z" fill="url(#color-34)" stroke-width="0"/><g stroke-width="0.5"><path d="M171.02456,484.18395c-0.33746,-3.53106 3.19361,-3.86855 3.19361,-3.86855l2.10149,-0.20085c4.46237,-0.36765 6.77074,-2.29124 11.10035,-3.42903c6.84876,-1.79984 14.73316,-1.20327 21.82227,-2.34215c8.23785,-1.32345 16.17064,-3.65328 24.53566,-4.76581c0.42395,-0.01565 0.84782,-0.03336 1.27168,-0.05317c-7.58538,-6.68024 -15.75346,-12.61632 -23.38614,-19.23341c-4.30264,3.43056 -8.99447,6.38591 -13.21536,9.93039c0,0 -2.71853,2.27855 -4.99709,-0.44002c-2.27855,-2.71853 0.44002,-4.99707 0.44002,-4.99707c3.9739,-3.3247 8.37538,-6.13961 12.4584,-9.32502c-5.38674,-5.15748 -10.30938,-10.6059 -16.22062,-15.31002c-3.83975,-3.05562 -8.59573,-5.58241 -12.25263,-8.80149c-1.67577,-1.47512 -4.7748,-2.62544 -4.61655,-4.85236c0.19237,-2.70739 2.88785,-5.0586 5.39467,-6.09918c2.11096,-0.87633 4.54646,0.54609 6.77663,1.04668c0.11848,0.02658 12.44805,3.65017 13.06182,3.83045c9.53441,3.67471 18.66751,6.10926 28.59476,7.99071c0.5377,0.1019 1.07387,0.21178 1.60868,0.32882c8.91098,-9.544 17.71304,-19.21621 27.70454,-27.58188c2.83259,-2.7186 10.91355,-11.52872 15.79522,-10.19143c6.2753,1.71901 6.8583,17.17298 7.33085,22.09331c0.90442,9.41696 -0.01086,18.72768 -0.22099,28.10194c7.34929,1.31327 14.67055,2.77464 21.82514,4.87901c3.59064,0.23933 14.42224,1.59708 16.04561,5.24926c0.96747,2.17656 -1.04412,4.73757 -2.28573,6.77026c-2.8443,4.65642 -10.94844,7.2449 -15.55454,9.41709c-5.79672,2.73368 -11.78324,4.28884 -17.86143,5.69306c0.14194,1.88202 0.25145,3.76645 0.30963,5.65485c3.33928,11.84245 5.97509,25.95468 7.24757,38.27471c0.65049,6.29801 3.27894,17.67172 -8.3724,12.3031c-2.3446,-1.08032 -3.49509,-3.81337 -5.02666,-5.89138c-4.20277,-5.70215 -6.61429,-12.8176 -10.78025,-18.59863c-6.36065,-8.82651 -14.49414,-16.49989 -22.65051,-23.6815c-2.57306,0.27301 -5.17653,0.46617 -7.8236,0.56199c-8.19694,1.10411 -15.91682,3.3762 -23.99312,4.69857c-6.7967,1.11288 -14.67854,0.39309 -21.17999,2.20647c-4.54271,1.26707 -7.36776,3.11381 -12.21082,3.62523l-2.10147,0.20085c0,0 -3.53112,0.33746 -3.86855,-3.19361zM251.35104,474.78825c8.73042,8.06258 16.84104,16.7986 22.98245,27.01975c2.43672,4.05533 4.56812,8.5451 7.14016,12.52578c-0.36548,-2.96505 -0.33109,-6.32526 -0.54241,-7.39756c-2.08817,-10.59597 -3.2789,-21.84535 -6.15612,-32.16307c-0.07151,-1.71902 -0.17881,-3.4343 -0.30981,-5.14712c-0.82016,0.19244 -1.64125,0.38919 -2.46311,0.59268c-6.95734,1.72303 -13.75012,3.36666 -20.65114,4.56955zM272.37873,434.80613c0.30012,-5.38668 0.83398,-10.76599 0.69335,-16.15164c-0.1399,-5.35843 -0.68809,-11.01179 -1.55925,-16.29477c-0.23511,-1.4257 -0.52441,-2.84204 -0.76969,-4.266c-0.25786,-1.4972 -0.6608,-2.98014 -0.73973,-4.49734c-0.00099,-0.01887 0,-0.03941 0.00269,-0.06144c-1.81424,2.71467 -6.8261,5.78455 -8.86392,7.75302c-8.87914,7.44933 -16.82895,15.91866 -24.75146,24.41328c6.53225,2.07176 12.97161,4.62257 19.62483,6.04908c5.40741,1.1594 10.88092,2.10958 16.3631,3.05579zM272.1965,441.97476c-5.83328,-1.01051 -11.66209,-2.0098 -17.42223,-3.23954c-8.04766,-1.71813 -15.79443,-5.11284 -23.75913,-7.2845c-4.5471,4.83228 -9.15193,9.5994 -13.98284,14.11568c9.11174,7.84529 18.96286,14.75756 27.63466,23.17457c9.82332,-1.12453 19.59278,-3.18434 29.20727,-5.65803c-0.68554,-6.83349 -1.50067,-13.65626 -1.66676,-20.55683c-0.00442,-0.18378 -0.00806,-0.3676 -0.01099,-0.55136zM211.74982,440.79653c3.85198,-3.56816 7.55554,-7.30171 11.19601,-11.10622c-9.1867,-1.8398 -17.80915,-4.24946 -26.73043,-7.69813c-0.64453,-0.18862 -4.8512,-1.41912 -8.21835,-2.40587c3.65123,2.59974 7.17912,5.38194 10.59268,8.28254c4.73372,4.02243 8.7172,8.65751 13.16006,12.9277zM279.32541,443.23204c0.20152,6.02728 0.91309,12.00328 1.52665,17.9825c2.11631,-0.58693 4.2238,-1.18801 6.32132,-1.79752c5.80363,-1.6865 11.68282,-4.29738 16.99843,-7.17512c1.24116,-0.67195 2.24952,-1.72711 3.34998,-2.62224c-2.581,-0.25655 -5.86445,-1.62319 -7.63223,-1.74102c-6.75223,-1.97378 -13.64283,-3.38756 -20.56409,-4.64657z" fill="#ad9600"/><path d="M175.90128,482.28402c-0.31501,-3.29577 2.98082,-3.61074 2.98082,-3.61074l1.96142,-0.18745c4.16506,-0.34321 6.31964,-2.13856 10.36076,-3.20058c6.39243,-1.67993 13.75147,-1.12308 20.36825,-2.18609c7.68896,-1.23529 15.09326,-3.40988 22.90088,-4.4483c0.3957,-0.0146 0.79132,-0.03114 1.18693,-0.04964c-7.08,-6.23515 -14.7038,-11.77575 -21.82792,-17.95193c-4.01599,3.20202 -8.39521,5.96046 -12.33484,9.26878c0,0 -2.53746,2.12675 -4.66415,-0.41069c-2.1267,-2.53746 0.41069,-4.66415 0.41069,-4.66415c3.7091,-3.1032 7.81736,-5.73052 11.62828,-8.70369c-5.02782,-4.81383 -9.62246,-9.89925 -15.13985,-14.28992c-3.58392,-2.85206 -8.023,-5.21048 -11.43628,-8.21507c-1.56411,-1.37685 -4.45667,-2.45055 -4.30898,-4.52904c0.17955,-2.52701 2.69547,-4.72156 5.03522,-5.69284c1.97032,-0.8179 4.24353,0.50972 6.32511,0.97696c0.11062,0.02483 11.61865,3.40695 12.19153,3.57519c8.89914,3.4299 17.4237,5.70221 26.68951,7.45832c0.50189,0.09513 1.0023,0.19767 1.5015,0.3069c8.31724,-8.90812 16.53284,-17.93586 25.85862,-25.74411c2.64389,-2.53746 10.18632,-10.76057 14.74282,-9.51243c5.8572,1.60446 6.40131,16.02875 6.84242,20.62126c0.84412,8.78951 -0.0101,17.47988 -0.20629,26.22956c6.85962,1.2258 13.69304,2.58976 20.37094,4.55392c3.35143,0.22336 13.46131,1.49069 14.97651,4.8995c0.90302,2.03157 -0.97454,4.42192 -2.13343,6.31916c-2.65475,4.34616 -10.21897,6.76219 -14.51816,8.78965c-5.41049,2.55153 -10.99812,4.00304 -16.67136,5.31372c0.13249,1.75662 0.23468,3.51543 0.28901,5.27803c3.11681,11.05338 5.57696,24.22535 6.76468,35.72453c0.60718,5.87841 3.0605,16.49426 -7.81453,11.48336c-2.18834,-1.00836 -3.26219,-3.55936 -4.69176,-5.49891c-3.92273,-5.32222 -6.17357,-11.96357 -10.06201,-17.3594c-5.93687,-8.23842 -13.52841,-15.40054 -21.14132,-22.10366c-2.40163,0.25483 -4.83161,0.43509 -7.30236,0.52451c-7.65081,1.03051 -14.85629,3.15125 -22.3945,4.38554c-6.34382,1.0387 -13.70055,0.36688 -19.7688,2.05948c-4.24007,1.18266 -6.87692,2.90636 -11.39726,3.3837l-1.96149,0.18744c0,0 -3.29577,0.31499 -3.61076,-2.98082zM250.8757,473.51434c8.14871,7.52541 15.71894,15.67936 21.45118,25.21948c2.27434,3.78514 4.26374,7.97576 6.66439,11.69122c-0.3411,-2.76752 -0.30902,-5.90378 -0.50629,-6.90468c-1.94907,-9.88998 -3.06043,-20.38983 -5.74595,-30.02011c-0.06674,-1.60453 -0.1669,-3.20546 -0.28915,-4.80416c-0.7655,0.17957 -1.5319,0.36326 -2.29897,0.55322c-6.49381,1.60825 -12.83398,3.14237 -19.27518,4.26507zM270.50235,436.19619c0.2801,-5.0278 0.77841,-10.0487 0.64718,-15.07545c-0.13059,-5.00138 -0.64225,-10.27811 -1.45537,-15.20907c-0.2194,-1.33073 -0.48949,-2.65268 -0.7184,-3.98178c-0.2407,-1.39747 -0.61677,-2.78159 -0.69045,-4.19768c-0.00093,-0.01761 -0.00001,-0.03679 0.00252,-0.0573c-1.69335,2.53379 -6.37128,5.3991 -8.27335,7.23648c-8.28755,6.95296 -15.70759,14.858 -23.10228,22.78662c6.09704,1.93375 12.10734,4.31462 18.31728,5.64605c5.04713,1.08214 10.15594,1.96906 15.27286,2.85217zM270.33225,442.88721c-5.44459,-0.94319 -10.88506,-1.8759 -16.26145,-3.02371c-7.51145,-1.60366 -14.74208,-4.77215 -22.17606,-6.79912c-4.24416,4.51035 -8.54215,8.95982 -13.05118,13.17513c8.50464,7.32254 17.6994,13.7743 25.79338,21.63051c9.16881,-1.04962 18.28731,-2.97224 27.26124,-5.28108c-0.63985,-6.37819 -1.4007,-12.74634 -1.55572,-19.18716c-0.00413,-0.17156 -0.00757,-0.34308 -0.01024,-0.51461zM213.91306,441.78743c3.59536,-3.33043 7.05212,-6.81524 10.45001,-10.36624c-8.57462,-1.71719 -16.62257,-3.96634 -24.94944,-7.18522c-0.60159,-0.17605 -4.52798,-1.32459 -7.67078,-2.24555c3.40798,2.4265 6.7008,5.0233 9.8869,7.73068c4.41836,3.75443 8.13643,8.0807 12.28329,12.06632zM276.98616,444.0607c0.18809,5.62573 0.85227,11.2035 1.42495,16.78431c1.97533,-0.54783 3.94231,-1.10886 5.9001,-1.67778c5.41691,-1.57415 10.90439,-4.01111 15.86581,-6.69706c1.15852,-0.62719 2.09964,-1.61199 3.12675,-2.44747c-2.40898,-0.23943 -5.47368,-1.51506 -7.12371,-1.625c-6.30233,-1.8423 -12.73379,-3.1619 -19.19397,-4.33697z" fill="#ffdf00"/></g></g><g stroke="none" stroke-width="0"><path d="M704.95017,482.35622c-15.86798,8.16386 -24.79551,-4.36188 -46.73537,-8.29286c-21.93995,-3.931 -39.27972,-5.65014 -37.22853,-21.05533c1.96315,-14.74336 28.59033,-9.26258 50.53026,-5.33164c21.93995,3.93092 47.10336,21.35093 33.43365,34.67982z" fill="url(#color-35)"/><path d="M700.03088,419.88225c-10.12484,14.69443 -23.91257,7.87598 -45.10499,14.78202c-21.19243,6.90601 -37.28569,13.58683 -42.75949,-0.95831c-5.23865,-13.92037 20.817,-21.67619 42.00937,-28.58222c21.19243,-6.90601 51.60132,-3.44864 45.85498,14.75855z" fill="url(#color-36)"/><path d="M634.23245,404.46517c-19.02638,11.61074 -33.14323,21.82549 -41.82619,8.93628c-8.30996,-12.33546 15.25219,-25.89545 34.27855,-37.50621c19.02638,-11.61074 49.41229,-15.26499 48.02321,3.77688c-6.46005,16.63454 -21.44923,13.18234 -40.4756,24.79307z" fill="url(#color-37)"/><path d="M621.73871,496.58742c-19.77442,18.90135 -32.26485,36.795 -66.08382,1.4346c-32.36608,-33.8413 -14.24893,-48.11192 5.52539,-67.01327c19.77442,-18.90135 29.68221,-41.65733 66.08382,-1.4346c33.55842,37.08103 14.24893,48.11192 -5.52539,67.01327z" fill="url(#color-38)"/><path d="M561.69928,466.86942c-17.46074,7.7229 -24.25697,-22.11777 -19.73481,-43.94347c4.52214,-21.82575 9.35155,-48.57882 23.76548,-44.9104c15.06095,3.83317 10.19926,20.56597 5.67711,42.39174c-4.52214,21.82575 3.77807,34.77565 -9.70769,46.46216z" data-paper-data="{&quot;index&quot;:null}" fill="url(#color-39)"/></g><g data-paper-data="{&quot;index&quot;:null}" stroke="none" stroke-width="0"><path d="M-177.47495,446.0261c21.98625,-3.66263 48.67843,-8.81775 50.46136,5.94845c1.8629,15.42909 -15.49664,16.9363 -37.48292,20.59901c-21.98624,3.66266 -31.06612,16.07841 -46.83315,7.72136c-13.50591,-13.49487 11.86845,-30.60618 33.85475,-34.26884z" fill="url(#color-40)"/><path d="M-205.64757,417.88576c-5.52355,-18.27598 24.92531,-21.36168 46.0318,-14.19733c21.10649,7.16436 47.06543,15.23791 41.65712,29.09322c-5.65103,14.47723 -21.66143,7.60034 -42.76798,0.43597c-21.10649,-7.16436 -34.97647,-0.51483 -44.92105,-15.33188z" fill="url(#color-41)"/><path d="M-179.83551,377.98792c-1.1564,-19.05742 29.18262,-15.03229 48.06579,-3.18998c18.88316,11.84227 42.27791,25.68905 33.81786,37.92215c-8.83979,12.78219 -22.83077,2.39575 -41.71392,-9.44652c-18.88316,-11.84227 -33.91335,-8.57342 -40.16972,-25.2856z" fill="url(#color-42)"/><path d="M-133.00466,428.46574c36.89021,-39.77514 46.5193,-16.89983 66.06136,2.24167c19.54197,19.14149 37.48346,33.63233 4.70641,67.07578c-34.24834,34.94475 -46.5193,16.89983 -66.06136,-2.24167c-19.54197,-19.14149 -38.71527,-30.40738 -4.70641,-67.07578z" fill="url(#color-43)"/><path d="M-67.90031,466.55916c-13.34206,-11.85036 -4.88428,-24.69792 -9.13946,-46.57725c-4.25521,-21.87935 -8.91215,-38.67036 6.19447,-42.31922c14.45764,-3.49212 18.9599,23.31798 23.21512,45.19734c4.25521,21.87928 -2.90502,51.6348 -20.27009,43.69912z" data-paper-data="{&quot;index&quot;:null}" fill="url(#color-44)"/></g></g></g></svg>