<svg version="1.1" xmlns="http://www.w3.org/2000/svg" xmlns:xlink="http://www.w3.org/1999/xlink" width="728.62012" height="470.32228" viewBox="0,0,728.62012,470.32228"><defs><linearGradient x1="228.72281" y1="218.07993" x2="249.69833" y2="218.07993" gradientUnits="userSpaceOnUse" id="color-1"><stop offset="0" stop-color="#7a7a7a"/><stop offset="1" stop-color="#a4a4a4"/></linearGradient><linearGradient x1="185.92536" y1="157.24985" x2="197.28348" y2="157.24985" gradientUnits="userSpaceOnUse" id="color-2"><stop offset="0" stop-color="#7a7a7a"/><stop offset="1" stop-color="#a4a4a4"/></linearGradient><linearGradient x1="278.7333" y1="157.24985" x2="290.09139" y2="157.24985" gradientUnits="userSpaceOnUse" id="color-3"><stop offset="0" stop-color="#7a7a7a"/><stop offset="1" stop-color="#a4a4a4"/></linearGradient><linearGradient x1="239.51144" y1="110.97022" x2="239.51144" y2="147.87705" gradientUnits="userSpaceOnUse" id="color-4"><stop offset="0" stop-color="#a4a4a4"/><stop offset="1" stop-color="#7a7a7a"/></linearGradient><linearGradient x1="238.52196" y1="121.90291" x2="238.52196" y2="132.77433" gradientUnits="userSpaceOnUse" id="color-5"><stop offset="0" stop-color="#6b6b6b"/><stop offset="1" stop-color="#222222"/></linearGradient><linearGradient x1="253.89606" y1="234.48328" x2="253.89606" y2="241.39526" gradientUnits="userSpaceOnUse" id="color-6"><stop offset="0" stop-color="#9a9a9a"/><stop offset="1" stop-color="#dedede"/></linearGradient><linearGradient x1="243.73133" y1="234.42065" x2="243.73133" y2="241.33262" gradientUnits="userSpaceOnUse" id="color-7"><stop offset="0" stop-color="#9a9a9a"/><stop offset="1" stop-color="#dedede"/></linearGradient><linearGradient x1="233.62918" y1="234.42065" x2="233.62918" y2="241.33262" gradientUnits="userSpaceOnUse" id="color-8"><stop offset="0" stop-color="#9a9a9a"/><stop offset="1" stop-color="#dedede"/></linearGradient><linearGradient x1="223.46443" y1="234.358" x2="223.46443" y2="241.26997" gradientUnits="userSpaceOnUse" id="color-9"><stop offset="0" stop-color="#9a9a9a"/><stop offset="1" stop-color="#dedede"/></linearGradient><linearGradient x1="238.34006" y1="227.36533" x2="238.34006" y2="237.63897" gradientUnits="userSpaceOnUse" id="color-10"><stop offset="0" stop-color="#a4a4a4"/><stop offset="1" stop-color="#3d3d3d"/></linearGradient><linearGradient x1="253.83342" y1="250.50882" x2="253.83342" y2="257.42076" gradientUnits="userSpaceOnUse" id="color-11"><stop offset="0" stop-color="#dedede"/><stop offset="1" stop-color="#9a9a9a"/></linearGradient><linearGradient x1="243.66864" y1="250.57147" x2="243.66864" y2="257.48346" gradientUnits="userSpaceOnUse" id="color-12"><stop offset="0" stop-color="#dedede"/><stop offset="1" stop-color="#9a9a9a"/></linearGradient><linearGradient x1="233.56654" y1="250.57147" x2="233.56654" y2="257.48346" gradientUnits="userSpaceOnUse" id="color-13"><stop offset="0" stop-color="#dedede"/><stop offset="1" stop-color="#9a9a9a"/></linearGradient><linearGradient x1="223.40178" y1="250.63412" x2="223.40178" y2="257.54611" gradientUnits="userSpaceOnUse" id="color-14"><stop offset="0" stop-color="#dedede"/><stop offset="1" stop-color="#9a9a9a"/></linearGradient><linearGradient x1="238.27741" y1="254.26515" x2="238.27741" y2="264.53878" gradientUnits="userSpaceOnUse" id="color-15"><stop offset="0" stop-color="#a4a4a4"/><stop offset="1" stop-color="#3d3d3d"/></linearGradient><radialGradient cx="191.81995" cy="127.80528" r="33.81553" gradientUnits="userSpaceOnUse" id="color-16"><stop offset="0" stop-color="#ffffff"/><stop offset="1" stop-color="#c4bfb5"/></radialGradient><radialGradient cx="201.40033" cy="121.69143" r="12.56668" gradientUnits="userSpaceOnUse" id="color-17"><stop offset="0" stop-color="#ffffff"/><stop offset="1" stop-color="#ffffff" stop-opacity="0"/></radialGradient><radialGradient cx="284.14609" cy="128.16031" r="33.81553" gradientUnits="userSpaceOnUse" id="color-18"><stop offset="0" stop-color="#ffffff"/><stop offset="1" stop-color="#c5c1b7"/></radialGradient><radialGradient cx="293.24651" cy="121.69143" r="12.56668" gradientUnits="userSpaceOnUse" id="color-19"><stop offset="0" stop-color="#ffffff"/><stop offset="1" stop-color="#ffffff" stop-opacity="0"/></radialGradient><linearGradient x1="238.00839" y1="185.98003" x2="238.00839" y2="196.32237" gradientUnits="userSpaceOnUse" id="color-20"><stop offset="0" stop-color="#a4a4a4"/><stop offset="1" stop-color="#686868"/></linearGradient><radialGradient cx="300.32404" cy="92.21936" r="129.17958" gradientUnits="userSpaceOnUse" id="color-21"><stop offset="0" stop-color="#e0c297"/><stop offset="1" stop-color="#b9a17e"/></radialGradient><radialGradient cx="265.15575" cy="54.46803" r="106.77551" gradientUnits="userSpaceOnUse" id="color-22"><stop offset="0" stop-color="#634a14"/><stop offset="1" stop-color="#443014"/></radialGradient><linearGradient x1="239.82912" y1="317.32714" x2="239.82912" y2="499.53401" gradientUnits="userSpaceOnUse" id="color-23"><stop offset="0" stop-color="#a4a4a4"/><stop offset="1" stop-color="#7a7a7a"/></linearGradient><linearGradient x1="239.82912" y1="317.32714" x2="239.82912" y2="332.19121" gradientUnits="userSpaceOnUse" id="color-24"><stop offset="0" stop-color="#a4a4a4"/><stop offset="1" stop-color="#7a7a7a"/></linearGradient><linearGradient x1="239.82912" y1="310.59499" x2="239.82912" y2="338.92339" gradientUnits="userSpaceOnUse" id="color-25"><stop offset="0" stop-color="#303030"/><stop offset="1" stop-color="#4b4b4b"/></linearGradient><radialGradient cx="438.37933" cy="337.6402" r="24.60513" gradientUnits="userSpaceOnUse" id="color-26"><stop offset="0" stop-color="#7582b0"/><stop offset="1" stop-color="#485b9d"/></radialGradient><radialGradient cx="462.51303" cy="351.46824" r="53.0809" gradientUnits="userSpaceOnUse" id="color-27"><stop offset="0" stop-color="#7582b0"/><stop offset="1" stop-color="#485b9d"/></radialGradient><radialGradient cx="44.00877" cy="338.01927" r="24.60513" gradientUnits="userSpaceOnUse" id="color-28"><stop offset="0" stop-color="#7582b0"/><stop offset="1" stop-color="#485b9d"/></radialGradient><radialGradient cx="19.70796" cy="351.55148" r="53.0809" gradientUnits="userSpaceOnUse" id="color-29"><stop offset="0" stop-color="#7582b0"/><stop offset="1" stop-color="#485b9d"/></radialGradient><radialGradient cx="334.72949" cy="313.15825" r="24.46344" gradientUnits="userSpaceOnUse" id="color-30"><stop offset="0" stop-color="#7582b0"/><stop offset="1" stop-color="#485b9d"/></radialGradient><radialGradient cx="363.60286" cy="324.00412" r="53.94976" gradientUnits="userSpaceOnUse" id="color-31"><stop offset="0" stop-color="#7582b0"/><stop offset="1" stop-color="#485b9d"/></radialGradient><radialGradient cx="147.9499" cy="314.8052" r="24.46344" gradientUnits="userSpaceOnUse" id="color-32"><stop offset="0" stop-color="#7582b0"/><stop offset="1" stop-color="#485b9d"/></radialGradient><radialGradient cx="118.94623" cy="325.29758" r="53.94976" gradientUnits="userSpaceOnUse" id="color-33"><stop offset="0" stop-color="#7582b0"/><stop offset="1" stop-color="#485b9d"/></radialGradient><linearGradient x1="137.8583" y1="386.95459" x2="343.85353" y2="386.95459" gradientUnits="userSpaceOnUse" id="color-34"><stop offset="0" stop-color="#7582b0"/><stop offset="1" stop-color="#485b9d"/></linearGradient><linearGradient x1="569.54265" y1="368.90099" x2="571.33779" y2="404.0431" gradientUnits="userSpaceOnUse" id="color-35"><stop offset="0" stop-color="#e0c297"/><stop offset="1" stop-color="#b9a17e"/></linearGradient><linearGradient x1="562.78301" y1="337.96996" x2="564.3135" y2="367.9315" gradientUnits="userSpaceOnUse" id="color-36"><stop offset="0" stop-color="#e0c297"/><stop offset="1" stop-color="#b9a17e"/></linearGradient><linearGradient x1="544.11586" y1="310.24434" x2="546.13839" y2="349.8382" gradientUnits="userSpaceOnUse" id="color-37"><stop offset="0" stop-color="#e0c297"/><stop offset="1" stop-color="#b9a17e"/></linearGradient><linearGradient x1="466.4237" y1="388.47739" x2="557.51522" y2="382.14893" gradientUnits="userSpaceOnUse" id="color-38"><stop offset="0" stop-color="#e0c297"/><stop offset="1" stop-color="#b9a17e"/></linearGradient><linearGradient x1="473.69882" y1="351.99249" x2="498.24926" y2="355.26739" gradientUnits="userSpaceOnUse" id="color-39"><stop offset="0" stop-color="#e0c297"/><stop offset="1" stop-color="#b9a17e"/></linearGradient><linearGradient x1="-87.52662" y1="367.67558" x2="-89.75087" y2="402.79315" gradientUnits="userSpaceOnUse" id="color-40"><stop offset="0" stop-color="#e0c297"/><stop offset="1" stop-color="#b9a17e"/></linearGradient><linearGradient x1="-80.38966" y1="336.82942" x2="-82.28603" y2="366.77006" gradientUnits="userSpaceOnUse" id="color-41"><stop offset="0" stop-color="#e0c297"/><stop offset="1" stop-color="#b9a17e"/></linearGradient><linearGradient x1="-61.38525" y1="309.33392" x2="-63.89128" y2="348.90011" gradientUnits="userSpaceOnUse" id="color-42"><stop offset="0" stop-color="#e0c297"/><stop offset="1" stop-color="#b9a17e"/></linearGradient><linearGradient x1="15.34553" y1="388.5101" x2="-75.6619" y2="381.06946" gradientUnits="userSpaceOnUse" id="color-43"><stop offset="0" stop-color="#e0c297"/><stop offset="1" stop-color="#b9a17e"/></linearGradient><linearGradient x1="8.5166" y1="351.93908" x2="-16.07203" y2="354.91384" gradientUnits="userSpaceOnUse" id="color-44"><stop offset="0" stop-color="#e0c297"/><stop offset="1" stop-color="#b9a17e"/></linearGradient></defs><g transform="translate(123.45583,-29.21173)"><g data-paper-data="{&quot;isPaintingLayer&quot;:true}" fill-rule="nonzero" stroke-linecap="butt" stroke-linejoin="miter" stroke-miterlimit="10" stroke-dasharray="" stroke-dashoffset="0" style="mix-blend-mode: normal"><path d="M169.08855,492.04168c0,0 1.95355,-95.5561 -3.83254,-132.07665c-3.94914,-24.92614 -27.52962,-57.69974 -27.52962,-57.69974c0,0 69.24965,-20.2348 103.91495,-19.98524c33.98638,0.24468 102.08032,21.46837 102.08032,21.46837c0,0 -27.24495,28.38102 -31.27809,51.77476c-6.2526,36.26803 -2.5931,136.51847 -2.5931,136.51847z" fill="#191919" stroke="none" stroke-width="0"/><path d="M348.56639,140.36185c0,23.32751 37.24645,45.47354 7.7096,86.04277c-30.70115,42.16848 -81.17528,50.80748 -119.19769,50.80748c-40.74635,0 -76.93742,0.16946 -116.97146,-53.97303c-27.16966,-36.74453 5.48338,-62.24784 5.48338,-82.87725c0,-60.98952 49.9149,-110.4313 111.48804,-110.4313c61.57315,0 111.48804,49.44178 111.48804,110.4313z" fill="#191919" stroke="none" stroke-width="0"/><g><path d="M294.87266,209.55404c3.58277,-2.49286 7.443,-10.88491 8.57782,-15.04398c-0.03127,-5.31551 3.49262,-11.95948 2.29385,-16.97037c-1.29722,-5.42246 -4.81334,-10.61027 -6.62798,-15.91123c-1.65039,-4.82101 -3.41205,-9.46516 -5.589,-13.85553c1.55222,5.91087 2.28485,12.07474 1.51713,16.92368c-1.03325,6.52609 -4.27503,12.68979 -3.15184,19.52764c1.5578,9.48368 8.17326,12.16128 3.27179,22.40245c-0.99742,1.73435 -2.12863,3.11934 -3.37169,4.22535c1.09989,-0.2354 2.14061,-0.64449 3.07987,-1.29801zM287.91279,129.10682c8.35011,8.66119 12.99944,19.05919 16.8456,30.40087c1.86635,5.50354 5.61815,10.91854 6.82757,16.60387c1.32867,6.24585 -2.15789,12.89705 -2.1913,19.26069c-1.60473,5.78025 -6.1189,15.86587 -11.15699,19.32911c-5.74311,3.94785 -12.83343,2.17594 -19.05366,1.4448c-11.64505,-1.36874 -23.18814,0.42581 -34.29032,3.24679c-0.66657,0.00393 -1.3331,0.0072 -1.9996,0.0099l0.44334,2.99771c0,0 -0.94904,2.94852 -3.79611,1.96569c-1.77785,-0.61375 -2.07547,-1.99399 -2.04827,-2.94412c-0.71452,-0.45604 -1.43348,-0.89247 -2.15363,-1.31448c-0.842,0.37196 -2.32078,0.66306 -3.52919,-1.0056c-0.02962,-0.04087 -0.05806,-0.08155 -0.08541,-0.12208c-0.51856,-0.29057 -1.02294,-0.77462 -1.26427,-1.5811c-0.44838,-0.24247 -0.89423,-0.48394 -1.33683,-0.72557c1.21471,2.13512 2.26469,4.3975 4.50949,5.87444l1.93002,1.49311c0,0 2.40088,1.86482 0.60024,4.35122c-1.80067,2.48641 -4.2015,0.62161 -4.2015,0.62161l-1.65812,-1.29389c-3.68189,-2.62687 -4.59211,-7.16714 -7.59736,-9.73579c-1.36085,-1.16318 -3.51601,-0.31702 -5.27701,-0.43174c-3.75407,-0.24457 -9.84271,-0.35598 -12.94306,-3.03288c-4.49329,-3.87956 -4.39732,-13.21161 -8.00813,-18.22414c-9.87951,-0.61291 -18.30234,-9.08122 -16.35116,-20.02412c0.48455,-2.71772 2.71726,-4.78516 3.68318,-7.36145c2.01307,-5.36954 -2.89682,-13.04688 -3.68581,-18.0213c-1.06508,-6.71542 1.86843,-11.64172 5.55971,-16.32403c0.14231,-0.38291 0.28925,-0.77023 0.44016,-1.16253c0,0 0.61015,-1.57968 2.05613,-1.93403c-0.01609,-0.36238 -0.02554,-0.72641 -0.0282,-1.09222c0,0 0,-3.10801 3.00107,-3.10801c3.00107,0 3.0011,3.10801 3.0011,3.10801c-0.10473,11.19644 7.4457,17.99696 13.6515,25.87352c1.41619,1.79753 3.3546,6.18258 3.79255,8.40952c0.40589,2.06386 -1.09979,6.39292 0.90353,8.05122c2.89733,2.39835 9.84508,2.24893 11.92823,5.40739c2.35504,3.57065 1.89288,8.44254 3.29582,12.51525c2.73937,4.62805 4.35225,8.95427 5.78252,14.13839l0.41001,1.26452c0,0 0.94905,2.94852 -1.89801,3.93138c-2.8471,0.98286 -3.79611,-1.96569 -3.79611,-1.96569l-0.48704,-1.52251c-1.35279,-4.90355 -2.86536,-8.774 -5.42963,-13.17187c-1.25368,-3.63209 -0.81711,-7.8476 -2.53577,-11.26956c-0.72328,-1.44008 -9.66081,-3.05466 -11.39471,-4.8116c-4.32671,-4.38417 -1.55172,-9.42549 -3.7938,-14.40746c-1.54838,-3.44059 -4.61082,-5.25457 -6.8519,-8.26968c-3.19459,-4.29801 -6.03611,-8.96946 -7.7789,-14.02846c-0.89349,3.10474 -0.94622,6.00963 1.39273,9.40541c1.71139,2.48465 4.43238,4.25372 5.67415,7.02158c2.53705,5.65499 -1.19674,16.40769 4.2417,20.84547c6.826,5.57004 14.26898,8.9634 17.89877,17.70315c1.1507,7.97521 5.50183,11.79494 10.89054,14.91771h1.02095c3.80743,0.16732 7.35784,-2.67033 10.82918,-4.34771c6.36607,-3.07616 12.95117,-5.35758 18.60082,-9.75624c4.1815,-3.89535 2.6584,-14.02483 4.01347,-19.405c1.16439,-4.62287 4.98566,-6.40899 7.84911,-9.60909c3.15745,-3.52865 6.05129,-8.97123 7.58606,-13.4093c2.87984,-8.32755 -0.73606,-16.93747 -0.74858,-25.36832c0,0 0,-3.10801 3.00107,-3.10801c2.39668,0 2.87937,1.98218 2.97655,2.78061c1.51436,-0.34604 2.73367,0.91674 2.73367,0.91674zM272.78366,209.01965c6.10427,0 13.83086,0.9796 17.08883,-5.32603c3.67049,-7.51917 -2.56534,-10.81505 -3.90451,-18.47365c-1.31901,-7.54346 1.95018,-14.17517 3.12742,-21.34842c0.79262,-4.82958 -0.32303,-11.72728 -2.27437,-17.80121c0.12188,3.31172 -0.14679,6.65534 -1.29313,10.11103c-1.69997,5.12443 -5.15187,11.27548 -8.73646,15.31068c-1.79342,2.01888 -5.91156,4.03916 -6.50349,7.11296c-1.49922,7.78484 -0.35326,16.39264 -5.85393,22.4001c-2.98242,2.31206 -7.10075,5.09334 -11.60371,7.66476c6.48701,-0.26576 13.10256,0.3498 19.95333,0.3498zM213.38071,197.17381c-2.99741,-7.28637 -10.8303,-9.88578 -16.18859,-14.81193c-5.45031,-5.01068 -4.36731,-13.04638 -4.98529,-19.59668c-0.38459,-4.07655 -2.6349,-5.29112 -4.73566,-7.84783c0.88718,2.53761 1.87129,5.06913 2.17557,7.59344c1.1915,9.88523 -10.29831,23.17917 4.98208,27.57232c1.51164,0.4346 3.10342,0.47797 4.65512,0.71691c3.80056,4.31629 5.40032,7.36894 7.26113,12.87086c0.67429,1.99369 0.11487,4.83684 1.77443,6.06506c3.2618,2.41402 8.16734,1.31581 12.43111,1.50686c-3.73234,-3.19364 -6.49776,-7.39022 -7.36991,-14.06905z" fill="#000000" stroke="none" stroke-width="0.5"/><path d="M228.72281,317.50167v-198.84346h20.97553v198.59705z" fill="url(#color-1)" stroke="none" stroke-width="0"/><path d="M185.92536,195.84151v-77.18332h11.35812v77.08767z" fill="url(#color-2)" stroke="none" stroke-width="0"/><path d="M278.7333,195.84151v-77.18332h11.35812v77.08767z" fill="url(#color-3)" stroke="none" stroke-width="0"/><path d="M174.46073,147.87705v-36.90678h130.10144v36.90678z" fill="url(#color-4)" stroke="none" stroke-width="0"/><path d="M153.39405,132.77433v-10.87149h170.25584v10.87149z" fill="url(#color-5)" stroke="none" stroke-width="0"/><g stroke="none" stroke-width="0"><path d="M249.64254,241.39526v-6.91198h8.50703v6.91198z" fill="url(#color-6)"/><path d="M239.4778,241.33262v-6.91198h8.50705v6.91198z" fill="url(#color-7)"/><path d="M229.3757,241.33262v-6.91198h8.50703v6.91198z" fill="url(#color-8)"/><path d="M219.21095,241.26997v-6.91198h8.50703v6.91198z" fill="url(#color-9)"/><path d="M212.29151,237.63897v-10.27361h52.0971v10.27361z" fill="url(#color-10)"/></g><g data-paper-data="{&quot;index&quot;:null}" stroke="none" stroke-width="0"><path d="M258.08694,250.50882v6.91198h-8.50703v-6.91198z" fill="url(#color-11)"/><path d="M247.92218,250.57147v6.91198h-8.50703v-6.91198z" fill="url(#color-12)"/><path d="M237.82009,250.57147v6.91198h-8.50703v-6.91198z" fill="url(#color-13)"/><path d="M227.65532,250.63412v6.91198h-8.50703v-6.91198z" fill="url(#color-14)"/><path d="M264.32597,254.26515v10.27361h-52.0971v-10.27361c0,0 14.57128,0 22.60694,0c9.17782,0 29.49016,0 29.49016,0z" fill="url(#color-15)"/></g><g stroke-width="0"><g><path d="M225.4664,127.80528c0,18.6758 -15.06404,33.81553 -33.64645,33.81553c-18.58242,0 -33.64645,-15.13974 -33.64645,-33.81553c0,-18.6758 15.06404,-33.81553 33.64645,-33.81553c18.58242,0 33.64645,15.13974 33.64645,33.81553z" fill="url(#color-16)" stroke="#000000"/><path d="M203.21897,127.96503c0,6.94039 -5.24268,12.56668 -11.70988,12.56668c-6.46718,0 -11.70987,-5.6263 -11.70987,-12.56668c0,-6.94039 5.24267,-12.56666 11.70987,-12.56666c6.46718,0 11.70988,5.62629 11.70988,12.56666z" fill="#000000" stroke="none"/></g><path d="M213.1102,121.69143c0,6.94039 -5.24268,12.56668 -11.70988,12.56668c-6.46718,0 -11.70987,-5.6263 -11.70987,-12.56668c0,-6.94039 5.24267,-12.56666 11.70987,-12.56666c6.46718,0 11.70988,5.62629 11.70988,12.56666z" fill="url(#color-17)" stroke="none"/></g><g stroke-width="0"><g><path d="M317.79259,128.16031c0,18.6758 -15.06404,33.81553 -33.64645,33.81553c-18.58242,0 -33.64645,-15.13974 -33.64645,-33.81553c0,-18.6758 15.06404,-33.81553 33.64645,-33.81553c18.58242,0 33.64645,15.13974 33.64645,33.81553z" fill="url(#color-18)" stroke="#000000"/><path d="M295.54513,128.32009c0,6.94039 -5.24268,12.56668 -11.70987,12.56668c-6.46718,0 -11.70987,-5.6263 -11.70987,-12.56668c0,-6.94039 5.24267,-12.56666 11.70987,-12.56666c6.46718,0 11.70987,5.62629 11.70987,12.56666z" fill="#000000" stroke="none"/></g><path d="M304.95637,121.69143c0,6.94039 -5.24268,12.56668 -11.70988,12.56668c-6.46718,0 -11.70987,-5.6263 -11.70987,-12.56668c0,-6.94039 5.24267,-12.56666 11.70987,-12.56666c6.46718,0 11.70988,5.62629 11.70988,12.56666z" fill="url(#color-19)" stroke="none"/></g><path d="M185.92536,196.32237v-10.34237h104.16607v10.32953z" fill="url(#color-20)" stroke="none" stroke-width="0"/></g><g stroke="none" stroke-width="0"><g><path d="M348.56639,140.36185c0,23.32751 37.24645,45.47354 7.70965,86.04277c-30.70115,42.16848 -81.17528,50.80748 -119.19769,50.80748c-40.74635,0 -76.93742,0.16946 -116.97146,-53.97303c-27.16966,-36.74453 5.48338,-62.24784 5.48338,-82.87725c0,-60.98952 49.9149,-110.4313 111.48804,-110.4313c61.57315,0 111.48804,49.44178 111.48804,110.4313zM238.19979,260.00692c23.16277,0.43416 44.56219,-8.37664 60.07499,-18.9753c-0.11758,0.72841 -0.24186,1.42834 -0.02442,1.77522c1.63891,2.61457 4.14067,0.12289 5.22215,3.68412l-0.06382,0.5686c0,0 0,1.24321 1.24321,1.24321c1.24321,0 1.24321,-1.24321 1.24321,-1.24321l-0.06382,-1.35489c-0.52404,-1.48066 -1.50313,-3.43999 -3.10801,-4.12153c-0.69088,-0.29337 -2.34247,0.85647 -2.24901,0.11173c0.10199,-0.81271 0.15891,-1.58522 0.10417,-2.28098c13.86861,-10.00996 22.46274,-21.24141 22.46274,-27.69081c0,-2.38228 -1.22096,-3.42883 -3.46266,-3.53188c1.06107,-3.30714 2.63993,-7.12461 -0.50562,-8.44374c-1.66681,-0.69901 -4.80827,0.32678 -5.4713,2.11542c-0.36796,0.99273 1.58598,2.67952 0.6209,3.11496c-0.39002,0.17596 -3.28041,0.24021 -3.84697,0.96174c-0.35088,0.44689 -0.03873,1.6048 -0.60679,1.59288c-1.10924,1.10924 -1.44651,2.42042 -2.0773,3.59693c-15.67173,5.65695 -41.41173,17.47951 -68.01111,17.42815c-55.07106,-0.10624 -81.75228,-29.50628 -81.75228,-15.77421c0,2.67017 1.32715,6.05542 3.79743,9.78294c-2.12686,0.19843 -4.01014,0.26194 -6.62932,-0.69874c-1.85994,-0.68221 -3.56118,0.60341 -5.0276,-0.0369c-0.06635,-0.35793 -0.31173,-1.01949 -1.21859,-1.01949c-1.24321,0 -1.24321,1.24321 -1.24321,1.24321l0.55361,1.51529c4.14859,2.44532 10.0316,1.55594 15.16911,1.25289c11.50431,15.18052 40.22531,34.5351 74.87034,35.18445zM191.93159,165.05105c20.59811,0 37.29616,-16.69806 37.29616,-37.29616c0,-20.59811 -16.69806,-37.29616 -37.29616,-37.29616c-20.59811,0 -37.29616,16.69806 -37.29616,37.29616c0,20.59811 16.69806,37.29616 37.29616,37.29616zM285.61041,165.62224c20.59811,0 37.29616,-16.69806 37.29616,-37.29616c0,-20.59811 -16.69806,-37.29616 -37.29616,-37.29616c-20.59811,0 -37.29616,16.69806 -37.29616,37.29616c0,20.59811 16.69806,37.29616 37.29616,37.29616z" fill="url(#color-21)"/><path d="M237.66449,29.21173c48.82139,0 90.61382,28.58681 107.83874,69.10024c-3.62046,-3.31073 -7.4854,-6.38875 -11.6134,-9.20918c-5.05381,-7.74257 -11.28337,-9.21531 -20.11393,-9.21531c-2.09712,0 -5.06512,0.69813 -7.84441,0.85028c-1.8682,-0.41225 -3.73683,-0.80601 -5.60461,-1.19049c-0.54817,-0.42115 -1.00893,-0.97312 -1.35514,-1.68779c-2.83513,-3.87383 -7.03932,-2.47312 -11.40087,-4.15832c-9.93305,-3.8379 -20.58926,-3.76629 -31.25244,-2.49208c-3.01404,-0.36985 -6.02547,-0.68417 -9.04001,-0.9466c-3.28371,-2.11163 -6.33532,-5.8795 -9.87792,-7.5327c-5.42606,-2.53217 -9.32385,2.10719 -13.43439,3.89644c-2.07449,0.90296 -4.77746,1.19637 -7.00926,2.33672c-7.85647,0.94534 -16.17991,-0.41563 -23.96266,0.9026c-1.3399,0.22695 -8.4757,1.81098 -9.48827,0.82116c-3.34254,-3.26739 -6.0028,-3.06859 -10.36649,-0.3641c-5.6857,8.62116 -14.66438,9.96623 -23.60848,13.66847c-0.16908,-0.96676 -1.2204,-0.96676 -1.2204,-0.96676c-4.15036,0.07443 -10.5902,4.50025 -15.41696,8.70289c18.78352,-36.99179 58.63937,-62.51538 104.77093,-62.51538z" fill="url(#color-22)"/></g><path d="M283.4364,80.61059c13.42637,-0.44327 26.27856,6.1505 26.36957,8.90772c0.09103,2.7572 -12.41226,-2.38553 -25.83866,-1.94224c-13.42637,0.44327 -24.67672,1.71473 -24.67672,1.71473c0,0 10.71942,-8.23693 24.14583,-8.68021z" fill="#000000"/><path d="M195.18691,86.4886c-13.42637,-0.44327 -25.92965,4.69943 -25.83864,1.94224c0.09103,-2.7572 12.9432,-9.351 26.36957,-8.90772c13.42637,0.44327 24.23682,5.92304 24.14583,8.68022c0,0 -11.25037,-1.27148 -24.67674,-1.71475z" data-paper-data="{&quot;index&quot;:null}" fill="#000000"/></g><g stroke="none"><path d="M236.32412,329.49517c0.96223,-0.6415 1.80514,-0.68626 2.48429,-0.48953l-0.02133,-2.69486c0,0 0,-3.10801 3.10801,-3.10801c3.10801,0 3.10801,3.10801 3.10801,3.10801l-0.03005,2.93501c0.34333,1.20165 0.63322,2.5652 0.83248,4.00662l0.52056,1.82192c0.50832,1.78175 0.88754,3.56303 1.17038,5.34336c5.08722,10.94305 3.7615,25.44243 3.75474,37.00611c-0.03018,0.32551 -0.06131,0.65064 -0.09329,0.9755c3.49603,8.42651 8.62448,16.51164 9.227,25.6193c0.59078,8.93055 -5.42191,16.43244 -4.35185,25.24816c0.41908,3.45268 8.9406,17.19923 12.41607,14.25932c3.08522,-3.1551 7.72704,-6.6234 8.89068,-11.17621c1.09648,-4.29008 -1.89391,-9.18562 -2.45771,-13.2828c-0.29387,-2.13573 0.30845,-9.62752 0.52448,-10.71815c1.25367,-6.32902 6.35167,-10.96971 9.49075,-16.28963c0.13218,-0.22401 0.26163,-0.44739 0.38837,-0.67013c-0.93764,-7.27758 -2.91684,-14.38868 -6.32735,-21.03861c-3.16862,-8.43623 -9.37327,-18.7582 -5.86729,-28.20026c5.34011,-14.38169 21.79952,-15.11298 34.14061,-19.25503c0.66317,-0.22258 1.31415,-0.43465 1.95545,-0.63219c0.33593,-0.1247 0.67105,-0.24295 1.00479,-0.35464c0.67569,-0.22612 1.36471,-0.3819 2.06413,-0.47811c4.0833,-0.92487 7.9305,-0.92998 12.29608,1.13882c0,0 0.99005,0.49505 1.49304,1.48512c2.16631,0.69749 4.26327,1.32348 6.21219,1.58409c0,0 3.07678,0.43955 2.63724,3.51631c-0.43955,3.07678 -3.51631,2.63724 -3.51631,2.63724c-4.57529,-0.68655 -12.83655,-5.20348 -18.06086,-4.30311c-0.46236,0.12244 -0.92689,0.2595 -1.39486,0.40568c-6.74531,2.7146 -15.50722,8.33271 -16.44667,16.06682c-0.7843,6.45664 1.90222,12.97305 1.94204,19.37655c0,10.51826 -0.819,19.34945 -5.40364,28.61564c3.49312,24.36655 -3.86546,50.21076 -24.3102,64.8267c-10.64619,5.99921 -16.63571,-7.95237 -21.67599,-15.76074c-11.44628,-17.7326 -3.36198,-42.10562 -1.19358,-61.8018c-0.40991,-1.00827 -0.78941,-2.01743 -1.12594,-3.02843c-2.05741,-9.38799 -0.95756,-18.76178 -1.54826,-28.16846c-1.24123,0.81304 -2.63598,1.49142 -3.26294,2.77605c-1.19765,2.45397 -0.45336,6.91329 -0.64158,9.00031c-0.52203,5.78815 -3.43804,10.30342 -3.35097,16.04331c0,6.12829 2.75188,19.29174 -1.54838,24.41818c-1.22114,1.45574 -2.77605,2.25582 -4.51264,2.55677c-3.73431,2.97524 -9.06795,4.26412 -9.84703,9.58327c-1.18373,8.0818 6.64644,9.91932 8.98079,16.2155c2.65569,7.16293 0.02461,15.24088 -6.34965,18.82514c-12.5847,9.03839 -31.94035,5.14795 -34.27569,-12.59633c-0.84438,-6.41567 7.26918,-17.03233 4.54615,-22.70963c-2.757,-5.74819 -8.82594,-10.42475 -11.89059,-16.55332c-5.48516,-9.74856 -2.16709,-20.60456 -3.69372,-31.26352c-1.21501,-8.48312 -4.45858,-16.51433 -7.49746,-24.31371c-1.82298,-4.67871 -3.0979,-11.60358 -8.72519,-12.44803c-0.91278,0.50113 -1.85502,1.02061 -2.88218,1.53594c0,0 -2.77987,1.38994 -4.16983,-1.38996c-1.38994,-2.77987 1.38994,-4.16983 1.38994,-4.16983c0.29954,-0.14924 0.60397,-0.29729 0.91288,-0.44386c0.71579,-1.80772 2.88139,-1.80772 2.88139,-1.80772c0.40068,0.01645 0.78989,0.04323 1.16805,0.08016c12.85628,-4.89614 30.18631,-6.06995 34.09055,11.51919c2.00293,9.02354 -2.26174,15.2721 5.09754,22.69962c7.61487,4.31922 12.57392,10.51381 13.70083,19.40153c0.61463,4.84769 -0.78764,9.63422 1.96957,14.14358c1.27569,2.08637 2.75019,2.97775 4.79689,4.29644c0.47312,0.30481 4.5344,2.13352 7.12268,2.95507c2.1964,-6.92683 -0.78122,-16.75907 -2.25043,-23.40794c-0.76552,-7.57182 -3.76162,-17.72586 -1.87962,-25.25019c1.33016,-5.31803 5.88048,-11.5786 9.2929,-15.70172l0.08863,-0.36198c0,0 1.3616,-2.72318 4.08477,-1.43137c0.20574,-0.252 0.47371,-0.49686 0.81803,-0.72642zM246.92658,419.11871c0,5.17145 -0.53959,10.61269 2.03935,15.36911c2.80747,5.17796 6.59558,9.83634 10.25055,14.41119c2.11706,2.6499 2.31962,5.36939 4.9566,2.76532c0.93979,-0.67066 1.85812,-1.38023 2.7578,-2.11981c-7.21161,-0.3959 -12.54075,-8.32401 -15.81365,-15.13072c-4.97273,-10.34193 3.75339,-19.76052 3.06366,-30.00892c-0.33483,-4.97559 -2.23577,-9.78204 -4.43045,-14.52625c-1.33723,9.67993 -2.82387,19.26593 -2.82387,29.2401zM284.60343,419.40621c0.89955,-5.99534 1.42359,-12.13466 1.34935,-18.2495c-2.02012,2.65523 -3.91089,5.42626 -4.47699,8.53519c-1.03925,5.70752 1.18192,11.18913 2.03455,16.6438c0.46727,-2.43803 0.78009,-4.84338 1.09308,-6.9295zM278.98264,344.13212c-2.90952,7.64544 3.15686,17.01159 5.67357,23.73373c2.01071,4.10995 3.66465,8.42669 4.94692,12.86571c1.37285,-5.47352 1.59877,-11.02673 1.59877,-17.3938c0.05182,-6.64464 -2.76626,-13.30302 -1.9049,-20.0548c0.49639,-3.89115 2.34749,-7.50701 4.96907,-10.65795c-6.66314,1.95998 -12.79055,4.95651 -15.28339,11.50716zM237.56803,336.93687l-1.08496,-1.61341l-0.37514,0.67094c-2.82978,3.36865 -6.92485,8.77297 -8.01847,13.15047c-1.43857,5.75843 0.62505,13.77321 1.61432,20.13928c0.87867,-3.27924 2.05516,-6.401 2.3662,-10.09958c0.38365,-4.56225 -0.82022,-7.0136 1.2819,-11.19624c1.1348,-2.25799 4.05217,-3.13898 5.52174,-5.19484c0.5678,-0.79434 0.89018,-1.85578 1.04067,-3.04389c-0.69175,-0.99608 -1.47036,-1.93679 -2.34631,-2.8127zM174.55949,337.62402c3.19156,8.22328 6.61121,16.76354 7.89038,25.69679c1.37494,9.60191 -1.96864,20.72223 3.03846,29.32611c3.00738,6.01544 9.85945,11.20483 12.15292,17.10761c3.24816,8.35978 -5.20363,16.37351 -4.1095,24.41567c1.81198,13.31831 16.02489,14.47267 24.82732,7.98196c11.20265,-5.10861 -1.11984,-14.91093 -3.79468,-20.25507c-0.95825,-1.91455 -2.00172,-8.68486 -1.70494,-10.48435c0.48898,-2.96486 3.05095,-7.10339 5.39998,-9.10206c0.50642,-0.43085 1.11575,-0.78479 1.76962,-1.10955c-4.80065,-2.15967 -9.26855,-5.90027 -11.0787,-8.8297c-4.59393,-7.43454 -0.97483,-16.21262 -4.91175,-23.74422c-1.9882,-3.80355 -5.67132,-6.06018 -9.23182,-8.10902c-3.32372,-3.30381 -6.21688,-6.71091 -7.40507,-11.44217c-1.18443,-4.71613 0.91912,-10.17096 0,-14.90698c-1.78051,-9.1745 -12.83248,-11.45034 -20.1819,-9.66824c3.56196,3.06073 5.32941,7.94357 7.33972,13.12325z" fill="#303030" stroke-width="0.5"/><path d="M223.551,499.53401v-182.20687h32.55629v182.20687z" fill="url(#color-23)" stroke-width="0"/><path d="M142.28395,332.19121v-14.86405h195.09037v14.86405z" fill="url(#color-24)" stroke-width="0"/><path d="M170.65528,338.92339v-28.3284h138.3477v28.3284z" fill="url(#color-25)" stroke-width="0"/></g><g data-paper-data="{&quot;index&quot;:null}" stroke="none" stroke-width="0"><path d="M426.08814,370.2793c-11.36097,-7.50739 -14.60898,-22.61559 -7.25451,-33.7451c7.35443,-11.12949 22.52626,-14.06578 33.88724,-6.55839c11.361,7.50739 14.60899,22.61558 7.25454,33.74509c-7.35443,11.12946 -22.52626,14.06578 -33.88724,6.55839z" fill="url(#color-26)"/><path d="M508.64809,420.38182l-83.48448,-47.92971l28.93751,-43.79127l77.20554,57.69832z" fill="url(#color-27)"/></g><g data-paper-data="{&quot;index&quot;:null}" stroke="none" stroke-width="0"><path d="M55.90034,370.80604c-11.45185,7.36808 -26.58667,4.24666 -33.80462,-6.97183c-7.21796,-11.21851 -3.78565,-26.2859 7.6662,-33.65394c11.45185,-7.36808 26.58667,-4.24667 33.80462,6.97183c7.21796,11.21851 3.78565,26.28591 -7.66617,33.65398z" fill="url(#color-28)"/><path d="M-49.50673,385.59951l77.90456,-56.75096l28.40045,44.14146l-84.06369,46.9064z" fill="url(#color-29)"/></g><g data-paper-data="{&quot;index&quot;:null}" stroke="none" stroke-width="0"><path d="M335.96479,350.9185c-13.26962,-3.05793 -21.59832,-16.07479 -18.60267,-29.07399c2.99562,-12.99921 16.18116,-21.05823 29.4508,-18.0003c13.26962,3.05793 21.59832,16.07481 18.60269,29.07403c-2.99562,12.99921 -16.18116,21.05823 -29.4508,18.0003z" fill="url(#color-30)"/><path d="M429.55498,374.86942l-93.69597,-21.59192l11.78687,-51.14804l93.69597,21.59192z" fill="url(#color-31)"/></g><g data-paper-data="{&quot;index&quot;:null}" stroke="none" stroke-width="0"><path d="M146.25341,352.54756c-13.30596,2.89561 -26.39211,-5.32383 -29.22873,-18.35868c-2.83662,-13.03483 5.65047,-25.94901 18.95642,-28.84463c13.30596,-2.89561 26.39211,5.32383 29.22873,18.35868c2.83662,13.03483 -5.65048,25.94898 -18.95642,28.8446z" fill="url(#color-32)"/><path d="M41.21648,324.06524l93.95271,-20.44583l11.16122,51.2882l-93.95271,20.44583z" fill="url(#color-33)"/></g><g stroke="none"><path d="M168.756,492.06958c0,0 2.41804,-96.0206 -3.36809,-132.54113c-3.94914,-24.92614 -27.52962,-57.69974 -27.52962,-57.69974c0,0 69.24965,-20.2348 103.91495,-19.98524c33.98638,0.24468 102.08028,21.46837 102.08028,21.46837c0,0 -27.24495,28.38102 -31.27809,51.77476c-6.2526,36.26803 -2.12859,136.98295 -2.12859,136.98295z" fill="url(#color-34)" stroke-width="0"/><g stroke-width="0.5"><path d="M181.05002,402.17457c-0.26612,-2.7846 2.51849,-3.05075 2.51849,-3.05075l1.65724,-0.15839c3.51903,-0.28994 5.33942,-1.80688 8.75377,-2.70415c5.40096,-1.41936 11.61861,-0.9489 17.2091,-1.84702c6.49639,-1.04367 12.75221,-2.88099 19.34889,-3.75833c0.33433,-0.01234 0.6686,-0.02631 1.00285,-0.04193c-5.98185,-5.26806 -12.42322,-9.94927 -18.44237,-15.16752c-3.39308,2.70535 -7.09306,5.03594 -10.42167,7.83113c0,0 -2.14384,1.79688 -3.94072,-0.34701c-1.79688,-2.14384 0.34701,-3.9407 0.34701,-3.9407c3.13383,-2.62187 6.60485,-4.84171 9.82472,-7.35373c-4.248,-4.0672 -8.13,-8.36384 -12.79162,-12.07352c-3.02804,-2.40967 -6.77861,-4.4023 -9.66246,-6.94088c-1.32152,-1.16328 -3.76542,-2.07043 -3.64063,-3.82659c0.15171,-2.13505 2.27737,-3.98923 4.25425,-4.80983c1.66471,-0.69108 3.58535,0.43064 5.34407,0.82542c0.09344,0.02096 9.81657,2.87853 10.30058,3.0207c7.51886,2.89788 14.72125,4.81778 22.54991,6.30149c0.42403,0.08036 0.84685,0.16701 1.26861,0.25931c7.02722,-7.52643 13.96855,-15.15395 21.84787,-21.75115c2.23379,-2.14389 8.60645,-9.09158 12.45616,-8.03698c4.94872,1.35562 5.40847,13.54266 5.78113,17.42284c0.71323,7.42624 -0.00856,14.7687 -0.17428,22.16127c5.79568,1.03565 11.56924,2.18809 17.21136,3.8476c2.83158,0.18874 11.37342,1.25946 12.65361,4.13958c0.76295,1.71644 -0.8234,3.73606 -1.80253,5.33904c-2.24302,3.67207 -8.63397,5.71334 -12.26635,7.42634c-4.57131,2.15579 -9.2923,3.38219 -14.08557,4.48956c0.11194,1.48416 0.1983,2.97023 0.24417,4.45943c2.63336,9.33898 4.71198,20.46793 5.71545,30.18354c0.51298,4.96662 2.58578,13.93597 -6.60249,9.70225c-1.84896,-0.85194 -2.75624,-3.00724 -3.96405,-4.64596c-3.31432,-4.49673 -5.21604,-10.108 -8.50134,-14.66693c-5.01603,-6.96061 -11.43012,-13.01186 -17.86225,-18.6753c-2.02913,0.21529 -4.08222,0.36762 -6.16971,0.44318c-6.46413,0.87071 -12.55204,2.66248 -18.92105,3.70531c-5.3599,0.87763 -11.57554,0.30999 -16.7026,1.74003c-3.58239,0.99921 -5.81024,2.45556 -9.62949,2.85887l-1.65722,0.15839c0,0 -2.78465,0.26612 -3.05075,-2.51849zM244.3957,394.7651c6.88483,6.35817 13.28089,13.24742 18.12402,21.30785c1.9216,3.19804 3.60243,6.7387 5.63074,9.87786c-0.28822,-2.33824 -0.2611,-4.98811 -0.42775,-5.83374c-1.64674,-8.35601 -2.58575,-17.2273 -4.85473,-25.36389c-0.05639,-1.35563 -0.14102,-2.7083 -0.24432,-4.05903c-0.64677,0.15176 -1.29429,0.30691 -1.94241,0.46739c-5.48658,1.35878 -10.84338,2.65496 -16.28555,3.60356zM260.97819,363.2351c0.23668,-4.24795 0.65768,-8.49009 0.54679,-12.73723c-0.11032,-4.22567 -0.54262,-8.68393 -1.22963,-12.8501c-0.18541,-1.12431 -0.41355,-2.24124 -0.60698,-3.36418c-0.20335,-1.18069 -0.52111,-2.35015 -0.58336,-3.54662c-0.00077,-0.01489 0,-0.03108 0.00212,-0.04844c-1.43072,2.1408 -5.38308,4.56172 -6.99011,6.11405c-7.00211,5.87456 -13.27135,12.5535 -19.51907,19.25238c5.15135,1.6338 10.22944,3.64538 15.4762,4.77032c4.2643,0.9143 8.58072,1.66362 12.90399,2.4098zM260.83449,368.8883c-4.60014,-0.79689 -9.19676,-1.58494 -13.73922,-2.55471c-6.34641,-1.35493 -12.45553,-4.032 -18.73651,-5.74457c-3.58586,3.81075 -7.21724,7.57011 -11.0269,11.13167c7.18554,6.18682 14.95416,11.63785 21.79277,18.27553c7.74669,-0.8868 15.45092,-2.51118 23.03294,-4.46194c-0.54062,-5.38891 -1.18344,-10.76936 -1.31441,-16.21117c-0.00349,-0.14493 -0.00636,-0.28989 -0.00867,-0.43481zM213.16607,367.95914c3.03769,-2.81387 5.95832,-5.75815 8.8292,-8.75839c-7.24466,-1.45087 -14.04435,-3.35113 -21.07969,-6.07077c-0.50828,-0.14874 -3.82567,-1.11913 -6.48102,-1.89727c2.87937,2.05016 5.66147,4.24421 8.35342,6.53163c3.73303,3.1721 6.87441,6.82734 10.37806,10.19482zM266.45637,369.87979c0.15892,4.75313 0.72006,9.46582 1.20393,14.18104c1.66892,-0.46286 3.3309,-0.93687 4.98501,-1.41754c4.57675,-1.32998 9.21311,-3.38892 13.40501,-5.65832c0.97878,-0.5299 1.77398,-1.362 2.6418,-2.0679c-2.03539,-0.20232 -4.62472,-1.28005 -6.0188,-1.37298c-5.32483,-1.55653 -10.75877,-2.67144 -16.21689,-3.6643z" fill="#ad9600"/><path d="M184.89581,400.67628c-0.24842,-2.59905 2.35068,-2.84745 2.35068,-2.84745l1.54678,-0.14782c3.28458,-0.27066 4.98368,-1.68648 8.17052,-2.52398c5.04109,-1.32479 10.84444,-0.88566 16.06246,-1.72396c6.06354,-0.97415 11.90258,-2.68904 18.0597,-3.50794c0.31205,-0.01151 0.62403,-0.02456 0.93602,-0.03914c-5.5833,-4.91706 -11.59546,-9.28639 -17.21356,-14.15694c-3.16701,2.52512 -6.62049,4.70044 -9.72729,7.30939c0,0 -2.00104,1.67716 -3.67817,-0.32387c-1.67712,-2.00104 0.32387,-3.67817 0.32387,-3.67817c2.92501,-2.44719 6.16479,-4.5191 9.17009,-6.86376c-3.96496,-3.7962 -7.5883,-7.80657 -11.93932,-11.26907c-2.82629,-2.24914 -6.32696,-4.109 -9.01868,-6.47843c-1.23346,-1.08579 -3.51455,-1.93251 -3.39807,-3.57162c0.14159,-1.99281 2.12565,-3.72343 3.97079,-4.48939c1.5538,-0.645 3.34646,0.40197 4.988,0.77044c0.08723,0.01959 9.1625,2.68673 9.61428,2.81941c7.01789,2.70483 13.74038,4.49677 21.04742,5.88165c0.39579,0.07502 0.79042,0.15589 1.18409,0.24203c6.559,-7.02496 13.03784,-14.14427 20.39218,-20.30188c2.08498,-2.00104 8.03296,-8.48582 11.62623,-7.50152c4.619,1.26528 5.04809,12.64032 5.39595,16.26198c0.66568,6.93143 -0.00797,13.78469 -0.16268,20.6847c5.40952,0.96667 10.79837,2.04229 16.06458,3.59124c2.64295,0.17614 10.61563,1.17556 11.81052,3.86376c0.71212,1.6021 -0.76853,3.48714 -1.68242,4.98331c-2.09355,3.42739 -8.05871,5.33268 -11.44906,6.93154c-4.26673,2.01214 -8.67314,3.15681 -13.14708,4.19041c0.10448,1.38527 0.18507,2.77228 0.22791,4.16227c2.45792,8.71673 4.39801,19.10418 5.33465,28.17246c0.47882,4.63573 2.41352,13.00742 -6.16256,9.05581c-1.72573,-0.79519 -2.57257,-2.80692 -3.69993,-4.33645c-3.09348,-4.19712 -4.8685,-9.43451 -7.93493,-13.68967c-4.68183,-6.49684 -10.66854,-12.14491 -16.6721,-17.43101c-1.89394,0.20096 -3.81022,0.34311 -5.75866,0.41363c-6.03345,0.81266 -11.71571,2.48508 -17.66036,3.45845c-5.00275,0.81912 -10.80429,0.28932 -15.58973,1.62411c-3.34372,0.93264 -5.42316,2.29197 -8.98791,2.66839l-1.54684,0.14781c0,0 -2.59905,0.2484 -2.84746,-2.35068zM244.02084,393.7605c6.4261,5.93456 12.396,12.36478 16.91646,19.88815c1.79355,2.98497 3.36239,6.2897 5.25555,9.21972c-0.26899,-2.18247 -0.2437,-4.65574 -0.39926,-5.44505c-1.53704,-7.79926 -2.41346,-16.07948 -4.53127,-23.67394c-0.05263,-1.26533 -0.13162,-2.52783 -0.22803,-3.78857c-0.60367,0.14161 -1.20806,0.28646 -1.81297,0.43627c-5.12104,1.26827 -10.12091,2.47808 -15.20046,3.36345zM259.49847,364.33129c0.22089,-3.96493 0.61386,-7.92443 0.51037,-11.88854c-0.10298,-3.9441 -0.50648,-8.10535 -1.14771,-11.99391c-0.17302,-1.04942 -0.38601,-2.09191 -0.56653,-3.14004c-0.18982,-1.10205 -0.48639,-2.19357 -0.54449,-3.3103c-0.00073,-0.01389 -0.00001,-0.02901 0.00199,-0.04519c-1.33538,1.99815 -5.0244,4.25775 -6.52439,5.7067c-6.53558,5.48312 -12.38705,11.71707 -18.21853,17.9696c4.80814,1.52496 9.54788,3.40252 14.44506,4.45249c3.98018,0.85337 8.009,1.5528 12.04422,2.24923zM259.36433,369.60786c-4.29362,-0.7438 -8.58399,-1.47934 -12.82382,-2.38451c-5.92355,-1.26465 -11.62564,-3.76333 -17.4881,-5.3618c-3.34696,3.55687 -6.73636,7.06574 -10.29219,10.38994c6.70678,5.77457 13.9578,10.86245 20.34073,17.05787c7.23054,-0.82774 14.42143,-2.34392 21.49829,-4.16468c-0.50459,-5.02986 -1.1046,-10.05181 -1.22685,-15.13105c-0.00325,-0.13529 -0.00597,-0.27055 -0.00808,-0.40583zM214.872,368.74057c2.83531,-2.62639 5.56132,-5.37452 8.24091,-8.17484c-6.76197,-1.35419 -13.10861,-3.12786 -19.6752,-5.66628c-0.47441,-0.13884 -3.57078,-1.04457 -6.04919,-1.77085c2.68754,1.91355 5.28427,3.96139 7.79684,6.09644c3.48433,2.96075 6.41641,6.37246 9.68663,9.51553zM264.61162,370.53327c0.14833,4.43647 0.6721,8.83511 1.12371,13.23615c1.55775,-0.43202 3.10892,-0.87445 4.65284,-1.3231c4.27179,-1.24138 8.59923,-3.16317 12.51182,-5.28132c0.91362,-0.49461 1.65578,-1.27123 2.46576,-1.93008c-1.89974,-0.18882 -4.31656,-1.19478 -5.61777,-1.28148c-4.97004,-1.45284 -10.0419,-2.49348 -15.13641,-3.42014z" fill="#ffdf00"/></g></g><g stroke="none" stroke-width="0"><path d="M602.1052,400.73322c-12.51353,6.43804 -19.55381,-3.43979 -36.85564,-6.53977c-17.3019,-3.09999 -30.9761,-4.45572 -29.35852,-16.60429c1.54814,-11.62665 22.54641,-7.3045 39.8483,-4.20455c17.3019,3.09994 37.14583,16.8374 26.36586,27.34859z" fill="url(#color-35)"/><path d="M598.22584,351.46609c-7.98447,11.58807 -18.85753,6.21102 -35.56991,11.65714c-16.71241,5.4461 -29.40359,10.71461 -33.72025,-0.75573c-4.13121,-10.97764 16.41634,-17.0939 33.1287,-22.54002c16.71241,-5.4461 40.69294,-2.7196 36.16136,11.63863z" fill="url(#color-36)"/><path d="M546.33701,339.30813c-15.00426,9.15626 -26.13684,17.21164 -32.98424,7.04717c-6.55326,-9.72778 12.02792,-20.42122 27.03216,-29.5775c15.00426,-9.15626 38.96667,-12.03801 37.87124,2.97845c-5.09441,13.11804 -16.91492,10.39563 -31.91916,19.55188z" fill="url(#color-37)"/><path d="M536.48441,411.95599c-15.59416,14.90566 -25.44416,29.01664 -52.11388,1.13132c-25.52399,-26.68734 -11.23675,-37.94118 4.35734,-52.84685c15.59416,-14.90566 23.40748,-32.85108 52.11388,-1.13132c26.46426,29.24221 11.23675,37.94118 -4.35734,52.84685z" fill="url(#color-38)"/><path d="M489.13716,388.52029c-13.76959,6.0903 -19.12911,-17.44213 -15.56293,-34.65394c3.56618,-17.21185 7.37466,-38.30939 18.74152,-35.41646c11.8771,3.02284 8.04316,16.21839 4.47698,33.43024c-3.56618,17.21185 2.9794,27.42417 -7.65552,36.64019z" data-paper-data="{&quot;index&quot;:null}" fill="url(#color-39)"/></g><g data-paper-data="{&quot;index&quot;:null}" stroke="none" stroke-width="0"><path d="M-93.77764,372.0832c17.33842,-2.88836 38.38794,-6.9537 39.79396,4.69097c1.46909,12.16742 -12.22069,13.35601 -29.55914,16.24443c-17.33841,2.88838 -24.49883,12.67948 -36.93275,6.08908c-10.65079,-10.64208 9.35948,-24.13611 26.69795,-27.0245z" fill="url(#color-40)"/><path d="M-115.99464,349.89164c-4.35588,-14.41249 19.65617,-16.84588 36.30081,-11.19605c16.64463,5.64984 37.11593,12.01666 32.85092,22.94299c-4.45642,11.41678 -17.08227,5.99365 -33.72695,0.3438c-16.64463,-5.64984 -27.58254,-0.40599 -35.42486,-12.09076z" fill="url(#color-41)"/><path d="M-95.63918,318.4281c-0.91194,-15.02873 23.0135,-11.8545 37.90481,-2.51563c14.89131,9.33884 33.34048,20.25846 26.66886,29.90551c-6.97108,10.08007 -18.0044,1.88929 -32.89571,-7.44955c-14.89131,-9.33884 -26.74416,-6.76102 -31.67795,-19.94029z" fill="url(#color-42)"/><path d="M-58.70825,358.23505c29.09172,-31.36678 36.68524,-13.32724 52.09617,1.76779c15.41085,15.09503 29.55956,26.52255 3.71149,52.89614c-27.00833,27.55752 -36.68524,13.32724 -52.09617,-1.76779c-15.41085,-15.09503 -30.53096,-23.97935 -3.71149,-52.89614z" fill="url(#color-43)"/><path d="M-7.36678,388.27562c-10.52158,-9.34523 -3.85175,-19.47685 -7.20741,-36.73094c-3.35567,-17.25411 -7.02814,-30.49555 4.88497,-33.37305c11.40134,-2.75389 14.95183,18.38862 18.3075,35.64274c3.35567,17.25406 -2.29091,40.71934 -15.98504,34.46124z" data-paper-data="{&quot;index&quot;:null}" fill="url(#color-44)"/></g></g></g></svg>