<svg version="1.1" xmlns="http://www.w3.org/2000/svg" xmlns:xlink="http://www.w3.org/1999/xlink" width="371.49871" height="586.23317" viewBox="0,0,371.49871,586.23317"><defs><linearGradient x1="-17.83974" y1="340.22848" x2="-1.36467" y2="344.06085" gradientUnits="userSpaceOnUse" id="color-1"><stop offset="0" stop-color="#0f0f0f"/><stop offset="1" stop-color="#737373"/></linearGradient><linearGradient x1="0.90345" y1="344.82073" x2="17.27809" y2="348.62974" gradientUnits="userSpaceOnUse" id="color-2"><stop offset="0" stop-color="#0f0f0f"/><stop offset="1" stop-color="#737373"/></linearGradient><linearGradient x1="-30.49784" y1="392.34474" x2="-14.1232" y2="396.15375" gradientUnits="userSpaceOnUse" id="color-3"><stop offset="0" stop-color="#0f0f0f"/><stop offset="1" stop-color="#737373"/></linearGradient><linearGradient x1="-11.82291" y1="396.78029" x2="4.65219" y2="400.61267" gradientUnits="userSpaceOnUse" id="color-4"><stop offset="0" stop-color="#0f0f0f"/><stop offset="1" stop-color="#737373"/></linearGradient><linearGradient x1="7.30177" y1="373.28904" x2="14.61451" y2="374.99011" gradientUnits="userSpaceOnUse" id="color-5"><stop offset="0" stop-color="#595959"/><stop offset="1" stop-color="#afafaf"/></linearGradient><linearGradient x1="-27.18048" y1="365.42599" x2="-19.86773" y2="367.12705" gradientUnits="userSpaceOnUse" id="color-6"><stop offset="0" stop-color="#afafaf"/><stop offset="1" stop-color="#595959"/></linearGradient><linearGradient x1="-11.70003" y1="369.01256" x2="-1.41972" y2="371.40393" gradientUnits="userSpaceOnUse" id="color-7"><stop offset="0" stop-color="#afafaf"/><stop offset="1" stop-color="#595959"/></linearGradient><radialGradient cx="-18.91936" cy="413.68351" r="10.87003" gradientUnits="userSpaceOnUse" id="color-8"><stop offset="0" stop-color="#656565"/><stop offset="1" stop-color="#404040"/></radialGradient><linearGradient x1="-38.97446" y1="369.27324" x2="21.07215" y2="383.24107" gradientUnits="userSpaceOnUse" id="color-9"><stop offset="0" stop-color="#80cb83"/><stop offset="1" stop-color="#39853c"/></linearGradient><linearGradient x1="24.63887" y1="251.47566" x2="39.48502" y2="259.58163" gradientUnits="userSpaceOnUse" id="color-10"><stop offset="0" stop-color="#0f0f0f"/><stop offset="1" stop-color="#737373"/></linearGradient><linearGradient x1="41.46665" y1="260.92139" x2="56.2223" y2="268.97794" gradientUnits="userSpaceOnUse" id="color-11"><stop offset="0" stop-color="#0f0f0f"/><stop offset="1" stop-color="#737373"/></linearGradient><linearGradient x1="-1.51851" y1="298.29575" x2="13.23714" y2="306.35231" gradientUnits="userSpaceOnUse" id="color-12"><stop offset="0" stop-color="#0f0f0f"/><stop offset="1" stop-color="#737373"/></linearGradient><linearGradient x1="15.28549" y1="307.57222" x2="30.13166" y2="315.6782" gradientUnits="userSpaceOnUse" id="color-13"><stop offset="0" stop-color="#0f0f0f"/><stop offset="1" stop-color="#737373"/></linearGradient><linearGradient x1="40.00441" y1="290.06318" x2="46.59414" y2="293.66115" gradientUnits="userSpaceOnUse" id="color-14"><stop offset="0" stop-color="#595959"/><stop offset="1" stop-color="#afafaf"/></linearGradient><linearGradient x1="8.88912" y1="273.24975" x2="15.47884" y2="276.84772" gradientUnits="userSpaceOnUse" id="color-15"><stop offset="0" stop-color="#afafaf"/><stop offset="1" stop-color="#595959"/></linearGradient><linearGradient x1="22.84285" y1="280.85246" x2="32.10672" y2="285.91052" gradientUnits="userSpaceOnUse" id="color-16"><stop offset="0" stop-color="#afafaf"/><stop offset="1" stop-color="#595959"/></linearGradient><radialGradient cx="3.92004" cy="321.95645" r="10.87003" gradientUnits="userSpaceOnUse" id="color-17"><stop offset="0" stop-color="#656565"/><stop offset="1" stop-color="#404040"/></radialGradient><linearGradient x1="-3.50442" y1="273.79673" x2="50.60528" y2="303.34052" gradientUnits="userSpaceOnUse" id="color-18"><stop offset="0" stop-color="#80cb83"/><stop offset="1" stop-color="#39853c"/></linearGradient><linearGradient x1="-41.76852" y1="501.53267" x2="-10.34396" y2="502.82407" gradientUnits="userSpaceOnUse" id="color-19"><stop offset="0" stop-color="#446b45"/><stop offset="1" stop-color="#235124"/></linearGradient><linearGradient x1="-44.84714" y1="507.46096" x2="-13.48945" y2="509.8831" gradientUnits="userSpaceOnUse" id="color-20"><stop offset="0" stop-color="#5f9761"/><stop offset="1" stop-color="#2f6e31"/></linearGradient><linearGradient x1="-46.71239" y1="507.79597" x2="-16.07917" y2="514.92176" gradientUnits="userSpaceOnUse" id="color-21"><stop offset="0" stop-color="#80cb83"/><stop offset="1" stop-color="#39853c"/></linearGradient><linearGradient x1="-39.81276" y1="451.73504" x2="-12.89844" y2="457.99575" gradientUnits="userSpaceOnUse" id="color-22"><stop offset="0" stop-color="#80cb83"/><stop offset="1" stop-color="#39853c"/></linearGradient><linearGradient x1="-29.94578" y1="449.51579" x2="13.46445" y2="459.61372" gradientUnits="userSpaceOnUse" id="color-23"><stop offset="0" stop-color="#80cb83"/><stop offset="1" stop-color="#39853c"/></linearGradient><linearGradient x1="301.23328" y1="341.23449" x2="284.7582" y2="345.06686" gradientUnits="userSpaceOnUse" id="color-24"><stop offset="0" stop-color="#0f0f0f"/><stop offset="1" stop-color="#737373"/></linearGradient><linearGradient x1="282.49009" y1="345.82674" x2="266.11545" y2="349.63575" gradientUnits="userSpaceOnUse" id="color-25"><stop offset="0" stop-color="#0f0f0f"/><stop offset="1" stop-color="#737373"/></linearGradient><linearGradient x1="313.89138" y1="393.35075" x2="297.51674" y2="397.15976" gradientUnits="userSpaceOnUse" id="color-26"><stop offset="0" stop-color="#0f0f0f"/><stop offset="1" stop-color="#737373"/></linearGradient><linearGradient x1="295.21645" y1="397.7863" x2="278.74135" y2="401.61868" gradientUnits="userSpaceOnUse" id="color-27"><stop offset="0" stop-color="#0f0f0f"/><stop offset="1" stop-color="#737373"/></linearGradient><linearGradient x1="276.09177" y1="374.29505" x2="268.77903" y2="375.99612" gradientUnits="userSpaceOnUse" id="color-28"><stop offset="0" stop-color="#595959"/><stop offset="1" stop-color="#afafaf"/></linearGradient><linearGradient x1="310.57401" y1="366.432" x2="303.26127" y2="368.13306" gradientUnits="userSpaceOnUse" id="color-29"><stop offset="0" stop-color="#afafaf"/><stop offset="1" stop-color="#595959"/></linearGradient><linearGradient x1="295.09357" y1="370.01857" x2="284.81326" y2="372.40994" gradientUnits="userSpaceOnUse" id="color-30"><stop offset="0" stop-color="#afafaf"/><stop offset="1" stop-color="#595959"/></linearGradient><radialGradient cx="302.3129" cy="414.68952" r="10.87003" gradientUnits="userSpaceOnUse" id="color-31"><stop offset="0" stop-color="#656565"/><stop offset="1" stop-color="#404040"/></radialGradient><linearGradient x1="322.368" y1="370.27925" x2="262.32139" y2="384.24708" gradientUnits="userSpaceOnUse" id="color-32"><stop offset="0" stop-color="#80cb83"/><stop offset="1" stop-color="#39853c"/></linearGradient><linearGradient x1="258.75467" y1="252.48167" x2="243.90852" y2="260.58764" gradientUnits="userSpaceOnUse" id="color-33"><stop offset="0" stop-color="#0f0f0f"/><stop offset="1" stop-color="#737373"/></linearGradient><linearGradient x1="241.92689" y1="261.9274" x2="227.17124" y2="269.98395" gradientUnits="userSpaceOnUse" id="color-34"><stop offset="0" stop-color="#0f0f0f"/><stop offset="1" stop-color="#737373"/></linearGradient><linearGradient x1="284.91205" y1="299.30176" x2="270.1564" y2="307.35832" gradientUnits="userSpaceOnUse" id="color-35"><stop offset="0" stop-color="#0f0f0f"/><stop offset="1" stop-color="#737373"/></linearGradient><linearGradient x1="268.10805" y1="308.57823" x2="253.26188" y2="316.68421" gradientUnits="userSpaceOnUse" id="color-36"><stop offset="0" stop-color="#0f0f0f"/><stop offset="1" stop-color="#737373"/></linearGradient><linearGradient x1="243.38913" y1="291.06919" x2="236.7994" y2="294.66716" gradientUnits="userSpaceOnUse" id="color-37"><stop offset="0" stop-color="#595959"/><stop offset="1" stop-color="#afafaf"/></linearGradient><linearGradient x1="274.50442" y1="274.25576" x2="267.9147" y2="277.85373" gradientUnits="userSpaceOnUse" id="color-38"><stop offset="0" stop-color="#afafaf"/><stop offset="1" stop-color="#595959"/></linearGradient><linearGradient x1="260.55069" y1="281.85847" x2="251.28682" y2="286.91652" gradientUnits="userSpaceOnUse" id="color-39"><stop offset="0" stop-color="#afafaf"/><stop offset="1" stop-color="#595959"/></linearGradient><radialGradient cx="279.4735" cy="322.96245" r="10.87003" gradientUnits="userSpaceOnUse" id="color-40"><stop offset="0" stop-color="#656565"/><stop offset="1" stop-color="#404040"/></radialGradient><linearGradient x1="286.89796" y1="274.80274" x2="232.78826" y2="304.34653" gradientUnits="userSpaceOnUse" id="color-41"><stop offset="0" stop-color="#80cb83"/><stop offset="1" stop-color="#39853c"/></linearGradient><linearGradient x1="325.16206" y1="502.53868" x2="293.7375" y2="503.83008" gradientUnits="userSpaceOnUse" id="color-42"><stop offset="0" stop-color="#446b45"/><stop offset="1" stop-color="#235124"/></linearGradient><linearGradient x1="328.24068" y1="508.46697" x2="296.88299" y2="510.88911" gradientUnits="userSpaceOnUse" id="color-43"><stop offset="0" stop-color="#5f9761"/><stop offset="1" stop-color="#2f6e31"/></linearGradient><linearGradient x1="330.10593" y1="508.80198" x2="299.47271" y2="515.92777" gradientUnits="userSpaceOnUse" id="color-44"><stop offset="0" stop-color="#80cb83"/><stop offset="1" stop-color="#39853c"/></linearGradient><linearGradient x1="323.2063" y1="452.74105" x2="296.29198" y2="459.00176" gradientUnits="userSpaceOnUse" id="color-45"><stop offset="0" stop-color="#80cb83"/><stop offset="1" stop-color="#39853c"/></linearGradient><linearGradient x1="313.33932" y1="450.5218" x2="269.92909" y2="460.61973" gradientUnits="userSpaceOnUse" id="color-46"><stop offset="0" stop-color="#80cb83"/><stop offset="1" stop-color="#39853c"/></linearGradient><linearGradient x1="134.0662" y1="181.99743" x2="145.49299" y2="181.99743" gradientUnits="userSpaceOnUse" id="color-47"><stop offset="0" stop-color="#afafaf"/><stop offset="1" stop-color="#595959"/></linearGradient><linearGradient x1="142.67885" y1="259.82282" x2="142.67885" y2="273.11633" gradientUnits="userSpaceOnUse" id="color-48"><stop offset="0" stop-color="#afafaf"/><stop offset="1" stop-color="#595959"/></linearGradient><linearGradient x1="83.62991" y1="255.14492" x2="83.62991" y2="277.85465" gradientUnits="userSpaceOnUse" id="color-49"><stop offset="0" stop-color="#7c7c7c"/><stop offset="1" stop-color="#111111"/></linearGradient><linearGradient x1="105.00532" y1="256.0113" x2="105.00532" y2="278.72103" gradientUnits="userSpaceOnUse" id="color-50"><stop offset="0" stop-color="#7c7c7c"/><stop offset="1" stop-color="#111111"/></linearGradient><linearGradient x1="179.63884" y1="255.38773" x2="179.63884" y2="278.09746" gradientUnits="userSpaceOnUse" id="color-51"><stop offset="0" stop-color="#7c7c7c"/><stop offset="1" stop-color="#111111"/></linearGradient><linearGradient x1="201.01425" y1="256.25411" x2="201.01425" y2="278.96384" gradientUnits="userSpaceOnUse" id="color-52"><stop offset="0" stop-color="#7c7c7c"/><stop offset="1" stop-color="#111111"/></linearGradient><linearGradient x1="142.67885" y1="294.76219" x2="142.67885" y2="308.0557" gradientUnits="userSpaceOnUse" id="color-53"><stop offset="0" stop-color="#afafaf"/><stop offset="1" stop-color="#595959"/></linearGradient><linearGradient x1="88.90964" y1="290.08429" x2="88.90964" y2="312.79402" gradientUnits="userSpaceOnUse" id="color-54"><stop offset="0" stop-color="#7c7c7c"/><stop offset="1" stop-color="#111111"/></linearGradient><linearGradient x1="108.37381" y1="290.95067" x2="108.37381" y2="313.6604" gradientUnits="userSpaceOnUse" id="color-55"><stop offset="0" stop-color="#7c7c7c"/><stop offset="1" stop-color="#111111"/></linearGradient><linearGradient x1="176.33415" y1="290.32711" x2="176.33415" y2="313.03684" gradientUnits="userSpaceOnUse" id="color-56"><stop offset="0" stop-color="#7c7c7c"/><stop offset="1" stop-color="#111111"/></linearGradient><linearGradient x1="195.79836" y1="291.19348" x2="195.79836" y2="313.90322" gradientUnits="userSpaceOnUse" id="color-57"><stop offset="0" stop-color="#7c7c7c"/><stop offset="1" stop-color="#111111"/></linearGradient><linearGradient x1="142.67885" y1="329.70159" x2="142.67885" y2="342.9951" gradientUnits="userSpaceOnUse" id="color-58"><stop offset="0" stop-color="#afafaf"/><stop offset="1" stop-color="#595959"/></linearGradient><linearGradient x1="95.5093" y1="325.02369" x2="95.5093" y2="347.73339" gradientUnits="userSpaceOnUse" id="color-59"><stop offset="0" stop-color="#7c7c7c"/><stop offset="1" stop-color="#111111"/></linearGradient><linearGradient x1="112.58444" y1="325.89007" x2="112.58444" y2="348.5998" gradientUnits="userSpaceOnUse" id="color-60"><stop offset="0" stop-color="#7c7c7c"/><stop offset="1" stop-color="#111111"/></linearGradient><linearGradient x1="172.2033" y1="325.2665" x2="172.2033" y2="347.97624" gradientUnits="userSpaceOnUse" id="color-61"><stop offset="0" stop-color="#7c7c7c"/><stop offset="1" stop-color="#111111"/></linearGradient><linearGradient x1="189.27841" y1="326.13288" x2="189.27841" y2="348.84262" gradientUnits="userSpaceOnUse" id="color-62"><stop offset="0" stop-color="#7c7c7c"/><stop offset="1" stop-color="#111111"/></linearGradient><linearGradient x1="125.80703" y1="314.90091" x2="156.13834" y2="314.90091" gradientUnits="userSpaceOnUse" id="color-63"><stop offset="0" stop-color="#afafaf"/><stop offset="1" stop-color="#595959"/></linearGradient><linearGradient x1="141.64423" y1="241.21355" x2="141.64423" y2="248.20144" gradientUnits="userSpaceOnUse" id="color-64"><stop offset="0" stop-color="#afafaf"/><stop offset="1" stop-color="#595959"/></linearGradient><radialGradient cx="237.14518" cy="241.98998" r="10.87003" gradientUnits="userSpaceOnUse" id="color-65"><stop offset="0" stop-color="#656565"/><stop offset="1" stop-color="#404040"/></radialGradient><linearGradient x1="140.76541" y1="236.64308" x2="140.76541" y2="253.72456" gradientUnits="userSpaceOnUse" id="color-66"><stop offset="0" stop-color="#595959"/><stop offset="1" stop-color="#393939"/></linearGradient><radialGradient cx="50.80183" cy="241.98998" r="10.87003" gradientUnits="userSpaceOnUse" id="color-67"><stop offset="0" stop-color="#656565"/><stop offset="1" stop-color="#404040"/></radialGradient><linearGradient x1="125.25457" y1="405.53487" x2="156.74403" y2="405.53487" gradientUnits="userSpaceOnUse" id="color-68"><stop offset="0" stop-color="#595959"/><stop offset="1" stop-color="#393939"/></linearGradient><linearGradient x1="122.8683" y1="394.79669" x2="159.13027" y2="394.79669" gradientUnits="userSpaceOnUse" id="color-69"><stop offset="0" stop-color="#393939"/><stop offset="1" stop-color="#151515"/></linearGradient><linearGradient x1="122.8683" y1="407.32457" x2="159.13027" y2="407.32457" gradientUnits="userSpaceOnUse" id="color-70"><stop offset="0" stop-color="#393939"/><stop offset="1" stop-color="#151515"/></linearGradient><radialGradient cx="55.67272" cy="227.72074" r="26.33579" gradientUnits="userSpaceOnUse" id="color-71"><stop offset="0" stop-color="#80cb83"/><stop offset="1" stop-color="#39853c"/></radialGradient><radialGradient cx="228.16849" cy="227.72074" r="26.33579" gradientUnits="userSpaceOnUse" id="color-72"><stop offset="0" stop-color="#80cb83"/><stop offset="1" stop-color="#39853c"/></radialGradient><linearGradient x1="141.4692" y1="202.72447" x2="141.4692" y2="423.22891" gradientUnits="userSpaceOnUse" id="color-73"><stop offset="0" stop-color="#80cb83"/><stop offset="1" stop-color="#39853c"/></linearGradient><radialGradient cx="155.13174" cy="273.49252" r="93.14694" gradientUnits="userSpaceOnUse" id="color-74"><stop offset="0" stop-color="#bef3c0"/><stop offset="1" stop-color="#9ecba0"/></radialGradient><radialGradient cx="136.41524" cy="245.13478" r="24.74405" gradientUnits="userSpaceOnUse" id="color-75"><stop offset="0" stop-color="#650000"/><stop offset="1" stop-color="#900000"/></radialGradient><radialGradient cx="147.41609" cy="245.13478" r="24.74405" gradientUnits="userSpaceOnUse" id="color-76"><stop offset="0" stop-color="#650000"/><stop offset="1" stop-color="#900000"/></radialGradient><radialGradient cx="142.45669" cy="244.61008" r="14.59724" gradientUnits="userSpaceOnUse" id="color-77"><stop offset="0" stop-color="#c20000"/><stop offset="1" stop-color="#900000"/></radialGradient><linearGradient x1="130.62769" y1="280.44351" x2="153.10492" y2="280.44351" gradientUnits="userSpaceOnUse" id="color-78"><stop offset="0" stop-color="#383838"/><stop offset="1" stop-color="#0a0a0a"/></linearGradient><linearGradient x1="130.62769" y1="280.44351" x2="153.10492" y2="280.44351" gradientUnits="userSpaceOnUse" id="color-79"><stop offset="0" stop-color="#0a0a0a"/><stop offset="1" stop-color="#383838"/></linearGradient><linearGradient x1="130.62769" y1="315.27119" x2="153.10492" y2="315.27119" gradientUnits="userSpaceOnUse" id="color-80"><stop offset="0" stop-color="#383838"/><stop offset="1" stop-color="#0a0a0a"/></linearGradient><linearGradient x1="130.62769" y1="315.27119" x2="153.10492" y2="315.27119" gradientUnits="userSpaceOnUse" id="color-81"><stop offset="0" stop-color="#0a0a0a"/><stop offset="1" stop-color="#383838"/></linearGradient><linearGradient x1="133.5727" y1="147.4637" x2="150.40008" y2="235.51393" gradientUnits="userSpaceOnUse" id="color-82"><stop offset="0" stop-color="#80cb83"/><stop offset="1" stop-color="#39853c"/></linearGradient><linearGradient x1="143.14409" y1="197.54654" x2="153.10714" y2="249.67877" gradientUnits="userSpaceOnUse" id="color-83"><stop offset="0" stop-color="#80cb83"/><stop offset="1" stop-color="#39853c"/></linearGradient><linearGradient x1="133.27702" y1="147.75808" x2="148.91996" y2="229.61059" gradientUnits="userSpaceOnUse" id="color-84"><stop offset="0" stop-color="#330000"/><stop offset="1" stop-color="#9c0000"/></linearGradient><linearGradient x1="136.3555" y1="165.3967" x2="136.78775" y2="167.65844" gradientUnits="userSpaceOnUse" id="color-85"><stop offset="0" stop-color="#898989"/><stop offset="1" stop-color="#2e2e2e"/></linearGradient><linearGradient x1="137.75488" y1="172.96843" x2="140.74711" y2="188.62543" gradientUnits="userSpaceOnUse" id="color-86"><stop offset="0" stop-color="#8a8a8a"/><stop offset="1" stop-color="#0f0f0f"/></linearGradient><linearGradient x1="137.48091" y1="171.53486" x2="140.47314" y2="187.19187" gradientUnits="userSpaceOnUse" id="color-87"><stop offset="0" stop-color="#898989"/><stop offset="1" stop-color="#2e2e2e"/></linearGradient><linearGradient x1="115.10423" y1="58.89661" x2="116.19864" y2="64.6232" gradientUnits="userSpaceOnUse" id="color-88"><stop offset="0" stop-color="#afafaf"/><stop offset="1" stop-color="#7a7a7a"/></linearGradient><linearGradient x1="63.10834" y1="63.83" x2="75.18946" y2="127.04516" gradientUnits="userSpaceOnUse" id="color-89"><stop offset="0" stop-color="#afafaf"/><stop offset="1" stop-color="#7a7a7a"/></linearGradient><linearGradient x1="165.0878" y1="44.34057" x2="177.16893" y2="107.55574" gradientUnits="userSpaceOnUse" id="color-90"><stop offset="0" stop-color="#afafaf"/><stop offset="1" stop-color="#7a7a7a"/></linearGradient><linearGradient x1="122.06051" y1="94.14103" x2="131.47139" y2="143.38394" gradientUnits="userSpaceOnUse" id="color-91"><stop offset="0" stop-color="#424242"/><stop offset="1" stop-color="#000000"/></linearGradient><linearGradient x1="118.75473" y1="80.06548" x2="120.17776" y2="87.51159" gradientUnits="userSpaceOnUse" id="color-92"><stop offset="0" stop-color="#b8b8b8"/><stop offset="1" stop-color="#313131"/></linearGradient><radialGradient cx="89.35558" cy="89.65822" r="25.26527" gradientUnits="userSpaceOnUse" id="color-93"><stop offset="0" stop-color="#ffffff"/><stop offset="1" stop-color="#cccccc"/></radialGradient><radialGradient cx="149.64047" cy="78.1371" r="25.26527" gradientUnits="userSpaceOnUse" id="color-94"><stop offset="0" stop-color="#ffffff"/><stop offset="1" stop-color="#cccccc"/></radialGradient><linearGradient x1="114.28036" y1="56.01861" x2="126.27045" y2="120.56855" gradientUnits="userSpaceOnUse" id="color-95"><stop offset="0" stop-color="#9d9d9d"/><stop offset="1" stop-color="#6e6e6e"/></linearGradient><linearGradient x1="139.49658" y1="115.74443" x2="147.10849" y2="155.57415" gradientUnits="userSpaceOnUse" id="color-96"><stop offset="0" stop-color="#afafaf"/><stop offset="1" stop-color="#595959"/></linearGradient><linearGradient x1="113.52066" y1="120.70872" x2="121.13257" y2="160.53845" gradientUnits="userSpaceOnUse" id="color-97"><stop offset="0" stop-color="#afafaf"/><stop offset="1" stop-color="#595959"/></linearGradient><linearGradient x1="180.73297" y1="68.28215" x2="188.42963" y2="110.9888" gradientUnits="userSpaceOnUse" id="color-98"><stop offset="0" stop-color="#afafaf"/><stop offset="1" stop-color="#595959"/></linearGradient><linearGradient x1="40.04394" y1="50.16297" x2="42.45705" y2="46.64355" gradientUnits="userSpaceOnUse" id="color-99"><stop offset="0" stop-color="#d3d3d3"/><stop offset="1" stop-color="#868686"/></linearGradient><linearGradient x1="-18.59911" y1="6.70916" x2="35.82321" y2="44.02468" gradientUnits="userSpaceOnUse" id="color-100"><stop offset="0" stop-color="#80cb83"/><stop offset="1" stop-color="#39853c"/></linearGradient><radialGradient cx="11.99689" cy="28.31661" r="29.52014" gradientUnits="userSpaceOnUse" id="color-101"><stop offset="0" stop-color="#bef3c0"/><stop offset="1" stop-color="#7da17f"/></radialGradient><radialGradient cx="63.00561" cy="63.29246" r="4.04981" gradientUnits="userSpaceOnUse" id="color-102"><stop offset="0" stop-color="#a9a9a9"/><stop offset="1" stop-color="#5d5d5d"/></radialGradient><linearGradient x1="181.48706" y1="23.1316" x2="177.94619" y2="20.75006" gradientUnits="userSpaceOnUse" id="color-103"><stop offset="0" stop-color="#d3d3d3"/><stop offset="1" stop-color="#868686"/></linearGradient><linearGradient x1="219.97357" y1="-38.88475" x2="183.14682" y2="15.86949" gradientUnits="userSpaceOnUse" id="color-104"><stop offset="0" stop-color="#80cb83"/><stop offset="1" stop-color="#39853c"/></linearGradient><radialGradient cx="199.50161" cy="-7.51765" r="29.52015" gradientUnits="userSpaceOnUse" id="color-105"><stop offset="0" stop-color="#bef3c0"/><stop offset="1" stop-color="#7da17f"/></radialGradient><radialGradient cx="164.98508" cy="43.80304" r="4.0498" gradientUnits="userSpaceOnUse" id="color-106"><stop offset="0" stop-color="#a9a9a9"/><stop offset="1" stop-color="#5d5d5d"/></radialGradient><linearGradient x1="106.91218" y1="18.35521" x2="131.73295" y2="148.23127" gradientUnits="userSpaceOnUse" id="color-107"><stop offset="0" stop-color="#80cb83"/><stop offset="1" stop-color="#39853c"/></linearGradient><linearGradient x1="30.07279" y1="123.99436" x2="29.15054" y2="155.47045" gradientUnits="userSpaceOnUse" id="color-108"><stop offset="0" stop-color="#bef3c0"/><stop offset="1" stop-color="#9ecba0"/></linearGradient><linearGradient x1="30.43442" y1="134.75184" x2="33.55647" y2="166.08631" gradientUnits="userSpaceOnUse" id="color-109"><stop offset="0" stop-color="#bef3c0"/><stop offset="1" stop-color="#9ecba0"/></linearGradient><linearGradient x1="27.9394" y1="145.35314" x2="35.96063" y2="175.80402" gradientUnits="userSpaceOnUse" id="color-110"><stop offset="0" stop-color="#bef3c0"/><stop offset="1" stop-color="#9ecba0"/></linearGradient><linearGradient x1="31.32999" y1="155.56876" x2="43.19017" y2="184.7395" gradientUnits="userSpaceOnUse" id="color-111"><stop offset="0" stop-color="#bef3c0"/><stop offset="1" stop-color="#9ecba0"/></linearGradient><linearGradient x1="32.07727" y1="164.14756" x2="50.0096" y2="190.03246" gradientUnits="userSpaceOnUse" id="color-112"><stop offset="0" stop-color="#bef3c0"/><stop offset="1" stop-color="#9ecba0"/></linearGradient><linearGradient x1="214.4598" y1="88.75593" x2="226.92402" y2="117.67373" gradientUnits="userSpaceOnUse" id="color-113"><stop offset="0" stop-color="#bef3c0"/><stop offset="1" stop-color="#9ecba0"/></linearGradient><linearGradient x1="218.09052" y1="98.88866" x2="226.74314" y2="129.16617" gradientUnits="userSpaceOnUse" id="color-114"><stop offset="0" stop-color="#bef3c0"/><stop offset="1" stop-color="#9ecba0"/></linearGradient><linearGradient x1="224.31901" y1="107.8228" x2="228.09189" y2="139.08558" gradientUnits="userSpaceOnUse" id="color-115"><stop offset="0" stop-color="#bef3c0"/><stop offset="1" stop-color="#9ecba0"/></linearGradient><linearGradient x1="224.93433" y1="118.56879" x2="224.66681" y2="150.05727" gradientUnits="userSpaceOnUse" id="color-116"><stop offset="0" stop-color="#bef3c0"/><stop offset="1" stop-color="#9ecba0"/></linearGradient><linearGradient x1="227.40324" y1="126.81857" x2="220.27983" y2="157.49192" gradientUnits="userSpaceOnUse" id="color-117"><stop offset="0" stop-color="#bef3c0"/><stop offset="1" stop-color="#9ecba0"/></linearGradient><radialGradient cx="109.43478" cy="129.11937" r="40.7079" gradientUnits="userSpaceOnUse" id="color-118"><stop offset="0" stop-color="#bef3c0"/><stop offset="1" stop-color="#9ecba0"/></radialGradient><radialGradient cx="173.37139" cy="113.84156" r="40.7079" gradientUnits="userSpaceOnUse" id="color-119"><stop offset="0" stop-color="#bef3c0"/><stop offset="1" stop-color="#9ecba0"/></radialGradient><radialGradient cx="126.50253" cy="107.71497" r="11.77004" gradientUnits="userSpaceOnUse" id="color-120"><stop offset="0" stop-color="#858585"/><stop offset="1" stop-color="#000000"/></radialGradient><radialGradient cx="91.24705" cy="85.79208" r="3.83333" gradientUnits="userSpaceOnUse" id="color-121"><stop offset="0" stop-color="#ffffff"/><stop offset="1" stop-color="#ffffff" stop-opacity="0"/></radialGradient><radialGradient cx="147.23966" cy="75.74525" r="3.83333" gradientUnits="userSpaceOnUse" id="color-122"><stop offset="0" stop-color="#ffffff"/><stop offset="1" stop-color="#ffffff" stop-opacity="0"/></radialGradient></defs><g transform="translate(44.05259,45.94993)"><g data-paper-data="{&quot;isPaintingLayer&quot;:true}" fill-rule="nonzero" stroke-linecap="butt" stroke-linejoin="miter" stroke-miterlimit="10" stroke-dasharray="" stroke-dashoffset="0" style="mix-blend-mode: normal"><g data-paper-data="{&quot;index&quot;:null}" stroke="none"><path d="M25.52344,345.19238c4.63129,9.03997 -13.60504,65.06438 -21.35825,72.749c-3.56482,3.53326 -39.59448,-5.47963 -41.05226,-10.11442c-3.19345,-10.15326 3.36212,-66.20116 12.13062,-73.86065c8.7685,-7.65949 45.64862,2.1861 50.27989,11.22607z" fill="#484848" stroke-width="0"/><g><g><path d="M-0.75726,330.03822c0.75664,-0.11586 1.32407,0.02591 1.74805,0.28328c0.0697,-0.75736 0.45337,-2.17192 2.33156,-2.34747c2.581,-0.24124 2.82223,2.33975 2.82223,2.33975l0.24104,2.74499c1.3508,4.33808 1.23974,10.53393 -2.52265,13.93207c-0.64397,0.58163 -1.38204,1.07083 -2.17489,1.51038c-0.04319,0.69113 -0.08677,1.38517 -0.13128,2.08332c-1.23781,5.3815 -1.78587,11.78943 -5.00991,16.39017c-1.0326,1.47352 -2.18734,2.95129 -3.36886,4.45212c3.20284,4.23769 7.69705,7.77947 7.80593,13.15886c0.17019,8.4092 -9.06249,11.26664 -13.49463,16.51009c0.41997,0.73323 0.83375,1.48317 1.21528,2.27117c0,0 1.11865,2.33845 -1.21984,3.45709c-0.6498,0.31083 -1.20542,0.35474 -1.669,0.25605c-0.03128,1.73983 0.07168,3.47705 -0.00786,4.72985c0,0 -0.16424,2.58704 -2.75128,2.42278c-2.58704,-0.16424 -2.42278,-2.75128 -2.42278,-2.75128c0.20543,-3.2357 -0.12449,-7.19248 0.97763,-10.43873c-1.38757,-2.55277 -2.61653,-5.10615 -2.9201,-8.37049c-0.76604,-8.23751 3.3466,-15.08191 8.04251,-21.39624c-0.77375,-1.72039 -1.33548,-3.59201 -1.73493,-5.8188c0.25956,-4.28004 0.73282,-11.99071 3.76834,-15.39337c2.21778,-2.48599 5.33112,-3.88444 7.97898,-5.39499c0.20028,-3.22672 0.41142,-6.43554 0.69793,-9.7353l-0.37146,-1.94052c0,0 -0.3924,-2.56238 2.16998,-2.95475zM-16.14322,392.22763c0.14718,1.56383 0.56641,2.93931 1.12827,4.23227c4.09651,-3.37053 10.85815,-6.65685 10.81443,-11.85729c-0.02294,-2.7291 -2.82252,-4.56864 -4.39914,-6.39168c-0.64269,-0.74315 -1.23141,-1.46029 -1.77031,-2.16849c-3.50315,4.81685 -6.35252,10.02997 -5.77325,16.18522zM-7.61803,363.88721c2.45435,-3.30701 2.94159,-8.59215 3.77301,-12.78909c-1.25527,0.63173 -2.44322,1.35864 -3.43514,2.32073c-2.06188,1.99989 -2.36047,9.02063 -2.54465,11.74568c0.07492,0.42446 0.17378,0.8375 0.29375,1.24037c0.6519,-0.84431 1.29337,-1.68277 1.91304,-2.51772z" fill="#000000" stroke-width="0.5"/><path d="M-17.82199,345.81088l-0.71522,-2.58399l17.15481,-4.74846l0.71525,2.584z" fill="url(#color-1)" stroke-width="0"/><path d="M1.63223,341.68775l1.81485,-1.97354l13.10223,12.0485l-1.81486,1.97354z" data-paper-data="{&quot;index&quot;:null}" fill="url(#color-2)" stroke-width="0"/><path d="M-14.85199,399.28672l-1.81485,1.97354l-13.10223,-12.0485l1.81486,-1.97354z" data-paper-data="{&quot;index&quot;:null}" fill="url(#color-3)" stroke-width="0"/><path d="M4.63442,395.03026l0.71524,2.584l-17.1548,4.74844l-0.71525,-2.58397z" data-paper-data="{&quot;index&quot;:null}" fill="url(#color-4)" stroke-width="0"/><path d="M0.51286,402.47405l14.06946,-58.3147l6.82111,1.64574l-14.06946,58.3147z" fill="url(#color-5)" stroke-width="0"/><path d="M-33.9694,394.61102l14.06946,-58.3147l6.82111,1.64574l-14.06946,58.3147z" fill="url(#color-6)" stroke-width="0"/><path d="M-21.24393,410.04106l19.77893,-81.97907l9.58916,2.31356l-19.77893,81.97907z" fill="url(#color-7)" stroke-width="0"/></g><path d="M-14.89148,406.64882c5.84725,1.36016 9.56349,6.86435 8.30048,12.29392c-1.26301,5.42958 -7.02698,8.72846 -12.87423,7.3683c-5.84725,-1.36016 -9.5635,-6.86431 -8.30049,-12.29389c1.26301,-5.42957 7.027,-8.7285 12.87425,-7.36833z" fill="url(#color-8)" stroke-width="0"/></g><path d="M25.52344,345.19238c4.63129,9.03997 -13.60504,65.06438 -21.35825,72.749c-3.56482,3.53326 -39.59448,-5.47963 -41.05226,-10.11442c-3.19345,-10.15326 3.36212,-66.20116 12.13062,-73.86065c8.7685,-7.65949 45.64862,2.1861 50.27989,11.22607z" fill="url(#color-9)" stroke-width="0"/></g><g data-paper-data="{&quot;index&quot;:null}" stroke="none"><path d="M65.08715,267.87512c2.04019,9.95026 -30.53852,59.04125 -40.06704,64.36789c-4.38108,2.44909 -36.67916,-15.88673 -36.84199,-20.74264c-0.35666,-10.63765 20.97457,-62.88056 31.47453,-67.91099c10.49996,-5.03043 43.39434,14.33549 45.43451,24.28574z" fill="#484848" stroke-width="0"/><g><g><path d="M43.8269,246.2343c0.76002,0.09107 1.26873,0.37969 1.60826,0.74123c0.27005,-0.711 1.01866,-1.97107 2.87523,-1.63704c2.55129,0.45902 2.09223,3.0103 2.09223,3.0103l-0.50315,2.70923c0.13925,4.54138 -1.62761,10.481 -6.16284,12.74698c-0.77625,0.38785 -1.61839,0.66144 -2.50002,0.87252c-0.22677,0.6543 -0.45468,1.31128 -0.68459,1.97199c-2.63428,4.85318 -4.879,10.88005 -9.21773,14.44889c-1.38961,1.14302 -2.89804,2.25743 -4.43844,3.38686c1.95049,4.94083 5.33156,9.55715 3.99532,14.76907c-2.08886,8.14742 -11.74957,8.42696 -17.42441,12.29136c0.20819,0.81893 0.40593,1.65232 0.5624,2.51373c0,0 0.45128,2.55266 -2.1014,3.00393c-0.70932,0.12538 -1.25639,0.01883 -1.67659,-0.20044c-0.49624,1.66785 -0.86245,3.36915 -1.2747,4.55485c0,0 -0.8513,2.44848 -3.29977,1.59715c-2.44848,-0.85131 -1.59715,-3.29978 -1.59715,-3.29978c1.06477,-3.06239 1.80692,-6.96291 3.73844,-9.79524c-0.65296,-2.83119 -1.15295,-5.62047 -0.57089,-8.84681c1.4688,-8.14163 7.26472,-13.63405 13.4806,-18.45954c-0.28458,-1.8648 -0.32437,-3.81848 -0.11265,-6.07088c1.39669,-4.05406 3.91834,-11.35609 7.75449,-13.82115c2.80272,-1.80097 6.17689,-2.31424 9.13264,-3.06022c1.05739,-3.05512 2.12047,-6.09007 3.28051,-9.19246l0.16199,-1.96909c0,0 0.30841,-2.57385 2.88225,-2.26541zM12.34274,302.02859c-0.27715,1.54609 -0.24174,2.98361 -0.0468,4.37983c4.84973,-2.14986 12.24463,-3.50462 13.5957,-8.52668c0.70904,-2.63549 -1.4954,-5.15779 -2.526,-7.33658c-0.42011,-0.88817 -0.79519,-1.7368 -1.12467,-2.56348c-4.66553,3.70228 -8.80735,7.96148 -9.89825,14.04692zM28.14874,277.00799c3.25059,-2.52861 5.13591,-7.49003 7.0613,-11.31081c-1.37863,0.27234 -2.7179,0.65444 -3.93131,1.31563c-2.52227,1.37441 -4.69082,8.05852 -5.59831,10.63462c-0.04153,0.42902 -0.05694,0.85344 -0.04929,1.27373c0.85426,-0.6388 1.69692,-1.27477 2.51762,-1.91318z" fill="#000000" stroke-width="0.5"/><path d="M23.16042,256.85878l0.00317,-2.68114l17.79987,0.0209l-0.00315,2.68116z" fill="url(#color-10)" stroke-width="0"/><path d="M43.00812,258.09817l2.27723,-1.41519l9.39549,15.11818l-2.27723,1.4152z" data-paper-data="{&quot;index&quot;:null}" fill="url(#color-11)" stroke-width="0"/><path d="M11.69564,309.17557l-2.27722,1.4152l-9.39549,-15.11818l2.27723,-1.41519z" data-paper-data="{&quot;index&quot;:null}" fill="url(#color-12)" stroke-width="0"/><path d="M31.61008,310.29509l-0.00315,2.68116l-17.79985,-0.02092l0.00314,-2.68114z" data-paper-data="{&quot;index&quot;:null}" fill="url(#color-13)" stroke-width="0"/><path d="M25.64496,316.36264l29.17772,-52.41387l6.13088,3.41296l-29.17771,52.41388z" fill="url(#color-14)" stroke-width="0"/><path d="M-5.47031,299.54916l29.17772,-52.41387l6.13089,3.41296l-29.17772,52.41387z" fill="url(#color-15)" stroke-width="0"/><path d="M2.65626,317.82436l41.01819,-73.68366l8.61883,4.79794l-41.01819,73.68365z" fill="url(#color-16)" stroke-width="0"/></g><path d="M9.68528,316.25797c5.26913,2.87693 7.37495,9.1755 4.70352,14.06824c-2.67143,4.89274 -9.10849,6.52688 -14.37762,3.64995c-5.26913,-2.87693 -7.37496,-9.17547 -4.70353,-14.06822c2.67143,-4.89274 9.1085,-6.5269 14.37763,-3.64997z" fill="url(#color-17)" stroke-width="0"/></g><path d="M65.08715,267.87512c2.04019,9.95026 -30.53852,59.04125 -40.06704,64.36789c-4.38108,2.44909 -36.67916,-15.88673 -36.84199,-20.74264c-0.35666,-10.63765 20.97457,-62.88056 31.47453,-67.91099c10.49996,-5.03043 43.39434,14.33549 45.43451,24.28574z" fill="url(#color-18)" stroke-width="0"/></g><g data-paper-data="{&quot;index&quot;:null}" stroke="none" stroke-width="0"><path d="M-25.43323,482.62144c-0.72976,4.2686 -0.286,9.969 3.76472,18.00191c4.45825,8.84103 7.71927,13.93198 9.71396,17.07744c1.98476,3.12977 0.43729,9.09614 -3.75285,10.82643c-3.25036,1.34219 -8.92871,-0.7994 -10.44878,-2.84029c-2.31081,-3.10258 -5.17481,-8.22377 -9.18151,-16.1694c-4.51208,-8.94778 -6.08436,-17.76899 -5.72597,-25.10682c0.6214,-12.72262 17.12292,-10.51941 15.63043,-1.78926z" data-paper-data="{&quot;index&quot;:null}" fill="url(#color-19)"/><path d="M-43.52623,490.37548c1.07915,-12.69202 17.49066,-9.89604 15.68474,-1.22529c-0.883,4.23956 -0.64476,9.95223 3.11407,18.1258c4.137,8.99585 7.21257,14.20092 9.09273,17.41617c1.87077,3.1992 0.10945,9.10596 -4.14028,10.68427c-3.29659,1.2243 -8.89412,-1.1204 -10.33972,-3.21469c-2.19759,-3.1838 -4.87532,-8.40478 -8.59332,-16.48953c-4.18694,-9.10445 -5.44055,-17.97656 -4.8182,-25.29672z" data-paper-data="{&quot;index&quot;:null}" fill="url(#color-20)"/><path d="M-42.82859,491.1054c2.9818,-12.38385 18.78355,-7.14365 15.69004,1.15533c-1.51257,4.05779 -2.13904,9.74101 0.3435,18.38815c2.7323,9.51706 4.9873,15.12658 6.36079,18.5887c1.36661,3.44487 -1.26575,9.01821 -5.70496,9.93724c-3.44358,0.71287 -8.62328,-2.44952 -9.73632,-4.73798c-1.69207,-3.47893 -3.55139,-9.04417 -6.00695,-17.59736c-2.76532,-9.63199 -2.66591,-18.59166 -0.94616,-25.7341z" data-paper-data="{&quot;index&quot;:null}" fill="url(#color-21)"/><path d="M-8.47687,437.53106c-4.72613,20.31725 -9.48108,56.96359 -26.15765,52.96394c-16.76698,-4.02132 -4.82259,-38.75385 -0.09646,-59.07108c4.72613,-20.31725 30.98025,-14.21011 26.25412,6.10714z" fill="url(#color-22)"/><path d="M10.41145,468.59967c2.11822,12.56042 -14.47223,13.943 -14.88438,5.09578c-0.20151,-4.32582 -1.85603,-9.79885 -7.53339,-16.77765c-6.24854,-7.68088 -10.52434,-11.95515 -13.14652,-14.60031c-2.60909,-2.63198 -2.37553,-8.79131 1.34672,-11.379c2.88741,-2.00732 8.8927,-1.13173 10.81464,0.5362c2.92177,2.53559 6.81622,6.92445 12.43193,13.82741c6.32397,7.77362 9.74927,16.05329 10.97097,23.29757z" data-paper-data="{&quot;index&quot;:null}" fill="url(#color-23)"/></g><path d="M224.30858,317.18492c-4.3585,46.35594 -6.61392,53.61562 -10.92398,75.57751c-6.40329,32.62804 -71.3406,30.23621 -71.3406,30.23621c0,0 -65.41136,4.5039 -71.70086,-32.97103c-3.13967,-18.70723 -8.74724,-38.92225 -10.59585,-73.81599c-1.84862,-34.89376 -15.03047,-111.98774 79.37598,-113.45997c89.36967,-1.39368 90.13817,61.75572 85.18528,114.4333z" data-paper-data="{&quot;index&quot;:null}" fill="#484848" stroke="#000000" stroke-width="0"/><g data-paper-data="{&quot;index&quot;:null}" stroke="none"><path d="M308.14999,334.97232c8.76849,7.65949 15.32407,63.70738 12.13062,73.86065c-1.45778,4.63479 -37.48744,13.64768 -41.05226,10.11442c-7.75321,-7.68462 -25.98954,-63.70903 -21.35825,-72.749c4.63126,-9.03996 41.51139,-18.88556 50.27989,-11.22607z" fill="#484848" stroke-width="0"/><g><g><path d="M284.15078,331.04426c2.56238,0.39237 2.16998,2.95475 2.16998,2.95475l-0.37146,1.94052c0.28651,3.29976 0.49766,6.50857 0.69793,9.7353c2.64785,1.51056 5.76119,2.909 7.97897,5.39499c3.03553,3.40267 3.50879,11.11333 3.76835,15.39337c-0.39945,2.22679 -0.96118,4.09841 -1.73493,5.8188c4.69592,6.31433 8.80856,13.15873 8.04251,21.39624c-0.30356,3.26434 -1.53252,5.81772 -2.9201,8.37049c1.10213,3.24625 0.77221,7.20302 0.97764,10.43872c0,0 0.16427,2.58704 -2.42278,2.75128c-2.58704,0.16427 -2.75128,-2.42278 -2.75128,-2.42278c-0.07954,-1.2528 0.02342,-2.99002 -0.00786,-4.72985c-0.46359,0.09869 -1.0192,0.05478 -1.669,-0.25605c-2.33848,-1.11864 -1.21983,-3.45709 -1.21983,-3.45709c0.38153,-0.788 0.79531,-1.53794 1.21528,-2.27117c-4.43214,-5.24345 -13.66481,-8.10089 -13.49463,-16.51009c0.10888,-5.37939 4.60308,-8.92118 7.80593,-13.15886c-1.18151,-1.50083 -2.33626,-2.97861 -3.36886,-4.45212c-3.22404,-4.60074 -3.7721,-11.00867 -5.00992,-16.39017c-0.04451,-0.69815 -0.08808,-1.39218 -0.13127,-2.08331c-0.79285,-0.43955 -1.53091,-0.92875 -2.17489,-1.51038c-3.76239,-3.39814 -3.87345,-9.594 -2.52265,-13.93207l0.24104,-2.74499c0,0 0.24122,-2.581 2.82223,-2.33975c1.87818,0.17555 2.26186,1.59012 2.33156,2.34748c0.42398,-0.25737 0.99141,-0.39915 1.74805,-0.28329zM299.53677,393.23367c0.57927,-6.15525 -2.27011,-11.36837 -5.77325,-16.18521c-0.5389,0.70819 -1.12762,1.42533 -1.77031,2.16848c-1.57662,1.82304 -4.3762,3.66258 -4.39914,6.39168c-0.04372,5.20044 6.71792,8.48677 10.81443,11.8573c0.56186,-1.29296 0.9811,-2.66845 1.12827,-4.23227zM291.01157,364.89319c0.61966,0.83495 1.26113,1.67341 1.91304,2.51772c0.11997,-0.40287 0.21883,-0.81591 0.29375,-1.24038c-0.18418,-2.72505 -0.48278,-9.74579 -2.54465,-11.74568c-0.99192,-0.96209 -2.17987,-1.689 -3.43514,-2.32073c0.83141,4.19693 1.31867,9.48208 3.77301,12.78909z" fill="#000000" stroke-width="0.5"/><path d="M284.0607,342.06843l0.71524,-2.58399l17.15481,4.74846l-0.71522,2.58399z" fill="url(#color-24)" stroke-width="0"/><path d="M268.65908,354.74226l-1.81486,-1.97354l13.10223,-12.0485l1.81485,1.97354z" data-paper-data="{&quot;index&quot;:null}" fill="url(#color-25)" stroke-width="0"/><path d="M311.34774,388.24423l1.81486,1.97353l-13.10222,12.0485l-1.81485,-1.97353z" data-paper-data="{&quot;index&quot;:null}" fill="url(#color-26)" stroke-width="0"/><path d="M295.91393,400.78473l-0.71526,2.58397l-17.1548,-4.74843l0.71524,-2.584z" data-paper-data="{&quot;index&quot;:null}" fill="url(#color-27)" stroke-width="0"/><path d="M276.05957,405.12581l-14.06946,-58.3147l6.82111,-1.64574l14.06946,58.31469z" fill="url(#color-28)" stroke-width="0"/><path d="M310.54182,397.26277l-14.06946,-58.31469l6.82112,-1.64575l14.06946,58.3147z" fill="url(#color-29)" stroke-width="0"/><path d="M295.04832,413.36063l-19.77893,-81.97907l9.58916,-2.31356l19.77893,81.97907z" fill="url(#color-30)" stroke-width="0"/></g><path d="M311.15926,415.02316c1.26301,5.42958 -2.45324,10.93373 -8.30049,12.29389c-5.84725,1.36016 -11.61122,-1.93873 -12.87423,-7.3683c-1.26301,-5.42957 2.45323,-10.93375 8.30048,-12.29392c5.84725,-1.36016 11.61124,1.93875 12.87425,7.36833z" fill="url(#color-31)" stroke-width="0"/></g><path d="M308.14999,334.97232c8.76849,7.65949 15.32407,63.70738 12.13062,73.86065c-1.45778,4.63479 -37.48744,13.64768 -41.05226,10.11442c-7.75321,-7.68462 -25.98954,-63.70903 -21.35825,-72.749c4.63126,-9.03996 41.51139,-18.88556 50.27989,-11.22607z" fill="url(#color-32)" stroke-width="0"/></g><g data-paper-data="{&quot;index&quot;:null}" stroke="none"><path d="M263.7409,244.59539c10.49996,5.03043 31.83118,57.27333 31.47452,67.91099c-0.16283,4.85591 -32.46091,23.19172 -36.84199,20.74264c-9.52852,-5.32664 -42.10722,-54.41763 -40.06704,-64.36788c2.04017,-9.95024 34.93455,-29.31616 45.43451,-24.28574z" fill="#484848" stroke-width="0"/><g><g><path d="M239.56663,247.24034c2.57383,-0.30844 2.88224,2.26541 2.88224,2.26541l0.16199,1.96909c1.16004,3.10238 2.22312,6.13734 3.28052,9.19246c2.95575,0.74598 6.32992,1.25924 9.13263,3.06022c3.83615,2.46506 6.3578,9.76709 7.75449,13.82115c0.21172,2.2524 0.17193,4.20608 -0.11265,6.07088c6.21588,4.82549 12.0118,10.31791 13.48059,18.45954c0.58206,3.22634 0.08207,6.01562 -0.57089,8.84681c1.93151,2.83233 2.67367,6.73285 3.73844,9.79525c0,0 0.85133,2.44847 -1.59715,3.29978c-2.44847,0.85133 -3.29978,-1.59715 -3.29978,-1.59715c-0.41225,-1.1857 -0.77846,-2.887 -1.2747,-4.55485c-0.4202,0.21927 -0.96727,0.32583 -1.67658,0.20044c-2.55268,-0.45127 -2.1014,-3.00393 -2.1014,-3.00393c0.15648,-0.86141 0.35422,-1.69479 0.56241,-2.51373c-5.67485,-3.8644 -15.33555,-4.14395 -17.42442,-12.29136c-1.33624,-5.21193 2.04484,-9.82824 3.99533,-14.76908c-1.5404,-1.12944 -3.04883,-2.24384 -4.43844,-3.38686c-4.33873,-3.56885 -6.58346,-9.59571 -9.21773,-14.44889c-0.22992,-0.66071 -0.45783,-1.3177 -0.6846,-1.972c-0.88163,-0.21107 -1.72377,-0.48466 -2.50002,-0.87251c-4.53523,-2.26599 -6.30209,-8.20561 -6.16285,-12.74699l-0.50316,-2.70922c0,0 -0.45905,-2.55128 2.09224,-3.0103c1.85656,-0.33403 2.60518,0.92604 2.87523,1.63704c0.33953,-0.36155 0.84824,-0.65016 1.60826,-0.74123zM271.05081,303.03461c-1.0909,-6.08544 -5.23273,-10.34465 -9.89826,-14.04692c-0.32948,0.82668 -0.70456,1.67532 -1.12466,2.56349c-1.0306,2.17879 -3.23503,4.70109 -2.526,7.33657c1.35108,5.02206 8.74597,6.37681 13.59571,8.52668c0.19493,-1.39622 0.23035,-2.83374 -0.0468,-4.37983zM255.24479,278.01397c0.82069,0.63842 1.66335,1.27438 2.51762,1.91319c0.00765,-0.42029 -0.00776,-0.84471 -0.04929,-1.27373c-0.90749,-2.5761 -3.07603,-9.26021 -5.59831,-10.63462c-1.21341,-0.66118 -2.55268,-1.04328 -3.93131,-1.31563c1.92539,3.82079 3.81072,8.78221 7.0613,11.31082z" fill="#000000" stroke-width="0.5"/><path d="M242.43324,257.8857l-0.00315,-2.68116l17.79986,-0.0209l0.00317,2.68115z" fill="url(#color-33)" stroke-width="0"/><path d="M230.98993,274.22236l-2.27722,-1.41519l9.39549,-15.11818l2.27723,1.41519z" data-paper-data="{&quot;index&quot;:null}" fill="url(#color-34)" stroke-width="0"/><path d="M281.09338,295.0634l2.27722,1.41519l-9.39549,15.11818l-2.27722,-1.41519z" data-paper-data="{&quot;index&quot;:null}" fill="url(#color-35)" stroke-width="0"/><path d="M269.58332,311.2802l0.00314,2.68114l-17.79984,0.02092l-0.00316,-2.68116z" data-paper-data="{&quot;index&quot;:null}" fill="url(#color-36)" stroke-width="0"/><path d="M251.61769,320.78162l-29.17772,-52.41387l6.13089,-3.41297l29.17772,52.41387z" fill="url(#color-37)" stroke-width="0"/><path d="M282.73296,303.96814l-29.17772,-52.41388l6.13089,-3.41296l29.17772,52.41387z" fill="url(#color-38)" stroke-width="0"/><path d="M272.11844,323.62831l-41.01819,-73.68366l8.61883,-4.79794l41.0182,73.68366z" fill="url(#color-39)" stroke-width="0"/></g><path d="M288.08588,320.91395c2.67143,4.89274 0.56559,11.19128 -4.70353,14.06822c-5.26912,2.87693 -11.70619,1.2428 -14.37761,-3.64995c-2.67143,-4.89274 -0.5656,-11.19131 4.70352,-14.06824c5.26912,-2.87693 11.70619,-1.24277 14.37762,3.64997z" fill="url(#color-40)" stroke-width="0"/></g><path d="M263.7409,244.59539c10.49996,5.03043 31.83118,57.27333 31.47452,67.91099c-0.16283,4.85591 -32.46091,23.19172 -36.84199,20.74264c-9.52852,-5.32664 -42.10722,-54.41763 -40.06704,-64.36788c2.04017,-9.95024 34.93455,-29.31616 45.43451,-24.28574z" fill="url(#color-41)" stroke-width="0"/></g><g data-paper-data="{&quot;index&quot;:null}" stroke="none" stroke-width="0"><path d="M324.4572,485.41671c0.35839,7.33783 -1.2139,16.15904 -5.72597,25.10682c-4.00671,7.94563 -6.8707,13.06683 -9.18151,16.16941c-1.52008,2.04089 -7.19842,4.18249 -10.44878,2.84029c-4.19014,-1.73029 -5.7376,-7.69666 -3.75285,-10.82643c1.99469,-3.14546 5.25571,-8.23641 9.71396,-17.07744c4.05073,-8.03292 4.49449,-13.73332 3.76472,-18.00191c-1.49249,-8.73015 15.00903,-10.93336 15.63043,1.78926z" data-paper-data="{&quot;index&quot;:null}" fill="url(#color-42)"/><path d="M326.91974,491.3815c0.62236,7.32016 -0.63126,16.19228 -4.8182,25.29672c-3.71801,8.08475 -6.39574,13.30573 -8.59332,16.48953c-1.4456,2.0943 -7.04313,4.439 -10.33972,3.2147c-4.24973,-1.57831 -6.01105,-7.48507 -4.14027,-10.68427c1.88016,-3.21524 4.95573,-8.42031 9.09273,-17.41616c3.75883,-8.17357 3.99707,-13.88624 3.11407,-18.1258c-1.80592,-8.67075 14.60559,-11.46674 15.68474,1.22528z" data-paper-data="{&quot;index&quot;:null}" fill="url(#color-43)"/><path d="M326.22218,492.1114c1.71975,7.14243 1.81916,16.10211 -0.94615,25.7341c-2.45556,8.55319 -4.31488,14.11843 -6.00695,17.59736c-1.11304,2.28845 -6.29274,5.45085 -9.73632,4.73798c-4.43921,-0.91904 -7.07158,-6.49238 -5.70497,-9.93724c1.37349,-3.46212 3.62849,-9.07164 6.36079,-18.5887c2.48254,-8.64714 1.85608,-14.33036 0.3435,-18.38815c-3.09351,-8.29898 12.70825,-13.53919 15.69004,-1.15534z" data-paper-data="{&quot;index&quot;:null}" fill="url(#color-44)"/><path d="M318.12453,432.42993c4.72612,20.31723 16.67051,55.04976 -0.09647,59.07108c-16.67658,3.99965 -21.43152,-32.64669 -26.15765,-52.96394c-4.72613,-20.31725 21.52799,-26.42439 26.25412,-6.10714z" fill="url(#color-45)"/><path d="M272.98212,469.60567c1.2217,-7.24428 4.647,-15.52394 10.97096,-23.29756c5.6157,-6.90296 9.51016,-11.29182 12.43193,-13.8274c1.92194,-1.66793 7.92723,-2.54352 10.81464,-0.5362c3.72225,2.58769 3.95581,8.74701 1.34672,11.379c-2.62218,2.64516 -6.89798,6.91944 -13.14652,14.60032c-5.67735,6.97879 -7.33188,12.45182 -7.53339,16.77765c-0.41215,8.84722 -17.0026,7.46464 -14.88437,-5.09578z" data-paper-data="{&quot;index&quot;:null}" fill="url(#color-46)"/></g><path d="M211.36354,133.01298l-159.67436,29.5135c0,0 -23.43054,-25.1819 -19.84936,-57.10214c4.24092,-37.80073 -11.66955,-70.59751 76.02562,-87.25107c85.79691,-16.24812 79.1531,18.87589 98.88854,51.37756c19.42614,31.99226 4.60956,63.46215 4.60956,63.46215z" fill="#484848" stroke="none" stroke-width="0"/><g stroke="none"><path d="M149.96771,386.90778c-0.04651,0.70371 -0.44487,3.71714 -3.85667,3.71714c-0.01728,0 -0.03451,-0.00007 -0.05163,-0.00023c0.02524,1.16992 -0.33689,3.14277 -2.91352,3.78693c-3.7475,0.93689 -4.68437,-2.81062 -4.68437,-2.81062l-0.89574,-4.05851c0,-4.49617 1.08272,-11.06989 -1.70322,-15.04247c-4.32074,-6.16109 -14.51022,-11.62336 -13.0903,-20.58853c0.80476,-5.08123 3.57305,-7.87578 6.88097,-10.23027c-0.60152,-1.89309 -1.0657,-3.90248 -1.43913,-6.10733c-0.00154,-0.67115 -0.0762,-10.78994 0.12701,-11.49501c1.88653,-6.54552 8.85963,-11.02439 14.00391,-14.62688c3.04743,-2.1341 6.30806,-4.08587 9.48117,-6.15028c-6.77694,-8.45821 -19.27102,-14.83452 -26.0417,-20.41055c-5.11123,-4.20939 -5.89866,-10.59992 -8.27354,-16.54377c-1.13999,-3.57852 -3.53237,-8.95054 -6.01207,-11.75294c-2.90646,-3.28471 -15.50201,-2.72478 -19.49625,-3.80508c-14.38713,-3.89118 -28.04472,-3.64053 -42.68471,-0.71254c0,0 -3.7878,0.75755 -4.54536,-3.03023c-0.75755,-3.7878 3.03023,-4.54538 3.03023,-4.54538c10.65052,-2.13011 21.37379,-3.38954 32.29238,-2.40306c6.36742,0.57528 12.06334,2.92294 18.26579,3.94144c5.11257,0.83954 14.39439,1.14705 18.36902,4.8697c3.31731,3.10702 6.56806,10.5301 8.03524,14.78083c1.36375,3.40539 2.10833,8.11229 3.68062,11.21205c1.9918,3.92676 10.1878,6.38974 13.62718,8.79646c5.62316,3.93485 11.48368,9.25782 15.69874,15.39211c4.02959,-3.20166 7.52898,-6.97401 9.72013,-12.0803c5.71035,-13.30757 -10.1642,-19.20335 -11.93383,-30.00173c-0.74074,-4.52004 1.81467,-8.24697 3.65559,-11.97006c6.35079,-8.2712 23.81703,-19.70204 34.28736,-12.90013c4.4227,2.87314 6.25947,8.86101 10.62193,11.52519c8.38237,5.11914 23.3718,1.1377 32.51515,1.10374c0,0 3.86282,0 3.86282,3.86282c0,3.86282 -3.86282,3.86282 -3.86282,3.86282c-10.79329,-0.04718 -26.14671,3.92903 -36.16054,-2.01789c-4.81091,-2.85707 -6.95901,-8.47191 -11.22943,-11.887c-2.48619,-1.98822 -4.73625,-0.4442 -7.65922,0.46593c-5.69838,1.77429 -12.31452,5.19444 -15.80345,10.04612c-4.09104,8.05409 -1.42345,7.62124 3.68592,14.35421c5.35866,7.06149 8.73882,17.74565 5.2048,26.39697c-2.83472,6.93943 -7.66969,11.79984 -13.16468,15.95227c2.82682,6.61712 3.35939,13.84111 -0.27277,21.09907c-3.90915,7.8114 -13.7245,10.01446 -19.6204,15.95311c-0.75328,0.55903 -1.56949,1.0647 -2.40751,1.55419c0.78191,1.31243 1.71311,2.60931 2.824,3.95648c3.0453,3.69296 8.15398,6.48138 9.96881,11.12248c2.61417,6.68516 1.10052,20.70416 -2.03589,27.41869zM144.58943,373.49522c0.00744,-3.23802 1.60053,-7.88211 0.31148,-10.96686c-1.52193,-3.6421 -6.31991,-6.16517 -8.76093,-9.16807c-1.28841,-1.58499 -2.38303,-3.12309 -3.31762,-4.67159c-1.11085,1.12254 -1.97344,2.47983 -2.39281,4.24831c-1.15293,4.86192 9.57058,11.72082 11.88268,15.31016c1.11345,1.72848 1.82559,3.5927 2.27747,5.53006c-0.00038,-0.09304 -0.00049,-0.18704 -0.00026,-0.28201zM146.75544,315.79507c-3.30771,2.31435 -9.88493,5.92791 -10.96905,10.3461c-0.69873,2.8477 0.1345,5.8634 0.12701,8.79557c0.12672,0.7779 0.27102,1.52221 0.43586,2.23938c0.06922,-0.05187 0.13832,-0.10404 0.20723,-0.15652c4.87671,-4.844 14.75778,-7.53039 17.83905,-13.70231c2.47092,-4.94933 2.59517,-9.38194 1.21818,-13.39258c-2.9614,1.95652 -5.97388,3.85219 -8.85825,5.87036z" fill="#000000" stroke-width="0.5"/><g stroke-width="0"><g><path d="M134.0662,245.9067v-127.81855h11.42679v127.81855z" fill="url(#color-47)"/><g><path d="M73.20951,273.11633v-13.29352h138.93868v13.29352z" fill="url(#color-48)"/><path d="M79.52491,277.85465v-22.70973h8.20999v22.70973z" fill="url(#color-49)"/><path d="M100.90033,278.72103v-22.70973h8.20999v22.70973z" fill="url(#color-50)"/><path d="M175.53385,278.09746v-22.70973h8.20998v22.70973z" fill="url(#color-51)"/><path d="M196.90926,278.96384v-22.70973h8.20999v22.70973z" fill="url(#color-52)"/></g><g><path d="M79.42096,308.0557v-13.29351h126.51579v13.29351z" fill="url(#color-53)"/><path d="M85.17169,312.79402v-22.70973h7.47593v22.70973z" fill="url(#color-54)"/><path d="M104.63586,313.6604v-22.70973h7.47589v22.70973z" fill="url(#color-55)"/><path d="M172.5962,313.03684v-22.70973h7.4759v22.70973z" fill="url(#color-56)"/><path d="M192.06039,313.90322v-22.70973h7.47592v22.70973z" fill="url(#color-57)"/></g><g><path d="M87.18525,342.9951v-13.29351h110.98718v13.29351z" fill="url(#color-58)"/><path d="M92.23015,347.73339v-22.70973h6.55833v22.70973z" fill="url(#color-59)"/><path d="M109.30526,348.5998v-22.70973h6.55832v22.70973z" fill="url(#color-60)"/><path d="M168.92412,347.97624v-22.70973h6.55832v22.70973z" fill="url(#color-61)"/><path d="M185.99928,348.84262v-22.70974h6.55832v22.70974z" fill="url(#color-62)"/></g><path d="M129.68919,384.42002l-0.11189,-31.81464l-3.77029,-107.2236h30.33131l-3.83751,107.30274l-0.04465,31.7355z" fill="url(#color-63)"/><path d="M50.0254,248.20144v-6.98789h183.23764v6.98789z" fill="url(#color-64)"/><path d="M244.90952,244.31928c0,6.00337 -4.51906,10.87003 -10.0936,10.87003c-5.57454,0 -10.09358,-4.86667 -10.09358,-10.87003c0,-6.00337 4.51904,-10.87003 10.09358,-10.87003c5.57454,0 10.0936,4.86666 10.0936,10.87003z" fill="url(#color-65)"/><path d="M114.19103,253.72456v-17.0815h53.14879v17.0815z" fill="url(#color-66)"/><path d="M58.56615,244.31928c0,6.00337 -4.51907,10.87003 -10.09361,10.87003c-5.57454,0 -10.0936,-4.86667 -10.0936,-10.87003c0,-6.00337 4.51906,-10.87003 10.0936,-10.87003c5.57454,0 10.09361,4.86666 10.09361,10.87003z" fill="url(#color-67)"/></g><path d="M125.25457,430.84537v-50.62099h31.48946v50.62099z" fill="url(#color-68)"/><path d="M122.8683,399.2274v-8.86141h36.26197v8.86141z" fill="url(#color-69)"/><path d="M122.8683,411.75528v-8.86141h36.26197v8.86141z" fill="url(#color-70)"/></g></g><g stroke-width="0"><path d="M58.00738,217.18031c14.00787,5.18097 21.22618,20.56713 16.12254,34.36592c-2.49981,6.75878 -13.38351,-2.38397 -25.8526,-6.8392c-12.98791,-4.64061 -27.47824,-4.88274 -24.87441,-11.92275c5.10364,-13.7988 20.5966,-20.78494 34.60447,-15.60397z" fill="url(#color-71)" stroke="none"/><path d="M260.4383,232.78428c2.60382,7.04002 -11.88649,7.28214 -24.8744,11.92275c-12.46909,4.45523 -23.35279,13.59798 -25.8526,6.8392c-5.10363,-13.7988 2.11467,-29.18495 16.12254,-34.36592c14.00788,-5.18097 29.50083,1.80517 34.60446,15.60397z" data-paper-data="{&quot;index&quot;:null}" fill="url(#color-72)" stroke="none"/><g><path d="M224.30858,317.18492c-4.3585,46.35594 -6.61392,53.61562 -10.92398,75.57751c-6.40329,32.62804 -71.3406,30.23621 -71.3406,30.23621c0,0 -65.41136,4.5039 -71.70086,-32.97103c-3.13967,-18.70723 -8.74724,-38.92225 -10.59585,-73.81599c-1.84862,-34.89376 -15.03047,-111.98774 79.37598,-113.45997c89.36967,-1.39368 90.13817,61.75572 85.18528,114.4333z" data-paper-data="{&quot;index&quot;:null}" fill="url(#color-73)" stroke="#000000"/><path d="M211.56241,319.94969c-3.68338,39.17563 -5.58948,45.31084 -9.23192,63.87093c-5.41145,27.57413 -60.29024,25.55277 -60.29024,25.55277c0,0 -55.27947,3.80624 -60.59474,-27.864c-2.65337,-15.80955 -7.39233,-32.89339 -8.95461,-62.38227c-1.56225,-29.48888 -12.70232,-94.64136 67.08103,-95.88555c75.52675,-1.1778 76.17618,52.19003 71.99048,96.70812z" data-paper-data="{&quot;index&quot;:null}" fill="url(#color-74)" stroke="#000000"/><g stroke="#000000"><path d="M141.88471,244.69761c0,7.86993 -8.39845,11.17856 -17.73764,14.24969c-22.22145,7.3073 -22.16976,5.49082 -22.16976,5.49082c0,0 4.43207,-5.60235 4.43207,-19.74051c0,-23.50983 -41.22179,-37.30695 17.73771,-14.24969c9.16774,3.58522 17.73763,6.37984 17.73763,14.24969z" fill="url(#color-75)"/><path d="M159.68425,230.44792c58.95951,-23.05725 17.73769,-9.26013 17.73769,14.24969c0,14.13816 4.43207,19.74051 4.43207,19.74051c0,0 0.05171,1.81648 -22.16976,-5.49082c-9.33922,-3.07112 -17.73766,-6.37976 -17.73766,-14.24969c0,-7.86986 8.56991,-10.66445 17.73766,-14.24969z" data-paper-data="{&quot;index&quot;:null}" fill="url(#color-76)"/><path d="M156.51689,243.71408c0,8.06184 -6.37983,14.59724 -14.24969,14.59724c-7.86993,0 -14.24972,-6.53541 -14.24972,-14.59724c0,-8.06184 6.37986,-14.59727 14.24972,-14.59727c7.86993,0 14.24969,6.53546 14.24969,14.59727z" fill="url(#color-77)"/></g><g stroke="none"><path d="M141.86632,269.09992c6.20691,0 11.23862,5.07871 11.23862,11.34359c0,6.26488 -5.03171,11.34359 -11.23862,11.34359c-6.20691,0 -11.23863,-5.07871 -11.23863,-11.34359c0,-6.26488 5.03172,-11.34359 11.23863,-11.34359zM138.81539,285.15236c1.16533,0 2.11005,-0.94472 2.11005,-2.11005c0,-1.16534 -0.94472,-2.11005 -2.11005,-2.11005c-1.16533,0 -2.11005,0.94471 -2.11005,2.11005c0,1.16534 0.94472,2.11005 2.11005,2.11005zM144.59615,279.29242c1.16533,0 2.11003,-0.94472 2.11003,-2.11005c0,-1.16534 -0.94469,-2.11003 -2.11003,-2.11003c-1.16533,0 -2.11005,0.94469 -2.11005,2.11003c0,1.16534 0.94472,2.11005 2.11005,2.11005zM138.89457,279.29242c1.16533,0 2.11006,-0.94472 2.11006,-2.11005c0,-1.16534 -0.94472,-2.11003 -2.11006,-2.11003c-1.16533,0 -2.11002,0.94469 -2.11002,2.11003c0,1.16534 0.94469,2.11005 2.11002,2.11005zM144.59615,285.23156c1.16533,0 2.11003,-0.94472 2.11003,-2.11005c0,-1.16534 -0.94469,-2.11003 -2.11003,-2.11003c-1.16533,0 -2.11005,0.9447 -2.11005,2.11003c0,1.16534 0.94472,2.11005 2.11005,2.11005z" fill="url(#color-78)"/><path d="M141.86632,269.09992c6.20691,0 11.23862,5.07871 11.23862,11.34359c0,6.26488 -5.03171,11.34359 -11.23862,11.34359c-6.20691,0 -11.23863,-5.07871 -11.23863,-11.34359c0,-6.26488 5.03172,-11.34359 11.23863,-11.34359zM141.90374,289.4846c5.04981,0 9.1435,-4.09369 9.1435,-9.14348c0,-5.04982 -4.09369,-9.14348 -9.1435,-9.14348c-5.04981,0 -9.14348,4.09369 -9.14348,9.14348c0,5.04982 4.09367,9.14348 9.14348,9.14348z" fill="url(#color-79)"/></g><g stroke="none"><path d="M141.86632,303.92764c6.20691,0 11.23862,5.07871 11.23862,11.34359c0,6.26488 -5.03171,11.34358 -11.23862,11.34358c-6.20691,0 -11.23863,-5.0787 -11.23863,-11.34358c0,-6.26488 5.03172,-11.34359 11.23863,-11.34359zM138.81539,319.98005c1.16533,0 2.11005,-0.94472 2.11005,-2.11005c0,-1.16534 -0.94472,-2.11005 -2.11005,-2.11005c-1.16533,0 -2.11005,0.94471 -2.11005,2.11005c0,1.16534 0.94472,2.11005 2.11005,2.11005zM144.59615,314.12012c1.16533,0 2.11003,-0.94472 2.11003,-2.11005c0,-1.16534 -0.94469,-2.11003 -2.11003,-2.11003c-1.16533,0 -2.11005,0.94469 -2.11005,2.11003c0,1.16534 0.94472,2.11005 2.11005,2.11005zM138.89457,314.12012c1.16533,0 2.11006,-0.94472 2.11006,-2.11005c0,-1.16534 -0.94472,-2.11003 -2.11006,-2.11003c-1.16533,0 -2.11002,0.94469 -2.11002,2.11003c0,1.16534 0.94469,2.11005 2.11002,2.11005zM144.59615,320.05924c1.16533,0 2.11003,-0.94469 2.11003,-2.11003c0,-1.16534 -0.94469,-2.11005 -2.11003,-2.11005c-1.16533,0 -2.11005,0.94471 -2.11005,2.11005c0,1.16534 0.94472,2.11003 2.11005,2.11003z" fill="url(#color-80)"/><path d="M141.86632,303.92764c6.20691,0 11.23862,5.07871 11.23862,11.34359c0,6.26488 -5.03171,11.34358 -11.23862,11.34358c-6.20691,0 -11.23863,-5.0787 -11.23863,-11.34358c0,-6.26488 5.03172,-11.34359 11.23863,-11.34359zM141.90374,324.31231c5.04981,0 9.1435,-4.09369 9.1435,-9.14351c0,-5.04982 -4.09369,-9.14348 -9.1435,-9.14348c-5.04981,0 -9.14348,4.09366 -9.14348,9.14348c0,5.04982 4.09367,9.14351 9.14348,9.14351z" fill="url(#color-81)"/></g></g></g><g><path d="M133.4896,147.47957c44.64374,-8.53192 91.42127,3.81488 89.24837,28.5767c-4.00698,45.66251 -27.77723,50.94162 -72.42097,59.47353c-44.64374,8.53192 -73.36521,6.55969 -89.24834,-28.57671c-10.22754,-22.62521 27.77722,-50.94161 72.42094,-59.47352z" fill="url(#color-82)" stroke="#000000" stroke-width="0"/><g><g fill="url(#color-83)" stroke="#000000" stroke-width="0"><path d="M143.07751,197.55926c35.76949,-6.83595 72.42777,-1.23859 69.74795,13.68853c-4.94178,27.52662 -24.0154,31.60776 -59.7849,38.44371c-35.76949,6.83595 -58.49403,6.76125 -69.74794,-13.68853c-7.24668,-13.16812 24.01537,-31.60775 59.78489,-38.44371z"/></g><g fill="none" stroke="none" stroke-width="1" font-family="sans-serif" font-weight="normal" font-size="12" text-anchor="start"/></g><path d="M133.2127,147.77037c34.57591,-6.60785 75.96621,5.27016 74.97967,28.09157c-0.35421,8.19421 -5.88961,15.82226 -7.49738,21.44131c-6.64943,23.23943 -3.70302,26.20549 -51.2593,35.35499c-49.87636,9.59586 -46.61826,1.65577 -60.26472,-13.79979c-4.08709,-4.62891 -13.22007,-9.54535 -16.30681,-17.13376c-8.62412,-21.2015 25.77259,-47.34646 60.34852,-53.95431z" fill="url(#color-84)" stroke="#000000" stroke-width="0"/><path d="M126.07655,169.70547l-0.43224,-2.26175l21.42243,-4.09406l0.43224,2.26175z" fill="url(#color-85)" stroke="none" stroke-width="0"/><g stroke="none" stroke-width="0"><path d="M131.02797,182.36841c-0.04659,-0.24377 -2.8695,-15.20248 -2.8695,-15.20248l16.35482,-3.13304c0,0 2.90175,14.88393 2.96073,15.19252c0.82628,4.32357 -2.67256,5.98328 -7.21401,6.85121c-4.54146,0.86792 -8.40574,0.61539 -9.23203,-3.70818z" fill="url(#color-86)"/><path d="M130.754,180.93485c-0.04659,-0.24377 -2.8695,-15.20248 -2.8695,-15.20248l16.35482,-3.13303c0,0 2.90175,14.88393 2.96073,15.19252c0.82628,4.32357 -2.67256,5.98328 -7.21401,6.85121c-4.54146,0.86792 -8.40574,0.61539 -9.23203,-3.70818z" fill="url(#color-87)"/></g></g><g><path d="M62.60527,74.86549l-1.09441,-5.72657l107.18725,-20.48469l1.09441,5.72657z" data-paper-data="{&quot;index&quot;:null}" fill="url(#color-88)" stroke="none" stroke-width="0"/><path d="M72.50173,127.55881l-12.08112,-63.21515l5.37543,-1.0273l12.08112,63.21515z" fill="url(#color-89)" stroke="none" stroke-width="0"/><path d="M174.48125,108.06938l-12.08112,-63.21515l5.37543,-1.0273l12.08112,63.21515z" data-paper-data="{&quot;index&quot;:null}" fill="url(#color-90)" stroke="none" stroke-width="0"/><path d="M125.72521,109.414l0.00086,0.83638c0.93575,1.40055 1.67729,2.93245 2.31738,4.49048c0.19728,0.46047 0.45671,0.87687 0.76148,1.26115c0.13268,0.13153 0.25496,0.27142 0.36372,0.42224c1.39781,1.50228 3.46729,2.52843 5.00027,3.935c1.2728,1.16784 1.98059,4.62344 3.29267,6.06377c0.69301,0.76076 3.59255,1.09138 3.92821,1.29818c4.43402,2.73168 0.51286,5.78593 3.21993,8.49452c2.37892,2.38026 11.03894,-6.8126 12.18556,-8.04415c3.49191,-8.53318 -3.24875,-8.5932 -3.97509,-16.65734c-0.37678,-4.18315 4.52977,-10.50613 2.40269,-14.4456c-0.98128,-1.81738 -3.3962,-3.76074 -4.8166,-5.29247c0,0 -1.31289,-1.41657 0.10367,-2.72947c1.41657,-1.3129 2.72947,0.10366 2.72947,0.10366c1.56984,1.69467 4.45884,4.10862 5.43071,6.17528c2.61007,5.5503 -2.31703,10.57133 -1.99559,15.9325c0.20062,3.34615 3.61811,5.32134 5.01888,8.24481c1.9133,3.99302 -0.06723,7.10151 -1.64354,10.74926c-3.29158,3.68359 -9.02985,10.18895 -14.71372,9.83141c-5.64333,-0.355 -4.14622,-4.68755 -5.01908,-8.38738c-0.20301,-0.86049 -4.72824,-1.70769 -5.49893,-2.45651c-1.32434,-1.28675 -2.21399,-5.09983 -3.32776,-6.09712c-0.50968,-0.45638 -0.99847,-0.82734 -1.46863,-1.15415c-0.97084,2.52573 -3.80219,4.11207 -4.29384,7.66279c-0.55107,3.98002 4.58035,7.9929 1.52449,12.04805c-1.47366,1.95556 -4.07146,1.89919 -6.05799,2.72626c-7.53338,3.1364 -11.34505,3.86603 -17.67071,-2.2863c-0.59579,-1.24228 -0.73878,-2.77423 -1.68787,-3.77294c-2.3643,-2.48792 -6.5702,-0.57164 -8.53255,-4.21179c-1.96652,-3.64786 1.08586,-9.61824 1.13722,-13.43758c0.03692,-2.747 -1.72219,-3.19303 -2.81646,-5.25974c-1.57325,-2.97137 -1.05963,-7.95707 -0.81574,-11.16543c0,0 0.14938,-1.92562 2.075,-1.77623c1.92562,0.14939 1.77623,2.075 1.77623,2.075c-0.17308,2.18316 -0.8421,7.04985 0.35637,9.01828c1.47597,2.42425 3.24909,3.68185 3.28587,7.00016c0.03454,3.11494 -2.74923,8.82082 -1.56163,11.7823c0.43573,1.08655 4.01408,1.09948 4.81028,1.46066c3.34067,1.51538 3.77165,2.99308 5.1139,6.03838c5.17852,4.78667 7.23322,3.41274 13.02747,0.97671c1.42897,-0.60077 3.37341,-0.28811 4.42647,-1.42563c1.14122,-1.23277 -2.44972,-8.53731 -2.2152,-10.33023c0.41636,-3.18297 4.31579,-5.47446 4.62688,-8.16819c0.26864,-2.326 -2.25491,-3.25173 -3.70519,-4.63975c-1.06209,-1.61098 -1.70506,-3.50753 -2.08995,-5.39834l0.02972,-1.5567c0,0 0.10838,-1.92837 2.03675,-1.82c0.43489,0.02444 0.76618,0.14145 1.01848,0.30802c1.58897,-0.07825 1.90547,1.57791 1.90547,1.57791z" fill="url(#color-91)" stroke="none" stroke-width="0.5"/><path d="M61.53534,98.71881l-1.42304,-7.44613l117.28489,-22.41446l1.42304,7.44613z" fill="url(#color-92)" stroke="none" stroke-width="0"/><g stroke="#000000" stroke-width="0"><path d="M113.55131,85.03415c2.61928,13.70558 -6.09014,26.88641 -19.45308,29.44022c-13.36294,2.55381 -26.31908,-6.48647 -28.93837,-20.19207c-2.61928,-13.70558 6.09015,-26.88642 19.45308,-29.44022c13.36294,-2.55381 26.31908,6.48647 28.93837,20.19207z" fill="url(#color-93)"/><g><path d="M90.83739,97.41188c-4.17519,0.79792 -8.22325,-2.02666 -9.04164,-6.30889c-0.81838,-4.28223 1.90285,-8.4005 6.07801,-9.19843c4.17519,-0.79792 8.22325,2.02666 9.04164,6.30889c0.81838,4.28223 -1.90285,8.4005 -6.07801,9.19843z" fill="#00ff4c"/><path d="M90.58967,96.11565c-3.47719,0.66454 -6.84852,-1.68784 -7.53008,-5.25419c-0.68156,-3.56633 1.58472,-6.99613 5.06191,-7.66066c3.47719,-0.66454 6.84852,1.68784 7.53008,5.25419c0.68156,3.56633 -1.58472,6.99613 -5.06191,7.66066z" fill="#000000"/></g></g><g stroke="#000000" stroke-width="0"><path d="M173.8362,73.51303c2.61928,13.70558 -6.09014,26.88641 -19.45308,29.44022c-13.36294,2.55381 -26.31908,-6.48647 -28.93837,-20.19207c-2.61928,-13.70558 6.09015,-26.88642 19.45308,-29.44022c13.36294,-2.55381 26.31908,6.48647 28.93837,20.19207z" fill="url(#color-94)"/><g><path d="M151.12229,85.89076c-4.17519,0.79792 -8.22326,-2.02666 -9.04165,-6.30889c-0.81838,-4.28223 1.90285,-8.4005 6.07802,-9.19843c4.17519,-0.79792 8.22325,2.02666 9.04164,6.30889c0.81838,4.28223 -1.90285,8.4005 -6.07801,9.19843z" fill="#00ff4c"/><path d="M150.87456,84.59453c-3.47719,0.66454 -6.84852,-1.68784 -7.53008,-5.25419c-0.68156,-3.56633 1.58472,-6.99613 5.06191,-7.66066c3.47719,-0.66454 6.84852,1.68784 7.53008,5.25419c0.68156,3.56633 -1.58472,6.99613 -5.06191,7.66066z" fill="#000000"/></g></g><path d="M121.7458,121.33326l-11.99011,-64.54993l9.04933,-1.52946l11.99011,64.54993z" fill="url(#color-95)" stroke="none" stroke-width="0"/><path d="M144.51089,156.07059l-7.61191,-39.82972l5.19518,-0.99286l7.61191,39.82972z" fill="url(#color-96)" stroke="none" stroke-width="0"/><path d="M118.53499,161.03486l-7.61191,-39.82972l5.19518,-0.99286l7.61191,39.82972z" fill="url(#color-97)" stroke="none" stroke-width="0"/><path d="M63.34784,89.9918l6.37316,34.78689l111.92008,-21.11161l-6.32586,-35.06258l7.33593,-1.2866l7.8175,43.33906l-126.41338,23.58597l-7.91281,-42.96569z" fill="url(#color-98)" stroke="none" stroke-width="0"/></g><g stroke-width="0"><g><path d="M61.65294,64.93823l-43.18238,-29.56739l2.37752,-3.50253l43.18236,29.56739z" fill="url(#color-99)" stroke="none"/><g stroke="#000000"><g fill="url(#color-100)"><path d="M32.47106,14.86933c0.71159,0.47935 17.40934,8.54469 3.43804,29.0298c-13.78134,20.20655 -24.59321,10.11124 -28.13464,7.85365c-15.36584,-9.79537 -33.9152,-49.65259 -33.9152,-49.65259c0,0 43.49869,2.58826 58.61181,12.76917z"/></g><g fill="url(#color-101)"><path d="M28.10798,18.84777c0.54149,0.3648 13.24799,6.50225 2.61626,22.09082c-10.48718,15.37658 -18.71474,7.69435 -21.40961,5.97642c-11.69295,-7.45397 -27.54853,-38.97728 -27.54853,-38.97728c0,0 34.84127,3.16265 46.34191,10.91003z"/></g></g></g><path d="M66.98343,62.53225c0.41985,2.19689 -1.02072,4.31818 -3.21761,4.73802c-2.19689,0.41985 -4.31818,-1.02072 -4.73803,-3.21762c-0.41985,-2.19689 1.02072,-4.31817 3.21762,-4.73803c2.19689,-0.41985 4.31817,1.02072 4.73802,3.21761z" fill="url(#color-102)" stroke="none"/></g><g data-paper-data="{&quot;index&quot;:null}" stroke-width="0"><g><path d="M163.34782,42.45504l29.23606,-43.40736l3.50155,2.37897l-29.23609,43.40737z" fill="url(#color-103)" stroke="none"/><g stroke="#000000"><g fill="url(#color-104)"><path d="M175.51158,-12.46729c10.2938,-15.03646 49.77257,-33.48264 49.77257,-33.48264c0,0 -2.54461,43.88853 -13.21548,58.6598c-2.45935,3.4044 -8.78659,16.77519 -29.04797,3.07458c-20.54068,-13.88948 -7.99379,-27.5438 -7.50912,-28.25177z"/></g><g fill="url(#color-105)"><path d="M181.03422,-10.37817c7.83327,-11.4423 39.05293,-27.22994 39.05293,-27.22994c0,0 -3.11383,35.14858 -11.23406,46.38908c-1.87146,2.59061 -6.68634,12.7654 -22.10464,2.33965c-15.63084,-10.5695 -6.08301,-20.96 -5.71421,-21.49876z"/></g></g></g><path d="M164.22487,39.82522c2.19689,-0.41985 4.31817,1.02072 4.73802,3.21761c0.41985,2.19689 -1.02072,4.31818 -3.21761,4.73802c-2.19689,0.41985 -4.31818,-1.02072 -4.73803,-3.21762c-0.41985,-2.19689 1.02072,-4.31817 3.21762,-4.73803z" fill="url(#color-106)" stroke="none"/></g><g stroke-width="0"><path d="M211.36354,133.01298l-159.67436,29.5135c0,0 -23.43054,-25.1819 -19.84936,-57.10214c4.24092,-37.80073 -11.66955,-70.59751 76.02562,-87.25107c85.79691,-16.24812 79.1531,18.87589 98.88854,51.37756c19.42614,31.99226 4.60956,63.46215 4.60956,63.46215zM94.52343,118.85999c13.96967,-2.66976 23.1301,-16.15873 20.46034,-30.1284c-6.21473,-32.51889 -19.30087,-39.57145 -33.27053,-36.90169c-13.96967,2.66976 -24.9157,18.24787 -17.3182,46.56976c3.68498,13.73685 16.15873,23.13009 30.1284,20.46032zM155.11339,106.64864c13.96967,-2.66976 22.51515,-17.08991 19.84538,-31.05961c-2.66976,-13.96967 -8.82859,-39.65013 -32.49445,-35.12732c-23.24428,4.44224 -19.4993,30.58399 -16.82953,44.55369c2.66976,13.96967 15.50893,24.303 29.4786,21.63324z" fill="url(#color-107)" stroke="none"/><path d="M125.59001,85.03764c-2.66977,-13.9697 -6.37914,-40.18284 16.86514,-44.62509c23.66586,-4.52281 29.88371,21.2106 32.55347,35.18027c2.66977,13.9697 -5.91597,28.43512 -19.88564,31.10488c-13.96967,2.66976 -26.86321,-7.6904 -29.53298,-21.66007z" data-paper-data="{&quot;noHover&quot;:false,&quot;origItem&quot;:[&quot;Path&quot;,{&quot;applyMatrix&quot;:true,&quot;segments&quot;:[[[155.11339,106.64864],[-13.96967,2.66976],[13.96967,-2.66976]],[[174.95877,75.58903],[2.66977,13.9697],[-2.66976,-13.96967]],[[142.46432,40.46171],[23.66586,-4.52281],[-23.24428,4.44224]],[[125.63479,85.0154],[-2.66977,-13.9697],[2.66976,13.96967]]],&quot;closed&quot;:true,&quot;fillColor&quot;:[0,0,0,1],&quot;strokeWidth&quot;:0}]}" fill="#000000" stroke="none"/><path d="M94.53348,118.90897c-13.96968,2.66976 -26.49718,-6.74818 -30.18216,-20.48503c-7.59751,-28.32189 3.38351,-43.9735 17.35318,-46.64327c13.96967,-2.66976 27.11419,4.43796 33.32891,36.95685c2.66976,13.96967 -6.53028,27.50169 -20.49994,30.17145z" data-paper-data="{&quot;noHover&quot;:false,&quot;origItem&quot;:[&quot;Path&quot;,{&quot;applyMatrix&quot;:true,&quot;segments&quot;:[[[94.52343,118.85999],[0,0],[13.96967,-2.66976]],[[114.98376,88.73159],[2.66976,13.96967],[-6.21473,-32.51889]],[[81.71323,51.82991],[13.96967,-2.66976],[-13.96967,2.66976]],[[64.39503,98.39967],[-7.59751,-28.32189],[3.68498,13.73685]],[[94.52344,118.85999],[-13.96968,2.66976],[0,0]]],&quot;closed&quot;:true,&quot;fillColor&quot;:[0,0,0,1],&quot;strokeWidth&quot;:0}]}" fill="#000000" stroke="none"/><g><g stroke="#000000"><path d="M86.18315,143.40116c-0.22215,7.58207 -23.19915,10.99958 -51.39508,10.17342c-28.19589,-0.82613 -61.43835,-28.0786 -61.43835,-28.0786c0,0 33.83578,7.0028 62.03168,7.82892c0,0 51.02391,2.49415 50.80176,10.07623z" fill="url(#color-108)"/><path d="M88.57034,146.80247c0.75205,7.54799 -21.59697,13.88393 -49.666,16.68061c-28.069,2.7967 -64.53198,-19.96754 -64.53198,-19.96754c0,0 34.45443,2.60569 62.52346,-0.19101c0,0 50.92247,-4.07007 51.67452,3.47792z" fill="url(#color-109)"/><path d="M87.24797,148.09118c1.93217,7.33514 -19.13903,17.11405 -46.41657,24.29936c-27.27751,7.1853 -66.87235,-9.548 -66.87235,-9.548c0,0 34.43452,-2.85679 61.71203,-10.04209c0,0 49.6447,-12.04437 51.57687,-4.70926z" fill="url(#color-110)"/><path d="M90.49989,150.67813c2.85692,7.02677 -16.78618,19.42721 -42.91698,30.05143c-26.13078,10.62419 -67.54462,-0.8931 -67.54462,-0.8931c0,0 33.78379,-7.24928 59.91457,-17.87346c0,0 47.69011,-18.31164 50.54706,-11.28488z" fill="url(#color-111)"/><path d="M88.75924,146.47949c4.31961,6.23525 -12.14891,22.61849 -35.33628,38.68206c-23.18734,16.06357 -66.11578,13.84848 -66.11578,13.84848c0,0 31.39192,-14.43755 54.57929,-30.50111c0,0 42.55315,-28.26469 46.87276,-22.02942z" fill="url(#color-112)"/></g><g data-paper-data="{&quot;index&quot;:null}" stroke="#000000"><path d="M212.966,99.38652c25.90421,-11.16527 54.77313,-30.15162 54.77313,-30.15162c0,0 -20.85029,37.59019 -46.7545,48.75546c-25.90423,11.16527 -48.52219,16.46151 -51.5246,9.49569c-3.00242,-6.96583 43.50596,-28.09949 43.50596,-28.09949z" fill="url(#color-113)"/><path d="M215.24564,109.2399c27.12222,-7.75096 58.18767,-22.87824 58.18767,-22.87824c0,0 -25.49889,34.60582 -52.62109,42.35681c-27.12221,7.75098 -50.23263,10.10283 -52.31693,2.80948c-2.08431,-7.29338 46.75036,-22.28802 46.75036,-22.28802z" fill="url(#color-114)"/><path d="M219.87833,117.59637c28.00479,-3.37977 61.06606,-13.42218 61.06606,-13.42218c0,0 -30.634,30.15484 -58.63879,33.53458c-28.00482,3.37977 -51.19708,2.06011 -52.10594,-5.4706c-0.90886,-7.5307 49.67865,-14.64181 49.67865,-14.64181z" fill="url(#color-115)"/><path d="M219.277,127.69215c28.20698,0.23963 62.28312,-5.47989 62.28312,-5.47989c0,0 -34.24823,25.97716 -62.45521,25.73752c-28.207,-0.23963 -51.03854,-4.52272 -50.97408,-12.10779c0.06443,-7.58508 51.14617,-8.14984 51.14617,-8.14984z" fill="url(#color-116)"/><path d="M219.89366,134.48974c27.47676,6.38109 61.98033,8.22526 61.98033,8.22526c0,0 -39.08632,17.88902 -66.56308,11.50794c-27.47679,-6.38108 -48.82612,-15.5369 -47.1102,-22.92561c1.71593,-7.3887 51.69295,3.19241 51.69295,3.19241z" fill="url(#color-117)"/></g><path d="M60.86333,138.04526c5.5031,-19.74943 16.07346,-28.84536 35.88528,-33.06478c10.32211,-2.50079 23.91226,-2.62495 31.2272,14.26996c1.78976,4.13372 1.24547,9.66053 2.45454,15.98705c4.19189,21.93426 7.48784,39.16017 7.48784,39.16017c0,0 -15.43383,8.49093 -31.47415,11.55641c-19.89568,3.80229 -56.81804,-7.58046 -45.58068,-47.90883z" data-paper-data="{&quot;index&quot;:null}" fill="url(#color-118)" stroke="#000000"/><path d="M171.37378,173.54529c-16.17392,3.09102 -33.98596,1.25287 -33.98596,1.25287c0,0 -2.85268,-17.78661 -7.01194,-39.55024c-1.17484,-6.14744 -2.23842,-11.24469 -2.13621,-15.66553c0.43297,-18.72358 11.69718,-23.38744 22.28689,-24.87947c19.97155,-3.38364 33.15115,1.17342 45.54912,17.50175c25.31668,33.34248 -4.80623,57.53833 -24.70189,61.34061z" fill="url(#color-119)" stroke="#000000"/><path d="M123.84408,102.7692c4.77297,-0.91217 9.16526,1.08517 9.81045,4.46119c0.6452,3.37602 -0.61864,17.74829 -5.39164,18.66047c-4.773,0.91218 -11.24764,-11.9812 -11.89283,-15.35721c-0.6452,-3.37602 2.70102,-6.85227 7.47402,-7.76444z" fill="url(#color-120)" stroke="none"/></g></g><path d="M94.94602,84.78606c0.58278,2.14281 -0.60086,4.33031 -2.64374,4.88591c-2.04288,0.55561 -4.17141,-0.73107 -4.75419,-2.87388c-0.58278,-2.14281 0.60086,-4.33031 2.64374,-4.88591c2.04288,-0.55561 4.17141,0.73107 4.75419,2.87388z" fill="url(#color-121)" stroke="none" stroke-width="0"/><path d="M150.93863,74.73923c0.58278,2.14281 -0.60086,4.33031 -2.64374,4.88591c-2.04288,0.55561 -4.17141,-0.73107 -4.75419,-2.87388c-0.58278,-2.14281 0.60086,-4.33031 2.64374,-4.88591c2.04288,-0.55561 4.17141,0.73107 4.75419,2.87388z" fill="url(#color-122)" stroke="none" stroke-width="0"/></g></g></svg>