<svg version="1.1" xmlns="http://www.w3.org/2000/svg" xmlns:xlink="http://www.w3.org/1999/xlink" width="305.74578" height="303.11472" viewBox="0,0,305.74578,303.11472"><defs><linearGradient x1="235.95939" y1="115.00374" x2="244.39546" y2="115.00374" gradientUnits="userSpaceOnUse" id="color-1"><stop offset="0" stop-color="#7a7a7a"/><stop offset="1" stop-color="#a4a4a4"/></linearGradient><linearGradient x1="218.74685" y1="90.53872" x2="223.31493" y2="90.53872" gradientUnits="userSpaceOnUse" id="color-2"><stop offset="0" stop-color="#7a7a7a"/><stop offset="1" stop-color="#a4a4a4"/></linearGradient><linearGradient x1="256.07292" y1="90.53872" x2="260.64099" y2="90.53872" gradientUnits="userSpaceOnUse" id="color-3"><stop offset="0" stop-color="#7a7a7a"/><stop offset="1" stop-color="#a4a4a4"/></linearGradient><linearGradient x1="240.29844" y1="71.9257" x2="240.29844" y2="86.76911" gradientUnits="userSpaceOnUse" id="color-4"><stop offset="0" stop-color="#a4a4a4"/><stop offset="1" stop-color="#7a7a7a"/></linearGradient><linearGradient x1="239.90047" y1="76.32267" x2="239.90047" y2="80.695" gradientUnits="userSpaceOnUse" id="color-5"><stop offset="0" stop-color="#6b6b6b"/><stop offset="1" stop-color="#222222"/></linearGradient><linearGradient x1="246.08372" y1="121.60094" x2="246.08372" y2="124.38084" gradientUnits="userSpaceOnUse" id="color-6"><stop offset="0" stop-color="#9a9a9a"/><stop offset="1" stop-color="#dedede"/></linearGradient><linearGradient x1="241.99561" y1="121.57575" x2="241.99561" y2="124.35565" gradientUnits="userSpaceOnUse" id="color-7"><stop offset="0" stop-color="#9a9a9a"/><stop offset="1" stop-color="#dedede"/></linearGradient><linearGradient x1="237.93267" y1="121.57575" x2="237.93267" y2="124.35565" gradientUnits="userSpaceOnUse" id="color-8"><stop offset="0" stop-color="#9a9a9a"/><stop offset="1" stop-color="#dedede"/></linearGradient><linearGradient x1="233.84455" y1="121.55055" x2="233.84455" y2="124.33045" gradientUnits="userSpaceOnUse" id="color-9"><stop offset="0" stop-color="#9a9a9a"/><stop offset="1" stop-color="#dedede"/></linearGradient><linearGradient x1="239.82732" y1="118.7382" x2="239.82732" y2="122.87011" gradientUnits="userSpaceOnUse" id="color-10"><stop offset="0" stop-color="#a4a4a4"/><stop offset="1" stop-color="#3d3d3d"/></linearGradient><linearGradient x1="246.05853" y1="125.23507" x2="246.05853" y2="128.01495" gradientUnits="userSpaceOnUse" id="color-11"><stop offset="0" stop-color="#dedede"/><stop offset="1" stop-color="#9a9a9a"/></linearGradient><linearGradient x1="241.9704" y1="125.26027" x2="241.9704" y2="128.04017" gradientUnits="userSpaceOnUse" id="color-12"><stop offset="0" stop-color="#dedede"/><stop offset="1" stop-color="#9a9a9a"/></linearGradient><linearGradient x1="237.90748" y1="125.26027" x2="237.90748" y2="128.04017" gradientUnits="userSpaceOnUse" id="color-13"><stop offset="0" stop-color="#dedede"/><stop offset="1" stop-color="#9a9a9a"/></linearGradient><linearGradient x1="233.81935" y1="125.28547" x2="233.81935" y2="128.06537" gradientUnits="userSpaceOnUse" id="color-14"><stop offset="0" stop-color="#dedede"/><stop offset="1" stop-color="#9a9a9a"/></linearGradient><linearGradient x1="239.80212" y1="126.74581" x2="239.80212" y2="130.87772" gradientUnits="userSpaceOnUse" id="color-15"><stop offset="0" stop-color="#a4a4a4"/><stop offset="1" stop-color="#3d3d3d"/></linearGradient><radialGradient cx="221.11757" cy="78.69652" r="13.60014" gradientUnits="userSpaceOnUse" id="color-16"><stop offset="0" stop-color="#ffffff"/><stop offset="1" stop-color="#c4bfb5"/></radialGradient><radialGradient cx="224.97067" cy="76.23762" r="5.05415" gradientUnits="userSpaceOnUse" id="color-17"><stop offset="0" stop-color="#ffffff"/><stop offset="1" stop-color="#ffffff" stop-opacity="0"/></radialGradient><radialGradient cx="258.24987" cy="78.83931" r="13.60014" gradientUnits="userSpaceOnUse" id="color-18"><stop offset="0" stop-color="#ffffff"/><stop offset="1" stop-color="#c5c1b7"/></radialGradient><radialGradient cx="261.90994" cy="76.23762" r="5.05415" gradientUnits="userSpaceOnUse" id="color-19"><stop offset="0" stop-color="#ffffff"/><stop offset="1" stop-color="#ffffff" stop-opacity="0"/></radialGradient><linearGradient x1="239.69392" y1="102.0936" x2="239.69392" y2="106.25315" gradientUnits="userSpaceOnUse" id="color-20"><stop offset="0" stop-color="#a4a4a4"/><stop offset="1" stop-color="#686868"/></linearGradient><radialGradient cx="296.88073" cy="27.64881" r="34.31923" gradientUnits="userSpaceOnUse" id="color-21"><stop offset="0" stop-color="#634a14"/><stop offset="1" stop-color="#443014"/></radialGradient><linearGradient x1="276.7521" y1="27.64847" x2="276.7521" y2="67.60017" gradientUnits="userSpaceOnUse" id="color-22"><stop offset="0" stop-color="#4a4a4a"/><stop offset="1" stop-color="#000000"/></linearGradient><radialGradient cx="183.16037" cy="27.64881" r="34.31923" gradientUnits="userSpaceOnUse" id="color-23"><stop offset="0" stop-color="#634a14"/><stop offset="1" stop-color="#443014"/></radialGradient><linearGradient x1="203.289" y1="27.64847" x2="203.289" y2="67.60017" gradientUnits="userSpaceOnUse" id="color-24"><stop offset="0" stop-color="#4a4a4a"/><stop offset="1" stop-color="#000000"/></linearGradient><radialGradient cx="261.67134" cy="59.88993" r="51.95424" gradientUnits="userSpaceOnUse" id="color-25"><stop offset="0" stop-color="#e0c297"/><stop offset="1" stop-color="#b9a17e"/></radialGradient><radialGradient cx="262.13203" cy="41.92295" r="50.24792" gradientUnits="userSpaceOnUse" id="color-26"><stop offset="0" stop-color="#634a14"/><stop offset="1" stop-color="#443014"/></radialGradient><linearGradient x1="240.4262" y1="153.34263" x2="240.4262" y2="226.62371" gradientUnits="userSpaceOnUse" id="color-27"><stop offset="0" stop-color="#a4a4a4"/><stop offset="1" stop-color="#7a7a7a"/></linearGradient><linearGradient x1="240.4262" y1="153.34263" x2="240.4262" y2="159.32074" gradientUnits="userSpaceOnUse" id="color-28"><stop offset="0" stop-color="#a4a4a4"/><stop offset="1" stop-color="#7a7a7a"/></linearGradient><linearGradient x1="240.4262" y1="150.63505" x2="240.4262" y2="162.02834" gradientUnits="userSpaceOnUse" id="color-29"><stop offset="0" stop-color="#303030"/><stop offset="1" stop-color="#4b4b4b"/></linearGradient><linearGradient x1="112.57922" y1="163.24022" x2="98.95197" y2="168.05198" gradientUnits="userSpaceOnUse" id="color-30"><stop offset="0" stop-color="#9f896a"/><stop offset="1" stop-color="#6e604b"/></linearGradient><linearGradient x1="109.21945" y1="160.83441" x2="92.22548" y2="166.83494" gradientUnits="userSpaceOnUse" id="color-31"><stop offset="0" stop-color="#b9a17e"/><stop offset="1" stop-color="#9f896a"/></linearGradient><linearGradient x1="105.93801" y1="156.46676" x2="88.53601" y2="162.61137" gradientUnits="userSpaceOnUse" id="color-32"><stop offset="0" stop-color="#e0c297"/><stop offset="1" stop-color="#b9a17e"/></linearGradient><linearGradient x1="121.28836" y1="156.02776" x2="102.44034" y2="162.68298" gradientUnits="userSpaceOnUse" id="color-33"><stop offset="0" stop-color="#e0c297"/><stop offset="1" stop-color="#b9a17e"/></linearGradient><linearGradient x1="117.47532" y1="164.81041" x2="111.31502" y2="166.98559" gradientUnits="userSpaceOnUse" id="color-34"><stop offset="0" stop-color="#e0c297"/><stop offset="1" stop-color="#b9a17e"/></linearGradient><linearGradient x1="368.90218" y1="163.24022" x2="382.52943" y2="168.05198" gradientUnits="userSpaceOnUse" id="color-35"><stop offset="0" stop-color="#9f896a"/><stop offset="1" stop-color="#6e604b"/></linearGradient><linearGradient x1="372.26195" y1="160.83441" x2="389.25592" y2="166.83494" gradientUnits="userSpaceOnUse" id="color-36"><stop offset="0" stop-color="#b9a17e"/><stop offset="1" stop-color="#9f896a"/></linearGradient><linearGradient x1="375.54339" y1="156.46676" x2="392.94539" y2="162.61137" gradientUnits="userSpaceOnUse" id="color-37"><stop offset="0" stop-color="#e0c297"/><stop offset="1" stop-color="#b9a17e"/></linearGradient><linearGradient x1="360.19304" y1="156.02776" x2="379.04106" y2="162.68298" gradientUnits="userSpaceOnUse" id="color-38"><stop offset="0" stop-color="#e0c297"/><stop offset="1" stop-color="#b9a17e"/></linearGradient><linearGradient x1="364.00608" y1="164.81041" x2="370.16638" y2="166.98559" gradientUnits="userSpaceOnUse" id="color-39"><stop offset="0" stop-color="#e0c297"/><stop offset="1" stop-color="#b9a17e"/></linearGradient><radialGradient cx="160.364" cy="155.45287" r="9.91648" gradientUnits="userSpaceOnUse" id="color-40"><stop offset="0" stop-color="#bb8c8c"/><stop offset="1" stop-color="#9d7070"/></radialGradient><radialGradient cx="154.8357" cy="153.14941" r="19.4037" gradientUnits="userSpaceOnUse" id="color-41"><stop offset="0" stop-color="#bb8c8c"/><stop offset="1" stop-color="#9d7070"/></radialGradient><radialGradient cx="321.1174" cy="155.45287" r="9.91648" gradientUnits="userSpaceOnUse" id="color-42"><stop offset="0" stop-color="#bb8c8c"/><stop offset="1" stop-color="#9d7070"/></radialGradient><radialGradient cx="326.6457" cy="153.14941" r="19.4037" gradientUnits="userSpaceOnUse" id="color-43"><stop offset="0" stop-color="#bb8c8c"/><stop offset="1" stop-color="#9d7070"/></radialGradient><radialGradient cx="202.74764" cy="156.37425" r="9.91649" gradientUnits="userSpaceOnUse" id="color-44"><stop offset="0" stop-color="#bb8c8c"/><stop offset="1" stop-color="#9d7070"/></radialGradient><radialGradient cx="196.29795" cy="154.07079" r="19.37124" gradientUnits="userSpaceOnUse" id="color-45"><stop offset="0" stop-color="#bb8c8c"/><stop offset="1" stop-color="#9d7070"/></radialGradient><radialGradient cx="278.73376" cy="156.37425" r="9.91649" gradientUnits="userSpaceOnUse" id="color-46"><stop offset="0" stop-color="#bb8c8c"/><stop offset="1" stop-color="#9d7070"/></radialGradient><radialGradient cx="285.18345" cy="154.07079" r="19.37124" gradientUnits="userSpaceOnUse" id="color-47"><stop offset="0" stop-color="#bb8c8c"/><stop offset="1" stop-color="#9d7070"/></radialGradient><radialGradient cx="218.16774" cy="280.83639" r="9.91649" gradientUnits="userSpaceOnUse" id="color-48"><stop offset="0" stop-color="#e0c297"/><stop offset="1" stop-color="#b9a17e"/></radialGradient><radialGradient cx="217.53695" cy="288.09043" r="19.33817" gradientUnits="userSpaceOnUse" id="color-49"><stop offset="0" stop-color="#ba7878"/><stop offset="1" stop-color="#8e5555"/></radialGradient><radialGradient cx="262.63813" cy="280.20561" r="9.91649" gradientUnits="userSpaceOnUse" id="color-50"><stop offset="0" stop-color="#e0c297"/><stop offset="1" stop-color="#b9a17e"/></radialGradient><radialGradient cx="264.21509" cy="285.88268" r="19.33817" gradientUnits="userSpaceOnUse" id="color-51"><stop offset="0" stop-color="#ba7878"/><stop offset="1" stop-color="#8e5555"/></radialGradient><radialGradient cx="219.42931" cy="237.62757" r="9.91649" gradientUnits="userSpaceOnUse" id="color-52"><stop offset="0" stop-color="#e0c297"/><stop offset="1" stop-color="#b9a17e"/></radialGradient><radialGradient cx="220.69088" cy="245.82779" r="19.33817" gradientUnits="userSpaceOnUse" id="color-53"><stop offset="0" stop-color="#e0c297"/><stop offset="1" stop-color="#b9a17e"/></radialGradient><radialGradient cx="261.06116" cy="236.68139" r="9.91649" gradientUnits="userSpaceOnUse" id="color-54"><stop offset="0" stop-color="#e0c297"/><stop offset="1" stop-color="#b9a17e"/></radialGradient><radialGradient cx="261.69195" cy="245.197" r="19.33817" gradientUnits="userSpaceOnUse" id="color-55"><stop offset="0" stop-color="#e0c297"/><stop offset="1" stop-color="#b9a17e"/></radialGradient><radialGradient cx="207.44438" cy="312.06029" r="19.75" gradientUnits="userSpaceOnUse" id="color-56"><stop offset="0" stop-color="#ba7878"/><stop offset="1" stop-color="#8e5555"/></radialGradient><radialGradient cx="273.67688" cy="312.69106" r="19.75" gradientUnits="userSpaceOnUse" id="color-57"><stop offset="0" stop-color="#ba7878"/><stop offset="1" stop-color="#8e5555"/></radialGradient><radialGradient cx="262.68441" cy="227.69647" r="28.11579" gradientUnits="userSpaceOnUse" id="color-58"><stop offset="0" stop-color="#bb8c8c"/><stop offset="1" stop-color="#9d7070"/></radialGradient><linearGradient x1="214.55107" y1="184.03646" x2="268.64087" y2="184.03646" gradientUnits="userSpaceOnUse" id="color-59"><stop offset="0" stop-color="#bb8c8c"/><stop offset="1" stop-color="#9d7070"/></linearGradient><linearGradient x1="214.55107" y1="184.28646" x2="268.64087" y2="184.28646" gradientUnits="userSpaceOnUse" id="color-60"><stop offset="0" stop-color="#d8d8d8"/><stop offset="1" stop-color="#a7a7a7"/></linearGradient></defs><g transform="translate(-87.86781,-23.98237)"><g data-paper-data="{&quot;isPaintingLayer&quot;:true}" fill-rule="nonzero" stroke-linecap="butt" stroke-linejoin="miter" stroke-miterlimit="10" stroke-dasharray="" stroke-dashoffset="0" style="mix-blend-mode: normal"><path d="M284.15882,83.7466c0,9.382 14.98001,18.28883 3.1007,34.60522c-12.34758,16.95958 -32.64757,20.43407 -47.93966,20.43407c-16.38761,0 -30.94316,0.06815 -47.0443,-21.7072c-10.92726,-14.77814 2.20535,-25.03522 2.20535,-33.33209c0,-24.52914 20.07508,-44.41394 44.83895,-44.41394c24.76387,0 44.83895,19.8848 44.83895,44.41394z" fill="#191919" stroke="none" stroke-width="0"/><g><path d="M262.56395,111.57474c1.44094,-1.00259 2.99347,-4.37776 3.44988,-6.05048c-0.01258,-2.13783 1.40468,-4.80994 0.92256,-6.82525c-0.52172,-2.18084 -1.93586,-4.2673 -2.66568,-6.39927c-0.66376,-1.93894 -1.37228,-3.80676 -2.24782,-5.5725c0.62428,2.37727 0.91893,4.85629 0.61016,6.80647c-0.41556,2.6247 -1.71936,5.10366 -1.26763,7.85375c0.62653,3.81421 3.28717,4.8911 1.31587,9.00995c-0.40114,0.69753 -0.85611,1.25456 -1.35604,1.69938c0.44236,-0.09467 0.86092,-0.2592 1.23868,-0.52204zM259.76478,79.21998c3.3583,3.48341 5.22819,7.66534 6.77506,12.22681c0.75063,2.21345 2.25954,4.39129 2.74595,6.67784c0.53438,2.51199 -0.86787,5.18701 -0.88131,7.74638c-0.6454,2.32473 -2.46094,6.38103 -4.48719,7.7739c-2.3098,1.58777 -5.16143,0.87513 -7.66312,0.58108c-4.68348,-0.55049 -9.32595,0.17126 -13.79109,1.30581c-0.26808,0.00158 -0.53615,0.00289 -0.80421,0.00399l0.1783,1.20564c0,0 -0.38169,1.18586 -1.52674,0.79057c-0.71503,-0.24684 -0.83473,-0.80195 -0.82379,-1.18408c-0.28737,-0.18341 -0.57653,-0.35894 -0.86616,-0.52867c-0.33864,0.1496 -0.93338,0.26667 -1.4194,-0.40444c-0.01191,-0.01644 -0.02335,-0.0328 -0.03435,-0.0491c-0.20856,-0.11686 -0.41141,-0.31154 -0.50847,-0.63589c-0.18033,-0.09752 -0.35965,-0.19463 -0.53766,-0.29182c0.48854,0.85872 0.91083,1.76861 1.81365,2.36262l0.77623,0.60051c0,0 0.9656,0.75 0.2414,1.75c-0.7242,1 -1.68979,0.25 -1.68979,0.25l-0.66687,-0.52039c-1.48081,-1.05649 -1.84689,-2.88253 -3.05555,-3.9156c-0.54731,-0.46781 -1.41409,-0.1275 -2.12234,-0.17364c-1.50984,-0.09836 -3.9586,-0.14317 -5.20552,-1.21978c-1.80714,-1.56031 -1.76854,-5.31353 -3.22076,-7.3295c-3.9734,-0.2465 -7.36094,-3.65234 -6.57621,-8.05342c0.19488,-1.09303 1.09285,-1.92453 1.48132,-2.96068c0.80963,-2.15955 -1.16506,-5.24727 -1.48238,-7.24792c-0.42836,-2.70085 0.75145,-4.68214 2.23604,-6.5653c0.05723,-0.154 0.11633,-0.30978 0.17703,-0.46755c0,0 0.24539,-0.63533 0.82694,-0.77784c-0.00647,-0.14574 -0.01028,-0.29215 -0.01134,-0.43927c0,0 0,-1.25 1.20699,-1.25c1.20699,0 1.207,1.25 1.207,1.25c-0.04212,4.50306 2.99456,7.23813 5.49044,10.40597c0.56958,0.72294 1.34917,2.48655 1.52532,3.38219c0.16324,0.83005 -0.44232,2.57114 0.36339,3.23809c1.16526,0.96458 3.95955,0.90449 4.79737,2.17478c0.94716,1.43607 0.76129,3.39547 1.32553,5.03346c1.10173,1.86134 1.75042,3.60128 2.32565,5.68627l0.1649,0.50857c0,0 0.3817,1.18586 -0.76336,1.58114c-1.14506,0.39529 -1.52674,-0.79057 -1.52674,-0.79057l-0.19589,-0.61233c-0.54408,-1.97214 -1.15241,-3.52878 -2.18372,-5.29755c-0.50422,-1.46077 -0.32863,-3.1562 -1.01985,-4.53246c-0.29089,-0.57918 -3.88544,-1.22854 -4.5828,-1.93516c-1.74014,-1.76325 -0.62408,-3.7908 -1.52581,-5.79448c-0.62274,-1.38376 -1.85441,-2.11331 -2.75574,-3.32595c-1.28482,-1.7286 -2.42764,-3.60739 -3.12857,-5.64205c-0.35935,1.24868 -0.38056,2.41699 0.56013,3.78272c0.6883,0.9993 1.78264,1.71079 2.28206,2.82399c1.02037,2.27436 -0.48131,6.59895 1.70596,8.38376c2.74532,2.24019 5.73879,3.60495 7.19864,7.11996c0.46279,3.20752 2.21276,4.74376 4.38002,5.99969h0.41061c1.5313,0.06729 2.95923,-1.07397 4.35535,-1.74859c2.56035,-1.23719 5.20878,-2.15474 7.48099,-3.92383c1.68174,-1.56665 1.06917,-5.64059 1.61416,-7.80442c0.46829,-1.85926 2.00516,-2.57761 3.15681,-3.86464c1.26988,-1.41917 2.43374,-3.6081 3.05101,-5.39304c1.15823,-3.34923 -0.29604,-6.81202 -0.30107,-10.20278c0,0 0,-1.25 1.20699,-1.25c0.96391,0 1.15804,0.79721 1.19713,1.11832c0.60906,-0.13917 1.09945,0.3687 1.09945,0.3687zM253.68006,111.35982c2.45505,0 5.56258,0.39398 6.8729,-2.14206c1.47622,-3.0241 -1.03174,-4.34966 -1.57033,-7.42985c-0.53049,-3.03387 0.78434,-5.70106 1.25781,-8.58604c0.31878,-1.94239 -0.12992,-4.71655 -0.91472,-7.1594c0.04902,1.33193 -0.05903,2.67669 -0.52008,4.06652c-0.6837,2.06098 -2.072,4.53484 -3.51368,6.15774c-0.72129,0.81196 -2.37755,1.62449 -2.61562,2.86073c-0.60296,3.13095 -0.14208,6.59289 -2.35437,9.00901c-1.19948,0.92988 -2.85582,2.04847 -4.66685,3.08266c2.60899,-0.10689 5.26967,0.14069 8.02495,0.14069zM229.78901,106.59558c-1.20552,-2.93047 -4.3558,-3.97593 -6.51083,-5.95715c-2.19204,-2.01523 -1.75647,-5.24708 -2.00502,-7.88151c-0.15468,-1.63953 -1.05972,-2.12801 -1.90462,-3.15629c0.35681,1.02059 0.75261,2.03873 0.87498,3.05398c0.4792,3.9757 -4.14183,9.32234 2.00373,11.08921c0.60796,0.17479 1.24815,0.19223 1.87223,0.28834c1.52853,1.73595 2.17194,2.96369 2.92033,5.17648c0.27119,0.80184 0.0462,1.94531 0.71365,2.43929c1.31185,0.97089 3.28479,0.5292 4.99962,0.60603c-1.50109,-1.28444 -2.61331,-2.97224 -2.96407,-5.65838z" fill="#000000" stroke="none" stroke-width="0.5"/><path d="M235.95939,154.98978v-79.97209h8.43607v79.87299z" fill="url(#color-1)" stroke="none" stroke-width="0"/><path d="M218.74685,106.05975v-31.04206h4.56808v31.00359z" fill="url(#color-2)" stroke="none" stroke-width="0"/><path d="M256.07292,106.05975v-31.04206h4.56808v31.00359z" fill="url(#color-3)" stroke="none" stroke-width="0"/><path d="M214.13594,86.76911v-14.84339h52.325v14.84339z" fill="url(#color-4)" stroke="none" stroke-width="0"/><path d="M205.66321,80.695v-4.37236h68.47455v4.37236z" fill="url(#color-5)" stroke="none" stroke-width="0"/><g stroke="none" stroke-width="0"><path d="M244.37302,124.38084v-2.7799h3.42141v2.7799z" fill="url(#color-6)"/><path d="M240.2849,124.35565v-2.7799h3.42142v2.7799z" fill="url(#color-7)"/><path d="M236.22197,124.35565v-2.7799h3.42141v2.7799z" fill="url(#color-8)"/><path d="M232.13385,124.33045v-2.7799h3.42141v2.7799z" fill="url(#color-9)"/><path d="M229.35096,122.87011v-4.13191h20.95273v4.13191z" fill="url(#color-10)"/></g><g data-paper-data="{&quot;index&quot;:null}" stroke="none" stroke-width="0"><path d="M247.76924,125.23507v2.7799h-3.42141v-2.7799z" fill="url(#color-11)"/><path d="M243.68111,125.26027v2.7799h-3.42141v-2.7799z" fill="url(#color-12)"/><path d="M239.61819,125.26027v2.7799h-3.42141v-2.7799z" fill="url(#color-13)"/><path d="M235.53006,125.28547v2.7799h-3.42141v-2.7799z" fill="url(#color-14)"/><path d="M250.27849,126.74581v4.13191h-20.95273v-4.13191z" fill="url(#color-15)"/></g><g stroke-width="0"><g><path d="M234.64971,78.69652c0,7.51115 -6.05855,13.60014 -13.53214,13.60014c-7.47359,0 -13.53214,-6.08899 -13.53214,-13.60014c0,-7.51115 6.05855,-13.60014 13.53214,-13.60014c7.47359,0 13.53214,6.08899 13.53214,13.60014z" fill="url(#color-16)" stroke="#000000"/><path d="M225.7021,78.76077c0,2.79133 -2.10854,5.05415 -4.70955,5.05415c-2.60101,0 -4.70954,-2.26282 -4.70954,-5.05415c0,-2.79133 2.10853,-5.05414 4.70954,-5.05414c2.60101,0 4.70955,2.26281 4.70955,5.05414z" fill="#000000" stroke="none"/></g><path d="M229.68021,76.23762c0,2.79133 -2.10854,5.05415 -4.70955,5.05415c-2.60101,0 -4.70954,-2.26282 -4.70954,-5.05415c0,-2.79133 2.10853,-5.05414 4.70954,-5.05414c2.60101,0 4.70955,2.26281 4.70955,5.05414z" fill="url(#color-17)" stroke="none"/></g><g stroke-width="0"><g><path d="M271.78202,78.83931c0,7.51115 -6.05855,13.60014 -13.53214,13.60014c-7.47359,0 -13.53214,-6.08899 -13.53214,-13.60014c0,-7.51115 6.05855,-13.60014 13.53214,-13.60014c7.47359,0 13.53214,6.08899 13.53214,13.60014z" fill="url(#color-18)" stroke="#000000"/><path d="M262.83441,78.90357c0,2.79133 -2.10854,5.05415 -4.70954,5.05415c-2.60101,0 -4.70954,-2.26282 -4.70954,-5.05415c0,-2.79133 2.10853,-5.05414 4.70954,-5.05414c2.60101,0 4.70954,2.26281 4.70954,5.05414z" fill="#000000" stroke="none"/></g><path d="M266.61948,76.23762c0,2.79133 -2.10854,5.05415 -4.70955,5.05415c-2.60101,0 -4.70954,-2.26282 -4.70954,-5.05415c0,-2.79133 2.10853,-5.05414 4.70954,-5.05414c2.60101,0 4.70955,2.26281 4.70955,5.05414z" fill="url(#color-19)" stroke="none"/></g><path d="M218.74685,106.25315v-4.15955h41.89415v4.15439z" fill="url(#color-20)" stroke="none" stroke-width="0"/></g><g data-paper-data="{&quot;index&quot;:null}" stroke="none" stroke-width="0"><path d="M331.01907,69.54994c0,0 -0.84263,7.9375 -3.36417,10.73087c-2.83094,3.13612 -6.52582,6.58102 -9.45629,7.07501c-3.65144,0.61553 -7.56151,0.02152 -10.4852,-3.64359c-1.65007,-2.06852 -5.69233,-6.8289 -7.87653,-12.06159c-2.97035,-7.11608 -4.206,-14.72306 -7.10058,-14.07225c-14.52123,3.26495 -35.38796,-8.85478 -33.92742,-12.39796c1.22297,-2.96684 8.66541,-12.32447 16.85507,-15.51219c35.63227,-19.45582 30.63654,16.20311 35.89313,29.34075c1.63382,4.08335 3.72329,7.35809 5.94736,10.58801c1.47351,2.13993 4.03747,3.42288 6.60411,4.19195c3.94885,1.18323 6.91053,-4.23901 6.91053,-4.23901z" fill="url(#color-21)"/><path d="M258.46334,34.26758l7.61888,-6.61912l28.95863,33.3326l-7.61888,6.61911z" fill="url(#color-22)"/></g><g stroke="none" stroke-width="0"><path d="M162.53667,69.59701c2.22406,-3.22993 4.31354,-6.50467 5.94735,-10.58801c5.25659,-13.13764 0.26087,-48.79657 35.89313,-29.34074c8.18965,3.18771 15.63209,12.54535 16.85506,15.51219c1.46054,3.54318 -19.40619,15.66291 -33.92742,12.39796c-2.89458,-0.65082 -4.13022,6.95617 -7.10058,14.07225c-2.1842,5.23269 -6.22647,9.99308 -7.87654,12.06159c-2.92369,3.66512 -6.83376,4.25912 -10.4852,3.64359c-2.93046,-0.49399 -6.62535,-3.93889 -9.45629,-7.07501c-0.40855,-0.4526 -0.77302,-1.04023 -1.09698,-1.70727c0.82348,0.52104 1.60532,1.06851 2.80711,1.09007c1.52276,0 2.02994,-0.37242 1.54191,-1.59249c0.2324,-0.34401 0.4009,-0.99658 0.46038,-1.16778c0.1377,-0.39629 2.4557,-0.10821 2.87515,-1.33309c0.33844,-0.98832 -1.08266,-1.48018 -2.38198,-1.99058c2.33892,-0.78599 4.59767,-2.02614 5.94488,-3.98265z" fill="url(#color-23)"/><path d="M192.61912,67.60017l-7.61888,-6.61911l28.95863,-33.33259l7.61888,6.61912z" fill="url(#color-24)"/></g><path d="M284.15882,83.53014c0,9.382 14.98001,18.28883 3.10071,34.60522c-12.34758,16.95958 -32.64757,20.43407 -47.93966,20.43407c-16.38761,0 -30.94316,0.06815 -47.0443,-21.7072c-10.92726,-14.77814 2.20535,-25.03522 2.20535,-33.33209c0,-24.52914 20.07508,-44.41394 44.83895,-44.41394c24.76387,0 44.83895,19.8848 44.83895,44.41394zM258.8388,93.68952c8.28427,0 15,-6.71573 15,-15c0,-8.28427 -6.71573,-15 -15,-15c-8.28427,0 -15,6.71573 -15,15c0,8.28427 6.71573,15 15,15zM221.16246,93.45978c8.28427,0 15,-6.71573 15,-15c0,-8.28427 -6.71573,-15 -15,-15c-8.28427,0 -15,6.71573 -15,15c0,8.28427 6.71573,15 15,15zM239.77089,131.64971c18.45227,0.34585 29.28871,-11.22957 29.28871,-16.75241c0,-5.52284 -11.48272,4.1371 -28.69324,4.10389c-22.14882,-0.04273 -28.87964,-9.70036 -28.87964,-4.1775c0,5.52284 10.11695,16.48552 28.28417,16.82603z" fill="url(#color-25)" stroke="none" stroke-width="0"/><path d="M287.74897,64.33354c1.8576,10.04195 4.40899,17.00076 -4.72556,23.91674c-9.9832,7.55851 13.32704,-41.39438 -43.47444,-41.16328c-57.67809,-0.25414 -34.75713,48.45298 -44.78924,40.17671c-8.20415,-6.76824 -5.93808,-13.97451 -3.16075,-23.18017c6.75,-22.37342 17.24002,-28.95128 47.45,-28.95128c30.20998,0 44.7,7.57787 48.7,29.20129z" fill="url(#color-26)" stroke="none" stroke-width="0"/><path d="M211.97532,223.6104c0,0 0.78569,-38.43134 -1.5414,-53.1194c-1.58829,-10.02495 -11.07203,-23.20604 -11.07203,-23.20604c0,0 27.85125,-8.13816 41.79315,-8.03778c13.66885,0.09841 41.05529,8.63429 41.05529,8.63429c0,0 -10.95755,11.41446 -12.57961,20.82309c-2.51472,14.5865 -1.04291,54.90584 -1.04291,54.90584z" fill="#191919" stroke="none" stroke-width="0"/><g stroke="none"><path d="M239.01653,158.23644c0.387,-0.258 0.726,-0.276 0.99914,-0.19688l-0.00858,-1.08384c0,0 0,-1.25 1.25,-1.25c1.25,0 1.25,1.25 1.25,1.25l-0.01208,1.18042c0.13808,0.48328 0.25467,1.03169 0.33482,1.6114l0.20936,0.73276c0.20444,0.71659 0.35695,1.43299 0.47071,2.14903c2.04601,4.40114 1.51283,10.23259 1.5101,14.88335c-0.01214,0.13091 -0.02466,0.26168 -0.03752,0.39233c1.40606,3.38903 3.46865,6.64075 3.71097,10.30372c0.23761,3.59174 -2.18062,6.6089 -1.75026,10.15446c0.16855,1.38863 3.59579,6.91729 4.99357,5.7349c1.24083,-1.26894 3.10771,-2.66384 3.57571,-4.49492c0.44099,-1.72541 -0.76171,-3.69433 -0.98846,-5.34216c-0.11819,-0.85896 0.12405,-3.87206 0.21094,-4.31069c0.50421,-2.54544 2.55455,-4.41187 3.81705,-6.55147c0.05316,-0.09009 0.10522,-0.17993 0.1562,-0.26952c-0.3771,-2.92694 -1.17311,-5.78693 -2.54478,-8.46144c-1.27437,-3.39293 -3.7698,-7.54429 -2.35975,-11.34175c2.14772,-5.78412 8.76747,-6.07824 13.73088,-7.74411c0.26672,-0.08952 0.52853,-0.17481 0.78645,-0.25426c0.13511,-0.05015 0.26988,-0.09771 0.40411,-0.14263c0.27175,-0.09094 0.54887,-0.1536 0.83017,-0.19229c1.64225,-0.37197 3.18954,-0.37403 4.94531,0.45802c0,0 0.39819,0.1991 0.60048,0.59729c0.87126,0.28052 1.71463,0.53229 2.49846,0.6371c0,0 1.23744,0.17678 1.06066,1.41421c-0.17678,1.23744 -1.41421,1.06066 -1.41421,1.06066c-1.84012,-0.27612 -5.16268,-2.09277 -7.26383,-1.73066c-0.18595,0.04924 -0.37278,0.10436 -0.56099,0.16315c-2.71287,1.09177 -6.23679,3.3513 -6.61462,6.46185c-0.31543,2.59677 0.76505,5.21758 0.78106,7.79298c0,4.23029 -0.32939,7.78208 -2.17327,11.50881c1.40488,9.79989 -1.55464,20.19407 -9.77723,26.0724c-4.28175,2.4128 -6.69066,-3.19833 -8.71778,-6.33875c-4.60353,-7.1318 -1.35215,-16.9343 -0.48004,-24.85583c-0.16486,-0.40552 -0.31749,-0.81138 -0.45284,-1.21799c-0.82746,-3.77572 -0.38512,-7.54573 -0.62269,-11.32897c-0.4992,0.32699 -1.06015,0.59983 -1.31231,1.11649c-0.48168,0.98695 -0.18233,2.78043 -0.25803,3.6198c-0.20995,2.32791 -1.38273,4.14389 -1.34771,6.4524c0,2.46471 1.10677,7.75887 -0.62274,9.82065c-0.49113,0.58548 -1.11649,0.90726 -1.81492,1.02829c-1.50189,1.1966 -3.647,1.71497 -3.96034,3.85426c-0.47608,3.25039 2.67311,3.98941 3.61195,6.52165c1.06808,2.88083 0.0099,6.12967 -2.55374,7.57121c-5.06139,3.63512 -12.84597,2.07044 -13.78521,-5.06607c-0.3396,-2.58029 2.92356,-6.85017 1.8284,-9.1335c-1.10883,-2.31184 -3.54967,-4.19269 -4.78223,-6.65751c-2.20605,-3.92074 -0.87157,-8.28686 -1.48556,-12.57375c-0.48866,-3.41179 -1.79318,-6.64183 -3.01538,-9.77864c-0.73318,-1.88172 -1.24593,-4.6668 -3.50915,-5.00643c-0.3671,0.20155 -0.74606,0.41048 -1.15917,0.61773c0,0 -1.11803,0.55901 -1.67705,-0.55902c-0.55901,-1.11803 0.55901,-1.67705 0.55901,-1.67705c0.12047,-0.06002 0.24291,-0.11956 0.36715,-0.17852c0.28788,-0.72704 1.15886,-0.72704 1.15886,-0.72704c0.16115,0.00661 0.31768,0.01739 0.46977,0.03224c5.17062,-1.96916 12.14052,-2.44125 13.71075,4.63285c0.80555,3.62914 -0.90963,6.14223 2.05016,9.12947c3.06259,1.73713 5.05706,4.22851 5.51028,7.80303c0.2472,1.94967 -0.31678,3.87476 0.79214,5.68835c0.51307,0.83911 1.10609,1.19761 1.92924,1.72797c0.19028,0.12259 1.82367,0.85807 2.86465,1.18848c0.88336,-2.78587 -0.31419,-6.74026 -0.90509,-9.41435c-0.30788,-3.04528 -1.51287,-7.1291 -0.75596,-10.15528c0.53497,-2.13884 2.36504,-4.65675 3.73747,-6.31502l0.03564,-0.14558c0,0 0.54762,-1.09523 1.64284,-0.57568c0.08275,-0.10135 0.19052,-0.19983 0.32901,-0.29216zM243.2807,194.28179c0,2.07989 -0.21701,4.26828 0.8202,6.18124c1.12913,2.0825 2.65265,3.95604 4.12263,5.79599c0.85145,1.06575 0.93292,2.1595 1.99348,1.11217c0.37797,-0.26973 0.74731,-0.55511 1.10915,-0.85256c-2.90041,-0.15922 -5.04372,-3.3478 -6.36003,-6.08537c-1.99996,-4.15938 1.50956,-7.94741 1.23216,-12.06918c-0.13467,-2.00111 -0.8992,-3.9342 -1.78187,-5.84225c-0.53782,3.89314 -1.13572,7.7485 -1.13572,11.75996zM258.43381,194.39742c0.36178,-2.41124 0.57255,-4.88039 0.54269,-7.33969c-0.81247,1.0679 -1.57291,2.18237 -1.80058,3.43273c-0.41797,2.29548 0.47535,4.50011 0.81827,6.6939c0.18793,-0.98054 0.31374,-1.94794 0.43962,-2.78695zM256.17321,164.12323c-1.17016,3.07489 1.26964,6.84183 2.28183,9.54538c0.80868,1.65296 1.47387,3.3891 1.98958,5.17441c0.55214,-2.20137 0.64301,-4.4348 0.64301,-6.99555c0.02084,-2.67238 -1.11255,-5.35029 -0.76613,-8.06577c0.19964,-1.56497 0.94412,-3.01922 1.99849,-4.28648c-2.67983,0.78828 -5.14418,1.99344 -6.14677,4.62802zM239.51682,161.22939l-0.43636,-0.64889l-0.15087,0.26984c-1.1381,1.35483 -2.78508,3.52837 -3.22491,5.28894c-0.57857,2.31596 0.25139,5.53939 0.64926,8.09974c0.35339,-1.31887 0.82656,-2.57439 0.95165,-4.06192c0.15429,-1.83487 -0.32988,-2.82077 0.51557,-4.50297c0.4564,-0.90813 1.62972,-1.26245 2.22077,-2.08929c0.22836,-0.31947 0.35802,-0.74637 0.41854,-1.22421c-0.27821,-0.40061 -0.59136,-0.77895 -0.94365,-1.13123zM214.17565,161.50574c1.2836,3.30729 2.65893,6.74206 3.1734,10.33489c0.55298,3.86176 -0.79176,8.33419 1.22203,11.79456c1.20953,2.41933 3.96533,4.50643 4.88774,6.88045c1.30636,3.36219 -2.09283,6.5852 -1.65278,9.81964c0.72875,5.35644 6.44499,5.82071 9.98521,3.21023c4.50555,-2.05462 -0.45038,-5.99697 -1.52617,-8.14631c-0.3854,-0.77 -0.80507,-3.49293 -0.68571,-4.21666c0.19666,-1.19242 1.22705,-2.85689 2.1718,-3.66072c0.20367,-0.17329 0.44874,-0.31563 0.71171,-0.44625c-1.93075,-0.86859 -3.72768,-2.37301 -4.4557,-3.55119c-1.84761,-2.99007 -0.39206,-6.52049 -1.97544,-9.5496c-0.79962,-1.52973 -2.28093,-2.43732 -3.71291,-3.26134c-1.33676,-1.32875 -2.50034,-2.69904 -2.97822,-4.60188c-0.47636,-1.89676 0.36966,-4.09062 0,-5.99538c-0.71609,-3.68986 -5.16104,-4.60516 -8.11688,-3.88843c1.43257,1.23099 2.14342,3.19479 2.95193,5.27799z" fill="#303030" stroke-width="0.5"/><path d="M233.87936,226.62371v-73.28108h13.09368v73.28108z" fill="url(#color-27)" stroke-width="0"/><path d="M201.19488,159.32074v-5.97811h78.46265v5.97811z" fill="url(#color-28)" stroke-width="0"/><path d="M212.60544,162.02834v-11.39329h55.64153v11.39329z" fill="url(#color-29)" stroke-width="0"/></g><g data-paper-data="{&quot;index&quot;:null}" stroke="none" stroke-width="0"><path d="M103.23568,174.4636c-3.95034,0.40862 -3.38178,-5.93206 -1.08745,-9.96099c2.29433,-4.02893 4.96539,-9.01317 7.58241,-7.36302c2.73449,1.72422 0.69952,4.72359 -1.5948,8.75253c-2.29433,4.02893 -1.48224,7.12368 -4.90016,8.57148z" fill="url(#color-30)"/><path d="M94.52632,170.58198c-3.70608,-1.4273 -0.32383,-6.82062 3.54812,-9.37094c3.87195,-2.55033 8.51293,-5.78123 10.097,-3.1237c1.65519,2.77681 -1.5187,4.52717 -5.39066,7.07749c-3.87195,2.55033 -4.55165,5.67683 -8.25447,5.41716z" fill="url(#color-31)"/><path d="M88.37866,161.80901c-2.27907,-3.25239 3.53708,-5.84078 8.17327,-5.79667c4.63619,0.04411 10.2903,-0.04746 10.12199,3.04179c-0.17586,3.22792 -3.78639,2.90945 -8.42258,2.86534c-4.63619,-0.04411 -6.94478,2.17115 -9.87268,-0.11046z" fill="url(#color-32)"/><path d="M101.5799,159.37549c-0.06573,-5.00826 4.65086,-4.07652 10.33964,-4.0224c5.68877,0.05413 10.47281,-0.10373 10.26122,4.21841c-0.22108,4.51616 -4.65086,4.07652 -10.33964,4.0224c-5.68877,-0.05413 -10.20064,0.39865 -10.26122,-4.21841z" fill="url(#color-33)"/><path d="M111.50756,166.0323c-1.85289,-4.25006 -3.55737,-7.44882 -0.65503,-8.87249c2.77765,-1.3625 4.90356,3.87753 6.75645,8.12759c1.85289,4.25006 1.74397,10.61525 -2.14052,9.78886c-3.24458,-1.80306 -2.108,-4.79391 -3.9609,-9.04397z" data-paper-data="{&quot;index&quot;:null}" fill="url(#color-34)"/></g><g data-paper-data="{&quot;index&quot;:null}" stroke="none" stroke-width="0"><path d="M373.34556,165.89211c-2.29432,-4.02894 -4.32929,-7.02831 -1.5948,-8.75253c2.61702,-1.65015 5.28808,3.33409 7.58241,7.36302c2.29433,4.02893 2.86289,10.36961 -1.08745,9.96099c-3.41792,-1.4478 -2.60583,-4.54255 -4.90016,-8.57148z" fill="url(#color-35)"/><path d="M386.95509,170.58199c-3.70282,0.25967 -4.38252,-2.86683 -8.25447,-5.41716c-3.87196,-2.55032 -7.04585,-4.30068 -5.39066,-7.07749c1.58407,-2.65753 6.22505,0.57337 10.097,3.1237c3.87195,2.55032 7.2542,7.94364 3.54812,9.37094z" fill="url(#color-36)"/><path d="M383.23006,161.91948c-4.63619,0.04411 -8.24672,0.36258 -8.42258,-2.86534c-0.16831,-3.08925 5.4858,-2.99768 10.12199,-3.04179c4.63619,-0.04411 10.45234,2.54428 8.17327,5.79667c-2.9279,2.28161 -5.23649,0.06635 -9.87268,0.11046z" fill="url(#color-37)"/><path d="M369.64028,163.5939c-5.68878,0.05412 -10.11856,0.49376 -10.33964,-4.0224c-0.21159,-4.32214 4.57245,-4.16428 10.26122,-4.21841c5.68878,-0.05412 10.40537,-0.98586 10.33964,4.0224c-0.06058,4.61706 -4.57245,4.16428 -10.26122,4.21841z" fill="url(#color-38)"/><path d="M369.97384,166.03229c-1.8529,4.25006 -0.71632,7.24091 -3.9609,9.04397c-3.88449,0.82639 -3.99341,-5.5388 -2.14052,-9.78886c1.85289,-4.25006 3.9788,-9.49009 6.75645,-8.12759c2.90234,1.42367 1.19786,4.62243 -0.65503,8.87249z" data-paper-data="{&quot;index&quot;:null}" fill="url(#color-39)"/></g><g stroke="none" stroke-width="0"><path d="M158.66017,170.04659c-5.47651,-0.04949 -9.87678,-4.43874 -9.82829,-9.80364c0.04848,-5.36491 4.52737,-9.6739 10.00387,-9.62441c5.47651,0.04949 9.87677,4.43873 9.82829,9.80364c-0.04848,5.36491 -4.52737,9.6739 -10.00387,9.62442z" fill="url(#color-40)"/><path d="M119.953,151.76154l38.71794,-1.8918l-0.19077,21.10933l-38.61662,-2.7775z" fill="url(#color-41)"/></g><g data-paper-data="{&quot;index&quot;:null}" stroke="none" stroke-width="0"><path d="M322.82123,170.0466c-5.4765,0.04948 -9.95539,-4.25951 -10.00387,-9.62442c-0.04848,-5.36491 4.35178,-9.75415 9.82829,-9.80364c5.4765,-0.04949 9.95539,4.2595 10.00387,9.62441c0.04849,5.3649 -4.35178,9.75415 -9.82829,9.80364z" fill="url(#color-42)"/><path d="M361.61785,168.20157l-38.61662,2.7775l-0.19077,-21.10933l38.71794,1.8918z" fill="url(#color-43)"/></g><g stroke="none" stroke-width="0"><path d="M201.06348,170.02227c-5.4767,0.01863 -9.93123,-4.31554 -9.94948,-9.68064c-0.01825,-5.3651 4.40669,-9.72947 9.88339,-9.7481c5.4767,-0.01863 9.93123,4.31554 9.94948,9.68064c0.01825,5.3651 -4.40669,9.72947 -9.88338,9.74809z" fill="url(#color-44)"/><path d="M162.15263,149.97841l38.67066,-0.13155l0.07181,21.11007l-38.67066,0.13155z" fill="url(#color-45)"/></g><g data-paper-data="{&quot;index&quot;:null}" stroke="none" stroke-width="0"><path d="M280.41791,170.02226c-5.47669,-0.01862 -9.90163,-4.38299 -9.88338,-9.74809c0.01825,-5.3651 4.47278,-9.69927 9.94948,-9.68064c5.4767,0.01863 9.90164,4.383 9.88339,9.7481c-0.01825,5.3651 -4.47278,9.69927 -9.94948,9.68064z" fill="url(#color-46)"/><path d="M319.25696,171.08848l-38.67066,-0.13155l0.07181,-21.11007l38.67066,0.13155z" fill="url(#color-47)"/></g><g stroke="none" stroke-width="0"><path d="M234.50444,282.08124c-0.00142,5.47673 -4.35187,9.91536 -9.717,9.91397c-5.36514,-0.0014 -9.71327,-4.44228 -9.71185,-9.91901c0.00142,-5.47673 4.35186,-9.91536 9.717,-9.91397c5.36514,0.0014 9.71327,4.44228 9.71185,9.919z" fill="url(#color-48)"/><path d="M214.31827,320.91848l0.01001,-38.67088l21.1102,0.00547l-0.01002,38.67087z" fill="url(#color-49)"/></g><g data-paper-data="{&quot;index&quot;:null}" stroke="none" stroke-width="0"><path d="M246.13849,282.08123c-0.00142,-5.47672 4.34671,-9.9176 9.71185,-9.919c5.36514,-0.00139 9.71558,4.43724 9.717,9.91397c0.00142,5.47673 -4.34671,9.91761 -9.71185,9.91901c-5.36513,0.00139 -9.71558,-4.43724 -9.717,-9.91397z" fill="url(#color-50)"/><path d="M245.21447,320.92393l-0.01002,-38.67087l21.1102,-0.00547l0.01001,38.67088z" fill="url(#color-51)"/></g><g stroke="none" stroke-width="0"><path d="M234.50444,240.61898c-0.00142,5.47673 -4.35187,9.91536 -9.717,9.91397c-5.36514,-0.0014 -9.71327,-4.44228 -9.71185,-9.91901c0.00142,-5.47673 4.35186,-9.91536 9.717,-9.91397c5.36514,0.0014 9.71327,4.44228 9.71185,9.919z" fill="url(#color-52)"/><path d="M214.31827,279.45622l0.01001,-38.67088l21.1102,0.00547l-0.01002,38.67087z" fill="url(#color-53)"/></g><g data-paper-data="{&quot;index&quot;:null}" stroke="none" stroke-width="0"><path d="M246.13849,240.61897c-0.00142,-5.47672 4.34671,-9.9176 9.71185,-9.919c5.36514,-0.00139 9.71558,4.43724 9.717,9.91397c0.00142,5.47673 -4.34671,9.91761 -9.71185,9.91901c-5.36513,0.00139 -9.71558,-4.43724 -9.717,-9.91397z" fill="url(#color-54)"/><path d="M245.21447,279.46168l-0.01002,-38.67087l21.1102,-0.00547l0.01001,38.67088z" fill="url(#color-55)"/></g><path d="M237.20548,320.62501c0,8.62945 -39.5,8.62945 -39.5,0c0,-8.62945 7.4936,-15.625 18.40122,-15.625c10.90762,0 21.09878,6.99555 21.09878,15.625z" fill="url(#color-56)" stroke="#000000" stroke-width="0"/><path d="M264.53623,305.00001c10.90762,0 18.40122,6.99555 18.40122,15.625c0,8.62945 -39.5,8.62945 -39.5,0c0,-8.62945 10.19116,-15.625 21.09878,-15.625z" data-paper-data="{&quot;index&quot;:null}" fill="url(#color-57)" stroke="#000000" stroke-width="0"/><path d="M212.19059,223.77185c0,-8.33496 56.23157,-8.33496 56.23157,0c0,8.33496 -12.58786,15.09178 -28.11578,15.09178c-15.52791,0 -28.11578,-6.75682 -28.11578,-15.09178z" fill="url(#color-58)" stroke="none" stroke-width="0"/><g><g><path d="M211.84156,223.43337c0,0 0.9725,-38.61816 -1.35459,-53.30621c-1.58829,-10.02495 -11.07203,-22.8083 -11.07203,-22.8083c0,0 27.85125,-8.5359 41.79315,-8.43552c13.66885,0.09841 41.05528,9.03203 41.05528,9.03203c0,0 -10.95755,11.01672 -12.57961,20.42535c-2.51472,14.5865 -0.85609,55.09265 -0.85609,55.09265l23.08304,27.91544c0,0 3.16273,11.82727 -51.38355,12.16952c-52.39678,-0.65245 -53.25322,-11.83496 -53.25322,-11.83496z" fill="url(#color-59)" stroke="none" stroke-width="0"/><path d="" fill="#ffdf00" stroke="#ffdf00" stroke-width="2"/></g><g><path d="M211.72215,216.81567l0.05198,-17.24167l56.52473,-0.00264l0.38371,17.49594z" fill="url(#color-60)" stroke="none" stroke-width="0"/><path d="" fill="#ffdf00" stroke="#ffdf00" stroke-width="2"/></g></g></g></g></svg>