<svg version="1.1" xmlns="http://www.w3.org/2000/svg" xmlns:xlink="http://www.w3.org/1999/xlink" width="710.72457" height="427.09875" viewBox="0,0,710.72457,427.09875"><defs><linearGradient x1="331.58003" y1="141.94436" x2="338.78333" y2="153.62042" gradientUnits="userSpaceOnUse" id="color-1"><stop offset="0" stop-color="#c5c5c5"/><stop offset="1" stop-color="#5d5d5d"/></linearGradient><linearGradient x1="286.08833" y1="124.84966" x2="290.31203" y2="131.696" gradientUnits="userSpaceOnUse" id="color-2"><stop offset="0" stop-color="#c5c5c5"/><stop offset="1" stop-color="#5d5d5d"/></linearGradient><linearGradient x1="315.2016" y1="112.47317" x2="318.35597" y2="117.58619" gradientUnits="userSpaceOnUse" id="color-3"><stop offset="0" stop-color="#c5c5c5"/><stop offset="1" stop-color="#5d5d5d"/></linearGradient><linearGradient x1="303.3327" y1="120.97153" x2="325.75471" y2="157.31611" gradientUnits="userSpaceOnUse" id="color-4"><stop offset="0" stop-color="#a3a3a3"/><stop offset="1" stop-color="#1a1a1a"/></linearGradient><linearGradient x1="298.93613" y1="113.1192" x2="327.10003" y2="158.77093" gradientUnits="userSpaceOnUse" id="color-5"><stop offset="0" stop-color="#c5c5c5"/><stop offset="1" stop-color="#5d5d5d"/></linearGradient><linearGradient x1="299.28414" y1="116.67026" x2="323.79302" y2="156.39748" gradientUnits="userSpaceOnUse" id="color-6"><stop offset="0" stop-color="#b9b9b9"/><stop offset="1" stop-color="#5c5c5c"/></linearGradient><linearGradient x1="325.0574" y1="156.01762" x2="298.58449" y2="113.10682" gradientUnits="userSpaceOnUse" id="color-7"><stop offset="0" stop-color="#5d5d5d"/><stop offset="1" stop-color="#a1a1a1"/></linearGradient><linearGradient x1="325.0574" y1="156.01762" x2="298.58449" y2="113.10682" gradientUnits="userSpaceOnUse" id="color-8"><stop offset="0" stop-color="#c5c5c5"/><stop offset="1" stop-color="#5d5d5d"/></linearGradient><linearGradient x1="298.93613" y1="113.1192" x2="327.10003" y2="158.77093" gradientUnits="userSpaceOnUse" id="color-9"><stop offset="0" stop-color="#c5c5c5"/><stop offset="1" stop-color="#5d5d5d"/></linearGradient><linearGradient x1="306.05465" y1="139.7848" x2="306.75235" y2="139.35437" gradientUnits="userSpaceOnUse" id="color-10"><stop offset="0" stop-color="#cdcdcd"/><stop offset="1" stop-color="#444444"/></linearGradient><linearGradient x1="318.88447" y1="131.86972" x2="319.58216" y2="131.43929" gradientUnits="userSpaceOnUse" id="color-11"><stop offset="0" stop-color="#cdcdcd"/><stop offset="1" stop-color="#444444"/></linearGradient><linearGradient x1="310.82682" y1="132.29599" x2="311.58232" y2="133.52061" gradientUnits="userSpaceOnUse" id="color-12"><stop offset="0" stop-color="#cdcdcd"/><stop offset="1" stop-color="#444444"/></linearGradient><radialGradient cx="317.63239" cy="129.07163" r="3.54599" gradientUnits="userSpaceOnUse" id="color-13"><stop offset="0" stop-color="#ffffff"/><stop offset="1" stop-color="#939393"/></radialGradient><radialGradient cx="317.48227" cy="127.2071" r="3.54598" gradientUnits="userSpaceOnUse" id="color-14"><stop offset="0" stop-color="#b9b097"/><stop offset="1" stop-color="#827c69"/></radialGradient><linearGradient x1="319.0648" y1="145.91797" x2="319.47507" y2="146.583" gradientUnits="userSpaceOnUse" id="color-15"><stop offset="0" stop-color="#a0a0a0"/><stop offset="1" stop-color="#696969"/></linearGradient><linearGradient x1="317.13114" y1="137.98995" x2="321.72427" y2="145.43513" gradientUnits="userSpaceOnUse" id="color-16"><stop offset="0" stop-color="#cdcdcd"/><stop offset="1" stop-color="#444444"/></linearGradient><linearGradient x1="312.93482" y1="140.54387" x2="317.52795" y2="147.98905" gradientUnits="userSpaceOnUse" id="color-17"><stop offset="0" stop-color="#cdcdcd"/><stop offset="1" stop-color="#444444"/></linearGradient><linearGradient x1="318.97521" y1="145.64998" x2="322.83306" y2="151.90329" gradientUnits="userSpaceOnUse" id="color-18"><stop offset="0" stop-color="#6e6e6e"/><stop offset="1" stop-color="#969696"/></linearGradient><linearGradient x1="313.17744" y1="135.05801" x2="316.15454" y2="139.8837" gradientUnits="userSpaceOnUse" id="color-19"><stop offset="0" stop-color="#cdcdcd"/><stop offset="1" stop-color="#444444"/></linearGradient><linearGradient x1="304.15442" y1="135.49515" x2="311.04404" y2="146.66277" gradientUnits="userSpaceOnUse" id="color-20"><stop offset="0" stop-color="#c5c5c5"/><stop offset="1" stop-color="#5d5d5d"/></linearGradient><linearGradient x1="304.06976" y1="135.76406" x2="310.71791" y2="146.54027" gradientUnits="userSpaceOnUse" id="color-21"><stop offset="0" stop-color="#c5c5c5"/><stop offset="1" stop-color="#5d5d5d"/></linearGradient><radialGradient cx="310.45658" cy="147.62607" r="3.54598" gradientUnits="userSpaceOnUse" id="color-22"><stop offset="0" stop-color="#ffffff"/><stop offset="1" stop-color="#939393"/></radialGradient><radialGradient cx="304.69122" cy="135.09828" r="3.54599" gradientUnits="userSpaceOnUse" id="color-23"><stop offset="0" stop-color="#b9b097"/><stop offset="1" stop-color="#827c69"/></radialGradient><linearGradient x1="298.50138" y1="115.11638" x2="316.47285" y2="144.24688" gradientUnits="userSpaceOnUse" id="color-24"><stop offset="0" stop-color="#afafaf"/><stop offset="1" stop-color="#515151"/></linearGradient><linearGradient x1="305.96706" y1="126.20415" x2="317.23506" y2="144.46881" gradientUnits="userSpaceOnUse" id="color-25"><stop offset="0" stop-color="#afafaf"/><stop offset="1" stop-color="#4b4b4b"/></linearGradient><linearGradient x1="298.93613" y1="113.1192" x2="327.10003" y2="158.77093" gradientUnits="userSpaceOnUse" id="color-26"><stop offset="0" stop-color="#c5c5c5"/><stop offset="1" stop-color="#5d5d5d"/></linearGradient><linearGradient x1="239.21288" y1="226.4088" x2="239.21288" y2="367.54995" gradientUnits="userSpaceOnUse" id="color-27"><stop offset="0" stop-color="#000000"/><stop offset="1" stop-color="#c2c2c2"/></linearGradient><linearGradient x1="386.47436" y1="150.97747" x2="380.48974" y2="150.97747" gradientUnits="userSpaceOnUse" id="color-28"><stop offset="0" stop-color="#242424"/><stop offset="1" stop-color="#373737"/></linearGradient><linearGradient x1="433.97739" y1="150.97747" x2="427.99279" y2="150.97747" gradientUnits="userSpaceOnUse" id="color-29"><stop offset="0" stop-color="#242424"/><stop offset="1" stop-color="#373737"/></linearGradient><linearGradient x1="433.97739" y1="187.25183" x2="433.97739" y2="253.53622" gradientUnits="userSpaceOnUse" id="color-30"><stop offset="0" stop-color="#393939"/><stop offset="1" stop-color="#8b8b8b"/></linearGradient><linearGradient x1="433.97739" y1="131.14577" x2="433.97739" y2="186.95714" gradientUnits="userSpaceOnUse" id="color-31"><stop offset="0" stop-color="#393939"/><stop offset="1" stop-color="#8b8b8b"/></linearGradient><linearGradient x1="433.97739" y1="75.03978" x2="433.97739" y2="113.64529" gradientUnits="userSpaceOnUse" id="color-32"><stop offset="0" stop-color="#393939"/><stop offset="1" stop-color="#8b8b8b"/></linearGradient><linearGradient x1="482.97666" y1="195.48826" x2="488.96131" y2="195.48826" gradientUnits="userSpaceOnUse" id="color-33"><stop offset="0" stop-color="#494949"/><stop offset="1" stop-color="#6d6d6d"/></linearGradient><linearGradient x1="435.47356" y1="195.48826" x2="441.4582" y2="195.48826" gradientUnits="userSpaceOnUse" id="color-34"><stop offset="0" stop-color="#494949"/><stop offset="1" stop-color="#6d6d6d"/></linearGradient><linearGradient x1="462.48972" y1="216.02322" x2="469.81244" y2="216.02322" gradientUnits="userSpaceOnUse" id="color-35"><stop offset="0" stop-color="#494949"/><stop offset="1" stop-color="#6d6d6d"/></linearGradient><linearGradient x1="520.61386" y1="216.02322" x2="527.93657" y2="216.02322" gradientUnits="userSpaceOnUse" id="color-36"><stop offset="0" stop-color="#494949"/><stop offset="1" stop-color="#6d6d6d"/></linearGradient><linearGradient x1="527.93657" y1="289.40801" x2="527.93657" y2="370.51301" gradientUnits="userSpaceOnUse" id="color-37"><stop offset="0" stop-color="#787878"/><stop offset="1" stop-color="#a9a9a9"/></linearGradient><linearGradient x1="527.93657" y1="217.75737" x2="527.93657" y2="286.04742" gradientUnits="userSpaceOnUse" id="color-38"><stop offset="0" stop-color="#787878"/><stop offset="1" stop-color="#a9a9a9"/></linearGradient><linearGradient x1="527.93657" y1="139.10664" x2="527.93657" y2="186.34389" gradientUnits="userSpaceOnUse" id="color-39"><stop offset="0" stop-color="#787878"/><stop offset="1" stop-color="#a9a9a9"/></linearGradient><linearGradient x1="587.89154" y1="270.486" x2="595.21427" y2="270.486" gradientUnits="userSpaceOnUse" id="color-40"><stop offset="0" stop-color="#494949"/><stop offset="1" stop-color="#6d6d6d"/></linearGradient><linearGradient x1="529.76726" y1="270.486" x2="537.08999" y2="270.486" gradientUnits="userSpaceOnUse" id="color-41"><stop offset="0" stop-color="#494949"/><stop offset="1" stop-color="#6d6d6d"/></linearGradient><linearGradient x1="299.36503" y1="237.82145" x2="339.47313" y2="237.82145" gradientUnits="userSpaceOnUse" id="color-42"><stop offset="0" stop-color="#675b4e"/><stop offset="1" stop-color="#877867"/></linearGradient><linearGradient x1="350.86521" y1="180.82219" x2="350.86521" y2="215.00237" gradientUnits="userSpaceOnUse" id="color-43"><stop offset="0" stop-color="#443d34"/><stop offset="1" stop-color="#988672"/></linearGradient><linearGradient x1="309.00651" y1="176.77462" x2="337.71189" y2="176.77462" gradientUnits="userSpaceOnUse" id="color-44"><stop offset="0" stop-color="#675b4e"/><stop offset="1" stop-color="#877867"/></linearGradient><linearGradient x1="345.8652" y1="135.98022" x2="345.8652" y2="160.44296" gradientUnits="userSpaceOnUse" id="color-45"><stop offset="0" stop-color="#443d34"/><stop offset="1" stop-color="#988672"/></linearGradient><linearGradient x1="93.22974" y1="150.97747" x2="99.21436" y2="150.97747" gradientUnits="userSpaceOnUse" id="color-46"><stop offset="0" stop-color="#242424"/><stop offset="1" stop-color="#373737"/></linearGradient><linearGradient x1="45.7267" y1="150.97747" x2="51.7113" y2="150.97747" gradientUnits="userSpaceOnUse" id="color-47"><stop offset="0" stop-color="#242424"/><stop offset="1" stop-color="#373737"/></linearGradient><linearGradient x1="45.72667" y1="187.25183" x2="45.72667" y2="253.53622" gradientUnits="userSpaceOnUse" id="color-48"><stop offset="0" stop-color="#393939"/><stop offset="1" stop-color="#8b8b8b"/></linearGradient><linearGradient x1="45.72667" y1="131.14577" x2="45.72667" y2="186.95714" gradientUnits="userSpaceOnUse" id="color-49"><stop offset="0" stop-color="#393939"/><stop offset="1" stop-color="#8b8b8b"/></linearGradient><linearGradient x1="45.72667" y1="75.03978" x2="45.72667" y2="113.64529" gradientUnits="userSpaceOnUse" id="color-50"><stop offset="0" stop-color="#393939"/><stop offset="1" stop-color="#8b8b8b"/></linearGradient><linearGradient x1="-3.27258" y1="195.48826" x2="-9.25725" y2="195.48826" gradientUnits="userSpaceOnUse" id="color-51"><stop offset="0" stop-color="#494949"/><stop offset="1" stop-color="#6d6d6d"/></linearGradient><linearGradient x1="88.15119" y1="67.95503" x2="69.54537" y2="68.30964" gradientUnits="userSpaceOnUse" id="color-52"><stop offset="0" stop-color="#28241f"/><stop offset="1" stop-color="#877867"/></linearGradient><linearGradient x1="63.75675" y1="41.96882" x2="64.05892" y2="57.82475" gradientUnits="userSpaceOnUse" id="color-53"><stop offset="0" stop-color="#1a1713"/><stop offset="1" stop-color="#988672"/></linearGradient><linearGradient x1="21.53108" y1="173.09149" x2="21.53108" y2="198.80546" gradientUnits="userSpaceOnUse" id="color-54"><stop offset="0" stop-color="#f1f1f1"/><stop offset="1" stop-color="#b9b9b9"/></linearGradient><linearGradient x1="44.23052" y1="195.48826" x2="38.24587" y2="195.48826" gradientUnits="userSpaceOnUse" id="color-55"><stop offset="0" stop-color="#494949"/><stop offset="1" stop-color="#6d6d6d"/></linearGradient><linearGradient x1="17.21433" y1="216.02322" x2="9.89159" y2="216.02322" gradientUnits="userSpaceOnUse" id="color-56"><stop offset="0" stop-color="#494949"/><stop offset="1" stop-color="#6d6d6d"/></linearGradient><linearGradient x1="-40.90988" y1="216.02322" x2="-48.2326" y2="216.02322" gradientUnits="userSpaceOnUse" id="color-57"><stop offset="0" stop-color="#494949"/><stop offset="1" stop-color="#6d6d6d"/></linearGradient><linearGradient x1="-48.23259" y1="289.40801" x2="-48.23259" y2="370.51301" gradientUnits="userSpaceOnUse" id="color-58"><stop offset="0" stop-color="#787878"/><stop offset="1" stop-color="#a9a9a9"/></linearGradient><linearGradient x1="-48.23259" y1="217.75737" x2="-48.23259" y2="286.04742" gradientUnits="userSpaceOnUse" id="color-59"><stop offset="0" stop-color="#787878"/><stop offset="1" stop-color="#a9a9a9"/></linearGradient><linearGradient x1="-48.23259" y1="139.10664" x2="-48.23259" y2="186.34389" gradientUnits="userSpaceOnUse" id="color-60"><stop offset="0" stop-color="#787878"/><stop offset="1" stop-color="#a9a9a9"/></linearGradient><linearGradient x1="-108.18754" y1="270.486" x2="-115.51028" y2="270.486" gradientUnits="userSpaceOnUse" id="color-61"><stop offset="0" stop-color="#494949"/><stop offset="1" stop-color="#6d6d6d"/></linearGradient><linearGradient x1="-50.06327" y1="270.486" x2="-57.38601" y2="270.486" gradientUnits="userSpaceOnUse" id="color-62"><stop offset="0" stop-color="#494949"/><stop offset="1" stop-color="#6d6d6d"/></linearGradient><linearGradient x1="423.34073" y1="366.10242" x2="419.22429" y2="391.3168" gradientUnits="userSpaceOnUse" id="color-63"><stop offset="0" stop-color="#006b0d"/><stop offset="1" stop-color="#00c92b"/></linearGradient><linearGradient x1="334.65639" y1="350.77855" x2="330.22963" y2="377.89377" gradientUnits="userSpaceOnUse" id="color-64"><stop offset="0" stop-color="#000000"/><stop offset="1" stop-color="#9c9c9c"/></linearGradient><linearGradient x1="359.35421" y1="355.05483" x2="354.92745" y2="382.17006" gradientUnits="userSpaceOnUse" id="color-65"><stop offset="0" stop-color="#000000"/><stop offset="1" stop-color="#9c9c9c"/></linearGradient><linearGradient x1="386.46942" y1="359.48161" x2="382.04265" y2="386.59682" gradientUnits="userSpaceOnUse" id="color-66"><stop offset="0" stop-color="#000000"/><stop offset="1" stop-color="#9c9c9c"/></linearGradient><linearGradient x1="411.16722" y1="363.75797" x2="406.74048" y2="390.87314" gradientUnits="userSpaceOnUse" id="color-67"><stop offset="0" stop-color="#000000"/><stop offset="1" stop-color="#9c9c9c"/></linearGradient><linearGradient x1="435.7437" y1="367.28188" x2="431.31694" y2="394.39705" gradientUnits="userSpaceOnUse" id="color-68"><stop offset="0" stop-color="#000000"/><stop offset="1" stop-color="#9c9c9c"/></linearGradient><linearGradient x1="460.4415" y1="371.55814" x2="456.01476" y2="398.67331" gradientUnits="userSpaceOnUse" id="color-69"><stop offset="0" stop-color="#000000"/><stop offset="1" stop-color="#9c9c9c"/></linearGradient><linearGradient x1="487.5955" y1="375.74711" x2="483.16875" y2="402.86225" gradientUnits="userSpaceOnUse" id="color-70"><stop offset="0" stop-color="#000000"/><stop offset="1" stop-color="#9c9c9c"/></linearGradient><linearGradient x1="512.29329" y1="380.02337" x2="507.86657" y2="407.13853" gradientUnits="userSpaceOnUse" id="color-71"><stop offset="0" stop-color="#000000"/><stop offset="1" stop-color="#9c9c9c"/></linearGradient><linearGradient x1="155.82093" y1="216.97218" x2="149.84645" y2="216.97218" gradientUnits="userSpaceOnUse" id="color-72"><stop offset="0" stop-color="#494949"/><stop offset="1" stop-color="#6d6d6d"/></linearGradient><linearGradient x1="26.402" y1="215.47218" x2="20.42746" y2="215.47218" gradientUnits="userSpaceOnUse" id="color-73"><stop offset="0" stop-color="#494949"/><stop offset="1" stop-color="#6d6d6d"/></linearGradient><linearGradient x1="102.42386" y1="290.35701" x2="102.42386" y2="371.46195" gradientUnits="userSpaceOnUse" id="color-74"><stop offset="0" stop-color="#787878"/><stop offset="1" stop-color="#a9a9a9"/></linearGradient><linearGradient x1="102.42386" y1="218.70633" x2="102.42386" y2="286.99642" gradientUnits="userSpaceOnUse" id="color-75"><stop offset="0" stop-color="#787878"/><stop offset="1" stop-color="#a9a9a9"/></linearGradient><linearGradient x1="102.42386" y1="140.05562" x2="102.42386" y2="187.29285" gradientUnits="userSpaceOnUse" id="color-76"><stop offset="0" stop-color="#787878"/><stop offset="1" stop-color="#a9a9a9"/></linearGradient><linearGradient x1="2.10686" y1="247.43503" x2="-3.86763" y2="247.43503" gradientUnits="userSpaceOnUse" id="color-77"><stop offset="0" stop-color="#494949"/><stop offset="1" stop-color="#6d6d6d"/></linearGradient><linearGradient x1="61.43986" y1="296.95081" x2="87.51254" y2="296.95081" gradientUnits="userSpaceOnUse" id="color-78"><stop offset="0" stop-color="#675b4e"/><stop offset="1" stop-color="#877867"/></linearGradient><linearGradient x1="131.52587" y1="248.93503" x2="125.55138" y2="248.93503" gradientUnits="userSpaceOnUse" id="color-79"><stop offset="0" stop-color="#494949"/><stop offset="1" stop-color="#6d6d6d"/></linearGradient><linearGradient x1="323.45967" y1="216.97218" x2="329.43415" y2="216.97218" gradientUnits="userSpaceOnUse" id="color-80"><stop offset="0" stop-color="#494949"/><stop offset="1" stop-color="#6d6d6d"/></linearGradient><linearGradient x1="452.87864" y1="215.47218" x2="458.85315" y2="215.47218" gradientUnits="userSpaceOnUse" id="color-81"><stop offset="0" stop-color="#494949"/><stop offset="1" stop-color="#6d6d6d"/></linearGradient><linearGradient x1="376.8568" y1="290.35701" x2="376.8568" y2="371.46195" gradientUnits="userSpaceOnUse" id="color-82"><stop offset="0" stop-color="#787878"/><stop offset="1" stop-color="#a9a9a9"/></linearGradient><linearGradient x1="376.8568" y1="218.70633" x2="376.8568" y2="286.99642" gradientUnits="userSpaceOnUse" id="color-83"><stop offset="0" stop-color="#787878"/><stop offset="1" stop-color="#a9a9a9"/></linearGradient><linearGradient x1="376.8568" y1="140.05562" x2="376.8568" y2="187.29285" gradientUnits="userSpaceOnUse" id="color-84"><stop offset="0" stop-color="#787878"/><stop offset="1" stop-color="#a9a9a9"/></linearGradient><linearGradient x1="477.17378" y1="247.43503" x2="483.14828" y2="247.43503" gradientUnits="userSpaceOnUse" id="color-85"><stop offset="0" stop-color="#494949"/><stop offset="1" stop-color="#6d6d6d"/></linearGradient><linearGradient x1="347.75477" y1="248.93503" x2="353.72928" y2="248.93503" gradientUnits="userSpaceOnUse" id="color-86"><stop offset="0" stop-color="#494949"/><stop offset="1" stop-color="#6d6d6d"/></linearGradient></defs><g transform="translate(115.51028,18.80153)"><g data-paper-data="{&quot;isPaintingLayer&quot;:true}" fill-rule="nonzero" stroke-linejoin="miter" stroke-miterlimit="10" stroke-dasharray="" stroke-dashoffset="0" style="mix-blend-mode: normal"><path d="M-14.97932,260.45673v-279.25826h517.84985v279.25826c0,0 -187.35399,0 -276.37045,0c-83.2079,0 -241.4794,0 -241.4794,0z" fill="#000000" stroke="none" stroke-width="0" stroke-linecap="butt"/><g stroke-linecap="butt"><path d="M341.87731,151.25163c-0.03008,0.85341 -0.88349,0.82333 -0.88349,0.82333l-0.46206,-0.09154c-0.58664,0.18918 -1.14888,0.64844 -1.75994,0.56754c-1.35863,-0.17988 -1.25726,-1.95284 -2.40373,-2.38791c-0.7529,-0.28572 -1.65884,-0.124 -2.351,-0.61245c-1.24399,-0.87786 -1.029,-3.30927 -2.42299,-3.99615c-0.47924,-0.23613 -1.77543,-0.30955 -2.33041,-0.35892c0,0 -0.85043,-0.07737 -0.77306,-0.9278c0.07737,-0.85043 0.9278,-0.77305 0.9278,-0.77305c2.12011,0.19673 3.60128,0.51752 4.6228,2.53938c0.35241,0.69752 0.31824,1.70924 0.9756,2.13184c0.57468,0.36945 1.38213,0.14163 2.00612,0.4198c1.56007,0.69547 1.38112,2.70598 2.86327,1.81655l1.16778,-0.03411c0,0 0.85341,0.03008 0.82333,0.88349z" fill="url(#color-1)" stroke="none" stroke-width="0.5"/><path d="M280.00219,131.46885c-0.44835,-0.72677 0.27841,-1.17513 0.27841,-1.17513l0.57743,-0.35623c0.6028,-0.37188 1.29608,-0.62328 1.81416,-1.10625c1.18973,-1.10912 1.70472,-2.89933 3.12896,-3.80346c3.64162,-2.31175 8.53271,-1.99674 11.35847,1.29469c0,0 0.54664,0.65606 -0.10942,1.20269c-0.65605,0.54665 -1.20268,-0.10942 -1.20268,-0.10942c-2.23926,-2.79522 -6.22719,-2.66215 -9.14964,-0.93443c-0.82713,0.48899 -1.30157,1.66013 -1.85698,2.39791c-0.93838,1.24652 -1.79429,1.71481 -3.08614,2.51178l-0.57743,0.35623c0,0 -0.72676,0.44836 -1.17513,-0.2784z" fill="url(#color-2)" stroke="none" stroke-width="0.5"/><path d="M322.21563,108.90311c0.61124,0.59632 0.01491,1.20756 0.01491,1.20756l-0.7286,0.73767c-1.20281,0.67768 -0.93463,2.17177 -2.29826,2.74313c-0.43593,0.18266 -0.95534,-0.04966 -1.41704,0.05152c-0.51904,0.11375 -2.74623,1.4022 -3.01154,1.81886c-0.45425,0.71337 -0.32916,1.66405 -0.6006,2.46502c-0.36454,1.07572 -0.91079,2.08928 -1.50661,3.05627c0,0 -0.44953,0.72604 -1.17557,0.27651c-0.72604,-0.44952 -0.27651,-1.17557 -0.27651,-1.17557c1.05521,-1.69521 1.11653,-4.08531 2.17701,-5.62528c1.03728,-1.50628 3.62997,-2.08916 5.13786,-2.43702c0.58823,-0.13569 1.11031,-1.98488 1.90367,-2.50652l0.57372,-0.59724c0,0 0.59632,-0.61124 1.20756,-0.01492z" fill="url(#color-3)" stroke="none" stroke-width="0.5"/><path d="M317.52127,116.65978c-0.1039,0.8476 -0.95149,0.74371 -0.95149,0.74371l-0.35855,-0.12218c-0.36671,0.11351 -1.37188,0.13584 -2.18185,0.25666c0.32639,0.38295 0.09197,0.89409 0.09197,0.89409c-0.68404,1.48096 -0.96319,2.62142 -1.91512,3.98971c-0.1666,0.23947 -0.38901,0.50408 -0.63344,0.78612c-0.34368,1.0778 -0.74372,2.13685 -1.22701,3.15426c-0.14899,0.31366 -0.34096,0.69791 -0.55951,1.08672c0.4115,1.3453 1.5758,2.64279 2.23428,3.71015c0.12036,0.1951 0.2358,0.38732 0.34641,0.57735c0.54026,0.04066 0.95825,0.32897 1.55739,0.30813c1.09605,-0.03811 2.91579,-0.86074 3.8771,-1.31465c0.42265,-0.19956 0.84966,-0.50755 1.28297,-0.82837c-0.75873,-0.78123 -1.65858,-1.49409 -2.1948,-2.10215c-0.99145,-1.12426 -0.95713,-2.16352 -1.20281,-3.57953c-0.31383,-3.49753 0.21715,-5.39261 3.33473,-7.31595l0.09657,-0.05957c0,0 0.72676,-0.44835 1.17512,0.27841c0.44835,0.72677 -0.2784,1.17512 -0.2784,1.17512l-0.09657,0.05957c-2.55278,1.57488 -2.7925,2.78163 -2.53814,5.63984c0.12103,0.69363 0.04436,1.43475 0.2996,2.09097c0.46879,1.20522 1.66565,2.01296 2.71046,2.91627c0.26648,-0.15048 0.53589,-0.27203 0.80861,-0.34449c1.77565,-0.47179 3.58739,0.85549 5.5761,0.4566c0,0 0.83792,-0.16463 1.00254,0.67328c0.16463,0.83792 -0.67329,1.00255 -0.67329,1.00255c-1.36942,0.26427 -2.68446,0.35175 -4.0507,-0.05955c-0.49411,-0.14874 -0.80584,-0.64752 -1.36104,-0.4379c-0.02279,0.00861 -0.04554,0.01729 -0.06825,0.02607c0.21821,0.32446 0.38783,0.67708 0.48551,1.07092c0.7299,2.94311 -1.7516,5.1767 -3.50216,7.06341c-0.19691,0.21222 -0.39898,0.4335 -0.61034,0.65105c0.24894,0.10456 0.49914,0.23016 0.75786,0.3877c1.37111,-0.1547 2.76991,-0.3064 4.26075,0.04123c3.77704,0.88072 6.32355,3.4596 9.07717,6.06141c0,0 0.62048,0.5867 0.03377,1.20717c-0.5867,0.62049 -1.20718,0.03379 -1.20718,0.03379c-2.52209,-2.38656 -4.82872,-4.80424 -8.27093,-5.63442c-0.63898,-0.15411 -1.45286,-0.23605 -2.24443,-0.26019c1.69939,1.65858 3.58112,3.41273 4.62874,5.47782c0.28906,0.56981 1.00093,2.0575 0.77602,2.83688c-0.25738,0.89193 -0.84274,1.20739 -1.46144,1.52401c0.77042,1.90493 1.30857,4.15144 1.64256,5.70881c0,0 0.17781,0.83523 -0.65742,1.01303c-0.83522,0.17781 -1.01302,-0.65743 -1.01302,-0.65743c-0.34906,-1.65298 -0.99765,-3.11656 -1.58588,-4.65428c-0.67317,1.33628 -0.253,3.20622 0.32144,4.42972c0,0 0.35476,0.77677 -0.422,1.13152c-0.77677,0.35475 -1.13153,-0.422 -1.13153,-0.422c-0.97231,-2.17547 -1.34549,-5.19928 0.5457,-7.05497c0.00779,-0.00764 0.01656,-0.01552 0.02626,-0.02363c-0.20603,-0.6406 -0.50676,-1.37788 -1.01261,-1.62178c-0.88681,-0.42757 -1.96129,-0.42641 -2.79841,-0.94456c-1.94518,-1.20399 -3.37786,-3.70643 -4.23759,-6.10348c-0.27959,1.29601 -0.57676,2.58689 -0.481,3.90243c0.08517,1.17016 0.22563,2.62619 0.52656,3.75872c0.28354,1.06707 1.18755,2.4286 0.90249,3.60144c-0.28505,1.1728 -1.67672,1.98964 -2.59549,2.56173l-0.80137,0.06718c0,0 -0.83094,-0.19686 -0.63408,-1.0278c0.13307,-0.56166 0.55584,-0.65373 0.81586,-0.65442c0.54338,-0.31279 1.4437,-0.84286 1.5532,-1.34041c0.15872,-0.7212 -0.72191,-2.12052 -0.88867,-2.75966c-0.31833,-1.22007 -0.50058,-2.82485 -0.58238,-4.08984c-0.11509,-1.77964 0.43687,-3.47189 0.7308,-5.20145c-0.04462,-0.03782 -0.08339,-0.07889 -0.11678,-0.12016c-0.34417,0.14813 -0.68677,0.32699 -1.04566,0.39384c-0.5701,-0.36068 -1.08382,-0.76986 -1.55449,-1.21609c-0.11469,0.51576 -0.28069,1.02711 -0.41725,1.6037c-0.76006,3.20926 -2.58741,7.99855 -5.80272,9.32383c0,0 -0.79525,0.31112 -1.10638,-0.48413c-0.31113,-0.79524 0.48413,-1.10637 0.48413,-1.10637c2.6114,-0.94627 4.17108,-5.62904 4.76308,-8.12706c0.21506,-0.90744 0.67519,-1.79287 0.47949,-2.74229c-0.03233,-0.15679 -0.07046,-0.31081 -0.11352,-0.46246c-0.33961,-0.47192 -0.65914,-0.96116 -0.96825,-1.45945c-3.19487,1.0811 -7.75366,2.15548 -8.05506,6.11706l0.14515,0.42567c0,0 0.19553,0.83127 -0.63573,1.02678c-0.83126,0.19553 -1.02678,-0.63573 -1.02678,-0.63573l-0.18349,-0.97147c0.48541,-4.74561 5.01692,-6.11736 8.86332,-7.45368c-0.9674,-1.64965 -1.92517,-3.30863 -3.20375,-4.69354c-1.53249,-1.65993 -5.59539,-2.03806 -7.74499,-2.04545c0,0 -0.85392,-0.00497 -0.84895,-0.8589c0.00497,-0.85393 0.8589,-0.84895 0.8589,-0.84895c2.69896,0.02143 7.00848,0.55094 8.97076,2.57437c0.52567,0.54205 0.95873,1.17703 1.35044,1.85279c-0.04032,-0.29038 -0.05875,-0.53265 -0.02769,-0.62912c0.28969,-0.89983 1.19543,-1.4729 1.88883,-2.11543c0.1658,-0.15363 0.32293,-0.33325 0.47191,-0.53231c-0.07391,-0.4036 -0.09081,-0.8218 -0.02946,-1.25804c0.18697,-1.32943 1.18845,-2.47676 2.08026,-3.54957c0.42809,-1.7801 0.52956,-4.21291 1.56041,-5.54225c0.95359,-1.22973 2.79088,-0.78654 4.08722,-1.21265l1.08375,0.05461c0,0 0.8476,0.10389 0.7437,0.95149zM307.30072,130.23956c-0.15081,0.47946 0.22579,0.97973 0.32269,1.47292c0.10001,0.72427 0.3622,1.39273 0.67771,2.04606c0.82853,-0.42636 1.57551,-1.04882 2.37455,-1.49846c-0.22006,-0.37847 -0.45522,-0.76613 -0.7044,-1.17002c-0.41638,-0.6749 -0.90222,-1.35979 -1.29562,-2.08066c-0.60883,0.58897 -1.09035,0.32546 -1.37493,1.23018zM315.24237,133.47142c-0.69094,0.19351 -1.3637,0.03576 -1.99667,-0.04323c0.52051,1.15591 0.86237,2.3058 1.05449,3.6199l0.06583,0.00047c0.13336,0.34885 0.26671,0.69768 0.40007,1.04653c0.199,0.11961 0.40022,0.23542 0.615,0.29106c0.26406,0.06839 0.51268,0.12698 0.7501,0.18212c1.99926,-1.19893 4.04977,-4.0015 4.28951,-5.99788c0.06113,-0.50904 -0.10119,-1.00823 -0.39097,-1.49063c-1.54874,0.85004 -3.01223,1.89452 -4.78735,2.39166zM310.12316,136.73997c0.60833,0.75608 0.91882,1.57366 1.60961,2.25761c0.23518,-0.0834 0.46287,-0.21032 0.69153,-0.32946l0.00903,-0.08131c0.01491,-0.00962 0.02975,-0.01952 0.04448,-0.02969c-0.13628,-0.10745 -0.25016,-0.27835 -0.29043,-0.54867c-0.07202,-0.4834 0.17386,-0.73136 0.39733,-0.85502c-0.21065,-1.26315 -0.5927,-2.34471 -1.1184,-3.42525c-0.81029,0.39519 -1.57484,1.03126 -2.40254,1.50899c0.15491,0.30342 0.30352,0.61021 0.43494,0.92447c0.22841,0.17324 0.44614,0.35676 0.62441,0.57835zM316.51187,141.68938c-0.2091,0.01345 -0.42137,0.00524 -0.63499,-0.01982c0.74087,1.84931 1.85079,3.67673 3.30734,4.57888c1.50021,0.92917 2.56445,0.50019 3.7491,1.95904c0.2633,0.32424 0.51022,0.70708 0.74126,1.13093c0.24592,-0.16861 0.43365,-0.343 0.48198,-0.51252c0.17049,-0.59788 -0.85322,-2.08716 -1.21134,-2.55057c-1.41005,-1.82462 -3.09483,-3.42556 -4.69169,-5.06692c-0.03265,-0.02637 -0.0677,-0.0534 -0.10497,-0.08096c-0.54362,0.19964 -1.06286,0.52503 -1.63669,0.56194z" fill="url(#color-4)" stroke="none" stroke-width="0.5"/><path d="M319.63388,159.38578c-3.25155,0.59398 -3.35953,-1.69154 -5.68538,-2.7409c-0.83632,-0.37733 -2.18962,-0.04449 -2.96459,-0.02008c-2.42214,0.07629 -2.47097,0.13611 -4.74555,-1.20977c-2.46724,-1.45988 -2.39807,-4.20403 -4.70911,-5.33882c-2.30277,-0.90736 -5.94264,-3.91189 -6.34925,-6.66452c-0.02992,-0.20255 1.00763,-2.71967 0.73913,-3.43549c-0.39747,-1.0596 -1.71389,-1.54845 -2.24241,-2.54915c-1.25164,-2.36984 -0.78587,-5.41139 -0.88711,-7.88205c-0.04818,-1.17571 -0.9939,-2.20506 -1.01306,-3.3816c-0.01872,-1.14966 0.82378,-2.43068 0.66221,-3.64345c-0.1049,-0.78746 -0.78657,-1.5108 -0.64892,-2.29318c0.46366,-2.6355 4.03148,-5.00688 6.1819,-6.06032c1.04686,-0.87389 2.32641,-1.42818 3.53792,-2.05411c2.87116,-1.4834 4.00367,-4.29907 7.68742,-4.14005c1.93108,0.08337 3.90082,1.0284 4.77272,2.89133c0.23886,0.51037 -0.4257,1.09672 -0.34643,1.65461c0.09488,0.66766 1.32593,0.24704 1.98909,0.36955c1.48509,0.27434 2.97049,0.98815 4.03605,2.05835c1.68088,1.68818 4.04378,4.5241 4.97646,6.71743c0.22625,0.53206 0.05911,1.19111 0.32724,1.70334c0.2971,0.56757 2.71506,0.98187 2.72629,0.9889c0.93968,0.58786 1.63834,1.49337 2.45751,2.24006c-0.24885,0.73253 -0.63178,1.43248 -0.74654,2.19755c-0.29938,1.99569 2.59094,3.9143 3.22786,5.5512c0.59182,1.52101 0.56197,3.60801 0.19674,5.1475c-0.2307,0.9724 -0.94094,1.91968 -0.75484,2.90159c0.46022,2.42837 2.39426,3.58356 1.74257,6.38941c-0.24043,1.03515 -1.73294,3.24392 -2.91303,4.53843c-0.05811,0.61839 -0.48147,1.07655 -0.48147,1.07655c-1.21247,1.28478 -2.22495,4.20795 -4.04049,4.7253c-1.10336,0.31441 -2.17867,-0.43001 -3.26999,-0.97407c-0.27422,0.25829 -0.54347,0.50511 -0.80697,0.72729l-0.52229,0.44035c0,0 -1.10117,0.92845 -2.13364,0.06882zM322.19568,154.34729c0.75275,-0.68199 1.52939,-1.33127 2.32126,-1.78045c1.09812,-0.62291 2.49649,-0.59341 3.57584,-1.2483c0.81626,-0.49527 1.05223,-1.65083 1.50481,-2.35861c0.25635,-0.40091 0.75332,-0.64852 0.91449,-1.09627c0.42673,-1.1856 -1.6513,-3.73515 -1.82124,-4.90287c-0.38484,-2.6445 1.03317,-3.66708 0.96482,-6.09656c-0.09146,-3.25148 -5.87779,-6.07104 -2.83752,-9.45636c-1.72028,0.12204 -3.66616,-0.69891 -4.70205,-2.1373c-0.4563,-0.63359 -0.32958,-1.53519 -0.62858,-2.25647c-0.63493,-1.53168 -2.28098,-3.1433 -3.26412,-4.46833c-0.05296,-0.07138 -1.63984,-2.00059 -1.91744,-2.13596c-1.03589,-0.50518 -2.39365,-0.03264 -3.4088,-0.5783c-0.93194,-0.50093 -1.92392,-1.10675 -2.43959,-2.03062c-0.30349,-0.54374 0.35307,-1.23 0.27487,-1.84776c-0.07585,-0.59922 -1.11672,-0.54059 -1.72,-0.5701c-1.82545,-0.08926 -2.62689,1.4659 -3.96699,2.45838c-1.74487,1.29225 -3.56859,1.78923 -5.20751,3.1859c-1.74514,0.8549 -2.59801,1.63 -3.93625,2.99968c-0.23285,0.23833 -0.71818,0.34949 -0.73038,0.68248c-0.01857,0.50677 0.59137,0.86995 0.65508,1.37305c0.16971,1.34034 -0.62051,2.65211 -0.63497,4.00308c-0.01216,1.13559 0.92874,2.12159 1.00779,3.2545c0.1284,1.83975 -0.54687,4.71704 0.47831,6.45519c0.70747,1.19949 1.9955,1.55353 2.45473,3.0219c0.29695,0.94951 0.18746,1.9978 0.05676,2.98405c-0.06011,0.45351 -0.62894,0.76974 -0.61483,1.22699c0.01009,0.3272 0.45867,0.46768 0.6747,0.71364c1.33443,1.51928 1.77201,2.59516 3.70848,3.23143c0.74117,0.44349 1.62151,0.71112 2.22352,1.33049c1.46763,1.51001 0.94224,3.09658 2.80984,4.17921c2.42844,1.40775 4.72056,-0.06189 7.28934,1.01632c0.72595,0.30471 1.32497,0.85611 1.93807,1.35003c0.51862,0.4178 0.98707,1.54186 1.57507,1.22916c1.11372,-0.59231 2.17154,-1.66785 3.40249,-1.73123z" fill="url(#color-5)" stroke="none" stroke-width="0.5"/><g stroke="none" stroke-width="0.5"><path d="M297.11841,144.62564c-0.47046,-0.76259 0.13727,-1.26974 0.29733,-1.3851c0.42563,-0.48221 1.57406,-1.78914 1.83431,-1.93625c1.79287,-1.0134 4.05277,-0.63147 5.97377,-0.9316c1.45007,-0.32972 2.72625,-1.01411 3.92005,-1.86254c-0.02995,-0.02926 -0.05989,-0.0585 -0.08983,-0.08776c-0.52597,-0.0048 -1.04546,-0.01538 -1.55416,-0.0273c-0.7145,-0.15586 -1.48093,-0.15803 -2.1435,-0.46756c-2.10411,-0.98301 -3.00356,-3.63106 -4.99581,-4.94175c-1.20538,-0.79302 -2.83603,-0.92132 -4.23676,-0.89507l-0.68221,0.06399c0,0 -1.02066,0.09121 -1.11187,-0.92945c-0.09121,-1.02066 0.92945,-1.11187 0.92945,-1.11187l0.8393,-0.07197c2.60095,-0.01839 4.68149,0.57129 6.7202,2.24585c1.79242,1.47225 2.15226,3.19253 4.20356,3.88744c-1.62593,-2.13714 -2.88889,-4.65978 -4.2745,-6.92863c-0.89691,-1.46864 -0.7525,-3.73097 -1.94736,-4.94356c-2.0242,-2.05426 -4.49716,-2.194 -3.43379,-5.76156c0,0 0.312,-0.97607 1.28808,-0.66406c0.97607,0.312 0.66406,1.28808 0.66406,1.28808c-0.89819,2.54001 3.0387,3.20714 3.996,5.39159c0.39509,0.90155 0.34168,1.95282 0.7054,2.86748c1.32807,3.33988 3.74106,6.22689 6.12734,8.95835c0.01617,-0.00013 0.03233,-0.00027 0.0485,-0.00041c-0.1832,-0.97753 -0.12133,-1.99443 0.0257,-2.96582c0.00681,-0.02149 0.01643,-0.05212 0.02846,-0.09049c-0.64538,-2.70222 -1.4628,-5.30393 -3.60352,-7.37075c-1.31757,-1.27209 -3.2124,-2.47512 -3.67419,-4.48947c-0.31453,-1.37198 0.69864,-2.85833 1.29132,-3.96218c0.6099,-1.13594 1.14846,-2.27934 1.76065,-3.39335c-0.12619,-0.10811 -0.23684,-0.26707 -0.31025,-0.498c-0.31045,-0.97657 0.66612,-1.28702 0.66612,-1.28702l0.71478,0.02431c0.0578,-0.0796 0.61882,-0.80795 1.41937,-0.2605c0.59965,0.41006 0.48349,0.95452 0.36507,1.23675c0.26031,0.2889 0.47012,0.62971 0.61205,1.12192c0.55074,1.90993 -0.6854,3.75999 0.20837,5.69598c1.16015,2.51299 3.49014,4.22583 5.37115,6.22825c0.23275,-1.40655 0.20997,-2.87422 0.89986,-4.17266c0.65242,-1.22791 1.6562,-1.86257 2.78832,-2.56327l0.0969,-0.05979c0,0 0.87212,-0.53804 1.41015,0.33409c0.53803,0.87212 -0.33408,1.41015 -0.33408,1.41015l-0.0969,0.05979c-2.80723,1.72559 -2.17923,4.21828 -3.21618,6.93277c0.02065,0.03229 0.0411,0.06472 0.06137,0.09726c0.68773,1.12402 1.00183,2.38134 1.2566,3.65685c0.02537,-0.00909 0.05077,-0.01807 0.07624,-0.02695c3.89218,-1.35593 7.59711,2.79451 11.39224,2.90284c0,0 1.02409,0.03609 0.988,1.06018c-0.03609,1.02409 -1.06018,0.988 -1.06018,0.988c-1.59458,-0.06495 -3.46325,-0.36196 -4.91023,-1.08915c-1.51317,-0.76047 -3.83527,-2.66465 -5.7981,-1.90583c-0.09449,0.03652 -0.18826,0.07613 -0.28133,0.11855c0.05987,0.26848 0.12467,0.53502 0.19743,0.79846c2.56355,0.23352 3.99793,1.9435 6.31296,2.65767c2.91113,0.89807 4.66141,0.80979 6.41586,3.64532c0,0 0.53803,0.87212 -0.33409,1.41016c-0.87212,0.53804 -1.41015,-0.33409 -1.41015,-0.33409c-1.45524,-2.36652 -2.83259,-1.98682 -5.30217,-2.77134c-1.75509,-0.55756 -3.02242,-1.7335 -4.69737,-2.29701c0.10197,0.15873 0.21188,0.3145 0.33067,0.46693c1.13312,1.45389 2.38707,3.33173 3.79265,4.50132c1.78681,1.48679 3.80305,1.92918 4.72869,4.33427c0.72226,1.87667 0.78842,3.65756 0.75088,5.6281c0,0 -0.02207,1.0245 -1.04655,1.00244c-1.0245,-0.02206 -1.00243,-1.04655 -1.00243,-1.04655c0.04081,-1.68009 0.00943,-3.17947 -0.58851,-4.78336c-0.74603,-2.00114 -2.6671,-2.31278 -4.15652,-3.56247c-1.50001,-1.25856 -2.90712,-3.23598 -4.09461,-4.81377c-0.41629,-0.55311 -0.72769,-1.13625 -0.97205,-1.73807c-0.27146,0.16091 -0.54618,0.35477 -0.94502,0.47036c-0.58033,0.16819 -1.17901,0.30011 -1.78911,0.40296c1.38033,1.69043 3.08671,3.04953 4.49112,4.97349c2.1737,2.97786 2.61273,6.81967 4.81413,9.8249c0.19452,0.06195 0.91917,0.35411 0.71406,1.21986c-0.23624,0.99713 -1.23336,0.7609 -1.23336,0.7609l-0.8845,-0.44032c-2.39445,-3.07256 -2.79777,-7.12535 -5.06744,-10.15941c-1.02695,-1.3728 -2.15675,-2.48043 -3.22118,-3.61504c0.1853,0.51442 0.33274,1.04184 0.41044,1.59124c0.52073,1.00311 0.90519,2.07233 1.04842,3.25478c0.14875,1.22799 0.05939,2.27672 0.52339,3.51412c1.00872,2.69004 4.57008,4.36183 6.12401,6.86547l0.11956,0.1938c0,0 0.53803,0.87212 -0.33409,1.41016c-0.87212,0.53804 -1.41015,-0.33409 -1.41015,-0.33409l-0.11956,-0.1938c-1.65925,-2.70861 -5.12656,-4.19265 -6.27385,-7.15875c-0.40177,-1.03871 -0.49305,-2.02174 -0.57496,-3.03457c-0.41865,0.86002 -0.96034,1.64369 -1.59703,2.15261c-0.23388,0.18694 -1.72556,0.80542 -2.0448,1.00061c-1.40161,0.85698 -2.44865,2.20599 -3.23905,3.59355c0,0 -0.51279,0.88719 -1.39999,0.3744c-0.8872,-0.51279 -0.37441,-1.39999 -0.37441,-1.39999c0.88092,-1.50557 1.67459,-2.42453 2.9875,-3.57684c0.86586,-0.75994 1.94474,-0.95705 2.81689,-1.61288c0.94578,-0.7112 1.55428,-2.62519 1.72906,-3.73525c0.03717,-0.23607 0.0561,-0.46424 0.05917,-0.68578c-0.55811,-0.99322 -1.27722,-1.90945 -1.96852,-2.81479c-0.01105,-0.013 -0.02214,-0.02599 -0.03324,-0.03893c-1.58184,1.05467 -3.27135,1.95709 -4.98617,2.37032c-1.58465,0.22692 -3.86609,-0.11106 -5.33246,0.69223c-0.63292,0.34672 -0.94457,1.09139 -1.42394,1.63085l-0.32482,0.25117c0,0 -0.87212,0.53804 -1.41015,-0.33409zM314.23331,131.39129c-0.49207,0.3149 -1.21656,0.3568 -1.53437,0.84698c-0.21483,0.33136 -0.27926,0.73061 -0.35618,1.12528c0.14168,0.56972 0.27975,1.15885 0.42332,1.7736c0.03461,0.08809 0.07021,0.17498 0.10675,0.26072c1.06248,-0.92667 2.14059,-1.81418 3.31185,-2.50106c-0.18058,-0.8315 -0.39645,-1.65005 -0.73556,-2.42933c-0.26981,0.29486 -0.61767,0.54101 -1.21582,0.92379zM316.69458,135.34512c-0.01236,-0.05261 -0.02454,-0.10528 -0.03652,-0.15798c-0.14893,0.11762 -0.29625,0.23876 -0.44214,0.36203c0.15996,-0.06455 0.31928,-0.1346 0.47865,-0.20404zM313.93699,129.08424c0.1402,-0.16592 0.26339,-0.33591 0.37206,-0.50934c-1.99229,-2.60286 -5.09615,-4.46636 -6.46393,-7.55977c-0.73383,-1.65963 -0.12847,-3.6549 -0.381,-5.26261c-0.46943,0.89828 -0.90598,1.81209 -1.39417,2.71921c-0.28664,0.53262 -1.30673,1.8598 -1.08827,2.58962c0.6043,2.01886 2.97202,3.24537 4.1307,4.84416c1.14675,1.58234 1.86895,3.07348 2.41544,4.6432c0.76489,-0.57458 1.7699,-0.70786 2.40918,-1.46448z" fill="url(#color-6)"/><path d="M295.3186,118.87326c-0.31227,-1.21408 0.84688,-1.69505 0.84688,-1.69505l0.54978,-0.22813c0.27737,-0.11509 0.57682,-0.22397 0.88738,-0.33178c-0.03526,-1.12248 -0.23848,-2.32039 0.42493,-3.07397c1.09161,-1.23998 3.83097,-0.76942 5.31955,-1.18322c0,0 0.52749,-0.14028 1.04911,0.08549c1.48444,-0.38333 3.82408,-0.61606 4.75034,-0.35391c2.51067,0.71058 2.72764,2.78408 4.5207,4.22734c0.72503,0.58357 1.75444,0.42705 2.62634,0.66939c1.38038,0.38367 3.07913,1.28006 4.08965,2.42952c1.08751,1.23704 1.56721,4.42059 3.29208,5.05873c0.66125,0.24464 1.36929,0.24371 2.05394,0.36557c0.30004,0.99178 0.77321,1.95615 0.90013,2.97533c0.00151,0.01218 -0.56011,2.15022 -0.21132,2.64082c0.31478,0.44277 0.90972,0.5983 1.25608,1.01593c1.42781,1.72163 2.84487,4.88329 3.58673,6.98716c0.47028,1.33371 0.49669,2.84975 0.16782,4.1717c-0.14685,0.5903 -0.94353,1.40031 -0.43879,1.7715c0.42175,0.31018 1.14236,0.03139 1.4665,0.44967c1.18316,1.52676 1.21695,3.53645 0.56824,5.13481c-1.23746,3.04907 -3.93438,2.72298 -6.19868,4.39051c-0.95545,0.70364 -1.87818,1.49388 -2.97307,1.95499c-1.64932,1.27433 -4.89005,3.11357 -7.19324,2.32607c-0.68374,-0.23379 -1.01589,-1.10407 -1.61379,-1.53622c-0.92082,-0.66556 -2.26915,-0.54928 -3.1919,-1.07149c-0.94432,-0.53444 -1.42602,-1.75323 -2.35891,-2.31077c-1.9604,-1.17162 -4.59273,-2.13648 -6.04498,-4.19391c-0.61323,-0.86877 -0.52038,-2.14893 -1.22984,-2.93772c-0.47929,-0.53286 -2.89955,-0.80406 -3.05226,-0.91759c-2.07518,-1.54291 -3.15505,-5.81155 -3.03486,-8.07395c-0.06065,-2.36937 -2.3054,-3.5238 -2.57102,-6.1629c-0.24487,-2.43301 -0.1784,-2.4461 0.7815,-4.37116c0.30712,-0.61594 1.07813,-1.5635 1.08314,-2.40622c0.01392,-2.34368 -1.79427,-3.43909 -0.10814,-5.80651zM300.34305,119.0239c-0.50774,0.96749 -1.76977,1.3485 -2.66176,1.98789c-0.47093,0.33757 0.26434,1.21218 0.40989,1.81585c0.17205,0.71365 0.39582,1.44125 0.37303,2.16271c-0.08067,2.55286 -2.11912,3.75821 -1.88127,6.34292c0.18292,1.9878 1.66076,2.26272 2.3376,4.11556c0.27763,0.76001 0.16758,1.58996 0.25136,2.38493c-0.2036,1.8466 0.50417,2.67497 1.23791,4.42421c0.11879,0.28319 0.06602,0.70789 0.32688,0.86037c0.36454,0.21309 0.83121,-0.10743 1.22024,0.044c0.84601,0.32931 1.73434,0.70314 2.39206,1.36207c1.01713,1.01902 0.82578,2.21677 1.53341,3.31794c1.02542,1.59568 3.60259,2.31869 5.04272,3.23398c0.88683,0.56362 1.33527,1.7594 2.25809,2.25044c1.09784,0.58417 2.45168,0.52372 3.47263,1.25214c0.3832,0.27341 0.45072,0.92686 0.86741,1.13536c0.2738,0.137 0.54366,-0.20643 0.82275,-0.28961c1.60389,-0.47805 2.54696,-0.82587 3.88545,-1.86005c1.73721,-0.70931 2.8154,-1.9649 4.50745,-2.80594c1.29954,-0.64595 2.85437,-0.6081 3.45912,-2.12366c0.19986,-0.50087 0.63325,-1.31672 0.17681,-1.64236c-0.47057,-0.33572 -1.26899,-0.10746 -1.59614,-0.59271c-0.55588,-0.8245 -0.67791,-1.8939 -0.73741,-2.86846c-0.0648,-1.06159 0.82083,-1.95114 0.79644,-3.01165c-0.00653,-0.2842 -0.97814,-2.41835 -1.01623,-2.49267c-0.70692,-1.37946 -1.39978,-3.4214 -2.40294,-4.61043c-0.4724,-0.55992 -1.24849,-0.85512 -1.59164,-1.50357c-0.77903,-1.47211 -0.72131,-3.40778 0.01532,-4.74509c-3.86503,0.96542 -3.99934,-4.95744 -6.59479,-6.46552c-1.9393,-1.12682 -3.29207,-0.43116 -5.28788,-1.90877c-0.88128,-0.65246 -2.1724,-3.45744 -3.2894,-3.63529c-0.42185,-0.06716 -0.80638,0.2255 -1.22564,0.25598c-0.74018,0.05381 -1.76215,-0.26506 -2.46536,0.17658c-0.92985,0.58398 -1.42456,1.72781 -2.33551,2.34108c-0.6569,0.44224 -1.46995,0.78391 -2.3006,1.09183z" data-paper-data="{&quot;index&quot;:null}" fill="url(#color-7)"/></g><path d="M295.3186,118.87326c-0.31227,-1.21408 0.84688,-1.69505 0.84688,-1.69505l0.54978,-0.22813c0.27737,-0.11509 0.57682,-0.22397 0.88738,-0.33178c-0.03526,-1.12248 -0.23848,-2.32039 0.42493,-3.07397c1.09161,-1.23998 3.83097,-0.76942 5.31955,-1.18322c0,0 0.52749,-0.14028 1.04911,0.08549c1.48444,-0.38333 3.82408,-0.61606 4.75034,-0.35391c2.51067,0.71058 2.72764,2.78408 4.5207,4.22734c0.72503,0.58357 1.75444,0.42705 2.62634,0.66939c1.38038,0.38367 3.07913,1.28006 4.08965,2.42952c1.08751,1.23704 1.56721,4.42059 3.29208,5.05873c0.66125,0.24464 1.36929,0.24371 2.05394,0.36557c0.30004,0.99178 0.77321,1.95615 0.90013,2.97533c0.00151,0.01218 -0.56011,2.15022 -0.21132,2.64082c0.31478,0.44277 0.90972,0.5983 1.25608,1.01593c1.42781,1.72163 2.84487,4.88329 3.58673,6.98716c0.47028,1.33371 0.49669,2.84975 0.16782,4.1717c-0.14685,0.5903 -0.94353,1.40031 -0.43879,1.7715c0.42175,0.31018 1.14236,0.03139 1.4665,0.44967c1.18316,1.52676 1.21695,3.53645 0.56824,5.13481c-1.23746,3.04907 -3.93438,2.72298 -6.19868,4.39051c-0.95545,0.70364 -1.87818,1.49388 -2.97307,1.95499c-1.64932,1.27433 -4.89005,3.11357 -7.19324,2.32607c-0.68374,-0.23379 -1.01589,-1.10407 -1.61379,-1.53622c-0.92082,-0.66556 -2.26915,-0.54928 -3.1919,-1.07149c-0.94432,-0.53444 -1.42602,-1.75323 -2.35891,-2.31077c-1.9604,-1.17162 -4.59273,-2.13648 -6.04498,-4.19391c-0.61323,-0.86877 -0.52038,-2.14893 -1.22984,-2.93772c-0.47929,-0.53286 -2.89955,-0.80406 -3.05226,-0.91759c-2.07518,-1.54291 -3.15505,-5.81155 -3.03486,-8.07395c-0.06065,-2.36937 -2.3054,-3.5238 -2.57102,-6.1629c-0.24487,-2.43301 -0.1784,-2.4461 0.7815,-4.37116c0.30712,-0.61594 1.07813,-1.5635 1.08314,-2.40622c0.01392,-2.34368 -1.79427,-3.43909 -0.10814,-5.80651zM300.34305,119.0239c-0.50774,0.96749 -1.76977,1.3485 -2.66176,1.98789c-0.47093,0.33757 0.26434,1.21218 0.40989,1.81585c0.17205,0.71365 0.39582,1.44125 0.37303,2.16271c-0.08067,2.55286 -2.11912,3.75821 -1.88127,6.34292c0.18292,1.9878 1.66076,2.26272 2.3376,4.11556c0.27763,0.76001 0.16758,1.58996 0.25136,2.38493c-0.2036,1.8466 0.50417,2.67497 1.23791,4.42421c0.11879,0.28319 0.06602,0.70789 0.32688,0.86037c0.36454,0.21309 0.83121,-0.10743 1.22024,0.044c0.84601,0.32931 1.73434,0.70314 2.39206,1.36207c1.01713,1.01902 0.82578,2.21677 1.53341,3.31794c1.02542,1.59568 3.60259,2.31869 5.04272,3.23398c0.88683,0.56362 1.33527,1.7594 2.25809,2.25044c1.09784,0.58417 2.45168,0.52372 3.47263,1.25214c0.3832,0.27341 0.45072,0.92686 0.86741,1.13536c0.2738,0.137 0.54366,-0.20643 0.82275,-0.28961c1.60389,-0.47805 2.54696,-0.82587 3.88545,-1.86005c1.73721,-0.70931 2.8154,-1.9649 4.50745,-2.80594c1.29954,-0.64595 2.85437,-0.6081 3.45912,-2.12366c0.19986,-0.50087 0.63325,-1.31672 0.17681,-1.64236c-0.47057,-0.33572 -1.26899,-0.10746 -1.59614,-0.59271c-0.55588,-0.8245 -0.67791,-1.8939 -0.73741,-2.86846c-0.0648,-1.06159 0.82083,-1.95114 0.79644,-3.01165c-0.00653,-0.2842 -0.97814,-2.41835 -1.01623,-2.49267c-0.70692,-1.37946 -1.39978,-3.4214 -2.40294,-4.61043c-0.4724,-0.55992 -1.24849,-0.85512 -1.59164,-1.50357c-0.77903,-1.47211 -0.72131,-3.40778 0.01532,-4.74509c-3.86503,0.96542 -3.99934,-4.95744 -6.59479,-6.46552c-1.9393,-1.12682 -3.29207,-0.43116 -5.28788,-1.90877c-0.88128,-0.65246 -2.1724,-3.45744 -3.2894,-3.63529c-0.42185,-0.06716 -0.80638,0.2255 -1.22564,0.25598c-0.74018,0.05381 -1.76215,-0.26506 -2.46536,0.17658c-0.92985,0.58398 -1.42456,1.72781 -2.33551,2.34108c-0.6569,0.44224 -1.46995,0.78391 -2.3006,1.09183z" data-paper-data="{&quot;index&quot;:null}" fill="url(#color-8)" stroke="none" stroke-width="0.5"/><path d="M319.63388,159.38578c-3.25155,0.59398 -3.35953,-1.69154 -5.68538,-2.7409c-0.83632,-0.37733 -2.18962,-0.04449 -2.96459,-0.02008c-2.42214,0.07629 -2.47097,0.13611 -4.74555,-1.20977c-2.46724,-1.45988 -2.39807,-4.20403 -4.70911,-5.33882c-2.30277,-0.90736 -5.94264,-3.91189 -6.34925,-6.66452c-0.02992,-0.20255 1.00763,-2.71967 0.73913,-3.43549c-0.39747,-1.0596 -1.71389,-1.54845 -2.24241,-2.54915c-1.25164,-2.36984 -0.78587,-5.41139 -0.88711,-7.88205c-0.04818,-1.17571 -0.9939,-2.20506 -1.01306,-3.3816c-0.01872,-1.14966 0.82378,-2.43068 0.66221,-3.64345c-0.1049,-0.78746 -0.78657,-1.5108 -0.64892,-2.29318c0.46366,-2.6355 4.03148,-5.00688 6.1819,-6.06032c1.04686,-0.87389 2.32641,-1.42818 3.53792,-2.05411c2.87116,-1.4834 4.00367,-4.29907 7.68742,-4.14005c1.93108,0.08337 3.90082,1.0284 4.77272,2.89133c0.23886,0.51037 -0.4257,1.09672 -0.34643,1.65461c0.09488,0.66766 1.32593,0.24704 1.98909,0.36955c1.48509,0.27434 2.97049,0.98815 4.03605,2.05835c1.68088,1.68818 4.04378,4.5241 4.97646,6.71743c0.22625,0.53206 0.05911,1.19111 0.32724,1.70334c0.2971,0.56757 2.71506,0.98187 2.72629,0.9889c0.93968,0.58786 1.63834,1.49337 2.45751,2.24006c-0.24885,0.73253 -0.63178,1.43248 -0.74654,2.19755c-0.29938,1.99569 2.59094,3.9143 3.22786,5.5512c0.59182,1.52101 0.56197,3.60801 0.19674,5.1475c-0.2307,0.9724 -0.94094,1.91968 -0.75484,2.90159c0.46022,2.42837 2.39426,3.58356 1.74257,6.38941c-0.24043,1.03515 -1.73294,3.24392 -2.91303,4.53843c-0.05811,0.61839 -0.48147,1.07655 -0.48147,1.07655c-1.21247,1.28478 -2.22495,4.20795 -4.04049,4.7253c-1.10336,0.31441 -2.17867,-0.43001 -3.26999,-0.97407c-0.27422,0.25829 -0.54347,0.50511 -0.80697,0.72729l-0.52229,0.44035c0,0 -1.10117,0.92845 -2.13364,0.06882zM322.19568,154.34729c0.75275,-0.68199 1.52939,-1.33127 2.32126,-1.78045c1.09812,-0.62291 2.49649,-0.59341 3.57584,-1.2483c0.81626,-0.49527 1.05223,-1.65083 1.50481,-2.35861c0.25635,-0.40091 0.75332,-0.64852 0.91449,-1.09627c0.42673,-1.1856 -1.6513,-3.73515 -1.82124,-4.90287c-0.38484,-2.6445 1.03317,-3.66708 0.96482,-6.09656c-0.09146,-3.25148 -5.87779,-6.07104 -2.83752,-9.45636c-1.72028,0.12204 -3.66616,-0.69891 -4.70205,-2.1373c-0.4563,-0.63359 -0.32958,-1.53519 -0.62858,-2.25647c-0.63493,-1.53168 -2.28098,-3.1433 -3.26412,-4.46833c-0.05296,-0.07138 -1.63984,-2.00059 -1.91744,-2.13596c-1.03589,-0.50518 -2.39365,-0.03264 -3.4088,-0.5783c-0.93194,-0.50093 -1.92392,-1.10675 -2.43959,-2.03062c-0.30349,-0.54374 0.35307,-1.23 0.27487,-1.84776c-0.07585,-0.59922 -1.11672,-0.54059 -1.72,-0.5701c-1.82545,-0.08926 -2.62689,1.4659 -3.96699,2.45838c-1.74487,1.29225 -3.56859,1.78923 -5.20751,3.1859c-1.74514,0.8549 -2.59801,1.63 -3.93625,2.99968c-0.23285,0.23833 -0.71818,0.34949 -0.73038,0.68248c-0.01857,0.50677 0.59137,0.86995 0.65508,1.37305c0.16971,1.34034 -0.62051,2.65211 -0.63497,4.00308c-0.01216,1.13559 0.92874,2.12159 1.00779,3.2545c0.1284,1.83975 -0.54687,4.71704 0.47831,6.45519c0.70747,1.19949 1.9955,1.55353 2.45473,3.0219c0.29695,0.94951 0.18746,1.9978 0.05676,2.98405c-0.06011,0.45351 -0.62894,0.76974 -0.61483,1.22699c0.01009,0.3272 0.45867,0.46768 0.6747,0.71364c1.33443,1.51928 1.77201,2.59516 3.70848,3.23143c0.74117,0.44349 1.62151,0.71112 2.22352,1.33049c1.46763,1.51001 0.94224,3.09658 2.80984,4.17921c2.42844,1.40775 4.72056,-0.06189 7.28934,1.01632c0.72595,0.30471 1.32497,0.85611 1.93807,1.35003c0.51862,0.4178 0.98707,1.54186 1.57507,1.22916c1.11372,-0.59231 2.17154,-1.66785 3.40249,-1.73123z" fill="url(#color-9)" stroke="none" stroke-width="0.5"/><g><path d="M307.95571,142.86628l-3.8021,-6.16295l0.69769,-0.43042l3.8021,6.16295z" fill="url(#color-10)" stroke="none" stroke-width="0"/><path d="M320.78551,134.9512l-3.8021,-6.16296l0.69769,-0.43043l3.8021,6.16296z" fill="url(#color-11)" stroke="none" stroke-width="0"/><path d="M301.33426,139.84293l-0.7555,-1.22461l20.49613,-12.64465l0.75549,1.22461z" fill="url(#color-12)" stroke="none" stroke-width="0"/><g stroke-width="0"><path d="M320.65028,127.2098c1.07571,1.74365 0.5966,3.99074 -1.07014,5.01899c-1.66674,1.02826 -3.88991,0.4483 -4.96562,-1.29536c-1.07571,-1.74365 -0.5966,-3.99073 1.07013,-5.01898c1.66674,-1.02826 3.88992,-0.44831 4.96563,1.29535z" fill="url(#color-13)" stroke="none"/><g stroke="#a70000"><path d="M318.88505,128.3611c0.43,0.69699 0.22841,1.60143 -0.45024,2.02011c-0.67865,0.41868 -1.57739,0.19306 -2.00738,-0.50393c-0.43,-0.69699 -0.22843,-1.60143 0.45024,-2.02011c0.67865,-0.41868 1.57739,-0.19306 2.00739,0.50393z" fill="#960000"/><path d="M318.59171,128.54207c0.32736,0.53062 0.17389,1.21916 -0.34276,1.53789c-0.51664,0.31874 -1.20085,0.14698 -1.5282,-0.38363c-0.32736,-0.53062 -0.1739,-1.21914 0.34276,-1.53789c0.51664,-0.31874 1.20085,-0.14698 1.52821,0.38364z" fill="#000000"/></g><path d="M320.65028,127.2098c0.00791,0.01282 -1.96843,0.22872 -3.48043,1.17579c-1.4931,0.93522 -2.52183,2.60215 -2.55532,2.54785c-1.07571,-1.74365 -0.59661,-3.99073 1.07013,-5.01899c1.66674,-1.02826 3.88993,-0.4483 4.96564,1.29535z" fill="url(#color-14)" stroke="none"/></g><path d="M317.24233,147.93488l-0.39616,-0.64817l4.45135,-2.72061l0.39615,0.64817z" fill="url(#color-15)" stroke="none" stroke-width="0"/><path d="M321.32248,145.67652l-4.56888,-7.45365l0.77931,-0.47429l4.56888,7.45365z" fill="url(#color-16)" stroke="none" stroke-width="0"/><path d="M317.12617,148.23044l-4.56887,-7.45365l0.7793,-0.4743l4.56888,7.45366z" fill="url(#color-17)" stroke="none" stroke-width="0"/><g stroke="none" stroke-width="0"><path d="M321.32545,152.81627l-3.8242,-6.25698l2.98157,-1.82229l3.82421,6.25697z" fill="url(#color-18)"/><path d="M321.32545,152.81627l-0.48148,-0.78778l2.98156,-1.8223l0.48148,0.78778z" fill="#494949"/></g><path d="M305.42317,143.9512l18.35698,-11.27154l1.11829,1.80966l-18.35943,11.27238z" fill="url(#color-19)" stroke="none" stroke-width="0"/><g><path d="M311.48619,146.37958c-0.24989,0.23287 -0.48276,-0.01701 -0.48276,-0.01701l-0.17466,-0.18875c-1.04676,-1.30206 -1.07608,-2.78087 -2.59653,-3.57309c-1.30264,-1.02655 -1.19273,-1.83894 -1.91394,-3.12625c-0.38527,-0.68768 -1.20725,-0.98721 -1.67218,-1.58635c-0.49912,-0.64319 -0.28424,-1.3586 -0.51781,-2.06924c0,0 -0.10348,-0.32552 0.22204,-0.429c0.32553,-0.10348 0.429,0.22204 0.429,0.22204c0.18509,0.5979 0.00099,1.34423 0.40555,1.85621c0.48735,0.61671 1.3308,0.93869 1.72686,1.66799c0.66796,1.23001 0.48707,1.93453 1.69109,2.89074c1.64843,0.84663 1.66307,2.35654 2.75834,3.71893l0.142,0.15103c0,0 0.23286,0.24989 -0.01701,0.48276z" fill="url(#color-20)" stroke="none" stroke-width="0.5"/><path d="M310.51397,146.66608c-0.2907,0.17935 -0.47004,-0.11137 -0.47004,-0.11137l-0.14348,-0.23257c-0.80656,-1.34389 -0.12448,-2.71968 -0.93243,-4.02688c-0.88583,-1.44774 -2.34178,-1.83287 -3.70522,-2.61105c-0.97239,-0.55499 -1.68089,-1.99447 -2.14611,-2.97417c0,0 -0.14614,-0.30873 0.16259,-0.45489c0.30873,-0.14614 0.45488,0.1626 0.45488,0.1626c0.34191,0.72477 0.90042,1.89757 1.52969,2.42036c1.41397,1.1747 3.21076,1.36883 4.28558,3.09846c0.82533,1.34049 0.12411,2.76513 0.93243,4.02688l0.14348,0.23257c0,0 0.17934,0.2907 -0.11137,0.47004z" fill="url(#color-21)" stroke="none" stroke-width="0.5"/><g stroke-width="0"><path d="M313.47447,145.76424c1.07571,1.74365 0.5966,3.99073 -1.07014,5.01898c-1.66674,1.02826 -3.88991,0.44831 -4.96562,-1.29535c-1.07571,-1.74365 -0.5966,-3.99073 1.07013,-5.01899c1.66674,-1.02826 3.88992,-0.4483 4.96563,1.29535z" fill="url(#color-22)" stroke="none"/><g stroke="#a70000"><path d="M311.83364,148.76526c0.43,0.69699 0.22842,1.60143 -0.45024,2.02011c-0.67865,0.41868 -1.57739,0.19306 -2.00738,-0.50393c-0.43,-0.69699 -0.22842,-1.60143 0.45024,-2.02011c0.67865,-0.41868 1.57739,-0.19306 2.00738,0.50393z" fill="#960000"/><path d="M311.54031,148.94623c0.32736,0.53062 0.17389,1.21914 -0.34276,1.53789c-0.51664,0.31874 -1.20085,0.14699 -1.5282,-0.38363c-0.32736,-0.53062 -0.1739,-1.21915 0.34276,-1.53789c0.51664,-0.31874 1.20085,-0.14697 1.5282,0.38365z" fill="#000000"/></g></g></g><path d="M307.85922,135.10099c0.00791,0.01282 -1.72932,0.61634 -3.24131,1.56339c-1.4931,0.93522 -2.76096,2.21454 -2.79446,2.16025c-1.07571,-1.74365 -0.5966,-3.99073 1.07013,-5.01898c1.66674,-1.02826 3.88993,-0.44831 4.96564,1.29535z" fill="url(#color-23)" stroke="none" stroke-width="0"/></g><path d="M295.43217,135.46146c-0.60278,-0.5265 -0.01279,-1.14715 -0.01279,-1.14715l0.39104,-0.39148c2.07695,-3.09855 3.5557,-6.31784 6.92805,-8.41012c0.15461,-0.04982 0.31747,-0.09565 0.48475,-0.14084c-0.07218,-0.25439 -0.16601,-0.48424 -0.28945,-0.67558c-0.87243,-1.3525 -2.35934,-1.80252 -3.45738,-2.84412c-1.79708,-1.70471 -1.20105,-4.94129 -0.23187,-7.01195c0,0 0.36099,-0.75849 1.12331,-0.46337c0.76232,0.29513 0.40133,1.05361 0.40133,1.05361c-0.6556,1.34998 -1.37997,4.09315 -0.05804,5.23065c1.25002,1.07563 2.80923,1.6629 3.71024,3.16745c0.19021,0.31763 0.33886,0.6527 0.45731,1.00074c0.16865,-0.08373 0.32768,-0.17966 0.47214,-0.29214c0.58738,-0.45725 0.9756,-1.01948 1.29534,-1.61577c-0.69831,-2.07901 -2.96669,-3.17926 -3.24939,-5.46038c-0.14576,-1.17614 0.41478,-2.69513 0.67524,-3.86166c0,0 0.17996,-0.80548 1.004,-0.68884c0.82405,0.11664 0.64409,0.92213 0.64409,0.92213c-0.2186,0.97797 -0.77149,2.36196 -0.64591,3.34124c0.19921,1.55343 1.52725,2.61417 2.46782,3.90577c0.19707,-0.37079 0.41912,-0.72682 0.69813,-1.0507c0.80597,-0.93557 2.27285,-1.03538 2.77562,-2.31457c0.44576,-1.13417 0.89095,-3.65448 0.01551,-4.40622c0,0 -0.55313,-0.57494 0.08365,-1.151c0.63678,-0.57608 1.18991,-0.00116 1.18991,-0.00116c1.39506,1.60207 1.05837,5.43464 -0.48231,7.22268c-0.60904,0.70681 -1.79768,1.00504 -2.32671,1.64834c-0.4336,0.52726 -0.67975,1.46002 -1.0291,2.13028c0.63468,3.15015 0.42239,5.22144 3.13325,7.37419c1.33511,0.83633 2.6144,1.39043 3.14586,2.9694c0.34999,1.03976 0.15884,2.91099 0.85298,3.77745c1.22679,1.53133 2.44461,1.99549 2.9782,4.14438l0.20388,0.68407c0,0 0.22729,0.76619 -0.58498,1.04071c-0.81227,0.27451 -1.03955,-0.49169 -1.03955,-0.49169l-0.22325,-0.75585c-0.47211,-1.98976 -1.63672,-2.15603 -2.73275,-3.61757c-1.02238,-1.36334 -0.4501,-3.50614 -1.40529,-4.89299c-0.46708,-0.67814 -1.57544,-1.09449 -2.25426,-1.52146c-2.62856,-2.09094 -2.95906,-4.0912 -3.46271,-6.87788c-0.55236,0.54523 -1.15225,0.95027 -1.85995,1.28886c0.29883,1.92522 0.20039,4.03684 1.24614,5.73193c0.64049,0.59372 1.54733,1.18392 2.1327,1.79841c0.84211,0.88398 1.11369,2.62169 2.05786,3.35942c1.24367,0.97177 1.9172,1.48659 2.47864,3.0556l0.05333,0.41464c0,0 0.04567,0.80749 -0.79656,0.90925c-0.84222,0.10175 -0.8879,-0.70574 -0.8879,-0.70574l0.03006,0.00313c-0.49707,-1.42992 -0.99522,-1.52708 -2.06727,-2.44412c-1.00491,-0.8596 -1.21834,-2.49263 -2.12866,-3.42663c-0.63542,-0.65195 -1.5462,-1.25745 -2.22496,-1.90108c-0.79254,-1.28466 -1.3628,-2.76949 -1.54971,-4.30653c-0.06038,-0.49659 -0.06791,-1.15404 -0.11037,-1.81772c-0.02652,0.00827 -0.05318,0.01653 -0.07995,0.02479c-2.96663,1.81574 -4.36328,5.02233 -6.15873,7.75478l-0.58785,0.63827c0,0 -0.58999,0.62067 -1.19276,0.09417z" fill="url(#color-24)" stroke="none" stroke-width="0.5"/><path d="M321.32266,117.60698c0.53505,0.66554 -0.13049,1.20058 -0.13049,1.20058l-0.63414,0.50919c-1.93216,1.4314 -2.37615,3.82086 -4.14182,5.40469c-1.15251,1.03382 -3.2749,1.75489 -4.21772,2.90368c-1.07778,1.31322 0.11303,4.86952 0.57797,6.23309c0.11686,1.24525 0.16311,2.67795 -0.03284,4.05814c0.08918,-0.05674 0.17854,-0.11274 0.26811,-0.16794c2.37468,-1.19304 4.06631,-0.30683 6.52189,0.1113c0.5566,0.09477 1.90076,0.7849 2.4332,0.56415c1.76065,-0.72996 2.9824,-2.43789 4.71859,-3.27488c1.08508,-0.5231 2.29718,-0.39113 3.46346,-0.57917c0,0 0.8433,-0.13435 0.97765,0.70895c0.13435,0.8433 -0.70896,0.97764 -0.70896,0.97764c-0.90621,0.14279 -2.17133,0.00464 -2.99939,0.43526c-1.6927,0.88026 -3.0719,2.80862 -4.91256,3.35286c-2.82912,0.8365 -5.80349,-2.33046 -8.65358,-0.80926c-0.62207,0.38415 -1.23634,0.81309 -1.85089,1.25303c-0.41008,0.84631 -0.99378,1.59006 -1.80996,2.14899c-1.24065,0.84961 -2.55588,0.56827 -3.69792,1.68804c-1.86882,1.83238 -2.25578,4.27821 -4.90288,5.31411c0,0 -0.80059,0.29713 -1.0977,-0.50346c-0.29712,-0.80058 0.50345,-1.09771 0.50345,-1.09771c1.66398,-0.5691 2.38909,-2.22125 3.309,-3.65422c-1.7279,0.50199 -3.36942,1.14545 -4.36003,2.9623l-0.37934,0.3603c0,0 -0.72676,0.44835 -1.17512,-0.27841c-0.33414,-0.5416 -0.01566,-0.9286 0.16832,-1.09062c1.09063,-1.75499 3.32242,-3.24845 5.26194,-3.92758c1.02934,-0.36042 2.08312,-0.15881 3.04473,-0.63708c1.32295,-0.65801 2.56777,-1.55111 3.8081,-2.43566c0.62529,-1.59812 0.55841,-3.63182 0.43299,-5.12034c-0.71624,-2.02224 -1.69074,-5.76736 -0.22807,-7.67566c0.95813,-1.25004 3.211,-2.05659 4.41967,-3.11097c1.80311,-1.57292 2.24581,-3.97302 4.23515,-5.47995l0.5887,-0.47389c0,0 0.66553,-0.53503 1.20058,0.13049z" fill="url(#color-25)" stroke="none" stroke-width="0.5"/><path d="M319.63388,159.38578c-3.25155,0.59398 -3.35953,-1.69154 -5.68538,-2.7409c-0.83632,-0.37733 -2.18962,-0.04449 -2.96459,-0.02008c-2.42214,0.07629 -2.47097,0.13611 -4.74555,-1.20977c-2.46724,-1.45988 -2.39807,-4.20403 -4.70911,-5.33882c-2.30277,-0.90736 -5.94264,-3.91189 -6.34925,-6.66452c-0.02992,-0.20255 1.00763,-2.71967 0.73913,-3.43549c-0.39747,-1.0596 -1.71389,-1.54845 -2.24241,-2.54915c-1.25164,-2.36984 -0.78587,-5.41139 -0.88711,-7.88205c-0.04818,-1.17571 -0.9939,-2.20506 -1.01306,-3.3816c-0.01872,-1.14966 0.82378,-2.43068 0.66221,-3.64345c-0.1049,-0.78746 -0.78657,-1.5108 -0.64892,-2.29318c0.46366,-2.6355 4.03148,-5.00688 6.1819,-6.06032c1.04686,-0.87389 2.32641,-1.42818 3.53792,-2.05411c2.87116,-1.4834 4.00367,-4.29907 7.68742,-4.14005c1.93108,0.08337 3.90082,1.0284 4.77272,2.89133c0.23886,0.51037 -0.4257,1.09672 -0.34643,1.65461c0.09488,0.66766 1.32593,0.24704 1.98909,0.36955c1.48509,0.27434 2.97049,0.98815 4.03605,2.05835c1.68088,1.68818 4.04378,4.5241 4.97646,6.71743c0.22625,0.53206 0.05911,1.19111 0.32724,1.70334c0.2971,0.56757 2.71506,0.98187 2.72629,0.9889c0.93968,0.58786 1.63834,1.49337 2.45751,2.24006c-0.24885,0.73253 -0.63178,1.43248 -0.74654,2.19755c-0.29938,1.99569 2.59094,3.9143 3.22786,5.5512c0.59182,1.52101 0.56197,3.60801 0.19674,5.1475c-0.2307,0.9724 -0.94094,1.91968 -0.75484,2.90159c0.46022,2.42837 2.39426,3.58356 1.74257,6.38941c-0.24043,1.03515 -1.73294,3.24392 -2.91303,4.53843c-0.05811,0.61839 -0.48147,1.07655 -0.48147,1.07655c-1.21247,1.28478 -2.22495,4.20795 -4.04049,4.7253c-1.10336,0.31441 -2.17867,-0.43001 -3.26999,-0.97407c-0.27422,0.25829 -0.54347,0.50511 -0.80697,0.72729l-0.52229,0.44035c0,0 -1.10117,0.92845 -2.13364,0.06882zM322.19568,154.34729c0.75275,-0.68199 1.52939,-1.33127 2.32126,-1.78045c1.09812,-0.62291 2.49649,-0.59341 3.57584,-1.2483c0.81626,-0.49527 1.05223,-1.65083 1.50481,-2.35861c0.25635,-0.40091 0.75332,-0.64852 0.91449,-1.09627c0.42673,-1.1856 -1.6513,-3.73515 -1.82124,-4.90287c-0.38484,-2.6445 1.03317,-3.66708 0.96482,-6.09656c-0.09146,-3.25148 -5.87779,-6.07104 -2.83752,-9.45636c-1.72028,0.12204 -3.66616,-0.69891 -4.70205,-2.1373c-0.4563,-0.63359 -0.32958,-1.53519 -0.62858,-2.25647c-0.63493,-1.53168 -2.28098,-3.1433 -3.26412,-4.46833c-0.05296,-0.07138 -1.63984,-2.00059 -1.91744,-2.13596c-1.03589,-0.50518 -2.39365,-0.03264 -3.4088,-0.5783c-0.93194,-0.50093 -1.92392,-1.10675 -2.43959,-2.03062c-0.30349,-0.54374 0.35307,-1.23 0.27487,-1.84776c-0.07585,-0.59922 -1.11672,-0.54059 -1.72,-0.5701c-1.82545,-0.08926 -2.62689,1.4659 -3.96699,2.45838c-1.74487,1.29225 -3.56859,1.78923 -5.20751,3.1859c-1.74514,0.8549 -2.59801,1.63 -3.93625,2.99968c-0.23285,0.23833 -0.71818,0.34949 -0.73038,0.68248c-0.01857,0.50677 0.59137,0.86995 0.65508,1.37305c0.16971,1.34034 -0.62051,2.65211 -0.63497,4.00308c-0.01216,1.13559 0.92874,2.12159 1.00779,3.2545c0.1284,1.83975 -0.54687,4.71704 0.47831,6.45519c0.70747,1.19949 1.9955,1.55353 2.45473,3.0219c0.29695,0.94951 0.18746,1.9978 0.05676,2.98405c-0.06011,0.45351 -0.62894,0.76974 -0.61483,1.22699c0.01009,0.3272 0.45867,0.46768 0.6747,0.71364c1.33443,1.51928 1.77201,2.59516 3.70848,3.23143c0.74117,0.44349 1.62151,0.71112 2.22352,1.33049c1.46763,1.51001 0.94224,3.09658 2.80984,4.17921c2.42844,1.40775 4.72056,-0.06189 7.28934,1.01632c0.72595,0.30471 1.32497,0.85611 1.93807,1.35003c0.51862,0.4178 0.98707,1.54186 1.57507,1.22916c1.11372,-0.59231 2.17154,-1.66785 3.40249,-1.73123z" fill="url(#color-26)" stroke="none" stroke-width="0.5"/></g><path d="M-13.03937,367.54995l6.6066,-141.14114l489.26126,1.50151l8.63664,139.63963z" fill="url(#color-27)" stroke="none" stroke-width="0" stroke-linecap="butt"/><g data-paper-data="{&quot;index&quot;:null}" stroke="none" stroke-width="0" stroke-linecap="butt"><path d="M380.48974,242.61733v-183.27957h5.98463v183.27957z" fill="url(#color-28)"/><path d="M427.99279,242.61733v-183.27957h5.98464v183.27957z" fill="url(#color-29)"/><path d="M437.06042,253.53622l-53.95243,-66.28441h47.78644l53.95243,66.28441z" fill="url(#color-30)"/><path d="M437.06042,186.95714l-53.95243,-55.81129h47.78644l53.95243,55.81129z" fill="url(#color-31)"/><path d="M437.06042,113.64529l-53.95243,-38.60546h47.78644l53.95243,38.60546z" fill="url(#color-32)"/><path d="M482.97666,302.83763v-214.69893h5.98464v214.69893z" fill="url(#color-33)"/><path d="M435.47356,302.83763v-214.69893h5.98464v214.69893z" fill="url(#color-34)"/></g><g data-paper-data="{&quot;index&quot;:null}" stroke="none" stroke-width="0" stroke-linecap="butt"><path d="M462.48972,328.15267v-224.25891h7.32273v224.25891z" fill="url(#color-35)"/><path d="M520.61386,328.15267v-224.25891h7.32274v224.25891z" fill="url(#color-36)"/><path d="M531.7089,370.51301l-66.01561,-81.10489h58.47097l66.01561,81.10489z" fill="url(#color-37)"/><path d="M531.7089,286.04742l-66.01561,-68.29009h58.47097l66.01561,68.29009z" fill="url(#color-38)"/><path d="M531.7089,186.34389l-66.01561,-50.23723h58.47097l66.01561,50.23723z" fill="url(#color-39)"/><path d="M587.89154,401.8378v-262.7033h7.32274v262.7033z" fill="url(#color-40)"/><path d="M529.76726,401.8378v-262.7033h7.32274v262.7033z" fill="url(#color-41)"/></g><g data-paper-data="{&quot;index&quot;:null}" stroke="none" stroke-width="0" stroke-linecap="butt"><path d="M339.07255,282.76644v-68.09003l63.3813,-11.02207v68.09004z" fill="#9f8d79"/><path d="M299.36503,258.55952v-65.68315l40.10803,21.80013v68.09004z" fill="url(#color-42)"/><path d="M402.45389,203.98029l-62.98077,11.02207l-40.19665,-22.07536l63.96559,-12.10481z" fill="url(#color-43)"/></g><g data-paper-data="{&quot;index&quot;:null}" stroke="none" stroke-width="0" stroke-linecap="butt"><path d="M337.42521,208.94179v-48.73204l45.362,-7.8885v48.73205z" fill="#9f8d79"/><path d="M309.00651,191.61686v-47.00943l28.70532,15.60236v48.73204z" fill="url(#color-44)"/><path d="M382.78723,152.55445l-45.07535,7.8885l-28.76874,-15.79934l45.78018,-8.66342z" fill="url(#color-45)"/></g><g stroke="none" stroke-linecap="butt"><path d="M93.22974,242.61733v-183.27957h5.98463v183.27957z" fill="url(#color-46)" stroke-width="0"/><path d="M45.72667,242.61733v-183.27957h5.98464v183.27957z" fill="url(#color-47)" stroke-width="0"/><path d="M-5.14278,253.53622l53.95243,-66.28441h47.78644l-53.95243,66.28441z" fill="url(#color-48)" stroke-width="0"/><path d="M-5.14278,186.95714l53.95243,-55.81129h47.78644l-53.95243,55.81129z" fill="url(#color-49)" stroke-width="0"/><path d="M-5.14278,113.64529l53.95243,-38.60546h47.78644l-53.95243,38.60546z" fill="url(#color-50)" stroke-width="0"/><path d="M-9.25725,302.83763v-214.69893h5.98464v214.69893z" fill="url(#color-51)" stroke-width="0"/><g data-paper-data="{&quot;index&quot;:null}" stroke-width="0"><path d="M40.62889,84.60306l-0.60194,-31.58648l29.49957,4.55274l0.60194,31.58647z" fill="#9f8d79"/><path d="M69.9427,89.15935l-0.60194,-31.58648l18.4131,-10.46749l0.58066,30.46994z" fill="url(#color-52)"/><path d="M58.01521,42.07824l29.78018,5.04985l-18.45178,10.59595l-29.31376,-4.55628z" fill="url(#color-53)"/></g><path d="M1.44725,198.10132c0,0 -1.46958,-9.85889 1.4642,-12.97809c3.46111,-3.67986 11.31651,-12.03173 11.31651,-12.03173l27.75501,0.70411c0,0 -7.8669,8.3641 -11.3294,12.04544c-2.93097,3.11621 -2.11798,12.96439 -2.11798,12.96439z" fill="url(#color-54)" stroke-width="NaN"/><path d="M38.24587,302.83763v-214.69893h5.98464v214.69893z" fill="url(#color-55)" stroke-width="0"/></g><g data-paper-data="{&quot;index&quot;:null}" stroke="none" stroke-width="0" stroke-linecap="butt"><path d="M9.89159,328.15267v-224.25891h7.32273v224.25891z" fill="url(#color-56)"/><path d="M-48.2326,328.15267v-224.25891h7.32274v224.25891z" fill="url(#color-57)"/><path d="M-110.47589,370.51301l66.01561,-81.10489h58.47097l-66.01561,81.10489z" fill="url(#color-58)"/><path d="M-110.47589,286.04742l66.01561,-68.29009h58.47097l-66.01561,68.29009z" fill="url(#color-59)"/><path d="M-110.47589,186.34389l66.01561,-50.23723h58.47097l-66.01561,50.23723z" fill="url(#color-60)"/><path d="M-115.51028,401.8378v-262.7033h7.32274v262.7033z" fill="url(#color-61)"/><path d="M-57.38601,401.8378v-262.7033h7.32274v262.7033z" fill="url(#color-62)"/></g><g fill="#4a81a0" stroke="none" stroke-width="0" stroke-linecap="butt"><path d="M338.23563,363.29728c0,7.1797 -21.93805,13 -49,13c-27.06195,0 -49,-5.8203 -49,-13c0,-7.1797 21.93805,-13 49,-13c27.06195,0 49,5.8203 49,13z"/><path d="M288.23562,348.29722c0,3.58985 -7.94695,6.5 -17.75,6.5c-9.80305,0 -17.75,-2.91015 -17.75,-6.5c0,-3.58985 7.94695,-6.5 17.75,-6.5c9.80305,0 17.75,2.91015 17.75,6.5z"/></g><g><path d="M526.11119,387.77519l-202.49492,-34.0356" fill="none" stroke="#909090" stroke-width="2" stroke-linecap="round"/><path d="M325.66391,350.15601l201.69883,32.92887c0,0 7.86516,1.59032 6.56071,13.60239c-1.16198,10.70022 -10.67682,11.60996 -10.67682,11.60996l-201.69883,-32.92887c0,0 -6.25932,-0.54921 -4.24584,-13.87953c1.89737,-12.56156 8.36195,-11.33282 8.36195,-11.33282z" fill="url(#color-63)" stroke="none" stroke-width="0" stroke-linecap="butt"/><path d="M333.11035,350.52611l4.75705,0.77662c0,0 -3.30958,8.30616 -4.03299,12.73725c-0.75114,4.60092 -0.15591,14.41676 -0.15591,14.41676l-4.5192,-0.73779c0,0 -0.83307,-9.85467 -0.08193,-14.45559c0.72341,-4.4311 4.03298,-12.73725 4.03298,-12.73725z" fill="url(#color-64)" stroke="none" stroke-width="0" stroke-linecap="butt"/><path d="M357.80817,354.80243l4.75705,0.77662c0,0 -3.30958,8.30616 -4.03299,12.73725c-0.75114,4.60092 -0.15591,14.41676 -0.15591,14.41676l-4.5192,-0.73779c0,0 -0.83308,-9.85467 -0.08194,-14.45559c0.72341,-4.4311 4.03299,-12.73725 4.03299,-12.73725z" fill="url(#color-65)" stroke="none" stroke-width="0" stroke-linecap="butt"/><path d="M384.92338,359.22924l4.75705,0.77662c0,0 -3.30958,8.30616 -4.03299,12.73725c-0.75114,4.60092 -0.15591,14.41676 -0.15591,14.41676l-4.5192,-0.73779c0,0 -0.83308,-9.85467 -0.08194,-14.45559c0.72341,-4.4311 4.03299,-12.73725 4.03299,-12.73725z" fill="url(#color-66)" stroke="none" stroke-width="0" stroke-linecap="butt"/><path d="M409.62116,363.50556l4.75705,0.77662c0,0 -3.30958,8.30616 -4.03299,12.73725c-0.75114,4.60092 -0.15591,14.41675 -0.15591,14.41675l-4.5192,-0.73779c0,0 -0.83307,-9.85466 -0.08193,-14.45558c0.72341,-4.4311 4.03298,-12.73725 4.03298,-12.73725z" fill="url(#color-67)" stroke="none" stroke-width="0" stroke-linecap="butt"/><path d="M434.19766,367.02948l4.75704,0.77662c0,0 -3.30957,8.30616 -4.03298,12.73725c-0.75114,4.60092 -0.15592,14.41676 -0.15592,14.41676l-4.5192,-0.73779c0,0 -0.83307,-9.85467 -0.08193,-14.45559c0.72341,-4.4311 4.03299,-12.73725 4.03299,-12.73725z" fill="url(#color-68)" stroke="none" stroke-width="0" stroke-linecap="butt"/><path d="M458.89547,371.30575l4.75705,0.77662c0,0 -3.30958,8.30616 -4.03299,12.73725c-0.75114,4.60092 -0.15591,14.41676 -0.15591,14.41676l-4.5192,-0.73779c0,0 -0.83308,-9.85467 -0.08194,-14.45559c0.72341,-4.4311 4.03298,-12.73725 4.03298,-12.73725z" fill="url(#color-69)" stroke="none" stroke-width="0" stroke-linecap="butt"/><path d="M486.04948,375.49468l4.75705,0.77662c0,0 -3.30957,8.30616 -4.03298,12.73725c-0.75114,4.60092 -0.15591,14.41676 -0.15591,14.41676l-4.5192,-0.73779c0,0 -0.83308,-9.85467 -0.08194,-14.45559c0.72341,-4.4311 4.03299,-12.73725 4.03299,-12.73725z" fill="url(#color-70)" stroke="none" stroke-width="0" stroke-linecap="butt"/><path d="M510.74729,379.77096l4.75705,0.77662c0,0 -3.30957,8.30616 -4.03298,12.73725c-0.75114,4.60092 -0.15591,14.41676 -0.15591,14.41676l-4.5192,-0.73779c0,0 -0.83307,-9.85467 -0.08193,-14.45559c0.72341,-4.4311 4.03298,-12.73725 4.03298,-12.73725z" fill="url(#color-71)" stroke="none" stroke-width="0" stroke-linecap="butt"/></g><g stroke="none" stroke-width="0" stroke-linecap="butt"><path d="M149.84645,329.10159v-224.25891h5.9745v224.25891z" fill="url(#color-72)"/><path d="M20.42746,327.60159v-224.25891h5.97451v224.25891z" fill="url(#color-73)"/><path d="M-3.02369,339.96195l26.52897,-50.60489l129.70187,1l-26.93691,50.60489z" fill="url(#color-74)"/><path d="M-3.02369,255.49645l26.52897,-37.79009l129.70187,1l-26.93691,37.79009z" fill="url(#color-75)"/><path d="M-3.43163,155.79281l26.93691,-19.73723l129.70187,1l-26.93691,19.73723z" fill="url(#color-76)"/><path d="M-3.86763,378.78674v-262.7033h5.97451v262.7033z" fill="url(#color-77)"/><g data-paper-data="{&quot;index&quot;:null}"><path d="M52.14635,323.26651v-44.26268l76.30751,-4.26371v44.26269z" fill="#9f8d79"/><path d="M26.33407,307.53049v-42.69806l26.07267,14.17142v44.26268z" fill="url(#color-78)"/><path d="M128.45389,274.95196l-76.04714,4.26371l-26.13028,-14.35033l76.68733,-4.96756z" fill="#8f7e6b"/></g><path d="M125.55138,380.28674v-262.7033h5.97451v262.7033z" fill="url(#color-79)"/></g><g data-paper-data="{&quot;index&quot;:null}" stroke="none" stroke-width="0" stroke-linecap="butt"><path d="M323.45967,329.10159v-224.25891h5.9745v224.25891z" fill="url(#color-80)"/><path d="M452.87864,327.60159v-224.25891h5.97451v224.25891z" fill="url(#color-81)"/><path d="M353.01041,340.96195l-26.93691,-50.60489l129.70187,-1l26.52897,50.60489z" fill="url(#color-82)"/><path d="M353.01041,256.49642l-26.93691,-37.79009l129.70187,-1l26.52897,37.79009z" fill="url(#color-83)"/><path d="M353.01041,156.79281l-26.93691,-19.73723l129.70187,-1l26.93691,19.73723z" fill="url(#color-84)"/><path d="M477.17378,378.78674v-262.7033h5.97451v262.7033z" fill="url(#color-85)"/><path d="M347.75477,380.28674v-262.7033h5.97451v262.7033z" fill="url(#color-86)"/></g></g></g></svg>