<svg version="1.1" xmlns="http://www.w3.org/2000/svg" xmlns:xlink="http://www.w3.org/1999/xlink" width="239.74359" height="214.90959" viewBox="0,0,239.74359,214.90959"><defs><linearGradient x1="222.8677" y1="145.0059" x2="222.8677" y2="198.37559" gradientUnits="userSpaceOnUse" id="color-1"><stop offset="0" stop-color="#ff8500" stop-opacity="0"/><stop offset="1" stop-color="#ff8500"/></linearGradient><linearGradient x1="222.8677" y1="151.62397" x2="222.8677" y2="194.59082" gradientUnits="userSpaceOnUse" id="color-2"><stop offset="0" stop-color="#ffda00" stop-opacity="0"/><stop offset="1" stop-color="#ffda00"/></linearGradient><linearGradient x1="259.25529" y1="144.98049" x2="259.25529" y2="198.35018" gradientUnits="userSpaceOnUse" id="color-3"><stop offset="0" stop-color="#ff8500" stop-opacity="0"/><stop offset="1" stop-color="#ff8500"/></linearGradient><linearGradient x1="259.25529" y1="151.59856" x2="259.25529" y2="194.56538" gradientUnits="userSpaceOnUse" id="color-4"><stop offset="0" stop-color="#ffda00" stop-opacity="0"/><stop offset="1" stop-color="#ffda00"/></linearGradient><linearGradient x1="224.24059" y1="138.69063" x2="224.24059" y2="192.06032" gradientUnits="userSpaceOnUse" id="color-5"><stop offset="0" stop-color="#ff8500" stop-opacity="0"/><stop offset="1" stop-color="#ff8500"/></linearGradient><linearGradient x1="224.24059" y1="145.30871" x2="224.24059" y2="188.27555" gradientUnits="userSpaceOnUse" id="color-6"><stop offset="0" stop-color="#ffda00" stop-opacity="0"/><stop offset="1" stop-color="#ffda00"/></linearGradient><linearGradient x1="258.4154" y1="132.35463" x2="258.4154" y2="185.72432" gradientUnits="userSpaceOnUse" id="color-7"><stop offset="0" stop-color="#ff8500" stop-opacity="0"/><stop offset="1" stop-color="#ff8500"/></linearGradient><linearGradient x1="258.4154" y1="138.9727" x2="258.4154" y2="181.93955" gradientUnits="userSpaceOnUse" id="color-8"><stop offset="0" stop-color="#ffda00" stop-opacity="0"/><stop offset="1" stop-color="#ffda00"/></linearGradient><linearGradient x1="249.50714" y1="155.25073" x2="249.50714" y2="208.62042" gradientUnits="userSpaceOnUse" id="color-9"><stop offset="0" stop-color="#ff8500" stop-opacity="0"/><stop offset="1" stop-color="#ff8500"/></linearGradient><linearGradient x1="249.50714" y1="161.8688" x2="249.50714" y2="204.83565" gradientUnits="userSpaceOnUse" id="color-10"><stop offset="0" stop-color="#ffda00" stop-opacity="0"/><stop offset="1" stop-color="#ffda00"/></linearGradient><linearGradient x1="232.67793" y1="156.00428" x2="232.67793" y2="209.37397" gradientUnits="userSpaceOnUse" id="color-11"><stop offset="0" stop-color="#ff8500" stop-opacity="0"/><stop offset="1" stop-color="#ff8500"/></linearGradient><linearGradient x1="232.67793" y1="162.62236" x2="232.67793" y2="205.58918" gradientUnits="userSpaceOnUse" id="color-12"><stop offset="0" stop-color="#ffda00" stop-opacity="0"/><stop offset="1" stop-color="#ffda00"/></linearGradient><linearGradient x1="217.0989" y1="164.57272" x2="217.0989" y2="217.94244" gradientUnits="userSpaceOnUse" id="color-13"><stop offset="0" stop-color="#ff8500" stop-opacity="0"/><stop offset="1" stop-color="#ff8500"/></linearGradient><linearGradient x1="217.0989" y1="171.1908" x2="217.0989" y2="214.15764" gradientUnits="userSpaceOnUse" id="color-14"><stop offset="0" stop-color="#ffda00" stop-opacity="0"/><stop offset="1" stop-color="#ffda00"/></linearGradient><linearGradient x1="231.12002" y1="171.58328" x2="231.12002" y2="224.953" gradientUnits="userSpaceOnUse" id="color-15"><stop offset="0" stop-color="#ff8500" stop-opacity="0"/><stop offset="1" stop-color="#ff8500"/></linearGradient><linearGradient x1="231.12002" y1="178.20136" x2="231.12002" y2="221.1682" gradientUnits="userSpaceOnUse" id="color-16"><stop offset="0" stop-color="#ffda00" stop-opacity="0"/><stop offset="1" stop-color="#ffda00"/></linearGradient><linearGradient x1="231.12002" y1="171.58328" x2="231.12002" y2="224.953" gradientUnits="userSpaceOnUse" id="color-17"><stop offset="0" stop-color="#ff8500" stop-opacity="0"/><stop offset="1" stop-color="#ff8500"/></linearGradient><linearGradient x1="231.12002" y1="178.20136" x2="231.12002" y2="221.1682" gradientUnits="userSpaceOnUse" id="color-18"><stop offset="0" stop-color="#ffda00" stop-opacity="0"/><stop offset="1" stop-color="#ffda00"/></linearGradient><linearGradient x1="256.8254" y1="152.49899" x2="256.8254" y2="205.86871" gradientUnits="userSpaceOnUse" id="color-19"><stop offset="0" stop-color="#ff8500" stop-opacity="0"/><stop offset="1" stop-color="#ff8500"/></linearGradient><linearGradient x1="256.8254" y1="159.11707" x2="256.8254" y2="202.08391" gradientUnits="userSpaceOnUse" id="color-20"><stop offset="0" stop-color="#ffda00" stop-opacity="0"/><stop offset="1" stop-color="#ffda00"/></linearGradient><linearGradient x1="258.3833" y1="170.41486" x2="258.3833" y2="223.78455" gradientUnits="userSpaceOnUse" id="color-21"><stop offset="0" stop-color="#ff8500" stop-opacity="0"/><stop offset="1" stop-color="#ff8500"/></linearGradient><linearGradient x1="258.3833" y1="177.03294" x2="258.3833" y2="219.99976" gradientUnits="userSpaceOnUse" id="color-22"><stop offset="0" stop-color="#ffda00" stop-opacity="0"/><stop offset="1" stop-color="#ffda00"/></linearGradient><linearGradient x1="263.83598" y1="169.24641" x2="263.83598" y2="222.6161" gradientUnits="userSpaceOnUse" id="color-23"><stop offset="0" stop-color="#ff8500" stop-opacity="0"/><stop offset="1" stop-color="#ff8500"/></linearGradient><linearGradient x1="263.83598" y1="175.86449" x2="263.83598" y2="218.83131" gradientUnits="userSpaceOnUse" id="color-24"><stop offset="0" stop-color="#ffda00" stop-opacity="0"/><stop offset="1" stop-color="#ffda00"/></linearGradient><linearGradient x1="210.86053" y1="173.56827" x2="210.86053" y2="226.93799" gradientUnits="userSpaceOnUse" id="color-25"><stop offset="0" stop-color="#ff8500" stop-opacity="0"/><stop offset="1" stop-color="#ff8500"/></linearGradient><linearGradient x1="210.86053" y1="180.18635" x2="210.86053" y2="223.15319" gradientUnits="userSpaceOnUse" id="color-26"><stop offset="0" stop-color="#ffda00" stop-opacity="0"/><stop offset="1" stop-color="#ffda00"/></linearGradient><linearGradient x1="235.40428" y1="171.58328" x2="235.40428" y2="224.953" gradientUnits="userSpaceOnUse" id="color-27"><stop offset="0" stop-color="#ff8500" stop-opacity="0"/><stop offset="1" stop-color="#ff8500"/></linearGradient><linearGradient x1="235.40428" y1="178.20136" x2="235.40428" y2="221.1682" gradientUnits="userSpaceOnUse" id="color-28"><stop offset="0" stop-color="#ffda00" stop-opacity="0"/><stop offset="1" stop-color="#ffda00"/></linearGradient></defs><g transform="translate(-120.12821,-72.5452)"><g data-paper-data="{&quot;isPaintingLayer&quot;:true}" fill-rule="nonzero" stroke-width="0" stroke-linecap="butt" stroke-linejoin="miter" stroke-miterlimit="10" stroke-dasharray="" stroke-dashoffset="0" style="mix-blend-mode: normal"><path d="M120.12821,287.45479v-214.90959h239.74359v214.90959z" fill="#ca6800" stroke="none"/><g data-paper-data="{&quot;index&quot;:null}" stroke="#000000"><path d="M241.93455,153.01901c2.98219,6.59376 4.72854,13.88001 4.72854,18.67177c0,14.73766 -10.65353,26.68486 -23.79539,26.68486c-13.14183,0 -23.79542,-11.94723 -23.79542,-26.68486c0,-1.32347 0.72283,-7.28306 3.00796,-13.9311c3.39057,-9.86404 10.15072,-15.80471 10.15072,-15.80471c0,0 2.87753,18.18264 4.39121,16.93753c3.96081,-3.2581 8.19343,-12.42096 8.19343,-12.42096c0,0 -1.76066,20.12073 3.66099,18.59047c5.42166,-1.53026 3.85732,-28.71597 3.85732,-28.71597c0,0 5.57668,7.77581 9.60065,16.67294z" fill="url(#color-1)"/><path d="M239.92192,158.07512c2.66741,5.30849 4.22941,11.17451 4.22941,15.03226c0,11.86495 -9.52901,21.48341 -21.2836,21.48341c-11.75459,0 -21.28357,-9.61846 -21.28357,-21.48341c0,-1.06548 0.64652,-5.86343 2.69045,-11.21562c3.03263,-7.94133 6.21477,-12.72404 6.21477,-12.72404c0,0 5.43821,14.63847 6.7921,13.63606c3.5427,-2.62303 5.50571,-9.99984 5.50571,-9.99984c0,0 0.24801,16.1988 5.09739,14.9668c4.84935,-1.23197 6.57495,-18.09496 6.57495,-18.09496c0,0 1.86315,1.23647 5.46236,8.39938z" fill="url(#color-2)"/></g><g data-paper-data="{&quot;index&quot;:null}" stroke="#000000"><path d="M235.4599,171.66526c0,-4.79174 1.74635,-12.07799 4.72854,-18.67175c4.02398,-8.89715 9.60063,-16.67294 9.60063,-16.67294c0,0 -1.56434,27.18574 3.85732,28.716c5.42166,1.53029 3.66099,-18.59047 3.66099,-18.59047c0,0 4.23262,9.16289 8.19343,12.42096c1.51368,1.24511 4.39121,-16.93756 4.39121,-16.93756c0,0 6.76015,5.9407 10.15072,15.80474c2.28513,6.64804 3.00796,12.60763 3.00796,13.93107c0,14.73763 -10.65356,26.68486 -23.79542,26.68486c-13.14183,0 -23.79539,-11.94723 -23.79539,-26.68486z" fill="url(#color-3)"/><path d="M237.97169,173.08195c0,-3.85773 1.56199,-9.72375 4.22941,-15.03223c3.59922,-7.16291 5.46239,-8.39938 5.46239,-8.39938c0,0 1.72557,16.86299 6.57495,18.09499c4.84937,1.23197 5.09736,-14.96683 5.09736,-14.96683c0,0 1.96304,7.37684 5.50574,9.99987c1.35389,1.00242 6.7921,-13.63606 6.7921,-13.63606c0,0 3.18214,4.78271 6.2148,12.72404c2.0439,5.35219 2.69042,10.15012 2.69042,11.21562c0,11.86495 -9.52895,21.48341 -21.28357,21.48341c-11.75459,0 -21.28357,-9.61846 -21.28357,-21.48341z" fill="url(#color-4)"/></g><g stroke="#000000"><path d="M248.03601,165.37549c0,14.73763 -10.65356,26.68486 -23.79539,26.68486c-13.14185,0 -23.79542,-11.9472 -23.79542,-26.68486c0,-1.32344 0.72283,-7.28306 3.00796,-13.9311c3.39057,-9.86404 10.15072,-15.80471 10.15072,-15.80471c0,0 2.87753,18.18267 4.39121,16.93756c3.96081,-3.25807 8.19343,-12.42096 8.19343,-12.42096c0,0 -1.76066,20.12076 3.66099,18.59047c5.42166,-1.53026 3.85732,-28.71597 3.85732,-28.71597c0,0 5.57665,7.77579 9.60063,16.67291c2.98219,6.59376 4.72857,13.88001 4.72857,18.67177z" fill="url(#color-5)"/><path d="M245.52419,166.79212c0,11.86495 -9.52898,21.48344 -21.28357,21.48344c-11.75462,0 -21.2836,-9.61846 -21.2836,-21.48344c0,-1.0655 0.64655,-5.86343 2.69045,-11.21562c3.03266,-7.94133 6.2148,-12.72404 6.2148,-12.72404c0,0 5.43821,14.63847 6.7921,13.63606c3.5427,-2.62303 5.50571,-9.99984 5.50571,-9.99984c0,0 0.24801,16.19878 5.09736,14.9668c4.84937,-1.232 6.57498,-18.09496 6.57498,-18.09496c0,0 1.86315,1.23647 5.46236,8.39938c2.66741,5.30849 4.22941,11.17451 4.22941,15.03226z" fill="url(#color-6)"/></g><g stroke="#000000"><path d="M282.21078,159.03949c0,14.73763 -10.65356,26.68486 -23.79539,26.68486c-13.14185,0 -23.79542,-11.9472 -23.79542,-26.68486c0,-1.32344 0.72283,-7.28306 3.00796,-13.9311c3.39057,-9.86404 10.15072,-15.80471 10.15072,-15.80471c0,0 2.87753,18.18267 4.39121,16.93753c3.96081,-3.25807 8.19343,-12.42096 8.19343,-12.42096c0,0 -1.76066,20.12073 3.66102,18.59047c5.42166,-1.53026 3.85729,-28.71597 3.85729,-28.71597c0,0 5.57665,7.77579 9.60063,16.67291c2.98219,6.59376 4.72854,13.88001 4.72854,18.67177z" fill="url(#color-7)"/><path d="M279.69896,160.45614c0,11.86495 -9.52901,21.48341 -21.2836,21.48341c-11.75459,0 -21.28357,-9.61846 -21.28357,-21.48341c0,-1.0655 0.64655,-5.86343 2.69045,-11.21562c3.03266,-7.94133 6.21477,-12.72404 6.21477,-12.72404c0,0 5.43821,14.63847 6.7921,13.63606c3.5427,-2.62303 5.50574,-9.99984 5.50574,-9.99984c0,0 0.24801,16.19878 5.09736,14.9668c4.84937,-1.232 6.57498,-18.09496 6.57498,-18.09496c0,0 1.86315,1.23647 5.46236,8.39938c2.66741,5.30849 4.22941,11.17451 4.22941,15.03223z" fill="url(#color-8)"/></g><g data-paper-data="{&quot;index&quot;:null}" stroke="#000000"><path d="M230.4403,163.26381c4.02398,-8.89713 9.60063,-16.67294 9.60063,-16.67294c0,0 -1.56437,27.18571 3.85729,28.71597c5.42166,1.53026 3.66102,-18.59047 3.66102,-18.59047c0,0 4.23262,9.16286 8.19343,12.42096c1.51368,1.24511 4.39121,-16.93753 4.39121,-16.93753c0,0 6.76015,5.94067 10.15072,15.80471c2.28513,6.64804 3.00796,12.60763 3.00796,13.9311c0,14.73763 -10.65356,26.68486 -23.79542,26.68486c-13.14185,0 -23.79539,-11.9472 -23.79539,-26.68486c0,-4.79177 1.74635,-12.07799 4.72854,-18.67175z" fill="url(#color-9)"/><path d="M232.45298,168.31998c3.59922,-7.16291 5.46236,-8.39938 5.46236,-8.39938c0,0 1.7256,16.86299 6.57495,18.09496c4.84937,1.232 5.09736,-14.9668 5.09736,-14.9668c0,0 1.96304,7.37682 5.50574,9.99984c1.35389,1.00242 6.7921,-13.63606 6.7921,-13.63606c0,0 3.18214,4.78271 6.2148,12.72404c2.04393,5.35219 2.69045,10.15015 2.69045,11.21562c0,11.86495 -9.52901,21.48341 -21.2836,21.48341c-11.75462,0 -21.28357,-9.61846 -21.28357,-21.48341c0,-3.85775 1.56199,-9.72377 4.22941,-15.03226z" fill="url(#color-10)"/></g><g data-paper-data="{&quot;index&quot;:null}" stroke="#000000"><path d="M256.47334,182.68912c0,14.73763 -10.65356,26.68486 -23.79542,26.68486c-13.14185,0 -23.79539,-11.9472 -23.79539,-26.68486c0,-1.32344 0.72283,-7.28306 3.00796,-13.9311c3.39057,-9.86404 10.15072,-15.80471 10.15072,-15.80471c0,0 2.87756,18.18267 4.39121,16.93756c3.96081,-3.25807 8.19343,-12.42096 8.19343,-12.42096c0,0 -1.76066,20.12073 3.66099,18.59047c5.42166,-1.53026 3.85732,-28.71597 3.85732,-28.71597c0,0 5.57665,7.77579 9.60063,16.67294c2.98219,6.59376 4.72854,13.88001 4.72854,18.67177z" fill="url(#color-11)"/><path d="M253.9615,184.10577c0,11.86495 -9.52898,21.48341 -21.28357,21.48341c-11.75459,0 -21.2836,-9.61846 -21.2836,-21.48341c0,-1.0655 0.64655,-5.86343 2.69045,-11.21562c3.03266,-7.94133 6.2148,-12.72404 6.2148,-12.72404c0,0 5.43821,14.63847 6.7921,13.63606c3.5427,-2.62303 5.50574,-9.99984 5.50574,-9.99984c0,0 0.24799,16.19878 5.09736,14.9668c4.84937,-1.232 6.57495,-18.09499 6.57495,-18.09499c0,0 1.86317,1.23647 5.46239,8.39938c2.66741,5.30849 4.22941,11.17451 4.22941,15.03223z" fill="url(#color-12)"/></g><g data-paper-data="{&quot;index&quot;:null}" stroke="#000000"><path d="M240.89432,191.25758c0,14.73763 -10.65356,26.68486 -23.79542,26.68486c-13.14185,0 -23.79539,-11.9472 -23.79539,-26.68486c0,-1.32344 0.72283,-7.28306 3.00796,-13.9311c3.39057,-9.86404 10.15072,-15.80471 10.15072,-15.80471c0,0 2.87756,18.18267 4.39121,16.93756c3.96081,-3.25807 8.19343,-12.42096 8.19343,-12.42096c0,0 -1.76066,20.12073 3.66099,18.59047c5.42166,-1.53026 3.85732,-28.71597 3.85732,-28.71597c0,0 5.57665,7.77579 9.60063,16.67294c2.98219,6.59376 4.72854,13.88001 4.72854,18.67177z" fill="url(#color-13)"/><path d="M238.38247,192.67424c0,11.86495 -9.52898,21.48341 -21.28357,21.48341c-11.75459,0 -21.2836,-9.61846 -21.2836,-21.48341c0,-1.0655 0.64655,-5.86343 2.69045,-11.21562c3.03266,-7.94133 6.2148,-12.72404 6.2148,-12.72404c0,0 5.43821,14.63847 6.7921,13.63606c3.5427,-2.62303 5.50574,-9.99984 5.50574,-9.99984c0,0 0.24799,16.19878 5.09736,14.9668c4.84937,-1.232 6.57495,-18.09499 6.57495,-18.09499c0,0 1.86317,1.23647 5.46239,8.39938c2.66741,5.30849 4.22941,11.17451 4.22941,15.03223z" fill="url(#color-14)"/></g><g data-paper-data="{&quot;index&quot;:null}" stroke="#000000"><path d="M207.32464,198.26814c0,-4.79177 1.74635,-12.07801 4.72854,-18.67177c4.02398,-8.89715 9.60063,-16.67294 9.60063,-16.67294c0,0 -1.56434,27.18571 3.85732,28.71597c5.42166,1.53026 3.66099,-18.59047 3.66099,-18.59047c0,0 4.23262,9.16289 8.19343,12.42096c1.51368,1.24511 4.39121,-16.93756 4.39121,-16.93756c0,0 6.76015,5.94067 10.15072,15.80471c2.28513,6.64804 3.00796,12.60763 3.00796,13.9311c0,14.73766 -10.65356,26.68486 -23.79539,26.68486c-13.14185,0 -23.79542,-11.94723 -23.79542,-26.68486z" fill="url(#color-15)"/><path d="M209.83643,199.6848c0,-3.85775 1.56199,-9.72375 4.22941,-15.03223c3.59922,-7.16291 5.46239,-8.39938 5.46239,-8.39938c0,0 1.7256,16.86302 6.57495,18.09499c4.84937,1.23197 5.09736,-14.9668 5.09736,-14.9668c0,0 1.96304,7.37684 5.50574,9.99984c1.35389,1.00242 6.7921,-13.63606 6.7921,-13.63606c0,0 3.18214,4.78271 6.2148,12.72404c2.0439,5.35219 2.69045,10.15015 2.69045,11.21562c0,11.86495 -9.52898,21.48341 -21.2836,21.48341c-11.75459,0 -21.28357,-9.61846 -21.28357,-21.48341z" fill="url(#color-16)"/></g><g data-paper-data="{&quot;index&quot;:null}" stroke="#000000"><path d="M207.32464,198.26814c0,-4.79177 1.74635,-12.07801 4.72854,-18.67177c4.02398,-8.89715 9.60063,-16.67294 9.60063,-16.67294c0,0 -1.56434,27.18571 3.85732,28.71597c5.42166,1.53026 3.66099,-18.59047 3.66099,-18.59047c0,0 4.23262,9.16289 8.19343,12.42096c1.51368,1.24511 4.39121,-16.93756 4.39121,-16.93756c0,0 6.76015,5.94067 10.15072,15.80471c2.28513,6.64804 3.00796,12.60763 3.00796,13.9311c0,14.73766 -10.65356,26.68486 -23.79539,26.68486c-13.14185,0 -23.79542,-11.94723 -23.79542,-26.68486z" fill="url(#color-17)"/><path d="M209.83643,199.6848c0,-3.85775 1.56199,-9.72375 4.22941,-15.03223c3.59922,-7.16291 5.46239,-8.39938 5.46239,-8.39938c0,0 1.7256,16.86302 6.57495,18.09499c4.84937,1.23197 5.09736,-14.9668 5.09736,-14.9668c0,0 1.96304,7.37684 5.50574,9.99984c1.35389,1.00242 6.7921,-13.63606 6.7921,-13.63606c0,0 3.18214,4.78271 6.2148,12.72404c2.0439,5.35219 2.69045,10.15015 2.69045,11.21562c0,11.86495 -9.52898,21.48341 -21.2836,21.48341c-11.75459,0 -21.28357,-9.61846 -21.28357,-21.48341z" fill="url(#color-18)"/></g><g data-paper-data="{&quot;index&quot;:null}" stroke="#000000"><path d="M233.03001,179.18385c0,-4.79177 1.74635,-12.07801 4.72854,-18.67177c4.02398,-8.89715 9.60063,-16.67294 9.60063,-16.67294c0,0 -1.56434,27.18571 3.85732,28.71597c5.42166,1.53026 3.66099,-18.59047 3.66099,-18.59047c0,0 4.23262,9.16289 8.19343,12.42096c1.51368,1.24511 4.39121,-16.93756 4.39121,-16.93756c0,0 6.76015,5.94067 10.15072,15.80471c2.28513,6.64804 3.00796,12.60763 3.00796,13.9311c0,14.73766 -10.65356,26.68486 -23.79539,26.68486c-13.14185,0 -23.79542,-11.94723 -23.79542,-26.68486z" fill="url(#color-19)"/><path d="M235.5418,180.6005c0,-3.85775 1.56199,-9.72375 4.22941,-15.03223c3.59922,-7.16291 5.46239,-8.39938 5.46239,-8.39938c0,0 1.7256,16.86302 6.57495,18.09499c4.84937,1.23197 5.09736,-14.9668 5.09736,-14.9668c0,0 1.96304,7.37684 5.50574,9.99984c1.35389,1.00242 6.7921,-13.63606 6.7921,-13.63606c0,0 3.18214,4.78271 6.2148,12.72404c2.0439,5.35219 2.69045,10.15015 2.69045,11.21562c0,11.86495 -9.52898,21.48341 -21.2836,21.48341c-11.75459,0 -21.28357,-9.61846 -21.28357,-21.48341z" fill="url(#color-20)"/></g><g data-paper-data="{&quot;index&quot;:null}" stroke="#000000"><path d="M282.17872,197.09969c0,14.73763 -10.65356,26.68486 -23.79542,26.68486c-13.14185,0 -23.79539,-11.9472 -23.79539,-26.68486c0,-1.32344 0.72283,-7.28306 3.00796,-13.9311c3.39057,-9.86404 10.15072,-15.80471 10.15072,-15.80471c0,0 2.87756,18.18267 4.39121,16.93756c3.96081,-3.25807 8.19343,-12.42096 8.19343,-12.42096c0,0 -1.76066,20.12073 3.66099,18.59047c5.42166,-1.53026 3.85732,-28.71597 3.85732,-28.71597c0,0 5.57665,7.77579 9.60063,16.67294c2.98222,6.59376 4.72854,13.88001 4.72854,18.67177z" fill="url(#color-21)"/><path d="M279.66687,198.51635c0,11.86495 -9.52898,21.48341 -21.28357,21.48341c-11.75459,0 -21.2836,-9.61846 -21.2836,-21.48341c0,-1.0655 0.64655,-5.86343 2.69045,-11.21562c3.03266,-7.94133 6.2148,-12.72404 6.2148,-12.72404c0,0 5.43821,14.63847 6.7921,13.63606c3.5427,-2.62303 5.50574,-9.99984 5.50574,-9.99984c0,0 0.24799,16.19878 5.09736,14.9668c4.84937,-1.232 6.57495,-18.09499 6.57495,-18.09499c0,0 1.86317,1.23647 5.46239,8.39938c2.66741,5.30849 4.22941,11.17451 4.22941,15.03223z" fill="url(#color-22)"/></g><g data-paper-data="{&quot;index&quot;:null}" stroke="#000000"><path d="M244.76911,177.25947c4.02398,-8.89715 9.60063,-16.67294 9.60063,-16.67294c0,0 -1.56434,27.18571 3.85732,28.71597c5.42166,1.53026 3.66099,-18.59047 3.66099,-18.59047c0,0 4.23262,9.16289 8.19343,12.42096c1.51366,1.24511 4.39121,-16.93756 4.39121,-16.93756c0,0 6.76015,5.94067 10.15072,15.80471c2.28513,6.64804 3.00796,12.60766 3.00796,13.9311c0,14.73766 -10.65353,26.68486 -23.79539,26.68486c-13.14185,0 -23.79542,-11.94723 -23.79542,-26.68486c0,-4.79177 1.74632,-12.07801 4.72854,-18.67177z" fill="url(#color-23)"/><path d="M242.55239,197.34787c0,-3.85773 1.56199,-9.72375 4.22941,-15.03223c3.59922,-7.16291 5.46239,-8.39938 5.46239,-8.39938c0,0 1.72557,16.86299 6.57495,18.09499c4.84937,1.23197 5.09736,-14.9668 5.09736,-14.9668c0,0 1.96304,7.37682 5.50574,9.99984c1.35389,1.00242 6.7921,-13.63606 6.7921,-13.63606c0,0 3.18214,4.78271 6.2148,12.72404c2.0439,5.35219 2.69045,10.15012 2.69045,11.21562c0,11.86495 -9.52901,21.48341 -21.2836,21.48341c-11.75459,0 -21.28357,-9.61846 -21.28357,-21.48341z" fill="url(#color-24)"/></g><g data-paper-data="{&quot;index&quot;:null}" stroke="#000000"><path d="M234.65595,200.25313c0,14.73763 -10.65356,26.68486 -23.79542,26.68486c-13.14185,0 -23.79539,-11.9472 -23.79539,-26.68486c0,-1.32344 0.72283,-7.28306 3.00796,-13.9311c3.39057,-9.86404 10.15072,-15.80471 10.15072,-15.80471c0,0 2.87756,18.18267 4.39121,16.93756c3.96081,-3.25807 8.19343,-12.42096 8.19343,-12.42096c0,0 -1.76069,20.12073 3.66099,18.59047c5.42168,-1.53026 3.85732,-28.71597 3.85732,-28.71597c0,0 5.57665,7.77579 9.60063,16.67294c2.98222,6.59376 4.72854,13.88001 4.72854,18.67177z" fill="url(#color-25)"/><path d="M232.14413,201.66979c0,11.86495 -9.52901,21.48341 -21.2836,21.48341c-11.75459,0 -21.2836,-9.61846 -21.2836,-21.48341c0,-1.0655 0.64655,-5.86343 2.69045,-11.21562c3.03266,-7.94133 6.2148,-12.72404 6.2148,-12.72404c0,0 5.43821,14.63847 6.7921,13.63606c3.5427,-2.62303 5.50571,-9.99984 5.50571,-9.99984c0,0 0.24799,16.19878 5.09736,14.9668c4.84935,-1.232 6.57495,-18.09499 6.57495,-18.09499c0,0 1.86317,1.23647 5.46239,8.39938c2.66741,5.30849 4.22941,11.17451 4.22941,15.03223z" fill="url(#color-26)"/></g><g data-paper-data="{&quot;index&quot;:null}" stroke="#000000"><path d="M235.40426,224.953c-13.14183,0 -23.79539,-11.9472 -23.79539,-26.68486c0,-1.32347 0.72283,-7.28306 3.00796,-13.9311c3.39057,-9.86404 10.15072,-15.80471 10.15072,-15.80471c0,0 2.87753,18.18267 4.39121,16.93756c3.96081,-3.25807 8.19343,-12.42096 8.19343,-12.42096c0,0 -1.76066,20.12073 3.66099,18.59047c5.42166,-1.53026 3.85732,-28.71597 3.85732,-28.71597c0,0 5.57665,7.77579 9.60063,16.67294c2.98219,6.59376 4.72854,13.88001 4.72854,18.67177c0,14.73763 -10.65356,26.68486 -23.79542,26.68486z" fill="url(#color-27)"/><path d="M256.68785,199.68482c0,11.86495 -9.52898,21.48341 -21.28357,21.48341c-11.75462,0 -21.2836,-9.61846 -21.2836,-21.48341c0,-1.06548 0.64655,-5.86343 2.69045,-11.21562c3.03266,-7.94133 6.2148,-12.72404 6.2148,-12.72404c0,0 5.43821,14.63847 6.7921,13.63606c3.5427,-2.623 5.50574,-9.99984 5.50574,-9.99984c0,0 0.24799,16.19878 5.09736,14.9668c4.84935,-1.23197 6.57495,-18.09499 6.57495,-18.09499c0,0 1.86317,1.23647 5.46239,8.39938c2.66741,5.30849 4.22941,11.17448 4.22941,15.03223z" fill="url(#color-28)"/></g></g></g></svg>