<svg version="1.1" xmlns="http://www.w3.org/2000/svg" xmlns:xlink="http://www.w3.org/1999/xlink" width="249.17905" height="243.56277" viewBox="0,0,249.17905,243.56277"><defs><linearGradient x1="-82.8081" y1="125.1755" x2="-74.3949" y2="125.7962" gradientUnits="userSpaceOnUse" id="color-1"><stop offset="0" stop-color="#7a7a7a"/><stop offset="1" stop-color="#a4a4a4"/></linearGradient><linearGradient x1="-98.17392" y1="99.51035" x2="-93.61823" y2="99.84645" gradientUnits="userSpaceOnUse" id="color-2"><stop offset="0" stop-color="#7a7a7a"/><stop offset="1" stop-color="#a4a4a4"/></linearGradient><linearGradient x1="-60.94903" y1="102.25669" x2="-56.39334" y2="102.59279" gradientUnits="userSpaceOnUse" id="color-3"><stop offset="0" stop-color="#7a7a7a"/><stop offset="1" stop-color="#a4a4a4"/></linearGradient><linearGradient x1="-75.31126" y1="82.53348" x2="-76.40339" y2="97.33665" gradientUnits="userSpaceOnUse" id="color-4"><stop offset="0" stop-color="#a4a4a4"/><stop offset="1" stop-color="#7a7a7a"/></linearGradient><linearGradient x1="-76.03167" y1="86.88925" x2="-76.35337" y2="91.24973" gradientUnits="userSpaceOnUse" id="color-5"><stop offset="0" stop-color="#6b6b6b"/><stop offset="1" stop-color="#222222"/></linearGradient><linearGradient x1="-73.19662" y1="132.49974" x2="-73.40115" y2="135.2721" gradientUnits="userSpaceOnUse" id="color-6"><stop offset="0" stop-color="#9a9a9a"/><stop offset="1" stop-color="#dedede"/></linearGradient><linearGradient x1="-77.27179" y1="132.17383" x2="-77.47633" y2="134.94619" gradientUnits="userSpaceOnUse" id="color-7"><stop offset="0" stop-color="#9a9a9a"/><stop offset="1" stop-color="#dedede"/></linearGradient><linearGradient x1="-81.32372" y1="131.87489" x2="-81.52826" y2="134.64725" gradientUnits="userSpaceOnUse" id="color-8"><stop offset="0" stop-color="#9a9a9a"/><stop offset="1" stop-color="#dedede"/></linearGradient><linearGradient x1="-85.39891" y1="131.54896" x2="-85.60344" y2="134.32133" gradientUnits="userSpaceOnUse" id="color-9"><stop offset="0" stop-color="#9a9a9a"/><stop offset="1" stop-color="#dedede"/></linearGradient><linearGradient x1="-79.22543" y1="129.18443" x2="-79.52944" y2="133.30515" gradientUnits="userSpaceOnUse" id="color-10"><stop offset="0" stop-color="#a4a4a4"/><stop offset="1" stop-color="#3d3d3d"/></linearGradient><linearGradient x1="-73.48913" y1="136.12217" x2="-73.69366" y2="138.8945" gradientUnits="userSpaceOnUse" id="color-11"><stop offset="0" stop-color="#dedede"/><stop offset="1" stop-color="#9a9a9a"/></linearGradient><linearGradient x1="-77.56803" y1="135.8465" x2="-77.77257" y2="138.61886" gradientUnits="userSpaceOnUse" id="color-12"><stop offset="0" stop-color="#dedede"/><stop offset="1" stop-color="#9a9a9a"/></linearGradient><linearGradient x1="-81.61993" y1="135.54757" x2="-81.82448" y2="138.31993" gradientUnits="userSpaceOnUse" id="color-13"><stop offset="0" stop-color="#dedede"/><stop offset="1" stop-color="#9a9a9a"/></linearGradient><linearGradient x1="-85.69885" y1="135.27191" x2="-85.90338" y2="138.04426" gradientUnits="userSpaceOnUse" id="color-14"><stop offset="0" stop-color="#dedede"/><stop offset="1" stop-color="#9a9a9a"/></linearGradient><linearGradient x1="-79.83973" y1="137.16848" x2="-80.14376" y2="141.28919" gradientUnits="userSpaceOnUse" id="color-15"><stop offset="0" stop-color="#a4a4a4"/><stop offset="1" stop-color="#3d3d3d"/></linearGradient><radialGradient cx="-94.93831" cy="87.87467" r="13.60014" gradientUnits="userSpaceOnUse" id="color-16"><stop offset="0" stop-color="#ffffff"/><stop offset="1" stop-color="#c4bfb5"/></radialGradient><radialGradient cx="-90.91474" cy="85.70594" r="5.05415" gradientUnits="userSpaceOnUse" id="color-17"><stop offset="0" stop-color="#ffffff"/><stop offset="1" stop-color="#ffffff" stop-opacity="0"/></radialGradient><radialGradient cx="-57.91717" cy="90.74916" r="13.60014" gradientUnits="userSpaceOnUse" id="color-18"><stop offset="0" stop-color="#ffffff"/><stop offset="1" stop-color="#c5c1b7"/></radialGradient><radialGradient cx="-54.0756" cy="88.42383" r="5.05415" gradientUnits="userSpaceOnUse" id="color-19"><stop offset="0" stop-color="#ffffff"/><stop offset="1" stop-color="#ffffff" stop-opacity="0"/></radialGradient><linearGradient x1="-78.13381" y1="112.57512" x2="-78.43986" y2="116.72341" gradientUnits="userSpaceOnUse" id="color-20"><stop offset="0" stop-color="#a4a4a4"/><stop offset="1" stop-color="#686868"/></linearGradient><radialGradient cx="-15.62458" cy="42.53976" r="34.31923" gradientUnits="userSpaceOnUse" id="color-21"><stop offset="0" stop-color="#634a14"/><stop offset="1" stop-color="#443014"/></radialGradient><linearGradient x1="-35.69863" y1="41.05841" x2="-38.63815" y2="80.90183" gradientUnits="userSpaceOnUse" id="color-22"><stop offset="0" stop-color="#4a4a4a"/><stop offset="1" stop-color="#000000"/></linearGradient><radialGradient cx="-129.0367" cy="34.17255" r="34.31923" gradientUnits="userSpaceOnUse" id="color-23"><stop offset="0" stop-color="#634a14"/><stop offset="1" stop-color="#443014"/></radialGradient><linearGradient x1="-108.9626" y1="35.65322" x2="-111.90212" y2="75.49663" gradientUnits="userSpaceOnUse" id="color-24"><stop offset="0" stop-color="#4a4a4a"/><stop offset="1" stop-color="#000000"/></linearGradient><radialGradient cx="-53.11073" cy="72.10288" r="51.95424" gradientUnits="userSpaceOnUse" id="color-25"><stop offset="0" stop-color="#e0c297"/><stop offset="1" stop-color="#b9a17e"/></radialGradient><radialGradient cx="-51.32934" cy="54.2185" r="50.24792" gradientUnits="userSpaceOnUse" id="color-26"><stop offset="0" stop-color="#634a14"/><stop offset="1" stop-color="#443014"/></radialGradient><linearGradient x1="-81.17426" y1="163.73913" x2="-86.56607" y2="236.82159" gradientUnits="userSpaceOnUse" id="color-27"><stop offset="0" stop-color="#a4a4a4"/><stop offset="1" stop-color="#7a7a7a"/></linearGradient><linearGradient x1="-81.17426" y1="163.73913" x2="-81.61412" y2="169.70104" gradientUnits="userSpaceOnUse" id="color-28"><stop offset="0" stop-color="#a4a4a4"/><stop offset="1" stop-color="#7a7a7a"/></linearGradient><linearGradient x1="-80.97505" y1="161.03889" x2="-81.81334" y2="172.40129" gradientUnits="userSpaceOnUse" id="color-29"><stop offset="0" stop-color="#303030"/><stop offset="1" stop-color="#4b4b4b"/></linearGradient><linearGradient x1="-209.40295" y1="164.20329" x2="-223.34731" y2="167.99936" gradientUnits="userSpaceOnUse" id="color-30"><stop offset="0" stop-color="#9f896a"/><stop offset="1" stop-color="#6e604b"/></linearGradient><linearGradient x1="-212.57661" y1="161.55679" x2="-229.96601" y2="166.2907" gradientUnits="userSpaceOnUse" id="color-31"><stop offset="0" stop-color="#b9a17e"/><stop offset="1" stop-color="#9f896a"/></linearGradient><linearGradient x1="-215.52779" y1="156.95955" x2="-233.33472" y2="161.80712" gradientUnits="userSpaceOnUse" id="color-32"><stop offset="0" stop-color="#e0c297"/><stop offset="1" stop-color="#b9a17e"/></linearGradient><linearGradient x1="-200.18675" y1="157.65118" x2="-219.47335" y2="162.90158" gradientUnits="userSpaceOnUse" id="color-33"><stop offset="0" stop-color="#e0c297"/><stop offset="1" stop-color="#b9a17e"/></linearGradient><linearGradient x1="-204.63566" y1="166.12946" x2="-210.93931" y2="167.84549" gradientUnits="userSpaceOnUse" id="color-34"><stop offset="0" stop-color="#e0c297"/><stop offset="1" stop-color="#b9a17e"/></linearGradient><radialGradient cx="-161.17473" cy="159.95291" r="9.91648" gradientUnits="userSpaceOnUse" id="color-35"><stop offset="0" stop-color="#bb8c8c"/><stop offset="1" stop-color="#9d7070"/></radialGradient><radialGradient cx="-166.51856" cy="157.24894" r="19.4037" gradientUnits="userSpaceOnUse" id="color-36"><stop offset="0" stop-color="#bb8c8c"/><stop offset="1" stop-color="#9d7070"/></radialGradient><radialGradient cx="-118.97375" cy="163.99026" r="9.91649" gradientUnits="userSpaceOnUse" id="color-37"><stop offset="0" stop-color="#bb8c8c"/><stop offset="1" stop-color="#9d7070"/></radialGradient><radialGradient cx="-125.23647" cy="161.21849" r="19.37124" gradientUnits="userSpaceOnUse" id="color-38"><stop offset="0" stop-color="#bb8c8c"/><stop offset="1" stop-color="#9d7070"/></radialGradient><radialGradient cx="-43.54361" cy="167.73123" r="9.91649" gradientUnits="userSpaceOnUse" id="color-39"><stop offset="0" stop-color="#bb8c8c"/><stop offset="1" stop-color="#9d7070"/></radialGradient><radialGradient cx="-38.28242" cy="172.11579" r="19.37124" gradientUnits="userSpaceOnUse" id="color-40"><stop offset="0" stop-color="#bb8c8c"/><stop offset="1" stop-color="#9d7070"/></radialGradient><radialGradient cx="-64.44712" cy="239.52913" r="28.11579" gradientUnits="userSpaceOnUse" id="color-41"><stop offset="0" stop-color="#bb8c8c"/><stop offset="1" stop-color="#9d7070"/></radialGradient><linearGradient x1="-109.23762" y1="192.44595" x2="-55.29443" y2="196.42571" gradientUnits="userSpaceOnUse" id="color-42"><stop offset="0" stop-color="#bb8c8c"/><stop offset="1" stop-color="#9d7070"/></linearGradient><linearGradient x1="-109.25601" y1="192.69527" x2="-55.31282" y2="196.67503" gradientUnits="userSpaceOnUse" id="color-43"><stop offset="0" stop-color="#d8d8d8"/><stop offset="1" stop-color="#a7a7a7"/></linearGradient><linearGradient x1="-72.64588" y1="190.98089" x2="-87.09633" y2="190.78162" gradientUnits="userSpaceOnUse" id="color-44"><stop offset="0" stop-color="#9f896a"/><stop offset="1" stop-color="#6e604b"/></linearGradient><linearGradient x1="-74.966" y1="187.56139" x2="-92.98653" y2="187.31287" gradientUnits="userSpaceOnUse" id="color-45"><stop offset="0" stop-color="#b9a17e"/><stop offset="1" stop-color="#9f896a"/></linearGradient><linearGradient x1="-76.534" y1="182.32826" x2="-94.98721" y2="182.07379" gradientUnits="userSpaceOnUse" id="color-46"><stop offset="0" stop-color="#e0c297"/><stop offset="1" stop-color="#b9a17e"/></linearGradient><linearGradient x1="-61.97946" y1="187.22638" x2="-81.96606" y2="186.95079" gradientUnits="userSpaceOnUse" id="color-47"><stop offset="0" stop-color="#e0c297"/><stop offset="1" stop-color="#b9a17e"/></linearGradient><linearGradient x1="-68.59522" y1="194.14781" x2="-75.12764" y2="194.05772" gradientUnits="userSpaceOnUse" id="color-48"><stop offset="0" stop-color="#e0c297"/><stop offset="1" stop-color="#b9a17e"/></linearGradient><radialGradient cx="-25.11736" cy="200.20409" r="9.91648" gradientUnits="userSpaceOnUse" id="color-49"><stop offset="0" stop-color="#bb8c8c"/><stop offset="1" stop-color="#9d7070"/></radialGradient><radialGradient cx="-29.50754" cy="196.13049" r="19.4037" gradientUnits="userSpaceOnUse" id="color-50"><stop offset="0" stop-color="#bb8c8c"/><stop offset="1" stop-color="#9d7070"/></radialGradient></defs><g transform="translate(233.84076,-30.75809)"><g data-paper-data="{&quot;isPaintingLayer&quot;:true}" fill-rule="nonzero" stroke-linecap="butt" stroke-linejoin="miter" stroke-miterlimit="10" stroke-dasharray="" stroke-dashoffset="0" style="mix-blend-mode: normal"><path d="M-32.43951,97.54946c-0.6903,9.35657 13.59377,19.34144 0.54615,34.73956c-13.56195,16.00511 -34.06256,17.97657 -49.31321,16.85143c-16.34319,-1.20575 -30.8643,-2.20874 -45.31963,-25.10974c-9.81031,-15.54208 4.04139,-24.8051 4.65185,-33.07949c1.80479,-24.46266 23.28852,-42.81649 47.98525,-40.99444c24.69675,1.82206 43.25435,23.13002 41.44956,47.59268z" fill="#191919" stroke="none" stroke-width="0"/><g><path d="M-56.02335,123.71329c1.5108,-0.89385 3.30746,-4.14564 3.88571,-5.78025c0.14475,-2.13297 1.75477,-4.69354 1.42225,-6.73888c-0.35985,-2.21331 -1.61664,-4.39817 -2.18762,-6.57806c-0.5193,-1.98252 -1.08847,-3.89741 -1.83172,-5.72279c0.44768,2.41677 0.55913,4.91074 0.1077,6.83292c-0.60755,2.58701 -2.09021,4.96332 -1.84206,7.73919c0.34419,3.84996 2.91838,5.1197 0.64938,9.08235c-0.45138,0.66612 -0.9461,1.18817 -1.4774,1.595c0.44813,-0.06186 0.87765,-0.19515 1.27374,-0.42949zM-56.43438,91.24026c3.09289,3.72106 4.65002,8.02924 5.85708,12.69215c0.58573,2.26268 1.93031,4.54565 2.24718,6.86178c0.34811,2.5445 -1.24717,5.1091 -1.44888,7.66053c-0.8147,2.27095 -2.92376,6.18266 -5.04701,7.42267c-2.42037,1.41351 -5.21183,0.493 -7.6851,0.01567c-4.63029,-0.89359 -9.31328,-0.51537 -13.84979,0.28756c-0.26747,-0.01814 -0.53491,-0.03657 -0.80232,-0.05519l0.08911,1.21548c0,0 -0.4679,1.15457 -1.58076,0.6761c-0.69494,-0.29878 -0.77346,-0.86119 -0.73444,-1.24149c-0.27309,-0.20405 -0.54855,-0.40039 -0.82491,-0.59097c-0.34873,0.12427 -0.95047,0.19727 -1.3858,-0.50778c-0.01066,-0.01728 -0.02088,-0.03443 -0.03064,-0.05149c-0.19939,-0.13189 -0.38737,-0.34096 -0.46031,-0.67158c-0.17266,-0.11053 -0.34435,-0.22057 -0.51473,-0.3306c0.42403,0.89234 0.77823,1.83083 1.6349,2.48966l0.72994,0.656c0,0 0.90781,0.81901 0.11199,1.76302c-0.79582,0.944 -1.7036,0.12499 -1.7036,0.12499l-0.62677,-0.56804c-1.39906,-1.16258 -1.62979,-3.0106 -2.75917,-4.12981c-0.5114,-0.50681 -1.40088,-0.2312 -2.10381,-0.32932c-1.49851,-0.20918 -3.93733,-0.43404 -5.10166,-1.59948c-1.68744,-1.68905 -1.37279,-5.42926 -2.67275,-7.5466c-3.94449,-0.53819 -7.07226,-4.18403 -5.96583,-8.51545c0.27478,-1.07573 1.23149,-1.8389 1.69515,-2.84367c0.96632,-2.09412 -0.77583,-5.31877 -0.94508,-7.33735c-0.22848,-2.72504 1.09391,-4.61416 2.71303,-6.38298c0.0684,-0.14938 0.13881,-0.30038 0.21095,-0.45326c0,0 0.29147,-0.61555 0.88193,-0.71489c0.00427,-0.14582 0.01125,-0.29212 0.02101,-0.43891c0,0 0.09197,-1.24662 1.29569,-1.15781c1.20373,0.0888 1.11176,1.33542 1.11176,1.33542c-0.37333,4.48776 2.45389,7.43884 4.70992,10.78173c0.51485,0.76288 1.16257,2.57908 1.27234,3.48526c0.10173,0.83981 -0.63031,2.53162 0.12416,3.25605c1.09113,1.0477 3.88226,1.19338 4.62435,2.52187c0.83893,1.50186 0.5094,3.44228 0.95158,5.11735c0.9618,1.93736 1.4807,3.72031 1.90097,5.84198l0.12703,0.51932c0,0 0.29341,1.21073 -0.87763,1.52068c-1.17104,0.30997 -1.46444,-0.90076 -1.46444,-0.90076l-0.15031,-0.62509c-0.3975,-2.00682 -0.88965,-3.604 -1.78802,-5.44386c-0.39537,-1.49391 -0.09552,-3.17183 -0.68359,-4.59522c-0.24749,-0.59901 -3.78451,-1.5111 -4.428,-2.26711c-1.60569,-1.88651 -0.34348,-3.82644 -1.09533,-5.89104c-0.51924,-1.42583 -1.6939,-2.24403 -2.50356,-3.51969c-1.15416,-1.81844 -2.15563,-3.77622 -2.70497,-5.85695c-0.45025,1.21886 -0.55736,2.38244 0.28029,3.81367c0.61291,1.04723 1.65193,1.83732 2.0681,2.98425c0.85026,2.34327 -0.96554,6.54565 1.08449,8.48656c2.57306,2.43611 5.45799,4.01742 6.65526,7.63031c0.22554,3.23288 1.85773,4.89371 3.92671,6.3057l0.4095,0.03021c1.5222,0.17978 3.03023,-0.85332 4.4722,-1.4234c2.64444,-1.04545 5.35321,-1.76565 7.74942,-3.36276c1.79245,-1.43867 1.48129,-5.54663 2.18402,-7.6645c0.60382,-1.81976 2.18937,-2.42309 3.4326,-3.6219c1.37086,-1.32188 2.69261,-3.41926 3.43955,-5.15393c1.40152,-3.25494 0.20596,-6.81535 0.45043,-10.19728c0,0 0.09197,-1.24662 1.29569,-1.15781c0.96129,0.07092 1.09624,0.88025 1.1116,1.20337c0.61765,-0.09398 1.06934,0.4486 1.06934,0.4486zM-64.86736,122.84529c2.4484,0.18063 5.51851,0.80219 7.01187,-1.63056c1.69472,-2.90728 -0.70891,-4.41378 -1.01941,-7.52525c-0.30584,-3.06468 1.20167,-5.6279 1.88613,-8.47023c0.46083,-1.91367 0.21746,-4.71333 -0.38548,-7.20729c-0.04912,1.33192 -0.2558,2.66509 -0.81787,4.01723c-0.83348,2.00509 -2.40004,4.37011 -3.95722,5.88253c-0.77908,0.75669 -2.49063,1.44515 -2.81901,2.66053c-0.8317,3.0781 -0.62678,6.56456 -3.01085,8.81137c-1.26466,0.8391 -2.9988,1.8328 -4.88101,2.73093c2.60978,0.08536 5.24503,0.52804 7.99285,0.73077zM-88.34311,116.33613c-0.98664,-3.01123 -4.05146,-4.28564 -6.05487,-6.42005c-2.03783,-2.17105 -1.36564,-5.3621 -1.41969,-8.00767c-0.03363,-1.64647 -0.90027,-2.20021 -1.66723,-3.28787c0.28075,1.04407 0.60057,2.08858 0.6479,3.11008c0.18538,4.00018 -4.81651,8.99233 1.18238,11.20658c0.59346,0.21904 1.23062,0.28354 1.84594,0.42531c1.39666,1.84371 1.94799,3.11546 2.53154,5.37733c0.21146,0.81962 -0.09706,1.94344 0.53224,2.48518c1.23685,1.06478 3.23695,0.76945 4.94148,0.97224c-1.40252,-1.39141 -2.38753,-3.15646 -2.53971,-5.86114z" fill="#000000" stroke="none" stroke-width="0.5"/><path d="M-85.75016,165.05316l5.88411,-79.75533l8.4132,0.6207l-5.87682,79.6565z" fill="url(#color-1)" stroke="none" stroke-width="0"/><path d="M-99.31591,114.98931l2.28398,-30.95792l4.5557,0.3361l-2.28115,30.91956z" fill="url(#color-2)" stroke="none" stroke-width="0"/><path d="M-62.09102,117.73565l2.28398,-30.95792l4.5557,0.3361l-2.28115,30.91956z" fill="url(#color-3)" stroke="none" stroke-width="0"/><path d="M-102.49499,95.41169l1.09213,-14.80316l52.18317,3.84991l-1.09213,14.80316z" fill="url(#color-4)" stroke="none" stroke-width="0"/><path d="M-110.49783,88.73064l0.32171,-4.36051l68.28895,5.03816l-0.32171,4.36051z" fill="url(#color-5)" stroke="none" stroke-width="0"/><g stroke="none" stroke-width="0"><path d="M-75.10722,135.14623l0.20454,-2.77236l3.41214,0.25174l-0.20454,2.77236z" fill="url(#color-6)"/><path d="M-79.1824,134.82032l0.20454,-2.77236l3.41215,0.25174l-0.20454,2.77236z" fill="url(#color-7)"/><path d="M-83.23433,134.52138l0.20454,-2.77236l3.41214,0.25174l-0.20454,2.77236z" fill="url(#color-8)"/><path d="M-87.30951,134.19546l0.20454,-2.77236l3.41214,0.25174l-0.20454,2.77236z" fill="url(#color-9)"/><path d="M-89.9774,132.53432l0.30402,-4.12071l20.89595,1.54163l-0.30402,4.12071z" fill="url(#color-10)"/></g><g data-paper-data="{&quot;index&quot;:null}" stroke="none" stroke-width="0"><path d="M-71.78305,136.24804l-0.20454,2.77236l-3.41214,-0.25174l0.20454,-2.77236z" fill="url(#color-11)"/><path d="M-75.86196,135.97237l-0.20454,2.77236l-3.41214,-0.25174l0.20454,-2.77236z" fill="url(#color-12)"/><path d="M-79.91386,135.67344l-0.20454,2.77236l-3.41214,-0.25174l0.20454,-2.77236z" fill="url(#color-13)"/><path d="M-83.99277,135.39778l-0.20454,2.77236l-3.41214,-0.25174l0.20454,-2.77236z" fill="url(#color-14)"/><path d="M-69.39176,137.9393l-0.30402,4.12071l-20.89595,-1.54163l0.30402,-4.12071z" fill="url(#color-15)"/></g><g stroke-width="0"><g><path d="M-81.44286,88.87033c-0.55265,7.49079 -7.04279,13.1175 -14.49612,12.56762c-7.45333,-0.54988 -13.04745,-7.06814 -12.4948,-14.55894c0.55265,-7.49079 7.04279,-13.1175 14.49612,-12.56762c7.45333,0.54988 13.04745,7.06814 12.4948,14.55894z" fill="url(#color-16)" stroke="#000000"/><path d="M-90.37095,88.27606c-0.20538,2.78376 -2.47469,4.88531 -5.06865,4.69394c-2.59396,-0.19138 -4.53029,-2.6032 -4.3249,-5.38697c0.20538,-2.78376 2.47468,-4.8853 5.06864,-4.69393c2.59396,0.19138 4.5303,2.60319 4.32491,5.38696z" fill="#000000" stroke="none"/></g><path d="M-86.21797,86.05245c-0.20538,2.78376 -2.47469,4.88531 -5.06865,4.69394c-2.59396,-0.19138 -4.53029,-2.6032 -4.3249,-5.38697c0.20538,-2.78376 2.47468,-4.8853 5.06864,-4.69393c2.59396,0.19138 4.5303,2.60319 4.32491,5.38696z" fill="url(#color-17)" stroke="none"/></g><g stroke-width="0"><g><path d="M-44.4217,91.74481c-0.55265,7.49079 -7.04279,13.1175 -14.49612,12.56762c-7.45333,-0.54988 -13.04745,-7.06814 -12.4948,-14.55894c0.55265,-7.49079 7.04279,-13.1175 14.49612,-12.56762c7.45333,0.54988 13.04745,7.06814 12.4948,14.55894z" fill="url(#color-18)" stroke="#000000"/><path d="M-53.34979,91.15057c-0.20538,2.78376 -2.47469,4.88531 -5.06864,4.69394c-2.59396,-0.19138 -4.53029,-2.6032 -4.3249,-5.38697c0.20538,-2.78376 2.47468,-4.8853 5.06864,-4.69393c2.59396,0.19138 4.53029,2.60319 4.3249,5.38696z" fill="#000000" stroke="none"/></g><path d="M-49.37882,88.77034c-0.20538,2.78376 -2.47469,4.88531 -5.06865,4.69394c-2.59396,-0.19138 -4.53029,-2.6032 -4.3249,-5.38697c0.20538,-2.78376 2.47468,-4.8853 5.06864,-4.69393c2.59396,0.19138 4.5303,2.60319 4.32491,5.38696z" fill="url(#color-19)" stroke="none"/></g><path d="M-99.33015,115.18218l0.30605,-4.14828l41.7806,3.08244l-0.30567,4.14313z" fill="url(#color-20)" stroke="none" stroke-width="0"/></g><g data-paper-data="{&quot;index&quot;:null}" stroke="none" stroke-width="0"><path d="M15.33827,86.83911c0,0 -1.42436,7.85399 -4.1446,10.45425c-3.05402,2.91933 -6.99235,6.08303 -9.95122,6.36007c-3.68684,0.3452 -7.5426,-0.53489 -10.18869,-4.40518c-1.4934,-2.18431 -5.17445,-7.22922 -6.96773,-12.60842c-2.43872,-7.31534 -3.11132,-14.99261 -6.04594,-14.55656c-14.72209,2.18767 -34.64054,-11.43453 -32.92325,-14.86063c1.43795,-2.86881 9.54872,-11.65349 17.95072,-14.23c36.96719,-16.78137 29.36132,18.41334 33.63704,31.90213c1.32895,4.19249 3.17181,7.6121 5.15221,10.9969c1.31206,2.24256 3.77468,3.71067 6.27779,4.66649c3.85109,1.47057 7.20369,-3.71907 7.20369,-3.71907z" fill="url(#color-21)"/><path d="M-54.42482,46.31395l8.08524,-6.04061l26.42763,35.37295l-8.08524,6.0406z" fill="url(#color-22)"/></g><g stroke="none" stroke-width="0"><path d="M-152.69093,74.48962c2.45568,-3.05754 4.78044,-6.16967 6.71027,-10.12172c6.20897,-12.71527 3.85047,-48.64511 37.95465,-26.6203c7.93292,3.78164 14.66667,13.66151 15.66803,16.71028c1.19589,3.64105 -20.50602,14.19261 -34.74767,9.86808c-2.83886,-0.86204 -4.63084,6.63343 -8.11672,13.51166c-2.56329,5.0578 -6.94485,9.50787 -8.74265,11.44937c-3.18544,3.44008 -7.12861,3.74476 -10.72487,2.86225c-2.88617,-0.70826 -6.31758,-4.41569 -8.9101,-7.7516c-0.37414,-0.48144 -0.69439,-1.09429 -0.96839,-1.78335c0.78291,0.58022 1.52235,1.18373 2.7193,1.29366c1.51864,0.11204 2.05184,-0.22206 1.6549,-1.47473c0.25708,-0.32598 0.47314,-0.96438 0.54506,-1.13074c0.16648,-0.38509 2.45701,0.07276 2.96544,-1.11793c0.41024,-0.96074 -0.97082,-1.55583 -2.22907,-2.16044c2.3904,-0.61176 4.73428,-1.68236 6.22179,-3.53446z" fill="url(#color-23)"/><path d="M-122.54309,74.71156l-7.11121,-7.16174l31.33265,-31.11155l7.11121,7.16175z" fill="url(#color-24)"/></g><path d="M-32.42358,97.33359c-0.6903,9.35657 13.59377,19.34144 0.54616,34.73956c-13.56195,16.00511 -34.06256,17.97657 -49.31321,16.85143c-16.34319,-1.20575 -30.8643,-2.20874 -45.31963,-25.10974c-9.81031,-15.54208 4.04139,-24.8051 4.65185,-33.07949c1.80479,-24.46266 23.28852,-42.81649 47.98525,-40.99444c24.69675,1.82206 43.25435,23.13002 41.44956,47.59268zM-58.42247,105.60245c8.26181,0.60953 15.45347,-5.59388 16.06299,-13.85568c0.60953,-8.26181 -5.59388,-15.45347 -13.85568,-16.06299c-8.26181,-0.60953 -15.45347,5.59388 -16.06299,13.85568c-0.60953,8.26181 5.59388,15.45347 13.85568,16.06299zM-95.97979,102.60122c8.26181,0.60953 15.45347,-5.59388 16.06299,-13.85568c0.60953,-8.26181 -5.59388,-15.45347 -13.85568,-16.06299c-8.26181,-0.60953 -15.45347,5.59388 -16.06299,13.85568c-0.60953,8.26181 5.59388,15.45347 13.85568,16.06299zM-80.2317,142.05679c18.37681,1.70258 30.03556,-9.04416 30.44192,-14.55203c0.40636,-5.50787 -11.75599,3.28102 -28.91743,1.98161c-22.08564,-1.67226 -28.08764,-11.79895 -28.494,-6.29105c-0.40636,5.50787 8.87658,17.18522 26.9695,18.86149z" fill="url(#color-25)" stroke="none" stroke-width="0"/><path d="M-27.43073,78.45317c1.11371,10.15141 3.14617,17.27908 -6.47247,23.50422c-10.51227,6.80349 16.3366,-40.30162 -40.32793,-44.25042c-57.50306,-4.49724 -38.22794,45.76432 -47.62393,36.77235c-7.68392,-7.35353 -4.89379,-14.37354 -1.44665,-23.3499c8.37788,-21.81614 19.32344,-27.60433 49.45153,-25.38157c30.12809,2.22276 44.02128,10.84622 46.41946,32.70535z" fill="url(#color-26)" stroke="none" stroke-width="0"/><path d="M-114.71812,231.72311c0,0 3.61122,-38.26937 2.37115,-53.08884c-0.84637,-10.11464 -9.33459,-23.95779 -9.33459,-23.95779c0,0 28.37454,-6.06689 42.27126,-4.94099c13.62455,1.10386 40.30872,11.63161 40.30872,11.63161c0,0 -11.7677,10.5773 -14.07762,19.84107c-3.58114,14.36193 -5.0799,54.68029 -5.0799,54.68029z" fill="#191919" stroke="none" stroke-width="0"/><g stroke="none"><path d="M-82.94019,168.51595c0.40494,-0.22883 0.74435,-0.22184 1.01092,-0.12283l0.07119,-1.08153c0,0 0.09197,-1.24662 1.33858,-1.15465c1.24662,0.09197 1.15465,1.33858 1.15465,1.33858l-0.0989,1.17633c0.10215,0.49213 0.17807,1.04764 0.21535,1.63168l0.15488,0.74618c0.15115,0.72969 0.25055,1.45537 0.31132,2.17784c1.71664,4.53976 0.75584,10.31617 0.41093,14.95412c-0.02175,0.12966 -0.04385,0.25916 -0.06629,0.38851c1.15289,3.4833 2.97064,6.87796 2.94279,10.54883c-0.0273,3.59948 -2.66097,6.43055 -2.49266,9.99816c0.06593,1.39726 3.07709,7.16311 4.55807,6.08677c1.33083,-1.17421 3.29528,-2.42797 3.89674,-4.21964c0.56674,-1.68828 -0.48783,-3.74036 -0.59273,-5.4004c-0.05467,-0.86533 0.40861,-3.85244 0.52753,-4.28348c0.69014,-2.50144 2.87224,-4.21196 4.28874,-6.25286c0.05965,-0.08594 0.11818,-0.1717 0.1756,-0.25729c-0.16072,-2.94675 -0.74414,-5.85756 -1.91531,-8.62574c-1.02128,-3.4775 -3.20449,-7.80121 -1.51887,-11.48463c2.56748,-5.61042 9.19093,-5.41667 14.26345,-6.71284c0.27259,-0.06966 0.53996,-0.13545 0.80302,-0.1957c0.13843,-0.04007 0.27633,-0.07759 0.41351,-0.11251c0.27771,-0.0707 0.55868,-0.11281 0.84206,-0.13069c1.66516,-0.25013 3.20841,-0.13834 4.89821,0.82064c0,0 0.38246,0.22786 0.5549,0.63986c0.84826,0.34387 1.67081,0.657 2.44482,0.81919c0,0 1.22108,0.26735 0.95374,1.48842c-0.26735,1.22108 -1.48842,0.95374 -1.48842,0.95374c-1.81482,-0.41076 -4.9947,-2.46695 -7.1168,-2.26043c-0.18906,0.03542 -0.37944,0.07664 -0.57147,0.12143c-2.78584,0.8892 -6.46646,2.88333 -7.07212,5.95765c-0.50564,2.56652 0.37909,5.25973 0.20556,7.82932c-0.31125,4.21883 -0.90108,7.73676 -3.01416,11.31771c0.68003,9.8767 -3.03625,20.02495 -11.66906,25.28235c-4.44768,2.09122 -6.4372,-3.68194 -8.22777,-6.963c-4.06632,-7.45119 -0.10251,-16.98789 1.35009,-24.82378c-0.13458,-0.41655 -0.25693,-0.83255 -0.362,-1.24801c-0.54742,-3.82637 0.17112,-7.55361 0.21255,-11.34408c-0.5219,0.28937 -1.10141,0.5202 -1.3909,1.0169c-0.55299,0.94884 -0.38641,2.75948 -0.52367,3.59101c-0.38066,2.30615 -1.68388,4.03093 -1.8188,6.33575c-0.18135,2.45803 0.5329,7.81927 -1.34363,9.74821c-0.53287,0.54775 -1.18021,0.82265 -1.88565,0.89196c-1.58586,1.08285 -3.7633,1.44199 -4.23319,3.55242c-0.71394,3.20655 2.37233,4.17528 3.12231,6.76973c0.85322,2.9516 -0.44113,6.11378 -3.10389,7.36279c-5.31513,3.25287 -12.96349,1.11966 -13.3751,-6.06661c-0.14883,-2.59828 3.41965,-6.61649 2.49547,-8.97421c-0.93572,-2.38716 -3.23156,-4.4425 -4.27943,-6.99132c-1.9116,-4.07242 -0.25948,-8.32853 -0.5564,-12.64898c-0.2363,-3.4385 -1.29963,-6.75577 -2.28773,-9.974c-0.59274,-1.93057 -0.89918,-4.74582 -3.13128,-5.25105c-0.38093,0.174 -0.77424,0.35447 -1.20148,0.53078c0,0 -1.15613,0.47523 -1.63137,-0.6809c-0.47523,-1.15613 0.68089,-1.63137 0.68089,-1.63137c0.12456,-0.051 0.25104,-0.10135 0.37928,-0.15102c0.34059,-0.70389 1.20922,-0.6398 1.20922,-0.6398c0.16023,0.01845 0.31553,0.04071 0.46613,0.06671c5.30149,-1.58338 12.28723,-1.54137 13.33272,5.62909c0.53634,3.67858 -1.35909,6.05866 1.37289,9.25556c2.92648,1.95776 4.73223,4.58913 4.92122,8.18731c0.10308,1.96257 -0.60101,3.84095 0.37145,5.73122c0.44995,0.87459 1.01497,1.27574 1.79687,1.86523c0.18074,0.13626 1.75559,0.98992 2.76944,1.39604c1.08594,-2.71332 0.18259,-6.74511 -0.20996,-9.45543c-0.08298,-3.05968 -0.98423,-7.22109 -0.00672,-10.18337c0.69089,-2.09368 2.70126,-4.47011 4.19197,-6.02292l0.04625,-0.14257c0,0 0.62672,-1.05197 1.68074,-0.45325c0.08998,-0.09499 0.20471,-0.18528 0.34962,-0.26716zM-81.33968,204.77736c-0.15303,2.07426 -0.53048,4.24074 0.36318,6.22483c0.97285,2.15993 2.35439,4.14049 3.685,6.08361c0.77073,1.12551 0.7715,2.22229 1.90625,1.25584c0.39679,-0.2412 0.78613,-0.49862 1.16887,-0.76864c-2.88084,-0.37218 -4.78373,-3.70983 -5.89504,-6.53683c-1.68851,-4.29525 2.09021,-7.8148 2.11683,-11.94581c0.01292,-2.0056 -0.6073,-3.98969 -1.34718,-5.95752c-0.82281,3.84302 -1.70276,7.64394 -1.99791,11.64452zM-66.23615,206.00759c0.53821,-2.37809 0.93008,-4.82504 1.08124,-7.27987c-0.88884,1.00523 -1.72922,2.06072 -2.04827,3.29095c-0.58573,2.25851 0.14296,4.52289 0.32353,6.73596c0.25957,-0.96406 0.45621,-1.91958 0.64349,-2.74704zM-66.26315,175.64914c-1.39323,2.98046 0.7628,6.91671 1.57332,9.6874c0.68487,1.70798 1.22052,3.48835 1.60347,5.30677c0.71261,-2.15478 0.96756,-4.37546 1.15597,-6.92928c0.21741,-2.6636 -0.71588,-5.41765 -0.1706,-8.10027c0.31424,-1.54604 1.16371,-2.94157 2.30847,-4.12781c-2.73056,0.58898 -5.27691,1.60954 -6.47063,4.16321zM-82.66146,171.53761l-0.38744,-0.67924l-0.17031,0.258c-1.23471,1.26741 -3.03713,3.31389 -3.60532,5.03732c-0.7474,2.26711 -0.15687,5.54288 0.05155,8.12555c0.44948,-1.28929 1.01373,-2.50659 1.24794,-3.9809c0.28888,-1.81854 -0.12145,-2.83739 0.84549,-4.45284c0.52198,-0.87208 1.71819,-1.13912 2.36847,-1.92023c0.25124,-0.3018 0.41197,-0.718 0.50748,-1.1901c-0.24799,-0.41999 -0.53245,-0.82035 -0.85786,-1.19759zM-107.95428,169.94868c1.03677,3.39276 2.15567,6.91943 2.40439,10.54037c0.26735,3.89198 -1.40281,8.25334 0.3509,11.85251c1.02825,2.50177 3.62301,4.78597 4.36824,7.22142c1.05544,3.4492 -2.57168,6.41336 -2.3708,9.67141c0.33267,5.39555 5.99925,6.27914 9.72194,3.93621c4.64451,-1.71755 -0.00792,-6.01385 -0.92265,-8.23652c-0.32769,-0.79628 -0.54589,-3.54269 -0.3736,-4.25568c0.28385,-1.17472 1.43392,-2.75886 2.43526,-3.49099c0.21587,-0.15783 0.47074,-0.28177 0.74261,-0.39268c-1.86161,-1.0083 -3.54298,-2.64085 -4.18234,-3.86941c-1.6226,-3.11791 0.08876,-6.53166 -1.26745,-9.66907c-0.6849,-1.58442 -2.09543,-2.59854 -3.46288,-3.52569c-1.23537,-1.42351 -2.29497,-2.87569 -2.63156,-4.80854c-0.33551,-1.92666 0.66964,-4.05234 0.44112,-5.97913c-0.44266,-3.73256 -4.80821,-4.97241 -7.80879,-4.4751c1.33811,1.33307 1.90255,3.34383 2.55558,5.48088z" fill="#303030" stroke-width="0.5"/><path d="M-93.09516,236.33988l5.39181,-73.08246l13.05819,0.96339l-5.39181,73.08246z" fill="url(#color-27)" stroke-width="0"/><path d="M-120.7391,166.81452l0.43985,-5.96191l78.24998,5.77304l-0.43985,5.96191z" fill="url(#color-28)" stroke-width="0"/><path d="M-109.55869,170.35433l0.83828,-11.36241l55.49072,4.09394l-0.83828,11.36241z" fill="url(#color-29)" stroke-width="0"/></g><g data-paper-data="{&quot;index&quot;:null}" stroke="none" stroke-width="0"><path d="M-219.54696,174.70877c-3.9697,0.11686 -2.93615,-6.1648 -0.35161,-10.01401c2.58454,-3.8492 5.61509,-8.6234 8.1036,-6.78517c2.60022,1.92075 0.35007,4.76226 -2.23446,8.61147c-2.58454,3.8492 -2.00236,6.99531 -5.51753,8.1877z" fill="url(#color-30)"/><path d="M-227.94711,170.19687c-3.59102,-1.69611 0.17889,-6.82596 4.22799,-9.08448c4.0491,-2.25853 8.91522,-5.1392 10.29947,-2.37233c1.44639,2.89107 -1.84768,4.40315 -5.89679,6.66168c-4.0491,2.25853 -4.957,5.32654 -8.63067,4.79513z" fill="url(#color-31)"/><path d="M-233.43261,160.99536c-2.03359,-3.41126 3.95724,-5.5647 8.57762,-5.17959c4.62038,0.38511 10.26591,0.7098 9.87074,3.77829c-0.41289,3.20624 -3.9902,2.62298 -8.61057,2.23786c-4.62038,-0.38511 -7.0857,1.65429 -9.8378,-0.83656z" fill="url(#color-32)"/><path d="M-220.0881,159.53974c0.30294,-4.99952 4.93819,-3.72328 10.60757,-3.25074c5.66936,0.47255 10.45206,0.66711 9.92303,4.96197c-0.55277,4.48766 -4.93819,3.72328 -10.60757,3.25074c-5.66936,-0.47255 -10.20232,-0.35296 -9.92303,-4.96197z" fill="url(#color-33)"/><path d="M-210.67714,166.90895c-1.53517,-4.37487 -2.99967,-7.69037 -0.00045,-8.89664c2.87038,-1.15443 4.60497,4.22781 6.14013,8.60268c1.53517,4.37487 0.95821,10.71479 -2.85495,9.60484c-3.10312,-2.03689 -1.74957,-4.93602 -3.28473,-9.31089z" data-paper-data="{&quot;index&quot;:null}" fill="url(#color-34)"/></g><g stroke="none" stroke-width="0"><path d="M-163.94769,174.38171c-5.45803,-0.4523 -9.52343,-5.15341 -9.08033,-10.5002c0.44308,-5.3468 5.22688,-9.31458 10.68489,-8.86227c5.45803,0.4523 9.52342,5.1534 9.08033,10.5002c-0.44308,5.3468 -5.22688,9.31458 -10.68489,8.86228z" fill="url(#color-35)"/><path d="M-201.20459,153.29826l38.75219,0.96208l-1.74342,21.03808l-38.30759,-5.61126z" fill="url(#color-36)"/></g><g stroke="none" stroke-width="0"><path d="M-121.65753,177.47737c-5.46322,-0.38438 -9.58679,-5.03455 -9.21024,-10.38645c0.37655,-5.35191 5.11061,-9.37886 10.57384,-8.99448c5.46322,0.38438 9.58679,5.03455 9.21024,10.38645c-0.37655,5.35191 -5.11061,9.37886 -10.57382,8.99447z" fill="url(#color-37)"/><path d="M-158.98815,154.62489l38.57552,2.71408l-1.4816,21.05815l-38.57552,-2.71408z" fill="url(#color-38)"/></g><g data-paper-data="{&quot;index&quot;:null}" stroke="none" stroke-width="0"><path d="M-54.44265,176.11667c-2.76681,-4.72643 -1.25628,-10.75521 3.37386,-13.46565c4.63015,-2.71042 10.62655,-1.07612 13.39336,3.65034c2.76681,4.72645 1.25626,10.75523 -3.37388,13.46566c-4.63015,2.71042 -10.62655,1.07612 -13.39336,-3.65034z" fill="url(#color-39)"/><path d="M-35.62587,210.10985l-19.53624,-33.37324l18.21824,-10.66471l19.53624,33.37324z" fill="url(#color-40)"/></g><path d="M-114.51531,231.89995c0.61326,-8.31236 56.69241,-4.17502 56.07916,4.13735c-0.61326,8.31236 -13.66415,14.1247 -29.14998,12.9822c-15.48582,-1.1425 -27.54243,-8.80718 -26.92916,-17.11955z" fill="url(#color-41)" stroke="none" stroke-width="0"/><g><g><path d="M-114.8385,231.53672c0,0 3.81128,-38.44193 2.57119,-53.2614c-0.84637,-10.11464 -9.36385,-23.56113 -9.36385,-23.56113c0,0 28.40381,-6.46356 42.30053,-5.33764c13.62455,1.10386 40.27945,12.02828 40.27945,12.02828c0,0 -11.73843,10.18064 -14.04835,19.44442c-3.58114,14.36193 -4.90733,54.88034 -4.90733,54.88034l20.96653,29.53815c0,0 2.28394,12.02792 -52.13967,8.35589c-52.20676,-4.50587 -52.2381,-15.72109 -52.2381,-15.72109z" fill="url(#color-42)" stroke="none" stroke-width="0"/><path d="" fill="#ffdf00" stroke="#ffdf00" stroke-width="2"/></g><g><path d="M-114.47067,224.92817l1.32043,-17.19111l56.37171,4.15629l-0.90462,17.47674z" fill="url(#color-43)" stroke="none" stroke-width="0"/><path d="" fill="#ffdf00" stroke="#ffdf00" stroke-width="2"/></g></g><g data-paper-data="{&quot;index&quot;:null}" stroke="none" stroke-width="0"><path d="M-85.29499,198.27922c-3.84781,-0.98312 -1.12096,-6.73567 2.42541,-9.7222c3.54639,-2.98654 7.7767,-6.73909 9.66133,-4.28553c1.96923,2.56369 -0.97766,4.67395 -4.52403,7.6605c-3.54639,2.98654 -3.85497,6.17115 -7.5627,6.34724z" fill="url(#color-44)"/><path d="M-92.12393,191.6245c-2.98354,-2.62119 2.05556,-6.51156 6.57068,-7.56503c4.51512,-1.05349 9.98723,-2.47951 10.5542,0.56192c0.59245,3.17795 -2.99099,3.72232 -7.50611,4.77581c-4.51512,1.05349 -6.23439,3.75184 -9.61878,2.22732z" fill="url(#color-45)"/><path d="M-94.85729,181.26653c-1.01329,-3.83997 5.33916,-4.25663 9.67388,-2.61149c4.3347,1.64515 9.67142,3.51511 8.44488,6.35542c-1.28161,2.96781 -4.55907,1.42003 -8.89378,-0.22511c-4.3347,-1.64515 -7.26708,-0.36524 -9.22496,-3.51882z" fill="url(#color-46)"/><path d="M-81.62925,183.54984c1.67079,-4.7218 5.77389,-2.21602 11.09274,-0.19736c5.31884,2.01865 9.86214,3.52544 8.16849,7.50755c-1.76967,4.16087 -5.77389,2.21602 -11.09274,0.19736c-5.31884,-2.01865 -9.70878,-3.15458 -8.16849,-7.50755z" fill="url(#color-47)"/><path d="M-74.61722,193.22988c-0.26831,-4.62863 -0.76104,-8.21953 2.4546,-8.55133c3.07748,-0.31754 3.25951,5.33439 3.52781,9.96302c0.26831,4.62863 -2.03575,10.56317 -5.39455,8.44408c-2.42055,-2.81412 -0.31953,-5.22716 -0.58786,-9.85579z" data-paper-data="{&quot;index&quot;:null}" fill="url(#color-48)"/></g><g data-paper-data="{&quot;index&quot;:null}" stroke="none" stroke-width="0"><path d="M-31.76429,213.30746c-5.1213,-1.94087 -7.73157,-7.5813 -5.83023,-12.59822c1.90133,-5.01693 7.59428,-7.51054 12.71556,-5.56967c5.1213,1.94087 7.73156,7.58129 5.83023,12.59822c-1.90133,5.01693 -7.59428,7.51054 -12.71556,5.56968z" fill="url(#color-49)"/><path d="M-61.75661,182.76162l36.98204,11.61838l-7.48118,19.74012l-35.27176,-15.96435z" fill="url(#color-50)"/></g></g></g></svg>