<svg version="1.1" xmlns="http://www.w3.org/2000/svg" xmlns:xlink="http://www.w3.org/1999/xlink" width="76.59117" height="114.86033" viewBox="0,0,76.59117,114.86033"><defs><linearGradient x1="240" y1="154.50403" x2="240" y2="205.49598" gradientUnits="userSpaceOnUse" id="color-1"><stop offset="0" stop-color="#959595"/><stop offset="1" stop-color="#2d2d2d"/></linearGradient><linearGradient x1="225.83333" y1="155.9724" x2="225.83333" y2="205.49598" gradientUnits="userSpaceOnUse" id="color-2"><stop offset="0" stop-color="#cccccc"/><stop offset="1" stop-color="#858585"/></linearGradient><linearGradient x1="236.48711" y1="181.31149" x2="236.48711" y2="190.89914" gradientUnits="userSpaceOnUse" id="color-3"><stop offset="0" stop-color="#868686"/><stop offset="1" stop-color="#515151"/></linearGradient><linearGradient x1="234.33716" y1="182.34613" x2="234.33716" y2="184.03187" gradientUnits="userSpaceOnUse" id="color-4"><stop offset="0" stop-color="#868686"/><stop offset="1" stop-color="#515151"/></linearGradient><linearGradient x1="254" y1="155.9724" x2="254" y2="205.49598" gradientUnits="userSpaceOnUse" id="color-5"><stop offset="0" stop-color="#cccccc"/><stop offset="1" stop-color="#858585"/></linearGradient><linearGradient x1="243.34622" y1="181.31149" x2="243.34622" y2="190.89914" gradientUnits="userSpaceOnUse" id="color-6"><stop offset="0" stop-color="#868686"/><stop offset="1" stop-color="#515151"/></linearGradient><linearGradient x1="245.49617" y1="182.34613" x2="245.49617" y2="184.03187" gradientUnits="userSpaceOnUse" id="color-7"><stop offset="0" stop-color="#868686"/><stop offset="1" stop-color="#515151"/></linearGradient><linearGradient x1="240" y1="204.51165" x2="240" y2="217.0394" gradientUnits="userSpaceOnUse" id="color-8"><stop offset="0" stop-color="#848484"/><stop offset="1" stop-color="#000000"/></linearGradient><linearGradient x1="240" y1="137.31059" x2="240" y2="148.93944" gradientUnits="userSpaceOnUse" id="color-9"><stop offset="0" stop-color="#d6cdb5"/><stop offset="1" stop-color="#b9b49e"/></linearGradient><radialGradient cx="231.95635" cy="172.70423" r="9" gradientUnits="userSpaceOnUse" id="color-10"><stop offset="0" stop-color="#18366f"/><stop offset="1" stop-color="#000000"/></radialGradient><radialGradient cx="247.95635" cy="172.70423" r="9" gradientUnits="userSpaceOnUse" id="color-11"><stop offset="0" stop-color="#18366f"/><stop offset="1" stop-color="#000000"/></radialGradient><radialGradient cx="239.75" cy="159.60924" r="57.43016" gradientUnits="userSpaceOnUse" id="color-12"><stop offset="0" stop-color="#000000" stop-opacity="0"/><stop offset="1" stop-color="#000000"/></radialGradient><linearGradient x1="278.19594" y1="159.7238" x2="237.67387" y2="159.7238" gradientUnits="userSpaceOnUse" id="color-13"><stop offset="0" stop-color="#000000"/><stop offset="1" stop-color="#000000" stop-opacity="0"/></linearGradient><linearGradient x1="201.60477" y1="159.7238" x2="240.79095" y2="159.7238" gradientUnits="userSpaceOnUse" id="color-14"><stop offset="0" stop-color="#000000"/><stop offset="1" stop-color="#000000" stop-opacity="0"/></linearGradient><radialGradient cx="239.78818" cy="144.46941" r="37.68845" gradientUnits="userSpaceOnUse" id="color-15"><stop offset="0" stop-color="#f54343"/><stop offset="1" stop-color="#f54343" stop-opacity="0"/></radialGradient></defs><g transform="translate(-201.60477,-102.17907)"><g data-paper-data="{&quot;isPaintingLayer&quot;:true}" fill-rule="nonzero" stroke-linecap="butt" stroke-linejoin="miter" stroke-miterlimit="10" stroke-dasharray="" stroke-dashoffset="0" style="mix-blend-mode: normal"><path d="M202.03839,217.0394v-114.86033h75.92322v114.86033z" fill="#bfcdd9" stroke="none" stroke-width="0"/><path d="M211.04987,205.49598v-50.99194h57.90026v50.99194z" fill="url(#color-1)" stroke="none" stroke-width="0"/><g stroke="none" stroke-width="0"><path d="M212.41791,205.49598v-49.52358h26.83084v49.52359z" fill="url(#color-2)"/><path d="M234.74869,190.89914v-9.58765h3.47683v9.58765z" fill="url(#color-3)"/><path d="M231.43487,184.03187v-1.68574h5.80459v1.68574z" fill="url(#color-4)"/></g><g data-paper-data="{&quot;index&quot;:null}" stroke="none" stroke-width="0"><path d="M240.58458,205.49599v-49.52359h26.83084v49.52358z" fill="url(#color-5)"/><path d="M241.60781,190.89914v-9.58765h3.47683v9.58765z" fill="url(#color-6)"/><path d="M242.59387,184.03187v-1.68574h5.80459v1.68574z" fill="url(#color-7)"/></g><path d="M202.03839,217.0394v-12.52775h75.92322v12.52775z" fill="url(#color-8)" stroke="none" stroke-width="0"/><g><path d="M230.9663,148.93944v-11.62887h18.06741v11.62887z" fill="url(#color-9)" stroke="none" stroke-width="0"/><text transform="translate(234.22253,145.74448) scale(0.13861,0.22704)" font-size="40" xml:space="preserve" fill="#ff0000" fill-rule="nonzero" stroke="#ff0000" stroke-width="2" stroke-linecap="butt" stroke-linejoin="miter" stroke-miterlimit="10" stroke-dasharray="" stroke-dashoffset="0" font-family="Sans Serif" font-weight="normal" text-anchor="start" style="mix-blend-mode: normal"><tspan x="0" dy="0">EXIT</tspan></text></g><path d="M229.46011,179.70423v-18h5.21053v18z" fill="url(#color-10)" stroke="none" stroke-width="NaN"/><path d="M245.46011,179.70423v-18h5.21053v18z" fill="url(#color-11)" stroke="none" stroke-width="NaN"/><path d="M201.78839,217.0394v-114.86033h75.92322v114.86033z" fill="url(#color-12)" stroke="none" stroke-width="0"/><path d="M237.67387,216.72188v-113.99616h40.52207v113.99616z" data-paper-data="{&quot;index&quot;:null}" fill="url(#color-13)" stroke="none" stroke-width="0"/><path d="M201.60477,216.72188v-113.99616h39.18618v113.99616z" data-paper-data="{&quot;index&quot;:null}" fill="url(#color-14)" stroke="none" stroke-width="0"/><path d="M239.78819,107.38531c20.81476,0 37.68845,16.60312 37.68845,37.0841c0,20.48097 -16.87369,37.08409 -37.68845,37.08409c-20.81477,0 -37.68846,-16.60311 -37.68846,-37.08409c0,-20.48098 16.8737,-37.0841 37.68846,-37.0841z" fill="url(#color-15)" stroke="none" stroke-width="0"/></g></g></svg>